<?xml version="1.0" encoding="UTF-8"?>
<svg width="64px" height="64px" viewBox="0 0 64 64" version="1.1" xmlns="http://www.w3.org/2000/svg" xmlns:xlink="http://www.w3.org/1999/xlink">
    <title>places/64/user-trash</title>
    <defs>
        <filter x="-8.6%" y="-7.4%" width="117.2%" height="118.5%" filterUnits="objectBoundingBox" id="filter-1">
            <feOffset dx="0" dy="1" in="SourceAlpha" result="shadowOffsetOuter1"></feOffset>
            <feGaussianBlur stdDeviation="1.5" in="shadowOffsetOuter1" result="shadowBlurOuter1"></feGaussianBlur>
            <feColorMatrix values="0 0 0 0 0   0 0 0 0 0   0 0 0 0 0  0 0 0 0.2 0" type="matrix" in="shadowBlurOuter1" result="shadowMatrixOuter1"></feColorMatrix>
            <feMerge>
                <feMergeNode in="shadowMatrixOuter1"></feMergeNode>
                <feMergeNode in="SourceGraphic"></feMergeNode>
            </feMerge>
        </filter>
        <radialGradient cx="50%" cy="33.5196055%" fx="50%" fy="33.5196055%" r="66.4803945%" id="radialGradient-2">
            <stop stop-color="#B8C6E3" stop-opacity="0.798295455" offset="0%"></stop>
            <stop stop-color="#BCC9E5" stop-opacity="0.808877585" offset="17.6611632%"></stop>
            <stop stop-color="#BFCAE5" stop-opacity="0.814572356" offset="29.8956866%"></stop>
            <stop stop-color="#E8EBF2" stop-opacity="0.921209162" offset="100%"></stop>
        </radialGradient>
        <path d="M2.47164448,0 L51.5283555,-8.8817842e-16 C52.6949758,-1.1024831e-15 53.6407085,0.945732626 53.6407085,2.11235294 C53.6407085,2.22256075 53.6320837,2.33259956 53.6149131,2.44146155 L46.5400835,47.296074 C45.931189,51.1564814 42.6040144,54 38.6958821,54 L15.3041179,54 C11.3959856,54 8.06881099,51.1564814 7.45991654,47.296074 L0.385086919,2.44146155 C0.203325252,1.28908763 0.990161949,0.207557045 2.14253587,0.0257953769 C2.25139786,0.0086247898 2.36143667,3.12886932e-15 2.47164448,3.10862447e-15 Z" id="path-3"></path>
        <filter x="-1.2%" y="-1.9%" width="102.4%" height="103.7%" filterUnits="objectBoundingBox" id="filter-5">
            <feGaussianBlur stdDeviation="0.5" in="SourceAlpha" result="shadowBlurInner1"></feGaussianBlur>
            <feOffset dx="0" dy="1" in="shadowBlurInner1" result="shadowOffsetInner1"></feOffset>
            <feComposite in="shadowOffsetInner1" in2="SourceAlpha" operator="arithmetic" k2="-1" k3="1" result="shadowInnerInner1"></feComposite>
            <feColorMatrix values="0 0 0 0 1   0 0 0 0 1   0 0 0 0 1  0 0 0 0.6 0" type="matrix" in="shadowInnerInner1"></feColorMatrix>
        </filter>
        <linearGradient x1="98.9653716%" y1="50%" x2="0%" y2="50%" id="linearGradient-6">
            <stop stop-color="#9BAF03" offset="0%"></stop>
            <stop stop-color="#4F6A00" offset="45.3652872%"></stop>
            <stop stop-color="#A7BB00" offset="100%"></stop>
        </linearGradient>
    </defs>
    <g id="places/64/user-trash" stroke="none" stroke-width="1" fill="none" fill-rule="evenodd">
        <g id="编组" filter="url(#filter-1)" transform="translate(5, 5)">
            <mask id="mask-4" fill="white">
                <use xlink:href="#path-3"></use>
            </mask>
            <g id="蒙版">
                <use fill="url(#radialGradient-2)" fill-rule="evenodd" xlink:href="#path-3"></use>
                <use fill="black" fill-opacity="1" filter="url(#filter-5)" xlink:href="#path-3"></use>
            </g>
        </g>
        <path d="M32.1923887,24.0966704 C29.2868826,18.2478305 26.2305263,22.9576185 26.2305263,22.9576185 L23.9131174,26.9656309 L28.6834818,29.6852775 L32.1923887,24.0966704 Z M42.5092308,22.3049033 L39.9382186,23.7255187 L38.9959514,22.1022629 C38.9959514,22.1022629 38.2679352,20.4128825 34.6759514,20.5899261 C34.6759514,20.5899261 30.2247773,20.7115103 29.7612955,20.6283212 C29.7612955,20.6283212 31.022753,20.8714896 31.6502024,21.8249656 L34.4923077,26.7309948 L32.4153846,27.8743128 L39.3851012,28.0214937 L42.5092308,22.3049033 Z M25.4259919,36.4513315 C21.8208907,41.9098222 27.5357085,42.0143419 27.5357085,42.0143419 L32.2426721,41.862895 L32.148664,36.4726621 L25.4259919,36.4513315 Z M18.5,28.7851278 L21.0797571,30.1886787 L20.1440486,31.8162006 C20.1440486,31.8162006 19.0465587,33.3050738 21.0688259,36.201764 C21.0688259,36.201764 23.4933603,39.8535561 23.6551417,40.2823004 C23.6551417,40.2823004 23.211336,39.1048534 23.7207287,38.0852525 L26.5409717,33.1664251 L28.6244534,34.2990779 L25.128664,28.4161091 L18.5,28.7851278 Z M40.2464777,35.6343711 C46.8904453,36.0439178 44.1948178,31.1293565 44.1948178,31.1293565 L41.7615385,27.1896018 L36.9868016,29.9028492 L40.2464777,35.6343711 Z M33.2002429,39.8087619 L36.7638057,33.962055 L36.7638057,36.2934854 L42.5376518,36.2934854 C43.6985425,36.2294937 44.5358704,35.2760176 44.5358704,35.2760176 C44.2319838,35.6215727 42.1463158,39.469606 42.1463158,39.469606 C40.5416194,42.6051985 38.6745749,42.396159 38.6745749,42.396159 L36.7638057,42.396159 L36.7638057,45.2757848 L33.2002429,39.8087619 Z" id="Fill-1" fill="url(#linearGradient-6)"></path>
        <g id="Guide/64" transform="translate(2, 2)"></g>
    </g>
</svg>