<?xml version="1.0" encoding="UTF-8"?>
<svg width="64px" height="64px" viewBox="0 0 64 64" version="1.1" xmlns="http://www.w3.org/2000/svg" xmlns:xlink="http://www.w3.org/1999/xlink">
    <title>places/64/user-home</title>
    <defs>
        <filter x="-8.9%" y="-8.3%" width="117.9%" height="120.8%" filterUnits="objectBoundingBox" id="filter-1">
            <feOffset dx="0" dy="1" in="SourceAlpha" result="shadowOffsetOuter1"></feOffset>
            <feGaussianBlur stdDeviation="1.5" in="shadowOffsetOuter1" result="shadowBlurOuter1"></feGaussianBlur>
            <feColorMatrix values="0 0 0 0 0   0 0 0 0 0   0 0 0 0 0  0 0 0 0.2 0" type="matrix" in="shadowBlurOuter1" result="shadowMatrixOuter1"></feColorMatrix>
            <feMerge>
                <feMergeNode in="shadowMatrixOuter1"></feMergeNode>
                <feMergeNode in="SourceGraphic"></feMergeNode>
            </feMerge>
        </filter>
        <linearGradient x1="50%" y1="0%" x2="50%" y2="26.3530556%" id="linearGradient-2">
            <stop stop-color="#1FB0EA" offset="0%"></stop>
            <stop stop-color="#2C7FE2" offset="100%"></stop>
        </linearGradient>
        <path d="M31.2792793,3 C32.0434808,4.81770784 33.8230705,6 35.7948884,6 L49,6 C52.8659932,6 56,9.13400675 56,13 L56,41 C56,44.8659932 52.8659932,48 49,48 L7,48 C3.13400675,48 -4.92645439e-14,44.8659932 -4.97379915e-14,41 L-4.97379915e-14,7 C-5.02114391e-14,3.13400675 3.13400675,-2.7711538e-14 7,-2.84217094e-14 L26.7636702,-2.84217094e-14 C28.735488,-2.87839265e-14 30.5150778,1.18229216 31.2792793,3 Z" id="path-3"></path>
        <linearGradient x1="50%" y1="0%" x2="50%" y2="11.7957837%" id="linearGradient-5">
            <stop stop-color="#FFFFFF" offset="0%"></stop>
            <stop stop-color="#CEF5FF" offset="100%"></stop>
        </linearGradient>
        <rect id="path-6" x="2.52252252" y="9" width="50.954955" height="20.75" rx="4.5"></rect>
        <filter x="-5.9%" y="-14.5%" width="111.8%" height="128.9%" filterUnits="objectBoundingBox" id="filter-7">
            <feOffset dx="0" dy="0" in="SourceAlpha" result="shadowOffsetOuter1"></feOffset>
            <feGaussianBlur stdDeviation="1" in="shadowOffsetOuter1" result="shadowBlurOuter1"></feGaussianBlur>
            <feColorMatrix values="0 0 0 0 0   0 0 0 0 0   0 0 0 0 0  0 0 0 0.2 0" type="matrix" in="shadowBlurOuter1"></feColorMatrix>
        </filter>
        <linearGradient x1="56.4262458%" y1="0%" x2="56.4262458%" y2="115.461063%" id="linearGradient-8">
            <stop stop-color="#5CCDF1" offset="0%"></stop>
            <stop stop-color="#1881DC" offset="100%"></stop>
        </linearGradient>
        <linearGradient x1="50%" y1="0%" x2="50%" y2="100%" id="linearGradient-9">
            <stop stop-color="#FFFFFF" offset="0%"></stop>
            <stop stop-color="#FFFFFF" stop-opacity="0.6" offset="100%"></stop>
        </linearGradient>
        <path d="M23,38.828 L23,48 L41,48 L41,38.828 L32,30.453 L23,38.828 Z M34,46 L30,46 L30,40 L34,40 L34,46 Z M44,36.148 L42.639,37.613 L32,27.73 L21.361,37.598 L20,36.133 L32,25 L44,36.148 Z" id="path-10"></path>
        <filter x="-14.6%" y="-10.9%" width="129.2%" height="130.4%" filterUnits="objectBoundingBox" id="filter-11">
            <feOffset dx="0" dy="1" in="SourceAlpha" result="shadowOffsetOuter1"></feOffset>
            <feGaussianBlur stdDeviation="1" in="shadowOffsetOuter1" result="shadowBlurOuter1"></feGaussianBlur>
            <feColorMatrix values="0 0 0 0 0   0 0 0 0 0.42905776   0 0 0 0 0.968670281  0 0 0 0.5 0" type="matrix" in="shadowBlurOuter1"></feColorMatrix>
        </filter>
    </defs>
    <g id="places/64/user-home" stroke="none" stroke-width="1" fill="none" fill-rule="evenodd">
        <g id="places/64/folder" transform="translate(4, 8)">
            <g id="Group-2" filter="url(#filter-1)" transform="translate(0, 0)">
                <mask id="mask-4" fill="white">
                    <use xlink:href="#path-3"></use>
                </mask>
                <use id="Mask" fill="url(#linearGradient-2)" xlink:href="#path-3"></use>
                <g id="Rectangle" mask="url(#mask-4)">
                    <use fill="black" fill-opacity="1" filter="url(#filter-7)" xlink:href="#path-6"></use>
                    <use fill="url(#linearGradient-5)" fill-rule="evenodd" xlink:href="#path-6"></use>
                </g>
                <g id="Group" mask="url(#mask-4)" fill="url(#linearGradient-8)">
                    <g transform="translate(0, 11.5)" id="Rectangle">
                        <path d="M0,0.5 L56,0.5 L56,29.5 C56,33.3659932 52.8659932,36.5 49,36.5 L7,36.5 C3.13400675,36.5 4.73447626e-16,33.3659932 0,29.5 L0,0.5 L0,0.5 Z"></path>
                    </g>
                </g>
            </g>
        </g>
        <g id="Shape">
            <use fill="black" fill-opacity="1" filter="url(#filter-11)" xlink:href="#path-10"></use>
            <use fill="url(#linearGradient-9)" fill-rule="evenodd" xlink:href="#path-10"></use>
        </g>
    </g>
</svg>