<?xml version="1.0" encoding="UTF-8"?>
<svg width="128px" height="128px" viewBox="0 0 128 128" version="1.1" xmlns="http://www.w3.org/2000/svg" xmlns:xlink="http://www.w3.org/1999/xlink">
    <title>apps/128/deepin-tooltips</title>
    <defs>
        <filter x="-9.6%" y="-7.7%" width="119.2%" height="119.2%" filterUnits="objectBoundingBox" id="filter-1">
            <feOffset dx="0" dy="2" in="SourceAlpha" result="shadowOffsetOuter1"></feOffset>
            <feGaussianBlur stdDeviation="3" in="shadowOffsetOuter1" result="shadowBlurOuter1"></feGaussianBlur>
            <feColorMatrix values="0 0 0 0 0   0 0 0 0 0   0 0 0 0 0  0 0 0 0.2 0" type="matrix" in="shadowBlurOuter1" result="shadowMatrixOuter1"></feColorMatrix>
            <feMerge>
                <feMergeNode in="shadowMatrixOuter1"></feMergeNode>
                <feMergeNode in="SourceGraphic"></feMergeNode>
            </feMerge>
        </filter>
        <linearGradient x1="50%" y1="-10.4247182%" x2="50%" y2="91.1041357%" id="linearGradient-2">
            <stop stop-color="#FFE94B" offset="0%"></stop>
            <stop stop-color="#FC8100" offset="100%"></stop>
        </linearGradient>
        <linearGradient x1="50%" y1="0%" x2="50%" y2="100%" id="linearGradient-3">
            <stop stop-color="#FCEDDB" offset="0%"></stop>
            <stop stop-color="#FFFFFF" offset="2.07736933%"></stop>
            <stop stop-color="#FFF9EA" offset="6.67533432%"></stop>
            <stop stop-color="#FFEBD2" offset="100%"></stop>
        </linearGradient>
        <path d="M42,71 L42,90.527318 C42,91.3410604 41.3394477,92 40.5245608,92 L29.4754392,92 C28.6605523,92 28,91.3410604 28,90.527318 L28,71 L32,71 L32,87.1784106 C32,87.6421342 32.3765765,88.0181818 32.8416382,88.0181818 L37.1583618,88.0181818 C37.6234235,88.0181818 38,87.6421342 38,87.1784106 L38,71 L42,71 Z M59,90.526683 C59,91.3403978 58.3403872,92 57.5273441,92 L46.4733408,92 C45.6596128,92 45,91.3403978 45,90.526683 L45,72.473317 C45,71.6596022 45.6596128,71 46.4733408,71 L57.5273441,71 C58.3403872,71 59,71.6596022 59,72.473317 L59,90.526683 Z M54.1595587,88.0181818 C54.623959,88.0181818 55,87.6414432 55,87.1777121 L55,75.8397847 C55,75.3760537 54.623959,75 54.1595587,75 L49.8404413,75 C49.376041,75 49,75.3760537 49,75.8397847 L49,87.1777121 C49,87.6414432 49.376041,88.0181818 49.8404413,88.0181818 L54.1595587,88.0181818 Z M75,90.526683 C75,91.3403978 74.3421118,92 73.5305113,92 L61,92 L61,88.0181818 L70.1624393,88.0181818 C70.6249422,88.0181818 71,87.6421469 71,87.1784391 L71.0143465,83.8397427 C71.0143465,83.3760349 70.6392887,83 70.1761026,83 L62.483152,83 C61.6722347,83 61,82.3403978 61,81.526683 L61,72.473317 C61,71.6596022 61.6578882,71 62.4694887,71 L75,71 L75,75 L65.8382439,75 C65.3750578,75 65,75.3760349 65,75.8404277 L65,78.1602573 C65,78.6239651 65.3750578,79 65.8382439,79 L73.5305113,79 C74.3421118,79 75,79.6596022 75,80.473317 L75,90.526683 Z" id="path-4"></path>
        <filter x="-5.3%" y="-11.9%" width="110.6%" height="123.8%" filterUnits="objectBoundingBox" id="filter-5">
            <feGaussianBlur stdDeviation="1.5" in="SourceAlpha" result="shadowBlurInner1"></feGaussianBlur>
            <feOffset dx="0" dy="-2" in="shadowBlurInner1" result="shadowOffsetInner1"></feOffset>
            <feComposite in="shadowOffsetInner1" in2="SourceAlpha" operator="arithmetic" k2="-1" k3="1" result="shadowInnerInner1"></feComposite>
            <feColorMatrix values="0 0 0 0 1   0 0 0 0 0.568627451   0 0 0 0 0.243137255  0 0 0 0.501217165 0" type="matrix" in="shadowInnerInner1" result="shadowMatrixInner1"></feColorMatrix>
            <feGaussianBlur stdDeviation="1" in="SourceAlpha" result="shadowBlurInner2"></feGaussianBlur>
            <feOffset dx="0" dy="1" in="shadowBlurInner2" result="shadowOffsetInner2"></feOffset>
            <feComposite in="shadowOffsetInner2" in2="SourceAlpha" operator="arithmetic" k2="-1" k3="1" result="shadowInnerInner2"></feComposite>
            <feColorMatrix values="0 0 0 0 1   0 0 0 0 1   0 0 0 0 1  0 0 0 1 0" type="matrix" in="shadowInnerInner2" result="shadowMatrixInner2"></feColorMatrix>
            <feMerge>
                <feMergeNode in="shadowMatrixInner1"></feMergeNode>
                <feMergeNode in="shadowMatrixInner2"></feMergeNode>
            </feMerge>
        </filter>
    </defs>
    <g id="apps/128/deepin-tooltips" stroke="none" stroke-width="1" fill="none" fill-rule="evenodd">
        <g id="编组" filter="url(#filter-1)" transform="translate(12, 12)">
            <path d="M22,0 L82,0 C94.1502645,-2.23196738e-15 104,9.8497355 104,22 L104,82 C104,94.1502645 94.1502645,104 82,104 L22,104 C9.8497355,104 5.04069193e-15,94.1502645 3.55271368e-15,82 L0,22 C-1.48797825e-15,9.8497355 9.8497355,5.78468106e-15 22,3.55271368e-15 Z" id="矩形" fill="url(#linearGradient-2)" fill-rule="nonzero"></path>
            <path d="M46.7561039,55.0286933 C45.9153247,47.406666 38.0545455,45.1790863 38.0545455,36.2045454 C38.0545455,28.3495363 44.4039481,21.9818182 52.2363636,21.9818182 C60.0687792,21.9818182 66.4181818,28.3495364 66.4181818,36.2045454 C66.4181818,45.1790863 58.5574026,47.406666 57.7166233,55.0286933 C58.4257143,55.0693297 46.0470129,55.0693296 46.7561039,55.0286933 Z M49.3252556,25.6947271 C49.1131507,25.1702416 48.5177567,24.9179142 47.9926096,25.1292128 C44.5068604,26.5453918 41.8640746,29.5726369 40.9235839,33.2269395 C40.782408,33.7760422 41.1118185,34.3347183 41.6587898,34.4762679 C41.744041,34.4988337 41.8299742,34.5090909 41.9145434,34.5090909 C42.3701255,34.5090909 42.7854691,34.2020584 42.9048207,33.7398 C43.6836753,30.7118712 45.8729249,28.203641 48.760552,27.0308998 C49.284335,26.8182336 49.5366785,26.2205801 49.3252556,25.6947271 Z" id="形状" fill="#FFFFFF" fill-rule="nonzero"></path>
            <rect id="矩形" fill="#FFFFFF" x="45" y="55" width="14" height="3" rx="1.5"></rect>
            <path d="M46.5,59 L57.5,59 C58.3284271,59 59,59.6715729 59,60.5 C59,61.3284271 58.3284271,62 57.5,62 L46.5,62 C45.6715729,62 45,61.3284271 45,60.5 C45,59.6715729 45.6715729,59 46.5,59 Z" id="矩形" fill="#FFFFFF"></path>
            <path d="M48.5,63 L55.5,63 C56.3284271,63 57,63.6715729 57,64.5 C57,65.3284271 56.3284271,66 55.5,66 L48.5,66 C47.6715729,66 47,65.3284271 47,64.5 C47,63.6715729 47.6715729,63 48.5,63 Z" id="矩形" fill="#FFFFFF"></path>
            <g id="形状结合" fill-rule="nonzero">
                <use fill="url(#linearGradient-3)" xlink:href="#path-4"></use>
                <use fill="black" fill-opacity="1" filter="url(#filter-5)" xlink:href="#path-4"></use>
            </g>
            <path d="M52.5,18 C53.328,18 54,17.328 54,16.5 L54,10.5 C54,9.672 53.328,9 52.5,9 C51.672,9 51,9.672 51,10.5 L51,16.5 C51,17.328 51.672,18 52.5,18 Z M37.8421694,23.2347529 C38.1094599,23.5027218 38.4603644,23.6363636 38.8112689,23.6363636 C39.1621734,23.6363636 39.5130778,23.5027218 39.7803684,23.2347529 C40.3156348,22.6995004 40.3156348,21.8318567 39.7803684,21.2966041 L35.9032851,17.4196212 C35.3687041,16.8843687 34.4996672,16.8843687 33.9650861,17.4196212 C33.4298198,17.9548737 33.4298198,18.8225174 33.9650861,19.35777 L37.8421694,23.2347529 Z M35,35.5 C35,34.672 34.328,34 33.5,34 L27.5,34 C26.672,34 26,34.672 26,35.5 C26,36.328 26.672,37 27.5,37 L33.5,37 C34.328,37 35,36.3279999 35,35.5 Z M37.8421694,48.1468939 L33.9650861,52.0238768 C33.4298198,52.5591293 33.4298198,53.426773 33.9650861,53.9620256 C34.2323766,54.2299945 34.5832812,54.3636364 34.9341856,54.3636364 C35.2850901,54.3636364 35.6359946,54.2299945 35.9032851,53.9620256 L39.7803684,50.0850427 C40.3156348,49.5497902 40.3156348,48.6821465 39.7803684,48.1468939 C39.2457873,47.6116414 38.3767505,47.6116414 37.8421694,48.1468939 Z M66.6305579,48.1468939 C66.0952915,47.6116414 65.2276253,47.6116414 64.6923589,48.1468939 C64.1570925,48.6821464 64.1570925,49.5497902 64.6923589,50.0850427 L68.5694422,53.9620256 C68.837418,54.2299945 69.1876372,54.3636364 69.5385416,54.3636364 C69.8894461,54.3636364 70.2396653,54.2299945 70.5076411,53.9620256 C71.0429075,53.4267731 71.0429075,52.5591294 70.5076411,52.0238768 L66.6305579,48.1468939 Z M77.5,34 L71.5,34 C70.672,34 70,34.672 70,35.5 C70,36.328 70.672,37 71.5,37 L77.5,37 C78.328,37 79,36.328 79,35.5 C79,34.672 78.328,34 77.5,34 Z M65.6614584,23.6363636 C66.0123628,23.6363636 66.362582,23.5027218 66.6305579,23.2347529 L70.5076411,19.35777 C71.0429075,18.8225175 71.0429075,17.9548738 70.5076411,17.4196212 C69.9723748,16.8843687 69.1047086,16.8843687 68.5694421,17.4196212 L64.6923589,21.2966041 C64.1570925,21.8318566 64.1570925,22.6995003 64.6923589,23.2347529 C64.9596494,23.5027218 65.3105539,23.6363636 65.6614584,23.6363636 Z" id="形状结合" fill="#FFFFFF" fill-rule="nonzero"></path>
        </g>
        <g id="Guide/128" transform="translate(4, 4)"></g>
    </g>
</svg>