<?xml version="1.0" encoding="UTF-8"?>
<svg width="128px" height="128px" viewBox="0 0 128 128" version="1.1" xmlns="http://www.w3.org/2000/svg" xmlns:xlink="http://www.w3.org/1999/xlink">
    <title>apps/128/deepin-compressor</title>
    <defs>
        <filter x="-8.9%" y="-8.2%" width="117.9%" height="121.6%" filterUnits="objectBoundingBox" id="filter-1">
            <feOffset dx="0" dy="2" in="SourceAlpha" result="shadowOffsetOuter1"></feOffset>
            <feGaussianBlur stdDeviation="3" in="shadowOffsetOuter1" result="shadowBlurOuter1"></feGaussianBlur>
            <feColorMatrix values="0 0 0 0 0   0 0 0 0 0   0 0 0 0 0  0 0 0 0.2 0" type="matrix" in="shadowBlurOuter1" result="shadowMatrixOuter1"></feColorMatrix>
            <feMerge>
                <feMergeNode in="shadowMatrixOuter1"></feMergeNode>
                <feMergeNode in="SourceGraphic"></feMergeNode>
            </feMerge>
        </filter>
        <linearGradient x1="50%" y1="4.03201438%" x2="50%" y2="61.4676573%" id="linearGradient-2">
            <stop stop-color="#FF7253" offset="0%"></stop>
            <stop stop-color="#FD3A80" offset="100%"></stop>
        </linearGradient>
        <rect id="path-3" x="0" y="0" width="112" height="32" rx="8"></rect>
        <filter x="-0.4%" y="-1.6%" width="100.9%" height="103.1%" filterUnits="objectBoundingBox" id="filter-4">
            <feOffset dx="0" dy="1" in="SourceAlpha" result="shadowOffsetInner1"></feOffset>
            <feComposite in="shadowOffsetInner1" in2="SourceAlpha" operator="arithmetic" k2="-1" k3="1" result="shadowInnerInner1"></feComposite>
            <feColorMatrix values="0 0 0 0 1   0 0 0 0 0.818966124   0 0 0 0 0.615720274  0 0 0 0.31678868 0" type="matrix" in="shadowInnerInner1" result="shadowMatrixInner1"></feColorMatrix>
            <feOffset dx="0" dy="-1" in="SourceAlpha" result="shadowOffsetInner2"></feOffset>
            <feComposite in="shadowOffsetInner2" in2="SourceAlpha" operator="arithmetic" k2="-1" k3="1" result="shadowInnerInner2"></feComposite>
            <feColorMatrix values="0 0 0 0 0   0 0 0 0 0   0 0 0 0 0  0 0 0 0.173896416 0" type="matrix" in="shadowInnerInner2" result="shadowMatrixInner2"></feColorMatrix>
            <feMerge>
                <feMergeNode in="shadowMatrixInner1"></feMergeNode>
                <feMergeNode in="shadowMatrixInner2"></feMergeNode>
            </feMerge>
        </filter>
        <linearGradient x1="50%" y1="0.72582348%" x2="50%" y2="48.1779687%" id="linearGradient-5">
            <stop stop-color="#1B85D5" offset="0%"></stop>
            <stop stop-color="#0762FF" offset="100%"></stop>
        </linearGradient>
        <rect id="path-6" x="0" y="32" width="112" height="32" rx="8"></rect>
        <filter x="-0.4%" y="-1.6%" width="100.9%" height="103.1%" filterUnits="objectBoundingBox" id="filter-7">
            <feOffset dx="0" dy="1" in="SourceAlpha" result="shadowOffsetInner1"></feOffset>
            <feComposite in="shadowOffsetInner1" in2="SourceAlpha" operator="arithmetic" k2="-1" k3="1" result="shadowInnerInner1"></feComposite>
            <feColorMatrix values="0 0 0 0 0.638429995   0 0 0 0 0.734341815   0 0 0 0 0.990036232  0 0 0 0.5 0" type="matrix" in="shadowInnerInner1" result="shadowMatrixInner1"></feColorMatrix>
            <feOffset dx="0" dy="-1" in="SourceAlpha" result="shadowOffsetInner2"></feOffset>
            <feComposite in="shadowOffsetInner2" in2="SourceAlpha" operator="arithmetic" k2="-1" k3="1" result="shadowInnerInner2"></feComposite>
            <feColorMatrix values="0 0 0 0 0   0 0 0 0 0   0 0 0 0 0  0 0 0 0.1 0" type="matrix" in="shadowInnerInner2" result="shadowMatrixInner2"></feColorMatrix>
            <feMerge>
                <feMergeNode in="shadowMatrixInner1"></feMergeNode>
                <feMergeNode in="shadowMatrixInner2"></feMergeNode>
            </feMerge>
        </filter>
        <linearGradient x1="50%" y1="0%" x2="50%" y2="65.4249112%" id="linearGradient-8">
            <stop stop-color="#3BBF8B" offset="0%"></stop>
            <stop stop-color="#028D76" offset="100%"></stop>
        </linearGradient>
        <rect id="path-9" x="0" y="64" width="112" height="32" rx="8"></rect>
        <filter x="-0.4%" y="-1.6%" width="100.9%" height="103.1%" filterUnits="objectBoundingBox" id="filter-10">
            <feOffset dx="0" dy="1" in="SourceAlpha" result="shadowOffsetInner1"></feOffset>
            <feComposite in="shadowOffsetInner1" in2="SourceAlpha" operator="arithmetic" k2="-1" k3="1" result="shadowInnerInner1"></feComposite>
            <feColorMatrix values="0 0 0 0 0.777637435   0 0 0 0 1   0 0 0 0 0.760918445  0 0 0 0.172694493 0" type="matrix" in="shadowInnerInner1" result="shadowMatrixInner1"></feColorMatrix>
            <feOffset dx="0" dy="-1" in="SourceAlpha" result="shadowOffsetInner2"></feOffset>
            <feComposite in="shadowOffsetInner2" in2="SourceAlpha" operator="arithmetic" k2="-1" k3="1" result="shadowInnerInner2"></feComposite>
            <feColorMatrix values="0 0 0 0 0   0 0 0 0 0   0 0 0 0 0  0 0 0 0.13786604 0" type="matrix" in="shadowInnerInner2" result="shadowMatrixInner2"></feColorMatrix>
            <feMerge>
                <feMergeNode in="shadowMatrixInner1"></feMergeNode>
                <feMergeNode in="shadowMatrixInner2"></feMergeNode>
            </feMerge>
        </filter>
        <linearGradient x1="50%" y1="0%" x2="50%" y2="100%" id="linearGradient-11">
            <stop stop-color="#4C4D52" offset="0%"></stop>
            <stop stop-color="#27282C" offset="100%"></stop>
        </linearGradient>
        <path d="M89,0 C89.5522847,-1.01453063e-16 90,0.44771525 90,1 L90,96 C90,96.5522847 89.5522847,97 89,97 L72,97 C71.4477153,97 71,96.5522847 71,96 L71,1 C71,0.44771525 71.4477153,1.01453063e-16 72,0 L89,0 Z M81,72 C79.1192881,72 78,73.1192881 78,75 C78,75.8807119 79.1192881,77 81,77 C81.8807119,77 83,75.8807119 83,75 C83,73.1192881 81.8807119,72 81,72 Z M81,50 C79.1192881,50 78,51.1192881 78,53 C78,53.8807119 79.1192881,55 81,55 C81.8807119,55 83,53.8807119 83,53 C83,51.1192881 81.8807119,50 81,50 Z M81,28 C79.1192881,28 78,29.1192881 78,31 C78,31.8807119 79.1192881,33 81,33 C81.8807119,33 83,31.8807119 83,31 C83,29.1192881 81.8807119,28 81,28 Z" id="path-12"></path>
        <filter x="-2.6%" y="-0.5%" width="110.5%" height="102.1%" filterUnits="objectBoundingBox" id="filter-13">
            <feOffset dx="1" dy="1" in="SourceAlpha" result="shadowOffsetOuter1"></feOffset>
            <feColorMatrix values="0 0 0 0 0   0 0 0 0 0   0 0 0 0 0  0 0 0 0.0816761364 0" type="matrix" in="shadowOffsetOuter1"></feColorMatrix>
        </filter>
        <linearGradient x1="50%" y1="0%" x2="50%" y2="100%" id="linearGradient-14">
            <stop stop-color="#37393E" offset="0%"></stop>
            <stop stop-color="#2A2C30" offset="100%"></stop>
        </linearGradient>
        <path d="M89,0 C89.5522847,-1.01453063e-16 90,0.44771525 90,1 L90,95 C90,95.5522847 89.5522847,96 89,96 L72,96 C71.4477153,96 71,95.5522847 71,95 L71,1 C71,0.44771525 71.4477153,1.01453063e-16 72,0 L89,0 Z M81,72 C79.1192881,72 78,73.1192881 78,75 C78,75.8807119 79.1192881,77 81,77 C81.8807119,77 83,75.8807119 83,75 C83,73.1192881 81.8807119,72 81,72 Z M81,50 C79.1192881,50 78,51.1192881 78,53 C78,53.8807119 79.1192881,55 81,55 C81.8807119,55 83,53.8807119 83,53 C83,51.1192881 81.8807119,50 81,50 Z M81,27 C79.1192881,27 78,28.1192881 78,30 C78,30.8807119 79.1192881,32 81,32 C81.8807119,32 83,30.8807119 83,30 C83,28.1192881 81.8807119,27 81,27 Z" id="path-15"></path>
        <filter x="-2.6%" y="-0.5%" width="105.3%" height="101.0%" filterUnits="objectBoundingBox" id="filter-16">
            <feOffset dx="0" dy="-1" in="SourceAlpha" result="shadowOffsetInner1"></feOffset>
            <feComposite in="shadowOffsetInner1" in2="SourceAlpha" operator="arithmetic" k2="-1" k3="1" result="shadowInnerInner1"></feComposite>
            <feColorMatrix values="0 0 0 0 0   0 0 0 0 0   0 0 0 0 0  0 0 0 0.07 0" type="matrix" in="shadowInnerInner1" result="shadowMatrixInner1"></feColorMatrix>
            <feOffset dx="0" dy="1" in="SourceAlpha" result="shadowOffsetInner2"></feOffset>
            <feComposite in="shadowOffsetInner2" in2="SourceAlpha" operator="arithmetic" k2="-1" k3="1" result="shadowInnerInner2"></feComposite>
            <feColorMatrix values="0 0 0 0 1   0 0 0 0 1   0 0 0 0 1  0 0 0 0.106807255 0" type="matrix" in="shadowInnerInner2" result="shadowMatrixInner2"></feColorMatrix>
            <feMerge>
                <feMergeNode in="shadowMatrixInner1"></feMergeNode>
                <feMergeNode in="shadowMatrixInner2"></feMergeNode>
            </feMerge>
        </filter>
        <linearGradient x1="50%" y1="0%" x2="50%" y2="99.5196368%" id="linearGradient-17">
            <stop stop-color="#EEEEEE" offset="0%"></stop>
            <stop stop-color="#AFAFAF" offset="100%"></stop>
        </linearGradient>
        <path d="M91,20 C92.1045695,20 93,20.8954305 93,22 L93,40 C93,41.1045695 92.1045695,42 91,42 L70,42 C68.8954305,42 68,41.1045695 68,40 L68,22 C68,20.8954305 68.8954305,20 70,20 L91,20 Z M87,25 L74,25 C73.4477153,25 73,25.4477153 73,26 L73,37 C73,37.5522847 73.4477153,38 74,38 L87,38 C87.5522847,38 88,37.5522847 88,37 L88,26 C88,25.4477153 87.5522847,25 87,25 Z" id="path-18"></path>
        <filter x="-8.0%" y="-4.5%" width="116.0%" height="118.2%" filterUnits="objectBoundingBox" id="filter-19">
            <feOffset dx="0" dy="1" in="SourceAlpha" result="shadowOffsetOuter1"></feOffset>
            <feGaussianBlur stdDeviation="0.5" in="shadowOffsetOuter1" result="shadowBlurOuter1"></feGaussianBlur>
            <feColorMatrix values="0 0 0 0 0   0 0 0 0 0   0 0 0 0 0  0 0 0 0.10270979 0" type="matrix" in="shadowBlurOuter1"></feColorMatrix>
        </filter>
        <filter x="-6.0%" y="-2.3%" width="112.0%" height="113.6%" filterUnits="objectBoundingBox" id="filter-20">
            <feOffset dx="0" dy="1" in="SourceAlpha" result="shadowOffsetInner1"></feOffset>
            <feComposite in="shadowOffsetInner1" in2="SourceAlpha" operator="arithmetic" k2="-1" k3="1" result="shadowInnerInner1"></feComposite>
            <feColorMatrix values="0 0 0 0 1   0 0 0 0 1   0 0 0 0 1  0 0 0 0.41482736 0" type="matrix" in="shadowInnerInner1" result="shadowMatrixInner1"></feColorMatrix>
            <feOffset dx="0" dy="-1" in="SourceAlpha" result="shadowOffsetInner2"></feOffset>
            <feComposite in="shadowOffsetInner2" in2="SourceAlpha" operator="arithmetic" k2="-1" k3="1" result="shadowInnerInner2"></feComposite>
            <feColorMatrix values="0 0 0 0 0.472118433   0 0 0 0 0.472118433   0 0 0 0 0.472118433  0 0 0 0.3105059 0" type="matrix" in="shadowInnerInner2" result="shadowMatrixInner2"></feColorMatrix>
            <feMerge>
                <feMergeNode in="shadowMatrixInner1"></feMergeNode>
                <feMergeNode in="shadowMatrixInner2"></feMergeNode>
            </feMerge>
        </filter>
        <linearGradient x1="50%" y1="1.67335304%" x2="50%" y2="100%" id="linearGradient-21">
            <stop stop-color="#EAEAEA" offset="0%"></stop>
            <stop stop-color="#F3F3F3" offset="31.25%"></stop>
            <stop stop-color="#D2D2D2" offset="67.7417652%"></stop>
            <stop stop-color="#9F9F9F" offset="100%"></stop>
        </linearGradient>
        <path d="M83,31.2219057 C82.3725531,31.7044719 81.4733762,32 80.5,32 C79.5266238,32 78.5462174,31.6826873 78,31.2135083 L78,22.7785623 C78,22.3485742 78.4796949,22 79.0714286,22 L81.9285714,22 C82.5203051,22 83,22.3485742 83,22.7785623 L83,31.2219057 Z" id="path-22"></path>
        <filter x="-40.0%" y="-10.0%" width="180.0%" height="140.0%" filterUnits="objectBoundingBox" id="filter-23">
            <feOffset dx="0" dy="1" in="SourceAlpha" result="shadowOffsetOuter1"></feOffset>
            <feGaussianBlur stdDeviation="0.5" in="shadowOffsetOuter1" result="shadowBlurOuter1"></feGaussianBlur>
            <feColorMatrix values="0 0 0 0 0.636860281   0 0 0 0 0.636860281   0 0 0 0 0.636860281  0 0 0 0.13633632 0" type="matrix" in="shadowBlurOuter1"></feColorMatrix>
        </filter>
        <filter x="-30.0%" y="-5.0%" width="160.0%" height="130.0%" filterUnits="objectBoundingBox" id="filter-24">
            <feOffset dx="0" dy="1" in="SourceAlpha" result="shadowOffsetInner1"></feOffset>
            <feComposite in="shadowOffsetInner1" in2="SourceAlpha" operator="arithmetic" k2="-1" k3="1" result="shadowInnerInner1"></feComposite>
            <feColorMatrix values="0 0 0 0 1   0 0 0 0 1   0 0 0 0 1  0 0 0 1 0" type="matrix" in="shadowInnerInner1" result="shadowMatrixInner1"></feColorMatrix>
            <feOffset dx="0" dy="-1" in="SourceAlpha" result="shadowOffsetInner2"></feOffset>
            <feComposite in="shadowOffsetInner2" in2="SourceAlpha" operator="arithmetic" k2="-1" k3="1" result="shadowInnerInner2"></feComposite>
            <feColorMatrix values="0 0 0 0 0.255915987   0 0 0 0 0.255915987   0 0 0 0 0.255915987  0 0 0 0.120274257 0" type="matrix" in="shadowInnerInner2" result="shadowMatrixInner2"></feColorMatrix>
            <feMerge>
                <feMergeNode in="shadowMatrixInner1"></feMergeNode>
                <feMergeNode in="shadowMatrixInner2"></feMergeNode>
            </feMerge>
        </filter>
    </defs>
    <g id="apps/128/deepin-compressor" stroke="none" stroke-width="1" fill="none" fill-rule="evenodd">
        <g id="编组备份" filter="url(#filter-1)" transform="translate(8, 15)">
            <g id="矩形备份-2">
                <use fill="url(#linearGradient-2)" fill-rule="evenodd" xlink:href="#path-3"></use>
                <use fill="black" fill-opacity="1" filter="url(#filter-4)" xlink:href="#path-3"></use>
            </g>
            <g id="矩形备份-3">
                <use fill="url(#linearGradient-5)" fill-rule="evenodd" xlink:href="#path-6"></use>
                <use fill="black" fill-opacity="1" filter="url(#filter-7)" xlink:href="#path-6"></use>
            </g>
            <g id="矩形备份-4">
                <use fill="url(#linearGradient-8)" fill-rule="evenodd" xlink:href="#path-9"></use>
                <use fill="black" fill-opacity="1" filter="url(#filter-10)" xlink:href="#path-9"></use>
            </g>
            <g id="形状结合">
                <use fill="black" fill-opacity="1" filter="url(#filter-13)" xlink:href="#path-12"></use>
                <use fill="url(#linearGradient-11)" fill-rule="evenodd" xlink:href="#path-12"></use>
            </g>
            <g id="形状结合">
                <use fill="url(#linearGradient-14)" fill-rule="evenodd" xlink:href="#path-15"></use>
                <use fill="black" fill-opacity="1" filter="url(#filter-16)" xlink:href="#path-15"></use>
            </g>
            <g id="形状结合">
                <use fill="black" fill-opacity="1" filter="url(#filter-19)" xlink:href="#path-18"></use>
                <use fill="url(#linearGradient-17)" fill-rule="evenodd" xlink:href="#path-18"></use>
                <use fill="black" fill-opacity="1" filter="url(#filter-20)" xlink:href="#path-18"></use>
            </g>
            <g id="路径">
                <use fill="black" fill-opacity="1" filter="url(#filter-23)" xlink:href="#path-22"></use>
                <use fill="url(#linearGradient-21)" fill-rule="evenodd" xlink:href="#path-22"></use>
                <use fill="black" fill-opacity="1" filter="url(#filter-24)" xlink:href="#path-22"></use>
            </g>
            <rect id="矩形备份-5" fill-opacity="0.1" fill="#000000" x="8" y="8" width="15" height="15" rx="1.25"></rect>
            <rect id="矩形备份-8" fill-opacity="0.1" fill="#000000" x="26" y="22" width="17" height="1" rx="0.25"></rect>
            <rect id="矩形备份-11" fill-opacity="0.1" fill="#000000" x="26" y="55" width="17" height="1" rx="0.25"></rect>
            <rect id="矩形备份-14" fill-opacity="0.1" fill="#000000" x="26" y="88" width="17" height="1" rx="0.25"></rect>
            <rect id="矩形备份-9" fill-opacity="0.1" fill="#000000" x="26" y="19" width="12" height="1" rx="0.25"></rect>
            <rect id="矩形备份-12" fill-opacity="0.1" fill="#000000" x="26" y="52" width="12" height="1" rx="0.25"></rect>
            <rect id="矩形备份-15" fill-opacity="0.1" fill="#000000" x="26" y="85" width="12" height="1" rx="0.25"></rect>
            <rect id="矩形备份-10" fill-opacity="0.1" fill="#000000" x="26" y="16" width="12" height="1" rx="0.25"></rect>
            <rect id="矩形备份-13" fill-opacity="0.1" fill="#000000" x="26" y="49" width="12" height="1" rx="0.25"></rect>
            <rect id="矩形备份-16" fill-opacity="0.1" fill="#000000" x="26" y="82" width="12" height="1" rx="0.25"></rect>
            <rect id="矩形备份-6" fill-opacity="0.1" fill="#000000" x="8" y="41" width="15" height="15" rx="1.25"></rect>
            <rect id="矩形备份-7" fill-opacity="0.1" fill="#000000" x="8" y="74" width="15" height="15" rx="1.25"></rect>
        </g>
        <g id="Guide-128" transform="translate(4, 4)"></g>
    </g>
</svg>