<svg xmlns="http://www.w3.org/2000/svg" xmlns:xlink="http://www.w3.org/1999/xlink" width="128" height="128" viewBox="0 0 128 128">
  <defs>
    <filter id="deepin-mail-128px-a" width="183.7%" height="145.8%" x="-45.7%" y="-13.6%" filterUnits="objectBoundingBox">
      <feOffset dy="2" in="SourceAlpha" result="shadowOffsetOuter1"/>
      <feGaussianBlur in="shadowOffsetOuter1" result="shadowBlurOuter1" stdDeviation="3"/>
      <feColorMatrix in="shadowBlurOuter1" result="shadowMatrixOuter1" values="0 0 0 0 0   0 0 0 0 0   0 0 0 0 0  0 0 0 0.2 0"/>
      <feMerge>
        <feMergeNode in="shadowMatrixOuter1"/>
        <feMergeNode in="SourceGraphic"/>
      </feMerge>
    </filter>
    <linearGradient id="deepin-mail-128px-c" x1="50%" x2="50%" y1="0%" y2="100%">
      <stop offset="0%" stop-color="#080030"/>
      <stop offset="100%" stop-color="#002F48"/>
    </linearGradient>
    <path id="deepin-mail-128px-b" d="M9.89177974,0.325553134 C4.61269931,0.325553134 0.333159054,4.58464743 0.333159054,9.8385065 L0.333159054,92.8125998 C0.333159054,98.0664588 4.61269931,102.325553 9.89177974,102.325553 L66.7745384,102.325553 C72.0536188,102.325553 76.3331591,98.0664588 76.3331591,92.8125998 L76.3331591,9.8385065 C76.3331591,4.58464743 72.0536188,0.325553134 66.7745384,0.325553134 L9.89177974,0.325553134 Z"/>
    <linearGradient id="deepin-mail-128px-d" x1="3.381%" x2="74.037%" y1="58.046%" y2="67.372%">
      <stop offset="0%" stop-color="#00807D"/>
      <stop offset="100%" stop-color="#0013AE"/>
    </linearGradient>
    <linearGradient id="deepin-mail-128px-f" x1="9.477%" x2="70.884%" y1="71.354%" y2="41.48%">
      <stop offset="0%" stop-color="#00499C"/>
      <stop offset="100%" stop-color="#000A72"/>
    </linearGradient>
    <ellipse id="deepin-mail-128px-g" cx="64.733" cy="2.911" rx="23.063" ry="23.288"/>
    <filter id="deepin-mail-128px-h" width="132.5%" height="132.2%" x="-16.3%" y="-16.1%" filterUnits="objectBoundingBox">
      <feOffset dx="15" dy="1" in="SourceAlpha" result="shadowOffsetInner1"/>
      <feComposite in="shadowOffsetInner1" in2="SourceAlpha" k2="-1" k3="1" operator="arithmetic" result="shadowInnerInner1"/>
      <feColorMatrix in="shadowInnerInner1" values="0 0 0 0 1   0 0 0 0 1   0 0 0 0 1  0 0 0 0.1 0"/>
    </filter>
    <linearGradient id="deepin-mail-128px-i" x1="50%" x2="50%" y1="0%" y2="100%">
      <stop offset="0%" stop-color="#FAD961"/>
      <stop offset="100%" stop-color="#F76B1C"/>
    </linearGradient>
    <linearGradient id="deepin-mail-128px-j" x1="50%" x2="50%" y1="0%" y2="100%">
      <stop offset="0%" stop-color="#FAD961"/>
      <stop offset="100%" stop-color="#F76B1C"/>
    </linearGradient>
    <linearGradient id="deepin-mail-128px-k" x1="30.457%" x2="79.946%" y1="7.708%" y2="65.246%">
      <stop offset="0%" stop-color="#004940"/>
      <stop offset="100%" stop-color="#001D3C"/>
    </linearGradient>
    <ellipse id="deepin-mail-128px-l" cx="11.269" cy="100.828" rx="13.628" ry="13.761"/>
    <filter id="deepin-mail-128px-m" width="155%" height="154.5%" x="-27.5%" y="-27.3%" filterUnits="objectBoundingBox">
      <feOffset dx="15" dy="1" in="SourceAlpha" result="shadowOffsetInner1"/>
      <feComposite in="shadowOffsetInner1" in2="SourceAlpha" k2="-1" k3="1" operator="arithmetic" result="shadowInnerInner1"/>
      <feColorMatrix in="shadowInnerInner1" values="0 0 0 0 1   0 0 0 0 1   0 0 0 0 1  0 0 0 0.1 0"/>
    </filter>
    <linearGradient id="deepin-mail-128px-n" x1="31.685%" x2="58.652%" y1="60.932%" y2="100%">
      <stop offset="0%" stop-color="#33B8EC"/>
      <stop offset="100%" stop-color="#B5DEFF"/>
    </linearGradient>
    <linearGradient id="deepin-mail-128px-o" x1="36.765%" x2="9.658%" y1="58.706%" y2="100%">
      <stop offset="0%" stop-color="#00B7FF"/>
      <stop offset="100%" stop-color="#87CAFF"/>
    </linearGradient>
    <polygon id="deepin-mail-128px-p" points="26.036 37.913 19.294 49.112 63.878 .209"/>
    <filter id="deepin-mail-128px-q" width="102.2%" height="102%" x="-1.1%" y="-1%" filterUnits="objectBoundingBox">
      <feOffset dx="1" dy="1" in="SourceAlpha" result="shadowOffsetInner1"/>
      <feComposite in="shadowOffsetInner1" in2="SourceAlpha" k2="-1" k3="1" operator="arithmetic" result="shadowInnerInner1"/>
      <feColorMatrix in="shadowInnerInner1" values="0 0 0 0 1   0 0 0 0 1   0 0 0 0 1  0 0 0 0.5 0"/>
    </filter>
    <filter id="deepin-mail-128px-r" width="179.7%" height="187.9%" x="-39.8%" y="-44%" filterUnits="objectBoundingBox">
      <feOffset dy="5" in="SourceAlpha" result="shadowOffsetOuter1"/>
      <feGaussianBlur in="shadowOffsetOuter1" result="shadowBlurOuter1" stdDeviation="4"/>
      <feColorMatrix in="shadowBlurOuter1" result="shadowMatrixOuter1" values="0 0 0 0 0   0 0 0 0 0   0 0 0 0 0  0 0 0 0.2 0"/>
      <feMerge>
        <feMergeNode in="shadowMatrixOuter1"/>
        <feMergeNode in="SourceGraphic"/>
      </feMerge>
    </filter>
    <linearGradient id="deepin-mail-128px-s" x1="98.248%" x2="10.424%" y1="35.028%" y2="62.792%">
      <stop offset="0%" stop-color="#6DB4FF"/>
      <stop offset="100%" stop-color="#D5FFFD"/>
    </linearGradient>
    <linearGradient id="deepin-mail-128px-t" x1="70.2%" x2="50%" y1="3.11%" y2="94.772%">
      <stop offset="0%" stop-color="#57A2FF"/>
      <stop offset="100%" stop-color="#D3F9FF"/>
    </linearGradient>
  </defs>
  <g fill="none" fill-rule="evenodd" filter="url(#deepin-mail-128px-a)" transform="translate(18 5)">
    <path fill="#F3F3F3" fill-rule="nonzero" stroke="#FFF" d="M27.1005072,0.501319697 C27.5380072,1.35668193 28.1928993,2.08242803 28.9924135,2.60551096 C29.8567656,3.17101412 30.8899466,3.5 32,3.5 C33.1100534,3.5 34.1432344,3.17101412 35.0075865,2.60551096 C35.7271493,2.13473632 36.3295682,1.49980452 36.7617938,0.753966835 L36.8994928,0.501319697 L41.1005072,0.501319697 C41.5380072,1.35668193 42.1928993,2.08242803 42.9924135,2.60551096 C43.8567656,3.17101412 44.8899466,3.5 46,3.5 C47.1100534,3.5 48.1432344,3.17101412 49.0075865,2.60551096 C49.7271493,2.13473632 50.3295682,1.49980452 50.7617938,0.753966835 L50.8994928,0.501319697 L56.1005072,0.501319697 C56.5380072,1.35668193 57.1928993,2.08242803 57.9924135,2.60551096 C58.8567656,3.17101412 59.8899466,3.5 61,3.5 C62.1100534,3.5 63.1432344,3.17101412 64.0075865,2.60551096 C64.7271493,2.13473632 65.3295682,1.49980452 65.7617938,0.753966835 L65.8994928,0.501319697 L70.1005072,0.501319697 C70.5380072,1.35668193 71.1928993,2.08242803 71.9924135,2.60551096 C72.8567656,3.17101412 73.8899466,3.5 75,3.5 C76.8584625,3.5 78.5017276,2.57827664 79.4974555,1.16696653 C80.9259061,1.58346201 82.274965,2.18669585 83.5167307,2.94829317 C83.5748076,4.49532876 84.1582105,5.82825176 85.0664459,6.79918317 C86.0156234,7.81388301 87.3216159,8.43631592 88.7725262,8.49544192 C89.6416798,9.49040035 90.1769427,10.5667731 90.5731121,11.6991499 C89.3091663,12.7062664 88.5,14.2586633 88.5,16 C88.5,17.1102228 88.8290862,18.1435498 89.394748,19.0079822 C89.8656495,19.7276041 90.5007451,20.3300391 91.2467607,20.7622153 L91.4994676,20.8998954 L91.4994676,25.1001046 C90.6439046,25.5375332 89.9179719,26.1924379 89.394748,26.9920178 C88.8290862,27.8564502 88.5,28.8897772 88.5,30 C88.5,31.1102228 88.8290862,32.1435498 89.394748,33.0079822 C89.8656495,33.7276041 90.5007451,34.3300391 91.2467607,34.7622153 L91.4994676,34.8998954 L91.4994676,39.1001046 C90.6439046,39.5375332 89.9179719,40.1924379 89.394748,40.9920178 C88.8290862,41.8564502 88.5,42.8897772 88.5,44 C88.5,45.1102228 88.8290862,46.1435498 89.394748,47.0079822 C89.8656495,47.7276041 90.5007451,48.3300391 91.2467607,48.7622153 L91.4994676,48.8998954 L91.4994676,54.1001046 C90.6439046,54.5375332 89.9179719,55.1924379 89.394748,55.9920178 C88.8290862,56.8564502 88.5,57.8897772 88.5,59 C88.5,60.1102228 88.8290862,61.1435498 89.394748,62.0079822 C89.8656495,62.7276041 90.5007451,63.3300391 91.2467607,63.7622153 L91.4994676,63.8998954 L91.4994676,68.1001046 C90.6439046,68.5375332 89.9179719,69.1924379 89.394748,69.9920178 C88.8290862,70.8564502 88.5,71.8897772 88.5,73 C88.5,74.1102228 88.8290862,75.1435498 89.394748,76.0079822 C89.8656495,76.7276041 90.5007451,77.3300391 91.2467607,77.7622153 L91.4994676,77.8998954 L91.4994676,82.1001046 C90.6439046,82.5375332 89.9179719,83.1924379 89.394748,83.9920178 C88.8290862,84.8564502 88.5,85.8897772 88.5,87 C88.5,88.1102228 88.8290862,89.1435498 89.394748,90.0079822 C89.8656495,90.7276041 90.5007451,91.3300391 91.2467607,91.7622153 L91.4994676,91.8998954 L91.4994676,96.1001046 C90.6439046,96.5375332 89.9179719,97.1924379 89.394748,97.9920178 C88.8290862,98.8564502 88.5,99.8897772 88.5,101 C88.5,102.857579 89.4208473,104.500166 90.8308799,105.496075 C90.4668631,106.743152 89.96113,107.9296 89.3325207,109.037005 C87.4812169,109.027027 86.1062169,109.642635 85.1109127,110.63794 C84.1156085,111.633244 83.5,113.008244 83.5,114.527027 C83.5,114.702236 83.5082072,114.875529 83.5242258,115.046627 C82.4241453,115.722811 81.238591,116.274508 79.9880487,116.68207 C79.5780981,115.80053 78.9415157,115.045912 78.1530352,114.493184 C77.2602838,113.867361 76.1730611,113.5 75,113.5 C73.6816638,113.5 72.4717088,113.963908 71.5243105,114.737221 C70.7344123,115.381975 70.1272811,116.241998 69.7919462,117.227662 L69.7072968,117.499527 L66.2927032,117.499527 C65.9815959,116.400145 65.3373966,115.440589 64.4756895,114.737221 C63.5282912,113.963908 62.3183362,113.5 61,113.5 C59.6816638,113.5 58.4717088,113.963908 57.5243105,114.737221 C56.7344123,115.381975 56.1272811,116.241998 55.7919462,117.227662 L55.7072968,117.499527 L51.2927032,117.499527 C50.9815959,116.400145 50.3373966,115.440589 49.4756895,114.737221 C48.5282912,113.963908 47.3183362,113.5 46,113.5 C44.6816638,113.5 43.4717088,113.963908 42.5243105,114.737221 C41.7344123,115.381975 41.1272811,116.241998 40.7919462,117.227662 L40.7072968,117.499527 L37.2927032,117.499527 C36.9815959,116.400145 36.3373966,115.440589 35.4756895,114.737221 C34.5282912,113.963908 33.3183362,113.5 32,113.5 C30.6816638,113.5 29.4717088,113.963908 28.5243105,114.737221 C27.7344123,115.381975 27.1272811,116.241998 26.7919462,117.227662 L26.7072968,117.499527 L23.2927032,117.499527 C22.9815959,116.400145 22.3373966,115.440589 21.4756895,114.737221 C20.5282912,113.963908 19.3183362,113.5 18,113.5 C16.7760284,113.5 15.6454964,113.899914 14.7317362,114.575976 C13.9205568,115.176142 13.2804569,115.994201 12.8972436,116.94335 C11.3191686,116.524946 9.83302651,115.880503 8.47542391,115.046978 C8.49178016,114.875791 8.5,114.702367 8.5,114.527027 C8.5,113.008244 7.88439153,111.633244 6.8890873,110.63794 C5.89378306,109.642635 4.51878306,109.027027 3,109.027027 C2.17589282,108.170389 1.75911991,107.255181 1.42664465,106.300391 C2.69049058,105.294318 3.5,103.741689 3.5,102 C3.5,100.889947 3.17101412,99.8567656 2.60551096,98.9924135 C2.13473632,98.2728507 1.49980452,97.6704318 0.753966835,97.2382062 L0.501319697,97.1005072 L0.501319697,92.8994928 C1.35668193,92.4619928 2.08242803,91.8071007 2.60551096,91.0075865 C3.17101412,90.1432344 3.5,89.1100534 3.5,88 C3.5,86.8899466 3.17101412,85.8567656 2.60551096,84.9924135 C2.13473632,84.2728507 1.49980452,83.6704318 0.753966835,83.2382062 L0.501319696,83.1005072 L0.501319696,77.8994928 C1.35668193,77.4619928 2.08242803,76.8071007 2.60551096,76.0075865 C3.17101412,75.1432344 3.5,74.1100534 3.5,73 C3.5,71.8899466 3.17101412,70.8567656 2.60551096,69.9924135 C2.13473632,69.2728507 1.49980452,68.6704318 0.753966835,68.2382062 L0.501319697,68.1005072 L0.501319697,63.8994928 C1.35668193,63.4619928 2.08242803,62.8071007 2.60551096,62.0075865 C3.17101412,61.1432344 3.5,60.1100534 3.5,59 C3.5,57.8899466 3.17101412,56.8567656 2.60551096,55.9924135 C2.13473632,55.2728507 1.49980452,54.6704318 0.753966835,54.2382062 L0.501319697,54.1005072 L0.501319697,49.8994928 C1.35668193,49.4619928 2.08242803,48.8071007 2.60551096,48.0075865 C3.17101412,47.1432344 3.5,46.1100534 3.5,45 C3.5,43.8899466 3.17101412,42.8567656 2.60551096,41.9924135 C2.13473632,41.2728507 1.49980452,40.6704318 0.753966835,40.2382062 L0.501319696,40.1005072 L0.501319696,34.8994928 C1.35668193,34.4619928 2.08242803,33.8071007 2.60551096,33.0075865 C3.17101412,32.1432344 3.5,31.1100534 3.5,30 C3.5,28.8899466 3.17101412,27.8567656 2.60551096,26.9924135 C2.13473632,26.2728507 1.49980452,25.6704318 0.753966835,25.2382062 L0.501319697,25.1005072 L0.501319697,20.8994928 C1.35668193,20.4619928 2.08242803,19.8071007 2.60551096,19.0075865 C3.17101412,18.1432344 3.5,17.1100534 3.5,16 C3.5,14.2586755 2.69082308,12.7062723 1.42782793,11.6983471 C1.83130063,10.5381458 2.35994556,9.43607987 2.99703462,8.40844779 C3.32237977,8.46865425 3.65753088,8.5 4,8.5 C5.51878306,8.5 6.89378306,7.88439153 7.8890873,6.8890873 C8.88439153,5.89378306 9.5,4.51878306 9.5,3 C9.5,2.79395868 9.48865074,2.59056668 9.46680334,2.39028802 C10.6816482,1.75447321 11.9848832,1.26408066 13.3530215,0.942490895 C13.8154495,1.67146009 14.4444693,2.28402908 15.186488,2.72667244 C16.0096983,3.21774975 16.9718727,3.5 18,3.5 C19.1100534,3.5 20.1432344,3.17101412 21.0075865,2.60551096 C21.7271493,2.13473632 22.3295682,1.49980452 22.7617938,0.753966835 L22.8994928,0.501319697 L27.1005072,0.501319697 Z M74.532872,7.5 L17.2041522,7.5 L16.8634758,7.50576125 C14.2650425,7.59386505 11.9797377,8.68704117 10.3163757,10.4117058 C8.56270301,12.2300094 7.5,14.7528388 7.5,17.5433679 L7.5,17.5433679 L7.5,100.456632 L7.50577778,100.80185 C7.59413306,103.437554 8.69038613,105.81553 10.4178892,107.556945 C12.2219467,109.375531 14.7143258,110.5 17.467128,110.5 L17.467128,110.5 L74.532872,110.5 L74.8755849,110.494175 C77.4921774,110.405089 79.8532223,109.299756 81.5821108,107.556945 C83.3847227,105.739816 84.5,103.22957 84.5,100.456632 L84.5,100.456632 L84.5,17.5433679 L84.4942222,17.19815 C84.4058669,14.5624462 83.3096139,12.1844699 81.5821108,10.4430551 C79.7780533,8.62446925 77.2856742,7.5 74.532872,7.5 L74.532872,7.5 Z"/>
    <g transform="translate(7.667 7.674)">
      <mask id="deepin-mail-128px-e" fill="#fff">
        <use xlink:href="#deepin-mail-128px-b"/>
      </mask>
      <use fill="url(#deepin-mail-128px-c)" fill-rule="nonzero" xlink:href="#deepin-mail-128px-b"/>
      <path fill="url(#deepin-mail-128px-d)" fill-rule="nonzero" d="M27.8427972,0.32410456 C25.5887731,1.95625998 24.1568239,3.89267384 23.7356154,6.08075194 C21.8492165,15.8804093 40.6007734,28.6581518 66.0572312,33.6551281 C69.5603649,34.3426705 73.0003043,34.8455598 76.3331032,35.1760762 L76.3331032,39.2025806 C72.7419785,38.8558844 69.0438553,38.3176211 65.2868094,37.580244 C37.8886042,32.2021162 17.330539,18.1933774 19.8077224,5.32463647 C20.1586449,3.50167966 20.946119,1.83228202 22.1172423,0.324747762 L27.8427972,0.32410456 Z" mask="url(#deepin-mail-128px-e)" opacity=".503"/>
      <g mask="url(#deepin-mail-128px-e)" opacity=".5">
        <use fill="url(#deepin-mail-128px-f)" xlink:href="#deepin-mail-128px-g"/>
        <use fill="#000" filter="url(#deepin-mail-128px-h)" xlink:href="#deepin-mail-128px-g"/>
      </g>
      <ellipse cx="29.079" cy="18.326" fill="url(#deepin-mail-128px-i)" mask="url(#deepin-mail-128px-e)" rx="5.948" ry="6"/>
      <path fill="#070935" fill-rule="nonzero" d="M29.0791259,8.32555313 C23.5771503,8.32555313 19.1310875,12.8104564 19.1310875,18.3255531 C19.1310875,23.8406499 23.5771503,28.3255531 29.0791259,28.3255531 C34.5811015,28.3255531 39.0271643,23.8406499 39.0271643,18.3255531 C39.0271643,12.8104564 34.5811015,8.32555313 29.0791259,8.32555313 Z M29.0791259,12.3255531 C32.3641368,12.3255531 35.0271643,15.0118446 35.0271643,18.3255531 C35.0271643,21.6392616 32.3641368,24.3255531 29.0791259,24.3255531 C25.794115,24.3255531 23.1310875,21.6392616 23.1310875,18.3255531 C23.1310875,15.0118446 25.794115,12.3255531 29.0791259,12.3255531 Z" mask="url(#deepin-mail-128px-e)"/>
      <path fill="#000" fill-rule="nonzero" d="M29.0791259,11.3255531 C25.2398739,11.3255531 22.1310875,14.4614976 22.1310875,18.3255531 C22.1310875,22.1896087 25.2398739,25.3255531 29.0791259,25.3255531 C32.918378,25.3255531 36.0271643,22.1896087 36.0271643,18.3255531 C36.0271643,14.4614976 32.918378,11.3255531 29.0791259,11.3255531 Z M29.0791259,13.3255531 C31.8098956,13.3255531 34.0271643,15.5621917 34.0271643,18.3255531 C34.0271643,21.0889146 31.8098956,23.3255531 29.0791259,23.3255531 C26.3483562,23.3255531 24.1310875,21.0889146 24.1310875,18.3255531 C24.1310875,15.5621917 26.3483562,13.3255531 29.0791259,13.3255531 Z" mask="url(#deepin-mail-128px-e)"/>
      <ellipse cx="67.741" cy="97.326" fill="url(#deepin-mail-128px-j)" mask="url(#deepin-mail-128px-e)" rx="1.983" ry="2"/>
      <g mask="url(#deepin-mail-128px-e)">
        <use fill="url(#deepin-mail-128px-k)" xlink:href="#deepin-mail-128px-l"/>
        <use fill="#000" filter="url(#deepin-mail-128px-m)" xlink:href="#deepin-mail-128px-l"/>
      </g>
    </g>
    <g transform="rotate(-28 123.649 30.135)">
      <polygon fill="url(#deepin-mail-128px-n)" points="21.269 35.202 19.294 49.112 63.878 .209"/>
      <use fill="url(#deepin-mail-128px-o)" xlink:href="#deepin-mail-128px-p"/>
      <use fill="#000" filter="url(#deepin-mail-128px-q)" xlink:href="#deepin-mail-128px-p"/>
      <g filter="url(#deepin-mail-128px-r)" transform="translate(0 .265)">
        <polygon fill="url(#deepin-mail-128px-s)" points="21.269 34.937 63.845 0 0 31.492"/>
        <polygon fill="url(#deepin-mail-128px-t)" points="26.036 37.649 63.845 0 47.983 57.824"/>
      </g>
    </g>
  </g>
</svg>
