<?xml version="1.0" encoding="UTF-8"?>
<svg width="128px" height="128px" viewBox="0 0 128 128" version="1.1" xmlns="http://www.w3.org/2000/svg" xmlns:xlink="http://www.w3.org/1999/xlink">
    <title>apps/128/deepin-defender</title>
    <defs>
        <filter x="-9.1%" y="-7.3%" width="118.1%" height="118.1%" filterUnits="objectBoundingBox" id="filter-1">
            <feOffset dx="0" dy="2" in="SourceAlpha" result="shadowOffsetOuter1"></feOffset>
            <feGaussianBlur stdDeviation="3" in="shadowOffsetOuter1" result="shadowBlurOuter1"></feGaussianBlur>
            <feColorMatrix values="0 0 0 0 0   0 0 0 0 0   0 0 0 0 0  0 0 0 0.2 0" type="matrix" in="shadowBlurOuter1" result="shadowMatrixOuter1"></feColorMatrix>
            <feMerge>
                <feMergeNode in="shadowMatrixOuter1"></feMergeNode>
                <feMergeNode in="SourceGraphic"></feMergeNode>
            </feMerge>
        </filter>
        <linearGradient x1="50%" y1="0%" x2="50%" y2="98.1385523%" id="linearGradient-2">
            <stop stop-color="#FFFFFF" offset="0%"></stop>
            <stop stop-color="#EDEDED" offset="100%"></stop>
        </linearGradient>
        <linearGradient x1="50%" y1="0%" x2="50%" y2="98.5538974%" id="linearGradient-3">
            <stop stop-color="#44B0FB" offset="0%"></stop>
            <stop stop-color="#0074FF" offset="100%"></stop>
        </linearGradient>
        <linearGradient x1="50%" y1="0%" x2="50%" y2="100%" id="linearGradient-4">
            <stop stop-color="#FFFFFF" offset="0%"></stop>
            <stop stop-color="#60B8E5" offset="100%"></stop>
        </linearGradient>
        <radialGradient cx="51.0820329%" cy="50%" fx="51.0820329%" fy="50%" r="51.7883888%" id="radialGradient-5">
            <stop stop-color="#FFFFFF" offset="0%"></stop>
            <stop stop-color="#3AC3FF" stop-opacity="0.346208479" offset="100%"></stop>
        </radialGradient>
        <linearGradient x1="16.683693%" y1="23.7439246%" x2="74.2252389%" y2="30.2126494%" id="linearGradient-6">
            <stop stop-color="#5BE9FF" offset="0%"></stop>
            <stop stop-color="#5FE2FF" stop-opacity="0.936413763" offset="4.36176811%"></stop>
            <stop stop-color="#0065FA" stop-opacity="0" offset="100%"></stop>
        </linearGradient>
        <linearGradient x1="50%" y1="1.79026897%" x2="51.8375236%" y2="100%" id="linearGradient-7">
            <stop stop-color="#FFFFFF" offset="0%"></stop>
            <stop stop-color="#9CD8F8" offset="100%"></stop>
        </linearGradient>
        <path d="M68.3730399,24.9806141 C68.2379075,23.9823083 67.5487434,23.1414218 66.5863015,22.8001272 L36.1970191,14.0827899 C34.8863128,13.6234857 33.6379839,13.6830943 32.6167355,14.0827899 L2.22734158,22.8001271 C1.26445342,23.1414217 0.575735603,23.982418 0.440603156,24.9806141 C0.372646358,25.4827309 -1.1865652,37.4384695 2.00115379,51.1022179 C3.89546252,59.221384 7.08273512,66.2513495 11.4751523,71.997042 C16.912028,79.1089006 24.1799424,84.2259041 33.0826131,87.215662 C33.820541,87.5098626 34.6273184,87.6444483 35.730472,87.215662 C44.6331427,84.2260138 51.901615,79.1089006 57.3384908,71.997042 C61.7304616,66.2513495 64.9181805,59.221384 66.8124892,51.1022179 C70.0003198,37.4384696 68.4406619,25.482731 68.3730399,24.9806141 L68.3730399,24.9806141 Z" id="path-8"></path>
        <filter x="-14.5%" y="-10.9%" width="129.1%" height="127.1%" filterUnits="objectBoundingBox" id="filter-9">
            <feOffset dx="0" dy="2" in="SourceAlpha" result="shadowOffsetOuter1"></feOffset>
            <feGaussianBlur stdDeviation="3" in="shadowOffsetOuter1" result="shadowBlurOuter1"></feGaussianBlur>
            <feColorMatrix values="0 0 0 0 0   0 0 0 0 0.290980179   0 0 0 0 0.5330899  0 0 0 0.611778846 0" type="matrix" in="shadowBlurOuter1"></feColorMatrix>
        </filter>
        <path d="M27.7550068,32.6786736 C28.3108351,30.6364562 30.5341482,29.1501086 32.5721853,29.1501086 L38.1304682,29.1501086 C40.1685053,29.1501086 41.0948858,30.6364562 40.3537814,32.4933837 L36.2704159,43.1501086 L44.2372881,43.1501086 C48.3133623,43.1501086 49.4250188,45.7522239 46.8311535,48.724919 L28.8706911,69.7000434 C27.5737584,71.186391 26.832654,71.001101 27.3884824,68.9588836 L31.4576271,53.1501086 L24.9729637,53.1501086 C22.9349266,53.1501086 21.8232701,51.6637611 22.3790984,49.6215436 L27.7550068,32.6786736 Z" id="path-10"></path>
        <filter x="-61.6%" y="-19.3%" width="223.1%" height="177.1%" filterUnits="objectBoundingBox" id="filter-11">
            <feOffset dx="0" dy="8" in="SourceAlpha" result="shadowOffsetOuter1"></feOffset>
            <feGaussianBlur stdDeviation="4" in="shadowOffsetOuter1" result="shadowBlurOuter1"></feGaussianBlur>
            <feColorMatrix values="0 0 0 0 0   0 0 0 0 0.505882353   0 0 0 0 1  0 0 0 0.3 0" type="matrix" in="shadowBlurOuter1"></feColorMatrix>
        </filter>
    </defs>
    <g id="apps/128/deepin-defender" stroke="none" stroke-width="1" fill="none" fill-rule="evenodd">
        <g id="路径-13备份-8" filter="url(#filter-1)" transform="translate(6, 6)">
            <rect id="蒙版" fill="url(#linearGradient-2)" x="0" y="0" width="116" height="116" rx="58"></rect>
            <path d="M58,-0.5 C90.3086579,-0.5 116.5,25.6913421 116.5,58 C116.5,90.3086579 90.3086579,116.5 58,116.5 C25.6913421,116.5 -0.5,90.3086579 -0.5,58 C-0.5,25.6913421 25.6913421,-0.5 58,-0.5 Z M58,0.5 C26.2436269,0.5 0.5,26.2436269 0.5,58 C0.5,89.7563731 26.2436269,115.5 58,115.5 C89.7563731,115.5 115.5,89.7563731 115.5,58 C115.5,26.2436269 89.7563731,0.5 58,0.5 Z" id="蒙版" fill-opacity="0.08" fill="#000000" fill-rule="nonzero"></path>
            <rect id="蒙版" fill="url(#linearGradient-3)" x="0" y="0" width="116" height="116" rx="58"></rect>
            <path d="M58,0 C90.0325155,0 116,25.9674845 116,58 C116,90.0325155 90.0325155,116 58,116 C25.9674845,116 0,90.0325155 0,58 C0,25.9674845 25.9674845,0 58,0 Z M58,5 C28.7289083,5 5,28.7289083 5,58 C5,87.2710917 28.7289083,111 58,111 C87.2710917,111 111,87.2710917 111,58 C111,28.7289083 87.2710917,5 58,5 Z" id="蒙版" fill="url(#linearGradient-4)" fill-rule="nonzero"></path>
            <g id="编组-2" transform="translate(4.9153, 4.9153)">
                <circle id="椭圆形" stroke="#7DF3FF" opacity="0.300000012" cx="53.0847458" cy="53.0847458" r="30.4745763"></circle>
                <ellipse id="椭圆形" stroke="#7DF3FF" opacity="0.200000003" cx="53.5762712" cy="53.0847458" rx="38.8305085" ry="39.3220339"></ellipse>
                <circle id="椭圆形" stroke="#7DF3FF" opacity="0.100000001" cx="53.0847458" cy="53.0847458" r="48.6694915"></circle>
                <path d="M53.0847458,0 C53.4131062,0 53.7407703,0.00298131369 54.0677125,0.00891834918 L54.0668475,52.1087966 L90.6253043,15.5521373 C90.8571148,15.7839966 91.0867908,16.0179902 91.3143001,16.2540859 L54.4818475,53.0837966 L106.169492,53.0847458 C106.169492,53.4131062 106.16651,53.7407703 106.160573,54.0677125 L54.0668475,54.0667966 L54.0668475,54.2147966 L90.5468517,90.6956607 C90.3148079,90.9267921 90.0806378,91.1557902 89.844373,91.3826231 L54.0668475,55.6047966 L54.0677125,106.160573 C53.7407703,106.16651 53.4131062,106.169492 53.0847458,106.169492 L53.0838475,54.6217966 L53.0143288,54.5525948 L16.2540859,91.3143001 C16.0179902,91.0867908 15.7839966,90.8571148 15.5521373,90.6253043 L52.1088475,54.0667966 L0.00891834918,54.0677125 C0.00298131369,53.7407703 0,53.4131062 0,53.0847458 L51.5458475,53.0837966 L14.7862316,16.3257818 C15.0132309,16.0893357 15.2423986,15.8549872 15.4737028,15.6227683 L52.9358475,53.0837966 L53.0838475,53.0837966 Z" id="形状结合" fill="url(#radialGradient-5)" opacity="0.300000012"></path>
            </g>
            <g id="编组" transform="translate(23.5932, 8.8499)">
                <path d="M34.4070504,3.13713797e-13 C49.9326054,0.153723205 63.717795,7.57825183 72.5206023,19.0315689 L34.4067797,46.6924815 Z" id="形状结合" fill="url(#linearGradient-6)"></path>
                <g id="路径">
                    <use fill="black" fill-opacity="1" filter="url(#filter-9)" xlink:href="#path-8"></use>
                    <use fill="url(#linearGradient-7)" fill-rule="evenodd" xlink:href="#path-8"></use>
                </g>
                <g id="路径" fill-rule="nonzero">
                    <use fill="black" fill-opacity="1" filter="url(#filter-11)" xlink:href="#path-10"></use>
                    <use fill="#0081FF" xlink:href="#path-10"></use>
                </g>
            </g>
        </g>
        <g id="Guide-128" transform="translate(4, 4)"></g>
    </g>
</svg>