<?xml version="1.0" encoding="UTF-8"?>
<svg width="128px" height="128px" viewBox="0 0 128 128" version="1.1" xmlns="http://www.w3.org/2000/svg" xmlns:xlink="http://www.w3.org/1999/xlink">
    <title>apps/128/deepin-voice-note</title>
    <defs>
        <filter x="-10.0%" y="-7.1%" width="120.0%" height="117.9%" filterUnits="objectBoundingBox" id="filter-1">
            <feOffset dx="0" dy="2" in="SourceAlpha" result="shadowOffsetOuter1"></feOffset>
            <feGaussianBlur stdDeviation="3" in="shadowOffsetOuter1" result="shadowBlurOuter1"></feGaussianBlur>
            <feColorMatrix values="0 0 0 0 0   0 0 0 0 0   0 0 0 0 0  0 0 0 0.2 0" type="matrix" in="shadowBlurOuter1" result="shadowMatrixOuter1"></feColorMatrix>
            <feMerge>
                <feMergeNode in="shadowMatrixOuter1"></feMergeNode>
                <feMergeNode in="SourceGraphic"></feMergeNode>
            </feMerge>
        </filter>
        <linearGradient x1="50%" y1="0%" x2="50%" y2="100%" id="linearGradient-2">
            <stop stop-color="#FD5E5E" offset="0%"></stop>
            <stop stop-color="#ED5656" offset="100%"></stop>
        </linearGradient>
        <circle id="path-3" cx="23.5" cy="23.5" r="23.5"></circle>
        <filter x="-23.4%" y="-14.9%" width="146.8%" height="146.8%" filterUnits="objectBoundingBox" id="filter-4">
            <feOffset dx="0" dy="4" in="SourceAlpha" result="shadowOffsetOuter1"></feOffset>
            <feGaussianBlur stdDeviation="3" in="shadowOffsetOuter1" result="shadowBlurOuter1"></feGaussianBlur>
            <feColorMatrix values="0 0 0 0 0.97254902   0 0 0 0 0.17254902   0 0 0 0 0.277440324  0 0 0 0.4 0" type="matrix" in="shadowBlurOuter1"></feColorMatrix>
        </filter>
        <linearGradient x1="50%" y1="41.4361479%" x2="50%" y2="100%" id="linearGradient-5">
            <stop stop-color="#FFFFFF" offset="0%"></stop>
            <stop stop-color="#FFFFFF" offset="34.0878783%"></stop>
            <stop stop-color="#F3F3F3" offset="62.7017222%"></stop>
            <stop stop-color="#FFFFFF" offset="100%"></stop>
        </linearGradient>
    </defs>
    <g id="apps/128/deepin-voice-note" stroke="none" stroke-width="1" fill="none" fill-rule="evenodd">
        <g id="Group" filter="url(#filter-1)" transform="translate(14, 8)">
            <path d="M12,0 L88,0 C94.627417,-1.21743675e-15 100,5.372583 100,12 L100,100 C100,106.627417 94.627417,112 88,112 L12,112 C5.372583,112 8.11624501e-16,106.627417 0,100 L0,12 C-8.11624501e-16,5.372583 5.372583,1.21743675e-15 12,0 Z" id="Rectangle-5" fill="#FFFFFF"></path>
            <path d="M15,0 L15,6 L90,6 L90,7 L15,7 L15,13 L90,13 L90,14 L15,14 L15,20 L90,20 L90,21 L15,21 L15,27 L90,27 L90,28 L15,28 L15,34 L90,34 L90,35 L15,35 L15,41 L90,41 L90,42 L15,42 L15,48 L90,48 L90,49 L15,49 L15,55 L90,55 L90,56 L15,56 L15,62 L90,62 L90,63 L15,63 L15,69 L90,69 L90,70 L15,70 L15,76 L90,76 L90,77 L15,77 L15,83 L90,83 L90,84 L15,84 L15,90 L90,90 L90,91 L15,91 L15,97 L90,97 L90,98 L15,98 L15,104 L90,104 L90,105 L15,105 L15,110 L14,110 L14,105 L8,105 L8,104 L14,104 L14,98 L8,98 L8,97 L14,97 L14,91 L8,91 L8,90 L14,90 L14,84 L8,84 L8,83 L14,83 L14,77 L8,77 L8,76 L14,76 L14,70 L8,70 L8,69 L14,69 L14,63 L8,63 L8,62 L14,62 L14,56 L8,56 L8,55 L14,55 L14,49 L8,49 L8,48 L14,48 L14,42 L8,42 L8,41 L14,41 L14,35 L8,35 L8,34 L14,34 L14,28 L8,28 L8,27 L14,27 L14,21 L8,21 L8,20 L14,20 L14,14 L8,14 L8,13 L14,13 L14,7 L8,7 L8,6 L14,6 L14,0 L15,0 Z" id="Combined-Shape" fill-opacity="0.1" fill="#000000"></path>
        </g>
        <g id="Group-2" transform="translate(41, 41)">
            <g id="椭圆形">
                <use fill="black" fill-opacity="1" filter="url(#filter-4)" xlink:href="#path-3"></use>
                <use fill="url(#linearGradient-2)" fill-rule="evenodd" xlink:href="#path-3"></use>
            </g>
            <path d="M31,25.531248 L31,24.031248 L30,24.031248 L30,25.531248 C30,26.427088 29.828128,27.26562 29.484376,28.046876 C29.140624,28.828128 28.671876,29.515624 28.078124,30.109376 C27.484372,30.703128 26.791672,31.166664 26,31.5 C25.208328,31.833336 24.364588,32 23.468752,32 C22.572912,32 21.73438,31.833336 20.953124,31.5 C20.171872,31.166664 19.484378,30.703128 18.8906248,30.109376 C18.296872,29.515624 17.8333348,28.828128 17.5,28.046876 C17.1666652,27.26562 17,26.427088 17,25.531248 L17,24.031248 L16,24.031248 L16,25.531248 C16,26.468756 16.166665,27.359372 16.5,28.203124 C16.8333348,29.04688 17.2864556,29.791664 17.8593752,30.4375 C18.4322944,31.083336 19.1093712,31.624996 19.8906248,32.0625 C20.67188,32.500004 21.510412,32.781248 22.406248,32.906248 L22.406248,35.90625 C20.989576,36.031248 19.8072964,36.2968728 18.8593752,36.7031248 C17.9114536,37.1093772 17.4375,37.531248 17.4375,37.96875 C17.4375,37.9895834 18.0781184,38 19.3593752,38 C20.640632,38 22.046868,38 23.578124,38 C25.109384,38 26.51562,38 27.796876,38 C29.078132,38 29.718752,37.9895834 29.718752,37.96875 C29.718752,37.5104144 29.20834,37.0729188 28.1875,36.65625 C27.16666,36.2395812 25.906256,35.9895836 24.406248,35.90625 L24.406248,32.906248 C25.32292,32.802084 26.182288,32.53646 26.984376,32.109376 C27.786464,31.682288 28.484372,31.140628 29.078124,30.484376 C29.671876,29.82812 30.140624,29.078128 30.484376,28.234376 C30.828128,27.39062 31,26.489588 31,25.531248 Z M23.468752,30.9375 C24.989592,30.9375 26.29166,30.406256 27.375,29.343752 C28.45834,28.281244 29,26.989592 29,25.468752 L29,24.031248 L18,24.031248 L18,25.468752 C18,26.989592 18.5312448,28.281244 19.59375,29.343752 C20.656256,30.406256 21.947908,30.9375 23.468752,30.9375 Z M23.468752,9 C24.989592,9 26.29166,9.536452 27.375,10.609376 C28.45834,11.682296 29,12.968744 29,14.468752 L29,19 L25,19 L25,20 L29,20 L29,21 L25,21 L25,22 L29,22 L29,23.0625 L18,23.0625 L18,22 L22,22 L22,21 L18,21 L18,20 L22,20 L22,19 L18,19 L18,14.468752 C18,12.968744 18.5312448,11.682296 19.59375,10.609376 C20.656256,9.536452 21.947908,9 23.468752,9 Z M28,17 L27,17 L27,18 L28,18 L28,17 Z M26,17 L25,17 L25,18 L26,18 L26,17 Z M24,17 L23,17 L23,18 L24,18 L24,17 Z M22,17 L21,17 L21,18 L22,18 L22,17 Z M20,17 L19,17 L19,18 L20,18 L20,17 Z M28,15 L27,15 L27,16 L28,16 L28,15 Z M26,15 L25,15 L25,16 L26,16 L26,15 Z M24,15 L23,15 L23,16 L24,16 L24,15 Z M22,15 L21,15 L21,16 L22,16 L22,15 Z M20,15 L19,15 L19,16 L20,16 L20,15 Z M21,13 L20,13 L20,14 L21,14 L21,13 Z M23,13 L22,13 L22,14 L23,14 L23,13 Z M25,13 L24,13 L24,14 L25,14 L25,13 Z M27,13 L26,13 L26,14 L27,14 L27,13 Z M22,11 L21,11 L21,12 L22,12 L22,11 Z M24,11 L23,11 L23,12 L24,12 L24,11 Z M26,11 L25,11 L25,12 L26,12 L26,11 Z" id="Page-1" fill="url(#linearGradient-5)"></path>
        </g>
        <g id="Guide-128" transform="translate(4, 4)"></g>
    </g>
</svg>