<svg xmlns="http://www.w3.org/2000/svg" xmlns:xlink="http://www.w3.org/1999/xlink" width="128" height="128" viewBox="0 0 128 128">
  <defs>
    <filter id="deepin-deb-installer-a" width="129.1%" height="129.1%" x="-14.5%" y="-14.5%" filterUnits="objectBoundingBox">
      <feOffset dy="2" in="SourceAlpha" result="shadowOffsetOuter1"/>
      <feGaussianBlur in="shadowOffsetOuter1" result="shadowBlurOuter1" stdDeviation="3"/>
      <feComposite in="shadowBlurOuter1" in2="SourceAlpha" operator="out" result="shadowBlurOuter1"/>
      <feColorMatrix in="shadowBlurOuter1" result="shadowMatrixOuter1" values="0 0 0 0 0   0 0 0 0 0   0 0 0 0 0  0 0 0 0.2 0"/>
      <feMerge>
        <feMergeNode in="shadowMatrixOuter1"/>
        <feMergeNode in="SourceGraphic"/>
      </feMerge>
    </filter>
    <linearGradient id="deepin-deb-installer-c" x1="50%" x2="50%" y1="0%" y2="100%">
      <stop offset="0%" stop-color="#F0F8FA"/>
      <stop offset="9.878%" stop-color="#E4F0F7"/>
      <stop offset="13.492%" stop-color="#CEE1F2"/>
      <stop offset="13.822%" stop-color="#F6FBFF"/>
      <stop offset="100%" stop-color="#C9DAE9"/>
    </linearGradient>
    <path id="deepin-deb-installer-b" d="M0.445010922,13.6341079 L3.30860425,7.30855856 C5.32300678,2.85883363 9.75534295,8.97259241e-16 14.6397948,0 L95.3602052,0 C100.244657,-1.5108114e-14 104.676993,2.85883363 106.691396,7.30855856 L109.554989,13.6341079 C109.848287,14.2819897 110,14.9849857 110,15.6961638 L110,100 C110,105.522847 105.522847,110 100,110 L10,110 C4.4771525,110 6.76353751e-16,105.522847 0,100 L0,15.6961638 C-1.57584792e-14,14.9849857 0.151713101,14.2819897 0.445010922,13.6341079 Z"/>
    <linearGradient id="deepin-deb-installer-g" x1="50%" x2="50%" y1="0%" y2="100%">
      <stop offset="0%" stop-color="#E4EAEE"/>
      <stop offset="45.188%" stop-color="#C2D1DE"/>
      <stop offset="46.533%" stop-color="#DDE6ED"/>
      <stop offset="51.913%" stop-color="#DDE8F1"/>
      <stop offset="100%" stop-color="#C8D9E8"/>
    </linearGradient>
    <path id="deepin-deb-installer-f" d="M40.5,-1 L39,15 L39,33.2926006 C39,33.4306718 39.1119288,33.5426006 39.25,33.5426006 C39.3255364,33.5426006 39.397023,33.5084478 39.4444853,33.4496849 L43.0543543,28.9803232 C43.5748858,28.3358556 44.5193042,28.2353856 45.1637718,28.7559171 C45.2555533,28.8300483 45.3382684,28.9147489 45.4102021,29.0082627 L48.863266,33.4972458 C49.0316329,33.7161228 49.3455563,33.7570694 49.5644333,33.5887024 C49.5956046,33.5647245 49.6238381,33.5371528 49.6485486,33.5065589 L53.3043543,28.9803232 C53.8248858,28.3358556 54.7693042,28.2353856 55.4137718,28.7559171 C55.5055533,28.8300483 55.5882684,28.9147489 55.6602021,29.0082627 L59.113266,33.4972458 C59.2816329,33.7161228 59.5955563,33.7570694 59.8144333,33.5887024 C59.8456046,33.5647245 59.8738381,33.5371528 59.8985486,33.5065589 L63.5830882,28.9447479 C64.1036197,28.3002803 65.0480381,28.1998103 65.6925057,28.7203418 C65.7750325,28.7869981 65.8502555,28.862221 65.9169118,28.9447479 L69.5460307,33.4379427 C69.6327859,33.545354 69.790189,33.562099 69.8976002,33.4753438 C69.9572606,33.4271566 69.9915033,33.3542527 69.9904943,33.2775693 L69.75,15 L69.75,15 L68.5,-1 L40.5,-1 Z"/>
    <filter id="deepin-deb-installer-e" width="112.9%" height="110.5%" x="-6.5%" y="-2.9%" filterUnits="objectBoundingBox">
      <feOffset dy="1" in="SourceAlpha" result="shadowOffsetOuter1"/>
      <feGaussianBlur in="shadowOffsetOuter1" result="shadowBlurOuter1" stdDeviation=".5"/>
      <feColorMatrix in="shadowBlurOuter1" values="0 0 0 0 0   0 0 0 0 0   0 0 0 0 0  0 0 0 0.08 0"/>
    </filter>
    <linearGradient id="deepin-deb-installer-j" x1="50%" x2="50%" y1="6.502%" y2="100%">
      <stop offset="0%" stop-color="#C3D5E4"/>
      <stop offset="100%" stop-color="#9BB0C4"/>
    </linearGradient>
    <rect id="deepin-deb-installer-i" width="22" height="14" x="0" y="0" rx="2"/>
    <filter id="deepin-deb-installer-h" width="131.8%" height="150%" x="-15.9%" y="-17.9%" filterUnits="objectBoundingBox">
      <feOffset dy="1" in="SourceAlpha" result="shadowOffsetOuter1"/>
      <feGaussianBlur in="shadowOffsetOuter1" result="shadowBlurOuter1" stdDeviation="1"/>
      <feColorMatrix in="shadowBlurOuter1" values="0 0 0 0 0   0 0 0 0 0   0 0 0 0 0  0 0 0 0.0560260052 0"/>
    </filter>
    <filter id="deepin-deb-installer-k" width="122.7%" height="135.7%" x="-11.4%" y="-10.7%" filterUnits="objectBoundingBox">
      <feOffset dy="1" in="SourceAlpha" result="shadowOffsetInner1"/>
      <feComposite in="shadowOffsetInner1" in2="SourceAlpha" k2="-1" k3="1" operator="arithmetic" result="shadowInnerInner1"/>
      <feColorMatrix in="shadowInnerInner1" values="0 0 0 0 1   0 0 0 0 1   0 0 0 0 1  0 0 0 0.121284965 0"/>
    </filter>
    <linearGradient id="deepin-deb-installer-l" x1="50%" x2="50%" y1="0%" y2="100%">
      <stop offset="0%" stop-opacity=".08"/>
      <stop offset="100%" stop-opacity=".12"/>
    </linearGradient>
    <linearGradient id="deepin-deb-installer-o" x1="34.133%" x2="62.706%" y1="0%" y2="87.458%">
      <stop offset="0%" stop-color="#4A4A4A"/>
      <stop offset="100%" stop-color="#212020"/>
    </linearGradient>
    <path id="deepin-deb-installer-m" d="M18.5,0 L35.5,0 C36.8807119,-2.53632657e-16 38,1.11928813 38,2.5 L38,23 L38,23 L49.0552337,23 C50.4359456,23 51.5552337,24.1192881 51.5552337,25.5 C51.5552337,26.0978837 51.3409631,26.6759702 50.9512824,27.1294169 L30.0616182,51.4373898 C28.6217748,53.1128438 26.0963273,53.3038441 24.4208733,51.8640007 C24.2589601,51.7248566 24.1084463,51.5729734 23.9707743,51.4098066 L3.46964964,27.1121773 C2.57926867,26.056911 2.71293467,24.4796523 3.768201,23.5892713 C4.21920661,23.2087353 4.790282,23 5.38037835,23 L16,23 L16,23 L16,2.5 C16,1.11928813 17.1192881,2.53632657e-16 18.5,0 Z"/>
    <filter id="deepin-deb-installer-n" width="102.2%" height="108.8%" x="-1.1%" y="-4.5%" filterUnits="objectBoundingBox">
      <feOffset dy="1" in="SourceAlpha" result="shadowOffsetOuter1"/>
      <feGaussianBlur in="shadowOffsetOuter1" result="shadowBlurOuter1" stdDeviation="1"/>
      <feColorMatrix in="shadowBlurOuter1" values="0 0 0 0 0   0 0 0 0 0   0 0 0 0 0  0 0 0 0.15 0"/>
    </filter>
  </defs>
  <g fill="none" fill-rule="evenodd" filter="url(#deepin-deb-installer-a)" transform="translate(9 9)">
    <mask id="deepin-deb-installer-d" fill="#fff">
      <use xlink:href="#deepin-deb-installer-b"/>
    </mask>
    <use fill="url(#deepin-deb-installer-c)" xlink:href="#deepin-deb-installer-b"/>
    <g mask="url(#deepin-deb-installer-d)">
      <use fill="#000" filter="url(#deepin-deb-installer-e)" xlink:href="#deepin-deb-installer-f"/>
      <use fill="url(#deepin-deb-installer-g)" xlink:href="#deepin-deb-installer-f"/>
    </g>
    <g mask="url(#deepin-deb-installer-d)">
      <g transform="translate(9 87)">
        <use fill="#000" filter="url(#deepin-deb-installer-h)" xlink:href="#deepin-deb-installer-i"/>
        <use fill="url(#deepin-deb-installer-j)" xlink:href="#deepin-deb-installer-i"/>
        <use fill="#000" filter="url(#deepin-deb-installer-k)" xlink:href="#deepin-deb-installer-i"/>
        <path fill="url(#deepin-deb-installer-l)" fill-opacity=".8" d="M18,10 C18.5522847,10 19,10.4477153 19,11 C19,11.5522847 18.5522847,12 18,12 L3,12 C2.44771525,12 2,11.5522847 2,11 C2,10.4477153 2.44771525,10 3,10 L18,10 Z M12.5,6 C13.0522847,6 13.5,6.44771525 13.5,7 C13.5,7.55228475 13.0522847,8 12.5,8 L3,8 C2.44771525,8 2,7.55228475 2,7 C2,6.44771525 2.44771525,6 3,6 L12.5,6 Z M5,2 C5.55228475,2 6,2.44771525 6,3 C6,3.55228475 5.55228475,4 5,4 L3,4 C2.44771525,4 2,3.55228475 2,3 C2,2.44771525 2.44771525,2 3,2 L5,2 Z M16,2 C16.5522847,2 17,2.44771525 17,3 C17,3.55228475 16.5522847,4 16,4 L8,4 C7.44771525,4 7,3.55228475 7,3 C7,2.44771525 7.44771525,2 8,2 L16,2 Z"/>
      </g>
    </g>
    <g mask="url(#deepin-deb-installer-d)">
      <g transform="translate(28 38)">
        <mask id="deepin-deb-installer-p" fill="#fff">
          <use xlink:href="#deepin-deb-installer-m"/>
        </mask>
        <g fill-rule="nonzero">
          <use fill="#000" filter="url(#deepin-deb-installer-n)" xlink:href="#deepin-deb-installer-m"/>
          <use fill="url(#deepin-deb-installer-o)" xlink:href="#deepin-deb-installer-m"/>
        </g>
        <path fill="#FFF" fill-opacity=".15" fill-rule="nonzero" d="M39.0490707,17.9762776 L38.6941067,18.7225884 C39.2192273,17.1474012 38.916727,15.4319565 38.9904627,13.9487102 L38.8444113,13.9097736 C38.7158498,10.1791401 35.465399,6.21396494 32.5741643,4.8719122 C30.0804339,3.72968973 26.2429444,3.53314365 24.4704875,4.39438341 C24.7143768,4.18001116 25.6866301,4.08994708 25.3935842,3.92482936 C22.6176785,4.19830585 23.238274,4.88551536 21.109907,5.42449449 C20.5266494,5.9841127 22.8133574,4.97604893 21.583035,5.70078567 C20.4415722,6.01366526 19.9098332,5.50376921 18.2182004,7.24079184 C18.368978,7.48188649 19.2920729,6.52590555 18.5221168,7.48565362 C16.9321052,7.29051488 13.5006262,11.095264 12.7717912,12.3561643 L13.1527516,12.4209008 C12.5274279,13.9768563 11.7040631,14.9689707 11.5929884,15.9005735 C11.4308683,18.1920543 10.6245173,22.3711334 11.7437651,23.6545504 L11.6350546,24.7264099 C11.7881953,25.0308463 11.9049412,25.3399732 12.0954219,25.6265844 L11.8468043,25.6462893 C13.024189,29.333768 13.1116315,25.7147765 14.6671403,29.5443866 C14.4412099,29.4688636 14.2133903,29.3863047 13.8848957,28.9463023 C13.8451926,29.2821681 14.3636949,30.2902319 14.9786192,31.0768875 L14.7181869,31.3719419 C15.0608613,31.9906651 15.3770684,32.1262302 15.6148134,32.3410719 C14.3348635,31.6477645 16.8021255,34.6259854 17.0247459,35.0054754 L17.2213708,34.6574138 C17.1925393,35.1579278 17.5824782,35.8038574 18.3132032,36.697934 L18.9219841,36.6740079 C19.1724918,37.1670156 20.0894423,38.0545219 20.6457595,38.0967427 L20.2756707,38.5756788 C21.6718935,39.0142729 20.9539301,39.1573442 22.6696692,39.7601181 L22.3232136,39.1526537 C23.198571,39.9064726 23.4689297,40.5655379 24.7039783,41.1434507 C26.4168821,41.7359056 26.6437566,41.5008934 28.4010897,42 C26.9112802,41.958721 25.1600904,41.9737316 23.9822337,41.5548385 C15.9461452,39.3951702 8.59446334,30.0392683 9.13139864,20.4023847 C9.00807825,18.4514601 9.32707855,16.0136238 9,15.5281213 C9.45895018,14.0429983 9.9916322,12.2332683 11.0621965,10.0792294 C10.9846816,9.93475073 11.2384965,10.5009371 11.782523,9.58012276 C12.1124368,8.8610154 12.3823235,8.06873033 12.7977875,7.369325 L13.0119014,7.32007233 C13.2260142,6.08497198 15.9140046,4.19221371 16.7137391,3.23950149 L16.7685639,3.60351147 C18.5140795,1.97906972 21.6246252,0.890323881 23.3758131,0.114456672 C22.9159207,0.620130607 24.4062022,0.064736439 25.4796037,0 C25.1411816,0.187634374 24.8046514,0.334457415 24.4875003,0.555397055 C25.7759577,0.250021758 25.7145126,0.680641159 27.0313304,0.508018254 C26.569074,0.574159227 26.0080267,0.756631704 26.097364,0.825589293 C27.5687397,0.994459645 27.7937251,0.374328964 29.1554441,0.824650396 L29.0694256,0.424989943 C30.9614636,1.10234892 31.3575497,0.987422841 33.4136009,2.07007173 C34.1344005,2.10524983 34.2071892,1.6286629 35.2966604,2.0691338 C35.4885581,2.4031218 35.2531752,2.46551007 36.5926821,3.25591838 C36.7410947,3.19681421 36.3256306,2.82154635 35.997135,2.52273844 C38.6889094,3.95063418 41.6141737,6.99499597 42.50702,10.2527922 C41.6704187,8.72451238 42.4209957,11.0324111 42.1331481,10.9118565 C42.506074,11.9086624 42.8109374,12.9392419 43,14.0026572 C42.7518555,13.130629 42.2135011,11.0244363 41.2691343,9.66643525 C41.1916184,10.5426865 40.0506285,9.06084662 40.6745331,10.9906627 C41.1490792,11.674589 40.770483,10.2973543 41.3565757,11.5122851 C41.3660292,12.0897285 41.5877044,12.6634202 41.716739,13.4153633 C41.5163328,13.382997 41.2691343,12.5836751 41.1230849,12.8064906 C41.3258522,13.7526355 41.6600201,14.2461155 41.7866925,14.3188209 C41.7219382,14.4773713 41.5527267,14.1710591 41.5409111,14.8146434 C41.619373,16.2960148 41.9592113,15.6711878 42.1208604,15.7415557 C41.9573211,16.470983 41.2998578,17.3284712 41.6250433,18.5832736 C41.5319316,18.2028457 41.3490133,17.820541 41.2114704,17.4602837 C41.0838539,18.5316737 41.4506354,18.7404166 40.9519832,20.0383757 C41.3112014,18.8684774 41.2724434,17.8120969 40.9335493,18.3205856 C41.0838539,19.983961 39.6068059,21.2608117 39.7675091,22.3134385 L39.3383364,21.7270815 C38.1760764,23.3989011 39.310924,22.6478959 38.5206429,23.9148951 C38.8108517,23.4171958 38.3684472,23.7099039 38.7460994,23.1460637 C38.4951206,23.1601363 37.6273246,24.2047894 36.8323173,24.8192907 C33.7099569,27.3030964 29.9825959,27.6281718 26.3733979,26.2908106 C26.2330189,26.4047978 27.0171546,27.0150779 27.5961569,27.3101322 C28.9706406,27.8144008 30.5252025,27.8345694 31.7493805,27.7895378 C29.1039274,28.8876657 24.0545513,26.6749911 22.4026186,23.7394575 C22.7755445,23.8201395 24.0559684,25.8034313 25.014987,26.124755 C24.4482733,25.6744326 24.0101211,25.1012112 23.6036365,24.5115711 C24.3693383,25.3845382 25.2995245,26.0975477 26.315733,26.569447 C26.2514527,26.3245843 26.5964912,26.2753306 26.1162729,25.9535385 C23.0567747,23.6264071 21.248395,21.6492142 21.8765529,17.0709432 C22.3425915,16.7210058 22.4673729,14.8113602 23.5374641,14.1429138 C24.1897292,12.7117359 26.1451063,11.3940796 28.2347144,11.3603012 C30.3668644,11.2449066 32.1672087,12.4912658 33.0709255,13.6667925 C31.4256111,12.1427357 28.7310025,11.6802175 26.4324799,12.8088368 C24.0824377,13.8591174 22.6890491,16.4273589 22.8922904,18.9843414 C22.9792578,18.8576879 23.0572429,18.9364941 23.0988409,18.6212693 C23.0269982,23.5916946 28.4965656,27.2350786 32.4337862,25.3962646 L32.4801046,25.4999328 C34.0772086,25.0669681 33.8711301,24.7104634 34.9152261,23.9993298 C34.833929,24.1658548 34.2119145,24.5922106 34.5829492,24.6002278 C35.090581,24.4660701 36.6758674,23.001586 37.456694,22.3134385 C37.8144941,21.5474218 37.2652693,21.899236 37.7648666,20.9357354 L38.3760096,20.6341137 C38.7158488,19.660293 39.0916128,19.1095865 39.0490707,17.9762776 Z" mask="url(#deepin-deb-installer-p)"/>
      </g>
    </g>
  </g>
</svg>
