<svg xmlns="http://www.w3.org/2000/svg" xmlns:xlink="http://www.w3.org/1999/xlink" width="128" height="128" viewBox="0 0 128 128">
  <defs>
    <filter id="deepin-wine助手-a" width="130.5%" height="128.1%" x="-15.3%" y="-14%" filterUnits="objectBoundingBox">
      <feOffset dy="2" in="SourceAlpha" result="shadowOffsetOuter1"/>
      <feGaussianBlur in="shadowOffsetOuter1" result="shadowBlurOuter1" stdDeviation="3"/>
      <feColorMatrix in="shadowBlurOuter1" result="shadowMatrixOuter1" values="0 0 0 0 0   0 0 0 0 0   0 0 0 0 0  0 0 0 0.2 0"/>
      <feMerge>
        <feMergeNode in="shadowMatrixOuter1"/>
        <feMergeNode in="SourceGraphic"/>
      </feMerge>
    </filter>
    <linearGradient id="deepin-wine助手-b" x1="50%" x2="50%" y1="0%" y2="98.139%">
      <stop offset="0%" stop-color="#FFF"/>
      <stop offset="100%" stop-color="#EDEDED"/>
    </linearGradient>
    <linearGradient id="deepin-wine助手-c" x1="34.316%" x2="34.316%" y1="0%" y2="56.145%">
      <stop offset="0%" stop-color="#00E0DE"/>
      <stop offset="100%" stop-color="#00B3EB"/>
    </linearGradient>
    <linearGradient id="deepin-wine助手-d" x1="50%" x2="50%" y1="0%" y2="98.139%">
      <stop offset="0%" stop-color="#FFF"/>
      <stop offset="100%" stop-color="#EDEDED"/>
    </linearGradient>
    <path id="deepin-wine助手-e" d="M4,46 L114,46 L114,99 C114,106.731986 107.731986,113 100,113 L18,113 C10.2680135,113 4,106.731986 4,99 L4,46 L4,46 Z"/>
    <filter id="deepin-wine助手-f" width="101.8%" height="103%" x="-.9%" y="-1.5%" filterUnits="objectBoundingBox">
      <feOffset dy="-2" in="SourceAlpha" result="shadowOffsetInner1"/>
      <feComposite in="shadowOffsetInner1" in2="SourceAlpha" k2="-1" k3="1" operator="arithmetic" result="shadowInnerInner1"/>
      <feColorMatrix in="shadowInnerInner1" values="0 0 0 0 0   0 0 0 0 0   0 0 0 0 0  0 0 0 0.101016171 0"/>
    </filter>
    <linearGradient id="deepin-wine助手-g" x1="50%" x2="50%" y1="0%" y2="100%">
      <stop offset="0%" stop-opacity=".04"/>
      <stop offset="100%" stop-opacity=".06"/>
    </linearGradient>
    <rect id="deepin-wine助手-i" width="118" height="4" x="0" y="45" rx="1.75"/>
    <filter id="deepin-wine助手-h" width="106.8%" height="300%" x="-3.4%" y="-150%" filterUnits="objectBoundingBox">
      <feOffset dy="-2" in="SourceAlpha" result="shadowOffsetOuter1"/>
      <feGaussianBlur in="shadowOffsetOuter1" result="shadowBlurOuter1" stdDeviation="1"/>
      <feColorMatrix in="shadowBlurOuter1" values="0 0 0 0 0   0 0 0 0 0   0 0 0 0 0  0 0 0 0.0968913899 0"/>
    </filter>
  </defs>
  <g fill="none" fill-rule="evenodd" filter="url(#deepin-wine助手-a)" transform="translate(5 7)">
    <path fill="url(#deepin-wine助手-b)" d="M23,1 L95,1 C102.731986,1 109,7.2680135 109,15 L109,46 L109,46 L9,46 L9,15 C9,7.2680135 15.2680135,1 23,1 Z"/>
    <path fill="#000" fill-opacity=".04" fill-rule="nonzero" d="M95,0 L23,0 C14.7157288,0 8,6.71572875 8,15 L8,47 L110,47 L110,15 C110,6.71572875 103.284271,0 95,0 Z M95,1 C102.731986,1 109,7.2680135 109,15 L109,46 L9,46 L9,15 C9,7.2680135 15.2680135,1 23,1 L95,1 Z"/>
    <path fill="url(#deepin-wine助手-c)" fill-rule="nonzero" d="M59,10 C79.9866162,10 97,27.0140553 97,48.0007865 C97,68.777373 80.3254386,85.6593474 59.6284012,85.9949092 L59,86 L59,86 L59.188575,85.9984381 L58.8111781,86 C38.120791,85.8988818 21.3396425,69.2630586 21.0050909,48.6291749 L21,48.0007865 C21,27.0140553 38.0133861,10 59,10 Z M59.2451613,13.9225806 L58.5422925,13.9296349 C58.4875344,13.9307349 58.4328077,13.9319632 58.3781128,13.9333195 C58.1625532,13.9386627 57.9471799,13.9460069 57.7323188,13.9553266 L58.3781128,13.9333195 C58.1401283,13.9392207 57.902745,13.9475446 57.6659866,13.9582672 L57.7323188,13.9553266 C57.4649342,13.9669245 57.1983429,13.9815818 56.9325792,13.9992644 L57.6659866,13.9582672 C57.3948883,13.9705452 57.1246092,13.9859683 56.8551851,14.0045009 L56.9325792,13.9992644 C56.7071844,14.0142611 56.4823848,14.0314337 56.2582012,14.0507616 L56.8551851,14.0045009 C56.5809332,14.0233657 56.307567,14.0454524 56.0351244,14.0707236 L56.2582012,14.0507616 C55.9734814,14.0753086 55.6897551,14.1033319 55.4070652,14.1347888 L56.0351244,14.0707236 C55.8172094,14.0909369 55.5998852,14.1131875 55.3831709,14.1374561 L55.4070652,14.1347888 C55.1587766,14.1624176 54.9112875,14.1926952 54.6646267,14.2255927 L55.3831709,14.1374561 C55.1012335,14.1690288 54.8203285,14.204017 54.5404982,14.2423785 L54.6646267,14.2255927 C54.4441681,14.2549955 54.2243713,14.2864912 54.0052568,14.3200591 L54.5404982,14.2423785 C54.3185164,14.2728096 54.097211,14.3053635 53.876603,14.3400189 C49.2301708,21.5925605 46.8372102,32.4440632 47.0397882,39.23159 L47.039235,39.2528452 C47.0387514,39.2739469 47.0380615,39.3105293 47.0376348,39.3615558 L47.0376137,39.5569307 C47.0507028,41.3711226 47.4513421,50.2778276 53.9510655,53.6640286 C53.9510655,53.6640286 60.4694948,56.5416484 64.9117163,47.2367149 C64.9117163,47.2367149 64.9329182,47.200248 64.9710692,47.1265241 L65.0147123,47.040352 C65.0555271,46.9581439 65.1071277,46.8498799 65.1670528,46.7151028 L65.2428013,46.5406147 C65.9973796,44.7615215 67.7058852,39.5130074 66.7220557,30.1175776 C66.7220557,30.1175776 67.9110173,30.3283561 68.045455,30.5177516 C68.1798927,30.7056215 70.6713469,39.6546726 68.9207444,47.1908738 C68.9207444,47.1908738 67.3090783,56.0467648 59.3850906,58.0720929 C51.4640863,60.0974449 45.2907011,55.1975243 41.0994173,50.581709 C38.1093844,47.2889921 33.7313315,38.6798456 31.3621449,28.2278928 L31.0921164,28.6078191 C31.0649079,28.6467536 31.0377781,28.6857471 31.0107273,28.7247996 C30.9546794,28.8065641 30.8986123,28.8882416 30.8428906,28.9701729 L31.0107273,28.7247996 C30.9099192,28.8703328 30.8102073,29.016683 30.7116035,29.1638382 L30.8428906,28.9701729 C30.7521915,29.1035339 30.6624072,29.2375676 30.5735469,29.372265 L30.7116035,29.1638382 C30.6089649,29.3170151 30.5075269,29.4710643 30.4073031,29.6259722 L30.5735469,29.372265 C30.4601426,29.5441671 30.3482432,29.7171501 30.2378673,29.8911953 L30.4073031,29.6259722 C30.3097442,29.7767612 30.2133358,29.9283638 30.1180903,30.0807679 L30.2378673,29.8911953 C30.1319444,30.0582188 30.0274247,30.2262205 29.9243247,30.3951839 L30.1180903,30.0807679 C30.0243664,30.2307369 29.9317686,30.3814819 29.8403086,30.532991 L29.9243247,30.3951839 C29.827237,30.5542939 29.7314084,30.7142566 29.6368525,30.8750583 L29.8403086,30.532991 C29.7418212,30.6961414 29.6446533,30.8601778 29.5488194,31.0250855 L29.6368525,30.8750583 C29.5569112,31.0110063 29.4778796,31.1475539 29.3997662,31.2846928 L29.5488194,31.0250855 C29.4674048,31.1651811 29.3869531,31.3059055 29.3074734,31.4472496 L29.3997662,31.2846928 C29.3096193,31.4429581 29.2206951,31.6020109 29.1330066,31.7618382 C29.0973746,31.8263144 29.0623044,31.8907353 29.0274349,31.9552804 L29.1330066,31.7618382 C28.961583,32.0742869 28.7948816,32.3896957 28.6329984,32.7079684 C28.4246588,33.1172437 28.2246229,33.5309488 28.0327452,33.9491748 C27.8332041,34.384362 27.6423986,34.8243589 27.4606538,35.2690229 C27.3373738,35.5704631 27.2184812,35.8736828 27.1038132,36.1789694 C27.0761003,36.2529136 27.0485333,36.327085 27.0212158,36.401377 L27.1038132,36.1789694 C27.0445288,36.3368057 26.9863735,36.4951945 26.9293574,36.6541259 L27.0212158,36.401377 C26.8914754,36.754217 26.767365,37.1097788 26.6489935,37.4679534 C26.6259263,37.5376401 26.6031663,37.6072657 26.5806233,37.6769889 L26.6489935,37.4679534 C26.5999993,37.6162026 26.5519883,37.7648995 26.5049682,37.9140363 L26.5806233,37.6769889 C26.5177113,37.8715696 26.4564895,38.0669103 26.3969753,38.2629939 L26.5049682,37.9140363 C26.4424298,38.1123931 26.3816444,38.3115281 26.32263,38.511423 L26.3969753,38.2629939 C26.3455419,38.4324535 26.2953839,38.6024679 26.2465124,38.7730259 L26.32263,38.511423 C26.2772172,38.6652462 26.2328532,38.8195193 26.1895462,38.9742342 L26.2465124,38.7730259 C26.1982967,38.9412953 26.1513333,39.1100938 26.1056328,39.2794106 L26.1895462,38.9742342 C26.135685,39.166654 26.0834588,39.3597571 26.0328836,39.5535274 L26.1056328,39.2794106 C26.0509352,39.4820616 25.9980467,39.6854551 25.9469859,39.8895728 L26.0328836,39.5535274 C25.9869988,39.7293273 25.9424729,39.9056765 25.8993178,40.082563 L25.9469859,39.8895728 C25.9105662,40.0351623 25.8750762,40.1811203 25.8405227,40.3274399 L25.8993178,40.082563 C25.849272,40.2876936 25.8010697,40.4935469 25.7547295,40.7001042 L25.8405227,40.3274399 C25.796253,40.514904 25.7535204,40.7029618 25.7123391,40.8915994 L25.7547295,40.7001042 C25.7185378,40.8614253 25.683482,41.0231759 25.6495707,41.1853472 L25.7123391,40.8915994 C25.6687785,41.0911354 25.6269536,41.29132 25.586881,41.4921367 L25.6495707,41.1853472 C25.615773,41.3469757 25.5831122,41.5090221 25.5515971,41.6714776 L25.586881,41.4921367 C25.5561631,41.6460737 25.5264749,41.8003821 25.4978238,41.9550544 L25.5515971,41.6714776 C25.5109819,41.8808429 25.4722696,42.0908877 25.435479,42.3015931 L25.4978238,41.9550544 C25.4632677,42.1416049 25.4302202,42.3286847 25.3986946,42.5162808 L25.435479,42.3015931 C25.4067642,42.4660472 25.37922,42.6309037 25.3528553,42.7961538 L25.3986946,42.5162808 C25.3658983,42.7114385 25.3347489,42.9071548 25.3052613,43.103415 L25.3528553,42.7961538 C25.3196156,43.0044955 25.2882508,43.2134627 25.2587787,43.4230376 L25.3052613,43.103415 C25.2778923,43.2855742 25.2519549,43.4682019 25.2274609,43.6512863 L25.2587787,43.4230376 C25.2308107,43.6219176 25.2045471,43.8213447 25.1800032,44.0213038 L25.2274609,43.6512863 C25.2020791,43.8410059 25.1782473,44.031216 25.1559785,44.2219033 L25.1800032,44.0213038 C25.1624828,44.1640429 25.1458387,44.3070531 25.1300764,44.4503287 L25.1559785,44.2219033 C25.1333746,44.4154592 25.1123812,44.609507 25.093012,44.8040327 L25.1300764,44.4503287 C25.1125085,44.6100182 25.096036,44.7700375 25.0806667,44.9303789 L25.093012,44.8040327 C25.0730201,45.0048114 25.0547585,45.2060993 25.0382423,45.4078813 L25.0806667,44.9303789 C25.0565669,45.1818022 25.0351795,45.4340175 25.0165343,45.6869951 L25.0382423,45.4078813 C25.0255708,45.5626923 25.0139266,45.7177942 25.0033167,45.87318 L25.0165343,45.6869951 C25.0033706,45.8655986 24.9915738,46.044582 24.9811541,46.223935 C24.9756715,46.3183192 24.9705853,46.412507 24.9658796,46.506795 L24.9811541,46.223935 C24.9602476,46.5837966 24.9448854,46.9451461 24.9351517,47.3078991 C24.926789,47.6195459 24.9225806,47.9322567 24.9225806,48.2459502 C24.9225806,48.5338049 24.9261244,48.8208319 24.9331705,49.10699 C24.9357826,49.2131041 24.9388847,49.3193457 24.9424686,49.4254651 L24.9331705,49.10699 C24.9369949,49.2623043 24.941851,49.4173626 24.9477323,49.5721584 L24.9424686,49.4254651 C24.9555369,49.812423 24.9750108,50.1977565 25.0007877,50.581363 C25.0055096,50.6516191 25.0104101,50.7213708 25.0155188,50.7910647 L25.0007877,50.581363 C25.0132569,50.7669267 25.027201,50.9520862 25.0426083,51.13683 L25.0155188,50.7910647 C25.0302874,50.9925427 25.0467953,51.1935375 25.0650275,51.3940341 L25.0426083,51.13683 C25.061669,51.365379 25.082969,51.5932917 25.1064865,51.8205461 L25.0650275,51.3940341 C25.0807329,51.5667434 25.0977178,51.7390831 25.1159726,51.9110436 L25.1064865,51.8205461 C25.122764,51.9778386 25.1401038,52.1348157 25.1584985,52.2914702 L25.1159726,51.9110436 C25.1403415,52.1405991 25.1669735,52.369479 25.1958459,52.5976604 L25.1584985,52.2914702 C25.1801287,52.4756782 25.2032176,52.6594401 25.2277535,52.8427441 L25.1958459,52.5976604 C25.2198521,52.7873848 25.2454073,52.9766263 25.2724981,53.1653719 L25.2277535,52.8427441 C25.2572627,53.0632042 25.288865,53.2830018 25.3225395,53.5021163 L25.2724981,53.1653719 C25.2976306,53.340473 25.3240848,53.5151472 25.3518503,53.6893841 L25.3225395,53.5021163 C25.376864,53.8555973 25.4365816,54.2073004 25.5016056,54.557139 C25.6307723,55.2521222 25.7809834,55.9401551 25.9514809,56.6201405 C25.9896292,56.7722971 26.0289516,56.9246469 26.0692899,57.0765827 L25.9514809,56.6201405 C26.004057,56.8298268 26.0585621,57.038748 26.1149764,57.2468839 L26.0692899,57.0765827 C26.1130074,57.2412461 26.1579183,57.4054235 26.2040128,57.569105 L26.1149764,57.2468839 C26.1647275,57.4304365 26.2159633,57.6133784 26.2686702,57.7956959 L26.2040128,57.569105 C26.2603118,57.7690229 26.3183765,57.9682011 26.378189,58.1666217 L26.2686702,57.7956959 C26.3195229,57.9715995 26.3717449,58.1469219 26.425324,58.3216508 L26.378189,58.1666217 C26.4262142,58.3259398 26.4753663,58.4847694 26.5256358,58.6431013 L26.425324,58.3216508 C26.4930702,58.5425803 26.562986,58.7625609 26.6350466,58.9815679 L26.5256358,58.6431013 C26.5815784,58.8193016 26.638905,58.9948855 26.6976029,59.1698402 L26.6350466,58.9815679 C26.6859435,59.1362543 26.7379105,59.2904549 26.7909386,59.4441611 L26.6976029,59.1698402 C26.7564156,59.3451377 26.816605,59.5198035 26.8781581,59.6938248 L26.7909386,59.4441611 C26.8564431,59.6340307 26.9235669,59.8231458 26.9922935,60.0114898 L26.8781581,59.6938248 C26.9467064,59.8876229 27.016946,60.0806218 27.0888592,60.2728036 L26.9922935,60.0114898 C27.051508,60.1737661 27.1119124,60.3354701 27.173496,60.496591 L27.0888592,60.2728036 C27.154526,60.4482922 27.2215882,60.6230997 27.2900323,60.7972124 L27.173496,60.496591 C27.2457131,60.6855322 27.3195519,60.8736718 27.3949953,61.0609926 L27.2900323,60.7972124 C27.3452261,60.9376179 27.4013185,61.0775716 27.4583025,61.2170664 L27.3949953,61.0609926 C27.4587135,61.2192005 27.5235763,61.3768243 27.5895735,61.5338539 L27.4583025,61.2170664 C27.7150319,61.8455307 27.9898584,62.4646812 28.2821345,63.0738703 C36.2794872,65.3824203 55.3740047,69.4873629 67.6049676,60.5234295 C75.8560282,54.4751508 74.7929005,44.7892646 74.7929005,44.7892646 C74.6562947,37.4215707 70.1707114,30.1032258 70.1707114,30.1032258 C86.5801293,44.9479787 78.427043,61.3425367 77.4042085,63.2316268 L77.3498521,63.3306625 C77.3350191,63.3572818 77.3235673,63.3774601 77.3157835,63.3910524 L77.3037172,63.4119339 C72.5486643,73.1240698 62.8203733,79.3680431 54.2474116,82.2058961 C54.545671,82.2500207 54.8447806,82.2896439 55.1450801,82.3253899 C55.2532254,82.3381868 55.3619106,82.3506061 55.4707475,82.3625161 L55.1450801,82.3253899 C55.349891,82.3497695 55.5552554,82.3723457 55.7611569,82.393102 L55.4707475,82.3625161 C55.7114412,82.3888551 55.9528767,82.412703 56.1950289,82.4340342 L55.7611569,82.393102 C55.9792232,82.4150847 56.197892,82.4350261 56.4171438,82.452907 L56.1950289,82.4340342 C56.4703363,82.4582861 56.7465701,82.4792848 57.0236934,82.4969929 L56.4171438,82.452907 C56.6882202,82.4750144 56.9601878,82.493972 57.2330101,82.5097431 L57.0236934,82.4969929 C57.2535519,82.5116807 57.4840225,82.5241045 57.715084,82.5342429 L57.2330101,82.5097431 C57.4527604,82.5224462 57.6730652,82.533082 57.8939053,82.5416314 L57.715084,82.5342429 C57.9395215,82.5440906 58.1645166,82.551782 58.39005,82.5572974 L57.8939053,82.5416314 C58.1218231,82.5504547 58.350311,82.5570557 58.5793481,82.5614132 L58.39005,82.5572974 C58.6742452,82.5642473 58.9592951,82.5677419 59.2451613,82.5677419 C78.2010697,82.5677419 93.5677419,67.201416 93.5677419,48.2459502 L93.564,47.808 L93.5635097,47.7014092 C93.5578317,47.3363621 93.5464545,46.9726979 93.5294633,46.6105016 C93.5286477,46.5931113 93.5278084,46.575506 93.526956,46.5579041 L93.5294633,46.6105016 C93.5237735,46.4892126 93.5174541,46.3680882 93.5105083,46.2471316 L93.526956,46.5579041 C93.5182093,46.3773025 93.5080667,46.1970671 93.4965387,46.0172085 L93.5105083,46.2471316 C93.5017432,46.0944924 93.4919807,45.9421203 93.4812271,45.790022 L93.4965387,46.0172085 C93.4845622,45.8303519 93.4710905,45.643902 93.4561354,45.4578707 L93.4812271,45.790022 C93.4681461,45.6050049 93.4535987,45.4203927 93.4375963,45.2361969 L93.4561354,45.4578707 C93.4419371,45.2812545 93.4264018,45.1050156 93.4095396,44.929164 L93.4375963,45.2361969 C93.4205827,45.040361 93.4019245,44.8449959 93.3816356,44.6501154 L93.4095396,44.929164 C93.3899547,44.7249187 93.3685798,44.5211959 93.3454308,44.3180116 C93.3421264,44.289008 93.3387836,44.2599968 93.3354048,44.2309966 L93.3454308,44.3180116 C93.3247773,44.1367315 93.3027115,43.9558799 93.2792448,43.7754684 L93.3354048,44.2309966 C93.3123671,44.0332686 93.2876488,43.8360535 93.2612647,43.6393659 L93.2792448,43.7754684 C93.2574756,43.6081073 93.2345008,43.4411247 93.2103294,43.2745298 L93.2612647,43.6393659 C93.2343778,43.4389303 93.205761,43.2390425 93.1754296,43.039718 L93.2103294,43.2745298 C93.1853097,43.1020883 93.1590079,42.9300621 93.131434,42.7584612 L93.1754296,43.039718 C93.1503023,42.874592 93.1239983,42.7098526 93.0965266,42.5455087 L93.131434,42.7584612 C93.1018345,42.5742539 93.070769,42.3905367 93.0382501,42.2073218 L93.0965266,42.5455087 C93.064983,42.356806 93.0318998,42.1686247 92.9972903,41.9809782 L93.0382501,42.2073218 C93.0125559,42.0625579 92.9859541,41.9181076 92.9584511,41.7739769 L92.9972903,41.9809782 C92.9636269,41.7984611 92.9285195,41.6164499 92.8919804,41.4349568 L92.9584511,41.7739769 C92.9234602,41.5906064 92.8870104,41.4077533 92.8491142,41.2254302 L92.8919804,41.4349568 C92.8553666,41.2530924 92.8173152,41.0717483 92.7778386,40.8909368 L92.8491142,41.2254302 C92.8131319,41.0523154 92.7758456,40.8796785 92.737266,40.7075301 L92.7778386,40.8909368 C92.7427801,40.7303611 92.7065975,40.5702054 92.6692996,40.4104785 L92.737266,40.7075301 C92.6928961,40.5095443 92.6468156,40.3122048 92.5990408,40.1155278 L92.6692996,40.4104785 C92.6290856,40.238264 92.5875751,40.0665479 92.5447788,39.895341 L92.5990408,40.1155278 C92.5534049,39.9276564 92.5062231,39.7403896 92.4575095,39.5537416 L92.5447788,39.895341 C92.5019605,39.7240463 92.4578552,39.5532614 92.4124737,39.3829971 L92.4575095,39.5537416 C92.4245975,39.427638 92.3909864,39.3018168 92.3566804,39.1762826 L92.4124737,39.3829971 C92.3654691,39.2066435 92.3170954,39.0308484 92.2673647,38.8556241 L92.3566804,39.1762826 C92.2552179,38.8050054 92.1476778,38.4362374 92.0341737,38.0700923 C91.987576,37.9197743 91.9399389,37.7697931 91.8913031,37.6202625 C91.7579789,37.210371 91.617258,36.8041583 91.4692051,36.401488 C91.1941417,35.6534178 90.8940125,34.9181061 90.569651,34.1960388 C90.4532756,33.9369799 90.3339206,33.679917 90.2115012,33.4246026 C90.2022762,33.4053645 90.1934478,33.3869956 90.1846035,33.3686359 L90.2115012,33.4246026 C90.1319182,33.2586265 90.0510401,33.0933895 89.9688801,32.9289044 C89.9390658,32.869222 89.9097014,32.8108592 89.8801756,32.7525921 L89.9688801,32.9289044 C89.8999407,32.7908874 89.8300988,32.6533998 89.759362,32.5164495 L89.8801756,32.7525921 C89.7928856,32.5803308 89.7041853,32.4089051 89.6140902,32.23833 L89.759362,32.5164495 C89.6794299,32.3616965 89.5983551,32.2076295 89.5161489,32.0542597 L89.6140902,32.23833 C89.544085,32.1057908 89.4732376,31.9737653 89.4015552,31.8422604 L89.5161489,32.0542597 C89.4292985,31.8922253 89.3411851,31.7309691 89.251822,31.5705042 L89.4015552,31.8422604 C89.3257957,31.7032762 89.2491035,31.5648737 89.171487,31.4270611 L89.251822,31.5705042 C89.1711892,31.4257158 89.0895389,31.2815716 89.0068807,31.1380814 L89.171487,31.4270611 C89.0667108,31.2410251 88.9602501,31.0560643 88.8521256,30.8721995 L89.0068807,31.1380814 C88.9119436,30.9732756 88.815677,30.8093325 88.7180956,30.6462666 L88.8521256,30.8721995 C88.7820427,30.7530239 88.7112607,30.6343087 88.6397854,30.5160596 L88.7180956,30.6462666 C88.6290226,30.497419 88.5388541,30.3493025 88.4476011,30.201928 L88.6397854,30.5160596 C88.5554184,30.3764824 88.4700854,30.2375546 88.3837956,30.0992853 L88.4476011,30.201928 C88.3503484,30.0448638 88.251864,29.8886425 88.1521614,29.7332776 L88.3837956,30.0992853 C88.2762325,29.9269281 88.1671827,29.7555942 88.0566642,29.5853017 L88.1521614,29.7332776 C88.0745351,29.6123139 87.9961703,29.4918693 87.9170735,29.3719502 L88.0566642,29.5853017 C87.965105,29.4442225 87.8725377,29.303858 87.7789726,29.1642184 L87.9170735,29.3719502 C87.8281892,29.2371924 87.7383805,29.1030982 87.6476563,28.9696767 L87.7789726,29.1642184 C87.6804751,29.0172175 87.5808718,28.87102 87.4801746,28.7256377 L87.6476563,28.9696767 C87.554753,28.8330505 87.4608898,28.6971296 87.3660763,28.5619237 L87.4801746,28.7256377 C87.3896393,28.5949268 87.2982199,28.4648749 87.2059248,28.3354907 L87.3660763,28.5619237 C87.2500766,28.3965059 87.1326545,28.2321583 87.0138278,28.0688988 L87.2059248,28.3354907 C87.1104135,28.2015978 87.0139644,28.0684198 86.9165873,27.9359665 L87.0138278,28.0688988 C86.9165303,27.935219 86.8182911,27.8022686 86.71912,27.6700575 L86.9165873,27.9359665 C86.797727,27.7742915 86.677484,27.6136962 86.5558756,27.4541978 L86.71912,27.6700575 C86.5866393,27.4934395 86.4524954,27.3181408 86.3167115,27.1441845 L86.5558756,27.4541978 C86.4591536,27.3273398 86.3615678,27.2011757 86.2631272,27.0757143 L86.3167115,27.1441845 C86.2492784,27.0577941 86.1814408,26.9717348 86.1132016,26.8860095 L86.2631272,27.0757143 C86.0571048,26.8131414 85.8473377,26.5536466 85.6339065,26.2973103 C85.5395669,26.184003 85.4442148,26.0709657 85.3481493,25.9585564 L85.6339065,26.2973103 C85.5213663,26.1621467 85.4078074,26.0278613 85.2932415,25.8944659 L85.2934839,25.8947481 L85.2753019,25.8735946 L85.2753019,25.8735946 C83.7655848,25.9581866 82.0818883,25.9983881 80.3451259,25.941383 C80.3451259,25.941383 71.0653109,26.3747475 65.8617356,28.970187 C65.8617356,28.970187 61.9813489,30.7004642 58.1025289,33.6341781 C58.1025289,33.6341781 58.0886961,33.6410934 58.0647034,33.6564247 L58.0417358,33.6716619 C57.8632577,33.7942616 57.3512696,34.2406518 57.3193093,35.3432586 L57.3191406,35.5577686 C57.3541763,37.0651563 56.5293671,41.0837888 53.7810873,43.4391771 C53.7810873,43.4391771 51.8194002,44.447734 52.8002319,45.8911983 C52.8002319,45.8911983 54.125011,47.8147887 55.9911808,45.7945416 C55.9911808,45.7945416 60.8030502,40.8437376 61.0976249,32.8656724 C61.0976249,32.8656724 62.6198473,31.5656265 65.0241797,31.1821569 L65.0248866,31.2037776 C65.0264162,31.2539109 65.0299933,31.3901245 65.0312133,31.6008473 L65.0311363,31.911922 C65.0152718,34.597625 64.5869631,44.0410577 59.5276201,49.1600535 L59.5193547,49.1689333 C59.5084035,49.1806162 59.4867093,49.2035114 59.4551047,49.235737 L59.3676216,49.3231952 C58.4360817,50.2377301 53.696698,54.3994127 52.0630119,46.1795778 C52.0630119,46.1795778 49.8529183,37.4782258 61.2456955,27.1447961 C61.2456955,27.1447961 61.274778,27.1157521 61.3304156,27.0604019 L61.4334723,26.9579891 C62.1675197,26.2292403 64.9501703,23.4805578 67.9389562,20.7076915 L68.43868,20.2456654 L68.9403255,19.7852447 C70.1904494,18.6423105 71.4408175,17.5334134 72.5596767,16.6012675 L72.044524,16.3887467 C71.9810937,16.3632364 71.9175697,16.33791 71.8539525,16.3127682 C71.7336562,16.2655668 71.6127637,16.2185717 71.491541,16.1722445 L71.8539525,16.3127682 C71.6912399,16.2484635 71.5279182,16.1853664 71.3639985,16.1234882 L71.491541,16.1722445 C71.1322145,16.034922 70.7699867,15.9034674 70.4049749,15.7779975 C70.3326496,15.7529135 70.2603092,15.7283242 70.1878607,15.7039701 L70.4049749,15.7779975 C70.2369644,15.7202452 70.0683641,15.6637609 69.8991854,15.6085559 L70.1878607,15.7039701 C70.0018068,15.6414266 69.8150405,15.5804341 69.6275773,15.521008 L69.8991854,15.6085559 C69.7048863,15.5451539 69.5098244,15.4834394 69.3140168,15.4234297 L69.6275773,15.521008 C69.4515815,15.4652171 69.2749713,15.4108067 69.0977597,15.3577896 L69.3140168,15.4234297 C69.127385,15.366232 68.9400758,15.3105831 68.7521042,15.2564979 L69.0977597,15.3577896 C68.8526652,15.2844639 68.6064201,15.2138033 68.3590579,15.1458415 C68.2233277,15.1086567 68.0871822,15.0721515 67.9507053,15.0364657 L68.3590579,15.1458415 C68.1968802,15.1012838 68.0342224,15.0578863 67.8710939,15.0156583 L67.9507053,15.0364657 C67.7815643,14.9922388 67.6119142,14.9492703 67.4417657,14.9075709 L67.8710939,15.0156583 C67.6448163,14.9570833 67.417633,14.9007586 67.1895694,14.8467096 L67.4417657,14.9075709 C67.2197636,14.8531633 66.9969129,14.8009161 66.7732373,14.7508527 L67.1895694,14.8467096 C67.0269858,14.8081788 66.8639549,14.7708044 66.7004857,14.7345958 L66.7732373,14.7508527 C66.6059484,14.7134099 66.438198,14.6771886 66.2699961,14.6421988 L66.7004857,14.7345958 C66.458562,14.6810093 66.2156785,14.6299759 65.9718649,14.5815253 L66.2699961,14.6421988 C66.0918671,14.6051439 65.9132316,14.56947 65.7341014,14.5351889 L65.9718649,14.5815253 C65.8009739,14.5475659 65.629626,14.5148753 65.4578314,14.4834637 L65.7341014,14.5351889 C65.5111426,14.4925201 65.2874173,14.4520089 65.0629481,14.4136778 L65.4578314,14.4834637 C65.2636403,14.4479572 65.0688783,14.4140849 64.8735604,14.3818617 L65.0629481,14.4136778 C64.4202379,14.3039267 63.7714297,14.2120489 63.1170541,14.1385733 C63.0198942,14.12766 62.9234355,14.1172445 62.8268579,14.1072296 L63.1170541,14.1385733 C62.9218778,14.1166583 62.7262063,14.0963803 62.5300536,14.0777534 L62.8268579,14.1072296 C62.6472211,14.0886014 62.4671729,14.0713589 62.2867241,14.0555129 L62.5300536,14.0777534 C62.3121685,14.0570628 62.0936896,14.0384094 61.8746363,14.0218124 L62.2867241,14.0555129 C62.0968751,14.0388414 61.9065827,14.0237157 61.7158595,14.0101484 L61.8746363,14.0218124 C61.6685874,14.0062008 61.4620302,13.9924087 61.2549808,13.9804522 L61.7158595,14.0101484 C61.5125923,13.9956887 61.3088358,13.9829992 61.1046054,13.9720953 L61.2549808,13.9804522 C61.0190449,13.9668275 60.7824698,13.9555863 60.5452794,13.9467521 L61.1046054,13.9720953 C60.9102716,13.9617197 60.7155086,13.9529607 60.5203297,13.9458316 L60.5452794,13.9467521 C60.3731016,13.9403394 60.2005997,13.9351951 60.0277825,13.9313282 L60.5203297,13.9458316 C60.2923659,13.937505 60.0638347,13.9314018 59.8347571,13.9275431 L59.8346912,13.927542 L59.2451613,13.9225806 L59.2451613,13.9225806 Z"/>
    <use fill="url(#deepin-wine助手-d)" xlink:href="#deepin-wine助手-e"/>
    <use fill="#000" filter="url(#deepin-wine助手-f)" xlink:href="#deepin-wine助手-e"/>
    <path fill="url(#deepin-wine助手-g)" fill-rule="nonzero" d="M115,45 L3,45 L3,99 C3,107.284271 9.71572875,114 18,114 L100,114 C108.284271,114 115,107.284271 115,99 L115,45 Z M114,46 L114,99 C114,106.731986 107.731986,113 100,113 L18,113 C10.2680135,113 4,106.731986 4,99 L4,46 L114,46 Z"/>
    <use fill="#000" filter="url(#deepin-wine助手-h)" xlink:href="#deepin-wine助手-i"/>
    <use fill="#EBEBEB" xlink:href="#deepin-wine助手-i"/>
    <g fill-rule="nonzero" transform="translate(46 66)">
      <rect width="12" height="12" x="15" fill="#3CC700"/>
      <rect width="12" height="12" fill="#FF3900"/>
      <rect width="12" height="12" x="15" y="15" fill="#FE0"/>
      <rect width="12" height="12" y="15" fill="#00AFFF"/>
    </g>
  </g>
</svg>
