<?xml version="1.0" encoding="UTF-8"?>
<svg width="128px" height="128px" viewBox="0 0 128 128" version="1.1" xmlns="http://www.w3.org/2000/svg" xmlns:xlink="http://www.w3.org/1999/xlink">
    <title>apps/128/deepin-devicemanager</title>
    <defs>
        <filter x="-9.4%" y="-7.8%" width="118.9%" height="119.6%" filterUnits="objectBoundingBox" id="filter-1">
            <feOffset dx="0" dy="2" in="SourceAlpha" result="shadowOffsetOuter1"></feOffset>
            <feGaussianBlur stdDeviation="3" in="shadowOffsetOuter1" result="shadowBlurOuter1"></feGaussianBlur>
            <feColorMatrix values="0 0 0 0 0   0 0 0 0 0   0 0 0 0 0  0 0 0 0.2 0" type="matrix" in="shadowBlurOuter1" result="shadowMatrixOuter1"></feColorMatrix>
            <feMerge>
                <feMergeNode in="shadowMatrixOuter1"></feMergeNode>
                <feMergeNode in="SourceGraphic"></feMergeNode>
            </feMerge>
        </filter>
        <linearGradient x1="50%" y1="1.46748311%" x2="50%" y2="100%" id="linearGradient-2">
            <stop stop-color="#3E3E3E" offset="0%"></stop>
            <stop stop-color="#222222" offset="6.27549982%"></stop>
            <stop stop-color="#1A1A1A" offset="86.8859411%"></stop>
            <stop stop-color="#111111" offset="100%"></stop>
        </linearGradient>
        <linearGradient x1="26.2556455%" y1="7.13024326%" x2="66.0703728%" y2="91.2530587%" id="linearGradient-3">
            <stop stop-color="#2F2F2F" offset="0%"></stop>
            <stop stop-color="#1E1E1E" offset="100%"></stop>
        </linearGradient>
        <path d="M12,24 L94,24 C95.1045695,24 96,24.8954305 96,26 L96,30 C96,31.1045695 95.1045695,32 94,32 L12,32 C10.8954305,32 10,31.1045695 10,30 L10,26 C10,24.8954305 10.8954305,24 12,24 Z M12,36 L94,36 C95.1045695,36 96,36.8954305 96,38 L96,42 C96,43.1045695 95.1045695,44 94,44 L12,44 C10.8954305,44 10,43.1045695 10,42 L10,38 C10,36.8954305 10.8954305,36 12,36 Z M12,47 L94,47 C95.1045695,47 96,47.8954305 96,49 L96,53 C96,54.1045695 95.1045695,55 94,55 L12,55 C10.8954305,55 10,54.1045695 10,53 L10,49 C10,47.8954305 10.8954305,47 12,47 Z M12,59 L94,59 C95.1045695,59 96,59.8954305 96,61 L96,65 C96,66.1045695 95.1045695,67 94,67 L12,67 C10.8954305,67 10,66.1045695 10,65 L10,61 C10,59.8954305 10.8954305,59 12,59 Z M12,70 L94,70 C95.1045695,70 96,70.8954305 96,72 L96,76 C96,77.1045695 95.1045695,78 94,78 L12,78 C10.8954305,78 10,77.1045695 10,76 L10,72 C10,70.8954305 10.8954305,70 12,70 Z" id="path-4"></path>
        <filter x="-0.6%" y="-0.9%" width="101.2%" height="101.9%" filterUnits="objectBoundingBox" id="filter-5">
            <feOffset dx="0" dy="1" in="SourceAlpha" result="shadowOffsetInner1"></feOffset>
            <feComposite in="shadowOffsetInner1" in2="SourceAlpha" operator="arithmetic" k2="-1" k3="1" result="shadowInnerInner1"></feComposite>
            <feColorMatrix values="0 0 0 0 0   0 0 0 0 0   0 0 0 0 0  0 0 0 0.183129371 0" type="matrix" in="shadowInnerInner1" result="shadowMatrixInner1"></feColorMatrix>
            <feOffset dx="0" dy="-1" in="SourceAlpha" result="shadowOffsetInner2"></feOffset>
            <feComposite in="shadowOffsetInner2" in2="SourceAlpha" operator="arithmetic" k2="-1" k3="1" result="shadowInnerInner2"></feComposite>
            <feColorMatrix values="0 0 0 0 1   0 0 0 0 1   0 0 0 0 1  0 0 0 0.12 0" type="matrix" in="shadowInnerInner2" result="shadowMatrixInner2"></feColorMatrix>
            <feMerge>
                <feMergeNode in="shadowMatrixInner1"></feMergeNode>
                <feMergeNode in="shadowMatrixInner2"></feMergeNode>
            </feMerge>
        </filter>
        <linearGradient x1="0%" y1="48.7855105%" x2="100%" y2="51.2128119%" id="linearGradient-6">
            <stop stop-color="#E2D46C" offset="0%"></stop>
            <stop stop-color="#D7BC26" offset="18.1492935%"></stop>
            <stop stop-color="#CFB009" offset="38.885663%"></stop>
            <stop stop-color="#E7BF00" offset="56.4734084%"></stop>
            <stop stop-color="#D5B630" offset="70.4022382%"></stop>
            <stop stop-color="#C9A10A" offset="83.4427313%"></stop>
            <stop stop-color="#C2A422" offset="100%"></stop>
        </linearGradient>
        <path d="M27.5,88 L29.5,88 C30.3284271,88 31,88.6715729 31,89.5 L31,95.5 C31,96.3284271 30.3284271,97 29.5,97 L27.5,97 C26.6715729,97 26,96.3284271 26,95.5 L26,89.5 C26,88.6715729 26.6715729,88 27.5,88 Z M35.5,88 L37.5,88 C38.3284271,88 39,88.6715729 39,89.5 L39,95.5 C39,96.3284271 38.3284271,97 37.5,97 L35.5,97 C34.6715729,97 34,96.3284271 34,95.5 L34,89.5 C34,88.6715729 34.6715729,88 35.5,88 Z M43.5,88 L45.5,88 C46.3284271,88 47,88.6715729 47,89.5 L47,95.5 C47,96.3284271 46.3284271,97 45.5,97 L43.5,97 C42.6715729,97 42,96.3284271 42,95.5 L42,89.5 C42,88.6715729 42.6715729,88 43.5,88 Z M51.5,88 L53.5,88 C54.3284271,88 55,88.6715729 55,89.5 L55,95.5 C55,96.3284271 54.3284271,97 53.5,97 L51.5,97 C50.6715729,97 50,96.3284271 50,95.5 L50,89.5 C50,88.6715729 50.6715729,88 51.5,88 Z M59.5,88 L61.5,88 C62.3284271,88 63,88.6715729 63,89.5 L63,95.5 C63,96.3284271 62.3284271,97 61.5,97 L59.5,97 C58.6715729,97 58,96.3284271 58,95.5 L58,89.5 C58,88.6715729 58.6715729,88 59.5,88 Z M67.5,88 L69.5,88 C70.3284271,88 71,88.6715729 71,89.5 L71,95.5 C71,96.3284271 70.3284271,97 69.5,97 L67.5,97 C66.6715729,97 66,96.3284271 66,95.5 L66,89.5 C66,88.6715729 66.6715729,88 67.5,88 Z M75.5,88 L77.5,88 C78.3284271,88 79,88.6715729 79,89.5 L79,95.5 C79,96.3284271 78.3284271,97 77.5,97 L75.5,97 C74.6715729,97 74,96.3284271 74,95.5 L74,89.5 C74,88.6715729 74.6715729,88 75.5,88 Z" id="path-7"></path>
        <filter x="-0.9%" y="-5.6%" width="101.9%" height="111.1%" filterUnits="objectBoundingBox" id="filter-8">
            <feOffset dx="0" dy="1" in="SourceAlpha" result="shadowOffsetInner1"></feOffset>
            <feComposite in="shadowOffsetInner1" in2="SourceAlpha" operator="arithmetic" k2="-1" k3="1" result="shadowInnerInner1"></feComposite>
            <feColorMatrix values="0 0 0 0 0.926828578   0 0 0 0 0.558558022   0 0 0 0 0  0 0 0 0.55 0" type="matrix" in="shadowInnerInner1"></feColorMatrix>
        </filter>
        <linearGradient x1="25.7071738%" y1="4.52257936%" x2="75.490452%" y2="96.6406826%" id="linearGradient-9">
            <stop stop-color="#AAFBE7" offset="0.0686233108%"></stop>
            <stop stop-color="#6CACFF" offset="100%"></stop>
        </linearGradient>
        <path d="M25,16 L81,16 C86.5228475,16 91,20.4771525 91,26 L91,75 C91,80.5228475 86.5228475,85 81,85 L25,85 C19.4771525,85 15,80.5228475 15,75 L15,26 C15,20.4771525 19.4771525,16 25,16 Z" id="path-10"></path>
        <filter x="-7.2%" y="-5.1%" width="114.5%" height="115.9%" filterUnits="objectBoundingBox" id="filter-11">
            <feOffset dx="0" dy="2" in="SourceAlpha" result="shadowOffsetOuter1"></feOffset>
            <feGaussianBlur stdDeviation="1.5" in="shadowOffsetOuter1" result="shadowBlurOuter1"></feGaussianBlur>
            <feColorMatrix values="0 0 0 0 0   0 0 0 0 0   0 0 0 0 0  0 0 0 0.515133304 0" type="matrix" in="shadowBlurOuter1"></feColorMatrix>
        </filter>
        <filter x="-6.6%" y="-4.3%" width="113.2%" height="114.5%" filterUnits="objectBoundingBox" id="filter-12">
            <feGaussianBlur stdDeviation="1" in="SourceAlpha" result="shadowBlurInner1"></feGaussianBlur>
            <feOffset dx="0" dy="-2" in="shadowBlurInner1" result="shadowOffsetInner1"></feOffset>
            <feComposite in="shadowOffsetInner1" in2="SourceAlpha" operator="arithmetic" k2="-1" k3="1" result="shadowInnerInner1"></feComposite>
            <feColorMatrix values="0 0 0 0 0   0 0 0 0 0.0510136902   0 0 0 0 0.262143342  0 0 0 0.250573645 0" type="matrix" in="shadowInnerInner1" result="shadowMatrixInner1"></feColorMatrix>
            <feGaussianBlur stdDeviation="1" in="SourceAlpha" result="shadowBlurInner2"></feGaussianBlur>
            <feOffset dx="0" dy="2" in="shadowBlurInner2" result="shadowOffsetInner2"></feOffset>
            <feComposite in="shadowOffsetInner2" in2="SourceAlpha" operator="arithmetic" k2="-1" k3="1" result="shadowInnerInner2"></feComposite>
            <feColorMatrix values="0 0 0 0 0.838719512   0 0 0 0 1   0 0 0 0 0.9690462  0 0 0 0.568209135 0" type="matrix" in="shadowInnerInner2" result="shadowMatrixInner2"></feColorMatrix>
            <feMerge>
                <feMergeNode in="shadowMatrixInner1"></feMergeNode>
                <feMergeNode in="shadowMatrixInner2"></feMergeNode>
            </feMerge>
        </filter>
        <linearGradient x1="50%" y1="0.522592905%" x2="50%" y2="100%" id="linearGradient-13">
            <stop stop-color="#000000" stop-opacity="0.8" offset="0%"></stop>
            <stop stop-color="#000000" stop-opacity="0.531304633" offset="99.4721284%"></stop>
        </linearGradient>
    </defs>
    <g id="apps/128/deepin-devicemanager" stroke="none" stroke-width="1" fill="none" fill-rule="evenodd">
        <g id="编组" filter="url(#filter-1)" transform="translate(11, 13)">
            <path d="M90.9992585,0 C99.2835298,-8.87970688e-15 105.999259,6.71572875 105.999259,15 L105.999259,26.3419811 C102.140831,26.3419811 99.0129576,29.4654286 99.0129576,33.3183962 C99.0129576,37.1713639 102.140831,40.2948113 105.999259,40.2948113 L105.999259,87 C105.999259,95.2842712 99.2835298,102 90.9992585,102 L15.0002101,102 C6.71593888,102 0.00021012819,95.2842712 0.00021012819,87 L4.43018365e-06,40.1595516 C0.031186224,40.1599609 0.062417306,40.1601662 0.0936963988,40.1601662 C3.95212385,40.1601662 7.07999732,37.0367187 7.07999732,33.1837511 C7.07999732,29.3307834 3.95212385,26.207336 0.0936963988,26.207336 L0,26.209 L0.00021012819,15 C0.00021012819,6.71572875 6.71593888,1.52179594e-15 15.0002101,0 L90.9992585,0 Z M10.5999841,85.8820755 C8.737295,85.8820755 7.22728712,87.3899466 7.22728712,89.25 C7.22728712,91.1100534 8.737295,92.6179245 10.5999841,92.6179245 C12.4626732,92.6179245 13.9726811,91.1100534 13.9726811,89.25 C13.9726811,87.3899466 12.4626732,85.8820755 10.5999841,85.8820755 Z M95.3992228,85.8820755 C93.5365337,85.8820755 92.0265258,87.3899466 92.0265258,89.25 C92.0265258,91.1100534 93.5365337,92.6179245 95.3992228,92.6179245 C97.2619119,92.6179245 98.7719198,91.1100534 98.7719198,89.25 C98.7719198,87.3899466 97.2619119,85.8820755 95.3992228,85.8820755 Z M10.5997886,8.9009434 C8.73709945,8.9009434 7.22709157,10.4088146 7.22709157,12.2688679 C7.22709157,14.1289213 8.73709945,15.6367925 10.5997886,15.6367925 C12.4624777,15.6367925 13.9724856,14.1289213 13.9724856,12.2688679 C13.9724856,10.4088146 12.4624777,8.9009434 10.5997886,8.9009434 Z M95.3990273,8.9009434 C93.5363382,8.9009434 92.0263303,10.4088146 92.0263303,12.2688679 C92.0263303,14.1289213 93.5363382,15.6367925 95.3990273,15.6367925 C97.2617164,15.6367925 98.7717243,14.1289213 98.7717243,12.2688679 C98.7717243,10.4088146 97.2617164,8.9009434 95.3990273,8.9009434 Z" id="形状结合" fill="url(#linearGradient-2)"></path>
            <path d="M91,2 C99.2842712,2 106,8.71572875 106,17 L105.999462,26.3455283 C102.118218,26.4741792 99.0132099,29.6544771 99.0132099,33.5589623 C99.0132099,37.4644517 102.119815,40.6453812 106,40.7720255 L106,85 C106,93.2842712 99.2842712,100 91,100 L15,100 C6.71572875,100 4.34445611e-13,93.2842712 4.33431069e-13,85 L0.000678503497,40.63372 C0.111439231,40.6387539 0.222849856,40.6412982 0.334855579,40.6412982 C4.32633226,40.6412982 7.56206342,37.4101457 7.56206342,33.4243171 C7.56206342,29.4384885 4.32633226,26.207336 0.334855579,26.207336 C0.222849856,26.207336 0.111439231,26.2098803 0.000678503497,26.2149142 L4.33431069e-13,17 C4.32416527e-13,8.71572875 6.71572875,2 15,2 L91,2 Z M10.6002364,86.1226415 C8.73754725,86.1226415 7.22753937,87.6305127 7.22753937,89.490566 C7.22753937,91.3506194 8.73754725,92.8584906 10.6002364,92.8584906 C12.4629255,92.8584906 13.9729334,91.3506194 13.9729334,89.490566 C13.9729334,87.6305127 12.4629255,86.1226415 10.6002364,86.1226415 Z M95.3994751,86.1226415 C93.536786,86.1226415 92.0267781,87.6305127 92.0267781,89.490566 C92.0267781,91.3506194 93.536786,92.8584906 95.3994751,92.8584906 C97.2621642,92.8584906 98.7721721,91.3506194 98.7721721,89.490566 C98.7721721,87.6305127 97.2621642,86.1226415 95.3994751,86.1226415 Z M10.6000408,9.14150943 C8.7373517,9.14150943 7.22734382,10.6493806 7.22734382,12.509434 C7.22734382,14.3694873 8.7373517,15.8773585 10.6000408,15.8773585 C12.4627299,15.8773585 13.9727378,14.3694873 13.9727378,12.509434 C13.9727378,10.6493806 12.4627299,9.14150943 10.6000408,9.14150943 Z M95.3992795,9.14150943 C93.5365904,9.14150943 92.0265825,10.6493806 92.0265825,12.509434 C92.0265825,14.3694873 93.5365904,15.8773585 95.3992795,15.8773585 C97.2619687,15.8773585 98.7719765,14.3694873 98.7719765,12.509434 C98.7719765,10.6493806 97.2619687,9.14150943 95.3992795,9.14150943 Z" id="形状结合备份" fill="url(#linearGradient-3)"></path>
            <g id="形状结合">
                <use fill-opacity="0.35" fill="#000000" fill-rule="evenodd" xlink:href="#path-4"></use>
                <use fill="black" fill-opacity="1" filter="url(#filter-5)" xlink:href="#path-4"></use>
            </g>
            <g id="形状结合">
                <use fill="url(#linearGradient-6)" fill-rule="evenodd" xlink:href="#path-7"></use>
                <use fill="black" fill-opacity="1" filter="url(#filter-8)" xlink:href="#path-7"></use>
            </g>
            <g id="矩形">
                <use fill="black" fill-opacity="1" filter="url(#filter-11)" xlink:href="#path-10"></use>
                <use fill="url(#linearGradient-9)" fill-rule="evenodd" xlink:href="#path-10"></use>
                <use fill="black" fill-opacity="1" filter="url(#filter-12)" xlink:href="#path-10"></use>
            </g>
            <path d="M36,29 L36,27 C36,26.4477153 35.5522847,26 35,26 L33,26 C32.4477153,26 32,26.4477153 32,27 L32,29 C32,29.5522847 32.4477153,30 33,30 L35,30 C35.5522847,30 36,29.5522847 36,29 Z M36,44 L36,33.0212965 C36,32.4690117 35.5522847,32.0212965 35,32.0212965 L33,32.0212965 C32.4477153,32.0212965 32,32.4690117 32,33.0212965 L32,44 C32,44.5522847 32.4477153,45 33,45 L35,45 C35.5522847,45 36,44.5522847 36,44 Z M44,44 L44,38.8301887 C44,37.3227474 44.0903886,36.2895573 44.2711657,35.7306183 C44.4519428,35.1716794 44.7861703,34.7228345 45.2738482,34.3840837 C45.761526,34.0453328 46.5,33.7668926 47.5080487,33.7668926 C47.9873183,33.7668926 48.6946209,33.9945202 49.0351546,34.2316458 C49.3756883,34.4687714 49.6216293,34.8011707 49.7729776,35.2288436 C49.9243259,35.6565166 50,36.5986674 50,38.0552961 L50,44 C50,44.5522847 50.4477153,45 51,45 L53,45 C53.5522847,45 54,44.5522847 54,44 L54,36.5563236 C54,35.5146647 53.9348361,34.7143658 53.8045084,34.1554269 C53.6741807,33.596488 53.4429542,33.0968304 53.1108287,32.6564543 C52.7787033,32.2160782 52.2889234,31.8540382 51.641489,31.5703344 C50.9940546,31.2866305 50.2793543,31.1447786 49.4973881,31.1447786 C47.7232497,31.1447786 45.1687452,31.9069681 44,33.4313469 L44,32 C44,31.4477153 43.5522847,31 43,31 L41,31 C40.4477153,31 40,31.4477153 40,32 L40,44 C40,44.5522847 40.4477153,45 41,45 L43,45 C43.5522847,45 44,44.5522847 44,44 Z M62,44 L62,35 L63.9559273,35 C64.2320697,35 64.4559273,34.7761424 64.4559273,34.5 L64.4559273,32.5 C64.4559273,32.2238576 64.2320697,32 63.9559273,32 L62,32 L62,30.4969176 C62,29.8109471 62.1114092,29.3472819 62.3342275,29.1059219 C62.5570458,28.8645619 62.9249063,28.7438819 63.4378088,28.7438819 C63.9591196,28.7438819 64.5014511,28.8116321 65.0648031,28.9471324 L65.5440727,26.4573137 C64.5771252,26.1524379 63.5891571,26 62.5801685,26 C61.5964045,26 60.3269801,26.175727 59.6837498,26.527181 C59.0405196,26.878635 58.599087,27.3338315 58.3594522,27.8927704 C58.1198174,28.4517093 58,29.2985865 58,30.4334018 L58,32 L56.5324721,32 C56.2563297,32 56.0324721,32.2238576 56.0324721,32.5 L56.0324721,34.5 C56.0324721,34.7761424 56.2563297,35 56.5324721,35 L58,35 L58,44 C58,44.5522847 58.4477153,45 59,45 L61,45 C61.5522847,45 62,44.5522847 62,44 Z M72.9894095,45.245283 C74.9737539,45.245283 76.6196666,44.5741329 77.9271478,43.2318326 C79.2346289,41.8895323 79.8883695,40.1978953 79.8883695,38.1569214 C79.8883695,36.132885 79.2409351,34.4581854 77.9460663,33.1328227 C76.6511975,31.80746 74.9905703,31.1447786 72.9641848,31.1447786 C71.6524995,31.1447786 70.4648358,31.4369512 69.4011936,32.0212965 C68.3375514,32.6056417 67.515646,33.4525188 66.9354775,34.5619279 C66.3553091,35.6713369 66.0652248,36.8188555 66.0652248,38.0044835 C66.0652248,39.5542686 66.3553091,40.8690454 66.9354775,41.9488137 C67.515646,43.0285821 68.3627761,43.8479357 69.4768677,44.4068746 C70.5909594,44.9658136 71.7618066,45.245283 72.9894095,45.245283 Z M72.9767971,42.33626 C72.0518909,42.33626 71.2741288,41.9805716 70.6435109,41.2691948 C70.012893,40.557818 69.697584,39.5330967 69.697584,38.1950308 C69.697584,36.8569649 70.012893,35.8322436 70.6435109,35.1208668 C71.2741288,34.40949 72.0518909,34.0538016 72.9767971,34.0538016 C73.9017034,34.0538016 74.6773634,34.40949 75.3037772,35.1208668 C75.930191,35.8322436 76.2433979,36.8484962 76.2433979,38.1696245 C76.2433979,39.5246279 75.930191,40.557818 75.3037772,41.2691948 C74.6773634,41.9805716 73.9017034,42.33626 72.9767971,42.33626 Z" id="形状" fill-opacity="0.33" fill="#000000" fill-rule="nonzero"></path>
            <path d="M72.9641848,30.1447786 C75.2533534,30.1447786 77.173376,30.910973 78.6613539,32.4339925 C80.1434497,33.9509915 80.8883695,35.8778535 80.8883695,38.1569214 C80.8883695,40.4526132 80.1373709,42.3959177 78.6434843,43.9295875 C77.1446419,45.4683451 75.2392978,46.245283 72.9894095,46.245283 C71.6054805,46.245283 70.2811548,45.9291798 69.0284395,45.3006935 C67.7311647,44.6498517 66.7326284,43.6840563 66.0545827,42.4221258 C65.3909528,41.1870249 65.0652248,39.7106967 65.0652248,38.0044835 C65.0652248,36.655106 65.3954066,35.3489693 66.0493341,34.0985168 C66.7200226,32.8160137 67.6819845,31.8248247 68.9196912,31.1448517 C70.1339934,30.4777367 71.4874474,30.1447786 72.9641848,30.1447786 Z M35,31.0212965 C36.1045695,31.0212965 37,31.916727 37,33.0212965 L37,44 C37,45.1045695 36.1045695,46 35,46 L33,46 C31.8954305,46 31,45.1045695 31,44 L31,33.0212965 C31,31.916727 31.8954305,31.0212965 33,31.0212965 L35,31.0212965 Z M43,30 C43.853531,30 44.5821835,30.5346682 44.8693019,31.2873489 L44.901,31.382 L44.9635212,31.3454863 C46.2192243,30.6251513 47.7785083,30.1971384 49.2271629,30.1492764 L49.4973881,30.1447786 C50.414104,30.1447786 51.2654149,30.3137447 52.0428437,30.6544117 C52.8385933,31.0031068 53.4664155,31.4671862 53.9092217,32.0543176 C54.3262475,32.6072658 54.6166894,33.2348819 54.7783849,33.9283482 C54.929178,34.5750578 55,35.4448458 55,36.5563236 L55,44 C55,45.1045695 54.1045695,46 53,46 L51,46 C49.8954305,46 49,45.1045695 49,44 L49,38.0552961 C49,36.7154041 48.9300394,35.8443876 48.8302677,35.5624573 C48.7471031,35.3274547 48.6283134,35.1669056 48.4637124,35.0522881 C48.2809788,34.9250443 47.7706014,34.7668926 47.5080487,34.7668926 C46.7931123,34.7668926 46.2324106,34.9358253 45.8443413,35.205386 C45.535923,35.4196197 45.335857,35.6882948 45.2226382,36.0383523 C45.0833946,36.468875 45,37.4221198 45,38.8301887 L45,44 C45,45.1045695 44.1045695,46 43,46 L41,46 C39.8954305,46 39,45.1045695 39,44 L39,32 C39,30.8954305 39.8954305,30 41,30 L43,30 Z M62.5801685,25 C63.6912915,25 64.7806613,25.1680836 65.844777,25.5035963 L66.6944453,25.7714942 L66.5260456,26.6463354 L66.046776,29.1361541 L65.8488776,30.1642416 L64.8309473,29.9194038 C64.3422541,29.8018607 63.8781413,29.7438819 63.4378088,29.7438819 C63.1789893,29.7438819 63.0746552,29.7781097 63.0689938,29.7842423 C63.0587379,29.7953516 63,30.0398083 63,30.4969176 L63,31 L63.9559273,31 C64.7356235,31 65.376376,31.5948881 65.4490608,32.35554 L65.4559273,32.5 L65.4559273,34.5 C65.4559273,35.3284271 64.7843545,36 63.9559273,36 L62.999,36 L63,44 C63,45.1045695 62.1045695,46 61,46 L59,46 C57.8954305,46 57,45.1045695 57,44 L56.999,36 L56.5324721,36 C55.752776,36 55.1120234,35.4051119 55.0393387,34.64446 L55.0324721,34.5 L55.0324721,32.5 C55.0324721,31.6715729 55.704045,31 56.5324721,31 L57,31 L57,30.4334018 C57,29.2894874 57.1133048,28.3846497 57.3617507,27.6981479 L57.4403605,27.4987267 C57.773097,26.7226317 58.3734097,26.1036011 59.2042657,25.6496304 C59.9748186,25.2286088 61.3296875,25 62.5801685,25 Z M72.9641848,31.1447786 C71.6524995,31.1447786 70.4648358,31.4369512 69.4011936,32.0212965 C68.3375514,32.6056417 67.515646,33.4525188 66.9354775,34.5619279 C66.3553091,35.6713369 66.0652248,36.8188555 66.0652248,38.0044835 C66.0652248,39.5542686 66.3553091,40.8690454 66.9354775,41.9488137 C67.515646,43.0285821 68.3627761,43.8479357 69.4768677,44.4068746 C70.5909594,44.9658136 71.7618066,45.245283 72.9894095,45.245283 C74.9737539,45.245283 76.6196666,44.5741329 77.9271478,43.2318326 C79.2346289,41.8895323 79.8883695,40.1978953 79.8883695,38.1569214 C79.8883695,36.132885 79.2409351,34.4581854 77.9460663,33.1328227 C76.6511975,31.80746 74.9905703,31.1447786 72.9641848,31.1447786 Z M35,32.0212965 L33,32.0212965 C32.4477153,32.0212965 32,32.4690117 32,33.0212965 L32,44 C32,44.5522847 32.4477153,45 33,45 L35,45 C35.5522847,45 36,44.5522847 36,44 L36,33.0212965 C36,32.4690117 35.5522847,32.0212965 35,32.0212965 Z M43,31 L41,31 C40.4477153,31 40,31.4477153 40,32 L40,44 C40,44.5522847 40.4477153,45 41,45 L43,45 C43.5522847,45 44,44.5522847 44,44 L44,38.8301887 C44,37.3227474 44.0903886,36.2895573 44.2711657,35.7306183 C44.4519428,35.1716794 44.7861703,34.7228345 45.2738482,34.3840837 C45.761526,34.0453328 46.5,33.7668926 47.5080487,33.7668926 C47.9873183,33.7668926 48.6946209,33.9945202 49.0351546,34.2316458 C49.3756883,34.4687714 49.6216293,34.8011707 49.7729776,35.2288436 C49.9243259,35.6565166 50,36.5986674 50,38.0552961 L50,44 C50,44.5522847 50.4477153,45 51,45 L53,45 C53.5522847,45 54,44.5522847 54,44 L54,36.5563236 C54,35.5146647 53.9348361,34.7143658 53.8045084,34.1554269 C53.6741807,33.596488 53.4429542,33.0968304 53.1108287,32.6564543 C52.7787033,32.2160782 52.2889234,31.8540382 51.641489,31.5703344 C50.9940546,31.2866305 50.2793543,31.1447786 49.4973881,31.1447786 C47.7232497,31.1447786 45.1687452,31.9069681 44,33.4313469 L44,32 C44,31.4477153 43.5522847,31 43,31 Z M62.5801685,26 C61.5964045,26 60.3269801,26.175727 59.6837498,26.527181 C59.0405196,26.878635 58.599087,27.3338315 58.3594522,27.8927704 C58.1198174,28.4517093 58,29.2985865 58,30.4334018 L58,32 L56.5324721,32 C56.2563297,32 56.0324721,32.2238576 56.0324721,32.5 L56.0324721,34.5 C56.0324721,34.7761424 56.2563297,35 56.5324721,35 L58,35 L58,44 C58,44.5522847 58.4477153,45 59,45 L61,45 C61.5522847,45 62,44.5522847 62,44 L62,35 L63.9559273,35 C64.2320697,35 64.4559273,34.7761424 64.4559273,34.5 L64.4559273,32.5 C64.4559273,32.2238576 64.2320697,32 63.9559273,32 L62,32 L62,30.4969176 C62,29.8109471 62.1114092,29.3472819 62.3342275,29.1059219 C62.5570458,28.8645619 62.9249063,28.7438819 63.4378088,28.7438819 C63.9591196,28.7438819 64.5014511,28.8116321 65.0648031,28.9471324 L65.5440727,26.4573137 C64.5771252,26.1524379 63.5891571,26 62.5801685,26 Z M72.9767971,34.0538016 C73.9017034,34.0538016 74.6773634,34.40949 75.3037772,35.1208668 C75.930191,35.8322436 76.2433979,36.8484962 76.2433979,38.1696245 C76.2433979,39.5246279 75.930191,40.557818 75.3037772,41.2691948 C74.6773634,41.9805716 73.9017034,42.33626 72.9767971,42.33626 C72.0518909,42.33626 71.2741288,41.9805716 70.6435109,41.2691948 C70.012893,40.557818 69.697584,39.5330967 69.697584,38.1950308 C69.697584,36.8569649 70.012893,35.8322436 70.6435109,35.1208668 C71.2741288,34.40949 72.0518909,34.0538016 72.9767971,34.0538016 Z M72.9767971,35.0538016 C72.3402779,35.0538016 71.8341132,35.2852823 71.3918164,35.7842211 C70.9407103,36.2930972 70.697584,37.0832324 70.697584,38.1950308 C70.697584,39.3068293 70.9407103,40.0969645 71.3918164,40.6058406 C71.8341132,41.1047793 72.3402779,41.33626 72.9767971,41.33626 C73.6123947,41.33626 74.115388,41.1056063 74.5532742,40.6083278 C75.0008519,40.1000434 75.2433979,39.2999455 75.2433979,38.1696245 C75.2433979,37.0740792 75.0022367,36.2915909 74.5532742,35.7817338 C74.115388,35.2844553 73.6123947,35.0538016 72.9767971,35.0538016 Z M35,25 C36.1045695,25 37,25.8954305 37,27 L37,29 C37,30.1045695 36.1045695,31 35,31 L33,31 C31.8954305,31 31,30.1045695 31,29 L31,27 C31,25.8954305 31.8954305,25 33,25 L35,25 Z M35,26 L33,26 C32.4477153,26 32,26.4477153 32,27 L32,29 C32,29.5522847 32.4477153,30 33,30 L35,30 C35.5522847,30 36,29.5522847 36,29 L36,27 C36,26.4477153 35.5522847,26 35,26 Z" id="形状" fill-opacity="0.05" fill="#000000" fill-rule="nonzero"></path>
            <path d="M29.5,52 L37.5,52 C38.3284271,52 39,52.6715729 39,53.5 C39,54.3284271 38.3284271,55 37.5,55 L29.5,55 C28.6715729,55 28,54.3284271 28,53.5 C28,52.6715729 28.6715729,52 29.5,52 Z M43.5,52 L56.5,52 C57.3284271,52 58,52.6715729 58,53.5 C58,54.3284271 57.3284271,55 56.5,55 L43.5,55 C42.6715729,55 42,54.3284271 42,53.5 C42,52.6715729 42.6715729,52 43.5,52 Z M62.5,52 L72.5,52 C73.3284271,52 74,52.6715729 74,53.5 C74,54.3284271 73.3284271,55 72.5,55 L62.5,55 C61.6715729,55 61,54.3284271 61,53.5 C61,52.6715729 61.6715729,52 62.5,52 Z M29.5,62 L37.5,62 C38.3284271,62 39,62.6715729 39,63.5 C39,64.3284271 38.3284271,65 37.5,65 L29.5,65 C28.6715729,65 28,64.3284271 28,63.5 C28,62.6715729 28.6715729,62 29.5,62 Z M43.5,62 L67.5,62 C68.3284271,62 69,62.6715729 69,63.5 C69,64.3284271 68.3284271,65 67.5,65 L43.5,65 C42.6715729,65 42,64.3284271 42,63.5 C42,62.6715729 42.6715729,62 43.5,62 Z M29.5,57 L34.5,57 C35.3284271,57 36,57.6715729 36,58.5 C36,59.3284271 35.3284271,60 34.5,60 L29.5,60 C28.6715729,60 28,59.3284271 28,58.5 C28,57.6715729 28.6715729,57 29.5,57 Z M43.5,57 L50.5,57 C51.3284271,57 52,57.6715729 52,58.5 C52,59.3284271 51.3284271,60 50.5,60 L43.5,60 C42.6715729,60 42,59.3284271 42,58.5 C42,57.6715729 42.6715729,57 43.5,57 Z M55.5,57 L69.5,57 C70.3284271,57 71,57.6715729 71,58.5 C71,59.3284271 70.3284271,60 69.5,60 L55.5,60 C54.6715729,60 54,59.3284271 54,58.5 C54,57.6715729 54.6715729,57 55.5,57 Z M74.5,57 L79.5,57 C80.3284271,57 81,57.6715729 81,58.5 C81,59.3284271 80.3284271,60 79.5,60 L74.5,60 C73.6715729,60 73,59.3284271 73,58.5 C73,57.6715729 73.6715729,57 74.5,57 Z M29.5,66 L39.5,66 C40.3284271,66 41,66.6715729 41,67.5 C41,68.3284271 40.3284271,69 39.5,69 L29.5,69 C28.6715729,69 28,68.3284271 28,67.5 C28,66.6715729 28.6715729,66 29.5,66 Z M43.5,66 L56.5,66 C57.3284271,66 58,66.6715729 58,67.5 C58,68.3284271 57.3284271,69 56.5,69 L43.5,69 C42.6715729,69 42,68.3284271 42,67.5 C42,66.6715729 42.6715729,66 43.5,66 Z M62.5,66 L74.5,66 C75.3284271,66 76,66.6715729 76,67.5 C76,68.3284271 75.3284271,69 74.5,69 L62.5,69 C61.6715729,69 61,68.3284271 61,67.5 C61,66.6715729 61.6715729,66 62.5,66 Z M29.5,71 L34.5,71 C35.3284271,71 36,71.6715729 36,72.5 C36,73.3284271 35.3284271,74 34.5,74 L29.5,74 C28.6715729,74 28,73.3284271 28,72.5 C28,71.6715729 28.6715729,71 29.5,71 Z M43.5,71 L46.5,71 C47.3284271,71 48,71.6715729 48,72.5 C48,73.3284271 47.3284271,74 46.5,74 L43.5,74 C42.6715729,74 42,73.3284271 42,72.5 C42,71.6715729 42.6715729,71 43.5,71 Z M51.5,71 L68.5,71 C69.3284271,71 70,71.6715729 70,72.5 C70,73.3284271 69.3284271,74 68.5,74 L51.5,74 C50.6715729,74 50,73.3284271 50,72.5 C50,71.6715729 50.6715729,71 51.5,71 Z" id="形状结合" fill="url(#linearGradient-13)" opacity="0.22937593"></path>
        </g>
        <g id="Guide/128" transform="translate(4, 4)"></g>
    </g>
</svg>