<?xml version="1.0" encoding="UTF-8"?>
<svg width="128px" height="128px" viewBox="0 0 128 128" version="1.1" xmlns="http://www.w3.org/2000/svg" xmlns:xlink="http://www.w3.org/1999/xlink">
    <title>apps/128/deepin-draw</title>
    <defs>
        <filter x="-8.8%" y="-8.6%" width="117.5%" height="118.8%" filterUnits="objectBoundingBox" id="filter-1">
            <feOffset dx="0" dy="2" in="SourceAlpha" result="shadowOffsetOuter1"></feOffset>
            <feGaussianBlur stdDeviation="3" in="shadowOffsetOuter1" result="shadowBlurOuter1"></feGaussianBlur>
            <feColorMatrix values="0 0 0 0 0   0 0 0 0 0   0 0 0 0 0  0 0 0 0.2 0" type="matrix" in="shadowBlurOuter1" result="shadowMatrixOuter1"></feColorMatrix>
            <feMerge>
                <feMergeNode in="shadowMatrixOuter1"></feMergeNode>
                <feMergeNode in="SourceGraphic"></feMergeNode>
            </feMerge>
        </filter>
        <linearGradient x1="50%" y1="0%" x2="50%" y2="98.1385523%" id="linearGradient-2">
            <stop stop-color="#FFFFFF" offset="0%"></stop>
            <stop stop-color="#EDEDED" offset="100%"></stop>
        </linearGradient>
        <filter x="-8.2%" y="-5.8%" width="124.7%" height="117.5%" filterUnits="objectBoundingBox" id="filter-3">
            <feOffset dx="3" dy="3" in="SourceAlpha" result="shadowOffsetOuter1"></feOffset>
            <feGaussianBlur stdDeviation="2.5" in="shadowOffsetOuter1" result="shadowBlurOuter1"></feGaussianBlur>
            <feColorMatrix values="0 0 0 0 0   0 0 0 0 0   0 0 0 0 0  0 0 0 0.2 0" type="matrix" in="shadowBlurOuter1" result="shadowMatrixOuter1"></feColorMatrix>
            <feMerge>
                <feMergeNode in="shadowMatrixOuter1"></feMergeNode>
                <feMergeNode in="SourceGraphic"></feMergeNode>
            </feMerge>
        </filter>
        <linearGradient x1="52.4307578%" y1="0%" x2="34.8374906%" y2="86.2898213%" id="linearGradient-4">
            <stop stop-color="#1B90FF" offset="0%"></stop>
            <stop stop-color="#53A0FD" offset="47.5247532%"></stop>
            <stop stop-color="#68FFAD" offset="100%"></stop>
        </linearGradient>
        <linearGradient x1="51.9000726%" y1="0%" x2="62.6698499%" y2="71.0304085%" id="linearGradient-5">
            <stop stop-color="#BC6FFF" offset="0%"></stop>
            <stop stop-color="#3EFF90" offset="100%"></stop>
        </linearGradient>
        <linearGradient x1="62.3987322%" y1="18.2999345%" x2="33.6462769%" y2="92.1740161%" id="linearGradient-6">
            <stop stop-color="#D10BFF" offset="0%"></stop>
            <stop stop-color="#FFEE28" offset="100%"></stop>
        </linearGradient>
        <linearGradient x1="96.227029%" y1="20.6323961%" x2="0.142426316%" y2="84.8116024%" id="linearGradient-7">
            <stop stop-color="#FF035B" offset="0%"></stop>
            <stop stop-color="#FFC800" offset="100%"></stop>
        </linearGradient>
        <linearGradient x1="95.7922523%" y1="45.1459833%" x2="0%" y2="52.5640449%" id="linearGradient-8">
            <stop stop-color="#E06C00" offset="0%"></stop>
            <stop stop-color="#FFFF46" offset="100%"></stop>
        </linearGradient>
        <linearGradient x1="63.3300645%" y1="108.457756%" x2="23.3442843%" y2="46.9963114%" id="linearGradient-9">
            <stop stop-color="#FFD900" offset="0%"></stop>
            <stop stop-color="#FFD800" offset="14.4630303%"></stop>
            <stop stop-color="#CE4F02" offset="25.0883918%"></stop>
            <stop stop-color="#D30079" offset="33.4572641%"></stop>
            <stop stop-color="#53A0FD" offset="53.4501494%"></stop>
            <stop stop-color="#0064A2" offset="100%"></stop>
        </linearGradient>
        <linearGradient x1="0%" y1="100%" x2="98.6866231%" y2="100%" id="linearGradient-10">
            <stop stop-color="#FFFFFF" offset="0%"></stop>
            <stop stop-color="#EDEDED" offset="100%"></stop>
        </linearGradient>
        <linearGradient x1="-77.2384108%" y1="100%" x2="100%" y2="100%" id="linearGradient-11">
            <stop stop-color="#828282" offset="0%"></stop>
            <stop stop-color="#353535" offset="100%"></stop>
        </linearGradient>
        <path d="M48.9052863,13.9865932 L56.6340999,13.9865932 L56.6340999,42.3255763 L48.9052863,42.3255763 Z M47.5033312,44.8518006 L56.9980063,44.8227603 C58.1988441,44.8190874 59.254009,45.6184996 59.5754916,46.7755104 L61.2917325,52.9522332 C61.6860109,54.3712345 60.8553088,55.8411881 59.4363075,56.2354664 C59.2038388,56.3000593 58.9636791,56.332804 58.7224034,56.332804 L45.9424361,56.332804 C44.4696767,56.332804 43.2757694,55.1388967 43.2757694,53.6661373 C43.2757694,53.443722 43.303595,53.2221804 43.3585981,53.0066735 L44.9276494,46.858991 C45.2282975,45.681025 46.2876094,44.855519 47.5033312,44.8518006 Z M48.9052863,11.410322 L56.6340999,11.410322 L56.6340999,3.77190396 C56.6340999,2.29914463 55.4401925,1.1052373 53.9674332,1.1052373 L51.571953,1.1052373 C50.0991936,1.1052373 48.9052863,2.29914463 48.9052863,3.77190396 L48.9052863,11.410322 L48.9052863,11.410322 Z" id="path-12"></path>
        <linearGradient x1="30.4938164%" y1="78.6791578%" x2="48.452375%" y2="94.0026511%" id="linearGradient-13">
            <stop stop-color="#686868" offset="0%"></stop>
            <stop stop-color="#000000" offset="100%"></stop>
        </linearGradient>
    </defs>
    <g id="apps/128/deepin-draw" stroke="none" stroke-width="1" fill="none" fill-rule="evenodd">
        <g id="Group-2" filter="url(#filter-1)" transform="translate(7, 4.169)">
            <path d="M57,2.75460026 C64.4761705,2.75460026 61.4064049,17.9438156 70.479619,17.8359094 C80.4495221,17.717339 90.074635,18.970624 101.290593,28.4318941 C109.797277,35.6077443 114,49.4012737 114,59.7546003 C114,91.234831 88.4802307,116.7546 57,116.7546 C25.5197693,116.7546 0,91.234831 0,59.7546003 C0,28.2743695 25.5197693,2.75460026 57,2.75460026 Z M40.8256698,21.9700454 C38.2360938,26.4553224 39.3183588,31.9282157 43.2429762,34.1940946 C47.1675936,36.4599735 52.4483907,34.6607958 55.0379666,30.1755188 C57.6275425,25.6902417 56.5452775,20.2173485 52.6206601,17.9514696 C48.6960427,15.6855907 43.4152457,17.4847683 40.8256698,21.9700454 Z" id="Mask" fill="url(#linearGradient-2)"></path>
            <g id="编组" filter="url(#filter-3)" transform="translate(20.8128, -0)">
                <g id="Group" transform="translate(0, 47.7714)">
                    <path d="M24.1718124,3.40775749 C45.2262995,8.97397539 44.2886931,40.4725847 34.490127,48.5564312 C32.4022274,50.2789547 30.2878457,51.24512 28.2502225,51.6744401 L16.0889503,48.1862986 C12.89041,44.7117692 11.0585624,37.0499634 13.7898417,30.4016785 C18.6070044,18.6760849 34.490127,12.1180144 24.1718124,3.40775749 Z" id="Combined-Shape" fill="url(#linearGradient-4)" transform="translate(26.8176, 27.5412) scale(1, -1) rotate(-42) translate(-26.8176, -27.5412)"></path>
                    <path d="M26.1325986,4.77314627 L26.7299045,4.87200452 C44.9151161,12.3567723 43.6321326,41.3814903 34.2838217,49.0938749 C32.1961863,50.8161804 30.0820755,51.7823192 28.0446907,52.2117208 L16.2718725,48.8349332 C15.8186489,45.7451375 15.9394117,42.4233037 16.8852802,39.1958105 C21.278952,24.2037201 39.9013645,14.1196974 26.1325986,4.77314627 Z" id="Combined-Shape" fill="url(#linearGradient-5)" transform="translate(28.4926, 28.4925) scale(1, -1) rotate(-42) translate(-28.4926, -28.4925)"></path>
                    <path d="M34.4630209,5.42075311 L34.628206,5.47886212 C45.8051524,16.3694914 43.7341809,38.7986425 35.6874941,45.4371834 C33.6002781,47.1591428 31.4865975,48.1252394 29.4495912,48.5547703 L17.7031914,45.1864758 C17.8489904,42.3294714 18.5244742,39.3796725 19.8840874,36.6328173 C26.582191,23.1004965 45.9997156,16.6277761 34.4630209,5.42075311 Z" id="Combined-Shape" fill="url(#linearGradient-6)" transform="translate(30.0374, 26.9877) scale(1, -1) rotate(-42) translate(-30.0374, -26.9877)"></path>
                    <path d="M41.8686001,29.3348515 C39.7807005,31.057375 37.6663189,32.0235404 35.6286957,32.4528604 L23.9537479,29.1055874 C24.753775,27.119185 25.8828094,25.1979047 27.3761713,23.5000835 C33.9078795,16.0741053 45.3771686,13.4215229 48.4681107,7.81962224 C49.0676794,16.7460838 46.4269819,25.5741729 41.8686001,29.3348515 Z" id="Combined-Shape" fill="url(#linearGradient-7)" transform="translate(36.2534, 20.1363) scale(1, -1) rotate(-42) translate(-36.2534, -20.1363)"></path>
                    <path d="M47.7856973,13.9202863 C45.6984814,15.6422458 43.5848007,16.6083423 41.5477945,17.0378733 L30.6285584,13.9057741 C31.0109903,13.6859229 31.405836,13.4815865 31.8126955,13.2947451 C38.5365302,10.2069688 47.0816863,11.6342401 51.3866797,9.19923954 C50.3903128,11.1516773 49.1773777,12.7721458 47.7856973,13.9202863 Z" id="Combined-Shape" fill="url(#linearGradient-8)" transform="translate(41.0079, 13.1184) scale(1, -1) rotate(-42) translate(-41.0079, -13.1184)"></path>
                    <path d="M28.3662876,10.9369395 C27.9771055,12.6200941 27.0231967,14.3126035 25.4465759,16.3323809 C24.8343099,17.1167427 24.1484595,17.9287948 23.2034476,19.0028206 C23.0441606,19.1838537 21.2845377,21.1653664 20.7606207,21.7668149 C17.6974205,25.2833208 15.8692331,27.8825385 14.6832675,30.7693313 C12.3460423,36.4584379 13.4602614,43.6846431 16.6230349,47.3348504 L28.2829586,50.6782797 C30.2058212,50.232717 32.0786899,49.2937893 33.8751123,47.8117355 C38.4761592,44.0158579 41.0794003,34.4515968 39.9417155,25.1558753 C38.8292877,16.0665224 34.5263951,8.94343908 27.440749,5.61538569 C28.5026088,7.32691753 28.7939237,9.08747713 28.3662876,10.9369395 Z M16.0885653,48.1866287 C12.8901377,44.7120063 11.0584116,37.0503653 13.789639,30.4022066 C18.6068017,18.6766131 34.4899242,12.1185425 24.1716097,3.40828565 C45.2260968,8.97450355 44.2884904,40.4731129 34.4899242,48.5569594 C32.4027788,50.2788607 30.2891705,51.2449501 28.2522278,51.6745028 L16.0885653,48.1866287 Z" id="Combined-Shape" fill="url(#linearGradient-9)" fill-rule="nonzero" opacity="0.5" transform="translate(26.8174, 27.5414) scale(1, -1) rotate(-42) translate(-26.8174, -27.5414)"></path>
                </g>
                <g id="Combined-Shape" transform="translate(52.3331, 28.719) rotate(27) translate(-52.3331, -28.719)">
                    <use fill="url(#linearGradient-10)" xlink:href="#path-12"></use>
                    <use fill="url(#linearGradient-11)" xlink:href="#path-12"></use>
                </g>
                <path d="M44.4010509,38.8641605 L49.5658684,41.4957665 L61.5542955,17.9671535 L56.389478,15.3355476 L44.4010509,38.8641605 Z M55.9672761,14.0361437 L62.8536994,17.5449516 L49.9880703,42.7951704 L43.101647,39.2863625 L55.9672761,14.0361437 Z M38.2712363,42.105134 L33.9591673,47.0103961 C33.8704996,47.1112615 33.7947991,47.2228236 33.7338293,47.3424834 C33.3301083,48.1348306 33.645152,49.1044355 34.4374992,49.5081566 L46.0341887,55.416965 C46.1639955,55.4831049 46.302178,55.5313221 46.4449532,55.5602966 C47.3164602,55.7371588 48.1663314,55.1740378 48.3431935,54.3025307 L49.6555473,47.8357676 C49.7997553,47.1251671 49.4512141,46.4058342 48.8041543,46.0786298 L40.20718,41.7313222 C39.5521002,41.4000623 38.7558962,41.5538014 38.2712363,42.105134 Z M40.6431462,40.8691819 L49.2401204,45.2164894 C50.275416,45.7400164 50.833082,46.8909491 50.6023491,48.02791 L49.2899954,54.4946731 C49.007016,55.8890844 47.6472221,56.790078 46.2528108,56.5070985 C46.0243705,56.4607393 45.8032786,56.3835917 45.5955877,56.2777679 L33.9988982,50.3689595 C32.7311427,49.7230058 32.2270727,48.1716379 32.8730264,46.9038824 C32.970578,46.7124267 33.0916988,46.5339274 33.2335671,46.3725428 L37.5456361,41.4672806 C38.3210919,40.5851486 39.5950185,40.3391659 40.6431462,40.8691819 Z M63.6011001,13.9500733 L66.671307,7.92445288 C67.0750281,7.13210568 66.7599844,6.16250077 65.9676372,5.75877971 L63.6721627,4.58917706 C62.8798155,4.185456 61.9102106,4.50049973 61.5064896,5.29284693 L58.4362826,11.3184673 L63.6011001,13.9500733 Z M57.1368787,11.7406692 L60.6456866,4.85424594 C61.2916403,3.58649042 62.8430082,3.08242045 64.1107637,3.72837415 L66.4062382,4.89797679 C67.6739937,5.5439305 68.1780637,7.09529835 67.53211,8.36305387 L64.023302,15.2494772 L57.1368787,11.7406692 Z" id="Combined-Shape" fill="url(#linearGradient-13)" fill-rule="nonzero"></path>
            </g>
        </g>
        <g id="Guide-128" transform="translate(4, 4)"></g>
    </g>
</svg>