<?xml version="1.0" encoding="UTF-8"?>
<svg width="128px" height="128px" viewBox="0 0 128 128" version="1.1" xmlns="http://www.w3.org/2000/svg" xmlns:xlink="http://www.w3.org/1999/xlink">
    <title>apps/128/deepin-movie</title>
    <defs>
        <filter x="-8.6%" y="-6.9%" width="117.2%" height="117.2%" filterUnits="objectBoundingBox" id="filter-1">
            <feOffset dx="0" dy="2" in="SourceAlpha" result="shadowOffsetOuter1"></feOffset>
            <feGaussianBlur stdDeviation="3" in="shadowOffsetOuter1" result="shadowBlurOuter1"></feGaussianBlur>
            <feColorMatrix values="0 0 0 0 0   0 0 0 0 0   0 0 0 0 0  0 0 0 0.2 0" type="matrix" in="shadowBlurOuter1" result="shadowMatrixOuter1"></feColorMatrix>
            <feMerge>
                <feMergeNode in="shadowMatrixOuter1"></feMergeNode>
                <feMergeNode in="SourceGraphic"></feMergeNode>
            </feMerge>
        </filter>
        <linearGradient x1="50%" y1="2.37536127%" x2="50%" y2="100%" id="linearGradient-2">
            <stop stop-color="#3E3E3E" offset="0%"></stop>
            <stop stop-color="#0F0F0F" offset="100%"></stop>
        </linearGradient>
        <linearGradient x1="40.7675756%" y1="0%" x2="50%" y2="100%" id="linearGradient-3">
            <stop stop-color="#B0FAFF" offset="0%"></stop>
            <stop stop-color="#0D96C2" offset="100%"></stop>
        </linearGradient>
    </defs>
    <g id="apps/128/deepin-movie" stroke="none" stroke-width="1" fill="none" fill-rule="evenodd">
        <g id="7-movie" filter="url(#filter-1)" transform="translate(6, 6)">
            <circle id="Oval" stroke="url(#linearGradient-3)" stroke-width="5.33333333" fill="url(#linearGradient-2)" cx="58" cy="58" r="55.3333333"></circle>
            <path d="M47.5937042,82.8434939 C42.8475324,85.5576648 39,83.3327235 39,77.8622362 L39,38.1314238 C39,32.6661801 42.8691032,30.4483306 47.5937042,33.150166 L82.4484556,53.0823888 C87.1946274,55.7965597 87.1730566,60.2094358 82.4484556,62.9112712 L47.5937042,82.8434939 Z" id="Path-359" fill="#FF006B"></path>
            <path d="M54.9993948,37.3844413 L70.9993948,46.5344413 L70.9993948,69.4584413 L54.9993948,78.6084413 L54.9993948,37.3844413 Z" id="Combined-Shape" fill="#FFB600"></path>
            <path d="M47.5937042,33.150166 L55,37.386 L55,78.607 L47.5937042,82.8434939 C42.8475324,85.5576648 39,83.3327235 39,77.8622362 L39,38.1314238 C39,32.6661801 42.8691032,30.4483306 47.5937042,33.150166 Z" id="Combined-Shape" fill="#1473FF"></path>
            <path d="M42.021292,33.4463848 C43.3369755,32.6837616 45.1438479,32.9011461 47.0972795,34.0182458 L81.9520309,53.9504685 C82.971402,54.5334115 83.7479846,55.1983397 84.2675645,55.9170941 C84.7473494,56.5807986 85,57.2856009 85,57.9953739 C85,58.7063787 84.7465572,59.4119681 84.2669359,60.0758395 C83.7468235,60.795757 82.9699211,61.4610953 81.9520309,62.0431914 L47.0972795,81.9754141 C45.1367881,83.0965511 43.3308672,83.3176336 42.0174045,82.5562976 C40.704829,81.7954759 40,80.1202715 40,77.8622362 L40,38.1314238 C40,35.8776927 40.708911,34.2070938 42.021292,33.4463848 Z" id="Path-359" stroke-opacity="0.3" stroke="#FFFFFF" stroke-width="2"></path>
        </g>
        <g id="Guide-128" transform="translate(4, 4)"></g>
    </g>
</svg>