<?xml version="1.0" encoding="UTF-8"?>
<svg width="128px" height="128px" viewBox="0 0 128 128" version="1.1" xmlns="http://www.w3.org/2000/svg" xmlns:xlink="http://www.w3.org/1999/xlink">
    <!-- Generator: Sketch 62 (91390) - https://sketch.com -->
    <title>deepin-devicemanager</title>
    <desc>Created with Sketch.</desc>
    <defs>
        <filter x="-14.5%" y="-15.1%" width="129.1%" height="130.2%" filterUnits="objectBoundingBox" id="filter-1">
            <feOffset dx="0" dy="2" in="SourceAlpha" result="shadowOffsetOuter1"></feOffset>
            <feGaussianBlur stdDeviation="3" in="shadowOffsetOuter1" result="shadowBlurOuter1"></feGaussianBlur>
            <feComposite in="shadowBlurOuter1" in2="SourceAlpha" operator="out" result="shadowBlurOuter1"></feComposite>
            <feColorMatrix values="0 0 0 0 0   0 0 0 0 0   0 0 0 0 0  0 0 0 0.2 0" type="matrix" in="shadowBlurOuter1" result="shadowMatrixOuter1"></feColorMatrix>
            <feMerge>
                <feMergeNode in="shadowMatrixOuter1"></feMergeNode>
                <feMergeNode in="SourceGraphic"></feMergeNode>
            </feMerge>
        </filter>
        <linearGradient x1="50%" y1="1.46748311%" x2="50%" y2="100%" id="linearGradient-2">
            <stop stop-color="#3E3E3E" offset="0%"></stop>
            <stop stop-color="#222222" offset="6.27549982%"></stop>
            <stop stop-color="#1A1A1A" offset="86.8859411%"></stop>
            <stop stop-color="#111111" offset="100%"></stop>
        </linearGradient>
        <linearGradient x1="26.2556455%" y1="7.00869852%" x2="66.0703728%" y2="91.3700197%" id="linearGradient-3">
            <stop stop-color="#2F2F2F" offset="0%"></stop>
            <stop stop-color="#1E1E1E" offset="100%"></stop>
        </linearGradient>
        <path d="M97,73 C98.1045695,73 99,73.8954305 99,75 L99,79 C99,80.1045695 98.1045695,81 97,81 L13,81 C11.8954305,81 11,80.1045695 11,79 L11,75 C11,73.8954305 11.8954305,73 13,73 L97,73 Z M97,61 C98.1045695,61 99,61.8954305 99,63 L99,67 C99,68.1045695 98.1045695,69 97,69 L13,69 C11.8954305,69 11,68.1045695 11,67 L11,63 C11,61.8954305 11.8954305,61 13,61 L97,61 Z M97,49 C98.1045695,49 99,49.8954305 99,51 L99,55 C99,56.1045695 98.1045695,57 97,57 L13,57 C11.8954305,57 11,56.1045695 11,55 L11,51 C11,49.8954305 11.8954305,49 13,49 L97,49 Z M97,37 C98.1045695,37 99,37.8954305 99,39 L99,43 C99,44.1045695 98.1045695,45 97,45 L13,45 C11.8954305,45 11,44.1045695 11,43 L11,39 C11,37.8954305 11.8954305,37 13,37 L97,37 Z M97,25 C98.1045695,25 99,25.8954305 99,27 L99,31 C99,32.1045695 98.1045695,33 97,33 L13,33 C11.8954305,33 11,32.1045695 11,31 L11,27 C11,25.8954305 11.8954305,25 13,25 L97,25 Z" id="path-4"></path>
        <filter x="-0.6%" y="-0.9%" width="101.1%" height="101.8%" filterUnits="objectBoundingBox" id="filter-5">
            <feOffset dx="0" dy="1" in="SourceAlpha" result="shadowOffsetInner1"></feOffset>
            <feComposite in="shadowOffsetInner1" in2="SourceAlpha" operator="arithmetic" k2="-1" k3="1" result="shadowInnerInner1"></feComposite>
            <feColorMatrix values="0 0 0 0 0   0 0 0 0 0   0 0 0 0 0  0 0 0 0.183129371 0" type="matrix" in="shadowInnerInner1" result="shadowMatrixInner1"></feColorMatrix>
            <feOffset dx="0" dy="-1" in="SourceAlpha" result="shadowOffsetInner2"></feOffset>
            <feComposite in="shadowOffsetInner2" in2="SourceAlpha" operator="arithmetic" k2="-1" k3="1" result="shadowInnerInner2"></feComposite>
            <feColorMatrix values="0 0 0 0 1   0 0 0 0 1   0 0 0 0 1  0 0 0 0.12 0" type="matrix" in="shadowInnerInner2" result="shadowMatrixInner2"></feColorMatrix>
            <feMerge>
                <feMergeNode in="shadowMatrixInner1"></feMergeNode>
                <feMergeNode in="shadowMatrixInner2"></feMergeNode>
            </feMerge>
        </filter>
        <linearGradient x1="0%" y1="48.7855105%" x2="100%" y2="51.2128119%" id="linearGradient-6">
            <stop stop-color="#E2D46C" offset="0%"></stop>
            <stop stop-color="#D7BC26" offset="18.1492935%"></stop>
            <stop stop-color="#CFB009" offset="38.885663%"></stop>
            <stop stop-color="#E7BF00" offset="56.4734084%"></stop>
            <stop stop-color="#D5B630" offset="70.4022382%"></stop>
            <stop stop-color="#C9A10A" offset="83.4427313%"></stop>
            <stop stop-color="#C2A422" offset="100%"></stop>
        </linearGradient>
        <path d="M32.5,91 C33.3284271,91 34,91.6715729 34,92.5 L34,98.5 C34,99.3284271 33.3284271,100 32.5,100 L30.5,100 C29.6715729,100 29,99.3284271 29,98.5 L29,92.5 C29,91.6715729 29.6715729,91 30.5,91 L32.5,91 Z M40.5,91 C41.3284271,91 42,91.6715729 42,92.5 L42,98.5 C42,99.3284271 41.3284271,100 40.5,100 L38.5,100 C37.6715729,100 37,99.3284271 37,98.5 L37,92.5 C37,91.6715729 37.6715729,91 38.5,91 L40.5,91 Z M48.5,91 C49.3284271,91 50,91.6715729 50,92.5 L50,98.5 C50,99.3284271 49.3284271,100 48.5,100 L46.5,100 C45.6715729,100 45,99.3284271 45,98.5 L45,92.5 C45,91.6715729 45.6715729,91 46.5,91 L48.5,91 Z M56.5,91 C57.3284271,91 58,91.6715729 58,92.5 L58,98.5 C58,99.3284271 57.3284271,100 56.5,100 L54.5,100 C53.6715729,100 53,99.3284271 53,98.5 L53,92.5 C53,91.6715729 53.6715729,91 54.5,91 L56.5,91 Z M64.5,91 C65.3284271,91 66,91.6715729 66,92.5 L66,98.5 C66,99.3284271 65.3284271,100 64.5,100 L62.5,100 C61.6715729,100 61,99.3284271 61,98.5 L61,92.5 C61,91.6715729 61.6715729,91 62.5,91 L64.5,91 Z M72.5,91 C73.3284271,91 74,91.6715729 74,92.5 L74,98.5 C74,99.3284271 73.3284271,100 72.5,100 L70.5,100 C69.6715729,100 69,99.3284271 69,98.5 L69,92.5 C69,91.6715729 69.6715729,91 70.5,91 L72.5,91 Z M80.5,91 C81.3284271,91 82,91.6715729 82,92.5 L82,98.5 C82,99.3284271 81.3284271,100 80.5,100 L78.5,100 C77.6715729,100 77,99.3284271 77,98.5 L77,92.5 C77,91.6715729 77.6715729,91 78.5,91 L80.5,91 Z" id="path-7"></path>
        <filter x="-0.9%" y="-5.6%" width="101.9%" height="111.1%" filterUnits="objectBoundingBox" id="filter-8">
            <feOffset dx="0" dy="1" in="SourceAlpha" result="shadowOffsetInner1"></feOffset>
            <feComposite in="shadowOffsetInner1" in2="SourceAlpha" operator="arithmetic" k2="-1" k3="1" result="shadowInnerInner1"></feComposite>
            <feColorMatrix values="0 0 0 0 0.926828578   0 0 0 0 0.558558022   0 0 0 0 0  0 0 0 0.55 0" type="matrix" in="shadowInnerInner1"></feColorMatrix>
        </filter>
        <linearGradient x1="25.7071738%" y1="5.31005227%" x2="75.490452%" y2="95.833067%" id="linearGradient-9">
            <stop stop-color="#AAFBE7" offset="0.0686233108%"></stop>
            <stop stop-color="#6CACFF" offset="100%"></stop>
        </linearGradient>
        <rect id="path-10" x="15" y="17" width="80" height="72" rx="10"></rect>
        <filter x="-6.9%" y="-4.9%" width="113.8%" height="115.3%" filterUnits="objectBoundingBox" id="filter-11">
            <feOffset dx="0" dy="2" in="SourceAlpha" result="shadowOffsetOuter1"></feOffset>
            <feGaussianBlur stdDeviation="1.5" in="shadowOffsetOuter1" result="shadowBlurOuter1"></feGaussianBlur>
            <feColorMatrix values="0 0 0 0 0   0 0 0 0 0   0 0 0 0 0  0 0 0 0.515133304 0" type="matrix" in="shadowBlurOuter1"></feColorMatrix>
        </filter>
        <filter x="-6.2%" y="-4.2%" width="112.5%" height="113.9%" filterUnits="objectBoundingBox" id="filter-12">
            <feGaussianBlur stdDeviation="1" in="SourceAlpha" result="shadowBlurInner1"></feGaussianBlur>
            <feOffset dx="0" dy="-2" in="shadowBlurInner1" result="shadowOffsetInner1"></feOffset>
            <feComposite in="shadowOffsetInner1" in2="SourceAlpha" operator="arithmetic" k2="-1" k3="1" result="shadowInnerInner1"></feComposite>
            <feColorMatrix values="0 0 0 0 0   0 0 0 0 0.0510136902   0 0 0 0 0.262143342  0 0 0 0.250573645 0" type="matrix" in="shadowInnerInner1" result="shadowMatrixInner1"></feColorMatrix>
            <feGaussianBlur stdDeviation="1" in="SourceAlpha" result="shadowBlurInner2"></feGaussianBlur>
            <feOffset dx="0" dy="2" in="shadowBlurInner2" result="shadowOffsetInner2"></feOffset>
            <feComposite in="shadowOffsetInner2" in2="SourceAlpha" operator="arithmetic" k2="-1" k3="1" result="shadowInnerInner2"></feComposite>
            <feColorMatrix values="0 0 0 0 0.838719512   0 0 0 0 1   0 0 0 0 0.9690462  0 0 0 0.568209135 0" type="matrix" in="shadowInnerInner2" result="shadowMatrixInner2"></feColorMatrix>
            <feMerge>
                <feMergeNode in="shadowMatrixInner1"></feMergeNode>
                <feMergeNode in="shadowMatrixInner2"></feMergeNode>
            </feMerge>
        </filter>
        <linearGradient x1="50%" y1="0.522592905%" x2="50%" y2="100%" id="linearGradient-13">
            <stop stop-color="#000000" stop-opacity="0.8" offset="0%"></stop>
            <stop stop-color="#000000" stop-opacity="0.531304633" offset="99.4721284%"></stop>
        </linearGradient>
    </defs>
    <g id="deepin-devicemanager" stroke="none" stroke-width="1" fill="none" fill-rule="evenodd">
        <g id="编组" filter="url(#filter-1)" transform="translate(9.000000, 11.000000)">
            <path d="M95.0004854,0 C103.284757,-1.52179594e-15 110.000485,6.71572875 110.000485,15 L110.000485,27.375 L110.000485,27.375 C105.996421,27.375 102.750485,30.6209356 102.750485,34.625 C102.750485,38.6290644 105.996421,41.875 110.000485,41.875 L110.000485,91 C110.000485,99.2842712 103.284757,106 95.0004854,106 L15.0004854,106 C6.71621411,106 0.000485353815,99.2842712 0.000485353815,91 L-0.000261773132,41.734429 C0.032274307,41.734859 0.0648621069,41.7350746 0.0975002792,41.7350746 C4.10156472,41.7350746 7.34750028,38.4891391 7.34750028,34.4850746 C7.34750028,30.4810102 4.10156472,27.2350746 0.0975002792,27.2350746 L-0.000261773132,27.236 L0.000485353815,15 C0.000485353815,6.71572875 6.71621411,1.52179594e-15 15.0004854,0 L95.0004854,0 Z M11.0003496,89.25 C9.06735293,89.25 7.50034956,90.8170034 7.50034956,92.75 C7.50034956,94.6829966 9.06735293,96.25 11.0003496,96.25 C12.9333462,96.25 14.5003496,94.6829966 14.5003496,92.75 C14.5003496,90.8170034 12.9333462,89.25 11.0003496,89.25 Z M99.0003496,89.25 C97.0673529,89.25 95.5003496,90.8170034 95.5003496,92.75 C95.5003496,94.6829966 97.0673529,96.25 99.0003496,96.25 C100.933346,96.25 102.50035,94.6829966 102.50035,92.75 C102.50035,90.8170034 100.933346,89.25 99.0003496,89.25 Z M11.0001466,9.25 C9.06715001,9.25 7.50014663,10.8170034 7.50014663,12.75 C7.50014663,14.6829966 9.06715001,16.25 11.0001466,16.25 C12.9331433,16.25 14.5001466,14.6829966 14.5001466,12.75 C14.5001466,10.8170034 12.9331433,9.25 11.0001466,9.25 Z M99.0001466,9.25 C97.06715,9.25 95.5001466,10.8170034 95.5001466,12.75 C95.5001466,14.6829966 97.06715,16.25 99.0001466,16.25 C100.933143,16.25 102.500147,14.6829966 102.500147,12.75 C102.500147,10.8170034 100.933143,9.25 99.0001466,9.25 Z" id="形状结合" fill="url(#linearGradient-2)"></path>
            <path d="M95.0007471,2 C103.285018,2 110.000747,8.71572875 110.000747,17 L110.000994,27.3790801 C105.974473,27.510825 102.750747,30.8164418 102.750747,34.875 C102.750747,38.9335582 105.974473,42.239175 110.000994,42.3709199 L110.000747,89 C110.000747,97.2842712 103.285018,104 95.0007471,104 L15.0007471,104 C6.71647588,104 0.000747126946,97.2842712 0.000747126946,89 L0.000438707575,42.227175 C0.115555598,42.2324224 0.23134909,42.2350746 0.347762052,42.2350746 C4.48989768,42.2350746 7.84776205,38.8772103 7.84776205,34.7350746 C7.84776205,30.592939 4.48989768,27.2350746 0.347762052,27.2350746 C0.23134909,27.2350746 0.115555598,27.2377269 0.000438707575,27.2429743 L0.000747126946,17 C0.000747126946,8.71572875 6.71647588,2 15.0007471,2 L95.0007471,2 Z M11.0006113,89.5 C9.06761471,89.5 7.50061133,91.0670034 7.50061133,93 C7.50061133,94.9329966 9.06761471,96.5 11.0006113,96.5 C12.933608,96.5 14.5006113,94.9329966 14.5006113,93 C14.5006113,91.0670034 12.933608,89.5 11.0006113,89.5 Z M99.0006113,89.5 C97.0676147,89.5 95.5006113,91.0670034 95.5006113,93 C95.5006113,94.9329966 97.0676147,96.5 99.0006113,96.5 C100.933608,96.5 102.500611,94.9329966 102.500611,93 C102.500611,91.0670034 100.933608,89.5 99.0006113,89.5 Z M11.0004084,9.5 C9.06741178,9.5 7.50040841,11.0670034 7.50040841,13 C7.50040841,14.9329966 9.06741178,16.5 11.0004084,16.5 C12.933405,16.5 14.5004084,14.9329966 14.5004084,13 C14.5004084,11.0670034 12.933405,9.5 11.0004084,9.5 Z M99.0004084,9.5 C97.0674118,9.5 95.5004084,11.0670034 95.5004084,13 C95.5004084,14.9329966 97.0674118,16.5 99.0004084,16.5 C100.933405,16.5 102.500408,14.9329966 102.500408,13 C102.500408,11.0670034 100.933405,9.5 99.0004084,9.5 Z" id="形状结合备份" fill="url(#linearGradient-3)"></path>
            <g id="形状结合">
                <use fill-opacity="0.35" fill="#000000" fill-rule="evenodd" xlink:href="#path-4"></use>
                <use fill="black" fill-opacity="1" filter="url(#filter-5)" xlink:href="#path-4"></use>
            </g>
            <g id="形状结合">
                <use fill="url(#linearGradient-6)" fill-rule="evenodd" xlink:href="#path-7"></use>
                <use fill="black" fill-opacity="1" filter="url(#filter-8)" xlink:href="#path-7"></use>
            </g>
            <g id="矩形">
                <use fill="black" fill-opacity="1" filter="url(#filter-11)" xlink:href="#path-10"></use>
                <use fill="url(#linearGradient-9)" fill-rule="evenodd" xlink:href="#path-10"></use>
                <use fill="black" fill-opacity="1" filter="url(#filter-12)" xlink:href="#path-10"></use>
            </g>
            <path d="M34,26.830033 L35.6778443,26.830033 C36.0920578,26.830033 36.4670578,26.9979262 36.7385044,27.2693728 C37.0099511,27.5408194 37.1778443,27.9158194 37.1778443,28.330033 L37.1778443,29.7623762 C37.1778443,30.1765898 37.0099511,30.5515898 36.7385044,30.8230364 C36.4670578,31.094483 36.0920578,31.2623762 35.6778443,31.2623762 L34,31.2623762 C33.5857864,31.2623762 33.2107864,31.094483 32.9393398,30.8230364 C32.6678932,30.5515898 32.5,30.1765898 32.5,29.7623762 L32.5,28.330033 C32.5,27.9158194 32.6678932,27.5408194 32.9393398,27.2693728 C33.2107864,26.9979262 33.5857864,26.830033 34,26.830033 Z M32.5,45.6831683 L32.5,33.6633663 C32.5,33.2491528 32.6678932,32.8741528 32.9393398,32.6027062 C33.2107864,32.3312596 33.5857864,32.1633663 34,32.1633663 L35.6778443,32.1633663 C36.0920578,32.1633663 36.4670578,32.3312596 36.7385044,32.6027062 C37.0099511,32.8741528 37.1778443,33.2491528 37.1778443,33.6633663 L37.1778443,45.6831683 C37.1778443,46.0973819 37.0099511,46.4723819 36.7385044,46.7438285 C36.4670578,47.0152751 36.0920578,47.1831683 35.6778443,47.1831683 L34,47.1831683 C33.5857864,47.1831683 33.2107864,47.0152751 32.9393398,46.7438285 C32.6678932,46.4723819 32.5,46.0973819 32.5,45.6831683 Z M53.8435932,37.970297 L53.8435932,45.6831683 C53.8435932,46.0973819 53.6757,46.4723819 53.4042534,46.7438285 C53.1328068,47.0152751 52.7578068,47.1831683 52.3435932,47.1831683 L50.6657489,47.1831683 C50.2515354,47.1831683 49.8765354,47.0152751 49.6050887,46.7438285 C49.3336421,46.4723819 49.1657489,46.0973819 49.1657489,45.6831683 L49.1657489,39.5280528 C49.1657489,38.1028516 49.1068811,37.1765926 48.9587283,36.7573561 C48.8391576,36.4189999 48.6483063,36.1527344 48.3784917,35.9645867 C48.1043027,35.7733888 47.7726712,35.6848185 47.3883649,35.6848185 C46.8578077,35.6848185 46.3811117,35.8299202 45.9593018,36.1233331 C45.5460251,36.4108101 45.2622899,36.7914238 45.1090538,37.265881 C44.930403,37.8190282 44.8518529,38.8431583 44.8518529,40.3333333 L44.8518529,45.6831683 C44.8518529,46.0973819 44.6839597,46.4723819 44.4125131,46.7438285 C44.1410665,47.0152751 43.7660665,47.1831683 43.3518529,47.1831683 L41.6740086,47.1831683 C41.2597951,47.1831683 40.8847951,47.0152751 40.6133485,46.7438285 C40.3419019,46.4723819 40.1740086,46.0973819 40.1740086,45.6831683 L40.1740086,33.6633663 C40.1740086,33.2491528 40.3419019,32.8741528 40.6133485,32.6027062 C40.8847951,32.3312596 41.2597951,32.1633663 41.6740086,32.1633663 L43.0900846,32.1633663 C43.5042982,32.1633663 43.8792982,32.3312596 44.1507448,32.6027062 C44.3734425,32.8254039 44.5264412,33.1178007 44.5742125,33.4443683 C45.7282522,32.3759106 47.0953764,31.8465347 48.6710295,31.8465347 C49.5561115,31.8465347 50.364435,32.0094701 51.0969756,32.3309221 C51.8592962,32.6654421 52.4299759,33.0984695 52.8202613,33.6166952 C53.2064333,34.1294589 53.4761314,34.7109194 53.6276965,35.3618606 C53.7690897,35.9691156 53.8435932,36.838217 53.8435932,37.970297 Z M61.9364311,45.6831683 C61.9364311,46.0973819 61.7685379,46.4723819 61.4970913,46.7438285 C61.2256446,47.0152751 60.8506446,47.1831683 60.4364311,47.1831683 L58.7585868,47.1831683 C58.3443732,47.1831683 57.9693732,47.0152751 57.6979266,46.7438285 C57.42648,46.4723819 57.2585868,46.0973819 57.2585868,45.6831683 L57.2585868,36.0808581 L55.809625,36.0808581 L55.1294894,32.7924136 L57.2585868,32.2710341 L57.2585868,31.6072607 C57.2585868,30.3377817 57.4047452,29.3943615 57.6719598,28.7702104 C57.9613357,28.0942959 58.4866949,27.5355676 59.2658865,27.1092225 C59.9966524,26.7093742 60.9189925,26.5 62.0384981,26.5 C63.2843032,26.5 64.5006841,26.7137188 65.6876144,27.1413282 L65.0059615,30.6875517 C64.2787626,30.4646156 63.5864034,30.3514851 62.9285103,30.3514851 C62.582094,30.3514851 62.3079004,30.3963137 62.1508964,30.5666236 C61.9738782,30.758644 61.9364311,31.1465344 61.9364311,31.6732673 L64.0921673,32.1633663 L64.7783653,35.4811226 L61.9364311,35.9981073 L61.9364311,45.6831683 Z M66.1149927,35.6662418 C66.7644694,34.4225405 67.6855161,33.4742878 68.8759708,32.8193474 C70.0517088,32.1725035 71.3640846,31.8465347 72.8144608,31.8465347 C75.0652174,31.8465347 76.90551,32.5906946 78.3422753,34.0633794 C79.7758818,35.5328264 80.5,37.3874993 80.5,39.6336634 C80.5,41.896886 79.7696901,43.7690651 78.3231668,45.2562146 C76.8714285,46.7487256 75.0453793,47.5 72.8406377,47.5 C71.4883175,47.5 70.1983855,47.1921224 68.9710466,46.5754949 C67.7198535,45.9468828 66.769098,45.024871 66.117612,43.8106535 C65.4808229,42.6238274 65.1550985,41.180074 65.1550985,39.4752475 C65.1550985,38.1636721 65.4739753,36.8937443 66.1149927,35.6662418 Z M69.9245617,39.6732673 C69.9245617,40.9123508 70.1940461,41.8739896 70.7805785,42.5365727 C71.3338138,43.1615414 72.0152899,43.4768977 72.8275492,43.4768977 C73.6388936,43.4768977 74.3178989,43.1621398 74.8668781,42.5378169 C75.4503041,41.8743197 75.7174484,40.9032101 75.7174484,39.6468647 C75.7174484,38.4238692 75.4491935,37.470952 74.8668781,36.8087177 C74.3178989,36.1843948 73.6388936,35.869637 72.8275492,35.869637 C72.0152899,35.869637 71.3338138,36.1849932 70.7805785,36.8099619 C70.1940461,37.472545 69.9245617,38.4341839 69.9245617,39.6732673 Z" id="info" stroke-opacity="0.05" stroke="#000000" fill-opacity="0.33" fill="#000000" fill-rule="nonzero"></path>
            <path d="M36,74 C36.8284271,74 37.5,74.6715729 37.5,75.5 C37.5,76.3284271 36.8284271,77 36,77 L30.5,77 C29.6715729,77 29,76.3284271 29,75.5 C29,74.6715729 29.6715729,74 30.5,74 L36,74 Z M48.5,74 C49.3284271,74 50,74.6715729 50,75.5 C50,76.3284271 49.3284271,77 48.5,77 L45.5,77 C44.6715729,77 44,76.3284271 44,75.5 C44,74.6715729 44.6715729,74 45.5,74 L48.5,74 Z M71.5,74 C72.3284271,74 73,74.6715729 73,75.5 C73,76.3284271 72.3284271,77 71.5,77 L53.5,77 C52.6715729,77 52,76.3284271 52,75.5 C52,74.6715729 52.6715729,74 53.5,74 L71.5,74 Z M40.5,69 C41.3284271,69 42,69.6715729 42,70.5 C42,71.3284271 41.3284271,72 40.5,72 L30.5,72 C29.6715729,72 29,71.3284271 29,70.5 C29,69.6715729 29.6715729,69 30.5,69 L40.5,69 Z M59.5,69 C60.3284271,69 61,69.6715729 61,70.5 C61,71.3284271 60.3284271,72 59.5,72 L45.5,72 C44.6715729,72 44,71.3284271 44,70.5 C44,69.6715729 44.6715729,69 45.5,69 L59.5,69 Z M77.5,69 C78.3284271,69 79,69.6715729 79,70.5 C79,71.3284271 78.3284271,72 77.5,72 L64.5,72 C63.6715729,72 63,71.3284271 63,70.5 C63,69.6715729 63.6715729,69 64.5,69 L77.5,69 Z M38.5,64 C39.3284271,64 40,64.6715729 40,65.5 C40,66.3284271 39.3284271,67 38.5,67 L30.5,67 C29.6715729,67 29,66.3284271 29,65.5 C29,64.6715729 29.6715729,64 30.5,64 L38.5,64 Z M70.5,64 C71.3284271,64 72,64.6715729 72,65.5 C72,66.3284271 71.3284271,67 70.5,67 L45.5,67 C44.6715729,67 44,66.3284271 44,65.5 C44,64.6715729 44.6715729,64 45.5,64 L70.5,64 Z M35.5,59 C36.3284271,59 37,59.6715729 37,60.5 C37,61.3284271 36.3284271,62 35.5,62 L30.5,62 C29.6715729,62 29,61.3284271 29,60.5 C29,59.6715729 29.6715729,59 30.5,59 L35.5,59 Z M52.5,59 C53.3284271,59 54,59.6715729 54,60.5 C54,61.3284271 53.3284271,62 52.5,62 L45.5,62 C44.6715729,62 44,61.3284271 44,60.5 C44,59.6715729 44.6715729,59 45.5,59 L52.5,59 Z M72.5,59 C73.3284271,59 74,59.6715729 74,60.5 C74,61.3284271 73.3284271,62 72.5,62 L57.5,62 C56.6715729,62 56,61.3284271 56,60.5 C56,59.6715729 56.6715729,59 57.5,59 L72.5,59 Z M82.5,59 C83.3284271,59 84,59.6715729 84,60.5 C84,61.3284271 83.3284271,62 82.5,62 L77.5,62 C76.6715729,62 76,61.3284271 76,60.5 C76,59.6715729 76.6715729,59 77.5,59 L82.5,59 Z M38.5,54 C39.3284271,54 40,54.6715729 40,55.5 C40,56.3284271 39.3284271,57 38.5,57 L30.5,57 C29.6715729,57 29,56.3284271 29,55.5 C29,54.6715729 29.6715729,54 30.5,54 L38.5,54 Z M59.5,54 C60.3284271,54 61,54.6715729 61,55.5 C61,56.3284271 60.3284271,57 59.5,57 L45.5,57 C44.6715729,57 44,56.3284271 44,55.5 C44,54.6715729 44.6715729,54 45.5,54 L59.5,54 Z M75.5,54 C76.3284271,54 77,54.6715729 77,55.5 C77,56.3284271 76.3284271,57 75.5,57 L64.5,57 C63.6715729,57 63,56.3284271 63,55.5 C63,54.6715729 63.6715729,54 64.5,54 L75.5,54 Z" id="形状结合" fill="url(#linearGradient-13)" opacity="0.22937593"></path>
        </g>
    </g>
</svg>