<?xml version="1.0" encoding="UTF-8"?>
<svg width="128px" height="128px" viewBox="0 0 128 128" version="1.1" xmlns="http://www.w3.org/2000/svg" xmlns:xlink="http://www.w3.org/1999/xlink">
    <title>apps/128/deepin-terminal</title>
    <defs>
        <filter x="-9.1%" y="-8.0%" width="118.2%" height="120.0%" filterUnits="objectBoundingBox" id="filter-1">
            <feOffset dx="0" dy="2" in="SourceAlpha" result="shadowOffsetOuter1"></feOffset>
            <feGaussianBlur stdDeviation="3" in="shadowOffsetOuter1" result="shadowBlurOuter1"></feGaussianBlur>
            <feColorMatrix values="0 0 0 0 0   0 0 0 0 0   0 0 0 0 0  0 0 0 0.2 0" type="matrix" in="shadowBlurOuter1" result="shadowMatrixOuter1"></feColorMatrix>
            <feMerge>
                <feMergeNode in="shadowMatrixOuter1"></feMergeNode>
                <feMergeNode in="SourceGraphic"></feMergeNode>
            </feMerge>
        </filter>
        <radialGradient cx="50%" cy="0%" fx="50%" fy="0%" r="100%" gradientTransform="translate(0.5, 0), scale(0.9091, 1), rotate(90), translate(-0.5, -0)" id="radialGradient-2">
            <stop stop-color="#FF774D" offset="0%"></stop>
            <stop stop-color="#BA0E55" offset="100%"></stop>
        </radialGradient>
    </defs>
    <g id="apps/128/deepin-terminal" stroke="none" stroke-width="1" fill="none" fill-rule="evenodd">
        <g id="Group" filter="url(#filter-1)" transform="translate(9, 14)">
            <rect id="Rectangle-245" fill="url(#radialGradient-2)" x="0" y="0" width="110" height="100" rx="16"></rect>
            <path d="M34.8192513,34.9655508 L16.3933124,45.8010865 C15.0540148,46.5886722 14.6016335,48.3216469 15.3828904,49.6717938 C16.1641473,51.0219407 17.8831963,51.4779867 19.2224938,50.690401 L41.6820626,37.4828538 C43.539203,36.390746 43.539203,33.6856471 41.6820626,32.5935393 L19.2224938,19.3859921 C17.8831963,18.5984064 16.1641473,19.0544524 15.3828904,20.4045993 C14.6016335,21.7547462 15.0540148,23.4877209 16.3933124,24.2753067 L34.8192513,34.9655508 Z" id="Path-4" fill="#FFF0F0" fill-rule="nonzero"></path>
            <path d="M63.9683196,62 C65.383264,62 67,60.4329966 67,58.5 C67,56.5670034 65.383264,55 63.9683196,55 L39.0316804,55 C37.616736,55 36,56.5670034 36,58.5 C36,60.4329966 37.616736,62 39.0316804,62 L63.9683196,62 Z" id="Path" fill="#FFF0F0"></path>
        </g>
        <g id="Guide-128" transform="translate(4, 4)"></g>
    </g>
</svg>