<svg xmlns="http://www.w3.org/2000/svg" xmlns:xlink="http://www.w3.org/1999/xlink" width="128" height="128" viewBox="0 0 128 128">
  <defs>
    <filter id="deepin-repair-tools-a" width="129.1%" height="129.1%" x="-14.5%" y="-14.5%" filterUnits="objectBoundingBox">
      <feOffset dy="2" in="SourceAlpha" result="shadowOffsetOuter1"/>
      <feGaussianBlur in="shadowOffsetOuter1" result="shadowBlurOuter1" stdDeviation="3"/>
      <feComposite in="shadowBlurOuter1" in2="SourceAlpha" operator="out" result="shadowBlurOuter1"/>
      <feColorMatrix in="shadowBlurOuter1" result="shadowMatrixOuter1" values="0 0 0 0 0   0 0 0 0 0   0 0 0 0 0  0 0 0 0.2 0"/>
      <feMerge>
        <feMergeNode in="shadowMatrixOuter1"/>
        <feMergeNode in="SourceGraphic"/>
      </feMerge>
    </filter>
    <linearGradient id="deepin-repair-tools-c" x1="50%" x2="50%" y1="0%" y2="100%">
      <stop offset="0%" stop-color="#6CAB02" stop-opacity=".5"/>
      <stop offset="12.398%" stop-color="#88B927"/>
      <stop offset="13.485%" stop-color="#739D21" stop-opacity=".982"/>
      <stop offset="100%" stop-color="#508F06"/>
    </linearGradient>
    <path id="deepin-repair-tools-b" d="M0.527574916,12.2103745 L3.32357531,6.63152174 C5.36080215,2.56664799 9.51810418,-9.41121178e-16 14.0649153,0 L95.9350847,0 C100.481896,-1.27840677e-14 104.639198,2.56664799 106.676425,6.63152174 L109.472425,12.2103745 C109.819354,12.9026009 110,13.6662207 110,14.4405184 L110,100.045249 C110,105.543106 105.543106,110 100.045249,110 L9.95475113,110 C4.45689389,110 2.44965017e-15,105.543106 0,100.045249 L0,14.4405184 C7.01060324e-15,13.6662207 0.180646045,12.9026009 0.527574916,12.2103745 Z"/>
    <linearGradient id="deepin-repair-tools-e" x1="50%" x2="50%" y1="3.603%" y2="100%">
      <stop offset="0%" stop-color="#FFF"/>
      <stop offset="100%" stop-color="#C2FF69" stop-opacity=".802"/>
    </linearGradient>
  </defs>
  <g fill="none" fill-rule="evenodd" filter="url(#deepin-repair-tools-a)" transform="translate(9 9)">
    <mask id="deepin-repair-tools-d" fill="#fff">
      <use xlink:href="#deepin-repair-tools-b"/>
    </mask>
    <use fill="url(#deepin-repair-tools-c)" xlink:href="#deepin-repair-tools-b"/>
    <path fill="#538300" fill-opacity=".5" d="M98,14 L98,111 L93,111 L93,14 L98,14 Z M108,14 L108,111 L103,111 L103,14 L108,14 Z M88,14 L88,111 L83,111 L83,14 L88,14 Z M78,14 L78,111 L73,111 L73,14 L78,14 Z M68,14 L68,111 L63,111 L63,14 L68,14 Z M58,14 L58,111 L53,111 L53,14 L58,14 Z M48,14 L48,111 L43,111 L43,14 L48,14 Z M38,14 L38,111 L33,111 L33,14 L38,14 Z M28,14 L28,111 L23,111 L23,14 L28,14 Z M18,14 L18,111 L13,111 L13,14 L18,14 Z M8,14 L8,111 L3,111 L3,14 L8,14 Z" mask="url(#deepin-repair-tools-d)"/>
    <path fill="#538300" fill-opacity=".2" d="M93,14 L88.1619798,0 L92.5169105,0 L98,14 L93,14 Z M103,14 L96.8718411,0 L101.226772,0 L108,14 L103,14 Z M83,14 L79.4521185,0 L83.8070492,0 L88,14 L83,14 Z M73,14 L70.7422573,0 L75.0971879,0 L78,14 L73,14 Z M63,14 L62.032396,0 L66.3873266,0 L68,14 L63,14 Z M53,14 L53.3225347,0 L57.6774653,0 L58,14 L53,14 Z M43,14 L44.6126734,0 L48.967604,0 L48,14 L43,14 Z M33,14 L35.9028121,0 L40.2577427,0 L38,14 L33,14 Z M23,14 L27.1929508,0 L31.5478815,0 L28,14 L23,14 Z M13,14 L18.4830895,0 L22.8380202,0 L18,14 L13,14 Z M3,14 L9.77322825,0 L14.1281589,0 L8,14 L3,14 Z" mask="url(#deepin-repair-tools-d)"/>
    <path fill="url(#deepin-repair-tools-e)" fill-rule="nonzero" d="M36.0719856,74.8809802 L50.8923443,58.3400457 C50.9535786,58.4141866 51.0125383,58.4860562 51.0692422,58.5556502 C51.2062335,59.0083693 51.4206348,59.435956 51.7073616,59.8183847 L51.8567287,60.0057432 L55.643009,64.476 L41.7364019,79.9991704 C41.7734134,80.2815344 41.795692,80.4950352 41.8032378,80.6396729 C41.9785528,84.000088 39.4162621,86.8587277 36.0710438,87.0348401 C32.7258255,87.2109524 29.8801141,84.6370223 29.7047991,81.2766072 C29.5294841,77.9161921 32.0978241,75.0572339 35.4369931,74.88144 C35.5510492,74.8754354 35.7093254,74.8741364 35.9118219,74.877543 L36.0719856,74.8809802 L50.8923443,58.3400457 Z M55.3393314,24.5124873 L61.4049484,24.9385647 L58.2670718,28.0467764 C58.0069732,28.1403494 57.5817939,28.2701232 57.3178459,28.3364765 C57.3178459,28.3364765 53.4850672,29.1874583 50.4453864,31.4046816 C47.4057057,33.6219049 46.5808843,37.4367459 48.9099603,41.9267402 C50.276444,44.5610482 51.1680399,45.4708039 53.0365412,47.5976963 C55.2215506,50.0848661 57.1588522,52.0693648 58.0004194,52.9154483 C58.3632957,52.9973843 58.7071609,53.1792881 58.9869055,53.460169 L83.693993,78.267618 C85.3763603,79.9568191 85.4227715,82.7662462 83.8279788,84.5184321 C83.338735,84.9767331 82.1305664,86.0006772 82.1305664,86.0006772 C80.2832067,87.4973759 77.5223131,87.2213909 75.9834399,85.4045268 L53.3730802,58.7097001 C53.1132489,58.4029313 52.9576125,58.0348298 52.9035436,57.6539193 C52.2249264,56.798231 49.5977085,53.598716 44.1761277,48.238191 C37.7718338,41.90602 36.6813199,45.0974216 35.5008462,46.1472453 C34.3203725,47.1970689 34.4410693,48.1717845 34.4410693,48.1717845 C34.338714,48.7714243 33.9250703,49.5740359 33.4612988,49.9630831 L31.5763315,51.5443386 C31.4009166,51.6302836 28.1147953,48.1087733 27.0724635,46.9435185 C26.176997,45.9424489 24.7478,43.9389791 24.7478,43.9389791 C24.5844255,43.7134369 24.6068447,43.3706292 24.791989,43.1667 C24.791989,43.1667 26.5376563,41.1765972 27.1835864,41.1383193 C29.0793489,41.0259762 29.9567652,40.8488729 30.8857582,39.4271012 C31.8147512,38.0053296 31.8143334,36.8848501 32.3308784,36.0620679 C32.674306,35.5150368 35.5423815,31.9644686 39.7400163,29.4785678 C47.7920107,24.7100588 54.0426343,24.4218134 55.3393314,24.5124873 Z M34.8400551,77.9466829 L32.5856805,80.3751925 L33.5521276,83.5506672 L36.7729493,84.2976324 L39.0273239,81.8691229 L38.0608768,78.6936482 L34.8400551,77.9466829 Z M82.0912016,29.6925441 L77.3191356,30.6244816 C74.6972312,31.1364447 72.9604891,33.6200595 73.3489723,36.2368499 L73.3862919,36.4551846 L73.3945732,36.4979814 C73.3951086,36.5007488 73.3956465,36.5035157 73.3961867,36.5062821 C73.9091402,39.1332584 76.4010703,40.8710445 79.0224029,40.4743766 L79.2351904,40.4375123 L84.8926402,39.3328008 C83.8683688,43.4882239 80.2394576,46.6640243 75.7631835,46.8996822 C75.5475906,46.9110323 75.3332428,46.9153931 75.1203583,46.9129617 C74.6719165,46.9614703 74.2205534,46.9801521 73.7694685,46.9688133 C72.2550678,46.9329163 70.7965074,47.5633968 69.7839556,48.6947767 L63.756009,55.421 L60.394381,52.0456152 C60.0766945,51.7266382 59.7122649,51.4673332 59.3168598,51.2738201 L59.0760257,51.1656562 C58.7807249,50.8659697 58.4754934,50.5525383 58.1620555,50.2266678 L64.1198914,43.5747571 C65.1340599,42.4432921 65.6074913,40.9217678 65.4120377,39.4126585 C65.3387805,38.8461377 65.312501,38.2742005 65.3335723,37.7032698 C65.3271356,37.6196373 65.3217136,37.5356958 65.3173187,37.4514557 C65.0300303,31.9447492 69.2410168,27.2467291 74.7228202,26.9581341 C77.5603603,26.808749 80.1822007,27.8701058 82.0912016,29.6925441 Z" mask="url(#deepin-repair-tools-d)"/>
  </g>
</svg>
