<svg xmlns="http://www.w3.org/2000/svg" xmlns:xlink="http://www.w3.org/1999/xlink" width="128" height="128" viewBox="0 0 128 128">
  <defs>
    <filter id="fcitx-setting-a" width="131.2%" height="131.2%" x="-14.3%" y="-14.3%" filterUnits="objectBoundingBox">
      <feOffset dy="2" in="SourceAlpha" result="shadowOffsetOuter1"/>
      <feGaussianBlur in="shadowOffsetOuter1" result="shadowBlurOuter1" stdDeviation="3"/>
      <feComposite in="shadowBlurOuter1" in2="SourceAlpha" operator="out" result="shadowBlurOuter1"/>
      <feColorMatrix in="shadowBlurOuter1" result="shadowMatrixOuter1" values="0 0 0 0 0   0 0 0 0 0   0 0 0 0 0  0 0 0 0.2 0"/>
      <feMerge>
        <feMergeNode in="shadowMatrixOuter1"/>
        <feMergeNode in="SourceGraphic"/>
      </feMerge>
    </filter>
    <linearGradient id="fcitx-setting-b" x1="50%" x2="50%" y1="0%" y2="100%">
      <stop offset="0%" stop-color="#DDD"/>
      <stop offset="100%" stop-color="#9E9E9E"/>
    </linearGradient>
    <path id="fcitx-setting-c" d="M12.5,0 L93.5,0 C100.403559,-1.26816328e-15 106,5.59644063 106,12.5 L106,45.5 C106,52.4035594 100.403559,58 93.5,58 L12.5,58 C5.59644063,58 8.45442189e-16,52.4035594 0,45.5 L0,12.5 C-8.45442189e-16,5.59644063 5.59644063,1.26816328e-15 12.5,0 Z"/>
    <filter id="fcitx-setting-d" width="101.9%" height="103.4%" x="-.9%" y="-1.7%" filterUnits="objectBoundingBox">
      <feOffset dy="-2" in="SourceAlpha" result="shadowOffsetInner1"/>
      <feComposite in="shadowOffsetInner1" in2="SourceAlpha" k2="-1" k3="1" operator="arithmetic" result="shadowInnerInner1"/>
      <feColorMatrix in="shadowInnerInner1" values="0 0 0 0 0   0 0 0 0 0   0 0 0 0 0  0 0 0 0.25 0"/>
    </filter>
    <linearGradient id="fcitx-setting-g" x1="50%" x2="50%" y1="0%" y2="100%">
      <stop offset="0%" stop-color="#E9E9E9"/>
      <stop offset="100%" stop-color="#E3E3E3"/>
    </linearGradient>
    <path id="fcitx-setting-f" d="M81.5,39 C83.9852814,39 86,41.0147186 86,43.5 C86,45.9852814 83.9852814,48 81.5,48 L36.5,48 C34.0147186,48 32,45.9852814 32,43.5 C32,41.0147186 34.0147186,39 36.5,39 L81.5,39 Z M93.5,39 C95.9852814,39 98,41.0147186 98,43.5 C98,45.9852814 95.9852814,48 93.5,48 C91.0147186,48 89,45.9852814 89,43.5 C89,41.0147186 91.0147186,39 93.5,39 Z M12.5,39 C14.9852814,39 17,41.0147186 17,43.5 C17,45.9852814 14.9852814,48 12.5,48 C10.0147186,48 8,45.9852814 8,43.5 C8,41.0147186 10.0147186,39 12.5,39 Z M24.5,39 C26.9852814,39 29,41.0147186 29,43.5 C29,45.9852814 26.9852814,48 24.5,48 C22.0147186,48 20,45.9852814 20,43.5 C20,41.0147186 22.0147186,39 24.5,39 Z M24.5,25 C26.9852814,25 29,27.0147186 29,29.5 C29,31.9852814 26.9852814,34 24.5,34 L12.5,34 C10.0147186,34 8,31.9852814 8,29.5 C8,27.0147186 10.0147186,25 12.5,25 L24.5,25 Z M93.5,25 C95.9852814,25 98,27.0147186 98,29.5 C98,31.9852814 95.9852814,34 93.5,34 L84.5,34 C82.0147186,34 80,31.9852814 80,29.5 C80,27.0147186 82.0147186,25 84.5,25 L93.5,25 Z M36.5,25 C38.9852814,25 41,27.0147186 41,29.5 C41,31.9852814 38.9852814,34 36.5,34 C34.0147186,34 32,31.9852814 32,29.5 C32,27.0147186 34.0147186,25 36.5,25 Z M48.5,25 C50.9852814,25 53,27.0147186 53,29.5 C53,31.9852814 50.9852814,34 48.5,34 C46.0147186,34 44,31.9852814 44,29.5 C44,27.0147186 46.0147186,25 48.5,25 Z M72.5,25 C74.9852814,25 77,27.0147186 77,29.5 C77,31.9852814 74.9852814,34 72.5,34 C70.0147186,34 68,31.9852814 68,29.5 C68,27.0147186 70.0147186,25 72.5,25 Z M60.5,25 C62.9852814,25 65,27.0147186 65,29.5 C65,31.9852814 62.9852814,34 60.5,34 C58.0147186,34 56,31.9852814 56,29.5 C56,27.0147186 58.0147186,25 60.5,25 Z M12.5,11 C14.9852814,11 17,13.0147186 17,15.5 C17,17.9852814 14.9852814,20 12.5,20 C10.0147186,20 8,17.9852814 8,15.5 C8,13.0147186 10.0147186,11 12.5,11 Z M69.5,11 C71.9852814,11 74,13.0147186 74,15.5 C74,17.9852814 71.9852814,20 69.5,20 C67.0147186,20 65,17.9852814 65,15.5 C65,13.0147186 67.0147186,11 69.5,11 Z M24.5,11 C26.9852814,11 29,13.0147186 29,15.5 C29,17.9852814 26.9852814,20 24.5,20 C22.0147186,20 20,17.9852814 20,15.5 C20,13.0147186 22.0147186,11 24.5,11 Z M36.5,11 C38.9852814,11 41,13.0147186 41,15.5 C41,17.9852814 38.9852814,20 36.5,20 C34.0147186,20 32,17.9852814 32,15.5 C32,13.0147186 34.0147186,11 36.5,11 Z M81.5,11 C83.9852814,11 86,13.0147186 86,15.5 C86,17.9852814 83.9852814,20 81.5,20 C79.0147186,20 77,17.9852814 77,15.5 C77,13.0147186 79.0147186,11 81.5,11 Z M93.5,11 C95.9852814,11 98,13.0147186 98,15.5 C98,17.9852814 95.9852814,20 93.5,20 C91.0147186,20 89,17.9852814 89,15.5 C89,13.0147186 91.0147186,11 93.5,11 Z M57,11 C59.4852814,11 61.5,13.0147186 61.5,15.5 C61.5,17.9852814 59.4852814,20 57,20 C54.5147186,20 52.5,17.9852814 52.5,15.5 C52.5,13.0147186 54.5147186,11 57,11 Z"/>
    <filter id="fcitx-setting-e" width="101.1%" height="105.4%" x="-.6%" y="-1.4%" filterUnits="objectBoundingBox">
      <feOffset dy="1" in="SourceAlpha" result="shadowOffsetOuter1"/>
      <feColorMatrix in="shadowOffsetOuter1" values="0 0 0 0 0   0 0 0 0 0   0 0 0 0 0  0 0 0 0.08 0"/>
    </filter>
    <filter id="fcitx-setting-h" width="101.1%" height="105.4%" x="-.6%" y="-1.4%" filterUnits="objectBoundingBox">
      <feOffset dy="1" in="SourceAlpha" result="shadowOffsetInner1"/>
      <feComposite in="shadowOffsetInner1" in2="SourceAlpha" k2="-1" k3="1" operator="arithmetic" result="shadowInnerInner1"/>
      <feColorMatrix in="shadowInnerInner1" values="0 0 0 0 1   0 0 0 0 1   0 0 0 0 1  0 0 0 0.3 0"/>
    </filter>
    <linearGradient id="fcitx-setting-k" x1="50%" x2="50%" y1="0%" y2="100%">
      <stop offset="0%" stop-color="#03E297"/>
      <stop offset="98.575%" stop-color="#00A8D3"/>
    </linearGradient>
    <path id="fcitx-setting-j" d="M26.5,0 L71.3730745,0 C75.5074452,-2.6551736e-15 78.8620845,3.34575512 78.8730481,7.48011131 L78.9950307,53.4794455 C78.9981592,54.6591615 78.4459594,55.7715774 77.5043973,56.482352 L51.2593534,76.2944396 C49.9222241,77.3038234 48.0777759,77.3038234 46.7406466,76.2944396 L20.4906466,56.4786107 C19.551877,55.7699441 19,54.66187 19,53.4856486 L19,7.5 C19,3.35786438 22.3578644,1.64907639e-15 26.5,0 Z"/>
    <filter id="fcitx-setting-i" width="113.3%" height="109%" x="-6.7%" y="-2.6%" filterUnits="objectBoundingBox">
      <feOffset dy="2" in="SourceAlpha" result="shadowOffsetOuter1"/>
      <feGaussianBlur in="shadowOffsetOuter1" result="shadowBlurOuter1" stdDeviation="1"/>
      <feColorMatrix in="shadowBlurOuter1" values="0 0 0 0 0   0 0 0 0 0   0 0 0 0 0  0 0 0 0.1 0"/>
    </filter>
    <filter id="fcitx-setting-l" width="110%" height="106.5%" x="-5%" y="-1.3%" filterUnits="objectBoundingBox">
      <feOffset dy="-2" in="SourceAlpha" result="shadowOffsetInner1"/>
      <feComposite in="shadowOffsetInner1" in2="SourceAlpha" k2="-1" k3="1" operator="arithmetic" result="shadowInnerInner1"/>
      <feColorMatrix in="shadowInnerInner1" result="shadowMatrixInner1" values="0 0 0 0 0   0 0 0 0 0   0 0 0 0 0  0 0 0 0.08 0"/>
      <feOffset dy="2" in="SourceAlpha" result="shadowOffsetInner2"/>
      <feComposite in="shadowOffsetInner2" in2="SourceAlpha" k2="-1" k3="1" operator="arithmetic" result="shadowInnerInner2"/>
      <feColorMatrix in="shadowInnerInner2" result="shadowMatrixInner2" values="0 0 0 0 1   0 0 0 0 1   0 0 0 0 1  0 0 0 0.25 0"/>
      <feMerge>
        <feMergeNode in="shadowMatrixInner1"/>
        <feMergeNode in="shadowMatrixInner2"/>
      </feMerge>
    </filter>
    <text id="fcitx-setting-n" fill="#FFF" font-family="SourceHanSansCN-Medium, Source Han Sans CN" font-size="52.5" font-weight="400">
      <tspan x="23" y="55">中</tspan>
    </text>
    <filter id="fcitx-setting-m" width="113.2%" height="113.5%" x="-6.6%" y="-4.8%" filterUnits="objectBoundingBox">
      <feOffset dy="1" in="SourceAlpha" result="shadowOffsetOuter1"/>
      <feGaussianBlur in="shadowOffsetOuter1" result="shadowBlurOuter1" stdDeviation="1"/>
      <feColorMatrix in="shadowBlurOuter1" values="0 0 0 0 0   0 0 0 0 0   0 0 0 0 0  0 0 0 0.16 0"/>
    </filter>
    <circle id="fcitx-setting-p" cx="22.5" cy="22.5" r="22.5"/>
    <filter id="fcitx-setting-o" width="128.9%" height="128.9%" x="-16.7%" y="-16.7%" filterUnits="objectBoundingBox">
      <feOffset dx="-1" dy="-1" in="SourceAlpha" result="shadowOffsetOuter1"/>
      <feGaussianBlur in="shadowOffsetOuter1" result="shadowBlurOuter1" stdDeviation="2"/>
      <feColorMatrix in="shadowBlurOuter1" values="0 0 0 0 0   0 0 0 0 0   0 0 0 0 0  0 0 0 0.1 0"/>
    </filter>
  </defs>
  <g fill="none" fill-rule="evenodd" filter="url(#fcitx-setting-a)" transform="translate(9 9)">
    <g transform="translate(0 48)">
      <use fill="url(#fcitx-setting-b)" xlink:href="#fcitx-setting-c"/>
      <use fill="#000" filter="url(#fcitx-setting-d)" xlink:href="#fcitx-setting-c"/>
      <use fill="#000" filter="url(#fcitx-setting-e)" xlink:href="#fcitx-setting-f"/>
      <use fill="url(#fcitx-setting-g)" xlink:href="#fcitx-setting-f"/>
      <use fill="#000" filter="url(#fcitx-setting-h)" xlink:href="#fcitx-setting-f"/>
    </g>
    <use fill="#000" filter="url(#fcitx-setting-i)" xlink:href="#fcitx-setting-j"/>
    <use fill="url(#fcitx-setting-k)" xlink:href="#fcitx-setting-j"/>
    <use fill="#000" filter="url(#fcitx-setting-l)" xlink:href="#fcitx-setting-j"/>
    <g fill="#FFF">
      <use filter="url(#fcitx-setting-m)" xlink:href="#fcitx-setting-n"/>
      <use xlink:href="#fcitx-setting-n"/>
    </g>
    <g fill-rule="nonzero" transform="translate(66.5 67)">
      <use fill="#000" filter="url(#fcitx-setting-o)" xlink:href="#fcitx-setting-p"/>
      <use fill="#FFF" xlink:href="#fcitx-setting-p"/>
      <path fill="#2D2D2D" d="M35.0544011,18.7500194 C35.0544011,17.3912885 36.0507779,16.1232435 37.5,15.5797122 C37.3188618,14.4021973 36.9565465,13.2246435 36.5942313,12.1376977 C35.0543622,12.3188748 33.6051012,11.7753824 32.8804706,10.5978287 C32.1558012,9.42031375 32.4275473,7.88044465 33.423924,6.61232175 C32.6992935,5.70655305 31.8840939,4.8913145 30.9782862,4.0761149 C29.6195553,5.0724916 28.0797252,5.3442378 26.9022103,4.6195683 C25.7246565,3.8949378 25.1811641,2.4456767 25.3623412,0.90580765 C24.2753954,0.54349235 23.0978416,0.1811771 21.9203267,0 C21.3767954,1.44926105 20.1087115,2.4456378 18.7500194,2.4456378 C17.3913274,2.4456378 16.1232435,1.44926105 15.5797122,0 C14.4021973,0.18113815 13.2246435,0.54345345 12.1376977,0.9057687 C12.1986869,1.42413135 12.1775579,1.9322265 12.077767,2.4058686 C11.8811148,3.3392469 11.3789851,4.1388296 10.5978287,4.6195294 C9.42031375,5.34419885 7.88044465,5.07245265 6.61232175,4.07607595 C5.70655305,4.8007065 4.8913145,5.6159061 4.0761149,6.52171375 C4.2828939,6.8112026 4.4566284,7.11485275 4.5940866,7.4251208 C5.05877215,8.47400035 5.10888535,9.59851045 4.6195683,10.5072206 C3.8949378,11.6847744 2.4456767,12.2282278 0.90580765,12.0470897 C0.54349235,13.1340355 0.18113815,14.3115893 0,15.4891042 C1.44922215,16.1232435 2.4456378,17.3913274 2.4456378,18.7500194 C2.4456378,18.96364 2.4210076,19.1750207 2.3738596,19.3816978 C2.12113165,20.48955 1.2214008,21.4622522 0,21.9203267 C0.18113815,23.0978416 0.54345345,24.2753954 0.9057687,25.3623412 C2.4456378,25.1811641 3.98550685,25.6340874 4.6195294,26.9022103 C5.34419885,28.0797252 5.07245265,29.6195942 4.07607595,30.8877172 C4.8007065,31.7934859 5.6159061,32.6087244 6.52171375,33.423924 C7.78983665,32.4275473 9.32970575,32.2464091 10.5072206,32.8804706 C11.6847744,33.6051012 12.2282278,35.0543622 12.0470897,36.5942313 C13.1340355,36.9565465 14.3115893,37.3188618 15.4891042,37.5 C16.1231657,36.050739 17.3007194,35.0543622 18.6594115,35.0543622 C20.0181035,35.0543622 21.2861874,36.050739 21.8296798,37.5 C23.0072336,37.3188618 24.0941794,36.9565465 25.2717332,36.5942313 C25.0905561,35.0543622 25.6340485,33.6051012 26.8115634,32.8804706 C27.9891172,32.1558012 29.5289474,32.4275473 30.7970702,33.423924 C31.7028778,32.6992935 32.5180775,31.9894326 33.3333161,31.083625 C32.3369393,29.8155021 32.1557622,28.1702942 32.7898237,26.9927794 C33.5144542,25.8152256 34.9637542,25.2717721 36.5035843,25.4529103 C36.8659386,24.3659645 37.2282538,23.1884107 37.409392,22.0108958 C36.0507779,21.2862652 35.0544011,20.1087115 35.0544011,18.7500194 Z M6,19.1340962 C6,12.8170229 10.5500084,7.5528204 16.5,6.5 C16.5,11.4629855 16.5,15.1852246 16.5,17.6667173 C16.5,17.7068441 16.5,17.7670342 16.5,17.8472878 L6.7000167,23.5 C6.68117275,23.4433169 6.6627093,23.386573 6.64462635,23.3297652 C6.63922555,23.3127985 6.63385865,23.2958261 6.62852575,23.2788479 C6.6223431,23.2591646 6.59739575,23.1784723 6.59111145,23.1578082 C6.1970112,21.8619143 6,20.5315573 6,19.1340962 Z M18.75,32 C14.9196251,32 11.437475,30.1896105 9,27.293091 L18.75,21.5 L28.5,27.2931428 C26.0625748,30.1896105 22.5803749,32 18.75,32 Z M21.5,17.8885087 C21.5,17.8136684 21.5,17.7598822 21.5,17.7271503 C21.5,17.6435826 21.5,17.5735968 21.5,17.517193 C21.5,15.0795407 21.5,11.4071431 21.5,6.5 C27.4499198,7.5551481 32,12.8309893 32,19.162029 C32,20.5439901 31.8081545,21.8295357 31.424501,23.1061237 C31.4041074,23.1739822 31.3831719,23.2418154 31.3616944,23.3096364 C31.3415974,23.373098 31.321026,23.4365489 31.29998,23.5 L21.5,17.8885087 Z" transform="translate(4 4)"/>
    </g>
  </g>
</svg>
