<?xml version="1.0" encoding="UTF-8"?>
<svg width="128px" height="128px" viewBox="0 0 128 128" version="1.1" xmlns="http://www.w3.org/2000/svg" xmlns:xlink="http://www.w3.org/1999/xlink">
    <title>apps/128/onboard</title>
    <defs>
        <filter x="-9.3%" y="-8.0%" width="118.5%" height="120.0%" filterUnits="objectBoundingBox" id="filter-1">
            <feOffset dx="0" dy="2" in="SourceAlpha" result="shadowOffsetOuter1"></feOffset>
            <feGaussianBlur stdDeviation="3" in="shadowOffsetOuter1" result="shadowBlurOuter1"></feGaussianBlur>
            <feColorMatrix values="0 0 0 0 0   0 0 0 0 0   0 0 0 0 0  0 0 0 0.2 0" type="matrix" in="shadowBlurOuter1" result="shadowMatrixOuter1"></feColorMatrix>
            <feMerge>
                <feMergeNode in="shadowMatrixOuter1"></feMergeNode>
                <feMergeNode in="SourceGraphic"></feMergeNode>
            </feMerge>
        </filter>
        <linearGradient x1="50%" y1="0%" x2="50%" y2="98.139%" id="linearGradient-2">
            <stop stop-color="#FFFFFF" offset="0%"></stop>
            <stop stop-color="#EDEDED" offset="100%"></stop>
        </linearGradient>
        <linearGradient x1="50%" y1="0%" x2="50%" y2="100%" id="linearGradient-3">
            <stop stop-color="#4A4A4A" offset="0%"></stop>
            <stop stop-color="#363636" offset="97.645%"></stop>
        </linearGradient>
    </defs>
    <g id="apps/128/onboard" stroke="none" stroke-width="1" fill="none" fill-rule="evenodd">
        <g id="onboard" filter="url(#filter-1)" transform="translate(10, 14)" fill-rule="nonzero">
            <rect id="矩形" fill="url(#linearGradient-2)" x="0" y="0" width="108" height="100" rx="20.1739998"></rect>
            <g id="编组" transform="translate(22, 34)">
                <g id="deepin-virtualkeyboard-d-link" fill="#000000">
                    <path d="M58.0173913,0 L61.9826087,0 C63.0967831,0 64,0.9032169 64,2.0173913 L64,5.9826087 C64,7.0967831 63.0967831,8 61.9826087,8 L58.0173913,8 C56.9032169,8 56,7.0967831 56,5.9826087 L56,2.0173913 C56,0.9032169 56.9032169,0 58.0173913,0 Z M46.0173913,0 L49.9826087,0 C51.0967831,0 52,0.9032169 52,2.0173913 L52,5.9826087 C52,7.0967831 51.0967831,8 49.9826087,8 L46.0173913,8 C44.9032169,8 44,7.0967831 44,5.9826087 L44,2.0173913 C44,0.9032169 44.9032169,0 46.0173913,0 Z M34.0173913,0 L37.9826087,0 C39.0967831,0 40,0.9032169 40,2.0173913 L40,5.9826087 C40,7.0967831 39.0967831,8 37.9826087,8 L34.0173913,8 C32.9032169,8 32,7.0967831 32,5.9826087 L32,2.0173913 C32,0.9032169 32.9032169,0 34.0173913,0 Z M44,14.0173913 L44,17.9826087 C44,19.0967831 43.0967831,20 41.9826087,20 L38.0173913,20 C36.9032169,20 36,19.0967831 36,17.9826087 L36,14.0173913 C36,12.9032169 36.9032169,12 38.0173913,12 L41.9826087,12 C43.0967831,12 44,12.9032169 44,14.0173913 Z M22.0173913,0 L25.9826087,0 C27.0967831,0 28,0.9032169 28,2.0173913 L28,5.9826087 C28,7.0967831 27.0967831,8 25.9826087,8 L22.0173913,8 C20.9032169,8 20,7.0967831 20,5.9826087 L20,2.0173913 C20,0.9032169 20.9032169,0 22.0173913,0 Z M32,14.0173913 L32,17.9826087 C32,19.0967831 31.0967831,20 29.9826087,20 L26.0173913,20 C24.9032169,20 24,19.0967831 24,17.9826087 L24,14.0173913 C24,12.9032169 24.9032169,12 26.0173913,12 L29.9826087,12 C31.0967831,12 32,12.9032169 32,14.0173913 Z M2.0173913,0 L13.9826087,0 C15.0967831,0 16,0.9032169 16,2.0173913 L16,5.9826087 C16,7.0967831 15.0967831,8 13.9826087,8 L2.0173913,8 C0.9032169,8 0,7.0967831 0,5.9826087 L0,2.0173913 C0,0.9032169 0.9032169,0 2.0173913,0 Z M2.0173913,12 L17.9826087,12 C19.0967831,12 20,12.9032169 20,14.0173913 L20,17.9826087 C20,19.0967831 19.0967831,20 17.9826087,20 L2.0173913,20 C0.9032169,20 0,19.0967831 0,17.9826087 L0,14.0173913 C0,12.9032169 0.9032169,12 2.0173913,12 Z M49.9826087,32 L18.0173913,32 C16.9032169,32 16,31.0967831 16,29.9826087 L16,26.0173913 C16,24.9032169 16.9032169,24 18.0173913,24 L49.9826087,24 C51.0967831,24 52,24.9032169 52,26.0173913 L52,29.9826087 C52,31.0967831 51.0967831,32 49.9826087,32 Z M9.9826087,32 L2.0173913,32 C0.9032169,32 0,31.0967831 0,29.9826087 L0,26.0173913 C0,24.9032169 0.9032169,24 2.0173913,24 L9.9826087,24 C11.0967831,24 12,24.9032169 12,26.0173913 L12,29.9826087 C12,31.0967831 11.0967831,32 9.9826087,32 Z M61.9826087,20 L50.0173913,20 C48.9032169,20 48,19.0967831 48,17.9826087 L48,14.0173913 C48,12.9032169 48.9032169,12 50.0173913,12 L61.9826087,12 C63.0967831,12 64,12.9032169 64,14.0173913 L64,17.9826087 C64,19.0967831 63.0967831,20 61.9826087,20 Z M61.9826087,32 L58.0173913,32 C56.9032169,32 56,31.0967831 56,29.9826087 L56,26.0173913 C56,24.9032169 56.9032169,24 58.0173913,24 L61.9826087,24 C63.0967831,24 64,24.9032169 64,26.0173913 L64,29.9826087 C64,31.0967831 63.0967831,32 61.9826087,32 Z" id="deepin-virtualkeyboard-d"></path>
                </g>
                <g id="deepin-virtualkeyboard-d-link" fill="url(#linearGradient-3)">
                    <path d="M58.0173913,0 L61.9826087,0 C63.0967831,0 64,0.9032169 64,2.0173913 L64,5.9826087 C64,7.0967831 63.0967831,8 61.9826087,8 L58.0173913,8 C56.9032169,8 56,7.0967831 56,5.9826087 L56,2.0173913 C56,0.9032169 56.9032169,0 58.0173913,0 Z M46.0173913,0 L49.9826087,0 C51.0967831,0 52,0.9032169 52,2.0173913 L52,5.9826087 C52,7.0967831 51.0967831,8 49.9826087,8 L46.0173913,8 C44.9032169,8 44,7.0967831 44,5.9826087 L44,2.0173913 C44,0.9032169 44.9032169,0 46.0173913,0 Z M34.0173913,0 L37.9826087,0 C39.0967831,0 40,0.9032169 40,2.0173913 L40,5.9826087 C40,7.0967831 39.0967831,8 37.9826087,8 L34.0173913,8 C32.9032169,8 32,7.0967831 32,5.9826087 L32,2.0173913 C32,0.9032169 32.9032169,0 34.0173913,0 Z M44,14.0173913 L44,17.9826087 C44,19.0967831 43.0967831,20 41.9826087,20 L38.0173913,20 C36.9032169,20 36,19.0967831 36,17.9826087 L36,14.0173913 C36,12.9032169 36.9032169,12 38.0173913,12 L41.9826087,12 C43.0967831,12 44,12.9032169 44,14.0173913 Z M22.0173913,0 L25.9826087,0 C27.0967831,0 28,0.9032169 28,2.0173913 L28,5.9826087 C28,7.0967831 27.0967831,8 25.9826087,8 L22.0173913,8 C20.9032169,8 20,7.0967831 20,5.9826087 L20,2.0173913 C20,0.9032169 20.9032169,0 22.0173913,0 Z M32,14.0173913 L32,17.9826087 C32,19.0967831 31.0967831,20 29.9826087,20 L26.0173913,20 C24.9032169,20 24,19.0967831 24,17.9826087 L24,14.0173913 C24,12.9032169 24.9032169,12 26.0173913,12 L29.9826087,12 C31.0967831,12 32,12.9032169 32,14.0173913 Z M2.0173913,0 L13.9826087,0 C15.0967831,0 16,0.9032169 16,2.0173913 L16,5.9826087 C16,7.0967831 15.0967831,8 13.9826087,8 L2.0173913,8 C0.9032169,8 0,7.0967831 0,5.9826087 L0,2.0173913 C0,0.9032169 0.9032169,0 2.0173913,0 Z M2.0173913,12 L17.9826087,12 C19.0967831,12 20,12.9032169 20,14.0173913 L20,17.9826087 C20,19.0967831 19.0967831,20 17.9826087,20 L2.0173913,20 C0.9032169,20 0,19.0967831 0,17.9826087 L0,14.0173913 C0,12.9032169 0.9032169,12 2.0173913,12 Z M49.9826087,32 L18.0173913,32 C16.9032169,32 16,31.0967831 16,29.9826087 L16,26.0173913 C16,24.9032169 16.9032169,24 18.0173913,24 L49.9826087,24 C51.0967831,24 52,24.9032169 52,26.0173913 L52,29.9826087 C52,31.0967831 51.0967831,32 49.9826087,32 Z M9.9826087,32 L2.0173913,32 C0.9032169,32 0,31.0967831 0,29.9826087 L0,26.0173913 C0,24.9032169 0.9032169,24 2.0173913,24 L9.9826087,24 C11.0967831,24 12,24.9032169 12,26.0173913 L12,29.9826087 C12,31.0967831 11.0967831,32 9.9826087,32 Z M61.9826087,20 L50.0173913,20 C48.9032169,20 48,19.0967831 48,17.9826087 L48,14.0173913 C48,12.9032169 48.9032169,12 50.0173913,12 L61.9826087,12 C63.0967831,12 64,12.9032169 64,14.0173913 L64,17.9826087 C64,19.0967831 63.0967831,20 61.9826087,20 Z M61.9826087,32 L58.0173913,32 C56.9032169,32 56,31.0967831 56,29.9826087 L56,26.0173913 C56,24.9032169 56.9032169,24 58.0173913,24 L61.9826087,24 C63.0967831,24 64,24.9032169 64,26.0173913 L64,29.9826087 C64,31.0967831 63.0967831,32 61.9826087,32 Z" id="deepin-virtualkeyboard-d"></path>
                </g>
                <g id="deepin-virtualkeyboard-d-link" fill="#000000">
                    <path d="M58.0173913,0 L61.9826087,0 C63.0967831,0 64,0.9032169 64,2.0173913 L64,5.9826087 C64,7.0967831 63.0967831,8 61.9826087,8 L58.0173913,8 C56.9032169,8 56,7.0967831 56,5.9826087 L56,2.0173913 C56,0.9032169 56.9032169,0 58.0173913,0 Z M46.0173913,0 L49.9826087,0 C51.0967831,0 52,0.9032169 52,2.0173913 L52,5.9826087 C52,7.0967831 51.0967831,8 49.9826087,8 L46.0173913,8 C44.9032169,8 44,7.0967831 44,5.9826087 L44,2.0173913 C44,0.9032169 44.9032169,0 46.0173913,0 Z M34.0173913,0 L37.9826087,0 C39.0967831,0 40,0.9032169 40,2.0173913 L40,5.9826087 C40,7.0967831 39.0967831,8 37.9826087,8 L34.0173913,8 C32.9032169,8 32,7.0967831 32,5.9826087 L32,2.0173913 C32,0.9032169 32.9032169,0 34.0173913,0 Z M44,14.0173913 L44,17.9826087 C44,19.0967831 43.0967831,20 41.9826087,20 L38.0173913,20 C36.9032169,20 36,19.0967831 36,17.9826087 L36,14.0173913 C36,12.9032169 36.9032169,12 38.0173913,12 L41.9826087,12 C43.0967831,12 44,12.9032169 44,14.0173913 Z M22.0173913,0 L25.9826087,0 C27.0967831,0 28,0.9032169 28,2.0173913 L28,5.9826087 C28,7.0967831 27.0967831,8 25.9826087,8 L22.0173913,8 C20.9032169,8 20,7.0967831 20,5.9826087 L20,2.0173913 C20,0.9032169 20.9032169,0 22.0173913,0 Z M32,14.0173913 L32,17.9826087 C32,19.0967831 31.0967831,20 29.9826087,20 L26.0173913,20 C24.9032169,20 24,19.0967831 24,17.9826087 L24,14.0173913 C24,12.9032169 24.9032169,12 26.0173913,12 L29.9826087,12 C31.0967831,12 32,12.9032169 32,14.0173913 Z M2.0173913,0 L13.9826087,0 C15.0967831,0 16,0.9032169 16,2.0173913 L16,5.9826087 C16,7.0967831 15.0967831,8 13.9826087,8 L2.0173913,8 C0.9032169,8 0,7.0967831 0,5.9826087 L0,2.0173913 C0,0.9032169 0.9032169,0 2.0173913,0 Z M2.0173913,12 L17.9826087,12 C19.0967831,12 20,12.9032169 20,14.0173913 L20,17.9826087 C20,19.0967831 19.0967831,20 17.9826087,20 L2.0173913,20 C0.9032169,20 0,19.0967831 0,17.9826087 L0,14.0173913 C0,12.9032169 0.9032169,12 2.0173913,12 Z M49.9826087,32 L18.0173913,32 C16.9032169,32 16,31.0967831 16,29.9826087 L16,26.0173913 C16,24.9032169 16.9032169,24 18.0173913,24 L49.9826087,24 C51.0967831,24 52,24.9032169 52,26.0173913 L52,29.9826087 C52,31.0967831 51.0967831,32 49.9826087,32 Z M9.9826087,32 L2.0173913,32 C0.9032169,32 0,31.0967831 0,29.9826087 L0,26.0173913 C0,24.9032169 0.9032169,24 2.0173913,24 L9.9826087,24 C11.0967831,24 12,24.9032169 12,26.0173913 L12,29.9826087 C12,31.0967831 11.0967831,32 9.9826087,32 Z M61.9826087,20 L50.0173913,20 C48.9032169,20 48,19.0967831 48,17.9826087 L48,14.0173913 C48,12.9032169 48.9032169,12 50.0173913,12 L61.9826087,12 C63.0967831,12 64,12.9032169 64,14.0173913 L64,17.9826087 C64,19.0967831 63.0967831,20 61.9826087,20 Z M61.9826087,32 L58.0173913,32 C56.9032169,32 56,31.0967831 56,29.9826087 L56,26.0173913 C56,24.9032169 56.9032169,24 58.0173913,24 L61.9826087,24 C63.0967831,24 64,24.9032169 64,26.0173913 L64,29.9826087 C64,31.0967831 63.0967831,32 61.9826087,32 Z" id="deepin-virtualkeyboard-d"></path>
                </g>
            </g>
        </g>
        <g id="Guide/128" transform="translate(4, 4)"></g>
    </g>
</svg>