<?xml version="1.0" encoding="UTF-8"?>
<svg width="128px" height="128px" viewBox="0 0 128 128" version="1.1" xmlns="http://www.w3.org/2000/svg" xmlns:xlink="http://www.w3.org/1999/xlink">
    <title>apps/128/uos-service-support</title>
    <defs>
        <filter x="-8.6%" y="-6.9%" width="117.2%" height="117.2%" filterUnits="objectBoundingBox" id="filter-1">
            <feOffset dx="0" dy="2" in="SourceAlpha" result="shadowOffsetOuter1"></feOffset>
            <feGaussianBlur stdDeviation="3" in="shadowOffsetOuter1" result="shadowBlurOuter1"></feGaussianBlur>
            <feColorMatrix values="0 0 0 0 0   0 0 0 0 0   0 0 0 0 0  0 0 0 0.2 0" type="matrix" in="shadowBlurOuter1" result="shadowMatrixOuter1"></feColorMatrix>
            <feMerge>
                <feMergeNode in="shadowMatrixOuter1"></feMergeNode>
                <feMergeNode in="SourceGraphic"></feMergeNode>
            </feMerge>
        </filter>
        <linearGradient x1="25.9664104%" y1="6.40111312%" x2="52.5985931%" y2="82.4699799%" id="linearGradient-2">
            <stop stop-color="#2AA13A" offset="0%"></stop>
            <stop stop-color="#007463" offset="100%"></stop>
        </linearGradient>
        <path d="M58,0 C90.0325155,0 116,25.9674845 116,58 C116,90.0325155 90.0325155,116 58,116 C48.9394308,116 40.3641074,113.922415 32.7244317,110.217647 L15.3844522,112.570096 C14.7402128,112.657554 14.0846724,112.604375 13.4629536,112.41422 C11.0863491,111.687326 9.74899449,109.171443 10.4758884,106.794839 L13.8824946,95.6533347 C5.22654806,85.5210485 0,72.3708871 0,58 C0,25.9674845 25.9674845,0 58,0 Z" id="path-3"></path>
        <filter x="-0.9%" y="-0.9%" width="101.7%" height="101.7%" filterUnits="objectBoundingBox" id="filter-4">
            <feOffset dx="0" dy="2" in="SourceAlpha" result="shadowOffsetInner1"></feOffset>
            <feComposite in="shadowOffsetInner1" in2="SourceAlpha" operator="arithmetic" k2="-1" k3="1" result="shadowInnerInner1"></feComposite>
            <feColorMatrix values="0 0 0 0 1   0 0 0 0 1   0 0 0 0 1  0 0 0 0.202059659 0" type="matrix" in="shadowInnerInner1" result="shadowMatrixInner1"></feColorMatrix>
            <feOffset dx="0" dy="-2" in="SourceAlpha" result="shadowOffsetInner2"></feOffset>
            <feComposite in="shadowOffsetInner2" in2="SourceAlpha" operator="arithmetic" k2="-1" k3="1" result="shadowInnerInner2"></feComposite>
            <feColorMatrix values="0 0 0 0 0   0 0 0 0 0   0 0 0 0 0  0 0 0 0.08 0" type="matrix" in="shadowInnerInner2" result="shadowMatrixInner2"></feColorMatrix>
            <feMerge>
                <feMergeNode in="shadowMatrixInner1"></feMergeNode>
                <feMergeNode in="shadowMatrixInner2"></feMergeNode>
            </feMerge>
        </filter>
        <linearGradient x1="50%" y1="8.93554688%" x2="72.7691616%" y2="83.9006817%" id="linearGradient-5">
            <stop stop-color="#F4F4F4" offset="0%"></stop>
            <stop stop-color="#FFFFFF" stop-opacity="0.667613636" offset="100%"></stop>
        </linearGradient>
        <linearGradient x1="50%" y1="0%" x2="50%" y2="100%" id="linearGradient-6">
            <stop stop-color="#FFFFFF" stop-opacity="0.50161167" offset="0%"></stop>
            <stop stop-color="#FFFFFF" stop-opacity="0.196896853" offset="100%"></stop>
        </linearGradient>
    </defs>
    <g id="apps/128/uos-service-support" stroke="none" stroke-width="1" fill="none" fill-rule="evenodd">
        <g id="编组-2" filter="url(#filter-1)" transform="translate(6, 6)">
            <g id="形状结合">
                <use fill="url(#linearGradient-2)" fill-rule="evenodd" xlink:href="#path-3"></use>
                <use fill="black" fill-opacity="1" filter="url(#filter-4)" xlink:href="#path-3"></use>
            </g>
            <path d="M57.4576271,22.6101695 C74.1803647,22.6101695 87.8554339,35.6013372 88.8565283,51.9997501 L88.8681989,52.2015656 C88.8994337,52.7735255 88.9152542,53.3495689 88.9152542,53.9292912 L88.915,55.6531695 L89,61.7425623 L89,72 L87.6132634,71.9997095 C85.4176409,79.3467697 80.5870585,85.564168 74.2124967,89.5657275 C74.2181637,89.6518098 74.220339,89.7387922 74.220339,89.8262712 C74.220339,92.7444876 71.7996413,95.1101695 68.8135593,95.1101695 C65.8274774,95.1101695 63.4067797,92.7444876 63.4067797,89.8262712 C63.4067797,86.9080547 65.8274774,84.5423729 68.8135593,84.5423729 C70.424472,84.5423729 71.8708398,85.2308617 72.8613711,86.3231678 C78.2427042,82.7866913 82.324781,77.4480191 84.2415305,71.1707437 C82.8907236,70.2757231 82,68.7418814 82,67 L82,57 C82,54.7995368 83.4214579,52.9310729 85.3962297,52.2627523 C84.5328883,37.6487346 72.3542764,26.0626711 57.4576271,26.0626711 C42.5704698,26.0626711 30.3978872,37.6339743 29.518618,52.2356134 C31.5380206,52.8782494 33,54.7683929 33,57 L33,67 C33,69.7614237 30.7614237,72 28,72 L26,72 L26,53.9292912 C26,36.6322179 40.0840594,22.6101695 57.4576271,22.6101695 Z M61.1798627,74.9201121 C61.4590761,74.4821888 62.0356167,74.3350124 62.492795,74.593941 C62.9652125,74.8615005 63.1312828,75.4613705 62.8637233,75.933788 C61.9793703,77.4952498 60.4978786,78.3490486 58.5381392,78.4636992 C56.5456318,78.5802668 54.9097901,77.7321873 53.7435589,75.99789 C53.4405969,75.5473565 53.5602272,74.9365276 54.0107607,74.6335656 C54.4612943,74.3306035 55.0721231,74.4502339 55.3750851,74.9007674 C56.1605564,76.0688383 57.138984,76.5760905 58.4233128,76.5009535 C59.7404095,76.4238994 60.6106576,75.9223665 61.1529479,74.9648694 Z M92,52 C94.7614237,52 97,54.2385763 97,57 L97,67 C97,69.7614237 94.7614237,72 92,72 L90,72 L90,52 L92,52 Z M24,52 L24,72 L22,72 C19.2385763,72 17,69.7614237 17,67 L17,57 C17,54.2385763 19.2385763,52 22,52 L24,52 Z M47.1864407,59.720339 C48.2722887,59.720339 49.1525424,61.2057671 49.1525424,63.0381356 C49.1525424,64.8705041 48.2722887,66.3559322 47.1864407,66.3559322 C46.1005927,66.3559322 45.220339,64.8705041 45.220339,63.0381356 C45.220339,61.2057671 46.1005927,59.720339 47.1864407,59.720339 Z M68.8135593,59.720339 C69.8994073,59.720339 70.779661,61.2057671 70.779661,63.0381356 C70.779661,64.8705041 69.8994073,66.3559322 68.8135593,66.3559322 C67.7277113,66.3559322 66.8474576,64.8705041 66.8474576,63.0381356 C66.8474576,61.2057671 67.7277113,59.720339 68.8135593,59.720339 Z M58,30.3481389 C71.0618794,30.3481389 81.6506248,40.8432539 81.6506248,53.7896343 L81.6507709,56.8317648 C70.6880116,58.1517312 52.7390987,52.2619599 50.2630257,44.0540507 C48.681489,48.3430564 38.7167322,54.8271093 34.3486267,55.7549793 L34.3493752,53.7896343 C34.3493752,40.8432539 44.9381206,30.3481389 58,30.3481389 Z" id="形状结合" fill="url(#linearGradient-5)" fill-rule="nonzero"></path>
            <path d="M57.4576271,22.6101695 C74.1803647,22.6101695 87.8554339,35.6013372 88.8565283,51.9997501 L88.8681989,52.2015656 C88.8994337,52.7735255 88.9152542,53.3495689 88.9152542,53.9292912 L88.915,55.6531695 L89,61.7425623 L89,72 L87.6132634,71.9997095 C85.4176409,79.3467697 80.5870585,85.564168 74.2124967,89.5657275 C74.2181637,89.6518098 74.220339,89.7387922 74.220339,89.8262712 C74.220339,92.7444876 71.7996413,95.1101695 68.8135593,95.1101695 C65.8274774,95.1101695 63.4067797,92.7444876 63.4067797,89.8262712 C63.4067797,86.9080547 65.8274774,84.5423729 68.8135593,84.5423729 C70.424472,84.5423729 71.8708398,85.2308617 72.8613711,86.3231678 C78.2427042,82.7866913 82.324781,77.4480191 84.2415305,71.1707437 C82.8907236,70.2757231 82,68.7418814 82,67 L82,57 C82,54.7995368 83.4214579,52.9310729 85.3962297,52.2627523 C84.5328883,37.6487346 72.3542764,26.0626711 57.4576271,26.0626711 C42.5704698,26.0626711 30.3978872,37.6339743 29.518618,52.2356134 C31.5380206,52.8782494 33,54.7683929 33,57 L33,67 C33,69.7614237 30.7614237,72 28,72 L26,72 L26,53.9292912 C26,36.6322179 40.0840594,22.6101695 57.4576271,22.6101695 Z M57.4576271,23.6101695 C40.6353588,23.6101695 27,37.1854928 27,53.9292912 L27,70.9991695 L28,71 C30.1421954,71 31.8910789,69.3160315 31.9951047,67.1996403 L32,67 L32,57 C32,55.2458998 30.860597,53.7120869 29.215372,53.1885258 L28.4736387,52.9524834 L28.5204261,52.1755052 C29.4352362,36.9836545 42.1039123,25.0626711 57.4576271,25.0626711 C72.8223715,25.0626711 85.4963176,37.0001789 86.3944892,52.2037789 L86.4394829,52.9653999 L85.7167984,53.2099775 C84.1061697,53.7550615 83,55.2717721 83,57 L83,67 C83,68.358774 83.6816201,69.6001675 84.7938712,70.3371253 L85.4158219,70.7492186 L85.1979377,71.4627802 C83.2308877,77.9047874 79.0390398,83.4599709 73.4105676,87.158861 L72.6954377,87.6288264 L72.1205963,86.9949214 C71.2889294,86.0778025 70.0975934,85.5423729 68.8135593,85.5423729 C66.3746821,85.5423729 64.4067797,87.4655503 64.4067797,89.8262712 C64.4067797,92.1869921 66.3746821,94.1101695 68.8135593,94.1101695 C71.2524365,94.1101695 73.220339,92.1869921 73.220339,89.8262712 C73.220339,89.7537861 73.2184903,89.6896507 73.2146566,89.6314177 L73.1754598,89.0360143 L73.6808308,88.7187734 C79.9133007,84.8064104 84.5499807,78.7577033 86.6551328,71.7133782 L86.8684548,70.9995535 L88.0000974,70.9991695 L88.0000974,61.7565196 L87.915,55.653022 L87.9152542,53.9292912 C87.9152542,53.3695687 87.9000287,52.8117067 87.8698667,52.2592971 L87.8583866,52.0606849 C86.8851981,36.1193862 73.5810427,23.6101695 57.4576271,23.6101695 Z M62.492795,74.593941 C62.9652125,74.8615005 63.1312828,75.4613705 62.8637233,75.933788 C61.9793703,77.4952498 60.4978786,78.3490486 58.5381392,78.4636992 C56.5456318,78.5802668 54.9097901,77.7321873 53.7435589,75.99789 C53.4405969,75.5473565 53.5602272,74.9365276 54.0107607,74.6335656 C54.4612943,74.3306035 55.0721231,74.4502339 55.3750851,74.9007674 C56.1605564,76.0688383 57.138984,76.5760905 58.4233128,76.5009535 C59.7404095,76.4238994 60.6106576,75.9223665 61.1529479,74.9648694 L61.1798627,74.9201121 C61.4590761,74.4821888 62.0356167,74.3350124 62.492795,74.593941 Z M24,52 L24,72 L22,72 C19.2385763,72 17,69.7614237 17,67 L17,57 C17,54.2385763 19.2385763,52 22,52 L24,52 Z M92,52 C94.7614237,52 97,54.2385763 97,57 L97,67 C97,69.7614237 94.7614237,72 92,72 L90,72 L90,52 L92,52 Z M92,53 L91,52.9991695 L91,70.9991695 L92,71 C94.209139,71 96,69.209139 96,67 L96,57 C96,54.790861 94.209139,53 92,53 Z M23,52.9991695 L22,53 C19.8578046,53 18.1089211,54.6839685 18.0048953,56.8003597 L18,57 L18,67 C18,69.209139 19.790861,71 22,71 L23,70.9991695 L23,52.9991695 Z M68.8135593,59.720339 C69.8994073,59.720339 70.779661,61.2057671 70.779661,63.0381356 C70.779661,64.8705041 69.8994073,66.3559322 68.8135593,66.3559322 C67.7277113,66.3559322 66.8474576,64.8705041 66.8474576,63.0381356 C66.8474576,61.2057671 67.7277113,59.720339 68.8135593,59.720339 Z M47.1864407,59.720339 C48.2722887,59.720339 49.1525424,61.2057671 49.1525424,63.0381356 C49.1525424,64.8705041 48.2722887,66.3559322 47.1864407,66.3559322 C46.1005927,66.3559322 45.220339,64.8705041 45.220339,63.0381356 C45.220339,61.2057671 46.1005927,59.720339 47.1864407,59.720339 Z M68.8135593,60.720339 C68.4195489,60.720339 67.8474576,61.6857429 67.8474576,63.0381356 C67.8474576,64.3905283 68.4195489,65.3559322 68.8135593,65.3559322 C69.2075698,65.3559322 69.779661,64.3905283 69.779661,63.0381356 C69.779661,61.6857429 69.2075698,60.720339 68.8135593,60.720339 Z M47.1864407,60.720339 C46.7924302,60.720339 46.220339,61.6857429 46.220339,63.0381356 C46.220339,64.3905283 46.7924302,65.3559322 47.1864407,65.3559322 C47.5804511,65.3559322 48.1525424,64.3905283 48.1525424,63.0381356 C48.1525424,61.6857429 47.5804511,60.720339 47.1864407,60.720339 Z M58,30.3481389 C71.0618794,30.3481389 81.6507709,40.8432539 81.6507709,53.7896343 L81.6507709,56.8317648 C70.6880116,58.1517312 52.7390987,52.2619599 50.2630257,44.0540507 C48.681489,48.3430564 38.7167322,54.8271093 34.3486267,55.7549793 L34.3493752,53.7896343 C34.3493752,40.8432539 44.9381206,30.3481389 58,30.3481389 Z M58,31.3481389 C45.4884269,31.3481389 35.349,41.3975366 35.349,53.7900152 L35.349,54.4311695 L35.4009329,54.4146841 C40.155639,52.7496973 47.827457,47.191895 49.2509406,43.8923913 L49.3247804,43.7080801 L50.3579384,40.9062351 L51.2204111,43.765237 C53.3034749,50.6703644 69.0686095,56.8245944 80.4550096,55.9448629 L80.65,55.9281695 L80.6506248,53.7896343 C80.6506248,41.5214575 70.7133402,31.5493611 58.3746277,31.351146 L58,31.3481389 Z" id="形状结合" fill="url(#linearGradient-6)" fill-rule="nonzero"></path>
        </g>
        <g id="Guide-128" transform="translate(4, 4)"></g>
    </g>
</svg>