<svg xmlns="http://www.w3.org/2000/svg" xmlns:xlink="http://www.w3.org/1999/xlink" width="128" height="128" viewBox="0 0 128 128">
  <defs>
    <filter id="uos-downloadmanager128-a" width="127.1%" height="127.1%" x="-13.6%" y="-13.6%" filterUnits="objectBoundingBox">
      <feOffset dy="2" in="SourceAlpha" result="shadowOffsetOuter1"/>
      <feGaussianBlur in="shadowOffsetOuter1" result="shadowBlurOuter1" stdDeviation="3"/>
      <feComposite in="shadowBlurOuter1" in2="SourceAlpha" operator="out" result="shadowBlurOuter1"/>
      <feColorMatrix in="shadowBlurOuter1" result="shadowMatrixOuter1" values="0 0 0 0 0   0 0 0 0 0   0 0 0 0 0  0 0 0 0.2 0"/>
      <feMerge>
        <feMergeNode in="shadowMatrixOuter1"/>
        <feMergeNode in="SourceGraphic"/>
      </feMerge>
    </filter>
    <linearGradient id="uos-downloadmanager128-b" x1="50%" x2="50%" y1="0%" y2="98.139%">
      <stop offset="0%" stop-color="#FFF"/>
      <stop offset="100%" stop-color="#EDEDED"/>
    </linearGradient>
    <filter id="uos-downloadmanager128-c" width="162.8%" height="196.4%" x="-31.4%" y="-48.2%" filterUnits="objectBoundingBox">
      <feOffset dy="2" in="SourceAlpha" result="shadowOffsetOuter1"/>
      <feGaussianBlur in="shadowOffsetOuter1" result="shadowBlurOuter1" stdDeviation="2.5"/>
      <feColorMatrix in="shadowBlurOuter1" result="shadowMatrixOuter1" values="0 0 0 0 0.421978973   0 0 0 0 0.652704643   0 0 0 0 0.875452899  0 0 0 0.5 0"/>
      <feMerge>
        <feMergeNode in="shadowMatrixOuter1"/>
        <feMergeNode in="SourceGraphic"/>
      </feMerge>
    </filter>
    <linearGradient id="uos-downloadmanager128-e" x1="87.73%" x2="38.554%" y1="31.119%" y2="64.665%">
      <stop offset="0%" stop-color="#7871EB"/>
      <stop offset="100%" stop-color="#57E5FF"/>
    </linearGradient>
    <path id="uos-downloadmanager128-d" d="M17.365403,25.7964498 C17.360969,25.7920296 17.3565419,25.7876025 17.3521217,25.7831685 C17.2766865,25.7074977 17.203664,25.6303311 17.1330541,25.5517645 L2.26729713,10.6387106 C-0.0912477161,8.27280112 -0.0912477161,4.44470921 2.26729713,2.07879969 C4.61635825,-0.277596484 8.43088507,-0.283542724 10.7872812,2.06551839 L10.8005625,2.07879969 L10.8005625,2.07879969 L21.6243885,12.9366052 L32.4494375,2.07879969 C34.7984986,-0.277596484 38.6130254,-0.283542724 40.9694216,2.06551839 C40.9738556,2.06993859 40.9782827,2.07436569 40.9827029,2.07879969 C43.3412477,4.44470921 43.3412477,8.27280112 40.9827029,10.6387106 L26.1169459,25.5517645 C26.046336,25.6303311 25.9733135,25.7074977 25.8978783,25.7831685 C24.7534639,26.9311564 23.2612302,27.5212794 21.75923,27.5530106 L21.509549,27.5533804 C20.0074571,27.526332 18.5133909,26.9408642 17.365403,25.7964498 Z"/>
    <radialGradient id="uos-downloadmanager128-f" cx="94.647%" cy="77.513%" r="98.479%" fx="94.647%" fy="77.513%" gradientTransform="scale(-.7957 -1) rotate(23.08 3.675 -5.23)">
      <stop offset="0%" stop-color="#7871EB"/>
      <stop offset="68.65%" stop-color="#65B3F9" stop-opacity=".389"/>
      <stop offset="100%" stop-color="#5CD1FF"/>
    </radialGradient>
    <filter id="uos-downloadmanager128-h" width="155.6%" height="187%" x="-27.8%" y="-43.5%" filterUnits="objectBoundingBox">
      <feOffset dy="4" in="SourceAlpha" result="shadowOffsetOuter1"/>
      <feGaussianBlur in="shadowOffsetOuter1" result="shadowBlurOuter1" stdDeviation="3"/>
      <feColorMatrix in="shadowBlurOuter1" result="shadowMatrixOuter1" values="0 0 0 0 0.419449026   0 0 0 0 0.779397285   0 0 0 0 0.884114583  0 0 0 0.5 0"/>
      <feMerge>
        <feMergeNode in="shadowMatrixOuter1"/>
        <feMergeNode in="SourceGraphic"/>
      </feMerge>
    </filter>
    <linearGradient id="uos-downloadmanager128-j" x1="90.404%" x2="50%" y1="31.328%" y2="70.345%">
      <stop offset="0%" stop-color="#2B86FF"/>
      <stop offset="100%" stop-color="#26F9B9"/>
    </linearGradient>
    <path id="uos-downloadmanager128-i" d="M29.0618763,42.742585 C29.0612396,42.7419485 29.0606029,42.7413118 29.0599663,42.740675 L3.3144644,16.9880768 C-0.513995976,13.1585612 -0.513995976,6.95080878 3.3144644,3.12129315 C7.14156094,-0.706858255 13.3473656,-0.707713396 17.175517,3.11938314 L17.177427,3.12129315 L35.9991191,21.9486201 L54.822573,3.12129315 C58.6496696,-0.706858255 64.8554742,-0.707713396 68.6836256,3.11938314 L68.6855356,3.12129315 C72.513996,6.95080878 72.513996,13.1585612 68.6855356,16.9880768 L42.9400337,42.740675 C41.0264854,44.6547507 38.5182601,45.6120024 36.009903,45.612348 L35.9927982,45.612348 C33.4844411,45.6126937 30.975952,44.6561333 29.0618763,42.742585 Z"/>
    <linearGradient id="uos-downloadmanager128-k" x1="30.234%" x2="116.916%" y1="73.086%" y2="55.092%">
      <stop offset="0%" stop-color="#26F5BB"/>
      <stop offset="100%" stop-color="#2B86FE"/>
    </linearGradient>
  </defs>
  <g fill="none" fill-rule="evenodd" filter="url(#uos-downloadmanager128-a)" transform="translate(5 5)">
    <rect width="118" height="118" fill="url(#uos-downloadmanager128-b)" rx="59"/>
    <g filter="url(#uos-downloadmanager128-c)" transform="translate(37.25 25)">
      <mask id="uos-downloadmanager128-g" fill="#fff">
        <use xlink:href="#uos-downloadmanager128-d"/>
      </mask>
      <use fill="url(#uos-downloadmanager128-e)" xlink:href="#uos-downloadmanager128-d"/>
      <path fill="url(#uos-downloadmanager128-f)" d="M23,11.4653046 C18.4645621,17.6275779 8.9285131,17.2787699 5.43971469,15.1859224 C1.95091629,13.0930749 -0.840122436,4.95422339 -0.142362755,2.62883725 C0.555396926,0.303451107 6.37006093,-4.92866771 11.8358451,0.303451107 C17.3016293,5.53556992 18.9297352,7.62841745 23,11.4653046 Z" mask="url(#uos-downloadmanager128-g)"/>
    </g>
    <g filter="url(#uos-downloadmanager128-h)" transform="translate(23 46)">
      <mask id="uos-downloadmanager128-l" fill="#fff">
        <use xlink:href="#uos-downloadmanager128-i"/>
      </mask>
      <use fill="url(#uos-downloadmanager128-j)" xlink:href="#uos-downloadmanager128-i"/>
      <path fill="url(#uos-downloadmanager128-k)" d="M35.975406,21.9772502 C31.4253212,28.1885623 18.4750799,30.0636754 12.0582936,26.5478384 C5.64150736,23.0320013 -4.04200643,13.4220467 -2.29197382,7.2107346 C-0.541941204,0.999422481 9.95825448,-8.14175385 15.44169,-2.86799827 C20.9251255,2.4057573 38.6587893,15.2971598 35.975406,21.9772502 Z" mask="url(#uos-downloadmanager128-l)"/>
    </g>
  </g>
</svg>
