<svg xmlns="http://www.w3.org/2000/svg" width="128" height="128" viewBox="0 0 128 128">
  <defs>
    <filter id="wps-office-wpsmain-a" width="129.1%" height="129.1%" x="-14.5%" y="-14.5%" filterUnits="objectBoundingBox">
      <feOffset dy="2" in="SourceAlpha" result="shadowOffsetOuter1"/>
      <feGaussianBlur in="shadowOffsetOuter1" result="shadowBlurOuter1" stdDeviation="3"/>
      <feComposite in="shadowBlurOuter1" in2="SourceAlpha" operator="out" result="shadowBlurOuter1"/>
      <feColorMatrix in="shadowBlurOuter1" result="shadowMatrixOuter1" values="0 0 0 0 0   0 0 0 0 0   0 0 0 0 0  0 0 0 0.2 0"/>
      <feMerge>
        <feMergeNode in="shadowMatrixOuter1"/>
        <feMergeNode in="SourceGraphic"/>
      </feMerge>
    </filter>
    <linearGradient id="wps-office-wpsmain-b" x1="50.001%" x2="50.001%" y1=".348%" y2="103.831%">
      <stop offset="0%" stop-color="#4982FF"/>
      <stop offset="100%" stop-color="#5600FF"/>
    </linearGradient>
    <linearGradient id="wps-office-wpsmain-c" x1="50%" x2="50%" y1="0%" y2="100%">
      <stop offset="0%" stop-color="#FFF"/>
      <stop offset="100%" stop-color="#DFD8FF"/>
    </linearGradient>
  </defs>
  <g fill="none" fill-rule="evenodd" filter="url(#wps-office-wpsmain-a)" transform="translate(9 9)">
    <path fill="url(#wps-office-wpsmain-b)" d="M14,0 L79.1098289,0 C82.5968062,3.48865895e-14 85.9582788,1.30126996 88.5363665,3.64913582 L105.426538,19.0310237 C108.339668,21.684013 110,25.441751 110,29.3818879 L110,96 C110,103.731986 103.731986,110 96,110 L14,110 C6.2680135,110 9.46895252e-16,103.731986 0,96 L0,14 C8.29461588e-16,6.2680135 6.2680135,1.42034288e-15 14,0 Z"/>
    <g fill-rule="nonzero" transform="translate(23 24)">
      <path fill="#FFF" d="M14.9841039,38.6372294 L2.73333333,50.888 L2.73333333,50.888 L15.9306667,61.4186667 L23.4693853,53.879948 C28.1556768,49.1936565 35.7536565,49.1936565 40.439948,53.879948 L47.9786667,61.4186667 L47.9786667,61.4186667 L61.176,50.888 L48.9252294,38.6372294 C39.5526464,29.2646464 24.3566869,29.2646464 14.9841039,38.6372294 Z" opacity=".6"/>
      <path fill="url(#wps-office-wpsmain-c)" stroke="#FFF" stroke-opacity=".4" d="M15.5,61.1666667 L15.5,8.66666667 C15.5,4.52453104 12.1421356,1.16666667 8,1.16666667 C3.85786438,1.16666667 0.5,4.52453104 0.5,8.66666667 L0.5,49.6666667 C0.5,56.0179413 5.64872538,61.1666667 12,61.1666667 L15.5,61.1666667 Z M48.5,61.1666667 L52,61.1666667 C58.3512746,61.1666667 63.5,56.0179413 63.5,49.6666667 L63.5,8.66652114 C63.5,4.52438552 60.1421356,1.16652114 56,1.16652114 C51.8578644,1.16652114 48.5,4.52438552 48.5,8.66652114 L48.5,61.1666667 Z"/>
    </g>
  </g>
</svg>
