<?xml version="1.0" encoding="UTF-8"?>
<svg width="96px" height="96px" viewBox="0 0 96 96" version="1.1" xmlns="http://www.w3.org/2000/svg" xmlns:xlink="http://www.w3.org/1999/xlink">
    <title>folder-music</title>
    <defs>
        <filter x="-8.5%" y="-7.0%" width="117.1%" height="119.7%" filterUnits="objectBoundingBox" id="filter-1">
            <feOffset dx="0" dy="2" in="SourceAlpha" result="shadowOffsetOuter1"></feOffset>
            <feGaussianBlur stdDeviation="2" in="shadowOffsetOuter1" result="shadowBlurOuter1"></feGaussianBlur>
            <feColorMatrix values="0 0 0 0 0   0 0 0 0 0   0 0 0 0 0  0 0 0 0.2 0" type="matrix" in="shadowBlurOuter1" result="shadowMatrixOuter1"></feColorMatrix>
            <feMerge>
                <feMergeNode in="shadowMatrixOuter1"></feMergeNode>
                <feMergeNode in="SourceGraphic"></feMergeNode>
            </feMerge>
        </filter>
        <linearGradient x1="50%" y1="0%" x2="50%" y2="26.3530556%" id="linearGradient-2">
            <stop stop-color="#1FB0EA" offset="0%"></stop>
            <stop stop-color="#2C7FE2" offset="100%"></stop>
        </linearGradient>
        <path d="M46,4.5 C47.2162027,7.23645617 49.9298769,9 52.9244289,9 L71.6576577,9 C77.3695756,9 82,13.6304244 82,19.3423423 L82,60.6576577 C82,66.3695756 77.3695756,71 71.6576577,71 L10.3423423,71 C4.63042439,71 -4.37094128e-14,66.3695756 -4.4408921e-14,60.6576577 L-4.26325641e-14,10.3423423 C-4.33320723e-14,4.63042439 4.63042439,-2.55960903e-14 10.3423423,-2.66453526e-14 L39.0755711,-3.37507799e-14 C42.0701231,-3.16411738e-14 44.7837973,1.76354383 46,4.5 Z" id="path-3"></path>
        <linearGradient x1="50%" y1="0%" x2="50%" y2="11.7957837%" id="linearGradient-5">
            <stop stop-color="#FFFFFF" offset="0%"></stop>
            <stop stop-color="#CEF5FF" offset="100%"></stop>
        </linearGradient>
        <rect id="path-6" x="4" y="12" width="74" height="31" rx="6.64864865"></rect>
        <filter x="-4.1%" y="-9.7%" width="108.1%" height="119.4%" filterUnits="objectBoundingBox" id="filter-7">
            <feOffset dx="0" dy="0" in="SourceAlpha" result="shadowOffsetOuter1"></feOffset>
            <feGaussianBlur stdDeviation="1" in="shadowOffsetOuter1" result="shadowBlurOuter1"></feGaussianBlur>
            <feColorMatrix values="0 0 0 0 0   0 0 0 0 0   0 0 0 0 0  0 0 0 0.2 0" type="matrix" in="shadowBlurOuter1"></feColorMatrix>
        </filter>
        <linearGradient x1="56.4262458%" y1="0%" x2="56.4262458%" y2="115.461063%" id="linearGradient-8">
            <stop stop-color="#5CCDF1" offset="0%"></stop>
            <stop stop-color="#1881DC" offset="100%"></stop>
        </linearGradient>
        <linearGradient x1="52.0842145%" y1="4.90831823%" x2="52.0842145%" y2="100%" id="linearGradient-9">
            <stop stop-color="#FFFFFF" offset="0%"></stop>
            <stop stop-color="#FFFFFF" stop-opacity="0.6" offset="100%"></stop>
        </linearGradient>
        <path d="M19,0 C29.4934102,0 38,8.50658975 38,19 C38,29.4934102 29.4934102,38 19,38 C8.50658975,38 0,29.4934102 0,19 C0,8.50658975 8.50658975,0 19,0 Z M19,7 C12.372583,7 7,12.372583 7,19 C7,25.627417 12.372583,31 19,31 C25.627417,31 31,25.627417 31,19 C31,12.372583 25.627417,7 19,7 Z" id="path-10"></path>
        <filter x="-13.2%" y="-10.5%" width="126.3%" height="126.3%" filterUnits="objectBoundingBox" id="filter-11">
            <feOffset dx="0" dy="1" in="SourceAlpha" result="shadowOffsetOuter1"></feOffset>
            <feGaussianBlur stdDeviation="1.5" in="shadowOffsetOuter1" result="shadowBlurOuter1"></feGaussianBlur>
            <feColorMatrix values="0 0 0 0 0   0 0 0 0 0.42745098   0 0 0 0 0.968627451  0 0 0 0.5 0" type="matrix" in="shadowBlurOuter1"></feColorMatrix>
        </filter>
        <linearGradient x1="35.7688031%" y1="0%" x2="18.7697677%" y2="100%" id="linearGradient-12">
            <stop stop-color="#4B20FF" offset="0%"></stop>
            <stop stop-color="#9600F1" offset="100%"></stop>
        </linearGradient>
    </defs>
    <g id="folder-music" stroke="none" stroke-width="1" fill="none" fill-rule="evenodd">
        <g id="folder-96px" transform="translate(7, 18)">
            <g id="Group-2" filter="url(#filter-1)" transform="translate(0, 0)">
                <mask id="mask-4" fill="white">
                    <use xlink:href="#path-3"></use>
                </mask>
                <use id="Mask" fill="url(#linearGradient-2)" xlink:href="#path-3"></use>
                <g id="Rectangle" mask="url(#mask-4)">
                    <use fill="black" fill-opacity="1" filter="url(#filter-7)" xlink:href="#path-6"></use>
                    <use fill="url(#linearGradient-5)" fill-rule="evenodd" xlink:href="#path-6"></use>
                </g>
                <g id="Group" mask="url(#mask-4)" fill="url(#linearGradient-8)">
                    <g transform="translate(0, 17.0104)" id="Rectangle">
                        <path d="M0,0 L82,0 L82,43.647241 C82,49.3591589 77.3695756,53.9895833 71.6576577,53.9895833 L10.3423423,53.9895833 C4.63042439,53.9895833 -1.07684864e-15,49.3591589 -1.77635684e-15,43.647241 L0,0 L0,0 Z"></path>
                    </g>
                </g>
            </g>
        </g>
        <g id="Group-3" transform="translate(29, 42)">
            <g id="Group-2">
                <g id="Combined-Shape">
                    <use fill="black" fill-opacity="1" filter="url(#filter-11)" xlink:href="#path-10"></use>
                    <use fill="url(#linearGradient-9)" fill-rule="evenodd" xlink:href="#path-10"></use>
                </g>
                <circle id="Oval" stroke-opacity="0.15" stroke="#0070DD" cx="19" cy="19" r="17"></circle>
                <circle id="Oval" stroke-opacity="0.15" stroke="#0070DD" cx="19" cy="19" r="15"></circle>
                <circle id="Oval" stroke-opacity="0.15" stroke="#0070DD" cx="19" cy="19" r="13"></circle>
                <circle id="Oval" stroke-opacity="0.15" stroke="#0070DD" cx="19.5" cy="19.5" r="10"></circle>
                <circle id="Oval" stroke-opacity="0.15" stroke="#0070DD" cx="19.5" cy="19.5" r="9"></circle>
                <circle id="Oval" fill="url(#linearGradient-12)" cx="19" cy="19" r="11"></circle>
            </g>
            <path d="M23.9885562,14.4949125 C23.996178,14.555887 24,14.6172766 24,14.6787256 L24,22 C24,23.1045695 23.1045695,24 22,24 C20.8954305,24 20,23.1045695 20,22 C20,20.8954305 20.8954305,20 22,20 C22.364732,20 22.7066608,20.0976323 23.0010775,20.2681881 L23,15.5831274 C23,15.3103081 22.7788363,15.0891444 22.5060169,15.0891444 C22.4788079,15.0891444 22.4516454,15.0913924 22.4248066,15.0958656 L17.4127727,15.9312045 C17.1745801,15.9709033 17,16.1769882 17,16.4184664 L17,24 C17,25.1045695 16.1045695,26 15,26 C13.8954305,26 13,25.1045695 13,24 C13,22.8954305 13.8954305,22 15,22 C15.364732,22 15.7066608,22.0976323 16.0010775,22.2681881 L16,15.3082384 C16,14.5608569 16.5565259,13.9304343 17.298136,13.837733 L22.3342377,13.2082203 C23.1463754,13.1067031 23.887039,13.6827748 23.9885562,14.4949125 Z" id="Combined-Shape" fill="#FFFFFF"></path>
        </g>
    </g>
</svg>