<?xml version="1.0" encoding="UTF-8"?>
<svg width="96px" height="96px" viewBox="0 0 96 96" version="1.1" xmlns="http://www.w3.org/2000/svg" xmlns:xlink="http://www.w3.org/1999/xlink">
    <title>network-server</title>
    <defs>
        <filter x="-8.5%" y="-7.0%" width="117.1%" height="119.7%" filterUnits="objectBoundingBox" id="filter-1">
            <feOffset dx="0" dy="2" in="SourceAlpha" result="shadowOffsetOuter1"></feOffset>
            <feGaussianBlur stdDeviation="2" in="shadowOffsetOuter1" result="shadowBlurOuter1"></feGaussianBlur>
            <feColorMatrix values="0 0 0 0 0   0 0 0 0 0   0 0 0 0 0  0 0 0 0.2 0" type="matrix" in="shadowBlurOuter1" result="shadowMatrixOuter1"></feColorMatrix>
            <feMerge>
                <feMergeNode in="shadowMatrixOuter1"></feMergeNode>
                <feMergeNode in="SourceGraphic"></feMergeNode>
            </feMerge>
        </filter>
        <linearGradient x1="50%" y1="0%" x2="50%" y2="26.3530556%" id="linearGradient-2">
            <stop stop-color="#1FB0EA" offset="0%"></stop>
            <stop stop-color="#2C7FE2" offset="100%"></stop>
        </linearGradient>
        <path d="M46,4.5 C47.2162027,7.23645617 49.9298769,9 52.9244289,9 L71.6576577,9 C77.3695756,9 82,13.6304244 82,19.3423423 L82,60.6576577 C82,66.3695756 77.3695756,71 71.6576577,71 L10.3423423,71 C4.63042439,71 -4.37094128e-14,66.3695756 -4.4408921e-14,60.6576577 L-4.26325641e-14,10.3423423 C-4.33320723e-14,4.63042439 4.63042439,-2.55960903e-14 10.3423423,-2.66453526e-14 L39.0755711,-3.37507799e-14 C42.0701231,-3.16411738e-14 44.7837973,1.76354383 46,4.5 Z" id="path-3"></path>
        <linearGradient x1="50%" y1="0%" x2="50%" y2="11.7957837%" id="linearGradient-5">
            <stop stop-color="#FFFFFF" offset="0%"></stop>
            <stop stop-color="#CEF5FF" offset="100%"></stop>
        </linearGradient>
        <rect id="path-6" x="4" y="12" width="74" height="31" rx="6.64864865"></rect>
        <filter x="-4.1%" y="-9.7%" width="108.1%" height="119.4%" filterUnits="objectBoundingBox" id="filter-7">
            <feOffset dx="0" dy="0" in="SourceAlpha" result="shadowOffsetOuter1"></feOffset>
            <feGaussianBlur stdDeviation="1" in="shadowOffsetOuter1" result="shadowBlurOuter1"></feGaussianBlur>
            <feColorMatrix values="0 0 0 0 0   0 0 0 0 0   0 0 0 0 0  0 0 0 0.2 0" type="matrix" in="shadowBlurOuter1"></feColorMatrix>
        </filter>
        <linearGradient x1="56.4262458%" y1="0%" x2="56.4262458%" y2="115.461063%" id="linearGradient-8">
            <stop stop-color="#5CCDF1" offset="0%"></stop>
            <stop stop-color="#1881DC" offset="100%"></stop>
        </linearGradient>
        <linearGradient x1="52.0842145%" y1="4.90831823%" x2="52.0842145%" y2="100%" id="linearGradient-9">
            <stop stop-color="#FFFFFF" offset="0%"></stop>
            <stop stop-color="#FFFFFF" stop-opacity="0.6" offset="100%"></stop>
        </linearGradient>
        <path d="M16.5,0 C25.6119318,0 33,7.38806819 33,16.5 C33,22.2947122 30.0120473,27.3922431 25.4929528,30.3357819 C25.4059454,30.4165531 25.3045014,30.4811259 25.1935431,30.5263105 C22.669338,32.0943054 19.6903322,33 16.5,33 C14.8323756,33 13.2224915,32.7525392 11.7050693,32.2923393 C11.4963662,32.293852 11.2854216,32.229443 11.1049406,32.0950563 C4.64309628,29.8636621 0,23.7235196 0,16.5 C0,9.80492283 3.98860609,4.04051018 9.71896707,1.45361323 C9.80082998,1.40168881 9.88963175,1.3627212 9.98223865,1.33693982 C11.981636,0.476804273 14.1851914,0 16.5,0 Z M22.6761796,23.1415868 C22.6171239,23.1781159 22.5576392,23.2150765 22.4977388,23.2524656 C20.7112287,24.367583 18.9248567,25.630078 17.2616786,27.0114488 C15.8209313,28.2080772 14.5446901,29.4359255 13.4723178,30.6834879 C14.4493682,30.8908877 15.4619562,31 16.5,31 C19.1852232,31 21.7001069,30.2698653 23.8569269,28.99732 C23.9815604,27.1393247 23.9531248,25.3678102 23.7824168,23.6784593 C23.3708921,23.5842372 22.9944692,23.3976026 22.6761796,23.1415868 Z M9.08083338,16.8723804 C8.71555286,17.0518571 8.30472754,17.1526667 7.8705,17.1526667 C7.58114548,17.1526667 7.30218257,17.1079028 7.04016317,17.0249269 C5.62354433,19.4766834 4.75037237,21.946582 4.30096261,24.2164434 C4.29505852,24.2462635 4.28778874,24.2754987 4.27922766,24.3041001 C5.95009882,26.9180636 8.43856477,28.9602912 11.3835888,30.0713144 C12.6465257,28.4889867 14.2010175,26.9536439 15.9838288,25.4729105 C17.6156748,24.117563 19.3530583,22.8772947 21.0968016,21.7710224 C17.1777716,21.2649832 13.6801333,19.942778 10.5919581,17.9333569 C10.0676559,17.5922028 9.56406804,17.2378926 9.08083338,16.8723804 Z M30.090075,21.5664011 L29.768976,21.6173631 C28.8229734,21.7592647 27.8959276,21.8612429 26.9877282,21.924493 C26.765523,22.5447597 26.3266846,23.0621941 25.7625442,23.385465 C25.9012544,24.7171827 25.9568997,26.0948165 25.9252584,27.5188898 C27.7762541,25.9336142 29.2229039,23.8911235 30.090075,21.5664011 Z M3.22419609,10.6600428 L3.13958968,10.856269 C2.40578986,12.5909891 2,14.4981594 2,16.5 C2,18.2821218 2.32160069,19.9892145 2.90992499,21.5664011 C3.47962749,19.6757537 4.31951082,17.7120363 5.48132334,15.7647153 C5.25173777,15.3630916 5.1205,14.8981121 5.1205,14.4026667 C5.1205,14.0426183 5.18980886,13.6986596 5.31580371,13.3834132 C4.53110803,12.4941182 3.83509251,11.5799049 3.22419609,10.6600428 Z M24.5807733,4.45906406 L24.4813614,4.48383143 C22.5576161,4.9763306 20.7776401,5.59174944 19.1349334,6.32035228 C19.153494,6.4492818 19.1631,6.58109259 19.1631,6.71513333 C19.1631,7.10514105 19.081777,7.4762702 18.9351743,7.81247743 C19.3849224,8.31883588 19.8240278,8.84901035 20.2501001,9.40351323 C22.270453,12.0328589 23.803958,14.9855692 24.765908,18.2721501 C25.7427234,18.4029331 26.5577416,19.0471528 26.9303106,19.9241596 C28.1952663,19.8329002 29.5016493,19.6618887 30.8503392,19.4073479 L30.7029187,19.4340364 C30.8976907,18.4864573 31,17.505163 31,16.5 C31,11.4841717 28.4524217,7.06269031 24.5807733,4.45906406 Z M14.6400662,8.81678829 C12.9296296,9.98964584 11.4211928,11.3223487 10.1022829,12.7962151 C10.4283359,13.2482394 10.6205,13.8031483 10.6205,14.4026667 C10.6205,14.7573753 10.5532317,15.0964681 10.4307645,15.4078754 C10.8179661,15.6947689 11.218963,15.9738164 11.6339275,16.2438264 C14.6248537,18.1899693 18.0348569,19.4405296 21.8971167,19.8530063 C22.1019566,19.4065535 22.422861,19.024281 22.8211239,18.7448947 C21.9270116,15.7290301 20.5150029,13.0247725 18.6612999,10.6123098 C18.2926114,10.132488 17.9132115,9.67209721 17.5249857,9.23081641 C17.1849504,9.38144489 16.8087391,9.46513333 16.4131,9.46513333 C15.7376973,9.46513333 15.1189118,9.22124403 14.6400662,8.81678829 Z M10.2421162,3.41646917 C7.80307226,4.58533485 5.74149809,6.41616657 4.29020796,8.67615006 C4.94855806,9.76983533 5.73763502,10.8681934 6.66409812,11.9310251 C7.02839392,11.7527545 7.43782962,11.6526667 7.8705,11.6526667 C8.06350211,11.6526667 8.25188097,11.6725822 8.4336923,11.7104689 C9.94675489,9.98993617 11.6946616,8.44556514 13.690326,7.10332418 C13.6723815,6.97649427 13.6631,6.84689112 13.6631,6.71513333 C13.6631,6.3790384 13.7234936,6.05696342 13.8340134,5.75917581 C12.4987652,4.72298212 11.1322648,3.8665128 9.79329201,3.17975981 Z M16.5,2 C15.1701464,2 13.8820723,2.17908115 12.6585804,2.51444052 C13.4977349,3.03568312 14.3362737,3.61862497 15.1626135,4.2655586 C15.5378328,4.07350141 15.962888,3.96513333 16.4131,3.96513333 C17.0905571,3.96513333 17.711052,4.21050857 18.1904994,4.61717352 C19.4333298,4.06043808 20.7482909,3.56554883 22.1373064,3.13637402 C20.4053607,2.4050136 18.4999249,2 16.5,2 Z" id="path-10"></path>
        <filter x="-39.4%" y="-33.3%" width="178.8%" height="178.8%" filterUnits="objectBoundingBox" id="filter-11">
            <feOffset dx="0" dy="2" in="SourceAlpha" result="shadowOffsetOuter1"></feOffset>
            <feGaussianBlur stdDeviation="4" in="shadowOffsetOuter1" result="shadowBlurOuter1"></feGaussianBlur>
            <feColorMatrix values="0 0 0 0 0   0 0 0 0 0.42745098   0 0 0 0 0.968627451  0 0 0 0.5 0" type="matrix" in="shadowBlurOuter1"></feColorMatrix>
        </filter>
    </defs>
    <g id="network-server" stroke="none" stroke-width="1" fill="none" fill-rule="evenodd">
        <g id="folder-96px" transform="translate(7, 18)">
            <g id="Group-2" filter="url(#filter-1)" transform="translate(0, 0)">
                <mask id="mask-4" fill="white">
                    <use xlink:href="#path-3"></use>
                </mask>
                <use id="Mask" fill="url(#linearGradient-2)" xlink:href="#path-3"></use>
                <g id="Rectangle" mask="url(#mask-4)">
                    <use fill="black" fill-opacity="1" filter="url(#filter-7)" xlink:href="#path-6"></use>
                    <use fill="url(#linearGradient-5)" fill-rule="evenodd" xlink:href="#path-6"></use>
                </g>
                <g id="Group" mask="url(#mask-4)" fill="url(#linearGradient-8)">
                    <g transform="translate(0, 17.0104)" id="Rectangle">
                        <path d="M0,0 L82,0 L82,43.647241 C82,49.3591589 77.3695756,53.9895833 71.6576577,53.9895833 L10.3423423,53.9895833 C4.63042439,53.9895833 -1.07684864e-15,49.3591589 -1.77635684e-15,43.647241 L0,0 L0,0 Z"></path>
                    </g>
                </g>
            </g>
        </g>
        <g id="形状结合" transform="translate(32, 44)">
            <use fill="black" fill-opacity="1" filter="url(#filter-11)" xlink:href="#path-10"></use>
            <use fill="url(#linearGradient-9)" fill-rule="evenodd" xlink:href="#path-10"></use>
        </g>
    </g>
</svg>