<?xml version="1.0" encoding="UTF-8"?>
<svg width="96px" height="96px" viewBox="0 0 96 96" version="1.1" xmlns="http://www.w3.org/2000/svg" xmlns:xlink="http://www.w3.org/1999/xlink">
    <title>network-workgroup</title>
    <defs>
        <filter x="-8.5%" y="-7.0%" width="117.1%" height="119.7%" filterUnits="objectBoundingBox" id="filter-1">
            <feOffset dx="0" dy="2" in="SourceAlpha" result="shadowOffsetOuter1"></feOffset>
            <feGaussianBlur stdDeviation="2" in="shadowOffsetOuter1" result="shadowBlurOuter1"></feGaussianBlur>
            <feColorMatrix values="0 0 0 0 0   0 0 0 0 0   0 0 0 0 0  0 0 0 0.2 0" type="matrix" in="shadowBlurOuter1" result="shadowMatrixOuter1"></feColorMatrix>
            <feMerge>
                <feMergeNode in="shadowMatrixOuter1"></feMergeNode>
                <feMergeNode in="SourceGraphic"></feMergeNode>
            </feMerge>
        </filter>
        <linearGradient x1="50%" y1="0%" x2="50%" y2="26.3530556%" id="linearGradient-2">
            <stop stop-color="#1FB0EA" offset="0%"></stop>
            <stop stop-color="#2C7FE2" offset="100%"></stop>
        </linearGradient>
        <path d="M46,4.5 C47.2162027,7.23645617 49.9298769,9 52.9244289,9 L71.6576577,9 C77.3695756,9 82,13.6304244 82,19.3423423 L82,60.6576577 C82,66.3695756 77.3695756,71 71.6576577,71 L10.3423423,71 C4.63042439,71 -4.37094128e-14,66.3695756 -4.4408921e-14,60.6576577 L-4.26325641e-14,10.3423423 C-4.33320723e-14,4.63042439 4.63042439,-2.55960903e-14 10.3423423,-2.66453526e-14 L39.0755711,-3.37507799e-14 C42.0701231,-3.16411738e-14 44.7837973,1.76354383 46,4.5 Z" id="path-3"></path>
        <linearGradient x1="50%" y1="0%" x2="50%" y2="11.7957837%" id="linearGradient-5">
            <stop stop-color="#FFFFFF" offset="0%"></stop>
            <stop stop-color="#CEF5FF" offset="100%"></stop>
        </linearGradient>
        <rect id="path-6" x="4" y="12" width="74" height="31" rx="6.64864865"></rect>
        <filter x="-4.1%" y="-9.7%" width="108.1%" height="119.4%" filterUnits="objectBoundingBox" id="filter-7">
            <feOffset dx="0" dy="0" in="SourceAlpha" result="shadowOffsetOuter1"></feOffset>
            <feGaussianBlur stdDeviation="1" in="shadowOffsetOuter1" result="shadowBlurOuter1"></feGaussianBlur>
            <feColorMatrix values="0 0 0 0 0   0 0 0 0 0   0 0 0 0 0  0 0 0 0.2 0" type="matrix" in="shadowBlurOuter1"></feColorMatrix>
        </filter>
        <linearGradient x1="56.4262458%" y1="0%" x2="56.4262458%" y2="115.461063%" id="linearGradient-8">
            <stop stop-color="#5CCDF1" offset="0%"></stop>
            <stop stop-color="#1881DC" offset="100%"></stop>
        </linearGradient>
        <linearGradient x1="52.0842145%" y1="4.90831823%" x2="52.0842145%" y2="100%" id="linearGradient-9">
            <stop stop-color="#FFFFFF" offset="0%"></stop>
            <stop stop-color="#FFFFFF" stop-opacity="0.6" offset="100%"></stop>
        </linearGradient>
        <path d="M48.1841535,48.0619577 C51.8137135,44.6948847 55.3750552,43.1525401 57.7799488,44.4670564 C60.2243959,45.8031927 60.5644434,49.597992 59.2203876,54.3697855 C63.9322828,55.6827541 67,57.8512838 67,60.5 C67,63.1487162 63.9322828,65.3172459 59.2200156,66.6293101 C60.5644434,71.402008 60.2243959,75.1968073 57.7799488,76.5329436 C55.3345034,77.8696255 51.6932808,76.2522884 48.0004937,72.7661623 C44.3073755,76.2519969 40.665717,77.8697459 38.2200512,76.5329436 C35.7756041,75.1968073 35.4355566,71.402008 36.7796124,66.6302145 C32.0677172,65.3172459 29,63.1487162 29,60.5 C29,57.8512838 32.0677172,55.6827541 36.7799844,54.3706899 C35.4355566,49.597992 35.7756041,45.8031927 38.2200512,44.4670564 C40.665717,43.1302541 44.3073755,44.7480031 48.0005047,48.2347803 Z M57.1689019,67.1251279 L57.12894,67.1329381 C55.6407739,67.4400928 54.0319978,67.6712482 52.3369821,67.8173169 C51.3949798,69.0874332 50.4250392,70.2569207 49.4482149,71.305176 C52.4808914,74.2022851 55.2701585,75.6069236 56.7250919,74.8116561 C58.1771904,74.0179382 58.2913619,71.0436393 57.1689019,67.1251279 Z M38.8308549,67.1246153 L38.7797613,67.3067759 C37.7125017,71.1353803 37.8453323,74.0302491 39.2749081,74.8116561 C40.7298415,75.6069236 43.5191086,74.2022851 46.5522869,71.3048514 C45.5749608,70.2569207 44.6050202,69.0874332 43.6632466,67.8168995 C41.9527266,67.6699318 40.3302362,67.4359195 38.8308549,67.1246153 Z M46.4064358,67.9759305 L46.5782169,68.1877497 C47.0511935,68.7649552 47.5264205,69.3121348 47.999947,69.8267262 C48.531094,69.2496325 49.0642739,68.6315535 49.5940199,67.976103 C49.0680443,67.9918984 48.5365596,68 48,68 C47.4634404,68 46.9319557,67.9918984 46.4064358,67.9759305 Z M48,55.0162933 C46.9108693,55.0162933 45.8463379,55.0530206 44.8153473,55.1222499 C44.2139151,55.9689034 43.623914,56.8617485 43.0550167,57.7946274 C42.5014443,58.7023763 41.9925261,59.6075753 41.5290225,60.5009431 C41.9929055,61.3930995 42.5016507,62.297962 43.0550167,63.2053726 C43.623914,64.1382515 44.2139151,65.0310966 44.8162146,65.8781978 C45.8463379,65.9469794 46.9108693,65.9837067 48,65.9837067 C49.0891307,65.9837067 50.1536621,65.9469794 51.1846527,65.8777501 C51.7860849,65.0310966 52.376086,64.1382515 52.9449833,63.2053726 C53.4983493,62.297962 54.0070945,61.3930995 54.4704592,60.5000559 C54.0074739,59.6075753 53.4985557,58.7023763 52.9449833,57.7946274 C52.376086,56.8617485 51.7860849,55.9689034 51.1837854,55.1218022 C50.1536621,55.0530206 49.0891307,55.0162933 48,55.0162933 Z M40.4161966,62.813744 L40.292598,63.0968112 C39.9845167,63.8073946 39.7078733,64.5036968 39.4630951,65.1805015 C40.3070466,65.349676 41.1978884,65.4961586 42.1274069,65.6159252 C41.8241574,65.1537765 41.5245078,64.6805603 41.2301914,64.1979398 C40.9484432,63.7359285 40.6770245,63.2742231 40.4161966,62.813744 Z M55.5834856,62.8140676 L55.4061102,63.1247932 C55.2002943,63.4820394 54.9881533,63.8398977 54.7698086,64.1979398 C54.4754922,64.6805603 54.1758426,65.1537765 53.8716704,65.6168195 C54.8021116,65.4961586 55.6929534,65.349676 56.5370922,65.1802703 C56.2597454,64.4141633 55.9417322,63.622828 55.5834856,62.8140676 Z M37.3979018,56.3042077 L37.1301973,56.3782966 C33.4074209,57.4302085 31.0457604,58.9617051 31.0457604,60.5 C31.0457604,62.074947 33.5213016,63.6427679 37.3986036,64.6960702 C37.8788343,63.3444257 38.4785685,61.9360402 39.1888246,60.4998249 C38.4782897,59.0633049 37.8787225,57.6552601 37.3979018,56.3042077 Z M58.6013964,56.3039298 L58.5246168,56.5195875 C58.0573873,57.8046509 57.4840631,59.1394365 56.8116708,60.4991734 C57.5214315,61.9360402 58.1211657,63.3444257 58.6020982,64.6957923 C62.4786984,63.6427679 64.9542396,62.074947 64.9542396,60.5 C64.9542396,58.925053 62.4786984,57.3572321 58.6013964,56.3039298 Z M42.1283296,55.3831805 L42.1134637,55.3858737 C41.1889791,55.5053072 40.302825,55.6511712 39.4629078,55.8197297 C39.7402546,56.5858367 40.0582678,57.377172 40.4165144,58.1859324 C40.6770245,57.7257769 40.9484432,57.2640715 41.2301914,56.8020602 C41.5245078,56.3194397 41.8241574,55.8462235 42.1283296,55.3831805 Z M53.8725931,55.3840748 L54.0969927,55.7293407 C54.3240519,56.0813754 54.5484388,56.4390577 54.7698086,56.8020602 C55.0515568,57.2640715 55.3229755,57.7257769 55.5838034,58.186256 C55.9417322,57.377172 56.2597454,56.5858367 56.5369049,55.8194985 C55.6929534,55.650324 54.8021116,55.5038414 53.8725931,55.3840748 Z M56.7250919,46.1883439 C55.2701585,45.3930764 52.4808914,46.7977149 49.4477131,49.6951486 C50.4250392,50.7430793 51.3949798,51.9125668 52.3367534,53.1831005 C54.0472734,53.3300682 55.6697638,53.5640805 57.1691451,53.8753847 C58.2913619,49.9563607 58.1771904,46.9820618 56.7250919,46.1883439 Z M46.5522869,49.6951486 C43.5191086,46.7977149 40.7298415,45.3930764 39.2749081,46.1883439 C37.8228096,46.9820618 37.7086381,49.9563607 38.8310981,53.8748721 C40.3302362,53.5640805 41.9527266,53.3300682 43.6630179,53.1826831 C44.5726435,51.9562457 45.5083041,50.8236089 46.4510654,49.803365 Z M48.000053,51.1732738 L47.7919605,51.4012776 C47.3298131,51.9123125 46.8665985,52.4539775 46.4059801,53.023897 C46.9319557,53.0081016 47.4634404,53 48,53 C48.5365596,53 49.0680443,53.0081016 49.5935642,53.0240695 C49.0642739,52.3684465 48.531094,51.7503675 48.000053,51.1732738 Z" id="path-10"></path>
        <filter x="-34.2%" y="-33.3%" width="168.4%" height="178.8%" filterUnits="objectBoundingBox" id="filter-11">
            <feOffset dx="0" dy="2" in="SourceAlpha" result="shadowOffsetOuter1"></feOffset>
            <feGaussianBlur stdDeviation="4" in="shadowOffsetOuter1" result="shadowBlurOuter1"></feGaussianBlur>
            <feColorMatrix values="0 0 0 0 0   0 0 0 0 0.42745098   0 0 0 0 0.968627451  0 0 0 0.5 0" type="matrix" in="shadowBlurOuter1"></feColorMatrix>
        </filter>
    </defs>
    <g id="network-workgroup" stroke="none" stroke-width="1" fill="none" fill-rule="evenodd">
        <g id="folder-96px" transform="translate(7, 18)">
            <g id="Group-2" filter="url(#filter-1)" transform="translate(0, 0)">
                <mask id="mask-4" fill="white">
                    <use xlink:href="#path-3"></use>
                </mask>
                <use id="Mask" fill="url(#linearGradient-2)" xlink:href="#path-3"></use>
                <g id="Rectangle" mask="url(#mask-4)">
                    <use fill="black" fill-opacity="1" filter="url(#filter-7)" xlink:href="#path-6"></use>
                    <use fill="url(#linearGradient-5)" fill-rule="evenodd" xlink:href="#path-6"></use>
                </g>
                <g id="Group" mask="url(#mask-4)" fill="url(#linearGradient-8)">
                    <g transform="translate(0, 17.0104)" id="Rectangle">
                        <path d="M0,0 L82,0 L82,43.647241 C82,49.3591589 77.3695756,53.9895833 71.6576577,53.9895833 L10.3423423,53.9895833 C4.63042439,53.9895833 -1.07684864e-15,49.3591589 -1.77635684e-15,43.647241 L0,0 L0,0 Z"></path>
                    </g>
                </g>
            </g>
        </g>
        <g id="形状结合">
            <use fill="black" fill-opacity="1" filter="url(#filter-11)" xlink:href="#path-10"></use>
            <use fill="url(#linearGradient-9)" fill-rule="evenodd" xlink:href="#path-10"></use>
        </g>
    </g>
</svg>