<?xml version="1.0" encoding="UTF-8"?>
<svg width="96px" height="96px" viewBox="0 0 96 96" version="1.1" xmlns="http://www.w3.org/2000/svg" xmlns:xlink="http://www.w3.org/1999/xlink">
    <title>places/96/user-trash</title>
    <defs>
        <filter x="-8.1%" y="-6.2%" width="116.1%" height="117.5%" filterUnits="objectBoundingBox" id="filter-1">
            <feOffset dx="0" dy="2" in="SourceAlpha" result="shadowOffsetOuter1"></feOffset>
            <feGaussianBlur stdDeviation="2" in="shadowOffsetOuter1" result="shadowBlurOuter1"></feGaussianBlur>
            <feColorMatrix values="0 0 0 0 0   0 0 0 0 0   0 0 0 0 0  0 0 0 0.2 0" type="matrix" in="shadowBlurOuter1" result="shadowMatrixOuter1"></feColorMatrix>
            <feMerge>
                <feMergeNode in="shadowMatrixOuter1"></feMergeNode>
                <feMergeNode in="SourceGraphic"></feMergeNode>
            </feMerge>
        </filter>
        <radialGradient cx="50%" cy="33.5196055%" fx="50%" fy="33.5196055%" r="66.4803945%" id="radialGradient-2">
            <stop stop-color="#B8C6E3" stop-opacity="0.798295455" offset="0%"></stop>
            <stop stop-color="#BCC9E5" stop-opacity="0.808877585" offset="17.6611632%"></stop>
            <stop stop-color="#BFCAE5" stop-opacity="0.814572356" offset="29.8956866%"></stop>
            <stop stop-color="#E8EBF2" stop-opacity="0.921209162" offset="100%"></stop>
        </radialGradient>
        <path d="M3.78739877,0 L76.2126012,1.77635684e-15 C78.0002598,-6.49082936e-15 79.4494433,1.44918357 79.4494433,3.23684211 C79.4494433,3.4057179 79.4362272,3.57433473 79.4099161,3.74114827 L69.1057477,69.0698562 C68.1130005,75.3639006 62.6883438,80 56.3164884,80 L23.6835116,80 C17.3116562,80 11.8869995,75.3639006 10.8942523,69.0698562 L0.590083944,3.74114827 C0.311563339,1.97532005 1.51726439,0.318047883 3.2830926,0.039527278 C3.44990614,0.0132161071 3.61852297,2.69555724e-15 3.78739877,2.66453526e-15 Z" id="path-3"></path>
        <filter x="-1.8%" y="-2.5%" width="103.6%" height="105.0%" filterUnits="objectBoundingBox" id="filter-5">
            <feGaussianBlur stdDeviation="1" in="SourceAlpha" result="shadowBlurInner1"></feGaussianBlur>
            <feOffset dx="0" dy="2" in="shadowBlurInner1" result="shadowOffsetInner1"></feOffset>
            <feComposite in="shadowOffsetInner1" in2="SourceAlpha" operator="arithmetic" k2="-1" k3="1" result="shadowInnerInner1"></feComposite>
            <feColorMatrix values="0 0 0 0 1   0 0 0 0 1   0 0 0 0 1  0 0 0 0.6 0" type="matrix" in="shadowInnerInner1"></feColorMatrix>
        </filter>
        <linearGradient x1="98.9653716%" y1="50%" x2="0%" y2="50%" id="linearGradient-6">
            <stop stop-color="#9BAF03" offset="0%"></stop>
            <stop stop-color="#4F6A00" offset="45.3652872%"></stop>
            <stop stop-color="#A7BB00" offset="100%"></stop>
        </linearGradient>
    </defs>
    <g id="places/96/user-trash" stroke="none" stroke-width="1" fill="none" fill-rule="evenodd">
        <g id="编组" filter="url(#filter-1)" transform="translate(8, 8)">
            <mask id="mask-4" fill="white">
                <use xlink:href="#path-3"></use>
            </mask>
            <g id="蒙版">
                <use fill="url(#radialGradient-2)" fill-rule="evenodd" xlink:href="#path-3"></use>
                <use fill="black" fill-opacity="1" filter="url(#filter-5)" xlink:href="#path-3"></use>
            </g>
        </g>
        <path d="M48.8393075,35.1433489 C44.3111357,26.0280516 39.547867,33.3681598 39.547867,33.3681598 L35.9362327,39.6145652 L43.3707479,43.8530787 L48.8393075,35.1433489 Z M64.9178947,32.3509165 L60.9110249,34.5649165 L59.4425208,32.0351057 C59.4425208,32.0351057 58.3079224,29.4022408 52.7098892,29.6781598 C52.7098892,29.6781598 45.7728255,29.8676462 45.0504986,29.7379976 C45.0504986,29.7379976 47.0164543,30.1169706 47.9943213,31.6029435 L52.4236842,39.2488895 L49.1868421,41.0307273 L60.0490028,41.2601057 L64.9178947,32.3509165 Z M38.2940166,54.3978354 C32.6755402,62.9047814 41.5819668,63.0676733 41.5819668,63.0676733 L48.9176731,62.8316462 L48.7711634,54.4310787 L38.2940166,54.3978354 Z M27.5,42.4502138 L31.5204986,44.6376192 L30.0622161,47.1740787 C30.0622161,47.1740787 28.3518006,49.494457 31.5034626,54.0088895 C31.5034626,54.0088895 35.2820499,59.7001327 35.5341828,60.3683219 C35.5341828,60.3683219 34.8425208,58.5332949 35.6363989,56.9442679 L40.0316898,49.278376 L43.2787535,51.0435922 L37.8306371,41.8751057 L27.5,42.4502138 Z M61.3914404,53.1246192 C71.745928,53.7628895 67.5448476,46.1036462 67.5448476,46.1036462 L63.7526316,39.9636192 L56.3113019,44.1921598 L61.3914404,53.1246192 Z M50.4100277,59.6303219 L55.9637673,50.5183489 L55.9637673,54.1518354 L64.9621884,54.1518354 C66.7714127,54.0521057 68.0763712,52.5661327 68.0763712,52.5661327 C67.6027701,53.1046733 64.3522992,59.1017543 64.3522992,59.1017543 C61.8514127,63.9885111 58.941662,63.6627273 58.941662,63.6627273 L55.9637673,63.6627273 L55.9637673,68.1505652 L50.4100277,59.6303219 Z" id="Fill-1" fill="url(#linearGradient-6)"></path>
        <g id="Guide/96" transform="translate(3, 3)"></g>
    </g>
</svg>