<?xml version="1.0" encoding="UTF-8"?>
<svg width="16px" height="16px" viewBox="0 0 16 16" version="1.1" xmlns="http://www.w3.org/2000/svg" xmlns:xlink="http://www.w3.org/1999/xlink">
    <title>airplanemode-on</title>
    <g id="airplanemode-on" stroke="none" stroke-width="1" fill="none" fill-rule="evenodd">
        <path d="M6.38622594,1.70192237 L9.23066667,7.2 L13.1775701,7.17137326 C13.5993598,7.16831403 14.0113187,7.29868702 14.354552,7.54385371 L14.7653115,7.8372533 C14.855194,7.9014551 14.8760123,8.02636512 14.8118105,8.11624764 C14.7989826,8.13420675 14.7832706,8.14991877 14.7653115,8.1627467 L14.354552,8.45614629 C14.0113187,8.70131298 13.5993598,8.83168597 13.1775701,8.82862674 L9.23066667,8.8 L6.38622594,14.2980776 C6.26948447,14.5237296 6.03463565,14.6634122 5.78062583,14.6582744 L5.06348983,14.6437691 C4.87943256,14.6400462 4.73324264,14.4878203 4.73696552,14.3037631 L4.73880584,14.2748853 L5.83877551,8.66666667 L3.18796001,8.66666667 L1.48523605,10.7533382 C1.39212457,10.8674454 1.22414064,10.8844658 1.11003344,10.7913543 C1.04796978,10.7407104 1.01196001,10.6648493 1.01196001,10.5847449 L1.01196001,5.43842975 C1.01196001,5.29115382 1.13135075,5.17176308 1.27862668,5.17176308 C1.3605121,5.17176308 1.43785765,5.20938427 1.48840981,5.27380244 L3.10462668,7.33333333 L5.83866667,7.33266667 L4.74314538,1.75372516 C4.70767262,1.57308014 4.82535799,1.39788207 5.006003,1.36240931 L5.06349126,1.35623087 L5.78062583,1.3417256 C6.03463565,1.33658781 6.26948447,1.47627039 6.38622594,1.70192237 Z" id="路径" fill="#FFFFFF" fill-rule="nonzero"></path>
    </g>
</svg>