<?xml version="1.0" encoding="UTF-8"?>
<svg width="16px" height="16px" viewBox="0 0 16 16" version="1.1" xmlns="http://www.w3.org/2000/svg" xmlns:xlink="http://www.w3.org/1999/xlink">
    <title>battery-040-plugged-symbolic-dark</title>
    <g id="battery-040-plugged-symbolic-dark" stroke="none" stroke-width="1" fill="none" fill-rule="evenodd">
        <path d="M2,5 L5.432,4.99987656 L3.55699953,10 L7,10 L7,10.9998766 L2,11 L2,5 Z M8,4.99987656 L8,7 L9,6.99987656 L9,11 L8,10.9998766 L8,9 L5,9 L6.5,4.99987656 L8,4.99987656 Z" id="形状" fill="#000000"></path>
        <path d="M8,1 L8,7 L11,7 L8,15 L8,9 L5,9 L8,1 Z M6.182,2.99971583 L5.807,3.99971583 L2,4 C1.44771525,4 1,4.44771525 1,5 L1,11 C1,11.5522847 1.44771525,12 2,12 L6.999,11.9997158 L6.999,12.9997158 L2,13 C0.8954305,13 0,12.1045695 0,11 L0,5 C0,3.8954305 0.8954305,3 2,3 L6.182,2.99971583 Z M8.999,2.99971583 L13,3 C14.1045695,3 15,3.8954305 15,5 L15,6 L16,6 L16,10 L15,10 L15,11 C15,12.1045695 14.1045695,13 13,13 L9.818,12.9997158 L10.193,11.9997158 L13,12 C13.5522847,12 14,11.5522847 14,11 L14,5 C14,4.44771525 13.5522847,4 13,4 L8.999,3.99971583 L8.999,2.99971583 Z" id="形状" fill="#000000" fill-rule="nonzero"></path>
    </g>
</svg>