<?xml version="1.0" encoding="UTF-8"?>
<svg width="16px" height="16px" viewBox="0 0 16 16" version="1.1" xmlns="http://www.w3.org/2000/svg" xmlns:xlink="http://www.w3.org/1999/xlink">
    <title>bluetooth-disable-symbolic-dark</title>
    <g id="bluetooth-disable-symbolic-dark" stroke="none" stroke-width="1" fill="none" fill-rule="evenodd">
        <path d="M2.36444556,4.43599631 L3.17567518,5.18149927 C3.0611398,5.60155675 3,6.04363839 3,6.5 L3,9.5 C3,12.2614237 5.23857625,14.5 8,14.5 C9.42700106,14.5 10.7143789,13.9022021 11.625366,12.943374 L12.3623117,13.619517 C11.2684545,14.7774314 9.71860973,15.5 8,15.5 C4.6862915,15.5 2,12.8137085 2,9.5 L2,6.5 C2,5.77474971 2.12867683,5.0795535 2.36444556,4.43599631 Z M1.93272029,1.32405154 L15.1781304,13.4909202 C15.3814967,13.6777269 15.394921,13.9940246 15.2081142,14.1973909 C15.0213075,14.4007573 14.7050098,14.4141815 14.5016435,14.2273748 L1.25623336,2.06050618 C1.05286703,1.87369947 1.0394428,1.55740173 1.22624951,1.35403539 C1.41305622,1.15066906 1.72935396,1.13724483 1.93272029,1.32405154 Z M6.704,8.422 L8.001,9.613 L8.00114758,12.029073 L9.531,11.018 L10.29,11.715 L7.77733208,13.3771056 C7.44493313,13.5968901 7.00156045,13.3585225 7.00156045,12.9600325 L7.00114758,9.43707297 L4.93831371,10.9080452 C4.73841614,11.0504935 4.46951538,11.0249239 4.29967578,10.8595394 L4.24095768,10.7910215 C4.08070335,10.5661367 4.13309668,10.2539198 4.35798145,10.0936654 L6.704,8.422 Z M8,0.5 C11.3137085,0.5 14,3.1862915 14,6.5 L14,9.5 C14,9.98199396 13.9431661,10.4507136 13.8358341,10.8998231 L12.964534,10.0986272 C12.9879522,9.90235029 13,9.7025821 13,9.5 L13,6.5 C13,3.73857625 10.7614237,1.5 8,1.5 C6.79841501,1.5 5.69582608,1.92385252 4.83358879,2.63020199 L4.09029766,1.94857275 C5.14040868,1.04569247 6.50647769,0.5 8,0.5 Z M7.78295231,2.62277088 L11.6807908,5.27656829 C11.9685082,5.47245727 11.9730275,5.89506316 11.6895651,6.09706029 L9.953,7.334 L9.2,6.642 L10.5241476,5.69907297 L8.00114758,3.98107297 L8.001,5.54 L7.001,4.622 L7.00156045,3.03607297 C7.00156045,2.63451463 7.45102251,2.39678038 7.78295231,2.62277088 Z" id="形状" fill="#000000" fill-rule="nonzero"></path>
    </g>
</svg>