<?xml version="1.0" encoding="UTF-8"?>
<svg width="16px" height="16px" viewBox="0 0 16 16" version="1.1" xmlns="http://www.w3.org/2000/svg" xmlns:xlink="http://www.w3.org/1999/xlink">
    <title>deepin-home</title>
    <g id="deepin-home" stroke="none" stroke-width="1" fill="none" fill-rule="evenodd">
        <path d="M12.8,1 C14.0150264,1 15,1.98497357 15,3.20000005 L15,12.8 C15,14.0150264 14.0150264,15 12.8,15 L3.20000005,15 C1.98497357,15 1,14.0150264 1,12.8 L1,3.20000005 C1,1.98497357 1.98497357,1 3.20000005,1 L12.8,1 Z M12.8,2 L3.20000005,2 C2.53725832,2 2,2.53725832 2,3.20000005 L2,12.8 C2,13.4627417 2.53725832,14 3.20000005,14 L12.8,14 C13.4627417,14 14,13.4627417 14,12.8 L14,3.20000005 C14,2.53725832 13.4627417,2 12.8,2 Z M10.25,4 C10.6642136,4 11,4.33578644 11,4.75 L11,5.994 L12.25,5.99423825 C12.6641577,5.99446015 12.999857,6.33022346 13,6.7443812 L13,11.7870348 C13,11.9527202 12.8656854,12.0870348 12.7,12.0870348 C12.6200986,12.0870348 12.5434984,12.0551607 12.4871827,11.9984794 L11.6417845,11.1475924 C11.547925,11.0531236 11.4202579,11 11.2870889,11 L6.501001,11 C6.22485863,11 6.001001,10.7761424 6.001001,10.5 L6.002,10 L4.70217027,10 C4.5703731,10 4.44390621,10.0520378 4.3502762,10.144795 L3.51113644,10.9761131 C3.39343188,11.0927206 3.20348446,11.0918312 3.08687703,10.9741266 C3.03122265,10.9179486 3,10.8420685 3,10.7629902 L3,4.75 C3,4.33578644 3.33578644,4 3.75,4 L10.25,4 Z M11,5.9943812 L6.51092014,5.9943812 C6.23521881,5.9943812 6.0115443,6.21755093 6.01092141,6.49325155 L6.003,9.9993812 L10.5,9.99993814 C10.7454599,10.0000235 10.9496303,9.82317975 10.9919951,9.58993647 L11.0000619,9.50006192 L11,5.9943812 Z M10,7 L10,9 L9,9 L9,8 L8,8 L8,7 L10,7 Z" id="形状" fill="#FFFFFF" fill-rule="nonzero"></path>
    </g>
</svg>