<?xml version="1.0" encoding="UTF-8"?>
<svg width="16px" height="16px" viewBox="0 0 16 16" version="1.1" xmlns="http://www.w3.org/2000/svg" xmlns:xlink="http://www.w3.org/1999/xlink">
    <title>display-brightness-control-dark</title>
    <g id="display-brightness-control-dark" stroke="none" stroke-width="1" fill="none" fill-rule="evenodd">
        <path d="M7.51165812,13.5 C7.7878005,13.5 8.01165812,13.7238576 8.01165812,14 L8.01165812,15 C8.01165812,15.2761424 7.7878005,15.5 7.51165812,15.5 C7.23551575,15.5 7.01165812,15.2761424 7.01165812,15 L7.01165812,14 C7.01165812,13.7238576 7.23551575,13.5 7.51165812,13.5 Z M12.4674477,12 L13.1745545,12.7071068 C13.3698166,12.9023689 13.3698166,13.2189514 13.1745545,13.4142136 C12.9792923,13.6094757 12.6627099,13.6094757 12.4674477,13.4142136 L11.7603409,12.7071068 C11.5650788,12.5118446 11.5650788,12.1952621 11.7603409,12 C11.9556031,11.8047379 12.2721856,11.8047379 12.4674477,12 Z M3.68395766,11.4961502 C3.8792198,11.6914123 3.8792198,12.0079948 3.68395766,12.2032569 L2.97685088,12.9103637 C2.78158873,13.1056259 2.46500624,13.1056259 2.26974409,12.9103637 C2.07448195,12.7151016 2.07448195,12.3985191 2.26974409,12.2032569 L2.97685088,11.4961502 C3.17211302,11.300888 3.48869551,11.300888 3.68395766,11.4961502 Z M8,3.5 C10.4852696,3.5 12.5,5.51473035 12.5,8 C12.5,10.4852696 10.4852696,12.5 8,12.5 C5.51473035,12.5 3.5,10.4852696 3.5,8 C3.5,5.51473035 5.51473035,3.5 8,3.5 Z M8,4.5 C6.0670151,4.5 4.5,6.0670151 4.5,8 C4.5,9.9329849 6.0670151,11.5 8,11.5 C9.9329849,11.5 11.5,9.9329849 11.5,8 C11.5,6.0670151 9.9329849,4.5 8,4.5 Z M8,5.4988107 L8,10.500001 C6.67389308,10.5011893 5.58881538,9.46915589 5.50413094,8.16445307 L5.4988107,8 C5.4988107,6.61863862 6.61863862,5.4988107 8,5.4988107 Z M2,6.98911426 C2.27614237,6.98911426 2.5,7.21297188 2.5,7.48911426 C2.5,7.76525663 2.27614237,7.98911426 2,7.98911426 L1,7.98911426 C0.723857625,7.98911426 0.5,7.76525663 0.5,7.48911426 C0.5,7.21297188 0.723857625,6.98911426 1,6.98911426 L2,6.98911426 Z M3.20535855,2.93933983 L3.91246533,3.64644661 C4.10772747,3.84170876 4.10772747,4.15829124 3.91246533,4.35355339 C3.71720318,4.54881554 3.40062069,4.54881554 3.20535855,4.35355339 L2.49825177,3.64644661 C2.30298962,3.45118446 2.30298962,3.13460197 2.49825177,2.93933983 C2.69351391,2.74407768 3.0100964,2.74407768 3.20535855,2.93933983 Z M13.1745545,2.58578644 C13.3698166,2.78104858 13.3698166,3.09763107 13.1745545,3.29289322 L12.4674477,4 C12.2721856,4.19526215 11.9556031,4.19526215 11.7603409,4 C11.5650788,3.80473785 11.5650788,3.48815536 11.7603409,3.29289322 L12.4674477,2.58578644 C12.6627099,2.39052429 12.9792923,2.39052429 13.1745545,2.58578644 Z M7.52464383,0.5 C7.80078621,0.5 8.02464383,0.723857625 8.02464383,1 L8.02464383,2 C8.02464383,2.27614237 7.80078621,2.5 7.52464383,2.5 C7.24850146,2.5 7.02464383,2.27614237 7.02464383,2 L7.02464383,1 C7.02464383,0.723857625 7.24850146,0.5 7.52464383,0.5 Z M15.4787068,7.49849243 C15.4787068,7.7746348 15.2548492,7.99849243 14.9787068,7.99849243 L13.9787068,7.99849243 C13.7025645,7.99849243 13.4787068,7.7746348 13.4787068,7.49849243 C13.4787068,7.22235005 13.7025645,6.99849243 13.9787068,6.99849243 L14.9787068,6.99849243 C15.2548492,6.99849243 15.4787068,7.22235005 15.4787068,7.49849243 Z" id="形状" fill="#000000" fill-rule="nonzero"></path>
    </g>
</svg>