<?xml version="1.0" encoding="UTF-8"?>
<svg width="16px" height="16px" viewBox="0 0 16 16" version="1.1" xmlns="http://www.w3.org/2000/svg" xmlns:xlink="http://www.w3.org/1999/xlink">
    <title>drive-removable-dock-symbolic-dark</title>
    <g id="drive-removable-dock-symbolic-dark" stroke="none" stroke-width="1" fill="none" fill-rule="evenodd">
        <path d="M7.44606572,0.549196004 C7.55105448,0.468286037 7.70175517,0.487805756 7.78266514,0.592794516 L9.91589877,3.36087815 C9.96982317,3.43085044 9.99906716,3.51670554 9.99906716,3.60504557 C9.99906716,3.82595947 9.81998106,4.00504557 9.59906716,4.00504557 L8,4.00428318 L8.001,10.2932832 L10.7755394,8.93929605 C10.9128883,8.8722162 11,8.73272585 11,8.57987162 L10.999,7.99928318 L10.4,8 C10.2067003,8 10.0454251,7.8628872 10.0081266,7.68061395 L10,7.59999999 L10,5.40000001 C10,5.1790861 10.1790861,5 10.4,5 L12.6,5 C12.8209139,5 13,5.1790861 13,5.40000001 L13,7.59999999 C13,7.8209139 12.8209139,8 12.6,8 L11.999,7.99928318 L12,9.0992844 C12,9.22699657 11.9391918,9.3453529 11.8391223,9.41995724 L11.7745416,9.45919444 L8.001,11.2882832 L8.00112365,12.3768185 C8.63879249,12.5871794 9.1,13.1877142 9.1,13.897604 C9.1,14.7811709 8.38221444,15.4965849 7.49949093,15.4965849 C6.61473115,15.4965849 5.9,14.7811709 5.9,13.897604 C5.9,13.1866044 6.36068194,12.585302 7.00017696,12.3758348 L7,11.8592832 L4.19025746,10.1173139 C4.07258721,10.0443745 4.0009995,9.91577472 4.0009995,9.77733182 L4.0009995,9 C2.89555222,9 2,8.10444778 2,6.9990005 C2,5.89155422 2.89555222,5 4.0009995,5 C5.10244878,5 6.001999,5.89155422 6.001999,6.9990005 C6.001999,7.73931519 5.59855609,8.3854932 5.00121336,8.73159391 L5,9.39515329 C5,9.53607757 5.0741565,9.66660433 5.19521063,9.73875381 L7,10.8142832 L7,4.00428318 L5.40984969,4.00504557 C5.33960572,4.00504557 5.27103212,3.98655882 5.2107969,3.95200177 L5.1535881,3.91217746 C4.98396384,3.77064809 4.96118844,3.51840823 5.10271781,3.34878398 L7.40828704,0.585538012 L7.44606572,0.549196004 Z" id="路径" fill="#000000"></path>
    </g>
</svg>