<?xml version="1.0" encoding="UTF-8"?>
<svg width="16px" height="16px" viewBox="0 0 16 16" version="1.1" xmlns="http://www.w3.org/2000/svg" xmlns:xlink="http://www.w3.org/1999/xlink">
    <title>fcitx-chn-dark</title>
    <g id="fcitx-chn-dark" stroke="none" stroke-width="1" fill="none" fill-rule="evenodd">
        <path d="M12.8,1 C14.0150264,1 15,1.98497357 15,3.20000005 L15,12.8 C15,14.0150264 14.0150264,15 12.8,15 L3.20000005,15 C1.98497357,15 1,14.0150264 1,12.8 L1,3.20000005 C1,1.98497357 1.98497357,1 3.20000005,1 L12.8,1 Z M3.20000005,2 C2.53725832,2 2,2.53725832 2,3.20000005 L2,12.8 C2,13.4627417 2.53725832,14 3.20000005,14 L7,14 L7,10 L4,10 L4,11 L3,11 L3,4 L7,4 L7,2 L3.20000005,2 Z M7,5 L4,5 L4,9 L7,9 L7,5 Z M12,5 L8,5 L8,9 L12,9 L12,5 Z M12.8,14 C13.4627417,14 14,13.4627417 14,12.8 L14,3.20000005 C14,2.53725832 13.4627417,2 12.8,2 L8,2 L8,4 L13,4 L13,11 L12,11 L12,10 L8,10 L8,14 L12.8,14 Z" id="形状" fill="#000000"></path>
    </g>
</svg>