<?xml version="1.0" encoding="UTF-8"?>
<svg width="16px" height="16px" viewBox="0 0 16 16" version="1.1" xmlns="http://www.w3.org/2000/svg" xmlns:xlink="http://www.w3.org/1999/xlink">
    <title>fcitx-googlepinyin-dark</title>
    <g id="fcitx-googlepinyin-dark" stroke="none" stroke-width="1" fill="none" fill-rule="evenodd">
        <path d="M12.8,1 C14.0150264,1 15,1.98497357 15,3.20000005 L15,12.8 C15,14.0150264 14.0150264,15 12.8,15 L3.20000005,15 C1.98497357,15 1,14.0150264 1,12.8 L1,3.20000005 C1,1.98497357 1.98497357,1 3.20000005,1 L12.8,1 Z M12.8,2 L3.20000005,2 C2.53725832,2 2,2.53725832 2,3.20000005 L2,12.8 C2,13.4627417 2.53725832,14 3.20000005,14 L12.8,14 C13.4627417,14 14,13.4627417 14,12.8 L14,3.20000005 C14,2.53725832 13.4627417,2 12.8,2 Z M7.91187686,2.99276873 C9.08975277,2.97138094 10.2760018,3.36282309 11.2325368,4.16946149 L10.0575732,5.56130635 C8.83182506,4.52722923 7.04944817,4.55790024 5.86238006,5.6359361 C4.67522094,6.71415399 4.47099025,8.4867016 5.38238334,9.80619202 C6.29377643,11.1255914 8.02300238,11.5624485 9.451252,10.8334432 C10.2541589,10.4238897 10.7606387,9.80536423 11,9 L8,9 L8,7 L12.9128219,6.9946303 C13.3078136,9.13768732 12.2718926,11.4377622 10.2796422,12.454365 C8.05121607,13.5920137 5.30757156,12.9012334 3.88569277,10.8425444 C2.46381398,8.78403746 2.78554102,5.97049582 4.63763302,4.28859605 C5.56367903,3.44755516 6.73409196,3.01461159 7.91187686,2.99276873 Z" id="形状" fill="#000000"></path>
    </g>
</svg>