<?xml version="1.0" encoding="UTF-8"?>
<svg width="16px" height="16px" viewBox="0 0 16 16" version="1.1" xmlns="http://www.w3.org/2000/svg" xmlns:xlink="http://www.w3.org/1999/xlink">
    <title>fcitx-wubi-dark</title>
    <g id="fcitx-wubi-dark" stroke="none" stroke-width="1" fill="none" fill-rule="evenodd">
        <path d="M12.8,1 C14.0150264,1 15,1.98497357 15,3.20000005 L15,12.8 C15,14.0150264 14.0150264,15 12.8,15 L3.20000005,15 C1.98497357,15 1,14.0150264 1,12.8 L1,3.20000005 C1,1.98497357 1.98497357,1 3.20000005,1 L12.8,1 Z M12.8,2 L3.20000005,2 C2.53725832,2 2,2.53725832 2,3.20000005 L2,12.8 C2,13.4627417 2.53725832,14 3.20000005,14 L12.8,14 C13.4627417,14 14,13.4627417 14,12.8 L14,3.20000005 C14,2.53725832 13.4627417,2 12.8,2 Z M12,3 L12,4 L7.9023,4 L7.2363,7 L11,7 L11,12 L13,12 L13,13 L3,13 L3,12 L5.0996,12 L5.9883,8 L4,8 L4,7 L6.2109,7 L6.877,4 L3,4 L3,3 L12,3 Z M10,8 L7.0137,8 L6.123,12 L10,12 L10,8 Z" id="形状" fill="#000000"></path>
    </g>
</svg>