<?xml version="1.0" encoding="UTF-8"?>
<svg width="16px" height="16px" viewBox="0 0 16 16" version="1.1" xmlns="http://www.w3.org/2000/svg" xmlns:xlink="http://www.w3.org/1999/xlink">
    <title>fcitx-chttrans-active-dark</title>
    <g id="fcitx-chttrans-active-dark" stroke="none" stroke-width="1" fill="none" fill-rule="evenodd">
        <path d="M12.8,1 C14.0150264,1 15,1.98497357 15,3.20000005 L15,12.8 C15,14.0150264 14.0150264,15 12.8,15 L3.20000005,15 C1.98497357,15 1,14.0150264 1,12.8 L1,3.20000005 C1,1.98497357 1.98497357,1 3.20000005,1 L12.8,1 Z M3.20000005,2 C2.53725832,2 2,2.53725832 2,3.20000005 L2,6.425 L2.7754,5.6531 C3.5443,6.076 4.2546,6.5562 4.9082,7.0945 L4.1016,8.0749 C3.45773812,7.43103812 2.75691239,6.89867792 2.00113031,6.47867974 L2,12.8 C2,13.0699069 2.0891092,13.3190012 2.23951324,13.5194686 C3.00974564,12.0814669 3.6295389,10.5706819 4.1016,8.9863 L5.082,9.6797 C4.70441741,11.1590085 4.18439865,12.5992576 3.52315017,14.0011603 L5.665,14 L5.88106056,13.9379636 C6.40597248,13.7713622 7.021848,13.4855084 7.5488,13.115 C8.023,12.782 8.4047,12.394 8.6621,12 L5,12 L5,11 L9,11 L9,10 L6,10 L6,9 L9,9 L9,8 L6,8 L6,5 L9,5 L9,4 L7,4 L7,2 L3.20000005,2 Z M9.5,12.588 C9.1497,13.108 8.6542,13.56 8.123,13.934 L8.024,14 L10.973,14 L10.877,13.934 C10.346,13.56 9.8503,13.108 9.5,12.588 Z M14,12 L10.338,12 C10.595,12.394 10.977,12.782 11.451,13.115 C11.9895776,13.4937258 12.6211426,13.7840004 13.1535015,13.9488723 C13.6434251,13.7965542 14,13.3399183 14,12.8 L14,12 Z M12.8,2 L12,2 L12,4 L10,4 L10,5 L13,5 L13,8 L10,8 L10,9 L13,9 L13,10 L10,10 L10,11 L14,11 L14,3.20000005 C14,2.53725832 13.4627417,2 12.8,2 Z M9,6 L7,6 L7,7 L9,7 L9,6 Z M12,6 L10,6 L10,7 L12,7 L12,6 Z M3.3516,2.3769 C4.1974,2.8382 4.9662,3.3971 5.6582,4.0507 L4.9082,5.0311 C4.1393,4.3006 3.3504,3.6853 2.543,3.1854 L3.3516,2.3769 Z M11,2 L8,2 L8,3 L11,3 L11,2 Z" id="形状" fill="#000000"></path>
    </g>
</svg>