<?xml version="1.0" encoding="UTF-8"?>
<svg width="16px" height="16px" viewBox="0 0 16 16" version="1.1" xmlns="http://www.w3.org/2000/svg" xmlns:xlink="http://www.w3.org/1999/xlink">
    <title>network-wired-symbolic-connecting4</title>
    <g id="network-wired-symbolic-connecting4" stroke="none" stroke-width="1" fill="none" fill-rule="evenodd">
        <path d="M5.56371388,9.31297168 L6.69508473,10.4443425 C7.00750416,10.756762 7.00750416,11.263294 6.69508473,11.5757134 L5.49761654,12.7731816 C5.35806607,12.912732 5.17185783,12.9957752 4.97478705,13.0063474 L3.67022135,13.0763334 L1.77088589,14.9756689 C1.57018217,15.1763726 1.24477714,15.1763726 1.04407342,14.9756689 C0.843369699,14.7749652 0.843369699,14.4495601 1.04407342,14.2488564 L2.94340889,12.3495209 L3.00386669,11.0368591 C3.01304278,10.8376275 3.0963067,10.649008 3.2373341,10.5079806 L4.43234303,9.31297168 C4.74476246,9.00055225 5.25129444,9.00055225 5.56371388,9.31297168 Z M9.29557406,5.51175352 L10.4269449,6.64312437 C10.7393643,6.9555438 11.2458963,6.9555438 11.5583158,6.64312437 L12.755784,5.44565618 C12.8953344,5.30610571 12.9783776,5.11989747 12.9889498,4.92282669 L13.0589358,3.61826099 L14.9582713,1.71892553 C15.158975,1.51822181 15.158975,1.19281678 14.9582713,0.992113059 C14.7575675,0.791409338 14.4321625,0.791409338 14.2314588,0.992113059 L12.3321233,2.89144852 L11.0194615,2.95190633 C10.8202299,2.96108242 10.6316104,3.04434634 10.490583,3.18537374 L9.29557406,4.38038267 C8.98315463,4.6928021 8.98315463,5.19933408 9.29557406,5.51175352 Z" id="形状" fill="#FFFFFF"></path>
    </g>
</svg>