<?xml version="1.0" encoding="UTF-8"?>
<svg width="16px" height="16px" viewBox="0 0 16 16" version="1.1" xmlns="http://www.w3.org/2000/svg" xmlns:xlink="http://www.w3.org/1999/xlink">
    <title>network-mobile-4g-off-dark</title>
    <g id="network-mobile-4g-off-dark" stroke="none" stroke-width="1" fill="none" fill-rule="evenodd" opacity="0.296757289">
        <path d="M6.01331711,6.51706123 L6.01329338,11.0100612 L6.51539612,11.0102673 C6.76085601,11.0102673 6.96500449,11.1871424 7.00734045,11.4203916 L7.01235468,11.4798504 L7.01270294,8.27222633 C7.01270294,7.02673304 8.02237475,6.01706123 9.26786804,6.01706123 L9.5620587,6.01706123 C10.6498748,6.01706123 11.612833,6.72048995 11.9436501,7.75678329 L11.9727515,7.84794441 C12.0567295,8.11100773 11.9115522,8.39234029 11.6484888,8.47631827 C11.3854255,8.56029626 11.104093,8.41511891 11.020115,8.15205559 L10.9910135,8.06089447 C10.7925233,7.43911846 10.2147483,7.01706123 9.5620587,7.01706123 L9.26786804,7.01706123 C8.5746595,7.01706123 8.01270294,7.57901779 8.01270294,8.27222633 L8.01270294,11.5074463 C8.01270294,12.3313807 8.68063372,12.9993114 9.5045681,12.9993114 L9.99643326,12.9993114 C10.548718,12.9993114 10.9964333,12.5515962 10.9964333,11.9993114 L10.9957029,11.0280612 L9.55003548,11.028389 C9.30457559,11.028389 9.10042711,10.8515138 9.05809115,10.6182646 L9.05003548,10.528389 C9.05003548,10.2522466 9.2738931,10.028389 9.55003548,10.028389 L11.4964333,10.028389 C11.7725756,10.028389 11.9964333,10.2522466 11.9964333,10.528389 L11.9964333,11.9993114 C11.9964333,13.1038809 11.1010028,13.9993114 9.99643326,13.9993114 L9.5045681,13.9993114 C8.13674055,13.9993114 7.02631807,12.8972294 7.01282719,11.5325918 L7.01539612,11.5102673 C7.01539612,11.7864096 6.79153849,12.0102673 6.51539612,12.0102673 L6.01329338,12.0100612 L6.01331711,13.4993114 C6.01331711,13.7447713 5.83644195,13.9489198 5.60319274,13.9912558 L5.51331711,13.9993114 C5.23717473,13.9993114 5.01331711,13.7754538 5.01331711,13.4993114 L5.01329338,12.0100612 L1.51829338,12.0102673 C1.12697832,12.0102673 0.897849815,11.5877851 1.0819988,11.2652844 L1.12787648,11.1978979 C1.33132676,10.9436142 1.45188989,10.7929276 1.62464123,10.5770132 L1.72485679,10.4517582 C1.85803102,10.2853095 2.02656682,10.074664 2.27270949,9.76702098 L2.58458818,9.3772174 C2.73973246,9.18330932 2.91823897,8.96020182 3.12538834,8.70129484 C4.62352224,6.82884258 4.62352224,6.82884258 5.12290021,6.20469183 C5.41816725,5.83565043 6.01331711,6.04443645 6.01331711,6.51706123 Z M5.01329338,7.94106123 L4.97896,7.98526536 C4.73851876,8.28578239 4.40560011,8.7018829 3.90622215,9.32603365 C3.18489842,10.2275847 2.81087871,10.6950557 2.56120241,11.0071152 L5.01329338,11.0100612 L5.01329338,7.94106123 Z M12.0200116,4.1427396 C13.0118982,4.7387252 13.6821348,5.69176274 14.0005319,6.8069645 L13.063168,7.15035674 C12.8200012,6.24297316 12.2935526,5.47373299 11.5049735,4.9999069 C10.7524171,4.5477254 9.87438787,4.43263621 9.00020418,4.60669986 L9.00075372,3.59563124 C10.0494717,3.42736822 11.10468,3.59275288 12.0200116,4.1427396 Z M13.0500877,2.428405 C14.4506059,3.26992123 15.4095533,4.59247849 15.878234,6.12505471 L14.9393236,6.46645869 C14.5458815,5.14233357 13.7313172,4.00436233 12.5350497,3.2855723 C11.4574375,2.6380776 10.2249041,2.42375573 9.00137557,2.58807977 L9.00134429,1.58266495 C10.4000701,1.42101801 11.8102755,1.68345063 13.0500877,2.428405 Z" id="形状结合" fill="#000000"></path>
    </g>
</svg>