<?xml version="1.0" encoding="UTF-8"?>
<svg width="16px" height="16px" viewBox="0 0 16 16" version="1.1" xmlns="http://www.w3.org/2000/svg" xmlns:xlink="http://www.w3.org/1999/xlink">
    <title>network-error-symbolic-dark</title>
    <g id="network-error-symbolic-dark" stroke="none" stroke-width="1" fill="none" fill-rule="evenodd">
        <path d="M6.3568,7.515 C6.6088,7.494 6.8688,7.593 7.0448,7.775 L8.2348,8.963 C8.5418,9.277 8.5418,9.836 8.2348,10.151 L7.0448,11.339 C6.8898,11.499 6.6708,11.594 6.4498,11.6 L5.2578,11.6 L3.0308,13.818 C2.7968,14.05 2.4088,14.05 2.1738,13.818 C1.9408,13.585 1.9408,13.197 2.1738,12.964 L4.4028,10.764 L4.4028,9.558 C4.4068,9.336 4.5028,9.118 4.6638,8.963 L5.8538,7.775 C5.9848,7.635 6.1658,7.542 6.3568,7.515 Z M12.9679,2.1657 C13.2019,1.9337 13.5909,1.9337 13.8239,2.1657 C14.0579,2.3987 14.0579,2.7877 13.8239,3.0197 L11.5959,5.2207 L11.5959,6.4267 C11.5919,6.6487 11.4969,6.8657 11.3349,7.0217 L10.1459,8.2087 C10.0129,8.3487 9.8329,8.4427 9.6429,8.4687 C9.3899,8.4897 9.1299,8.3917 8.9539,8.2087 L7.7629,7.0217 C7.4569,6.7067 7.4569,6.1477 7.7629,5.8327 L8.9539,4.6457 C9.1089,4.4857 9.3279,4.3897 9.5499,4.3837 L10.7399,4.3837 L12.9679,2.1657 Z" id="形状" fill="#000000"></path>
        <path d="M9.85991405,10.1285859 L11.0028,11.2707 L12.1460859,10.1285859 C12.3419339,9.93273802 12.6594661,9.93273802 12.8553141,10.1285859 C13.051162,10.3244339 13.051162,10.6419661 12.8553141,10.8378141 L11.7128,11.9807 L12.8549141,13.1235859 C13.050762,13.3194339 13.050762,13.6369661 12.8549141,13.8328141 C12.6590661,14.028662 12.3415339,14.028662 12.1456859,13.8328141 L11.0028,12.6907 L9.86031405,13.8328141 C9.66446612,14.028662 9.34693388,14.028662 9.15108595,13.8328141 C8.95523802,13.6369661 8.95523802,13.3194339 9.15108595,13.1235859 L10.2928,11.9807 L9.15068595,10.8378141 C8.95483802,10.6419661 8.95483802,10.3244339 9.15068595,10.1285859 C9.34653388,9.93273802 9.66406612,9.93273802 9.85991405,10.1285859 Z" id="路径" fill="#FF001E" fill-rule="nonzero"></path>
    </g>
</svg>