<?xml version="1.0" encoding="UTF-8"?>
<svg width="16px" height="16px" viewBox="0 0 16 16" version="1.1" xmlns="http://www.w3.org/2000/svg" xmlns:xlink="http://www.w3.org/1999/xlink">
    <title>network-wirelss-6-no-route-symbolic</title>
    <g id="network-wirelss-6-no-route-symbolic" stroke="none" stroke-width="1" fill="none" fill-rule="evenodd">
        <path d="M2.65731515,4.02714844 C3.28000056,4.02714844 3.73663654,4.29006006 4.04106052,4.60832149 L3.50139982,5.21716946 C3.32151293,5.01652638 3.01017022,4.85047694 2.71266496,4.85047694 C2.12457318,4.85047694 1.6402623,5.28635673 1.59874993,6.57323993 C1.88241774,6.22038486 2.31829753,6.01282305 2.65039642,6.01282305 C3.50831855,6.01282305 4.12408524,6.50405266 4.12408524,7.54878041 C4.12408524,8.57275199 3.39070019,9.20927486 2.51202188,9.20927486 C1.54340012,9.20927486 0.671640534,8.46205236 0.671640534,6.75312682 C0.671640534,4.85047694 1.61950612,4.02714844 2.65731515,4.02714844 Z M2.45667207,6.73237064 C2.19376045,6.73237064 1.88241774,6.87766391 1.62642484,7.27895007 C1.72328702,8.12303474 2.06922336,8.44129618 2.4912657,8.44129618 C2.87871441,8.44129618 3.19005711,8.14379093 3.19005711,7.54878041 C3.19005711,6.98836354 2.89947059,6.73237064 2.45667207,6.73237064 Z" id="形状" fill="#FFFFFF"></path>
        <path d="M4.75609357,8.95255896 L7.99924476,12.3666667 L9.19724476,11.1056667 L9.91224476,11.8036667 L8,13.8186147 L4.0880403,9.69986866 C4.30290519,9.53983655 4.49117405,9.34603038 4.64618004,9.12414698 L4.75609357,8.95255896 Z M5.39360256,4.58892159 L13.3937766,12.4107344 C13.5912344,12.6037759 13.5948146,12.9203381 13.4017731,13.1177959 C13.2087316,13.3152538 12.8921694,13.318834 12.6947115,13.1257925 L4.72960256,5.33792159 L5.39360256,4.58892159 Z M8,2.86666667 C10.9394769,2.86666667 13.6279172,3.94148207 15.6937552,5.71954717 L11.9782448,9.62866667 L11.2632448,8.92966667 L14.2092448,5.82966667 L13.9299164,5.6383813 C12.287581,4.55683823 10.3712251,3.93788414 8.35652114,3.87244956 L8,3.86666667 C7.40157294,3.86666667 6.81082727,3.91544154 6.23229232,4.01064683 L5.36467569,3.1620469 C6.21202292,2.96875217 7.09408978,2.86666667 8,2.86666667 Z M2.60513528,1.86339275 L4.31341636,3.5322727 C3.84774234,3.2104424 3.28575455,3.02714844 2.65731515,3.02714844 C2.56275741,3.02714844 2.46978315,3.03134316 2.37849295,3.0396282 L1.90607024,2.57845083 C1.7086124,2.38540935 1.70503223,2.06884711 1.89807371,1.87138927 C2.09111519,1.67393143 2.40767744,1.67035127 2.60513528,1.86339275 Z" id="形状" fill="#FFFFFF" fill-rule="nonzero"></path>
    </g>
</svg>