<?xml version="1.0" encoding="UTF-8"?>
<svg width="16px" height="16px" viewBox="0 0 16 16" version="1.1" xmlns="http://www.w3.org/2000/svg" xmlns:xlink="http://www.w3.org/1999/xlink">
    <title>notification-dark</title>
    <g id="notification-dark" stroke="none" stroke-width="1" fill="none" fill-rule="evenodd">
        <path d="M8.25944085,1.00704059 C10.2566741,1.00704059 11.9612782,2.64668001 12.0820374,4.67413115 L12.0978026,4.93881747 C12.1894138,6.47689594 12.6286585,7.98552571 13.3952722,9.37733634 C13.4994162,9.56641292 13.6094905,9.75313564 13.7245186,9.93599853 L13.9122802,10.2241536 C14.1399372,10.5559414 13.9023815,11.0070406 13.5,11.0070406 L2.5,11.0070406 C2.12636006,11.0070406 1.89484032,10.6180826 2.04594731,10.2968693 L2.09632846,10.2116584 C2.28124783,9.93584665 2.45277097,9.65395567 2.6106095,9.36664388 C3.37360091,7.97777883 3.81082243,6.47292998 3.90219735,4.93881747 L3.91796262,4.67413115 C4.03872181,2.64668001 5.74332591,1.00704059 7.74055915,1.00704059 L8.25944085,1.00704059 Z M8.25944085,2.00704059 L7.74055915,2.00704059 C6.2770967,2.00704059 5.00575446,3.22993032 4.91619351,4.73358785 L4.90042824,4.99827417 C4.80020268,6.68098184 4.32112303,8.32989989 3.48706096,9.8481341 L3.396,10.0070406 L12.603,10.0070406 L12.5193536,9.85979513 C11.7458102,8.45540359 11.2762117,6.93886056 11.1295094,5.38694544 L11.0995718,4.99827417 L11.0838065,4.73358785 C10.9942455,3.22993032 9.7229033,2.00704059 8.25944085,2.00704059 Z M10.6045475,11.9998285 C10.6180458,12.1094012 10.625,12.2210403 10.625,12.3343295 C10.625,13.8070888 9.44974747,15.0009962 8,15.0009962 C6.55025253,15.0009962 5.375,13.8070888 5.375,12.3343295 C5.375,12.2210403 5.38195416,12.1094012 5.39545248,11.9998285 L10.6045475,11.9998285 Z" id="形状" fill="#000000" fill-rule="nonzero"></path>
    </g>
</svg>