<?xml version="1.0" encoding="UTF-8"?>
<svg width="16px" height="16px" viewBox="0 0 16 16" version="1.1" xmlns="http://www.w3.org/2000/svg" xmlns:xlink="http://www.w3.org/1999/xlink">
    <title>refresh-dark</title>
    <g id="refresh-dark" stroke="none" stroke-width="1" fill="none" fill-rule="evenodd">
        <path d="M15,1 L15,6 L10,6 L10,5 L13.197601,4.9998823 C12.1401132,3.16929299 10.1764563,2 8,2 C4.6862915,2 2,4.6862915 2,8 C2,11.3137085 4.6862915,14 8,14 C11.3137085,14 14,11.3137085 14,8 L15,8 C15,11.8659932 11.8659932,15 8,15 C4.13400675,15 1,11.8659932 1,8 C1,4.13400675 4.13400675,1 8,1 C10.4964841,1 12.7532593,2.3190252 14.0007188,4.39315045 L14,1 L15,1 Z" id="路径" fill="#000000" fill-rule="nonzero"></path>
    </g>
</svg>