<?xml version="1.0" encoding="UTF-8"?>
<svg width="16px" height="16px" viewBox="0 0 16 16" version="1.1" xmlns="http://www.w3.org/2000/svg" xmlns:xlink="http://www.w3.org/1999/xlink">
    <title>select</title>
    <g id="select" stroke="none" stroke-width="1" fill="none" fill-rule="evenodd">
        <path d="M8,0.5 C12.1421356,0.5 15.5,3.8578644 15.5,8 C15.5,12.1421356 12.1421356,15.5 8,15.5 C3.8578644,15.5 0.5,12.1421356 0.5,8 C0.5,3.85786438 3.85786438,0.5 8,0.5 Z M8,1.5 C4.41014912,1.5 1.5,4.41014913 1.5,8 C1.5,11.5898508 4.41014915,14.5 8,14.5 C11.5898508,14.5 14.5,11.5898508 14.5,8 C14.5,4.41014915 11.5898508,1.5 8,1.5 Z M12.0583731,5.37892536 L12.7624538,6.08904534 L7.02711786,11.7756046 L3.40057959,7.98693376 L4.12297451,7.29545304 L7.04551741,10.3480257 L12.0583731,5.37892536 Z" id="形状" fill="#FFFFFF" fill-rule="nonzero"></path>
    </g>
</svg>