<?xml version="1.0" encoding="UTF-8"?>
<svg width="16px" height="16px" viewBox="0 0 16 16" version="1.1" xmlns="http://www.w3.org/2000/svg" xmlns:xlink="http://www.w3.org/1999/xlink">
    <title>waiting</title>
    <g id="waiting" stroke="none" stroke-width="1" fill="none" fill-rule="evenodd">
        <g id="spinner_32" transform="translate(0.2212, 0.2212)" fill="#FFFFFF">
            <circle id="9" opacity="0.00999999978" transform="translate(3.1404, 10.4567) rotate(240) translate(-3.1404, -10.4567)" cx="3.14044019" cy="10.4567258" r="2.14235713"></circle>
            <circle id="8" opacity="0.0199999996" transform="translate(2.7459, 9.6106) rotate(250) translate(-2.7459, -9.6106)" cx="2.74588648" cy="9.61060266" r="2.14235713"></circle>
            <circle id="7" opacity="0.0299999993" transform="translate(2.5043, 8.7088) rotate(260) translate(-2.5043, -8.7088)" cx="2.50425466" cy="8.70882046" r="2.14235713"></circle>
            <circle id="6" opacity="0.0399999991" transform="translate(2.4229, 7.7788) rotate(270) translate(-2.4229, -7.7788)" cx="2.42288662" cy="7.77877943" r="2.14235713"></circle>
            <circle id="5" opacity="0.049999997" transform="translate(2.5043, 6.8487) rotate(280) translate(-2.5043, -6.8487)" cx="2.50425466" cy="6.84873841" r="2.14235713"></circle>
            <circle id="4" opacity="0.099999994" transform="translate(2.7459, 5.947) rotate(290) translate(-2.7459, -5.947)" cx="2.74588648" cy="5.94695621" r="2.14235713"></circle>
            <circle id="3" opacity="0.149999991" transform="translate(3.1404, 5.1008) rotate(300) translate(-3.1404, -5.1008)" cx="3.14044019" cy="5.10083303" r="2.14235713"></circle>
            <circle id="2" opacity="0.299999982" transform="translate(3.6759, 4.3361) rotate(310) translate(-3.6759, -4.3361)" cx="3.6759275" cy="4.33607789" r="2.14235713"></circle>
            <circle id="1" transform="translate(4.3361, 3.6759) rotate(320) translate(-4.3361, -3.6759)" cx="4.33607789" cy="3.6759275" r="2.14235713"></circle>
            <circle id="9" opacity="0.00999999978" cx="7.77877943" cy="2.42288662" r="2.14235713"></circle>
            <circle id="8" opacity="0.0199999996" transform="translate(8.7088, 2.5043) rotate(10) translate(-8.7088, -2.5043)" cx="8.70882046" cy="2.50425466" r="2.14235713"></circle>
            <circle id="7" opacity="0.0299999993" transform="translate(9.6106, 2.7459) rotate(20) translate(-9.6106, -2.7459)" cx="9.61060266" cy="2.74588648" r="2.14235713"></circle>
            <circle id="6" opacity="0.0399999991" transform="translate(10.4567, 3.1404) rotate(30) translate(-10.4567, -3.1404)" cx="10.4567258" cy="3.14044019" r="2.14235713"></circle>
            <circle id="5" opacity="0.049999997" transform="translate(11.2215, 3.6759) rotate(40) translate(-11.2215, -3.6759)" cx="11.221481" cy="3.6759275" r="2.14235713"></circle>
            <circle id="4" opacity="0.099999994" transform="translate(11.8816, 4.3361) rotate(50) translate(-11.8816, -4.3361)" cx="11.8816314" cy="4.33607789" r="2.14235713"></circle>
            <circle id="3" opacity="0.149999991" transform="translate(12.4171, 5.1008) rotate(60) translate(-12.4171, -5.1008)" cx="12.4171187" cy="5.10083303" r="2.14235713"></circle>
            <circle id="2" opacity="0.299999982" transform="translate(12.8117, 5.947) rotate(70) translate(-12.8117, -5.947)" cx="12.8116724" cy="5.94695621" r="2.14235713"></circle>
            <circle id="1" transform="translate(13.0533, 6.8487) rotate(80) translate(-13.0533, -6.8487)" cx="13.0533042" cy="6.84873841" r="2.14235713"></circle>
            <circle id="9" opacity="0.00999999978" transform="translate(12.4171, 10.4567) rotate(120) translate(-12.4171, -10.4567)" cx="12.4171187" cy="10.4567258" r="2.14235713"></circle>
            <circle id="8" opacity="0.0199999996" transform="translate(11.8816, 11.2215) rotate(130) translate(-11.8816, -11.2215)" cx="11.8816314" cy="11.221481" r="2.14235713"></circle>
            <circle id="7" opacity="0.0299999993" transform="translate(11.2215, 11.8816) rotate(140) translate(-11.2215, -11.8816)" cx="11.221481" cy="11.8816314" r="2.14235713"></circle>
            <circle id="6" opacity="0.0399999991" transform="translate(10.4567, 12.4171) rotate(150) translate(-10.4567, -12.4171)" cx="10.4567258" cy="12.4171187" r="2.14235713"></circle>
            <circle id="5" opacity="0.049999997" transform="translate(9.6106, 12.8117) rotate(160) translate(-9.6106, -12.8117)" cx="9.61060266" cy="12.8116724" r="2.14235713"></circle>
            <circle id="4" opacity="0.099999994" transform="translate(8.7088, 13.0533) rotate(170) translate(-8.7088, -13.0533)" cx="8.70882046" cy="13.0533042" r="2.14235713"></circle>
            <circle id="3" opacity="0.149999991" transform="translate(7.7788, 13.1347) rotate(180) translate(-7.7788, -13.1347)" cx="7.77877943" cy="13.1346723" r="2.14235713"></circle>
            <circle id="2" opacity="0.299999982" transform="translate(6.8487, 13.0533) rotate(190) translate(-6.8487, -13.0533)" cx="6.84873841" cy="13.0533042" r="2.14235713"></circle>
            <circle id="1" transform="translate(5.947, 12.8117) rotate(200) translate(-5.947, -12.8117)" cx="5.94695621" cy="12.8116724" r="2.14235713"></circle>
        </g>
    </g>
</svg>