<svg xmlns="http://www.w3.org/2000/svg" xmlns:xlink="http://www.w3.org/1999/xlink" width="48" height="48" viewBox="0 0 48 48">
  <defs>
    <linearGradient id="text-richtext-a" x1="50%" x2="50%" y1=".948%" y2="99.038%">
      <stop offset="0%" stop-color="#BCBECB"/>
      <stop offset="100%" stop-color="#A9A9B0"/>
    </linearGradient>
    <linearGradient id="text-richtext-d" x1="50%" x2="12.223%" y1="50%" y2="88.513%">
      <stop offset="0%" stop-color="#FFF" stop-opacity=".1"/>
      <stop offset="100%" stop-color="#FFF" stop-opacity=".3"/>
    </linearGradient>
    <path id="text-richtext-c" d="M21,0 L32,11 L25.5,11 C23.0147186,11 21,8.98528137 21,6.5 L21,0 L21,0 Z"/>
    <filter id="text-richtext-b" width="190.9%" height="190.9%" x="-45.5%" y="-36.4%" filterUnits="objectBoundingBox">
      <feOffset dy="1" in="SourceAlpha" result="shadowOffsetOuter1"/>
      <feGaussianBlur in="shadowOffsetOuter1" result="shadowBlurOuter1" stdDeviation="1.5"/>
      <feComposite in="shadowBlurOuter1" in2="SourceAlpha" operator="out" result="shadowBlurOuter1"/>
      <feColorMatrix in="shadowBlurOuter1" values="0 0 0 0 0   0 0 0 0 0   0 0 0 0 0  0 0 0 0.05 0"/>
    </filter>
  </defs>
  <g fill="none" fill-rule="evenodd">
    <g transform="translate(8 5)">
      <path fill="url(#text-richtext-a)" d="M32,34.5 C32,36.9852814 29.9852814,39 27.5,39 L4.5,39 C2.01471863,39 3.04359188e-16,36.9852814 0,34.5 L0,4.5 C-3.04359188e-16,2.01471863 2.01471863,2.23289562e-15 4.5,0 L21,0 L32,11 L32,34.5 Z"/>
      <use fill="#000" filter="url(#text-richtext-b)" xlink:href="#text-richtext-c"/>
      <use fill="url(#text-richtext-d)" xlink:href="#text-richtext-c"/>
    </g>
    <path fill="#4E59BA" d="M13,22 L14,22 L14.5,21 L17.5,21 L18,22 L19,22 L16.5386368,16 L15.5,16 L13,22 Z M22.968,37 L22.968,38 L12.968,38 L12.968,37 L22.968,37 Z M24.811,36.966 L24.811,37.966 L23.811,37.966 L23.811,36.966 L24.811,36.966 Z M34.968,33 L34.968,34 L12.968,34 L12.968,33 L34.968,33 Z M34.968,29 L34.968,30 L12.968,30 L12.968,29 L34.968,29 Z M34.968,25 L34.968,26 L12.968,26 L12.968,25 L34.968,25 Z M22.5,16 C23.3284271,16 24,16.6657972 24,17.5 C24,17.7337849 23.9469768,17.9550782 23.8521088,18.1523118 C24.6429214,18.4693803 25,19.2346901 25,20 C25,21 24.3807119,22 23,22 L20,22 L20,16 L22.5,16 Z M28.5,16 C29.1603542,16 29.7800599,16.2583548 30.2414523,16.7066904 L30.375003,16.8468222 L29.6251959,17.5084787 C29.341587,17.1870855 28.9363042,17 28.5,17 C27.7133762,17 27.0746344,17.5980835 27.0060909,18.3674246 L27,18.5048815 L27,19.4951185 C27,20.3288037 27.6704204,21 28.5,21 C28.9025813,21 29.2754128,20.844169 29.5517437,20.573076 L29.6507139,20.4660924 L30.4167061,21.1089422 C29.9457929,21.6700622 29.2511129,22 28.5,22 C27.1731615,22 26.0898529,20.9685727 26.0053112,19.6600699 L26,19.4951185 L26,18.5048815 C26,17.1193697 27.1136744,16 28.5,16 Z M23,19 L21,19 L21,21 L23,21 C23.5549039,21 24,20.5560877 24,20 C24,19.4450961 23.5560877,19 23,19 Z M16,17 L17.2000008,20 L14.7999992,20 L16,17 Z M22.5,17 L20.9989566,17 L20.9988353,17.5005217 C20.9993105,17.7507826 21,18.0010434 21,18.0010434 L21.8248889,18.001067 C22.1733333,18.0006006 22.5,18 22.5,18 C22.7793262,18 23,17.7787377 23,17.5 C23,17.2206738 22.7787377,17 22.5,17 Z"/>
  </g>
</svg>
