<svg xmlns="http://www.w3.org/2000/svg" xmlns:xlink="http://www.w3.org/1999/xlink" width="48" height="48" viewBox="0 0 48 48">
  <defs>
    <linearGradient id="x-office-drawing-c" x1="50%" x2="50%" y1="0%" y2="97.95%">
      <stop offset="0%" stop-color="#6A3DAF"/>
      <stop offset="100%" stop-color="#4C1974"/>
    </linearGradient>
    <path id="x-office-drawing-b" d="M32,34.5 C32,36.9852814 29.9852814,39 27.5,39 L4.5,39 C2.01471863,39 3.04359188e-16,36.9852814 0,34.5 L0,4.5 C-3.04359188e-16,2.01471863 2.01471863,2.23289562e-15 4.5,0 L21,0 L32,11 L32,34.5 Z"/>
    <filter id="x-office-drawing-a" width="131.2%" height="125.6%" x="-15.6%" y="-10.3%" filterUnits="objectBoundingBox">
      <feOffset dy="1" in="SourceAlpha" result="shadowOffsetOuter1"/>
      <feGaussianBlur in="shadowOffsetOuter1" result="shadowBlurOuter1" stdDeviation="1.5"/>
      <feColorMatrix in="shadowBlurOuter1" values="0 0 0 0 0.339328004   0 0 0 0 0   0 0 0 0 0.621603261  0 0 0 0.2 0"/>
    </filter>
    <linearGradient id="x-office-drawing-f" x1="50%" x2="12.223%" y1="50%" y2="88.513%">
      <stop offset="0%" stop-color="#FFF" stop-opacity=".1"/>
      <stop offset="100%" stop-color="#FFF" stop-opacity=".3"/>
    </linearGradient>
    <path id="x-office-drawing-e" d="M21,0 L32,11 L25.5,11 C23.0147186,11 21,8.98528137 21,6.5 L21,0 L21,0 Z"/>
    <filter id="x-office-drawing-d" width="190.9%" height="190.9%" x="-45.5%" y="-36.4%" filterUnits="objectBoundingBox">
      <feOffset dy="1" in="SourceAlpha" result="shadowOffsetOuter1"/>
      <feGaussianBlur in="shadowOffsetOuter1" result="shadowBlurOuter1" stdDeviation="1.5"/>
      <feComposite in="shadowBlurOuter1" in2="SourceAlpha" operator="out" result="shadowBlurOuter1"/>
      <feColorMatrix in="shadowBlurOuter1" values="0 0 0 0 0   0 0 0 0 0   0 0 0 0 0  0 0 0 0.05 0"/>
    </filter>
  </defs>
  <g fill="none" fill-rule="evenodd">
    <g transform="translate(8 5)">
      <use fill="#000" filter="url(#x-office-drawing-a)" xlink:href="#x-office-drawing-b"/>
      <use fill="url(#x-office-drawing-c)" xlink:href="#x-office-drawing-b"/>
      <use fill="#000" filter="url(#x-office-drawing-d)" xlink:href="#x-office-drawing-e"/>
      <use fill="url(#x-office-drawing-f)" xlink:href="#x-office-drawing-e"/>
    </g>
    <path fill="#FFF" fill-opacity=".6" d="M30.5,17 C30.7761424,17 31,17.2238576 31,17.5 C31,17.7454599 30.8231248,17.9496084 30.5898756,17.9919443 L30.5,18 L18,18 C18.4128802,18.3356875 18.9615066,18.7593283 19.3500097,19.1651184 C22.8263585,22.7961526 23.2296939,27.2059737 18.6932306,32.0132811 C18.6725292,32.0352184 27.0897211,32.0070879 29.0883671,32.0010838 C29.2910851,31.4175435 29.8467813,31 30.5,31 C31.3284271,31 32,31.6715729 32,32.5 C32,33.3284271 31.3284271,34 30.5,34 C29.8471533,34 29.2917181,33.5829319 29.0856015,33.000703 L18.0249996,33 C18.0249996,33 18.013429,32.6833515 18.0003641,32.3258113 L18,34.5 L14.5,34.5 L14.5,31 L18,31 L18,31.29 L18.1860062,31.0910185 C22.1024124,26.8012074 21.6985755,23.0642068 18.6276845,19.8566719 C18.1050995,19.3108338 17.5439219,18.8308758 16.9831915,18.4220372 C16.7875407,18.2793848 16.2838358,17.9523531 16.2519305,17.9341216 C15.8345785,17.6956347 15.9671485,17.0833054 16.4078277,17.0076959 L16.5,17 L30.5,17 Z M17,32 L15.5,32 L15.5,33.5 L17,33.5 L17,32 Z M30.5,32 C30.2238576,32 30,32.2238576 30,32.5 C30,32.7761424 30.2238576,33 30.5,33 C30.7761424,33 31,32.7761424 31,32.5 C31,32.2238576 30.7761424,32 30.5,32 Z"/>
  </g>
</svg>
