<svg xmlns="http://www.w3.org/2000/svg" width="512" height="512" viewBox="0 0 512 512">
  <defs>
    <filter id="dde-launcher-512px-a" width="126.3%" height="126.3%" x="-13.1%" y="-13.1%" filterUnits="objectBoundingBox">
      <feOffset dy="12" in="SourceAlpha" result="shadowOffsetOuter1"/>
      <feGaussianBlur in="shadowOffsetOuter1" result="shadowBlurOuter1" stdDeviation="10"/>
      <feColorMatrix in="shadowBlurOuter1" result="shadowMatrixOuter1" values="0 0 0 0 0   0 0 0 0 0   0 0 0 0 0  0 0 0 0.2 0"/>
      <feMerge>
        <feMergeNode in="shadowMatrixOuter1"/>
        <feMergeNode in="SourceGraphic"/>
      </feMerge>
    </filter>
    <radialGradient id="dde-launcher-512px-b" cx="36.374%" cy="10.403%" r="83.143%" fx="36.374%" fy="10.403%">
      <stop offset="0%" stop-color="#00ABFF"/>
      <stop offset="100%" stop-color="#4021FF"/>
    </radialGradient>
    <linearGradient id="dde-launcher-512px-c" x1="49.999%" x2="49.999%" y1="0%" y2="100%">
      <stop offset="0%" stop-color="#FFF"/>
      <stop offset="100%" stop-color="#04ACF7"/>
    </linearGradient>
  </defs>
  <g fill="none" fill-rule="evenodd" filter="url(#dde-launcher-512px-a)" transform="translate(20 20)">
    <path fill="url(#dde-launcher-512px-b)" d="M0,236 C0,105.660571 105.660571,0 236,0 C366.339429,0 472,105.660571 472,236 C472,366.339429 366.339429,472 236,472 C105.660571,472 0,366.339429 0,236 Z"/>
    <path fill="url(#dde-launcher-512px-c)" fill-rule="nonzero" d="M331.225301,62.9831346 C303.21037,47.781123 271.113285,39.1470588 237,39.1470588 C228.793157,39.1470588 220.703005,39.6467716 212.758311,40.6174289 C183.319704,81.1754833 168.059573,147.339199 169.273536,187.825961 C169.273536,187.825961 167.338533,247.819933 208.370732,269.099515 C208.370732,269.099515 245.245632,285.304338 270.375319,232.905302 C270.375319,232.905302 287.646697,203.33408 280.616469,136.502085 C280.616469,136.502085 287.342505,137.689063 288.102986,138.755622 C288.863468,139.813581 302.957724,190.208517 293.054565,232.647264 C293.054565,232.647264 283.937238,282.517522 239.111082,293.922827 C194.301825,305.328133 159.378827,277.735206 135.668706,251.742119 C118.011221,232.385441 91.7969212,180.403271 78.8864331,118.048164 C53.9376255,151.158183 39.1470588,192.354523 39.1470588,237.004494 C39.1470588,267.836284 46.199599,297.020835 58.779509,323.03301 C102.458142,335.937036 213.449976,361.078815 284.059887,309.329618 C330.799234,275.06822 324.777033,220.201088 324.777033,220.201088 C324.003231,178.465746 298.593915,137.009804 298.593915,137.009804 C397.396707,226.39154 338.999858,325.691967 338.999858,325.691967 C311.812593,381.22171 255.924851,416.736779 207.034894,432.598588 C216.806791,434.083157 226.813494,434.852941 237,434.852941 C346.271545,434.852941 434.852941,346.273557 434.852941,237.004494 C434.852941,190.787597 419.006052,148.270984 392.449609,114.592396 C382.780613,115.25875 371.547406,115.648953 359.892441,115.266453 C359.892441,115.266453 307.325489,117.721244 277.84903,132.423498 C277.84903,132.423498 255.867962,142.225 233.895914,158.843403 C233.895914,158.843403 229.232717,161.174571 229.45821,169.739848 C229.656644,178.278634 224.984427,201.042844 209.416383,214.385249 C209.416383,214.385249 198.304083,220.098377 203.860233,228.275126 C203.860233,228.275126 211.364643,239.171571 221.93576,227.727654 C221.93576,227.727654 249.193366,199.682996 250.862015,154.490123 C250.862015,154.490123 259.484872,147.125751 273.104655,144.953526 C273.104655,144.953526 275.612138,212.751665 241.968567,246.792018 C241.968567,246.792018 209.966586,281.644747 199.6841,229.908709 C199.6841,229.908709 187.164723,180.618632 251.70085,122.083354 C251.70085,122.083354 295.202979,78.6388575 320.773897,58.2941176 C324.307681,59.7670253 327.792524,61.3310389 331.225316,62.9831418 Z M237,454 C117.153828,454 20,356.848178 20,237.004481 C20,117.159206 117.155405,20 237,20 C356.844595,20 454,117.159206 454,237.004481 C454,356.848178 356.846172,454 237,454 Z"/>
  </g>
</svg>
