<svg xmlns="http://www.w3.org/2000/svg" xmlns:xlink="http://www.w3.org/1999/xlink" width="128" height="128" viewBox="0 0 128 128">
  <defs>
    <rect id="application-vnd.google-apps.script-b" width="84" height="104" x="1" y="1"/>
    <filter id="application-vnd.google-apps.script-a" width="116.7%" height="113.5%" x="-8.3%" y="-4.8%" filterUnits="objectBoundingBox">
      <feOffset dy="2" in="SourceAlpha" result="shadowOffsetOuter1"/>
      <feGaussianBlur in="shadowOffsetOuter1" result="shadowBlurOuter1" stdDeviation="2"/>
      <feColorMatrix in="shadowBlurOuter1" values="0 0 0 0 0   0 0 0 0 0   0 0 0 0 0  0 0 0 0.2 0"/>
    </filter>
  </defs>
  <g fill="none" fill-rule="evenodd">
    <g transform="translate(21 11)">
      <use fill="#000" filter="url(#application-vnd.google-apps.script-a)" xlink:href="#application-vnd.google-apps.script-b"/>
      <use fill="#F9FBFB" xlink:href="#application-vnd.google-apps.script-b"/>
      <path fill="#000" fill-opacity=".2" fill-rule="nonzero" d="M86,0 L0,0 L0,106 L86,106 L86,0 Z M85,1 L85,105 L1,105 L1,1 L85,1 Z"/>
    </g>
    <path fill="#2A4052" fill-opacity=".4" stroke="#3E6F84" d="M64,40.5 C70.4893458,40.5 76.3643458,43.1303271 80.6170094,47.3829906 C84.8696729,51.6356542 87.5,57.5106542 87.5,64 C87.5,70.4893458 84.8696729,76.3643458 80.6170094,80.6170094 C76.3643458,84.8696729 70.4893458,87.5 64.0007213,87.5000005 C61.445664,87.4963144 58.9501789,87.0778716 56.5966155,86.2922961 L56.461,86.246 L72.7071068,70 L55.5,52.7928932 L55.5,63.5 L40.5052137,63.5 C40.6365203,57.2092052 43.2398194,51.5261619 47.3829906,47.3829906 C51.6356542,43.1303271 57.5106542,40.5 64,40.5 Z M55.5,76.5 L55.5,85.895 L55.4320419,85.8691345 C50.9521031,84.1062424 47.0606436,80.9852814 44.3630725,76.8563672 L44.13479,76.5 L55.5,76.5 Z"/>
  </g>
</svg>
