<svg xmlns="http://www.w3.org/2000/svg" xmlns:xlink="http://www.w3.org/1999/xlink" width="128" height="128" viewBox="0 0 128 128">
  <defs>
    <rect id="application-vnd.scribus-b" width="84" height="104" x="1" y="1"/>
    <filter id="application-vnd.scribus-a" width="108.3%" height="106.7%" x="-4.2%" y="-2.4%" filterUnits="objectBoundingBox">
      <feOffset dy="1" in="SourceAlpha" result="shadowOffsetOuter1"/>
      <feGaussianBlur in="shadowOffsetOuter1" result="shadowBlurOuter1" stdDeviation="1"/>
      <feColorMatrix in="shadowBlurOuter1" values="0 0 0 0 0   0 0 0 0 0   0 0 0 0 0  0 0 0 0.2 0"/>
    </filter>
    <linearGradient id="application-vnd.scribus-c" x1="59.307%" x2="34.041%" y1="27.238%" y2="100%">
      <stop offset="0%" stop-color="#FFF" stop-opacity="0"/>
      <stop offset="100%" stop-color="#9FACB4"/>
    </linearGradient>
  </defs>
  <g fill="none" fill-rule="evenodd">
    <g transform="translate(21 11)">
      <use fill="#000" filter="url(#application-vnd.scribus-a)" xlink:href="#application-vnd.scribus-b"/>
      <use fill="#F9FBFB" xlink:href="#application-vnd.scribus-b"/>
      <path fill="#000" fill-opacity=".2" fill-rule="nonzero" d="M86,0 L0,0 L0,106 L86,106 L86,0 Z M85,1 L85,105 L1,105 L1,1 L85,1 Z"/>
    </g>
    <path fill="url(#application-vnd.scribus-c)" d="M56.0393207,19 C59.7119469,26.2643435 63.3848847,41.8542665 40,57.4441896 C8.00000004,78.777523 55.9999998,106.777523 55.9999998,106.777523 C55.9999998,106.777523 20.4000738,68.5405646 105.22932,51.0692487" opacity=".643"/>
    <path fill="#6198C4" stroke="#3A5B75" d="M86.9895919,48.0762672 C87.3486519,47.9647831 87.684728,47.988274 87.9735613,48.0669739 C88.5417766,48.2217986 88.9390703,48.5839096 89.0010409,48.6430329 C89.068179,48.7006452 89.6809279,49.211877 89.7660455,50.047259 C89.8113407,50.4918062 89.6987254,51.0211621 89.3008152,51.6180273 C87.8738639,53.7584543 85.3944428,60.0866555 85.2897826,60.3550895 C85.1486195,60.9507955 80.9094124,79.7647306 72.1245933,86.0897997 C68.4500929,89.7551122 68.8329649,94.2205786 68.9987397,95.3445671 L68.9987397,95.3445671 L58.9067165,106.067342 C60.0072983,101.579211 63.2394786,89.8924052 68.0848567,85.0470271 C68.2383584,82.426025 68.9645183,72.9595769 80.3760066,58.6961997 C80.6446451,58.3914764 83.7197353,54.8305229 85.1366619,49.923654 C85.754623,48.8080831 86.3884133,48.2629265 86.9895919,48.0762672 Z" transform="rotate(5 74.138 77.63)"/>
  </g>
</svg>
