<svg xmlns="http://www.w3.org/2000/svg" xmlns:xlink="http://www.w3.org/1999/xlink" width="128" height="128" viewBox="0 0 128 128">
  <defs>
    <rect id="application-x-audacity-project-b" width="84" height="104" x="1" y="1"/>
    <filter id="application-x-audacity-project-a" width="108.3%" height="106.7%" x="-4.2%" y="-2.4%" filterUnits="objectBoundingBox">
      <feOffset dy="1" in="SourceAlpha" result="shadowOffsetOuter1"/>
      <feGaussianBlur in="shadowOffsetOuter1" result="shadowBlurOuter1" stdDeviation="1"/>
      <feColorMatrix in="shadowBlurOuter1" values="0 0 0 0 0   0 0 0 0 0   0 0 0 0 0  0 0 0 0.2 0"/>
    </filter>
  </defs>
  <g fill="none" fill-rule="evenodd">
    <g transform="translate(21 11)">
      <use fill="#000" filter="url(#application-x-audacity-project-a)" xlink:href="#application-x-audacity-project-b"/>
      <use fill="#F9FBFB" xlink:href="#application-x-audacity-project-b"/>
      <path fill="#000" fill-opacity=".2" fill-rule="nonzero" d="M86,0 L0,0 L0,106 L86,106 L86,0 Z M85,1 L85,105 L1,105 L1,1 L85,1 Z"/>
    </g>
    <path fill="#2A4052" fill-opacity=".4" stroke="#3E6F84" d="M78.9578521,58.5000029 C79.1382859,58.4993444 79.3059492,58.6033715 79.4376825,58.7476024 C79.5938888,58.9186282 79.7022649,59.1543138 79.728581,59.4179679 C79.7411828,60.7352591 80.2759349,62.3711541 83.7009774,64.5061981 C84.7433002,65.1321199 87.8041714,67.1540707 88.7655933,70.4599438 C88.7749665,70.488864 89.9757388,73.9105814 87.9825385,78.2185394 C88.4004491,77.2574181 89.3359352,74.1437046 88.284646,71.5476869 C88.1735682,71.1706436 86.9260509,67.446706 80.5189518,65.6184387 C80.3326414,65.565275 80.149191,65.5157752 79.9694846,65.4705171 C79.9401723,65.6564474 79.9124643,65.8431245 79.8864847,66.0306233 C79.5375922,68.5486398 79.5289843,71.0087976 79.5217385,73.5041604 L79.5217385,73.5041604 L79.5186483,74.5440947 C79.5078497,78.0900821 79.5040246,81.4243778 79.4930282,81.47936 C79.4712272,82.6209822 79.0132727,83.692067 78.232884,84.6303131 C77.4434546,85.5794288 76.3230936,86.3924423 74.9720745,86.9183946 C73.306793,87.566316 71.6033298,87.6576529 70.1946943,87.2700035 C68.8596271,86.9025998 67.7870822,86.1017177 67.3267175,84.9208287 C66.8593641,83.7209261 67.1093402,82.3510685 67.8643932,81.1473323 C68.635767,79.9175767 69.9360996,78.8563138 71.5973555,78.2834289 C74.1333653,77.4099695 76.3221302,77.5403771 77.9358115,78.6201124 L77.9358115,78.6201124 L78.2204023,59.5531194 C78.2212467,59.2516735 78.3189402,58.9762539 78.4783462,58.7760697 C78.6039282,58.6183621 78.7700513,58.5006908 78.9578521,58.5000029 Z M69.7928932,40.5 L79.5,50.2071068 L79.5,53.5 L78.5,53.5 L78.5,49.5 L70.5,49.5 L70.5,41.5 L47.5,41.5 L47.5,80.5 L62.9,80.5 L62.9,81.5 L46.5,81.5 L46.5,40.5 L69.7928932,40.5 Z"/>
  </g>
</svg>
