<svg xmlns="http://www.w3.org/2000/svg" xmlns:xlink="http://www.w3.org/1999/xlink" width="128" height="128" viewBox="0 0 128 128">
  <defs>
    <rect id="application-x-kdenlive-b" width="84" height="104" x="1" y="1"/>
    <filter id="application-x-kdenlive-a" width="116.7%" height="113.5%" x="-8.3%" y="-4.8%" filterUnits="objectBoundingBox">
      <feOffset dy="2" in="SourceAlpha" result="shadowOffsetOuter1"/>
      <feGaussianBlur in="shadowOffsetOuter1" result="shadowBlurOuter1" stdDeviation="2"/>
      <feColorMatrix in="shadowBlurOuter1" values="0 0 0 0 0   0 0 0 0 0   0 0 0 0 0  0 0 0 0.2 0"/>
    </filter>
  </defs>
  <g fill="none" fill-rule="evenodd">
    <g transform="translate(21 11)">
      <use fill="#000" filter="url(#application-x-kdenlive-a)" xlink:href="#application-x-kdenlive-b"/>
      <use fill="#F9FBFB" xlink:href="#application-x-kdenlive-b"/>
      <path fill="#000" fill-opacity=".2" fill-rule="nonzero" d="M86,0 L0,0 L0,106 L86,106 L86,0 Z M85,1 L85,105 L1,105 L1,1 L85,1 Z"/>
    </g>
    <path fill="#2A4052" fill-opacity=".4" stroke="#3E6F84" d="M58.6129037,48.5001195 L61.5041729,53.1276358 L61.5383965,81.5 L45.9,81.5 C45.5317053,81.5 45.1971433,81.3607585 44.9474172,81.1312618 C44.7363347,80.9372784 44.585924,80.6789993 44.5272436,80.3870046 L44.5056914,80.2383391 L44.5,49.888889 C44.5,49.5242388 44.6398573,49.1931865 44.8696984,48.9460022 C45.0656285,48.7352877 45.3266389,48.5854956 45.62155,48.5270959 L45.7716863,48.5056531 L58.6129037,48.5001195 Z M59.5,73.5 L51.5,73.5 L51.5,76.5 L59.5,76.5 L59.5,73.5 Z M59.5,69.5 L47.5,69.5 L47.5,72.5 L59.5,72.5 L59.5,69.5 Z M59.5,65.5 L45.5,65.5 L45.5,68.5 L59.5,68.5 L59.5,65.5 Z M59.5,61.5 L47.5,61.5 L47.5,64.5 L59.5,64.5 L59.5,61.5 Z M59.5,57.5 L51.5,57.5 L51.5,60.5 L59.5,60.5 L59.5,57.5 Z M59.5,53.5 L55.5,53.5 L55.5,56.5 L59.5,56.5 L59.5,53.5 Z M67.8460066,48.5 L65.5,52.2546351 L65.5,81.5 L64.538468,81.5 L64.5038301,52.2643301 L62.1511238,48.5 L67.8460066,48.5 Z M82.1,48.5 C82.4682946,48.5 82.8028565,48.6392415 83.0525827,48.8687382 C83.2636652,49.0627217 83.414076,49.3210008 83.4727564,49.6129955 L83.4943086,49.761661 L83.5,80.111111 C83.5,80.4757613 83.3601428,80.8068136 83.1303017,81.0539979 C82.9343731,81.2647109 82.6733649,81.4145023 82.3784564,81.4729028 L82.2283215,81.4943462 L68.4990172,81.4998013 L68.4999951,53.1114452 L71.3830765,48.5 L82.1,48.5 Z M71.0573963,57.500259 L70.915414,57.5103828 C70.5826582,57.551366 70.2438661,57.7117754 69.9874672,57.9474799 C69.6941985,58.2170783 69.5174206,58.57487 69.5183617,58.939129 L69.5183617,58.939129 L69.6489577,73.6413085 L69.7265966,73.7713145 C69.8690071,73.9828375 70.0742008,74.1667662 70.3079905,74.2957052 C70.529274,74.4177469 70.7621463,74.5437642 71.6788609,74.3446903 L71.6788609,74.3446903 L81.8818268,67.1995226 L82.0095753,67.0994662 C82.3312142,66.8154496 82.5,66.3991132 82.5,65.9770313 C82.5,65.502546 82.2865223,65.0342921 81.8809164,64.7515857 L81.8809164,64.7515857 L71.1970925,57.5055308 L71.0573963,57.500259 Z"/>
    <polygon fill="#D66565" points="60 46 70 46 66 52.398 66 82 64.039 82 64.004 52.408"/>
  </g>
</svg>
