<svg xmlns="http://www.w3.org/2000/svg" xmlns:xlink="http://www.w3.org/1999/xlink" width="128" height="128" viewBox="0 0 128 128">
  <defs>
    <rect id="application-vnd.nokia.qt.qmakeprofile-b" width="84" height="104" x="1" y="1"/>
    <filter id="application-vnd.nokia.qt.qmakeprofile-a" width="108.3%" height="106.7%" x="-4.2%" y="-2.4%" filterUnits="objectBoundingBox">
      <feOffset dy="1" in="SourceAlpha" result="shadowOffsetOuter1"/>
      <feGaussianBlur in="shadowOffsetOuter1" result="shadowBlurOuter1" stdDeviation="1"/>
      <feColorMatrix in="shadowBlurOuter1" values="0 0 0 0 0   0 0 0 0 0   0 0 0 0 0  0 0 0 0.2 0"/>
    </filter>
  </defs>
  <g fill="none" fill-rule="evenodd">
    <g transform="translate(21 11)">
      <use fill="#000" filter="url(#application-vnd.nokia.qt.qmakeprofile-a)" xlink:href="#application-vnd.nokia.qt.qmakeprofile-b"/>
      <use fill="#F9FBFB" xlink:href="#application-vnd.nokia.qt.qmakeprofile-b"/>
      <path fill="#000" fill-opacity=".2" fill-rule="nonzero" d="M86,0 L0,0 L0,106 L86,106 L86,0 Z M85,1 L85,105 L1,105 L1,1 L85,1 Z"/>
    </g>
    <path fill="#8DB479" stroke="#546C48" d="M51.953373,41.5001099 C56.3156333,41.5001099 59.6499907,43.1301356 61.9437911,46.4134173 C64.2858573,49.7657854 65.4355159,54.6478807 65.4355159,61.0430787 C65.4355159,65.7058873 64.8287544,69.5545352 63.6019981,72.5859982 C62.4022855,75.5506329 60.6087548,77.7238745 58.2076708,79.0931134 C58.3552083,81.0925511 58.92276,82.1612641 59.6510186,82.8779684 C60.4215698,83.6362942 61.3740199,84.0196412 62.5119048,84.0196412 C63.3757325,84.0196412 64.3015219,83.9399952 65.2892083,83.7798261 L65.7882093,83.6930272 L66.4046753,86.3397171 C64.9383389,86.7327692 63.4873685,86.9297974 62.0515873,86.9297974 C60.0711313,86.9297974 58.434167,86.4270297 57.1494819,85.3988153 C55.8542556,84.3621641 54.9229737,82.8005163 54.3330404,80.7302729 C53.0532052,80.496372 52.4483636,80.5587037 51.953373,80.5587037 C47.6098156,80.5587037 44.2852641,78.9283044 41.9917248,75.6453962 C39.6497427,72.2931486 38.5,67.4202077 38.5,61.0430787 C38.5,54.6651754 39.645412,49.7873458 41.9782358,46.4258024 C44.2624892,43.134248 47.5917772,41.5001099 51.953373,41.5001099 Z M51.9871589,44.5001099 C50.5768821,44.5001099 49.3362783,44.8780125 48.2629488,45.6265154 C47.2106255,46.3603693 46.3166224,47.456248 45.5931722,48.9253534 C44.2066742,51.7409054 43.5,55.7676695 43.5,61.0137038 C43.5,66.3156264 44.2030776,70.351677 45.5809375,73.130469 C46.3005632,74.5817706 47.1941887,75.6643806 48.2498523,76.3893432 C49.3242666,77.1271827 50.569165,77.5001099 51.9871589,77.5001099 C53.4291284,77.5001099 54.6889532,77.1360113 55.7696677,76.4173055 C56.8366478,75.7077335 57.7318148,74.6480419 58.4437935,73.2275743 C59.8042187,70.5133922 60.5,66.4453101 60.5,61.0137038 C60.5,55.5731825 59.8042948,51.4983924 58.4439458,48.7797466 C57.7320187,47.3569663 56.8368944,46.2955564 55.769994,45.5848307 C54.6891862,44.8648405 53.4292516,44.5001099 51.9871589,44.5001099 Z M77.5487594,41.8061165 L77.5487594,51.5001099 L83.5,51.5001099 L83.5,54.5 L77.5487594,54.5 L77.5487594,71.9804688 C77.5487594,72.9455452 77.5799966,74.3368256 78.2325809,75.2961244 C78.7033582,75.9881671 79.4725033,76.5 80.7831344,76.5 C81.3685032,76.5 81.9657304,76.4528375 82.574798,76.3581964 L82.574798,76.3581964 L83.3917472,80.5001099 L80,80.5001099 C78.7655928,80.5001099 76.2248905,80.1571668 74.4458468,78.1557427 C73.3097887,76.8776774 72.5,74.9288883 72.5,72.0001099 L72.5,72.0001099 L72.5,54.5 L68.5,54.5 L68.5,51.5001099 L72.5,51.5001099 L72.5,44.3102388 L77.5487594,41.8061165 Z"/>
    <path fill="#8DB479" stroke="#546C48" stroke-width=".5" d="M72,94.25 C73.9090809,94.25 75.2751271,94.8511422 76.2600805,96.0772781 C77.257897,97.319427 77.75,98.938453 77.75,100.929013 C77.75,103.049332 77.2082247,104.738048 76.1077401,105.987928 C75.021999,107.221062 73.6825832,107.83917 72.0880781,107.83917 C69.2632371,107.83917 68.2964576,105.097065 68.2404589,104.930877 L68.2378484,104.923006 L67.75,103.404889 L67.75,111.75 L66.25,111.75 L66.25,94.25 L67.75,94.25 L67.75,97.9351905 L68.2333364,96.6897433 C68.2333364,96.6897433 68.653681,95.6066114 69.7658767,94.8836846 C70.3244075,94.5206398 71.0578597,94.25 72,94.25 Z M71.9305556,95.5374119 C70.7042786,95.5374119 69.6978958,96.0117318 68.9116382,96.9609431 C68.1447002,97.8868308 67.75,99.2062553 67.75,100.929013 C67.75,102.12866 67.9303603,103.134699 68.2846609,103.948708 C68.6495398,104.78702 69.1696924,105.413124 69.8397137,105.831926 C70.5096625,106.250682 71.2435998,106.460263 72.0416667,106.460263 C73.2966428,106.460263 74.3132643,105.997794 75.093514,105.076957 C75.8561432,104.176916 76.25,102.861509 76.25,101.119443 C76.25,99.4812835 75.8487933,98.1500441 75.059505,97.1206455 C74.2488411,96.0633686 73.2050126,95.5374119 71.9305556,95.5374119 Z M81.7938536,94.2473728 L81.7205522,97.6192411 C82.2180082,96.272377 82.7861167,95.317367 83.4648427,94.7720151 C83.8987245,94.4233938 84.3767617,94.2473728 84.9057928,94.2473728 C85.583303,94.2473728 86.2632054,94.4433232 86.9468783,94.8299207 L86.9468783,94.8299207 L86.3336308,96.4718414 C85.8136639,96.2113454 85.3035102,96.0833103 84.8042303,96.0833103 C84.3280738,96.0833103 83.9105428,96.1922465 83.5502435,96.4053647 C83.1919491,96.617297 82.8888933,96.9333605 82.6450821,97.3576858 C82.1893875,98.1507697 81.7993475,99.5693722 81.7993541,100.996873 L81.7993541,100.996873 L81.7503729,107.75 L80.2509083,107.75 L80.2998763,94.2473728 L81.7938536,94.2473728 Z M94,94.25 C95.5840165,94.25 97.0156178,95.0028735 98.0528265,96.2129504 C99.1029233,97.4380632 99.75,99.1311623 99.75,101 C99.75,102.868838 99.1029233,104.561937 98.0528265,105.78705 C97.0156178,106.997127 95.5840165,107.75 94,107.75 C92.4159835,107.75 90.9843822,106.997127 89.9471735,105.78705 C88.8970767,104.561937 88.25,102.868838 88.25,101 C88.25,99.1311623 88.8970767,97.4380632 89.9471735,96.2129504 C90.9843822,95.0028735 92.4159835,94.25 94,94.25 Z M94,95.75 C92.8213422,95.75 91.7501737,96.3410198 90.9763557,97.3082923 C90.2205234,98.2530827 89.75,99.5575499 89.75,101 C89.75,102.44245 90.2205234,103.746917 90.9763557,104.691708 C91.7501737,105.65898 92.8213422,106.25 94,106.25 C95.1786578,106.25 96.2498263,105.65898 97.0236443,104.691708 C97.7794766,103.746917 98.25,102.44245 98.25,101 C98.25,99.5575499 97.7794766,98.2530827 97.0236443,97.3082923 C96.2498263,96.3410198 95.1786578,95.75 94,95.75 Z"/>
  </g>
</svg>
