<svg xmlns="http://www.w3.org/2000/svg" xmlns:xlink="http://www.w3.org/1999/xlink" width="128" height="128" viewBox="0 0 128 128">
  <defs>
    <rect id="application-x-smb-server-b" width="84" height="104" x="1" y="1"/>
    <filter id="application-x-smb-server-a" width="108.3%" height="106.7%" x="-4.2%" y="-2.4%" filterUnits="objectBoundingBox">
      <feOffset dy="1" in="SourceAlpha" result="shadowOffsetOuter1"/>
      <feGaussianBlur in="shadowOffsetOuter1" result="shadowBlurOuter1" stdDeviation="1"/>
      <feColorMatrix in="shadowBlurOuter1" values="0 0 0 0 0   0 0 0 0 0   0 0 0 0 0  0 0 0 0.2 0"/>
    </filter>
  </defs>
  <g fill="none" fill-rule="evenodd">
    <g transform="translate(21 11)">
      <use fill="#000" filter="url(#application-x-smb-server-a)" xlink:href="#application-x-smb-server-b"/>
      <use fill="#F9FBFB" xlink:href="#application-x-smb-server-b"/>
      <path fill="#000" fill-opacity=".2" fill-rule="nonzero" d="M86,0 L0,0 L0,106 L86,106 L86,0 Z M85,1 L85,105 L1,105 L1,1 L85,1 Z"/>
    </g>
    <path fill="#6198C4" stroke="#3A5B75" d="M87.5,76.5 L87.5,81.5 L40.5,81.5 L40.5,76.5 L87.5,76.5 Z M86.5,77.5 L73.5,77.5 L73.5,80.5 L86.5,80.5 L86.5,77.5 Z M87.5,66.5 L87.5,71.5 L40.5,71.5 L40.5,66.5 L87.5,66.5 Z M86.5,67.5 L73.5,67.5 L73.5,70.5 L86.5,70.5 L86.5,67.5 Z M87.5,56.5 L87.5,61.5 L40.5,61.5 L40.5,56.5 L87.5,56.5 Z M86.5,57.5 L73.5,57.5 L73.5,60.5 L86.5,60.5 L86.5,57.5 Z M87.5,46.5 L87.5,51.5 L40.5,51.5 L40.5,46.5 L87.5,46.5 Z M86.5,47.5 L73.5,47.5 L73.5,50.5 L86.5,50.5 L86.5,47.5 Z"/>
  </g>
</svg>
