<svg xmlns="http://www.w3.org/2000/svg" xmlns:xlink="http://www.w3.org/1999/xlink" width="128" height="128" viewBox="0 0 128 128">
  <defs>
    <rect id="application-x-iso9660-appimage-b" width="84" height="104" x="1" y="1"/>
    <filter id="application-x-iso9660-appimage-a" width="116.7%" height="113.5%" x="-8.3%" y="-4.8%" filterUnits="objectBoundingBox">
      <feOffset dy="2" in="SourceAlpha" result="shadowOffsetOuter1"/>
      <feGaussianBlur in="shadowOffsetOuter1" result="shadowBlurOuter1" stdDeviation="2"/>
      <feColorMatrix in="shadowBlurOuter1" values="0 0 0 0 0   0 0 0 0 0   0 0 0 0 0  0 0 0 0.2 0"/>
    </filter>
  </defs>
  <g fill="none" fill-rule="evenodd">
    <g transform="translate(21 11)">
      <use fill="#000" filter="url(#application-x-iso9660-appimage-a)" xlink:href="#application-x-iso9660-appimage-b"/>
      <use fill="#F9FBFB" xlink:href="#application-x-iso9660-appimage-b"/>
      <path fill="#000" fill-opacity=".2" fill-rule="nonzero" d="M86,0 L0,0 L0,106 L86,106 L86,0 Z M85,1 L85,105 L1,105 L1,1 L85,1 Z"/>
    </g>
    <path fill="#2A4052" fill-opacity=".4" stroke="#3E6F84" d="M68.8944637,42.500965 L70.4582516,47.9721911 C71.8368323,48.487224 73.1490873,49.1732805 74.3368439,50.0043225 L74.7763031,50.3227085 L75.4066225,50.811195 L80.2353412,49.1773916 L85.343072,57.0627942 L81.3580154,61.1943951 C81.5070066,62.1158837 81.6004831,63.0402377 81.6004831,64.0010324 C81.6004831,64.5210809 81.5731358,65.0303765 81.5247487,65.531667 L81.4695821,66.0303908 L81.3623322,66.811947 L85.2118333,70.1894198 L80.9478365,78.5623428 L75.3988308,77.1888004 C74.2849732,78.1118931 73.0334751,78.8935951 71.7043588,79.5089535 L71.2024191,79.7318668 L70.4561649,80.0364549 L69.4753877,85.0129614 L60.1081046,85.5004565 L58.5442961,80.0292014 C57.1653666,79.5141742 55.8524777,78.8280652 54.6649914,77.9974534 L54.2256783,77.6792524 L53.5955942,77.1910193 L48.7669016,78.8248139 L43.6591601,70.9394165 L47.6442817,66.8076107 C47.4950191,65.8861416 47.40174,64.9618074 47.40174,64.0010324 C47.40174,63.481076 47.4290929,62.9717623 47.4774844,62.4704427 L47.532655,61.9716897 L47.6399077,61.1901108 L43.7904052,57.812803 L48.0544054,49.4398737 L53.602928,50.8134791 C54.7167869,49.890367 55.9682874,49.1086713 57.2974066,48.4933154 L57.7993474,48.2704028 L58.5456044,47.9658142 L59.5269055,42.9864268 L68.8944637,42.500965 Z M68.5019198,55.5 L59.5019198,55.5 L59.5019198,65.5 L53.8435263,65.5 L64,74.6737671 L74.1564737,65.5 L68.5019198,65.5 L68.5019198,55.5 Z"/>
  </g>
</svg>
