<svg xmlns="http://www.w3.org/2000/svg" xmlns:xlink="http://www.w3.org/1999/xlink" width="128" height="128" viewBox="0 0 128 128">
  <defs>
    <rect id="application-x-rar-b" width="84" height="104" x="1" y="1"/>
    <filter id="application-x-rar-a" width="108.3%" height="106.7%" x="-4.2%" y="-2.4%" filterUnits="objectBoundingBox">
      <feOffset dy="1" in="SourceAlpha" result="shadowOffsetOuter1"/>
      <feGaussianBlur in="shadowOffsetOuter1" result="shadowBlurOuter1" stdDeviation="1"/>
      <feColorMatrix in="shadowBlurOuter1" values="0 0 0 0 0   0 0 0 0 0   0 0 0 0 0  0 0 0 0.2 0"/>
    </filter>
  </defs>
  <g fill="none" fill-rule="evenodd">
    <g transform="translate(21 11)">
      <use fill="#000" filter="url(#application-x-rar-a)" xlink:href="#application-x-rar-b"/>
      <use fill="#F9FBFB" xlink:href="#application-x-rar-b"/>
      <path fill="#000" fill-opacity=".2" fill-rule="nonzero" d="M86,0 L0,0 L0,106 L86,106 L86,0 Z M85,1 L85,105 L1,105 L1,1 L85,1 Z"/>
    </g>
    <path fill="#9C80E0" stroke="#5D4C86" d="M72,53.5 C72.4142136,53.5 72.7892136,53.6678932 73.0606602,53.9393398 C73.298176,54.1768556 73.4564087,54.4936545 73.4922557,54.8466337 L73.5,55 L73.5,71 C73.5,71.4142136 73.3321068,71.7892136 73.0606602,72.0606602 C72.8231444,72.298176 72.5063455,72.4564087 72.1533663,72.4922557 L72,72.5 L56,72.5 C55.5857864,72.5 55.2107864,72.3321068 54.9393398,72.0606602 C54.701824,71.8231444 54.5435913,71.5063455 54.5077443,71.1533663 L54.5,71 L54.5,55 C54.5,54.5857864 54.6678932,54.2107864 54.9393398,53.9393398 C55.1768556,53.701824 55.4936545,53.5435913 55.8466337,53.5077443 L56,53.5 L72,53.5 Z M72.5,54.5 L55.5,54.5 L55.5,62.5 L64.5,62.5 L64.5,63.5 L55.5,63.5 L55.5,71.5 L72.5,71.5 L72.5,54.5 Z M69.5,57.5 L69.5,68.5 L58.5,68.5 L58.5,66.5 L68.5,66.5 L68.5,59.5 L58.5,59.5 L58.5,57.5 L69.5,57.5 Z M51.5,57.5 L51.5,68.5 L22.5,68.5 L22.5,57.5 L51.5,57.5 Z M105.5,57.5 L105.5,68.5 L76.5,68.5 L76.5,57.5 L105.5,57.5 Z"/>
    <path fill="#9C80E0" stroke="#5D4C86" stroke-width=".5" d="M63.1624635,86.25 L64.8375317,86.25 L72.6153095,103.75 L70.858017,103.75 L68.9580231,99.75 L59.0419809,99.75 L57.1419794,103.75 L53.1035534,103.75 L44.7922514,95.438698 C44.708208,96.4508066 44.6950578,96.9914657 44.6921453,97.5872922 L44.6915592,97.7515538 L44.6917399,98.499244 C44.6927443,98.8877381 44.6950107,99.298313 44.6980972,99.7133571 C44.7135598,101.494633 44.733578,102.927601 44.7436507,103.596057 L44.745322,103.705999 L43.25,103.74363 L43.25,86.25 L49.990237,86.25 C51.3075107,86.25 52.49831,86.7795405 53.3593724,87.6389248 C54.2191563,88.4970332 54.75,89.6838935 54.75,91 C54.75,92.3131749 54.2182926,93.5008256 53.3573616,94.3600789 C52.5539215,95.1619532 51.4638296,95.6777712 50.2517707,95.742983 L49.990237,95.75 L47.396505,95.75 L55.3875972,103.742186 L63.1624635,86.25 Z M64.0503824,87.3268487 L59.6291069,98.25 L68.3676279,98.25 L64.0503824,87.3268487 Z M49.9805104,87.750014 L44.6657037,88.1564023 L44.6507152,88.2531316 C44.6135773,88.5348767 44.598776,89.002777 44.598776,89.5549502 C44.598776,91.2608297 44.7375887,93.7848545 44.7639995,94.25 L44.7639995,94.25 L49.990237,94.25 L50.21394,94.2425193 C51.0268766,94.1879553 51.7562209,93.8381456 52.2961829,93.2999351 C52.8860171,92.7120142 53.25,91.899176 53.25,91 C53.25,90.0979313 52.8867863,89.2857567 52.297988,88.6988683 C51.7069401,88.1097376 50.888296,87.747408 49.9805104,87.750014 L49.9805104,87.750014 Z M79.990237,86.25 C81.3075107,86.25 82.49831,86.7795405 83.3593724,87.6389248 C84.2191563,88.4970332 84.75,89.6838935 84.75,91 C84.75,92.3131749 84.2182926,93.5008256 83.3573616,94.3600789 C82.5539215,95.1619532 81.4638296,95.6777712 80.2517707,95.742983 L79.990237,95.75 L77.3964466,95.75 L85.3964466,103.75 L83.1035534,103.75 L74.7922514,95.438698 C74.708208,96.4508066 74.6950578,96.9914657 74.6921453,97.5872922 L74.6915592,97.7515538 L74.6917399,98.499244 C74.6927443,98.8877381 74.6950107,99.298313 74.6980972,99.7133571 C74.7135598,101.494633 74.733578,102.927601 74.7436507,103.596057 L74.745322,103.705999 L73.25,103.74363 L73.25,86.25 L79.990237,86.25 Z M79.9805104,87.750014 L74.6657037,88.1564023 L74.6507152,88.2531316 C74.6135773,88.5348767 74.598776,89.002777 74.598776,89.5549502 C74.598776,91.2608297 74.7375887,93.7848545 74.7639995,94.25 L74.7639995,94.25 L79.990237,94.25 L80.21394,94.2425193 C81.0268766,94.1879553 81.7562209,93.8381456 82.2961829,93.2999351 C82.8860171,92.7120142 83.25,91.899176 83.25,91 C83.25,90.0979313 82.8867863,89.2857567 82.297988,88.6988683 C81.7069401,88.1097376 80.888296,87.747408 79.9805104,87.750014 L79.9805104,87.750014 Z"/>
  </g>
</svg>
