<svg xmlns="http://www.w3.org/2000/svg" xmlns:xlink="http://www.w3.org/1999/xlink" width="128" height="128" viewBox="0 0 128 128">
  <defs>
    <rect id="application-x-dwg-b" width="84" height="104" x="1" y="1"/>
    <filter id="application-x-dwg-a" width="116.7%" height="113.5%" x="-8.3%" y="-4.8%" filterUnits="objectBoundingBox">
      <feOffset dy="2" in="SourceAlpha" result="shadowOffsetOuter1"/>
      <feGaussianBlur in="shadowOffsetOuter1" result="shadowBlurOuter1" stdDeviation="2"/>
      <feColorMatrix in="shadowBlurOuter1" values="0 0 0 0 0   0 0 0 0 0   0 0 0 0 0  0 0 0 0.2 0"/>
    </filter>
  </defs>
  <g fill="none" fill-rule="evenodd">
    <g transform="translate(21 11)">
      <use fill="#000" filter="url(#application-x-dwg-a)" xlink:href="#application-x-dwg-b"/>
      <use fill="#F9FBFB" xlink:href="#application-x-dwg-b"/>
      <path fill="#000" fill-opacity=".2" fill-rule="nonzero" d="M86,0 L0,0 L0,106 L86,106 L86,0 Z M85,1 L85,105 L1,105 L1,1 L85,1 Z"/>
    </g>
    <path fill="#6198C4" stroke="#3A5B75" d="M51.5,12.5 L51.5,64.5 L67.5,64.5 L67.5,80.5 L105.5,80.5 L105.5,83.5 L67.5,83.5 L67.5,99.5 L51.5,99.5 L51.5,115.5 L48.5,115.5 L48.5,99.5 L32.5,99.5 L32.5,83.5 L22.5,83.5 L22.5,80.5 L32.5,80.5 L32.5,64.5 L48.5,64.5 L48.5,12.5 L51.5,12.5 Z M64.5,67.5 L35.5,67.5 L35.5,96.5 L64.5,96.5 L64.5,67.5 Z M51.5,80.5 L51.5,83.5 L48.5,83.5 L48.5,80.5 L51.5,80.5 Z"/>
  </g>
</svg>
