<svg xmlns="http://www.w3.org/2000/svg" xmlns:xlink="http://www.w3.org/1999/xlink" width="128" height="128" viewBox="0 0 128 128">
  <defs>
    <rect id="application-vnd.iccprofile-b" width="84" height="104" x="1" y="1"/>
    <filter id="application-vnd.iccprofile-a" width="116.7%" height="113.5%" x="-8.3%" y="-4.8%" filterUnits="objectBoundingBox">
      <feOffset dy="2" in="SourceAlpha" result="shadowOffsetOuter1"/>
      <feGaussianBlur in="shadowOffsetOuter1" result="shadowBlurOuter1" stdDeviation="2"/>
      <feColorMatrix in="shadowBlurOuter1" values="0 0 0 0 0   0 0 0 0 0   0 0 0 0 0  0 0 0 0.2 0"/>
    </filter>
  </defs>
  <g fill="none" fill-rule="evenodd">
    <g transform="translate(21 11)">
      <use fill="#000" filter="url(#application-vnd.iccprofile-a)" xlink:href="#application-vnd.iccprofile-b"/>
      <use fill="#F9FBFB" xlink:href="#application-vnd.iccprofile-b"/>
      <path fill="#000" fill-opacity=".2" fill-rule="nonzero" d="M86,0 L0,0 L0,106 L86,106 L86,0 Z M85,1 L85,105 L1,105 L1,1 L85,1 Z"/>
    </g>
    <path fill="#9C80E0" stroke="#5D4C86" d="M79.5,72.5 L79.5,80.5000166 C79.5,80.7770492 79.3889416,81.0272949 79.2081183,81.2081183 C79.0272949,81.3889416 78.7770492,81.5 78.5000166,81.5 L78.5000166,81.5 L70.5000056,81.5 L70.5001056,72.5 L79.5,72.5 Z"/>
    <rect width="9" height="9" x="58.5" y="72.5" fill="#D96464" stroke="#823C3C"/>
    <path fill="#DD953E" stroke="#845925" d="M55.5,72.5 L55.5,81.5 L47.4998889,81.5 C47.2229219,81.5 46.9727078,81.3889164 46.7918938,81.2081024 C46.6110837,81.0272923 46.5,80.777083 46.5,80.5001111 L46.5,80.5001111 L46.5,72.5 L55.5,72.5 Z"/>
    <rect width="9" height="9" x="46.5" y="60.5" fill="#E28D54" stroke="#845925" opacity=".798"/>
    <rect width="9" height="9" x="58.5" y="60.5" fill="#D96464" stroke="#823C3C" opacity=".794"/>
    <rect width="9" height="9" x="70.5" y="60.5" fill="#9C80E0" stroke="#5D4C86" opacity=".801"/>
    <path fill="#9C80E0" stroke="#5D4C86" d="M78.5,48.5 C78.7770263,48.5 79.0272627,48.6110773 79.2080871,48.7918882 C79.3889171,48.9727049 79.5,49.2229254 79.5,49.4998889 L79.5,49.4998889 L79.5,57.5 L70.5,57.5 L70.5,48.5 Z" opacity=".598"/>
    <rect width="9" height="9" x="58.5" y="48.5" fill="#D96464" stroke="#823C3C" opacity=".596"/>
    <path fill="#E28D54" stroke="#845925" d="M55.5,48.5 L55.5,57.5 L46.5,57.5 L46.5,49.4998889 C46.5,49.2229362 46.6110999,48.9727291 46.7919145,48.7919145 C46.9727291,48.6110999 47.2229362,48.5 47.4998889,48.5 L47.4998889,48.5 L55.5,48.5 Z" opacity=".599"/>
  </g>
</svg>
