<svg xmlns="http://www.w3.org/2000/svg" xmlns:xlink="http://www.w3.org/1999/xlink" width="128" height="128" viewBox="0 0 128 128">
  <defs>
    <rect id="application-x-subrip-b" width="84" height="104" x="1" y="1"/>
    <filter id="application-x-subrip-a" width="108.3%" height="106.7%" x="-4.2%" y="-2.4%" filterUnits="objectBoundingBox">
      <feOffset dy="1" in="SourceAlpha" result="shadowOffsetOuter1"/>
      <feGaussianBlur in="shadowOffsetOuter1" result="shadowBlurOuter1" stdDeviation="1"/>
      <feColorMatrix in="shadowBlurOuter1" values="0 0 0 0 0   0 0 0 0 0   0 0 0 0 0  0 0 0 0.2 0"/>
    </filter>
  </defs>
  <g fill="none" fill-rule="evenodd">
    <g transform="translate(21 11)">
      <use fill="#000" filter="url(#application-x-subrip-a)" xlink:href="#application-x-subrip-b"/>
      <use fill="#F9FBFB" xlink:href="#application-x-subrip-b"/>
      <path fill="#000" fill-opacity=".2" fill-rule="nonzero" d="M86,0 L0,0 L0,106 L86,106 L86,0 Z M85,1 L85,105 L1,105 L1,1 L85,1 Z"/>
    </g>
    <path fill="#6198C4" stroke="#3A5B75" d="M81.9936134,37.5 C83.5161508,37.5 84.8923883,38.1148196 85.888183,39.1092669 C86.8223127,40.0421327 87.4215853,41.3089808 87.4928454,42.7152125 L87.5,42.9982596 L87.5,85.0017404 C87.5,86.5225714 86.88462,87.8964105 85.8893346,88.8903492 C84.9549312,89.8234883 83.6858346,90.4217237 82.2771531,90.4928581 L81.9936134,90.5 L46.0063866,90.5 C44.4838492,90.5 43.1076117,89.8851804 42.111817,88.8907331 C41.1776873,87.9578673 40.5784147,86.6910192 40.5071546,85.2847875 L40.5,85.0017404 L40.5,42.9982596 C40.5,41.4774286 41.11538,40.1035895 42.1106654,39.1096508 C43.0450688,38.1765117 44.3141654,37.5782763 45.7228469,37.5071419 L46.0063866,37.5 L81.9936134,37.5 Z M78,84.5 C77.3075,84.5 76.6827395,84.7791537 76.2309466,85.2309466 C75.7791537,85.6827395 75.5,86.3075 75.5,87 C75.5,87.6925 75.7791537,88.3172605 76.2309466,88.7690534 C76.6827395,89.2208463 77.3075,89.5 78,89.5 C78.6925,89.5 79.3172605,89.2208463 79.7690534,88.7690534 C80.2208463,88.3172605 80.5,87.6925 80.5,87 C80.5,86.3075 80.2208463,85.6827395 79.7690534,85.2309466 C79.3172605,84.7791537 78.6925,84.5 78,84.5 Z M81.99819,38.5 L46.00181,38.5 L45.7549189,38.5066627 C44.6105703,38.5685811 43.57931,39.0583216 42.818733,39.8188987 C42.0040855,40.6335462 41.5,41.7588635 41.5,43.00181 L41.5,43.00181 L41.5,84.9833047 L42.4472136,83.2236068 C42.513217,83.1067868 43.4655172,81.5 46,81.5 L46,81.5 L82,81.5 L82.2942867,81.5071372 C83.0595484,81.5447397 83.669705,81.7272028 84.1467636,81.9657321 C85.1588338,82.4717672 85.5527864,83.2236068 85.5527864,83.2236068 L85.5527864,83.2236068 L86.5,85.0313184 L86.5,43.00181 L86.4933373,42.7549189 C86.4314189,41.6105703 85.9416784,40.57931 85.1811013,39.818733 C84.3664538,39.0040855 83.2411365,38.5 81.99819,38.5 L81.99819,38.5 Z M53.5,75.5 L53.5,76.5 L46.5,76.5 L46.5,75.5 L53.5,75.5 Z M59.5,75.5 L59.5,76.5 L56.5,76.5 L56.5,75.5 L59.5,75.5 Z M81.5,75.5 L81.5,76.5 L62.5,76.5 L62.5,75.5 L81.5,75.5 Z M71.4780461,61.6310045 C73.77966,63.2107955 75.5274181,65.4783473 76.3344233,68.1493445 L76.434318,68.5 L51.5656821,68.5 C52.3216911,65.6766753 54.120468,63.2792571 56.5223957,61.6312611 C58.4983202,63.3435687 61.111889,64.3959508 64,64.3959508 C66.8882962,64.3959508 69.502015,63.3434337 71.4780461,61.6310045 Z M64,45.5 C66.0775,45.5 67.9527395,46.3358463 69.3084466,47.6915534 C70.6641537,49.0472605 71.5,50.9225 71.5,53 C71.5,55.0775 70.6641537,56.9527395 69.3084466,58.3084466 C67.9527395,59.6641537 66.0775,60.5 64,60.5 C61.9225,60.5 60.0472605,59.6641537 58.6915534,58.3084466 C57.3358463,56.9527395 56.5,55.0775 56.5,53 C56.5,50.9225 57.3358463,49.0472605 58.6915534,47.6915534 C60.0472605,46.3358463 61.9225,45.5 64,45.5 Z"/>
  </g>
</svg>
