<svg xmlns="http://www.w3.org/2000/svg" xmlns:xlink="http://www.w3.org/1999/xlink" width="128" height="128" viewBox="0 0 128 128">
  <defs>
    <rect id="audio-x-mp3-playlist-b" width="84" height="104" x="1" y="1"/>
    <filter id="audio-x-mp3-playlist-a" width="108.3%" height="106.7%" x="-4.2%" y="-2.4%" filterUnits="objectBoundingBox">
      <feOffset dy="1" in="SourceAlpha" result="shadowOffsetOuter1"/>
      <feGaussianBlur in="shadowOffsetOuter1" result="shadowBlurOuter1" stdDeviation="1"/>
      <feColorMatrix in="shadowBlurOuter1" values="0 0 0 0 0   0 0 0 0 0   0 0 0 0 0  0 0 0 0.2 0"/>
    </filter>
  </defs>
  <g fill="none" fill-rule="evenodd">
    <g transform="translate(21 11)">
      <use fill="#000" filter="url(#audio-x-mp3-playlist-a)" xlink:href="#audio-x-mp3-playlist-b"/>
      <use fill="#F9FBFB" xlink:href="#audio-x-mp3-playlist-b"/>
      <path fill="#000" fill-opacity=".2" fill-rule="nonzero" d="M86,0 L0,0 L0,106 L86,106 L86,0 Z M85,1 L85,105 L1,105 L1,1 L85,1 Z"/>
    </g>
    <path fill="#8DB479" stroke="#546C48" stroke-width=".5" d="M79.5042057,43.564382 C79.7872704,43.5633517 80.0591765,43.7121234 80.2687424,43.942796 C80.4871567,44.1832083 80.6392638,44.5149618 80.6711024,44.8866001 L80.6711024,44.8866001 L80.6792829,45.6313648 C81.4820737,47.5548539 82.5019423,48.7278369 84.6642873,50.1188671 L84.6642873,50.1188671 L85.4968445,50.6320469 C88.695106,53.3067638 89.9891016,54.8560186 90.6337072,56.8193634 C91.1543846,61.5328712 90.9143741,63.4966337 89.9645669,65.6676443 C89.8603581,65.8651361 89.7695676,66.0197952 89.6546097,66.0965398 C90.196175,61.8847909 90.2394563,60.2343298 89.6859694,58.7209559 C86.2551835,54.1976841 84.2094471,52.9135273 80.8236601,52.0002033 L80.8236601,52.0002033 L80.3973125,72.2341687 C80.3830659,73.4671429 79.8520501,74.7290723 78.9338742,75.8329773 C78.0244307,76.9263837 76.7347786,77.864675 75.1779797,78.4707374 C73.2559342,79.2185596 71.2901917,79.3193646 69.6651985,78.8721747 C68.0767801,78.4350501 66.8130462,77.4725441 66.2669161,76.0716568 C65.7134208,74.6505898 65.9948387,73.0248243 66.8916554,71.5950826 C67.7839456,70.172557 69.2860621,68.9417886 71.2087079,68.2787633 C73.9173435,67.3458477 76.2792133,67.421764 78.0909129,68.4173112 L78.0909129,68.4173112 L78.3772948,45.0430908 C78.3784444,44.6327013 78.5147916,44.2594487 78.7313391,43.9875043 C78.9337302,43.7333377 79.2077432,43.5654707 79.5042057,43.564382 Z M71.75,61.25 L71.75,62.75 L44.25,62.75 L44.25,61.25 L71.75,61.25 Z M71.75,49.25 L71.75,50.75 L44.25,50.75 L44.25,49.25 L71.75,49.25 Z M71.75,37.25 L71.75,38.75 L44.25,38.75 L44.25,37.25 L71.75,37.25 Z"/>
  </g>
</svg>
