<svg xmlns="http://www.w3.org/2000/svg" xmlns:xlink="http://www.w3.org/1999/xlink" width="128" height="128" viewBox="0 0 128 128">
  <defs>
    <rect id="authors-b" width="84" height="104" x="1" y="1"/>
    <filter id="authors-a" width="108.3%" height="106.7%" x="-4.2%" y="-2.4%" filterUnits="objectBoundingBox">
      <feOffset dy="1" in="SourceAlpha" result="shadowOffsetOuter1"/>
      <feGaussianBlur in="shadowOffsetOuter1" result="shadowBlurOuter1" stdDeviation="1"/>
      <feColorMatrix in="shadowBlurOuter1" values="0 0 0 0 0   0 0 0 0 0   0 0 0 0 0  0 0 0 0.2 0"/>
    </filter>
  </defs>
  <g fill="none" fill-rule="evenodd">
    <path fill="#2A4052" fill-opacity=".4" stroke="#3E6F84"/>
    <g transform="translate(21 11)">
      <use fill="#000" filter="url(#authors-a)" xlink:href="#authors-b"/>
      <use fill="#F9FBFB" xlink:href="#authors-b"/>
      <path fill="#000" fill-opacity=".2" fill-rule="nonzero" d="M86,0 L0,0 L0,106 L86,106 L86,0 Z M85,1 L85,105 L1,105 L1,1 L85,1 Z"/>
    </g>
    <path fill="#2A4052" fill-opacity=".4" stroke="#3E6F84" d="M64,48.55 C67.2308658,48.55 70.1558658,49.8595671 72.2731493,51.9768507 C74.3904329,54.0941342 75.7,57.0191342 75.7,60.25 C75.7,64.5288505 73.403043,68.2711227 69.9751167,70.3114223 C69.5851231,70.5435462 69.1827456,70.7522986 68.7711454,70.9369098 C69.2172856,71.0193545 69.6640702,71.1159295 70.110766,71.2264426 C74.1497641,72.2256958 77.6638598,74.2364114 80.1073196,77.1317285 C82.3625465,79.8040037 83.7,83.2291709 83.7,87.2934783 C83.7,87.4392997 83.6562694,87.574895 83.5811108,87.6875499 L83.5190413,87.767541 L45,88 C44.807009,88 44.6324123,87.9211413 44.5059821,87.794024 C44.3785737,87.6659232 44.3,87.4888902 44.3,87.2934783 C44.3,83.2407747 45.6415056,79.8208293 47.8975665,77.1495073 C50.3457733,74.2506721 53.8643052,72.2340212 57.8967332,71.2302373 C58.3427024,71.1192231 58.7889274,71.0220987 59.2340701,70.9387981 C58.8224012,70.7546815 58.4207365,70.5465926 58.0313902,70.315215 C54.5999496,68.2760058 52.3,64.5316394 52.3,60.25 C52.3,57.0191342 53.6095671,54.0941342 55.7268507,51.9768507 C57.8441342,49.8595671 60.7691342,48.55 64,48.55 Z M63.2129815,71.9262017 C58.5535595,72.0668617 54.299885,73.4652653 51.1568324,75.9224337 C48.0522679,78.349513 46.0184704,81.805837 45.700757,86.517743 L45.700757,86.517743 L47.1445329,86.5169597 L48.973869,86.5159674 L50.8282762,86.5149614 L52.6123883,86.5139935 L54.5949747,86.512918 L56.4925019,86.5118886 L57.7303922,86.5112171 L58.2348701,86.5109434 L60.0346605,86.5099671 L61.3452608,86.5092561 L61.8736025,86.5089695 L63.7334253,86.5079606 L65.0645335,86.5072385 L65.5958581,86.5069502 L67.4426304,86.5059484 L68.7420445,86.5052435 L69.2554714,86.5049649 L71.2623033,86.5038763 L72.9409104,86.5029657 L74.7463915,86.5019862 L76.6009764,86.5009801 L78.5590953,86.4999179 L80.3441839,86.4989495 L82.31793,86.4978788 L82.1898375,85.4158152 L82.1365606,85.0158628 C81.5722593,81.1748037 79.5842016,78.0647806 76.666734,75.8380482 C73.5274981,73.4420531 69.3037988,72.0710932 64.5843565,71.9356722 C64.3907698,71.9451875 64.195947,71.95 64,71.95 C63.7511864,71.95 63.5041856,71.9422403 63.2129815,71.9262017 Z M64,49.95 C61.1557335,49.95 58.5807335,51.1028668 56.7168002,52.9668002 C54.8528668,54.8307335 53.7,57.4057335 53.7,60.25 C53.7,62.9334354 54.7262034,65.3771724 56.4075042,67.2102577 C58.1031828,69.0590189 60.4653339,70.2863666 63.1730541,70.5138285 C63.4475853,70.5042583 63.723288,70.5 64,70.5 C64.2777753,70.5 64.5544792,70.5042412 64.8877623,70.5111202 C67.5353097,70.2855072 69.8972021,69.0584189 71.5927036,67.2098846 C73.2738816,65.3769665 74.3,62.9333233 74.3,60.25 C74.3,57.4057335 73.1471332,54.8307335 71.2831998,52.9668002 C69.4192665,51.1028668 66.8442665,49.95 64,49.95 Z"/>
  </g>
</svg>
