<svg xmlns="http://www.w3.org/2000/svg" xmlns:xlink="http://www.w3.org/1999/xlink" width="128" height="128" viewBox="0 0 128 128">
  <defs>
    <rect id="encrypted-b" width="84" height="104" x="1" y="1"/>
    <filter id="encrypted-a" width="108.3%" height="106.7%" x="-4.2%" y="-2.4%" filterUnits="objectBoundingBox">
      <feOffset dy="1" in="SourceAlpha" result="shadowOffsetOuter1"/>
      <feGaussianBlur in="shadowOffsetOuter1" result="shadowBlurOuter1" stdDeviation="1"/>
      <feColorMatrix in="shadowBlurOuter1" values="0 0 0 0 0   0 0 0 0 0   0 0 0 0 0  0 0 0 0.2 0"/>
    </filter>
  </defs>
  <g fill="none" fill-rule="evenodd">
    <g transform="translate(21 11)">
      <use fill="#000" filter="url(#encrypted-a)" xlink:href="#encrypted-b"/>
      <use fill="#F9FBFB" xlink:href="#encrypted-b"/>
      <path fill="#000" fill-opacity=".2" fill-rule="nonzero" d="M86,0 L0,0 L0,106 L86,106 L86,0 Z M85,1 L85,105 L1,105 L1,1 L85,1 Z"/>
    </g>
    <path fill="#2A4052" fill-opacity=".4" stroke="#3E6F84" d="M63.98104,39.5 C66.6018697,39.5 68.9755122,40.5131009 70.6933395,42.1539668 C72.4026814,43.7867273 73.46208,46.0417607 73.46208,48.5338731 C73.46208,50.3565164 72.9086502,52.1515324 71.9505548,53.6707821 C70.9308217,55.2877705 69.4516273,56.5939768 67.6851242,57.2809221 L67.6851242,57.2809221 L73.472371,86.8237101 C73.5573058,87.2358439 73.4432824,87.6618366 73.165238,87.9864435 C72.8778094,88.3220062 72.4477596,88.5147312 71.9970626,88.5168764 L71.9970626,88.5168764 L56.0297722,88.5168821 C55.5767016,88.5147312 55.1466518,88.3220062 54.8592232,87.9864435 C54.5811788,87.6618366 54.4671554,87.2358439 54.5530554,86.8189078 L54.5530554,86.8189078 L60.3393167,57.2810239 C58.5675153,56.5910182 57.066811,55.2769332 56.029954,53.650566 C55.0642872,52.1358644 54.5,50.3486775 54.5,48.5338731 C54.5,46.0417607 55.5593987,43.7867273 57.2687405,42.1539668 C58.9865679,40.5131009 61.3602103,39.5 63.98104,39.5 Z"/>
  </g>
</svg>
