<svg xmlns="http://www.w3.org/2000/svg" xmlns:xlink="http://www.w3.org/1999/xlink" width="128" height="128" viewBox="0 0 128 128">
  <defs>
    <rect id="extension-b" width="84" height="104" x="1" y="1"/>
    <filter id="extension-a" width="108.3%" height="106.7%" x="-4.2%" y="-2.4%" filterUnits="objectBoundingBox">
      <feOffset dy="1" in="SourceAlpha" result="shadowOffsetOuter1"/>
      <feGaussianBlur in="shadowOffsetOuter1" result="shadowBlurOuter1" stdDeviation="1"/>
      <feColorMatrix in="shadowBlurOuter1" values="0 0 0 0 0   0 0 0 0 0   0 0 0 0 0  0 0 0 0.2 0"/>
    </filter>
  </defs>
  <g fill="none" fill-rule="evenodd">
    <g transform="translate(21 11)">
      <use fill="#000" filter="url(#extension-a)" xlink:href="#extension-b"/>
      <use fill="#F9FBFB" xlink:href="#extension-b"/>
      <path fill="#000" fill-opacity=".2" fill-rule="nonzero" d="M86,0 L0,0 L0,106 L86,106 L86,0 Z M85,1 L85,105 L1,105 L1,1 L85,1 Z"/>
    </g>
    <path fill="#8DB479" stroke="#546C48" d="M62.4901961,41.5 C63.9963589,41.5 65.3630664,41.9158209 66.3511778,42.599898 C67.260158,43.229192 67.8529412,44.0893042 67.8530129,45.0503562 C67.8440076,45.5820435 67.4072687,46.3438027 67.1376203,46.8403502 C66.3875941,47.906553 66.0433165,48.6161141 65.8783937,49.2025061 C65.5861768,50.2414997 65.8286682,50.9482555 66.1518657,51.4215686 L66.1518657,51.4215686 L76.4705882,51.4215686 C77.3314608,51.4215686 78.108661,51.7676894 78.6704858,52.3295142 C79.2323106,52.891339 79.5784314,53.6685392 79.5784314,54.5294118 L79.5784314,54.5294118 L79.5784314,65.7500951 C80.0517445,66.0732926 80.7585003,66.315784 81.7974939,66.0235671 C82.3957802,65.855299 83.1200433,65.5006538 83.9912577,64.8471941 C84.3097424,64.6020423 85.2301186,64.1412949 85.9693718,64.0491868 C86.9273681,64.0605548 87.7769151,64.6506241 88.400102,65.550783 C89.0841791,66.5388944 89.5,67.9056019 89.5,69.4117647 C89.5,70.9179275 89.0841791,72.284635 88.400102,73.2727464 C87.770808,74.1817266 86.9106958,74.7745098 85.9496438,74.7745815 C85.4179565,74.7655762 84.6561973,74.3288373 84.1596498,74.0591889 C83.093447,73.3091627 82.3838859,72.9648851 81.7974939,72.7999624 C80.7585003,72.5077454 80.0517445,72.7502369 79.5784314,73.0734343 L79.5784314,73.0734343 L79.5784314,83.3921569 C79.5784314,84.2530294 79.2323106,85.0302297 78.6704858,85.5920545 C78.108661,86.1538792 77.3314608,86.5 76.4705882,86.5 L76.4705882,86.5 L70.3931403,86.5 C70.334999,86.2456511 70.3418404,85.9322961 70.4488878,85.5516831 C70.5924087,85.0413866 70.9058826,84.4294115 71.4588235,83.6921569 C71.9557568,82.7832225 72.4494907,81.8082309 72.4607843,81.1372549 C72.4607843,79.8651481 71.7411473,78.6958485 70.5282309,77.8561372 C69.394446,77.0712092 67.8297811,76.5784314 66.0980392,76.5784314 C64.3662973,76.5784314 62.8016324,77.0712092 61.6678475,77.8561372 C60.4549312,78.6958485 59.7352941,79.8651481 59.7352941,81.1372549 C59.843055,82.1220973 60.4311307,83.2945251 60.7372549,83.6921569 C61.2901959,84.4294115 61.6036697,85.0413866 61.7471906,85.5516831 C61.854238,85.9322961 61.8610795,86.2456511 61.8029382,86.5 L61.8029382,86.5 L47.6078431,86.5 C46.7469706,86.5 45.9697703,86.1538792 45.4079455,85.5920545 C44.8461208,85.0302297 44.5,84.2530294 44.5,83.3921569 L44.5,83.3921569 L44.5,71.9029442 C44.7543489,71.8448029 45.0677039,71.8516443 45.4483169,71.9586917 C45.9586134,72.1022126 46.5705885,72.4156865 47.3078431,72.9686275 C48.2167775,73.4655607 49.1917691,73.9592947 49.8627451,73.9705882 C51.1348519,73.9705882 52.3041515,73.2509512 53.1438628,72.0380348 C53.9287908,70.9042499 54.4215686,69.339585 54.4215686,67.6078431 C54.4215686,65.8761012 53.9287908,64.3114364 53.1438628,63.1776514 C52.3041515,61.9647351 51.1348519,61.245098 49.8627451,61.245098 C48.8779027,61.3528589 47.7054749,61.9409347 47.3078431,62.2470588 C46.5705885,62.7999998 45.9586134,63.1134737 45.4483169,63.2569945 C45.0677039,63.364042 44.7543489,63.3708834 44.5,63.3127421 L44.5,63.3127421 L44.5,54.5294118 C44.5,53.6685392 44.8461208,52.891339 45.4079455,52.3295142 C45.9697703,51.7676894 46.7469706,51.4215686 47.6078431,51.4215686 L47.6078431,51.4215686 L58.8285265,51.4215686 C59.1517239,50.9482555 59.3942154,50.2414997 59.1019984,49.2025061 C58.9337304,48.6042198 58.5790852,47.8799567 57.9256254,47.0087423 C57.6804737,46.6902576 57.2197263,45.7698814 57.1276182,45.0306282 C57.1389862,44.0726319 57.7290555,43.2230849 58.6292144,42.599898 C59.6173257,41.9158209 60.9840333,41.5 62.4901961,41.5 Z"/>
  </g>
</svg>
