<svg xmlns="http://www.w3.org/2000/svg" xmlns:xlink="http://www.w3.org/1999/xlink" width="128" height="128" viewBox="0 0 128 128">
  <defs>
    <rect id="image-jpeg-b" width="84" height="104" x="1" y="1"/>
    <filter id="image-jpeg-a" width="108.3%" height="106.7%" x="-4.2%" y="-2.4%" filterUnits="objectBoundingBox">
      <feOffset dy="1" in="SourceAlpha" result="shadowOffsetOuter1"/>
      <feGaussianBlur in="shadowOffsetOuter1" result="shadowBlurOuter1" stdDeviation="1"/>
      <feColorMatrix in="shadowBlurOuter1" values="0 0 0 0 0   0 0 0 0 0   0 0 0 0 0  0 0 0 0.2 0"/>
    </filter>
  </defs>
  <g fill="none" fill-rule="evenodd">
    <g transform="translate(21 11)">
      <use fill="#000" filter="url(#image-jpeg-a)" xlink:href="#image-jpeg-b"/>
      <use fill="#F9FBFB" xlink:href="#image-jpeg-b"/>
      <path fill="#000" fill-opacity=".2" fill-rule="nonzero" d="M86,0 L0,0 L0,106 L86,106 L86,0 Z M85,1 L85,105 L1,105 L1,1 L85,1 Z"/>
    </g>
    <path fill="#79B4A8" stroke="#486C64" stroke-width=".5" d="M85.75 36.25L85.75 71.75 42.1646667 71.75 42.1646667 36.25 85.75 36.25zM84.25 37.75L43.75 37.75 43.75 70.25 84.25 70.25 84.25 37.75zM58.9922717 42.574616L65.9922373 57.5745423 70.0254282 49.5081605 81.546416 67.7364976 46.4045752 67.7577552 58.9922717 42.574616zM47.75 78.2524997L47.75 87.9996703C47.75 89.0323722 47.2237665 89.9618699 46.3817185 90.6355638 45.5181717 91.3264582 44.3231446 91.75 43 91.75 41.7188894 91.75 40.5540693 91.3519381 39.695583 90.6946922 38.9265376 90.1059212 38.4036562 89.3080582 38.2788135 88.4055311L38.2788135 88.4055311 39.7679106 88.2885688C39.8417701 88.8340576 40.1444737 89.3219841 40.6835938 89.6778808 41.2140548 90.0280612 41.9842468 90.25 43 90.25 43.9776396 90.25 44.7277516 90.0477037 45.2551946 89.7221917 45.8763928 89.3388187 46.2021922 88.7852692 46.2451958 88.1604395L46.2451958 88.1604395 46.2498828 78.2674251 47.75 78.2524997zM71.75 78.25L71.75 79.75 63.75 79.75 63.75 84.25 69.75 84.25 69.75 85.75 63.75 85.75 63.75 90.25 71.75 90.25 71.75 91.75 62.25 91.75 62.25 78.25 71.75 78.25zM79 78.25C80.2568 78.25 81.4188116 78.6405795 82.3646351 79.3047754 83.2374585 79.9177076 83.9262588 80.763568 84.3348365 81.75L84.3348365 81.75 82.6801566 81.75C82.3191832 81.1614751 81.8039634 80.6678337 81.1855767 80.3181833 80.5477267 79.9575279 79.8001313 79.75 79 79.75 77.8223468 79.75 76.7626185 80.1955672 75.9966285 80.9160198 75.2243749 81.6423637 74.75 82.6478566 74.75 83.7622038L74.75 83.7622038 74.75 86.2377962C74.75 87.3503617 75.2258299 88.355248 75.998224 89.0817239 76.7655529 89.8034358 77.8261139 90.25 79 90.25 80.1776532 90.25 81.2373815 89.8044328 82.0033715 89.0839802 82.7238079 88.406373 83.1849991 87.4858211 83.2436461 86.4605881L83.2436461 86.4605881 84.75 86.2814854 84.75 91.75 83.25 91.75 83.25 89.851932C83.0365947 90.1337708 82.8685962 90.299065 82.8279152 90.3376682 82.7010696 90.4580351 81.2793574 91.75 79 91.75 77.4095334 91.75 75.9708052 91.1244073 74.9300108 90.110548 73.891954 89.0993555 73.25 87.7018019 73.25 86.1552765L73.25 86.1552765 73.25 83.8447235C73.25 82.2971781 73.8904808 80.898569 74.9288152 79.8871061 75.9682201 78.8746005 77.4059783 78.25 79 78.25zM56 78.25C57.1918884 78.25 58.0848163 78.6415624 58.6981904 79.2549365 59.4167936 79.9735397 59.75 80.9881441 59.75 82 59.75 83.0133398 59.4213817 84.0296151 58.702535 84.7484619 58.1345964 85.3164005 57.3242404 85.6931671 56.2520783 85.7440933L56 85.75 51.7523122 85.75 51.7523122 91.75 50.25 91.75 50.25 78.25 56 78.25zM56 79.75L51.75 79.75 51.75 84.25 56 84.25 56.1855918 84.2425803C56.7361168 84.1983471 57.2278852 83.9589122 57.5932654 83.5935319 57.9996678 83.1871296 58.25 82.6245902 58.25 82 58.25 81.3747254 57.99951 80.8127126 57.5935319 80.4067346 57.1871296 80.0003322 56.6245902 79.75 56 79.75L56 79.75z"/>
  </g>
</svg>
