<svg xmlns="http://www.w3.org/2000/svg" xmlns:xlink="http://www.w3.org/1999/xlink" width="128" height="128" viewBox="0 0 128 128">
  <defs>
    <rect id="phatch-actionlist-b" width="84" height="104" x="1" y="1"/>
    <filter id="phatch-actionlist-a" width="108.3%" height="106.7%" x="-4.2%" y="-2.4%" filterUnits="objectBoundingBox">
      <feOffset dy="1" in="SourceAlpha" result="shadowOffsetOuter1"/>
      <feGaussianBlur in="shadowOffsetOuter1" result="shadowBlurOuter1" stdDeviation="1"/>
      <feColorMatrix in="shadowBlurOuter1" values="0 0 0 0 0   0 0 0 0 0   0 0 0 0 0  0 0 0 0.2 0"/>
    </filter>
  </defs>
  <g fill="none" fill-rule="evenodd">
    <g transform="translate(21 11)">
      <use fill="#000" filter="url(#phatch-actionlist-a)" xlink:href="#phatch-actionlist-b"/>
      <use fill="#F9FBFB" xlink:href="#phatch-actionlist-b"/>
      <path fill="#000" fill-opacity=".2" fill-rule="nonzero" d="M86,0 L0,0 L0,106 L86,106 L86,0 Z M85,1 L85,105 L1,105 L1,1 L85,1 Z"/>
    </g>
    <path fill="#2A4052" fill-opacity=".4" stroke="#3E6F84" d="M95.3495533,69.2624134 C90.971291,73.2433511 76.0621025,79.5 60.9834223,79.5 C46.8163787,79.5 34.5163046,70.6177504 32.5777388,69.1472845 C33.187877,67.3869842 36.6879337,59.6364663 44.1427483,54.1505056 C48.3972565,51.0196344 53.9454817,48.6278078 60.9921667,48.5045593 C79.4707989,48.1813401 92.4904524,65.0684408 95.3495533,69.2624134 Z M62.009478,49.5001683 C61.0230236,49.5001683 60.0480305,49.6082764 59.1208514,49.7926213 L59.1208514,49.7926213 L59.1208514,52.7892839 L58.7297187,52.8991142 C57.8241105,53.1714854 56.9681079,53.5554676 56.1693119,54.0281201 L56.1693119,54.0281201 L54.0326283,51.8928911 L53.6589426,52.1473078 C52.1814693,53.1879899 50.9128664,54.5025756 49.9120434,56.0088551 L49.9120434,56.0088551 L52.0497631,58.145122 L51.8526084,58.490665 C51.4055642,59.3049908 51.0504967,60.1753677 50.8103591,61.0942132 L50.8103591,61.0942132 L47.7940021,61.0942132 L47.705687,61.5680851 C47.5710938,62.3608197 47.5,63.1688316 47.5,64.0001683 C47.5,64.9982448 47.6025752,65.9895345 47.7943872,66.9250619 L47.7943872,66.9250619 L50.810358,66.9250619 L50.9202436,67.3158672 C51.1927496,68.2207181 51.5769066,69.0760102 52.0497609,69.8741545 L52.0497609,69.8741545 L49.9124169,72.0100469 L50.1682336,72.3835641 C51.2148583,73.8588509 52.5392753,75.1080957 54.0513285,76.1077058 L54.0513285,76.1077058 L56.1693147,73.9911525 L56.5151358,74.1882208 C57.3301207,74.6350697 58.2012265,74.9899844 59.1208514,75.2299935 L59.1208514,75.2299935 L59.1208514,78.2077161 L59.5882578,78.2933796 C60.3733466,78.4250773 61.1874249,78.5001683 62.009478,78.5001683 C63.0188833,78.5001588 64.0034021,78.4030832 64.9549796,78.2047867 L64.9549796,78.2047867 L64.9549796,75.229994 L65.3458851,75.1202346 C66.2509714,74.8480462 67.1065115,74.4643668 67.9049168,73.9921038 L67.9049168,73.9921038 L69.9859402,76.0907911 L70.3590413,75.8346713 C71.8365089,74.788718 73.1314184,73.4862895 74.1244417,71.9711114 L74.1244417,71.9711114 L72.0260729,69.8741531 L72.2232255,69.5286123 C72.6702651,68.7142914 73.0253292,67.8439165 73.2654702,66.9250619 L73.2654702,66.9250619 L76.2056086,66.9250619 L76.294018,66.4528843 C76.4287669,65.6589251 76.5,64.8318778 76.5,64.0001683 C76.5,63.002592 76.3976,62.0385523 76.2060086,61.0942132 L76.2060086,61.0942132 L73.2654703,61.0942132 L73.1555836,60.7034081 C72.8830759,59.7985582 72.4989234,58.9432691 72.0260738,58.1451212 L72.0260738,58.1451212 L74.1248177,56.047796 L73.8703709,55.674404 C72.8293411,54.196373 71.5118169,52.9076105 70.0046272,51.909828 L70.0046272,51.909828 L67.9049282,54.0271812 L67.5592774,53.8302747 C66.7446999,53.3837913 65.8740711,53.0291552 64.9549796,52.7892825 L64.9549796,52.7892825 L64.9549796,49.8126941 L64.4764856,49.7237179 C63.6745361,49.5855479 62.8506084,49.5001683 62.009478,49.5001683 Z M61.9905145,58.0590317 C63.6339963,58.0590389 65.1262541,58.7254732 66.2071831,59.802503 C67.2858431,60.877272 67.9549721,62.3611751 67.9549721,64.0001683 C67.9549721,65.6391664 67.2858423,67.1230744 66.207181,68.1978449 C65.1262527,69.2748742 63.6339967,69.9413058 61.9905145,69.9413058 C60.3488425,69.941313 58.8624281,69.2762052 57.7864358,68.2009407 C56.7105626,67.1257954 56.0450191,65.6405638 56.0450191,64.0001683 C56.0450191,62.359781 56.710563,60.8745536 57.7864361,59.7994085 C58.862429,58.7241436 60.348844,58.0590317 61.9905145,58.0590317 Z"/>
  </g>
</svg>
