<svg xmlns="http://www.w3.org/2000/svg" xmlns:xlink="http://www.w3.org/1999/xlink" width="128" height="128" viewBox="0 0 128 128">
  <defs>
    <rect id="qgis-qgs-b" width="84" height="104" x="1" y="1"/>
    <filter id="qgis-qgs-a" width="116.7%" height="113.5%" x="-8.3%" y="-4.8%" filterUnits="objectBoundingBox">
      <feOffset dy="2" in="SourceAlpha" result="shadowOffsetOuter1"/>
      <feGaussianBlur in="shadowOffsetOuter1" result="shadowBlurOuter1" stdDeviation="2"/>
      <feColorMatrix in="shadowBlurOuter1" values="0 0 0 0 0   0 0 0 0 0   0 0 0 0 0  0 0 0 0.2 0"/>
    </filter>
  </defs>
  <g fill="none" fill-rule="evenodd">
    <g transform="translate(21 11)">
      <use fill="#000" filter="url(#qgis-qgs-a)" xlink:href="#qgis-qgs-b"/>
      <use fill="#F9FBFB" xlink:href="#qgis-qgs-b"/>
      <path fill="#000" fill-opacity=".2" fill-rule="nonzero" d="M86,0 L0,0 L0,106 L86,106 L86,0 Z M85,1 L85,105 L1,105 L1,1 L85,1 Z"/>
    </g>
    <path fill="#DD953E" stroke="#845925" d="M79.5,45.2071068 L79.5,79.5 L45.2071068,79.5 L79.5,45.2071068 Z" transform="matrix(0 -1 -1 0 124 124)"/>
    <path fill="#6198C4" stroke="#3A5B75" d="M63,65.7071066 L80.7928932,83.4999998 L45.2071068,83.4999998 L63,65.7071066 Z"/>
    <path fill="#8DB479" stroke="#546C48" d="M83.4999998,45.2071068 L83.4999998,80.7928932 L65.7071066,63 L83.4999998,45.2071068 Z"/>
  </g>
</svg>
