<svg xmlns="http://www.w3.org/2000/svg" xmlns:xlink="http://www.w3.org/1999/xlink" width="128" height="128" viewBox="0 0 128 128">
  <defs>
    <rect id="qgis-mime-b" width="84" height="104" x="1" y="1"/>
    <filter id="qgis-mime-a" width="116.7%" height="113.5%" x="-8.3%" y="-4.8%" filterUnits="objectBoundingBox">
      <feOffset dy="2" in="SourceAlpha" result="shadowOffsetOuter1"/>
      <feGaussianBlur in="shadowOffsetOuter1" result="shadowBlurOuter1" stdDeviation="2"/>
      <feColorMatrix in="shadowBlurOuter1" values="0 0 0 0 0   0 0 0 0 0   0 0 0 0 0  0 0 0 0.2 0"/>
    </filter>
  </defs>
  <g fill="none" fill-rule="evenodd">
    <g transform="translate(21 11)">
      <use fill="#000" filter="url(#qgis-mime-a)" xlink:href="#qgis-mime-b"/>
      <use fill="#F9FBFB" xlink:href="#qgis-mime-b"/>
      <path fill="#000" fill-opacity=".2" fill-rule="nonzero" d="M86,0 L0,0 L0,106 L86,106 L86,0 Z M85,1 L85,105 L1,105 L1,1 L85,1 Z"/>
    </g>
    <g transform="translate(40 38)">
      <path fill="#8DB479" stroke="#546C48" d="M24,0.5 C30.4893458,0.5 36.3643458,3.13032709 40.6170094,7.38299064 C44.8696729,11.6356542 47.5,17.5106542 47.5,24 C47.5,28.2459494 46.3740821,32.228954 44.4042624,35.6665449 L44.4042624,35.6665449 L37.6476667,28.9093606 C38.1992796,27.3761625 38.5,25.7232011 38.5,24 C38.5,19.9959356 36.8770322,16.3709356 34.2530483,13.7469517 C31.6290644,11.1229678 28.0040644,9.5 24,9.5 C19.9959356,9.5 16.3709356,11.1229678 13.7469517,13.7469517 C11.1229678,16.3709356 9.5,19.9959356 9.5,24 C9.5,28.0040644 11.1229678,31.6290644 13.7469517,34.2530483 C16.3709356,36.8770322 19.9959356,38.5 24,38.5 C24.5635095,38.5 25.1195076,38.4678331 25.666261,38.4052542 L25.666261,38.4052542 L32.9827199,45.7222485 C30.2153358,46.8679186 27.1814784,47.5 24,47.5 C17.5106542,47.5 11.6356542,44.8696729 7.38299064,40.6170094 C3.13032709,36.3643458 0.5,30.4893458 0.5,24 C0.5,17.5106542 3.13032709,11.6356542 7.38299064,7.38299064 C11.6356542,3.13032709 17.5106542,0.5 24,0.5 Z"/>
      <path fill="#D66565" stroke="#7F3C3C" d="M26.9962762,22.5 L47.5019055,43.0056179 L47.5019055,49.5235016 L41.0122408,49.5085064 L26.5737594,35.0700052 L21.5321652,30.0284665 L20.5,28.9759947 L20.5,22.5 L26.9962762,22.5 Z"/>
      <path fill="#8DB479" stroke="#546C48" d="M35.987964,31.5015869 L47.5019055,43.005741 L47.5019055,49.5235016 L41.0122433,49.5085064 L30.3736121,38.8696755 L29.5193481,38.0081513 L29.5193481,31.5015869 L35.987964,31.5015869 Z"/>
      <path fill="#E28D54" stroke="#865432" d="M32.9976785,28.5 L33.6294995,29.1332165 L35.996,31.5 L29.5185658,31.5 L29.518,38.014 L27.1328295,35.629113 L26.5,34.9976592 L26.5,28.5 L32.9976785,28.5 Z"/>
    </g>
  </g>
</svg>
