<svg xmlns="http://www.w3.org/2000/svg" xmlns:xlink="http://www.w3.org/1999/xlink" width="128" height="128" viewBox="0 0 128 128">
  <defs>
    <rect id="text-r-b" width="84" height="104" x="1" y="1"/>
    <filter id="text-r-a" width="116.7%" height="113.5%" x="-8.3%" y="-4.8%" filterUnits="objectBoundingBox">
      <feOffset dy="2" in="SourceAlpha" result="shadowOffsetOuter1"/>
      <feGaussianBlur in="shadowOffsetOuter1" result="shadowBlurOuter1" stdDeviation="2"/>
      <feColorMatrix in="shadowBlurOuter1" values="0 0 0 0 0   0 0 0 0 0   0 0 0 0 0  0 0 0 0.2 0"/>
    </filter>
  </defs>
  <g fill="none" fill-rule="evenodd">
    <g transform="translate(21 11)">
      <use fill="#000" filter="url(#text-r-a)" xlink:href="#text-r-b"/>
      <use fill="#F9FBFB" xlink:href="#text-r-b"/>
      <path fill="#000" fill-opacity=".2" fill-rule="nonzero" d="M86,0 L0,0 L0,106 L86,106 L86,0 Z M85,1 L85,105 L1,105 L1,1 L85,1 Z"/>
    </g>
    <path fill="#6198C4" stroke="#3A5B75" d="M52.5,44.5 L64.5708008,44.5 C68.6425564,44.5 72.0047504,45.358453 74.2941633,47.2403831 C76.3971953,48.9691054 77.5655738,51.5625952 77.5655738,55.0928962 C77.5655738,57.936322 76.7978119,60.0864233 75.3998595,61.6824045 C73.7991779,63.5098328 71.3908641,64.6063568 68.442905,65.2298501 L68.0375909,65.3119641 L78.2496671,83.5 L74.3160255,83.5 L64.3160255,65.5042971 L55.5,65.5042971 L55.5,83.5 L52.5,83.5 L52.5,44.5 Z M67,47.5 L55.5,47.5 L55.5,62.5 L67,62.5 L67.3091495,62.4937442 C69.2572734,62.414759 71.0139295,61.5926723 72.3033009,60.3033009 C73.6605339,58.9460678 74.5,57.0710678 74.5,55 C74.5,52.9289322 73.6605339,51.0539322 72.3033009,49.6966991 C70.9460678,48.3394661 69.0710678,47.5 67,47.5 L67,47.5 Z"/>
  </g>
</svg>
