<svg xmlns="http://www.w3.org/2000/svg" xmlns:xlink="http://www.w3.org/1999/xlink" width="128" height="128" viewBox="0 0 128 128">
  <defs>
    <rect id="text-x-hex-b" width="84" height="104" x="1" y="1"/>
    <filter id="text-x-hex-a" width="108.3%" height="106.7%" x="-4.2%" y="-2.4%" filterUnits="objectBoundingBox">
      <feOffset dy="1" in="SourceAlpha" result="shadowOffsetOuter1"/>
      <feGaussianBlur in="shadowOffsetOuter1" result="shadowBlurOuter1" stdDeviation="1"/>
      <feColorMatrix in="shadowBlurOuter1" values="0 0 0 0 0   0 0 0 0 0   0 0 0 0 0  0 0 0 0.2 0"/>
    </filter>
  </defs>
  <g fill="none" fill-rule="evenodd">
    <g transform="translate(21 11)">
      <use fill="#000" filter="url(#text-x-hex-a)" xlink:href="#text-x-hex-b"/>
      <use fill="#F9FBFB" xlink:href="#text-x-hex-b"/>
      <path fill="#000" fill-opacity=".2" fill-rule="nonzero" d="M86,0 L0,0 L0,106 L86,106 L86,0 Z M85,1 L85,105 L1,105 L1,1 L85,1 Z"/>
    </g>
    <path fill="#2A4052" fill-opacity=".4" stroke="#3E6F84" stroke-width=".5" d="M75.0040237,43.25 C75.1952228,43.2500338 75.3697136,43.3215904 75.5021503,43.4394166 C75.6067267,43.532456 75.6851804,43.6542939 75.7248798,43.7925331 L75.7471906,43.8990941 L75.7520522,55.2520785 L86.0001326,55.2538911 C86.2072394,55.2539277 86.3947246,55.3379075 86.5304239,55.4736548 C86.6661232,55.6094021 86.7500366,55.7969169 86.75,56.0040237 C86.7499662,56.1952228 86.6784096,56.3697136 86.5605834,56.5021503 C86.4675428,56.606728 86.345703,56.6851824 86.2074616,56.7248813 L86.1008989,56.7471915 L75.7516356,56.7522447 L75.7483636,75.2520779 L86.0001326,75.2538911 C86.2072394,75.2539277 86.3947246,75.3379075 86.5304239,75.4736548 C86.6661232,75.6094021 86.7500366,75.7969169 86.75,76.0040237 C86.7499662,76.1952228 86.6784096,76.3697136 86.5605834,76.5021503 C86.4675428,76.606728 86.3457031,76.6851824 86.2074616,76.7248813 L86.1008989,76.7471915 L75.7480983,76.752244 L75.7461089,88.0001326 C75.7460723,88.2072394 75.6620925,88.3947246 75.5263452,88.5304239 C75.3905979,88.6661232 75.2030831,88.7500366 74.9959763,88.75 C74.8047772,88.7499662 74.6302864,88.6784096 74.4978497,88.5605834 C74.3932733,88.467544 74.3148196,88.3457061 74.2751202,88.2074668 L74.2528094,88.1009058 L74.2479471,76.7518125 L53.748099,76.7481868 L53.7461089,88.0001326 C53.7460723,88.2072394 53.6620925,88.3947246 53.5263452,88.5304239 C53.3905979,88.6661232 53.2030831,88.7500366 52.9959763,88.75 C52.8047772,88.7499662 52.6302864,88.6784096 52.4978497,88.5605834 C52.3932733,88.467544 52.3148196,88.3457061 52.2751202,88.2074669 L52.2528094,88.1009059 L52.2479478,76.7479215 L41.9998674,76.7461089 C41.7927606,76.7460723 41.6052754,76.6620925 41.4695761,76.5263452 C41.3338768,76.3905979 41.2499634,76.2030831 41.25,75.9959763 C41.2500338,75.8047772 41.3215904,75.6302864 41.4394166,75.4978497 C41.5324572,75.393272 41.654297,75.3148176 41.7925384,75.2751187 L41.8991011,75.2528085 L52.2483644,75.2477553 L52.2516364,56.7479221 L41.9998674,56.7461089 C41.7927606,56.7460723 41.6052754,56.6620925 41.4695761,56.5263452 C41.3338768,56.3905979 41.2499634,56.2030831 41.25,55.9959763 C41.2500338,55.8047772 41.3215904,55.6302864 41.4394166,55.4978497 C41.5324572,55.393272 41.6542969,55.3148176 41.7925384,55.2751187 L41.8991011,55.2528085 L52.2519017,55.247756 L52.2538911,43.9998674 C52.2539277,43.7927606 52.3379075,43.6052754 52.4736548,43.4695761 C52.6094021,43.3338768 52.7969169,43.2499634 53.0040237,43.25 C53.1952228,43.2500338 53.3697136,43.3215904 53.5021503,43.4394166 C53.6067267,43.532456 53.6851804,43.6542939 53.7248798,43.7925332 L53.7471906,43.8990942 L53.7520529,55.2481875 L74.251901,55.2518132 L74.2538911,43.9998674 C74.2539277,43.7927606 74.3379075,43.6052754 74.4736548,43.4695761 C74.6094021,43.3338768 74.7969169,43.2499634 75.0040237,43.25 Z M74.25,56.75 L53.75,56.75 L53.75,75.25 L74.25,75.25 L74.25,56.75 Z"/>
  </g>
</svg>
