<svg xmlns="http://www.w3.org/2000/svg" xmlns:xlink="http://www.w3.org/1999/xlink" width="128" height="128" viewBox="0 0 128 128">
  <defs>
    <rect id="text-x-scala-b" width="84" height="104" x="1" y="1"/>
    <filter id="text-x-scala-a" width="116.7%" height="113.5%" x="-8.3%" y="-4.8%" filterUnits="objectBoundingBox">
      <feOffset dy="2" in="SourceAlpha" result="shadowOffsetOuter1"/>
      <feGaussianBlur in="shadowOffsetOuter1" result="shadowBlurOuter1" stdDeviation="2"/>
      <feColorMatrix in="shadowBlurOuter1" values="0 0 0 0 0   0 0 0 0 0   0 0 0 0 0  0 0 0 0.2 0"/>
    </filter>
  </defs>
  <g fill="none" fill-rule="evenodd">
    <g transform="translate(21 11)">
      <use fill="#000" filter="url(#text-x-scala-a)" xlink:href="#text-x-scala-b"/>
      <use fill="#F9FBFB" xlink:href="#text-x-scala-b"/>
      <path fill="#000" fill-opacity=".2" fill-rule="nonzero" d="M86,0 L0,0 L0,106 L86,106 L86,0 Z M85,1 L85,105 L1,105 L1,1 L85,1 Z"/>
    </g>
    <path fill="#D96464" stroke="#823C3C" d="M87.5,70.6666667 L87.5,73.625 L40.5,87.3333333 L40.5,84.375 L87.5,70.6666667 Z M87.5,56.6666667 L87.5,59.625 L40.5,73.3333333 L40.5,70.375 L87.5,56.6666667 Z M87.5,42.6666667 L87.5,45.625 L40.5,59.3333333 L40.5,56.375 L87.5,42.6666667 Z"/>
  </g>
</svg>
