<svg xmlns="http://www.w3.org/2000/svg" xmlns:xlink="http://www.w3.org/1999/xlink" width="128" height="128" viewBox="0 0 128 128">
  <defs>
    <rect id="text-x-java-b" width="84" height="104" x="1" y="1"/>
    <filter id="text-x-java-a" width="108.3%" height="106.7%" x="-4.2%" y="-2.4%" filterUnits="objectBoundingBox">
      <feOffset dy="1" in="SourceAlpha" result="shadowOffsetOuter1"/>
      <feGaussianBlur in="shadowOffsetOuter1" result="shadowBlurOuter1" stdDeviation="1"/>
      <feColorMatrix in="shadowBlurOuter1" values="0 0 0 0 0   0 0 0 0 0   0 0 0 0 0  0 0 0 0.2 0"/>
    </filter>
  </defs>
  <g fill="none" fill-rule="evenodd">
    <g transform="translate(21 11)">
      <use fill="#000" filter="url(#text-x-java-a)" xlink:href="#text-x-java-b"/>
      <use fill="#F9FBFB" xlink:href="#text-x-java-b"/>
      <path fill="#000" fill-opacity=".2" fill-rule="nonzero" d="M86,0 L0,0 L0,106 L86,106 L86,0 Z M85,1 L85,105 L1,105 L1,1 L85,1 Z"/>
    </g>
    <path fill="#2A4052" fill-opacity=".4" stroke="#3E6F84" d="M82.2672996,89.4491919 C81.0466765,90.1538344 79.5121511,90.7544946 77.8180438,91.2550653 C73.2514429,92.6043936 67.4803159,93.1791617 62.4587472,93.2456209 C59.3138959,93.2872422 56.4629044,93.1292266 54.3863681,92.8336235 C53.3659768,92.6883667 52.5375611,92.5117368 51.9631657,92.3065141 C51.7274811,92.2223076 51.5398662,92.1371081 51.4111489,92.0431033 C51.2533272,90.9776095 52.2251413,90.7964802 53.2620618,90.8904588 L53.375,90.902 L53.3265466,90.920031 C53.2511788,90.9493511 53.1898481,90.9775877 53.139703,91.00532 L53.0931808,91.0329058 C52.8142018,91.8582216 52.8930915,92.0521982 53.2509115,92.1957976 C53.636646,92.3505994 54.6672676,92.511482 56.8018581,92.6130601 C60.4566484,92.7869794 67.925779,92.8673633 75.198379,91.4773865 C78.2498492,90.8941738 80.5828166,90.1356483 82.2672996,89.4491919 Z M48.236,85.032 L48.1452087,85.0858893 C47.5249299,85.4642906 47.247192,85.8754653 47.2215204,86.2182006 C47.5961582,87.0810631 47.8129719,87.1990113 48.0976238,87.3283797 C48.5141215,87.5176693 49.1547417,87.6988397 50.0734395,87.8562793 C53.6780213,88.4740056 62.598766,89.4652929 69.9829799,88.9722224 C72.6575898,88.793629 75.1308094,88.42005 77.2001749,88.0154755 L77.2001749,88.0154755 L77.7768389,87.8998624 C78.9445299,87.6599506 79.9655194,87.4148984 80.7983415,87.1984644 C77.7382312,88.9517907 72.3594824,89.6897281 66.6687567,89.8764151 C61.3659956,90.0503747 55.7594304,89.7125591 51.3460848,89.1511943 C48.8994138,88.8399848 46.821571,88.4608005 45.371483,88.0609915 C44.6956427,87.8746532 44.1618986,87.6868569 43.8018357,87.4971346 C43.9125643,86.376922 45.8800899,85.5987608 48.0401987,85.0792212 L48.236,85.032 Z M55.9725322,81.5033409 C55.9402222,81.7566317 55.9555448,82.0262793 56.0728853,82.2675866 C56.2511721,82.6342283 56.6308485,83.0061777 57.5423488,83.1103151 C59.2172243,83.3016669 59.9989167,83.1747482 63.5713811,82.5519461 C64.1572398,82.4498111 64.8200298,82.3342637 65.5768264,82.2045695 C67.2553957,81.9169088 68.4694779,81.9111947 69.3423012,82.0383064 C69.8868751,82.1176142 70.2836544,82.2497642 70.5666747,82.384907 C67.532112,83.2028785 64.002792,83.7919818 61.0441038,83.953628 C58.352913,84.1006596 56.0979043,83.9599728 55.3264553,83.1667418 C54.4367316,82.2518964 55.2374828,81.7512715 55.9725322,81.5033409 Z M53.634837,74.4753857 C53.552252,74.8526213 53.537114,75.2815654 53.7198237,75.6573024 C53.9449184,76.120203 54.436181,76.5730844 55.5771224,76.7034351 C57.841258,76.9621089 58.8979631,76.7872461 63.7267513,75.9454241 C64.5238166,75.8064685 65.4255476,75.6492657 66.4551752,75.4728157 C68.7656481,75.076864 70.4360996,75.0711402 71.6365657,75.2463863 C72.689547,75.4001024 73.3515179,75.6959633 73.7492213,75.9553612 C69.5146572,77.1306229 64.5039207,77.98226 60.3273369,78.2098444 C56.5873433,78.4136387 53.4809746,78.1824837 52.4133706,77.0847356 C51.0001543,75.6316167 52.5289295,74.8339873 53.634837,74.4753857 Z M80.6730322,67.3317903 C81.1592939,67.3037909 81.663508,67.3148035 82.1603022,67.3877779 C83.2605718,67.5493974 84.3295298,68.0245732 85.0389029,69.1186769 C85.4481158,69.7498275 85.4603862,70.4676585 85.2258852,71.2043924 C84.9233031,72.155017 84.2235731,73.135059 83.3323778,74.0514174 C81.6971484,75.7328179 79.4017521,77.2143686 77.5489425,77.8410049 C79.3549723,76.0885772 82.3794915,72.7536798 82.3794915,70.0733332 C82.3794915,68.5272214 81.621115,67.7274863 80.6730322,67.3317903 Z M52.845,67.619 L52.8289435,67.6286547 C52.128692,68.0064775 51.6532847,68.3897735 51.5471845,68.7287285 C51.7614927,69.7153969 51.9897595,69.8464834 52.291434,69.995694 C52.7053766,70.2004333 53.3716746,70.3973873 54.3564398,70.5661491 C59.3382803,71.4198998 67.7614249,70.5093744 72.4957739,69.864643 C67.963466,71.7003913 63.5420099,72.4974843 59.7055028,72.6618523 C56.4480205,72.801413 53.6137685,72.4851026 51.4960794,71.95958 C50.2893836,71.6601282 49.3201998,71.2951652 48.6491835,70.9063383 C48.1740364,70.6310096 47.7830003,70.3701124 47.7830003,70.0733333 C47.7830003,68.9467035 50.1622525,68.1676024 52.6330145,67.662276 L52.845,67.619 Z M74.8291224,47.7711292 C72.870852,49.2355508 69.9619785,51.6234739 68.3875553,53.936156 C67.6623917,55.0013543 67.2207943,56.056032 67.2120783,57.0060148 C67.203767,57.9118834 67.5620187,58.7434451 68.4513451,59.4292727 C71.7130544,61.9446263 68.9613331,65.5787711 67.2153202,67.3751952 C67.4417597,66.0027108 67.5633902,64.0226673 66.8203753,62.4946792 C66.5570088,61.9530737 66.1838366,61.4102911 65.791811,60.8439627 C64.7995281,59.3140205 64.1779719,58.1228683 64.1740584,56.7982638 C64.1708688,55.7186728 64.5849651,54.5611462 65.5816951,53.1946489 C67.8671169,50.0613804 72.156453,48.4840612 74.8291224,47.7711292 Z M69.2505517,34.4156383 C69.2432912,34.3850477 70.5496917,35.3426658 71.2263527,37.2287241 L71.2263527,37.2287241 L70.2850969,37.5664184 C70.6061472,38.4612825 70.7797996,39.5754898 70.5854455,40.9038969 C70.282751,42.9728095 69.0971504,45.5342174 66.2810127,48.5840367 C65.1702235,49.5966952 59.9058074,54.2382978 59.9058074,57.8066667 C59.9058074,59.9851393 61.1136903,62.5848416 62.1438062,64.4067046 C59.1429428,61.9859382 57.5733611,59.7374155 56.976709,57.7435444 C56.550917,56.3206476 56.6322875,55.0407226 57.0320647,53.9452203 C57.5138331,52.6250389 58.4517906,51.5745447 59.4955261,50.8590742 C63.1488629,48.3547477 67.9901806,44.5796505 69.2063401,42.0786541 C70.3941385,39.6359817 69.3540182,34.8571389 69.2505517,34.4156383 Z"/>
  </g>
</svg>
