<svg xmlns="http://www.w3.org/2000/svg" xmlns:xlink="http://www.w3.org/1999/xlink" width="128" height="128" viewBox="0 0 128 128">
  <defs>
    <rect id="text-x-go-b" width="84" height="104" x="1" y="1"/>
    <filter id="text-x-go-a" width="116.7%" height="113.5%" x="-8.3%" y="-4.8%" filterUnits="objectBoundingBox">
      <feOffset dy="2" in="SourceAlpha" result="shadowOffsetOuter1"/>
      <feGaussianBlur in="shadowOffsetOuter1" result="shadowBlurOuter1" stdDeviation="2"/>
      <feColorMatrix in="shadowBlurOuter1" values="0 0 0 0 0   0 0 0 0 0   0 0 0 0 0  0 0 0 0.2 0"/>
    </filter>
  </defs>
  <g fill="none" fill-rule="evenodd">
    <g transform="translate(21 11)">
      <use fill="#000" filter="url(#text-x-go-a)" xlink:href="#text-x-go-b"/>
      <use fill="#F9FBFB" xlink:href="#text-x-go-b"/>
      <path fill="#000" fill-opacity=".2" fill-rule="nonzero" d="M86,0 L0,0 L0,106 L86,106 L86,0 Z M85,1 L85,105 L1,105 L1,1 L85,1 Z"/>
    </g>
    <path fill="#2A4052" fill-opacity=".4" stroke="#3E6F84" d="M57.5192045,72.5015529 C57.6829713,74.6287143 58.8844204,76.5523446 60.7499234,77.6298334 C61.7552804,78.2105137 62.8776383,78.5008649 64,78.5008649 C65.1223617,78.5008649 66.2447196,78.2105137 67.2500766,77.6298334 C69.1155796,76.5523446 70.3170287,74.6287143 70.4807955,72.5015529 L70.4807955,72.5015529 L72,72.5015529 C73.5235,72.5015529 74.8987395,73.1143992 75.8929466,74.1086063 C76.8871537,75.1028134 77.5,76.4780529 77.5,78.0015529 C77.5,79.5250529 76.8871537,80.9002924 75.8929466,81.8944995 C74.8987395,82.8887067 73.5235,83.5015529 72,83.5015529 L72,83.5015529 L69.5,83.5015529 L69.5,89.2007709 C69.5,89.8379096 69.2437412,90.413323 68.8277556,90.8293085 C68.41177,91.2452941 67.8363567,91.5015529 67.199218,91.5015529 C66.20867,91.5015529 65.6033454,91.2604095 65.1722444,90.8293085 C64.7562588,90.413323 64.5,89.8379096 64.5,89.2007709 L64.5,89.2007709 L63.5,89.2007709 C63.5,89.8379096 63.2437412,90.413323 62.8277556,90.8293085 C62.41177,91.2452941 61.8363567,91.5015529 61.199218,91.5015529 C60.20867,91.5015529 59.6033454,91.2604095 59.1722444,90.8293085 C58.7562588,90.413323 58.5,89.8379096 58.5,89.2007709 L58.5,89.2007709 L58.5,83.5015529 L56,83.5015529 C54.4765,83.5015529 53.1012605,82.8887067 52.1070534,81.8944995 C51.1128463,80.9002924 50.5,79.5250529 50.5,78.0015529 C50.5,76.4780529 51.1128463,75.1028134 52.1070534,74.1086063 C53.1012605,73.1143992 54.4765,72.5015529 56,72.5015529 L56,72.5015529 Z M63.8707496,66.5014235 C64.879891,66.4784625 65.8758893,66.7336563 66.75,67.2392536 C68.3060417,68.1376347 69.3157621,69.7327053 69.4772086,71.5015529 L69.4772086,71.5015529 L58.5227916,71.5015529 C58.6842406,69.7327038 59.6939902,68.1376163 61.2503743,67.2390373 C62.0484364,66.7773555 62.9497553,66.5237056 63.8707496,66.5014235 Z M50,44.5 C52.6233526,44.5 54.9983526,45.5633237 56.7175144,47.2824856 C58.4366763,49.0016474 59.5,51.3766474 59.5,54 C59.5,56.6233526 58.4366763,58.9983526 56.7175144,60.7175144 C54.9983526,62.4366763 52.6233526,63.5 50,63.5 C47.3766474,63.5 45.0016474,62.4366763 43.2824856,60.7175144 C41.5633237,58.9983526 40.5,56.6233526 40.5,54 C40.5,51.3766474 41.5633237,49.0016474 43.2824856,47.2824856 C45.0016474,45.5633237 47.3766474,44.5 50,44.5 Z M48,49.5 C46.7573593,49.5 45.6323593,50.0036797 44.8180195,50.8180195 C44.0036797,51.6323593 43.5,52.7573593 43.5,54 C43.5,55.2426407 44.0036797,56.3676407 44.8180195,57.1819805 C45.6323593,57.9963203 46.7573593,58.5 48,58.5 C49.2426407,58.5 50.3676407,57.9963203 51.1819805,57.1819805 C51.9963203,56.3676407 52.5,55.2426407 52.5,54 C52.5,52.7573593 51.9963203,51.6323593 51.1819805,50.8180195 C50.3676407,50.0036797 49.2426407,49.5 48,49.5 Z M78,44.5 C80.6233526,44.5 82.9983526,45.5633237 84.7175144,47.2824856 C86.4366763,49.0016474 87.5,51.3766474 87.5,54 C87.5,56.6233526 86.4366763,58.9983526 84.7175144,60.7175144 C82.9983526,62.4366763 80.6233526,63.5 78,63.5 C75.3766474,63.5 73.0016474,62.4366763 71.2824856,60.7175144 C69.5633237,58.9983526 68.5,56.6233526 68.5,54 C68.5,51.3766474 69.5633237,49.0016474 71.2824856,47.2824856 C73.0016474,45.5633237 75.3766474,44.5 78,44.5 Z M76,49.5 C74.7573593,49.5 73.6323593,50.0036797 72.8180195,50.8180195 C72.0036797,51.6323593 71.5,52.7573593 71.5,54 C71.5,55.2426407 72.0036797,56.3676407 72.8180195,57.1819805 C73.6323593,57.9963203 74.7573593,58.5 76,58.5 C77.2426407,58.5 78.3676407,57.9963203 79.1819805,57.1819805 C79.9963203,56.3676407 80.5,55.2426407 80.5,54 C80.5,52.7573593 79.9963203,51.6323593 79.1819805,50.8180195 C78.3676407,50.0036797 77.2426407,49.5 76,49.5 Z"/>
  </g>
</svg>
