<svg xmlns="http://www.w3.org/2000/svg" xmlns:xlink="http://www.w3.org/1999/xlink" width="128" height="128" viewBox="0 0 128 128">
  <defs>
    <rect id="text-richtext-b" width="84" height="104" x="1" y="1"/>
    <filter id="text-richtext-a" width="108.3%" height="106.7%" x="-4.2%" y="-2.4%" filterUnits="objectBoundingBox">
      <feOffset dy="1" in="SourceAlpha" result="shadowOffsetOuter1"/>
      <feGaussianBlur in="shadowOffsetOuter1" result="shadowBlurOuter1" stdDeviation="1"/>
      <feColorMatrix in="shadowBlurOuter1" values="0 0 0 0 0   0 0 0 0 0   0 0 0 0 0  0 0 0 0.2 0"/>
    </filter>
  </defs>
  <g fill="none" fill-rule="evenodd">
    <g transform="translate(21 11)">
      <use fill="#000" filter="url(#text-richtext-a)" xlink:href="#text-richtext-b"/>
      <use fill="#F9FBFB" xlink:href="#text-richtext-b"/>
      <path fill="#000" fill-opacity=".2" fill-rule="nonzero" d="M86,0 L0,0 L0,106 L86,106 L86,0 Z M85,1 L85,105 L1,105 L1,1 L85,1 Z"/>
    </g>
    <path fill="#2A4052" fill-opacity=".4" stroke="#3E6F84" stroke-width=".5" d="M63.75,93.25 L63.75,94.75 L36.25,94.75 L36.25,93.25 L63.75,93.25 Z M67.75,93.25 L67.75,94.75 L66.25,94.75 L66.25,93.25 L67.75,93.25 Z M91.75,81.25 L91.75,82.75 L36.25,82.75 L36.25,81.25 L91.75,81.25 Z M91.75,69.25 L91.75,70.75 L36.25,70.75 L36.25,69.25 L91.75,69.25 Z M91.75,57.25 L91.75,58.75 L36.25,58.75 L36.25,57.25 L91.75,57.25 Z M57.9983345,37.25 C59.0336815,37.25 59.9714744,37.6702082 60.6505003,38.3489515 C61.3296664,39.0278349 61.75,39.9653996 61.75,41 C61.75,42.1212935 61.2593069,43.1269751 60.4802268,43.8139235 C61.2586466,44.8762893 61.75,45.8814199 61.75,47 C61.75,48.0025292 61.3577774,48.9126593 60.7178339,49.5851669 C60.1255861,50.2075515 59.3212344,50.6264452 58.419436,50.7267433 L58.1920226,50.7451138 L52.25,50.7498026 L52.25,37.25 L57.9983345,37.25 Z M57.9983345,44.75 L53.75,44.75 L53.75,49.25 L57.9983345,49.25 L58.1834123,49.2425564 C58.7326173,49.1981826 59.2249995,48.9580153 59.5912708,48.5920487 C59.9985394,48.1851191 60.25,47.6225331 60.25,47 C60.25,46.3797406 59.9976117,45.817044 59.5897409,45.4095125 C59.1821166,45.0022274 58.6192792,44.75 57.9983345,44.75 L57.9983345,44.75 Z M57.9983345,38.75 L53.75,38.75 L53.75,43.25 L57.9983345,43.25 L58.1834123,43.2425564 C58.7326173,43.1981826 59.2249995,42.9580153 59.5912708,42.5920487 C59.9985394,42.1851191 60.25,41.6225331 60.25,41 C60.25,40.3797406 59.9976117,39.817044 59.5897409,39.4095125 C59.1821166,39.0022274 58.6192792,38.75 57.9983345,38.75 L57.9983345,38.75 Z M44.9001748,37.25 L49.6470896,50.75 L48.0773714,50.75 L47.3773668,48.75 L40.6226332,48.75 L39.9226286,50.75 L38.3547512,50.75 L43.1761798,37.25 L44.9001748,37.25 Z M44,38.8458183 L41.0471817,47.25 L46.9528183,47.25 L44,38.8458183 Z M70.1320654,37.25 C71.6484847,37.25 73.0743494,37.7995493 74.1519824,38.758286 L74.1519824,38.758286 L73.0173594,39.66596 C72.2755499,38.9930634 71.1932207,38.75 70.1320654,38.75 C69.0809715,38.75 68.0160611,39.2201048 67.200357,39.9451829 C66.3804982,40.673954 65.8174952,41.6562203 65.7557137,42.6597896 L65.7557137,42.6597896 L65.75,45.1552765 C65.75,46.185886 66.2935071,47.2093884 67.1169085,47.9755309 C67.9440833,48.7451844 69.0477334,49.25 70.1320654,49.25 C71.1802012,49.25 72.1815258,49.0579898 72.909443,48.438602 L72.909443,48.438602 L74.3978782,49.0192988 C73.3001668,50.115093 71.7728926,50.75 70.1320654,50.75 C68.5443495,50.75 67.1042283,50.1542766 66.0458141,49.1826699 C64.9881343,48.2117373 64.3118836,46.8651721 64.254224,45.374326 L64.254224,45.374326 L64.25,42.8447235 C64.25,41.2977653 64.904789,39.8999738 65.9654721,38.8889931 C67.0292355,37.8750766 68.5007882,37.25 70.1320654,37.25 Z"/>
  </g>
</svg>
