<svg xmlns="http://www.w3.org/2000/svg" xmlns:xlink="http://www.w3.org/1999/xlink" width="128" height="128" viewBox="0 0 128 128">
  <defs>
    <rect id="text-x-diff-b" width="84" height="104" x="1" y="1"/>
    <filter id="text-x-diff-a" width="116.7%" height="113.5%" x="-8.3%" y="-4.8%" filterUnits="objectBoundingBox">
      <feOffset dy="2" in="SourceAlpha" result="shadowOffsetOuter1"/>
      <feGaussianBlur in="shadowOffsetOuter1" result="shadowBlurOuter1" stdDeviation="2"/>
      <feColorMatrix in="shadowBlurOuter1" values="0 0 0 0 0   0 0 0 0 0   0 0 0 0 0  0 0 0 0.2 0"/>
    </filter>
  </defs>
  <g fill="none" fill-rule="evenodd">
    <g transform="translate(21 11)">
      <use fill="#000" filter="url(#text-x-diff-a)" xlink:href="#text-x-diff-b"/>
      <use fill="#F9FBFB" xlink:href="#text-x-diff-b"/>
      <path fill="#000" fill-opacity=".2" fill-rule="nonzero" d="M86,0 L0,0 L0,106 L86,106 L86,0 Z M85,1 L85,105 L1,105 L1,1 L85,1 Z"/>
    </g>
    <path fill="#2A4052" fill-opacity=".6" d="M48,44 L48,86 L66,86 L66,44 L48,44 Z M50,46 L56,46 L56,84 L50,84 L50,46 Z M58,46 L64,46 L64,84 L58,84 L58,46 Z M72,46 L72,84 L74,84 L74,46 L72,46 Z M80,46 L80,84 L82,84 L82,46 L80,46 Z"/>
  </g>
</svg>
