<svg xmlns="http://www.w3.org/2000/svg" xmlns:xlink="http://www.w3.org/1999/xlink" width="128" height="128" viewBox="0 0 128 128">
  <defs>
    <rect id="text-x-bibtex-b" width="84" height="104" x="1" y="1"/>
    <filter id="text-x-bibtex-a" width="108.3%" height="106.7%" x="-4.2%" y="-2.4%" filterUnits="objectBoundingBox">
      <feOffset dy="1" in="SourceAlpha" result="shadowOffsetOuter1"/>
      <feGaussianBlur in="shadowOffsetOuter1" result="shadowBlurOuter1" stdDeviation="1"/>
      <feColorMatrix in="shadowBlurOuter1" values="0 0 0 0 0   0 0 0 0 0   0 0 0 0 0  0 0 0 0.2 0"/>
    </filter>
  </defs>
  <g fill="none" fill-rule="evenodd">
    <g transform="translate(21 11)">
      <use fill="#000" filter="url(#text-x-bibtex-a)" xlink:href="#text-x-bibtex-b"/>
      <use fill="#F9FBFB" xlink:href="#text-x-bibtex-b"/>
      <path fill="#000" fill-opacity=".2" fill-rule="nonzero" d="M86,0 L0,0 L0,106 L86,106 L86,0 Z M85,1 L85,105 L1,105 L1,1 L85,1 Z"/>
    </g>
    <path fill="#2A4052" fill-opacity=".4" d="M73.3272164,74.8386955 C72.6472184,79.8124299 72.5912934,80.5728385 65.890611,80.5728385 L60.1613136,80.5728385 C58.5127029,80.5728385 58.4343564,80.3624666 58.4343564,78.9285714 L58.4343564,69.4285714 L62.3283449,69.4285714 C66.2223335,69.4285714 65.8055967,71.3397241 65.8055967,74.8571429 L67.2575077,74.8571429 L67.2575077,62.3228668 L65.8055967,62.3228668 C65.8055967,65.7813815 66.2223335,67.1950809 62.3283449,67.1950809 L58.4343564,67.1950809 L58.4343564,56.8667107 C58.4343564,55.4597432 58.5127029,55.2493713 60.1613136,55.2493713 L65.8055967,55.2493713 C72.1933382,55.2493713 72.9367967,57.8125598 73.5152273,63.3225543 L74.5904083,63.3225543 L74.5904083,53.1428571 L57.0026712,53.1428571 L55.8333333,45.0589617 L31.0333328,45.0589617 L30.5,54.2765946 L31.7751243,54.2765946 C32.3085457,47.3730459 32.4868728,47.4810117 38.8879499,47.4810117 L41.1666667,47.4810117 C41.9551327,47.6056108 42.3635727,48.1121325 42.3635727,49.0714286 L42.3635727,70.4415406 C42.3635727,71.9478037 42.2385516,72.407256 38.7612999,72.407256 L37.589436,72.407256 L37.589436,74.8571429 C39.5697692,74.8182661 41.6334498,74.7778747 43.6587906,74.7778747 C45.6774636,74.7778747 47.747812,74.8182661 49.7264783,74.8571429 L49.7264783,72.407256 L48.5746178,72.407256 C45.1490247,72.407256 45.0256873,71.9478037 45.0256873,70.4415406 L45.0256873,49.0714286 C45.0256873,48.1508578 45.0256873,47.6510141 45.7691457,47.4810117 L48.0345269,47.4810117 C53.9839668,47.4810117 54.878034,47.3792132 55.4076038,53.1428571 L52.3666687,53.1428571 L52.3666687,55.2493713 C55.290494,55.2493713 55.7589062,55.2493713 55.7589062,57.1224725 L55.7589062,78.686223 C55.7589062,80.559543 55.2971618,80.559543 52.3666687,80.559543 L52.3666687,83 L74.5904083,83 L74.5904083,74.8569802 C75.7172099,74.8530565 77.6071041,74.7801419 78.6083195,74.8571429 L78.6083195,72.4207198 C77.331438,72.2963479 76.9613757,71.4614238 76.9613757,70.7899166 C76.9613757,70.2513644 77.1630763,69.9551607 77.3714447,69.658957 L83.9742224,59.9297261 L91.1554308,70.5862765 C91.4804855,71.0475801 91.4804855,71.171952 91.4804855,71.2964922 C91.4804855,71.6246724 91.1104232,72.34162 89.66518,72.4274517 L89.66518,74.8571429 C90.9870691,74.778043 93.2591181,74.8571429 94.619347,74.8571429 C95.6878601,74.8571429 97.4981647,74.778043 98.5,74.8571429 L98.5,72.4274517 C95.8562218,72.4274517 95.439485,72.2238117 94.619347,71.0475801 L85.5428197,57.6425456 L91.6505141,48.7278412 C92.2622837,47.8526603 93.5058263,47.1761344 96.8930629,47.1307311 L96.8930629,45 C95.9479039,45.079095 94.3793066,45.079095 93.38914,45.079095 C92.0289111,45.079095 90.3352928,45.079095 89.3067864,45 L89.3067864,47.1307311 C90.6286755,47.2552292 90.5,47.504318 90.5,48.1758084 C90.5,48.6740028 89.6001691,50.0146099 89.3067864,50.4285714 L85.0093966,56.8667107 C85.0093966,56.8667107 79.5066117,48.300315 79.5066117,48.1758084 C79.5066117,47.8004712 78.6083195,47.1307311 80.391953,47.1307311 L80.391953,45 C79.0700639,45.079095 77.0513908,45.079095 75.691162,45.079095 C74.6226488,45.079095 72.5589682,45.079095 71.5621338,45 L71.5621338,47.1307311 C73.829182,47.1307311 75.3527717,47.4336634 76.2645918,48.7278412 L83.4458002,59.194249 L76.2645918,69.7853485 C74.4926269,72.3754478 71.810509,72.4207198 71.022043,72.4207198 L71.022043,74.8571429 C71.6406617,74.8052795 72.5175684,74.8214266 73.3272164,74.8386955 L73.3272164,74.8386955 Z"/>
    <path fill="#3E6F84" fill-rule="nonzero" d="M96.8930629,45 L96.8930629,47.1307311 C93.615092,47.1746698 92.3447429,47.8096702 91.7117406,48.643781 L91.6505141,48.7278412 L85.5428197,57.6425456 L94.619347,71.0475801 L94.7841375,71.277313 C95.3200047,71.9985118 95.7502875,72.2823454 96.9378149,72.3810428 L97.3176533,72.4053501 L97.7481034,72.4200627 L98.2343421,72.4266938 L98.5,72.4274517 L98.5,74.8571429 C98.1356962,74.8283793 97.6644875,74.8205347 97.1609166,74.8221987 L96.3906067,74.8303999 L94.9279864,74.85536 C94.8197526,74.8564891 94.7164845,74.8571429 94.619347,74.8571429 L93.4573025,74.8460194 L92.1278861,74.8274804 L91.2348269,74.8219874 C90.7977163,74.8219874 90.3811994,74.8269311 90.0143698,74.8405264 L89.66518,74.8571429 L89.66518,72.4274517 C91.0416021,72.3457072 91.4428034,71.691522 91.4778919,71.3459096 L91.4802413,71.2622776 L91.4738916,71.187795 C91.4585058,71.0926447 91.40722,70.9603321 91.2362671,70.7039862 L91.1554308,70.5862765 L83.9742224,59.9297261 L77.2356605,69.8590857 C77.0833921,70.0987746 76.9613757,70.3710427 76.9613757,70.7899166 C76.9613757,71.4278484 77.2953569,72.2132641 78.4235213,72.3968441 L78.6083195,72.4207198 L78.6083195,74.8571429 C78.274581,74.8314759 77.8421005,74.8224662 77.3720546,74.8220061 L76.6464587,74.8267148 L74.8870506,74.8546887 L74.5904083,74.8569802 L74.5904083,83 L52.3666687,83 L52.3666687,80.559543 L53.4674742,80.5542452 L53.8365847,80.5448571 L54.1650024,80.5281536 L54.4549856,80.5020266 C55.4053011,80.3916323 55.6908787,80.0693521 55.7474244,79.1285018 L55.7577245,78.8425043 L55.7577086,56.9662094 L55.7472896,56.6802453 C55.6901443,55.7395049 55.4021791,55.4172624 54.4520304,55.3068809 L54.1621681,55.280757 L53.8340329,55.2640554 L53.4653889,55.2546684 L52.8315783,55.2496925 L52.3666687,55.2493713 L52.3666687,53.1428571 L55.4076038,53.1428571 L55.3550162,52.6027742 L55.2992021,52.0981665 L55.2392146,51.6278294 L55.1741065,51.190558 C55.1627758,51.120368 55.1511923,51.0515056 55.1393362,50.9839455 L55.0647716,50.594014 C54.6349417,48.5331435 53.8653361,47.835972 52.0469132,47.6005309 L51.7045758,47.5626106 L51.338177,47.5336614 L50.9467696,47.5124786 L50.5294066,47.4978575 L49.8526238,47.4855936 L48.8505631,47.4809635 L45.7691457,47.4810117 C45.1568858,47.6210137 45.04884,47.9847142 45.0297731,48.6228748 L45.0256873,49.0714286 L45.0259842,70.5553522 L45.0294829,70.7764268 L45.0391776,70.9808443 L45.0578549,71.1691195 C45.1381797,71.770372 45.4146571,72.1111682 46.351718,72.2773196 L46.6531182,72.3220114 C46.7605004,72.3352195 46.8749529,72.3467669 46.9969401,72.3567395 L47.3859701,72.3820186 L47.8229948,72.3983636 L48.3108009,72.4062894 L49.7264783,72.407256 L49.7264783,74.8571429 C47.747812,74.8182661 45.6774636,74.7778747 43.6587906,74.7778747 C42.139785,74.7778747 40.5992133,74.8005949 39.0884122,74.8283561 L37.589436,74.8571429 L37.589436,72.407256 L39.0222233,72.4063399 L39.5057044,72.3988327 C39.5821306,72.3969312 39.656516,72.3946978 39.728915,72.3921228 L40.1399084,72.3724934 C41.8213616,72.2689788 42.2335984,71.9211019 42.3328291,71.1548306 L42.3506074,70.9704924 C42.3527895,70.9385051 42.3546173,70.9058791 42.3561454,70.8726045 L42.3621511,70.6650938 L42.3635727,49.0714286 C42.3635727,48.1720885 42.0045922,47.6706946 41.3100437,47.508867 L41.1666667,47.4810117 L37.3537063,47.4832518 L36.8939922,47.4878692 L36.2573482,47.5021748 L35.8667335,47.5182227 L35.5019944,47.5407524 L35.1621228,47.5708548 L34.8461104,47.6096212 C33.4254896,47.8124444 32.7513409,48.3339341 32.3626144,49.6731043 L32.2835166,49.9727668 C32.2710057,50.024857 32.2588169,50.0780357 32.2469291,50.1323256 L32.1790471,50.4715805 C32.1682796,50.5304059 32.1577711,50.5903879 32.1475006,50.6515493 L32.0885662,51.0328516 C32.0791639,51.0988213 32.0699576,51.1660159 32.0609264,51.234458 L32.0086713,51.6602629 L31.9359601,52.3574968 L31.8897966,52.8629283 L31.7751243,54.2765946 L30.5,54.2765946 L31.0333328,45.0589617 L55.8333333,45.0589617 L57.0026712,53.1428571 L74.5904083,53.1428571 L74.5904083,63.3225543 L73.5152273,63.3225543 L73.4265401,62.5181082 L73.3640107,62.0062254 L73.2973371,61.5137749 L73.2253017,61.0406715 L73.1466868,60.5868297 L73.0602749,60.1521645 C72.364783,56.8930231 70.8744982,55.3170945 66.1203056,55.2515091 L65.8055967,55.2493713 L60.1613136,55.2493713 C59.9846768,55.2493713 59.8260659,55.2517863 59.683646,55.2578292 L59.4198506,55.2751119 C58.7305151,55.339822 58.5218082,55.5469985 58.459829,56.1173647 L58.4435027,56.3341103 C58.4416159,56.3728678 58.4401008,56.4129719 58.4388895,56.4544675 L58.4347241,56.7204981 L58.4343564,67.1950809 L62.3283449,67.1950809 C65.0054621,67.1950809 65.6450879,66.526887 65.7834169,64.9854175 L65.8033856,64.6954818 L65.8143584,64.3860264 L65.8184384,63.8846447 L65.8055967,62.3228668 L67.2575077,62.3228668 L67.2575077,74.8571429 L65.8055967,74.8571429 L65.818387,73.0500154 L65.8143584,72.6956574 L65.8033856,72.3587591 L65.7834169,72.0394529 C65.6492797,70.383634 65.043767,69.4840565 62.566149,69.4310572 L62.3283449,69.4285714 L58.4343564,69.4285714 L58.4347241,79.0775674 L58.4388895,79.3485758 L58.4503466,79.5854524 C58.5016159,80.2838583 58.7116333,80.5021879 59.5465552,80.5570048 L59.8315309,80.5692493 L60.1613136,80.5728385 L66.2046977,80.5722499 L66.8129281,80.5671668 L67.3818361,80.5562952 L67.912887,80.5389392 L68.4075459,80.5144028 C68.4870378,80.5096764 68.5650743,80.5046218 68.6416862,80.4992245 L69.084504,80.4626127 C71.6417583,80.2168767 72.4316315,79.4894448 72.8782088,77.603833 L72.9497039,77.2787244 L73.0163067,76.9314721 L73.110243,76.3675518 L73.2630981,75.3071061 L73.3272164,74.8386955 L72.7124561,74.8269993 L72.1029937,74.8219946 C71.8046737,74.8222102 71.5197854,74.8272867 71.2654964,74.8407515 L71.022043,74.8571429 L71.022043,72.4207198 L71.3872313,72.4142729 L71.6230632,72.4012064 L71.8893935,72.3771264 L72.1824774,72.3386944 C73.3015893,72.1673843 74.8847075,71.6393128 76.1010748,70.0138711 L76.2645918,69.7853485 L83.4458002,59.194249 L76.2645918,48.7278412 C75.392416,47.489932 73.9605116,47.1589469 71.8536304,47.1325057 L71.5621338,47.1307311 L71.5621338,45 C71.7921725,45.0182527 72.0790255,45.0322932 72.3973518,45.0430936 L73.06846,45.0606623 L73.7784459,45.0713187 L74.8177719,45.0781229 L76.5754708,45.0784622 L77.5527552,45.0740329 L78.5579643,45.0620105 L79.5260472,45.0385983 C79.6806866,45.0335363 79.8310686,45.0278414 79.9758379,45.0214347 L80.391953,45 L80.391953,47.1307311 C79.3986536,47.1307311 79.23711,47.3384402 79.288974,47.5873387 L79.3151333,47.6766244 C79.3206344,47.6917 79.3266222,47.7068504 79.3329709,47.7220416 L79.4647367,48.0062235 C79.4895217,48.0666661 79.5066117,48.1240378 79.5066117,48.1758084 L79.5107214,48.1880374 L79.604961,48.3562492 L80.0288295,49.047188 L81.9285414,52.0510203 L85.0093966,56.8667107 L89.3067864,50.4285714 L89.5435395,50.0831495 L89.7465304,49.7712487 C90.1000751,49.2144733 90.5,48.507938 90.5,48.1758084 L90.5020186,47.7947071 C90.4882062,47.4237288 90.3571342,47.2481452 89.4711102,47.1477011 L89.3067864,47.1307311 L89.3067864,45 C89.4782041,45.0131825 89.6680972,45.0241679 89.8718429,45.0333224 L90.5200152,45.0556594 L91.2235672,45.0692081 L91.9547628,45.0761655 L94.1217552,45.078227 L94.946622,45.0721511 C95.509698,45.0652072 96.081518,45.0513195 96.5565682,45.023544 L96.8930629,45 Z M55.4,45.558 L31.505,45.558 L31.03,53.776 L31.312,53.776 L31.3967333,52.7904577 L31.4466669,52.2699603 L31.5265511,51.5487977 C31.5358582,51.4725358 31.5453287,51.397542 31.5549824,51.3237953 L31.6152616,50.8961127 L31.6808866,50.4973532 L31.752806,50.1265096 L31.8319686,49.7825741 C32.2751704,48.0182156 33.0678885,47.3589536 34.8577411,47.1169947 L35.2051817,47.0763498 L35.5769414,47.0444779 L35.9739687,47.0203715 C36.0422982,47.0169449 36.1117201,47.0137999 36.1822541,47.0109155 L36.6189616,46.9965683 L37.3261431,46.9845703 L38.0987146,46.9809772 L41.2447118,46.9871403 C42.2412637,47.1446226 42.7994237,47.810135 42.8583657,48.8786964 L42.8635727,49.0714286 L42.8635727,70.4415406 C42.8635727,72.0957965 42.4156525,72.6919677 40.3888398,72.8554749 L39.9765342,72.8818868 C39.9044294,72.8854443 39.8306057,72.8885936 39.7550252,72.8913556 L39.280156,72.9034489 L38.7612999,72.907256 L38.089,72.907 L38.089,74.347 L41.090523,74.2957373 L43.4400556,74.2779919 L45.0287797,74.2829597 L47.8536717,74.3216758 L49.226,74.347 L49.226,72.907 L48.5746178,72.907256 C48.3899586,72.907256 48.213352,72.9059056 48.0444716,72.9030257 L47.5606826,72.8896189 C47.4838053,72.88656 47.408778,72.8830741 47.3355597,72.8791387 L46.9176329,72.8499538 C45.0655698,72.6869175 44.5678419,72.1364254 44.5284656,70.7074127 L44.5259842,70.5553591 L44.5256873,49.0714286 C44.5256873,47.751092 44.6776158,47.2610662 45.5252581,47.0268741 L45.6576903,46.9935923 L45.7691457,46.9810117 L49.1353931,46.9816928 L49.6799001,46.9866705 L50.437497,47.0047175 L50.9046502,47.0251887 L51.3426989,47.0535208 C51.4133399,47.0589507 51.482812,47.0647478 51.5511371,47.0709318 L51.9474974,47.1128377 L52.3173776,47.1649811 C54.2213249,47.4720687 55.0402457,48.2565116 55.4907742,50.167246 L55.5711061,50.5388659 C55.5838336,50.6030551 55.596245,50.6683839 55.6083623,50.7348719 L55.6777112,51.1478704 C55.6997676,51.2902794 55.7208223,51.437484 55.7410504,51.5896427 L55.7994295,52.0611396 C55.8088043,52.1422523 55.8180162,52.2246431 55.827087,52.3083318 L55.9055065,53.0971093 L55.9556504,53.6428571 L52.866,53.642 L52.866,54.749 L53.3030915,54.7541474 L53.7299743,54.7664076 C53.7976031,54.7691885 53.8635004,54.7723598 53.9277074,54.7759543 L54.2929972,54.8028596 C55.8485046,54.9491298 56.2320993,55.4514034 56.2575149,56.9516401 L56.2589062,78.686223 C56.2589062,80.3207036 55.9081418,80.8547348 54.2943397,81.0061677 L53.9288603,81.0330231 L53.5227217,81.049736 L52.866,81.059 L52.866,82.499 L74.09,82.499 L74.0904083,74.3587183 L74.9464478,74.3540988 L77.0367968,74.3229721 L77.7521837,74.3242752 L78.108,74.331 L78.108,72.841 L78.010753,72.8165399 C77.0496559,72.5431598 76.5219581,71.8269402 76.4662914,70.9468676 L76.4613757,70.7899166 C76.4613757,70.6619821 76.4684514,70.545971 76.4833326,70.4373953 L76.506,70.305 C75.7324376,71.3430444 74.7733057,72.0401783 73.6875089,72.4567753 L73.4347202,72.5479575 C72.7936861,72.7647974 72.2230534,72.8660563 71.6283158,72.9031332 L71.522,72.908 L71.522,74.329 L71.8247139,74.3228859 L72.3770679,74.3229938 L73.3378785,74.3388092 L73.8985761,74.3507683 L73.6559899,76.1012632 L73.6221025,76.3266964 L73.5517119,76.7573273 L73.4768019,77.1616475 C72.9725156,79.7059611 72.1033382,80.6337899 69.3391303,80.9387335 L68.8987103,80.9808676 C68.8227463,80.9871156 68.7454849,80.9929876 68.6669001,80.9985002 L68.1793057,81.027399 L67.6587141,81.0484792 L67.103887,81.0625449 L66.5135863,81.0704001 L66.2047464,81.0722499 L59.9724131,81.0713876 L59.6258388,81.0590513 C58.320599,80.9826021 57.9703296,80.5653448 57.9372528,79.2471002 L57.9347241,79.0775864 L57.9343373,68.9285714 L62.3283449,68.9285714 C64.2002026,68.9285714 65.2938454,69.3588749 65.8499322,70.3460771 C66.0917291,70.7753312 66.2156915,71.1847369 66.2733278,71.8509707 L66.2954072,72.177707 L66.3091929,72.5469607 L66.3158102,72.9647768 L66.3163845,73.4371999 L66.308,74.357 L66.757,74.357 L66.757,62.822 L66.308,62.822 L66.3163611,63.6907597 L66.3132356,64.3396918 C66.31212,64.4050406 66.3107229,64.4682629 66.3090187,64.5294837 L66.2949035,64.8737915 L66.2721923,65.1760666 C66.2127877,65.7897954 66.0842268,66.1498112 65.8304393,66.5308544 C65.3007309,67.3261725 64.3267542,67.6611006 62.6062512,67.6926051 L62.3283449,67.6950809 L57.9343564,67.6950809 L57.9343564,56.8667107 C57.9343564,55.1796961 58.2751188,54.7765312 59.9740427,54.7507327 L65.8055967,54.7493713 C71.0555679,54.7493713 72.8502865,56.1444184 73.6900483,60.8943436 L73.7811704,61.4465083 L73.8649396,62.0279688 C73.8783331,62.1273553 73.8914539,62.2279888 73.9043187,62.3298825 L73.963,62.822 L74.09,62.822 L74.09,53.642 L56.5697925,53.6428571 L55.4,45.558 Z M79.891,46.657 L79.891,45.525 L79.3792129,45.5441023 L78.6399754,45.5612373 L77.7966175,45.5721354 L76.1177214,45.5790159 L74.3569814,45.5762514 L73.3683084,45.5660074 L72.5470754,45.5481595 L72.062,45.53 L72.062,46.636 L72.1594244,46.6389268 C74.3694031,46.7025717 75.6774898,47.1461678 76.563646,48.2915582 L76.6768782,48.4449634 L83.96,59.059 L83.975685,59.0371751 L91.5641531,70.2982729 C91.8533602,70.7087031 91.9573752,70.9387529 91.9769193,71.1975153 L91.9804855,71.2963055 L91.9747033,71.4132713 C91.9093422,72.0705 91.292741,72.6453099 90.2721003,72.8526817 L90.165,72.871 L90.165,74.334 L90.5976248,74.3259267 L91.3252268,74.3220317 L94.690147,74.3570697 L97.0135812,74.3229295 L97.6850443,74.3243304 L97.999,74.33 L97.999,72.923 L97.9658723,72.9239214 C95.8624043,72.8932927 95.1960906,72.6480195 94.4031423,71.601017 L94.2053259,71.3279131 L85.016,57.757 L85.0013742,57.7793482 L79.9009357,49.7930345 L79.2569536,48.7537662 L79.0968271,48.4703987 L79.0328202,48.3313907 L79.0153744,48.2748927 L79.0097969,48.2445851 L79.0066117,48.1758084 C79.0066117,48.1887813 79.0041544,48.1902556 78.9981856,48.1811589 L78.9215201,48.0251399 L78.8716379,47.9148416 C78.5894264,47.239564 78.9142651,46.809675 79.7555665,46.6756749 L79.891,46.657 Z M89.806,45.531 L89.806,46.69 L89.8618893,46.6995584 C90.7155316,46.8528884 90.985961,47.1754751 91.001475,47.8970633 L91,48.1758084 C91,48.4714012 90.8380477,48.8873865 90.5794886,49.3627606 L90.434,49.618 L91.2407097,48.4413794 C91.9851622,47.376386 93.3657052,46.8051551 95.9057304,46.6635238 L96.393,46.642 L96.393,45.532 L96.1294539,45.5444943 L95.3740914,45.5655329 L94.0676625,45.5784127 L91.9493101,45.5761419 L91.0476825,45.5666863 L90.2787114,45.5491321 L89.806,45.531 Z"/>
  </g>
</svg>
