<svg xmlns="http://www.w3.org/2000/svg" xmlns:xlink="http://www.w3.org/1999/xlink" width="128" height="128" viewBox="0 0 128 128">
  <defs>
    <rect id="text-x-python-b" width="84" height="104" x="1" y="1"/>
    <filter id="text-x-python-a" width="108.3%" height="106.7%" x="-4.2%" y="-2.4%" filterUnits="objectBoundingBox">
      <feOffset dy="1" in="SourceAlpha" result="shadowOffsetOuter1"/>
      <feGaussianBlur in="shadowOffsetOuter1" result="shadowBlurOuter1" stdDeviation="1"/>
      <feColorMatrix in="shadowBlurOuter1" values="0 0 0 0 0   0 0 0 0 0   0 0 0 0 0  0 0 0 0.2 0"/>
    </filter>
  </defs>
  <g fill="none" fill-rule="evenodd">
    <g transform="translate(21 11)">
      <use fill="#000" filter="url(#text-x-python-a)" xlink:href="#text-x-python-b"/>
      <use fill="#F9FBFB" xlink:href="#text-x-python-b"/>
      <path fill="#000" fill-opacity=".2" fill-rule="nonzero" d="M86,0 L0,0 L0,106 L86,106 L86,0 Z M85,1 L85,105 L1,105 L1,1 L85,1 Z"/>
    </g>
    <path fill="#2A4052" fill-opacity=".4" stroke="#3E6F84" d="M82,53.5 C84.0537747,53.5 85.9390922,54.6250405 87.3017068,56.4986355 C88.6587178,58.3645256 89.5,60.9697425 89.5,64 C89.5,67.0429069 88.6850652,69.6576468 87.3556082,71.5261398 C86.0887357,73.3066731 84.3518205,74.405719 82.4256477,74.494215 L82.1733576,74.5 L75.5,74.5 L75.5,80.6382311 C75.5,82.7043599 74.3549781,84.7234754 72.4201689,86.1942415 C70.57713,87.5952475 68.0170807,88.5 65,88.5 C61.9891662,88.5 59.4336049,87.5912801 57.5915251,86.1910032 C55.7309963,84.7767021 54.5972158,82.8596276 54.5059642,80.8947528 L54.5,80.6382311 L54.5,69.0422528 C54.5,68.1053943 54.9139037,67.2157552 55.5611905,66.561631 C56.1483189,65.9683006 56.9310813,65.5657644 57.7850865,65.5073466 L58,65.5 L73.0076845,65.5 C73.3460731,65.4901236 75.5736475,65.3572618 77.0894908,63.5382498 C77.8445283,62.6322048 78.4349102,61.3030005 78.4949642,59.3341088 L78.5,59 L78.5,53.5 L82,53.5 Z M71,76.5 C70.0335017,76.5 69.1585017,76.8917508 68.5251263,77.5251263 C67.8917508,78.1585017 67.5,79.0335017 67.5,80 C67.5,80.9664983 67.8917508,81.8414983 68.5251263,82.4748737 C69.1585017,83.1082492 70.0335017,83.5 71,83.5 C71.9664983,83.5 72.8414983,83.1082492 73.4748737,82.4748737 C74.1082492,81.8414983 74.5,80.9664983 74.5,80 C74.5,79.0335017 74.1082492,78.1585017 73.4748737,77.5251263 C72.8414983,76.8917508 71.9664983,76.5 71,76.5 Z M65,39.5 C68.0108338,39.5 70.5663951,40.4087199 72.4084749,41.8089968 C74.2690037,43.2232979 75.4027842,45.1403724 75.4940358,47.1052472 L75.5,47.3617689 L75.5,58.9577472 C75.5,59.8946057 75.0860963,60.7842448 74.4388095,61.438369 C73.8516811,62.0316994 73.0689187,62.4342356 72.2148907,62.4926534 L71.9999709,62.5 L56.9520601,62.5008752 C56.6457363,62.5099118 54.4147454,62.6402421 52.8992645,64.4732523 C52.1503401,65.3790942 51.5645808,66.7057691 51.5049965,68.6671837 L51.5,69 L51.5,74.5 L48,74.5 C45.9462253,74.5 44.0609078,73.3749595 42.6982932,71.5013645 C41.3412822,69.6354744 40.5,67.0302575 40.5,64 C40.5,60.9570931 41.3149348,58.3423532 42.6443918,56.4738602 C43.9112643,54.6933269 45.6481795,53.594281 47.5743523,53.505785 L47.8266424,53.5 L54.5,53.5 L54.5,47.3617689 C54.5,45.2956401 55.6450219,43.2765246 57.5798311,41.8057585 C59.42287,40.4047525 61.9829193,39.5 65,39.5 Z M59,44.5 C58.0335017,44.5 57.1585017,44.8917508 56.5251263,45.5251263 C55.8917508,46.1585017 55.5,47.0335017 55.5,48 C55.5,48.9664983 55.8917508,49.8414983 56.5251263,50.4748737 C57.1585017,51.1082492 58.0335017,51.5 59,51.5 C59.9664983,51.5 60.8414983,51.1082492 61.4748737,50.4748737 C62.1082492,49.8414983 62.5,48.9664983 62.5,48 C62.5,47.0335017 62.1082492,46.1585017 61.4748737,45.5251263 C60.8414983,44.8917508 59.9664983,44.5 59,44.5 Z"/>
  </g>
</svg>
