<svg xmlns="http://www.w3.org/2000/svg" xmlns:xlink="http://www.w3.org/1999/xlink" width="128" height="128" viewBox="0 0 128 128">
  <defs>
    <rect id="x-office-address-book-b" width="84" height="104" x="1" y="1"/>
    <filter id="x-office-address-book-a" width="108.3%" height="106.7%" x="-4.2%" y="-2.4%" filterUnits="objectBoundingBox">
      <feOffset dy="1" in="SourceAlpha" result="shadowOffsetOuter1"/>
      <feGaussianBlur in="shadowOffsetOuter1" result="shadowBlurOuter1" stdDeviation="1"/>
      <feColorMatrix in="shadowBlurOuter1" values="0 0 0 0 0   0 0 0 0 0   0 0 0 0 0  0 0 0 0.2 0"/>
    </filter>
  </defs>
  <g fill="none" fill-rule="evenodd">
    <g transform="translate(21 11)">
      <use fill="#000" filter="url(#x-office-address-book-a)" xlink:href="#x-office-address-book-b"/>
      <use fill="#F9FBFB" xlink:href="#x-office-address-book-b"/>
      <path fill="#000" fill-opacity=".2" fill-rule="nonzero" d="M86,0 L0,0 L0,106 L86,106 L86,0 Z M85,1 L85,105 L1,105 L1,1 L85,1 Z"/>
    </g>
    <path fill="#2A4052" fill-opacity=".4" stroke="#3E6F84" d="M68.0333333,45.5 C73.7101026,45.5 78.4173965,47.1280425 81.6982074,50.0362405 C84.9509052,52.9195184 86.7866667,57.0574018 86.7866667,62.0666667 C86.7866667,66.5381348 85.5846186,70.4420312 83.4394769,73.2000705 C81.3925915,75.8317803 78.4838164,77.4066667 74.9666667,77.4066667 C73.6457346,77.4066667 72.5908291,77.1678819 71.7745972,76.7437614 C70.9153055,76.2972667 70.3305819,75.6452873 69.982352,74.8742066 C69.865326,74.6150776 69.7760505,74.3448049 69.7179288,74.0646017 C69.5451693,74.2968842 69.3583939,74.5230542 69.1576523,74.7426154 C67.5485762,76.5025424 65.436382,77.4066667 63.0733333,77.4066667 C60.6387225,77.4066667 58.8631966,76.6545937 57.674292,75.3848112 C56.3216514,73.9401542 55.7333333,71.851293 55.7333333,69.5333333 C55.7333333,65.2594685 57.0676681,62.040312 59.1376567,59.8182426 C61.5438276,57.2352918 64.9311902,56.0066667 68.3,56.0066667 C70.4972569,56.0066667 72.902809,56.4876472 74.5626042,57.3210234 L74.8475736,57.4717217 L73.2473941,67.8476627 C73.0288686,69.1041843 72.8666667,70.6339284 72.8666667,71.4533333 C72.8666667,72.406306 73.0985277,73.1056233 73.5469068,73.5753538 C73.9843814,74.0336605 74.6438041,74.3 75.6066667,74.3 C77.8666023,74.3 79.6957316,73.0006281 80.9821072,70.9483189 C82.3485256,68.7683079 83.0933333,65.7356302 83.0933333,62.6533333 C83.0933333,58.211635 81.6216837,54.7557593 78.9336053,52.3966416 C76.2427706,50.0351048 72.3103554,48.7666667 67.34,48.7666667 C61.812406,48.7666667 56.975072,51.0501087 53.4886052,54.6826565 C49.9025471,58.4189684 47.7466667,63.5848234 47.7466667,69.16 C47.7466667,74.2395667 49.1508155,78.0873448 51.7997313,80.6808826 C54.4661323,83.29154 58.4128839,84.6466667 63.5533333,84.6466667 C66.6256501,84.6466667 69.780563,83.8182575 71.9147991,82.6350158 L72.1994012,82.4715098 L73.5726814,85.3392419 C70.9077917,86.8756064 66.9231483,87.86 62.7533333,87.86 C56.7427377,87.86 52.0927203,86.1667616 48.9282857,83.0987502 C45.6683332,79.9381315 44,75.3320231 44,69.6933333 C44,62.9023356 46.5954106,56.8121476 50.9383585,52.4408761 C55.2164005,48.1349338 61.1882756,45.5 68.0333333,45.5 Z M67.7133333,59.1133333 C65.3297651,59.1133333 63.2355464,60.1266028 61.7451452,61.8620014 C60.3042349,63.5397737 59.4266667,65.9005999 59.4266667,68.68 C59.4266667,70.606387 59.8112217,71.9889825 60.5369243,72.9031793 C61.3025849,73.8677128 62.451707,74.3533333 64.0333333,74.3533333 C65.1567059,74.3533333 66.1897171,74.0434144 67.0589053,73.5508744 C68.0380626,72.9960186 68.8077057,72.2090261 69.3333333,71.1333333 C69.3333333,70.5113287 69.4902966,69.0560371 69.5934413,68.4945331 L69.5934413,68.4945331 L70.8799951,59.7124054 L70.7361902,59.655129 C70.0750371,59.4033433 68.930437,59.1133333 67.7133333,59.1133333 Z"/>
  </g>
</svg>
