<svg xmlns="http://www.w3.org/2000/svg" width="16" height="16" viewBox="0 0 16 16">
  <defs>
    <radialGradient id="folder-applications-stack-a" cx="50%" cy="0%" r="116.925%" fx="50%" fy="0%" gradientTransform="matrix(.06165 .9944 -.58007 .10569 .47 -.497)">
      <stop offset="0%" stop-color="#EFE0FF"/>
      <stop offset="100%" stop-color="#CFBDF1"/>
    </radialGradient>
  </defs>
  <g fill="none" fill-rule="evenodd">
    <g transform="translate(1 2)">
      <path fill="#D2B8F1" d="M8.21418776,0.51184082 C8.41988712,0.830905503 8.77353455,1.02368164 9.15315871,1.02368164 L13.4975,1.02368164 C13.7750231,1.02368164 14,1.24865855 14,1.52618164 L14,11.4975 C14,11.7750231 13.7750231,12 13.4975,12 L0.5025,12 C0.224976913,12 1.35301375e-15,11.7750231 0,11.4975 L0,0.5025 C-3.3986776e-17,0.224976913 0.224976913,-5.04131348e-16 0.5025,0 L7.27521681,0 C7.65484097,7.03313217e-16 8.0084884,0.192776137 8.21418776,0.51184082 Z"/>
      <path fill="#D2B8F1" stroke="#827CA9"/>
      <path fill="#FFF" d="M2.5025,3 L11.4975,3 C11.7750231,3 12,3.22497691 12,3.5025 L12,7.4975 C12,7.77502309 11.7750231,8 11.4975,8 L2.5025,8 C2.22497691,8 2,7.77502309 2,7.4975 L2,3.5025 C2,3.22497691 2.22497691,3 2.5025,3 Z"/>
      <path fill="url(#folder-applications-stack-a)" d="M1,4 L13,4 L13,10.4975 C13,10.7750231 12.7750231,11 12.4975,11 L1.5025,11 C1.22497691,11 1,10.7750231 1,10.4975 L1,4 L1,4 Z"/>
    </g>
    <polygon stroke="#827CA9" stroke-linejoin="round" points="8 7.5 5.741 8.576 5.741 10.872 8 11.998 10.259 10.872 10.259 8.576"/>
    <polyline stroke="#827CA9" stroke-linejoin="round" points="5.741 8.576 8 9.722 10.259 8.576"/>
  </g>
</svg>
