<svg xmlns="http://www.w3.org/2000/svg" xmlns:xlink="http://www.w3.org/1999/xlink" width="16" height="16" viewBox="0 0 16 16">
  <defs>
    <path id="folder-videos-a" d="M8.21418776,0.51184082 C8.41988712,0.830905503 8.77353455,1.02368164 9.15315871,1.02368164 L13.4975,1.02368164 C13.7750231,1.02368164 14,1.24865855 14,1.52618164 L14,11.4975 C14,11.7750231 13.7750231,12 13.4975,12 L0.5025,12 C0.224976913,12 1.35301375e-15,11.7750231 0,11.4975 L0,0.5025 C-3.3986776e-17,0.224976913 0.224976913,-5.04131348e-16 0.5025,0 L7.27521681,0 C7.65484097,7.03313217e-16 8.0084884,0.192776137 8.21418776,0.51184082 Z"/>
    <filter id="folder-videos-b" width="107.1%" height="108.3%" x="-3.6%" y="-4.2%" filterUnits="objectBoundingBox">
      <feOffset dy="1" in="SourceAlpha" result="shadowOffsetInner1"/>
      <feComposite in="shadowOffsetInner1" in2="SourceAlpha" k2="-1" k3="1" operator="arithmetic" result="shadowInnerInner1"/>
      <feColorMatrix in="shadowInnerInner1" values="0 0 0 0 1   0 0 0 0 1   0 0 0 0 1  0 0 0 0.5 0"/>
    </filter>
    <radialGradient id="folder-videos-c" cx="50%" cy="0%" r="116.925%" fx="50%" fy="0%" gradientTransform="matrix(.06165 .9944 -.58007 .10569 .47 -.497)">
      <stop offset="0%" stop-color="#D8EAFF"/>
      <stop offset="100%" stop-color="#A1C8E7"/>
    </radialGradient>
  </defs>
  <g fill="none" fill-rule="evenodd">
    <g transform="translate(1 2)">
      <use fill="#A3C6EB" xlink:href="#folder-videos-a"/>
      <use fill="#000" filter="url(#folder-videos-b)" xlink:href="#folder-videos-a"/>
      <path fill="#5C889C" fill-rule="nonzero" d="M7.27521681,0 C7.61266051,0 7.92957938,0.152316948 8.14030906,0.410254483 L8.21418776,0.51184082 C8.41988712,0.830905503 8.77353455,1.02368164 9.15315871,1.02368164 L13.4975,1.02368164 C13.7750231,1.02368164 14,1.24865855 14,1.52618164 L14,11.4975 C14,11.7750231 13.7750231,12 13.4975,12 L0.5025,12 C0.224976913,12 0,11.7750231 0,11.4975 L0,0.5025 C0,0.224976913 0.224976913,0 0.5025,0 L7.27521681,0 Z M1,11 L13,11 L13,2.023 L9.15315871,2.02368164 C8.48907256,2.02368164 7.86693263,1.71239409 7.46854324,1.18892203 L7.37371257,1.05369085 C7.35932766,1.03137811 7.33804525,1.01495309 7.31365629,1.00648227 L7.27521681,1 L1,1 L1,11 Z"/>
      <path fill="#FFF" d="M2.5025,3 L11.4975,3 C11.7750231,3 12,3.22497691 12,3.5025 L12,7.4975 C12,7.77502309 11.7750231,8 11.4975,8 L2.5025,8 C2.22497691,8 2,7.77502309 2,7.4975 L2,3.5025 C2,3.22497691 2.22497691,3 2.5025,3 Z"/>
      <path fill="url(#folder-videos-c)" d="M1,4 L13,4 L13,10.4975 C13,10.7750231 12.7750231,11 12.4975,11 L1.5025,11 C1.22497691,11 1,10.7750231 1,10.4975 L1,4 L1,4 Z"/>
    </g>
    <g fill="#5C889C" fill-rule="nonzero" stroke-linecap="round" stroke-linejoin="round" transform="translate(5 6.422)">
      <path d="M1.09706863,0.131211466 L5.54661135,2.43108332 C6.15250562,2.74425689 6.14975191,3.2534349 5.54661135,3.56518514 L1.09706863,5.86505699 C0.491174354,6.17823056 4.4408921e-16,5.92150655 4.4408921e-16,5.29029648 L4.4408921e-16,0.705971972 C4.4408921e-16,0.0753669398 0.493928064,-0.180538772 1.09706863,0.131211466 Z M1,1.2075 L1,4.7885 L4.466,2.9975 L1,1.2075 Z"/>
      <path d="M2,1.725 L3,2.241 L3,3.756 L2,4.272 L2,1.725 Z"/>
    </g>
  </g>
</svg>
