<svg xmlns="http://www.w3.org/2000/svg" width="256" height="256" viewBox="0 0 256 256">
  <defs>
    <filter id="android-device-a" width="143.5%" height="124.5%" x="-21.8%" y="-12.3%" filterUnits="objectBoundingBox">
      <feOffset dy="4" in="SourceAlpha" result="shadowOffsetOuter1"/>
      <feGaussianBlur in="shadowOffsetOuter1" result="shadowBlurOuter1" stdDeviation="5"/>
      <feComposite in="shadowBlurOuter1" in2="SourceAlpha" operator="out" result="shadowBlurOuter1"/>
      <feColorMatrix in="shadowBlurOuter1" result="shadowMatrixOuter1" values="0 0 0 0 0   0 0 0 0 0   0 0 0 0 0  0 0 0 0.2 0"/>
      <feMerge>
        <feMergeNode in="shadowMatrixOuter1"/>
        <feMergeNode in="SourceGraphic"/>
      </feMerge>
    </filter>
  </defs>
  <g fill="none" fill-rule="evenodd" filter="url(#android-device-a)" transform="translate(66 18)">
    <path fill="#776A5D" d="M2.66396e-13,7.97620213 C2.6739192e-13,3.57106733 3.57735059,1.13686838e-13 7.98097735,1.13686838e-13 L116.019022,1.13686838e-13 C120.426794,1.13686838e-13 123.999999,3.56722622 123.999999,7.97620213 L124,212.023798 C124,216.428933 120.422649,220 116.019023,220 L7.98097742,220 C3.5732053,220 2.19267767e-13,216.432774 2.20264556e-13,212.023798 L2.66396e-13,7.97620213 Z"/>
    <path fill="#AD9F91" d="M3.99999999,9.31990861 C3.99999999,6.38180422 6.3829363,4 9.3239294,4 L114.676071,4 C117.616396,4 120,6.38085937 120,9.31990861 L120,210.680091 C120,213.618196 117.617064,216 114.676071,216 L9.3239294,216 C6.38360438,216 3.99999999,213.619141 3.99999999,210.680091 L3.99999999,9.31990861 Z"/>
    <polygon fill="#1A1A1A" points="8 24.56 116 24.56 116 194 8 194"/>
    <circle cx="80.5" cy="14.5" r="2.5" fill="#000"/>
    <line x1="55" x2="73" y1="15" y2="15" stroke="#40372E" stroke-linecap="round" stroke-width="2"/>
    <line x1="43" x2="47" y1="15" y2="15" stroke="#40372E" stroke-linecap="round" stroke-width="2"/>
  </g>
</svg>
