<?xml version="1.0" encoding="UTF-8" standalone="no"?>
<svg width="48px" height="48px" viewBox="0 0 48 48" version="1.1" xmlns="http://www.w3.org/2000/svg" xmlns:xlink="http://www.w3.org/1999/xlink">
    <!-- Generator: Sketch 3.6.1 (26313) - http://www.bohemiancoding.com/sketch -->
    <title>Wind资讯HD</title>
    <desc>Created with Sketch.</desc>
    <defs>
        <filter x="-50%" y="-50%" width="200%" height="200%" filterUnits="objectBoundingBox" id="filter-1">
            <feOffset dx="0" dy="1" in="SourceAlpha" result="shadowOffsetOuter1"></feOffset>
            <feGaussianBlur stdDeviation="0.5" in="shadowOffsetOuter1" result="shadowBlurOuter1"></feGaussianBlur>
            <feColorMatrix values="0 0 0 0 0   0 0 0 0 0   0 0 0 0 0  0 0 0 0.21 0" in="shadowBlurOuter1" type="matrix" result="shadowMatrixOuter1"></feColorMatrix>
            <feMerge>
                <feMergeNode in="shadowMatrixOuter1"></feMergeNode>
                <feMergeNode in="SourceGraphic"></feMergeNode>
            </feMerge>
        </filter>
    </defs>
    <g id="Page-1" stroke="none" stroke-width="1" fill="none" fill-rule="evenodd">
        <g id="Wind资讯HD">
            <rect id="Combined-Shape" fill="#FD313D" filter="url(#filter-1)" x="5" y="5" width="38" height="38" rx="1"></rect>
            <path d="M11,17.7826087 L13.0652174,15.7173913 L16.7826087,18.1956522 L15.1304348,27.2826087 L21.7391304,20.673913 C21.7391304,20.673913 25.4565217,17.7826087 25.8695652,20.673913 C25.8695652,23.5652174 25.4565217,26.0434783 25.4565217,26.0434783 C25.4565217,26.0434783 25.4565217,27.6956522 28.3478261,24.3913043 C31.2391304,21.0869565 38.673913,12 38.673913,12 C38.673913,12 31.5,25 27.9347826,28.5217391 C27.9347826,28.5217391 24,34 22.9782609,29.7608696 L22.9782609,23.5652174 C22.9782609,23.5652174 23.8043478,20.673913 20.5,24.3913043 C17.1956522,28.1086957 14.7173913,30.5869565 14.7173913,30.5869565 C14.7173913,30.5869565 12.2391304,32.2391304 12.2391304,28.9347826 C12.2391304,25.6304348 13.0652174,19.8478261 13.0652174,19.8478261 L11,17.7826087 Z" id="Path-6" fill="#FFFFFF"></path>
            <text id="HD" font-family="Helvetica" font-size="7" font-weight="normal" fill="#FFFFFF">
                <tspan x="30" y="38">HD</tspan>
            </text>
        </g>
    </g>
</svg>