<svg xmlns="http://www.w3.org/2000/svg" width="48" height="48" viewBox="0 0 48 48">
  <defs>
    <filter id="drive-mount-failed-a" width="132.5%" height="132.5%" x="-16.3%" y="-16.3%" filterUnits="objectBoundingBox">
      <feOffset dy="1" in="SourceAlpha" result="shadowOffsetOuter1"/>
      <feGaussianBlur in="shadowOffsetOuter1" result="shadowBlurOuter1" stdDeviation="1"/>
      <feColorMatrix in="shadowBlurOuter1" result="shadowMatrixOuter1" values="0 0 0 0 0   0 0 0 0 0   0 0 0 0 0  0 0 0 0.2 0"/>
      <feMerge>
        <feMergeNode in="shadowMatrixOuter1"/>
        <feMergeNode in="SourceGraphic"/>
      </feMerge>
    </filter>
    <linearGradient id="drive-mount-failed-b" x1="50%" x2="50%" y1="0%" y2="100%">
      <stop offset="0%" stop-color="#D07878"/>
      <stop offset="100%" stop-color="#A34343"/>
    </linearGradient>
    <linearGradient id="drive-mount-failed-c" x1="50%" x2="50%" y1="2.954%" y2="93.515%">
      <stop offset="0%" stop-color="#B96A6A"/>
      <stop offset="100%" stop-color="#833636"/>
    </linearGradient>
    <linearGradient id="drive-mount-failed-d" x1="50%" x2="50%" y1="0%" y2="100%">
      <stop offset="0%" stop-color="#B95D5D"/>
      <stop offset="100%" stop-color="#A84949"/>
    </linearGradient>
  </defs>
  <g fill="none" fill-rule="evenodd" filter="url(#drive-mount-failed-a)" transform="translate(4 4)">
    <path fill="url(#drive-mount-failed-b)" fill-rule="nonzero" stroke="url(#drive-mount-failed-c)" d="M10.8358895,2.79360232 C15.2394119,0.448309038 20.5376231,-0.217180545 25.6866995,1.35309363 C30.8357463,2.92335876 34.8609241,6.43232265 37.2062847,10.8359473 C39.5516785,15.2396344 40.2172114,20.5380135 38.6468883,25.687016 C37.0765878,30.8359444 33.567543,34.8610275 29.1638197,37.2063338 C24.7600254,39.5516779 19.4615175,40.2171962 14.3123899,38.6469064 C9.16343364,37.0766689 5.13855253,33.5677972 2.79342444,29.1642779 C0.448182077,24.7605439 -0.217148621,19.4620728 1.35320079,14.312984 C2.92351441,9.16401269 6.432357,5.13890096 10.8358895,2.79360232 Z"/>
    <polygon stroke="#FFF" stroke-linecap="round" stroke-linejoin="round" points="10.5 8.5 29.5 8.5 29.5 31.5 10.5 31.5"/>
    <path fill="#FFF" fill-rule="nonzero" d="M15.4955775,21 C14.9457352,21 14.7652764,20.6382594 15.0885963,20.1973686 L19.4114037,14.3026314 C19.7364764,13.8593503 20.2652764,13.8617406 20.5885963,14.3026314 L24.9114037,20.1973686 C25.2364764,20.6406497 25.055163,21 24.5044225,21 L15.4955775,21 Z"/>
    <line x1="10.5" x2="29.5" y1="27.5" y2="27.5" stroke="#FFF"/>
    <rect width="1" height="1" x="22" y="29" fill="#FFF" fill-rule="nonzero"/>
    <rect width="1" height="1" x="24" y="29" fill="#FFF" fill-rule="nonzero"/>
    <rect width="1" height="1" x="26" y="29" fill="#FFF" fill-rule="nonzero"/>
    <circle cx="12.5" cy="29.5" r="1" fill="#FFF" fill-rule="nonzero"/>
    <rect width="10" height="1" x="15" y="22" fill="#FFF" fill-rule="nonzero" rx=".5"/>
    <g fill-rule="nonzero" transform="translate(20 19)">
      <circle cx="8" cy="8" r="7.517" fill="url(#drive-mount-failed-d)"/>
      <circle cx="8" cy="8" r="6" fill="#FFF"/>
      <path fill="#AD4F4F" d="M8.023,13 L7.977,13 C7.437,13 7,12.5527124 7,12 C7,11.4483112 7.437,11 7.977,11 L8.023,11 C8.563,11 9,11.4483112 9,12 C9,12.5527124 8.563,13 8.023,13"/>
      <path fill="#B45757" d="M9,9 C9,9.552 8.552,10 8,10 C7.448,10 7,9.552 7,9 L7,4 C7,3.448 7.448,3 8,3 C8.552,3 9,3.448 9,4 L9,9 Z"/>
    </g>
  </g>
</svg>
