<svg xmlns="http://www.w3.org/2000/svg" width="48" height="48" viewBox="0 0 48 48">
  <defs>
    <filter id="notification-network-vpn-disconnected-a" width="132.5%" height="132.5%" x="-16.2%" y="-16.2%" filterUnits="objectBoundingBox">
      <feOffset dy="1" in="SourceAlpha" result="shadowOffsetOuter1"/>
      <feGaussianBlur in="shadowOffsetOuter1" result="shadowBlurOuter1" stdDeviation="1"/>
      <feColorMatrix in="shadowBlurOuter1" result="shadowMatrixOuter1" values="0 0 0 0 0   0 0 0 0 0   0 0 0 0 0  0 0 0 0.2 0"/>
      <feMerge>
        <feMergeNode in="shadowMatrixOuter1"/>
        <feMergeNode in="SourceGraphic"/>
      </feMerge>
    </filter>
    <linearGradient id="notification-network-vpn-disconnected-b" x1="50%" x2="50%" y1="0%" y2="100%">
      <stop offset="0%" stop-color="#D07878"/>
      <stop offset="100%" stop-color="#A34343"/>
    </linearGradient>
    <linearGradient id="notification-network-vpn-disconnected-c" x1="50%" x2="50%" y1="2.954%" y2="93.515%">
      <stop offset="0%" stop-color="#B96A6A"/>
      <stop offset="100%" stop-color="#833636"/>
    </linearGradient>
  </defs>
  <g fill="none" filter="url(#notification-network-vpn-disconnected-a)" transform="translate(4 4)">
    <circle cx="20" cy="20" r="19.5" fill="url(#notification-network-vpn-disconnected-b)" stroke="url(#notification-network-vpn-disconnected-c)"/>
    <path fill="#FFF" d="M28.0310078,18 L26,18 L26,15.0017996 C26,11.7634275 23.4147287,9 20.1937984,9 L19.7606589,9 C16.5843023,9 14,11.817691 14,15.0017996 L14,18 L11.9689922,18 C11.4331395,18 11,18.4331395 11,18.9689922 L11,30.0310078 C11,30.5668605 11.4331395,31 11.9689922,31 L28.0310078,31 C28.5668605,31 29,30.5668605 29,30.0310078 L29,18.9689922 C29,18.4331395 28.5668605,18 28.0310078,18 Z M16,15.0017996 C16,12.5996678 17.8817829,11 19.7606589,11 L20.1937984,11 C22.0649225,11 24,12.5996678 24,15.0017996 L24,18 L16,18 L16,15.0017996 Z"/>
  </g>
</svg>
