<svg xmlns="http://www.w3.org/2000/svg" width="48" height="48" viewBox="0 0 48 48">
  <defs>
    <filter id="notification-network-mobile-3g-connected-a" width="132.5%" height="132.5%" x="-16.2%" y="-16.2%" filterUnits="objectBoundingBox">
      <feOffset dy="1" in="SourceAlpha" result="shadowOffsetOuter1"/>
      <feGaussianBlur in="shadowOffsetOuter1" result="shadowBlurOuter1" stdDeviation="1"/>
      <feColorMatrix in="shadowBlurOuter1" result="shadowMatrixOuter1" values="0 0 0 0 0   0 0 0 0 0   0 0 0 0 0  0 0 0 0.2 0"/>
      <feMerge>
        <feMergeNode in="shadowMatrixOuter1"/>
        <feMergeNode in="SourceGraphic"/>
      </feMerge>
    </filter>
    <linearGradient id="notification-network-mobile-3g-connected-b" x1="50%" x2="50%" y1="0%" y2="100%">
      <stop offset="0%" stop-color="#83C2E5"/>
      <stop offset="100%" stop-color="#4C8FC7"/>
    </linearGradient>
    <linearGradient id="notification-network-mobile-3g-connected-c" x1="50%" x2="50%" y1="0%" y2="100%">
      <stop offset="0%" stop-color="#75AECD"/>
      <stop offset="100%" stop-color="#3D729E"/>
    </linearGradient>
  </defs>
  <g fill="none" filter="url(#notification-network-mobile-3g-connected-a)" transform="translate(4 4)">
    <circle cx="20" cy="20" r="19.5" fill="url(#notification-network-mobile-3g-connected-b)" stroke="url(#notification-network-mobile-3g-connected-c)"/>
    <path fill="#FFF" d="M11.997 5.601C11.997 2.569 9.529.101 6.497.101L5.497.101C2.465.101-.003 2.569-.003 5.601-.003 6.154.444 6.601.997 6.601 1.55 6.601 1.997 6.154 1.997 5.601 1.997 3.671 3.567 2.101 5.497 2.101L6.497 2.101C8.427 2.101 9.997 3.671 9.997 5.601 9.997 7.531 8.427 9.101 6.497 9.101L4.997 9.101C4.444 9.101 3.997 9.548 3.997 10.101 3.997 10.654 4.444 11.101 4.997 11.101L6.497 11.101C8.427 11.101 9.997 12.671 9.997 14.601 9.997 16.531 8.427 18.101 6.497 18.101L5.497 18.101C3.567 18.101 1.997 16.531 1.997 14.601 1.997 14.048 1.55 13.601.997 13.601.444 13.601-.003 14.048-.003 14.601-.003 17.633 2.465 20.101 5.497 20.101L6.497 20.101C9.529 20.101 11.997 17.633 11.997 14.601 11.997 12.741 11.066 11.097 9.649 10.101 11.067 9.105 11.997 7.461 11.997 5.601zM24.997 9.101L19.997 9.101C19.444 9.101 18.997 9.548 18.997 10.101 18.997 10.654 19.444 11.101 19.997 11.101L23.997 11.101 23.997 14.111C23.997 16.311 22.207 18.101 19.987 18.101 17.787 18.101 15.997 16.311 15.997 14.111L15.997 6.091C15.997 3.891 17.787 2.101 20.007 2.101 22.207 2.101 23.997 3.891 23.997 6.091 23.997 6.644 24.444 7.091 24.997 7.091 25.55 7.091 25.997 6.644 25.997 6.091 25.997 2.788 23.309.101 19.987.101 16.684.101 13.997 2.789 13.997 6.091L13.997 14.111C13.997 17.414 16.685 20.101 20.007 20.101 21.54 20.101 22.937 19.517 23.997 18.566L23.997 19.101C23.997 19.654 24.444 20.101 24.997 20.101 25.55 20.101 25.997 19.654 25.997 19.101L25.997 10.101C25.997 9.548 25.55 9.101 24.997 9.101z" transform="translate(7 10)"/>
  </g>
</svg>
