<svg xmlns="http://www.w3.org/2000/svg" width="48" height="48" viewBox="0 0 48 48">
  <defs>
    <filter id="notification-network-mobile-2g-connected-a" width="132.5%" height="132.5%" x="-16.2%" y="-16.2%" filterUnits="objectBoundingBox">
      <feOffset dy="1" in="SourceAlpha" result="shadowOffsetOuter1"/>
      <feGaussianBlur in="shadowOffsetOuter1" result="shadowBlurOuter1" stdDeviation="1"/>
      <feColorMatrix in="shadowBlurOuter1" result="shadowMatrixOuter1" values="0 0 0 0 0   0 0 0 0 0   0 0 0 0 0  0 0 0 0.2 0"/>
      <feMerge>
        <feMergeNode in="shadowMatrixOuter1"/>
        <feMergeNode in="SourceGraphic"/>
      </feMerge>
    </filter>
    <linearGradient id="notification-network-mobile-2g-connected-b" x1="50%" x2="50%" y1="0%" y2="100%">
      <stop offset="0%" stop-color="#83C2E5"/>
      <stop offset="100%" stop-color="#4C8FC7"/>
    </linearGradient>
    <linearGradient id="notification-network-mobile-2g-connected-c" x1="50%" x2="50%" y1="0%" y2="100%">
      <stop offset="0%" stop-color="#75AECD"/>
      <stop offset="100%" stop-color="#3D729E"/>
    </linearGradient>
  </defs>
  <g fill="none" filter="url(#notification-network-mobile-2g-connected-a)" transform="translate(4 4)">
    <circle cx="20" cy="20" r="19.5" fill="url(#notification-network-mobile-2g-connected-b)" stroke="url(#notification-network-mobile-2g-connected-c)"/>
    <path fill="#FFF" d="M6.497.047L5.497.047C2.465.047-.003 2.515-.003 5.547-.003 6.1.444 6.547.997 6.547 1.55 6.547 1.997 6.1 1.997 5.547 1.997 3.617 3.567 2.047 5.497 2.047L6.497 2.047C8.427 2.047 9.997 3.617 9.997 5.547 9.997 5.547 9.997 5.547 9.997 5.547 9.997 5.547 9.997 5.547 9.997 5.547 9.997 7.709 7.85 9.374 5.575 11.137 2.961 13.163-.003 15.462-.003 19.042-.003 19.595.444 20.046.997 20.046L10.997 20.046C11.55 20.046 11.997 19.599 11.997 19.046 11.997 18.493 11.55 18.046 10.997 18.046L2.116 18.046C2.622 16.046 4.66 14.379 6.801 12.719 9.356 10.74 11.997 8.688 11.997 5.546 11.997 5.546 11.997 5.546 11.997 5.546 11.997 5.546 11.997 5.546 11.997 5.546 11.997 2.515 9.53.047 6.497.047zM24.741 9.047L19.973 9.047C19.42 9.047 18.973 9.494 18.973 10.047 18.973 10.6 19.42 11.047 19.973 11.047L23.997 11.047 23.997 14.057C23.997 16.257 22.207 18.047 19.987 18.047 17.787 18.047 15.997 16.257 15.997 14.057L15.997 6.037C15.997 3.837 17.787 2.047 20.007 2.047 22.207 2.047 23.997 3.837 23.997 6.037 23.997 6.59 24.444 7.037 24.997 7.037 25.55 7.037 25.997 6.59 25.997 6.037 25.997 2.734 23.309.047 19.987.047 16.684.047 13.997 2.735 13.997 6.037L13.997 14.057C13.997 17.36 16.685 20.047 20.007 20.047 21.54 20.047 22.937 19.463 23.997 18.512L23.997 19.04C23.997 19.593 24.444 20.04 24.997 20.04 25.55 20.04 25.997 19.593 25.997 19.04L25.997 9.996C25.997 9.443 25.575 9.047 24.741 9.047z" transform="translate(7 10)"/>
  </g>
</svg>
