<svg xmlns="http://www.w3.org/2000/svg" width="48" height="48" viewBox="0 0 48 48">
  <g fill="none" fill-rule="evenodd" transform="translate(11 14)">
    <path fill="#52A6CE" fill-rule="nonzero" d="M24.5,19.5 L1.5,19.5 C0.948,19.5 0.5,19.052 0.5,18.5 L0.5,1.5 C0.5,0.948 0.948,0.5 1.5,0.5 L24.5,0.5 C25.052,0.5 25.5,0.948 25.5,1.5 L25.5,18.5 C25.5,19.052 25.052,19.5 24.5,19.5 Z" opacity=".2"/>
    <path stroke="#52A6CE" d="M24.5,19.5 L1.5,19.5 C0.948,19.5 0.5,19.052 0.5,18.5 L0.5,1.5 C0.5,0.948 0.948,0.5 1.5,0.5 L24.5,0.5 C25.052,0.5 25.5,0.948 25.5,1.5 L25.5,18.5 C25.5,19.052 25.052,19.5 24.5,19.5 Z"/>
  </g>
</svg>
