<svg xmlns="http://www.w3.org/2000/svg" width="48" height="48" viewBox="0 0 48 48">
  <g fill="none" fill-rule="evenodd" transform="translate(9.5 14.5)">
    <path fill="#52A6CE" fill-rule="nonzero" d="M12.9924316,16 L2.99243164,16 C2.44043164,16 1.99243164,15.552 1.99243164,15 L1.99243164,8 C1.99243164,7.448 2.44043164,7 2.99243164,7 L12.9924316,7 C13.5444316,7 13.9924316,7.448 13.9924316,8 L13.9924316,15 C13.9924316,15.552 13.5444316,16 12.9924316,16 Z" opacity=".2"/>
    <path stroke="#52A6CE" stroke-linecap="round" d="M12.9924316,16 L2.99243164,16 C2.44043164,16 1.99243164,15.552 1.99243164,15 L1.99243164,8 C1.99243164,7.448 2.44043164,7 2.99243164,7 L12.9924316,7 C13.5444316,7 13.9924316,7.448 13.9924316,8 L13.9924316,15 C13.9924316,15.552 13.5444316,16 12.9924316,16 Z"/>
    <line x1=".992" x2="14.992" y1="18.001" y2="18.001" stroke="#52A6CE" stroke-linecap="round"/>
    <path stroke="#52A6CE" stroke-linecap="round" d="M10,5.042 L10,1 C10,0.448 10.448,0 11,0 L28,0 C28.552,0 29,0.448 29,1 L29,15 C29,15.552 28.552,16 28,16 L15.958,16"/>
    <path fill="#52A6CE" fill-rule="nonzero" d="M12.5 14.5L12.5 10.487C12.495 10.487 12.491 10.486 12.487 10.486 10.285 10.486 8.5 12.271 8.5 14.473 8.5 14.482 8.502 14.491 8.503 14.5L12.5 14.5zM15.5 14.5L15.5 10.487C15.5 10.487 15.509 10.486 15.513 10.486 17.715 10.486 19.5 12.271 19.5 14.473 19.5 14.482 19.497 14.491 19.497 14.5L15.5 14.5z"/>
    <path fill="#52A6CE" fill-rule="nonzero" d="M28,0.5 L11,0.5 C10.175,0.5 9.5,1.175 9.5,2 L10.006,5.5 L13.5,5.5 C14.605,5.5 15.5,6.395 15.5,7.5 L15.5,16 L16.101,16.5 L28,16.5 C28.276,16.5 28.5,16.276 28.5,16 L28.5,1 C28.5,0.724 28.276,0.5 28,0.5 Z" opacity=".2"/>
  </g>
</svg>
