<svg xmlns="http://www.w3.org/2000/svg" width="48" height="48" viewBox="0 0 48 48">
  <defs>
    <filter id="system-updated-a" width="132.5%" height="132.5%" x="-16.3%" y="-16.3%" filterUnits="objectBoundingBox">
      <feOffset dy="1" in="SourceAlpha" result="shadowOffsetOuter1"/>
      <feGaussianBlur in="shadowOffsetOuter1" result="shadowBlurOuter1" stdDeviation="1"/>
      <feColorMatrix in="shadowBlurOuter1" result="shadowMatrixOuter1" values="0 0 0 0 0   0 0 0 0 0   0 0 0 0 0  0 0 0 0.2 0"/>
      <feMerge>
        <feMergeNode in="shadowMatrixOuter1"/>
        <feMergeNode in="SourceGraphic"/>
      </feMerge>
    </filter>
    <linearGradient id="system-updated-b" x1="50%" x2="50%" y1="0%" y2="100%">
      <stop offset="0%" stop-color="#77BEDC"/>
      <stop offset="100%" stop-color="#428AB6"/>
    </linearGradient>
    <linearGradient id="system-updated-c" x1="50%" x2="50%" y1="0%" y2="100%">
      <stop offset="0%" stop-color="#6AAAC5"/>
      <stop offset="100%" stop-color="#346D90"/>
    </linearGradient>
  </defs>
  <g fill="none" filter="url(#system-updated-a)" transform="translate(4 4)">
    <path fill="url(#system-updated-b)" stroke="url(#system-updated-c)" d="M10.8358895,2.79360231 C15.2394119,0.448309038 20.5376231,-0.217180544 25.6866995,1.35309363 C30.8357463,2.92335876 34.8609241,6.43232264 37.2062847,10.8359473 C39.5516785,15.2396344 40.2172114,20.5380135 38.6468883,25.687016 C37.0765878,30.8359444 33.5675429,34.8610275 29.1638197,37.2063338 C24.7600254,39.5516779 19.4615175,40.2171961 14.3123898,38.6469063 C9.16343363,37.0766688 5.13855253,33.5677972 2.79342444,29.1642778 C0.448182077,24.7605439 -0.217148621,19.4620727 1.35320079,14.312984 C2.92351441,9.16401268 6.43235699,5.13890096 10.8358895,2.79360231 Z"/>
    <path fill="#FFF" d="M10.569,20.003 L15.997,20.006 L15.997,29 C15.997,29.552 16.51,30.006 17.063,30.006 L23.063,30.006 C23.615,30.006 23.997,29.552 23.997,29 L23.997,20.006 L29.475,20.003 C29.976,20.003 30.232,19.457 29.877,19.102 L20.388,9.242 C20.168,9.022 19.813,9.037 19.594,9.257 L10.175,19.094 C9.821,19.449 10.068,20.003 10.569,20.003 Z"/>
  </g>
</svg>
