<?xml version="1.0" encoding="UTF-8"?>
<svg width="48px" height="48px" viewBox="0 0 48 48" version="1.1" xmlns="http://www.w3.org/2000/svg" xmlns:xlink="http://www.w3.org/1999/xlink">
    <title>apps/48/com.deepin.gomoku</title>
    <defs>
        <filter x="-8.8%" y="-6.2%" width="117.5%" height="117.5%" filterUnits="objectBoundingBox" id="filter-1">
            <feOffset dx="0" dy="1" in="SourceAlpha" result="shadowOffsetOuter1"></feOffset>
            <feGaussianBlur stdDeviation="1" in="shadowOffsetOuter1" result="shadowBlurOuter1"></feGaussianBlur>
            <feColorMatrix values="0 0 0 0 0   0 0 0 0 0   0 0 0 0 0  0 0 0 0.2 0" type="matrix" in="shadowBlurOuter1" result="shadowMatrixOuter1"></feColorMatrix>
            <feMerge>
                <feMergeNode in="shadowMatrixOuter1"></feMergeNode>
                <feMergeNode in="SourceGraphic"></feMergeNode>
            </feMerge>
        </filter>
        <linearGradient x1="50%" y1="0%" x2="50%" y2="100%" id="linearGradient-2">
            <stop stop-color="#FDD7A7" offset="0%"></stop>
            <stop stop-color="#C78051" offset="100%"></stop>
        </linearGradient>
        <linearGradient x1="50%" y1="0%" x2="50%" y2="100%" id="linearGradient-3">
            <stop stop-color="#FFFFFF" stop-opacity="0.2" offset="0%"></stop>
            <stop stop-color="#FFFFFF" stop-opacity="0.0498798077" offset="100%"></stop>
        </linearGradient>
        <linearGradient x1="50%" y1="0%" x2="50%" y2="100%" id="linearGradient-4">
            <stop stop-color="#EDBD8D" offset="0%"></stop>
            <stop stop-color="#AE6633" offset="100%"></stop>
        </linearGradient>
        <radialGradient cx="50%" cy="25.2410013%" fx="50%" fy="25.2410013%" r="74.7589987%" id="radialGradient-5">
            <stop stop-color="#767676" offset="0%"></stop>
            <stop stop-color="#000000" offset="100%"></stop>
        </radialGradient>
        <radialGradient cx="50%" cy="32.8753201%" fx="50%" fy="32.8753201%" r="67.1246799%" id="radialGradient-6">
            <stop stop-color="#FFFBFB" offset="0%"></stop>
            <stop stop-color="#FFFBFB" offset="37.6095851%"></stop>
            <stop stop-color="#C8CBE4" offset="100%"></stop>
        </radialGradient>
    </defs>
    <g id="apps/48/com.deepin.gomoku" stroke="none" stroke-width="1" fill="none" fill-rule="evenodd">
        <g id="编组" filter="url(#filter-1)" transform="translate(4, 4)">
            <rect id="矩形" fill="url(#linearGradient-2)" x="0" y="0" width="40" height="40" rx="7.5"></rect>
            <path d="M32.5,0 C36.6421356,0 40,3.35786438 40,7.5 L40,32.5 C40,36.6421356 36.6421356,40 32.5,40 L7.5,40 C3.35786438,40 0,36.6421356 0,32.5 L0,7.5 C0,3.35786438 3.35786438,0 7.5,0 L32.5,0 Z M32.5,1 L7.5,1 C3.91014913,1 1,3.91014913 1,7.5 L1,32.5 C1,36.0898509 3.91014913,39 7.5,39 L32.5,39 C36.0898509,39 39,36.0898509 39,32.5 L39,7.5 C39,3.91014913 36.0898509,1 32.5,1 Z" id="矩形" fill="url(#linearGradient-3)" fill-rule="nonzero"></path>
            <path d="M9.97619048,1 L9.97538095,9.99938095 L20.023381,9.99938095 L20.0238095,1 L20.9761905,1 L20.975381,9.99938095 L30.023381,9.99938095 L30.0238095,1 L30.9761905,1 L30.975381,9.99938095 L39,10 L39,11 L30.975381,10.999381 L30.975381,19.999381 L39,20 L39,21 L30.975381,20.999381 L30.975381,29.999381 L39,30 L39,31 L30.975381,30.999381 L30.9761905,39.0952381 L30.0238095,39.0952381 L30.023381,30.999381 L20.975381,30.999381 L20.9761905,39.0952381 L20.0238095,39.0952381 L20.023381,30.999381 L9.97538095,30.999381 L9.97619048,39.0952381 L9.02380952,39.0952381 L9.02338095,30.999381 L1,31 L1,30 L9.02338095,29.999381 L9.02338095,20.999381 L1,21 L1,20 L9.02338095,19.999381 L9.02338095,10.999381 L1,11 L1,10 L9.02338095,9.99938095 L9.02380952,1 L9.97619048,1 Z M20.023381,20.999381 L9.97538095,20.999381 L9.97538095,29.999381 L20.023381,29.999381 L20.023381,20.999381 Z M30.023381,20.999381 L20.975381,20.999381 L20.975381,29.999381 L30.023381,29.999381 L30.023381,20.999381 Z M20.023381,10.999381 L9.97538095,10.999381 L9.97538095,19.999381 L20.023381,19.999381 L20.023381,10.999381 Z M30.023381,10.999381 L20.975381,10.999381 L20.975381,19.999381 L30.023381,19.999381 L30.023381,10.999381 Z" id="形状结合" fill="url(#linearGradient-4)" opacity="0.698287609"></path>
            <circle id="椭圆形备份" fill="url(#radialGradient-5)" cx="30" cy="30" r="3.57142857"></circle>
            <path d="M30,25.4761905 C27.501569,25.4761905 25.4761905,27.501569 25.4761905,30 C25.4761905,32.498431 27.501569,34.5238095 30,34.5238095 C32.498431,34.5238095 34.5238095,32.498431 34.5238095,30 C34.5238095,27.501569 32.498431,25.4761905 30,25.4761905 Z M30,26.4285714 C31.9724455,26.4285714 33.5714286,28.0275545 33.5714286,30 C33.5714286,31.9724455 31.9724455,33.5714286 30,33.5714286 C28.0275545,33.5714286 26.4285714,31.9724455 26.4285714,30 C26.4285714,28.0275545 28.0275545,26.4285714 30,26.4285714 Z" id="椭圆形备份" fill-opacity="0.2" fill="#000000" fill-rule="nonzero"></path>
            <circle id="椭圆形备份-2" fill="url(#radialGradient-5)" cx="20" cy="10" r="3.57142857"></circle>
            <circle id="椭圆形备份-3" fill="url(#radialGradient-5)" cx="10" cy="20" r="3.57142857"></circle>
            <path d="M20,5.47619048 C17.501569,5.47619048 15.4761905,7.50156899 15.4761905,10 C15.4761905,12.498431 17.501569,14.5238095 20,14.5238095 C22.498431,14.5238095 24.5238095,12.498431 24.5238095,10 C24.5238095,7.50156899 22.498431,5.47619048 20,5.47619048 Z M20,6.42857143 C21.9724455,6.42857143 23.5714286,8.02755446 23.5714286,10 C23.5714286,11.9724455 21.9724455,13.5714286 20,13.5714286 C18.0275545,13.5714286 16.4285714,11.9724455 16.4285714,10 C16.4285714,8.02755446 18.0275545,6.42857143 20,6.42857143 Z" id="椭圆形备份-2" fill-opacity="0.2" fill="#000000" fill-rule="nonzero"></path>
            <path d="M10,15.4761905 C7.50156899,15.4761905 5.47619048,17.501569 5.47619048,20 C5.47619048,22.498431 7.50156899,24.5238095 10,24.5238095 C12.498431,24.5238095 14.5238095,22.498431 14.5238095,20 C14.5238095,17.501569 12.498431,15.4761905 10,15.4761905 Z M10,16.4285714 C11.9724455,16.4285714 13.5714286,18.0275545 13.5714286,20 C13.5714286,21.9724455 11.9724455,23.5714286 10,23.5714286 C8.02755446,23.5714286 6.42857143,21.9724455 6.42857143,20 C6.42857143,18.0275545 8.02755446,16.4285714 10,16.4285714 Z" id="椭圆形备份-3" fill-opacity="0.2" fill="#000000" fill-rule="nonzero"></path>
            <g id="白棋" transform="translate(5.4762, 5.4762)">
                <circle id="椭圆形备份" fill="url(#radialGradient-6)" cx="4.52380952" cy="4.52380952" r="3.57142857"></circle>
                <path d="M4.52380952,0 C2.02537851,0 0,2.02537851 0,4.52380952 C0,7.02224053 2.02537851,9.04761905 4.52380952,9.04761905 C7.02224053,9.04761905 9.04761905,7.02224053 9.04761905,4.52380952 C9.04761905,2.02537851 7.02224053,0 4.52380952,0 Z M4.52380952,0.952380952 C6.49625506,0.952380952 8.0952381,2.55136399 8.0952381,4.52380952 C8.0952381,6.49625506 6.49625506,8.0952381 4.52380952,8.0952381 C2.55136399,8.0952381 0.952380952,6.49625506 0.952380952,4.52380952 C0.952380952,2.55136399 2.55136399,0.952380952 4.52380952,0.952380952 Z" id="椭圆形备份" fill-opacity="0.0968094406" fill="#000000" fill-rule="nonzero"></path>
            </g>
            <g id="白棋备份" transform="translate(15.4762, 15.4762)">
                <circle id="椭圆形备份" fill="url(#radialGradient-6)" cx="4.52380952" cy="4.52380952" r="3.57142857"></circle>
                <path d="M4.52380952,0 C2.02537851,0 0,2.02537851 0,4.52380952 C0,7.02224053 2.02537851,9.04761905 4.52380952,9.04761905 C7.02224053,9.04761905 9.04761905,7.02224053 9.04761905,4.52380952 C9.04761905,2.02537851 7.02224053,0 4.52380952,0 Z M4.52380952,0.952380952 C6.49625506,0.952380952 8.0952381,2.55136399 8.0952381,4.52380952 C8.0952381,6.49625506 6.49625506,8.0952381 4.52380952,8.0952381 C2.55136399,8.0952381 0.952380952,6.49625506 0.952380952,4.52380952 C0.952380952,2.55136399 2.55136399,0.952380952 4.52380952,0.952380952 Z" id="椭圆形备份" fill-opacity="0.0968094406" fill="#000000" fill-rule="nonzero"></path>
            </g>
        </g>
        <g id="Guide/48" transform="translate(1.5, 1.5)"></g>
    </g>
</svg>