<svg xmlns="http://www.w3.org/2000/svg" xmlns:xlink="http://www.w3.org/1999/xlink" width="48" height="48" viewBox="0 0 48 48">
  <defs>
    <filter id="dde-calendar48-a" width="135%" height="137.5%" x="-16.2%" y="-16.2%" filterUnits="objectBoundingBox">
      <feOffset dy="1" in="SourceAlpha" result="shadowOffsetOuter1"/>
      <feGaussianBlur in="shadowOffsetOuter1" result="shadowBlurOuter1" stdDeviation="1"/>
      <feComposite in="shadowBlurOuter1" in2="SourceAlpha" operator="out" result="shadowBlurOuter1"/>
      <feColorMatrix in="shadowBlurOuter1" result="shadowMatrixOuter1" values="0 0 0 0 0   0 0 0 0 0   0 0 0 0 0  0 0 0 0.2 0"/>
      <feMerge>
        <feMergeNode in="shadowMatrixOuter1"/>
        <feMergeNode in="SourceGraphic"/>
      </feMerge>
    </filter>
    <radialGradient id="dde-calendar48-b" cx="54.324%" cy="55.779%" r="61.961%" fx="54.324%" fy="55.779%" gradientTransform="matrix(-.81853 -.50574 .72654 -.91134 .583 1.34)">
      <stop offset="0%"/>
      <stop offset="100%" stop-opacity=".148"/>
    </radialGradient>
    <path id="dde-calendar48-d" d="M19.03125,28.8125 L19.03125,26.7065051 L13.3129513,26.7065051 L18.1278204,20.7815051 C18.7301068,20.0291241 19.03125,19.1692602 19.03125,18.2019133 C19.0175617,16.9927296 18.6034898,15.9951531 17.7890343,15.2091837 C16.9882671,14.4164966 15.9445322,14.0134354 14.6578294,14 C13.5080099,14.0134354 12.5395608,14.4097789 11.7524819,15.1890306 C10.9722473,15.9884354 10.5547533,16.9994473 10.5,18.2220663 L10.5,18.2220663 L12.6353791,18.2220663 C12.7106649,17.5502976 12.9502106,17.0296769 13.3540162,16.6602041 C13.7441336,16.2907313 14.2334913,16.1059949 14.8220894,16.1059949 C15.4859732,16.1194303 15.9992855,16.3310374 16.3620262,16.7408163 C16.7110785,17.1505952 16.8856047,17.6309099 16.8856047,18.1817602 C16.8856047,18.3900085 16.858228,18.6116922 16.8034747,18.8468112 C16.7213448,19.0953656 16.5673511,19.3640731 16.3414937,19.6529337 L16.3414937,19.6529337 L10.5,26.8274235 L10.5,28.8125 L19.03125,28.8125 Z M24.8286145,28.71875 L29.90625,16.1098894 L29.90625,14 L21.375,14 L21.375,18.2399691 L23.5232304,18.2399691 L23.5232304,16.1098894 L27.5010542,16.1098894 L22.4336973,28.71875 L24.8286145,28.71875 Z"/>
    <filter id="dde-calendar48-c" width="136.1%" height="147.3%" x="-18%" y="-16.9%" filterUnits="objectBoundingBox">
      <feOffset dy="1" in="SourceAlpha" result="shadowOffsetOuter1"/>
      <feGaussianBlur in="shadowOffsetOuter1" result="shadowBlurOuter1" stdDeviation="1"/>
      <feColorMatrix in="shadowBlurOuter1" values="0 0 0 0 0   0 0 0 0 0.423732517   0 0 0 0 1  0 0 0 0.2 0"/>
    </filter>
    <linearGradient id="dde-calendar48-g" x1="69.76%" x2="56.983%" y1="71.097%" y2="57.701%">
      <stop offset="0%" stop-color="#C6C6C6"/>
      <stop offset="53.052%" stop-color="#E7E7E7"/>
      <stop offset="100%" stop-color="#F4F4F4"/>
    </linearGradient>
    <path id="dde-calendar48-f" d="M40,27 C40,27 39.3996933,30.3576945 38.71875,31.453125 C37.640625,33.1875 36.84375,32.53125 35.34375,34.359375 C33.84375,36.1875 34.875,36.515625 32.625,38.4375 C31.4192178,39.4674389 28.5,40 28.5,40 C37.828125,40 40,32.015625 40,27 Z"/>
    <filter id="dde-calendar48-e" width="134.8%" height="130.8%" x="-17.4%" y="-7.7%" filterUnits="objectBoundingBox">
      <feOffset dy="1" in="SourceAlpha" result="shadowOffsetOuter1"/>
      <feGaussianBlur in="shadowOffsetOuter1" result="shadowBlurOuter1" stdDeviation=".5"/>
      <feColorMatrix in="shadowBlurOuter1" values="0 0 0 0 0   0 0 0 0 0   0 0 0 0 0  0 0 0 0.05 0"/>
    </filter>
  </defs>
  <g fill="none" fill-rule="evenodd" filter="url(#dde-calendar48-a)" transform="rotate(-8 50.601 -6.601)">
    <rect width="40" height="40" fill="#FFF" rx="7.313"/>
    <path fill="url(#dde-calendar48-b)" fill-opacity=".39" d="M39.9991205,27.5050288 L40,32.6875 C40,36.7260822 36.7260822,40 32.6875,40 L29,40 C32.7583333,39.5404412 35.4013889,38.0851716 36.9291667,35.6341912 C38.4560827,33.1845933 39.4794006,30.4748725 39.9991205,27.5050288 Z"/>
    <path fill="#E06164" fill-rule="nonzero" d="M9.8190625,10.5 L9.8190625,8.11125 C9.8190625,7.678125 9.76,7.0546875 9.7271875,6.615 L9.7534375,6.615 L10.1340625,7.730625 L10.980625,10.0340625 L11.453125,10.0340625 L12.293125,7.730625 L12.6803125,6.615 L12.7065625,6.615 C12.6671875,7.0546875 12.608125,7.678125 12.608125,8.11125 L12.608125,10.5 L13.316875,10.5 L13.316875,5.6634375 L12.4375,5.6634375 L11.5646875,8.11125 C11.453125,8.4328125 11.36125,8.7609375 11.2496875,9.0825 L11.216875,9.0825 C11.1053125,8.7609375 11.006875,8.4328125 10.8953125,8.11125 L10.009375,5.6634375 L9.1365625,5.6634375 L9.1365625,10.5 L9.8190625,10.5 Z M14.72125,10.5 L15.1346875,9.121875 L16.8146875,9.121875 L17.2215625,10.5 L18.02875,10.5 L16.4275,5.6634375 L15.548125,5.6634375 L13.946875,10.5 L14.72125,10.5 Z M16.6309375,8.5246875 L15.311875,8.5246875 L15.50875,7.875 C15.66625,7.35 15.8171875,6.8184375 15.955,6.2671875 L15.9878125,6.2671875 C16.1321875,6.811875 16.2765625,7.35 16.440625,7.875 L16.6309375,8.5246875 Z M19.4265625,10.5 L19.4265625,8.5509375 L20.2075,8.5509375 L21.3034375,10.5 L22.163125,10.5 L20.981875,8.4525 C21.5921875,8.2621875 21.9925,7.8159375 21.9925,7.0678125 C21.9925,6.024375 21.244375,5.6634375 20.246875,5.6634375 L18.6653125,5.6634375 L18.6653125,10.5 L19.4265625,10.5 Z M20.155,7.940625 L19.4265625,7.940625 L19.4265625,6.2803125 L20.155,6.2803125 C20.8571875,6.2803125 21.2378125,6.48375 21.2378125,7.0678125 C21.2378125,7.651875 20.8571875,7.940625 20.155,7.940625 Z M24.85375,10.5853125 C25.4771875,10.5853125 25.969375,10.3359375 26.3565625,9.8896875 L25.9496875,9.410625 C25.6609375,9.725625 25.32625,9.9225 24.88,9.9225 C24.026875,9.9225 23.48875,9.2203125 23.48875,8.071875 C23.48875,6.9365625 24.06625,6.2409375 24.8996875,6.2409375 C25.2934375,6.2409375 25.5953125,6.418125 25.8446875,6.6740625 L26.258125,6.1884375 C25.9628125,5.866875 25.4903125,5.578125 24.8865625,5.578125 C23.6659375,5.578125 22.7078125,6.523125 22.7078125,8.098125 C22.7078125,9.6796875 23.6396875,10.5853125 24.85375,10.5853125 Z M27.9709375,10.5 L27.9709375,8.3015625 L30.038125,8.3015625 L30.038125,10.5 L30.799375,10.5 L30.799375,5.6634375 L30.038125,5.6634375 L30.038125,7.63875 L27.9709375,7.63875 L27.9709375,5.6634375 L27.2096875,5.6634375 L27.2096875,10.5 L27.9709375,10.5 Z"/>
    <g fill-rule="nonzero">
      <use fill="#000" filter="url(#dde-calendar48-c)" xlink:href="#dde-calendar48-d"/>
      <use fill="#2D394F" xlink:href="#dde-calendar48-d"/>
    </g>
    <path fill="#2D394F" fill-rule="nonzero" d="M12.75375,34.5 L12.75375,33.135 C12.75375,32.8875 12.72,32.53125 12.70125,32.28 L12.71625,32.28 L12.93375,32.9175 L13.4175,34.23375 L13.6875,34.23375 L14.1675,32.9175 L14.38875,32.28 L14.40375,32.28 C14.38125,32.53125 14.3475,32.8875 14.3475,33.135 L14.3475,34.5 L14.7525,34.5 L14.7525,31.73625 L14.25,31.73625 L13.75125,33.135 C13.6875,33.31875 13.635,33.50625 13.57125,33.69 L13.5525,33.69 C13.48875,33.50625 13.4325,33.31875 13.36875,33.135 L12.8625,31.73625 L12.36375,31.73625 L12.36375,34.5 L12.75375,34.5 Z M16.52625,34.54875 C17.235,34.54875 17.73,33.9975 17.73,33.10875 C17.73,32.22 17.235,31.6875 16.52625,31.6875 C15.8175,31.6875 15.32625,32.22 15.32625,33.10875 C15.32625,33.9975 15.8175,34.54875 16.52625,34.54875 Z M16.52625,34.17 C16.06875,34.17 15.7725,33.75375 15.7725,33.10875 C15.7725,32.46 16.06875,32.06625 16.52625,32.06625 C16.98375,32.06625 17.28375,32.46 17.28375,33.10875 C17.28375,33.75375 16.98375,34.17 16.52625,34.17 Z M18.71625,34.5 L18.71625,33.19875 C18.71625,32.89875 18.6825,32.58 18.66,32.295 L18.67875,32.295 L18.9675,32.8725 L19.8825,34.5 L20.32875,34.5 L20.32875,31.73625 L19.91625,31.73625 L19.91625,33.02625 C19.91625,33.32625 19.95,33.66 19.9725,33.945 L19.95375,33.945 L19.665,33.36 L18.75,31.73625 L18.30375,31.73625 L18.30375,34.5 L18.71625,34.5 Z M21.795,34.5 C22.62,34.5 23.10375,34.005 23.10375,33.10875 C23.10375,32.20875 22.62,31.73625 21.7725,31.73625 L21.05625,31.73625 L21.05625,34.5 L21.795,34.5 Z M21.7425,34.14375 L21.49125,34.14375 L21.49125,32.0925 L21.7425,32.0925 C22.335,32.0925 22.65375,32.41875 22.65375,33.10875 C22.65375,33.795 22.335,34.14375 21.7425,34.14375 Z M23.75625,34.5 L23.9925,33.7125 L24.9525,33.7125 L25.185,34.5 L25.64625,34.5 L24.73125,31.73625 L24.22875,31.73625 L23.31375,34.5 L23.75625,34.5 Z M24.8475,33.37125 L24.09375,33.37125 L24.20625,33 C24.29625,32.7 24.3825,32.39625 24.46125,32.08125 L24.48,32.08125 C24.5625,32.3925 24.645,32.7 24.73875,33 L24.8475,33.37125 Z M26.89875,34.5 L26.89875,33.45375 L27.73125,31.73625 L27.2775,31.73625 L26.955,32.47125 C26.8725,32.6775 26.7825,32.86875 26.6925,33.07875 L26.6775,33.07875 C26.58375,32.86875 26.505,32.6775 26.41875,32.47125 L26.1,31.73625 L25.635,31.73625 L26.46375,33.45375 L26.46375,34.5 L26.89875,34.5 Z"/>
    <use fill="#000" filter="url(#dde-calendar48-e)" xlink:href="#dde-calendar48-f"/>
    <use fill="url(#dde-calendar48-g)" xlink:href="#dde-calendar48-f"/>
  </g>
</svg>
