<svg xmlns="http://www.w3.org/2000/svg" xmlns:xlink="http://www.w3.org/1999/xlink" width="48" height="48" viewBox="0 0 48 48">
  <defs>
    <filter id="printer-a" width="132.5%" height="134.2%" x="-16.2%" y="-17.1%" filterUnits="objectBoundingBox">
      <feOffset dy="1" in="SourceAlpha" result="shadowOffsetOuter1"/>
      <feGaussianBlur in="shadowOffsetOuter1" result="shadowBlurOuter1" stdDeviation="1"/>
      <feComposite in="shadowBlurOuter1" in2="SourceAlpha" operator="out" result="shadowBlurOuter1"/>
      <feColorMatrix in="shadowBlurOuter1" result="shadowMatrixOuter1" values="0 0 0 0 0   0 0 0 0 0   0 0 0 0 0  0 0 0 0.2 0"/>
      <feMerge>
        <feMergeNode in="shadowMatrixOuter1"/>
        <feMergeNode in="SourceGraphic"/>
      </feMerge>
    </filter>
    <linearGradient id="printer-b" x1="50%" x2="50%" y1="7.227%" y2="60.079%">
      <stop offset="0%" stop-color="#415E6B"/>
      <stop offset="100%" stop-color="#314956"/>
    </linearGradient>
    <path id="printer-c" d="M7.0625,5 L32.9375,5 C34.0765873,5 35,5.9234127 35,7.0625 L35,12.0625 C35,12.580267 34.580267,13 34.0625,13 L5.9375,13 C5.41973305,13 5,12.580267 5,12.0625 L5,7.0625 C5,5.9234127 5.9234127,5 7.0625,5 Z"/>
    <filter id="printer-d" width="103.3%" height="112.5%" x="-1.7%" y="-6.2%" filterUnits="objectBoundingBox">
      <feOffset dy="1" in="SourceAlpha" result="shadowOffsetInner1"/>
      <feComposite in="shadowOffsetInner1" in2="SourceAlpha" k2="-1" k3="1" operator="arithmetic" result="shadowInnerInner1"/>
      <feColorMatrix in="shadowInnerInner1" values="0 0 0 0 1   0 0 0 0 1   0 0 0 0 1  0 0 0 0.0991859703 0"/>
    </filter>
    <linearGradient id="printer-e" x1="6.392%" x2="3.067%" y1="30.304%" y2="58.681%">
      <stop offset="0%" stop-color="#AAD7F1"/>
      <stop offset="100%" stop-color="#FFF"/>
    </linearGradient>
    <linearGradient id="printer-f" x1="13.183%" x2="59.206%" y1="12.219%" y2="57.993%">
      <stop offset="0%" stop-color="#DCEAFD"/>
      <stop offset="100%" stop-color="#CCD2D7"/>
    </linearGradient>
    <linearGradient id="printer-g" x1="50%" x2="50%" y1="0%" y2="100%">
      <stop offset="0%" stop-opacity=".08"/>
      <stop offset="100%" stop-opacity=".04"/>
    </linearGradient>
    <linearGradient id="printer-h" x1="50%" x2="50%" y1="0%" y2="100%">
      <stop offset="0%" stop-color="#4C6775"/>
      <stop offset="13.849%" stop-color="#597888"/>
      <stop offset="14.635%" stop-color="#38505B"/>
      <stop offset="32.556%" stop-color="#324A56"/>
      <stop offset="100%" stop-color="#21323B"/>
    </linearGradient>
    <path id="printer-i" d="M3.75,10 L36.25,10 C38.3210678,10 40,11.6789322 40,13.75 L40,34.25 C40,36.3210678 38.3210678,38 36.25,38 L3.75,38 C1.67893219,38 2.53632657e-16,36.3210678 0,34.25 L0,13.75 C-2.53632657e-16,11.6789322 1.67893219,10 3.75,10 Z"/>
    <filter id="printer-j" width="102.5%" height="103.6%" x="-1.2%" y="-1.8%" filterUnits="objectBoundingBox">
      <feOffset dy="-1" in="SourceAlpha" result="shadowOffsetInner1"/>
      <feComposite in="shadowOffsetInner1" in2="SourceAlpha" k2="-1" k3="1" operator="arithmetic" result="shadowInnerInner1"/>
      <feColorMatrix in="shadowInnerInner1" values="0 0 0 0 0   0 0 0 0 0   0 0 0 0 0  0 0 0 0.25 0"/>
    </filter>
    <linearGradient id="printer-k" x1="50%" x2="50%" y1="0%" y2="100%">
      <stop offset="0%" stop-color="#1C2D35"/>
      <stop offset="100%" stop-color="#101C22"/>
    </linearGradient>
    <path id="printer-l" d="M7.34375,29 L32.65625,29 C33.9506674,29 35,30.0493326 35,31.34375 L35,38 L35,38 L5,38 L5,31.34375 C5,30.0493326 6.04933262,29 7.34375,29 Z"/>
    <filter id="printer-m" width="103.3%" height="111.1%" x="-1.7%" y="-5.6%" filterUnits="objectBoundingBox">
      <feOffset dy="1" in="SourceAlpha" result="shadowOffsetInner1"/>
      <feComposite in="shadowOffsetInner1" in2="SourceAlpha" k2="-1" k3="1" operator="arithmetic" result="shadowInnerInner1"/>
      <feColorMatrix in="shadowInnerInner1" values="0 0 0 0 0   0 0 0 0 0   0 0 0 0 0  0 0 0 0.2 0"/>
    </filter>
    <linearGradient id="printer-n" x1="50%" x2="50%" y1="0%" y2="100%">
      <stop offset="0%" stop-color="#213A44"/>
      <stop offset="100%" stop-color="#162C36"/>
    </linearGradient>
    <path id="printer-o" d="M8,29 L32,29 L32,31.4375 C32,31.7481602 31.7481602,32 31.4375,32 L8.5625,32 C8.25183983,32 8,31.7481602 8,31.4375 L8,29 L8,29 Z"/>
    <filter id="printer-p" width="104.2%" height="133.3%" x="-2.1%" y="-16.7%" filterUnits="objectBoundingBox">
      <feOffset dy="1" in="SourceAlpha" result="shadowOffsetInner1"/>
      <feComposite in="shadowOffsetInner1" in2="SourceAlpha" k2="-1" k3="1" operator="arithmetic" result="shadowInnerInner1"/>
      <feColorMatrix in="shadowInnerInner1" result="shadowMatrixInner1" values="0 0 0 0 0   0 0 0 0 0   0 0 0 0 0  0 0 0 0.13204764 0"/>
      <feOffset dy="-1" in="SourceAlpha" result="shadowOffsetInner2"/>
      <feComposite in="shadowOffsetInner2" in2="SourceAlpha" k2="-1" k3="1" operator="arithmetic" result="shadowInnerInner2"/>
      <feColorMatrix in="shadowInnerInner2" result="shadowMatrixInner2" values="0 0 0 0 1   0 0 0 0 1   0 0 0 0 1  0 0 0 0.0325065559 0"/>
      <feMerge>
        <feMergeNode in="shadowMatrixInner1"/>
        <feMergeNode in="shadowMatrixInner2"/>
      </feMerge>
    </filter>
    <linearGradient id="printer-q" x1="50%" x2="50%" y1="0%" y2="100%">
      <stop offset="0%" stop-color="#172D38"/>
      <stop offset="100%" stop-color="#142934"/>
    </linearGradient>
    <path id="printer-r" d="M8.5625,35 L31.4375,35 C31.7481602,35 32,35.2518398 32,35.5625 L32,38 L32,38 L8,38 L8,35.5625 C8,35.2518398 8.25183983,35 8.5625,35 Z"/>
    <filter id="printer-s" width="104.2%" height="133.3%" x="-2.1%" y="-16.7%" filterUnits="objectBoundingBox">
      <feOffset dy="1" in="SourceAlpha" result="shadowOffsetInner1"/>
      <feComposite in="shadowOffsetInner1" in2="SourceAlpha" k2="-1" k3="1" operator="arithmetic" result="shadowInnerInner1"/>
      <feColorMatrix in="shadowInnerInner1" result="shadowMatrixInner1" values="0 0 0 0 1   0 0 0 0 1   0 0 0 0 1  0 0 0 0.05 0"/>
      <feOffset dy="-1" in="SourceAlpha" result="shadowOffsetInner2"/>
      <feComposite in="shadowOffsetInner2" in2="SourceAlpha" k2="-1" k3="1" operator="arithmetic" result="shadowInnerInner2"/>
      <feColorMatrix in="shadowInnerInner2" result="shadowMatrixInner2" values="0 0 0 0 0   0 0 0 0 0   0 0 0 0 0  0 0 0 0.1 0"/>
      <feMerge>
        <feMergeNode in="shadowMatrixInner1"/>
        <feMergeNode in="shadowMatrixInner2"/>
      </feMerge>
    </filter>
    <rect id="printer-u" width="4" height="2" x="0" y="0" rx="1"/>
    <filter id="printer-t" width="200%" height="300%" x="-50%" y="-50%" filterUnits="objectBoundingBox">
      <feOffset dy="1" in="SourceAlpha" result="shadowOffsetOuter1"/>
      <feGaussianBlur in="shadowOffsetOuter1" result="shadowBlurOuter1" stdDeviation=".5"/>
      <feColorMatrix in="shadowBlurOuter1" values="0 0 0 0 0   0 0 0 0 0   0 0 0 0 0  0 0 0 0.18 0"/>
    </filter>
    <filter id="printer-v" width="175%" height="250%" x="-37.5%" y="-25%" filterUnits="objectBoundingBox">
      <feOffset dy="1" in="SourceAlpha" result="shadowOffsetInner1"/>
      <feComposite in="shadowOffsetInner1" in2="SourceAlpha" k2="-1" k3="1" operator="arithmetic" result="shadowInnerInner1"/>
      <feColorMatrix in="shadowInnerInner1" values="0 0 0 0 1   0 0 0 0 1   0 0 0 0 1  0 0 0 0.15 0"/>
    </filter>
    <rect id="printer-x" width="4" height="2" x="0" y="3" rx="1"/>
    <filter id="printer-w" width="200%" height="300%" x="-50%" y="-50%" filterUnits="objectBoundingBox">
      <feOffset dy="1" in="SourceAlpha" result="shadowOffsetOuter1"/>
      <feGaussianBlur in="shadowOffsetOuter1" result="shadowBlurOuter1" stdDeviation=".5"/>
      <feColorMatrix in="shadowBlurOuter1" values="0 0 0 0 0   0 0 0 0 0   0 0 0 0 0  0 0 0 0.18 0"/>
    </filter>
    <filter id="printer-y" width="175%" height="250%" x="-37.5%" y="-25%" filterUnits="objectBoundingBox">
      <feOffset dy="1" in="SourceAlpha" result="shadowOffsetInner1"/>
      <feComposite in="shadowOffsetInner1" in2="SourceAlpha" k2="-1" k3="1" operator="arithmetic" result="shadowInnerInner1"/>
      <feColorMatrix in="shadowInnerInner1" values="0 0 0 0 1   0 0 0 0 1   0 0 0 0 1  0 0 0 0.2 0"/>
    </filter>
    <rect id="printer-A" width="4" height="2" x="0" y="6" rx="1"/>
    <filter id="printer-z" width="200%" height="300%" x="-50%" y="-50%" filterUnits="objectBoundingBox">
      <feOffset dy="1" in="SourceAlpha" result="shadowOffsetOuter1"/>
      <feGaussianBlur in="shadowOffsetOuter1" result="shadowBlurOuter1" stdDeviation=".5"/>
      <feColorMatrix in="shadowBlurOuter1" values="0 0 0 0 0   0 0 0 0 0   0 0 0 0 0  0 0 0 0.18 0"/>
    </filter>
    <filter id="printer-B" width="175%" height="250%" x="-37.5%" y="-25%" filterUnits="objectBoundingBox">
      <feOffset dy="1" in="SourceAlpha" result="shadowOffsetInner1"/>
      <feComposite in="shadowOffsetInner1" in2="SourceAlpha" k2="-1" k3="1" operator="arithmetic" result="shadowInnerInner1"/>
      <feColorMatrix in="shadowInnerInner1" values="0 0 0 0 1   0 0 0 0 1   0 0 0 0 1  0 0 0 0.35 0"/>
    </filter>
  </defs>
  <g fill="none" fill-rule="evenodd" filter="url(#printer-a)" transform="translate(4 5)">
    <use fill="url(#printer-b)" xlink:href="#printer-c"/>
    <use fill="#000" filter="url(#printer-d)" xlink:href="#printer-c"/>
    <path fill="url(#printer-e)" d="M8,0 L32,0 L32,6 L28,10 L9.875,10 C8.83946609,10 8,9.16053391 8,8.125 L8,0 L8,0 Z" transform="matrix(1 0 0 -1 0 10)"/>
    <path fill="url(#printer-f)" d="M28,1.40625 L28,4 L28,4 L32,0 L29.40625,0 C28.6295996,1.42668369e-16 28,0.629599571 28,1.40625 Z" transform="rotate(-90 30 2)"/>
    <path fill="url(#printer-g)" d="M15,12.5 C15.5522847,12.5 16,12.9477153 16,13.5 C16,14.0522847 15.5522847,14.5 15,14.5 L13,14.5 C12.4477153,14.5 12,14.0522847 12,13.5 C12,12.9477153 12.4477153,12.5 13,12.5 L15,12.5 Z M23,12.5 C23.5522847,12.5 24,12.9477153 24,13.5 C24,14.0522847 23.5522847,14.5 23,14.5 L18,14.5 C17.4477153,14.5 17,14.0522847 17,13.5 C17,12.9477153 17.4477153,12.5 18,12.5 L23,12.5 Z M28,9.5 C28.5522847,9.5 29,9.94771525 29,10.5 C29,11.0522847 28.5522847,11.5 28,11.5 L13,11.5 C12.4477153,11.5 12,11.0522847 12,10.5 C12,9.94771525 12.4477153,9.5 13,9.5 L28,9.5 Z M20,6.5 C20.5522847,6.5 21,6.94771525 21,7.5 C21,8.05228475 20.5522847,8.5 20,8.5 L13,8.5 C12.4477153,8.5 12,8.05228475 12,7.5 C12,6.94771525 12.4477153,6.5 13,6.5 L20,6.5 Z M27,6.5 C27.5522847,6.5 28,6.94771525 28,7.5 C28,8.05228475 27.5522847,8.5 27,8.5 L23,8.5 C22.4477153,8.5 22,8.05228475 22,7.5 C22,6.94771525 22.4477153,6.5 23,6.5 L27,6.5 Z M25,3 C25.5522847,3 26,3.44771525 26,4 C26,4.55228475 25.5522847,5 25,5 L13,5 C12.4477153,5 12,4.55228475 12,4 C12,3.44771525 12.4477153,3 13,3 L25,3 Z" transform="matrix(1 0 0 -1 0 17.5)"/>
    <use fill="url(#printer-h)" xlink:href="#printer-i"/>
    <use fill="#000" filter="url(#printer-j)" xlink:href="#printer-i"/>
    <path fill="#B6B6B6" d="M4.01916504,18.3535156 L3.99499512,18.458252 C4.07556193,18.5200198 4.15747029,18.5509033 4.24072266,18.5509033 C4.37768623,18.5509033 4.49517773,18.4857795 4.59320068,18.3555298 C4.69122363,18.2252801 4.74023438,18.0701913 4.74023438,17.8902588 C4.74023438,17.7049551 4.67981017,17.5559088 4.55895996,17.4431152 C4.43810975,17.3303217 4.27832131,17.2739258 4.07958984,17.2739258 C3.85668834,17.2739258 3.6633309,17.33435 3.49951172,17.4552002 C3.34912034,17.5653082 3.27392578,17.6848138 3.27392578,17.8137207 C3.27392578,17.8701175 3.3034665,17.9171141 3.36254883,17.9547119 C3.42163115,17.9923098 3.45117188,18.019165 3.45117188,18.0352783 C3.45117188,18.0728762 3.44042979,18.1051024 3.41894531,18.131958 C3.39746083,18.1588136 3.36926287,18.1722412 3.33435059,18.1722412 C3.2457271,18.1722412 3.16784702,18.1346439 3.10070801,18.0594482 C3.033569,17.9842526 3,17.8969732 3,17.7976074 C3,17.5827626 3.10607804,17.396119 3.3182373,17.2376709 C3.53039657,17.0792228 3.78149269,17 4.0715332,17 C4.37231596,17 4.61267,17.0805656 4.79260254,17.2416992 C4.97253508,17.4028328 5.0625,17.6190172 5.0625,17.8902588 C5.0625,18.145387 4.98059164,18.3669424 4.81677246,18.5549316 C4.65295328,18.7429209 4.45825308,18.8369141 4.23266602,18.8369141 C4.16821257,18.8369141 4.12188735,18.8328858 4.09368896,18.8248291 C4.06549058,18.8167724 4.0111088,18.7926027 3.93054199,18.7523193 C3.89025859,18.913453 3.85131855,19.0732414 3.8137207,19.2316895 C3.70092717,19.5915545 3.51965457,19.7714844 3.26989746,19.7714844 C3.21081513,19.7714844 3.16986095,19.7580568 3.14703369,19.7312012 C3.12420643,19.7043456 3.10205089,19.6439214 3.08056641,19.5499268 L3.0604248,19.4492188 C3.12756381,19.4626466 3.17590317,19.4693604 3.20544434,19.4693604 C3.29943895,19.4693604 3.37530489,19.4073416 3.43304443,19.2833023 C3.49078398,19.159263 3.55590784,18.9260004 3.62841797,18.5835075 C3.68481474,18.3246447 3.72912582,18.1345393 3.76135254,18.0131855 C3.81237818,17.8271265 3.87280239,17.6572464 3.94262695,17.50354 L4.20446777,17.50354 C4.23132338,17.5115967 4.25280754,17.5169678 4.2689209,17.5196533 C4.23132305,17.6109624 4.19372577,17.716369 4.15612793,17.8358765 C4.11853009,17.9553839 4.07287625,18.1279286 4.01916504,18.3535156 Z M5.03430176,19.3565674 L5.03430176,19.0222168 C5.18469313,18.874511 5.29077118,18.7657474 5.35253906,18.6959229 C5.47338928,18.5589593 5.5633542,18.4273688 5.62243652,18.3011475 C5.58483868,18.2259518 5.56604004,18.1655276 5.56604004,18.119873 C5.56604004,18.0366207 5.57476798,17.9714968 5.59222412,17.9244995 C5.60968026,17.8775022 5.6519772,17.8540039 5.71911621,17.8540039 C5.82922418,17.8540039 5.89770494,17.8620605 5.92456055,17.8781738 C5.95141615,17.8942872 5.96484375,17.9318845 5.96484375,17.9909668 C5.96484375,18.0500491 5.94470235,18.1333002 5.90441895,18.2407227 C6.04138252,18.2890627 6.13403296,18.3280028 6.18237305,18.3575439 C6.3005377,18.4273685 6.35961914,18.5428459 6.35961914,18.7039795 C6.35961914,18.7818607 6.3408205,18.8758539 6.30322266,18.9859619 C6.21728473,19.235719 6.17431641,19.3740233 6.17431641,19.4008789 C6.17431641,19.4465334 6.19580057,19.4693604 6.23876953,19.4693604 C6.35693418,19.4693604 6.57311855,19.3122574 6.8873291,18.9980469 L6.8873291,19.3404541 C6.54626294,19.6331802 6.27502542,19.779541 6.0736084,19.779541 C5.99841271,19.779541 5.93798851,19.7500003 5.89233398,19.690918 C5.84667946,19.6318356 5.82385254,19.5552983 5.82385254,19.4613037 C5.82385254,19.3673091 5.8587643,19.2370614 5.92858887,19.0705566 C5.99841344,18.9040519 6.0333252,18.7899173 6.0333252,18.7281494 C6.0333252,18.6072992 5.96350167,18.518677 5.82385254,18.4622803 C5.73791461,18.6395273 5.58618273,18.8342275 5.36865234,19.0463867 C5.29614222,19.1162113 5.18469313,19.2196038 5.03430176,19.3565674 Z M7.96691895,18.9980469 L7.96691895,19.3404541 C7.86218209,19.445191 7.73730541,19.5405269 7.59228516,19.6264648 C7.4204093,19.7285161 7.27539122,19.779541 7.15722656,19.779541 C7.05786083,19.779541 6.99206559,19.7097175 6.95983887,19.5700684 C6.94372551,19.5002438 6.93566895,19.3901375 6.93566895,19.2397461 C6.93566895,19.0947258 6.95849587,18.9282236 7.00415039,18.7402344 C7.04980492,18.5522452 7.11291464,18.3562022 7.19348145,18.1520996 L7.53186035,18.1520996 L7.49157715,18.2729492 C7.40832478,18.5227063 7.34924334,18.7227776 7.31433105,18.8731689 C7.27941877,19.0235603 7.26196289,19.153808 7.26196289,19.263916 C7.26196289,19.3928229 7.28747533,19.4572754 7.33850098,19.4572754 C7.40563998,19.4572754 7.53454495,19.3767098 7.72521973,19.2155762 C7.80578654,19.1457516 7.88635214,19.0732426 7.96691895,18.9980469 Z M7.57214355,17.2779541 C7.70373601,17.2779541 7.76953125,17.3155514 7.76953125,17.3907471 C7.76953125,17.433716 7.75878917,17.4880978 7.73730469,17.553894 C7.71582021,17.6196903 7.69097914,17.6666869 7.66278076,17.6948853 C7.63458238,17.7230836 7.58154336,17.7371826 7.50366211,17.7371826 C7.40161082,17.7371826 7.35058594,17.7036136 7.35058594,17.6364746 C7.35058594,17.54248 7.37139872,17.4592289 7.4130249,17.3867188 C7.45465109,17.3142086 7.50769011,17.2779541 7.57214355,17.2779541 Z M8.26973534,18.1520996 L8.60742188,18.1520996 C8.56982403,18.2514653 8.53826917,18.3400875 8.51275635,18.4179688 C8.48724352,18.49585 8.46240246,18.5804439 8.43823242,18.6717529 C8.642335,18.4783926 8.80279483,18.3434452 8.9196167,18.2669067 C9.03643857,18.1903683 9.13915971,18.1520996 9.2277832,18.1520996 C9.29760777,18.1520996 9.35668921,18.1870114 9.4050293,18.2568359 C9.45336938,18.3266605 9.47753906,18.4139399 9.47753906,18.5186768 C9.47753906,18.5992436 9.43188522,18.7764879 9.34057617,19.050415 C9.29760721,19.1793219 9.27612305,19.2867427 9.27612305,19.3726807 C9.27612305,19.4505619 9.29760721,19.489502 9.34057617,19.489502 C9.37548846,19.489502 9.45068302,19.4492192 9.56616211,19.3686523 C9.71118237,19.2666011 9.84680113,19.1430671 9.97302246,18.9980469 L9.97302246,19.3404541 L9.88842773,19.4129639 C9.73266524,19.5472419 9.60577442,19.6412351 9.50775146,19.6949463 C9.40972851,19.7486575 9.31506393,19.7755127 9.22375488,19.7755127 C9.13781695,19.7755127 9.07000757,19.7412723 9.02032471,19.6727905 C8.97064184,19.6043087 8.94580078,19.5123297 8.94580078,19.3968506 C8.94580078,19.3135982 8.96594218,19.2115485 9.00622559,19.0906982 C9.09484908,18.8221422 9.13916016,18.6569827 9.13916016,18.5952148 C9.13916016,18.514648 9.11901876,18.4743652 9.07873535,18.4743652 C9.01159634,18.4743652 8.78869818,18.6542951 8.41003418,19.0141602 L8.36572266,19.0544434 C8.3630371,19.0974123 8.36035158,19.1397093 8.35766602,19.1813354 C8.35498046,19.2229616 8.3536377,19.2504882 8.3536377,19.263916 L8.3536377,19.666748 L8.36572266,19.7593994 L8.04345703,19.7593994 C8.03271479,19.676147 8.02734375,19.5996097 8.02734375,19.5297852 L8.02734375,19.1833496 C8.02734375,18.9389636 8.10814014,18.5952171 8.26973534,18.1520996 Z M10.2912598,18.1964111 L10.589859,17.2980957 L10.9288044,17.2984734 L10.6453743,18.1653805 L11.0163574,18.1641846 L10.9680176,18.3978271 L10.5571289,18.3978271 L10.5369873,18.4668121 C10.4993895,18.6048248 10.4711915,18.7272782 10.4523926,18.8341761 C10.4335937,18.941074 10.4241943,19.0350986 10.4241943,19.1162529 C10.4241943,19.3489735 10.4644771,19.465332 10.5450439,19.465332 C10.5880129,19.465332 10.660522,19.4301265 10.7625732,19.3597145 C10.8887946,19.2730213 11.0270989,19.1511238 11.1774902,18.9940186 L11.1774902,19.3381882 C11.0002433,19.5028885 10.8350838,19.6216808 10.6820068,19.6945686 C10.5745844,19.7458461 10.481934,19.7714844 10.4040527,19.7714844 C10.3020014,19.7714844 10.2207645,19.7181306 10.1603394,19.6114216 C10.0999142,19.5047125 10.0697021,19.3635759 10.0697021,19.1880074 C10.0697021,19.077228 10.0764159,18.9840216 10.0898438,18.9083853 C10.1032716,18.832749 10.1354978,18.7030782 10.1865234,18.5193691 L10.21875,18.3978271 L10.0938721,18.4179688 L10.1099854,18.262249 C10.1126709,18.2416037 10.1321409,18.2274104 10.168396,18.2196684 C10.2046511,18.2119264 10.2456052,18.2041741 10.2912598,18.1964111 Z M12.8693848,18.9980469 L12.8693848,19.3364258 C12.4558085,19.634523 12.0543232,19.7835693 11.664917,19.7835693 C11.5225823,19.7835693 11.4144901,19.7251593 11.3406372,19.6083374 C11.2667843,19.4915155 11.2298584,19.3592537 11.2298584,19.2115479 C11.2298584,18.9188218 11.3171378,18.6589977 11.4916992,18.4320679 C11.6662606,18.205138 11.8676746,18.0916748 12.0959473,18.0916748 C12.3107921,18.0916748 12.4182129,18.1937246 12.4182129,18.3978271 C12.4182129,18.5804452 12.3242197,18.7402337 12.1362305,18.8771973 C12.0368647,18.9497074 11.8757335,19.0316158 11.652832,19.1229248 L11.5682373,19.1591797 L11.5682373,19.175293 C11.5682373,19.266602 11.5830077,19.3404538 11.6125488,19.3968506 C11.6555178,19.480103 11.7239986,19.5217285 11.8179932,19.5217285 C11.9791268,19.5217285 12.1416007,19.4807743 12.3054199,19.3988647 C12.4692391,19.3169552 12.6572255,19.1833505 12.8693848,18.9980469 Z M11.6085205,18.8933105 C11.7750252,18.8315427 11.9079585,18.759705 12.0073242,18.6777954 C12.1066899,18.5958858 12.1563721,18.5146488 12.1563721,18.434082 C12.1563721,18.3749997 12.1254886,18.345459 12.0637207,18.345459 C11.9750972,18.345459 11.8851323,18.3998408 11.7938232,18.508606 C11.7025142,18.6173711 11.6407472,18.7456047 11.6085205,18.8933105 Z M12.8613281,19.3565674 L12.8613281,19.0222168 C13.0117195,18.874511 13.1177975,18.7657474 13.1795654,18.6959229 C13.3004156,18.5589593 13.3903806,18.4273688 13.4494629,18.3011475 C13.411865,18.2259518 13.3930664,18.1655276 13.3930664,18.119873 C13.3930664,18.0366207 13.4017943,17.9714968 13.4192505,17.9244995 C13.4367066,17.8775022 13.4790036,17.8540039 13.5461426,17.8540039 C13.6562506,17.8540039 13.7247313,17.8620605 13.7515869,17.8781738 C13.7784425,17.8942872 13.7918701,17.9318845 13.7918701,17.9909668 C13.7918701,18.0500491 13.7717287,18.1333002 13.7314453,18.2407227 C13.8684089,18.2890627 13.9610593,18.3280028 14.0093994,18.3575439 C14.1275641,18.4273685 14.1866455,18.5428459 14.1866455,18.7039795 C14.1866455,18.7818607 14.1678469,18.8758539 14.130249,18.9859619 C14.0443111,19.235719 14.0013428,19.3740233 14.0013428,19.4008789 C14.0013428,19.4465334 14.0228269,19.4693604 14.0657959,19.4693604 C14.1839606,19.4693604 14.4001449,19.3122574 14.7143555,18.9980469 L14.7143555,19.3404541 C14.3732893,19.6331802 14.1020518,19.779541 13.9006348,19.779541 C13.8254391,19.779541 13.7650149,19.7500003 13.7193604,19.690918 C13.6737058,19.6318356 13.6508789,19.5552983 13.6508789,19.4613037 C13.6508789,19.3673091 13.6857907,19.2370614 13.7556152,19.0705566 C13.8254398,18.9040519 13.8603516,18.7899173 13.8603516,18.7281494 C13.8603516,18.6072992 13.790528,18.518677 13.6508789,18.4622803 C13.564941,18.6395273 13.4132091,18.8342275 13.1956787,19.0463867 C13.1231686,19.1162113 13.0117195,19.2196038 12.8613281,19.3565674 Z"/>
    <use fill="url(#printer-k)" xlink:href="#printer-l"/>
    <use fill="#000" filter="url(#printer-m)" xlink:href="#printer-l"/>
    <use fill="url(#printer-n)" xlink:href="#printer-o"/>
    <use fill="#000" filter="url(#printer-p)" xlink:href="#printer-o"/>
    <use fill="url(#printer-q)" xlink:href="#printer-r"/>
    <use fill="#000" filter="url(#printer-s)" xlink:href="#printer-r"/>
    <g transform="translate(33 17)">
      <use fill="#000" filter="url(#printer-t)" xlink:href="#printer-u"/>
      <use fill="#CC584C" xlink:href="#printer-u"/>
      <use fill="#000" filter="url(#printer-v)" xlink:href="#printer-u"/>
      <use fill="#000" filter="url(#printer-w)" xlink:href="#printer-x"/>
      <use fill="#1FABFF" xlink:href="#printer-x"/>
      <use fill="#000" filter="url(#printer-y)" xlink:href="#printer-x"/>
      <use fill="#000" filter="url(#printer-z)" xlink:href="#printer-A"/>
      <use fill="#F7C65C" xlink:href="#printer-A"/>
      <use fill="#000" filter="url(#printer-B)" xlink:href="#printer-A"/>
    </g>
  </g>
</svg>
