<?xml version="1.0" encoding="UTF-8"?>
<svg width="48px" height="48px" viewBox="0 0 48 48" version="1.1" xmlns="http://www.w3.org/2000/svg" xmlns:xlink="http://www.w3.org/1999/xlink">
    <title>apps/48/deepin-license-activator</title>
    <defs>
        <filter x="-8.0%" y="-5.7%" width="115.9%" height="115.9%" filterUnits="objectBoundingBox" id="filter-1">
            <feOffset dx="0" dy="1" in="SourceAlpha" result="shadowOffsetOuter1"></feOffset>
            <feGaussianBlur stdDeviation="1" in="shadowOffsetOuter1" result="shadowBlurOuter1"></feGaussianBlur>
            <feColorMatrix values="0 0 0 0 0   0 0 0 0 0   0 0 0 0 0  0 0 0 0.2 0" type="matrix" in="shadowBlurOuter1" result="shadowMatrixOuter1"></feColorMatrix>
            <feMerge>
                <feMergeNode in="shadowMatrixOuter1"></feMergeNode>
                <feMergeNode in="SourceGraphic"></feMergeNode>
            </feMerge>
        </filter>
        <linearGradient x1="15.9680666%" y1="14.2236863%" x2="100%" y2="60.55387%" id="linearGradient-2">
            <stop stop-color="#0071FF" offset="0%"></stop>
            <stop stop-color="#00E8FC" offset="48.7201963%"></stop>
            <stop stop-color="#00A2FF" offset="100%"></stop>
        </linearGradient>
    </defs>
    <g id="apps/48/deepin-license-activator" stroke="none" stroke-width="1" fill="none" fill-rule="evenodd">
        <g id="编组" filter="url(#filter-1)" transform="translate(2, 2)" fill-rule="nonzero">
            <circle id="椭圆形" fill="url(#linearGradient-2)" cx="22" cy="22" r="22"></circle>
            <path d="M32.9995985,14 L32.9995985,23.0018122 C32.9995985,29.0759436 28.0755421,34 22.0014107,34 C15.9269862,34 11.0024117,29.0762367 11.001411,23.0018123 L10.9999275,13.9971968 C10.9997458,12.8943571 11.8936267,12.0001817 12.9964663,12 C12.996576,12 12.9966856,12 12.9967953,12 C14.0999172,12 14.9942705,12.8940748 14.9946141,13.9971967 L14.9974182,23.0000003 C14.9986225,26.866346 18.1332526,30 21.9995985,30 C25.8655918,30 28.9995985,26.8659932 28.9995985,23 L28.9995985,14 C28.9995985,12.8954305 29.895029,12 30.9995985,12 C32.104168,12 32.9995985,12.8954305 32.9995985,14 Z" id="路径-25" fill="#FFFFFF"></path>
        </g>
        <g id="Guide/48" transform="translate(1.5, 1.5)"></g>
    </g>
</svg>