<svg xmlns="http://www.w3.org/2000/svg" width="48" height="48" viewBox="0 0 48 48">
  <defs>
    <filter id="deepin-picker-a" width="129.5%" height="129.5%" x="-14.8%" y="-14.8%" filterUnits="objectBoundingBox">
      <feOffset dy="1" in="SourceAlpha" result="shadowOffsetOuter1"/>
      <feGaussianBlur in="shadowOffsetOuter1" result="shadowBlurOuter1" stdDeviation="1"/>
      <feComposite in="shadowBlurOuter1" in2="SourceAlpha" operator="out" result="shadowBlurOuter1"/>
      <feColorMatrix in="shadowBlurOuter1" result="shadowMatrixOuter1" values="0 0 0 0 0   0 0 0 0 0   0 0 0 0 0  0 0 0 0.2 0"/>
      <feMerge>
        <feMergeNode in="shadowMatrixOuter1"/>
        <feMergeNode in="SourceGraphic"/>
      </feMerge>
    </filter>
    <linearGradient id="deepin-picker-b" x1="50%" x2="50%" y1="0%" y2="96.171%">
      <stop offset="0%" stop-color="#2E2E2E"/>
      <stop offset="100%" stop-color="#121212"/>
    </linearGradient>
    <linearGradient id="deepin-picker-c" x1="73.941%" x2="23.567%" y1="21.05%" y2="80.152%">
      <stop offset="0%" stop-color="#7366FF"/>
      <stop offset="100%" stop-color="#1696FF"/>
    </linearGradient>
    <linearGradient id="deepin-picker-d" x1="100%" x2="20.305%" y1="50%" y2="50%">
      <stop offset="0%" stop-color="#8D47FF"/>
      <stop offset="100%" stop-color="#6671FF"/>
    </linearGradient>
    <linearGradient id="deepin-picker-e" x1="25.315%" x2="50%" y1="112.692%" y2="18.521%">
      <stop offset="0%" stop-color="#30CED6"/>
      <stop offset="31.564%" stop-color="#28BCE3"/>
      <stop offset="100%" stop-color="#1696FF"/>
    </linearGradient>
    <linearGradient id="deepin-picker-f" x1="28.303%" x2="16.435%" y1="100%" y2="-7.141%">
      <stop offset="0%" stop-color="#7EE22C"/>
      <stop offset="100%" stop-color="#30D6B2"/>
    </linearGradient>
    <linearGradient id="deepin-picker-g" x1="79.217%" x2="22.467%" y1="69.428%" y2="24.654%">
      <stop offset="0%" stop-color="#C1EA55"/>
      <stop offset="100%" stop-color="#74E126"/>
    </linearGradient>
    <linearGradient id="deepin-picker-h" x1="100%" x2="16.903%" y1="50%" y2="50%">
      <stop offset="0%" stop-color="#FBEF4D"/>
      <stop offset="100%" stop-color="#B9EA56"/>
    </linearGradient>
    <linearGradient id="deepin-picker-i" x1="77.72%" x2="-7.124%" y1="31.969%" y2="60.513%">
      <stop offset="0%" stop-color="#FFD600"/>
      <stop offset="100%" stop-color="#FFED58"/>
    </linearGradient>
    <linearGradient id="deepin-picker-j" x1="74.532%" x2="23.798%" y1="18.977%" y2="80.404%">
      <stop offset="0%" stop-color="#FFC134"/>
      <stop offset="100%" stop-color="#FBE04D"/>
    </linearGradient>
    <linearGradient id="deepin-picker-k" x1="60.69%" x2="81.808%" y1="95.287%" y2="-4.773%">
      <stop offset="0%" stop-color="#F5B543"/>
      <stop offset="100%" stop-color="#EF7640"/>
    </linearGradient>
    <linearGradient id="deepin-picker-l" x1="50%" x2="35.851%" y1="112.68%" y2="28.695%">
      <stop offset="0%" stop-color="#EF7640"/>
      <stop offset="100%" stop-color="#FB563F"/>
    </linearGradient>
    <linearGradient id="deepin-picker-m" x1="70.161%" x2="20.19%" y1="87.852%" y2="25.963%">
      <stop offset="0%" stop-color="#FB563F"/>
      <stop offset="100%" stop-color="#DA377B"/>
    </linearGradient>
    <linearGradient id="deepin-picker-n" x1="88.168%" x2="-9.281%" y1="50%" y2="38.864%">
      <stop offset="0%" stop-color="#DA377B"/>
      <stop offset="100%" stop-color="#894CEC"/>
    </linearGradient>
  </defs>
  <g fill="none" fill-rule="evenodd" filter="url(#deepin-picker-a)" transform="translate(2 2)">
    <circle cx="22" cy="22" r="22" fill="url(#deepin-picker-b)"/>
    <path fill="url(#deepin-picker-c)" stroke="#000" stroke-opacity=".2" d="M12.5798238,4.9148893 L16.3296844,11.4098383 L15.9036037,11.6616579 C14.1567652,12.6940639 12.6940639,14.1567652 11.6616579,15.9036037 L11.4098383,16.3296844 L4.9148893,12.5798238 L5.16970697,12.1455383 C6.85915975,9.26620586 9.26620586,6.85915975 12.1455383,5.16970697 L12.5798238,4.9148893 Z"/>
    <path fill="url(#deepin-picker-d)" stroke="#000" stroke-opacity=".2" d="M13.0443263,4.6737186 C15.788864,3.25230359 18.8409459,2.5 22,2.5 L22.5,2.5 L22.5,10 L22,10 C20.1551555,10 18.370635,10.416291 16.7492654,11.2065813 L16.3302501,11.4108183 L12.5795564,4.91442612 L13.0443263,4.6737186 Z"/>
    <path fill="url(#deepin-picker-e)" stroke="#000" stroke-opacity=".2" d="M4.91442612,12.5795564 L11.4108183,16.3302501 L11.2065813,16.7492654 C10.416291,18.370635 10,20.1551555 10,22 L10,22.5 L2.5,22.5 L2.5,22 C2.5,18.8409459 3.25230359,15.788864 4.6737186,13.0443263 L4.91442612,12.5795564 Z"/>
    <path fill="url(#deepin-picker-f)" stroke="#000" stroke-opacity=".2" d="M2.49926579,22.5 L10.0014042,22.5 L10.0378584,22.9605463 C10.183918,24.8057975 10.7503648,26.5676503 11.6844173,28.1347425 L11.9439988,28.5702513 L5.44557688,32.3221169 L5.19388265,31.895549 C3.61174078,29.2141569 2.69047374,26.1874877 2.52653495,23.0258918 L2.49926579,22.5 Z"/>
    <path fill="url(#deepin-picker-g)" stroke="#000" stroke-opacity=".2" d="M5.44474686,32.3225961 L11.945819,28.5692004 L12.2093391,28.9402498 C13.2543564,30.411686 14.619857,31.6334871 16.1987159,32.5071569 L16.6442307,32.7536848 L12.8916049,39.2534233 L12.4607562,39.0113155 C9.75951272,37.4933993 7.451659,35.3479549 5.73886746,32.7659739 L5.44474686,32.3225961 Z"/>
    <path fill="url(#deepin-picker-h)" stroke="#000" stroke-opacity=".2" d="M12.8910831,39.2543272 L16.6453514,32.7517437 L17.0580258,32.9384948 C18.5970817,33.6349771 20.2723259,34 22,34 L22.5,34 L22.5,41.5 L22,41.5 C18.9661036,41.5 16.0301876,40.8062123 13.369168,39.490679 L12.8910831,39.2543272 Z"/>
    <path fill="url(#deepin-picker-i)" stroke="#000" stroke-opacity=".2" d="M22.5,41.5007342 L22.5,33.9985958 L22.9605463,33.9621416 C24.6902378,33.8252291 26.3472041,33.3189607 27.8402607,32.4854941 L28.2705752,32.2452804 L32.020089,38.7396287 L31.5807768,38.9879097 C28.9768826,40.4595228 26.0632847,41.3159666 23.0258918,41.473465 L22.5,41.5007342 Z"/>
    <path fill="url(#deepin-picker-j)" stroke="#000" stroke-opacity=".2" d="M32.0203156,38.7400212 L28.2700714,32.2444078 L28.6593627,31.9842165 C29.9740225,31.1055348 31.1055348,29.9740225 31.9842165,28.6593627 L32.2444078,28.2700714 L38.7400212,32.0203156 L38.4595037,32.4607985 C36.9236603,34.8724583 34.8724583,36.9236603 32.4607985,38.4595037 L32.0203156,38.7400212 Z"/>
    <path fill="url(#deepin-picker-k)" stroke="#000" stroke-opacity=".2" d="M38.7396287,32.020089 L32.2452804,28.2705752 L32.4854941,27.8402607 C33.3189607,26.3472041 33.8252291,24.6902378 33.9621416,22.9605463 L33.9985958,22.5 L41.5007342,22.5 L41.473465,23.0258918 C41.3159666,26.0632847 40.4595228,28.9768826 38.9879097,31.5807768 L38.7396287,32.020089 Z"/>
    <path fill="url(#deepin-picker-l)" stroke="#000" stroke-opacity=".2" d="M41.5,22.5 L34,22.5 L34,22 C34,20.2723259 33.6349771,18.5970817 32.9384948,17.0580258 L32.7517437,16.6453514 L39.2543272,12.8910831 L39.490679,13.369168 C40.8062123,16.0301876 41.5,18.9661036 41.5,22 L41.5,22.5 Z"/>
    <path fill="url(#deepin-picker-m)" stroke="#000" stroke-opacity=".2" d="M39.2534233,12.8916049 L32.7536848,16.6442307 L32.5071569,16.1987159 C31.6334871,14.619857 30.411686,13.2543564 28.9402498,12.2093391 L28.5692004,11.945819 L32.3225961,5.44474686 L32.7659739,5.73886746 C35.3479549,7.451659 37.4933993,9.75951272 39.0113155,12.4607562 L39.2534233,12.8916049 Z"/>
    <path fill="url(#deepin-picker-n)" stroke="#000" stroke-opacity=".2" d="M32.3221169,5.44557688 L28.5702513,11.9439988 L28.1347425,11.6844173 C26.5676503,10.7503648 24.8057975,10.183918 22.9605463,10.0378584 L22.5,10.0014042 L22.5,2.49926579 L23.0258918,2.52653495 C26.1874877,2.69047374 29.2141569,3.61174078 31.895549,5.19388265 L32.3221169,5.44557688 Z"/>
    <g transform="translate(6.5 14)">
      <path fill="#FFF" stroke="#000" stroke-opacity=".1" d="M10.9140003,21.9760838 C7.63697135,12.7377067 6.01023193,7.25329012 6.01023193,5.3732723 C6.01023193,2.40474177 8.4167014,-0.00172769957 11.3852319,-0.00172769957 C14.3537625,-0.00172769957 16.7602319,2.40474177 16.7602319,5.3732723 C16.7602319,7.25329012 15.1334925,12.7377067 11.8564636,21.9760838 L11.3852319,23.3045479 L10.9140003,21.9760838 Z" transform="rotate(45 11.385 11.154)"/>
      <path fill="#7BD938" fill-rule="nonzero" stroke="#5AC50E" d="M15.5,9.625 C16.9497475,9.625 18.125,8.44974747 18.125,7 C18.125,5.55025253 16.9497475,4.375 15.5,4.375 C14.0502525,4.375 12.875,5.55025253 12.875,7 C12.875,8.44974747 14.0502525,9.625 15.5,9.625 Z"/>
    </g>
  </g>
</svg>
