<?xml version="1.0" encoding="UTF-8"?>
<svg width="48px" height="48px" viewBox="0 0 48 48" version="1.1" xmlns="http://www.w3.org/2000/svg" xmlns:xlink="http://www.w3.org/1999/xlink">
    <title>apps/48/deepin-contacts</title>
    <defs>
        <filter x="-10.1%" y="-6.3%" width="122.2%" height="117.5%" filterUnits="objectBoundingBox" id="filter-1">
            <feOffset dx="0" dy="1" in="SourceAlpha" result="shadowOffsetOuter1"></feOffset>
            <feGaussianBlur stdDeviation="1" in="shadowOffsetOuter1" result="shadowBlurOuter1"></feGaussianBlur>
            <feColorMatrix values="0 0 0 0 0   0 0 0 0 0   0 0 0 0 0  0 0 0 0.2 0" type="matrix" in="shadowBlurOuter1" result="shadowMatrixOuter1"></feColorMatrix>
            <feMerge>
                <feMergeNode in="shadowMatrixOuter1"></feMergeNode>
                <feMergeNode in="SourceGraphic"></feMergeNode>
            </feMerge>
        </filter>
        <linearGradient x1="50%" y1="0%" x2="50%" y2="100%" id="linearGradient-2">
            <stop stop-color="#F66D6D" offset="0%"></stop>
            <stop stop-color="#F44343" offset="100%"></stop>
        </linearGradient>
        <rect id="path-3" x="30" y="25.46875" width="6" height="11" rx="0.9375"></rect>
        <filter x="-33.3%" y="-18.2%" width="166.7%" height="136.4%" filterUnits="objectBoundingBox" id="filter-4">
            <feGaussianBlur stdDeviation="0.5" in="SourceAlpha" result="shadowBlurInner1"></feGaussianBlur>
            <feOffset dx="3" dy="1" in="shadowBlurInner1" result="shadowOffsetInner1"></feOffset>
            <feComposite in="shadowOffsetInner1" in2="SourceAlpha" operator="arithmetic" k2="-1" k3="1" result="shadowInnerInner1"></feComposite>
            <feColorMatrix values="0 0 0 0 0   0 0 0 0 0   0 0 0 0 0  0 0 0 0.130272072 0" type="matrix" in="shadowInnerInner1" result="shadowMatrixInner1"></feColorMatrix>
            <feOffset dx="0" dy="-1" in="SourceAlpha" result="shadowOffsetInner2"></feOffset>
            <feComposite in="shadowOffsetInner2" in2="SourceAlpha" operator="arithmetic" k2="-1" k3="1" result="shadowInnerInner2"></feComposite>
            <feColorMatrix values="0 0 0 0 0   0 0 0 0 0   0 0 0 0 0  0 0 0 0.1 0" type="matrix" in="shadowInnerInner2" result="shadowMatrixInner2"></feColorMatrix>
            <feMerge>
                <feMergeNode in="shadowMatrixInner1"></feMergeNode>
                <feMergeNode in="shadowMatrixInner2"></feMergeNode>
            </feMerge>
        </filter>
        <linearGradient x1="50%" y1="7.67852053%" x2="50%" y2="99.0155194%" id="linearGradient-5">
            <stop stop-color="#C896E5" offset="0%"></stop>
            <stop stop-color="#BD80DF" offset="100%"></stop>
        </linearGradient>
        <rect id="path-6" x="30" y="14.78125" width="6" height="11" rx="0.9375"></rect>
        <filter x="-33.3%" y="-9.1%" width="166.7%" height="136.4%" filterUnits="objectBoundingBox" id="filter-7">
            <feOffset dx="0" dy="1" in="SourceAlpha" result="shadowOffsetOuter1"></feOffset>
            <feGaussianBlur stdDeviation="0.5" in="shadowOffsetOuter1" result="shadowBlurOuter1"></feGaussianBlur>
            <feColorMatrix values="0 0 0 0 0   0 0 0 0 0   0 0 0 0 0  0 0 0 0.3 0" type="matrix" in="shadowBlurOuter1"></feColorMatrix>
        </filter>
        <filter x="-50.0%" y="-18.2%" width="200.0%" height="154.5%" filterUnits="objectBoundingBox" id="filter-8">
            <feGaussianBlur stdDeviation="0.5" in="SourceAlpha" result="shadowBlurInner1"></feGaussianBlur>
            <feOffset dx="3" dy="1" in="shadowBlurInner1" result="shadowOffsetInner1"></feOffset>
            <feComposite in="shadowOffsetInner1" in2="SourceAlpha" operator="arithmetic" k2="-1" k3="1" result="shadowInnerInner1"></feComposite>
            <feColorMatrix values="0 0 0 0 0   0 0 0 0 0   0 0 0 0 0  0 0 0 0.130272072 0" type="matrix" in="shadowInnerInner1" result="shadowMatrixInner1"></feColorMatrix>
            <feOffset dx="0" dy="-1" in="SourceAlpha" result="shadowOffsetInner2"></feOffset>
            <feComposite in="shadowOffsetInner2" in2="SourceAlpha" operator="arithmetic" k2="-1" k3="1" result="shadowInnerInner2"></feComposite>
            <feColorMatrix values="0 0 0 0 0   0 0 0 0 0   0 0 0 0 0  0 0 0 0.1 0" type="matrix" in="shadowInnerInner2" result="shadowMatrixInner2"></feColorMatrix>
            <feMerge>
                <feMergeNode in="shadowMatrixInner1"></feMergeNode>
                <feMergeNode in="shadowMatrixInner2"></feMergeNode>
            </feMerge>
        </filter>
        <linearGradient x1="50%" y1="0%" x2="50%" y2="100%" id="linearGradient-9">
            <stop stop-color="#7CBDF8" offset="0%"></stop>
            <stop stop-color="#469DF0" offset="100%"></stop>
        </linearGradient>
        <rect id="path-10" x="30" y="4" width="6" height="11" rx="0.9375"></rect>
        <filter x="-33.3%" y="-9.1%" width="166.7%" height="136.4%" filterUnits="objectBoundingBox" id="filter-11">
            <feOffset dx="0" dy="1" in="SourceAlpha" result="shadowOffsetOuter1"></feOffset>
            <feGaussianBlur stdDeviation="0.5" in="shadowOffsetOuter1" result="shadowBlurOuter1"></feGaussianBlur>
            <feColorMatrix values="0 0 0 0 0   0 0 0 0 0   0 0 0 0 0  0 0 0 0.3 0" type="matrix" in="shadowBlurOuter1"></feColorMatrix>
        </filter>
        <filter x="-50.0%" y="-18.2%" width="200.0%" height="154.5%" filterUnits="objectBoundingBox" id="filter-12">
            <feGaussianBlur stdDeviation="0.5" in="SourceAlpha" result="shadowBlurInner1"></feGaussianBlur>
            <feOffset dx="3" dy="0" in="shadowBlurInner1" result="shadowOffsetInner1"></feOffset>
            <feComposite in="shadowOffsetInner1" in2="SourceAlpha" operator="arithmetic" k2="-1" k3="1" result="shadowInnerInner1"></feComposite>
            <feColorMatrix values="0 0 0 0 0   0 0 0 0 0   0 0 0 0 0  0 0 0 0.130272072 0" type="matrix" in="shadowInnerInner1" result="shadowMatrixInner1"></feColorMatrix>
            <feOffset dx="0" dy="-1" in="SourceAlpha" result="shadowOffsetInner2"></feOffset>
            <feComposite in="shadowOffsetInner2" in2="SourceAlpha" operator="arithmetic" k2="-1" k3="1" result="shadowInnerInner2"></feComposite>
            <feColorMatrix values="0 0 0 0 0   0 0 0 0 0   0 0 0 0 0  0 0 0 0.1 0" type="matrix" in="shadowInnerInner2" result="shadowMatrixInner2"></feColorMatrix>
            <feMerge>
                <feMergeNode in="shadowMatrixInner1"></feMergeNode>
                <feMergeNode in="shadowMatrixInner2"></feMergeNode>
            </feMerge>
        </filter>
        <radialGradient cx="55.4438068%" cy="0%" fx="55.4438068%" fy="0%" r="103.179399%" gradientTransform="translate(0.5544, 0), scale(1, 0.825), rotate(79.1243), translate(-0.5544, -0)" id="radialGradient-13">
            <stop stop-color="#FAFAFA" offset="0%"></stop>
            <stop stop-color="#DAE2FB" offset="100%"></stop>
        </radialGradient>
        <path d="M3.75,0 L27.375,0 C30.4816017,-5.70673477e-16 33,2.51839828 33,5.625 L33,34.375 C33,37.4816017 30.4816017,40 27.375,40 L3.75,40 C1.67893219,40 2.53632657e-16,38.3210678 0,36.25 L0,3.75 C-2.53632657e-16,1.67893219 1.67893219,3.80448985e-16 3.75,0 Z" id="path-14"></path>
        <filter x="-1.5%" y="-1.2%" width="103.0%" height="102.5%" filterUnits="objectBoundingBox" id="filter-15">
            <feOffset dx="0" dy="-1" in="SourceAlpha" result="shadowOffsetInner1"></feOffset>
            <feComposite in="shadowOffsetInner1" in2="SourceAlpha" operator="arithmetic" k2="-1" k3="1" result="shadowInnerInner1"></feComposite>
            <feColorMatrix values="0 0 0 0 0   0 0 0 0 0   0 0 0 0 0  0 0 0 0.1 0" type="matrix" in="shadowInnerInner1" result="shadowMatrixInner1"></feColorMatrix>
            <feOffset dx="0" dy="1" in="SourceAlpha" result="shadowOffsetInner2"></feOffset>
            <feComposite in="shadowOffsetInner2" in2="SourceAlpha" operator="arithmetic" k2="-1" k3="1" result="shadowInnerInner2"></feComposite>
            <feColorMatrix values="0 0 0 0 1   0 0 0 0 1   0 0 0 0 1  0 0 0 0.246640079 0" type="matrix" in="shadowInnerInner2" result="shadowMatrixInner2"></feColorMatrix>
            <feMerge>
                <feMergeNode in="shadowMatrixInner1"></feMergeNode>
                <feMergeNode in="shadowMatrixInner2"></feMergeNode>
            </feMerge>
        </filter>
        <linearGradient x1="50%" y1="0%" x2="50%" y2="100%" id="linearGradient-16">
            <stop stop-color="#3C88FB" offset="0%"></stop>
            <stop stop-color="#587ECE" offset="100%"></stop>
        </linearGradient>
        <path d="M13.8331279,7 C17.766077,7 16.9184586,10.2914733 16.9184586,11.037993 C17.3931249,11.4451856 17.1557918,12.3953016 16.6811255,12.6667633 C16.5794113,14.1937355 15.1215078,15.2117169 15.1215078,15.4492459 C15.1215078,15.6867749 15.087603,15.9582367 15.3249362,16.2975638 C15.5622693,16.636891 18.3763621,16.7726218 19.2578852,17.4173434 C19.7448463,17.7734933 20.1697302,18.797525 20.5322288,20.4895049 C20.5464152,20.5551616 20.553504,20.6221529 20.5533733,20.6893246 C20.5523656,21.2070906 20.1318164,21.6260059 19.6140505,21.6249982 L7.9370485,21.625 C7.86519915,21.6249055 7.79359874,21.6165526 7.72365729,21.6001047 C7.21963961,21.4815771 6.90713819,20.9769044 7.02566583,20.4728867 C7.42892107,18.736439 7.85609432,17.717966 8.30665644,17.4173434 C9.12037003,16.87442 11.9005581,16.4672274 12.2735102,16.2975638 C12.6464623,16.1279002 12.4769386,15.7546404 12.4769386,15.3813805 C12.4769386,15.0081206 11.154654,14.4651972 10.9173209,12.6667633 C10.3748452,12.2595708 10.3748452,11.4791183 10.7138925,11.037993 C10.7138925,10.4950696 9.90017889,7 13.8331279,7 Z M20.5338217,7.1875 C23.7225553,7.1875 23.2815602,10.1154605 23.2815602,11.2049342 C23.2815602,12.2944079 24.2992412,12.8731908 24.2992412,13.4519737 C24.2992412,14.0307566 21.9924977,14.5754934 21.8228842,14.5754934 C21.6532708,14.5754934 21.7211162,14.95 21.8228842,15.3245066 C21.9246523,15.6990132 24.095705,15.596875 25.1133859,16.1416118 C25.6656236,16.4372096 26.1504359,17.3719175 26.567465,18.9458311 C26.5884421,19.0244568 26.5990929,19.105479 26.5991489,19.1868549 C26.5995052,19.7046217 26.1800611,20.1246435 25.6622942,20.1249998 L21.178353,20.125 C20.8052033,19.2057566 20.6016671,17.8779605 19.7875224,17.0949013 C18.9733777,16.3118421 16.7684023,16.2097039 16.5309435,16.0735197 C16.6666342,15.9713816 19.0073004,15.5628289 19.2108365,15.4266447 C19.4143727,15.2904605 19.4822181,14.8478618 19.3465273,14.6776316 C19.2108365,14.5074013 17.2772428,14.1669408 17.1076293,13.7924342 C16.9380158,13.4179276 17.8539287,12.5667763 17.8539287,11.2049342 C17.8539287,9.84309211 17.3450882,7.1875 20.5338217,7.1875 Z" id="path-17"></path>
        <filter x="-17.9%" y="-17.1%" width="135.7%" height="147.9%" filterUnits="objectBoundingBox" id="filter-18">
            <feOffset dx="0" dy="1" in="SourceAlpha" result="shadowOffsetOuter1"></feOffset>
            <feGaussianBlur stdDeviation="1" in="shadowOffsetOuter1" result="shadowBlurOuter1"></feGaussianBlur>
            <feComposite in="shadowBlurOuter1" in2="SourceAlpha" operator="out" result="shadowBlurOuter1"></feComposite>
            <feColorMatrix values="0 0 0 0 0   0 0 0 0 0.257619154   0 0 0 0 0.737828351  0 0 0 0.35 0" type="matrix" in="shadowBlurOuter1"></feColorMatrix>
        </filter>
        <linearGradient x1="50%" y1="0%" x2="50%" y2="100%" id="linearGradient-19">
            <stop stop-color="#3C88FB" offset="0%"></stop>
            <stop stop-color="#587ECE" offset="100%"></stop>
        </linearGradient>
    </defs>
    <g id="apps/48/deepin-contacts" stroke="none" stroke-width="1" fill="none" fill-rule="evenodd">
        <g id="编组" filter="url(#filter-1)" transform="translate(24, 24) rotate(-8) translate(-24, -24)translate(6, 4)">
            <g id="矩形备份-4">
                <use fill="url(#linearGradient-2)" fill-rule="evenodd" xlink:href="#path-3"></use>
                <use fill="black" fill-opacity="1" filter="url(#filter-4)" xlink:href="#path-3"></use>
            </g>
            <g id="矩形备份-3">
                <use fill="black" fill-opacity="1" filter="url(#filter-7)" xlink:href="#path-6"></use>
                <use fill="url(#linearGradient-5)" fill-rule="evenodd" xlink:href="#path-6"></use>
                <use fill="black" fill-opacity="1" filter="url(#filter-8)" xlink:href="#path-6"></use>
            </g>
            <g id="矩形">
                <use fill="black" fill-opacity="1" filter="url(#filter-11)" xlink:href="#path-10"></use>
                <use fill="url(#linearGradient-9)" fill-rule="evenodd" xlink:href="#path-10"></use>
                <use fill="black" fill-opacity="1" filter="url(#filter-12)" xlink:href="#path-10"></use>
            </g>
            <g id="矩形备份">
                <use fill="url(#radialGradient-13)" fill-rule="evenodd" xlink:href="#path-14"></use>
                <use fill="black" fill-opacity="1" filter="url(#filter-15)" xlink:href="#path-14"></use>
            </g>
            <g id="形状结合">
                <use fill="black" fill-opacity="1" filter="url(#filter-18)" xlink:href="#path-17"></use>
                <use fill-opacity="0.85" fill="url(#linearGradient-16)" fill-rule="evenodd" xlink:href="#path-17"></use>
            </g>
            <path d="M8.12582781,26 L25,26 C25.5522847,26 26,26.4477153 26,27 C26,27.5522847 25.5522847,28 25,28 L8.12582781,28 C7.57354306,28 7.12582781,27.5522847 7.12582781,27 C7.12582781,26.4477153 7.57354306,26 8.12582781,26 Z M8,31 L24.8741722,31 C25.4264569,31 25.8741722,31.4477153 25.8741722,32 C25.8741722,32.5522847 25.4264569,33 24.8741722,33 L8,33 C7.44771525,33 7,32.5522847 7,32 C7,31.4477153 7.44771525,31 8,31 Z" id="形状结合" fill-opacity="0.85" fill="url(#linearGradient-19)"></path>
        </g>
        <g id="Guide/48" transform="translate(1.5, 1.5)"></g>
    </g>
</svg>