<svg xmlns="http://www.w3.org/2000/svg" xmlns:xlink="http://www.w3.org/1999/xlink" width="48" height="48" viewBox="0 0 48 48">
  <defs>
    <filter id="48px-b" width="147.7%" height="129.5%" x="-23.9%" y="-14.8%" filterUnits="objectBoundingBox">
      <feOffset dy="1" in="SourceAlpha" result="shadowOffsetOuter1"/>
      <feGaussianBlur in="shadowOffsetOuter1" result="shadowBlurOuter1" stdDeviation="1"/>
      <feColorMatrix in="shadowBlurOuter1" result="shadowMatrixOuter1" values="0 0 0 0 0   0 0 0 0 0   0 0 0 0 0  0 0 0 0.2 0"/>
      <feMerge>
        <feMergeNode in="shadowMatrixOuter1"/>
        <feMergeNode in="SourceGraphic"/>
      </feMerge>
    </filter>
    <linearGradient id="48px-c" x1="50%" x2="50%" y1="0%" y2="100%">
      <stop offset="0%" stop-color="#0ECB04"/>
      <stop offset="100%" stop-color="#008972"/>
    </linearGradient>
    <filter id="48px-d" width="151.4%" height="160.7%" x="-27%" y="-32.1%" filterUnits="objectBoundingBox">
      <feOffset dy="1" in="SourceAlpha" result="shadowOffsetOuter1"/>
      <feGaussianBlur in="shadowOffsetOuter1" result="shadowBlurOuter1" stdDeviation="1.5"/>
      <feColorMatrix in="shadowBlurOuter1" result="shadowMatrixOuter1" values="0 0 0 0 0   0 0 0 0 0   0 0 0 0 0  0 0 0 0.21 0"/>
      <feMerge>
        <feMergeNode in="shadowMatrixOuter1"/>
        <feMergeNode in="SourceGraphic"/>
      </feMerge>
    </filter>
    <path id="48px-a" d="M10.75,9 L25.25,9 C27.3210678,9 29,10.6789322 29,12.75 L29,24.25 C29,26.3210678 27.3210678,28 25.25,28 L10.75,28 C8.67893219,28 7,26.3210678 7,24.25 L7,12.75 C7,10.6789322 8.67893219,9 10.75,9 Z"/>
    <mask id="48px-e" width="22" height="19" x="0" y="0" fill="#fff" maskContentUnits="userSpaceOnUse" maskUnits="objectBoundingBox">
      <use xlink:href="#48px-a"/>
    </mask>
    <linearGradient id="48px-f" x1="50%" x2="50%" y1="0%" y2="100%">
      <stop offset="0%" stop-color="#C3FFBF" stop-opacity=".305"/>
      <stop offset="100%" stop-color="#83E991" stop-opacity=".779"/>
    </linearGradient>
    <linearGradient id="48px-g" x1="84.48%" x2="44.518%" y1="33.059%" y2="74.327%">
      <stop offset="0%" stop-color="#FFF"/>
      <stop offset="100%" stop-color="#D6DDF6"/>
    </linearGradient>
    <linearGradient id="48px-h" x1="72.583%" x2="50%" y1="29.983%" y2="76.446%">
      <stop offset="0%" stop-color="#FFF"/>
      <stop offset="100%" stop-color="#D7FFC6"/>
    </linearGradient>
    <radialGradient id="48px-i" cx="52.324%" cy="53.481%" r="62.514%" fx="52.324%" fy="53.481%" gradientTransform="matrix(-.47303 .86452 -1.02905 -.63564 1.321 .422)">
      <stop offset="0%"/>
      <stop offset="100%" stop-opacity=".148"/>
    </radialGradient>
    <linearGradient id="48px-l" x1="69.952%" x2="57.051%" y1="71.097%" y2="57.701%">
      <stop offset="0%" stop-color="#C6C6C6"/>
      <stop offset="53.052%" stop-color="#E7E7E7"/>
      <stop offset="100%" stop-color="#F4F4F4"/>
    </linearGradient>
    <path id="48px-k" d="M28.5,-0.5 C28.5,-0.5 27.951898,1.71152876 27.4756098,2.46808511 C26.7215114,3.66592683 25.8658537,3.37765957 25.1829268,4.38297872 C24.5,5.38829787 24.7566973,6.11947038 23.1829268,7.44680851 C22.3395382,8.15813324 20.5,8.5 20.5,8.5 C25.3988764,8.5 28.5,2.96402878 28.5,-0.5 Z"/>
    <filter id="48px-j" width="150%" height="144.4%" x="-25%" y="-11.1%" filterUnits="objectBoundingBox">
      <feOffset dy="1" in="SourceAlpha" result="shadowOffsetOuter1"/>
      <feGaussianBlur in="shadowOffsetOuter1" result="shadowBlurOuter1" stdDeviation=".5"/>
      <feColorMatrix in="shadowBlurOuter1" values="0 0 0 0 0   0 0 0 0 0   0 0 0 0 0  0 0 0 0.05 0"/>
    </filter>
    <linearGradient id="48px-m" x1="80.472%" x2="50%" y1="29.205%" y2="73.633%">
      <stop offset="0%" stop-opacity=".035"/>
      <stop offset="100%" stop-opacity=".08"/>
    </linearGradient>
    <radialGradient id="48px-n" cx="50%" cy="50%" r="94.578%" fx="50%" fy="50%" gradientTransform="matrix(.45876 0 0 .30467 .27 .348)">
      <stop offset="0%" stop-color="#EBFF26"/>
      <stop offset="100%" stop-color="#F2FF3D" stop-opacity="0"/>
    </radialGradient>
    <filter id="48px-o" width="107.7%" height="116.9%" x="-3.9%" y="-8.4%" filterUnits="objectBoundingBox">
      <feGaussianBlur in="SourceGraphic" stdDeviation=".469"/>
    </filter>
    <radialGradient id="48px-p" cx="50%" cy="50%" r="520.71%" fx="50%" fy="50%" gradientTransform="matrix(.09451 0 0 .07199 .453 .464)">
      <stop offset="0%" stop-color="#F7FF81" stop-opacity=".995"/>
      <stop offset="100%" stop-color="#F8FF98" stop-opacity="0"/>
    </radialGradient>
    <radialGradient id="48px-q" cx="50%" cy="50%" r="1628.518%" fx="50%" fy="50%" gradientTransform="matrix(.03022 0 0 .01306 .485 .493)">
      <stop offset="0%" stop-color="#FFF" stop-opacity=".995"/>
      <stop offset="100%" stop-color="#FFF" stop-opacity="0"/>
    </radialGradient>
    <linearGradient id="48px-r" x1="0%" x2="99.213%" y1="50%" y2="50%">
      <stop offset="0%" stop-color="#FFF" stop-opacity="0"/>
      <stop offset="49.798%" stop-color="#FFF" stop-opacity=".892"/>
      <stop offset="100%" stop-color="#FFF" stop-opacity="0"/>
    </linearGradient>
  </defs>
  <g fill="none" fill-rule="evenodd" filter="url(#48px-b)" transform="translate(2 2)">
    <path fill="url(#48px-c)" d="M22,43.5 C33.8741221,43.5 43.5,33.8741221 43.5,22 C43.5,10.1258779 33.8741221,0.5 22,0.5 C10.1258779,0.5 0.5,10.1258779 0.5,22 C0.5,33.8741221 10.1258779,43.5 22,43.5 Z"/>
    <g filter="url(#48px-d)" transform="translate(4 8)">
      <use fill="#0EA141" stroke="#96FF8F" stroke-dasharray="1 1" stroke-opacity=".703" stroke-width="2" mask="url(#48px-e)" xlink:href="#48px-a"/>
      <path fill="url(#48px-f)" d="M23.625,23 C23.8321068,23 24,23.1678932 24,23.375 L24,23.625 C24,23.8321068 23.8321068,24 23.625,24 L17.375,24 C17.1678932,24 17,23.8321068 17,23.625 L17,23.375 C17,23.1678932 17.1678932,23 17.375,23 L23.625,23 Z M14.625,23 C14.8321068,23 15,23.1678932 15,23.375 L15,23.625 C15,23.8321068 14.8321068,24 14.625,24 L10.375,24 C10.1678932,24 10,23.8321068 10,23.625 L10,23.375 C10,23.1678932 10.1678932,23 10.375,23 L14.625,23 Z M20.625,21 C20.8321068,21 21,21.1678932 21,21.375 L21,21.625 C21,21.8321068 20.8321068,22 20.625,22 L10.375,22 C10.1678932,22 10,21.8321068 10,21.625 L10,21.375 C10,21.1678932 10.1678932,21 10.375,21 L20.625,21 Z M11.625,19 C11.8321068,19 12,19.1678932 12,19.375 L12,19.625 C12,19.8321068 11.8321068,20 11.625,20 L10.375,20 C10.1678932,20 10,19.8321068 10,19.625 L10,19.375 C10,19.1678932 10.1678932,19 10.375,19 L11.625,19 Z M19.625,19 C19.8321068,19 20,19.1678932 20,19.375 L20,19.625 C20,19.8321068 19.8321068,20 19.625,20 L14.375,20 C14.1678932,20 14,19.8321068 14,19.625 L14,19.375 C14,19.1678932 14.1678932,19 14.375,19 L19.625,19 Z M25.625,19 C25.8321068,19 26,19.1678932 26,19.375 L26,19.625 C26,19.8321068 25.8321068,20 25.625,20 L21.375,20 C21.1678932,20 21,19.8321068 21,19.625 L21,19.375 C21,19.1678932 21.1678932,19 21.375,19 L25.625,19 Z M21.625,17 C21.8321068,17 22,17.1678932 22,17.375 L22,17.625 C22,17.8321068 21.8321068,18 21.625,18 L10.375,18 C10.1678932,18 10,17.8321068 10,17.625 L10,17.375 C10,17.1678932 10.1678932,17 10.375,17 L21.625,17 Z" opacity=".359"/>
      <path fill="url(#48px-g)" d="M10.75,0 L21.6184211,0 L21.6184211,0 C22.9244722,0.456874375 24.3879224,1.36108893 26.0087719,2.71264368 C27.5526316,4 28.5497076,5.6091954 29,7.54022989 L29,16 L7,16 L7,3.75 C7,1.67893219 8.67893219,-6.36402249e-17 10.75,0 Z"/>
      <path fill="url(#48px-h)" d="M10.75,0 L25.25,0 C27.3210678,-3.80448985e-16 29,1.67893219 29,3.75 L29,16 L29,16 L7,16 L7,3.75 C7,1.67893219 8.67893219,3.80448985e-16 10.75,0 Z"/>
      <path fill="url(#48px-i)" fill-opacity=".28" d="M20.5,0 L25.25,0 C27.3210678,-3.80448985e-16 29,1.67893219 29,3.75 L29,8 L29,8 C28.6862745,5.88617886 27.631016,4.06504065 25.8342246,2.53658537 C24.2666967,1.20315499 22.4886218,0.357626539 20.5,0 Z"/>
      <g transform="rotate(-90 24.5 4)">
        <use fill="#000" filter="url(#48px-j)" xlink:href="#48px-k"/>
        <use fill="url(#48px-l)" xlink:href="#48px-k"/>
      </g>
      <path fill="url(#48px-m)" d="M14.625,11 C14.8321068,11 15,11.1678932 15,11.375 L15,13.625 C15,13.8321068 14.8321068,14 14.625,14 L10.375,14 C10.1678932,14 10,13.8321068 10,13.625 L10,11.375 C10,11.1678932 10.1678932,11 10.375,11 L14.625,11 Z M25.625,13 C25.8321068,13 26,13.1678932 26,13.375 L26,13.625 C26,13.8321068 25.8321068,14 25.625,14 L17.375,14 C17.1678932,14 17,13.8321068 17,13.625 L17,13.375 C17,13.1678932 17.1678932,13 17.375,13 L25.625,13 Z M24.625,11 C24.8321068,11 25,11.1678932 25,11.375 L25,11.625 C25,11.8321068 24.8321068,12 24.625,12 L17.375,12 C17.1678932,12 17,11.8321068 17,11.625 L17,11.375 C17,11.1678932 17.1678932,11 17.375,11 L24.625,11 Z M12.125,9 C12.3321068,9 12.5,9.16789322 12.5,9.375 L12.5,9.625 C12.5,9.83210678 12.3321068,10 12.125,10 L10.375,10 C10.1678932,10 10,9.83210678 10,9.625 L10,9.375 C10,9.16789322 10.1678932,9 10.375,9 L12.125,9 Z M25.625,9 C25.8321068,9 26,9.16789322 26,9.375 L26,9.625 C26,9.83210678 25.8321068,10 25.625,10 L14.375,10 C14.1678932,10 14,9.83210678 14,9.625 L14,9.375 C14,9.16789322 14.1678932,9 14.375,9 L25.625,9 Z M16.625,7 C16.8321068,7 17,7.16789322 17,7.375 L17,7.625 C17,7.83210678 16.8321068,8 16.625,8 L10.375,8 C10.1678932,8 10,7.83210678 10,7.625 L10,7.375 C10,7.16789322 10.1678932,7 10.375,7 L16.625,7 Z M25.625,5 C25.8321068,5 26,5.16789322 26,5.375 L26,7.625 C26,7.83210678 25.8321068,8 25.625,8 L19.375,8 C19.1678932,8 19,7.83210678 19,7.625 L19,5.375 C19,5.16789322 19.1678932,5 19.375,5 L25.625,5 Z M16.625,5 C16.8321068,5 17,5.16789322 17,5.375 L17,5.625 C17,5.83210678 16.8321068,6 16.625,6 L10.375,6 C10.1678932,6 10,5.83210678 10,5.625 L10,5.375 C10,5.16789322 10.1678932,5 10.375,5 L16.625,5 Z M24.125,3 C24.3321068,3 24.5,3.16789322 24.5,3.375 L24.5,3.625 C24.5,3.83210678 24.3321068,4 24.125,4 L19.375,4 C19.1678932,4 19,3.83210678 19,3.625 L19,3.375 C19,3.16789322 19.1678932,3 19.375,3 L24.125,3 Z M16.625,3 C16.8321068,3 17,3.16789322 17,3.375 L17,3.625 C17,3.83210678 16.8321068,4 16.625,4 L10.375,4 C10.1678932,4 10,3.83210678 10,3.625 L10,3.375 C10,3.16789322 10.1678932,3 10.375,3 L16.625,3 Z"/>
      <g transform="translate(0 7.563)">
        <polygon fill="url(#48px-n)" points="0 7.431 18.188 0 36.375 6.649 36.375 10.299 18.422 16.688 0 11.082" filter="url(#48px-o)" opacity=".799"/>
        <rect width="30.75" height="2.906" x="2.813" y="6.938" fill="url(#48px-p)"/>
        <rect width="34.125" height="1.031" x="1.125" y="7.875" fill="url(#48px-q)" opacity=".953"/>
        <rect width="20.625" height="1" x="7.875" y="8.25" fill="url(#48px-r)" opacity=".953"/>
      </g>
    </g>
  </g>
</svg>
