<?xml version="1.0" encoding="UTF-8"?>
<svg width="48px" height="48px" viewBox="0 0 48 48" version="1.1" xmlns="http://www.w3.org/2000/svg" xmlns:xlink="http://www.w3.org/1999/xlink">
    <title>apps/48/deepin-movie</title>
    <defs>
        <filter x="-8.0%" y="-5.7%" width="115.9%" height="115.9%" filterUnits="objectBoundingBox" id="filter-1">
            <feOffset dx="0" dy="1" in="SourceAlpha" result="shadowOffsetOuter1"></feOffset>
            <feGaussianBlur stdDeviation="1" in="shadowOffsetOuter1" result="shadowBlurOuter1"></feGaussianBlur>
            <feColorMatrix values="0 0 0 0 0   0 0 0 0 0   0 0 0 0 0  0 0 0 0.2 0" type="matrix" in="shadowBlurOuter1" result="shadowMatrixOuter1"></feColorMatrix>
            <feMerge>
                <feMergeNode in="shadowMatrixOuter1"></feMergeNode>
                <feMergeNode in="SourceGraphic"></feMergeNode>
            </feMerge>
        </filter>
        <linearGradient x1="50%" y1="2.37536127%" x2="50%" y2="100%" id="linearGradient-2">
            <stop stop-color="#3E3E3E" offset="0%"></stop>
            <stop stop-color="#0F0F0F" offset="100%"></stop>
        </linearGradient>
        <linearGradient x1="40.7675756%" y1="0%" x2="50%" y2="100%" id="linearGradient-3">
            <stop stop-color="#B0FAFF" offset="0%"></stop>
            <stop stop-color="#0D96C2" offset="100%"></stop>
        </linearGradient>
    </defs>
    <g id="apps/48/deepin-movie" stroke="none" stroke-width="1" fill="none" fill-rule="evenodd">
        <g id="7-movie" filter="url(#filter-1)" transform="translate(2, 2)">
            <circle id="Oval" fill="url(#linearGradient-2)" cx="22" cy="22" r="22"></circle>
            <path d="M22,0 C34.1502645,0 44,9.8497355 44,22 C44,34.1502645 34.1502645,44 22,44 C9.8497355,44 0,34.1502645 0,22 C0,9.8497355 9.8497355,0 22,0 Z M22,2 C10.954305,2 2,10.954305 2,22 C2,33.045695 10.954305,42 22,42 C33.045695,42 42,33.045695 42,22 C42,10.954305 33.045695,2 22,2 Z" id="Oval" fill="url(#linearGradient-3)" fill-rule="nonzero"></path>
            <path d="M18.44793,32.010199 C16.5436908,33.103821 15,32.2073245 15,30.0030988 L15,13.9943466 C15,11.7922338 16.5523453,10.8985948 18.44793,11.9872464 L32.4322071,20.0185449 C34.3364462,21.1121669 34.3277917,22.8902489 32.4322071,23.9789005 L18.44793,32.010199 Z" id="Path-359" fill="#FF006B"></path>
            <path d="M18.4660702,31.9990119 L18.44793,32.010199 C17.3197355,32.6581314 16.3180988,32.6075036 15.6890702,32.0002276 L18.4660702,31.9990119 Z M20.9990702,13.4530119 L26.9990702,16.8980119 L26.9990702,27.0980119 L20.9990702,30.5440119 L20.9990702,13.4530119 Z" id="Combined-Shape" fill="#FFB600"></path>
            <path d="M18.44793,11.9872464 L21,13.4528095 L21,30.5438095 L18.44793,32.010199 C16.5436908,33.103821 15,32.2073245 15,30.0030988 L15,13.9943466 C15,11.7922338 16.5523453,10.8985948 18.44793,11.9872464 Z" id="Combined-Shape" fill="#1473FF"></path>
            <path d="M16.9327893,12.0238779 L17.0844643,12.0316599 C17.4291164,12.0640818 17.8046821,12.1944147 18.1989195,12.4208289 L32.1831967,20.4521274 C32.5782005,20.6789818 32.8799943,20.9369596 33.0814136,21.2167813 C33.261027,21.4663091 33.3571429,21.7309939 33.3571429,21.998136 C33.3571429,22.2657698 33.2607162,22.5307772 33.0811454,22.7803937 C32.8795244,23.0606615 32.5776182,23.318798 32.1831967,23.545318 L18.1989195,31.5766165 C17.802906,31.8040507 17.4264411,31.9351519 17.0813825,31.9681057 C16.7733737,31.9975211 16.4940915,31.9466668 16.26097,31.8109627 C15.7575977,31.517941 15.5,30.8667984 15.5,30.0030988 L15.5,13.9943466 C15.5,13.1323081 15.7592768,12.4830704 16.2625297,12.1901181 C16.4963338,12.0540167 16.7762255,12.0026635 17.0844643,12.0316599 Z" id="Path-359" stroke-opacity="0.3" stroke="#FFFFFF"></path>
        </g>
        <g id="Guide/48" transform="translate(1.5, 1.5)"></g>
    </g>
</svg>