<svg xmlns="http://www.w3.org/2000/svg" xmlns:xlink="http://www.w3.org/1999/xlink" width="48" height="48" viewBox="0 0 48 48">
  <defs>
    <filter id="deepin-devicemanager48-a" width="130.2%" height="132.5%" x="-15.1%" y="-16.2%" filterUnits="objectBoundingBox">
      <feOffset dy="1" in="SourceAlpha" result="shadowOffsetOuter1"/>
      <feGaussianBlur in="shadowOffsetOuter1" result="shadowBlurOuter1" stdDeviation="1"/>
      <feComposite in="shadowBlurOuter1" in2="SourceAlpha" operator="out" result="shadowBlurOuter1"/>
      <feColorMatrix in="shadowBlurOuter1" result="shadowMatrixOuter1" values="0 0 0 0 0   0 0 0 0 0   0 0 0 0 0  0 0 0 0.2 0"/>
      <feMerge>
        <feMergeNode in="shadowMatrixOuter1"/>
        <feMergeNode in="SourceGraphic"/>
      </feMerge>
    </filter>
    <linearGradient id="deepin-devicemanager48-b" x1="26.256%" x2="66.07%" y1="4.65%" y2="93.64%">
      <stop offset="0%" stop-color="#3F3F3F"/>
      <stop offset="100%" stop-color="#141414"/>
    </linearGradient>
    <linearGradient id="deepin-devicemanager48-c" x1="26.256%" x2="66.07%" y1="9.072%" y2="89.385%">
      <stop offset="0%" stop-color="#2F2F2F"/>
      <stop offset="100%" stop-color="#1E1E1E"/>
    </linearGradient>
    <path id="deepin-devicemanager48-d" d="M37.25,27 C37.6642136,27 38,27.3357864 38,27.75 L38,30.25 C38,30.6642136 37.6642136,31 37.25,31 L4.75,31 C4.33578644,31 4,30.6642136 4,30.25 L4,27.75 C4,27.3357864 4.33578644,27 4.75,27 L37.25,27 Z M37.25,21 C37.6642136,21 38,21.3357864 38,21.75 L38,24.25 C38,24.6642136 37.6642136,25 37.25,25 L4.75,25 C4.33578644,25 4,24.6642136 4,24.25 L4,21.75 C4,21.3357864 4.33578644,21 4.75,21 L37.25,21 Z M37.25,15 C37.6642136,15 38,15.3357864 38,15.75 L38,18.25 C38,18.6642136 37.6642136,19 37.25,19 L4.75,19 C4.33578644,19 4,18.6642136 4,18.25 L4,15.75 C4,15.3357864 4.33578644,15 4.75,15 L37.25,15 Z M37.25,9 C37.6642136,9 38,9.33578644 38,9.75 L38,12.25 C38,12.6642136 37.6642136,13 37.25,13 L4.75,13 C4.33578644,13 4,12.6642136 4,12.25 L4,9.75 C4,9.33578644 4.33578644,9 4.75,9 L37.25,9 Z"/>
    <filter id="deepin-devicemanager48-e" width="102.9%" height="104.5%" x="-1.5%" y="-2.3%" filterUnits="objectBoundingBox">
      <feOffset dy="1" in="SourceAlpha" result="shadowOffsetInner1"/>
      <feComposite in="shadowOffsetInner1" in2="SourceAlpha" k2="-1" k3="1" operator="arithmetic" result="shadowInnerInner1"/>
      <feColorMatrix in="shadowInnerInner1" result="shadowMatrixInner1" values="0 0 0 0 0   0 0 0 0 0   0 0 0 0 0  0 0 0 0.183129371 0"/>
      <feOffset dy="-1" in="SourceAlpha" result="shadowOffsetInner2"/>
      <feComposite in="shadowOffsetInner2" in2="SourceAlpha" k2="-1" k3="1" operator="arithmetic" result="shadowInnerInner2"/>
      <feColorMatrix in="shadowInnerInner2" result="shadowMatrixInner2" values="0 0 0 0 1   0 0 0 0 1   0 0 0 0 1  0 0 0 0.12 0"/>
      <feMerge>
        <feMergeNode in="shadowMatrixInner1"/>
        <feMergeNode in="shadowMatrixInner2"/>
      </feMerge>
    </filter>
    <linearGradient id="deepin-devicemanager48-f" x1="0%" x2="100%" y1="49.217%" y2="50.782%">
      <stop offset="0%" stop-color="#E2D46C"/>
      <stop offset="18.149%" stop-color="#D7BC26"/>
      <stop offset="38.886%" stop-color="#CFB009"/>
      <stop offset="56.473%" stop-color="#E7BF00"/>
      <stop offset="70.402%" stop-color="#D5B630"/>
      <stop offset="83.443%" stop-color="#C9A10A"/>
      <stop offset="100%" stop-color="#C2A422"/>
    </linearGradient>
    <path id="deepin-devicemanager48-g" d="M11.4375,35 C11.7481602,35 12,35.2518398 12,35.5625 L12,37.4375 C12,37.7481602 11.7481602,38 11.4375,38 L10.5625,38 C10.2518398,38 10,37.7481602 10,37.4375 L10,35.5625 C10,35.2518398 10.2518398,35 10.5625,35 L11.4375,35 Z M15.4375,35 C15.7481602,35 16,35.2518398 16,35.5625 L16,37.4375 C16,37.7481602 15.7481602,38 15.4375,38 L14.5625,38 C14.2518398,38 14,37.7481602 14,37.4375 L14,35.5625 C14,35.2518398 14.2518398,35 14.5625,35 L15.4375,35 Z M19.4375,35 C19.7481602,35 20,35.2518398 20,35.5625 L20,37.4375 C20,37.7481602 19.7481602,38 19.4375,38 L18.5625,38 C18.2518398,38 18,37.7481602 18,37.4375 L18,35.5625 C18,35.2518398 18.2518398,35 18.5625,35 L19.4375,35 Z M23.4375,35 C23.7481602,35 24,35.2518398 24,35.5625 L24,37.4375 C24,37.7481602 23.7481602,38 23.4375,38 L22.5625,38 C22.2518398,38 22,37.7481602 22,37.4375 L22,35.5625 C22,35.2518398 22.2518398,35 22.5625,35 L23.4375,35 Z M27.4375,35 C27.7481602,35 28,35.2518398 28,35.5625 L28,37.4375 C28,37.7481602 27.7481602,38 27.4375,38 L26.5625,38 C26.2518398,38 26,37.7481602 26,37.4375 L26,35.5625 C26,35.2518398 26.2518398,35 26.5625,35 L27.4375,35 Z M31.4375,35 C31.7481602,35 32,35.2518398 32,35.5625 L32,37.4375 C32,37.7481602 31.7481602,38 31.4375,38 L30.5625,38 C30.2518398,38 30,37.7481602 30,37.4375 L30,35.5625 C30,35.2518398 30.2518398,35 30.5625,35 L31.4375,35 Z"/>
    <filter id="deepin-devicemanager48-h" width="104.5%" height="133.3%" x="-2.3%" y="-16.7%" filterUnits="objectBoundingBox">
      <feOffset dy="1" in="SourceAlpha" result="shadowOffsetInner1"/>
      <feComposite in="shadowOffsetInner1" in2="SourceAlpha" k2="-1" k3="1" operator="arithmetic" result="shadowInnerInner1"/>
      <feColorMatrix in="shadowInnerInner1" values="0 0 0 0 0.926828578   0 0 0 0 0.558558022   0 0 0 0 0  0 0 0 0.55 0"/>
    </filter>
    <linearGradient id="deepin-devicemanager48-k" x1="25.707%" x2="75.49%" y1="7.758%" y2="93.322%">
      <stop offset=".069%" stop-color="#AAFBE7"/>
      <stop offset="100%" stop-color="#6CACFF"/>
    </linearGradient>
    <rect id="deepin-devicemanager48-j" width="32" height="28" x="5" y="6" rx="3.75"/>
    <filter id="deepin-devicemanager48-i" width="112.5%" height="114.3%" x="-6.2%" y="-3.6%" filterUnits="objectBoundingBox">
      <feOffset dy="1" in="SourceAlpha" result="shadowOffsetOuter1"/>
      <feGaussianBlur in="shadowOffsetOuter1" result="shadowBlurOuter1" stdDeviation=".5"/>
      <feColorMatrix in="shadowBlurOuter1" values="0 0 0 0 0   0 0 0 0 0   0 0 0 0 0  0 0 0 0.515133304 0"/>
    </filter>
    <filter id="deepin-devicemanager48-l" width="112.5%" height="114.3%" x="-6.2%" y="-3.6%" filterUnits="objectBoundingBox">
      <feGaussianBlur in="SourceAlpha" result="shadowBlurInner1" stdDeviation=".5"/>
      <feOffset dy="-1" in="shadowBlurInner1" result="shadowOffsetInner1"/>
      <feComposite in="shadowOffsetInner1" in2="SourceAlpha" k2="-1" k3="1" operator="arithmetic" result="shadowInnerInner1"/>
      <feColorMatrix in="shadowInnerInner1" result="shadowMatrixInner1" values="0 0 0 0 0   0 0 0 0 0.0510136902   0 0 0 0 0.262143342  0 0 0 0.250573645 0"/>
      <feGaussianBlur in="SourceAlpha" result="shadowBlurInner2" stdDeviation=".5"/>
      <feOffset dy="1" in="shadowBlurInner2" result="shadowOffsetInner2"/>
      <feComposite in="shadowOffsetInner2" in2="SourceAlpha" k2="-1" k3="1" operator="arithmetic" result="shadowInnerInner2"/>
      <feColorMatrix in="shadowInnerInner2" result="shadowMatrixInner2" values="0 0 0 0 0.838719512   0 0 0 0 1   0 0 0 0 0.9690462  0 0 0 0.568209135 0"/>
      <feMerge>
        <feMergeNode in="shadowMatrixInner1"/>
        <feMergeNode in="shadowMatrixInner2"/>
      </feMerge>
    </filter>
    <linearGradient id="deepin-devicemanager48-m" x1="50%" x2="50%" y1=".523%" y2="100%">
      <stop offset="0%" stop-opacity=".8"/>
      <stop offset="99.472%" stop-opacity=".531"/>
    </linearGradient>
  </defs>
  <g fill="none" fill-rule="evenodd" filter="url(#deepin-devicemanager48-a)" transform="translate(3 4)">
    <path fill="url(#deepin-devicemanager48-b)" d="M36.375,0 C39.4816017,-5.70673477e-16 42,2.51839828 42,5.625 L42.0008057,10.0112835 C41.9182035,10.0038154 41.8345473,10 41.75,10 C40.2312169,10 39,11.2312169 39,12.75 C39,14.2687831 40.2312169,15.5 41.75,15.5 C41.8345473,15.5 41.9182035,15.4961846 42.0008057,15.4887165 L42,34.375 C42,37.4816017 39.4816017,40 36.375,40 L5.625,40 C2.51839828,40 -1.39590785e-15,37.4816017 0,34.375 L0.000306055334,15.4887616 C1.40178489,15.3623106 2.5,14.1844062 2.5,12.75 C2.5,11.3155938 1.40178489,10.1376894 0.000306055334,10.0112384 L0,5.625 C-3.80448985e-16,2.51839828 2.51839828,5.70673477e-16 5.625,0 L36.375,0 Z M4.5,33 C3.67157288,33 3,33.6715729 3,34.5 C3,35.3284271 3.67157288,36 4.5,36 C5.32842712,36 6,35.3284271 6,34.5 C6,33.6715729 5.32842712,33 4.5,33 Z M37.5,33 C36.6715729,33 36,33.6715729 36,34.5 C36,35.3284271 36.6715729,36 37.5,36 C38.3284271,36 39,35.3284271 39,34.5 C39,33.6715729 38.3284271,33 37.5,33 Z M4.49992764,4 C3.67150051,4 2.99992764,4.67157288 2.99992764,5.5 C2.99992764,6.32842712 3.67150051,7 4.49992764,7 C5.32835476,7 5.99992764,6.32842712 5.99992764,5.5 C5.99992764,4.67157288 5.32835476,4 4.49992764,4 Z M37.5,4 C36.6715729,4 36,4.67157288 36,5.5 C36,6.32842712 36.6715729,7 37.5,7 C38.3284271,7 39,6.32842712 39,5.5 C39,4.67157288 38.3284271,4 37.5,4 Z"/>
    <path fill="url(#deepin-devicemanager48-c)" d="M36.375,1 C39.4816017,1 42,3.51839828 42,6.625 L42.0008057,10.0112835 C41.9182035,10.0038154 41.8345473,10 41.75,10 C40.2312169,10 39,11.2312169 39,12.75 C39,14.2687831 40.2312169,15.5 41.75,15.5 C41.8345473,15.5 41.9182035,15.4961846 42.0008057,15.4887165 L42,33.375 C42,36.4816017 39.4816017,39 36.375,39 L5.625,39 C2.51839828,39 -2.28408627e-15,36.4816017 0,33.375 L0.000306055334,15.4887616 C1.40178489,15.3623106 2.5,14.1844062 2.5,12.75 C2.5,11.3155938 1.40178489,10.1376894 0.000306055334,10.0112384 L0,6.625 C-3.80448985e-16,3.51839828 2.51839828,1 5.625,1 L36.375,1 Z M4.5,33 C3.67157288,33 3,33.6715729 3,34.5 C3,35.3284271 3.67157288,36 4.5,36 C5.32842712,36 6,35.3284271 6,34.5 C6,33.6715729 5.32842712,33 4.5,33 Z M37.5,33 C36.6715729,33 36,33.6715729 36,34.5 C36,35.3284271 36.6715729,36 37.5,36 C38.3284271,36 39,35.3284271 39,34.5 C39,33.6715729 38.3284271,33 37.5,33 Z M4.49992764,4 C3.67150051,4 2.99992764,4.67157288 2.99992764,5.5 C2.99992764,6.32842712 3.67150051,7 4.49992764,7 C5.32835476,7 5.99992764,6.32842712 5.99992764,5.5 C5.99992764,4.67157288 5.32835476,4 4.49992764,4 Z M37.5,4 C36.6715729,4 36,4.67157288 36,5.5 C36,6.32842712 36.6715729,7 37.5,7 C38.3284271,7 39,6.32842712 39,5.5 C39,4.67157288 38.3284271,4 37.5,4 Z"/>
    <use fill="#000" fill-opacity=".35" xlink:href="#deepin-devicemanager48-d"/>
    <use fill="#000" filter="url(#deepin-devicemanager48-e)" xlink:href="#deepin-devicemanager48-d"/>
    <use fill="url(#deepin-devicemanager48-f)" xlink:href="#deepin-devicemanager48-g"/>
    <use fill="#000" filter="url(#deepin-devicemanager48-h)" xlink:href="#deepin-devicemanager48-g"/>
    <use fill="#000" filter="url(#deepin-devicemanager48-i)" xlink:href="#deepin-devicemanager48-j"/>
    <use fill="url(#deepin-devicemanager48-k)" xlink:href="#deepin-devicemanager48-j"/>
    <use fill="#000" filter="url(#deepin-devicemanager48-l)" xlink:href="#deepin-devicemanager48-j"/>
    <path fill="url(#deepin-devicemanager48-m)" d="M13.5,29 C13.7761424,29 14,29.2238576 14,29.5 C14,29.7761424 13.7761424,30 13.5,30 L11.5,30 C11.2238576,30 11,29.7761424 11,29.5 C11,29.2238576 11.2238576,29 11.5,29 L13.5,29 Z M18.5,29 C18.7761424,29 19,29.2238576 19,29.5 C19,29.7761424 18.7761424,30 18.5,30 L17.5,30 C17.2238576,30 17,29.7761424 17,29.5 C17,29.2238576 17.2238576,29 17.5,29 L18.5,29 Z M27.1875,29 C27.4636424,29 27.6875,29.2238576 27.6875,29.5 C27.6875,29.7761424 27.4636424,30 27.1875,30 L20.5,30 C20.2238576,30 20,29.7761424 20,29.5 C20,29.2238576 20.2238576,29 20.5,29 L27.1875,29 Z M15.5,27 C15.7761424,27 16,27.2238576 16,27.5 C16,27.7761424 15.7761424,28 15.5,28 L11.5,28 C11.2238576,28 11,27.7761424 11,27.5 C11,27.2238576 11.2238576,27 11.5,27 L15.5,27 Z M22.5,27 C22.7761424,27 23,27.2238576 23,27.5 C23,27.7761424 22.7761424,28 22.5,28 L17.5,28 C17.2238576,28 17,27.7761424 17,27.5 C17,27.2238576 17.2238576,27 17.5,27 L22.5,27 Z M29.3125,27 C29.5886424,27 29.8125,27.2238576 29.8125,27.5 C29.8125,27.7761424 29.5886424,28 29.3125,28 L24.5,28 C24.2238576,28 24,27.7761424 24,27.5 C24,27.2238576 24.2238576,27 24.5,27 L29.3125,27 Z M14.5,25 C14.7761424,25 15,25.2238576 15,25.5 C15,25.7761424 14.7761424,26 14.5,26 L11.5,26 C11.2238576,26 11,25.7761424 11,25.5 C11,25.2238576 11.2238576,25 11.5,25 L14.5,25 Z M27,25 C27.2761424,25 27.5,25.2238576 27.5,25.5 C27.5,25.7761424 27.2761424,26 27,26 L17.5,26 C17.2238576,26 17,25.7761424 17,25.5 C17,25.2238576 17.2238576,25 17.5,25 L27,25 Z M13.5,23 C13.7761424,23 14,23.2238576 14,23.5 C14,23.7761424 13.7761424,24 13.5,24 L11.5,24 C11.2238576,24 11,23.7761424 11,23.5 C11,23.2238576 11.2238576,23 11.5,23 L13.5,23 Z M19.5,23 C19.7761424,23 20,23.2238576 20,23.5 C20,23.7761424 19.7761424,24 19.5,24 L17.5,24 C17.2238576,24 17,23.7761424 17,23.5 C17,23.2238576 17.2238576,23 17.5,23 L19.5,23 Z M27.5,23 C27.7761424,23 28,23.2238576 28,23.5 C28,23.7761424 27.7761424,24 27.5,24 L21.5,24 C21.2238576,24 21,23.7761424 21,23.5 C21,23.2238576 21.2238576,23 21.5,23 L27.5,23 Z M31.5,23 C31.7761424,23 32,23.2238576 32,23.5 C32,23.7761424 31.7761424,24 31.5,24 L29.5,24 C29.2238576,24 29,23.7761424 29,23.5 C29,23.2238576 29.2238576,23 29.5,23 L31.5,23 Z M14.5,21 C14.7761424,21 15,21.2238576 15,21.5 C15,21.7761424 14.7761424,22 14.5,22 L11.5,22 C11.2238576,22 11,21.7761424 11,21.5 C11,21.2238576 11.2238576,21 11.5,21 L14.5,21 Z M22.5,21 C22.7761424,21 23,21.2238576 23,21.5 C23,21.7761424 22.7761424,22 22.5,22 L17.5,22 C17.2238576,22 17,21.7761424 17,21.5 C17,21.2238576 17.2238576,21 17.5,21 L22.5,21 Z M28.5625,21 C28.8386424,21 29.0625,21.2238576 29.0625,21.5 C29.0625,21.7761424 28.8386424,22 28.5625,22 L24.5,22 C24.2238576,22 24,21.7761424 24,21.5 C24,21.2238576 24.2238576,21 24.5,21 L28.5625,21 Z" opacity=".229"/>
    <path fill="#000" fill-opacity=".33" fill-rule="nonzero" d="M16.1754386,11 C16.3886011,11 16.5614035,11.1738189 16.5614035,11.3882353 L16.5614035,11.3882353 L16.5614035,14.8823529 C16.5614035,16.383268 15.3517869,17.6 13.8596491,17.6 L13.8596491,17.6 L12.7017544,17.6 C11.2096166,17.6 10,16.383268 10,14.8823529 L10,14.8823529 L10,11.3882353 C10,11.1738189 10.1728024,11 10.3859649,11 C10.5991274,11 10.7719298,11.1738189 10.7719298,11.3882353 L10.7719298,11.3882353 L10.7719298,14.8823529 C10.7719298,15.9544351 11.6359417,16.8235294 12.7017544,16.8235294 L12.7017544,16.8235294 L13.8596491,16.8235294 C14.9254618,16.8235294 15.7894737,15.9544351 15.7894737,14.8823529 L15.7894737,14.8823529 L15.7894737,11.3882353 C15.7894737,11.1738189 15.9622761,11 16.1754386,11 Z M21.9649123,11 C23.45705,11 24.6666667,12.216732 24.6666667,13.7176471 L24.6666667,14.8823529 C24.6666667,16.383268 23.45705,17.6 21.9649123,17.6 L20.8070175,17.6 C19.3148798,17.6 18.1052632,16.383268 18.1052632,14.8823529 L18.1052632,13.7176471 C18.1052632,12.216732 19.3148798,11 20.8070175,11 L21.9649123,11 Z M31.3296399,11 C31.5428024,11 31.7156048,11.1738189 31.7156048,11.3882353 C31.7156048,11.6026517 31.5428024,11.7764706 31.3296399,11.7764706 L31.3296399,11.7764706 L27.6578947,11.7764706 C27.0716978,11.7764706 26.5964912,12.2544725 26.5964912,12.8441176 C26.5964912,13.4337628 27.0716978,13.9117647 27.6578947,13.9117647 L27.6578947,13.9117647 L30.1666667,13.9117647 C31.1791887,13.9117647 32,14.7374043 32,15.7558824 C32,16.7743604 31.1791887,17.6 30.1666667,17.6 L30.1666667,17.6 L26.4949215,17.6 C26.281759,17.6 26.1089566,17.4261811 26.1089566,17.2117647 C26.1089566,16.9973483 26.281759,16.8235294 26.4949215,16.8235294 L26.4949215,16.8235294 L30.1666667,16.8235294 C30.7528636,16.8235294 31.2280702,16.3455275 31.2280702,15.7558824 C31.2280702,15.1662372 30.7528636,14.6882353 30.1666667,14.6882353 L30.1666667,14.6882353 L27.6578947,14.6882353 C26.6453727,14.6882353 25.8245614,13.8625957 25.8245614,12.8441176 C25.8245614,11.8256396 26.6453727,11 27.6578947,11 L27.6578947,11 Z M21.9649123,11.7764706 L20.8070175,11.7764706 C19.7412049,11.7764706 18.877193,12.6455649 18.877193,13.7176471 L18.877193,14.8823529 C18.877193,15.9544351 19.7412049,16.8235294 20.8070175,16.8235294 L21.9649123,16.8235294 C23.030725,16.8235294 23.8947368,15.9544351 23.8947368,14.8823529 L23.8947368,13.7176471 C23.8947368,12.6455649 23.030725,11.7764706 21.9649123,11.7764706 Z"/>
  </g>
</svg>
