<?xml version="1.0" encoding="UTF-8"?>
<svg width="48px" height="48px" viewBox="0 0 48 48" version="1.1" xmlns="http://www.w3.org/2000/svg" xmlns:xlink="http://www.w3.org/1999/xlink">
    <title>apps/48/deepin-editor</title>
    <defs>
        <filter x="-9.2%" y="-6.0%" width="118.4%" height="116.7%" filterUnits="objectBoundingBox" id="filter-1">
            <feOffset dx="0" dy="1" in="SourceAlpha" result="shadowOffsetOuter1"></feOffset>
            <feGaussianBlur stdDeviation="1" in="shadowOffsetOuter1" result="shadowBlurOuter1"></feGaussianBlur>
            <feColorMatrix values="0 0 0 0 0   0 0 0 0 0   0 0 0 0 0  0 0 0 0.2 0" type="matrix" in="shadowBlurOuter1" result="shadowMatrixOuter1"></feColorMatrix>
            <feMerge>
                <feMergeNode in="shadowMatrixOuter1"></feMergeNode>
                <feMergeNode in="SourceGraphic"></feMergeNode>
            </feMerge>
        </filter>
        <radialGradient cx="60.9534863%" cy="7.94420924%" fx="60.9534863%" fy="7.94420924%" r="113.567327%" gradientTransform="translate(0.6095, 0.0794), scale(1, 0.9048), rotate(73.1766), translate(-0.6095, -0.0794)" id="radialGradient-2">
            <stop stop-color="#00C2FB" offset="0%"></stop>
            <stop stop-color="#003AE3" offset="100%"></stop>
        </radialGradient>
    </defs>
    <g id="apps/48/deepin-editor" stroke="none" stroke-width="1" fill="none" fill-rule="evenodd">
        <g id="Group" filter="url(#filter-1)" transform="translate(5, 3)">
            <rect id="Rectangle-3" fill="url(#radialGradient-2)" x="0" y="0" width="38" height="42" rx="6"></rect>
            <path d="M7,14 L7.02069078,14.0010077 C7.03789343,14.3438175 7.0658422,14.6772799 7.1046089,15.0013336 L7,15 L7,18 L7.88824902,18.0013321 C8.04264526,18.3523643 8.21739928,18.6856979 8.41269032,19.0011796 L7,19 L7,22 L12.1364555,22.001234 C12.6220418,22.1849263 13.1406057,22.3335962 13.6913158,22.4472435 L15,22.6947389 L15,22 L20.0075493,22.001234 C20.3893892,22.1456801 20.7916205,22.2684703 21.2138391,22.3696046 L21.5624096,22.4472435 L23,22.6947389 L22.999,22 L34,22 L34,23 L7,23 L7,26 L34,26 L34,27 L7,27 L7,30 L21.999,30 L21.999,31 L7,31 L7,34 L21.999,34 L22,35 L23.4003231,34.7509826 C24.0942014,34.6070316 24.6732807,34.3569138 25.1598264,34.0007666 L25.999,34 L26,35 L27.2003231,34.7509826 C27.893954,34.6070829 28.5300638,34.3570922 29.0661588,34.0011476 L34,34 L34,35 L7,35 L7,38 L34,38 L34,39 L7,39 L7,42 L6,42 L6,39 L3,39 L3,38 L6,38 L6,35 L3,35 L3,34 L6,34 L6,31 L3,31 L3,30 L6,30 L6,27 L3,27 L3,26 L6,26 L6,23 L3,23 L3,22 L6,22 L6,19 L3,19 L3,18 L6,18 L6,15 L3,15 L3,14 L6,14 L6,11 L3,11 L3,10 L6,10 L6,7 L3,7 L3,6 L6,6 L6,3 L3,3 L3,2 L6,2 L6,0 L7,0 L7,2 L34,2 L34,3 L7,3 L7,6 L34,6 L34,7 L7,7 L7,14 Z M30.9927354,30.0011824 L34,30 L34,31 L30.8873625,31.0016509 C30.9435998,30.6847353 30.9785632,30.3511118 30.9927354,30.0011824 Z M14.3050573,18.00107 L15.7777416,18.0014282 C15.9240708,18.3524674 16.0926889,18.6858068 16.2853183,19.0012934 L15,19 L15,18.3239682 L14.3669081,18.0361386 C14.3459336,18.0246112 14.3253176,18.0129228 14.3050573,18.00107 Z M22.3542402,18.0007893 L34,18 L34,19 L22.999,19 L23,18.319516 L22.4705882,18.0330328 C22.4506227,18.0222288 22.4066346,18.0114795 22.3542402,18.0007893 Z M22.999,14 L34,14 L34,15 L22.999,15 L22.999,14 Z M22.999,10 L34,10 L34,11 L22.999,11 L22.999,10 Z" id="Combined-Shape" fill-opacity="0.2" fill="#FFFFFF"></path>
            <path d="M30,29.5781936 C30,30.7510646 29.761626,31.2500972 29.2848708,31.9486454 C28.8081157,32.6471936 27.9869668,33.0999496 27,33.3069268 L27,32.0391975 C27.401478,31.8149722 27.644034,31.4484507 27.7276753,31 L27,31 L27,28 L30,28 L30,29.5781936 Z M26,29.5781936 C26,30.7510646 25.761626,31.2500972 25.2848708,31.9486454 C24.8081157,32.6471936 23.9869668,33.0999496 23,33.3069268 L23,32.0391975 C23.2509238,31.9012127 23.4265678,31.7632299 23.5269373,31.6252451 C23.6273068,31.4872603 23.6942188,31.2587216 23.7276753,31 L23,31 L23,28 L26,28 L26,29.5781936 Z M8,13.1770833 C8,15.5382063 8.48241705,17.421868 9.44726563,18.828125 C10.4121142,20.234382 12.0025942,21.1458312 14,21.5625 L14,19.0104167 C13.1874959,18.5590255 12.5872404,17.881949 12.4179688,16.9791667 L14,16.9791667 L14,10 L8,10 L8,13.1770833 Z M16,13.1770833 C16,15.5382062 16.4824171,17.421868 17.4472656,18.828125 C18.4121142,20.234382 20.0025942,21.1458313 22,21.5625 L22,19.0104167 C21.492185,18.7326375 21.0273448,18.4548625 20.8242188,18.1770833 C20.6210927,17.8993042 20.4856774,17.5 20.4179688,16.9791667 L22,16.9791667 L22,10 L16,10 L16,13.1770833 Z" id="Combined-Shape" fill="#FFFFFF"></path>
        </g>
        <g id="Guide/48" transform="translate(1.5, 1.5)"></g>
    </g>
</svg>