<?xml version="1.0" encoding="UTF-8"?>
<svg width="48px" height="48px" viewBox="0 0 48 48" version="1.1" xmlns="http://www.w3.org/2000/svg" xmlns:xlink="http://www.w3.org/1999/xlink">
    <title>apps/48/deepin-diskmanager</title>
    <defs>
        <filter x="-10.3%" y="-5.7%" width="120.6%" height="115.9%" filterUnits="objectBoundingBox" id="filter-1">
            <feOffset dx="0" dy="1" in="SourceAlpha" result="shadowOffsetOuter1"></feOffset>
            <feGaussianBlur stdDeviation="1" in="shadowOffsetOuter1" result="shadowBlurOuter1"></feGaussianBlur>
            <feColorMatrix values="0 0 0 0 0   0 0 0 0 0   0 0 0 0 0  0 0 0 0.2 0" type="matrix" in="shadowBlurOuter1" result="shadowMatrixOuter1"></feColorMatrix>
            <feMerge>
                <feMergeNode in="shadowMatrixOuter1"></feMergeNode>
                <feMergeNode in="SourceGraphic"></feMergeNode>
            </feMerge>
        </filter>
        <linearGradient x1="50%" y1="0%" x2="50%" y2="100%" id="linearGradient-2">
            <stop stop-color="#E9EEF2" offset="0%"></stop>
            <stop stop-color="#95A5AF" offset="100%"></stop>
        </linearGradient>
        <rect id="path-3" x="0" y="0" width="34" height="43" rx="4"></rect>
        <filter x="-0.7%" y="-0.6%" width="101.5%" height="101.2%" filterUnits="objectBoundingBox" id="filter-4">
            <feOffset dx="0" dy="0.5" in="SourceAlpha" result="shadowOffsetInner1"></feOffset>
            <feComposite in="shadowOffsetInner1" in2="SourceAlpha" operator="arithmetic" k2="-1" k3="1" result="shadowInnerInner1"></feComposite>
            <feColorMatrix values="0 0 0 0 1   0 0 0 0 1   0 0 0 0 1  0 0 0 0.25 0" type="matrix" in="shadowInnerInner1"></feColorMatrix>
        </filter>
        <linearGradient x1="50%" y1="0%" x2="50%" y2="100%" id="linearGradient-5">
            <stop stop-color="#94A0A9" offset="0%"></stop>
            <stop stop-color="#8C979D" offset="100%"></stop>
        </linearGradient>
        <path d="M33.9989959,20.0000002 L33.999,23.9990002 L33.8507377,23.9945143 C32.8158778,23.9181651 32,23.0543618 32,22 C32,20.8957652 32.8948879,20.0005427 33.9989959,20.0000002 Z" id="path-6"></path>
        <filter x="-50.0%" y="-25.0%" width="200.1%" height="150.0%" filterUnits="objectBoundingBox" id="filter-7">
            <feGaussianBlur stdDeviation="0.5" in="SourceAlpha" result="shadowBlurInner1"></feGaussianBlur>
            <feOffset dx="0" dy="1" in="shadowBlurInner1" result="shadowOffsetInner1"></feOffset>
            <feComposite in="shadowOffsetInner1" in2="SourceAlpha" operator="arithmetic" k2="-1" k3="1" result="shadowInnerInner1"></feComposite>
            <feColorMatrix values="0 0 0 0 0   0 0 0 0 0   0 0 0 0 0  0 0 0 0.2 0" type="matrix" in="shadowInnerInner1"></feColorMatrix>
        </filter>
        <path d="M1.9989959,20.0000002 L1.999,23.9990002 L1.85073766,23.9945143 C0.815877791,23.9181651 0,23.0543618 0,22 C0,20.8957652 0.894887897,20.0005427 1.9989959,20.0000002 Z" id="path-8"></path>
        <filter x="-50.0%" y="-25.0%" width="200.1%" height="150.0%" filterUnits="objectBoundingBox" id="filter-9">
            <feGaussianBlur stdDeviation="0.5" in="SourceAlpha" result="shadowBlurInner1"></feGaussianBlur>
            <feOffset dx="0" dy="1" in="shadowBlurInner1" result="shadowOffsetInner1"></feOffset>
            <feComposite in="shadowOffsetInner1" in2="SourceAlpha" operator="arithmetic" k2="-1" k3="1" result="shadowInnerInner1"></feComposite>
            <feColorMatrix values="0 0 0 0 0   0 0 0 0 0   0 0 0 0 0  0 0 0 0.2 0" type="matrix" in="shadowInnerInner1"></feColorMatrix>
        </filter>
        <circle id="path-10" cx="31" cy="39" r="1"></circle>
        <filter x="-50.0%" y="-50.0%" width="200.0%" height="200.0%" filterUnits="objectBoundingBox" id="filter-11">
            <feGaussianBlur stdDeviation="0.5" in="SourceAlpha" result="shadowBlurInner1"></feGaussianBlur>
            <feOffset dx="0" dy="1" in="shadowBlurInner1" result="shadowOffsetInner1"></feOffset>
            <feComposite in="shadowOffsetInner1" in2="SourceAlpha" operator="arithmetic" k2="-1" k3="1" result="shadowInnerInner1"></feComposite>
            <feColorMatrix values="0 0 0 0 0   0 0 0 0 0   0 0 0 0 0  0 0 0 0.2 0" type="matrix" in="shadowInnerInner1"></feColorMatrix>
        </filter>
        <circle id="path-12" cx="31" cy="3" r="1"></circle>
        <filter x="-50.0%" y="-50.0%" width="200.0%" height="200.0%" filterUnits="objectBoundingBox" id="filter-13">
            <feGaussianBlur stdDeviation="0.5" in="SourceAlpha" result="shadowBlurInner1"></feGaussianBlur>
            <feOffset dx="0" dy="1" in="shadowBlurInner1" result="shadowOffsetInner1"></feOffset>
            <feComposite in="shadowOffsetInner1" in2="SourceAlpha" operator="arithmetic" k2="-1" k3="1" result="shadowInnerInner1"></feComposite>
            <feColorMatrix values="0 0 0 0 0   0 0 0 0 0   0 0 0 0 0  0 0 0 0.2 0" type="matrix" in="shadowInnerInner1"></feColorMatrix>
        </filter>
        <circle id="path-14" cx="3" cy="3" r="1"></circle>
        <filter x="-50.0%" y="-50.0%" width="200.0%" height="200.0%" filterUnits="objectBoundingBox" id="filter-15">
            <feGaussianBlur stdDeviation="0.5" in="SourceAlpha" result="shadowBlurInner1"></feGaussianBlur>
            <feOffset dx="0" dy="1" in="shadowBlurInner1" result="shadowOffsetInner1"></feOffset>
            <feComposite in="shadowOffsetInner1" in2="SourceAlpha" operator="arithmetic" k2="-1" k3="1" result="shadowInnerInner1"></feComposite>
            <feColorMatrix values="0 0 0 0 0   0 0 0 0 0   0 0 0 0 0  0 0 0 0.2 0" type="matrix" in="shadowInnerInner1"></feColorMatrix>
        </filter>
        <path d="M0.9995,28 L0.9995,39 C0.9995,40.6568542 2.34264575,42 3.9995,42 L18,42 C18.5522847,42 19,41.5522847 19,41 L19,35.8834471 C19,35.3884175 18.6377775,34.967892 18.1482158,34.8945189 C15.0287063,34.4269818 12.3687156,33.5985611 10.1682437,32.4092566 C7.77010726,31.1131189 5.77284954,29.3100334 4.17647059,27 L1.9995,27 C1.44721525,27 0.9995,27.4477153 0.9995,28 Z" id="path-16"></path>
        <filter x="-5.6%" y="-6.7%" width="111.1%" height="113.3%" filterUnits="objectBoundingBox" id="filter-17">
            <feGaussianBlur stdDeviation="0.5" in="SourceAlpha" result="shadowBlurInner1"></feGaussianBlur>
            <feOffset dx="0" dy="1" in="shadowBlurInner1" result="shadowOffsetInner1"></feOffset>
            <feComposite in="shadowOffsetInner1" in2="SourceAlpha" operator="arithmetic" k2="-1" k3="1" result="shadowInnerInner1"></feComposite>
            <feColorMatrix values="0 0 0 0 0   0 0 0 0 0   0 0 0 0 0  0 0 0 0.2 0" type="matrix" in="shadowInnerInner1"></feColorMatrix>
        </filter>
        <linearGradient x1="50%" y1="0%" x2="50%" y2="100%" id="linearGradient-18">
            <stop stop-color="#EAF0F4" offset="0%"></stop>
            <stop stop-color="#C7D1D8" offset="100%"></stop>
        </linearGradient>
        <path d="M3.66050434,28 C5.29344355,30.2335531 7.30655015,31.9992895 9.69276996,33.2889865 C11.8575019,34.4589743 14.4273362,35.2903051 17.4000766,35.7883142 L18,35.8835007 L18,41 L3.9995,41 C2.8949305,41 1.9995,40.1045695 1.9995,39 L1.9995,28 L3.66050434,28 Z M16.5,38 C16.2238576,38 16,38.2238576 16,38.5 C16,38.7761424 16.2238576,39 16.5,39 C16.7761424,39 17,38.7761424 17,38.5 C17,38.2238576 16.7761424,38 16.5,38 Z M3.5,29 C3.22385763,29 3,29.2238576 3,29.5 C3,29.7761424 3.22385763,30 3.5,30 C3.77614237,30 4,29.7761424 4,29.5 C4,29.2238576 3.77614237,29 3.5,29 Z" id="path-19"></path>
        <filter x="-9.4%" y="-11.5%" width="118.7%" height="123.1%" filterUnits="objectBoundingBox" id="filter-20">
            <feOffset dx="0" dy="0" in="SourceAlpha" result="shadowOffsetOuter1"></feOffset>
            <feGaussianBlur stdDeviation="0.5" in="shadowOffsetOuter1" result="shadowBlurOuter1"></feGaussianBlur>
            <feColorMatrix values="0 0 0 0 0   0 0 0 0 0   0 0 0 0 0  0 0 0 0.275868663 0" type="matrix" in="shadowBlurOuter1"></feColorMatrix>
        </filter>
        <linearGradient x1="50%" y1="0%" x2="50%" y2="99.448208%" id="linearGradient-21">
            <stop stop-color="#4C5860" offset="0%"></stop>
            <stop stop-color="#5A656C" offset="100%"></stop>
        </linearGradient>
        <linearGradient x1="50%" y1="1.83254943%" x2="50%" y2="100%" id="linearGradient-22">
            <stop stop-color="#A5ABB2" offset="0%"></stop>
            <stop stop-color="#EAF0FF" offset="100%"></stop>
        </linearGradient>
        <rect id="path-23" x="21" y="32" width="2" height="2"></rect>
        <filter x="-50.0%" y="-50.0%" width="200.0%" height="200.0%" filterUnits="objectBoundingBox" id="filter-24">
            <feGaussianBlur stdDeviation="0.5" in="SourceAlpha" result="shadowBlurInner1"></feGaussianBlur>
            <feOffset dx="0" dy="1" in="shadowBlurInner1" result="shadowOffsetInner1"></feOffset>
            <feComposite in="shadowOffsetInner1" in2="SourceAlpha" operator="arithmetic" k2="-1" k3="1" result="shadowInnerInner1"></feComposite>
            <feColorMatrix values="0 0 0 0 0   0 0 0 0 0   0 0 0 0 0  0 0 0 0.2 0" type="matrix" in="shadowInnerInner1"></feColorMatrix>
        </filter>
        <rect id="path-25" x="10" y="32" width="10" height="2" rx="1"></rect>
        <filter x="-10.0%" y="-50.0%" width="120.0%" height="200.0%" filterUnits="objectBoundingBox" id="filter-26">
            <feGaussianBlur stdDeviation="0.5" in="SourceAlpha" result="shadowBlurInner1"></feGaussianBlur>
            <feOffset dx="0" dy="1" in="shadowBlurInner1" result="shadowOffsetInner1"></feOffset>
            <feComposite in="shadowOffsetInner1" in2="SourceAlpha" operator="arithmetic" k2="-1" k3="1" result="shadowInnerInner1"></feComposite>
            <feColorMatrix values="0 0 0 0 0   0 0 0 0 0   0 0 0 0 0  0 0 0 0.2 0" type="matrix" in="shadowInnerInner1"></feColorMatrix>
        </filter>
        <linearGradient x1="51.7606421%" y1="0%" x2="51.7606421%" y2="100%" id="linearGradient-27">
            <stop stop-color="#6B6C77" offset="0%"></stop>
            <stop stop-color="#2B2F42" offset="83.5058272%"></stop>
            <stop stop-color="#5F627C" offset="100%"></stop>
        </linearGradient>
        <circle id="path-28" cx="13" cy="13" r="13"></circle>
        <filter x="-13.5%" y="-9.6%" width="126.9%" height="126.9%" filterUnits="objectBoundingBox" id="filter-29">
            <feOffset dx="0" dy="1" in="SourceAlpha" result="shadowOffsetOuter1"></feOffset>
            <feGaussianBlur stdDeviation="1" in="shadowOffsetOuter1" result="shadowBlurOuter1"></feGaussianBlur>
            <feColorMatrix values="0 0 0 0 0   0 0 0 0 0   0 0 0 0 0  0 0 0 0.271689248 0" type="matrix" in="shadowBlurOuter1"></feColorMatrix>
        </filter>
        <linearGradient x1="50%" y1="0%" x2="50%" y2="100%" id="linearGradient-30">
            <stop stop-color="#FFFFFF" stop-opacity="0.15" offset="0%"></stop>
            <stop stop-color="#000000" stop-opacity="0.328238225" offset="100%"></stop>
        </linearGradient>
        <linearGradient x1="50%" y1="0%" x2="50%" y2="100%" id="linearGradient-31">
            <stop stop-color="#393741" offset="0%"></stop>
            <stop stop-color="#1F1C25" offset="100%"></stop>
        </linearGradient>
        <circle id="path-32" cx="11" cy="11" r="11"></circle>
        <filter x="-18.2%" y="-9.1%" width="136.4%" height="136.4%" filterUnits="objectBoundingBox" id="filter-33">
            <feOffset dx="0" dy="2" in="SourceAlpha" result="shadowOffsetOuter1"></feOffset>
            <feGaussianBlur stdDeviation="1" in="shadowOffsetOuter1" result="shadowBlurOuter1"></feGaussianBlur>
            <feColorMatrix values="0 0 0 0 0   0 0 0 0 0   0 0 0 0 0  0 0 0 0.3 0" type="matrix" in="shadowBlurOuter1"></feColorMatrix>
        </filter>
        <circle id="path-34" cx="4" cy="4" r="4"></circle>
        <filter x="-25.0%" y="-12.5%" width="150.0%" height="150.0%" filterUnits="objectBoundingBox" id="filter-35">
            <feOffset dx="0" dy="1" in="SourceAlpha" result="shadowOffsetOuter1"></feOffset>
            <feGaussianBlur stdDeviation="0.5" in="shadowOffsetOuter1" result="shadowBlurOuter1"></feGaussianBlur>
            <feColorMatrix values="0 0 0 0 0   0 0 0 0 0   0 0 0 0 0  0 0 0 0.3 0" type="matrix" in="shadowBlurOuter1"></feColorMatrix>
        </filter>
        <linearGradient x1="50%" y1="0%" x2="50%" y2="100%" id="linearGradient-36">
            <stop stop-color="#E5E5E5" stop-opacity="0.15" offset="0%"></stop>
            <stop stop-color="#565656" stop-opacity="0.328238225" offset="100%"></stop>
        </linearGradient>
        <linearGradient x1="50%" y1="0%" x2="50%" y2="100%" id="linearGradient-37">
            <stop stop-color="#FBFBFB" offset="0%"></stop>
            <stop stop-color="#B7B7B7" offset="100%"></stop>
        </linearGradient>
        <path d="M13,11 C14.1045695,11 15,11.8954305 15,13 C15,14.1045695 14.1045695,15 13,15 C11.8954305,15 11,14.1045695 11,13 C11,11.8954305 11.8954305,11 13,11 Z M13,12.3333333 C12.6318102,12.3333333 12.3333333,12.6318102 12.3333333,13 C12.3333333,13.3681898 12.6318102,13.6666667 13,13.6666667 C13.3681898,13.6666667 13.6666667,13.3681898 13.6666667,13 C13.6666667,12.6318102 13.3681898,12.3333333 13,12.3333333 Z" id="path-38"></path>
        <filter x="-50.0%" y="-25.0%" width="200.0%" height="200.0%" filterUnits="objectBoundingBox" id="filter-39">
            <feOffset dx="0" dy="1" in="SourceAlpha" result="shadowOffsetOuter1"></feOffset>
            <feGaussianBlur stdDeviation="0.5" in="shadowOffsetOuter1" result="shadowBlurOuter1"></feGaussianBlur>
            <feColorMatrix values="0 0 0 0 0   0 0 0 0 0   0 0 0 0 0  0 0 0 0.3 0" type="matrix" in="shadowBlurOuter1"></feColorMatrix>
        </filter>
        <linearGradient x1="97.2470411%" y1="2.56244254%" x2="6.27062595%" y2="93.3062442%" id="linearGradient-40">
            <stop stop-color="#F7F9FB" offset="0%"></stop>
            <stop stop-color="#ECF1F6" offset="100%"></stop>
        </linearGradient>
        <path d="M5.07552499,13.8573505 L14.7775558,1.54363163 C14.9162428,1.37882641 15,1.16734835 15,0.936621039 C15,0.420231342 14.5798081,0 14.0620605,0 C13.8313549,0 13.6198967,0.0824465592 13.4564252,0.222465076 L1.14254242,9.92540548 C0.449019172,10.4376641 0,11.2603718 0,12.1873242 C0,13.7420308 1.25925752,15 2.81241211,15 C3.74077178,15 4.56331443,14.5509387 5.07552499,13.8573505 Z" id="path-41"></path>
        <filter x="-13.3%" y="-6.7%" width="126.7%" height="126.7%" filterUnits="objectBoundingBox" id="filter-42">
            <feOffset dx="0" dy="1" in="SourceAlpha" result="shadowOffsetOuter1"></feOffset>
            <feGaussianBlur stdDeviation="0.5" in="shadowOffsetOuter1" result="shadowBlurOuter1"></feGaussianBlur>
            <feColorMatrix values="0 0 0 0 0   0 0 0 0 0   0 0 0 0 0  0 0 0 0.300344187 0" type="matrix" in="shadowBlurOuter1"></feColorMatrix>
        </filter>
        <filter x="-6.7%" y="0.0%" width="113.3%" height="113.3%" filterUnits="objectBoundingBox" id="filter-43">
            <feOffset dx="0" dy="0" in="SourceAlpha" result="shadowOffsetInner1"></feOffset>
            <feComposite in="shadowOffsetInner1" in2="SourceAlpha" operator="arithmetic" k2="-1" k3="1" result="shadowInnerInner1"></feComposite>
            <feColorMatrix values="0 0 0 0 1   0 0 0 0 1   0 0 0 0 1  0 0 0 0.942198427 0" type="matrix" in="shadowInnerInner1"></feColorMatrix>
        </filter>
        <linearGradient x1="50%" y1="0%" x2="50%" y2="97.6792756%" id="linearGradient-44">
            <stop stop-color="#959B9F" offset="0%"></stop>
            <stop stop-color="#727A81" offset="100%"></stop>
        </linearGradient>
        <path d="M20.5,36 C20.7761424,36 21,36.2238576 21,36.5 L21,41.5 C21,41.7761424 20.7761424,42 20.5,42 C20.2238576,42 20,41.7761424 20,41.5 L20,36.5 C20,36.2238576 20.2238576,36 20.5,36 Z M22.5,36 C22.7761424,36 23,36.2238576 23,36.5 L23,41.5 C23,41.7761424 22.7761424,42 22.5,42 C22.2238576,42 22,41.7761424 22,41.5 L22,36.5 C22,36.2238576 22.2238576,36 22.5,36 Z M24.5,36 C24.7761424,36 25,36.2238576 25,36.5 L25,41.5 C25,41.7761424 24.7761424,42 24.5,42 C24.2238576,42 24,41.7761424 24,41.5 L24,36.5 C24,36.2238576 24.2238576,36 24.5,36 Z M26.5,36 C26.7761424,36 27,36.2238576 27,36.5 L27,41.5 C27,41.7761424 26.7761424,42 26.5,42 C26.2238576,42 26,41.7761424 26,41.5 L26,36.5 C26,36.2238576 26.2238576,36 26.5,36 Z M28.5,36 C28.7761424,36 29,36.2238576 29,36.5 L29,41.5 C29,41.7761424 28.7761424,42 28.5,42 C28.2238576,42 28,41.7761424 28,41.5 L28,36.5 C28,36.2238576 28.2238576,36 28.5,36 Z" id="path-45"></path>
        <filter x="-11.1%" y="-16.7%" width="122.2%" height="133.3%" filterUnits="objectBoundingBox" id="filter-46">
            <feGaussianBlur stdDeviation="0.5" in="SourceAlpha" result="shadowBlurInner1"></feGaussianBlur>
            <feOffset dx="0" dy="1" in="shadowBlurInner1" result="shadowOffsetInner1"></feOffset>
            <feComposite in="shadowOffsetInner1" in2="SourceAlpha" operator="arithmetic" k2="-1" k3="1" result="shadowInnerInner1"></feComposite>
            <feColorMatrix values="0 0 0 0 0   0 0 0 0 0   0 0 0 0 0  0 0 0 0.2 0" type="matrix" in="shadowInnerInner1"></feColorMatrix>
        </filter>
    </defs>
    <g id="apps/48/deepin-diskmanager" stroke="none" stroke-width="1" fill="none" fill-rule="evenodd">
        <g id="编组-5" filter="url(#filter-1)" transform="translate(7, 2)">
            <rect id="矩形" fill="#424F59" x="0" y="0" width="34" height="44" rx="4"></rect>
            <g id="矩形备份">
                <use fill="url(#linearGradient-2)" fill-rule="evenodd" xlink:href="#path-3"></use>
                <use fill="black" fill-opacity="1" filter="url(#filter-4)" xlink:href="#path-3"></use>
            </g>
            <g id="形状结合">
                <use fill="url(#linearGradient-5)" fill-rule="evenodd" xlink:href="#path-6"></use>
                <use fill="black" fill-opacity="1" filter="url(#filter-7)" xlink:href="#path-6"></use>
            </g>
            <g id="形状结合备份" transform="translate(0.9995, 21.9995) scale(-1, 1) translate(-0.9995, -21.9995)">
                <use fill="url(#linearGradient-5)" fill-rule="evenodd" xlink:href="#path-8"></use>
                <use fill="black" fill-opacity="1" filter="url(#filter-9)" xlink:href="#path-8"></use>
            </g>
            <g id="椭圆形备份-7">
                <use fill="#8C969D" fill-rule="evenodd" xlink:href="#path-10"></use>
                <use fill="black" fill-opacity="1" filter="url(#filter-11)" xlink:href="#path-10"></use>
            </g>
            <g id="椭圆形备份-8" transform="translate(31, 3) scale(1, -1) translate(-31, -3)">
                <use fill="#8C969D" fill-rule="evenodd" xlink:href="#path-12"></use>
                <use fill="black" fill-opacity="1" filter="url(#filter-13)" xlink:href="#path-12"></use>
            </g>
            <g id="椭圆形备份-9" transform="translate(3, 3) scale(1, -1) translate(-3, -3)">
                <use fill="#8C969D" fill-rule="evenodd" xlink:href="#path-14"></use>
                <use fill="black" fill-opacity="1" filter="url(#filter-15)" xlink:href="#path-14"></use>
            </g>
            <g id="路径">
                <use fill="#6C7982" fill-rule="evenodd" xlink:href="#path-16"></use>
                <use fill="black" fill-opacity="1" filter="url(#filter-17)" xlink:href="#path-16"></use>
            </g>
            <g id="形状结合" fill-rule="nonzero">
                <use fill="black" fill-opacity="1" filter="url(#filter-20)" xlink:href="#path-19"></use>
                <use fill="url(#linearGradient-18)" xlink:href="#path-19"></use>
            </g>
            <g id="编组-4" transform="translate(3, 37)" fill-rule="nonzero">
                <path d="M3,1.50056243 C3,2.32888077 2.32800787,3 1.5,3 C0.67199213,3 0,2.32888077 0,1.50056243 C0,0.672244095 0.67199213,0 1.5,0 C2.32800787,0 3,0.672244095 3,1.50056243 Z" id="Shape" fill="url(#linearGradient-21)"></path>
                <path d="M2,1.50018748 C2,1.77629359 1.77600262,2 1.5,2 C1.22399738,2 1,1.77629359 1,1.50018748 C1,1.22408136 1.22399738,1 1.5,1 C1.77600262,1 2,1.22408136 2,1.50018748 Z" id="Shape" fill="url(#linearGradient-22)" transform="translate(1.5, 1.5) scale(-1, 1) rotate(-180) translate(-1.5, -1.5)"></path>
            </g>
            <g id="矩形备份-2">
                <use fill="#A4AFB6" fill-rule="evenodd" xlink:href="#path-23"></use>
                <use fill="black" fill-opacity="1" filter="url(#filter-24)" xlink:href="#path-23"></use>
            </g>
            <g id="矩形">
                <use fill="#A4AFB6" fill-rule="evenodd" xlink:href="#path-25"></use>
                <use fill="black" fill-opacity="1" filter="url(#filter-26)" xlink:href="#path-25"></use>
            </g>
            <g id="编组-14" transform="translate(4, 4)">
                <g id="椭圆形">
                    <use fill="black" fill-opacity="1" filter="url(#filter-29)" xlink:href="#path-28"></use>
                    <use fill="url(#linearGradient-27)" fill-rule="evenodd" xlink:href="#path-28"></use>
                </g>
                <path d="M13,0 C20.1797017,0 26,5.82029825 26,13 C26,20.1797017 20.1797017,26 13,26 C5.82029825,26 0,20.1797017 0,13 C0,5.82029825 5.82029825,0 13,0 Z M13,0.5 C6.09644063,0.5 0.5,6.09644063 0.5,13 C0.5,19.9035594 6.09644063,25.5 13,25.5 C19.9035594,25.5 25.5,19.9035594 25.5,13 C25.5,6.09644063 19.9035594,0.5 13,0.5 Z" id="椭圆形" fill="url(#linearGradient-30)" fill-rule="nonzero"></path>
                <g id="编组-13" transform="translate(2, 2)">
                    <g id="椭圆形备份-2">
                        <use fill="black" fill-opacity="1" filter="url(#filter-33)" xlink:href="#path-32"></use>
                        <use fill="url(#linearGradient-31)" fill-rule="evenodd" xlink:href="#path-32"></use>
                    </g>
                    <path d="M11,0 C17.0751322,0 22,4.92486775 22,11 C22,17.0751322 17.0751322,22 11,22 C4.92486775,22 0,17.0751322 0,11 C0,4.92486775 4.92486775,0 11,0 Z M11,1 C5.4771525,1 1,5.4771525 1,11 C1,16.5228475 5.4771525,21 11,21 C16.5228475,21 21,16.5228475 21,11 C21,5.4771525 16.5228475,1 11,1 Z" id="椭圆形备份-2" fill="#000000" fill-rule="nonzero"></path>
                    <path d="M11.315344,11.8357703 L3.71286139,19.2401707 C2.31375518,18.0019509 1.2323218,16.4128987 0.606344035,14.6107968 L11.315344,11.8357703 Z M19.4305437,3.93377028 C20.6503337,5.38753747 21.5010464,7.16141756 21.8384548,9.11118361 L11.315344,11.8357703 Z" id="形状结合" fill-opacity="0.304632867" fill="#4F4F50" fill-rule="nonzero" opacity="0.413829985"></path>
                    <path d="M10.8084894,11.844589 L21.3210586,14.8133325 C20.668566,16.5787255 19.5760701,18.1308603 18.1766681,19.3366397 L10.8084894,11.844589 Z M2.78404585,3.68558904 L10.8084894,11.844589 L0.209489387,8.85263748 C0.597250937,6.89312007 1.50545032,5.1207567 2.78404585,3.68558904 Z" id="形状结合" fill-opacity="0.304632867" fill="#4F4F50" fill-rule="nonzero"></path>
                </g>
                <g id="编组-6" transform="translate(9, 9)">
                    <g id="椭圆形备份-3">
                        <use fill="black" fill-opacity="1" filter="url(#filter-35)" xlink:href="#path-34"></use>
                        <use fill="url(#linearGradient-31)" fill-rule="evenodd" xlink:href="#path-34"></use>
                    </g>
                    <path d="M4,0 C6.209139,0 8,1.790861 8,4 C8,6.209139 6.209139,8 4,8 C1.790861,8 0,6.209139 0,4 C0,1.790861 1.790861,0 4,0 Z M4,2 C2.8954305,2 2,2.8954305 2,4 C2,5.1045695 2.8954305,6 4,6 C5.1045695,6 6,5.1045695 6,4 C6,2.8954305 5.1045695,2 4,2 Z" id="椭圆形备份-3" fill="#000000" fill-rule="nonzero"></path>
                    <path d="M4,-0.5 C6.48528137,-0.5 8.5,1.51471863 8.5,4 C8.5,6.48528137 6.48528137,8.5 4,8.5 C1.51471863,8.5 -0.5,6.48528137 -0.5,4 C-0.5,1.51471863 1.51471863,-0.5 4,-0.5 Z M4,0 C1.790861,0 0,1.790861 0,4 C0,6.209139 1.790861,8 4,8 C6.209139,8 8,6.209139 8,4 C8,1.790861 6.209139,0 4,0 Z" id="椭圆形备份-3" fill="url(#linearGradient-36)" fill-rule="nonzero"></path>
                    <path d="M5.15821897,4.18873823 L7.48071193,5.97236251 C7.19626717,6.47325525 6.80682266,6.90671998 6.34230896,7.24282614 C6.22986927,7.29773552 6.11384521,7.34665298 5.99555315,7.39072904 L4.7961968,4.58361184 C4.93672752,4.47257507 5.05924307,4.33929245 5.15821897,4.18873823 Z M2.90157513,0.152702807 L3.52741877,1.61633015 C3.12910152,1.67196428 2.77300163,1.86898188 2.51475848,2.15728506 L1.19761391,1.14576795 C1.66742456,0.68443846 2.25062996,0.338198415 2.90157513,0.152702807 Z" id="形状结合" fill-opacity="0.401305726" fill="#4F4F50" fill-rule="nonzero"></path>
                </g>
                <g id="形状结合">
                    <use fill="black" fill-opacity="1" filter="url(#filter-39)" xlink:href="#path-38"></use>
                    <use fill="url(#linearGradient-37)" fill-rule="evenodd" xlink:href="#path-38"></use>
                </g>
            </g>
            <g id="编组-3" transform="translate(7, 22)">
                <g id="Shape" fill-rule="nonzero">
                    <use fill="black" fill-opacity="1" filter="url(#filter-42)" xlink:href="#path-41"></use>
                    <use fill="url(#linearGradient-40)" xlink:href="#path-41"></use>
                    <use fill="black" fill-opacity="1" filter="url(#filter-43)" xlink:href="#path-41"></use>
                </g>
                <circle id="椭圆形" fill="url(#linearGradient-44)" cx="2.5" cy="12.5" r="1.5"></circle>
            </g>
            <g id="形状结合">
                <use fill="#6C7982" fill-rule="evenodd" xlink:href="#path-45"></use>
                <use fill="black" fill-opacity="1" filter="url(#filter-46)" xlink:href="#path-45"></use>
            </g>
        </g>
        <g id="Guide/48" transform="translate(1.5, 1.5)"></g>
    </g>
</svg>