<?xml version="1.0" encoding="UTF-8"?>
<svg width="48px" height="48px" viewBox="0 0 48 48" version="1.1" xmlns="http://www.w3.org/2000/svg" xmlns:xlink="http://www.w3.org/1999/xlink">
    <title>apps/48/deepin-voice-note</title>
    <defs>
        <filter x="-9.2%" y="-6.0%" width="118.4%" height="119.0%" filterUnits="objectBoundingBox" id="filter-1">
            <feOffset dx="0" dy="1" in="SourceAlpha" result="shadowOffsetOuter1"></feOffset>
            <feGaussianBlur stdDeviation="1" in="shadowOffsetOuter1" result="shadowBlurOuter1"></feGaussianBlur>
            <feColorMatrix values="0 0 0 0 0   0 0 0 0 0   0 0 0 0 0  0 0 0 0.2 0" type="matrix" in="shadowBlurOuter1" result="shadowMatrixOuter1"></feColorMatrix>
            <feMerge>
                <feMergeNode in="shadowMatrixOuter1"></feMergeNode>
                <feMergeNode in="SourceGraphic"></feMergeNode>
            </feMerge>
        </filter>
        <linearGradient x1="50%" y1="0%" x2="50%" y2="100%" id="linearGradient-2">
            <stop stop-color="#FD5E5E" offset="0%"></stop>
            <stop stop-color="#ED5656" offset="100%"></stop>
        </linearGradient>
        <path d="M14,23 L14,24 C14,26.7614237 16.2385763,29 19,29 C21.7614237,29 24,26.7614237 24,24 L24,23 L25,23 L25,24 C25,26.9727145 22.8381232,29.4404956 20.0008069,29.9169061 L20.0007263,31.0400662 C22.2826047,31.2254866 24,32.0325195 24,33 L14,33 C14,32.0323792 15.7178935,31.2252525 18.0002666,31.0399856 L18.0001915,29.9170737 C15.1623839,29.4410745 13,26.9730632 13,24 L13,23 L14,23 Z M23,23 L23,24 C23,26.209139 21.209139,28 19,28 C16.790861,28 15,26.209139 15,24 L15,23 L23,23 Z M15,18 L15,14 C15,11.790861 16.790861,10 19,10 C21.209139,10 23,11.790861 23,14 L23,18 L20,18 L20,19 L23,19 L23,20 L20,20 L20,21 L23,21 L23,22 L15,22 L15,21 L18,21 L18,20 L15,20 L15,19 L18,19 L18,18 L15,18 Z" id="path-3"></path>
        <filter x="-91.7%" y="-30.4%" width="283.3%" height="195.7%" filterUnits="objectBoundingBox" id="filter-4">
            <feOffset dx="0" dy="4" in="SourceAlpha" result="shadowOffsetOuter1"></feOffset>
            <feGaussianBlur stdDeviation="3" in="shadowOffsetOuter1" result="shadowBlurOuter1"></feGaussianBlur>
            <feColorMatrix values="0 0 0 0 0.97254902   0 0 0 0 0.17254902   0 0 0 0 0.277440324  0 0 0 0.4 0" type="matrix" in="shadowBlurOuter1"></feColorMatrix>
        </filter>
    </defs>
    <g id="apps/48/deepin-voice-note" stroke="none" stroke-width="1" fill="none" fill-rule="evenodd">
        <g id="Group-2" filter="url(#filter-1)" transform="translate(5, 3)">
            <rect id="Rectangle-3" fill="#FFFFFF" x="0" y="0" width="38" height="42" rx="5"></rect>
            <path d="M7,0 L7,2 L34,2 L34,3 L7,3 L7,6 L34,6 L34,7 L7,7 L7,10 L34,10 L34,11 L7,11 L7,14 L34,14 L34,15 L7,15 L7,18 L34,18 L34,19 L7,19 L7,22 L34,22 L34,23 L7,23 L7,26 L34,26 L34,27 L7,27 L7,30 L34,30 L34,31 L7,31 L7,34 L34,34 L34,35 L7,35 L7,38 L34,38 L34,39 L7,39 L7,42 L6,42 L6,39 L3,39 L3,38 L6,38 L6,35 L3,35 L3,34 L6,34 L6,31 L3,31 L3,30 L6,30 L6,27 L3,27 L3,26 L6,26 L6,23 L3,23 L3,22 L6,22 L6,19 L3,19 L3,18 L6,18 L6,15 L3,15 L3,14 L6,14 L6,11 L3,11 L3,10 L6,10 L6,7 L3,7 L3,6 L6,6 L6,3 L3,3 L3,2 L6,2 L6,0 L7,0 Z" id="Combined-Shape" fill-opacity="0.1" fill="#000000"></path>
            <g id="形状结合">
                <use fill="black" fill-opacity="1" filter="url(#filter-4)" xlink:href="#path-3"></use>
                <use fill="url(#linearGradient-2)" fill-rule="evenodd" xlink:href="#path-3"></use>
            </g>
        </g>
        <g id="Guide/48" transform="translate(1.5, 1.5)"></g>
    </g>
</svg>