<svg xmlns="http://www.w3.org/2000/svg" width="48" height="48" viewBox="0 0 48 48">
  <defs>
    <filter id="deepin-editor-a" width="134.2%" height="131%" x="-17.1%" y="-15.5%" filterUnits="objectBoundingBox">
      <feOffset dy="1" in="SourceAlpha" result="shadowOffsetOuter1"/>
      <feGaussianBlur in="shadowOffsetOuter1" result="shadowBlurOuter1" stdDeviation="1"/>
      <feComposite in="shadowBlurOuter1" in2="SourceAlpha" operator="out" result="shadowBlurOuter1"/>
      <feColorMatrix in="shadowBlurOuter1" result="shadowMatrixOuter1" values="0 0 0 0 0   0 0 0 0 0   0 0 0 0 0  0 0 0 0.2 0"/>
      <feMerge>
        <feMergeNode in="shadowMatrixOuter1"/>
        <feMergeNode in="SourceGraphic"/>
      </feMerge>
    </filter>
    <radialGradient id="deepin-editor-b" cx="60.953%" cy="7.944%" r="113.567%" fx="60.953%" fy="7.944%" gradientTransform="scale(1 .90476) rotate(73.177 .604 .084)">
      <stop offset="0%" stop-color="#00C2FB"/>
      <stop offset="100%" stop-color="#003AE3"/>
    </radialGradient>
  </defs>
  <g fill="none" fill-rule="evenodd" filter="url(#deepin-editor-a)" transform="translate(5 3)">
    <rect width="38" height="42" fill="url(#deepin-editor-b)" rx="6"/>
    <path fill="#FFF" fill-opacity=".2" d="M20.0075493,22.001234 C20.4931356,22.1849263 21.0116994,22.3335962 21.5624096,22.4472435 L21.5624096,22.4472435 L22.7617188,22.6947389 L22.761,22 L34,22 L34,23 L7,23 L7,26 L34,26 L34,27 L7,27 L7,30 L22.2,30 L22.2,31 L7,31 L7,34 L22.2,34 L22.2,35 L23.4003231,34.7509826 C24.0940549,34.607062 24.7016425,34.3570195 25.2129554,34.0009923 L26.089,34 L26.0892989,35 L27.289622,34.7509826 C27.9833538,34.607062 28.5909414,34.3570195 29.1022543,34.0009923 L34,34 L34,35 L7,35 L7,38 L34,38 L34,39 L7,39 L7,42 L6,42 L6,39 L3,39 L3,38 L6,38 L6,35 L3,35 L3,34 L6,34 L6,31 L3,31 L3,30 L6,30 L6,27 L3,27 L3,26 L6,26 L6,23 L3,23 L3,22 L6,22 L6,19 L3,19 L3,18 L6,18 L6,15 L3,15 L3,14 L6,14 L6,11 L3,11 L3,10 L6,10 L6,7 L3,7 L3,6 L6,6 L6,3 L3,3 L3,2 L6,2 L6,0 L7,0 L7,2 L34,2 L34,3 L7,3 L7,6 L34,6 L34,7 L7,7 L7,10 L7,11 L7,14 L7.02069078,14.0010077 C7.03789343,14.3438175 7.0658422,14.6772799 7.1046089,15.0013336 L7,15 L7,18 L7.88824902,18.0013321 C8.04264526,18.3523643 8.21739928,18.6856979 8.41269032,19.0011796 L7,19 L7,22 L12.1364555,22.001234 C12.6220418,22.1849263 13.1406057,22.3335962 13.6913158,22.4472435 L13.6913158,22.4472435 L14.890625,22.6947389 L14.89,22 Z M30.9927354,30.0011824 L34,30 L34,31 L30.8873625,31.0016509 C30.9435998,30.6847353 30.9785632,30.3511118 30.9927354,30.0011824 Z M14.3050573,18.00107 L15.7593428,18.0013321 C15.913739,18.3523643 16.088493,18.6856979 16.2837841,19.0011796 L14.89,19 L14.890625,18.3239682 L14.3669081,18.0361386 C14.3459336,18.0246112 14.3253176,18.0129228 14.3050573,18.00107 Z M22.1727911,18.0003708 L34,18 L34,19 L22.761,19 L22.7617188,18.319516 L22.232307,18.0330328 C22.2120809,18.0220878 22.1922422,18.0111989 22.1727911,18.0003708 Z M14.89,14 C14.9089872,14.3438175 14.9369359,14.6772799 14.9757026,15.0013336 L14.89,15 L14.89,14 Z M22.761,14 L34,14 L34,15 L22.761,15 L22.761,14 Z M22.761,10 L34,10 L34,11 L22.761,11 L22.761,10 Z"/>
    <path fill="#FFF" d="M30,29.8346038 C30,31.0074749 29.761626,31.9431705 29.2848708,32.6417186 C28.8081157,33.3402668 28.0762657,33.7930228 27.0892989,34 L27.0892989,32.7322707 C27.4907769,32.5080454 27.7333329,32.1717124 27.8169742,31.7232617 L27.0892989,31.7232617 L27.0892989,28.2564103 L30,28.2564103 L30,29.8346038 Z M26.1107011,28.2564103 L26.1107011,29.8346038 C26.1107011,31.0074749 25.8723271,31.9431705 25.395572,32.6417186 C24.9188168,33.3402668 24.1869668,33.7930228 23.2,34 L23.2,32.7322707 C23.4509238,32.5942859 23.6265678,32.4563031 23.7269373,32.3183183 C23.8273068,32.1803335 23.8942188,31.9819833 23.9276753,31.7232617 L23.2,31.7232617 L23.2,28.2564103 L26.1107011,28.2564103 Z M13.890625,10 L13.890625,16.9791667 L12.4179688,16.9791667 C12.5742195,17.8125042 13.0045039,18.4535244 13.7088333,18.9022432 L13.890625,19.0104167 L13.890625,21.5625 C11.8932192,21.1458313 10.4121142,20.234382 9.44726562,18.828125 C8.53917285,17.504589 8.05842426,15.7581616 8.00500779,13.5887958 L8,13.1770833 L8,10 L13.890625,10 Z M21.7617188,10 L21.7617188,16.9791667 L20.2890625,16.9791667 C20.3567712,17.5 20.4921865,17.8993042 20.6953125,18.1770833 C20.8984385,18.4548625 21.2539037,18.7326375 21.7617188,19.0104167 L21.7617188,19.0104167 L21.7617188,21.5625 C19.7643129,21.1458313 18.2832079,20.234382 17.3183594,18.828125 C16.3535108,17.421868 15.8710938,15.5382063 15.8710938,13.1770833 L15.8710938,13.1770833 L15.8710938,10 L21.7617188,10 Z"/>
  </g>
</svg>
