<?xml version="1.0" encoding="UTF-8"?>
<svg width="48px" height="48px" viewBox="0 0 48 48" version="1.1" xmlns="http://www.w3.org/2000/svg" xmlns:xlink="http://www.w3.org/1999/xlink">
    <title>apps/48/deepin-wine-assist</title>
    <defs>
        <filter x="-10.2%" y="-8.8%" width="120.5%" height="122.5%" filterUnits="objectBoundingBox" id="filter-1">
            <feOffset dx="0" dy="1" in="SourceAlpha" result="shadowOffsetOuter1"></feOffset>
            <feGaussianBlur stdDeviation="1" in="shadowOffsetOuter1" result="shadowBlurOuter1"></feGaussianBlur>
            <feColorMatrix values="0 0 0 0 0   0 0 0 0 0   0 0 0 0 0  0 0 0 0.2 0" type="matrix" in="shadowBlurOuter1" result="shadowMatrixOuter1"></feColorMatrix>
            <feMerge>
                <feMergeNode in="shadowMatrixOuter1"></feMergeNode>
                <feMergeNode in="SourceGraphic"></feMergeNode>
            </feMerge>
        </filter>
        <linearGradient x1="50%" y1="0%" x2="50%" y2="98.1385523%" id="linearGradient-2">
            <stop stop-color="#FFFFFF" offset="0%"></stop>
            <stop stop-color="#EDEDED" offset="100%"></stop>
        </linearGradient>
        <linearGradient x1="34.3158356%" y1="0%" x2="34.3158356%" y2="56.1446629%" id="linearGradient-3">
            <stop stop-color="#00E0DE" offset="0%"></stop>
            <stop stop-color="#00B3EB" offset="100%"></stop>
        </linearGradient>
        <linearGradient x1="50%" y1="0%" x2="50%" y2="98.1385523%" id="linearGradient-4">
            <stop stop-color="#FFFFFF" offset="0%"></stop>
            <stop stop-color="#EDEDED" offset="100%"></stop>
        </linearGradient>
        <linearGradient x1="50%" y1="0%" x2="50%" y2="100%" id="linearGradient-5">
            <stop stop-color="#000000" stop-opacity="0.04" offset="0%"></stop>
            <stop stop-color="#000000" stop-opacity="0.10699847" offset="100%"></stop>
        </linearGradient>
        <rect id="path-6" x="0" y="15" width="44" height="2" rx="1"></rect>
        <filter x="-4.5%" y="-150.0%" width="109.1%" height="300.0%" filterUnits="objectBoundingBox" id="filter-7">
            <feOffset dx="0" dy="-1" in="SourceAlpha" result="shadowOffsetOuter1"></feOffset>
            <feGaussianBlur stdDeviation="0.5" in="shadowOffsetOuter1" result="shadowBlurOuter1"></feGaussianBlur>
            <feColorMatrix values="0 0 0 0 0   0 0 0 0 0   0 0 0 0 0  0 0 0 0.0968913899 0" type="matrix" in="shadowBlurOuter1"></feColorMatrix>
        </filter>
    </defs>
    <g id="apps/48/deepin-wine-assist" stroke="none" stroke-width="1" fill="none" fill-rule="evenodd">
        <g id="编组-2" filter="url(#filter-1)" transform="translate(2, 4)">
            <path d="M10.25,0 L33.75,0 C36.6494949,-5.32628579e-16 39,2.35050506 39,5.25 L39,16 L39,16 L5,16 L5,5.25 C5,2.35050506 7.35050506,5.32628579e-16 10.25,0 Z" id="矩形" fill="url(#linearGradient-2)"></path>
            <path d="M33.75,-1 C37.2017797,-1 40,1.79822031 40,5.25 L40,17 L4,17 L4,5.25 C4,1.79822031 6.79822031,-1 10.25,-1 L33.75,-1 Z M33.75,0 L10.25,0 C7.35050506,0 5,2.35050506 5,5.25 L5,16 L39,16 L39,5.25 C39,2.35050506 36.6494949,0 33.75,0 Z" id="矩形" fill-opacity="0.04" fill="#000000" fill-rule="nonzero"></path>
            <path d="M22,2 C29.7319112,2 36,8.26833618 36,16.0002898 C36,23.6276557 29.9002681,29.830331 22.3126459,29.996578 L22,30 L22.069475,29.9994246 L21.930434,30 C14.3076598,29.9627459 8.12513145,23.8337584 8.00187559,16.2318013 L8,16.0002898 C8,8.26833618 14.2680896,2 22,2 Z M22.0903226,3.44516129 L21.6441229,3.45288721 C21.6118404,3.45400685 21.5795886,3.4552475 21.547368,3.45660873 C21.3963462,3.46299301 21.2463463,3.47200005 21.0970735,3.48359924 L21.547368,3.45660873 C21.390161,3.46325031 21.2336963,3.47276234 21.0780251,3.48509376 L21.0970735,3.48359924 C20.9345758,3.49622606 20.7729397,3.51192469 20.6122232,3.53063711 L21.0780251,3.48509376 C20.9164343,3.49789411 20.7556984,3.51373234 20.5958747,3.53255136 L20.6122232,3.53063711 C20.4659954,3.54766261 20.3205289,3.56718301 20.1758673,3.58915462 L20.5958747,3.53255136 C20.4336859,3.55164886 20.2724365,3.573816 20.112186,3.5989931 C18.4007284,6.27031233 17.5189663,10.2686681 17.5936062,12.7695331 L17.5930461,12.7968028 C17.5879708,13.1464353 17.5979473,16.7624682 20.1398662,18.0867474 C20.1398662,18.0867474 22.4358442,19.1003277 24.0677951,15.9407435 L24.1869535,15.7026388 C24.2920183,15.5083883 25.2787192,13.5540018 24.8449679,9.41173911 C24.8449679,9.41173911 25.2830064,9.48939435 25.3325361,9.55917164 C25.3820657,9.62838685 26.2999699,12.9254057 25.6550111,15.7019009 C25.6550111,15.7019009 25.0612394,18.9645975 22.1418755,19.7107711 C19.2236107,20.4569534 16.9492057,18.6517195 15.4050485,16.9511559 C14.3035329,15.7381329 12.6907116,12.5666936 11.8178118,8.71633107 C11.7283804,8.8393151 11.6420685,8.96400279 11.5579673,9.09028898 C11.5349525,9.12483452 11.5121525,9.1594324 11.4895184,9.19414868 L11.5579673,9.09028898 C11.4960397,9.18327935 11.4353107,9.27713643 11.3758024,9.37183817 L11.4895184,9.19414868 C11.3425158,9.41962183 11.2025106,9.65008917 11.0698123,9.88524084 C11.0533811,9.91446866 11.0370414,9.94369698 11.0208147,9.97299654 L11.0698123,9.88524084 C11.0070564,9.99644908 10.9459348,10.108705 10.8864801,10.2219758 L11.0208147,9.97299654 C10.9619884,10.0792153 10.9046465,10.1863701 10.848817,10.2944331 L10.8864801,10.2219758 C10.6581079,10.6570616 10.45433,11.1071213 10.2770013,11.5702977 C10.2686298,11.5923111 10.2601228,11.6147196 10.2516778,11.6371584 L10.2770013,11.5702977 C10.2520141,11.6355632 10.2275522,11.7010891 10.2036205,11.7668702 L10.2516778,11.6371584 C10.199075,11.7769265 10.1488763,11.9178721 10.1011321,12.0599449 C10.0758346,12.1350895 10.0512631,12.210572 10.027386,12.2863632 L10.1011321,12.0599449 C10.0628025,12.1740027 10.0260549,12.2887869 9.99091527,12.4042714 L10.027386,12.2863632 C9.99784428,12.3801348 9.96936551,12.4743788 9.94196382,12.569081 L9.99091527,12.4042714 C9.9560185,12.5189579 9.92270762,12.6343352 9.89100817,12.7503776 L9.94196382,12.569081 C9.90848707,12.684779 9.87661793,12.8011608 9.84638228,12.9182005 L9.89100817,12.7503776 C9.86195981,12.8567151 9.83426461,12.9636112 9.80794224,13.0710463 L9.84638228,12.9182005 C9.7777324,13.1839386 9.71750333,13.4530684 9.66599767,13.725287 C9.65903933,13.762132 9.65228212,13.7987341 9.64568291,13.8353911 L9.66599767,13.725287 C9.64376448,13.8427942 9.62315676,13.9608769 9.60419886,14.0795109 L9.64568291,13.8353911 C9.62518589,13.949247 9.60621303,14.0636323 9.58878622,14.178525 L9.60419886,14.0795109 C9.56103369,14.3496279 9.52642157,14.6226023 9.50064981,14.8981465 C9.49811855,14.9252409 9.49571781,14.9518217 9.49339946,14.9784261 L9.50064981,14.8981465 C9.49038759,15.0078672 9.4815271,15.1179953 9.47408648,15.2285128 L9.49339946,14.9784261 C9.48292481,15.0986287 9.47413191,15.2193129 9.46704443,15.3404552 L9.47408648,15.2285128 C9.45490659,15.5133966 9.44516129,15.8008672 9.44516129,16.0906132 L9.44989154,16.4398712 C9.45086811,16.4758824 9.45199524,16.511856 9.45327233,16.5477914 C9.46174816,16.7864953 9.47687617,17.0239011 9.49846375,17.2594379 C9.50280003,17.306743 9.50737952,17.3538043 9.51221627,17.4007894 C9.52136044,17.4896371 9.53145994,17.5784966 9.54247554,17.6670718 L9.51221627,17.4007894 C9.5257311,17.5320745 9.54125453,17.6627642 9.55875533,17.7928269 L9.54247554,17.6670718 C9.55559493,17.7725633 9.57001374,17.8776516 9.58571546,17.9823201 L9.55875533,17.7928269 C9.57492309,17.9129828 9.59277846,18.0326037 9.6122968,18.151665 L9.58571546,17.9823201 C9.61221295,18.1589538 9.64236395,18.3343921 9.67608907,18.5085556 L9.6122968,18.151665 C9.63388863,18.2833745 9.65751553,18.4143993 9.68314414,18.5447059 L9.67608907,18.5085556 C9.70076361,18.63598 9.72735136,18.762722 9.75582122,18.8887505 L9.68314414,18.5447059 C9.71157124,18.6892411 9.74246107,18.8328928 9.77576812,18.9756154 L9.75582122,18.8887505 C9.78094122,18.9999501 9.80752647,19.1105942 9.83555563,19.2206615 L9.77576812,18.9756154 C9.80392749,19.0962799 9.83381465,19.2162803 9.86540209,19.3355891 L9.83555563,19.2206615 C9.8716531,19.3624121 9.91014538,19.503206 9.95098686,19.6429975 L9.86540209,19.3355891 C9.90167332,19.4725891 9.94018646,19.6086771 9.98089987,19.7438117 L9.95098686,19.6429975 C9.9880286,19.7697835 10.0270027,19.8957449 10.0678753,20.0208477 L9.98089987,19.7438117 C10.0222057,19.8809126 10.0657763,20.0170321 10.1115682,20.1521266 L10.0678753,20.0208477 C10.1022061,20.1259278 10.1378762,20.2304021 10.1748656,20.3342505 L10.1115682,20.1521266 C10.1490229,20.2626249 10.1879637,20.3724374 10.2283667,20.4815404 C10.3638129,20.847261 10.5155269,21.2046701 10.6827463,21.5532281 C13.6284658,22.4038735 20.6638447,23.9165891 25.1702512,20.6138951 C27.5345902,18.8807626 27.8230575,16.3369092 27.8345077,15.2918946 L27.8340926,15.1278626 C27.830816,14.9298792 27.818437,14.8170975 27.818437,14.8170975 C27.7681086,12.1026839 26.1155253,9.40645161 26.1155253,9.40645161 C31.0393387,13.8607714 29.9604743,18.6938384 29.1870003,20.7100404 L29.1096404,20.9052429 C29.0287703,21.1028354 28.9540098,21.266008 28.8934104,21.3906818 L28.8141386,21.5483086 C28.7697132,21.6334639 28.7434748,21.6780809 28.7434748,21.6780809 C26.991639,25.2561834 23.4076117,27.5565796 20.2491862,28.602126 C20.4246283,28.628008 20.6009821,28.6499666 20.7784242,28.6682561 C20.8922033,28.6802793 21.006905,28.6904611 21.1220329,28.6991217 L20.7784242,28.6682561 C20.907743,28.6815854 21.0376398,28.692966 21.1680848,28.7023678 L21.1220329,28.6991217 C21.2588345,28.7094127 21.3962379,28.7175558 21.5342112,28.7235043 L21.1680848,28.7023678 C21.3500351,28.715482 21.5330519,28.7247465 21.7170541,28.7300804 L21.5342112,28.7235043 C21.7185894,28.7314536 21.9039853,28.7354839 22.0903226,28.7354839 C29.0740783,28.7354839 34.7354839,23.0742059 34.7354839,16.0906132 L34.735,16.08 L34.7299829,15.7140056 C34.7288985,15.6773573 34.7278323,15.6453964 34.7266477,15.6134657 L34.7298352,15.7089889 C34.7268514,15.6083256 34.7226911,15.5079577 34.7173677,15.4078985 L34.7266477,15.6134657 C34.7218667,15.4845906 34.7151571,15.3562083 34.7065468,15.2283467 L34.7173677,15.4078985 C34.710745,15.28342 34.7023221,15.1594191 34.6921246,15.0359215 L34.7065468,15.2283467 C34.6991203,15.1180657 34.69028,15.0081721 34.6800437,14.898684 L34.6921246,15.0359215 C34.6606892,14.6552235 34.6123896,14.2793072 34.5479747,13.9089214 C34.5394734,13.8600267 34.530594,13.8107059 34.5214295,13.7614853 L34.5479747,13.9089214 C34.5270624,13.7886755 34.5044515,13.6690126 34.4801678,13.5499582 L34.5214295,13.7614853 C34.502145,13.6579123 34.481598,13.5547831 34.4598051,13.4521143 L34.4801678,13.5499582 C34.4549275,13.426214 34.4278798,13.3031273 34.3990537,13.1807267 L34.4598051,13.4521143 C34.4359829,13.3398854 34.4106721,13.2282066 34.3838941,13.1170995 L34.3990537,13.1807267 C34.3446071,12.9495373 34.2838155,12.7207959 34.2168729,12.4946965 C34.205713,12.4570062 34.1944459,12.4195972 34.1830106,12.3822616 L34.2168729,12.4946965 C34.1816898,12.3758653 34.1448077,12.2577638 34.1062546,12.1404203 L34.1830106,12.3822616 C34.1525963,12.282961 34.1209924,12.1841802 34.0882157,12.0859359 L34.1062546,12.1404203 C34.0716342,12.0350464 34.0356663,11.9302837 33.9983714,11.8261526 L34.0882157,12.0859359 C34.0513283,11.9753706 34.0129555,11.8654847 33.9731207,11.756302 L33.9983714,11.8261526 C33.9613859,11.7228854 33.9230953,11.6202394 33.8835194,11.5182343 L33.9731207,11.756302 C33.8747835,11.4867706 33.7675375,11.2215243 33.6517391,10.9609195 C33.6311685,10.9146277 33.610432,10.868709 33.5894302,10.8229372 L33.6517391,10.9609195 C33.6229047,10.8960277 33.5935401,10.8314236 33.5636507,10.7671128 L33.5894302,10.8229372 C33.5393989,10.7138975 33.4878622,10.605692 33.4348469,10.4983473 L33.5636507,10.7671128 C33.506407,10.6439461 33.4472385,10.5218552 33.3861839,10.4008787 L33.4348469,10.4983473 C33.3861328,10.3997115 33.3361702,10.3018024 33.2849797,10.2046408 L33.3861839,10.4008787 C33.3352216,10.2998997 33.2829452,10.1996972 33.229377,10.1002936 C33.1545335,9.96141024 33.0771685,9.82408644 32.9973433,9.6883835 C32.9718177,9.64499372 32.9462934,9.60218805 32.9205245,9.55954684 L32.9973433,9.6883835 C32.9549292,9.61627939 32.9118205,9.54463289 32.8680265,9.47345318 L32.9205245,9.55954684 C32.8569634,9.45436926 32.7919136,9.35019227 32.7254042,9.24704508 C32.7141945,9.22965932 32.7027594,9.21202063 32.6912817,9.19441231 L32.7254042,9.24704508 C32.669451,9.16026907 32.6124647,9.0742219 32.5544628,8.98892098 L32.6912817,9.19441231 C32.6362083,9.10992294 32.5801523,9.02613261 32.5231299,8.94305754 L32.5544628,8.98892098 C32.4239193,8.79693646 32.2882311,8.60873203 32.1475964,8.42450596 C32.1021349,8.36495966 32.0565709,8.30635224 32.0105057,8.24815966 L32.1475964,8.42450596 C32.0866575,8.3446784 32.0247899,8.26559782 31.9620096,8.18728035 L32.0105057,8.24815966 C31.9555759,8.17876871 31.8999336,8.10996761 31.8435897,8.04176741 L31.9620096,8.18728035 C31.8793098,8.08411358 31.7950264,7.98227099 31.7091962,7.88178946 L31.8435897,8.04176741 C31.7895055,7.97630228 31.7347749,7.91139082 31.6794077,7.84704281 C31.1239772,7.87933634 30.5037578,7.89413983 29.8639937,7.8731411 C29.8639937,7.8731411 29.4841183,7.89088117 28.9066137,7.94994995 L28.573107,7.98640977 C27.4033888,8.12255011 25.6898907,8.40949228 24.5280078,8.98901625 C24.5280078,8.98901625 23.0983917,9.62648679 21.6693528,10.7073288 C21.6693528,10.7073288 21.6642565,10.7098765 21.655417,10.7155249 L21.6469553,10.7211386 C21.5770905,10.7691299 21.3685147,10.9517899 21.380736,11.41602 C21.3936439,11.9713734 21.0897668,13.4519222 20.0772427,14.3196968 C20.0772427,14.3196968 19.3545159,14.6912704 19.7158749,15.223073 C19.7158749,15.223073 20.2039514,15.9317643 20.8914877,15.1874627 C20.8914877,15.1874627 22.6642816,13.3634823 22.7728092,10.4241951 C22.7728092,10.4241951 23.333628,9.94523081 24.2194346,9.80395256 C24.2194346,9.80395256 24.3825232,14.2134517 22.1943863,16.4273881 C22.1943863,16.4273881 22.1906175,16.4314927 22.183349,16.4390934 L22.1513137,16.4717747 C21.8503441,16.7724317 20.0561121,18.4077931 19.4442675,15.3293181 C19.4442675,15.3293181 18.6300225,12.1235569 22.8273615,8.31650381 L22.8906996,8.25348168 C23.1410963,8.00482298 24.099942,7.05717746 25.1559992,6.07263379 L25.5317665,5.72469378 C26.0355173,5.2616059 26.5448712,4.80759642 26.9961291,4.43166378 L26.9348062,4.40643362 C26.8035313,4.35193903 26.67114,4.29959248 26.5376761,4.24943781 C26.4572293,4.2189407 26.3758157,4.18931654 26.2940184,4.16050904 L26.5376761,4.24943781 C26.4307337,4.20924973 26.3231027,4.17046895 26.2148055,4.13311805 L26.2940184,4.16050904 C26.1537261,4.11110068 26.0123052,4.06409466 25.8698047,4.01954054 L26.2148055,4.13311805 C26.0666304,4.08201354 25.9172083,4.03358582 25.766597,3.98789269 L25.8698047,4.01954054 C25.7574347,3.98440698 25.6443933,3.95079808 25.5307045,3.91873813 L25.766597,3.98789269 C25.6420024,3.9500926 25.5165939,3.91416395 25.3904043,3.88013945 L25.5307045,3.91873813 C25.370218,3.87348131 25.2084415,3.8313111 25.0454426,3.79229583 L25.3904043,3.88013945 C25.2656717,3.84650781 25.1401759,3.8147366 25.0139486,3.78485743 L25.0454426,3.79229583 C24.9206102,3.76241607 24.7950609,3.73438677 24.668825,3.70823862 L25.0139486,3.78485743 C24.8733956,3.75158727 24.7319356,3.72066297 24.5896121,3.69212816 L24.668825,3.70823862 C24.3992733,3.65240447 24.1265909,3.60514745 23.8510732,3.5667665 C23.802549,3.56001817 23.7546689,3.55362927 23.7067049,3.5475091 L23.8510732,3.5667665 C23.7365502,3.55081289 23.6215374,3.53639287 23.5060558,3.52352789 L23.7067049,3.5475091 C23.5777904,3.53105972 23.4482695,3.51655157 23.3181724,3.50401487 L23.5060558,3.52352789 C23.1938601,3.48874837 22.8782391,3.46533393 22.5596119,3.45370872 C22.5389849,3.45295559 22.5179457,3.45223912 22.4968937,3.45157411 L22.0903226,3.44516129 Z" id="形状结合" fill="url(#linearGradient-3)" fill-rule="nonzero"></path>
            <path d="M3,16 L41,16 L41,34.75 C41,37.6494949 38.6494949,40 35.75,40 L8.25,40 C5.35050506,40 3,37.6494949 3,34.75 L3,16 L3,16 Z" id="矩形" fill="url(#linearGradient-4)"></path>
            <path d="M42,15 L42,34.75 C42,38.2017797 39.2017797,41 35.75,41 L8.25,41 C4.79822031,41 2,38.2017797 2,34.75 L2,16 L2,15 L3,15 L42,15 Z M41,16 L3,16 L3,34.75 C3,37.6494949 5.35050506,40 8.25,40 L35.75,40 C38.6494949,40 41,37.6494949 41,34.75 L41,16 Z" id="矩形" fill="url(#linearGradient-5)" fill-rule="nonzero"></path>
            <g transform="translate(22.7851, 28.3003) scale(-1, 1) translate(-22.7851, -28.3003)translate(16, 21.6007)" fill-rule="nonzero" id="矩形">
                <rect fill="#00AFFF" x="8.57025569" y="1.39930153" width="5" height="5" rx="0.75"></rect>
                <rect fill="#FF3900" x="8.57025569" y="8.39930153" width="5" height="5" rx="0.75"></rect>
                <rect fill="#3CC700" x="1.57025569" y="8.39930153" width="5" height="5" rx="0.75"></rect>
                <path d="M3.38206901,0.900664737 L5.96789074,2.39358961 C6.32661021,2.60069639 6.44951657,3.05938919 6.24240979,3.41810866 L4.78296141,5.9459474 C4.57585463,6.30466687 4.11716183,6.42757324 3.75844236,6.22046646 L1.17262063,4.72754159 C0.813901166,4.52043481 0.6909948,4.061742 0.898101581,3.70302253 L2.35754996,1.17518379 C2.56465674,0.816464322 3.02334955,0.693557956 3.38206901,0.900664737 Z" fill="#FFD500" transform="translate(3.5703, 3.5606) rotate(11) translate(-3.5703, -3.5606)"></path>
            </g>
            <g id="矩形">
                <use fill="black" fill-opacity="1" filter="url(#filter-7)" xlink:href="#path-6"></use>
                <use fill="#EBEBEB" fill-rule="evenodd" xlink:href="#path-6"></use>
            </g>
        </g>
        <g id="Guide/48" transform="translate(1.5, 1.5)"></g>
    </g>
</svg>