<?xml version="1.0" encoding="UTF-8"?>
<svg width="48px" height="48px" viewBox="0 0 48 48" version="1.1" xmlns="http://www.w3.org/2000/svg" xmlns:xlink="http://www.w3.org/1999/xlink">
    <title>apps/48/deepin-music</title>
    <defs>
        <filter x="-8.0%" y="-6.3%" width="115.9%" height="117.5%" filterUnits="objectBoundingBox" id="filter-1">
            <feOffset dx="0" dy="1" in="SourceAlpha" result="shadowOffsetOuter1"></feOffset>
            <feGaussianBlur stdDeviation="1" in="shadowOffsetOuter1" result="shadowBlurOuter1"></feGaussianBlur>
            <feColorMatrix values="0 0 0 0 0   0 0 0 0 0   0 0 0 0 0  0 0 0 0.2 0" type="matrix" in="shadowBlurOuter1" result="shadowMatrixOuter1"></feColorMatrix>
            <feMerge>
                <feMergeNode in="shadowMatrixOuter1"></feMergeNode>
                <feMergeNode in="SourceGraphic"></feMergeNode>
            </feMerge>
        </filter>
        <linearGradient x1="98.0163112%" y1="38.451407%" x2="0%" y2="41.8451878%" id="linearGradient-2">
            <stop stop-color="#0BA186" offset="0%"></stop>
            <stop stop-color="#68C639" offset="100%"></stop>
        </linearGradient>
        <linearGradient x1="50%" y1="0%" x2="50%" y2="98.0310694%" id="linearGradient-3">
            <stop stop-color="#8DF34C" offset="0%"></stop>
            <stop stop-color="#00CCB3" offset="100%"></stop>
        </linearGradient>
        <linearGradient x1="50%" y1="0%" x2="50%" y2="100%" id="linearGradient-4">
            <stop stop-color="#FFFFFF" offset="0%"></stop>
            <stop stop-color="#FFFFFF" stop-opacity="0.7" offset="100%"></stop>
        </linearGradient>
    </defs>
    <g id="apps/48/deepin-music" stroke="none" stroke-width="1" fill="none" fill-rule="evenodd">
        <g id="6-music" filter="url(#filter-1)" transform="translate(2, 4)">
            <circle id="circle13330" stroke="url(#linearGradient-2)" fill="#151E25" transform="translate(26, 20) rotate(-270) translate(-26, -20)" cx="26" cy="20" r="17.5"></circle>
            <path d="M7.6916556,-3.10752092e-16 L28.3083444,3.10752092e-16 C30.9829006,-1.80555915e-16 31.9527593,0.278476833 32.9305371,0.801398111 C33.9083149,1.32431939 34.6756806,2.09168511 35.1986019,3.06946289 C35.7215232,4.04724067 36,5.01709938 36,7.6916556 L36,32.3083444 C36,34.9829006 35.7215232,35.9527593 35.1986019,36.9305371 C34.6756806,37.9083149 33.9083149,38.6756806 32.9305371,39.1986019 C31.9527593,39.7215232 30.9829006,40 28.3083444,40 L7.6916556,40 C5.01709938,40 4.04724067,39.7215232 3.06946289,39.1986019 C2.09168511,38.6756806 1.32431939,37.9083149 0.801398111,36.9305371 C0.278476833,35.9527593 -7.6780781e-16,34.9829006 -1.09534648e-15,32.3083444 L2.07168062e-16,7.6916556 C-1.2037061e-16,5.01709938 0.278476833,4.04724067 0.801398111,3.06946289 C1.32431939,2.09168511 2.09168511,1.32431939 3.06946289,0.801398111 C4.04724067,0.278476833 5.01709938,1.80555915e-16 7.6916556,-3.10752092e-16 Z" id="Rectangle" fill="url(#linearGradient-3)"></path>
            <path d="M26.9486166,10.0619133 C26.9827985,10.2442171 27,10.4292981 27,10.6147789 L27,26 C27,28.209139 25.209139,30 23,30 C20.790861,30 19,28.209139 19,26 C19,23.790861 20.790861,22 23,22 C23.7290322,22 24.4125119,22.1950335 25.0011092,22.5357707 L25,12.5799263 C25,12.0276415 24.5522847,11.5799263 24,11.5799263 C23.9381731,11.5799263 23.8764794,11.5856601 23.8157115,11.5970541 L13.8157115,13.4720541 C13.3427386,13.5607365 13,13.9737112 13,14.4549263 L13,30 C13,32.209139 11.209139,34 9,34 C6.790861,34 5,32.209139 5,30 C5,27.790861 6.790861,26 9,26 C9.7290322,26 10.4125119,26.1950335 11.0011092,26.5357707 L11,12.4897789 C11,11.0461337 12.0282157,9.80720956 13.4471344,9.5411623 L23.4471344,7.6661623 C25.0756104,7.36082306 26.6432773,8.4334373 26.9486166,10.0619133 Z" id="路径" fill="url(#linearGradient-4)"></path>
            <path d="M26.9486166,10.0619133 C26.9827985,10.2442171 27,10.4292981 27,10.6147789 L27,26 C27,28.209139 25.209139,30 23,30 C20.790861,30 19,28.209139 19,26 C19,23.790861 20.790861,22 23,22 C23.7290322,22 24.4125119,22.1950335 25.0011092,22.5357707 L25,12.5799263 C25,12.0276415 24.5522847,11.5799263 24,11.5799263 C23.9381731,11.5799263 23.8764794,11.5856601 23.8157115,11.5970541 L13.8157115,13.4720541 C13.3427386,13.5607365 13,13.9737112 13,14.4549263 L13,30 C13,32.209139 11.209139,34 9,34 C6.790861,34 5,32.209139 5,30 C5,27.790861 6.790861,26 9,26 C9.7290322,26 10.4125119,26.1950335 11.0011092,26.5357707 L11,12.4897789 C11,11.0461337 12.0282157,9.80720956 13.4471344,9.5411623 L23.4471344,7.6661623 C25.0756104,7.36082306 26.6432773,8.4334373 26.9486166,10.0619133 Z M9,27 C7.34314575,27 6,28.3431458 6,30 C6,31.6568542 7.34314575,33 9,33 C10.5976809,33 11.9036609,31.75108 11.9949073,30.1762728 L12,30 L12,28.269 L10.5001057,27.4012159 C10.1126979,27.1769467 9.6806755,27.0423681 9.2279672,27.008494 L9,27 Z M23,23 C21.3431458,23 20,24.3431458 20,26 C20,27.6568542 21.3431458,29 23,29 C24.5976809,29 25.9036609,27.75108 25.9949073,26.1762728 L26,26 L26,24.269 L24.5001057,23.4012159 C24.1126979,23.1769467 23.6806755,23.0423681 23.2279672,23.008494 L23,23 Z M25.9657444,10.2462018 C25.7714376,9.20989891 24.8103449,8.51124757 23.7791397,8.62691893 L23.6314229,8.64903449 L13.6314229,10.5240345 C12.7380297,10.6915457 12.076968,11.4375784 12.0062741,12.3306588 L12,12.4896999 L12,14.4549263 C12,13.5459645 12.6114287,12.7587401 13.4762499,12.5246603 L13.6314229,12.4891819 L23.6314229,10.6141819 C23.7529588,10.5913939 23.8763462,10.5799263 24,10.5799263 C25.0543618,10.5799263 25.9181651,11.3958041 25.9945143,12.430567 L26,12.5798149 L26,10.6147789 C26,10.532343 25.9949033,10.4500255 25.9847535,10.3682961 L25.9657444,10.2462018 Z" id="Combined-Shape" fill-opacity="0.3" fill="#FFFFFF" fill-rule="nonzero"></path>
        </g>
        <g id="Guide/48" transform="translate(1.5, 1.5)"></g>
    </g>
</svg>