<?xml version="1.0" encoding="UTF-8"?>
<svg width="48px" height="48px" viewBox="0 0 48 48" version="1.1" xmlns="http://www.w3.org/2000/svg" xmlns:xlink="http://www.w3.org/1999/xlink">
    <title>apps/48/deepin-screen-recorder</title>
    <defs>
        <filter x="-8.0%" y="-6.8%" width="115.9%" height="118.9%" filterUnits="objectBoundingBox" id="filter-1">
            <feOffset dx="0" dy="1" in="SourceAlpha" result="shadowOffsetOuter1"></feOffset>
            <feGaussianBlur stdDeviation="1" in="shadowOffsetOuter1" result="shadowBlurOuter1"></feGaussianBlur>
            <feColorMatrix values="0 0 0 0 0   0 0 0 0 0   0 0 0 0 0  0 0 0 0.2 0" type="matrix" in="shadowBlurOuter1" result="shadowMatrixOuter1"></feColorMatrix>
            <feMerge>
                <feMergeNode in="shadowMatrixOuter1"></feMergeNode>
                <feMergeNode in="SourceGraphic"></feMergeNode>
            </feMerge>
        </filter>
        <linearGradient x1="50%" y1="0%" x2="50%" y2="96.1072977%" id="linearGradient-2">
            <stop stop-color="#F0EDFF" offset="0%"></stop>
            <stop stop-color="#BBA7F6" offset="100%"></stop>
        </linearGradient>
        <path d="M39.2071748,20 L39.2071748,26 L32,26 L32,20 L39.2071748,20 Z M6,26 L0,26 L0,20 L6,20 L6,26 L6,26 Z M32,0 L38,0 L38,6 L32,6 L32,0 Z M6,0 L6,6 L0,6 L0,0 L6,0 L6,0 Z" id="path-3"></path>
        <linearGradient x1="39.2766806%" y1="15.3036106%" x2="39.2766806%" y2="105.982476%" id="linearGradient-5">
            <stop stop-color="#6B6386" offset="0%"></stop>
            <stop stop-color="#302B42" offset="72.1020361%"></stop>
            <stop stop-color="#72639E" offset="100%"></stop>
        </linearGradient>
        <circle id="path-6" cx="12" cy="12" r="12"></circle>
        <filter x="-8.3%" y="-4.2%" width="116.7%" height="116.7%" filterUnits="objectBoundingBox" id="filter-7">
            <feOffset dx="0" dy="1" in="SourceAlpha" result="shadowOffsetOuter1"></feOffset>
            <feGaussianBlur stdDeviation="0.5" in="shadowOffsetOuter1" result="shadowBlurOuter1"></feGaussianBlur>
            <feColorMatrix values="0 0 0 0 0   0 0 0 0 0   0 0 0 0 0  0 0 0 0.3 0" type="matrix" in="shadowBlurOuter1"></feColorMatrix>
        </filter>
        <linearGradient x1="50%" y1="0%" x2="50%" y2="100%" id="linearGradient-8">
            <stop stop-color="#FFFFFF" stop-opacity="0.15" offset="0%"></stop>
            <stop stop-color="#000000" stop-opacity="0.328238225" offset="100%"></stop>
        </linearGradient>
        <radialGradient cx="50%" cy="91.2430015%" fx="50%" fy="91.2430015%" r="23.4635754%" gradientTransform="translate(0.5, 0.9124), rotate(90), scale(1, 1.5718), translate(-0.5, -0.9124)" id="radialGradient-9">
            <stop stop-color="#8462FF" offset="0%"></stop>
            <stop stop-color="#232129" offset="100%"></stop>
        </radialGradient>
        <radialGradient cx="50%" cy="50%" fx="50%" fy="50%" r="50%" id="radialGradient-10">
            <stop stop-color="#F53E84" offset="0%"></stop>
            <stop stop-color="#4F2CA2" offset="100%"></stop>
        </radialGradient>
        <linearGradient x1="100%" y1="27.8491143%" x2="0%" y2="67.6686712%" id="linearGradient-11">
            <stop stop-color="#4B003F" offset="0%"></stop>
            <stop stop-color="#33036D" offset="14.5887885%"></stop>
            <stop stop-color="#C30B9D" offset="51.4479904%"></stop>
            <stop stop-color="#591A85" offset="80.60535%"></stop>
            <stop stop-color="#470437" offset="100%"></stop>
        </linearGradient>
        <linearGradient x1="50%" y1="0%" x2="50%" y2="50%" id="linearGradient-12">
            <stop stop-color="#FFEEEE" stop-opacity="0.850033967" offset="0%"></stop>
            <stop stop-color="#FF578A" stop-opacity="0.7" offset="100%"></stop>
        </linearGradient>
    </defs>
    <g id="apps/48/deepin-screen-recorder" stroke="none" stroke-width="1" fill="none" fill-rule="evenodd">
        <g id="9-screenshot" filter="url(#filter-1)" transform="translate(2, 6)">
            <g id="Group-9">
                <path d="M10.0813636,2.70486767 L10.2744126,2.29513233 L10.2744126,2.29513233 C10.9345276,0.894075958 12.3441193,-8.8817842e-16 13.8928965,-8.8817842e-16 L30.1071035,-8.8817842e-16 C31.6558807,-8.8817842e-16 33.0654724,0.894075958 33.7255874,2.29513233 L33.9186364,2.70486767 C34.5787514,4.10592404 35.9883431,5 37.5371204,5 L38,5 L38,5 C41.3137085,5 44,7.6862915 44,11 L44,31 C44,34.3137085 41.3137085,37 38,37 L6,37 C2.6862915,37 0,34.3137085 0,31 L0,11 C0,7.6862915 2.6862915,5 6,5 L6.46287965,5 C8.01165685,5 9.42124857,4.10592404 10.0813636,2.70486767 Z" id="Path" fill="url(#linearGradient-2)"></path>
                <g id="框" transform="translate(3, 8)">
                    <mask id="mask-4" fill="white">
                        <use xlink:href="#path-3"></use>
                    </mask>
                    <g id="Mask"></g>
                    <path d="M35,0.5 C35.6903559,0.5 36.3153559,0.779822031 36.767767,1.23223305 C37.220178,1.68464406 37.5,2.30964406 37.5,3 L37.5,23 C37.5,23.6903559 37.220178,24.3153559 36.767767,24.767767 C36.3153559,25.220178 35.6903559,25.5 35,25.5 L3,25.5 C2.30964406,25.5 1.68464406,25.220178 1.23223305,24.767767 C0.779822031,24.3153559 0.5,23.6903559 0.5,23 L0.5,3 C0.5,2.30964406 0.779822031,1.68464406 1.23223305,1.23223305 C1.68464406,0.779822031 2.30964406,0.5 3,0.5 Z" id="Rectangle" stroke-opacity="0.4" stroke="#000000" mask="url(#mask-4)"></path>
                </g>
                <circle id="Oval" fill="#FF5555" cx="37" cy="12" r="1"></circle>
                <path d="M37,10.5 C37.8284271,10.5 38.5,11.1715729 38.5,12 C38.5,12.8284271 37.8284271,13.5 37,13.5 C36.1715729,13.5 35.5,12.8284271 35.5,12 C35.5,11.1715729 36.1715729,10.5 37,10.5 Z M37,11.5 C36.7238576,11.5 36.5,11.7238576 36.5,12 C36.5,12.2761424 36.7238576,12.5 37,12.5 C37.2761424,12.5 37.5,12.2761424 37.5,12 C37.5,11.7238576 37.2761424,11.5 37,11.5 Z" id="Oval" fill="#D51818" fill-rule="nonzero"></path>
                <g id="Group-6" transform="translate(10, 9)">
                    <g id="Oval">
                        <use fill="black" fill-opacity="1" filter="url(#filter-7)" xlink:href="#path-6"></use>
                        <use fill="url(#linearGradient-5)" fill-rule="evenodd" xlink:href="#path-6"></use>
                    </g>
                    <path d="M12,0 C18.627417,0 24,5.372583 24,12 C24,18.627417 18.627417,24 12,24 C5.372583,24 0,18.627417 0,12 C0,5.372583 5.372583,0 12,0 Z M12,1 C5.92486775,1 1,5.92486775 1,12 C1,18.0751322 5.92486775,23 12,23 C18.0751322,23 23,18.0751322 23,12 C23,5.92486775 18.0751322,1 12,1 Z" id="Oval" fill="url(#linearGradient-8)" fill-rule="nonzero"></path>
                    <circle id="Oval" fill="url(#radialGradient-9)" cx="12" cy="12" r="8"></circle>
                    <path d="M12,3 C16.9705627,3 21,7.02943725 21,12 C21,16.9705627 16.9705627,21 12,21 C7.02943725,21 3,16.9705627 3,12 C3,7.02943725 7.02943725,3 12,3 Z M12,4 C7.581722,4 4,7.581722 4,12 C4,16.418278 7.581722,20 12,20 C16.418278,20 20,16.418278 20,12 C20,7.581722 16.418278,4 12,4 Z" id="Oval" fill="#000000" fill-rule="nonzero"></path>
                    <path d="M12,4 C16.418278,4 20,7.581722 20,12 C20,16.418278 16.418278,20 12,20 C7.581722,20 4,16.418278 4,12 C4,7.581722 7.581722,4 12,4 Z M12,5 C8.13400675,5 5,8.13400675 5,12 C5,15.8659932 8.13400675,19 12,19 C15.8659932,19 19,15.8659932 19,12 C19,8.13400675 15.8659932,5 12,5 Z" id="Oval" fill-opacity="0.05" fill="#FFFFFF" fill-rule="nonzero"></path>
                    <circle id="Oval" fill="url(#radialGradient-10)" cx="12" cy="12" r="5"></circle>
                    <path d="M12,6 C15.3137085,6 18,8.6862915 18,12 C18,15.3137085 15.3137085,18 12,18 C8.6862915,18 6,15.3137085 6,12 C6,8.6862915 8.6862915,6 12,6 Z M12,7 C9.23857625,7 7,9.23857625 7,12 C7,14.7614237 9.23857625,17 12,17 C14.7614237,17 17,14.7614237 17,12 C17,9.23857625 14.7614237,7 12,7 Z" id="Oval" fill="#080808" fill-rule="nonzero"></path>
                    <circle id="Oval" fill="url(#linearGradient-11)" cx="12" cy="12" r="3.5"></circle>
                    <circle id="Oval" fill="#38000E" cx="12" cy="12" r="2.5"></circle>
                    <ellipse id="Oval" fill="url(#linearGradient-12)" opacity="0.5" cx="11.5" cy="9" rx="4.5" ry="4"></ellipse>
                </g>
            </g>
        </g>
        <g id="Guide/48" transform="translate(1.5, 1.5)"></g>
    </g>
</svg>