<?xml version="1.0" encoding="UTF-8"?>
<svg width="48px" height="48px" viewBox="0 0 48 48" version="1.1" xmlns="http://www.w3.org/2000/svg" xmlns:xlink="http://www.w3.org/1999/xlink">
    <title>apps/48/desktop-ai-assistant</title>
    <defs>
        <filter x="-8.0%" y="-5.7%" width="115.9%" height="115.9%" filterUnits="objectBoundingBox" id="filter-1">
            <feOffset dx="0" dy="1" in="SourceAlpha" result="shadowOffsetOuter1"></feOffset>
            <feGaussianBlur stdDeviation="1" in="shadowOffsetOuter1" result="shadowBlurOuter1"></feGaussianBlur>
            <feColorMatrix values="0 0 0 0 0   0 0 0 0 0   0 0 0 0 0  0 0 0 0.2 0" type="matrix" in="shadowBlurOuter1" result="shadowMatrixOuter1"></feColorMatrix>
            <feMerge>
                <feMergeNode in="shadowMatrixOuter1"></feMergeNode>
                <feMergeNode in="SourceGraphic"></feMergeNode>
            </feMerge>
        </filter>
        <radialGradient cx="41.8617554%" cy="21.3439674%" fx="41.8617554%" fy="21.3439674%" r="63.6271182%" id="radialGradient-2">
            <stop stop-color="#FFFFFF" offset="0%"></stop>
            <stop stop-color="#B6E6FF" offset="100%"></stop>
        </radialGradient>
        <circle id="path-3" cx="22" cy="22" r="22"></circle>
        <linearGradient x1="0%" y1="14.5001163%" x2="50%" y2="100%" id="linearGradient-5">
            <stop stop-color="#0709B6" offset="0%"></stop>
            <stop stop-color="#0091A0" offset="100%"></stop>
        </linearGradient>
        <linearGradient x1="100%" y1="100%" x2="37.1226293%" y2="100%" id="linearGradient-6">
            <stop stop-color="#D4FF00" offset="0%"></stop>
            <stop stop-color="#0077FF" offset="100%"></stop>
        </linearGradient>
        <linearGradient x1="100%" y1="100%" x2="37.1226293%" y2="100%" id="linearGradient-7">
            <stop stop-color="#D4FF00" offset="0%"></stop>
            <stop stop-color="#0077FF" offset="100%"></stop>
        </linearGradient>
        <linearGradient x1="100%" y1="100%" x2="37.1226293%" y2="100%" id="linearGradient-8">
            <stop stop-color="#D4FF00" offset="0%"></stop>
            <stop stop-color="#0077FF" offset="100%"></stop>
        </linearGradient>
    </defs>
    <g id="apps/48/desktop-ai-assistant" stroke="none" stroke-width="1" fill="none" fill-rule="evenodd">
        <g id="circlebutton_voice" filter="url(#filter-1)" transform="translate(2, 2)">
            <mask id="mask-4" fill="white">
                <use xlink:href="#path-3"></use>
            </mask>
            <use id="蒙版" fill="url(#radialGradient-2)" xlink:href="#path-3"></use>
            <path d="M12,17 C12.5522847,17 13,17.4477153 13,18 L13,26 C13,26.5522847 12.5522847,27 12,27 C11.4477153,27 11,26.5522847 11,26 L11,18 C11,17.4477153 11.4477153,17 12,17 Z M22,11 C22.5522847,11 23,11.4477153 23,12 L23,32 C23,32.5522847 22.5522847,33 22,33 C21.4477153,33 21,32.5522847 21,32 L21,12 C21,11.4477153 21.4477153,11 22,11 Z M17,15 C17.5522847,15 18,15.4477153 18,16 L18,28 C18,28.5522847 17.5522847,29 17,29 C16.4477153,29 16,28.5522847 16,28 L16,16 C16,15.4477153 16.4477153,15 17,15 Z M32,18 C32.5522847,18 33,18.4477153 33,19 L33,25 C33,25.5522847 32.5522847,26 32,26 C31.4477153,26 31,25.5522847 31,25 L31,19 C31,18.4477153 31.4477153,18 32,18 Z M27,14 C27.5522847,14 28,14.4477153 28,15 L28,29 C28,29.5522847 27.5522847,30 27,30 C26.4477153,30 26,29.5522847 26,29 L26,15 C26,14.4477153 26.4477153,14 27,14 Z" id="形状结合" fill="url(#linearGradient-5)" mask="url(#mask-4)"></path>
            <path d="M22,10 C23.0543618,10 23.9181651,10.8158778 23.9945143,11.8507377 L24,12 L24,32 C24,33.1045695 23.1045695,34 22,34 C20.9456382,34 20.0818349,33.1841222 20.0054857,32.1492623 L20,32 L20,12 C20,10.8954305 20.8954305,10 22,10 Z M22,11 C21.4871642,11 21.0644928,11.3860402 21.0067277,11.8833789 L21,12 L21,32 C21,32.5128358 21.3860402,32.9355072 21.8833789,32.9932723 L22,33 L22.1166211,32.9932723 C22.575703,32.9399506 22.9399506,32.575703 22.9932723,32.1166211 L23,32 L23,12 C23,11.4477153 22.5522847,11 22,11 Z M27,13 C28.0543618,13 28.9181651,13.8158778 28.9945143,14.8507377 L29,15 L29,29 C29,30.1045695 28.1045695,31 27,31 C25.9456382,31 25.0818349,30.1841222 25.0054857,29.1492623 L25,29 L25,15 C25,13.8954305 25.8954305,13 27,13 Z M27,14 C26.4871642,14 26.0644928,14.3860402 26.0067277,14.8833789 L26,15 L26,29 C26,29.5128358 26.3860402,29.9355072 26.8833789,29.9932723 L27,30 L27.1166211,29.9932723 C27.575703,29.9399506 27.9399506,29.575703 27.9932723,29.1166211 L28,29 L28,15 C28,14.4477153 27.5522847,14 27,14 Z M17,14 C18.0543618,14 18.9181651,14.8158778 18.9945143,15.8507377 L19,16 L19,28 C19,29.1045695 18.1045695,30 17,30 C15.9456382,30 15.0818349,29.1841222 15.0054857,28.1492623 L15,28 L15,16 C15,14.8954305 15.8954305,14 17,14 Z M17,15 C16.4871642,15 16.0644928,15.3860402 16.0067277,15.8833789 L16,16 L16,28 C16,28.5128358 16.3860402,28.9355072 16.8833789,28.9932723 L17,29 L17.1166211,28.9932723 C17.575703,28.9399506 17.9399506,28.575703 17.9932723,28.1166211 L18,28 L18,16 C18,15.4477153 17.5522847,15 17,15 Z M12,16 C13.0543618,16 13.9181651,16.8158778 13.9945143,17.8507377 L14,18 L14,26 C14,27.1045695 13.1045695,28 12,28 C10.9456382,28 10.0818349,27.1841222 10.0054857,26.1492623 L10,26 L10,18 C10,16.8954305 10.8954305,16 12,16 Z M12,17 C11.4871642,17 11.0644928,17.3860402 11.0067277,17.8833789 L11,18 L11,26 C11,26.5128358 11.3860402,26.9355072 11.8833789,26.9932723 L12,27 L12.1166211,26.9932723 C12.575703,26.9399506 12.9399506,26.575703 12.9932723,26.1166211 L13,26 L13,18 C13,17.4477153 12.5522847,17 12,17 Z M32,17 C33.0543618,17 33.9181651,17.8158778 33.9945143,18.8507377 L34,19 L34,25 C34,26.1045695 33.1045695,27 32,27 C30.9456382,27 30.0818349,26.1841222 30.0054857,25.1492623 L30,25 L30,19 C30,17.8954305 30.8954305,17 32,17 Z M32,18 C31.4871642,18 31.0644928,18.3860402 31.0067277,18.8833789 L31,19 L31,25 C31,25.5128358 31.3860402,25.9355072 31.8833789,25.9932723 L32,26 L32.1166211,25.9932723 C32.575703,25.9399506 32.9399506,25.575703 32.9932723,25.1166211 L33,25 L33,19 C33,18.4477153 32.5522847,18 32,18 Z" id="形状结合" fill-opacity="0.5" fill="#FFFFFF" fill-rule="nonzero" mask="url(#mask-4)"></path>
            <path d="M42.5689805,29.82168 C39.4152981,38.1103695 31.3954475,44 22,44 C17.3421062,44 13.0223048,42.5524543 9.46591288,40.0826801 C21.028333,37.6049094 28.847182,32.9180164 42.3979408,29.859178 Z" id="形状结合" fill-opacity="0.5" fill="url(#linearGradient-6)" mask="url(#mask-4)"></path>
            <path d="M5.08436922,30.7051346 C13.0529992,30.2181405 17.6403593,31.5590306 22.1024975,33.1566488 L22.8668163,33.4327479 C26.9925035,34.9335255 31.170286,36.5772595 37.9801972,37.1189942 C33.9720037,41.3563267 28.2947333,44 22,44 C13.0520312,44 5.35174798,38.6580228 1.91435993,30.989278 C2.92323486,30.8683601 3.97830297,30.7726885 5.08436922,30.7051346 Z" id="形状结合" fill-opacity="0.5" fill="url(#linearGradient-7)" mask="url(#mask-4)"></path>
            <path d="M2.09537672,20.011887 C12.0771046,19.753416 18.5083781,23.7495197 24.6542148,28.1504581 L25.5102494,28.7667825 L26.7916665,29.6960377 C30.393655,32.3094929 34.028242,34.9081362 38.3599222,36.7084701 C34.334048,41.184747 28.4957928,44 22,44 C9.8497355,44 0,34.1502645 0,22 C0,21.3675017 0.0266914272,20.7412376 0.0790093489,20.1222725 C0.73701198,20.0667014 1.40882609,20.029637 2.09537672,20.011887 Z" id="形状结合" fill-opacity="0.5" fill="url(#linearGradient-8)" mask="url(#mask-4)"></path>
        </g>
        <g id="Guide/48" transform="translate(1.5, 1.5)"></g>
    </g>
</svg>