<svg xmlns="http://www.w3.org/2000/svg" width="48" height="48" viewBox="0 0 48 48">
  <defs>
    <filter id="iso定制工具-48px-a" width="131.2%" height="136.4%" x="-14.8%" y="-17.3%" filterUnits="objectBoundingBox">
      <feOffset dy="1" in="SourceAlpha" result="shadowOffsetOuter1"/>
      <feGaussianBlur in="shadowOffsetOuter1" result="shadowBlurOuter1" stdDeviation="1"/>
      <feColorMatrix in="shadowBlurOuter1" result="shadowMatrixOuter1" values="0 0 0 0 0   0 0 0 0 0   0 0 0 0 0  0 0 0 0.2 0"/>
      <feMerge>
        <feMergeNode in="shadowMatrixOuter1"/>
        <feMergeNode in="SourceGraphic"/>
      </feMerge>
    </filter>
    <linearGradient id="iso定制工具-48px-b" x1="50%" x2="50%" y1="0%" y2="100%">
      <stop offset="0%" stop-color="#4EFFD8"/>
      <stop offset="100%" stop-color="#00A29F"/>
    </linearGradient>
    <filter id="iso定制工具-48px-c" width="204.3%" height="182.8%" x="-52.2%" y="-41.4%" filterUnits="objectBoundingBox">
      <feOffset dy="1" in="SourceAlpha" result="shadowOffsetOuter1"/>
      <feGaussianBlur in="shadowOffsetOuter1" result="shadowBlurOuter1" stdDeviation="2.5"/>
      <feColorMatrix in="shadowBlurOuter1" result="shadowMatrixOuter1" values="0 0 0 0 0   0 0 0 0 0.4549649   0 0 0 0 0.409478353  0 0 0 0.3 0"/>
      <feMerge>
        <feMergeNode in="shadowMatrixOuter1"/>
        <feMergeNode in="SourceGraphic"/>
      </feMerge>
    </filter>
    <linearGradient id="iso定制工具-48px-d" x1="50%" x2="50%" y1="0%" y2="100%">
      <stop offset="0%" stop-color="#FFF"/>
      <stop offset="100%" stop-color="#CBFEF3"/>
    </linearGradient>
    <linearGradient id="iso定制工具-48px-e" x1="50%" x2="50%" y1="0%" y2="100%">
      <stop offset="0%" stop-color="#FFF"/>
      <stop offset="100%" stop-color="#CBFEF3"/>
    </linearGradient>
  </defs>
  <g fill="none" filter="url(#iso定制工具-48px-a)" transform="translate(2 2)">
    <circle cx="22" cy="22" r="22" fill="url(#iso定制工具-48px-b)"/>
    <g filter="url(#iso定制工具-48px-c)" transform="translate(12.75 7.875)">
      <path fill="url(#iso定制工具-48px-d)" d="M9.25,1.125 C16.4297017,1.125 22.25,6.94529826 22.25,14.125 C22.25,21.3047017 16.4297017,27.125 9.25,27.125 C8.91357969,27.125 8.58014407,27.112221 8.25015209,27.0871219 L8.24953311,26.0838877 C8.57941855,26.1111156 8.91308783,26.125 9.25,26.125 C15.877417,26.125 21.25,20.752417 21.25,14.125 C21.25,7.49758301 15.877417,2.125 9.25,2.125 C8.91308783,2.125 8.57941855,2.13888443 8.24953311,2.1661123 L8.25015209,1.16287806 C8.58014407,1.137779 8.91357969,1.125 9.25,1.125 Z M9.25,3.125 C15.3251322,3.125 20.25,8.04986776 20.25,14.125 C20.25,20.2001322 15.3251322,25.125 9.25,25.125 C8.91283461,25.125 8.57921222,25.1098306 8.2497781,25.080137 L8.24909608,19.0247983 C8.57248621,19.0905055 8.90721479,19.125 9.25,19.125 C12.0114237,19.125 14.25,16.8864238 14.25,14.125 C14.25,11.3635763 12.0114237,9.125 9.25,9.125 C8.90721479,9.125 8.57248621,9.15949451 8.24909608,9.22520169 L8.2497781,3.16986301 C8.57921222,3.14016942 8.91283461,3.125 9.25,3.125 Z"/>
      <path fill="url(#iso定制工具-48px-e)" d="M0.25,1.125 C0.25,0.57271525 0.69771525,0.125 1.25,0.125 L7.25,0.125 L7.25,28.125 L1.25,28.125 C0.69771525,28.125 0.25,27.6772847 0.25,27.125 L0.25,25.125 L2.375,25.125 C2.65114238,25.125 2.875,24.9011424 2.875,24.625 C2.875,24.3488576 2.65114238,24.125 2.375,24.125 L2.375,24.125 L0.25,24.125 L0.25,22.125 L2.375,22.125 C2.65114238,22.125 2.875,21.9011424 2.875,21.625 C2.875,21.3488576 2.65114238,21.125 2.375,21.125 L2.375,21.125 L0.25,21.125 L0.25,19.125 L2.375,19.125 C2.65114238,19.125 2.875,18.9011424 2.875,18.625 C2.875,18.3488576 2.65114238,18.125 2.375,18.125 L2.375,18.125 L0.25,18.125 L0.25,16.125 L4.625,16.125 C4.90114238,16.125 5.125,15.9011424 5.125,15.625 C5.125,15.3488576 4.90114238,15.125 4.625,15.125 L4.625,15.125 L0.25,15.125 L0.25,13.125 L2.375,13.125 C2.65114238,13.125 2.875,12.9011424 2.875,12.625 C2.875,12.3488576 2.65114238,12.125 2.375,12.125 L2.375,12.125 L0.25,12.125 L0.25,10.125 L2.375,10.125 C2.65114238,10.125 2.875,9.90114237 2.875,9.625 C2.875,9.34885763 2.65114238,9.125 2.375,9.125 L2.375,9.125 L0.25,9.125 L0.25,7.125 L2.375,7.125 C2.65114238,7.125 2.875,6.90114237 2.875,6.625 C2.875,6.34885763 2.65114238,6.125 2.375,6.125 L2.375,6.125 L0.25,6.125 L0.25,4.125 L4.625,4.125 C4.90114238,4.125 5.125,3.90114237 5.125,3.625 C5.125,3.34885763 4.90114238,3.125 4.625,3.125 L4.625,3.125 L0.25,3.125 L0.25,1.125 Z"/>
    </g>
  </g>
</svg>
