<svg xmlns="http://www.w3.org/2000/svg" xmlns:xlink="http://www.w3.org/1999/xlink" width="48" height="48" viewBox="0 0 48 48">
  <defs>
    <filter id="kmsclient-a" width="132.2%" height="132.9%" x="-14.9%" y="-15.3%" filterUnits="objectBoundingBox">
      <feOffset dy="1" in="SourceAlpha" result="shadowOffsetOuter1"/>
      <feGaussianBlur in="shadowOffsetOuter1" result="shadowBlurOuter1" stdDeviation="1"/>
      <feColorMatrix in="shadowBlurOuter1" result="shadowMatrixOuter1" values="0 0 0 0 0   0 0 0 0 0   0 0 0 0 0  0 0 0 0.2 0"/>
      <feMerge>
        <feMergeNode in="shadowMatrixOuter1"/>
        <feMergeNode in="SourceGraphic"/>
      </feMerge>
    </filter>
    <linearGradient id="kmsclient-b" x1="50%" x2="50%" y1="0%" y2="100%">
      <stop offset="0%" stop-color="#F0FBEE"/>
      <stop offset="100%" stop-color="#B1E2F7"/>
    </linearGradient>
    <linearGradient id="kmsclient-e" x1="80.797%" x2="16.842%" y1="17.938%" y2="83.862%">
      <stop offset="0%" stop-color="#8333FF"/>
      <stop offset="100%" stop-color="#2D2DF0"/>
    </linearGradient>
    <circle id="kmsclient-d" cx="9.688" cy="9.969" r="9.5"/>
    <filter id="kmsclient-c" width="136.8%" height="136.8%" x="-18.4%" y="-13.2%" filterUnits="objectBoundingBox">
      <feOffset dy="1" in="SourceAlpha" result="shadowOffsetOuter1"/>
      <feGaussianBlur in="shadowOffsetOuter1" result="shadowBlurOuter1" stdDeviation="1"/>
      <feColorMatrix in="shadowBlurOuter1" values="0 0 0 0 0   0 0 0 0 0.0350400191   0 0 0 0 0.298035553  0 0 0 0.15 0"/>
    </filter>
    <linearGradient id="kmsclient-h" x1="77.514%" x2="18.075%" y1="10.345%" y2="87.056%">
      <stop offset="0%" stop-color="#0AB4FF"/>
      <stop offset="100%" stop-color="#0A51D0"/>
    </linearGradient>
    <circle id="kmsclient-g" cx="18.188" cy="9.969" r="9.5"/>
    <filter id="kmsclient-f" width="136.8%" height="136.8%" x="-18.4%" y="-13.2%" filterUnits="objectBoundingBox">
      <feOffset dy="1" in="SourceAlpha" result="shadowOffsetOuter1"/>
      <feGaussianBlur in="shadowOffsetOuter1" result="shadowBlurOuter1" stdDeviation="1"/>
      <feColorMatrix in="shadowBlurOuter1" values="0 0 0 0 0   0 0 0 0 0.0350400191   0 0 0 0 0.298035553  0 0 0 0.15 0"/>
    </filter>
    <linearGradient id="kmsclient-k" x1="92.831%" x2="11.074%" y1="28.169%" y2="75.209%">
      <stop offset="0%" stop-color="#37FBB3"/>
      <stop offset="100%" stop-color="#2184DC"/>
    </linearGradient>
    <circle id="kmsclient-j" cx="26.688" cy="9.969" r="9.5"/>
    <filter id="kmsclient-i" width="136.8%" height="136.8%" x="-18.4%" y="-13.2%" filterUnits="objectBoundingBox">
      <feOffset dy="1" in="SourceAlpha" result="shadowOffsetOuter1"/>
      <feGaussianBlur in="shadowOffsetOuter1" result="shadowBlurOuter1" stdDeviation="1"/>
      <feColorMatrix in="shadowBlurOuter1" values="0 0 0 0 0.0715196752   0 0 0 0 0.236045063   0 0 0 0 0.181359068  0 0 0 0.15 0"/>
    </filter>
    <linearGradient id="kmsclient-n" x1="56.876%" x2="56.876%" y1="7.127%" y2="91.235%">
      <stop offset="0%" stop-color="#FFF"/>
      <stop offset="100%" stop-color="#FFF" stop-opacity=".769"/>
    </linearGradient>
    <path id="kmsclient-m" d="M9.625,24.25 L9.625,22.9461122 L10.984375,21.3730469 L12.7085602,24.7937862 C12.7722956,24.9202356 12.9018239,25 13.0434277,25 L15.5944381,25 C15.7497682,25 15.8756881,24.8740801 15.8756881,24.71875 C15.8756881,24.667353 15.8616041,24.6169386 15.834966,24.5729834 L12.7949219,19.5566406 L15.5768821,16.4695294 C15.6808659,16.3541397 15.6716196,16.1763022 15.5562298,16.0723184 C15.5045691,16.0257642 15.4374927,16 15.3679504,16 L12.9632067,16 C12.8561592,16 12.7542146,16.0457486 12.6830554,16.1257206 L9.625,19.5625 L9.625,16.75 C9.625,16.3357864 9.28921356,16 8.875,16 L7.75,16 C7.33578644,16 7,16.3357864 7,16.75 L7,24.25 C7,24.6642136 7.33578644,25 7.75,25 L8.875,25 C9.28921356,25 9.625,24.6642136 9.625,24.25 Z M19.5,24.4375 L19.5,19 L20.8934816,24.5739263 C20.9560832,24.8243327 21.1810737,25 21.4391867,25 L22.5608133,25 C22.8189263,25 23.0439168,24.8243327 23.1065184,24.5739263 L24.5,19 L24.5,24.4375 C24.5,24.7481602 24.7518398,25 25.0625,25 L26.4375,25 C26.7481602,25 27,24.7481602 27,24.4375 L27,16.75 C27,16.3357864 26.6642136,16 26.25,16 L23.9538676,16 C23.6128379,16 23.3147415,16.2300778 23.2283385,16.5599805 L22,21.25 L20.7136246,16.5519334 C20.6243803,16.2259978 20.3281836,16 19.9902508,16 L17.75,16 C17.3357864,16 17,16.3357864 17,16.75 L17,24.4375 C17,24.7481602 17.2518398,25 17.5625,25 L18.9375,25 C19.2481602,25 19.5,24.7481602 19.5,24.4375 Z M32.03125,25.1875 C32.8632813,25.1875 33.5058594,24.9326172 34.0527344,24.6923828 C34.5996094,24.4521484 35.0253906,24.0996094 35.3300781,23.6347656 C35.6347656,23.1699219 35.7871094,22.6621094 35.7871094,22.1113281 C35.7871094,21.6425781 35.6728516,21.21875 35.4443359,20.8398437 C35.2158203,20.4609375 34.8505859,20.1435547 34.3486328,19.8876953 C33.8885091,19.6531576 33.1518487,19.4210815 32.1386515,19.1914673 L31.8554688,19.1289062 C31.3867188,19.03125 31.0898438,18.9257812 30.9648438,18.8125 C30.8359375,18.703125 30.7714844,18.5800781 30.7714844,18.4433594 C30.7714844,18.2558594 30.8496094,18.0966797 31.0058594,17.9658203 C31.1621094,17.8349609 31.3945313,17.7695312 31.703125,17.7695312 C32.078125,17.7695312 32.37321,17.8468273 32.6126844,17.9658203 C32.729305,18.0237682 32.8215899,18.1315694 32.8895391,18.2892239 C32.9488473,18.4266831 33.0842068,18.5157397 33.2339149,18.5157397 L34.9987276,18.5157397 C35.2057637,18.5156117 35.3735996,18.3477758 35.3735996,18.1407397 C35.3735996,18.1131463 35.3705531,18.0856373 35.3645153,18.0587127 C35.3191468,17.8563986 35.2668088,17.7023328 35.2075011,17.5965153 C35.0605626,17.3343456 34.8028239,16.9286281 34.5036729,16.7166872 C33.927501,16.3084841 33.0351561,16 31.9375,16 C29.8236861,16 28.9560547,17.0400391 28.7001953,17.4326172 C28.4443359,17.8251953 28.3164063,18.2421875 28.3164063,18.6835937 C28.3164063,19.3554687 28.5664063,19.9082031 29.0664063,20.3417969 C29.5211589,20.7392578 30.2565511,21.0645074 31.272583,21.3175456 L31.5566406,21.3847656 C32.2675781,21.5410156 32.7207031,21.7070312 32.9160156,21.8828125 C33.1113281,22.0585937 33.2089844,22.2578125 33.2089844,22.4804687 C33.2089844,22.7148437 33.1064453,22.9208984 32.9013672,23.0986328 C32.6962891,23.2763672 32.3632813,23.3125 31.984375,23.3125 C31.4765625,23.3125 31.1269531,23.1914062 30.8535156,22.84375 C30.789895,22.7623748 30.7360814,22.6804391 30.6908012,22.5877546 C30.6597471,22.5241896 30.6272483,22.4234198 30.5933046,22.2854453 C30.5520972,22.117822 30.4017763,22 30.2291622,22 L28.4374481,22 C28.2302986,21.9999226 28.0623708,22.1678505 28.0623708,22.375 L28.0638339,22.4080974 L28.0638339,22.4080974 L28.0682119,22.4409365 C28.1004786,22.6216262 28.1331726,22.7658726 28.1662939,22.8736758 C28.3239164,23.386705 28.5838206,23.8435862 28.9492188,24.2089844 C29.5117188,24.7714844 30.5703125,25.1875 32.03125,25.1875 Z"/>
    <filter id="kmsclient-l" width="113.9%" height="143.5%" x="-6.9%" y="-10.9%" filterUnits="objectBoundingBox">
      <feOffset dy="1" in="SourceAlpha" result="shadowOffsetOuter1"/>
      <feGaussianBlur in="shadowOffsetOuter1" result="shadowBlurOuter1" stdDeviation=".5"/>
      <feColorMatrix in="shadowBlurOuter1" values="0 0 0 0 0   0 0 0 0 0   0 0 0 0 0  0 0 0 0.1 0"/>
    </filter>
    <linearGradient id="kmsclient-q" x1="50%" x2="50%" y1="0%" y2="100%">
      <stop offset="0%" stop-color="#FFF"/>
      <stop offset="100%" stop-color="#D1EAE4"/>
      <stop offset="100%" stop-color="#EDF2DE"/>
    </linearGradient>
    <path id="kmsclient-p" d="M8.5,17 C13.1944204,17 17,13.1944204 17,8.5 C17,3.80557963 13.1944204,0 8.5,0 C3.80557963,0 0,3.80557963 0,8.5 C0,13.1944204 3.80557963,17 8.5,17 Z"/>
    <filter id="kmsclient-o" width="141.2%" height="141.2%" x="-26.5%" y="-26.5%" filterUnits="objectBoundingBox">
      <feOffset dx="-1" dy="-1" in="SourceAlpha" result="shadowOffsetOuter1"/>
      <feGaussianBlur in="shadowOffsetOuter1" result="shadowBlurOuter1" stdDeviation="1"/>
      <feColorMatrix in="shadowBlurOuter1" values="0 0 0 0 0   0 0 0 0 0   0 0 0 0 0  0 0 0 0.1 0"/>
    </filter>
    <linearGradient id="kmsclient-r" x1="50%" x2="50%" y1="6.026%" y2="100%">
      <stop offset="0%" stop-color="#577FB3"/>
      <stop offset="100%" stop-color="#192469"/>
    </linearGradient>
  </defs>
  <g fill="none" fill-rule="evenodd" filter="url(#kmsclient-a)" transform="translate(2 3)">
    <rect width="40" height="40" x="1" y="1" fill="url(#kmsclient-b)" rx="9.188"/>
    <path fill="#000" fill-opacity=".04" fill-rule="nonzero" d="M31.8125,0 L10.1875,0 C4.56109911,0 0,4.56109911 0,10.1875 L0,31.8125 C0,37.4389009 4.56109911,42 10.1875,42 L31.8125,42 C37.4389009,42 42,37.4389009 42,31.8125 L42,10.1875 C42,4.56109911 37.4389009,0 31.8125,0 Z M31.8125,1 C36.8866161,1 41,5.11338386 41,10.1875 L41,31.8125 C41,36.8866161 36.8866161,41 31.8125,41 L10.1875,41 C5.11338386,41 1,36.8866161 1,31.8125 L1,10.1875 C1,5.11338386 5.11338386,1 10.1875,1 L31.8125,1 Z"/>
    <g transform="translate(2.813 11.031)">
      <g fill-rule="nonzero" opacity=".704">
        <use fill="#000" filter="url(#kmsclient-c)" xlink:href="#kmsclient-d"/>
        <use fill="url(#kmsclient-e)" xlink:href="#kmsclient-d"/>
      </g>
      <g fill-rule="nonzero" opacity=".86">
        <use fill="#000" filter="url(#kmsclient-f)" xlink:href="#kmsclient-g"/>
        <use fill="url(#kmsclient-h)" xlink:href="#kmsclient-g"/>
      </g>
      <g opacity=".855">
        <use fill="#000" filter="url(#kmsclient-i)" xlink:href="#kmsclient-j"/>
        <use fill="url(#kmsclient-k)" xlink:href="#kmsclient-j"/>
      </g>
    </g>
    <g fill-rule="nonzero">
      <use fill="#000" filter="url(#kmsclient-l)" xlink:href="#kmsclient-m"/>
      <use fill="url(#kmsclient-n)" xlink:href="#kmsclient-m"/>
    </g>
    <g fill-rule="nonzero" transform="translate(26.5 25.5)">
      <use fill="#000" filter="url(#kmsclient-o)" xlink:href="#kmsclient-p"/>
      <use fill="url(#kmsclient-q)" xlink:href="#kmsclient-p"/>
      <path fill="url(#kmsclient-r)" d="M6.61709458,5.50107009 C6.34246462,5.80732357 5.94373331,6 5.5,6 C4.67157288,6 4,5.32842712 4,4.5 C4,3.67157288 4.67157288,3 5.5,3 C5.94420187,3 6.34330667,3.19308356 6.61796416,3.49990047 L11.2460976,3.5 C12.8380962,3.5 14.1286662,4.79056992 14.1286662,6.3825686 C14.1286662,6.44254897 14.1267941,6.50251472 14.1230526,6.56237829 C14.0235365,8.15463591 12.7467419,9.40764953 11.1722245,9.49511956 L10.9960976,9.5 L6.5,9.5 C5.94771525,9.5 5.5,9.94771525 5.5,10.5 C5.5,11.0128358 5.88604019,11.4355072 6.38337887,11.4932723 L6.5,11.5 L11.5,11.5 L11.5,10.850347 C11.5,10.8256688 11.5048698,10.8013588 11.5142004,10.7787682 L11.5314906,10.7463407 C11.5889317,10.660179 11.7053447,10.6368964 11.7915063,10.6943375 L11.7915063,10.6943375 L14.2659859,12.3439906 C14.2865832,12.3577221 14.3042575,12.3753964 14.317989,12.3959937 C14.3754301,12.4821553 14.3521475,12.5985683 14.2659859,12.6560094 L14.2659859,12.6560094 L11.7915063,14.3056625 C11.7607061,14.3261959 11.7245172,14.337153 11.6875,14.337153 C11.5839466,14.337153 11.5,14.2532064 11.5,14.149653 L11.5,14.149653 L11.5,13.5 L6.5,13.5 C4.84314575,13.5 3.5,12.1568542 3.5,10.5 C3.5,8.90231912 4.74891996,7.59633912 6.32372721,7.50509269 L6.5,7.5 L10.9960976,7.5 C11.5545347,7.5 12.0231397,7.09474344 12.113483,6.55519579 L12.1282364,6.41010857 L12.1286662,6.3825686 C12.1286662,5.93263397 11.7919793,5.56133677 11.3568051,5.50687646 L11.2460976,5.5 Z"/>
    </g>
  </g>
</svg>
