<svg xmlns="http://www.w3.org/2000/svg" xmlns:xlink="http://www.w3.org/1999/xlink" width="48" height="48" viewBox="0 0 48 48">
  <defs>
    <filter id="uos-downloadmanager48-a" width="129.5%" height="129.5%" x="-14.8%" y="-14.8%" filterUnits="objectBoundingBox">
      <feOffset dy="1" in="SourceAlpha" result="shadowOffsetOuter1"/>
      <feGaussianBlur in="shadowOffsetOuter1" result="shadowBlurOuter1" stdDeviation="1"/>
      <feComposite in="shadowBlurOuter1" in2="SourceAlpha" operator="out" result="shadowBlurOuter1"/>
      <feColorMatrix in="shadowBlurOuter1" result="shadowMatrixOuter1" values="0 0 0 0 0   0 0 0 0 0   0 0 0 0 0  0 0 0 0.2 0"/>
      <feMerge>
        <feMergeNode in="shadowMatrixOuter1"/>
        <feMergeNode in="SourceGraphic"/>
      </feMerge>
    </filter>
    <linearGradient id="uos-downloadmanager48-b" x1="50%" x2="50%" y1="0%" y2="98.139%">
      <stop offset="0%" stop-color="#FFF"/>
      <stop offset="100%" stop-color="#EDEDED"/>
    </linearGradient>
    <filter id="uos-downloadmanager48-c" width="176.5%" height="218.2%" x="-38.2%" y="-59.1%" filterUnits="objectBoundingBox">
      <feOffset dy="1" in="SourceAlpha" result="shadowOffsetOuter1"/>
      <feGaussianBlur in="shadowOffsetOuter1" result="shadowBlurOuter1" stdDeviation="1"/>
      <feColorMatrix in="shadowBlurOuter1" result="shadowMatrixOuter1" values="0 0 0 0 0.421978973   0 0 0 0 0.652704643   0 0 0 0 0.875452899  0 0 0 0.5 0"/>
      <feMerge>
        <feMergeNode in="shadowMatrixOuter1"/>
        <feMergeNode in="SourceGraphic"/>
      </feMerge>
    </filter>
    <linearGradient id="uos-downloadmanager48-e" x1="87.73%" x2="38.554%" y1="31.118%" y2="64.666%">
      <stop offset="0%" stop-color="#7871EB"/>
      <stop offset="100%" stop-color="#57E5FF"/>
    </linearGradient>
    <path id="uos-downloadmanager48-d" d="M6.51202614,9.67366867 L6.50704565,9.66868818 L6.45689569,9.61335195 L0.850236425,3.98951649 C-0.0342178935,3.10230042 -0.0342178935,1.66676596 0.850236425,0.779549885 C1.73113434,-0.104098681 3.1615819,-0.106328521 4.04523047,0.774569398 L4.05021095,0.779549885 L8.10889569,4.85135195 L12.168539,0.779549885 C13.049437,-0.104098681 14.4798845,-0.106328521 15.3635331,0.774569398 C15.3651958,0.776226971 15.366856,0.777887136 15.3685136,0.779549885 C16.2529679,1.66676596 16.2529679,3.10230042 15.3685136,3.98951649 L9.76369175,9.61482583 C9.74671614,9.63299327 9.72938701,9.65095031 9.71170435,9.66868818 C9.25028163,10.1315517 8.63807545,10.3525747 8.03265411,10.3315116 C7.4775869,10.3123633 6.93281117,10.0931439 6.51202614,9.67366867 Z"/>
    <radialGradient id="uos-downloadmanager48-f" cx="94.647%" cy="77.513%" r="98.479%" fx="94.647%" fy="77.513%" gradientTransform="scale(-.7957 -1) rotate(23.08 3.675 -5.23)">
      <stop offset="0%" stop-color="#7871EB"/>
      <stop offset="68.65%" stop-color="#65B3F9" stop-opacity=".389"/>
      <stop offset="100%" stop-color="#5CD1FF"/>
    </radialGradient>
    <filter id="uos-downloadmanager48-h" width="177.8%" height="216.7%" x="-38.9%" y="-58.3%" filterUnits="objectBoundingBox">
      <feOffset dy="2" in="SourceAlpha" result="shadowOffsetOuter1"/>
      <feGaussianBlur in="shadowOffsetOuter1" result="shadowBlurOuter1" stdDeviation="1.5"/>
      <feColorMatrix in="shadowBlurOuter1" result="shadowMatrixOuter1" values="0 0 0 0 0.419449026   0 0 0 0 0.779397285   0 0 0 0 0.884114583  0 0 0 0.5 0"/>
      <feMerge>
        <feMergeNode in="shadowMatrixOuter1"/>
        <feMergeNode in="SourceGraphic"/>
      </feMerge>
    </filter>
    <linearGradient id="uos-downloadmanager48-j" x1="90.404%" x2="50%" y1="31.331%" y2="70.342%">
      <stop offset="0%" stop-color="#2B86FF"/>
      <stop offset="100%" stop-color="#26F9B9"/>
    </linearGradient>
    <path id="uos-downloadmanager48-i" d="M10.8982036,16.0284694 L10.8974874,16.0277531 L1.24292415,6.3705288 C-0.192748491,4.93446044 -0.192748491,2.60655329 1.24292415,1.17048493 C2.67808535,-0.265071845 5.00526208,-0.265392524 6.44081886,1.16976868 L6.44117701,1.17012678 L13.4991697,8.23060753 L20.5584649,1.17048493 C21.9441378,-0.215569888 24.1613685,-0.263663825 25.6047463,1.02642434 L25.7570758,1.17048493 L25.7570758,1.17048493 C27.1927485,2.60655329 27.1927485,4.93446044 25.7570758,6.3705288 L16.1025126,16.0277531 C15.4096762,16.7207805 14.5089503,17.0793177 13.6010113,17.103337 L13.4000013,17.1033639 C12.4920557,17.0795948 11.591231,16.7213058 10.8982036,16.0284694 Z"/>
    <linearGradient id="uos-downloadmanager48-k" x1="30.234%" x2="116.916%" y1="73.086%" y2="55.092%">
      <stop offset="0%" stop-color="#26F5BB"/>
      <stop offset="100%" stop-color="#2B86FE"/>
    </linearGradient>
  </defs>
  <g fill="none" fill-rule="evenodd" filter="url(#uos-downloadmanager48-a)" transform="translate(2 2)">
    <rect width="44" height="44" fill="url(#uos-downloadmanager48-b)" rx="22"/>
    <g filter="url(#uos-downloadmanager48-c)" transform="translate(14 9)">
      <mask id="uos-downloadmanager48-g" fill="#fff">
        <use xlink:href="#uos-downloadmanager48-d"/>
      </mask>
      <use fill="url(#uos-downloadmanager48-e)" xlink:href="#uos-downloadmanager48-d"/>
      <path fill="url(#uos-downloadmanager48-f)" d="M8.625,4.29948922 C6.92421078,6.6103417 3.34819241,6.47953873 2.03989301,5.6947209 C0.731593608,4.90990308 -0.315045913,1.85783377 -0.0533860331,0.985813968 C0.208273847,0.113794165 2.38877285,-1.84825039 4.43844191,0.113794165 C6.48811098,2.07583872 7.0986507,2.86065654 8.625,4.29948922 Z" mask="url(#uos-downloadmanager48-g)"/>
    </g>
    <g filter="url(#uos-downloadmanager48-h)" transform="translate(9 17)">
      <mask id="uos-downloadmanager48-l" fill="#fff">
        <use xlink:href="#uos-downloadmanager48-i"/>
      </mask>
      <use fill="url(#uos-downloadmanager48-j)" xlink:href="#uos-downloadmanager48-i"/>
      <path fill="url(#uos-downloadmanager48-k)" d="M13.4907772,8.24146883 C11.7844954,10.5707109 6.92815495,11.2738783 4.5218601,9.95543939 C2.11556526,8.6370005 -1.51575241,5.03326752 -0.859490181,2.70402548 C-0.203227951,0.37478343 3.73434543,-3.05315769 5.79063375,-1.07549935 C7.84692207,0.902158988 14.497046,5.73643493 13.4907772,8.24146883 Z" mask="url(#uos-downloadmanager48-l)"/>
    </g>
  </g>
</svg>
