<svg xmlns="http://www.w3.org/2000/svg" xmlns:xlink="http://www.w3.org/1999/xlink" width="128" height="128" viewBox="0 0 128 128">
  <defs>
    <filter id="folder-music-128px-a" width="128.8%" height="133.3%" x="-14.4%" y="-16.7%" filterUnits="objectBoundingBox">
      <feOffset dy="2" in="SourceAlpha" result="shadowOffsetOuter1"/>
      <feGaussianBlur in="shadowOffsetOuter1" result="shadowBlurOuter1" stdDeviation="3"/>
      <feComposite in="shadowBlurOuter1" in2="SourceAlpha" operator="out" result="shadowBlurOuter1"/>
      <feColorMatrix in="shadowBlurOuter1" result="shadowMatrixOuter1" values="0 0 0 0 0   0 0 0 0 0   0 0 0 0 0  0 0 0 0.2 0"/>
      <feMerge>
        <feMergeNode in="shadowMatrixOuter1"/>
        <feMergeNode in="SourceGraphic"/>
      </feMerge>
    </filter>
    <linearGradient id="folder-music-128px-c" x1="50%" x2="50%" y1="0%" y2="37.968%">
      <stop offset="0%" stop-color="#00B8FF"/>
      <stop offset="100%" stop-color="#2E5DFF"/>
    </linearGradient>
    <path id="folder-music-128px-b" d="M62,6 L62,6 C63.5138782,9.63330765 67.0639167,12 71,12 L97,12 C104.731986,12 111,18.2680135 111,26 L111,82 C111,89.7319865 104.731986,96 97,96 L14,96 C6.2680135,96 -5.58965236e-14,89.7319865 -5.68434189e-14,82 L-5.68434189e-14,14 C-5.77903141e-14,6.2680135 6.2680135,-2.70013666e-14 14,-2.84217094e-14 L53,-2.84217094e-14 C56.9360833,-2.91447562e-14 60.4861218,2.36669235 62,6 Z"/>
    <linearGradient id="folder-music-128px-g" x1="50%" x2="50%" y1="0%" y2="11.796%">
      <stop offset="0%" stop-color="#FFF"/>
      <stop offset="100%" stop-color="#CEF5FF"/>
    </linearGradient>
    <rect id="folder-music-128px-f" width="101" height="41.5" x="5" y="16" rx="9"/>
    <filter id="folder-music-128px-e" width="108.9%" height="121.7%" x="-4.5%" y="-10.8%" filterUnits="objectBoundingBox">
      <feOffset in="SourceAlpha" result="shadowOffsetOuter1"/>
      <feGaussianBlur in="shadowOffsetOuter1" result="shadowBlurOuter1" stdDeviation="1.5"/>
      <feColorMatrix in="shadowBlurOuter1" values="0 0 0 0 0   0 0 0 0 0   0 0 0 0 0  0 0 0 0.2 0"/>
    </filter>
    <filter id="folder-music-128px-h" width="106.9%" height="116.9%" x="-3.5%" y="-8.4%" filterUnits="objectBoundingBox">
      <feOffset dy="1" in="SourceAlpha" result="shadowOffsetInner1"/>
      <feComposite in="shadowOffsetInner1" in2="SourceAlpha" k2="-1" k3="1" operator="arithmetic" result="shadowInnerInner1"/>
      <feColorMatrix in="shadowInnerInner1" values="0 0 0 0 1   0 0 0 0 1   0 0 0 0 1  0 0 0 0.5 0"/>
    </filter>
    <radialGradient id="folder-music-128px-i" cx="50%" cy="0%" r="117.589%" fx="50%" fy="0%" gradientTransform="scale(.65766 1) rotate(84.615 .63 .143)">
      <stop offset="0%" stop-color="#48D5FF"/>
      <stop offset="100%" stop-color="#0083F6"/>
    </radialGradient>
    <linearGradient id="folder-music-128px-l" x1="52.084%" x2="52.084%" y1="4.908%" y2="100%">
      <stop offset="0%" stop-color="#FFF"/>
      <stop offset="100%" stop-color="#FFF" stop-opacity=".6"/>
    </linearGradient>
    <path id="folder-music-128px-k" d="M24.5,49 C10.9690236,49 0,38.0309764 0,24.5 C0,10.9690236 10.9690236,0 24.5,0 C38.0309764,0 49,10.9690236 49,24.5 C49,38.0309764 38.0309764,49 24.5,49 Z M24.5,40.5 C33.336556,40.5 40.5,33.336556 40.5,24.5 C40.5,15.663444 33.336556,8.5 24.5,8.5 C15.663444,8.5 8.5,15.663444 8.5,24.5 C8.5,33.336556 15.663444,40.5 24.5,40.5 Z"/>
    <filter id="folder-music-128px-j" width="126.5%" height="126.5%" x="-13.3%" y="-11.2%" filterUnits="objectBoundingBox">
      <feOffset dy="1" in="SourceAlpha" result="shadowOffsetOuter1"/>
      <feGaussianBlur in="shadowOffsetOuter1" result="shadowBlurOuter1" stdDeviation="2"/>
      <feColorMatrix in="shadowBlurOuter1" values="0 0 0 0 0   0 0 0 0 0.42745098   0 0 0 0 0.968627451  0 0 0 0.5 0"/>
    </filter>
    <linearGradient id="folder-music-128px-m" x1="35.769%" x2="18.77%" y1="0%" y2="100%">
      <stop offset="0%" stop-color="#4B20FF"/>
      <stop offset="100%" stop-color="#9600F1"/>
    </linearGradient>
  </defs>
  <g fill="none" fill-rule="evenodd">
    <g filter="url(#folder-music-128px-a)" transform="translate(9 22)">
      <mask id="folder-music-128px-d" fill="#fff">
        <use xlink:href="#folder-music-128px-b"/>
      </mask>
      <use fill="url(#folder-music-128px-c)" xlink:href="#folder-music-128px-b"/>
      <g mask="url(#folder-music-128px-d)">
        <use fill="#000" filter="url(#folder-music-128px-e)" xlink:href="#folder-music-128px-f"/>
        <use fill="url(#folder-music-128px-g)" xlink:href="#folder-music-128px-f"/>
        <use fill="#000" filter="url(#folder-music-128px-h)" xlink:href="#folder-music-128px-f"/>
      </g>
      <g fill="url(#folder-music-128px-i)" mask="url(#folder-music-128px-d)">
        <path d="M0,0 L111,0 L111,59 C111,66.7319865 104.731986,73 97,73 L14,73 C6.2680135,73 9.46895252e-16,66.7319865 0,59 L0,0 Z" transform="translate(0 23)"/>
      </g>
    </g>
    <g transform="translate(41 55)">
      <use fill="#000" filter="url(#folder-music-128px-j)" xlink:href="#folder-music-128px-k"/>
      <use fill="url(#folder-music-128px-l)" xlink:href="#folder-music-128px-k"/>
      <circle cx="24.5" cy="24.5" r="21.75" stroke="#0070DD" stroke-opacity=".15" stroke-width=".5"/>
      <circle cx="24.5" cy="24.5" r="23.25" stroke="#0070DD" stroke-opacity=".15" stroke-width=".5"/>
      <circle cx="24.5" cy="24.5" r="18.75" stroke="#0070DD" stroke-opacity=".15" stroke-width=".5"/>
      <circle cx="24.5" cy="24.5" r="20.25" stroke="#0070DD" stroke-opacity=".15" stroke-width=".5"/>
      <circle cx="24.5" cy="24.5" r="17.25" stroke="#0070DD" stroke-opacity=".15" stroke-width=".5"/>
      <circle cx="24.5" cy="24.5" r="15.75" stroke="#0070DD" stroke-opacity=".15" stroke-width=".5"/>
      <circle cx="24.5" cy="24.5" r="14.25" stroke="#0070DD" stroke-opacity=".15" stroke-width=".5"/>
      <circle cx="24.5" cy="24.5" r="12.75" stroke="#0070DD" stroke-opacity=".15" stroke-width=".5"/>
      <circle cx="24.5" cy="24.5" r="11.25" stroke="#0070DD" stroke-opacity=".15" stroke-width=".5"/>
      <circle cx="24.5" cy="24.5" r="13.5" fill="url(#folder-music-128px-m)" stroke="#FFF" stroke-opacity=".4"/>
      <path fill="#FFF" d="M29,26.4998169 L29,19.7936176 C29,19.4298585 28.705115,19.1349735 28.3413559,19.1349735 C28.300634,19.1349735 28.2599998,19.13875 28.2199754,19.1462546 L21.5372635,20.3992631 C21.2257427,20.4576732 21,20.7296766 21,21.046626 L21,31 C21,32.3807119 19.8807119,33.5 18.5,33.5 C17.1192881,33.5 16,32.3807119 16,31 C16,29.6192881 17.1192881,28.5 18.5,28.5 C19.062803,28.5 19.5821697,28.6859724 20,28.9998169 L20,19.6198769 C20,18.6779876 20.6648215,17.8670357 21.58842,17.682316 L27.6365556,16.4726889 C28.706641,16.2586718 29.7476117,16.9526523 29.9616287,18.0227376 C29.9871472,18.1503299 30,18.2801308 30,18.4102498 L30,28.5 C30,29.8807119 28.8807119,31 27.5,31 C26.1192881,31 25,29.8807119 25,28.5 C25,27.1192881 26.1192881,26 27.5,26 C28.062803,26 28.5821697,26.1859724 29,26.4998169 Z"/>
    </g>
  </g>
</svg>
