<?xml version="1.0" encoding="UTF-8"?>
<svg width="128px" height="128px" viewBox="0 0 128 128" version="1.1" xmlns="http://www.w3.org/2000/svg" xmlns:xlink="http://www.w3.org/1999/xlink">
    <title>network-server</title>
    <defs>
        <filter x="-9.0%" y="-8.3%" width="118.0%" height="120.8%" filterUnits="objectBoundingBox" id="filter-1">
            <feOffset dx="0" dy="2" in="SourceAlpha" result="shadowOffsetOuter1"></feOffset>
            <feGaussianBlur stdDeviation="3" in="shadowOffsetOuter1" result="shadowBlurOuter1"></feGaussianBlur>
            <feColorMatrix values="0 0 0 0 0   0 0 0 0 0   0 0 0 0 0  0 0 0 0.2 0" type="matrix" in="shadowBlurOuter1" result="shadowMatrixOuter1"></feColorMatrix>
            <feMerge>
                <feMergeNode in="shadowMatrixOuter1"></feMergeNode>
                <feMergeNode in="SourceGraphic"></feMergeNode>
            </feMerge>
        </filter>
        <linearGradient x1="50%" y1="0%" x2="50%" y2="26.3530556%" id="linearGradient-2">
            <stop stop-color="#1FB0EA" offset="0%"></stop>
            <stop stop-color="#2C7FE2" offset="100%"></stop>
        </linearGradient>
        <path d="M62,6 C63.5138782,9.63330765 67.0639167,12 71,12 L97,12 C104.731986,12 111,18.2680135 111,26 L111,82 C111,89.7319865 104.731986,96 97,96 L14,96 C6.2680135,96 -5.58965236e-14,89.7319865 -5.68434189e-14,82 L-5.68434189e-14,14 C-5.77903141e-14,6.2680135 6.2680135,-2.70013666e-14 14,-2.84217094e-14 L53,-2.84217094e-14 C56.9360833,-2.91447562e-14 60.4861218,2.36669235 62,6 Z" id="path-3"></path>
        <linearGradient x1="50%" y1="0%" x2="50%" y2="11.7957837%" id="linearGradient-5">
            <stop stop-color="#FFFFFF" offset="0%"></stop>
            <stop stop-color="#CEF5FF" offset="100%"></stop>
        </linearGradient>
        <rect id="path-6" x="5" y="16" width="101" height="41.5" rx="9"></rect>
        <filter x="-4.5%" y="-10.8%" width="108.9%" height="121.7%" filterUnits="objectBoundingBox" id="filter-7">
            <feOffset dx="0" dy="0" in="SourceAlpha" result="shadowOffsetOuter1"></feOffset>
            <feGaussianBlur stdDeviation="1.5" in="shadowOffsetOuter1" result="shadowBlurOuter1"></feGaussianBlur>
            <feColorMatrix values="0 0 0 0 0   0 0 0 0 0   0 0 0 0 0  0 0 0 0.2 0" type="matrix" in="shadowBlurOuter1"></feColorMatrix>
        </filter>
        <filter x="-3.5%" y="-8.4%" width="106.9%" height="116.9%" filterUnits="objectBoundingBox" id="filter-8">
            <feOffset dx="0" dy="1" in="SourceAlpha" result="shadowOffsetInner1"></feOffset>
            <feComposite in="shadowOffsetInner1" in2="SourceAlpha" operator="arithmetic" k2="-1" k3="1" result="shadowInnerInner1"></feComposite>
            <feColorMatrix values="0 0 0 0 1   0 0 0 0 1   0 0 0 0 1  0 0 0 0.5 0" type="matrix" in="shadowInnerInner1"></feColorMatrix>
        </filter>
        <linearGradient x1="56.4262458%" y1="0%" x2="56.4262458%" y2="115.461063%" id="linearGradient-9">
            <stop stop-color="#5CCDF1" offset="0%"></stop>
            <stop stop-color="#1881DC" offset="100%"></stop>
        </linearGradient>
        <linearGradient x1="52.0842145%" y1="4.90831823%" x2="52.0842145%" y2="100%" id="linearGradient-10">
            <stop stop-color="#FFFFFF" offset="0%"></stop>
            <stop stop-color="#FFFFFF" stop-opacity="0.6" offset="100%"></stop>
        </linearGradient>
        <path d="M22,0 C34.1492424,0 44,9.85075759 44,22 C44,34.1492424 34.1492424,44 22,44 C9.85075759,44 0,34.1492424 0,22 C0,9.85075759 9.85075759,0 22,0 Z M29.7976843,31.0113178 C29.7203968,31.0591244 29.6425476,31.1074956 29.5641545,31.1564277 C27.2261043,32.6158095 24.8882349,34.2680681 22.7115923,36.0759024 C20.9418512,37.5457801 19.3617709,39.0516517 18.013946,40.5810665 C19.2996372,40.8555854 20.6329727,41 22,41 C25.3998821,41 28.5913645,40.1067268 31.352526,38.5421018 C31.5046751,36.1601938 31.4648506,33.88521 31.2454445,31.7139362 C30.7068719,31.5906254 30.2142379,31.346372 29.7976843,31.0113178 Z M12.0051167,22.8066515 C11.527065,23.0415371 10.9894077,23.1734691 10.4211234,23.1734691 C10.0424379,23.1734691 9.6773522,23.1148855 9.33444089,23.0062929 C7.48047659,26.2149676 6.33773473,29.4473853 5.74958102,32.4180093 L5.83732585,31.9925461 C8.02412886,35.5218165 11.3346006,38.2818917 15.2689374,39.7729681 C16.8744085,37.8102133 18.8218893,35.9040227 21.0392385,34.0623791 C23.1748759,32.2886022 25.4486329,30.6654322 27.7307132,29.2176261 C22.6017811,28.5553601 18.0243349,26.8249572 13.9827632,24.1951779 C13.2965959,23.7487009 12.637538,23.2850064 12.0051167,22.8066515 Z M39.7010925,28.9177205 L39.3458812,28.9759331 C38.0155932,29.182914 36.7137972,29.3297873 35.4403153,29.4184769 C35.1495098,30.2302354 34.575191,30.9074147 33.8368865,31.3304873 C34.0167588,33.0573899 34.0899023,34.8432892 34.0509428,36.6888517 C36.5432748,34.6424674 38.506179,31.9724728 39.7010925,28.9177205 Z M4.41526186,14.7886414 L4.34191274,14.973336 C3.4760869,17.1469215 3,19.5179255 3,22 C3,24.2426545 3.38867029,26.3946326 4.10231741,28.392241 C4.84168148,26.0906763 5.88772831,23.7146672 7.29434845,21.3570226 C6.9938841,20.8314078 6.82212997,20.2228775 6.82212997,19.5744757 C6.82212997,19.1032715 6.9128362,18.6531241 7.07772879,18.2405534 C6.0826974,17.112885 5.1966215,15.9546012 4.41526186,14.7886414 Z M32.8733647,6.4174946 L32.3321206,6.54975253 C29.7484965,7.20146212 27.3618788,8.02173789 25.1631675,8.99694992 C25.1874582,9.16568319 25.2000298,9.33818725 25.2000298,9.5136097 C25.2000298,10.0240225 25.0936003,10.5097284 24.9017377,10.9497312 C25.4903343,11.6124151 26.0650024,12.3062676 26.6226139,13.0319593 C29.2667,16.4730494 31.273636,20.3373348 32.5325639,24.6385649 C33.8109466,24.8097238 34.8775812,25.6528302 35.3651714,26.8005908 C37.0206504,26.6811573 38.7303464,26.4573504 40.4954103,26.1242265 C40.5145232,26.1206193 40.5336147,26.1174705 40.5526743,26.1147724 C40.8455667,24.7912723 41,23.4136507 41,22 C41,15.5513109 37.7863432,9.85236402 32.8733647,6.4174946 Z M19.280623,12.2640978 C17.042132,13.7990456 15.0680033,15.543187 13.3419131,17.4720727 C13.7686268,18.063648 14.0201167,18.7898711 14.0201167,19.5744757 C14.0201167,20.0386917 13.932081,20.4824709 13.7718052,20.8900174 C14.2785456,21.2654821 14.8033402,21.6306784 15.3464144,21.9840473 C19.260714,24.5310129 23.7234699,26.1676523 28.7781054,26.7074708 C29.0461845,26.1231869 29.46616,25.6228973 29.9873766,25.2572575 C28.8172296,21.3103206 26.9692987,17.7711914 24.5433114,14.6139415 C24.0607997,13.9859867 23.5642696,13.3834619 23.0561889,12.8059467 C22.6111762,13.0030779 22.1188191,13.1126031 21.6010364,13.1126031 C20.7974761,13.1126031 20.0551524,12.8488147 19.4559937,12.4031662 L19.280623,12.2640978 Z M13.3265244,5.09116217 C10.2044114,6.69608878 7.58438585,9.14034448 5.76461917,12.125758 C6.61901328,13.5418357 7.64263926,14.9635633 8.84227522,16.339777 C9.31903819,16.1064699 9.85487687,15.9754824 10.4211234,15.9754824 C10.67371,15.9754824 10.9202461,16.0015463 11.1581871,16.0511295 C13.1383698,13.7994256 15.4258988,11.7782688 18.0376744,10.0216447 C18.01419,9.85565925 18.002043,9.68604439 18.002043,9.5136097 C18.002043,9.07375391 18.0810816,8.65224637 18.2257217,8.26252432 C16.4782491,6.90643187 14.689876,5.78554918 12.9375291,4.88677846 Z M22,3 C20.0507961,3 18.1700911,3.29361021 16.3997046,3.83901106 C17.5939441,4.56568965 18.7886557,5.38723792 19.9644936,6.30779033 C20.4555524,6.05644032 21.0118327,5.91461632 21.6010364,5.91461632 C22.4876413,5.91461632 23.2996985,6.23574499 23.9271632,6.76795753 C25.7421592,5.95491608 27.6746991,5.24265876 29.7282806,4.63821973 C27.3683271,3.58546072 24.7524572,3 22,3 Z" id="path-11"></path>
        <filter x="-29.5%" y="-25.0%" width="159.1%" height="159.1%" filterUnits="objectBoundingBox" id="filter-12">
            <feOffset dx="0" dy="2" in="SourceAlpha" result="shadowOffsetOuter1"></feOffset>
            <feGaussianBlur stdDeviation="4" in="shadowOffsetOuter1" result="shadowBlurOuter1"></feGaussianBlur>
            <feColorMatrix values="0 0 0 0 0   0 0 0 0 0.42745098   0 0 0 0 0.968627451  0 0 0 0.5 0" type="matrix" in="shadowBlurOuter1"></feColorMatrix>
        </filter>
    </defs>
    <g id="network-server" stroke="none" stroke-width="1" fill="none" fill-rule="evenodd">
        <g id="folder-128px" transform="translate(9, 22)">
            <g id="Group-2" filter="url(#filter-1)" transform="translate(0, 0)">
                <mask id="mask-4" fill="white">
                    <use xlink:href="#path-3"></use>
                </mask>
                <use id="Mask" fill="url(#linearGradient-2)" xlink:href="#path-3"></use>
                <g id="Rectangle" mask="url(#mask-4)">
                    <use fill="black" fill-opacity="1" filter="url(#filter-7)" xlink:href="#path-6"></use>
                    <use fill="url(#linearGradient-5)" fill-rule="evenodd" xlink:href="#path-6"></use>
                    <use fill="black" fill-opacity="1" filter="url(#filter-8)" xlink:href="#path-6"></use>
                </g>
                <g id="Group" mask="url(#mask-4)" fill="url(#linearGradient-9)">
                    <g transform="translate(0, 23)" id="Rectangle">
                        <path d="M0,0 L111,0 L111,59 C111,66.7319865 104.731986,73 97,73 L14,73 C6.2680135,73 9.46895252e-16,66.7319865 0,59 L0,0 L0,0 Z"></path>
                    </g>
                </g>
            </g>
        </g>
        <g id="Combined-Shape" transform="translate(42, 59)">
            <use fill="black" fill-opacity="1" filter="url(#filter-12)" xlink:href="#path-11"></use>
            <use fill="url(#linearGradient-10)" fill-rule="evenodd" xlink:href="#path-11"></use>
        </g>
    </g>
</svg>