<svg xmlns="http://www.w3.org/2000/svg" xmlns:xlink="http://www.w3.org/1999/xlink" width="128" height="128" viewBox="0 0 128 128">
  <defs>
    <filter id="user-trash-128px-a" width="131.4%" height="131.4%" x="-15.7%" y="-15.7%" filterUnits="objectBoundingBox">
      <feOffset dy="2" in="SourceAlpha" result="shadowOffsetOuter1"/>
      <feGaussianBlur in="shadowOffsetOuter1" result="shadowBlurOuter1" stdDeviation="3"/>
      <feColorMatrix in="shadowBlurOuter1" result="shadowMatrixOuter1" values="0 0 0 0 0   0 0 0 0 0   0 0 0 0 0  0 0 0 0.2 0"/>
      <feMerge>
        <feMergeNode in="shadowMatrixOuter1"/>
        <feMergeNode in="SourceGraphic"/>
      </feMerge>
    </filter>
    <path id="user-trash-128px-b" d="M4.6686618,0 L97.3313382,0 C99.5349543,-6.45725813e-15 101.321338,1.78638385 101.321338,3.99 C101.321338,4.19817031 101.305047,4.4060214 101.272614,4.6116496 L87.9090465,89.3370286 C86.7589126,96.6289092 80.4742494,102 73.0922217,102 L28.9077783,102 C21.5257506,102 15.2410874,96.6289092 14.0909535,89.3370286 L0.727386403,4.6116496 C0.384058809,2.4349433 1.8703059,0.392052195 4.0470122,0.0487246007 C4.2526404,0.0162912696 4.46049149,1.81459711e-15 4.6686618,0 Z"/>
    <filter id="user-trash-128px-c" width="156.3%" height="158.1%" x="-28.2%" y="-29%" filterUnits="objectBoundingBox">
      <feGaussianBlur in="SourceGraphic" stdDeviation="7.5"/>
    </filter>
    <path id="user-trash-128px-e" d="M97.1534017,-2.66453526e-14 C99.3570178,-3.31026107e-14 101.143402,1.78638385 101.143402,3.99 C101.143402,4.19817031 101.12711,4.4060214 101.094677,4.6116496 L101.074393,4.74723978 C100.726343,2.89856114 99.1031981,1.5 97.1534017,1.5 L97.1534017,1.5 L4.49072526,1.5 C4.28255495,1.5 4.07470386,1.51629127 3.86907566,1.5487246 C2.1601562,1.8182691 0.876817068,3.13537845 0.57028851,4.7423702 L0.549449857,4.6116496 C0.206122263,2.4349433 1.69236936,0.392052195 3.86907566,0.0487246007 C4.07470386,0.0162912696 4.28255495,-2.48307555e-14 4.49072526,-2.66453526e-14 L97.1534017,-2.66453526e-14 Z"/>
    <linearGradient id="user-trash-128px-f" x1="98.965%" x2="0%" y1="50%" y2="50%">
      <stop offset="0%" stop-color="#00123C" stop-opacity=".2"/>
      <stop offset="45.365%" stop-color="#00143F" stop-opacity=".5"/>
      <stop offset="100%" stop-color="#00123C" stop-opacity=".2"/>
    </linearGradient>
  </defs>
  <g fill="none" fill-rule="evenodd">
    <g filter="url(#user-trash-128px-a)" transform="translate(13 13)">
      <mask id="user-trash-128px-d" fill="#fff">
        <use xlink:href="#user-trash-128px-b"/>
      </mask>
      <use fill="#FFF" fill-opacity=".8" xlink:href="#user-trash-128px-b"/>
      <path fill="#2D4688" fill-opacity=".3" d="M16.9186618,0 L85.0813382,0 C87.2849543,1.81564833e-15 89.0713382,1.78638385 89.0713382,3.99 C89.0713382,4.19817031 89.0550469,4.4060214 89.0226136,4.6116496 L79.5233833,64.8370286 C78.3732493,72.1289092 72.0885861,77.5 64.7065585,77.5 L37.2934415,77.5 C29.9114139,77.5 23.6267507,72.1289092 22.4766167,64.8370286 L12.9773864,4.6116496 C12.6340588,2.4349433 14.1203059,0.392052195 16.2970122,0.0487246007 C16.5026404,0.0162912696 16.7104915,2.25868632e-15 16.9186618,0 Z" filter="url(#user-trash-128px-c)" mask="url(#user-trash-128px-d)"/>
      <use fill="#FFF" fill-opacity=".8" xlink:href="#user-trash-128px-e"/>
    </g>
    <path fill="url(#user-trash-128px-f)" d="M65.3705263,46.7787727 C59.7747368,35.5143402 53.8884211,44.5850429 53.8884211,44.5850429 L49.4252632,52.3041781 L58.6126316,57.5420159 L65.3705263,46.7787727 Z M85.24,43.3279619 L80.2884211,46.0639619 L78.4736842,42.9376916 C78.4736842,42.9376916 77.0715789,39.68407 70.1536842,40.0250429 C70.1536842,40.0250429 61.5810526,40.2592051 60.6884211,40.0989889 C60.6884211,40.0989889 63.1178947,40.5673132 64.3263158,42.4036375 L69.8,51.8522862 L65.8,54.0542321 L79.2231579,54.3376916 L85.24,43.3279619 Z M52.3389474,70.5729348 C45.3957895,81.0855835 56.4021053,81.2868808 56.4021053,81.2868808 L65.4673684,80.9952051 L65.2863158,70.6140159 L52.3389474,70.5729348 Z M39,55.8083943 L43.9684211,58.5115294 L42.1663158,61.6460159 C42.1663158,61.6460159 40.0526316,64.5134754 43.9473684,70.0922862 C43.9473684,70.0922862 48.6168421,77.1253673 48.9284211,77.951097 C48.9284211,77.951097 48.0736842,75.6834213 49.0547368,73.7197456 L54.4863158,64.2464483 L58.4989474,66.4278538 L51.7663158,55.0976916 L39,55.8083943 Z M80.8821053,68.9995294 C93.6778947,69.7882862 88.4863158,60.3232051 88.4863158,60.3232051 L83.8,52.7355294 L74.6042105,57.9610429 L80.8821053,68.9995294 Z M67.3115789,77.039097 L74.1747368,65.7787727 L74.1747368,70.2689348 L85.2947368,70.2689348 C87.5305263,70.1456916 89.1431579,68.3093673 89.1431579,68.3093673 C88.5578947,68.9748808 84.5410526,76.3859078 84.5410526,76.3859078 C81.4505263,82.4248267 77.8547368,82.0222321 77.8547368,82.0222321 L74.1747368,82.0222321 L74.1747368,87.5681781 L67.3115789,77.039097 Z"/>
  </g>
</svg>
