<svg xmlns="http://www.w3.org/2000/svg" xmlns:xlink="http://www.w3.org/1999/xlink" width="128" height="128" viewBox="0 0 128 128">
  <defs>
    <filter id="user-trash-full-128px-a" width="131.4%" height="131.4%" x="-15.7%" y="-15.7%" filterUnits="objectBoundingBox">
      <feOffset dy="2" in="SourceAlpha" result="shadowOffsetOuter1"/>
      <feGaussianBlur in="shadowOffsetOuter1" result="shadowBlurOuter1" stdDeviation="3"/>
      <feColorMatrix in="shadowBlurOuter1" result="shadowMatrixOuter1" values="0 0 0 0 0   0 0 0 0 0   0 0 0 0 0  0 0 0 0.2 0"/>
      <feMerge>
        <feMergeNode in="shadowMatrixOuter1"/>
        <feMergeNode in="SourceGraphic"/>
      </feMerge>
    </filter>
    <path id="user-trash-full-128px-b" d="M4.6686618,0 L97.3313382,0 C99.5349543,-6.45725813e-15 101.321338,1.78638385 101.321338,3.99 C101.321338,4.19817031 101.305047,4.4060214 101.272614,4.6116496 L87.9090465,89.3370286 C86.7589126,96.6289092 80.4742494,102 73.0922217,102 L28.9077783,102 C21.5257506,102 15.2410874,96.6289092 14.0909535,89.3370286 L0.727386403,4.6116496 C0.384058809,2.4349433 1.8703059,0.392052195 4.0470122,0.0487246007 C4.2526404,0.0162912696 4.46049149,1.81459711e-15 4.6686618,0 Z"/>
    <filter id="user-trash-full-128px-c" width="156.3%" height="158.1%" x="-28.2%" y="-29%" filterUnits="objectBoundingBox">
      <feGaussianBlur in="SourceGraphic" stdDeviation="7.5"/>
    </filter>
    <path id="user-trash-full-128px-e" d="M97.1534017,-2.66453526e-14 C99.3570178,-3.31026107e-14 101.143402,1.78638385 101.143402,3.99 C101.143402,4.19817031 101.12711,4.4060214 101.094677,4.6116496 L101.074393,4.74723978 C100.726343,2.89856114 99.1031981,1.5 97.1534017,1.5 L97.1534017,1.5 L4.49072526,1.5 C4.28255495,1.5 4.07470386,1.51629127 3.86907566,1.5487246 C2.1601562,1.8182691 0.876817068,3.13537845 0.57028851,4.7423702 L0.549449857,4.6116496 C0.206122263,2.4349433 1.69236936,0.392052195 3.86907566,0.0487246007 C4.07470386,0.0162912696 4.28255495,-2.48307555e-14 4.49072526,-2.66453526e-14 L97.1534017,-2.66453526e-14 Z"/>
    <path id="user-trash-full-128px-f" d="M1.99028943,0 C1.88646514,0 1.78280006,0.00812521969 1.68024364,0.024301242 C0.594618191,0.195534804 -0.146642892,1.21442034 0.0245906706,2.30004579 L13.2603302,86.2149946 C14.3307215,93.0013049 20.1796481,98 27.0498551,98 L69.5934001,98 C76.4636072,98 82.3125337,93.0013049 83.3829251,86.2149946 L96.6186646,2.30004579 C96.6348406,2.19748937 96.6429658,2.09382429 96.6429658,1.99 C96.6429658,0.890953348 95.7520125,0 94.6529658,0 L1.99028943,0 Z"/>
    <radialGradient id="user-trash-full-128px-h" cx="50%" cy="50%" r="50%" fx="50%" fy="50%" gradientTransform="matrix(0 1 -.76075 0 .88 0)">
      <stop offset="0%" stop-color="#FFF" stop-opacity="0"/>
      <stop offset="54.567%" stop-color="#FFF" stop-opacity=".154"/>
      <stop offset="100%" stop-color="#FFF" stop-opacity=".749"/>
    </radialGradient>
    <path id="user-trash-full-128px-i" d="M4.6686618,0 L97.3313382,0 C99.5349543,-6.45725813e-15 101.321338,1.78638385 101.321338,3.99 C101.321338,4.19817031 101.305047,4.4060214 101.272614,4.6116496 L88.0368741,88.5265984 C86.8131316,96.2851594 80.1262499,102 72.2717725,102 L29.7282275,102 C21.8737501,102 15.1868684,96.2851594 13.9631259,88.5265984 L0.727386403,4.6116496 C0.384058809,2.4349433 1.8703059,0.392052195 4.0470122,0.0487246007 C4.2526404,0.0162912696 4.46049149,1.81459711e-15 4.6686618,0 Z"/>
  </defs>
  <g fill="none" fill-rule="evenodd">
    <g filter="url(#user-trash-full-128px-a)" transform="translate(13 13)">
      <mask id="user-trash-full-128px-d" fill="#fff">
        <use xlink:href="#user-trash-full-128px-b"/>
      </mask>
      <use fill="#FFF" fill-opacity=".8" xlink:href="#user-trash-full-128px-b"/>
      <path fill="#2D4688" fill-opacity=".3" d="M16.9186618,0 L85.0813382,0 C87.2849543,1.81564833e-15 89.0713382,1.78638385 89.0713382,3.99 C89.0713382,4.19817031 89.0550469,4.4060214 89.0226136,4.6116496 L79.5233833,64.8370286 C78.3732493,72.1289092 72.0885861,77.5 64.7065585,77.5 L37.2934415,77.5 C29.9114139,77.5 23.6267507,72.1289092 22.4766167,64.8370286 L12.9773864,4.6116496 C12.6340588,2.4349433 14.1203059,0.392052195 16.2970122,0.0487246007 C16.5026404,0.0162912696 16.7104915,2.25868632e-15 16.9186618,0 Z" filter="url(#user-trash-full-128px-c)" mask="url(#user-trash-full-128px-d)"/>
      <use fill="#FFF" fill-opacity=".8" xlink:href="#user-trash-full-128px-e"/>
    </g>
    <g transform="translate(15.678 15)">
      <mask id="user-trash-full-128px-g" fill="#fff">
        <use xlink:href="#user-trash-full-128px-f"/>
      </mask>
      <use fill="#FFF" fill-opacity="0" fill-rule="nonzero" xlink:href="#user-trash-full-128px-f"/>
      <g mask="url(#user-trash-full-128px-g)">
        <g transform="translate(5.023 22.1)">
          <path fill="#617B13" d="M4.2035677,68.9763614 C4.3915647,71.1770014 4.83634065,74.7265295 5.80324973,76.7048325 C5.80324973,76.7048325 4.54396636,78.8991012 10.7417136,78.8991012 C15.179891,78.8991012 49.2911774,78.8991012 49.2911774,78.8991012 C51.5042201,78.8991012 53.1136122,77.1173842 52.8853935,74.9150671 L51.4313113,60.8831352 C51.2032993,58.682814 49.234864,56.9544109 47.0114854,57.0233583 L7.3052194,58.2546584 C5.09222889,58.3232837 3.45099543,60.166962 3.63864429,62.3635267 L4.2035677,68.9763614 Z"/>
          <path fill="#6D8700" d="M29.387827,29.7111023 C29.0503384,27.5301374 30.4999854,25.2770221 32.6180743,24.6807764 L77.1753235,12.137833 C79.2968285,11.5406256 81.4841386,12.7784909 82.0664787,14.9235357 L86.3244318,30.6076682 C86.9042373,32.7433767 85.6891134,35.0626936 83.5979496,35.7923435 L36.8339852,52.1092503 C34.7483852,52.836959 32.7833692,51.6542434 32.4465953,49.477897 L29.387827,29.7111023 Z" transform="rotate(-20 57.904 32.156)"/>
          <path fill="#839928" d="M3.89515424,38.9480803 C3.01320596,40.9723722 2.45531255,44.3962791 2.64890507,46.5937815 L4.01471045,62.0972762 C4.20837433,64.2955885 6.05167896,66.6528011 8.15226778,67.3692226 L23.5113469,72.6075514 C25.6027928,73.3208546 27.9864259,72.2450229 28.8338444,70.2082096 L50.762646,17.5012234 C51.6107342,15.4628003 50.6319609,13.1343465 48.5851327,12.3039809 L24.1855366,2.40545212 C22.134841,1.57351747 19.7599744,2.53435055 18.8755151,4.56440585 L3.89515424,38.9480803 Z"/>
          <path fill="#758D10" d="M17.8571655,75.240341 C18.8266778,77.2303541 21.4127002,78.8623759 23.6152717,78.8853765 L20.9269258,78.8573031 C23.1375278,78.8803876 25.906723,77.3971963 27.1130049,75.5431065 L52.1148155,37.1146062 C53.3206907,35.2611415 52.7354445,32.8848351 50.8050407,31.8055287 L34.7914506,22.852184 C32.8622067,21.7735262 30.3099644,22.3910053 29.0929089,24.2282658 L10.5035823,52.290615 C9.28560848,54.1292619 9.08486767,57.2343937 10.0537029,59.223017 L17.8571655,75.240341 Z"/>
          <path fill="#6D8700" d="M3.32688593,21.404507 C4.39400633,19.4685248 6.85011324,18.7229724 8.81606248,19.7409821 L68.7412615,50.7715059 C70.7057296,51.7887487 71.4295561,54.1752816 70.3557998,56.1058842 L63.5144257,68.4066038 C62.4416425,70.3354569 59.9725036,71.1081369 57.9881927,70.1268663 L5.35686176,44.0999074 C3.37759076,43.1211291 1.60245219,40.542747 1.39326948,38.354432 L0.678050721,30.8723417 C0.468290153,28.6779816 1.16235673,25.3314209 2.23043803,23.3936954 L3.32688593,21.404507 Z"/>
          <path fill="#869D29" d="M51.6078252,69.7944721 C50.1712987,72.8293485 49.0096733,75.2834552 49.0096733,75.2834552 C48.0644779,77.2803214 49.0872155,78.8991011 51.2969315,78.899101 C51.2969315,78.899101 67.8662117,78.8991001 73.9604239,78.8991001 C80.0546361,78.8991001 79.1650475,76.5185063 79.1650475,76.5185063 C79.9929482,74.5066586 80.8486184,71.0961429 81.0773815,68.8898991 L84.8849586,32.1687558 C85.1132107,29.96744 83.5298221,27.8701542 81.353751,27.4852902 L76.3297281,26.596732 C74.1512439,26.2114411 71.6212509,27.5131281 70.6731968,29.5160337 L51.6078252,69.7944721 Z"/>
          <path fill="#90A72F" d="M3.95889822,43.4819703 C3.04174511,45.4949599 2.43839536,48.9171948 2.61022988,51.1123458 L2.46195101,49.2181135 C2.63425516,51.4192639 4.35397393,54.0400225 6.305207,55.0728833 L44.0070236,75.0298668 C45.9572911,76.0622165 48.3121244,75.2905368 49.273043,73.2930681 L56.563498,58.1383442 C57.5215726,56.1467872 56.7249279,53.6867495 54.771739,52.6370303 L14.1296141,30.7943821 C12.1819782,29.7476474 9.85879759,30.5327301 8.94245479,32.5439412 L3.95889822,43.4819703 Z"/>
        </g>
      </g>
    </g>
    <use fill="url(#user-trash-full-128px-h)" fill-rule="nonzero" transform="translate(13 13)" xlink:href="#user-trash-full-128px-i"/>
    <path fill="#354F00" fill-opacity=".8" d="M65.0949203,46.8403101 C59.557614,35.4736196 53.7328178,44.6266658 53.7328178,44.6266658 L49.3163057,52.4158749 L58.4076543,57.7012616 L65.0949203,46.8403101 Z M84.7567323,43.358173 L79.8569038,46.1190103 L78.0611333,42.9643598 C78.0611333,42.9643598 76.6736818,39.681202 69.828088,40.0252703 C69.828088,40.0252703 61.3450515,40.2615582 60.4617491,40.0998875 C60.4617491,40.0998875 62.8658316,40.5724633 64.0616231,42.4254577 L69.4781003,51.9598807 L65.5199054,54.1818159 L78.802774,54.4678486 L84.7567323,43.358173 Z M52.1995382,70.8504747 C45.3289452,81.4585567 56.2202308,81.6616813 56.2202308,81.6616813 L65.1907503,81.3673579 L65.0115899,70.8919287 L52.1995382,70.8504747 Z M39,55.9519022 L43.9164946,58.6795763 L42.1332237,61.8425175 C42.1332237,61.8425175 40.0416302,64.7360077 43.895662,70.3654627 C43.895662,70.3654627 48.5163337,77.4623898 48.8246562,78.2956155 C48.8246562,78.2956155 47.9788525,76.0073539 48.9496519,74.0258521 L54.3244638,64.4665566 L58.2951582,66.6677647 L51.6328913,55.2347478 L39,55.9519022 Z M80.4443832,69.2627859 C93.1064402,70.058703 87.9691199,60.5076983 87.9691199,60.5076983 L83.3317822,52.851142 L74.2321006,58.1240925 L80.4443832,69.2627859 Z M67.0156864,77.3753364 L73.8071155,66.0127913 L73.8071155,70.543715 L84.8108971,70.543715 C87.0233197,70.4193529 88.6190972,68.5663585 88.6190972,68.5663585 C88.0399508,69.2379135 84.0650899,76.7162176 84.0650899,76.7162176 C81.0068635,82.8099575 77.4486547,82.4037082 77.4486547,82.4037082 L73.8071155,82.4037082 L73.8071155,88 L67.0156864,77.3753364 Z"/>
  </g>
</svg>
