<?xml version="1.0" encoding="UTF-8"?>
<svg width="64px" height="64px" viewBox="0 0 64 64" version="1.1" xmlns="http://www.w3.org/2000/svg" xmlns:xlink="http://www.w3.org/1999/xlink">
    <title>devices/64/camera</title>
    <defs>
        <filter x="-8.3%" y="-9.5%" width="116.7%" height="123.8%" filterUnits="objectBoundingBox" id="filter-1">
            <feOffset dx="0" dy="1" in="SourceAlpha" result="shadowOffsetOuter1"></feOffset>
            <feGaussianBlur stdDeviation="1.5" in="shadowOffsetOuter1" result="shadowBlurOuter1"></feGaussianBlur>
            <feColorMatrix values="0 0 0 0 0   0 0 0 0 0   0 0 0 0 0  0 0 0 0.2 0" type="matrix" in="shadowBlurOuter1" result="shadowMatrixOuter1"></feColorMatrix>
            <feMerge>
                <feMergeNode in="shadowMatrixOuter1"></feMergeNode>
                <feMergeNode in="SourceGraphic"></feMergeNode>
            </feMerge>
        </filter>
        <linearGradient x1="0%" y1="50%" x2="100%" y2="50%" id="linearGradient-2">
            <stop stop-color="#BBBBBB" offset="0%"></stop>
            <stop stop-color="#BBBBBB" offset="23.1006856%"></stop>
            <stop stop-color="#858585" offset="100%"></stop>
        </linearGradient>
        <linearGradient x1="44.1553743%" y1="0%" x2="44.1553742%" y2="100%" id="linearGradient-3">
            <stop stop-color="#ABB5C0" offset="0%"></stop>
            <stop stop-color="#7E8A97" offset="100%"></stop>
        </linearGradient>
        <linearGradient x1="0%" y1="50%" x2="100%" y2="50%" id="linearGradient-4">
            <stop stop-color="#8D959E" offset="0%"></stop>
            <stop stop-color="#ABB5C0" offset="4.36645508%"></stop>
            <stop stop-color="#9BA4AD" offset="9.1015625%"></stop>
            <stop stop-color="#7E8A97" offset="100%"></stop>
        </linearGradient>
        <linearGradient x1="50%" y1="0.269052934%" x2="50%" y2="100%" id="linearGradient-5">
            <stop stop-color="#FFFFFF" offset="0%"></stop>
            <stop stop-color="#FFFFFF" stop-opacity="0" offset="100%"></stop>
        </linearGradient>
    </defs>
    <g id="devices/64/camera" stroke="none" stroke-width="1" fill="none" fill-rule="evenodd">
        <g id="Group-2" filter="url(#filter-1)" transform="translate(2, 11)">
            <path d="M11,0 C14.3137085,-6.08718376e-16 17,2.6862915 17,6 L17,6 L17,6 L5,6 C5,2.6862915 7.6862915,6.08718376e-16 11,0 Z" id="Rectangle-157" fill="url(#linearGradient-2)"></path>
            <path d="M5.00545263,3 L54.9945474,3 C57.7589825,3 60,5.24101748 60,8.00545263 L60,36.9945474 C60,39.7589825 57.7589825,42 54.9945474,42 L5.00545263,42 C2.24101748,42 1.22672409e-15,39.7589825 8.8817842e-16,36.9945474 L0,8.00545263 C-3.38545666e-16,5.24101748 2.24101748,3 5.00545263,3 Z" id="Rectangle-145" fill="url(#linearGradient-3)"></path>
            <path d="M5.00545263,4 L54.9945474,4 C57.7589825,4 60,6.24101748 60,9.00545263 L60,36.9945474 C60,39.7589825 57.7589825,42 54.9945474,42 L5.00545263,42 C2.24101748,42 2.11490251e-15,39.7589825 1.77635684e-15,36.9945474 L8.8817842e-16,9.00545263 C5.49632753e-16,6.24101748 2.24101748,4 5.00545263,4 Z" id="Rectangle-145" fill="url(#linearGradient-4)"></path>
            <circle id="Oval-23" fill="#CDD1D5" cx="39.5520733" cy="23.0438924" r="15.5725196"></circle>
            <path d="M56.60769,22.8214284 C56.60769,32.6505314 48.6396277,40.8410577 38.8105247,40.9893652 C28.9814218,40.8410577 21.0133595,32.6505314 21.0133595,22.8214284 C21.0133595,22.6975373 21.0146254,22.5739418 21.017145,22.4506542 C21.2145224,32.1085842 29.1053129,39.8770452 38.8105247,39.8770452 C48.5157365,39.8770452 56.406527,32.1085842 56.6039045,22.4506542 C56.6064241,22.5739418 56.60769,22.6975373 56.60769,22.8214284 Z" id="Combined-Shape" fill="#6B7784"></path>
            <circle id="Oval-23" fill="#CDD1D5" cx="38.8105247" cy="22.3023439" r="17.7971653"></circle>
            <path d="M38.8105247,4.50517863 C48.6396277,4.50517863 56.60769,12.4732409 56.60769,22.3023439 C56.60769,22.4262105 56.6064246,22.5497816 56.603906,22.6730449 C56.4060889,13.0147568 48.5154671,5.24672719 38.8105247,5.24672719 C29.1055824,5.24672719 21.2149606,13.0147568 21.0171615,22.6723138 C21.0146249,22.5497816 21.0133595,22.4262105 21.0133595,22.3023439 C21.0133595,12.4732409 28.9814218,4.50517863 38.8105247,4.50517863 Z" id="Combined-Shape" fill="#DFE4E8"></path>
            <circle id="Oval-23" fill="#ADACAC" cx="38.8105247" cy="22.3023439" r="14.4393408"></circle>
            <circle id="Oval-23" fill="#868686" cx="38.8105247" cy="22.3023439" r="13.7528288"></circle>
            <circle id="Oval-23" fill="#EAEDF0" cx="38.8105247" cy="22.3023439" r="12.9933209"></circle>
            <path d="M51.8009289,22.5804246 C51.8028701,22.4879653 51.8038456,22.3952685 51.8038456,22.3023439 C51.8038456,15.1263309 45.9865377,9.30902301 38.8105247,9.30902301 C31.6345118,9.30902301 25.8172038,15.1263309 25.8172038,22.3023439 C25.8172038,22.3952685 25.8181793,22.4879653 25.8201206,22.5804246 C25.9680923,15.5328072 31.7274364,9.86518442 38.8105247,9.86518442 C45.8936131,9.86518442 51.6529572,15.5328072 51.8009289,22.5804246 L51.8009289,22.5804246 Z" id="Combined-Shape" fill="#FFFFFF"></path>
            <circle id="Oval-23" fill="#B3B4B5" cx="38.8105247" cy="22.3023439" r="9.64013118"></circle>
            <path d="M48.4467222,22.5804246 C48.4493388,22.4880504 48.4506559,22.395351 48.4506559,22.3023439 C48.4506559,16.9782465 44.1346222,12.6622127 38.8105247,12.6622127 C33.4864273,12.6622127 29.1703935,16.9782465 29.1703935,22.3023439 C29.1703935,22.395351 29.1717107,22.4880504 29.1743273,22.5804246 C29.3214954,17.3849307 33.5794344,13.2183741 38.8105247,13.2183741 C44.0416151,13.2183741 48.299554,17.3849307 48.4467222,22.5804246 L48.4467222,22.5804246 Z" id="Combined-Shape" fill="#9A9A9A"></path>
            <path d="M48.4467222,32.0351686 C48.4493388,31.9427945 48.4506559,31.850095 48.4506559,31.7570879 C48.4506559,26.4329905 44.1346222,22.1169568 38.8105247,22.1169568 C33.4864273,22.1169568 29.1703935,26.4329905 29.1703935,31.7570879 C29.1703935,31.850095 29.1717107,31.9427945 29.1743273,32.0351686 C29.3214954,26.8396748 33.5794344,22.6731182 38.8105247,22.6731182 C44.0416151,22.6731182 48.299554,26.8396748 48.4467222,32.0351686 L48.4467222,32.0351686 Z" id="Combined-Shape" fill="#FFFFFF" transform="translate(38.8105, 27.0761) scale(1, -1) translate(-38.8105, -27.0761)"></path>
            <rect id="Rectangle-156" fill="#7F8FA0" x="12" y="7" width="12" height="2" rx="1"></rect>
            <rect id="Rectangle-156" fill="#E8EEFF" x="12" y="6" width="12" height="2" rx="1"></rect>
            <rect id="Rectangle-158" fill="#615A5E" x="33" y="18" width="12" height="9" rx="4.5"></rect>
            <circle id="Oval-29" fill="#2AAB14" cx="55.0226297" cy="7.3694097" r="1.11232283"></circle>
            <circle id="Oval-29" fill="#3DDF23" cx="55.0226297" cy="7.3694097" r="1"></circle>
            <ellipse id="Oval-29" fill="url(#linearGradient-5)" cx="55.0226297" cy="7.174753" rx="1" ry="1"></ellipse>
            <g id="Group" transform="translate(35.245, 18.8254)">
                <circle id="Oval-28" fill="#434343" cx="3.75504333" cy="3.75504333" r="3.00403466"></circle>
                <circle id="Oval-28" fill="#2E2E2E" cx="3.75504333" cy="3.75504333" r="2.253026"></circle>
                <circle id="Oval-28" fill="#000000" cx="3.75504333" cy="3.75504333" r="1.50201733"></circle>
                <path d="M3.75504333,7.51008665 C5.82889649,7.51008665 7.51008665,5.82889649 7.51008665,3.75504333 C7.51008665,1.68119016 5.82889649,0 3.75504333,0 C1.68119016,0 0,1.68119016 0,3.75504333 C0,5.82889649 1.68119016,7.51008665 3.75504333,7.51008665 Z" id="Oval-28" fill="#7ED321" opacity="0.255946828"></path>
            </g>
        </g>
        <g id="Guide/64" transform="translate(2, 2)"></g>
    </g>
</svg>