<?xml version="1.0" encoding="UTF-8"?>
<svg width="64px" height="64px" viewBox="0 0 64 64" version="1.1" xmlns="http://www.w3.org/2000/svg" xmlns:xlink="http://www.w3.org/1999/xlink">
    <title>devices/64/computer</title>
    <defs>
        <filter x="-8.6%" y="-8.0%" width="117.2%" height="120.0%" filterUnits="objectBoundingBox" id="filter-1">
            <feOffset dx="0" dy="1" in="SourceAlpha" result="shadowOffsetOuter1"></feOffset>
            <feGaussianBlur stdDeviation="1.5" in="shadowOffsetOuter1" result="shadowBlurOuter1"></feGaussianBlur>
            <feColorMatrix values="0 0 0 0 0   0 0 0 0 0   0 0 0 0 0  0 0 0 0.2 0" type="matrix" in="shadowBlurOuter1" result="shadowMatrixOuter1"></feColorMatrix>
            <feMerge>
                <feMergeNode in="shadowMatrixOuter1"></feMergeNode>
                <feMergeNode in="SourceGraphic"></feMergeNode>
            </feMerge>
        </filter>
        <linearGradient x1="50%" y1="100%" x2="50%" y2="0%" id="linearGradient-2">
            <stop stop-color="#CFDAFC" offset="0%"></stop>
            <stop stop-color="#CDCFD2" offset="100%"></stop>
        </linearGradient>
        <polygon id="path-3" points="24 44 34 44 34 50 24 50"></polygon>
        <filter x="-10.0%" y="-16.7%" width="120.0%" height="133.3%" filterUnits="objectBoundingBox" id="filter-4">
            <feGaussianBlur stdDeviation="0.5" in="SourceAlpha" result="shadowBlurInner1"></feGaussianBlur>
            <feOffset dx="0" dy="1" in="shadowBlurInner1" result="shadowOffsetInner1"></feOffset>
            <feComposite in="shadowOffsetInner1" in2="SourceAlpha" operator="arithmetic" k2="-1" k3="1" result="shadowInnerInner1"></feComposite>
            <feColorMatrix values="0 0 0 0 0.305544245   0 0 0 0 0.316030326   0 0 0 0 0.533769248  0 0 0 0.178130463 0" type="matrix" in="shadowInnerInner1"></feColorMatrix>
        </filter>
        <linearGradient x1="50%" y1="0%" x2="50%" y2="80.1038369%" id="linearGradient-5">
            <stop stop-color="#FFFFFF" offset="0%"></stop>
            <stop stop-color="#EBF4FF" offset="100%"></stop>
        </linearGradient>
        <path d="M20,48 L38,48 C38.5522847,48 39,48.4477153 39,49 C39,49.5522847 38.5522847,50 38,50 L20,50 C19.4477153,50 19,49.5522847 19,49 C19,48.4477153 19.4477153,48 20,48 Z" id="path-6"></path>
        <filter x="-2.5%" y="-25.0%" width="105.0%" height="150.0%" filterUnits="objectBoundingBox" id="filter-7">
            <feOffset dx="0" dy="-1" in="SourceAlpha" result="shadowOffsetInner1"></feOffset>
            <feComposite in="shadowOffsetInner1" in2="SourceAlpha" operator="arithmetic" k2="-1" k3="1" result="shadowInnerInner1"></feComposite>
            <feColorMatrix values="0 0 0 0 0   0 0 0 0 0   0 0 0 0 0  0 0 0 0.168651661 0" type="matrix" in="shadowInnerInner1"></feColorMatrix>
        </filter>
        <linearGradient x1="39.598747%" y1="21.2247325%" x2="75.3018846%" y2="78.7752675%" id="linearGradient-8">
            <stop stop-color="#D7E4FF" offset="0%"></stop>
            <stop stop-color="#F4F9FF" offset="100%"></stop>
        </linearGradient>
        <path d="M6.25,0 L51.75,8.8817842e-16 C55.2017797,2.54096778e-16 58,2.79822031 58,6.25 L58,37.75 C58,41.2017797 55.2017797,44 51.75,44 L6.25,44 C2.79822031,44 -4.018171e-15,41.2017797 -4.4408921e-15,37.75 L0,6.25 C-4.22721094e-16,2.79822031 2.79822031,1.52226006e-15 6.25,8.8817842e-16 Z" id="path-9"></path>
        <filter x="-0.9%" y="-1.1%" width="101.7%" height="102.3%" filterUnits="objectBoundingBox" id="filter-10">
            <feOffset dx="0" dy="-1" in="SourceAlpha" result="shadowOffsetInner1"></feOffset>
            <feComposite in="shadowOffsetInner1" in2="SourceAlpha" operator="arithmetic" k2="-1" k3="1" result="shadowInnerInner1"></feComposite>
            <feColorMatrix values="0 0 0 0 0   0 0 0 0 0   0 0 0 0 0  0 0 0 0.12 0" type="matrix" in="shadowInnerInner1" result="shadowMatrixInner1"></feColorMatrix>
            <feOffset dx="0" dy="1" in="SourceAlpha" result="shadowOffsetInner2"></feOffset>
            <feComposite in="shadowOffsetInner2" in2="SourceAlpha" operator="arithmetic" k2="-1" k3="1" result="shadowInnerInner2"></feComposite>
            <feColorMatrix values="0 0 0 0 1   0 0 0 0 1   0 0 0 0 1  0 0 0 1 0" type="matrix" in="shadowInnerInner2" result="shadowMatrixInner2"></feColorMatrix>
            <feMerge>
                <feMergeNode in="shadowMatrixInner1"></feMergeNode>
                <feMergeNode in="shadowMatrixInner2"></feMergeNode>
            </feMerge>
        </filter>
        <linearGradient x1="46.8261315%" y1="0.564822635%" x2="46.8261315%" y2="99.6640703%" id="linearGradient-11">
            <stop stop-color="#4F5D73" offset="0%"></stop>
            <stop stop-color="#313A46" offset="100%"></stop>
        </linearGradient>
        <path d="M4.5,0 L49.5,0 C51.9852814,-4.56538782e-16 54,2.01471863 54,4.5 L54,35.5 C54,37.9852814 51.9852814,40 49.5,40 L4.5,40 C2.01471863,40 3.04359188e-16,37.9852814 0,35.5 L0,4.5 C-3.04359188e-16,2.01471863 2.01471863,4.56538782e-16 4.5,0 Z" id="path-12"></path>
        <linearGradient x1="0%" y1="50%" x2="100%" y2="50%" id="linearGradient-14">
            <stop stop-color="#A09AD3" offset="0%"></stop>
            <stop stop-color="#988DD9" offset="49.6179452%"></stop>
            <stop stop-color="#1654D2" offset="100%"></stop>
        </linearGradient>
    </defs>
    <g id="devices/64/computer" stroke="none" stroke-width="1" fill="none" fill-rule="evenodd">
        <g id="矩形" filter="url(#filter-1)" transform="translate(3, 8)">
            <g>
                <use fill="url(#linearGradient-2)" fill-rule="evenodd" xlink:href="#path-3"></use>
                <use fill="black" fill-opacity="1" filter="url(#filter-4)" xlink:href="#path-3"></use>
            </g>
            <g>
                <use fill="url(#linearGradient-5)" fill-rule="evenodd" xlink:href="#path-6"></use>
                <use fill="black" fill-opacity="1" filter="url(#filter-7)" xlink:href="#path-6"></use>
            </g>
            <g id="蒙版">
                <use fill="url(#linearGradient-8)" fill-rule="evenodd" xlink:href="#path-9"></use>
                <use fill="black" fill-opacity="1" filter="url(#filter-10)" xlink:href="#path-9"></use>
            </g>
            <g id="kevin-lanceplaine-243768-unsplash" transform="translate(2, 2)">
                <mask id="mask-13" fill="white">
                    <use xlink:href="#path-12"></use>
                </mask>
                <use id="蒙版" fill="url(#linearGradient-11)" xlink:href="#path-12"></use>
                <g id="编组" mask="url(#mask-13)">
                    <g transform="translate(-1.875, -6.75)">
                        <path d="M42.046625,5.375 C37.1428014,16.7251734 35.1640655,23.0261887 36.1104175,24.2780461 C37.5299454,26.1558321 37.0137534,30.91289 35.0780336,33.5417905 C33.1423137,36.1706909 27.0770581,37.9232912 26.4318182,40.0514487 C25.7865782,42.1796062 9.52653141,43.6818351 7.97795552,45.4344354 C6.42937963,47.1870357 9.13938744,46.561107 9.13938744,47.1870357 C9.13938744,47.6043214 24.9262583,47.6043214 56.5,47.1870357 L56.5,5.375 L42.046625,5.375 Z" id="路径-3" fill="#1C4186"></path>
                        <path d="M42.7830242,5.6290731 C45.1930558,5.6290731 44.6335842,8.96482012 41.1046094,15.6363142 C35.8111471,25.6435552 34.261841,29.3962706 32.712535,32.0231714 C31.1632289,34.6500722 24.0622429,45.2827658 21.0927397,46.1583994 C18.1232365,47.034033 9.86027092,46.4085804 8.18185604,46.4085804 C7.06291279,46.4085804 7.32113047,34.8585564 8.95650906,11.7585082 L20.059869,0 L42.7830242,5.6290731 Z" id="路径-2" fill="#E080A9"></path>
                        <path d="M20.125,4.625 C18.4881757,7.45833333 18.0143581,11.4166667 18.7035473,16.5 C19.7373311,24.125 12.8885135,32.125 14.3099662,37.875 C15.7314189,43.625 8.375,49.25 8.375,49.25 C8.375,49.25 5.91666667,47.9583333 1,45.375 L0,10.5 L4.23057432,3.625 L20.125,4.625 Z" id="路径" fill="#101852"></path>
                        <path d="M39.0048961,15.088302 C36.0917531,17.2276965 34.6351817,19.6149292 34.6351817,22.25 C34.6351817,27.375 32.0575026,33.125 27.8043322,34.5 C23.5511617,35.875 19.1691073,35.5 18.1380357,39.5 C17.1069641,43.5 14.0137492,40.25 12.3382578,41.875 C10.6627664,43.5 11.0582593,47 9.125,47.625 C7.83616047,48.0416667 16.6832449,47.875 35.6662533,47.125 C36.8691702,39.375 39.7046171,33.9166667 44.1725942,30.75 C50.8745597,26 38.1150484,24.625 43.3992905,20.5 C46.9221185,17.75 47.1640217,12.7083333 44.125,5.375 L43.1059301,9.11619517 C42.4528789,11.5131243 41.0076863,13.6184114 39.005635,15.0893077 Z" id="路径-4" fill="#7A6C9F"></path>
                    </g>
                </g>
                <g id="编组-2" mask="url(#mask-13)">
                    <g transform="translate(2, 32)">
                        <rect id="bg" fill="url(#linearGradient-14)" x="0" y="0" width="50" height="5" rx="1.25"></rect>
                        <rect id="矩形" fill="#00C98F" x="6" y="1" width="3" height="3" rx="0.625"></rect>
                        <rect id="矩形备份-2" fill="#75FFAC" x="18" y="1" width="3" height="3" rx="0.625"></rect>
                        <rect id="矩形备份" fill="#FF7D52" x="10" y="1" width="3" height="3" rx="0.625"></rect>
                        <rect id="矩形备份-3" fill="#FFB656" x="22" y="1" width="3" height="3" rx="0.625"></rect>
                        <rect id="矩形备份-7" fill="#FF796E" x="30" y="1" width="3" height="3" rx="0.625"></rect>
                        <rect id="矩形备份-4" fill-opacity="0.3" fill="#000000" x="45" y="1" width="3" height="3" rx="0.625"></rect>
                        <rect id="矩形备份-6" fill-opacity="0.3" fill="#000000" x="41" y="1" width="3" height="3" rx="0.625"></rect>
                        <rect id="矩形备份-8" fill-opacity="0.3" fill="#000000" x="37" y="1" width="3" height="3" rx="0.625"></rect>
                        <circle id="椭圆形" fill="#326CFF" cx="3.5" cy="2.5" r="1.5"></circle>
                        <circle id="椭圆形备份" fill="#482AC5" cx="27.5" cy="2.5" r="1.5"></circle>
                    </g>
                </g>
            </g>
        </g>
    </g>
</svg>