<svg xmlns="http://www.w3.org/2000/svg" width="64" height="64" viewBox="0 0 64 64">
  <defs>
    <filter id="ios-device-64px-a" width="153.3%" height="129.6%" x="-26.7%" y="-14.8%" filterUnits="objectBoundingBox">
      <feOffset dy="1" in="SourceAlpha" result="shadowOffsetOuter1"/>
      <feGaussianBlur in="shadowOffsetOuter1" result="shadowBlurOuter1" stdDeviation="1.5"/>
      <feComposite in="shadowBlurOuter1" in2="SourceAlpha" operator="out" result="shadowBlurOuter1"/>
      <feColorMatrix in="shadowBlurOuter1" result="shadowMatrixOuter1" values="0 0 0 0 0   0 0 0 0 0   0 0 0 0 0  0 0 0 0.2 0"/>
      <feMerge>
        <feMergeNode in="shadowMatrixOuter1"/>
        <feMergeNode in="SourceGraphic"/>
      </feMerge>
    </filter>
  </defs>
  <g fill="none" fill-rule="evenodd" filter="url(#ios-device-64px-a)" transform="translate(17 5)">
    <rect width="30" height="54" fill="silver" rx="5"/>
    <path fill="#000" d="M1,4.99400932 C1,2.78817888 2.79412031,1 4.996839,1 L25.0031619,1 C27.2105552,1 29.0000009,2.7899577 29.0000009,4.99400932 L29.0000001,49.0059907 C29.0000001,51.2118211 27.2058798,53 25.0031612,53 L4.99683888,53 C2.78944572,53 1,51.2100423 1,49.0059907 L1,4.99400932 Z"/>
    <circle cx="9.75" cy="2.917" r="1" fill="#A4A4A4"/>
    <circle cx="19.833" cy="3" r="1" fill="#A4A4A4"/>
    <path stroke="#979797" stroke-linecap="round" d="M11.8333333,3 L17.8333333,3"/>
    <path fill="#232323" d="M7.25925926,3.0879315 L7.25925926,3.20187369 C7.25925926,4.14988284 8.01374235,4.9183961 8.94444444,4.9183961 L20.5740741,4.9183961 C21.5047761,4.9183961 22.2592593,4.14988284 22.2592593,3.20187369 L22.2592593,2.99725696 C22.2592593,2.45799467 22.6866344,2.01986877 23.2160409,2.01640722 L24.1496209,2.00000638 C26.2761266,1.98697532 28,3.7341603 28,5.90111446 L28,48.0748255 C28,50.2427244 26.273932,52.0001537 24.1496209,52.0001537 C22.7334135,52.0001537 16.6336663,52.0001537 5.85037916,52.0001537 C3.72387347,52.0001537 2,50.2440626 2,48.0776669 L2,6.0670299 C2,3.9007003 3.72606809,2.13333986 5.85037916,2.1195517 L6.29016027,2.10708146 C6.82197923,2.10362961 7.25585088,2.53997285 7.25923971,3.08168137 C7.26262854,3.62338988 7.25925926,2.54621198 7.25925926,3.0879315 Z"/>
  </g>
</svg>
