<?xml version="1.0" encoding="UTF-8" standalone="no"?>
<svg width="48px" height="48px" viewBox="0 0 48 48" version="1.1" xmlns="http://www.w3.org/2000/svg" xmlns:xlink="http://www.w3.org/1999/xlink">
    <!-- Generator: Sketch 39.1 (31720) - http://www.bohemiancoding.com/sketch -->
    <title>垃圾桶 普通</title>
    <desc>Created with Sketch.</desc>
    <defs>
        <linearGradient x1="50%" y1="0%" x2="50%" y2="100%" id="linearGradient-1">
            <stop stop-color="#748294" offset="0%"></stop>
            <stop stop-color="#475261" offset="100%"></stop>
        </linearGradient>
    </defs>
    <g id="Page-1" stroke="none" stroke-width="1" fill="none" fill-rule="evenodd">
        <g id="垃圾桶-普通">
            <g id="鲨鱼垃圾桶-普通" transform="translate(5.000000, 2.000000)">
                <circle id="Oval-223" stroke="#FFC93B" stroke-width="1.5" fill="#FFCD44" cx="19.019043" cy="23.173584" r="19"></circle>
                <g id="Group-26" transform="translate(2.000000, 0.651367)">
                    <polygon id="Path-346" fill="#E5603E" points="2.5 27.3486328 9 15.8486328 25 16.3486328 31 27.8486328"></polygon>
                    <polygon id="Triangle-7" fill="#FFFFFF" transform="translate(20.773454, 17.792594) scale(-1, 1) rotate(161.000000) translate(-20.773454, -17.792594) " points="20.7734538 14.599899 22.3698012 20.985289 19.1771063 20.985289"></polygon>
                    <polygon id="Triangle-7" fill="#FFFFFF" transform="translate(24.187517, 19.022982) scale(-1, 1) rotate(161.000000) translate(-24.187517, -19.022982) " points="24.1875172 15.830287 25.7838647 22.2156769 22.5911697 22.2156769"></polygon>
                    <polygon id="Triangle-7" fill="#FFFFFF" points="18.5949123 14.2414658 15.4022173 14.2414658 16.9985648 20.6268558"></polygon>
                    <polygon id="Triangle-7" fill="#FFFFFF" transform="translate(13.005875, 17.859823) rotate(161.000000) translate(-13.005875, -17.859823) " points="13.0058748 14.667128 14.6022222 21.052518 11.4095273 21.052518"></polygon>
                    <polygon id="Triangle-7" fill="#FFFFFF" transform="translate(21.306024, 24.341951) scale(1, -1) rotate(161.000000) translate(-21.306024, -24.341951) " points="21.3060243 21.1492558 22.9023718 27.5346457 19.7096768 27.5346457"></polygon>
                    <polygon id="Triangle-7" fill="#FFFFFF" transform="translate(18.290853, 23.889081) scale(1, -1) rotate(168.000000) translate(-18.290853, -23.889081) " points="18.2908528 20.6963857 19.8872003 27.0817756 16.6945053 27.0817756"></polygon>
                    <polygon id="Triangle-7" fill="#FFFFFF" transform="translate(15.489645, 23.778981) scale(-1, -1) rotate(168.000000) translate(-15.489645, -23.778981) " points="15.4896449 20.586286 17.0859924 26.971676 13.8932974 26.971676"></polygon>
                    <polygon id="Triangle-7" fill="#FFFFFF" transform="translate(12.601721, 24.153515) scale(-1, -1) rotate(161.000000) translate(-12.601721, -24.153515) " points="12.6017214 20.9608197 14.1980688 27.3462097 11.0053739 27.3462097"></polygon>
                    <polygon id="Triangle-7" fill="#FFFFFF" transform="translate(9.706588, 19.022982) rotate(161.000000) translate(-9.706588, -19.022982) " points="9.70658773 15.830287 11.3029352 22.2156769 8.11024025 22.2156769"></polygon>
                    <polygon id="Triangle-7" fill="#FFFFFF" transform="translate(8.115860, 25.566771) scale(1, -1) rotate(202.000000) translate(-8.115860, -25.566771) " points="8.11586047 22.3740765 9.71220796 28.7594664 6.51951298 28.7594664"></polygon>
                    <polygon id="Triangle-7" fill="#FFFFFF" transform="translate(25.051811, 25.512988) scale(-1, -1) rotate(203.000000) translate(-25.051811, -25.512988) " points="25.0518114 22.3202933 26.6481589 28.7056832 23.455464 28.7056832"></polygon>
                    <path d="M0.5,33.3486328 C0.5,33.3486328 1.07644122,26.0514342 3.74839336,18.3829341 C6.70683546,9.89220805 12.0083069,0.946289062 17,0.946289062 C21.9984748,0.946289063 27.3048513,9.91653257 30.2636573,18.4175383 C32.928298,26.0733718 33.5,33.3486328 33.5,33.3486328 C33.5,33.3486328 28.5,42.3486328 17,42.3486328 C5.5,42.3486328 0.5,33.3486328 0.5,33.3486328 Z M16.460236,23.4932225 C10.0063598,23.4932225 3.68945614,26.6859172 3.68945614,26.6859172 C3.68945614,26.6859172 16.460236,5.93339995 29.2310159,26.6859172 C29.2310159,26.6859171 22.7756379,23.4932224 16.460236,23.4932225 Z" id="Combined-Shape" fill="url(#linearGradient-1)"></path>
                </g>
            </g>
        </g>
    </g>
</svg>