<svg xmlns="http://www.w3.org/2000/svg" width="20" height="20" viewBox="0 0 20 20">
  <path fill-rule="evenodd" d="M8.73878388,11.0142829 C9.15299744,11.0142829 9.48878388,11.3500694 9.48878388,11.7642829 C9.48878388,12.1784965 9.15299744,12.5142829 8.73878388,12.5142829 C8.32457032,12.5142829 7.98878388,12.1784965 7.98878388,11.7642829 C7.98878388,11.3500694 8.32457032,11.0142829 8.73878388,11.0142829 Z M16.1241934,1.93386652 C17.3671358,3.51254099 17.9985198,5.07382921 17.9985198,6.61304941 C17.9985198,8.1522696 17.3671358,9.71355782 16.1241934,11.2922323 C15.9533696,11.5091974 15.6390046,11.5466023 15.4220396,11.3757786 C15.2050745,11.2049548 15.1676695,10.8905898 15.3384933,10.6736247 C16.4517862,9.25961947 16.9985198,7.90765496 16.9985198,6.61304941 C16.9985198,5.31844385 16.4517862,3.96647934 15.3384933,2.5524741 C15.1676695,2.335509 15.2050745,2.02114402 15.4220396,1.85032025 C15.6390046,1.67949649 15.9533696,1.71690143 16.1241934,1.93386652 Z M2.61431957,1.85032025 C2.83128466,2.02114402 2.8686896,2.335509 2.69786583,2.5524741 C1.58457293,3.96647934 1.0378393,5.31844385 1.0378393,6.61304941 C1.0378393,7.90765496 1.58457293,9.25961947 2.69786583,10.6736247 C2.8686896,10.8905898 2.83128466,11.2049548 2.61431957,11.3757786 C2.39735447,11.5466023 2.08298949,11.5091974 1.91216572,11.2922323 C0.669223314,9.71355782 0.0378392951,8.1522696 0.0378392951,6.61304941 C0.0378392951,5.07382921 0.669223314,3.51254099 1.91216572,1.93386652 C2.08298949,1.71690143 2.39735447,1.67949649 2.61431957,1.85032025 Z M9.75190456,0.120703815 C11.9707814,0.503168111 13.0063921,2.42396961 12.3999392,4.25460102 C12.1573923,4.98675028 11.7000434,5.57446845 10.8412449,6.42297358 C10.7584901,6.50473656 10.6626232,6.59843859 10.4898406,6.76721324 C10.3537381,6.90057 10.2558472,6.99807243 10.164518,7.09195419 C9.94053883,7.32219325 9.77964637,7.508074 9.66151748,7.67728434 C9.34213502,8.13477454 9.11179375,8.82575361 9.21575217,9.4385063 C9.26194189,9.71075825 9.07868226,9.96890623 8.80643032,10.015096 C8.53417838,10.0612857 8.2760304,9.87802605 8.22984067,9.60577411 C8.07467393,8.69118883 8.38590902,7.75754403 8.8415615,7.10485776 C8.99600276,6.88363282 9.1892898,6.66032626 9.44773408,6.3946588 C9.57132841,6.26761016 10.0271737,5.81975394 10.1349652,5.71448279 L10.320075,5.52965304 C10.9531518,4.88583318 11.2876315,4.43228257 11.450673,3.94012743 C11.8713031,2.67041826 11.1760693,1.38093154 9.58204106,1.10617142 C7.84754496,0.807199062 6.43691925,1.80353887 6.43691925,3.08268311 C6.43691925,3.35882549 6.21306162,3.58268311 5.93691925,3.58268311 C5.66077687,3.58268311 5.43691925,3.35882549 5.43691925,3.08268311 C5.43691925,1.13943593 7.44277052,-0.277317973 9.75190456,0.120703815 Z M4.30501423,3.6619808 C4.52035487,3.83484786 4.5547865,4.14955238 4.38191943,4.36489302 C3.76296195,5.13592882 3.46294487,5.88216611 3.46294487,6.61150142 C3.46294487,7.3317804 3.75548257,8.01476975 4.36092372,8.67657153 C4.54731733,8.88031656 4.53325122,9.19658641 4.3295062,9.38298001 C4.12576118,9.56937362 3.80949133,9.55530752 3.62309772,9.3515625 C2.85645107,8.51354856 2.46294487,7.59482751 2.46294487,6.61150142 C2.46294487,5.63723167 2.84897168,4.67706102 3.60210201,3.738886 C3.77496908,3.52354536 4.0896736,3.48911373 4.30501423,3.6619808 Z M14.3573957,3.72696044 C15.1605951,4.66635954 15.5734173,5.63042624 15.5734173,6.61150142 C15.5734173,7.60186975 15.1525218,8.52448234 14.3354779,9.36300432 C14.1427651,9.560783 13.8262093,9.56488975 13.6284306,9.372177 C13.4306519,9.17946425 13.4265452,8.86290839 13.6192579,8.66512971 C14.2636132,8.00383597 14.5734173,7.32473817 14.5734173,6.61150142 C14.5734173,5.88897154 14.25554,5.1466303 13.5973401,4.37681858 C13.4178868,4.16693504 13.4425553,3.85131512 13.6524388,3.67186175 C13.8623224,3.49240838 14.1779423,3.5170769 14.3573957,3.72696044 Z" transform="translate(1 4)"/>
</svg>
