<?xml version="1.0" encoding="UTF-8"?>
<svg width="22px" height="22px" viewBox="0 0 22 22" version="1.1" xmlns="http://www.w3.org/2000/svg" xmlns:xlink="http://www.w3.org/1999/xlink">
    <!-- Generator: Sketch 41.2 (35397) - http://www.bohemiancoding.com/sketch -->
    <title>ios-device</title>
    <desc>Created with Sketch.</desc>
    <defs></defs>
    <g id="Page-1" stroke="none" stroke-width="1" fill="none" fill-rule="evenodd">
        <g id="ios-device">
            <rect id="Rectangle-134" fill="#C0C0C0" x="5" y="1" width="12" height="19" rx="1.5"></rect>
            <path d="M5.99999968,2.75240396 C5.99999967,2.33686273 6.33271757,2 6.75162499,2 L15.2483747,2 C15.6634859,2 16,2.33958144 16,2.75240396 L16,18.247596 C16,18.6631373 15.6672821,19 15.2483747,19 L6.7516253,19 C6.33651411,19 5.99999999,18.6604186 5.99999999,18.247596 L5.99999968,2.75240396 Z" id="Rectangle-134" fill="#FFFFFF"></path>
            <rect id="Rectangle-135" fill="#1A1A1A" x="7" y="5" width="8" height="12"></rect>
            <path d="M8.5,4 C8.77614237,4 9,3.77614237 9,3.5 C9,3.22385763 8.77614237,3 8.5,3 C8.22385763,3 8,3.22385763 8,3.5 C8,3.77614237 8.22385763,4 8.5,4 Z" id="Oval-21" fill="#A4A4A4"></path>
            <path d="M10.5,3.5 L12.5,3.5" id="Path-102" stroke="#979797" stroke-linecap="round"></path>
            <path d="M11,19 C11.5522847,19 12,18.5522847 12,18 C12,17.4477153 11.5522847,17 11,17 C10.4477153,17 10,17.4477153 10,18 C10,18.5522847 10.4477153,19 11,19 Z" id="Oval-3" fill="#979797"></path>
        </g>
    </g>
</svg>