<svg xmlns="http://www.w3.org/2000/svg" xmlns:xlink="http://www.w3.org/1999/xlink" width="16" height="16" viewBox="0 0 16 16">
  <defs>
    <linearGradient id="application-x-bittorrent-c" x1="50%" x2="50%" y1="0%" y2="100%">
      <stop offset="0%" stop-color="#19BD72"/>
      <stop offset="100%" stop-color="#00914F"/>
    </linearGradient>
    <path id="application-x-bittorrent-b" d="M4.0085302,15 C2.8992496,15 2,14.1029399 2,12.9941413 L2,3.00585866 C2,1.89805351 2.90195036,1 4.0085302,1 L11.9914698,1 C13.1007504,1 14,1.89706013 14,3.00585866 L14,12.9941413 C14,14.1019465 13.0980496,15 11.9914698,15 L4.0085302,15 Z"/>
    <filter id="application-x-bittorrent-a" width="133.3%" height="128.6%" x="-16.7%" y="-7.1%" filterUnits="objectBoundingBox">
      <feOffset dy="1" in="SourceAlpha" result="shadowOffsetOuter1"/>
      <feGaussianBlur in="shadowOffsetOuter1" result="shadowBlurOuter1" stdDeviation=".5"/>
      <feColorMatrix in="shadowBlurOuter1" values="0 0 0 0 0.00784313725   0 0 0 0 0.42745098   0 0 0 0 0.168627451  0 0 0 0.5 0"/>
    </filter>
  </defs>
  <g fill="none" fill-rule="evenodd">
    <use fill="#000" filter="url(#application-x-bittorrent-a)" xlink:href="#application-x-bittorrent-b"/>
    <use fill="url(#application-x-bittorrent-c)" xlink:href="#application-x-bittorrent-b"/>
    <path stroke="#FFF" d="M9.80111352,8.24129628 C9.6640873,8.09291993 9.46789495,8 9.25,8 C8.83578644,8 8.5,8.33578644 8.5,8.75 C8.5,9.16421356 8.83578644,9.5 9.25,9.5"/>
    <path stroke="#FFF" d="M9,6 C7.48121694,6 6.25,7.23121694 6.25,8.75 C6.25,10.2687831 7.48121694,11.5 9,11.5 L9,11.5"/>
    <path stroke="#FFF" d="M6.14029949 5C4.85371292 5.81773452 4 7.25570364 4 8.8930681 4 11.4388295 6.06374739 13.5025769 8.6095088 13.5025769L8.6095088 13.5025769M9.19999981 9.5L14 9.5M9 11.5L14 11.5M8.5 13.5L14 13.5"/>
  </g>
</svg>
