<svg xmlns="http://www.w3.org/2000/svg" xmlns:xlink="http://www.w3.org/1999/xlink" width="16" height="16" viewBox="0 0 16 16">
  <defs>
    <linearGradient id="audio-x-ms-wma-c" x1="50%" x2="50%" y1="0%" y2="100%">
      <stop offset="0%" stop-color="#B7EE43"/>
      <stop offset="100%" stop-color="#6AD500"/>
    </linearGradient>
    <path id="audio-x-ms-wma-b" d="M4.0085302,15 C2.8992496,15 2,14.1029399 2,12.9941413 L2,3.00585866 C2,1.89805351 2.90195036,1 4.0085302,1 L11.9914698,1 C13.1007504,1 14,1.89706013 14,3.00585866 L14,12.9941413 C14,14.1019465 13.0980496,15 11.9914698,15 L4.0085302,15 Z"/>
    <filter id="audio-x-ms-wma-a" width="133.3%" height="128.6%" x="-16.7%" y="-7.1%" filterUnits="objectBoundingBox">
      <feOffset dy="1" in="SourceAlpha" result="shadowOffsetOuter1"/>
      <feGaussianBlur in="shadowOffsetOuter1" result="shadowBlurOuter1" stdDeviation=".5"/>
      <feColorMatrix in="shadowBlurOuter1" values="0 0 0 0 0.505882353   0 0 0 0 0.741176471   0 0 0 0 0  0 0 0 0.5 0"/>
    </filter>
  </defs>
  <g fill="none" fill-rule="evenodd">
    <use fill="#000" filter="url(#audio-x-ms-wma-a)" xlink:href="#audio-x-ms-wma-b"/>
    <use fill="url(#audio-x-ms-wma-c)" xlink:href="#audio-x-ms-wma-b"/>
    <path fill="#FFF" d="M11.75,12 L13.25,12 L12.5,10 L11.75,12 Z M13.625,13 L11.375,13 L11,14 L10,14 L12,9 L13,9 L14.0062466,11.5156166 L14,14 L13.625,13 Z"/>
    <polygon fill="#FFF" points="3.95 14 3.4 11 2.85 14 2.001 14 2.002 12.856 2.85 9 3.95 9 4.5 12.012 5.05 9 6.15 9 7.25 14 6.15 14 5.6 11 5.05 14" transform="matrix(1 0 0 -1 0 23)"/>
    <polygon fill="#FFF" points="8.6 13 8 11.5 8 14 7 14 7 9 8 9 9 11.5 10 9 11 9 11 14 10 14 10 11.5 9.4 13"/>
  </g>
</svg>
