<svg xmlns="http://www.w3.org/2000/svg" xmlns:xlink="http://www.w3.org/1999/xlink" width="16" height="16" viewBox="0 0 16 16">
  <defs>
    <linearGradient id="audio-x-vorbis+ogg-c" x1="50%" x2="50%" y1="0%" y2="100%">
      <stop offset="0%" stop-color="#B7EE43"/>
      <stop offset="100%" stop-color="#6AD500"/>
    </linearGradient>
    <path id="audio-x-vorbis+ogg-b" d="M4.0085302,15 C2.8992496,15 2,14.1029399 2,12.9941413 L2,3.00585866 C2,1.89805351 2.90195036,1 4.0085302,1 L11.9914698,1 C13.1007504,1 14,1.89706013 14,3.00585866 L14,12.9941413 C14,14.1019465 13.0980496,15 11.9914698,15 L4.0085302,15 Z"/>
    <filter id="audio-x-vorbis+ogg-a" width="133.3%" height="128.6%" x="-16.7%" y="-7.1%" filterUnits="objectBoundingBox">
      <feOffset dy="1" in="SourceAlpha" result="shadowOffsetOuter1"/>
      <feGaussianBlur in="shadowOffsetOuter1" result="shadowBlurOuter1" stdDeviation=".5"/>
      <feColorMatrix in="shadowBlurOuter1" values="0 0 0 0 0.505882353   0 0 0 0 0.741176471   0 0 0 0 0  0 0 0 0.5 0"/>
    </filter>
  </defs>
  <g fill="none" fill-rule="evenodd">
    <use fill="#000" filter="url(#audio-x-vorbis+ogg-a)" xlink:href="#audio-x-vorbis+ogg-b"/>
    <use fill="url(#audio-x-vorbis+ogg-c)" xlink:href="#audio-x-vorbis+ogg-b"/>
    <path fill="#FFF" d="M8 13C7.44771525 13 7 12.5573397 7 12.0010434L7 10.9989566C7 10.4472481 7.44386482 10 8 10 8.47379516 10 8.87063119 10.325781 8.97385677 10.7696074L9.80764515 10.1442661C9.48670333 9.46646704 8.79791956 9 8 9 6.88772964 9 6 9.89761602 6 11.0048815L6 11.9951185C6 13.1061002 6.8954305 14 8 14 8.36540536 14 8.70657678 13.9031232 9 13.7337624L9 14 10 14 10 11 8 11 8 11.9951185C8 12.0531315 9 12.0010434 9 12.0010434L9 12.25C9 12.6000004 8.5 13 8 13zM12 13C11.4477153 13 11 12.5573397 11 12.0010434L11 10.9989566C11 10.4472481 11.4438648 10 12 10 12.4737952 10 12.8706312 10.325781 12.9738568 10.7696074L13.8076452 10.1442661C13.4867033 9.46646704 12.7979196 9 12 9 10.8877296 9 10 9.89761602 10 11.0048815L10 11.9951185C10 13.1061002 10.8954305 14 12 14 12.3654054 14 12.7065768 13.9031232 13 13.7337624L13 14 14 14 14 11 12 11 12 11.9951185C12 12.0531315 13 12.0010434 13 12.0010434L13 12.25C13 12.6000004 12.5 13 12 13z"/>
    <path fill="#FFF" fill-rule="nonzero" d="M4,10 C4.55305305,10 5,10.5033972 5,11.1286611 L5,11.8713389 C5,12.4971131 4.55526385,13 4,13 C3.44694695,13 3,12.4966028 3,11.8713389 L3,11.1286611 C3,10.5028869 3.44473615,10 4,10 Z M2,11.9125987 C2,13.0673581 2.89430127,14 4,14 C5.1090605,14 6,13.0671919 6,11.9125987 L6,11.0874013 C6,9.9326419 5.10569873,9 4,9 C2.8909395,9 2,9.9328081 2,11.0874013 L2,11.9125987 Z"/>
  </g>
</svg>
