<svg xmlns="http://www.w3.org/2000/svg" xmlns:xlink="http://www.w3.org/1999/xlink" width="48" height="48" viewBox="0 0 48 48">
  <defs>
    <linearGradient id="text-html-c" x1="50%" x2="50%" y1="0%" y2="100%">
      <stop offset="0%" stop-color="#3E77DA"/>
      <stop offset="100%" stop-color="#2762CC"/>
    </linearGradient>
    <path id="text-html-b" d="M32,34.5 C32,36.9852814 29.9852814,39 27.5,39 L4.5,39 C2.01471863,39 3.04359188e-16,36.9852814 0,34.5 L0,4.5 C-3.04359188e-16,2.01471863 2.01471863,2.23289562e-15 4.5,0 L21,0 L32,11 L32,34.5 Z"/>
    <filter id="text-html-a" width="131.2%" height="125.6%" x="-15.6%" y="-10.3%" filterUnits="objectBoundingBox">
      <feOffset dy="1" in="SourceAlpha" result="shadowOffsetOuter1"/>
      <feGaussianBlur in="shadowOffsetOuter1" result="shadowBlurOuter1" stdDeviation="1.5"/>
      <feColorMatrix in="shadowBlurOuter1" values="0 0 0 0 0.22745098   0 0 0 0 0.494117647   0 0 0 0 0.960784314  0 0 0 0.2 0"/>
    </filter>
    <linearGradient id="text-html-f" x1="50%" x2="12.223%" y1="50%" y2="88.513%">
      <stop offset="0%" stop-color="#FFF" stop-opacity=".1"/>
      <stop offset="100%" stop-color="#FFF" stop-opacity=".3"/>
    </linearGradient>
    <path id="text-html-e" d="M21,0 L32,11 L25.5,11 C23.0147186,11 21,8.98528137 21,6.5 L21,0 L21,0 Z"/>
    <filter id="text-html-d" width="190.9%" height="190.9%" x="-45.5%" y="-36.4%" filterUnits="objectBoundingBox">
      <feOffset dy="1" in="SourceAlpha" result="shadowOffsetOuter1"/>
      <feGaussianBlur in="shadowOffsetOuter1" result="shadowBlurOuter1" stdDeviation="1.5"/>
      <feComposite in="shadowBlurOuter1" in2="SourceAlpha" operator="out" result="shadowBlurOuter1"/>
      <feColorMatrix in="shadowBlurOuter1" values="0 0 0 0 0   0 0 0 0 0   0 0 0 0 0  0 0 0 0.05 0"/>
    </filter>
  </defs>
  <g fill="none" fill-rule="evenodd">
    <g transform="translate(8 5)">
      <use fill="#000" filter="url(#text-html-a)" xlink:href="#text-html-b"/>
      <use fill="url(#text-html-c)" xlink:href="#text-html-b"/>
      <use fill="#000" filter="url(#text-html-d)" xlink:href="#text-html-e"/>
      <use fill="url(#text-html-f)" xlink:href="#text-html-e"/>
    </g>
    <path fill="#FFF" fill-opacity=".6" d="M24.0237273,16.9890909 C29.0003149,16.9890909 33.0346364,21.0234123 33.0346364,26 C33.0346364,30.9765877 29.0003149,35.0109091 24.0237273,35.0109091 C19.0471396,35.0109091 15.0128182,30.9765877 15.0128182,26 C15.0128182,21.0234123 19.0471396,16.9890909 24.0237273,16.9890909 Z M27.4568392,29.5350886 C27.4014465,29.5691344 27.3453449,29.6038817 27.2885716,29.6393226 C26.2988021,30.2571875 25.3090907,30.9567114 24.3870828,31.7225427 C23.5157049,32.4463201 22.7521499,33.1911975 22.1244281,33.9495231 C22.7351275,34.0942494 23.3704749,34.1709091 24.0237273,34.1709091 C25.5630486,34.1709091 27.0029515,33.745248 28.2321509,33.0052107 L28.2171933,33.213496 C28.3110441,32.0565482 28.3005991,30.9573149 28.1932711,29.9139924 C27.9108142,29.8601875 27.657011,29.7255603 27.4568392,29.5350886 Z M19.7964078,25.9856952 C19.6272197,26.0536227 19.4424748,26.091 19.249,26.091 C19.1651097,26.091 19.0828607,26.0839728 19.0028095,26.070475 C18.0828102,27.5836039 17.5194044,29.1252431 17.229901,30.5416713 C18.1930191,31.9791444 19.6005931,33.0943821 21.2560632,33.6902643 L21.0695199,33.9325835 C21.8028294,32.9479712 22.7462877,31.9934345 23.8503661,31.0763731 C24.8040015,30.2842715 25.8239078,29.563406 26.8437562,28.9267643 C26.8937105,28.8955803 26.9431706,28.864911 26.9921137,28.834761 C24.685218,28.5841992 22.6356542,27.8487475 20.8345981,26.707849 C20.4709224,26.4774747 20.1249796,26.2360762 19.7964078,25.9856952 Z M31.7384236,28.6988158 L31.3776417,28.7512978 C30.8673567,28.8202734 30.3670645,28.8689995 29.8766996,28.898066 C29.7481295,29.3211154 29.4339484,29.6633646 29.0289771,29.8299927 C29.1136201,30.6536509 29.1407824,31.5093752 29.1071774,32.3976233 C30.3014052,31.4475273 31.2241233,30.1690721 31.7384236,28.6988158 Z M16.5986187,22.5825053 L16.5416283,22.7112986 C16.0987082,23.7175285 15.8528182,24.8300489 15.8528182,26 C15.8528182,27.2406324 16.1293159,28.4166852 16.6240505,29.4698976 C16.9587432,28.2456162 17.4853465,26.9623496 18.2470492,25.6966446 C17.9590823,25.4282887 17.779,25.0456746 17.779,24.621 C17.779,24.4704681 17.8016264,24.3252209 17.8436638,24.1884738 C17.3715263,23.6640998 16.9573001,23.1243262 16.5986187,22.5825053 Z M28.6458129,19.2611115 L28.8213849,19.2161872 C27.6073811,19.5127144 26.4929105,19.8984733 25.4731017,20.3656388 C25.4743621,20.3906001 25.475,20.4157255 25.475,20.441 C25.475,20.7250833 25.3944158,20.9903451 25.2548593,21.2151736 C25.5151085,21.5073242 25.7689424,21.8140228 26.0148082,22.1355887 C27.1176197,23.5779469 27.955027,25.1972876 28.4808906,27.0000395 C29.1443795,27.0048536 29.7033375,27.4492272 29.8810184,28.056414 C30.5636001,28.0138576 31.2673098,27.9314542 31.9925427,27.8074136 C32.1254628,27.2249164 32.1946364,26.6205364 32.1946364,26 C32.1946364,23.2028557 30.7891224,20.7339867 28.6458129,19.2611115 Z M23.1786768,21.656941 C22.1917088,22.3309718 21.3215827,23.1016907 20.5611776,23.9576596 C20.6621206,24.1569442 20.719,24.3823297 20.719,24.621 C20.719,24.9244069 20.6270802,25.2063447 20.4695693,25.4404847 C20.7298488,25.6328055 21.0013065,25.8190992 21.2841064,25.9982419 C22.9752775,27.0695325 24.9006115,27.7620069 27.076974,27.9993053 C27.1842993,27.6815617 27.397288,27.412481 27.6741345,27.233869 C27.1773368,25.5315869 26.387317,24.0057527 25.34751,22.6457977 C25.1144935,22.3410373 24.8737942,22.0503036 24.6269475,21.7733328 C24.4380587,21.8616595 24.2272914,21.911 24.005,21.911 C23.6986334,21.911 23.4141567,21.8172781 23.1786768,21.656941 Z M20.5892275,18.5825652 L20.5210499,18.6158104 C19.0857111,19.2978713 17.8807632,20.3861052 17.0547525,21.731966 L16.9272658,21.5209351 C17.3076471,22.1738326 17.7744684,22.8335155 18.3317893,23.4721808 C18.5832156,23.2711807 18.902073,23.151 19.249,23.151 C19.5155847,23.151 19.7655952,23.2219625 19.9811724,23.3460283 C20.7604544,22.4772492 21.6470436,21.692706 22.6464611,21.0034972 C22.574639,20.8302269 22.535,20.6402426 22.535,20.441 C22.535,20.2539417 22.5699392,20.0750439 22.6336475,19.9104766 C21.9580273,19.3862483 21.2683786,18.9450171 20.5892275,18.5825652 Z M24.0237273,17.8290909 C23.1817618,17.8290909 22.3695403,17.9564394 21.6052734,18.1929256 C22.1217741,18.5003694 22.6390366,18.8510438 23.1484355,19.2462092 C23.389619,19.0729943 23.6853985,18.971 24.005,18.971 C24.4915185,18.971 24.9228342,19.2073508 25.1903916,19.5714967 C25.9544868,19.2253401 26.7678143,18.9228889 27.6318787,18.6671676 C26.5443112,18.1305865 25.3192283,17.8290909 24.0237273,17.8290909 Z"/>
  </g>
</svg>
