<svg xmlns="http://www.w3.org/2000/svg" width="64" height="64" viewBox="0 0 64 64">
  <defs>
    <filter id="dialog-error-a" width="128.6%" height="128.6%" x="-14.3%" y="-14.3%" filterUnits="objectBoundingBox">
      <feOffset dy="1" in="SourceAlpha" result="shadowOffsetOuter1"/>
      <feGaussianBlur in="shadowOffsetOuter1" result="shadowBlurOuter1" stdDeviation="1.5"/>
      <feColorMatrix in="shadowBlurOuter1" result="shadowMatrixOuter1" values="0 0 0 0 0   0 0 0 0 0   0 0 0 0 0  0 0 0 0.2 0"/>
      <feMerge>
        <feMergeNode in="shadowMatrixOuter1"/>
        <feMergeNode in="SourceGraphic"/>
      </feMerge>
    </filter>
  </defs>
  <g fill="none" filter="url(#dialog-error-a)" transform="translate(4 4)">
    <circle cx="28" cy="28" r="28" fill="#953230"/>
    <path fill="#FFF" d="M36.7494771,16.5594658 C37.4928588,15.8160841 38.6929596,15.8109252 39.4415538,16.5595194 C40.1849651,17.3029306 40.1873135,18.50589 39.4416074,19.2515961 L19.2505229,39.4426806 C18.5071412,40.1860623 17.3070404,40.1912212 16.5584462,39.442627 C15.8150349,38.6992158 15.8126865,37.4962564 16.5583926,36.7505503 L36.7494771,16.5594658 Z"/>
    <path fill="#FFF" d="M39.4405842,36.7476216 C40.1838994,37.4909368 40.1890579,38.6909303 39.4405307,39.4394576 C38.6971859,40.1828023 37.4943341,40.1851506 36.7486947,39.4395111 L16.5594158,19.2502322 C15.8161006,18.506917 15.8109421,17.3069235 16.5594693,16.5583962 C17.3028141,15.8150515 18.5056659,15.8127032 19.2513053,16.5583427 L39.4405842,36.7476216 Z"/>
  </g>
</svg>
