<svg xmlns="http://www.w3.org/2000/svg" xmlns:xlink="http://www.w3.org/1999/xlink" width="32" height="32" viewBox="0 0 32 32">
  <defs>
    <linearGradient id="application-x-blender-c" x1="50%" x2="50%" y1="0%" y2="99.372%">
      <stop offset="0%" stop-color="#FFBC2A"/>
      <stop offset="100%" stop-color="#E77B00"/>
    </linearGradient>
    <path id="application-x-blender-b" d="M15,0 L22,7 L22,22 C22,24.209139 20.209139,26 18,26 L4,26 C1.790861,26 2.705415e-16,24.209139 0,22 L0,4 C-2.705415e-16,1.790861 1.790861,4.05812251e-16 4,0 L15,0 Z"/>
    <filter id="application-x-blender-a" width="131.8%" height="126.9%" x="-15.9%" y="-9.6%" filterUnits="objectBoundingBox">
      <feOffset dy="1" in="SourceAlpha" result="shadowOffsetOuter1"/>
      <feGaussianBlur in="shadowOffsetOuter1" result="shadowBlurOuter1" stdDeviation="1"/>
      <feColorMatrix in="shadowBlurOuter1" values="0 0 0 0 0.874509804   0 0 0 0 0.498039216   0 0 0 0 0.0588235294  0 0 0 0.5 0"/>
    </filter>
    <linearGradient id="application-x-blender-f" x1="50%" x2="10.489%" y1="50%" y2="91.194%">
      <stop offset="0%" stop-color="#FFF" stop-opacity=".1"/>
      <stop offset="100%" stop-color="#FFF" stop-opacity=".3"/>
    </linearGradient>
    <path id="application-x-blender-e" d="M15,0 L22,7 L17.25,7 C16.0073593,7 15,5.99264069 15,4.75 L15,0 Z"/>
    <filter id="application-x-blender-d" width="157.1%" height="157.1%" x="-28.6%" y="-14.3%" filterUnits="objectBoundingBox">
      <feOffset dy="1" in="SourceAlpha" result="shadowOffsetOuter1"/>
      <feGaussianBlur in="shadowOffsetOuter1" result="shadowBlurOuter1" stdDeviation=".5"/>
      <feComposite in="shadowBlurOuter1" in2="SourceAlpha" operator="out" result="shadowBlurOuter1"/>
      <feColorMatrix in="shadowBlurOuter1" values="0 0 0 0 0   0 0 0 0 0   0 0 0 0 0  0 0 0 0.05 0"/>
    </filter>
  </defs>
  <g fill="none" fill-rule="evenodd">
    <g transform="translate(5 3)">
      <g opacity=".9">
        <use fill="#000" filter="url(#application-x-blender-a)" xlink:href="#application-x-blender-b"/>
        <use fill="url(#application-x-blender-c)" xlink:href="#application-x-blender-b"/>
      </g>
      <use fill="#000" filter="url(#application-x-blender-d)" xlink:href="#application-x-blender-e"/>
      <use fill="url(#application-x-blender-f)" xlink:href="#application-x-blender-e"/>
    </g>
    <path fill="#FFF" d="M15.5,11 L10,13 L15.5,15 L21,13 L15.5,11 Z M16.0143227,15.9895833 L16.0143227,22.5 L21.0143227,20.2000008 L21.0143227,14 L16.0143227,15.9895833 Z M10.0143227,20.1666667 L15.0143227,22.5 L15,16 L10,14 L10.0143227,20.1666667 Z M20.0143227,15.5 L20.0143227,19.6000004 L17.0143227,20.8999996 L17,16.7000008 L20.0143227,15.5 Z"/>
  </g>
</svg>
