<svg xmlns="http://www.w3.org/2000/svg" xmlns:xlink="http://www.w3.org/1999/xlink" width="32" height="32" viewBox="0 0 32 32">
  <defs>
    <linearGradient id="application-pgp-keys-c" x1="50%" x2="50%" y1="0%" y2="99.324%">
      <stop offset="0%" stop-color="#C5A981"/>
      <stop offset="100%" stop-color="#BA853A"/>
    </linearGradient>
    <path id="application-pgp-keys-b" d="M15,0 L22,7 L22,22 C22,24.209139 20.209139,26 18,26 L4,26 C1.790861,26 2.705415e-16,24.209139 0,22 L0,4 C-2.705415e-16,1.790861 1.790861,4.05812251e-16 4,0 L15,0 Z"/>
    <filter id="application-pgp-keys-a" width="131.8%" height="126.9%" x="-15.9%" y="-9.6%" filterUnits="objectBoundingBox">
      <feOffset dy="1" in="SourceAlpha" result="shadowOffsetOuter1"/>
      <feGaussianBlur in="shadowOffsetOuter1" result="shadowBlurOuter1" stdDeviation="1"/>
      <feColorMatrix in="shadowBlurOuter1" values="0 0 0 0 0.733333333   0 0 0 0 0.537254902   0 0 0 0 0.258823529  0 0 0 0.5 0"/>
    </filter>
    <linearGradient id="application-pgp-keys-f" x1="50%" x2="10.489%" y1="50%" y2="91.194%">
      <stop offset="0%" stop-color="#FFF" stop-opacity=".1"/>
      <stop offset="100%" stop-color="#FFF" stop-opacity=".3"/>
    </linearGradient>
    <path id="application-pgp-keys-e" d="M15,0 L22,7 L17.25,7 C16.0073593,7 15,5.99264069 15,4.75 L15,0 Z"/>
    <filter id="application-pgp-keys-d" width="157.1%" height="157.1%" x="-28.6%" y="-14.3%" filterUnits="objectBoundingBox">
      <feOffset dy="1" in="SourceAlpha" result="shadowOffsetOuter1"/>
      <feGaussianBlur in="shadowOffsetOuter1" result="shadowBlurOuter1" stdDeviation=".5"/>
      <feComposite in="shadowBlurOuter1" in2="SourceAlpha" operator="out" result="shadowBlurOuter1"/>
      <feColorMatrix in="shadowBlurOuter1" values="0 0 0 0 0   0 0 0 0 0   0 0 0 0 0  0 0 0 0.05 0"/>
    </filter>
  </defs>
  <g fill="none" fill-rule="evenodd">
    <g transform="translate(5 3)">
      <use fill="#000" filter="url(#application-pgp-keys-a)" xlink:href="#application-pgp-keys-b"/>
      <use fill="url(#application-pgp-keys-c)" xlink:href="#application-pgp-keys-b"/>
      <use fill="#000" filter="url(#application-pgp-keys-d)" xlink:href="#application-pgp-keys-e"/>
      <use fill="url(#application-pgp-keys-f)" xlink:href="#application-pgp-keys-e"/>
    </g>
    <path fill="#FFF" d="M21.6735206,16.4725714 C22.1325214,15.9300704 22.1045213,15.133069 21.6100205,14.6385681 L19.3605165,12.3900642 C18.8660156,11.8955633 18.0680142,11.8675633 17.5250133,12.3270641 L14.4900079,14.7270683 C13.8790068,15.2440692 13.8325068,16.1680708 14.3900077,16.7250718 L17.2755128,19.6095769 C17.8335138,20.1675779 18.7580154,20.1210778 19.2755164,19.5090767 L21.6735206,16.4725714 L21.6735206,16.4725714 Z M18.6445152,13.1055654 L20.8940192,15.3545694 C21.0155194,15.4755696 21.0175194,15.68007 20.9000192,15.8195702 L20.4545184,16.3470712 L17.6525135,13.5455662 L18.1800144,13.0995654 C18.3185147,12.9815652 18.523015,12.9845652 18.6445152,13.1055654 L18.6445152,13.1055654 Z M16.1865109,19.9345775 L12.1215037,24.0000847 L10.7075012,24.0000847 L10.3540006,23.646584 L14.0000071,20.0000776 L13.6465064,19.646577 L10.0005,23.2930834 L10,21.8790809 L14.0650072,17.8140737 L16.1865109,19.9345775 L16.1865109,19.9345775 Z"/>
  </g>
</svg>
