<svg xmlns="http://www.w3.org/2000/svg" xmlns:xlink="http://www.w3.org/1999/xlink" width="32" height="32" viewBox="0 0 32 32">
  <defs>
    <linearGradient id="application-vnd.scribus-c" x1="50%" x2="50%" y1="0%" y2="99.203%">
      <stop offset="0%" stop-color="#619FFF"/>
      <stop offset="100%" stop-color="#0093E4"/>
    </linearGradient>
    <path id="application-vnd.scribus-b" d="M15,0 L22,7 L22,22 C22,24.209139 20.209139,26 18,26 L4,26 C1.790861,26 2.705415e-16,24.209139 0,22 L0,4 C-2.705415e-16,1.790861 1.790861,4.05812251e-16 4,0 L15,0 Z"/>
    <filter id="application-vnd.scribus-a" width="131.8%" height="126.9%" x="-15.9%" y="-9.6%" filterUnits="objectBoundingBox">
      <feOffset dy="1" in="SourceAlpha" result="shadowOffsetOuter1"/>
      <feGaussianBlur in="shadowOffsetOuter1" result="shadowBlurOuter1" stdDeviation="1"/>
      <feColorMatrix in="shadowBlurOuter1" values="0 0 0 0 0.0156862745   0 0 0 0 0.580392157   0 0 0 0 0.898039216  0 0 0 0.5 0"/>
    </filter>
    <linearGradient id="application-vnd.scribus-f" x1="50%" x2="10.489%" y1="50%" y2="91.194%">
      <stop offset="0%" stop-color="#FFF" stop-opacity=".1"/>
      <stop offset="100%" stop-color="#FFF" stop-opacity=".3"/>
    </linearGradient>
    <path id="application-vnd.scribus-e" d="M15,0 L22,7 L17.25,7 C16.0073593,7 15,5.99264069 15,4.75 L15,0 Z"/>
    <filter id="application-vnd.scribus-d" width="157.1%" height="157.1%" x="-28.6%" y="-14.3%" filterUnits="objectBoundingBox">
      <feOffset dy="1" in="SourceAlpha" result="shadowOffsetOuter1"/>
      <feGaussianBlur in="shadowOffsetOuter1" result="shadowBlurOuter1" stdDeviation=".5"/>
      <feComposite in="shadowBlurOuter1" in2="SourceAlpha" operator="out" result="shadowBlurOuter1"/>
      <feColorMatrix in="shadowBlurOuter1" values="0 0 0 0 0   0 0 0 0 0   0 0 0 0 0  0 0 0 0.05 0"/>
    </filter>
    <linearGradient id="application-vnd.scribus-g" x1="58.261%" x2="35.835%" y1="27.238%" y2="100%">
      <stop offset="0%" stop-color="#FFF" stop-opacity="0"/>
      <stop offset="100%" stop-color="#FFF"/>
    </linearGradient>
  </defs>
  <g fill="none" fill-rule="evenodd">
    <g transform="translate(5 3)">
      <use fill="#000" filter="url(#application-vnd.scribus-a)" xlink:href="#application-vnd.scribus-b"/>
      <use fill="url(#application-vnd.scribus-c)" xlink:href="#application-vnd.scribus-b"/>
      <use fill="#000" filter="url(#application-vnd.scribus-d)" xlink:href="#application-vnd.scribus-e"/>
      <use fill="url(#application-vnd.scribus-f)" xlink:href="#application-vnd.scribus-e"/>
    </g>
    <path fill="url(#application-vnd.scribus-g)" d="M14.3847844,4 C15.2520002,5.82068883 16.1192896,9.72804799 10.5974258,13.6354071 C3.04127807,18.9822581 14.3754996,26 14.3754996,26 C14.3754996,26 5.96930273,16.416532 26,12.0376325" opacity=".643"/>
    <path fill="#FFF" d="M15.1411511,26.3880314 C15.1411511,26.3880314 16.0421977,22.1531124 17.5739769,20.6213331 C17.5739769,20.6213331 17.3937676,18.0984027 20.6375354,14.043693 C20.6375354,14.043693 21.4484773,13.1426464 21.808896,11.8811811 C22.3495239,10.8900299 22.9802565,11.5207625 22.9802565,11.5207625 C22.9802565,11.5207625 23.4307798,11.8811811 23.0703612,12.4218091 C22.7099426,12.962437 22.0792099,14.5843209 22.0792099,14.5843209 C22.0792099,14.5843209 20.997954,19.4499727 18.7453375,21.0718564 C17.7541863,22.0630075 18.0245002,23.3244729 18.0245002,23.3244729 L15.1411511,26.3880314 Z" transform="rotate(5 19.176 18.855)"/>
  </g>
</svg>
