<svg xmlns="http://www.w3.org/2000/svg" xmlns:xlink="http://www.w3.org/1999/xlink" width="32" height="32" viewBox="0 0 32 32">
  <defs>
    <linearGradient id="application-vnd.oasis.opendocument.formula-c" x1="50%" x2="50%" y1="0%" y2="100%">
      <stop offset="0%" stop-color="#9BAAC1"/>
      <stop offset="100%" stop-color="#779DB2"/>
    </linearGradient>
    <path id="application-vnd.oasis.opendocument.formula-b" d="M15,0 L22,7 L22,22 C22,24.209139 20.209139,26 18,26 L4,26 C1.790861,26 2.705415e-16,24.209139 0,22 L0,4 C-2.705415e-16,1.790861 1.790861,4.05812251e-16 4,0 L15,0 Z"/>
    <filter id="application-vnd.oasis.opendocument.formula-a" width="131.8%" height="126.9%" x="-15.9%" y="-9.6%" filterUnits="objectBoundingBox">
      <feOffset dy="1" in="SourceAlpha" result="shadowOffsetOuter1"/>
      <feGaussianBlur in="shadowOffsetOuter1" result="shadowBlurOuter1" stdDeviation="1"/>
      <feColorMatrix in="shadowBlurOuter1" values="0 0 0 0 0.474509804   0 0 0 0 0.619607843   0 0 0 0 0.701960784  0 0 0 0.5 0"/>
    </filter>
    <linearGradient id="application-vnd.oasis.opendocument.formula-f" x1="50%" x2="10.489%" y1="50%" y2="91.194%">
      <stop offset="0%" stop-color="#FFF" stop-opacity=".1"/>
      <stop offset="100%" stop-color="#FFF" stop-opacity=".3"/>
    </linearGradient>
    <path id="application-vnd.oasis.opendocument.formula-e" d="M15,0 L22,7 L17.25,7 C16.0073593,7 15,5.99264069 15,4.75 L15,0 Z"/>
    <filter id="application-vnd.oasis.opendocument.formula-d" width="157.1%" height="157.1%" x="-28.6%" y="-14.3%" filterUnits="objectBoundingBox">
      <feOffset dy="1" in="SourceAlpha" result="shadowOffsetOuter1"/>
      <feGaussianBlur in="shadowOffsetOuter1" result="shadowBlurOuter1" stdDeviation=".5"/>
      <feComposite in="shadowBlurOuter1" in2="SourceAlpha" operator="out" result="shadowBlurOuter1"/>
      <feColorMatrix in="shadowBlurOuter1" values="0 0 0 0 0   0 0 0 0 0   0 0 0 0 0  0 0 0 0.05 0"/>
    </filter>
  </defs>
  <g fill="none" fill-rule="evenodd">
    <g transform="translate(5 3)">
      <use fill="#000" filter="url(#application-vnd.oasis.opendocument.formula-a)" xlink:href="#application-vnd.oasis.opendocument.formula-b"/>
      <use fill="url(#application-vnd.oasis.opendocument.formula-c)" xlink:href="#application-vnd.oasis.opendocument.formula-b"/>
      <use fill="#000" filter="url(#application-vnd.oasis.opendocument.formula-d)" xlink:href="#application-vnd.oasis.opendocument.formula-e"/>
      <use fill="url(#application-vnd.oasis.opendocument.formula-f)" xlink:href="#application-vnd.oasis.opendocument.formula-e"/>
    </g>
    <path fill="#FFF" d="M19.6006333,11 L19.90831,13.8572286 L19.4074412,13.8572286 C19.1975446,13.3394675 18.8994088,12.8573255 18.5130323,12.4108011 C18.1266405,11.9595438 17.8768846,11.7507222 17.5572894,11.6842105 C17.4141775,11.6557188 13.070723,11.6842105 13.070723,11.6842105 L17.2393945,16.9852187 L17.2393945,17.1776007 L12.7256025,22.6315789 L18.2475303,22.6315789 C18.9377713,22.6315789 19.3311098,22.3267863 19.4933043,22.1367806 C19.6650218,21.9372727 19.8176676,21.7140146 19.9512415,21.4670064 C20.0847971,21.2199974 20.1945113,20.9919894 20.2803839,20.7829817 L20.759787,20.9326119 L19.9512415,24 L11,24 L11,23.7114627 L15.9800671,17.7333709 L11,11.3421053 L11,11 L19.6006333,11 Z"/>
  </g>
</svg>
