<svg xmlns="http://www.w3.org/2000/svg" xmlns:xlink="http://www.w3.org/1999/xlink" width="32" height="32" viewBox="0 0 32 32">
  <defs>
    <linearGradient id="application-x-bittorrent-c" x1="50%" x2="50%" y1="0%" y2="100%">
      <stop offset="0%" stop-color="#19BD72"/>
      <stop offset="100%" stop-color="#00914F"/>
    </linearGradient>
    <path id="application-x-bittorrent-b" d="M15,0 L22,7 L22,22 C22,24.209139 20.209139,26 18,26 L4,26 C1.790861,26 2.705415e-16,24.209139 0,22 L0,4 C-2.705415e-16,1.790861 1.790861,4.05812251e-16 4,0 L15,0 Z"/>
    <filter id="application-x-bittorrent-a" width="131.8%" height="126.9%" x="-15.9%" y="-9.6%" filterUnits="objectBoundingBox">
      <feOffset dy="1" in="SourceAlpha" result="shadowOffsetOuter1"/>
      <feGaussianBlur in="shadowOffsetOuter1" result="shadowBlurOuter1" stdDeviation="1"/>
      <feColorMatrix in="shadowBlurOuter1" values="0 0 0 0 0.00784313725   0 0 0 0 0.42745098   0 0 0 0 0.168627451  0 0 0 0.5 0"/>
    </filter>
    <linearGradient id="application-x-bittorrent-f" x1="50%" x2="10.489%" y1="50%" y2="91.194%">
      <stop offset="0%" stop-color="#FFF" stop-opacity=".1"/>
      <stop offset="100%" stop-color="#FFF" stop-opacity=".3"/>
    </linearGradient>
    <path id="application-x-bittorrent-e" d="M15,0 L22,7 L17.25,7 C16.0073593,7 15,5.99264069 15,4.75 L15,0 Z"/>
    <filter id="application-x-bittorrent-d" width="157.1%" height="157.1%" x="-28.6%" y="-14.3%" filterUnits="objectBoundingBox">
      <feOffset dy="1" in="SourceAlpha" result="shadowOffsetOuter1"/>
      <feGaussianBlur in="shadowOffsetOuter1" result="shadowBlurOuter1" stdDeviation=".5"/>
      <feComposite in="shadowBlurOuter1" in2="SourceAlpha" operator="out" result="shadowBlurOuter1"/>
      <feColorMatrix in="shadowBlurOuter1" values="0 0 0 0 0   0 0 0 0 0   0 0 0 0 0  0 0 0 0.05 0"/>
    </filter>
  </defs>
  <g fill="none" fill-rule="evenodd">
    <g transform="translate(5 3)">
      <use fill="#000" filter="url(#application-x-bittorrent-a)" xlink:href="#application-x-bittorrent-b"/>
      <use fill="url(#application-x-bittorrent-c)" xlink:href="#application-x-bittorrent-b"/>
      <use fill="#000" filter="url(#application-x-bittorrent-d)" xlink:href="#application-x-bittorrent-e"/>
      <use fill="url(#application-x-bittorrent-f)" xlink:href="#application-x-bittorrent-e"/>
    </g>
    <g stroke="#FFF" transform="translate(14 16)">
      <path d="M7.10222703,3.98259255 C6.82817459,3.68583986 6.43578991,3.5 6,3.5 C5.17157288,3.5 4.5,4.17157288 4.5,5 C4.5,5.82842712 5.17157288,6.5 6,6.5 L6,6.5"/>
      <path d="M6,1.5 C4.06700338,1.5 2.5,3.06700338 2.5,5 C2.5,6.93299662 4.06700338,8.5 6,8.5 L6,8.5"/>
      <path d="M3.05377475.354846807C1.51863805 1.33055595.5 3.04632014.5 5 .5 8.03756612 2.96243388 10.5 6 10.5L6 10.5M6 6.5L13 6.5M6 8.5L13 8.5M6 10.5L13 10.5"/>
    </g>
  </g>
</svg>
