<svg xmlns="http://www.w3.org/2000/svg" xmlns:xlink="http://www.w3.org/1999/xlink" width="32" height="32" viewBox="0 0 32 32">
  <defs>
    <linearGradient id="audio-x-mp3-playlist-c" x1="50%" x2="50%" y1="0%" y2="100%">
      <stop offset="0%" stop-color="#B7EE43"/>
      <stop offset="100%" stop-color="#6AD500"/>
    </linearGradient>
    <path id="audio-x-mp3-playlist-b" d="M15,0 L22,7 L22,22 C22,24.209139 20.209139,26 18,26 L4,26 C1.790861,26 2.705415e-16,24.209139 0,22 L0,4 C-2.705415e-16,1.790861 1.790861,4.05812251e-16 4,0 L15,0 Z"/>
    <filter id="audio-x-mp3-playlist-a" width="131.8%" height="126.9%" x="-15.9%" y="-9.6%" filterUnits="objectBoundingBox">
      <feOffset dy="1" in="SourceAlpha" result="shadowOffsetOuter1"/>
      <feGaussianBlur in="shadowOffsetOuter1" result="shadowBlurOuter1" stdDeviation="1"/>
      <feColorMatrix in="shadowBlurOuter1" values="0 0 0 0 0.505882353   0 0 0 0 0.741176471   0 0 0 0 0  0 0 0 0.5 0"/>
    </filter>
    <linearGradient id="audio-x-mp3-playlist-f" x1="50%" x2="10.489%" y1="50%" y2="91.194%">
      <stop offset="0%" stop-color="#FFF" stop-opacity=".1"/>
      <stop offset="100%" stop-color="#FFF" stop-opacity=".3"/>
    </linearGradient>
    <path id="audio-x-mp3-playlist-e" d="M15,0 L22,7 L17.25,7 C16.0073593,7 15,5.99264069 15,4.75 L15,0 Z"/>
    <filter id="audio-x-mp3-playlist-d" width="157.1%" height="157.1%" x="-28.6%" y="-14.3%" filterUnits="objectBoundingBox">
      <feOffset dy="1" in="SourceAlpha" result="shadowOffsetOuter1"/>
      <feGaussianBlur in="shadowOffsetOuter1" result="shadowBlurOuter1" stdDeviation=".5"/>
      <feComposite in="shadowBlurOuter1" in2="SourceAlpha" operator="out" result="shadowBlurOuter1"/>
      <feColorMatrix in="shadowBlurOuter1" values="0 0 0 0 0   0 0 0 0 0   0 0 0 0 0  0 0 0 0.05 0"/>
    </filter>
  </defs>
  <g fill="none" fill-rule="evenodd">
    <g transform="translate(5 3)">
      <use fill="#000" filter="url(#audio-x-mp3-playlist-a)" xlink:href="#audio-x-mp3-playlist-b"/>
      <use fill="url(#audio-x-mp3-playlist-c)" xlink:href="#audio-x-mp3-playlist-b"/>
      <use fill="#000" filter="url(#audio-x-mp3-playlist-d)" xlink:href="#audio-x-mp3-playlist-e"/>
      <use fill="url(#audio-x-mp3-playlist-f)" xlink:href="#audio-x-mp3-playlist-e"/>
    </g>
    <g transform="translate(11 12)">
      <path fill="#FFF" d="M9.94449995,2.78002836 L9.94449995,2.64691521 C9.94449995,2.38723545 9.75537744,2.1777459 9.55607142,2.1784733 C9.35749278,2.17920069 9.18146337,2.39014503 9.18073597,2.64982478 L9.16764288,8.94687694 C8.66428605,8.6857424 8.01472297,8.66755755 7.27132603,8.92360033 C6.17659766,9.30111795 5.56922344,10.3354726 5.88200298,11.1385159 C6.19478251,11.9408317 7.32224363,12.2514291 8.40096932,11.8317226 C9.28475335,11.4876651 9.86012222,10.7602708 9.86812356,10.0677915 C9.8753975,10.0314218 9.88558102,4.61015233 9.88558102,4.61015233 C11.9171932,5.15133366 12.2459754,6.34353287 12.2459754,6.34353287 C12.6023986,7.21131422 12.1739634,8.28203858 12.1739634,8.28203858 C12.1739634,8.28203858 12.1383211,8.41515173 12.2430658,8.4573406 C12.3754516,8.51044038 12.4358253,8.38387378 12.4358253,8.38387378 C13.0715679,7.00982601 12.6816846,5.9209168 12.6816846,5.9209168 C12.3267162,4.70034922 11.075598,4.02459995 11.075598,4.02459995 C10.1176198,3.42740925 9.94449995,2.97497002 9.94449995,2.78002836 Z"/>
      <path stroke="#FFF" d="M0 1.5L8 1.5M0 4.5L8 4.5M0 7.5L8 7.5"/>
    </g>
  </g>
</svg>
