<svg xmlns="http://www.w3.org/2000/svg" xmlns:xlink="http://www.w3.org/1999/xlink" width="32" height="32" viewBox="0 0 32 32">
  <defs>
    <linearGradient id="text-x-javascript-c" x1="50%" x2="50%" y1="0%" y2="99.372%">
      <stop offset="0%" stop-color="#FFBC2A"/>
      <stop offset="100%" stop-color="#E77B00"/>
    </linearGradient>
    <path id="text-x-javascript-b" d="M15,0 L22,7 L22,22 C22,24.209139 20.209139,26 18,26 L4,26 C1.790861,26 2.705415e-16,24.209139 0,22 L0,4 C-2.705415e-16,1.790861 1.790861,4.05812251e-16 4,0 L15,0 Z"/>
    <filter id="text-x-javascript-a" width="131.8%" height="126.9%" x="-15.9%" y="-9.6%" filterUnits="objectBoundingBox">
      <feOffset dy="1" in="SourceAlpha" result="shadowOffsetOuter1"/>
      <feGaussianBlur in="shadowOffsetOuter1" result="shadowBlurOuter1" stdDeviation="1"/>
      <feColorMatrix in="shadowBlurOuter1" values="0 0 0 0 0.874509804   0 0 0 0 0.498039216   0 0 0 0 0.0588235294  0 0 0 0.5 0"/>
    </filter>
    <linearGradient id="text-x-javascript-f" x1="50%" x2="10.489%" y1="50%" y2="91.194%">
      <stop offset="0%" stop-color="#FFF" stop-opacity=".1"/>
      <stop offset="100%" stop-color="#FFF" stop-opacity=".3"/>
    </linearGradient>
    <path id="text-x-javascript-e" d="M15,0 L22,7 L17.25,7 C16.0073593,7 15,5.99264069 15,4.75 L15,0 Z"/>
    <filter id="text-x-javascript-d" width="157.1%" height="157.1%" x="-28.6%" y="-14.3%" filterUnits="objectBoundingBox">
      <feOffset dy="1" in="SourceAlpha" result="shadowOffsetOuter1"/>
      <feGaussianBlur in="shadowOffsetOuter1" result="shadowBlurOuter1" stdDeviation=".5"/>
      <feComposite in="shadowBlurOuter1" in2="SourceAlpha" operator="out" result="shadowBlurOuter1"/>
      <feColorMatrix in="shadowBlurOuter1" values="0 0 0 0 0   0 0 0 0 0   0 0 0 0 0  0 0 0 0.05 0"/>
    </filter>
  </defs>
  <g fill="none" fill-rule="evenodd">
    <g transform="translate(5 3)">
      <g opacity=".9">
        <use fill="#000" filter="url(#text-x-javascript-a)" xlink:href="#text-x-javascript-b"/>
        <use fill="url(#text-x-javascript-c)" xlink:href="#text-x-javascript-b"/>
      </g>
      <use fill="#000" filter="url(#text-x-javascript-d)" xlink:href="#text-x-javascript-e"/>
      <use fill="url(#text-x-javascript-f)" xlink:href="#text-x-javascript-e"/>
    </g>
    <path fill="#FFF" fill-rule="nonzero" d="M5 4.64572592L5.02686903 4.79259179C5.13895739 5.40526577 5.40155678 5.8743897 5.81560528 6.19282661 6.22891739 6.51069718 6.81862548 6.66666667 7.58116525 6.66666667 8.04293266 6.66666667 8.45921489 6.58822757 8.82884477 6.43063904 9.20431508 6.27056049 9.49480961 6.04171945 9.69683483 5.74488325 9.89834704 5.44880079 10 5.13035619 10 4.79273789 10 4.44898077 9.91567811 4.15596157 9.7452563 3.91753652 9.57688217 3.68197623 9.34511485 3.50263955 9.05302684 3.3806413 8.77777485 3.26567505 8.30146542 3.1208706 7.62005163 2.94432732 7.16000032 2.82258376 6.8802503 2.744054 6.79092962 2.71195498 6.65246747 2.6575752 6.5526891 2.59022606 6.4930152 2.5139017 6.43449779 2.44160329 6.40707652 2.36541136 6.40707652 2.27835968 6.40707652 2.13793564 6.47720152 2.01468995 6.6294346 1.90042304 6.7850164 1.78364256 7.06737538 1.72018028 7.4751793 1.72018028 7.81448002 1.72018028 8.06867692 1.79000002 8.24215133 1.924657 8.4144527 2.05840343 8.51843177 2.24421577 8.55546928 2.48978717L8.57708319 2.63309484 8.72498261 2.61352585 9.65765891 2.49012078 9.8112609 2.46979727 9.78601603 2.32138667C9.72236426 1.94718797 9.60460481 1.64402687 9.4303843 1.41299847 9.25277853 1.177481 8.98249401.994184127 8.62314533.861355949 8.27113443.731240079 7.86536223.666666667 7.40628844.666666667 7.09887497.666666667 6.80978036.705450571 6.53939158.783252897 6.26769352.861431963 6.04995432.958302991 5.88596355 1.0757482 5.67124237 1.22454259 5.49945438 1.41382884 5.37370169 1.6409684 5.24699778 1.86982607 5.18352769 2.11900713 5.18352769 2.38633911 5.18352769 2.68046066 5.26086025 2.9511578 5.41503952 3.19544014 5.57029767 3.44143186 5.79756895 3.63343637 6.09339415 3.7703889 6.37505363 3.9007834 6.86749345 4.05135061 7.57605504 4.22496507 8.07848067 4.34766937 8.39444831 4.44930784 8.50600276 4.51951798 8.65046161 4.6120874 8.7181589 4.73106634 8.7181589 4.89043357 8.7181589 5.0784851 8.63310687 5.24147295 8.45387206 5.38784763 8.27304342 5.53552394 7.98153735 5.61315305 7.57586595 5.61315305 7.17405252 5.61315305 6.86969588 5.52525235 6.65746589 5.35389824 6.44594234 5.18311452 6.31587216 4.93523617 6.26783512 4.60275104L6.2465552 4.4554635 6.09513604 4.47857469 5.15186115 4.62254727 5 4.64572592zM3 5.66666667C3 7.16666667 1.9908327 7.66666667 1 7.66666667 1 7.66666667.979373568 8.85158125 1 8.66666667 2.65791018 8.66666667 4 7.66666667 4 5.66666667L4 .666666667 3 .666666667 3 5.66666667z" transform="translate(10 12.333)"/>
  </g>
</svg>
