<svg xmlns="http://www.w3.org/2000/svg" xmlns:xlink="http://www.w3.org/1999/xlink" width="32" height="32" viewBox="0 0 32 32">
  <defs>
    <linearGradient id="text-x-chdr-c" x1="50%" x2="50%" y1="0%" y2="99.628%">
      <stop offset="0%" stop-color="#FF4BB4"/>
      <stop offset="98.915%" stop-color="#F6237B"/>
    </linearGradient>
    <path id="text-x-chdr-b" d="M15,0 L22,7 L22,22 C22,24.209139 20.209139,26 18,26 L4,26 C1.790861,26 2.705415e-16,24.209139 0,22 L0,4 C-2.705415e-16,1.790861 1.790861,4.05812251e-16 4,0 L15,0 Z"/>
    <filter id="text-x-chdr-a" width="131.8%" height="126.9%" x="-15.9%" y="-9.6%" filterUnits="objectBoundingBox">
      <feOffset dy="1" in="SourceAlpha" result="shadowOffsetOuter1"/>
      <feGaussianBlur in="shadowOffsetOuter1" result="shadowBlurOuter1" stdDeviation="1"/>
      <feColorMatrix in="shadowBlurOuter1" values="0 0 0 0 0.920884284   0 0 0 0 0.0193547135   0 0 0 0 0.46292854  0 0 0 0.5 0"/>
    </filter>
    <linearGradient id="text-x-chdr-f" x1="50%" x2="10.489%" y1="50%" y2="91.194%">
      <stop offset="0%" stop-color="#FFF" stop-opacity=".1"/>
      <stop offset="100%" stop-color="#FFF" stop-opacity=".3"/>
    </linearGradient>
    <path id="text-x-chdr-e" d="M15,0 L22,7 L17.25,7 C16.0073593,7 15,5.99264069 15,4.75 L15,0 Z"/>
    <filter id="text-x-chdr-d" width="157.1%" height="157.1%" x="-28.6%" y="-14.3%" filterUnits="objectBoundingBox">
      <feOffset dy="1" in="SourceAlpha" result="shadowOffsetOuter1"/>
      <feGaussianBlur in="shadowOffsetOuter1" result="shadowBlurOuter1" stdDeviation=".5"/>
      <feComposite in="shadowBlurOuter1" in2="SourceAlpha" operator="out" result="shadowBlurOuter1"/>
      <feColorMatrix in="shadowBlurOuter1" values="0 0 0 0 0   0 0 0 0 0   0 0 0 0 0  0 0 0 0.05 0"/>
    </filter>
  </defs>
  <g fill="none" fill-rule="evenodd">
    <g transform="translate(5 3)">
      <use fill="#000" filter="url(#text-x-chdr-a)" xlink:href="#text-x-chdr-b"/>
      <use fill="url(#text-x-chdr-c)" xlink:href="#text-x-chdr-b"/>
      <use fill="#000" filter="url(#text-x-chdr-d)" xlink:href="#text-x-chdr-e"/>
      <use fill="url(#text-x-chdr-f)" xlink:href="#text-x-chdr-e"/>
    </g>
    <path fill="#FFF" d="M17,18 L17,23 L15,23 L15,12 L17,12 L17,16 L19,16 C20.1045695,16 21,16.8865548 21,18.0059191 L21,23 L19,23 L19,18.9998075 C19,18.4476291 18.5561352,18 18,18 L17,18 Z M13,21 L13,23 L11,23 L11,21 L13,21 Z"/>
  </g>
</svg>
