<svg xmlns="http://www.w3.org/2000/svg" xmlns:xlink="http://www.w3.org/1999/xlink" width="32" height="32" viewBox="0 0 32 32">
  <defs>
    <linearGradient id="text-x-bibtex-c" x1="50%" x2="50%" y1="0%" y2="99.345%">
      <stop offset="0%" stop-color="#8552D5"/>
      <stop offset="98.596%" stop-color="#68269D"/>
    </linearGradient>
    <path id="text-x-bibtex-b" d="M15,0 L22,7 L22,22 C22,24.209139 20.209139,26 18,26 L4,26 C1.790861,26 2.705415e-16,24.209139 0,22 L0,4 C-2.705415e-16,1.790861 1.790861,4.05812251e-16 4,0 L15,0 Z"/>
    <filter id="text-x-bibtex-a" width="131.8%" height="126.9%" x="-15.9%" y="-9.6%" filterUnits="objectBoundingBox">
      <feOffset dy="1" in="SourceAlpha" result="shadowOffsetOuter1"/>
      <feGaussianBlur in="shadowOffsetOuter1" result="shadowBlurOuter1" stdDeviation="1"/>
      <feColorMatrix in="shadowBlurOuter1" values="0 0 0 0 0.339328004   0 0 0 0 0   0 0 0 0 0.621603261  0 0 0 0.5 0"/>
    </filter>
    <linearGradient id="text-x-bibtex-f" x1="50%" x2="10.489%" y1="50%" y2="91.194%">
      <stop offset="0%" stop-color="#FFF" stop-opacity=".1"/>
      <stop offset="100%" stop-color="#FFF" stop-opacity=".3"/>
    </linearGradient>
    <path id="text-x-bibtex-e" d="M15,0 L22,7 L17.25,7 C16.0073593,7 15,5.99264069 15,4.75 L15,0 Z"/>
    <filter id="text-x-bibtex-d" width="157.1%" height="157.1%" x="-28.6%" y="-14.3%" filterUnits="objectBoundingBox">
      <feOffset dy="1" in="SourceAlpha" result="shadowOffsetOuter1"/>
      <feGaussianBlur in="shadowOffsetOuter1" result="shadowBlurOuter1" stdDeviation=".5"/>
      <feComposite in="shadowBlurOuter1" in2="SourceAlpha" operator="out" result="shadowBlurOuter1"/>
      <feColorMatrix in="shadowBlurOuter1" values="0 0 0 0 0   0 0 0 0 0   0 0 0 0 0  0 0 0 0.05 0"/>
    </filter>
  </defs>
  <g fill="none" fill-rule="evenodd">
    <g transform="translate(5 3)">
      <use fill="#000" filter="url(#text-x-bibtex-a)" xlink:href="#text-x-bibtex-b"/>
      <use fill="url(#text-x-bibtex-c)" xlink:href="#text-x-bibtex-b"/>
      <use fill="#000" filter="url(#text-x-bibtex-d)" xlink:href="#text-x-bibtex-e"/>
      <use fill="url(#text-x-bibtex-f)" xlink:href="#text-x-bibtex-e"/>
    </g>
    <g fill="#FFF" transform="translate(7.333 12.667)">
      <path d="M6.33333333,0.333333333 L0.133333206,0.333333333 L-1.77635684e-14,2.8080167 L0.318781078,2.8080167 C0.452136434,0.954601922 0.496718199,0.98358778 2.09698747,0.98358778 L2.66666667,0.98358778 C2.86378317,1.01703924 2.96589317,1.15302654 2.96589317,1.4105714 L2.96589317,7.14786441 C2.96589317,7.55225502 2.93463791,7.67560545 2.06532497,7.67560545 L1.772359,7.67560545 L1.772359,8.33333333 C2.26744231,8.32289599 2.78336246,8.312052 3.28969766,8.312052 C3.79436591,8.312052 4.311953,8.32289599 4.80661957,8.33333333 L4.80661957,7.67560545 L4.51865445,7.67560545 C3.66225618,7.67560545 3.63142183,7.55225502 3.63142183,7.14786441 L3.63142183,1.4105714 C3.63142183,1.16342322 3.63142183,1.02922879 3.81728643,0.98358778 L4.38363173,0.98358778 C5.96264743,0.98358778 6.11725678,0.952785553 6.25061255,2.8080167 L6.66666667,2.8080167"/>
      <path d="M11.3559354,6.74530514 L11.0871402,7.10606061 C10.8608521,8.55493341 10.9962915,8.7642859 9.18098609,8.7642859 L7.74866174,8.7642859 C7.33650906,8.7642859 7.31692243,8.71496425 7.31692243,8.37878788 L7.31692243,6.15151515 L8.29041957,6.15151515 C9.26391671,6.15151515 9.15973251,6.59958443 9.15973251,7.42424242 L9.52271026,7.42424242 L9.52271026,4.48558441 L9.15973251,4.48558441 C9.15973251,5.29643234 9.26391671,5.62787383 8.29041957,5.62787383 L7.31692243,5.62787383 L7.31692243,3.20638992 C7.31692243,2.87652672 7.33650906,2.82720507 7.74866174,2.82720507 L9.15973251,2.82720507 C10.7566679,2.82720507 10.9425325,3.428144 11.0871402,4.71996089 L11.3559354,4.71996089 L11.3559354,2.33333333 L5.80000051,2.33333333 L5.80000051,2.82720507 C6.53095684,2.82720507 6.64805988,2.82720507 6.64805988,3.26635321 L6.64805988,8.32196934 C6.64805988,8.76116877 6.53262379,8.76116877 5.80000051,8.76116877 L5.80000051,9.33333333 L11.3559354,9.33333333"/>
      <path d="M14.2968608,3.29737513 L15.8237844,1.20732482 C15.9767269,1.00213886 16.2876125,0.843527533 17.1344217,0.832882737 L17.1344217,0.333333333 C16.8981319,0.35187713 16.5059826,0.35187713 16.2584409,0.35187713 C15.9183837,0.35187713 15.4949791,0.35187713 15.2378525,0.333333333 L15.2378525,0.832882737 C15.5683248,0.86207129 15.5361559,0.920470097 15.5361559,1.07790086 C15.5361559,1.19470242 15.3111982,1.50900744 15.2378525,1.60606061 L14.1635051,3.11548083 C14.1635051,3.11548083 12.7878089,1.10709139 12.7878089,1.07790086 C12.7878089,0.989903144 12.5632358,0.832882737 13.0091442,0.832882737 L13.0091442,0.333333333 C12.6786719,0.35187713 12.1740036,0.35187713 11.8339464,0.35187713 C11.5668181,0.35187713 11.050898,0.35187713 10.8016894,0.333333333 L10.8016894,0.832882737 C11.3684514,0.832882737 11.7493488,0.903905125 11.9773039,1.20732482 L13.772606,3.66117162 L11.9773039,6.14425236 C11.5343127,6.75150052 10.8637832,6.76211454 10.6666667,6.76211454 L10.6666667,7.33333333 C10.9025397,7.31478839 11.2886143,7.33333333 11.5361559,7.33333333 C11.8145361,7.33333333 12.3061092,7.31478839 12.5632358,7.33333333 L12.5632358,6.76211454 C12.2440154,6.73295558 12.1514999,6.53720781 12.1514999,6.3797731 C12.1514999,6.25350968 12.201925,6.18406479 12.2540171,6.11461991 L13.9047115,3.83360406 L15.7000136,6.33202974 C15.7812773,6.44018226 15.7812773,6.46934122 15.7812773,6.49853964 C15.7812773,6.57548141 15.6887617,6.74356959 15.3274509,6.76369283 L15.3274509,7.33333333 C15.6579232,7.31478839 16.2259355,7.33333333 16.5659927,7.33333333 C16.833121,7.33333333 17.2856971,7.31478839 17.5361559,7.33333333 L17.5361559,6.76369283 C16.8752114,6.76369283 16.7710272,6.71594947 16.5659927,6.44018226"/>
    </g>
  </g>
</svg>
