<svg xmlns="http://www.w3.org/2000/svg" xmlns:xlink="http://www.w3.org/1999/xlink" width="32" height="32" viewBox="0 0 32 32">
  <defs>
    <linearGradient id="text-x-java-c" x1="50%" x2="50%" y1="0%" y2="99.372%">
      <stop offset="0%" stop-color="#FFBC2A"/>
      <stop offset="100%" stop-color="#E77B00"/>
    </linearGradient>
    <path id="text-x-java-b" d="M15,0 L22,7 L22,22 C22,24.209139 20.209139,26 18,26 L4,26 C1.790861,26 2.705415e-16,24.209139 0,22 L0,4 C-2.705415e-16,1.790861 1.790861,4.05812251e-16 4,0 L15,0 Z"/>
    <filter id="text-x-java-a" width="131.8%" height="126.9%" x="-15.9%" y="-9.6%" filterUnits="objectBoundingBox">
      <feOffset dy="1" in="SourceAlpha" result="shadowOffsetOuter1"/>
      <feGaussianBlur in="shadowOffsetOuter1" result="shadowBlurOuter1" stdDeviation="1"/>
      <feColorMatrix in="shadowBlurOuter1" values="0 0 0 0 0.874509804   0 0 0 0 0.498039216   0 0 0 0 0.0588235294  0 0 0 0.5 0"/>
    </filter>
    <linearGradient id="text-x-java-f" x1="50%" x2="10.489%" y1="50%" y2="91.194%">
      <stop offset="0%" stop-color="#FFF" stop-opacity=".1"/>
      <stop offset="100%" stop-color="#FFF" stop-opacity=".3"/>
    </linearGradient>
    <path id="text-x-java-e" d="M15,0 L22,7 L17.25,7 C16.0073593,7 15,5.99264069 15,4.75 L15,0 Z"/>
    <filter id="text-x-java-d" width="157.1%" height="157.1%" x="-28.6%" y="-14.3%" filterUnits="objectBoundingBox">
      <feOffset dy="1" in="SourceAlpha" result="shadowOffsetOuter1"/>
      <feGaussianBlur in="shadowOffsetOuter1" result="shadowBlurOuter1" stdDeviation=".5"/>
      <feComposite in="shadowBlurOuter1" in2="SourceAlpha" operator="out" result="shadowBlurOuter1"/>
      <feColorMatrix in="shadowBlurOuter1" values="0 0 0 0 0   0 0 0 0 0   0 0 0 0 0  0 0 0 0.05 0"/>
    </filter>
  </defs>
  <g fill="none" fill-rule="evenodd">
    <g transform="translate(5 3)">
      <g opacity=".9">
        <use fill="#000" filter="url(#text-x-java-a)" xlink:href="#text-x-java-b"/>
        <use fill="url(#text-x-java-c)" xlink:href="#text-x-java-b"/>
      </g>
      <use fill="#000" filter="url(#text-x-java-d)" xlink:href="#text-x-java-e"/>
      <use fill="url(#text-x-java-f)" xlink:href="#text-x-java-e"/>
    </g>
    <g fill="#FFF" transform="translate(10 8)">
      <path d="M6.22425625,3.84 C8.61339713,1.31927409 6.84668188,0 6.84668188,0 C6.84668188,0 7.15789469,1.28 6.84668188,1.92 C6.53546906,2.56 5.29061785,3.52 4.35697941,4.16 C3.42334096,4.8 2.80091523,6.4 5.60183062,8.32 C5.60183061,8.32 4.66819225,7.04 4.66819225,6.08 C4.66819225,5.12 6.19956764,3.86604837 6.22425625,3.84 Z"/>
      <path d="M9.02517162,3.2 C9.02517162,3.2 6.84668194,3.52 5.9130435,4.8 C4.97940505,6.08 5.91304345,6.72 6.22425628,7.36 C6.53546911,8 6.22425625,8.96 6.22425625,8.96 C6.22425625,8.96 8.09153309,7.36 6.84668187,6.4 C5.60183066,5.44 9.02517162,3.2 9.02517162,3.2 Z"/>
      <path d="M4.04576659 8.32C4.04576659 8.32 1.24485126 8.64 1.24485126 9.28 1.24485126 9.92 4.97940551 10.88 8.71395881 8.96 8.71395893 8.96 4.97940497 9.6 3.11212812 9.28 1.24485126 8.96 4.04576659 8.32 4.04576659 8.32zM2.92846217 12.8304688C2.92846217 12.8304688.127546843 13.1504688.127546843 13.7904688.127546842 14.4304688 9.02517172 15.36 10.5812352 13.44 10.5812353 13.44 9.06822287 13.9524405 7.15789483 14.08 5.24296393 14.2078668 2.92958556 13.9506613 1.9948237 13.7904688.127546847 13.4704688 2.92846217 12.8304688 2.92846217 12.8304688z"/>
      <path d="M3.45256486,14.311279 C3.45256486,14.311279 2.17906525,13.8270645 2.17906525,14.4670645 C2.17906525,14.947001 6.42681158,15.6992363 9.20773082,15.2358043 C10.135194,15.0812453 10.899504,14.7914693 11.2886741,14.311279 C11.2886741,14.311279 10.4025628,14.8237195 8.49223472,14.9512789 C6.57730382,15.0791458 4.65829255,14.8222479 3.72353069,14.6620554 C1.85625384,14.3420554 3.45256486,14.311279 3.45256486,14.311279 Z" transform="rotate(-7 6.734 14.758)"/>
      <path d="M6.22425643 10.56C4.35697984 10.88 4.10133805 10.9574601 3.42334095 10.88 2.74534385 10.8025399 3.11212815 10.24 3.11212815 10.24 3.11212815 10.24 1.8672769 10.56 2.48970252 11.2 3.11212813 11.84 6.22425641 11.52 8.40274612 10.88 8.40274612 10.88 8.09153302 10.24 6.22425643 10.56zM5.99512196 12.3161097C4.62238008 12.55136 4.43444317 12.6083053 3.9360087 12.55136 3.43757424 12.4944147 3.70721836 12.0808594 3.70721836 12.0808594 3.70721836 12.0808594 2.79205697 12.3161097 3.24963766 12.7866103 3.70721835 13.2571109 5.99512194 13.0218606 7.59665439 12.55136 7.5966544 12.55136 7.36786384 12.0808594 5.99512196 12.3161097zM10.2700229 9.27999998C10.2700229 8.3199999 9.02517162 8.63999999 9.02517162 8.63999999 9.02517162 8.63999999 10.5812357 8.00000001 11.2036613 8.95999999 11.826087 9.91999997 9.64759725 11.52 8.71395881 11.5199999 8.71395881 11.5199999 10.2700229 10.2400001 10.2700229 9.27999998z"/>
    </g>
  </g>
</svg>
