<svg xmlns="http://www.w3.org/2000/svg" xmlns:xlink="http://www.w3.org/1999/xlink" width="32" height="32" viewBox="0 0 32 32">
  <defs>
    <linearGradient id="text-css-c" x1="50%" x2="50%" y1="0%" y2="100%">
      <stop offset="0%" stop-color="#FC7440"/>
      <stop offset="100%" stop-color="#F04E11"/>
    </linearGradient>
    <path id="text-css-b" d="M15,0 L22,7 L22,22 C22,24.209139 20.209139,26 18,26 L4,26 C1.790861,26 2.705415e-16,24.209139 0,22 L0,4 C-2.705415e-16,1.790861 1.790861,4.05812251e-16 4,0 L15,0 Z"/>
    <filter id="text-css-a" width="131.8%" height="126.9%" x="-15.9%" y="-9.6%" filterUnits="objectBoundingBox">
      <feOffset dy="1" in="SourceAlpha" result="shadowOffsetOuter1"/>
      <feGaussianBlur in="shadowOffsetOuter1" result="shadowBlurOuter1" stdDeviation="1"/>
      <feColorMatrix in="shadowBlurOuter1" values="0 0 0 0 0.941176471   0 0 0 0 0.309803922   0 0 0 0 0.0705882353  0 0 0 0.5 0"/>
    </filter>
    <linearGradient id="text-css-f" x1="50%" x2="10.489%" y1="50%" y2="91.194%">
      <stop offset="0%" stop-color="#FFF" stop-opacity=".1"/>
      <stop offset="100%" stop-color="#FFF" stop-opacity=".3"/>
    </linearGradient>
    <path id="text-css-e" d="M15,0 L22,7 L17.25,7 C16.0073593,7 15,5.99264069 15,4.75 L15,0 Z"/>
    <filter id="text-css-d" width="157.1%" height="157.1%" x="-28.6%" y="-14.3%" filterUnits="objectBoundingBox">
      <feOffset dy="1" in="SourceAlpha" result="shadowOffsetOuter1"/>
      <feGaussianBlur in="shadowOffsetOuter1" result="shadowBlurOuter1" stdDeviation=".5"/>
      <feComposite in="shadowBlurOuter1" in2="SourceAlpha" operator="out" result="shadowBlurOuter1"/>
      <feColorMatrix in="shadowBlurOuter1" values="0 0 0 0 0   0 0 0 0 0   0 0 0 0 0  0 0 0 0.05 0"/>
    </filter>
  </defs>
  <g fill="none" fill-rule="evenodd">
    <g transform="translate(5 3)">
      <use fill="#000" filter="url(#text-css-a)" xlink:href="#text-css-b"/>
      <use fill="url(#text-css-c)" xlink:href="#text-css-b"/>
      <use fill="#000" filter="url(#text-css-d)" xlink:href="#text-css-e"/>
      <use fill="url(#text-css-f)" xlink:href="#text-css-e"/>
    </g>
    <path fill="#FFF" d="M12.0824524,13 C11.1057082,13 10.3319239,13.3963303 9.77378436,14.2036697 C9.25369979,14.9376147 9,15.8770642 9,17.0366972 C9,18.1963303 9.25369979,19.1357798 9.77378436,19.8550459 C10.3192389,20.6183486 11.0803383,21 12.0697674,21 C12.8816068,21 13.5285412,20.7504587 14.0232558,20.266055 C14.5306554,19.7669725 14.8477801,19.0183486 15,18.0495413 L13.9852008,18.0495413 C13.832981,19.3559633 13.1860465,20.0165138 12.0697674,20.0165138 C11.410148,20.0165138 10.9027484,19.7376147 10.5602537,19.2091743 C10.205074,18.6807339 10.0401691,17.946789 10.0401691,17.0220183 C10.0401691,16.0972477 10.217759,15.3633028 10.5729387,14.8201835 C10.9408034,14.2623853 11.448203,13.9834862 12.0824524,13.9834862 C12.602537,13.9834862 13.0211416,14.1155963 13.3509514,14.4091743 C13.6680761,14.7027523 13.8710359,15.1431193 13.9598309,15.7302752 L14.961945,15.7302752 C14.8477801,14.8055046 14.5433404,14.1155963 14.0359408,13.6605505 C13.5412262,13.2201835 12.8942918,13 12.0824524,13 L12.0824524,13 Z"/>
    <path fill="#FFF" fill-rule="nonzero" d="M15.5 19.3158827L15.5201457 19.4382709C15.6041865 19.9488326 15.8010764 20.3397692 16.1115187 20.6051333 16.4214089 20.8700254 16.863556 21 17.4352876 21 17.7815083 21 18.0936254 20.9346341 18.3707639 20.8033103 18.6522813 20.6699115 18.8700862 20.4792107 19.0215593 20.2318471 19.1726476 19.9851118 19.2488643 19.7197413 19.2488643 19.4383927 19.2488643 19.1519284 19.185642 18.9077458 19.0578644 18.7090582 18.931622 18.512758 18.7578492 18.3633107 18.5388495 18.2616455 18.332473 18.1658403 17.9753492 18.0451699 17.4644436 17.8980505 17.1195096 17.7965976 16.9097606 17.7311561 16.8427904 17.7044069 16.7389753 17.6590904 16.6641641 17.6029662 16.6194223 17.5393625 16.5755475 17.4791138 16.5549878 17.4156206 16.5549878 17.3430775 16.5549878 17.2260575 16.6075656 17.1233527 16.7217058 17.0281303 16.8383568 16.9308132 17.0500619 16.877928 17.3558223 16.877928 17.6102207 16.877928 17.8008107 16.9361111 17.9308771 17.0483253 18.0600639 17.1597806 18.1380246 17.3146243 18.1657943 17.5192671L18.1819999 17.6386901 18.2928908 17.6223827 18.9921862 17.5195451 19.1073528 17.5026088 19.0884249 17.3789333C19.0407005 17.0671011 18.9524077 16.8144668 18.8217819 16.6219432 18.6886179 16.4256786 18.4859659 16.2729312 18.216536 16.1622411 17.9526078 16.0538112 17.6483708 16 17.3041698 16 17.0736795 16 16.8569242 16.0323199 16.654194 16.0971552 16.4504822 16.1623044 16.2872272 16.2430303 16.1642714 16.3409013 16.0032793 16.4648966 15.8744773 16.6226351 15.7801914 16.8119181 15.6851922 17.0026328 15.6376041 17.2102837 15.6376041 17.4330604 15.6376041 17.6781617 15.6955859 17.9037426 15.8111854 18.1073112 15.9275937 18.3123043 16.0979955 18.4723081 16.3197973 18.5864352 16.5309779 18.6950973 16.9001959 18.82057 17.4314561 18.9652487 17.8081612 19.0675023 18.0450652 19.152201 18.1287057 19.2107094 18.237017 19.2878506 18.2877746 19.3869997 18.2877746 19.5198058 18.2877746 19.6765154 18.2240049 19.8123386 18.0896195 19.9343175 17.9540391 20.0573811 17.7354758 20.122072 17.4313144 20.122072 17.1300456 20.122072 16.9018472 20.0488214 16.7427229 19.9060263 16.5841283 19.7637065 16.4866052 19.5571413 16.4505884 19.2800703L16.4346332 19.1573307 16.3211033 19.17659 15.6138614 19.2965672 15.5 19.3158827zM20 19.3158827L20.0201457 19.4382709C20.1041865 19.9488326 20.3010764 20.3397692 20.6115187 20.6051333 20.9214089 20.8700254 21.363556 21 21.9352876 21 22.2815083 21 22.5936254 20.9346341 22.8707639 20.8033103 23.1522813 20.6699115 23.3700862 20.4792107 23.5215593 20.2318471 23.6726476 19.9851118 23.7488643 19.7197413 23.7488643 19.4383927 23.7488643 19.1519284 23.685642 18.9077458 23.5578644 18.7090582 23.431622 18.512758 23.2578492 18.3633107 23.0388495 18.2616455 22.832473 18.1658403 22.4753492 18.0451699 21.9644436 17.8980505 21.6195096 17.7965976 21.4097606 17.7311561 21.3427904 17.7044069 21.2389753 17.6590904 21.1641641 17.6029662 21.1194223 17.5393625 21.0755475 17.4791138 21.0549878 17.4156206 21.0549878 17.3430775 21.0549878 17.2260575 21.1075656 17.1233527 21.2217058 17.0281303 21.3383568 16.9308132 21.5500619 16.877928 21.8558223 16.877928 22.1102207 16.877928 22.3008107 16.9361111 22.4308771 17.0483253 22.5600639 17.1597806 22.6380246 17.3146243 22.6657943 17.5192671L22.6819999 17.6386901 22.7928908 17.6223827 23.4921862 17.5195451 23.6073528 17.5026088 23.5884249 17.3789333C23.5407005 17.0671011 23.4524077 16.8144668 23.3217819 16.6219432 23.1886179 16.4256786 22.9859659 16.2729312 22.716536 16.1622411 22.4526078 16.0538112 22.1483708 16 21.8041698 16 21.5736795 16 21.3569242 16.0323199 21.154194 16.0971552 20.9504822 16.1623044 20.7872272 16.2430303 20.6642714 16.3409013 20.5032793 16.4648966 20.3744773 16.6226351 20.2801914 16.8119181 20.1851922 17.0026328 20.1376041 17.2102837 20.1376041 17.4330604 20.1376041 17.6781617 20.1955859 17.9037426 20.3111854 18.1073112 20.4275937 18.3123043 20.5979955 18.4723081 20.8197973 18.5864352 21.0309779 18.6950973 21.4001959 18.82057 21.9314561 18.9652487 22.3081612 19.0675023 22.5450652 19.152201 22.6287057 19.2107094 22.737017 19.2878506 22.7877746 19.3869997 22.7877746 19.5198058 22.7877746 19.6765154 22.7240049 19.8123386 22.5896195 19.9343175 22.4540391 20.0573811 22.2354758 20.122072 21.9313144 20.122072 21.6300456 20.122072 21.4018472 20.0488214 21.2427229 19.9060263 21.0841283 19.7637065 20.9866052 19.5571413 20.9505884 19.2800703L20.9346332 19.1573307 20.8211033 19.17659 20.1138614 19.2965672 20 19.3158827z"/>
  </g>
</svg>
