<svg xmlns="http://www.w3.org/2000/svg" xmlns:xlink="http://www.w3.org/1999/xlink" width="32" height="32" viewBox="0 0 32 32">
  <defs>
    <linearGradient id="vcalendar-c" x1="50%" x2="50%" y1="0%" y2="99.628%">
      <stop offset="0%" stop-color="#EC5959"/>
      <stop offset="100%" stop-color="#D13F3F"/>
    </linearGradient>
    <path id="vcalendar-b" d="M15,0 L22,7 L22,22 C22,24.209139 20.209139,26 18,26 L4,26 C1.790861,26 2.705415e-16,24.209139 0,22 L0,4 C-2.705415e-16,1.790861 1.790861,4.05812251e-16 4,0 L15,0 Z"/>
    <filter id="vcalendar-a" width="131.8%" height="126.9%" x="-15.9%" y="-9.6%" filterUnits="objectBoundingBox">
      <feOffset dy="1" in="SourceAlpha" result="shadowOffsetOuter1"/>
      <feGaussianBlur in="shadowOffsetOuter1" result="shadowBlurOuter1" stdDeviation="1"/>
      <feColorMatrix in="shadowBlurOuter1" values="0 0 0 0 0.6622226   0 0 0 0 0   0 0 0 0 0  0 0 0 0.5 0"/>
    </filter>
    <linearGradient id="vcalendar-f" x1="50%" x2="10.489%" y1="50%" y2="91.194%">
      <stop offset="0%" stop-color="#FFF" stop-opacity=".1"/>
      <stop offset="100%" stop-color="#FFF" stop-opacity=".3"/>
    </linearGradient>
    <path id="vcalendar-e" d="M15,0 L22,7 L17.25,7 C16.0073593,7 15,5.99264069 15,4.75 L15,0 Z"/>
    <filter id="vcalendar-d" width="157.1%" height="157.1%" x="-28.6%" y="-14.3%" filterUnits="objectBoundingBox">
      <feOffset dy="1" in="SourceAlpha" result="shadowOffsetOuter1"/>
      <feGaussianBlur in="shadowOffsetOuter1" result="shadowBlurOuter1" stdDeviation=".5"/>
      <feComposite in="shadowBlurOuter1" in2="SourceAlpha" operator="out" result="shadowBlurOuter1"/>
      <feColorMatrix in="shadowBlurOuter1" values="0 0 0 0 0   0 0 0 0 0   0 0 0 0 0  0 0 0 0.05 0"/>
    </filter>
  </defs>
  <g fill="none" fill-rule="evenodd">
    <g transform="translate(5 3)">
      <use fill="#000" filter="url(#vcalendar-a)" xlink:href="#vcalendar-b"/>
      <use fill="url(#vcalendar-c)" xlink:href="#vcalendar-b"/>
      <use fill="#000" filter="url(#vcalendar-d)" xlink:href="#vcalendar-e"/>
      <use fill="url(#vcalendar-f)" xlink:href="#vcalendar-e"/>
    </g>
    <g fill="#FFF" transform="translate(10 11)">
      <rect width="2" height="2" x="2" y="5"/>
      <rect width="2" height="2" x="5" y="5"/>
      <rect width="2" height="2" x="8" y="5"/>
      <polygon points="5 8 7 8 7 10 5 10"/>
      <polygon points="2 8 4 8 4 10 2 10"/>
      <polygon points="8 8 10 8 10 10 8 10"/>
      <rect width="1" height="2" x="2" rx=".5"/>
      <path d="M9,0.504684448 C9,0.225954924 9.23193359,-7.63833441e-14 9.5,-7.63833441e-14 L9.5,-7.63833441e-14 C9.77614237,-7.63833441e-14 10,0.214035034 10,0.504684448 L10,1.49531555 C10,1.77404508 9.76806641,2 9.5,2 L9.5,2 C9.22385763,2 9,1.78596497 9,1.49531555 L9,0.504684448 Z"/>
      <path d="M8,1 L8,1.33277818 C8,1.88096968 8,3 9.5,3 C11,3 11,1.88536953 11,1.33277818 L11,1 L11.3377349,1 C11.7034938,1 12,1.29642057 12,1.66724777 L12,11.3327522 C12,11.701263 11.7033691,12 11.3377349,12 L0.662265122,12 C0.296506195,12 0,11.7035794 0,11.3327522 L0,1.66724777 C0,1.298737 0.296630859,1 0.662265122,1 L1,1 L1,1.33277818 C1,1.88096968 1,3 2.5,3 C4,3 4,1.88536953 4,1.33277818 L4,1 L8,1 Z M11,4 L1,4 L1,10.9994189 L11,10.9994189 L11,4 Z"/>
    </g>
  </g>
</svg>
