<svg xmlns="http://www.w3.org/2000/svg" xmlns:xlink="http://www.w3.org/1999/xlink" width="48" height="48" viewBox="0 0 48 48">
  <defs>
    <linearGradient id="application-x-ace-c" x1="50%" x2="50%" y1="0%" y2="100%">
      <stop offset="0%" stop-color="#19BD72"/>
      <stop offset="100%" stop-color="#00914F"/>
    </linearGradient>
    <path id="application-x-ace-b" d="M21,0 L32,11 L32,34.5 C32,36.9852814 29.9852814,39 27.5,39 L4.5,39 C2.01471863,39 3.04359188e-16,36.9852814 0,34.5 L0,4.5 C-3.04359188e-16,2.01471863 2.01471863,2.23289562e-15 4.5,1.77635684e-15 L21,0 Z"/>
    <filter id="application-x-ace-a" width="131.2%" height="125.6%" x="-15.6%" y="-10.3%" filterUnits="objectBoundingBox">
      <feOffset dy="1" in="SourceAlpha" result="shadowOffsetOuter1"/>
      <feGaussianBlur in="shadowOffsetOuter1" result="shadowBlurOuter1" stdDeviation="1.5"/>
      <feColorMatrix in="shadowBlurOuter1" values="0 0 0 0 0.00784313725   0 0 0 0 0.42745098   0 0 0 0 0.168627451  0 0 0 0.5 0"/>
    </filter>
    <linearGradient id="application-x-ace-f" x1="50%" x2="12.223%" y1="50%" y2="88.513%">
      <stop offset="0%" stop-color="#FFF" stop-opacity=".1"/>
      <stop offset="100%" stop-color="#FFF" stop-opacity=".3"/>
    </linearGradient>
    <path id="application-x-ace-e" d="M21,0 L32,11 L25.5,11 C23.0147186,11 21,8.98528137 21,6.5 L21,0 Z"/>
    <filter id="application-x-ace-d" width="163.6%" height="163.6%" x="-31.8%" y="-22.7%" filterUnits="objectBoundingBox">
      <feOffset dy="1" in="SourceAlpha" result="shadowOffsetOuter1"/>
      <feGaussianBlur in="shadowOffsetOuter1" result="shadowBlurOuter1" stdDeviation="1"/>
      <feComposite in="shadowBlurOuter1" in2="SourceAlpha" operator="out" result="shadowBlurOuter1"/>
      <feColorMatrix in="shadowBlurOuter1" values="0 0 0 0 0   0 0 0 0 0   0 0 0 0 0  0 0 0 0.05 0"/>
    </filter>
  </defs>
  <g fill="none" fill-rule="evenodd">
    <g transform="translate(8 5)">
      <use fill="#000" filter="url(#application-x-ace-a)" xlink:href="#application-x-ace-b"/>
      <use fill="url(#application-x-ace-c)" xlink:href="#application-x-ace-b"/>
      <use fill="#000" filter="url(#application-x-ace-d)" xlink:href="#application-x-ace-e"/>
      <use fill="url(#application-x-ace-f)" xlink:href="#application-x-ace-e"/>
    </g>
    <path fill="#FFF8F8" fill-opacity=".5" d="M21.5,25 L24.5,25 L24.5,23 L21.5,23 L21.5,21.5 L26.5,21.5 L26.5,26.5 L21.5,26.5 L21.5,25 Z M19.5,21.5 L19.5,26.5 L8,26.5 L8,21.5 L19.5,21.5 Z M28.5,21.5 L40,21.5 L40,26.5 L28.5,26.5 L28.5,21.5 Z"/>
    <path fill="#F4F4F4" d="M20.75,20 L27.25,20 C27.6642136,20 28,20.3357864 28,20.75 L28,27.25 C28,27.6642136 27.6642136,28 27.25,28 L20.75,28 C20.3357864,28 20,27.6642136 20,27.25 L20,20.75 C20,20.3357864 20.3357864,20 20.75,20 Z M21,21 L21,27 L27,27 L27,21 L21,21 Z M21,23.5 L24,23.5 L24,24.5 L21,24.5 L21,23.5 Z"/>
    <path fill="#FFF" d="M27.397214,33.5809268 C26.9850257,33.2182667 26.4542278,33 25.875,33 C24.6778089,33 23.6875091,33.9324285 23.5237595,35.145013 C23.484432,35.2605003 23.4745126,35.3791789 23.5,35.5 C23.5,36.8807119 24.5633237,38 25.875,38 C26.4325478,38 26.9452232,37.7977666 27.3504356,37.4591847 L28,38 C27.3632498,38.5647344 26.6672853,39.0831952 25.5,39 C23.9044368,38.8862804 22.5,37.3872887 22.5,35.5 C22.5,33.6127113 23.9019349,32 25.5,32 C26.7847578,32 27.4258291,32.4691696 28,33 L27.4578686,33.6127113 C27.4401107,33.6009206 27.4198368,33.5903355 27.397214,33.5809268 Z M15.5,39 L18.5,32 L19.5,32 L22.5,39 L21.2701003,39 L20.6781852,37.5 L17.343791,37.5 L16.689016,39 L15.5,39 Z M19,33 L17.6405366,36.5 L20.3160915,36.5 L19,33 Z M28.5,39 L28.5,32 L33,32 L33,33 L29.5,33 L29.5,35 L32.5,35 L32.5,36 L29.5,36 L29.5,38 L33,38 L33,39 L28.5,39 Z"/>
  </g>
</svg>
