<svg xmlns="http://www.w3.org/2000/svg" xmlns:xlink="http://www.w3.org/1999/xlink" width="48" height="48" viewBox="0 0 48 48">
  <defs>
    <linearGradient id="application-sql-c" x1="50%" x2="50%" y1="0%" y2="99.628%">
      <stop offset="0%" stop-color="#B93F3F"/>
      <stop offset="100%" stop-color="#9F3535"/>
    </linearGradient>
    <path id="application-sql-b" d="M21,0 L32,11 L32,34.5 C32,36.9852814 29.9852814,39 27.5,39 L4.5,39 C2.01471863,39 3.04359188e-16,36.9852814 0,34.5 L0,4.5 C-3.04359188e-16,2.01471863 2.01471863,2.23289562e-15 4.5,1.77635684e-15 L21,0 Z"/>
    <filter id="application-sql-a" width="131.2%" height="125.6%" x="-15.6%" y="-10.3%" filterUnits="objectBoundingBox">
      <feOffset dy="1" in="SourceAlpha" result="shadowOffsetOuter1"/>
      <feGaussianBlur in="shadowOffsetOuter1" result="shadowBlurOuter1" stdDeviation="1.5"/>
      <feColorMatrix in="shadowBlurOuter1" values="0 0 0 0 0.6622226   0 0 0 0 0   0 0 0 0 0  0 0 0 0.5 0"/>
    </filter>
    <linearGradient id="application-sql-f" x1="50%" x2="12.223%" y1="50%" y2="88.513%">
      <stop offset="0%" stop-color="#FFF" stop-opacity=".1"/>
      <stop offset="100%" stop-color="#FFF" stop-opacity=".3"/>
    </linearGradient>
    <path id="application-sql-e" d="M21,0 L32,11 L25.5,11 C23.0147186,11 21,8.98528137 21,6.5 L21,0 Z"/>
    <filter id="application-sql-d" width="163.6%" height="163.6%" x="-31.8%" y="-22.7%" filterUnits="objectBoundingBox">
      <feOffset dy="1" in="SourceAlpha" result="shadowOffsetOuter1"/>
      <feGaussianBlur in="shadowOffsetOuter1" result="shadowBlurOuter1" stdDeviation="1"/>
      <feComposite in="shadowBlurOuter1" in2="SourceAlpha" operator="out" result="shadowBlurOuter1"/>
      <feColorMatrix in="shadowBlurOuter1" values="0 0 0 0 0   0 0 0 0 0   0 0 0 0 0  0 0 0 0.05 0"/>
    </filter>
  </defs>
  <g fill="none" fill-rule="evenodd">
    <g transform="translate(8 5)">
      <use fill="#000" filter="url(#application-sql-a)" xlink:href="#application-sql-b"/>
      <use fill="url(#application-sql-c)" xlink:href="#application-sql-b"/>
      <use fill="#000" filter="url(#application-sql-d)" xlink:href="#application-sql-e"/>
      <use fill="url(#application-sql-f)" xlink:href="#application-sql-e"/>
    </g>
    <path fill="#FFF" d="M32.8219881,30.9996596 C33.2378384,31.3659826 33.5,31.9022531 33.5,32.5008327 L33.5,33.4991673 C33.5,34.6045474 32.6030221,35.5 31.4962901,35.5 L16.5037099,35.5 C15.3965871,35.5 14.5,34.6061316 14.5,33.4991673 L14.5,32.5008327 C14.5,31.9031852 14.7622097,31.3669048 15.1780119,31.0003404 C14.7621616,30.6340174 14.5,30.0977469 14.5,29.4991673 L14.5,28.5008327 C14.5,27.9031852 14.7622097,27.3669048 15.1780119,27.0003404 C14.7621616,26.6340174 14.5,26.0977469 14.5,25.4991673 L14.5,24.5008327 C14.5,23.9031852 14.7622097,23.3669048 15.1780119,23.0003404 C14.7621616,22.6340174 14.5,22.0977469 14.5,21.4991673 L14.5,20.5008327 C14.5,19.3954526 15.3969779,18.5 16.5037099,18.5 L31.4962901,18.5 C32.6034129,18.5 33.5,19.3938684 33.5,20.5008327 L33.5,21.4991673 C33.5,22.0968148 33.2377903,22.6330952 32.8219881,22.9996596 C33.2378384,23.3659826 33.5,23.9022531 33.5,24.5008327 L33.5,25.4991673 C33.5,26.0968148 33.2377903,26.6330952 32.8219881,26.9996596 C33.2378384,27.3659826 33.5,27.9022531 33.5,28.5008327 L33.5,29.4991673 C33.5,30.0968148 33.2377903,30.6330952 32.8219881,30.9996596 Z M31.4962901,31.5 L16.5037099,31.5 C15.948882,31.5 15.5,31.9481187 15.5,32.5008327 L15.5,33.4991673 C15.5,34.0531659 15.9481932,34.5 16.5037099,34.5 L31.4962901,34.5 C32.051118,34.5 32.5,34.0518813 32.5,33.4991673 L32.5,32.5008327 C32.5,31.9468341 32.0518068,31.5 31.4962901,31.5 Z M31.4962901,30.5 C32.051118,30.5 32.5,30.0518813 32.5,29.4991673 L32.5,28.5008327 C32.5,27.9468341 32.0518068,27.5 31.4962901,27.5 L16.5037099,27.5 C15.948882,27.5 15.5,27.9481187 15.5,28.5008327 L15.5,29.4991673 C15.5,30.0531659 15.9481932,30.5 16.5037099,30.5 L31.4962901,30.5 Z M16.5037099,26.5 L31.4962901,26.5 C32.051118,26.5 32.5,26.0518813 32.5,25.4991673 L32.5,24.5008327 C32.5,23.9468341 32.0518068,23.5 31.4962901,23.5 L16.5037099,23.5 C15.948882,23.5 15.5,23.9481187 15.5,24.5008327 L15.5,25.4991673 C15.5,26.0531659 15.9481932,26.5 16.5037099,26.5 Z M31.4962901,22.5 C32.051118,22.5 32.5,22.0518813 32.5,21.4991673 L32.5,20.5008327 C32.5,19.9468341 32.0518068,19.5 31.4962901,19.5 L16.5037099,19.5 C15.948882,19.5 15.5,19.9481187 15.5,20.5008327 L15.5,21.4991673 C15.5,22.0531659 15.9481932,22.5 16.5037099,22.5 L31.4962901,22.5 Z M29.5000203,21.5 L26.5000203,21.5001221 C26.223878,21.5001333 26.0000112,21.2762848 26,21.0001424 C25.9999888,20.724 26.2238373,20.5001333 26.4999797,20.5001221 L29.4999797,20.5 C29.776122,20.4999888 29.9999888,20.7238373 30,20.9999797 C30.0000112,21.276122 29.7761627,21.4999888 29.5000203,21.5 Z M29.5000203,25.5 L26.5000203,25.5001221 C26.223878,25.5001333 26.0000112,25.2762848 26,25.0001424 C25.9999888,24.724 26.2238373,24.5001333 26.4999797,24.5001221 L29.4999797,24.5 C29.776122,24.4999888 29.9999888,24.7238373 30,24.9999797 C30.0000112,25.276122 29.7761627,25.4999888 29.5000203,25.5 Z M29.5000203,29.5 L26.5000203,29.5001221 C26.223878,29.5001333 26.0000112,29.2762848 26,29.0001424 C25.9999888,28.724 26.2238373,28.5001333 26.4999797,28.5001221 L29.4999797,28.5 C29.776122,28.4999888 29.9999888,28.7238373 30,28.9999797 C30.0000112,29.276122 29.7761627,29.4999888 29.5000203,29.5 Z M29.5000203,33.5 L26.5000203,33.5001221 C26.223878,33.5001333 26.0000112,33.2762848 26,33.0001424 C25.9999888,32.724 26.2238373,32.5001333 26.4999797,32.5001221 L29.4999797,32.5 C29.776122,32.4999888 29.9999888,32.7238373 30,32.9999797 C30.0000112,33.276122 29.7761627,33.4999888 29.5000203,33.5 Z"/>
  </g>
</svg>
