<svg xmlns="http://www.w3.org/2000/svg" xmlns:xlink="http://www.w3.org/1999/xlink" width="48" height="48" viewBox="0 0 48 48">
  <defs>
    <linearGradient id="text-x-sql-c" x1="50%" x2="50%" y1="0%" y2="98.501%">
      <stop offset="0%" stop-color="#7FCB10"/>
      <stop offset="100%" stop-color="#50A100"/>
    </linearGradient>
    <path id="text-x-sql-b" d="M21,0 L32,11 L32,34.5 C32,36.9852814 29.9852814,39 27.5,39 L4.5,39 C2.01471863,39 3.04359188e-16,36.9852814 0,34.5 L0,4.5 C-3.04359188e-16,2.01471863 2.01471863,2.23289562e-15 4.5,1.77635684e-15 L21,0 Z"/>
    <filter id="text-x-sql-a" width="131.2%" height="125.6%" x="-15.6%" y="-10.3%" filterUnits="objectBoundingBox">
      <feOffset dy="1" in="SourceAlpha" result="shadowOffsetOuter1"/>
      <feGaussianBlur in="shadowOffsetOuter1" result="shadowBlurOuter1" stdDeviation="1.5"/>
      <feColorMatrix in="shadowBlurOuter1" values="0 0 0 0 0.46370117   0 0 0 0 0.679376132   0 0 0 0 0  0 0 0 0.5 0"/>
    </filter>
    <linearGradient id="text-x-sql-f" x1="50%" x2="12.223%" y1="50%" y2="88.513%">
      <stop offset="0%" stop-color="#FFF" stop-opacity=".1"/>
      <stop offset="100%" stop-color="#FFF" stop-opacity=".3"/>
    </linearGradient>
    <path id="text-x-sql-e" d="M21,0 L32,11 L25.5,11 C23.0147186,11 21,8.98528137 21,6.5 L21,0 Z"/>
    <filter id="text-x-sql-d" width="163.6%" height="163.6%" x="-31.8%" y="-22.7%" filterUnits="objectBoundingBox">
      <feOffset dy="1" in="SourceAlpha" result="shadowOffsetOuter1"/>
      <feGaussianBlur in="shadowOffsetOuter1" result="shadowBlurOuter1" stdDeviation="1"/>
      <feComposite in="shadowBlurOuter1" in2="SourceAlpha" operator="out" result="shadowBlurOuter1"/>
      <feColorMatrix in="shadowBlurOuter1" values="0 0 0 0 0   0 0 0 0 0   0 0 0 0 0  0 0 0 0.05 0"/>
    </filter>
  </defs>
  <g fill="none" fill-rule="evenodd">
    <g transform="translate(8 5)">
      <use fill="#000" filter="url(#text-x-sql-a)" xlink:href="#text-x-sql-b"/>
      <use fill="url(#text-x-sql-c)" xlink:href="#text-x-sql-b"/>
      <use fill="#000" filter="url(#text-x-sql-d)" xlink:href="#text-x-sql-e"/>
      <use fill="url(#text-x-sql-f)" xlink:href="#text-x-sql-e"/>
    </g>
    <path fill="#FFF" d="M32.3219881,32.4996596 C32.7378384,32.8659826 33,33.4022531 33,34.0008327 L33,34.9991673 C33,36.1045474 32.1030221,37 30.9962901,37 L17.0037099,37 C15.8965871,37 15,36.1061316 15,34.9991673 L15,34.0008327 C15,33.4031852 15.2622097,32.8669048 15.6780119,32.5003404 C15.2621616,32.1340174 15,31.5977469 15,30.9991673 L15,30.0008327 C15,29.4031852 15.2622097,28.8669048 15.6780119,28.5003404 C15.2621616,28.1340174 15,27.5977469 15,26.9991673 L15,26.0008327 C15,25.4031852 15.2622097,24.8669048 15.6780119,24.5003404 C15.2621616,24.1340174 15,23.5977469 15,22.9991673 L15,22.0008327 C15,20.8954526 15.8969779,20 17.0037099,20 L30.9962901,20 C32.1034129,20 33,20.8938684 33,22.0008327 L33,22.9991673 C33,23.5968148 32.7377903,24.1330952 32.3219881,24.4996596 C32.7378384,24.8659826 33,25.4022531 33,26.0008327 L33,26.9991673 C33,27.5968148 32.7377903,28.1330952 32.3219881,28.4996596 C32.7378384,28.8659826 33,29.4022531 33,30.0008327 L33,30.9991673 C33,31.5968148 32.7377903,32.1330952 32.3219881,32.4996596 Z M30.9962901,33 L17.0037099,33 C16.448882,33 16,33.4481187 16,34.0008327 L16,34.9991673 C16,35.5531659 16.4481932,36 17.0037099,36 L30.9962901,36 C31.551118,36 32,35.5518813 32,34.9991673 L32,34.0008327 C32,33.4468341 31.5518068,33 30.9962901,33 Z M30.9962901,32 C31.551118,32 32,31.5518813 32,30.9991673 L32,30.0008327 C32,29.4468341 31.5518068,29 30.9962901,29 L17.0037099,29 C16.448882,29 16,29.4481187 16,30.0008327 L16,30.9991673 C16,31.5531659 16.4481932,32 17.0037099,32 L30.9962901,32 Z M17.0037099,28 L30.9962901,28 C31.551118,28 32,27.5518813 32,26.9991673 L32,26.0008327 C32,25.4468341 31.5518068,25 30.9962901,25 L17.0037099,25 C16.448882,25 16,25.4481187 16,26.0008327 L16,26.9991673 C16,27.5531659 16.4481932,28 17.0037099,28 Z M30.9962901,24 C31.551118,24 32,23.5518813 32,22.9991673 L32,22.0008327 C32,21.4468341 31.5518068,21 30.9962901,21 L17.0037099,21 C16.448882,21 16,21.4481187 16,22.0008327 L16,22.9991673 C16,23.5531659 16.4481932,24 17.0037099,24 L30.9962901,24 Z M29.0000203,23 L26.0000203,23.0001221 C25.723878,23.0001333 25.5000112,22.7762848 25.5,22.5001424 C25.4999888,22.224 25.7238373,22.0001333 25.9999797,22.0001221 L28.9999797,22 C29.276122,21.9999888 29.4999888,22.2238373 29.5,22.4999797 C29.5000112,22.776122 29.2761627,22.9999888 29.0000203,23 Z M29.0000203,27 L26.0000203,27.0001221 C25.723878,27.0001333 25.5000112,26.7762848 25.5,26.5001424 C25.4999888,26.224 25.7238373,26.0001333 25.9999797,26.0001221 L28.9999797,26 C29.276122,25.9999888 29.4999888,26.2238373 29.5,26.4999797 C29.5000112,26.776122 29.2761627,26.9999888 29.0000203,27 Z M29.0000203,31 L26.0000203,31.0001221 C25.723878,31.0001333 25.5000112,30.7762848 25.5,30.5001424 C25.4999888,30.224 25.7238373,30.0001333 25.9999797,30.0001221 L28.9999797,30 C29.276122,29.9999888 29.4999888,30.2238373 29.5,30.4999797 C29.5000112,30.776122 29.2761627,30.9999888 29.0000203,31 Z M29.0000203,35 L26.0000203,35.0001221 C25.723878,35.0001333 25.5000112,34.7762848 25.5,34.5001424 C25.4999888,34.224 25.7238373,34.0001333 25.9999797,34.0001221 L28.9999797,34 C29.276122,33.9999888 29.4999888,34.2238373 29.5,34.4999797 C29.5000112,34.776122 29.2761627,34.9999888 29.0000203,35 Z"/>
  </g>
</svg>
