<?xml version="1.0" encoding="UTF-8"?>
<svg width="256px" height="256px" viewBox="0 0 256 256" version="1.1" xmlns="http://www.w3.org/2000/svg" xmlns:xlink="http://www.w3.org/1999/xlink">
    <title>devices/256/camera</title>
    <defs>
        <filter x="-7.1%" y="-7.7%" width="114.3%" height="120.4%" filterUnits="objectBoundingBox" id="filter-1">
            <feOffset dx="0" dy="4" in="SourceAlpha" result="shadowOffsetOuter1"></feOffset>
            <feGaussianBlur stdDeviation="5" in="shadowOffsetOuter1" result="shadowBlurOuter1"></feGaussianBlur>
            <feColorMatrix values="0 0 0 0 0   0 0 0 0 0   0 0 0 0 0  0 0 0 0.2 0" type="matrix" in="shadowBlurOuter1" result="shadowMatrixOuter1"></feColorMatrix>
            <feMerge>
                <feMergeNode in="shadowMatrixOuter1"></feMergeNode>
                <feMergeNode in="SourceGraphic"></feMergeNode>
            </feMerge>
        </filter>
        <linearGradient x1="0%" y1="50%" x2="100%" y2="50%" id="linearGradient-2">
            <stop stop-color="#BBBBBB" offset="0%"></stop>
            <stop stop-color="#BBBBBB" offset="23.1006856%"></stop>
            <stop stop-color="#858585" offset="100%"></stop>
        </linearGradient>
        <linearGradient x1="44.1553743%" y1="0%" x2="44.1553742%" y2="100%" id="linearGradient-3">
            <stop stop-color="#ABB5C0" offset="0%"></stop>
            <stop stop-color="#7E8A97" offset="100%"></stop>
        </linearGradient>
        <linearGradient x1="0%" y1="50%" x2="100%" y2="50%" id="linearGradient-4">
            <stop stop-color="#8D959E" offset="0%"></stop>
            <stop stop-color="#ABB5C0" offset="4.36645508%"></stop>
            <stop stop-color="#9BA4AD" offset="9.1015625%"></stop>
            <stop stop-color="#7E8A97" offset="100%"></stop>
        </linearGradient>
        <linearGradient x1="50%" y1="0.269052934%" x2="50%" y2="100%" id="linearGradient-5">
            <stop stop-color="#FFFFFF" offset="0%"></stop>
            <stop stop-color="#FFFFFF" stop-opacity="0" offset="100%"></stop>
        </linearGradient>
    </defs>
    <g id="devices/256/camera" stroke="none" stroke-width="1" fill="none" fill-rule="evenodd">
        <g id="Guide-256" transform="translate(8, 8)"></g>
        <g id="Group-2" filter="url(#filter-1)" transform="translate(9, 44.6696)">
            <path d="M41,0.3304319 L42,0.3304319 C54.7025492,0.3304319 65,10.6278827 65,23.3304319 L65,23.3304319 L65,23.3304319 L18,23.3304319 C18,10.6278827 28.2974508,0.3304319 41,0.3304319 Z" id="Rectangle-157" fill="url(#linearGradient-2)"></path>
            <path d="M20.0218105,11.3304319 L217.978189,11.3304319 C229.03593,11.3304319 238,20.2945018 238,31.3522424 L238,145.308621 C238,156.366362 229.03593,165.330432 217.978189,165.330432 L20.0218105,165.330432 C8.96406991,165.330432 1.35418267e-15,156.366362 0,145.308621 L0,31.3522424 C-1.35418267e-15,20.2945018 8.96406991,11.3304319 20.0218105,11.3304319 Z" id="Rectangle-145" fill="url(#linearGradient-3)"></path>
            <path d="M20.0218105,13.3304319 L217.978189,13.3304319 C229.03593,13.3304319 238,22.2945018 238,33.3522424 L238,142.308621 C238,153.366362 229.03593,162.330432 217.978189,162.330432 L20.0218105,162.330432 C8.96406991,162.330432 1.35418267e-15,153.366362 0,142.308621 L0,33.3522424 C-1.35418267e-15,22.2945018 8.96406991,13.3304319 20.0218105,13.3304319 Z" id="Rectangle-145" fill="url(#linearGradient-4)"></path>
            <circle id="Oval-23" fill="#CDD1D5" cx="157.208293" cy="90.5060017" r="62.2900784"></circle>
            <path d="M225.43076,89.6161457 C225.43076,128.932558 193.558511,161.694663 154.242099,162.287893 C114.925687,161.694663 83.0534379,128.932558 83.0534379,89.6161457 C83.0534379,89.120581 83.0585016,88.626199 83.06858,88.1330486 C83.8580897,126.764769 115.421252,157.838613 154.242099,157.838613 C193.062946,157.838613 224.626108,126.764769 225.415618,88.1330486 C225.425696,88.626199 225.43076,89.120581 225.43076,89.6161457 Z" id="Combined-Shape" fill="#6B7784"></path>
            <circle id="Oval-23" fill="#CDD1D5" cx="154.242099" cy="87.5398075" r="71.188661"></circle>
            <path d="M154.242099,16.3511464 C193.558511,16.3511464 225.43076,48.2233956 225.43076,87.5398075 C225.43076,88.0355361 225.425693,88.5300813 225.415608,89.0233941 C224.625842,50.3909219 193.062782,19.3173406 154.242099,19.3173406 C115.421416,19.3173406 83.8583563,50.3909219 83.06859,89.022415 C83.0585049,88.5300813 83.0534379,88.0355361 83.0534379,87.5398075 C83.0534379,48.2233956 114.925687,16.3511464 154.242099,16.3511464 Z" id="Combined-Shape" fill="#DFE4E8"></path>
            <circle id="Oval-23" fill="#ADACAC" cx="154.242099" cy="87.5398075" r="57.7573631"></circle>
            <circle id="Oval-23" fill="#868686" cx="154.242099" cy="87.5398075" r="55.0113153"></circle>
            <circle id="Oval-23" fill="#EAEDF0" cx="154.242099" cy="87.5398075" r="51.9732835"></circle>
            <path d="M206.203715,88.6521303 C206.211481,88.2822932 206.215382,87.911506 206.215382,87.5398075 C206.215382,58.8357556 182.946151,35.5665239 154.242099,35.5665239 C125.538047,35.5665239 102.268815,58.8357556 102.268815,87.5398075 C102.268815,87.911506 102.272717,88.2822932 102.280482,88.6521303 C102.872369,60.4616608 125.909746,37.7911696 154.242099,37.7911696 C182.574452,37.7911696 205.611829,60.4616608 206.203715,88.6521303 L206.203715,88.6521303 Z" id="Combined-Shape" fill="#FFFFFF"></path>
            <circle id="Oval-23" fill="#B3B4B5" cx="154.242099" cy="87.5398075" r="38.5605247"></circle>
            <path d="M192.786889,88.6521303 C192.797355,88.2826336 192.802624,87.9118358 192.802624,87.5398075 C192.802624,66.2434177 175.538489,48.9792827 154.242099,48.9792827 C132.945709,48.9792827 115.681574,66.2434177 115.681574,87.5398075 C115.681574,87.9118358 115.686843,88.2826336 115.697309,88.6521303 C116.285982,67.8701548 133.317737,51.2039284 154.242099,51.2039284 C175.16646,51.2039284 192.198216,67.8701548 192.786889,88.6521303 L192.786889,88.6521303 Z" id="Combined-Shape" fill="#9A9A9A"></path>
            <path d="M192.786889,126.471106 C192.797355,126.10161 192.802624,125.730812 192.802624,125.358784 C192.802624,104.062394 175.538489,86.7982589 154.242099,86.7982589 C132.945709,86.7982589 115.681574,104.062394 115.681574,125.358784 C115.681574,125.730812 115.686843,126.10161 115.697309,126.471106 C116.285982,105.689131 133.317737,89.0229046 154.242099,89.0229046 C175.16646,89.0229046 192.198216,105.689131 192.786889,126.471106 L192.786889,126.471106 Z" id="Combined-Shape" fill="#FFFFFF" transform="translate(154.2421, 106.6347) scale(1, -1) translate(-154.2421, -106.6347)"></path>
            <rect id="Rectangle-156" fill="#7F8FA0" x="47" y="24.3304319" width="47" height="7" rx="3.5"></rect>
            <rect id="Rectangle-156" fill="#E8EEFF" x="47" y="22.3304319" width="47" height="7" rx="3.5"></rect>
            <rect id="Rectangle-158" fill="#615A5E" x="131" y="69.3304319" width="47" height="36" rx="18"></rect>
            <circle id="Oval-29" fill="#2AAB14" cx="219.090519" cy="27.8080707" r="4.44929131"></circle>
            <circle id="Oval-29" fill="#3DDF23" cx="219.090519" cy="27.8080707" r="3.33696849"></circle>
            <ellipse id="Oval-29" fill="url(#linearGradient-5)" cx="219.090519" cy="27.0294439" rx="2.22464566" ry="1.89094966"></ellipse>
            <g id="Group" transform="translate(139.2219, 72.3304)">
                <circle id="Oval-28" fill="#434343" cx="15.0201733" cy="15.0201733" r="12.0161386"></circle>
                <circle id="Oval-28" fill="#2E2E2E" cx="15.0201733" cy="15.0201733" r="9.01210399"></circle>
                <circle id="Oval-28" fill="#000000" cx="15.0201733" cy="15.0201733" r="6.00806932"></circle>
                <path d="M15.0201733,30.0403466 C23.315586,30.0403466 30.0403466,23.315586 30.0403466,15.0201733 C30.0403466,6.72476065 23.315586,0 15.0201733,0 C6.72476065,0 0,6.72476065 0,15.0201733 C0,23.315586 6.72476065,30.0403466 15.0201733,30.0403466 Z" id="Oval-28" fill="#7ED321" opacity="0.255946828"></path>
            </g>
        </g>
    </g>
</svg>