<?xml version="1.0" encoding="UTF-8"?>
<svg width="256px" height="256px" viewBox="0 0 256 256" version="1.1" xmlns="http://www.w3.org/2000/svg" xmlns:xlink="http://www.w3.org/1999/xlink">
    <title>devices/256/drive-harddisk-mac</title>
    <defs>
        <filter x="-8.9%" y="-5.8%" width="117.7%" height="115.0%" filterUnits="objectBoundingBox" id="filter-1">
            <feOffset dx="0" dy="4" in="SourceAlpha" result="shadowOffsetOuter1"></feOffset>
            <feGaussianBlur stdDeviation="5" in="shadowOffsetOuter1" result="shadowBlurOuter1"></feGaussianBlur>
            <feColorMatrix values="0 0 0 0 0   0 0 0 0 0   0 0 0 0 0  0 0 0 0.2 0" type="matrix" in="shadowBlurOuter1" result="shadowMatrixOuter1"></feColorMatrix>
            <feMerge>
                <feMergeNode in="shadowMatrixOuter1"></feMergeNode>
                <feMergeNode in="SourceGraphic"></feMergeNode>
            </feMerge>
        </filter>
        <linearGradient x1="102.549264%" y1="57.6822305%" x2="-2.65228894%" y2="57.6822305%" id="linearGradient-2">
            <stop stop-color="#0067BC" offset="0%"></stop>
            <stop stop-color="#30EA7F" offset="4.57146722%"></stop>
            <stop stop-color="#00D887" offset="9.93130604%"></stop>
            <stop stop-color="#00B160" offset="88.9446523%"></stop>
            <stop stop-color="#00C165" offset="93.7925209%"></stop>
            <stop stop-color="#008CBD" offset="100%"></stop>
        </linearGradient>
        <linearGradient x1="100%" y1="56.4295561%" x2="0%" y2="56.4295561%" id="linearGradient-3">
            <stop stop-color="#FFFFFF" stop-opacity="0.5" offset="0%"></stop>
            <stop stop-color="#FFFFFF" offset="8.38902143%"></stop>
            <stop stop-color="#FFFFFF" stop-opacity="0.8" offset="52.3560063%"></stop>
            <stop stop-color="#FFFFFF" offset="88.1683526%"></stop>
            <stop stop-color="#FFFFFF" stop-opacity="0.5" offset="100%"></stop>
        </linearGradient>
        <radialGradient cx="48.2392027%" cy="19.1031265%" fx="48.2392027%" fy="19.1031265%" r="78.6539217%" gradientTransform="translate(0.4824, 0.191), scale(0.2188, 1), rotate(90), scale(1, 3.5807), translate(-0.4824, -0.191)" id="radialGradient-4">
            <stop stop-color="#7CFFFE" offset="0%"></stop>
            <stop stop-color="#D6CDE6" offset="100%"></stop>
        </radialGradient>
        <linearGradient x1="50%" y1="0%" x2="50%" y2="100%" id="linearGradient-5">
            <stop stop-color="#0174FF" offset="0%"></stop>
            <stop stop-color="#01C2FF" offset="50.8499801%"></stop>
            <stop stop-color="#0056FF" offset="100%"></stop>
        </linearGradient>
        <path d="M128,196 C129.104569,196 130,196.895431 130,198 L130,212 C130,213.104569 129.104569,214 128,214 C126.895431,214 126,213.104569 126,212 L126,198 C126,196.895431 126.895431,196 128,196 Z M137,196 C138.104569,196 139,196.895431 139,198 L139,212 C139,213.104569 138.104569,214 137,214 C135.895431,214 135,213.104569 135,212 L135,198 C135,196.895431 135.895431,196 137,196 Z M145,196 C146.104569,196 147,196.895431 147,198 L147,212 C147,213.104569 146.104569,214 145,214 C143.895431,214 143,213.104569 143,212 L143,198 C143,196.895431 143.895431,196 145,196 Z M153,196 C154.104569,196 155,196.895431 155,198 L155,212 C155,213.104569 154.104569,214 153,214 C151.895431,214 151,213.104569 151,212 L151,198 C151,196.895431 151.895431,196 153,196 Z M162,196 C163.104569,196 164,196.895431 164,198 L164,212 C164,213.104569 163.104569,214 162,214 C160.895431,214 160,213.104569 160,212 L160,198 C160,196.895431 160.895431,196 162,196 Z M170,196 C171.104569,196 172,196.895431 172,198 L172,212 C172,213.104569 171.104569,214 170,214 C168.895431,214 168,213.104569 168,212 L168,198 C168,196.895431 168.895431,196 170,196 Z" id="path-6"></path>
        <filter x="-2.2%" y="-5.6%" width="104.3%" height="122.2%" filterUnits="objectBoundingBox" id="filter-7">
            <feOffset dx="0" dy="2" in="SourceAlpha" result="shadowOffsetOuter1"></feOffset>
            <feColorMatrix values="0 0 0 0 1   0 0 0 0 1   0 0 0 0 1  0 0 0 0.3 0" type="matrix" in="shadowOffsetOuter1"></feColorMatrix>
        </filter>
        <path d="M23.5,213 C27.6421356,213 31,209.642136 31,205.5 C31,201.357864 27.6421356,198 23.5,198 C19.3578644,198 16,201.357864 16,205.5 C16,209.642136 19.3578644,213 23.5,213 Z" id="path-8"></path>
        <filter x="-20.0%" y="-20.0%" width="140.0%" height="140.0%" filterUnits="objectBoundingBox" id="filter-9">
            <feOffset dx="-4" dy="-6" in="SourceAlpha" result="shadowOffsetInner1"></feOffset>
            <feComposite in="shadowOffsetInner1" in2="SourceAlpha" operator="arithmetic" k2="-1" k3="1" result="shadowInnerInner1"></feComposite>
            <feColorMatrix values="0 0 0 0 0.191847778   0 0 0 0 0.912414966   0 0 0 0 0.103665518  0 0 0 0.5 0" type="matrix" in="shadowInnerInner1"></feColorMatrix>
        </filter>
    </defs>
    <g id="devices/256/drive-harddisk-mac" stroke="none" stroke-width="1" fill="none" fill-rule="evenodd">
        <g id="编组" filter="url(#filter-1)" transform="translate(32, 15)">
            <path d="M32,0 L160,0 C177.673112,-3.24649801e-15 192,14.326888 192,32 L192,205 L192,205 L9.09494702e-13,205 L9.09494702e-13,32 C9.0733037e-13,14.326888 14.326888,3.24649801e-15 32,0 Z" id="Rectangle-1" fill="url(#linearGradient-2)"></path>
            <path d="M20,159 L172,159 C183.045695,159 192,167.954305 192,179 L192,205 L192,205 L1.8189894e-12,205 L1.8189894e-12,179 C1.8176367e-12,167.954305 8.954305,159 20,159 Z" id="Rectangle-3" fill="url(#linearGradient-3)"></path>
            <path d="M172,159 C183.045695,159 192,167.954305 192,179 L192,205 L1.8189894e-12,205 L1.8189894e-12,179 C1.8189894e-12,167.954305 8.954305,159 20,159 L172,159 Z M20,161 C10.0588745,161 2,169.058875 2,179 L2,203 L190,203 L190,179 C190,169.169331 182.119217,161.179318 172.330665,161.002976 L172,161 L20,161 Z" id="Rectangle-3" fill-opacity="0.5" fill="#FFFFFF" fill-rule="nonzero"></path>
            <path d="M21,184 L171,184 C182.59798,184 192,193.40202 192,205 C192,216.59798 182.59798,226 171,226 L21,226 C9.40202025,226 1.42034288e-15,216.59798 0,205 C-1.42034288e-15,193.40202 9.40202025,184 21,184 Z" id="Rectangle-1" fill="url(#radialGradient-4)"></path>
            <path d="M171,184 C182.59798,184 192,193.40202 192,205 C192,216.59798 182.59798,226 171,226 L21,226 C9.40202025,226 0,216.59798 0,205 C0,193.40202 9.40202025,184 21,184 L171,184 Z M171,186 L21,186 C10.5065898,186 2,194.50659 2,205 C2,215.49341 10.5065898,224 21,224 L171,224 C181.49341,224 190,215.49341 190,205 C190,194.50659 181.49341,186 171,186 Z" id="Rectangle-1" fill-opacity="0.2" fill="#003D9C" fill-rule="nonzero"></path>
            <g id="Combined-Shape">
                <use fill="black" fill-opacity="1" filter="url(#filter-7)" xlink:href="#path-6"></use>
                <use fill="url(#linearGradient-5)" fill-rule="evenodd" xlink:href="#path-6"></use>
            </g>
            <g id="Oval">
                <use fill="#BAFF76" fill-rule="evenodd" xlink:href="#path-8"></use>
                <use fill="black" fill-opacity="1" filter="url(#filter-9)" xlink:href="#path-8"></use>
            </g>
            <path d="M23.5,198 C27.6421356,198 31,201.357864 31,205.5 C31,209.642136 27.6421356,213 23.5,213 C19.3578644,213 16,209.642136 16,205.5 C16,201.357864 19.3578644,198 23.5,198 Z M23.5,200 C20.4624339,200 18,202.462434 18,205.5 C18,208.537566 20.4624339,211 23.5,211 C26.5375661,211 29,208.537566 29,205.5 C29,202.462434 26.5375661,200 23.5,200 Z" id="Oval" fill="#54D800" fill-rule="nonzero"></path>
        </g>
        <g id="Page-1" transform="translate(91.9987, 49.9984)" fill="#FFFFFF">
            <path d="M53.4613176,19.9154667 C59.1801747,19.9154667 65.2384604,23.0801333 69.5584604,28.5478 C55.4104604,36.4176889 57.7093176,56.9358 72.0013176,62.4191333 C70.0316033,66.8475778 69.0904604,68.8268 66.5601747,72.7382444 C63.021889,78.2059111 58.0436033,85.0104667 51.8670318,85.0679111 C46.3796033,85.1201333 44.9704604,81.4436889 37.5287461,81.4854667 C30.081889,81.5272444 28.5287461,85.1305778 23.0413176,85.0840336 C16.8647461,85.0261333 12.1436033,78.8795778 8.61046041,73.4119111 C-1.27925388,58.1316889 -2.31296816,40.1985778 3.78646041,30.6628 C8.12188898,23.8895778 14.9516033,19.9259111 21.3801747,19.9259111 C27.9270318,19.9259111 32.0413176,23.5658 37.4516033,23.5658 C42.6973176,23.5658 45.8961747,19.9154667 53.4613176,19.9154667 Z M51.7996604,2.27373675e-13 C52.5556604,5.17 50.4676604,10.2303333 47.7213747,13.8127778 C44.7796604,17.6511111 39.7088033,20.6225556 34.8076604,20.4711111 C33.9076604,15.5204444 36.2065176,10.4287778 38.9939461,6.99777778 C42.059089,3.21688889 47.3099461,0.313333333 51.7996604,2.27373675e-13 Z" id="形状结合"></path>
        </g>
    </g>
</svg>