<?xml version="1.0" encoding="UTF-8"?>
<svg width="256px" height="256px" viewBox="0 0 256 256" version="1.1" xmlns="http://www.w3.org/2000/svg" xmlns:xlink="http://www.w3.org/1999/xlink">
    <title>devices/256/drive-harddisk-linux</title>
    <defs>
        <filter x="-8.9%" y="-5.8%" width="117.7%" height="115.0%" filterUnits="objectBoundingBox" id="filter-1">
            <feOffset dx="0" dy="4" in="SourceAlpha" result="shadowOffsetOuter1"></feOffset>
            <feGaussianBlur stdDeviation="5" in="shadowOffsetOuter1" result="shadowBlurOuter1"></feGaussianBlur>
            <feColorMatrix values="0 0 0 0 0   0 0 0 0 0   0 0 0 0 0  0 0 0 0.2 0" type="matrix" in="shadowBlurOuter1" result="shadowMatrixOuter1"></feColorMatrix>
            <feMerge>
                <feMergeNode in="shadowMatrixOuter1"></feMergeNode>
                <feMergeNode in="SourceGraphic"></feMergeNode>
            </feMerge>
        </filter>
        <linearGradient x1="102.549264%" y1="57.6822305%" x2="-2.65228894%" y2="57.6822305%" id="linearGradient-2">
            <stop stop-color="#0067BC" offset="0%"></stop>
            <stop stop-color="#30EA7F" offset="4.57146722%"></stop>
            <stop stop-color="#00D887" offset="9.93130604%"></stop>
            <stop stop-color="#00B160" offset="88.9446523%"></stop>
            <stop stop-color="#00C165" offset="93.7925209%"></stop>
            <stop stop-color="#008CBD" offset="100%"></stop>
        </linearGradient>
        <linearGradient x1="100%" y1="56.4295561%" x2="0%" y2="56.4295561%" id="linearGradient-3">
            <stop stop-color="#FFFFFF" stop-opacity="0.5" offset="0%"></stop>
            <stop stop-color="#FFFFFF" offset="8.38902143%"></stop>
            <stop stop-color="#FFFFFF" stop-opacity="0.8" offset="52.3560063%"></stop>
            <stop stop-color="#FFFFFF" offset="88.1683526%"></stop>
            <stop stop-color="#FFFFFF" stop-opacity="0.5" offset="100%"></stop>
        </linearGradient>
        <radialGradient cx="48.2392027%" cy="19.1031265%" fx="48.2392027%" fy="19.1031265%" r="78.6539217%" gradientTransform="translate(0.4824, 0.191), scale(0.2188, 1), rotate(90), scale(1, 3.5807), translate(-0.4824, -0.191)" id="radialGradient-4">
            <stop stop-color="#7CFFFE" offset="0%"></stop>
            <stop stop-color="#D6CDE6" offset="100%"></stop>
        </radialGradient>
        <linearGradient x1="50%" y1="0%" x2="50%" y2="100%" id="linearGradient-5">
            <stop stop-color="#0174FF" offset="0%"></stop>
            <stop stop-color="#01C2FF" offset="50.8499801%"></stop>
            <stop stop-color="#0056FF" offset="100%"></stop>
        </linearGradient>
        <path d="M128,196 C129.104569,196 130,196.895431 130,198 L130,212 C130,213.104569 129.104569,214 128,214 C126.895431,214 126,213.104569 126,212 L126,198 C126,196.895431 126.895431,196 128,196 Z M137,196 C138.104569,196 139,196.895431 139,198 L139,212 C139,213.104569 138.104569,214 137,214 C135.895431,214 135,213.104569 135,212 L135,198 C135,196.895431 135.895431,196 137,196 Z M145,196 C146.104569,196 147,196.895431 147,198 L147,212 C147,213.104569 146.104569,214 145,214 C143.895431,214 143,213.104569 143,212 L143,198 C143,196.895431 143.895431,196 145,196 Z M153,196 C154.104569,196 155,196.895431 155,198 L155,212 C155,213.104569 154.104569,214 153,214 C151.895431,214 151,213.104569 151,212 L151,198 C151,196.895431 151.895431,196 153,196 Z M162,196 C163.104569,196 164,196.895431 164,198 L164,212 C164,213.104569 163.104569,214 162,214 C160.895431,214 160,213.104569 160,212 L160,198 C160,196.895431 160.895431,196 162,196 Z M170,196 C171.104569,196 172,196.895431 172,198 L172,212 C172,213.104569 171.104569,214 170,214 C168.895431,214 168,213.104569 168,212 L168,198 C168,196.895431 168.895431,196 170,196 Z" id="path-6"></path>
        <filter x="-2.2%" y="-5.6%" width="104.3%" height="122.2%" filterUnits="objectBoundingBox" id="filter-7">
            <feOffset dx="0" dy="2" in="SourceAlpha" result="shadowOffsetOuter1"></feOffset>
            <feColorMatrix values="0 0 0 0 1   0 0 0 0 1   0 0 0 0 1  0 0 0 0.3 0" type="matrix" in="shadowOffsetOuter1"></feColorMatrix>
        </filter>
        <path d="M23.5,213 C27.6421356,213 31,209.642136 31,205.5 C31,201.357864 27.6421356,198 23.5,198 C19.3578644,198 16,201.357864 16,205.5 C16,209.642136 19.3578644,213 23.5,213 Z" id="path-8"></path>
        <filter x="-20.0%" y="-20.0%" width="140.0%" height="140.0%" filterUnits="objectBoundingBox" id="filter-9">
            <feOffset dx="-4" dy="-6" in="SourceAlpha" result="shadowOffsetInner1"></feOffset>
            <feComposite in="shadowOffsetInner1" in2="SourceAlpha" operator="arithmetic" k2="-1" k3="1" result="shadowInnerInner1"></feComposite>
            <feColorMatrix values="0 0 0 0 0.191847778   0 0 0 0 0.912414966   0 0 0 0 0.103665518  0 0 0 0.5 0" type="matrix" in="shadowInnerInner1"></feColorMatrix>
        </filter>
    </defs>
    <g id="devices/256/drive-harddisk-linux" stroke="none" stroke-width="1" fill="none" fill-rule="evenodd">
        <g id="编组" filter="url(#filter-1)" transform="translate(32, 15)">
            <path d="M32,0 L160,0 C177.673112,-3.24649801e-15 192,14.326888 192,32 L192,205 L192,205 L9.09494702e-13,205 L9.09494702e-13,32 C9.0733037e-13,14.326888 14.326888,3.24649801e-15 32,0 Z" id="Rectangle-1" fill="url(#linearGradient-2)"></path>
            <path d="M20,159 L172,159 C183.045695,159 192,167.954305 192,179 L192,205 L192,205 L1.8189894e-12,205 L1.8189894e-12,179 C1.8176367e-12,167.954305 8.954305,159 20,159 Z" id="Rectangle-3" fill="url(#linearGradient-3)"></path>
            <path d="M172,159 C183.045695,159 192,167.954305 192,179 L192,205 L1.8189894e-12,205 L1.8189894e-12,179 C1.8189894e-12,167.954305 8.954305,159 20,159 L172,159 Z M20,161 C10.0588745,161 2,169.058875 2,179 L2,203 L190,203 L190,179 C190,169.169331 182.119217,161.179318 172.330665,161.002976 L172,161 L20,161 Z" id="Rectangle-3" fill-opacity="0.5" fill="#FFFFFF" fill-rule="nonzero"></path>
            <path d="M21,184 L171,184 C182.59798,184 192,193.40202 192,205 C192,216.59798 182.59798,226 171,226 L21,226 C9.40202025,226 1.42034288e-15,216.59798 0,205 C-1.42034288e-15,193.40202 9.40202025,184 21,184 Z" id="Rectangle-1" fill="url(#radialGradient-4)"></path>
            <path d="M171,184 C182.59798,184 192,193.40202 192,205 C192,216.59798 182.59798,226 171,226 L21,226 C9.40202025,226 0,216.59798 0,205 C0,193.40202 9.40202025,184 21,184 L171,184 Z M171,186 L21,186 C10.5065898,186 2,194.50659 2,205 C2,215.49341 10.5065898,224 21,224 L171,224 C181.49341,224 190,215.49341 190,205 C190,194.50659 181.49341,186 171,186 Z" id="Rectangle-1" fill-opacity="0.2" fill="#003D9C" fill-rule="nonzero"></path>
            <g id="Combined-Shape">
                <use fill="black" fill-opacity="1" filter="url(#filter-7)" xlink:href="#path-6"></use>
                <use fill="url(#linearGradient-5)" fill-rule="evenodd" xlink:href="#path-6"></use>
            </g>
            <g id="Oval">
                <use fill="#BAFF76" fill-rule="evenodd" xlink:href="#path-8"></use>
                <use fill="black" fill-opacity="1" filter="url(#filter-9)" xlink:href="#path-8"></use>
            </g>
            <path d="M23.5,198 C27.6421356,198 31,201.357864 31,205.5 C31,209.642136 27.6421356,213 23.5,213 C19.3578644,213 16,209.642136 16,205.5 C16,201.357864 19.3578644,198 23.5,198 Z M23.5,200 C20.4624339,200 18,202.462434 18,205.5 C18,208.537566 20.4624339,211 23.5,211 C26.5375661,211 29,208.537566 29,205.5 C29,202.462434 26.5375661,200 23.5,200 Z" id="Oval" fill="#54D800" fill-rule="nonzero"></path>
        </g>
        <path d="M153.532947,114.52206 C153.532947,113.892636 152.569271,113.158328 150.64187,112.3191 C150.782047,111.794584 150.913462,111.313787 151.036106,110.876684 C151.158762,110.439594 151.246376,109.98502 151.298938,109.512952 C151.351499,109.040884 151.404061,108.664983 151.456634,108.385248 C151.509196,108.105502 151.517956,107.712118 151.482915,107.205085 C151.447874,106.698051 151.430353,106.357127 151.430353,106.182288 C151.430353,106.00745 151.36902,105.622807 151.246376,105.028349 C151.123721,104.433902 151.053638,104.075483 151.036106,103.953105 C151.018586,103.830714 150.930983,103.393623 150.773286,102.641809 C150.61559,101.890006 150.519227,101.426691 150.484174,101.251853 C150.13374,99.5733971 149.310239,97.7725861 148.013625,95.8493492 C146.717011,93.9261241 145.455474,92.6148519 144.228942,91.9154973 C145.069987,92.6148519 146.068716,94.0659974 147.225154,96.268969 C150.273939,101.933748 151.220095,106.794194 150.063657,110.85046 C149.678182,112.24917 148.802108,112.983489 147.435412,113.05342 C146.349057,113.193293 145.674481,112.86984 145.411661,112.083072 C145.148829,111.296292 145.008665,109.836417 144.991144,107.703376 C144.973612,105.570336 144.772126,103.699594 144.386639,102.091069 C144.071246,100.727325 143.729583,99.5209608 143.361629,98.4719289 C142.993674,97.422897 142.652,96.6273877 142.336607,96.085389 C142.021213,95.5433904 141.749633,95.115041 141.521854,94.8003291 C141.294064,94.4856172 141.066285,94.2233651 140.838506,94.0135493 C140.610728,93.8037453 140.479312,93.6813665 140.444271,93.6463894 C139.953661,91.4783949 139.410489,89.6775721 138.814755,88.2438975 C138.219021,86.810223 137.70213,85.8311336 137.264093,85.3066177 C136.826045,84.7821018 136.414289,84.2051378 136.028813,83.5757257 C135.643338,82.9463019 135.380506,82.246959 135.240342,81.4776619 C135.100166,80.743342 135.205289,79.8079711 135.555723,78.671514 C135.906158,77.535057 135.985012,76.6696168 135.792274,76.0751701 C135.599525,75.4807117 134.819826,75.0436209 133.45313,74.7638862 C132.927478,74.6589783 132.147767,74.3442781 131.113985,73.8197504 C130.080203,73.2952345 129.458188,73.0154997 129.24793,72.9805343 C128.967578,72.945569 128.77484,72.4909955 128.669717,71.6167906 C128.564582,70.7425973 128.704758,69.8509332 129.090233,68.9417746 C129.475709,68.0326159 130.106483,67.5605481 130.982569,67.5255827 C132.279183,67.4206866 133.172777,67.9451908 133.663388,69.0991305 C134.153998,70.2530585 134.22408,71.2671133 133.873646,72.1413065 C133.488171,72.8056957 133.45313,73.2690105 133.768523,73.5312743 C134.083904,73.7935264 134.609556,73.8022677 135.345465,73.5574983 C135.801034,73.4176251 136.028813,72.788213 136.028813,71.6692504 C136.028813,70.550276 136.028813,69.9033812 136.028813,69.7285426 C135.853596,68.6795107 135.617057,67.8053292 135.319184,67.1059747 C135.021312,66.4066201 134.653369,65.8733628 134.21532,65.5062028 C133.777271,65.1390428 133.365527,64.8767907 132.98004,64.7194348 C132.594564,64.5620788 132.121486,64.4309469 131.560794,64.3260508 C127.81114,64.6057855 126.251718,66.9485952 126.882505,71.3545385 C126.882505,71.8790544 126.864984,72.1413065 126.829943,72.1413065 C126.51455,71.8265946 125.99767,71.6430263 125.27927,71.5905665 C124.560881,71.5381184 123.982679,71.5468598 123.544631,71.6167906 C123.106582,71.6867331 122.835002,71.5993079 122.729879,71.3545385 C122.76492,69.3613709 122.484567,67.7878465 121.888834,66.6339068 C121.2931,65.4799788 120.504629,64.8855321 119.523408,64.8505667 C118.577241,64.8155896 117.850091,65.2963988 117.34196,66.2929708 C116.83383,67.2895546 116.544729,68.3298334 116.474647,69.4138307 C116.439594,69.9383584 116.500928,70.5852414 116.658624,71.3545385 C116.816309,72.1238355 117.0441,72.7794717 117.34196,73.3214703 C117.639833,73.8634689 117.911413,74.099497 118.156724,74.0295662 C118.507159,73.9246583 118.787499,73.6798889 118.997757,73.2952462 C119.137933,72.9805343 119.015289,72.8406611 118.629802,72.8756264 C118.384503,72.8756264 118.112923,72.6221157 117.81505,72.1150825 C117.517178,71.6080492 117.350721,71.0223439 117.31568,70.3579664 C117.280639,69.5886693 117.438335,68.9417746 117.788769,68.4172586 C118.139204,67.8927427 118.734925,67.6479733 119.57597,67.6829387 C120.171715,67.6829387 120.644793,68.0500986 120.995228,68.7844186 C121.345662,69.5187386 121.512119,70.2005987 121.494598,70.8300225 C121.477078,71.4594463 121.450797,71.844089 121.415744,71.9839505 C120.644793,72.5084782 120.101622,73.0154997 119.78624,73.5050503 C119.505888,73.9246583 119.02405,74.335525 118.340702,74.7376504 C117.657354,75.1397875 117.298159,75.3583329 117.263118,75.3932982 C116.807549,75.8828488 116.535969,76.3549049 116.448354,76.8094901 C116.360752,77.2640635 116.492167,77.5787754 116.842602,77.7536141 C117.3332,78.0333606 117.771237,78.3742848 118.156724,78.7764102 C118.5422,79.1785473 118.82254,79.5107301 118.997757,79.772994 C119.172974,80.0352461 119.497128,80.2625328 119.970217,80.4548659 C120.443296,80.6471872 121.06531,80.7608247 121.836272,80.7957901 C123.483309,80.8657326 125.270509,80.6034805 127.197898,80.009022 C127.26798,79.9740566 127.670976,79.8516661 128.406885,79.641862 C129.142807,79.432058 129.747301,79.248478 130.220379,79.0911221 C130.693468,78.9337661 131.210348,78.7064794 131.771052,78.4092502 C132.331745,78.1120327 132.699699,77.8060621 132.874917,77.4913502 C133.19031,77.0018114 133.540732,76.8619382 133.926208,77.0717422 C134.101425,77.1766501 134.21532,77.3252529 134.267882,77.517586 C134.320455,77.7099074 134.267882,77.9197114 134.110185,78.1469981 C133.9525,78.3742848 133.663388,78.5403821 133.242871,78.64529 C132.542003,78.855094 131.552034,79.2309953 130.272952,79.772994 C128.993859,80.3149926 128.196627,80.6559285 127.881246,80.7957901 C126.339333,81.4601793 125.112825,81.8623046 124.201698,82.0021779 C123.3256,82.1770165 121.941407,82.1420511 120.04906,81.89727 C119.698626,81.8273392 119.540929,81.8623046 119.57597,82.0021779 C119.611023,82.1420511 119.908884,82.474234 120.469576,82.9987499 C121.345662,83.8030124 122.519609,84.1876551 123.991428,84.1526897 C124.587173,84.1177243 125.217948,83.9953337 125.883775,83.7855297 C126.549603,83.5757139 127.180377,83.3309445 127.776111,83.0512098 C128.371844,82.7714632 128.958818,82.4655044 129.537042,82.1333098 C130.115255,81.8011152 130.640895,81.503886 131.113985,81.2416339 C131.587075,80.97937 132.016351,80.769566 132.401827,80.6122101 C132.787302,80.4548659 133.093935,80.4111474 133.321714,80.4810899 C133.549492,80.5510206 133.698429,80.743342 133.768523,81.0580539 C133.768523,81.1279847 133.75099,81.2066685 133.715949,81.294082 C133.680908,81.3815072 133.610826,81.4689206 133.505691,81.5563458 C133.400568,81.6437592 133.295433,81.7224313 133.190298,81.7923739 C133.085175,81.8623046 132.936238,81.9497298 132.743501,82.0546259 C132.550763,82.1595338 132.393066,82.2382059 132.270411,82.2906658 C132.147767,82.3431138 131.97255,82.4305273 131.744771,82.5529179 C131.516981,82.6753084 131.350524,82.7539805 131.245401,82.7889459 C130.26418,83.2784965 129.081485,84.0477818 127.697268,85.0968137 C126.31304,86.1458455 125.147866,86.8976364 124.201698,87.3522216 C123.255518,87.8068068 122.396965,87.8242895 121.626014,87.4046697 C120.890093,87.020027 119.78624,85.7437202 118.314421,83.5757257 C117.543458,82.4917167 117.105421,82.107074 117.000286,82.4217859 C116.965245,82.5266938 116.947725,82.7015325 116.947725,82.9463019 C116.947725,83.8204951 116.684905,84.8083258 116.159254,85.9098057 C115.633602,87.0112974 115.116711,87.9816337 114.60858,88.8208615 C114.100449,89.6600894 113.732506,90.6741441 113.504716,91.8630493 C113.276937,93.0519544 113.478435,94.1534226 114.109221,95.1674891 C113.303218,95.3772931 112.208125,96.9508174 110.823909,99.888109 C109.439692,102.825412 108.60742,105.290601 108.327068,107.283768 C108.256986,107.913181 108.230705,109.119557 108.248225,110.902908 C108.265746,112.686272 108.169383,113.717809 107.959113,113.997544 C107.678773,114.836772 107.170642,114.88922 106.434732,114.1549 C105.313335,113.070903 104.682572,111.427436 104.542396,109.224464 C104.472302,108.245375 104.542396,107.266286 104.752655,106.287185 C104.892831,105.622795 104.87531,105.308095 104.700093,105.343061 L104.489823,105.605324 C103.228262,107.878227 103.403479,110.780506 105.015474,114.312256 C105.190692,114.731864 105.628729,115.221415 106.329597,115.780896 C107.030477,116.340377 107.450982,116.690055 107.591158,116.829928 C108.292027,117.634179 110.114268,119.216456 113.057919,121.576784 C116.001569,123.937099 117.631073,125.274607 117.946466,125.589308 C118.507159,126.113835 118.81378,126.778213 118.866353,127.582463 C118.918915,128.386726 118.673615,129.138517 118.130443,129.837883 C117.58726,130.537238 116.79004,130.939363 115.738737,131.044259 C116.019078,131.568775 116.527208,132.346802 117.263118,133.378351 C117.999028,134.409899 118.489626,135.354016 118.734937,136.210727 C118.980237,137.067437 119.102892,138.300034 119.102892,139.908552 C120.714887,139.069325 120.837543,137.46083 119.470847,135.08302 C119.330671,134.803278 119.146693,134.52354 118.918915,134.243798 C118.691136,133.964055 118.524679,133.754252 118.419544,133.61438 C118.314421,133.474509 118.279368,133.36961 118.314421,133.299667 C118.419544,133.124829 118.647323,132.958743 118.997757,132.801387 C119.348191,132.644031 119.698626,132.687738 120.04906,132.932507 C121.661055,134.750837 124.569629,135.380248 128.77484,134.820763 C133.435633,134.296246 136.536932,132.775175 138.078845,130.257491 C138.884849,128.928713 139.480571,128.404209 139.866058,128.683943 C140.286574,128.893759 140.461791,129.802906 140.391709,131.411419 C140.356656,132.285612 139.953672,133.89411 139.18271,136.236952 C138.867317,137.041212 138.762193,137.696848 138.867317,138.20388 C138.972452,138.710913 139.392968,138.98191 140.128878,139.016878 C140.234013,138.35249 140.488072,137.00625 140.891068,134.978118 C141.294076,132.94999 141.530615,131.376454 141.600697,130.257491 C141.670791,129.523171 141.556896,128.238123 141.259023,126.402311 C140.961162,124.5665 140.829746,122.870585 140.864787,121.31452 C140.899828,119.758455 141.302824,118.525855 142.073787,117.616696 C142.599438,116.987272 143.493033,116.672572 144.754594,116.672572 C144.789635,115.378759 145.394128,114.452129 146.568087,113.892648 C147.742045,113.333155 149.012355,113.149587 150.379051,113.341908 C151.745747,113.534229 152.797038,113.927613 153.532947,114.52206 L153.532947,114.52206 Z M120.52215,71.1447344 C120.627273,70.550276 120.583472,70.0257718 120.390734,69.5711866 C120.197996,69.1166132 119.996498,68.8543494 119.78624,68.7844186 C119.470847,68.7144878 119.31315,68.8368667 119.31315,69.1515786 C119.383232,69.3264172 119.470847,69.4313251 119.57597,69.4662905 C119.926404,69.4662905 120.04906,69.7285426 119.943925,70.2530585 C119.838802,70.9524131 119.978966,71.3020904 120.364453,71.3020904 C120.469576,71.3020904 120.52215,71.2496306 120.52215,71.1447344 L120.52215,71.1447344 Z M133.190298,70.3055066 C133.190298,69.9208639 133.102695,69.579928 132.927478,69.2827105 C132.752261,68.9854813 132.559523,68.7669359 132.349265,68.6270626 C132.139007,68.4871894 131.98131,68.4347413 131.876175,68.4697067 C131.38557,68.5046721 131.262921,68.6270626 131.508221,68.8368667 C131.578314,68.871832 131.648397,68.9068092 131.718479,68.9417746 C132.209089,69.0816478 132.524482,69.6236347 132.664658,70.5677704 C132.664658,70.6726666 132.804823,70.6377012 133.085175,70.4628625 L133.190298,70.3055066 Z M167.357533,129.706751 C167.743009,130.143842 167.953267,130.56345 167.98832,130.965587 C168.023361,131.367713 167.97956,131.761097 167.856904,132.145739 C167.734248,132.530382 167.462668,132.915025 167.04214,133.299667 C166.621624,133.684318 166.209868,134.025249 165.806872,134.322475 C165.403864,134.619701 164.878224,134.943148 164.229918,135.292827 C163.581611,135.642504 163.02969,135.930985 162.574121,136.158275 C162.118552,136.385565 161.557871,136.656562 160.892043,136.971272 C160.226216,137.285982 159.753138,137.513269 159.472786,137.65314 C158.141131,138.317528 156.643054,139.296612 154.978486,140.59042 C153.313917,141.884228 151.991046,143.003181 151.009825,143.947311 C150.414092,144.506796 149.222625,144.847727 147.435412,144.970114 C145.648188,145.092502 144.088778,144.838989 142.757123,144.209569 C142.126348,143.894859 141.609457,143.483993 141.206461,142.97696 C140.803465,142.469928 140.514353,142.024094 140.339136,141.639449 C140.163919,141.254803 139.778443,140.913872 139.18271,140.616646 C138.586976,140.319419 137.763464,140.153326 136.712161,140.118358 C135.170248,140.08339 132.892449,140.065906 129.878705,140.065906 C129.212889,140.065906 128.21416,140.092132 126.882505,140.144583 C125.55085,140.197035 124.534611,140.240744 123.833743,140.275712 C122.29183,140.310679 120.898865,140.572934 119.654824,141.062483 C118.410784,141.552032 117.473376,142.076541 116.842602,142.636026 C116.211815,143.195511 115.449625,143.693795 114.556019,144.130892 C113.662412,144.567989 112.725017,144.769051 111.743796,144.734083 C110.727534,144.699115 108.782649,144.157123 105.909081,143.108089 C103.035513,142.059055 100.477385,141.307258 98.234596,140.852678 C97.5687697,140.712806 96.6751741,140.546712 95.5537833,140.35439 C94.4323912,140.162066 93.5563173,140.004713 92.9255345,139.882326 C92.2947516,139.759939 91.6026528,139.593844 90.8492179,139.384038 C90.095783,139.17423 89.5088133,138.920718 89.088291,138.623492 C88.6677693,138.326266 88.369904,137.985335 88.1946867,137.60069 C87.8442517,136.79643 87.9669021,135.633768 88.5626415,134.11267 C89.1583802,132.591571 89.4737675,131.638718 89.5088109,131.254063 C89.5438544,130.694582 89.4737687,129.995239 89.2985515,129.156011 C89.1233332,128.316783 88.9481185,127.573734 88.7729013,126.926827 C88.5976838,126.279921 88.5188372,125.641767 88.5363589,125.012344 C88.5538807,124.382932 88.7378562,123.910864 89.088291,123.596164 C89.5789001,123.176544 90.5776249,122.931774 92.0844946,122.861844 C93.5913643,122.791901 94.6426542,122.582097 95.2383924,122.23242 C96.2896976,121.602996 97.0256001,120.991078 97.4461213,120.39662 C97.8666436,119.802173 98.0769018,118.910509 98.0769018,117.721604 C98.0769016,118.718177 99.0055502,116.148056 98.8653765,115.308828 C98.7602451,114.749347 98.7252028,114.084969 98.7602462,113.315684 C98.7952897,112.301618 98.9705045,111.392459 99.2858953,110.588208 C99.6012873,109.783946 100.021804,108.962212 100.547455,108.122985 C101.073107,107.283757 101.458582,106.549448 101.703881,105.920025 C101.984233,105.185705 102.448551,103.926881 103.096858,102.143529 C103.745165,100.360165 104.262044,98.9964449 104.64752,98.0523091 C105.033007,97.1081851 105.558646,96.0416823 106.224474,94.8527772 C106.890301,93.663872 107.573638,92.7197598 108.274506,92.0204052 C112.129295,87.0200035 114.301959,83.6107028 114.792558,81.7923739 C114.372041,77.8759812 114.091701,72.4560536 113.951525,65.5324268 C113.881431,62.3853312 114.301947,59.7365628 115.213086,57.5860392 C116.124213,55.4355156 117.981495,53.6084806 120.78497,52.1048635 C122.151666,51.3705436 123.973895,51.0033836 126.25173,51.0033836 C128.109036,50.9684182 129.966307,51.2044463 131.823614,51.7114795 C133.68092,52.2185128 135.24033,52.9440796 136.501891,53.8882154 C138.499374,55.3568553 140.102585,57.4811196 141.311596,60.261067 C142.520596,63.0410026 143.037475,65.6198403 142.862258,67.9976506 C142.687041,71.3195848 143.21268,75.0610801 144.439212,79.222254 C145.630691,83.1736121 147.96104,86.9850499 151.430353,90.6566614 C153.357742,92.7197598 155.101129,95.569591 156.660563,99.2062489 C158.219997,102.842895 159.262528,106.182265 159.788179,109.224464 C160.068531,110.937886 160.156134,112.415255 160.050999,113.656608 C159.945876,114.897973 159.735617,115.868309 159.420224,116.567664 C159.104831,117.267019 159.875782,120.08192 160.366392,119.6623 C160.401433,120.746309 160.541609,121.734128 160.786908,122.625804 C161.03222,123.517491 161.286279,124.225576 161.549111,124.750092 C161.81193,125.274607 162.171125,125.772888 162.626682,126.244955 C163.082252,126.717023 163.450207,127.049206 163.730547,127.241528 C164.010899,127.433861 164.387614,127.661147 164.860704,127.923399 C165.333782,128.185663 165.622894,128.351749 165.728018,128.421691 C166.428886,128.841299 166.972058,129.269649 167.357533,129.706751 Z" id="Page-1" fill="#FFFFFF"></path>
    </g>
</svg>