<svg xmlns="http://www.w3.org/2000/svg" xmlns:xlink="http://www.w3.org/1999/xlink" width="256" height="256" viewBox="0 0 256 256">
  <defs>
    <filter id="drive-optical-a" width="133.7%" height="128.7%" x="-16.8%" y="-14.4%" filterUnits="objectBoundingBox">
      <feOffset dy="4" in="SourceAlpha" result="shadowOffsetOuter1"/>
      <feGaussianBlur in="shadowOffsetOuter1" result="shadowBlurOuter1" stdDeviation="6"/>
      <feComposite in="shadowBlurOuter1" in2="SourceAlpha" operator="out" result="shadowBlurOuter1"/>
      <feColorMatrix in="shadowBlurOuter1" result="shadowMatrixOuter1" values="0 0 0 0 0   0 0 0 0 0   0 0 0 0 0  0 0 0 0.2 0"/>
      <feMerge>
        <feMergeNode in="shadowMatrixOuter1"/>
        <feMergeNode in="SourceGraphic"/>
      </feMerge>
    </filter>
    <linearGradient id="drive-optical-b" x1="102.549%" x2="-2.652%" y1="57.682%" y2="57.682%">
      <stop offset="0%" stop-color="#0067BC"/>
      <stop offset="4.571%" stop-color="#30EA7F"/>
      <stop offset="9.931%" stop-color="#00D887"/>
      <stop offset="88.945%" stop-color="#00B160"/>
      <stop offset="93.793%" stop-color="#00C165"/>
      <stop offset="100%" stop-color="#008CBD"/>
    </linearGradient>
    <linearGradient id="drive-optical-c" x1="100%" x2="0%" y1="56.43%" y2="56.43%">
      <stop offset="0%" stop-color="#FFF" stop-opacity=".5"/>
      <stop offset="9.936%" stop-color="#FFF" stop-opacity=".9"/>
      <stop offset="52.356%" stop-color="#FFF" stop-opacity=".7"/>
      <stop offset="87.648%" stop-color="#FFF" stop-opacity=".9"/>
      <stop offset="100%" stop-color="#FFF" stop-opacity=".5"/>
    </linearGradient>
    <path id="drive-optical-d" d="M7.55975192e-09,170.007699 C6.32354541e-09,160.062321 8.05426615,152 17.9987376,152 L166.001262,152 C175.941691,152 184,160.053233 184,170.007699 L184,189.992301 C184,199.937678 175.945734,208 166.001262,208 L17.9987376,208.000001 C8.05830933,208.000001 1.12811663e-08,199.946767 1.00438301e-08,189.992302 L7.55975192e-09,170.007699 Z"/>
    <filter id="drive-optical-e" width="101.1%" height="103.6%" x="-.5%" y="-1.8%" filterUnits="objectBoundingBox">
      <feMorphology in="SourceAlpha" radius="2" result="shadowSpreadInner1"/>
      <feOffset in="shadowSpreadInner1" result="shadowOffsetInner1"/>
      <feComposite in="shadowOffsetInner1" in2="SourceAlpha" k2="-1" k3="1" operator="arithmetic" result="shadowInnerInner1"/>
      <feColorMatrix in="shadowInnerInner1" values="0 0 0 0 1   0 0 0 0 1   0 0 0 0 1  0 0 0 0.5 0"/>
    </filter>
    <radialGradient id="drive-optical-f" cx="48.239%" cy="19.103%" r="78.654%" fx="48.239%" fy="19.103%" gradientTransform="matrix(0 1 -.77841 0 .631 -.291)">
      <stop offset="0%" stop-color="#7CFFFE"/>
      <stop offset="100%" stop-color="#D6CDE6"/>
    </radialGradient>
    <path id="drive-optical-g" d="M-4.26280167e-09,196 C-4.26280167e-09,184.954305 8.95246011,176 19.997572,176 L164.002422,176 C175.046776,176 183.999994,184.951876 183.999994,196 L183.999994,196 C183.999994,207.045695 175.047534,216 164.002422,216 L19.997572,216 C8.95321796,216 -4.26280167e-09,207.048124 -4.26280167e-09,196 L-4.26280167e-09,196 Z"/>
    <filter id="drive-optical-h" width="101.1%" height="105%" x="-.5%" y="-2.5%" filterUnits="objectBoundingBox">
      <feMorphology in="SourceAlpha" radius="2" result="shadowSpreadInner1"/>
      <feOffset in="shadowSpreadInner1" result="shadowOffsetInner1"/>
      <feComposite in="shadowOffsetInner1" in2="SourceAlpha" k2="-1" k3="1" operator="arithmetic" result="shadowInnerInner1"/>
      <feColorMatrix in="shadowInnerInner1" values="0 0 0 0 0   0 0 0 0 0.239215686   0 0 0 0 0.611764706  0 0 0 0.2 0"/>
    </filter>
    <path id="drive-optical-j" d="M14.0061463,196.43153 C14.0026659,194.131354 15.444563,192.265426 17.2581117,192.263834 L166.74088,192.132679 C168.540371,192.1311 170.001969,193.994626 170.005449,196.294656 L170.004752,195.833826 C170.008232,198.134001 168.566335,199.99993 166.752786,200.001521 L17.2700178,200.132677 C15.4705265,200.134255 14.0089291,198.27073 14.005449,195.970699 L14.0061463,196.43153 L14.0061463,196.43153 Z"/>
    <filter id="drive-optical-i" width="101.3%" height="150%" x="-.6%" y="-12.5%" filterUnits="objectBoundingBox">
      <feOffset dy="2" in="SourceAlpha" result="shadowOffsetOuter1"/>
      <feColorMatrix in="shadowOffsetOuter1" values="0 0 0 0 1   0 0 0 0 1   0 0 0 0 1  0 0 0 0.5 0"/>
    </filter>
    <filter id="drive-optical-k" width="101.3%" height="150%" x="-.6%" y="-12.5%" filterUnits="objectBoundingBox">
      <feMorphology in="SourceAlpha" radius="2" result="shadowSpreadInner1"/>
      <feOffset in="shadowSpreadInner1" result="shadowOffsetInner1"/>
      <feComposite in="shadowOffsetInner1" in2="SourceAlpha" k2="-1" k3="1" operator="arithmetic" result="shadowInnerInner1"/>
      <feColorMatrix in="shadowInnerInner1" values="0 0 0 0 0.031372549   0 0 0 0 0.380392157   0 0 0 0 1  0 0 0 1 0"/>
    </filter>
  </defs>
  <g fill="none" fill-rule="evenodd">
    <g filter="url(#drive-optical-a)" transform="translate(36 20)">
      <path fill="url(#drive-optical-b)" d="M-3.48450158e-10,31.9927545 C-3.48450158e-10,14.3236441 14.3232752,4.06657819e-10 31.9977918,4.06657819e-10 L152.002204,4.06657819e-10 C169.674097,4.06657819e-10 183.999996,14.319829 183.999997,31.9927545 L184,196.909098 L-3.48450158e-10,196.909098 L-3.48450158e-10,31.9927545 Z"/>
      <use fill="url(#drive-optical-c)" xlink:href="#drive-optical-d"/>
      <use fill="#000" filter="url(#drive-optical-e)" xlink:href="#drive-optical-d"/>
      <use fill="url(#drive-optical-f)" xlink:href="#drive-optical-g"/>
      <use fill="#000" filter="url(#drive-optical-h)" xlink:href="#drive-optical-g"/>
      <use fill="#000" filter="url(#drive-optical-i)" xlink:href="#drive-optical-j"/>
      <use fill="#009CFF" xlink:href="#drive-optical-j"/>
      <use fill="#000" filter="url(#drive-optical-k)" xlink:href="#drive-optical-j"/>
    </g>
    <g transform="translate(86 58)">
      <path d="M43.005375 6.304875C48.375 6.304875 53.45975 7.487375 58.055375 9.562125L58.12525 9.40625C53.492 7.304625 48.369625 6.100625 42.962375 6.100625 22.6395 6.100625 6.111375 22.6395 6.111375 42.9785 6.111375 48.38575 7.31 53.5135 9.411625 58.14675L9.605125 58.06075C7.525 53.45975 6.337125 48.36425 6.337125 42.983875 6.33175 22.7255 22.752375 6.304875 43.005375 6.304875L43.005375 6.304875zM76.40025 27.880125C78.491125 32.491875 79.679 37.59275 79.679 42.983875 79.679 63.236875 63.258375 79.6575 43.005375 79.6575 37.6035 79.6575 32.491875 78.458875 27.87475 76.362625L27.78875 76.55075C32.422 78.652375 37.54975 79.856375 42.957 79.856375 63.279875 79.856375 79.808 63.3175 79.808 42.9785 79.808 37.57125 78.609375 32.45425 76.513125 27.821L76.40025 27.880125 76.40025 27.880125z"/>
      <circle cx="42.962" cy="42.978" r="6.149" fill="#FFF"/>
      <path fill="#FFF" d="M62.36075 35.114875L78.577125 26.8965C74.65875 18.248125 67.69275 11.292875 59.039 7.38525L50.94425 23.332875C56.06125 25.751625 62.38225 35.168625 62.36075 35.114875L62.36075 35.114875zM24.209 50.482L7.422875 59.044375C11.325125 67.676625 18.26425 74.621125 26.891125 78.5395L35.566375 62.215625C30.524625 59.829125 26.471875 55.668875 24.209 50.482L24.209 50.482z" opacity=".5"/>
      <path fill="#FFF" d="M62.737,34.23875 C62.9764,34.79775 63.10408,35.4105 63.30092,35.996375 C63.1094,35.4105 62.97108,34.803125 62.737,34.23875 L62.737,34.23875 Z"/>
      <circle cx="43.022" cy="42.984" r="40.313" stroke="#FFF" stroke-width="5.32"/>
      <circle cx="43.022" cy="42.984" r="18.813" stroke="#FFF" stroke-width="5.32"/>
    </g>
  </g>
</svg>
