<?xml version="1.0" encoding="UTF-8"?>
<svg width="256px" height="256px" viewBox="0 0 256 256" version="1.1" xmlns="http://www.w3.org/2000/svg" xmlns:xlink="http://www.w3.org/1999/xlink">
    <title>devices/256/media-dvd</title>
    <defs>
        <filter x="-7.3%" y="-5.6%" width="114.7%" height="114.7%" filterUnits="objectBoundingBox" id="filter-1">
            <feOffset dx="0" dy="4" in="SourceAlpha" result="shadowOffsetOuter1"></feOffset>
            <feGaussianBlur stdDeviation="5" in="shadowOffsetOuter1" result="shadowBlurOuter1"></feGaussianBlur>
            <feColorMatrix values="0 0 0 0 0   0 0 0 0 0   0 0 0 0 0  0 0 0 0.2 0" type="matrix" in="shadowBlurOuter1" result="shadowMatrixOuter1"></feColorMatrix>
            <feMerge>
                <feMergeNode in="shadowMatrixOuter1"></feMergeNode>
                <feMergeNode in="SourceGraphic"></feMergeNode>
            </feMerge>
        </filter>
        <linearGradient x1="28.8395889%" y1="5.6059543%" x2="73.7075197%" y2="93.9492692%" id="linearGradient-2">
            <stop stop-color="#5CD4FB" offset="0%"></stop>
            <stop stop-color="#FFADF1" offset="47.7870472%"></stop>
            <stop stop-color="#7DF8FF" offset="100%"></stop>
        </linearGradient>
    </defs>
    <g id="devices/256/media-dvd" stroke="none" stroke-width="1" fill="none" fill-rule="evenodd">
        <g id="Group" filter="url(#filter-1)" transform="translate(12, 12)">
            <g id="Group-4" transform="translate(77.3333, 77.3333)"></g>
            <path d="M116,0 C180.065031,0 232,51.934969 232,116 C232,180.065031 180.065031,232 116,232 C51.934969,232 0,180.065031 0,116 C0,51.934969 51.934969,0 116,0 Z M116,77.3333333 C94.6449897,77.3333333 77.3333333,94.6449897 77.3333333,116 C77.3333333,137.35501 94.6449897,154.666667 116,154.666667 C137.35501,154.666667 154.666667,137.35501 154.666667,116 C154.666667,94.6449897 137.35501,77.3333333 116,77.3333333 Z" id="Combined-Shape" fill="url(#linearGradient-2)"></path>
            <path d="M226.47619,116 C226.47619,54.9856848 177.014315,5.52380952 116,5.52380952 C54.9856848,5.52380952 5.52380952,54.9856848 5.52380952,116 C5.52380952,177.014315 54.9856848,226.47619 116,226.47619 C177.014315,226.47619 226.47619,177.014315 226.47619,116 Z M116,171.238095 C146.507158,171.238095 171.238095,146.507158 171.238095,116 C171.238095,85.4928424 146.507158,60.7619048 116,60.7619048 C85.4928424,60.7619048 60.7619048,85.4928424 60.7619048,116 C60.7619048,146.507158 85.4928424,171.238095 116,171.238095 L116,171.238095 Z" id="Combined-Shape" fill="#FFFFFF" opacity="0.39738806"></path>
            <path d="M116,154.666667 C137.35501,154.666667 154.666667,137.35501 154.666667,116 C154.666667,94.6449897 137.35501,77.3333333 116,77.3333333 C94.6449897,77.3333333 77.3333333,94.6449897 77.3333333,116 C77.3333333,137.35501 94.6449897,154.666667 116,154.666667 L116,154.666667 Z M116,132.571429 C125.152147,132.571429 132.571429,125.152147 132.571429,116 C132.571429,106.847853 125.152147,99.4285714 116,99.4285714 C106.847853,99.4285714 99.4285714,106.847853 99.4285714,116 C99.4285714,125.152147 106.847853,132.571429 116,132.571429 L116,132.571429 Z" id="Combined-Shape" fill="#CBD4E5" opacity="0.8"></path>
            <path d="M116,171.238095 C146.507158,171.238095 171.238095,146.507158 171.238095,116 C171.238095,85.4928424 146.507158,60.7619048 116,60.7619048 C85.4928424,60.7619048 60.7619048,85.4928424 60.7619048,116 C60.7619048,146.507158 85.4928424,171.238095 116,171.238095 L116,171.238095 Z M116,149.142857 C134.304295,149.142857 149.142857,134.304295 149.142857,116 C149.142857,97.6957054 134.304295,82.8571429 116,82.8571429 C97.6957054,82.8571429 82.8571429,97.6957054 82.8571429,116 C82.8571429,134.304295 97.6957054,149.142857 116,149.142857 L116,149.142857 Z" id="Combined-Shape" fill="#B792AF" opacity="0.4"></path>
            <path d="M116,5.52380952 C104.522504,5.52380952 93.4343355,7.19071933 82.9643785,10.2956552 C82.9643785,10.2956551 110.666491,99.4285714 110.666491,99.7934104 C112.409912,99.5528754 114.19044,99.4285714 116,99.4285714 C117.95254,99.4285714 119.871279,99.5732949 121.746073,99.8526001 C121.746073,99.5732969 149.365276,10.2956551 149.365276,10.3939526 C138.798512,7.22591415 127.59803,5.52380952 116,5.52380952 Z M116,226.526342 C104.522504,226.526342 93.4343355,224.859432 82.9643785,221.754496 C82.9643785,221.754496 110.611059,132.213448 110.61106,132.249053 C112.372167,132.494627 114.171257,132.62158 116,132.62158 C117.913531,132.62158 119.794596,132.482582 121.633651,132.213448 C123.594522,131.927898 149.365276,221.754496 149.365276,221.656199 C138.798512,224.824237 127.59803,226.526342 116,226.526342 Z" id="Combined-Shape" fill="#FFFFFF" opacity="0.25" transform="translate(116.1648, 116.0251) rotate(-30) translate(-116.1648, -116.0251)"></path>
        </g>
        <path d="M97,194.896 L97,217.744 L104.936,217.744 C108.52,217.744 111.272,216.688 113.192,214.608 C115.016,212.624 115.944,209.84 115.944,206.32 C115.944,202.736 115.08,199.952 113.384,198.032 C111.528,195.92 108.808,194.896 105.192,194.896 L97,194.896 Z M99.624,197.168 L104.776,197.168 C107.784,197.168 109.96,197.936 111.368,199.504 C112.68,200.976 113.352,203.248 113.352,206.32 C113.352,209.296 112.616,211.568 111.208,213.104 C109.704,214.672 107.464,215.472 104.488,215.472 L99.624,215.472 L99.624,197.168 Z M117.448,194.896 L125.896,217.744 L129.128,217.744 L137.576,194.896 L134.696,194.896 L127.56,214.896 L127.464,214.896 L120.328,194.896 L117.448,194.896 Z M140.04,194.896 L140.04,217.744 L147.976,217.744 C151.56,217.744 154.312,216.688 156.232,214.608 C158.056,212.624 158.984,209.84 158.984,206.32 C158.984,202.736 158.12,199.952 156.424,198.032 C154.568,195.92 151.848,194.896 148.232,194.896 L140.04,194.896 Z M142.664,197.168 L147.816,197.168 C150.824,197.168 153,197.936 154.408,199.504 C155.72,200.976 156.392,203.248 156.392,206.32 C156.392,209.296 155.656,211.568 154.248,213.104 C152.744,214.672 150.504,215.472 147.528,215.472 L142.664,215.472 L142.664,197.168 Z" id="DVD" fill="#8F859E"></path>
    </g>
</svg>