<?xml version="1.0" encoding="UTF-8"?>
<svg width="64px" height="64px" viewBox="0 0 64 64" version="1.1" xmlns="http://www.w3.org/2000/svg" xmlns:xlink="http://www.w3.org/1999/xlink">
    <title>mimetypes/64/application-vnd.insync.link.drive.note</title>
    <defs>
        <linearGradient x1="50%" y1="0%" x2="50%" y2="100%" id="linearGradient-1">
            <stop stop-color="#FFA045" offset="0%"></stop>
            <stop stop-color="#ED6415" offset="100%"></stop>
        </linearGradient>
        <path d="M46,51.5 C46,53.9852814 43.9852814,56 41.5,56 L4.5,56 C2.01471863,56 3.04359188e-16,53.9852814 0,51.5 L0,4.5 C-3.04359188e-16,2.01471863 2.01471863,4.56538782e-16 4.5,0 L31.75,0 L46,14 L46,51.5 Z" id="path-2"></path>
        <filter x="-14.1%" y="-9.8%" width="128.3%" height="123.2%" filterUnits="objectBoundingBox" id="filter-3">
            <feOffset dx="0" dy="1" in="SourceAlpha" result="shadowOffsetOuter1"></feOffset>
            <feGaussianBlur stdDeviation="2" in="shadowOffsetOuter1" result="shadowBlurOuter1"></feGaussianBlur>
            <feColorMatrix values="0 0 0 0 0.937254902   0 0 0 0 0.415686275   0 0 0 0 0.101960784  0 0 0 0.5 0" type="matrix" in="shadowBlurOuter1"></feColorMatrix>
        </filter>
        <linearGradient x1="50%" y1="50%" x2="7.99354867%" y2="87.539983%" id="linearGradient-4">
            <stop stop-color="#FFFFFF" stop-opacity="0.1" offset="0%"></stop>
            <stop stop-color="#FFFFFF" stop-opacity="0.3" offset="100%"></stop>
        </linearGradient>
        <path d="M31.75,0 L46,14 L36.25,14 C33.7647186,14 31.75,11.9852814 31.75,9.5 L31.75,0 L31.75,0 Z" id="path-5"></path>
        <filter x="-14.0%" y="-7.1%" width="128.1%" height="128.6%" filterUnits="objectBoundingBox" id="filter-6">
            <feOffset dx="0" dy="1" in="SourceAlpha" result="shadowOffsetOuter1"></feOffset>
            <feGaussianBlur stdDeviation="0.5" in="shadowOffsetOuter1" result="shadowBlurOuter1"></feGaussianBlur>
            <feComposite in="shadowBlurOuter1" in2="SourceAlpha" operator="out" result="shadowBlurOuter1"></feComposite>
            <feColorMatrix values="0 0 0 0 0   0 0 0 0 0   0 0 0 0 0  0 0 0 0.05 0" type="matrix" in="shadowBlurOuter1"></feColorMatrix>
        </filter>
    </defs>
    <g id="mimetypes/64/application-vnd.insync.link.drive.note" stroke="none" stroke-width="1" fill="none" fill-rule="evenodd">
        <g id="编组-2" transform="translate(9, 4)">
            <g id="蒙版" fill-rule="nonzero">
                <use fill="black" fill-opacity="1" filter="url(#filter-3)" xlink:href="#path-2"></use>
                <use fill="url(#linearGradient-1)" xlink:href="#path-2"></use>
            </g>
            <g id="折角">
                <use fill="black" fill-opacity="1" filter="url(#filter-6)" xlink:href="#path-5"></use>
                <use fill="url(#linearGradient-4)" fill-rule="evenodd" xlink:href="#path-5"></use>
            </g>
        </g>
        <path d="M40,21.9999833 C41.1045695,21.9999833 42,22.8954138 42,23.9999833 L42,40 C42,41.1045695 41.1045695,42 40,42 L23.9999833,42 C22.8954138,42 21.9999833,41.1045695 21.9999833,40 L21.9999833,23.9999833 C21.9999833,22.8954138 22.8954138,21.9999833 23.9999833,21.9999833 Z M32,24 C28.6868,24 26,26.6868 26,30 C26,31.7613001 26.759183,33.3460709 27.9688938,34.4436002 L28,34.471 L28,39 L29,39 L29,40 L35,40 L35,39 L36,39 L36.0012845,34.4721659 C37.2280059,33.3735427 38,31.7766132 38,30.00024 C38,26.68656 35.31368,24.00024 32,24 Z M35,37 L35,38 L29,38 L29,37 L35,37 Z M35,35 L35,36 L29,36 L29,35 L35,35 Z M32,26 C34.20912,26.00016 36,27.79104 36,30.00016 C36,31.2159202 35.4575838,32.3056002 34.6016,33.0392003 C33.9024,33.6384 32.9935998,34 32,34 C31.0272001,34 30.1352001,33.6520002 29.4423998,33.0752 C28.5608,32.3415999 28,31.2360001 28,30 C28,27.7912 29.7912,26 32,26 Z" id="形状结合" fill="#FFFFFF"></path>
    </g>
</svg>