<svg xmlns="http://www.w3.org/2000/svg" xmlns:xlink="http://www.w3.org/1999/xlink" width="64" height="64" viewBox="0 0 64 64">
  <defs>
    <linearGradient id="application-x-cue-c" x1="50%" x2="50%" y1="0%" y2="100%">
      <stop offset="0%" stop-color="#B7EE43"/>
      <stop offset="100%" stop-color="#6AD500"/>
    </linearGradient>
    <path id="application-x-cue-b" d="M29,0 L42,13 L42,47.5 C42,49.9852814 39.9852814,52 37.5,52 L4.5,52 C2.01471863,52 3.04359188e-16,49.9852814 0,47.5 L0,4.5 C-3.04359188e-16,2.01471863 2.01471863,4.56538782e-16 4.5,0 L29,0 Z"/>
    <filter id="application-x-cue-a" width="131%" height="125%" x="-15.5%" y="-10.6%" filterUnits="objectBoundingBox">
      <feOffset dy="1" in="SourceAlpha" result="shadowOffsetOuter1"/>
      <feGaussianBlur in="shadowOffsetOuter1" result="shadowBlurOuter1" stdDeviation="2"/>
      <feColorMatrix in="shadowBlurOuter1" values="0 0 0 0 0.505882353   0 0 0 0 0.741176471   0 0 0 0 0  0 0 0 0.5 0"/>
    </filter>
    <linearGradient id="application-x-cue-f" x1="50%" x2="10.489%" y1="50%" y2="91.194%">
      <stop offset="0%" stop-color="#FFF" stop-opacity=".1"/>
      <stop offset="100%" stop-color="#FFF" stop-opacity=".3"/>
    </linearGradient>
    <path id="application-x-cue-e" d="M29,0 L42,13 L33.5,13 C31.0147186,13 29,10.9852814 29,8.5 L29,0 Z"/>
    <filter id="application-x-cue-d" width="153.8%" height="153.8%" x="-26.9%" y="-19.2%" filterUnits="objectBoundingBox">
      <feOffset dy="1" in="SourceAlpha" result="shadowOffsetOuter1"/>
      <feGaussianBlur in="shadowOffsetOuter1" result="shadowBlurOuter1" stdDeviation="1"/>
      <feComposite in="shadowBlurOuter1" in2="SourceAlpha" operator="out" result="shadowBlurOuter1"/>
      <feColorMatrix in="shadowBlurOuter1" values="0 0 0 0 0   0 0 0 0 0   0 0 0 0 0  0 0 0 0.05 0"/>
    </filter>
  </defs>
  <g fill="none" fill-rule="evenodd">
    <g transform="translate(11 7)">
      <use fill="#000" filter="url(#application-x-cue-a)" xlink:href="#application-x-cue-b"/>
      <use fill="url(#application-x-cue-c)" xlink:href="#application-x-cue-b"/>
      <use fill="#000" filter="url(#application-x-cue-d)" xlink:href="#application-x-cue-e"/>
      <use fill="url(#application-x-cue-f)" xlink:href="#application-x-cue-e"/>
    </g>
    <path fill="#FFF" d="M32,47 C25.372583,47 20,41.627417 20,35 C20,28.372583 25.372583,23 32,23 C38.627417,23 44,28.372583 44,35 C44,41.627417 38.627417,47 32,47 Z M32,40.3333333 C34.9455187,40.3333333 37.3333333,37.9455187 37.3333333,35 C37.3333333,32.0544813 34.9455187,29.6666667 32,29.6666667 C29.0544813,29.6666667 26.6666667,32.0544813 26.6666667,35 C26.6666667,37.9455187 29.0544813,40.3333333 32,40.3333333 Z M27.4162371,27 C23.4498189,29.2900126 21.8001526,34.0517386 23.2895391,38.2163093 C22.9058781,38.5807164 22.6666667,39.0957561 22.6666667,39.6666667 C22.6666667,40.7712362 23.5620972,41.6666667 24.6666667,41.6666667 C25.7712362,41.6666667 26.6666667,40.7712362 26.6666667,39.6666667 C26.6666667,38.5620972 25.7712362,37.6666667 24.6666667,37.6666667 C24.6146393,37.6666667 24.5630759,37.6686533 24.5120482,37.6725547 C23.2946293,34.1260385 24.7135953,30.0999717 28.0829038,28.1547005 C34.6666667,24.3333333 40.3499025,30.7350989 40.1658075,30.4162371 C37.5884787,25.9521726 31.8803016,24.4226712 27.4162371,27 Z M32,39 C29.790861,39 28,37.209139 28,35 C28,32.790861 29.790861,31 32,31 C34.209139,31 36,32.790861 36,35 C36,37.209139 34.209139,39 32,39 Z M32,37.6666667 C33.4727593,37.6666667 34.6666667,36.4727593 34.6666667,35 C34.6666667,33.5272407 33.4727593,32.3333333 32,32.3333333 C30.5272407,32.3333333 29.3333333,33.5272407 29.3333333,35 C29.3333333,36.4727593 30.5272407,37.6666667 32,37.6666667 Z"/>
  </g>
</svg>
