<?xml version="1.0" encoding="UTF-8"?>
<svg width="64px" height="64px" viewBox="0 0 64 64" version="1.1" xmlns="http://www.w3.org/2000/svg" xmlns:xlink="http://www.w3.org/1999/xlink">
    <title>mimetypes/64/application-x-gettext-translation</title>
    <defs>
        <linearGradient x1="50%" y1="0%" x2="50%" y2="99.7939317%" id="linearGradient-1">
            <stop stop-color="#9BA6C1" offset="0%"></stop>
            <stop stop-color="#778EB2" offset="100%"></stop>
        </linearGradient>
        <path d="M46,51.5 C46,53.9852814 43.9852814,56 41.5,56 L4.5,56 C2.01471863,56 3.04359188e-16,53.9852814 0,51.5 L0,4.5 C-3.04359188e-16,2.01471863 2.01471863,4.56538782e-16 4.5,0 L31.75,0 L46,14 L46,51.5 Z" id="path-2"></path>
        <filter x="-14.1%" y="-9.8%" width="128.3%" height="123.2%" filterUnits="objectBoundingBox" id="filter-3">
            <feOffset dx="0" dy="1" in="SourceAlpha" result="shadowOffsetOuter1"></feOffset>
            <feGaussianBlur stdDeviation="2" in="shadowOffsetOuter1" result="shadowBlurOuter1"></feGaussianBlur>
            <feColorMatrix values="0 0 0 0 0.474509804   0 0 0 0 0.558835447   0 0 0 0 0.701960784  0 0 0 0.5 0" type="matrix" in="shadowBlurOuter1"></feColorMatrix>
        </filter>
        <linearGradient x1="50%" y1="50%" x2="7.99354867%" y2="87.539983%" id="linearGradient-4">
            <stop stop-color="#FFFFFF" stop-opacity="0.1" offset="0%"></stop>
            <stop stop-color="#FFFFFF" stop-opacity="0.3" offset="100%"></stop>
        </linearGradient>
        <path d="M31.75,0 L46,14 L36.25,14 C33.7647186,14 31.75,11.9852814 31.75,9.5 L31.75,0 L31.75,0 Z" id="path-5"></path>
        <filter x="-14.0%" y="-7.1%" width="128.1%" height="128.6%" filterUnits="objectBoundingBox" id="filter-6">
            <feOffset dx="0" dy="1" in="SourceAlpha" result="shadowOffsetOuter1"></feOffset>
            <feGaussianBlur stdDeviation="0.5" in="shadowOffsetOuter1" result="shadowBlurOuter1"></feGaussianBlur>
            <feComposite in="shadowBlurOuter1" in2="SourceAlpha" operator="out" result="shadowBlurOuter1"></feComposite>
            <feColorMatrix values="0 0 0 0 0   0 0 0 0 0   0 0 0 0 0  0 0 0 0.05 0" type="matrix" in="shadowBlurOuter1"></feColorMatrix>
        </filter>
    </defs>
    <g id="mimetypes/64/application-x-gettext-translation" stroke="none" stroke-width="1" fill="none" fill-rule="evenodd">
        <g id="编组-2" transform="translate(9, 4)">
            <g id="蒙版">
                <use fill="black" fill-opacity="1" filter="url(#filter-3)" xlink:href="#path-2"></use>
                <use fill="url(#linearGradient-1)" fill-rule="evenodd" xlink:href="#path-2"></use>
            </g>
            <g id="折角">
                <use fill="black" fill-opacity="1" filter="url(#filter-6)" xlink:href="#path-5"></use>
                <use fill="url(#linearGradient-4)" fill-rule="evenodd" xlink:href="#path-5"></use>
            </g>
        </g>
        <path d="M23.463,22 C22.52,22.579 20.624,23.391 19.062,23.844 L19.111,23.981 C19.854,23.907 20.648,23.802 21.393,23.676 L21.393,25.575 L19.074,25.575 L19.137,25.784 L21.033,25.784 C20.661,27.312 19.979,28.937 19,30.118 L19.148,30.256 C20.067,29.591 20.809,28.822 21.391,27.946 L21.391,31.891 L21.627,31.891 C22.259,31.891 22.669,31.648 22.68,31.573 L22.68,27.121 C23.151,27.546 23.596,28.22 23.684,28.748 C23.844,28.884 24.019,28.95 24.18,28.95 C24.514,28.95 24.799,28.707 24.799,28.37 C24.799,27.913 24.278,27.314 22.68,26.955 L22.68,25.786 L24.416,25.786 C24.751,25.786 24.912,25.732 24.998,25.596 L23.797,24.784 L23.15,25.573 L22.68,25.573 L22.68,23.422 C23.238,23.295 23.758,23.17 24.18,23.043 C24.34,23.086 24.479,23.108 24.602,23.108 C24.752,23.108 24.874,23.075 24.949,23.012 L23.463,22 L23.463,22 Z M29.174,23.465 L28.629,24.088 L26.475,24.088 L25.096,23.58 L25.096,31.678 C26.261,31.678 26.41,31.257 26.41,31.235 L26.41,30.465 L28.752,30.465 L28.752,31.477 C29.733,31.477 30.078,31.193 30.078,31.172 L30.078,24.592 C30.338,24.54 30.537,24.456 30.611,24.36 L29.174,23.465 L29.174,23.465 Z M26.41,24.299 L28.752,24.299 L28.752,30.256 L26.41,30.256 L26.41,24.299 Z M40.322,33.815 C38.952,33.815 37.957,34.135 37.338,34.774 C36.824,35.302 36.536,36.109 36.449,37.168 L34.096,37.168 L34.096,35.161 C34.096,34.898 34.137,34.71 34.217,34.596 C34.296,34.483 34.424,34.421 34.604,34.409 L34.969,34.387 C35.104,34.375 35.172,34.308 35.172,34.186 C35.172,34.096 35.162,34.039 35.141,34.018 C35.118,33.997 35.062,33.985 34.971,33.985 C34.949,33.985 34.885,33.987 34.781,33.995 C34.374,34.013 33.982,34.022 33.604,34.022 C33.208,34.022 32.798,34.013 32.381,33.995 C32.281,33.987 32.221,33.985 32.203,33.985 C32.115,33.985 32.059,33.998 32.035,34.018 C32.012,34.039 32,34.095 32,34.186 C32,34.309 32.071,34.376 32.215,34.387 L32.557,34.409 C32.746,34.42 32.878,34.48 32.957,34.592 C33.036,34.705 33.076,34.894 33.076,35.161 L33.076,40.543 C33.076,40.806 33.037,40.996 32.959,41.11 C32.882,41.223 32.753,41.282 32.57,41.295 L32.215,41.317 C32.206,41.32 32.196,41.323 32.182,41.323 C32.061,41.33 32,41.39 32,41.506 C32,41.602 32.014,41.66 32.039,41.682 C32.064,41.706 32.12,41.717 32.203,41.717 C32.225,41.717 32.282,41.715 32.373,41.711 C32.797,41.691 33.206,41.68 33.602,41.68 C33.98,41.68 34.373,41.689 34.781,41.707 C34.881,41.714 34.942,41.717 34.969,41.717 C35.057,41.717 35.113,41.706 35.137,41.682 C35.16,41.66 35.172,41.601 35.172,41.506 C35.172,41.39 35.116,41.33 35.002,41.323 C34.987,41.32 34.979,41.317 34.971,41.317 L34.617,41.295 C34.428,41.283 34.296,41.223 34.217,41.112 C34.137,41.001 34.096,40.81 34.096,40.543 L34.096,38.321 L36.434,38.321 C36.493,39.49 36.761,40.373 37.266,40.936 C37.837,41.573 38.761,41.891 40.031,41.891 C41.414,41.891 42.424,41.57 43.059,40.928 C43.693,40.285 44.012,39.26 44.012,37.854 C44.012,36.43 43.722,35.401 43.141,34.766 C42.561,34.129 41.621,33.815 40.322,33.815 L40.322,33.815 Z M40.201,34.198 C41.15,34.198 41.833,34.482 42.254,35.051 C42.672,35.619 42.881,36.555 42.881,37.852 C42.881,39.139 42.671,40.068 42.25,40.637 C41.828,41.207 41.147,41.491 40.201,41.491 C39.255,41.491 38.57,41.207 38.148,40.637 C37.729,40.068 37.52,39.133 37.52,37.834 C37.52,36.562 37.732,35.636 38.158,35.061 C38.585,34.486 39.265,34.198 40.201,34.198 L40.201,34.198 Z" id="形状" fill-opacity="0.991743608" fill="#FFFFFF"></path>
    </g>
</svg>