<?xml version="1.0" encoding="UTF-8"?>
<svg width="64px" height="64px" viewBox="0 0 64 64" version="1.1" xmlns="http://www.w3.org/2000/svg" xmlns:xlink="http://www.w3.org/1999/xlink">
    <title>mimetypes/64/application-vnd.sun.xml.impress.template</title>
    <defs>
        <linearGradient x1="50%" y1="0%" x2="50%" y2="99.3718328%" id="linearGradient-1">
            <stop stop-color="#FFBC2A" offset="0%"></stop>
            <stop stop-color="#E77B00" offset="100%"></stop>
        </linearGradient>
        <path d="M46,51.5 C46,53.9852814 43.9852814,56 41.5,56 L4.5,56 C2.01471863,56 3.04359188e-16,53.9852814 0,51.5 L0,4.5 C-3.04359188e-16,2.01471863 2.01471863,4.56538782e-16 4.5,0 L31.75,0 L46,14 L46,51.5 Z" id="path-2"></path>
        <filter x="-14.1%" y="-9.8%" width="128.3%" height="123.2%" filterUnits="objectBoundingBox" id="filter-3">
            <feOffset dx="0" dy="1" in="SourceAlpha" result="shadowOffsetOuter1"></feOffset>
            <feGaussianBlur stdDeviation="2" in="shadowOffsetOuter1" result="shadowBlurOuter1"></feGaussianBlur>
            <feColorMatrix values="0 0 0 0 0.874509804   0 0 0 0 0.498039216   0 0 0 0 0.0588235294  0 0 0 0.5 0" type="matrix" in="shadowBlurOuter1"></feColorMatrix>
        </filter>
        <linearGradient x1="50%" y1="50%" x2="7.99354867%" y2="87.539983%" id="linearGradient-4">
            <stop stop-color="#FFFFFF" stop-opacity="0.1" offset="0%"></stop>
            <stop stop-color="#FFFFFF" stop-opacity="0.3" offset="100%"></stop>
        </linearGradient>
        <path d="M31.75,0 L46,14 L36.25,14 C33.7647186,14 31.75,11.9852814 31.75,9.5 L31.75,0 L31.75,0 Z" id="path-5"></path>
        <filter x="-14.0%" y="-7.1%" width="128.1%" height="128.6%" filterUnits="objectBoundingBox" id="filter-6">
            <feOffset dx="0" dy="1" in="SourceAlpha" result="shadowOffsetOuter1"></feOffset>
            <feGaussianBlur stdDeviation="0.5" in="shadowOffsetOuter1" result="shadowBlurOuter1"></feGaussianBlur>
            <feComposite in="shadowBlurOuter1" in2="SourceAlpha" operator="out" result="shadowBlurOuter1"></feComposite>
            <feColorMatrix values="0 0 0 0 0   0 0 0 0 0   0 0 0 0 0  0 0 0 0.05 0" type="matrix" in="shadowBlurOuter1"></feColorMatrix>
        </filter>
    </defs>
    <g id="mimetypes/64/application-vnd.sun.xml.impress.template" stroke="none" stroke-width="1" fill="none" fill-rule="evenodd">
        <g id="编组-2" transform="translate(9, 4)">
            <g id="蒙版">
                <use fill="black" fill-opacity="1" filter="url(#filter-3)" xlink:href="#path-2"></use>
                <use fill="url(#linearGradient-1)" fill-rule="evenodd" xlink:href="#path-2"></use>
            </g>
            <g id="折角">
                <use fill="black" fill-opacity="1" filter="url(#filter-6)" xlink:href="#path-5"></use>
                <use fill="url(#linearGradient-4)" fill-rule="evenodd" xlink:href="#path-5"></use>
            </g>
        </g>
        <path d="M30,44 L35,44 L35,23 L30,23 L30,44 Z M21,44 L26,44 L26,33 L21,33 L21,44 Z M39,44 L44,44 L44,39 L39,39 L39,44 Z M20,46 L45,46 L45,45 L20,45 L20,46 Z" id="rect4209" fill="#FFFFFF"></path>
    </g>
</svg>