<svg xmlns="http://www.w3.org/2000/svg" xmlns:xlink="http://www.w3.org/1999/xlink" width="64" height="64" viewBox="0 0 64 64">
  <defs>
    <linearGradient id="application-x-glabels-c" x1="50%" x2="50%" y1="0%" y2="99.372%">
      <stop offset="0%" stop-color="#FFBC2A"/>
      <stop offset="100%" stop-color="#E77B00"/>
    </linearGradient>
    <path id="application-x-glabels-b" d="M29,0 L42,13 L42,47.5 C42,49.9852814 39.9852814,52 37.5,52 L4.5,52 C2.01471863,52 3.04359188e-16,49.9852814 0,47.5 L0,4.5 C-3.04359188e-16,2.01471863 2.01471863,4.56538782e-16 4.5,0 L29,0 Z"/>
    <filter id="application-x-glabels-a" width="131%" height="125%" x="-15.5%" y="-10.6%" filterUnits="objectBoundingBox">
      <feOffset dy="1" in="SourceAlpha" result="shadowOffsetOuter1"/>
      <feGaussianBlur in="shadowOffsetOuter1" result="shadowBlurOuter1" stdDeviation="2"/>
      <feColorMatrix in="shadowBlurOuter1" values="0 0 0 0 0.874509804   0 0 0 0 0.498039216   0 0 0 0 0.0588235294  0 0 0 0.5 0"/>
    </filter>
    <linearGradient id="application-x-glabels-f" x1="50%" x2="10.489%" y1="50%" y2="91.194%">
      <stop offset="0%" stop-color="#FFF" stop-opacity=".1"/>
      <stop offset="100%" stop-color="#FFF" stop-opacity=".3"/>
    </linearGradient>
    <path id="application-x-glabels-e" d="M29,0 L42,13 L33.5,13 C31.0147186,13 29,10.9852814 29,8.5 L29,0 Z"/>
    <filter id="application-x-glabels-d" width="153.8%" height="153.8%" x="-26.9%" y="-19.2%" filterUnits="objectBoundingBox">
      <feOffset dy="1" in="SourceAlpha" result="shadowOffsetOuter1"/>
      <feGaussianBlur in="shadowOffsetOuter1" result="shadowBlurOuter1" stdDeviation="1"/>
      <feComposite in="shadowBlurOuter1" in2="SourceAlpha" operator="out" result="shadowBlurOuter1"/>
      <feColorMatrix in="shadowBlurOuter1" values="0 0 0 0 0   0 0 0 0 0   0 0 0 0 0  0 0 0 0.05 0"/>
    </filter>
  </defs>
  <g fill="none" fill-rule="evenodd">
    <g transform="translate(11 7)">
      <g opacity=".9">
        <use fill="#000" filter="url(#application-x-glabels-a)" xlink:href="#application-x-glabels-b"/>
        <use fill="url(#application-x-glabels-c)" xlink:href="#application-x-glabels-b"/>
      </g>
      <use fill="#000" filter="url(#application-x-glabels-d)" xlink:href="#application-x-glabels-e"/>
      <use fill="url(#application-x-glabels-f)" xlink:href="#application-x-glabels-e"/>
    </g>
    <path fill="#FFF" d="M30.5686323,25.9776779 L43.2407849,38.567362 C43.5258704,38.8505921 43.5259715,39.3129939 43.240713,39.5982524 L35.6982527,47.1407127 C35.4111329,47.4278325 34.9526654,47.4279564 34.6673623,47.1407845 L22.0776783,34.4686319 C21.6712972,34.0595888 21.3140452,33.1908549 21.3140452,32.6101391 L21.3140452,25.9512839 C21.3140452,25.5438433 21.6437308,25.2140448 22.0512843,25.2140448 L28.7101394,25.2140448 C29.291816,25.2140448 30.158095,25.5698124 30.5686323,25.9776779 Z M22.0512843,24.0140448 L28.7101394,24.0140448 C29.6081237,24.0140448 30.7786095,24.4947455 31.4143858,25.1263842 L44.0865384,37.7160683 C44.8434064,38.4680106 44.8436741,39.6923476 44.0892412,40.4467805 L36.5467809,47.9892408 C35.7906718,48.7453499 34.5702699,48.7456797 33.8160687,47.9865381 L21.2263846,35.3143854 C20.5963737,34.6802476 20.1140452,33.5073638 20.1140452,32.6101391 L20.1140452,25.9512839 C20.1140452,24.8811935 20.9808972,24.0140448 22.0512843,24.0140448 Z M25.5,31 C26.3284271,31 27,30.3284271 27,29.5 C27,28.6715729 26.3284271,28 25.5,28 C24.6715729,28 24,28.6715729 24,29.5 C24,30.3284271 24.6715729,31 25.5,31 Z"/>
  </g>
</svg>
