<?xml version="1.0" encoding="UTF-8"?>
<svg width="64px" height="64px" viewBox="0 0 64 64" version="1.1" xmlns="http://www.w3.org/2000/svg" xmlns:xlink="http://www.w3.org/1999/xlink">
    <title>mimetypes/64/application-x-ace</title>
    <defs>
        <linearGradient x1="50%" y1="0%" x2="50%" y2="100%" id="linearGradient-1">
            <stop stop-color="#19BD72" offset="0%"></stop>
            <stop stop-color="#00914F" offset="100%"></stop>
        </linearGradient>
        <path d="M46,51.5 C46,53.9852814 43.9852814,56 41.5,56 L4.5,56 C2.01471863,56 3.04359188e-16,53.9852814 0,51.5 L0,4.5 C-3.04359188e-16,2.01471863 2.01471863,4.56538782e-16 4.5,0 L31.75,0 L46,14 L46,51.5 Z" id="path-2"></path>
        <filter x="-14.1%" y="-9.8%" width="128.3%" height="123.2%" filterUnits="objectBoundingBox" id="filter-3">
            <feOffset dx="0" dy="1" in="SourceAlpha" result="shadowOffsetOuter1"></feOffset>
            <feGaussianBlur stdDeviation="2" in="shadowOffsetOuter1" result="shadowBlurOuter1"></feGaussianBlur>
            <feColorMatrix values="0 0 0 0 0.00784313725   0 0 0 0 0.42745098   0 0 0 0 0.168627451  0 0 0 0.5 0" type="matrix" in="shadowBlurOuter1"></feColorMatrix>
        </filter>
        <linearGradient x1="50%" y1="50%" x2="7.99354867%" y2="87.539983%" id="linearGradient-4">
            <stop stop-color="#FFFFFF" stop-opacity="0.1" offset="0%"></stop>
            <stop stop-color="#FFFFFF" stop-opacity="0.3" offset="100%"></stop>
        </linearGradient>
        <path d="M31.75,0 L46,14 L36.25,14 C33.7647186,14 31.75,11.9852814 31.75,9.5 L31.75,0 L31.75,0 Z" id="path-5"></path>
        <filter x="-14.0%" y="-7.1%" width="128.1%" height="128.6%" filterUnits="objectBoundingBox" id="filter-6">
            <feOffset dx="0" dy="1" in="SourceAlpha" result="shadowOffsetOuter1"></feOffset>
            <feGaussianBlur stdDeviation="0.5" in="shadowOffsetOuter1" result="shadowBlurOuter1"></feGaussianBlur>
            <feComposite in="shadowBlurOuter1" in2="SourceAlpha" operator="out" result="shadowBlurOuter1"></feComposite>
            <feColorMatrix values="0 0 0 0 0   0 0 0 0 0   0 0 0 0 0  0 0 0 0.05 0" type="matrix" in="shadowBlurOuter1"></feColorMatrix>
        </filter>
    </defs>
    <g id="mimetypes/64/application-x-ace" stroke="none" stroke-width="1" fill="none" fill-rule="evenodd">
        <g id="Group" transform="translate(11, 26.75)">
            <path d="M15,2.25 L15,7.25 L0,7.25 L0,2.25 L15,2.25 Z M42,2.25 L42,7.25 L27,7.25 L27,2.25 L42,2.25 Z M18,2.25 L24,2.25 L24,7.25 L18,7.25 L18,6.25 L23,6.25 L23,3.25 L18,3.25 L18,2.25 Z" id="Combined-Shape" fill-opacity="0.5" fill="#FFF8F8"></path>
            <path d="M25,0.25 C25.5522847,0.25 26,0.69771525 26,1.25 L26,8.25 C26,8.80228475 25.5522847,9.25 25,9.25 L17,9.25 C16.4477153,9.25 16,8.80228475 16,8.25 L16,1.25 C16,0.69771525 16.4477153,0.25 17,0.25 L25,0.25 Z M17,8.25 L25,8.25 L25,1.25 L17,1.25 L17,4.25 L22,4.25 L22,5.25 L17,5.25 L17,8.25 Z" id="Combined-Shape" fill="#F4F4F4"></path>
        </g>
        <g id="编组-2" transform="translate(9, 4)">
            <g id="蒙版">
                <use fill="black" fill-opacity="1" filter="url(#filter-3)" xlink:href="#path-2"></use>
                <use fill="url(#linearGradient-1)" fill-rule="evenodd" xlink:href="#path-2"></use>
            </g>
            <g id="Group" transform="translate(0, 23)">
                <path d="M17,2 L17,7 L0,7 L0,2 L17,2 Z M46,2 L46,7 L29,7 L29,2 L46,2 Z M20,2 L26,2 L26,7 L20,7 L20,6 L25,6 L25,3 L20,3 L20,2 Z" id="Combined-Shape" fill-opacity="0.5" fill="#FFF8F8"></path>
                <path d="M27,0 C27.5522847,-1.01453063e-16 28,0.44771525 28,1 L28,8 C28,8.55228475 27.5522847,9 27,9 L19,9 C18.4477153,9 18,8.55228475 18,8 L18,1 C18,0.44771525 18.4477153,1.01453063e-16 19,0 L27,0 Z M19,8 L27,8 L27,1 L19,1 L19,4 L24,4 L24,5 L19,5 L19,8 Z" id="Combined-Shape" fill="#F4F4F4"></path>
            </g>
            <g id="折角">
                <use fill="black" fill-opacity="1" filter="url(#filter-6)" xlink:href="#path-5"></use>
                <use fill="url(#linearGradient-4)" fill-rule="evenodd" xlink:href="#path-5"></use>
            </g>
        </g>
        <path d="M33.5,42 C34.7087959,42 35.7923571,42.603218 36.5258151,43.5566771 L35.648927,44.057756 C35.1039969,43.4052328 34.3425615,43 33.5,43 C31.8431458,43 30.5,44.5670034 30.5,46.5 C30.5,48.4329966 31.8431458,50 33.5,50 C34.2571624,50 34.9488105,49.6727502 35.4766985,49.1328708 L36.4434089,49.5471752 C35.7124171,50.4403728 34.664301,51 33.5,51 C31.290861,51 29.5,48.9852814 29.5,46.5 C29.5,44.0147186 31.290861,42 33.5,42 Z M26,42 L30,51 L28.8499985,51 L27.9000015,49 L23.1000004,49 L22.1499996,51 L21,51 L25,42 L26,42 Z M44,42 L44,43 L39,43 L39,46 L43,46 L43,47 L39,47 L39,50 L44,50 L44,51 L38,51 L38,42 L44,42 Z M25.4738095,43 L23.45,48 L27.45,48 L25.4738095,43 Z" id="Combined-Shape" fill="#FFFFFF"></path>
    </g>
</svg>