<?xml version="1.0" encoding="UTF-8"?>
<svg width="64px" height="64px" viewBox="0 0 64 64" version="1.1" xmlns="http://www.w3.org/2000/svg" xmlns:xlink="http://www.w3.org/1999/xlink">
    <title>mimetypes/64/application-vnd.sun.xml.calc.template</title>
    <defs>
        <linearGradient x1="50%" y1="0%" x2="50%" y2="100%" id="linearGradient-1">
            <stop stop-color="#5C84F0" offset="0%"></stop>
            <stop stop-color="#3B57E3" offset="100%"></stop>
        </linearGradient>
        <path d="M46,51.5 C46,53.9852814 43.9852814,56 41.5,56 L4.5,56 C2.01471863,56 3.04359188e-16,53.9852814 0,51.5 L0,4.5 C-3.04359188e-16,2.01471863 2.01471863,4.56538782e-16 4.5,0 L31.75,0 L46,14 L46,51.5 Z" id="path-2"></path>
        <filter x="-14.1%" y="-9.8%" width="128.3%" height="123.2%" filterUnits="objectBoundingBox" id="filter-3">
            <feOffset dx="0" dy="1" in="SourceAlpha" result="shadowOffsetOuter1"></feOffset>
            <feGaussianBlur stdDeviation="2" in="shadowOffsetOuter1" result="shadowBlurOuter1"></feGaussianBlur>
            <feColorMatrix values="0 0 0 0 0.133333333   0 0 0 0 0.215686275   0 0 0 0 0.650980392  0 0 0 0.5 0" type="matrix" in="shadowBlurOuter1"></feColorMatrix>
        </filter>
        <linearGradient x1="50%" y1="50%" x2="7.99354867%" y2="87.539983%" id="linearGradient-4">
            <stop stop-color="#FFFFFF" stop-opacity="0.1" offset="0%"></stop>
            <stop stop-color="#FFFFFF" stop-opacity="0.3" offset="100%"></stop>
        </linearGradient>
        <path d="M31.75,0 L46,14 L36.25,14 C33.7647186,14 31.75,11.9852814 31.75,9.5 L31.75,0 L31.75,0 Z" id="path-5"></path>
        <filter x="-14.0%" y="-7.1%" width="128.1%" height="128.6%" filterUnits="objectBoundingBox" id="filter-6">
            <feOffset dx="0" dy="1" in="SourceAlpha" result="shadowOffsetOuter1"></feOffset>
            <feGaussianBlur stdDeviation="0.5" in="shadowOffsetOuter1" result="shadowBlurOuter1"></feGaussianBlur>
            <feComposite in="shadowBlurOuter1" in2="SourceAlpha" operator="out" result="shadowBlurOuter1"></feComposite>
            <feColorMatrix values="0 0 0 0 0   0 0 0 0 0   0 0 0 0 0  0 0 0 0.05 0" type="matrix" in="shadowBlurOuter1"></feColorMatrix>
        </filter>
    </defs>
    <g id="mimetypes/64/application-vnd.sun.xml.calc.template" stroke="none" stroke-width="1" fill="none" fill-rule="evenodd">
        <g id="编组-2" transform="translate(9, 4)">
            <g id="蒙版">
                <use fill="black" fill-opacity="1" filter="url(#filter-3)" xlink:href="#path-2"></use>
                <use fill="url(#linearGradient-1)" fill-rule="evenodd" xlink:href="#path-2"></use>
            </g>
            <g id="折角">
                <use fill="black" fill-opacity="1" filter="url(#filter-6)" xlink:href="#path-5"></use>
                <use fill="url(#linearGradient-4)" fill-rule="evenodd" xlink:href="#path-5"></use>
            </g>
        </g>
        <path d="M20,28 L21,28 L21,25 L25,25 L25,47 L21,47 L21,44 L20,44 L20,48 L44,48 L44,24 L20,24 L20,28 Z M31,25 L31,28 L26,28 L26,25 L31,25 Z M37,25 L37,28 L32,28 L32,25 L37,25 Z M43,25 L43,28 L38,28 L38,25 L43,25 Z M20,31 L21,31 L21,29 L20,29 L20,31 Z M31,29 L31,32 L26,32 L26,29 L31,29 Z M37,29 L37,32 L32,32 L32,29 L37,29 Z M43,29 L43,32 L38,32 L38,29 L43,29 Z M20,34 L21,34 L21,32 L20,32 L20,34 Z M31,33 L31,36 L26,36 L26,33 L31,33 Z M37,33 L37,36 L32,36 L32,33 L37,33 Z M43,33 L43,36 L38,36 L38,33 L43,33 Z M20,37 L21,37 L21,35 L20,35 L20,37 Z M31,37 L31,47 L26,47 L26,37 L31,37 Z M37,37 L37,47 L32,47 L32,37 L37,37 Z M43,37 L43,47 L38,47 L38,37 L43,37 Z M20,40 L21,40 L21,38 L20,38 L20,40 Z M20,43 L21,43 L21,41 L20,41 L20,43 Z" id="rect4215" fill="#FFFFFF"></path>
    </g>
</svg>