<?xml version="1.0" encoding="UTF-8"?>
<svg width="64px" height="64px" viewBox="0 0 64 64" version="1.1" xmlns="http://www.w3.org/2000/svg" xmlns:xlink="http://www.w3.org/1999/xlink">
    <title>mimetypes/64/application-x-iso9660-appimage</title>
    <defs>
        <linearGradient x1="50%" y1="0%" x2="50%" y2="99.7939317%" id="linearGradient-1">
            <stop stop-color="#9BA6C1" offset="0%"></stop>
            <stop stop-color="#778EB2" offset="100%"></stop>
        </linearGradient>
        <path d="M46,51.5 C46,53.9852814 43.9852814,56 41.5,56 L4.5,56 C2.01471863,56 3.04359188e-16,53.9852814 0,51.5 L0,4.5 C-3.04359188e-16,2.01471863 2.01471863,4.56538782e-16 4.5,0 L31.75,0 L46,14 L46,51.5 Z" id="path-2"></path>
        <filter x="-14.1%" y="-9.8%" width="128.3%" height="123.2%" filterUnits="objectBoundingBox" id="filter-3">
            <feOffset dx="0" dy="1" in="SourceAlpha" result="shadowOffsetOuter1"></feOffset>
            <feGaussianBlur stdDeviation="2" in="shadowOffsetOuter1" result="shadowBlurOuter1"></feGaussianBlur>
            <feColorMatrix values="0 0 0 0 0.474509804   0 0 0 0 0.558835447   0 0 0 0 0.701960784  0 0 0 0.5 0" type="matrix" in="shadowBlurOuter1"></feColorMatrix>
        </filter>
        <linearGradient x1="50%" y1="50%" x2="7.99354867%" y2="87.539983%" id="linearGradient-4">
            <stop stop-color="#FFFFFF" stop-opacity="0.1" offset="0%"></stop>
            <stop stop-color="#FFFFFF" stop-opacity="0.3" offset="100%"></stop>
        </linearGradient>
        <path d="M31.75,0 L46,14 L36.25,14 C33.7647186,14 31.75,11.9852814 31.75,9.5 L31.75,0 L31.75,0 Z" id="path-5"></path>
        <filter x="-14.0%" y="-7.1%" width="128.1%" height="128.6%" filterUnits="objectBoundingBox" id="filter-6">
            <feOffset dx="0" dy="1" in="SourceAlpha" result="shadowOffsetOuter1"></feOffset>
            <feGaussianBlur stdDeviation="0.5" in="shadowOffsetOuter1" result="shadowBlurOuter1"></feGaussianBlur>
            <feComposite in="shadowBlurOuter1" in2="SourceAlpha" operator="out" result="shadowBlurOuter1"></feComposite>
            <feColorMatrix values="0 0 0 0 0   0 0 0 0 0   0 0 0 0 0  0 0 0 0.05 0" type="matrix" in="shadowBlurOuter1"></feColorMatrix>
        </filter>
    </defs>
    <g id="mimetypes/64/application-x-iso9660-appimage" stroke="none" stroke-width="1" fill="none" fill-rule="evenodd">
        <g id="编组-2" transform="translate(9, 4)">
            <g id="蒙版">
                <use fill="black" fill-opacity="1" filter="url(#filter-3)" xlink:href="#path-2"></use>
                <use fill="url(#linearGradient-1)" fill-rule="evenodd" xlink:href="#path-2"></use>
            </g>
            <g id="折角">
                <use fill="black" fill-opacity="1" filter="url(#filter-6)" xlink:href="#path-5"></use>
                <use fill="url(#linearGradient-4)" fill-rule="evenodd" xlink:href="#path-5"></use>
            </g>
        </g>
        <path d="M34.4506293,21.0005056 C34.7015261,21.0039155 34.9363551,21.2008898 34.9834186,21.4473629 L35.4474667,23.80194 C36.2803056,24.1277686 37.0628603,24.5753801 37.7503451,25.125761 L40.0361735,24.3523524 C40.2736429,24.270467 40.5616872,24.3765911 40.6892764,24.5929721 L42.8892285,28.4084744 C43.0131406,28.6279193 42.9599961,28.9316149 42.7689224,29.0959513 L40.9471267,30.694295 C41.0111918,31.1228927 41.0502415,31.5540676 41.0502415,32.0005162 C41.0502415,32.4470281 41.0112394,32.8781636 40.9471267,33.3067378 L42.7689224,34.90516 C42.9600197,35.0694965 43.0131406,35.3731921 42.8892285,35.5926369 L40.6892764,39.4081393 C40.5616872,39.6245513 40.2736429,39.7306365 40.0361735,39.6487512 L37.7503451,38.8753425 C37.0633313,39.4253381 36.2803842,39.8729735 35.4473096,40.1987707 L34.9832615,42.5533479 C34.9362215,42.7998211 34.7013689,42.9970622 34.4504721,43.000205 L30.050647,43.000205 C29.7997506,42.9967872 29.5649133,42.7998211 29.5178502,42.5533479 L29.0538095,40.1987707 C28.2207349,39.8729421 27.4377956,39.4253067 26.7507741,38.8753425 L24.4649456,39.6487512 C24.2274688,39.7306365 23.9394323,39.6245203 23.8118427,39.4081393 L21.6118909,35.5926369 C21.4879708,35.3731921 21.5411232,35.0694965 21.7321969,34.90516 L23.5539927,33.3067378 C23.4898404,32.8781401 23.45087,32.4469652 23.45087,32.0005162 C23.45087,31.5540833 23.4898799,31.1228692 23.5539927,30.694295 L21.7321969,29.0959513 C21.5410996,28.9316149 21.4879708,28.6279193 21.6118909,28.4084744 L23.8118427,24.5929721 C23.9394323,24.3765522 24.2274688,24.270467 24.4649456,24.3523524 L26.7505384,25.1257924 C27.4375521,24.5757886 28.2204992,24.1281614 29.0535738,23.8023642 L29.5176145,21.4477872 C29.5602384,21.2171144 29.7656512,21.0263079 29.9988539,21.0009299 Z M34.0009599,28 L30.0009599,28 L30.0009599,33 L27.5715145,33 L32,37 L36.4284855,33 L34.0009599,33 L34.0009599,28 Z" id="形状结合" fill="#FFFFFF"></path>
    </g>
</svg>