<?xml version="1.0" encoding="UTF-8"?>
<svg width="64px" height="64px" viewBox="0 0 64 64" version="1.1" xmlns="http://www.w3.org/2000/svg" xmlns:xlink="http://www.w3.org/1999/xlink">
    <title>mimetypes/64/application-x-mswinurl</title>
    <defs>
        <linearGradient x1="50%" y1="0%" x2="50%" y2="100%" id="linearGradient-1">
            <stop stop-color="#00C9FF" offset="0%"></stop>
            <stop stop-color="#008AF9" offset="100%"></stop>
        </linearGradient>
        <path d="M46,51.5 C46,53.9852814 43.9852814,56 41.5,56 L4.5,56 C2.01471863,56 3.04359188e-16,53.9852814 0,51.5 L0,4.5 C-3.04359188e-16,2.01471863 2.01471863,4.56538782e-16 4.5,0 L31.75,0 L46,14 L46,51.5 Z" id="path-2"></path>
        <filter x="-14.1%" y="-9.8%" width="128.3%" height="123.2%" filterUnits="objectBoundingBox" id="filter-3">
            <feOffset dx="0" dy="1" in="SourceAlpha" result="shadowOffsetOuter1"></feOffset>
            <feGaussianBlur stdDeviation="2" in="shadowOffsetOuter1" result="shadowBlurOuter1"></feGaussianBlur>
            <feColorMatrix values="0 0 0 0 0.22745098   0 0 0 0 0.513210696   0 0 0 0 0.960784314  0 0 0 0.5 0" type="matrix" in="shadowBlurOuter1"></feColorMatrix>
        </filter>
        <linearGradient x1="50%" y1="50%" x2="7.99354867%" y2="87.539983%" id="linearGradient-4">
            <stop stop-color="#FFFFFF" stop-opacity="0.1" offset="0%"></stop>
            <stop stop-color="#FFFFFF" stop-opacity="0.3" offset="100%"></stop>
        </linearGradient>
        <path d="M31.75,0 L46,14 L36.25,14 C33.7647186,14 31.75,11.9852814 31.75,9.5 L31.75,0 L31.75,0 Z" id="path-5"></path>
        <filter x="-14.0%" y="-7.1%" width="128.1%" height="128.6%" filterUnits="objectBoundingBox" id="filter-6">
            <feOffset dx="0" dy="1" in="SourceAlpha" result="shadowOffsetOuter1"></feOffset>
            <feGaussianBlur stdDeviation="0.5" in="shadowOffsetOuter1" result="shadowBlurOuter1"></feGaussianBlur>
            <feComposite in="shadowBlurOuter1" in2="SourceAlpha" operator="out" result="shadowBlurOuter1"></feComposite>
            <feColorMatrix values="0 0 0 0 0   0 0 0 0 0   0 0 0 0 0  0 0 0 0.05 0" type="matrix" in="shadowBlurOuter1"></feColorMatrix>
        </filter>
    </defs>
    <g id="mimetypes/64/application-x-mswinurl" stroke="none" stroke-width="1" fill="none" fill-rule="evenodd">
        <g id="编组-2" transform="translate(9, 4)">
            <g id="蒙版">
                <use fill="black" fill-opacity="1" filter="url(#filter-3)" xlink:href="#path-2"></use>
                <use fill="url(#linearGradient-1)" fill-rule="evenodd" xlink:href="#path-2"></use>
            </g>
            <g id="折角">
                <use fill="black" fill-opacity="1" filter="url(#filter-6)" xlink:href="#path-5"></use>
                <use fill="url(#linearGradient-4)" fill-rule="evenodd" xlink:href="#path-5"></use>
            </g>
        </g>
        <path d="M32,20 C25.3725714,20 20,25.3725714 20,32 C20,38.6274286 25.3725714,44 32,44 C38.6274286,44 44,38.6274286 44,32 C44,25.3725714 38.6274286,20 32,20 Z M30.7979909,22.2935274 C30.9378937,22.278956 31.1155417,22.3019274 31.256696,22.2935274 C31.273496,22.3604531 31.1551074,22.5979657 30.9955349,22.9464286 C29.9794897,25.1660754 29.921972,27.7679446 30.8649577,29.1573663 C31.0355977,29.4092771 31.1897343,29.6485211 31.1897343,29.6796869 C31.1897343,29.7108354 31.0060726,29.743304 30.7979926,29.743304 C30.3095206,29.743304 29.8473714,29.4465526 28.9029029,28.6986611 C28.4833366,28.366424 27.9389994,28.0879983 27.7276794,28.0457583 C27.39584,27.9794669 27.306524,28.008164 26.8772343,28.4375 C26.4778177,28.8368446 26.354912,29.0529371 26.354912,29.4185274 C26.354912,30.8048977 27.9998309,31.9039606 31.0591537,32.552456 C35.213828,33.433016 36.2380811,34.2249183 36.3526794,36.4095989 C36.4965594,39.1491269 35.0372206,41.2155594 31.8426354,42.8147326 C31.4613406,43.005668 31.2191309,43.077812 31.0591537,43.1395091 C30.988268,43.1331663 30.9356394,43.145852 30.8649577,43.1395091 C30.8377691,43.0548063 30.7979977,42.858932 30.7979977,42.486608 C30.7979977,41.0315617 30.2258206,39.533972 29.3616149,38.6964286 C29.1296326,38.4715777 28.4781114,37.9961086 27.9218823,37.6517857 C27.3656737,37.3074834 26.8047509,36.9083634 26.6796937,36.7377234 C26.4724537,36.4545474 26.4568554,36.2798223 26.6160766,35.756696 C26.9062571,34.8012697 27.250424,34.2677429 27.9218806,33.6640623 C28.2738989,33.3475743 28.6273794,33.0844674 28.7053623,33.0781246 C28.7833623,33.0717817 28.2582697,32.9119589 27.4665234,32.75 C26.6748217,32.5877257 25.5139709,32.2468486 24.9151846,32.0301337 C23.8202514,31.6339469 22.3448463,30.8039531 21.7812543,30.2020091 C21.7574086,30.1765006 21.7350029,30.1576434 21.7142943,30.1350491 C22.5217863,26.9185074 24.787232,24.2838286 27.7913034,23.0133971 C28.4198686,22.7475371 29.0693531,22.5640143 29.7533566,22.4241114 C30.0940623,22.3544771 30.4462109,22.3292943 30.7979994,22.2935343 L30.7979909,22.2935274 Z M40.6015623,27.1953131 C40.8471783,27.3471303 41.7732149,29.3538886 42.0379469,30.3325897 C42.3797394,31.5960989 42.3549989,33.781664 42.0379469,35.0368297 C41.9172783,35.5145531 41.764616,35.9622286 41.7131703,36.0178571 C41.6617246,36.0734857 41.4739194,35.753864 41.2544651,35.364956 C41.0349869,34.9761097 40.3337137,34.1482023 39.7511154,33.5334817 C38.0694629,31.7589989 37.8045131,30.8347177 38.5089286,29.4185274 C38.864168,28.7043903 40.4114686,27.0779874 40.6015623,27.1953131 L40.6015623,27.1953131 Z" id="形状" fill="#FFFFFF"></path>
    </g>
</svg>