<svg xmlns="http://www.w3.org/2000/svg" xmlns:xlink="http://www.w3.org/1999/xlink" width="64" height="64" viewBox="0 0 64 64">
  <defs>
    <linearGradient id="application-x-qet-project-c" x1="50%" x2="50%" y1="0%" y2="100%">
      <stop offset="0%" stop-color="#19BD72"/>
      <stop offset="100%" stop-color="#00914F"/>
    </linearGradient>
    <path id="application-x-qet-project-b" d="M29,0 L42,13 L42,47.5 C42,49.9852814 39.9852814,52 37.5,52 L4.5,52 C2.01471863,52 3.04359188e-16,49.9852814 0,47.5 L0,4.5 C-3.04359188e-16,2.01471863 2.01471863,4.56538782e-16 4.5,0 L29,0 Z"/>
    <filter id="application-x-qet-project-a" width="131%" height="125%" x="-15.5%" y="-10.6%" filterUnits="objectBoundingBox">
      <feOffset dy="1" in="SourceAlpha" result="shadowOffsetOuter1"/>
      <feGaussianBlur in="shadowOffsetOuter1" result="shadowBlurOuter1" stdDeviation="2"/>
      <feColorMatrix in="shadowBlurOuter1" values="0 0 0 0 0.00784313725   0 0 0 0 0.42745098   0 0 0 0 0.168627451  0 0 0 0.5 0"/>
    </filter>
    <linearGradient id="application-x-qet-project-f" x1="50%" x2="10.489%" y1="50%" y2="91.194%">
      <stop offset="0%" stop-color="#FFF" stop-opacity=".1"/>
      <stop offset="100%" stop-color="#FFF" stop-opacity=".3"/>
    </linearGradient>
    <path id="application-x-qet-project-e" d="M29,0 L42,13 L33.5,13 C31.0147186,13 29,10.9852814 29,8.5 L29,0 Z"/>
    <filter id="application-x-qet-project-d" width="153.8%" height="153.8%" x="-26.9%" y="-19.2%" filterUnits="objectBoundingBox">
      <feOffset dy="1" in="SourceAlpha" result="shadowOffsetOuter1"/>
      <feGaussianBlur in="shadowOffsetOuter1" result="shadowBlurOuter1" stdDeviation="1"/>
      <feComposite in="shadowBlurOuter1" in2="SourceAlpha" operator="out" result="shadowBlurOuter1"/>
      <feColorMatrix in="shadowBlurOuter1" values="0 0 0 0 0   0 0 0 0 0   0 0 0 0 0  0 0 0 0.05 0"/>
    </filter>
  </defs>
  <g fill="none" fill-rule="evenodd">
    <g transform="translate(11 7)">
      <use fill="#000" filter="url(#application-x-qet-project-a)" xlink:href="#application-x-qet-project-b"/>
      <use fill="url(#application-x-qet-project-c)" xlink:href="#application-x-qet-project-b"/>
      <use fill="#000" filter="url(#application-x-qet-project-d)" xlink:href="#application-x-qet-project-e"/>
      <use fill="url(#application-x-qet-project-f)" xlink:href="#application-x-qet-project-e"/>
    </g>
    <path fill="#FFF" d="M25,26 L26,26 L26,23 L25,23 L25,26 Z M28,27 L29,27 L29,23 L28,23 L28,27 Z M35,27 L36,27 L36,23 L35,23 L35,27 Z M38,25.5 L39,25.5 L39,23 L38,23 L38,25.5 Z M31,27 L33,27 L33,26 L31,26 L31,27 Z M20,29 L23,29 L23,28 L20,28 L20,29 Z M25,42 L39,42 L39,28 L25,28 L25,42 Z M41,29 L44,29 L44,28 L41,28 L41,29 Z M20,32 L24,32 L24,31 L20,31 L20,32 Z M40,32 L44,32 L44,31 L40,31 L40,32 Z M23,36 L24,36 L24,33 L23,33 L23,36 Z M40,36 L41,36 L41,33 L40,33 L40,36 Z M20,38 L24,38 L24,37 L20,37 L20,38 Z M37,37 L37,40 L34,40 L37,37 Z M40,38 L44,38 L44,37 L40,37 L40,38 Z M20,41 L23,41 L23,40 L20,40 L20,41 Z M41,41 L44,41 L44,40 L41,40 L41,41 Z M28,47 L29,47 L29,43 L28,43 L28,47 Z M31,44 L33,44 L33,43 L31,43 L31,44 Z M35,47 L36,47 L36,43 L35,43 L35,47 Z M25,47 L26,47 L26,44 L25,44 L25,47 Z M38,47 L39,47 L39,44 L38,44 L38,47 Z"/>
  </g>
</svg>
