<svg xmlns="http://www.w3.org/2000/svg" xmlns:xlink="http://www.w3.org/1999/xlink" width="64" height="64" viewBox="0 0 64 64">
  <defs>
    <linearGradient id="application-vnd.oasis.opendocument.formula-c" x1="50%" x2="50%" y1="0%" y2="100%">
      <stop offset="0%" stop-color="#9BAAC1"/>
      <stop offset="100%" stop-color="#779DB2"/>
    </linearGradient>
    <path id="application-vnd.oasis.opendocument.formula-b" d="M29,0 L42,13 L42,47.5 C42,49.9852814 39.9852814,52 37.5,52 L4.5,52 C2.01471863,52 3.04359188e-16,49.9852814 0,47.5 L0,4.5 C-3.04359188e-16,2.01471863 2.01471863,4.56538782e-16 4.5,0 L29,0 Z"/>
    <filter id="application-vnd.oasis.opendocument.formula-a" width="131%" height="125%" x="-15.5%" y="-10.6%" filterUnits="objectBoundingBox">
      <feOffset dy="1" in="SourceAlpha" result="shadowOffsetOuter1"/>
      <feGaussianBlur in="shadowOffsetOuter1" result="shadowBlurOuter1" stdDeviation="2"/>
      <feColorMatrix in="shadowBlurOuter1" values="0 0 0 0 0.474509804   0 0 0 0 0.619607843   0 0 0 0 0.701960784  0 0 0 0.5 0"/>
    </filter>
    <linearGradient id="application-vnd.oasis.opendocument.formula-f" x1="50%" x2="10.489%" y1="50%" y2="91.194%">
      <stop offset="0%" stop-color="#FFF" stop-opacity=".1"/>
      <stop offset="100%" stop-color="#FFF" stop-opacity=".3"/>
    </linearGradient>
    <path id="application-vnd.oasis.opendocument.formula-e" d="M29,0 L42,13 L33.5,13 C31.0147186,13 29,10.9852814 29,8.5 L29,0 Z"/>
    <filter id="application-vnd.oasis.opendocument.formula-d" width="153.8%" height="153.8%" x="-26.9%" y="-19.2%" filterUnits="objectBoundingBox">
      <feOffset dy="1" in="SourceAlpha" result="shadowOffsetOuter1"/>
      <feGaussianBlur in="shadowOffsetOuter1" result="shadowBlurOuter1" stdDeviation="1"/>
      <feComposite in="shadowBlurOuter1" in2="SourceAlpha" operator="out" result="shadowBlurOuter1"/>
      <feColorMatrix in="shadowBlurOuter1" values="0 0 0 0 0   0 0 0 0 0   0 0 0 0 0  0 0 0 0.05 0"/>
    </filter>
  </defs>
  <g fill="none" fill-rule="evenodd">
    <g transform="translate(11 7)">
      <use fill="#000" filter="url(#application-vnd.oasis.opendocument.formula-a)" xlink:href="#application-vnd.oasis.opendocument.formula-b"/>
      <use fill="url(#application-vnd.oasis.opendocument.formula-c)" xlink:href="#application-vnd.oasis.opendocument.formula-b"/>
      <use fill="#000" filter="url(#application-vnd.oasis.opendocument.formula-d)" xlink:href="#application-vnd.oasis.opendocument.formula-e"/>
      <use fill="url(#application-vnd.oasis.opendocument.formula-f)" xlink:href="#application-vnd.oasis.opendocument.formula-e"/>
    </g>
    <path fill="#FFF" d="M38.2405911,22 L39.2081155,28.2345993 L38.2405911,28.2345993 C37.8351354,27.225629 37.2592288,26.2860702 36.5128682,25.41592 C35.766478,24.5365469 35.2840264,24.1296126 34.6666667,24 C34.3902186,23.9444776 26,24 26,24 L34.0525915,34.3301697 L34.0525915,34.705068 L25.5,45 L36,45 C37.3333333,45 38.1866902,44.8702676 38.5,44.5 C38.8317054,44.1112155 39.0330224,43.5452592 39.2910461,43.0639098 C39.5490343,42.582559 39.7609686,42.1382358 39.9268479,41.7309387 L40.8529074,42.0225258 L39.2910461,48 L22,48 L22,47.4377223 L31.6199583,35.7881074 L22,23.3333333 L22,22 L38.2405911,22 Z"/>
  </g>
</svg>
