<?xml version="1.0" encoding="UTF-8"?>
<svg width="64px" height="64px" viewBox="0 0 64 64" version="1.1" xmlns="http://www.w3.org/2000/svg" xmlns:xlink="http://www.w3.org/1999/xlink">
    <title>mimetypes/64/application-x-zip</title>
    <defs>
        <linearGradient x1="50%" y1="0%" x2="50%" y2="100%" id="linearGradient-1">
            <stop stop-color="#327DFF" offset="0%"></stop>
            <stop stop-color="#1066FF" offset="100%"></stop>
        </linearGradient>
        <path d="M46,51.5 C46,53.9852814 43.9852814,56 41.5,56 L4.5,56 C2.01471863,56 3.04359188e-16,53.9852814 0,51.5 L0,4.5 C-3.04359188e-16,2.01471863 2.01471863,4.56538782e-16 4.5,0 L31.75,0 L46,14 L46,51.5 Z" id="path-2"></path>
        <filter x="-14.1%" y="-9.8%" width="128.3%" height="123.2%" filterUnits="objectBoundingBox" id="filter-3">
            <feOffset dx="0" dy="1" in="SourceAlpha" result="shadowOffsetOuter1"></feOffset>
            <feGaussianBlur stdDeviation="2" in="shadowOffsetOuter1" result="shadowBlurOuter1"></feGaussianBlur>
            <feColorMatrix values="0 0 0 0 0.0391387195   0 0 0 0 0.388542822   0 0 0 0 1  0 0 0 0.5 0" type="matrix" in="shadowBlurOuter1"></feColorMatrix>
        </filter>
        <linearGradient x1="50%" y1="50%" x2="7.99354867%" y2="87.539983%" id="linearGradient-4">
            <stop stop-color="#FFFFFF" stop-opacity="0.1" offset="0%"></stop>
            <stop stop-color="#FFFFFF" stop-opacity="0.3" offset="100%"></stop>
        </linearGradient>
        <path d="M31.75,0 L46,14 L36.25,14 C33.7647186,14 31.75,11.9852814 31.75,9.5 L31.75,0 L31.75,0 Z" id="path-5"></path>
        <filter x="-14.0%" y="-7.1%" width="128.1%" height="128.6%" filterUnits="objectBoundingBox" id="filter-6">
            <feOffset dx="0" dy="1" in="SourceAlpha" result="shadowOffsetOuter1"></feOffset>
            <feGaussianBlur stdDeviation="0.5" in="shadowOffsetOuter1" result="shadowBlurOuter1"></feGaussianBlur>
            <feComposite in="shadowBlurOuter1" in2="SourceAlpha" operator="out" result="shadowBlurOuter1"></feComposite>
            <feColorMatrix values="0 0 0 0 0   0 0 0 0 0   0 0 0 0 0  0 0 0 0.05 0" type="matrix" in="shadowBlurOuter1"></feColorMatrix>
        </filter>
    </defs>
    <g id="mimetypes/64/application-x-zip" stroke="none" stroke-width="1" fill="none" fill-rule="evenodd">
        <g id="编组-2" transform="translate(9, 4)">
            <g id="蒙版">
                <use fill="black" fill-opacity="1" filter="url(#filter-3)" xlink:href="#path-2"></use>
                <use fill="url(#linearGradient-1)" fill-rule="evenodd" xlink:href="#path-2"></use>
            </g>
            <g id="Group" transform="translate(0, 23)">
                <path d="M17,2 L17,7 L0,7 L0,2 L17,2 Z M46,2 L46,7 L29,7 L29,2 L46,2 Z M20,2 L26,2 L26,7 L20,7 L20,6 L25,6 L25,3 L20,3 L20,2 Z" id="Combined-Shape" fill-opacity="0.5" fill="#FFF8F8"></path>
                <path d="M27,0 C27.5522847,-1.01453063e-16 28,0.44771525 28,1 L28,8 C28,8.55228475 27.5522847,9 27,9 L19,9 C18.4477153,9 18,8.55228475 18,8 L18,1 C18,0.44771525 18.4477153,1.01453063e-16 19,0 L27,0 Z M19,8 L27,8 L27,1 L19,1 L19,4 L24,4 L24,5 L19,5 L19,8 Z" id="Combined-Shape" fill="#F4F4F4"></path>
            </g>
            <g id="折角">
                <use fill="black" fill-opacity="1" filter="url(#filter-6)" xlink:href="#path-5"></use>
                <use fill="url(#linearGradient-4)" fill-rule="evenodd" xlink:href="#path-5"></use>
            </g>
        </g>
        <path d="M30,42.5 L30,43.5 L24.5,50.5 L30,50.5 L30,51.5 L23,51.5 L23,50.5 L28.5,43.5 L23,43.5 L23,42.5 L30,42.5 Z M33,42.5 L33,51.5 L32,51.5 L32,42.5 L33,42.5 Z M38.9796351,42.470046 C40.6618205,42.470046 42,43.7620776 42,45.5 C42,47.2258898 40.6735484,48.5 38.9796351,48.5 L36,48.5 L36,51.5 L35,51.5 L35,42.5 L38.9796351,42.470046 Z M39,43.5 L36,43.5 L36,47.5 L39,47.5 C40.1121754,47.5 41,46.6098078 41,45.5 C41,44.3878246 40.1098078,43.5 39,43.5 Z" id="Combined-Shape" fill="#FFFFFF"></path>
    </g>
</svg>