<?xml version="1.0" encoding="UTF-8"?>
<svg width="64px" height="64px" viewBox="0 0 64 64" version="1.1" xmlns="http://www.w3.org/2000/svg" xmlns:xlink="http://www.w3.org/1999/xlink">
    <title>mimetypes/64/application-vnd.wolfram.cdf</title>
    <defs>
        <linearGradient x1="50%" y1="0%" x2="50%" y2="99.7939317%" id="linearGradient-1">
            <stop stop-color="#9BA6C1" offset="0%"></stop>
            <stop stop-color="#778EB2" offset="100%"></stop>
        </linearGradient>
        <path d="M46,51.5 C46,53.9852814 43.9852814,56 41.5,56 L4.5,56 C2.01471863,56 3.04359188e-16,53.9852814 0,51.5 L0,4.5 C-3.04359188e-16,2.01471863 2.01471863,4.56538782e-16 4.5,0 L31.75,0 L46,14 L46,51.5 Z" id="path-2"></path>
        <filter x="-14.1%" y="-9.8%" width="128.3%" height="123.2%" filterUnits="objectBoundingBox" id="filter-3">
            <feOffset dx="0" dy="1" in="SourceAlpha" result="shadowOffsetOuter1"></feOffset>
            <feGaussianBlur stdDeviation="2" in="shadowOffsetOuter1" result="shadowBlurOuter1"></feGaussianBlur>
            <feColorMatrix values="0 0 0 0 0.474509804   0 0 0 0 0.558835447   0 0 0 0 0.701960784  0 0 0 0.5 0" type="matrix" in="shadowBlurOuter1"></feColorMatrix>
        </filter>
        <linearGradient x1="50%" y1="50%" x2="7.99354867%" y2="87.539983%" id="linearGradient-4">
            <stop stop-color="#FFFFFF" stop-opacity="0.1" offset="0%"></stop>
            <stop stop-color="#FFFFFF" stop-opacity="0.3" offset="100%"></stop>
        </linearGradient>
        <path d="M31.75,0 L46,14 L36.25,14 C33.7647186,14 31.75,11.9852814 31.75,9.5 L31.75,0 L31.75,0 Z" id="path-5"></path>
        <filter x="-14.0%" y="-7.1%" width="128.1%" height="128.6%" filterUnits="objectBoundingBox" id="filter-6">
            <feOffset dx="0" dy="1" in="SourceAlpha" result="shadowOffsetOuter1"></feOffset>
            <feGaussianBlur stdDeviation="0.5" in="shadowOffsetOuter1" result="shadowBlurOuter1"></feGaussianBlur>
            <feComposite in="shadowBlurOuter1" in2="SourceAlpha" operator="out" result="shadowBlurOuter1"></feComposite>
            <feColorMatrix values="0 0 0 0 0   0 0 0 0 0   0 0 0 0 0  0 0 0 0.05 0" type="matrix" in="shadowBlurOuter1"></feColorMatrix>
        </filter>
    </defs>
    <g id="mimetypes/64/application-vnd.wolfram.cdf" stroke="none" stroke-width="1" fill="none" fill-rule="evenodd">
        <g id="编组-2" transform="translate(9, 4)">
            <g id="蒙版">
                <use fill="black" fill-opacity="1" filter="url(#filter-3)" xlink:href="#path-2"></use>
                <use fill="url(#linearGradient-1)" fill-rule="evenodd" xlink:href="#path-2"></use>
            </g>
            <g id="折角">
                <use fill="black" fill-opacity="1" filter="url(#filter-6)" xlink:href="#path-5"></use>
                <use fill="url(#linearGradient-4)" fill-rule="evenodd" xlink:href="#path-5"></use>
            </g>
        </g>
        <path d="M30.2689734,19 C24.4927829,19 19.9998209,23.9166659 20,29.6979167 C20,35.478982 24.057698,39.8 29.8337051,39.8 C37.1152194,39.3230993 38.5622137,28.732112 32.2109377,29.9738278 C32.1343006,30.2254619 33.9920866,30.9514581 34.1244423,32.2708333 C34.3845886,34.8640829 32.3573746,36.4261629 29.8253351,35.9338537 C27.9753783,35.5741663 25.7406294,33.9921668 25.3069194,32.4164065 C24.9059103,30.9594523 25.105406,29.2104453 25.53125,28.0492185 C27.5417283,22.5668949 34.6407011,21.1148461 37.1428571,21.1835935 C35.1852663,19.6931132 33.032486,19.0028574 30.2689734,19 Z M34.1662949,24.2 C26.8847806,24.6769007 25.4377863,35.267888 31.7890623,34.0261722 C31.8656994,33.7745381 30.0079134,33.0485419 29.8755577,31.7291667 C29.6154114,29.1359171 31.6426254,27.573838 34.1746649,28.0661463 C36.0246217,28.4258337 38.2593706,30.0078332 38.6930806,31.5835935 C39.0940897,33.0405477 38.894594,34.7895547 38.46875,35.9507815 C36.4582717,41.4331051 29.3592989,42.8851539 26.8571429,42.8164065 C28.8147337,44.3068868 30.967514,44.9971426 33.7310266,45 C39.5072171,45 44.0001791,40.0833341 44,34.3020833 C44,28.521018 39.942302,24.2 34.1662949,24.2 Z" id="形状" fill="#FFFFFF"></path>
    </g>
</svg>