<?xml version="1.0" encoding="UTF-8"?>
<svg width="64px" height="64px" viewBox="0 0 64 64" version="1.1" xmlns="http://www.w3.org/2000/svg" xmlns:xlink="http://www.w3.org/1999/xlink">
    <title>mimetypes/64/application-x-theme</title>
    <defs>
        <linearGradient x1="50%" y1="0%" x2="50%" y2="98.9468961%" id="linearGradient-1">
            <stop stop-color="#F7F7F7" offset="0%"></stop>
            <stop stop-color="#F6F6F6" offset="100%"></stop>
        </linearGradient>
        <path d="M46,51.5 C46,53.9852814 43.9852814,56 41.5,56 L4.5,56 C2.01471863,56 3.04359188e-16,53.9852814 0,51.5 L0,4.5 C-3.04359188e-16,2.01471863 2.01471863,4.56538782e-16 4.5,0 L31.75,0 L46,14 L46,51.5 Z" id="path-2"></path>
        <filter x="-14.1%" y="-9.8%" width="128.3%" height="123.2%" filterUnits="objectBoundingBox" id="filter-3">
            <feOffset dx="0" dy="1" in="SourceAlpha" result="shadowOffsetOuter1"></feOffset>
            <feGaussianBlur stdDeviation="2" in="shadowOffsetOuter1" result="shadowBlurOuter1"></feGaussianBlur>
            <feColorMatrix values="0 0 0 0 0   0 0 0 0 0   0 0 0 0 0  0 0 0 0.1 0" type="matrix" in="shadowBlurOuter1"></feColorMatrix>
        </filter>
        <linearGradient x1="50%" y1="50%" x2="7.99354867%" y2="87.539983%" id="linearGradient-4">
            <stop stop-color="#FFFFFF" stop-opacity="0.1" offset="0%"></stop>
            <stop stop-color="#FFFFFF" stop-opacity="0.3" offset="100%"></stop>
        </linearGradient>
        <path d="M31.75,0 L46,14 L36.25,14 C33.7647186,14 31.75,11.9852814 31.75,9.5 L31.75,0 L31.75,0 Z" id="path-5"></path>
        <filter x="-14.0%" y="-7.1%" width="128.1%" height="128.6%" filterUnits="objectBoundingBox" id="filter-6">
            <feOffset dx="0" dy="1" in="SourceAlpha" result="shadowOffsetOuter1"></feOffset>
            <feGaussianBlur stdDeviation="0.5" in="shadowOffsetOuter1" result="shadowBlurOuter1"></feGaussianBlur>
            <feComposite in="shadowBlurOuter1" in2="SourceAlpha" operator="out" result="shadowBlurOuter1"></feComposite>
            <feColorMatrix values="0 0 0 0 0   0 0 0 0 0   0 0 0 0 0  0 0 0 0.05 0" type="matrix" in="shadowBlurOuter1"></feColorMatrix>
        </filter>
    </defs>
    <g id="mimetypes/64/application-x-theme" stroke="none" stroke-width="1" fill="none" fill-rule="evenodd">
        <g id="编组-2" transform="translate(9, 4)">
            <g id="蒙版">
                <use fill="black" fill-opacity="1" filter="url(#filter-3)" xlink:href="#path-2"></use>
                <use fill="url(#linearGradient-1)" fill-rule="evenodd" xlink:href="#path-2"></use>
            </g>
            <path d="M32.1590392,-1 L32.4508218,-0.713336432 L46.7008218,13.2866636 L47,13.5805931 L47,51.5 C47,54.5375661 44.5375661,57 41.5,57 L4.5,57 C1.46243388,57 -1,54.5375661 -1,51.5 L-1,4.5 C-1,1.46243388 1.46243388,-1 4.5,-1 L32.1590392,-1 Z M31.75,0 L4.5,0 C2.01471863,0 0,2.01471863 0,4.5 L0,51.5 C0,53.9852814 2.01471863,56 4.5,56 L41.5,56 C43.9852814,56 46,53.9852814 46,51.5 L46,14 L31.75,0 Z" id="蒙版" fill-opacity="0.1" fill="#000000" fill-rule="nonzero"></path>
            <g id="折角">
                <use fill="black" fill-opacity="1" filter="url(#filter-6)" xlink:href="#path-5"></use>
                <use fill="url(#linearGradient-4)" fill-rule="evenodd" xlink:href="#path-5"></use>
            </g>
        </g>
        <path d="M35.4249828,47.7262828 C35.0946444,47.9221873 34.9294785,48.2563609 34.9294785,48.7288198 C34.9294785,49.1052482 35.0523923,49.4048545 35.2982263,49.6276387 C35.5478966,49.8465845 35.8859151,49.9560574 36.3122823,49.9560574 C36.8999705,49.9560574 37.3705074,49.7486376 37.7238946,49.3337927 C38.0811143,48.9151148 38.2597315,48.3600735 38.2597315,47.6686689 L38.2597315,47.4324368 L37.2053431,47.4324368 C36.3487698,47.4324368 35.7553169,47.5303891 35.4249828,47.7262828 Z M30,42 L34,51 L32.8499985,51 L31.9000015,49 L27.1000004,49 L26.1499996,51 L25,51 L29,42 L30,42 Z M36.5369878,44.0676165 C37.4703762,44.0676165 38.1675395,44.3096143 38.6284788,44.7935884 C39.0894078,45.2775732 39.3198812,46.0112273 39.3198812,46.9945506 L39.3198812,50.6762689 L38.2597315,50.6762689 L38.2597315,49.6967787 C38.0177358,50.0885769 37.7162081,50.3785791 37.3551468,50.5667961 C36.9940779,50.7511692 36.552349,50.8433557 36.0299596,50.8433557 C35.3692844,50.8433557 34.8430517,50.6589826 34.4512588,50.2902364 C34.0633043,49.9176463 33.8693287,49.420219 33.8693287,48.7979597 C33.8693287,48.0719878 34.1113184,47.5246288 34.5953006,47.1558771 C35.0831211,46.7871363 35.8090924,46.6027631 36.7732172,46.6027578 L38.2597315,46.6027578 L38.2597315,46.4990452 C38.2597261,46.0112273 38.0983991,45.6347989 37.7757499,45.3697544 C37.4569326,45.1008823 37.0075215,44.9664463 36.427516,44.9664409 C36.0587655,44.9664463 35.6996206,45.0106392 35.350081,45.098955 C35.0005371,45.1873086 34.6644394,45.3198281 34.3417864,45.4965136 L34.3417864,44.5170287 C34.7297382,44.3672283 35.1061678,44.2558388 35.4710767,44.1828497 C35.8359807,44.106033 36.1912839,44.0676165 36.5369878,44.0676165 Z M29.5,43.5 L27.5,48 L31.5,48 L29.5,43.5 Z" id="Combined-Shape" fill="#4D4D4D"></path>
        <g id="Group-2" transform="translate(17.25, 22.5)">
            <path d="M26.9722222,12.547619 C25.6221926,12.547619 24.5277778,13.6562467 24.5277778,15.0238095 C24.5277778,16.3913724 25.6221926,17.5 26.9722222,17.5 C28.3222518,17.5 29.4166667,16.3913724 29.4166667,15.0238095 C29.4166667,13.6562467 28.3222518,12.547619 26.9722222,12.547619 L26.9722222,12.547619 Z" id="path4155" fill="#FC0000"></path>
            <path d="M22.0833333,13.3730159 C21.1833137,13.3730159 20.4537037,14.112101 20.4537037,15.0238095 C20.4537037,15.9355181 21.1833137,16.6746032 22.0833333,16.6746032 C22.9833529,16.6746032 23.712963,15.9355181 23.712963,15.0238095 C23.712963,14.112101 22.9833529,13.3730159 22.0833333,13.3730159 L22.0833333,13.3730159 Z" id="path4153" fill="#FC0000"></path>
            <path d="M18.8240741,14.1984127 C18.3740645,14.1984127 18.0092593,14.5679552 18.0092593,15.0238095 C18.0092593,15.4796638 18.3740645,15.8492063 18.8240741,15.8492063 C19.2740837,15.8492063 19.6388889,15.4796638 19.6388889,15.0238095 C19.6388889,14.5679552 19.2740837,14.1984127 18.8240741,14.1984127 L18.8240741,14.1984127 Z" id="path4123" fill="#FC0000"></path>
            <path d="M24.1125327,6.68889048 C22.9433728,7.37266984 22.5427891,8.88708317 23.2178041,10.0714286 C23.8928187,11.255774 25.3878173,11.6615597 26.5569771,10.9777762 C27.726137,10.2939968 28.1267207,8.77958349 27.4517061,7.5952381 C26.7766911,6.4108927 25.2816925,6.00510698 24.1125327,6.68889048 L24.1125327,6.68889048 Z" id="path4161" fill="#FF6600"></path>
            <path d="M20.286038,9.87989524 C19.5065984,10.3357495 19.2395424,11.3453584 19.6895524,12.1349206 C20.139562,12.9244829 21.136228,13.1950067 21.9156677,12.7391524 C22.6951077,12.2832981 22.9621633,11.2736892 22.5121537,10.484127 C22.0621437,9.69456476 21.0654781,9.42404095 20.286038,9.87989524 L20.286038,9.87989524 Z" id="path4159" fill="#FF6600"></path>
            <path d="M17.8708442,12.2455032 C17.4811244,12.4734283 17.3475966,12.9782327 17.5726012,13.3730159 C17.7976062,13.767799 18.2959392,13.903061 18.685659,13.6751317 C19.0753789,13.4472067 19.2089066,12.9424022 18.983902,12.547619 C18.758897,12.1528359 18.260564,12.0175781 17.8708442,12.2455032 L17.8708442,12.2455032 Z" id="path4125" fill="#FF6600"></path>
            <path d="M18.7441603,3.06349587 C18.0691453,4.24783714 18.469729,5.7622546 19.6388889,6.44603397 C20.8080487,7.12981333 22.3030473,6.72402762 22.9780619,5.53968635 C23.6530769,4.35534095 23.2524932,2.84092762 22.0833333,2.15714825 C20.9141735,1.47336476 19.4191749,1.87915048 18.7441603,3.06349587 L18.7441603,3.06349587 Z" id="path4167" fill="#FFD700"></path>
            <path d="M17.0053659,7.76508 C16.5553563,8.55464222 16.8224122,9.56425111 17.6018519,10.0201054 C18.3812915,10.4759597 19.3779575,10.2054359 19.8279675,9.41587365 C20.2779771,8.62631143 20.0109211,7.61670254 19.2314815,7.16084825 C18.4520419,6.70499397 17.4553759,6.97551778 17.0053659,7.76508 L17.0053659,7.76508 Z" id="path4165" fill="#FFD700"></path>
            <path d="M16.0813866,11.0370397 C15.856382,11.4318187 15.9899098,11.9366232 16.3796296,12.1645524 C16.7693494,12.3924775 17.2676824,12.2572156 17.4926874,11.8624365 C17.717692,11.4676533 17.5841643,10.9628489 17.1944444,10.7349238 C16.8047246,10.5069946 16.3063916,10.6422565 16.0813866,11.0370397 L16.0813866,11.0370397 Z" id="path4127" fill="#FFD700"></path>
            <path d="M12.305556,2.64285714 C12.305556,4.01042 13.3999704,5.11904762 14.75,5.11904762 C16.1000296,5.11904762 17.1944444,4.01042 17.1944444,2.64285714 C17.1944444,1.27529429 16.1000296,0.166666667 14.75,0.166666667 C13.3999704,0.166666667 12.305556,1.27529429 12.305556,2.64285714 L12.305556,2.64285714 Z" id="path4173" fill="#25CC00"></path>
            <path d="M13.1203704,7.5952381 C13.1203704,8.50694667 13.8499808,9.24603175 14.75,9.24603175 C15.6500196,9.24603175 16.37963,8.50694667 16.37963,7.5952381 C16.37963,6.68352952 15.6500192,5.94444444 14.75,5.94444444 C13.8499808,5.94444444 13.1203704,6.68352952 13.1203704,7.5952381 L13.1203704,7.5952381 Z" id="path4171" fill="#25CC00"></path>
            <path d="M13.9351852,10.8968254 C13.9351852,11.3526797 14.2999904,11.7222222 14.75,11.7222222 C15.2000096,11.7222222 15.5648148,11.3526797 15.5648148,10.8968254 C15.5648148,10.4409711 15.2000096,10.0714286 14.75,10.0714286 C14.2999904,10.0714286 13.9351852,10.4409711 13.9351852,10.8968254 L13.9351852,10.8968254 Z" id="path4129" fill="#25CC00"></path>
            <path d="M6.52193848,5.53968635 C7.19695267,6.72402762 8.69195126,7.12981746 9.86111111,6.44603397 C11.030271,5.7622546 11.4308547,4.24783714 10.7558397,3.06349587 C10.0808251,1.87915048 8.58582652,1.47336476 7.41666667,2.15714825 C6.24750681,2.84092762 5.84692307,4.35534095 6.52193848,5.53968635 L6.52193848,5.53968635 Z" id="path4179" fill="#009999"></path>
            <path d="M9.67203252,9.41587365 C10.1220425,10.2054359 11.1187085,10.4759597 11.8981481,10.0201054 C12.6775882,9.56425111 12.9446437,8.55464222 12.4946346,7.76508 C12.0446241,6.97551778 11.0479581,6.70499397 10.2685185,7.16084825 C9.48907889,7.61670254 9.22202293,8.62631143 9.67203252,9.41587365 L9.67203252,9.41587365 Z" id="path4177" fill="#009999"></path>
            <path d="M12.0073126,11.8624365 C12.232318,12.2572156 12.7306506,12.3924775 13.1203704,12.1645524 C13.5100902,11.9366232 13.643618,11.4318187 13.4186134,11.0370397 C13.1936084,10.6422565 12.6952754,10.5069946 12.3055556,10.7349238 C11.9158357,10.9628489 11.782308,11.4676533 12.0073126,11.8624365 L12.0073126,11.8624365 Z" id="path4131" fill="#009999"></path>
            <path d="M2.9430233,10.9777762 C4.11218274,11.6615597 5.60718133,11.255774 6.28219633,10.0714286 C6.95721093,8.88708317 6.55662719,7.37266984 5.38746733,6.68889048 C4.21830748,6.00510698 2.72330889,6.4108927 2.0482943,7.5952381 C1.3732793,8.77958349 1.77386304,10.2939968 2.9430233,10.9777762 L2.9430233,10.9777762 Z" id="path4185" fill="#0033CC"></path>
            <path d="M7.58433193,12.7391524 C8.36377196,13.1950067 9.36043796,12.9244829 9.81044796,12.1349206 C10.2604576,11.3453584 9.99340159,10.3357495 9.21396237,9.87989524 C8.43452193,9.42404095 7.43785593,9.69456476 6.98784633,10.484127 C6.53783674,11.2736892 6.8048923,12.2832981 7.58433193,12.7391524 L7.58433193,12.7391524 Z" id="path4183" fill="#0033CC"></path>
            <path d="M10.814341,13.6751317 C11.2040612,13.903061 11.7023938,13.767799 11.9273988,13.3730159 C12.1524038,12.9782368 12.0188756,12.4734283 11.6291558,12.2455032 C11.239436,12.0175781 10.741103,12.1528359 10.516098,12.547619 C10.2910934,12.9424022 10.4246211,13.4472067 10.814341,13.6751317 L10.814341,13.6751317 Z" id="path4133" fill="#0033CC"></path>
            <path d="M2.52777819,17.5 C3.87780737,17.5 4.97222263,16.3913724 4.97222263,15.0238095 C4.97222263,13.6562467 3.87780737,12.547619 2.52777778,12.547619 C1.17774819,12.547619 0.0833337407,13.6562467 0.0833337407,15.0238095 C0.0833337407,16.3913724 1.17774819,17.5 2.52777819,17.5 L2.52777819,17.5 Z" id="path4191" fill="#660099"></path>
            <path d="M7.41666667,16.6746032 C8.31668626,16.6746032 9.0462967,15.9355181 9.0462967,15.0238095 C9.0462967,14.112101 8.31668626,13.3730159 7.41666667,13.3730159 C6.51664707,13.3730159 5.78703704,14.112101 5.78703704,15.0238095 C5.78703704,15.9355181 6.51664707,16.6746032 7.41666667,16.6746032 L7.41666667,16.6746032 Z" id="path4189" fill="#660099"></path>
            <path d="M10.6759259,15.8492063 C11.1259359,15.8492063 11.4907407,15.4796638 11.4907407,15.0238095 C11.4907407,14.5679552 11.1259355,14.1984127 10.6759259,14.1984127 C10.2259163,14.1984127 9.86111111,14.5679552 9.86111111,15.0238095 C9.86111111,15.4796638 10.2259163,15.8492063 10.6759259,15.8492063 L10.6759259,15.8492063 Z" id="path4135" fill="#660099"></path>
        </g>
    </g>
</svg>