<?xml version="1.0" encoding="UTF-8"?>
<svg width="64px" height="64px" viewBox="0 0 64 64" version="1.1" xmlns="http://www.w3.org/2000/svg" xmlns:xlink="http://www.w3.org/1999/xlink">
    <title>mimetypes/64/audio-x-mpeg</title>
    <defs>
        <linearGradient x1="50%" y1="0%" x2="50%" y2="100%" id="linearGradient-1">
            <stop stop-color="#B7EE43" offset="0%"></stop>
            <stop stop-color="#6AD500" offset="100%"></stop>
        </linearGradient>
        <path d="M46,51.5 C46,53.9852814 43.9852814,56 41.5,56 L4.5,56 C2.01471863,56 3.04359188e-16,53.9852814 0,51.5 L0,4.5 C-3.04359188e-16,2.01471863 2.01471863,4.56538782e-16 4.5,0 L31.75,0 L46,14 L46,51.5 Z" id="path-2"></path>
        <filter x="-14.1%" y="-9.8%" width="128.3%" height="123.2%" filterUnits="objectBoundingBox" id="filter-3">
            <feOffset dx="0" dy="1" in="SourceAlpha" result="shadowOffsetOuter1"></feOffset>
            <feGaussianBlur stdDeviation="2" in="shadowOffsetOuter1" result="shadowBlurOuter1"></feGaussianBlur>
            <feColorMatrix values="0 0 0 0 0.505882353   0 0 0 0 0.741176471   0 0 0 0 0  0 0 0 0.5 0" type="matrix" in="shadowBlurOuter1"></feColorMatrix>
        </filter>
        <linearGradient x1="50%" y1="50%" x2="7.99354867%" y2="87.539983%" id="linearGradient-4">
            <stop stop-color="#FFFFFF" stop-opacity="0.1" offset="0%"></stop>
            <stop stop-color="#FFFFFF" stop-opacity="0.3" offset="100%"></stop>
        </linearGradient>
        <path d="M31.75,0 L46,14 L36.25,14 C33.7647186,14 31.75,11.9852814 31.75,9.5 L31.75,0 L31.75,0 Z" id="path-5"></path>
        <filter x="-14.0%" y="-7.1%" width="128.1%" height="128.6%" filterUnits="objectBoundingBox" id="filter-6">
            <feOffset dx="0" dy="1" in="SourceAlpha" result="shadowOffsetOuter1"></feOffset>
            <feGaussianBlur stdDeviation="0.5" in="shadowOffsetOuter1" result="shadowBlurOuter1"></feGaussianBlur>
            <feComposite in="shadowBlurOuter1" in2="SourceAlpha" operator="out" result="shadowBlurOuter1"></feComposite>
            <feColorMatrix values="0 0 0 0 0   0 0 0 0 0   0 0 0 0 0  0 0 0 0.05 0" type="matrix" in="shadowBlurOuter1"></feColorMatrix>
        </filter>
    </defs>
    <g id="mimetypes/64/audio-x-mpeg" stroke="none" stroke-width="1" fill="none" fill-rule="evenodd">
        <g id="编组-2" transform="translate(9, 4)">
            <g id="蒙版">
                <use fill="black" fill-opacity="1" filter="url(#filter-3)" xlink:href="#path-2"></use>
                <use fill="url(#linearGradient-1)" fill-rule="evenodd" xlink:href="#path-2"></use>
            </g>
            <g id="折角">
                <use fill="black" fill-opacity="1" filter="url(#filter-6)" xlink:href="#path-5"></use>
                <use fill="url(#linearGradient-4)" fill-rule="evenodd" xlink:href="#path-5"></use>
            </g>
        </g>
        <path d="M32,48 L32,50 L34,50 C34.5560877,50 35,49.5549039 35,49 C35,48.4439123 34.5549039,48 34,48 L32,48 Z M39.5625236,46.9749985 C40.2493634,46.9749985 40.812817,47.1418455 41.2381878,47.4795719 C41.664972,47.8266736 41.8807101,48.2947049 41.8807101,48.8778961 C41.8807101,49.5615545 41.5716699,50.0582419 40.9720331,50.3442639 C40.9720331,50.3442639 41.4232373,50.5485692 41.6466325,50.8196288 C41.898797,51.0999107 42.0249987,51.4505949 42.0249987,51.8654973 C42.0249987,52.4945239 41.7901838,53.0157 41.3279293,53.4169515 C40.8613778,53.822792 40.2549722,54.0249987 39.5144274,54.0249987 C38.8431544,54.0249987 38.2847296,53.8564851 37.8404744,53.5217922 C37.3228053,53.1156336 37.0359483,52.5255125 36.975384,51.7561697 L36.9647715,51.6213598 L38.0187973,51.6213598 L38.0233076,51.7416772 C38.0411745,52.2182962 38.2070233,52.5785525 38.512845,52.8199896 C38.7851033,53.0274979 39.1166329,53.1334892 39.5144274,53.1334892 C39.9723518,53.1334892 40.3382515,53.0080785 40.6113709,52.7647527 C40.8602263,52.5276638 40.9862211,52.237918 40.9862211,51.8929905 C40.9862211,51.5364403 40.8682022,51.2693983 40.6281492,51.0733674 C40.3867262,50.8762177 40.0514089,50.7807937 39.5913813,50.7807937 L38.9084655,50.7807937 L38.9084655,49.9442708 L39.5625236,49.9442708 C39.9927488,49.9442708 40.3141971,49.853452 40.530712,49.6802204 C40.7436713,49.5016771 40.8515517,49.2517815 40.8515517,48.9237182 C40.8515517,48.6036311 40.7398753,48.3499172 40.5284722,48.1652927 C40.309057,47.9723319 39.9870423,47.8756723 39.5625236,47.8756723 C39.1238927,47.8756723 38.8008327,47.9789559 38.5679933,48.1925425 C38.3300752,48.4030207 38.1938209,48.7079756 38.1477049,49.1297571 L38.1355233,49.241171 L37.1073585,49.241171 L37.1198045,49.1048093 C37.1798855,48.4465459 37.441495,47.9187435 37.8925248,47.5379127 C38.3187794,47.1608195 38.8760453,46.9749985 39.5625236,46.9749985 Z M34,47 C35.3807119,47 36,48 36,49 C36,50 35.3903379,51 34,51 L32.0011561,51 L32.0011561,54 L31,54 L31,47 L34,47 Z M24,47 L26.5,51.75 L29,47 L30,47 L30,54 L29,54 L29,49.5 L27,53 L26,53 L24,49.5 L24,54 L23,54 L23,47 L24,47 Z M32,20 C38.6168,20 44,25.3832 44,32 C44,38.6168 38.6168,44 32,44 C25.3832,44 20,38.6168 20,32 C20,25.3832 25.3832,20 32,20 Z M32,21.2 C26.0456,21.2 21.2,26.0444 21.2,32 C21.2,37.9556 26.0456,42.8 32,42.8 C37.9544,42.8 42.8,37.9556 42.8,32 C42.8,26.0444 37.9544,21.2 32,21.2 Z M32.7516479,23.2670198 C33.1169812,23.26569 33.4636479,23.64969 33.4636479,24.12569 L33.4636479,24.36969 C33.4636479,24.7270233 33.7809812,25.5563566 35.5369812,26.6510233 C35.5369812,26.6510233 37.8303146,27.88969 38.4809812,30.1270233 C38.4809812,30.1270233 39.1956479,32.1230233 38.0303146,34.64169 C38.0303146,34.64169 37.9196479,34.87369 37.6769812,34.7763566 C37.4849812,34.6990233 37.5503146,34.4550233 37.5503146,34.4550233 C37.5503146,34.4550233 38.3356479,32.4923566 37.6823146,30.90169 C37.6823146,30.90169 37.0796479,28.7163566 33.3556479,27.7243566 L33.3552223,27.9162644 C33.3551528,27.9472458 33.3550751,27.9817236 33.3549895,28.0195098 L33.3540129,28.443832 C33.352184,29.2270385 33.3489613,30.5480739 33.3450676,31.8907703 L33.3433599,32.4660329 C33.3372538,34.4735596 33.3298701,36.3639122 33.3236479,36.3950233 C33.3089812,37.6643566 32.2543146,38.99769 30.6343146,39.6283566 C28.6569812,40.39769 26.5903146,39.8283566 26.0169812,38.35769 C25.4436479,36.88569 26.5569812,34.98969 28.5636479,34.29769 C29.9263146,33.8283566 31.1169812,33.86169 32.0396479,34.3403566 L32.0636479,24.1310233 C32.0649812,23.6550233 32.3876479,23.2683566 32.7516479,23.2670198 Z" id="Combined-Shape" fill="#FFFFFF"></path>
    </g>
</svg>