<svg xmlns="http://www.w3.org/2000/svg" xmlns:xlink="http://www.w3.org/1999/xlink" width="64" height="64" viewBox="0 0 64 64">
  <defs>
    <linearGradient id="image-tiff-c" x1="50%" x2="50%" y1="0%" y2="100%">
      <stop offset="0%" stop-color="#28DCB1"/>
      <stop offset="100%" stop-color="#00AF9D"/>
    </linearGradient>
    <path id="image-tiff-b" d="M29,0 L42,13 L42,47.5 C42,49.9852814 39.9852814,52 37.5,52 L4.5,52 C2.01471863,52 3.04359188e-16,49.9852814 0,47.5 L0,4.5 C-3.04359188e-16,2.01471863 2.01471863,4.56538782e-16 4.5,0 L29,0 Z"/>
    <filter id="image-tiff-a" width="131%" height="125%" x="-15.5%" y="-10.6%" filterUnits="objectBoundingBox">
      <feOffset dy="1" in="SourceAlpha" result="shadowOffsetOuter1"/>
      <feGaussianBlur in="shadowOffsetOuter1" result="shadowBlurOuter1" stdDeviation="2"/>
      <feColorMatrix in="shadowBlurOuter1" values="0 0 0 0 0.262745098   0 0 0 0 0.71372549   0 0 0 0 0.607843137  0 0 0 0.5 0"/>
    </filter>
    <linearGradient id="image-tiff-f" x1="50%" x2="10.489%" y1="50%" y2="91.194%">
      <stop offset="0%" stop-color="#FFF" stop-opacity=".1"/>
      <stop offset="100%" stop-color="#FFF" stop-opacity=".3"/>
    </linearGradient>
    <path id="image-tiff-e" d="M29,0 L42,13 L33.5,13 C31.0147186,13 29,10.9852814 29,8.5 L29,0 Z"/>
    <filter id="image-tiff-d" width="153.8%" height="153.8%" x="-26.9%" y="-19.2%" filterUnits="objectBoundingBox">
      <feOffset dy="1" in="SourceAlpha" result="shadowOffsetOuter1"/>
      <feGaussianBlur in="shadowOffsetOuter1" result="shadowBlurOuter1" stdDeviation="1"/>
      <feComposite in="shadowBlurOuter1" in2="SourceAlpha" operator="out" result="shadowBlurOuter1"/>
      <feColorMatrix in="shadowBlurOuter1" values="0 0 0 0 0   0 0 0 0 0   0 0 0 0 0  0 0 0 0.05 0"/>
    </filter>
  </defs>
  <g fill="none" fill-rule="evenodd">
    <g transform="translate(11 7)">
      <use fill="#000" filter="url(#image-tiff-a)" xlink:href="#image-tiff-b"/>
      <use fill="url(#image-tiff-c)" xlink:href="#image-tiff-b"/>
      <use fill="#000" filter="url(#image-tiff-d)" xlink:href="#image-tiff-e"/>
      <use fill="url(#image-tiff-f)" xlink:href="#image-tiff-e"/>
    </g>
    <path fill="#FFF" d="M25,45 L23,45 L23,44 L28,44 L28,45 L26,45 L26,51 L25,51 L25,45 Z M29,44 L30,44 L30,51 L29,51 L29,44 Z M32,51 L31,51 L31,44 L36,44 L36,45 L32,45 L32,47 L35,47 L35,48 L32,48 L32,51 Z M38,51 L37,51 L37,44 L42,44 L42,45 L38,45 L38,47 L41,47 L41,48 L38,48 L38,51 Z M20.9573333,41 L20.9573333,23 L42.9573333,23 L42.9573333,41 L20.9573333,41 Z M23,39.004 L29.5,26 L33,33.5 L35,29.5 L41,38.9931116 L23,39.004 Z M22,40 L42,40 L41.876,24 L21.876,24 L22,40 Z"/>
  </g>
</svg>
