<svg xmlns="http://www.w3.org/2000/svg" xmlns:xlink="http://www.w3.org/1999/xlink" width="64" height="64" viewBox="0 0 64 64">
  <defs>
    <linearGradient id="image-x-psd-c" x1="50%" x2="50%" y1="0%" y2="100%">
      <stop offset="0%" stop-color="#327DFF"/>
      <stop offset="100%" stop-color="#1066FF"/>
    </linearGradient>
    <path id="image-x-psd-b" d="M29,0 L42,13 L42,47.5 C42,49.9852814 39.9852814,52 37.5,52 L4.5,52 C2.01471863,52 3.04359188e-16,49.9852814 0,47.5 L0,4.5 C-3.04359188e-16,2.01471863 2.01471863,4.56538782e-16 4.5,0 L29,0 Z"/>
    <filter id="image-x-psd-a" width="131%" height="125%" x="-15.5%" y="-10.6%" filterUnits="objectBoundingBox">
      <feOffset dy="1" in="SourceAlpha" result="shadowOffsetOuter1"/>
      <feGaussianBlur in="shadowOffsetOuter1" result="shadowBlurOuter1" stdDeviation="2"/>
      <feColorMatrix in="shadowBlurOuter1" values="0 0 0 0 0.0391387195   0 0 0 0 0.388542822   0 0 0 0 1  0 0 0 0.5 0"/>
    </filter>
    <linearGradient id="image-x-psd-f" x1="50%" x2="10.489%" y1="50%" y2="91.194%">
      <stop offset="0%" stop-color="#FFF" stop-opacity=".1"/>
      <stop offset="100%" stop-color="#FFF" stop-opacity=".3"/>
    </linearGradient>
    <path id="image-x-psd-e" d="M29,0 L42,13 L33.5,13 C31.0147186,13 29,10.9852814 29,8.5 L29,0 Z"/>
    <filter id="image-x-psd-d" width="153.8%" height="153.8%" x="-26.9%" y="-19.2%" filterUnits="objectBoundingBox">
      <feOffset dy="1" in="SourceAlpha" result="shadowOffsetOuter1"/>
      <feGaussianBlur in="shadowOffsetOuter1" result="shadowBlurOuter1" stdDeviation="1"/>
      <feComposite in="shadowBlurOuter1" in2="SourceAlpha" operator="out" result="shadowBlurOuter1"/>
      <feColorMatrix in="shadowBlurOuter1" values="0 0 0 0 0   0 0 0 0 0   0 0 0 0 0  0 0 0 0.05 0"/>
    </filter>
  </defs>
  <g fill="none" fill-rule="evenodd">
    <g transform="translate(11 7)">
      <use fill="#000" filter="url(#image-x-psd-a)" xlink:href="#image-x-psd-b"/>
      <use fill="url(#image-x-psd-c)" xlink:href="#image-x-psd-b"/>
      <use fill="#000" filter="url(#image-x-psd-d)" xlink:href="#image-x-psd-e"/>
      <use fill="url(#image-x-psd-f)" xlink:href="#image-x-psd-e"/>
    </g>
    <path fill="#FFF" d="M21,25 L21,44 L23,44 L23,36.028571 L27.6667423,36.028571 C30.600462,36.028571 33,33.5597413 33,30.5142855 C33,27.4750266 30.6122192,25 27.6667423,25 L21,25 Z M23,34 L23,27 L27.8000907,27 C29.5643035,27 31,28.5715342 31,30.5 C31,32.4264931 29.5591949,34 27.8000907,34 L23,34 Z M38.340403,30 C41.5496593,30 43.3047213,31.3614679 43.6557337,34.1357798 L41.7000932,34.1357798 C41.524587,33.3137615 41.1986469,32.6972477 40.6972006,32.3376147 C40.1456097,31.9266055 39.3432956,31.7211009 38.3153307,31.7211009 C37.4127274,31.7211009 36.7107026,31.8752294 36.2092563,32.2348624 C35.6576654,32.5688073 35.3818699,33.0311927 35.3818699,33.6220183 C35.3818699,34.187156 35.7328823,34.6752294 36.4850517,35.0605505 C36.9614257,35.2917431 37.8640291,35.5743119 39.1677894,35.933945 C40.7222729,36.3192661 41.8254548,36.7302752 42.5024073,37.1669725 C43.5303722,37.8348624 44.0568908,38.733945 44.0568908,39.8899083 C44.0568908,42.612844 42.2266118,44 38.5660539,44 C35.1562191,44 33.3008678,42.4587156 33,39.4018349 L34.9556405,39.4018349 C35.1060744,40.4550459 35.4821592,41.2 36.0337501,41.6623853 C36.585341,42.0733945 37.4127274,42.2788991 38.5159092,42.2788991 C40.8225622,42.2788991 42.000961,41.5082569 42.000961,40.0183486 C42.000961,39.2733945 41.5747316,38.7082569 40.7724176,38.2972477 C40.3461882,38.0917431 39.4185126,37.8091743 38.0144629,37.4495413 C36.4850517,37.0642202 35.4069422,36.6788991 34.8052067,36.2678899 C33.8023141,35.6513761 33.3259401,34.8036697 33.3259401,33.6733945 C33.3259401,32.5431193 33.8023141,31.6697248 34.7801343,31.0018349 C35.6827377,30.333945 36.8862088,30 38.340403,30 Z"/>
  </g>
</svg>
