<?xml version="1.0" encoding="UTF-8"?>
<svg width="64px" height="64px" viewBox="0 0 64 64" version="1.1" xmlns="http://www.w3.org/2000/svg" xmlns:xlink="http://www.w3.org/1999/xlink">
    <title>mimetypes/64/image-bmp</title>
    <defs>
        <linearGradient x1="50%" y1="0%" x2="50%" y2="100%" id="linearGradient-1">
            <stop stop-color="#28DCB1" offset="0%"></stop>
            <stop stop-color="#00AF9D" offset="100%"></stop>
        </linearGradient>
        <path d="M46,51.5 C46,53.9852814 43.9852814,56 41.5,56 L4.5,56 C2.01471863,56 3.04359188e-16,53.9852814 0,51.5 L0,4.5 C-3.04359188e-16,2.01471863 2.01471863,4.56538782e-16 4.5,0 L31.75,0 L46,14 L46,51.5 Z" id="path-2"></path>
        <filter x="-14.1%" y="-9.8%" width="128.3%" height="123.2%" filterUnits="objectBoundingBox" id="filter-3">
            <feOffset dx="0" dy="1" in="SourceAlpha" result="shadowOffsetOuter1"></feOffset>
            <feGaussianBlur stdDeviation="2" in="shadowOffsetOuter1" result="shadowBlurOuter1"></feGaussianBlur>
            <feColorMatrix values="0 0 0 0 0.262745098   0 0 0 0 0.71372549   0 0 0 0 0.607843137  0 0 0 0.5 0" type="matrix" in="shadowBlurOuter1"></feColorMatrix>
        </filter>
        <linearGradient x1="50%" y1="50%" x2="7.99354867%" y2="87.539983%" id="linearGradient-4">
            <stop stop-color="#FFFFFF" stop-opacity="0.1" offset="0%"></stop>
            <stop stop-color="#FFFFFF" stop-opacity="0.3" offset="100%"></stop>
        </linearGradient>
        <path d="M31.75,0 L46,14 L36.25,14 C33.7647186,14 31.75,11.9852814 31.75,9.5 L31.75,0 L31.75,0 Z" id="path-5"></path>
        <filter x="-14.0%" y="-7.1%" width="128.1%" height="128.6%" filterUnits="objectBoundingBox" id="filter-6">
            <feOffset dx="0" dy="1" in="SourceAlpha" result="shadowOffsetOuter1"></feOffset>
            <feGaussianBlur stdDeviation="0.5" in="shadowOffsetOuter1" result="shadowBlurOuter1"></feGaussianBlur>
            <feComposite in="shadowBlurOuter1" in2="SourceAlpha" operator="out" result="shadowBlurOuter1"></feComposite>
            <feColorMatrix values="0 0 0 0 0   0 0 0 0 0   0 0 0 0 0  0 0 0 0.05 0" type="matrix" in="shadowBlurOuter1"></feColorMatrix>
        </filter>
    </defs>
    <g id="mimetypes/64/image-bmp" stroke="none" stroke-width="1" fill="none" fill-rule="evenodd">
        <g id="编组-2" transform="translate(9, 4)">
            <g id="蒙版">
                <use fill="black" fill-opacity="1" filter="url(#filter-3)" xlink:href="#path-2"></use>
                <use fill="url(#linearGradient-1)" fill-rule="evenodd" xlink:href="#path-2"></use>
            </g>
            <g id="折角">
                <use fill="black" fill-opacity="1" filter="url(#filter-6)" xlink:href="#path-5"></use>
                <use fill="url(#linearGradient-4)" fill-rule="evenodd" xlink:href="#path-5"></use>
            </g>
        </g>
        <path d="M25.9991673,44 C27.1036393,44 28,44.8965587 28,46 C28,46.5980139 27.7382824,47.134357 27.322784,47.5007199 C27.7380096,47.8673581 28,48.403445 28,49 C28,50.1053478 27.1058545,51 25.9991673,51 L23,51 L23,44 L25.9991673,44 Z M40,43.9626667 C41.3807119,43.9626667 42,44.9626667 42,45.9626667 C42,46.9626667 41.3903379,47.9626667 40,47.9626667 L38.0011561,47.9626667 L38.0011561,50.9626667 L37,50.9626667 L37,43.9626667 L40,43.9626667 Z M30,43.9626667 L32.5,48.7126667 L35,43.9626667 L36,43.9626667 L36,50.9626667 L35,50.9626667 L35,46.4626667 L33,49.9626667 L32,49.9626667 L30,46.4626667 L30,50.9626667 L29,50.9626667 L29,43.9626667 L30,43.9626667 Z M25.9991673,48 L24,48 L24,50 L25.9991673,50 C26.5534429,50 27,49.5531898 27,49 C27,48.448794 26.5513051,48 25.9991673,48 Z M25.9991673,45 L24,45 L24,47 L25.9991673,47 C26.5534429,47 27,46.5531898 27,46 C27,45.448794 26.5513051,45 25.9991673,45 Z M40,44.9626667 L38,44.9626667 L38,46.9626667 L40,46.9626667 C40.5560877,46.9626667 41,46.5175706 41,45.9626667 C41,45.406579 40.5549039,44.9626667 40,44.9626667 Z M42.9573333,23 L42.9573333,41 L20.9573333,41 L20.9573333,23 L42.9573333,23 Z M41.876,24 L21.876,24 L22,40 L42,40 L41.876,24 Z M29.5,26 L33,33.5 L35,29.5 L41,38.9931116 L23,39.004 L29.5,26 Z" id="形状结合" fill="#FFFFFF"></path>
    </g>
</svg>