<?xml version="1.0" encoding="UTF-8"?>
<svg width="64px" height="64px" viewBox="0 0 64 64" version="1.1" xmlns="http://www.w3.org/2000/svg" xmlns:xlink="http://www.w3.org/1999/xlink">
    <title>mimetypes/64/image-dci</title>
    <defs>
        <linearGradient x1="50%" y1="0%" x2="50%" y2="100%" id="linearGradient-1">
            <stop stop-color="#28DCB1" offset="0%"></stop>
            <stop stop-color="#00AF9D" offset="100%"></stop>
        </linearGradient>
        <path d="M46,51.5 C46,53.9852814 43.9852814,56 41.5,56 L4.5,56 C2.01471863,56 3.04359188e-16,53.9852814 0,51.5 L0,4.5 C-3.04359188e-16,2.01471863 2.01471863,4.56538782e-16 4.5,0 L31.75,0 L46,14 L46,51.5 Z" id="path-2"></path>
        <filter x="-14.1%" y="-9.8%" width="128.3%" height="123.2%" filterUnits="objectBoundingBox" id="filter-3">
            <feOffset dx="0" dy="1" in="SourceAlpha" result="shadowOffsetOuter1"></feOffset>
            <feGaussianBlur stdDeviation="2" in="shadowOffsetOuter1" result="shadowBlurOuter1"></feGaussianBlur>
            <feColorMatrix values="0 0 0 0 0.262745098   0 0 0 0 0.71372549   0 0 0 0 0.607843137  0 0 0 0.5 0" type="matrix" in="shadowBlurOuter1"></feColorMatrix>
        </filter>
        <linearGradient x1="50%" y1="50%" x2="7.99354867%" y2="87.539983%" id="linearGradient-4">
            <stop stop-color="#FFFFFF" stop-opacity="0.1" offset="0%"></stop>
            <stop stop-color="#FFFFFF" stop-opacity="0.3" offset="100%"></stop>
        </linearGradient>
        <path d="M31.75,0 L46,14 L36.25,14 C33.7647186,14 31.75,11.9852814 31.75,9.5 L31.75,0 L31.75,0 Z" id="path-5"></path>
        <filter x="-14.0%" y="-7.1%" width="128.1%" height="128.6%" filterUnits="objectBoundingBox" id="filter-6">
            <feOffset dx="0" dy="1" in="SourceAlpha" result="shadowOffsetOuter1"></feOffset>
            <feGaussianBlur stdDeviation="0.5" in="shadowOffsetOuter1" result="shadowBlurOuter1"></feGaussianBlur>
            <feComposite in="shadowBlurOuter1" in2="SourceAlpha" operator="out" result="shadowBlurOuter1"></feComposite>
            <feColorMatrix values="0 0 0 0 0   0 0 0 0 0   0 0 0 0 0  0 0 0 0.05 0" type="matrix" in="shadowBlurOuter1"></feColorMatrix>
        </filter>
    </defs>
    <g id="mimetypes/64/image-dci" stroke="none" stroke-width="1" fill="none" fill-rule="evenodd">
        <g id="编组-2" transform="translate(9, 4)">
            <g id="蒙版">
                <use fill="black" fill-opacity="1" filter="url(#filter-3)" xlink:href="#path-2"></use>
                <use fill="url(#linearGradient-1)" fill-rule="evenodd" xlink:href="#path-2"></use>
            </g>
            <g id="折角">
                <use fill="black" fill-opacity="1" filter="url(#filter-6)" xlink:href="#path-5"></use>
                <use fill="url(#linearGradient-4)" fill-rule="evenodd" xlink:href="#path-5"></use>
            </g>
        </g>
        <path d="M42.9573333,23 L42.9573333,41 L20.9573333,41 L20.9573333,23 L42.9573333,23 Z M41.876,24 L21.876,24 L22,40 L42,40 L41.876,24 Z M29.5,26 L33,33.5 L35,29.5 L41,38.9931116 L23,39.004 L29.5,26 Z" id="Combined-Shape" fill="#FFFFFF"></path>
        <path d="M25,51 L26.596875,51 C28.659375,51 29.7511133,49.7533694 29.7511133,47.5127444 C29.7511133,45.2627444 28.659375,44 26.540625,44 L25,44 L25,51 Z M26,50 L26,45 L26.465625,45 C27.946875,45 28.75,45.7877444 28.75,47.5127444 C28.75,49.2283694 27.946875,50 26.465625,50 L26,50 Z M34.0660327,50 C33.0486254,50 32,49.050271 32,48.0776382 L32,46.9223618 C32,45.9489351 33.0445584,45 34.0660327,45 C34.6011219,45 35.1521784,45.1250412 35.5,45.5 L36.3655608,44.9879592 C35.7874194,44.3647109 34.9568863,44 34.0660327,44 C32.3658248,44 31,45.3059313 31,46.9223618 L31,48.0776382 C31,49.6943013 32.3709785,51 34.0660327,51 C34.9872073,51 35.839172,50.6150726 36.4167061,49.9604326 L35.5,49.5 C35.1534671,49.892798 34.62148,50 34.0660327,50 Z M39,44 L39,51 L38,51 L38,44 L39,44 Z" id="形状结合" fill="#FFFFFF"></path>
    </g>
</svg>