<?xml version="1.0" encoding="UTF-8"?>
<svg width="64px" height="64px" viewBox="0 0 64 64" version="1.1" xmlns="http://www.w3.org/2000/svg" xmlns:xlink="http://www.w3.org/1999/xlink">
    <title>mimetypes/64/text-x-python</title>
    <defs>
        <linearGradient x1="50%" y1="0%" x2="50%" y2="99.3718328%" id="linearGradient-1">
            <stop stop-color="#FFBC2A" offset="0%"></stop>
            <stop stop-color="#E77B00" offset="100%"></stop>
        </linearGradient>
        <path d="M46,51.5 C46,53.9852814 43.9852814,56 41.5,56 L4.5,56 C2.01471863,56 3.04359188e-16,53.9852814 0,51.5 L0,4.5 C-3.04359188e-16,2.01471863 2.01471863,4.56538782e-16 4.5,0 L31.75,0 L46,14 L46,51.5 Z" id="path-2"></path>
        <filter x="-14.1%" y="-9.8%" width="128.3%" height="123.2%" filterUnits="objectBoundingBox" id="filter-3">
            <feOffset dx="0" dy="1" in="SourceAlpha" result="shadowOffsetOuter1"></feOffset>
            <feGaussianBlur stdDeviation="2" in="shadowOffsetOuter1" result="shadowBlurOuter1"></feGaussianBlur>
            <feColorMatrix values="0 0 0 0 0.874509804   0 0 0 0 0.498039216   0 0 0 0 0.0588235294  0 0 0 0.5 0" type="matrix" in="shadowBlurOuter1"></feColorMatrix>
        </filter>
        <linearGradient x1="50%" y1="50%" x2="7.99354867%" y2="87.539983%" id="linearGradient-4">
            <stop stop-color="#FFFFFF" stop-opacity="0.1" offset="0%"></stop>
            <stop stop-color="#FFFFFF" stop-opacity="0.3" offset="100%"></stop>
        </linearGradient>
        <path d="M31.75,0 L46,14 L36.25,14 C33.7647186,14 31.75,11.9852814 31.75,9.5 L31.75,0 L31.75,0 Z" id="path-5"></path>
        <filter x="-14.0%" y="-7.1%" width="128.1%" height="128.6%" filterUnits="objectBoundingBox" id="filter-6">
            <feOffset dx="0" dy="1" in="SourceAlpha" result="shadowOffsetOuter1"></feOffset>
            <feGaussianBlur stdDeviation="0.5" in="shadowOffsetOuter1" result="shadowBlurOuter1"></feGaussianBlur>
            <feComposite in="shadowBlurOuter1" in2="SourceAlpha" operator="out" result="shadowBlurOuter1"></feComposite>
            <feColorMatrix values="0 0 0 0 0   0 0 0 0 0   0 0 0 0 0  0 0 0 0.05 0" type="matrix" in="shadowBlurOuter1"></feColorMatrix>
        </filter>
    </defs>
    <g id="mimetypes/64/text-x-python" stroke="none" stroke-width="1" fill="none" fill-rule="evenodd">
        <g id="编组-2" transform="translate(9, 4)">
            <g id="蒙版" opacity="0.9">
                <use fill="black" fill-opacity="1" filter="url(#filter-3)" xlink:href="#path-2"></use>
                <use fill="url(#linearGradient-1)" fill-rule="evenodd" xlink:href="#path-2"></use>
            </g>
            <g id="折角">
                <use fill="black" fill-opacity="1" filter="url(#filter-6)" xlink:href="#path-5"></use>
                <use fill="url(#linearGradient-4)" fill-rule="evenodd" xlink:href="#path-5"></use>
            </g>
        </g>
        <path d="M24,40 C21.8387324,40 20,37.7142857 20,34.5 C20,31.2857143 21.7692103,29 23.9133212,29 L27,29 L27,26.1808845 C27,24.0559406 29.2307692,22 32.5,22 C35.7692308,22 38,24.072809 38,26.1808845 L38,31.9788736 C38,33.0395685 37.0795177,34 36,34 L28.5,34 C28.5,34 26,34 26,37 L26,40 L24,40 Z M41,29 C43.1612676,29 45,31.2857143 45,34.5 C45,37.7142857 43.2307897,40 41.0866788,40 L38,40 L38,42.8191155 C38,44.9440594 35.7692308,47 32.5,47 C29.2307692,47 27,44.927191 27,42.8191155 L27,37.0211264 C27,35.9604315 27.9204823,35 29,35 L36.5,35 C36.5,35 39,35 39,32 L39,29 L41,29 Z M35.5,41 C34.6715729,41 34,41.6715729 34,42.5 C34,43.3284271 34.6715729,44 35.5,44 C36.3284271,44 37,43.3284271 37,42.5 C37,41.6715729 36.3284271,41 35.5,41 Z M29.5,25 C30.3284271,25 31,25.6715729 31,26.5 C31,27.3284271 30.3284271,28 29.5,28 C28.6715729,28 28,27.3284271 28,26.5 C28,25.6715729 28.6715729,25 29.5,25 Z" id="Combined-Shape" fill="#FFFFFF"></path>
    </g>
</svg>