<?xml version="1.0" encoding="UTF-8"?>
<svg width="64px" height="64px" viewBox="0 0 64 64" version="1.1" xmlns="http://www.w3.org/2000/svg" xmlns:xlink="http://www.w3.org/1999/xlink">
    <title>mimetypes/64/text-x-script</title>
    <defs>
        <linearGradient x1="50%" y1="0%" x2="50%" y2="99.6278505%" id="linearGradient-1">
            <stop stop-color="#EC5959" offset="0%"></stop>
            <stop stop-color="#D13F3F" offset="100%"></stop>
        </linearGradient>
        <path d="M46,51.5 C46,53.9852814 43.9852814,56 41.5,56 L4.5,56 C2.01471863,56 3.04359188e-16,53.9852814 0,51.5 L0,4.5 C-3.04359188e-16,2.01471863 2.01471863,4.56538782e-16 4.5,0 L31.75,0 L46,14 L46,51.5 Z" id="path-2"></path>
        <filter x="-14.1%" y="-9.8%" width="128.3%" height="123.2%" filterUnits="objectBoundingBox" id="filter-3">
            <feOffset dx="0" dy="1" in="SourceAlpha" result="shadowOffsetOuter1"></feOffset>
            <feGaussianBlur stdDeviation="2" in="shadowOffsetOuter1" result="shadowBlurOuter1"></feGaussianBlur>
            <feColorMatrix values="0 0 0 0 0.6622226   0 0 0 0 0   0 0 0 0 0  0 0 0 0.5 0" type="matrix" in="shadowBlurOuter1"></feColorMatrix>
        </filter>
        <linearGradient x1="50%" y1="50%" x2="7.99354867%" y2="87.539983%" id="linearGradient-4">
            <stop stop-color="#FFFFFF" stop-opacity="0.1" offset="0%"></stop>
            <stop stop-color="#FFFFFF" stop-opacity="0.3" offset="100%"></stop>
        </linearGradient>
        <path d="M31.75,0 L46,14 L36.25,14 C33.7647186,14 31.75,11.9852814 31.75,9.5 L31.75,0 L31.75,0 Z" id="path-5"></path>
        <filter x="-14.0%" y="-7.1%" width="128.1%" height="128.6%" filterUnits="objectBoundingBox" id="filter-6">
            <feOffset dx="0" dy="1" in="SourceAlpha" result="shadowOffsetOuter1"></feOffset>
            <feGaussianBlur stdDeviation="0.5" in="shadowOffsetOuter1" result="shadowBlurOuter1"></feGaussianBlur>
            <feComposite in="shadowBlurOuter1" in2="SourceAlpha" operator="out" result="shadowBlurOuter1"></feComposite>
            <feColorMatrix values="0 0 0 0 0   0 0 0 0 0   0 0 0 0 0  0 0 0 0.05 0" type="matrix" in="shadowBlurOuter1"></feColorMatrix>
        </filter>
    </defs>
    <g id="mimetypes/64/text-x-script" stroke="none" stroke-width="1" fill="none" fill-rule="evenodd">
        <g id="编组-2" transform="translate(9, 4)">
            <g id="蒙版">
                <use fill="black" fill-opacity="1" filter="url(#filter-3)" xlink:href="#path-2"></use>
                <use fill="url(#linearGradient-1)" fill-rule="evenodd" xlink:href="#path-2"></use>
            </g>
            <g id="折角">
                <use fill="black" fill-opacity="1" filter="url(#filter-6)" xlink:href="#path-5"></use>
                <use fill="url(#linearGradient-4)" fill-rule="evenodd" xlink:href="#path-5"></use>
            </g>
        </g>
        <path d="M18.078495,28.5245972 C17.6318424,28.8494355 17.5330923,29.4748524 17.8579306,29.921505 C18.1827688,30.3681576 18.8081858,30.4669077 19.2548384,30.1420694 L26.5881717,24.8087361 C27.1372761,24.4093874 27.1372761,23.5906126 26.5881717,23.1912639 L19.2548384,17.8579306 C18.8081858,17.5330923 18.1827688,17.6318424 17.8579306,18.078495 C17.5330923,18.5251476 17.6318424,19.1505645 18.078495,19.4754028 C20.8459679,21.4881103 22.9215726,22.997641 24.3053091,24.0039948 C24.3053091,24.0039948 22.2297044,25.5108623 18.078495,28.5245972 Z M35.3335424,32.9990244 C35.8858271,32.9989089 36.3334488,32.5511001 36.3333333,31.9988153 C36.3332179,31.4465306 35.885409,30.998909 35.3331243,30.9990244 L25.9997909,31.0009756 C25.4475062,31.0010911 24.9998846,31.4488999 25,32.0011847 C25.0001155,32.5534694 25.4479243,33.001091 26.0002091,33.0009756 L35.3335424,32.9990244 Z" id="Combined-Shape" fill="#FFFFFF"></path>
    </g>
</svg>