<?xml version="1.0" encoding="UTF-8"?>
<svg width="64px" height="64px" viewBox="0 0 64 64" version="1.1" xmlns="http://www.w3.org/2000/svg" xmlns:xlink="http://www.w3.org/1999/xlink">
    <title>mimetypes/64/text-x-c</title>
    <defs>
        <linearGradient x1="50%" y1="0%" x2="50%" y2="99.2029139%" id="linearGradient-1">
            <stop stop-color="#619FFF" offset="0%"></stop>
            <stop stop-color="#0093E4" offset="100%"></stop>
        </linearGradient>
        <path d="M46,51.5 C46,53.9852814 43.9852814,56 41.5,56 L4.5,56 C2.01471863,56 3.04359188e-16,53.9852814 0,51.5 L0,4.5 C-3.04359188e-16,2.01471863 2.01471863,4.56538782e-16 4.5,0 L31.75,0 L46,14 L46,51.5 Z" id="path-2"></path>
        <filter x="-14.1%" y="-9.8%" width="128.3%" height="123.2%" filterUnits="objectBoundingBox" id="filter-3">
            <feOffset dx="0" dy="1" in="SourceAlpha" result="shadowOffsetOuter1"></feOffset>
            <feGaussianBlur stdDeviation="2" in="shadowOffsetOuter1" result="shadowBlurOuter1"></feGaussianBlur>
            <feColorMatrix values="0 0 0 0 0.0156862745   0 0 0 0 0.580392157   0 0 0 0 0.898039216  0 0 0 0.5 0" type="matrix" in="shadowBlurOuter1"></feColorMatrix>
        </filter>
        <linearGradient x1="50%" y1="50%" x2="7.99354867%" y2="87.539983%" id="linearGradient-4">
            <stop stop-color="#FFFFFF" stop-opacity="0.1" offset="0%"></stop>
            <stop stop-color="#FFFFFF" stop-opacity="0.3" offset="100%"></stop>
        </linearGradient>
        <path d="M31.75,0 L46,14 L36.25,14 C33.7647186,14 31.75,11.9852814 31.75,9.5 L31.75,0 L31.75,0 Z" id="path-5"></path>
        <filter x="-14.0%" y="-7.1%" width="128.1%" height="128.6%" filterUnits="objectBoundingBox" id="filter-6">
            <feOffset dx="0" dy="1" in="SourceAlpha" result="shadowOffsetOuter1"></feOffset>
            <feGaussianBlur stdDeviation="0.5" in="shadowOffsetOuter1" result="shadowBlurOuter1"></feGaussianBlur>
            <feComposite in="shadowBlurOuter1" in2="SourceAlpha" operator="out" result="shadowBlurOuter1"></feComposite>
            <feColorMatrix values="0 0 0 0 0   0 0 0 0 0   0 0 0 0 0  0 0 0 0.05 0" type="matrix" in="shadowBlurOuter1"></feColorMatrix>
        </filter>
    </defs>
    <g id="mimetypes/64/text-x-c" stroke="none" stroke-width="1" fill="none" fill-rule="evenodd">
        <g id="编组-2" transform="translate(9, 4)">
            <g id="蒙版">
                <use fill="black" fill-opacity="1" filter="url(#filter-3)" xlink:href="#path-2"></use>
                <use fill="url(#linearGradient-1)" fill-rule="evenodd" xlink:href="#path-2"></use>
            </g>
            <g id="折角">
                <use fill="black" fill-opacity="1" filter="url(#filter-6)" xlink:href="#path-5"></use>
                <use fill="url(#linearGradient-4)" fill-rule="evenodd" xlink:href="#path-5"></use>
            </g>
        </g>
        <path d="M31.7866667,25.6746667 C29.3226667,25.6746667 27.3706667,26.5386667 25.9626667,28.2986667 C24.6506667,29.8986667 24.0106667,31.9466667 24.0106667,34.4746667 C24.0106667,37.0026667 24.6506667,39.0506667 25.9626667,40.6186667 C27.3386667,42.2826667 29.2586667,43.1146667 31.7546667,43.1146667 C33.8026667,43.1146667 35.4346667,42.5706667 36.6826667,41.5146667 C37.9626667,40.4266667 38.7626667,38.7946667 39.1466667,36.6826667 L36.5866667,36.6826667 C36.2026667,39.5306667 34.5706667,40.9706667 31.7546667,40.9706667 C30.0906667,40.9706667 28.8106667,40.3626667 27.9466667,39.2106667 C27.0506667,38.0586667 26.6346667,36.4586667 26.6346667,34.4426667 C26.6346667,32.4266667 27.0826667,30.8266667 27.9786667,29.6426667 C28.9066667,28.4266667 30.1866667,27.8186667 31.7866667,27.8186667 C33.0986667,27.8186667 34.1546667,28.1066667 34.9866667,28.7466667 C35.7866667,29.3866667 36.2986667,30.3466667 36.5226667,31.6266667 L39.0506667,31.6266667 C38.7626667,29.6106667 37.9946667,28.1066667 36.7146667,27.1146667 C35.4666667,26.1546667 33.8346667,25.6746667 31.7866667,25.6746667 L31.7866667,25.6746667 Z" id="c" fill="#FFFFFF"></path>
    </g>
</svg>