<svg xmlns="http://www.w3.org/2000/svg" xmlns:xlink="http://www.w3.org/1999/xlink" width="64" height="64" viewBox="0 0 64 64">
  <defs>
    <linearGradient id="text-x-c++hdr-c" x1="50%" x2="50%" y1="0%" y2="99.628%">
      <stop offset="0%" stop-color="#FF4BB4"/>
      <stop offset="98.915%" stop-color="#F6237B"/>
    </linearGradient>
    <path id="text-x-c++hdr-b" d="M29,0 L42,13 L42,47.5 C42,49.9852814 39.9852814,52 37.5,52 L4.5,52 C2.01471863,52 3.04359188e-16,49.9852814 0,47.5 L0,4.5 C-3.04359188e-16,2.01471863 2.01471863,4.56538782e-16 4.5,0 L29,0 Z"/>
    <filter id="text-x-c++hdr-a" width="131%" height="125%" x="-15.5%" y="-10.6%" filterUnits="objectBoundingBox">
      <feOffset dy="1" in="SourceAlpha" result="shadowOffsetOuter1"/>
      <feGaussianBlur in="shadowOffsetOuter1" result="shadowBlurOuter1" stdDeviation="2"/>
      <feColorMatrix in="shadowBlurOuter1" values="0 0 0 0 0.920884284   0 0 0 0 0.0193547135   0 0 0 0 0.46292854  0 0 0 0.5 0"/>
    </filter>
    <linearGradient id="text-x-c++hdr-f" x1="50%" x2="10.489%" y1="50%" y2="91.194%">
      <stop offset="0%" stop-color="#FFF" stop-opacity=".1"/>
      <stop offset="100%" stop-color="#FFF" stop-opacity=".3"/>
    </linearGradient>
    <path id="text-x-c++hdr-e" d="M29,0 L42,13 L33.5,13 C31.0147186,13 29,10.9852814 29,8.5 L29,0 Z"/>
    <filter id="text-x-c++hdr-d" width="153.8%" height="153.8%" x="-26.9%" y="-19.2%" filterUnits="objectBoundingBox">
      <feOffset dy="1" in="SourceAlpha" result="shadowOffsetOuter1"/>
      <feGaussianBlur in="shadowOffsetOuter1" result="shadowBlurOuter1" stdDeviation="1"/>
      <feComposite in="shadowBlurOuter1" in2="SourceAlpha" operator="out" result="shadowBlurOuter1"/>
      <feColorMatrix in="shadowBlurOuter1" values="0 0 0 0 0   0 0 0 0 0   0 0 0 0 0  0 0 0 0.05 0"/>
    </filter>
  </defs>
  <g fill="none" fill-rule="evenodd">
    <g transform="translate(11 7)">
      <use fill="#000" filter="url(#text-x-c++hdr-a)" xlink:href="#text-x-c++hdr-b"/>
      <use fill="url(#text-x-c++hdr-c)" xlink:href="#text-x-c++hdr-b"/>
      <use fill="#000" filter="url(#text-x-c++hdr-d)" xlink:href="#text-x-c++hdr-e"/>
      <use fill="url(#text-x-c++hdr-f)" xlink:href="#text-x-c++hdr-e"/>
    </g>
    <path fill="#FFF" d="M25,35 L25,43 L23,43 L23,25 L25,25 L25,33 L28.3333711,33 C29.8061096,33 31,34.1864007 31,35.6666802 L31,43 L29,43 L29,35.6683155 C29,35.2992151 28.6993499,35 28.3394814,35 L25,35 Z M20,41 L20,43 L18,43 L18,41 L20,41 Z M31,28 L34,28 L34,25 L35,25 L35,28 L38,28 L38,29 L35,29 L35,32 L34,32 L34,29 L31,29 L31,28 Z M39,28 L42,28 L42,25 L43,25 L43,28 L46,28 L46,29 L43,29 L43,32 L42,32 L42,29 L39,29 L39,28 Z"/>
  </g>
</svg>
