<svg xmlns="http://www.w3.org/2000/svg" xmlns:xlink="http://www.w3.org/1999/xlink" width="48" height="48" viewBox="0 0 48 48">
  <defs>
    <filter id="deepin-log-viewer-a" width="145.2%" height="153.3%" x="-15.5%" y="-18.2%" filterUnits="objectBoundingBox">
      <feOffset dy="1" in="SourceAlpha" result="shadowOffsetOuter1"/>
      <feGaussianBlur in="shadowOffsetOuter1" result="shadowBlurOuter1" stdDeviation="1"/>
      <feColorMatrix in="shadowBlurOuter1" result="shadowMatrixOuter1" values="0 0 0 0 0   0 0 0 0 0   0 0 0 0 0  0 0 0 0.2 0"/>
      <feMerge>
        <feMergeNode in="shadowMatrixOuter1"/>
        <feMergeNode in="SourceGraphic"/>
      </feMerge>
    </filter>
    <linearGradient id="deepin-log-viewer-b" x1="39.599%" x2="75.302%" y1="24.49%" y2="75.51%">
      <stop offset="0%" stop-color="#3C3C3C"/>
      <stop offset="100%" stop-color="#2E2E2E"/>
    </linearGradient>
    <path id="deepin-log-viewer-c" d="M1.5,0 L38.7382322,0 C39.5666593,-1.52179594e-16 40.2382322,0.671572875 40.2382322,1.5 L40.2382322,27.2415944 C40.2382322,28.0700215 39.5666593,28.7415944 38.7382322,28.7415944 L1.5,28.7415944 C0.671572875,28.7415944 1.01453063e-16,28.0700215 0,27.2415944 L0,1.5 C-1.01453063e-16,0.671572875 0.671572875,1.52179594e-16 1.5,0 Z"/>
    <filter id="deepin-log-viewer-d" width="102.5%" height="103.5%" x="-1.2%" y="-1.7%" filterUnits="objectBoundingBox">
      <feOffset dy="-1" in="SourceAlpha" result="shadowOffsetInner1"/>
      <feComposite in="shadowOffsetInner1" in2="SourceAlpha" k2="-1" k3="1" operator="arithmetic" result="shadowInnerInner1"/>
      <feColorMatrix in="shadowInnerInner1" values="0 0 0 0 0   0 0 0 0 0   0 0 0 0 0  0 0 0 0.12 0"/>
    </filter>
    <polygon id="deepin-log-viewer-e" points="0 0 36.744 0 36.744 25.721 0 25.721"/>
    <rect id="deepin-log-viewer-g" width="17.245" height="26.825" x="0" y="0"/>
    <linearGradient id="deepin-log-viewer-i" x1="0%" x2="100%" y1="50%" y2="50%">
      <stop offset="0%" stop-color="#A09AD3"/>
      <stop offset="49.618%" stop-color="#988DD9"/>
      <stop offset="100%" stop-color="#1654D2"/>
    </linearGradient>
    <rect id="deepin-log-viewer-j" width="16.287" height="4.79" x="0" y="0" rx=".094"/>
    <path id="deepin-log-viewer-l" d="M7.99449725,13.3864938 C9.13540825,13.3864938 10.0602993,14.3113849 10.0602993,15.4522959 L10.0602993,16.4563906 C10.0602993,17.5973016 9.13540825,18.5221927 7.99449725,18.5221927 C6.85358625,18.5221927 5.92869515,17.5973016 5.92869515,16.4563906 L5.92869515,15.4522959 C5.92869515,14.3113849 6.85358625,13.3864938 7.99449725,13.3864938 Z M12.8951336,13.1339185 C13.4129006,13.1339185 13.8326336,13.5536515 13.8326336,14.0714185 L13.8326336,17.3321173 C13.8326336,17.8498843 13.4129006,18.2696173 12.8951336,18.2696173 L12.7043315,18.2696173 C12.1865646,18.2696173 11.7668315,17.8498843 11.7668315,17.3321173 L11.7668315,14.0714185 C11.7668315,13.5536515 12.1865646,13.1339185 12.7043315,13.1339185 L12.8951336,13.1339185 Z M16.7572854,13.1339185 C17.2750523,13.1339185 17.6947854,13.5536515 17.6947854,14.0714185 L17.6947854,17.3321173 C17.6947854,17.8498843 17.2750523,18.2696173 16.7572854,18.2696173 L16.5664833,18.2696173 C16.0487163,18.2696173 15.6289833,17.8498843 15.6289833,17.3321173 L15.6289833,14.0714185 C15.6289833,13.5536515 16.0487163,13.1339185 16.5664833,13.1339185 L16.7572854,13.1339185 Z M2.0665434,13.1339185 C3.2074544,13.1339185 4.1323455,14.0588096 4.1323455,15.1997206 L4.1323455,16.2038152 C4.1323455,17.3447262 3.2074544,18.2696173 2.0665434,18.2696173 C0.925632406,18.2696173 0.000741302924,17.3447262 0.000741302924,16.2038152 L0.000741302924,15.1997206 C0.000741302924,14.0588096 0.925632406,13.1339185 2.0665434,13.1339185 Z M8.03073939,15.1434434 C7.70320514,15.1434434 7.43204841,15.3848243 7.38545408,15.6994012 L7.37838083,15.795802 L7.37838083,16.1128845 C7.37838083,16.4731722 7.67045171,16.7652431 8.03073939,16.7652431 C8.35827365,16.7652431 8.62943038,16.5238622 8.67602471,16.2092853 L8.68309795,16.1128845 L8.68309795,15.795802 C8.68309795,15.4355143 8.39102707,15.1434434 8.03073939,15.1434434 Z M2.10278554,14.8908681 C1.77525129,14.8908681 1.50409456,15.132249 1.45750023,15.4468259 L1.45042699,15.5432266 L1.45042699,15.8603092 C1.45042699,16.2205968 1.74249786,16.5126677 2.10278554,16.5126677 C2.4303198,16.5126677 2.70147653,16.2712868 2.74807086,15.9567099 L2.7551441,15.8603092 L2.7551441,15.5432266 C2.7551441,15.1829389 2.46307323,14.8908681 2.10278554,14.8908681 Z M0.000741302926,6.7353428 C1.1416523,6.7353428 2.0665434,7.6602339 2.0665434,8.8011449 L2.0665434,9.80523958 C2.0665434,10.9461506 1.1416523,11.8710417 0.000741302926,11.8710417 L1.20569874e-12,10.1130613 C0.0122407548,10.1137454 0.0245716205,10.1140921 0.036983445,10.1140921 C0.364517702,10.1140921 0.635674432,9.87271117 0.682268761,9.55813427 L0.689342002,9.4617335 L0.689342002,9.14465097 C0.689342002,8.78436329 0.397271128,8.49229241 0.036983445,8.49229241 L9.09494702e-13,8.495 L0.000741302926,6.7353428 L0.000741302926,6.7353428 Z M4.99119515,6.65115101 C5.5089621,6.65115101 5.92869515,7.07088406 5.92869515,7.58865101 L5.92869515,10.8493499 C5.92869515,11.3671168 5.5089621,11.7868499 4.99119515,11.7868499 L4.80039305,11.7868499 C4.2826261,11.7868499 3.86289305,11.3671168 3.86289305,10.8493499 L3.86289305,7.58865101 C3.86289305,7.07088406 4.2826261,6.65115101 4.80039305,6.65115101 L4.99119515,6.65115101 Z M15.6289833,6.65115101 C16.7698943,6.65115101 17.6947854,7.57604212 17.6947854,8.71695311 L17.6947854,9.7210478 C17.6947854,10.8619588 16.7698943,11.7868499 15.6289833,11.7868499 C14.4880723,11.7868499 13.5631812,10.8619588 13.5631812,9.7210478 L13.5631812,8.71695311 C13.5631812,7.57604212 14.4880723,6.65115101 15.6289833,6.65115101 Z M9.70102942,6.65115101 C10.8419404,6.65115101 11.7668315,7.57604212 11.7668315,8.71695311 L11.7668315,9.7210478 C11.7668315,10.8619588 10.8419404,11.7868499 9.70102942,11.7868499 C8.56011842,11.7868499 7.63522732,10.8619588 7.63522732,9.7210478 L7.63522732,8.71695311 C7.63522732,7.57604212 8.56011842,6.65115101 9.70102942,6.65115101 Z M15.6652254,8.40810063 C15.3376912,8.40810063 15.0665344,8.64948152 15.0199401,8.96405842 L15.0128669,9.06045919 L15.0128669,9.37754172 C15.0128669,9.7378294 15.3049377,10.0299003 15.6652254,10.0299003 C15.9927597,10.0299003 16.2639164,9.78851939 16.3105107,9.47394249 L16.317584,9.37754172 L16.317584,9.06045919 C16.317584,8.7001715 16.0255131,8.40810063 15.6652254,8.40810063 Z M9.73727156,8.40810063 C9.4097373,8.40810063 9.13858057,8.64948152 9.09198624,8.96405842 L9.084913,9.06045919 L9.084913,9.37754172 C9.084913,9.7378294 9.37698388,10.0299003 9.73727156,10.0299003 C10.0648058,10.0299003 10.3359625,9.78851939 10.3825569,9.47394249 L10.3896301,9.37754172 L10.3896301,9.06045919 C10.3896301,8.7001715 10.0975592,8.40810063 9.73727156,8.40810063 Z M1.21886088,-1.8189894e-12 C1.73662784,-1.8189894e-12 2.15636088,0.419733047 2.15636088,0.9375 L2.15636088,4.19819888 C2.15636088,4.71596584 1.73662784,5.13569888 1.21886088,5.13569888 L1.02805879,5.13569888 C0.510291833,5.13569888 0.0905587855,4.71596584 0.0905587855,4.19819888 L0.0905587855,0.9375 C0.0905587855,0.419733047 0.510291833,-1.8189894e-12 1.02805879,-1.8189894e-12 L1.21886088,-1.8189894e-12 Z M10.8293315,-1.8189894e-12 C11.3470985,-1.8189894e-12 11.7668315,0.419733047 11.7668315,0.9375 L11.7668315,4.19819888 C11.7668315,4.71596584 11.3470985,5.13569888 10.8293315,5.13569888 L10.6385294,5.13569888 C10.1207625,5.13569888 9.70102942,4.71596584 9.70102942,4.19819888 L9.70102942,0.9375 C9.70102942,0.419733047 10.1207625,-1.8189894e-12 10.6385294,-1.8189894e-12 L10.8293315,-1.8189894e-12 Z M5.92869515,-1.8189894e-12 C7.06960615,-1.8189894e-12 7.99449725,0.924891103 7.99449725,2.0658021 L7.99449725,3.06989678 C7.99449725,4.21080778 7.06960615,5.13569888 5.92869515,5.13569888 C4.78778416,5.13569888 3.86289305,4.21080778 3.86289305,3.06989678 L3.86289305,2.0658021 C3.86289305,0.924891103 4.78778416,-1.8189894e-12 5.92869515,-1.8189894e-12 Z M15.6289833,-1.8189894e-12 C16.7698943,-1.8189894e-12 17.6947854,0.924891103 17.6947854,2.0658021 L17.6947854,3.06989678 C17.6947854,4.21080778 16.7698943,5.13569888 15.6289833,5.13569888 C14.4880723,5.13569888 13.5631812,4.21080778 13.5631812,3.06989678 L13.5631812,2.0658021 C13.5631812,0.924891103 14.4880723,-1.8189894e-12 15.6289833,-1.8189894e-12 Z M5.96493729,1.75694962 C5.63740304,1.75694962 5.36624631,1.99833051 5.31965198,2.31290741 L5.31257874,2.40930818 L5.31257874,2.72639071 C5.31257874,3.08667839 5.60464961,3.37874927 5.96493729,3.37874927 C6.29247155,3.37874927 6.56362828,3.13736838 6.61022261,2.82279147 L6.61729585,2.72639071 L6.61729585,2.40930818 C6.61729585,2.04902049 6.32522498,1.75694962 5.96493729,1.75694962 Z M15.6652254,1.75694962 C15.3376912,1.75694962 15.0665344,1.99833051 15.0199401,2.31290741 L15.0128669,2.40930818 L15.0128669,2.72639071 C15.0128669,3.08667839 15.3049377,3.37874927 15.6652254,3.37874927 C15.9927597,3.37874927 16.2639164,3.13736838 16.3105107,2.82279147 L16.317584,2.72639071 L16.317584,2.40930818 C16.317584,2.04902049 16.0255131,1.75694962 15.6652254,1.75694962 Z"/>
    <filter id="deepin-log-viewer-m" width="181%" height="181%" x="-40.5%" y="-40.5%" filterUnits="objectBoundingBox">
      <feOffset dy="-1" in="SourceAlpha" result="shadowOffsetOuter1"/>
      <feGaussianBlur in="shadowOffsetOuter1" result="shadowBlurOuter1" stdDeviation="1.5"/>
      <feColorMatrix in="shadowBlurOuter1" result="shadowMatrixOuter1" values="0 0 0 0 0   0 0 0 0 0   0 0 0 0 0  0 0 0 0.15586757 0"/>
      <feMerge>
        <feMergeNode in="shadowMatrixOuter1"/>
        <feMergeNode in="SourceGraphic"/>
      </feMerge>
    </filter>
    <linearGradient id="deepin-log-viewer-n" x1="31.195%" x2="74.285%" y1="4.862%" y2="92.47%">
      <stop offset="0%" stop-color="#4F4F4F"/>
      <stop offset="100%" stop-color="#3F3F3F"/>
    </linearGradient>
    <path id="deepin-log-viewer-o" d="M6.03022587,0.771868991 C4.82739217,1.28644996 3.77894708,1.99077486 2.88486097,2.88486097 C1.99077437,3.77894708 1.28645095,4.82739217 0.771868991,6.03022587 C0.257287029,7.23306205 0,8.51628128 0,9.87992308 C0,11.2435649 0.257287029,12.5267841 0.771868991,13.7296203 C1.28645095,14.932454 1.99077437,15.9808991 2.88486097,16.8749852 C3.77894708,17.7690718 4.82739217,18.4733952 6.03022587,18.9879772 C7.23306205,19.5025591 8.51628128,19.7598462 9.87992308,19.7598462 C11.2435649,19.7598462 12.5267841,19.5025591 13.7296203,18.9879772 C14.932454,18.4733952 15.9808991,17.7690718 16.8749852,16.8749852 C17.7690713,15.9808991 18.4733962,14.932454 18.9879772,13.7296203 C19.5025581,12.5267841 19.7598462,11.2435649 19.7598462,9.87992308 C19.7598462,8.51628128 19.5025581,7.23306205 18.9879772,6.03022587 C18.4733962,4.82739217 17.7690713,3.77894708 16.8749852,2.88486097 C15.9808991,1.99077486 14.932454,1.28644996 13.7296203,0.771868991 C12.5267841,0.257288017 11.2435649,0 9.87992308,0 C8.51628128,0 7.23306205,0.257288017 6.03022587,0.771868991 Z"/>
    <filter id="deepin-log-viewer-p" width="105.1%" height="105.1%" x="-2.5%" y="-2.5%" filterUnits="objectBoundingBox">
      <feOffset dy="1" in="SourceAlpha" result="shadowOffsetInner1"/>
      <feComposite in="shadowOffsetInner1" in2="SourceAlpha" k2="-1" k3="1" operator="arithmetic" result="shadowInnerInner1"/>
      <feColorMatrix in="shadowInnerInner1" values="0 0 0 0 1   0 0 0 0 1   0 0 0 0 1  0 0 0 0.11251639 0"/>
    </filter>
    <path id="deepin-log-viewer-q" d="M9.92503688,2.07523498 C8.84159545,2.07523498 7.82205141,2.2796556 6.86637335,2.68850076 C5.91069725,3.09734592 5.07768609,3.65694652 4.3673163,4.3673163 C3.65694613,5.07768609 3.0973467,5.91069725 2.68850076,6.86637335 C2.27965482,7.82205141 2.07523498,8.84159545 2.07523498,9.92503688 C2.07523498,11.0084783 2.27965482,12.0280224 2.68850076,12.9837004 C3.0973467,13.9393765 3.65694613,14.7723877 4.3673163,15.4827575 C5.07768609,16.1931276 5.91069725,16.7527271 6.86637335,17.161573 C7.82205141,17.570419 8.84159545,17.7748388 9.92503688,17.7748388 C11.0084783,17.7748388 12.0280224,17.570419 12.9837004,17.161573 C13.9393765,16.7527271 14.7723877,16.1931276 15.4827575,15.4827575 C16.1931273,14.7723877 16.7527279,13.9393765 17.161573,12.9837004 C17.5704182,12.0280224 17.7748388,11.0084783 17.7748388,9.92503688 C17.7748388,8.84159545 17.5704182,7.82205141 17.161573,6.86637335 C16.7527279,5.91069725 16.1931273,5.07768609 15.4827575,4.3673163 C14.7723877,3.65694652 13.9393765,3.09734592 12.9837004,2.68850076 C12.0280224,2.2796556 11.0084783,2.07523498 9.92503688,2.07523498 L9.92503688,2.07523498 Z"/>
    <filter id="deepin-log-viewer-r" width="106.4%" height="106.4%" x="-3.2%" y="-3.2%" filterUnits="objectBoundingBox">
      <feOffset dy="1" in="SourceAlpha" result="shadowOffsetInner1"/>
      <feComposite in="shadowOffsetInner1" in2="SourceAlpha" k2="-1" k3="1" operator="arithmetic" result="shadowInnerInner1"/>
      <feColorMatrix in="shadowInnerInner1" values="0 0 0 0 0   0 0 0 0 0   0 0 0 0 0  0 0 0 0.08 0"/>
    </filter>
    <path id="deepin-log-viewer-t" d="M7.16167987,7.55519373 L9.92224661,7.55519373 C10.3234621,7.55519373 10.6487115,7.88044316 10.6487115,8.28165866 C10.6487115,8.68287416 10.3234621,9.00812359 9.92224661,9.00812359 L7.16167987,9.00812359 L7.16167987,9.00812359 L7.16167987,7.55519373 Z"/>
    <filter id="deepin-log-viewer-s" width="128.7%" height="237.7%" x="-14.3%" y="-34.4%" filterUnits="objectBoundingBox">
      <feOffset dy="1" in="SourceAlpha" result="shadowOffsetOuter1"/>
      <feColorMatrix in="shadowOffsetOuter1" values="0 0 0 0 0   0 0 0 0 0   0 0 0 0 0  0 0 0 0.0957987325 0"/>
    </filter>
    <path id="deepin-log-viewer-v" d="M9.0227608,9.56412645 L13.4890274,9.56412645 C13.7630997,9.56412645 13.9852792,9.78630597 13.9852792,10.0603783 C13.9852792,10.3344506 13.7630997,10.5566301 13.4890274,10.5566301 L9.25037859,10.5566301 L9.25037859,10.5566301 L9.0227608,9.56412645 Z"/>
    <filter id="deepin-log-viewer-u" width="120.2%" height="301.5%" x="-10.1%" y="-50.4%" filterUnits="objectBoundingBox">
      <feOffset dy="1" in="SourceAlpha" result="shadowOffsetOuter1"/>
      <feColorMatrix in="shadowOffsetOuter1" values="0 0 0 0 0   0 0 0 0 0   0 0 0 0 0  0 0 0 0.08 0"/>
    </filter>
  </defs>
  <g fill="none" fill-rule="evenodd" filter="url(#deepin-log-viewer-a)" transform="rotate(-5 120.166 -18.176)">
    <use fill="url(#deepin-log-viewer-b)" xlink:href="#deepin-log-viewer-c"/>
    <use fill="#000" filter="url(#deepin-log-viewer-d)" xlink:href="#deepin-log-viewer-c"/>
    <g transform="translate(1.747 1.51)">
      <mask id="deepin-log-viewer-f" fill="#fff">
        <use xlink:href="#deepin-log-viewer-e"/>
      </mask>
      <use fill="#695CC6" xlink:href="#deepin-log-viewer-e"/>
      <g mask="url(#deepin-log-viewer-f)">
        <g transform="translate(.169 1.364)">
          <mask id="deepin-log-viewer-h" fill="#fff">
            <use xlink:href="#deepin-log-viewer-g"/>
          </mask>
          <g mask="url(#deepin-log-viewer-h)">
            <g transform="translate(.958 20.12)">
              <rect width="36.406" height="3.558" fill="url(#deepin-log-viewer-i)"/>
              <rect width="1.916" height="1.916" x="4.79" y=".958" fill="#00C98F" rx=".469"/>
              <rect width="1.916" height="1.916" x="13.413" y=".958" fill="#75FFAC" rx=".469"/>
              <rect width="1.916" height="1.916" x="7.664" y=".958" fill="#FF7D52" rx=".469"/>
              <rect width="1.916" height="1.916" x="16.287" y=".958" fill="#FFB656" rx=".469"/>
              <rect width="1.916" height="1.916" x="22.035" y=".958" fill="#FF796E" rx=".469"/>
              <rect width="1.916" height="1.916" x="29.7" y=".958" fill="#000" fill-opacity=".3" rx=".469"/>
              <rect width="1.916" height="1.916" x="26.825" y=".958" fill="#000" fill-opacity=".3" rx=".469"/>
              <rect width="1.916" height="1.916" x="32.574" y=".958" fill="#000" fill-opacity=".3" rx=".469"/>
              <circle cx="2.874" cy="1.916" r="1" fill="#326CFF"/>
              <circle cx="20.119" cy="1.916" r="1" fill="#482AC5"/>
            </g>
          </g>
        </g>
      </g>
    </g>
    <g opacity=".3" transform="translate(19.161 22.993)">
      <mask id="deepin-log-viewer-k" fill="#fff">
        <use xlink:href="#deepin-log-viewer-j"/>
      </mask>
      <g fill="#FFF" fill-rule="nonzero" mask="url(#deepin-log-viewer-k)" opacity=".797">
        <path d="M21.8686969,5.85975712e-13 C22.4897845,5.85975712e-13 22.9932755,0.500994871 22.9932755,1.12906306 L22.9932755,2.70314953 C22.9932755,3.32671384 22.4916446,3.83221259 21.8686969,3.83221259 L1.12457861,3.83221259 C0.503490993,3.83221259 -1.20792265e-13,3.33121772 -1.20792265e-13,2.70314953 L-1.20792265e-13,1.12906306 C-1.20792265e-13,0.505498751 0.5016309,5.85975712e-13 1.12457861,5.85975712e-13 L21.8686969,5.85975712e-13 Z M21.8686969,1 L1.12457861,1 C1.06948221,1 1.02280974,1.03583631 1.00634461,1.08758207 L1,1.12906306 L1,2.70314953 C1,2.7627503 1.03487714,2.8095902 1.08471053,2.82594212 L1.12457861,2.83221259 L21.8686969,2.83221259 C21.9237933,2.83221259 21.9704658,2.79637628 21.9869309,2.74463052 L21.9932755,2.70314953 L21.9932755,1.12906306 C21.9932755,1.06946229 21.9583984,1.02262239 21.908565,1.00627047 L21.8686969,1 Z" transform="translate(-1.9 -.268)"/>
      </g>
    </g>
    <use fill="#FFF" fill-opacity=".297" opacity=".546" transform="translate(19.16 3.323)" xlink:href="#deepin-log-viewer-l"/>
    <path fill="#FFF" fill-opacity=".297" d="M11.4966378,3.83221259 L11.4966378,21.9378728 L3.83221259,21.9378728 L3.83221259,3.83221259 L11.4966378,3.83221259 Z M18.2030098,7.45334463 L18.2030098,21.9378728 L12.4546909,21.9378728 L12.4546909,7.45334463 L18.2030098,7.45334463 Z M18.2928273,3.83221259 L18.2928273,5.64277861 L12.5445084,5.64277861 L12.5445084,3.83221259 L18.2928273,3.83221259 Z"/>
    <g filter="url(#deepin-log-viewer-m)" transform="translate(22.252 15.88)">
      <use fill="url(#deepin-log-viewer-n)" xlink:href="#deepin-log-viewer-o"/>
      <use fill="#000" filter="url(#deepin-log-viewer-p)" xlink:href="#deepin-log-viewer-o"/>
      <use fill="#FFF" xlink:href="#deepin-log-viewer-q"/>
      <use fill="#000" filter="url(#deepin-log-viewer-r)" xlink:href="#deepin-log-viewer-q"/>
      <path fill="#2F2F2F" d="M10.239029,16.2048784 L10.239029,17.7748388 L9.65756215,17.7748388 L9.65756215,16.2048784 L10.239029,16.2048784 Z M10.239029,2.07523498 L10.239029,3.64519536 L9.65756215,3.64519536 L9.65756215,2.07523498 L10.239029,2.07523498 Z"/>
      <g transform="rotate(-113 8.905 8.282)">
        <use fill="#000" filter="url(#deepin-log-viewer-s)" xlink:href="#deepin-log-viewer-t"/>
        <use fill="#7F7F7F" xlink:href="#deepin-log-viewer-t"/>
      </g>
      <use fill="#000" filter="url(#deepin-log-viewer-u)" xlink:href="#deepin-log-viewer-v"/>
      <use fill="#FD6C6C" xlink:href="#deepin-log-viewer-v"/>
      <circle cx="9.609" cy="9.79" r="1" fill="#4D4D4D"/>
    </g>
  </g>
</svg>
