<svg xmlns="http://www.w3.org/2000/svg" xmlns:xlink="http://www.w3.org/1999/xlink" width="48" height="48" viewBox="0 0 48 48">
  <defs>
    <filter id="deepin-camera-a" width="132.5%" height="133.3%" x="-16.2%" y="-16.7%" filterUnits="objectBoundingBox">
      <feOffset dy="1" in="SourceAlpha" result="shadowOffsetOuter1"/>
      <feGaussianBlur in="shadowOffsetOuter1" result="shadowBlurOuter1" stdDeviation="1"/>
      <feColorMatrix in="shadowBlurOuter1" result="shadowMatrixOuter1" values="0 0 0 0 0   0 0 0 0 0   0 0 0 0 0  0 0 0 0.2 0"/>
      <feMerge>
        <feMergeNode in="shadowMatrixOuter1"/>
        <feMergeNode in="SourceGraphic"/>
      </feMerge>
    </filter>
    <path id="deepin-camera-b" d="M40,1.125 L40,37.875 C40,38.4963203 39.4963203,39 38.875,39 L1.125,39 C0.503679656,39 7.6089797e-17,38.4963203 0,37.875 L0,1.125 C-7.6089797e-17,0.503679656 0.503679656,1.14134695e-16 1.125,0 L38.875,0 C39.4963203,-1.14134695e-16 40,0.503679656 40,1.125 Z"/>
    <filter id="deepin-camera-c" width="102.5%" height="102.6%" x="-1.2%" y="-1.3%" filterUnits="objectBoundingBox">
      <feOffset dy="1" in="SourceAlpha" result="shadowOffsetInner1"/>
      <feComposite in="shadowOffsetInner1" in2="SourceAlpha" k2="-1" k3="1" operator="arithmetic" result="shadowInnerInner1"/>
      <feColorMatrix in="shadowInnerInner1" result="shadowMatrixInner1" values="0 0 0 0 1   0 0 0 0 1   0 0 0 0 1  0 0 0 1 0"/>
      <feOffset dy="-1" in="SourceAlpha" result="shadowOffsetInner2"/>
      <feComposite in="shadowOffsetInner2" in2="SourceAlpha" k2="-1" k3="1" operator="arithmetic" result="shadowInnerInner2"/>
      <feColorMatrix in="shadowInnerInner2" result="shadowMatrixInner2" values="0 0 0 0 0.129698822   0 0 0 0 0.129698822   0 0 0 0 0.129698822  0 0 0 0.3 0"/>
      <feMerge>
        <feMergeNode in="shadowMatrixInner1"/>
        <feMergeNode in="shadowMatrixInner2"/>
      </feMerge>
    </filter>
    <circle id="deepin-camera-e" cx="12" cy="12" r="12"/>
    <filter id="deepin-camera-d" width="104.2%" height="108.3%" x="-2.1%" y="-2.1%" filterUnits="objectBoundingBox">
      <feOffset dy="1" in="SourceAlpha" result="shadowOffsetOuter1"/>
      <feColorMatrix in="shadowOffsetOuter1" values="0 0 0 0 0   0 0 0 0 0   0 0 0 0 0  0 0 0 0.20121285 0"/>
    </filter>
    <filter id="deepin-camera-f" width="104.2%" height="108.3%" x="-2.1%" y="-2.1%" filterUnits="objectBoundingBox">
      <feOffset dy="1" in="SourceAlpha" result="shadowOffsetInner1"/>
      <feComposite in="shadowOffsetInner1" in2="SourceAlpha" k2="-1" k3="1" operator="arithmetic" result="shadowInnerInner1"/>
      <feColorMatrix in="shadowInnerInner1" values="0 0 0 0 1   0 0 0 0 1   0 0 0 0 1  0 0 0 1 0"/>
    </filter>
    <linearGradient id="deepin-camera-g" x1="50%" x2="50%" y1="0%" y2="100%">
      <stop offset="0%" stop-color="#3A48B3"/>
      <stop offset="100%" stop-color="#6D3A89"/>
    </linearGradient>
    <linearGradient id="deepin-camera-h" x1="50%" x2="50%" y1="0%" y2="100%">
      <stop offset="0%" stop-color="#2C4880"/>
      <stop offset="100%" stop-color="#213866"/>
    </linearGradient>
  </defs>
  <g fill="none" fill-rule="evenodd" filter="url(#deepin-camera-a)" transform="translate(4 4)">
    <use fill="#EEEEED" xlink:href="#deepin-camera-b"/>
    <use fill="#000" filter="url(#deepin-camera-c)" xlink:href="#deepin-camera-b"/>
    <polygon fill="#5059DD" points="0 10 40 10 40 30 0 30"/>
    <rect width="5" height="3" x="3" y="3" fill="#BBBBB4" rx=".188"/>
    <polygon fill="#FFF" fill-opacity=".746" points="4 4 7 4 7 5 4 5" opacity=".683"/>
    <circle cx="36.5" cy="4.5" r="1.5" fill="#F66B59"/>
    <g transform="translate(8 8)">
      <use fill="#000" filter="url(#deepin-camera-d)" xlink:href="#deepin-camera-e"/>
      <use fill="#F5F5F5" xlink:href="#deepin-camera-e"/>
      <use fill="#000" filter="url(#deepin-camera-f)" xlink:href="#deepin-camera-e"/>
      <circle cx="12" cy="12" r="9" fill="#21376A"/>
      <circle cx="12" cy="12" r="6" fill="url(#deepin-camera-g)"/>
      <circle cx="12" cy="12" r="4" fill="url(#deepin-camera-h)"/>
    </g>
  </g>
</svg>
