<svg xmlns="http://www.w3.org/2000/svg" xmlns:xlink="http://www.w3.org/1999/xlink" width="48" height="48" viewBox="0 0 48 48">
  <defs>
    <filter id="uos-windesk-a" width="134.2%" height="134.2%" x="-17.1%" y="-17.1%" filterUnits="objectBoundingBox">
      <feOffset dy="1" in="SourceAlpha" result="shadowOffsetOuter1"/>
      <feGaussianBlur in="shadowOffsetOuter1" result="shadowBlurOuter1" stdDeviation="1"/>
      <feColorMatrix in="shadowBlurOuter1" result="shadowMatrixOuter1" values="0 0 0 0 0   0 0 0 0 0   0 0 0 0 0  0 0 0 0.2 0"/>
      <feMerge>
        <feMergeNode in="shadowMatrixOuter1"/>
        <feMergeNode in="SourceGraphic"/>
      </feMerge>
    </filter>
    <path id="uos-windesk-b" d="M4,0 L34,0 C36.209139,-4.05812251e-16 38,1.790861 38,4 L38,34 C38,36.209139 36.209139,38 34,38 L4,38 C1.790861,38 2.705415e-16,36.209139 0,34 L0,4 C-2.705415e-16,1.790861 1.790861,4.05812251e-16 4,0 Z"/>
    <filter id="uos-windesk-c" width="102.6%" height="102.6%" x="-1.3%" y="-1.3%" filterUnits="objectBoundingBox">
      <feOffset dy="-1" in="SourceAlpha" result="shadowOffsetInner1"/>
      <feComposite in="shadowOffsetInner1" in2="SourceAlpha" k2="-1" k3="1" operator="arithmetic" result="shadowInnerInner1"/>
      <feColorMatrix in="shadowInnerInner1" result="shadowMatrixInner1" values="0 0 0 0 0   0 0 0 0 0   0 0 0 0 0  0 0 0 0.301354895 0"/>
      <feOffset dy="1" in="SourceAlpha" result="shadowOffsetInner2"/>
      <feComposite in="shadowOffsetInner2" in2="SourceAlpha" k2="-1" k3="1" operator="arithmetic" result="shadowInnerInner2"/>
      <feColorMatrix in="shadowInnerInner2" result="shadowMatrixInner2" values="0 0 0 0 1   0 0 0 0 1   0 0 0 0 1  0 0 0 0.849334503 0"/>
      <feMerge>
        <feMergeNode in="shadowMatrixInner1"/>
        <feMergeNode in="shadowMatrixInner2"/>
      </feMerge>
    </filter>
    <path id="uos-windesk-d" d="M10,9 L24,9 C24.5522847,9 25,9.44771525 25,10 L25,23 C25,23.5522847 24.5522847,24 24,24 L10,24 C9.44771525,24 9,23.5522847 9,23 L9,10 C9,9.44771525 9.44771525,9 10,9 Z"/>
    <filter id="uos-windesk-e" width="106.2%" height="106.7%" x="-3.1%" y="-3.3%" filterUnits="objectBoundingBox">
      <feOffset dy="-1" in="SourceAlpha" result="shadowOffsetInner1"/>
      <feComposite in="shadowOffsetInner1" in2="SourceAlpha" k2="-1" k3="1" operator="arithmetic" result="shadowInnerInner1"/>
      <feColorMatrix in="shadowInnerInner1" values="0 0 0 0 0   0 0 0 0 0   0 0 0 0 0  0 0 0 0.2 0"/>
    </filter>
    <path id="uos-windesk-f" d="M18,0 C19.0543618,1.9368312e-16 19.9181651,0.815877791 19.9945143,1.85073766 L20,2 L20,7 L9,7 C7.9456382,7 7.08183488,7.81587779 7.00548574,8.85073766 L7,9 L7,20 L2,20 C0.945638205,20 0.0818348781,19.1841222 0.00548573643,18.1492623 L0,18 L0,2 C0,0.945638205 0.815877791,0.0818348781 1.85073766,0.00548573643 L2,0 L18,0 Z M9,20 L9,19.999 L8.99991082,19.999 L9,10 C9,9.48716416 9.38604019,9.06449284 9.88337887,9.00672773 L10,9 L20,9 L20,19 C20,19.5128358 19.6139598,19.9355072 19.1166211,19.9932723 L19,20 L9,20 Z"/>
    <filter id="uos-windesk-g" width="105%" height="105%" x="-2.5%" y="-2.5%" filterUnits="objectBoundingBox">
      <feOffset dy="-1" in="SourceAlpha" result="shadowOffsetInner1"/>
      <feComposite in="shadowOffsetInner1" in2="SourceAlpha" k2="-1" k3="1" operator="arithmetic" result="shadowInnerInner1"/>
      <feColorMatrix in="shadowInnerInner1" values="0 0 0 0 0   0 0 0 0 0   0 0 0 0 0  0 0 0 0.2 0"/>
    </filter>
  </defs>
  <g fill="none" fill-rule="evenodd" filter="url(#uos-windesk-a)" transform="translate(5 5)">
    <use fill="#F7F7F7" xlink:href="#uos-windesk-b"/>
    <use fill="#000" filter="url(#uos-windesk-c)" xlink:href="#uos-windesk-b"/>
    <g fill-rule="nonzero" transform="translate(7 7)">
      <g transform="matrix(-1 0 0 1 34 0)">
        <use fill="#008DF3" xlink:href="#uos-windesk-d"/>
        <use fill="#000" filter="url(#uos-windesk-e)" xlink:href="#uos-windesk-d"/>
      </g>
      <use fill="#00C3E6" xlink:href="#uos-windesk-f"/>
      <use fill="#000" filter="url(#uos-windesk-g)" xlink:href="#uos-windesk-f"/>
    </g>
  </g>
</svg>
