<svg xmlns="http://www.w3.org/2000/svg" xmlns:xlink="http://www.w3.org/1999/xlink" width="128" height="128" viewBox="0 0 128 128">
  <defs>
    <linearGradient id="text-x-script-c" x1="50%" x2="50%" y1="0%" y2="99.628%">
      <stop offset="0%" stop-color="#EC5959"/>
      <stop offset="100%" stop-color="#D13F3F"/>
    </linearGradient>
    <path id="text-x-script-b" d="M58,0 L84,26 L84,95 C84,99.9705627 79.9705627,104 75,104 L9,104 C4.02943725,104 6.08718376e-16,99.9705627 0,95 L0,9 C-6.08718376e-16,4.02943725 4.02943725,9.13077564e-16 9,0 L58,0 Z"/>
    <filter id="text-x-script-a" width="127.4%" height="122.1%" x="-13.7%" y="-9.1%" filterUnits="objectBoundingBox">
      <feOffset dy="2" in="SourceAlpha" result="shadowOffsetOuter1"/>
      <feGaussianBlur in="shadowOffsetOuter1" result="shadowBlurOuter1" stdDeviation="3.5"/>
      <feColorMatrix in="shadowBlurOuter1" values="0 0 0 0 0.6622226   0 0 0 0 0   0 0 0 0 0  0 0 0 0.5 0"/>
    </filter>
    <linearGradient id="text-x-script-f" x1="50%" x2="10.489%" y1="50%" y2="91.194%">
      <stop offset="0%" stop-color="#FFF" stop-opacity=".1"/>
      <stop offset="100%" stop-color="#FFF" stop-opacity=".3"/>
    </linearGradient>
    <path id="text-x-script-e" d="M58,0 L84,26 L67,26 C62.0294373,26 58,21.9705627 58,17 L58,0 Z"/>
    <filter id="text-x-script-d" width="142.3%" height="142.3%" x="-21.2%" y="-13.5%" filterUnits="objectBoundingBox">
      <feOffset dy="2" in="SourceAlpha" result="shadowOffsetOuter1"/>
      <feGaussianBlur in="shadowOffsetOuter1" result="shadowBlurOuter1" stdDeviation="1.5"/>
      <feComposite in="shadowBlurOuter1" in2="SourceAlpha" operator="out" result="shadowBlurOuter1"/>
      <feColorMatrix in="shadowBlurOuter1" values="0 0 0 0 0   0 0 0 0 0   0 0 0 0 0  0 0 0 0.05 0"/>
    </filter>
  </defs>
  <g fill="none" fill-rule="evenodd">
    <g transform="translate(22 14)">
      <use fill="#000" filter="url(#text-x-script-a)" xlink:href="#text-x-script-b"/>
      <use fill="url(#text-x-script-c)" xlink:href="#text-x-script-b"/>
      <use fill="#000" filter="url(#text-x-script-d)" xlink:href="#text-x-script-e"/>
      <use fill="url(#text-x-script-f)" xlink:href="#text-x-script-e"/>
    </g>
    <path fill="#FFF" d="M36.1569899,57.0491945 C36.1569899,57.0491945 48.6106182,48.0079897 48.6106182,48.0079897 C44.4594088,44.9889283 36.1569899,38.9508055 36.1569899,38.9508055 C35.2636847,38.301129 35.0661846,37.0502951 35.7158612,36.1569899 C36.3655377,35.2636847 37.6163715,35.0661846 38.5096767,35.7158612 L53.1763434,46.3825278 C54.2745522,47.1812251 54.2745522,48.8187749 53.1763434,49.6174722 L38.5096767,60.2841388 C37.6163715,60.9338154 36.3655377,60.7363153 35.7158612,59.8430101 C35.0661846,58.9497049 35.2636847,57.698871 36.1569899,57.0491945 Z M70.6670848,65.9980487 L52.0004181,66.0019512 C50.8958486,66.0021821 50.000231,65.1069388 50,64.0023693 C49.9997691,62.8977999 50.8950124,62.0021822 51.9995819,62.0019513 L70.6662485,61.9980488 C71.770818,61.9978179 72.6664357,62.8930612 72.6666666,63.9976307 C72.6668975,65.1022001 71.7716543,65.9978178 70.6670848,65.9980487 Z"/>
  </g>
</svg>
