<svg xmlns="http://www.w3.org/2000/svg" xmlns:xlink="http://www.w3.org/1999/xlink" width="128" height="128" viewBox="0 0 128 128">
  <defs>
    <linearGradient id="x-dia-diagram-c" x1="50%" x2="50%" y1="0%" y2="98.501%">
      <stop offset="0%" stop-color="#7FCB10"/>
      <stop offset="100%" stop-color="#50A100"/>
    </linearGradient>
    <path id="x-dia-diagram-b" d="M58,0 L84,26 L84,95 C84,99.9705627 79.9705627,104 75,104 L9,104 C4.02943725,104 6.08718376e-16,99.9705627 0,95 L0,9 C-6.08718376e-16,4.02943725 4.02943725,9.13077564e-16 9,0 L58,0 Z"/>
    <filter id="x-dia-diagram-a" width="127.4%" height="122.1%" x="-13.7%" y="-9.1%" filterUnits="objectBoundingBox">
      <feOffset dy="2" in="SourceAlpha" result="shadowOffsetOuter1"/>
      <feGaussianBlur in="shadowOffsetOuter1" result="shadowBlurOuter1" stdDeviation="3.5"/>
      <feColorMatrix in="shadowBlurOuter1" values="0 0 0 0 0.46370117   0 0 0 0 0.679376132   0 0 0 0 0  0 0 0 0.5 0"/>
    </filter>
    <linearGradient id="x-dia-diagram-f" x1="50%" x2="10.489%" y1="50%" y2="91.194%">
      <stop offset="0%" stop-color="#FFF" stop-opacity=".1"/>
      <stop offset="100%" stop-color="#FFF" stop-opacity=".3"/>
    </linearGradient>
    <path id="x-dia-diagram-e" d="M58,0 L84,26 L67,26 C62.0294373,26 58,21.9705627 58,17 L58,0 Z"/>
    <filter id="x-dia-diagram-d" width="142.3%" height="142.3%" x="-21.2%" y="-13.5%" filterUnits="objectBoundingBox">
      <feOffset dy="2" in="SourceAlpha" result="shadowOffsetOuter1"/>
      <feGaussianBlur in="shadowOffsetOuter1" result="shadowBlurOuter1" stdDeviation="1.5"/>
      <feComposite in="shadowBlurOuter1" in2="SourceAlpha" operator="out" result="shadowBlurOuter1"/>
      <feColorMatrix in="shadowBlurOuter1" values="0 0 0 0 0   0 0 0 0 0   0 0 0 0 0  0 0 0 0.05 0"/>
    </filter>
  </defs>
  <g fill="none" fill-rule="evenodd">
    <g transform="translate(22 14)">
      <use fill="#000" filter="url(#x-dia-diagram-a)" xlink:href="#x-dia-diagram-b"/>
      <use fill="url(#x-dia-diagram-c)" xlink:href="#x-dia-diagram-b"/>
      <use fill="#000" filter="url(#x-dia-diagram-d)" xlink:href="#x-dia-diagram-e"/>
      <use fill="url(#x-dia-diagram-f)" xlink:href="#x-dia-diagram-e"/>
    </g>
    <path fill="#FFF" d="M72,54 L56,54 L56,44 L72,44 L72,54 Z M63,59.4769632 L63,56 L55,56 L54,56 L54,55 L54,43 L54,42 L55,42 L73,42 L74,42 L74,43 L74,55 L74,56 L73,56 L65,56 L65,59.4769632 L77.5368755,68.1563385 L78.8626293,69 L77.5368755,69.8436615 L64.5368755,78.8436615 L64,79.1853095 L63.4631245,78.8436615 L50.4631245,69.8436615 L49.1373707,69 L50.4631245,68.1563385 L63,59.4769632 Z M64.0186127,58.8265349 L64.346757,59.035354 L64.0365274,58.8146905 L64.0186127,58.8265349 Z M84,82 L93,82 L94,82 L94,83 L94,95 L94,96 L93,96 L73,96 L72,96 L72,95 L72,83 L72,82 L73,82 L82,82 L82,70 L77.5,70 L79,69 L77.5,68 L84,68 L84,82 Z M46,82 L55,82 L56,82 L56,83 L56,95 L56,96 L55,96 L35,96 L34,96 L34,95 L34,83 L34,82 L35,82 L44,82 L44,68 L50.5,68 L49,69.0136813 L50.5,70 L46,70 L46,82 Z M54,94 L54,84 L36,84 L36,94 L54,94 Z M92,94 L92,84 L74,84 L74,94 L92,94 Z M63,59.4769632 L63,59.5 L64.0186127,58.8265349 L64,58.8146905 L63.4631245,59.1563385 L63,59.4769632 Z M64.346757,59.035354 L65,59.5 L65,59.4769632 L64.5368755,59.1563385 L64.346757,59.035354 Z M64.0365274,76.8379352 L75.1264024,68.9930201 L64.006471,61.1894275 L52.8508049,69.0075246 L64.0365274,76.8379352 Z"/>
  </g>
</svg>
