<?xml version="1.0" encoding="UTF-8"?>
<svg width="48px" height="48px" viewBox="0 0 48 48" version="1.1" xmlns="http://www.w3.org/2000/svg" xmlns:xlink="http://www.w3.org/1999/xlink">
    <title>mimetypes/48/application-pgp-keys</title>
    <defs>
        <linearGradient x1="50%" y1="0%" x2="50%" y2="99.3243243%" id="linearGradient-1">
            <stop stop-color="#C5A981" offset="0%"></stop>
            <stop stop-color="#BA853A" offset="100%"></stop>
        </linearGradient>
        <path d="M34,38.4 C34,40.3882251 32.3882251,42 30.4,42 L3.6,42 C1.6117749,42 -2.00601859e-16,40.3882251 -4.4408921e-16,38.4 L0,3.6 C-2.4348735e-16,1.6117749 1.6117749,1.25340945e-15 3.6,8.8817842e-16 L23.4673913,0 L34,10.5 L34,38.4 Z" id="path-2"></path>
        <filter x="-14.7%" y="-9.5%" width="129.4%" height="123.8%" filterUnits="objectBoundingBox" id="filter-3">
            <feOffset dx="0" dy="1" in="SourceAlpha" result="shadowOffsetOuter1"></feOffset>
            <feGaussianBlur stdDeviation="1.5" in="shadowOffsetOuter1" result="shadowBlurOuter1"></feGaussianBlur>
            <feColorMatrix values="0 0 0 0 0.733333333   0 0 0 0 0.537254902   0 0 0 0 0.258823529  0 0 0 0.5 0" type="matrix" in="shadowBlurOuter1"></feColorMatrix>
        </filter>
        <linearGradient x1="50%" y1="50%" x2="7.99354867%" y2="88.6522186%" id="linearGradient-4">
            <stop stop-color="#FFFFFF" stop-opacity="0.1" offset="0%"></stop>
            <stop stop-color="#FFFFFF" stop-opacity="0.3" offset="100%"></stop>
        </linearGradient>
        <path d="M23.4673913,0 L34,10.5 L26.8423913,10.5 C24.9784303,10.5 23.4673913,8.98896103 23.4673913,7.125 L23.4673913,0 L23.4673913,0 Z" id="path-5"></path>
        <filter x="-19.0%" y="-9.5%" width="138.0%" height="138.1%" filterUnits="objectBoundingBox" id="filter-6">
            <feOffset dx="0" dy="1" in="SourceAlpha" result="shadowOffsetOuter1"></feOffset>
            <feGaussianBlur stdDeviation="0.5" in="shadowOffsetOuter1" result="shadowBlurOuter1"></feGaussianBlur>
            <feComposite in="shadowBlurOuter1" in2="SourceAlpha" operator="out" result="shadowBlurOuter1"></feComposite>
            <feColorMatrix values="0 0 0 0 0   0 0 0 0 0   0 0 0 0 0  0 0 0 0.05 0" type="matrix" in="shadowBlurOuter1"></feColorMatrix>
        </filter>
    </defs>
    <g id="mimetypes/48/application-pgp-keys" stroke="none" stroke-width="1" fill="none" fill-rule="evenodd">
        <g id="编组-2" transform="translate(7, 3)">
            <g id="蒙版">
                <use fill="black" fill-opacity="1" filter="url(#filter-3)" xlink:href="#path-2"></use>
                <use fill="url(#linearGradient-1)" fill-rule="evenodd" xlink:href="#path-2"></use>
            </g>
            <g id="折角">
                <use fill="black" fill-opacity="1" filter="url(#filter-6)" xlink:href="#path-5"></use>
                <use fill="url(#linearGradient-4)" fill-rule="evenodd" xlink:href="#path-5"></use>
            </g>
        </g>
        <path d="M32.5102809,24.7088571 C33.1987821,23.8951056 33.156782,22.6996035 32.4150307,21.9578522 L29.0407748,18.5850963 C28.2990235,17.843345 27.1020213,17.8013449 26.2875199,18.4905961 L21.7350119,22.0906025 C20.8185103,22.8661038 20.7487601,24.2521063 21.5850116,25.0876077 L25.9132692,29.4143654 C26.7502707,30.2513668 28.1370232,30.1816167 28.9132745,29.2636151 L32.5102809,24.7088571 L32.5102809,24.7088571 Z M27.9667729,19.6583482 L31.3410288,23.0318541 C31.5232791,23.2133544 31.5262791,23.520105 31.3500288,23.7293553 L30.6817777,24.5206067 L26.4787702,20.3183493 L27.2700216,19.6493481 C27.477772,19.4723478 27.7845225,19.4768478 27.9667729,19.6583482 L27.9667729,19.6583482 Z M24.2797664,29.9018662 L18.1822556,36.000127 L16.0612519,36.000127 L15.5310009,35.4698761 L21.0000106,30.0001164 L20.4697596,29.4698655 L15.00075,34.9396251 L15,32.8186214 L21.0975108,26.7211106 L24.2797664,29.9018662 L24.2797664,29.9018662 Z" id="Shape" fill="#FFFFFF"></path>
    </g>
</svg>