<?xml version="1.0" encoding="UTF-8"?>
<svg width="48px" height="48px" viewBox="0 0 48 48" version="1.1" xmlns="http://www.w3.org/2000/svg" xmlns:xlink="http://www.w3.org/1999/xlink">
    <title>mimetypes/48/application-x-deepinclone-dim</title>
    <defs>
        <linearGradient x1="50%" y1="0%" x2="50%" y2="100%" id="linearGradient-1">
            <stop stop-color="#327DFF" offset="0%"></stop>
            <stop stop-color="#1066FF" offset="100%"></stop>
        </linearGradient>
        <path d="M34,38.4 C34,40.3882251 32.3882251,42 30.4,42 L3.6,42 C1.6117749,42 -2.00601859e-16,40.3882251 -4.4408921e-16,38.4 L0,3.6 C-2.4348735e-16,1.6117749 1.6117749,1.25340945e-15 3.6,8.8817842e-16 L23.4673913,0 L34,10.5 L34,38.4 Z" id="path-2"></path>
        <filter x="-14.7%" y="-9.5%" width="129.4%" height="123.8%" filterUnits="objectBoundingBox" id="filter-3">
            <feOffset dx="0" dy="1" in="SourceAlpha" result="shadowOffsetOuter1"></feOffset>
            <feGaussianBlur stdDeviation="1.5" in="shadowOffsetOuter1" result="shadowBlurOuter1"></feGaussianBlur>
            <feColorMatrix values="0 0 0 0 0.0391387195   0 0 0 0 0.388542822   0 0 0 0 1  0 0 0 0.5 0" type="matrix" in="shadowBlurOuter1"></feColorMatrix>
        </filter>
        <linearGradient x1="50%" y1="50%" x2="7.99354867%" y2="88.6522186%" id="linearGradient-4">
            <stop stop-color="#FFFFFF" stop-opacity="0.1" offset="0%"></stop>
            <stop stop-color="#FFFFFF" stop-opacity="0.3" offset="100%"></stop>
        </linearGradient>
        <path d="M23.4673913,0 L34,10.5 L26.8423913,10.5 C24.9784303,10.5 23.4673913,8.98896103 23.4673913,7.125 L23.4673913,0 L23.4673913,0 Z" id="path-5"></path>
        <filter x="-19.0%" y="-9.5%" width="138.0%" height="138.1%" filterUnits="objectBoundingBox" id="filter-6">
            <feOffset dx="0" dy="1" in="SourceAlpha" result="shadowOffsetOuter1"></feOffset>
            <feGaussianBlur stdDeviation="0.5" in="shadowOffsetOuter1" result="shadowBlurOuter1"></feGaussianBlur>
            <feComposite in="shadowBlurOuter1" in2="SourceAlpha" operator="out" result="shadowBlurOuter1"></feComposite>
            <feColorMatrix values="0 0 0 0 0   0 0 0 0 0   0 0 0 0 0  0 0 0 0.05 0" type="matrix" in="shadowBlurOuter1"></feColorMatrix>
        </filter>
    </defs>
    <g id="mimetypes/48/application-x-deepinclone-dim" stroke="none" stroke-width="1" fill="none" fill-rule="evenodd">
        <g id="编组-2" transform="translate(7, 3)">
            <g id="蒙版">
                <use fill="black" fill-opacity="1" filter="url(#filter-3)" xlink:href="#path-2"></use>
                <use fill="url(#linearGradient-1)" fill-rule="evenodd" xlink:href="#path-2"></use>
            </g>
            <g id="折角">
                <use fill="black" fill-opacity="1" filter="url(#filter-6)" xlink:href="#path-5"></use>
                <use fill="url(#linearGradient-4)" fill-rule="evenodd" xlink:href="#path-5"></use>
            </g>
        </g>
        <path d="M27.25,18 C27.6642136,18 28,18.3357864 28,18.75 L28,32.25 C28,32.6642136 27.6642136,33 27.25,33 L16.75,33 C16.3357864,33 16,32.6642136 16,32.25 L16,18.75 C16,18.3357864 16.3357864,18 16.75,18 L27.25,18 Z M18,21 L18,25 L22,25 L20.7597208,23.7591361 C21.0942402,23.5713737 21.4758963,23.46875 21.875,23.46875 C23.1348996,23.46875 24.15625,24.4901004 24.15625,25.75 C24.15625,27.0098996 23.1348996,28.03125 21.875,28.03125 C21.1358911,28.03125 20.4575127,27.6784769 20.0298453,27.0918477 C19.7044958,26.6455673 19.0789663,26.5475335 18.6326859,26.872883 C18.1864056,27.1982325 18.0883717,27.8237621 18.4137212,28.2700424 C19.2139451,29.3677057 20.4899329,30.03125 21.875,30.03125 C24.2394691,30.03125 26.15625,28.1144691 26.15625,25.75 C26.15625,23.3855309 24.2394691,21.46875 21.875,21.46875 C20.9353501,21.46875 20.0440635,21.7739603 19.3167618,22.3166542 L18,21 Z M29.3125,15 C30.2444805,15 31,15.7555195 31,16.6875 L31,28.3228654 C31,29.2548459 30.2444805,30.0103654 29.3125,30.0103654 L28.9997443,30.01 L29,18.6875 C29,17.8045711 28.321916,17.0800172 27.458104,17.0061941 L27.3125,17 L18.9897443,17 L18.9897443,16.6875 C18.9897443,15.7555195 19.7452638,15 20.6772443,15 L29.3125,15 Z" id="形状结合" fill="#FFFFFF"></path>
        <path d="M19.224,40.5 L19.224,36.102 L20.328,36.102 C21.678,36.102 22.404,36.888 22.404,38.286 C22.404,39.678 21.678,40.5 20.352,40.5 L19.224,40.5 Z M19.782,40.044 L20.28,40.044 C21.318,40.044 21.828,39.396 21.828,38.286 C21.828,37.17 21.318,36.552 20.28,36.552 L19.782,36.552 L19.782,40.044 Z M23.346,40.5 L23.904,40.5 L23.904,36.102 L23.346,36.102 L23.346,40.5 Z M25.104,40.5 L25.608,40.5 L25.608,38.064 C25.608,37.686 25.566,37.152 25.542,36.768 L25.566,36.768 L25.914,37.77 L26.748,40.056 L27.12,40.056 L27.954,37.77 L28.302,36.768 L28.326,36.768 C28.296,37.152 28.254,37.686 28.254,38.064 L28.254,40.5 L28.776,40.5 L28.776,36.102 L28.104,36.102 L27.264,38.454 C27.162,38.76 27.066,39.066 26.964,39.372 L26.934,39.372 C26.826,39.066 26.724,38.76 26.622,38.454 L25.776,36.102 L25.104,36.102 L25.104,40.5 Z" id="DIM" fill="#FFFFFF"></path>
    </g>
</svg>