<svg xmlns="http://www.w3.org/2000/svg" xmlns:xlink="http://www.w3.org/1999/xlink" width="48" height="48" viewBox="0 0 48 48">
  <defs>
    <linearGradient id="application-x-uml-c" x1="50%" x2="50%" y1="0%" y2="100%">
      <stop offset="0%" stop-color="#425FAE"/>
      <stop offset="100%" stop-color="#26378E"/>
    </linearGradient>
    <path id="application-x-uml-b" d="M21,0 L32,11 L32,34.5 C32,36.9852814 29.9852814,39 27.5,39 L4.5,39 C2.01471863,39 3.04359188e-16,36.9852814 0,34.5 L0,4.5 C-3.04359188e-16,2.01471863 2.01471863,2.23289562e-15 4.5,1.77635684e-15 L21,0 Z"/>
    <filter id="application-x-uml-a" width="131.2%" height="125.6%" x="-15.6%" y="-10.3%" filterUnits="objectBoundingBox">
      <feOffset dy="1" in="SourceAlpha" result="shadowOffsetOuter1"/>
      <feGaussianBlur in="shadowOffsetOuter1" result="shadowBlurOuter1" stdDeviation="1.5"/>
      <feColorMatrix in="shadowBlurOuter1" values="0 0 0 0 0   0 0 0 0 0.0797976367   0 0 0 0 0.501585145  0 0 0 0.5 0"/>
    </filter>
    <linearGradient id="application-x-uml-f" x1="50%" x2="12.223%" y1="50%" y2="88.513%">
      <stop offset="0%" stop-color="#FFF" stop-opacity=".1"/>
      <stop offset="100%" stop-color="#FFF" stop-opacity=".3"/>
    </linearGradient>
    <path id="application-x-uml-e" d="M21,0 L32,11 L25.5,11 C23.0147186,11 21,8.98528137 21,6.5 L21,0 Z"/>
    <filter id="application-x-uml-d" width="163.6%" height="163.6%" x="-31.8%" y="-22.7%" filterUnits="objectBoundingBox">
      <feOffset dy="1" in="SourceAlpha" result="shadowOffsetOuter1"/>
      <feGaussianBlur in="shadowOffsetOuter1" result="shadowBlurOuter1" stdDeviation="1"/>
      <feComposite in="shadowBlurOuter1" in2="SourceAlpha" operator="out" result="shadowBlurOuter1"/>
      <feColorMatrix in="shadowBlurOuter1" values="0 0 0 0 0   0 0 0 0 0   0 0 0 0 0  0 0 0 0.05 0"/>
    </filter>
  </defs>
  <g fill="none" fill-rule="evenodd">
    <g transform="translate(8 5)">
      <use fill="#000" filter="url(#application-x-uml-a)" xlink:href="#application-x-uml-b"/>
      <use fill="url(#application-x-uml-c)" xlink:href="#application-x-uml-b"/>
      <use fill="#000" filter="url(#application-x-uml-d)" xlink:href="#application-x-uml-e"/>
      <use fill="url(#application-x-uml-f)" xlink:href="#application-x-uml-e"/>
    </g>
    <path fill="#FFF" d="M16,16 L16,21 L20,21 L20,24 L20,25 L26,25 L26,27 L29,27 L29,31 L24,31 L24,29 L16,29 L16,34 L24,34 L24,32 L30,32 L30,31 L30,27 L34,27 L34,22 L26,22 L26,24 L21,24 L21,21 L24,21 L24,16 L16,16 L16,16 Z M17,17 L23,17 L23,20 L17,20 L17,17 L17,17 Z M27,23 L33,23 L33,26 L27,26 L27,23 L27,23 Z M17,30 L23,30 L23,33 L17,33 L17,30 L17,30 Z"/>
  </g>
</svg>
