<?xml version="1.0" encoding="UTF-8"?>
<svg width="48px" height="48px" viewBox="0 0 48 48" version="1.1" xmlns="http://www.w3.org/2000/svg" xmlns:xlink="http://www.w3.org/1999/xlink">
    <title>mimetypes/48/application-pkix-cert</title>
    <defs>
        <linearGradient x1="50%" y1="9.40791504%" x2="50%" y2="95.1452294%" id="linearGradient-1">
            <stop stop-color="#00E073" offset="0%"></stop>
            <stop stop-color="#00C69A" offset="100%"></stop>
        </linearGradient>
        <path d="M34,38.4 C34,40.3882251 32.3882251,42 30.4,42 L3.6,42 C1.6117749,42 -2.00601859e-16,40.3882251 -4.4408921e-16,38.4 L0,3.6 C-2.4348735e-16,1.6117749 1.6117749,1.25340945e-15 3.6,8.8817842e-16 L23.4673913,0 L34,10.5 L34,38.4 Z" id="path-2"></path>
        <filter x="-14.7%" y="-9.5%" width="129.4%" height="123.8%" filterUnits="objectBoundingBox" id="filter-3">
            <feOffset dx="0" dy="1" in="SourceAlpha" result="shadowOffsetOuter1"></feOffset>
            <feGaussianBlur stdDeviation="1.5" in="shadowOffsetOuter1" result="shadowBlurOuter1"></feGaussianBlur>
            <feColorMatrix values="0 0 0 0 0.262745098   0 0 0 0 0.71372549   0 0 0 0 0.584665184  0 0 0 0.5 0" type="matrix" in="shadowBlurOuter1"></feColorMatrix>
        </filter>
        <linearGradient x1="50%" y1="50%" x2="7.99354867%" y2="88.6522186%" id="linearGradient-4">
            <stop stop-color="#FFFFFF" stop-opacity="0.1" offset="0%"></stop>
            <stop stop-color="#FFFFFF" stop-opacity="0.3" offset="100%"></stop>
        </linearGradient>
        <path d="M23.4673913,0 L34,10.5 L26.8423913,10.5 C24.9784303,10.5 23.4673913,8.98896103 23.4673913,7.125 L23.4673913,0 L23.4673913,0 Z" id="path-5"></path>
        <filter x="-19.0%" y="-9.5%" width="138.0%" height="138.1%" filterUnits="objectBoundingBox" id="filter-6">
            <feOffset dx="0" dy="1" in="SourceAlpha" result="shadowOffsetOuter1"></feOffset>
            <feGaussianBlur stdDeviation="0.5" in="shadowOffsetOuter1" result="shadowBlurOuter1"></feGaussianBlur>
            <feComposite in="shadowBlurOuter1" in2="SourceAlpha" operator="out" result="shadowBlurOuter1"></feComposite>
            <feColorMatrix values="0 0 0 0 0   0 0 0 0 0   0 0 0 0 0  0 0 0 0.05 0" type="matrix" in="shadowBlurOuter1"></feColorMatrix>
        </filter>
    </defs>
    <g id="mimetypes/48/application-pkix-cert" stroke="none" stroke-width="1" fill="none" fill-rule="evenodd">
        <g id="编组-2" transform="translate(7, 3)">
            <g id="蒙版">
                <use fill="black" fill-opacity="1" filter="url(#filter-3)" xlink:href="#path-2"></use>
                <use fill="url(#linearGradient-1)" fill-rule="evenodd" xlink:href="#path-2"></use>
            </g>
            <g id="折角">
                <use fill="black" fill-opacity="1" filter="url(#filter-6)" xlink:href="#path-5"></use>
                <use fill="url(#linearGradient-4)" fill-rule="evenodd" xlink:href="#path-5"></use>
            </g>
        </g>
        <path d="M24,14.25 C22.850631,14.251725 21.803265,14.9099287 21.3032227,15.9448245 C20.9666775,15.8172292 20.609919,15.751236 20.25,15.75 C18.5931457,15.75 17.25,17.0931457 17.25,18.75 C17.2503,19.1097397 17.315295,19.4664937 17.4418943,19.8032227 C16.4081392,20.304099 15.7511535,21.351294 15.75,22.5 C15.751725,23.649369 16.4099287,24.696735 17.4448245,25.1967772 C17.3172292,25.5333225 17.251236,25.890081 17.25,26.25 C17.25,27.9068542 18.5931457,29.25 20.25,29.25 C20.5032015,29.248575 20.7552052,29.21511 21,29.150391 L21,34.5 C21.0002625,35.1679777 21.807777,35.5024402 22.2802733,35.0302732 L24,33.3105465 L25.7197267,35.0302732 C26.192223,35.5024402 26.9997375,35.1679777 27,34.5 L27,29.1518557 C27.2448577,29.2160857 27.4968607,29.2490587 27.75,29.25 C29.4068543,29.25 30.75,27.9068542 30.75,26.25 C30.7497,25.8902602 30.6846975,25.5335062 30.5581057,25.1967772 C31.5918608,24.695901 32.2488465,23.648706 32.25,22.5 C32.2483028,21.350631 31.5900713,20.303265 30.5551755,19.8032227 C30.6827708,19.4666775 30.748764,19.109919 30.75,18.75 C30.75,17.0931457 29.4068543,15.75 27.75,15.75 C27.3902603,15.7503 27.0335062,15.815295 26.6967773,15.9418942 C26.195901,14.9081392 25.148706,14.2511535 24,14.25 Z M24,17 C27.0375659,17 29.5,19.4624341 29.5,22.5 C29.5,25.5375659 27.0375659,28 24,28 C20.9624341,28 18.5,25.5375659 18.5,22.5 C18.5,19.4624341 20.9624341,17 24,17 Z M24,18 C21.514719,18 19.5,20.014719 19.5,22.5 C19.5,24.985281 21.514719,27 24,27 C26.485281,27 28.5,24.985281 28.5,22.5 C28.5,20.014719 26.485281,18 24,18 Z" id="形状" fill="#FFFFFF"></path>
    </g>
</svg>