<?xml version="1.0" encoding="UTF-8"?>
<svg width="48px" height="48px" viewBox="0 0 48 48" version="1.1" xmlns="http://www.w3.org/2000/svg" xmlns:xlink="http://www.w3.org/1999/xlink">
    <title>mimetypes/48/application-rss+xml</title>
    <defs>
        <linearGradient x1="50%" y1="0%" x2="50%" y2="100%" id="linearGradient-1">
            <stop stop-color="#FC7440" offset="0%"></stop>
            <stop stop-color="#F04E11" offset="100%"></stop>
        </linearGradient>
        <path d="M34,38.4 C34,40.3882251 32.3882251,42 30.4,42 L3.6,42 C1.6117749,42 -2.00601859e-16,40.3882251 -4.4408921e-16,38.4 L0,3.6 C-2.4348735e-16,1.6117749 1.6117749,1.25340945e-15 3.6,8.8817842e-16 L23.4673913,0 L34,10.5 L34,38.4 Z" id="path-2"></path>
        <filter x="-14.7%" y="-9.5%" width="129.4%" height="123.8%" filterUnits="objectBoundingBox" id="filter-3">
            <feOffset dx="0" dy="1" in="SourceAlpha" result="shadowOffsetOuter1"></feOffset>
            <feGaussianBlur stdDeviation="1.5" in="shadowOffsetOuter1" result="shadowBlurOuter1"></feGaussianBlur>
            <feColorMatrix values="0 0 0 0 0.941176471   0 0 0 0 0.309803922   0 0 0 0 0.0705882353  0 0 0 0.5 0" type="matrix" in="shadowBlurOuter1"></feColorMatrix>
        </filter>
        <linearGradient x1="50%" y1="50%" x2="7.99354867%" y2="88.6522186%" id="linearGradient-4">
            <stop stop-color="#FFFFFF" stop-opacity="0.1" offset="0%"></stop>
            <stop stop-color="#FFFFFF" stop-opacity="0.3" offset="100%"></stop>
        </linearGradient>
        <path d="M23.4673913,0 L34,10.5 L26.8423913,10.5 C24.9784303,10.5 23.4673913,8.98896103 23.4673913,7.125 L23.4673913,0 L23.4673913,0 Z" id="path-5"></path>
        <filter x="-19.0%" y="-9.5%" width="138.0%" height="138.1%" filterUnits="objectBoundingBox" id="filter-6">
            <feOffset dx="0" dy="1" in="SourceAlpha" result="shadowOffsetOuter1"></feOffset>
            <feGaussianBlur stdDeviation="0.5" in="shadowOffsetOuter1" result="shadowBlurOuter1"></feGaussianBlur>
            <feComposite in="shadowBlurOuter1" in2="SourceAlpha" operator="out" result="shadowBlurOuter1"></feComposite>
            <feColorMatrix values="0 0 0 0 0   0 0 0 0 0   0 0 0 0 0  0 0 0 0.05 0" type="matrix" in="shadowBlurOuter1"></feColorMatrix>
        </filter>
    </defs>
    <g id="mimetypes/48/application-rss+xml" stroke="none" stroke-width="1" fill="none" fill-rule="evenodd">
        <g id="编组-2" transform="translate(7, 3)">
            <g id="蒙版">
                <use fill="black" fill-opacity="1" filter="url(#filter-3)" xlink:href="#path-2"></use>
                <use fill="url(#linearGradient-1)" fill-rule="evenodd" xlink:href="#path-2"></use>
            </g>
            <g id="折角">
                <use fill="black" fill-opacity="1" filter="url(#filter-6)" xlink:href="#path-5"></use>
                <use fill="url(#linearGradient-4)" fill-rule="evenodd" xlink:href="#path-5"></use>
            </g>
        </g>
        <path d="M13,37 C14.1045695,37 15,37.8954305 15,39 C15,40.1045695 14.1045695,41 13,41 C11.8954305,41 11,40.1045695 11,39 C11,37.8954305 11.8954305,37 13,37 Z M11,31 C16.5228475,31 21,35.4771525 21,41 L19,41 C19,36.581722 15.418278,33 11,33 Z M11,25 C19.836556,25 27,32.163444 27,41 L25,41 C25,33.2680135 18.7319865,27 11,27 Z" id="Combined-Shape" fill="#FFFFFF"></path>
    </g>
</svg>