<svg xmlns="http://www.w3.org/2000/svg" xmlns:xlink="http://www.w3.org/1999/xlink" width="48" height="48" viewBox="0 0 48 48">
  <defs>
    <linearGradient id="application-x-cda-c" x1="50%" x2="50%" y1="0%" y2="100%">
      <stop offset="0%" stop-color="#B7EE43"/>
      <stop offset="100%" stop-color="#6AD500"/>
    </linearGradient>
    <path id="application-x-cda-b" d="M21,0 L32,11 L32,34.5 C32,36.9852814 29.9852814,39 27.5,39 L4.5,39 C2.01471863,39 3.04359188e-16,36.9852814 0,34.5 L0,4.5 C-3.04359188e-16,2.01471863 2.01471863,2.23289562e-15 4.5,1.77635684e-15 L21,0 Z"/>
    <filter id="application-x-cda-a" width="131.2%" height="125.6%" x="-15.6%" y="-10.3%" filterUnits="objectBoundingBox">
      <feOffset dy="1" in="SourceAlpha" result="shadowOffsetOuter1"/>
      <feGaussianBlur in="shadowOffsetOuter1" result="shadowBlurOuter1" stdDeviation="1.5"/>
      <feColorMatrix in="shadowBlurOuter1" values="0 0 0 0 0.505882353   0 0 0 0 0.741176471   0 0 0 0 0  0 0 0 0.5 0"/>
    </filter>
    <linearGradient id="application-x-cda-f" x1="50%" x2="12.223%" y1="50%" y2="88.513%">
      <stop offset="0%" stop-color="#FFF" stop-opacity=".1"/>
      <stop offset="100%" stop-color="#FFF" stop-opacity=".3"/>
    </linearGradient>
    <path id="application-x-cda-e" d="M21,0 L32,11 L25.5,11 C23.0147186,11 21,8.98528137 21,6.5 L21,0 Z"/>
    <filter id="application-x-cda-d" width="163.6%" height="163.6%" x="-31.8%" y="-22.7%" filterUnits="objectBoundingBox">
      <feOffset dy="1" in="SourceAlpha" result="shadowOffsetOuter1"/>
      <feGaussianBlur in="shadowOffsetOuter1" result="shadowBlurOuter1" stdDeviation="1"/>
      <feComposite in="shadowBlurOuter1" in2="SourceAlpha" operator="out" result="shadowBlurOuter1"/>
      <feColorMatrix in="shadowBlurOuter1" values="0 0 0 0 0   0 0 0 0 0   0 0 0 0 0  0 0 0 0.05 0"/>
    </filter>
  </defs>
  <g fill="none" fill-rule="evenodd">
    <g transform="translate(8 5)">
      <use fill="#000" filter="url(#application-x-cda-a)" xlink:href="#application-x-cda-b"/>
      <use fill="url(#application-x-cda-c)" xlink:href="#application-x-cda-b"/>
      <use fill="#000" filter="url(#application-x-cda-d)" xlink:href="#application-x-cda-e"/>
      <use fill="url(#application-x-cda-f)" xlink:href="#application-x-cda-e"/>
    </g>
    <path fill="#FFF" d="M22.5,34 C17.5294373,34 13.5,29.9705627 13.5,25 C13.5,20.0294373 17.5294373,16 22.5,16 C26.2307922,16 29.4313858,18.2700498 30.7958878,21.5042564 C30.7505111,21.5012769 30.7046241,21.4998434 30.6582619,21.5000126 C29.4784735,21.5043342 28.5031242,22.3846698 28.5,23.5 C28.5,23.5 28.4721464,29.5 28.5,29.5 C27.9693748,29.5245016 27.5940988,29.6619463 27.0342635,29.8547663 C25.174381,30.4961476 23.9059652,32.1726359 24.0004296,33.8754903 C23.5124815,33.9573768 23.0112184,34 22.5,34 Z M15.5,25 C15.5,25.2761424 15.7238576,25.5 16,25.5 C16.2761424,25.5 16.5,25.2761424 16.5,25 C16.5,21.6862915 19.1862915,19 22.5,19 C22.7761424,19 23,18.7761424 23,18.5 C23,18.2238576 22.7761424,18 22.5,18 C18.6340068,18 15.5,21.1340068 15.5,25 Z M26.5,25 C26.5,27.209139 24.709139,29 22.5,29 C20.290861,29 18.5,27.209139 18.5,25 C18.5,22.790861 20.290861,21 22.5,21 C24.709139,21 26.5,22.790861 26.5,25 Z M22.5,28 C24.1568542,28 25.5,26.6568542 25.5,25 C25.5,23.3431458 24.1568542,22 22.5,22 C20.8431458,22 19.5,23.3431458 19.5,25 C19.5,26.6568542 20.8431458,28 22.5,28 Z M22.5,27 C21.3954305,27 20.5,26.1045695 20.5,25 C20.5,23.8954305 21.3954305,23 22.5,23 C23.6045695,23 24.5,23.8954305 24.5,25 C24.5,26.1045695 23.6045695,27 22.5,27 Z M32.6527359,25.5380026 C32.6527359,25.5380026 34.3727359,26.4670026 34.8607359,28.1450026 C34.8607359,28.1450026 35.3967359,29.6420026 34.5227359,31.5310026 C34.5227359,31.5310026 34.4397359,31.7050026 34.2577359,31.6320026 C34.1137359,31.5740026 34.1627359,31.3910026 34.1627359,31.3910026 C34.1627359,31.3910026 34.7517359,29.9190026 34.2617359,28.7260026 C34.2617359,28.7260026 33.8097359,27.0870026 31.0167359,26.3430026 C31.0167359,26.3430026 31.0027359,32.7960026 30.9927359,32.8460026 C30.9817359,33.7980026 30.1907359,34.7980026 28.9757359,35.2710026 C27.4927359,35.8480026 25.9427359,35.4210026 25.5127359,34.3180026 C25.0827359,33.2140026 25.9177359,31.7920026 27.4227359,31.2730026 C28.4447359,30.9210026 29.3377359,30.9460026 30.0297359,31.3050026 L30.0477359,23.6480026 C30.0487359,23.2910026 30.2907359,23.0010026 30.5637359,23.0000026 C30.8377359,22.9990026 31.0977359,23.2870026 31.0977359,23.6440026 L31.0977359,23.8270026 C31.0977359,24.0950026 31.3357359,24.7170026 32.6527359,25.5380026 Z"/>
  </g>
</svg>
