<?xml version="1.0" encoding="UTF-8"?>
<svg width="48px" height="48px" viewBox="0 0 48 48" version="1.1" xmlns="http://www.w3.org/2000/svg" xmlns:xlink="http://www.w3.org/1999/xlink">
    <title>mimetypes/48/application-vnd.flatpak</title>
    <defs>
        <linearGradient x1="50%" y1="0%" x2="50%" y2="99.7939317%" id="linearGradient-1">
            <stop stop-color="#9BA6C1" offset="0%"></stop>
            <stop stop-color="#778EB2" offset="100%"></stop>
        </linearGradient>
        <path d="M34,38.4 C34,40.3882251 32.3882251,42 30.4,42 L3.6,42 C1.6117749,42 -2.00601859e-16,40.3882251 -4.4408921e-16,38.4 L0,3.6 C-2.4348735e-16,1.6117749 1.6117749,1.25340945e-15 3.6,8.8817842e-16 L23.4673913,0 L34,10.5 L34,38.4 Z" id="path-2"></path>
        <filter x="-14.7%" y="-9.5%" width="129.4%" height="123.8%" filterUnits="objectBoundingBox" id="filter-3">
            <feOffset dx="0" dy="1" in="SourceAlpha" result="shadowOffsetOuter1"></feOffset>
            <feGaussianBlur stdDeviation="1.5" in="shadowOffsetOuter1" result="shadowBlurOuter1"></feGaussianBlur>
            <feColorMatrix values="0 0 0 0 0.474509804   0 0 0 0 0.558835447   0 0 0 0 0.701960784  0 0 0 0.5 0" type="matrix" in="shadowBlurOuter1"></feColorMatrix>
        </filter>
        <linearGradient x1="50%" y1="50%" x2="7.99354867%" y2="88.6522186%" id="linearGradient-4">
            <stop stop-color="#FFFFFF" stop-opacity="0.1" offset="0%"></stop>
            <stop stop-color="#FFFFFF" stop-opacity="0.3" offset="100%"></stop>
        </linearGradient>
        <path d="M23.4673913,0 L34,10.5 L26.8423913,10.5 C24.9784303,10.5 23.4673913,8.98896103 23.4673913,7.125 L23.4673913,0 L23.4673913,0 Z" id="path-5"></path>
        <filter x="-19.0%" y="-9.5%" width="138.0%" height="138.1%" filterUnits="objectBoundingBox" id="filter-6">
            <feOffset dx="0" dy="1" in="SourceAlpha" result="shadowOffsetOuter1"></feOffset>
            <feGaussianBlur stdDeviation="0.5" in="shadowOffsetOuter1" result="shadowBlurOuter1"></feGaussianBlur>
            <feComposite in="shadowBlurOuter1" in2="SourceAlpha" operator="out" result="shadowBlurOuter1"></feComposite>
            <feColorMatrix values="0 0 0 0 0   0 0 0 0 0   0 0 0 0 0  0 0 0 0.05 0" type="matrix" in="shadowBlurOuter1"></feColorMatrix>
        </filter>
    </defs>
    <g id="mimetypes/48/application-vnd.flatpak" stroke="none" stroke-width="1" fill="none" fill-rule="evenodd">
        <g id="编组-2" transform="translate(7, 3)">
            <g id="蒙版">
                <use fill="black" fill-opacity="1" filter="url(#filter-3)" xlink:href="#path-2"></use>
                <use fill="url(#linearGradient-1)" fill-rule="evenodd" xlink:href="#path-2"></use>
            </g>
            <g id="折角">
                <use fill="black" fill-opacity="1" filter="url(#filter-6)" xlink:href="#path-5"></use>
                <use fill="url(#linearGradient-4)" fill-rule="evenodd" xlink:href="#path-5"></use>
            </g>
        </g>
        <path d="M24.0612516,14.5000999 L24.1933436,14.5068355 C24.5214871,14.5323317 24.8417,14.6227303 25.137168,14.7728745 L25.311345,14.8700893 L31.7144611,18.7801359 C32.4167087,19.2105005 32.8820038,19.9565947 32.9831745,20.7923968 L33,20.9867638 L33,20.9990999 L33.039547,20.9999689 L33.039547,28.1004787 C33.039547,29.2466487 32.4788189,30.3152702 31.5471482,30.9674748 L31.3681593,31.0848005 L25.8500996,34.4659346 C24.7939814,35.1130601 23.4802263,35.1511263 22.3937978,34.5801332 L22.1928749,34.4659346 L16.6749196,31.0848645 C15.6975602,30.4859977 15.0793319,29.4494822 15.0100442,28.3142544 L15.003532,28.1003251 L15.003,21.0490999 L15,21.0127485 L15.000193,20.9645621 C15.0509603,20.1236991 15.468985,19.3567462 16.1294578,18.8836414 L16.2861217,18.7797796 L22.6890813,14.8698289 C23.0452078,14.6529319 23.4449771,14.5279076 23.8553402,14.5037383 L24.0612516,14.5000999 Z M31.8705425,23.1158717 L31.7138786,23.2197335 L25.3113613,27.1294137 C24.5550151,27.5913209 23.6317549,27.6221147 22.8531667,27.2218032 L22.6886543,27.1294237 L16.2855393,23.2193772 C16.1865647,23.1587218 16.092297,23.0917947 16.0030922,23.0192288 L16.003532,28.1003873 C16.0034817,28.9081668 16.3933478,29.6620421 17.0429265,30.1295131 L17.1973803,30.2322011 L22.7153356,33.6132712 C23.4634193,34.0716518 24.392475,34.1022105 25.1646884,33.7049473 L25.3276389,33.6132712 L30.8456986,30.2321371 C31.5344189,29.8101309 31.9734769,29.0838722 32.0326856,28.2858146 L32.039547,28.1004787 L32.0401972,22.9834403 C31.9856042,23.0297861 31.9290238,23.0739808 31.8705425,23.1158717 Z M24.032,15.499 L23.8645516,15.5057506 C23.6807704,15.5226817 23.5010088,15.5733461 23.3334737,15.6556547 L23.2102432,15.7232868 L16.8081336,19.6327178 C16.3871118,19.8903899 16.0965938,20.3386755 16.0183077,20.8106087 L16.0001849,20.9685666 C16.0268195,21.4970378 16.2832143,21.9814887 16.682662,22.2815673 L16.8067012,22.3659194 L23.2098542,26.275989 C23.6556417,26.5482353 24.1916729,26.5729836 24.6539071,26.3502127 L24.7901995,26.2759558 L31.1918665,22.3667954 C31.6128884,22.1091231 31.9034064,21.6608373 31.9816923,21.1889039 L31.9998151,21.030946 C31.9731804,20.502475 31.7167857,20.0180243 31.3173383,19.7179458 L31.1932992,19.6335938 L24.7904793,15.723728 C24.6244083,15.6223962 24.4436982,15.5542238 24.2705317,15.522472 L24.1424178,15.5055379 L24.032,15.499 Z" id="形状结合" fill="#FFFFFF" fill-rule="nonzero"></path>
    </g>
</svg>