<?xml version="1.0" encoding="UTF-8"?>
<svg width="48px" height="48px" viewBox="0 0 48 48" version="1.1" xmlns="http://www.w3.org/2000/svg" xmlns:xlink="http://www.w3.org/1999/xlink">
    <title>mimetypes/48/application-x-fictionbook</title>
    <defs>
        <linearGradient x1="50%" y1="0%" x2="50%" y2="100%" id="linearGradient-1">
            <stop stop-color="#FFA045" offset="0%"></stop>
            <stop stop-color="#ED6415" offset="100%"></stop>
        </linearGradient>
        <path d="M34,38.4 C34,40.3882251 32.3882251,42 30.4,42 L3.6,42 C1.6117749,42 -2.00601859e-16,40.3882251 -4.4408921e-16,38.4 L0,3.6 C-2.4348735e-16,1.6117749 1.6117749,1.25340945e-15 3.6,8.8817842e-16 L23.4673913,0 L34,10.5 L34,38.4 Z" id="path-2"></path>
        <filter x="-14.7%" y="-9.5%" width="129.4%" height="123.8%" filterUnits="objectBoundingBox" id="filter-3">
            <feOffset dx="0" dy="1" in="SourceAlpha" result="shadowOffsetOuter1"></feOffset>
            <feGaussianBlur stdDeviation="1.5" in="shadowOffsetOuter1" result="shadowBlurOuter1"></feGaussianBlur>
            <feColorMatrix values="0 0 0 0 0.937254902   0 0 0 0 0.415686275   0 0 0 0 0.101960784  0 0 0 0.5 0" type="matrix" in="shadowBlurOuter1"></feColorMatrix>
        </filter>
        <linearGradient x1="50%" y1="50%" x2="7.99354867%" y2="88.6522186%" id="linearGradient-4">
            <stop stop-color="#FFFFFF" stop-opacity="0.1" offset="0%"></stop>
            <stop stop-color="#FFFFFF" stop-opacity="0.3" offset="100%"></stop>
        </linearGradient>
        <path d="M23.4673913,0 L34,10.5 L26.8423913,10.5 C24.9784303,10.5 23.4673913,8.98896103 23.4673913,7.125 L23.4673913,0 L23.4673913,0 Z" id="path-5"></path>
        <filter x="-19.0%" y="-9.5%" width="138.0%" height="138.1%" filterUnits="objectBoundingBox" id="filter-6">
            <feOffset dx="0" dy="1" in="SourceAlpha" result="shadowOffsetOuter1"></feOffset>
            <feGaussianBlur stdDeviation="0.5" in="shadowOffsetOuter1" result="shadowBlurOuter1"></feGaussianBlur>
            <feComposite in="shadowBlurOuter1" in2="SourceAlpha" operator="out" result="shadowBlurOuter1"></feComposite>
            <feColorMatrix values="0 0 0 0 0   0 0 0 0 0   0 0 0 0 0  0 0 0 0.05 0" type="matrix" in="shadowBlurOuter1"></feColorMatrix>
        </filter>
    </defs>
    <g id="mimetypes/48/application-x-fictionbook" stroke="none" stroke-width="1" fill="none" fill-rule="evenodd">
        <g id="编组-2" transform="translate(7, 3)">
            <g id="蒙版" fill-rule="nonzero">
                <use fill="black" fill-opacity="1" filter="url(#filter-3)" xlink:href="#path-2"></use>
                <use fill="url(#linearGradient-1)" xlink:href="#path-2"></use>
            </g>
            <g id="折角">
                <use fill="black" fill-opacity="1" filter="url(#filter-6)" xlink:href="#path-5"></use>
                <use fill="url(#linearGradient-4)" fill-rule="evenodd" xlink:href="#path-5"></use>
            </g>
        </g>
        <path d="M31,17 L26.0146027,17 L26.0146027,26 L27.468371,25.0323444 C28.0976626,24.613476 28.9169401,24.613476 29.5462317,25.0323444 L31,26 L31,26 L31,17 Z M20,36 L20,17 L17.9375,17 C17.419733,17 17,17.419733 17,17.9375 L17,35.0625 C17,35.580267 17.419733,36 17.9375,36 L20,36 L20,36 Z M33,17.5 L33,35.5 C33,36.3284271 32.3284271,37 31.5,37 L17.5018615,37 C16.6734344,37 16.0018615,36.3284271 16.0018615,35.5 C16.0018615,35.499256 16.0018621,35.4985119 16.0018632,35.4977679 L16.0286489,17.4977679 C16.0298804,16.6702132 16.7010917,16 17.5286472,16 L31.5,16 C32.3284271,16 33,16.6715729 33,17.5 Z" id="形状" fill="#FFFFFF"></path>
    </g>
</svg>