<svg xmlns="http://www.w3.org/2000/svg" xmlns:xlink="http://www.w3.org/1999/xlink" width="48" height="48" viewBox="0 0 48 48">
  <defs>
    <linearGradient id="application-x-gzip-c" x1="50%" x2="50%" y1="0%" y2="100%">
      <stop offset="0%" stop-color="#19BD72"/>
      <stop offset="100%" stop-color="#00914F"/>
    </linearGradient>
    <path id="application-x-gzip-b" d="M21,0 L32,11 L32,34.5 C32,36.9852814 29.9852814,39 27.5,39 L4.5,39 C2.01471863,39 3.04359188e-16,36.9852814 0,34.5 L0,4.5 C-3.04359188e-16,2.01471863 2.01471863,2.23289562e-15 4.5,1.77635684e-15 L21,0 Z"/>
    <filter id="application-x-gzip-a" width="131.2%" height="125.6%" x="-15.6%" y="-10.3%" filterUnits="objectBoundingBox">
      <feOffset dy="1" in="SourceAlpha" result="shadowOffsetOuter1"/>
      <feGaussianBlur in="shadowOffsetOuter1" result="shadowBlurOuter1" stdDeviation="1.5"/>
      <feColorMatrix in="shadowBlurOuter1" values="0 0 0 0 0.00784313725   0 0 0 0 0.42745098   0 0 0 0 0.168627451  0 0 0 0.5 0"/>
    </filter>
    <linearGradient id="application-x-gzip-f" x1="50%" x2="12.223%" y1="50%" y2="88.513%">
      <stop offset="0%" stop-color="#FFF" stop-opacity=".1"/>
      <stop offset="100%" stop-color="#FFF" stop-opacity=".3"/>
    </linearGradient>
    <path id="application-x-gzip-e" d="M21,0 L32,11 L25.5,11 C23.0147186,11 21,8.98528137 21,6.5 L21,0 Z"/>
    <filter id="application-x-gzip-d" width="163.6%" height="163.6%" x="-31.8%" y="-22.7%" filterUnits="objectBoundingBox">
      <feOffset dy="1" in="SourceAlpha" result="shadowOffsetOuter1"/>
      <feGaussianBlur in="shadowOffsetOuter1" result="shadowBlurOuter1" stdDeviation="1"/>
      <feComposite in="shadowBlurOuter1" in2="SourceAlpha" operator="out" result="shadowBlurOuter1"/>
      <feColorMatrix in="shadowBlurOuter1" values="0 0 0 0 0   0 0 0 0 0   0 0 0 0 0  0 0 0 0.05 0"/>
    </filter>
  </defs>
  <g fill="none" fill-rule="evenodd">
    <g transform="translate(8 5)">
      <use fill="#000" filter="url(#application-x-gzip-a)" xlink:href="#application-x-gzip-b"/>
      <use fill="url(#application-x-gzip-c)" xlink:href="#application-x-gzip-b"/>
      <use fill="#000" filter="url(#application-x-gzip-d)" xlink:href="#application-x-gzip-e"/>
      <use fill="url(#application-x-gzip-f)" xlink:href="#application-x-gzip-e"/>
    </g>
    <path fill="#FFF8F8" fill-opacity=".5" d="M21.5,25 L24.5,25 L24.5,23 L21.5,23 L21.5,21.5 L26.5,21.5 L26.5,26.5 L21.5,26.5 L21.5,25 Z M19.5,21.5 L19.5,26.5 L8,26.5 L8,21.5 L19.5,21.5 Z M28.5,21.5 L40,21.5 L40,26.5 L28.5,26.5 L28.5,21.5 Z"/>
    <path fill="#F4F4F4" d="M20.75,20 L27.25,20 C27.6642136,20 28,20.3357864 28,20.75 L28,27.25 C28,27.6642136 27.6642136,28 27.25,28 L20.75,28 C20.3357864,28 20,27.6642136 20,27.25 L20,20.75 C20,20.3357864 20.3357864,20 20.75,20 Z M21,21 L21,27 L27,27 L27,21 L21,21 Z M21,23.5 L24,23.5 L24,24.5 L21,24.5 L21,23.5 Z"/>
    <path fill="#FFF" d="M22.9483566,36.5 L21,36.5 L21,35.5 L24,35.5 L24,39.5 L23,39.5 L23,38.4453267 C22.3641266,39.096126 21.4780972,39.5 20.5,39.5 C18.5670034,39.5 17,37.9385282 17,35.9910835 L17,35.0089165 C17,33.0709954 18.5709366,31.5 20.5,31.5 C21.895823,31.5 23.100805,32.3142029 23.6627317,33.5 L22.5004904,33.5 C22.0449376,32.8915824 21.3193962,32.5 20.5,32.5 C19.1222592,32.5 18,33.6242455 18,35.0089165 L18,35.9910835 C18,37.3831037 19.1161507,38.5 20.5,38.5 C21.7042713,38.5 22.7133455,37.6410363 22.9483566,36.5 L22.9483566,36.5 Z M25,38.5 L29.5,32.5 L25,32.5 L25,31.5 L31,31.5 L31,32.5 L26.5,38.5 L31,38.5 L31,39.5161982 L25,39.5161983 L25,38.5 L25,38.5 Z"/>
  </g>
</svg>
