<?xml version="1.0" encoding="UTF-8"?>
<svg width="48px" height="48px" viewBox="0 0 48 48" version="1.1" xmlns="http://www.w3.org/2000/svg" xmlns:xlink="http://www.w3.org/1999/xlink">
    <title>mimetypes/48/application-vnd.wolfram.mathematica.package</title>
    <defs>
        <linearGradient x1="50%" y1="0%" x2="50%" y2="99.7939317%" id="linearGradient-1">
            <stop stop-color="#9BA6C1" offset="0%"></stop>
            <stop stop-color="#778EB2" offset="100%"></stop>
        </linearGradient>
        <path d="M34,38.4 C34,40.3882251 32.3882251,42 30.4,42 L3.6,42 C1.6117749,42 -2.00601859e-16,40.3882251 -4.4408921e-16,38.4 L0,3.6 C-2.4348735e-16,1.6117749 1.6117749,1.25340945e-15 3.6,8.8817842e-16 L23.4673913,0 L34,10.5 L34,38.4 Z" id="path-2"></path>
        <filter x="-14.7%" y="-9.5%" width="129.4%" height="123.8%" filterUnits="objectBoundingBox" id="filter-3">
            <feOffset dx="0" dy="1" in="SourceAlpha" result="shadowOffsetOuter1"></feOffset>
            <feGaussianBlur stdDeviation="1.5" in="shadowOffsetOuter1" result="shadowBlurOuter1"></feGaussianBlur>
            <feColorMatrix values="0 0 0 0 0.474509804   0 0 0 0 0.558835447   0 0 0 0 0.701960784  0 0 0 0.5 0" type="matrix" in="shadowBlurOuter1"></feColorMatrix>
        </filter>
        <linearGradient x1="50%" y1="50%" x2="7.99354867%" y2="88.6522186%" id="linearGradient-4">
            <stop stop-color="#FFFFFF" stop-opacity="0.1" offset="0%"></stop>
            <stop stop-color="#FFFFFF" stop-opacity="0.3" offset="100%"></stop>
        </linearGradient>
        <path d="M23.4673913,0 L34,10.5 L26.8423913,10.5 C24.9784303,10.5 23.4673913,8.98896103 23.4673913,7.125 L23.4673913,0 L23.4673913,0 Z" id="path-5"></path>
        <filter x="-19.0%" y="-9.5%" width="138.0%" height="138.1%" filterUnits="objectBoundingBox" id="filter-6">
            <feOffset dx="0" dy="1" in="SourceAlpha" result="shadowOffsetOuter1"></feOffset>
            <feGaussianBlur stdDeviation="0.5" in="shadowOffsetOuter1" result="shadowBlurOuter1"></feGaussianBlur>
            <feComposite in="shadowBlurOuter1" in2="SourceAlpha" operator="out" result="shadowBlurOuter1"></feComposite>
            <feColorMatrix values="0 0 0 0 0   0 0 0 0 0   0 0 0 0 0  0 0 0 0.05 0" type="matrix" in="shadowBlurOuter1"></feColorMatrix>
        </filter>
    </defs>
    <g id="mimetypes/48/application-vnd.wolfram.mathematica.package" stroke="none" stroke-width="1" fill="none" fill-rule="evenodd">
        <g id="编组-2" transform="translate(7, 3)">
            <g id="蒙版">
                <use fill="black" fill-opacity="1" filter="url(#filter-3)" xlink:href="#path-2"></use>
                <use fill="url(#linearGradient-1)" fill-rule="evenodd" xlink:href="#path-2"></use>
            </g>
            <g id="折角">
                <use fill="black" fill-opacity="1" filter="url(#filter-6)" xlink:href="#path-5"></use>
                <use fill="url(#linearGradient-4)" fill-rule="evenodd" xlink:href="#path-5"></use>
            </g>
        </g>
        <path d="M24,16.125 C23.6976427,16.1256024 23.3955018,16.1414385 23.0947326,16.1724564 C22.8087389,16.2012307 22.5267888,16.2439614 22.2492256,16.2990189 C22.2369148,16.3007546 22.2246105,16.3025546 22.2123063,16.3043546 C21.9514014,16.3572296 21.6964159,16.4262236 21.4441413,16.501229 C21.4083406,16.5103833 21.372599,16.5197561 21.3369153,16.529354 C21.0523841,16.617797 20.7737216,16.7182435 20.5019543,16.8334551 C20.2334585,16.9471855 19.9706482,17.0738978 19.7144542,17.2131426 C19.2062511,17.4897217 18.725903,17.8146635 18.2800789,18.1834553 C18.0575976,18.3670354 17.84407,18.5612053 17.640236,18.7652919 C17.4458533,18.9600147 17.2605021,19.1635484 17.0847668,19.3752522 C17.0743911,19.3877108 17.0634368,19.3996487 17.0531254,19.4121715 C16.910998,19.5880605 16.7755499,19.7692434 16.6470704,19.9553351 C16.6014339,20.0200271 16.5539242,20.0827726 16.5099611,20.148695 C16.4122828,20.298232 16.3190775,20.4506432 16.2304693,20.6057267 C16.1680736,20.7125149 16.1039666,20.8178934 16.0458986,20.927406 C15.9736607,21.0667987 15.9050826,21.2080582 15.840235,21.3510387 C15.7800057,21.4805982 15.7203621,21.6102413 15.666211,21.7430312 C15.6124874,21.8788933 15.5620842,22.016043 15.5150399,22.1543589 C15.4638556,22.2998909 15.4129239,22.4449979 15.3691409,22.5938123 C15.3321958,22.7242776 15.2982016,22.8555606 15.2671875,22.9875617 C15.2287511,23.1442607 15.1900395,23.3006486 15.1599609,23.4604141 C15.1332309,23.611562 15.1103709,23.7633696 15.0914079,23.9156869 C15.0722636,24.0569689 15.0529072,24.1978228 15.0404293,24.3410771 C15.0155571,24.6016811 15.00207,24.8632463 15,25.1250261 C15.0006017,25.4273895 15.0164379,25.7295298 15.0474557,26.030299 C15.2021953,27.5683588 15.7471474,28.9926502 16.5802685,30.205104 C16.5879185,30.2162383 16.5954271,30.2274047 16.6031221,30.2385005 C16.6676077,30.3311439 16.7338304,30.4225659 16.8017547,30.5127183 C16.8022323,30.5098254 16.8030404,30.506804 16.8035547,30.5038983 C18.4470424,32.6962569 21.0575154,34.1250232 24,34.1250232 C25.6901711,34.1250232 27.2682108,33.6478489 28.6212904,32.8330312 L28.6230904,32.8348312 C28.6413025,32.8225912 28.6594632,32.8102869 28.6775854,32.7979119 C28.8922528,32.6664785 29.1009911,32.5279659 29.3033664,32.379552 C29.3499864,32.3454291 29.3962786,32.3108556 29.4422339,32.2758405 C29.6199331,32.1402169 29.7920273,31.9986263 29.9590307,31.8504503 C30.0267551,31.7899445 30.0935595,31.7284109 30.1594209,31.6658802 C30.2985513,31.5347771 30.433127,31.3994415 30.5637183,31.2598251 C30.6414648,31.1774809 30.7176498,31.0936768 30.7922335,31.0084577 C30.9149196,30.8670516 31.0317255,30.7214116 31.1455536,30.5725207 C31.2078658,30.4921147 31.2688138,30.4106576 31.3283662,30.3281848 C31.447953,30.1603232 31.5595318,29.9874827 31.6676238,29.811388 C31.7125852,29.7399396 31.7565335,29.6678624 31.7994642,29.5951771 C31.9065128,29.4092545 32.0044527,29.2178141 32.0982919,29.0238879 C32.1350569,28.9499689 32.1708017,28.8755479 32.2055185,28.8006454 C32.2896415,28.6138099 32.3643281,28.4226492 32.4357919,28.2293568 C32.4706862,28.1379155 32.5040917,28.0459111 32.535987,27.9533801 C32.5980035,27.766965 32.6513246,27.5771601 32.7012219,27.3856066 C32.7274248,27.2893298 32.7520205,27.1926241 32.7750039,27.0955295 C32.8157225,26.9144488 32.8473819,26.7303133 32.8769566,26.5453344 C32.8976244,26.4238453 32.9157916,26.3019447 32.9314516,26.1797093 C32.9501073,26.0212006 32.959853,25.8607094 32.9701259,25.6998266 C32.9862102,25.5085927 32.9961745,25.3168933 33,25.1250222 C33,24.8215737 32.9838316,24.5226277 32.9543052,24.2267796 L32.9525052,24.2197596 C32.9237309,23.9337659 32.8810002,23.6518158 32.8259426,23.3742519 C32.8234998,23.3621469 32.8231784,23.3494312 32.8206069,23.3373326 C32.7677319,23.0764284 32.6987379,22.8214429 32.6237319,22.5691683 C32.6136069,22.5351098 32.6078855,22.4993463 32.5973619,22.4654581 L32.5938262,22.4531538 C32.5059952,22.1715733 32.4055474,21.8960428 32.2914827,21.6269813 C32.1777522,21.3584855 32.0510406,21.0956758 31.9117958,20.8394818 C31.6352167,20.3312787 31.3102749,19.8509306 30.9414831,19.4051065 C30.757903,19.1826246 30.5637331,18.969097 30.3596465,18.765263 C30.1649237,18.5708803 29.96139,18.3855291 29.7496862,18.2097938 C29.7397476,18.2009802 29.7297833,18.1921924 29.7198061,18.1834238 C29.7175561,18.1815595 29.715049,18.1800167 29.7127861,18.1780881 C29.5368972,18.0359607 29.3557143,17.9005133 29.1696225,17.7720337 C29.1049305,17.7263973 29.0421851,17.6788869 28.9762627,17.6349239 C28.8267424,17.5372488 28.6743473,17.444046 28.5192811,17.3554391 C28.4124929,17.2930434 28.3071145,17.2289357 28.1976011,17.1708677 C28.0582085,17.0986298 27.916949,17.0300517 27.7739685,16.9652042 C27.644409,16.9049749 27.5147659,16.8453318 27.3819766,16.7911801 C27.2461345,16.7374694 27.109004,16.6870752 26.9707087,16.6400399 C26.8251774,16.5888556 26.6800704,16.5379239 26.531256,16.4941409 C26.4007907,16.4571958 26.269507,16.4232022 26.1375059,16.3921882 C25.9808069,16.3537518 25.8244196,16.3150402 25.6646542,16.2849609 C25.5135056,16.2582309 25.3616981,16.2353709 25.2093807,16.2164079 C25.0680987,16.1972636 24.9272455,16.1779072 24.7839905,16.1654293 C24.5233749,16.1405571 24.2617982,16.12707 24,16.125 L24,16.125 Z M22.6324283,17.4240236 L23.8481832,20.278711 L25.9285747,18.5121097 L25.9285747,23.4480474 L30.7500061,27.3750001 L29.2681706,28.3604033 L25.1496156,28.3182125 L27.4558654,31.4460918 C26.4307973,32.0060127 25.2541956,32.3250017 24.0000062,32.3250017 C20.9998543,32.3250017 18.4399176,30.5051564 17.3554753,27.9058614 C17.923088,25.7128618 18.7708728,23.5955748 19.985162,22.4144544 C20.5031841,20.5080863 21.5140514,18.9301565 22.6324283,17.4240236 L22.6324283,17.4240236 Z M24.0643851,24.2250002 L24.065037,24.9914063 L25.7999975,25.1250004 C25.5767756,24.5854168 25.0914203,24.3368696 24.0643851,24.2250002 L24.0643851,24.2250002 Z" id="形状" fill="#FFFFFF"></path>
    </g>
</svg>