<svg xmlns="http://www.w3.org/2000/svg" xmlns:xlink="http://www.w3.org/1999/xlink" width="48" height="48" viewBox="0 0 48 48">
  <defs>
    <linearGradient id="audio-x-generic-c" x1="50%" x2="50%" y1="0%" y2="100%">
      <stop offset="0%" stop-color="#B7EE43"/>
      <stop offset="100%" stop-color="#6AD500"/>
    </linearGradient>
    <path id="audio-x-generic-b" d="M21,0 L32,11 L32,34.5 C32,36.9852814 29.9852814,39 27.5,39 L4.5,39 C2.01471863,39 3.04359188e-16,36.9852814 0,34.5 L0,4.5 C-3.04359188e-16,2.01471863 2.01471863,2.23289562e-15 4.5,1.77635684e-15 L21,0 Z"/>
    <filter id="audio-x-generic-a" width="131.2%" height="125.6%" x="-15.6%" y="-10.3%" filterUnits="objectBoundingBox">
      <feOffset dy="1" in="SourceAlpha" result="shadowOffsetOuter1"/>
      <feGaussianBlur in="shadowOffsetOuter1" result="shadowBlurOuter1" stdDeviation="1.5"/>
      <feColorMatrix in="shadowBlurOuter1" values="0 0 0 0 0.505882353   0 0 0 0 0.741176471   0 0 0 0 0  0 0 0 0.5 0"/>
    </filter>
    <linearGradient id="audio-x-generic-f" x1="50%" x2="12.223%" y1="50%" y2="88.513%">
      <stop offset="0%" stop-color="#FFF" stop-opacity=".1"/>
      <stop offset="100%" stop-color="#FFF" stop-opacity=".3"/>
    </linearGradient>
    <path id="audio-x-generic-e" d="M21,0 L32,11 L25.5,11 C23.0147186,11 21,8.98528137 21,6.5 L21,0 Z"/>
    <filter id="audio-x-generic-d" width="163.6%" height="163.6%" x="-31.8%" y="-22.7%" filterUnits="objectBoundingBox">
      <feOffset dy="1" in="SourceAlpha" result="shadowOffsetOuter1"/>
      <feGaussianBlur in="shadowOffsetOuter1" result="shadowBlurOuter1" stdDeviation="1"/>
      <feComposite in="shadowBlurOuter1" in2="SourceAlpha" operator="out" result="shadowBlurOuter1"/>
      <feColorMatrix in="shadowBlurOuter1" values="0 0 0 0 0   0 0 0 0 0   0 0 0 0 0  0 0 0 0.05 0"/>
    </filter>
  </defs>
  <g fill="none" fill-rule="evenodd">
    <g transform="translate(8 5)">
      <use fill="#000" filter="url(#audio-x-generic-a)" xlink:href="#audio-x-generic-b"/>
      <use fill="url(#audio-x-generic-c)" xlink:href="#audio-x-generic-b"/>
      <use fill="#000" filter="url(#audio-x-generic-d)" xlink:href="#audio-x-generic-e"/>
      <use fill="url(#audio-x-generic-f)" xlink:href="#audio-x-generic-e"/>
    </g>
    <path fill="#FFF" d="M24,36 C18.486,36 14,31.514 14,26 C14,20.486 18.486,16 24,16 C29.514,16 34,20.486 34,26 C34,31.514 29.514,36 24,36 L24,36 Z M24,17 C28.962,17 33,21.037 33,26 C33,30.963 28.962,35 24,35 C19.038,35 15,30.963 15,26 C15,21.037 19.038,17 24,17 Z M26.6527359,22.004 C25.3357359,21.183 25.0977359,20.561 25.0977359,20.293 L25.0977359,20.11 C25.0977359,19.753 24.8377359,19.465 24.5637359,19.466 C24.2907359,19.467 24.0487359,19.757 24.0477359,20.114 L24.0297359,27.771 C23.3377359,27.412 22.4447359,27.387 21.4227359,27.739 C19.9177359,28.258 19.0827359,29.68 19.5127359,30.784 C19.9427359,31.887 21.4927359,32.314 22.9757359,31.737 C24.1907359,31.264 24.9817359,30.264 24.9927359,29.312 C25.0027359,29.262 25.0167359,22.809 25.0167359,22.809 C27.8097359,23.553 28.2617359,25.192 28.2617359,25.192 C28.7517359,26.385 28.1627359,27.857 28.1627359,27.857 C28.1627359,27.857 28.1137359,28.04 28.2577359,28.098 C28.4397359,28.171 28.5227359,27.997 28.5227359,27.997 C29.3967359,26.108 28.8607359,24.611 28.8607359,24.611 C28.3727359,22.933 26.6527359,22.004 26.6527359,22.004 Z"/>
  </g>
</svg>
