<?xml version="1.0" encoding="UTF-8"?>
<svg width="48px" height="48px" viewBox="0 0 48 48" version="1.1" xmlns="http://www.w3.org/2000/svg" xmlns:xlink="http://www.w3.org/1999/xlink">
    <title>mimetypes/48/gnome-mime-application-x-referencer</title>
    <defs>
        <linearGradient x1="50%" y1="0%" x2="50%" y2="99.7939317%" id="linearGradient-1">
            <stop stop-color="#9BA6C1" offset="0%"></stop>
            <stop stop-color="#778EB2" offset="100%"></stop>
        </linearGradient>
        <path d="M34,38.4 C34,40.3882251 32.3882251,42 30.4,42 L3.6,42 C1.6117749,42 -2.00601859e-16,40.3882251 -4.4408921e-16,38.4 L0,3.6 C-2.4348735e-16,1.6117749 1.6117749,1.25340945e-15 3.6,8.8817842e-16 L23.4673913,0 L34,10.5 L34,38.4 Z" id="path-2"></path>
        <filter x="-14.7%" y="-9.5%" width="129.4%" height="123.8%" filterUnits="objectBoundingBox" id="filter-3">
            <feOffset dx="0" dy="1" in="SourceAlpha" result="shadowOffsetOuter1"></feOffset>
            <feGaussianBlur stdDeviation="1.5" in="shadowOffsetOuter1" result="shadowBlurOuter1"></feGaussianBlur>
            <feColorMatrix values="0 0 0 0 0.474509804   0 0 0 0 0.558835447   0 0 0 0 0.701960784  0 0 0 0.5 0" type="matrix" in="shadowBlurOuter1"></feColorMatrix>
        </filter>
        <linearGradient x1="50%" y1="50%" x2="7.99354867%" y2="88.6522186%" id="linearGradient-4">
            <stop stop-color="#FFFFFF" stop-opacity="0.1" offset="0%"></stop>
            <stop stop-color="#FFFFFF" stop-opacity="0.3" offset="100%"></stop>
        </linearGradient>
        <path d="M23.4673913,0 L34,10.5 L26.8423913,10.5 C24.9784303,10.5 23.4673913,8.98896103 23.4673913,7.125 L23.4673913,0 L23.4673913,0 Z" id="path-5"></path>
        <filter x="-19.0%" y="-9.5%" width="138.0%" height="138.1%" filterUnits="objectBoundingBox" id="filter-6">
            <feOffset dx="0" dy="1" in="SourceAlpha" result="shadowOffsetOuter1"></feOffset>
            <feGaussianBlur stdDeviation="0.5" in="shadowOffsetOuter1" result="shadowBlurOuter1"></feGaussianBlur>
            <feComposite in="shadowBlurOuter1" in2="SourceAlpha" operator="out" result="shadowBlurOuter1"></feComposite>
            <feColorMatrix values="0 0 0 0 0   0 0 0 0 0   0 0 0 0 0  0 0 0 0.05 0" type="matrix" in="shadowBlurOuter1"></feColorMatrix>
        </filter>
    </defs>
    <g id="mimetypes/48/gnome-mime-application-x-referencer" stroke="none" stroke-width="1" fill="none" fill-rule="evenodd">
        <g id="编组-2" transform="translate(7, 3)">
            <g id="蒙版">
                <use fill="black" fill-opacity="1" filter="url(#filter-3)" xlink:href="#path-2"></use>
                <use fill="url(#linearGradient-1)" fill-rule="evenodd" xlink:href="#path-2"></use>
            </g>
            <g id="折角">
                <use fill="black" fill-opacity="1" filter="url(#filter-6)" xlink:href="#path-5"></use>
                <use fill="url(#linearGradient-4)" fill-rule="evenodd" xlink:href="#path-5"></use>
            </g>
        </g>
        <path d="M24,15 C19.0294286,15 15,19.0294286 15,24 C15,28.9705714 19.0294286,33 24,33 C28.9705714,33 33,28.9705714 33,24 C33,19.0294286 28.9705714,15 24,15 Z M23.0984931,16.7201456 C23.2034203,16.709217 23.3366563,16.7264456 23.442522,16.7201456 C23.455122,16.7703399 23.3663306,16.9484743 23.2466511,17.2098214 C22.4846173,18.8745566 22.441479,20.8259584 23.1487183,21.8680247 C23.2766983,22.0569579 23.3923007,22.2363909 23.3923007,22.2597651 C23.3923007,22.2831266 23.2545544,22.307478 23.0984944,22.307478 C22.7321404,22.307478 22.3855286,22.0849144 21.6771771,21.5239959 C21.3625024,21.274818 20.9542496,21.0659987 20.7957596,21.0343187 C20.54688,20.9846001 20.479893,21.006123 20.1579257,21.328125 C19.8583633,21.6276334 19.766184,21.7897029 19.766184,22.0638956 C19.766184,23.1036733 20.9998731,23.9279704 23.2943653,24.414342 C26.410371,25.074762 27.1785609,25.6686887 27.2645096,27.3071991 C27.3724196,29.3618451 26.2779154,30.9116696 23.8819766,32.1110494 C23.5960054,32.254251 23.4143481,32.308359 23.2943653,32.3546319 C23.241201,32.3498747 23.2017296,32.359389 23.1487183,32.3546319 C23.1283269,32.2911047 23.0984983,32.144199 23.0984983,31.864956 C23.0984983,30.7736713 22.6693654,29.650479 22.0212111,29.0223214 C21.8472244,28.8536833 21.3585836,28.4970814 20.9414117,28.2388393 C20.5242553,27.9806126 20.1035631,27.6812726 20.0097703,27.5532926 C19.8543403,27.3409106 19.8426416,27.2098667 19.9620574,26.817522 C20.1796929,26.1009523 20.437818,25.7008071 20.9414104,25.2480467 C21.2054241,25.0106807 21.4705346,24.8133506 21.5290217,24.8085934 C21.5875217,24.8038363 21.1937023,24.6839691 20.5998926,24.5625 C20.0061163,24.4407943 19.1354781,24.1851364 18.6863884,24.0226003 C17.8651886,23.7254601 16.7586347,23.1029649 16.3359407,22.6515069 C16.3180564,22.6323754 16.3012521,22.6182326 16.2857207,22.6012869 C16.8913397,20.1888806 18.590424,18.2128714 20.8434776,17.2600479 C21.3149014,17.0606529 21.8020149,16.9230107 22.3150174,16.8180836 C22.5705467,16.7658579 22.8346581,16.7469707 23.0984996,16.7201507 L23.0984931,16.7201456 Z M30.4511717,20.3964849 C30.6353837,20.5103477 31.3299111,22.0154164 31.5284601,22.7494423 C31.7848046,23.6970741 31.7662491,25.336248 31.5284601,26.2776223 C31.4379587,26.6359149 31.323462,26.9716714 31.2848777,27.0133929 C31.2462934,27.0551143 31.1054396,26.815398 30.9408489,26.523717 C30.7762401,26.2320823 30.2502853,25.6111517 29.8133366,25.1501113 C28.5520971,23.8192491 28.3533849,23.1260383 28.8816964,22.0638956 C29.148126,21.5282927 30.3086014,20.3084906 30.4511717,20.3964849 L30.4511717,20.3964849 Z" id="形状" fill="#FFFFFF"></path>
    </g>
</svg>