<svg xmlns="http://www.w3.org/2000/svg" xmlns:xlink="http://www.w3.org/1999/xlink" width="48" height="48" viewBox="0 0 48 48">
  <defs>
    <linearGradient id="image-tiff-c" x1="50%" x2="50%" y1="0%" y2="100%">
      <stop offset="0%" stop-color="#28DCB1"/>
      <stop offset="100%" stop-color="#00AF9D"/>
    </linearGradient>
    <path id="image-tiff-b" d="M21,0 L32,11 L32,34.5 C32,36.9852814 29.9852814,39 27.5,39 L4.5,39 C2.01471863,39 3.04359188e-16,36.9852814 0,34.5 L0,4.5 C-3.04359188e-16,2.01471863 2.01471863,2.23289562e-15 4.5,1.77635684e-15 L21,0 Z"/>
    <filter id="image-tiff-a" width="131.2%" height="125.6%" x="-15.6%" y="-10.3%" filterUnits="objectBoundingBox">
      <feOffset dy="1" in="SourceAlpha" result="shadowOffsetOuter1"/>
      <feGaussianBlur in="shadowOffsetOuter1" result="shadowBlurOuter1" stdDeviation="1.5"/>
      <feColorMatrix in="shadowBlurOuter1" values="0 0 0 0 0.262745098   0 0 0 0 0.71372549   0 0 0 0 0.607843137  0 0 0 0.5 0"/>
    </filter>
    <linearGradient id="image-tiff-f" x1="50%" x2="12.223%" y1="50%" y2="88.513%">
      <stop offset="0%" stop-color="#FFF" stop-opacity=".1"/>
      <stop offset="100%" stop-color="#FFF" stop-opacity=".3"/>
    </linearGradient>
    <path id="image-tiff-e" d="M21,0 L32,11 L25.5,11 C23.0147186,11 21,8.98528137 21,6.5 L21,0 Z"/>
    <filter id="image-tiff-d" width="163.6%" height="163.6%" x="-31.8%" y="-22.7%" filterUnits="objectBoundingBox">
      <feOffset dy="1" in="SourceAlpha" result="shadowOffsetOuter1"/>
      <feGaussianBlur in="shadowOffsetOuter1" result="shadowBlurOuter1" stdDeviation="1"/>
      <feComposite in="shadowBlurOuter1" in2="SourceAlpha" operator="out" result="shadowBlurOuter1"/>
      <feColorMatrix in="shadowBlurOuter1" values="0 0 0 0 0   0 0 0 0 0   0 0 0 0 0  0 0 0 0.05 0"/>
    </filter>
  </defs>
  <g fill="none" fill-rule="evenodd">
    <g transform="translate(8 5)">
      <use fill="#000" filter="url(#image-tiff-a)" xlink:href="#image-tiff-b"/>
      <use fill="url(#image-tiff-c)" xlink:href="#image-tiff-b"/>
      <use fill="#000" filter="url(#image-tiff-d)" xlink:href="#image-tiff-e"/>
      <use fill="url(#image-tiff-f)" xlink:href="#image-tiff-e"/>
    </g>
    <path fill="#FFF" d="M22,33 L23,33 L23,39 L22,39 L22,33 Z M19,34 L19,39 L18,39 L18,34 L16,34 L16,33 L21,33 L21,34 L19,34 Z M24,39 L24,33 L28,33 L28,34 L25,34 L25,36 L27,36 L27,37 L25,37 L25,39 L24,39 Z M29,39 L29,33 L33,33 L33,34 L30,34 L30,36 L32,36 L32,37 L30,37 L30,39 L29,39 Z M15.968,30 L15.968,16 L31.968,16 L31.968,30 L15.968,30 Z M31,29 L31,17 L17,17 L17,29 L31,29 Z M17.9999996,27.9930003 L22,19 L24.5,24 L26.256,21.242 L30,27.9930003 L17.9999996,27.9930003 Z"/>
  </g>
</svg>
