<svg xmlns="http://www.w3.org/2000/svg" xmlns:xlink="http://www.w3.org/1999/xlink" width="48" height="48" viewBox="0 0 48 48">
  <defs>
    <linearGradient id="multipart-encrypted-c" x1="50%" x2="50%" y1="0%" y2="98.947%">
      <stop offset="0%" stop-color="#F7F7F7"/>
      <stop offset="100%" stop-color="#F6F6F6"/>
    </linearGradient>
    <path id="multipart-encrypted-b" d="M21,0 L32,11 L32,34.5 C32,36.9852814 29.9852814,39 27.5,39 L4.5,39 C2.01471863,39 3.04359188e-16,36.9852814 0,34.5 L0,4.5 C-3.04359188e-16,2.01471863 2.01471863,2.23289562e-15 4.5,1.77635684e-15 L21,0 Z"/>
    <filter id="multipart-encrypted-a" width="134.4%" height="128.2%" x="-17.2%" y="-11.5%" filterUnits="objectBoundingBox">
      <feMorphology in="SourceAlpha" operator="dilate" radius=".5" result="shadowSpreadOuter1"/>
      <feOffset dy="1" in="shadowSpreadOuter1" result="shadowOffsetOuter1"/>
      <feGaussianBlur in="shadowOffsetOuter1" result="shadowBlurOuter1" stdDeviation="1.5"/>
      <feComposite in="shadowBlurOuter1" in2="SourceAlpha" operator="out" result="shadowBlurOuter1"/>
      <feColorMatrix in="shadowBlurOuter1" values="0 0 0 0 0   0 0 0 0 0   0 0 0 0 0  0 0 0 0.1 0"/>
    </filter>
    <linearGradient id="multipart-encrypted-f" x1="50%" x2="12.223%" y1="50%" y2="88.513%">
      <stop offset="0%" stop-color="#FFF" stop-opacity=".1"/>
      <stop offset="100%" stop-color="#FFF" stop-opacity=".3"/>
    </linearGradient>
    <path id="multipart-encrypted-e" d="M21,0 L32,11 L25.5,11 C23.0147186,11 21,8.98528137 21,6.5 L21,0 Z"/>
    <filter id="multipart-encrypted-d" width="163.6%" height="163.6%" x="-31.8%" y="-22.7%" filterUnits="objectBoundingBox">
      <feOffset dy="1" in="SourceAlpha" result="shadowOffsetOuter1"/>
      <feGaussianBlur in="shadowOffsetOuter1" result="shadowBlurOuter1" stdDeviation="1"/>
      <feComposite in="shadowBlurOuter1" in2="SourceAlpha" operator="out" result="shadowBlurOuter1"/>
      <feColorMatrix in="shadowBlurOuter1" values="0 0 0 0 0   0 0 0 0 0   0 0 0 0 0  0 0 0 0.05 0"/>
    </filter>
  </defs>
  <g fill="none" fill-rule="evenodd">
    <g transform="translate(8 5)">
      <use fill="#000" filter="url(#multipart-encrypted-a)" xlink:href="#multipart-encrypted-b"/>
      <path fill="url(#multipart-encrypted-c)" stroke="#000" stroke-opacity=".1" stroke-width=".5" d="M21.1767767,-0.176776695 L32.1767767,10.8232233 L32.25,11 L32.25,34.5 C32.25,37.1233526 30.1233526,39.25 27.5,39.25 L4.5,39.25 C1.87664744,39.25 -0.25,37.1233526 -0.25,34.5 L-0.25,4.5 C-0.25,1.87664744 1.87664744,-0.25 4.5,-0.25 L21,-0.25 L21.1767767,-0.176776695 Z"/>
      <use fill="#000" filter="url(#multipart-encrypted-d)" xlink:href="#multipart-encrypted-e"/>
      <use fill="url(#multipart-encrypted-f)" xlink:href="#multipart-encrypted-e"/>
    </g>
    <path fill="#6E79E0" d="M17,36 L18,36 L18,37 L15,37 L15,36 L16,36 L16,33 L15,33 L15,32 L17,32 L17,36 Z M17,28 L18,28 L18,29 L15,29 L15,28 L16,28 L16,25 L15,25 L15,24 L17,24 L17,28 Z M32,36 L33,36 L33,37 L30,37 L30,36 L31,36 L31,33 L30,33 L30,32 L32,32 L32,36 Z M32,28 L33,28 L33,29 L30,29 L30,28 L31,28 L31,25 L30,25 L30,24 L32,24 L32,28 Z M22,28 L23,28 L23,29 L20,29 L20,28 L21,28 L21,25 L20,25 L20,24 L22,24 L22,28 Z M22,20 L23,20 L23,21 L20,21 L20,20 L21,20 L21,17 L20,17 L20,16 L22,16 L22,20 Z M15,18.9991673 L15,18.0008327 C15,16.8963607 15.8965587,16 17,16 C18.1053478,16 19,16.8941455 19,18.0008327 L19,18.9991673 C19,20.1036393 18.1034413,21 17,21 C15.8946522,21 15,20.1058545 15,18.9991673 Z M17,17 C16.448794,17 16,17.4486949 16,18.0008327 L16,18.9991673 C16,19.5534429 16.4468102,20 17,20 C17.551206,20 18,19.5513051 18,18.9991673 L18,18.0008327 C18,17.4465571 17.5531898,17 17,17 Z M19,34.9991673 L19,34.0008327 C19,32.8963607 19.8965587,32 21,32 C22.1053478,32 23,32.8941455 23,34.0008327 L23,34.9991673 C23,36.1036393 22.1034413,37 21,37 C19.8946522,37 19,36.1058545 19,34.9991673 Z M21,33 C20.448794,33 20,33.4486949 20,34.0008327 L20,34.9991673 C20,35.5534429 20.4468102,36 21,36 C21.551206,36 22,35.5513051 22,34.9991673 L22,34.0008327 C22,33.4465571 21.5531898,33 21,33 Z M24.5,34.9991673 L24.5,34.0008327 C24.5,32.8963607 25.3965587,32 26.5,32 C27.6053478,32 28.5,32.8941455 28.5,34.0008327 L28.5,34.9991673 C28.5,36.1036393 27.6034413,37 26.5,37 C25.3946522,37 24.5,36.1058545 24.5,34.9991673 Z M26.5,33 C25.948794,33 25.5,33.4486949 25.5,34.0008327 L25.5,34.9991673 C25.5,35.5534429 25.9468102,36 26.5,36 C27.051206,36 27.5,35.5513051 27.5,34.9991673 L27.5,34.0008327 C27.5,33.4465571 27.0531898,33 26.5,33 Z M29,18.9991673 L29,18.0008327 C29,16.8963607 29.8965587,16 31,16 C32.1053478,16 33,16.8941455 33,18.0008327 L33,18.9991673 C33,20.1036393 32.1034413,21 31,21 C29.8946522,21 29,20.1058545 29,18.9991673 Z M31,17 C30.448794,17 30,17.4486949 30,18.0008327 L30,18.9991673 C30,19.5534429 30.4468102,20 31,20 C31.551206,20 32,19.5513051 32,18.9991673 L32,18.0008327 C32,17.4465571 31.5531898,17 31,17 Z M24,18.9991673 L24,18.0008327 C24,16.8963607 24.8965587,16 26,16 C27.1053478,16 28,16.8941455 28,18.0008327 L28,18.9991673 C28,20.1036393 27.1034413,21 26,21 C24.8946522,21 24,20.1058545 24,18.9991673 Z M26,17 C25.448794,17 25,17.4486949 25,18.0008327 L25,18.9991673 C25,19.5534429 25.4468102,20 26,20 C26.551206,20 27,19.5513051 27,18.9991673 L27,18.0008327 C27,17.4465571 26.5531898,17 26,17 Z M24,26.9991673 L24,26.0008327 C24,24.8963607 24.8965587,24 26,24 C27.1053478,24 28,24.8941455 28,26.0008327 L28,26.9991673 C28,28.1036393 27.1034413,29 26,29 C24.8946522,29 24,28.1058545 24,26.9991673 Z M26,25 C25.448794,25 25,25.4486949 25,26.0008327 L25,26.9991673 C25,27.5534429 25.4468102,28 26,28 C26.551206,28 27,27.5513051 27,26.9991673 L27,26.0008327 C27,25.4465571 26.5531898,25 26,25 Z"/>
  </g>
</svg>
