<?xml version="1.0" encoding="UTF-8"?>
<svg width="48px" height="48px" viewBox="0 0 48 48" version="1.1" xmlns="http://www.w3.org/2000/svg" xmlns:xlink="http://www.w3.org/1999/xlink">
    <title>mimetypes/48/text-x-source</title>
    <defs>
        <linearGradient x1="50%" y1="0%" x2="50%" y2="99.2029139%" id="linearGradient-1">
            <stop stop-color="#619FFF" offset="0%"></stop>
            <stop stop-color="#0093E4" offset="100%"></stop>
        </linearGradient>
        <path d="M34,38.4 C34,40.3882251 32.3882251,42 30.4,42 L3.6,42 C1.6117749,42 -2.00601859e-16,40.3882251 -4.4408921e-16,38.4 L0,3.6 C-2.4348735e-16,1.6117749 1.6117749,1.25340945e-15 3.6,8.8817842e-16 L23.4673913,0 L34,10.5 L34,38.4 Z" id="path-2"></path>
        <filter x="-14.7%" y="-9.5%" width="129.4%" height="123.8%" filterUnits="objectBoundingBox" id="filter-3">
            <feOffset dx="0" dy="1" in="SourceAlpha" result="shadowOffsetOuter1"></feOffset>
            <feGaussianBlur stdDeviation="1.5" in="shadowOffsetOuter1" result="shadowBlurOuter1"></feGaussianBlur>
            <feColorMatrix values="0 0 0 0 0.0156862745   0 0 0 0 0.580392157   0 0 0 0 0.898039216  0 0 0 0.5 0" type="matrix" in="shadowBlurOuter1"></feColorMatrix>
        </filter>
        <linearGradient x1="50%" y1="50%" x2="7.99354867%" y2="88.6522186%" id="linearGradient-4">
            <stop stop-color="#FFFFFF" stop-opacity="0.1" offset="0%"></stop>
            <stop stop-color="#FFFFFF" stop-opacity="0.3" offset="100%"></stop>
        </linearGradient>
        <path d="M23.4673913,0 L34,10.5 L26.8423913,10.5 C24.9784303,10.5 23.4673913,8.98896103 23.4673913,7.125 L23.4673913,0 L23.4673913,0 Z" id="path-5"></path>
        <filter x="-19.0%" y="-9.5%" width="138.0%" height="138.1%" filterUnits="objectBoundingBox" id="filter-6">
            <feOffset dx="0" dy="1" in="SourceAlpha" result="shadowOffsetOuter1"></feOffset>
            <feGaussianBlur stdDeviation="0.5" in="shadowOffsetOuter1" result="shadowBlurOuter1"></feGaussianBlur>
            <feComposite in="shadowBlurOuter1" in2="SourceAlpha" operator="out" result="shadowBlurOuter1"></feComposite>
            <feColorMatrix values="0 0 0 0 0   0 0 0 0 0   0 0 0 0 0  0 0 0 0.05 0" type="matrix" in="shadowBlurOuter1"></feColorMatrix>
        </filter>
    </defs>
    <g id="mimetypes/48/text-x-source" stroke="none" stroke-width="1" fill="none" fill-rule="evenodd">
        <g id="编组-2" transform="translate(7, 3)">
            <g id="蒙版">
                <use fill="black" fill-opacity="1" filter="url(#filter-3)" xlink:href="#path-2"></use>
                <use fill="url(#linearGradient-1)" fill-rule="evenodd" xlink:href="#path-2"></use>
            </g>
            <g id="折角">
                <use fill="black" fill-opacity="1" filter="url(#filter-6)" xlink:href="#path-5"></use>
                <use fill="url(#linearGradient-4)" fill-rule="evenodd" xlink:href="#path-5"></use>
            </g>
        </g>
        <path d="M13,18 L17,18 L17,19 L13,19 L13,18 L13,18 Z M20,18 L24,18 L24,19 L20,19 L20,18 L20,18 Z M31,18 L35,18 L35,19 L31,19 L31,18 L31,18 Z M23.843,29.966 L24.843,29.966 L24.843,30.966 L23.843,30.966 L23.843,29.966 L23.843,29.966 Z M16,22 L21,22 L21,23 L16,23 L16,22 L16,22 Z M24,22 L29,22 L29,23 L24,23 L24,22 L24,22 Z M29,26 L35,26 L35,27 L29,27 L29,26 L29,26 Z M21,26 L26,26 L26,27 L21,27 L21,26 L21,26 Z M13,22 L15,22 L15,23 L13,23 L13,22 L13,22 Z M18,18 L19,18 L19,19 L18,19 L18,18 L18,18 Z M22,22 L23,22 L23,23 L22,23 L22,22 L22,22 Z M28,30 L35,30 L35,31 L28,31 L28,30 L28,30 Z M26,30 L27,30 L27,31 L26,31 L26,30 L26,30 Z M27,26 L28,26 L28,27 L27,27 L27,26 L27,26 Z M19,26 L20,26 L20,27 L19,27 L19,26 L19,26 Z M13,26 L18,26 L18,27 L13,27 L13,26 L13,26 Z M13,30 L23,30 L23,31 L13,31 L13,30 L13,30 Z M30,22 L32,22 L32,23 L30,23 L30,22 L30,22 Z M33,22 L35,22 L35,23 L33,23 L33,22 L33,22 Z M16,34 L21,34 L21,35 L16,35 L16,34 L16,34 Z M24,34 L29,34 L29,35 L24,35 L24,34 L24,34 Z M13,34 L15,34 L15,35 L13,35 L13,34 L13,34 Z M22,34 L23,34 L23,35 L22,35 L22,34 L22,34 Z M30,34 L32,34 L32,35 L30,35 L30,34 L30,34 Z M33,34 L35,34 L35,35 L33,35 L33,34 L33,34 Z M25,18 L26,18 L26,19 L25,19 L25,18 L25,18 Z M27,18 L28,18 L28,19 L27,19 L27,18 L27,18 Z M29,18 L30,18 L30,19 L29,19 L29,18 L29,18 Z" id="Combined-Shape" fill="#FFFFFF"></path>
    </g>
</svg>