<?xml version="1.0" encoding="UTF-8"?>
<svg width="48px" height="48px" viewBox="0 0 48 48" version="1.1" xmlns="http://www.w3.org/2000/svg" xmlns:xlink="http://www.w3.org/1999/xlink">
    <title>mimetypes/48/text-x-bak</title>
    <defs>
        <linearGradient x1="50%" y1="0%" x2="50%" y2="98.5008446%" id="linearGradient-1">
            <stop stop-color="#7FCB10" offset="0%"></stop>
            <stop stop-color="#50A100" offset="100%"></stop>
        </linearGradient>
        <path d="M34,38.4 C34,40.3882251 32.3882251,42 30.4,42 L3.6,42 C1.6117749,42 -2.00601859e-16,40.3882251 -4.4408921e-16,38.4 L0,3.6 C-2.4348735e-16,1.6117749 1.6117749,1.25340945e-15 3.6,8.8817842e-16 L23.4673913,0 L34,10.5 L34,38.4 Z" id="path-2"></path>
        <filter x="-14.7%" y="-9.5%" width="129.4%" height="123.8%" filterUnits="objectBoundingBox" id="filter-3">
            <feOffset dx="0" dy="1" in="SourceAlpha" result="shadowOffsetOuter1"></feOffset>
            <feGaussianBlur stdDeviation="1.5" in="shadowOffsetOuter1" result="shadowBlurOuter1"></feGaussianBlur>
            <feColorMatrix values="0 0 0 0 0.46370117   0 0 0 0 0.679376132   0 0 0 0 0  0 0 0 0.5 0" type="matrix" in="shadowBlurOuter1"></feColorMatrix>
        </filter>
        <linearGradient x1="50%" y1="50%" x2="7.99354867%" y2="88.6522186%" id="linearGradient-4">
            <stop stop-color="#FFFFFF" stop-opacity="0.1" offset="0%"></stop>
            <stop stop-color="#FFFFFF" stop-opacity="0.3" offset="100%"></stop>
        </linearGradient>
        <path d="M23.4673913,0 L34,10.5 L26.8423913,10.5 C24.9784303,10.5 23.4673913,8.98896103 23.4673913,7.125 L23.4673913,0 L23.4673913,0 Z" id="path-5"></path>
        <filter x="-19.0%" y="-9.5%" width="138.0%" height="138.1%" filterUnits="objectBoundingBox" id="filter-6">
            <feOffset dx="0" dy="1" in="SourceAlpha" result="shadowOffsetOuter1"></feOffset>
            <feGaussianBlur stdDeviation="0.5" in="shadowOffsetOuter1" result="shadowBlurOuter1"></feGaussianBlur>
            <feComposite in="shadowBlurOuter1" in2="SourceAlpha" operator="out" result="shadowBlurOuter1"></feComposite>
            <feColorMatrix values="0 0 0 0 0   0 0 0 0 0   0 0 0 0 0  0 0 0 0.05 0" type="matrix" in="shadowBlurOuter1"></feColorMatrix>
        </filter>
    </defs>
    <g id="mimetypes/48/text-x-bak" stroke="none" stroke-width="1" fill="none" fill-rule="evenodd">
        <g id="编组-2" transform="translate(7, 3)">
            <g id="蒙版">
                <use fill="black" fill-opacity="1" filter="url(#filter-3)" xlink:href="#path-2"></use>
                <use fill="url(#linearGradient-1)" fill-rule="evenodd" xlink:href="#path-2"></use>
            </g>
            <g id="折角">
                <use fill="black" fill-opacity="1" filter="url(#filter-6)" xlink:href="#path-5"></use>
                <use fill="url(#linearGradient-4)" fill-rule="evenodd" xlink:href="#path-5"></use>
            </g>
        </g>
        <path d="M26.5708622,17.0985619 L21.5912869,17.108521 C22.1332486,17.4532001 22.8515968,18.2260706 23.4436889,19.1103103 C24.1050313,20.0979725 24.6313726,21.2344632 25.0271938,22.2275244 L23.6229536,23.0441748 L28.1045714,23.0342156 L30.195993,19.090392 L29.0805681,19.8373283 L28.3734684,18.4928429 C27.8993953,17.734129 27.4647684,17.1839649 26.5708622,17.0985619 L26.5708622,17.0985619 Z M20.406148,17.2579083 C20.1021166,17.2514611 19.7780851,17.3052813 19.4201921,17.4471321 L17.2490973,20.6639378 L21.0734111,23.2234395 L23.1249961,19.3493299 C22.5580097,18.5128416 21.7236177,17.2858519 20.406148,17.2579083 L20.406148,17.2579083 Z M30.9130518,22.7254819 L27.0588606,25.2053104 L28.8415485,29.0694608 L30.3752577,29.0794799 C31.2709426,29.0897166 32.7123449,27.7698621 32.6559032,26.8186928 L30.9130518,22.7254819 L30.9130518,22.7254819 Z M18.1354617,23.6915195 L13.9725367,23.92058 L15.3070629,24.647598 L14.8589011,25.5937173 C13.4125676,28.6858615 15.2420432,30.1937138 17.4084437,33.2025083 C17.0988677,32.4555599 17.1174615,31.6561773 17.3885254,30.8820262 L19.3106414,26.7688971 L20.5156986,27.3963236 L18.1354617,23.6915195 L18.1354617,23.6915195 Z M26.3119243,28.1233415 L24.2603393,32.0372877 L26.3119243,35.9014381 L26.3218834,34.307974 L27.3277576,34.307974 C30.5734416,34.3065081 31.0218628,31.8972187 32.5861891,28.4918301 C32.0960418,29.119835 31.4161422,29.450461 30.6441548,29.5375409 L26.3218834,29.5475001 L26.3119243,28.1233415 L26.3119243,28.1233415 Z M23.0752003,29.3981128 L18.6035417,29.5475001 L17.9064012,30.9915769 C17.4982714,31.8401195 17.9676173,33.8080508 18.7927656,34.1785051 L23.0453229,34.1785051 L23.0752003,29.3981128 L23.0752003,29.3981128 Z" id="path4068" fill="#FFFFFF"></path>
    </g>
</svg>