<?xml version="1.0" encoding="UTF-8"?>
<svg width="48px" height="48px" viewBox="0 0 48 48" version="1.1" xmlns="http://www.w3.org/2000/svg" xmlns:xlink="http://www.w3.org/1999/xlink">
    <title>mimetypes/48/text-x-octave</title>
    <defs>
        <linearGradient x1="50%" y1="0%" x2="50%" y2="100%" id="linearGradient-1">
            <stop stop-color="#FFA045" offset="0%"></stop>
            <stop stop-color="#ED6415" offset="100%"></stop>
        </linearGradient>
        <path d="M34,38.4 C34,40.3882251 32.3882251,42 30.4,42 L3.6,42 C1.6117749,42 -2.00601859e-16,40.3882251 -4.4408921e-16,38.4 L0,3.6 C-2.4348735e-16,1.6117749 1.6117749,1.25340945e-15 3.6,8.8817842e-16 L23.4673913,0 L34,10.5 L34,38.4 Z" id="path-2"></path>
        <filter x="-14.7%" y="-9.5%" width="129.4%" height="123.8%" filterUnits="objectBoundingBox" id="filter-3">
            <feOffset dx="0" dy="1" in="SourceAlpha" result="shadowOffsetOuter1"></feOffset>
            <feGaussianBlur stdDeviation="1.5" in="shadowOffsetOuter1" result="shadowBlurOuter1"></feGaussianBlur>
            <feColorMatrix values="0 0 0 0 0.937254902   0 0 0 0 0.415686275   0 0 0 0 0.101960784  0 0 0 0.5 0" type="matrix" in="shadowBlurOuter1"></feColorMatrix>
        </filter>
        <linearGradient x1="50%" y1="50%" x2="7.99354867%" y2="88.6522186%" id="linearGradient-4">
            <stop stop-color="#FFFFFF" stop-opacity="0.1" offset="0%"></stop>
            <stop stop-color="#FFFFFF" stop-opacity="0.3" offset="100%"></stop>
        </linearGradient>
        <path d="M23.4673913,0 L34,10.5 L26.8423913,10.5 C24.9784303,10.5 23.4673913,8.98896103 23.4673913,7.125 L23.4673913,0 L23.4673913,0 Z" id="path-5"></path>
        <filter x="-19.0%" y="-9.5%" width="138.0%" height="138.1%" filterUnits="objectBoundingBox" id="filter-6">
            <feOffset dx="0" dy="1" in="SourceAlpha" result="shadowOffsetOuter1"></feOffset>
            <feGaussianBlur stdDeviation="0.5" in="shadowOffsetOuter1" result="shadowBlurOuter1"></feGaussianBlur>
            <feComposite in="shadowBlurOuter1" in2="SourceAlpha" operator="out" result="shadowBlurOuter1"></feComposite>
            <feColorMatrix values="0 0 0 0 0   0 0 0 0 0   0 0 0 0 0  0 0 0 0.05 0" type="matrix" in="shadowBlurOuter1"></feColorMatrix>
        </filter>
    </defs>
    <g id="mimetypes/48/text-x-octave" stroke="none" stroke-width="1" fill="none" fill-rule="evenodd">
        <g id="编组-2" transform="translate(7, 3)">
            <g id="蒙版" fill-rule="nonzero">
                <use fill="black" fill-opacity="1" filter="url(#filter-3)" xlink:href="#path-2"></use>
                <use fill="url(#linearGradient-1)" xlink:href="#path-2"></use>
            </g>
            <g id="折角">
                <use fill="black" fill-opacity="1" filter="url(#filter-6)" xlink:href="#path-5"></use>
                <use fill="url(#linearGradient-4)" fill-rule="evenodd" xlink:href="#path-5"></use>
            </g>
        </g>
        <path d="M23.75,16 C18.3652237,16 14,20.3652237 14,25.75 C14,31.1347763 18.3652237,35.5 23.75,35.5 C29.1347763,35.5 33.5,31.1347763 33.5,25.75 C33.5,23.1641392 32.4727708,20.6841886 30.6442911,18.8557089 C28.8158114,17.0272292 26.3358608,16 23.75,16 L23.75,16 Z M24.5,17.5 C28.6421356,17.5 32,20.8578644 32,25 C32,29.1421356 28.6421356,32.5 24.5,32.5 C20.3578644,32.5 17,29.1421356 17,25 C17,20.8578644 20.3578644,17.5 24.5,17.5 Z" id="形状" fill-opacity="0.5" fill="#FFFFFF"></path>
        <path d="M27.9993492,17 C27.4453492,17 27,17.4453492 27,17.9993492 L27,21.0006508 C27,21.5546508 27.4453492,22 27.9993492,22 L31.0006508,22 C31.5546508,22 32,21.5546508 32,21.0006508 L32,17.9993492 C32,17.4453492 31.5546508,17 31.0006508,17 L27.9993492,17 Z M14.6,22 C13.7136,22 13,22.7136 13,23.6 L13,28.4 C13,29.2864 13.7136,30 14.6,30 L19.4,30 C20.2864,30 21,29.2864 21,28.4 L21,23.6 C21,22.7136 20.2864,22 19.4,22 L14.6,22 Z M29.1997068,28 C28.5349067,28 28,28.5349067 28,29.1997068 L28,32.8002932 C28,33.4650933 28.5349067,34 29.1997068,34 L32.8002932,34 C33.4650933,34 34,33.4650933 34,32.8002932 L34,29.1997068 C34,28.5349067 33.4650933,28 32.8002932,28 L29.1997068,28 Z" id="形状" fill="#FFFFFF"></path>
    </g>
</svg>