<?xml version="1.0" encoding="UTF-8"?>
<svg width="48px" height="48px" viewBox="0 0 48 48" version="1.1" xmlns="http://www.w3.org/2000/svg" xmlns:xlink="http://www.w3.org/1999/xlink">
    <title>mimetypes/48/vcalendar</title>
    <defs>
        <linearGradient x1="50%" y1="0%" x2="50%" y2="99.6278505%" id="linearGradient-1">
            <stop stop-color="#EC5959" offset="0%"></stop>
            <stop stop-color="#D13F3F" offset="100%"></stop>
        </linearGradient>
        <path d="M34,38.4 C34,40.3882251 32.3882251,42 30.4,42 L3.6,42 C1.6117749,42 -2.00601859e-16,40.3882251 -4.4408921e-16,38.4 L0,3.6 C-2.4348735e-16,1.6117749 1.6117749,1.25340945e-15 3.6,8.8817842e-16 L23.4673913,0 L34,10.5 L34,38.4 Z" id="path-2"></path>
        <filter x="-14.7%" y="-9.5%" width="129.4%" height="123.8%" filterUnits="objectBoundingBox" id="filter-3">
            <feOffset dx="0" dy="1" in="SourceAlpha" result="shadowOffsetOuter1"></feOffset>
            <feGaussianBlur stdDeviation="1.5" in="shadowOffsetOuter1" result="shadowBlurOuter1"></feGaussianBlur>
            <feColorMatrix values="0 0 0 0 0.6622226   0 0 0 0 0   0 0 0 0 0  0 0 0 0.5 0" type="matrix" in="shadowBlurOuter1"></feColorMatrix>
        </filter>
        <linearGradient x1="50%" y1="50%" x2="7.99354867%" y2="88.6522186%" id="linearGradient-4">
            <stop stop-color="#FFFFFF" stop-opacity="0.1" offset="0%"></stop>
            <stop stop-color="#FFFFFF" stop-opacity="0.3" offset="100%"></stop>
        </linearGradient>
        <path d="M23.4673913,0 L34,10.5 L26.8423913,10.5 C24.9784303,10.5 23.4673913,8.98896103 23.4673913,7.125 L23.4673913,0 L23.4673913,0 Z" id="path-5"></path>
        <filter x="-19.0%" y="-9.5%" width="138.0%" height="138.1%" filterUnits="objectBoundingBox" id="filter-6">
            <feOffset dx="0" dy="1" in="SourceAlpha" result="shadowOffsetOuter1"></feOffset>
            <feGaussianBlur stdDeviation="0.5" in="shadowOffsetOuter1" result="shadowBlurOuter1"></feGaussianBlur>
            <feComposite in="shadowBlurOuter1" in2="SourceAlpha" operator="out" result="shadowBlurOuter1"></feComposite>
            <feColorMatrix values="0 0 0 0 0   0 0 0 0 0   0 0 0 0 0  0 0 0 0.05 0" type="matrix" in="shadowBlurOuter1"></feColorMatrix>
        </filter>
    </defs>
    <g id="mimetypes/48/vcalendar" stroke="none" stroke-width="1" fill="none" fill-rule="evenodd">
        <g id="编组-2" transform="translate(7, 3)">
            <g id="蒙版">
                <use fill="black" fill-opacity="1" filter="url(#filter-3)" xlink:href="#path-2"></use>
                <use fill="url(#linearGradient-1)" fill-rule="evenodd" xlink:href="#path-2"></use>
            </g>
            <g id="折角">
                <use fill="black" fill-opacity="1" filter="url(#filter-6)" xlink:href="#path-5"></use>
                <use fill="url(#linearGradient-4)" fill-rule="evenodd" xlink:href="#path-5"></use>
            </g>
        </g>
        <path d="M18,18 L18,18.4991673 C18,19.3214545 18.6715729,20 19.5,20 C20.3342028,20 21,19.3280543 21,18.4991673 L21,18 L27,18 L27,18.4991673 C27,19.3214545 27.6715729,20 28.5,20 C29.3342028,20 30,19.3280543 30,18.4991673 L30,18 L32.0066023,18 C32.5552407,18 33,18.4446309 33,19.0008717 L33,32.9991283 C33,33.5518945 32.5550537,34 32.0066023,34 L15.9933977,34 C15.4447593,34 15,33.5553691 15,32.9991283 L15,19.0008717 C15,18.4481055 15.4449463,18 15.9933977,18 L18,18 Z M32,21 L16,21 L16,33 L32,33 L32,21 Z M25,28 L25,30 L23,30 L23,28 L25,28 Z M20,28 L20,30 L18,30 L18,28 L20,28 Z M30,28 L30,30 L28,30 L28,28 L30,28 Z M20,24 L20,26 L18,26 L18,24 L20,24 Z M25,24 L25,26 L23,26 L23,24 L25,24 Z M30,24 L30,26 L28,26 L28,24 L30,24 Z M19.5,16 C19.7761424,16 20,16.2238576 20,16.5 L20,18.5 C20,18.7761424 19.7761424,19 19.5,19 C19.2238576,19 19,18.7761424 19,18.5 L19,16.5 C19,16.2238576 19.2238576,16 19.5,16 Z M28.5,16 C28.7761424,16 29,16.2238576 29,16.5 L29,18.5 C29,18.7761424 28.7761424,19 28.5,19 C28.2238576,19 28,18.7761424 28,18.5 L28,16.5 C28,16.2238576 28.2238576,16 28.5,16 Z" id="形状结合" fill="#FFFFFF"></path>
    </g>
</svg>