<svg xmlns="http://www.w3.org/2000/svg" xmlns:xlink="http://www.w3.org/1999/xlink" width="96" height="96" viewBox="0 0 96 96">
  <defs>
    <linearGradient id="application-msword-template-c" x1="50%" x2="50%" y1="0%" y2="100%">
      <stop offset="0%" stop-color="#4358D4"/>
      <stop offset="100%" stop-color="#001AA5"/>
    </linearGradient>
    <path id="application-msword-template-b" d="M42,0 L64,22 L64,69 C64,73.9705627 59.9705627,78 55,78 L9,78 C4.02943725,78 6.08718376e-16,73.9705627 0,69 L0,9 C-6.08718376e-16,4.02943725 4.02943725,4.46579124e-15 9,3.55271368e-15 L42,0 Z"/>
    <filter id="application-msword-template-a" width="131.2%" height="125.6%" x="-15.6%" y="-10.3%" filterUnits="objectBoundingBox">
      <feOffset dy="2" in="SourceAlpha" result="shadowOffsetOuter1"/>
      <feGaussianBlur in="shadowOffsetOuter1" result="shadowBlurOuter1" stdDeviation="3"/>
      <feColorMatrix in="shadowBlurOuter1" values="0 0 0 0 0.133333333   0 0 0 0 0.215686275   0 0 0 0 0.650980392  0 0 0 0.5 0"/>
    </filter>
    <linearGradient id="application-msword-template-f" x1="50%" x2="11.493%" y1="50%" y2="88.683%">
      <stop offset="0%" stop-color="#FFF" stop-opacity=".1"/>
      <stop offset="100%" stop-color="#FFF" stop-opacity=".3"/>
    </linearGradient>
    <path id="application-msword-template-e" d="M42,0 L64,22 L51,22 C46.0294373,22 42,17.9705627 42,13 L42,0 Z"/>
    <filter id="application-msword-template-d" width="150%" height="150%" x="-25%" y="-15.9%" filterUnits="objectBoundingBox">
      <feOffset dy="2" in="SourceAlpha" result="shadowOffsetOuter1"/>
      <feGaussianBlur in="shadowOffsetOuter1" result="shadowBlurOuter1" stdDeviation="1.5"/>
      <feComposite in="shadowBlurOuter1" in2="SourceAlpha" operator="out" result="shadowBlurOuter1"/>
      <feColorMatrix in="shadowBlurOuter1" values="0 0 0 0 0   0 0 0 0 0   0 0 0 0 0  0 0 0 0.05 0"/>
    </filter>
  </defs>
  <g fill="none" fill-rule="evenodd">
    <g transform="translate(16 10)">
      <use fill="#000" filter="url(#application-msword-template-a)" xlink:href="#application-msword-template-b"/>
      <use fill="url(#application-msword-template-c)" xlink:href="#application-msword-template-b"/>
      <use fill="#000" filter="url(#application-msword-template-d)" xlink:href="#application-msword-template-e"/>
      <use fill="url(#application-msword-template-f)" xlink:href="#application-msword-template-e"/>
    </g>
    <path fill="#FFF" d="M36,61.9999971 L36,39.9960982 L30.9999991,39.9960937 C30.4477144,39.9960933 29.9999995,39.5483776 30,38.9960929 C30.0000005,38.4438081 30.4477161,37.9960933 31.0000009,37.9960938 L36,37.9960982 L36,33 C36,32.4477153 36.4477153,32 37,32 C37.5522847,32 38,32.4477153 38,33 L38,37.9961 L58,37.996118 L58,33 C58,32.4477153 58.4477153,32 59,32 C59.5522847,32 60,32.4477153 60,33 L60,37.9961198 L65.0000009,37.9961243 C65.5522856,37.9961248 66.0000005,38.4438404 66,38.9961252 C65.9999995,39.5484099 65.5522839,39.9961248 64.9999991,39.9961243 L60,39.9961198 L60,49 C60,49.5522847 59.5522847,50 59,50 C58.4477153,50 58,49.5522847 58,49 L58,39.996118 L38,39.9961 L38,61.999999 L47.000001,62.0000076 C47.5522857,62.0000082 48.0000005,62.4477238 48,63.0000086 C47.9999995,63.5522933 47.5522838,64.0000082 46.999999,64.0000076 L38,63.999999 L38,69 C38,69.5522847 37.5522847,70 37,70 C36.4477153,70 36,69.5522847 36,69 L36,63.9999971 L30.999999,63.9999924 C30.4477143,63.9999918 29.9999995,63.5522762 30,62.9999914 C30.0000005,62.4477067 30.4477162,61.9999918 31.000001,61.9999924 L36,61.9999971 Z M50,67.5 L50,56.5 L58,52 L63.9753521,54.2711268 L63.9753521,70 L58,72 L50,67.5 L58,68 L58,56.5 L52,58 L52,66 L50,67.5 Z"/>
  </g>
</svg>
