<svg xmlns="http://www.w3.org/2000/svg" xmlns:xlink="http://www.w3.org/1999/xlink" width="96" height="96" viewBox="0 0 96 96">
  <defs>
    <linearGradient id="application-x-troff-man-c" x1="50%" x2="50%" y1="0%" y2="100%">
      <stop offset="0%" stop-color="#FC7440"/>
      <stop offset="100%" stop-color="#F04E11"/>
    </linearGradient>
    <path id="application-x-troff-man-b" d="M42,0 L64,22 L64,69 C64,73.9705627 59.9705627,78 55,78 L9,78 C4.02943725,78 6.08718376e-16,73.9705627 0,69 L0,9 C-6.08718376e-16,4.02943725 4.02943725,4.46579124e-15 9,3.55271368e-15 L42,0 Z"/>
    <filter id="application-x-troff-man-a" width="131.2%" height="125.6%" x="-15.6%" y="-10.3%" filterUnits="objectBoundingBox">
      <feOffset dy="2" in="SourceAlpha" result="shadowOffsetOuter1"/>
      <feGaussianBlur in="shadowOffsetOuter1" result="shadowBlurOuter1" stdDeviation="3"/>
      <feColorMatrix in="shadowBlurOuter1" values="0 0 0 0 0.941176471   0 0 0 0 0.309803922   0 0 0 0 0.0705882353  0 0 0 0.5 0"/>
    </filter>
    <linearGradient id="application-x-troff-man-f" x1="50%" x2="11.493%" y1="50%" y2="88.683%">
      <stop offset="0%" stop-color="#FFF" stop-opacity=".1"/>
      <stop offset="100%" stop-color="#FFF" stop-opacity=".3"/>
    </linearGradient>
    <path id="application-x-troff-man-e" d="M42,0 L64,22 L51,22 C46.0294373,22 42,17.9705627 42,13 L42,0 Z"/>
    <filter id="application-x-troff-man-d" width="150%" height="150%" x="-25%" y="-15.9%" filterUnits="objectBoundingBox">
      <feOffset dy="2" in="SourceAlpha" result="shadowOffsetOuter1"/>
      <feGaussianBlur in="shadowOffsetOuter1" result="shadowBlurOuter1" stdDeviation="1.5"/>
      <feComposite in="shadowBlurOuter1" in2="SourceAlpha" operator="out" result="shadowBlurOuter1"/>
      <feColorMatrix in="shadowBlurOuter1" values="0 0 0 0 0   0 0 0 0 0   0 0 0 0 0  0 0 0 0.05 0"/>
    </filter>
  </defs>
  <g fill="none" fill-rule="evenodd">
    <g transform="translate(16 10)">
      <use fill="#000" filter="url(#application-x-troff-man-a)" xlink:href="#application-x-troff-man-b"/>
      <use fill="url(#application-x-troff-man-c)" xlink:href="#application-x-troff-man-b"/>
      <use fill="#000" filter="url(#application-x-troff-man-d)" xlink:href="#application-x-troff-man-e"/>
      <use fill="url(#application-x-troff-man-f)" xlink:href="#application-x-troff-man-e"/>
    </g>
    <path fill="#FFF" d="M61,67 L40,67 L40,35 L61,35 L61,67 Z M33,33 L34,33 L62,33 L63,33 L63,34 L63,68 L63,69 L62,69 L34,69 L33,69 L33,68 L33,34 L33,33 Z M50,35 L50,52 L53,48 L56,52 L56,35 L50,35 Z"/>
  </g>
</svg>
