<svg xmlns="http://www.w3.org/2000/svg" xmlns:xlink="http://www.w3.org/1999/xlink" width="96" height="96" viewBox="0 0 96 96">
  <defs>
    <linearGradient id="multipart-encrypted-c" x1="50%" x2="50%" y1="0%" y2="98.947%">
      <stop offset="0%" stop-color="#F7F7F7"/>
      <stop offset="100%" stop-color="#F6F6F6"/>
    </linearGradient>
    <path id="multipart-encrypted-b" d="M42,0 L64,22 L64,69 C64,73.9705627 59.9705627,78 55,78 L9,78 C4.02943725,78 6.08718376e-16,73.9705627 0,69 L0,9 C-6.08718376e-16,4.02943725 4.02943725,4.46579124e-15 9,3.55271368e-15 L42,0 Z"/>
    <filter id="multipart-encrypted-a" width="132.8%" height="126.9%" x="-16.4%" y="-10.9%" filterUnits="objectBoundingBox">
      <feMorphology in="SourceAlpha" operator="dilate" radius=".5" result="shadowSpreadOuter1"/>
      <feOffset dy="2" in="shadowSpreadOuter1" result="shadowOffsetOuter1"/>
      <feGaussianBlur in="shadowOffsetOuter1" result="shadowBlurOuter1" stdDeviation="3"/>
      <feComposite in="shadowBlurOuter1" in2="SourceAlpha" operator="out" result="shadowBlurOuter1"/>
      <feColorMatrix in="shadowBlurOuter1" values="0 0 0 0 0   0 0 0 0 0   0 0 0 0 0  0 0 0 0.1 0"/>
    </filter>
    <linearGradient id="multipart-encrypted-f" x1="50%" x2="11.493%" y1="50%" y2="88.683%">
      <stop offset="0%" stop-color="#FFF" stop-opacity=".1"/>
      <stop offset="100%" stop-color="#FFF" stop-opacity=".3"/>
    </linearGradient>
    <path id="multipart-encrypted-e" d="M42,0 L64,22 L51,22 C46.0294373,22 42,17.9705627 42,13 L42,0 Z"/>
    <filter id="multipart-encrypted-d" width="150%" height="150%" x="-25%" y="-15.9%" filterUnits="objectBoundingBox">
      <feOffset dy="2" in="SourceAlpha" result="shadowOffsetOuter1"/>
      <feGaussianBlur in="shadowOffsetOuter1" result="shadowBlurOuter1" stdDeviation="1.5"/>
      <feComposite in="shadowBlurOuter1" in2="SourceAlpha" operator="out" result="shadowBlurOuter1"/>
      <feColorMatrix in="shadowBlurOuter1" values="0 0 0 0 0   0 0 0 0 0   0 0 0 0 0  0 0 0 0.05 0"/>
    </filter>
  </defs>
  <g fill="none" fill-rule="evenodd">
    <g transform="translate(16 10)">
      <use fill="#000" filter="url(#multipart-encrypted-a)" xlink:href="#multipart-encrypted-b"/>
      <path fill="url(#multipart-encrypted-c)" stroke="#000" stroke-opacity=".1" stroke-width=".5" d="M42.1767767,-0.176776695 L64.1767767,21.8232233 L64.25,22 L64.25,69 C64.25,74.1086339 60.1086339,78.25 55,78.25 L9,78.25 C3.89136606,78.25 -0.25,74.1086339 -0.25,69 L-0.25,9 C-0.25,3.89136606 3.89136606,-0.25 9,-0.25 L42,-0.25 L42.1767767,-0.176776695 Z"/>
      <use fill="#000" filter="url(#multipart-encrypted-d)" xlink:href="#multipart-encrypted-e"/>
      <use fill="url(#multipart-encrypted-f)" xlink:href="#multipart-encrypted-e"/>
    </g>
    <path fill="#6E79E0" d="M34,72 L36,72 L36,74 L30,74 L30,72 L32,72 L32,66 L30,66 L30,64 L34,64 L34,72 Z M34,56 L36,56 L36,58 L30,58 L30,56 L32,56 L32,50 L30,50 L30,48 L34,48 L34,56 Z M64,72 L66,72 L66,74 L60,74 L60,72 L62,72 L62,66 L60,66 L60,64 L64,64 L64,72 Z M64,56 L66,56 L66,58 L60,58 L60,56 L62,56 L62,50 L60,50 L60,48 L64,48 L64,56 Z M44,56 L46,56 L46,58 L40,58 L40,56 L42,56 L42,50 L40,50 L40,48 L44,48 L44,56 Z M44,40 L46,40 L46,42 L40,42 L40,40 L42,40 L42,34 L40,34 L40,32 L44,32 L44,40 Z M30,37.9983345 L30,36.0016655 C30,33.7927213 31.7931174,32 34,32 C36.2106956,32 38,33.7882909 38,36.0016655 L38,37.9983345 C38,40.2072787 36.2068826,42 34,42 C31.7893044,42 30,40.2117091 30,37.9983345 Z M34,34 C32.897588,34 32,34.8973897 32,36.0016655 L32,37.9983345 C32,39.1068858 32.8936203,40 34,40 C35.102412,40 36,39.1026103 36,37.9983345 L36,36.0016655 C36,34.8931142 35.1063797,34 34,34 Z M38,69.9983345 L38,68.0016655 C38,65.7927213 39.7931174,64 42,64 C44.2106956,64 46,65.7882909 46,68.0016655 L46,69.9983345 C46,72.2072787 44.2068826,74 42,74 C39.7893044,74 38,72.2117091 38,69.9983345 Z M42,66 C40.897588,66 40,66.8973897 40,68.0016655 L40,69.9983345 C40,71.1068858 40.8936203,72 42,72 C43.102412,72 44,71.1026103 44,69.9983345 L44,68.0016655 C44,66.8931142 43.1063797,66 42,66 Z M49,69.9983345 L49,68.0016655 C49,65.7927213 50.7931174,64 53,64 C55.2106956,64 57,65.7882909 57,68.0016655 L57,69.9983345 C57,72.2072787 55.2068826,74 53,74 C50.7893044,74 49,72.2117091 49,69.9983345 Z M53,66 C51.897588,66 51,66.8973897 51,68.0016655 L51,69.9983345 C51,71.1068858 51.8936203,72 53,72 C54.102412,72 55,71.1026103 55,69.9983345 L55,68.0016655 C55,66.8931142 54.1063797,66 53,66 Z M58,37.9983345 L58,36.0016655 C58,33.7927213 59.7931174,32 62,32 C64.2106956,32 66,33.7882909 66,36.0016655 L66,37.9983345 C66,40.2072787 64.2068826,42 62,42 C59.7893044,42 58,40.2117091 58,37.9983345 Z M62,34 C60.897588,34 60,34.8973897 60,36.0016655 L60,37.9983345 C60,39.1068858 60.8936203,40 62,40 C63.102412,40 64,39.1026103 64,37.9983345 L64,36.0016655 C64,34.8931142 63.1063797,34 62,34 Z M48,37.9983345 L48,36.0016655 C48,33.7927213 49.7931174,32 52,32 C54.2106956,32 56,33.7882909 56,36.0016655 L56,37.9983345 C56,40.2072787 54.2068826,42 52,42 C49.7893044,42 48,40.2117091 48,37.9983345 Z M52,34 C50.897588,34 50,34.8973897 50,36.0016655 L50,37.9983345 C50,39.1068858 50.8936203,40 52,40 C53.102412,40 54,39.1026103 54,37.9983345 L54,36.0016655 C54,34.8931142 53.1063797,34 52,34 Z M48,53.9983345 L48,52.0016655 C48,49.7927213 49.7931174,48 52,48 C54.2106956,48 56,49.7882909 56,52.0016655 L56,53.9983345 C56,56.2072787 54.2068826,58 52,58 C49.7893044,58 48,56.2117091 48,53.9983345 Z M52,50 C50.897588,50 50,50.8973897 50,52.0016655 L50,53.9983345 C50,55.1068858 50.8936203,56 52,56 C53.102412,56 54,55.1026103 54,53.9983345 L54,52.0016655 C54,50.8931142 53.1063797,50 52,50 Z"/>
  </g>
</svg>
