<svg xmlns="http://www.w3.org/2000/svg" xmlns:xlink="http://www.w3.org/1999/xlink" width="96" height="96" viewBox="0 0 96 96">
  <defs>
    <linearGradient id="text-xhtml+xml-c" x1="50%" x2="50%" y1="0%" y2="99.203%">
      <stop offset="0%" stop-color="#619FFF"/>
      <stop offset="100%" stop-color="#0093E4"/>
    </linearGradient>
    <path id="text-xhtml+xml-b" d="M42,0 L64,22 L64,69 C64,73.9705627 59.9705627,78 55,78 L9,78 C4.02943725,78 6.08718376e-16,73.9705627 0,69 L0,9 C-6.08718376e-16,4.02943725 4.02943725,4.46579124e-15 9,3.55271368e-15 L42,0 Z"/>
    <filter id="text-xhtml+xml-a" width="131.2%" height="125.6%" x="-15.6%" y="-10.3%" filterUnits="objectBoundingBox">
      <feOffset dy="2" in="SourceAlpha" result="shadowOffsetOuter1"/>
      <feGaussianBlur in="shadowOffsetOuter1" result="shadowBlurOuter1" stdDeviation="3"/>
      <feColorMatrix in="shadowBlurOuter1" values="0 0 0 0 0.0156862745   0 0 0 0 0.580392157   0 0 0 0 0.898039216  0 0 0 0.5 0"/>
    </filter>
    <linearGradient id="text-xhtml+xml-f" x1="50%" x2="11.493%" y1="50%" y2="88.683%">
      <stop offset="0%" stop-color="#FFF" stop-opacity=".1"/>
      <stop offset="100%" stop-color="#FFF" stop-opacity=".3"/>
    </linearGradient>
    <path id="text-xhtml+xml-e" d="M42,0 L64,22 L51,22 C46.0294373,22 42,17.9705627 42,13 L42,0 Z"/>
    <filter id="text-xhtml+xml-d" width="150%" height="150%" x="-25%" y="-15.9%" filterUnits="objectBoundingBox">
      <feOffset dy="2" in="SourceAlpha" result="shadowOffsetOuter1"/>
      <feGaussianBlur in="shadowOffsetOuter1" result="shadowBlurOuter1" stdDeviation="1.5"/>
      <feComposite in="shadowBlurOuter1" in2="SourceAlpha" operator="out" result="shadowBlurOuter1"/>
      <feColorMatrix in="shadowBlurOuter1" values="0 0 0 0 0   0 0 0 0 0   0 0 0 0 0  0 0 0 0.05 0"/>
    </filter>
  </defs>
  <g fill="none" fill-rule="evenodd">
    <g transform="translate(16 10)">
      <use fill="#000" filter="url(#text-xhtml+xml-a)" xlink:href="#text-xhtml+xml-b"/>
      <use fill="url(#text-xhtml+xml-c)" xlink:href="#text-xhtml+xml-b"/>
      <use fill="#000" filter="url(#text-xhtml+xml-d)" xlink:href="#text-xhtml+xml-e"/>
      <use fill="url(#text-xhtml+xml-f)" xlink:href="#text-xhtml+xml-e"/>
    </g>
    <path fill="#FFF" d="M54.1153986,41.6730027 C57.6384721,43.7637826 60,47.6061091 60,52 C60,58.627417 54.627417,64 48,64 C43.5670873,64 39.6955794,61.5963408 37.6177138,58.0212602 L37.5552754,58.0093358 C37.559872,57.9852668 37.564523,57.961173 37.5692285,57.9370548 C36.5705813,56.1863131 36,54.1597898 36,52 C36,45.372583 41.372583,40 48,40 C50.1923195,40 52.2473279,40.5878983 54.0159732,41.6146427 C54.0427224,41.6080298 54.0695051,41.6014484 54.0963212,41.5948984 L54.1153986,41.6730027 Z M38.598691,48.583886 C38.2112903,49.6497878 38,50.8002192 38,52 C38,53.0082478 38.1492143,53.9816447 38.4267647,54.8993127 C38.8582543,53.7369338 39.4200545,52.5533795 40.1314579,51.3816288 C39.8647308,51.0468048 39.7053333,50.6226837 39.7053333,50.1613333 C39.7053333,50.0803163 39.7102489,50.0004474 39.719798,49.9220085 C39.3160695,49.4831242 38.9426317,49.035652 38.598691,48.583886 Z M39.4231896,46.855247 C39.793539,47.3982508 40.2102929,47.9395229 40.6747404,48.4697184 C40.9654113,48.2991368 41.3039507,48.2013333 41.6653333,48.2013333 C41.9170545,48.2013333 42.1576926,48.2487859 42.3787901,48.3352335 C43.4630866,47.1165963 44.7022494,46.0196073 46.1041132,45.0609671 C46.066582,44.9094959 46.0466667,44.7510737 46.0466667,44.588 C46.0466667,44.4439951 46.0621968,44.3036174 46.0916735,44.1684505 C45.4310608,43.6499411 44.7597545,43.192116 44.0912136,42.7927759 C42.1396034,43.622348 40.5058048,45.0542956 39.4231896,46.855247 Z M46.2047321,42.1607062 C46.5114845,42.3753257 46.8170938,42.601446 47.1205168,42.83929 C47.3866466,42.7041624 47.6877623,42.628 48.0066667,42.628 C48.5505452,42.628 49.0426837,42.8495254 49.3977755,43.2072695 C49.953547,42.9531843 50.5286325,42.7163537 51.1233365,42.4974266 C50.1406295,42.1746192 49.090707,42 48,42 C47.3871377,42 46.7871521,42.0551317 46.2047321,42.1607062 Z M53.331597,43.5383179 C52.1269994,43.8899637 51.0026624,44.3121599 49.9553384,44.7999638 C49.9343892,44.9947791 49.8848951,45.1810464 49.8111221,45.3544996 C50.1875615,45.7729103 50.5543106,46.2136911 50.9088436,46.6773819 C52.4211954,48.6553745 53.5643175,50.8798225 54.2731234,53.3582098 C54.9245661,53.4628036 55.468705,53.8884317 55.7381284,54.4676823 C56.3909657,54.4293135 57.0587139,54.3632036 57.7416011,54.2684376 C57.9106418,53.5396128 58,52.7802418 58,52 C58,48.4371855 56.1367883,45.3095474 53.331597,43.5383179 Z M57.1530218,56.0339091 C56.6695989,56.0865224 56.1929138,56.125416 55.7229423,56.1508757 C55.5569545,56.4914793 55.2951668,56.7768131 54.9726441,56.9718124 C55.044997,57.6449899 55.0888053,58.3339856 55.1030774,59.0389135 C55.9575252,58.1767258 56.6560961,57.1598015 57.1530218,56.0339091 Z M53.4130623,60.4096921 C53.4529542,59.2756704 53.4142148,58.1861216 53.3012006,57.1398644 C53.1356342,57.0807891 52.9803432,57.0000779 52.838732,56.9011352 C52.7386206,56.962302 52.6366777,57.0252497 52.5330339,57.0899495 C51.2233676,57.9075104 49.9138173,58.8330951 48.6950159,59.8454469 C47.8893031,60.514682 47.1540761,61.1970365 46.5022464,61.8885872 C46.9908234,61.9619668 47.4909701,62 48,62 C49.9946353,62 51.8528733,61.4160135 53.4130623,60.4096921 Z M44.6564923,61.4273786 C45.5045696,60.4420061 46.5022842,59.4828108 47.6215826,58.5531075 C48.7589518,57.6083944 49.9654876,56.739727 51.1797484,55.958646 C48.3765649,55.5480396 45.8621724,54.5945638 43.629628,53.1803344 C43.078328,52.8311074 42.5571786,52.4631976 42.0654679,52.080457 C41.93629,52.1072522 41.8024561,52.1213333 41.6653333,52.1213333 C41.6598178,52.1213333 41.6543076,52.1213106 41.6488028,52.1212651 C40.5943747,53.8280078 39.8872574,55.5653929 39.4589727,57.203816 C40.6457582,59.1475275 42.4773935,60.6545106 44.6564923,61.4273786 Z M34,46 L34,48.5999985 L24,53 L34,57.4000015 L34,60 L22,54.4068522 L22,51.5546039 L34,46 Z M62,46 L74,51.5546039 L74,54.4068522 L62,60 L62,57.4000015 L72,53 L62,48.5999985 L62,46 Z M48.554777,46.4703313 C48.380839,46.5208933 48.1969184,46.548 48.0066667,46.548 C47.7097079,46.548 47.4281738,46.4819592 47.1759499,46.3637634 C45.7924178,47.294379 44.5820766,48.3676941 43.5332804,49.5659859 C43.5930684,49.753738 43.6253333,49.9537677 43.6253333,50.1613333 C43.6253333,50.4650811 43.5562384,50.7526909 43.4329086,51.0093028 C43.7826502,51.2687417 44.1478216,51.5198836 44.5286447,51.7611202 C46.7691146,53.1803701 49.3232006,54.093421 52.2167854,54.3964428 C52.3284228,54.1798998 52.4792235,53.98684 52.6598238,53.826627 C52.0091152,51.5486703 50.9606938,49.5111219 49.5742473,47.6977999 C49.2452801,47.2675463 48.9046144,46.8585278 48.554777,46.4703313 Z"/>
  </g>
</svg>
