<svg xmlns="http://www.w3.org/2000/svg" xmlns:xlink="http://www.w3.org/1999/xlink" width="32" height="32" viewBox="0 0 32 32">
  <defs>
    <path id="application-x-archive-b" d="M7,2.75 C7,2.33578644 7.33578644,2 7.75,2 L14.25,2 C14.6642136,2 15,2.33578644 15,2.75 L15,0.75 C15,0.335786438 15.3357864,7.6089797e-17 15.75,0 L21.25,0 C21.6642136,-7.6089797e-17 22,0.335786438 22,0.75 L22,25.25 C22,25.6642136 21.6642136,26 21.25,26 L15.75,26 C15.3357864,26 15,25.6642136 15,25.25 C15,25.6642136 14.6642136,26 14.25,26 L7.75,26 C7.33578644,26 7,25.6642136 7,25.25 C7,25.6642136 6.66421356,26 6.25,26 L0.75,26 C0.335786438,26 -6.02957711e-17,25.6642136 -1.11022302e-16,25.25 L-1.11022302e-16,1.75 C-1.61748834e-16,1.33578644 0.335786438,1 0.75,1 L6.25,1 C6.66421356,1 7,1.33578644 7,1.75 L7,2.75 Z"/>
    <filter id="application-x-archive-a" width="118.2%" height="115.4%" x="-9.1%" y="-3.8%" filterUnits="objectBoundingBox">
      <feOffset dy="1" in="SourceAlpha" result="shadowOffsetOuter1"/>
      <feGaussianBlur in="shadowOffsetOuter1" result="shadowBlurOuter1" stdDeviation=".5"/>
      <feComposite in="shadowBlurOuter1" in2="SourceAlpha" operator="out" result="shadowBlurOuter1"/>
      <feColorMatrix in="shadowBlurOuter1" values="0 0 0 0 0   0 0 0 0 0   0 0 0 0 0  0 0 0 0.15 0"/>
    </filter>
    <linearGradient id="application-x-archive-c" x1="98.475%" x2="1.525%" y1="48.475%" y2="48.475%">
      <stop offset="0%" stop-color="#780094"/>
      <stop offset="100%" stop-color="#670074"/>
    </linearGradient>
    <linearGradient id="application-x-archive-d" x1="99.455%" x2="3.998%" y1="50.545%" y2="50.545%">
      <stop offset="0%" stop-color="#1C44A8"/>
      <stop offset="100%" stop-color="#023BA8"/>
    </linearGradient>
    <linearGradient id="application-x-archive-e" x1="100%" x2="6.531%" y1="50%" y2="50%">
      <stop offset="0%" stop-color="#286D00"/>
      <stop offset="100%" stop-color="#457000"/>
    </linearGradient>
  </defs>
  <g fill="none" fill-rule="evenodd" transform="translate(5 3)">
    <use fill="#000" filter="url(#application-x-archive-a)" xlink:href="#application-x-archive-b"/>
    <use fill="#000" fill-opacity=".1" xlink:href="#application-x-archive-b"/>
    <path fill="url(#application-x-archive-c)" d="M22,0.75 L22,25.25 C22,25.6642136 21.6642136,26 21.25,26 L15.75,26 C15.3357864,26 15,25.6642136 15,25.25 L15,0.75 C15,0.335786438 15.3357864,7.6089797e-17 15.75,0 L21.25,0 C21.6642136,-7.6089797e-17 22,0.335786438 22,0.75 Z"/>
    <path fill="url(#application-x-archive-d)" d="M15,2.75 L15,25.25 C15,25.6642136 14.6642136,26 14.25,26 L7.75,26 C7.33578644,26 7,25.6642136 7,25.25 L7,2.75 C7,2.33578644 7.33578644,2 7.75,2 L14.25,2 C14.6642136,2 15,2.33578644 15,2.75 Z"/>
    <path fill="url(#application-x-archive-e)" d="M7,1.75 L7,25.25 C7,25.6642136 6.66421356,26 6.25,26 L0.75,26 C0.335786438,26 5.07265313e-17,25.6642136 0,25.25 L0,1.75 C-5.07265313e-17,1.33578644 0.335786438,1 0.75,1 L6.25,1 C6.66421356,1 7,1.33578644 7,1.75 Z"/>
    <path fill="#FFF8F8" fill-opacity=".3" d="M7,12 L7,15 L0,15 L0,12 L7,12 Z M15,12 L22,12 L22,15 L15,15 L15,12 Z"/>
    <path fill="#FFF" fill-opacity=".6" d="M8.5,11 L13.5,11 C13.7761424,11 14,11.2238576 14,11.5 L14,15.5 C14,15.7761424 13.7761424,16 13.5,16 L8.5,16 C8.22385763,16 8,15.7761424 8,15.5 L8,11.5 C8,11.2238576 8.22385763,11 8.5,11 Z M9,12 L9,15 L13,15 L13,12 L9,12 Z M10,13 L12,13 L12,14 L10,14 L10,13 Z"/>
  </g>
</svg>
