<svg xmlns="http://www.w3.org/2000/svg" xmlns:xlink="http://www.w3.org/1999/xlink" width="32" height="32" viewBox="0 0 32 32">
  <defs>
    <path id="application-x-rar-b" d="M12,5.75 C12,5.33578644 12.3357864,5 12.75,5 L19.25,5 C19.6642136,5 20,5.33578644 20,5.75 L20,3.75 C20,3.33578644 20.3357864,3 20.75,3 L26.25,3 C26.6642136,3 27,3.33578644 27,3.75 L27,28.25 C27,28.6642136 26.6642136,29 26.25,29 L20.75,29 C20.3357864,29 20,28.6642136 20,28.25 C20,28.6642136 19.6642136,29 19.25,29 L12.75,29 C12.3357864,29 12,28.6642136 12,28.25 C12,28.6642136 11.6642136,29 11.25,29 L5.75,29 C5.33578644,29 5,28.6642136 5,28.25 L5,4.75 C5,4.33578644 5.33578644,4 5.75,4 L11.25,4 C11.6642136,4 12,4.33578644 12,4.75 L12,5.75 Z"/>
    <filter id="application-x-rar-a" width="118.2%" height="115.4%" x="-9.1%" y="-3.8%" filterUnits="objectBoundingBox">
      <feOffset dy="1" in="SourceAlpha" result="shadowOffsetOuter1"/>
      <feGaussianBlur in="shadowOffsetOuter1" result="shadowBlurOuter1" stdDeviation=".5"/>
      <feComposite in="shadowBlurOuter1" in2="SourceAlpha" operator="out" result="shadowBlurOuter1"/>
      <feColorMatrix in="shadowBlurOuter1" values="0 0 0 0 0   0 0 0 0 0   0 0 0 0 0  0 0 0 0.15 0"/>
    </filter>
    <linearGradient id="application-x-rar-c" x1="98.475%" x2="1.525%" y1="48.475%" y2="48.475%">
      <stop offset="0%" stop-color="#780094"/>
      <stop offset="100%" stop-color="#670074"/>
    </linearGradient>
    <linearGradient id="application-x-rar-d" x1="99.455%" x2="3.998%" y1="50.545%" y2="50.545%">
      <stop offset="0%" stop-color="#1C44A8"/>
      <stop offset="100%" stop-color="#023BA8"/>
    </linearGradient>
    <linearGradient id="application-x-rar-e" x1="100%" x2="6.531%" y1="50%" y2="50%">
      <stop offset="0%" stop-color="#286D00"/>
      <stop offset="100%" stop-color="#457000"/>
    </linearGradient>
  </defs>
  <g fill="none" fill-rule="evenodd">
    <use fill="#000" filter="url(#application-x-rar-a)" xlink:href="#application-x-rar-b"/>
    <use fill="#000" fill-opacity=".1" xlink:href="#application-x-rar-b"/>
    <path fill="url(#application-x-rar-c)" d="M27,3.75 L27,28.25 C27,28.6642136 26.6642136,29 26.25,29 L20.75,29 C20.3357864,29 20,28.6642136 20,28.25 L20,3.75 C20,3.33578644 20.3357864,3 20.75,3 L26.25,3 C26.6642136,3 27,3.33578644 27,3.75 Z"/>
    <path fill="url(#application-x-rar-d)" d="M20,5.75 L20,28.25 C20,28.6642136 19.6642136,29 19.25,29 L12.75,29 C12.3357864,29 12,28.6642136 12,28.25 L12,5.75 C12,5.33578644 12.3357864,5 12.75,5 L19.25,5 C19.6642136,5 20,5.33578644 20,5.75 Z"/>
    <path fill="url(#application-x-rar-e)" d="M12,4.75 L12,28.25 C12,28.6642136 11.6642136,29 11.25,29 L5.75,29 C5.33578644,29 5,28.6642136 5,28.25 L5,4.75 C5,4.33578644 5.33578644,4 5.75,4 L11.25,4 C11.6642136,4 12,4.33578644 12,4.75 Z"/>
    <path fill="#FFF8F8" fill-opacity=".3" d="M12,15 L12,18 L5,18 L5,15 L12,15 Z M20,15 L27,15 L27,18 L20,18 L20,15 Z"/>
    <path fill="#FFF" fill-opacity=".6" d="M13.5 14L18.5 14C18.7761424 14 19 14.2238576 19 14.5L19 18.5C19 18.7761424 18.7761424 19 18.5 19L13.5 19C13.2238576 19 13 18.7761424 13 18.5L13 14.5C13 14.2238576 13.2238576 14 13.5 14zM14 15L14 18 18 18 18 15 14 15zM15 16L17 16 17 17 15 17 15 16zM16.625 25L14.375 25 14 26 13 26 15 21 16 21 18 26 17 26 16.625 25zM16.25 24L15.5 22 14.75 24 16.25 24zM20.7096057 23.9858064C21.4329331 23.8848923 22 23.2581275 22 22.5 22 21.6657972 21.3305244 21 20.5046844 21L20 21 18 21 18 26 19 26 19 24 19.3888889 24 21.1666667 26 22.5 26 20.7096057 23.9858064 20.7096057 23.9858064zM19 22L20.4953156 22C20.7740451 22 21 22.2319336 21 22.5 21 22.7761424 20.785965 23 20.4953156 23L19 23 19 22 19 22z"/>
    <path fill="#FFF" fill-opacity=".6" d="M11.7096057,23.9858064 C12.4329331,23.8848923 13,23.2581275 13,22.5 C13,21.6657972 12.3305244,21 11.5046844,21 L11,21 L9,21 L9,26 L10,26 L10,24 L10.3888889,24 L12.1666667,26 L13.5,26 L11.7096057,23.9858064 L11.7096057,23.9858064 Z M10,22 L11.4953156,22 C11.7740451,22 12,22.2319336 12,22.5 C12,22.7761424 11.785965,23 11.4953156,23 L10,23 L10,22 L10,22 Z"/>
  </g>
</svg>
