<svg xmlns="http://www.w3.org/2000/svg" width="128" height="128" viewBox="0 0 128 128">
  <defs>
    <filter id="media-dvd-a" width="128.3%" height="128.3%" x="-14.2%" y="-14.2%" filterUnits="objectBoundingBox">
      <feOffset dy="2" in="SourceAlpha" result="shadowOffsetOuter1"/>
      <feGaussianBlur in="shadowOffsetOuter1" result="shadowBlurOuter1" stdDeviation="3"/>
      <feComposite in="shadowBlurOuter1" in2="SourceAlpha" operator="out" result="shadowBlurOuter1"/>
      <feColorMatrix in="shadowBlurOuter1" result="shadowMatrixOuter1" values="0 0 0 0 0   0 0 0 0 0   0 0 0 0 0  0 0 0 0.2 0"/>
      <feMerge>
        <feMergeNode in="shadowMatrixOuter1"/>
        <feMergeNode in="SourceGraphic"/>
      </feMerge>
    </filter>
    <linearGradient id="media-dvd-b" x1="28.84%" x2="73.708%" y1="5.606%" y2="93.949%">
      <stop offset="0%" stop-color="#1E8C9B"/>
      <stop offset="47.787%" stop-color="#953A88"/>
      <stop offset="100%" stop-color="#1E8C9B"/>
    </linearGradient>
  </defs>
  <g fill="none" fill-rule="evenodd">
    <g filter="url(#media-dvd-a)" transform="translate(7.667 7.333)">
      <path fill="url(#media-dvd-b)" d="M56.3333333,0.666666667 C87.2612793,0.666666667 112.333333,25.7387207 112.333333,56.6666667 C112.333333,87.5946127 87.2612793,112.666667 56.3333333,112.666667 C25.4053873,112.666667 0.333333333,87.5946127 0.333333333,56.6666667 C0.333333333,25.7387207 25.4053873,0.666666667 56.3333333,0.666666667 Z M56.3333333,38 C46.024018,38 37.6666667,46.3573513 37.6666667,56.6666667 C37.6666667,66.975982 46.024018,75.3333333 56.3333333,75.3333333 C66.6426487,75.3333333 75,66.975982 75,56.6666667 C75,46.3573513 66.6426487,38 56.3333333,38 Z"/>
      <path fill="#FFF" d="M109.666667,56.6666667 C109.666667,27.21148 85.78852,3.33333333 56.3333333,3.33333333 C26.8781467,3.33333333 3,27.21148 3,56.6666667 C3,86.1218533 26.8781467,110 56.3333333,110 C85.78852,110 109.666667,86.1218533 109.666667,56.6666667 Z M56.3333333,83.3333333 C71.0609267,83.3333333 83,71.39426 83,56.6666667 C83,41.9390733 71.0609267,30 56.3333333,30 C41.60574,30 29.6666667,41.9390733 29.6666667,56.6666667 C29.6666667,71.39426 41.60574,83.3333333 56.3333333,83.3333333 L56.3333333,83.3333333 Z" opacity=".397"/>
      <path fill="#CBD4E5" d="M56.3333333,75.3333333 C66.6426487,75.3333333 75,66.975982 75,56.6666667 C75,46.3573513 66.6426487,38 56.3333333,38 C46.024018,38 37.6666667,46.3573513 37.6666667,56.6666667 C37.6666667,66.975982 46.024018,75.3333333 56.3333333,75.3333333 L56.3333333,75.3333333 Z M56.3333333,64.6666667 C60.7516113,64.6666667 64.3333333,61.0849447 64.3333333,56.6666667 C64.3333333,52.2483887 60.7516113,48.6666667 56.3333333,48.6666667 C51.9150553,48.6666667 48.3333333,52.2483887 48.3333333,56.6666667 C48.3333333,61.0849447 51.9150553,64.6666667 56.3333333,64.6666667 L56.3333333,64.6666667 Z" opacity=".8"/>
      <path fill="#B792AF" d="M56.3333333,83.3333333 C71.0609267,83.3333333 83,71.39426 83,56.6666667 C83,41.9390733 71.0609267,30 56.3333333,30 C41.60574,30 29.6666667,41.9390733 29.6666667,56.6666667 C29.6666667,71.39426 41.60574,83.3333333 56.3333333,83.3333333 L56.3333333,83.3333333 Z M56.3333333,72.6666667 C65.1698893,72.6666667 72.3333333,65.5032227 72.3333333,56.6666667 C72.3333333,47.8301107 65.1698893,40.6666667 56.3333333,40.6666667 C47.4967773,40.6666667 40.3333333,47.8301107 40.3333333,56.6666667 C40.3333333,65.5032227 47.4967773,72.6666667 56.3333333,72.6666667 L56.3333333,72.6666667 Z" opacity=".4"/>
      <path fill="#FFF" fill-opacity=".61" d="M56.3333333,3.33333333 C50.7924732,3.33333333 45.4395643,4.13804841 40.3851022,5.63698297 C40.3851022,5.63698292 53.7585357,48.6666667 53.7585358,48.8427958 C54.6001876,48.7266755 55.4597526,48.6666667 56.3333333,48.6666667 C57.275939,48.6666667 58.2022264,48.7365332 59.1072996,48.8713702 C59.1072995,48.7365341 72.4407078,5.63698292 72.4407078,5.68443689 C67.3395116,4.15503901 61.9323823,3.33333333 56.3333333,3.33333333 Z M56.3333333,110.024211 C50.7924732,110.024211 45.4395643,109.219496 40.3851022,107.720561 C40.3851022,107.720561 53.7317756,64.4941781 53.7317759,64.5110368 C54.5819654,64.6295899 55.4504921,64.6908777 56.3333333,64.6908777 C57.2571067,64.6908777 58.1652075,64.6237751 59.0530271,64.4941781 C59.9996544,64.3559969 72.4407078,107.720561 72.4407078,107.673108 C67.3395116,109.202505 61.9323823,110.024211 56.3333333,110.024211 Z" opacity=".25" transform="rotate(-30 56.413 56.679)"/>
    </g>
    <path fill="#443854" d="M50.152,98.576 L50.152,110 L54.12,110 C55.912,110 57.288,109.472 58.248,108.432 C59.16,107.44 59.624,106.048 59.624,104.288 C59.624,102.496 59.192,101.104 58.344,100.144 C57.416,99.088 56.056,98.576 54.248,98.576 L50.152,98.576 Z M51.464,99.712 L54.04,99.712 C55.544,99.712 56.632,100.096 57.336,100.88 C57.992,101.616 58.328,102.752 58.328,104.288 C58.328,105.776 57.96,106.912 57.256,107.68 C56.504,108.464 55.384,108.864 53.896,108.864 L51.464,108.864 L51.464,99.712 Z M60.376,98.576 L64.6,110 L66.216,110 L70.44,98.576 L69,98.576 L65.432,108.576 L65.384,108.576 L61.816,98.576 L60.376,98.576 Z M71.672,98.576 L71.672,110 L75.64,110 C77.432,110 78.808,109.472 79.768,108.432 C80.68,107.44 81.144,106.048 81.144,104.288 C81.144,102.496 80.712,101.104 79.864,100.144 C78.936,99.088 77.576,98.576 75.768,98.576 L71.672,98.576 Z M72.984,99.712 L75.56,99.712 C77.064,99.712 78.152,100.096 78.856,100.88 C79.512,101.616 79.848,102.752 79.848,104.288 C79.848,105.776 79.48,106.912 78.776,107.68 C78.024,108.464 76.904,108.864 75.416,108.864 L72.984,108.864 L72.984,99.712 Z"/>
  </g>
</svg>
