<svg xmlns="http://www.w3.org/2000/svg" width="256" height="256" viewBox="0 0 256 256">
  <defs>
    <filter id="deepin-launcher-256px-a" width="122.9%" height="122.9%" x="-11.4%" y="-11.4%" filterUnits="objectBoundingBox">
      <feOffset dy="4" in="SourceAlpha" result="shadowOffsetOuter1"/>
      <feGaussianBlur in="shadowOffsetOuter1" result="shadowBlurOuter1" stdDeviation="5"/>
      <feComposite in="shadowBlurOuter1" in2="SourceAlpha" operator="out" result="shadowBlurOuter1"/>
      <feColorMatrix in="shadowBlurOuter1" result="shadowMatrixOuter1" values="0 0 0 0 0   0 0 0 0 0   0 0 0 0 0  0 0 0 0.2 0"/>
      <feMerge>
        <feMergeNode in="shadowMatrixOuter1"/>
        <feMergeNode in="SourceGraphic"/>
      </feMerge>
    </filter>
    <linearGradient id="deepin-launcher-256px-b" x1="36.374%" x2="36.374%" y1="10.403%" y2="93.546%">
      <stop offset="0%" stop-color="#FFF"/>
      <stop offset="99.43%" stop-color="#C6D3D5"/>
    </linearGradient>
    <linearGradient id="deepin-launcher-256px-c" x1="100%" x2="0%" y1="0%" y2="100%">
      <stop offset="0%" stop-color="#ECD935"/>
      <stop offset="100%" stop-color="#3BCAB9"/>
    </linearGradient>
    <linearGradient id="deepin-launcher-256px-d" x1="0%" x2="100%" y1="0%" y2="100%">
      <stop offset="0%" stop-color="#00B8E8"/>
      <stop offset="100%" stop-color="#4B5EFF"/>
    </linearGradient>
    <linearGradient id="deepin-launcher-256px-e" x1="0%" x2="100%" y1="0%" y2="100%">
      <stop offset="0%" stop-color="#FFC823"/>
      <stop offset="100%" stop-color="#FF2F78"/>
    </linearGradient>
    <linearGradient id="deepin-launcher-256px-f" x1="81.903%" x2="0%" y1="0%" y2="100%">
      <stop offset="0%" stop-color="#DE00C0"/>
      <stop offset="100%" stop-color="#8720FF"/>
    </linearGradient>
  </defs>
  <g fill="none" fill-rule="evenodd" filter="url(#deepin-launcher-256px-a)" transform="translate(10 10)">
    <path fill="url(#deepin-launcher-256px-b)" d="M0,118 C0,52.8302857 52.8302857,0 118,0 C183.169714,0 236,52.8302857 236,118 C236,183.169714 183.169714,236 118,236 C52.8302857,236 0,183.169714 0,118 Z"/>
    <rect width="44" height="44" x="52.159" y="96" fill="url(#deepin-launcher-256px-c)" rx="8" transform="rotate(-45 74.16 118)"/>
    <rect width="44" height="44" x="96" y="139.841" fill="url(#deepin-launcher-256px-d)" rx="8" transform="rotate(-45 118 161.84)"/>
    <rect width="44" height="44" x="96" y="52.159" fill="url(#deepin-launcher-256px-e)" rx="8" transform="rotate(-45 118 74.16)"/>
    <rect width="44" height="44" x="139.841" y="96" fill="url(#deepin-launcher-256px-f)" rx="8" transform="rotate(-45 161.84 118)"/>
  </g>
</svg>
