<?xml version="1.0" encoding="UTF-8"?>
<svg width="256px" height="256px" viewBox="0 0 256 256" version="1.1" xmlns="http://www.w3.org/2000/svg" xmlns:xlink="http://www.w3.org/1999/xlink">
    <title>folder-publicshare</title>
    <defs>
        <filter x="-7.7%" y="-6.8%" width="115.3%" height="117.7%" filterUnits="objectBoundingBox" id="filter-1">
            <feOffset dx="0" dy="4" in="SourceAlpha" result="shadowOffsetOuter1"></feOffset>
            <feGaussianBlur stdDeviation="5" in="shadowOffsetOuter1" result="shadowBlurOuter1"></feGaussianBlur>
            <feColorMatrix values="0 0 0 0 0   0 0 0 0 0   0 0 0 0 0  0 0 0 0.2 0" type="matrix" in="shadowBlurOuter1" result="shadowMatrixOuter1"></feColorMatrix>
            <feMerge>
                <feMergeNode in="shadowMatrixOuter1"></feMergeNode>
                <feMergeNode in="SourceGraphic"></feMergeNode>
            </feMerge>
        </filter>
        <linearGradient x1="50%" y1="0%" x2="50%" y2="26.3530556%" id="linearGradient-2">
            <stop stop-color="#1FB0EA" offset="0%"></stop>
            <stop stop-color="#2C7FE2" offset="100%"></stop>
        </linearGradient>
        <linearGradient x1="50%" y1="0%" x2="50%" y2="11.7957837%" id="linearGradient-3">
            <stop stop-color="#FFFFFF" offset="0%"></stop>
            <stop stop-color="#CEF5FF" offset="100%"></stop>
        </linearGradient>
        <rect id="path-4" x="10" y="32" width="202" height="83" rx="18"></rect>
        <filter x="-4.5%" y="-10.8%" width="108.9%" height="121.7%" filterUnits="objectBoundingBox" id="filter-5">
            <feOffset dx="0" dy="0" in="SourceAlpha" result="shadowOffsetOuter1"></feOffset>
            <feGaussianBlur stdDeviation="3" in="shadowOffsetOuter1" result="shadowBlurOuter1"></feGaussianBlur>
            <feColorMatrix values="0 0 0 0 0   0 0 0 0 0   0 0 0 0 0  0 0 0 0.2 0" type="matrix" in="shadowBlurOuter1"></feColorMatrix>
        </filter>
        <filter x="-3.5%" y="-8.4%" width="106.9%" height="116.9%" filterUnits="objectBoundingBox" id="filter-6">
            <feOffset dx="0" dy="2" in="SourceAlpha" result="shadowOffsetInner1"></feOffset>
            <feComposite in="shadowOffsetInner1" in2="SourceAlpha" operator="arithmetic" k2="-1" k3="1" result="shadowInnerInner1"></feComposite>
            <feColorMatrix values="0 0 0 0 1   0 0 0 0 1   0 0 0 0 1  0 0 0 0.5 0" type="matrix" in="shadowInnerInner1"></feColorMatrix>
        </filter>
        <linearGradient x1="56.4262458%" y1="0%" x2="56.4262458%" y2="115.461063%" id="linearGradient-7">
            <stop stop-color="#5CCDF1" offset="0%"></stop>
            <stop stop-color="#1881DC" offset="100%"></stop>
        </linearGradient>
        <linearGradient x1="52.0842145%" y1="4.90831823%" x2="52.0842145%" y2="100%" id="linearGradient-8">
            <stop stop-color="#FFFFFF" offset="0%"></stop>
            <stop stop-color="#FFFFFF" stop-opacity="0.6" offset="100%"></stop>
        </linearGradient>
        <path d="M128.25,116.5 C142.19519,116.5 153.5,127.80481 153.5,141.75 C153.5,151.014836 148.510123,159.114223 141.071224,163.507307 C157.623326,167.557085 170,179.599697 170,197.521739 C170,198.890445 168.889578,200 167.519802,200 L88.980198,200 C87.6104225,200 86.5,198.890445 86.5,197.521739 C86.5,179.636147 98.931544,167.579505 115.445173,163.515747 C107.997032,159.125833 103,151.021476 103,141.75 C103,127.80481 114.30481,116.5 128.25,116.5 Z M128.25,168.162162 C109.251709,168.162162 95.1211725,178.395745 92.9818757,193.603415 L92.9293967,194 L163.57267,194 L163.519548,193.59269 C161.413834,178.516725 147.626876,168.380751 128.870145,168.16571 L128.25,168.162162 Z M128.25,122.709016 C117.733955,122.709016 109.209016,131.233955 109.209016,141.75 C109.209016,152.266045 117.733955,160.790984 128.25,160.790984 C138.766045,160.790984 147.290984,152.266045 147.290984,141.75 C147.290984,131.233955 138.766045,122.709016 128.25,122.709016 Z" id="path-9"></path>
        <filter x="-15.6%" y="-13.2%" width="131.1%" height="131.1%" filterUnits="objectBoundingBox" id="filter-10">
            <feOffset dx="0" dy="2" in="SourceAlpha" result="shadowOffsetOuter1"></feOffset>
            <feGaussianBlur stdDeviation="4" in="shadowOffsetOuter1" result="shadowBlurOuter1"></feGaussianBlur>
            <feColorMatrix values="0 0 0 0 0   0 0 0 0 0.42745098   0 0 0 0 0.968627451  0 0 0 0.5 0" type="matrix" in="shadowBlurOuter1"></feColorMatrix>
        </filter>
    </defs>
    <g id="folder-publicshare" stroke="none" stroke-width="1" fill="none" fill-rule="evenodd">
        <g id="folder-256px" transform="translate(17, 45)">
            <g id="Group-2" filter="url(#filter-1)" transform="translate(0, 0)">
                <path d="M124,11.5 C127.036137,18.4831148 133.925344,23 141.539936,23 L194,23 C209.463973,23 222,35.536027 222,51 L222,164 C222,179.463973 209.463973,192 194,192 L28,192 C12.536027,192 -4.07387736e-14,179.463973 -4.26325641e-14,164 L-4.26325641e-14,28 C-4.45263546e-14,12.536027 12.536027,-2.55810237e-14 28,-2.84217094e-14 L106.460064,-2.84217094e-14 C114.074656,-2.98204874e-14 120.963863,4.51688517 124,11.5 Z" id="Mask" fill="url(#linearGradient-2)"></path>
                <g id="Rectangle">
                    <use fill="black" fill-opacity="1" filter="url(#filter-5)" xlink:href="#path-4"></use>
                    <use fill="url(#linearGradient-3)" fill-rule="evenodd" xlink:href="#path-4"></use>
                    <use fill="black" fill-opacity="1" filter="url(#filter-6)" xlink:href="#path-4"></use>
                </g>
                <g id="Group" transform="translate(0, 46)" fill="url(#linearGradient-7)">
                    <path d="M0,0 L222,0 L222,118 C222,133.463973 209.463973,146 194,146 L28,146 C12.536027,146 1.8937905e-15,133.463973 0,118 L0,0 L0,0 Z" id="Rectangle"></path>
                </g>
            </g>
        </g>
        <g id="形状结合">
            <use fill="black" fill-opacity="1" filter="url(#filter-10)" xlink:href="#path-9"></use>
            <use fill="url(#linearGradient-8)" fill-rule="evenodd" xlink:href="#path-9"></use>
        </g>
    </g>
</svg>