<?xml version="1.0" encoding="UTF-8"?>
<svg width="256px" height="256px" viewBox="0 0 256 256" version="1.1" xmlns="http://www.w3.org/2000/svg" xmlns:xlink="http://www.w3.org/1999/xlink">
    <title>folder-pictures</title>
    <defs>
        <filter x="-7.7%" y="-6.8%" width="115.3%" height="117.7%" filterUnits="objectBoundingBox" id="filter-1">
            <feOffset dx="0" dy="4" in="SourceAlpha" result="shadowOffsetOuter1"></feOffset>
            <feGaussianBlur stdDeviation="5" in="shadowOffsetOuter1" result="shadowBlurOuter1"></feGaussianBlur>
            <feColorMatrix values="0 0 0 0 0   0 0 0 0 0   0 0 0 0 0  0 0 0 0.2 0" type="matrix" in="shadowBlurOuter1" result="shadowMatrixOuter1"></feColorMatrix>
            <feMerge>
                <feMergeNode in="shadowMatrixOuter1"></feMergeNode>
                <feMergeNode in="SourceGraphic"></feMergeNode>
            </feMerge>
        </filter>
        <linearGradient x1="50%" y1="0%" x2="50%" y2="26.3530556%" id="linearGradient-2">
            <stop stop-color="#1FB0EA" offset="0%"></stop>
            <stop stop-color="#2C7FE2" offset="100%"></stop>
        </linearGradient>
        <linearGradient x1="50%" y1="0%" x2="50%" y2="11.7957837%" id="linearGradient-3">
            <stop stop-color="#FFFFFF" offset="0%"></stop>
            <stop stop-color="#CEF5FF" offset="100%"></stop>
        </linearGradient>
        <rect id="path-4" x="10" y="32" width="202" height="83" rx="18"></rect>
        <filter x="-4.5%" y="-10.8%" width="108.9%" height="121.7%" filterUnits="objectBoundingBox" id="filter-5">
            <feOffset dx="0" dy="0" in="SourceAlpha" result="shadowOffsetOuter1"></feOffset>
            <feGaussianBlur stdDeviation="3" in="shadowOffsetOuter1" result="shadowBlurOuter1"></feGaussianBlur>
            <feColorMatrix values="0 0 0 0 0   0 0 0 0 0   0 0 0 0 0  0 0 0 0.2 0" type="matrix" in="shadowBlurOuter1"></feColorMatrix>
        </filter>
        <filter x="-3.5%" y="-8.4%" width="106.9%" height="116.9%" filterUnits="objectBoundingBox" id="filter-6">
            <feOffset dx="0" dy="2" in="SourceAlpha" result="shadowOffsetInner1"></feOffset>
            <feComposite in="shadowOffsetInner1" in2="SourceAlpha" operator="arithmetic" k2="-1" k3="1" result="shadowInnerInner1"></feComposite>
            <feColorMatrix values="0 0 0 0 1   0 0 0 0 1   0 0 0 0 1  0 0 0 0.5 0" type="matrix" in="shadowInnerInner1"></feColorMatrix>
        </filter>
        <linearGradient x1="56.4262458%" y1="0%" x2="56.4262458%" y2="115.461063%" id="linearGradient-7">
            <stop stop-color="#5CCDF1" offset="0%"></stop>
            <stop stop-color="#1881DC" offset="100%"></stop>
        </linearGradient>
        <linearGradient x1="50%" y1="0%" x2="50%" y2="98.782966%" id="linearGradient-8">
            <stop stop-color="#FFFFFF" offset="0%"></stop>
            <stop stop-color="#FFFFFF" stop-opacity="0.6" offset="100%"></stop>
        </linearGradient>
        <path d="M8,0 L92,0 C96.418278,-8.11624501e-16 100,3.581722 100,8 L100,62 C100,66.418278 96.418278,70 92,70 L8,70 C3.581722,70 5.73845019e-14,66.418278 5.68434189e-14,62 L5.68434189e-14,8 C5.63023359e-14,3.581722 3.581722,8.11624501e-16 8,0 Z" id="path-9"></path>
        <filter x="-13.0%" y="-15.7%" width="126.0%" height="137.1%" filterUnits="objectBoundingBox" id="filter-10">
            <feOffset dx="0" dy="2" in="SourceAlpha" result="shadowOffsetOuter1"></feOffset>
            <feGaussianBlur stdDeviation="4" in="shadowOffsetOuter1" result="shadowBlurOuter1"></feGaussianBlur>
            <feColorMatrix values="0 0 0 0 0   0 0 0 0 0.42905776   0 0 0 0 0.968670281  0 0 0 0.5 0" type="matrix" in="shadowBlurOuter1"></feColorMatrix>
        </filter>
        <linearGradient x1="50%" y1="-30.2062759%" x2="50%" y2="100%" id="linearGradient-11">
            <stop stop-color="#32F8FF" stop-opacity="0.8" offset="0%"></stop>
            <stop stop-color="#0097FF" offset="100%"></stop>
        </linearGradient>
        <linearGradient x1="41.4684573%" y1="0%" x2="41.4684573%" y2="108.948619%" id="linearGradient-12">
            <stop stop-color="#FF3C14" stop-opacity="0.8" offset="0%"></stop>
            <stop stop-color="#6E00F5" stop-opacity="0.8" offset="43.7482953%"></stop>
            <stop stop-color="#3900FF" stop-opacity="0.655004529" offset="100%"></stop>
        </linearGradient>
        <path d="M48.8059263,22.0969586 C49.3397529,22.5306927 49.8274059,23.0183457 50.26114,23.5521723 L88,70 L8,70 C4.791866,70 2.0247882,68.1116139 0.749680188,65.3857552 L34.73886,23.5521723 C38.2215269,19.265813 44.519567,18.6142917 48.8059263,22.0969586 Z" id="path-13"></path>
        <circle id="path-15" cx="83" cy="13" r="5"></circle>
        <filter x="-130.0%" y="-110.0%" width="360.0%" height="360.0%" filterUnits="objectBoundingBox" id="filter-16">
            <feOffset dx="0" dy="2" in="SourceAlpha" result="shadowOffsetOuter1"></feOffset>
            <feGaussianBlur stdDeviation="4" in="shadowOffsetOuter1" result="shadowBlurOuter1"></feGaussianBlur>
            <feColorMatrix values="0 0 0 0 1   0 0 0 0 0   0 0 0 0 0.260869565  0 0 0 0.5 0" type="matrix" in="shadowBlurOuter1"></feColorMatrix>
        </filter>
    </defs>
    <g id="folder-pictures" stroke="none" stroke-width="1" fill="none" fill-rule="evenodd">
        <g id="folder-256px" transform="translate(17, 45)">
            <g id="Group-2" filter="url(#filter-1)" transform="translate(0, 0)">
                <path d="M124,11.5 C127.036137,18.4831148 133.925344,23 141.539936,23 L194,23 C209.463973,23 222,35.536027 222,51 L222,164 C222,179.463973 209.463973,192 194,192 L28,192 C12.536027,192 -4.07387736e-14,179.463973 -4.26325641e-14,164 L-4.26325641e-14,28 C-4.45263546e-14,12.536027 12.536027,-2.55810237e-14 28,-2.84217094e-14 L106.460064,-2.84217094e-14 C114.074656,-2.98204874e-14 120.963863,4.51688517 124,11.5 Z" id="Mask" fill="url(#linearGradient-2)"></path>
                <g id="Rectangle">
                    <use fill="black" fill-opacity="1" filter="url(#filter-5)" xlink:href="#path-4"></use>
                    <use fill="url(#linearGradient-3)" fill-rule="evenodd" xlink:href="#path-4"></use>
                    <use fill="black" fill-opacity="1" filter="url(#filter-6)" xlink:href="#path-4"></use>
                </g>
                <g id="Group" transform="translate(0, 46)" fill="url(#linearGradient-7)">
                    <path d="M0,0 L222,0 L222,118 C222,133.463973 209.463973,146 194,146 L28,146 C12.536027,146 1.8937905e-15,133.463973 0,118 L0,0 L0,0 Z" id="Rectangle"></path>
                </g>
            </g>
        </g>
        <g id="Group-3" transform="translate(78, 127)">
            <g id="Combined-Shape">
                <use fill="black" fill-opacity="1" filter="url(#filter-10)" xlink:href="#path-9"></use>
                <use fill="url(#linearGradient-8)" fill-rule="evenodd" xlink:href="#path-9"></use>
            </g>
            <path d="M73.9754847,32.3494357 C74.5882303,32.8333094 75.1421998,33.3872789 75.6260735,34.0000245 L99.6337015,64.4001803 C98.614235,67.6457727 95.5820471,70 92,70 L31.502,69.9990615 L59.930003,34.0000245 C63.3527581,29.6656743 69.6411345,28.9266805 73.9754847,32.3494357 Z" id="形状结合" fill="url(#linearGradient-11)"></path>
            <mask id="mask-14" fill="white">
                <use xlink:href="#path-13"></use>
            </mask>
            <use id="形状结合" fill="url(#linearGradient-12)" xlink:href="#path-13"></use>
            <g id="Oval">
                <use fill="black" fill-opacity="1" filter="url(#filter-16)" xlink:href="#path-15"></use>
                <use fill="#FE0053" fill-rule="evenodd" xlink:href="#path-15"></use>
            </g>
        </g>
    </g>
</svg>