<svg xmlns="http://www.w3.org/2000/svg" xmlns:xlink="http://www.w3.org/1999/xlink" width="256" height="256" viewBox="0 0 256 256">
  <defs>
    <filter id="folder-music-256px-a" width="124.3%" height="128.1%" x="-12.2%" y="-14.1%" filterUnits="objectBoundingBox">
      <feOffset dy="4" in="SourceAlpha" result="shadowOffsetOuter1"/>
      <feGaussianBlur in="shadowOffsetOuter1" result="shadowBlurOuter1" stdDeviation="5"/>
      <feComposite in="shadowBlurOuter1" in2="SourceAlpha" operator="out" result="shadowBlurOuter1"/>
      <feColorMatrix in="shadowBlurOuter1" result="shadowMatrixOuter1" values="0 0 0 0 0   0 0 0 0 0   0 0 0 0 0  0 0 0 0.2 0"/>
      <feMerge>
        <feMergeNode in="shadowMatrixOuter1"/>
        <feMergeNode in="SourceGraphic"/>
      </feMerge>
    </filter>
    <linearGradient id="folder-music-256px-b" x1="50%" x2="50%" y1="0%" y2="37.968%">
      <stop offset="0%" stop-color="#00B8FF"/>
      <stop offset="100%" stop-color="#2E5DFF"/>
    </linearGradient>
    <linearGradient id="folder-music-256px-e" x1="50%" x2="50%" y1="0%" y2="11.796%">
      <stop offset="0%" stop-color="#FFF"/>
      <stop offset="100%" stop-color="#CEF5FF"/>
    </linearGradient>
    <rect id="folder-music-256px-d" width="202" height="83" x="10" y="32" rx="18"/>
    <filter id="folder-music-256px-c" width="108.9%" height="121.7%" x="-4.5%" y="-10.8%" filterUnits="objectBoundingBox">
      <feOffset in="SourceAlpha" result="shadowOffsetOuter1"/>
      <feGaussianBlur in="shadowOffsetOuter1" result="shadowBlurOuter1" stdDeviation="3"/>
      <feColorMatrix in="shadowBlurOuter1" values="0 0 0 0 0   0 0 0 0 0   0 0 0 0 0  0 0 0 0.2 0"/>
    </filter>
    <filter id="folder-music-256px-f" width="106.9%" height="116.9%" x="-3.5%" y="-8.4%" filterUnits="objectBoundingBox">
      <feOffset dy="2" in="SourceAlpha" result="shadowOffsetInner1"/>
      <feComposite in="shadowOffsetInner1" in2="SourceAlpha" k2="-1" k3="1" operator="arithmetic" result="shadowInnerInner1"/>
      <feColorMatrix in="shadowInnerInner1" values="0 0 0 0 1   0 0 0 0 1   0 0 0 0 1  0 0 0 0.5 0"/>
    </filter>
    <radialGradient id="folder-music-256px-g" cx="50%" cy="0%" r="117.589%" fx="50%" fy="0%" gradientTransform="scale(.65766 1) rotate(84.615 .63 .143)">
      <stop offset="0%" stop-color="#48D5FF"/>
      <stop offset="100%" stop-color="#0083F6"/>
    </radialGradient>
    <linearGradient id="folder-music-256px-j" x1="52.084%" x2="52.084%" y1="4.908%" y2="100%">
      <stop offset="0%" stop-color="#FFF"/>
      <stop offset="100%" stop-color="#FFF" stop-opacity=".6"/>
    </linearGradient>
    <path id="folder-music-256px-i" d="M49,98 C21.9380473,98 0,76.0619527 0,49 C0,21.9380473 21.9380473,0 49,0 C76.0619527,0 98,21.9380473 98,49 C98,76.0619527 76.0619527,98 49,98 Z M49,81 C66.673112,81 81,66.673112 81,49 C81,31.326888 66.673112,17 49,17 C31.326888,17 17,31.326888 17,49 C17,66.673112 31.326888,81 49,81 Z"/>
    <filter id="folder-music-256px-h" width="126.5%" height="126.5%" x="-13.3%" y="-11.2%" filterUnits="objectBoundingBox">
      <feOffset dy="2" in="SourceAlpha" result="shadowOffsetOuter1"/>
      <feGaussianBlur in="shadowOffsetOuter1" result="shadowBlurOuter1" stdDeviation="4"/>
      <feColorMatrix in="shadowBlurOuter1" values="0 0 0 0 0   0 0 0 0 0.42745098   0 0 0 0 0.968627451  0 0 0 0.5 0"/>
    </filter>
    <linearGradient id="folder-music-256px-k" x1="35.769%" x2="18.77%" y1="0%" y2="100%">
      <stop offset="0%" stop-color="#4B20FF"/>
      <stop offset="100%" stop-color="#9600F1"/>
    </linearGradient>
  </defs>
  <g fill="none" fill-rule="evenodd">
    <g filter="url(#folder-music-256px-a)" transform="translate(17 45)">
      <path fill="url(#folder-music-256px-b)" d="M124,11.5 L124,11.5 C127.036137,18.4831148 133.925344,23 141.539936,23 L194,23 C209.463973,23 222,35.536027 222,51 L222,164 C222,179.463973 209.463973,192 194,192 L28,192 C12.536027,192 -4.07387736e-14,179.463973 -4.26325641e-14,164 L-4.26325641e-14,28 C-4.45263546e-14,12.536027 12.536027,-2.55810237e-14 28,-2.84217094e-14 L106.460064,-1.77635684e-14 C114.074656,-2.59254631e-14 120.963863,4.51688517 124,11.5 Z"/>
      <use fill="#000" filter="url(#folder-music-256px-c)" xlink:href="#folder-music-256px-d"/>
      <use fill="url(#folder-music-256px-e)" xlink:href="#folder-music-256px-d"/>
      <use fill="#000" filter="url(#folder-music-256px-f)" xlink:href="#folder-music-256px-d"/>
      <path fill="url(#folder-music-256px-g)" d="M0,0 L222,0 L222,118 C222,133.463973 209.463973,146 194,146 L28,146 C12.536027,146 1.8937905e-15,133.463973 0,118 L0,0 Z" transform="translate(0 46)"/>
    </g>
    <g transform="translate(79 110)">
      <use fill="#000" filter="url(#folder-music-256px-h)" xlink:href="#folder-music-256px-i"/>
      <use fill="url(#folder-music-256px-j)" xlink:href="#folder-music-256px-i"/>
      <circle cx="49" cy="49" r="43.5" stroke="#0070DD" stroke-opacity=".15"/>
      <circle cx="49" cy="49" r="46.5" stroke="#0070DD" stroke-opacity=".15"/>
      <circle cx="49" cy="49" r="37.5" stroke="#0070DD" stroke-opacity=".15"/>
      <circle cx="49" cy="49" r="40.5" stroke="#0070DD" stroke-opacity=".15"/>
      <circle cx="49" cy="49" r="34.5" stroke="#0070DD" stroke-opacity=".15"/>
      <circle cx="49" cy="49" r="31.5" stroke="#0070DD" stroke-opacity=".15"/>
      <circle cx="49" cy="49" r="28.5" stroke="#0070DD" stroke-opacity=".15"/>
      <circle cx="49" cy="49" r="25.5" stroke="#0070DD" stroke-opacity=".15"/>
      <circle cx="49" cy="49" r="22.5" stroke="#0070DD" stroke-opacity=".15"/>
      <circle cx="49" cy="49" r="28" fill="url(#folder-music-256px-k)"/>
      <path fill="#FFF" d="M59,52.9996338 L59,39.5701049 C59,38.8425868 58.41023,38.2528168 57.6827119,38.2528168 C57.6059652,38.2528168 57.5293654,38.2595238 57.4537865,38.2728612 L43.0883628,40.807936 C42.4588869,40.91902 42,41.4659774 42,42.1051797 L42,62 C42,64.7614237 39.7614237,67 37,67 C34.2385763,67 32,64.7614237 32,62 C32,59.2385763 34.2385763,57 37,57 C38.1256059,57 39.1643395,57.3719448 40,57.9996338 L40,39.2701788 C40,37.3727593 41.3485144,35.7431401 43.2124227,35.38811 L56.3086939,32.8935821 C58.4527013,32.4851997 60.521822,33.8922018 60.9302044,36.0362092 C60.9766316,36.2799521 61,36.5275258 61,36.7756509 L61,57 C61,59.7614237 58.7614237,62 56,62 C53.2385763,62 51,59.7614237 51,57 C51,54.2385763 53.2385763,52 56,52 C57.1256059,52 58.1643395,52.3719448 59,52.9996338 Z"/>
    </g>
  </g>
</svg>
