<?xml version="1.0" encoding="UTF-8"?>
<svg width="256px" height="256px" viewBox="0 0 256 256" version="1.1" xmlns="http://www.w3.org/2000/svg" xmlns:xlink="http://www.w3.org/1999/xlink">
    <title>folder-documents</title>
    <defs>
        <filter x="-7.7%" y="-6.8%" width="115.3%" height="117.7%" filterUnits="objectBoundingBox" id="filter-1">
            <feOffset dx="0" dy="4" in="SourceAlpha" result="shadowOffsetOuter1"></feOffset>
            <feGaussianBlur stdDeviation="5" in="shadowOffsetOuter1" result="shadowBlurOuter1"></feGaussianBlur>
            <feColorMatrix values="0 0 0 0 0   0 0 0 0 0   0 0 0 0 0  0 0 0 0.2 0" type="matrix" in="shadowBlurOuter1" result="shadowMatrixOuter1"></feColorMatrix>
            <feMerge>
                <feMergeNode in="shadowMatrixOuter1"></feMergeNode>
                <feMergeNode in="SourceGraphic"></feMergeNode>
            </feMerge>
        </filter>
        <linearGradient x1="50%" y1="0%" x2="50%" y2="26.3530556%" id="linearGradient-2">
            <stop stop-color="#1FB0EA" offset="0%"></stop>
            <stop stop-color="#2C7FE2" offset="100%"></stop>
        </linearGradient>
        <linearGradient x1="50%" y1="0%" x2="50%" y2="11.7957837%" id="linearGradient-3">
            <stop stop-color="#FFFFFF" offset="0%"></stop>
            <stop stop-color="#CEF5FF" offset="100%"></stop>
        </linearGradient>
        <rect id="path-4" x="10" y="32" width="202" height="83" rx="18"></rect>
        <filter x="-4.5%" y="-10.8%" width="108.9%" height="121.7%" filterUnits="objectBoundingBox" id="filter-5">
            <feOffset dx="0" dy="0" in="SourceAlpha" result="shadowOffsetOuter1"></feOffset>
            <feGaussianBlur stdDeviation="3" in="shadowOffsetOuter1" result="shadowBlurOuter1"></feGaussianBlur>
            <feColorMatrix values="0 0 0 0 0   0 0 0 0 0   0 0 0 0 0  0 0 0 0.2 0" type="matrix" in="shadowBlurOuter1"></feColorMatrix>
        </filter>
        <filter x="-3.5%" y="-8.4%" width="106.9%" height="116.9%" filterUnits="objectBoundingBox" id="filter-6">
            <feOffset dx="0" dy="2" in="SourceAlpha" result="shadowOffsetInner1"></feOffset>
            <feComposite in="shadowOffsetInner1" in2="SourceAlpha" operator="arithmetic" k2="-1" k3="1" result="shadowInnerInner1"></feComposite>
            <feColorMatrix values="0 0 0 0 1   0 0 0 0 1   0 0 0 0 1  0 0 0 0.5 0" type="matrix" in="shadowInnerInner1"></feColorMatrix>
        </filter>
        <linearGradient x1="56.4262458%" y1="0%" x2="56.4262458%" y2="115.461063%" id="linearGradient-7">
            <stop stop-color="#5CCDF1" offset="0%"></stop>
            <stop stop-color="#1881DC" offset="100%"></stop>
        </linearGradient>
        <linearGradient x1="50%" y1="0%" x2="50%" y2="100%" id="linearGradient-8">
            <stop stop-color="#FFFFFF" offset="0%"></stop>
            <stop stop-color="#FFFFFF" stop-opacity="0.6" offset="100%"></stop>
        </linearGradient>
        <path d="M73,0 C77.418278,-8.66006284e-15 81,3.581722 81,8 L81,90 C81,94.418278 77.418278,98 73,98 L8,98 C3.581722,98 -4.54206268e-13,94.418278 -4.54747351e-13,90 L-4.54747351e-13,8 C-4.55288434e-13,3.581722 3.581722,8.11624501e-16 8,0 L73,0 Z M75,84 L7,84 L7,87 L75,87 L75,84 Z M44,69 L7,69 L7,72 L44,72 L44,69 Z M75,62 L7,62 L7,65 L75,65 L75,62 Z M75,55 L7,55 L7,58 L75,58 L75,55 Z M75,48 L7,48 L7,51 L75,51 L75,48 Z M75,41 L7,41 L7,44 L75,44 L75,41 Z M75,34 L48,34 L48,37 L75,37 L75,34 Z M75,27 L48,27 L48,30 L75,30 L75,27 Z M75,20 L48,20 L48,23 L75,23 L75,20 Z M75,13 L48,13 L48,16 L75,16 L75,13 Z" id="path-9"></path>
        <filter x="-16.0%" y="-11.2%" width="132.1%" height="126.5%" filterUnits="objectBoundingBox" id="filter-10">
            <feOffset dx="0" dy="2" in="SourceAlpha" result="shadowOffsetOuter1"></feOffset>
            <feGaussianBlur stdDeviation="4" in="shadowOffsetOuter1" result="shadowBlurOuter1"></feGaussianBlur>
            <feColorMatrix values="0 0 0 0 0   0 0 0 0 0.42905776   0 0 0 0 0.968670281  0 0 0 0.5 0" type="matrix" in="shadowBlurOuter1"></feColorMatrix>
        </filter>
        <radialGradient cx="79.9565017%" cy="71.8319179%" fx="79.9565017%" fy="71.8319179%" r="100%" gradientTransform="translate(0.7996, 0.7183), scale(0.6486, 1), rotate(-90), translate(-0.7996, -0.7183)" id="radialGradient-11">
            <stop stop-color="#FA9361" offset="0%"></stop>
            <stop stop-color="#5F1CF7" offset="100%"></stop>
        </radialGradient>
        <linearGradient x1="50%" y1="20.9534265%" x2="50%" y2="100%" id="linearGradient-12">
            <stop stop-color="#0E3BAC" offset="0%"></stop>
            <stop stop-color="#1A0570" offset="100%"></stop>
        </linearGradient>
        <path d="M0,14.0725 L3,0.46 L6,14.0725 L6,107.2 C6,108.304569 5.1045695,109.2 4,109.2 L2,109.2 C0.8954305,109.2 1.3527075e-16,108.304569 0,107.2 L0,14.0725 L0,14.0725 Z" id="path-13"></path>
        <filter x="-33.3%" y="-2.8%" width="266.7%" height="109.2%" filterUnits="objectBoundingBox" id="filter-14">
            <feGaussianBlur stdDeviation="0" in="SourceGraphic"></feGaussianBlur>
        </filter>
        <filter x="-100.0%" y="-6.4%" width="400.0%" height="116.6%" filterUnits="objectBoundingBox" id="filter-15">
            <feOffset dx="3" dy="2" in="SourceAlpha" result="shadowOffsetOuter1"></feOffset>
            <feGaussianBlur stdDeviation="2.5" in="shadowOffsetOuter1" result="shadowBlurOuter1"></feGaussianBlur>
            <feComposite in="shadowBlurOuter1" in2="SourceAlpha" operator="out" result="shadowBlurOuter1"></feComposite>
            <feColorMatrix values="0 0 0 0 0   0 0 0 0 0   0 0 0 0 0  0 0 0 0.204192048 0" type="matrix" in="shadowBlurOuter1"></feColorMatrix>
        </filter>
        <linearGradient x1="50%" y1="0%" x2="50%" y2="100%" id="linearGradient-16">
            <stop stop-color="#242424" offset="0%"></stop>
            <stop stop-color="#000000" offset="100%"></stop>
        </linearGradient>
        <linearGradient x1="29.3963805%" y1="60.6050703%" x2="100%" y2="60.6050703%" id="linearGradient-17">
            <stop stop-color="#F6F6F6" offset="0%"></stop>
            <stop stop-color="#939393" offset="100%"></stop>
        </linearGradient>
        <linearGradient x1="32.6516849%" y1="27.3712577%" x2="100%" y2="38.3100047%" id="linearGradient-18">
            <stop stop-color="#FCAFD2" offset="0%"></stop>
            <stop stop-color="#FF4B8D" offset="100%"></stop>
        </linearGradient>
        <path d="M0,104.2 L6,104.2 L6,107.2 C6,108.304569 5.1045695,109.2 4,109.2 L2,109.2 C0.8954305,109.2 1.3527075e-16,108.304569 0,107.2 L0,104.2 L0,104.2 Z" id="path-19"></path>
        <filter x="-33.3%" y="-40.0%" width="166.7%" height="180.0%" filterUnits="objectBoundingBox" id="filter-20">
            <feGaussianBlur stdDeviation="1.5" in="SourceAlpha" result="shadowBlurInner1"></feGaussianBlur>
            <feOffset dx="-1" dy="-1" in="shadowBlurInner1" result="shadowOffsetInner1"></feOffset>
            <feComposite in="shadowOffsetInner1" in2="SourceAlpha" operator="arithmetic" k2="-1" k3="1" result="shadowInnerInner1"></feComposite>
            <feColorMatrix values="0 0 0 0 0.376992985   0 0 0 0 0   0 0 0 0 0  0 0 0 0.5 0" type="matrix" in="shadowInnerInner1"></feColorMatrix>
        </filter>
        <linearGradient x1="50.1412867%" y1="45.3280219%" x2="49.9729584%" y2="60.059319%" id="linearGradient-21">
            <stop stop-color="#463417" offset="0%"></stop>
            <stop stop-color="#281212" offset="100%"></stop>
        </linearGradient>
        <linearGradient x1="50%" y1="0%" x2="50%" y2="100%" id="linearGradient-22">
            <stop stop-color="#080808" offset="0%"></stop>
            <stop stop-color="#481D1D" offset="100%"></stop>
        </linearGradient>
        <linearGradient x1="11.7790385%" y1="79.2491098%" x2="76.3576823%" y2="79.2491098%" id="linearGradient-23">
            <stop stop-color="#6A6A6A" offset="0%"></stop>
            <stop stop-color="#0A0A0A" offset="100%"></stop>
        </linearGradient>
    </defs>
    <g id="folder-documents" stroke="none" stroke-width="1" fill="none" fill-rule="evenodd">
        <g id="folder-256px" transform="translate(17, 45)">
            <g id="Group-2" filter="url(#filter-1)" transform="translate(0, 0)">
                <path d="M124,11.5 C127.036137,18.4831148 133.925344,23 141.539936,23 L194,23 C209.463973,23 222,35.536027 222,51 L222,164 C222,179.463973 209.463973,192 194,192 L28,192 C12.536027,192 -4.07387736e-14,179.463973 -4.26325641e-14,164 L-4.26325641e-14,28 C-4.45263546e-14,12.536027 12.536027,-2.55810237e-14 28,-2.84217094e-14 L106.460064,-2.84217094e-14 C114.074656,-2.98204874e-14 120.963863,4.51688517 124,11.5 Z" id="Mask" fill="url(#linearGradient-2)"></path>
                <g id="Rectangle">
                    <use fill="black" fill-opacity="1" filter="url(#filter-5)" xlink:href="#path-4"></use>
                    <use fill="url(#linearGradient-3)" fill-rule="evenodd" xlink:href="#path-4"></use>
                    <use fill="black" fill-opacity="1" filter="url(#filter-6)" xlink:href="#path-4"></use>
                </g>
                <g id="Group" transform="translate(0, 46)" fill="url(#linearGradient-7)">
                    <path d="M0,0 L222,0 L222,118 C222,133.463973 209.463973,146 194,146 L28,146 C12.536027,146 1.8937905e-15,133.463973 0,118 L0,0 L0,0 Z" id="Rectangle"></path>
                </g>
            </g>
        </g>
        <g id="Group-2" transform="translate(78, 107.8)">
            <g id="Group" transform="translate(0, 7.2)">
                <g id="Combined-Shape">
                    <use fill="black" fill-opacity="1" filter="url(#filter-10)" xlink:href="#path-9"></use>
                    <use fill="url(#linearGradient-8)" fill-rule="evenodd" xlink:href="#path-9"></use>
                </g>
                <polygon id="Path" fill="url(#radialGradient-11)" points="7 13 44 13 44 37 7 37"></polygon>
                <path d="M35.2741935,31.7837838 C36.7172602,31.7837838 37.8870968,30.5979434 37.8870968,29.1351351 C37.8870968,27.6723269 36.7172602,26.4864865 35.2741935,26.4864865 C33.8311269,26.4864865 32.6612903,27.6723269 32.6612903,29.1351351 C32.6612903,30.5979434 33.8311269,31.7837838 35.2741935,31.7837838 Z" id="Oval" fill="#FF5151"></path>
                <path d="M7.83870968,35.7567568 L30.0483871,35.7567568 L24.7267424,28.778571 C24.3918376,28.3394158 23.7643381,28.2549042 23.3251829,28.589809 C23.3122805,28.5996485 23.2996194,28.6098007 23.287211,28.6202564 L20.3891923,31.0622147 C19.9668528,31.4180908 19.3359844,31.3642115 18.9801084,30.941872 C18.9371326,30.8908701 18.8993668,30.8356967 18.8673753,30.7771761 L15.9059485,25.359977 C15.6410315,24.8753767 15.0334277,24.6972883 14.5488274,24.9622053 C14.3944041,25.0466241 14.2649947,25.1703016 14.1736714,25.3207447 L7.83870968,35.7567568 L7.83870968,35.7567568 Z" id="Path" fill="url(#linearGradient-12)"></path>
            </g>
            <g id="pencil" transform="translate(92, 0)">
                <g id="Path" filter="url(#filter-14)">
                    <use fill="black" fill-opacity="1" filter="url(#filter-15)" xlink:href="#path-13"></use>
                    <use fill-opacity="0.3" fill="#00267B" fill-rule="evenodd" xlink:href="#path-13"></use>
                </g>
                <polygon id="Rectangle" fill="url(#linearGradient-16)" points="0 13.2 6 13.2 6 99.2 0 99.2"></polygon>
                <rect id="Rectangle" fill="url(#linearGradient-17)" x="0" y="99.2" width="6" height="5"></rect>
                <g id="Rectangle">
                    <use fill="url(#linearGradient-18)" fill-rule="evenodd" xlink:href="#path-19"></use>
                    <use fill="black" fill-opacity="1" filter="url(#filter-20)" xlink:href="#path-19"></use>
                </g>
                <polygon id="Rectangle" fill="url(#linearGradient-21)" points="0 13.2 2 13.2 2 99.2 0 99.2"></polygon>
                <polygon id="Rectangle" fill="url(#linearGradient-22)" points="4 13.2 6 13.2 6 99.2 4 99.2"></polygon>
                <polygon id="Triangle" fill="#FFDCAC" points="3 0 6 13.2 0 13.2"></polygon>
                <polygon id="Triangle" fill="#D8915B" points="3 0 4 13.2 2 13.2"></polygon>
                <polygon id="Triangle" fill="#965600" points="3 0 6 13.2 3.9375 13.2"></polygon>
                <polygon id="Path" fill="url(#linearGradient-23)" points="3.6 2.64 2.4 2.64 3 0"></polygon>
            </g>
        </g>
    </g>
</svg>