<svg xmlns="http://www.w3.org/2000/svg" xmlns:xlink="http://www.w3.org/1999/xlink" width="256" height="256" viewBox="0 0 256 256">
  <defs>
    <filter id="folder-desktop-256px-a" width="124.3%" height="128.1%" x="-12.2%" y="-14.1%" filterUnits="objectBoundingBox">
      <feOffset dy="4" in="SourceAlpha" result="shadowOffsetOuter1"/>
      <feGaussianBlur in="shadowOffsetOuter1" result="shadowBlurOuter1" stdDeviation="5"/>
      <feComposite in="shadowBlurOuter1" in2="SourceAlpha" operator="out" result="shadowBlurOuter1"/>
      <feColorMatrix in="shadowBlurOuter1" result="shadowMatrixOuter1" values="0 0 0 0 0   0 0 0 0 0   0 0 0 0 0  0 0 0 0.2 0"/>
      <feMerge>
        <feMergeNode in="shadowMatrixOuter1"/>
        <feMergeNode in="SourceGraphic"/>
      </feMerge>
    </filter>
    <linearGradient id="folder-desktop-256px-b" x1="50%" x2="50%" y1="0%" y2="37.968%">
      <stop offset="0%" stop-color="#00B8FF"/>
      <stop offset="100%" stop-color="#2E5DFF"/>
    </linearGradient>
    <linearGradient id="folder-desktop-256px-e" x1="50%" x2="50%" y1="0%" y2="11.796%">
      <stop offset="0%" stop-color="#FFF"/>
      <stop offset="100%" stop-color="#CEF5FF"/>
    </linearGradient>
    <rect id="folder-desktop-256px-d" width="202" height="83" x="10" y="32" rx="18"/>
    <filter id="folder-desktop-256px-c" width="108.9%" height="121.7%" x="-4.5%" y="-10.8%" filterUnits="objectBoundingBox">
      <feOffset in="SourceAlpha" result="shadowOffsetOuter1"/>
      <feGaussianBlur in="shadowOffsetOuter1" result="shadowBlurOuter1" stdDeviation="3"/>
      <feColorMatrix in="shadowBlurOuter1" values="0 0 0 0 0   0 0 0 0 0   0 0 0 0 0  0 0 0 0.2 0"/>
    </filter>
    <filter id="folder-desktop-256px-f" width="106.9%" height="116.9%" x="-3.5%" y="-8.4%" filterUnits="objectBoundingBox">
      <feOffset dy="2" in="SourceAlpha" result="shadowOffsetInner1"/>
      <feComposite in="shadowOffsetInner1" in2="SourceAlpha" k2="-1" k3="1" operator="arithmetic" result="shadowInnerInner1"/>
      <feColorMatrix in="shadowInnerInner1" values="0 0 0 0 1   0 0 0 0 1   0 0 0 0 1  0 0 0 0.5 0"/>
    </filter>
    <radialGradient id="folder-desktop-256px-g" cx="50%" cy="0%" r="117.589%" fx="50%" fy="0%" gradientTransform="scale(.65766 1) rotate(84.615 .63 .143)">
      <stop offset="0%" stop-color="#48D5FF"/>
      <stop offset="100%" stop-color="#0083F6"/>
    </radialGradient>
    <linearGradient id="folder-desktop-256px-j" x1="52.084%" x2="52.084%" y1="4.908%" y2="100%">
      <stop offset="0%" stop-color="#FFF"/>
      <stop offset="100%" stop-color="#FFF" stop-opacity=".6"/>
    </linearGradient>
    <path id="folder-desktop-256px-h" d="M5.68434189e-14,7.99578523 C5.68434189e-14,3.57983498 3.58853654,0 7.99335421,0 L92.0066458,0 C96.4212534,0 100,3.57965805 100,7.99578523 L100,62.0042148 C100,66.420165 96.4114635,70 92.0066458,70 L7.99335421,70 C3.57874658,70 5.68434189e-14,66.420342 5.68434189e-14,62.0042148 L5.68434189e-14,7.99578523 Z"/>
    <filter id="folder-desktop-256px-i" width="152%" height="174.3%" x="-26%" y="-31.4%" filterUnits="objectBoundingBox">
      <feOffset dy="4" in="SourceAlpha" result="shadowOffsetOuter1"/>
      <feGaussianBlur in="shadowOffsetOuter1" result="shadowBlurOuter1" stdDeviation="8"/>
      <feColorMatrix in="shadowBlurOuter1" values="0 0 0 0 0   0 0 0 0 0.42745098   0 0 0 0 0.968627451  0 0 0 0.5 0"/>
    </filter>
    <linearGradient id="folder-desktop-256px-k" x1=".258%" x2="100%" y1="49.75%" y2="49.75%">
      <stop offset="0%" stop-color="#9005FF"/>
      <stop offset="45.847%" stop-color="#E7F100"/>
      <stop offset="100%" stop-color="#06B9FF"/>
    </linearGradient>
    <linearGradient id="folder-desktop-256px-o" x1="50%" x2="50%" y1="0%" y2="100%">
      <stop offset="0%" stop-color="#F5515F"/>
      <stop offset="100%" stop-color="#AF001A"/>
    </linearGradient>
    <rect id="folder-desktop-256px-n" width="10" height="10" x="6" y="6" rx="4"/>
    <filter id="folder-desktop-256px-m" width="620%" height="620%" x="-260%" y="-220%" filterUnits="objectBoundingBox">
      <feOffset dy="4" in="SourceAlpha" result="shadowOffsetOuter1"/>
      <feGaussianBlur in="shadowOffsetOuter1" result="shadowBlurOuter1" stdDeviation="8"/>
      <feColorMatrix in="shadowBlurOuter1" values="0 0 0 0 0   0 0 0 0 0.42745098   0 0 0 0 0.968627451  0 0 0 0.5 0"/>
    </filter>
    <linearGradient id="folder-desktop-256px-r" x1="50%" x2="50%" y1="0%" y2="100%">
      <stop offset="0%" stop-color="#B4EC51"/>
      <stop offset="100%" stop-color="#429321"/>
    </linearGradient>
    <rect id="folder-desktop-256px-q" width="10" height="10" x="6" y="26" rx="4"/>
    <filter id="folder-desktop-256px-p" width="620%" height="620%" x="-260%" y="-220%" filterUnits="objectBoundingBox">
      <feOffset dy="4" in="SourceAlpha" result="shadowOffsetOuter1"/>
      <feGaussianBlur in="shadowOffsetOuter1" result="shadowBlurOuter1" stdDeviation="8"/>
      <feColorMatrix in="shadowBlurOuter1" values="0 0 0 0 0   0 0 0 0 0.42745098   0 0 0 0 0.968627451  0 0 0 0.5 0"/>
    </filter>
  </defs>
  <g fill="none" fill-rule="evenodd">
    <g filter="url(#folder-desktop-256px-a)" transform="translate(17 45)">
      <path fill="url(#folder-desktop-256px-b)" d="M124,11.5 L124,11.5 C127.036137,18.4831148 133.925344,23 141.539936,23 L194,23 C209.463973,23 222,35.536027 222,51 L222,164 C222,179.463973 209.463973,192 194,192 L28,192 C12.536027,192 -4.07387736e-14,179.463973 -4.26325641e-14,164 L-4.26325641e-14,28 C-4.45263546e-14,12.536027 12.536027,-2.55810237e-14 28,-2.84217094e-14 L106.460064,-1.77635684e-14 C114.074656,-2.59254631e-14 120.963863,4.51688517 124,11.5 Z"/>
      <use fill="#000" filter="url(#folder-desktop-256px-c)" xlink:href="#folder-desktop-256px-d"/>
      <use fill="url(#folder-desktop-256px-e)" xlink:href="#folder-desktop-256px-d"/>
      <use fill="#000" filter="url(#folder-desktop-256px-f)" xlink:href="#folder-desktop-256px-d"/>
      <path fill="url(#folder-desktop-256px-g)" d="M0,0 L222,0 L222,118 C222,133.463973 209.463973,146 194,146 L28,146 C12.536027,146 1.8937905e-15,133.463973 0,118 L0,0 Z" transform="translate(0 46)"/>
    </g>
    <path fill="#32A2FB" fill-opacity=".5" d="M83,183 L173,183 L173,186 C173,187.656854 171.657904,189 170.005539,189 L85.9944611,189 C84.3406659,189 83,187.653483 83,186 L83,183 Z"/>
    <g transform="translate(78 125)">
      <mask id="folder-desktop-256px-l" fill="#fff">
        <use xlink:href="#folder-desktop-256px-h"/>
      </mask>
      <use fill="#000" filter="url(#folder-desktop-256px-i)" xlink:href="#folder-desktop-256px-h"/>
      <use fill="url(#folder-desktop-256px-j)" xlink:href="#folder-desktop-256px-h"/>
      <rect width="92" height="10" x="4" y="56" fill="url(#folder-desktop-256px-k)" mask="url(#folder-desktop-256px-l)" rx="4"/>
      <g mask="url(#folder-desktop-256px-l)">
        <use fill="#000" filter="url(#folder-desktop-256px-m)" xlink:href="#folder-desktop-256px-n"/>
        <use fill="url(#folder-desktop-256px-o)" xlink:href="#folder-desktop-256px-n"/>
      </g>
      <g mask="url(#folder-desktop-256px-l)">
        <use fill="#000" filter="url(#folder-desktop-256px-p)" xlink:href="#folder-desktop-256px-q"/>
        <use fill="url(#folder-desktop-256px-r)" xlink:href="#folder-desktop-256px-q"/>
      </g>
    </g>
  </g>
</svg>
