<svg xmlns="http://www.w3.org/2000/svg" xmlns:xlink="http://www.w3.org/1999/xlink" width="64" height="64" viewBox="0 0 64 64">
  <defs>
    <filter id="drive-harddisk-a" width="131.4%" height="129.1%" x="-15.7%" y="-14.5%" filterUnits="objectBoundingBox">
      <feOffset dy="1" in="SourceAlpha" result="shadowOffsetOuter1"/>
      <feGaussianBlur in="shadowOffsetOuter1" result="shadowBlurOuter1" stdDeviation="1.5"/>
      <feColorMatrix in="shadowBlurOuter1" result="shadowMatrixOuter1" values="0 0 0 0 0   0 0 0 0 0   0 0 0 0 0  0 0 0 0.2 0"/>
      <feMerge>
        <feMergeNode in="shadowMatrixOuter1"/>
        <feMergeNode in="SourceGraphic"/>
      </feMerge>
    </filter>
    <linearGradient id="drive-harddisk-b" x1="-5.578%" x2="95.89%" y1="40.232%" y2="40.232%">
      <stop offset="0%" stop-color="#2D8A94"/>
      <stop offset="29.932%" stop-color="#81D7C6"/>
      <stop offset="83.27%" stop-color="#5FD0C3"/>
      <stop offset="92.574%" stop-color="#44BDAB"/>
      <stop offset="100%" stop-color="#0C857D"/>
    </linearGradient>
    <linearGradient id="drive-harddisk-d" x1="128.548%" x2="3.376%" y1="32.065%" y2="32.065%">
      <stop offset="0%" stop-color="#B2F1EE" stop-opacity="0"/>
      <stop offset="87.281%" stop-color="#B3F2EF" stop-opacity=".452"/>
      <stop offset="93.737%" stop-color="#77CACC" stop-opacity=".467"/>
      <stop offset="100%" stop-color="#0C767F" stop-opacity=".5"/>
    </linearGradient>
    <path id="drive-harddisk-c" d="M7.30504847,1.5 L43.6949515,1.5 C44.9971334,1.5 46.0812433,2.49957041 46.1867345,3.79747224 L49.3356599,42.5400069 C49.4451749,43.8874152 49.5,45.2387106 49.5,46.5905621 L49.5,50.375 C49.5,52.1008898 48.1008898,53.5 46.375,53.5 L4.625,53.5 C2.89911016,53.5 1.5,52.1008898 1.5,50.375 L1.5,46.5905621 C1.5,45.2387106 1.55482507,43.8874152 1.66434005,42.5400069 L4.81326548,3.79747224 C4.91875667,2.49957041 6.00286663,1.5 7.30504847,1.5 Z"/>
    <linearGradient id="drive-harddisk-e" x1="50%" x2="50%" y1="2.631%" y2="100%">
      <stop offset="0%" stop-color="#00473E" stop-opacity=".508"/>
      <stop offset="100%" stop-color="#003428" stop-opacity=".62"/>
    </linearGradient>
    <linearGradient id="drive-harddisk-f" x1="50%" x2="2.738%" y1="49.567%" y2="49.733%">
      <stop offset="0%" stop-color="#FCFDFC"/>
      <stop offset="81.318%" stop-color="#FFF"/>
      <stop offset="100%" stop-color="#BDC6C4"/>
    </linearGradient>
    <linearGradient id="drive-harddisk-h" x1="99.734%" x2="73.708%" y1="100%" y2="100%">
      <stop offset="0%" stop-color="#A5B0AC"/>
      <stop offset="41.965%" stop-color="#E8F6EE" stop-opacity=".314"/>
      <stop offset="100%" stop-color="#CBCFCD" stop-opacity=".397"/>
    </linearGradient>
    <path id="drive-harddisk-g" d="M7.30399152,1.5 L43.6798718,1.5 C44.9883018,1.5 46.0754017,2.50888442 46.1729187,3.81367548 L46.2893066,5.37096142 L46.2893066,5.37096142 C45.7016314,4.825552 44.9294992,4.52246094 44.1277301,4.52246094 L7.00453472,4.52246094 C6.15498427,4.52246094 5.33282833,4.82302856 4.68359375,5.37096142 L4.68359375,5.37096142 L4.68359375,5.37096142 L4.81230136,3.7963332 C4.91835008,2.49891732 6.00224873,1.5 7.30399152,1.5 Z"/>
    <linearGradient id="drive-harddisk-k" x1="44.527%" x2="0%" y1="48.023%" y2="47.161%">
      <stop offset="0%" stop-color="#FEFEFE"/>
      <stop offset="77.706%" stop-color="#D8D8D8"/>
      <stop offset="100%" stop-color="#A2AEA8"/>
    </linearGradient>
    <linearGradient id="drive-harddisk-l" x1="100%" x2="74.044%" y1="100%" y2="100%">
      <stop offset="0%" stop-color="#AAB0AD"/>
      <stop offset="32.662%" stop-color="#E9F1F0" stop-opacity=".314"/>
      <stop offset="100%" stop-color="#F1FAF6" stop-opacity=".233"/>
    </linearGradient>
    <path id="drive-harddisk-j" d="M49.1260443,40.7791867 L49.3294311,43.1084939 C49.4430898,44.4101808 49.5,45.7162004 49.5,47.02284 L49.5,50.375 C49.5,52.1008898 48.1008898,53.5 46.375,53.5 L4.625,53.5 C2.89911016,53.5 1.5,52.1008898 1.5,50.375 L1.5,47.0266554 C1.5,45.7174759 1.55713169,44.4089199 1.67123203,43.1047219 L1.87389856,40.7881883 C1.98685462,39.4970698 3.06777821,38.5063625 4.36382836,38.5060736 L46.6349631,38.4966504 C47.9316033,38.4963614 49.0132555,39.4874612 49.1260443,40.7791867 Z"/>
    <filter id="drive-harddisk-i" width="104.2%" height="126.7%" x="-2.1%" y="-20%" filterUnits="objectBoundingBox">
      <feOffset dy="-2" in="SourceAlpha" result="shadowOffsetOuter1"/>
      <feColorMatrix in="shadowOffsetOuter1" values="0 0 0 0 1   0 0 0 0 1   0 0 0 0 1  0 0 0 0.160210883 0"/>
    </filter>
    <linearGradient id="drive-harddisk-m" x1="50%" x2="50%" y1="-20.244%" y2="100%">
      <stop offset="0%" stop-opacity=".18"/>
      <stop offset="100%" stop-opacity=".467"/>
    </linearGradient>
    <linearGradient id="drive-harddisk-n" x1="100%" x2="0%" y1="50%" y2="51.758%">
      <stop offset="0%" stop-color="#E3E3E3"/>
      <stop offset="68.204%" stop-color="#C1BFC1"/>
      <stop offset="100%" stop-color="#CBCBCB"/>
    </linearGradient>
    <linearGradient id="drive-harddisk-p" x1="50%" x2="50%" y1="0%" y2="100%">
      <stop offset="0%" stop-color="#FFF" stop-opacity=".5"/>
      <stop offset="100%" stop-opacity=".326"/>
    </linearGradient>
    <linearGradient id="drive-harddisk-r" x1="50%" x2="50%" y1="-13.675%" y2="100%">
      <stop offset="0%" stop-opacity="0"/>
      <stop offset="100%" stop-opacity=".111"/>
    </linearGradient>
    <path id="drive-harddisk-o" d="M3.375,44.5 L47.625,44.5 C48.6605339,44.5 49.5,45.3394661 49.5,46.375 L49.5,50.375 C49.5,52.1008898 48.1008898,53.5 46.375,53.5 L4.625,53.5 C2.89911016,53.5 1.5,52.1008898 1.5,50.375 L1.5,46.375 C1.5,45.3394661 2.33946609,44.5 3.375,44.5 Z"/>
    <filter id="drive-harddisk-q" width="106.2%" height="133.3%" x="-3.1%" y="-16.7%" filterUnits="objectBoundingBox">
      <feOffset dy="1" in="SourceAlpha" result="shadowOffsetInner1"/>
      <feComposite in="shadowOffsetInner1" in2="SourceAlpha" k2="-1" k3="1" operator="arithmetic" result="shadowInnerInner1"/>
      <feColorMatrix in="shadowInnerInner1" values="0 0 0 0 1   0 0 0 0 1   0 0 0 0 1  0 0 0 1 0"/>
    </filter>
    <radialGradient id="drive-harddisk-s" cx="54.402%" cy="50%" r="50%" fx="54.402%" fy="50%" gradientTransform="matrix(0 1 -1.14403 0 1.116 -.044)">
      <stop offset="0%" stop-color="#4A5D00" stop-opacity=".477"/>
      <stop offset="100%" stop-color="#465900" stop-opacity=".693"/>
    </radialGradient>
    <radialGradient id="drive-harddisk-t" cx="50%" cy="39.587%" r="60.364%" fx="50%" fy="39.587%" gradientTransform="matrix(0 1 -.75 0 .797 -.104)">
      <stop offset="0%" stop-color="#F4EF6B"/>
      <stop offset="99.921%" stop-color="#9BD918"/>
    </radialGradient>
  </defs>
  <g fill="none" fill-rule="evenodd" filter="url(#drive-harddisk-a)" transform="translate(6.5 4.5)">
    <use fill="url(#drive-harddisk-b)" xlink:href="#drive-harddisk-c"/>
    <use fill="url(#drive-harddisk-d)" fill-opacity=".8" xlink:href="#drive-harddisk-c"/>
    <path fill="url(#drive-harddisk-e)" fill-rule="nonzero" d="M43.6949515,0.5 L7.30504847,0.5 C5.48199389,0.5 3.96423994,1.89939857 3.81655228,3.71646113 L0.667626855,42.4589958 C0.555921569,43.8333522 0.5,45.2116736 0.5,46.5905621 L0.5,50.375 C0.5,52.6531746 2.34682541,54.5 4.625,54.5 L46.375,54.5 C48.6531746,54.5 50.5,52.6531746 50.5,50.375 L50.5,46.5905621 C50.5,45.2116736 50.4440784,43.8333522 50.3323731,42.4589958 L47.1834477,3.71646113 C47.0357601,1.89939857 45.5180061,0.5 43.6949515,0.5 Z M43.6949515,1.5 C44.9971334,1.5 46.0812433,2.49957041 46.1867345,3.79747224 L49.3356599,42.5400069 C49.4451749,43.8874152 49.5,45.2387106 49.5,46.5905621 L49.5,50.375 C49.5,52.1008898 48.1008898,53.5 46.375,53.5 L4.625,53.5 C2.89911016,53.5 1.5,52.1008898 1.5,50.375 L1.5,46.5905621 C1.5,45.2387106 1.55482507,43.8874152 1.66434005,42.5400069 L4.81326548,3.79747224 C4.91875667,2.49957041 6.00286663,1.5 7.30504847,1.5 L43.6949515,1.5 Z"/>
    <use fill="url(#drive-harddisk-f)" xlink:href="#drive-harddisk-g"/>
    <use fill="url(#drive-harddisk-h)" xlink:href="#drive-harddisk-g"/>
    <use fill="#000" filter="url(#drive-harddisk-i)" xlink:href="#drive-harddisk-j"/>
    <use fill="url(#drive-harddisk-k)" xlink:href="#drive-harddisk-j"/>
    <use fill="url(#drive-harddisk-l)" xlink:href="#drive-harddisk-j"/>
    <path fill="url(#drive-harddisk-m)" fill-rule="nonzero" d="M46.6347401,37.4966503 L4.36360544,37.5060736 C2.54913522,37.5064781 1.0358422,38.8934684 0.877703714,40.7010343 L0.675037188,43.0175679 C0.558401286,44.350748 0.5,45.688383 0.5,47.0266554 L0.5,50.375 C0.5,52.6531746 2.34682541,54.5 4.625,54.5 L46.375,54.5 C48.6531746,54.5 50.5,52.6531746 50.5,50.375 L50.5,47.02284 C50.5,45.687164 50.4418251,44.3521217 50.3256407,43.0215085 L50.1222539,40.6922012 C49.9643495,38.8837855 48.4500365,37.4962458 46.6347401,37.4966503 Z M46.6349631,38.4966503 C47.9316033,38.4963614 49.0132555,39.4874612 49.1260443,40.7791867 L49.3294311,43.1084939 C49.4430898,44.4101808 49.5,45.7162004 49.5,47.02284 L49.5,50.375 C49.5,52.1008898 48.1008898,53.5 46.375,53.5 L4.625,53.5 C2.89911016,53.5 1.5,52.1008898 1.5,50.375 L1.5,47.0266554 C1.5,45.7174759 1.55713169,44.4089199 1.67123203,43.1047219 L1.87389856,40.7881883 C1.98685462,39.4970698 3.06777821,38.5063625 4.36382836,38.5060736 L46.6349631,38.4966503 Z"/>
    <use fill="url(#drive-harddisk-n)" fill-opacity=".6" xlink:href="#drive-harddisk-o"/>
    <use fill="url(#drive-harddisk-p)" xlink:href="#drive-harddisk-o"/>
    <use fill="#000" filter="url(#drive-harddisk-q)" xlink:href="#drive-harddisk-o"/>
    <path stroke="url(#drive-harddisk-r)" d="M47.625,44 C48.2808381,44 48.8745881,44.2658309 49.3043786,44.6956214 C49.7341691,45.1254119 50,45.7191619 50,46.375 L50,46.375 L50,50.375 C50,51.3760161 49.5942581,52.2822661 48.9382621,52.9382621 C48.2822661,53.5942581 47.3760161,54 46.375,54 L46.375,54 L4.625,54 C3.62398389,54 2.71773389,53.5942581 2.06173792,52.9382621 C1.40574195,52.2822661 1,51.3760161 1,50.375 L1,50.375 L1,46.375 C1,45.7191619 1.26583093,45.1254119 1.69562139,44.6956214 C2.12541186,44.2658309 2.71916186,44 3.375,44 L3.375,44 Z"/>
    <path fill="url(#drive-harddisk-s)" d="M41.5,52 C42.8807119,52 44,51.1045695 44,50 C44,48.8954305 42.8807119,48 41.5,48 C40.1192881,48 39,48.8954305 39,50 C39,51.1045695 40.1192881,52 41.5,52 Z"/>
    <ellipse cx="41.5" cy="49.5" fill="url(#drive-harddisk-t)" rx="2" ry="1.5"/>
  </g>
</svg>
