<svg xmlns="http://www.w3.org/2000/svg" xmlns:xlink="http://www.w3.org/1999/xlink" width="96" height="96" viewBox="0 0 96 96">
  <defs>
    <filter id="folder-downloads-a" width="129.3%" height="133.8%" x="-14.6%" y="-16.9%" filterUnits="objectBoundingBox">
      <feOffset dy="2" in="SourceAlpha" result="shadowOffsetOuter1"/>
      <feGaussianBlur in="shadowOffsetOuter1" result="shadowBlurOuter1" stdDeviation="2"/>
      <feComposite in="shadowBlurOuter1" in2="SourceAlpha" operator="out" result="shadowBlurOuter1"/>
      <feColorMatrix in="shadowBlurOuter1" result="shadowMatrixOuter1" values="0 0 0 0 0   0 0 0 0 0   0 0 0 0 0  0 0 0 0.2 0"/>
      <feMerge>
        <feMergeNode in="shadowMatrixOuter1"/>
        <feMergeNode in="SourceGraphic"/>
      </feMerge>
    </filter>
    <linearGradient id="folder-downloads-c" x1="50%" x2="50%" y1="0%" y2="37.968%">
      <stop offset="0%" stop-color="#00B8FF"/>
      <stop offset="100%" stop-color="#2E5DFF"/>
    </linearGradient>
    <path id="folder-downloads-b" d="M46,4.5 L46,4.5 C47.2162027,7.23645617 49.9298769,9 52.9244289,9 L71.6576577,9 C77.3695756,9 82,13.6304244 82,19.3423423 L82,60.6576577 C82,66.3695756 77.3695756,71 71.6576577,71 L10.3423423,71 C4.63042439,71 -4.37094128e-14,66.3695756 -4.4408921e-14,60.6576577 L-4.26325641e-14,10.3423423 C-4.33320723e-14,4.63042439 4.63042439,-2.38197334e-14 10.3423423,-2.48689958e-14 L39.0755711,-2.7533531e-14 C42.0701231,-2.80836213e-14 44.7837973,1.76354383 46,4.5 Z"/>
    <linearGradient id="folder-downloads-g" x1="50%" x2="50%" y1="0%" y2="11.796%">
      <stop offset="0%" stop-color="#FFF"/>
      <stop offset="100%" stop-color="#CEF5FF"/>
    </linearGradient>
    <rect id="folder-downloads-f" width="74" height="31" x="4" y="12" rx="6.649"/>
    <filter id="folder-downloads-e" width="108.1%" height="119.4%" x="-4.1%" y="-9.7%" filterUnits="objectBoundingBox">
      <feOffset in="SourceAlpha" result="shadowOffsetOuter1"/>
      <feGaussianBlur in="shadowOffsetOuter1" result="shadowBlurOuter1" stdDeviation="1"/>
      <feColorMatrix in="shadowBlurOuter1" values="0 0 0 0 0   0 0 0 0 0   0 0 0 0 0  0 0 0 0.2 0"/>
    </filter>
    <filter id="folder-downloads-h" width="106.8%" height="116.1%" x="-3.4%" y="-8.1%" filterUnits="objectBoundingBox">
      <feOffset dy="1" in="SourceAlpha" result="shadowOffsetInner1"/>
      <feComposite in="shadowOffsetInner1" in2="SourceAlpha" k2="-1" k3="1" operator="arithmetic" result="shadowInnerInner1"/>
      <feColorMatrix in="shadowInnerInner1" values="0 0 0 0 1   0 0 0 0 1   0 0 0 0 1  0 0 0 0.5 0"/>
    </filter>
    <radialGradient id="folder-downloads-i" cx="50%" cy="0%" r="117.588%" fx="50%" fy="0%" gradientTransform="matrix(.06172 .9956 -.65551 .09375 .47 -.498)">
      <stop offset="0%" stop-color="#48D5FF"/>
      <stop offset="100%" stop-color="#0083F6"/>
    </radialGradient>
    <linearGradient id="folder-downloads-l" x1="50%" x2="50%" y1="0%" y2="100%">
      <stop offset="0%" stop-color="#FFF"/>
      <stop offset="100%" stop-color="#FFF" stop-opacity=".6"/>
    </linearGradient>
    <circle id="folder-downloads-k" cx="19" cy="19" r="19"/>
    <filter id="folder-downloads-j" width="126.3%" height="126.3%" x="-13.2%" y="-10.5%" filterUnits="objectBoundingBox">
      <feOffset dy="1" in="SourceAlpha" result="shadowOffsetOuter1"/>
      <feGaussianBlur in="shadowOffsetOuter1" result="shadowBlurOuter1" stdDeviation="1.5"/>
      <feColorMatrix in="shadowBlurOuter1" values="0 0 0 0 0   0 0 0 0 0.42905776   0 0 0 0 0.968670281  0 0 0 0.5 0"/>
    </filter>
    <linearGradient id="folder-downloads-m" x1="50%" x2="50%" y1="0%" y2="100%">
      <stop offset="0%" stop-color="#FF3D3D"/>
      <stop offset="19.361%" stop-color="#E3FF00"/>
      <stop offset="48.269%" stop-color="#00A2EF"/>
      <stop offset="100%" stop-color="#790EED"/>
    </linearGradient>
  </defs>
  <g fill="none" fill-rule="evenodd">
    <g filter="url(#folder-downloads-a)" transform="translate(7 18)">
      <mask id="folder-downloads-d" fill="#fff">
        <use xlink:href="#folder-downloads-b"/>
      </mask>
      <use fill="url(#folder-downloads-c)" xlink:href="#folder-downloads-b"/>
      <g mask="url(#folder-downloads-d)">
        <use fill="#000" filter="url(#folder-downloads-e)" xlink:href="#folder-downloads-f"/>
        <use fill="url(#folder-downloads-g)" xlink:href="#folder-downloads-f"/>
        <use fill="#000" filter="url(#folder-downloads-h)" xlink:href="#folder-downloads-f"/>
      </g>
      <g fill="url(#folder-downloads-i)" mask="url(#folder-downloads-d)">
        <path d="M0,0 L82,0 L82,43.647241 C82,49.3591589 77.3695756,53.9895833 71.6576577,53.9895833 L10.3423423,53.9895833 C4.63042439,53.9895833 -1.07684864e-15,49.3591589 -1.77635684e-15,43.647241 L0,0 Z" transform="translate(0 17.01)"/>
      </g>
    </g>
    <g transform="translate(29 42)">
      <use fill="#000" filter="url(#folder-downloads-j)" xlink:href="#folder-downloads-k"/>
      <use fill="url(#folder-downloads-l)" xlink:href="#folder-downloads-k"/>
      <path fill="#FFF" d="M24,9 C24,9.55228475 23.5463624,10 23.1666667,10 L14.8333333,10 C14.4536376,10 14,9.55228475 14,9 C14,8.44771525 14.4536376,8 14.8333333,8 L23.1666667,8 C23.5463624,8 24,8.44771525 24,9 Z M14,12.8 L14,12.2 C14,11.6 14.5555556,11 15.1111111,11 L22.8888889,11 C23.4444444,11 24,11.6 24,12.2 L24,12.8 C24,13.4 23.4444444,14 22.8888889,14 L15.1111111,14 C14.5555556,14 14,13.4 14,12.8 Z M14.2551637,18.0742485 L14.2551637,17.1146666 C14.2551637,16.5573333 14.7981235,16 15.3410834,16 L22.9415223,16 C23.4844822,16 24.0274421,16.5573333 24.0274421,17.1146667 L24.0274423,18.0742486 C24.0274427,19.7366591 25.3722794,21.0787 27.0312191,21.0787 L26.9962238,21.0787 C28.6596416,21.0787 29.0794473,22.0529209 27.9438881,23.2546833 L21.0561119,30.5440167 C19.9189339,31.7474923 18.0794473,31.7457791 16.9438881,30.5440167 L10.0561119,23.2546833 C8.91893385,22.0512077 9.34284761,21.0787 10.9993341,21.0787 L11.2558296,21.0787 C12.9132741,21.0787 14.2551637,19.7335613 14.2551637,18.0742485 Z"/>
      <path fill="url(#folder-downloads-m)" fill-rule="nonzero" d="M24,9 C24,9.55228475 23.5463624,10 23.1666667,10 L14.8333333,10 C14.4536376,10 14,9.55228475 14,9 C14,8.44771525 14.4536376,8 14.8333333,8 L23.1666667,8 C23.5463624,8 24,8.44771525 24,9 Z M23,9 C23,8.99321107 22.9939649,9 23.1666667,9 L14.8333333,9 C15.0060351,9 15,8.99321107 15,9 C15,9.00678893 15.0060351,9 14.8333333,9 L23.1666667,9 C22.9939649,9 23,9.00678893 23,9 Z M14,12.8 L14,12.2 C14,11.6 14.5555556,11 15.1111111,11 L22.8888889,11 C23.4444444,11 24,11.6 24,12.2 L24,12.8 C24,13.4 23.4444444,14 22.8888889,14 L15.1111111,14 C14.5555556,14 14,13.4 14,12.8 Z M15,12.8 C15,12.8641739 15.1257649,13 15.1111111,13 L22.8888889,13 C22.8742351,13 23,12.8641739 23,12.8 L23,12.2 C23,12.1358261 22.8742351,12 22.8888889,12 L15.1111111,12 C15.1257649,12 15,12.1358261 15,12.2 L15,12.8 Z M14.2551637,18.0742485 L14.2551637,17.1146666 C14.2551637,16.5573333 14.7981235,16 15.3410834,16 L22.9415223,16 C23.4844822,16 24.0274421,16.5573333 24.0274421,17.1146667 L24.0274423,18.0742486 C24.0274427,19.7366591 25.3722794,21.0787 27.0312191,21.0787 L26.9962238,21.0787 C28.6596416,21.0787 29.0794473,22.0529209 27.9438881,23.2546833 L21.0561119,30.5440167 C19.9189339,31.7474923 18.0794473,31.7457791 16.9438881,30.5440167 L10.0561119,23.2546833 C8.91893385,22.0512077 9.34284761,21.0787 10.9993341,21.0787 L11.2558296,21.0787 C12.9132741,21.0787 14.2551637,19.7335613 14.2551637,18.0742485 Z M26.9962238,22.0787 C26.9808104,22.0787 26.9655751,22.0784327 26.9505181,22.0779044 C24.7756253,22.0349841 23.0274428,20.2610008 23.0274423,18.0742488 L23.0274421,17.1146667 C23.0274421,17.1038551 22.9262654,17 22.9415223,17 L15.3410834,17 C15.3563403,17 15.2551637,17.1038551 15.2551637,17.1146666 L15.2551637,18.0742485 C15.2551637,20.285747 13.4656595,22.0787 11.2558296,22.0787 L10.9993341,22.0787 C10.2176119,22.0787 10.2500766,22.0039345 10.7829555,22.5678803 L17.6707317,29.8572137 C18.4123494,30.6420677 19.5873311,30.6424059 20.3292683,29.8572137 L27.2170445,22.5678803 C27.7380175,22.0165345 27.7807383,22.0756653 27.0478942,22.0785951 C27.0423592,22.0786649 27.0368008,22.0787 27.0312191,22.0787 C27.0269733,22.0787 27.0227291,22.0786934 27.0184864,22.0786802 C27.0111397,22.0786932 27.003719,22.0787 26.9962238,22.0787 Z"/>
    </g>
  </g>
</svg>
