<svg xmlns="http://www.w3.org/2000/svg" xmlns:xlink="http://www.w3.org/1999/xlink" width="24" height="24" viewBox="0 0 24 24">
  <defs>
    <path id="application-x-ace-b" d="M5.25,4.0625 C5.25,3.75183983 5.50183983,3.5 5.8125,3.5 L10.6875,3.5 C10.9981602,3.5 11.25,3.75183983 11.25,4.0625 L11.25,1.0625 C11.25,0.751839828 11.5018398,0.5 11.8125,0.5 L15.6875,0.5 C15.9981602,0.5 16.25,0.751839828 16.25,1.0625 L16.25,19.9375 C16.25,20.2481602 15.9981602,20.5 15.6875,20.5 L11.8125,20.5 C11.5018398,20.5 11.25,20.2481602 11.25,19.9375 C11.25,20.2481602 10.9981602,20.5 10.6875,20.5 L5.8125,20.5 C5.50183983,20.5 5.25,20.2481602 5.25,19.9375 L5.25,20 C5.25,20.2761424 5.02614237,20.5 4.75,20.5 L0.75,20.5 C0.473857625,20.5 0.25,20.2761424 0.25,20 L0.25,3 C0.25,2.72385763 0.473857625,2.5 0.75,2.5 L4.75,2.5 C5.02614237,2.5 5.25,2.72385763 5.25,3 L5.25,4.0625 Z"/>
    <filter id="application-x-ace-a" width="118.8%" height="115%" x="-9.4%" y="-7.5%" filterUnits="objectBoundingBox">
      <feOffset in="SourceAlpha" result="shadowOffsetOuter1"/>
      <feGaussianBlur in="shadowOffsetOuter1" result="shadowBlurOuter1" stdDeviation=".5"/>
      <feComposite in="shadowBlurOuter1" in2="SourceAlpha" operator="out" result="shadowBlurOuter1"/>
      <feColorMatrix in="shadowBlurOuter1" values="0 0 0 0 0   0 0 0 0 0   0 0 0 0 0  0 0 0 0.2 0"/>
    </filter>
    <linearGradient id="application-x-ace-c" x1="98.475%" x2="1.525%" y1="48.475%" y2="48.475%">
      <stop offset="0%" stop-color="#780094"/>
      <stop offset="100%" stop-color="#670074"/>
    </linearGradient>
    <linearGradient id="application-x-ace-d" x1="99.455%" x2="3.998%" y1="50.545%" y2="50.545%">
      <stop offset="0%" stop-color="#1C44A8"/>
      <stop offset="100%" stop-color="#023BA8"/>
    </linearGradient>
    <linearGradient id="application-x-ace-e" x1="100%" x2="6.531%" y1="50%" y2="50%">
      <stop offset="0%" stop-color="#286D00"/>
      <stop offset="100%" stop-color="#457000"/>
    </linearGradient>
  </defs>
  <g fill="none" fill-rule="evenodd">
    <g transform="translate(3.75 1.5)">
      <use fill="#000" filter="url(#application-x-ace-a)" xlink:href="#application-x-ace-b"/>
      <use fill="#000" fill-opacity=".1" xlink:href="#application-x-ace-b"/>
      <rect width="5" height="20" x="11.25" y=".5" fill="url(#application-x-ace-c)" rx=".563"/>
      <path fill="url(#application-x-ace-d)" d="M11.25,4.0625 L11.25,19.9375 C11.25,20.2481602 10.9981602,20.5 10.6875,20.5 L5.8125,20.5 C5.50183983,20.5 5.25,20.2481602 5.25,19.9375 L5.25,4.0625 C5.25,3.75183983 5.50183983,3.5 5.8125,3.5 L10.6875,3.5 C10.9981602,3.5 11.25,3.75183983 11.25,4.0625 Z"/>
      <rect width="5" height="18" x=".25" y="2.5" fill="url(#application-x-ace-e)" rx=".5"/>
      <path fill="#FFF8F8" fill-opacity=".3" d="M5.25,9.5 L5.25,12.5 L0.25,12.5 L0.25,9.5 L5.25,9.5 Z M11.25,9.5 L16.25,9.5 L16.25,12.5 L11.25,12.5 L11.25,9.5 Z"/>
      <path fill="#FFF" fill-opacity=".6" d="M5.625,8.5 L10.875,8.5 C11.0821068,8.5 11.25,8.66789322 11.25,8.875 L11.25,13.125 C11.25,13.3321068 11.0821068,13.5 10.875,13.5 L5.625,13.5 C5.41789322,13.5 5.25,13.3321068 5.25,13.125 L5.25,8.875 C5.25,8.66789322 5.41789322,8.5 5.625,8.5 Z M6.25,9.5 L6.25,12.5 L10.25,12.5 L10.25,9.5 L6.25,9.5 Z M6.25,10.5 L9.25,10.5 L9.25,11.5 L6.25,11.5 L6.25,10.5 Z"/>
    </g>
    <path fill="#FFF" fill-opacity=".6" d="M8.625,20 L6.375,20 L6,21 L5,21 L7,16 L8,16 L10,21 L9,21 L8.625,20 Z M8.25,19 L7.5,17 L6.75,19 L8.25,19 Z M15,20 L15.0000001,16 L18.0000001,16 L18.0000001,17 L16.0000001,17 L16,18 L16.9999999,18 L17,19 L16.0000001,19 L16,20 L18.0000001,20 L18.0000001,21 L15,21 L15,20 Z M13.252482,17.6038316 C13.0245819,17.2373191 12.6603863,17 12.25,17 C11.5596441,17 11,17.6715729 11,18.5 C11,19.3284271 11.5596441,20 12.25,20 C12.6603863,20 13.0245819,19.7626809 13.252482,19.3961684 L14,20.0617948 C13.5883883,20.633738 12.9556513,21 12.2460586,21 C11.0055947,21 10,19.8807119 10,18.5 C10,17.1192881 11.0055947,16 12.2460586,16 C12.9556513,16 13.5883883,16.366262 14,16.9382052 L13.252482,17.6038316 Z"/>
  </g>
</svg>
