<?xml version="1.0" encoding="UTF-8"?>
<svg width="16px" height="16px" viewBox="0 0 16 16" version="1.1" xmlns="http://www.w3.org/2000/svg" xmlns:xlink="http://www.w3.org/1999/xlink">
    <!-- Generator: Sketch 47.1 (45422) - http://www.bohemiancoding.com/sketch -->
    <title>network-wirelss-no-route-symbolic</title>
    <desc>Created with Sketch.</desc>
    <defs></defs>
    <g id="Page-1" stroke="none" stroke-width="1" fill="none" fill-rule="evenodd">
        <g id="network-wirelss-no-route-symbolic">
            <g id="Group-13">
                <polygon id="Fill-68" opacity="0" points="0 16 16 16 16 0 0 0"></polygon>
                <path d="M1.89415687,6.58601099 L8.0172865,12.6046743 L14.1248121,6.58668133 C13.3732409,5.87793473 12.5191439,5.30239228 11.5946368,4.88522693 C10.4694066,4.37653508 9.25700703,4.1115 8.0088,4.1115 C6.76121556,4.1115 5.54783199,4.37669848 4.42275203,4.88532236 C3.49863964,5.30266344 2.64438849,5.87830166 1.89415687,6.58601099 Z M0.605178144,6.18002819 C1.5560135,5.16630125 2.68517823,4.35333494 3.92863677,3.79177307 C5.20778089,3.21350011 6.5895459,2.9115 8.0088,2.9115 C9.42869377,2.9115 10.8094724,3.21334338 12.088578,3.79159909 C13.3319683,4.35265391 14.4603555,5.16506044 15.4131923,6.17978358 C15.6361753,6.41724921 15.6289525,6.78925396 15.3969199,7.0178851 L8.4389199,13.8738851 C8.20554558,14.1038383 7.83085649,14.1040669 7.59720181,13.8743985 L0.622201808,7.01839854 C0.389780555,6.78994261 0.382222549,6.41773084 0.605178144,6.18002819 Z" id="Stroke-270" fill="#FFFFFF" fill-rule="nonzero"></path>
            </g>
        </g>
    </g>
</svg>