<svg xmlns="http://www.w3.org/2000/svg" xmlns:xlink="http://www.w3.org/1999/xlink" width="48" height="48" viewBox="0 0 48 48">
  <defs>
    <filter id="deepin-clone-a" width="131.8%" height="131.8%" x="-15.9%" y="-15.9%" filterUnits="objectBoundingBox">
      <feOffset dy="1" in="SourceAlpha" result="shadowOffsetOuter1"/>
      <feGaussianBlur in="shadowOffsetOuter1" result="shadowBlurOuter1" stdDeviation="1"/>
      <feColorMatrix in="shadowBlurOuter1" result="shadowMatrixOuter1" values="0 0 0 0 0   0 0 0 0 0   0 0 0 0 0  0 0 0 0.2 0"/>
      <feMerge>
        <feMergeNode in="shadowMatrixOuter1"/>
        <feMergeNode in="SourceGraphic"/>
      </feMerge>
    </filter>
    <radialGradient id="deepin-clone-b" cx="50%" cy="25.629%" r="79.433%" fx="50%" fy="25.629%">
      <stop offset="0%" stop-color="#429E61"/>
      <stop offset="100%" stop-color="#006174"/>
    </radialGradient>
    <linearGradient id="deepin-clone-e" x1="50%" x2="50%" y1="0%" y2="100%">
      <stop offset="0%" stop-color="#157245"/>
      <stop offset="100%" stop-color="#043742"/>
    </linearGradient>
    <circle id="deepin-clone-c" cx="22" cy="22" r="22"/>
    <filter id="deepin-clone-d" width="104.5%" height="104.5%" x="-2.3%" y="-2.3%" filterUnits="objectBoundingBox">
      <feOffset dy="-1" in="SourceAlpha" result="shadowOffsetInner1"/>
      <feComposite in="shadowOffsetInner1" in2="SourceAlpha" k2="-1" k3="1" operator="arithmetic" result="shadowInnerInner1"/>
      <feColorMatrix in="shadowInnerInner1" result="shadowMatrixInner1" values="0 0 0 0 0   0 0 0 0 0   0 0 0 0 0  0 0 0 0.196186626 0"/>
      <feOffset dy="1" in="SourceAlpha" result="shadowOffsetInner2"/>
      <feComposite in="shadowOffsetInner2" in2="SourceAlpha" k2="-1" k3="1" operator="arithmetic" result="shadowInnerInner2"/>
      <feColorMatrix in="shadowInnerInner2" result="shadowMatrixInner2" values="0 0 0 0 1   0 0 0 0 1   0 0 0 0 1  0 0 0 0.379097465 0"/>
      <feMerge>
        <feMergeNode in="shadowMatrixInner1"/>
        <feMergeNode in="shadowMatrixInner2"/>
      </feMerge>
    </filter>
    <linearGradient id="deepin-clone-h" x1="50%" x2="50%" y1="0%" y2="100%">
      <stop offset="0%" stop-color="#FFF"/>
      <stop offset="100%" stop-color="#FFF" stop-opacity=".6"/>
    </linearGradient>
    <path id="deepin-clone-g" d="M14.3880117,0.717147072 C14.6286208,0.650239383 14.8710867,0.587790638 15.1153146,0.529895451 L15.1153453,0.529888185 C15.2896224,0.488575106 15.4648278,0.449574259 15.6408963,0.412927307 C15.9132908,0.356228155 16.1879493,0.305130539 16.4645491,0.259802694 C16.6711042,0.22594744 16.8792937,0.195237319 17.088518,0.167815386 C17.3160916,0.137984594 17.5452234,0.112012039 17.7755139,0.0900102829 C17.8946347,0.0786279518 18.0143338,0.0682873185 18.1343346,0.0590235333 C18.240713,0.0508132489 18.3469797,0.0434704912 18.4534753,0.0369751112 C18.8557155,0.0124431103 19.2611504,0 19.6694915,0 L19.6694915,0 L20.0118471,0.00291944006 C30.7170724,0.185624352 39.3389831,8.92068037 39.3389831,19.6694915 C39.3389831,30.5326517 30.5326517,39.3389831 19.6694915,39.3389831 L19.6694915,39.3389831 L19.2530269,39.3346616 C19.1351558,39.3322133 19.0175395,39.3287281 18.9001868,39.3242148 L19.2309414,39.3341633 C19.0611533,39.3304289 18.8917438,39.3245298 18.7227453,39.3164849 L18.9001868,39.3242148 C18.7813726,39.3196453 18.6628286,39.3140219 18.5445639,39.3073537 L18.7227453,39.3164849 C18.601107,39.3106944 18.4796816,39.3037923 18.3584812,39.2957855 L18.5445639,39.3073537 C18.3695189,39.297484 18.1950858,39.2853254 18.0212941,39.2709074 L18.3584812,39.2957855 C18.2364461,39.2877235 18.114639,39.2785416 17.9930722,39.2682469 L17.9933119,39.268566 C17.7098848,39.2442655 17.4280016,39.2142455 17.1475777,39.1782773 L17.1474037,39.1787951 C16.0515033,39.0376905 14.9777245,38.8062296 13.9355124,38.4892903 L13.975444,38.5022038 C13.851094,38.4646575 13.7272637,38.4259133 13.6039666,38.3859846 L13.9355124,38.4892903 C13.8083377,38.4506162 13.681633,38.4106693 13.5554152,38.3694595 L13.5550507,38.3700723 C13.1478532,38.2363914 12.7453675,38.0901549 12.3485254,37.93108 L12.5011473,37.9919158 C12.3650702,37.9386374 12.2297315,37.8838869 12.0951506,37.8276838 L12.3485254,37.93108 C12.2306508,37.8838298 12.1132741,37.8354469 11.9964102,37.7859399 L12.0951506,37.8276838 C11.9933318,37.7851627 11.8919467,37.7418101 11.791004,37.6976347 L11.7913597,37.6976913 C11.6372083,37.6303291 11.4844392,37.5611133 11.3327269,37.4900171 C11.2896465,37.4699629 11.2468476,37.4497363 11.2041249,37.4293559 L11.3327269,37.4900171 C11.2209897,37.4376543 11.1098258,37.3842715 10.999247,37.3298807 L11.2041249,37.4293559 C11.0790408,37.3696858 10.9546098,37.3086965 10.8308513,37.2463993 L10.999247,37.3298807 C10.9097328,37.2858511 10.8206021,37.2411609 10.7318613,37.1958166 L10.7318766,37.1962257 C10.6240212,37.140713 10.5167568,37.0846433 10.4100795,37.0276191 L10.4101186,37.0281916 C10.2345652,36.933798 10.0606402,36.8373928 9.88835529,36.7384542 L10.011835,36.8095003 C9.93653117,36.7670086 9.86150615,36.7240173 9.78676467,36.6805291 L9.88835529,36.7384542 C9.79067348,36.6823581 9.69351891,36.6254477 9.59690084,36.5677321 L9.78676467,36.6805291 C9.67218344,36.6138602 9.55826861,36.5460236 9.44503716,36.4770292 L9.59690084,36.5677321 C9.48492692,36.5008437 9.37367359,36.4328738 9.26315527,36.363837 L9.26279867,36.364619 C8.92626082,36.1533911 8.59619627,35.9330308 8.27337007,35.7031646 L8.2731615,35.7042075 C7.47419534,35.1341176 6.71937999,34.5068145 6.01512067,33.827452 L6.19759656,34.0018548 C6.10387846,33.9136721 6.01095364,33.824512 5.91883723,33.7343835 L6.01512067,33.827452 C5.93411298,33.749308 5.85377419,33.6704753 5.77411372,33.5909632 L5.77394,33.5911477 C5.56852063,33.3857531 5.36744581,33.1760178 5.17105136,32.9619195 L5.22823177,33.0240611 C5.17545459,32.9669951 5.12298292,32.9095879 5.07082001,32.8518414 L5.17105136,32.9619195 C5.08163299,32.8644406 4.99318486,32.7660572 4.90572226,32.6667847 L4.90583258,32.6668915 L4.83555888,32.586714 L4.83555888,32.586714 L4.84395361,32.5963157 C4.43775195,32.1308166 4.48582208,31.4241634 4.95132126,31.0179617 C5.41682043,30.6117601 6.12347358,30.6598302 6.52967524,31.1253294 C9.82106206,34.8971944 14.5654965,37.1016949 19.6694915,37.1016949 C29.2970316,37.1016949 37.1016949,29.2970316 37.1016949,19.6694915 C37.1016949,10.0419514 29.2970316,2.23728814 19.6694915,2.23728814 C10.0419514,2.23728814 2.23728814,10.0419514 2.23728814,19.6694915 C2.23728814,19.7316389 2.2376129,19.7937442 2.23826192,19.855806 L6.24576271,19.8559322 L2.02841762,28.3788946 C0.729814815,25.7535689 0,22.7967589 0,19.6694915 L0.001,19.855 L0.00205084746,19.855 L1.17239551e-12,19.6694915 C1.17238641e-12,19.4490546 0.00362619552,19.2294647 0.0108221896,19.0107781 C0.0321628002,18.3628624 0.0847566743,17.7234958 0.167162258,17.0935062 C0.246422326,16.4876377 0.35318735,15.8907383 0.486198356,15.3038021 C0.582798051,14.8775607 0.693174712,14.4567909 0.816882062,14.0417668 L0.816899723,14.0417075 C0.878566212,13.8348235 0.943564792,13.6293088 1.01181622,13.4252842 L0.985552412,13.5043555 C1.01281951,13.421674 1.04062012,13.3392351 1.06895016,13.2570427 L1.06900235,13.2568913 C1.14501859,13.0363497 1.22490406,12.8174345 1.3085277,12.6003759 L1.23111393,12.8047164 C1.26807543,12.7054808 1.30581512,12.6066241 1.34432559,12.5081537 L1.3085277,12.6003759 C1.34458494,12.5067836 1.38133717,12.4135365 1.41877808,12.3206408 L1.41885995,12.3204377 C1.49369227,12.1347693 1.57136356,11.950305 1.65174127,11.7672986 L1.65184456,11.7670635 C1.75200538,11.5390143 1.8564808,11.3129987 1.96506918,11.0893499 L1.8574499,11.314647 C1.90740963,11.2083202 1.95829338,11.1025137 2.0100908,10.9972377 L2.0098592,10.9977084 C2.15123376,10.7103708 2.29916081,10.4274432 2.45366263,10.1486644 L2.38678238,10.2703544 C2.43024589,10.1906047 2.47424532,10.111189 2.51877581,10.0321124 L2.45366263,10.1486644 C2.50797875,10.0506579 2.56310747,9.95316416 2.61903967,9.85619224 L2.51877581,10.0321124 C2.58093601,9.92172913 2.64413101,9.8120064 2.70834768,9.70295735 L2.70835659,9.70294222 C2.81235951,9.52633041 2.91905159,9.35147082 3.02836799,9.17843447 L2.93653188,9.32522753 C2.99274721,9.23448611 3.04968006,9.14423592 3.10732251,9.05448488 L3.10743308,9.05431272 C3.24874179,8.83429077 3.39443222,8.61710112 3.54427678,8.40303294 C3.67400944,8.21769397 3.80693707,8.03458713 3.94290627,7.85389895 L3.90732738,7.90132746 C3.95168273,7.84201416 3.99636503,7.78295957 4.04137159,7.72416634 L3.94290627,7.85389895 C3.99958167,7.77858355 4.05678553,7.70368838 4.11451233,7.62921894 L4.04137159,7.72416634 C4.09782782,7.65041613 4.15479428,7.57707719 4.21226571,7.5041548 L4.21203576,7.50444658 C4.34964521,7.32984138 4.48991008,7.15790811 4.63298829,6.98842702 L4.54079687,7.09843848 C4.59847415,7.0291029 4.65661906,6.96017009 4.71522674,6.89164492 L4.63298829,6.98842702 C4.70505108,6.90306615 4.77782754,6.81832734 4.85130846,6.73421978 L4.71522674,6.89164492 C4.78274169,6.81270521 4.85087078,6.73430645 4.9196066,6.65645604 L4.85130846,6.73421978 C4.9172748,6.65871355 4.98380889,6.58371606 5.05090407,6.50923398 L4.9196066,6.65645604 C5.00125102,6.56398532 5.08375146,6.47228824 5.16709553,6.38137721 L5.05090407,6.50923398 C5.11994559,6.43259127 5.18958124,6.3564943 5.25980374,6.28095032 L5.16709553,6.38137721 C5.23264671,6.30987452 5.29871976,6.23885809 5.36530864,6.16833393 L5.25980374,6.28095032 C5.32871497,6.20681698 5.39819136,6.13321617 5.46822604,6.06015475 L5.46798005,6.06041137 C5.62450959,5.89711698 5.78357327,5.73676519 5.94534087,5.57917556 L5.81894696,5.70341284 C5.88782154,5.63510448 5.95719867,5.56730206 6.02707231,5.50001162 L5.94534087,5.57917556 C6.02061648,5.5058441 6.09647758,5.43311075 6.17291649,5.36098317 L6.02707231,5.50001162 C6.11061698,5.41955555 6.19487145,5.3398314 6.27982541,5.26084949 L6.27994652,5.2607369 C6.51659681,5.0407225 6.75880159,4.82636095 7.00621635,4.61798822 L6.88426755,4.72153954 C6.95883836,4.65769777 7.0338925,4.59440432 7.10942375,4.53166542 L7.10907954,4.53195134 C7.23402427,4.42816785 7.35992315,4.32617942 7.48709234,4.22572816 C7.65870083,4.09017691 7.83246709,3.95753949 8.00847374,3.82776507 L8.00865035,3.82763485 C8.1796078,3.70158333 8.35285993,3.57810827 8.52816694,3.45740305 L8.41300513,3.53730099 C8.4998583,3.47658487 8.58722454,3.41655227 8.67509606,3.35721098 L8.52816694,3.45740305 C8.60755418,3.40274207 8.68736282,3.3486491 8.76758698,3.29513001 L8.67509606,3.35721098 C8.76370583,3.29737113 8.85282939,3.23823427 8.94245875,3.17980838 L8.76758698,3.29513001 C8.86484954,3.23024429 8.96272287,3.16620209 9.06119652,3.10301389 L8.94245875,3.17980838 C9.01838859,3.13031268 9.09468141,3.08132723 9.17133236,3.0328569 L9.06119652,3.10301389 C9.15182903,3.04485716 9.24297006,2.98742383 9.33461147,2.93072206 L9.17133236,3.0328569 C9.29327155,2.95574849 9.41611707,2.87994371 9.53984934,2.80546214 L9.33461147,2.93072206 C9.41810846,2.87905953 9.50202084,2.8280043 9.58634244,2.77756253 L9.58588115,2.77783848 C9.77761592,2.66314141 9.97099508,2.5518769 10.1664079,2.44384099 L10.0554201,2.5056714 C10.1528343,2.45098905 10.2507613,2.397112 10.3491921,2.34404927 L10.1664079,2.44384099 C10.2547459,2.39500247 10.3434995,2.34682374 10.432662,2.29931144 L10.3491921,2.34404927 C10.430705,2.3001068 10.5125634,2.25672278 10.5947621,2.21390233 L10.5949985,2.21377918 C10.8793155,2.0656677 11.167948,1.92418689 11.4604472,1.78967244 L11.2984611,1.8650642 C11.405323,1.81473379 11.5127113,1.76533711 11.6206157,1.7168847 L11.4604472,1.78967244 C11.5368246,1.75454801 11.6134656,1.71989858 11.6903665,1.68572793 L11.6904671,1.68568323 C11.8562417,1.61202183 12.0233259,1.54054332 12.1915812,1.47133037 C12.3968214,1.38689689 12.6043049,1.30564808 12.8134699,1.22785596 L12.8137664,1.2277457 C13.0156255,1.1526708 13.2193517,1.08071453 13.4245859,1.01204984 L13.3099414,1.05080181 C13.4023159,1.01925803 13.495,0.988382384 13.5879879,0.95818062 L13.4245859,1.01204984 C13.5264235,0.977978282 13.6286324,0.944717162 13.731205,0.912274141 L13.5879879,0.95818062 C13.7059479,0.919868083 13.8243969,0.88263998 13.9433229,0.846508077 L13.731205,0.912274141 C13.8311629,0.880658095 13.9314663,0.849818973 14.0321078,0.819763862 L14.032717,0.819581943 Z M21.9078032,7.68455626 L22.6548536,7.85416863 C22.9537655,7.92203442 23.1543046,8.2032199 23.1211156,8.50793715 L22.955035,10.0327704 C22.9273084,10.2873359 23.0632767,10.5316779 23.2942195,10.6423024 L24.1570838,11.0556252 C24.3896263,11.167016 24.6672525,11.118339 24.8480281,10.9344802 L25.9075426,9.85689448 C26.12386,9.63688757 26.4713001,9.61550714 26.7129604,9.80733146 L27.3159824,10.2859964 C27.5550409,10.4757555 27.6147577,10.8141438 27.4550919,11.0742676 L26.660532,12.3687455 C26.5265073,12.5870953 26.5449793,12.8662746 26.706604,13.0650626 L27.3502147,13.8566627 C27.5113235,14.0548162 27.7797293,14.1300876 28.0203811,14.0446034 L29.4422681,13.5395212 C29.7302916,13.4372096 30.0493252,13.5664224 30.184976,13.8403275 L30.5257855,14.5284878 C30.662128,14.8037896 30.5698626,15.1375803 30.3114832,15.3037743 L29.060646,16.1083341 C28.843597,16.2479436 28.7393601,16.510131 28.8013037,16.7606587 L29.0661334,17.8317492 C29.1265256,18.0760026 29.3321391,18.2571448 29.5820565,18.2862693 L31.1073944,18.4640268 C31.4011312,18.4982578 31.6267755,18.7403216 31.6403235,19.0357357 L31.6690648,19.6624374 L31.6694915,19.7058789 L31.6613456,20.0169171 C31.6563446,20.2078713 31.5117231,20.3661046 31.3219874,20.3882158 L29.661472,20.5817263 C29.4014041,20.6120337 29.1905574,20.8066012 29.1394954,21.0634018 L28.910004,22.2175588 C28.8616621,22.4606793 28.9669226,22.7086319 29.1753998,22.842728 L30.4793692,23.6814632 C30.7307464,23.8431533 30.825875,24.1645045 30.7030216,24.4369769 L30.4073176,25.0928089 C30.2782413,25.3790828 29.9511726,25.5185021 29.6552597,25.413388 L28.2858431,24.9269443 C28.0374194,24.8386994 27.7604663,24.9219451 27.6018648,25.1325324 L26.8651797,26.110685 C26.7159834,26.3087842 26.7031866,26.5779968 26.8329196,26.7893547 L27.6527703,28.1250357 C27.8093997,28.3802126 27.7552213,28.7116496 27.5254908,28.9036702 L27.0014661,29.3416769 C26.7602459,29.543301 26.404636,29.5259278 26.1842182,29.3017506 L25.1488346,28.2487073 C24.964771,28.0615044 24.6807874,28.0147966 24.4464621,28.1331856 L23.3324003,28.696047 C23.1080104,28.8094163 22.977423,29.0500307 23.0046441,29.2999556 L23.17337,30.8490751 C23.2063286,31.151678 23.0087428,31.4314484 22.7125405,31.5015838 L22.0723852,31.653161 C21.7706705,31.7246016 21.4639191,31.5557525 21.3628811,31.2626197 L20.8749912,29.8471465 C20.7870656,29.5920553 20.5404765,29.4263411 20.2710721,29.4412972 L19.7029386,29.4728374 C19.6806577,29.4740744 19.6583254,29.4740744 19.6360445,29.4728374 L19.0679109,29.4412972 C18.7985065,29.4263411 18.5519175,29.5920553 18.4639918,29.8471465 L17.9761019,31.2626197 C17.8750639,31.5557525 17.5683126,31.7246016 17.2665978,31.653161 L16.6264426,31.5015838 C16.3302402,31.4314484 16.1326544,31.151678 16.1656131,30.8490751 L16.3343389,29.2999556 C16.36156,29.0500307 16.2309727,28.8094163 16.0065827,28.696047 L14.892521,28.1331856 C14.6581956,28.0147966 14.374212,28.0615044 14.1901485,28.2487073 L13.1547648,29.3017506 C12.934347,29.5259278 12.5787371,29.543301 12.337517,29.3416769 L11.8134923,28.9036702 C11.5837617,28.7116496 11.5295834,28.3802126 11.6862128,28.1250357 L12.5060635,26.7893547 C12.6357965,26.5779968 12.6229996,26.3087842 12.4738034,26.110685 L11.7371183,25.1325324 C11.5785167,24.9219451 11.3015636,24.8386994 11.05314,24.9269443 L9.68372338,25.413388 C9.38781041,25.5185021 9.0607417,25.3790828 8.93166542,25.0928089 L8.63596141,24.4369769 C8.51310801,24.1645045 8.6082366,23.8431533 8.85961382,23.6814632 L10.1635833,22.842728 C10.3720605,22.7086319 10.4773209,22.4606793 10.4289791,22.2175588 L10.1994876,21.0634018 C10.1484256,20.8066012 9.93757893,20.6120337 9.67751101,20.5817263 L8.01699562,20.3882158 C7.82725996,20.3661046 7.68263848,20.2078713 7.67763748,20.0169171 L7.66949154,19.7058789 L7.66991827,19.6624374 L7.69865955,19.0357357 C7.71220759,18.7403216 7.93785181,18.4982578 8.23158861,18.4640268 L9.75692658,18.2862693 C10.006844,18.2571448 10.2124574,18.0760026 10.2728496,17.8317492 L10.5376794,16.7606587 C10.599623,16.510131 10.4953861,16.2479436 10.2783371,16.1083341 L9.02749985,15.3037743 C8.76912044,15.1375803 8.67685505,14.8037896 8.81319753,14.5284878 L9.15400707,13.8403275 C9.28965786,13.5664224 9.6086915,13.4372096 9.89671494,13.5395212 L11.3186019,14.0446034 C11.5592537,14.1300876 11.8276596,14.0548162 11.9887684,13.8566627 L12.6323791,13.0650626 C12.7940038,12.8662746 12.8124757,12.5870953 12.6784511,12.3687455 L11.8838911,11.0742676 C11.7242253,10.8141438 11.7839421,10.4757555 12.0230007,10.2859964 L12.6260227,9.80733146 C12.8676829,9.61550714 13.2151231,9.63688757 13.4314404,9.85689448 L14.490955,10.9344802 C14.6717305,11.118339 14.9493568,11.167016 15.1818992,11.0556252 L16.0447636,10.6423024 C16.2757063,10.5316779 16.4116746,10.2873359 16.3839481,10.0327704 L16.2178674,8.50793715 C16.1846785,8.2032199 16.3852175,7.92203442 16.6841294,7.85416863 L17.4311798,7.68455626 C17.7314618,7.61637943 18.0349085,7.7852412 18.1352514,8.07635737 L18.6239428,9.49415593 C18.7116291,9.74835549 18.9569128,9.91390359 19.225455,9.90006961 C19.4056367,9.89078753 19.5536489,9.88614648 19.6694915,9.88614648 C19.7853555,9.88614648 19.9334008,9.89078923 20.1136276,9.90007473 C20.3821676,9.9138286 20.6274462,9.74828501 20.7150697,9.4940705 L21.2037317,8.07635737 C21.3040746,7.7852412 21.6075213,7.61637943 21.9078032,7.68455626 Z M12.0377942,18.0508958 C11.9274963,18.5733536 11.8694819,19.1150938 11.8694819,19.670385 C11.8694819,23.3079561 14.3590109,26.3640221 17.7280773,27.2272477 C18.8786472,25.4030802 19.0043713,23.0180556 17.8511122,21.0205522 C16.6307457,18.9068154 14.3187674,17.8164278 12.0377942,18.0508958 Z M21.4885914,21.0205522 C20.3353323,23.0180556 20.4610369,25.4031138 21.6126288,27.2274657 C24.9806926,26.3640221 27.4702217,23.3079561 27.4702217,19.670385 C27.4702217,19.2975466 27.4440678,18.9308173 27.3934948,18.5719318 L27.3348464,18.2157251 L27.3011378,18.0504559 C25.0209287,17.8164406 22.7089579,18.9068154 21.4885914,21.0205522 Z M19.6698664,18.469379 C19.0070933,18.469379 18.4698095,19.0067038 18.4698095,19.6695276 C18.4698095,20.3323514 19.0070933,20.8696762 19.6698664,20.8696762 C20.3326395,20.8696762 20.8699233,20.3323514 20.8699233,19.6695276 C20.8699233,19.0067038 20.3326395,18.469379 19.6698664,18.469379 Z M19.6698518,11.869419 C17.5033622,11.869419 15.5431621,12.7527164 14.130229,14.1793071 C15.0349407,16.3468238 17.1745125,17.8701621 19.6698518,17.8701621 C22.1651911,17.8701621 24.3047629,16.3468238 25.2100214,14.1788545 C23.7965415,12.7527164 21.8363413,11.869419 19.6698518,11.869419 Z"/>
    <filter id="deepin-clone-f" width="102.5%" height="105.1%" x="-1.3%" y="-1.3%" filterUnits="objectBoundingBox">
      <feOffset dy="1" in="SourceAlpha" result="shadowOffsetOuter1"/>
      <feColorMatrix in="shadowOffsetOuter1" values="0 0 0 0 0   0 0 0 0 0   0 0 0 0 0  0 0 0 0.19654174 0"/>
    </filter>
  </defs>
  <g fill="none" fill-rule="evenodd" filter="url(#deepin-clone-a)" transform="translate(2 2)">
    <use fill="url(#deepin-clone-b)" xlink:href="#deepin-clone-c"/>
    <use fill="#000" filter="url(#deepin-clone-d)" xlink:href="#deepin-clone-c"/>
    <circle cx="22" cy="22" r="22.25" stroke="url(#deepin-clone-e)" stroke-width=".5"/>
    <g fill-rule="nonzero" transform="translate(2.33 2.33)">
      <use fill="#000" filter="url(#deepin-clone-f)" xlink:href="#deepin-clone-g"/>
      <use fill="url(#deepin-clone-h)" xlink:href="#deepin-clone-g"/>
    </g>
  </g>
</svg>
