<svg xmlns="http://www.w3.org/2000/svg" xmlns:xlink="http://www.w3.org/1999/xlink" width="48" height="48" viewBox="0 0 48 48">
  <defs>
    <filter id="deepin-multitasking-view-a" width="129.5%" height="132.5%" x="-14.8%" y="-16.2%" filterUnits="objectBoundingBox">
      <feOffset dy="1" in="SourceAlpha" result="shadowOffsetOuter1"/>
      <feGaussianBlur in="shadowOffsetOuter1" result="shadowBlurOuter1" stdDeviation="1"/>
      <feColorMatrix in="shadowBlurOuter1" result="shadowMatrixOuter1" values="0 0 0 0 0   0 0 0 0 0   0 0 0 0 0  0 0 0 0.2 0"/>
      <feMerge>
        <feMergeNode in="shadowMatrixOuter1"/>
        <feMergeNode in="SourceGraphic"/>
      </feMerge>
    </filter>
    <linearGradient id="deepin-multitasking-view-b" x1="50%" x2="50%" y1="0%" y2="100%">
      <stop offset="0%" stop-color="#E2E2E4"/>
      <stop offset="100%" stop-color="#C8C7CA"/>
    </linearGradient>
    <path id="deepin-multitasking-view-c" d="M4.015,1 L39.985,1 C41.6501385,1 43,2.34986148 43,4.015 L43,35.985 C43,37.6501385 41.6501385,39 39.985,39 L4.015,39 C2.34986148,39 1,37.6501385 1,35.985 L1,4.015 C1,2.34986148 2.34986148,1 4.015,1 Z"/>
    <filter id="deepin-multitasking-view-d" width="102.4%" height="102.6%" x="-1.2%" y="-1.3%" filterUnits="objectBoundingBox">
      <feOffset dy="1" in="SourceAlpha" result="shadowOffsetInner1"/>
      <feComposite in="shadowOffsetInner1" in2="SourceAlpha" k2="-1" k3="1" operator="arithmetic" result="shadowInnerInner1"/>
      <feColorMatrix in="shadowInnerInner1" values="0 0 0 0 1   0 0 0 0 1   0 0 0 0 1  0 0 0 1 0"/>
    </filter>
    <linearGradient id="deepin-multitasking-view-e" x1="50%" x2="50%" y1="0%" y2="100%">
      <stop offset="0%" stop-color="#BEBFC7"/>
      <stop offset="100%" stop-color="#87888D"/>
    </linearGradient>
    <radialGradient id="deepin-multitasking-view-f" cx="50%" cy="18.478%" r="81.522%" fx="50%" fy="18.478%" gradientTransform="matrix(0 1 -.85167 0 .657 -.315)">
      <stop offset="0%" stop-color="#6BB1DD"/>
      <stop offset="35.604%" stop-color="#60A0CE"/>
      <stop offset="100%" stop-color="#32639A"/>
    </radialGradient>
    <linearGradient id="deepin-multitasking-view-g" x1="50%" x2="50%" y1="-1.651%" y2="100%">
      <stop offset="0%" stop-color="#005392" stop-opacity=".557"/>
      <stop offset="100%" stop-color="#002D5B" stop-opacity=".855"/>
    </linearGradient>
    <linearGradient id="deepin-multitasking-view-j" x1="50%" x2="50%" y1="0%" y2="100%">
      <stop offset="0%" stop-color="#FFF"/>
      <stop offset="100%" stop-color="#FFF" stop-opacity=".6"/>
    </linearGradient>
    <path id="deepin-multitasking-view-i" d="M26.249747,13 C26.6641003,13 27,13.3418207 27,13.751855 L27,21.248145 C27,21.6633831 26.6658173,22 26.249747,22 L11.750253,22 C11.3358997,22 11,21.6581793 11,21.248145 L11,13.751855 C11,13.3366169 11.3341827,13 11.750253,13 L26.249747,13 Z M7.24737942,13 C7.66304029,13 8,13.3418207 8,13.751855 L8,21.248145 C8,21.6633831 7.65625,22 7.24737942,22 L0.752620578,22 C0.33695971,22 -6.54587495e-13,21.6581793 -6.54587495e-13,21.248145 L-6.54587495e-13,13.751855 C-6.54587495e-13,13.3366169 0.34375,13 0.752620578,13 L7.24737942,13 Z M14.2561477,1.50990331e-14 C14.666966,1.50990331e-14 15,0.341820717 15,0.751854971 L15,8.24814503 C15,8.66338306 14.6585208,9 14.2561477,9 L0.743852332,9 C0.333034033,9 -1.08446585e-12,8.65817928 -1.08446585e-12,8.24814503 L-1.08446585e-12,0.751854971 C-1.08446585e-12,0.336616936 0.341479182,1.50990331e-14 0.743852332,1.50990331e-14 L14.2561477,1.50990331e-14 Z M27.24625,1.50990331e-14 C27.6625346,1.50990331e-14 28,0.33746537 28,0.75375 L28,8.24625 C28,8.66253463 27.6625346,9 27.24625,9 L18.75375,9 C18.3374654,9 18,8.66253463 18,8.24625 L18,0.75375 C18,0.33746537 18.3374654,1.50990331e-14 18.75375,1.50990331e-14 L27.24625,1.50990331e-14 Z"/>
    <filter id="deepin-multitasking-view-h" width="103.6%" height="109.1%" x="-1.8%" y="-2.3%" filterUnits="objectBoundingBox">
      <feOffset dy="1" in="SourceAlpha" result="shadowOffsetOuter1"/>
      <feColorMatrix in="shadowOffsetOuter1" values="0 0 0 0 0   0 0 0 0 0   0 0 0 0 0  0 0 0 0.1 0"/>
    </filter>
  </defs>
  <g fill="none" fill-rule="evenodd" filter="url(#deepin-multitasking-view-a)" transform="translate(2 4)">
    <g fill-rule="nonzero">
      <use fill="url(#deepin-multitasking-view-b)" xlink:href="#deepin-multitasking-view-c"/>
      <use fill="#000" filter="url(#deepin-multitasking-view-d)" xlink:href="#deepin-multitasking-view-c"/>
    </g>
    <path fill="url(#deepin-multitasking-view-e)" fill-rule="nonzero" d="M39.985,0 L4.015,0 C1.79757673,0 0,1.79757673 0,4.015 L0,35.985 C0,38.2024233 1.79757673,40 4.015,40 L39.985,40 C42.2024233,40 44,38.2024233 44,35.985 L44,4.015 C44,1.79757673 42.2024233,0 39.985,0 Z M39.985,1 C41.6501385,1 43,2.34986148 43,4.015 L43,35.985 C43,37.6501385 41.6501385,39 39.985,39 L4.015,39 C2.34986148,39 1,37.6501385 1,35.985 L1,4.015 C1,2.34986148 2.34986148,1 4.015,1 L39.985,1 Z"/>
    <path fill="url(#deepin-multitasking-view-f)" fill-rule="nonzero" d="M4.5,3 L39.5,3 C40.3284271,3 41,3.67157288 41,4.5 L41,34 L3,34 L3,4.5 C3,3.67157288 3.67157288,3 4.5,3 Z"/>
    <path fill="url(#deepin-multitasking-view-g)" fill-rule="nonzero" d="M39.5,2 L4.5,2 C3.11928813,2 2,3.11928813 2,4.5 L2,35 L42,35 L42,4.5 C42,3.11928813 40.8807119,2 39.5,2 Z M39.5,3 C40.3284271,3 41,3.67157288 41,4.5 L41,34 L3,34 L3,4.5 C3,3.67157288 3.67157288,3 4.5,3 L39.5,3 Z"/>
    <g transform="translate(9 9)">
      <g fill-rule="nonzero">
        <use fill="#000" filter="url(#deepin-multitasking-view-h)" xlink:href="#deepin-multitasking-view-i"/>
        <use fill="url(#deepin-multitasking-view-j)" xlink:href="#deepin-multitasking-view-i"/>
      </g>
      <rect width="13" height="1" x="1" y="1" fill="#004480" fill-opacity=".289" rx=".5"/>
      <path fill="#004480" fill-opacity=".289" d="M1.5,14 L6.5,14 C6.77614237,14 7,14.2238576 7,14.5 C7,14.7761424 6.77614237,15 6.5,15 L1.5,15 C1.22385763,15 1,14.7761424 1,14.5 C1,14.2238576 1.22385763,14 1.5,14 Z"/>
      <rect width="14" height="1" x="12" y="14" fill="#004480" fill-opacity=".289" rx=".5"/>
      <path fill="#004480" fill-opacity=".289" d="M19.5,1 L26.5,1 C26.7761424,1 27,1.22385763 27,1.5 C27,1.77614237 26.7761424,2 26.5,2 L19.5,2 C19.2238576,2 19,1.77614237 19,1.5 C19,1.22385763 19.2238576,1 19.5,1 Z"/>
    </g>
  </g>
</svg>
