<svg xmlns="http://www.w3.org/2000/svg" xmlns:xlink="http://www.w3.org/1999/xlink" width="48" height="48" viewBox="0 0 48 48">
  <defs>
    <filter id="gparted-a" width="137.8%" height="139%" x="-18.9%" y="-23.2%" filterUnits="objectBoundingBox">
      <feOffset dy="1" in="SourceAlpha" result="shadowOffsetOuter1"/>
      <feGaussianBlur in="shadowOffsetOuter1" result="shadowBlurOuter1" stdDeviation="1"/>
      <feColorMatrix in="shadowBlurOuter1" result="shadowMatrixOuter1" values="0 0 0 0 0   0 0 0 0 0   0 0 0 0 0  0 0 0 0.2 0"/>
      <feMerge>
        <feMergeNode in="shadowMatrixOuter1"/>
        <feMergeNode in="SourceGraphic"/>
      </feMerge>
    </filter>
    <linearGradient id="gparted-b" x1="50%" x2="100%" y1="23.86%" y2="101.721%">
      <stop offset="0%" stop-color="#E3E3E3"/>
      <stop offset=".919%" stop-color="#E3E3E3"/>
      <stop offset="100%" stop-color="#ADB2B5"/>
    </linearGradient>
    <linearGradient id="gparted-c" x1="50%" x2="50%" y1="0%" y2="100%">
      <stop offset="0%" stop-opacity=".35"/>
      <stop offset="100%" stop-opacity=".464"/>
    </linearGradient>
    <linearGradient id="gparted-d" x1="50%" x2="50%" y1="-6.672%" y2="100%">
      <stop offset="0%" stop-color="#FFF"/>
      <stop offset="21.213%" stop-color="#EFEFEF"/>
      <stop offset="100%" stop-color="#5F5F62"/>
    </linearGradient>
    <linearGradient id="gparted-e" x1="50%" x2="100%" y1="37.039%" y2="75.945%">
      <stop offset="0%" stop-color="#E3E3E3"/>
      <stop offset=".919%" stop-color="#E3E3E3"/>
      <stop offset="100%" stop-color="#BBB"/>
    </linearGradient>
    <linearGradient id="gparted-f" x1="50%" x2="50%" y1="6.904%" y2="100%">
      <stop offset="0%" stop-color="#FFF" stop-opacity=".301"/>
      <stop offset="100%" stop-color="#FFF"/>
    </linearGradient>
    <radialGradient id="gparted-g" cx="50%" cy="100%" r="2100%" fx="50%" fy="100%" gradientTransform="matrix(.02381 0 0 1 .488 0)">
      <stop offset="0%"/>
      <stop offset="100%" stop-opacity="0"/>
    </radialGradient>
    <linearGradient id="gparted-h" x1="50%" x2="50%" y1="-29.937%" y2="122.559%">
      <stop offset="0%" stop-color="#454545"/>
      <stop offset="100%" stop-color="#ACACAC"/>
    </linearGradient>
    <linearGradient id="gparted-i" x1="100%" x2="100%" y1="0%" y2="100%">
      <stop offset="0%" stop-color="#9C9C9C"/>
      <stop offset="100%" stop-color="#F6F6F6" stop-opacity=".82"/>
    </linearGradient>
    <radialGradient id="gparted-j" cx="50%" cy="18.931%" r="100%" fx="50%" fy="18.931%">
      <stop offset="2.576%" stop-color="#B4E09E"/>
      <stop offset="100%" stop-color="#1A8F29"/>
    </radialGradient>
    <linearGradient id="gparted-k" x1="50%" x2="50%" y1="2.967%" y2="97.759%">
      <stop offset="0%" stop-color="#9D9D9D"/>
      <stop offset="100%" stop-color="#E2E2E2"/>
    </linearGradient>
    <filter id="gparted-l" width="166.7%" height="166.7%" x="-33.3%" y="-33.3%" filterUnits="objectBoundingBox">
      <feGaussianBlur in="SourceGraphic"/>
    </filter>
    <linearGradient id="gparted-o" x1="50%" x2="50%" y1="0%" y2="100%">
      <stop offset="0%" stop-color="#FFF"/>
      <stop offset="100%" stop-color="#DBDBDB"/>
    </linearGradient>
    <ellipse id="gparted-n" cx="5.699" cy="25.063" rx="1.313" ry="1"/>
    <filter id="gparted-m" width="115.2%" height="142.7%" x="-7.6%" y="-10.7%" filterUnits="objectBoundingBox">
      <feOffset dy=".4" in="SourceAlpha" result="shadowOffsetOuter1"/>
      <feColorMatrix in="shadowOffsetOuter1" values="0 0 0 0 0   0 0 0 0 0   0 0 0 0 0  0 0 0 0.15 0"/>
    </filter>
    <ellipse id="gparted-q" cx="38.574" cy="25.063" rx="1.313" ry="1"/>
    <filter id="gparted-p" width="115.2%" height="142.7%" x="-7.6%" y="-10.7%" filterUnits="objectBoundingBox">
      <feOffset dy=".4" in="SourceAlpha" result="shadowOffsetOuter1"/>
      <feColorMatrix in="shadowOffsetOuter1" values="0 0 0 0 0   0 0 0 0 0   0 0 0 0 0  0 0 0 0.15 0"/>
    </filter>
    <linearGradient id="gparted-t" x1="50%" x2="50%" y1="0%" y2="100%">
      <stop offset="0%" stop-color="#E5E3E3"/>
      <stop offset="5.138%" stop-color="#F3F2F2"/>
      <stop offset="100%" stop-color="#E1E0E0"/>
    </linearGradient>
    <path id="gparted-s" d="M21.125,5.75 C24.4100494,5.73680623 27.4100494,6.2159729 30.125,7.1875 C32.7608087,8.1307067 34.6822059,9.5916614 35.8891917,11.5703641 C35.9573335,11.6819163 36.0786143,11.75 36.2093322,11.75 L37.9814396,11.75 L37.9814396,11.75 L36.125,3.75 L21.125,3.75 L21.125,5.75 Z"/>
    <filter id="gparted-r" width="105.9%" height="125%" x="-3%" y="-6.2%" filterUnits="objectBoundingBox">
      <feOffset dy="1" in="SourceAlpha" result="shadowOffsetOuter1"/>
      <feColorMatrix in="shadowOffsetOuter1" values="0 0 0 0 0   0 0 0 0 0   0 0 0 0 0  0 0 0 0.114237325 0"/>
    </filter>
    <path id="gparted-u" d="M36.6363754,11.425 C36.9125178,11.425 37.1363754,11.2738961 37.1363754,11.0875 C37.1363754,10.9011039 36.9125178,10.75 36.6363754,10.75 C36.3602331,10.75 36.1363754,10.9011039 36.1363754,11.0875 C36.1363754,11.2738961 36.3602331,11.425 36.6363754,11.425 Z"/>
    <filter id="gparted-v" width="300%" height="396.3%" x="-100%" y="-148.1%" filterUnits="objectBoundingBox">
      <feGaussianBlur in="SourceAlpha" result="shadowBlurInner1" stdDeviation=".5"/>
      <feOffset dy="1" in="shadowBlurInner1" result="shadowOffsetInner1"/>
      <feComposite in="shadowOffsetInner1" in2="SourceAlpha" k2="-1" k3="1" operator="arithmetic" result="shadowInnerInner1"/>
      <feColorMatrix in="shadowInnerInner1" values="0 0 0 0 0   0 0 0 0 0   0 0 0 0 0  0 0 0 0.414963942 0"/>
    </filter>
    <path id="gparted-w" d="M23.375,5.00570374 C23.6511424,5.00570374 23.875,4.85459984 23.875,4.66820374 C23.875,4.48180763 23.6511424,4.33070374 23.375,4.33070374 C23.0988576,4.33070374 22.875,4.48180763 22.875,4.66820374 C22.875,4.85459984 23.0988576,5.00570374 23.375,5.00570374 Z"/>
    <filter id="gparted-x" width="300%" height="396.3%" x="-100%" y="-148.1%" filterUnits="objectBoundingBox">
      <feGaussianBlur in="SourceAlpha" result="shadowBlurInner1" stdDeviation=".5"/>
      <feOffset dy="1" in="shadowBlurInner1" result="shadowOffsetInner1"/>
      <feComposite in="shadowOffsetInner1" in2="SourceAlpha" k2="-1" k3="1" operator="arithmetic" result="shadowInnerInner1"/>
      <feColorMatrix in="shadowInnerInner1" values="0 0 0 0 0   0 0 0 0 0   0 0 0 0 0  0 0 0 0.414963942 0"/>
    </filter>
    <linearGradient id="gparted-y" x1="50%" x2="50%" y1="-1.22%" y2="101.219%">
      <stop offset="0%" stop-color="#858383"/>
      <stop offset="100%" stop-color="#363535"/>
    </linearGradient>
    <linearGradient id="gparted-z" x1="54.878%" x2="54.878%" y1="-1.22%" y2="101.219%">
      <stop offset="0%" stop-color="#727172"/>
      <stop offset="100%" stop-opacity=".667"/>
    </linearGradient>
    <linearGradient id="gparted-A" x1="54.878%" x2="54.878%" y1="-1.22%" y2="101.015%">
      <stop offset="0%" stop-color="#727172"/>
      <stop offset="100%" stop-color="#171617"/>
    </linearGradient>
    <linearGradient id="gparted-B" x1="50%" x2="50%" y1="0%" y2="100%">
      <stop offset="0%" stop-opacity=".8"/>
      <stop offset="100%" stop-opacity=".72"/>
    </linearGradient>
    <filter id="gparted-C" width="400%" height="528.6%" x="-150%" y="-214.3%" filterUnits="objectBoundingBox">
      <feGaussianBlur in="SourceGraphic" stdDeviation="3.75"/>
    </filter>
    <filter id="gparted-D" width="385.7%" height="528.6%" x="-142.9%" y="-214.3%" filterUnits="objectBoundingBox">
      <feGaussianBlur in="SourceGraphic" stdDeviation="3.75"/>
    </filter>
    <linearGradient id="gparted-E" x1="88.51%" x2="0%" y1="46.561%" y2="26.756%">
      <stop offset="0%" stop-color="red"/>
      <stop offset="100%" stop-color="red" stop-opacity="0"/>
    </linearGradient>
    <filter id="gparted-F" width="372.7%" height="500%" x="-136.4%" y="-200%" filterUnits="objectBoundingBox">
      <feGaussianBlur in="SourceGraphic" stdDeviation="3.75"/>
    </filter>
    <linearGradient id="gparted-G" x1="59.583%" x2="78.102%" y1="66.924%" y2="31.474%">
      <stop offset="0%" stop-color="#00F"/>
      <stop offset="100%" stop-color="#00F" stop-opacity="0"/>
    </linearGradient>
    <filter id="gparted-H" width="360.9%" height="528.6%" x="-130.4%" y="-214.3%" filterUnits="objectBoundingBox">
      <feGaussianBlur in="SourceGraphic" stdDeviation="3.75"/>
    </filter>
    <linearGradient id="gparted-I" x1="41.951%" x2="100%" y1="37.221%" y2="73.624%">
      <stop offset="0%" stop-color="#00F"/>
      <stop offset="100%" stop-color="#00F" stop-opacity="0"/>
    </linearGradient>
    <filter id="gparted-J" width="360.9%" height="500%" x="-130.4%" y="-200%" filterUnits="objectBoundingBox">
      <feGaussianBlur in="SourceGraphic" stdDeviation="3.75"/>
    </filter>
    <linearGradient id="gparted-K" x1="24.063%" x2="107.487%" y1="44.802%" y2="66.045%">
      <stop offset="0%" stop-color="red"/>
      <stop offset="100%" stop-color="red" stop-opacity="0"/>
    </linearGradient>
    <filter id="gparted-L" width="350%" height="500%" x="-125%" y="-200%" filterUnits="objectBoundingBox">
      <feGaussianBlur in="SourceGraphic" stdDeviation="3.75"/>
    </filter>
    <linearGradient id="gparted-O" x1="26.474%" x2="85.885%" y1="87.628%" y2="1.122%">
      <stop offset="0%" stop-color="#E3E3E3"/>
      <stop offset="100%" stop-color="#FFF"/>
    </linearGradient>
    <path id="gparted-N" d="M34.7203767,5.71808482 C34.0630475,5.1770727 33.1100775,5.23399539 32.5210022,5.82483502 L32.4059954,5.95286705 L32.4059954,5.95286705 L25.9283308,13.963845 C25.7962126,14.1272366 25.8174699,14.3659632 25.9763789,14.5034405 C26.1410598,14.6459111 26.3843985,14.6491254 26.5527851,14.5110543 L34.7184475,7.81549858 C35.2980699,7.34022856 35.3826643,6.48506923 34.9073943,5.90544677 C34.8513095,5.83704775 34.7886724,5.77429534 34.7203767,5.71808482 Z"/>
    <filter id="gparted-M" width="142.7%" height="143.2%" x="-21.3%" y="-10.8%" filterUnits="objectBoundingBox">
      <feOffset dy="1" in="SourceAlpha" result="shadowOffsetOuter1"/>
      <feGaussianBlur in="shadowOffsetOuter1" result="shadowBlurOuter1" stdDeviation=".5"/>
      <feColorMatrix in="shadowBlurOuter1" values="0 0 0 0 0   0 0 0 0 0   0 0 0 0 0  0 0 0 0.198371941 0"/>
    </filter>
    <linearGradient id="gparted-P" x1="150.123%" x2="-9.193%" y1="142.905%" y2="50%">
      <stop offset="0%" stop-color="#BBB"/>
      <stop offset="98.222%" stop-color="#BEBEBE"/>
      <stop offset="100%" stop-color="#E3E3E3"/>
    </linearGradient>
    <linearGradient id="gparted-S" x1="50%" x2="50%" y1="0%" y2="100%">
      <stop offset="0%" stop-color="#FFF"/>
      <stop offset="100%" stop-color="#DBDBDB"/>
    </linearGradient>
    <path id="gparted-R" d="M11.875,8.25 C12.4963203,8.25 13,7.97671356 13,7.5625 C13,7.14828644 12.4963203,6.875 11.875,6.875 C11.2536797,6.875 10.75,7.14828644 10.75,7.5625 C10.75,7.97671356 11.2536797,8.25 11.875,8.25 Z"/>
    <filter id="gparted-Q" width="117.8%" height="158.2%" x="-8.9%" y="-14.5%" filterUnits="objectBoundingBox">
      <feOffset dy=".4" in="SourceAlpha" result="shadowOffsetOuter1"/>
      <feColorMatrix in="shadowOffsetOuter1" values="0 0 0 0 0   0 0 0 0 0   0 0 0 0 0  0 0 0 0.15 0"/>
    </filter>
  </defs>
  <g fill="none" fill-rule="evenodd">
    <g filter="url(#gparted-a)" transform="translate(1.875 3.25)">
      <path fill="url(#gparted-b)" d="M36.6951114,1.75 C37.41002,1.75 38.0255779,2.25453371 38.1659235,2.95553112 L43.0960546,27.5805311 C43.1167592,27.6839467 43.1262917,27.7870063 43.1254849,27.8884599 L43.125,38 C43.125,38.8284271 42.4534271,39.5 41.625,39.5 L2.625,39.5 C1.79657288,39.5 1.125,38.8284271 1.125,38 L1.12283519,27.9235462 C1.12232268,27.907427 1.12206448,27.8912437 1.12206448,27.875 C1.12206448,27.7686902 1.13336616,27.6626817 1.155779,27.5587614 L6.46673436,2.93376135 C6.61569555,2.24308158 7.22645917,1.75 7.93301984,1.75 L36.6951114,1.75 Z"/>
      <path fill="url(#gparted-c)" fill-rule="nonzero" d="M36.6951114,0.75 L7.93301984,0.75 C6.75541872,0.75 5.73747936,1.57180264 5.4892107,2.72293558 L0.178255343,27.3479356 C0.14090061,27.5211361 0.12206448,27.697817 0.12206448,27.875 L0.125000023,38.0002148 C0.125,39.3807119 1.24428813,40.5 2.625,40.5 L41.625,40.5 C43.0057119,40.5 44.125,39.3807119 44.125,38 L44.1255602,27.8885078 C44.1268138,27.7253273 44.110557,27.5538471 44.0765959,27.3842185 L39.1464648,2.75921853 C38.9125556,1.59088951 37.8866257,0.75 36.6951114,0.75 Z M36.6951114,1.75 C37.41002,1.75 38.0255779,2.25453371 38.1659235,2.95553112 L43.0960546,27.5805311 C43.1167592,27.6839467 43.1262917,27.7870063 43.1255321,27.8884599 L43.125,38 C43.125,38.8284271 42.4534271,39.5 41.625,39.5 L2.625,39.5 C1.79657288,39.5 1.125,38.8284271 1.125,38 L1.12206448,27.875 C1.12206448,27.7686902 1.13336616,27.6626817 1.155779,27.5587614 L6.46673436,2.93376135 C6.61569555,2.24308158 7.22645917,1.75 7.93301984,1.75 L36.6951114,1.75 Z"/>
      <path fill="url(#gparted-d)" d="M1.14016724,27.25 L43.0803223,27.25 L43.0803223,38 C43.0803223,38.8284271 42.4087494,39.5 41.5803223,39.5 L2.64016724,39.5 C1.81174011,39.5 1.14016724,38.8284271 1.14016724,38 L1.14016724,27.25 L1.14016724,27.25 Z"/>
      <path fill="url(#gparted-e)" d="M7.92828495,1.75 L36.7006832,1.75 C37.4130824,1.75 38.0272084,2.25107885 38.1701698,2.94898623 L43.0863975,26.9489862 C43.2526428,27.7605612 42.7294998,28.5532412 41.9179247,28.7194865 C41.8188717,28.7397769 41.7180209,28.75 41.616911,28.75 L2.65590038,28.75 C1.82747326,28.75 1.15590038,28.0784271 1.15590038,27.25 C1.15590038,27.1417707 1.16761386,27.0338593 1.1908362,26.9281508 L6.46322076,2.92815076 C6.614363,2.24014829 7.22387643,1.75 7.92828495,1.75 Z"/>
      <path fill="url(#gparted-f)" fill-rule="nonzero" d="M36.7006832,1.75 C37.4130824,1.75 38.0272084,2.25107885 38.1701698,2.94898623 L43.0863975,26.9489862 C43.2526428,27.7605612 42.7294998,28.5532412 41.9179247,28.7194865 C41.8188717,28.7397769 41.7180209,28.75 41.616911,28.75 L2.65590038,28.75 C1.82747326,28.75 1.15590038,28.0784271 1.15590038,27.25 C1.15590038,27.1417707 1.16761386,27.0338593 1.1908362,26.9281508 L6.46322076,2.92815076 C6.614363,2.24014829 7.22387643,1.75 7.92828495,1.75 L36.7006832,1.75 Z M36.7006832,2.75 L7.92828495,2.75 C7.72283246,2.75 7.541598,2.87508993 7.46574841,3.05999838 L7.43993022,3.14271692 L2.16754565,27.1427169 C2.15980487,27.1779531 2.15590038,27.2139236 2.15590038,27.25 C2.15590038,27.4954599 2.33277554,27.6996084 2.56602475,27.7419443 L2.65590038,27.75 L41.616911,27.75 C41.6506143,27.75 41.6842312,27.7465923 41.7172489,27.7398288 C41.9577156,27.690571 42.1222166,27.4763262 42.1170098,27.239326 L42.1067398,27.1496621 L37.1905121,3.14966208 C37.148815,2.94610576 36.9868728,2.79278172 36.7879548,2.75763128 L36.7006832,2.75 Z"/>
      <polygon fill="url(#gparted-g)" fill-rule="nonzero" points="1.125 26.75 43.125 26.75 43.125 27.75 1.125 27.75" opacity=".18"/>
      <path fill="url(#gparted-h)" fill-rule="nonzero" d="M19.625,31.75 C19.9011424,31.75 20.125,31.9738576 20.125,32.25 L20.125,35.25 C20.125,35.5261424 19.9011424,35.75 19.625,35.75 C19.3488576,35.75 19.125,35.5261424 19.125,35.25 L19.125,32.25 C19.125,31.9738576 19.3488576,31.75 19.625,31.75 Z M14.625,31.75 C14.9011424,31.75 15.125,31.9738576 15.125,32.25 L15.125,35.25 C15.125,35.5261424 14.9011424,35.75 14.625,35.75 C14.3488576,35.75 14.125,35.5261424 14.125,35.25 L14.125,32.25 C14.125,31.9738576 14.3488576,31.75 14.625,31.75 Z M9.625,31.75 C9.90114237,31.75 10.125,31.9738576 10.125,32.25 L10.125,35.25 C10.125,35.5261424 9.90114237,35.75 9.625,35.75 C9.34885763,35.75 9.125,35.5261424 9.125,35.25 L9.125,32.25 C9.125,31.9738576 9.34885763,31.75 9.625,31.75 Z M4.625,31.75 C4.90114237,31.75 5.125,31.9738576 5.125,32.25 L5.125,35.25 C5.125,35.5261424 4.90114237,35.75 4.625,35.75 C4.34885763,35.75 4.125,35.5261424 4.125,35.25 L4.125,32.25 C4.125,31.9738576 4.34885763,31.75 4.625,31.75 Z"/>
      <path fill="url(#gparted-i)" fill-rule="nonzero" d="M19.625,30.75 C20.4046961,30.75 21.0454487,31.3448881 21.1181334,32.10554 L21.125,32.25 L21.125,35.25 C21.125,36.0784271 20.4534271,36.75 19.625,36.75 C18.8453039,36.75 18.2045513,36.1551119 18.1318666,35.39446 L18.125,35.25 L18.125,32.25 C18.125,31.4215729 18.7965729,30.75 19.625,30.75 Z M14.625,30.75 C15.4046961,30.75 16.0454487,31.3448881 16.1181334,32.10554 L16.125,32.25 L16.125,35.25 C16.125,36.0784271 15.4534271,36.75 14.625,36.75 C13.8453039,36.75 13.2045513,36.1551119 13.1318666,35.39446 L13.125,35.25 L13.125,32.25 C13.125,31.4215729 13.7965729,30.75 14.625,30.75 Z M9.625,30.75 C10.4046961,30.75 11.0454487,31.3448881 11.1181334,32.10554 L11.125,32.25 L11.125,35.25 C11.125,36.0784271 10.4534271,36.75 9.625,36.75 C8.84530388,36.75 8.20455132,36.1551119 8.13186658,35.39446 L8.125,35.25 L8.125,32.25 C8.125,31.4215729 8.79657288,30.75 9.625,30.75 Z M4.625,30.75 C5.40469612,30.75 6.04544868,31.3448881 6.11813342,32.10554 L6.125,32.25 L6.125,35.25 C6.125,36.0784271 5.45342712,36.75 4.625,36.75 C3.84530388,36.75 3.20455132,36.1551119 3.13186658,35.39446 L3.125,35.25 L3.125,32.25 C3.125,31.4215729 3.79657288,30.75 4.625,30.75 Z M19.625,31.75 C19.3795401,31.75 19.1753916,31.9268752 19.1330557,32.1601244 L19.125,32.25 L19.125,35.25 C19.125,35.4954599 19.3018752,35.6996084 19.5351244,35.7419443 L19.625,35.75 L19.7148756,35.7419443 C19.9189687,35.7049004 20.0799004,35.5439687 20.1169443,35.3398756 L20.125,35.25 L20.125,32.25 C20.125,31.9738576 19.9011424,31.75 19.625,31.75 Z M14.625,31.75 C14.3795401,31.75 14.1753916,31.9268752 14.1330557,32.1601244 L14.125,32.25 L14.125,35.25 C14.125,35.4954599 14.3018752,35.6996084 14.5351244,35.7419443 L14.625,35.75 L14.7148756,35.7419443 C14.9189687,35.7049004 15.0799004,35.5439687 15.1169443,35.3398756 L15.125,35.25 L15.125,32.25 C15.125,31.9738576 14.9011424,31.75 14.625,31.75 Z M9.625,31.75 C9.37954011,31.75 9.17539163,31.9268752 9.13305567,32.1601244 L9.125,32.25 L9.125,35.25 C9.125,35.4954599 9.30187516,35.6996084 9.53512437,35.7419443 L9.625,35.75 L9.71487563,35.7419443 C9.91896869,35.7049004 10.0799004,35.5439687 10.1169443,35.3398756 L10.125,35.25 L10.125,32.25 C10.125,31.9738576 9.90114237,31.75 9.625,31.75 Z M4.625,31.75 C4.37954011,31.75 4.17539163,31.9268752 4.13305567,32.1601244 L4.125,32.25 L4.125,35.25 C4.125,35.4954599 4.30187516,35.6996084 4.53512437,35.7419443 L4.625,35.75 L4.71487563,35.7419443 C4.91896869,35.7049004 5.07990037,35.5439687 5.11694433,35.3398756 L5.125,35.25 L5.125,32.25 C5.125,31.9738576 4.90114237,31.75 4.625,31.75 Z"/>
      <circle cx="39.625" cy="34.25" r="2" fill="url(#gparted-j)" stroke="url(#gparted-k)" filter="url(#gparted-l)"/>
      <use fill="#000" filter="url(#gparted-m)" xlink:href="#gparted-n"/>
      <use fill="url(#gparted-o)" xlink:href="#gparted-n"/>
      <use fill="#000" filter="url(#gparted-p)" xlink:href="#gparted-q"/>
      <use fill="url(#gparted-o)" xlink:href="#gparted-q"/>
      <use fill="#000" filter="url(#gparted-r)" xlink:href="#gparted-s"/>
      <use fill="url(#gparted-t)" xlink:href="#gparted-s"/>
      <use fill="#E6E4E3" xlink:href="#gparted-u"/>
      <use fill="#000" filter="url(#gparted-v)" xlink:href="#gparted-u"/>
      <use fill="#E6E4E3" xlink:href="#gparted-w"/>
      <use fill="#000" filter="url(#gparted-x)" xlink:href="#gparted-w"/>
      <g transform="translate(7.886 8.375)">
        <path fill="url(#gparted-y)" fill-rule="nonzero" stroke="url(#gparted-z)" d="M14.25,0.5 C18.0840737,0.5 21.557978,1.41323947 24.0715256,2.90152423 C26.4643092,4.31830399 28,6.25871952 28,8.4375 C28,10.6162805 26.4643092,12.556696 24.0715256,13.9734758 C21.557978,15.4617605 18.0840737,16.375 14.25,16.375 C10.4159263,16.375 6.94202198,15.4617605 4.42847439,13.9734758 C2.03569079,12.556696 0.5,10.6162805 0.5,8.4375 C0.5,6.25871952 2.03569079,4.31830399 4.42847439,2.90152423 C6.94202198,1.41323947 10.4159263,0.5 14.25,0.5 Z M14.25,5.125 C12.8106705,5.125 11.5093868,5.44608646 10.5663247,5.9538891 C10.0472397,6.23339641 9.63309097,6.57125541 9.34810077,6.94154081 C9.03780433,7.34470641 8.875,7.78844753 8.875,8.25 C8.875,8.71155273 9.03780425,9.15529387 9.34810048,9.5584594 C9.63309058,9.92874488 10.0472392,10.2666038 10.5663241,10.5461111 C11.5093862,11.0539137 12.8106702,11.375 14.25,11.375 C15.6893288,11.375 16.9906131,11.0539136 17.9336756,10.5461107 C18.4527604,10.2666035 18.8669092,9.92874456 19.1518994,9.55845913 C19.4621957,9.15529366 19.625,8.71155261 19.625,8.25 C19.625,7.78845037 19.4621946,7.34471022 19.1518958,6.94154473 C18.8669042,6.5712603 18.4527535,6.2334013 17.9336677,5.95389352 C16.9906022,5.44608905 15.6893177,5.125 14.25,5.125 Z"/>
        <path fill="url(#gparted-y)" fill-rule="nonzero" stroke="url(#gparted-A)" d="M14.25,0.5 C18.0840737,0.5 21.557978,1.41323947 24.0715256,2.90152423 C26.4643092,4.31830399 28,6.25871952 28,8.4375 C28,10.6162805 26.4643092,12.556696 24.0715256,13.9734758 C21.557978,15.4617605 18.0840737,16.375 14.25,16.375 C10.4159263,16.375 6.94202198,15.4617605 4.42847439,13.9734758 C2.03569079,12.556696 0.5,10.6162805 0.5,8.4375 C0.5,6.25871952 2.03569079,4.31830399 4.42847439,2.90152423 C6.94202198,1.41323947 10.4159263,0.5 14.25,0.5 Z M14.25,5.125 C12.8106705,5.125 11.5093868,5.44608646 10.5663247,5.9538891 C10.0472397,6.23339641 9.63309097,6.57125541 9.34810077,6.94154081 C9.03780433,7.34470641 8.875,7.78844753 8.875,8.25 C8.875,8.71155273 9.03780425,9.15529387 9.34810048,9.5584594 C9.63309058,9.92874488 10.0472392,10.2666038 10.5663241,10.5461111 C11.5093862,11.0539137 12.8106702,11.375 14.25,11.375 C15.6893288,11.375 16.9906131,11.0539136 17.9336756,10.5461107 C18.4527604,10.2666035 18.8669092,9.92874456 19.1518994,9.55845913 C19.4621957,9.15529366 19.625,8.71155261 19.625,8.25 C19.625,7.78845037 19.4621946,7.34471022 19.1518958,6.94154473 C18.8669042,6.5712603 18.4527535,6.2334013 17.9336677,5.95389352 C16.9906022,5.44608905 15.6893177,5.125 14.25,5.125 Z"/>
        <path fill="#FFF" fill-rule="nonzero" d="M14.2500006,6.375 C12.180001,6.375 10.5,7.215 10.5,8.25 C10.5,9.285 12.180001,10.125 14.2500006,10.125 C16.3200003,10.125 18,9.285 18,8.25 C18,7.21500781 16.3199815,6.375 14.2500006,6.375 Z M14.25,7.125 C15.6989869,7.125 16.875,7.62900422 16.875,8.25 C16.875,8.871 15.699,9.375 14.25,9.375 C12.801,9.375 11.625,8.871 11.625,8.25 C11.625,7.629 12.801,7.125 14.25,7.125 Z" opacity=".15"/>
        <path fill="url(#gparted-B)" d="M16.875,8.25000711 C16.875,8.87132606 15.6997359,9.375 14.2499917,9.375 C12.8002475,9.375 11.625,8.87131896 11.625,8.25 C11.625,7.62868104 12.8002475,7.125 14.2499917,7.125 C15.6997359,7.125 16.875,7.62867394 16.875,8.24999289"/>
        <path fill="#FF0" fill-rule="nonzero" d="M22.0142865,2.08249542 C18.9964345,1.02858039 18.0709306,4.21925025 17.25,6.47988595 C17.411723,6.57312366 17.5653639,6.67721693 17.7146698,6.78611252 C17.8639758,6.8950081 18.0067198,7.00704857 18.1345562,7.125 C20.8373231,6.80533841 26.5971824,6.53974027 24.1640915,3.65036717 C23.624504,2.99864555 23.0131251,2.39928191 22.0142865,2.08249542 L22.0142865,2.08249542 Z" filter="url(#gparted-C)" opacity=".15"/>
        <path fill="#FFF80D" fill-rule="nonzero" d="M3.32837339,12.9474841 C3.79814551,13.6407971 4.65730812,14.0317686 5.55825578,14.3902971 C10.1216114,16.4453987 10.0430141,12.8505646 10.5,10.3436576 C10.3322517,10.2578568 10.1728873,10.1620698 10.01802,10.0618584 C9.86315309,9.96164697 9.71509303,9.85854493 9.5824963,9.75 C4.65594737,10.0103473 1.03929346,11.0190963 3.32837339,12.9474841 L3.32837339,12.9474841 Z" filter="url(#gparted-D)" opacity=".15"/>
        <path fill="url(#gparted-E)" fill-rule="nonzero" d="M16.4468931,0.850633338 C11.470889,0.167507453 13.8858706,3.08931347 15.8118254,5.77259872 C16.1727431,5.87912396 16.8675679,6.21146448 17.1905242,6.375 C19.0365672,5.15564138 21.3271955,4.2289738 21.75,2.51963725 C21.1938223,1.91325739 17.6743484,0.802560032 16.4468931,0.850633338 Z" filter="url(#gparted-F)" opacity=".15"/>
        <path fill="url(#gparted-G)" fill-rule="nonzero" d="M1.65881249,9.3779142 C1.41505803,10.1353247 3.30199649,12.6595776 4.15694169,13.125 C6.05327716,12.8697878 7.68312494,11.7414972 10.125,10.0578734 C9.86982651,9.83880729 9.09366817,9.19150222 8.92809431,8.94654348 C6.25379489,8.42128847 0.470494311,6.60198418 1.65881249,9.3779142 Z" filter="url(#gparted-H)" opacity=".15"/>
        <path fill="url(#gparted-I)" fill-rule="nonzero" d="M18.375,6.89038309 C18.6331285,7.11285779 19.1961181,7.6514261 19.3636092,7.90019616 C22.1416648,8.02094375 28.0093459,11.4928559 26.8503827,7.34331468 C27.066695,6.63092252 25.3228778,4.26616548 24.4121829,3.7755575 C22.9823405,3.50297865 20.0016529,5.46915219 18.375,6.89038309 L18.375,6.89038309 Z" filter="url(#gparted-J)" opacity=".15"/>
        <path fill="url(#gparted-K)" fill-rule="nonzero" d="M10.6352795,10.5 C9.176691,11.6937224 7.19028094,12.0872436 6,14.3484245 C6.73009094,14.8141491 10.7353475,15.8739928 11.7954817,15.9876357 C15.90406,16.6334002 16.0291962,14.9972109 12.3590073,11.1868387 C11.9882515,11.0799876 10.9668,10.6647885 10.6352795,10.5 L10.6352795,10.5 Z" filter="url(#gparted-L)" opacity=".15"/>
      </g>
      <use fill="#000" filter="url(#gparted-M)" xlink:href="#gparted-N"/>
      <use fill="url(#gparted-O)" xlink:href="#gparted-N"/>
      <circle cx="33.445" cy="7.32" r="1" fill="url(#gparted-P)" transform="scale(-1 1) rotate(12 0 -310.886)"/>
    </g>
    <use fill="#000" filter="url(#gparted-Q)" xlink:href="#gparted-R"/>
    <use fill="url(#gparted-S)" xlink:href="#gparted-R"/>
  </g>
</svg>
