<svg xmlns="http://www.w3.org/2000/svg" xmlns:xlink="http://www.w3.org/1999/xlink" width="48" height="48" viewBox="0 0 48 48">
  <defs>
    <filter id="deepin-cloud-scan-config-helper-a" width="130.2%" height="131%" x="-15.1%" y="-15.5%" filterUnits="objectBoundingBox">
      <feOffset dy="1" in="SourceAlpha" result="shadowOffsetOuter1"/>
      <feGaussianBlur in="shadowOffsetOuter1" result="shadowBlurOuter1" stdDeviation="1"/>
      <feColorMatrix in="shadowBlurOuter1" result="shadowMatrixOuter1" values="0 0 0 0 0   0 0 0 0 0   0 0 0 0 0  0 0 0 0.2 0"/>
      <feMerge>
        <feMergeNode in="shadowMatrixOuter1"/>
        <feMergeNode in="SourceGraphic"/>
      </feMerge>
    </filter>
    <linearGradient id="deepin-cloud-scan-config-helper-b" x1="50%" x2="50%" y1="0%" y2="98.356%">
      <stop offset="0%" stop-color="#C6C6C6"/>
      <stop offset="100%" stop-color="#999"/>
    </linearGradient>
    <path id="deepin-cloud-scan-config-helper-c" d="M4,1 L37,1 C38.6568542,1 40,2.34314575 40,4 L40,36 C40,37.6568542 38.6568542,39 37,39 L4,39 C2.34314575,39 1,37.6568542 1,36 L1,4 C1,2.34314575 2.34314575,1 4,1 Z"/>
    <filter id="deepin-cloud-scan-config-helper-d" width="102.6%" height="102.6%" x="-1.3%" y="-1.3%" filterUnits="objectBoundingBox">
      <feOffset dy="1" in="SourceAlpha" result="shadowOffsetInner1"/>
      <feComposite in="shadowOffsetInner1" in2="SourceAlpha" k2="-1" k3="1" operator="arithmetic" result="shadowInnerInner1"/>
      <feColorMatrix in="shadowInnerInner1" values="0 0 0 0 1   0 0 0 0 1   0 0 0 0 1  0 0 0 0.562691215 0"/>
    </filter>
    <linearGradient id="deepin-cloud-scan-config-helper-e" x1="50%" x2="50%" y1="0%" y2="100%">
      <stop offset="0%" stop-opacity=".419"/>
      <stop offset="100%" stop-opacity=".625"/>
    </linearGradient>
    <linearGradient id="deepin-cloud-scan-config-helper-f" x1="50%" x2="50%" y1="0%" y2="98.356%">
      <stop offset="0%" stop-color="#6A8AA9"/>
      <stop offset="100%" stop-color="#0E2A47"/>
    </linearGradient>
    <path id="deepin-cloud-scan-config-helper-g" d="M3.5,3 L36.5,3 C37.3284271,3 38,3.67157288 38,4.5 L38,36.5 C38,37.3284271 37.3284271,38 36.5,38 L3.5,38 C2.67157288,38 2,37.3284271 2,36.5 L2,4.5 C2,3.67157288 2.67157288,3 3.5,3 Z"/>
    <filter id="deepin-cloud-scan-config-helper-h" width="116.7%" height="117.1%" x="-8.3%" y="-8.6%" filterUnits="objectBoundingBox">
      <feMorphology in="SourceAlpha" radius="2" result="shadowSpreadInner1"/>
      <feGaussianBlur in="shadowSpreadInner1" result="shadowBlurInner1" stdDeviation="1.5"/>
      <feOffset dy="1" in="shadowBlurInner1" result="shadowOffsetInner1"/>
      <feComposite in="shadowOffsetInner1" in2="SourceAlpha" k2="-1" k3="1" operator="arithmetic" result="shadowInnerInner1"/>
      <feColorMatrix in="shadowInnerInner1" values="0 0 0 0 0   0 0 0 0 0   0 0 0 0 0  0 0 0 0.370574738 0"/>
    </filter>
    <linearGradient id="deepin-cloud-scan-config-helper-i" x1="50%" x2="50%" y1="5.774%" y2="97.989%">
      <stop offset="0%" stop-opacity=".194"/>
      <stop offset="100%" stop-opacity=".674"/>
    </linearGradient>
    <radialGradient id="deepin-cloud-scan-config-helper-j" cx="50%" cy="18.931%" r="100%" fx="50%" fy="18.931%">
      <stop offset="2.576%" stop-color="#B4E09E"/>
      <stop offset="100%" stop-color="#1A8F29"/>
    </radialGradient>
    <linearGradient id="deepin-cloud-scan-config-helper-k" x1="50%" x2="50%" y1="8.649%" y2="131.475%">
      <stop offset="0%" stop-opacity=".215"/>
      <stop offset="100%" stop-opacity=".306"/>
    </linearGradient>
    <radialGradient id="deepin-cloud-scan-config-helper-n" cx="50%" cy="10.639%" r="126.86%" fx="50%" fy="10.639%" gradientTransform="matrix(.65 0 0 1 .175 0)">
      <stop offset="0%" stop-color="#FFF"/>
      <stop offset="99.984%" stop-color="#B8C2CB"/>
    </radialGradient>
    <path id="deepin-cloud-scan-config-helper-m" d="M39.0664303,32.7037668 C38.5796233,30.7228786 36.8523897,29.2552687 34.7901639,29.2552687 C34.1901775,29.2552687 33.6192814,29.3804585 33.0974751,29.6048372 C32.2029499,28.6187266 30.9361605,28 29.5275562,28 C26.8439808,28 24.6667576,30.2356013 24.6253949,33.0080744 C23.0954297,33.5805771 22,35.0948924 22,36.8783659 C22,39.1399682 23.4933636,40.973999 25.6696777,40.9947035 L26.6696777,41 L38.0409991,40.992296 C40.2382219,40.9234416 42,39.0595578 42,36.764732 C42,34.8406608 40.7613917,33.2189711 39.0664303,32.7037668 Z"/>
    <filter id="deepin-cloud-scan-config-helper-l" width="140%" height="161.5%" x="-30%" y="-38.5%" filterUnits="objectBoundingBox">
      <feOffset dx="-2" dy="-1" in="SourceAlpha" result="shadowOffsetOuter1"/>
      <feGaussianBlur in="shadowOffsetOuter1" result="shadowBlurOuter1" stdDeviation="1"/>
      <feColorMatrix in="shadowBlurOuter1" values="0 0 0 0 0   0 0 0 0 0   0 0 0 0 0  0 0 0 0.20388986 0"/>
    </filter>
    <filter id="deepin-cloud-scan-config-helper-o" width="125%" height="138.5%" x="-22.5%" y="-26.9%" filterUnits="objectBoundingBox">
      <feOffset dy="1" in="SourceAlpha" result="shadowOffsetInner1"/>
      <feComposite in="shadowOffsetInner1" in2="SourceAlpha" k2="-1" k3="1" operator="arithmetic" result="shadowInnerInner1"/>
      <feColorMatrix in="shadowInnerInner1" values="0 0 0 0 1   0 0 0 0 1   0 0 0 0 1  0 0 0 1 0"/>
    </filter>
    <linearGradient id="deepin-cloud-scan-config-helper-p" x1="50%" x2="50%" y1="0%" y2="95.99%">
      <stop offset="0%" stop-opacity=".276"/>
      <stop offset="100%" stop-opacity=".489"/>
    </linearGradient>
  </defs>
  <g fill="none" fill-rule="evenodd" filter="url(#deepin-cloud-scan-config-helper-a)" transform="translate(4 3)">
    <use fill="url(#deepin-cloud-scan-config-helper-b)" xlink:href="#deepin-cloud-scan-config-helper-c"/>
    <use fill="#000" filter="url(#deepin-cloud-scan-config-helper-d)" xlink:href="#deepin-cloud-scan-config-helper-c"/>
    <path fill="url(#deepin-cloud-scan-config-helper-e)" fill-rule="nonzero" d="M37,0 L4,0 C1.790861,0 0,1.790861 0,4 L0,36 C0,38.209139 1.790861,40 4,40 L37,40 C39.209139,40 41,38.209139 41,36 L41,4 C41,1.790861 39.209139,0 37,0 Z M37,1 C38.6568542,1 40,2.34314575 40,4 L40,36 C40,37.6568542 38.6568542,39 37,39 L4,39 C2.34314575,39 1,37.6568542 1,36 L1,4 C1,2.34314575 2.34314575,1 4,1 L37,1 Z"/>
    <use fill="url(#deepin-cloud-scan-config-helper-f)" xlink:href="#deepin-cloud-scan-config-helper-g"/>
    <use fill="#000" filter="url(#deepin-cloud-scan-config-helper-h)" xlink:href="#deepin-cloud-scan-config-helper-g"/>
    <path fill="url(#deepin-cloud-scan-config-helper-i)" fill-rule="nonzero" d="M36.5,3 C37.3284271,3 38,3.67157288 38,4.5 L38,36.5 C38,37.3284271 37.3284271,38 36.5,38 L3.5,38 C2.67157288,38 2,37.3284271 2,36.5 L2,4.5 C2,3.67157288 2.67157288,3 3.5,3 L36.5,3 Z M36.5,4 L3.5,4 C3.25454011,4 3.05039163,4.17687516 3.00805567,4.41012437 L3,4.5 L3,36.5 C3,36.7454599 3.17687516,36.9496084 3.41012437,36.9919443 L3.5,37 L36.5,37 C36.7454599,37 36.9496084,36.8231248 36.9919443,36.5898756 L37,36.5 L37,4.5 C37,4.25454011 36.8231248,4.05039163 36.5898756,4.00805567 L36.5,4 Z"/>
    <circle cx="34" cy="7" r="1" fill="url(#deepin-cloud-scan-config-helper-j)"/>
    <path fill="url(#deepin-cloud-scan-config-helper-k)" fill-rule="nonzero" d="M34,5 C32.8954305,5 32,5.8954305 32,7 C32,8.1045695 32.8954305,9 34,9 C35.1045695,9 36,8.1045695 36,7 C36,5.8954305 35.1045695,5 34,5 Z M34,6 C34.5522847,6 35,6.44771525 35,7 C35,7.55228475 34.5522847,8 34,8 C33.4477153,8 33,7.55228475 33,7 C33,6.44771525 33.4477153,6 34,6 Z"/>
    <g fill="#FFF" fill-rule="nonzero" transform="translate(7.563 5.813)">
      <polygon points=".438 .188 17.438 .188 24.438 6.998 24.438 28.188 .438 28.188" opacity=".5"/>
      <path d="M16.4375,5.1875 L16.4375,6.1875 L3.4375,6.1875 L3.4375,5.1875 L16.4375,5.1875 Z M21.4375,9.1875 L21.4375,10.1875 L3.4375,10.1875 L3.4375,9.1875 L21.4375,9.1875 Z M21.4375,18.1875 L21.4375,19.1875 L3.4375,19.1875 L3.4375,18.1875 L21.4375,18.1875 Z M21.4375,22.1875 L21.4375,23.1875 L15.4375,23.1875 L15.4375,22.1875 L21.4375,22.1875 Z" opacity=".505"/>
      <polygon fill-opacity=".5" points="17.438 .188 24.438 6.998 17.438 6.998"/>
    </g>
    <polygon fill="#09FD02" points="3 18 37 18 37 19 3 19" opacity=".596"/>
    <g fill-rule="nonzero">
      <use fill="#000" filter="url(#deepin-cloud-scan-config-helper-l)" xlink:href="#deepin-cloud-scan-config-helper-m"/>
      <use fill="url(#deepin-cloud-scan-config-helper-n)" xlink:href="#deepin-cloud-scan-config-helper-m"/>
      <use fill="#000" filter="url(#deepin-cloud-scan-config-helper-o)" xlink:href="#deepin-cloud-scan-config-helper-m"/>
    </g>
    <path fill="url(#deepin-cloud-scan-config-helper-p)" fill-rule="nonzero" d="M29.3079799,27.0041266 C26.4724203,27.1108854 24.154304,29.2769536 23.7039946,32.0888921 L23.668,32.347 L23.4781727,32.4544416 C21.9702552,33.3539976 21,35.0231389 21,36.8783659 C21,39.7178528 22.953203,41.9689054 25.6601646,41.9946583 L26.6643813,41.999986 L38.0416766,41.9922958 C40.822269,41.9056302 43,39.5867966 43,36.764732 L42.9950514,36.5327725 C42.9095453,34.5316795 41.7229624,32.7794377 39.9814218,31.9833016 L39.88,31.939 L39.8282953,31.7944394 C39.0293274,29.698149 37.0549713,28.2552687 34.7901639,28.2552687 L34.4810425,28.2642933 C34.1732154,28.2823039 33.8695306,28.3271576 33.5723202,28.3978162 L33.352,28.457 L33.2487675,28.3652554 C32.2109315,27.4932861 30.9078791,27 29.5275562,27 L29.3079799,27.0041266 Z M29.5275562,28 C30.9361605,28 32.2029499,28.6187266 33.0974751,29.6048372 C33.6192814,29.3804585 34.1901775,29.2552687 34.7901639,29.2552687 C36.8523897,29.2552687 38.5796233,30.7228786 39.0664303,32.7037668 C40.7613917,33.2189711 42,34.8406608 42,36.764732 C42,38.9900176 40.3433785,40.8100832 38.2395101,40.9811295 L38.0409991,40.992296 L26.6696777,41 L25.6696777,40.9947035 C23.4933636,40.973999 22,39.1399682 22,36.8783659 C22,35.0948924 23.0954297,33.5805771 24.6253949,33.0080744 C24.6667576,30.2356013 26.8439808,28 29.5275562,28 Z"/>
  </g>
</svg>
