<svg xmlns="http://www.w3.org/2000/svg" width="48" height="48" viewBox="0 0 48 48">
  <defs>
    <filter id="deepin-system-monitor-a" width="129.5%" height="132.5%" x="-14.8%" y="-16.2%" filterUnits="objectBoundingBox">
      <feOffset dy="1" in="SourceAlpha" result="shadowOffsetOuter1"/>
      <feGaussianBlur in="shadowOffsetOuter1" result="shadowBlurOuter1" stdDeviation="1"/>
      <feColorMatrix in="shadowBlurOuter1" result="shadowMatrixOuter1" values="0 0 0 0 0   0 0 0 0 0   0 0 0 0 0  0 0 0 0.2 0"/>
      <feMerge>
        <feMergeNode in="shadowMatrixOuter1"/>
        <feMergeNode in="SourceGraphic"/>
      </feMerge>
    </filter>
    <linearGradient id="deepin-system-monitor-b" x1="47.778%" x2="47.778%" y1="-1.316%" y2="101.316%">
      <stop offset="0%" stop-color="#F5F5F5"/>
      <stop offset="100%" stop-color="#C8C8C8"/>
    </linearGradient>
    <linearGradient id="deepin-system-monitor-c" x1="54.444%" x2="54.444%" y1="-.194%" y2="101.316%">
      <stop offset="0%" stop-opacity=".195"/>
      <stop offset="100%" stop-opacity=".43"/>
    </linearGradient>
    <radialGradient id="deepin-system-monitor-d" cx="50%" cy="-3.501%" r="94.908%" fx="50%" fy="-3.501%" gradientTransform="matrix(0 1 -.88889 0 .469 -.535)">
      <stop offset="0%" stop-color="#716651"/>
      <stop offset="57.813%" stop-color="#4B3F29"/>
      <stop offset="100%" stop-color="#2D2414"/>
    </radialGradient>
    <linearGradient id="deepin-system-monitor-e" x1="50%" x2="50%" y1="0%" y2="100%">
      <stop offset="0%" stop-color="#959698"/>
      <stop offset="100%" stop-color="#F8F8F8"/>
    </linearGradient>
    <radialGradient id="deepin-system-monitor-f" cx="50%" cy="100%" r="1800%" fx="50%" fy="100%" gradientTransform="matrix(.02778 0 0 1 .486 0)">
      <stop offset="0%" stop-color="#FFF"/>
      <stop offset="100%" stop-color="#FFF" stop-opacity="0"/>
    </radialGradient>
  </defs>
  <g fill="none" fill-rule="evenodd">
    <g filter="url(#deepin-system-monitor-a)" transform="translate(2 4)">
      <path fill="url(#deepin-system-monitor-b)" fill-rule="nonzero" d="M3.26315789,1 L40.7368421,1 C41.9867497,1 43,2.00735931 43,3.25 L43,36.75 C43,37.9926407 41.9867497,39 40.7368421,39 L3.26315789,39 C2.0132503,39 1,37.9926407 1,36.75 L1,3.25 C1,2.00735931 2.0132503,1 3.26315789,1 Z"/>
      <path fill="url(#deepin-system-monitor-c)" fill-rule="nonzero" d="M40.7368421,0 L3.26315789,0 C1.46226662,0 0,1.45376507 0,3.25 L0,36.75 C0,38.5462349 1.46226662,40 3.26315789,40 L40.7368421,40 C42.5377334,40 44,38.5462349 44,36.75 L44,3.25 C44,1.45376507 42.5377334,0 40.7368421,0 Z M40.7368421,1 C41.9867497,1 43,2.00735931 43,3.25 L43,36.75 C43,37.9926407 41.9867497,39 40.7368421,39 L3.26315789,39 C2.0132503,39 1,37.9926407 1,36.75 L1,3.25 C1,2.00735931 2.0132503,1 3.26315789,1 L40.7368421,1 Z"/>
      <rect width="36" height="32" x="4" y="4" fill="url(#deepin-system-monitor-d)" fill-rule="nonzero"/>
      <path fill="url(#deepin-system-monitor-e)" fill-rule="nonzero" d="M40,4 L40,36 L4,36 L4,4 L40,4 Z M39,5 L5,5 L5,35 L39,35 L39,5 Z"/>
      <path stroke="#EDCC32" stroke-linecap="square" stroke-opacity=".148" d="M5.50884967 7.5L38.5445001 7.5M5.50884967 10.5184326L38.5 10.5M5.46434954 13.5L38.5 13.5M5.46434954 16.5L38.5 16.5M5.46434954 19.5L38.5 19.5M5.46434954 22.5L38.5 22.5M5.46434954 25.5L38.5 25.5M5.46434954 28.5L38.5 28.5M5.46434954 31.5L38.5 31.5M7.5 5.47827148L7.5 34.5072632M10.5 5.47827148L10.5 34.5072632M13.5 5.47827148L13.5 34.5072632M16.5 5.47827148L16.5 34.5072632M19.5 5.47827148L19.5 34.5072632M25.5 5.47827148L25.5 34.5072632M22.5 5.47827148L22.5 34.5072632M28.5 5.47827148L28.5 34.5072632M31.5 5.47827148L31.5 34.5072632M34.5 5.47827148L34.5 34.5072632M37.5 5.47827148L37.5 34.5072632"/>
      <path fill="#EDCC32" fill-rule="nonzero" d="M9.48932675,20.6027586 C9.44679066,20.8053114 9.28515148,20.9575348 9.08694421,20.9924257 L9,21 L5,21 L5,20 L8.593,20 L11.1356733,7.89724138 C11.2435983,7.38331237 11.9459974,7.3746972 12.0975257,7.83269589 L12.120147,7.93050569 L14.827,27.215 L17.1513297,20.3398861 C17.2101891,20.1657603 17.3586024,20.0404236 17.5348452,20.0081667 L17.625,20 L19.829,20 L20.8823247,13.9147293 C20.9702566,13.4066786 21.654748,13.3614408 21.8349177,13.800879 L21.8639012,13.8952355 L23.755,22.726 L24.6568354,20.3244383 C24.7195628,20.1571653 24.8655886,20.0382832 25.0372815,20.0077306 L25.125,20 L26.575,20 L28.0066216,11.2938967 C28.0929215,10.7689059 28.8066712,10.7379207 28.9690214,11.1979011 L28.9937902,11.2964425 L31.185,25.072 L32.1350317,20.4003454 C32.1764904,20.1965065 32.3385175,20.0428712 32.537636,20.0076474 L32.625,20 L39,20 L39,21 L33.032,21 L31.6149683,27.9746546 C31.5109387,28.4861335 30.8142141,28.5032989 30.655454,28.0503981 L30.6312098,27.9535575 L28.492,14.506 L27.4933784,20.5811033 C27.4586281,20.792501 27.2944035,20.9546705 27.0898667,20.9919098 L27,21 L25.471,21 L24.0931646,24.6755617 C23.9295011,25.1119976 23.3287856,25.0974637 23.164341,24.6965622 L23.1360988,24.6047645 L21.427,16.628 L20.7426753,20.5852707 C20.7063777,20.7949897 20.5426287,20.9552276 20.3393053,20.9920102 L20.25,21 L17.983,21 L15.0986703,29.5351139 C14.9404173,30.003279 14.2917828,29.9727935 14.1509526,29.5370243 L14.129853,29.4444943 L11.526,10.901 L9.48932675,20.6027586 Z"/>
    </g>
    <polygon fill="url(#deepin-system-monitor-f)" fill-rule="nonzero" points="6 7 42 7 42 8 6 8"/>
  </g>
</svg>
