<svg xmlns="http://www.w3.org/2000/svg" width="48" height="48" viewBox="0 0 48 48">
  <defs>
    <filter id="deepin-repair-tools-a" width="131%" height="129.5%" x="-15.5%" y="-14.8%" filterUnits="objectBoundingBox">
      <feOffset dy="1" in="SourceAlpha" result="shadowOffsetOuter1"/>
      <feGaussianBlur in="shadowOffsetOuter1" result="shadowBlurOuter1" stdDeviation="1"/>
      <feColorMatrix in="shadowBlurOuter1" result="shadowMatrixOuter1" values="0 0 0 0 0   0 0 0 0 0   0 0 0 0 0  0 0 0 0.2 0"/>
      <feMerge>
        <feMergeNode in="shadowMatrixOuter1"/>
        <feMergeNode in="SourceGraphic"/>
      </feMerge>
    </filter>
    <linearGradient id="deepin-repair-tools-b" x1="50%" x2="50%" y1="2.986%" y2="100%">
      <stop offset="0%" stop-color="#EFF0F2"/>
      <stop offset="44.983%" stop-color="#E2E0E3"/>
      <stop offset="100%" stop-color="#F3EFF2"/>
    </linearGradient>
    <linearGradient id="deepin-repair-tools-c" x1="50%" x2="50%" y1=".609%" y2="100%">
      <stop offset="0%" stop-opacity=".263"/>
      <stop offset="100%" stop-opacity=".381"/>
    </linearGradient>
    <linearGradient id="deepin-repair-tools-d" x1="50%" x2="50%" y1=".156%" y2="100%">
      <stop offset="0%" stop-color="#E8E8E8"/>
      <stop offset="100%" stop-color="#CFCFCF"/>
    </linearGradient>
    <linearGradient id="deepin-repair-tools-e" x1="50%" x2="50%" y1="117.719%" y2="-17.371%">
      <stop offset="0%" stop-color="#D2D2D2"/>
      <stop offset="100%" stop-color="#B8B8B8"/>
    </linearGradient>
    <linearGradient id="deepin-repair-tools-f" x1="50%" x2="50%" y1="119.226%" y2="-17.371%">
      <stop offset="1.104%" stop-color="#D2D2D2"/>
      <stop offset="100%" stop-color="#B8B8B8"/>
    </linearGradient>
    <linearGradient id="deepin-repair-tools-g" x1="50%" x2="50%" y1="0%" y2="119.506%">
      <stop offset="0%" stop-color="#898989"/>
      <stop offset="100%" stop-color="#303030"/>
    </linearGradient>
    <linearGradient id="deepin-repair-tools-h" x1="50%" x2="50%" y1="0%" y2="100%">
      <stop offset="0%" stop-opacity=".2"/>
      <stop offset="100%" stop-opacity=".3"/>
    </linearGradient>
    <linearGradient id="deepin-repair-tools-i" x1="50%" x2="50%" y1="2.427%" y2="100%">
      <stop offset="0%" stop-color="#84BE6E"/>
      <stop offset="100%" stop-color="#407E55"/>
    </linearGradient>
    <linearGradient id="deepin-repair-tools-j" x1="50%" x2="50%" y1="0%" y2="97.458%">
      <stop offset="0%" stop-color="#69B35C"/>
      <stop offset="100%" stop-color="#2F7523"/>
    </linearGradient>
  </defs>
  <g fill="none" fill-rule="evenodd" filter="url(#deepin-repair-tools-a)" transform="translate(3 2)">
    <path fill="url(#deepin-repair-tools-b)" d="M7.80942992,3 L34.1905701,3 C35.042311,3 35.8210383,3.48095058 36.2024148,4.24253744 L40.4443043,12.7133466 C40.8097324,13.4430854 41,14.2479698 41,15.0640926 L41,40.75 C41,41.9926407 39.9926407,43 38.75,43 L3.25,43 C2.00735931,43 1,41.9926407 1,40.75 L1,15.0640926 C1,14.2479698 1.19026759,13.4430854 1.55569565,12.7133466 L5.7975852,4.24253744 C6.17896167,3.48095058 6.95768903,3 7.80942992,3 Z"/>
    <path fill="url(#deepin-repair-tools-c)" fill-rule="nonzero" d="M34.1905701,2 L7.80942992,2 C6.57913752,2 5.45430912,2.69470639 4.90343199,3.7947763 L0.661542441,12.2655854 C0.226509039,13.1343221 0,14.0925178 0,15.0640926 L0,40.75 C0,42.5449254 1.45507456,44 3.25,44 L38.75,44 C40.5449254,44 42,42.5449254 42,40.75 L42,15.0640926 C42,14.0925178 41.773491,13.1343221 41.3384576,12.2655854 L37.096568,3.7947763 C36.5456909,2.69470639 35.4208625,2 34.1905701,2 Z M34.1905701,3 C35.042311,3 35.8210383,3.48095058 36.2024148,4.24253744 L40.4443043,12.7133466 C40.8097324,13.4430854 41,14.2479698 41,15.0640926 L41,40.75 C41,41.9926407 39.9926407,43 38.75,43 L3.25,43 C2.00735931,43 1,41.9926407 1,40.75 L1,15.0640926 C1,14.2479698 1.19026759,13.4430854 1.55569565,12.7133466 L5.7975852,4.24253744 C6.17896167,3.48095058 6.95768903,3 7.80942992,3 L34.1905701,3 Z"/>
    <path fill="url(#deepin-repair-tools-d)" d="M8.26444147,5 L33.7355585,5 C34.3124093,5 34.838153,5.33079416 35.0878049,5.85082376 L38.4841198,12.9254119 C38.6633849,13.2988244 38.5059973,13.7468581 38.1325848,13.9261232 C38.0312889,13.9747526 37.9203607,14 37.8079967,14 L4.19200334,14 C3.77778978,14 3.44200334,13.6642136 3.44200334,13.25 C3.44200334,13.1376359 3.46725078,13.0267078 3.51588017,12.9254119 L6.91219512,5.85082376 C7.16184701,5.33079416 7.68759067,5 8.26444147,5 Z"/>
    <polygon fill="#000" fill-opacity=".397" points="1 18 41 18 41 19 1 19"/>
    <polygon fill="#FFF" fill-opacity=".67" points="1 19 41 19 41 20 1 20"/>
    <path fill="url(#deepin-repair-tools-e)" d="M11.1200962,8 L14.5795717,8 C15.2008921,8 15.7045717,8.50367966 15.7045717,9.125 C15.7045717,9.21175554 15.6945365,9.29821992 15.6746661,9.38266925 L15.5662214,9.843559 C15.4067923,10.5211325 14.8021729,11 14.1060957,11 L10.5900721,11 C9.96875177,11 9.46507211,10.4963203 9.46507211,9.875 C9.46507211,9.74745924 9.48675986,9.62084707 9.52920799,9.50057737 L9.70561065,9.00076982 C9.91727564,8.40105235 10.484122,8 11.1200962,8 Z"/>
    <path fill="url(#deepin-repair-tools-f)" d="M27.4204283,8 L30.8799038,8 C31.515878,8 32.0827244,8.40105235 32.2943893,9.00076982 L32.470792,9.50057737 C32.6775799,10.0864764 32.3702496,10.7290762 31.7843505,10.9358641 C31.6640808,10.9783123 31.5374686,11 31.4099279,11 L27.8939043,11 C27.1978271,11 26.5932077,10.5211325 26.4337786,9.843559 L26.3253339,9.38266925 C26.1830271,8.77786536 26.5579551,8.17221248 27.162759,8.02990569 C27.2472083,8.01003525 27.3336727,8 27.4204283,8 Z"/>
    <path fill="url(#deepin-repair-tools-g)" fill-rule="nonzero" d="M26,1 C28.0919066,1 29.9404788,2.73445948 30,5 L30,9 L28,9 L28,5 C27.72,4.02227102 26.9135235,3.22479341 26,3 L16,3 C15.1582732,3.18181818 14.3249091,3.95356608 14,5 L14,9 L12,9 L12,5 C12,2.8259267 13.8125102,1.05695812 16,1 L26,1 Z"/>
    <path fill="url(#deepin-repair-tools-h)" fill-rule="nonzero" d="M26,0 L16,0 C13.236313,0.0716222712 11,2.29118302 11,5 L11,10 L15,10 L15,5.167 L15.0095503,5.14199168 C15.229618,4.58626697 15.6645482,4.15537113 16.0942425,4.00992557 L16.127,4 L25.859,4 L25.8903221,4.00984554 C26.3612502,4.17673555 26.7927301,4.60868156 26.990614,5.13080824 L27,5.16 L27,10 L31,10 L31,5 C30.9269881,2.20783216 28.6752212,0 26,0 Z M26,1 C28.0919066,1 29.9404788,2.73445948 30,5 L30,9 L28,9 L28,5 C27.72,4.02227102 26.9135235,3.22479341 26,3 L16,3 C15.1582732,3.18181818 14.3249091,3.95356608 14,5 L14,9 L12,9 L12,5 C12,2.8259267 13.8125102,1.05695812 16,1 L26,1 Z"/>
    <path fill="url(#deepin-repair-tools-i)" fill-rule="nonzero" d="M23.25,23 C23.6642136,23 24,23.3357864 24,23.75 L24,28 L28.25,28 C28.6642136,28 29,28.3357864 29,28.75 L29,32.25 C29,32.6642136 28.6642136,33 28.25,33 L24,33 L24,37.25 C24,37.6642136 23.6642136,38 23.25,38 L19.75,38 C19.3357864,38 19,37.6642136 19,37.25 L19,33 L14.75,33 C14.3357864,33 14,32.6642136 14,32.25 L14,28.75 C14,28.3357864 14.3357864,28 14.75,28 L19,27.999 L19,23.75 C19,23.3357864 19.3357864,23 19.75,23 L23.25,23 Z"/>
    <path fill="url(#deepin-repair-tools-j)" fill-rule="nonzero" d="M23.25,23 C23.6642136,23 24,23.3357864 24,23.75 L24,28 L28.25,28 C28.6642136,28 29,28.3357864 29,28.75 L29,32.25 C29,32.6642136 28.6642136,33 28.25,33 L24,33 L24,37.25 C24,37.6642136 23.6642136,38 23.25,38 L19.75,38 C19.3357864,38 19,37.6642136 19,37.25 L19,33 L14.75,33 C14.3357864,33 14,32.6642136 14,32.25 L14,28.75 C14,28.3357864 14.3357864,28 14.75,28 L19,27.999 L19,23.75 C19,23.3357864 19.3357864,23 19.75,23 L23.25,23 Z M23,24 L20,24 L20,28.9987647 L15,29 L15,32 L20,32 L20,37 L23,37 L23,32 L28,32 L28,29 L23,29 L23,24 Z"/>
  </g>
</svg>
