<svg xmlns="http://www.w3.org/2000/svg" xmlns:xlink="http://www.w3.org/1999/xlink" width="48" height="48" viewBox="0 0 48 48">
  <defs>
    <filter id="evince-a" width="131%" height="136.1%" x="-15.5%" y="-18.1%" filterUnits="objectBoundingBox">
      <feOffset dy="1" in="SourceAlpha" result="shadowOffsetOuter1"/>
      <feGaussianBlur in="shadowOffsetOuter1" result="shadowBlurOuter1" stdDeviation="1"/>
      <feColorMatrix in="shadowBlurOuter1" result="shadowMatrixOuter1" values="0 0 0 0 0   0 0 0 0 0   0 0 0 0 0  0 0 0 0.2 0"/>
      <feMerge>
        <feMergeNode in="shadowMatrixOuter1"/>
        <feMergeNode in="SourceGraphic"/>
      </feMerge>
    </filter>
    <linearGradient id="evince-b" x1="52.224%" x2="52.224%" y1="100%" y2="0%">
      <stop offset="0%" stop-color="#BF3632"/>
      <stop offset="100%" stop-color="#DF926E"/>
    </linearGradient>
    <rect id="evince-c" width="40" height="34" x="1" y="1" rx="2.25"/>
    <filter id="evince-d" width="102.5%" height="102.9%" x="-1.2%" y="-1.5%" filterUnits="objectBoundingBox">
      <feOffset dy="1" in="SourceAlpha" result="shadowOffsetInner1"/>
      <feComposite in="shadowOffsetInner1" in2="SourceAlpha" k2="-1" k3="1" operator="arithmetic" result="shadowInnerInner1"/>
      <feColorMatrix in="shadowInnerInner1" result="shadowMatrixInner1" values="0 0 0 0 1   0 0 0 0 1   0 0 0 0 1  0 0 0 0.5 0"/>
      <feOffset dy="-1" in="SourceAlpha" result="shadowOffsetInner2"/>
      <feComposite in="shadowOffsetInner2" in2="SourceAlpha" k2="-1" k3="1" operator="arithmetic" result="shadowInnerInner2"/>
      <feColorMatrix in="shadowInnerInner2" result="shadowMatrixInner2" values="0 0 0 0 0   0 0 0 0 0   0 0 0 0 0  0 0 0 0.14 0"/>
      <feMerge>
        <feMergeNode in="shadowMatrixInner1"/>
        <feMergeNode in="shadowMatrixInner2"/>
      </feMerge>
    </filter>
    <linearGradient id="evince-e" x1="50%" x2="50%" y1="0%" y2="97.702%">
      <stop offset="0%" stop-color="#D07C54"/>
      <stop offset="100%" stop-color="#902521"/>
    </linearGradient>
    <linearGradient id="evince-h" x1="50%" x2="50%" y1="0%" y2="100%">
      <stop offset="0%" stop-color="#FFF"/>
      <stop offset="100%" stop-color="#FFF" stop-opacity=".6"/>
    </linearGradient>
    <path id="evince-g" d="M11.7701756,25.980184 L7.125,28.875 C8.28584036,27.7175258 9.38176639,26.6190666 10.4127781,25.5796224 L10.3926056,25.5729177 L10.5423794,25.4235782 C10.2046886,25.2303235 9.88246358,25.0232431 9.57570424,24.8023371 C2.22359155,19.5078754 18.153169,5.25355546 25.5052817,9.7334846 C26.0498826,10.247205 26.3221831,10.9113314 26.3221831,11.725864 C26.3221831,12.5403966 26.3221831,12.9476628 25.5052817,13.8061474 C18.69777,20.322408 15.1578639,23.7162937 14.8855634,23.9878046 C14.6132629,24.2593154 14.2048122,24.5308263 13.6602112,24.8023371 L13.2102028,25.0827769 L13.159516,24.9816973 C14.9287199,27.2148392 18.4478755,27.4182258 23.716983,25.5918571 C25.9870887,24.8049971 30.1230943,22.7770032 36.125,19.5078754 L36.125,24.8023371 C24.9584686,27.8819959 16.79774,28.2746115 11.6428141,25.980184 L11.7701756,25.980184 Z M12.2032126,23.7675611 C18.7238467,17.1406476 22.2048181,13.2771546 22.6461268,12.1770823 C23.4630282,10.1407509 9.98415491,12.1770823 12.0264084,22.3587394 C12.1155037,22.8029242 12.2331676,23.2139727 12.3793999,23.5918847 L12.2032126,23.7675611 Z"/>
    <filter id="evince-f" width="103.4%" height="110%" x="-1.7%" y="-2.5%" filterUnits="objectBoundingBox">
      <feOffset dy="1" in="SourceAlpha" result="shadowOffsetOuter1"/>
      <feColorMatrix in="shadowOffsetOuter1" values="0 0 0 0 0.298148777   0 0 0 0 0.034139173   0 0 0 0 0  0 0 0 0.409937719 0"/>
    </filter>
  </defs>
  <g fill="none" filter="url(#evince-a)" transform="translate(3 6)">
    <use fill="url(#evince-b)" xlink:href="#evince-c"/>
    <use fill="#000" filter="url(#evince-d)" xlink:href="#evince-c"/>
    <path fill="url(#evince-e)" d="M38.75,0 L3.25,0 C1.45507456,0 0,1.45507456 0,3.25 L0,32.75 C0,34.5449254 1.45507456,36 3.25,36 L38.75,36 C40.5449254,36 42,34.5449254 42,32.75 L42,3.25 C42,1.45507456 40.5449254,0 38.75,0 Z M38.75,1 C39.9926407,1 41,2.00735931 41,3.25 L41,32.75 C41,33.9926407 39.9926407,35 38.75,35 L3.25,35 C2.00735931,35 1,33.9926407 1,32.75 L1,3.25 C1,2.00735931 2.00735931,1 3.25,1 L38.75,1 Z"/>
    <use fill="#000" filter="url(#evince-f)" xlink:href="#evince-g"/>
    <use fill="url(#evince-h)" xlink:href="#evince-g"/>
  </g>
</svg>
