<svg xmlns="http://www.w3.org/2000/svg" width="48" height="48" viewBox="0 0 48 48">
  <defs>
    <filter id="firefox-zh-a" width="131.7%" height="130.2%" x="-15.9%" y="-15.1%" filterUnits="objectBoundingBox">
      <feOffset dy="1" in="SourceAlpha" result="shadowOffsetOuter1"/>
      <feGaussianBlur in="shadowOffsetOuter1" result="shadowBlurOuter1" stdDeviation="1"/>
      <feColorMatrix in="shadowBlurOuter1" result="shadowMatrixOuter1" values="0 0 0 0 0   0 0 0 0 0   0 0 0 0 0  0 0 0 0.2 0"/>
      <feMerge>
        <feMergeNode in="shadowMatrixOuter1"/>
        <feMergeNode in="SourceGraphic"/>
      </feMerge>
    </filter>
    <linearGradient id="firefox-zh-b" x1="42.72%" x2="14.257%" y1="-4.32%" y2="77.496%">
      <stop offset="0%" stop-color="#F7F29D"/>
      <stop offset="45.316%" stop-color="#E39E6B"/>
      <stop offset="100%" stop-color="#B13669"/>
    </linearGradient>
    <linearGradient id="firefox-zh-c" x1="50%" x2="50%" y1="0%" y2="100%">
      <stop offset="0%" stop-color="#F3DF92"/>
      <stop offset="100%" stop-color="#B1205B"/>
    </linearGradient>
    <radialGradient id="firefox-zh-d" cx="37.881%" cy="67.109%" r="89.899%" fx="37.881%" fy="67.109%">
      <stop offset="0%" stop-color="#523FAB"/>
      <stop offset="100%" stop-color="#A15CC9"/>
    </radialGradient>
    <linearGradient id="firefox-zh-e" x1="50%" x2="50%" y1="0%" y2="100%">
      <stop offset="0%" stop-color="#8550BD"/>
      <stop offset="100%" stop-color="#4E2F9B"/>
    </linearGradient>
    <linearGradient id="firefox-zh-f" x1="55.27%" x2="37.066%" y1="27.552%" y2="76.678%">
      <stop offset="0%" stop-color="#F8F3A1"/>
      <stop offset="27.508%" stop-color="#F2D387"/>
      <stop offset="66.027%" stop-color="#E5B17E"/>
      <stop offset="100%" stop-color="#E69D68"/>
    </linearGradient>
    <linearGradient id="firefox-zh-g" x1="69.569%" x2="69.569%" y1="-4.566%" y2="108.922%">
      <stop offset="0%" stop-color="#EEC37E"/>
      <stop offset="100%" stop-color="#B86400"/>
    </linearGradient>
    <linearGradient id="firefox-zh-h" x1="72.03%" x2="50%" y1="-11.042%" y2="95.747%">
      <stop offset="0%" stop-color="#ECBA66"/>
      <stop offset="100%" stop-color="#E6A260"/>
    </linearGradient>
    <linearGradient id="firefox-zh-i" x1="50%" x2="50%" y1="-30.575%" y2="100%">
      <stop offset="0%" stop-color="#F1B767"/>
      <stop offset="100%" stop-color="#D18E41"/>
    </linearGradient>
    <linearGradient id="firefox-zh-j" x1="75.856%" x2="34.16%" y1="29.72%" y2="83.783%">
      <stop offset="0%" stop-color="#F8F3A1"/>
      <stop offset="66.41%" stop-color="#DA8E63"/>
      <stop offset="100%" stop-color="#CA5757"/>
    </linearGradient>
    <linearGradient id="firefox-zh-k" x1="50%" x2="50%" y1="0%" y2="100%">
      <stop offset="0%" stop-color="#E5B57B"/>
      <stop offset="100%" stop-color="#C24333"/>
    </linearGradient>
  </defs>
  <g fill="none" fill-rule="evenodd" filter="url(#firefox-zh-a)" transform="translate(4 3)">
    <path fill="url(#firefox-zh-b)" d="M27,4.26325641e-14 C27.5,2 29.25,4.25 31.75,6.5 C33.4166667,8 35.1666667,10.5833333 37,14.25 C36.5,11.4166667 36.0833333,9.58333333 35.75,8.75 L35.9146237,8.91519905 C37.1592983,10.1706051 39.2322849,12.4481604 40.0957717,17.0474634 C40.3210233,18.4285759 40.4528802,19.8239027 40.4894713,21.2064397 C40.5002172,21.9927651 40.4801339,22.8273612 40.4242969,23.71221 C39.5087377,33.9814496 30.4691696,42.25 20,42.25 C12.521144,42.25 6.0010687,38.1449719 2.57004574,32.0651875 L2.08453451,31.1501525 C0.750335912,28.4696675 0,25.4474589 0,22.25 C0,20.3705767 0.259235805,18.5517012 0.743900677,16.8271803 L3.5,16 L19.75,13 C19.9166667,6.83333333 22.3333333,2.5 27,4.26325641e-14 Z"/>
    <path fill="url(#firefox-zh-c)" fill-rule="nonzero" d="M27,4.26325641e-14 C27.4791667,1.91666667 29.1063368,4.06293403 31.4414424,6.21876808 L31.75,6.5 C33.4166667,8 35.1666667,10.5833333 37,14.25 L36.8086011,13.192344 L36.6257089,12.2367675 L36.4513233,11.3832703 L36.2854442,10.6318526 L36.1280718,9.98251418 L35.979206,9.4352552 L35.8846881,9.12712665 L35.7939509,8.86436673 C35.779143,8.82435413 35.7644928,8.78623188 35.75,8.75 L36.0300011,9.03217888 L36.2730861,9.28390147 L36.530343,9.56075452 L36.7990502,9.86447387 L37.0764858,10.1967953 C38.2000555,11.5856 39.4677813,13.7025158 40.0957717,17.0474634 C40.3210233,18.4285759 40.4528802,19.8239027 40.4894713,21.2064397 C40.5002172,21.9927651 40.4801339,22.8273612 40.4242969,23.71221 C39.5087377,33.9814496 30.4691696,42.25 20,42.25 C12.521144,42.25 6.0010687,38.1449719 2.57004574,32.0651875 L2.08453451,31.1501525 C0.750335912,28.4696675 0,25.4474589 0,22.25 C0,20.3705767 0.259235805,18.5517012 0.743900677,16.8271803 L3.5,16 L19.75,13 C19.9166667,6.83333333 22.3333333,2.5 27,4.26325641e-14 Z M26.462,1.479 L26.3172385,1.57314625 C22.7408454,3.96342308 20.892381,7.74541287 20.749635,13.0270172 C20.7379429,13.4596224 20.4503729,13.8307105 20.0449273,13.9555725 L19.9315475,13.9833822 L3.731,16.974 L1.567,17.623 L1.55933469,17.6542267 C1.23546109,18.9582136 1.05012567,20.3000967 1.00885234,21.6641126 L1,22.25 C1,25.050231 1.60565279,27.7620902 2.74752303,30.2230082 L2.96789055,30.6814499 L3.44093832,31.5737141 C6.78777539,37.5043208 13.065601,41.25 20,41.25 C29.9281265,41.25 38.5566328,33.399751 39.426282,23.6492319 C39.4795032,22.8058349 39.5001698,21.9961266 39.4898214,21.2328971 C39.4543924,19.894269 39.3266171,18.5438854 39.1129428,17.2319826 C38.8328043,15.739844 38.4496984,14.5103355 37.9488995,13.4350098 L37.821,13.17 L37.9847836,14.0762147 C38.1852225,15.2120355 36.621376,15.72882 36.1055728,14.6972136 C34.3232719,11.1326118 32.6375365,8.64414528 31.0810353,7.24329415 C28.8785426,5.26105075 27.312,3.34877346 26.4977102,1.56006258 L26.462,1.479 Z"/>
    <circle cx="20.5" cy="21.25" r="9.5" fill="url(#firefox-zh-d)" stroke="url(#firefox-zh-e)"/>
    <path fill="url(#firefox-zh-f)" stroke="url(#firefox-zh-g)" d="M7.29402478,13.1774988 L19.8698953,18.0949676 L18.7885234,18.7437907 C18.5056217,18.9135485 18.1870729,19.0150851 17.8581179,19.0403734 C14.8112367,19.2746011 12.9262276,20.0430489 12.0932477,21.2092207 C11.3687407,22.2226866 10.9197011,22.9417977 10.9228862,23.5771159 C11.3324185,25.8504951 12.4828499,27.7538945 14.1012478,29.1060316 C15.7006542,30.4423017 17.757061,31.240611 20,31.240611 C22.554317,31.240611 24.866817,30.2052695 26.5407377,28.5313487 C28.2146585,26.8574279 29.25,24.5449279 29.25,21.990611 C29.25,19.5855308 28.3321434,17.3947858 26.8280697,15.7499638 C28.458936,16.1121101 29.6716996,16.8208478 30.5580136,17.6816882 C32.2465428,19.3216873 32.75,21.4937908 32.75,22.75 C32.75,24.8689437 32.1849979,28.8089213 29.5775072,30.4682336 C27.8017036,31.5982905 24.4745464,32.5072478 19.6116902,33.2281748 L19.6116902,33.2281748 L5.47421735,24.2094421 L4.76513109,16.8822175 L7.29402478,13.1774988 Z"/>
    <path fill="url(#firefox-zh-h)" stroke="url(#firefox-zh-i)" d="M13.0958612,8.71352224 C12.9522622,9.759243 12.9726101,11.1414447 13.1673785,12.8616648 L13.1673785,12.8616648 L8.9431054,11.9433446 C10.4639783,10.2872569 11.843671,9.20012494 13.0958612,8.71352224 Z"/>
    <path fill="url(#firefox-zh-j)" d="M8.5,6.25 C5.25,7.75 -4,15.75 3.25,28.25 C10.5,40.75 24.9571724,39.2172414 31.75,34.5 C33.5559681,33.2458555 34.8888144,31.6192533 35.8475168,29.7878502 C39.6664857,22.4924986 37.548508,11.9473475 35.75,8.75 C41,26.75 27.027562,30.7861121 20.777562,30.7861121 C14.527562,30.7861121 10.5,26.25 10.5,20.25 C8.83333333,20.75 7.25,20 5.75,18 C8.08333333,16.3333333 10.0833333,15.9166667 11.75,16.75 C13.4166667,17.5833333 16.5,18 21,18 C17,15.5 14.5833333,13.75 13.75,12.75 C12.9166667,11.75 11.1666667,11.3333333 8.5,11.5 C8.16666667,9.66666667 8.16666667,7.91666667 8.5,6.25 Z"/>
    <path fill="url(#firefox-zh-k)" fill-rule="nonzero" d="M8.5,6.25 C8.16666667,7.91666667 8.16666667,9.66666667 8.5,11.5 C11.1666667,11.3333333 12.9166667,11.75 13.75,12.75 L13.8355879,12.8491155 L14.0364204,13.0613944 C14.1099549,13.1352758 14.1900798,13.2122789 14.276795,13.2924037 L14.5567118,13.5421436 C14.6066597,13.5853278 14.6582553,13.6292924 14.7114984,13.6740375 L15.0507284,13.951873 L15.4295005,14.2484391 L15.8478148,14.5637357 L16.3056712,14.8977627 L16.8030697,15.2505203 L17.3400104,15.6220083 L17.9164932,16.0122268 L18.5325182,16.4211759 L19.5306972,17.069719 L20.617846,17.7604058 C20.7435831,17.8394901 20.8709677,17.9193548 21,18 L20.0891795,17.9940547 L19.2187872,17.9762188 L18.3888228,17.9464923 C18.2538644,17.940547 18.1205906,17.9341062 17.9890012,17.92717 L17.219679,17.8796076 C14.847503,17.7101665 13.0834324,17.3618708 11.9274673,16.8347206 L11.75,16.75 C10.0833333,15.9166667 8.08333333,16.3333333 5.75,18 C7.25,20 8.83333333,20.75 10.5,20.25 C10.5,26.25 14.527562,30.7861121 20.777562,30.7861121 L21.1616133,30.7811893 L21.5629052,30.7661034 L21.9801442,30.7403777 L22.412037,30.7035357 L22.8572902,30.6551009 L23.3146105,30.5945968 L23.7827046,30.5215469 C23.8615462,30.5082999 23.9407829,30.4945104 24.0203876,30.4801683 L24.5022172,30.387406 L24.9915871,30.2809065 C25.2379416,30.2241431 25.4866387,30.1620495 25.7369509,30.0943576 L26.2395133,29.9514303 C26.4916557,29.8761551 26.7449281,29.795103 26.9986032,29.708006 L27.5062745,29.5256725 C33.514969,27.2708041 39.4775,21.53 35.75,8.75 C35.8606774,8.94675985 35.9725647,9.1713457 36.0842037,9.42128783 L36.2512938,9.81490952 C36.5011031,10.4329417 36.7459652,11.1730887 36.9692723,12.0072186 L37.1147681,12.57692 C37.2567061,13.1599273 37.3874238,13.7819265 37.5020004,14.4345822 L37.6110144,15.097148 C37.6454374,15.3212037 37.6778848,15.548357 37.7081741,15.7782991 L37.792386,16.4761834 C38.2566272,20.7099838 37.962638,25.7473478 35.8475168,29.7878502 C34.8888144,31.6192533 33.5559681,33.2458555 31.75,34.5 L31.3333521,34.7791263 C24.3817683,39.2729387 10.355,40.5 3.25,28.25 C-0.81,21.25 0.3044,15.6612 2.64184,11.834832 L2.89678,11.431624 C2.93999,11.365552 2.983545,11.300046 3.0274225,11.235108 L3.2943775,10.852312 L3.5679925,10.483244 C3.61409,10.422882 3.66042,10.363096 3.70696,10.303888 L3.98854,9.955592 C4.03583,9.898704 4.083285,9.842398 4.1308825,9.786676 L4.4179975,9.459368 L4.7074525,9.146172 C4.75583,9.095154 4.80426,9.044728 4.85272,8.994896 L5.14366,8.703048 L5.43424,8.425552 L5.72338,8.162504 L6.01,7.914 L6.29302,7.680136 C6.33983,7.642384 6.386445,7.605246 6.4328425,7.568724 L6.84394,7.256712 L7.10968,7.067344 L7.3675,6.893 L7.61632,6.733776 L7.85506,6.589768 L8.08264,6.461072 L8.29798,6.347784 C8.3676,6.3126 8.435,6.28 8.5,6.25 Z M7.25764567,8.33872603 L7.265,8.172 L7.25031046,8.18303759 C5.60897248,9.42167239 3.9016746,11.3591501 2.83784895,13.5601687 C0.844396791,17.6845524 1.03512554,22.4380998 4.11503119,27.7482819 C7.29199225,33.225801 12.105216,36.2142124 17.7805961,36.837441 C22.6047946,37.367199 27.7311355,36.0734 31.1796042,33.67863 C32.7738556,32.571511 34.0278416,31.1077588 34.9615652,29.3240725 C35.9655841,27.4061018 36.5624597,25.037998 36.8243734,22.5704379 L36.877,22.013 L36.8541265,22.0747487 C36.1062583,23.9855207 34.9715055,25.6413779 33.4834437,27.0420357 L33.2455553,27.2610714 C29.9129421,30.2629374 25.0481179,31.7861121 20.777562,31.7861121 C14.5193164,31.7861121 10.0833616,27.5243978 9.55331349,21.4815772 L9.547,21.401 L9.48804723,21.4025637 C7.92427964,21.3975955 6.45420579,20.5101731 5.12970637,18.833518 L4.95,18.6 C4.61316774,18.1508903 4.71194234,17.5125661 5.16876181,17.1862665 C7.68458105,15.3892528 9.98352207,14.8664142 11.9840202,15.7549641 L12.1972136,15.8555728 C13.1671379,16.340535 14.7606607,16.6792633 16.9572577,16.8565111 L17.431,16.891 L16.9804172,16.5876184 L16.3539979,16.1570642 L15.7762506,15.748933 C15.6840031,15.6827667 15.5937745,15.6175247 15.5055602,15.5532023 L15.0004087,15.1782632 L14.5433796,14.8251572 C13.893818,14.3117549 13.405928,13.871243 13.0763717,13.5000376 L12.9817787,13.3901844 C12.4046682,12.6976517 10.9417632,12.349341 8.56237829,12.4980526 C8.05640376,12.529676 7.60681817,12.1776699 7.51613009,11.6788854 C7.30882023,10.5386812 7.22244113,9.42490224 7.25764567,8.33872603 Z"/>
  </g>
</svg>
