<svg xmlns="http://www.w3.org/2000/svg" xmlns:xlink="http://www.w3.org/1999/xlink" width="48" height="48" viewBox="0 0 48 48">
  <defs>
    <filter id="google-chrome-a" width="133%" height="133%" x="-17%" y="-17%" filterUnits="objectBoundingBox">
      <feOffset dy="1" in="SourceAlpha" result="shadowOffsetOuter1"/>
      <feGaussianBlur in="shadowOffsetOuter1" result="shadowBlurOuter1" stdDeviation="1"/>
      <feColorMatrix in="shadowBlurOuter1" result="shadowMatrixOuter1" values="0 0 0 0 0   0 0 0 0 0   0 0 0 0 0  0 0 0 0.2 0"/>
      <feMerge>
        <feMergeNode in="shadowMatrixOuter1"/>
        <feMergeNode in="SourceGraphic"/>
      </feMerge>
    </filter>
    <linearGradient id="google-chrome-b" x1="50%" x2="50%" y1="101.22%" y2="-1.22%">
      <stop offset="0%" stop-color="#C32F2F"/>
      <stop offset="45.52%" stop-color="#E85842"/>
      <stop offset="100%" stop-color="#F1998B"/>
    </linearGradient>
    <linearGradient id="google-chrome-c" x1="54.651%" x2="54.651%" y1="101.22%" y2="-1.22%">
      <stop offset="0%" stop-color="#B73725"/>
      <stop offset="100%" stop-color="#DF6D61"/>
    </linearGradient>
    <linearGradient id="google-chrome-d" x1="50%" x2="50%" y1="101.163%" y2="-1.163%">
      <stop offset="0%" stop-color="#FAD10C"/>
      <stop offset="100%" stop-color="#FCE694"/>
    </linearGradient>
    <linearGradient id="google-chrome-e" x1="41.429%" x2="41.429%" y1="101.163%" y2="-1.163%">
      <stop offset="0%" stop-color="#AD8E11"/>
      <stop offset="100%" stop-color="#F0D264"/>
    </linearGradient>
    <linearGradient id="google-chrome-f" x1="50%" x2="50%" y1="-2.632%" y2="128.948%">
      <stop offset="0%" stop-color="#A5E774"/>
      <stop offset="100%" stop-color="#41A643"/>
    </linearGradient>
    <linearGradient id="google-chrome-g" x1="60.526%" x2="60.526%" y1="-2.632%" y2="128.948%">
      <stop offset="0%" stop-color="#ABD24E"/>
      <stop offset="100%" stop-color="#4D7B4F"/>
    </linearGradient>
    <linearGradient id="google-chrome-j" x1="0%" x2="100%" y1="39.862%" y2="39.862%">
      <stop offset="0%" stop-color="#F5F5F5"/>
      <stop offset="100%" stop-color="#DCDCDC"/>
    </linearGradient>
    <linearGradient id="google-chrome-k" x1="54.444%" x2="54.444%" y1="-1.316%" y2="101.316%">
      <stop offset="0%" stop-color="#F9F9F9"/>
      <stop offset="100%" stop-color="#C9C9C9"/>
    </linearGradient>
    <path id="google-chrome-i" d="M22,33 C15.9346,33 11,28.0643 11,21.9989 C11,15.9335 15.9346,11 22,11 C28.0643,11 33,15.9335 33,21.9989 C33,28.0643 28.0643,33 22,33 L22,33 Z"/>
    <filter id="google-chrome-h" width="140.9%" height="140.9%" x="-20.5%" y="-15.9%" filterUnits="objectBoundingBox">
      <feMorphology in="SourceAlpha" operator="dilate" radius="1" result="shadowSpreadOuter1"/>
      <feOffset dy="1" in="shadowSpreadOuter1" result="shadowOffsetOuter1"/>
      <feGaussianBlur in="shadowOffsetOuter1" result="shadowBlurOuter1" stdDeviation="1"/>
      <feComposite in="shadowBlurOuter1" in2="SourceAlpha" operator="out" result="shadowBlurOuter1"/>
      <feColorMatrix in="shadowBlurOuter1" values="0 0 0 0 0   0 0 0 0 0   0 0 0 0 0  0 0 0 0.3 0"/>
    </filter>
    <linearGradient id="google-chrome-n" x1="50%" x2="50%" y1="101.163%" y2="-1.163%">
      <stop offset="0%" stop-color="#517FB3"/>
      <stop offset="100%" stop-color="#A1C6EF"/>
    </linearGradient>
    <linearGradient id="google-chrome-o" x1="41.429%" x2="41.429%" y1="101.163%" y2="-1.163%">
      <stop offset="0%" stop-color="#49627F"/>
      <stop offset="100%" stop-color="#78A7DC"/>
    </linearGradient>
    <circle id="google-chrome-m" cx="22" cy="22" r="8"/>
    <filter id="google-chrome-l" width="156.2%" height="156.2%" x="-28.1%" y="-21.9%" filterUnits="objectBoundingBox">
      <feMorphology in="SourceAlpha" operator="dilate" radius="1" result="shadowSpreadOuter1"/>
      <feOffset dy="1" in="shadowSpreadOuter1" result="shadowOffsetOuter1"/>
      <feGaussianBlur in="shadowOffsetOuter1" result="shadowBlurOuter1" stdDeviation="1"/>
      <feComposite in="shadowBlurOuter1" in2="SourceAlpha" operator="out" result="shadowBlurOuter1"/>
      <feColorMatrix in="shadowBlurOuter1" values="0 0 0 0 0   0 0 0 0 0   0 0 0 0 0  0 0 0 0.3 0"/>
    </filter>
  </defs>
  <g fill="none" filter="url(#google-chrome-a)" transform="translate(2 2)">
    <path fill="url(#google-chrome-b)" stroke="url(#google-chrome-c)" stroke-linecap="square" d="M21.7906631,-0.5 C26.0789368,-0.5 30.0791716,0.722341127 33.470474,2.83374106 C37.1226956,5.10758738 40.0684617,8.41298933 41.9066061,12.3337435 L41.9066061,12.3337435 L13.528363,26.9094113 L3.17517755,9.50864794 C7.14266377,3.46790375 14.0308023,-0.5 21.7906631,-0.5 Z"/>
    <path fill="url(#google-chrome-d)" stroke="url(#google-chrome-e)" d="M21.3224004,11.8734486 L41.7109905,11.9406343 C44.9138486,18.3618746 44.84392,26.3285262 40.9394745,32.9844432 C38.7623968,36.6953354 35.6276456,39.5782529 31.9947203,41.4624864 C28.1540414,43.4544723 23.7565578,44.3299945 19.3459743,43.8876863 L19.3459743,43.8876863 L21.3224004,11.8734486 Z"/>
    <path fill="url(#google-chrome-f)" stroke="url(#google-chrome-g)" stroke-linecap="square" d="M3.55807603,8.94573623 L13.9652601,26.4498654 L30.8961105,25.8529473 L20.1806492,43.946553 C14.4618166,43.5587591 9.17964391,40.8885606 5.38576366,36.7961754 C1.76490884,32.8904294 -0.5,27.6910987 -0.5,21.9496765 C-0.5,17.1456105 0.935803762,12.5416513 3.55807603,8.94573623 L3.55807603,8.94573623 Z"/>
    <g stroke-linejoin="round">
      <use fill="#000" filter="url(#google-chrome-h)" xlink:href="#google-chrome-i"/>
      <path fill="url(#google-chrome-j)" fill-rule="evenodd" stroke="url(#google-chrome-k)" d="M22,10.5 C25.1701898,10.5 28.0454895,11.7894034 30.1280686,13.8717742 C32.2103752,15.9538726 33.5,18.828551 33.5,21.9989 C33.5,25.1693667 32.2102698,28.0447163 30.1278051,30.1273891 C28.0452383,32.2101642 25.1700445,33.5 22,33.5 C18.8295227,33.5 15.9544522,32.2102672 13.8720533,30.1276601 C11.7895693,28.0449679 10.5,25.1695089 10.5,21.9989 C10.5,18.8284089 11.7894639,15.9536211 13.8717899,13.8715033 C15.9542011,11.7893004 18.8293773,10.5 22,10.5 Z"/>
    </g>
    <g stroke-linejoin="round">
      <use fill="#000" filter="url(#google-chrome-l)" xlink:href="#google-chrome-m"/>
      <circle cx="22" cy="22" r="8.5" fill="url(#google-chrome-n)" fill-rule="evenodd" stroke="url(#google-chrome-o)"/>
    </g>
  </g>
</svg>
