<svg xmlns="http://www.w3.org/2000/svg" xmlns:xlink="http://www.w3.org/1999/xlink" width="48" height="48" viewBox="0 0 48 48">
  <defs>
    <filter id="gparted-a" width="136.1%" height="135.1%" x="-18.1%" y="-15.5%" filterUnits="objectBoundingBox">
      <feOffset dy="1" in="SourceAlpha" result="shadowOffsetOuter1"/>
      <feGaussianBlur in="shadowOffsetOuter1" result="shadowBlurOuter1" stdDeviation="1"/>
      <feColorMatrix in="shadowBlurOuter1" result="shadowMatrixOuter1" values="0 0 0 0 0   0 0 0 0 0   0 0 0 0 0  0 0 0 0.2 0"/>
      <feMerge>
        <feMergeNode in="shadowMatrixOuter1"/>
        <feMergeNode in="SourceGraphic"/>
      </feMerge>
    </filter>
    <linearGradient id="gparted-b" x1="50%" x2="50%" y1="0%" y2="100%">
      <stop offset="0%" stop-color="#E7E7E7"/>
      <stop offset="100%" stop-color="#D0D1D6"/>
    </linearGradient>
    <path id="gparted-c" d="M33.5,41 L2.5,41 C1.67157288,41 1,40.3284271 1,39.5 L1,2.5 C1,1.67157288 1.67157288,1 2.5,1 L33.5,1 C34.3284271,1 35,1.67157288 35,2.5 L35,39.5 C35,40.3284271 34.3284271,41 33.5,41 Z"/>
    <filter id="gparted-d" width="102.9%" height="102.5%" x="-1.5%" y="-1.2%" filterUnits="objectBoundingBox">
      <feOffset dy="1" in="SourceAlpha" result="shadowOffsetInner1"/>
      <feComposite in="shadowOffsetInner1" in2="SourceAlpha" k2="-1" k3="1" operator="arithmetic" result="shadowInnerInner1"/>
      <feColorMatrix in="shadowInnerInner1" values="0 0 0 0 1   0 0 0 0 1   0 0 0 0 1  0 0 0 0.5 0"/>
    </filter>
    <linearGradient id="gparted-e" x1="50%" x2="50%" y1="1.046%" y2="100%">
      <stop offset="0%" stop-opacity=".298"/>
      <stop offset="100%" stop-opacity=".596"/>
    </linearGradient>
    <linearGradient id="gparted-f" x1="50%" x2="50%" y1="0%" y2="98.637%">
      <stop offset="0%" stop-color="#373737"/>
      <stop offset="100%" stop-color="#0A0A0A"/>
    </linearGradient>
    <linearGradient id="gparted-g" x1="50%" x2="50%" y1="0%" y2="100%">
      <stop offset=".022%" stop-color="#C2C2CA"/>
      <stop offset="96.195%" stop-color="#A8A8AD"/>
    </linearGradient>
    <linearGradient id="gparted-h" x1="50%" x2="50%" y1="1.426%" y2="100%">
      <stop offset="0%" stop-opacity=".2"/>
      <stop offset="100%" stop-opacity=".296"/>
    </linearGradient>
    <filter id="gparted-i" width="179.8%" height="181.3%" x="-39.9%" y="-40.6%" filterUnits="objectBoundingBox">
      <feOffset dy="1" in="SourceAlpha" result="shadowOffsetOuter1"/>
      <feGaussianBlur in="shadowOffsetOuter1" result="shadowBlurOuter1" stdDeviation="1"/>
      <feColorMatrix in="shadowBlurOuter1" result="shadowMatrixOuter1" values="0 0 0 0 0   0 0 0 0 0   0 0 0 0 0  0 0 0 0.2 0"/>
      <feMerge>
        <feMergeNode in="shadowMatrixOuter1"/>
        <feMergeNode in="SourceGraphic"/>
      </feMerge>
    </filter>
    <linearGradient id="gparted-j" x1="50%" x2="50%" y1="-16.455%" y2="95.587%">
      <stop offset="0%" stop-color="#ECF1F6"/>
      <stop offset="100%" stop-color="#D9DADB"/>
    </linearGradient>
    <path id="gparted-k" d="M5.83620691,13.9327187 L15.0807734,2.44063281 C15.2129212,2.28682422 15.2927291,2.08945703 15.2927291,1.874125 C15.2927291,1.39219141 14.8923497,1 14.3990148,1 C14.1791872,1 13.9776995,1.07694531 13.821936,1.20762109 L2.08866995,10.2631328 C1.42784729,10.7412109 1,11.5090234 1,12.374125 C1,13.8250937 2.19988178,14.999125 3.67980296,14.999125 C4.56438916,14.999125 5.34814778,14.5800273 5.83620691,13.9327187 Z"/>
    <filter id="gparted-l" width="107%" height="107.1%" x="-3.5%" y="-3.6%" filterUnits="objectBoundingBox">
      <feOffset dy="1" in="SourceAlpha" result="shadowOffsetInner1"/>
      <feComposite in="shadowOffsetInner1" in2="SourceAlpha" k2="-1" k3="1" operator="arithmetic" result="shadowInnerInner1"/>
      <feColorMatrix in="shadowInnerInner1" values="0 0 0 0 1   0 0 0 0 1   0 0 0 0 1  0 0 0 0.600305944 0"/>
    </filter>
    <linearGradient id="gparted-m" x1="50%" x2="50%" y1="0%" y2="100%">
      <stop offset="0%" stop-opacity=".204"/>
      <stop offset="100%" stop-opacity=".4"/>
    </linearGradient>
  </defs>
  <g fill="none" filter="url(#gparted-a)" transform="translate(6 3)">
    <use fill="url(#gparted-b)" xlink:href="#gparted-c"/>
    <use fill="#000" filter="url(#gparted-d)" xlink:href="#gparted-c"/>
    <path fill="url(#gparted-e)" d="M33.5,0 L2.5,0 C1.11928813,0 0,1.11928813 0,2.5 L0,39.5 C0,40.8807119 1.11928813,42 2.5,42 L33.5,42 C34.8807119,42 36,40.8807119 36,39.5 L36,2.5 C36,1.11928813 34.8807119,0 33.5,0 Z M33.5,1 C34.3284271,1 35,1.67157288 35,2.5 L35,39.5 C35,40.3284271 34.3284271,41 33.5,41 L2.5,41 C1.67157288,41 1,40.3284271 1,39.5 L1,2.5 C1,1.67157288 1.67157288,1 2.5,1 L33.5,1 Z"/>
    <path fill="#49494C" d="M18,30 C14.7943587,30 11.7808582,28.7519621 9.5144648,26.4856293 C7.24807136,24.2180109 6,21.2053143 6,17.9996786 C6,14.794766 7.24807136,11.7807034 9.5144648,9.51437066 C11.7808582,7.24803793 14.7943587,6 18,6 C21.2056413,6 24.2191418,7.24803793 26.4855352,9.51437066 C28.7519286,11.7807034 30,14.794766 30,17.9996786 C30,21.205234 28.7519286,24.2180109 26.4855352,26.4856293 C24.2191418,28.7519621 21.2056413,30 18,30 Z"/>
    <path fill="#949496" d="M22 35.5L22 38.5C22 38.7761424 22.2238576 39 22.5 39 22.7761424 39 23 38.7761424 23 38.5L23 35.5C23 35.2238576 22.7761424 35 22.5 35 22.2238576 35 22 35.2238576 22 35.5zM25 35.5L25 38.5C25 38.7761424 25.2238576 39 25.5 39 25.7761424 39 26 38.7761424 26 38.5L26 35.5C26 35.2238576 25.7761424 35 25.5 35 25.2238576 35 25 35.2238576 25 35.5zM28.5 35C28.2238576 35 28 35.2238576 28 35.5L28 38.5C28 38.7761424 28.2238576 39 28.5 39 28.7761424 39 29 38.7761424 29 38.5L29 35.5C29 35.2238576 28.7761424 35 28.5 35z"/>
    <path fill="#85858A" d="M18,5 C10.8208312,5 5,10.8200358 5,17.999675 C5,25.1793143 10.8208312,31 18,31 C25.1791687,31 31,25.1793143 31,17.999675 C31,10.8200358 25.1791687,5 18,5 Z M25.9663187,25.9664446 C24.9316812,27.0010562 23.7269062,27.8135359 22.3849812,28.3822717 C20.9973937,28.9688008 19.5221375,29.2658434 18,29.2658434 C16.4778625,29.2658434 15.0026062,28.9688008 13.6150187,28.3822717 C12.2730937,27.8135359 11.0683187,27.0010562 10.0336813,25.9664446 C8.99774375,24.9319142 8.18524375,23.7257881 7.61779375,22.3845466 C7.03125,20.9969938 6.7329,19.5218557 6.7329,17.999675 C6.7329,16.4781443 7.03125,15.0030062 7.61779375,13.6148034 C8.18524375,12.2735619 8.99774375,11.068817 10.0336813,10.0335554 C11.0683187,8.99829379 12.2730937,8.18516412 13.6150187,7.61829704 C15.0026062,7.03111797 16.4777812,6.73342541 18,6.73342541 C19.5221375,6.73342541 20.9973937,7.03111797 22.3849812,7.61829704 C23.7269875,8.18516412 24.9316812,8.99821254 25.9663187,10.0335554 C27.0022562,11.068817 27.8147562,12.2735619 28.3822062,13.6148034 C28.96875,15.0030062 29.2671,16.4781443 29.2671,17.999675 C29.2671,19.5217745 28.96875,20.9969938 28.3822062,22.3845466 C27.8147562,23.7257069 27.0022562,24.9317517 25.9663187,25.9664446 Z"/>
    <g transform="translate(13 13)">
      <path fill="#4A4A4E" d="M5,8.00025 C2.79424447,8.00025 1,6.20578125 1,3.99975 C1,1.79446875 2.79424447,0 5,0 C7.20575553,0 9,1.79446875 9,3.99975 C9,6.20578125 7.20575553,8.00025 5,8.00025 Z"/>
      <path fill="url(#gparted-f)" d="M5,0 C2.2385051,0 0,2.23833721 0,4.99962499 C0,7.76091277 2.2385051,10 5,10 C7.7614949,10 10,7.76091277 10,4.99962499 C10,2.23833721 7.7614949,0 5,0 Z M5,7.99969999 C3.34599085,7.99969999 1.99969997,6.65416635 1.99969997,4.99962499 C1.99969997,3.34573989 3.34599085,1.99954999 5,1.99954999 C6.65400915,1.99954999 8.00030003,3.34573989 8.00030003,4.99962499 C8.00030003,6.65416635 6.65400915,7.99969999 5,7.99969999 Z"/>
      <path fill="#F1F5F9" d="M6,4.99962505 C6,5.55183727 5.55200525,6 5,6 C4.44799475,6 4,5.55183727 4,4.99962505 C4,4.44741282 4.44799475,4 5,4 C5.55200525,4 6,4.44741282 6,4.99962505 Z"/>
    </g>
    <g transform="translate(0 22.75)">
      <path fill="url(#gparted-g)" d="M4.09090909,4.249125 L1,4.249125 L1,16.749125 C1,17.5775521 1.67157288,18.249125 2.5,18.249125 L18,18.249125 L18,18.249125 L18,12.0269028 C12.2700324,11.2497812 7.20053091,8.48639884 4.09090909,4.249125 Z"/>
      <path fill="url(#gparted-h)" d="M4.09090909,3.249125 L1,3.249125 C0.44771525,3.249125 0,3.69684025 0,4.249125 L0,16.749125 C0,18.1298369 1.11928813,19.249125 2.5,19.249125 L18,19.249125 C18.5522847,19.249125 19,18.8014097 19,18.249125 L19,12.0269028 C19,11.526556 18.6302014,11.1032182 18.1343937,11.0359748 C12.6012264,10.285544 7.80715024,7.62280049 4.89710647,3.65747833 C4.70871442,3.40076907 4.40932896,3.249125 4.09090909,3.249125 Z M4.09090909,4.249125 C7.11869876,8.37489163 12.0045738,11.1033193 17.54903,11.9614339 L18,12.0269028 L18,18.249125 L2.5,18.249125 C1.72030388,18.249125 1.07955132,17.6542369 1.00686658,16.893585 L1,16.749125 L1,4.249125 L4.09090909,4.249125 Z"/>
      <g filter="url(#gparted-i)" transform="translate(5.387)">
        <use fill="url(#gparted-j)" xlink:href="#gparted-k"/>
        <use fill="#000" filter="url(#gparted-l)" xlink:href="#gparted-k"/>
        <path fill="url(#gparted-m)" d="M14.3990148,0 C14.0044965,0 13.6259978,0.120316873 13.3104602,0.340899618 L1.47769161,9.47148549 C0.566586533,10.1300397 0,11.2055909 0,12.374125 C0,14.3816818 1.65178152,15.999125 3.67980296,15.999125 C4.78382631,15.999125 5.80852164,15.5162649 6.50074203,14.7019823 L15.859956,3.06742983 C16.1289858,2.75510577 16.2927291,2.32640442 16.2927291,1.874125 C16.2927291,0.83478885 15.4396287,0 14.3990148,0 Z M14.3990148,1 C14.8923497,1 15.2927291,1.39219141 15.2927291,1.874125 C15.2927291,2.04639062 15.2416521,2.20715875 15.1535616,2.34332537 L15.0807734,2.44063281 L5.83620691,13.9327187 C5.34814778,14.5800273 4.56438916,14.999125 3.67980296,14.999125 C2.19988178,14.999125 1,13.8250937 1,12.374125 C1,11.5708164 1.36890914,10.8513948 1.95070206,10.3699427 L13.821936,1.20762109 C13.9776995,1.07694531 14.1791872,1 14.3990148,1 Z"/>
      </g>
    </g>
  </g>
</svg>
