<svg xmlns="http://www.w3.org/2000/svg" xmlns:xlink="http://www.w3.org/1999/xlink" width="48" height="48" viewBox="0 0 48 48">
  <defs>
    <filter id="kmsclient-a" width="132.5%" height="132.5%" x="-16.2%" y="-16.2%" filterUnits="objectBoundingBox">
      <feOffset dy="1" in="SourceAlpha" result="shadowOffsetOuter1"/>
      <feGaussianBlur in="shadowOffsetOuter1" result="shadowBlurOuter1" stdDeviation="1"/>
      <feColorMatrix in="shadowBlurOuter1" result="shadowMatrixOuter1" values="0 0 0 0 0   0 0 0 0 0   0 0 0 0 0  0 0 0 0.2 0"/>
      <feMerge>
        <feMergeNode in="shadowMatrixOuter1"/>
        <feMergeNode in="SourceGraphic"/>
      </feMerge>
    </filter>
    <linearGradient id="kmsclient-b" x1="50%" x2="50%" y1="0%" y2="100%">
      <stop offset="0%" stop-color="#F3F9F4"/>
      <stop offset="100%" stop-color="#D0DDE3"/>
    </linearGradient>
    <path id="kmsclient-c" d="M3.25,1 L36.75,1 C37.9926407,1 39,2.00735931 39,3.25 L39,36.75 C39,37.9926407 37.9926407,39 36.75,39 L3.25,39 C2.00735931,39 1,37.9926407 1,36.75 L1,3.25 C1,2.00735931 2.00735931,1 3.25,1 Z"/>
    <filter id="kmsclient-d" width="102.6%" height="102.6%" x="-1.3%" y="-1.3%" filterUnits="objectBoundingBox">
      <feOffset dy="1" in="SourceAlpha" result="shadowOffsetInner1"/>
      <feComposite in="shadowOffsetInner1" in2="SourceAlpha" k2="-1" k3="1" operator="arithmetic" result="shadowInnerInner1"/>
      <feColorMatrix in="shadowInnerInner1" values="0 0 0 0 1   0 0 0 0 1   0 0 0 0 1  0 0 0 1 0"/>
    </filter>
    <linearGradient id="kmsclient-e" x1="50%" x2="50%" y1="0%" y2="100%">
      <stop offset="0%" stop-opacity=".202"/>
      <stop offset="100%" stop-opacity=".401"/>
    </linearGradient>
    <linearGradient id="kmsclient-h" x1="83.779%" x2="11.984%" y1="18.851%" y2="80.234%">
      <stop offset="0%" stop-color="#90A2D2"/>
      <stop offset="100%" stop-color="#4B68A5"/>
    </linearGradient>
    <circle id="kmsclient-g" cx="9" cy="9" r="9"/>
    <filter id="kmsclient-f" width="138.9%" height="138.9%" x="-19.4%" y="-13.9%" filterUnits="objectBoundingBox">
      <feOffset dy="1" in="SourceAlpha" result="shadowOffsetOuter1"/>
      <feGaussianBlur in="shadowOffsetOuter1" result="shadowBlurOuter1" stdDeviation="1"/>
      <feColorMatrix in="shadowBlurOuter1" values="0 0 0 0 0   0 0 0 0 0.0350400191   0 0 0 0 0.298035553  0 0 0 0.15 0"/>
    </filter>
    <linearGradient id="kmsclient-k" x1="89.809%" x2="10.287%" y1="22.374%" y2="75.079%">
      <stop offset="0%" stop-color="#97CAE0"/>
      <stop offset="100%" stop-color="#4F8BAA"/>
    </linearGradient>
    <circle id="kmsclient-j" cx="18" cy="9" r="9"/>
    <filter id="kmsclient-i" width="138.9%" height="138.9%" x="-19.4%" y="-13.9%" filterUnits="objectBoundingBox">
      <feOffset dy="1" in="SourceAlpha" result="shadowOffsetOuter1"/>
      <feGaussianBlur in="shadowOffsetOuter1" result="shadowBlurOuter1" stdDeviation="1"/>
      <feColorMatrix in="shadowBlurOuter1" values="0 0 0 0 0   0 0 0 0 0.0350400191   0 0 0 0 0.298035553  0 0 0 0.15 0"/>
    </filter>
    <linearGradient id="kmsclient-n" x1="92.198%" x2="8.671%" y1="22.226%" y2="68.783%">
      <stop offset="0%" stop-color="#C3EFD0"/>
      <stop offset="100%" stop-color="#4CA7AC"/>
    </linearGradient>
    <circle id="kmsclient-m" cx="27" cy="9" r="9"/>
    <filter id="kmsclient-l" width="138.9%" height="138.9%" x="-19.4%" y="-13.9%" filterUnits="objectBoundingBox">
      <feOffset dy="1" in="SourceAlpha" result="shadowOffsetOuter1"/>
      <feGaussianBlur in="shadowOffsetOuter1" result="shadowBlurOuter1" stdDeviation="1"/>
      <feColorMatrix in="shadowBlurOuter1" values="0 0 0 0 0.0715196752   0 0 0 0 0.236045063   0 0 0 0 0.181359068  0 0 0 0.15 0"/>
    </filter>
    <linearGradient id="kmsclient-q" x1="56.876%" x2="56.876%" y1="0%" y2="91.235%">
      <stop offset="0%" stop-color="#FFF"/>
      <stop offset="100%" stop-color="#FFF" stop-opacity=".769"/>
    </linearGradient>
    <path id="kmsclient-p" d="M8,23.25 L8,21.65625 L8,21.65625 L9.3223701,20.2546936 L10.9006929,23.778297 C10.9611126,23.913184 11.0951275,24 11.2429282,24 L12.8390703,24 C12.9944004,24 13.1203203,23.8740801 13.1203203,23.71875 C13.1203203,23.6738401 13.1095656,23.6295831 13.088956,23.5896814 L10.460083,18.5 L10.460083,18.5 L13.24264,15.4715377 C13.347733,15.3571572 13.340204,15.1792388 13.2258235,15.0741458 C13.1739249,15.0264613 13.1060147,15 13.0355358,15 L11.1714692,15 C11.0625782,15 10.9590644,15.0473318 10.8878331,15.129693 L8,18.46875 L8,18.46875 L8,15.75 C8,15.3357864 7.66421356,15 7.25,15 L6.77539062,15 C6.36117706,15 6.02539062,15.3357864 6.02539062,15.75 L6.02539062,23.25 C6.02539062,23.6642136 6.36117706,24 6.77539062,24 L7.25,24 C7.66421356,24 8,23.6642136 8,23.25 Z M17,23.4375 L17,18.0351562 L17,18.0351562 L18.4227545,23.5773656 C18.4866056,23.8260917 18.7107972,24 18.9675883,24 L20.0614405,24 C20.3192629,24 20.5440782,23.8247202 20.606956,23.5746827 L22,18.0351562 L22,18.0351562 L22,23.4375 C22,23.7481602 22.2518398,24 22.5625,24 L23.4375,24 C23.7481602,24 24,23.7481602 24,23.4375 L24,15.75 C24,15.3357864 23.6642136,15 23.25,15 L21.5715591,15 C21.2339504,15 20.9379538,15.2255728 20.8484163,15.5510918 L19.5,20.453342 L19.5,20.453342 L18.1515837,15.5510918 C18.0620462,15.2255728 17.7660496,15 17.4284409,15 L15.75,15 C15.3357864,15 15,15.3357864 15,15.75 L15,23.4375 C15,23.7481602 15.2518398,24 15.5625,24 L16.4375,24 C16.7481602,24 17,23.7481602 17,23.4375 Z M29.84375,24 C30.6757812,24 31.3183594,23.7451172 31.8652344,23.5048828 C32.4121094,23.2646484 32.8378906,22.9121094 33.1425781,22.4472656 C33.4472656,21.9824219 33.5996094,21.5683594 33.5996094,21.0175781 C33.5996094,20.5488281 33.4853516,20.125 33.2568359,19.7460938 C33.0283203,19.3671875 32.6630859,19.0498047 32.1611328,18.7939453 C31.6591797,18.5380859 30.828125,18.2851562 29.6679687,18.0351562 C29.1992187,17.9375 28.9023438,17.8320312 28.7773438,17.71875 C28.6484375,17.609375 28.5839844,17.4863281 28.5839844,17.3496094 C28.5839844,17.1621094 28.6621094,17.0029297 28.8183594,16.8720703 C28.9746094,16.7412109 29.2070312,16.6757812 29.515625,16.6757812 C29.890625,16.6757812 30.1845703,16.7636719 30.3974609,16.9394531 C30.5204827,17.0410307 30.6378898,17.0931856 30.7285156,17.2470298 C30.7411931,17.2685508 30.7542577,17.2908473 30.7677095,17.3139194 C30.8349302,17.4291343 30.9582781,17.5 31.0916688,17.5 L32.747583,17.5 C32.9547113,17.500039 33.122622,17.3321283 33.122622,17.125 C33.122622,17.1152642 33.1222429,17.105532 33.1214855,17.0958257 C33.1048537,16.8826697 33.0629051,16.7049773 32.9956396,16.5627485 C32.8238434,16.1994956 32.58919,15.9004174 32.2900391,15.6884766 C31.7138672,15.2802734 30.9414063,15 29.84375,15 C28.9492188,15 28.1806641,15.1884766 27.6669922,15.4130859 C27.1533203,15.6376953 26.7685547,15.9462891 26.5126953,16.3388672 C26.2568359,16.7314453 26.1289062,17.1484375 26.1289062,17.5898437 C26.1289062,18.2617187 26.3789062,18.8144531 26.8789062,19.2480469 C27.375,19.6816406 28.2050781,20.0292969 29.3691406,20.2910156 C30.0800781,20.4472656 30.5332031,20.6132812 30.7285156,20.7890625 C30.9238281,20.9648437 31.0214844,21.0703125 31.0214844,21.2929687 C31.0214844,21.5273437 30.9189453,21.7333984 30.7138672,21.9111328 C30.5087891,22.0888672 30.1757812,22.125 29.796875,22.125 C29.2890625,22.125 28.9394531,22.0039062 28.6660156,21.65625 C28.602395,21.5748748 28.5485814,21.4929391 28.5033012,21.4002546 C28.4809094,21.3544206 28.4577665,21.3032249 28.4338724,21.2466676 C28.3752406,21.1078135 28.2391606,21.0175781 28.0884352,21.0175781 L26.2850494,21.0175781 C26.0778888,21.0174806 25.9099519,21.1854175 25.9099519,21.3925781 C25.9099519,21.4251137 25.914185,21.457511 25.9225446,21.4889543 C25.9411554,21.5589562 25.9599052,21.6246967 25.9787939,21.6861758 C26.1364164,22.199205 26.3963206,22.6560862 26.7617187,23.0214844 C27.3242187,23.5839844 28.3828125,24 29.84375,24 Z"/>
    <filter id="kmsclient-o" width="139.9%" height="222.2%" x="-19.9%" y="-38.9%" filterUnits="objectBoundingBox">
      <feOffset dy="2" in="SourceAlpha" result="shadowOffsetOuter1"/>
      <feGaussianBlur in="shadowOffsetOuter1" result="shadowBlurOuter1" stdDeviation="1.5"/>
      <feColorMatrix in="shadowBlurOuter1" values="0 0 0 0 0   0 0 0 0 0   0 0 0 0 0  0 0 0 0.1 0"/>
    </filter>
    <linearGradient id="kmsclient-r" x1="53.569%" x2="53.569%" y1="3.289%" y2="102.766%">
      <stop offset="0%" stop-opacity=".104"/>
      <stop offset="100%" stop-opacity=".197"/>
    </linearGradient>
    <filter id="kmsclient-s" width="172.2%" height="172.2%" x="-36.1%" y="-36.1%" filterUnits="objectBoundingBox">
      <feOffset dy="1" in="SourceAlpha" result="shadowOffsetOuter1"/>
      <feGaussianBlur in="shadowOffsetOuter1" result="shadowBlurOuter1" stdDeviation="1"/>
      <feColorMatrix in="shadowBlurOuter1" result="shadowMatrixOuter1" values="0 0 0 0 0   0 0 0 0 0   0 0 0 0 0  0 0 0 0.2 0"/>
      <feMerge>
        <feMergeNode in="shadowMatrixOuter1"/>
        <feMergeNode in="SourceGraphic"/>
      </feMerge>
    </filter>
    <linearGradient id="kmsclient-t" x1="50%" x2="50%" y1="0%" y2="100%">
      <stop offset="0%" stop-color="#F2F2F2"/>
      <stop offset="100%" stop-color="#D3D3D3"/>
      <stop offset="100%" stop-color="#EDF2DE"/>
    </linearGradient>
    <linearGradient id="kmsclient-u" x1="50%" x2="50%" y1="1.259%" y2="99.536%">
      <stop offset="0%" stop-color="#7191BD"/>
      <stop offset="100%" stop-color="#3A446A"/>
    </linearGradient>
    <linearGradient id="kmsclient-v" x1="50%" x2="50%" y1="0%" y2="99.637%">
      <stop offset="0%" stop-opacity=".201"/>
      <stop offset="100%" stop-opacity=".303"/>
    </linearGradient>
  </defs>
  <g fill="none" fill-rule="evenodd">
    <g filter="url(#kmsclient-a)" transform="translate(4 4)">
      <use fill="url(#kmsclient-b)" xlink:href="#kmsclient-c"/>
      <use fill="#000" filter="url(#kmsclient-d)" xlink:href="#kmsclient-c"/>
      <path fill="url(#kmsclient-e)" fill-rule="nonzero" d="M36.75,0 L3.25,0 C1.45507456,0 0,1.45507456 0,3.25 L0,36.75 C0,38.5449254 1.45507456,40 3.25,40 L36.75,40 C38.5449254,40 40,38.5449254 40,36.75 L40,3.25 C40,1.45507456 38.5449254,0 36.75,0 Z M36.75,1 C37.9926407,1 39,2.00735931 39,3.25 L39,36.75 C39,37.9926407 37.9926407,39 36.75,39 L3.25,39 C2.00735931,39 1,37.9926407 1,36.75 L1,3.25 C1,2.00735931 2.00735931,1 3.25,1 L36.75,1 Z"/>
      <g transform="translate(2 10)">
        <g fill-rule="nonzero" opacity=".704">
          <use fill="#000" filter="url(#kmsclient-f)" xlink:href="#kmsclient-g"/>
          <use fill="url(#kmsclient-h)" xlink:href="#kmsclient-g"/>
        </g>
        <g fill-rule="nonzero" opacity=".86">
          <use fill="#000" filter="url(#kmsclient-i)" xlink:href="#kmsclient-j"/>
          <use fill="url(#kmsclient-k)" xlink:href="#kmsclient-j"/>
        </g>
        <g opacity=".855">
          <use fill="#000" filter="url(#kmsclient-l)" xlink:href="#kmsclient-m"/>
          <use fill="url(#kmsclient-n)" xlink:href="#kmsclient-m"/>
        </g>
      </g>
      <g fill-rule="nonzero">
        <use fill="#000" filter="url(#kmsclient-o)" xlink:href="#kmsclient-p"/>
        <use fill="url(#kmsclient-q)" xlink:href="#kmsclient-p"/>
      </g>
      <path fill="url(#kmsclient-r)" fill-rule="nonzero" d="M7.25,14 C8.1681734,14 8.92119234,14.7071103 8.9941988,15.6064728 L8.999,15.784 L10.1314699,14.4755411 C10.327356,14.2490478 10.5898247,14.0948026 10.8772571,14.0318358 L11.0228609,14.0080471 L11.1714692,14 L13.0355358,14 C13.3566063,14 13.6659752,14.1205459 13.9024021,14.3377754 C14.0638633,14.4861262 14.1785863,14.6663318 14.245789,14.8599095 C14.5225606,14.3880053 15.0168841,14.058696 15.5914222,14.0070882 L15.75,14 L17.4284409,14 C18.1669599,14 18.8201417,14.4626004 19.07105,15.1462708 L19.1157741,15.285881 L19.5,16.682 L19.8842259,15.285881 C20.0670316,14.6212795 20.618668,14.135228 21.2814541,14.0240995 L21.4250871,14.0060964 L21.5715591,14 L23.25,14 C24.1681734,14 24.9211923,14.7071103 24.9941988,15.6064728 L25,15.75 L24.9996026,20.9031382 C25.1817231,20.4250615 25.6228344,20.0747924 26.1512312,20.0239511 L26.243,20.019 L26.223751,20.0035412 C25.6145343,19.4752361 25.2524168,18.8005607 25.1554153,18.0235512 L25.1355471,17.8091354 L25.1289062,17.5898437 C25.1289062,16.9513815 25.3148293,16.3453577 25.6749189,15.7928537 C26.0427613,15.2284544 26.5816618,14.7962397 27.2663561,14.4968487 C27.9754459,14.1867904 28.8899911,14 29.84375,14 C31.0638794,14 32.059604,14.2996841 32.8681331,14.8725064 C33.3085236,15.1845119 33.6537796,15.6153595 33.8996382,16.135213 C34.0234981,16.3971075 34.092967,16.6913745 34.1184553,17.0180355 L34.1220044,17.0853475 C34.1222359,17.0952576 34.1223903,17.1071546 34.122622,17.125 C34.122622,17.6123582 33.8690724,18.0405046 33.4867327,18.2847043 L33.3682919,18.3523211 L33.339,18.365 L33.4019515,18.4133978 C33.5750579,18.5566991 33.7301148,18.7118638 33.8662771,18.8790833 L33.9961098,19.0503282 L34.1131582,19.229652 C34.4371463,19.7668629 34.5996094,20.3695037 34.5996094,21.0175781 C34.5996094,21.7507098 34.4010661,22.3514304 33.9789281,22.9954614 C33.5660218,23.6254083 32.9882554,24.1037882 32.267425,24.4204388 C31.3703938,24.8144918 30.7114531,25 29.84375,25 C28.2255398,25 26.8692238,24.543203 26.054612,23.7285912 C25.6367931,23.3107723 25.3191121,22.8023405 25.1072138,22.2293229 L25.0228932,21.9798656 C25.0152103,21.9548595 25.0075863,21.9294074 25.0000182,21.903505 L25,23.4375 C25,24.2525035 24.3760141,24.9217674 23.5797193,24.9936146 L23.4375,25 L22.5625,25 C22.1363544,25 21.7500538,24.8294028 21.4681673,24.5527774 L21.3674804,24.4441989 L21.311,24.372 L21.2654231,24.4335498 C21.0371785,24.7092184 20.7178547,24.9019966 20.3592756,24.9714792 L20.2033466,24.9935909 L20.0614405,25 L18.9675883,25 C18.544887,25 18.1539851,24.8303592 17.8687236,24.5483571 L17.7668466,24.4374512 L17.702,24.353 L17.6325196,24.4441989 C17.4068057,24.7118615 17.0928038,24.902639 16.7354126,24.9716328 L16.5797193,24.9936146 L16.4375,25 L15.5625,25 C14.8880016,25 14.3133239,24.5726166 14.0944978,23.9738807 C13.9849851,24.5175096 13.5311381,24.9363081 12.9702885,24.9933628 L12.8390703,25 L11.2429282,25 C10.7461535,25 10.2918534,24.7325184 10.048945,24.3069811 L9.98806531,24.187089 L9.021,22.03 L8.999,22.054 L9,23.25 C9,24.1171638 8.3692751,24.8370138 7.54155257,24.9758229 L7.39352721,24.9941988 L7.25,25 L6.77539062,25 C5.85721723,25 5.10419829,24.2928897 5.03119182,23.3935272 L5.02539062,23.25 L5.02539062,15.75 C5.02539062,14.8318266 5.7325009,14.0788077 6.63186342,14.0058012 L6.77539062,14 L7.25,14 Z M17.4284409,15 L15.75,15 L15.6482294,15.0068466 C15.3154335,15.0519943 15.0519943,15.3154335 15.0068466,15.6482294 L15,15.75 L15,23.4375 L15.0073622,23.5287404 C15.0461124,23.7663131 15.2336869,23.9538876 15.4712596,23.9926378 L15.5625,24 L16.4375,24 L16.5287404,23.9926378 C16.7663131,23.9538876 16.9538876,23.7663131 16.9926378,23.5287404 L17,23.4375 L17,18.0351562 L18.4227545,23.5773656 L18.4539651,23.6669373 C18.5304203,23.8382923 18.6880853,23.960595 18.8730692,23.9920416 L18.9675883,24 L20.0614405,24 L20.1563249,23.9919801 C20.3419919,23.9602931 20.5000271,23.8370792 20.5760378,23.6647461 L20.606956,23.5746827 L22,18.0351562 L22,23.4375 L22.0073622,23.5287404 C22.0461124,23.7663131 22.2336869,23.9538876 22.4712596,23.9926378 L22.5625,24 L23.4375,24 L23.5287404,23.9926378 C23.7663131,23.9538876 23.9538876,23.7663131 23.9926378,23.5287404 L24,23.4375 L24,15.75 L23.9931534,15.6482294 C23.9480057,15.3154335 23.6845665,15.0519943 23.3517706,15.0068466 L23.25,15 L21.5715591,15 L21.4607902,15.0081822 C21.2069808,15.0459638 20.9894243,15.211759 20.8856826,15.4464595 L20.8484163,15.5510918 L19.5,20.453342 L18.1515837,15.5510918 L18.1143174,15.4464595 C18.0105757,15.211759 17.7930192,15.0459638 17.5392098,15.0081822 L17.4284409,15 Z M26.2850494,21.0175781 L26.2094542,21.0251666 C26.0385286,21.0600777 25.9099519,21.2113126 25.9099519,21.3925781 C25.9099519,21.4251137 25.914185,21.457511 25.9225446,21.4889543 L25.9787939,21.6861758 C26.1364164,22.199205 26.3963206,22.6560862 26.7617187,23.0214844 C27.2890625,23.5488281 28.2524261,23.9474258 29.5745621,23.9951906 L29.84375,24 L30.1142056,23.9909296 C30.8173949,23.9435402 31.3791233,23.7184245 31.8652344,23.5048828 C32.4121094,23.2646484 32.8378906,22.9121094 33.1425781,22.4472656 C33.4472656,21.9824219 33.5996094,21.5683594 33.5996094,21.0175781 C33.5996094,20.5488281 33.4853516,20.125 33.2568359,19.7460938 C33.0283203,19.3671875 32.6630859,19.0498047 32.1611328,18.7939453 C31.7010091,18.5594076 30.9643487,18.3273315 29.9511515,18.0977173 L29.6679687,18.0351562 C29.1992187,17.9375 28.9023438,17.8320312 28.7773438,17.71875 C28.6484375,17.609375 28.5839844,17.4863281 28.5839844,17.3496094 C28.5839844,17.1621094 28.6621094,17.0029297 28.8183594,16.8720703 C28.9485677,16.7630208 29.1316732,16.6994086 29.3676758,16.6812337 L29.515625,16.6757812 L29.6713768,16.6811623 C29.9729552,16.7026865 30.2149833,16.7887835 30.3974609,16.9394531 L30.5410373,17.0472945 C30.6101234,17.0990249 30.6741402,17.1547233 30.7285156,17.2470298 L30.7677095,17.3139194 C30.8214861,17.4060913 30.911184,17.4698798 31.0132082,17.4917083 L31.0916688,17.5 L32.747583,17.5 L32.8231664,17.4923934 C32.9696512,17.4624407 33.0850274,17.3470677 33.1150025,17.2005834 L33.1223378,17.1104018 L33.1214855,17.0958257 C33.1048537,16.8826697 33.0629051,16.7049773 32.9956396,16.5627485 C32.8238434,16.1994956 32.58919,15.9004174 32.2900391,15.6884766 C31.7138672,15.2802734 30.9414063,15 29.84375,15 C28.9492188,15 28.1806641,15.1884766 27.6669922,15.4130859 C27.1533203,15.6376953 26.7685547,15.9462891 26.5126953,16.3388672 C26.2568359,16.7314453 26.1289062,17.1484375 26.1289062,17.5898437 C26.1289062,18.2617187 26.3789062,18.8144531 26.8789062,19.2480469 C27.3336589,19.6455078 28.0690511,19.9707574 29.085083,20.2237956 L29.3691406,20.2910156 C30.0800781,20.4472656 30.5332031,20.6132812 30.7285156,20.7890625 C30.9238281,20.9648437 31.0214844,21.0703125 31.0214844,21.2929687 C31.0214844,21.5273437 30.9189453,21.7333984 30.7138672,21.9111328 C30.5087891,22.0888672 30.1757812,22.125 29.796875,22.125 C29.2890625,22.125 28.9394531,22.0039062 28.6660156,21.65625 C28.602395,21.5748748 28.5485814,21.4929391 28.5033012,21.4002546 L28.4338724,21.2466676 C28.3850126,21.1309558 28.2823693,21.0490071 28.1622867,21.0249051 L28.0884352,21.0175781 L26.2850494,21.0175781 Z M11.1714692,15 L11.0912296,15.0086825 C11.0389691,15.020131 10.9897346,15.0426436 10.9468891,15.0746824 L10.8878331,15.129693 L8,18.46875 L8,15.75 L7.99315338,15.6482294 C7.94800573,15.3154335 7.68456652,15.0519943 7.35177056,15.0068466 L7.25,15 L6.77539062,15 L6.67362007,15.0068466 C6.3408241,15.0519943 6.0773849,15.3154335 6.03223724,15.6482294 L6.02539062,15.75 L6.02539062,23.25 L6.03223724,23.3517706 C6.0773849,23.6845665 6.3408241,23.9480057 6.67362007,23.9931534 L6.77539062,24 L7.25,24 L7.35177056,23.9931534 C7.68456652,23.9480057 7.94800573,23.6845665 7.99315338,23.3517706 L8,23.25 L8,21.65625 L9.3223701,20.2546936 L10.9006929,23.778297 L10.9367588,23.8415552 C10.9922855,23.9200799 11.0760909,23.9743698 11.1704536,23.9929447 L11.2429282,24 L12.8390703,24 L12.9035583,23.992572 C13.0278077,23.9634227 13.1203203,23.8518901 13.1203203,23.71875 L13.1123667,23.6523376 L13.088956,23.5896814 L10.460083,18.5 L13.24264,15.4715377 L13.285828,15.409684 C13.3422552,15.299874 13.3211406,15.1617233 13.2258235,15.0741458 C13.1912245,15.0423561 13.1495091,15.019999 13.1046606,15.0086264 L13.0355358,15 L11.1714692,15 Z M14,16.122 L13.9790104,16.1481163 L11.669,18.662 L14.0024285,23.1819079 L14,16.122 Z"/>
    </g>
    <g fill-rule="nonzero" filter="url(#kmsclient-s)" transform="translate(29 29)">
      <circle cx="9" cy="9" r="8" fill="url(#kmsclient-t)"/>
      <path fill="url(#kmsclient-u)" d="M15.0869764,9 C15.0869764,8.49274773 15.4589571,8.01934424 16,7.81642589 C15.9323751,7.37682033 15.7971107,6.93720024 15.6618464,6.53140714 C15.0869619,6.59904659 14.5459044,6.39614278 14.2753757,5.9565227 C14.0048324,5.51691713 14.1062843,4.94203267 14.478265,4.46860012 C14.2077362,4.13044647 13.9033951,3.82609075 13.5652269,3.52174956 C13.0579673,3.8937302 12.4830974,3.99518211 12.0434918,3.72463883 C11.6038718,3.45411011 11.4009679,2.91305263 11.4686074,2.33816819 C11.0628143,2.20290381 10.6231942,2.06763945 10.1835886,2 C9.98067028,2.54105746 9.50725227,2.91303811 9,2.91303811 C8.49276225,2.91303811 8.01934424,2.54105746 7.81642589,2 C7.37682033,2.06762491 6.93720024,2.20288929 6.53140714,2.33815365 C6.55417646,2.5316757 6.54628828,2.72136456 6.50903299,2.89819094 C6.43561621,3.24665218 6.24815446,3.54516305 5.9565227,3.72462431 C5.51691713,3.99516757 4.94203267,3.89371566 4.46860012,3.52173502 C4.13044647,3.79226376 3.82609075,4.09660494 3.52174956,4.43477313 C3.59894706,4.54284897 3.66380794,4.65621169 3.71512566,4.7720451 C3.88860827,5.1636268 3.9073172,5.5834439 3.72463883,5.92269569 C3.45411011,6.36231579 2.91305263,6.56520506 2.33816819,6.49758015 C2.20290381,6.90337325 2.06762491,7.34299334 2,7.7825989 C2.54104294,8.01934424 2.91303811,8.49276225 2.91303811,9 C2.91303811,9.07975893 2.90384284,9.15867439 2.88624092,9.23583385 C2.79188915,9.64943202 2.45598963,10.0125742 2,10.1835886 C2.06762491,10.6231942 2.20288929,11.0628143 2.33815365,11.4686074 C2.91303811,11.4009679 3.48792256,11.5700593 3.72462431,12.0434918 C3.99516757,12.4830974 3.89371566,13.0579819 3.52173502,13.5314144 C3.79226376,13.8695681 4.09660494,14.1739238 4.43477313,14.478265 C4.90820568,14.1062843 5.48309015,14.0386594 5.92269569,14.2753757 C6.36231579,14.5459044 6.56520506,15.0869619 6.49758015,15.6618464 C6.90337325,15.7971107 7.34299334,15.9323751 7.7825989,16 C8.01931518,15.4589425 8.45893526,15.0869619 8.96618027,15.0869619 C9.47342529,15.0869619 9.9468433,15.4589425 10.1497471,16 C10.5893672,15.9323751 10.9951603,15.7971107 11.4347804,15.6618464 C11.3671409,15.0869619 11.5700448,14.5459044 12.0096503,14.2753757 C12.4492704,14.0048324 13.0241403,14.1062843 13.4975729,14.478265 C13.8357411,14.2077362 14.1400823,13.9427215 14.444438,13.6045533 C14.0724573,13.1311208 14.0048179,12.5169099 14.2415342,12.0773043 C14.5120629,11.6376842 15.0531349,11.4347949 15.6280048,11.5024198 C15.7632837,11.0966267 15.8985481,10.6570067 15.966173,10.2174011 C15.4589571,9.94687236 15.0869764,9.50725227 15.0869764,9 Z M4.25,9.17528607 C4.25,6.80638361 5.76875313,4.89480765 8,4.5 C8,6.36111956 8,7.7517263 8,8.68228608 C8,8.69733361 8,8.71990492 8,8.75 L4.51250626,10.8125 C4.50543978,10.7912439 4.49851599,10.7699649 4.49173488,10.7486619 C4.48970958,10.7422994 4.48769699,10.7359348 4.48569716,10.729568 C4.48337866,10.7221867 4.47402341,10.6919271 4.47166679,10.6841781 C4.3238792,10.1982179 4.25,9.69933401 4.25,9.17528607 Z M9.03125,14 C7.59485939,14 6.28905314,13.3211039 5.375,12.2349091 L9.03125,10.0625 L12.6875,12.2349286 C11.7734656,13.3211039 10.4676406,14 9.03125,14 Z M10,8.81050944 C10,8.78244429 10,8.76227448 10,8.75 C10,8.71866211 10,8.69241746 10,8.67126603 C10,7.75714644 10,6.34017866 10,4.5 C12.2312199,4.89568054 14,6.81162099 14,9.18576087 C14,9.70399631 13.9280579,10.1860759 13.7841879,10.6647964 C13.7765403,10.6902433 13.7686894,10.7156808 13.7606354,10.7411137 C13.753099,10.7649118 13.7453847,10.7887059 13.7374925,10.8125 L10,8.81050944 Z"/>
      <path fill="url(#kmsclient-v)" d="M9,0 C4.02943725,0 0,4.02943725 0,9 C0,13.9705627 4.02943725,18 9,18 C13.9705627,18 18,13.9705627 18,9 C18,4.02943725 13.9705627,0 9,0 Z M9,1 C13.418278,1 17,4.581722 17,9 C17,13.418278 13.418278,17 9,17 C4.581722,17 1,13.418278 1,9 C1,4.581722 4.581722,1 9,1 Z"/>
    </g>
  </g>
</svg>
