<svg xmlns="http://www.w3.org/2000/svg" xmlns:xlink="http://www.w3.org/1999/xlink" width="48" height="48" viewBox="0 0 48 48">
  <defs>
    <filter id="preferences-system-a" width="129.5%" height="129.5%" x="-14.8%" y="-14.8%" filterUnits="objectBoundingBox">
      <feOffset dy="1" in="SourceAlpha" result="shadowOffsetOuter1"/>
      <feGaussianBlur in="shadowOffsetOuter1" result="shadowBlurOuter1" stdDeviation="1"/>
      <feColorMatrix in="shadowBlurOuter1" result="shadowMatrixOuter1" values="0 0 0 0 0   0 0 0 0 0   0 0 0 0 0  0 0 0 0.2 0"/>
      <feMerge>
        <feMergeNode in="shadowMatrixOuter1"/>
        <feMergeNode in="SourceGraphic"/>
      </feMerge>
    </filter>
    <radialGradient id="preferences-system-b" cx="50%" cy="0%" r="105.049%" fx="50%" fy="0%">
      <stop offset="0%" stop-color="#BFBFBF"/>
      <stop offset="100%" stop-color="#4E4E4E"/>
    </radialGradient>
    <path id="preferences-system-c" d="M2.5,1 L41.5,1 C42.3284271,1 43,1.67157288 43,2.5 L43,41.5 C43,42.3284271 42.3284271,43 41.5,43 L2.5,43 C1.67157288,43 1,42.3284271 1,41.5 L1,2.5 C1,1.67157288 1.67157288,1 2.5,1 Z"/>
    <filter id="preferences-system-d" width="102.4%" height="102.4%" x="-1.2%" y="-1.2%" filterUnits="objectBoundingBox">
      <feOffset dy="1" in="SourceAlpha" result="shadowOffsetInner1"/>
      <feComposite in="shadowOffsetInner1" in2="SourceAlpha" k2="-1" k3="1" operator="arithmetic" result="shadowInnerInner1"/>
      <feColorMatrix in="shadowInnerInner1" values="0 0 0 0 1   0 0 0 0 1   0 0 0 0 1  0 0 0 0.598011364 0"/>
    </filter>
    <linearGradient id="preferences-system-e" x1="55.405%" x2="55.405%" y1="-1.351%" y2="101.351%">
      <stop offset="0%" stop-opacity=".515"/>
      <stop offset="100%" stop-opacity=".734"/>
    </linearGradient>
    <radialGradient id="preferences-system-f" cx="50.75%" cy="50.928%" r="50%" fx="50.75%" fy="50.928%">
      <stop offset="0%" stop-color="#595959" stop-opacity=".5"/>
      <stop offset="100%" stop-color="#070707" stop-opacity=".5"/>
    </radialGradient>
    <circle id="preferences-system-g" cx="22" cy="22" r="11"/>
    <filter id="preferences-system-h" width="113.6%" height="113.6%" x="-6.8%" y="-6.8%" filterUnits="objectBoundingBox">
      <feGaussianBlur in="SourceAlpha" result="shadowBlurInner1" stdDeviation="1"/>
      <feOffset dy="1" in="shadowBlurInner1" result="shadowOffsetInner1"/>
      <feComposite in="shadowOffsetInner1" in2="SourceAlpha" k2="-1" k3="1" operator="arithmetic" result="shadowInnerInner1"/>
      <feColorMatrix in="shadowInnerInner1" values="0 0 0 0 0   0 0 0 0 0   0 0 0 0 0  0 0 0 0.5 0"/>
    </filter>
    <radialGradient id="preferences-system-k" cx="50%" cy="-4.334%" r="104.334%" fx="50%" fy="-4.334%" gradientTransform="matrix(0 1 -.95057 0 .459 -.543)">
      <stop offset="0%" stop-color="#E6E6E6"/>
      <stop offset="100%" stop-color="#D0D0D0"/>
    </radialGradient>
    <path id="preferences-system-j" d="M23.1082078,4 C23.5079382,4 23.8374231,4.31350314 23.8572817,4.71273996 L23.971,7 L24,7 L23.999,7.562 L24.0079861,7.72362164 C24.8044126,7.83498271 25.5801212,8.01175831 26.3296136,8.24839965 L27.6634416,5.6028184 C27.8438056,5.24487171 28.2737393,5.09200501 28.6395918,5.2557396 L30.0305212,5.87823993 C30.3943397,6.04106422 30.5672433,6.46002483 30.4241547,6.83204803 L29.3569244,9.60799141 C30.1413724,10.0759893 30.8782494,10.6165868 31.5584751,11.22062 L33.8525761,9.34549185 C34.1630692,9.09150928 34.6184447,9.12680665 34.8860904,9.42560232 L35.9069821,10.5653103 C36.1726383,10.8618847 36.1602496,11.3143556 35.8787632,11.5959493 L33.7779043,13.6969385 C34.3039775,14.4385809 34.7629578,15.2319959 35.1458918,16.0681476 L37.9943666,15.2934858 C38.3808098,15.1884 38.7816372,15.4054634 38.904812,15.7865268 L39.377163,17.2478294 C39.4997958,17.6272158 39.3041514,18.0362377 38.9318237,18.1788735 L36.17761,19.2332588 C36.371879,20.1874346 36.4739212,21.1755682 36.4739212,22.1877541 L36.471,21.966 L39.3737002,22.4211643 C39.7681551,22.4829888 40.0450226,22.8430083 40.0035009,23.2401139 L39.843651,24.7688887 C39.8020645,25.1666143 39.4557425,25.4617585 39.0564544,25.4397573 L36.1489588,25.2796024 C35.9536744,26.1938439 35.6735712,27.0762544 35.3173729,27.9180301 L37.7497134,29.497948 C38.0837809,29.7148768 38.1900014,30.1551074 37.991615,30.5005087 L37.2279628,31.8300675 C37.0282831,32.1777205 36.5904977,32.3068588 36.2341022,32.1232374 L33.6836302,30.809932 C33.1362707,31.5638074 32.5189763,32.262724 31.8413896,32.8969506 L33.400728,35.2985195 C33.6176429,35.6325165 33.5356878,36.0778097 33.2140722,36.3126916 L31.9811131,37.2131446 C31.6571946,37.4497084 31.2044812,37.3895396 30.953598,37.0765807 L29.1836219,34.8692784 C28.3790431,35.3342118 27.5259807,35.7234083 26.6339773,36.0272377 L27.0795447,38.8170287 C27.1426069,39.2111294 26.8859797,39.5855852 26.495675,39.6689783 L25.007353,39.9869751 C24.6158554,40.0706229 24.2276784,39.8320458 24.1254895,39.4449739 L23.4064289,36.7230981 C22.9448812,36.7679009 22.4769979,36.7908225 22.0038098,36.7908225 C21.5306217,36.7908225 21.0627384,36.7679009 20.6011907,36.7230981 L19.8821301,39.4449739 C19.7799412,39.8320458 19.3917642,40.0706229 19.0002667,39.9869751 L17.5119447,39.6689783 C17.1216399,39.5855852 16.8650127,39.2111294 16.9280749,38.8170287 L17.374643,36.0275785 C16.4823329,35.7237184 15.6289845,35.3344345 14.8241491,34.8693659 L13.0540216,37.0765807 C12.8031384,37.3895396 12.3504251,37.4497084 12.0265065,37.2131446 L10.7935474,36.3126916 C10.4719318,36.0778097 10.3899767,35.6325165 10.6068917,35.2985195 L12.1663582,32.8970706 C11.4887212,32.2628122 10.8713835,31.563855 10.3239895,30.809932 L7.7735174,32.1232374 C7.4171219,32.3068588 6.97933654,32.1777205 6.77965682,31.8300675 L6.01600464,30.5005087 C5.8176182,30.1551074 5.92383867,29.7148768 6.25790622,29.497948 L8.69024673,27.9180301 C8.3340484,27.0762544 8.05394518,26.1938439 7.85866082,25.2796024 L4.95116524,25.4397573 C4.55187707,25.4617585 4.20555509,25.1666143 4.16396858,24.7688887 L4.00411868,23.2401139 C3.962597,22.8430083 4.2394645,22.4829888 4.63391938,22.4211643 L7.53532998,21.9661972 C7.54910273,21.0316528 7.64986424,20.1183792 7.82980668,19.2342559 L5.07579589,18.1788735 C4.70346818,18.0362377 4.50782384,17.6272158 4.63045661,17.2478294 L5.10280763,15.7865268 C5.22598244,15.4054634 5.62680986,15.1884 6.01325301,15.2934858 L8.8617278,16.0681476 C9.24466178,15.2319959 9.70364213,14.4385809 10.2297153,13.6969385 L8.12885645,11.5959493 C7.84737002,11.3143556 7.83498133,10.8618847 8.10063748,10.5653103 L9.12152918,9.42560232 C9.38917495,9.12680665 9.84455038,9.09150928 10.1550435,9.34549185 L12.4491445,11.22062 C13.1295229,10.6164513 13.8665779,10.0757467 14.6512232,9.60767642 L13.5834649,6.83204803 C13.4403763,6.46002483 13.61328,6.04106422 13.9770984,5.87823993 L15.3680279,5.2557396 C15.7338803,5.09200501 16.163814,5.24487171 16.3441781,5.6028184 L17.6783358,8.24829553 C18.6430911,7.9437138 19.6512821,7.73832372 20.6911825,7.64395943 L20.8379119,4.71273996 C20.8577705,4.31350314 21.1872554,4 21.5869858,4 L23.1082078,4 Z M25.4252718,25.6424799 C24.5304665,26.4842475 23.3254635,27 22,27 C20.7232385,27 19.5582479,26.5214522 18.6746097,25.7339383 L13.4190001,28.8829576 C15.4350691,31.3931682 18.5298867,33 22,33 C25.5565094,33 28.7188029,31.312161 30.7295664,28.693797 Z M20.9992752,11.0449084 C15.3931214,11.5504779 11,16.2622047 11,22 C11,23.5084512 11.3036307,24.9459857 11.8531093,26.2548207 L17.121181,23.0990678 C17.0418558,22.7454122 17,22.3775941 17,22 C17,19.5814613 18.7171644,17.5639878 20.9988136,17.1002591 L20.9992752,11.0449084 Z M23.9994094,11.1812678 L23.9995389,17.4158423 C25.76569,18.1872936 27,19.9495025 27,22 C27,22.3298328 26.968063,22.6522063 26.9071128,22.9641969 L32.237188,26.0329548 C32.7295366,24.7841922 33,23.4236812 33,22 C33,16.6076534 29.1199378,12.1215439 23.9994094,11.1812678 Z"/>
    <filter id="preferences-system-i" width="127.8%" height="127.8%" x="-13.9%" y="-11.1%" filterUnits="objectBoundingBox">
      <feOffset dy="1" in="SourceAlpha" result="shadowOffsetOuter1"/>
      <feGaussianBlur in="shadowOffsetOuter1" result="shadowBlurOuter1" stdDeviation="1.5"/>
      <feColorMatrix in="shadowBlurOuter1" values="0 0 0 0 0.097118433   0 0 0 0 0.097118433   0 0 0 0 0.097118433  0 0 0 0.799114948 0"/>
    </filter>
    <linearGradient id="preferences-system-l" x1="50%" x2="50%" y1="0%" y2="104.492%">
      <stop offset="0%" stop-color="#FFF"/>
      <stop offset="48.776%" stop-color="#E6E6E6"/>
      <stop offset="54.353%" stop-color="#D0D0D0"/>
      <stop offset="56.647%" stop-color="#BABABA"/>
      <stop offset="59.257%" stop-color="#C6C6C6"/>
      <stop offset="71.839%" stop-color="#A6A6A6"/>
      <stop offset="82.142%" stop-color="#919598"/>
      <stop offset="100%" stop-color="#FFF"/>
    </linearGradient>
    <linearGradient id="preferences-system-o" x1="50%" x2="50%" y1="0%" y2="100%">
      <stop offset="0%" stop-color="#E0E0E0"/>
      <stop offset="98.421%" stop-color="#6D6D6D"/>
    </linearGradient>
    <circle id="preferences-system-m" cx="22" cy="22" r="2"/>
    <filter id="preferences-system-n" width="250%" height="250%" x="-75%" y="-50%" filterUnits="objectBoundingBox">
      <feMorphology in="SourceAlpha" operator="dilate" radius="1" result="shadowSpreadOuter1"/>
      <feOffset dy="1" in="shadowSpreadOuter1" result="shadowOffsetOuter1"/>
      <feGaussianBlur in="shadowOffsetOuter1" result="shadowBlurOuter1" stdDeviation=".5"/>
      <feComposite in="shadowBlurOuter1" in2="SourceAlpha" operator="out" result="shadowBlurOuter1"/>
      <feColorMatrix in="shadowBlurOuter1" values="0 0 0 0 0   0 0 0 0 0   0 0 0 0 0  0 0 0 0.292285839 0"/>
    </filter>
    <linearGradient id="preferences-system-q" x1="50%" x2="50%" y1="0%" y2="100%">
      <stop offset="0%" stop-color="#FFF" stop-opacity="0"/>
      <stop offset="100%" stop-color="#FFF" stop-opacity=".75"/>
    </linearGradient>
    <path id="preferences-system-r" d="M21.5,21 C21.5,20.7238576 21.7238576,20.5 22,20.5 C22.2761424,20.5 22.5,20.7238576 22.5,21 C22.5,21.2761424 22.7238576,21.5 23,21.5 C23.2761424,21.5 23.5,21.7238576 23.5,22 C23.5,22.2761424 23.2761424,22.5 23,22.5 C22.7238576,22.5 22.5,22.7238576 22.5,23 C22.5,23.2761424 22.2761424,23.5 22,23.5 C21.7238576,23.5 21.5,23.2761424 21.5,23 C21.5,22.7238576 21.2761424,22.5 21,22.5 C20.7238576,22.5 20.5,22.2761424 20.5,22 C20.5,21.7238576 20.7238576,21.5 21,21.5 C21.2761424,21.5 21.5,21.2761424 21.5,21 Z"/>
    <filter id="preferences-system-s" width="200%" height="200%" x="-50%" y="-50%" filterUnits="objectBoundingBox">
      <feGaussianBlur in="SourceAlpha" result="shadowBlurInner1" stdDeviation="1"/>
      <feOffset dy="1" in="shadowBlurInner1" result="shadowOffsetInner1"/>
      <feComposite in="shadowOffsetInner1" in2="SourceAlpha" k2="-1" k3="1" operator="arithmetic" result="shadowInnerInner1"/>
      <feColorMatrix in="shadowInnerInner1" values="0 0 0 0 0   0 0 0 0 0   0 0 0 0 0  0 0 0 0.5 0"/>
    </filter>
  </defs>
  <g fill="none" fill-rule="evenodd" filter="url(#preferences-system-a)" transform="translate(2 2)">
    <g fill-rule="nonzero">
      <use fill="url(#preferences-system-b)" xlink:href="#preferences-system-c"/>
      <use fill="#000" filter="url(#preferences-system-d)" xlink:href="#preferences-system-c"/>
    </g>
    <path fill="url(#preferences-system-e)" fill-rule="nonzero" d="M41.5,0 L2.5,0 C1.11928813,0 0,1.11928813 0,2.5 L0,41.5 C0,42.8807119 1.11928813,44 2.5,44 L41.5,44 C42.8807119,44 44,42.8807119 44,41.5 L44,2.5 C44,1.11928813 42.8807119,0 41.5,0 Z M41.5,1 C42.3284271,1 43,1.67157288 43,2.5 L43,41.5 C43,42.3284271 42.3284271,43 41.5,43 L2.5,43 C1.67157288,43 1,42.3284271 1,41.5 L1,2.5 C1,1.67157288 1.67157288,1 2.5,1 L41.5,1 Z"/>
    <path fill="#CBCBCB" d="M22.3963856,12 C22.6331407,12 22.8282901,12.1856893 22.8400513,12.4221585 L22.9212207,14.0515181 C23.4305759,14.1099543 23.9253765,14.2162579 24.4010116,14.3658178 L25.1325499,12.9140627 C25.2393752,12.702039 25.4940307,12.6114912 25.7107259,12.708481 L26.4356931,13.0329663 C26.6511672,13.1294095 26.7535708,13.3775498 26.6688297,13.5978938 L26.0838212,15.1192467 C26.519985,15.3788927 26.9293478,15.6788658 27.3067673,16.0140234 L28.5625562,14.9868174 C28.7464608,14.8363692 29.0161894,14.8572773 29.174714,15.0342688 L29.7069795,15.6285397 C29.8643097,15.8041978 29.8569725,16.0721805 29.6902665,16.2389662 L28.5381901,17.3913563 C28.8287748,17.8033395 29.0814088,18.2440115 29.2910059,18.7082859 L30.8586864,18.2819449 C31.0875763,18.2196966 31.3249884,18.3482682 31.3979405,18.5739804 L31.6442814,19.3361543 C31.7169081,19.5608598 31.6010356,19.8031149 31.3805203,19.8876008 L29.851006,20.4736696 C29.9353385,20.9114893 29.983962,21.3620221 29.9937261,21.8221175 L29.9951892,21.9757643 L31.6245434,22.2313845 C31.8581699,22.2680053 32.0221516,22.4812423 31.9975609,22.7164457 L31.9141902,23.5138653 C31.8895606,23.7494409 31.6844374,23.9242573 31.4479429,23.911225 L29.7864658,23.8196574 C29.6719482,24.3103505 29.5122497,24.7836758 29.3119954,25.2350079 L30.7262843,26.1533595 C30.9241346,26.2818473 30.9870438,26.5425823 30.8695539,26.7471583 L30.4713427,27.4405323 C30.3530765,27.6464601 30.0937692,27.7229531 29.8826754,27.6141832 L28.3665226,26.8330983 C28.0693367,27.2236261 27.737043,27.5859848 27.3743478,27.9154681 L28.3177373,29.3687178 C28.4462004,29.5665395 28.3976626,29.8302722 28.207188,29.9693928 L27.5644633,30.4388323 C27.3726063,30.5789626 27.1044548,30.5433224 26.9558594,30.3579422 L25.8645812,28.9968009 C25.4439567,29.2294897 25.00014,29.425372 24.5374761,29.5801025 L24.8158555,31.3197668 C24.8532031,31.5531894 24.7012102,31.7749755 24.4700433,31.8243717 L23.6943906,31.9901148 C23.4625076,32.039664 23.2325898,31.8983501 23.1720674,31.6690805 L22.7206783,29.95913 C22.4832866,29.9803388 22.2429083,29.9911716 22,29.9911716 C21.7570917,29.9911716 21.5167134,29.9803388 21.2793217,29.95913 L20.8279326,31.6690805 C20.7674102,31.8983501 20.5374924,32.039664 20.3056094,31.9901148 L19.5299567,31.8243717 C19.2987898,31.7749755 19.1467969,31.5531894 19.1841445,31.3197668 L19.4625239,29.5801025 C18.99986,29.425372 18.5560433,29.2294897 18.1354188,28.9968009 L17.0441406,30.3579422 C16.8955452,30.5433224 16.6273937,30.5789626 16.4355367,30.4388323 L15.792812,29.9693928 C15.6023374,29.8302722 15.5537996,29.5665395 15.6822627,29.3687178 L16.6256522,27.9154681 C16.262957,27.5859848 15.9306633,27.2236261 15.6334774,26.8330983 L14.1173246,27.6141832 C13.9062308,27.7229531 13.6469235,27.6464601 13.5286573,27.4405323 L13.1304461,26.7471583 C13.0129562,26.5425823 13.0758654,26.2818473 13.2737157,26.1533595 L14.6880046,25.2350079 C14.4877503,24.7836758 14.3280518,24.3103505 14.2135342,23.8196574 L12.5520571,23.911225 C12.3155626,23.9242573 12.1104394,23.7494409 12.0858098,23.5138653 L12.0024391,22.7164457 C11.9778484,22.4812423 12.1418301,22.2680053 12.3754566,22.2313845 L14.0044629,21.9757617 C14.0056781,21.4622514 14.0552955,20.9601136 14.148994,20.4736696 L12.6194797,19.8876008 C12.3989644,19.8031149 12.2830919,19.5608598 12.3557186,19.3361543 L12.6020595,18.5739804 C12.6750116,18.3482682 12.9124237,18.2196966 13.1413136,18.2819449 L14.7089941,18.7082859 C14.9185912,18.2440115 15.1712252,17.8033395 15.4618099,17.3913563 L14.3097335,16.2389662 C14.1430275,16.0721805 14.1356903,15.8041978 14.2930205,15.6285397 L14.825286,15.0342688 C14.9838106,14.8572773 15.2535392,14.8363692 15.4374438,14.9868174 L16.6932327,16.0140234 C17.0706522,15.6788658 17.480015,15.3788927 17.9161788,15.1192467 L17.3311703,13.5978938 C17.2464292,13.3775498 17.3488328,13.1294095 17.5643069,13.0329663 L18.2892741,12.708481 C18.5059693,12.6114912 18.7606248,12.702039 18.8674501,12.9140627 L19.5989884,14.3658178 C20.0746235,14.2162579 20.5694241,14.1099543 21.0787793,14.0515181 L21.1599487,12.4221585 C21.1717099,12.1856893 21.3668593,12 21.6036144,12 L22.3963856,12 Z M22,16 C18.6862915,16 16,18.6862915 16,22 C16,25.3137085 18.6862915,28 22,28 C25.3137085,28 28,25.3137085 28,22 C28,18.6862915 25.3137085,16 22,16 Z"/>
    <use fill="url(#preferences-system-f)" xlink:href="#preferences-system-g"/>
    <use fill="#000" filter="url(#preferences-system-h)" xlink:href="#preferences-system-g"/>
    <use fill="#000" filter="url(#preferences-system-i)" xlink:href="#preferences-system-j"/>
    <use fill="url(#preferences-system-k)" xlink:href="#preferences-system-j"/>
    <path fill="url(#preferences-system-l)" fill-rule="nonzero" d="M31.8413896,32.8969506 L33.400728,35.2985195 C33.6176429,35.6325165 33.5356878,36.0778097 33.2140722,36.3126916 L31.9811131,37.2131446 C31.6571946,37.4497084 31.2044812,37.3895396 30.953598,37.0765807 L29.1836219,34.8692784 C28.3790431,35.3342118 27.5259807,35.7234083 26.6339773,36.0272377 L27.0795447,38.8170287 C27.1426069,39.2111294 26.8859797,39.5855852 26.495675,39.6689783 L25.007353,39.9869751 L24.9097113,40.0012746 L24.8131895,40.0027512 C24.4944072,39.9869724 24.2106469,39.7675338 24.1254895,39.4449739 L23.4064289,36.7230981 C23.0987304,36.7529666 22.7882162,36.7731102 22.4751915,36.7832205 L22.0038098,36.7908225 C21.5306217,36.7908225 21.0627384,36.7679009 20.6011907,36.7230981 L19.8821301,39.4449739 C19.8054885,39.7352778 19.5679784,39.9420535 19.2888505,39.9920083 L19.1944301,40.0027512 C19.1306736,40.005907 19.0655162,40.0009164 19.0002667,39.9869751 L17.5119447,39.6689783 C17.1216399,39.5855852 16.8650127,39.2111294 16.9280749,38.8170287 L17.374643,36.0275785 C16.6310513,35.7743617 15.9145162,35.4618229 15.2305653,35.0955402 L14.8241491,34.8693659 L13.0540216,37.0765807 C12.8031384,37.3895396 12.3504251,37.4497084 12.0265065,37.2131446 L10.7935474,36.3126916 C10.4719318,36.0778097 10.3899767,35.6325165 10.6068917,35.2985195 L12.1663582,32.8970706 C11.6016607,32.3685219 11.0788377,31.7950435 10.6034705,31.1822679 L10.3239895,30.809932 L7.7735174,32.1232374 C7.70871821,32.1566231 7.64122846,32.1796697 7.57296846,32.1929435 L7.47024083,32.2055956 C7.19604022,32.2201666 6.92487843,32.0829061 6.77965682,31.8300675 L6.01600464,30.5005087 C5.8176182,30.1551074 5.92383867,29.7148768 6.25790622,29.497948 L8.69024673,27.9180301 C8.3340484,27.0762544 8.05394518,26.1938439 7.85866082,25.2796024 L4.95116524,25.4397573 C4.55187707,25.4617585 4.20555509,25.1666143 4.16396858,24.7688887 L4.00411868,23.2401139 C3.962597,22.8430083 4.2394645,22.4829888 4.63391938,22.4211643 L7.53532998,21.9661972 C7.54910273,21.0316528 7.64986424,20.1183792 7.82980668,19.2342559 L5.07579589,18.1788735 C4.70346818,18.0362377 4.50782384,17.6272158 4.63045661,17.2478294 L5.10280763,15.7865268 C5.19238931,15.5093898 5.42882857,15.3189966 5.69978665,15.2761829 L5.80279459,15.2671644 C5.87225271,15.2659224 5.94299062,15.2743793 6.01325301,15.2934858 L8.8617278,16.0681476 C9.24466178,15.2319959 9.70364213,14.4385809 10.2297153,13.6969385 L8.12885645,11.5959493 C7.84737002,11.3143556 7.83498133,10.8618847 8.10063748,10.5653103 L9.12152918,9.42560232 C9.24318635,9.28978611 9.40363064,9.20841169 9.57162501,9.18390034 L9.67307774,9.17603647 C9.84284266,9.17436719 10.0139103,9.23004523 10.1550435,9.34549185 L12.4491445,11.22062 C13.1295229,10.6164513 13.8665779,10.0757467 14.6512232,9.60767642 L13.5834649,6.83204803 C13.4403763,6.46002483 13.61328,6.04106422 13.9770984,5.87823993 L15.3680279,5.2557396 C15.4345465,5.22596968 15.5031835,5.20666591 15.5720537,5.197158 L15.6752982,5.19015924 C15.9498266,5.19064073 16.2130042,5.34249353 16.3441781,5.6028184 L17.6783358,8.24829553 C18.6430911,7.9437138 19.6512821,7.73832372 20.6911825,7.64395943 L20.8379119,4.71273996 C20.8577705,4.31350314 21.1872554,4 21.5869858,4 L23.1082078,4 C23.5079382,4 23.8374231,4.31350314 23.8572817,4.71273996 L23.971,7 L24,7 L23.999,7.562 L24.0079861,7.72362164 C24.8044126,7.83498271 25.5801212,8.01175831 26.3296136,8.24839965 L27.6634416,5.6028184 C27.7782187,5.37503414 27.9940612,5.2302988 28.230141,5.19735154 L28.3323214,5.19015924 C28.4352695,5.18997868 28.5398138,5.21108472 28.6395918,5.2557396 L30.0305212,5.87823993 C30.3943397,6.04106422 30.5672433,6.46002483 30.4241547,6.83204803 L29.3569244,9.60799141 C30.1413724,10.0759893 30.8782494,10.6165868 31.5584751,11.22062 L33.8525761,9.34549185 C33.9654827,9.25313456 34.0975473,9.19902915 34.2327765,9.18193595 L34.3345419,9.17603647 C34.5382598,9.1780396 34.7401018,9.26262286 34.8860904,9.42560232 L35.9069821,10.5653103 C36.1726383,10.8618847 36.1602496,11.3143556 35.8787632,11.5959493 L33.7779043,13.6969385 C34.3039775,14.4385809 34.7629578,15.2319959 35.1458918,16.0681476 L37.9943666,15.2934858 L38.0998974,15.2726944 L38.204825,15.2671644 C38.5173866,15.2727536 38.8040326,15.4747476 38.904812,15.7865268 L39.377163,17.2478294 C39.4997958,17.6272158 39.3041514,18.0362377 38.9318237,18.1788735 L36.17761,19.2332588 C36.371879,20.1874346 36.4739212,21.1755682 36.4739212,22.1877541 L36.471,21.966 L39.3737002,22.4211643 C39.7681551,22.4829888 40.0450226,22.8430083 40.0035009,23.2401139 L39.843651,24.7688887 C39.8055301,25.1334705 39.5113467,25.4118555 39.1550273,25.4387746 L39.0564544,25.4397573 L36.1489588,25.2796024 C35.9536744,26.1938439 35.6735712,27.0762544 35.3173729,27.9180301 L37.7497134,29.497948 C38.0837809,29.7148768 38.1900014,30.1551074 37.991615,30.5005087 L37.2279628,31.8300675 C37.1008939,32.0513012 36.877402,32.1840455 36.6398215,32.2040134 L36.5373788,32.2055956 C36.4345536,32.2001314 36.331301,32.173316 36.2341022,32.1232374 L33.6836302,30.809932 C33.1362707,31.5638074 32.5189763,32.262724 31.8413896,32.8969506 Z M22.87,5 L21.824,5 L21.6465109,8.56137826 L20.7815548,8.63986749 C19.9836695,8.71227046 19.1993619,8.85549688 18.4353298,9.06689907 L17.9793972,9.20190028 L17.1684069,9.45793704 L15.559,6.265 L14.601,6.693 L15.8870117,10.034895 L15.1635308,10.4664784 C14.5808911,10.8140449 14.02496,11.2055305 13.5005012,11.6371667 L13.1131325,11.9683632 L12.4760073,12.5341236 L9.706,10.27 L9.003,11.056 L11.5338236,13.5868703 L11.0453541,14.2755 C10.6513823,14.8309097 10.2993568,15.4152753 9.99252056,16.0237397 L9.77091705,16.4845307 L9.41775121,17.2556826 L5.981,16.321 L5.654,17.33 L8.97866249,18.6036033 L8.8097172,19.4336935 C8.67416387,20.0997168 8.58795955,20.7779322 8.55238716,21.4645006 L8.5352214,21.980933 L8.5228031,22.8235725 L5.023,23.372 L5.133,24.428 L8.6578893,24.2340622 L8.83659989,25.0707121 C8.98097398,25.7466125 9.17600395,26.4080237 9.41950729,27.0502924 L9.61118945,27.5283321 L9.93778009,28.3001382 L7.001,30.207 L7.527,31.125 L10.6290552,29.5280571 L11.1331918,30.2224018 C11.540754,30.7837352 11.9902969,31.3128679 12.477405,31.8049465 L12.8497106,32.1669819 L13.4611664,32.7392956 L11.574,35.644 L12.422,36.264 L14.581141,33.5739983 L15.3244691,34.0035253 C15.9275428,34.3520073 16.5564389,34.6527848 17.2060165,34.9029094 L17.6969971,35.0809593 L18.4953968,35.3528399 L17.953,38.741 L18.976,38.959 L19.8515286,35.6456273 L20.6978076,35.7277764 C21.1298033,35.7697107 21.5654512,35.7908225 22.0038098,35.7908225 C22.2960489,35.7908225 22.5870832,35.7814394 22.8766338,35.7627591 L23.309812,35.7277764 L24.1560911,35.6456273 L25.031,38.959 L26.055,38.74 L25.5135323,35.35246 L26.3115531,35.0806424 C26.9709253,34.8560506 27.6109106,34.5801024 28.226373,34.2557438 L28.6832914,34.0034439 L29.4266695,33.573876 L31.583,36.264 L32.433,35.644 L30.5466245,32.7391491 L31.1580284,32.1668701 C31.6636057,31.6936457 32.1327258,31.182159 32.5609741,30.6372626 L32.8744279,30.2224018 L33.3785645,29.5280571 L36.479,31.124 L37.006,30.207 L34.0698395,28.3001382 L34.3964302,27.5283321 C34.6640338,26.8959254 34.8837097,26.243213 35.0532753,25.574848 L35.1710197,25.0707121 L35.3497303,24.2340622 L38.874,24.428 L38.983,23.372 L36.3160858,22.9539279 L36.435,22.194 L35.474008,22.2009262 L35.474,22.187 C35.4739212,21.4092684 35.409267,20.6396179 35.2817516,19.8842372 L35.1977133,19.4327646 L35.0286401,18.6023411 L38.352,17.33 L38.026,16.321 L34.5898684,17.2556826 L34.2367026,16.4845307 C33.9526637,15.8643204 33.6226247,15.2669947 33.2498287,14.6974106 L32.9622655,14.2755 L32.473796,13.5868703 L35.004,11.055 L34.3,10.27 L31.5316123,12.5341236 L30.8944871,11.9683632 C30.3861767,11.516989 29.8452177,11.1048054 29.2763704,10.7355785 L28.8445802,10.4667716 L28.1212986,10.0352652 L29.405,6.693 L28.449,6.265 L26.8396277,9.45808971 L26.0285291,9.2019971 C25.4664866,9.02454037 24.8923174,8.88445918 24.308828,8.78290801 L23.8695073,8.71398705 L23.0551743,8.60012219 L23.021,8 L22.87,5 Z"/>
    <mask id="preferences-system-p" fill="#fff">
      <use xlink:href="#preferences-system-m"/>
    </mask>
    <use fill="#000" filter="url(#preferences-system-n)" xlink:href="#preferences-system-m"/>
    <circle cx="22" cy="22" r="2.5" fill="#DCDCDC" stroke="url(#preferences-system-o)"/>
    <g fill="#000" fill-opacity=".1" mask="url(#preferences-system-p)">
      <g transform="rotate(-105 19.809 4.872)">
        <polygon points="2.67 .375 3.795 2.625 1.545 2.625" transform="matrix(1 0 0 -1 0 3)"/>
        <polygon points="2.379 .413 3.504 2.663 1.254 2.663" transform="scale(1 -1) rotate(15 14.064 0)"/>
        <polygon points="2.108 .526 3.233 2.776 .983 2.776" transform="scale(1 -1) rotate(30 8.269 0)"/>
        <polygon points="1.875 .705 3 2.955 .75 2.955" transform="scale(1 -1) rotate(45 6.292 0)"/>
      </g>
    </g>
    <g fill="#000" fill-opacity=".1" mask="url(#preferences-system-p)">
      <g transform="rotate(74 -.488 25.191)">
        <polygon points="2.67 .375 3.795 2.625 1.545 2.625" transform="matrix(1 0 0 -1 0 3)"/>
        <polygon points="2.379 .413 3.504 2.663 1.254 2.663" transform="scale(1 -1) rotate(15 14.064 0)"/>
        <polygon points="2.108 .526 3.233 2.776 .983 2.776" transform="scale(1 -1) rotate(30 8.269 0)"/>
        <polygon points="1.875 .705 3 2.955 .75 2.955" transform="scale(1 -1) rotate(45 6.292 0)"/>
      </g>
    </g>
    <path stroke="url(#preferences-system-q)" d="M22.2,18.5 C23.0585034,18.5 23.8879041,18.8881566 24.4998737,19.5001263 C25.1118434,20.1120959 25.5,20.9414966 25.5,21.8 C25.5,22.8366927 25.130824,23.731448 24.5644323,24.3787528 C23.9440104,25.0878064 23.0872954,25.5 22.2,25.5 C21.1265061,25.5 20.2054553,25.1052027 19.5501263,24.4498737 C18.8947973,23.7945447 18.5,22.8734939 18.5,21.8 C18.5,20.9127046 18.9121936,20.0559896 19.6212472,19.4355677 C20.268552,18.869176 21.1633073,18.5 22.2,18.5 Z"/>
    <use fill="#878787" xlink:href="#preferences-system-r"/>
    <use fill="#000" filter="url(#preferences-system-s)" xlink:href="#preferences-system-r"/>
  </g>
</svg>
