<svg xmlns="http://www.w3.org/2000/svg" xmlns:xlink="http://www.w3.org/1999/xlink" width="48" height="48" viewBox="0 0 48 48">
  <defs>
    <filter id="uos-installtool-a" width="127.9%" height="130.2%" x="-13.9%" y="-15.1%" filterUnits="objectBoundingBox">
      <feOffset dy="1" in="SourceAlpha" result="shadowOffsetOuter1"/>
      <feGaussianBlur in="shadowOffsetOuter1" result="shadowBlurOuter1" stdDeviation="1"/>
      <feColorMatrix in="shadowBlurOuter1" result="shadowMatrixOuter1" values="0 0 0 0 0   0 0 0 0 0   0 0 0 0 0  0 0 0 0.2 0"/>
      <feMerge>
        <feMergeNode in="shadowMatrixOuter1"/>
        <feMergeNode in="SourceGraphic"/>
      </feMerge>
    </filter>
    <linearGradient id="uos-installtool-b" x1="47.674%" x2="47.674%" y1="-11.89%" y2="207.666%">
      <stop offset="0%" stop-color="#767676"/>
      <stop offset="100%" stop-color="#A9A9A9"/>
    </linearGradient>
    <linearGradient id="uos-installtool-c" x1="52.326%" x2="52.326%" y1="-.266%" y2="108.319%">
      <stop offset="0%" stop-color="#848382"/>
      <stop offset="100%" stop-color="#BABABA"/>
    </linearGradient>
    <path id="uos-installtool-d" d="M27.8152918,1.64773272 C19.3352396,-0.832270176 10.4521847,4.02973551 7.97116944,12.5097454 C5.49115415,20.9887554 10.3541841,29.8727656 18.8342364,32.3527686 C27.3122887,34.8327715 36.1973434,29.9707658 38.6763588,21.4917559 C41.156374,13.010746 36.2933441,4.12773562 27.8152918,1.64773272 L27.8152918,1.64773272 Z"/>
    <filter id="uos-installtool-e" width="103.1%" height="103.1%" x="-1.6%" y="-1.6%" filterUnits="objectBoundingBox">
      <feOffset dy="1" in="SourceAlpha" result="shadowOffsetInner1"/>
      <feComposite in="shadowOffsetInner1" in2="SourceAlpha" k2="-1" k3="1" operator="arithmetic" result="shadowInnerInner1"/>
      <feColorMatrix in="shadowInnerInner1" values="0 0 0 0 1   0 0 0 0 1   0 0 0 0 1  0 0 0 1 0"/>
    </filter>
    <linearGradient id="uos-installtool-f" x1="50%" x2="50%" y1="-1.194%" y2="50%">
      <stop offset="0%" stop-opacity=".15"/>
      <stop offset="100%" stop-opacity=".503"/>
    </linearGradient>
    <linearGradient id="uos-installtool-g" x1="34.316%" x2="58.855%" y1="8.679%" y2="74.059%">
      <stop offset="0%" stop-color="#76E3DC"/>
      <stop offset="12.053%" stop-color="#50DDD8"/>
      <stop offset="100%" stop-color="#3972B9"/>
    </linearGradient>
    <linearGradient id="uos-installtool-h" x1="50%" x2="50%" y1="0%" y2="58.863%">
      <stop offset="0%" stop-opacity=".101"/>
      <stop offset="100%" stop-opacity=".4"/>
    </linearGradient>
    <linearGradient id="uos-installtool-k" x1="50%" x2="50%" y1="25.076%" y2="100%">
      <stop offset="0%" stop-color="#FFF"/>
      <stop offset="100%" stop-color="#FFF" stop-opacity=".558"/>
    </linearGradient>
    <path id="uos-installtool-j" d="M19.3237696,7.00025342 C19.8760544,7.00025342 20.3237696,7.44796867 20.3237696,8.00025342 L20.3237696,13.5315034 C20.3237696,15.1883577 21.6669154,16.5315034 23.3237696,16.5315034 C24.9806239,16.5315034 26.3237696,15.1883577 26.3237696,13.5315034 L26.3237696,8.00025342 C26.3237696,7.44796867 26.7714849,7.00025342 27.3237696,7.00025342 C27.8760544,7.00025342 28.3237696,7.44796867 28.3237696,8.00025342 L28.3237696,13.5002534 C28.3237696,16.2616772 26.0851934,18.5002534 23.3237696,18.5002534 C20.5623459,18.5002534 18.3237696,16.2616772 18.3237696,13.5002534 L18.3237696,8.00025342 C18.3237696,7.44796867 18.7714849,7.00025342 19.3237696,7.00025342 Z"/>
    <filter id="uos-installtool-i" width="200%" height="187%" x="-50%" y="-34.8%" filterUnits="objectBoundingBox">
      <feOffset dy="1" in="SourceAlpha" result="shadowOffsetOuter1"/>
      <feGaussianBlur in="shadowOffsetOuter1" result="shadowBlurOuter1" stdDeviation="1.5"/>
      <feColorMatrix in="shadowBlurOuter1" values="0 0 0 0 0.121292169   0 0 0 0 0.290439071   0 0 0 0 0.413043478  0 0 0 0.1 0"/>
    </filter>
    <linearGradient id="uos-installtool-l" x1="12.793%" x2="12.793%" y1="-14.386%" y2="100%">
      <stop offset="0%" stop-color="#F8F8F8"/>
      <stop offset="100%" stop-color="#DCDCDC"/>
    </linearGradient>
    <linearGradient id="uos-installtool-m" x1="50%" x2="50%" y1="2.049%" y2="93.25%">
      <stop offset="0%" stop-color="#8092A3"/>
      <stop offset="100%" stop-color="#3D5C71"/>
    </linearGradient>
    <path id="uos-installtool-n" d="M21.0737696,27.0002534 L25.5737696,27.0002534 C25.9879832,27.0002534 26.3237696,27.3360399 26.3237696,27.7502534 L26.3237696,32.0002534 L26.3237696,32.0002534 L28.5150265,32.0002534 C28.9292401,32.0002534 29.2650265,32.3360399 29.2650265,32.7502534 C29.2650265,32.9489711 29.1861631,33.1395661 29.0457538,33.280186 L24.2616344,38.0714806 C23.7494565,38.5844287 22.9184277,38.5850514 22.4054806,38.0728725 C22.4054803,38.0728722 22.4054799,38.0728718 22.4054806,38.0728704 L17.6064143,33.2809802 C17.313302,32.9883062 17.3129467,32.5134326 17.6056207,32.2203203 C17.7463051,32.0794252 17.9372406,32.0002534 18.1363475,32.0002534 L20.3237696,32.0002534 L20.3237696,32.0002534 L20.3237696,27.7502534 C20.3237696,27.3360399 20.6595561,27.0002534 21.0737696,27.0002534 Z"/>
    <filter id="uos-installtool-o" width="106.3%" height="120.5%" x="-3.1%" y="-12.5%" filterUnits="objectBoundingBox">
      <feGaussianBlur in="SourceAlpha" result="shadowBlurInner1" stdDeviation="1"/>
      <feOffset dy="1" in="shadowBlurInner1" result="shadowOffsetInner1"/>
      <feComposite in="shadowOffsetInner1" in2="SourceAlpha" k2="-1" k3="1" operator="arithmetic" result="shadowInnerInner1"/>
      <feColorMatrix in="shadowInnerInner1" values="0 0 0 0 0   0 0 0 0 0   0 0 0 0 0  0 0 0 0.078032807 0"/>
    </filter>
    <linearGradient id="uos-installtool-p" x1="50%" x2="50%" y1="1.155%" y2="100%">
      <stop offset="0%" stop-opacity=".098"/>
      <stop offset="100%" stop-opacity=".203"/>
    </linearGradient>
    <linearGradient id="uos-installtool-q" x1="59.071%" x2="59.071%" y1="100%" y2="0%">
      <stop offset="0%" stop-opacity=".3"/>
      <stop offset="100%" stop-opacity=".095"/>
    </linearGradient>
    <linearGradient id="uos-installtool-r" x1="22.658%" x2="22.658%" y1="-36.328%" y2="100%">
      <stop offset="0%" stop-color="#F8F8F8"/>
      <stop offset="100%" stop-color="#DCDCDC"/>
    </linearGradient>
    <path id="uos-installtool-s" d="M4.09777142,16.0002534 L42.5497679,16.0002534 C42.8576689,16.0002534 43.1342901,16.1884378 43.2473631,16.4748249 L45.6213369,22.4875392 C45.6973944,22.6801748 45.6028891,22.8979936 45.4102535,22.9740511 C45.3664039,22.991364 45.319683,23.0002534 45.2725393,23.0002534 L1.375,23.0002534 C1.16789322,23.0002534 1,22.8323602 1,22.6252534 C1,22.5781097 1.00888942,22.5313888 1.02620237,22.4875392 L3.40017616,16.4748249 C3.51324914,16.1884378 3.78987034,16.0002534 4.09777142,16.0002534 Z"/>
    <filter id="uos-installtool-t" width="101.4%" height="114.3%" x="-.7%" y="-7.1%" filterUnits="objectBoundingBox">
      <feOffset dx="1" dy="1" in="SourceAlpha" result="shadowOffsetInner1"/>
      <feComposite in="shadowOffsetInner1" in2="SourceAlpha" k2="-1" k3="1" operator="arithmetic" result="shadowInnerInner1"/>
      <feColorMatrix in="shadowInnerInner1" values="0 0 0 0 1   0 0 0 0 1   0 0 0 0 1  0 0 0 1 0"/>
    </filter>
    <linearGradient id="uos-installtool-u" x1="54.661%" x2="54.661%" y1="100%" y2="-9.128%">
      <stop offset="0%" stop-opacity=".403"/>
      <stop offset="100%" stop-opacity=".087"/>
    </linearGradient>
  </defs>
  <g fill="none" filter="url(#uos-installtool-a)" transform="translate(.676 2)">
    <path fill="url(#uos-installtool-b)" d="M7.89574664,12.0002534 L38.7517926,12.0002534 C39.1937539,12.0002534 39.6132219,12.1951598 39.8982299,12.532947 L42.8237696,16.0002534 L42.8237696,16.0002534 L39.9314357,16.0002534 L3.82376964,16.0002534 L6.74930942,12.532947 C7.0343174,12.1951598 7.45378537,12.0002534 7.89574664,12.0002534 Z"/>
    <path fill="url(#uos-installtool-c)" d="M38.7517926,11.0002534 L7.89574664,11.0002534 C7.15914451,11.0002534 6.46003124,11.3250973 5.98501794,11.8880761 L3.05947815,15.3553825 C2.5108842,16.0055679 2.97306615,17.0002534 3.82376964,17.0002534 L42.8237696,17.0002534 C43.6744731,17.0002534 44.1366551,16.0055679 43.5880611,15.3553825 L40.6625213,11.8880761 C40.187508,11.3250973 39.4883948,11.0002534 38.7517926,11.0002534 Z M38.7517926,12.0002534 C39.1937539,12.0002534 39.6132219,12.1951598 39.8982299,12.532947 L42.8237696,16.0002534 L3.82376964,16.0002534 L6.74930942,12.532947 C7.0343174,12.1951598 7.45378537,12.0002534 7.89574664,12.0002534 L38.7517926,12.0002534 Z"/>
    <use fill="#EEE" xlink:href="#uos-installtool-d"/>
    <use fill="#000" filter="url(#uos-installtool-e)" xlink:href="#uos-installtool-d"/>
    <path fill="url(#uos-installtool-f)" d="M7.01138181,12.2290183 C4.3762578,21.2383348 9.54361334,30.6775997 18.5535424,33.3125659 C27.5621972,35.9477809 37.0023206,30.7809929 39.6361769,21.7723788 C42.2710309,12.7618604 37.1046354,3.32314883 28.0960469,0.687953258 C19.1905539,-1.91647037 9.86689429,3.09993491 7.10610652,11.9162103 L7.01138181,12.2290183 Z M7.97116944,12.5097454 C10.4521847,4.02973551 19.3352396,-0.832270176 27.8152918,1.64773272 C36.2933441,4.12773562 41.156374,13.010746 38.6763588,21.4917559 C36.1973434,29.9707658 27.3122887,34.8327715 18.8342364,32.3527686 C10.3541841,29.8727656 5.49115415,20.9887554 7.97116944,12.5097454 Z"/>
    <circle cx="23.324" cy="17" r="14" fill="url(#uos-installtool-g)"/>
    <path fill="url(#uos-installtool-h)" d="M23.3237696,3.00025342 C31.0557561,3.00025342 37.3237696,9.26826693 37.3237696,17.0002534 C37.3237696,24.7322399 31.0557561,31.0002534 23.3237696,31.0002534 C15.5917831,31.0002534 9.32376964,24.7322399 9.32376964,17.0002534 C9.32376964,9.26826693 15.5917831,3.00025342 23.3237696,3.00025342 Z M23.3237696,4.00025342 C16.1440679,4.00025342 10.3237696,9.82055168 10.3237696,17.0002534 C10.3237696,24.1799552 16.1440679,30.0002534 23.3237696,30.0002534 C30.5034714,30.0002534 36.3237696,24.1799552 36.3237696,17.0002534 C36.3237696,9.82055168 30.5034714,4.00025342 23.3237696,4.00025342 Z"/>
    <use fill="#000" filter="url(#uos-installtool-i)" xlink:href="#uos-installtool-j"/>
    <use fill="url(#uos-installtool-k)" xlink:href="#uos-installtool-j"/>
    <path fill="url(#uos-installtool-l)" d="M4.32376964,16.0002534 L42.3237696,16.0002534 L42.3237696,40.5002534 C42.3237696,41.3286805 41.6521968,42.0002534 40.8237696,42.0002534 L5.82376964,42.0002534 C4.99534251,42.0002534 4.32376964,41.3286805 4.32376964,40.5002534 L4.32376964,16.0002534 L4.32376964,16.0002534 Z"/>
    <use fill="url(#uos-installtool-m)" xlink:href="#uos-installtool-n"/>
    <use fill="#000" filter="url(#uos-installtool-o)" xlink:href="#uos-installtool-n"/>
    <path fill="url(#uos-installtool-p)" d="M25.5737696,27.0002534 C25.9879832,27.0002534 26.3237696,27.3360399 26.3237696,27.7502534 L26.3237696,32.0002534 L28.5150265,32.0002534 C28.9292401,32.0002534 29.2650265,32.3360399 29.2650265,32.7502534 C29.2650265,32.9489711 29.1861631,33.1395661 29.0457538,33.280186 L24.2616344,38.0714806 C23.7836017,38.5502322 23.0278144,38.5826914 22.5121224,38.1684711 L22.4054806,38.0728704 L17.6064143,33.2809802 C17.313302,32.9883062 17.3129467,32.5134326 17.6056207,32.2203203 C17.7463051,32.0794252 17.9372406,32.0002534 18.1363475,32.0002534 L20.3237696,32.0002534 L20.3237696,27.7502534 C20.3237696,27.3360399 20.6595561,27.0002534 21.0737696,27.0002534 L25.5737696,27.0002534 Z M25.323,28 L21.323,28 L21.3237696,33.0002534 L18.739,33 L23.0729899,37.328269 L23.1383527,37.3888329 C23.2404447,37.4708365 23.3826591,37.4780347 23.4925337,37.4127523 L23.5539979,37.3649039 L27.912,33 L25.3237696,33.0002534 L25.323,28 Z"/>
    <path fill="url(#uos-installtool-q)" d="M42.3237696,15.0002534 L4.32376964,15.0002534 C3.77148489,15.0002534 3.32376964,15.4479687 3.32376964,16.0002534 L3.32376964,40.5002534 C3.32376964,41.8809653 4.44305776,43.0002534 5.82376964,43.0002534 L40.8237696,43.0002534 C42.2044815,43.0002534 43.3237696,41.8809653 43.3237696,40.5002534 L43.3237696,16.0002534 C43.3237696,15.4479687 42.8760544,15.0002534 42.3237696,15.0002534 Z M42.3237696,16.0002534 L42.3237696,40.5002534 C42.3237696,41.3286805 41.6521968,42.0002534 40.8237696,42.0002534 L5.82376964,42.0002534 C4.99534251,42.0002534 4.32376964,41.3286805 4.32376964,40.5002534 L4.32376964,16.0002534 L42.3237696,16.0002534 Z"/>
    <use fill="url(#uos-installtool-r)" xlink:href="#uos-installtool-s"/>
    <use fill="#000" filter="url(#uos-installtool-t)" xlink:href="#uos-installtool-s"/>
    <path fill="url(#uos-installtool-u)" d="M42.5497679,15.0002534 L4.09777142,15.0002534 C3.37933557,15.0002534 2.7338861,15.4393503 2.47004916,16.1075869 L0.0960753626,22.1203012 C0.0325945345,22.2810831 0,22.4523932 0,22.6252534 C0,23.384645 0.615608469,24.0002534 1.375,24.0002534 L45.2725393,24.0002534 C45.4453995,24.0002534 45.6167096,23.9676589 45.7774915,23.9041781 C46.4838221,23.6253006 46.8303413,22.8266317 46.5514639,22.1203012 L44.1774901,16.1075869 C43.9136532,15.4393503 43.2682037,15.0002534 42.5497679,15.0002534 Z M42.5497679,16.0002534 C42.8576689,16.0002534 43.1342901,16.1884378 43.2473631,16.4748249 L45.6213369,22.4875392 C45.6973944,22.6801748 45.6028891,22.8979936 45.4102535,22.9740511 C45.3664039,22.991364 45.319683,23.0002534 45.2725393,23.0002534 L1.375,23.0002534 C1.16789322,23.0002534 1,22.8323602 1,22.6252534 C1,22.5781097 1.00888942,22.5313888 1.02620237,22.4875392 L3.40017616,16.4748249 C3.51324914,16.1884378 3.78987034,16.0002534 4.09777142,16.0002534 L42.5497679,16.0002534 Z"/>
  </g>
</svg>
