<svg xmlns="http://www.w3.org/2000/svg" xmlns:xlink="http://www.w3.org/1999/xlink" width="48" height="48" viewBox="0 0 48 48">
  <defs>
    <filter id="uos-service-support-a" width="147.1%" height="141.7%" x="-25%" y="-20.8%" filterUnits="objectBoundingBox">
      <feOffset dy="1" in="SourceAlpha" result="shadowOffsetOuter1"/>
      <feGaussianBlur in="shadowOffsetOuter1" result="shadowBlurOuter1" stdDeviation="1"/>
      <feColorMatrix in="shadowBlurOuter1" result="shadowMatrixOuter1" values="0 0 0 0 0   0 0 0 0 0   0 0 0 0 0  0 0 0 0.2 0"/>
      <feMerge>
        <feMergeNode in="shadowMatrixOuter1"/>
        <feMergeNode in="SourceGraphic"/>
      </feMerge>
    </filter>
    <radialGradient id="uos-service-support-b" cx="50%" cy="-3.497%" r="99.993%" fx="50%" fy="-3.497%" gradientTransform="matrix(0 .98244 -1.04 0 .464 -.526)">
      <stop offset="0%" stop-color="#DE7F56"/>
      <stop offset="100%" stop-color="#A83733"/>
    </radialGradient>
    <linearGradient id="uos-service-support-e" x1="50%" x2="50%" y1="2.427%" y2="100%">
      <stop offset="0%" stop-color="#BB726A"/>
      <stop offset="100%" stop-color="#600707"/>
    </linearGradient>
    <path id="uos-service-support-c" d="M17.125,0.75 C26.5138407,0.75 34.125,8.36115925 34.125,17.75 C34.125,27.1388407 26.5138407,34.75 17.125,34.75 C14.9855125,34.75 12.9383352,34.3547732 11.0524954,33.633347 L4.30727077,35.3532065 L6.6460155,31.1371611 C2.67597381,28.0251898 0.125,23.1855008 0.125,17.75 C0.125,8.36115925 7.73615925,0.75 17.125,0.75 Z"/>
    <filter id="uos-service-support-d" width="109.6%" height="109.5%" x="-4.1%" y="-5.1%" filterUnits="objectBoundingBox">
      <feOffset dy="-1" in="SourceAlpha" result="shadowOffsetInner1"/>
      <feComposite in="shadowOffsetInner1" in2="SourceAlpha" k2="-1" k3="1" operator="arithmetic" result="shadowInnerInner1"/>
      <feColorMatrix in="shadowInnerInner1" result="shadowMatrixInner1" values="0 0 0 0 0   0 0 0 0 0   0 0 0 0 0  0 0 0 0.138057255 0"/>
      <feOffset dy="1" in="SourceAlpha" result="shadowOffsetInner2"/>
      <feComposite in="shadowOffsetInner2" in2="SourceAlpha" k2="-1" k3="1" operator="arithmetic" result="shadowInnerInner2"/>
      <feColorMatrix in="shadowInnerInner2" result="shadowMatrixInner2" values="0 0 0 0 1   0 0 0 0 1   0 0 0 0 1  0 0 0 0.379124781 0"/>
      <feMerge>
        <feMergeNode in="shadowMatrixInner1"/>
        <feMergeNode in="shadowMatrixInner2"/>
      </feMerge>
    </filter>
    <linearGradient id="uos-service-support-h" x1="50%" x2="50%" y1="0%" y2="96.905%">
      <stop offset="0%" stop-color="#FFF"/>
      <stop offset="100%" stop-color="#FFF" stop-opacity=".748"/>
    </linearGradient>
    <path id="uos-service-support-g" d="M19.3005,22.75 L19.3005,22.293 C19.3005,21.698 19.428,21.1455 19.683,20.6355 C19.921,20.1425 20.261,19.7175 20.703,19.3605 C21.893,18.3235 22.624,17.652 22.896,17.346 C23.525,16.513 23.8395,15.4675 23.8395,14.2095 C23.8395,12.6455 23.3295,11.4215 22.3095,10.5375 C21.3065,9.6365 19.9635,9.186 18.2805,9.186 C16.4105,9.186 14.923,9.7215 13.818,10.7925 C12.713,11.8465 12.1605,13.846 12.1605,15.75 L15.0675,15.75 C15.0675,14.662 15.28,13.3085 15.705,12.7305 C16.181,12.0335 16.98,11.685 18.102,11.685 C18.986,11.685 19.666,11.923 20.142,12.399 C20.618,12.909 20.856,13.572 20.856,14.388 C20.856,15.034 20.6265,15.6375 20.1675,16.1985 L19.8615,16.5555 C18.1955,18.0345 17.201,19.114 16.878,19.794 C16.538,20.457 16.368,21.29 16.368,22.293 L16.368,22.75 L19.3005,22.75 Z M17.8215,27.75 C18.3825,27.75 18.85,27.5715 19.224,27.2145 C19.615,26.8575 19.8105,26.39 19.8105,25.812 C19.8105,25.268 19.6235,24.809 19.2495,24.435 C18.8755,24.078 18.3995,23.8995 17.8215,23.8995 C17.2775,23.8995 16.81,24.078 16.419,24.435 C16.045,24.792 15.858,25.251 15.858,25.812 C15.858,26.373 16.045,26.832 16.419,27.189 C16.827,27.563 17.2945,27.75 17.8215,27.75 Z"/>
    <filter id="uos-service-support-f" width="108.6%" height="110.8%" x="-4.3%" y="-2.7%" filterUnits="objectBoundingBox">
      <feOffset dy="1" in="SourceAlpha" result="shadowOffsetOuter1"/>
      <feColorMatrix in="shadowOffsetOuter1" values="0 0 0 0 0.510416667   0 0 0 0 0.100468829   0 0 0 0 0.100468829  0 0 0 0.221809441 0"/>
    </filter>
    <filter id="uos-service-support-i" width="166.7%" height="166.7%" x="-31.2%" y="-31.2%" filterUnits="objectBoundingBox">
      <feOffset dy="1" in="SourceAlpha" result="shadowOffsetOuter1"/>
      <feGaussianBlur in="shadowOffsetOuter1" result="shadowBlurOuter1" stdDeviation="1"/>
      <feColorMatrix in="shadowBlurOuter1" result="shadowMatrixOuter1" values="0 0 0 0 0   0 0 0 0 0   0 0 0 0 0  0 0 0 0.2 0"/>
      <feMerge>
        <feMergeNode in="shadowMatrixOuter1"/>
        <feMergeNode in="SourceGraphic"/>
      </feMerge>
    </filter>
    <radialGradient id="uos-service-support-j" cx="50%" cy="10.248%" r="105.558%" fx="50%" fy="10.248%">
      <stop offset="0%" stop-color="#7EC386"/>
      <stop offset="100%" stop-color="#45704A"/>
    </radialGradient>
    <linearGradient id="uos-service-support-m" x1="59.639%" x2="59.639%" y1="104.678%" y2="6.469%">
      <stop offset="0%" stop-color="#0F4116"/>
      <stop offset="100%" stop-color="#366D3A"/>
    </linearGradient>
    <path id="uos-service-support-k" d="M11.875,0.25 C18.502417,0.25 23.875,5.622583 23.875,12.25 C23.875,15.0782491 22.8965698,17.6779735 21.2597315,19.7291513 L23.8502674,23.2727273 L18.2877225,22.3946546 C16.4327308,23.5697059 14.233311,24.25 11.875,24.25 C5.247583,24.25 -0.125,18.877417 -0.125,12.25 C-0.125,5.622583 5.247583,0.25 11.875,0.25 Z"/>
    <filter id="uos-service-support-l" width="112.5%" height="112.5%" x="-6.8%" y="-5.2%" filterUnits="objectBoundingBox">
      <feOffset dy="1" in="SourceAlpha" result="shadowOffsetInner1"/>
      <feComposite in="shadowOffsetInner1" in2="SourceAlpha" k2="-1" k3="1" operator="arithmetic" result="shadowInnerInner1"/>
      <feColorMatrix in="shadowInnerInner1" result="shadowMatrixInner1" values="0 0 0 0 1   0 0 0 0 1   0 0 0 0 1  0 0 0 0.5 0"/>
      <feOffset dy="-1" in="SourceAlpha" result="shadowOffsetInner2"/>
      <feComposite in="shadowOffsetInner2" in2="SourceAlpha" k2="-1" k3="1" operator="arithmetic" result="shadowInnerInner2"/>
      <feColorMatrix in="shadowInnerInner2" result="shadowMatrixInner2" values="0 0 0 0 0   0 0 0 0 0   0 0 0 0 0  0 0 0 0.160893794 0"/>
      <feMerge>
        <feMergeNode in="shadowMatrixInner1"/>
        <feMergeNode in="shadowMatrixInner2"/>
      </feMerge>
    </filter>
    <linearGradient id="uos-service-support-p" x1="50%" x2="50%" y1="0%" y2="100%">
      <stop offset="0%" stop-color="#FFF"/>
      <stop offset="100%" stop-color="#FFF" stop-opacity=".6"/>
    </linearGradient>
    <path id="uos-service-support-o" d="M5.44947437,13.2101538 L9.27775577,15.4408627 C9.41079408,15.5183831 9.57769912,15.5067013 9.69864191,15.4114048 L18.7951981,8.24379618 C19.1486047,7.96533029 19.6569522,8.00650021 19.9609424,8.33820719 C20.2616937,8.66638006 20.248565,9.1737769 19.9312449,9.48595748 L10.0213226,19.2353709 C9.73059348,19.5213911 9.26459647,19.5226706 8.9723011,19.2382512 L4.09672878,14.4940522 C3.78617636,14.1918676 3.77939283,13.6951462 4.08157736,13.3845938 C4.09240879,13.3734624 4.10356837,13.3626551 4.11504134,13.3521862 C4.48099413,13.0182597 5.02143258,12.9607373 5.44947437,13.2101538 Z"/>
    <filter id="uos-service-support-n" width="101.9%" height="111.6%" x="-.8%" y="-1.6%" filterUnits="objectBoundingBox">
      <feOffset dy="1" in="SourceAlpha" result="shadowOffsetOuter1"/>
      <feColorMatrix in="shadowOffsetOuter1" values="0 0 0 0 0   0 0 0 0 0   0 0 0 0 0  0 0 0 0.144367351 0"/>
    </filter>
  </defs>
  <g fill="none" fill-rule="evenodd">
    <g fill-rule="nonzero" filter="url(#uos-service-support-a)" transform="translate(12.375 4.25)">
      <g stroke-linejoin="round" transform="matrix(-1 0 0 1 33.75 0)">
        <use fill="url(#uos-service-support-b)" xlink:href="#uos-service-support-c"/>
        <use fill="#000" filter="url(#uos-service-support-d)" xlink:href="#uos-service-support-c"/>
        <path stroke="url(#uos-service-support-e)" d="M17.125,0.25 C21.9574916,0.25 26.3324916,2.20875422 29.4993687,5.37563133 C32.6662458,8.54250844 34.625,12.9175084 34.625,17.75 C34.625,22.5824916 32.6662458,26.9574916 29.4993687,30.1243687 C26.3324916,33.2912458 21.9574916,35.25 17.125,35.25 C14.9789819,35.25 12.9232193,34.8635818 11.0233933,34.1567643 L11.0233933,34.1567643 L3.30790582,36.1240161 L6.00445065,31.2629658 C2.1086839,28.0533463 -0.375,23.1916932 -0.375,17.75 C-0.375,12.9175084 1.58375422,8.54250844 4.75063133,5.37563133 C7.91750844,2.20875422 12.2925084,0.25 17.125,0.25 Z"/>
      </g>
      <use fill="#000" filter="url(#uos-service-support-f)" xlink:href="#uos-service-support-g"/>
      <use fill="url(#uos-service-support-h)" xlink:href="#uos-service-support-g"/>
    </g>
    <g filter="url(#uos-service-support-i)" transform="translate(1.875 18.75)">
      <g stroke-linejoin="round" transform="matrix(-1 0 0 1 24 0)">
        <use fill="url(#uos-service-support-j)" xlink:href="#uos-service-support-k"/>
        <use fill="#000" filter="url(#uos-service-support-l)" xlink:href="#uos-service-support-k"/>
        <path stroke="url(#uos-service-support-m)" d="M11.875,-0.25 C15.3267797,-0.25 18.4517797,1.14911016 20.7138348,3.41116524 C22.9758898,5.67322031 24.375,8.79822031 24.375,12.25 C24.375,15.0584363 23.4487496,17.6505067 21.8852269,19.7375414 L21.8852269,19.7375414 L24.9687539,23.9554766 L18.3938408,22.9175971 C16.4958074,24.0798576 14.263679,24.75 11.875,24.75 C8.42322031,24.75 5.29822031,23.3508898 3.03616524,21.0888348 C0.774110157,18.8267797 -0.625,15.7017797 -0.625,12.25 C-0.625,8.79822031 0.774110157,5.67322031 3.03616524,3.41116524 C5.29822031,1.14911016 8.42322031,-0.25 11.875,-0.25 Z"/>
      </g>
      <g fill-rule="nonzero">
        <use fill="#000" filter="url(#uos-service-support-n)" xlink:href="#uos-service-support-o"/>
        <use fill="url(#uos-service-support-p)" xlink:href="#uos-service-support-o"/>
      </g>
    </g>
  </g>
</svg>
