<svg xmlns="http://www.w3.org/2000/svg" xmlns:xlink="http://www.w3.org/1999/xlink" width="48" height="48" viewBox="0 0 48 48">
  <defs>
    <filter id="uos-remote-assistance-a" width="131%" height="132.5%" x="-15.5%" y="-16.2%" filterUnits="objectBoundingBox">
      <feOffset dy="1" in="SourceAlpha" result="shadowOffsetOuter1"/>
      <feGaussianBlur in="shadowOffsetOuter1" result="shadowBlurOuter1" stdDeviation="1"/>
      <feColorMatrix in="shadowBlurOuter1" result="shadowMatrixOuter1" values="0 0 0 0 0   0 0 0 0 0   0 0 0 0 0  0 0 0 0.2 0"/>
      <feMerge>
        <feMergeNode in="shadowMatrixOuter1"/>
        <feMergeNode in="SourceGraphic"/>
      </feMerge>
    </filter>
    <linearGradient id="uos-remote-assistance-b" x1="50%" x2="50%" y1="38.833%" y2="60.331%">
      <stop offset="0%" stop-color="#F0F0F0"/>
      <stop offset="54.184%" stop-color="#BCBCBC"/>
      <stop offset="100%" stop-color="#DADADA"/>
    </linearGradient>
    <path id="uos-remote-assistance-c" d="M14,29 L14,34.9532874 C14,35.7410163 13.5076359,36.4447497 12.7676163,36.714727 L10.5991613,37.5058325 C10.239378,37.6370903 10,37.979232 10,38.3622106 C10,38.714452 10.285548,39 10.6377894,39 L31.3622106,39 C31.714452,39 32,38.714452 32,38.3622106 C32,37.979232 31.760622,37.6370903 31.4008387,37.5058325 L29.2323837,36.714727 C28.4923641,36.4447497 28,35.7410163 28,34.9532874 L28,29 L28,29 L14,29 Z"/>
    <filter id="uos-remote-assistance-d" width="104.5%" height="110%" x="-2.3%" y="-5%" filterUnits="objectBoundingBox">
      <feOffset dy="-1" in="SourceAlpha" result="shadowOffsetInner1"/>
      <feComposite in="shadowOffsetInner1" in2="SourceAlpha" k2="-1" k3="1" operator="arithmetic" result="shadowInnerInner1"/>
      <feColorMatrix in="shadowInnerInner1" values="0 0 0 0 0   0 0 0 0 0   0 0 0 0 0  0 0 0 0.15 0"/>
    </filter>
    <linearGradient id="uos-remote-assistance-e" x1="50%" x2="50%" y1="17.634%" y2="97.233%">
      <stop offset="0%" stop-opacity=".298"/>
      <stop offset="100%" stop-opacity=".503"/>
    </linearGradient>
    <linearGradient id="uos-remote-assistance-f" x1="46.826%" x2="46.826%" y1=".565%" y2="100%">
      <stop offset="0%" stop-color="#E1E5EB"/>
      <stop offset="100%" stop-color="#D3D3D3"/>
    </linearGradient>
    <path id="uos-remote-assistance-g" d="M2.5,1 L39.5,1 C40.3284271,1 41,1.67157288 41,2.5 L41,30.5 C41,31.3284271 40.3284271,32 39.5,32 L2.5,32 C1.67157288,32 1,31.3284271 1,30.5 L1,2.5 C1,1.67157288 1.67157288,1 2.5,1 Z"/>
    <filter id="uos-remote-assistance-h" width="102.5%" height="103.2%" x="-1.2%" y="-1.6%" filterUnits="objectBoundingBox">
      <feOffset dy="1" in="SourceAlpha" result="shadowOffsetInner1"/>
      <feComposite in="shadowOffsetInner1" in2="SourceAlpha" k2="-1" k3="1" operator="arithmetic" result="shadowInnerInner1"/>
      <feColorMatrix in="shadowInnerInner1" result="shadowMatrixInner1" values="0 0 0 0 1   0 0 0 0 1   0 0 0 0 1  0 0 0 1 0"/>
      <feOffset dy="-1" in="SourceAlpha" result="shadowOffsetInner2"/>
      <feComposite in="shadowOffsetInner2" in2="SourceAlpha" k2="-1" k3="1" operator="arithmetic" result="shadowInnerInner2"/>
      <feColorMatrix in="shadowInnerInner2" result="shadowMatrixInner2" values="0 0 0 0 0   0 0 0 0 0   0 0 0 0 0  0 0 0 0.210118007 0"/>
      <feMerge>
        <feMergeNode in="shadowMatrixInner1"/>
        <feMergeNode in="shadowMatrixInner2"/>
      </feMerge>
    </filter>
    <linearGradient id="uos-remote-assistance-i" x1="50%" x2="50%" y1="0%" y2="100%">
      <stop offset="0%" stop-opacity=".197"/>
      <stop offset="100%" stop-opacity=".504"/>
    </linearGradient>
    <linearGradient id="uos-remote-assistance-j" x1="46.826%" x2="46.826%" y1=".565%" y2="106.941%">
      <stop offset="0%" stop-color="#6B98AB"/>
      <stop offset="100%" stop-color="#161C45"/>
    </linearGradient>
    <linearGradient id="uos-remote-assistance-k" x1="50%" x2="50%" y1="0%" y2="100%">
      <stop offset="0%" stop-opacity=".196"/>
      <stop offset="100%" stop-opacity=".595"/>
    </linearGradient>
    <linearGradient id="uos-remote-assistance-l" x1="50%" x2="50%" y1="0%" y2="100%">
      <stop offset="0%" stop-color="#FFF" stop-opacity=".84"/>
      <stop offset="100%" stop-color="#FFF" stop-opacity=".517"/>
    </linearGradient>
    <linearGradient id="uos-remote-assistance-m" x1="50%" x2="50%" y1="0%" y2="100%">
      <stop offset="0%" stop-color="#FFF" stop-opacity=".386"/>
      <stop offset="100%" stop-color="#FFF" stop-opacity=".127"/>
    </linearGradient>
    <filter id="uos-remote-assistance-n" width="154.2%" height="154.2%" x="-27.1%" y="-27.1%" filterUnits="objectBoundingBox">
      <feOffset dy="1" in="SourceAlpha" result="shadowOffsetOuter1"/>
      <feGaussianBlur in="shadowOffsetOuter1" result="shadowBlurOuter1" stdDeviation="1"/>
      <feColorMatrix in="shadowBlurOuter1" result="shadowMatrixOuter1" values="0 0 0 0 0   0 0 0 0 0   0 0 0 0 0  0 0 0 0.2 0"/>
      <feMerge>
        <feMergeNode in="shadowMatrixOuter1"/>
        <feMergeNode in="SourceGraphic"/>
      </feMerge>
    </filter>
    <linearGradient id="uos-remote-assistance-o" x1="26.285%" x2="70.751%" y1="9.454%" y2="95.34%">
      <stop offset="0%" stop-color="#BADD84"/>
      <stop offset="100%" stop-color="#0F6F72"/>
    </linearGradient>
    <circle id="uos-remote-assistance-p" cx="12" cy="12" r="11"/>
    <filter id="uos-remote-assistance-q" width="104.5%" height="104.5%" x="-2.3%" y="-2.3%" filterUnits="objectBoundingBox">
      <feOffset dy="1" in="SourceAlpha" result="shadowOffsetInner1"/>
      <feComposite in="shadowOffsetInner1" in2="SourceAlpha" k2="-1" k3="1" operator="arithmetic" result="shadowInnerInner1"/>
      <feColorMatrix in="shadowInnerInner1" values="0 0 0 0 1   0 0 0 0 1   0 0 0 0 1  0 0 0 0.603720498 0"/>
    </filter>
    <linearGradient id="uos-remote-assistance-r" x1="50%" x2="50%" y1="0%" y2="102.163%">
      <stop offset="0%" stop-opacity=".199"/>
      <stop offset="100%" stop-opacity=".5"/>
    </linearGradient>
    <linearGradient id="uos-remote-assistance-s" x1="50%" x2="50%" y1="0%" y2="98.828%">
      <stop offset="0%" stop-color="#FFF"/>
      <stop offset="100%" stop-color="#FFF" stop-opacity=".636"/>
    </linearGradient>
    <linearGradient id="uos-remote-assistance-t" x1="50%" x2="50%" y1="0%" y2="100%">
      <stop offset="0%" stop-opacity=".198"/>
      <stop offset="100%" stop-opacity=".495"/>
    </linearGradient>
  </defs>
  <g fill="none" fill-rule="evenodd">
    <g filter="url(#uos-remote-assistance-a)" transform="translate(3 4)">
      <use fill="url(#uos-remote-assistance-b)" xlink:href="#uos-remote-assistance-c"/>
      <use fill="#000" filter="url(#uos-remote-assistance-d)" xlink:href="#uos-remote-assistance-c"/>
      <path fill="url(#uos-remote-assistance-e)" fill-rule="nonzero" d="M29,28 L13,28 L13,34.9532874 C13,35.3208942 12.7702301,35.6493032 12.4248876,35.7752926 L10.2564326,36.5663981 C9.5019722,36.8416437 9,37.5591099 9,38.3622106 C9,39.2667367 9.73326329,40 10.6377894,40 L31.3622106,40 C32.2667367,40 33,39.2667367 33,38.3622106 C33,37.5591099 32.4980278,36.8416437 31.7435674,36.5663981 L29.5751124,35.7752926 C29.2297699,35.6493032 29,35.3208942 29,34.9532874 L29,28 Z M28,29 L28,34.9532874 C28,35.688501 28.4289039,36.3505453 29.0877544,36.6550518 L29.2323837,36.714727 L31.4008387,37.5058325 C31.760622,37.6370903 32,37.979232 32,38.3622106 C32,38.68243 31.7640099,38.947531 31.4564584,38.9930847 L31.3622106,39 L10.6377894,39 C10.285548,39 10,38.714452 10,38.3622106 C10,38.0175298 10.1938962,37.705927 10.4949575,37.5513663 L10.5991613,37.5058325 L12.7676163,36.714727 C13.4583012,36.4627482 13.9332508,35.8329196 13.9935077,35.1096096 L14,34.9532874 L14,29 L28,29 Z"/>
      <use fill="url(#uos-remote-assistance-f)" xlink:href="#uos-remote-assistance-g"/>
      <use fill="#000" filter="url(#uos-remote-assistance-h)" xlink:href="#uos-remote-assistance-g"/>
      <path fill="url(#uos-remote-assistance-i)" fill-rule="nonzero" d="M39.5,0 L2.5,0 C1.11928813,0 0,1.11928813 0,2.5 L0,30.5 C0,31.8807119 1.11928813,33 2.5,33 L39.5,33 C40.8807119,33 42,31.8807119 42,30.5 L42,2.5 C42,1.11928813 40.8807119,0 39.5,0 Z M39.5,1 C40.3284271,1 41,1.67157288 41,2.5 L41,30.5 C41,31.3284271 40.3284271,32 39.5,32 L2.5,32 C1.67157288,32 1,31.3284271 1,30.5 L1,2.5 C1,1.67157288 1.67157288,1 2.5,1 L39.5,1 Z"/>
      <path fill="url(#uos-remote-assistance-j)" d="M3.75,3 L38.25,3 C38.6642136,3 39,3.33578644 39,3.75 L39,27.25 C39,27.6642136 38.6642136,28 38.25,28 L3.75,28 C3.33578644,28 3,27.6642136 3,27.25 L3,3.75 C3,3.33578644 3.33578644,3 3.75,3 Z"/>
      <path fill="url(#uos-remote-assistance-k)" fill-rule="nonzero" d="M38.25,3 C38.6642136,3 39,3.33578644 39,3.75 L39,27.25 C39,27.6642136 38.6642136,28 38.25,28 L3.75,28 C3.33578644,28 3,27.6642136 3,27.25 L3,3.75 C3,3.33578644 3.33578644,3 3.75,3 L38.25,3 Z M38,4 L4,4 L4,27 L38,27 L38,4 Z"/>
      <g transform="translate(6 6)">
        <path fill="url(#uos-remote-assistance-l)" d="M29,1.75 L29,17.25 C29,17.6642136 28.6642136,18 28.25,18 L1.75,18 C1.33578644,18 1,17.6642136 1,17.25 L1,1.75 C1,1.33578644 1.33578644,1 1.75,1 L28.25,1 C28.6642136,1 29,1.33578644 29,1.75 Z" opacity=".335"/>
        <path fill="#000" fill-opacity=".203" fill-rule="nonzero" d="M28.25,0 L1.75,0 C0.783501688,0 0,0.783501688 0,1.75 L0,17.25 C0,18.2164983 0.783501688,19 1.75,19 L28.25,19 C29.2164983,19 30,18.2164983 30,17.25 L30,1.75 C30,0.783501688 29.2164983,0 28.25,0 Z M28.25,1 C28.6642136,1 29,1.33578644 29,1.75 L29,17.25 C29,17.6642136 28.6642136,18 28.25,18 L1.75,18 C1.33578644,18 1,17.6642136 1,17.25 L1,1.75 C1,1.33578644 1.33578644,1 1.75,1 L28.25,1 Z"/>
        <path fill="url(#uos-remote-assistance-m)" d="M1,4 L8,4 L8,18 L1.75,18 C1.33578644,18 1,17.6642136 1,17.25 L1,4 L1,4 Z" opacity=".305"/>
        <path fill="#FFF" d="M14,11 L14,14 L11,14 L11,11 L14,11 Z M19,11 L19,14 L16,14 L16,11 L19,11 Z M24,6 L24,9 L21,9 L21,6 L24,6 Z M14,6 L14,9 L11,9 L11,6 L14,6 Z M19,6 L19,9 L16,9 L16,6 L19,6 Z" opacity=".17"/>
        <path fill="#FFF" d="M29,1.75 L29,4 L29,4 L1,4 L1,1.75 C1,1.33578644 1.33578644,1 1.75,1 L28.25,1 C28.6642136,1 29,1.33578644 29,1.75 Z" opacity=".596"/>
      </g>
    </g>
    <g filter="url(#uos-remote-assistance-n)" transform="translate(23 23)">
      <use fill="url(#uos-remote-assistance-o)" xlink:href="#uos-remote-assistance-p"/>
      <use fill="#000" filter="url(#uos-remote-assistance-q)" xlink:href="#uos-remote-assistance-p"/>
      <path fill="url(#uos-remote-assistance-r)" fill-rule="nonzero" d="M12,0 C5.372583,0 0,5.372583 0,12 C0,18.627417 5.372583,24 12,24 C18.627417,24 24,18.627417 24,12 C24,5.372583 18.627417,0 12,0 Z M12,1 C18.0751322,1 23,5.92486775 23,12 C23,18.0751322 18.0751322,23 12,23 C5.92486775,23 1,18.0751322 1,12 C1,5.92486775 5.92486775,1 12,1 Z"/>
      <path fill="url(#uos-remote-assistance-s)" fill-rule="nonzero" d="M8.00041447,6.29311492 L8.60640953,17.2368677 C8.614696,17.3865144 8.74324935,17.502855 8.89710492,17.5 L14.7138106,17.389994 C14.8118657,17.3881404 14.9020844,17.3374135 14.9527603,17.2556407 L17.9588895,12.4048126 C18.0384035,12.2765051 17.9992233,12.109913 17.8702919,12.0281009 L8.44146206,6.04512883 C8.30932158,5.96128037 8.13240442,5.99763009 8.04630653,6.12631819 C8.01322354,6.1757664 7.99715116,6.23418219 8.00041447,6.29311492 Z"/>
      <path fill="url(#uos-remote-assistance-t)" fill-rule="nonzero" d="M7.215169,5.57025128 C7.06174999,5.79956234 6.98666432,6.07246458 7.00194408,6.34840383 L7.60793913,17.2921566 C7.64628734,17.9846927 8.22948574,18.5125606 8.91565785,18.4998279 L14.7327193,18.3898152 C15.1681792,18.3815837 15.572247,18.1543901 15.8027716,17.7824051 L18.8089008,12.9315771 C19.1785,12.3351748 18.9956907,11.5578801 18.4060712,11.1837428 L8.97724127,5.20077071 C8.38868383,4.82730732 7.60442405,4.98844273 7.215169,5.57025128 Z M8.04630653,6.12631819 C8.12010472,6.0160141 8.26062728,5.97355046 8.38248432,6.01647162 L8.44146206,6.04512883 L17.8702919,12.0281009 C17.9808045,12.0982256 18.0253775,12.2306376 17.9857843,12.3478385 L17.9588895,12.4048126 L14.9527603,17.2556407 C14.9147534,17.3169703 14.8545037,17.3608366 14.7853872,17.3797186 L14.7138106,17.389994 L8.89710492,17.5000514 C8.76522872,17.5024471 8.6519419,17.417322 8.61704729,17.2987125 L8.60640953,17.2368677 L8.00041447,6.29311492 C7.99715116,6.23418219 8.01322354,6.1757664 8.04630653,6.12631819 Z"/>
      <path fill="#FFF" fill-rule="nonzero" d="M8.04630653,6.12631819 C8.12010472,6.0160141 8.26062728,5.97355046 8.38248432,6.01647162 L8.44146206,6.04512883 L17.8702919,12.0281009 C17.9808045,12.0982256 18.0253775,12.2306376 17.9857843,12.3478385 L17.9588895,12.4048126 L14.9527603,17.2556407 C14.9147534,17.3169703 14.8545037,17.3608366 14.7853872,17.3797186 L14.7138106,17.389994 L8.89710492,17.5000514 C8.76522872,17.5024471 8.6519419,17.417322 8.61704729,17.2987125 L8.60640953,17.2368677 L8.00041447,6.29311492 C7.99715116,6.23418219 8.01322354,6.1757664 8.04630653,6.12631819 Z M9.075,7.632 L9.566,16.487 L14.307,16.397 L16.73,12.488 L9.075,7.632 Z"/>
    </g>
  </g>
</svg>
