<svg xmlns="http://www.w3.org/2000/svg" xmlns:xlink="http://www.w3.org/1999/xlink" width="48" height="48" viewBox="0 0 48 48">
  <defs>
    <filter id="wps-office-wpsmain-a" width="137.5%" height="137.5%" x="-18.8%" y="-18.8%" filterUnits="objectBoundingBox">
      <feOffset dy="1" in="SourceAlpha" result="shadowOffsetOuter1"/>
      <feGaussianBlur in="shadowOffsetOuter1" result="shadowBlurOuter1" stdDeviation="1"/>
      <feColorMatrix in="shadowBlurOuter1" result="shadowMatrixOuter1" values="0 0 0 0 0   0 0 0 0 0   0 0 0 0 0  0 0 0 0.2 0"/>
      <feMerge>
        <feMergeNode in="shadowMatrixOuter1"/>
        <feMergeNode in="SourceGraphic"/>
      </feMerge>
    </filter>
    <linearGradient id="wps-office-wpsmain-b" x1="50.001%" x2="50%" y1=".348%" y2="100%">
      <stop offset="0%" stop-color="#7B9BE1"/>
      <stop offset="100%" stop-color="#424392"/>
    </linearGradient>
    <linearGradient id="wps-office-wpsmain-e" x1="50%" x2="50%" y1="0%" y2="100%">
      <stop offset="0%" stop-color="#464D9E"/>
      <stop offset="100%" stop-color="#5670C4"/>
    </linearGradient>
    <path id="wps-office-wpsmain-c" d="M3,0 L37,0 C38.6568542,-3.04359188e-16 40,1.34314575 40,3 L40,37 C40,38.6568542 38.6568542,40 37,40 L3,40 C1.34314575,40 2.02906125e-16,38.6568542 0,37 L0,3 C-2.02906125e-16,1.34314575 1.34314575,3.04359188e-16 3,0 Z"/>
    <filter id="wps-office-wpsmain-d" width="107.5%" height="107.5%" x="-3.8%" y="-3.8%" filterUnits="objectBoundingBox">
      <feOffset dy="1" in="SourceAlpha" result="shadowOffsetInner1"/>
      <feComposite in="shadowOffsetInner1" in2="SourceAlpha" k2="-1" k3="1" operator="arithmetic" result="shadowInnerInner1"/>
      <feColorMatrix in="shadowInnerInner1" values="0 0 0 0 1   0 0 0 0 1   0 0 0 0 1  0 0 0 0.5 0"/>
    </filter>
    <linearGradient id="wps-office-wpsmain-f" x1="50.001%" x2="50.001%" y1=".348%" y2="100%">
      <stop offset="0%" stop-color="#4066B8"/>
      <stop offset="100%" stop-color="#6473C1"/>
    </linearGradient>
    <linearGradient id="wps-office-wpsmain-g" x1="50%" x2="50%" y1="0%" y2="100%">
      <stop offset="0%" stop-color="#FFF"/>
      <stop offset="100%" stop-color="#CDD6F0"/>
    </linearGradient>
  </defs>
  <g fill="none" fill-rule="evenodd" filter="url(#wps-office-wpsmain-a)" transform="translate(4 4)">
    <use fill="url(#wps-office-wpsmain-b)" xlink:href="#wps-office-wpsmain-c"/>
    <use fill="#000" filter="url(#wps-office-wpsmain-d)" xlink:href="#wps-office-wpsmain-c"/>
    <path stroke="url(#wps-office-wpsmain-e)" d="M37,-0.5 C37.9664983,-0.5 38.8414983,-0.108249156 39.4748737,0.525126266 C40.1082492,1.15850169 40.5,2.03350169 40.5,3 L40.5,3 L40.5,37 C40.5,37.9664983 40.1082492,38.8414983 39.4748737,39.4748737 C38.8414983,40.1082492 37.9664983,40.5 37,40.5 L37,40.5 L3,40.5 C2.03350169,40.5 1.15850169,40.1082492 0.525126266,39.4748737 C-0.108249156,38.8414983 -0.5,37.9664983 -0.5,37 L-0.5,37 L-0.5,3 C-0.5,2.03350169 -0.108249156,1.15850169 0.525126266,0.525126266 C1.15850169,-0.108249156 2.03350169,-0.5 3,-0.5 L3,-0.5 Z"/>
    <circle cx="20" cy="20" r="17" fill="url(#wps-office-wpsmain-f)"/>
    <g fill-rule="nonzero" transform="translate(8 9.5)">
      <path fill="#FFF" d="M8.2706894,9.5873106 L1.025,16.833 L1.025,16.833 L5.974,20.782 L11.4532675,15.3027325 C11.7459273,15.0100727 12.2203399,15.0098053 12.5133294,15.3021348 L18.0759583,20.8522339 L18.0759583,20.8522339 L23.0249583,16.9032339 L15.6976184,9.58500138 C13.6446855,7.53923576 10.3223497,7.54026876 8.2706894,9.5873106 Z" opacity=".6"/>
      <path fill="url(#wps-office-wpsmain-g)" d="M3,0 C4.65685425,0 6,1.34314575 6,3 L6,20.625 C6,20.8321068 5.83210678,21 5.625,21 L3,21 C1.34314575,21 0,19.6568542 0,18 L0,3 C0,1.34314575 1.34314575,0 3,0 Z M21,0 C22.6568542,0 24,1.34314575 24,3 L24,18 C24,19.6568542 22.6568542,21 21,21 L18.375,21 C18.1678932,21 18,20.8321068 18,20.625 L18,3 C18,1.34314575 19.3431458,0 21,0 Z"/>
      <path fill="#FFF" fill-opacity=".4" d="M3,0 C4.65685425,0 6,1.34314575 6,3 L6,20.625 C6,20.8321068 5.83210678,21 5.625,21 L3,21 C1.34314575,21 0,19.6568542 0,18 L0,3 C0,1.40231912 1.24891996,0.0963391206 2.82372721,0.00509269341 L3,0 Z M21,0 C22.6568542,0 24,1.34314575 24,3 L24,18 C24,19.6568542 22.6568542,21 21,21 L18.375,21 C18.1678932,21 18,20.8321068 18,20.625 L18,3 C18,1.40231912 19.24892,0.0963391206 20.8237272,0.00509269341 L21,0 Z M3,1 C1.9456382,1 1.08183488,1.81587779 1.00548574,2.85073766 L1,3 L1,18 C1,19.0543618 1.81587779,19.9181651 2.85073766,19.9945143 L3,20 L5,20 L5,3 C5,1.9456382 4.18412221,1.08183488 3.14926234,1.00548574 L3,1 Z M21,1 C19.9456382,1 19.0818349,1.81587779 19.0054857,2.85073766 L19,3 L19,20 L21,20 C22.0543618,20 22.9181651,19.1841222 22.9945143,18.1492623 L23,18 L23,3 C23,1.8954305 22.1045695,1 21,1 Z"/>
    </g>
  </g>
</svg>
