<svg xmlns="http://www.w3.org/2000/svg" xmlns:xlink="http://www.w3.org/1999/xlink" width="128" height="128" viewBox="0 0 128 128">
  <defs>
    <filter id="dde-filemanager-128px-a" width="132.8%" height="129.1%" x="-16.4%" y="-13.7%" filterUnits="objectBoundingBox">
      <feOffset dy="3" in="SourceAlpha" result="shadowOffsetOuter1"/>
      <feGaussianBlur in="shadowOffsetOuter1" result="shadowBlurOuter1" stdDeviation="2.5"/>
      <feColorMatrix in="shadowBlurOuter1" result="shadowMatrixOuter1" values="0 0 0 0 0   0 0 0 0 0   0 0 0 0 0  0 0 0 0.2 0"/>
      <feMerge>
        <feMergeNode in="shadowMatrixOuter1"/>
        <feMergeNode in="SourceGraphic"/>
      </feMerge>
    </filter>
    <linearGradient id="dde-filemanager-128px-b" x1="50%" x2="50%" y1="0%" y2="37.968%">
      <stop offset="0%" stop-color="#00B8FF"/>
      <stop offset="100%" stop-color="#2E5DFF"/>
    </linearGradient>
    <path id="dde-filemanager-128px-d" d="M10.8938821,30.6059121 C10.8538777,26.2017131 14.3923429,22.6307698 18.7941307,22.6299875 L96.1232786,22.6162448 C100.52647,22.6154623 104.128442,26.1907556 104.168396,30.5893356 L104.787978,98.8009718 C104.827982,103.205171 101.289517,106.776114 96.8877291,106.776896 L19.5585813,106.790639 C15.1553901,106.791422 11.5534174,103.216128 11.5134641,98.8175483 L10.8938821,30.6059121 Z"/>
    <filter id="dde-filemanager-128px-c" width="109.6%" height="110.7%" x="-4.8%" y="-5.3%" filterUnits="objectBoundingBox">
      <feOffset in="SourceAlpha" result="shadowOffsetOuter1"/>
      <feGaussianBlur in="shadowOffsetOuter1" result="shadowBlurOuter1" stdDeviation="1.5"/>
      <feComposite in="shadowBlurOuter1" in2="SourceAlpha" operator="out" result="shadowBlurOuter1"/>
      <feColorMatrix in="shadowBlurOuter1" values="0 0 0 0 0   0 0 0 0 0   0 0 0 0 0  0 0 0 0.2 0"/>
    </filter>
    <linearGradient id="dde-filemanager-128px-g" x1="50%" x2="50%" y1="0%" y2="11.796%">
      <stop offset="0%" stop-color="#FFF"/>
      <stop offset="100%" stop-color="#CEF5FF"/>
    </linearGradient>
    <rect id="dde-filemanager-128px-f" width="92" height="82" x="13" y="27" rx="7.98"/>
    <filter id="dde-filemanager-128px-e" width="109.8%" height="111%" x="-4.9%" y="-5.5%" filterUnits="objectBoundingBox">
      <feOffset in="SourceAlpha" result="shadowOffsetOuter1"/>
      <feGaussianBlur in="shadowOffsetOuter1" result="shadowBlurOuter1" stdDeviation="1.5"/>
      <feComposite in="shadowBlurOuter1" in2="SourceAlpha" operator="out" result="shadowBlurOuter1"/>
      <feColorMatrix in="shadowBlurOuter1" values="0 0 0 0 0   0 0 0 0 0   0 0 0 0 0  0 0 0 0.2 0"/>
    </filter>
    <radialGradient id="dde-filemanager-128px-j" cx="50%" cy="25.527%" r="96.89%" fx="50%" fy="25.527%" gradientTransform="matrix(0 1 -.68966 0 .676 -.245)">
      <stop offset="0%" stop-color="#48D5FF"/>
      <stop offset="100%" stop-color="#0056FF"/>
    </radialGradient>
    <path id="dde-filemanager-128px-i" d="M0,37 L116,37 L116,106.35595 C116,112.234497 111.236401,117 105.359557,117 L10.6404429,117 C4.76388854,117 0,112.235214 0,106.35595 L0,37 Z"/>
    <filter id="dde-filemanager-128px-h" width="108.6%" height="112.5%" x="-4.3%" y="-7.5%" filterUnits="objectBoundingBox">
      <feOffset dy="-1" in="SourceAlpha" result="shadowOffsetOuter1"/>
      <feGaussianBlur in="shadowOffsetOuter1" result="shadowBlurOuter1" stdDeviation="1.5"/>
      <feColorMatrix in="shadowBlurOuter1" values="0 0 0 0 0   0 0 0 0 0   0 0 0 0 0  0 0 0 0.1 0"/>
    </filter>
    <linearGradient id="dde-filemanager-128px-k" x1="50%" x2="50%" y1="0%" y2="100%">
      <stop offset="0%" stop-color="#FFF"/>
      <stop offset="100%" stop-color="#4ABFFF"/>
    </linearGradient>
    <linearGradient id="dde-filemanager-128px-n" x1="50%" x2="50%" y1="0%" y2="100%">
      <stop offset="0%" stop-color="#FFF"/>
      <stop offset="100%" stop-color="#B1E4FF"/>
    </linearGradient>
    <ellipse id="dde-filemanager-128px-m" cx="59.333" cy="59.83" rx="12" ry="11.966"/>
    <filter id="dde-filemanager-128px-l" width="145.8%" height="146%" x="-22.9%" y="-14.6%" filterUnits="objectBoundingBox">
      <feOffset dy="2" in="SourceAlpha" result="shadowOffsetOuter1"/>
      <feGaussianBlur in="shadowOffsetOuter1" result="shadowBlurOuter1" stdDeviation="1.5"/>
      <feComposite in="shadowBlurOuter1" in2="SourceAlpha" operator="out" result="shadowBlurOuter1"/>
      <feColorMatrix in="shadowBlurOuter1" values="0 0 0 0 0.0392156863   0 0 0 0 0.454901961   0 0 0 0 0.949019608  0 0 0 0.3 0"/>
    </filter>
  </defs>
  <g fill="none" fill-rule="evenodd" filter="url(#dde-filemanager-128px-a)" transform="translate(6 5)">
    <path fill="url(#dde-filemanager-128px-b)" d="M0,38.4694266 L0,27.0453227 C0,24.1064023 2.20732632,20.8467021 4.94256605,19.7596645 L48.2261554,2.55792171 C53.689271,0.386772973 62.5399033,0.391224537 68.0025039,2.57102018 L111.065013,19.75468 C113.790531,20.8422704 116,24.1053734 116,27.0453227 L116,38.4694266 L116,106.368184 C116,112.239974 111.236401,117 105.359557,117 L10.6404429,117 C4.76388854,117 0,112.235133 0,106.368184 L0,38.4694266 Z"/>
    <g transform="rotate(-8 57.84 64.703)">
      <use fill="#000" filter="url(#dde-filemanager-128px-c)" xlink:href="#dde-filemanager-128px-d"/>
      <path fill="#FF517F" stroke="#FFF" stroke-linejoin="square" stroke-opacity=".2" d="M11.3938615,30.6013707 L12.0134435,98.8130068 C12.0509228,102.939217 15.4317293,106.291372 19.5584924,106.290639 L96.8876403,106.276896 C101.012013,106.276163 104.325474,102.931373 104.287998,98.8055132 L103.668416,30.5938771 C103.630937,26.4676666 100.250131,23.1155114 96.1233674,23.1162448 L18.7942195,23.1299875 C14.6698467,23.1307205 11.3563853,26.4755109 11.3938615,30.6013707 Z"/>
    </g>
    <use fill="#000" filter="url(#dde-filemanager-128px-e)" xlink:href="#dde-filemanager-128px-f"/>
    <rect width="91" height="81" x="13.5" y="27.5" fill="url(#dde-filemanager-128px-g)" stroke="#FFF" stroke-linejoin="square" rx="7.98"/>
    <use fill="#000" filter="url(#dde-filemanager-128px-h)" xlink:href="#dde-filemanager-128px-i"/>
    <use fill="url(#dde-filemanager-128px-j)" xlink:href="#dde-filemanager-128px-i"/>
    <path fill="url(#dde-filemanager-128px-k)" stroke="#FFF" stroke-opacity=".4" stroke-width="3" d="M50.5,61.5 L68.5,61.5 L68.5,96 C68.5,95.7238576 68.7238576,95.5 69,95.5 C69.2761424,95.5 69.5,95.7238576 69.5,96 L69.5,60.5 L49.5,60.5 L49.5,82.875 C49.5,82.5988576 49.7238576,82.375 50,82.375 C50.2761424,82.375 50.5,82.5988576 50.5,82.875 L50.5,61.5 Z"/>
    <use fill="#000" filter="url(#dde-filemanager-128px-l)" xlink:href="#dde-filemanager-128px-m"/>
    <ellipse cx="59.333" cy="59.83" fill="url(#dde-filemanager-128px-n)" stroke="#FFF" stroke-linejoin="square" stroke-opacity=".4" rx="11.5" ry="11.466"/>
    <ellipse cx="59.333" cy="59.83" fill="#00BFFF" stroke="#FFF" stroke-opacity=".4" rx="4.5" ry="4.489"/>
  </g>
</svg>
