<svg xmlns="http://www.w3.org/2000/svg" xmlns:xlink="http://www.w3.org/1999/xlink" width="32" height="32" viewBox="0 0 32 32">
  <defs>
    <rect id="application-vnd.wolfram.mathematica.package-b" width="22" height="26" x="1" y="1"/>
    <filter id="application-vnd.wolfram.mathematica.package-a" width="118.2%" height="115.4%" x="-9.1%" y="-3.8%" filterUnits="objectBoundingBox">
      <feOffset dy="1" in="SourceAlpha" result="shadowOffsetOuter1"/>
      <feGaussianBlur in="shadowOffsetOuter1" result="shadowBlurOuter1" stdDeviation=".5"/>
      <feColorMatrix in="shadowBlurOuter1" values="0 0 0 0 0   0 0 0 0 0   0 0 0 0 0  0 0 0 0.2 0"/>
    </filter>
  </defs>
  <g fill="none" fill-rule="evenodd">
    <g transform="translate(4 2)">
      <use fill="#000" filter="url(#application-vnd.wolfram.mathematica.package-a)" xlink:href="#application-vnd.wolfram.mathematica.package-b"/>
      <use fill="#F9FBFB" xlink:href="#application-vnd.wolfram.mathematica.package-b"/>
      <path fill="#000" fill-opacity=".2" fill-rule="nonzero" d="M24,0 L0,0 L0,28 L24,28 L24,0 Z M23,1 L23,27 L1,27 L1,1 L23,1 Z"/>
    </g>
    <path fill="#2A4052" fill-opacity=".6" d="M16,10 C15.7984285,10.0004016 15.5970012,10.010959 15.3964884,10.0316376 C15.205826,10.0508204 15.0178592,10.0793076 14.832817,10.1160126 C14.8246099,10.1171697 14.816407,10.1183697 14.8082042,10.1195697 C14.6342676,10.1548197 14.4642773,10.2008158 14.2960942,10.2508193 C14.2722271,10.2569222 14.2483994,10.2631708 14.2246102,10.2695693 C14.0349227,10.3285313 13.8491477,10.3954956 13.6679695,10.4723034 C13.4889724,10.5481237 13.3137655,10.6325985 13.1429694,10.7254284 C12.8041674,10.9098145 12.4839353,11.1264424 12.1867193,11.3723035 C12.0383984,11.4946903 11.8960466,11.6241369 11.7601573,11.7601946 C11.6305689,11.8900098 11.5070014,12.0256989 11.3898445,12.1668348 C11.3829274,12.1751405 11.3756245,12.1830991 11.3687503,12.1914477 C11.2739987,12.308707 11.1836999,12.4294956 11.0980469,12.5535568 C11.0676226,12.5966848 11.0359495,12.6385151 11.0066408,12.6824634 C10.9415219,12.7821547 10.879385,12.8837621 10.8203129,12.9871511 C10.7787157,13.0583433 10.7359777,13.1285956 10.6972657,13.201604 C10.6491071,13.2945325 10.6033884,13.3887055 10.5601567,13.4840258 C10.5200038,13.5703988 10.4802414,13.6568275 10.4441407,13.7453541 C10.4083249,13.8359289 10.3747228,13.927362 10.3433599,14.0195726 C10.3092371,14.1165939 10.2752826,14.2133319 10.2460939,14.3125415 C10.2214639,14.3995184 10.198801,14.4870404 10.178125,14.5750411 C10.1525007,14.6795071 10.126693,14.7837657 10.1066406,14.890276 C10.0888206,14.9910413 10.0735806,15.0922464 10.0609386,15.1937912 C10.0481757,15.2879793 10.0352714,15.3818819 10.0269529,15.4773847 C10.0103714,15.6511208 10.00138,15.8254975 10,16.0000174 C10.0004011,16.201593 10.0109586,16.4030199 10.0316371,16.6035326 C10.1347969,17.6289058 10.4980982,18.5784334 11.0535123,19.386736 C11.0586123,19.3941589 11.0636181,19.4016032 11.0687481,19.4090003 C11.1117385,19.4707626 11.1558869,19.5317106 11.2011698,19.5918122 C11.2014882,19.5898836 11.2020269,19.5878693 11.2023698,19.5859322 C12.2980283,21.0475046 14.0383436,22.0000155 16,22.0000155 C17.1267807,22.0000155 18.1788072,21.6818993 19.0808602,21.1386875 L19.0820602,21.1398875 C19.0942017,21.1317275 19.1063088,21.1235246 19.1183903,21.1152746 C19.2615019,21.0276523 19.4006607,20.9353106 19.5355776,20.836368 C19.5666576,20.8136194 19.5975191,20.7905704 19.6281559,20.767227 C19.7466221,20.6768113 19.8613515,20.5824175 19.9726871,20.4836335 C20.0178367,20.4432964 20.062373,20.4022739 20.1062806,20.3605868 C20.1990342,20.2731848 20.2887513,20.182961 20.3758122,20.0898834 C20.4276432,20.0349873 20.4784332,19.9791178 20.5281557,19.9223051 C20.6099464,19.8280344 20.687817,19.7309411 20.7637024,19.6316805 C20.8052439,19.5780765 20.8458759,19.5237718 20.8855774,19.4687899 C20.965302,19.3568822 21.0396879,19.2416551 21.1117492,19.1242587 C21.1417235,19.0766264 21.1710223,19.028575 21.1996428,18.9801181 C21.2710085,18.8561696 21.3363018,18.7285428 21.3988612,18.5992586 C21.4233713,18.5499793 21.4472011,18.5003653 21.4703457,18.4504303 C21.5264277,18.3258733 21.5762187,18.1984328 21.6238613,18.0695712 C21.6471241,18.0086103 21.6693944,17.947274 21.690658,17.8855867 C21.7320023,17.76131 21.7675497,17.6347734 21.8008146,17.5070711 C21.8182832,17.4428865 21.8346803,17.3784161 21.8500026,17.3136863 C21.8771483,17.1929659 21.8982546,17.0702089 21.9179711,16.9468896 C21.9317496,16.8658968 21.9438611,16.7846298 21.9543011,16.7031395 C21.9667382,16.5974671 21.9732354,16.4904729 21.9800839,16.3832177 C21.9908068,16.2557284 21.9974496,16.1279288 22,16.0000148 C22,15.7977158 21.9892211,15.5984185 21.9695368,15.4011864 L21.9683368,15.3965064 C21.9491539,15.205844 21.9206668,15.0178772 21.8839618,14.8328346 C21.8823332,14.8247646 21.8821189,14.8162875 21.8804046,14.8082217 C21.8451546,14.6342856 21.7991586,14.4642953 21.7491546,14.2961122 C21.7424046,14.2734065 21.7385903,14.2495642 21.7315746,14.2269721 L21.7292175,14.2187692 C21.6706634,14.0310489 21.6036983,13.8473619 21.5276551,13.6679875 C21.4518348,13.4889904 21.3673604,13.3137839 21.2745305,13.1429879 C21.0901445,12.8041858 20.8735166,12.4839537 20.6276554,12.1867377 C20.5052687,12.0384164 20.3758221,11.8960646 20.2397643,11.7601753 C20.1099492,11.6305869 19.97426,11.5070194 19.8331241,11.3898625 C19.8264984,11.3839868 19.8198555,11.3781283 19.8132041,11.3722825 C19.8117041,11.3710397 19.8100327,11.3700111 19.8085241,11.3687254 C19.6912648,11.2739738 19.5704762,11.1836755 19.446415,11.0980225 C19.403287,11.0675982 19.3614567,11.0359246 19.3175084,11.0066159 C19.2178283,10.9414992 19.1162315,10.879364 19.0128541,10.8202927 C18.9416619,10.7786956 18.8714096,10.7359571 18.7984008,10.6972451 C18.7054723,10.6490865 18.6112993,10.6033678 18.515979,10.5601361 C18.429606,10.5199832 18.3431773,10.4802212 18.2546511,10.4441201 C18.1640896,10.4083129 18.0726693,10.3747168 17.9804725,10.3433599 C17.8834516,10.3092371 17.7867136,10.2752826 17.687504,10.2460939 C17.6005271,10.2214639 17.5130047,10.1988015 17.4250039,10.1781255 C17.3205379,10.1525012 17.2162798,10.1266935 17.1097695,10.1066406 C17.0090037,10.0888206 16.9077987,10.0735806 16.8062538,10.0609386 C16.7120658,10.0481757 16.6181636,10.0352714 16.5226603,10.0269529 C16.3489166,10.0103714 16.1745321,10.00138 16,10 L16,10 Z M15.0882855,10.8660157 L15.8987888,12.7691407 L17.2857165,11.5914064 L17.2857165,14.8820316 L20.5000041,17.5000001 L19.5121138,18.1569355 L16.7664104,18.1288084 L18.3039102,20.2140612 C17.6205315,20.5873418 16.8361304,20.8000011 16.0000041,20.8000011 C13.9999029,20.8000011 12.2932784,19.5867709 11.5703169,17.8539076 C11.9487254,16.3919079 12.5139152,14.9803832 13.3234413,14.1929696 C13.6687894,12.9220575 14.3427009,11.8701043 15.0882855,10.8660157 L15.0882855,10.8660157 Z M16.0429234,15.4000001 L16.043358,15.9109375 L17.1999983,16.0000002 C17.0511837,15.6402779 16.7276135,15.4745797 16.0429234,15.4000001 L16.0429234,15.4000001 Z"/>
  </g>
</svg>
