<svg xmlns="http://www.w3.org/2000/svg" xmlns:xlink="http://www.w3.org/1999/xlink" width="32" height="32" viewBox="0 0 32 32">
  <defs>
    <rect id="application-x-clementine-b" width="22" height="26" x="1" y="1"/>
    <filter id="application-x-clementine-a" width="118.2%" height="115.4%" x="-9.1%" y="-3.8%" filterUnits="objectBoundingBox">
      <feOffset dy="1" in="SourceAlpha" result="shadowOffsetOuter1"/>
      <feGaussianBlur in="shadowOffsetOuter1" result="shadowBlurOuter1" stdDeviation=".5"/>
      <feColorMatrix in="shadowBlurOuter1" values="0 0 0 0 0   0 0 0 0 0   0 0 0 0 0  0 0 0 0.2 0"/>
    </filter>
  </defs>
  <g fill="none" fill-rule="evenodd">
    <g transform="translate(4 2)">
      <use fill="#000" filter="url(#application-x-clementine-a)" xlink:href="#application-x-clementine-b"/>
      <use fill="#F9FBFB" xlink:href="#application-x-clementine-b"/>
      <path fill="#000" fill-opacity=".2" fill-rule="nonzero" d="M24,0 L0,0 L0,28 L24,28 L24,0 Z M23,1 L23,27 L1,27 L1,1 L23,1 Z"/>
    </g>
    <g transform="translate(10 10)">
      <path fill="#D66565" d="M2.77982012,0.00133401 C1.69569655,0.0493029566 0.468497354,1.38456863 0.105604515,3.24529325 C0.0192651177,3.71153622 0.00229319532,4.08538623 -4.89484996e-14,4.50658539 C0.00101040936,4.54484912 0.00105380117,4.58278183 0.00282625341,4.6212933 C0.149190805,8.40277532 3.22811065,11.457204 7.0196387,11.5670543 C7.03897492,11.5678601 7.05802021,11.5681494 7.07729258,11.5687693 C7.32586278,11.5784911 7.60860818,11.5564109 7.83543991,11.5410473 C10.691932,11.2621925 12.5555288,8.94796783 11.0181029,7.67038826 C10.1478791,6.94710666 8.54384907,6.42923261 6.86533101,4.76539586 C5.09478243,3.00983626 4.59097352,1.3465198 3.84924234,0.488418846 C3.54347346,0.134702631 3.17120126,-0.0159833112 2.77982012,0.00133401 Z"/>
      <path fill="#E28D54" d="M3.07681518,0.0221971036 C1.87375216,1.26127307 1.24049143,2.7163328 1.23976596,4.33918205 C1.23976596,7.69423165 4.11442232,10.286853 7.23196869,10.3313848 C8.79414999,10.3295045 10.1404004,9.76608595 11.5445144,8.50684625 C11.484319,8.20413732 11.3158627,7.9175503 11.0182596,7.67024631 C10.1480357,6.94696471 8.54404537,6.42918839 6.86552731,4.76535164 C5.09497893,3.00979204 4.59097869,1.34642103 3.84924751,0.488320078 C3.62199301,0.225429953 3.35808256,0.0751672252 3.07681518,0.0221971036 Z"/>
      <path fill="#FFF" fill-rule="nonzero" d="M3.04210813,0.0633612014 C1.8914715,1.18874367 1.24192998,2.7296959 1.23976596,4.33918205 C1.23976596,7.64858424 3.9225665,10.3313848 7.23196869,10.3313848 C8.84468994,10.3309678 10.3891627,9.68050267 11.5162645,8.52702468 C11.2769368,8.47341461 11.0393822,8.41217532 10.8039639,8.34340045 C9.82146421,9.22221486 8.55015489,9.70913599 7.23196869,9.71150174 C4.26491845,9.71150174 1.859649,7.30623229 1.859649,4.33918205 C1.86170864,3.01722342 2.35110576,1.74243448 3.23420741,0.758711779 C3.16293091,0.528990508 3.09886642,0.29709331 3.04210813,0.0633612014 L3.04210813,0.0633612014 Z"/>
    </g>
  </g>
</svg>
