<svg xmlns="http://www.w3.org/2000/svg" xmlns:xlink="http://www.w3.org/1999/xlink" width="32" height="32" viewBox="0 0 32 32">
  <defs>
    <rect id="application-x-blender-b" width="22" height="26" x="1" y="1"/>
    <filter id="application-x-blender-a" width="118.2%" height="115.4%" x="-9.1%" y="-3.8%" filterUnits="objectBoundingBox">
      <feOffset dy="1" in="SourceAlpha" result="shadowOffsetOuter1"/>
      <feGaussianBlur in="shadowOffsetOuter1" result="shadowBlurOuter1" stdDeviation=".5"/>
      <feColorMatrix in="shadowBlurOuter1" values="0 0 0 0 0   0 0 0 0 0   0 0 0 0 0  0 0 0 0.2 0"/>
    </filter>
  </defs>
  <g fill="none" fill-rule="evenodd">
    <g transform="translate(4 2)">
      <use fill="#000" filter="url(#application-x-blender-a)" xlink:href="#application-x-blender-b"/>
      <use fill="#F9FBFB" xlink:href="#application-x-blender-b"/>
      <path fill="#000" fill-opacity=".2" fill-rule="nonzero" d="M24,0 L0,0 L0,28 L24,28 L24,0 Z M23,1 L23,27 L1,27 L1,1 L23,1 Z"/>
    </g>
    <path fill="#DD953E" d="M15.5,11 L10,13 L15.5,15 L21,13 L15.5,11 Z M16.0143227,15.9895833 L16.0143227,22.5 L21.0143227,20.2000008 L21.0143227,14 L16.0143227,15.9895833 Z M10.0143227,20.1666667 L15.0143227,22.5 L15,16 L10,14 L10.0143227,20.1666667 Z M20.0143227,15.5 L20.0143227,19.6000004 L17.0143227,20.8999996 L17,16.7000008 L20.0143227,15.5 Z"/>
  </g>
</svg>
