<svg xmlns="http://www.w3.org/2000/svg" xmlns:xlink="http://www.w3.org/1999/xlink" width="32" height="32" viewBox="0 0 32 32">
  <defs>
    <rect id="application-x-iso9660-appimage-b" width="22" height="26" x="1" y="1"/>
    <filter id="application-x-iso9660-appimage-a" width="118.2%" height="115.4%" x="-9.1%" y="-3.8%" filterUnits="objectBoundingBox">
      <feOffset dy="1" in="SourceAlpha" result="shadowOffsetOuter1"/>
      <feGaussianBlur in="shadowOffsetOuter1" result="shadowBlurOuter1" stdDeviation=".5"/>
      <feColorMatrix in="shadowBlurOuter1" values="0 0 0 0 0   0 0 0 0 0   0 0 0 0 0  0 0 0 0.2 0"/>
    </filter>
  </defs>
  <g fill="none" fill-rule="evenodd">
    <g transform="translate(4 2)">
      <use fill="#000" filter="url(#application-x-iso9660-appimage-a)" xlink:href="#application-x-iso9660-appimage-b"/>
      <use fill="#F9FBFB" xlink:href="#application-x-iso9660-appimage-b"/>
      <path fill="#000" fill-opacity=".2" fill-rule="nonzero" d="M24,0 L0,0 L0,28 L24,28 L24,0 Z M23,1 L23,27 L1,27 L1,1 L23,1 Z"/>
    </g>
    <path fill="#2A4052" fill-opacity=".6" d="M17.630297,10.0001503 C17.7591964,10.0018552 17.8798409,10.1003424 17.9040201,10.2235789 L17.9040201,10.2235789 L18.142427,11.4008675 C18.5703019,11.5637818 18.972343,11.7875875 19.3255415,12.062778 L19.3255415,12.062778 L20.4998967,11.6760737 C20.6218977,11.635131 20.7698818,11.688193 20.8354314,11.7963835 L20.8354314,11.7963835 L21.9656671,13.7041347 C22.0293276,13.8138571 22.0020243,13.9657049 21.9038593,14.0478731 L21.9038593,14.0478731 L20.9679032,14.847045 C21.0008169,15.0613438 21.0208789,15.2769313 21.0208789,15.5001556 C21.0208789,15.7234115 21.0008414,15.9389793 20.9679032,16.1532664 L20.9679032,16.1532664 L21.9038593,16.9524775 C22.0020364,17.0346457 22.0293276,17.1864935 21.9656671,17.2962159 L21.9656671,17.2962159 L20.8354314,19.2039671 C20.7698818,19.3121731 20.6218977,19.3652157 20.4998967,19.3242731 L20.4998967,19.3242731 L19.3255415,18.9375687 C18.972585,19.2125665 18.5703422,19.4363842 18.1423462,19.5992828 L18.1423462,19.5992828 L17.9039393,20.7765714 C17.8797723,20.899808 17.7591157,20.9984286 17.6302163,21 L17.6302163,21 L15.3697854,21 C15.2408862,20.9982911 15.1202374,20.899808 15.0960585,20.7765714 L15.0960585,20.7765714 L14.8576554,19.5992828 C14.4296595,19.4363685 14.0274207,19.2125508 13.6744601,18.9375687 L13.6744601,18.9375687 L12.500105,19.3242731 C12.3781001,19.3652157 12.2301201,19.3121576 12.1645703,19.2039671 L12.1645703,19.2039671 L11.0343347,17.2962159 C10.9706702,17.1864935 10.9979775,17.0346457 11.0961425,16.9524775 L11.0961425,16.9524775 L12.0320987,16.1532664 C11.9991401,15.9389675 11.9791189,15.7233801 11.9791189,15.5001556 C11.9791189,15.2769391 11.9991604,15.0613321 12.0320987,14.847045 L12.0320987,14.847045 L11.0961425,14.0478731 C10.9979653,13.9657049 10.9706702,13.8138571 11.0343347,13.7041347 L11.0343347,13.7041347 L12.1645703,11.7963835 C12.2301201,11.6881736 12.3781001,11.635131 12.500105,11.6760737 L12.500105,11.6760737 L13.674339,12.0627937 C14.0272956,11.7877918 14.4295384,11.5639782 14.8575344,11.4010796 L14.8575344,11.4010796 L15.0959374,10.2237911 C15.1178356,10.1084547 15.2233675,10.0130514 15.3431764,10.0003624 L15.3433863,10.0001503 Z M18.00048,14 L15.00048,14 L15,16 L13.7852773,16 L16.49952,18.5 L19.2137628,16 L18,16 L18.00048,14 Z"/>
  </g>
</svg>
