<svg xmlns="http://www.w3.org/2000/svg" xmlns:xlink="http://www.w3.org/1999/xlink" width="32" height="32" viewBox="0 0 32 32">
  <defs>
    <rect id="application-vnd.google-apps.site-b" width="22" height="26" x="1" y="1"/>
    <filter id="application-vnd.google-apps.site-a" width="118.2%" height="115.4%" x="-9.1%" y="-3.8%" filterUnits="objectBoundingBox">
      <feOffset dy="1" in="SourceAlpha" result="shadowOffsetOuter1"/>
      <feGaussianBlur in="shadowOffsetOuter1" result="shadowBlurOuter1" stdDeviation=".5"/>
      <feColorMatrix in="shadowBlurOuter1" values="0 0 0 0 0   0 0 0 0 0   0 0 0 0 0  0 0 0 0.2 0"/>
    </filter>
  </defs>
  <g fill="none" fill-rule="evenodd">
    <g transform="translate(4 2)">
      <use fill="#000" filter="url(#application-vnd.google-apps.site-a)" xlink:href="#application-vnd.google-apps.site-b"/>
      <use fill="#F9FBFB" xlink:href="#application-vnd.google-apps.site-b"/>
      <path fill="#000" fill-opacity=".2" fill-rule="nonzero" d="M24,0 L0,0 L0,28 L24,28 L24,0 Z M23,1 L23,27 L1,27 L1,1 L23,1 Z"/>
    </g>
    <path stroke="#2A4052" stroke-linecap="square" d="M21.5,15.4887695 L21.5,21.4984131 L18.49196,21.4984131 L18.49196,15.4887695 L21.5,15.4887695 Z M16.5002436,15.4887695 L16.5002436,21.4984131 L10.5,21.4984131 L10.5,15.4887695 L16.5002436,15.4887695 Z M21.5,10.5 L21.5,13.5057373 L10.5,13.5057373 L10.5,10.5 L21.5,10.5 Z" opacity=".599"/>
  </g>
</svg>
