<svg xmlns="http://www.w3.org/2000/svg" xmlns:xlink="http://www.w3.org/1999/xlink" width="32" height="32" viewBox="0 0 32 32">
  <defs>
    <rect id="application-vnd.flatpak-b" width="22" height="26" x="1" y="1"/>
    <filter id="application-vnd.flatpak-a" width="118.2%" height="115.4%" x="-9.1%" y="-3.8%" filterUnits="objectBoundingBox">
      <feOffset dy="1" in="SourceAlpha" result="shadowOffsetOuter1"/>
      <feGaussianBlur in="shadowOffsetOuter1" result="shadowBlurOuter1" stdDeviation=".5"/>
      <feColorMatrix in="shadowBlurOuter1" values="0 0 0 0 0   0 0 0 0 0   0 0 0 0 0  0 0 0 0.2 0"/>
    </filter>
  </defs>
  <g fill="none" fill-rule="evenodd">
    <g transform="translate(4 2)">
      <use fill="#000" filter="url(#application-vnd.flatpak-a)" xlink:href="#application-vnd.flatpak-b"/>
      <use fill="#F9FBFB" xlink:href="#application-vnd.flatpak-b"/>
      <path fill="#000" fill-opacity=".2" fill-rule="nonzero" d="M24,0 L0,0 L0,28 L24,28 L24,0 Z M23,1 L23,27 L1,27 L1,1 L23,1 Z"/>
    </g>
    <path fill="#2A4052" fill-opacity=".6" d="M16.001241,10.0110021 L16.1810205,10.0248239 C16.4177664,10.0554988 16.6432593,10.1342537 16.8308047,10.2494398 L16.8308047,10.2494398 L21.1231341,12.5466793 C21.6357669,12.8608405 21.9605561,13.4205126 21.9924994,14.0913771 L21.991,14.0795301 L21.9934082,14.0799161 L21.9934082,18.8546375 C21.9934082,19.4345304 21.7460076,19.8266856 21.2375391,20.1693832 L21.0923829,20.2617239 L16.8534496,22.5035894 C16.3476317,22.8090954 15.7306651,22.8345542 15.2228456,22.5893967 L10.8764373,20.2478121 C10.3430279,19.9257786 10.051231,19.5554366 10.0061685,19.0087674 L10,18.8552078 L10,14.0799161 L10.005,14.0795301 L10.0009088,14.0201483 C10.0343492,13.4662725 10.3053532,12.9588206 10.7529412,12.6277547 L10.8924541,12.5338565 L15.2091177,10.1841373 C15.4558124,10.0642063 15.7268338,10.0045577 16.001241,10.0110021 L16.001241,10.0110021 Z M20.993,15.6345301 L16.855549,17.8479269 C16.3024159,18.1857301 15.6168031,18.1857301 15.0851886,17.8603453 L15.0851886,17.8603453 L10.999,15.6345301 L11,18.8550704 C11.0000561,19.0591901 11.0644179,19.1740789 11.2733021,19.3164807 L11.3719061,19.3795349 L15.5827705,21.6476047 C15.7874142,21.7712062 16.0319029,21.7866564 16.2630335,21.6846028 L20.6001297,19.3917304 C20.8706431,19.2284135 20.9688619,19.118491 20.9891898,18.9371108 L20.9934082,18.8546375 L20.993,15.6345301 Z M15.9772356,11.0107138 L15.8749337,11.0159147 C15.7721745,11.0288495 15.6692975,11.0654418 15.5633512,11.129452 L15.5633512,11.129452 L11.3925414,13.3994612 C11.1661155,13.5380376 11.0164203,13.7933915 10.9993165,14.0241464 C11.0144765,14.3137856 11.1645073,14.5723166 11.3706167,14.6993982 L11.3706167,14.6993982 L15.5848699,16.9944923 C15.8180133,17.136875 16.1012057,17.136875 16.3590934,16.9803331 L16.3590934,16.9803331 L20.6008669,14.7120649 C20.8272928,14.5734884 20.976988,14.3181344 20.9940917,14.0873792 L20.993,14.0905301 L20.9934082,14.0799161 L20.9795763,13.9654504 C20.9349871,13.7265924 20.7999176,13.5213035 20.6260173,13.4138687 L20.6260173,13.4138687 L16.2499162,11.0726708 C16.1632414,11.0340352 16.070844,11.0130109 15.9772356,11.0107138 L15.9772356,11.0107138 Z"/>
  </g>
</svg>
