<svg xmlns="http://www.w3.org/2000/svg" xmlns:xlink="http://www.w3.org/1999/xlink" width="32" height="32" viewBox="0 0 32 32">
  <defs>
    <rect id="application-x-smb-server-b" width="22" height="26" x="1" y="1"/>
    <filter id="application-x-smb-server-a" width="118.2%" height="115.4%" x="-9.1%" y="-3.8%" filterUnits="objectBoundingBox">
      <feOffset dy="1" in="SourceAlpha" result="shadowOffsetOuter1"/>
      <feGaussianBlur in="shadowOffsetOuter1" result="shadowBlurOuter1" stdDeviation=".5"/>
      <feColorMatrix in="shadowBlurOuter1" values="0 0 0 0 0   0 0 0 0 0   0 0 0 0 0  0 0 0 0.2 0"/>
    </filter>
  </defs>
  <g fill="none" fill-rule="evenodd">
    <g transform="translate(4 2)">
      <use fill="#000" filter="url(#application-x-smb-server-a)" xlink:href="#application-x-smb-server-b"/>
      <use fill="#F9FBFB" xlink:href="#application-x-smb-server-b"/>
      <path fill="#000" fill-opacity=".2" fill-rule="nonzero" d="M24,0 L0,0 L0,28 L24,28 L24,0 Z M23,1 L23,27 L1,27 L1,1 L23,1 Z"/>
    </g>
    <path fill="#6198C4" d="M10,15 L22,15 L22,12 L10,12 L10,15 Z M21,13 L21,14 L18,14 L18,13 L21,13 Z M10,19 L22,19 L22,16 L10,16 L10,19 Z M21,17 L21,18 L18,18 L18,17 L21,17 Z M10,23 L22,23 L22,20 L10,20 L10,23 Z M21,21 L21,22 L18,22 L18,21 L21,21 Z"/>
  </g>
</svg>
