<svg xmlns="http://www.w3.org/2000/svg" xmlns:xlink="http://www.w3.org/1999/xlink" width="32" height="32" viewBox="0 0 32 32">
  <defs>
    <rect id="application-vnd.sun.xml.calc.template-b" width="22" height="26" x="1" y="1"/>
    <filter id="application-vnd.sun.xml.calc.template-a" width="118.2%" height="115.4%" x="-9.1%" y="-3.8%" filterUnits="objectBoundingBox">
      <feOffset dy="1" in="SourceAlpha" result="shadowOffsetOuter1"/>
      <feGaussianBlur in="shadowOffsetOuter1" result="shadowBlurOuter1" stdDeviation=".5"/>
      <feColorMatrix in="shadowBlurOuter1" values="0 0 0 0 0   0 0 0 0 0   0 0 0 0 0  0 0 0 0.2 0"/>
    </filter>
  </defs>
  <g fill="none" fill-rule="evenodd">
    <g transform="translate(4 2)">
      <use fill="#000" filter="url(#application-vnd.sun.xml.calc.template-a)" xlink:href="#application-vnd.sun.xml.calc.template-b"/>
      <use fill="#F9FBFB" xlink:href="#application-vnd.sun.xml.calc.template-b"/>
      <path fill="#000" fill-opacity=".2" fill-rule="nonzero" d="M24,0 L0,0 L0,28 L24,28 L24,0 Z M23,1 L23,27 L1,27 L1,1 L23,1 Z"/>
    </g>
    <path fill="#6198C4" d="M10,12 L10,13 L11,13 L11,12 L12,12 L12,22 L11,22 L11,21 L10,21 L10,22 L10,23 L22,23 L22,11 L10,11 L10,12 Z M15,12 L15,13 L13,13 L13,12 L15,12 Z M18,12 L18,13 L16,13 L16,12 L18,12 Z M21,12 L21,13 L19,13 L19,12 L21,12 Z M10,15 L11,15 L11,14 L10,14 L10,15 Z M15,14 L15,15 L13,15 L13,14 L15,14 Z M18,14 L18,15 L16,15 L16,14 L18,14 Z M21,14 L21,15 L19,15 L19,14 L21,14 Z M10,17 L11,17 L11,16 L10,16 L10,17 Z M15,16 L15,17 L13,17 L13,16 L15,16 Z M18,16 L18,17 L16,17 L16,16 L18,16 Z M21,16 L21,17 L19,17 L19,16 L21,16 Z M15,18 L15,22 L13,22 L13,18 L15,18 Z M18,18 L18,22 L16,22 L16,18 L18,18 Z M21,18 L21,22 L19,22 L19,18 L21,18 Z M10,20 L11,20 L11,18 L10,18 L10,20 Z"/>
  </g>
</svg>
