<svg xmlns="http://www.w3.org/2000/svg" xmlns:xlink="http://www.w3.org/1999/xlink" width="32" height="32" viewBox="0 0 32 32">
  <defs>
    <rect id="application-x-ipynb+json-b" width="22" height="26" x="1" y="1"/>
    <filter id="application-x-ipynb+json-a" width="118.2%" height="115.4%" x="-9.1%" y="-3.8%" filterUnits="objectBoundingBox">
      <feOffset dy="1" in="SourceAlpha" result="shadowOffsetOuter1"/>
      <feGaussianBlur in="shadowOffsetOuter1" result="shadowBlurOuter1" stdDeviation=".5"/>
      <feColorMatrix in="shadowBlurOuter1" values="0 0 0 0 0   0 0 0 0 0   0 0 0 0 0  0 0 0 0.2 0"/>
    </filter>
  </defs>
  <g fill="none" fill-rule="evenodd">
    <g transform="translate(4 2)">
      <use fill="#000" filter="url(#application-x-ipynb+json-a)" xlink:href="#application-x-ipynb+json-b"/>
      <use fill="#F9FBFB" xlink:href="#application-x-ipynb+json-b"/>
      <path fill="#000" fill-opacity=".2" fill-rule="nonzero" d="M24,0 L0,0 L0,28 L24,28 L24,0 Z M23,1 L23,27 L1,27 L1,1 L23,1 Z"/>
    </g>
    <path fill="#2A4052" fill-opacity=".6" d="M11 10L11 11 10 11 10 21 11 21 11 22 9 22 9 10 11 10zM22 10L22 22 20 22 20 21 21 21 21 11 20 11 20 10 22 10zM13.137577 11.7801702L15.766644 17.1531082C15.9125257 16.816409 16.0600912 16.4557561 16.2087061 16.0736036 16.5664487 15.153694 16.9086496 14.1660006 17.2230032 13.1780319L17.6226013 11.8639242 18.5848554 12.1360768 18.3351371 12.9729461 18.175929 13.4812355C17.855685 14.4877166 17.5068796 15.4944729 17.1407108 16.4360498L17.0060444 16.7773486 16.7381029 17.4257806C16.2931449 18.4676246 15.8564603 19.312041 15.4313175 19.9133144 14.9774326 20.5552373 14.5278114 20.9415304 14.0291382 21.0014548L13.8918802 21.0096529 13.3761432 21.0096529 13.3761432 20.0096529 13.8918802 20.0096529C14.0235925 20.0096529 14.2916523 19.7930169 14.614807 19.3359837 14.8101129 19.0597655 15.0129424 18.716165 15.2212328 18.3131614L12.239413 12.2198308 13.137577 11.7801702zM24 18.5000005C24 18.7761424 23.7761422 19.0000005 23.5 19.0000005 23.2238576 19.0000005 23 18.7761424 23 18.5000005 23 18.2238579 23.2238577 18.0000005 23.5 18.0000005 23.7761421 18.0000005 24 18.2238579 24 18.5000005zM24 21.5000005C24 21.7761424 23.7761422 22.0000005 23.5 22.0000005 23.2238576 22.0000005 23 21.7761424 23 21.5000005 23 21.2238579 23.2238577 21.0000005 23.5 21.0000005 23.7761421 21.0000005 24 21.2238579 24 21.5000005z"/>
  </g>
</svg>
