<svg xmlns="http://www.w3.org/2000/svg" xmlns:xlink="http://www.w3.org/1999/xlink" width="32" height="32" viewBox="0 0 32 32">
  <defs>
    <rect id="application-vnd.sun.xml.impress-b" width="22" height="26" x="1" y="1"/>
    <filter id="application-vnd.sun.xml.impress-a" width="118.2%" height="115.4%" x="-9.1%" y="-3.8%" filterUnits="objectBoundingBox">
      <feOffset dy="1" in="SourceAlpha" result="shadowOffsetOuter1"/>
      <feGaussianBlur in="shadowOffsetOuter1" result="shadowBlurOuter1" stdDeviation=".5"/>
      <feColorMatrix in="shadowBlurOuter1" values="0 0 0 0 0   0 0 0 0 0   0 0 0 0 0  0 0 0 0.2 0"/>
    </filter>
  </defs>
  <g fill="none" fill-rule="evenodd">
    <g transform="translate(4 2)">
      <use fill="#000" filter="url(#application-vnd.sun.xml.impress-a)" xlink:href="#application-vnd.sun.xml.impress-b"/>
      <use fill="#F9FBFB" xlink:href="#application-vnd.sun.xml.impress-b"/>
      <path fill="#000" fill-opacity=".2" fill-rule="nonzero" d="M24,0 L0,0 L0,28 L24,28 L24,0 Z M23,1 L23,27 L1,27 L1,1 L23,1 Z"/>
    </g>
    <path fill="#DD953E" d="M14,12 L9,12 L9,23 L15,23 L15,24 L17,24 L17,23 L23,23 L23,12 L18,12 L18,11 L14,11 L14,12 Z M10,13 L22,13 L22,22 L10,22 L10,13 Z M11,14 L11,15 L21,15 L21,14 L11,14 Z M11,21 L16,21 L16,18 L15,18 L15,20 L14,20 L14,17 L13,17 L13,20 L12,20 L12,16 L11,16 L11,21 Z M17,21 L21,21 L21,16 L17,16 L17,21 Z M20,17 L20,20 L19,18 L18,20 L18,17 L20,17 Z"/>
  </g>
</svg>
