<svg xmlns="http://www.w3.org/2000/svg" xmlns:xlink="http://www.w3.org/1999/xlink" width="32" height="32" viewBox="0 0 32 32">
  <defs>
    <rect id="image-x-eps-b" width="22" height="26" x="1" y="1"/>
    <filter id="image-x-eps-a" width="118.2%" height="115.4%" x="-9.1%" y="-3.8%" filterUnits="objectBoundingBox">
      <feOffset dy="1" in="SourceAlpha" result="shadowOffsetOuter1"/>
      <feGaussianBlur in="shadowOffsetOuter1" result="shadowBlurOuter1" stdDeviation=".5"/>
      <feColorMatrix in="shadowBlurOuter1" values="0 0 0 0 0   0 0 0 0 0   0 0 0 0 0  0 0 0 0.2 0"/>
    </filter>
  </defs>
  <g fill="none" fill-rule="evenodd">
    <g transform="translate(4 2)">
      <use fill="#000" filter="url(#image-x-eps-a)" xlink:href="#image-x-eps-b"/>
      <use fill="#F9FBFB" xlink:href="#image-x-eps-b"/>
      <path fill="#000" fill-opacity=".2" fill-rule="nonzero" d="M24,0 L0,0 L0,28 L24,28 L24,0 Z M23,1 L23,27 L1,27 L1,1 L23,1 Z"/>
    </g>
    <polygon fill="#2A4052" fill-opacity=".6" points="19 16 20 16 20 22 19 22"/>
    <polygon fill="#2A4052" fill-opacity=".6" points="19 14 20 14 20 15 19 15"/>
    <path fill="#2A4052" fill-opacity=".6" d="M15.1363636,13 L13.8636364,13 L11,22 L12.1000004,22 L12.8000002,20 L16.2000008,20 L16.8999996,22 L18,22 L15.1363636,13 Z M13.1000004,19 L14.5,14.5 L15.8999996,19 L13.1000004,19 Z"/>
  </g>
</svg>
