<svg xmlns="http://www.w3.org/2000/svg" xmlns:xlink="http://www.w3.org/1999/xlink" width="32" height="32" viewBox="0 0 32 32">
  <defs>
    <rect id="opera-unite-application-b" width="22" height="26" x="1" y="1"/>
    <filter id="opera-unite-application-a" width="118.2%" height="115.4%" x="-9.1%" y="-3.8%" filterUnits="objectBoundingBox">
      <feOffset dy="1" in="SourceAlpha" result="shadowOffsetOuter1"/>
      <feGaussianBlur in="shadowOffsetOuter1" result="shadowBlurOuter1" stdDeviation=".5"/>
      <feColorMatrix in="shadowBlurOuter1" values="0 0 0 0 0   0 0 0 0 0   0 0 0 0 0  0 0 0 0.2 0"/>
    </filter>
  </defs>
  <g fill="none" fill-rule="evenodd">
    <g transform="translate(4 2)">
      <use fill="#000" filter="url(#opera-unite-application-a)" xlink:href="#opera-unite-application-b"/>
      <use fill="#F9FBFB" xlink:href="#opera-unite-application-b"/>
      <path fill="#000" fill-opacity=".2" fill-rule="nonzero" d="M24,0 L0,0 L0,28 L24,28 L24,0 Z M23,1 L23,27 L1,27 L1,1 L23,1 Z"/>
    </g>
    <path fill="#2A4052" fill-opacity=".6" d="M21.9997078,20.5603222 C22.0167261,19.3013847 21.2915297,17.8054344 19.533565,16.7781206 C17.5001575,15.5785775 15.9632435,16.6121582 15.9632435,16.6121582 C15.9632435,16.6121582 17.6737325,16.2324354 18.3391613,17.4507062 C19.004453,18.6692563 18.4606641,19.3851318 18.1973798,19.8484299 C17.315824,21.400722 18.1593308,22.3082757 18.8719171,22.7265715 C19.5845036,23.1448672 20.8918512,23.2331944 21.6559945,21.8880232 C21.870871,21.5096159 21.9930488,21.0529496 21.9997078,20.5603222 L21.9997078,20.5603222 Z M19.4863047,13.0308587 C19.4863047,12.194407 18.9049137,11 17.3767643,11 C15.8484777,11 14.0804853,12.5520128 14.0857098,15.4198475 C14.0804859,17.8097094 15.7312371,18.6473842 15.7312371,18.6473842 C15.7312371,18.6473842 14.5533318,17.3354057 15.2586314,16.1404746 C15.9639309,14.9455436 16.8460367,15.0617176 17.372468,15.0617176 C19.1357169,15.0617176 19.4863047,13.8673105 19.4863047,13.0308587 L19.4863047,13.0308587 Z M17.6044745,17.8656129 C17.6044745,17.8656129 17.0717533,19.5614016 15.7011622,19.5383415 C14.330296,19.5148624 13.9922541,18.6781659 13.7291072,18.2150078 C12.8475514,16.6625757 11.6533198,16.9495689 10.9407333,17.3677249 C10.228147,17.7858809 9.50205272,18.8960487 10.266196,20.241499 C11.0299271,21.5866701 13.2390409,22.3657164 15.67968,20.9271869 C17.7183123,19.7371475 17.6044745,17.8656129 17.6044745,17.8656129 L17.6044745,17.8656129 Z"/>
  </g>
</svg>
