<svg xmlns="http://www.w3.org/2000/svg" xmlns:xlink="http://www.w3.org/1999/xlink" width="32" height="32" viewBox="0 0 32 32">
  <defs>
    <rect id="phatch-actionlist-b" width="22" height="26" x="1" y="1"/>
    <filter id="phatch-actionlist-a" width="118.2%" height="115.4%" x="-9.1%" y="-3.8%" filterUnits="objectBoundingBox">
      <feOffset dy="1" in="SourceAlpha" result="shadowOffsetOuter1"/>
      <feGaussianBlur in="shadowOffsetOuter1" result="shadowBlurOuter1" stdDeviation=".5"/>
      <feColorMatrix in="shadowBlurOuter1" values="0 0 0 0 0   0 0 0 0 0   0 0 0 0 0  0 0 0 0.2 0"/>
    </filter>
  </defs>
  <g fill="none" fill-rule="evenodd">
    <g transform="translate(4 2)">
      <use fill="#000" filter="url(#phatch-actionlist-a)" xlink:href="#phatch-actionlist-b"/>
      <use fill="#F9FBFB" xlink:href="#phatch-actionlist-b"/>
      <path fill="#000" fill-opacity=".2" fill-rule="nonzero" d="M24,0 L0,0 L0,28 L24,28 L24,0 Z M23,1 L23,27 L1,27 L1,1 L23,1 Z"/>
    </g>
    <path fill="#2A4052" fill-opacity=".6" d="M15.2458556,13.0011098 C20.0609653,12.9172055 23.4167663,17.4316343 24,18.313087 C23,19.3092912 19.1487141,20.9696315 15.2458556,20.9696315 C11.3429973,20.9696315 8,18.313087 8,18.313087 C8.07416884,17.9783756 10.0698789,13.0912959 15.2458556,13.0011098 Z M15.502031,14 C15.3281426,14 15.1559793,14.0162694 14.9901824,14.0446543 L14.9901824,14.6820018 C14.7169336,14.7426693 14.4635975,14.8528799 14.2345977,14.9986456 L13.7796204,14.543978 C13.4954729,14.7431889 13.2485129,14.9913144 13.0484086,15.2746951 L13.5033856,15.7293629 C13.3575213,15.9582112 13.2472329,16.2113743 13.1865275,16.4844382 L12.5446842,16.4844382 C12.5154629,16.6524166 12.5,16.8236724 12.5,17 C12.5,17.1763314 12.5154631,17.3516399 12.5446842,17.5196201 L13.1865275,17.5196201 C13.2472329,17.7926874 13.3575213,18.0458518 13.5033856,18.2746951 L13.0484086,18.7293631 C13.2488343,19.0131958 13.4989657,19.2566489 13.7836828,19.4560224 L14.2345977,19.0054124 C14.4635975,19.1511749 14.7169336,19.2613919 14.9901824,19.3220563 L14.9901824,19.9553443 C15.1559793,19.9837271 15.3281409,20 15.502031,20 C15.6808284,19.9999983 15.8558581,19.9853188 16.0260671,19.9553443 L16.0260671,19.3220563 C16.2993157,19.2613919 16.5526518,19.1511798 16.7816516,19.0054124 L17.2244418,19.4519611 C17.5084666,19.251674 17.7602079,19.00577 17.9597159,18.7212455 L17.5128652,18.2746951 C17.658728,18.0458488 17.7690148,17.7926874 17.8297218,17.5196201 L18.4553154,17.5196201 C18.4845369,17.3516413 18.5,17.1763265 18.5,17 C18.5,16.8236771 18.4845331,16.6524183 18.4553154,16.4844382 L17.8297218,16.4844382 C17.7690148,16.2113707 17.658728,15.958208 17.5128652,15.7293629 L17.9597159,15.2828143 C17.7605026,14.9987084 17.5120006,14.7481706 17.2285025,14.5480376 L16.7816516,14.9986456 C16.5526518,14.8528816 16.2993157,14.7426678 16.0260671,14.6820018 L16.0260671,14.048714 C15.8558581,14.0187408 15.6808284,14 15.502031,14 Z M15.4979679,15.6197564 C16.2606935,15.6197598 16.8832083,16.2377906 16.8832083,17 C16.8832083,17.7622111 16.2606935,18.3802438 15.4979679,18.3802438 C14.7352423,18.3802471 14.1167898,17.7622096 14.1167898,17 C14.1167898,16.2377941 14.7352423,15.6197564 15.4979679,15.6197564 Z"/>
  </g>
</svg>
