<svg xmlns="http://www.w3.org/2000/svg" xmlns:xlink="http://www.w3.org/1999/xlink" width="32" height="32" viewBox="0 0 32 32">
  <defs>
    <rect id="text-r-b" width="22" height="26" x="1" y="1"/>
    <filter id="text-r-a" width="118.2%" height="115.4%" x="-9.1%" y="-3.8%" filterUnits="objectBoundingBox">
      <feOffset dy="1" in="SourceAlpha" result="shadowOffsetOuter1"/>
      <feGaussianBlur in="shadowOffsetOuter1" result="shadowBlurOuter1" stdDeviation=".5"/>
      <feColorMatrix in="shadowBlurOuter1" values="0 0 0 0 0   0 0 0 0 0   0 0 0 0 0  0 0 0 0.2 0"/>
    </filter>
  </defs>
  <g fill="none" fill-rule="evenodd">
    <g transform="translate(4 2)">
      <use fill="#000" filter="url(#text-r-a)" xlink:href="#text-r-b"/>
      <use fill="#F9FBFB" xlink:href="#text-r-b"/>
      <path fill="#000" fill-opacity=".2" fill-rule="nonzero" d="M24,0 L0,0 L0,28 L24,28 L24,0 Z M23,1 L23,27 L1,27 L1,1 L23,1 Z"/>
    </g>
    <path fill="#6198C4" d="M14,21 L14,16 L16.0054645,16 L18.5054645,21 L19.7759563,21 L17.2019196,16 L17.5,16 C18.8807119,16 20,14.8807119 20,13.5 C20,12.1192881 18.8807119,11 17.5,11 L13,11 L13,11 L13,21 L14,21 Z M17.5,15 L14,15 L14,15 L14,12 L17.5,12 C18.3284271,12 19,12.6715729 19,13.5 C19,14.3284271 18.3284271,15 17.5,15 Z"/>
  </g>
</svg>
