<svg xmlns="http://www.w3.org/2000/svg" xmlns:xlink="http://www.w3.org/1999/xlink" width="32" height="32" viewBox="0 0 32 32">
  <defs>
    <rect id="text-x-c++hdr-b" width="22" height="26" x="1" y="1"/>
    <filter id="text-x-c++hdr-a" width="118.2%" height="115.4%" x="-9.1%" y="-3.8%" filterUnits="objectBoundingBox">
      <feOffset dy="1" in="SourceAlpha" result="shadowOffsetOuter1"/>
      <feGaussianBlur in="shadowOffsetOuter1" result="shadowBlurOuter1" stdDeviation=".5"/>
      <feColorMatrix in="shadowBlurOuter1" values="0 0 0 0 0   0 0 0 0 0   0 0 0 0 0  0 0 0 0.2 0"/>
    </filter>
  </defs>
  <g fill="none" fill-rule="evenodd">
    <g transform="translate(4 2)">
      <use fill="#000" filter="url(#text-x-c++hdr-a)" xlink:href="#text-x-c++hdr-b"/>
      <use fill="#F9FBFB" xlink:href="#text-x-c++hdr-b"/>
      <path fill="#000" fill-opacity=".2" fill-rule="nonzero" d="M24,0 L0,0 L0,28 L24,28 L24,0 Z M23,1 L23,27 L1,27 L1,1 L23,1 Z"/>
    </g>
    <path fill="#2A4052" fill-opacity=".6" d="M11,18 L11,22 L10,22 L10,13 L11,13 L11,17 L12.6754236,17 C13.406967,17 14,17.5932003 14,18.3399082 L14,22 L13,22 L13,18.3410378 C13,18.1526878 12.8430634,18 12.6697407,18 L11,18 Z M9,21 L9,22 L8,22 L8,21 L9,21 Z"/>
    <polygon fill="#2A4052" fill-opacity=".6" points="14 15 14 16 16 16 16 18 17 18 17 16 19 16 19 15 17 15 17 13 16 13 16 15"/>
    <polygon fill="#2A4052" fill-opacity=".6" points="20 15 20 16 22 16 22 18 23 18 23 16 25 16 25 15 23 15 23 13 22 13 22 15"/>
  </g>
</svg>
