<svg xmlns="http://www.w3.org/2000/svg" xmlns:xlink="http://www.w3.org/1999/xlink" width="32" height="32" viewBox="0 0 32 32">
  <defs>
    <rect id="text-x-rust-b" width="22" height="26" x="1" y="1"/>
    <filter id="text-x-rust-a" width="118.2%" height="115.4%" x="-9.1%" y="-3.8%" filterUnits="objectBoundingBox">
      <feOffset dy="1" in="SourceAlpha" result="shadowOffsetOuter1"/>
      <feGaussianBlur in="shadowOffsetOuter1" result="shadowBlurOuter1" stdDeviation=".5"/>
      <feColorMatrix in="shadowBlurOuter1" values="0 0 0 0 0   0 0 0 0 0   0 0 0 0 0  0 0 0 0.2 0"/>
    </filter>
  </defs>
  <g fill="none" fill-rule="evenodd">
    <g transform="translate(4 2)">
      <use fill="#000" filter="url(#text-x-rust-a)" xlink:href="#text-x-rust-b"/>
      <use fill="#F9FBFB" xlink:href="#text-x-rust-b"/>
      <path fill="#000" fill-opacity=".2" fill-rule="nonzero" d="M24,0 L0,0 L0,28 L24,28 L24,0 Z M23,1 L23,27 L1,27 L1,1 L23,1 Z"/>
    </g>
    <path fill="#DD953E" d="M18.5,12 C19.6045695,12 20.5,12.8954305 20.5,14 C20.5,15.1045695 19.6045695,16 18.5,16 L18.5,16 L17,16 C17,16 18.2845459,19 19.5,19 C21.1743164,19 21,17 21,17 L21,17 L22,17 C22,17 22,20 19.7816162,20 L19.7816162,20 L19,20 C17,20 16.723877,16 15,16 L15,16 L13,16 L13,19 L14.5,19 L14.5,20 L11,20 L11,19 L12,19 L12,13 L11,13 L11,12 Z M18,13 L13,13 L13,15 L18,15 C18.5522847,15 19,14.5522847 19,14 C19,13.4477153 18.5522847,13 18,13 L18,13 Z"/>
  </g>
</svg>
