<svg xmlns="http://www.w3.org/2000/svg" xmlns:xlink="http://www.w3.org/1999/xlink" width="32" height="32" viewBox="0 0 32 32">
  <defs>
    <rect id="text-x-octave-b" width="22" height="26" x="1" y="1"/>
    <filter id="text-x-octave-a" width="118.2%" height="115.4%" x="-9.1%" y="-3.8%" filterUnits="objectBoundingBox">
      <feOffset dy="1" in="SourceAlpha" result="shadowOffsetOuter1"/>
      <feGaussianBlur in="shadowOffsetOuter1" result="shadowBlurOuter1" stdDeviation=".5"/>
      <feColorMatrix in="shadowBlurOuter1" values="0 0 0 0 0   0 0 0 0 0   0 0 0 0 0  0 0 0 0.2 0"/>
    </filter>
  </defs>
  <g fill="none" fill-rule="evenodd">
    <g transform="translate(4 2)">
      <use fill="#000" filter="url(#text-x-octave-a)" xlink:href="#text-x-octave-b"/>
      <use fill="#F9FBFB" xlink:href="#text-x-octave-b"/>
      <path fill="#000" fill-opacity=".2" fill-rule="nonzero" d="M24,0 L0,0 L0,28 L24,28 L24,0 Z M23,1 L23,27 L1,27 L1,1 L23,1 Z"/>
    </g>
    <path fill="#DD953E" d="M16.5,9 C12.9101491,9 10,11.9101491 10,15.5 C10,19.0898509 12.9101491,22 16.5,22 C20.0898509,22 23,19.0898509 23,15.5 C23,13.7760928 22.3151805,12.1227924 21.0961941,10.9038059 C19.8772076,9.68481946 18.2239072,9 16.5,9 L16.5,9 Z M17,10 C19.7614237,10 22,12.2385763 22,15 C22,17.7614237 19.7614237,20 17,20 C14.2385763,20 12,17.7614237 12,15 C12,12.2385763 14.2385763,10 17,10 Z" opacity=".603"/>
    <path fill="#DD953E" d="M20,10 C19.2672095,10 19,10.2672095 19,11 L19,12 C19,12.7327905 19.2672095,13 20,13 L21,13 C21.7327905,13 22,12.7327905 22,12 L22,11 C22,10.2672095 21.7327905,10 21,10 L20,10 Z M10,14 C9.446,14 9,14.446 9,15 L9,18 C9,18.554 9.446,19 10,19 L13,19 C13.554,19 14,18.554 14,18 L14,15 C14,14.446 13.554,14 13,14 L10,14 Z M20,18 C19.3566045,18 19,18.3566045 19,19 L19,21 C19,21.6433955 19.3566045,22 20,22 L22,22 C22.6433955,22 23,21.6433955 23,21 L23,19 C23,18.3566045 22.6433955,18 22,18 L20,18 Z"/>
  </g>
</svg>
