<svg xmlns="http://www.w3.org/2000/svg" xmlns:xlink="http://www.w3.org/1999/xlink" width="32" height="32" viewBox="0 0 32 32">
  <defs>
    <rect id="text-x-copying-b" width="22" height="26" x="1" y="1"/>
    <filter id="text-x-copying-a" width="118.2%" height="115.4%" x="-9.1%" y="-3.8%" filterUnits="objectBoundingBox">
      <feOffset dy="1" in="SourceAlpha" result="shadowOffsetOuter1"/>
      <feGaussianBlur in="shadowOffsetOuter1" result="shadowBlurOuter1" stdDeviation=".5"/>
      <feColorMatrix in="shadowBlurOuter1" values="0 0 0 0 0   0 0 0 0 0   0 0 0 0 0  0 0 0 0.2 0"/>
    </filter>
    <filter id="text-x-copying-c">
      <feColorMatrix in="SourceGraphic" values="0 0 0 0 0.164158 0 0 0 0 0.252840 0 0 0 0 0.323143 0 0 0 0.600000 0"/>
    </filter>
  </defs>
  <g fill="none" fill-rule="evenodd">
    <g transform="translate(4 2)">
      <use fill="#000" filter="url(#text-x-copying-a)" xlink:href="#text-x-copying-b"/>
      <use fill="#F9FBFB" xlink:href="#text-x-copying-b"/>
      <path fill="#000" fill-opacity=".2" fill-rule="nonzero" d="M24,0 L0,0 L0,28 L24,28 L24,0 Z M23,1 L23,27 L1,27 L1,1 L23,1 Z"/>
    </g>
    <g filter="url(#text-x-copying-c)">
      <g transform="translate(9 10)">
        <circle cx="7" cy="7" r="6.5" stroke="#FFF"/>
        <path stroke="#FFF" stroke-linecap="round" stroke-linejoin="round" stroke-width="1.2" d="M9.5,4.78607761 C8.8799644,4.00108378 7.93707222,3.5 6.88112079,3.5 C5.01377934,3.5 3.5,5.06700338 3.5,7 C3.5,8.93299662 5.01377934,10.5 6.88112079,10.5 L6.88112079,10.5 C7.91293506,10.5 8.83679966,10.0215622 9.45697771,9.26730544"/>
      </g>
    </g>
  </g>
</svg>
