<svg xmlns="http://www.w3.org/2000/svg" xmlns:xlink="http://www.w3.org/1999/xlink" width="32" height="32" viewBox="0 0 32 32">
  <defs>
    <rect id="video-x-mkv-b" width="22" height="26" x="1" y="1"/>
    <filter id="video-x-mkv-a" width="118.2%" height="115.4%" x="-9.1%" y="-3.8%" filterUnits="objectBoundingBox">
      <feOffset dy="1" in="SourceAlpha" result="shadowOffsetOuter1"/>
      <feGaussianBlur in="shadowOffsetOuter1" result="shadowBlurOuter1" stdDeviation=".5"/>
      <feColorMatrix in="shadowBlurOuter1" values="0 0 0 0 0   0 0 0 0 0   0 0 0 0 0  0 0 0 0.2 0"/>
    </filter>
  </defs>
  <g fill="none" fill-rule="evenodd">
    <g transform="translate(4 2)">
      <use fill="#000" filter="url(#video-x-mkv-a)" xlink:href="#video-x-mkv-b"/>
      <use fill="#F9FBFB" xlink:href="#video-x-mkv-b"/>
      <path fill="#000" fill-opacity=".2" fill-rule="nonzero" d="M24,0 L0,0 L0,28 L24,28 L24,0 Z M23,1 L23,27 L1,27 L1,1 L23,1 Z"/>
    </g>
    <path fill="#DC7692" d="M10 21L11.5 24.75 13 21 14 21 14 27 13 27 13 23.5 12 26 11 26 10 23.5 10 27 9 27 9 21 10 21zM20 21L21.5 25.5 23 21 24 21 22 27 21 27 19.143 21.429 17 24 19.5 27 18 27 16 24.6 16 27 15 27 15 21 16 21 16 23.4 18 21 20 21zM16 20C12.6916 20 10 17.3084 10 14 10 10.6916 12.6916 8 16 8 19.3084 8 22 10.6916 22 14 22 17.3084 19.3084 20 16 20L16 20zM16 9C13.2433333 9 11 11.2427778 11 14 11 16.7572222 13.2433333 19 16 19 18.7566667 19 21 16.7572222 21 14 21 11.2427778 18.7572222 9 16 9L16 9z"/>
    <path fill="#DC7692" d="M19.8984464,13.8219423 C20.0338512,13.9017931 20.0338512,14.105239 19.8984464,14.1843955 L17.1103082,15.8223782 L14.2748117,17.4735537 C14.141408,17.5506271 14,17.4499457 14,17.2916328 L14,13.9996971 L14,10.7084558 C14,10.5494486 14.141408,10.4494615 14.2748117,10.5265349 L17.1216475,12.1777104 L19.8984464,13.8219423 L19.8984464,13.8219423 Z"/>
  </g>
</svg>
