<svg xmlns="http://www.w3.org/2000/svg" xmlns:xlink="http://www.w3.org/1999/xlink" width="32" height="32" viewBox="0 0 32 32">
  <defs>
    <rect id="x-content-blank-cd-b" width="22" height="26" x="1" y="1"/>
    <filter id="x-content-blank-cd-a" width="118.2%" height="115.4%" x="-9.1%" y="-3.8%" filterUnits="objectBoundingBox">
      <feOffset dy="1" in="SourceAlpha" result="shadowOffsetOuter1"/>
      <feGaussianBlur in="shadowOffsetOuter1" result="shadowBlurOuter1" stdDeviation=".5"/>
      <feColorMatrix in="shadowBlurOuter1" values="0 0 0 0 0   0 0 0 0 0   0 0 0 0 0  0 0 0 0.2 0"/>
    </filter>
  </defs>
  <g fill="none" fill-rule="evenodd">
    <g transform="translate(4 2)">
      <use fill="#000" filter="url(#x-content-blank-cd-a)" xlink:href="#x-content-blank-cd-b"/>
      <use fill="#F9FBFB" xlink:href="#x-content-blank-cd-b"/>
      <path fill="#000" fill-opacity=".2" fill-rule="nonzero" d="M24,0 L0,0 L0,28 L24,28 L24,0 Z M23,1 L23,27 L1,27 L1,1 L23,1 Z"/>
    </g>
    <path fill="#2A4052" fill-opacity=".6" d="M16,10 C19.3137085,10 22,12.6862915 22,16 C22,19.3137085 19.3137085,22 16,22 C12.6862915,22 10,19.3137085 10,16 C10,12.6862915 12.6862915,10 16,10 Z M16,13.3333333 C14.5272407,13.3333333 13.3333333,14.5272407 13.3333333,16 C13.3333333,17.4727593 14.5272407,18.6666667 16,18.6666667 C17.4727593,18.6666667 18.6666667,17.4727593 18.6666667,16 C18.6666667,14.5272407 17.4727593,13.3333333 16,13.3333333 Z M16,14 C17.1045695,14 18,14.8954305 18,16 C18,17.1045695 17.1045695,18 16,18 C14.8954305,18 14,17.1045695 14,16 C14,14.8954305 14.8954305,14 16,14 Z M16,14.6666667 C15.2636203,14.6666667 14.6666667,15.2636203 14.6666667,16 C14.6666667,16.7363797 15.2636203,17.3333333 16,17.3333333 C16.7363797,17.3333333 17.3333333,16.7363797 17.3333333,16 C17.3333333,15.2636203 16.7363797,14.6666667 16,14.6666667 Z M16,11.3333333 C13.4226712,11.3333333 11.3333333,13.4226712 11.3333333,16 C11.3333333,16.1840949 11.4825718,16.3333333 11.6666667,16.3333333 C11.8507616,16.3333333 12,16.1840949 12,16 C12,13.790861 13.790861,12 16,12 C16.1840949,12 16.3333333,11.8507616 16.3333333,11.6666667 C16.3333333,11.4825718 16.1840949,11.3333333 16,11.3333333 Z"/>
  </g>
</svg>
