<svg xmlns="http://www.w3.org/2000/svg" xmlns:xlink="http://www.w3.org/1999/xlink" width="32" height="32" viewBox="0 0 32 32">
  <defs>
    <rect id="x-package-repository-b" width="22" height="26" x="1" y="1"/>
    <filter id="x-package-repository-a" width="118.2%" height="115.4%" x="-9.1%" y="-3.8%" filterUnits="objectBoundingBox">
      <feOffset dy="1" in="SourceAlpha" result="shadowOffsetOuter1"/>
      <feGaussianBlur in="shadowOffsetOuter1" result="shadowBlurOuter1" stdDeviation=".5"/>
      <feColorMatrix in="shadowBlurOuter1" values="0 0 0 0 0   0 0 0 0 0   0 0 0 0 0  0 0 0 0.2 0"/>
    </filter>
  </defs>
  <g fill="none" fill-rule="evenodd">
    <g transform="translate(4 2)">
      <use fill="#000" filter="url(#x-package-repository-a)" xlink:href="#x-package-repository-b"/>
      <use fill="#F9FBFB" xlink:href="#x-package-repository-b"/>
      <path fill="#000" fill-opacity=".2" fill-rule="nonzero" d="M24,0 L0,0 L0,28 L24,28 L24,0 Z M23,1 L23,27 L1,27 L1,1 L23,1 Z"/>
    </g>
    <path fill="#2A4052" fill-opacity=".6" d="M21,12 L21,21 L12,21 L12,12 L21,12 Z M15.9999995,16.9999995 L12.9999995,16.9999995 L13,20 L15.9999995,19.9999995 L15.9999995,16.9999995 Z M19.9999995,16.9999995 L16.9999995,16.9999995 L16.9999995,19.9999995 L20,20 L19.9999995,16.9999995 Z M16.9999995,12.9999995 L16.9999995,15.9999995 L19.9999995,15.9999995 L20,13 L16.9999995,12.9999995 Z M15.9999995,12.9999995 L13,13 L12.9999995,15.9999995 L15.9999995,15.9999995 L15.9999995,12.9999995 Z"/>
  </g>
</svg>
