<svg xmlns="http://www.w3.org/2000/svg" xmlns:xlink="http://www.w3.org/1999/xlink" width="48" height="48" viewBox="0 0 48 48">
  <defs>
    <rect id="application-x-kdenlive-b" width="32" height="39" x="1" y="1"/>
    <filter id="application-x-kdenlive-a" width="112.5%" height="110.3%" x="-6.2%" y="-2.6%" filterUnits="objectBoundingBox">
      <feOffset dy="1" in="SourceAlpha" result="shadowOffsetOuter1"/>
      <feGaussianBlur in="shadowOffsetOuter1" result="shadowBlurOuter1" stdDeviation=".5"/>
      <feColorMatrix in="shadowBlurOuter1" values="0 0 0 0 0   0 0 0 0 0   0 0 0 0 0  0 0 0 0.2 0"/>
    </filter>
  </defs>
  <g fill="none" fill-rule="evenodd">
    <g transform="translate(7 4)">
      <use fill="#000" filter="url(#application-x-kdenlive-a)" xlink:href="#application-x-kdenlive-b"/>
      <use fill="#F9FBFB" xlink:href="#application-x-kdenlive-b"/>
      <path fill="#000" fill-opacity=".2" fill-rule="nonzero" d="M34,0 L0,0 L0,41 L34,41 L34,0 Z M33,1 L33,40 L1,40 L1,1 L33,1 Z"/>
    </g>
    <path fill="#2A4052" fill-opacity=".6" d="M21.499,18 L23,20 L22.999,31 L16.7125,31 C16.3506688,31 16.0534969,30.7345424 16.0064809,30.3880385 L16,30.2916666 L16,18.7083334 C16,18.348618 16.2670193,18.053184 16.6155612,18.006443 L16.7125,18 L21.499,18 Z M32.2897949,18 C32.6516262,18 32.948798,18.2654577 32.995814,18.6119615 L33.0022949,18.7083334 L33.0022949,30.2916666 C33.0022949,30.6513821 32.7352757,30.946816 32.3867337,30.993557 L32.2897949,31 L25.999,31 L26,20 L27.556,18 L32.2897949,18 Z M22,28 L19,28 L19,29 L22,29 L22,28 Z M27.0421447,22.3751439 C27.0142301,22.4216684 26.9994551,22.4748921 26.9993928,22.5291484 L26.9937234,27.469809 C26.9935333,27.6354943 27.1276936,27.769963 27.2933789,27.7701531 C27.3478072,27.7702155 27.401227,27.7554695 27.4479158,27.7274948 L31.5708023,25.2571645 C31.7129281,25.1720063 31.7591095,24.9877562 31.6739513,24.8456304 C31.6486103,24.8033373 31.6132362,24.7679417 31.5709585,24.7425751 L27.4537413,22.2722448 C27.3116673,22.1870004 27.1273892,22.2330699 27.0421447,22.3751439 Z M22,26 L18,26 L18,27 L22,27 L22,26 Z M22,24 L17,24 L17,25 L22,25 L22,24 Z M22,22 L19,22 L19,23 L22,23 L22,22 Z M22,20 L21,20 L21,21 L22,21 L22,20 Z"/>
    <polygon fill="#D66565" points="22 17 26.993 17 25 19.5 25 31 24.015 31 24 19.5"/>
  </g>
</svg>
