<svg xmlns="http://www.w3.org/2000/svg" xmlns:xlink="http://www.w3.org/1999/xlink" width="48" height="48" viewBox="0 0 48 48">
  <defs>
    <rect id="application-x-smb-server-b" width="32" height="39" x="1" y="1"/>
    <filter id="application-x-smb-server-a" width="112.5%" height="110.3%" x="-6.2%" y="-2.6%" filterUnits="objectBoundingBox">
      <feOffset dy="1" in="SourceAlpha" result="shadowOffsetOuter1"/>
      <feGaussianBlur in="shadowOffsetOuter1" result="shadowBlurOuter1" stdDeviation=".5"/>
      <feColorMatrix in="shadowBlurOuter1" values="0 0 0 0 0   0 0 0 0 0   0 0 0 0 0  0 0 0 0.2 0"/>
    </filter>
  </defs>
  <g fill="none" fill-rule="evenodd">
    <g transform="translate(7 4)">
      <use fill="#000" filter="url(#application-x-smb-server-a)" xlink:href="#application-x-smb-server-b"/>
      <use fill="#F9FBFB" xlink:href="#application-x-smb-server-b"/>
      <path fill="#000" fill-opacity=".2" fill-rule="nonzero" d="M34,0 L0,0 L0,41 L34,41 L34,0 Z M33,1 L33,40 L1,40 L1,1 L33,1 Z"/>
    </g>
    <path fill="#6198C4" d="M15,17 L15,20 L33,20 L33,17 L15,17 L15,17 Z M28,18 L32,18 L32,19 L28,19 L28,18 L28,18 Z M15,22 L15,25 L33,25 L33,22 L15,22 L15,22 Z M28,23 L32,23 L32,24 L28,24 L28,23 L28,23 Z M15,27 L15,30 L33,30 L33,27 L15,27 L15,27 Z M28,28 L32,28 L32,29 L28,29 L28,28 L28,28 Z M15,32 L15,35 L33,35 L33,32 L15,32 L15,32 Z M28,33 L32,33 L32,34 L28,34 L28,33 L28,33 Z"/>
  </g>
</svg>
