<svg xmlns="http://www.w3.org/2000/svg" xmlns:xlink="http://www.w3.org/1999/xlink" width="48" height="48" viewBox="0 0 48 48">
  <defs>
    <rect id="application-x-zoom-b" width="32" height="39" x="1" y="1"/>
    <filter id="application-x-zoom-a" width="112.5%" height="110.3%" x="-6.2%" y="-2.6%" filterUnits="objectBoundingBox">
      <feOffset dy="1" in="SourceAlpha" result="shadowOffsetOuter1"/>
      <feGaussianBlur in="shadowOffsetOuter1" result="shadowBlurOuter1" stdDeviation=".5"/>
      <feColorMatrix in="shadowBlurOuter1" values="0 0 0 0 0   0 0 0 0 0   0 0 0 0 0  0 0 0 0.2 0"/>
    </filter>
  </defs>
  <g fill="none" fill-rule="evenodd">
    <g transform="translate(7 4)">
      <use fill="#000" filter="url(#application-x-zoom-a)" xlink:href="#application-x-zoom-b"/>
      <use fill="#F9FBFB" xlink:href="#application-x-zoom-b"/>
      <path fill="#000" fill-opacity=".2" fill-rule="nonzero" d="M34,0 L0,0 L0,41 L34,41 L34,0 Z M33,1 L33,40 L1,40 L1,1 L33,1 Z"/>
    </g>
    <circle cx="24" cy="24" r="9" fill="#6198C4"/>
    <path fill="#FFF" fill-rule="nonzero" d="M18,21 L18,22.5 L18,26.5 C18,27.2832145 18.7108125,28 19.5,28 L25.5,28 L27,28 L27,22.5 C27,21.7167855 26.3204378,21 25.5,21 L19.5,21 L18,21 Z M31,21 L27.5,23.25 L27.5,26 L31,28 L31,21 Z"/>
  </g>
</svg>
