<svg xmlns="http://www.w3.org/2000/svg" xmlns:xlink="http://www.w3.org/1999/xlink" width="48" height="48" viewBox="0 0 48 48">
  <defs>
    <rect id="application-vnd.google-apps.drawing-b" width="32" height="39" x="1" y="1"/>
    <filter id="application-vnd.google-apps.drawing-a" width="112.5%" height="110.3%" x="-6.2%" y="-2.6%" filterUnits="objectBoundingBox">
      <feOffset dy="1" in="SourceAlpha" result="shadowOffsetOuter1"/>
      <feGaussianBlur in="shadowOffsetOuter1" result="shadowBlurOuter1" stdDeviation=".5"/>
      <feColorMatrix in="shadowBlurOuter1" values="0 0 0 0 0   0 0 0 0 0   0 0 0 0 0  0 0 0 0.2 0"/>
    </filter>
  </defs>
  <g fill="none" fill-rule="evenodd">
    <g transform="translate(7 4)">
      <use fill="#000" filter="url(#application-vnd.google-apps.drawing-a)" xlink:href="#application-vnd.google-apps.drawing-b"/>
      <use fill="#F9FBFB" xlink:href="#application-vnd.google-apps.drawing-b"/>
      <path fill="#000" fill-opacity=".2" fill-rule="nonzero" d="M34,0 L0,0 L0,41 L34,41 L34,0 Z M33,1 L33,40 L1,40 L1,1 L33,1 Z"/>
    </g>
    <path fill="#2A4052" fill-opacity=".6" d="M20.4929199,12.0253906 C25.1873403,12.0253906 28.9929199,15.8309703 28.9929199,20.5253906 C28.9929199,20.6933979 28.9880456,20.8602667 28.9784307,21.0258634 L36,21.0253906 L36,36.0253906 L21,36.0253906 L21.0003749,29.0104931 C20.8324869,29.0203783 20.6632888,29.0253906 20.4929199,29.0253906 C15.7984995,29.0253906 11.9929199,25.219811 11.9929199,20.5253906 C11.9929199,15.8309703 15.7984995,12.0253906 20.4929199,12.0253906 Z M35,22.025 L28.8610158,22.0252275 C28.2397674,25.5147898 25.4892042,28.2675474 22.0007711,28.8920558 L22,35.025 L35,35.025 L35,22.025 Z M20.4929199,13.0253906 C16.3507843,13.0253906 12.9929199,16.383255 12.9929199,20.5253906 C12.9929199,24.6675262 16.3507843,28.0253906 20.4929199,28.0253906 C20.6635124,28.0253906 20.8327747,28.0196951 21.0005269,28.0084838 L21,21.0253906 L27.9764789,21.0259792 C27.9873821,20.8605247 27.9929199,20.6936044 27.9929199,20.5253906 C27.9929199,16.383255 24.6350555,13.0253906 20.4929199,13.0253906 Z M27.8429752,22.0249846 L22,22.025 L22.0005434,27.8738118 C24.9357535,27.2748077 27.247098,24.9613313 27.8429752,22.0249846 Z"/>
  </g>
</svg>
