<svg xmlns="http://www.w3.org/2000/svg" xmlns:xlink="http://www.w3.org/1999/xlink" width="48" height="48" viewBox="0 0 48 48">
  <defs>
    <rect id="application-x-msdos-program-b" width="32" height="39" x="1" y="1"/>
    <filter id="application-x-msdos-program-a" width="112.5%" height="110.3%" x="-6.2%" y="-2.6%" filterUnits="objectBoundingBox">
      <feOffset dy="1" in="SourceAlpha" result="shadowOffsetOuter1"/>
      <feGaussianBlur in="shadowOffsetOuter1" result="shadowBlurOuter1" stdDeviation=".5"/>
      <feColorMatrix in="shadowBlurOuter1" values="0 0 0 0 0   0 0 0 0 0   0 0 0 0 0  0 0 0 0.2 0"/>
    </filter>
  </defs>
  <g fill="none" fill-rule="evenodd">
    <g transform="translate(7 4)">
      <use fill="#000" filter="url(#application-x-msdos-program-a)" xlink:href="#application-x-msdos-program-b"/>
      <use fill="#F9FBFB" xlink:href="#application-x-msdos-program-b"/>
      <path fill="#000" fill-opacity=".2" fill-rule="nonzero" d="M34,0 L0,0 L0,41 L34,41 L34,0 Z M33,1 L33,40 L1,40 L1,1 L33,1 Z"/>
    </g>
    <path stroke="#6198C4" d="M22.5,26.5 L22.5,32.5 L16.5,32.5 L16.5,26.5 L22.5,26.5 Z M25.5,26.5 L31.5,26.5 L31.5,32.5 L25.5,32.5 L25.5,26.5 Z M22.5,17.5 L22.5,23.5 L16.5,23.5 L16.5,17.5 L22.5,17.5 Z M25.5,17.5 L31.5,17.5 L31.5,23.5 L25.5,23.5 L25.5,17.5 Z"/>
  </g>
</svg>
