<svg xmlns="http://www.w3.org/2000/svg" xmlns:xlink="http://www.w3.org/1999/xlink" width="48" height="48" viewBox="0 0 48 48">
  <defs>
    <rect id="application-x-xz-b" width="32" height="39" x="1" y="1"/>
    <filter id="application-x-xz-a" width="112.5%" height="110.3%" x="-6.2%" y="-2.6%" filterUnits="objectBoundingBox">
      <feOffset dy="1" in="SourceAlpha" result="shadowOffsetOuter1"/>
      <feGaussianBlur in="shadowOffsetOuter1" result="shadowBlurOuter1" stdDeviation=".5"/>
      <feColorMatrix in="shadowBlurOuter1" values="0 0 0 0 0   0 0 0 0 0   0 0 0 0 0  0 0 0 0.2 0"/>
    </filter>
  </defs>
  <g fill="none" fill-rule="evenodd">
    <g transform="translate(7 4)">
      <use fill="#000" filter="url(#application-x-xz-a)" xlink:href="#application-x-xz-b"/>
      <use fill="#F9FBFB" xlink:href="#application-x-xz-b"/>
      <path fill="#000" fill-opacity=".2" fill-rule="nonzero" d="M34,0 L0,0 L0,41 L34,41 L34,0 Z M33,1 L33,40 L1,40 L1,1 L33,1 Z"/>
    </g>
    <path fill="#5D636B" d="M17.0142246 39L19.8555332 34.7661133 17.1658359 31 18.5415684 31 20.5125156 33.7890625 22.5115391 31 23.8198887 31 21.1301914 34.7436523 23.9715 39 22.5901523 39 20.4619785 35.6533203 18.3843418 39 17.0142246 39zM25 39L25 38.0678711 29.6972656 32 25 32 25 31 31 31 31 32 26.4038086 37.9892578 31 37.9892578 31 39 25 39zM18.999 22L18.999 26 8 26 8 22 18.999 22zM40 22L40 26 28.999 26 28.999 22 40 22zM26 22L26 26 22 26 22 25 25 25 25 23 22 23 22 22 26 22z"/>
    <path fill="#5D636B" d="M27.25,20 C27.6642136,20 28,20.3357864 28,20.75 L28,27.25 C28,27.6642136 27.6642136,28 27.25,28 L20.75,28 C20.3357864,28 20,27.6642136 20,27.25 L20,20.75 C20,20.3357864 20.3357864,20 20.75,20 L27.25,20 Z M21,27 L27,27 L27,21 L21,21 L21,23 L24,23 L24,24 L21,24 L21,27 Z"/>
  </g>
</svg>
