<svg xmlns="http://www.w3.org/2000/svg" xmlns:xlink="http://www.w3.org/1999/xlink" width="48" height="48" viewBox="0 0 48 48">
  <defs>
    <rect id="application-x-iso-b" width="32" height="39" x="1" y="1"/>
    <filter id="application-x-iso-a" width="112.5%" height="110.3%" x="-6.2%" y="-2.6%" filterUnits="objectBoundingBox">
      <feOffset dy="1" in="SourceAlpha" result="shadowOffsetOuter1"/>
      <feGaussianBlur in="shadowOffsetOuter1" result="shadowBlurOuter1" stdDeviation=".5"/>
      <feColorMatrix in="shadowBlurOuter1" values="0 0 0 0 0   0 0 0 0 0   0 0 0 0 0  0 0 0 0.2 0"/>
    </filter>
  </defs>
  <g fill="none" fill-rule="evenodd">
    <g transform="translate(7 4)">
      <use fill="#000" filter="url(#application-x-iso-a)" xlink:href="#application-x-iso-b"/>
      <use fill="#F9FBFB" xlink:href="#application-x-iso-b"/>
      <path fill="#000" fill-opacity=".2" fill-rule="nonzero" d="M34,0 L0,0 L0,41 L34,41 L34,0 Z M33,1 L33,40 L1,40 L1,1 L33,1 Z"/>
    </g>
    <path fill="#D96464" d="M24,16 C28.9705627,16 33,20.0294373 33,25 C33,29.9705627 28.9705627,34 24,34 C19.0294373,34 15,29.9705627 15,25 C15,20.0294373 19.0294373,16 24,16 Z M24,21 C21.790861,21 20,22.790861 20,25 C20,27.209139 21.790861,29 24,29 C26.209139,29 28,27.209139 28,25 C28,22.790861 26.209139,21 24,21 Z M24,22 C25.6568542,22 27,23.3431458 27,25 C27,26.6568542 25.6568542,28 24,28 C22.3431458,28 21,26.6568542 21,25 C21,23.3431458 22.3431458,22 24,22 Z M24,23 C22.8954305,23 22,23.8954305 22,25 C22,26.1045695 22.8954305,27 24,27 C25.1045695,27 26,26.1045695 26,25 C26,23.8954305 25.1045695,23 24,23 Z M24,18 C20.1340068,18 17,21.1340068 17,25 C17,25.2761424 17.2238576,25.5 17.5,25.5 C17.7761424,25.5 18,25.2761424 18,25 C18,21.6862915 20.6862915,19 24,19 C24.2761424,19 24.5,18.7761424 24.5,18.5 C24.5,18.2238576 24.2761424,18 24,18 Z"/>
  </g>
</svg>
