<svg xmlns="http://www.w3.org/2000/svg" xmlns:xlink="http://www.w3.org/1999/xlink" width="48" height="48" viewBox="0 0 48 48">
  <defs>
    <rect id="application-vnd.flatpak-b" width="32" height="39" x="1" y="1"/>
    <filter id="application-vnd.flatpak-a" width="112.5%" height="110.3%" x="-6.2%" y="-2.6%" filterUnits="objectBoundingBox">
      <feOffset dy="1" in="SourceAlpha" result="shadowOffsetOuter1"/>
      <feGaussianBlur in="shadowOffsetOuter1" result="shadowBlurOuter1" stdDeviation=".5"/>
      <feColorMatrix in="shadowBlurOuter1" values="0 0 0 0 0   0 0 0 0 0   0 0 0 0 0  0 0 0 0.2 0"/>
    </filter>
  </defs>
  <g fill="none" fill-rule="evenodd">
    <g transform="translate(7 4)">
      <use fill="#000" filter="url(#application-vnd.flatpak-a)" xlink:href="#application-vnd.flatpak-b"/>
      <use fill="#F9FBFB" xlink:href="#application-vnd.flatpak-b"/>
      <path fill="#000" fill-opacity=".2" fill-rule="nonzero" d="M34,0 L0,0 L0,41 L34,41 L34,0 Z M33,1 L33,40 L1,40 L1,1 L33,1 Z"/>
    </g>
    <path fill="#2A4052" fill-opacity=".6" d="M23.9314854,14.988919 C24.3387881,14.9989142 24.7366086,15.1168266 25.0840218,15.3288311 L25.0840218,15.3288311 L30.8139583,18.7556474 C31.5118216,19.1833251 31.9553157,19.9475478 31.9990912,20.8444715 L31.986,20.6932785 L32,20.6941111 L32,28.0044283 C32,28.8305826 31.6053314,29.6007191 30.9472526,30.0652444 L30.8022518,30.1600169 L25.085167,33.5413879 C24.3903899,33.9610222 23.5430747,33.990996 22.8228671,33.6290848 L22.659049,33.5386093 L17.1938659,30.1576976 C16.5026914,29.7404171 16.0619313,28.9979194 16.0060374,28.1813136 L16,28.0052839 L16,20.6941111 C16.0778281,19.8897089 16.5144514,19.1666727 17.1821521,18.7580559 L17.1821521,18.7580559 L22.6612887,15.3309135 C23.0455434,15.0968852 23.4850111,14.9784335 23.9314854,14.988919 Z M31.0013636,22.7288344 C30.9397358,22.7751905 30.8756845,22.8187807 30.8093292,22.8593883 L30.8093292,22.8593883 L25.0879897,26.2810039 C24.3382874,26.7388535 23.4104734,26.7388535 22.65622,26.278191 L22.65622,26.278191 L17.1860421,22.8565858 C17.1217462,22.8171828 17.0596094,22.774923 16.9997456,22.729966 L17,28.0051465 C17.0001344,28.4943082 17.2256876,28.9471809 17.5989872,29.2261175 L17.7153319,29.3044428 L23.1805957,32.6854032 C23.5678643,32.9193073 24.0334395,32.9426977 24.4392577,32.7538481 L24.5721278,32.6830352 L30.2892925,29.3016159 C30.6872877,29.0613345 30.9490168,28.6308439 30.9933147,28.1500393 L31,28.0044283 Z M23.906,15.9877304 L23.7557083,15.9938042 C23.5545236,16.0122699 23.3593981,16.0765949 23.186522,16.181851 L23.186522,16.181851 L17.7083091,19.6084293 C17.2981268,19.8594677 17.0299486,20.3169327 16.9993165,20.7717591 L17,20.7632785 L16.9998767,20.781864 C17.026813,21.2420015 17.2462424,21.6593296 17.5917844,21.9235567 L17.7124541,22.0063685 L23.181971,25.4275692 C23.6116835,25.6899984 24.1370773,25.6899984 24.5707578,25.4251712 L24.5707578,25.4251712 L30.2916911,22.0038039 C30.7018735,21.7527654 30.9700515,21.2953002 31.0006835,20.8404736 C30.9736913,20.3247755 30.7049556,19.8616939 30.2960652,19.6110757 L30.2960652,19.6110757 L24.566957,16.1847659 C24.3649409,16.0615015 24.1381867,15.9942925 23.906,15.9877304 L23.906,15.9877304 Z"/>
  </g>
</svg>
