<svg xmlns="http://www.w3.org/2000/svg" xmlns:xlink="http://www.w3.org/1999/xlink" width="48" height="48" viewBox="0 0 48 48">
  <defs>
    <rect id="application-x-glabels-b" width="32" height="39" x="1" y="1"/>
    <filter id="application-x-glabels-a" width="112.5%" height="110.3%" x="-6.2%" y="-2.6%" filterUnits="objectBoundingBox">
      <feOffset dy="1" in="SourceAlpha" result="shadowOffsetOuter1"/>
      <feGaussianBlur in="shadowOffsetOuter1" result="shadowBlurOuter1" stdDeviation=".5"/>
      <feColorMatrix in="shadowBlurOuter1" values="0 0 0 0 0   0 0 0 0 0   0 0 0 0 0  0 0 0 0.2 0"/>
    </filter>
  </defs>
  <g fill="none" fill-rule="evenodd">
    <g transform="translate(7 4)">
      <use fill="#000" filter="url(#application-x-glabels-a)" xlink:href="#application-x-glabels-b"/>
      <use fill="#F9FBFB" xlink:href="#application-x-glabels-b"/>
      <path fill="#000" fill-opacity=".2" fill-rule="nonzero" d="M34,0 L0,0 L0,41 L34,41 L34,0 Z M33,1 L33,40 L1,40 L1,1 L33,1 Z"/>
    </g>
    <path fill="#2A4052" fill-opacity=".6" d="M23.3557006,18.0581954 L32.859815,27.5004584 C33.0537191,27.6931006 33.0542914,28.0081544 32.8629045,28.1995414 L27.1995414,33.8629045 C27.0059123,34.0565335 26.6952649,34.0558976 26.5004584,33.859815 L17.0581954,24.3557006 C16.7627275,24.0582972 16.5,23.4194197 16.5,22.9970707 L16.5,18.0029293 C16.5,17.7249592 16.7248823,17.5 17.0029293,17.5 L21.9970707,17.5 C22.4201486,17.5 23.0571826,17.7616201 23.3557006,18.0581954 Z M21.9970707,16.5 C22.6837384,16.5 23.574278,16.865731 24.0604952,17.348784 L24.0604952,17.348784 L33.5646097,26.791047 C34.151157,27.3737772 34.1528827,28.3237767 33.5700112,28.9066482 L33.5700112,28.9066482 L27.9066482,34.5700112 C27.3214615,35.1551979 26.3758687,35.1532622 25.791047,34.5646097 L25.791047,34.5646097 L16.348784,25.0604952 C15.8669579,24.5755129 15.5,23.6831771 15.5,22.9970707 L15.5,22.9970707 L15.5,18.0029293 C15.5,17.1727511 16.1725209,16.5 17.0029293,16.5 L17.0029293,16.5 Z M20,20 C19.4477153,20 19,20.4477153 19,21 C19,21.5522847 19.4477153,22 20,22 C20.5522847,22 21,21.5522847 21,21 C21,20.4477153 20.5522847,20 20,20 Z"/>
  </g>
</svg>
