<svg xmlns="http://www.w3.org/2000/svg" xmlns:xlink="http://www.w3.org/1999/xlink" width="48" height="48" viewBox="0 0 48 48">
  <defs>
    <rect id="application-x-rar-b" width="32" height="39" x="1" y="1"/>
    <filter id="application-x-rar-a" width="112.5%" height="110.3%" x="-6.2%" y="-2.6%" filterUnits="objectBoundingBox">
      <feOffset dy="1" in="SourceAlpha" result="shadowOffsetOuter1"/>
      <feGaussianBlur in="shadowOffsetOuter1" result="shadowBlurOuter1" stdDeviation=".5"/>
      <feColorMatrix in="shadowBlurOuter1" values="0 0 0 0 0   0 0 0 0 0   0 0 0 0 0  0 0 0 0.2 0"/>
    </filter>
  </defs>
  <g fill="none" fill-rule="evenodd">
    <g transform="translate(7 4)">
      <use fill="#000" filter="url(#application-x-rar-a)" xlink:href="#application-x-rar-b"/>
      <use fill="#F9FBFB" xlink:href="#application-x-rar-b"/>
      <path fill="#000" fill-opacity=".2" fill-rule="nonzero" d="M34,0 L0,0 L0,41 L34,41 L34,0 Z M33,1 L33,40 L1,40 L1,1 L33,1 Z"/>
    </g>
    <path fill="#9C80E0" d="M18.999,22 L18.999,26 L8,26 L8,22 L18.999,22 Z M40,22 L40,26 L28.999,26 L28.999,22 L40,22 Z M26,22 L26,26 L22,26 L22,25 L25,25 L25,23 L22,23 L22,22 L26,22 Z"/>
    <path fill="#9C80E0" d="M27.25 20C27.6642136 20 28 20.3357864 28 20.75L28 27.25C28 27.6642136 27.6642136 28 27.25 28L20.75 28C20.3357864 28 20 27.6642136 20 27.25L20 20.75C20 20.3357864 20.3357864 20 20.75 20L27.25 20zM21 27L27 27 27 21 21 21 21 23 24 23 24 24 21 24 21 27zM21 39L22 39 22.7000008 37 25.2999992 37 26 39 27 39 24.5386368 32 23.5 32 21 39zM29 32C30.1045695 32 31 32.8877296 31 34 31 34.8723043 30.4463559 35.6141764 29.6657023 35.8876031L32 39 30.7000008 39 28.4500008 36 28 36 28 39 27 39 27 32 29 32zM19 32C20.1045695 32 21 32.8877296 21 34 21 34.8723043 20.4463559 35.6141764 19.6657023 35.8876031L21.3250008 38.0750008 21 39 20.7000008 39 18.4500008 36 18 36 18 39 17 39 17 32 19 32zM24 33L25 36 23 36 24 33zM29 33L28 33 28 35 29 35C29.5567289 35 30 34.5555468 30 34 30 33.4432711 29.5555468 33 29 33zM19 33L18 33 18 35 19 35C19.5567289 35 20 34.5555468 20 34 20 33.4432711 19.5555468 33 19 33z"/>
  </g>
</svg>
