<svg xmlns="http://www.w3.org/2000/svg" xmlns:xlink="http://www.w3.org/1999/xlink" width="48" height="48" viewBox="0 0 48 48">
  <defs>
    <rect id="application-vnd.oasis.opendocument.formula-b" width="32" height="39" x="1" y="1"/>
    <filter id="application-vnd.oasis.opendocument.formula-a" width="112.5%" height="110.3%" x="-6.2%" y="-2.6%" filterUnits="objectBoundingBox">
      <feOffset dy="1" in="SourceAlpha" result="shadowOffsetOuter1"/>
      <feGaussianBlur in="shadowOffsetOuter1" result="shadowBlurOuter1" stdDeviation=".5"/>
      <feColorMatrix in="shadowBlurOuter1" values="0 0 0 0 0   0 0 0 0 0   0 0 0 0 0  0 0 0 0.2 0"/>
    </filter>
  </defs>
  <g fill="none" fill-rule="evenodd">
    <g transform="translate(7 4)">
      <use fill="#000" filter="url(#application-vnd.oasis.opendocument.formula-a)" xlink:href="#application-vnd.oasis.opendocument.formula-b"/>
      <use fill="#F9FBFB" xlink:href="#application-vnd.oasis.opendocument.formula-b"/>
      <path fill="#000" fill-opacity=".2" fill-rule="nonzero" d="M34,0 L0,0 L0,41 L34,41 L34,0 Z M33,1 L33,40 L1,40 L1,1 L33,1 Z"/>
    </g>
    <path fill="#2A4052" fill-opacity=".6" d="M29.4603341,17 L29.9060867,21.1759495 L29.1804433,21.1759495 C28.8763516,20.4192217 28.4444216,19.7145526 27.8846512,19.06194 C27.3248585,18.4024102 26.9630198,18.0972094 26.5,18 C26.2926639,17.9583582 20,18 20,18 L26.0394436,25.7476273 L26.0394436,26.028801 L19.5,34 L27.5,34 C28.5,34 29.0698568,33.5545338 29.3048391,33.2768331 C29.5536182,32.9852447 29.7747668,32.6589444 29.9682846,32.2979324 C30.1617758,31.9369193 30.3207265,31.6036769 30.4451359,31.2982041 L31.1396805,31.5168943 L29.9682846,36 L17,36 L17,35.5782917 L24.2149687,26.8410805 L17,17.5 L17,17 L29.4603341,17 Z"/>
  </g>
</svg>
