<svg xmlns="http://www.w3.org/2000/svg" xmlns:xlink="http://www.w3.org/1999/xlink" width="48" height="48" viewBox="0 0 48 48">
  <defs>
    <rect id="application-x-deepinclone-dim-b" width="32" height="39" x="1" y="1"/>
    <filter id="application-x-deepinclone-dim-a" width="112.5%" height="110.3%" x="-6.2%" y="-2.6%" filterUnits="objectBoundingBox">
      <feOffset dy="1" in="SourceAlpha" result="shadowOffsetOuter1"/>
      <feGaussianBlur in="shadowOffsetOuter1" result="shadowBlurOuter1" stdDeviation=".5"/>
      <feColorMatrix in="shadowBlurOuter1" values="0 0 0 0 0   0 0 0 0 0   0 0 0 0 0  0 0 0 0.2 0"/>
    </filter>
  </defs>
  <g fill="none" fill-rule="evenodd">
    <g transform="translate(7 4)">
      <use fill="#000" filter="url(#application-x-deepinclone-dim-a)" xlink:href="#application-x-deepinclone-dim-b"/>
      <use fill="#F9FBFB" xlink:href="#application-x-deepinclone-dim-b"/>
      <path fill="#000" fill-opacity=".2" fill-rule="nonzero" d="M34,0 L0,0 L0,41 L34,41 L34,0 Z M33,1 L33,40 L1,40 L1,1 L33,1 Z"/>
    </g>
    <path fill="#2A4052" fill-opacity=".6" d="M18.627 40.6875L18.627 35.73975 19.869 35.73975C21.38775 35.73975 22.2045 36.624 22.2045 38.19675 22.2045 39.76275 21.38775 40.6875 19.896 40.6875L18.627 40.6875zM19.25475 40.1745L19.815 40.1745C20.98275 40.1745 21.5565 39.4455 21.5565 38.19675 21.5565 36.94125 20.98275 36.246 19.815 36.246L19.25475 36.246 19.25475 40.1745zM23.26425 40.6875L23.892 40.6875 23.892 35.73975 23.26425 35.73975 23.26425 40.6875zM25.242 40.6875L25.809 40.6875 25.809 37.947C25.809 37.52175 25.76175 36.921 25.73475 36.489L25.76175 36.489 26.15325 37.61625 27.0915 40.188 27.51 40.188 28.44825 37.61625 28.83975 36.489 28.86675 36.489C28.833 36.921 28.78575 37.52175 28.78575 37.947L28.78575 40.6875 29.373 40.6875 29.373 35.73975 28.617 35.73975 27.672 38.38575C27.55725 38.73 27.44925 39.07425 27.3345 39.4185L27.30075 39.4185C27.17925 39.07425 27.0645 38.73 26.94975 38.38575L25.998 35.73975 25.242 35.73975 25.242 40.6875zM28.25 18C28.6642136 18 29 18.3357864 29 18.75L29 32.25C29 32.6642136 28.6642136 33 28.25 33L17.75 33C17.3357864 33 17 32.6642136 17 32.25L17 18.75C17 18.3357864 17.3357864 18 17.75 18L28.25 18zM28.8125 15C30.5729076 15 32 16.4270924 32 18.1875L32 28.3125C32 29.2444805 31.2444805 30 30.3125 30L29.999 30 30 18.6875C30 17.8045711 29.321916 17.0800172 28.458104 17.0061941L28.3125 17 19 17 19 16.6875C19 15.7555195 19.7555195 15 20.6875 15L28.8125 15zM19 20.5L19 24.5 23 24.5 21.5766677 23.0763119C21.9621489 22.8455965 22.4079468 22.71875 22.875 22.71875 24.2729708 22.71875 25.40625 23.8520292 25.40625 25.25 25.40625 26.6479708 24.2729708 27.78125 22.875 27.78125 21.8722573 27.78125 20.9768554 27.1931292 20.5690598 26.2959141 20.3976673 25.9188233 19.9530337 25.7520719 19.5759429 25.9234644 19.198852 26.094857 19.0321007 26.5394906 19.2034932 26.9165814 19.8525193 28.3445419 21.2786383 29.28125 22.875 29.28125 25.1013979 29.28125 26.90625 27.4763979 26.90625 25.25 26.90625 23.0236021 25.1013979 21.21875 22.875 21.21875 22.0024683 21.21875 21.1744299 21.4981002 20.4949355 21.995829L19 20.5z"/>
  </g>
</svg>
