<svg xmlns="http://www.w3.org/2000/svg" xmlns:xlink="http://www.w3.org/1999/xlink" width="48" height="48" viewBox="0 0 48 48">
  <defs>
    <rect id="image-gif-b" width="32" height="39" x="1" y="1"/>
    <filter id="image-gif-a" width="112.5%" height="110.3%" x="-6.2%" y="-2.6%" filterUnits="objectBoundingBox">
      <feOffset dy="1" in="SourceAlpha" result="shadowOffsetOuter1"/>
      <feGaussianBlur in="shadowOffsetOuter1" result="shadowBlurOuter1" stdDeviation=".5"/>
      <feColorMatrix in="shadowBlurOuter1" values="0 0 0 0 0   0 0 0 0 0   0 0 0 0 0  0 0 0 0.2 0"/>
    </filter>
  </defs>
  <g fill="none" fill-rule="evenodd">
    <g transform="translate(7 4)">
      <use fill="#000" filter="url(#image-gif-a)" xlink:href="#image-gif-b"/>
      <use fill="#F9FBFB" xlink:href="#image-gif-b"/>
      <path fill="#000" fill-opacity=".2" fill-rule="nonzero" d="M34,0 L0,0 L0,41 L34,41 L34,0 Z M33,1 L33,40 L1,40 L1,1 L33,1 Z"/>
    </g>
    <path fill="#79B4A8" d="M15.968,30 L31.968,30 L31.968,16 L15.968,16 L15.968,30 Z M20.5000001,33 C21.6496846,33 22.6433907,33.7835493 22.9230388,34.8824778 L22.9230388,34.8824778 L21.9539249,35.1290915 C21.7863602,34.4706151 21.1895208,34 20.5000001,34 C19.6671043,34 19,34.6705158 19,35.5048815 L19,35.5048815 L19,36.4951185 C19,37.3288037 19.6704204,38 20.5,38 C21.1548162,38 21.7073677,37.584427 21.9135474,37 L21.9135474,37 L21,37 L21,36 L23.0000001,36 L23,36.491328 L23,36.491328 L23,36.4918075 L23,39 L22,39 L22,38.5008921 C21.5829092,38.8144407 21.0640503,39 20.5,39 C19.1178766,39 18,37.8808297 18,36.4951185 L18,36.4951185 L18,35.5048815 C18,34.1193697 19.1136744,33 20.5000001,33 Z M25,33 L25,39 L24,39 L24,33 L25,33 Z M30,33 L30,34 L27,34 L27,36 L29,36 L29,37 L27,37 L27,39 L26,39 L26,33 L30,33 Z M31,17 L31,29 L17,29 L17,17 L31,17 Z M22,19 L17.9999996,27.9930003 L30,27.9930003 L26.256,21.242 L24.5,24 L22,19 Z"/>
  </g>
</svg>
