<svg xmlns="http://www.w3.org/2000/svg" xmlns:xlink="http://www.w3.org/1999/xlink" width="48" height="48" viewBox="0 0 48 48">
  <defs>
    <rect id="text-x-nim-b" width="32" height="39" x="1" y="1"/>
    <filter id="text-x-nim-a" width="112.5%" height="110.3%" x="-6.2%" y="-2.6%" filterUnits="objectBoundingBox">
      <feOffset dy="1" in="SourceAlpha" result="shadowOffsetOuter1"/>
      <feGaussianBlur in="shadowOffsetOuter1" result="shadowBlurOuter1" stdDeviation=".5"/>
      <feColorMatrix in="shadowBlurOuter1" values="0 0 0 0 0   0 0 0 0 0   0 0 0 0 0  0 0 0 0.2 0"/>
    </filter>
  </defs>
  <g fill="none" fill-rule="evenodd">
    <g transform="translate(7 4)">
      <use fill="#000" filter="url(#text-x-nim-a)" xlink:href="#text-x-nim-b"/>
      <use fill="#F9FBFB" xlink:href="#text-x-nim-b"/>
      <path fill="#000" fill-opacity=".2" fill-rule="nonzero" d="M34,0 L0,0 L0,41 L34,41 L34,0 Z M33,1 L33,40 L1,40 L1,1 L33,1 Z"/>
    </g>
    <path fill="#DD953E" d="M33.1187325,23.9717881 C33.1187325,23.9717881 33.1077558,23.9976359 33.0871841,24.0460011 L33.0336567,24.1717681 C32.8371509,24.6332185 32.3283865,25.8253701 31.8058153,27.0288752 L31.631523,27.4294773 C31.4865355,27.7620182 31.3430415,28.0892679 31.2074378,28.3958083 C27.7692019,32.6880225 19.8824166,32.4038818 16.7939103,28.3166748 C16.6431101,27.9502279 16.4785863,27.5504887 16.3124729,27.1469196 L16.146279,26.7431651 C15.5658914,25.3331944 15.0155769,23.9966116 15.0155769,23.9966116 C15.9422494,25.1284394 16.8212127,25.9551969 18.1280896,26.6549771 C18.775608,26.9585922 20.2059156,27.1890956 20.2059156,27.1890956 L20.2059156,27.1890956 L24.0334825,25.2504545 L27.839185,27.2286648 C27.839185,27.2286648 29.2887653,27.0199904 29.9170043,26.6747635 C30.8011235,26.1873676 32.2366535,25.2825442 33.1187325,23.9717881 Z M24.0773819,18.093747 C24.0773819,18.093747 24.7803485,18.7362575 25.4799075,19.3130262 C26.5075553,19.2567565 27.7293975,19.4840291 28.7395831,19.6710731 C29.4873253,19.145966 30.1324403,18.6646815 30.1324403,18.6646815 C30.1324403,18.6646815 30.6771096,19.5933217 31.051339,20.2807127 C31.4458698,20.5194086 32.1400249,21.0138812 32.4345274,21.3354911 C32.9277787,21.1467883 33.6886872,20.8912554 33.749997,20.8709998 C33.190779,22.3487564 32.6377503,23.9493838 31.215774,24.6933419 C29.0154776,21.6123802 18.9979872,21.2976172 16.8422581,24.7127078 C15.4882058,23.8110959 14.9904378,22.31103 14.249997,20.812947 C14.2711515,20.8219207 14.9193011,21.0934363 15.4784211,21.3161422 C15.9591334,20.8896564 16.4985053,20.5673104 17.0357128,20.2807176 C17.3979485,19.697392 17.9739567,18.7033915 17.9739567,18.7033915 C17.9739567,18.7033915 18.6480304,19.2416379 19.4151758,19.7291405 C20.2479381,19.4253499 21.7848566,19.2493526 22.5684508,19.2743248 C23.3301783,18.6860438 24.0773819,18.093747 24.0773819,18.093747 Z"/>
  </g>
</svg>
