<svg xmlns="http://www.w3.org/2000/svg" xmlns:xlink="http://www.w3.org/1999/xlink" width="48" height="48" viewBox="0 0 48 48">
  <defs>
    <rect id="text-x-generic-template-b" width="32" height="39" x="1" y="1"/>
    <filter id="text-x-generic-template-a" width="112.5%" height="110.3%" x="-6.2%" y="-2.6%" filterUnits="objectBoundingBox">
      <feOffset dy="1" in="SourceAlpha" result="shadowOffsetOuter1"/>
      <feGaussianBlur in="shadowOffsetOuter1" result="shadowBlurOuter1" stdDeviation=".5"/>
      <feColorMatrix in="shadowBlurOuter1" values="0 0 0 0 0   0 0 0 0 0   0 0 0 0 0  0 0 0 0.2 0"/>
    </filter>
  </defs>
  <g fill="none" fill-rule="evenodd">
    <g transform="translate(7 4)">
      <use fill="#000" filter="url(#text-x-generic-template-a)" xlink:href="#text-x-generic-template-b"/>
      <use fill="#F9FBFB" xlink:href="#text-x-generic-template-b"/>
      <path fill="#000" fill-opacity=".2" fill-rule="nonzero" d="M34,0 L0,0 L0,41 L34,41 L34,0 Z M33,1 L33,40 L1,40 L1,1 L33,1 Z"/>
    </g>
    <path fill="#2A4052" fill-opacity=".6" d="M13,13 L27,13 L27,14 L13,14 L13,13 L13,13 Z M13,17 L35,17 L35,18 L13,18 L13,17 L13,17 Z M13,21 L35,21 L35,22 L13,22 L13,21 L13,21 Z M13,25 L35,25 L35,26 L13,26 L13,25 L13,25 Z M13,29 L35,29 L35,30 L13,30 L13,29 L13,29 Z M13,33 L35,33 L35,34 L13,34 L13,33 L13,33 Z M13,37 L23,37 L23,38 L13,38 L13,37 L13,37 Z M23.843,36.966 L24.843,36.966 L24.843,37.966 L23.843,37.966 L23.843,36.966 L23.843,36.966 Z"/>
  </g>
</svg>
