<svg xmlns="http://www.w3.org/2000/svg" xmlns:xlink="http://www.w3.org/1999/xlink" width="48" height="48" viewBox="0 0 48 48">
  <defs>
    <rect id="text-xml-b" width="32" height="39" x="1" y="1"/>
    <filter id="text-xml-a" width="112.5%" height="110.3%" x="-6.2%" y="-2.6%" filterUnits="objectBoundingBox">
      <feOffset dy="1" in="SourceAlpha" result="shadowOffsetOuter1"/>
      <feGaussianBlur in="shadowOffsetOuter1" result="shadowBlurOuter1" stdDeviation=".5"/>
      <feColorMatrix in="shadowBlurOuter1" values="0 0 0 0 0   0 0 0 0 0   0 0 0 0 0  0 0 0 0.2 0"/>
    </filter>
  </defs>
  <g fill="none" fill-rule="evenodd">
    <g transform="translate(7 4)">
      <use fill="#000" filter="url(#text-xml-a)" xlink:href="#text-xml-b"/>
      <use fill="#F9FBFB" xlink:href="#text-xml-b"/>
      <path fill="#000" fill-opacity=".2" fill-rule="nonzero" d="M34,0 L0,0 L0,41 L34,41 L34,0 Z M33,1 L33,40 L1,40 L1,1 L33,1 Z"/>
    </g>
    <path fill="#2A4052" fill-opacity=".6" d="M26.882,20.969 L21.202,31.013 L19.889,30.995 L25.551,20.973 L26.882,20.969 Z M27.968,21.002 L33.968,25.436 L33.968,26.573 L27.968,30.964 L27.968,29.569 L32.843,25.995 L27.968,22.385 L27.968,21.002 Z M18.968,21.002 L18.968,22.385 L14.093,25.995 L18.968,29.569 L18.968,30.964 L12.968,26.573 L12.968,25.436 L18.968,21.002 Z"/>
  </g>
</svg>
