<svg xmlns="http://www.w3.org/2000/svg" xmlns:xlink="http://www.w3.org/1999/xlink" width="48" height="48" viewBox="0 0 48 48">
  <defs>
    <rect id="text-x-ruby-b" width="32" height="39" x="1" y="1"/>
    <filter id="text-x-ruby-a" width="112.5%" height="110.3%" x="-6.2%" y="-2.6%" filterUnits="objectBoundingBox">
      <feOffset dy="1" in="SourceAlpha" result="shadowOffsetOuter1"/>
      <feGaussianBlur in="shadowOffsetOuter1" result="shadowBlurOuter1" stdDeviation=".5"/>
      <feColorMatrix in="shadowBlurOuter1" values="0 0 0 0 0   0 0 0 0 0   0 0 0 0 0  0 0 0 0.2 0"/>
    </filter>
  </defs>
  <g fill="none" fill-rule="evenodd">
    <g transform="translate(7 4)">
      <use fill="#000" filter="url(#text-x-ruby-a)" xlink:href="#text-x-ruby-b"/>
      <use fill="#F9FBFB" xlink:href="#text-x-ruby-b"/>
      <path fill="#000" fill-opacity=".2" fill-rule="nonzero" d="M34,0 L0,0 L0,41 L34,41 L34,0 Z M33,1 L33,40 L1,40 L1,1 L33,1 Z"/>
    </g>
    <path fill="#2A4052" fill-opacity=".6" d="M20.0701724,28.5964828 L31.9912922,32.25 L17.2600095,32.245592 L20.0701724,28.5964828 L20.0701724,28.5964828 Z M16.468786,31.6318476 L15.75,26.0005008 L18.5018715,22.4270852 L19.2206577,28.0584319 L16.468786,31.6318476 L16.468786,31.6318476 Z M19.4191622,21.2359465 L25.0301644,20.5145542 L20.1379481,26.8672932 L19.4191622,21.2359465 L19.4191622,21.2359465 Z M25.9474551,19.3234157 L28.6993268,15.75 L23.0883245,16.4713922 L20.3364528,20.0448079 L25.9474551,19.3234157 L25.9474551,19.3234157 Z M25.8213881,21.1282986 L32.8699623,31.6696002 L20.9291718,27.4810377 L25.8213881,21.1282986 L25.8213881,21.1282986 Z M32.9912924,30.2427483 L29.4905504,16.3637442 L26.7386786,19.9371601 L32.9912924,30.2427483 L32.9912924,30.2427483 Z"/>
  </g>
</svg>
