<svg xmlns="http://www.w3.org/2000/svg" xmlns:xlink="http://www.w3.org/1999/xlink" width="48" height="48" viewBox="0 0 48 48">
  <defs>
    <rect id="text-x-hex-b" width="32" height="39" x="1" y="1"/>
    <filter id="text-x-hex-a" width="112.5%" height="110.3%" x="-6.2%" y="-2.6%" filterUnits="objectBoundingBox">
      <feOffset dy="1" in="SourceAlpha" result="shadowOffsetOuter1"/>
      <feGaussianBlur in="shadowOffsetOuter1" result="shadowBlurOuter1" stdDeviation=".5"/>
      <feColorMatrix in="shadowBlurOuter1" values="0 0 0 0 0   0 0 0 0 0   0 0 0 0 0  0 0 0 0.2 0"/>
    </filter>
  </defs>
  <g fill="none" fill-rule="evenodd">
    <g transform="translate(7 4)">
      <use fill="#000" filter="url(#text-x-hex-a)" xlink:href="#text-x-hex-b"/>
      <use fill="#F9FBFB" xlink:href="#text-x-hex-b"/>
      <path fill="#000" fill-opacity=".2" fill-rule="nonzero" d="M34,0 L0,0 L0,41 L34,41 L34,0 Z M33,1 L33,40 L1,40 L1,1 L33,1 Z"/>
    </g>
    <path fill="#2A4052" fill-opacity=".6" d="M21,28.9993133 L20.9993135,28.9993132 L21,26.0000572 L21,23 L21.0006867,23 L21.0006868,22.9993135 L23.9999428,23 L27,23 L27,23.0006867 L27.0006865,23.0006868 L27,25.9999428 L27,29 L26.9993133,29 L26.9993132,29.0006865 L24.0000572,29 L21,29 L21,28.9993133 L21,28.9993133 Z M20.9990846,29.9993131 L26.9990843,30.0006865 L26.9980545,34.4998856 C26.9979913,34.7760279 27.2217977,34.9999368 27.49794,35 C27.7740824,35.0000632 27.9979913,34.7762568 27.9980545,34.5001144 L27.9990843,30.0009153 L32.4998856,30.0019455 C32.7760279,30.0020087 32.9999368,29.7782023 33,29.50206 C33.0000632,29.2259176 32.7762568,29.0020087 32.5001144,29.0019455 L27.9993131,29.0009154 L28.0006865,23.0009157 L32.4998856,23.0019455 C32.7760279,23.0020087 32.9999368,22.7782023 33,22.50206 C33.0000632,22.2259176 32.7762568,22.0020087 32.5001144,22.0019455 L28.0009153,22.0009157 L28.0019455,17.5001144 C28.0020087,17.2239721 27.7782023,17.0000632 27.50206,17 C27.2259176,16.9999368 27.0020087,17.2237432 27.0019455,17.4998856 L27.0009154,22.0006869 L21.0009157,21.9993135 L21.0019455,17.5001144 C21.0020087,17.2239721 20.7782023,17.0000632 20.50206,17 C20.2259176,16.9999368 20.0020087,17.2237432 20.0019455,17.4998856 L20.0009157,21.9990847 L15.5001144,21.9980545 C15.2239721,21.9979913 15.0000632,22.2217977 15,22.49794 C14.9999368,22.7740824 15.2237432,22.9979913 15.4998856,22.9980545 L20.0006869,22.9990846 L19.9993135,28.9990843 L15.5001144,28.9980545 C15.2239721,28.9979913 15.0000632,29.2217977 15,29.49794 C14.9999368,29.7740824 15.2237432,29.9979913 15.4998856,29.9980545 L19.9990847,29.9990843 L19.9980545,34.4998856 C19.9979913,34.7760279 20.2217977,34.9999368 20.49794,35 C20.7740824,35.0000632 20.9979913,34.7762568 20.9980545,34.5001144 L20.9990846,29.9993131 L20.9990846,29.9993131 Z"/>
  </g>
</svg>
