<svg xmlns="http://www.w3.org/2000/svg" xmlns:xlink="http://www.w3.org/1999/xlink" width="48" height="48" viewBox="0 0 48 48">
  <defs>
    <rect id="x-office-presentation-b" width="32" height="39" x="1" y="1"/>
    <filter id="x-office-presentation-a" width="112.5%" height="110.3%" x="-6.2%" y="-2.6%" filterUnits="objectBoundingBox">
      <feOffset dy="1" in="SourceAlpha" result="shadowOffsetOuter1"/>
      <feGaussianBlur in="shadowOffsetOuter1" result="shadowBlurOuter1" stdDeviation=".5"/>
      <feColorMatrix in="shadowBlurOuter1" values="0 0 0 0 0   0 0 0 0 0   0 0 0 0 0  0 0 0 0.2 0"/>
    </filter>
  </defs>
  <g fill="none" fill-rule="evenodd">
    <g transform="translate(7 4)">
      <use fill="#000" filter="url(#x-office-presentation-a)" xlink:href="#x-office-presentation-b"/>
      <use fill="#F9FBFB" xlink:href="#x-office-presentation-b"/>
      <path fill="#000" fill-opacity=".2" fill-rule="nonzero" d="M34,0 L0,0 L0,41 L34,41 L34,0 Z M33,1 L33,40 L1,40 L1,1 L33,1 Z"/>
    </g>
    <path fill="#B36B61" d="M16.4999602,20 L31.5000398,20 C31.7761352,20 32,20.2236072 32,20.4985023 L32,31.5014977 C32,31.7773794 31.7773203,32 31.5000398,32 L16.4999602,32 C16.2238648,32 16,31.7763928 16,31.5014977 L16,20.4985023 C16,20.2226206 16.2226797,20 16.4999602,20 Z M31.5000398,19 C32.3281624,19 33,19.6710645 33,20.4985023 L33,20.4985023 L33,31.5014977 C33,32.3297236 32.3295457,33 31.5000398,33 L31.5000398,33 L24.706,32.999 L27.8535534,36.1464466 C28.0271197,36.320013 28.0464049,36.5894374 27.9114088,36.7843055 L27.8535534,36.8535534 C27.6582912,37.0488155 27.3417088,37.0488155 27.1464466,36.8535534 L27.1464466,36.8535534 L23.991,33.698 L23.9687379,37.0034721 C23.9670334,37.2489261 23.7887448,37.4518414 23.5552073,37.4925566 L23.4652779,37.4999879 C23.1891421,37.4980703 22.9668444,37.2726636 22.9687621,36.9965279 L22.9687621,36.9965279 L22.991,33.715 L19.8535534,36.8535534 C19.679987,37.0271197 19.4105626,37.0464049 19.2156945,36.9114088 L19.1464466,36.8535534 C18.9511845,36.6582912 18.9511845,36.3417088 19.1464466,36.1464466 L19.1464466,36.1464466 L22.293,32.999 L16.4999602,33 C15.7205507,33 15.0795805,32.4055622 15.0068692,31.6457881 L15,31.5014977 L15,20.4985023 C15,19.6702764 15.6704543,19 16.4999602,19 L16.4999602,19 Z M34,17 C34.2761424,17 34.5,17.2238576 34.5,17.5 C34.5,17.7761424 34.2761424,18 34,18 L34,18 L14,18 C13.7238576,18 13.5,17.7761424 13.5,17.5 C13.5,17.2238576 13.7238576,17 14,17 L14,17 Z"/>
    <path fill="#B36B61" d="M18.5,22.5 C18.7761424,22.5 19,22.7238576 19,23 L19,23 L19,30 L30,30 C30.2761424,30 30.5,30.2238576 30.5,30.5 C30.5,30.7761424 30.2761424,31 30,31 L30,31 L18.5,31 C18.2238576,31 18,30.7761424 18,30.5 L18,30.5 L18,23 C18,22.7238576 18.2238576,22.5 18.5,22.5 Z M28,25 L28,29 L26,29 L26,25 L28,25 Z M25,23 L25,29 L23,29 L23,23 L25,23 Z M22,21 L22,29 L20,29 L20,21 L22,21 Z"/>
  </g>
</svg>
