<svg xmlns="http://www.w3.org/2000/svg" xmlns:xlink="http://www.w3.org/1999/xlink" width="48" height="48" viewBox="0 0 48 48">
  <defs>
    <rect id="x-office-calendar-b" width="32" height="39" x="1" y="1"/>
    <filter id="x-office-calendar-a" width="112.5%" height="110.3%" x="-6.2%" y="-2.6%" filterUnits="objectBoundingBox">
      <feOffset dy="1" in="SourceAlpha" result="shadowOffsetOuter1"/>
      <feGaussianBlur in="shadowOffsetOuter1" result="shadowBlurOuter1" stdDeviation=".5"/>
      <feColorMatrix in="shadowBlurOuter1" values="0 0 0 0 0   0 0 0 0 0   0 0 0 0 0  0 0 0 0.2 0"/>
    </filter>
  </defs>
  <g fill="none" fill-rule="evenodd">
    <g transform="translate(7 4)">
      <use fill="#000" filter="url(#x-office-calendar-a)" xlink:href="#x-office-calendar-b"/>
      <use fill="#F9FBFB" xlink:href="#x-office-calendar-b"/>
      <path fill="#000" fill-opacity=".2" fill-rule="nonzero" d="M34,0 L0,0 L0,41 L34,41 L34,0 Z M33,1 L33,40 L1,40 L1,1 L33,1 Z"/>
    </g>
    <path fill="#2A4052" fill-opacity=".6" d="M33,17 L33,32 L15,32 L15,17 L33,17 Z M32,21 L16,21 L16,31 L32,31 L32,21 Z M23,28 L23,30 L21,30 L21,28 L23,28 Z M27,28 L27,30 L25,30 L25,28 L27,28 Z M31,28 L31,30 L29,30 L29,28 L31,28 Z M19,28 L19,30 L17,30 L17,28 L19,28 Z M23,25 L23,27 L21,27 L21,25 L23,25 Z M26,25 C26.5522847,25 27,25.4477153 27,26 C27,26.5522847 26.5522847,27 26,27 C25.4477153,27 25,26.5522847 25,26 C25,25.4477153 25.4477153,25 26,25 Z M31,25 L31,27 L29,27 L29,25 L31,25 Z M19,25 L19,27 L17,27 L17,25 L19,25 Z M23,22 L23,24 L21,24 L21,22 L23,22 Z M27,22 L27,24 L25,24 L25,22 L27,22 Z M31,22 L31,24 L29,24 L29,22 L31,22 Z M19,22 L19,24 L17,24 L17,22 L19,22 Z M19,18 C18.4477153,18 18,18.4477153 18,19 C18,19.5522847 18.4477153,20 19,20 C19.5522847,20 20,19.5522847 20,19 C20,18.4477153 19.5522847,18 19,18 Z M29,18 C28.4477153,18 28,18.4477153 28,19 C28,19.5522847 28.4477153,20 29,20 C29.5522847,20 30,19.5522847 30,19 C30,18.4477153 29.5522847,18 29,18 Z"/>
  </g>
</svg>
