<svg xmlns="http://www.w3.org/2000/svg" xmlns:xlink="http://www.w3.org/1999/xlink" width="32" height="32" viewBox="0 0 32 32">
  <defs>
    <linearGradient id="text-x-generic-template-a" x1="50%" x2="50%" y1=".948%" y2="99.038%">
      <stop offset="0%" stop-color="#BCBECB"/>
      <stop offset="100%" stop-color="#A9A9B0"/>
    </linearGradient>
    <linearGradient id="text-x-generic-template-d" x1="50%" x2="10.489%" y1="50%" y2="91.194%">
      <stop offset="0%" stop-color="#FFF" stop-opacity=".1"/>
      <stop offset="100%" stop-color="#FFF" stop-opacity=".3"/>
    </linearGradient>
    <path id="text-x-generic-template-c" d="M15,0 L22,7 L17.25,7 C16.0073593,7 15,5.99264069 15,4.75 L15,0 L15,0 Z"/>
    <filter id="text-x-generic-template-b" width="200%" height="200%" x="-50%" y="-35.7%" filterUnits="objectBoundingBox">
      <feOffset dy="1" in="SourceAlpha" result="shadowOffsetOuter1"/>
      <feGaussianBlur in="shadowOffsetOuter1" result="shadowBlurOuter1" stdDeviation="1"/>
      <feComposite in="shadowBlurOuter1" in2="SourceAlpha" operator="out" result="shadowBlurOuter1"/>
      <feColorMatrix in="shadowBlurOuter1" values="0 0 0 0 0   0 0 0 0 0   0 0 0 0 0  0 0 0 0.05 0"/>
    </filter>
  </defs>
  <g fill="none" fill-rule="evenodd">
    <g transform="translate(5 3)">
      <path fill="url(#text-x-generic-template-a)" d="M22,22 C22,24.209139 20.209139,26 18,26 L4,26 C1.790861,26 2.705415e-16,24.209139 0,22 L0,4 C-2.705415e-16,1.790861 1.790861,4.05812251e-16 4,0 L15,0 L22,7 L22,22 Z"/>
      <use fill="#000" filter="url(#text-x-generic-template-b)" xlink:href="#text-x-generic-template-c"/>
      <use fill="url(#text-x-generic-template-d)" xlink:href="#text-x-generic-template-c"/>
    </g>
    <path fill="#4E59BA" d="M18,9 L18,10 L9,9.97733333 L9,8.97733333 L18,9 Z M23,12 L23,13 L9,13 L9,12 L23,12 Z M23,15 L23,16 L9,16 L9,15 L23,15 Z M23,18 L23,19 L9,19 L9,18 L23,18 Z M23,21 L23,22 L9,22 L9,21 L23,21 Z M15,24.0226667 L15,25 L9,25 L9,24.0226667 L15,24.0226667 Z M17,24.0226667 L17,25 L16,25 L16,24.0226667 L17,24.0226667 Z"/>
  </g>
</svg>
