<svg xmlns="http://www.w3.org/2000/svg" width="16" height="16" viewBox="0 0 16 16">
  <defs>
    <linearGradient id="apps.com.dingtalk.im_icon-a" x1="50%" x2="50%" y1="0%" y2="100%">
      <stop offset="0%" stop-color="#7BC7E6"/>
      <stop offset="100%" stop-color="#4382BA"/>
    </linearGradient>
    <linearGradient id="apps.com.dingtalk.im_icon-b" x1="50%" x2="50%" y1="0%" y2="100%">
      <stop offset="0%" stop-color="#FFF" stop-opacity=".797"/>
      <stop offset="100%" stop-color="#FFF" stop-opacity=".703"/>
    </linearGradient>
  </defs>
  <g fill="none" fill-rule="evenodd">
    <path fill="url(#apps.com.dingtalk.im_icon-a)" fill-rule="nonzero" d="M8,15 C4.14,15 1,11.8596667 1,8 C1,4.14033333 4.14,1 8,1 C11.8596667,1 15,4.14033333 15,8 C15,11.8596667 11.8596667,15 8,15 Z"/>
    <path fill="url(#apps.com.dingtalk.im_icon-b)" fill-rule="nonzero" d="M9.10821116,13.4182388 L11.6529946,10.1208677 L10.3546205,10.1208677 L11.8497259,7.43205457 C11.8497259,7.43205457 12.3979561,6.52461961 11.4001481,6.1331417 L4.33649753,3.33651014 C4.33649753,3.33651014 3.94152429,3.09621126 4.00741384,3.78102699 C4.00741384,3.78102699 4.16103477,5.15029763 4.77515446,5.71532473 L8.31790064,6.95434328 L4.95061722,6.22586965 C4.95061722,6.22586965 4.45699168,6.10608102 4.64337536,6.6822932 C4.64337536,6.6822932 5.02742769,7.84554184 5.87197877,8.13887966 L8.54833204,8.17135248 L6.21198339,8.54082103 C6.21198339,8.54082103 5.79516831,8.60612748 6.16793568,9.0733753 C6.16793568,9.0733753 6.78205537,9.92127676 7.68157509,9.98658321 L9.0088308,9.69937914 L8.64190813,11.2039434 L9.70742581,11.2039434 L9.10821116,13.4182388 Z"/>
  </g>
</svg>
