<svg xmlns="http://www.w3.org/2000/svg" width="16" height="16" viewBox="0 0 16 16">
  <defs>
    <linearGradient id="chromium-a" x1="50%" x2="50%" y1="0%" y2="100%">
      <stop offset="0%" stop-color="#70A4E4"/>
      <stop offset="100%" stop-color="#224BA2"/>
    </linearGradient>
    <linearGradient id="chromium-b" x1="50%" x2="50%" y1="0%" y2="98.017%">
      <stop offset="0%" stop-color="#AECAEF"/>
      <stop offset="100%" stop-color="#6D93D4"/>
    </linearGradient>
    <linearGradient id="chromium-c" x1="50%" x2="50%" y1="0%" y2="100%">
      <stop offset="0%" stop-color="#A3CCF7"/>
      <stop offset="100%" stop-color="#4A7BCD"/>
    </linearGradient>
    <linearGradient id="chromium-d" x1="0%" x2="100%" y1="39.862%" y2="39.862%">
      <stop offset="0%" stop-color="#F5F5F5"/>
      <stop offset="100%" stop-color="#DCDCDC"/>
    </linearGradient>
    <linearGradient id="chromium-e" x1="50%" x2="50%" y1="101.163%" y2="-1.163%">
      <stop offset="0%" stop-color="#517FB3"/>
      <stop offset="100%" stop-color="#A1C6EF"/>
    </linearGradient>
  </defs>
  <g fill="none" fill-rule="evenodd" transform="translate(1.058 1.065)">
    <path fill="url(#chromium-a)" d="M6.98486223,-8.97924839e-14 C4.58917795,-8.97924839e-14 2.45850197,1.20677878 1.20718963,3.05283058 L4.39716629,8.41427506 C4.39716629,8.41427506 10.4399338,5.71089261 13.3208784,4.23117832 C13.3810924,4.20025115 13.2206421,3.88235068 13.2206421,3.88235068 C12.0822337,1.58780117 9.72061536,-8.97924839e-14 6.98486223,-8.97924839e-14 Z"/>
    <path fill="url(#chromium-b)" d="M12.984657,10.4918587 C14.1752647,8.462227 14.2281817,6.04348684 13.3047711,4.06079444 C13.2933517,4.0362755 13.2323598,3.90673469 13.2206421,3.88235068 L7.00986258,3.88235068 L6.37080826,13.9221619 C9.00828422,14.1285237 11.6077952,12.8387596 12.984657,10.4918587 Z"/>
    <path fill="url(#chromium-c)" d="M1.20718963,3.05283058 C0.475105559,4.14750362 -9.94325709e-14,5.61912012 -9.94325709e-14,7.03583298 C-9.94325709e-14,10.6848524 2.9225314,13.6338431 6.38157849,13.9195182 L9.61631436,8.45750087 L4.49371771,8.57896001 L1.20718963,3.05283058 Z"/>
    <path fill="url(#chromium-d)" fill-rule="nonzero" d="M6.94219604,10.9353296 C4.73659604,10.9353296 2.94219604,9.14052959 2.94219604,6.93492959 C2.94219604,4.72932959 4.73659604,2.93532959 6.94219604,2.93532959 C9.14739604,2.93532959 10.942196,4.72932959 10.942196,6.93492959 C10.942196,9.14052959 9.14739604,10.9353296 6.94219604,10.9353296 L6.94219604,10.9353296 Z"/>
    <circle cx="7" cy="6.935" r="2.68" fill="url(#chromium-e)" fill-rule="nonzero"/>
  </g>
</svg>
