<svg xmlns="http://www.w3.org/2000/svg" width="16" height="16" viewBox="0 0 16 16">
  <defs>
    <linearGradient id="com.qq.im.deepin-a" x1="28.78%" x2="42.037%" y1="45.148%" y2="54.852%">
      <stop offset="0%" stop-color="#EACB69"/>
      <stop offset="100%" stop-color="#E2B55D"/>
    </linearGradient>
    <radialGradient id="com.qq.im.deepin-b" cx="52.484%" cy="11.205%" r="96.228%" fx="52.484%" fy="11.205%" gradientTransform="matrix(0 .92275 -1 0 .637 -.372)">
      <stop offset="0%" stop-color="#3A3B53"/>
      <stop offset="100%" stop-color="#2A2B39"/>
    </radialGradient>
    <linearGradient id="com.qq.im.deepin-c" x1="50%" x2="50%" y1="0%" y2="100%">
      <stop offset="0%" stop-color="#FFF"/>
      <stop offset="100%" stop-color="#EBEBEB"/>
    </linearGradient>
    <linearGradient id="com.qq.im.deepin-d" x1="22.901%" x2="38.121%" y1="38.727%" y2="60.25%">
      <stop offset="0%" stop-color="#D36867"/>
      <stop offset="100%" stop-color="#BF4852"/>
    </linearGradient>
  </defs>
  <g fill="none" fill-rule="evenodd" transform="translate(1.5 .117)">
    <path fill="url(#com.qq.im.deepin-a)" d="M8.68140766,13.1868174 C8.68140766,13.1868174 12.0857703,14.1724269 11.8327141,14.6351775 C11.6640099,14.9436779 9.85009941,14.9678204 6.39098251,14.707605 C7.91793261,13.6937466 8.68140766,13.1868174 8.68140766,13.1868174 Z"/>
    <path fill="url(#com.qq.im.deepin-a)" d="M3.36734823,13.1868174 C3.36734823,13.1868174 6.77171084,14.1724269 6.51865464,14.6351775 C6.3499505,14.9436779 4.53603998,14.9678204 1.07692308,14.707605 C2.60387318,13.6937466 3.36734823,13.1868174 3.36734823,13.1868174 Z" transform="matrix(-1 0 0 1 7.609 0)"/>
    <path fill="url(#com.qq.im.deepin-b)" d="M0.105656302,12.485478 C-0.0746949666,12.3753676 -0.0685230255,11.288977 0.480028906,9.48553972 C0.78548877,8.48129985 1.736629,7.30113403 1.736629,6.31417639 C1.736629,3.39995063 3.18767137,0.887544759 6.49599633,0.887544759 C9.80432129,0.887544759 11.3305662,3.27138184 11.3368344,6.31417639 C11.3386737,7.2070548 11.8539112,8.25327611 12.1791728,8.97126458 C12.7625415,10.2590037 13.0781135,12.1133756 12.8343248,12.485478 C12.6471385,12.7711864 12.147975,12.314053 11.3368344,11.1140776 C11.0036048,12.6409459 10.2520369,13.6814007 9.08213083,14.235442 C8.34185358,14.5860207 7.47557534,14.8681278 6.46999056,14.8854286 C5.01886913,14.9103947 3.53791679,14.3246784 2.87451621,13.4639944 C2.125771,12.4925858 1.70198117,11.7092802 1.60314672,11.1140776 C0.792006075,12.1426279 0.292842604,12.5997614 0.105656302,12.485478 Z"/>
    <path fill="#DEB162" d="M3.51780487,5.634452 C3.51780487,6.11112654 5.44492694,6.62846941 6.48518059,6.62846941 C7.52543424,6.62846941 9.32808882,5.93712529 9.32808882,5.634452 C9.32808882,5.3317787 7.99827681,5.20978887 6.48518059,5.20978887 C4.97208437,5.20978887 3.51780487,5.37501774 3.51780487,5.634452 Z"/>
    <path fill="url(#com.qq.im.deepin-c)" d="M2.68371422,7.79891964 C2.00549969,10.3588721 2.48993864,14.5077607 6.46233803,14.5077607 C10.4347374,14.5077607 10.7254008,9.8292268 10.1440741,7.79891964 C9.87755569,7.55609542 8.35901957,7.86544732 6.7530014,7.79891964 C4.85599158,7.72033794 2.8411184,7.32088444 2.68371422,7.79891964 Z"/>
    <path fill="url(#com.qq.im.deepin-d)" d="M1.70645258,6.67000382 C2.72717653,7.10239424 5.00021786,7.27535041 6.85607959,7.18887232 C8.71194132,7.10239424 10.9073838,6.88910972 11.3676315,6.62846941 C11.4433562,6.83123831 11.5228782,7.13575052 11.6203897,7.44830657 C11.7219145,7.77372641 11.8376538,8.08520622 11.9150696,8.3387927 C11.6657282,8.59153966 9.91825145,8.918434 9.17590676,9.00491208 C8.43356206,9.09139016 6.43419325,9.26434633 5.59905547,9.17786825 C5.59905547,9.52378058 5.59905547,10.4256023 5.59905547,11.8833333 L3.65407403,11.8833333 L3.65407403,9.00491208 C2.12155957,8.80203945 1.26250925,8.52764697 1.07692308,8.18173464 C1.12451998,7.9599461 1.23751656,7.71580964 1.33832203,7.44830657 C1.43404303,7.19429594 1.59550399,6.8696641 1.70645258,6.67000382 Z"/>
    <ellipse cx="7.78" cy="3.73" fill="#FFF" rx="1" ry="1.124"/>
    <ellipse cx="5.324" cy="3.73" fill="#FFF" rx="1" ry="1.124"/>
    <path fill="#34354A" d="M5.40983155 4.33509557C5.61874654 4.33509557 5.7881056 4.10279022 5.7881056 3.81622706 5.7881056 3.5296639 5.61874654 3.29735856 5.40983155 3.29735856 5.20091655 3.29735856 5.03155749 3.5296639 5.03155749 3.81622706 5.03155749 4.10279022 5.20091655 4.33509557 5.40983155 4.33509557zM7.19481352 4.17603634C7.1499243 4.14790294 7.11810358 4.1012738 7.19481352 3.99119159 7.27152345 3.88110938 7.51892342 3.70568037 7.84686527 3.72281079 8.17480711 3.7399412 8.24416996 3.81645139 8.29376687 3.87903231 8.35079835 3.95099409 8.29884231 4.07678804 8.16000923 4.05953319 7.99259803 4.03872652 7.89948865 3.94849675 7.67442121 3.97852654 7.44935377 4.00855632 7.41763422 4.09238544 7.30585855 4.16463863 7.28196488 4.18008379 7.23970273 4.20416973 7.19481352 4.17603634z"/>
  </g>
</svg>
