<svg xmlns="http://www.w3.org/2000/svg" width="16" height="16" viewBox="0 0 16 16">
  <defs>
    <radialGradient id="com.qq.weixin.deepin-a" cx="44.018%" cy="22.165%" r="90.233%" fx="44.018%" fy="22.165%" gradientTransform="matrix(0 1 -.90165 0 .64 -.219)">
      <stop offset="0%" stop-color="#BFE2AA"/>
      <stop offset="99.138%" stop-color="#6B9F47"/>
      <stop offset="100%" stop-color="#D8D8D8"/>
    </radialGradient>
    <linearGradient id="com.qq.weixin.deepin-b" x1="50%" x2="50%" y1="0%" y2="100%">
      <stop offset="0%" stop-color="#68A16C"/>
      <stop offset="100%" stop-color="#37683A"/>
    </linearGradient>
    <radialGradient id="com.qq.weixin.deepin-c" cx="50%" cy="15.44%" r="79.623%" fx="50%" fy="15.44%" gradientTransform="matrix(0 1 -.9151 0 .641 -.346)">
      <stop offset="0%" stop-color="#EFEFEF"/>
      <stop offset="100%" stop-color="#CDCDCD"/>
    </radialGradient>
    <linearGradient id="com.qq.weixin.deepin-d" x1="50%" x2="50%" y1="0%" y2="100%">
      <stop offset="0%" stop-color="#AAA"/>
      <stop offset="100%" stop-color="#727272"/>
    </linearGradient>
  </defs>
  <g fill="none" fill-rule="evenodd">
    <g transform="translate(.75 2.125)">
      <path fill="url(#com.qq.weixin.deepin-a)" d="M5.31292725,2.36847579e-15 C8.24717594,2.36847579e-15 10.6258545,2.01471863 10.6258545,4.5 C10.6258545,6.98528137 8.24717594,9 5.31292725,9 C4.60175802,9 3.92322435,8.88165049 3.3032824,8.6669361 L2.10831304,9.34599056 C2.06289015,9.37181376 2.00916516,9.37883581 1.95863116,9.36555451 C1.85180216,9.33747781 1.7879608,9.22811513 1.8160375,9.12128612 L1.8160375,9.12128612 L2.08978536,8.07762159 C0.819478795,7.25535734 0,5.95873548 0,4.5 C0,2.01471863 2.37867855,2.36847579e-15 5.31292725,2.36847579e-15 Z" opacity=".98"/>
      <circle cx="4" cy="3.625" r="1" fill="url(#com.qq.weixin.deepin-b)"/>
      <circle cx="7" cy="3.625" r="1" fill="url(#com.qq.weixin.deepin-b)"/>
    </g>
    <g transform="translate(6.577 6.125)">
      <path fill="url(#com.qq.weixin.deepin-c)" d="M4.39920044,0 C6.82881175,0 8.79840088,1.67893219 8.79840088,3.75 C8.79840088,4.92217513 8.16748421,5.96873781 7.1793333,6.65639358 L7.35737644,7.64661528 C7.37698915,7.75531707 7.30476818,7.85933652 7.19606639,7.87894923 C7.15198098,7.88690342 7.10650153,7.87982668 7.06691734,7.85885327 L5.94123947,7.26315784 C5.46137346,7.41627607 4.941757,7.5 4.39920044,7.5 C1.96958913,7.5 0,5.82106781 0,3.75 C0,1.67893219 1.96958913,0 4.39920044,0 Z"/>
      <circle cx="5.923" cy="2.375" r="1" fill="url(#com.qq.weixin.deepin-d)"/>
      <circle cx="2.923" cy="2.375" r="1" fill="url(#com.qq.weixin.deepin-d)"/>
    </g>
  </g>
</svg>
