<svg xmlns="http://www.w3.org/2000/svg" xmlns:xlink="http://www.w3.org/1999/xlink" width="16" height="16" viewBox="0 0 16 16">
  <defs>
    <linearGradient id="dde-printer-a" x1="54.444%" x2="54.444%" y1="1.14%" y2="101.316%">
      <stop offset="0%" stop-opacity=".153"/>
      <stop offset="100%" stop-opacity=".459"/>
    </linearGradient>
    <linearGradient id="dde-printer-b" x1="47.778%" x2="47.778%" y1="0%" y2="114.411%">
      <stop offset="0%" stop-color="#FFF"/>
      <stop offset="85.999%" stop-color="#BFBFBF"/>
      <stop offset="100%" stop-color="#626262"/>
    </linearGradient>
    <linearGradient id="dde-printer-c" x1="54.444%" x2="54.444%" y1="-1.316%" y2="101.316%">
      <stop offset="0%" stop-opacity=".1"/>
      <stop offset="100%" stop-opacity=".45"/>
    </linearGradient>
    <linearGradient id="dde-printer-f" x1="50%" x2="50%" y1="-1.724%" y2="101.724%">
      <stop offset="0%" stop-color="#646464"/>
      <stop offset="100%" stop-color="#323232"/>
    </linearGradient>
    <polygon id="dde-printer-e" points="3 5 3.9 5 4 6 3 6"/>
    <filter id="dde-printer-d" width="500%" height="500%" x="-200%" y="-100%" filterUnits="objectBoundingBox">
      <feOffset dy="1" in="SourceAlpha" result="shadowOffsetOuter1"/>
      <feGaussianBlur in="shadowOffsetOuter1" result="shadowBlurOuter1" stdDeviation=".5"/>
      <feColorMatrix in="shadowBlurOuter1" values="0 0 0 0 0   0 0 0 0 0   0 0 0 0 0  0 0 0 0.267646416 0"/>
    </filter>
    <polygon id="dde-printer-h" points="12.1 5 13 5 13 6 12 6"/>
    <filter id="dde-printer-g" width="500%" height="500%" x="-200%" y="-100%" filterUnits="objectBoundingBox">
      <feOffset dy="1" in="SourceAlpha" result="shadowOffsetOuter1"/>
      <feGaussianBlur in="shadowOffsetOuter1" result="shadowBlurOuter1" stdDeviation=".5"/>
      <feColorMatrix in="shadowBlurOuter1" values="0 0 0 0 0   0 0 0 0 0   0 0 0 0 0  0 0 0 0.267646416 0"/>
    </filter>
    <radialGradient id="dde-printer-i" cx="50%" cy="-13.221%" r="133.355%" fx="50%" fy="-13.221%" gradientTransform="matrix(0 1 -.78248 0 .397 -.632)">
      <stop offset="0%" stop-color="#959595"/>
      <stop offset="100%" stop-color="#323232"/>
    </radialGradient>
    <linearGradient id="dde-printer-j" x1="50%" x2="50%" y1="0%" y2="123.199%">
      <stop offset="0%" stop-color="#5C5C5C"/>
      <stop offset="100%" stop-opacity=".816"/>
    </linearGradient>
    <linearGradient id="dde-printer-k" x1="47.778%" x2="47.778%" y1="-1.316%" y2="101.316%">
      <stop offset="0%" stop-color="#5B5B5B"/>
      <stop offset="11.755%" stop-color="#D0D0D0"/>
      <stop offset="36.994%" stop-color="#D8D8D8"/>
      <stop offset="100%" stop-color="#FFF"/>
    </linearGradient>
    <linearGradient id="dde-printer-l" x1="54.444%" x2="54.444%" y1="-3.645%" y2="115.143%">
      <stop offset="0%" stop-opacity="0"/>
      <stop offset="13.802%" stop-opacity=".22"/>
      <stop offset="100%" stop-opacity=".32"/>
    </linearGradient>
    <radialGradient id="dde-printer-m" cx="50%" cy="18.931%" r="100%" fx="50%" fy="18.931%">
      <stop offset="2.576%" stop-color="#B4E09E"/>
      <stop offset="100%" stop-color="#1A8F29"/>
    </radialGradient>
  </defs>
  <g fill="none" fill-rule="evenodd">
    <path fill="url(#dde-printer-a)" fill-rule="nonzero" d="M12.6076599,5 L3.39234014,5 C2.70289151,5 2.10191689,5.4692268 1.93470104,6.13809022 L1.0298575,9.75746437 C1.01002735,9.83678498 1,9.91823819 1,10 L1,12.4975 C1,13.3273078 1.67269216,14 2.5025,14 L13.4975,14 C14.3273078,14 15,13.3273078 15,12.4975 L15,10 C15,9.91823819 14.9899727,9.83678498 14.9701425,9.75746437 L14.065299,6.13809022 C13.8980831,5.4692268 13.2971085,5 12.6076599,5 Z"/>
    <polygon fill="url(#dde-printer-b)" fill-rule="nonzero" points="4 2 12 2 12 6 4 6"/>
    <path fill="url(#dde-printer-c)" fill-rule="nonzero" d="M12,1 L4,1 C3.44771525,1 3,1.44771525 3,2 L3,6 C3,6.55228475 3.44771525,7 4,7 L12,7 C12.5522847,7 13,6.55228475 13,6 L13,2 C13,1.44771525 12.5522847,1 12,1 Z M12,2 L12,6 L4,6 L4,2 L12,2 Z"/>
    <g fill-rule="nonzero">
      <use fill="#000" filter="url(#dde-printer-d)" xlink:href="#dde-printer-e"/>
      <use fill="url(#dde-printer-f)" xlink:href="#dde-printer-e"/>
    </g>
    <g fill-rule="nonzero">
      <use fill="#000" filter="url(#dde-printer-g)" xlink:href="#dde-printer-h"/>
      <use fill="url(#dde-printer-f)" xlink:href="#dde-printer-h"/>
    </g>
    <polygon fill="url(#dde-printer-i)" fill-rule="nonzero" points="3 6 13 6 14 10 2 10"/>
    <path fill="url(#dde-printer-j)" fill-rule="nonzero" d="M0.24125,0.075625 L12.24125,0.075625 L12.24125,2.740625 C12.24125,2.92564039 12.0912654,3.075625 11.90625,3.075625 L0.57625,3.075625 C0.391234609,3.075625 0.24125,2.92564039 0.24125,2.740625 L0.24125,0.075625 L0.24125,0.075625 Z" transform="translate(1.759 9.924)"/>
    <polygon fill="url(#dde-printer-k)" fill-rule="nonzero" points="3.403 12 12.597 12 13 14 3 14"/>
    <path fill="url(#dde-printer-l)" fill-rule="nonzero" d="M12.5969828,11 L3.40301724,11 C2.92688133,11 2.51677691,11.3357083 2.422722,11.8024621 L2.01970476,13.8024621 C1.89493225,14.421654 2.3683618,15 3,15 L13,15 C13.6316382,15 14.1050678,14.421654 13.9802952,13.8024621 L13.577278,11.8024621 C13.4832231,11.3357083 13.0731187,11 12.5969828,11 Z M12.5969828,12 L13,14 L3,14 L3.40301724,12 L12.5969828,12 Z"/>
    <path fill="url(#dde-printer-m)" d="M12.5,11 C12.7761424,11 13,10.7761424 13,10.5 C13,10.2238576 12.7761424,10 12.5,10 C12.2238576,10 12,10.2238576 12,10.5 C12,10.7761424 12.2238576,11 12.5,11 Z"/>
  </g>
</svg>
