<svg xmlns="http://www.w3.org/2000/svg" xmlns:xlink="http://www.w3.org/1999/xlink" width="16" height="16" viewBox="0 0 16 16">
  <defs>
    <linearGradient id="deepin-devicemanager-a" x1="50%" x2="50%" y1="3.804%" y2="100.073%">
      <stop offset="0%" stop-color="#D3D3D3"/>
      <stop offset="100%" stop-color="#898989"/>
    </linearGradient>
    <linearGradient id="deepin-devicemanager-b" x1="50%" x2="50%" y1="-1.22%" y2="98.732%">
      <stop offset="0%" stop-color="#323232"/>
      <stop offset="100%" stop-color="#515151"/>
    </linearGradient>
    <linearGradient id="deepin-devicemanager-c" x1="0%" x2="100%" y1="7.883%" y2="92.059%">
      <stop offset="0%" stop-color="#E2D46C"/>
      <stop offset="18.149%" stop-color="#D7BC26"/>
      <stop offset="38.886%" stop-color="#CFB009"/>
      <stop offset="56.473%" stop-color="#E7BF00"/>
      <stop offset="70.402%" stop-color="#D5B630"/>
      <stop offset="83.443%" stop-color="#C9A10A"/>
      <stop offset="100%" stop-color="#C2A422"/>
    </linearGradient>
    <path id="deepin-devicemanager-d" d="M11,2 L12,2 L12,3 L11,3 L11,2 Z M2,2 L3,2 L3,3 L2,3 L2,2 Z M11,11 L12,11 L12,12 L11,12 L11,11 Z"/>
    <filter id="deepin-devicemanager-e" width="110%" height="110%" x="-5%" y="-5%" filterUnits="objectBoundingBox">
      <feOffset dy="1" in="SourceAlpha" result="shadowOffsetInner1"/>
      <feComposite in="shadowOffsetInner1" in2="SourceAlpha" k2="-1" k3="1" operator="arithmetic" result="shadowInnerInner1"/>
      <feColorMatrix in="shadowInnerInner1" values="0 0 0 0 0.926828578   0 0 0 0 0.558558022   0 0 0 0 0  0 0 0 0.55 0"/>
    </filter>
    <linearGradient id="deepin-devicemanager-f" x1="50%" x2="50%" y1="101.22%" y2="-1.22%">
      <stop offset="0%" stop-color="#567EAB"/>
      <stop offset="100%" stop-color="#B4CFED"/>
    </linearGradient>
    <radialGradient id="deepin-devicemanager-g" cx="50%" cy="6.742%" r="134.604%" fx="50%" fy="6.742%" gradientTransform="matrix(0 1 -.5 0 .534 -.433)">
      <stop offset="0%" stop-color="#95B9E0"/>
      <stop offset="100%" stop-color="#336499"/>
    </radialGradient>
    <linearGradient id="deepin-devicemanager-h" x1="0%" x2="100%" y1="45.32%" y2="54.673%">
      <stop offset="0%" stop-color="#E2D46C"/>
      <stop offset="18.149%" stop-color="#D7BC26"/>
      <stop offset="38.886%" stop-color="#CFB009"/>
      <stop offset="56.473%" stop-color="#E7BF00"/>
      <stop offset="70.402%" stop-color="#D5B630"/>
      <stop offset="83.443%" stop-color="#C9A10A"/>
      <stop offset="100%" stop-color="#C2A422"/>
    </linearGradient>
    <path id="deepin-devicemanager-i" d="M5.5,11 C5.77614237,11 6,11.2238576 6,11.5 C6,11.7761424 5.77614237,12 5.5,12 C5.22385763,12 5,11.7761424 5,11.5 C5,11.2238576 5.22385763,11 5.5,11 Z M7.5,11 C7.77614237,11 8,11.2238576 8,11.5 C8,11.7761424 7.77614237,12 7.5,12 C7.22385763,12 7,11.7761424 7,11.5 C7,11.2238576 7.22385763,11 7.5,11 Z"/>
    <filter id="deepin-devicemanager-j" width="133.3%" height="200%" x="-16.7%" y="-50%" filterUnits="objectBoundingBox">
      <feOffset dy="1" in="SourceAlpha" result="shadowOffsetInner1"/>
      <feComposite in="shadowOffsetInner1" in2="SourceAlpha" k2="-1" k3="1" operator="arithmetic" result="shadowInnerInner1"/>
      <feColorMatrix in="shadowInnerInner1" values="0 0 0 0 0.926828578   0 0 0 0 0.558558022   0 0 0 0 0  0 0 0 0.55 0"/>
    </filter>
  </defs>
  <g fill="none" fill-rule="evenodd" transform="translate(1 1)">
    <path fill="url(#deepin-devicemanager-a)" fill-rule="nonzero" d="M1.25625,0 L12.74375,0 C13.4375577,1.10499967e-15 14,0.562442283 14,1.25625 L14,12.74375 C14,13.4375577 13.4375577,14 12.74375,14 L1.25625,14 C0.562442283,14 1.23134911e-15,13.4375577 0,12.74375 L0,1.25625 C-8.496694e-17,0.562442283 0.562442283,3.49495015e-16 1.25625,0 Z"/>
    <path fill="url(#deepin-devicemanager-b)" fill-rule="nonzero" d="M1.879375,1 L12.120625,1 C12.6062904,1 13,1.3937096 13,1.879375 L13,12.120625 C13,12.6062904 12.6062904,13 12.120625,13 L1.879375,13 C1.3937096,13 1,12.6062904 1,12.120625 L1,1.879375 C1,1.3937096 1.3937096,1 1.879375,1 Z"/>
    <use fill="url(#deepin-devicemanager-c)" xlink:href="#deepin-devicemanager-d"/>
    <use fill="#000" filter="url(#deepin-devicemanager-e)" xlink:href="#deepin-devicemanager-d"/>
    <path fill="url(#deepin-devicemanager-f)" fill-rule="nonzero" d="M11.4975,3 C11.7750231,3 12,3.22497691 12,3.5025 L12,9.4975 C12,9.77502309 11.7750231,10 11.4975,10 L10,10 L9,9 L5,9 L4,10 L2.5025,10 C2.22497691,10 2,9.77502309 2,9.4975 L2,3.5025 C2,3.22497691 2.22497691,3 2.5025,3 L11.4975,3 Z"/>
    <path fill="url(#deepin-devicemanager-g)" fill-rule="nonzero" d="M11,4.25125 L11,7.74875 C11,7.88751154 10.8875115,8 10.74875,8 L3.25125,8 C3.11248846,8 3,7.88751154 3,7.74875 L3,4.25125 C3,4.11248846 3.11248846,4 3.25125,4 L10.74875,4 C10.8875115,4 11,4.11248846 11,4.25125 Z"/>
    <path fill="#FFF" fill-opacity=".33" fill-rule="nonzero" d="M4.28914286,4.92580357 L4.28914286,4.60791071 C4.28914286,4.53852994 4.23289863,4.48228571 4.16351786,4.48228571 L3.845625,4.48228571 C3.77624423,4.48228571 3.72,4.53852994 3.72,4.60791071 L3.72,4.92580357 C3.72,4.99518434 3.77624423,5.05142857 3.845625,5.05142857 L4.16351786,5.05142857 C4.23289863,5.05142857 4.28914286,4.99518434 4.28914286,4.92580357 Z M4.28914286,7.39208929 L4.28914286,5.55648214 C4.28914286,5.48710137 4.23289863,5.43085714 4.16351786,5.43085714 L3.845625,5.43085714 C3.77624423,5.43085714 3.72,5.48710137 3.72,5.55648214 L3.72,7.39208929 C3.72,7.46147006 3.77624423,7.51771429 3.845625,7.51771429 L4.16351786,7.51771429 C4.23289863,7.51771429 4.28914286,7.46147006 4.28914286,7.39208929 Z M5.35393388,7.39208929 L5.35393388,6.59342489 L5.35393388,6.59342489 C5.35393388,6.36539507 5.36657497,6.20910497 5.39185714,6.12455459 C5.41713932,6.04000421 5.46388194,5.97210769 5.53208501,5.92086504 C5.60028808,5.86962238 5.67731051,5.84400105 5.7631523,5.84400105 C5.83017946,5.84400105 5.88750531,5.86193598 5.93512987,5.89780584 C5.98275443,5.9336757 6.01714994,5.98395756 6.03831641,6.04865141 C6.05948288,6.11334526 6.07006612,6.2558639 6.07006612,6.47620731 L6.07006612,7.39208929 C6.07006612,7.46147006 6.12631034,7.51771429 6.19569112,7.51771429 L6.44008929,7.51771429 C6.50947006,7.51771429 6.56571429,7.46147006 6.56571429,7.39208929 L6.56571429,6.24945856 L6.56571429,6.24945856 C6.56571429,6.0918874 6.55660094,5.97082662 6.53837426,5.88627624 C6.52014758,5.80172586 6.48780992,5.72614294 6.44136128,5.65952749 C6.39491263,5.59291204 6.32641558,5.53814645 6.23587013,5.49523073 C6.14532468,5.452315 6.0453719,5.43085714 5.93601181,5.43085714 C5.68789374,5.43085714 5.48210862,5.54615312 5.31865643,5.77674507 L5.31865643,5.60260053 C5.31865643,5.53321976 5.26241221,5.47697553 5.19303143,5.47697553 L4.98391071,5.47697553 C4.91452994,5.47697553 4.85828571,5.53321976 4.85828571,5.60260053 L4.85828571,7.39208929 C4.85828571,7.46147006 4.91452994,7.51771429 4.98391071,7.51771429 L5.22830888,7.51771429 C5.29768966,7.51771429 5.35393388,7.46147006 5.35393388,7.39208929 Z M7.75341027,7.39208929 L7.75341027,5.80557785 L7.75341027,5.80557785 L8.07901002,5.80557785 C8.11370041,5.80557785 8.14182252,5.77745573 8.14182252,5.74276535 L8.14182252,5.41847102 C8.14182252,5.38378064 8.11370041,5.35565852 8.07901002,5.35565852 L7.75341027,5.35565852 L7.75341027,5.35565852 L7.75341027,5.20297097 C7.75341027,5.09303593 7.76974824,5.01872799 7.80242419,4.98004714 C7.83510015,4.94136629 7.88904629,4.92202587 7.96426263,4.92202587 C8.04071203,4.92202587 8.12024406,4.93288365 8.20285873,4.95459921 L8.27314286,4.55557574 C8.13134156,4.50671572 7.98645762,4.48228571 7.83849105,4.48228571 C7.69422364,4.48228571 7.57492559,4.51044809 7.4805969,4.56677283 C7.38626821,4.62309757 7.32153283,4.69604829 7.28639077,4.78562499 C7.25124871,4.87520169 7.23367768,5.01092396 7.23367768,5.1927918 L7.23367768,5.35565852 L7.00795536,5.35565852 C6.97326497,5.35565852 6.94514286,5.38378064 6.94514286,5.41847102 L6.94514286,5.74276535 C6.94514286,5.77745573 6.97326497,5.80557785 7.00795536,5.80557785 L7.23367768,5.80557785 L7.23367768,5.80557785 L7.23367768,7.39208929 C7.23367768,7.46147006 7.2899219,7.51771429 7.35930268,7.51771429 L7.62778527,7.51771429 C7.69716604,7.51771429 7.75341027,7.46147006 7.75341027,7.39208929 Z M9.41315954,7.51771429 C9.68549878,7.51771429 9.91139034,7.4183849 10.0908342,7.21972613 C10.2702781,7.02106735 10.36,6.77070716 10.36,6.46864556 C10.36,6.16909069 10.2711436,5.92123724 10.0934307,5.7250852 C9.91571776,5.52893316 9.68780674,5.43085714 9.4096976,5.43085714 C9.22967675,5.43085714 9.06667709,5.47409833 8.92069864,5.56058069 C8.77472019,5.64706306 8.66191867,5.77239983 8.58229406,5.93659099 C8.50266945,6.10078215 8.46285714,6.27061347 8.46285714,6.44608494 C8.46285714,6.67545122 8.50266945,6.87003655 8.58229406,7.02984093 C8.66191867,7.1896453 8.77818213,7.31090862 8.93108446,7.39363089 C9.08398679,7.47635315 9.24467848,7.51771429 9.41315954,7.51771429 Z M9.41215965,6.94857143 C9.30493513,6.94857143 9.21476906,6.90783523 9.14166144,6.82636284 C9.06855381,6.74489045 9.032,6.62753141 9.032,6.47428571 C9.032,6.32104002 9.06855381,6.20368098 9.14166144,6.12220859 C9.21476906,6.0407362 9.30493513,6 9.41215965,6 C9.51938416,6 9.60930654,6.0407362 9.68192678,6.12220859 C9.75454702,6.20368098 9.79085714,6.32007011 9.79085714,6.47137599 C9.79085714,6.6265615 9.75454702,6.74489045 9.68192678,6.82636284 C9.60930654,6.90783523 9.51938416,6.94857143 9.41215965,6.94857143 Z"/>
    <use fill="url(#deepin-devicemanager-h)" xlink:href="#deepin-devicemanager-i"/>
    <use fill="#000" filter="url(#deepin-devicemanager-j)" xlink:href="#deepin-devicemanager-i"/>
  </g>
</svg>
