<svg xmlns="http://www.w3.org/2000/svg" xmlns:xlink="http://www.w3.org/1999/xlink" width="16" height="16" viewBox="0 0 16 16">
  <defs>
    <radialGradient id="deepin-screenshot&amp;record-a" cx="50%" cy="0%" r="113.951%" fx="50%" fy="0%" gradientTransform="matrix(0 1 -.85714 0 .5 -.5)">
      <stop offset="0%" stop-color="#9D9D9D"/>
      <stop offset="100%" stop-color="#1F1F1F"/>
    </radialGradient>
    <linearGradient id="deepin-screenshot&amp;record-b" x1="50%" x2="50%" y1="0%" y2="100%">
      <stop offset="0%" stop-color="#DCDDF1"/>
      <stop offset="16.08%" stop-color="#FDE3DF"/>
      <stop offset="24.813%" stop-color="#FBCFC5"/>
      <stop offset="34.082%" stop-color="#E298A7"/>
      <stop offset="44.688%" stop-color="#557998"/>
      <stop offset="100%" stop-color="#C8C8C8"/>
    </linearGradient>
    <polygon id="deepin-screenshot&amp;record-c" points="1.912 1.232 13.912 1.232 13.912 9.232 1.912 9.232"/>
    <radialGradient id="deepin-screenshot&amp;record-e" cx="51.904%" cy="14.321%" r="151.594%" fx="51.904%" fy="14.321%" gradientTransform="scale(-.5 -1) rotate(-40.774 -.645 2.095)">
      <stop offset="0%" stop-color="#E8EDF8"/>
      <stop offset="67.042%" stop-color="#BECDDD"/>
      <stop offset="100%" stop-color="#8CA1B6"/>
    </radialGradient>
    <path id="deepin-screenshot&amp;record-d" d="M1.91248125,3.9454654 L2.21705607,3.9454654 L2.83555817,3.58779526 L3.18171202,3.58779526 L3.7586351,3.23245625 C3.91248125,3.36152916 4.0663274,3.47997549 4.22017356,3.58779526 C4.37401971,3.69561503 4.60478894,3.7492309 4.91248125,3.74864287 L5.43171202,3.58779526 L5.77786587,3.58896082 L6.41248125,3.33867993 L7.33555817,3.74864287 C7.57212079,3.82960625 7.91827463,3.82960625 8.37401971,3.74864287 C8.82976479,3.66767948 9.25284171,3.53102517 9.64325048,3.33867993 L10.7970966,3.85518157 C11.1413311,3.82483957 11.3721003,3.78932667 11.4894043,3.74864287 C11.7523685,3.65744065 12.0215993,3.5499149 12.2970966,3.42606561 C12.5115992,3.54002968 12.8192915,3.68306833 13.2201736,3.85518157 C13.3861057,3.92642226 13.6168749,4.04144542 13.9124813,4.20025103 L13.9124813,9.23245625 L1.91248125,9.23245625 L1.91248125,3.9454654 Z"/>
    <radialGradient id="deepin-screenshot&amp;record-f" cx="55.373%" cy="-6.628%" r="168.52%" fx="55.373%" fy="-6.628%" gradientTransform="scale(-.4167 -1) rotate(-30.894 -.148 3.406)">
      <stop offset="0%" stop-color="#EAEFF5"/>
      <stop offset="100%" stop-color="#8197BC"/>
    </radialGradient>
    <radialGradient id="deepin-screenshot&amp;record-h" cx="63.611%" cy="0%" r="129.69%" fx="63.611%" fy="0%" gradientTransform="matrix(.1063 .99333 -.91545 .11534 .568 -.632)">
      <stop offset="0%" stop-color="#E5E6E9"/>
      <stop offset="100%" stop-color="#94A6BE"/>
    </radialGradient>
    <linearGradient id="deepin-screenshot&amp;record-i" x1="50%" x2="50%" y1="0%" y2="639.473%">
      <stop offset="0%" stop-opacity=".497"/>
      <stop offset="100%" stop-opacity=".848"/>
    </linearGradient>
    <linearGradient id="deepin-screenshot&amp;record-j" x1="50%" x2="50%" y1="0%" y2="639.473%">
      <stop offset="0%" stop-opacity=".497"/>
      <stop offset="100%" stop-opacity=".848"/>
    </linearGradient>
    <linearGradient id="deepin-screenshot&amp;record-k" x1="50%" x2="50%" y1="0%" y2="639.473%">
      <stop offset="0%" stop-opacity=".497"/>
      <stop offset="100%" stop-opacity=".848"/>
    </linearGradient>
    <radialGradient id="deepin-screenshot&amp;record-l" cx="50%" cy="23.117%" r="76.883%" fx="50%" fy="23.117%" gradientTransform="matrix(0 1 -.97613 0 .726 -.269)">
      <stop offset="0%" stop-color="#D25650" stop-opacity=".689"/>
      <stop offset="100%" stop-color="#A70C05" stop-opacity=".658"/>
    </radialGradient>
  </defs>
  <g fill="none" fill-rule="evenodd" transform="translate(.088 1.768)">
    <path fill="url(#deepin-screenshot&amp;record-a)" fill-rule="nonzero" d="M1.41749375,0.23245625 L14.4074688,0.23245625 C14.6863795,0.23245625 14.9124813,0.458558048 14.9124813,0.73746875 L14.9124813,11.7274437 C14.9124813,12.0063545 14.6863795,12.2324562 14.4074688,12.2324562 L1.41749375,12.2324562 C1.13858305,12.2324562 0.91248125,12.0063545 0.91248125,11.7274437 L0.91248125,0.73746875 C0.91248125,0.458558048 1.13858305,0.23245625 1.41749375,0.23245625 Z"/>
    <use fill="url(#deepin-screenshot&amp;record-b)" fill-rule="nonzero" xlink:href="#deepin-screenshot&amp;record-c"/>
    <mask id="deepin-screenshot&amp;record-g" fill="#fff">
      <use xlink:href="#deepin-screenshot&amp;record-d"/>
    </mask>
    <use fill="url(#deepin-screenshot&amp;record-e)" xlink:href="#deepin-screenshot&amp;record-d"/>
    <path fill="url(#deepin-screenshot&amp;record-f)" d="M5.72310156,3.74663903 C5.21808906,4.24130806 4.75516094,4.48864258 4.33431719,4.48864258 C3.70305156,4.48864258 2.85565144,4.67802227 2.25114063,4.86740195 C1.84813342,4.99365508 1.45268824,5.18303477 1.06480511,5.43554102 L1.06480511,3.41549102 L5.91248125,3.41549102 L5.72310156,3.74663903 Z" mask="url(#deepin-screenshot&amp;record-g)"/>
    <path fill="url(#deepin-screenshot&amp;record-h)" d="M8.57680293,3.48400475 C9.03973105,3.61536726 9.2922373,3.79957522 9.33432168,4.03662861 C9.39744824,4.3922087 9.9655873,4.16288174 10.4074732,4.60476768 C10.8493592,5.04665361 11.7331311,5.86655916 11.9856373,6.52605913 C12.2381436,7.18555909 12.6532747,7.67947513 13.2481686,7.84653859 C13.6447645,7.95791423 13.9393551,8.13866333 14.1319404,8.3887859 L14.1319404,3.20553256 L8.4505498,3.15285674 L8.57680293,3.48400475 Z" mask="url(#deepin-screenshot&amp;record-g)"/>
    <g fill-rule="nonzero" transform="translate(3.311 2.641)">
      <polygon fill="url(#deepin-screenshot&amp;record-i)" points="2.383 -.427 2.383 .573 .615 .573 .616 1.836 -.384 1.836 -.384 -.427"/>
      <polygon fill="url(#deepin-screenshot&amp;record-i)" points="9.614 -.427 9.614 .573 7.846 .573 7.846 1.836 6.846 1.836 6.846 -.427" transform="matrix(-1 0 0 1 16.46 0)"/>
      <polygon fill="url(#deepin-screenshot&amp;record-j)" points="6.601 2.595 6.601 3.595 3.616 3.595 3.616 2.595"/>
      <polygon fill="url(#deepin-screenshot&amp;record-k)" points="5.597 1.591 5.597 4.593 4.597 4.593 4.597 1.591"/>
      <polygon fill="url(#deepin-screenshot&amp;record-i)" points="2.383 3.345 2.383 4.345 .615 4.345 .616 5.608 -.384 5.608 -.384 3.345" transform="matrix(1 0 0 -1 0 8.953)"/>
      <polygon fill="url(#deepin-screenshot&amp;record-i)" points="9.614 3.345 9.614 4.345 7.846 4.345 7.846 5.608 6.846 5.608 6.846 3.345" transform="rotate(180 8.23 4.476)"/>
    </g>
    <path fill="#979797" fill-rule="nonzero" d="M13.9124813 10.7324562C13.9124813 11.0085986 13.6886236 11.2324562 13.4124813 11.2324562 13.1363389 11.2324562 12.9124813 11.0085986 12.9124813 10.7324562 12.9124813 10.4563139 13.1363389 10.2324562 13.4124813 10.2324562 13.6886236 10.2324562 13.9124813 10.4563139 13.9124813 10.7324562zM2.91248125 10.7324562C2.91248125 11.0085986 2.68862362 11.2324562 2.41248125 11.2324562 2.13633888 11.2324562 1.91248125 11.0085986 1.91248125 10.7324562 1.91248125 10.4563139 2.13633888 10.2324562 2.41248125 10.2324562 2.68862362 10.2324562 2.91248125 10.4563139 2.91248125 10.7324562zM4.90950469 10.7324562C4.90950469 11.0085986 4.68564706 11.2324562 4.40950469 11.2324562 4.13336231 11.2324562 3.90950469 11.0085986 3.90950469 10.7324562 3.90950469 10.4563139 4.13336231 10.2324562 4.40950469 10.2324562 4.68564706 10.2324562 4.90950469 10.4563139 4.90950469 10.7324562zM6.90652812 10.7324562C6.90652812 11.0085986 6.6826705 11.2324562 6.40652812 11.2324562 6.13038575 11.2324562 5.90652812 11.0085986 5.90652812 10.7324562 5.90652812 10.4563139 6.13038575 10.2324562 6.40652812 10.2324562 6.6826705 10.2324562 6.90652812 10.4563139 6.90652812 10.7324562zM9.91843438 10.7324562C9.91843438 11.0085986 9.69457675 11.2324562 9.41843438 11.2324562L8.40355156 11.2324562C8.12740919 11.2324562 7.90355156 11.0085986 7.90355156 10.7324562 7.90355156 10.4563139 8.12740919 10.2324562 8.40355156 10.2324562L9.41843438 10.2324562C9.69457675 10.2324562 9.91843438 10.4563139 9.91843438 10.7324562zM11.9154578 10.7324562C11.9154578 11.0085986 11.6916002 11.2324562 11.4154578 11.2324562 11.1393154 11.2324562 10.9154578 11.0085986 10.9154578 10.7324562 10.9154578 10.4563139 11.1393154 10.2324562 11.4154578 10.2324562 11.6916002 10.2324562 11.9154578 10.4563139 11.9154578 10.7324562z"/>
    <circle cx="5.41" cy="4.732" r="1" fill="url(#deepin-screenshot&amp;record-l)" fill-rule="nonzero"/>
  </g>
</svg>
