<svg xmlns="http://www.w3.org/2000/svg" xmlns:xlink="http://www.w3.org/1999/xlink" width="16" height="16" viewBox="0 0 16 16">
  <defs>
    <linearGradient id="deepin-address-book-a" x1="47.895%" x2="47.895%" y1="-24.634%" y2="100%">
      <stop offset="0%" stop-color="#E36D67"/>
      <stop offset="100%" stop-color="#943A36"/>
    </linearGradient>
    <linearGradient id="deepin-address-book-b" x1="47.895%" x2="47.895%" y1="-1.471%" y2="101.471%">
      <stop offset="0%" stop-color="#DD564F"/>
      <stop offset="100%" stop-color="#9A201A"/>
    </linearGradient>
    <linearGradient id="deepin-address-book-c" x1="110%" x2="10%" y1="68.75%" y2="68.75%">
      <stop offset="0%" stop-color="#F0F0F0"/>
      <stop offset="100%" stop-color="#D2D2D2"/>
    </linearGradient>
    <radialGradient id="deepin-address-book-d" cx="50%" cy="0%" r="100%" fx="50%" fy="0%" gradientTransform="matrix(0 1 -1.19368 0 .5 -.5)">
      <stop offset="0%" stop-color="#E79995"/>
      <stop offset="100%" stop-color="#8B2B2B"/>
    </radialGradient>
    <path id="deepin-address-book-f" d="M5.9992118,5.42720937 C7.23331478,5.42720937 6.96734431,6.45012333 6.96734431,6.68212443 C7.11628777,6.80867048 7.04181604,7.10394461 6.89287258,7.18830865 C6.86095612,7.66285636 6.40348692,7.9792215 6.40348692,8.05304003 C6.40348692,8.12685856 6.3928481,8.2112226 6.46731983,8.31667765 C6.54179156,8.42213269 7.42481352,8.46431471 7.7014228,8.6646793 C7.86596817,8.78386931 8.00792529,9.31002348 8.12729417,10.2431418 C8.12899287,10.2564207 8.12984481,10.2697943 8.12984481,10.2831815 C8.12984481,10.4574521 7.98857059,10.5987263 7.81430001,10.5988143 L7.81430001,10.5988143 L4.1470922,10.5988143 C4.13221228,10.5988143 4.11735098,10.5977623 4.10261944,10.5956662 C3.92999747,10.5711046 3.80997085,10.4112557 3.83460671,10.2386443 C3.96961923,9.2897607 4.11311177,8.7651057 4.26508434,8.6646793 C4.52041599,8.49595123 5.39279913,8.36940517 5.50982614,8.31667765 C5.62685315,8.26395012 5.57365905,8.14794957 5.57365905,8.03194902 C5.57365905,7.91594847 5.15874512,7.7472204 5.08427339,7.18830865 C4.91405229,7.06176259 4.91405229,6.81921599 5.02044048,6.68212443 C5.02044048,6.51339635 4.76510883,5.42720937 5.9992118,5.42720937 Z M8.15315032,5.42720937 C9.1717534,5.42720937 9.03088276,6.37009606 9.03088276,6.72093762 C9.03088276,7.07177917 9.35596885,7.25816375 9.35596885,7.44454833 C9.35596885,7.6309329 8.61910705,7.80635368 8.56492603,7.80635368 C8.51074502,7.80635368 8.53241742,7.92695547 8.56492603,8.04755725 C8.59743464,8.16815904 9.29095163,8.13526764 9.61603772,8.31068842 C9.79678778,8.40822356 9.95492573,8.72182569 10.0904516,9.25150768 C10.096124,9.27367761 10.0989937,9.29646952 10.0989937,9.31935148 C10.0989937,9.46467457 9.98572421,9.58358284 9.84252659,9.59286337 L9.82447705,9.59344644 L8.33084671,9.59355608 L8.32268578,9.55585685 L8.31154913,9.5071877 C8.1920482,8.99409634 8.04950532,8.67431091 7.85297151,8.53037857 C7.72689697,8.43804738 7.54715614,8.37802766 7.27367087,8.31973339 L7.2297041,8.31053892 L7.15638529,8.29598705 L6.94266562,8.25593318 C7.07450637,8.2143738 7.23397459,8.19060822 7.37946501,8.17064682 L7.53191978,8.13703682 C7.63355839,8.11374912 7.71145496,8.09332075 7.7305384,8.08044865 C7.79555562,8.03659345 7.81722803,7.89406407 7.77388321,7.83924508 C7.7305384,7.78442608 7.11287483,7.6747881 7.05869382,7.55418631 C7.0045128,7.43358453 7.29709028,7.15948956 7.29709028,6.72093762 L7.29615044,6.65638905 C7.2844078,6.20379231 7.1824815,5.42720937 8.15315032,5.42720937 Z"/>
    <filter id="deepin-address-book-e" width="147.9%" height="158%" x="-23.9%" y="-29%" filterUnits="objectBoundingBox">
      <feOffset in="SourceAlpha" result="shadowOffsetOuter1"/>
      <feGaussianBlur in="shadowOffsetOuter1" result="shadowBlurOuter1" stdDeviation=".5"/>
      <feComposite in="shadowBlurOuter1" in2="SourceAlpha" operator="out" result="shadowBlurOuter1"/>
      <feColorMatrix in="shadowBlurOuter1" values="0 0 0 0 1   0 0 0 0 1   0 0 0 0 1  0 0 0 0.301819274 0"/>
    </filter>
    <filter id="deepin-address-book-g" width="163.8%" height="177.3%" x="-31.9%" y="-38.7%" filterUnits="objectBoundingBox">
      <feGaussianBlur in="SourceAlpha" result="shadowBlurInner1" stdDeviation=".5"/>
      <feOffset dy="1" in="shadowBlurInner1" result="shadowOffsetInner1"/>
      <feComposite in="shadowOffsetInner1" in2="SourceAlpha" k2="-1" k3="1" operator="arithmetic" result="shadowInnerInner1"/>
      <feColorMatrix in="shadowInnerInner1" values="0 0 0 0 0.189396513   0 0 0 0 0.00335630253   0 0 0 0 0.00335630253  0 0 0 0.497350306 0"/>
    </filter>
    <linearGradient id="deepin-address-book-h" x1="50%" x2="50%" y1="-101.115%" y2="100%">
      <stop offset="0%" stop-color="#FFF"/>
      <stop offset="100%" stop-color="#CCC"/>
    </linearGradient>
  </defs>
  <g fill="none" transform="translate(.67 .395)">
    <path fill="url(#deepin-address-book-a)" d="M3.335,0.604843945 L12.325,0.604843945 C12.8800462,0.604843945 13.33,1.05479777 13.33,1.60984395 L13.33,2.60484395 L13.33,2.60484395 L2.33,2.60484395 L2.33,1.60984395 C2.33,1.05479777 2.77995383,0.604843945 3.335,0.604843945 Z"/>
    <g transform="translate(3.64 1.552)">
      <path fill="url(#deepin-address-book-b)" d="M0.689965625,1.05274707 L10.5149657,1.05274707 C10.6116155,1.05274707 10.6899656,1.13109722 10.6899656,1.22774702 L10.6899656,11.8775671 C10.6899656,12.5266011 10.1638196,13.0527471 9.51478566,13.0527471 L0.689965625,13.0527471 L0.689965625,13.0527471 L0.689965625,1.05274707 Z"/>
      <path fill="url(#deepin-address-book-c)" d="M7.68996562,8.38274707 L7.68996562,6.72274707 C7.68996562,6.35271629 7.98993484,6.05274707 8.35996562,6.05274707 C7.98993484,6.05274707 7.68996562,5.75277785 7.68996562,5.38274707 L7.68996562,3.72274707 C7.68996562,3.35271629 7.98993484,3.05274707 8.35996562,3.05274707 C7.98993484,3.05274707 7.68996562,2.75277785 7.68996562,2.38274707 L7.68996562,0.72274707 C7.68996562,0.352716288 7.98993484,0.0527470703 8.35996562,0.0527470703 L9.01996562,0.0527470703 C9.38999641,0.0527470703 9.68996562,0.352716288 9.68996562,0.72274707 L9.68996562,2.38274707 C9.68996562,2.75277785 9.38999641,3.05274707 9.01996562,3.05274707 C9.38999641,3.05274707 9.68996562,3.35271629 9.68996562,3.72274707 L9.68996562,5.38274707 C9.68996562,5.75277785 9.38999641,6.05274707 9.01996562,6.05274707 C9.38999641,6.05274707 9.68996562,6.35271629 9.68996562,6.72274707 L9.68996562,8.38274707 C9.68996562,8.75277785 9.38999641,9.05274707 9.01996562,9.05274707 C9.38999641,9.05274707 9.68996562,9.35271629 9.68996562,9.72274707 L9.68996562,11.3827471 C9.68996562,11.7527779 9.38999641,12.0527471 9.01996562,12.0527471 L8.35996562,12.0527471 C7.98993484,12.0527471 7.68996562,11.7527779 7.68996562,11.3827471 L7.68996562,9.72274707 C7.68996562,9.35271629 7.98993484,9.05274707 8.35996562,9.05274707 C7.98993484,9.05274707 7.68996562,8.75277785 7.68996562,8.38274707 Z"/>
    </g>
    <path fill="url(#deepin-address-book-d)" d="M12.6512313,0.0948314453 C13.021262,0.0948314453 13.3212313,0.394800663 13.3212313,0.764831445 L13.3212313,1.75983145 C13.3212313,1.94484684 13.1712466,2.09483145 12.9862313,2.09483145 L11.4474844,2.09483145 C11.3777567,2.09483145 11.3212313,2.15135689 11.3212313,2.22108457 L11.3212313,12.4248314 C11.3212313,12.7948622 11.021262,13.0948314 10.6512313,13.0948314 L1.99123125,13.0948314 C1.62120047,13.0948314 1.32123125,12.7948622 1.32123125,12.4248314 L1.32123125,12.0938314 L0.99123125,12.0948314 C0.621200468,12.0948314 0.32123125,11.7948622 0.32123125,11.4248314 L0.32123125,0.764831445 C0.32123125,0.394800663 0.621200468,0.0948314453 0.99123125,0.0948314453 L12.6512313,0.0948314453 Z" transform="translate(1.009 1.51)"/>
    <use fill="#000" filter="url(#deepin-address-book-e)" xlink:href="#deepin-address-book-f"/>
    <use fill="#4D0000" fill-opacity=".253" xlink:href="#deepin-address-book-f"/>
    <use fill="#000" filter="url(#deepin-address-book-g)" xlink:href="#deepin-address-book-f"/>
    <path fill="url(#deepin-address-book-h)" d="M-.108807827 9.43860976C.158375097 9.36883945.431529664 9.528874.501299973 9.79605692L.490672572 9.74061669C.491934677 9.72451726.505071389 9.72426506.539131752 9.73273304L.580501816 9.74384378C.784181187 9.79989898 1.10608695 9.83345059 1.53662973 9.83879552 1.81275083 9.8422234 2.03381236 10.0688426 2.03038449 10.3449637 2.02695661 10.6210848 1.80033739 10.8421464 1.52421629 10.8387185.345608338 10.8240868-.31096662 10.6433889-.466254987 10.0487176-.536025296 9.78153464-.375990752 9.50838007-.108807827 9.43860976zM-.108807827 7.10728631C.158375097 7.037516.431529664 7.19755055.501299973 7.46473347L.490672572 7.40929324C.491934677 7.39319381.505071389 7.39294161.539131752 7.40140959L.580501816 7.41252033C.784181187 7.46857553 1.10608695 7.50212714 1.53662973 7.50747207 1.81275083 7.51089995 2.03381236 7.73751917 2.03038449 8.01364027 2.02695661 8.28976137 1.80033739 8.5108229 1.52421629 8.50739502.345608338 8.49276331-.31096662 8.3120654-.466254987 7.71739411-.536025296 7.45021119-.375990752 7.17705662-.108807827 7.10728631zM-.108807827 4.77596286C.158375097 4.70619255.431529664 4.8662271.501299973 5.13341002L.490672572 5.07796979C.491513976 5.06723683.497632982 5.0635471.51171079 5.06478885L.580501816 5.08119688C.696890028 5.11322842.851882775 5.13791185 1.04369079 5.15418304L1.3587906 5.17214762C1.41583459 5.17404585 1.47512362 5.17538506 1.53662973 5.17614862 1.81275083 5.1795765 2.03381236 5.40619572 2.03038449 5.68231682 2.02695661 5.95843792 1.80033739 6.17949945 1.52421629 6.17607157.345608338 6.16143986-.31096662 5.98074195-.466254987 5.38607066-.536025296 5.11888774-.375990752 4.84573317-.108807827 4.77596286zM-.108807827 2.44463941C.158375097 2.3748691.431529664 2.53490365.501299973 2.80208657L.490672572 2.74664634C.491934677 2.73054691.505071389 2.73029471.539131752 2.73876269L.580501816 2.74987343C.784181187 2.80592863 1.10608695 2.83948024 1.53662973 2.84482517 1.81275083 2.84825305 2.03381236 3.07487227 2.03038449 3.35099337 2.02695661 3.62711447 1.80033739 3.848176 1.52421629 3.84474812.345608338 3.83011641-.31096662 3.6494185-.466254987 3.05474721-.536025296 2.78756429-.375990752 2.51440972-.108807827 2.44463941zM-.108807827.113315963C.158375097.0435456538.431529664.203580198.501299973.470763123L.490672572.415322888C.491934677.399223456.505071389.398971261.539131752.407439242L.580501816.418549984C.784181187.474605176 1.10608695.508156791 1.53662973.513501722 1.81275083.516929601 2.03381236.743548822 2.03038449 1.01966992 2.02695661 1.29579102 1.80033739 1.51685255 1.52421629 1.51342467.345608338 1.49879296-.31096662 1.31809505-.466254987.723423764-.536025296.456240839-.375990752.183086273-.108807827.113315963z" transform="translate(.556 2.3)"/>
  </g>
</svg>
