<svg xmlns="http://www.w3.org/2000/svg" xmlns:xlink="http://www.w3.org/1999/xlink" width="16" height="16" viewBox="0 0 16 16">
  <defs>
    <linearGradient id="deepin-deb-installer-c" x1="2.941%" x2="50%" y1="-20.587%" y2="50%">
      <stop offset="0%" stop-color="#EEE"/>
      <stop offset="100%" stop-color="#CDCDCD"/>
    </linearGradient>
    <path id="deepin-deb-installer-b" d="M0.25,0.125 L7.875,0.125 C8.01307119,0.125 8.125,0.236928813 8.125,0.375 L8.125,8.5 L2.27373675e-12,8.5 L2.27373675e-12,0.375 C2.27373675e-12,0.236928813 0.111928813,0.125 0.25,0.125 Z"/>
    <filter id="deepin-deb-installer-a" width="149.2%" height="147.8%" x="-12.3%" y="-11.9%" filterUnits="objectBoundingBox">
      <feOffset dx="1" dy="1" in="SourceAlpha" result="shadowOffsetOuter1"/>
      <feGaussianBlur in="shadowOffsetOuter1" result="shadowBlurOuter1" stdDeviation=".5"/>
      <feColorMatrix in="shadowBlurOuter1" values="0 0 0 0 0   0 0 0 0 0   0 0 0 0 0  0 0 0 0.0611341783 0"/>
    </filter>
    <linearGradient id="deepin-deb-installer-f" x1="5.709%" x2="43.55%" y1="-30.94%" y2="112.173%">
      <stop offset="0%" stop-color="#F8F8F8"/>
      <stop offset="100%" stop-color="#C2C2C2"/>
    </linearGradient>
    <path id="deepin-deb-installer-e" d="M0.5,0.25 L8,0.25 C8.13807119,0.25 8.25,0.361928813 8.25,0.5 L8.25,8.75 L0.25,8.75 L0.25,0.5 C0.25,0.361928813 0.361928813,0.25 0.5,0.25 Z"/>
    <filter id="deepin-deb-installer-d" width="150%" height="147.1%" x="-12.5%" y="-11.8%" filterUnits="objectBoundingBox">
      <feOffset dx="1" dy="1" in="SourceAlpha" result="shadowOffsetOuter1"/>
      <feGaussianBlur in="shadowOffsetOuter1" result="shadowBlurOuter1" stdDeviation=".5"/>
      <feColorMatrix in="shadowBlurOuter1" values="0 0 0 0 0   0 0 0 0 0   0 0 0 0 0  0 0 0 0.0611341783 0"/>
    </filter>
    <linearGradient id="deepin-deb-installer-g" x1="47.895%" x2="47.895%" y1="-1.471%" y2="101.471%">
      <stop offset="0%" stop-color="#DD564F"/>
      <stop offset="100%" stop-color="#9A201A"/>
    </linearGradient>
    <linearGradient id="deepin-deb-installer-h" x1="47.674%" x2="47.674%" y1="8.742%" y2="109.399%">
      <stop offset="0%" stop-color="#F6E4BF"/>
      <stop offset="9.441%" stop-color="#F0DCB7"/>
      <stop offset="100%" stop-color="#B59463"/>
    </linearGradient>
    <path id="deepin-deb-installer-i" d="M6.88809401,12.0067546 L5.85262368,12.0067546 C5.78358809,12.0067546 5.72762368,12.062719 5.72762368,12.1317546 C5.72762368,12.1683811 5.74368752,12.2031647 5.77157048,12.2269143 L7.91982037,14.0567063 C7.9661473,14.0961656 8.03415897,14.0965291 8.08090502,14.0575672 L10.2762652,12.2277752 C10.3292959,12.1835751 10.3364546,12.1047539 10.2922544,12.0517231 C10.2685052,12.0232291 10.2333274,12.0067546 10.1962338,12.0067546 L9.13363647,12.0067546 C9.06460088,12.0067546 9.00863647,11.9507902 9.00863647,11.8817546 L9.00863647,10.125 C9.00863647,10.0559644 8.95267207,10 8.88363647,10 L7.13809401,10 C7.06905842,10 7.01309401,10.0559644 7.01309401,10.125 L7.01309401,11.8817546 C7.01309401,11.9507902 6.9571296,12.0067546 6.88809401,12.0067546 Z"/>
    <filter id="deepin-deb-installer-j" width="151%" height="171.8%" x="-25.6%" y="-36.4%" filterUnits="objectBoundingBox">
      <feGaussianBlur in="SourceAlpha" result="shadowBlurInner1" stdDeviation="1"/>
      <feOffset dy="1" in="shadowBlurInner1" result="shadowOffsetInner1"/>
      <feComposite in="shadowOffsetInner1" in2="SourceAlpha" k2="-1" k3="1" operator="arithmetic" result="shadowInnerInner1"/>
      <feColorMatrix in="shadowInnerInner1" values="0 0 0 0 0   0 0 0 0 0   0 0 0 0 0  0 0 0 0.327578671 0"/>
    </filter>
    <linearGradient id="deepin-deb-installer-k" x1="47.674%" x2="47.674%" y1="-1.31%" y2="109.399%">
      <stop offset="0%" stop-color="#E6D2AA"/>
      <stop offset="100%" stop-color="#B59463"/>
    </linearGradient>
  </defs>
  <g fill="none" fill-rule="evenodd">
    <g fill-rule="nonzero" transform="rotate(11 -1.938 30.44)">
      <use fill="#000" filter="url(#deepin-deb-installer-a)" xlink:href="#deepin-deb-installer-b"/>
      <use fill="url(#deepin-deb-installer-c)" xlink:href="#deepin-deb-installer-b"/>
    </g>
    <g fill-rule="nonzero" transform="translate(2.75 1.75)">
      <use fill="#000" filter="url(#deepin-deb-installer-d)" xlink:href="#deepin-deb-installer-e"/>
      <use fill="url(#deepin-deb-installer-f)" xlink:href="#deepin-deb-installer-e"/>
      <path fill="url(#deepin-deb-installer-g)" d="M5.94803194,3.38953883 L5.89844138,3.4939335 C5.97180381,3.27359481 5.92954274,3.03363677 5.93984406,2.82615886 L5.91943982,2.82071238 C5.90147901,2.29886782 5.44737192,1.74421533 5.04344943,1.55648772 C4.69506062,1.39671255 4.15894076,1.3692195 3.9113181,1.48969054 C3.94539087,1.45970394 4.08122037,1.44710569 4.04028015,1.42400887 C3.65246979,1.46226302 3.73917063,1.55839054 3.44182524,1.63378346 C3.36034073,1.71206338 3.67980729,1.57105446 3.50792401,1.67243133 C3.34845493,1.71619722 3.27416787,1.64487248 3.03783683,1.88784886 C3.05890134,1.92157341 3.18786313,1.78784988 3.08029574,1.92210036 C2.85816175,1.89480417 2.37876396,2.4270161 2.27694142,2.60339203 L2.33016382,2.61244743 C2.24280242,2.83009598 2.12777352,2.96887388 2.11225574,3.09918737 C2.08960659,3.41972189 1.97695462,4.00429545 2.13332012,4.18382104 L2.11813262,4.33375376 C2.13952729,4.37633862 2.15583738,4.41957958 2.18244865,4.45967103 L2.14771531,4.46242737 C2.31220288,4.9782354 2.3244191,4.47200743 2.54173283,5.00769694 C2.51016903,4.99713271 2.4783413,4.98558429 2.43244866,4.92403633 C2.42690191,4.97101756 2.49933973,5.11202648 2.58524826,5.22206463 L2.54886435,5.2633371 C2.59673797,5.3498847 2.64091396,5.36884768 2.67412835,5.39889994 C2.49531181,5.30191944 2.84000283,5.71851581 2.8711042,5.77159923 L2.89857387,5.72291205 C2.89454593,5.79292442 2.94902268,5.88327767 3.05110927,6.00834195 L3.13615955,6.00499515 C3.17115694,6.07395754 3.29926032,6.19810277 3.37698111,6.20400865 L3.32527753,6.27100268 C3.52033807,6.33235365 3.42003435,6.3523666 3.65973319,6.43668319 L3.61133131,6.35171049 C3.73362389,6.4571554 3.77139459,6.54934608 3.94393814,6.63018507 C4.18324089,6.71305822 4.21493659,6.68018449 4.46044636,6.75 C4.2523112,6.74422586 4.00765969,6.74632555 3.84310617,6.68773039 C2.72041734,6.38563393 1.69334414,5.07692146 1.76835716,3.728905 C1.75112858,3.45600781 1.7956948,3.11500095 1.75,3.0470884 C1.81411804,2.83934797 1.88853685,2.58620122 2.03810099,2.2848922 C2.02727169,2.26468239 2.06273113,2.34388109 2.13873484,2.2150767 C2.18482573,2.11448727 2.22253049,2.00366168 2.28057326,1.9058282 L2.31048622,1.89893869 C2.34039905,1.72617168 2.71592711,1.46141085 2.82765473,1.32814455 L2.83531408,1.37906262 C3.07917287,1.15183416 3.51373441,0.999539352 3.75838565,0.891010308 C3.69413597,0.96174446 3.90233708,0.884055395 4.05229757,0.875 C4.00501801,0.901246475 3.95800278,0.921784222 3.9136949,0.952689469 C4.09369997,0.909973282 4.08511574,0.970208734 4.26908292,0.946062077 C4.20450298,0.955313939 4.12612137,0.980838363 4.13860233,0.990484217 C4.34416216,1.01410596 4.37559394,0.927361492 4.5658341,0.990352883 L4.55381682,0.934447998 C4.81814565,1.02919762 4.8734812,1.01312165 5.16072366,1.16456361 C5.2614236,1.16948435 5.27159261,1.10281892 5.42379814,1.16443241 C5.45060738,1.21115097 5.41772301,1.2198779 5.60486,1.33044096 C5.62559411,1.32217342 5.56755133,1.26968059 5.52165856,1.22788306 C5.89771528,1.42761847 6.30639192,1.8534667 6.4311278,2.30917034 C6.31424967,2.0953931 6.4191097,2.41822417 6.37889569,2.40136088 C6.43099563,2.54079504 6.47358684,2.68495348 6.5,2.83370503 C6.46533275,2.71172489 6.39012148,2.41710866 6.25818788,2.22715017 C6.24735845,2.34972103 6.08795545,2.14243985 6.1751186,2.41238437 C6.24141548,2.50805263 6.18852336,2.31540373 6.27040396,2.4853494 C6.27172467,2.56612274 6.302694,2.64637128 6.32072089,2.75155379 C6.29272297,2.74702637 6.25818788,2.63521646 6.23778391,2.6663841 C6.2661117,2.79873175 6.31279693,2.86776021 6.3304938,2.87793031 C6.32144725,2.90010848 6.29780741,2.85726124 6.29615669,2.94728643 C6.30711828,3.15450208 6.3545957,3.06710068 6.37717903,3.07694381 C6.35433163,3.17897679 6.26248013,3.29892306 6.30791047,3.47444601 C6.29490221,3.42123139 6.26934745,3.36775425 6.25013189,3.31736111 C6.23230311,3.46722817 6.28354466,3.49642732 6.21388001,3.67798707 C6.2640649,3.51434059 6.25865018,3.36657307 6.21130468,3.43770096 C6.23230311,3.6703755 6.02595083,3.84898258 6.048402,3.99622503 L5.98844406,3.91420486 C5.8260695,4.14806057 5.98461438,4.04300925 5.87420746,4.2202383 C5.91475134,4.15061965 5.85294483,4.19156394 5.90570506,4.11269344 C5.87064185,4.11466192 5.74940564,4.260789 5.63833844,4.34674601 C5.20212633,4.69418313 4.68139208,4.73965498 4.17716589,4.55258362 C4.1575541,4.56852827 4.26710248,4.65389483 4.34799251,4.6951673 C4.54001597,4.76570487 4.75719741,4.76852607 4.92822228,4.76222701 C4.55863691,4.91583419 3.85320938,4.60632316 3.62242466,4.19569792 C3.6745246,4.2069838 3.85340735,4.48440855 3.98738789,4.52935561 C3.90821465,4.46636408 3.84700221,4.38618133 3.79021393,4.30370191 C3.89718697,4.42581339 4.02713945,4.52554983 4.16910976,4.59155955 C4.16012942,4.55730792 4.20833333,4.55041826 4.14124401,4.50540568 C3.71381412,4.17988433 3.46117284,3.90331271 3.54893019,3.26289979 C3.61403852,3.21395022 3.63147121,2.94682717 3.78096925,2.85332426 C3.87209452,2.65312973 4.14527221,2.46881471 4.43720274,2.46408975 C4.73507664,2.44794824 4.98659534,2.62229015 5.11284989,2.78672395 C4.88298979,2.57353744 4.50653711,2.50883995 4.18541999,2.66671229 C3.85710527,2.81362654 3.66244068,3.1728746 3.69083469,3.53054775 C3.70298455,3.51283135 3.71387952,3.52385484 3.719691,3.47976089 C3.70965416,4.17502871 4.4737849,4.68466874 5.02383778,4.42745368 L5.03030873,4.44195489 C5.25343355,4.38139137 5.22464318,4.33152315 5.37050952,4.23204911 C5.35915185,4.25534278 5.27225276,4.31498184 5.3240885,4.3161033 C5.39500764,4.29733719 5.61648147,4.09248375 5.72556754,3.99622503 C5.77555433,3.88907389 5.69882438,3.93828599 5.76862106,3.8035106 L5.85400134,3.76131947 C5.90147888,3.62510051 5.95397532,3.54806716 5.94803194,3.38953883 Z"/>
    </g>
    <path fill="url(#deepin-deb-installer-h)" fill-rule="nonzero" d="M2,5.5 L14,5.5 L14,14.5 C14,14.7761424 13.7761424,15 13.5,15 L2.5,15 C2.22385763,15 2,14.7761424 2,14.5 L2,5.5 L2,5.5 Z"/>
    <g fill-rule="nonzero">
      <use fill="#927A53" xlink:href="#deepin-deb-installer-i"/>
      <use fill="#000" filter="url(#deepin-deb-installer-j)" xlink:href="#deepin-deb-installer-i"/>
    </g>
    <path fill="url(#deepin-deb-installer-k)" fill-rule="nonzero" d="M2.11397095,5.5 L13.8860291,5.5 C13.9995914,5.5 14.0988872,5.5765416 14.1277942,5.68636329 L14.9587227,8.84318164 C14.9762955,8.90994324 14.9364201,8.97830976 14.8696585,8.99588256 C14.8592733,8.99861612 14.8485791,9 14.8378402,9 L1.16215983,9 C1.09312423,9 1.03715983,8.94403559 1.03715983,8.875 C1.03715983,8.86426105 1.03854371,8.85356686 1.04127727,8.84318164 L1.87220584,5.68636329 C1.90111278,5.5765416 2.00040857,5.5 2.11397095,5.5 Z"/>
  </g>
</svg>
