<svg xmlns="http://www.w3.org/2000/svg" xmlns:xlink="http://www.w3.org/1999/xlink" width="16" height="16" viewBox="0 0 16 16">
  <defs>
    <linearGradient id="deepin-installer-a" x1="50%" x2="50%" y1="2.933%" y2="46.554%">
      <stop offset="0%" stop-color="#4ABED4"/>
      <stop offset="100%" stop-color="#0173A3"/>
    </linearGradient>
    <linearGradient id="deepin-installer-b" x1="47.674%" x2="47.674%" y1="8.742%" y2="109.399%">
      <stop offset="0%" stop-color="#F6E4BF"/>
      <stop offset="9.441%" stop-color="#F0DCB7"/>
      <stop offset="100%" stop-color="#B59463"/>
    </linearGradient>
    <path id="deepin-installer-c" d="M1,4.75 L13,4.75 L13,13.75 C13,14.0261424 12.7761424,14.25 12.5,14.25 L1.5,14.25 C1.22385763,14.25 1,14.0261424 1,13.75 L1,4.75 L1,4.75 Z"/>
    <linearGradient id="deepin-installer-d" x1="47.674%" x2="47.674%" y1="-1.31%" y2="109.399%">
      <stop offset="0%" stop-color="#E6D2AA"/>
      <stop offset="100%" stop-color="#B59463"/>
    </linearGradient>
  </defs>
  <g fill="none" fill-rule="evenodd" transform="translate(1 .75)">
    <g transform="translate(1.5)">
      <circle cx="5.5" cy="5.25" r="5" fill="#FFF"/>
      <path fill="url(#deepin-installer-a)" fill-rule="nonzero" d="M7.21011219,0.539840758 C6.49153034,0.277697508 5.75544823,0.206983126 5.04115215,0.273411798 C4.21292585,0.338769034 3.80863426,0.595197982 3.83256318,0.54876935 C2.47825781,1.0323415 1.3332412,2.07234306 0.802876361,3.53091667 C-0.14142306,6.12842056 1.19609635,9.00092487 3.78970542,9.94664057 C6.38438593,10.8923563 9.25264184,9.55306855 10.1969413,6.95556466 C11.1415978,4.35806077 9.80407841,1.48591361 7.21011219,0.539840758 L7.21011219,0.539840758 L7.21011219,0.539840758 Z M3.96042218,9.47699701 C3.6839896,9.37592544 3.42577156,9.24735382 3.18255374,9.10056788 C4.39114272,9.19342516 5.96830846,8.91485332 7.03189533,7.91949468 C7.03189533,7.91949468 9.05942475,6.29949225 7.59261775,3.64091684 C7.59261775,3.64091684 7.82904975,4.71234701 7.5276168,5.59377691 C7.5276168,5.59377691 7.24011263,6.79235013 5.96223694,7.14056493 C4.08006677,7.65342286 1.9353928,6.33592088 1.03895122,5.69770563 C0.97145023,5.04163322 1.03145111,4.36377506 1.27181173,3.7023455 C1.62824548,2.72234404 2.2982552,1.95770004 3.11683851,1.44412782 C2.91219268,2.87591569 3.07398074,4.19413196 3.30648413,4.74627564 C3.61863151,5.48663389 4.16113938,6.35020662 5.21936902,6.46092107 C6.27759867,6.57199266 6.86117856,5.58163404 6.86117856,5.58163404 C7.40404359,4.7566328 7.48904481,3.57198817 7.48083042,3.54341669 C7.47261601,3.51448808 7.33618546,3.43627367 7.33618546,3.43627367 C6.97082301,4.91484731 6.36831427,5.40877663 6.36831427,5.40877663 C5.41830048,6.32592087 4.74543357,5.68984849 4.74543357,5.68984849 C4.0222088,4.9130616 4.52864472,3.65055971 4.52864472,3.65055971 C4.81186311,2.79055842 5.63723223,1.5319851 6.57260294,0.89198414 C6.7283195,0.930555627 6.88510748,0.954484245 7.03903829,1.01055576 C7.60511793,1.21698463 8.10083941,1.52805652 8.52013121,1.91019996 C7.83619271,2.15984319 6.73189097,2.68770113 6.73189097,2.68770113 C4.98150843,3.42484509 4.86329243,4.53984676 4.86329243,4.53984676 C4.68221838,5.6891342 5.59401731,5.20270489 5.59401731,5.20270489 C6.53260237,4.74556135 6.99368048,3.32091635 6.99368048,3.32091635 C6.70081909,3.26520198 6.47010146,3.35413069 6.47010146,3.35413069 C6.09545317,4.27877493 5.33115636,4.65913266 5.33115636,4.65913266 C5.03043771,4.8184186 4.96043669,4.5369896 4.96043669,4.5369896 C4.90972167,4.32627501 5.17793985,4.29020352 5.17793985,4.29020352 C5.59437447,4.12841756 5.8608069,3.69091692 5.92116492,3.51198808 C5.98116579,3.33270209 6.09295313,3.3187735 6.09295313,3.3187735 C6.66367569,3.13663037 7.18404039,3.09591602 7.18404039,3.09591602 C7.8926221,3.00877304 8.9772807,3.34663068 8.9772807,3.34663068 C9.22049851,3.44448797 9.45371618,3.51770237 9.66086205,3.57627388 C10.0583678,4.56948966 10.1212259,5.70056278 9.72729158,6.78485012 C8.87799355,9.12235362 6.29581322,10.3280697 3.96042218,9.47699701 L3.96042218,9.47699701 L3.96042218,9.47699701 Z" opacity=".8"/>
    </g>
    <use fill="url(#deepin-installer-b)" fill-rule="nonzero" xlink:href="#deepin-installer-c"/>
    <path fill="url(#deepin-installer-d)" fill-rule="nonzero" d="M1.18857535,4.75 L12.8114246,4.75 C12.9230447,4.75 13.0211412,4.82399433 13.0518056,4.93131972 L13.9544742,8.09065986 C13.9734398,8.15703924 13.9350033,8.22622496 13.8686239,8.24519049 C13.8574562,8.24838126 13.8458983,8.25 13.8342838,8.25 L0.165716248,8.25 C0.0966806543,8.25 0.040716248,8.19403559 0.040716248,8.125 C0.040716248,8.11338543 0.0423349879,8.10182754 0.0455257546,8.09065986 L0.948194366,4.93131972 C0.978858763,4.82399433 1.07695526,4.75 1.18857535,4.75 Z"/>
    <path fill="#000" fill-opacity=".252" fill-rule="nonzero" d="M8.28004816,10.2491724 C8.32471155,10.2491724 8.36177634,10.2492146 8.39601682,10.2492802 L9.12174071,10.2499003 C9.70193241,10.2493544 9.80448414,10.7408421 9.8050956,10.9753345 C9.80558162,11.2099482 9.70455413,11.7042867 9.13082525,11.7041047 L9.13082525,11.7041047 L8.34114021,11.7041047 L8.34114021,11.7041047 L8.34101517,12.0322994 C8.34100446,12.0605691 8.34099445,12.087019 8.34098588,12.1097902 L8.3409573,12.187404 C8.3409573,12.25 8.27998718,12.25 8.27998718,12.25 L8.27998718,12.25 L8.03714317,12.25 C8.03714317,12.25 7.97599014,12.25 7.97599014,12.189345 L7.97599014,12.189345 L7.97599014,10.5506886 C7.97599014,10.5506886 7.97586821,10.2491724 8.28004816,10.2491724 Z M5.41619,10.2492149 C5.79857428,10.2492149 5.83935652,10.5455821 5.84232882,10.6443712 L5.84286575,10.9416528 C5.8408152,11.0037635 5.80859371,11.1590404 5.53764247,11.1590404 L5.53764247,11.1590404 L4.31775224,11.1590404 L4.31775224,11.1590404 L4.31775224,11.2824127 C4.31775224,11.2824127 4.31586218,11.40069 4.43871698,11.40069 L4.43871698,11.40069 L5.10845092,11.4011753 C5.15282955,11.4012099 5.19701049,11.4012446 5.24014454,11.4012786 L5.72006509,11.4016605 C5.72006509,11.4016605 5.78194977,11.4025703 5.78194977,11.4632254 C5.78194977,11.47384 5.78202598,11.5135994 5.78211744,11.553336 L5.78237656,11.6433102 C5.78237656,11.6489511 5.78201074,11.7049357 5.71908956,11.7049357 L5.71908956,11.7049357 L4.38061245,11.7029947 C4.38061245,11.7029947 3.95321188,11.7049357 3.95321188,11.2798652 L3.95321188,11.2798652 L3.95308994,10.6702821 C3.95308994,10.6702821 3.92144645,10.2492149 4.3884776,10.2492149 L4.3884776,10.2492149 Z M10.2318603,10.2491906 C10.2655158,10.2491906 10.2928304,10.2763641 10.2928304,10.3098457 L10.2928304,11.6442564 C10.2928304,11.677738 10.2655158,11.7049114 10.2318603,11.7049114 L9.98797983,11.7049114 C9.95432433,11.7049114 9.92700971,11.677738 9.92700971,11.6442564 L9.92700971,10.3098457 C9.92700971,10.2763641 9.95432433,10.2491906 9.98797983,10.2491906 L10.2318603,10.2491906 Z M11.3902988,10.249591 C11.8381853,10.2501975 12,10.4919685 12,10.8281793 L12,10.8281793 L12,11.6442928 C12,11.6777744 11.9727464,11.7049478 11.9390909,11.7049478 L11.9390909,11.7049478 L11.6953323,11.7051298 C11.6615548,11.7051298 11.6342402,11.6778957 11.6343012,11.6443534 L11.6343012,11.6443534 L11.6360693,10.8557167 C11.6360693,10.5575366 11.399993,10.5529874 11.389811,10.5529874 L11.389811,10.5529874 L10.9808403,10.553235 C10.9527797,10.5532583 10.9262266,10.553281 10.902181,10.5533019 L10.7804756,10.553412 L10.7823047,11.6423518 C10.7823047,11.6423518 10.7847435,11.7155624 10.7007267,11.7036134 L10.7007267,11.7036134 L10.556223,11.7041121 L10.556223,11.7041121 L10.487758,11.7043413 C10.4324581,11.7113773 10.4147768,11.670799 10.4147768,11.6433223 L10.4147768,11.6433223 L10.4147768,10.2494697 L10.4147768,10.2494697 Z M7.42820408,10.2492149 C7.81058836,10.2492149 7.8513706,10.5455821 7.85434289,10.6443712 L7.85487982,10.9416528 C7.85282928,11.0037635 7.82060779,11.1590404 7.54965655,11.1590404 L7.54965655,11.1590404 L6.32976632,11.1590404 L6.32976632,11.1590404 L6.32976632,11.2824127 C6.32976632,11.2824127 6.32787625,11.40069 6.45073106,11.40069 L6.45073106,11.40069 L7.120465,11.4011753 C7.16484362,11.4012099 7.20902457,11.4012446 7.25215862,11.4012786 L7.73207917,11.4016605 C7.73207917,11.4016605 7.79396385,11.4025703 7.79396385,11.4632254 C7.79396385,11.4685327 7.7939829,11.4811262 7.79401339,11.4973599 L7.79439064,11.6433102 C7.79439064,11.6489511 7.79402481,11.7049357 7.73110364,11.7049357 L7.73110364,11.7049357 L6.39262653,11.7029947 C6.39262653,11.7029947 5.96522597,11.7049357 5.96522597,11.2798652 L5.96522597,11.2798652 L5.96510402,10.6702821 C5.96510402,10.6702821 5.93346053,10.2492149 6.40049167,10.2492149 L6.40049167,10.2492149 Z M3.77801233,9.70421276 C3.7953488,9.70705596 3.83002175,9.71842878 3.83002175,9.76392005 L3.83002175,9.76392005 L3.83002175,11.4025764 C3.83002175,11.4025764 3.82965593,11.7040926 3.52547598,11.7040926 L3.52547598,11.7040926 L3.13077876,11.7033423 C3.10577996,11.7033088 3.07850424,11.703281 3.04835559,11.7032614 L2.82822055,11.7032586 L2.82822055,11.7032586 L2.68335664,11.7033647 C2.10316494,11.7039106 2.00061319,11.2124229 2.00000174,10.9779305 C1.99951573,10.7433169 2.10054323,10.2489783 2.67433306,10.2491603 L2.67433306,10.2491603 L3.46395713,10.2491603 C3.46395713,10.2491603 3.46397618,10.219265 3.46400476,10.1743442 L3.46426198,9.76586101 C3.46426198,9.70326502 3.52529307,9.70326502 3.52529307,9.70326502 Z M3.24603226,10.5542195 L2.80895509,10.5538305 C2.63933621,10.5538305 2.3675314,10.6059332 2.3676533,10.9817518 C2.36777528,11.357631 2.61238741,11.4011813 2.81182069,11.4017879 L2.81182069,11.4017879 L3.40225536,11.4016059 C3.46420101,11.4016059 3.4632264,11.3424673 3.4632264,11.3424673 L3.4632264,11.3424673 L3.46302826,10.8163509 C3.46301359,10.7802519 3.46299952,10.7458366 3.46298668,10.7145193 L3.46292064,10.5544977 L3.46292064,10.5544977 L3.33105355,10.5543248 C3.30503888,10.5542918 3.27633299,10.5542561 3.24603226,10.5542195 Z M8.99327665,10.5514771 C8.90780525,10.5512172 8.79935433,10.5512135 8.69808811,10.5512941 L8.40284198,10.5516591 C8.34089633,10.5516591 8.34187095,10.6107977 8.34187095,10.6107977 L8.34187095,10.6107977 L8.34197857,10.9114313 C8.34199325,10.9486075 8.34200854,10.9869287 8.34202383,11.0249806 L8.3421767,11.3987673 L8.3421767,11.3987673 L8.75120946,11.3992615 C8.78350406,11.3992944 8.8152015,11.3993246 8.84520566,11.3993503 L8.99614226,11.3994345 C9.16576114,11.3994345 9.43756595,11.3473318 9.43744405,10.9715132 C9.43732206,10.595634 9.19270994,10.5520837 8.99327665,10.5514771 Z M5.35710994,10.5533999 L4.44066801,10.5533999 C4.3768323,10.5536425 4.31799614,10.6140549 4.31799614,10.6756804 L4.31799614,10.6756804 L4.31775224,10.8566751 L4.31775224,10.8566751 L5.41625096,10.8566144 C5.47520907,10.8566144 5.47520907,10.79602 5.47520907,10.79602 C5.47520907,10.7509533 5.47594072,10.7220209 5.47618568,10.67471 C5.47648946,10.6150254 5.41234888,10.5533999 5.35710994,10.5533999 L5.35710994,10.5533999 Z M7.36912402,10.5533999 L6.45268209,10.5533999 C6.38884638,10.5536425 6.33001022,10.6140549 6.33001022,10.6756804 C6.33001022,10.6804722 6.33000046,10.690587 6.32998485,10.703704 L6.32976632,10.8566751 L6.32976632,10.8566751 L7.42826504,10.8566144 C7.48728411,10.8566144 7.48728411,10.79602 7.48728411,10.79602 C7.48728411,10.7509533 7.4879548,10.7220209 7.48819976,10.67471 C7.48850353,10.6150254 7.42436296,10.5533999 7.36912402,10.5533999 L7.36912402,10.5533999 Z M10.2318603,9.70329535 C10.2655158,9.70329535 10.2928304,9.7304688 10.2928304,9.76395038 L10.2928304,10.0065705 C10.2928304,10.0400521 10.2655158,10.0672255 10.2318603,10.0672255 L9.98797983,10.0672255 C9.95432433,10.0672255 9.92700971,10.0400521 9.92700971,10.0065705 L9.92700971,9.76395038 C9.92700971,9.7304688 9.95432433,9.70329535 9.98797983,9.70329535 L10.2318603,9.70329535 Z"/>
  </g>
</svg>
