<svg xmlns="http://www.w3.org/2000/svg" width="16" height="16" viewBox="0 0 16 16">
  <defs>
    <linearGradient id="deepin-terminal-a" x1="50%" x2="50%" y1="5.541%" y2="100%">
      <stop offset="0%" stop-color="#E6E6E6"/>
      <stop offset="100%" stop-color="#C6C6C6"/>
    </linearGradient>
    <radialGradient id="deepin-terminal-b" cx="48.839%" cy="8.587%" r="91.413%" fx="48.839%" fy="8.587%" gradientTransform="matrix(0 1 -.91667 0 .567 -.403)">
      <stop offset="0%" stop-color="#6481A2"/>
      <stop offset="100%" stop-color="#1B324A"/>
    </radialGradient>
  </defs>
  <g fill="none" fill-rule="evenodd" transform="translate(.923 .76)">
    <path fill="url(#deepin-terminal-a)" fill-rule="nonzero" d="M0.07665625,2.24498991 C0.07665625,1.13718476 0.973716376,0.23913125 2.08251491,0.23913125 L12.0707976,0.23913125 C13.1786027,0.23913125 14.0766562,1.13619138 14.0766562,2.24498991 L14.0766562,12.2332726 C14.0766562,13.3410777 13.1795961,14.2391313 12.0707976,14.2391313 L2.08251491,14.2391313 C0.974709762,14.2391313 0.07665625,13.3420711 0.07665625,12.2332726 L0.07665625,2.24498991 Z"/>
    <path fill="url(#deepin-terminal-b)" d="M1.07665625,2.23913125 L13.0766562,2.23913125 L13.0766562,12.2435538 C13.0766562,12.793396 12.6208953,13.2391313 12.074183,13.2391312 L2.07912954,13.2391312 C1.52547883,13.2391312 1.07665625,12.7942943 1.07665625,12.2435538 L1.07665625,2.23913125 Z"/>
    <path fill="#F0F9FF" fill-rule="nonzero" d="M9.94977186,10.2391313 C10.0198482,10.2391313 10.0766562,10.2959393 10.0766562,10.3660156 L10.0766562,11.1122469 C10.0766562,11.1823232 10.0198482,11.2391313 9.94977186,11.2391313 L5.20354064,11.2391313 C5.13346433,11.2391313 5.07665625,11.1823232 5.07665625,11.1122469 L5.07665625,10.3660156 C5.07665625,10.2959393 5.13346433,10.2391313 5.20354064,10.2391313 L9.94977186,10.2391313 Z M2.39439221,4.19118372 C2.51807032,3.98072568 2.77371169,3.89415259 2.99651567,3.9745136 L3.07820604,4.0125581 L7.07814092,6.32866804 C7.38132592,6.50422334 7.40659133,6.91745821 7.15393717,7.13262677 L7.07814092,7.18607099 L3.07820604,9.50218093 C2.83968396,9.64029401 2.53353008,9.5603206 2.39439221,9.32355531 C2.27071409,9.11309728 2.32062981,8.84959535 2.50077076,8.69663638 L2.57434321,8.64477797 L5.85590917,6.74463016 L2.57434321,4.86996106 C2.33582114,4.73184797 2.25525433,4.427949 2.39439221,4.19118372 Z"/>
  </g>
</svg>
