<svg xmlns="http://www.w3.org/2000/svg" width="16" height="16" viewBox="0 0 16 16">
  <defs>
    <linearGradient id="kmsclient-a" x1="50%" x2="50%" y1="0%" y2="100%">
      <stop offset="0%" stop-color="#F3F9F4"/>
      <stop offset="100%" stop-color="#D0DDE3"/>
    </linearGradient>
    <linearGradient id="kmsclient-b" x1="50%" x2="50%" y1="0%" y2="100%">
      <stop offset="0%" stop-opacity=".202"/>
      <stop offset="100%" stop-opacity=".401"/>
    </linearGradient>
    <linearGradient id="kmsclient-c" x1="83.779%" x2="11.984%" y1="18.851%" y2="80.234%">
      <stop offset="0%" stop-color="#90A2D2"/>
      <stop offset="100%" stop-color="#4B68A5"/>
    </linearGradient>
    <linearGradient id="kmsclient-d" x1="89.809%" x2="10.287%" y1="22.374%" y2="75.079%">
      <stop offset="0%" stop-color="#97CAE0"/>
      <stop offset="100%" stop-color="#4F8BAA"/>
    </linearGradient>
    <linearGradient id="kmsclient-e" x1="92.198%" x2="8.671%" y1="22.226%" y2="68.783%">
      <stop offset="0%" stop-color="#C3EFD0"/>
      <stop offset="100%" stop-color="#4CA7AC"/>
    </linearGradient>
    <linearGradient id="kmsclient-f" x1="56.876%" x2="56.876%" y1="0%" y2="91.235%">
      <stop offset="0%" stop-color="#FFF"/>
      <stop offset="100%" stop-color="#FFF" stop-opacity=".769"/>
    </linearGradient>
    <linearGradient id="kmsclient-g" x1="50%" x2="50%" y1="0%" y2="100%">
      <stop offset="0%" stop-color="#F2F2F2"/>
      <stop offset="100%" stop-color="#D3D3D3"/>
      <stop offset="100%" stop-color="#EDF2DE"/>
    </linearGradient>
    <linearGradient id="kmsclient-h" x1="50%" x2="50%" y1="1.259%" y2="99.536%">
      <stop offset="0%" stop-color="#7191BD"/>
      <stop offset="100%" stop-color="#3A446A"/>
    </linearGradient>
    <linearGradient id="kmsclient-i" x1="50%" x2="50%" y1="0%" y2="99.637%">
      <stop offset="0%" stop-opacity=".201"/>
      <stop offset="100%" stop-opacity=".303"/>
    </linearGradient>
  </defs>
  <g fill="none" fill-rule="evenodd">
    <path fill="url(#kmsclient-a)" d="M2.75,2 L13.25,2 C13.6642136,2 14,2.33578644 14,2.75 L14,12.25 C14,12.6642136 13.6642136,13 13.25,13 L2.75,13 C2.33578644,13 2,12.6642136 2,12.25 L2,2.75 C2,2.33578644 2.33578644,2 2.75,2 Z"/>
    <path fill="url(#kmsclient-b)" fill-rule="nonzero" d="M13.25,1 L2.75,1 C1.78350169,1 1,1.78350169 1,2.75 L1,12.25 C1,13.2164983 1.78350169,14 2.75,14 L13.25,14 C14.2164983,14 15,13.2164983 15,12.25 L15,2.75 C15,1.78350169 14.2164983,1 13.25,1 Z M13.25,2 C13.6642136,2 14,2.33578644 14,2.75 L14,12.25 C14,12.6642136 13.6642136,13 13.25,13 L2.75,13 C2.33578644,13 2,12.6642136 2,12.25 L2,2.75 C2,2.33578644 2.33578644,2 2.75,2 L13.25,2 Z"/>
    <g transform="translate(2 4)">
      <circle cx="3" cy="3" r="3" fill="url(#kmsclient-c)" fill-rule="nonzero" opacity=".704"/>
      <circle cx="6" cy="3" r="3" fill="url(#kmsclient-d)" fill-rule="nonzero" opacity=".86"/>
      <circle cx="9" cy="3" r="3" fill="url(#kmsclient-e)" opacity=".855"/>
      <path fill="url(#kmsclient-f)" fill-rule="nonzero" d="M1.76769825,4.75 L1.76769825,4.0213336 L1.76769825,4.0213336 L2.30927061,3.43609365 L2.97668665,4.926099 C2.99682657,4.97106134 3.04149818,5 3.0907651,5 L3.81333229,5 C3.86510899,5 3.90708229,4.9580267 3.90708229,4.90625 C3.90708229,4.89068768 3.90320822,4.87537015 3.89580954,4.86167909 L2.84229434,2.91217834 L2.84229434,2.91217834 L3.96213933,1.82036132 C3.99921198,1.78421654 3.99996417,1.72486209 3.96381939,1.68778944 C3.94617449,1.66969158 3.9219694,1.65948535 3.89669342,1.65948535 L3.05928779,1.65948535 C3.02748978,1.65948535 2.99688702,1.67160374 2.97370961,1.69337346 L1.76769825,2.82613726 L1.76769825,2.82613726 L1.76769825,1.90948535 C1.76769825,1.77141416 1.65576943,1.65948535 1.51769825,1.65948535 L1.18256958,1.65948535 C1.0444984,1.65948535 0.932569583,1.77141416 0.932569583,1.90948535 L0.932569583,4.75 C0.932569583,4.88807119 1.0444984,5 1.18256958,5 L1.51769825,5 C1.65576943,5 1.76769825,4.88807119 1.76769825,4.75 Z M5.1082129,4.8125 L5.1082129,2.49461401 L5.1082129,2.49461401 L5.71158957,4.85886546 C5.73278058,4.94189964 5.80757087,5 5.89326646,5 L6.42329248,5 C6.50933016,5 6.58432699,4.94144424 6.6051942,4.85797543 L7.19603455,2.49461401 L7.19603455,2.49461401 L7.19603455,4.8125 C7.19603455,4.91605339 7.27998116,5 7.38353455,5 L7.84366322,5 C7.94721661,5 8.03116322,4.91605339 8.03116322,4.8125 L8.03116322,1.90948535 C8.03116322,1.77141416 7.9192344,1.65948535 7.78116322,1.65948535 L6.72835729,1.65948535 C6.60928975,1.65948535 6.50674453,1.74345866 6.48326586,1.8601884 L6.15212372,3.50653978 L6.15212372,3.50653978 L5.71429246,1.84575547 C5.68535233,1.73597959 5.58607843,1.65948535 5.47255189,1.65948535 L4.52308423,1.65948535 C4.38501305,1.65948535 4.27308423,1.77141416 4.27308423,1.90948535 L4.27308423,4.8125 C4.27308423,4.91605339 4.35703084,5 4.46058423,5 L4.9207129,5 C5.02426629,5 5.1082129,4.91605339 5.1082129,4.8125 Z M9.6733745,5 C9.98219812,5 10.2207027,4.90539558 10.4236854,4.8162282 C10.6266681,4.72706081 10.7847046,4.59620949 10.8977949,4.42367423 C11.0108852,4.25113897 11.0674304,4.0974521 11.0674304,3.89301956 C11.0674304,3.71903442 11.0250215,3.56172286 10.9402038,3.42108487 C10.855386,3.28044689 10.7198226,3.16264445 10.5335135,3.06767756 C10.3472044,2.97271067 10.0387433,2.87883119 9.60813007,2.78603912 C9.43414493,2.74979221 9.32395435,2.71064556 9.27755831,2.66859915 C9.2297124,2.62800262 9.20578944,2.58233152 9.20578944,2.53158585 C9.20578944,2.4619918 9.23478696,2.40290935 9.29278201,2.35433849 C9.35077705,2.30576764 9.43704469,2.28148222 9.5515849,2.28148222 C9.69077301,2.28148222 9.79987619,2.31410443 9.87889444,2.37934886 C9.92455621,2.41705123 9.96813403,2.43640948 10.0017714,2.49351157 C10.0077439,2.50365034 10.013948,2.51425286 10.0203835,2.52531915 C10.0428138,2.56374322 10.0839481,2.58740609 10.1284399,2.58740609 L10.7664361,2.58740609 C10.8354472,2.5873617 10.8913917,2.53141717 10.8913917,2.46240609 C10.8913917,2.45994544 10.8913191,2.45748534 10.8911738,2.45502899 C10.8860285,2.36802853 10.8700559,2.29619488 10.843256,2.23952805 C10.7794907,2.1047001 10.6923948,1.99369174 10.5813594,1.91502602 C10.3675027,1.76351396 10.0807897,1.65948535 9.6733745,1.65948535 C9.29278201,1.65948535 9.05608973,1.72944187 8.86543101,1.81280975 C8.6747723,1.89617763 8.5319595,2.01071785 8.43699261,2.1564304 C8.34202572,2.30214295 8.29454228,2.45691723 8.29454228,2.62075324 C8.29454228,2.87013194 8.38733435,3.07528941 8.5729185,3.23622566 C8.75705277,3.39716192 9.06515145,3.52620089 9.49721455,3.6233426 C9.76109201,3.68133764 9.92927764,3.74295738 10.0017714,3.8082018 C10.0742653,3.87344623 10.1105122,3.91259289 10.1105122,3.99523583 C10.1105122,4.0822284 10.0724529,4.15870936 9.99633441,4.22467873 C9.92021591,4.29064809 9.79661397,4.30405945 9.65597598,4.30405945 C9.46749209,4.30405945 9.28680693,4.25911329 9.1853156,4.13007431 C9.16170164,4.0998704 9.14172773,4.06945849 9.12492117,4.03505692 C9.11551573,4.01580481 9.10575322,3.99400405 9.09563365,3.96965463 L9.09527064,3.9698055 C9.07594943,3.92331538 9.0305505,3.89301956 8.9802053,3.89301956 L8.33422689,3.89288038 C8.26511443,3.89288038 8.20908772,3.9489071 8.20908772,4.01801956 C8.20908772,4.02854559 8.21041578,4.03902956 8.21304046,4.04922311 C8.22155647,4.08229707 8.23015143,4.11294997 8.23882535,4.14118182 C8.29732982,4.331602 8.42513211,4.50744064 8.5729185,4.62487003 C8.81374519,4.8162282 9.13112082,5 9.6733745,5 Z"/>
    </g>
    <circle cx="11.5" cy="11.5" r="3.5" fill="url(#kmsclient-g)" fill-rule="nonzero"/>
    <path fill="url(#kmsclient-h)" fill-rule="nonzero" d="M13.6739202,11.5 C13.6739202,11.3188385 13.8067704,11.1497658 14,11.077295 C13.9758482,10.920293 13.9275395,10.7632858 13.8792308,10.6183597 C13.673915,10.6425166 13.4806802,10.570051 13.3840627,10.4130438 C13.2874402,10.2560418 13.323673,10.050726 13.4565232,9.8816429 C13.3599058,9.76087374 13.2512125,9.65217527 13.1304382,9.54348199 C12.949274,9.67633221 12.7439634,9.71256504 12.5869614,9.61594244 C12.4299542,9.51932504 12.3574885,9.32609023 12.3816455,9.12077435 C12.2367194,9.07246565 12.0797122,9.02415695 11.9227102,9 C11.8502394,9.19323481 11.6811615,9.32608504 11.5,9.32608504 C11.3188437,9.32608504 11.1497658,9.19323481 11.077295,9 C10.920293,9.02415175 10.7632858,9.07246046 10.6183597,9.12076916 C10.6264916,9.18988418 10.6236744,9.2576302 10.6103689,9.32078248 C10.5841486,9.44523292 10.517198,9.55184395 10.4130438,9.61593725 C10.2560418,9.71255985 10.050726,9.67632702 9.8816429,9.54347679 C9.76087374,9.6400942 9.65217527,9.74878748 9.54348199,9.86956183 C9.57105252,9.90816035 9.59421712,9.94864703 9.61254488,9.99001611 C9.67450295,10.1298667 9.68118471,10.2798014 9.61594244,10.4009627 C9.51932504,10.5579699 9.32609023,10.6304304 9.12077435,10.6062786 C9.07246565,10.7512047 9.02415175,10.9082119 9,11.0652139 C9.19322962,11.1497658 9.32608504,11.3188437 9.32608504,11.5 C9.32608504,11.5284853 9.32280101,11.5566694 9.31651461,11.5842264 C9.28281755,11.73194 9.16285344,11.8616336 9,11.9227102 C9.02415175,12.0797122 9.07246046,12.2367194 9.12076916,12.3816455 C9.32608504,12.3574885 9.53140091,12.4178783 9.61593725,12.5869614 C9.71255985,12.7439634 9.67632702,12.9492792 9.54347679,13.1183623 C9.6400942,13.2391315 9.74878748,13.3478299 9.86956183,13.4565232 C10.0386449,13.323673 10.2439608,13.2995212 10.4009627,13.3840627 C10.5579699,13.4806802 10.6304304,13.673915 10.6062786,13.8792308 C10.7512047,13.9275395 10.9082119,13.9758482 11.0652139,14 C11.1497554,13.8067652 11.3067626,13.673915 11.4879215,13.673915 C11.6690805,13.673915 11.8381583,13.8067652 11.910624,14 C12.0676311,13.9758482 12.2125573,13.9275395 12.3695644,13.8792308 C12.3454075,13.673915 12.4178731,13.4806802 12.5748751,13.3840627 C12.7318823,13.2874402 12.937193,13.323673 13.106276,13.4565232 C13.2270504,13.3599058 13.3357437,13.2652577 13.4444421,13.1444833 C13.3115919,12.9754003 13.287435,12.7560392 13.3719765,12.5990373 C13.4685939,12.4420301 13.6618339,12.3695696 13.8671446,12.3937214 C13.9154585,12.2487953 13.9637672,12.0917881 13.9879189,11.9347861 C13.8067704,11.8381687 13.6739202,11.6811615 13.6739202,11.5 Z M9.72368421,11.4518548 C9.72368421,10.6206609 10.2171064,9.9763706 11,9.8378416 C11,10.490866 11,10.9806343 11,11.3071465 C11,11.3124263 11,11.3203461 11,11.3309058 L9.81579167,12.0263158 C9.8133122,12.0188575 9.8108828,12.0113912 9.80850347,12.0039165 C9.80779284,12.001684 9.80708666,11.9994508 9.80638497,11.9972168 C9.80557146,11.9946269 9.80228891,11.9840095 9.80146203,11.9812905 C9.74960674,11.8107782 9.72368421,11.6357312 9.72368421,11.4518548 Z M11.5986842,13.2763158 C11.0946875,13.2763158 10.6809986,13.1122455 10.3602782,12.7311245 L11.5983602,11.9441836 L12.8352524,12.7311245 C12.5145385,13.1122386 12.1026809,13.2763158 11.5986842,13.2763158 Z M11.9970729,11.3041574 C11.9970729,11.29431 11.9970729,11.2872329 11.9970729,11.282926 C11.9970729,11.2719303 11.9970729,11.2627216 11.9970729,11.2553001 C11.9970729,10.9345564 11.9970729,10.4957624 11.9970729,9.85008565 C12.8470614,9.98892092 13.2763158,10.6224986 13.2763158,11.4555301 C13.2763158,11.6373671 13.23681,11.7885579 13.1820024,11.95653 C13.179089,11.9654588 13.1760982,11.9743842 13.17303,11.983308 C13.170159,11.9916582 13.1672202,12.000007 13.1642136,12.0083558 L11.9970729,11.3041574 Z"/>
    <path fill="url(#kmsclient-i)" fill-rule="nonzero" d="M11.5,7 C9.01471863,7 7,9.01471863 7,11.5 C7,13.9852814 9.01471863,16 11.5,16 C13.9852814,16 16,13.9852814 16,11.5 C16,9.01471863 13.9852814,7 11.5,7 Z M11.5,8 C13.4329966,8 15,9.56700338 15,11.5 C15,13.4329966 13.4329966,15 11.5,15 C9.56700338,15 8,13.4329966 8,11.5 C8,9.56700338 9.56700338,8 11.5,8 Z"/>
  </g>
</svg>
