<svg xmlns="http://www.w3.org/2000/svg" xmlns:xlink="http://www.w3.org/1999/xlink" width="16" height="16" viewBox="0 0 16 16">
  <defs>
    <linearGradient id="快速激活ukey-a" x1="50%" x2="50%" y1="0%" y2="96.077%">
      <stop offset="0%" stop-color="#F4F4F4"/>
      <stop offset="100%" stop-color="#E3E3E3"/>
    </linearGradient>
    <linearGradient id="快速激活ukey-b" x1="50%" x2="50%" y1="0%" y2="98.88%">
      <stop offset="0%" stop-opacity=".103"/>
      <stop offset="100%" stop-opacity=".296"/>
    </linearGradient>
    <linearGradient id="快速激活ukey-c" x1="50%" x2="50%" y1="-30.059%" y2="100%">
      <stop offset="2.344%" stop-color="#707382"/>
      <stop offset="99.787%" stop-color="#4B4A55"/>
    </linearGradient>
    <path id="快速激活ukey-d" d="M11.5222904,4.07323492 L11.9285404,4.07323492 C12.0320938,4.07323492 12.1160404,4.15718153 12.1160404,4.26073492 L12.1160404,4.66698492 C12.1160404,4.77053831 12.0320938,4.85448492 11.9285404,4.85448492 L11.5222904,4.85448492 C11.418737,4.85448492 11.3347904,4.77053831 11.3347904,4.66698492 L11.3347904,4.26073492 C11.3347904,4.15718153 11.418737,4.07323492 11.5222904,4.07323492 Z"/>
    <filter id="快速激活ukey-e" width="356%" height="356%" x="-128%" y="-128%" filterUnits="objectBoundingBox">
      <feGaussianBlur in="SourceAlpha" result="shadowBlurInner1" stdDeviation=".5"/>
      <feOffset dy="1" in="shadowBlurInner1" result="shadowOffsetInner1"/>
      <feComposite in="shadowOffsetInner1" in2="SourceAlpha" k2="-1" k3="1" operator="arithmetic" result="shadowInnerInner1"/>
      <feColorMatrix in="shadowInnerInner1" values="0 0 0 0 0   0 0 0 0 0   0 0 0 0 0  0 0 0 0.194110577 0"/>
    </filter>
    <path id="快速激活ukey-f" d="M8.97834076,2.60448492 L9.38459076,2.60448492 C9.48814415,2.60448492 9.57209076,2.68843153 9.57209076,2.79198492 L9.57209076,3.19823492 C9.57209076,3.30178831 9.48814415,3.38573492 9.38459076,3.38573492 L8.97834076,3.38573492 C8.87478737,3.38573492 8.79084076,3.30178831 8.79084076,3.19823492 L8.79084076,2.79198492 C8.79084076,2.68843153 8.87478737,2.60448492 8.97834076,2.60448492 Z"/>
    <filter id="快速激活ukey-g" width="356%" height="356%" x="-128%" y="-128%" filterUnits="objectBoundingBox">
      <feGaussianBlur in="SourceAlpha" result="shadowBlurInner1" stdDeviation=".5"/>
      <feOffset dy="1" in="shadowBlurInner1" result="shadowOffsetInner1"/>
      <feComposite in="shadowOffsetInner1" in2="SourceAlpha" k2="-1" k3="1" operator="arithmetic" result="shadowInnerInner1"/>
      <feColorMatrix in="shadowInnerInner1" values="0 0 0 0 0   0 0 0 0 0   0 0 0 0 0  0 0 0 0.194110577 0"/>
    </filter>
    <linearGradient id="快速激活ukey-h" x1="39.625%" x2="62.909%" y1="7.773%" y2="86.783%">
      <stop offset="0%" stop-color="#595B6F"/>
      <stop offset="100%" stop-color="#9196A2"/>
    </linearGradient>
  </defs>
  <g fill="none" fill-rule="evenodd">
    <path fill="url(#快速激活ukey-a)" d="M8,1 C11.8659932,1 15,4.13400675 15,8 C15,11.8659932 11.8659932,15 8,15 C4.13400675,15 1,11.8659932 1,8 C1,4.13400675 4.13400675,1 8,1 Z"/>
    <path fill="url(#快速激活ukey-b)" fill-rule="nonzero" d="M8,0 C3.581722,0 0,3.581722 0,8 C0,12.418278 3.581722,16 8,16 C12.418278,16 16,12.418278 16,8 C16,3.581722 12.418278,0 8,0 Z M8,1 C11.8659932,1 15,4.13400675 15,8 C15,11.8659932 11.8659932,15 8,15 C4.13400675,15 1,11.8659932 1,8 C1,4.13400675 4.13400675,1 8,1 Z"/>
    <path fill="#CACACA" fill-rule="nonzero" d="M9.61549026,1.71210743 L11.1608043,2.60429493 L12.6195159,3.44648243 C13.0380219,3.68810701 13.1814127,4.22324862 12.9397881,4.64175466 L11.4554131,7.21276758 L9.23892934,5.93308008 L6.93584304,4.60339258 L8.42021804,2.03237966 C8.66184261,1.61387362 9.19698422,1.47048285 9.61549026,1.71210743 Z"/>
    <g fill-rule="nonzero" transform="rotate(30 11.725 4.464)">
      <use fill="url(#快速激活ukey-c)" xlink:href="#快速激活ukey-d"/>
      <use fill="#000" filter="url(#快速激活ukey-e)" xlink:href="#快速激活ukey-d"/>
    </g>
    <g fill-rule="nonzero" transform="rotate(30 9.181 2.995)">
      <use fill="url(#快速激活ukey-c)" xlink:href="#快速激活ukey-f"/>
      <use fill="#000" filter="url(#快速激活ukey-g)" xlink:href="#快速激活ukey-f"/>
    </g>
    <path fill="url(#快速激活ukey-h)" fill-rule="nonzero" d="M4.41501518,5.82353411 L4.41501518,7.95176916 C4.41501518,8.07879735 4.45801148,8.20208559 4.53700515,8.30156504 L5.27320388,9.22868555 C5.46424661,9.46927226 5.42692542,9.81863632 5.18937188,10.0134378 L4.92504567,10.2301937 C4.6848312,10.4271836 4.64978512,10.7816073 4.84677121,11.0218249 C4.86251775,11.0410273 4.87951862,11.0591658 4.89766224,11.0761214 C5.37758279,11.5246173 5.61754307,11.8398925 5.61754307,12.0219468 C5.61754307,12.1850163 5.42501999,12.4042249 5.03997383,12.6795727 C4.7872127,12.8602464 4.7288448,13.2116264 4.9095692,13.4643513 C4.9377287,13.5037295 4.97085333,13.5393082 5.00812203,13.5702056 L6.2292052,14.5825362 C6.31262616,14.6516958 6.43110417,14.6592396 6.52262307,14.601219 L8.80835433,13.1521245 C8.88067212,13.1062768 8.92449475,13.0266072 8.92449475,12.9409809 L8.92449475,5.92918887 L8.92449475,5.92918887 L4.41501518,5.82353411 Z" transform="rotate(30 6.67 10.261)"/>
    <path fill="#777B8B" d="M5.61990883,5.21190607 L12.2400973,5.21190607 C12.6702419,5.21190607 13.018943,5.4637459 13.018943,5.77440607 L13.018943,6.96190607 C13.018943,7.27256625 12.6702419,7.52440607 12.2400973,7.52440607 L5.61990883,7.52440607 C5.18976423,7.52440607 4.84106313,7.27256625 4.84106313,6.96190607 L4.84106313,5.77440607 C4.84106313,5.4637459 5.18976423,5.21190607 5.61990883,5.21190607 Z" transform="rotate(30 8.93 6.368)"/>
  </g>
</svg>
