<svg xmlns="http://www.w3.org/2000/svg" width="16" height="16" viewBox="0 0 16 16">
  <defs>
    <radialGradient id="uos-service-support-a" cx="50%" cy="-3.497%" r="99.993%" fx="50%" fy="-3.497%" gradientTransform="matrix(0 .98244 -1.04 0 .464 -.526)">
      <stop offset="0%" stop-color="#DE7F56"/>
      <stop offset="100%" stop-color="#A83733"/>
    </radialGradient>
    <linearGradient id="uos-service-support-b" x1="50%" x2="50%" y1="0%" y2="96.905%">
      <stop offset="0%" stop-color="#FFF"/>
      <stop offset="100%" stop-color="#FFF" stop-opacity=".748"/>
    </linearGradient>
    <radialGradient id="uos-service-support-c" cx="50%" cy="10.248%" r="105.558%" fx="50%" fy="10.248%">
      <stop offset="0%" stop-color="#7EC386"/>
      <stop offset="100%" stop-color="#45704A"/>
    </radialGradient>
    <linearGradient id="uos-service-support-d" x1="50%" x2="50%" y1="0%" y2="100%">
      <stop offset="0%" stop-color="#FFF"/>
      <stop offset="100%" stop-color="#FFF" stop-opacity=".6"/>
    </linearGradient>
  </defs>
  <g fill="none" fill-rule="evenodd">
    <g fill-rule="nonzero" transform="translate(4.125 1.75)">
      <path fill="url(#uos-service-support-a)" d="M5.625,0.25 C8.66256612,0.25 11.125,2.71243388 11.125,5.75 C11.125,8.78756612 8.66256612,11.25 5.625,11.25 C4.93048207,11.25 4.26603065,11.1212699 3.65420448,10.8863685 L1.43575692,11.4510688 L2.20805595,10.0600906 C0.938895547,9.05257636 0.125,7.49633592 0.125,5.75 C0.125,2.71243388 2.58743388,0.25 5.625,0.25 Z" transform="matrix(-1 0 0 1 11.25 0)"/>
      <path fill="url(#uos-service-support-b)" d="M6.44556984,7.25195519 C6.48329167,7.08144829 6.52176839,6.95696322 6.561,6.8785 C6.64033333,6.71416667 6.75366667,6.5725 6.901,6.4535 C7.29766667,6.10783333 7.54133333,5.884 7.632,5.782 C7.84166667,5.50433333 7.9465,5.15583333 7.9465,4.7365 C7.9465,4.21516667 7.7765,3.80716667 7.4365,3.5125 C7.10216667,3.21216667 6.6545,3.062 6.0935,3.062 C5.47016667,3.062 4.97433333,3.2405 4.606,3.5975 C4.23766667,3.94883333 4.0535,4.61533333 4.0535,5.25 L5.0225,5.25 C5.0225,4.88733333 5.09333333,4.43616667 5.235,4.2435 C5.39366667,4.01116667 5.66,3.895 6.034,3.895 C6.32866667,3.895 6.55533333,3.97433333 6.714,4.133 C6.87266667,4.303 6.952,4.524 6.952,4.796 C6.952,5.01133333 6.8755,5.2125 6.7225,5.3995 L6.6205,5.5185 C6.06516667,6.0115 5.73366667,6.37133333 5.626,6.598 C5.56325497,6.72035281 5.50821733,6.93833787 5.46088709,7.25195519 L6.44556984,7.25195519 Z M5.9405,9.25 C6.1275,9.25 6.28333333,9.1905 6.408,9.0715 C6.53833333,8.9525 6.6035,8.79666667 6.6035,8.604 C6.6035,8.42266667 6.54116667,8.26966667 6.4165,8.145 C6.29183333,8.026 6.13316667,7.9665 5.9405,7.9665 C5.75916667,7.9665 5.60333333,8.026 5.473,8.145 C5.34833333,8.264 5.286,8.417 5.286,8.604 C5.286,8.791 5.34833333,8.944 5.473,9.063 C5.609,9.18766667 5.76483333,9.25 5.9405,9.25 Z"/>
    </g>
    <g transform="translate(.625 5.25)">
      <path fill="url(#uos-service-support-c)" d="M4.375,0.75 C6.584139,0.75 8.375,2.540861 8.375,4.75 C8.375,5.76148368 7.99956604,6.68528006 7.38044675,7.38964051 L8.375,8.75 L6.0719697,8.38636364 L6.09577773,8.3619767 C5.57455461,8.61073743 4.99104057,8.75 4.375,8.75 C2.165861,8.75 0.375,6.959139 0.375,4.75 C0.375,2.540861 2.165861,0.75 4.375,0.75 Z" transform="matrix(-1 0 0 1 8.75 0)"/>
      <path fill="url(#uos-service-support-d)" fill-rule="nonzero" d="M2.39389279,4.90485248 L3.66253293,5.62628274 C3.70626414,5.65115112 3.76064198,5.64738004 3.80052186,5.61671327 L6.81171882,3.3011679 C6.92893851,3.21102849 7.09541209,3.22448247 7.19663534,3.33227589 C7.29546149,3.43751662 7.29118529,3.60268989 7.18704599,3.70267602 L3.90690127,6.85200549 C3.81054086,6.94452296 3.65847167,6.94494015 3.56160509,6.85295279 L1.94760085,5.3202469 C1.84723891,5.22494026 1.84314079,5.06631953 1.93844743,4.96595759 C1.94326144,4.96088824 1.94828547,4.95602254 1.95350633,4.95137327 C2.07514531,4.84305156 2.25230574,4.82433699 2.39389279,4.90485248 Z"/>
    </g>
  </g>
</svg>
