<svg xmlns="http://www.w3.org/2000/svg" width="16" height="16" viewBox="0 0 16 16">
  <defs>
    <linearGradient id="wps-office-wppmain-a" x1="50%" x2="50%" y1="0%" y2="100%">
      <stop offset="0%" stop-color="#E68181"/>
      <stop offset="100%" stop-color="#9A2424"/>
    </linearGradient>
    <linearGradient id="wps-office-wppmain-b" x1="50%" x2="50%" y1="0%" y2="100%">
      <stop offset="0%" stop-color="#AE3434"/>
      <stop offset="100%" stop-color="#D25F5F"/>
    </linearGradient>
    <linearGradient id="wps-office-wppmain-c" x1="99.067%" x2=".942%" y1="50%" y2="50%">
      <stop offset="0%" stop-color="#FFD6C2"/>
      <stop offset="100%" stop-color="#FFC4B1"/>
    </linearGradient>
    <linearGradient id="wps-office-wppmain-d" x1="50%" x2="50%" y1="-4.672%" y2="100%">
      <stop offset="0%" stop-color="#FFF"/>
      <stop offset="100%" stop-color="#FFF" stop-opacity=".788"/>
    </linearGradient>
  </defs>
  <g fill="none" fill-rule="evenodd" transform="translate(1 1)">
    <path fill="url(#wps-office-wppmain-a)" d="M1.005,0 L12.995,0 C13.5500462,8.83999739e-16 14,0.449953826 14,1.005 L14,12.995 C14,13.5500462 13.5500462,14 12.995,14 L1.005,14 C0.449953826,14 1.05393362e-15,13.5500462 0,12.995 L0,1.005 C-6.7973552e-17,0.449953826 0.449953826,1.01960328e-16 1.005,0 Z"/>
    <circle cx="7" cy="7" r="6" fill="url(#wps-office-wppmain-b)"/>
    <g fill-rule="nonzero" transform="translate(2.81 2.769)">
      <rect width="4" height="2" x="2.189" y="4.231" fill="url(#wps-office-wppmain-c)"/>
      <path fill="url(#wps-office-wppmain-d)" d="M6.06375,2.23125 L2.315,2.23125 C2.24561923,2.23125 2.189375,2.28749423 2.189375,2.356875 L2.189375,7.24125 C2.189375,7.7880119 1.7461369,8.23125 1.199375,8.23125 C0.652613098,8.23125 0.209375,7.7880119 0.209375,7.24125 L0.209375,1.25625 C0.209375,0.701203826 0.659328826,0.25125 1.214375,0.25125 L7.184375,0.25125 C7.73942117,0.25125 8.189375,0.701203826 8.189375,1.25625 L8.189375,5.22625 C8.189375,5.78129617 7.73942117,6.23125 7.184375,6.23125 L6.189375,6.23125 L6.189375,6.23125 L6.189375,2.356875 C6.189375,2.28749423 6.13313077,2.23125 6.06375,2.23125 Z"/>
    </g>
  </g>
</svg>
