<svg xmlns="http://www.w3.org/2000/svg" xmlns:xlink="http://www.w3.org/1999/xlink" width="96" height="96" viewBox="0 0 96 96">
  <defs>
    <linearGradient id="application-x-zip-c" x1="50%" x2="50%" y1="0%" y2="100%">
      <stop offset="0%" stop-color="#2269E3"/>
      <stop offset="100%" stop-color="#0450D6"/>
    </linearGradient>
    <path id="application-x-zip-b" d="M64,69 C64,73.9705627 59.9705627,78 55,78 L9,78 C4.02943725,78 6.08718376e-16,73.9705627 0,69 L0,9 C-6.08718376e-16,4.02943725 4.02943725,4.46579124e-15 9,0 L42,0 L64,22 L64,69 Z"/>
    <filter id="application-x-zip-a" width="131.2%" height="125.6%" x="-15.6%" y="-10.3%" filterUnits="objectBoundingBox">
      <feOffset dy="2" in="SourceAlpha" result="shadowOffsetOuter1"/>
      <feGaussianBlur in="shadowOffsetOuter1" result="shadowBlurOuter1" stdDeviation="3"/>
      <feColorMatrix in="shadowBlurOuter1" values="0 0 0 0 0.0392156863   0 0 0 0 0.388235294   0 0 0 0 1  0 0 0 0.2 0"/>
    </filter>
    <linearGradient id="application-x-zip-f" x1="50%" x2="11.493%" y1="50%" y2="88.683%">
      <stop offset="0%" stop-color="#FFF" stop-opacity=".1"/>
      <stop offset="100%" stop-color="#FFF" stop-opacity=".3"/>
    </linearGradient>
    <path id="application-x-zip-e" d="M39,0 L61,22 L48,22 C43.0294373,22 39,17.9705627 39,13 L39,0 L39,0 Z"/>
    <filter id="application-x-zip-d" width="190.9%" height="190.9%" x="-45.5%" y="-36.4%" filterUnits="objectBoundingBox">
      <feOffset dy="2" in="SourceAlpha" result="shadowOffsetOuter1"/>
      <feGaussianBlur in="shadowOffsetOuter1" result="shadowBlurOuter1" stdDeviation="3"/>
      <feComposite in="shadowBlurOuter1" in2="SourceAlpha" operator="out" result="shadowBlurOuter1"/>
      <feColorMatrix in="shadowBlurOuter1" values="0 0 0 0 0   0 0 0 0 0   0 0 0 0 0  0 0 0 0.05 0"/>
    </filter>
  </defs>
  <g fill="none" fill-rule="evenodd">
    <g transform="translate(19 10)">
      <use fill="#000" filter="url(#application-x-zip-a)" xlink:href="#application-x-zip-b"/>
      <use fill="url(#application-x-zip-c)" xlink:href="#application-x-zip-b"/>
      <use fill="#000" filter="url(#application-x-zip-d)" xlink:href="#application-x-zip-e"/>
      <use fill="url(#application-x-zip-f)" xlink:href="#application-x-zip-e"/>
    </g>
    <path fill="#FFF" fill-opacity=".6" d="M42,43 L42,53 L19,53 L19,43 L42,43 Z M83,43 L83,53 L60,53 L60,43 L83,43 Z M56,43 L56,53 L46,53 L45.999,50 L52,50 L52,46 L45.999,46 L46,43 L56,43 Z"/>
    <path fill="#FFF" fill-opacity=".6" d="M57.5 40C58.3284271 40 59 40.6715729 59 41.5L59 54.5C59 55.3284271 58.3284271 56 57.5 56L44.5 56C43.6715729 56 43 55.3284271 43 54.5L43 41.5C43 40.6715729 43.6715729 40 44.5 40L57.5 40zM45 54L57 54 57 42 45 42 45 47 51 47 51 49 45 49 45 54zM48 63L48 65 41 77 48 77 48 79.0323963 38 79.0323967 38 77 45 65 38 65 38 63 48 63zM52 63L52 79 50 79 50 63 52 63zM59 63C61.7614237 63 64 65.2193241 64 68 64 70.7614237 61.7806759 73 59 73L56.0023122 73 56.0023122 79 54 79 54 63 59 63zM56 65L56 65 56 71 59 71 59.1774094 70.9949363C60.7616886 70.9042021 62 69.6052577 62 68 62 66.3317369 60.6647117 65 59 65L59 65z"/>
  </g>
</svg>
