<svg xmlns="http://www.w3.org/2000/svg" xmlns:xlink="http://www.w3.org/1999/xlink" width="96" height="96" viewBox="0 0 96 96">
  <defs>
    <linearGradient id="x-office-spreadsheet-c" x1="50%" x2="50%" y1="0%" y2="100%">
      <stop offset="0%" stop-color="#549807"/>
      <stop offset="100%" stop-color="#458300"/>
    </linearGradient>
    <path id="x-office-spreadsheet-b" d="M64,69 C64,73.9705627 59.9705627,78 55,78 L9,78 C4.02943725,78 6.08718376e-16,73.9705627 0,69 L0,9 C-6.08718376e-16,4.02943725 4.02943725,4.46579124e-15 9,0 L42,0 L64,22 L64,69 Z"/>
    <filter id="x-office-spreadsheet-a" width="131.2%" height="125.6%" x="-15.6%" y="-10.3%" filterUnits="objectBoundingBox">
      <feOffset dy="2" in="SourceAlpha" result="shadowOffsetOuter1"/>
      <feGaussianBlur in="shadowOffsetOuter1" result="shadowBlurOuter1" stdDeviation="3"/>
      <feColorMatrix in="shadowBlurOuter1" values="0 0 0 0 0.286130341   0 0 0 0 0.419214221   0 0 0 0 0  0 0 0 0.2 0"/>
    </filter>
    <linearGradient id="x-office-spreadsheet-f" x1="50%" x2="11.493%" y1="50%" y2="88.683%">
      <stop offset="0%" stop-color="#FFF" stop-opacity=".1"/>
      <stop offset="100%" stop-color="#FFF" stop-opacity=".3"/>
    </linearGradient>
    <path id="x-office-spreadsheet-e" d="M42,0 L64,22 L51,22 C46.0294373,22 42,17.9705627 42,13 L42,0 L42,0 Z"/>
    <filter id="x-office-spreadsheet-d" width="190.9%" height="190.9%" x="-45.5%" y="-36.4%" filterUnits="objectBoundingBox">
      <feOffset dy="2" in="SourceAlpha" result="shadowOffsetOuter1"/>
      <feGaussianBlur in="shadowOffsetOuter1" result="shadowBlurOuter1" stdDeviation="3"/>
      <feComposite in="shadowBlurOuter1" in2="SourceAlpha" operator="out" result="shadowBlurOuter1"/>
      <feColorMatrix in="shadowBlurOuter1" values="0 0 0 0 0   0 0 0 0 0   0 0 0 0 0  0 0 0 0.05 0"/>
    </filter>
  </defs>
  <g fill="none" fill-rule="evenodd">
    <g transform="translate(16 10)">
      <use fill="#000" filter="url(#x-office-spreadsheet-a)" xlink:href="#x-office-spreadsheet-b"/>
      <use fill="url(#x-office-spreadsheet-c)" xlink:href="#x-office-spreadsheet-b"/>
      <use fill="#000" filter="url(#x-office-spreadsheet-d)" xlink:href="#x-office-spreadsheet-e"/>
      <use fill="url(#x-office-spreadsheet-f)" xlink:href="#x-office-spreadsheet-e"/>
    </g>
    <path fill="#FFF" fill-opacity=".6" d="M46.5832681,42.7790689 L42,42.7774982 L42.0005944,40.8400023 L46.5832084,40.8415727 L46.5830594,36.000063 L48.4163431,36 L48.4164922,40.8422009 L52.0830599,40.8434574 L52.0829107,36.000063 L53.9161945,36 L53.9163437,40.8440856 L57.5829113,40.8453421 L57.5827621,36.000063 L59.4160459,36 L59.4161951,40.8459704 L64,40.8475412 L63.9994056,42.7850371 L59.4162548,42.7834665 L59.4163741,46.6584586 L64,46.6600293 L63.9994056,48.5975253 L59.4164337,48.5959548 L59.416553,52.4709468 L64,52.4725175 L63.9994056,54.4100135 L59.4166126,54.408443 L59.4169406,66.999937 L57.5836569,67 L57.5833288,54.4078148 L53.9167612,54.4065583 L53.9170893,66.999937 L52.0838055,67 L52.0834774,54.4059301 L48.4169098,54.4046736 L48.4172379,66.999937 L46.5839541,67 L46.5836259,54.4040453 L42,54.4024746 L42.0005944,52.4649786 L46.5835663,52.4665492 L46.583447,48.5915571 L42,48.5899864 L42.0005944,46.6524905 L46.5833874,46.6540609 L46.5832681,42.7790689 Z M49,43 L52.9998699,43.0012966 L53,47 L49.0001301,46.9987034 L49,43 Z M49.0001301,52.9987034 L53,53 L52.9998699,49.0012966 L49,49 L49.0001301,52.9987034 Z M53,43 L56.9998699,43.0012966 L57,47 L53.0001301,46.9987034 L53,43 Z M53.0001301,52.9987034 L57,53 L56.9998699,49.0012966 L53,49 L53.0001301,52.9987034 Z"/>
    <path fill="#FFF" fill-opacity=".6" d="M66,34 L66,69 L29,69 L29,34 L66,34 Z M64,36 L31,36 L31,67 L64,67 L64,36 Z"/>
    <polygon fill="#FFF" fill-opacity=".6" points="40 67 42 67 42 36 40 36"/>
  </g>
</svg>
