<svg xmlns="http://www.w3.org/2000/svg" xmlns:xlink="http://www.w3.org/1999/xlink" width="64" height="64" viewBox="0 0 64 64">
  <defs>
    <filter id="deepin-diskmanager-a" width="134.8%" height="129.6%" x="-17.4%" y="-14.8%" filterUnits="objectBoundingBox">
      <feOffset dy="1" in="SourceAlpha" result="shadowOffsetOuter1"/>
      <feGaussianBlur in="shadowOffsetOuter1" result="shadowBlurOuter1" stdDeviation="1.5"/>
      <feColorMatrix in="shadowBlurOuter1" result="shadowMatrixOuter1" values="0 0 0 0 0   0 0 0 0 0   0 0 0 0 0  0 0 0 0.2 0"/>
      <feMerge>
        <feMergeNode in="shadowMatrixOuter1"/>
        <feMergeNode in="SourceGraphic"/>
      </feMerge>
    </filter>
    <path id="deepin-diskmanager-b" d="M1.50004975,0 L44.5000497,0 C45.3284769,-1.52179594e-16 46.0000497,0.671572875 46.0000497,1.5 L46.0000497,51.5 C46.0000497,52.3284271 45.3284769,53 44.5000497,53 L1.50004975,53 C0.671622624,53 4.97483416e-05,52.3284271 4.97483416e-05,51.5 L4.97483416e-05,1.5 C4.97483416e-05,0.671572875 0.671622624,1.52179594e-16 1.50004975,0 Z"/>
    <filter id="deepin-diskmanager-c" width="102.2%" height="101.9%" x="-1.1%" y="-.9%" filterUnits="objectBoundingBox">
      <feOffset dy="1" in="SourceAlpha" result="shadowOffsetInner1"/>
      <feComposite in="shadowOffsetInner1" in2="SourceAlpha" k2="-1" k3="1" operator="arithmetic" result="shadowInnerInner1"/>
      <feColorMatrix in="shadowInnerInner1" values="0 0 0 0 1   0 0 0 0 1   0 0 0 0 1  0 0 0 0.596754808 0"/>
    </filter>
    <path id="deepin-diskmanager-e" d="M29.5000497,44 C29.7761921,44 30.0000497,44.2238576 30.0000497,44.5 L30.0000497,50.5 C30.0000497,50.7761424 29.7761921,51 29.5000497,51 C29.2239074,51 29.0000497,50.7761424 29.0000497,50.5 L29.0000497,44.5 C29.0000497,44.2238576 29.2239074,44 29.5000497,44 Z M31.5000497,44 C31.7761921,44 32.0000497,44.2238576 32.0000497,44.5 L32.0000497,50.5 C32.0000497,50.7761424 31.7761921,51 31.5000497,51 C31.2239074,51 31.0000497,50.7761424 31.0000497,50.5 L31.0000497,44.5 C31.0000497,44.2238576 31.2239074,44 31.5000497,44 Z M33.5000497,44 C33.7761921,44 34.0000497,44.2238576 34.0000497,44.5 L34.0000497,50.5 C34.0000497,50.7761424 33.7761921,51 33.5000497,51 C33.2239074,51 33.0000497,50.7761424 33.0000497,50.5 L33.0000497,44.5 C33.0000497,44.2238576 33.2239074,44 33.5000497,44 Z M35.5000497,44 C35.7761921,44 36.0000497,44.2238576 36.0000497,44.5 L36.0000497,50.5 C36.0000497,50.7761424 35.7761921,51 35.5000497,51 C35.2239074,51 35.0000497,50.7761424 35.0000497,50.5 L35.0000497,44.5 C35.0000497,44.2238576 35.2239074,44 35.5000497,44 Z M37.5000497,44 C37.7761921,44 38.0000497,44.2238576 38.0000497,44.5 L38.0000497,50.5 C38.0000497,50.7761424 37.7761921,51 37.5000497,51 C37.2239074,51 37.0000497,50.7761424 37.0000497,50.5 L37.0000497,44.5 C37.0000497,44.2238576 37.2239074,44 37.5000497,44 Z"/>
    <filter id="deepin-diskmanager-d" width="100%" height="100%" x="0%" y="0%" filterUnits="objectBoundingBox">
      <feOffset in="SourceAlpha" result="shadowOffsetOuter1"/>
      <feColorMatrix in="shadowOffsetOuter1" values="0 0 0 0 1   0 0 0 0 1   0 0 0 0 1  0 0 0 0.5 0"/>
    </filter>
    <filter id="deepin-diskmanager-f" width="122.2%" height="128.6%" x="-11.1%" y="-14.3%" filterUnits="objectBoundingBox">
      <feGaussianBlur in="SourceAlpha" result="shadowBlurInner1" stdDeviation=".5"/>
      <feOffset dy="1" in="shadowBlurInner1" result="shadowOffsetInner1"/>
      <feComposite in="shadowOffsetInner1" in2="SourceAlpha" k2="-1" k3="1" operator="arithmetic" result="shadowInnerInner1"/>
      <feColorMatrix in="shadowInnerInner1" values="0 0 0 0 0   0 0 0 0 0   0 0 0 0 0  0 0 0 0.2 0"/>
    </filter>
    <path id="deepin-diskmanager-h" d="M46.0000995,24.0354373 L46.0000995,30.9645627 C44.3039282,30.7219693 43.0000497,29.2632532 43.0000497,27.5 C43.0000497,25.7367468 44.3039282,24.2780307 46.0000995,24.0354373 Z"/>
    <filter id="deepin-diskmanager-g" width="133.3%" height="128.9%" x="-16.7%" y="-7.2%" filterUnits="objectBoundingBox">
      <feOffset dy="1" in="SourceAlpha" result="shadowOffsetOuter1"/>
      <feColorMatrix in="shadowOffsetOuter1" values="0 0 0 0 1   0 0 0 0 1   0 0 0 0 1  0 0 0 0.5 0"/>
    </filter>
    <path id="deepin-diskmanager-j" d="M3.00004975,24.0354373 L3.00004975,30.9645627 C1.30387842,30.7219693 -1.12132525e-13,29.2632532 -1.12132525e-13,27.5 C-1.12132525e-13,25.7367468 1.30387842,24.2780307 3.00004975,24.0354373 Z"/>
    <filter id="deepin-diskmanager-i" width="133.3%" height="128.9%" x="-16.7%" y="-7.2%" filterUnits="objectBoundingBox">
      <feOffset dy="1" in="SourceAlpha" result="shadowOffsetOuter1"/>
      <feColorMatrix in="shadowOffsetOuter1" values="0 0 0 0 1   0 0 0 0 1   0 0 0 0 1  0 0 0 0.5 0"/>
    </filter>
    <path id="deepin-diskmanager-l" d="M42.5000497,48.75 C43.1904057,48.75 43.7500497,49.3096441 43.7500497,50 C43.7500497,50.6903559 43.1904057,51.25 42.5000497,51.25 C41.8096938,51.25 41.2500497,50.6903559 41.2500497,50 C41.2500497,49.3096441 41.8096938,48.75 42.5000497,48.75 Z M3.50004975,48.75 C4.19040569,48.75 4.75004975,49.3096441 4.75004975,50 C4.75004975,50.6903559 4.19040569,51.25 3.50004975,51.25 C2.80969381,51.25 2.25004975,50.6903559 2.25004975,50 C2.25004975,49.3096441 2.80969381,48.75 3.50004975,48.75 Z M42.5000497,2.75 C43.1904057,2.75 43.7500497,3.30964406 43.7500497,4 C43.7500497,4.69035594 43.1904057,5.25 42.5000497,5.25 C41.8096938,5.25 41.2500497,4.69035594 41.2500497,4 C41.2500497,3.30964406 41.8096938,2.75 42.5000497,2.75 Z M3.50004975,2.75 C4.19040569,2.75 4.75004975,3.30964406 4.75004975,4 C4.75004975,4.69035594 4.19040569,5.25 3.50004975,5.25 C2.80969381,5.25 2.25004975,4.69035594 2.25004975,4 C2.25004975,3.30964406 2.80969381,2.75 3.50004975,2.75 Z"/>
    <filter id="deepin-diskmanager-k" width="102.4%" height="104.1%" x="-1.2%" y="-1%" filterUnits="objectBoundingBox">
      <feOffset dy="1" in="SourceAlpha" result="shadowOffsetOuter1"/>
      <feColorMatrix in="shadowOffsetOuter1" values="0 0 0 0 1   0 0 0 0 1   0 0 0 0 1  0 0 0 0.5 0"/>
    </filter>
    <path id="deepin-diskmanager-m" d="M17,13.5 C18.9329966,13.5 20.5,15.0670034 20.5,17 C20.5,18.9329966 18.9329966,20.5 17,20.5 C15.0670034,20.5 13.5,18.9329966 13.5,17 C13.5,15.0670034 15.0670034,13.5 17,13.5 Z M17,15.8333333 C16.3556678,15.8333333 15.8333333,16.3556678 15.8333333,17 C15.8333333,17.6443322 16.3556678,18.1666667 17,18.1666667 C17.6443322,18.1666667 18.1666667,17.6443322 18.1666667,17 C18.1666667,16.3556678 17.6443322,15.8333333 17,15.8333333 Z"/>
    <filter id="deepin-diskmanager-n" width="114.3%" height="114.3%" x="-7.1%" y="-7.1%" filterUnits="objectBoundingBox">
      <feOffset dy="1" in="SourceAlpha" result="shadowOffsetInner1"/>
      <feComposite in="shadowOffsetInner1" in2="SourceAlpha" k2="-1" k3="1" operator="arithmetic" result="shadowInnerInner1"/>
      <feColorMatrix in="shadowInnerInner1" values="0 0 0 0 1   0 0 0 0 1   0 0 0 0 1  0 0 0 0.5 0"/>
    </filter>
    <linearGradient id="deepin-diskmanager-o" x1="97.247%" x2="6.271%" y1="3.756%" y2="92.217%">
      <stop offset="0%" stop-color="#F7F9FB"/>
      <stop offset="100%" stop-color="#ECF1F6"/>
    </linearGradient>
    <path id="deepin-diskmanager-p" d="M6.68277457,18.0145556 L19.4571151,2.00672112 C19.6397197,1.79247434 19.75,1.51755285 19.75,1.21760735 C19.75,0.546300745 19.1967473,0 18.5150464,0 C18.211284,0 17.9328639,0.107180527 17.7176265,0.289204598 L1.50434752,12.9030271 C0.591208576,13.5689633 0,14.6384833 0,15.8435215 C0,17.86464 1.65802241,19.5 3.70300928,19.5 C4.9253495,19.5 6.008364,18.9162204 6.68277457,18.0145556 Z"/>
    <filter id="deepin-diskmanager-q" width="105.1%" height="105.1%" x="-2.5%" y="-2.6%" filterUnits="objectBoundingBox">
      <feOffset dy="1" in="SourceAlpha" result="shadowOffsetInner1"/>
      <feComposite in="shadowOffsetInner1" in2="SourceAlpha" k2="-1" k3="1" operator="arithmetic" result="shadowInnerInner1"/>
      <feColorMatrix in="shadowInnerInner1" values="0 0 0 0 1   0 0 0 0 1   0 0 0 0 1  0 0 0 0.942198427 0"/>
    </filter>
  </defs>
  <g fill="none" fill-rule="evenodd" filter="url(#deepin-diskmanager-a)" transform="translate(9 5)">
    <path fill="#004675" d="M1.50004975,1 L44.5000497,1 C45.3284769,1 46.0000497,1.67157288 46.0000497,2.5 L46.0000497,52.5 C46.0000497,53.3284271 45.3284769,54 44.5000497,54 L1.50004975,54 C0.671622624,54 4.97483416e-05,53.3284271 4.97483416e-05,52.5 L4.97483416e-05,2.5 C4.97483416e-05,1.67157288 0.671622624,1 1.50004975,1 Z"/>
    <use fill="#D8F0FF" xlink:href="#deepin-diskmanager-b"/>
    <use fill="#000" filter="url(#deepin-diskmanager-c)" xlink:href="#deepin-diskmanager-b"/>
    <use fill="#000" filter="url(#deepin-diskmanager-d)" xlink:href="#deepin-diskmanager-e"/>
    <use fill="#006FBF" xlink:href="#deepin-diskmanager-e"/>
    <use fill="#000" filter="url(#deepin-diskmanager-f)" xlink:href="#deepin-diskmanager-e"/>
    <path fill="#1F8AFF" d="M5.25508905,34 C8.2503248,37.5918658 10.8353797,39.9392845 13.0102538,41.0422561 C16.0652253,42.5915628 20.061824,43.5627771 25.0000497,43.9558993 L25.0000497,53 L1.50004975,53 C0.671622624,53 4.97483416e-05,52.3284271 4.97483416e-05,51.5 L4.97483416e-05,34 L4.97483416e-05,34 L5.25508905,34 Z"/>
    <use fill="#000" filter="url(#deepin-diskmanager-g)" xlink:href="#deepin-diskmanager-h"/>
    <use fill="#006FBF" xlink:href="#deepin-diskmanager-h"/>
    <g transform="matrix(-1 0 0 1 3 0)">
      <use fill="#000" filter="url(#deepin-diskmanager-i)" xlink:href="#deepin-diskmanager-j"/>
      <use fill="#006FBF" xlink:href="#deepin-diskmanager-j"/>
    </g>
    <use fill="#000" filter="url(#deepin-diskmanager-k)" xlink:href="#deepin-diskmanager-l"/>
    <use fill="#006FBF" xlink:href="#deepin-diskmanager-l"/>
    <g transform="translate(6 3.25)">
      <circle cx="17" cy="17" r="17" fill="#0093F6"/>
      <g transform="translate(2.5 2.5)">
        <circle cx="14.5" cy="14.5" r="14.5" fill="#004675"/>
        <path fill="#FFF" fill-opacity=".198" fill-rule="nonzero" d="M14.0870635,15.3117165 L28.1891689,19.2928342 C27.351386,21.6858407 25.9038616,23.7923651 24.0328794,25.4261238 L14.0870635,15.3117165 Z M3.73544471,4.7851783 L14.0870635,15.3117165 L0.326279895,11.4269777 C0.870051232,8.90704233 2.06878316,6.63076555 3.73544471,4.7851783 Z"/>
      </g>
      <circle cx="5.75" cy="5.75" r="5.75" fill="#003050" transform="translate(11.25 11.25)"/>
      <use fill="#D9D9D9" xlink:href="#deepin-diskmanager-m"/>
      <use fill="#000" filter="url(#deepin-diskmanager-n)" xlink:href="#deepin-diskmanager-m"/>
    </g>
    <g transform="translate(7.5 28.5)">
      <path fill="#000" fill-opacity=".296" fill-rule="nonzero" d="M7.05069449,19.0414111 L19.8250351,3.03357659 C20.0076397,2.8193298 20.1179199,2.54440832 20.1179199,2.24446282 C20.1179199,1.57315621 19.5646672,1.02685547 18.8829663,1.02685547 C18.5792039,1.02685547 18.3007838,1.134036 18.0855464,1.31606007 L1.87226744,13.9298826 C0.959128498,14.5958188 0.367919922,15.6653388 0.367919922,16.8703769 C0.367919922,18.8914954 2.02594233,20.5268555 4.0709292,20.5268555 C5.29326943,20.5268555 6.37628392,19.9430758 7.05069449,19.0414111 Z"/>
      <g fill-rule="nonzero">
        <use fill="url(#deepin-diskmanager-o)" xlink:href="#deepin-diskmanager-p"/>
        <use fill="#000" filter="url(#deepin-diskmanager-q)" xlink:href="#deepin-diskmanager-p"/>
      </g>
      <circle cx="3.5" cy="16" r="2.25" fill="#0093F6"/>
    </g>
  </g>
</svg>
