<svg xmlns="http://www.w3.org/2000/svg" width="64" height="64" viewBox="0 0 64 64">
  <defs>
    <filter id="deepin-album-a" width="133.3%" height="129.6%" x="-16.7%" y="-14.8%" filterUnits="objectBoundingBox">
      <feOffset dy="1" in="SourceAlpha" result="shadowOffsetOuter1"/>
      <feGaussianBlur in="shadowOffsetOuter1" result="shadowBlurOuter1" stdDeviation="1.5"/>
      <feColorMatrix in="shadowBlurOuter1" result="shadowMatrixOuter1" values="0 0 0 0 0   0 0 0 0 0   0 0 0 0 0  0 0 0 0.2 0"/>
      <feMerge>
        <feMergeNode in="shadowMatrixOuter1"/>
        <feMergeNode in="SourceGraphic"/>
      </feMerge>
    </filter>
    <linearGradient id="deepin-album-b" x1="50%" x2="50%" y1="0%" y2="100%">
      <stop offset="0%" stop-color="#FFF"/>
      <stop offset="100%" stop-color="#94A1A6"/>
    </linearGradient>
    <linearGradient id="deepin-album-c" x1="50%" x2="50%" y1="-16.819%" y2="98.139%">
      <stop offset="0%" stop-color="#F7F7F7"/>
      <stop offset="100%" stop-color="#EDEDED"/>
    </linearGradient>
    <linearGradient id="deepin-album-d" x1="50%" x2="50%" y1="164.835%" y2="0%">
      <stop offset="0%" stop-color="#D14848"/>
      <stop offset="0%" stop-color="#D54F42"/>
      <stop offset="100%" stop-color="#FF9E00"/>
    </linearGradient>
    <linearGradient id="deepin-album-e" x1="11.341%" x2="97.099%" y1="9.888%" y2="119.966%">
      <stop offset="0%" stop-color="#E1A836"/>
      <stop offset="100%" stop-color="#BE5A6F"/>
    </linearGradient>
  </defs>
  <g fill="none" fill-rule="evenodd" filter="url(#deepin-album-a)" transform="translate(8 5)">
    <path fill="url(#deepin-album-b)" fill-rule="nonzero" d="M1.5,3 L46.5,3 C47.3284271,3 48,3.67157288 48,4.5 L48,52.5 C48,53.3284271 47.3284271,54 46.5,54 L1.5,54 C0.671572875,54 1.01453063e-16,53.3284271 0,52.5 L0,4.5 C-1.01453063e-16,3.67157288 0.671572875,3 1.5,3 Z"/>
    <path fill="#FFF" fill-rule="nonzero" d="M1.5,9.09494702e-13 L46.5,9.09494702e-13 C47.3284271,9.09342522e-13 48,0.671572875 48,1.5 L48,50.5 C48,51.3284271 47.3284271,52 46.5,52 L1.5,52 C0.671572875,52 1.01453063e-16,51.3284271 0,50.5 L0,1.5 C-1.01453063e-16,0.671572875 0.671572875,9.09646881e-13 1.5,9.09494702e-13 Z"/>
    <path fill="url(#deepin-album-c)" fill-rule="nonzero" d="M1.5,1 L46.5,1 C47.3284271,1 48,1.67157288 48,2.5 L48,51.5001262 C48,52.3285534 47.3284271,53.0001262 46.5,53.0001262 L1.5,53.0001262 C0.671572875,53.0001262 1.01453063e-16,52.3285534 0,51.5001262 L0,2.5 C-1.01453063e-16,1.67157288 0.671572875,1 1.5,1 Z"/>
    <g transform="translate(7 8)">
      <polygon fill="url(#deepin-album-d)" points="0 0 35 0 35 22 0 22"/>
      <polygon fill="#C983FF" fill-rule="nonzero" points="14.554 4.038 .911 22 10.298 22 19.367 10.152"/>
      <polygon fill="#942ECF" fill-rule="nonzero" points="15.006 4.622 1.681 22 10.483 22 19.468 10.281"/>
      <polygon fill="#A997FF" fill-rule="nonzero" points="28.257 22 19.185 22 10.298 22 19.367 10.152"/>
      <polygon fill="#7D44DF" fill-rule="nonzero" points="28.257 22 19.37 22 11.092 22 19.754 10.669"/>
      <polygon fill="#FFE18B" fill-rule="nonzero" points="22.101 6.685 33.904 22 28.257 22 19.367 10.152"/>
      <polygon fill="url(#deepin-album-e)" fill-rule="nonzero" points="19.754 10.669 22.521 7.23 34.089 22 28.257 22"/>
    </g>
    <polygon fill="#000" fill-rule="nonzero" points="7 8 42 8 42 9 7 9" opacity=".06"/>
    <polygon fill="#FFF" fill-rule="nonzero" points="7 30 42 30 42 31 7 31"/>
    <path fill="#95A2A7" d="M41,41 L41,43 L17,43 L17,41 L41,41 Z M41,36 L41,38 L30,38 L30,36 L41,36 Z"/>
  </g>
</svg>
