<svg xmlns="http://www.w3.org/2000/svg" xmlns:xlink="http://www.w3.org/1999/xlink" width="64" height="64" viewBox="0 0 64 64">
  <defs>
    <filter id="iso-customizer-a" width="128.6%" height="128.6%" x="-14.3%" y="-14.3%" filterUnits="objectBoundingBox">
      <feOffset dy="1" in="SourceAlpha" result="shadowOffsetOuter1"/>
      <feGaussianBlur in="shadowOffsetOuter1" result="shadowBlurOuter1" stdDeviation="1.5"/>
      <feColorMatrix in="shadowBlurOuter1" result="shadowMatrixOuter1" values="0 0 0 0 0   0 0 0 0 0   0 0 0 0 0  0 0 0 0.2 0"/>
      <feMerge>
        <feMergeNode in="shadowMatrixOuter1"/>
        <feMergeNode in="SourceGraphic"/>
      </feMerge>
    </filter>
    <linearGradient id="iso-customizer-b" x1="50%" x2="50%" y1="0%" y2="98.735%">
      <stop offset="0%" stop-color="#4BEEE9"/>
      <stop offset="100%" stop-color="#00A29F"/>
    </linearGradient>
    <path id="iso-customizer-d" d="M12.9661416,0.620689655 C22.5644696,0.620689655 30.3454519,8.40167194 30.3454519,18 C30.3454519,27.598328 22.5644696,35.3793103 12.9661416,35.3793103 C12.6416357,35.3793103 12.3192071,35.3704165 11.9990863,35.3528593 L12.0008434,34.1440813 C12.3202063,34.1628813 12.6420607,34.1724138 12.9661416,34.1724138 C21.8979191,34.1724138 29.1385554,26.9317775 29.1385554,18 C29.1385554,9.0682225 21.8979191,1.82758621 12.9661416,1.82758621 C12.6420607,1.82758621 12.3202063,1.83711873 12.0008434,1.85591867 L11.9990863,0.647140658 C12.3192071,0.629583476 12.6416357,0.620689655 12.9661416,0.620689655 Z M12.9661416,3.03448276 C21.2313685,3.03448276 27.9316588,9.73477306 27.9316588,18 C27.9316588,26.2652269 21.2313685,32.9655172 12.9661416,32.9655172 C12.6417746,32.9655172 12.3198177,32.9551978 12.0005816,32.9348692 L12.0001814,25.1775134 C12.3161798,25.2196358 12.6386214,25.2413793 12.9661416,25.2413793 C16.9654449,25.2413793 20.2075209,21.9993034 20.2075209,18 C20.2075209,14.0006966 16.9654449,10.7586207 12.9661416,10.7586207 C12.6386214,10.7586207 12.3161798,10.7803642 12.0001814,10.8224866 L12.0005816,3.06513078 C12.3198177,3.04480223 12.6417746,3.03448276 12.9661416,3.03448276 Z"/>
    <filter id="iso-customizer-c" width="105.5%" height="105.8%" x="-2.7%" y="-1.4%" filterUnits="objectBoundingBox">
      <feOffset dy="1" in="SourceAlpha" result="shadowOffsetOuter1"/>
      <feColorMatrix in="shadowOffsetOuter1" values="0 0 0 0 0   0 0 0 0 0   0 0 0 0 0  0 0 0 0.198563156 0"/>
    </filter>
    <path id="iso-customizer-f" d="M3.83693077e-13,2 C3.83693077e-13,0.8954305 0.8954305,-5.24794368e-16 2,-4.82436795e-16 L10,8.04061325e-16 L10,37 L2,37 C0.8954305,37 3.78364007e-13,36.1045695 3.78364007e-13,35 L4.45865567e-13,34 L3,34 C3.55228475,34 4,33.5522847 4,33 C4,32.4477153 3.55228475,32 3,32 L3,32 L4.45865567e-13,32 L4.45865567e-13,29 L3,29 C3.55228475,29 4,28.5522847 4,28 C4,27.4477153 3.55228475,27 3,27 L3,27 L4.45865567e-13,27 L5.63105118e-13,24 L6,24 C6.55228475,24 7,23.5522847 7,23 C7,22.4477153 6.55228475,22 6,22 L6,22 L5.63105118e-13,22 L4.45865567e-13,20 L3,20 C3.55228475,20 4,19.5522847 4,19 C4,18.4477153 3.55228475,18 3,18 L3,18 L4.45865567e-13,18 L4.45865567e-13,15 L3,15 C3.55228475,15 4,14.5522847 4,14 C4,13.4477153 3.55228475,13 3,13 L3,13 L4.45865567e-13,13 L-4.64073224e-13,10 L3,10 C3.55228475,10 4,9.55228475 4,9 C4,8.44771525 3.55228475,8 3,8 L3,8 L-4.64073224e-13,8 L5.63105118e-13,5 L6,5 C6.55228475,5 7,4.55228475 7,4 C7,3.44771525 6.55228475,3 6,3 L6,3 L5.63105118e-13,3 L3.83693077e-13,2 Z"/>
    <filter id="iso-customizer-e" width="110%" height="105.4%" x="-5%" y="-1.4%" filterUnits="objectBoundingBox">
      <feOffset dy="1" in="SourceAlpha" result="shadowOffsetOuter1"/>
      <feColorMatrix in="shadowOffsetOuter1" values="0 0 0 0 0   0 0 0 0 0   0 0 0 0 0  0 0 0 0.198563156 0"/>
    </filter>
  </defs>
  <g fill="none" filter="url(#iso-customizer-a)" transform="translate(4 4)">
    <circle cx="28" cy="28" r="28" fill="url(#iso-customizer-b)"/>
    <circle cx="28" cy="28" r="27" fill="#00C8C2"/>
    <g transform="translate(16 10)">
      <use fill="#000" filter="url(#iso-customizer-c)" xlink:href="#iso-customizer-d"/>
      <use fill="#FFF" xlink:href="#iso-customizer-d"/>
      <use fill="#000" filter="url(#iso-customizer-e)" xlink:href="#iso-customizer-f"/>
      <use fill="#FFF" xlink:href="#iso-customizer-f"/>
    </g>
  </g>
</svg>
