<svg xmlns="http://www.w3.org/2000/svg" xmlns:xlink="http://www.w3.org/1999/xlink" width="64" height="64" viewBox="0 0 64 64">
  <defs>
    <filter id="uos-remote-assistance-a" width="127.6%" height="130.8%" x="-13.8%" y="-15.4%" filterUnits="objectBoundingBox">
      <feOffset dy="1" in="SourceAlpha" result="shadowOffsetOuter1"/>
      <feGaussianBlur in="shadowOffsetOuter1" result="shadowBlurOuter1" stdDeviation="1.5"/>
      <feColorMatrix in="shadowBlurOuter1" result="shadowMatrixOuter1" values="0 0 0 0 0   0 0 0 0 0   0 0 0 0 0  0 0 0 0.2 0"/>
      <feMerge>
        <feMergeNode in="shadowMatrixOuter1"/>
        <feMergeNode in="SourceGraphic"/>
      </feMerge>
    </filter>
    <linearGradient id="uos-remote-assistance-b" x1="50%" x2="50%" y1="21.23%" y2="79.403%">
      <stop offset="0%" stop-color="#64738B"/>
      <stop offset="100%" stop-color="#7C8EAA"/>
    </linearGradient>
    <path id="uos-remote-assistance-c" d="M1,0 L53,0 C53.5522847,-1.01453063e-16 54,0.44771525 54,1 L54,40 C54,40.5522847 53.5522847,41 53,41 L1,41 C0.44771525,41 6.76353751e-17,40.5522847 0,40 L0,1 C-6.76353751e-17,0.44771525 0.44771525,1.01453063e-16 1,0 Z"/>
    <filter id="uos-remote-assistance-d" width="101.9%" height="102.4%" x="-.9%" y="-1.2%" filterUnits="objectBoundingBox">
      <feOffset dy="-1" in="SourceAlpha" result="shadowOffsetInner1"/>
      <feComposite in="shadowOffsetInner1" in2="SourceAlpha" k2="-1" k3="1" operator="arithmetic" result="shadowInnerInner1"/>
      <feColorMatrix in="shadowInnerInner1" values="0 0 0 0 0   0 0 0 0 0   0 0 0 0 0  0 0 0 0.210118007 0"/>
    </filter>
    <linearGradient id="uos-remote-assistance-e" x1="50%" x2="50%" y1="0%" y2="100%">
      <stop offset="0%" stop-color="#FFF" stop-opacity=".84"/>
      <stop offset="100%" stop-color="#FFF" stop-opacity=".517"/>
    </linearGradient>
    <linearGradient id="uos-remote-assistance-f" x1="50%" x2="50%" y1="0%" y2="100%">
      <stop offset="0%" stop-color="#FFF" stop-opacity=".386"/>
      <stop offset="100%" stop-color="#FFF" stop-opacity=".127"/>
    </linearGradient>
    <path id="uos-remote-assistance-g" d="M17.5149574,45 L36.5,45 C36.7761424,45 37,45.2238576 37,45.5 L37,47.5 C37,47.7761424 36.7761424,48 36.5,48 L17.5739181,48 C17.3035131,48 17.0821035,47.7850214 17.0741353,47.5147338 L17.0151745,45.5147338 C17.0070373,45.2387113 17.2242012,45.0083544 17.5002236,45.0002171 C17.5051336,45.0000724 17.5100453,45 17.5149574,45 Z"/>
    <filter id="uos-remote-assistance-h" width="104.9%" height="133.3%" x="-2.4%" y="-16.7%" filterUnits="objectBoundingBox">
      <feOffset dy="1" in="SourceAlpha" result="shadowOffsetInner1"/>
      <feComposite in="shadowOffsetInner1" in2="SourceAlpha" k2="-1" k3="1" operator="arithmetic" result="shadowInnerInner1"/>
      <feColorMatrix in="shadowInnerInner1" values="0 0 0 0 1   0 0 0 0 1   0 0 0 0 1  0 0 0 0.401633523 0"/>
    </filter>
    <linearGradient id="uos-remote-assistance-i" x1="50%" x2="50%" y1="0%" y2="100%">
      <stop offset="0%" stop-color="#9DD6C3"/>
      <stop offset="100%" stop-color="#2F8A6C"/>
    </linearGradient>
  </defs>
  <g fill="none" fill-rule="evenodd" filter="url(#uos-remote-assistance-a)" transform="translate(5 7)">
    <polygon fill="url(#uos-remote-assistance-b)" points="21 41 33 41 33 46 21 46"/>
    <use fill="#D8E5F7" xlink:href="#uos-remote-assistance-c"/>
    <use fill="#000" filter="url(#uos-remote-assistance-d)" xlink:href="#uos-remote-assistance-c"/>
    <polygon fill="#2A4E77" points="3 3 51 3 51 35 3 35"/>
    <g transform="translate(10 8)">
      <polygon fill="url(#uos-remote-assistance-e)" points="34 0 34 22 0 22 0 0" opacity=".335"/>
      <polygon fill="url(#uos-remote-assistance-f)" points="0 3 9 3 9 22 0 22" opacity=".305"/>
      <rect width="4" height="3" x="12" y="6" fill="#FFF" opacity=".17"/>
      <rect width="4" height="3" x="12" y="11" fill="#FFF" opacity=".17"/>
      <rect width="4" height="3" x="12" y="16" fill="#FFF" opacity=".17"/>
      <rect width="4" height="3" x="18" y="6" fill="#FFF" opacity=".17"/>
      <rect width="4" height="3" x="18" y="11" fill="#FFF" opacity=".17"/>
      <rect width="4" height="3" x="18" y="16" fill="#FFF" opacity=".17"/>
      <rect width="4" height="3" x="24" y="6" fill="#FFF" opacity=".17"/>
      <rect width="4" height="3" x="24" y="11" fill="#FFF" opacity=".17"/>
      <polygon fill="#FFF" points="34 0 34 3 0 3 0 0" opacity=".596"/>
    </g>
    <use fill="#B0BCCE" xlink:href="#uos-remote-assistance-g"/>
    <use fill="#000" filter="url(#uos-remote-assistance-h)" xlink:href="#uos-remote-assistance-g"/>
    <circle cx="43.5" cy="37.5" r="14.5" fill="#3BAD88"/>
    <path fill="url(#uos-remote-assistance-i)" fill-rule="nonzero" d="M43.5,23 C51.5081289,23 58,29.4918711 58,37.5 C58,45.5081289 51.5081289,52 43.5,52 C35.4918711,52 29,45.5081289 29,37.5 C29,29.4918711 35.4918711,23 43.5,23 Z M43.5,23.75 C35.9060847,23.75 29.75,29.9060847 29.75,37.5 C29.75,45.0939153 35.9060847,51.25 43.5,51.25 C51.0939153,51.25 57.25,45.0939153 57.25,37.5 C57.25,29.9060847 51.0939153,23.75 43.5,23.75 Z"/>
    <path fill="#FFF" fill-rule="nonzero" d="M39.054107,29.7550107 L39.8538621,44.5853722 C39.8647981,44.788165 40.0344549,44.9458232 40.2375041,44.9419543 L47.914036,44.7928803 C48.0434432,44.7903685 48.1625083,44.7216263 48.2293872,44.6108122 L52.1966924,38.0372415 C52.3016301,37.8633663 52.2499225,37.6376101 52.0797668,37.5267429 L39.6361746,29.4189538 C39.4617837,29.3053271 39.2282992,29.3545862 39.1146725,29.5289771 C39.0710116,29.5959865 39.0498002,29.6751484 39.054107,29.7550107 Z"/>
    <path fill="#004F38" fill-opacity=".48" fill-rule="nonzero" d="M38.4862891,29.1195455 C38.3557408,29.319907 38.2923178,29.5566048 38.3051951,29.7953972 L39.1049503,44.6257587 C39.1376451,45.2320398 39.6447897,45.703384 40.251792,45.6918182 L47.9285978,45.5427389 C48.3155248,45.5352287 48.6715353,45.3296859 48.8715065,44.9983464 L52.8388117,38.4247756 C53.1525808,37.9048803 52.9979724,37.2298579 52.4891984,36.8983594 L40.0456062,28.7905704 C39.5589312,28.4734708 38.9183374,28.5806343 38.5588588,29.0202801 L38.4862891,29.1195455 Z M39.1146725,29.5289771 C39.2140959,29.376385 39.4052853,29.319597 39.5683575,29.3839053 L39.6361746,29.4189538 L52.0797668,37.5267429 C52.228653,37.6237517 52.2868525,37.8087224 52.2287759,37.9699321 L52.1966924,38.0372415 L48.2293872,44.6108122 C48.1758841,44.6994635 48.0889818,44.7611887 47.9901045,44.7836188 L47.914036,44.7928803 L40.2375041,44.942024 C40.0598361,44.9453396 39.9077341,44.8250557 39.8651584,44.6590765 L39.8538621,44.5853722 L39.054107,29.7550107 C39.0498002,29.6751484 39.0710116,29.5959865 39.1146725,29.5289771 Z"/>
  </g>
</svg>
