<svg xmlns="http://www.w3.org/2000/svg" width="64" height="64" viewBox="0 0 64 64">
  <defs>
    <filter id="uos-installtool-a" width="127.6%" height="129.4%" x="-13.8%" y="-14.7%" filterUnits="objectBoundingBox">
      <feOffset dy="1" in="SourceAlpha" result="shadowOffsetOuter1"/>
      <feGaussianBlur in="shadowOffsetOuter1" result="shadowBlurOuter1" stdDeviation="1.5"/>
      <feColorMatrix in="shadowBlurOuter1" result="shadowMatrixOuter1" values="0 0 0 0 0   0 0 0 0 0   0 0 0 0 0  0 0 0 0.2 0"/>
      <feMerge>
        <feMergeNode in="shadowMatrixOuter1"/>
        <feMergeNode in="SourceGraphic"/>
      </feMerge>
    </filter>
    <linearGradient id="uos-installtool-b" x1="50%" x2="50%" y1="25.076%" y2="100%">
      <stop offset="0%" stop-color="#FFF"/>
      <stop offset="100%" stop-color="#FFF" stop-opacity=".558"/>
    </linearGradient>
    <linearGradient id="uos-installtool-c" x1="50%" x2="50%" y1=".694%" y2="100%">
      <stop offset="0%" stop-color="#FFF"/>
      <stop offset="100%" stop-color="#BFBFBF"/>
    </linearGradient>
  </defs>
  <g fill="none" filter="url(#uos-installtool-a)" transform="translate(3 4.5)">
    <path fill="#FFF" d="M35.035483,0.870050302 C23.6404128,-2.46245359 11.7038078,4.07086655 8.36994348,15.4658799 C5.03742293,26.8595495 11.5721195,38.7974383 22.9671898,42.1299423 C34.3595725,45.4624463 46.2988648,38.929126 49.6300418,27.5354565 C52.9625623,16.1390994 46.4278658,4.2025542 35.035483,0.870050302 L35.035483,0.870050302 Z"/>
    <circle cx="29" cy="21.5" r="19.25" fill="#33C9ED"/>
    <path fill="url(#uos-installtool-b)" d="M22.7528,6 C23.4410618,6 23.9990082,6.55794641 23.9990082,7.24620819 L23.9990082,13.8638229 C23.9990082,16.6314196 26.2425886,18.875 29.0101852,18.875 C31.7777819,18.875 34.0213623,16.6314196 34.0213623,13.8638229 L34.0213623,7.25 C34.0213623,6.55964406 34.5810064,6 35.2713623,6 C35.9617182,6 36.5213623,6.55964406 36.5213623,7.25 L36.5213623,13.9926147 C36.5213623,18.1388291 33.1601914,21.5 29.0139771,21.5 C24.8677627,21.5 21.5065918,18.1388291 21.5065918,13.9926147 L21.5065918,7.24620819 C21.5065918,6.55794641 22.0645382,6 22.7528,6 Z"/>
    <rect width="48" height="35" x="5" y="19.5" fill="#000" fill-opacity=".166" rx="1.333"/>
    <path fill="#E1E1E1" d="M6.33333333,18.5 L51.6666667,18.5 C52.4030463,18.5 53,19.0969537 53,19.8333333 L53,52.1666667 C53,52.9030463 52.4030463,53.5 51.6666667,53.5 L6.33333333,53.5 C5.59695367,53.5 5,52.9030463 5,52.1666667 L5,19.8333333 C5,19.0969537 5.59695367,18.5 6.33333333,18.5 Z"/>
    <path fill="#5B7487" d="M26,33.5 L32,33.5 C32.5522847,33.5 33,33.9477153 33,34.5 L33,41.5 L33,41.5 L35.5857864,41.5 C36.1380712,41.5 36.5857864,41.9477153 36.5857864,42.5 C36.5857864,42.7652165 36.4804296,43.0195704 36.2928932,43.2071068 L30.2374369,49.2625631 C29.5540194,49.9459806 28.4459806,49.9459806 27.7625631,49.2625631 L21.7071068,43.2071068 C21.3165825,42.8165825 21.3165825,42.1834175 21.7071068,41.7928932 C21.8946432,41.6053568 22.1489971,41.5 22.4142136,41.5 L25,41.5 L25,41.5 L25,34.5 C25,33.9477153 25.4477153,33.5 26,33.5 Z"/>
    <g transform="translate(0 17.5)">
      <path fill="url(#uos-installtool-c)" d="M57.8790333,11.5150685 C58.2181588,12.3351735 57.8204809,13 56.9831999,13 L1.01779115,13 C0.183910626,13 -0.218862725,12.3374555 0.120273717,11.5150685 L4.25650683,1.48493155 C4.59470217,0.6648265 5.54170954,0 6.37911673,0 L51.6071316,0 C52.4412214,0 53.3913566,0.662544377 53.7314255,1.48493155 L57.8790333,11.5150685 Z"/>
      <path fill="#F2F2F2" d="M52.3869427,1 C52.9437216,1 53.5795101,1.41089694 53.8051893,1.91383056 L57.9194004,11.0824815 C58.1458973,11.5872373 57.8785674,11.9964505 57.3237222,11.996485 L0.676763085,12 C0.121282182,12 -0.145128751,11.5891188 0.0798966867,11.0862635 L4.18218689,1.91903742 C4.40802757,1.41436015 5.04308399,1.00518888 5.59924544,1.00512793 L52.3869427,1 Z"/>
    </g>
  </g>
</svg>
