<?xml version="1.0" encoding="UTF-8"?>
<svg width="96px" height="96px" viewBox="0 0 96 96" version="1.1" xmlns="http://www.w3.org/2000/svg" xmlns:xlink="http://www.w3.org/1999/xlink">
    <!-- Generator: Sketch 48.2 (47327) - http://www.bohemiancoding.com/sketch -->
    <title>deepin-manual</title>
    <desc>Created with Sketch.</desc>
    <defs>
        <rect id="path-1" x="10" y="6" width="76" height="84" rx="4"></rect>
        <filter x="-9.2%" y="-6.0%" width="118.4%" height="116.7%" filterUnits="objectBoundingBox" id="filter-2">
            <feOffset dx="0" dy="2" in="SourceAlpha" result="shadowOffsetOuter1"></feOffset>
            <feGaussianBlur stdDeviation="2" in="shadowOffsetOuter1" result="shadowBlurOuter1"></feGaussianBlur>
            <feComposite in="shadowBlurOuter1" in2="SourceAlpha" operator="out" result="shadowBlurOuter1"></feComposite>
            <feColorMatrix values="0 0 0 0 0   0 0 0 0 0   0 0 0 0 0  0 0 0 0.2 0" type="matrix" in="shadowBlurOuter1"></feColorMatrix>
        </filter>
        <radialGradient cx="50%" cy="17.5739284%" fx="50%" fy="17.5739284%" r="96.0888551%" gradientTransform="translate(0.500000,0.175739),scale(1.000000,0.904762),rotate(90.000000),translate(-0.500000,-0.175739)" id="radialGradient-3">
            <stop stop-color="#04A38C" offset="0%"></stop>
            <stop stop-color="#075661" offset="100%"></stop>
        </radialGradient>
        <linearGradient x1="6.14610779%" y1="65.6183541%" x2="0%" y2="65.6183541%" id="linearGradient-4">
            <stop stop-color="#04A38C" stop-opacity="0" offset="0%"></stop>
            <stop stop-color="#075661" offset="100%"></stop>
        </linearGradient>
    </defs>
    <g id="Page-1" stroke="none" stroke-width="1" fill="none" fill-rule="evenodd">
        <g id="deepin-manual">
            <g id="Rectangle-3">
                <use fill="black" fill-opacity="1" filter="url(#filter-2)" xlink:href="#path-1"></use>
                <use fill-opacity="0.1" fill="#000000" fill-rule="evenodd" xlink:href="#path-1"></use>
            </g>
            <rect id="Rectangle-3" fill="url(#radialGradient-3)" x="10" y="6" width="76" height="84" rx="4"></rect>
            <path d="M86,11 C86,8.790861 84.209139,7 82,7 L14,7 C11.790861,7 10,8.790861 10,11 L10,10 C10,7.790861 11.790861,6 14,6 L82,6 C84.209139,6 86,7.790861 86,10 L86,11 Z" id="Combined-Shape" fill-opacity="0.6" fill="#00AB9D"></path>
            <rect id="Rectangle-3" fill="url(#linearGradient-4)" x="10" y="6" width="76" height="84" rx="4"></rect>
            <path d="M56.9286155,69.9733628 C56.930518,69.9748351 56.9324309,69.9761573 56.9343399,69.9773221 C56.9336939,69.9769279 56.9329911,69.9765235 56.9322319,69.9761094 L56.9286155,69.9733628 Z M56.1193206,69.8791526 C55.463754,69.8535622 54.4576458,69.8664132 53.1027757,69.9178585 C50.3875157,70.0209585 45.8219336,70.0056208 40.3140892,70.4182641 C39.9603394,70.2507899 39.7661811,70.1038092 39.7316143,69.9773221 C39.6797642,69.7875914 39.6650846,69.4584845 39.9944293,69.2485609 C41.0624277,68.743695 55.4530553,69.1598665 56.1193206,69.1858746 C56.4584382,69.1991122 57.0281873,69.2139767 57.1954411,69.2485609 C57.4559663,69.3024315 57.5529878,70.202184 57.4753605,70.4182641 C57.2971221,70.9144009 53.6427671,70.5234881 46.5092271,71.1542419 C57.4753605,71.7833451 57.431363,71.7963904 56.1326902,72.6280046 C53.7942175,74.125462 39.2349362,75.8123851 39.2349362,75.8123851 C47.8495917,75.8123851 58.4657773,76.8193091 59.8545073,77.5482875 C61.2432373,78.2772659 52.3181741,80 48.9139836,80 C50.4753876,79.7750921 54.0807979,79.3978738 56.2386911,78.473123 C56.4566101,78.3797352 57.3417104,78.0167293 56.9286155,77.8481796 C56.3966394,77.6311243 55.3372971,77.3511669 53.7380828,77.1534181 C50.5163672,76.755041 45.1658696,76.4062566 37.689181,76.1074676 C36.2825802,76.169732 35.769091,76.1492115 36.1487135,76.0459063 C34.9405477,75.3358621 41.2175777,73.8975132 50.4753876,72.6280046 C51.2416096,72.1111861 48.7908338,71.6824157 43.1230602,71.3416933 C43.0429353,71.0754092 43.6723542,70.852037 45.0113168,70.6715768 C46.4337378,70.4798684 56.3098277,70.0477534 56.7037384,69.9236846 C56.5607278,69.9037753 56.3653615,69.8887569 56.1193206,69.8791526 Z" id="Path-3" fill="#FFFFFF" fill-rule="nonzero" opacity="0.200000003"></path>
            <path d="M41.5397935,52.8926217 L42.2796892,44.5212307 C42.965515,43.6165242 43.9694429,42.8439035 45.3001709,42.1958316 C47.4142811,41.1662483 48.6793371,40.8505131 51.5174142,40.6013382 C52.4188695,40.5221931 52.8694308,40.468895 53.3541759,40.3786762 L54.0751571,48.5360629 C54.0245068,48.546318 53.9732878,48.5562355 53.9214373,48.5658309 C53.4275732,48.6572249 52.9962352,48.7073951 52.0313831,48.7877451 C48.8531923,49.0524152 47.3492506,49.4092227 44.9373268,50.5233694 C43.5123823,51.1815979 42.3777303,51.9729621 41.5397935,52.8926217 Z M41.1611615,57.1765723 C41.1958632,57.1321277 41.2179082,57.0782378 41.2219983,57.0192762 C41.3811109,54.7255432 42.808947,52.9657623 45.5795675,51.6859219 C47.8164748,50.6526212 49.1589932,50.3347976 52.160586,50.084834 C53.1710636,50.0006845 53.641693,49.9459539 54.1908315,49.8448373 L55,59 L41,59 L41.1611615,57.1765723 Z M42.4678084,42.3927968 L42.9444444,37 L53.0555556,37 L53.238459,39.0694223 C53.2140316,39.0744126 53.189458,39.079319 53.1647303,39.0841434 C52.6995763,39.1748967 52.2925736,39.2247921 51.3803307,39.3048844 C48.3567738,39.5703439 46.9219145,39.9292433 44.6265402,41.0471032 C43.8047938,41.4472982 43.0847867,41.896244 42.4678084,42.3927968 Z M39.9481927,60 L56.0518073,60 C56.2539387,60 56.4301899,60.1628055 56.4454753,60.3636364 L56.9990089,67.6363636 C57.0142943,67.8371945 56.8509732,68 56.6342209,68 L39.3657791,68 C39.1490268,68 38.9857057,67.8371945 39.0009911,67.6363636 L39.5545247,60.3636364 C39.5698101,60.1628055 39.7460613,60 39.9481927,60 Z M42.35,28 L53.65,28 C53.8432997,28 54,28.1567003 54,28.35 L54,29.65 C54,29.8432997 53.8432997,30 53.65,30 L42.35,30 C42.1567003,30 42,29.8432997 42,29.65 L42,28.35 C42,28.1567003 42.1567003,28 42.35,28 Z M42,27 L48,24 L54,27 L42,27 Z M48,23.7878788 C47.235298,23.7878788 46.6153846,23.1637909 46.6153846,22.3939394 C46.6153846,21.6240879 47.235298,21 48,21 C48.764702,21 49.3846154,21.6240879 49.3846154,22.3939394 C49.3846154,23.1637909 48.764702,23.7878788 48,23.7878788 Z M45,31.35 L45,32.65 C45,32.8432997 44.8432997,33 44.65,33 L43.35,33 C43.1567003,33 43,32.8432997 43,32.65 L43,31.35 C43,31.1567003 43.1567003,31 43.35,31 L44.65,31 C44.8432997,31 45,31.1567003 45,31.35 Z M53,31.35 L53,32.65 C53,32.8432997 52.8432997,33 52.65,33 L51.35,33 C51.1567003,33 51,32.8432997 51,32.65 L51,31.35 C51,31.1567003 51.1567003,31 51.35,31 L52.65,31 C52.8432997,31 53,31.1567003 53,31.35 Z M50,31.35 L50,32.65 C50,32.8432997 49.8432997,33 49.65,33 L46.35,33 C46.1567003,33 46,32.8432997 46,32.65 L46,31.35 C46,31.1567003 46.1567003,31 46.35,31 L49.65,31 C49.8432997,31 50,31.1567003 50,31.35 Z M42.35,34 L53.65,34 C53.8432997,34 54,34.1567003 54,34.35 L54,35.65 C54,35.8432997 53.8432997,36 53.65,36 L42.35,36 C42.1567003,36 42,35.8432997 42,35.65 L42,34.35 C42,34.1567003 42.1567003,34 42.35,34 Z M47.35,43 C47.1567003,43 47,43.1567003 47,43.35 L47,46.65 C47,46.8432997 47.1567003,47 47.35,47 L48.65,47 C48.8432997,47 49,46.8432997 49,46.65 L49,43.35 C49,43.1567003 48.8432997,43 48.65,43 L47.35,43 Z" id="Combined-Shape" fill="#FFFFFF"></path>
            <path d="M10,40 L10,26 L41,32 L41,34 L10,40 Z M53,32 L86,26 L86,40 L53,34 L53,32 Z" id="Combined-Shape" fill="#FFFFFF" opacity="0.300000012"></path>
            <path d="M14,81 L74.5076687,81 L82.4737338,81 C84.4067304,81 85.9737338,79.4329966 85.9737338,77.5 L85.9737338,77 L85.9737338,85 C85.9737338,87.209139 84.1828728,89 81.9737338,89 L14,89 C11.790861,89 10,87.209139 10,85 L10,85 C10,82.790861 11.790861,81 14,81 Z" id="Rectangle-9" fill="#034849"></path>
            <path d="M14,82 L75.9387755,82 L83,82 C84.1045695,82 85,81.1045695 85,80 L85,84 C85,86.209139 83.209139,88 81,88 L14,88 C12.3431458,88 11,86.6568542 11,85 L11,85 C11,83.3431458 12.3431458,82 14,82 Z" id="Rectangle-9" fill="#D5FCF9"></path>
            <path d="M86,85 L86,86 C86,88.209139 84.209139,90 82,90 L14,90 C11.790861,90 10,88.209139 10,86 L10,85 C10,87.209139 11.790861,89 14,89 L82,89 C84.209139,89 86,87.209139 86,85 Z" id="Combined-Shape" fill="#002F2B"></path>
        </g>
    </g>
</svg>