<svg xmlns="http://www.w3.org/2000/svg" xmlns:xlink="http://www.w3.org/1999/xlink" width="96" height="96" viewBox="0 0 96 96">
  <defs>
    <filter id="deepin-diskmanager-a" width="135.3%" height="129.6%" x="-17.6%" y="-14.8%" filterUnits="objectBoundingBox">
      <feOffset dy="2" in="SourceAlpha" result="shadowOffsetOuter1"/>
      <feGaussianBlur in="shadowOffsetOuter1" result="shadowBlurOuter1" stdDeviation="2"/>
      <feColorMatrix in="shadowBlurOuter1" result="shadowMatrixOuter1" values="0 0 0 0 0   0 0 0 0 0   0 0 0 0 0  0 0 0 0.2 0"/>
      <feMerge>
        <feMergeNode in="shadowMatrixOuter1"/>
        <feMergeNode in="SourceGraphic"/>
      </feMerge>
    </filter>
    <path id="deepin-diskmanager-b" d="M2.25,0 L65.75,0 C66.9926407,-2.28269391e-16 68,1.00735931 68,2.25 L68,77.75 C68,78.9926407 66.9926407,80 65.75,80 L2.25,80 C1.00735931,80 1.52179594e-16,78.9926407 0,77.75 L0,2.25 C-1.52179594e-16,1.00735931 1.00735931,2.28269391e-16 2.25,0 Z"/>
    <filter id="deepin-diskmanager-c" width="101.5%" height="101.2%" x="-.7%" y="-.6%" filterUnits="objectBoundingBox">
      <feOffset dy="1" in="SourceAlpha" result="shadowOffsetInner1"/>
      <feComposite in="shadowOffsetInner1" in2="SourceAlpha" k2="-1" k3="1" operator="arithmetic" result="shadowInnerInner1"/>
      <feColorMatrix in="shadowInnerInner1" values="0 0 0 0 1   0 0 0 0 1   0 0 0 0 1  0 0 0 0.596754808 0"/>
    </filter>
    <path id="deepin-diskmanager-e" d="M42,66 C42.5522847,66 43,66.4477153 43,67 L43,76 C43,76.5522847 42.5522847,77 42,77 C41.4477153,77 41,76.5522847 41,76 L41,67 C41,66.4477153 41.4477153,66 42,66 Z M46,66 C46.5522847,66 47,66.4477153 47,67 L47,76 C47,76.5522847 46.5522847,77 46,77 C45.4477153,77 45,76.5522847 45,76 L45,67 C45,66.4477153 45.4477153,66 46,66 Z M50,66 C50.5522847,66 51,66.4477153 51,67 L51,76 C51,76.5522847 50.5522847,77 50,77 C49.4477153,77 49,76.5522847 49,76 L49,67 C49,66.4477153 49.4477153,66 50,66 Z M54,66 C54.5522847,66 55,66.4477153 55,67 L55,76 C55,76.5522847 54.5522847,77 54,77 C53.4477153,77 53,76.5522847 53,76 L53,67 C53,66.4477153 53.4477153,66 54,66 Z M58,66 C58.5522847,66 59,66.4477153 59,67 L59,76 C59,76.5522847 58.5522847,77 58,77 C57.4477153,77 57,76.5522847 57,76 L57,67 C57,66.4477153 57.4477153,66 58,66 Z"/>
    <filter id="deepin-diskmanager-d" width="102.8%" height="109.1%" x="-1.4%" y="-2.3%" filterUnits="objectBoundingBox">
      <feOffset dy=".5" in="SourceAlpha" result="shadowOffsetOuter1"/>
      <feColorMatrix in="shadowOffsetOuter1" values="0 0 0 0 1   0 0 0 0 1   0 0 0 0 1  0 0 0 0.5 0"/>
    </filter>
    <filter id="deepin-diskmanager-f" width="102.8%" height="109.1%" x="-1.4%" y="-2.3%" filterUnits="objectBoundingBox">
      <feOffset dy=".5" in="SourceAlpha" result="shadowOffsetInner1"/>
      <feComposite in="shadowOffsetInner1" in2="SourceAlpha" k2="-1" k3="1" operator="arithmetic" result="shadowInnerInner1"/>
      <feColorMatrix in="shadowInnerInner1" values="0 0 0 0 0   0 0 0 0 0   0 0 0 0 0  0 0 0 0.2 0"/>
    </filter>
    <path id="deepin-diskmanager-h" d="M68,35 L68,45 L68,45 C65.2385763,45 63,42.7614237 63,40 C63,37.2385763 65.2385763,35 68,35 Z"/>
    <filter id="deepin-diskmanager-g" width="120%" height="120%" x="-10%" y="-5%" filterUnits="objectBoundingBox">
      <feOffset dy="1" in="SourceAlpha" result="shadowOffsetOuter1"/>
      <feColorMatrix in="shadowOffsetOuter1" values="0 0 0 0 1   0 0 0 0 1   0 0 0 0 1  0 0 0 0.5 0"/>
    </filter>
    <path id="deepin-diskmanager-j" d="M5.00003321,35 L5.00203321,35 L5.0020517,44.9999996 C5.0013789,44.9999999 5.00070607,45 5.00003321,45 C2.23860946,45 3.32114553e-05,42.7614237 3.32114553e-05,40 C3.32114553e-05,37.2385763 2.23860946,35 5.00003321,35 Z"/>
    <filter id="deepin-diskmanager-i" width="120%" height="120%" x="-10%" y="-5%" filterUnits="objectBoundingBox">
      <feOffset dy="1" in="SourceAlpha" result="shadowOffsetOuter1"/>
      <feColorMatrix in="shadowOffsetOuter1" values="0 0 0 0 1   0 0 0 0 1   0 0 0 0 1  0 0 0 0.5 0"/>
    </filter>
    <path id="deepin-diskmanager-l" d="M63.25,72.625 C64.2855339,72.625 65.125,73.4644661 65.125,74.5 C65.125,75.5355339 64.2855339,76.375 63.25,76.375 C62.2144661,76.375 61.375,75.5355339 61.375,74.5 C61.375,73.4644661 62.2144661,72.625 63.25,72.625 Z M4.75,72.625 C5.78553391,72.625 6.625,73.4644661 6.625,74.5 C6.625,75.5355339 5.78553391,76.375 4.75,76.375 C3.71446609,76.375 2.875,75.5355339 2.875,74.5 C2.875,73.4644661 3.71446609,72.625 4.75,72.625 Z M63.25,3.625 C64.2855339,3.625 65.125,4.46446609 65.125,5.5 C65.125,6.53553391 64.2855339,7.375 63.25,7.375 C62.2144661,7.375 61.375,6.53553391 61.375,5.5 C61.375,4.46446609 62.2144661,3.625 63.25,3.625 Z M4.75,3.625 C5.78553391,3.625 6.625,4.46446609 6.625,5.5 C6.625,6.53553391 5.78553391,7.375 4.75,7.375 C3.71446609,7.375 2.875,6.53553391 2.875,5.5 C2.875,4.46446609 3.71446609,3.625 4.75,3.625 Z"/>
    <filter id="deepin-diskmanager-k" width="101.6%" height="102.7%" x="-.8%" y="-.7%" filterUnits="objectBoundingBox">
      <feOffset dy="1" in="SourceAlpha" result="shadowOffsetOuter1"/>
      <feColorMatrix in="shadowOffsetOuter1" values="0 0 0 0 1   0 0 0 0 1   0 0 0 0 1  0 0 0 0.5 0"/>
    </filter>
    <path id="deepin-diskmanager-m" d="M25.5,20.25 C28.3994949,20.25 30.75,22.6005051 30.75,25.5 C30.75,28.3994949 28.3994949,30.75 25.5,30.75 C22.6005051,30.75 20.25,28.3994949 20.25,25.5 C20.25,22.6005051 22.6005051,20.25 25.5,20.25 Z M25.5,23.75 C24.5335017,23.75 23.75,24.5335017 23.75,25.5 C23.75,26.4664983 24.5335017,27.25 25.5,27.25 C26.4664983,27.25 27.25,26.4664983 27.25,25.5 C27.25,24.5335017 26.4664983,23.75 25.5,23.75 Z"/>
    <filter id="deepin-diskmanager-n" width="109.5%" height="109.5%" x="-4.8%" y="-4.8%" filterUnits="objectBoundingBox">
      <feOffset dy="1" in="SourceAlpha" result="shadowOffsetInner1"/>
      <feComposite in="shadowOffsetInner1" in2="SourceAlpha" k2="-1" k3="1" operator="arithmetic" result="shadowInnerInner1"/>
      <feColorMatrix in="shadowInnerInner1" values="0 0 0 0 1   0 0 0 0 1   0 0 0 0 1  0 0 0 0.5 0"/>
    </filter>
    <linearGradient id="deepin-diskmanager-o" x1="97.247%" x2="6.271%" y1="3.756%" y2="92.217%">
      <stop offset="0%" stop-color="#F7F9FB"/>
      <stop offset="100%" stop-color="#ECF1F6"/>
    </linearGradient>
    <path id="deepin-diskmanager-p" d="M10.0241619,27.0218334 L29.1856727,3.01008168 C29.4595796,2.6887115 29.625,2.27632928 29.625,1.82641103 C29.625,0.819451118 28.7951209,0 27.7725696,0 C27.3169259,0 26.8992959,0.16077079 26.5764398,0.433806898 L2.25652128,19.3545407 C0.886812864,20.353445 0,21.9577249 0,23.7652822 C0,26.79696 2.48703361,29.25 5.55451392,29.25 C7.38802426,29.25 9.012546,28.3743305 10.0241619,27.0218334 Z"/>
    <filter id="deepin-diskmanager-q" width="103.4%" height="103.4%" x="-1.7%" y="-1.7%" filterUnits="objectBoundingBox">
      <feOffset dy="1" in="SourceAlpha" result="shadowOffsetInner1"/>
      <feComposite in="shadowOffsetInner1" in2="SourceAlpha" k2="-1" k3="1" operator="arithmetic" result="shadowInnerInner1"/>
      <feColorMatrix in="shadowInnerInner1" values="0 0 0 0 1   0 0 0 0 1   0 0 0 0 1  0 0 0 0.942198427 0"/>
    </filter>
  </defs>
  <g fill="none" fill-rule="evenodd" filter="url(#deepin-diskmanager-a)" transform="translate(14 8)">
    <path fill="#004675" d="M2.25,1 L65.75,1 C66.9926407,1 68,2.00735931 68,3.25 L68,78.75 C68,79.9926407 66.9926407,81 65.75,81 L2.25,81 C1.00735931,81 1.52179594e-16,79.9926407 0,78.75 L0,3.25 C-1.52179594e-16,2.00735931 1.00735931,1 2.25,1 Z"/>
    <use fill="#D8F0FF" xlink:href="#deepin-diskmanager-b"/>
    <use fill="#000" filter="url(#deepin-diskmanager-c)" xlink:href="#deepin-diskmanager-b"/>
    <use fill="#000" filter="url(#deepin-diskmanager-d)" xlink:href="#deepin-diskmanager-e"/>
    <use fill="#006FBF" xlink:href="#deepin-diskmanager-e"/>
    <use fill="#000" filter="url(#deepin-diskmanager-f)" xlink:href="#deepin-diskmanager-e"/>
    <path fill="#1F8AFF" d="M7.77745816,52 C12.2104071,57.2932759 16.0362884,60.7526298 19.255102,62.3780617 C23.7764599,64.6612504 29.6914259,66.0925137 37,66.6718516 L37,80 L2.25,80 C1.00735931,80 1.52179594e-16,78.9926407 0,77.75 L0,52 L0,52 L7.77745816,52 Z"/>
    <use fill="#000" filter="url(#deepin-diskmanager-g)" xlink:href="#deepin-diskmanager-h"/>
    <use fill="#006FBF" xlink:href="#deepin-diskmanager-h"/>
    <g transform="matrix(-1 0 0 1 5.002 0)">
      <use fill="#000" filter="url(#deepin-diskmanager-i)" xlink:href="#deepin-diskmanager-j"/>
      <use fill="#006FBF" xlink:href="#deepin-diskmanager-j"/>
    </g>
    <use fill="#000" filter="url(#deepin-diskmanager-k)" xlink:href="#deepin-diskmanager-l"/>
    <use fill="#006FBF" xlink:href="#deepin-diskmanager-l"/>
    <g transform="translate(8.5 4.375)">
      <circle cx="25.5" cy="25.5" r="25.5" fill="#0093F6"/>
      <g transform="translate(3.75 3.75)">
        <circle cx="21.75" cy="21.75" r="21.75" fill="#004675"/>
        <path fill="#FFF" fill-opacity=".198" fill-rule="nonzero" d="M21.1311231,22.9690357 L42.2832508,28.9406864 C41.0266073,32.5292974 38.8557884,35.6883358 36.0500365,38.1385593 L21.1311231,22.9690357 Z M5.60232539,7.17869954 L21.1311231,22.9690357 L0.489158332,17.1416785 C1.30460096,13.3617176 3.10250397,9.94721062 5.60232539,7.17869954 Z"/>
      </g>
      <circle cx="8.625" cy="8.625" r="8.625" fill="#003050" transform="translate(16.875 16.875)"/>
      <use fill="#D9D9D9" xlink:href="#deepin-diskmanager-m"/>
      <use fill="#000" filter="url(#deepin-diskmanager-n)" xlink:href="#deepin-diskmanager-m"/>
    </g>
    <g transform="translate(10.75 42.25)">
      <path fill="#000" fill-opacity=".296" fill-rule="nonzero" d="M10.364738,28.1209545 L29.5262489,4.10920277 C29.8001558,3.7878326 29.9655762,3.37545037 29.9655762,2.92553212 C29.9655762,1.91857221 29.1356971,1.09912109 28.1131457,1.09912109 C27.6575021,1.09912109 27.2398721,1.25989188 26.9170159,1.53292799 L2.59709745,20.4536618 C1.22738904,21.4525661 0.340576172,23.056846 0.340576172,24.8644033 C0.340576172,27.8960811 2.82760978,30.3491211 5.89509009,30.3491211 C7.72860043,30.3491211 9.35312217,29.4734516 10.364738,28.1209545 Z"/>
      <g fill-rule="nonzero">
        <use fill="url(#deepin-diskmanager-o)" xlink:href="#deepin-diskmanager-p"/>
        <use fill="#000" filter="url(#deepin-diskmanager-q)" xlink:href="#deepin-diskmanager-p"/>
      </g>
      <circle cx="5.25" cy="24" r="3.375" fill="#0093F6"/>
    </g>
  </g>
</svg>
