<svg xmlns="http://www.w3.org/2000/svg" xmlns:xlink="http://www.w3.org/1999/xlink" width="96" height="96" viewBox="0 0 96 96">
  <defs>
    <filter id="deepin-defender-a" width="128.6%" height="128.6%" x="-14.3%" y="-14.3%" filterUnits="objectBoundingBox">
      <feOffset dy="2" in="SourceAlpha" result="shadowOffsetOuter1"/>
      <feGaussianBlur in="shadowOffsetOuter1" result="shadowBlurOuter1" stdDeviation="2"/>
      <feColorMatrix in="shadowBlurOuter1" result="shadowMatrixOuter1" values="0 0 0 0 0   0 0 0 0 0   0 0 0 0 0  0 0 0 0.2 0"/>
      <feMerge>
        <feMergeNode in="shadowMatrixOuter1"/>
        <feMergeNode in="SourceGraphic"/>
      </feMerge>
    </filter>
    <path id="deepin-defender-c" d="M49.157858,8.12507092 C49.0607025,7.40215978 48.5652172,6.79324196 47.8732547,6.5460976 L26.0244086,0.233542988 C25.0820559,-0.0990565398 24.1845505,-0.0558917454 23.4503081,0.233542988 L1.60138179,6.54609755 C0.909098406,6.79324191 0.413934045,7.40223924 0.316778476,8.12507087 C0.267919882,8.48867274 -0.853099464,17.1462765 1.43876057,27.040715 C2.80070322,32.9201112 5.09224232,38.0107759 8.25023878,42.1714497 C12.159165,47.3214163 17.3845448,51.0268326 23.7852581,53.1918297 C24.3158028,53.4048715 24.8958479,53.5023302 25.6889773,53.1918297 C32.0896905,51.026912 37.3154715,47.3214163 41.2243977,42.1714497 C44.3820732,38.0107759 46.6739332,32.9201112 48.0358759,27.040715 C50.3278162,17.1462766 49.2064759,8.48867279 49.157858,8.12507092 L49.157858,8.12507092 Z"/>
    <filter id="deepin-defender-b" width="102%" height="103.7%" x="-1%" y="-.9%" filterUnits="objectBoundingBox">
      <feOffset dy="1" in="SourceAlpha" result="shadowOffsetOuter1"/>
      <feColorMatrix in="shadowOffsetOuter1" values="0 0 0 0 0   0 0 0 0 0   0 0 0 0 0  0 0 0 0.102381993 0"/>
    </filter>
    <filter id="deepin-defender-d" width="102%" height="103.7%" x="-1%" y="-.9%" filterUnits="objectBoundingBox">
      <feOffset dy="1" in="SourceAlpha" result="shadowOffsetInner1"/>
      <feComposite in="shadowOffsetInner1" in2="SourceAlpha" k2="-1" k3="1" operator="arithmetic" result="shadowInnerInner1"/>
      <feColorMatrix in="shadowInnerInner1" values="0 0 0 0 1   0 0 0 0 1   0 0 0 0 1  0 0 0 0.5 0"/>
    </filter>
    <path id="deepin-defender-f" d="M19.9204871,13.0551678 C20.3229835,11.5763207 21.9329688,10.5 23.4087888,10.5 L27.4337523,10.5 C28.9095722,10.5 29.5803995,11.5763207 29.0437377,12.9209923 L25.649992,20.9191063 L31.4191063,20.9191063 C34.3707462,20.9191063 35.1757389,22.8033967 33.2974226,24.956038 L20.7283964,39.6919165 C19.7892383,40.7682372 19.2525765,40.6340617 19.6550729,39.1552146 L22.3509245,27.6009245 L17.6551338,27.6009245 C16.1793138,27.6009245 15.3743211,26.5246038 15.7768175,25.0457567 L19.9204871,13.0551678 Z"/>
    <filter id="deepin-defender-e" width="105.4%" height="106.7%" x="-2.7%" y="-1.7%" filterUnits="objectBoundingBox">
      <feOffset dy="1" in="SourceAlpha" result="shadowOffsetOuter1"/>
      <feColorMatrix in="shadowOffsetOuter1" values="0 0 0 0 0   0 0 0 0 0   0 0 0 0 0  0 0 0 0.102190778 0"/>
    </filter>
  </defs>
  <g fill="none" fill-rule="evenodd" filter="url(#deepin-defender-a)" transform="translate(6 6)">
    <rect width="84" height="84" fill="#0081FF" rx="42"/>
    <path fill="#DBF0FC" fill-rule="nonzero" d="M42,0 C65.1959595,0 84,18.8040405 84,42 C84,65.1959595 65.1959595,84 42,84 C18.8040405,84 0,65.1959595 0,42 C0,18.8040405 18.8040405,0 42,0 Z M42,4 C21.0131795,4 4,21.0131795 4,42 C4,62.9868205 21.0131795,80 42,80 C62.9868205,80 80,62.9868205 80,42 C80,21.0131795 62.9868205,4 42,4 Z"/>
    <g transform="translate(3.818 3.818)">
      <circle cx="38.182" cy="38.182" r="21.955" stroke="#7DF3FF" opacity=".3"/>
      <path fill="#C7E4F4" fill-rule="nonzero" d="M38.6590909,9.04545455 C22.8311121,9.04545455 10,21.8765666 10,37.7045455 C10,53.5325243 22.8311121,66.3636364 38.6590909,66.3636364 C54.4870698,66.3636364 67.3181818,53.5325243 67.3181818,37.7045455 C67.3181818,21.8765666 54.4870698,9.04545455 38.6590909,9.04545455 Z M38.6590909,10.0454545 C53.934785,10.0454545 66.3181818,22.4288514 66.3181818,37.7045455 C66.3181818,52.9802396 53.934785,65.3636364 38.6590909,65.3636364 C23.3833968,65.3636364 11,52.9802396 11,37.7045455 C11,22.4288514 23.3833968,10.0454545 38.6590909,10.0454545 Z" opacity=".201"/>
      <path fill="#C7E4F4" fill-rule="nonzero" d="M38.1818182,2.86363636 C57.1603305,2.86363636 72.5454545,18.4624427 72.5454545,37.7045455 C72.5454545,56.9466482 57.1603305,72.5454545 38.1818182,72.5454545 C19.2033059,72.5454545 3.81818182,56.9466482 3.81818182,37.7045455 C3.81818182,18.4624427 19.2033059,2.86363636 38.1818182,2.86363636 Z M38.1818182,3.86363636 C19.7587017,3.86363636 4.81818182,19.0116635 4.81818182,37.7045455 C4.81818182,56.3974274 19.7587017,71.5454545 38.1818182,71.5454545 C56.6049347,71.5454545 71.5454545,56.3974274 71.5454545,37.7045455 C71.5454545,19.0116635 56.6049347,3.86363636 38.1818182,3.86363636 Z" opacity=".201"/>
      <path fill="#C7E4F4" fill-rule="nonzero" d="M38.1818182,0 L38.1808678,37.2271405 L39.1408678,37.2271405 L65.1834231,11.1861783 C65.4085942,11.4113989 65.6309651,11.6394191 65.8504791,11.8701823 L40.4908678,37.2271405 L76.3519341,37.2271329 C76.3597205,37.5444165 76.3636364,37.86266 76.3636364,38.1818182 L76.3636364,38.1818182 L39.5368678,38.1811405 L38.8932453,38.8251451 L65.2141411,65.1466986 C64.9893752,65.3720231 64.7618102,65.5945543 64.5315028,65.8142355 L38.2186655,39.499725 L38.1798678,39.5371405 L38.1818182,76.3636364 C37.86266,76.3636364 37.5444165,76.3597205 37.2271329,76.3519341 L37.2258678,40.4911405 L11.8691804,65.8495259 C11.6387591,65.6303214 11.4110729,65.4082683 11.1861783,65.1834231 L37.2258678,39.1431405 L37.2258678,38.5071405 L36.8998678,38.1811405 L0,38.1818182 C0,37.86266 0.00391589555,37.5444165 0.0117022617,37.2271329 L35.9458678,37.2271405 L10.5494009,11.8321335 C10.7691084,11.6017986 10.9916666,11.3742067 11.2170188,11.1494145 L37.2258678,37.1581405 L37.2271329,0.0117022617 C37.5444165,0.00391589555 37.86266,0 38.1818182,0 L38.1818182,0 Z" opacity=".201"/>
    </g>
    <g transform="translate(17.263 17.263)">
      <use fill="#000" filter="url(#deepin-defender-b)" xlink:href="#deepin-defender-c"/>
      <use fill="#DBF0FC" xlink:href="#deepin-defender-c"/>
      <use fill="#000" filter="url(#deepin-defender-d)" xlink:href="#deepin-defender-c"/>
      <g fill-rule="nonzero">
        <use fill="#000" filter="url(#deepin-defender-e)" xlink:href="#deepin-defender-f"/>
        <use fill="#1284FE" xlink:href="#deepin-defender-f"/>
      </g>
    </g>
  </g>
</svg>
