<svg xmlns="http://www.w3.org/2000/svg" width="96" height="96" viewBox="0 0 96 96">
  <defs>
    <filter id="96-a" width="127.3%" height="127.3%" x="-13.6%" y="-13.6%" filterUnits="objectBoundingBox">
      <feOffset dy="2" in="SourceAlpha" result="shadowOffsetOuter1"/>
      <feGaussianBlur in="shadowOffsetOuter1" result="shadowBlurOuter1" stdDeviation="2"/>
      <feColorMatrix in="shadowBlurOuter1" result="shadowMatrixOuter1" values="0 0 0 0 0   0 0 0 0 0   0 0 0 0 0  0 0 0 0.2 0"/>
      <feMerge>
        <feMergeNode in="shadowMatrixOuter1"/>
        <feMergeNode in="SourceGraphic"/>
      </feMerge>
    </filter>
    <linearGradient id="96-b" x1="50%" x2="50%" y1="0%" y2="100%">
      <stop offset="0%" stop-color="#55B462"/>
      <stop offset="100%" stop-color="#006A5A"/>
    </linearGradient>
  </defs>
  <g fill="none" fill-rule="evenodd" filter="url(#96-a)" transform="translate(4 4)">
    <path fill="#168C4E" stroke="url(#96-b)" d="M44,0.5 C56.0121933,0.5 66.8871933,5.36890335 74.759145,13.240855 C82.6310967,21.1128067 87.5,31.9878067 87.5,44 C87.5,56.0121933 82.6310967,66.8871933 74.759145,74.759145 C66.8871933,82.6310967 56.0121933,87.5 44,87.5 C37.1508736,87.5 30.6714022,85.9172508 24.9075684,83.0972355 L24.9075684,83.0972355 L9.41574728,85.1995721 C9.20100081,85.2287248 8.98248736,85.2109986 8.77524774,85.1476135 C8.39859039,85.0324114 8.10021701,84.7824223 7.91692383,84.4666681 C7.73501627,84.1533008 7.66619518,83.7751864 7.74694703,83.399835 L7.74694703,83.399835 L11.0905226,72.4478137 C4.49183627,64.8210321 0.5,54.8766748 0.5,44 C0.5,31.9878067 5.36890335,21.1128067 13.240855,13.240855 C21.1128067,5.36890335 31.9878067,0.5 44,0.5 Z"/>
    <path fill="#056E5B" fill-rule="nonzero" d="M44,18 C57.1222857,18 67.7848457,28.3413388 67.9967847,41.1772867 L68,41.5670103 L68,55 L67.0558201,55.0002236 C65.3778416,60.6904482 61.5744173,65.4941194 56.5448877,68.528122 C56.5564134,68.6520121 56.5625,68.7784364 56.5625,68.90625 C56.5625,71.1326479 54.7156746,72.9375 52.4375,72.9375 C50.1593254,72.9375 48.3125,71.1326479 48.3125,68.90625 C48.3125,66.6798521 50.1593254,64.875 52.4375,64.875 C53.6205416,64.875 54.6872631,65.3617071 55.439447,66.1414088 C59.7811877,63.4325268 63.0583374,59.2260795 64.5182591,54.2626084 C63.6544379,53.6229218 63.075874,52.6201548 63.0069279,51.4798319 L63,51.25 L63,43.75 C63,42.1876761 63.9554031,40.8484986 65.3138265,40.2848503 C64.6411908,29.3018073 55.3557191,20.5979381 44,20.5979381 C32.6442809,20.5979381 23.3588092,29.3018073 22.6848457,40.2862971 C24.0445969,40.8484986 25,42.1876761 25,43.75 L25,51.25 C25,53.3210678 23.3210678,55 21.25,55 L20,55 L20,41.5670103 C20,28.5513099 30.745166,18 44,18 Z M41.1439856,57.3152634 C41.4877116,57.0841243 41.9537319,57.1753939 42.184871,57.51912 C42.7841314,58.4102775 43.5306042,58.797276 44.5104584,58.7399516 C45.5153125,58.6811646 46.1792517,58.2985296 46.5929818,57.5680253 L46.5929818,57.5680253 L46.613516,57.5338787 C46.8265365,57.1997733 47.2663972,57.0874879 47.6151927,57.2850326 C47.9756147,57.489162 48.1023149,57.9468214 47.8981855,58.3072435 C47.2234851,59.4985311 46.0932091,60.1499207 44.5980631,60.2373912 C43.0779174,60.3263242 41.829883,59.6792981 40.940129,58.3561488 C40.7089899,58.0124228 40.8002595,57.5464025 41.1439856,57.3152634 Z M70.25,40 C72.3210678,40 74,41.6789322 74,43.75 L74,51.25 C74,53.3210678 72.3210678,55 70.25,55 L69,55 L69,40 L70.25,40 Z M19,40 L19,55 L17.75,55 C15.7457408,55 14.1087263,53.4276389 14.005198,51.4491586 L14,51.25 L14,43.75 C14,41.7457408 15.5723611,40.1087263 17.5508414,40.005198 L17.75,40 L19,40 Z M35.9375,45.9375 C36.7659271,45.9375 37.4375,47.0707792 37.4375,48.46875 C37.4375,49.8667208 36.7659271,51 35.9375,51 C35.1090729,51 34.4375,49.8667208 34.4375,48.46875 C34.4375,47.0707792 35.1090729,45.9375 35.9375,45.9375 Z M52.4375,45.9375 C53.2659271,45.9375 53.9375,47.0707792 53.9375,48.46875 C53.9375,49.8667208 53.2659271,51 52.4375,51 C51.6090729,51 50.9375,49.8667208 50.9375,48.46875 C50.9375,47.0707792 51.6090729,45.9375 52.4375,45.9375 Z M44.000392,23 C53.941301,23 62,31.0090007 62,40.8886038 L61.9995283,43.8764971 C53.5669224,44.8144259 39.9480174,40.3015618 38.0587738,34.0284111 C36.8634819,37.2753938 29.4327562,42.1577929 26,42.9921038 L26.000784,40.8886038 C26.000784,31.0090007 34.059483,23 44.000392,23 Z"/>
    <path fill="#FFF" fill-rule="nonzero" d="M44,17 C57.1222857,17 67.7848457,27.3413388 67.9967847,40.1772867 L68,40.5670103 L68,54 L67.0558201,54.0002236 C65.3778416,59.6904482 61.5744173,64.4941194 56.5448877,67.528122 C56.5564134,67.6520121 56.5625,67.7784364 56.5625,67.90625 C56.5625,70.1326479 54.7156746,71.9375 52.4375,71.9375 C50.1593254,71.9375 48.3125,70.1326479 48.3125,67.90625 C48.3125,65.6798521 50.1593254,63.875 52.4375,63.875 C53.6205416,63.875 54.6872631,64.3617071 55.439447,65.1414088 C59.7811877,62.4325268 63.0583374,58.2260795 64.5182591,53.2626084 C63.6544379,52.6229218 63.075874,51.6201548 63.0069279,50.4798319 L63,50.25 L63,42.75 C63,41.1876761 63.9554031,39.8484986 65.3138265,39.2848503 C64.6411908,28.3018073 55.3557191,19.5979381 44,19.5979381 C32.6442809,19.5979381 23.3588092,28.3018073 22.6848457,39.2862971 C24.0445969,39.8484986 25,41.1876761 25,42.75 L25,50.25 C25,52.3210678 23.3210678,54 21.25,54 L20,54 L20,40.5670103 C20,27.5513099 30.745166,17 44,17 Z M41.1439856,56.3152634 C41.4877116,56.0841243 41.9537319,56.1753939 42.184871,56.51912 C42.7841314,57.4102775 43.5306042,57.797276 44.5104584,57.7399516 C45.5153125,57.6811646 46.1792517,57.2985296 46.5929818,56.5680253 L46.5929818,56.5680253 L46.613516,56.5338787 C46.8265365,56.1997733 47.2663972,56.0874879 47.6151927,56.2850326 C47.9756147,56.489162 48.1023149,56.9468214 47.8981855,57.3072435 C47.2234851,58.4985311 46.0932091,59.1499207 44.5980631,59.2373912 C43.0779174,59.3263242 41.829883,58.6792981 40.940129,57.3561488 C40.7089899,57.0124228 40.8002595,56.5464025 41.1439856,56.3152634 Z M70.25,39 C72.3210678,39 74,40.6789322 74,42.75 L74,50.25 C74,52.3210678 72.3210678,54 70.25,54 L69,54 L69,39 L70.25,39 Z M19,39 L19,54 L17.75,54 C15.7457408,54 14.1087263,52.4276389 14.005198,50.4491586 L14,50.25 L14,42.75 C14,40.7457408 15.5723611,39.1087263 17.5508414,39.005198 L17.75,39 L19,39 Z M35.9375,44.9375 C36.7659271,44.9375 37.4375,46.0707792 37.4375,47.46875 C37.4375,48.8667208 36.7659271,50 35.9375,50 C35.1090729,50 34.4375,48.8667208 34.4375,47.46875 C34.4375,46.0707792 35.1090729,44.9375 35.9375,44.9375 Z M52.4375,44.9375 C53.2659271,44.9375 53.9375,46.0707792 53.9375,47.46875 C53.9375,48.8667208 53.2659271,50 52.4375,50 C51.6090729,50 50.9375,48.8667208 50.9375,47.46875 C50.9375,46.0707792 51.6090729,44.9375 52.4375,44.9375 Z M44.000392,22 C53.941301,22 62,30.0090007 62,39.8886038 L61.9995283,42.8764971 C53.5669224,43.8144259 39.9480174,39.3015618 38.0587738,33.0284111 C36.8634819,36.2753938 29.4327562,41.1577929 26,41.9921038 L26.000784,39.8886038 C26.000784,30.0090007 34.059483,22 44.000392,22 Z"/>
  </g>
</svg>
