<svg xmlns="http://www.w3.org/2000/svg" width="96" height="96" viewBox="0 0 96 96">
  <defs>
    <filter id="uos-installtool-a" width="127.9%" height="129.2%" x="-14%" y="-14.6%" filterUnits="objectBoundingBox">
      <feOffset dy="2" in="SourceAlpha" result="shadowOffsetOuter1"/>
      <feGaussianBlur in="shadowOffsetOuter1" result="shadowBlurOuter1" stdDeviation="2"/>
      <feColorMatrix in="shadowBlurOuter1" result="shadowMatrixOuter1" values="0 0 0 0 0   0 0 0 0 0   0 0 0 0 0  0 0 0 0.2 0"/>
      <feMerge>
        <feMergeNode in="shadowMatrixOuter1"/>
        <feMergeNode in="SourceGraphic"/>
      </feMerge>
    </filter>
    <linearGradient id="uos-installtool-b" x1="50%" x2="50%" y1="25.076%" y2="100%">
      <stop offset="0%" stop-color="#FFF"/>
      <stop offset="100%" stop-color="#FFF" stop-opacity=".558"/>
    </linearGradient>
    <linearGradient id="uos-installtool-c" x1="50%" x2="50%" y1=".694%" y2="100%">
      <stop offset="0%" stop-color="#FFF"/>
      <stop offset="100%" stop-color="#BFBFBF"/>
    </linearGradient>
  </defs>
  <g fill="none" filter="url(#uos-installtool-a)" transform="translate(5 6.75)">
    <path fill="#FFF" d="M52.0532245,1.30507545 C34.9606191,-3.69368038 17.0557117,6.10629983 12.0549152,23.1988198 C7.0561344,40.2893243 16.8581792,58.1961574 33.9507846,63.1949134 C51.0393588,68.1936694 68.9482971,58.393689 73.9450626,41.3031848 C78.9438434,24.2086491 69.1417986,6.3038313 52.0532245,1.30507545 L52.0532245,1.30507545 Z"/>
    <circle cx="43" cy="32.25" r="28.875" fill="#33C9ED"/>
    <path fill="url(#uos-installtool-b)" d="M33.6292,9 C34.6615927,9 35.4985123,9.83691962 35.4985123,10.8693123 L35.4985123,20.7957344 C35.4985123,24.9471294 38.8638829,28.3125 43.0152779,28.3125 C47.1666729,28.3125 50.5320435,24.9471294 50.5320435,20.7957344 L50.5320435,10.875 C50.5320435,9.83946609 51.3715096,9 52.4070435,9 C53.4425774,9 54.2820435,9.83946609 54.2820435,10.875 L54.2820435,20.9889221 C54.2820435,27.2082437 49.2402872,32.25 43.0209656,32.25 C36.801644,32.25 31.7598877,27.2082437 31.7598877,20.9889221 L31.7598877,10.8693123 C31.7598877,9.83691962 32.5968073,9 33.6292,9 Z"/>
    <rect width="72" height="53" x="7" y="29.25" fill="#000" fill-opacity=".166" rx="2"/>
    <path fill="#E1E1E1" d="M9,29.25 L77,29.25 C78.1045695,29.25 79,30.1454305 79,31.25 L79,79.25 C79,80.3545695 78.1045695,81.25 77,81.25 L9,81.25 C7.8954305,81.25 7,80.3545695 7,79.25 L7,31.25 C7,30.1454305 7.8954305,29.25 9,29.25 Z"/>
    <path fill="#5B7487" d="M38,51.25 L48,51.25 C48.5522847,51.25 49,51.6977153 49,52.25 L49,61.25 L49,61.25 L53.7979737,61.25 C54.3502584,61.25 54.7979737,61.6977153 54.7979737,62.25 C54.7979737,62.4920182 54.7102038,62.7258244 54.5509422,62.9080565 L44.5059371,74.4018605 C43.7790679,75.2335666 42.515593,75.3185537 41.6838869,74.5916845 C41.6164323,74.5327326 41.5530149,74.4693151 41.4940629,74.4018605 L31.4490578,62.9080565 C31.0856232,62.4922035 31.1281168,61.8604661 31.5439698,61.4970315 C31.7262019,61.3377698 31.9600081,61.25 32.2020263,61.25 L37,61.25 L37,61.25 L37,52.25 C37,51.6977153 37.4477153,51.25 38,51.25 Z"/>
    <path fill="url(#uos-installtool-c)" d="M85.8185499,44.193941 C86.3272382,45.329471 85.7307214,46.25 84.4747999,46.25 L1.52668672,46.25 C0.27586594,46.25 -0.328294088,45.3326307 0.180410576,44.193941 L6.38476024,30.3060591 C6.89205326,29.170529 8.31256432,28.25 9.5686751,28.25 L76.4106974,28.25 C77.6618321,28.25 79.0870349,29.1673691 79.5971383,30.3060591 L85.8185499,44.193941 Z"/>
    <path fill="#F2F2F2" d="M77.6771909,29.25 C78.5027597,29.25 79.4454804,29.8476683 79.7801083,30.5792081 L85.8804902,43.9154276 C86.2163305,44.6496179 85.8199448,45.2448371 84.9972433,45.2448873 L1.0034763,45.25 C0.1798322,45.25 -0.215190907,44.6523547 0.118467501,43.9209288 L6.20117366,30.5867817 C6.53604088,29.8527057 7.47767626,29.2575475 8.30232944,29.2574588 L77.6771909,29.25 Z"/>
  </g>
</svg>
