<?xml version="1.0" encoding="UTF-8" standalone="no"?>
<svg width="48px" height="48px" viewBox="0 0 48 48" version="1.1" xmlns="http://www.w3.org/2000/svg" xmlns:xlink="http://www.w3.org/1999/xlink">
    <!-- Generator: Sketch 3.6.1 (26313) - http://www.bohemiancoding.com/sketch -->
    <title>Artboard 1</title>
    <desc>Created with Sketch.</desc>
    <defs>
        <filter x="-50%" y="-50%" width="200%" height="200%" filterUnits="objectBoundingBox" id="filter-1">
            <feOffset dx="0" dy="1" in="SourceAlpha" result="shadowOffsetOuter1"></feOffset>
            <feGaussianBlur stdDeviation="0.5" in="shadowOffsetOuter1" result="shadowBlurOuter1"></feGaussianBlur>
            <feColorMatrix values="0 0 0 0 0   0 0 0 0 0   0 0 0 0 0  0 0 0 0.21 0" in="shadowBlurOuter1" type="matrix" result="shadowMatrixOuter1"></feColorMatrix>
            <feMerge>
                <feMergeNode in="shadowMatrixOuter1"></feMergeNode>
                <feMergeNode in="SourceGraphic"></feMergeNode>
            </feMerge>
        </filter>
    </defs>
    <g id="Page-1" stroke="none" stroke-width="1" fill="none" fill-rule="evenodd">
        <g id="Artboard-1">
            <path d="M42,43 L6,43 C5.448,43 5,42.552 5,42 L5,6 C5,5.448 5.448,5 6,5 L42,5 C42.552,5 43,5.448 43,6 L43,42 C43,42.552 42.552,43 42,43" id="Fill-7" fill="#019CF0" filter="url(#filter-1)"></path>
            <path d="M23.031,10.0395982 C21.502,9.81259821 20.146,10.5835982 19.465,11.7875982 C17.525,14.2065982 15.675,15.2515982 14.456,15.6875982 C13.573,16.0035982 13,16.8515982 13,17.7885982 L13,17.7885982 C13,19.0025982 13.984,19.9855982 15.197,19.9855982 L18.966,19.9855982 C18.985,19.9855982 19,20.0015982 19,20.0195982 L19,34.2715982 C19,36.1845982 20.431,37.9125982 22.341,37.9965982 C24.346,38.0845982 26,36.4855982 26,34.4995982 L26,13.6655982 C26,11.9045982 24.773,10.2975982 23.031,10.0395982" id="Fill-10" fill="#FFFFFF"></path>
            <path d="M29,34 C29,36.209 30.791,38 33,38 C35.209,38 37,36.209 37,34 C37,31.791 35.209,30 33,30 C30.791,30 29,31.791 29,34 Z" id="Fill-12" fill="#FFFFFF"></path>
        </g>
    </g>
</svg>