<?xml version="1.0" encoding="UTF-8" standalone="no"?>
<svg width="48px" height="48px" viewBox="0 0 48 48" version="1.1" xmlns="http://www.w3.org/2000/svg" xmlns:xlink="http://www.w3.org/1999/xlink">
    <!-- Generator: Sketch 3.6.1 (26313) - http://www.bohemiancoding.com/sketch -->
    <title>AntennaPod</title>
    <desc>Created with Sketch.</desc>
    <defs>
        <filter x="-50%" y="-50%" width="200%" height="200%" filterUnits="objectBoundingBox" id="filter-1">
            <feOffset dx="0" dy="1" in="SourceAlpha" result="shadowOffsetOuter1"></feOffset>
            <feGaussianBlur stdDeviation="0.5" in="shadowOffsetOuter1" result="shadowBlurOuter1"></feGaussianBlur>
            <feColorMatrix values="0 0 0 0 0   0 0 0 0 0   0 0 0 0 0  0 0 0 0.21 0" in="shadowBlurOuter1" type="matrix" result="shadowMatrixOuter1"></feColorMatrix>
            <feMerge>
                <feMergeNode in="shadowMatrixOuter1"></feMergeNode>
                <feMergeNode in="SourceGraphic"></feMergeNode>
            </feMerge>
        </filter>
    </defs>
    <g id="Page-1" stroke="none" stroke-width="1" fill="none" fill-rule="evenodd">
        <g id="AntennaPod">
            <circle id="Oval-1" fill="#008BBA" filter="url(#filter-1)" cx="24" cy="24" r="21"></circle>
            <path d="M24.7402253,23.6711695 C25.4928641,23.2403161 26,22.429382 26,21.5 C26,20.1192881 24.8807119,19 23.5,19 C22.1192881,19 21,20.1192881 21,21.5 C21,22.3714348 21.4458673,23.1387318 22.1219197,23.5862087 L13.1767693,41.9133992 L14.6148231,42.6006107 L17.3530873,37.0341033 L31.8215549,41.1115292 L32.7606217,42.9233977 L34.1767693,42.1921084 L24.7402253,23.6711695 Z M28.0241542,33.7846908 L18.2999992,36.5999985 L31.3641093,40.2289176 L28.0241542,33.7846908 Z M27.3931654,32.5672387 L20.7869074,30.0536283 L20.8346816,29.95651 L25.0107261,27.9704766 L27.3931654,32.5672387 Z M24.7485874,27.4646971 L21.2907341,29.0294191 L23.3694349,24.8037118 L24.7485874,27.4646971 Z M20.5335128,30.5687439 L27.6128642,33.2767293 L17.7977608,36.1301444 L20.5335128,30.5687439 Z M29.4067199,22 C29.4067199,18.5566432 26.6823847,15.67722 23.1172505,15.3018136 L23.0113961,16.2139529 C26.089691,16.5380954 28.4433135,19.0257023 28.4433135,22 L29.4067199,22 Z M23.0291472,13.0624053 C27.9242242,13.4038167 31.7399535,17.2977553 31.7399535,22 L32.70336,22 C32.70336,16.8160743 28.4971208,12.5236217 23.0994994,12.1471599 L23.0291472,13.0624053 Z M36,22 C36,15.0786846 30.3147636,9.37680512 23.0906607,9 L23.0379859,9.91632279 C29.7519188,10.2665177 35.0365936,15.5666629 35.0365936,22 L36,22 Z" id="Combined-Shape" fill="#FFFFFF"></path>
        </g>
    </g>
</svg>