<?xml version="1.0" encoding="UTF-8" standalone="no"?>
<svg width="48px" height="48px" viewBox="0 0 48 48" version="1.1" xmlns="http://www.w3.org/2000/svg" xmlns:xlink="http://www.w3.org/1999/xlink">
    <!-- Generator: Sketch 3.7 (28169) - http://www.bohemiancoding.com/sketch -->
    <title>boxes </title>
    <desc>Created with Sketch.</desc>
    <defs>
        <path d="M8.5,10 L39.5,10 L38,8.5 L38,39.5 L39.5,38 L8.5,38 L10,39.5 L10,8.5 L8.5,10 L8.5,10 L8.5,10 L8.5,10 Z M8.5,7 L7,7 L7,8.5 L7,39.5 L7,41 L8.5,41 L39.5,41 L41,41 L41,39.5 L41,8.5 L41,7 L39.5,7 L8.5,7 L8.5,7 L8.5,7 Z M16,17 L32,17 L31,16 L31,32 L32,31 L16,31 L17,32 L17,16 L16,17 L16,17 L16,17 Z M16,15 L15,15 L15,16 L15,32 L15,33 L16,33 L32,33 L33,33 L33,32 L33,16 L33,15 L32,15 L16,15 L16,15 L16,15 Z M7.76720651,8.6804511 L14.2672065,15.6804511 L15.7327935,14.3195489 L9.23279349,7.3195489 L7.76720651,8.6804511 L7.76720651,8.6804511 L7.76720651,8.6804511 Z M39.2672065,7.3195489 L32.7672065,14.3195489 L34.2327935,15.6804511 L40.7327935,8.6804511 L39.2672065,7.3195489 L39.2672065,7.3195489 L39.2672065,7.3195489 Z M9.23279349,40.6804511 L15.7327935,33.6804511 L14.2672065,32.3195489 L7.76720651,39.3195489 L9.23279349,40.6804511 L9.23279349,40.6804511 L9.23279349,40.6804511 Z M38.0968782,36.4808708 L34.8389283,32.9723095 C34.943336,32.6673877 35,32.3403112 35,32 C35,30.3431458 33.6568542,29 32,29 C30.3431458,29 29,30.3431458 29,32 C29,33.6568542 30.3431458,35 32,35 C32.5785271,35 33.1188066,34.8362422 33.5770138,34.5525512 L36.6314854,37.8419822 C36.2318009,38.46457 36,39.205215 36,40 C36,42.209139 37.790861,44 40,44 C42.209139,44 44,42.209139 44,40 C44,37.790861 42.209139,36 40,36 C39.3110711,36 38.6628209,36.1741665 38.0968782,36.4808708 L38.0968782,36.4808708 Z M8,12 C10.209139,12 12,10.209139 12,8 C12,5.790861 10.209139,4 8,4 C5.790861,4 4,5.790861 4,8 C4,10.209139 5.790861,12 8,12 L8,12 Z M16,19 C17.6568542,19 19,17.6568542 19,16 C19,14.3431458 17.6568542,13 16,13 C14.3431458,13 13,14.3431458 13,16 C13,17.6568542 14.3431458,19 16,19 L16,19 Z M32,19 C33.6568542,19 35,17.6568542 35,16 C35,14.3431458 33.6568542,13 32,13 C30.3431458,13 29,14.3431458 29,16 C29,17.6568542 30.3431458,19 32,19 L32,19 Z M16,35 C17.6568542,35 19,33.6568542 19,32 C19,30.3431458 17.6568542,29 16,29 C14.3431458,29 13,30.3431458 13,32 C13,33.6568542 14.3431458,35 16,35 L16,35 Z M40,12 C42.209139,12 44,10.209139 44,8 C44,5.790861 42.209139,4 40,4 C37.790861,4 36,5.790861 36,8 C36,10.209139 37.790861,12 40,12 L40,12 Z M8,44 C10.209139,44 12,42.209139 12,40 C12,37.790861 10.209139,36 8,36 C5.790861,36 4,37.790861 4,40 C4,42.209139 5.790861,44 8,44 L8,44 Z" id="path-1"></path>
        <filter x="-50%" y="-50%" width="200%" height="200%" filterUnits="objectBoundingBox" id="filter-2">
            <feOffset dx="0" dy="1" in="SourceAlpha" result="shadowOffsetOuter1"></feOffset>
            <feGaussianBlur stdDeviation="0.5" in="shadowOffsetOuter1" result="shadowBlurOuter1"></feGaussianBlur>
            <feColorMatrix values="0 0 0 0 0   0 0 0 0 0   0 0 0 0 0  0 0 0 0.3 0" type="matrix" in="shadowBlurOuter1"></feColorMatrix>
        </filter>
    </defs>
    <g id="Page-1" stroke="none" stroke-width="1" fill="none" fill-rule="evenodd">
        <g id="boxes-">
            <g id="Combined-Shape">
                <use fill="black" fill-opacity="1" filter="url(#filter-2)" xlink:href="#path-1"></use>
                <use fill="#979797" fill-rule="evenodd" xlink:href="#path-1"></use>
            </g>
        </g>
    </g>
</svg>