<?xml version="1.0" encoding="UTF-8" standalone="no"?>
<svg width="48px" height="48px" viewBox="0 0 48 48" version="1.1" xmlns="http://www.w3.org/2000/svg" xmlns:xlink="http://www.w3.org/1999/xlink">
    <!-- Generator: Sketch 3.6.1 (26313) - http://www.bohemiancoding.com/sketch -->
    <title>福昕阅读器</title>
    <desc>Created with Sketch.</desc>
    <defs>
        <filter x="-50%" y="-50%" width="200%" height="200%" filterUnits="objectBoundingBox" id="filter-1">
            <feOffset dx="0" dy="1" in="SourceAlpha" result="shadowOffsetOuter1"></feOffset>
            <feGaussianBlur stdDeviation="0.5" in="shadowOffsetOuter1" result="shadowBlurOuter1"></feGaussianBlur>
            <feColorMatrix values="0 0 0 0 0   0 0 0 0 0   0 0 0 0 0  0 0 0 0.21 0" in="shadowBlurOuter1" type="matrix" result="shadowMatrixOuter1"></feColorMatrix>
            <feMerge>
                <feMergeNode in="shadowMatrixOuter1"></feMergeNode>
                <feMergeNode in="SourceGraphic"></feMergeNode>
            </feMerge>
        </filter>
    </defs>
    <g id="Page-1" stroke="none" stroke-width="1" fill="none" fill-rule="evenodd">
        <g id="福昕阅读器">
            <path d="M35,5 L6,5 C5.448,5 5,5.448 5,6 L5,42 C5,42.552 5.448,43 6,43 L42,43 C42.552,43 43,42.552 43,42 L43,13 L35,5 L35,5 L35,5 Z M35,5 L34,5 L34,8 L34,14 L34,13 L35,13 L34,13 L34,14 L43,14 L43,13.5 L43,13 L35,13 L35,5 L35,5 L35,5 Z" id="Combined-Shape" fill="#F68A0D" filter="url(#filter-1)"></path>
            <path d="M16.5123505,16.0917626 L31.0023472,30.2976417 C31.0023472,30.2976417 34.4117582,23.4788197 38.3894043,20.3535263 L25.3199955,7 L16.5123505,16.0917626 Z M15.0917626,18.3647033 L29.8658769,32.0023472 C29.8658769,32.0023472 21.3423494,35.6958757 19.3535263,39.1052867 C19.3535263,39.3894043 6,26.3199955 6,26.3199955 L15.0917626,18.3647033 Z" id="Path-33" fill="#F79B38"></path>
            <path d="M29.7876357,16.6001605 C28.3670478,15.7478078 21.8323435,12.6225145 19.2752853,20.8619244 C17.8546974,27.9648641 25.9748856,26.7422931 27.1113559,25.3217054 C27.1113559,25.3217056 23.8962774,25.6919232 22.8245846,23.1783198 C22.8245845,22.8942024 27.230577,24.2713354 27.7988127,18.8731013 C27.7988127,18.8731012 29.2194012,18.8731011 29.2194006,20.5778068 C29.2194011,20.577807 30.3558704,19.4413364 29.7876358,18.3048662 C29.7876363,18.3048661 33.8123448,24.7784903 27.5146951,28.5330991 C21.2170454,32.2877079 16.1499919,28.2489815 16.1499919,28.2489815 C16.1499919,28.2489815 8.35673122,22.6424733 17.2864622,13.4748673 C25.5038163,6.56708023 30.6399877,11.8091115 32.0605764,13.4748673 C33.4811652,15.140623 33.4811643,17.4525134 33.4811643,17.4525134 C33.4811643,17.4525134 30.0717535,12.3383971 25.8099896,12.9066321 C25.8099895,12.906632 29.2194003,14.0689301 29.7876357,16.6001605 Z" id="Path-35" fill="#FFFFFF"></path>
            <text id="PDF" font-family="Helvetica" font-size="9" font-weight="normal" fill="#FFFFFF">
                <tspan x="15" y="39">PDF</tspan>
            </text>
        </g>
    </g>
</svg>