<?xml version="1.0" encoding="UTF-8" standalone="no"?>
<svg width="48px" height="48px" viewBox="0 0 48 48" version="1.1" xmlns="http://www.w3.org/2000/svg" xmlns:xlink="http://www.w3.org/1999/xlink">
    <!-- Generator: Sketch 3.7.1 (28215) - http://www.bohemiancoding.com/sketch -->
    <title>freecol</title>
    <desc>Created with Sketch.</desc>
    <defs>
        <filter x="-50%" y="-50%" width="200%" height="200%" filterUnits="objectBoundingBox" id="filter-1">
            <feOffset dx="0" dy="1" in="SourceAlpha" result="shadowOffsetOuter1"></feOffset>
            <feGaussianBlur stdDeviation="0.5" in="shadowOffsetOuter1" result="shadowBlurOuter1"></feGaussianBlur>
            <feColorMatrix values="0 0 0 0 0   0 0 0 0 0   0 0 0 0 0  0 0 0 0.2 0" type="matrix" in="shadowBlurOuter1" result="shadowMatrixOuter1"></feColorMatrix>
            <feMerge>
                <feMergeNode in="shadowMatrixOuter1"></feMergeNode>
                <feMergeNode in="SourceGraphic"></feMergeNode>
            </feMerge>
        </filter>
    </defs>
    <g id="Page-1" stroke="none" stroke-width="1" fill="none" fill-rule="evenodd">
        <g id="freecol">
            <g id="Group-3" filter="url(#filter-1)" transform="translate(3.000000, 1.000000)">
                <path d="M33,19 C33,19 33.75,13.75 34,19 C34.25,24.25 34,40 34,40 L33,40 L33,19 Z" id="Rectangle-3" fill="#89501C"></path>
                <path d="M26,4 C26,4 26.7503337,-4.48731813 27,5.00000015 C27.2496663,14.4873184 27,40 27,40 L26,40 L26,4 Z" id="Rectangle-3" fill="#89501C"></path>
                <path d="M26.5,8.5 L33.5,19" id="Path-26" stroke="#89501C" stroke-width="0.3"></path>
                <path d="M15,14 C15,14 15.5548763,7.99999995 16,15 C16.2469435,21.4205303 16,40 16,40 L15,40 L15,14 Z" id="Rectangle-3" fill="#89501C"></path>
                <path d="M27.3239229,26.8868693 C27.3239229,26.8868693 31.8408912,24.3107471 38.8216605,27.2913841 C38.8216605,27.2913841 37.1791265,21.7559151 39.232294,19.2010833 C39.232294,19.2010833 33.6887419,18.3920532 31.4302578,19.2010832 C27.9850044,21.2953346 27.3239229,26.8868693 27.3239229,26.8868693 Z" id="Path-17" fill="#D8D1C9" transform="translate(33.278108, 23.066449) rotate(-7.000000) translate(-33.278108, -23.066449) "></path>
                <path d="M29.0977603,27.4019886 C31.5615614,26.4875965 39.3635974,27.4019886 39.3635974,27.4019886 C39.3635974,27.4019886 38.9529639,33.3455377 40.5954978,37.9174983 C40.5954978,37.9174983 34.0253621,33.3455377 24.5807919,35.6315179 C25.8126924,31.9739495 27.4552263,29.2307729 29.0977603,27.4019886 Z" id="Path-18" fill="#D8D1C9" transform="translate(32.588145, 32.456545) rotate(-7.000000) translate(-32.588145, -32.456545) "></path>
                <path d="M19.0651441,28.5 C19.0651441,28.5 24.6190783,23.25 33.2024311,28.5 C33.2024311,28.5 29.6681094,22.0833333 32.697528,18 C32.697528,18 23.6092719,18 22.0945628,18 C18.289026,20.9311188 19.0651441,28.5 19.0651441,28.5 Z" id="Path-20" fill="#CEBFAF"></path>
                <path d="M21.0392247,27.7117166 C28.6127718,26.1103542 34.1667062,27.7117166 34.1667062,27.7117166 C34.1667062,27.7117166 32.1470933,31.9820162 36.1863182,38.9212531 C36.3580419,39.216268 27.6029651,32.0413252 17,37.8536777 C17,33.5833784 19.0196123,29.8468663 21.0392247,27.7117166 Z" id="Path-19" fill="#CEBFAF"></path>
                <polygon id="Path-27" stroke="#89501C" stroke-width="0.3" points="26.5 9 15.5 37.5 15.5 23.5"></polygon>
                <path d="M10.0000001,24.5023256 C13.0000003,23.372093 22.5000001,24.5023256 22.5000001,24.5023256 C22.5000001,24.5023256 22.0000001,31.8488375 24,37.5 C24,37.5 16,31.8488375 4.5,34.6744186 C6,30.1534886 8,26.7627907 10.0000001,24.5023256 Z" id="Path-18" fill="#D9D1C9"></path>
                <path d="M12,43 C16.0000002,44 24.5,45.5 34,42 L37.4097851,37.3115438 C37.7357511,36.8633405 37.6109898,36.718764 37.1183858,36.9652218 C37.1183858,36.9652218 34.0000006,39 28.5,38.5 C28.5,38.5 28.5000006,39.5 26.5000006,39.5 C24.0000006,39.5 24,38 24,38 C24,38 23.5000003,37.9999998 16.5000002,36.4999999 C10.8599608,35.2914201 7.81665955,34.7320248 5.80091395,34.5602837 C5.31486511,34.5188724 4.88856019,34.5 4.50000003,34.5 C2.50000014,34.5 9.49999995,38.4999999 12,43 Z" id="Path-15" fill="#89501C"></path>
                <path d="M21.0555816,18 C21.0555816,18 25.794261,14 33.1176747,18 C33.1176747,18 30.1021514,13.1111111 32.6868856,10 C32.6868856,10 24.9326828,10 23.6403159,10 C20.3933889,12.2332334 21.0555816,18 21.0555816,18 Z" id="Path-20" fill="#CEBFAF"></path>
                <path d="M8,23.5000002 C8,23.5000002 13.5,20.3157896 22,24 C22,24 20,17.1578947 22.5,14 C22.5,14 15.75,13 13,14 C8.8049532,16.5885951 8,23.5000002 8,23.5000002 Z" id="Path-17" fill="#D9D1C9"></path>
                <path d="M0,33.4444445 C0,33.4444445 4,31.4444446 11.5,34.9444445 C11.5,34.9444445 13,22.9444445 16.5,20.4444445 C16.5,20.4444445 11.5,18.5 7.5,20.4444445 C1.78155868,24.9498831 0,33.4444445 0,33.4444445 Z" id="Path-16" fill="#EDE6DE"></path>
                <circle id="Oval-3" fill="#89501C" cx="26.5" cy="8.5" r="1.5"></circle>
                <circle id="Oval-3" fill="#89501C" cx="15.5" cy="13.5" r="0.5"></circle>
                <polyline id="Path-24" stroke="#89501C" stroke-width="0.3" points="26 8.5 15.5 13.5 11 19.5"></polyline>
                <path d="M26.5,3.5 L26.5,2 C26.5,2 26.0833333,2.83333333 23.5,3 C20.9166667,3.16666667 20,4.91666667 20,4.91666667 C20,4.91666667 22.9166667,4.33333333 24.0833333,4.91666667 C25.25,5.5 26.5,4.91666675 26.5,4.91666675 L27,4.33333333 L26.5,3.5 Z" id="Path-25" fill="#89501C"></path>
                <path d="M29.4700993,42.7508098 C25.5008067,43.4626586 19.172765,44.0165375 12.5,42.5 C12,41.5 11,40.5 11,40.5 C11,40.5 23.5923306,43.8333726 34.5,40.5 C34.1777713,40.8222287 33.8555425,41.3521202 33.6671436,41.688185 C33.6262558,41.7611204 32.044154,42.2891816 29.4700993,42.7508098 Z" id="Path-28" fill="#773E0C"></path>
            </g>
        </g>
    </g>
</svg>