<?xml version="1.0" encoding="UTF-8" standalone="no"?>
<svg width="48px" height="48px" viewBox="0 0 48 48" version="1.1" xmlns="http://www.w3.org/2000/svg" xmlns:xlink="http://www.w3.org/1999/xlink">
    <!-- Generator: Sketch 3.8.3 (29802) - http://www.bohemiancoding.com/sketch -->
    <title>manaplus</title>
    <desc>Created with Sketch.</desc>
    <defs>
        <circle id="path-1" cx="24" cy="24" r="21"></circle>
        <filter x="-50%" y="-50%" width="200%" height="200%" filterUnits="objectBoundingBox" id="filter-2">
            <feOffset dx="0" dy="1" in="SourceAlpha" result="shadowOffsetOuter1"></feOffset>
            <feGaussianBlur stdDeviation="1" in="shadowOffsetOuter1" result="shadowBlurOuter1"></feGaussianBlur>
            <feColorMatrix values="0 0 0 0 0   0 0 0 0 0   0 0 0 0 0  0 0 0 0.2 0" type="matrix" in="shadowBlurOuter1"></feColorMatrix>
        </filter>
    </defs>
    <g id="Page-1" stroke="none" stroke-width="1" fill="none" fill-rule="evenodd">
        <g id="manaplus">
            <g id="Oval-3">
                <use fill="black" fill-opacity="1" filter="url(#filter-2)" xlink:href="#path-1"></use>
                <use fill="#FF6600" fill-rule="evenodd" xlink:href="#path-1"></use>
            </g>
            <g id="Group-3" transform="translate(5.000000, 6.000000)" fill="#FFFFFF">
                <path d="M7.5,24.75 L9,12.2869037 L11.597168,12.2869037 L11.597168,14.6280378 C12.8627993,12.8836546 14.4887596,12.0114761 16.4750977,12.0114761 C18.3911229,12.0114761 19.6962856,12.8836546 20.390625,14.6280378 C21.6210999,12.8760038 23.2206933,12 25.1894531,12 C26.4550845,12 27.4350551,12.3232416 28.1293945,12.9697345 C28.8237339,13.6162274 29.1708984,14.5209213 29.1708984,15.6838434 L27.6708984,24.75 L25.0605469,24.75 L26.5605469,16.039604 C26.5605469,14.6165545 25.9145572,13.9050405 24.6225586,13.9050405 C23.2778253,13.9050405 21.8671949,14.7351402 20.390625,16.3953645 L18.890625,24.75 L16.2802734,24.75 L17.7802734,16.039604 C17.7802734,14.6089037 17.1211003,13.8935644 15.8027344,13.8935644 C14.4931575,13.8935644 13.0913161,14.7274894 11.597168,16.3953645 L10.097168,24.75 L7.5,24.75 Z" id="m" stroke="#FFFFFF"></path>
                <path d="M29.625,4.5 C25.8749994,3.37499995 12.5000002,0.999999995 7.50000022,8.99999958 C2.50000022,16.9999992 3.37499995,27.3750011 8.62500031,30.7500011 C12.3750003,33.3750011 20.9999998,35.2500012 25.125,29.25 C30.3749998,19.8749998 34.875,23.625 34.875,23.625 C34.875,23.625 38.7869682,27.3750005 29.25,32.625 C19.8749998,37.5000012 12.5000002,34.9999983 12.5000002,34.9999983 C12.5000002,34.9999983 -1.00000005,31.5000002 0.749999996,16.8749998 C2.50000004,2.24999928 15.5000002,0.499999996 15.5000002,0.499999996 C15.5000002,0.499999996 23.2500003,-1.12499993 29.625,4.5 Z M28.3920756,29.3968838 C29.1908297,30.3488018 30.9958708,30.1492067 32.4237478,28.9510756 C33.8516248,27.7529446 34.3616297,26.0099855 33.5628756,25.0580675 C32.7641216,24.1061495 30.9590805,24.3057446 29.5312035,25.5038756 C28.1033265,26.7020067 27.5933216,28.4449658 28.3920756,29.3968838 Z" id="Combined-Shape"></path>
                <path d="M29.0838053,8.11006232 L26.0538189,7.73131403 C25.6428039,7.67993716 25.3512597,7.30509452 25.4026365,6.89407957 C25.4540134,6.48306461 25.828856,6.19152034 26.239871,6.24289721 L29.2959699,6.62490958 L29.7575379,3.39393398 C29.8161165,2.98388348 30.1960155,2.69895924 30.606066,2.75753788 C31.0161165,2.81611652 31.3010408,3.19601551 31.2424621,3.60606602 L30.7846158,6.81099031 L33.489856,7.14914533 C33.9008709,7.2005222 34.1924152,7.57536484 34.1410383,7.98637979 C34.0896615,8.39739475 33.7148188,8.68893902 33.3038039,8.63756215 L30.5724511,8.29614305 L30.1174621,11.481066 C30.0588835,11.8911165 29.6789845,12.1760408 29.268934,12.1174621 C28.8588835,12.0588835 28.5739592,11.6789845 28.6325379,11.268934 L29.0838053,8.11006232 Z" id="Combined-Shape"></path>
            </g>
        </g>
    </g>
</svg>