<?xml version="1.0" encoding="UTF-8" standalone="no"?>
<svg width="48px" height="48px" viewBox="0 0 48 48" version="1.1" xmlns="http://www.w3.org/2000/svg" xmlns:xlink="http://www.w3.org/1999/xlink">
    <!-- Generator: Sketch 3.7.2 (28276) - http://www.bohemiancoding.com/sketch -->
    <title>midori</title>
    <desc>Created with Sketch.</desc>
    <defs>
        <filter x="-50%" y="-50%" width="200%" height="200%" filterUnits="objectBoundingBox" id="filter-1">
            <feOffset dx="0" dy="1" in="SourceAlpha" result="shadowOffsetOuter1"></feOffset>
            <feGaussianBlur stdDeviation="0.5" in="shadowOffsetOuter1" result="shadowBlurOuter1"></feGaussianBlur>
            <feColorMatrix values="0 0 0 0 0   0 0 0 0 0   0 0 0 0 0  0 0 0 0.2 0" type="matrix" in="shadowBlurOuter1" result="shadowMatrixOuter1"></feColorMatrix>
            <feMerge>
                <feMergeNode in="shadowMatrixOuter1"></feMergeNode>
                <feMergeNode in="SourceGraphic"></feMergeNode>
            </feMerge>
        </filter>
    </defs>
    <g id="Page-1" stroke="none" stroke-width="1" fill="none" fill-rule="evenodd">
        <g id="midori">
            <g id="Group-6" filter="url(#filter-1)" transform="translate(5.000000, 3.000000)">
                <path d="M5.02173913,15.0652174 C-3.65217401,27.8478261 3.19565217,34.2391304 3.19565217,34.2391304 C3.19565217,34.2391304 5.02173928,36.5217391 8.2173913,35.6086957 C9.13043463,38.8043478 13.6956523,43.826087 20.0869565,39.2608696 C21.9130433,40.6304348 29.2173929,43.3695652 32.8695668,33.326087 C36.5217407,23.2826087 36.5217407,12.7826087 36.5217407,5.93478261 C32.8695668,9.58695652 24.1956522,15.0652174 24.1956522,15.0652174 C24.1956522,15.0652174 17.3478259,19.173913 17.8043478,14.1521739 C20.0869564,5.93478261 36.065219,0.456521739 36.065219,0.456521739 C36.065219,0.456521739 13.6956523,2.2826087 5.02173913,15.0652174 Z" id="Path-39" stroke="#204C00" stroke-linecap="round" stroke-linejoin="round" fill="#C5F199"></path>
                <path d="M6.847826,16.4347826 C-0.913043797,26.9347825 4.76055656,32.869071 4.76055656,32.869071 C4.76055656,32.869071 5.02644576,33.4264734 6.39130424,33.7826087 C5.47826076,30.5869565 7.30434772,23.2826087 9.58695641,23.7391304 C11.8695651,24.1956522 8.67391294,29.2173913 9.2713243,34.0992804 C10.0196232,36.7183271 12.8399283,40.7845922 17.8043477,38.3478261 C14.8627391,36.1469329 17.347826,26.4782609 19.6304347,26.9347826 C21.9130434,27.3913043 18.4146869,32.0114656 20.5434782,37.4347826 C22.1837572,38.664992 27.8478242,40.6304348 31.0434782,31.9565217 C34.2391321,23.2826087 34.2391315,16.6510468 34.2391315,10.4999999 C30.9585732,13.7805582 27.3913037,16.4347825 24.6521732,17.8043477 C21.9130428,19.1739129 15.9782608,21.4565217 15.0652173,16.4347826 C14.6551472,9.13043478 23.6237664,5.02173913 23.6237664,5.02173913 C23.6237664,5.02173913 14.6086958,5.93478275 6.847826,16.4347826 Z" id="Path-39" fill="#74C039"></path>
                <path d="M8.2173913,35.6086957 C8.2173913,35.6086957 6.39130445,31.9565217 9.58695652,24.1956522" id="Path-40" stroke="#204C00" stroke-linecap="round"></path>
                <path d="M20.0869565,39.2608696 C20.0869565,39.2608696 15.978261,35.6086957 19.6304348,27.3913043" id="Path-41" stroke="#204C00" stroke-linecap="round"></path>
            </g>
        </g>
    </g>
</svg>