<?xml version="1.0" encoding="UTF-8" standalone="no"?>
<svg width="48px" height="48px" viewBox="0 0 48 48" version="1.1" xmlns="http://www.w3.org/2000/svg" xmlns:xlink="http://www.w3.org/1999/xlink">
    <!-- Generator: Sketch 3.7.2 (28276) - http://www.bohemiancoding.com/sketch -->
    <title>RetroArch</title>
    <desc>Created with Sketch.</desc>
    <defs>
        <path d="M34,30 L34,20 L32,20 L32,20 L17,20 L17,18.5 L17,20 L14,20 L14,31 L15,31 L15,30 L34,30 L34,30 Z M21,15 L27,15 L27,11 L31,11 L31,7 L37,7 L37,13 L33,13 L33,15 L37,15 L37,19 L39,19 L39,11 L45,11 L45,29 L41,29 L41,33 L37,33 L37,35 L41,35 L41,41 L35,41 L35,37 L31,37 L31,33 L17,33 L17,37 L13,37 L13,41 L7,41 L7,35 L11,35 L11,33 L11,33 L7,33 L7,29 L3,29 L3,11 L9,11 L9,19 L11,19 L11,15 L15,15 L15,13 L11,13 L11,7 L17,7 L17,11 L21,11 L21,15 L21,15 Z" id="path-1"></path>
        <filter x="-50%" y="-50%" width="200%" height="200%" filterUnits="objectBoundingBox" id="filter-2">
            <feOffset dx="0" dy="1" in="SourceAlpha" result="shadowOffsetOuter1"></feOffset>
            <feGaussianBlur stdDeviation="0.5" in="shadowOffsetOuter1" result="shadowBlurOuter1"></feGaussianBlur>
            <feColorMatrix values="0 0 0 0 0   0 0 0 0 0   0 0 0 0 0  0 0 0 0.2 0" type="matrix" in="shadowBlurOuter1"></feColorMatrix>
        </filter>
    </defs>
    <g id="Page-1" stroke="none" stroke-width="1" fill="none" fill-rule="evenodd">
        <g id="RetroArch">
            <g id="Combined-Shape">
                <use fill="black" fill-opacity="1" filter="url(#filter-2)" xlink:href="#path-1"></use>
                <use fill="#D8D8D8" fill-rule="evenodd" xlink:href="#path-1"></use>
            </g>
            <path d="M16,21 L16,20 L20,20 L20,24 L16,24 L16,21 L16,21 L16,21 L16,21 L16,21 Z M28,20 L32,20 L32,17 L32,12 L28,12 L28,16 L22,16 L20,16 L20,12 L16,12 L16,16 L12,16 L12,19 L12,20 L8,20 L8,12 L4,12 L4,22 L4,28 L8,28 L8,32 L12,32 L12,36 L16,36 L16,32 L18.75,32 L30,32 L32,32 L32,36 L36,36 L36,32 L40,32 L40,28 L44,28 L44,23 L44,12 L40,12 L40,20 L36,20 L36,16 L32,16 L32,24 L28,24 L28,20 Z M12,8 L16,8 L16,12 L12,12 L12,8 L12,8 Z M32,8 L36,8 L36,12 L32,12 L32,8 L32,8 Z M8,36 L12,36 L12,40 L8,40 L8,36 L8,36 Z M36,36 L40,36 L40,40 L36,40 L36,36 L36,36 Z" id="Combined-Shape" fill="#000000"></path>
        </g>
    </g>
</svg>