<?xml version="1.0" encoding="UTF-8" standalone="no"?>
<svg width="48px" height="48px" viewBox="0 0 48 48" version="1.1" xmlns="http://www.w3.org/2000/svg" xmlns:xlink="http://www.w3.org/1999/xlink">
    <!-- Generator: Sketch 3.8.3 (29802) - http://www.bohemiancoding.com/sketch -->
    <title>XnSketch</title>
    <desc>Created with Sketch.</desc>
    <defs>
        <filter x="-50%" y="-50%" width="200%" height="200%" filterUnits="objectBoundingBox" id="filter-1">
            <feOffset dx="0" dy="1" in="SourceAlpha" result="shadowOffsetOuter1"></feOffset>
            <feGaussianBlur stdDeviation="1" in="shadowOffsetOuter1" result="shadowBlurOuter1"></feGaussianBlur>
            <feColorMatrix values="0 0 0 0 0   0 0 0 0 0   0 0 0 0 0  0 0 0 0.2 0" type="matrix" in="shadowBlurOuter1" result="shadowMatrixOuter1"></feColorMatrix>
            <feMerge>
                <feMergeNode in="shadowMatrixOuter1"></feMergeNode>
                <feMergeNode in="SourceGraphic"></feMergeNode>
            </feMerge>
        </filter>
    </defs>
    <g id="Page-1" stroke="none" stroke-width="1" fill="none" fill-rule="evenodd">
        <g id="XnSketch">
            <g id="Group" filter="url(#filter-1)" transform="translate(5.000000, 1.000000)">
                <rect id="Rectangle-2" fill="#EFC09C" x="0" y="4" width="38" height="38" rx="1"></rect>
                <circle id="Oval-7" fill="#DD9075" cx="19" cy="23" r="16"></circle>
                <circle id="Oval-7" fill="#DBD7D3" cx="19" cy="23" r="14"></circle>
                <path d="M27,11.5 C13.9999999,9.49999999 9.00000001,19.6870119 12.8817551,26.4929491 C8,23 7.5,14.9999995 7.5,14.9999995 C6.00000001,31.5000004 19.4999997,32.0000003 22.1987651,29.364593 C18.6849619,34.0219928 10.4483391,34.5 11,34.5 C25.9823906,36.0983705 28.9999997,23.5000003 25.284066,19.6870123 C30.0135555,22.7304433 30.5,30.9999995 30.5,30.9999995 C33.5000003,18.9999999 22.5000003,12.4741275 15.7670068,16.6927138 C19.2069806,12.4741275 27,11.5 27,11.5 Z" id="Combined-Shape" fill="#837175"></path>
                <circle id="Oval-9" fill="#554146" cx="19" cy="23" r="5"></circle>
                <g id="Group-2" transform="translate(27.788582, 13.788582) rotate(-315.000000) translate(-27.788582, -13.788582) translate(23.788582, -1.711418)">
                    <rect id="Rectangle-3" fill="#DB6150" x="2.13162821e-14" y="4" width="8" height="18"></rect>
                    <rect id="Rectangle-3" fill="#FA8E63" x="2.13162821e-14" y="4" width="2" height="18"></rect>
                    <polygon id="Path-21" fill="#F4CC8D" points="4.26325641e-14 22 4 30 8 22"></polygon>
                    <polygon id="Path-22" fill="#0F0907" points="3 28 5 28 4 30.5"></polygon>
                    <rect id="Rectangle-3" fill="#AF3A3D" x="6" y="4" width="2" height="18"></rect>
                    <rect id="Rectangle-3" fill="#452523" x="1" y="6.39488462e-14" width="6" height="7"></rect>
                    <rect id="Rectangle-3" fill="#845F59" x="3.90798505e-14" y="-3.90798505e-14" width="2" height="7"></rect>
                    <rect id="Rectangle-3" fill="#391A17" x="6" y="2.48689958e-14" width="2" height="7"></rect>
                    <rect id="Rectangle-6" fill="#F9F8F3" x="2.13162821e-14" y="7" width="8" height="1"></rect>
                </g>
            </g>
        </g>
    </g>
</svg>