<?xml version="1.0" encoding="UTF-8" standalone="no"?>
<!-- Created with Inkscape (http://www.inkscape.org/) -->

<svg
   xmlns:dc="http://purl.org/dc/elements/1.1/"
   xmlns:cc="http://creativecommons.org/ns#"
   xmlns:rdf="http://www.w3.org/1999/02/22-rdf-syntax-ns#"
   xmlns:svg="http://www.w3.org/2000/svg"
   xmlns="http://www.w3.org/2000/svg"
   xmlns:sodipodi="http://sodipodi.sourceforge.net/DTD/sodipodi-0.dtd"
   xmlns:inkscape="http://www.inkscape.org/namespaces/inkscape"
   width="48"
   height="48"
   viewBox="0 0 48 48"
   id="svg2"
   version="1.1"
   inkscape:version="0.91 r13725"
   sodipodi:docname="YaKuake.svg">
  <defs
     id="defs4" />
  <sodipodi:namedview
     id="base"
     pagecolor="#ffffff"
     bordercolor="#666666"
     borderopacity="1.0"
     inkscape:pageopacity="0.0"
     inkscape:pageshadow="2"
     inkscape:zoom="1"
     inkscape:cx="31.616983"
     inkscape:cy="23.367494"
     inkscape:document-units="px"
     inkscape:current-layer="g4222"
     showgrid="false"
     units="px"
     inkscape:snap-bbox="true"
     inkscape:bbox-nodes="true"
     inkscape:window-width="1920"
     inkscape:window-height="984"
     inkscape:window-x="0"
     inkscape:window-y="0"
     inkscape:window-maximized="1">
    <inkscape:grid
       type="xygrid"
       id="grid4136" />
  </sodipodi:namedview>
  <metadata
     id="metadata7">
    <rdf:RDF>
      <cc:Work
         rdf:about="">
        <dc:format>image/svg+xml</dc:format>
        <dc:type
           rdf:resource="http://purl.org/dc/dcmitype/StillImage" />
        <dc:title></dc:title>
      </cc:Work>
    </rdf:RDF>
  </metadata>
  <g
     inkscape:label="Layer 1"
     inkscape:groupmode="layer"
     id="layer1"
     transform="translate(0,-1004.3622)">
    <g
       id="g4241"
       transform="translate(-4.1029007,-33.99277)">
      <path
         inkscape:connector-curvature="0"
         id="path4968"
         d="m 9.7419699,1043.8795 c -0.6517348,0 -1.1768552,0.5251 -1.1768552,1.1769 l 0,23.4799 0,0.975 0,5.1835 0,0.975 0,6.0328 c 0,0.6518 0.5251204,1.1769 1.1768552,1.1769 l 36.6462901,0 c 0.651735,0 1.176855,-0.5251 1.176855,-1.1769 l 0,-6.0328 0,-0.975 0,-5.1835 0,-0.975 0,-23.4799 c 0,-0.6518 -0.52512,-1.1769 -1.176855,-1.1769 l -36.6462901,0 z"
         style="color:#000000;clip-rule:nonzero;display:inline;overflow:visible;visibility:visible;opacity:0.05;isolation:auto;mix-blend-mode:normal;color-interpolation:sRGB;color-interpolation-filters:linearRGB;solid-color:#000000;solid-opacity:1;fill:#000000;fill-opacity:1;fill-rule:evenodd;stroke:none;stroke-width:1.15099108px;stroke-linecap:butt;stroke-linejoin:miter;stroke-miterlimit:4;stroke-dasharray:none;stroke-dashoffset:0;stroke-opacity:1;color-rendering:auto;image-rendering:auto;shape-rendering:auto;text-rendering:auto;enable-background:accumulate" />
      <path
         style="color:#000000;clip-rule:nonzero;display:inline;overflow:visible;visibility:visible;opacity:0.1;isolation:auto;mix-blend-mode:normal;color-interpolation:sRGB;color-interpolation-filters:linearRGB;solid-color:#000000;solid-opacity:1;fill:#000000;fill-opacity:1;fill-rule:evenodd;stroke:none;stroke-width:1.15099108px;stroke-linecap:butt;stroke-linejoin:miter;stroke-miterlimit:4;stroke-dasharray:none;stroke-dashoffset:0;stroke-opacity:1;color-rendering:auto;image-rendering:auto;shape-rendering:auto;text-rendering:auto;enable-background:accumulate"
         d="m 9.7383058,1043.3688 c -0.6517348,0 -1.1768552,0.5251 -1.1768552,1.1768 l 0,23.48 0,0.975 0,5.1835 0,0.975 0,6.0328 c 0,0.6517 0.5251204,1.1769 1.1768552,1.1769 l 36.6462892,0 c 0.651735,0 1.176855,-0.5252 1.176855,-1.1769 l 0,-6.0328 0,-0.975 0,-5.1835 0,-0.975 0,-23.48 c 0,-0.6517 -0.52512,-1.1768 -1.176855,-1.1768 l -36.6462892,0 z"
         id="path4966"
         inkscape:connector-curvature="0" />
      <path
         sodipodi:nodetypes="ssccccssssccccsss"
         inkscape:connector-curvature="0"
         id="path4928"
         d="m 9.7404733,1043.3587 c -0.6517348,0 -1.1768552,0.5184 -1.1768552,1.1618 l 0,23.1789 0,0.9625 0,5.1171 0,0.9625 c 0,0 0.00364,5.687 0.00364,5.7942 0,0.6434 0.7092765,1.3279 1.4253334,1.3279 l 36.1321815,1e-4 c 0.651735,0 1.444351,-0.7458 1.443796,-1.3892 l -0.0049,-5.733 0,-0.9625 0,-5.117 0,-0.9625 0,-23.179 c 0,-0.6434 -0.52512,-1.1618 -1.176855,-1.1618 z"
         style="color:#000000;clip-rule:nonzero;display:inline;overflow:visible;visibility:visible;opacity:0.15;isolation:auto;mix-blend-mode:normal;color-interpolation:sRGB;color-interpolation-filters:linearRGB;solid-color:#000000;solid-opacity:1;fill:#000000;fill-opacity:1;fill-rule:evenodd;stroke:none;stroke-width:1.15099108px;stroke-linecap:butt;stroke-linejoin:miter;stroke-miterlimit:4;stroke-dasharray:none;stroke-dashoffset:0;stroke-opacity:1;color-rendering:auto;image-rendering:auto;shape-rendering:auto;text-rendering:auto;enable-background:accumulate" />
    </g>
    <g
       id="g4222">
      <path
         id="rect4217"
         transform="translate(0,1004.3622)"
         d="M 6 5 C 5.446 5 5 5.446 5 6 L 5 10 L 5 15.007812 L 5 21 L 43 21 L 43 15.007812 L 43 10 L 43 6 C 43 5.446 42.554 5 42 5 L 6 5 z "
         style="fill:#34495e;fill-rule:evenodd;stroke:none;stroke-width:1px;stroke-linecap:butt;stroke-linejoin:miter;stroke-opacity:1;fill-opacity:1" />
      <path
         id="rect4205"
         d="m 5,1020.3622 38,0 0,1.9956 -38,0 z"
         style="fill:#fbf6f6;fill-opacity:1;fill-rule:evenodd;stroke:none;stroke-width:1px;stroke-linecap:butt;stroke-linejoin:miter;stroke-opacity:1"
         inkscape:connector-curvature="0" />
      <path
         sodipodi:nodetypes="ccccccc"
         inkscape:connector-curvature="0"
         id="rect4207"
         d="m 5,1022.3552 38,0 -0.0045,24.0544 c 0.0045,-0.01 -0.98997,0.943 -0.98997,0.943 l -35.999062,0.01 C 6,1047.3622 5,1047.3664 5,1046.3952 Z"
         style="fill:#3ecdf6;fill-opacity:1;fill-rule:evenodd;stroke:none;stroke-width:1px;stroke-linecap:butt;stroke-linejoin:miter;stroke-opacity:1" />
      <path
         sodipodi:nodetypes="cccccc"
         inkscape:connector-curvature="0"
         id="path4209"
         d="m 43,1031.3622 -5,-6 -23,22 27.01003,0 c 0,0 0.98997,0 0.98997,-0.9904 z"
         style="fill:#172f55;fill-opacity:1;fill-rule:evenodd;stroke:none;stroke-width:1px;stroke-linecap:butt;stroke-linejoin:miter;stroke-opacity:1" />
      <path
         style="fill:#f1f2f4;fill-opacity:1;fill-rule:evenodd;stroke:none;stroke-width:1px;stroke-linecap:butt;stroke-linejoin:miter;stroke-opacity:1"
         d="m 43,1031.3622 -5,-6 -9.903165,9.4625 4.640829,-2.0908 2.170028,4.3821 2.324651,-3.7734 4.187879,4.436 -0.0068,-4.4322 1.585598,1.3971 z"
         id="path4211"
         inkscape:connector-curvature="0"
         sodipodi:nodetypes="cccccccccc" />
      <path
         sodipodi:nodetypes="ccc"
         inkscape:connector-curvature="0"
         id="path4213"
         d="m 7.9384105,1011.7357 2.3006805,2.1126 -2.3006805,2.1429"
         style="fill:none;fill-rule:evenodd;stroke:#ffffff;stroke-width:1px;stroke-linecap:butt;stroke-linejoin:miter;stroke-opacity:1" />
      <path
         sodipodi:nodetypes="cc"
         inkscape:connector-curvature="0"
         id="path4215"
         d="m 11,1016.8622 4,0"
         style="fill:none;fill-rule:evenodd;stroke:#ffffff;stroke-width:1px;stroke-linecap:butt;stroke-linejoin:miter;stroke-opacity:1" />
    </g>
  </g>
</svg>
