<svg xmlns="http://www.w3.org/2000/svg" xmlns:xlink="http://www.w3.org/1999/xlink" width="48" height="48" viewBox="0 0 48 48">
  <defs>
    <filter id="netease-cloud-music-a" width="131%" height="131%" x="-15.5%" y="-15.5%" filterUnits="objectBoundingBox">
      <feOffset dy="1" in="SourceAlpha" result="shadowOffsetOuter1"/>
      <feGaussianBlur in="shadowOffsetOuter1" result="shadowBlurOuter1" stdDeviation="1"/>
      <feComposite in="shadowBlurOuter1" in2="SourceAlpha" operator="out" result="shadowBlurOuter1"/>
      <feColorMatrix in="shadowBlurOuter1" result="shadowMatrixOuter1" values="0 0 0 0 0   0 0 0 0 0   0 0 0 0 0  0 0 0 0.2 0"/>
      <feMerge>
        <feMergeNode in="shadowMatrixOuter1"/>
        <feMergeNode in="SourceGraphic"/>
      </feMerge>
    </filter>
    <radialGradient id="netease-cloud-music-b" cx="50%" cy="0%" r="114.131%" fx="50%" fy="0%">
      <stop offset="0%" stop-color="#FF7440"/>
      <stop offset="100%" stop-color="#DD001B"/>
    </radialGradient>
    <path id="netease-cloud-music-d" d="M16.7053207,10.2852911 C12.5928939,12.0760626 10.1012528,15.7670301 9.37209112,18.8594528 C8.64292949,21.9518756 9.11249813,24.2486097 9.69580751,25.9882506 C10.1326236,27.2909951 10.7869362,28.5104824 11.6176976,29.5380722 C12.6878623,30.8617859 13.8477432,31.7931676 14.5662311,32.3011602 C15.7711757,33.1530924 18.0166591,34.2091355 20.7230755,34.3762247 C23.1000453,34.5229745 25.6909787,34.0503595 28.3032815,32.3916848 C31.5131474,30.353589 32.8877769,27.2917425 33.1667897,24.6804733 C33.2630844,23.7792556 33.1825119,22.082987 32.7463895,20.6544907 C32.7463895,20.6544907 32.7463895,20.6544907 32.7463895,20.6544907 C31.7715624,17.4614945 29.0155175,15.1364876 25.7039381,14.7134586 L25.1577985,14.6436935 L25.1577985,14.6436935 L24.3791978,14.6436935 C23.4365174,14.6436889 22.5009722,14.8071089 21.614116,15.1266905 C21.1143089,15.3067976 20.6635358,15.5181599 20.2617968,15.7607774 C18.9925238,16.5273145 18.253009,17.5242966 17.9868899,17.8942296 C16.6334583,19.7756392 16.6016046,22.2236435 17.6108115,23.9798523 C18.5957856,25.6938915 20.5315998,26.8252602 22.8514335,26.2013158 C25.8103527,25.4054825 26.5317824,22.5764993 25.6323547,19.3785707 C24.732927,16.1806421 23.7352206,12.4922488 23.5837953,11.8443219 C23.5660041,11.7681957 23.5385123,11.6588176 23.5013199,11.5161876 C23.1403322,10.1318881 23.8136617,8.68634064 25.1056119,8.07196131 C26.4420469,7.43642749 28.0374348,7.75731087 29.0242334,8.86012104 L29.0873696,8.93067983 L29.0873696,8.93067983"/>
    <filter id="netease-cloud-music-c" width="155.8%" height="146.5%" x="-27.9%" y="-18.3%" filterUnits="objectBoundingBox">
      <feMorphology in="SourceAlpha" operator="dilate" radius="1.75" result="shadowSpreadOuter1"/>
      <feOffset dy="1" in="shadowSpreadOuter1" result="shadowOffsetOuter1"/>
      <feMorphology in="SourceAlpha" radius="1.75" result="shadowInner"/>
      <feOffset dy="1" in="shadowInner" result="shadowInner"/>
      <feComposite in="shadowOffsetOuter1" in2="shadowInner" operator="out" result="shadowOffsetOuter1"/>
      <feGaussianBlur in="shadowOffsetOuter1" result="shadowBlurOuter1" stdDeviation="1.5"/>
      <feColorMatrix in="shadowBlurOuter1" values="0 0 0 0 0   0 0 0 0 0   0 0 0 0 0  0 0 0 0.1 0"/>
    </filter>
  </defs>
  <g fill="none" fill-rule="evenodd" filter="url(#netease-cloud-music-a)" transform="translate(3 3)">
    <rect width="42" height="42" fill="url(#netease-cloud-music-b)" rx="6"/>
    <g stroke-linecap="round" stroke-linejoin="round">
      <use fill="#000" filter="url(#netease-cloud-music-c)" xlink:href="#netease-cloud-music-d"/>
      <use stroke="#FFF" stroke-width="3.5" xlink:href="#netease-cloud-music-d"/>
    </g>
  </g>
</svg>
