<svg xmlns="http://www.w3.org/2000/svg" xmlns:xlink="http://www.w3.org/1999/xlink" width="24" height="24" viewBox="0 0 24 24">
  <defs>
    <linearGradient id="x-office-spreadsheet-c" x1="50%" x2="50%" y1="0%" y2="100%">
      <stop offset="0%" stop-color="#287500"/>
      <stop offset="100%" stop-color="#1E5800"/>
    </linearGradient>
    <path id="x-office-spreadsheet-b" d="M16,17.75 C16,18.9926407 14.9926407,20 13.75,20 L2.25,20 C1.00735931,20 1.52179594e-16,18.9926407 0,17.75 L0,2.25 C-1.52179594e-16,1.00735931 1.00735931,2.28269391e-16 2.25,0 L10.5,0 L16,5.5 L16,17.75 Z"/>
    <filter id="x-office-spreadsheet-a" width="143.8%" height="135%" x="-21.9%" y="-12.5%" filterUnits="objectBoundingBox">
      <feOffset dy="1" in="SourceAlpha" result="shadowOffsetOuter1"/>
      <feGaussianBlur in="shadowOffsetOuter1" result="shadowBlurOuter1" stdDeviation="1"/>
      <feColorMatrix in="shadowBlurOuter1" values="0 0 0 0 0.286130341   0 0 0 0 0.419214221   0 0 0 0 0  0 0 0 0.2 0"/>
    </filter>
    <linearGradient id="x-office-spreadsheet-f" x1="50%" x2="14.088%" y1="50%" y2="88.513%">
      <stop offset="0%" stop-color="#FFF" stop-opacity=".1"/>
      <stop offset="100%" stop-color="#FFF" stop-opacity=".3"/>
    </linearGradient>
    <path id="x-office-spreadsheet-e" d="M10.5,0 L16,5.64102564 L12.75,5.64102564 C11.5073593,5.64102564 10.5,4.63366633 10.5,3.39102564 L10.5,0 L10.5,0 Z"/>
    <filter id="x-office-spreadsheet-d" width="227.3%" height="224.1%" x="-63.6%" y="-44.3%" filterUnits="objectBoundingBox">
      <feOffset dy="1" in="SourceAlpha" result="shadowOffsetOuter1"/>
      <feGaussianBlur in="shadowOffsetOuter1" result="shadowBlurOuter1" stdDeviation="1"/>
      <feComposite in="shadowBlurOuter1" in2="SourceAlpha" operator="out" result="shadowBlurOuter1"/>
      <feColorMatrix in="shadowBlurOuter1" values="0 0 0 0 0   0 0 0 0 0   0 0 0 0 0  0 0 0 0.05 0"/>
    </filter>
  </defs>
  <g fill="none" fill-rule="evenodd">
    <g transform="translate(4 2)">
      <use fill="#000" filter="url(#x-office-spreadsheet-a)" xlink:href="#x-office-spreadsheet-b"/>
      <use fill="url(#x-office-spreadsheet-c)" xlink:href="#x-office-spreadsheet-b"/>
      <use fill="#000" filter="url(#x-office-spreadsheet-d)" xlink:href="#x-office-spreadsheet-e"/>
      <use fill="url(#x-office-spreadsheet-f)" xlink:href="#x-office-spreadsheet-e"/>
    </g>
    <g transform="translate(6 8)">
      <rect width="11" height="10" x=".5" y=".5" stroke="#CBDCC2"/>
      <path stroke="#CBDCC2" d="M3.49975598,0.666666667 L3.50024402,10.3333333"/>
      <path fill="#FFF" fill-opacity=".6" d="M5.1913137,3.1716944 L4,3.17121143 L4,2.24138662 L5.19110116,2.24186951 L5.19124589,1 L6.08497129,1 L6.08482657,2.24209097 L6.97826124,2.24249349 L6.97840595,1.00002019 L7.87213135,1 L7.87198665,2.24269475 L8.76542132,2.24309727 L8.76556602,1.00002019 L9.65929142,1 L9.65914673,2.24329853 L10.9998068,2.24138662 L10.9998068,3.17121143 L9.65935928,3.17312342 L9.65939804,4.10536334 L11,4.10345141 L10.9998068,5.03327622 L9.65941743,5.03518823 L9.65926303,5.96742815 L10.9998068,5.9655162 L10.9998068,6.89534101 L9.65947557,6.89725303 L9.65958216,9.99997981 L8.76585675,10 L8.76575017,6.89705177 L7.87231549,6.89664925 L7.87242209,9.99997981 L6.97869669,10 L6.97859008,6.89644799 L6.08515541,6.89604547 L6.08526203,9.99997981 L5.19153663,9.99997981 L5.19143,6.89582401 L4,6.89534101 L4,5.9655162 L5.19121745,5.96599913 L5.19137185,5.03375921 L4,5.03327622 L4.00019316,4.10345141 L5.19135247,4.10393432 L5.1913137,3.1716944 Z M6.00003976,3 L6.99991685,3.00043159 L6.99996024,4 L6.00008315,3.99956841 L6.00003976,3 Z M6,5.99956841 L6.99982721,6 L7,5.00043159 L6.00017279,5 L6,5.99956841 Z M8.00003976,3 L8.99991685,3.00043159 L8.99996024,4 L8.00008315,3.99956841 L8.00003976,3 Z M8,5.99956841 L8.99982721,6 L9,5.00043159 L8.00017279,5 L8,5.99956841 Z"/>
    </g>
  </g>
</svg>
