<?xml version="1.0" encoding="UTF-8"?>
<svg width="96px" height="96px" viewBox="0 0 96 96" version="1.1" xmlns="http://www.w3.org/2000/svg" xmlns:xlink="http://www.w3.org/1999/xlink">
    <title>mimetypes/96/application-x-php</title>
    <defs>
        <linearGradient x1="50%" y1="0%" x2="50%" y2="100%" id="linearGradient-1">
            <stop stop-color="#647FC8" offset="0%"></stop>
            <stop stop-color="#4554A1" offset="100%"></stop>
        </linearGradient>
        <path d="M48,0 L70,22 L69.9998374,6.70264936 C69.9999457,6.71842011 70,6.73420372 70,6.75 L70,79.25 C70,82.9779221 66.9779221,86 63.25,86 L6.75,86 C3.02207794,86 4.56538782e-16,82.9779221 0,79.25 L0,6.75 C-4.56538782e-16,3.02207794 3.02207794,6.84808173e-16 6.75,0 L48,0 Z" id="path-2"></path>
        <filter x="-14.3%" y="-9.3%" width="128.6%" height="123.3%" filterUnits="objectBoundingBox" id="filter-3">
            <feOffset dx="0" dy="2" in="SourceAlpha" result="shadowOffsetOuter1"></feOffset>
            <feGaussianBlur stdDeviation="3" in="shadowOffsetOuter1" result="shadowBlurOuter1"></feGaussianBlur>
            <feColorMatrix values="0 0 0 0 0.149534536   0 0 0 0 0.271816956   0 0 0 0 0.918166893  0 0 0 0.5 0" type="matrix" in="shadowBlurOuter1"></feColorMatrix>
        </filter>
        <linearGradient x1="50%" y1="50%" x2="7.99354867%" y2="88.8892261%" id="linearGradient-4">
            <stop stop-color="#FFFFFF" stop-opacity="0.1" offset="0%"></stop>
            <stop stop-color="#FFFFFF" stop-opacity="0.3" offset="100%"></stop>
        </linearGradient>
        <path d="M47.9990267,0 L70,22 L54.7490267,22 C51.0211046,22 47.9990267,18.9779221 47.9990267,15.25 L47.9990267,0 L47.9990267,0 Z" id="path-5"></path>
        <filter x="-15.9%" y="-11.4%" width="131.8%" height="131.8%" filterUnits="objectBoundingBox" id="filter-6">
            <feOffset dx="0" dy="1" in="SourceAlpha" result="shadowOffsetOuter1"></feOffset>
            <feGaussianBlur stdDeviation="1" in="shadowOffsetOuter1" result="shadowBlurOuter1"></feGaussianBlur>
            <feComposite in="shadowBlurOuter1" in2="SourceAlpha" operator="out" result="shadowBlurOuter1"></feComposite>
            <feColorMatrix values="0 0 0 0 0   0 0 0 0 0   0 0 0 0 0  0 0 0 0.05 0" type="matrix" in="shadowBlurOuter1"></feColorMatrix>
        </filter>
    </defs>
    <g id="mimetypes/96/application-x-php" stroke="none" stroke-width="1" fill="none" fill-rule="evenodd">
        <g id="编组-2" transform="translate(13, 5)">
            <g id="蒙版">
                <use fill="black" fill-opacity="1" filter="url(#filter-3)" xlink:href="#path-2"></use>
                <use fill="url(#linearGradient-1)" fill-rule="evenodd" xlink:href="#path-2"></use>
            </g>
            <g id="折角">
                <use fill="black" fill-opacity="1" filter="url(#filter-6)" xlink:href="#path-5"></use>
                <use fill="url(#linearGradient-4)" fill-rule="evenodd" xlink:href="#path-5"></use>
            </g>
        </g>
        <path d="M40.6253855,57.8823556 L43.7629883,42 L47.4888889,42 L46.7044889,46.1176488 L50.23429,46.1176488 C53.3718919,46.3137263 54.5484929,47.8823543 54.156292,49.8431373 L52.7835923,57.8823556 L48.8615895,57.8823556 L50.23429,50.6274508 C50.4303913,49.6470598 50.4303913,49.0588246 49.0576908,49.0588246 L46.1161875,49.0588246 L44.351287,57.8823556 L40.6253855,57.8823556 L40.6253855,57.8823556 Z M24.8262712,62 L27.963874,46.1176444 L35.2195767,46.1176444 C38.3571786,46.3137219 39.9259787,47.8823504 39.9259787,50.6274477 C39.9259787,55.3333338 36.2000763,58.0784329 32.8663756,57.8823545 L29.3365746,57.8823545 L28.5521719,62 L24.8262712,62 L24.8262712,62 Z M30.1209737,54.9411798 L31.1014733,49.0588246 L33.6507757,49.0588246 C35.0234771,49.0588246 36.0039767,49.6470598 36.0039767,50.8235301 C35.8078763,54.1568636 34.2390762,54.7451032 32.4741747,54.9411798 L30.1209737,54.9411798 L30.1209737,54.9411798 Z M54.8556978,62 L57.9933007,46.1176488 L65.2490033,46.1176488 C68.3866052,46.3137263 69.9554053,47.8823543 69.9554053,50.6274508 C69.9554053,55.3333357 66.2295029,58.078434 62.8958023,57.8823556 L59.3660012,57.8823556 L58.5815985,62 L54.8556978,62 L54.8556978,62 Z M60.1504004,54.9411798 L61.1309,49.0588246 L63.6802023,49.0588246 C65.0529037,49.0588246 66.0334033,49.6470598 66.0334033,50.8235301 C65.8373029,54.1568636 64.2685028,54.7451032 62.5036014,54.9411798 L60.1504004,54.9411798 L60.1504004,54.9411798 Z" id="Combined-Shape" fill="#FFFFFF"></path>
    </g>
</svg>