<?xml version="1.0" encoding="UTF-8"?>
<svg width="96px" height="96px" viewBox="0 0 96 96" version="1.1" xmlns="http://www.w3.org/2000/svg" xmlns:xlink="http://www.w3.org/1999/xlink">
    <title>mimetypes/96/application-x-executable-script</title>
    <defs>
        <linearGradient x1="50%" y1="0%" x2="50%" y2="100%" id="linearGradient-1">
            <stop stop-color="#AC92FF" offset="0%"></stop>
            <stop stop-color="#804EE2" offset="100%"></stop>
        </linearGradient>
        <path d="M48,0 L70,22 L69.9998374,6.70264936 C69.9999457,6.71842011 70,6.73420372 70,6.75 L70,79.25 C70,82.9779221 66.9779221,86 63.25,86 L6.75,86 C3.02207794,86 4.56538782e-16,82.9779221 0,79.25 L0,6.75 C-4.56538782e-16,3.02207794 3.02207794,6.84808173e-16 6.75,0 L48,0 Z" id="path-2"></path>
        <filter x="-14.3%" y="-9.3%" width="128.6%" height="123.3%" filterUnits="objectBoundingBox" id="filter-3">
            <feOffset dx="0" dy="2" in="SourceAlpha" result="shadowOffsetOuter1"></feOffset>
            <feGaussianBlur stdDeviation="3" in="shadowOffsetOuter1" result="shadowBlurOuter1"></feGaussianBlur>
            <feColorMatrix values="0 0 0 0 0.538881273   0 0 0 0 0.186318598   0 0 0 0 1  0 0 0 0.5 0" type="matrix" in="shadowBlurOuter1"></feColorMatrix>
        </filter>
        <linearGradient x1="50%" y1="50%" x2="7.99354867%" y2="88.8892261%" id="linearGradient-4">
            <stop stop-color="#FFFFFF" stop-opacity="0.1" offset="0%"></stop>
            <stop stop-color="#FFFFFF" stop-opacity="0.3" offset="100%"></stop>
        </linearGradient>
        <path d="M47.9990267,0 L70,22 L54.7490267,22 C51.0211046,22 47.9990267,18.9779221 47.9990267,15.25 L47.9990267,0 L47.9990267,0 Z" id="path-5"></path>
        <filter x="-15.9%" y="-11.4%" width="131.8%" height="131.8%" filterUnits="objectBoundingBox" id="filter-6">
            <feOffset dx="0" dy="1" in="SourceAlpha" result="shadowOffsetOuter1"></feOffset>
            <feGaussianBlur stdDeviation="1" in="shadowOffsetOuter1" result="shadowBlurOuter1"></feGaussianBlur>
            <feComposite in="shadowBlurOuter1" in2="SourceAlpha" operator="out" result="shadowBlurOuter1"></feComposite>
            <feColorMatrix values="0 0 0 0 0   0 0 0 0 0   0 0 0 0 0  0 0 0 0.05 0" type="matrix" in="shadowBlurOuter1"></feColorMatrix>
        </filter>
    </defs>
    <g id="mimetypes/96/application-x-executable-script" stroke="none" stroke-width="1" fill="none" fill-rule="evenodd">
        <g id="编组" transform="translate(13, 5)">
            <g id="蒙版">
                <use fill="black" fill-opacity="1" filter="url(#filter-3)" xlink:href="#path-2"></use>
                <use fill="url(#linearGradient-1)" fill-rule="evenodd" xlink:href="#path-2"></use>
            </g>
            <g id="折角">
                <use fill="black" fill-opacity="1" filter="url(#filter-6)" xlink:href="#path-5"></use>
                <use fill="url(#linearGradient-4)" fill-rule="evenodd" xlink:href="#path-5"></use>
            </g>
        </g>
        <path d="M71.7750815,53.0030815 C70.5970815,52.5090815 69.7670815,51.3570815 69.7670815,50.0010815 C69.7670815,48.6430815 70.5990815,47.4910815 71.7770815,46.9990815 C71.9330815,46.9330815 72.0290815,46.7710815 71.9890815,46.6050815 C71.6330815,45.1390815 71.0530815,43.7610815 70.2870815,42.5090815 C70.1990815,42.3650815 70.0170815,42.3170815 69.8590815,42.3830815 C68.6770815,42.8670815 67.2750815,42.6410815 66.3150815,41.6810815 C65.3550815,40.7210815 65.1290815,39.3210815 65.6130815,38.1390815 C65.6770815,37.9830815 65.6310815,37.8010815 65.4870815,37.7110815 C64.2330815,36.9450815 62.8550815,36.3650815 61.3890815,36.0090815 C61.2230815,35.9690815 61.0610815,36.0650815 60.9950815,36.2210815 C60.5030815,37.4010815 59.3490815,38.2350815 57.9910815,38.2350815 C56.6350815,38.2350815 55.4830815,37.4030815 54.9890815,36.2250815 C54.9230815,36.0690815 54.7610815,35.9730815 54.5950815,36.0130815 C53.1290815,36.3710815 51.7490815,36.9530815 50.4970815,37.7210815 C50.3530815,37.8090815 50.3090815,37.9890815 50.3710815,38.1430815 C50.8530815,39.3250815 50.6270815,40.7250815 49.6670815,41.6850815 C48.7090815,42.6430815 47.3110815,42.8710815 46.1310815,42.3910815 C45.9750815,42.3270815 45.7970815,42.3730815 45.7090815,42.5170815 C44.9430815,43.7710815 44.3630815,45.1510815 44.0090815,46.6170815 C43.9690815,46.7810815 44.0650815,46.9450815 44.2210815,47.0110815 C45.3950815,47.5050815 46.2250815,48.6570815 46.2250815,50.0110815 C46.2250815,51.3650815 45.3990815,52.5130815 44.2270815,53.0090815 C44.0710815,53.0750815 43.9750815,53.2370815 44.0150815,53.4030815 C44.3710815,54.8690815 44.9550815,56.2470815 45.7230815,57.5010815 C45.8110815,57.6430815 45.9890815,57.6890815 46.1450815,57.6270815 C47.3250815,57.1490815 48.7210815,57.3790815 49.6770815,58.3350815 C50.6330815,59.2890815 50.8610815,60.6850815 50.3850815,61.8630815 C50.3230815,62.0190815 50.3690815,62.1970815 50.5110815,62.2850815 C51.7650815,63.0530815 53.1450815,63.6330815 54.6110815,63.9890815 C54.7750815,64.0290815 54.9390815,63.9330815 55.0050815,63.7770815 C55.5010815,62.6050815 56.6510815,61.7790815 58.0030815,61.7790815 C59.3570815,61.7790815 60.5050815,62.6050815 61.0010815,63.7770815 C61.0670815,63.9330815 61.2290815,64.0290815 61.3950815,63.9890815 C62.8610815,63.6330815 64.2410815,63.0530815 65.4950815,62.2850815 C65.6390815,62.1970815 65.6830815,62.0190815 65.6210815,61.8630815 C65.1410815,60.6830815 65.3690815,59.2850815 66.3270815,58.3270815 C67.2850815,57.3690815 68.6850815,57.1430815 69.8650815,57.6230815 C70.0210815,57.6870815 70.1990815,57.6410815 70.2870815,57.4970815 C71.0550815,56.2430815 71.6370815,54.8650815 71.9930815,53.3970815 C72.0290815,53.2310815 71.9330815,53.0690815 71.7750815,53.0030815 L71.7750815,53.0030815 Z M52.999721,67.9960937 C53.5520057,67.9959397 54,68.44353 54,68.9958147 C54,69.5480995 53.5525637,69.9959396 53.000279,69.9960937 L39.000279,70 C38.4479943,70.0001541 38,69.5525637 38,69.000279 C38,68.4479943 38.4474363,68.0001541 38.999721,68 Z M27.0295167,49.294194 C27.4193226,48.7582108 28.1698229,48.6397108 28.705806,49.0295167 L39.705806,57.0295167 C40.3647313,57.5087351 40.3647313,58.4912649 39.705806,58.9704833 L28.705806,66.9704833 C28.1698229,67.3602892 27.4193226,67.2417892 27.0295167,66.705806 C26.6397108,66.1698229 26.7582108,65.4193226 27.294194,65.0295167 L36.949093,57.9922281 L27.294194,50.9704833 C26.7582108,50.5806774 26.6397108,49.8301771 27.0295167,49.294194 Z M57.9990815,42.9990815 C61.8590815,42.9990815 64.9990815,46.1390815 64.9990815,49.9990815 C64.9990815,53.8590815 61.8590815,56.9990815 57.9990815,56.9990815 C54.1390815,56.9990815 50.9990815,53.8590815 50.9990815,49.9990815 C50.9990815,46.1390815 54.1390815,42.9990815 57.9990815,42.9990815 Z" id="Combined-Shape" fill="#FFFFFF"></path>
    </g>
</svg>