<svg xmlns="http://www.w3.org/2000/svg" xmlns:xlink="http://www.w3.org/1999/xlink" width="96" height="96" viewBox="0 0 96 96">
  <defs>
    <linearGradient id="application-x-font-otf-c" x1="50%" x2="50%" y1="0%" y2="99.372%">
      <stop offset="0%" stop-color="#D6D6D6"/>
      <stop offset="98.276%" stop-color="#AAA"/>
    </linearGradient>
    <path id="application-x-font-otf-b" d="M42,0 L64,22 L64,69 C64,73.9705627 59.9705627,78 55,78 L9,78 C4.02943725,78 6.08718376e-16,73.9705627 0,69 L0,9 C-6.08718376e-16,4.02943725 4.02943725,4.46579124e-15 9,3.55271368e-15 L42,0 Z"/>
    <filter id="application-x-font-otf-a" width="131.2%" height="125.6%" x="-15.6%" y="-10.3%" filterUnits="objectBoundingBox">
      <feOffset dy="2" in="SourceAlpha" result="shadowOffsetOuter1"/>
      <feGaussianBlur in="shadowOffsetOuter1" result="shadowBlurOuter1" stdDeviation="3"/>
      <feColorMatrix in="shadowBlurOuter1" values="0 0 0 0 0   0 0 0 0 0   0 0 0 0 0  0 0 0 0.2 0"/>
    </filter>
    <linearGradient id="application-x-font-otf-f" x1="50%" x2="11.493%" y1="50%" y2="88.683%">
      <stop offset="0%" stop-color="#FFF" stop-opacity=".1"/>
      <stop offset="100%" stop-color="#FFF" stop-opacity=".3"/>
    </linearGradient>
    <path id="application-x-font-otf-e" d="M42,0 L64,22 L51,22 C46.0294373,22 42,17.9705627 42,13 L42,0 Z"/>
    <filter id="application-x-font-otf-d" width="150%" height="150%" x="-25%" y="-15.9%" filterUnits="objectBoundingBox">
      <feOffset dy="2" in="SourceAlpha" result="shadowOffsetOuter1"/>
      <feGaussianBlur in="shadowOffsetOuter1" result="shadowBlurOuter1" stdDeviation="1.5"/>
      <feComposite in="shadowBlurOuter1" in2="SourceAlpha" operator="out" result="shadowBlurOuter1"/>
      <feColorMatrix in="shadowBlurOuter1" values="0 0 0 0 0   0 0 0 0 0   0 0 0 0 0  0 0 0 0.05 0"/>
    </filter>
  </defs>
  <g fill="none" fill-rule="evenodd">
    <g transform="translate(16 10)">
      <use fill="#000" filter="url(#application-x-font-otf-a)" xlink:href="#application-x-font-otf-b"/>
      <use fill="url(#application-x-font-otf-c)" xlink:href="#application-x-font-otf-b"/>
      <use fill="#000" filter="url(#application-x-font-otf-d)" xlink:href="#application-x-font-otf-e"/>
      <use fill="url(#application-x-font-otf-f)" xlink:href="#application-x-font-otf-e"/>
    </g>
    <path fill="#FFF" d="M64,82 L64,80 L62,80 C60.74,80 60,79.512 60,78 L60,70 L64,70 L64,68.004 L60,68.004 L60,64 L58,64 L58,68.004 L56,68.004 L56,70 L58,70 L58,78 C58,81.136 59.424,82 62,82 L64,82 Z M74,62 L74,64 L72,64 C70.628,64 70,64.712 70,66 L70,68 L74,68 L74,70.044 L70,70.044 L70,82 L68,82 L68,70 L66,70.044 L66,68 L68,68 L68,66 C68,63.564 68.752,62 72,62 L74,62 Z M49,68 C51.7614237,68 54,70.2493422 54,73.0147779 L54,76.9852221 C54,79.7548075 51.7806759,82 49,82 C46.2385763,82 44,79.7506578 44,76.9852221 L44,73.0147779 C44,70.2451925 46.2193241,68 49,68 Z M46,76.9852221 C46,78.6490955 47.3461541,80 49,80 C50.6669358,80 52,78.6594304 52,76.9852221 L52,73.0147779 C52,71.3509045 50.6538459,70 49,70 C47.3330642,70 46,71.3405696 46,73.0147779 L46,76.9852221 Z"/>
  </g>
</svg>
