<?xml version="1.0" encoding="UTF-8"?>
<svg width="96px" height="96px" viewBox="0 0 96 96" version="1.1" xmlns="http://www.w3.org/2000/svg" xmlns:xlink="http://www.w3.org/1999/xlink">
    <title>mimetypes/96/application-vnd.wolfram.mathematica.package</title>
    <defs>
        <linearGradient x1="50%" y1="0%" x2="50%" y2="99.7939317%" id="linearGradient-1">
            <stop stop-color="#9BA6C1" offset="0%"></stop>
            <stop stop-color="#778EB2" offset="100%"></stop>
        </linearGradient>
        <path d="M48,0 L70,22 L69.9998374,6.70264936 C69.9999457,6.71842011 70,6.73420372 70,6.75 L70,79.25 C70,82.9779221 66.9779221,86 63.25,86 L6.75,86 C3.02207794,86 4.56538782e-16,82.9779221 0,79.25 L0,6.75 C-4.56538782e-16,3.02207794 3.02207794,6.84808173e-16 6.75,0 L48,0 Z" id="path-2"></path>
        <filter x="-14.3%" y="-9.3%" width="128.6%" height="123.3%" filterUnits="objectBoundingBox" id="filter-3">
            <feOffset dx="0" dy="2" in="SourceAlpha" result="shadowOffsetOuter1"></feOffset>
            <feGaussianBlur stdDeviation="3" in="shadowOffsetOuter1" result="shadowBlurOuter1"></feGaussianBlur>
            <feColorMatrix values="0 0 0 0 0.474509804   0 0 0 0 0.558835447   0 0 0 0 0.701960784  0 0 0 0.5 0" type="matrix" in="shadowBlurOuter1"></feColorMatrix>
        </filter>
        <linearGradient x1="50%" y1="50%" x2="7.99354867%" y2="88.8892261%" id="linearGradient-4">
            <stop stop-color="#FFFFFF" stop-opacity="0.1" offset="0%"></stop>
            <stop stop-color="#FFFFFF" stop-opacity="0.3" offset="100%"></stop>
        </linearGradient>
        <path d="M47.9990267,0 L70,22 L54.7490267,22 C51.0211046,22 47.9990267,18.9779221 47.9990267,15.25 L47.9990267,0 L47.9990267,0 Z" id="path-5"></path>
        <filter x="-15.9%" y="-11.4%" width="131.8%" height="131.8%" filterUnits="objectBoundingBox" id="filter-6">
            <feOffset dx="0" dy="1" in="SourceAlpha" result="shadowOffsetOuter1"></feOffset>
            <feGaussianBlur stdDeviation="1" in="shadowOffsetOuter1" result="shadowBlurOuter1"></feGaussianBlur>
            <feComposite in="shadowBlurOuter1" in2="SourceAlpha" operator="out" result="shadowBlurOuter1"></feComposite>
            <feColorMatrix values="0 0 0 0 0   0 0 0 0 0   0 0 0 0 0  0 0 0 0.05 0" type="matrix" in="shadowBlurOuter1"></feColorMatrix>
        </filter>
    </defs>
    <g id="mimetypes/96/application-vnd.wolfram.mathematica.package" stroke="none" stroke-width="1" fill="none" fill-rule="evenodd">
        <g id="编组-2" transform="translate(13, 5)">
            <g id="蒙版">
                <use fill="black" fill-opacity="1" filter="url(#filter-3)" xlink:href="#path-2"></use>
                <use fill="url(#linearGradient-1)" fill-rule="evenodd" xlink:href="#path-2"></use>
            </g>
            <g id="折角">
                <use fill="black" fill-opacity="1" filter="url(#filter-6)" xlink:href="#path-5"></use>
                <use fill="url(#linearGradient-4)" fill-rule="evenodd" xlink:href="#path-5"></use>
            </g>
        </g>
        <path d="M48.0000123,32.25 C47.3952855,32.2512047 46.7910035,32.282877 46.1894653,32.3449127 C45.6174779,32.4024613 45.0535776,32.4879228 44.4984511,32.5980378 C44.4738297,32.6015092 44.4492211,32.6051092 44.4246125,32.6087092 C43.9028027,32.7144592 43.3928318,32.8524473 42.8882827,33.002458 C42.8166812,33.0207666 42.7451981,33.0395123 42.6738306,33.058708 C42.1047682,33.235594 41.5474431,33.4364869 41.0039086,33.6669101 C40.4669171,33.894371 39.9412964,34.1477956 39.4289083,34.4262853 C38.4125021,34.9794434 37.4518059,35.6293271 36.5601578,36.3669106 C36.1151951,36.7340708 35.6881399,37.1224106 35.280472,37.5305838 C34.8917066,37.9200293 34.5210043,38.3270968 34.1695336,38.7505045 C34.1487822,38.7754216 34.1268736,38.7992974 34.1062508,38.8243431 C33.821996,39.176121 33.5510998,39.5384868 33.2941408,39.9106703 C33.2028679,40.0400543 33.1078484,40.1655452 33.0199223,40.2973901 C32.8245657,40.596464 32.6381551,40.9012863 32.4609386,41.2114534 C32.3361471,41.4250298 32.2079331,41.6357867 32.0917971,41.8548121 C31.9473214,42.1335974 31.8101652,42.4161164 31.68047,42.7020774 C31.5600114,42.9611964 31.4407241,43.2204826 31.332422,43.4860624 C31.2249748,43.7577866 31.1241684,44.032086 31.0300798,44.3087178 C30.9277112,44.5997817 30.8258479,44.8899958 30.7382817,45.1876245 C30.6643917,45.4485551 30.5964031,45.7111212 30.5343751,45.9751234 C30.4575022,46.2885214 30.3800791,46.6012972 30.3199218,46.9208281 C30.2664618,47.223124 30.2207418,47.5267391 30.1828157,47.8313737 C30.1445272,48.1139378 30.1058143,48.3956456 30.0808586,48.6821542 C30.0311143,49.2033623 30.00414,49.7264925 30,50.2500522 C30.0012034,50.854779 30.0328757,51.4590597 30.0949114,52.0605979 C30.4043906,55.1367175 31.4942947,57.9853003 33.160537,60.4102081 C33.175837,60.4324766 33.1908542,60.4548095 33.2062442,60.4770009 C33.3352155,60.6622878 33.4676608,60.8451318 33.6035094,61.0254366 C33.6044647,61.0196509 33.6060808,61.013608 33.6071094,61.0077966 C36.8940848,65.3925138 42.1150308,68.2500465 48,68.2500465 C51.3803422,68.2500465 54.5364217,67.2956979 57.2425807,65.6660625 L57.2461807,65.6696625 C57.282605,65.6451824 57.3189265,65.6205739 57.3551708,65.5958239 C57.7845056,65.332957 58.2019822,65.0559318 58.6067329,64.759104 C58.6999729,64.6908583 58.7925572,64.6217113 58.8844678,64.551681 C59.2398663,64.2804338 59.5840546,63.9972526 59.9180614,63.7009005 C60.0535101,63.5798891 60.187119,63.4568218 60.3188417,63.3317603 C60.5971025,63.0695543 60.866254,62.7988831 61.1274366,62.5196503 C61.2829296,62.3549618 61.4352997,62.1873535 61.584467,62.0169153 C61.8298392,61.7341032 62.0634509,61.4428232 62.2911072,61.1450415 C62.4157316,60.9842294 62.5376276,60.8213153 62.6567323,60.6563697 C62.8959061,60.3206465 63.1190637,59.9749654 63.3352476,59.6227761 C63.4251705,59.4798792 63.513067,59.3357249 63.5989283,59.1903543 C63.8130255,58.8185089 64.0089054,58.4356283 64.1965837,58.0477758 C64.2701138,57.8999379 64.3416033,57.7510958 64.4110371,57.6012908 C64.5792831,57.2276198 64.7286561,56.8452984 64.8715839,56.4587136 C64.9413724,56.275831 65.0081833,56.0918221 65.071974,55.9067602 C65.1960069,55.53393 65.3026492,55.1543202 65.4024438,54.7712133 C65.4548495,54.5786595 65.504041,54.3852482 65.5500078,54.191059 C65.631445,53.8288977 65.6947639,53.4606266 65.7539132,53.0906687 C65.7952489,52.8476905 65.8315832,52.6038895 65.8629032,52.3594186 C65.9002146,52.0424012 65.9197061,51.7214187 65.9402518,51.3996532 C65.9724204,51.0171853 65.9923489,50.6337865 66.0000118,50.2500445 C66.0000118,49.6431474 65.9676632,49.0452554 65.9086103,48.4535593 L65.9050103,48.4395193 C65.8474618,47.8675319 65.7620003,47.3036316 65.6518853,46.7485038 C65.6469996,46.7242938 65.6463567,46.6988624 65.6412139,46.6746652 C65.5354638,46.1528567 65.3974758,45.6428858 65.2474638,45.1383367 C65.2272138,45.0702195 65.2157709,44.9986926 65.1947238,44.9309162 L65.1876524,44.9063076 C65.0119903,44.3431467 64.8110949,43.7920856 64.5829654,43.2539626 C64.3555045,42.7169711 64.1020811,42.1913517 63.8235915,41.6789636 C63.2704334,40.6625574 62.6205497,39.7018612 61.8829662,38.8102131 C61.515806,38.3652491 61.1274662,37.9381939 60.719293,37.530526 C60.3298475,37.1417606 59.92278,36.7710583 59.4993723,36.4195876 C59.4794952,36.4019605 59.4595666,36.3843848 59.4396123,36.3668476 C59.4351123,36.363119 59.430098,36.3600333 59.4255723,36.3561762 C59.0737944,36.0719214 58.7114286,35.8010265 58.3392451,35.5440675 C58.2098611,35.4527946 58.0843702,35.3577739 57.9525253,35.2698477 C57.6534848,35.0744975 57.3486946,34.8880921 57.0385623,34.7108782 C56.8249858,34.5860867 56.6142289,34.4578714 56.3952023,34.3417354 C56.116417,34.1972596 55.8338979,34.0601035 55.547937,33.9304083 C55.288818,33.8099497 55.0295318,33.6906637 54.7639533,33.5823602 C54.4922689,33.4749388 54.218008,33.3741504 53.9414174,33.2800798 C53.6503548,33.1777112 53.3601407,33.0758479 53.062512,32.9882817 C52.8015814,32.9143917 52.539014,32.8464044 52.2750118,32.7843764 C51.9616138,32.7075035 51.6488393,32.6300804 51.3293084,32.5699218 C51.0270112,32.5164618 50.7233961,32.4707418 50.4187615,32.4328157 C50.1361974,32.3945272 49.8544909,32.3558143 49.567981,32.3308586 C49.0467498,32.2811143 48.5235964,32.25414 48.0000123,32.25 L48.0000123,32.25 Z M45.2648565,34.8480472 L47.6963664,40.557422 L51.8571495,37.0242193 L51.8571495,46.8960948 L61.5000122,54.7500003 L58.5363413,56.7208065 L50.2992312,56.6364251 L54.9117307,62.8921835 C52.8615946,64.0120254 50.5083912,64.6500034 48.0000123,64.6500034 C41.9997086,64.6500034 36.8798353,61.0103127 34.7109506,55.8117228 C35.8461761,51.4257237 37.5417455,47.1911496 39.970324,44.8289089 C41.0063682,41.0161726 43.0281028,37.860313 45.2648565,34.8480472 L45.2648565,34.8480472 Z M48.1287702,48.4500004 L48.1300739,49.9828126 L51.599995,50.2500007 C51.1535512,49.1708337 50.1828406,48.6737392 48.1287702,48.4500004 L48.1287702,48.4500004 Z" id="形状" fill="#FFFFFF"></path>
    </g>
</svg>