<svg xmlns="http://www.w3.org/2000/svg" xmlns:xlink="http://www.w3.org/1999/xlink" width="96" height="96" viewBox="0 0 96 96">
  <defs>
    <linearGradient id="application-x-php-c" x1="50%" x2="50%" y1="0%" y2="100%">
      <stop offset="0%" stop-color="#647FC8"/>
      <stop offset="100%" stop-color="#4554A1"/>
    </linearGradient>
    <path id="application-x-php-b" d="M42,0 L64,22 L64,69 C64,73.9705627 59.9705627,78 55,78 L9,78 C4.02943725,78 6.08718376e-16,73.9705627 0,69 L0,9 C-6.08718376e-16,4.02943725 4.02943725,4.46579124e-15 9,3.55271368e-15 L42,0 Z"/>
    <filter id="application-x-php-a" width="131.2%" height="125.6%" x="-15.6%" y="-10.3%" filterUnits="objectBoundingBox">
      <feOffset dy="2" in="SourceAlpha" result="shadowOffsetOuter1"/>
      <feGaussianBlur in="shadowOffsetOuter1" result="shadowBlurOuter1" stdDeviation="3"/>
      <feColorMatrix in="shadowBlurOuter1" values="0 0 0 0 0.149534536   0 0 0 0 0.271816956   0 0 0 0 0.918166893  0 0 0 0.5 0"/>
    </filter>
    <linearGradient id="application-x-php-f" x1="50%" x2="11.493%" y1="50%" y2="88.683%">
      <stop offset="0%" stop-color="#FFF" stop-opacity=".1"/>
      <stop offset="100%" stop-color="#FFF" stop-opacity=".3"/>
    </linearGradient>
    <path id="application-x-php-e" d="M42,0 L64,22 L51,22 C46.0294373,22 42,17.9705627 42,13 L42,0 Z"/>
    <filter id="application-x-php-d" width="150%" height="150%" x="-25%" y="-15.9%" filterUnits="objectBoundingBox">
      <feOffset dy="2" in="SourceAlpha" result="shadowOffsetOuter1"/>
      <feGaussianBlur in="shadowOffsetOuter1" result="shadowBlurOuter1" stdDeviation="1.5"/>
      <feComposite in="shadowBlurOuter1" in2="SourceAlpha" operator="out" result="shadowBlurOuter1"/>
      <feColorMatrix in="shadowBlurOuter1" values="0 0 0 0 0   0 0 0 0 0   0 0 0 0 0  0 0 0 0.05 0"/>
    </filter>
  </defs>
  <g fill="none" fill-rule="evenodd">
    <g transform="translate(16 10)">
      <use fill="#000" filter="url(#application-x-php-a)" xlink:href="#application-x-php-b"/>
      <use fill="url(#application-x-php-c)" xlink:href="#application-x-php-b"/>
      <use fill="#000" filter="url(#application-x-php-d)" xlink:href="#application-x-php-e"/>
      <use fill="url(#application-x-php-f)" xlink:href="#application-x-php-e"/>
    </g>
    <path fill="#FFF" d="M40.6253855,57.8823556 L43.7629883,42 L47.4888889,42 L46.7044889,46.1176488 L50.23429,46.1176488 C53.3718919,46.3137263 54.5484929,47.8823543 54.156292,49.8431373 L52.7835923,57.8823556 L48.8615895,57.8823556 L50.23429,50.6274508 C50.4303913,49.6470598 50.4303913,49.0588246 49.0576908,49.0588246 L46.1161875,49.0588246 L44.351287,57.8823556 L40.6253855,57.8823556 L40.6253855,57.8823556 Z M24.8262721,62 L27.963874,46.1176444 L35.2195767,46.1176444 C38.3571786,46.3137219 39.9259787,47.8823504 39.9259787,50.6274477 C39.9259787,55.3333338 36.2000763,58.0784329 32.8663756,57.8823545 L29.3365746,57.8823545 L28.5521719,62 L24.8262712,62 L24.8262721,62 Z M30.1209737,54.9411798 L31.1014733,49.0588246 L33.6507757,49.0588246 C35.0234771,49.0588246 36.0039767,49.6470598 36.0039767,50.8235301 C35.8078763,54.1568636 34.2390762,54.7451032 32.4741747,54.9411798 L30.1209737,54.9411798 L30.1209737,54.9411798 Z M54.8556987,62 L57.9933007,46.1176488 L65.2490033,46.1176488 C68.3866052,46.3137263 69.9554053,47.8823543 69.9554053,50.6274508 C69.9554053,55.3333357 66.2295029,58.078434 62.8958023,57.8823556 L59.3660012,57.8823556 L58.5815985,62 L54.8556978,62 L54.8556987,62 Z M60.1504004,54.9411798 L61.1309,49.0588246 L63.6802023,49.0588246 C65.0529037,49.0588246 66.0334033,49.6470598 66.0334033,50.8235301 C65.8373029,54.1568636 64.2685028,54.7451032 62.5036014,54.9411798 L60.1504004,54.9411798 L60.1504004,54.9411798 Z"/>
  </g>
</svg>
