<svg xmlns="http://www.w3.org/2000/svg" xmlns:xlink="http://www.w3.org/1999/xlink" width="96" height="96" viewBox="0 0 96 96">
  <defs>
    <linearGradient id="application-pgp-keys-c" x1="50%" x2="50%" y1="0%" y2="99.324%">
      <stop offset="0%" stop-color="#C5A981"/>
      <stop offset="100%" stop-color="#BA853A"/>
    </linearGradient>
    <path id="application-pgp-keys-b" d="M42,0 L64,22 L64,69 C64,73.9705627 59.9705627,78 55,78 L9,78 C4.02943725,78 6.08718376e-16,73.9705627 0,69 L0,9 C-6.08718376e-16,4.02943725 4.02943725,4.46579124e-15 9,3.55271368e-15 L42,0 Z"/>
    <filter id="application-pgp-keys-a" width="131.2%" height="125.6%" x="-15.6%" y="-10.3%" filterUnits="objectBoundingBox">
      <feOffset dy="2" in="SourceAlpha" result="shadowOffsetOuter1"/>
      <feGaussianBlur in="shadowOffsetOuter1" result="shadowBlurOuter1" stdDeviation="3"/>
      <feColorMatrix in="shadowBlurOuter1" values="0 0 0 0 0.733333333   0 0 0 0 0.537254902   0 0 0 0 0.258823529  0 0 0 0.5 0"/>
    </filter>
    <linearGradient id="application-pgp-keys-f" x1="50%" x2="11.493%" y1="50%" y2="88.683%">
      <stop offset="0%" stop-color="#FFF" stop-opacity=".1"/>
      <stop offset="100%" stop-color="#FFF" stop-opacity=".3"/>
    </linearGradient>
    <path id="application-pgp-keys-e" d="M42,0 L64,22 L51,22 C46.0294373,22 42,17.9705627 42,13 L42,0 Z"/>
    <filter id="application-pgp-keys-d" width="150%" height="150%" x="-25%" y="-15.9%" filterUnits="objectBoundingBox">
      <feOffset dy="2" in="SourceAlpha" result="shadowOffsetOuter1"/>
      <feGaussianBlur in="shadowOffsetOuter1" result="shadowBlurOuter1" stdDeviation="1.5"/>
      <feComposite in="shadowBlurOuter1" in2="SourceAlpha" operator="out" result="shadowBlurOuter1"/>
      <feColorMatrix in="shadowBlurOuter1" values="0 0 0 0 0   0 0 0 0 0   0 0 0 0 0  0 0 0 0.05 0"/>
    </filter>
  </defs>
  <g fill="none" fill-rule="evenodd">
    <g transform="translate(16 10)">
      <use fill="#000" filter="url(#application-pgp-keys-a)" xlink:href="#application-pgp-keys-b"/>
      <use fill="url(#application-pgp-keys-c)" xlink:href="#application-pgp-keys-b"/>
      <use fill="#000" filter="url(#application-pgp-keys-d)" xlink:href="#application-pgp-keys-e"/>
      <use fill="url(#application-pgp-keys-f)" xlink:href="#application-pgp-keys-e"/>
    </g>
    <path fill="#FFF" d="M65.0205618,49.4177141 C66.3975642,47.7902113 66.313564,45.3992071 64.8300614,43.9157044 L58.0815495,37.1701925 C56.5980469,35.6866899 54.2040427,35.6026898 52.5750398,36.9811922 L43.4700238,44.1812049 C41.6370205,45.7322076 41.4975203,48.5042125 43.1700232,50.1752155 L51.8265385,58.8287307 C53.5005414,60.5027337 56.2740463,60.3632334 57.8265491,58.5272302 L65.0205618,49.4177141 L65.0205618,49.4177141 Z M55.9335457,39.3166963 L62.6820576,46.0637082 C63.0465583,46.4267089 63.0525583,47.04021 62.7000577,47.4587107 L61.3635553,49.0412135 L52.9575405,40.6366987 L54.5400433,39.2986963 C54.955544,38.9446957 55.5690451,38.9536957 55.9335457,39.3166963 L55.9335457,39.3166963 Z M48.5595327,59.8037325 L36.3645112,72.000254 L32.1225037,72.000254 L31.0620019,70.9397521 L42.0000212,60.0002328 L40.9395193,58.9397309 L30.0015,69.8792502 L30,65.6372427 L42.1950215,53.4422212 L48.5595327,59.8037325 L48.5595327,59.8037325 Z"/>
  </g>
</svg>
