<?xml version="1.0" encoding="UTF-8"?>
<svg width="96px" height="96px" viewBox="0 0 96 96" version="1.1" xmlns="http://www.w3.org/2000/svg" xmlns:xlink="http://www.w3.org/1999/xlink">
    <title>mimetypes/96/application-x-gnonogram-puzzle</title>
    <defs>
        <linearGradient x1="50%" y1="0%" x2="50%" y2="100%" id="linearGradient-1">
            <stop stop-color="#5C42B1" offset="0%"></stop>
            <stop stop-color="#3E1888" offset="99.3454392%"></stop>
        </linearGradient>
        <path d="M48,0 L70,22 L69.9998374,6.70264936 C69.9999457,6.71842011 70,6.73420372 70,6.75 L70,79.25 C70,82.9779221 66.9779221,86 63.25,86 L6.75,86 C3.02207794,86 4.56538782e-16,82.9779221 0,79.25 L0,6.75 C-4.56538782e-16,3.02207794 3.02207794,6.84808173e-16 6.75,0 L48,0 Z" id="path-2"></path>
        <filter x="-14.3%" y="-9.3%" width="128.6%" height="123.3%" filterUnits="objectBoundingBox" id="filter-3">
            <feOffset dx="0" dy="2" in="SourceAlpha" result="shadowOffsetOuter1"></feOffset>
            <feGaussianBlur stdDeviation="3" in="shadowOffsetOuter1" result="shadowBlurOuter1"></feGaussianBlur>
            <feColorMatrix values="0 0 0 0 0.445968326   0 0 0 0 0.298336923   0 0 0 0 0.679095724  0 0 0 0.5 0" type="matrix" in="shadowBlurOuter1"></feColorMatrix>
        </filter>
        <linearGradient x1="50%" y1="50%" x2="7.99354867%" y2="88.8892261%" id="linearGradient-4">
            <stop stop-color="#FFFFFF" stop-opacity="0.1" offset="0%"></stop>
            <stop stop-color="#FFFFFF" stop-opacity="0.3" offset="100%"></stop>
        </linearGradient>
        <path d="M47.9990267,0 L70,22 L54.7490267,22 C51.0211046,22 47.9990267,18.9779221 47.9990267,15.25 L47.9990267,0 L47.9990267,0 Z" id="path-5"></path>
        <filter x="-15.9%" y="-11.4%" width="131.8%" height="131.8%" filterUnits="objectBoundingBox" id="filter-6">
            <feOffset dx="0" dy="1" in="SourceAlpha" result="shadowOffsetOuter1"></feOffset>
            <feGaussianBlur stdDeviation="1" in="shadowOffsetOuter1" result="shadowBlurOuter1"></feGaussianBlur>
            <feComposite in="shadowBlurOuter1" in2="SourceAlpha" operator="out" result="shadowBlurOuter1"></feComposite>
            <feColorMatrix values="0 0 0 0 0   0 0 0 0 0   0 0 0 0 0  0 0 0 0.05 0" type="matrix" in="shadowBlurOuter1"></feColorMatrix>
        </filter>
    </defs>
    <g id="mimetypes/96/application-x-gnonogram-puzzle" stroke="none" stroke-width="1" fill="none" fill-rule="evenodd">
        <g id="编组-2" transform="translate(13, 5)">
            <g id="蒙版">
                <use fill="black" fill-opacity="1" filter="url(#filter-3)" xlink:href="#path-2"></use>
                <use fill="url(#linearGradient-1)" fill-rule="evenodd" xlink:href="#path-2"></use>
            </g>
            <g id="折角">
                <use fill="black" fill-opacity="1" filter="url(#filter-6)" xlink:href="#path-5"></use>
                <use fill="url(#linearGradient-4)" fill-rule="evenodd" xlink:href="#path-5"></use>
            </g>
        </g>
        <path d="M43.073504,60.9350578 C42.9621265,59.6035524 44.2380159,58.3448318 46.0211115,58.2761779 C46.3333388,58.275601 46.6679877,58.322101 47.0208157,58.4011511 C47.4370881,58.4948435 48.0182176,58.5109974 48.3676773,58.5403397 C48.490242,58.4585319 48.4842275,58.3817895 48.3234713,57.9758199 C47.845506,56.7689185 46.8623894,55.4225286 45.6124268,55.0509666 C45.3484156,54.9723896 44.9489585,54.9247126 44.5620962,54.9160588 C41.972816,54.9827511 40.0855856,57.4739193 38.9057937,59.334106 C38.5285995,59.9257528 38.0865096,60.592192 37.9233752,60.8150923 C37.0919637,61.9510551 36.1214207,62.6000481 35.1464075,62.8846561 C34.7779984,62.9921947 33.8935491,63.0364101 33.5261027,62.9656562 C31.5723349,62.5893519 30.2671005,60.7186883 30.4514199,58.7158861 C30.4669944,58.546732 30.4914733,58.4093434 30.505831,58.4106011 C30.5201899,58.411755 30.5981024,58.5014089 30.6789742,58.6094552 C31.0142264,59.0576788 31.7456914,59.3302983 32.3188159,59.4674331 C32.7452869,59.5695486 33.1623935,59.5852409 33.5614862,59.51451 C34.6416721,59.3227752 35.3322648,58.8662901 36.4599852,57.3318345 C38.1683326,55.0073512 39.3860705,52.8775911 41.783955,47.6318545 C43.3659168,44.1710622 44.2310526,42.438641 45.1781523,40.83507 C46.3990717,38.7678831 47.6860056,37.1047851 48.8931111,36.0342685 C50.7386587,34.397559 52.9247851,33.4074655 55.4369922,33.0705421 C56.1939671,32.9690035 57.5033444,32.9783497 58.2187766,33.0903883 C60.7856042,33.492181 62.7597033,34.7860709 63.9744357,36.8627886 C64.3662987,37.532724 64.7036098,38.4829635 64.8595142,39.3561491 C64.9589317,39.9129382 64.9589777,41.1542011 64.8596326,41.7138056 C64.7780746,42.1731176 64.5712885,42.9241569 64.4309931,43.2706227 L64.3349221,43.5078999 L64.3304371,43.0800417 C64.3116231,41.2754012 63.141631,39.308276 61.3912896,38.8168639 C61.0484459,38.720633 60.9415246,38.7092099 60.3983543,38.7107099 C59.8660826,38.7118638 59.7404336,38.7258253 59.3978383,38.8191716 C57.4350666,39.3539337 55.5484905,41.9046404 54.9042593,44.4929164 C54.4315668,46.3920108 54.505889,48.4852862 55.1257424,50.7309272 C55.7080668,52.8405987 58.4976574,55.7021635 59.0686588,56.1270447 C61.0946161,57.6345695 62.4617763,58.1459547 64.0113886,59.2270982 C64.5456539,59.5975986 64.6950688,59.7843719 64.7431779,60.1417415 C64.8025409,60.5826612 64.5352487,60.9946078 63.8599957,61.5029123 C63.6732656,61.6434855 63.3207849,61.9191973 63.0767066,62.1156052 C62.2663649,62.7677137 62.167849,62.9423946 61.623401,62.94521 C61.3136773,62.9463639 61.242245,62.9330946 61.0459975,62.8350176 C60.4192188,62.5216326 60.160915,62.0841167 60.4642861,61.4566545 C60.745667,60.8746769 61.3838503,60.6068689 61.9884927,60.8170423 C62.1250379,60.8644654 62.2752509,60.9635693 62.4257341,61.1054464 C62.6704852,61.3361698 62.5624013,61.0692156 62.6332298,60.9346078 C62.7096818,60.7891653 62.7235508,60.2802147 62.6601053,59.9480221 C62.4368293,58.7788284 61.411916,58.3001664 60.2608971,58.3641126 C59.5900826,58.4012665 58.9516314,58.7088938 58.4192021,59.2512367 C57.292148,60.8967154 55.7341097,62.9597831 54.0102149,62.9363831 C53.7129571,62.9698447 53.4211492,62.9433062 53.1910595,62.8530753 C53.0163389,62.7844214 52.8430235,62.6622174 52.6910936,62.5061826 C52.261583,62.076086 52.3086272,61.616347 52.3494487,61.0630541 C52.3957592,60.4353726 52.782407,59.9622721 53.1525633,59.6106601 C53.6893384,59.1673981 54.235363,58.9859325 54.8273841,58.9244325 C55.5700438,58.8525478 56.2604532,58.7923746 56.9339644,58.9722017 C57.3074902,59.094025 57.4318477,59.0965288 57.4745909,58.9825864 C57.5383124,58.8135131 57.1858213,57.4191231 56.8939272,57.0088495 C56.4106466,56.3295796 55.9302859,56.0530716 55.1290682,55.8163944 C54.7601241,55.7074712 53.8930057,55.6670404 53.455172,55.7385097 C51.0101461,56.2020217 50.1935253,58.0294391 49.2242927,59.7475641 C48.1042146,61.715174 47.0778097,62.4648287 46.0258254,62.8312214 C45.8723188,62.8846446 45.6640319,62.9228369 45.4495719,62.9431446 C44.0387703,63.0766909 43.1777308,62.1811899 43.073504,60.935127 L43.073504,60.9350578 Z" id="路径" fill="#FFFFFF"></path>
    </g>
</svg>