<?xml version="1.0" encoding="UTF-8"?>
<svg width="96px" height="96px" viewBox="0 0 96 96" version="1.1" xmlns="http://www.w3.org/2000/svg" xmlns:xlink="http://www.w3.org/1999/xlink">
    <title>mimetypes/96/application-x-nzb</title>
    <defs>
        <linearGradient x1="50%" y1="0%" x2="50%" y2="100%" id="linearGradient-1">
            <stop stop-color="#B7EE43" offset="0%"></stop>
            <stop stop-color="#6AD500" offset="100%"></stop>
        </linearGradient>
        <path d="M48,0 L70,22 L69.9998374,6.70264936 C69.9999457,6.71842011 70,6.73420372 70,6.75 L70,79.25 C70,82.9779221 66.9779221,86 63.25,86 L6.75,86 C3.02207794,86 4.56538782e-16,82.9779221 0,79.25 L0,6.75 C-4.56538782e-16,3.02207794 3.02207794,6.84808173e-16 6.75,0 L48,0 Z" id="path-2"></path>
        <filter x="-14.3%" y="-9.3%" width="128.6%" height="123.3%" filterUnits="objectBoundingBox" id="filter-3">
            <feOffset dx="0" dy="2" in="SourceAlpha" result="shadowOffsetOuter1"></feOffset>
            <feGaussianBlur stdDeviation="3" in="shadowOffsetOuter1" result="shadowBlurOuter1"></feGaussianBlur>
            <feColorMatrix values="0 0 0 0 0.505882353   0 0 0 0 0.741176471   0 0 0 0 0  0 0 0 0.5 0" type="matrix" in="shadowBlurOuter1"></feColorMatrix>
        </filter>
        <linearGradient x1="50%" y1="50%" x2="7.99354867%" y2="88.8892261%" id="linearGradient-4">
            <stop stop-color="#FFFFFF" stop-opacity="0.1" offset="0%"></stop>
            <stop stop-color="#FFFFFF" stop-opacity="0.3" offset="100%"></stop>
        </linearGradient>
        <path d="M47.9990267,0 L70,22 L54.7490267,22 C51.0211046,22 47.9990267,18.9779221 47.9990267,15.25 L47.9990267,0 L47.9990267,0 Z" id="path-5"></path>
        <filter x="-15.9%" y="-11.4%" width="131.8%" height="131.8%" filterUnits="objectBoundingBox" id="filter-6">
            <feOffset dx="0" dy="1" in="SourceAlpha" result="shadowOffsetOuter1"></feOffset>
            <feGaussianBlur stdDeviation="1" in="shadowOffsetOuter1" result="shadowBlurOuter1"></feGaussianBlur>
            <feComposite in="shadowBlurOuter1" in2="SourceAlpha" operator="out" result="shadowBlurOuter1"></feComposite>
            <feColorMatrix values="0 0 0 0 0   0 0 0 0 0   0 0 0 0 0  0 0 0 0.05 0" type="matrix" in="shadowBlurOuter1"></feColorMatrix>
        </filter>
    </defs>
    <g id="mimetypes/96/application-x-nzb" stroke="none" stroke-width="1" fill="none" fill-rule="evenodd">
        <g id="编组" transform="translate(13, 5)">
            <g id="蒙版">
                <use fill="black" fill-opacity="1" filter="url(#filter-3)" xlink:href="#path-2"></use>
                <use fill="url(#linearGradient-1)" fill-rule="evenodd" xlink:href="#path-2"></use>
            </g>
            <g id="折角">
                <use fill="black" fill-opacity="1" filter="url(#filter-6)" xlink:href="#path-5"></use>
                <use fill="url(#linearGradient-4)" fill-rule="evenodd" xlink:href="#path-5"></use>
            </g>
        </g>
        <path d="M42,32 L42,36 L44,36 L44,32 L42,32 L42,32 Z M52,32 L52,34 L54,34 L54,32 L52,32 L52,32 Z M52,34 L50,34 L50,36 L46,36 L46,38 L44,38 L44,42 L46,42 L46,40 L52,40 L52,36 L52,34 L52,34 Z M48,42 L48,44 L50,44 L50,46 L54,46 L54,42 L50,42 L48,42 L48,42 Z M42,46 L42,50 L42,56 L36,56 L48,68 L60,56 L54,56 L54,50 L50,50 L50,48 L46,48 L46,46 L42,46 L42,46 Z" id="path4234" fill="#FFFFFF"></path>
    </g>
</svg>