<?xml version="1.0" encoding="UTF-8"?>
<svg width="96px" height="96px" viewBox="0 0 96 96" version="1.1" xmlns="http://www.w3.org/2000/svg" xmlns:xlink="http://www.w3.org/1999/xlink">
    <title>mimetypes/96/application-x-audacity-project</title>
    <defs>
        <linearGradient x1="50%" y1="0%" x2="50%" y2="100%" id="linearGradient-1">
            <stop stop-color="#B7EE43" offset="0%"></stop>
            <stop stop-color="#6AD500" offset="100%"></stop>
        </linearGradient>
        <path d="M48,0 L70,22 L69.9998374,6.70264936 C69.9999457,6.71842011 70,6.73420372 70,6.75 L70,79.25 C70,82.9779221 66.9779221,86 63.25,86 L6.75,86 C3.02207794,86 4.56538782e-16,82.9779221 0,79.25 L0,6.75 C-4.56538782e-16,3.02207794 3.02207794,6.84808173e-16 6.75,0 L48,0 Z" id="path-2"></path>
        <filter x="-14.3%" y="-9.3%" width="128.6%" height="123.3%" filterUnits="objectBoundingBox" id="filter-3">
            <feOffset dx="0" dy="2" in="SourceAlpha" result="shadowOffsetOuter1"></feOffset>
            <feGaussianBlur stdDeviation="3" in="shadowOffsetOuter1" result="shadowBlurOuter1"></feGaussianBlur>
            <feColorMatrix values="0 0 0 0 0.505882353   0 0 0 0 0.741176471   0 0 0 0 0  0 0 0 0.5 0" type="matrix" in="shadowBlurOuter1"></feColorMatrix>
        </filter>
        <linearGradient x1="50%" y1="50%" x2="7.99354867%" y2="88.8892261%" id="linearGradient-4">
            <stop stop-color="#FFFFFF" stop-opacity="0.1" offset="0%"></stop>
            <stop stop-color="#FFFFFF" stop-opacity="0.3" offset="100%"></stop>
        </linearGradient>
        <path d="M47.9990267,0 L70,22 L54.7490267,22 C51.0211046,22 47.9990267,18.9779221 47.9990267,15.25 L47.9990267,0 L47.9990267,0 Z" id="path-5"></path>
        <filter x="-15.9%" y="-11.4%" width="131.8%" height="131.8%" filterUnits="objectBoundingBox" id="filter-6">
            <feOffset dx="0" dy="1" in="SourceAlpha" result="shadowOffsetOuter1"></feOffset>
            <feGaussianBlur stdDeviation="1" in="shadowOffsetOuter1" result="shadowBlurOuter1"></feGaussianBlur>
            <feComposite in="shadowBlurOuter1" in2="SourceAlpha" operator="out" result="shadowBlurOuter1"></feComposite>
            <feColorMatrix values="0 0 0 0 0   0 0 0 0 0   0 0 0 0 0  0 0 0 0.05 0" type="matrix" in="shadowBlurOuter1"></feColorMatrix>
        </filter>
    </defs>
    <g id="mimetypes/96/application-x-audacity-project" stroke="none" stroke-width="1" fill="none" fill-rule="evenodd">
        <g id="编组-2" transform="translate(13, 5)">
            <g id="蒙版">
                <use fill="black" fill-opacity="1" filter="url(#filter-3)" xlink:href="#path-2"></use>
                <use fill="url(#linearGradient-1)" fill-rule="evenodd" xlink:href="#path-2"></use>
            </g>
            <g id="折角">
                <use fill="black" fill-opacity="1" filter="url(#filter-6)" xlink:href="#path-5"></use>
                <use fill="url(#linearGradient-4)" fill-rule="evenodd" xlink:href="#path-5"></use>
            </g>
        </g>
        <path d="M59.1274718,46.9319948 C59.6754718,46.93 60.1954718,47.506 60.1954718,48.22 L60.1954718,48.586 C60.1954718,49.122 60.6714718,50.366 63.3054718,52.008 C63.3054718,52.008 66.7454718,53.866 67.7214718,57.222 C67.7214718,57.222 68.7934718,60.216 67.0454718,63.994 C67.0454718,63.994 66.8794718,64.342 66.5154718,64.196 C66.2274718,64.08 66.3254718,63.714 66.3254718,63.714 C66.3254718,63.714 67.5034718,60.77 66.5234718,58.384 C66.5234718,58.384 65.6194718,55.106 60.0334718,53.618 L60.0330706,53.7997847 C60.0330048,53.8293416 60.0329311,53.8623156 60.0328498,53.8985676 L60.0322717,54.1543062 C60.0321605,54.2031153 60.0320422,54.2549248 60.0319167,54.3095959 L60.0310808,54.6708508 C60.0238935,57.752269 60.0019631,66.5415439 59.9854718,66.624 C59.9634718,68.528 58.3814718,70.528 55.9514718,71.474 C52.9854718,72.628 49.8854718,71.774 49.0254718,69.568 C48.1654718,67.36 49.8354718,64.516 52.8454718,63.478 C54.8894718,62.774 56.6754718,62.824 58.0594718,63.542 L58.0954718,48.228 C58.0974718,47.514 58.5814718,46.934 59.1274718,46.9319948 Z M52.4142136,34 L60,41.5857864 L60,45 L58,45 L58,42 L52,42 L52,36 L36,36 L36,64 L47.4,64 L47.4,66 L34,66 L34,34 L52.4142136,34 Z" id="Combined-Shape" fill="#FFFFFF"></path>
    </g>
</svg>