<?xml version="1.0" encoding="UTF-8"?>
<svg width="96px" height="96px" viewBox="0 0 96 96" version="1.1" xmlns="http://www.w3.org/2000/svg" xmlns:xlink="http://www.w3.org/1999/xlink">
    <title>mimetypes/96/application-vnd.iccprofile</title>
    <defs>
        <linearGradient x1="50%" y1="0%" x2="50%" y2="99.7939317%" id="linearGradient-1">
            <stop stop-color="#9B9CC1" offset="0%"></stop>
            <stop stop-color="#8177B2" offset="100%"></stop>
        </linearGradient>
        <path d="M48,0 L70,22 L69.9998374,6.70264936 C69.9999457,6.71842011 70,6.73420372 70,6.75 L70,79.25 C70,82.9779221 66.9779221,86 63.25,86 L6.75,86 C3.02207794,86 4.56538782e-16,82.9779221 0,79.25 L0,6.75 C-4.56538782e-16,3.02207794 3.02207794,6.84808173e-16 6.75,0 L48,0 Z" id="path-2"></path>
        <filter x="-14.3%" y="-9.3%" width="128.6%" height="123.3%" filterUnits="objectBoundingBox" id="filter-3">
            <feOffset dx="0" dy="2" in="SourceAlpha" result="shadowOffsetOuter1"></feOffset>
            <feGaussianBlur stdDeviation="3" in="shadowOffsetOuter1" result="shadowBlurOuter1"></feGaussianBlur>
            <feColorMatrix values="0 0 0 0 0.539420908   0 0 0 0 0.474509804   0 0 0 0 0.701960784  0 0 0 0.5 0" type="matrix" in="shadowBlurOuter1"></feColorMatrix>
        </filter>
        <linearGradient x1="50%" y1="50%" x2="7.99354867%" y2="88.8892261%" id="linearGradient-4">
            <stop stop-color="#FFFFFF" stop-opacity="0.1" offset="0%"></stop>
            <stop stop-color="#FFFFFF" stop-opacity="0.3" offset="100%"></stop>
        </linearGradient>
        <path d="M47.9990267,0 L70,22 L54.7490267,22 C51.0211046,22 47.9990267,18.9779221 47.9990267,15.25 L47.9990267,0 L47.9990267,0 Z" id="path-5"></path>
        <filter x="-15.9%" y="-11.4%" width="131.8%" height="131.8%" filterUnits="objectBoundingBox" id="filter-6">
            <feOffset dx="0" dy="1" in="SourceAlpha" result="shadowOffsetOuter1"></feOffset>
            <feGaussianBlur stdDeviation="1" in="shadowOffsetOuter1" result="shadowBlurOuter1"></feGaussianBlur>
            <feComposite in="shadowBlurOuter1" in2="SourceAlpha" operator="out" result="shadowBlurOuter1"></feComposite>
            <feColorMatrix values="0 0 0 0 0   0 0 0 0 0   0 0 0 0 0  0 0 0 0.05 0" type="matrix" in="shadowBlurOuter1"></feColorMatrix>
        </filter>
    </defs>
    <g id="mimetypes/96/application-vnd.iccprofile" stroke="none" stroke-width="1" fill="none" fill-rule="evenodd">
        <g id="编组-2" transform="translate(13, 5)">
            <g id="蒙版">
                <use fill="black" fill-opacity="1" filter="url(#filter-3)" xlink:href="#path-2"></use>
                <use fill="url(#linearGradient-1)" fill-rule="evenodd" xlink:href="#path-2"></use>
            </g>
            <g id="折角">
                <use fill="black" fill-opacity="1" filter="url(#filter-6)" xlink:href="#path-5"></use>
                <use fill="url(#linearGradient-4)" fill-rule="evenodd" xlink:href="#path-5"></use>
            </g>
        </g>
        <path d="M54,56.0000889 L54,64 L60.8000133,64 C61.4648951,64 62,63.4648951 62,62.8000133 L62,56 L54.0000889,56 L54,56.0000889 Z M44,56 L52,56 L52,64 L44,64 Z M34,56 L34,62.8000889 C34,63.4648536 34.5351733,64 35.1999111,64 L42,64 L42,56 L34,56 Z M34,46 L42,46 L42,54 L34,54 Z M44,46 L52,46 L52,54 L44,54 Z M54,46 L62,46 L62,54 L54,54 Z M54,36 L54,44 L62,44 L62,37.1999111 C62,36.5352 61.4648891,36 60.8,36 L54,36 Z M44,36 L52,36 L52,44 L44,44 Z M35.1999111,36 C34.5352,36 34,36.5352 34,37.1999111 L34,44 L42,44 L42,36 L35.1999111,36 Z" id="形状结合" fill="#FFFFFF"></path>
    </g>
</svg>