<?xml version="1.0" encoding="UTF-8"?>
<svg width="96px" height="96px" viewBox="0 0 96 96" version="1.1" xmlns="http://www.w3.org/2000/svg" xmlns:xlink="http://www.w3.org/1999/xlink">
    <title>mimetypes/96/audio-x-mpeg</title>
    <defs>
        <linearGradient x1="50%" y1="0%" x2="50%" y2="100%" id="linearGradient-1">
            <stop stop-color="#B7EE43" offset="0%"></stop>
            <stop stop-color="#6AD500" offset="100%"></stop>
        </linearGradient>
        <path d="M48,0 L70,22 L69.9998374,6.70264936 C69.9999457,6.71842011 70,6.73420372 70,6.75 L70,79.25 C70,82.9779221 66.9779221,86 63.25,86 L6.75,86 C3.02207794,86 4.56538782e-16,82.9779221 0,79.25 L0,6.75 C-4.56538782e-16,3.02207794 3.02207794,6.84808173e-16 6.75,0 L48,0 Z" id="path-2"></path>
        <filter x="-14.3%" y="-9.3%" width="128.6%" height="123.3%" filterUnits="objectBoundingBox" id="filter-3">
            <feOffset dx="0" dy="2" in="SourceAlpha" result="shadowOffsetOuter1"></feOffset>
            <feGaussianBlur stdDeviation="3" in="shadowOffsetOuter1" result="shadowBlurOuter1"></feGaussianBlur>
            <feColorMatrix values="0 0 0 0 0.505882353   0 0 0 0 0.741176471   0 0 0 0 0  0 0 0 0.5 0" type="matrix" in="shadowBlurOuter1"></feColorMatrix>
        </filter>
        <linearGradient x1="50%" y1="50%" x2="7.99354867%" y2="88.8892261%" id="linearGradient-4">
            <stop stop-color="#FFFFFF" stop-opacity="0.1" offset="0%"></stop>
            <stop stop-color="#FFFFFF" stop-opacity="0.3" offset="100%"></stop>
        </linearGradient>
        <path d="M47.9990267,0 L70,22 L54.7490267,22 C51.0211046,22 47.9990267,18.9779221 47.9990267,15.25 L47.9990267,0 L47.9990267,0 Z" id="path-5"></path>
        <filter x="-15.9%" y="-11.4%" width="131.8%" height="131.8%" filterUnits="objectBoundingBox" id="filter-6">
            <feOffset dx="0" dy="1" in="SourceAlpha" result="shadowOffsetOuter1"></feOffset>
            <feGaussianBlur stdDeviation="1" in="shadowOffsetOuter1" result="shadowBlurOuter1"></feGaussianBlur>
            <feComposite in="shadowBlurOuter1" in2="SourceAlpha" operator="out" result="shadowBlurOuter1"></feComposite>
            <feColorMatrix values="0 0 0 0 0   0 0 0 0 0   0 0 0 0 0  0 0 0 0.05 0" type="matrix" in="shadowBlurOuter1"></feColorMatrix>
        </filter>
    </defs>
    <g id="mimetypes/96/audio-x-mpeg" stroke="none" stroke-width="1" fill="none" fill-rule="evenodd">
        <g id="编组-2" transform="translate(13, 5)">
            <g id="蒙版">
                <use fill="black" fill-opacity="1" filter="url(#filter-3)" xlink:href="#path-2"></use>
                <use fill="url(#linearGradient-1)" fill-rule="evenodd" xlink:href="#path-2"></use>
            </g>
            <g id="折角">
                <use fill="black" fill-opacity="1" filter="url(#filter-6)" xlink:href="#path-5"></use>
                <use fill="url(#linearGradient-4)" fill-rule="evenodd" xlink:href="#path-5"></use>
            </g>
        </g>
        <path d="M48,64 C38.0748,64 30,55.9252 30,46 C30,36.0748 38.0748,28 48,28 C57.9252,28 66,36.0748 66,46 C66,55.9252 57.9252,64 48,64 L48,64 Z M50,68 C52.7614237,68 54,70 54,72 C54,74 52.7806759,76 50,76 L48.0023122,76 L48.0023122,80 L46,80 L46,68 L50,68 Z M36,68 L39,75.5 L42,68 L44,68 L44,80 L42,80 L42,73 L40,78 L38,78 L36,73 L36,80 L34,80 L34,68 L36,68 Z M58.4292577,68 C59.4292627,68 60.3116068,68.2683797 61.0763165,68.8051471 C61.8410262,69.3419144 62.2233754,70.117642 62.2233754,71.1323529 C62.2233754,72.2352996 61.6792632,73.0441151 60.5910224,73.5588235 C61.2674964,73.7794129 61.8042557,74.1654384 62.2013165,74.7169118 C62.5983774,75.2683851 62.7969048,75.8897024 62.7969048,76.5808824 C62.7969048,77.5808874 62.3888206,78.4007321 61.5726401,79.0404412 C60.7564595,79.6801503 59.6939701,80 58.3851401,80 C57.2527815,80 56.2711736,79.7169146 55.4402871,79.1507353 C54.6094006,78.584556 54.0983763,77.8382399 53.9071989,76.9117647 L56.642493,76.4044118 C56.7160228,76.8308845 56.9108738,77.1838221 57.2270518,77.4632353 C57.5432299,77.7426485 57.9292554,77.8823529 58.3851401,77.8823529 C58.8116128,77.8823529 59.1682269,77.7500013 59.454993,77.4852941 C59.7417592,77.2205869 59.8851401,76.8676493 59.8851401,76.4264706 C59.8851401,75.9117621 59.723377,75.503678 59.399846,75.2022059 C59.0763149,74.9007338 58.5910257,74.75 57.9439636,74.75 L57.524846,74.7720588 L57.7454342,72.8088235 L58.0321989,72.8088235 C58.4145537,72.8088235 58.7307271,72.6875012 58.9807283,72.4448529 C59.2307296,72.2022047 59.3557283,71.8823549 59.3557283,71.4852941 C59.3557283,71.191175 59.2674939,70.9227953 59.0910224,70.6801471 C58.914551,70.4374988 58.6572006,70.3161765 58.3189636,70.3161765 C57.7454313,70.3161765 57.3410236,70.5955854 57.1057283,71.1544118 L54.3704342,70.7132353 C55.0174962,68.9044027 56.3704239,68 58.4292577,68 Z M50,70 L48,70 L48,74 L50,74 C51.1121754,74 52,73.1098078 52,72 C52,70.8878246 51.1098078,70 50,70 Z M48,30 C56.8213333,30 64,37.1768889 64,46 C64,54.8231111 56.8213333,62 48,62 C39.1786667,62 32,54.8231111 32,46 C32,37.1768889 39.1786667,30 48,30 Z M49.1274718,32.9319948 C48.5814718,32.934 48.0974718,33.514 48.0954718,34.228 L48.0594718,49.542 C46.6754718,48.824 44.8894718,48.774 42.8454718,49.478 C39.8354718,50.516 38.1654718,53.36 39.0254718,55.568 C39.8854718,57.774 42.9854718,58.628 45.9514718,57.474 C48.3814718,56.528 49.9634718,54.528 49.9854718,52.624 C50.0019631,52.5415439 50.0238935,43.752269 50.0310808,40.6708508 L50.0319167,40.3095959 C50.0320422,40.2549248 50.0321605,40.2031153 50.0322717,40.1543062 L50.0328498,39.8985676 C50.0329311,39.8623156 50.0330048,39.8293416 50.0330706,39.7997847 L50.0334718,39.618 C55.6194718,41.106 56.5234718,44.384 56.5234718,44.384 C57.5034718,46.77 56.3254718,49.714 56.3254718,49.714 C56.3254718,49.714 56.2274718,50.08 56.5154718,50.196 C56.8794718,50.342 57.0454718,49.994 57.0454718,49.994 C58.7934718,46.216 57.7214718,43.222 57.7214718,43.222 C56.7454718,39.866 53.3054718,38.008 53.3054718,38.008 C50.6714718,36.366 50.1954718,35.122 50.1954718,34.586 L50.1954718,34.22 C50.1954718,33.506 49.6754718,32.93 49.1274718,32.9319948 Z" id="Combined-Shape" fill="#FFFFFF"></path>
    </g>
</svg>