<?xml version="1.0" encoding="UTF-8"?>
<svg width="96px" height="96px" viewBox="0 0 96 96" version="1.1" xmlns="http://www.w3.org/2000/svg" xmlns:xlink="http://www.w3.org/1999/xlink">
    <title>mimetypes/96/opera-extension</title>
    <defs>
        <linearGradient x1="50%" y1="0%" x2="50%" y2="100%" id="linearGradient-1">
            <stop stop-color="#F33C3C" offset="0%"></stop>
            <stop stop-color="#DC2121" offset="99.6278505%"></stop>
        </linearGradient>
        <path d="M48,0 L70,22 L69.9998374,6.70264936 C69.9999457,6.71842011 70,6.73420372 70,6.75 L70,79.25 C70,82.9779221 66.9779221,86 63.25,86 L6.75,86 C3.02207794,86 4.56538782e-16,82.9779221 0,79.25 L0,6.75 C-4.56538782e-16,3.02207794 3.02207794,6.84808173e-16 6.75,0 L48,0 Z" id="path-2"></path>
        <filter x="-14.3%" y="-9.3%" width="128.6%" height="123.3%" filterUnits="objectBoundingBox" id="filter-3">
            <feOffset dx="0" dy="2" in="SourceAlpha" result="shadowOffsetOuter1"></feOffset>
            <feGaussianBlur stdDeviation="3" in="shadowOffsetOuter1" result="shadowBlurOuter1"></feGaussianBlur>
            <feColorMatrix values="0 0 0 0 0.6622226   0 0 0 0 0   0 0 0 0 0  0 0 0 0.5 0" type="matrix" in="shadowBlurOuter1"></feColorMatrix>
        </filter>
        <linearGradient x1="50%" y1="50%" x2="7.99354867%" y2="88.8892261%" id="linearGradient-4">
            <stop stop-color="#FFFFFF" stop-opacity="0.1" offset="0%"></stop>
            <stop stop-color="#FFFFFF" stop-opacity="0.3" offset="100%"></stop>
        </linearGradient>
        <path d="M47.9990267,0 L70,22 L54.7490267,22 C51.0211046,22 47.9990267,18.9779221 47.9990267,15.25 L47.9990267,0 L47.9990267,0 Z" id="path-5"></path>
        <filter x="-15.9%" y="-11.4%" width="131.8%" height="131.8%" filterUnits="objectBoundingBox" id="filter-6">
            <feOffset dx="0" dy="1" in="SourceAlpha" result="shadowOffsetOuter1"></feOffset>
            <feGaussianBlur stdDeviation="1" in="shadowOffsetOuter1" result="shadowBlurOuter1"></feGaussianBlur>
            <feComposite in="shadowBlurOuter1" in2="SourceAlpha" operator="out" result="shadowBlurOuter1"></feComposite>
            <feColorMatrix values="0 0 0 0 0   0 0 0 0 0   0 0 0 0 0  0 0 0 0.05 0" type="matrix" in="shadowBlurOuter1"></feColorMatrix>
        </filter>
    </defs>
    <g id="mimetypes/96/opera-extension" stroke="none" stroke-width="1" fill="none" fill-rule="evenodd">
        <g id="编组-2" transform="translate(13, 5)">
            <g id="蒙版">
                <use fill="black" fill-opacity="1" filter="url(#filter-3)" xlink:href="#path-2"></use>
                <use fill="url(#linearGradient-1)" fill-rule="evenodd" xlink:href="#path-2"></use>
            </g>
            <g id="折角">
                <use fill="black" fill-opacity="1" filter="url(#filter-6)" xlink:href="#path-5"></use>
                <use fill="url(#linearGradient-4)" fill-rule="evenodd" xlink:href="#path-5"></use>
            </g>
        </g>
        <path d="M46.3999997,32.3999996 C43.8783483,32.3999996 41.8341462,33.8063524 41.8341462,35.541176 C41.9075019,36.1883979 42.3192428,37.0056859 42.5365852,37.2862739 C43.5902437,38.6823523 43.5902437,39.5549013 43.3268291,40.0784307 L34.809756,40.0784307 C33.2531512,40.0784307 32,41.3237326 32,42.8705874 L32,49.9382342 C32.5268293,50.1999989 33.404878,50.1999989 34.809756,49.1529401 C35.0921126,48.9369591 35.9145521,48.5277971 36.5658536,48.4549009 C38.3116119,48.4549009 39.7268291,50.4862989 39.7268291,52.9921556 C39.7268291,55.4980123 38.3116119,57.5294103 36.5658536,57.5294103 C36.0300598,57.5203916 35.2155052,57.0441998 34.809756,56.8313711 C33.404878,55.7843123 32.5268293,55.7843123 32,56.046077 L32,65.2078413 C32,66.7546962 33.2531512,67.9999981 34.809756,67.9999981 L46.1365851,67.9999981 C46.3999997,67.4764687 46.3999997,66.6039197 45.3463412,65.2078413 C45.1289989,64.9272533 44.7172579,64.1099653 44.6439022,63.4627434 C44.6439022,61.7279199 46.6881044,60.321567 49.2097558,60.321567 C51.7314072,60.321567 53.7756093,61.7279199 53.7756093,63.4627434 C53.7665338,63.9951812 53.2873405,64.8046337 53.0731703,65.2078413 C52.0195118,66.6039197 52.0195118,67.4764687 52.2829264,67.9999981 L57.2878044,67.9999981 C58.8444093,67.9999981 60.0975605,66.7546962 60.0975605,65.2078413 L60.0975605,57.4421554 C60.6243897,57.1803907 61.5024385,57.1803907 62.9073165,58.2274495 C63.3130656,58.4402781 64.1276202,58.9164707 64.663414,58.9254887 C66.4091724,58.9254887 67.8243896,56.8940906 67.8243896,54.388234 C67.8243896,51.8823773 66.4091724,49.8509793 64.663414,49.8509793 C64.0121126,49.9238755 63.1896731,50.3330374 62.9073165,50.5490184 C61.5024385,51.5960772 60.6243897,51.5960772 60.0975605,51.3343125 L60.0975605,42.8705874 C60.0975605,41.3237326 58.8444093,40.0784307 57.2878044,40.0784307 L49.4731704,40.0784307 C49.2097558,39.5549013 49.2097558,38.6823523 50.2634143,37.2862739 C50.4775844,36.8830662 50.9567785,36.0736137 50.9658533,35.541176 C50.9658533,33.8063524 48.9216511,32.3999996 46.3999997,32.3999996 L46.3999997,32.3999996 Z" id="rect4096" fill="#FFFFFF"></path>
    </g>
</svg>