<svg xmlns="http://www.w3.org/2000/svg" xmlns:xlink="http://www.w3.org/1999/xlink" width="96" height="96" viewBox="0 0 96 96">
  <defs>
    <linearGradient id="package-x-generic-c" x1="50%" x2="50%" y1="0%" y2="100%">
      <stop offset="0%" stop-color="#6F99D9"/>
      <stop offset="100%" stop-color="#2A90C8"/>
    </linearGradient>
    <path id="package-x-generic-b" d="M42,0 L64,22 L64,69 C64,73.9705627 59.9705627,78 55,78 L9,78 C4.02943725,78 6.08718376e-16,73.9705627 0,69 L0,9 C-6.08718376e-16,4.02943725 4.02943725,4.46579124e-15 9,3.55271368e-15 L42,0 Z"/>
    <filter id="package-x-generic-a" width="131.2%" height="125.6%" x="-15.6%" y="-10.3%" filterUnits="objectBoundingBox">
      <feOffset dy="2" in="SourceAlpha" result="shadowOffsetOuter1"/>
      <feGaussianBlur in="shadowOffsetOuter1" result="shadowBlurOuter1" stdDeviation="3"/>
      <feColorMatrix in="shadowBlurOuter1" values="0 0 0 0 0.474509804   0 0 0 0 0.619607843   0 0 0 0 0.701960784  0 0 0 0.5 0"/>
    </filter>
    <linearGradient id="package-x-generic-f" x1="50%" x2="11.493%" y1="50%" y2="88.683%">
      <stop offset="0%" stop-color="#FFF" stop-opacity=".1"/>
      <stop offset="100%" stop-color="#FFF" stop-opacity=".3"/>
    </linearGradient>
    <path id="package-x-generic-e" d="M42,0 L64,22 L51,22 C46.0294373,22 42,17.9705627 42,13 L42,0 Z"/>
    <filter id="package-x-generic-d" width="150%" height="150%" x="-25%" y="-15.9%" filterUnits="objectBoundingBox">
      <feOffset dy="2" in="SourceAlpha" result="shadowOffsetOuter1"/>
      <feGaussianBlur in="shadowOffsetOuter1" result="shadowBlurOuter1" stdDeviation="1.5"/>
      <feComposite in="shadowBlurOuter1" in2="SourceAlpha" operator="out" result="shadowBlurOuter1"/>
      <feColorMatrix in="shadowBlurOuter1" values="0 0 0 0 0   0 0 0 0 0   0 0 0 0 0  0 0 0 0.05 0"/>
    </filter>
  </defs>
  <g fill="none" fill-rule="evenodd">
    <g transform="translate(16 10)">
      <use fill="#000" filter="url(#package-x-generic-a)" xlink:href="#package-x-generic-b"/>
      <use fill="url(#package-x-generic-c)" xlink:href="#package-x-generic-b"/>
      <use fill="#000" filter="url(#package-x-generic-d)" xlink:href="#package-x-generic-e"/>
      <use fill="url(#package-x-generic-f)" xlink:href="#package-x-generic-e"/>
    </g>
    <path fill="#FFF" d="M32,48 L27,48 C26.1759547,48 25.7055728,47.0592363 26.2,46.4 L32.2,38.4 C32.3888544,38.1481942 32.6852427,38 33,38 L63,38 C63.3147573,38 63.6111456,38.1481942 63.8,38.4 L69.8,46.4 C70.2944272,47.0592363 69.8240453,48 69,48 L64,48 L64,67 C64,67.5522847 63.5522847,68 63,68 L33,68 C32.4477153,68 32,67.5522847 32,67 L32,48 Z M33,46 C33.5522847,46 34,46.4477153 34,47 L34,66 L62,66 L62,47 C62,46.4477153 62.4477153,46 63,46 L67,46 L62.5,40 L33.5,40 L29,46 L33,46 Z M58,54 L58,58 L61,58 L56,63 L51,58 L54,58 L54,54 L58,54 Z"/>
  </g>
</svg>
