<svg xmlns="http://www.w3.org/2000/svg" xmlns:xlink="http://www.w3.org/1999/xlink" width="96" height="96" viewBox="0 0 96 96">
  <defs>
    <linearGradient id="text-x-chdr-c" x1="50%" x2="50%" y1="0%" y2="99.628%">
      <stop offset="0%" stop-color="#FF4BB4"/>
      <stop offset="98.915%" stop-color="#F6237B"/>
    </linearGradient>
    <path id="text-x-chdr-b" d="M42,0 L64,22 L64,69 C64,73.9705627 59.9705627,78 55,78 L9,78 C4.02943725,78 6.08718376e-16,73.9705627 0,69 L0,9 C-6.08718376e-16,4.02943725 4.02943725,4.46579124e-15 9,3.55271368e-15 L42,0 Z"/>
    <filter id="text-x-chdr-a" width="131.2%" height="125.6%" x="-15.6%" y="-10.3%" filterUnits="objectBoundingBox">
      <feOffset dy="2" in="SourceAlpha" result="shadowOffsetOuter1"/>
      <feGaussianBlur in="shadowOffsetOuter1" result="shadowBlurOuter1" stdDeviation="3"/>
      <feColorMatrix in="shadowBlurOuter1" values="0 0 0 0 0.920884284   0 0 0 0 0.0193547135   0 0 0 0 0.46292854  0 0 0 0.5 0"/>
    </filter>
    <linearGradient id="text-x-chdr-f" x1="50%" x2="11.493%" y1="50%" y2="88.683%">
      <stop offset="0%" stop-color="#FFF" stop-opacity=".1"/>
      <stop offset="100%" stop-color="#FFF" stop-opacity=".3"/>
    </linearGradient>
    <path id="text-x-chdr-e" d="M42,0 L64,22 L51,22 C46.0294373,22 42,17.9705627 42,13 L42,0 Z"/>
    <filter id="text-x-chdr-d" width="150%" height="150%" x="-25%" y="-15.9%" filterUnits="objectBoundingBox">
      <feOffset dy="2" in="SourceAlpha" result="shadowOffsetOuter1"/>
      <feGaussianBlur in="shadowOffsetOuter1" result="shadowBlurOuter1" stdDeviation="1.5"/>
      <feComposite in="shadowBlurOuter1" in2="SourceAlpha" operator="out" result="shadowBlurOuter1"/>
      <feColorMatrix in="shadowBlurOuter1" values="0 0 0 0 0   0 0 0 0 0   0 0 0 0 0  0 0 0 0.05 0"/>
    </filter>
  </defs>
  <g fill="none" fill-rule="evenodd">
    <g transform="translate(16 10)">
      <use fill="#000" filter="url(#text-x-chdr-a)" xlink:href="#text-x-chdr-b"/>
      <use fill="url(#text-x-chdr-c)" xlink:href="#text-x-chdr-b"/>
      <use fill="#000" filter="url(#text-x-chdr-d)" xlink:href="#text-x-chdr-e"/>
      <use fill="url(#text-x-chdr-f)" xlink:href="#text-x-chdr-e"/>
    </g>
    <path fill="#FFF" d="M48,52 L48,64 L44,64 L44,38 L48,38 L48,48 L53.990237,48 C56.204768,48 58,49.7888304 58,51.9962027 L58,64 L54,64 L54,53.0024733 C54,52.4488226 53.5490248,52 53.009222,52 L48,52 Z M40,60 L40,64 L36,64 L36,60 L40,60 Z"/>
  </g>
</svg>
