<svg xmlns="http://www.w3.org/2000/svg" xmlns:xlink="http://www.w3.org/1999/xlink" width="96" height="96" viewBox="0 0 96 96">
  <defs>
    <linearGradient id="text-x-java-c" x1="50%" x2="50%" y1="0%" y2="99.372%">
      <stop offset="0%" stop-color="#FFBC2A"/>
      <stop offset="100%" stop-color="#E77B00"/>
    </linearGradient>
    <path id="text-x-java-b" d="M42,0 L64,22 L64,69 C64,73.9705627 59.9705627,78 55,78 L9,78 C4.02943725,78 6.08718376e-16,73.9705627 0,69 L0,9 C-6.08718376e-16,4.02943725 4.02943725,4.46579124e-15 9,3.55271368e-15 L42,0 Z"/>
    <filter id="text-x-java-a" width="131.2%" height="125.6%" x="-15.6%" y="-10.3%" filterUnits="objectBoundingBox">
      <feOffset dy="2" in="SourceAlpha" result="shadowOffsetOuter1"/>
      <feGaussianBlur in="shadowOffsetOuter1" result="shadowBlurOuter1" stdDeviation="3"/>
      <feColorMatrix in="shadowBlurOuter1" values="0 0 0 0 0.874509804   0 0 0 0 0.498039216   0 0 0 0 0.0588235294  0 0 0 0.5 0"/>
    </filter>
    <linearGradient id="text-x-java-f" x1="50%" x2="11.493%" y1="50%" y2="88.683%">
      <stop offset="0%" stop-color="#FFF" stop-opacity=".1"/>
      <stop offset="100%" stop-color="#FFF" stop-opacity=".3"/>
    </linearGradient>
    <path id="text-x-java-e" d="M42,0 L64,22 L51,22 C46.0294373,22 42,17.9705627 42,13 L42,0 Z"/>
    <filter id="text-x-java-d" width="150%" height="150%" x="-25%" y="-15.9%" filterUnits="objectBoundingBox">
      <feOffset dy="2" in="SourceAlpha" result="shadowOffsetOuter1"/>
      <feGaussianBlur in="shadowOffsetOuter1" result="shadowBlurOuter1" stdDeviation="1.5"/>
      <feComposite in="shadowBlurOuter1" in2="SourceAlpha" operator="out" result="shadowBlurOuter1"/>
      <feColorMatrix in="shadowBlurOuter1" values="0 0 0 0 0   0 0 0 0 0   0 0 0 0 0  0 0 0 0.05 0"/>
    </filter>
  </defs>
  <g fill="none" fill-rule="evenodd">
    <g transform="translate(16 10)">
      <g opacity=".9">
        <use fill="#000" filter="url(#text-x-java-a)" xlink:href="#text-x-java-b"/>
        <use fill="url(#text-x-java-c)" xlink:href="#text-x-java-b"/>
      </g>
      <use fill="#000" filter="url(#text-x-java-d)" xlink:href="#text-x-java-e"/>
      <use fill="url(#text-x-java-f)" xlink:href="#text-x-java-e"/>
    </g>
    <path fill="#FFF" d="M49.8947367,37.04 C49.823757,37.1148891 45.4210527,40.72 45.4210527,43.48 C45.4210527,46.24 48.105263,49.92 48.105263,49.92 C40.0526313,44.4 41.8421053,39.8 44.5263158,37.96 C47.2105263,36.12 50.7894736,33.36 51.6842104,31.52 C52.5789472,29.68 51.6842104,26 51.6842104,26 C51.6842104,26 56.7635168,29.792913 49.8947367,37.04 Z M57.9473684,35.2 C57.9473684,35.2 48.1052632,41.64 51.6842104,44.4 C55.2631576,47.16 49.8947367,51.76 49.8947367,51.76 C49.8947367,51.76 50.7894737,49 49.8947368,47.16 C48.9999999,45.32 46.3157895,43.48 49.0000001,39.8 C51.6842106,36.12 57.9473684,35.2 57.9473684,35.2 Z M43.6315789,49.92 C43.6315789,49.92 35.5789474,51.76 40.9473683,52.68 C46.3157893,53.6 57.0526319,51.76 57.0526316,51.76 C46.3157908,57.28 35.5789474,54.52 35.5789474,52.68 C35.5789474,50.84 43.6315789,49.92 43.6315789,49.92 Z M40.4193288,62.8875977 C40.4193288,62.8875977 32.3666972,64.7275977 37.7351181,65.6475977 C40.4225585,66.1081512 47.0735213,66.8476171 52.5789476,66.48 C58.0711408,66.1132665 62.4210514,64.64 62.4210512,64.64 C57.9473687,70.16 32.3666972,67.4875977 32.3666972,65.6475977 C32.3666972,63.8075977 40.4193288,62.8875977 40.4193288,62.8875977 Z M41.8397924,68.3041932 C41.8397924,68.3041932 37.2953902,68.9513224 42.7359155,69.2102189 C45.4594515,69.339823 51.0254952,69.4005266 56.4450837,68.3647069 C61.8516453,67.3313771 64.2006802,65.5586214 64.20068,65.5586214 C63.2584022,67.0652333 61.1789201,68.1599241 58.5864924,68.9259284 C50.8133189,71.222727 38.4285126,70.5644723 38.2603552,69.1949397 C38.0361156,67.3686548 41.8397924,68.3041932 41.8397924,68.3041932 Z M49.8947372,56.36 C55.2631574,55.44 56.1578951,57.28 56.1578951,57.28 C49.8947372,59.12 40.9473684,60.04 39.1578947,58.2 C37.3684211,56.36 40.9473684,55.44 40.9473684,55.44 C40.9473684,55.44 39.8928636,57.0573023 41.8421052,57.28 C43.7913469,57.5026977 44.526317,57.28 49.8947372,56.36 Z M49.2359756,61.4088154 C53.1826085,60.7324707 53.8403814,62.08516 53.8403814,62.08516 C49.2359756,63.4378493 42.6582528,64.1141939 41.3427083,62.7615046 C40.0271638,61.4088154 42.6582528,60.7324707 42.6582528,60.7324707 C42.6582528,60.7324707 41.8830259,61.9214422 43.316025,62.08516 C44.7490241,62.2488778 45.2893427,62.08516 49.2359756,61.4088154 Z M61.5263158,52.6799999 C61.5263158,49.9199997 57.9473684,50.84 57.9473684,50.84 C57.9473684,50.84 62.4210526,49 64.2105263,51.76 C66,54.5199999 59.7368421,59.1199999 57.0526316,59.1199998 C57.0526316,59.1199997 61.5263158,55.4400001 61.5263158,52.6799999 Z"/>
  </g>
</svg>
