<svg xmlns="http://www.w3.org/2000/svg" xmlns:xlink="http://www.w3.org/1999/xlink" width="96" height="96" viewBox="0 0 96 96">
  <defs>
    <linearGradient id="text-enriched-c" x1="50%" x2="50%" y1="0%" y2="99.203%">
      <stop offset="0%" stop-color="#619FFF"/>
      <stop offset="100%" stop-color="#0093E4"/>
    </linearGradient>
    <path id="text-enriched-b" d="M42,0 L64,22 L64,69 C64,73.9705627 59.9705627,78 55,78 L9,78 C4.02943725,78 6.08718376e-16,73.9705627 0,69 L0,9 C-6.08718376e-16,4.02943725 4.02943725,4.46579124e-15 9,3.55271368e-15 L42,0 Z"/>
    <filter id="text-enriched-a" width="131.2%" height="125.6%" x="-15.6%" y="-10.3%" filterUnits="objectBoundingBox">
      <feOffset dy="2" in="SourceAlpha" result="shadowOffsetOuter1"/>
      <feGaussianBlur in="shadowOffsetOuter1" result="shadowBlurOuter1" stdDeviation="3"/>
      <feColorMatrix in="shadowBlurOuter1" values="0 0 0 0 0.0156862745   0 0 0 0 0.580392157   0 0 0 0 0.898039216  0 0 0 0.5 0"/>
    </filter>
    <linearGradient id="text-enriched-f" x1="50%" x2="11.493%" y1="50%" y2="88.683%">
      <stop offset="0%" stop-color="#FFF" stop-opacity=".1"/>
      <stop offset="100%" stop-color="#FFF" stop-opacity=".3"/>
    </linearGradient>
    <path id="text-enriched-e" d="M42,0 L64,22 L51,22 C46.0294373,22 42,17.9705627 42,13 L42,0 Z"/>
    <filter id="text-enriched-d" width="150%" height="150%" x="-25%" y="-15.9%" filterUnits="objectBoundingBox">
      <feOffset dy="2" in="SourceAlpha" result="shadowOffsetOuter1"/>
      <feGaussianBlur in="shadowOffsetOuter1" result="shadowBlurOuter1" stdDeviation="1.5"/>
      <feComposite in="shadowBlurOuter1" in2="SourceAlpha" operator="out" result="shadowBlurOuter1"/>
      <feColorMatrix in="shadowBlurOuter1" values="0 0 0 0 0   0 0 0 0 0   0 0 0 0 0  0 0 0 0.05 0"/>
    </filter>
  </defs>
  <g fill="none" fill-rule="evenodd">
    <g transform="translate(16 10)">
      <use fill="#000" filter="url(#text-enriched-a)" xlink:href="#text-enriched-b"/>
      <use fill="url(#text-enriched-c)" xlink:href="#text-enriched-b"/>
      <use fill="#000" filter="url(#text-enriched-d)" xlink:href="#text-enriched-e"/>
      <use fill="url(#text-enriched-f)" xlink:href="#text-enriched-e"/>
    </g>
    <path fill="#FFF" d="M25.936,36 L69.936,36 L69.936,38 L25.936,38 L25.936,36 L25.936,36 Z M25.936,44 L69.936,44 L69.936,46 L25.936,46 L25.936,44 L25.936,44 Z M25.936,52 L69.936,52 L69.936,54 L25.936,54 L25.936,52 L25.936,52 Z M25.936,60 L69.936,60 L69.936,62 L25.936,62 L25.936,60 L25.936,60 Z M25.936,68 L69.936,68 L69.936,70 L25.936,70 L25.936,68 L25.936,68 Z"/>
  </g>
</svg>
