<svg xmlns="http://www.w3.org/2000/svg" xmlns:xlink="http://www.w3.org/1999/xlink" width="96" height="96" viewBox="0 0 96 96">
  <defs>
    <linearGradient id="text-x-csrc-c" x1="50%" x2="50%" y1="0%" y2="100%">
      <stop offset="0%" stop-color="#3C9"/>
      <stop offset="100%" stop-color="#00AE74"/>
    </linearGradient>
    <path id="text-x-csrc-b" d="M42,0 L64,22 L64,69 C64,73.9705627 59.9705627,78 55,78 L9,78 C4.02943725,78 6.08718376e-16,73.9705627 0,69 L0,9 C-6.08718376e-16,4.02943725 4.02943725,4.46579124e-15 9,3.55271368e-15 L42,0 Z"/>
    <filter id="text-x-csrc-a" width="131.2%" height="125.6%" x="-15.6%" y="-10.3%" filterUnits="objectBoundingBox">
      <feOffset dy="2" in="SourceAlpha" result="shadowOffsetOuter1"/>
      <feGaussianBlur in="shadowOffsetOuter1" result="shadowBlurOuter1" stdDeviation="3"/>
      <feColorMatrix in="shadowBlurOuter1" values="0 0 0 0 0.262745098   0 0 0 0 0.71372549   0 0 0 0 0.607843137  0 0 0 0.5 0"/>
    </filter>
    <linearGradient id="text-x-csrc-f" x1="50%" x2="11.493%" y1="50%" y2="88.683%">
      <stop offset="0%" stop-color="#FFF" stop-opacity=".1"/>
      <stop offset="100%" stop-color="#FFF" stop-opacity=".3"/>
    </linearGradient>
    <path id="text-x-csrc-e" d="M42,0 L64,22 L51,22 C46.0294373,22 42,17.9705627 42,13 L42,0 Z"/>
    <filter id="text-x-csrc-d" width="150%" height="150%" x="-25%" y="-15.9%" filterUnits="objectBoundingBox">
      <feOffset dy="2" in="SourceAlpha" result="shadowOffsetOuter1"/>
      <feGaussianBlur in="shadowOffsetOuter1" result="shadowBlurOuter1" stdDeviation="1.5"/>
      <feComposite in="shadowBlurOuter1" in2="SourceAlpha" operator="out" result="shadowBlurOuter1"/>
      <feColorMatrix in="shadowBlurOuter1" values="0 0 0 0 0   0 0 0 0 0   0 0 0 0 0  0 0 0 0.05 0"/>
    </filter>
  </defs>
  <g fill="none" fill-rule="evenodd">
    <g transform="translate(16 10)">
      <use fill="#000" filter="url(#text-x-csrc-a)" xlink:href="#text-x-csrc-b"/>
      <use fill="url(#text-x-csrc-c)" xlink:href="#text-x-csrc-b"/>
      <use fill="#000" filter="url(#text-x-csrc-d)" xlink:href="#text-x-csrc-e"/>
      <use fill="url(#text-x-csrc-f)" xlink:href="#text-x-csrc-e"/>
    </g>
    <path fill="#FFF" d="M47.2814336,38.3008289 C43.693044,38.3008289 40.8502937,39.5739989 38.7997854,42.1674932 C36.8890844,44.5252153 35.9570352,47.5430996 35.9570352,51.2683006 C35.9570352,54.9935015 36.8890844,58.0113858 38.7997854,60.3219535 C40.8036913,62.7739845 43.599839,64 47.2348311,64 C50.2173887,64 52.5941143,63.1983745 54.4116104,61.6422779 C56.2757089,60.0390268 57.4407704,57.6341503 58,54.5219571 L54.271803,54.5219571 C53.7125734,58.7187025 51.3358478,60.8406524 47.2348311,60.8406524 C44.8115031,60.8406524 42.9474046,59.944718 41.6891381,58.247158 C40.3842691,56.5495981 39.7784371,54.191876 39.7784371,51.2211461 C39.7784371,48.2504163 40.4308716,45.8926941 41.7357405,44.1479798 C43.0872119,42.356111 44.9513105,41.4601766 47.2814336,41.4601766 C49.1921346,41.4601766 50.7300158,41.8845665 51.9416799,42.8276554 C53.1067414,43.7707442 53.8523808,45.1853775 54.1785981,47.0715552 L57.8601926,47.0715552 C57.4407704,44.1008253 56.3223113,41.8845665 54.4582128,40.4227788 C52.6407168,39.0081456 50.2639912,38.3008289 47.2814336,38.3008289 L47.2814336,38.3008289 Z"/>
  </g>
</svg>
