<?xml version="1.0" encoding="UTF-8"?>
<svg width="96px" height="96px" viewBox="0 0 96 96" version="1.1" xmlns="http://www.w3.org/2000/svg" xmlns:xlink="http://www.w3.org/1999/xlink">
    <title>mimetypes/96/x-content-video-bluray</title>
    <defs>
        <linearGradient x1="50%" y1="0%" x2="50%" y2="97.9504916%" id="linearGradient-1">
            <stop stop-color="#9A73FF" offset="0%"></stop>
            <stop stop-color="#9044FC" offset="100%"></stop>
        </linearGradient>
        <path d="M48,0 L70,22 L69.9998374,6.70264936 C69.9999457,6.71842011 70,6.73420372 70,6.75 L70,79.25 C70,82.9779221 66.9779221,86 63.25,86 L6.75,86 C3.02207794,86 4.56538782e-16,82.9779221 0,79.25 L0,6.75 C-4.56538782e-16,3.02207794 3.02207794,6.84808173e-16 6.75,0 L48,0 Z" id="path-2"></path>
        <filter x="-14.3%" y="-9.3%" width="128.6%" height="123.3%" filterUnits="objectBoundingBox" id="filter-3">
            <feOffset dx="0" dy="2" in="SourceAlpha" result="shadowOffsetOuter1"></feOffset>
            <feGaussianBlur stdDeviation="3" in="shadowOffsetOuter1" result="shadowBlurOuter1"></feGaussianBlur>
            <feColorMatrix values="0 0 0 0 0.478596402   0 0 0 0 0.166425049   0 0 0 0 0.855230359  0 0 0 0.5 0" type="matrix" in="shadowBlurOuter1"></feColorMatrix>
        </filter>
        <linearGradient x1="50%" y1="50%" x2="7.99354867%" y2="88.8892261%" id="linearGradient-4">
            <stop stop-color="#FFFFFF" stop-opacity="0.1" offset="0%"></stop>
            <stop stop-color="#FFFFFF" stop-opacity="0.3" offset="100%"></stop>
        </linearGradient>
        <path d="M47.9990267,0 L70,22 L54.7490267,22 C51.0211046,22 47.9990267,18.9779221 47.9990267,15.25 L47.9990267,0 L47.9990267,0 Z" id="path-5"></path>
        <filter x="-15.9%" y="-11.4%" width="131.8%" height="131.8%" filterUnits="objectBoundingBox" id="filter-6">
            <feOffset dx="0" dy="1" in="SourceAlpha" result="shadowOffsetOuter1"></feOffset>
            <feGaussianBlur stdDeviation="1" in="shadowOffsetOuter1" result="shadowBlurOuter1"></feGaussianBlur>
            <feComposite in="shadowBlurOuter1" in2="SourceAlpha" operator="out" result="shadowBlurOuter1"></feComposite>
            <feColorMatrix values="0 0 0 0 0   0 0 0 0 0   0 0 0 0 0  0 0 0 0.05 0" type="matrix" in="shadowBlurOuter1"></feColorMatrix>
        </filter>
    </defs>
    <g id="mimetypes/96/x-content-video-bluray" stroke="none" stroke-width="1" fill="none" fill-rule="evenodd">
        <g id="编组-2" transform="translate(13, 5)">
            <g id="蒙版">
                <use fill="black" fill-opacity="1" filter="url(#filter-3)" xlink:href="#path-2"></use>
                <use fill="url(#linearGradient-1)" fill-rule="evenodd" xlink:href="#path-2"></use>
            </g>
            <g id="折角">
                <use fill="black" fill-opacity="1" filter="url(#filter-6)" xlink:href="#path-5"></use>
                <use fill="url(#linearGradient-4)" fill-rule="evenodd" xlink:href="#path-5"></use>
            </g>
        </g>
        <path d="M48,29.9999993 C57.9411255,29.9999993 66,38.0588738 66,47.9999993 C66,57.9411248 57.9411255,65.9999993 48,65.9999993 C38.0588745,65.9999993 30,57.9411248 30,47.9999993 C30,38.0588738 38.0588745,29.9999993 48,29.9999993 Z M43.9783911,39.0005992 C43.4585437,38.9871694 42.9555208,39.1999592 42.5831676,39.5908532 C42.2108143,39.9817472 42.0005792,40.517731 42,41.0776094 L42,47.997813 L42.0011739,54.918018 C42.000491,55.6614068 42.3684237,56.3486707 42.9662763,56.7207389 C43.564129,57.0928072 44.3009961,57.0931056 44.8991086,56.7215217 L50.4660581,53.2593893 L56.0330075,49.7999632 C56.631124,49.4287001 56.9997577,48.7420872 57,47.9988546 C57.000242,47.255622 56.6320558,46.568731 56.0341814,46.1970162 L50.4660124,42.7389457 L44.8990629,39.2781661 C44.7311714,39.1741741 44.5497078,39.0979504 44.3607585,39.0520515 C44.2352139,39.0212276 44.1071212,39.0039911 43.9783911,39.0005992 Z" id="形状结合" fill="#FFFFFF"></path>
    </g>
</svg>