<?xml version="1.0" encoding="UTF-8"?>
<svg width="96px" height="96px" viewBox="0 0 96 96" version="1.1" xmlns="http://www.w3.org/2000/svg" xmlns:xlink="http://www.w3.org/1999/xlink">
    <title>mimetypes/96/x-office-spreadsheet</title>
    <defs>
        <linearGradient x1="50%" y1="0%" x2="50%" y2="98.5008446%" id="linearGradient-1">
            <stop stop-color="#7FCB10" offset="0%"></stop>
            <stop stop-color="#50A100" offset="100%"></stop>
        </linearGradient>
        <path d="M48,0 L70,22 L69.9998374,6.70264936 C69.9999457,6.71842011 70,6.73420372 70,6.75 L70,79.25 C70,82.9779221 66.9779221,86 63.25,86 L6.75,86 C3.02207794,86 4.56538782e-16,82.9779221 0,79.25 L0,6.75 C-4.56538782e-16,3.02207794 3.02207794,6.84808173e-16 6.75,0 L48,0 Z" id="path-2"></path>
        <filter x="-14.3%" y="-9.3%" width="128.6%" height="123.3%" filterUnits="objectBoundingBox" id="filter-3">
            <feOffset dx="0" dy="2" in="SourceAlpha" result="shadowOffsetOuter1"></feOffset>
            <feGaussianBlur stdDeviation="3" in="shadowOffsetOuter1" result="shadowBlurOuter1"></feGaussianBlur>
            <feColorMatrix values="0 0 0 0 0.46370117   0 0 0 0 0.679376132   0 0 0 0 0  0 0 0 0.5 0" type="matrix" in="shadowBlurOuter1"></feColorMatrix>
        </filter>
        <linearGradient x1="50%" y1="50%" x2="7.99354867%" y2="88.8892261%" id="linearGradient-4">
            <stop stop-color="#FFFFFF" stop-opacity="0.1" offset="0%"></stop>
            <stop stop-color="#FFFFFF" stop-opacity="0.3" offset="100%"></stop>
        </linearGradient>
        <path d="M47.9990267,0 L70,22 L54.7490267,22 C51.0211046,22 47.9990267,18.9779221 47.9990267,15.25 L47.9990267,0 L47.9990267,0 Z" id="path-5"></path>
        <filter x="-15.9%" y="-11.4%" width="131.8%" height="131.8%" filterUnits="objectBoundingBox" id="filter-6">
            <feOffset dx="0" dy="1" in="SourceAlpha" result="shadowOffsetOuter1"></feOffset>
            <feGaussianBlur stdDeviation="1" in="shadowOffsetOuter1" result="shadowBlurOuter1"></feGaussianBlur>
            <feComposite in="shadowBlurOuter1" in2="SourceAlpha" operator="out" result="shadowBlurOuter1"></feComposite>
            <feColorMatrix values="0 0 0 0 0   0 0 0 0 0   0 0 0 0 0  0 0 0 0.05 0" type="matrix" in="shadowBlurOuter1"></feColorMatrix>
        </filter>
    </defs>
    <g id="mimetypes/96/x-office-spreadsheet" stroke="none" stroke-width="1" fill="none" fill-rule="evenodd">
        <g id="编组-2" transform="translate(13, 5)">
            <g id="蒙版">
                <use fill="black" fill-opacity="1" filter="url(#filter-3)" xlink:href="#path-2"></use>
                <use fill="url(#linearGradient-1)" fill-rule="evenodd" xlink:href="#path-2"></use>
            </g>
            <g id="折角">
                <use fill="black" fill-opacity="1" filter="url(#filter-6)" xlink:href="#path-5"></use>
                <use fill="url(#linearGradient-4)" fill-rule="evenodd" xlink:href="#path-5"></use>
            </g>
        </g>
        <path d="M66,34 L66,69 L29,69 L29,34 L66,34 Z M39.999,36 L31,36 L31,67 L40.000488,67.0000305 L39.999,36 Z M48.0001301,53.9983788 L48.000488,67.0000325 L52.000488,67.0000325 L52.0001301,53.9996758 L48.0001301,53.9983788 Z M54.0001302,54.0003243 L54.000488,67.0000325 L58.000488,67.0000325 L58.0001302,54.0016214 L54.0001302,54.0003243 Z M60.0001302,54.0022699 L60.000488,67.0000325 L64,67 L64,54.003 L60.0001302,54.0022699 Z M42,53.996 L42.000488,67.0000305 L46.000488,67.0000325 L46.0001301,53.9977303 L42,53.996 Z M59.999935,48.0022698 L60.0000651,52.0022697 L64,52.003 L64,48.003 L59.999935,48.0022698 Z M53.9999349,48.0003243 L54.0000651,52.0003243 L58.0000651,52.0016212 L57.9999349,48.0016213 L53.9999349,48.0003243 Z M47.9999349,47.9983788 L48.000065,51.9983788 L52.0000651,51.9996757 L51.9999349,47.9996758 L47.9999349,47.9983788 Z M41.999,47.996 L42,51.996 L46.000065,51.9977302 L45.9999349,47.9977303 L41.999,47.996 Z M59.9997398,42.0022697 L59.9998699,46.0022697 L64,46.003 L64,42.003 L59.9997398,42.0022697 Z M53.9997397,42.0003242 L53.9998699,46.0003242 L57.9998699,46.0016212 L57.9997397,42.0016212 L53.9997397,42.0003242 Z M47.9997397,41.9983787 L47.9998698,45.9983787 L51.9998698,45.9996757 L51.9997397,41.9996757 L47.9997397,41.9983787 Z M41.999,41.996 L41.999,45.996 L45.9998698,45.9977301 L45.9997396,41.9977302 L41.999,41.996 Z M64,36 L59.999,36 L59.9996757,40.0022696 L64,40.003 L64,36 Z M57.999,36 L53.999,36 L53.9996757,40.0003241 L57.9996757,40.0016211 L57.999,36 Z M51.999,36 L47.999,36 L47.9996757,39.9983786 L51.9996757,39.9996756 L51.999,36 Z M45.999,36 L41.999,36 L41.999,39.996 L45.9996757,39.9977301 L45.999,36 Z" id="形状结合" fill="#FFFFFF"></path>
    </g>
</svg>