<svg xmlns="http://www.w3.org/2000/svg" xmlns:xlink="http://www.w3.org/1999/xlink" width="512" height="512" viewBox="0 0 512 512">
  <defs>
    <filter id="drive-removable-media-encrypted-a" width="129.3%" height="125%" x="-14.7%" y="-12.5%" filterUnits="objectBoundingBox">
      <feOffset dy="8" in="SourceAlpha" result="shadowOffsetOuter1"/>
      <feGaussianBlur in="shadowOffsetOuter1" result="shadowBlurOuter1" stdDeviation="10"/>
      <feComposite in="shadowBlurOuter1" in2="SourceAlpha" operator="out" result="shadowBlurOuter1"/>
      <feColorMatrix in="shadowBlurOuter1" result="shadowMatrixOuter1" values="0 0 0 0 0   0 0 0 0 0   0 0 0 0 0  0 0 0 0.2 0"/>
      <feMerge>
        <feMergeNode in="shadowMatrixOuter1"/>
        <feMergeNode in="SourceGraphic"/>
      </feMerge>
    </filter>
    <linearGradient id="drive-removable-media-encrypted-b" x1="102.549%" x2="-2.652%" y1="57.682%" y2="57.682%">
      <stop offset="0%" stop-color="#5704D2"/>
      <stop offset="4.571%" stop-color="#4800B4"/>
      <stop offset="11.797%" stop-color="#6E0DD8"/>
      <stop offset="85.095%" stop-color="#6E0DD8"/>
      <stop offset="93.793%" stop-color="#4800B4"/>
      <stop offset="100%" stop-color="#5704D2"/>
    </linearGradient>
    <linearGradient id="drive-removable-media-encrypted-c" x1="100%" x2="0%" y1="56.43%" y2="56.43%">
      <stop offset="0%" stop-color="#FFF" stop-opacity=".46"/>
      <stop offset="9.936%" stop-color="#BDBDBD" stop-opacity=".9"/>
      <stop offset="52.356%" stop-color="#E6E6E6" stop-opacity=".7"/>
      <stop offset="87.648%" stop-color="#BDBDBD"/>
      <stop offset="100%" stop-color="#FFF" stop-opacity=".46"/>
    </linearGradient>
    <radialGradient id="drive-removable-media-encrypted-d" cx="48.239%" cy="19.103%" r="78.654%" fx="48.239%" fy="19.103%" gradientTransform="matrix(0 1 -.77841 0 .631 -.291)">
      <stop offset="0%" stop-color="#946CC3"/>
      <stop offset="100%" stop-color="#3462C9"/>
    </radialGradient>
    <linearGradient id="drive-removable-media-encrypted-g" x1="50%" x2="50%" y1="0%" y2="100%">
      <stop offset="0%" stop-color="#0D3CCB"/>
      <stop offset="50.85%" stop-color="#157FC8"/>
      <stop offset="100%" stop-color="#0B21CD"/>
    </linearGradient>
    <path id="drive-removable-media-encrypted-f" d="M244,376 C246.209139,376 248,377.789028 248,380.004258 L248,403.995742 C248,406.140218 246.311805,407.890963 244.199256,407.995099 L244,408 C241.790861,408 240,406.210972 240,403.995742 L240,380.004258 C240,377.859782 241.688195,376.109037 243.800744,376.004901 L244,376 Z M260,376 C262.209139,376 264,377.789028 264,380.004258 L264,403.995742 C264,406.140218 262.311805,407.890963 260.199256,407.995099 L260,408 C257.790861,408 256,406.210972 256,403.995742 L256,380.004258 C256,377.859782 257.688195,376.109037 259.800744,376.004901 L260,376 Z M276,376 C278.209139,376 280,377.789028 280,380.004258 L280,403.995742 C280,406.140218 278.311805,407.890963 276.199256,407.995099 L276,408 C273.790861,408 272,406.210972 272,403.995742 L272,380.004258 C272,377.859782 273.688195,376.109037 275.800744,376.004901 L276,376 Z M292,376 C294.209139,376 296,377.789028 296,380.004258 L296,403.995742 C296,406.140218 294.311805,407.890963 292.199256,407.995099 L292,408 C289.790861,408 288,406.210972 288,403.995742 L288,380.004258 C288,377.859782 289.688195,376.109037 291.800744,376.004901 L292,376 Z M308,376 C310.209139,376 312,377.789028 312,380.004258 L312,403.995742 C312,406.140218 310.311805,407.890963 308.199256,407.995099 L308,408 C305.790861,408 304,406.210972 304,403.995742 L304,380.004258 C304,377.859782 305.688195,376.109037 307.800744,376.004901 L308,376 Z M324,376 C326.209139,376 328,377.789028 328,380.004258 L328,403.995742 C328,406.140218 326.311805,407.890963 324.199256,407.995099 L324,408 C321.790861,408 320,406.210972 320,403.995742 L320,380.004258 C320,377.859782 321.688195,376.109037 323.800744,376.004901 L324,376 Z"/>
    <filter id="drive-removable-media-encrypted-e" width="104.5%" height="125%" x="-2.3%" y="-6.2%" filterUnits="objectBoundingBox">
      <feOffset dy="4" in="SourceAlpha" result="shadowOffsetOuter1"/>
      <feColorMatrix in="shadowOffsetOuter1" values="0 0 0 0 1   0 0 0 0 1   0 0 0 0 1  0 0 0 0.15 0"/>
    </filter>
    <path id="drive-removable-media-encrypted-h" d="M46,406 C53.7319865,406 60,399.731986 60,392 C60,384.268014 53.7319865,378 46,378 C38.2680135,378 32,384.268014 32,392 C32,399.731986 38.2680135,406 46,406 Z"/>
    <filter id="drive-removable-media-encrypted-i" width="142.9%" height="142.9%" x="-21.4%" y="-21.4%" filterUnits="objectBoundingBox">
      <feOffset dx="-8" dy="-12" in="SourceAlpha" result="shadowOffsetInner1"/>
      <feComposite in="shadowOffsetInner1" in2="SourceAlpha" k2="-1" k3="1" operator="arithmetic" result="shadowInnerInner1"/>
      <feColorMatrix in="shadowInnerInner1" values="0 0 0 0 0.607506793   0 0 0 0 0   0 0 0 0 1  0 0 0 0.5 0"/>
    </filter>
  </defs>
  <g fill="none" fill-rule="evenodd">
    <g filter="url(#drive-removable-media-encrypted-a)" transform="translate(72 40)">
      <path fill="url(#drive-removable-media-encrypted-b)" d="M-3.48450158e-10,63.9907282 C-3.48450158e-10,28.6496249 28.6465504,4.06544132e-10 63.9955835,4.06544132e-10 L304.004409,4.06544132e-10 C339.348194,4.06544132e-10 367.999993,28.6460511 367.999994,63.9907282 L368,392 L-3.48450158e-10,392 L-3.48450158e-10,63.9907282 Z"/>
      <path fill="url(#drive-removable-media-encrypted-c)" stroke="#FFF" stroke-opacity=".35" stroke-width="4" d="M2.00000002,344.001818 L2.00000002,379.998183 C2.00000002,400.99057 19.0086314,418.000001 39.9951454,418.000001 L328.004855,417.999999 C348.9899,417.999999 366,400.986616 366,379.998182 L366,344.001817 C366,323.009431 348.991369,306 328.004855,306 L39.9951454,306 C19.0101002,306 2.00000001,323.013383 2.00000002,344.001818 Z"/>
      <path fill="url(#drive-removable-media-encrypted-d)" stroke="#393377" stroke-opacity=".2" stroke-width="2" d="M0.999999991,392 C0.999999991,413.542293 18.4570516,431 39.995144,431 L328.004843,431 C349.542226,431 366.999987,413.539662 366.999987,392 C366.999987,370.457707 349.542936,353 328.004843,353 L39.995144,353 C18.4577615,353 0.999999991,370.460338 0.999999991,392 Z"/>
      <use fill="#000" filter="url(#drive-removable-media-encrypted-e)" xlink:href="#drive-removable-media-encrypted-f"/>
      <use fill="url(#drive-removable-media-encrypted-g)" xlink:href="#drive-removable-media-encrypted-f"/>
      <use fill="#F076FF" xlink:href="#drive-removable-media-encrypted-h"/>
      <use fill="#000" filter="url(#drive-removable-media-encrypted-i)" xlink:href="#drive-removable-media-encrypted-h"/>
      <path stroke="#A50AFF" stroke-linejoin="square" stroke-width="4" d="M46,404 C52.627417,404 58,398.627417 58,392 C58,385.372583 52.627417,380 46,380 C39.372583,380 34,385.372583 34,392 C34,398.627417 39.372583,404 46,404 Z"/>
    </g>
    <g fill="#FFF" fill-opacity=".6" transform="translate(174 128)">
      <path d="M82,0 C127.287349,-8.31915114e-15 164,36.7126505 164,82 C164,127.287349 127.287349,164 82,164 C36.7126505,164 5.54610076e-15,127.287349 0,82 C-5.54610076e-15,36.7126505 36.7126505,8.31915114e-15 82,0 Z M82,8 C41.1309285,8 8,41.1309285 8,82 C8,122.869071 41.1309285,156 82,156 C122.869071,156 156,122.869071 156,82 C156,41.1309285 122.869071,8 82,8 Z M82,44 C102.98682,44 120,61.0131795 120,82 C120,102.98682 102.98682,120 82,120 C61.0131795,120 44,102.98682 44,82 C44,61.0131795 61.0131795,44 82,44 Z M82,58 C75.372583,58 70,63.372583 70,70 L70,70 L70,74 L68,74 C65.790861,74 64,75.790861 64,78 L64,78 L64,96 C64,98.209139 65.790861,100 68,100 L68,100 L96,100 C98.209139,100 100,98.209139 100,96 L100,96 L100,78 C100,75.790861 98.209139,74 96,74 L96,74 L94,74 L94,70 C94,63.372583 88.627417,58 82,58 Z M82,62 C86.418278,62 90,65.581722 90,70 L90,70 L90,74 L74,74 L74,70 C74,65.581722 77.581722,62 82,62 Z"/>
      <path d="M61,114 L61,120 L59,120 L59,114 L61,114 Z M70.3618093,113.00597 L71.4036984,118.914817 L69.4340829,119.262113 L68.3921938,113.353267 L70.3618093,113.00597 Z M49.6381907,113.00597 L51.6078062,113.353267 L50.5659171,119.262113 L48.5963016,118.914817 L49.6381907,113.00597 Z M79.4087804,110.401381 L81.4609012,116.039537 L79.581516,116.723577 L77.5293951,111.085422 L79.4087804,110.401381 Z M40.5912196,110.401381 L42.4706049,111.085422 L40.418484,116.723577 L38.5390988,116.039537 L40.5912196,110.401381 Z M87.8660254,106.265372 L90.8660254,111.461524 L89.1339746,112.461524 L86.1339746,107.265372 L87.8660254,106.265372 Z M32.1339746,106.265372 L33.8660254,107.265372 L30.8660254,112.461524 L29.1339746,111.461524 L32.1339746,106.265372 Z M95.4765754,100.723612 L99.333301,105.319879 L97.8012121,106.605454 L93.9444865,102.009188 L95.4765754,100.723612 Z M24.5234246,100.723612 L26.0555135,102.009188 L22.1987879,106.605454 L20.666699,105.319879 L24.5234246,100.723612 Z M102.009188,93.9444865 L106.605454,97.8012121 L105.319879,99.333301 L100.723612,95.4765754 L102.009188,93.9444865 Z M17.9908125,93.9444865 L19.2763877,95.4765754 L14.680121,99.333301 L13.3945458,97.8012121 L17.9908125,93.9444865 Z M107.265372,86.1339746 L112.461524,89.1339746 L111.461524,90.8660254 L106.265372,87.8660254 L107.265372,86.1339746 Z M12.7346282,86.1339746 L13.7346282,87.8660254 L8.53847577,90.8660254 L7.53847577,89.1339746 L12.7346282,86.1339746 Z M111.085422,77.5293951 L116.723577,79.581516 L116.039537,81.4609012 L110.401381,79.4087804 L111.085422,77.5293951 Z M8.91457833,77.5293951 L9.59861862,79.4087804 L3.9604629,81.4609012 L3.27642261,79.581516 L8.91457833,77.5293951 Z M113.353267,68.3921938 L119.262113,69.4340829 L118.914817,71.4036984 L113.00597,70.3618093 L113.353267,68.3921938 Z M6.64673316,68.3921938 L6.99402952,70.3618093 L1.085183,71.4036984 L0.737886642,69.4340829 L6.64673316,68.3921938 Z M120,59 L120,61 L114,61 L114,59 L120,59 Z M6,59 L6,61 L0,61 L-3.6739404e-16,59 L6,59 Z M118.914817,48.5963016 L119.262113,50.5659171 L113.353267,51.6078062 L113.00597,49.6381907 L118.914817,48.5963016 Z M1.085183,48.5963016 L6.99402952,49.6381907 L6.64673316,51.6078062 L0.737886642,50.5659171 L1.085183,48.5963016 Z M116.039537,38.5390988 L116.723577,40.418484 L111.085422,42.4706049 L110.401381,40.5912196 L116.039537,38.5390988 Z M3.9604629,38.5390988 L9.59861862,40.5912196 L8.91457833,42.4706049 L3.27642261,40.418484 L3.9604629,38.5390988 Z M111.461524,29.1339746 L112.461524,30.8660254 L107.265372,33.8660254 L106.265372,32.1339746 L111.461524,29.1339746 Z M8.53847577,29.1339746 L13.7346282,32.1339746 L12.7346282,33.8660254 L7.53847577,30.8660254 L8.53847577,29.1339746 Z M105.319879,20.666699 L106.605454,22.1987879 L102.009188,26.0555135 L100.723612,24.5234246 L105.319879,20.666699 Z M14.680121,20.666699 L19.2763877,24.5234246 L17.9908125,26.0555135 L13.3945458,22.1987879 L14.680121,20.666699 Z M97.8012121,13.3945458 L99.333301,14.680121 L95.4765754,19.2763877 L93.9444865,17.9908125 L97.8012121,13.3945458 Z M22.1987879,13.3945458 L26.0555135,17.9908125 L24.5234246,19.2763877 L20.666699,14.680121 L22.1987879,13.3945458 Z M89.1339746,7.53847577 L90.8660254,8.53847577 L87.8660254,13.7346282 L86.1339746,12.7346282 L89.1339746,7.53847577 Z M30.8660254,7.53847577 L33.8660254,12.7346282 L32.1339746,13.7346282 L29.1339746,8.53847577 L30.8660254,7.53847577 Z M79.581516,3.27642261 L81.4609012,3.9604629 L79.4087804,9.59861862 L77.5293951,8.91457833 L79.581516,3.27642261 Z M40.418484,3.27642261 L42.4706049,8.91457833 L40.5912196,9.59861862 L38.5390988,3.9604629 L40.418484,3.27642261 Z M69.4340829,0.737886642 L71.4036984,1.085183 L70.3618093,6.99402952 L68.3921938,6.64673316 L69.4340829,0.737886642 Z M50.5659171,0.737886642 L51.6078062,6.64673316 L49.6381907,6.99402952 L48.5963016,1.085183 L50.5659171,0.737886642 Z M61,0 L61,6 L59,6 L59,0 L61,0 Z" transform="translate(22 22)"/>
    </g>
  </g>
</svg>
