<svg xmlns="http://www.w3.org/2000/svg" xmlns:xlink="http://www.w3.org/1999/xlink" width="512" height="512" viewBox="0 0 512 512">
  <defs>
    <linearGradient id="application-x-perl-c" x1="50%" x2="50%" y1="0%" y2="100%">
      <stop offset="0%" stop-color="#5895FF"/>
      <stop offset="100%" stop-color="#387CF4"/>
    </linearGradient>
    <path id="application-x-perl-b" d="M232,0 L336,104 L336,380 C336,399.882251 319.882251,416 300,416 L36,416 C16.117749,416 2.4348735e-15,399.882251 0,380 L0,36 C-2.4348735e-15,16.117749 16.117749,3.65231026e-15 36,0 L232,0 Z"/>
    <filter id="application-x-perl-a" width="127.4%" height="122.1%" x="-13.7%" y="-9.1%" filterUnits="objectBoundingBox">
      <feOffset dy="8" in="SourceAlpha" result="shadowOffsetOuter1"/>
      <feGaussianBlur in="shadowOffsetOuter1" result="shadowBlurOuter1" stdDeviation="14"/>
      <feColorMatrix in="shadowBlurOuter1" values="0 0 0 0 0.22745098   0 0 0 0 0.494117647   0 0 0 0 0.960784314  0 0 0 0.5 0"/>
    </filter>
    <linearGradient id="application-x-perl-f" x1="50%" x2="7.994%" y1="50%" y2="88.893%">
      <stop offset="0%" stop-color="#FFF" stop-opacity=".1"/>
      <stop offset="100%" stop-color="#FFF" stop-opacity=".3"/>
    </linearGradient>
    <path id="application-x-perl-e" d="M232,0 L336,104 L268,104 C248.117749,104 232,87.882251 232,68 L232,0 Z"/>
    <filter id="application-x-perl-d" width="126.9%" height="126.9%" x="-13.5%" y="-9.6%" filterUnits="objectBoundingBox">
      <feOffset dy="4" in="SourceAlpha" result="shadowOffsetOuter1"/>
      <feGaussianBlur in="shadowOffsetOuter1" result="shadowBlurOuter1" stdDeviation="4"/>
      <feComposite in="shadowBlurOuter1" in2="SourceAlpha" operator="out" result="shadowBlurOuter1"/>
      <feColorMatrix in="shadowBlurOuter1" values="0 0 0 0 0   0 0 0 0 0   0 0 0 0 0  0 0 0 0.05 0"/>
    </filter>
  </defs>
  <g fill="none" fill-rule="evenodd">
    <g transform="translate(88 56)">
      <use fill="#000" filter="url(#application-x-perl-a)" xlink:href="#application-x-perl-b"/>
      <use fill="url(#application-x-perl-c)" xlink:href="#application-x-perl-b"/>
      <use fill="#000" filter="url(#application-x-perl-d)" xlink:href="#application-x-perl-e"/>
      <use fill="url(#application-x-perl-f)" xlink:href="#application-x-perl-e"/>
    </g>
    <path fill="#FFF" d="M214.118291,372.741083 C214.239998,372.509403 214.299518,372.369777 214.429118,372.119217 C215.583465,369.891419 216.93491,367.15095 217.460275,365.978897 C218.433395,363.806566 219.849747,358.679931 220.25827,355.87415 C221.222963,349.246214 221.320243,347.511387 220.880137,345.382001 C220.74947,344.752987 220.585417,341.683313 220.491443,338.542022 C220.351817,333.888689 220.29251,332.451793 219.947443,331.080219 C219.41795,328.975889 219.014217,326.431355 219.014857,324.395921 C219.015123,321.906865 218.650163,317.453041 218.159923,314.524689 C217.498057,310.571014 217.49155,303.536881 218.159923,299.834609 C218.707443,296.800678 218.574323,295.534683 217.615923,294.160422 C216.21107,292.146449 214.701715,291.931718 210.931891,293.150289 C200.070057,296.467835 188.772947,287.982502 182.407689,279.859526 C178.179518,272.803473 172.082131,268.325585 171.448862,259.883643 C170.969502,252.995611 170.073715,247.179259 170.360905,240.141457 C170.125918,233.707665 174.162313,229.25367 175.645993,222.808699 C174.703699,216.723846 167.263422,218.253339 162.899518,216.201969 C160.735529,215.028657 159.648339,212.866438 160.101523,210.683451 C160.644777,208.067089 163.110601,204.419121 165.153481,203.22183 C169.424073,201.234075 174.279518,202.008795 178.832553,200.890065 C182.645235,199.911291 184.196819,199.192998 186.52707,197.08151 C190.007539,193.92791 190.888286,193.439419 193.98851,193.428433 C207.860659,194.341073 212.677897,209.950246 213.963134,221.642811 C214.483134,230.522086 210.753491,238.069243 208.677961,246.43719 C207.814921,249.895302 210.493577,254.842993 213.885385,251.256134 C216.085545,244.400763 216.470089,239.131611 220.880425,233.068401 C225.244318,227.232817 228.871166,223.742587 233.315945,221.098662 C236.895817,218.744881 240.457982,216.058011 243.264382,212.782065 C244.762825,210.660998 247.655667,205.985115 248.316307,204.543131 C250.95075,198.037222 257.088393,193.756198 263.472083,191.252123 C267.598441,189.796987 271.604905,187.797201 275.907518,186.899494 C281.717705,186.592614 285.820798,186.188774 290.985897,188.609446 C295.062153,190.195398 297.670206,193.637329 300.467934,196.770598 C303.438334,201.164742 305.151689,207.161553 307.152243,212.238001 C308.539027,216.500881 310.054643,219.330289 312.592905,222.186886 C314.222163,224.020838 316.390014,227.021041 317.877907,229.493009 C322.192147,240.523857 326.530547,248.738449 334.043347,258.096027 C338.058761,262.471291 338.862195,264.646395 338.862195,270.454342 C340.00563,279.39607 339.921502,286.095579 337.852062,295.171419 C337.602462,295.830833 336.170025,298.207142 334.665139,300.456411 C332.446281,303.773958 331.802099,304.567558 331.167753,304.886971 C330.655966,305.143718 330.206793,305.287825 329.847177,305.197478 C329.018697,304.989905 327.957577,303.827697 327.670377,302.788059 C327.310697,301.484475 327.801043,299.688817 329.225363,297.191707 C331.623155,293.162875 332.895422,288.491643 332.100926,283.823099 C331.487166,280.442022 331.733246,276.957169 331.245566,273.563387 C330.449299,269.903441 329.290643,267.889467 328.059539,267.889467 C326.714803,267.889467 325.69395,270.231441 324.017278,276.750491 L322.929331,288.797627 C322.839731,298.652753 323.106505,306.341809 323.628958,308.462246 C324.153225,310.59431 324.155038,317.275035 323.628958,320.121083 C323.143091,322.749713 323.279091,323.874353 324.328585,326.339249 C325.388851,328.830097 325.728787,330.525553 325.572222,333.411857 C325.436222,335.895537 325.149075,336.967387 324.172905,339.396497 C323.084062,342.106545 322.896169,343.156027 322.696649,347.324443 C322.593182,349.494982 322.324489,351.83015 322.151795,352.532486 C321.160435,356.574747 321.308062,357.526705 323.240649,363.491675 C324.454761,367.242257 325.178569,370.768262 324.872585,371.263931 C324.745545,373.459526 325.437171,375.696273 324.949385,377.871291 C324.851251,378.224678 132.258537,381.208518 214.118323,372.741083 L214.118291,372.741083 Z M302.021769,285.300251 C300.590249,285.300251 299.805598,286.279985 298.136094,289.729905 C295.214899,294.873542 293.091774,299.599345 292.539742,305.586673 C291.873182,310.578214 291.582409,315.46775 291.607475,320.509382 L291.607475,327.582875 L290.985715,328.826513 C290.609929,329.517179 289.505875,330.972902 288.498441,332.012539 C287.240499,333.311643 286.412905,334.362022 285.855497,335.432977 C284.369406,338.290651 283.409395,339.821489 281.581523,342.272966 C279.539817,345.008955 277.765619,348.228977 277.384478,350.045222 C277.070451,351.535793 277.310878,353.078257 278.083251,354.242257 C278.374025,354.680657 279.317043,355.619206 280.182217,356.341222 C282.742846,358.477766 283.599977,359.881553 284.223582,363.491675 C284.495582,365.065446 284.502729,365.689947 284.302515,367.066897 C283.889182,369.893254 282.993566,371.610182 281.659571,372.352785 C291.611315,373.271611 301.642697,374.693318 311.738494,376.471985 C311.883454,375.885958 312.114281,375.226555 312.437267,374.528689 C313.703262,371.797169 313.944841,371.133307 314.302718,368.388369 C314.674878,365.539643 315.112425,363.898758 317.023497,358.284518 C318.326185,354.456091 318.372702,354.144742 318.499753,351.754993 C318.717139,347.668902 318.467753,341.593883 317.955753,339.474342 C317.283859,336.686459 317.103059,334.513233 317.101353,329.059131 C317.099561,325.35687 317.033086,323.579099 316.789993,322.296987 C316.331006,319.875035 314.83507,315.90615 313.059091,312.347931 C311.188275,308.599131 310.607614,307.254395 309.79523,304.265201 C308.462121,300.068166 306.322899,296.304166 305.67603,291.906715 C305.11059,287.426054 303.942995,285.300251 302.022963,285.300251 L302.021769,285.300251 Z M275.751593,294.471814 C275.445566,294.452614 275.156606,294.566747 274.741459,294.782321 C273.873619,295.231494 273.394942,296.221894 272.33203,300.222993 C271.181449,304.552443 270.726046,305.821137 269.766931,307.218651 C267.089097,311.119547 267.074771,311.183963 266.425225,314.990918 C265.708531,319.191526 265.631625,319.340945 262.772158,322.29703 C261.39075,323.724977 259.518142,325.580582 258.652969,326.417126 C256.671198,328.330001 255.931283,329.832198 255.932179,331.857798 C255.933971,333.405627 256.173779,334.134811 258.10899,337.608934 C259.811603,340.665233 260.438782,341.500881 261.91683,343.049606 C263.298249,344.497233 266.16755,346.721457 267.745801,347.558001 C268.891913,348.165467 270.048755,348.247814 270.932723,347.790641 C271.833737,347.325361 272.735539,346.137233 273.575667,344.371099 C273.997961,343.483526 275.049235,341.575163 275.907251,340.096219 C278.717513,335.250523 279.447582,332.967249 279.715102,327.815569 C279.810035,325.986801 279.958515,323.449425 280.104329,322.219217 C280.386142,319.829478 280.229555,317.619569 279.248969,310.560379 C279.027102,308.961553 278.669235,305.22439 278.394569,302.244145 C277.866675,296.534161 277.639475,295.688678 276.683902,294.938022 C276.346622,294.671355 276.058515,294.492475 275.751635,294.471035 L275.751593,294.471814 Z M241.942483,297.113873 C240.494142,297.269499 239.723987,297.751846 238.833662,298.667963 C237.251123,300.297211 236.504137,302.659217 236.26883,307.218609 C236.067017,311.127558 235.888777,311.784262 233.781651,316.078822 C232.231678,319.238907 231.861982,320.672219 231.061406,325.48391 C230.658633,327.906758 230.554099,328.844411 230.595059,333.411857 C230.639859,338.434694 230.625993,338.767526 230.128713,340.484454 C229.844233,341.466854 229.004435,343.561329 228.263358,345.148529 C226.633929,348.63607 226.365075,349.635451 226.087177,353.076465 C225.969097,354.541094 225.678323,356.882523 225.387657,358.283622 C225.066483,359.832347 224.799177,362.078939 224.688137,364.035643 C224.570057,366.116721 224.01027,369.098758 223.444681,371.885745 C233.311081,371.128838 243.149737,370.785265 252.978825,370.875611 C252.805278,370.482865 252.656691,370.107078 252.746185,369.631974 C252.965385,368.460817 254.055134,367.544635 256.943219,366.133702 C259.041289,365.109275 259.768681,364.618075 260.828905,363.569489 C262.897449,361.524198 264.330761,358.414225 264.327177,355.952006 C263.97379,352.58167 261.161737,350.007622 259.196969,347.402257 C257.346729,344.926619 254.278803,341.952635 251.580393,340.018299 C248.793843,338.022225 246.165929,335.769361 245.284926,334.577627 C244.887699,334.039921 244.375699,332.968059 244.118953,332.168198 C243.688766,330.828827 243.649726,330.368955 243.652606,325.872187 C243.655113,320.274054 243.704873,319.978801 245.595625,316.622779 C247.079038,313.990577 247.659081,312.099174 247.927305,308.772689 C248.049011,307.25527 248.413491,304.977361 248.704585,303.720315 C249.353438,300.916326 249.266078,299.632422 248.471411,298.590993 C247.623625,297.479782 246.395347,297.106683 243.652649,297.113851 C243.001662,297.115633 242.42547,297.061585 241.942697,297.113851 L241.942483,297.113873 Z M271.943742,365.901094 C271.161769,365.832827 270.555166,366.660667 269.766942,368.310523 C269.093235,369.722363 268.264734,370.626907 267.124894,371.341766 C270.712638,371.522459 274.252969,371.747953 277.850558,372.041393 C276.865491,371.393606 275.862537,370.361147 274.819315,368.776635 C273.620414,366.956817 272.725715,365.968166 271.943742,365.901062 L271.943742,365.901094 Z"/>
  </g>
</svg>
