<svg xmlns="http://www.w3.org/2000/svg" xmlns:xlink="http://www.w3.org/1999/xlink" width="512" height="512" viewBox="0 0 512 512">
  <defs>
    <linearGradient id="application-x-gzip-c" x1="50%" x2="50%" y1="0%" y2="100%">
      <stop offset="0%" stop-color="#19BD72"/>
      <stop offset="100%" stop-color="#00914F"/>
    </linearGradient>
    <path id="application-x-gzip-b" d="M232,0 L336,104 L336,380 C336,399.882251 319.882251,416 300,416 L36,416 C16.117749,416 2.4348735e-15,399.882251 0,380 L0,36 C-2.4348735e-15,16.117749 16.117749,3.65231026e-15 36,0 L232,0 Z"/>
    <filter id="application-x-gzip-a" width="127.4%" height="122.1%" x="-13.7%" y="-9.1%" filterUnits="objectBoundingBox">
      <feOffset dy="8" in="SourceAlpha" result="shadowOffsetOuter1"/>
      <feGaussianBlur in="shadowOffsetOuter1" result="shadowBlurOuter1" stdDeviation="14"/>
      <feColorMatrix in="shadowBlurOuter1" values="0 0 0 0 0.00784313725   0 0 0 0 0.42745098   0 0 0 0 0.168627451  0 0 0 0.5 0"/>
    </filter>
    <linearGradient id="application-x-gzip-f" x1="50%" x2="7.994%" y1="50%" y2="88.893%">
      <stop offset="0%" stop-color="#FFF" stop-opacity=".1"/>
      <stop offset="100%" stop-color="#FFF" stop-opacity=".3"/>
    </linearGradient>
    <path id="application-x-gzip-e" d="M232,0 L336,104 L268,104 C248.117749,104 232,87.882251 232,68 L232,0 Z"/>
    <filter id="application-x-gzip-d" width="126.9%" height="126.9%" x="-13.5%" y="-9.6%" filterUnits="objectBoundingBox">
      <feOffset dy="4" in="SourceAlpha" result="shadowOffsetOuter1"/>
      <feGaussianBlur in="shadowOffsetOuter1" result="shadowBlurOuter1" stdDeviation="4"/>
      <feComposite in="shadowBlurOuter1" in2="SourceAlpha" operator="out" result="shadowBlurOuter1"/>
      <feColorMatrix in="shadowBlurOuter1" values="0 0 0 0 0   0 0 0 0 0   0 0 0 0 0  0 0 0 0.05 0"/>
    </filter>
  </defs>
  <g fill="none" fill-rule="evenodd">
    <g transform="translate(88 56)">
      <use fill="#000" filter="url(#application-x-gzip-a)" xlink:href="#application-x-gzip-b"/>
      <use fill="url(#application-x-gzip-c)" xlink:href="#application-x-gzip-b"/>
      <use fill="#000" filter="url(#application-x-gzip-d)" xlink:href="#application-x-gzip-e"/>
      <use fill="url(#application-x-gzip-f)" xlink:href="#application-x-gzip-e"/>
      <g transform="translate(0 158)">
        <path fill="#FFF8F8" fill-opacity=".5" d="M144,52 L184,52 L184,28 L144,28 L144,16 L192,16 L192,64 L144,64 L144,52 Z M120,16 L120,64 L0,64 L0,16 L120,16 Z M216,16 L336,16 L336,64 L216,64 L216,16 Z"/>
        <path fill="#F4F4F4" d="M136,0 L200,0 C204.418278,-8.11624501e-16 208,3.581722 208,8 L208,72 C208,76.418278 204.418278,80 200,80 L136,80 C131.581722,80 128,76.418278 128,72 L128,8 C128,3.581722 131.581722,8.11624501e-16 136,0 Z M136,8 L136,72 L200,72 L200,8 L136,8 Z M136,36 L172,36 L172,44 L136,44 L136,36 Z"/>
      </g>
    </g>
    <path fill="#FFF" d="M232,376 L248,376 L248,384 L232,384 L232,376 Z M246.629633,384 L248,384 L248,376 L256,376 L256,408 L248,408 L248,397.152016 C242.130578,403.803852 233.544759,408 224,408 C206.326888,408 192,393.602772 192,376.000454 L192,367.999546 C192,350.326685 206.362849,336 224,336 C238.912233,336 251.442067,346.191849 254.992944,360 L246.635929,360 C243.343138,350.675393 234.454449,344 224,344 C210.767293,344 200,354.758789 200,367.999546 L200,376.000454 C200,389.211555 210.772195,400 224,400 C234.429713,400 243.327987,393.31569 246.629633,384 Z M264,336 L319.999999,336 L319.999999,344 L276,400 L319.999999,400 L319.999999,408 L264.000001,408 L264,400 L308,344 L264.000001,344 L264,336 Z"/>
  </g>
</svg>
