<svg xmlns="http://www.w3.org/2000/svg" xmlns:xlink="http://www.w3.org/1999/xlink" width="512" height="512" viewBox="0 0 512 512">
  <defs>
    <linearGradient id="application-x-executable-c" x1="50%" x2="50%" y1="0%" y2="100%">
      <stop offset="0%" stop-color="#AC92FF"/>
      <stop offset="100%" stop-color="#804EE2"/>
    </linearGradient>
    <path id="application-x-executable-b" d="M232,0 L336,104 L336,380 C336,399.882251 319.882251,416 300,416 L36,416 C16.117749,416 2.4348735e-15,399.882251 0,380 L0,36 C-2.4348735e-15,16.117749 16.117749,3.65231026e-15 36,0 L232,0 Z"/>
    <filter id="application-x-executable-a" width="127.4%" height="122.1%" x="-13.7%" y="-9.1%" filterUnits="objectBoundingBox">
      <feOffset dy="8" in="SourceAlpha" result="shadowOffsetOuter1"/>
      <feGaussianBlur in="shadowOffsetOuter1" result="shadowBlurOuter1" stdDeviation="14"/>
      <feColorMatrix in="shadowBlurOuter1" values="0 0 0 0 0.538881273   0 0 0 0 0.186318598   0 0 0 0 1  0 0 0 0.5 0"/>
    </filter>
    <linearGradient id="application-x-executable-f" x1="50%" x2="7.994%" y1="50%" y2="88.893%">
      <stop offset="0%" stop-color="#FFF" stop-opacity=".1"/>
      <stop offset="100%" stop-color="#FFF" stop-opacity=".3"/>
    </linearGradient>
    <path id="application-x-executable-e" d="M232,0 L336,104 L268,104 C248.117749,104 232,87.882251 232,68 L232,0 Z"/>
    <filter id="application-x-executable-d" width="126.9%" height="126.9%" x="-13.5%" y="-9.6%" filterUnits="objectBoundingBox">
      <feOffset dy="4" in="SourceAlpha" result="shadowOffsetOuter1"/>
      <feGaussianBlur in="shadowOffsetOuter1" result="shadowBlurOuter1" stdDeviation="4"/>
      <feComposite in="shadowBlurOuter1" in2="SourceAlpha" operator="out" result="shadowBlurOuter1"/>
      <feColorMatrix in="shadowBlurOuter1" values="0 0 0 0 0   0 0 0 0 0   0 0 0 0 0  0 0 0 0.05 0"/>
    </filter>
  </defs>
  <g fill="none" fill-rule="evenodd">
    <g transform="translate(88 56)">
      <use fill="#000" filter="url(#application-x-executable-a)" xlink:href="#application-x-executable-b"/>
      <use fill="url(#application-x-executable-c)" xlink:href="#application-x-executable-b"/>
      <use fill="#000" filter="url(#application-x-executable-d)" xlink:href="#application-x-executable-e"/>
      <use fill="url(#application-x-executable-f)" xlink:href="#application-x-executable-e"/>
    </g>
    <path fill="#FFF" d="M286.840047,263.442442 C280.781898,260.901928 276.513423,254.977491 276.513423,248.003934 C276.513423,241.020092 280.792184,235.095655 286.850332,232.565426 C287.6526,232.226005 288.146303,231.392881 287.940594,230.539186 C286.109778,222.999928 283.126988,215.913231 279.187649,209.474519 C278.735087,208.733965 277.799109,208.487113 276.986555,208.826534 C270.907836,211.315621 263.697713,210.153361 258.760682,205.21633 C253.823651,200.279299 252.661391,193.079462 255.150478,187.000742 C255.479613,186.198474 255.243047,185.262495 254.502492,184.799649 C248.053495,180.860309 240.966798,177.877519 233.42754,176.046704 C232.573845,175.840994 231.740721,176.334697 231.4013,177.136965 C228.871072,183.205399 222.936349,187.494445 215.952507,187.494445 C208.97895,187.494445 203.054513,183.215685 200.513999,177.157536 C200.174578,176.355268 199.341454,175.861565 198.487759,176.067275 C190.948501,177.908376 183.851518,180.901451 177.412807,184.851076 C176.672252,185.303637 176.445971,186.229331 176.764821,187.021313 C179.243622,193.100032 178.081363,200.29987 173.144332,205.236901 C168.217586,210.163647 161.028034,211.336192 154.9596,208.867676 C154.157332,208.538541 153.241924,208.775107 152.789363,209.515661 C148.850024,215.964658 145.867234,223.061641 144.046704,230.600899 C143.840994,231.444308 144.334697,232.287718 145.136965,232.627139 C151.174543,235.167653 155.443018,241.09209 155.443018,248.055362 C155.443018,255.018633 151.195114,260.922499 145.167821,263.473299 C144.365554,263.81272 143.871851,264.645844 144.07756,265.499539 C145.908376,273.038797 148.911737,280.125494 152.861362,286.574491 C153.313923,287.30476 154.229331,287.541326 155.031598,287.222476 C161.100032,284.764246 168.279299,285.947076 173.195759,290.863537 C178.112219,295.769711 179.284764,302.948978 176.83682,309.007126 C176.51797,309.809394 176.754536,310.724802 177.484805,311.177363 C183.933802,315.126988 191.030784,318.109778 198.570043,319.940594 C199.413452,320.146303 200.256862,319.6526 200.596282,318.850332 C203.147082,312.82304 209.061234,308.575136 216.01422,308.575136 C222.977491,308.575136 228.881357,312.82304 231.432157,318.850332 C231.771578,319.6526 232.604702,320.146303 233.458397,319.940594 C240.997655,318.109778 248.094637,315.126988 254.543634,311.177363 C255.284189,310.724802 255.51047,309.809394 255.19162,309.007126 C252.723104,302.938692 253.895649,295.74914 258.822395,290.822395 C263.74914,285.895649 270.948978,284.733389 277.017412,287.201905 C277.819679,287.531041 278.735087,287.294474 279.187649,286.55392 C283.137274,280.104923 286.130349,273.018226 287.961164,265.468682 C288.146303,264.614987 287.6526,263.781863 286.840047,263.442442 L286.840047,263.442442 Z M215.993649,283.992835 C196.142669,283.992835 179.994462,267.844628 179.994462,247.993649 C179.994462,228.142669 196.142669,211.994462 215.993649,211.994462 C235.844628,211.994462 251.992835,228.142669 251.992835,247.993649 C251.992835,267.844628 235.844628,283.992835 215.993649,283.992835 Z M359.902857,338.93219 C359.86019,339.497523 359.401523,339.92419 358.846857,339.966857 C354.61219,340.382857 350.825523,343.230857 349.49219,347.561523 C348.158857,351.881523 349.68419,356.37219 352.94819,359.102857 C353.385523,359.465523 353.52419,360.073523 353.23619,360.56419 C350.665523,364.894857 347.454857,368.713523 343.774857,371.95619 C343.34819,372.329523 342.74019,372.297523 342.302857,371.945523 C339.006857,369.257523 334.32419,368.606857 330.334857,370.718857 C326.345523,372.830857 324.254857,377.054857 324.617523,381.289523 C324.670857,381.854857 324.350857,382.377523 323.806857,382.51619 C319.06019,383.721523 314.10019,384.222857 309.07619,383.913523 C308.510857,383.881523 308.08419,383.422857 308.030857,382.857523 C307.593523,378.633523 304.745523,374.878857 300.43619,373.545523 C296.11619,372.21219 291.646857,373.726857 288.91619,376.969523 C288.553523,377.406857 287.945523,377.545523 287.454857,377.257523 C283.12419,374.67619 279.305523,371.47619 276.062857,367.79619 C275.689523,367.369523 275.721523,366.761523 276.073523,366.32419 C278.74019,363.038857 279.390857,358.366857 277.278857,354.38819 C275.166857,350.398857 270.942857,348.297523 266.718857,348.66019 C266.16419,348.713523 265.641523,348.393523 265.502857,347.849523 C264.286857,343.09219 263.785523,338.13219 264.08419,333.10819 C264.11619,332.542857 264.574857,332.11619 265.14019,332.062857 C269.36419,331.625523 273.118857,328.777523 274.45219,324.46819 C275.785523,320.14819 274.270857,315.66819 271.017523,312.937523 C270.590857,312.574857 270.441523,311.966857 270.729523,311.47619 C273.289523,307.15619 276.50019,303.326857 280.169523,300.08419 C280.59619,299.710857 281.20419,299.742857 281.641523,300.094857 C284.926857,302.782857 289.609523,303.433523 293.598857,301.321523 C297.598857,299.209523 299.689523,294.96419 299.31619,290.729523 C299.262857,290.174857 299.582857,289.641523 300.126857,289.502857 C304.873523,288.286857 309.84419,287.785523 314.86819,288.08419 C315.433523,288.11619 315.86019,288.585523 315.913523,289.150857 C316.329523,293.39619 319.18819,297.17219 323.50819,298.505523 C327.838857,299.838857 332.329523,298.313523 335.06019,295.038857 C335.422857,294.61219 336.030857,294.462857 336.521523,294.750857 C340.85219,297.321523 344.670857,300.53219 347.913523,304.201523 C348.286857,304.617523 348.265523,305.246857 347.902857,305.68419 C345.20419,308.98019 344.553523,313.662857 346.665523,317.662857 C348.777523,321.662857 353.022857,323.76419 357.26819,323.38019 C357.833523,323.326857 358.366857,323.657523 358.505523,324.201523 C359.710857,328.94819 360.21219,333.90819 359.902857,338.93219 Z M305.10819,358.313523 C317.406857,362.10019 330.505523,355.177523 334.29219,342.878857 C338.078857,330.58019 331.15619,317.481523 318.857523,313.694857 C306.558857,309.90819 293.46019,316.830857 289.673523,329.129523 C285.886857,341.42819 292.809523,354.526857 305.10819,358.313523 Z"/>
  </g>
</svg>
