<svg xmlns="http://www.w3.org/2000/svg" xmlns:xlink="http://www.w3.org/1999/xlink" width="512" height="512" viewBox="0 0 512 512">
  <defs>
    <linearGradient id="application-vnd.ms-excel-c" x1="50%" x2="50%" y1="0%" y2="100%">
      <stop offset="0%" stop-color="#0AA346"/>
      <stop offset="100%" stop-color="#006025"/>
    </linearGradient>
    <path id="application-vnd.ms-excel-b" d="M232,0 L336,104 L336,380 C336,399.882251 319.882251,416 300,416 L36,416 C16.117749,416 2.4348735e-15,399.882251 0,380 L0,36 C-2.4348735e-15,16.117749 16.117749,3.65231026e-15 36,0 L232,0 Z"/>
    <filter id="application-vnd.ms-excel-a" width="127.4%" height="122.1%" x="-13.7%" y="-9.1%" filterUnits="objectBoundingBox">
      <feOffset dy="8" in="SourceAlpha" result="shadowOffsetOuter1"/>
      <feGaussianBlur in="shadowOffsetOuter1" result="shadowBlurOuter1" stdDeviation="14"/>
      <feColorMatrix in="shadowBlurOuter1" values="0 0 0 0 0.00784313725   0 0 0 0 0.42745098   0 0 0 0 0.168627451  0 0 0 0.5 0"/>
    </filter>
    <linearGradient id="application-vnd.ms-excel-f" x1="50%" x2="7.994%" y1="50%" y2="88.893%">
      <stop offset="0%" stop-color="#FFF" stop-opacity=".1"/>
      <stop offset="100%" stop-color="#FFF" stop-opacity=".3"/>
    </linearGradient>
    <path id="application-vnd.ms-excel-e" d="M232,0 L336,104 L268,104 C248.117749,104 232,87.882251 232,68 L232,0 Z"/>
    <filter id="application-vnd.ms-excel-d" width="126.9%" height="126.9%" x="-13.5%" y="-9.6%" filterUnits="objectBoundingBox">
      <feOffset dy="4" in="SourceAlpha" result="shadowOffsetOuter1"/>
      <feGaussianBlur in="shadowOffsetOuter1" result="shadowBlurOuter1" stdDeviation="4"/>
      <feComposite in="shadowBlurOuter1" in2="SourceAlpha" operator="out" result="shadowBlurOuter1"/>
      <feColorMatrix in="shadowBlurOuter1" values="0 0 0 0 0   0 0 0 0 0   0 0 0 0 0  0 0 0 0.05 0"/>
    </filter>
  </defs>
  <g fill="none" fill-rule="evenodd">
    <g transform="translate(88 56)">
      <use fill="#000" filter="url(#application-vnd.ms-excel-a)" xlink:href="#application-vnd.ms-excel-b"/>
      <use fill="url(#application-vnd.ms-excel-c)" xlink:href="#application-vnd.ms-excel-b"/>
      <use fill="#000" filter="url(#application-vnd.ms-excel-d)" xlink:href="#application-vnd.ms-excel-e"/>
      <use fill="url(#application-vnd.ms-excel-f)" xlink:href="#application-vnd.ms-excel-e"/>
    </g>
    <polygon fill="#FFF" points="168 328 168 210.667 264 168 319.737 189.559 320 352 264 368 168 328 264 344 264 205.333 200 226.667 200 312"/>
  </g>
</svg>
