<svg xmlns="http://www.w3.org/2000/svg" xmlns:xlink="http://www.w3.org/1999/xlink" width="512" height="512" viewBox="0 0 512 512">
  <defs>
    <linearGradient id="image-tiff-c" x1="50%" x2="50%" y1="0%" y2="100%">
      <stop offset="0%" stop-color="#28DCB1"/>
      <stop offset="100%" stop-color="#00AF9D"/>
    </linearGradient>
    <path id="image-tiff-b" d="M232,0 L336,104 L336,380 C336,399.882251 319.882251,416 300,416 L36,416 C16.117749,416 2.4348735e-15,399.882251 0,380 L0,36 C-2.4348735e-15,16.117749 16.117749,3.65231026e-15 36,0 L232,0 Z"/>
    <filter id="image-tiff-a" width="127.4%" height="122.1%" x="-13.7%" y="-9.1%" filterUnits="objectBoundingBox">
      <feOffset dy="8" in="SourceAlpha" result="shadowOffsetOuter1"/>
      <feGaussianBlur in="shadowOffsetOuter1" result="shadowBlurOuter1" stdDeviation="14"/>
      <feColorMatrix in="shadowBlurOuter1" values="0 0 0 0 0.262745098   0 0 0 0 0.71372549   0 0 0 0 0.607843137  0 0 0 0.5 0"/>
    </filter>
    <linearGradient id="image-tiff-f" x1="50%" x2="7.994%" y1="50%" y2="88.893%">
      <stop offset="0%" stop-color="#FFF" stop-opacity=".1"/>
      <stop offset="100%" stop-color="#FFF" stop-opacity=".3"/>
    </linearGradient>
    <path id="image-tiff-e" d="M232,0 L336,104 L268,104 C248.117749,104 232,87.882251 232,68 L232,0 Z"/>
    <filter id="image-tiff-d" width="126.9%" height="126.9%" x="-13.5%" y="-9.6%" filterUnits="objectBoundingBox">
      <feOffset dy="4" in="SourceAlpha" result="shadowOffsetOuter1"/>
      <feGaussianBlur in="shadowOffsetOuter1" result="shadowBlurOuter1" stdDeviation="4"/>
      <feComposite in="shadowBlurOuter1" in2="SourceAlpha" operator="out" result="shadowBlurOuter1"/>
      <feColorMatrix in="shadowBlurOuter1" values="0 0 0 0 0   0 0 0 0 0   0 0 0 0 0  0 0 0 0.05 0"/>
    </filter>
  </defs>
  <g fill="none" fill-rule="evenodd">
    <g transform="translate(88 56)">
      <use fill="#000" filter="url(#image-tiff-a)" xlink:href="#image-tiff-b"/>
      <use fill="url(#image-tiff-c)" xlink:href="#image-tiff-b"/>
      <use fill="#000" filter="url(#image-tiff-d)" xlink:href="#image-tiff-e"/>
      <use fill="url(#image-tiff-f)" xlink:href="#image-tiff-e"/>
    </g>
    <path fill="#FFF" d="M200,360 L184,360 L184,352 L224,352 L224,360 L208,360 L208,408 L200,408 L200,360 Z M232,352 L240,352 L240,408 L232,408 L232,352 Z M256,408 L248,408 L248,352 L288,352 L288,360 L256,360 L256,376 L280,376 L280,384 L256,384 L256,408 Z M304,408 L296,408 L296,352 L336,352 L336,360 L304,360 L304,376 L328,376 L328,384 L304,384 L304,408 Z M167.658667,328 L167.658667,184 L343.658667,184 L343.658667,328 L167.658667,328 Z M184,312.032 L236,208 L264,268 L280,236 L328,311.944893 L184,312.032 Z M176,320 L336,320 L335.008,192 L175.008,192 L176,320 Z"/>
  </g>
</svg>
