<svg xmlns="http://www.w3.org/2000/svg" xmlns:xlink="http://www.w3.org/1999/xlink" width="512" height="512" viewBox="0 0 512 512">
  <defs>
    <linearGradient id="image-x-xcf-c" x1="50%" x2="50%" y1="0%" y2="100%">
      <stop offset="0%" stop-color="#28DCB1"/>
      <stop offset="100%" stop-color="#00AF9D"/>
    </linearGradient>
    <path id="image-x-xcf-b" d="M232,0 L336,104 L336,380 C336,399.882251 319.882251,416 300,416 L36,416 C16.117749,416 2.4348735e-15,399.882251 0,380 L0,36 C-2.4348735e-15,16.117749 16.117749,3.65231026e-15 36,0 L232,0 Z"/>
    <filter id="image-x-xcf-a" width="127.4%" height="122.1%" x="-13.7%" y="-9.1%" filterUnits="objectBoundingBox">
      <feOffset dy="8" in="SourceAlpha" result="shadowOffsetOuter1"/>
      <feGaussianBlur in="shadowOffsetOuter1" result="shadowBlurOuter1" stdDeviation="14"/>
      <feColorMatrix in="shadowBlurOuter1" values="0 0 0 0 0.262745098   0 0 0 0 0.71372549   0 0 0 0 0.607843137  0 0 0 0.5 0"/>
    </filter>
    <linearGradient id="image-x-xcf-f" x1="50%" x2="7.994%" y1="50%" y2="88.893%">
      <stop offset="0%" stop-color="#FFF" stop-opacity=".1"/>
      <stop offset="100%" stop-color="#FFF" stop-opacity=".3"/>
    </linearGradient>
    <path id="image-x-xcf-e" d="M232,0 L336,104 L268,104 C248.117749,104 232,87.882251 232,68 L232,0 Z"/>
    <filter id="image-x-xcf-d" width="126.9%" height="126.9%" x="-13.5%" y="-9.6%" filterUnits="objectBoundingBox">
      <feOffset dy="4" in="SourceAlpha" result="shadowOffsetOuter1"/>
      <feGaussianBlur in="shadowOffsetOuter1" result="shadowBlurOuter1" stdDeviation="4"/>
      <feComposite in="shadowBlurOuter1" in2="SourceAlpha" operator="out" result="shadowBlurOuter1"/>
      <feColorMatrix in="shadowBlurOuter1" values="0 0 0 0 0   0 0 0 0 0   0 0 0 0 0  0 0 0 0.05 0"/>
    </filter>
  </defs>
  <g fill="none" fill-rule="evenodd">
    <g transform="translate(88 56)">
      <use fill="#000" filter="url(#image-x-xcf-a)" xlink:href="#image-x-xcf-b"/>
      <use fill="url(#image-x-xcf-c)" xlink:href="#image-x-xcf-b"/>
      <use fill="#000" filter="url(#image-x-xcf-d)" xlink:href="#image-x-xcf-e"/>
      <use fill="url(#image-x-xcf-f)" xlink:href="#image-x-xcf-e"/>
    </g>
    <path fill="#FFF" d="M264.528261,400 C268.97184,400 273.227737,399.142384 276,396 L283.333649,399.683461 C278.713376,404.92058 271.897659,408 264.528261,408 C250.967828,408 240,397.554411 240,384.621106 L240,375.378894 C240,362.447451 250.926599,352 264.528261,352 C271.655091,352 278.299355,354.917687 282.924487,359.903674 L276,364 C273.217427,361.00033 268.808975,360 264.528261,360 C256.356467,360 248,367.591481 248,375.378894 L248,384.621106 C248,392.402168 256.389004,400 264.528261,400 Z M216,372.255325 L229.600006,352 L240,352 L221.199997,380 L240,408 L229.600006,408 L216,387.744675 L202.399994,408 L192,408 L210.800003,380 L192,352 L202.399994,352 L216,372.255325 Z M296,408 L288,408 L288,352 L328,352 L328,360 L296,360 L296,376 L320,376 L320,384 L296,384 L296,408 Z M167.658667,328 L167.658667,184 L343.658667,184 L343.658667,328 L167.658667,328 Z M184,312.032 L236,208 L264,268 L280,236 L328,311.944893 L184,312.032 Z M176,320 L336,320 L335.008,192 L175.008,192 L176,320 Z"/>
  </g>
</svg>
