<svg xmlns="http://www.w3.org/2000/svg" xmlns:xlink="http://www.w3.org/1999/xlink" width="512" height="512" viewBox="0 0 512 512">
  <defs>
    <linearGradient id="text-x-markdown-c" x1="50%" x2="50%" y1="0%" y2="99.203%">
      <stop offset="0%" stop-color="#969BEB"/>
      <stop offset="100%" stop-color="#6B7ABD"/>
    </linearGradient>
    <path id="text-x-markdown-b" d="M232,0 L336,104 L336,380 C336,399.882251 319.882251,416 300,416 L36,416 C16.117749,416 2.4348735e-15,399.882251 0,380 L0,36 C-2.4348735e-15,16.117749 16.117749,3.65231026e-15 36,0 L232,0 Z"/>
    <filter id="text-x-markdown-a" width="127.4%" height="122.1%" x="-13.7%" y="-9.1%" filterUnits="objectBoundingBox">
      <feOffset dy="8" in="SourceAlpha" result="shadowOffsetOuter1"/>
      <feGaussianBlur in="shadowOffsetOuter1" result="shadowBlurOuter1" stdDeviation="14"/>
      <feColorMatrix in="shadowBlurOuter1" values="0 0 0 0 0.412487457   0 0 0 0 0.432348264   0 0 0 0 0.759369339  0 0 0 0.5 0"/>
    </filter>
    <linearGradient id="text-x-markdown-f" x1="50%" x2="7.994%" y1="50%" y2="88.893%">
      <stop offset="0%" stop-color="#FFF" stop-opacity=".1"/>
      <stop offset="100%" stop-color="#FFF" stop-opacity=".3"/>
    </linearGradient>
    <path id="text-x-markdown-e" d="M232,0 L336,104 L268,104 C248.117749,104 232,87.882251 232,68 L232,0 Z"/>
    <filter id="text-x-markdown-d" width="126.9%" height="126.9%" x="-13.5%" y="-9.6%" filterUnits="objectBoundingBox">
      <feOffset dy="4" in="SourceAlpha" result="shadowOffsetOuter1"/>
      <feGaussianBlur in="shadowOffsetOuter1" result="shadowBlurOuter1" stdDeviation="4"/>
      <feComposite in="shadowBlurOuter1" in2="SourceAlpha" operator="out" result="shadowBlurOuter1"/>
      <feColorMatrix in="shadowBlurOuter1" values="0 0 0 0 0   0 0 0 0 0   0 0 0 0 0  0 0 0 0.05 0"/>
    </filter>
  </defs>
  <g fill="none" fill-rule="evenodd">
    <g transform="translate(88 56)">
      <use fill="#000" filter="url(#text-x-markdown-a)" xlink:href="#text-x-markdown-b"/>
      <use fill="url(#text-x-markdown-c)" xlink:href="#text-x-markdown-b"/>
      <use fill="#000" filter="url(#text-x-markdown-d)" xlink:href="#text-x-markdown-e"/>
      <use fill="url(#text-x-markdown-f)" xlink:href="#text-x-markdown-e"/>
    </g>
    <path fill="#FFF" d="M176,232 L176,320 L200,320 L200,272 L220,296 L240,272 L240,320 L264,320 L264,232 L240,232 L220,260 L200,232 L176,232 Z M168,208 L344,208 C344,208 360,208 360,224 L360,328 C360,328 360,344 344,344 L168,344 C160,344 152,336 152,328 L152,224 C152,224 152,208 168,208 Z M296,232 L320,232 L320,272 L344,272 L308,320 L272,272 L296,272 L296,232 Z M168,216 C168,216 160,216 160,224 L160,328 C160,332 164,336 168,336 L344,336 C352,336 352,328 352,328 L352,224 C352,216 344,216 344,216 L168,216 Z"/>
  </g>
</svg>
