<svg xmlns="http://www.w3.org/2000/svg" xmlns:xlink="http://www.w3.org/1999/xlink" width="512" height="512" viewBox="0 0 512 512">
  <defs>
    <linearGradient id="x-dia-diagram-c" x1="50%" x2="50%" y1="0%" y2="98.501%">
      <stop offset="0%" stop-color="#7FCB10"/>
      <stop offset="100%" stop-color="#50A100"/>
    </linearGradient>
    <path id="x-dia-diagram-b" d="M232,0 L336,104 L336,380 C336,399.882251 319.882251,416 300,416 L36,416 C16.117749,416 2.4348735e-15,399.882251 0,380 L0,36 C-2.4348735e-15,16.117749 16.117749,3.65231026e-15 36,0 L232,0 Z"/>
    <filter id="x-dia-diagram-a" width="127.4%" height="122.1%" x="-13.7%" y="-9.1%" filterUnits="objectBoundingBox">
      <feOffset dy="8" in="SourceAlpha" result="shadowOffsetOuter1"/>
      <feGaussianBlur in="shadowOffsetOuter1" result="shadowBlurOuter1" stdDeviation="14"/>
      <feColorMatrix in="shadowBlurOuter1" values="0 0 0 0 0.46370117   0 0 0 0 0.679376132   0 0 0 0 0  0 0 0 0.5 0"/>
    </filter>
    <linearGradient id="x-dia-diagram-f" x1="50%" x2="7.994%" y1="50%" y2="88.893%">
      <stop offset="0%" stop-color="#FFF" stop-opacity=".1"/>
      <stop offset="100%" stop-color="#FFF" stop-opacity=".3"/>
    </linearGradient>
    <path id="x-dia-diagram-e" d="M232,0 L336,104 L268,104 C248.117749,104 232,87.882251 232,68 L232,0 Z"/>
    <filter id="x-dia-diagram-d" width="126.9%" height="126.9%" x="-13.5%" y="-9.6%" filterUnits="objectBoundingBox">
      <feOffset dy="4" in="SourceAlpha" result="shadowOffsetOuter1"/>
      <feGaussianBlur in="shadowOffsetOuter1" result="shadowBlurOuter1" stdDeviation="4"/>
      <feComposite in="shadowBlurOuter1" in2="SourceAlpha" operator="out" result="shadowBlurOuter1"/>
      <feColorMatrix in="shadowBlurOuter1" values="0 0 0 0 0   0 0 0 0 0   0 0 0 0 0  0 0 0 0.05 0"/>
    </filter>
  </defs>
  <g fill="none" fill-rule="evenodd">
    <g transform="translate(88 56)">
      <use fill="#000" filter="url(#x-dia-diagram-a)" xlink:href="#x-dia-diagram-b"/>
      <use fill="url(#x-dia-diagram-c)" xlink:href="#x-dia-diagram-b"/>
      <use fill="#000" filter="url(#x-dia-diagram-d)" xlink:href="#x-dia-diagram-e"/>
      <use fill="url(#x-dia-diagram-f)" xlink:href="#x-dia-diagram-e"/>
    </g>
    <path fill="#FFF" d="M288,216 L224,216 L224,176 L288,176 L288,216 Z M252,237.907853 L252,224 L220,224 L216,224 L216,220 L216,172 L216,168 L220,168 L292,168 L296,168 L296,172 L296,220 L296,224 L292,224 L260,224 L260,237.907853 L310.147502,272.625354 L315.450517,276 L310.147502,279.374646 L258.147502,315.374646 L256,316.741238 L253.852498,315.374646 L201.852498,279.374646 L196.549483,276 L201.852498,272.625354 L252,237.907853 Z M256.074451,235.30614 L257.387028,236.141416 L256.14611,235.258762 L256.074451,235.30614 Z M336,328 L372,328 L376,328 L376,332 L376,380 L376,384 L372,384 L292,384 L288,384 L288,380 L288,332 L288,328 L292,328 L328,328 L328,280 L310,280 L316,276 L310,272 L336,272 L336,328 Z M184,328 L220,328 L224,328 L224,332 L224,380 L224,384 L220,384 L140,384 L136,384 L136,380 L136,332 L136,328 L140,328 L176,328 L176,272 L202,272 L196,276.054725 L202,280 L184,280 L184,328 Z M216,376 L216,336 L144,336 L144,376 L216,376 Z M368,376 L368,336 L296,336 L296,376 L368,376 Z M252,237.907853 L252,238 L256.074451,235.30614 L256,235.258762 L253.852498,236.625354 L252,237.907853 Z M257.387028,236.141416 L260,238 L260,237.907853 L258.147502,236.625354 L257.387028,236.141416 Z M256.14611,307.351741 L300.50561,275.972081 L256.025884,244.75771 L211.403219,276.030098 L256.14611,307.351741 Z"/>
  </g>
</svg>
