<svg xmlns="http://www.w3.org/2000/svg" xmlns:xlink="http://www.w3.org/1999/xlink" width="32" height="32" viewBox="0 0 32 32">
  <defs>
    <filter id="stack-app-a" width="130.8%" height="134.8%" x="-15.4%" y="-17.4%" filterUnits="objectBoundingBox">
      <feOffset dy="1" in="SourceAlpha" result="shadowOffsetOuter1"/>
      <feGaussianBlur in="shadowOffsetOuter1" result="shadowBlurOuter1" stdDeviation=".5"/>
      <feColorMatrix in="shadowBlurOuter1" result="shadowMatrixOuter1" values="0 0 0 0 0   0 0 0 0 0   0 0 0 0 0  0 0 0 0.5 0"/>
      <feMerge>
        <feMergeNode in="shadowMatrixOuter1"/>
        <feMergeNode in="SourceGraphic"/>
      </feMerge>
    </filter>
    <linearGradient id="stack-app-c" x1="50%" x2="50%" y1="0%" y2="97.162%">
      <stop offset="0%" stop-color="#582BFF"/>
      <stop offset="100%" stop-color="#7D5FFF"/>
    </linearGradient>
    <path id="stack-app-b" d="M0.496167898,23 C0.222141935,23 2.20558372e-11,22.7753906 2.17551399e-11,22.5056152 L5.64818527e-13,3.49438477 C2.60481043e-13,3.2213436 0.2247715,3 0.496167898,3 L25.5038321,3 C25.7778581,3 26,3.22460938 26,3.49438477 L26,22.5056152 C26,22.7786564 25.7752285,23 25.5038321,23 L0.496167898,23 Z"/>
    <linearGradient id="stack-app-e" x1="66.942%" x2="46.177%" y1="100%" y2="-16.413%">
      <stop offset="0%" stop-color="#5700FC"/>
      <stop offset="100%" stop-color="#5867FF" stop-opacity="0"/>
    </linearGradient>
    <linearGradient id="stack-app-f" x1="100%" x2="8.859%" y1="77.19%" y2="4.533%">
      <stop offset="0%" stop-color="#D1C0FF"/>
      <stop offset="100%" stop-color="#8375FF"/>
    </linearGradient>
    <linearGradient id="stack-app-g" x1="50%" x2="50%" y1="0%" y2="392.791%">
      <stop offset="0%" stop-color="#FFF" stop-opacity=".8"/>
      <stop offset="100%" stop-color="#882AFF" stop-opacity=".117"/>
    </linearGradient>
    <linearGradient id="stack-app-h" x1="50%" x2="50%" y1="-22.147%" y2="100%">
      <stop offset="0%" stop-color="#CAA2FF" stop-opacity=".3"/>
      <stop offset="100%" stop-color="#6249F0"/>
    </linearGradient>
    <linearGradient id="stack-app-i" x1="-3.822%" y1="55.584%" y2="40.499%">
      <stop offset="0%" stop-color="#B9B7FF"/>
      <stop offset="100%" stop-color="#8174FF"/>
    </linearGradient>
    <linearGradient id="stack-app-j" x1="50%" x2="50%" y1="-22.147%" y2="100%">
      <stop offset="0%" stop-color="#B6A2FF"/>
      <stop offset="100%" stop-color="#6249F0"/>
    </linearGradient>
  </defs>
  <g fill="none" fill-rule="evenodd" filter="url(#stack-app-a)" transform="translate(3 6)">
    <path fill="#4A00D5" d="M16.0901184,0.273254395 C16.3164898,0.12234016 16.716372,0 16.9920959,0 L23.5079041,0 C23.7796811,0 24,0.217677487 24,0.500688371 L24,21.9935093 L2,21.9935093 L2,1.49823718 C2,1.22306838 2.22563934,1 2.49374104,1 L14.506259,1 C14.7789446,1 15.1839294,0.877380371 15.4098816,0.726745605 L16.0901184,0.273254395 Z"/>
    <path fill="#D7D7D7" d="M1.50127413,22 C1.22442807,22 1,21.7753906 1,21.5056152 L1.00000001,2.49438477 C1.00000001,2.2213436 1.22226538,2 1.50127414,2 L24.4987267,2 C24.7755728,2 25.0000009,2.22460938 25.0000009,2.49438477 L25.0000009,21.5056152 C25.0000009,21.7786564 24.7777355,22 24.4987267,22 L1.50127413,22 Z"/>
    <mask id="stack-app-d" fill="#fff">
      <use xlink:href="#stack-app-b"/>
    </mask>
    <use fill="url(#stack-app-c)" xlink:href="#stack-app-b"/>
    <g mask="url(#stack-app-d)">
      <g transform="translate(-2 -3)">
        <polygon fill="url(#stack-app-e)" points="0 20.08 15.13 26 23 22.92 7.87 17"/>
        <polygon fill="url(#stack-app-e)" points="7 20.08 22.13 26 30 22.92 14.87 17" transform="matrix(-1 0 0 1 37 0)"/>
        <g transform="translate(5 9)">
          <polygon fill="url(#stack-app-f)" points="3 3 10 6 10 15 3 12"/>
          <polygon fill="url(#stack-app-g)" points="3 3 10 6 17 3 10 0"/>
          <polygon fill="url(#stack-app-h)" points="10 6 17 3 10 0"/>
          <polygon fill="url(#stack-app-i)" points="17 3 17 12 10 15 10 6"/>
          <polygon fill="url(#stack-app-j)" points="3 3 10 6 7.5 9.062 .5 6.062"/>
          <polygon fill="url(#stack-app-j)" points="17 3 19.614 6.062 12.614 9.062 10 6"/>
        </g>
        <g transform="translate(1)">
          <ellipse cx="17.19" cy="8.167" fill="#FFD506" rx="1" ry="1"/>
          <ellipse cx="9.188" cy="7.292" fill="#FF00FE" rx="1" ry="1"/>
          <ellipse cx="1.186" cy="6.417" fill="#4000E0" rx="1" ry="1"/>
          <polygon fill="#4000E0" points="12.045 3.684 13.227 3.677 13.221 4.846 12.038 4.853" transform="rotate(23 12.633 4.265)"/>
          <polygon fill="#EB5959" points="24.211 10.008 24.802 10.005 24.799 10.59 24.207 10.593" transform="rotate(23 24.505 10.3)"/>
          <polygon fill="#4000E0" points="14.354 11.204 14.942 11.199 14.937 11.787 14.349 11.792" transform="rotate(45 14.646 11.496)"/>
          <polygon fill="#FFD506" points="13.761 12.954 14.349 12.949 14.344 13.537 13.756 13.542" transform="rotate(45 14.053 13.246)"/>
          <ellipse cx="14.523" cy="9.625" fill="#FFF" rx="1" ry="1"/>
          <ellipse cx="12.152" cy="11.958" fill="#FFF" rx="1" ry="1"/>
          <polygon fill="#8A0991" points="14.354 6.537 14.942 6.533 14.937 7.121 14.349 7.126" transform="rotate(45 14.646 6.83)"/>
          <polygon fill="#FFF" points="12.33 10.268 13.499 10.263 13.496 10.855 12.328 10.86" opacity=".6" transform="rotate(72 12.913 10.562)"/>
          <polygon fill="#4000E0" points="6.648 7.121 7.236 7.116 7.231 7.704 6.643 7.709" transform="rotate(45 6.94 7.412)"/>
          <polygon fill="#9757FF" points="10.797 7.704 11.385 7.699 11.381 8.287 10.793 8.292" transform="rotate(45 11.089 7.996)"/>
          <polygon fill="#FFD506" points="6.648 5.954 7.236 5.949 7.231 6.537 6.643 6.542" transform="rotate(45 6.94 6.246)"/>
          <polygon fill="#7DAC00" points="19.397 7.583 20.573 7.574 20.564 8.75 19.388 8.759" opacity=".9" transform="rotate(45 19.98 8.167)"/>
          <polygon fill="#8A0991" points="19.096 6.537 19.684 6.533 19.679 7.121 19.091 7.126" transform="rotate(45 19.388 6.83)"/>
          <polygon fill="#00C894" points="18.194 10.533 18.782 10.528 18.773 11.704 18.185 11.709" transform="rotate(45 18.484 11.119)"/>
          <polygon fill="#9757FF" points="15.667 10.158 16.843 10.149 16.834 11.325 15.657 11.334" transform="rotate(45 16.25 10.742)"/>
          <polygon fill="#00C894" points="17.573 3.279 19.337 3.265 19.323 5.029 17.559 5.043" transform="rotate(45 18.448 4.154)"/>
          <polygon fill="#396EFF" points="23.012 1.055 25.969 1.038 25.951 3.962 22.995 3.98" transform="rotate(24 24.482 2.509)"/>
          <polygon fill="#88A1FF" points="1.442 1.264 4.965 1.291 4.992 4.826 1.47 4.798" transform="rotate(-51 3.217 3.045)"/>
          <polygon fill="#FF8100" fill-opacity=".8" points=".382 7.946 2.147 7.932 2.132 9.696 .368 9.71" transform="rotate(45 1.257 8.82)"/>
          <polygon fill="#7DAC00" points="6.428 12.925 7.019 12.922 7.016 13.506 6.424 13.51" opacity=".5" transform="rotate(23 6.722 13.216)"/>
          <polygon fill="#FF00FE" points="6.39 10.246 7.566 10.237 7.561 10.825 6.385 10.834" transform="rotate(45 6.976 10.535)"/>
          <polygon fill="#FE002E" points="4.742 9.042 4.394 9.222 4.46 8.84 4.178 8.57 4.568 8.514 4.742 8.167 4.916 8.514 5.306 8.57 5.024 8.84 5.091 9.222"/>
          <polygon fill="#FE002E" points="10.877 4.039 10.532 4.217 10.595 3.834 10.313 3.56 10.7 3.507 10.87 3.159 11.046 3.509 11.434 3.568 11.156 3.838 11.225 4.223" transform="rotate(-37 10.873 3.69)"/>
          <polygon fill="#FE9D0B" points="12.062 9.289 11.717 9.467 11.781 9.084 11.498 8.81 11.885 8.757 12.056 8.409 12.231 8.759 12.619 8.818 12.341 9.088 12.41 9.473" transform="rotate(-37 12.059 8.94)"/>
          <polygon fill="#FE9D0B" points="16.612 3.082 16.094 3.35 16.189 2.775 15.765 2.364 16.346 2.284 16.601 1.762 16.865 2.288 17.447 2.377 17.03 2.781 17.133 3.358" transform="rotate(-37 16.606 2.56)"/>
          <polygon fill="#FE9D0B" points="13.085 13.277 12.913 13.366 12.944 13.175 12.803 13.037 12.997 13.011 13.082 12.837 13.17 13.012 13.364 13.042 13.225 13.177 13.259 13.369" transform="rotate(-37 13.084 13.103)"/>
          <polygon fill="#88A1FF" points="22.399 5.987 23.575 5.978 23.561 7.742 22.385 7.751" opacity=".8" transform="rotate(45 22.98 6.865)"/>
          <polygon fill="#00C894" points="6.749 2.958 8.524 2.967 8.533 4.719 6.757 4.711" transform="rotate(-18 7.64 3.839)"/>
          <polygon fill="#EB5959" points="9.047 8.319 10.232 8.317 10.23 9.484 9.045 9.486" transform="rotate(7 9.638 8.902)"/>
        </g>
      </g>
    </g>
  </g>
</svg>
