<svg xmlns="http://www.w3.org/2000/svg" xmlns:xlink="http://www.w3.org/1999/xlink" width="256" height="256" viewBox="0 0 256 256">
  <defs>
    <filter id="computer-a" width="123.5%" height="127.8%" x="-11.7%" y="-13.9%" filterUnits="objectBoundingBox">
      <feOffset dy="4" in="SourceAlpha" result="shadowOffsetOuter1"/>
      <feGaussianBlur in="shadowOffsetOuter1" result="shadowBlurOuter1" stdDeviation="5"/>
      <feComposite in="shadowBlurOuter1" in2="SourceAlpha" operator="out" result="shadowBlurOuter1"/>
      <feColorMatrix in="shadowBlurOuter1" result="shadowMatrixOuter1" values="0 0 0 0 0   0 0 0 0 0   0 0 0 0 0  0 0 0 0.2 0"/>
      <feMerge>
        <feMergeNode in="shadowMatrixOuter1"/>
        <feMergeNode in="SourceGraphic"/>
      </feMerge>
    </filter>
    <linearGradient id="computer-b" x1="50%" x2="50%" y1="100%" y2="0%">
      <stop offset="0%" stop-color="#CFDAFC"/>
      <stop offset="100%" stop-color="#CDCFD2"/>
    </linearGradient>
    <polygon id="computer-c" points="95 169 135 169 135 192 95 192"/>
    <filter id="computer-d" width="120%" height="134.8%" x="-10%" y="-17.4%" filterUnits="objectBoundingBox">
      <feGaussianBlur in="SourceAlpha" result="shadowBlurInner1" stdDeviation="2"/>
      <feOffset dy="4" in="shadowBlurInner1" result="shadowOffsetInner1"/>
      <feComposite in="shadowOffsetInner1" in2="SourceAlpha" k2="-1" k3="1" operator="arithmetic" result="shadowInnerInner1"/>
      <feColorMatrix in="shadowInnerInner1" values="0 0 0 0 0.305544245   0 0 0 0 0.316030326   0 0 0 0 0.533769248  0 0 0 0.178130463 0"/>
    </filter>
    <linearGradient id="computer-e" x1="50%" x2="50%" y1="0%" y2="80.104%">
      <stop offset="0%" stop-color="#FFF"/>
      <stop offset="100%" stop-color="#EBF4FF"/>
    </linearGradient>
    <path id="computer-f" d="M78,188 L152,188 C153.656854,188 155,189.343146 155,191 C155,192.656854 153.656854,194 152,194 L78,194 C76.3431458,194 75,192.656854 75,191 C75,189.343146 76.3431458,188 78,188 Z"/>
    <filter id="computer-g" width="102.5%" height="133.3%" x="-1.2%" y="-16.7%" filterUnits="objectBoundingBox">
      <feOffset dy="-2" in="SourceAlpha" result="shadowOffsetInner1"/>
      <feComposite in="shadowOffsetInner1" in2="SourceAlpha" k2="-1" k3="1" operator="arithmetic" result="shadowInnerInner1"/>
      <feColorMatrix in="shadowInnerInner1" values="0 0 0 0 0   0 0 0 0 0   0 0 0 0 0  0 0 0 0.168651661 0"/>
    </filter>
    <linearGradient id="computer-h" x1="39.599%" x2="75.302%" y1="22.684%" y2="77.316%">
      <stop offset="0%" stop-color="#D7E4FF"/>
      <stop offset="100%" stop-color="#F4F9FF"/>
    </linearGradient>
    <rect id="computer-i" width="230" height="170" x="0" y="0" rx="25"/>
    <filter id="computer-j" width="100.9%" height="101.2%" x="-.4%" y="-.6%" filterUnits="objectBoundingBox">
      <feOffset dy="-2" in="SourceAlpha" result="shadowOffsetInner1"/>
      <feComposite in="shadowOffsetInner1" in2="SourceAlpha" k2="-1" k3="1" operator="arithmetic" result="shadowInnerInner1"/>
      <feColorMatrix in="shadowInnerInner1" result="shadowMatrixInner1" values="0 0 0 0 0   0 0 0 0 0   0 0 0 0 0  0 0 0 0.12 0"/>
      <feOffset dy="2" in="SourceAlpha" result="shadowOffsetInner2"/>
      <feComposite in="shadowOffsetInner2" in2="SourceAlpha" k2="-1" k3="1" operator="arithmetic" result="shadowInnerInner2"/>
      <feColorMatrix in="shadowInnerInner2" result="shadowMatrixInner2" values="0 0 0 0 1   0 0 0 0 1   0 0 0 0 1  0 0 0 1 0"/>
      <feMerge>
        <feMergeNode in="shadowMatrixInner1"/>
        <feMergeNode in="shadowMatrixInner2"/>
      </feMerge>
    </filter>
    <linearGradient id="computer-l" x1="46.826%" x2="46.826%" y1=".565%" y2="99.664%">
      <stop offset="0%" stop-color="#4F5D73"/>
      <stop offset="100%" stop-color="#313A46"/>
    </linearGradient>
    <rect id="computer-k" width="216" height="156" x="0" y="0" rx="18"/>
    <linearGradient id="computer-n" x1="0%" x2="100%" y1="50%" y2="50%">
      <stop offset="0%" stop-color="#A09AD3"/>
      <stop offset="49.618%" stop-color="#988DD9"/>
      <stop offset="100%" stop-color="#1654D2"/>
    </linearGradient>
  </defs>
  <g fill="none" fill-rule="evenodd" filter="url(#computer-a)" transform="translate(13 31)">
    <use fill="url(#computer-b)" xlink:href="#computer-c"/>
    <use fill="#000" filter="url(#computer-d)" xlink:href="#computer-c"/>
    <use fill="url(#computer-e)" xlink:href="#computer-f"/>
    <use fill="#000" filter="url(#computer-g)" xlink:href="#computer-f"/>
    <use fill="url(#computer-h)" xlink:href="#computer-i"/>
    <use fill="#000" filter="url(#computer-j)" xlink:href="#computer-i"/>
    <g transform="translate(7 7)">
      <mask id="computer-m" fill="#fff">
        <use xlink:href="#computer-k"/>
      </mask>
      <use fill="url(#computer-l)" xlink:href="#computer-k"/>
      <g mask="url(#computer-m)">
        <g transform="translate(-7.5 -31)">
          <path fill="#1C4186" d="M168.1865,21.5 C148.571206,66.9006934 140.656262,92.1047548 144.44167,97.1121842 C150.119782,104.623328 148.055014,123.65156 140.312134,134.167162 C132.569255,144.682764 108.308233,151.693165 105.727273,160.205795 C103.146313,168.718425 38.1061256,174.72734 31.9118221,181.737741 C25.7175185,188.748143 36.5575497,186.244428 36.5575497,188.748143 C36.5575497,190.417286 99.7050332,190.417286 226,188.748143 L226,21.5 L168.1865,21.5 Z"/>
          <path fill="#E080A9" d="M171.132097,22.5162924 C180.772223,22.5162924 178.534337,35.8592805 164.418437,62.5452566 C143.244588,102.574221 137.047364,117.585082 130.85014,128.092686 C124.652916,138.600289 96.2489717,181.131063 84.3709588,184.633598 C72.4929458,188.136132 39.4410837,185.634322 32.7274242,185.634322 C28.2516512,185.634322 29.2845219,139.434225 35.8260362,47.034033 L80.239476,0 L171.132097,22.5162924 Z"/>
          <path fill="#101852" d="M80.5,18.5 C73.9527027,29.8333333 72.0574324,45.6666667 74.8141892,66 C78.9493243,96.5 51.5540541,128.5 57.2398649,151.5 C62.9256757,174.5 33.5,197 33.5,197 C33.5,197 23.6666667,191.833333 4,181.5 L0,42 L16.9222973,14.5 L80.5,18.5 Z"/>
          <path fill="#7A6C9F" d="M156.020872,60.3522626 C144.367442,68.9100829 138.540727,78.4593287 138.540727,89 C138.540727,109.5 128.23001,132.5 111.217329,138 C94.2046468,143.5 76.6764292,142 72.5521427,158 C68.4278562,174 56.0549967,161 49.3530312,167.5 C42.6510656,174 44.2330372,188 36.5,190.5 C31.3446419,192.166667 66.7329796,191.5 142.665013,188.5 C147.476681,157.5 158.818469,135.666667 176.690377,123 C203.498239,104 152.460194,98.5 173.597162,82 C187.688474,71 188.656087,50.8333333 176.5,21.5 L172.432665,36.4434415 C169.82102,46.0386517 164.036062,54.4662224 156.020872,60.3522626 Z"/>
        </g>
      </g>
      <g mask="url(#computer-m)">
        <g transform="translate(8 127)">
          <rect width="202" height="21" x="-.5" y="-.5" fill="url(#computer-n)" stroke="#000" stroke-opacity=".08" rx="5"/>
          <rect width="12" height="12" x="25" y="4" fill="#00C98F" rx="2.5"/>
          <rect width="12" height="12" x="69" y="4" fill="#75FFAC" rx="2.5"/>
          <rect width="12" height="12" x="42" y="4" fill="#FF7D52" rx="2.5"/>
          <rect width="12" height="12" x="86" y="4" fill="#FFB656" rx="2.5"/>
          <rect width="12" height="12" x="120" y="4" fill="#FF796E" rx="2.5"/>
          <rect width="12" height="12" x="164" y="4" fill="#000" fill-opacity=".3" rx="2.5"/>
          <rect width="12" height="12" x="147" y="4" fill="#000" fill-opacity=".3" rx="2.5"/>
          <rect width="12" height="12" x="181" y="4" fill="#000" fill-opacity=".3" rx="2.5"/>
          <circle cx="14" cy="10" r="6" fill="#326CFF"/>
          <circle cx="109" cy="10" r="6" fill="#482AC5"/>
        </g>
      </g>
    </g>
  </g>
</svg>
