<svg xmlns="http://www.w3.org/2000/svg" xmlns:xlink="http://www.w3.org/1999/xlink" width="256" height="256" viewBox="0 0 256 256">
  <defs>
    <filter id="drive-harddisk-linux-256px-a" width="129.3%" height="125%" x="-14.7%" y="-12.5%" filterUnits="objectBoundingBox">
      <feOffset dy="4" in="SourceAlpha" result="shadowOffsetOuter1"/>
      <feGaussianBlur in="shadowOffsetOuter1" result="shadowBlurOuter1" stdDeviation="5"/>
      <feComposite in="shadowBlurOuter1" in2="SourceAlpha" operator="out" result="shadowBlurOuter1"/>
      <feColorMatrix in="shadowBlurOuter1" result="shadowMatrixOuter1" values="0 0 0 0 0   0 0 0 0 0   0 0 0 0 0  0 0 0 0.2 0"/>
      <feMerge>
        <feMergeNode in="shadowMatrixOuter1"/>
        <feMergeNode in="SourceGraphic"/>
      </feMerge>
    </filter>
    <linearGradient id="drive-harddisk-linux-256px-b" x1="102.549%" x2="-2.652%" y1="57.682%" y2="57.682%">
      <stop offset="0%" stop-color="#0067BC"/>
      <stop offset="4.571%" stop-color="#30EA7F"/>
      <stop offset="9.931%" stop-color="#00D887"/>
      <stop offset="88.945%" stop-color="#00B160"/>
      <stop offset="93.793%" stop-color="#00C165"/>
      <stop offset="100%" stop-color="#008CBD"/>
    </linearGradient>
    <linearGradient id="drive-harddisk-linux-256px-c" x1="100%" x2="0%" y1="56.43%" y2="56.43%">
      <stop offset="0%" stop-color="#FFF" stop-opacity=".5"/>
      <stop offset="9.936%" stop-color="#FFF" stop-opacity=".9"/>
      <stop offset="52.356%" stop-color="#FFF" stop-opacity=".7"/>
      <stop offset="87.648%" stop-color="#FFF" stop-opacity=".9"/>
      <stop offset="100%" stop-color="#FFF" stop-opacity=".5"/>
    </linearGradient>
    <path id="drive-harddisk-linux-256px-d" d="M7.72177936e-09,172.000909 C6.39608757e-09,160.954712 8.95246042,152 19.9975727,152 L164.002427,152 C175.046782,152 184,160.951243 184,172.000909 L184,189.999091 C184,201.045288 175.04754,210 164.002427,210 L19.9975727,210.000001 C8.95321828,210.000001 1.12079107e-08,201.048757 9.88180267e-09,189.999092 L7.72177936e-09,172.000909 Z"/>
    <filter id="drive-harddisk-linux-256px-e" width="101.1%" height="103.4%" x="-.5%" y="-1.7%" filterUnits="objectBoundingBox">
      <feMorphology in="SourceAlpha" radius="2" result="shadowSpreadInner1"/>
      <feOffset in="shadowSpreadInner1" result="shadowOffsetInner1"/>
      <feComposite in="shadowOffsetInner1" in2="SourceAlpha" k2="-1" k3="1" operator="arithmetic" result="shadowInnerInner1"/>
      <feColorMatrix in="shadowInnerInner1" values="0 0 0 0 1   0 0 0 0 1   0 0 0 0 1  0 0 0 0.5 0"/>
    </filter>
    <radialGradient id="drive-harddisk-linux-256px-f" cx="48.239%" cy="19.103%" r="78.654%" fx="48.239%" fy="19.103%" gradientTransform="matrix(0 1 -.77841 0 .631 -.291)">
      <stop offset="0%" stop-color="#7CFFFE"/>
      <stop offset="100%" stop-color="#D6CDE6"/>
    </radialGradient>
    <path id="drive-harddisk-linux-256px-g" d="M-4.26280167e-09,196 C-4.26280167e-09,184.954305 8.95246011,176 19.997572,176 L164.002422,176 C175.046776,176 183.999994,184.951876 183.999994,196 L183.999994,196 C183.999994,207.045695 175.047534,216 164.002422,216 L19.997572,216 C8.95321796,216 -4.26280167e-09,207.048124 -4.26280167e-09,196 L-4.26280167e-09,196 Z"/>
    <filter id="drive-harddisk-linux-256px-h" width="101.1%" height="105%" x="-.5%" y="-2.5%" filterUnits="objectBoundingBox">
      <feMorphology in="SourceAlpha" radius="2" result="shadowSpreadInner1"/>
      <feOffset in="shadowSpreadInner1" result="shadowOffsetInner1"/>
      <feComposite in="shadowOffsetInner1" in2="SourceAlpha" k2="-1" k3="1" operator="arithmetic" result="shadowInnerInner1"/>
      <feColorMatrix in="shadowInnerInner1" values="0 0 0 0 0   0 0 0 0 0.239215686   0 0 0 0 0.611764706  0 0 0 0.2 0"/>
    </filter>
    <linearGradient id="drive-harddisk-linux-256px-k" x1="50%" x2="50%" y1="0%" y2="100%">
      <stop offset="0%" stop-color="#0174FF"/>
      <stop offset="50.85%" stop-color="#01C2FF"/>
      <stop offset="100%" stop-color="#0056FF"/>
    </linearGradient>
    <path id="drive-harddisk-linux-256px-j" d="M122,188 C123.104569,188 124,188.894514 124,189.99406 L124,202.00594 C124,203.05717 123.191139,203.918408 122.150219,203.994531 L122,204 C120.895431,204 120,203.105486 120,202.00594 L120,189.99406 C120,188.94283 120.808861,188.081592 121.849781,188.005469 L122,188 Z M130,188 C131.104569,188 132,188.894514 132,189.99406 L132,202.00594 C132,203.05717 131.191139,203.918408 130.150219,203.994531 L130,204 C128.895431,204 128,203.105486 128,202.00594 L128,189.99406 C128,188.94283 128.808861,188.081592 129.849781,188.005469 L130,188 Z M138,188 C139.104569,188 140,188.894514 140,189.99406 L140,202.00594 C140,203.05717 139.191139,203.918408 138.150219,203.994531 L138,204 C136.895431,204 136,203.105486 136,202.00594 L136,189.99406 C136,188.94283 136.808861,188.081592 137.849781,188.005469 L138,188 Z M146,188 C147.104569,188 148,188.894514 148,189.99406 L148,202.00594 C148,203.05717 147.191139,203.918408 146.150219,203.994531 L146,204 C144.895431,204 144,203.105486 144,202.00594 L144,189.99406 C144,188.94283 144.808861,188.081592 145.849781,188.005469 L146,188 Z M154,188 C155.104569,188 156,188.894514 156,189.99406 L156,202.00594 C156,203.05717 155.191139,203.918408 154.150219,203.994531 L154,204 C152.895431,204 152,203.105486 152,202.00594 L152,189.99406 C152,188.94283 152.808861,188.081592 153.849781,188.005469 L154,188 Z M162,188 C163.104569,188 164,188.894514 164,189.99406 L164,202.00594 C164,203.05717 163.191139,203.918408 162.150219,203.994531 L162,204 C160.895431,204 160,203.105486 160,202.00594 L160,189.99406 C160,188.94283 160.808861,188.081592 161.849781,188.005469 L162,188 Z"/>
    <filter id="drive-harddisk-linux-256px-i" width="104.5%" height="125%" x="-2.3%" y="-6.2%" filterUnits="objectBoundingBox">
      <feOffset dy="2" in="SourceAlpha" result="shadowOffsetOuter1"/>
      <feColorMatrix in="shadowOffsetOuter1" values="0 0 0 0 1   0 0 0 0 1   0 0 0 0 1  0 0 0 0.3 0"/>
    </filter>
    <path id="drive-harddisk-linux-256px-l" d="M23,203 C26.8659932,203 30,199.865993 30,196 C30,192.134007 26.8659932,189 23,189 C19.1340068,189 16,192.134007 16,196 C16,199.865993 19.1340068,203 23,203 Z"/>
    <filter id="drive-harddisk-linux-256px-m" width="142.9%" height="142.9%" x="-21.4%" y="-21.4%" filterUnits="objectBoundingBox">
      <feOffset dx="-4" dy="-6" in="SourceAlpha" result="shadowOffsetInner1"/>
      <feComposite in="shadowOffsetInner1" in2="SourceAlpha" k2="-1" k3="1" operator="arithmetic" result="shadowInnerInner1"/>
      <feColorMatrix in="shadowInnerInner1" values="0 0 0 0 0.191847778   0 0 0 0 0.912414966   0 0 0 0 0.103665518  0 0 0 0.5 0"/>
    </filter>
  </defs>
  <g fill="none" fill-rule="evenodd">
    <g filter="url(#drive-harddisk-linux-256px-a)" transform="translate(36 20)">
      <path fill="url(#drive-harddisk-linux-256px-b)" d="M-3.48450158e-10,31.9927545 C-3.48450158e-10,14.3236441 14.3232752,4.06657819e-10 31.9977918,4.06657819e-10 L152.002204,4.06657819e-10 C169.674097,4.06657819e-10 183.999996,14.319829 183.999997,31.9927545 L184,196.909098 L-3.48450158e-10,196.909098 L-3.48450158e-10,31.9927545 Z"/>
      <use fill="url(#drive-harddisk-linux-256px-c)" xlink:href="#drive-harddisk-linux-256px-d"/>
      <use fill="#000" filter="url(#drive-harddisk-linux-256px-e)" xlink:href="#drive-harddisk-linux-256px-d"/>
      <use fill="url(#drive-harddisk-linux-256px-f)" xlink:href="#drive-harddisk-linux-256px-g"/>
      <use fill="#000" filter="url(#drive-harddisk-linux-256px-h)" xlink:href="#drive-harddisk-linux-256px-g"/>
      <use fill="#000" filter="url(#drive-harddisk-linux-256px-i)" xlink:href="#drive-harddisk-linux-256px-j"/>
      <use fill="url(#drive-harddisk-linux-256px-k)" xlink:href="#drive-harddisk-linux-256px-j"/>
      <use fill="#BAFF76" xlink:href="#drive-harddisk-linux-256px-l"/>
      <use fill="#000" filter="url(#drive-harddisk-linux-256px-m)" xlink:href="#drive-harddisk-linux-256px-l"/>
      <path stroke="#54D800" stroke-linejoin="square" stroke-width="2" d="M23,202 C26.3137085,202 29,199.313708 29,196 C29,192.686292 26.3137085,190 23,190 C19.6862915,190 17,192.686292 17,196 C17,199.313708 19.6862915,202 23,202 Z"/>
    </g>
    <path fill="#FFF" d="M153.532947,113.52206 C153.532947,112.892636 152.569271,112.158328 150.64187,111.3191 C150.782047,110.794584 150.913462,110.313787 151.036106,109.876684 C151.158762,109.439594 151.246376,108.98502 151.298938,108.512952 C151.351499,108.040884 151.404061,107.664983 151.456634,107.385248 C151.509196,107.105502 151.517956,106.712118 151.482915,106.205085 C151.447874,105.698051 151.430353,105.357127 151.430353,105.182288 C151.430353,105.00745 151.36902,104.622807 151.246376,104.028349 C151.123721,103.433902 151.053638,103.075483 151.036106,102.953105 C151.018586,102.830714 150.930983,102.393623 150.773286,101.641809 C150.61559,100.890006 150.519227,100.426691 150.484174,100.251853 C150.13374,98.5733971 149.310239,96.7725861 148.013625,94.8493492 C146.717011,92.9261241 145.455474,91.6148519 144.228942,90.9154973 C145.069987,91.6148519 146.068716,93.0659974 147.225154,95.268969 C150.273939,100.933748 151.220095,105.794194 150.063657,109.85046 C149.678182,111.24917 148.802108,111.983489 147.435412,112.05342 C146.349057,112.193293 145.674481,111.86984 145.411661,111.083072 C145.148829,110.296292 145.008665,108.836417 144.991144,106.703376 C144.973612,104.570336 144.772126,102.699594 144.386639,101.091069 C144.071246,99.7273251 143.729583,98.5209608 143.361629,97.4719289 C142.993674,96.422897 142.652,95.6273877 142.336607,95.085389 C142.021213,94.5433904 141.749633,94.115041 141.521854,93.8003291 C141.294064,93.4856172 141.066285,93.2233651 140.838506,93.0135493 C140.610728,92.8037453 140.479312,92.6813665 140.444271,92.6463894 C139.953661,90.4783949 139.410489,88.6775721 138.814755,87.2438975 C138.219021,85.810223 137.70213,84.8311336 137.264093,84.3066177 C136.826045,83.7821018 136.414289,83.2051378 136.028813,82.5757257 C135.643338,81.9463019 135.380506,81.246959 135.240342,80.4776619 C135.100166,79.743342 135.205289,78.8079711 135.555723,77.671514 C135.906158,76.535057 135.985012,75.6696168 135.792274,75.0751701 C135.599525,74.4807117 134.819826,74.0436209 133.45313,73.7638862 C132.927478,73.6589783 132.147767,73.3442781 131.113985,72.8197504 C130.080203,72.2952345 129.458188,72.0154997 129.24793,71.9805343 C128.967578,71.945569 128.77484,71.4909955 128.669717,70.6167906 C128.564582,69.7425973 128.704758,68.8509332 129.090233,67.9417746 C129.475709,67.0326159 130.106483,66.5605481 130.982569,66.5255827 C132.279183,66.4206866 133.172777,66.9451908 133.663388,68.0991305 C134.153998,69.2530585 134.22408,70.2671133 133.873646,71.1413065 C133.488171,71.8056957 133.45313,72.2690105 133.768523,72.5312743 C134.083904,72.7935264 134.609556,72.8022677 135.345465,72.5574983 C135.801034,72.4176251 136.028813,71.788213 136.028813,70.6692504 L136.028813,68.7285426 C135.853596,67.6795107 135.617057,66.8053292 135.319184,66.1059747 C135.021312,65.4066201 134.653369,64.8733628 134.21532,64.5062028 C133.777271,64.1390428 133.365527,63.8767907 132.98004,63.7194348 C132.594564,63.5620788 132.121486,63.4309469 131.560794,63.3260508 C127.81114,63.6057855 126.251718,65.9485952 126.882505,70.3545385 C126.882505,70.8790544 126.864984,71.1413065 126.829943,71.1413065 C126.51455,70.8265946 125.99767,70.6430263 125.27927,70.5905665 C124.560881,70.5381184 123.982679,70.5468598 123.544631,70.6167906 C123.106582,70.6867331 122.835002,70.5993079 122.729879,70.3545385 C122.76492,68.3613709 122.484567,66.7878465 121.888834,65.6339068 C121.2931,64.4799788 120.504629,63.8855321 119.523408,63.8505667 C118.577241,63.8155896 117.850091,64.2963988 117.34196,65.2929708 C116.83383,66.2895546 116.544729,67.3298334 116.474647,68.4138307 C116.439594,68.9383584 116.500928,69.5852414 116.658624,70.3545385 C116.816309,71.1238355 117.0441,71.7794717 117.34196,72.3214703 C117.639833,72.8634689 117.911413,73.099497 118.156724,73.0295662 C118.507159,72.9246583 118.787499,72.6798889 118.997757,72.2952462 C119.137933,71.9805343 119.015289,71.8406611 118.629802,71.8756264 C118.384503,71.8756264 118.112923,71.6221157 117.81505,71.1150825 C117.517178,70.6080492 117.350721,70.0223439 117.31568,69.3579664 C117.280639,68.5886693 117.438335,67.9417746 117.788769,67.4172586 C118.139204,66.8927427 118.734925,66.6479733 119.57597,66.6829387 C120.171715,66.6829387 120.644793,67.0500986 120.995228,67.7844186 C121.345662,68.5187386 121.512119,69.2005987 121.494598,69.8300225 C121.477078,70.4594463 121.450797,70.844089 121.415744,70.9839505 C120.644793,71.5084782 120.101622,72.0154997 119.78624,72.5050503 C119.505888,72.9246583 119.02405,73.335525 118.340702,73.7376504 C117.657354,74.1397875 117.298159,74.3583329 117.263118,74.3932982 C116.807549,74.8828488 116.535969,75.3549049 116.448354,75.8094901 C116.360752,76.2640635 116.492167,76.5787754 116.842602,76.7536141 C117.3332,77.0333606 117.771237,77.3742848 118.156724,77.7764102 C118.5422,78.1785473 118.82254,78.5107301 118.997757,78.772994 C119.172974,79.0352461 119.497128,79.2625328 119.970217,79.4548659 C120.443296,79.6471872 121.06531,79.7608247 121.836272,79.7957901 C123.483309,79.8657326 125.270509,79.6034805 127.197898,79.009022 C127.26798,78.9740566 127.670976,78.8516661 128.406885,78.641862 C129.142807,78.432058 129.747301,78.248478 130.220379,78.0911221 C130.693468,77.9337661 131.210348,77.7064794 131.771052,77.4092502 C132.331745,77.1120327 132.699699,76.8060621 132.874917,76.4913502 C133.19031,76.0018114 133.540732,75.8619382 133.926208,76.0717422 C134.101425,76.1766501 134.21532,76.3252529 134.267882,76.517586 C134.320455,76.7099074 134.267882,76.9197114 134.110185,77.1469981 C133.9525,77.3742848 133.663388,77.5403821 133.242871,77.64529 C132.542003,77.855094 131.552034,78.2309953 130.272952,78.772994 C128.993859,79.3149926 128.196627,79.6559285 127.881246,79.7957901 C126.339333,80.4601793 125.112825,80.8623046 124.201698,81.0021779 C123.3256,81.1770165 121.941407,81.1420511 120.04906,80.89727 C119.698626,80.8273392 119.540929,80.8623046 119.57597,81.0021779 C119.611023,81.1420511 119.908884,81.474234 120.469576,81.9987499 C121.345662,82.8030124 122.519609,83.1876551 123.991428,83.1526897 C124.587173,83.1177243 125.217948,82.9953337 125.883775,82.7855297 C126.549603,82.5757139 127.180377,82.3309445 127.776111,82.0512098 C128.371844,81.7714632 128.958818,81.4655044 129.537042,81.1333098 C130.115255,80.8011152 130.640895,80.503886 131.113985,80.2416339 C131.587075,79.97937 132.016351,79.769566 132.401827,79.6122101 C132.787302,79.4548659 133.093935,79.4111474 133.321714,79.4810899 C133.549492,79.5510206 133.698429,79.743342 133.768523,80.0580539 C133.768523,80.1279847 133.75099,80.2066685 133.715949,80.294082 C133.680908,80.3815072 133.610826,80.4689206 133.505691,80.5563458 C133.400568,80.6437592 133.295433,80.7224313 133.190298,80.7923739 C133.085175,80.8623046 132.936238,80.9497298 132.743501,81.0546259 C132.550763,81.1595338 132.393066,81.2382059 132.270411,81.2906658 C132.147767,81.3431138 131.97255,81.4305273 131.744771,81.5529179 C131.516981,81.6753084 131.350524,81.7539805 131.245401,81.7889459 C130.26418,82.2784965 129.081485,83.0477818 127.697268,84.0968137 C126.31304,85.1458455 125.147866,85.8976364 124.201698,86.3522216 C123.255518,86.8068068 122.396965,86.8242895 121.626014,86.4046697 C120.890093,86.020027 119.78624,84.7437202 118.314421,82.5757257 C117.543458,81.4917167 117.105421,81.107074 117.000286,81.4217859 C116.965245,81.5266938 116.947725,81.7015325 116.947725,81.9463019 C116.947725,82.8204951 116.684905,83.8083258 116.159254,84.9098057 C115.633602,86.0112974 115.116711,86.9816337 114.60858,87.8208615 C114.100449,88.6600894 113.732506,89.6741441 113.504716,90.8630493 C113.276937,92.0519544 113.478435,93.1534226 114.109221,94.1674891 C113.303218,94.3772931 112.208125,95.9508174 110.823909,98.888109 C109.439692,101.825412 108.60742,104.290601 108.327068,106.283768 C108.256986,106.913181 108.230705,108.119557 108.248225,109.902908 C108.265746,111.686272 108.169383,112.717809 107.959113,112.997544 C107.678773,113.836772 107.170642,113.88922 106.434732,113.1549 C105.313335,112.070903 104.682572,110.427436 104.542396,108.224464 C104.472302,107.245375 104.542396,106.266286 104.752655,105.287185 C104.892831,104.622795 104.87531,104.308095 104.700093,104.343061 L104.489823,104.605324 C103.228262,106.878227 103.403479,109.780506 105.015474,113.312256 C105.190692,113.731864 105.628729,114.221415 106.329597,114.780896 C107.030477,115.340377 107.450982,115.690055 107.591158,115.829928 C108.292027,116.634179 110.114268,118.216456 113.057919,120.576784 C116.001569,122.937099 117.631073,124.274607 117.946466,124.589308 C118.507159,125.113835 118.81378,125.778213 118.866353,126.582463 C118.918915,127.386726 118.673615,128.138517 118.130443,128.837883 C117.58726,129.537238 116.79004,129.939363 115.738737,130.044259 C116.019078,130.568775 116.527208,131.346802 117.263118,132.378351 C117.999028,133.409899 118.489626,134.354016 118.734937,135.210727 C118.980237,136.067437 119.102892,137.300034 119.102892,138.908552 C120.714887,138.069325 120.837543,136.46083 119.470847,134.08302 C119.330671,133.803278 119.146693,133.52354 118.918915,133.243798 C118.691136,132.964055 118.524679,132.754252 118.419544,132.61438 C118.314421,132.474509 118.279368,132.36961 118.314421,132.299667 C118.419544,132.124829 118.647323,131.958743 118.997757,131.801387 C119.348191,131.644031 119.698626,131.687738 120.04906,131.932507 C121.661055,133.750837 124.569629,134.380248 128.77484,133.820763 C133.435633,133.296246 136.536932,131.775175 138.078845,129.257491 C138.884849,127.928713 139.480571,127.404209 139.866058,127.683943 C140.286574,127.893759 140.461791,128.802906 140.391709,130.411419 C140.356656,131.285612 139.953672,132.89411 139.18271,135.236952 C138.867317,136.041212 138.762193,136.696848 138.867317,137.20388 C138.972452,137.710913 139.392968,137.98191 140.128878,138.016878 C140.234013,137.35249 140.488072,136.00625 140.891068,133.978118 C141.294076,131.94999 141.530615,130.376454 141.600697,129.257491 C141.670791,128.523171 141.556896,127.238123 141.259023,125.402311 C140.961162,123.5665 140.829746,121.870585 140.864787,120.31452 C140.899828,118.758455 141.302824,117.525855 142.073787,116.616696 C142.599438,115.987272 143.493033,115.672572 144.754594,115.672572 C144.789635,114.378759 145.394128,113.452129 146.568087,112.892648 C147.742045,112.333155 149.012355,112.149587 150.379051,112.341908 C151.745747,112.534229 152.797038,112.927613 153.532947,113.52206 L153.532947,113.52206 Z M120.52215,70.1447344 C120.627273,69.550276 120.583472,69.0257718 120.390734,68.5711866 C120.197996,68.1166132 119.996498,67.8543494 119.78624,67.7844186 C119.470847,67.7144878 119.31315,67.8368667 119.31315,68.1515786 C119.383232,68.3264172 119.470847,68.4313251 119.57597,68.4662905 C119.926404,68.4662905 120.04906,68.7285426 119.943925,69.2530585 C119.838802,69.9524131 119.978966,70.3020904 120.364453,70.3020904 C120.469576,70.3020904 120.52215,70.2496306 120.52215,70.1447344 L120.52215,70.1447344 Z M133.190298,69.3055066 C133.190298,68.9208639 133.102695,68.579928 132.927478,68.2827105 C132.752261,67.9854813 132.559523,67.7669359 132.349265,67.6270626 C132.139007,67.4871894 131.98131,67.4347413 131.876175,67.4697067 C131.385565,67.5046721 131.262921,67.6270626 131.508221,67.8368667 C131.578314,67.871832 131.648397,67.9068092 131.718479,67.9417746 C132.209089,68.0816478 132.524482,68.6236347 132.664658,69.5677704 C132.664658,69.6726666 132.804823,69.6377012 133.085175,69.4628625 L133.190298,69.3055066 Z M167.357533,128.706751 C167.743009,129.143842 167.953267,129.56345 167.98832,129.965587 C168.023361,130.367713 167.97956,130.761097 167.856904,131.145739 C167.734248,131.530382 167.462668,131.915025 167.04214,132.299667 C166.621624,132.684318 166.209868,133.025249 165.806872,133.322475 C165.403864,133.619701 164.878224,133.943148 164.229918,134.292827 C163.581611,134.642504 163.02969,134.930985 162.574121,135.158275 C162.118552,135.385565 161.557871,135.656562 160.892043,135.971272 C160.226216,136.285982 159.753138,136.513269 159.472786,136.65314 C158.141131,137.317528 156.643054,138.296612 154.978486,139.59042 C153.313917,140.884228 151.991046,142.003181 151.009825,142.947311 C150.414092,143.506796 149.222625,143.847727 147.435412,143.970114 C145.648188,144.092502 144.088778,143.838989 142.757123,143.209569 C142.126348,142.894859 141.609457,142.483993 141.206461,141.97696 C140.803465,141.469928 140.514353,141.024094 140.339136,140.639449 C140.163919,140.254803 139.778443,139.913872 139.18271,139.616646 C138.586976,139.319419 137.763464,139.153326 136.712161,139.118358 C135.170248,139.08339 132.892449,139.065906 129.878705,139.065906 C129.212889,139.065906 128.21416,139.092132 126.882505,139.144583 C125.55085,139.197035 124.534611,139.240744 123.833743,139.275712 C122.29183,139.310679 120.898865,139.572934 119.654824,140.062483 C118.410784,140.552032 117.473376,141.076541 116.842602,141.636026 C116.211815,142.195511 115.449625,142.693795 114.556019,143.130892 C113.662412,143.567989 112.725017,143.769051 111.743796,143.734083 C110.727534,143.699115 108.782649,143.157123 105.909081,142.108089 C103.035513,141.059055 100.477385,140.307258 98.234596,139.852678 C97.5687697,139.712806 96.6751741,139.546712 95.5537833,139.35439 C94.4323912,139.162066 93.5563173,139.004713 92.9255345,138.882326 C92.2947516,138.759939 91.6026528,138.593844 90.8492179,138.384038 C90.095783,138.17423 89.5088133,137.920718 89.088291,137.623492 C88.6677693,137.326266 88.369904,136.985335 88.1946867,136.60069 C87.8442517,135.79643 87.9669021,134.633768 88.5626415,133.11267 C89.1583802,131.591571 89.4737675,130.638718 89.5088109,130.254063 C89.5438544,129.694582 89.4737687,128.995239 89.2985515,128.156011 C89.1233332,127.316783 88.9481185,126.573734 88.7729013,125.926827 C88.5976838,125.279921 88.5188372,124.641767 88.5363589,124.012344 C88.5538807,123.382932 88.7378562,122.910864 89.088291,122.596164 C89.5789001,122.176544 90.5776249,121.931774 92.0844946,121.861844 C93.5913643,121.791901 94.6426542,121.582097 95.2383924,121.23242 C96.2896976,120.602996 97.0256001,119.991078 97.4461213,119.39662 C97.8666436,118.802173 98.0769018,117.910509 98.0769018,116.721604 C98.0769016,117.718177 99.0055502,115.148056 98.8653765,114.308828 C98.7602451,113.749347 98.7252028,113.084969 98.7602462,112.315684 C98.7952897,111.301618 98.9705045,110.392459 99.2858953,109.588208 C99.6012873,108.783946 100.021804,107.962212 100.547455,107.122985 C101.073107,106.283757 101.458582,105.549448 101.703881,104.920025 C101.984233,104.185705 102.448551,102.926881 103.096858,101.143529 C103.745165,99.3601651 104.262044,97.9964449 104.64752,97.0523091 C105.033007,96.1081851 105.558646,95.0416823 106.224474,93.8527772 C106.890301,92.663872 107.573638,91.7197598 108.274506,91.0204052 C112.129295,86.0200035 114.301959,82.6107028 114.792558,80.7923739 C114.372041,76.8759812 114.091701,71.4560536 113.951525,64.5324268 C113.881431,61.3853312 114.301947,58.7365628 115.213086,56.5860392 C116.124213,54.4355156 117.981495,52.6084806 120.78497,51.1048635 C122.151666,50.3705436 123.973895,50.0033836 126.25173,50.0033836 C128.109036,49.9684182 129.966307,50.2044463 131.823614,50.7114795 C133.68092,51.2185128 135.24033,51.9440796 136.501891,52.8882154 C138.499374,54.3568553 140.102585,56.4811196 141.311596,59.261067 C142.520596,62.0410026 143.037475,64.6198403 142.862258,66.9976506 C142.687041,70.3195848 143.21268,74.0610801 144.439212,78.222254 C145.630691,82.1736121 147.96104,85.9850499 151.430353,89.6566614 C153.357742,91.7197598 155.101129,94.569591 156.660563,98.2062489 C158.219997,101.842895 159.262528,105.182265 159.788179,108.224464 C160.068531,109.937886 160.156134,111.415255 160.050999,112.656608 C159.945876,113.897973 159.735617,114.868309 159.420224,115.567664 C159.104831,116.267019 159.875782,119.08192 160.366392,118.6623 C160.401433,119.746309 160.541609,120.734128 160.786908,121.625804 C161.03222,122.517491 161.286279,123.225576 161.549111,123.750092 C161.81193,124.274607 162.171125,124.772888 162.626682,125.244955 C163.082252,125.717023 163.450207,126.049206 163.730547,126.241528 C164.010899,126.433861 164.387614,126.661147 164.860704,126.923399 C165.333782,127.185663 165.622894,127.351749 165.728018,127.421691 C166.428886,127.841299 166.972058,128.269649 167.357533,128.706751 Z"/>
  </g>
</svg>
