<svg xmlns="http://www.w3.org/2000/svg" xmlns:xlink="http://www.w3.org/1999/xlink" width="256" height="256" viewBox="0 0 256 256">
  <defs>
    <filter id="drive-network-256px-a" width="129.3%" height="125%" x="-14.7%" y="-12.5%" filterUnits="objectBoundingBox">
      <feOffset dy="4" in="SourceAlpha" result="shadowOffsetOuter1"/>
      <feGaussianBlur in="shadowOffsetOuter1" result="shadowBlurOuter1" stdDeviation="5"/>
      <feComposite in="shadowBlurOuter1" in2="SourceAlpha" operator="out" result="shadowBlurOuter1"/>
      <feColorMatrix in="shadowBlurOuter1" result="shadowMatrixOuter1" values="0 0 0 0 0   0 0 0 0 0   0 0 0 0 0  0 0 0 0.2 0"/>
      <feMerge>
        <feMergeNode in="shadowMatrixOuter1"/>
        <feMergeNode in="SourceGraphic"/>
      </feMerge>
    </filter>
    <linearGradient id="drive-network-256px-b" x1="102.549%" x2="-2.652%" y1="57.682%" y2="57.682%">
      <stop offset="0%" stop-color="#0067BC"/>
      <stop offset="4.571%" stop-color="#30EA7F"/>
      <stop offset="9.931%" stop-color="#00D887"/>
      <stop offset="88.945%" stop-color="#00B160"/>
      <stop offset="93.793%" stop-color="#00C165"/>
      <stop offset="100%" stop-color="#008CBD"/>
    </linearGradient>
    <linearGradient id="drive-network-256px-c" x1="100%" x2="0%" y1="56.43%" y2="56.43%">
      <stop offset="0%" stop-color="#FFF" stop-opacity=".5"/>
      <stop offset="9.936%" stop-color="#FFF" stop-opacity=".9"/>
      <stop offset="52.356%" stop-color="#FFF" stop-opacity=".7"/>
      <stop offset="87.648%" stop-color="#FFF" stop-opacity=".9"/>
      <stop offset="100%" stop-color="#FFF" stop-opacity=".5"/>
    </linearGradient>
    <path id="drive-network-256px-d" d="M7.72177936e-09,172.000909 C6.39608757e-09,160.954712 8.95246042,152 19.9975727,152 L164.002427,152 C175.046782,152 184,160.951243 184,172.000909 L184,189.999091 C184,201.045288 175.04754,210 164.002427,210 L19.9975727,210.000001 C8.95321828,210.000001 1.12079107e-08,201.048757 9.88180267e-09,189.999092 L7.72177936e-09,172.000909 Z"/>
    <filter id="drive-network-256px-e" width="101.1%" height="103.4%" x="-.5%" y="-1.7%" filterUnits="objectBoundingBox">
      <feMorphology in="SourceAlpha" radius="2" result="shadowSpreadInner1"/>
      <feOffset in="shadowSpreadInner1" result="shadowOffsetInner1"/>
      <feComposite in="shadowOffsetInner1" in2="SourceAlpha" k2="-1" k3="1" operator="arithmetic" result="shadowInnerInner1"/>
      <feColorMatrix in="shadowInnerInner1" values="0 0 0 0 1   0 0 0 0 1   0 0 0 0 1  0 0 0 0.5 0"/>
    </filter>
    <radialGradient id="drive-network-256px-f" cx="48.239%" cy="19.103%" r="78.654%" fx="48.239%" fy="19.103%" gradientTransform="matrix(0 1 -.77841 0 .631 -.291)">
      <stop offset="0%" stop-color="#7CFFFE"/>
      <stop offset="100%" stop-color="#D6CDE6"/>
    </radialGradient>
    <path id="drive-network-256px-g" d="M-4.26280167e-09,196 C-4.26280167e-09,184.954305 8.95246011,176 19.997572,176 L164.002422,176 C175.046776,176 183.999994,184.951876 183.999994,196 L183.999994,196 C183.999994,207.045695 175.047534,216 164.002422,216 L19.997572,216 C8.95321796,216 -4.26280167e-09,207.048124 -4.26280167e-09,196 L-4.26280167e-09,196 Z"/>
    <filter id="drive-network-256px-h" width="101.1%" height="105%" x="-.5%" y="-2.5%" filterUnits="objectBoundingBox">
      <feMorphology in="SourceAlpha" radius="2" result="shadowSpreadInner1"/>
      <feOffset in="shadowSpreadInner1" result="shadowOffsetInner1"/>
      <feComposite in="shadowOffsetInner1" in2="SourceAlpha" k2="-1" k3="1" operator="arithmetic" result="shadowInnerInner1"/>
      <feColorMatrix in="shadowInnerInner1" values="0 0 0 0 0   0 0 0 0 0.239215686   0 0 0 0 0.611764706  0 0 0 0.2 0"/>
    </filter>
    <linearGradient id="drive-network-256px-k" x1="50%" x2="50%" y1="0%" y2="100%">
      <stop offset="0%" stop-color="#0174FF"/>
      <stop offset="50.85%" stop-color="#01C2FF"/>
      <stop offset="100%" stop-color="#0056FF"/>
    </linearGradient>
    <path id="drive-network-256px-j" d="M122,188 C123.104569,188 124,188.894514 124,189.99406 L124,202.00594 C124,203.05717 123.191139,203.918408 122.150219,203.994531 L122,204 C120.895431,204 120,203.105486 120,202.00594 L120,189.99406 C120,188.94283 120.808861,188.081592 121.849781,188.005469 L122,188 Z M130,188 C131.104569,188 132,188.894514 132,189.99406 L132,202.00594 C132,203.05717 131.191139,203.918408 130.150219,203.994531 L130,204 C128.895431,204 128,203.105486 128,202.00594 L128,189.99406 C128,188.94283 128.808861,188.081592 129.849781,188.005469 L130,188 Z M138,188 C139.104569,188 140,188.894514 140,189.99406 L140,202.00594 C140,203.05717 139.191139,203.918408 138.150219,203.994531 L138,204 C136.895431,204 136,203.105486 136,202.00594 L136,189.99406 C136,188.94283 136.808861,188.081592 137.849781,188.005469 L138,188 Z M146,188 C147.104569,188 148,188.894514 148,189.99406 L148,202.00594 C148,203.05717 147.191139,203.918408 146.150219,203.994531 L146,204 C144.895431,204 144,203.105486 144,202.00594 L144,189.99406 C144,188.94283 144.808861,188.081592 145.849781,188.005469 L146,188 Z M154,188 C155.104569,188 156,188.894514 156,189.99406 L156,202.00594 C156,203.05717 155.191139,203.918408 154.150219,203.994531 L154,204 C152.895431,204 152,203.105486 152,202.00594 L152,189.99406 C152,188.94283 152.808861,188.081592 153.849781,188.005469 L154,188 Z M162,188 C163.104569,188 164,188.894514 164,189.99406 L164,202.00594 C164,203.05717 163.191139,203.918408 162.150219,203.994531 L162,204 C160.895431,204 160,203.105486 160,202.00594 L160,189.99406 C160,188.94283 160.808861,188.081592 161.849781,188.005469 L162,188 Z"/>
    <filter id="drive-network-256px-i" width="104.5%" height="125%" x="-2.3%" y="-6.2%" filterUnits="objectBoundingBox">
      <feOffset dy="2" in="SourceAlpha" result="shadowOffsetOuter1"/>
      <feColorMatrix in="shadowOffsetOuter1" values="0 0 0 0 1   0 0 0 0 1   0 0 0 0 1  0 0 0 0.3 0"/>
    </filter>
    <path id="drive-network-256px-l" d="M23,203 C26.8659932,203 30,199.865993 30,196 C30,192.134007 26.8659932,189 23,189 C19.1340068,189 16,192.134007 16,196 C16,199.865993 19.1340068,203 23,203 Z"/>
    <filter id="drive-network-256px-m" width="142.9%" height="142.9%" x="-21.4%" y="-21.4%" filterUnits="objectBoundingBox">
      <feOffset dx="-4" dy="-6" in="SourceAlpha" result="shadowOffsetInner1"/>
      <feComposite in="shadowOffsetInner1" in2="SourceAlpha" k2="-1" k3="1" operator="arithmetic" result="shadowInnerInner1"/>
      <feColorMatrix in="shadowInnerInner1" values="0 0 0 0 0.191847778   0 0 0 0 0.912414966   0 0 0 0 0.103665518  0 0 0 0.5 0"/>
    </filter>
  </defs>
  <g fill="none" fill-rule="evenodd">
    <g filter="url(#drive-network-256px-a)" transform="translate(36 20)">
      <path fill="url(#drive-network-256px-b)" d="M-3.48450158e-10,31.9927545 C-3.48450158e-10,14.3236441 14.3232752,4.06657819e-10 31.9977918,4.06657819e-10 L152.002204,4.06657819e-10 C169.674097,4.06657819e-10 183.999996,14.319829 183.999997,31.9927545 L184,196.909098 L-3.48450158e-10,196.909098 L-3.48450158e-10,31.9927545 Z"/>
      <use fill="url(#drive-network-256px-c)" xlink:href="#drive-network-256px-d"/>
      <use fill="#000" filter="url(#drive-network-256px-e)" xlink:href="#drive-network-256px-d"/>
      <use fill="url(#drive-network-256px-f)" xlink:href="#drive-network-256px-g"/>
      <use fill="#000" filter="url(#drive-network-256px-h)" xlink:href="#drive-network-256px-g"/>
      <use fill="#000" filter="url(#drive-network-256px-i)" xlink:href="#drive-network-256px-j"/>
      <use fill="url(#drive-network-256px-k)" xlink:href="#drive-network-256px-j"/>
      <use fill="#BAFF76" xlink:href="#drive-network-256px-l"/>
      <use fill="#000" filter="url(#drive-network-256px-m)" xlink:href="#drive-network-256px-l"/>
      <path stroke="#54D800" stroke-linejoin="square" stroke-width="2" d="M23,202 C26.3137085,202 29,199.313708 29,196 C29,192.686292 26.3137085,190 23,190 C19.6862915,190 17,192.686292 17,196 C17,199.313708 19.6862915,202 23,202 Z"/>
    </g>
    <g transform="translate(86 56)">
      <path stroke="#FFF" stroke-width="4.909" d="M81.8697371,42.0411657 C81.8697371,64.0359086 64.0359086,81.8697371 42.0411657,81.8697371 C20.0464229,81.8697371 2.21259429,64.0359086 2.21259429,42.0411657 C2.21259429,20.0464229 20.0464229,2.21259429 42.0411657,2.21259429 C64.0359086,2.21259429 81.8697371,20.0464229 81.8697371,42.0411657 L81.8697371,42.0411657 Z"/>
      <path stroke="#FFF" stroke-width="5.2" d="M80.5783543 52.11592C33.6040686 60.7470057 12.5183543 30.9318057 7.45778286 22.2538629M8.48208 63.4858057C10.4079086 53.3974629 20.0745371 19.3885486 63.8250514 8.70043429M63.4244229 75.6424229C67.1167657 30.0925943 35.6100229 10.3469943 26.2011086 5.49728M62.3574857 53.6415886C62.3574857 53.6415886 41.3842286 64.5686743 29.9089143 79.9799886"/>
      <path fill="#FFF" d="M48.9778971 17.1628343C48.9778971 21.0426057 45.8290971 24.1914057 41.9493257 24.1914057 38.0695543 24.1914057 34.9207543 21.0426057 34.9207543 17.1628343 34.9207543 13.2830629 38.0695543 10.1342629 41.9493257 10.1342629 45.8290971 10.1342629 48.9778971 13.2830629 48.9778971 17.1628343M27.1443429 36.8109714C27.1443429 40.6907429 23.9955429 43.8395429 20.1157714 43.8395429 16.236 43.8395429 13.0872 40.6907429 13.0872 36.8109714 13.0872 32.9312 16.236 29.7824 20.1157714 29.7824 23.9955429 29.7824 27.1443429 32.9312 27.1443429 36.8109714M69.3860571 53.6668914C69.3860571 57.5466629 66.2372571 60.6954629 62.3574857 60.6954629 58.4777143 60.6954629 55.3289143 57.5466629 55.3289143 53.6668914 55.3289143 49.78712 58.4777143 46.63832 62.3574857 46.63832 66.2372571 46.63832 69.3860571 49.78712 69.3860571 53.6668914"/>
    </g>
  </g>
</svg>
