<svg xmlns="http://www.w3.org/2000/svg" width="48" height="48" viewBox="0 0 48 48">
  <defs>
    <filter id="android-device-a" width="154.2%" height="131.7%" x="-27.1%" y="-15.9%" filterUnits="objectBoundingBox">
      <feOffset dy="1" in="SourceAlpha" result="shadowOffsetOuter1"/>
      <feGaussianBlur in="shadowOffsetOuter1" result="shadowBlurOuter1" stdDeviation="1"/>
      <feComposite in="shadowBlurOuter1" in2="SourceAlpha" operator="out" result="shadowBlurOuter1"/>
      <feColorMatrix in="shadowBlurOuter1" result="shadowMatrixOuter1" values="0 0 0 0 0   0 0 0 0 0   0 0 0 0 0  0 0 0 0.2 0"/>
      <feMerge>
        <feMergeNode in="shadowMatrixOuter1"/>
        <feMergeNode in="SourceGraphic"/>
      </feMerge>
    </filter>
  </defs>
  <g fill="none" fill-rule="evenodd" filter="url(#android-device-a)" transform="translate(12 3)">
    <path fill="#776A5D" d="M-1.88293825e-13,2.00526988 C-1.88293825e-13,0.897789907 0.8970262,-1.0658141e-14 2.00494653,-1.0658141e-14 L21.9950528,-1.0658141e-14 C23.1023542,-1.0658141e-14 23.9999993,0.894473121 23.9999993,2.00526988 L24,38.9947301 C24,40.1022101 23.1029738,41 21.9950534,41 L2.00494659,41 C0.897645164,41 -1.88293825e-13,40.1055269 -1.88293825e-13,38.9947301 L-1.88293825e-13,2.00526988 Z"/>
    <path fill="#AD9F91" d="M1.00000001,2.00324215 C1.00000001,1.44916681 1.43945833,1 2.00246164,1 L21.9975376,1 C22.5511818,1 22.9999992,1.43798828 22.9999992,2.00324215 L23,38.9967579 C23,39.5508332 22.5605417,40 21.9975383,40 L2.00246168,40 C1.44881739,40 1.00000001,39.5620117 1.00000001,38.9967579 L1.00000001,2.00324215 Z"/>
    <rect width="20" height="32" x="2" y="4" fill="#1A1A1A"/>
    <circle cx="16.5" cy="2.5" r="1" fill="#000"/>
    <line x1="10.5" x2="14.5" y1="2.5" y2="2.5" stroke="#40372E" stroke-linecap="round" stroke-width=".5"/>
    <line x1="6.5" x2="7.5" y1="2.5" y2="2.5" stroke="#40372E" stroke-linecap="round" stroke-width=".5"/>
  </g>
</svg>
