<svg xmlns="http://www.w3.org/2000/svg" xmlns:xlink="http://www.w3.org/1999/xlink" width="96" height="96" viewBox="0 0 96 96">
  <defs>
    <filter id="folder-images-stack-a" width="128.6%" height="133.3%" x="-14.3%" y="-16.7%" filterUnits="objectBoundingBox">
      <feOffset dy="2" in="SourceAlpha" result="shadowOffsetOuter1"/>
      <feGaussianBlur in="shadowOffsetOuter1" result="shadowBlurOuter1" stdDeviation="2"/>
      <feColorMatrix in="shadowBlurOuter1" result="shadowMatrixOuter1" values="0 0 0 0 0   0 0 0 0 0   0 0 0 0 0  0 0 0 0.2 0"/>
      <feMerge>
        <feMergeNode in="shadowMatrixOuter1"/>
        <feMergeNode in="SourceGraphic"/>
      </feMerge>
    </filter>
    <path id="folder-images-stack-b" d="M47.3603604,4.5 C48.4921396,7.22445161 51.1523871,9 54.1025669,9 L81,9 C82.6568542,9 84,10.3431458 84,12 L84,69 C84,70.6568542 82.6568542,72 81,72 L3,72 C1.34314575,72 2.02906125e-16,70.6568542 0,69 L0,3 C-6.46995335e-16,1.34314575 1.34314575,-1.39730022e-16 3,0 L40.6181538,0 C43.5683336,-5.915259e-15 46.2285812,1.77554839 47.3603604,4.5 Z"/>
    <filter id="folder-images-stack-c" width="102.4%" height="102.8%" x="-1.2%" y="-1.4%" filterUnits="objectBoundingBox">
      <feOffset dy="2" in="SourceAlpha" result="shadowOffsetInner1"/>
      <feComposite in="shadowOffsetInner1" in2="SourceAlpha" k2="-1" k3="1" operator="arithmetic" result="shadowInnerInner1"/>
      <feColorMatrix in="shadowInnerInner1" values="0 0 0 0 1   0 0 0 0 1   0 0 0 0 1  0 0 0 0.5 0"/>
    </filter>
    <radialGradient id="folder-images-stack-d" cx="50%" cy="0%" r="116.79%" fx="50%" fy="0%" gradientTransform="matrix(.06172 .99555 -.65185 .09426 .47 -.498)">
      <stop offset="0%" stop-color="#DDE2FF"/>
      <stop offset="100%" stop-color="#B5C3F0"/>
    </radialGradient>
    <path id="folder-images-stack-e" d="M0,0 L84,0 L84,52 C84,53.6568542 82.6568542,55 81,55 L3,55 C1.34314575,55 2.02906125e-16,53.6568542 0,52 L0,0 L0,0 Z"/>
    <filter id="folder-images-stack-f" width="102.4%" height="103.6%" x="-1.2%" y="-1.8%" filterUnits="objectBoundingBox">
      <feOffset dy="2" in="SourceAlpha" result="shadowOffsetInner1"/>
      <feComposite in="shadowOffsetInner1" in2="SourceAlpha" k2="-1" k3="1" operator="arithmetic" result="shadowInnerInner1"/>
      <feColorMatrix in="shadowInnerInner1" values="0 0 0 0 1   0 0 0 0 1   0 0 0 0 1  0 0 0 0.5 0"/>
    </filter>
    <path id="folder-images-stack-g" d="M0,0 L83,0 L83,52 C83,53.1045695 82.1045695,54 81,54 L3,54 C1.34314575,54 2.02906125e-16,52.6568542 0,51 L0,0 L0,0 Z"/>
  </defs>
  <g fill="none" fill-rule="evenodd">
    <g filter="url(#folder-images-stack-a)" transform="translate(6 17)">
      <use fill="#B7C0F2" xlink:href="#folder-images-stack-b"/>
      <use fill="#000" filter="url(#folder-images-stack-c)" xlink:href="#folder-images-stack-b"/>
      <path stroke="#6B83A5" stroke-linejoin="square" d="M40.6181538,0.5 C41.9922215,0.5 43.2987701,0.913487272 44.3935854,1.64420782 C45.4884007,2.37492837 46.3714827,3.42288219 46.898617,4.69181529 C47.5032619,6.1473338 48.5161933,7.34937998 49.7719915,8.18754653 C51.0277897,9.02571308 52.5264547,9.5 54.1025669,9.5 L54.1025669,9.5 L81,9.5 C81.6903559,9.5 82.3153559,9.77982203 82.767767,10.232233 C83.220178,10.6846441 83.5,11.3096441 83.5,12 L83.5,12 L83.5,69 C83.5,69.6903559 83.220178,70.3153559 82.767767,70.767767 C82.3153559,71.220178 81.6903559,71.5 81,71.5 L81,71.5 L3,71.5 C2.30964406,71.5 1.68464406,71.220178 1.23223305,70.767767 C0.779822031,70.3153559 0.5,69.6903559 0.5,69 L0.5,69 L0.5,3 C0.5,2.30964406 0.779822031,1.68464406 1.23223305,1.23223305 C1.68464406,0.779822031 2.30964406,0.5 3,0.5 L3,0.5 Z"/>
      <path fill="#FFF" stroke="#6B83A5" d="M77,12.5 C77.6903559,12.5 78.3153559,12.779822 78.767767,13.232233 C79.220178,13.6846441 79.5,14.3096441 79.5,15 L79.5,15 L79.5,40 C79.5,40.6903559 79.220178,41.3153559 78.767767,41.767767 C78.3153559,42.220178 77.6903559,42.5 77,42.5 L77,42.5 L7,42.5 C6.30964406,42.5 5.68464406,42.220178 5.23223305,41.767767 C4.77982203,41.3153559 4.5,40.6903559 4.5,40 L4.5,40 L4.5,15 C4.5,14.3096441 4.77982203,13.6846441 5.23223305,13.232233 C5.68464406,12.779822 6.30964406,12.5 7,12.5 L7,12.5 Z"/>
      <g transform="translate(0 17)">
        <use fill="url(#folder-images-stack-d)" xlink:href="#folder-images-stack-e"/>
        <use fill="#000" filter="url(#folder-images-stack-f)" xlink:href="#folder-images-stack-e"/>
        <path stroke="#6D7CA3" stroke-linejoin="square" d="M83.5,0.5 L83.5,52 C83.5,52.6903559 83.220178,53.3153559 82.767767,53.767767 C82.3153559,54.220178 81.6903559,54.5 81,54.5 L81,54.5 L3,54.5 C2.30964406,54.5 1.68464406,54.220178 1.23223305,53.767767 C0.779822031,53.3153559 0.5,52.6903559 0.5,52 L0.5,52 L0.5,0.5 L83.5,0.5 Z"/>
      </g>
    </g>
    <g transform="translate(6 34)">
      <mask id="folder-images-stack-h" fill="#fff">
        <use xlink:href="#folder-images-stack-g"/>
      </mask>
      <g mask="url(#folder-images-stack-h)">
        <g transform="translate(0 2)">
          <g transform="translate(6 19)">
            <circle cx="12" cy="12" r="6" fill="#939AB9" fill-rule="nonzero"/>
            <path stroke="#4F6A8E" d="M12,18 C15.3137085,18 18,15.3137085 18,12 C18,8.6862915 15.3137085,6 12,6 C8.6862915,6 6,8.6862915 6,12 C6,15.3137085 8.6862915,18 12,18 Z M12,21 C7.02943725,21 3,16.9705627 3,12 C3,7.02943725 7.02943725,3 12,3 C16.9705627,3 21,7.02943725 21,12 C21,16.9705627 16.9705627,21 12,21 Z M12,24 C5.372583,24 -1.0658141e-14,18.627417 -1.0658141e-14,12 C-1.0658141e-14,5.372583 5.372583,0 12,0 C18.627417,0 24,5.372583 24,12 C24,18.627417 18.627417,24 12,24 Z"/>
          </g>
          <path fill="#939AB9" fill-rule="nonzero" stroke="#4F6A8E" d="M5.59339242e-11,31 C12.5962478,26.875 11.8512667,9.1698009 23.5500011,10.5 C35.2487356,11.8301991 38.3749408,13.4538638 43.5,10.5 C48.6250592,7.54613617 51,-1.14594893 61.5,0.638564025 C72,2.4230769 78,12.0253174 84,15.1997155 L84,30 C84,30.5522847 83.5522847,31 83,31 L5.59339242e-11,31 L5.59339242e-11,31 Z" transform="translate(0 22)"/>
          <path fill="#FFF" fill-rule="nonzero" d="M21.9545455 5.5C24.108408 5.5 25.8977968 7.10211125 26.2537888 9.20890637 27.5640018 9.6969841 28.5 10.9862702 28.5 12.5 28.5 14.4329966 26.973698 16 25.0909091 16 23.9109584 16 18.2747637 16 16.9090909 16 15.026302 16 13.5 14.4329966 13.5 12.5 13.5 10.5670034 15.026302 9 16.9090909 9 17.1732102 9 17.4303142 9.03083665 17.6771738 9.08919445 18.0795251 7.04171967 19.8416677 5.5 21.9545455 5.5zM68.8363637.5C71.8517712.5 74.3569154 2.55985732 74.8553045 5.26859389 76.6896023 5.89612242 78 7.55377591 78 9.5 78 11.9852814 75.8631773 14 73.2272727 14 71.5753418 14 63.6846692 14 61.7727273 14 59.1368228 14 57 11.9852814 57 9.5 57 7.01471862 59.1368228 5 61.7727273 5 62.1424942 5 62.5024399 5.03964708 62.8480433 5.11467854 63.4113351 2.482211 65.8783349.5 68.8363637.5z"/>
        </g>
      </g>
    </g>
  </g>
</svg>
