<svg xmlns="http://www.w3.org/2000/svg" xmlns:xlink="http://www.w3.org/1999/xlink" width="96" height="96" viewBox="0 0 96 96">
  <defs>
    <filter id="folder-videos-a" width="128.6%" height="133.3%" x="-14.3%" y="-16.7%" filterUnits="objectBoundingBox">
      <feOffset dy="2" in="SourceAlpha" result="shadowOffsetOuter1"/>
      <feGaussianBlur in="shadowOffsetOuter1" result="shadowBlurOuter1" stdDeviation="2"/>
      <feColorMatrix in="shadowBlurOuter1" result="shadowMatrixOuter1" values="0 0 0 0 0   0 0 0 0 0   0 0 0 0 0  0 0 0 0.2 0"/>
      <feMerge>
        <feMergeNode in="shadowMatrixOuter1"/>
        <feMergeNode in="SourceGraphic"/>
      </feMerge>
    </filter>
    <path id="folder-videos-b" d="M47.3603604,4.5 C48.4921396,7.22445161 51.1523871,9 54.1025669,9 L81,9 C82.6568542,9 84,10.3431458 84,12 L84,69 C84,70.6568542 82.6568542,72 81,72 L3,72 C1.34314575,72 2.02906125e-16,70.6568542 0,69 L0,3 C-6.46995335e-16,1.34314575 1.34314575,-1.39730022e-16 3,0 L40.6181538,0 C43.5683336,-5.915259e-15 46.2285812,1.77554839 47.3603604,4.5 Z"/>
    <filter id="folder-videos-c" width="102.4%" height="102.8%" x="-1.2%" y="-1.4%" filterUnits="objectBoundingBox">
      <feOffset dy="2" in="SourceAlpha" result="shadowOffsetInner1"/>
      <feComposite in="shadowOffsetInner1" in2="SourceAlpha" k2="-1" k3="1" operator="arithmetic" result="shadowInnerInner1"/>
      <feColorMatrix in="shadowInnerInner1" values="0 0 0 0 1   0 0 0 0 1   0 0 0 0 1  0 0 0 0.5 0"/>
    </filter>
    <radialGradient id="folder-videos-d" cx="50%" cy="0%" r="116.79%" fx="50%" fy="0%" gradientTransform="matrix(.06172 .99555 -.65185 .09426 .47 -.498)">
      <stop offset="0%" stop-color="#D8EAFF"/>
      <stop offset="100%" stop-color="#A1C8E7"/>
    </radialGradient>
    <path id="folder-videos-e" d="M0,0 L84,0 L84,52 C84,53.6568542 82.6568542,55 81,55 L3,55 C1.34314575,55 2.02906125e-16,53.6568542 0,52 L0,0 L0,0 Z"/>
    <filter id="folder-videos-f" width="102.4%" height="103.6%" x="-1.2%" y="-1.8%" filterUnits="objectBoundingBox">
      <feOffset dy="2" in="SourceAlpha" result="shadowOffsetInner1"/>
      <feComposite in="shadowOffsetInner1" in2="SourceAlpha" k2="-1" k3="1" operator="arithmetic" result="shadowInnerInner1"/>
      <feColorMatrix in="shadowInnerInner1" values="0 0 0 0 1   0 0 0 0 1   0 0 0 0 1  0 0 0 0.5 0"/>
    </filter>
  </defs>
  <g fill="none" fill-rule="evenodd">
    <g filter="url(#folder-videos-a)" transform="translate(6 17)">
      <use fill="#A3C6EB" xlink:href="#folder-videos-b"/>
      <use fill="#000" filter="url(#folder-videos-c)" xlink:href="#folder-videos-b"/>
      <path stroke="#5C889C" stroke-linejoin="square" d="M40.6181538,0.5 C41.9922215,0.5 43.2987701,0.913487272 44.3935854,1.64420782 C45.4884007,2.37492837 46.3714827,3.42288219 46.898617,4.69181529 C47.5032619,6.1473338 48.5161933,7.34937998 49.7719915,8.18754653 C51.0277897,9.02571308 52.5264547,9.5 54.1025669,9.5 L54.1025669,9.5 L81,9.5 C81.6903559,9.5 82.3153559,9.77982203 82.767767,10.232233 C83.220178,10.6846441 83.5,11.3096441 83.5,12 L83.5,12 L83.5,69 C83.5,69.6903559 83.220178,70.3153559 82.767767,70.767767 C82.3153559,71.220178 81.6903559,71.5 81,71.5 L81,71.5 L3,71.5 C2.30964406,71.5 1.68464406,71.220178 1.23223305,70.767767 C0.779822031,70.3153559 0.5,69.6903559 0.5,69 L0.5,69 L0.5,3 C0.5,2.30964406 0.779822031,1.68464406 1.23223305,1.23223305 C1.68464406,0.779822031 2.30964406,0.5 3,0.5 L3,0.5 Z"/>
      <path fill="#FFF" stroke="#5C889C" d="M77,12.5 C77.6903559,12.5 78.3153559,12.779822 78.767767,13.232233 C79.220178,13.6846441 79.5,14.3096441 79.5,15 L79.5,15 L79.5,40 C79.5,40.6903559 79.220178,41.3153559 78.767767,41.767767 C78.3153559,42.220178 77.6903559,42.5 77,42.5 L77,42.5 L7,42.5 C6.30964406,42.5 5.68464406,42.220178 5.23223305,41.767767 C4.77982203,41.3153559 4.5,40.6903559 4.5,40 L4.5,40 L4.5,15 C4.5,14.3096441 4.77982203,13.6846441 5.23223305,13.232233 C5.68464406,12.779822 6.30964406,12.5 7,12.5 L7,12.5 Z"/>
      <g transform="translate(0 17)">
        <use fill="url(#folder-videos-d)" xlink:href="#folder-videos-e"/>
        <use fill="#000" filter="url(#folder-videos-f)" xlink:href="#folder-videos-e"/>
        <path stroke="#5C819C" stroke-linejoin="square" d="M83.5,0.5 L83.5,52 C83.5,52.6903559 83.220178,53.3153559 82.767767,53.767767 C82.3153559,54.220178 81.6903559,54.5 81,54.5 L81,54.5 L3,54.5 C2.30964406,54.5 1.68464406,54.220178 1.23223305,53.767767 C0.779822031,53.3153559 0.5,52.6903559 0.5,52 L0.5,52 L0.5,0.5 L83.5,0.5 Z"/>
      </g>
    </g>
    <g fill="#2A4052" fill-opacity=".4" stroke="#3E6F84" transform="translate(29 41.75)">
      <circle cx="19" cy="19.25" r="18.5"/>
      <g transform="translate(12 9)">
        <path d="M1.21183413,0.652800512 C1.68897977,0.381989583 2.34322495,0.473539071 3.04692032,0.867574304 L3.04692032,0.867574304 L16.3955485,8.34215782 C16.7687846,8.55115189 17.0542766,8.78834555 17.2446352,9.04618977 C17.4101625,9.27039953 17.5,9.50793054 17.5,9.74826519 C17.5,9.98905479 17.4098702,10.2268876 17.2443735,10.4511888 C17.0538261,10.7094417 16.7682309,10.9467806 16.3955485,11.1554647 L16.3955485,11.1554647 L3.04692032,18.6300482 C2.34068666,19.0255047 1.68672658,19.1185825 1.2103453,18.8482054 C0.992749122,18.7247055 0.822035147,18.5262653 0.702960426,18.2686367 C0.568750794,17.9782625 0.5,17.6180023 0.5,17.1983386 L0.5,17.1983386 L0.5,2.29928391 C0.5,1.88105206 0.568890085,1.52201948 0.703116848,1.23252684 C0.822573971,0.974888513 0.993899312,0.776492582 1.21183413,0.652800512 Z"/>
        <path d="M5.50088831 2.24201516L11.4998883 5.60107803 11.4998883 13.8959585 5.50088831 17.2558785 5.50088831 2.24201516zM1.21183413.652800512C1.68897977.381989583 2.34322495.473539071 3.04693325.867581542L3.04693325.867581542 5.5 2.24108432 5.5 17.2559744 3.04692032 18.6300482C2.34068666 19.0255047 1.68672658 19.1185825 1.2103453 18.8482054.992749122 18.7247055.822035147 18.5262653.702960426 18.2686367.568750794 17.9782625.5 17.6180023.5 17.1983386L.5 17.1983386.5 2.29928391C.5 1.88105206.568890085 1.52201948.703116848 1.23252684.822573971.974888513.993899312.776492582 1.21183413.652800512z"/>
      </g>
    </g>
  </g>
</svg>
