<svg xmlns="http://www.w3.org/2000/svg" xmlns:xlink="http://www.w3.org/1999/xlink" width="96" height="96" viewBox="0 0 96 96">
  <defs>
    <filter id="folder-stack-mask-a" width="128.6%" height="133.3%" x="-14.3%" y="-16.7%" filterUnits="objectBoundingBox">
      <feOffset dy="2" in="SourceAlpha" result="shadowOffsetOuter1"/>
      <feGaussianBlur in="shadowOffsetOuter1" result="shadowBlurOuter1" stdDeviation="2"/>
      <feColorMatrix in="shadowBlurOuter1" result="shadowMatrixOuter1" values="0 0 0 0 0   0 0 0 0 0   0 0 0 0 0  0 0 0 0.2 0"/>
      <feMerge>
        <feMergeNode in="shadowMatrixOuter1"/>
        <feMergeNode in="SourceGraphic"/>
      </feMerge>
    </filter>
    <path id="folder-stack-mask-b" d="M47.3603604,4.5 C48.4921396,7.22445161 51.1523871,9 54.1025669,9 L81,9 C82.6568542,9 84,10.3431458 84,12 L84,69 C84,70.6568542 82.6568542,72 81,72 L3,72 C1.34314575,72 2.02906125e-16,70.6568542 0,69 L0,3 C-6.46995335e-16,1.34314575 1.34314575,-1.39730022e-16 3,0 L40.6181538,0 C43.5683336,-5.915259e-15 46.2285812,1.77554839 47.3603604,4.5 Z"/>
    <filter id="folder-stack-mask-c" width="102.4%" height="102.8%" x="-1.2%" y="-1.4%" filterUnits="objectBoundingBox">
      <feOffset dy="2" in="SourceAlpha" result="shadowOffsetInner1"/>
      <feComposite in="shadowOffsetInner1" in2="SourceAlpha" k2="-1" k3="1" operator="arithmetic" result="shadowInnerInner1"/>
      <feColorMatrix in="shadowInnerInner1" values="0 0 0 0 1   0 0 0 0 1   0 0 0 0 1  0 0 0 0.5 0"/>
    </filter>
  </defs>
  <g fill="none" fill-rule="evenodd">
    <g filter="url(#folder-stack-mask-a)" transform="translate(6 17)">
      <use fill="#C2C3C2" xlink:href="#folder-stack-mask-b"/>
      <use fill="#000" filter="url(#folder-stack-mask-c)" xlink:href="#folder-stack-mask-b"/>
      <path stroke="#7C7D7C" stroke-linejoin="square" d="M40.6181538,0.5 C41.9922215,0.5 43.2987701,0.913487272 44.3935854,1.64420782 C45.4884007,2.37492837 46.3714827,3.42288219 46.898617,4.69181529 C47.5032619,6.1473338 48.5161933,7.34937998 49.7719915,8.18754653 C51.0277897,9.02571308 52.5264547,9.5 54.1025669,9.5 L54.1025669,9.5 L81,9.5 C81.6903559,9.5 82.3153559,9.77982203 82.767767,10.232233 C83.220178,10.6846441 83.5,11.3096441 83.5,12 L83.5,12 L83.5,69 C83.5,69.6903559 83.220178,70.3153559 82.767767,70.767767 C82.3153559,71.220178 81.6903559,71.5 81,71.5 L81,71.5 L3,71.5 C2.30964406,71.5 1.68464406,71.220178 1.23223305,70.767767 C0.779822031,70.3153559 0.5,69.6903559 0.5,69 L0.5,69 L0.5,3 C0.5,2.30964406 0.779822031,1.68464406 1.23223305,1.23223305 C1.68464406,0.779822031 2.30964406,0.5 3,0.5 L3,0.5 Z"/>
    </g>
    <g transform="translate(29 41.75)">
      <circle cx="19" cy="19.25" r="18.5" stroke="#686868"/>
      <path fill="#000" fill-opacity=".227" d="M19.0075758,3.25 C27.8441318,3.25 35.0075758,10.413444 35.0075758,19.25 C35.0075758,28.086556 27.8441318,35.25 19.0075758,35.25 C10.1710198,35.25 3.00757576,28.086556 3.00757576,19.25 C3.00757576,10.413444 10.1710198,3.25 19.0075758,3.25 Z M25.4211137,15.7384166 L19.25,21.9095304 L13.0788863,15.7384166 L11.0218484,17.7954545 L19.25,26.0236062 L27.4781516,17.7954545 L25.4211137,15.7384166 Z"/>
      <path fill="#686868" fill-rule="nonzero" d="M19.0075758,3.25 C27.8441318,3.25 35.0075758,10.413444 35.0075758,19.25 C35.0075758,27.9813589 28.0136747,35.0792047 19.3224464,35.2469636 L19.0075758,35.25 C10.1710198,35.25 3.00757576,28.086556 3.00757576,19.25 C3.00757576,10.5186411 10.0014768,3.42079531 18.6927051,3.25303642 L19.0075758,3.25 Z M19.0075758,4.25 C10.7233045,4.25 4.00757576,10.9657288 4.00757576,19.25 C4.00757576,27.5342712 10.7233045,34.25 19.0075758,34.25 C27.291847,34.25 34.0075758,27.5342712 34.0075758,19.25 C34.0075758,10.9657288 27.291847,4.25 19.0075758,4.25 Z"/>
      <path stroke="#686868" d="M16.8409091,11.4772727 L16.8409091,20.2045455 L25.5681818,20.2045455 L25.5681818,24.1136364 L12.9318182,24.1136364 L12.9318182,11.4772727 L16.8409091,11.4772727 Z" transform="rotate(-45 19.25 17.795)"/>
    </g>
  </g>
</svg>
