<svg xmlns="http://www.w3.org/2000/svg" xmlns:xlink="http://www.w3.org/1999/xlink" width="96" height="96" viewBox="0 0 96 96">
  <defs>
    <filter id="folder-music-stack-a" width="128.6%" height="133.3%" x="-14.3%" y="-16.7%" filterUnits="objectBoundingBox">
      <feOffset dy="2" in="SourceAlpha" result="shadowOffsetOuter1"/>
      <feGaussianBlur in="shadowOffsetOuter1" result="shadowBlurOuter1" stdDeviation="2"/>
      <feColorMatrix in="shadowBlurOuter1" result="shadowMatrixOuter1" values="0 0 0 0 0   0 0 0 0 0   0 0 0 0 0  0 0 0 0.2 0"/>
      <feMerge>
        <feMergeNode in="shadowMatrixOuter1"/>
        <feMergeNode in="SourceGraphic"/>
      </feMerge>
    </filter>
    <path id="folder-music-stack-b" d="M47.3603604,4.5 C48.4921396,7.22445161 51.1523871,9 54.1025669,9 L81,9 C82.6568542,9 84,10.3431458 84,12 L84,69 C84,70.6568542 82.6568542,72 81,72 L3,72 C1.34314575,72 2.02906125e-16,70.6568542 0,69 L0,3 C-6.46995335e-16,1.34314575 1.34314575,-1.39730022e-16 3,0 L40.6181538,0 C43.5683336,-5.915259e-15 46.2285812,1.77554839 47.3603604,4.5 Z"/>
    <filter id="folder-music-stack-c" width="102.4%" height="102.8%" x="-1.2%" y="-1.4%" filterUnits="objectBoundingBox">
      <feOffset dy="2" in="SourceAlpha" result="shadowOffsetInner1"/>
      <feComposite in="shadowOffsetInner1" in2="SourceAlpha" k2="-1" k3="1" operator="arithmetic" result="shadowInnerInner1"/>
      <feColorMatrix in="shadowInnerInner1" values="0 0 0 0 1   0 0 0 0 1   0 0 0 0 1  0 0 0 0.5 0"/>
    </filter>
    <radialGradient id="folder-music-stack-d" cx="50%" cy="0%" r="116.79%" fx="50%" fy="0%" gradientTransform="matrix(.06172 .99555 -.65185 .09426 .47 -.498)">
      <stop offset="0%" stop-color="#FFE8D8"/>
      <stop offset="100%" stop-color="#EEC0AB"/>
    </radialGradient>
    <path id="folder-music-stack-e" d="M0,0 L84,0 L84,52 C84,53.6568542 82.6568542,55 81,55 L3,55 C1.34314575,55 2.02906125e-16,53.6568542 0,52 L0,0 L0,0 Z"/>
    <filter id="folder-music-stack-f" width="102.4%" height="103.6%" x="-1.2%" y="-1.8%" filterUnits="objectBoundingBox">
      <feOffset dy="2" in="SourceAlpha" result="shadowOffsetInner1"/>
      <feComposite in="shadowOffsetInner1" in2="SourceAlpha" k2="-1" k3="1" operator="arithmetic" result="shadowInnerInner1"/>
      <feColorMatrix in="shadowInnerInner1" values="0 0 0 0 1   0 0 0 0 1   0 0 0 0 1  0 0 0 0.5 0"/>
    </filter>
    <path id="folder-music-stack-g" d="M0,0 L84,0 L84,51 C84,52.6568542 82.6568542,54 81,54 L3,54 C1.34314575,54 2.02906125e-16,52.6568542 0,51 L0,0 L0,0 Z"/>
  </defs>
  <g fill="none" fill-rule="evenodd" filter="url(#folder-music-stack-a)" transform="translate(6 17)">
    <use fill="#E8BB9E" xlink:href="#folder-music-stack-b"/>
    <use fill="#000" filter="url(#folder-music-stack-c)" xlink:href="#folder-music-stack-b"/>
    <path stroke="#A8786D" stroke-linejoin="square" d="M40.6181538,0.5 C41.9922215,0.5 43.2987701,0.913487272 44.3935854,1.64420782 C45.4884007,2.37492837 46.3714827,3.42288219 46.898617,4.69181529 C47.5032619,6.1473338 48.5161933,7.34937998 49.7719915,8.18754653 C51.0277897,9.02571308 52.5264547,9.5 54.1025669,9.5 L54.1025669,9.5 L81,9.5 C81.6903559,9.5 82.3153559,9.77982203 82.767767,10.232233 C83.220178,10.6846441 83.5,11.3096441 83.5,12 L83.5,12 L83.5,69 C83.5,69.6903559 83.220178,70.3153559 82.767767,70.767767 C82.3153559,71.220178 81.6903559,71.5 81,71.5 L81,71.5 L3,71.5 C2.30964406,71.5 1.68464406,71.220178 1.23223305,70.767767 C0.779822031,70.3153559 0.5,69.6903559 0.5,69 L0.5,69 L0.5,3 C0.5,2.30964406 0.779822031,1.68464406 1.23223305,1.23223305 C1.68464406,0.779822031 2.30964406,0.5 3,0.5 L3,0.5 Z"/>
    <path fill="#FFF" stroke="#A8786D" d="M77,12.5 C77.6903559,12.5 78.3153559,12.779822 78.767767,13.232233 C79.220178,13.6846441 79.5,14.3096441 79.5,15 L79.5,15 L79.5,40 C79.5,40.6903559 79.220178,41.3153559 78.767767,41.767767 C78.3153559,42.220178 77.6903559,42.5 77,42.5 L77,42.5 L7,42.5 C6.30964406,42.5 5.68464406,42.220178 5.23223305,41.767767 C4.77982203,41.3153559 4.5,40.6903559 4.5,40 L4.5,40 L4.5,15 C4.5,14.3096441 4.77982203,13.6846441 5.23223305,13.232233 C5.68464406,12.779822 6.30964406,12.5 7,12.5 L7,12.5 Z"/>
    <g transform="translate(0 17)">
      <use fill="url(#folder-music-stack-d)" xlink:href="#folder-music-stack-e"/>
      <use fill="#000" filter="url(#folder-music-stack-f)" xlink:href="#folder-music-stack-e"/>
      <path stroke="#A17461" stroke-linejoin="square" d="M83.5,0.5 L83.5,52 C83.5,52.6903559 83.220178,53.3153559 82.767767,53.767767 C82.3153559,54.220178 81.6903559,54.5 81,54.5 L81,54.5 L3,54.5 C2.30964406,54.5 1.68464406,54.220178 1.23223305,53.767767 C0.779822031,53.3153559 0.5,52.6903559 0.5,52 L0.5,52 L0.5,0.5 L83.5,0.5 Z"/>
      <mask id="folder-music-stack-h" fill="#fff">
        <use xlink:href="#folder-music-stack-g"/>
      </mask>
      <g stroke="#925D51" mask="url(#folder-music-stack-h)">
        <g transform="translate(17.5 14)">
          <path fill="#3B1808" fill-opacity=".249" d="M24.5,0 C37.754834,0 48.5,10.745166 48.5,24 C48.5,37.254834 37.754834,48 24.5,48 C11.245166,48 0.5,37.254834 0.5,24 C0.5,10.745166 11.245166,0 24.5,0 Z M22.75,19.1513878 C22.3357864,19.1513878 22,19.4871743 22,19.9013878 L22,19.9013878 L22,28.2253642 C22,28.3528223 22.0324829,28.4781779 22.094382,28.5895964 C22.2955419,28.9516842 22.7521444,29.082142 23.1142322,28.8809821 L23.1142322,28.8809821 L29.9247583,25.0973565 C30.0292093,25.0393282 30.118284,24.9571834 30.1845638,24.8577637 C30.4143282,24.5131172 30.3211978,24.0474652 29.9765512,23.8177008 L29.9765512,23.8177008 L23.1660251,19.2773501 C23.0428245,19.1952163 22.8980687,19.1513878 22.75,19.1513878 Z"/>
          <circle cx="24.5" cy="24" r="22"/>
          <circle cx="24.5" cy="24" r="20"/>
          <circle cx="24.5" cy="24" r="18"/>
          <circle cx="24.5" cy="24" r="16"/>
          <circle cx="24.5" cy="24" r="14"/>
          <circle cx="24.5" cy="24" r="11.5"/>
        </g>
      </g>
    </g>
  </g>
</svg>
