<svg xmlns="http://www.w3.org/2000/svg" xmlns:xlink="http://www.w3.org/1999/xlink" width="96" height="96" viewBox="0 0 96 96">
  <defs>
    <filter id="folder-stack-a" width="128.6%" height="133.3%" x="-14.3%" y="-16.7%" filterUnits="objectBoundingBox">
      <feOffset dy="2" in="SourceAlpha" result="shadowOffsetOuter1"/>
      <feGaussianBlur in="shadowOffsetOuter1" result="shadowBlurOuter1" stdDeviation="2"/>
      <feColorMatrix in="shadowBlurOuter1" result="shadowMatrixOuter1" values="0 0 0 0 0   0 0 0 0 0   0 0 0 0 0  0 0 0 0.2 0"/>
      <feMerge>
        <feMergeNode in="shadowMatrixOuter1"/>
        <feMergeNode in="SourceGraphic"/>
      </feMerge>
    </filter>
    <path id="folder-stack-b" d="M47.3603604,4.5 C48.4921396,7.22445161 51.1523871,9 54.1025669,9 L81,9 C82.6568542,9 84,10.3431458 84,12 L84,69 C84,70.6568542 82.6568542,72 81,72 L3,72 C1.34314575,72 2.02906125e-16,70.6568542 0,69 L0,3 C-6.46995335e-16,1.34314575 1.34314575,-1.39730022e-16 3,0 L40.6181538,0 C43.5683336,-5.915259e-15 46.2285812,1.77554839 47.3603604,4.5 Z"/>
    <filter id="folder-stack-c" width="102.4%" height="102.8%" x="-1.2%" y="-1.4%" filterUnits="objectBoundingBox">
      <feOffset dy="2" in="SourceAlpha" result="shadowOffsetInner1"/>
      <feComposite in="shadowOffsetInner1" in2="SourceAlpha" k2="-1" k3="1" operator="arithmetic" result="shadowInnerInner1"/>
      <feColorMatrix in="shadowInnerInner1" values="0 0 0 0 1   0 0 0 0 1   0 0 0 0 1  0 0 0 0.5 0"/>
    </filter>
    <radialGradient id="folder-stack-d" cx="50%" cy="0%" r="116.79%" fx="50%" fy="0%" gradientTransform="matrix(.06172 .99555 -.65185 .09426 .47 -.498)">
      <stop offset="0%" stop-color="#D8FFF0"/>
      <stop offset="100%" stop-color="#8CD3B2"/>
    </radialGradient>
    <path id="folder-stack-e" d="M0,0 L84,0 L84,52 C84,53.6568542 82.6568542,55 81,55 L3,55 C1.34314575,55 2.02906125e-16,53.6568542 0,52 L0,0 L0,0 Z"/>
    <filter id="folder-stack-f" width="102.4%" height="103.6%" x="-1.2%" y="-1.8%" filterUnits="objectBoundingBox">
      <feOffset dy="2" in="SourceAlpha" result="shadowOffsetInner1"/>
      <feComposite in="shadowOffsetInner1" in2="SourceAlpha" k2="-1" k3="1" operator="arithmetic" result="shadowInnerInner1"/>
      <feColorMatrix in="shadowInnerInner1" values="0 0 0 0 1   0 0 0 0 1   0 0 0 0 1  0 0 0 0.5 0"/>
    </filter>
  </defs>
  <g fill="none" fill-rule="evenodd">
    <g filter="url(#folder-stack-a)" transform="translate(6 17)">
      <use fill="#85D3B5" xlink:href="#folder-stack-b"/>
      <use fill="#000" filter="url(#folder-stack-c)" xlink:href="#folder-stack-b"/>
      <path stroke="#548F6B" stroke-linejoin="square" d="M40.6181538,0.5 C41.9922215,0.5 43.2987701,0.913487272 44.3935854,1.64420782 C45.4884007,2.37492837 46.3714827,3.42288219 46.898617,4.69181529 C47.5032619,6.1473338 48.5161933,7.34937998 49.7719915,8.18754653 C51.0277897,9.02571308 52.5264547,9.5 54.1025669,9.5 L54.1025669,9.5 L81,9.5 C81.6903559,9.5 82.3153559,9.77982203 82.767767,10.232233 C83.220178,10.6846441 83.5,11.3096441 83.5,12 L83.5,12 L83.5,69 C83.5,69.6903559 83.220178,70.3153559 82.767767,70.767767 C82.3153559,71.220178 81.6903559,71.5 81,71.5 L81,71.5 L3,71.5 C2.30964406,71.5 1.68464406,71.220178 1.23223305,70.767767 C0.779822031,70.3153559 0.5,69.6903559 0.5,69 L0.5,69 L0.5,3 C0.5,2.30964406 0.779822031,1.68464406 1.23223305,1.23223305 C1.68464406,0.779822031 2.30964406,0.5 3,0.5 L3,0.5 Z"/>
      <path fill="#FFF" stroke="#548F6B" d="M77,12.5 C77.6903559,12.5 78.3153559,12.779822 78.767767,13.232233 C79.220178,13.6846441 79.5,14.3096441 79.5,15 L79.5,15 L79.5,40 C79.5,40.6903559 79.220178,41.3153559 78.767767,41.767767 C78.3153559,42.220178 77.6903559,42.5 77,42.5 L77,42.5 L7,42.5 C6.30964406,42.5 5.68464406,42.220178 5.23223305,41.767767 C4.77982203,41.3153559 4.5,40.6903559 4.5,40 L4.5,40 L4.5,15 C4.5,14.3096441 4.77982203,13.6846441 5.23223305,13.232233 C5.68464406,12.779822 6.30964406,12.5 7,12.5 L7,12.5 Z"/>
      <g transform="translate(0 17)">
        <use fill="url(#folder-stack-d)" xlink:href="#folder-stack-e"/>
        <use fill="#000" filter="url(#folder-stack-f)" xlink:href="#folder-stack-e"/>
        <path stroke="#498A6C" stroke-linejoin="square" d="M83.5,0.5 L83.5,52 C83.5,52.6903559 83.220178,53.3153559 82.767767,53.767767 C82.3153559,54.220178 81.6903559,54.5 81,54.5 L81,54.5 L3,54.5 C2.30964406,54.5 1.68464406,54.220178 1.23223305,53.767767 C0.779822031,53.3153559 0.5,52.6903559 0.5,52 L0.5,52 L0.5,0.5 L83.5,0.5 Z"/>
      </g>
    </g>
    <g stroke="#357650" transform="translate(23 43)">
      <path fill="#003D21" fill-opacity=".337" d="M7.6764003,12.875 C9.50584355,12.875 11.1620935,13.6165284 12.3609827,14.8154176 C13.5598719,16.0143067 14.3014003,17.6705568 14.3014003,19.5 C14.3014003,21.5331638 13.462191,23.600216 12.1847941,25.1465387 C10.9735097,26.6128303 9.36071849,27.625 7.6764003,27.625 C5.99208213,27.625 4.37929092,26.6128302 3.16800657,25.1465387 C1.89060961,23.600216 1.05140033,21.5331638 1.05140033,19.5 C1.05140033,17.6705568 1.79292871,16.0143068 2.9918179,14.8154176 C4.19070709,13.6165284 5.84695708,12.875 7.6764003,12.875 L7.6764003,12.875 Z M42.75,9.875 C44.5794432,9.875 46.2356932,10.6165284 47.4345824,11.8154176 C48.6334716,13.0143068 49.375,14.6705568 49.375,16.5 C49.375,18.5331638 48.5357907,20.600216 47.2583938,22.1465387 C46.0471094,23.6128303 44.4343182,24.625 42.75,24.625 C41.0656818,24.625 39.4528906,23.6128303 38.2416062,22.1465387 C36.9642093,20.600216 36.125,18.5331638 36.125,16.5 C36.125,14.6705568 36.8665284,13.0143068 38.0654176,11.8154176 C39.2643068,10.6165284 40.9205568,9.875 42.75,9.875 Z M23.25,0.875 C25.0794432,0.875 26.7356932,1.61652839 27.9345824,2.81541759 C29.1334716,4.01430678 29.875,5.67055677 29.875,7.5 C29.875,9.53316383 29.0357907,11.600216 27.7583938,13.1465387 C26.5471094,14.6128303 24.9343182,15.625 23.25,15.625 C21.5656818,15.625 19.9528906,14.6128303 18.7416062,13.1465387 C17.4642093,11.600216 16.625,9.53316383 16.625,7.5 C16.625,5.67055677 17.3665284,4.01430678 18.5654176,2.81541759 C19.7643068,1.61652839 21.4205568,0.875 23.25,0.875 Z"/>
      <path stroke-linecap="round" d="M23.25 18C23.25 29.7853513 23.6266042 35.9496673 24.1764003 42.9804888M44.25 27C44.25 35.7933609 42.6580869 34.9794703 42.7541818 40.2253513"/>
      <path stroke-linecap="round" d="M11.25,30 C11.25,36.7987007 6.4742608,36.1694307 6.76254549,40.2253513" transform="matrix(-1 0 0 1 18 0)"/>
    </g>
  </g>
</svg>
