<svg xmlns="http://www.w3.org/2000/svg" xmlns:xlink="http://www.w3.org/1999/xlink" width="96" height="96" viewBox="0 0 96 96">
  <defs>
    <filter id="network-server-a" width="128.6%" height="133.3%" x="-14.3%" y="-16.7%" filterUnits="objectBoundingBox">
      <feOffset dy="2" in="SourceAlpha" result="shadowOffsetOuter1"/>
      <feGaussianBlur in="shadowOffsetOuter1" result="shadowBlurOuter1" stdDeviation="2"/>
      <feColorMatrix in="shadowBlurOuter1" result="shadowMatrixOuter1" values="0 0 0 0 0   0 0 0 0 0   0 0 0 0 0  0 0 0 0.2 0"/>
      <feMerge>
        <feMergeNode in="shadowMatrixOuter1"/>
        <feMergeNode in="SourceGraphic"/>
      </feMerge>
    </filter>
    <path id="network-server-b" d="M47.3603604,4.5 C48.4921396,7.22445161 51.1523871,9 54.1025669,9 L81,9 C82.6568542,9 84,10.3431458 84,12 L84,69 C84,70.6568542 82.6568542,72 81,72 L3,72 C1.34314575,72 2.02906125e-16,70.6568542 0,69 L0,3 C-6.46995335e-16,1.34314575 1.34314575,-1.39730022e-16 3,0 L40.6181538,0 C43.5683336,-5.915259e-15 46.2285812,1.77554839 47.3603604,4.5 Z"/>
    <filter id="network-server-c" width="102.4%" height="102.8%" x="-1.2%" y="-1.4%" filterUnits="objectBoundingBox">
      <feOffset dy="2" in="SourceAlpha" result="shadowOffsetInner1"/>
      <feComposite in="shadowOffsetInner1" in2="SourceAlpha" k2="-1" k3="1" operator="arithmetic" result="shadowInnerInner1"/>
      <feColorMatrix in="shadowInnerInner1" values="0 0 0 0 1   0 0 0 0 1   0 0 0 0 1  0 0 0 0.5 0"/>
    </filter>
    <radialGradient id="network-server-d" cx="50%" cy="0%" r="116.79%" fx="50%" fy="0%" gradientTransform="matrix(.06172 .99555 -.65185 .09426 .47 -.498)">
      <stop offset="0%" stop-color="#D8EAFF"/>
      <stop offset="100%" stop-color="#A1C8E7"/>
    </radialGradient>
    <path id="network-server-e" d="M0,0 L84,0 L84,52 C84,53.6568542 82.6568542,55 81,55 L3,55 C1.34314575,55 2.02906125e-16,53.6568542 0,52 L0,0 L0,0 Z"/>
    <filter id="network-server-f" width="102.4%" height="103.6%" x="-1.2%" y="-1.8%" filterUnits="objectBoundingBox">
      <feOffset dy="2" in="SourceAlpha" result="shadowOffsetInner1"/>
      <feComposite in="shadowOffsetInner1" in2="SourceAlpha" k2="-1" k3="1" operator="arithmetic" result="shadowInnerInner1"/>
      <feColorMatrix in="shadowInnerInner1" values="0 0 0 0 1   0 0 0 0 1   0 0 0 0 1  0 0 0 0.5 0"/>
    </filter>
    <circle id="network-server-g" cx="16.5" cy="16.5" r="16.5"/>
  </defs>
  <g fill="none" fill-rule="evenodd">
    <g filter="url(#network-server-a)" transform="translate(6 17)">
      <use fill="#A3C6EB" xlink:href="#network-server-b"/>
      <use fill="#000" filter="url(#network-server-c)" xlink:href="#network-server-b"/>
      <path stroke="#5C889C" stroke-linejoin="square" d="M40.6181538,0.5 C41.9922215,0.5 43.2987701,0.913487272 44.3935854,1.64420782 C45.4884007,2.37492837 46.3714827,3.42288219 46.898617,4.69181529 C47.5032619,6.1473338 48.5161933,7.34937998 49.7719915,8.18754653 C51.0277897,9.02571308 52.5264547,9.5 54.1025669,9.5 L54.1025669,9.5 L81,9.5 C81.6903559,9.5 82.3153559,9.77982203 82.767767,10.232233 C83.220178,10.6846441 83.5,11.3096441 83.5,12 L83.5,12 L83.5,69 C83.5,69.6903559 83.220178,70.3153559 82.767767,70.767767 C82.3153559,71.220178 81.6903559,71.5 81,71.5 L81,71.5 L3,71.5 C2.30964406,71.5 1.68464406,71.220178 1.23223305,70.767767 C0.779822031,70.3153559 0.5,69.6903559 0.5,69 L0.5,69 L0.5,3 C0.5,2.30964406 0.779822031,1.68464406 1.23223305,1.23223305 C1.68464406,0.779822031 2.30964406,0.5 3,0.5 L3,0.5 Z"/>
      <path fill="#FFF" stroke="#5C889C" d="M77,12.5 C77.6903559,12.5 78.3153559,12.779822 78.767767,13.232233 C79.220178,13.6846441 79.5,14.3096441 79.5,15 L79.5,15 L79.5,40 C79.5,40.6903559 79.220178,41.3153559 78.767767,41.767767 C78.3153559,42.220178 77.6903559,42.5 77,42.5 L77,42.5 L7,42.5 C6.30964406,42.5 5.68464406,42.220178 5.23223305,41.767767 C4.77982203,41.3153559 4.5,40.6903559 4.5,40 L4.5,40 L4.5,15 C4.5,14.3096441 4.77982203,13.6846441 5.23223305,13.232233 C5.68464406,12.779822 6.30964406,12.5 7,12.5 L7,12.5 Z"/>
      <g transform="translate(0 17)">
        <use fill="url(#network-server-d)" xlink:href="#network-server-e"/>
        <use fill="#000" filter="url(#network-server-f)" xlink:href="#network-server-e"/>
        <path stroke="#5C819C" stroke-linejoin="square" d="M83.5,0.5 L83.5,52 C83.5,52.6903559 83.220178,53.3153559 82.767767,53.767767 C82.3153559,54.220178 81.6903559,54.5 81,54.5 L81,54.5 L3,54.5 C2.30964406,54.5 1.68464406,54.220178 1.23223305,53.767767 C0.779822031,53.3153559 0.5,52.6903559 0.5,52 L0.5,52 L0.5,0.5 L83.5,0.5 Z"/>
      </g>
    </g>
    <g transform="translate(31 44)">
      <g transform="translate(.5)">
        <mask id="network-server-h" fill="#fff">
          <use xlink:href="#network-server-g"/>
        </mask>
        <use fill="#2A4052" fill-opacity=".4" xlink:href="#network-server-g"/>
        <path fill="#3E6F84" fill-rule="nonzero" d="M16.5,0 C25.6126984,0 33,7.38730163 33,16.5 C33,25.6126984 25.6126984,33 16.5,33 C7.38730163,33 0,25.6126984 0,16.5 C0,7.38730163 7.38730163,0 16.5,0 Z M16.5,1 C7.93958638,1 1,7.93958638 1,16.5 C1,25.0604136 7.93958638,32 16.5,32 C25.0604136,32 32,25.0604136 32,16.5 C32,7.93958638 25.0604136,1 16.5,1 Z" mask="url(#network-server-h)"/>
        <path fill="#3E6F84" fill-rule="nonzero" d="M26.375,-36 C42.3222222,-36 55.25,-23.0722222 55.25,-7.125 C55.25,-0.940632201 53.3057844,4.78963972 49.995225,9.48794409 C55.9777514,14.7773264 59.75,22.5106353 59.75,31.125 C59.75,32.0627103 59.7053017,32.9899808 59.6179195,33.904797 C62.0866046,38.159185 63.5,43.1020344 63.5,48.375 C63.5,64.3222222 50.5722222,77.25 34.625,77.25 C20.9358328,77.25 9.47156819,67.7240599 6.49944953,54.9394232 C3.7763426,55.7911971 0.879250883,56.25 -2.125,56.25 C-18.0722222,56.25 -31,43.3222222 -31,27.375 C-31,11.4277778 -18.0722222,-1.5 -2.125,-1.5 L-1.95212521,-1.49846622 C-2.31156283,-3.31834114 -2.5,-5.19966464 -2.5,-7.125 C-2.5,-23.0722222 10.4277778,-36 26.375,-36 Z M59.2630929,36.4294277 L59.2086416,36.7184384 C56.6038533,49.9887288 44.9085555,60 30.875,60 C23.5213976,60 16.809828,57.2511308 11.7117982,52.7248992 C10.5010239,53.3873409 9.23670597,53.9657888 7.92756079,54.4520092 C10.6907999,66.6460832 21.5947331,75.75 34.625,75.75 C49.743795,75.75 62,63.493795 62,48.375 C62,44.0922649 61.0165233,40.0392331 59.2630929,36.4294277 Z M26.375,-34.5 C11.256205,-34.5 -1,-22.243795 -1,-7.125 C-1,-5.178985 -0.796944844,-3.28039608 -0.410866321,-1.44926502 C4.78942021,-1.14522362 9.61958351,0.535133943 13.7211558,3.23267338 C13.3491727,3.57115476 13.0467608,3.9837558 12.8357753,4.44679582 C9.08195655,1.99160864 4.68794902,0.434055055 -0.0413279971,0.0781147885 L0.0164621412,0.291248076 C1.12448856,4.23740955 3.09484237,7.82280095 5.71137689,10.8312756 C5.24582049,11.0389834 4.83122484,11.3405866 4.4902533,11.7110141 C1.62316559,8.38472064 -0.497904963,4.39554994 -1.61300685,0.00498404476 C-1.78209518,0.00157958446 -1.95336313,0 -2.125,0 C-17.243795,0 -29.5,12.256205 -29.5,27.375 C-29.5,42.493795 -17.243795,54.75 -2.125,54.75 C0.776773617,54.75 3.57309595,54.2985094 6.19755115,53.4619441 C5.90313792,51.8105513 5.75,50.1106593 5.75,48.375 C5.75,47.4372897 5.79469832,46.5100192 5.88208053,45.595203 C3.41339539,41.340815 2,36.3979656 2,31.125 C2,26.2033855 3.23131445,21.5693599 5.4026918,17.5141748 C5.8407403,17.7625183 6.33299927,17.9251357 6.85737552,17.9796925 C4.71701322,21.8809181 3.5,26.3608347 3.5,31.125 C3.5,35.4077351 4.48347672,39.4607669 6.23690706,43.0705723 C7.9160082,34.0246205 13.8122319,26.4601771 21.8090713,22.4928172 C22.0148791,22.9665048 22.3148118,23.3884241 22.6853724,23.7359234 C14.4374704,27.7380886 8.50253957,35.7606463 7.42569683,45.2563348 C8.67356552,47.3243558 10.1880347,49.2135273 11.9209334,50.8768599 C19.9054335,46.0942886 25.25,37.3587895 25.25,27.375 C25.25,26.4883951 25.2078515,25.6116344 25.1254489,24.7466125 L25.25,24.75 C25.7284113,24.75 26.1858983,24.6604125 26.6066,24.4970986 C26.7020206,25.4431712 26.75,26.4034825 26.75,27.375 C26.75,37.7432058 21.2853669,46.8350781 13.0791551,51.9275626 C17.8649945,56.0249864 24.080962,58.5 30.875,58.5 C44.9392505,58.5 56.5263186,47.8939213 58.0743032,34.2436652 C53.2819358,26.3064955 44.5731671,21 34.625,21 C33.9483831,21 33.2774995,21.0245475 32.6131914,21.0728005 C31.4172753,21.3376435 30.1931135,21.5270492 28.9461555,21.6370879 C28.9816361,21.4289122 29,21.2166006 29,21 C29,20.6802474 28.9599804,20.3698419 28.8846768,20.073519 L28.3868086,20.1771995 C29.6914443,19.8882799 31.0296948,19.6891368 32.3944851,19.5848723 C38.6650347,18.1789343 44.1218212,14.6207224 47.9497578,9.72690935 C43.2687288,5.98624776 37.3330162,3.75 30.875,3.75 C27.0106442,3.75 23.3333045,4.55071114 19.999841,5.99527331 C19.9994408,5.46337328 19.8878448,4.95675687 19.6871125,4.4980453 C23.1268479,3.05018928 26.9074769,2.25 30.875,2.25 C37.666317,2.25 43.9100321,4.59456242 48.840888,8.51842994 C51.9355054,4.0856829 53.75,-1.30775959 53.75,-7.125 C53.75,-22.243795 41.493795,-34.5 26.375,-34.5 Z M7.2575896,47.7419379 L7.25366747,47.9223043 C7.25122562,48.0729104 7.25,48.223812 7.25,48.375 C7.25,49.9372755 7.38086903,51.4689849 7.63224246,52.9597635 C8.63812527,52.5760866 9.61411546,52.1353232 10.5577178,51.6411353 C9.34647316,50.4430433 8.24169797,49.1380717 7.2575896,47.7419379 Z M49.0968012,10.6953243 L48.8667435,10.9842489 C45.8198279,14.7637401 41.83975,17.7594196 37.2765505,19.6212469 C45.9383378,20.4087663 53.4946443,25.0225063 58.2424104,31.7580621 C58.2475932,31.5481664 58.25,31.3368643 58.25,31.125 C58.25,23.0038402 54.7136294,15.7086441 49.0968012,10.6953243 Z M21.6806065,19.8490408 C21.5628944,20.2129861 21.5,20.5991482 21.5,21 C21.5,21.1155517 21.5052263,21.2298827 21.5154555,21.3427695 C17.3279332,20.6332507 13.4459367,19.0215481 10.0776816,16.7145006 C10.4069002,16.3356989 10.6620619,15.8908519 10.8196694,15.4021904 C14.0124759,17.6129494 17.6992589,19.1610031 21.6806065,19.8490408 Z M24.9302648,17.2641108 L24.8543903,17.2706193 C24.3639081,17.3220453 23.9015762,17.4680202 23.4859504,17.6899882 C22.2873072,14.5179098 20.5144414,11.6263703 18.2949798,9.14234673 C18.7186726,8.86756004 19.0825576,8.50864431 19.3641798,8.08980457 C21.7530666,10.7481226 23.6549856,13.8532307 24.9302648,17.2641108 Z M13.2513859,8.25220901 C13.5599504,8.66238247 13.9507172,9.00720456 14.3992159,9.26220475 C13.0465917,10.2821803 11.7921457,11.4252685 10.6518766,12.6743728 C10.4365634,12.2054404 10.1247899,11.7886406 9.74307768,11.4486865 C10.7693259,10.3454835 11.8823679,9.32276652 13.0702172,8.39115613 Z" mask="url(#network-server-h)"/>
      </g>
      <circle cx="7.75" cy="14.25" r="2.5" fill="#2A4052" fill-opacity=".4" stroke="#3E6F84"/>
      <circle cx="16.75" cy="6" r="2.5" fill="#2A4052" fill-opacity=".4" stroke="#3E6F84"/>
      <circle cx="25.75" cy="21" r="2.5" fill="#2A4052" fill-opacity=".4" stroke="#3E6F84"/>
    </g>
  </g>
</svg>
