<svg xmlns="http://www.w3.org/2000/svg" width="24" height="24" viewBox="0 0 24 24">
  <defs>
    <filter id="chmsee-icon-a" width="125%" height="127.8%" x="-12.5%" y="-13.9%" filterUnits="objectBoundingBox">
      <feOffset in="SourceAlpha" result="shadowOffsetOuter1"/>
      <feGaussianBlur in="shadowOffsetOuter1" result="shadowBlurOuter1" stdDeviation=".5"/>
      <feColorMatrix in="shadowBlurOuter1" result="shadowMatrixOuter1" values="0 0 0 0 0   0 0 0 0 0   0 0 0 0 0  0 0 0 0.15 0"/>
      <feMerge>
        <feMergeNode in="shadowMatrixOuter1"/>
        <feMergeNode in="SourceGraphic"/>
      </feMerge>
    </filter>
    <linearGradient id="chmsee-icon-b" x1="97.192%" x2="2.736%" y1="36.191%" y2="67.054%">
      <stop offset="0%" stop-color="#474747"/>
      <stop offset="3.816%" stop-color="#010101"/>
      <stop offset="100%"/>
    </linearGradient>
  </defs>
  <g fill="none" filter="url(#chmsee-icon-a)" transform="translate(3 3)">
    <path fill="#C36434" d="M1.86956522 0L16.1304348 0C16.6106824 0 17 .389317609 17 .869565217L17 17.1304348C17 17.6106824 16.6106824 18 16.1304348 18L1.86956522 18C1.38931761 18 1 17.6106824 1 17.1304348L1 .869565217C1 .389317609 1.38931761 0 1.86956522 0zM.5 0C.776142375 0 1 .223857625 1 .5L1 17.5C1 17.7761424.776142375 18 .5 18 .223857625 18 0 17.7761424 0 17.5L0 .5C0 .223857625.223857625 0 .5 0z"/>
    <path fill="#FFF" d="M1,1.00000017 L15.826087,1.00000017 L15.826087,1.00000017 C15.9221365,1.00000017 16,1.0778637 16,1.17391322 L16,16.8260872 L16,16.8260872 C16,16.9221367 15.9221365,17.0000002 15.826087,17.0000002 L1,17.0000002 L1,1.00000017 Z"/>
    <rect width="1" height="16" x="3" y="1" fill="#CDCDCD"/>
    <path fill="url(#chmsee-icon-b)" d="M7.7603089,12.8723498 C8.3592464,12.8723498 10.3546499,12.9037465 11.0940661,13.8537885 C11.2913986,14.1072881 11.2879162,14.6387069 11.178803,14.939883 C10.9524511,15.573632 10.3975988,16.5469308 9.1021694,16.7457768 C8.7852768,16.7946162 8.264087,16.7818249 7.9483551,16.7248457 C6.7759683,16.5178598 6.3696957,15.7771293 6.22924146,15.2445477 C6.18641475,15.0826046 5.92448787,13.9809661 6.19441808,13.4398167 C6.44393902,12.9395834 7.367055,12.8723498 7.7603089,12.8723498 Z M16.8695652,12.8723498 C17.189322,12.8723498 18.0924141,12.8078676 18.3512564,13.2826087 C18.6543232,13.838462 18.3440068,15.0753917 18.300182,15.242222 C18.1399946,15.8550398 17.6257695,16.7434512 16.0041612,16.7794993 C14.2920122,16.8201987 13.6083134,15.662008 13.3506205,14.939883 C13.242668,14.6387069 13.2380249,14.1072881 13.4341966,13.8537885 C14.1736128,12.9037465 16.2706033,12.8723498 16.8695652,12.8723498 Z M7.7603089,17.296964 C8.0772016,17.341152 8.5972306,17.3585946 8.9164448,17.341152 C9.7417586,17.2992897 11.2078225,17.0050906 11.6454362,15.5026986 C11.7359769,15.1945455 11.798659,14.7828994 11.940274,14.6759179 C12.0134031,14.6212643 12.1109085,14.5782392 12.2420766,14.5782392 C12.3651191,14.5782392 12.4544991,14.6131244 12.518342,14.6619638 C12.6483492,14.7608054 12.7644271,15.1503575 12.9199715,15.4329281 C13.311154,16.1469132 14.1968284,17.334175 15.7464683,17.334175 C15.7464683,17.334175 18.709937,17.5423237 19.0871902,14.8956951 C19.1324606,14.5782392 19.1306852,13.9442078 19.2688179,13.6558229 C19.3640018,13.4581398 19.4429348,13.2023145 19.4429348,12.8976499 C19.4429348,12.6732214 19.4197192,12.5080978 19.3756096,12.3859994 C19.2792649,12.1173828 18.116779,12.244415 17.7975648,12.2525549 C16.6170526,12.2874402 14.823649,12.4072129 13.9043121,12.8223476 C13.6141173,12.9537487 13.2124878,13.2874844 12.9211323,13.4212112 C12.6901373,13.5281927 12.4254796,13.6247086 12.2304688,13.6247086 C11.9936699,13.6247086 11.8323216,13.5467982 11.6593655,13.4398167 C11.3877432,13.2712046 10.9466472,12.9932853 10.6506486,12.8723498 C9.5966613,12.4420982 7.8531712,12.2560434 6.6773021,12.2513921 C6.35692714,12.2513921 5.30266673,12.3402083 5.11229898,12.563474 C5.00782888,12.6867352 4.94157608,12.8460446 4.94157608,13.0576819 C4.94157608,13.0576819 4.93237824,13.5297958 5.10417353,13.9135337 C5.23650232,14.2065699 5.38419436,14.6910348 5.43642941,15.006165 C5.56411509,15.7759665 6.04003448,17.0620699 7.7603089,17.296964 Z"/>
  </g>
</svg>
