<svg xmlns="http://www.w3.org/2000/svg" xmlns:xlink="http://www.w3.org/1999/xlink" width="24" height="24" viewBox="0 0 24 24">
  <defs>
    <filter id="chromium-a" width="122.7%" height="122.7%" x="-11.4%" y="-11.4%" filterUnits="objectBoundingBox">
      <feOffset in="SourceAlpha" result="shadowOffsetOuter1"/>
      <feGaussianBlur in="shadowOffsetOuter1" result="shadowBlurOuter1" stdDeviation=".5"/>
      <feColorMatrix in="shadowBlurOuter1" result="shadowMatrixOuter1" values="0 0 0 0 0   0 0 0 0 0   0 0 0 0 0  0 0 0 0.15 0"/>
      <feMerge>
        <feMergeNode in="shadowMatrixOuter1"/>
        <feMergeNode in="SourceGraphic"/>
      </feMerge>
    </filter>
    <linearGradient id="chromium-b" x1="50%" x2="50%" y1="0%" y2="100%">
      <stop offset="0%" stop-color="#70A4E4"/>
      <stop offset="100%" stop-color="#224BA2"/>
    </linearGradient>
    <linearGradient id="chromium-c" x1="50%" x2="50%" y1="3.975%" y2="100%">
      <stop offset="0%" stop-color="#5D8DCF"/>
      <stop offset="100%" stop-color="#143E8C"/>
    </linearGradient>
    <linearGradient id="chromium-d" x1="50%" x2="50%" y1="0%" y2="98.017%">
      <stop offset="0%" stop-color="#AECAEF"/>
      <stop offset="100%" stop-color="#6D93D4"/>
    </linearGradient>
    <linearGradient id="chromium-e" x1="50%" x2="50%" y1="0%" y2="100%">
      <stop offset="0%" stop-color="#456DAD"/>
      <stop offset="100%" stop-color="#4674C0"/>
    </linearGradient>
    <linearGradient id="chromium-f" x1="50%" x2="50%" y1="0%" y2="100%">
      <stop offset="0%" stop-color="#A3CCF7"/>
      <stop offset="100%" stop-color="#4A7BCD"/>
    </linearGradient>
    <linearGradient id="chromium-g" x1="50%" x2="50%" y1="0%" y2="100%">
      <stop offset="0%" stop-color="#7B9FC8"/>
      <stop offset="100%" stop-color="#4674C0"/>
    </linearGradient>
    <linearGradient id="chromium-j" x1="0%" x2="100%" y1="39.862%" y2="39.862%">
      <stop offset="0%" stop-color="#F5F5F5"/>
      <stop offset="100%" stop-color="#DCDCDC"/>
    </linearGradient>
    <path id="chromium-i" d="M11,17 C7.6916,17 5,14.3078 5,10.9994 C5,7.691 7.6916,5 11,5 C14.3078,5 17,7.691 17,10.9994 C17,14.3078 14.3078,17 11,17 L11,17 Z"/>
    <filter id="chromium-h" width="133.3%" height="133.3%" x="-16.7%" y="-8.3%" filterUnits="objectBoundingBox">
      <feOffset dy="1" in="SourceAlpha" result="shadowOffsetOuter1"/>
      <feGaussianBlur in="shadowOffsetOuter1" result="shadowBlurOuter1" stdDeviation=".5"/>
      <feColorMatrix in="shadowBlurOuter1" values="0 0 0 0 0   0 0 0 0 0   0 0 0 0 0  0 0 0 0.3 0"/>
    </filter>
    <linearGradient id="chromium-m" x1="50%" x2="50%" y1="101.163%" y2="-1.163%">
      <stop offset="0%" stop-color="#517FB3"/>
      <stop offset="100%" stop-color="#A1C6EF"/>
    </linearGradient>
    <circle id="chromium-l" cx="11" cy="11" r="4"/>
    <filter id="chromium-k" width="275%" height="275%" x="-87.5%" y="-62.5%" filterUnits="objectBoundingBox">
      <feOffset dy="2" in="SourceAlpha" result="shadowOffsetOuter1"/>
      <feGaussianBlur in="shadowOffsetOuter1" result="shadowBlurOuter1" stdDeviation="2"/>
      <feColorMatrix in="shadowBlurOuter1" values="0 0 0 0 0   0 0 0 0 0   0 0 0 0 0  0 0 0 0.3 0"/>
    </filter>
    <linearGradient id="chromium-n" x1="41.429%" x2="41.429%" y1="101.163%" y2="-1.163%">
      <stop offset="0%" stop-color="#49627F"/>
      <stop offset="100%" stop-color="#78A7DC"/>
    </linearGradient>
  </defs>
  <g fill="none" fill-rule="evenodd" filter="url(#chromium-a)" transform="translate(1 1)">
    <path fill="url(#chromium-b)" d="M10.9048469,1 C8.2005261,1 5.73434227,2.08441369 3.94576178,3.84728756 C3.89906493,3.89331325 3.85282996,3.93980142 3.8070647,3.98674483 C3.40372458,4.40046823 3.06375816,4.87893063 2.73873901,5.35842896 C2.73873901,5.35842896 2.7629326,5.41490748 2.78847447,5.45783611 C4.27077577,7.94916346 7.23537836,12.9318182 7.23537836,12.9318182 L19.6814546,6.53302002 C19.6597645,6.4893019 19.7037681,6.41809151 19.6814546,6.37473828 C18.0430598,3.19147468 14.7321427,1 10.9048469,1 Z"/>
    <path fill="url(#chromium-c)" fill-rule="nonzero" d="M10.9048469,0 C8.00229974,0 5.26688706,1.14106298 3.24379167,3.13508116 L3.09102978,3.28868037 C2.74164978,3.64705454 2.44795485,4.02031877 2.07571192,4.55693469 L1.60430812,5.24977591 L1.81952625,5.75219017 L1.85044289,5.82068701 L1.92908583,5.96915907 L6.85663019,14.2509612 L21.0153809,6.97163988 L20.698,6.332 L20.6890123,6.23977223 C20.6731754,6.14542192 20.6367095,6.04555871 20.5705961,5.91710581 C18.7176079,2.3169055 15.0161984,0 10.9048469,0 Z M10.9048469,1 C14.7321427,1 18.0430598,3.19147468 19.6814546,6.37473828 C19.6963303,6.40364043 19.6817317,6.44492355 19.6767731,6.48218779 L19.6814546,6.53302002 L7.23537836,12.9318182 L2.76992783,5.42419323 L2.73873901,5.35842896 C3.06375816,4.87893063 3.40372458,4.40046823 3.8070647,3.98674483 L3.94576178,3.84728756 C5.73434227,2.08441369 8.2005261,1 10.9048469,1 Z"/>
    <path fill="url(#chromium-d)" d="M19.4128241,15.8779246 C21.1220379,12.9642241 21.1778069,9.48501896 19.817546,6.6543671 L10.9056312,6.625 L10.078064,20.6447754 C10.2454381,20.6578711 10.3687314,20.7641904 10.5357393,20.7688441 C14.1006072,20.8681792 17.5477481,19.0570008 19.4128241,15.8779246 Z"/>
    <path fill="url(#chromium-e)" fill-rule="nonzero" d="M20.4474647,5.65643741 L9.96310273,5.62188869 L9.02199182,21.5652023 L9.92857191,21.6356471 L9.93941786,21.6399517 C10.14561,21.7216929 10.2872972,21.7623094 10.5078851,21.7684561 C14.4897667,21.8794113 18.2514346,19.8337601 20.2753469,16.3839428 C22.1164564,13.2453994 22.2551951,9.41825629 20.7188766,6.22123544 L20.4474647,5.65643741 Z M10.9056312,6.625 L19.817546,6.6543671 C21.1778069,9.48501896 21.1220379,12.9642241 19.4128241,15.8779246 C17.5477481,19.0570008 14.1006072,20.8681792 10.5357393,20.7688441 L10.417308,20.7493366 L10.1967012,20.6690315 L10.078064,20.6447754 L10.9056312,6.625 Z"/>
    <path fill="url(#chromium-f)" d="M2.61289978,5.49475098 C2.57122803,5.54927063 2.51509144,5.61686299 2.4729511,5.68374167 C2.42867089,5.75401644 2.38533206,5.82501147 2.34294243,5.89670052 C1.47037229,7.37238528 1,9.14214319 1,10.9771257 C1,16.1515984 5.14428017,20.333399 10.0493636,20.738499 L14.6363636,12.9931143 L7.2212996,13.2545416 L2.70672842,5.66136008 C2.67179334,5.6026018 2.61289978,5.49475098 2.61289978,5.49475098 Z"/>
    <path fill="url(#chromium-g)" fill-rule="nonzero" d="M3.54038283,5.105215 L2.7529848,3.66475805 L1.74689729,4.97957874 L1.69184118,5.0540148 L1.62689819,5.15064275 L1.48216274,5.3877228 C0.515246219,7.02296551 0,8.96941799 0,10.9771257 C0,16.5790156 4.44758226,21.2792648 9.96705599,21.735106 L10.590848,21.7866236 L16.4285847,11.929306 L7.777,12.234 L3.54038283,5.105215 Z M2.61289978,5.49475098 L2.70672842,5.66136008 L7.2212996,13.2545416 L14.6363636,12.9931143 L10.0493636,20.738499 C5.14428017,20.333399 1,16.1515984 1,10.9771257 C1,9.14214319 1.47037229,7.37238528 2.34294243,5.89670052 L2.4729511,5.68374167 C2.51509144,5.61686299 2.57122803,5.54927063 2.61289978,5.49475098 Z"/>
    <g fill-rule="nonzero">
      <use fill="#000" filter="url(#chromium-h)" xlink:href="#chromium-i"/>
      <use fill="url(#chromium-j)" xlink:href="#chromium-i"/>
    </g>
    <g fill-rule="nonzero">
      <use fill="#000" filter="url(#chromium-k)" xlink:href="#chromium-l"/>
      <use fill="url(#chromium-m)" xlink:href="#chromium-l"/>
    </g>
    <path fill="url(#chromium-n)" fill-rule="nonzero" d="M11.0000001,6.00000006 C8.23857628,6.00000006 6.00000006,8.23857628 6.00000006,11.0000001 C6.00000006,13.7614237 8.23857628,16.0000001 11.0000001,16.0000001 C13.7614237,16.0000001 16.0000001,13.7614237 16.0000001,11.0000001 C16.0000001,8.23857628 13.7614237,6.00000006 11.0000001,6.00000006 Z M11,7 C13.209139,7 15,8.790861 15,11 C15,13.209139 13.209139,15 11,15 C8.790861,15 7,13.209139 7,11 C7,8.790861 8.790861,7 11,7 Z"/>
  </g>
</svg>
