<svg xmlns="http://www.w3.org/2000/svg" xmlns:xlink="http://www.w3.org/1999/xlink" width="24" height="24" viewBox="0 0 24 24">
  <defs>
    <filter id="com.qq.im.deepin-a" width="123.8%" height="122.7%" x="-11.9%" y="-11.4%" filterUnits="objectBoundingBox">
      <feOffset in="SourceAlpha" result="shadowOffsetOuter1"/>
      <feGaussianBlur in="shadowOffsetOuter1" result="shadowBlurOuter1" stdDeviation=".5"/>
      <feColorMatrix in="shadowBlurOuter1" result="shadowMatrixOuter1" values="0 0 0 0 0   0 0 0 0 0   0 0 0 0 0  0 0 0 0.15 0"/>
      <feMerge>
        <feMergeNode in="shadowMatrixOuter1"/>
        <feMergeNode in="SourceGraphic"/>
      </feMerge>
    </filter>
    <linearGradient id="com.qq.im.deepin-b" x1="28.78%" x2="42.037%" y1="45.139%" y2="54.861%">
      <stop offset="0%" stop-color="#EACB69"/>
      <stop offset="100%" stop-color="#E2B55D"/>
    </linearGradient>
    <linearGradient id="com.qq.im.deepin-c" x1="50%" x2="50%" y1="0%" y2="100%">
      <stop offset="0%" stop-color="#CC9E45"/>
      <stop offset="100%" stop-color="#B07E42"/>
    </linearGradient>
    <radialGradient id="com.qq.im.deepin-d" cx="52.484%" cy="11.205%" r="95.397%" fx="52.484%" fy="11.205%" gradientTransform="matrix(0 .9308 -1 0 .637 -.376)">
      <stop offset="0%" stop-color="#3A3B53"/>
      <stop offset="100%" stop-color="#2A2B39"/>
    </radialGradient>
    <linearGradient id="com.qq.im.deepin-g" x1="50%" x2="50%" y1="0%" y2="100%">
      <stop offset="0%"/>
      <stop offset="100%"/>
    </linearGradient>
    <path id="com.qq.im.deepin-e" d="M0.163996947,17.8165883 C-0.115939572,17.6457821 -0.106359646,15.9605432 0.745088301,13.1630018 C1.21921511,11.6051974 2.69555006,9.77449181 2.69555006,8.24349606 C2.69555006,3.72286919 5.0488252,0 10.04255,0 C15.0362748,0 17.5870083,3.52342977 17.5967376,8.24349606 C17.5995926,9.62855353 18.3993306,11.2514807 18.9041931,12.3652441 C19.8096829,14.3628203 20.2995054,17.2393728 19.921103,17.8165883 C19.6305573,18.259787 18.8557689,17.550669 17.5967376,15.6892344 C17.0795073,18.0577543 15.9129433,19.6717363 14.0970457,20.5311804 C12.9480068,21.0750077 11.6033923,21.51262 10.04255,21.5394575 C7.79015728,21.5781856 5.49146182,20.6696064 4.46174881,19.3344898 C3.2995661,17.8276141 2.64177062,16.612529 2.48836237,15.6892344 C1.2293311,17.2847498 0.454542624,17.9938678 0.163996947,17.8165883 Z"/>
    <filter id="com.qq.im.deepin-f" width="105%" height="104.6%" x="-2.5%" y="-2.3%" filterUnits="objectBoundingBox">
      <feOffset dy="1" in="SourceAlpha" result="shadowOffsetInner1"/>
      <feComposite in="shadowOffsetInner1" in2="SourceAlpha" k2="-1" k3="1" operator="arithmetic" result="shadowInnerInner1"/>
      <feColorMatrix in="shadowInnerInner1" values="0 0 0 0 1   0 0 0 0 1   0 0 0 0 1  0 0 0 0.5 0"/>
    </filter>
    <linearGradient id="com.qq.im.deepin-h" x1="50%" x2="50%" y1="0%" y2="100%">
      <stop offset="0%" stop-opacity=".277"/>
      <stop offset="100%" stop-opacity=".721"/>
    </linearGradient>
    <linearGradient id="com.qq.im.deepin-i" x1="50%" x2="50%" y1="0%" y2="100%">
      <stop offset="0%" stop-color="#FFF"/>
      <stop offset="100%" stop-color="#EBEBEB"/>
    </linearGradient>
    <linearGradient id="com.qq.im.deepin-l" x1="22.901%" x2="38.121%" y1="41.472%" y2="57.754%">
      <stop offset="0%" stop-color="#D36867"/>
      <stop offset="100%" stop-color="#BF4852"/>
    </linearGradient>
    <path id="com.qq.im.deepin-k" d="M2.56160824,8.90829413 C4.15960947,9.5730922 7.71818456,9.83901143 10.6236413,9.70605182 C13.5290981,9.5730922 16.9661878,9.24516834 17.6867316,8.84443519 C17.805283,9.15619134 17.9297792,9.62437731 18.082439,10.1049307 C18.2413817,10.605262 18.4225782,11.0841606 18.543777,11.4740486 C18.153419,11.8626457 15.417645,12.3652441 14.2554623,12.4982037 C13.0932796,12.6311633 9.87990065,12.8970826 8.5724451,12.7641229 C8.5724451,13.2959614 8.5724451,14.3745871 8.5724451,16 L5,16 L5,12.4982037 C3.00790842,12.1862881 1.86658979,11.764411 1.57604411,11.2325726 C1.65055975,10.8915738 1.82746232,10.5162153 1.98527899,10.1049307 C2.13513564,9.7143906 2.38791193,9.2152708 2.56160824,8.90829413 Z"/>
    <filter id="com.qq.im.deepin-j" width="123.6%" height="155.9%" x="-11.8%" y="-14%" filterUnits="objectBoundingBox">
      <feOffset dy="1" in="SourceAlpha" result="shadowOffsetOuter1"/>
      <feGaussianBlur in="shadowOffsetOuter1" result="shadowBlurOuter1" stdDeviation=".5"/>
      <feColorMatrix in="shadowBlurOuter1" values="0 0 0 0 0   0 0 0 0 0   0 0 0 0 0  0 0 0 0.1 0"/>
    </filter>
  </defs>
  <g fill="none" fill-rule="evenodd" filter="url(#com.qq.im.deepin-a)" transform="translate(2 1)">
    <path fill="url(#com.qq.im.deepin-b)" stroke="url(#com.qq.im.deepin-c)" stroke-width=".5" d="M12.9010157,18.6090373 C13.0129242,18.6409543 15.3587371,19.3212972 16.8064656,19.9872583 C17.2130328,20.1742809 17.5507166,20.3624966 17.7578262,20.533488 C18.0140428,21.3812282 17.7193941,21.5338675 17.1574351,21.6282346 C16.7677604,21.6936708 16.2164731,21.7319793 15.5033844,21.7414784 C13.9811777,21.761756 11.7074683,21.652397 8.68227004,21.4126088 L8.68227004,21.4126088 Z"/>
    <path fill="url(#com.qq.im.deepin-b)" stroke="url(#com.qq.im.deepin-c)" stroke-width=".5" d="M5.5720017,18.6090373 C5.68391021,18.6409543 8.02972308,19.3212972 9.47745156,19.9872583 C9.88401875,20.1742809 10.2217026,20.3624966 10.4288122,20.533488 C10.6850288,21.3812282 10.3903801,21.5338675 9.82842107,21.6282346 C9.43874637,21.6936708 8.88745911,21.7319793 8.17437043,21.7414784 C6.65216364,21.761756 4.37845434,21.652397 1.35325603,21.4126088 L1.35325603,21.4126088 Z" transform="matrix(-1 0 0 1 12.572 0)"/>
    <use fill="url(#com.qq.im.deepin-d)" xlink:href="#com.qq.im.deepin-e"/>
    <use fill="#000" filter="url(#com.qq.im.deepin-f)" xlink:href="#com.qq.im.deepin-e"/>
    <path stroke="url(#com.qq.im.deepin-g)" stroke-linejoin="square" stroke-width=".5" d="M10.04255,0.25 C12.3657458,0.25 14.1457764,1.03306965 15.36441,2.36290174 C16.6824248,3.80118344 17.3418424,5.86889611 17.3467381,8.24401138 C17.3494262,9.54808944 18.0321691,11.0602961 18.5463899,12.1833873 C19.4840024,14.2500646 20.0247987,16.8680596 19.756814,17.5882751 C18.9126922,17.0865868 18.418238,16.4575701 17.8038175,15.5491704 C17.6825009,15.3698081 17.5695528,15.1988409 17.4649818,15.0364648 C17.4343131,15.2331432 17.3968113,15.4329557 17.3524936,15.6358972 C16.8548224,17.9148511 15.7403663,19.4768285 13.9900971,20.3052114 C12.8701418,20.8352737 11.5598274,21.2633321 10.0382521,21.2894944 C7.87350193,21.3267156 5.65216064,20.4686117 4.65971115,19.1818107 C3.53256734,17.7203662 2.88395919,16.5448879 2.73498136,15.6482579 C2.70325628,15.4573191 2.68888202,15.2470874 2.69158373,15.0176184 C2.5682265,15.1809638 2.43506016,15.353209 2.29210662,15.5343678 C1.67363528,16.3181295 1.17483542,16.8849255 0.794209354,17.23329 C0.239824192,17.0098966 0.255435793,16.6526789 0.311037765,16.2073985 C0.405376643,15.4518992 0.614657238,14.4501588 0.98425624,13.2357939 C1.16720552,12.6346906 1.50426924,11.9927458 1.84344323,11.3430468 C2.39644515,10.2837534 2.94555006,9.20473363 2.94555006,8.24349606 C2.94555006,5.93107874 3.57155221,3.82917087 4.88113428,2.35979088 C6.04989717,1.04841313 7.76297982,0.25 10.04255,0.25 Z"/>
    <path fill="#DEB162" d="M5.61072006,7.31613846 C5.61072006,8.04902315 8.57109748,8.84443519 10.1690987,8.84443519 C11.7670999,8.84443519 14.5362748,7.78149711 14.5362748,7.31613846 C14.5362748,6.85077981 12.4934641,6.66322106 10.1690987,6.66322106 C7.84473329,6.66322106 5.61072006,6.91725962 5.61072006,7.31613846 Z"/>
    <path fill="url(#com.qq.im.deepin-h)" fill-rule="nonzero" d="M10.4763692,6.16390975 L9.587778,6.16662398 C9.49324357,6.16777433 9.39990527,6.16922431 9.307793,6.17098593 L8.77007118,6.18539183 L8.26321025,6.20785507 L7.78864617,6.23895326 C6.10954385,6.36951669 5.11072006,6.68586696 5.11072006,7.31613846 C5.11072006,8.14660947 6.78700337,8.87229087 8.50193603,9.18322714 L8.93052669,9.25214131 C9.35802713,9.31205621 9.77941382,9.34443519 10.1690987,9.34443519 C11.9514609,9.34443519 15.0362748,8.22432814 15.0362748,7.31613846 C15.0362748,6.68087849 14.283277,6.377223 12.7945292,6.24742029 L12.3491672,6.21492822 C12.2716084,6.2102559 12.192385,6.20594373 12.1114988,6.20197469 L11.6062431,6.18214162 L11.0611701,6.16972585 L10.4763692,6.16390975 Z M10.6454067,6.66592689 L11.3372209,6.68040998 L11.9914584,6.7079351 L12.4009638,6.73382676 L12.7851026,6.76595888 L13.1404086,6.80450908 L13.4634155,6.84965496 C14.1257694,6.9547446 14.5362748,7.10752941 14.5362748,7.31613846 C14.5362748,7.47660696 14.2070031,7.70813128 13.7100222,7.94262672 L13.3930011,8.08313585 L13.0434849,8.22108998 C12.1355376,8.56005817 10.9956511,8.84443519 10.1690987,8.84443519 C9.90276517,8.84443519 9.59858785,8.82234041 9.27657949,8.78212279 L8.88289139,8.72541689 C8.81627716,8.71460082 8.74926989,8.70312338 8.68202969,8.69101636 L8.27707407,8.61107337 L7.87421289,8.51754553 C7.80767084,8.50091022 7.74153626,8.48377242 7.67596925,8.46616392 L7.29065892,8.35511858 C6.35081441,8.06465499 5.61072006,7.68258081 5.61072006,7.31613846 C5.61072006,7.16483959 5.9321417,7.03437981 6.45799729,6.93071848 L6.7643989,6.87686946 L7.10713045,6.82855074 L7.481973,6.78597724 L7.88470761,6.74936388 L8.31111535,6.71892557 L8.75697727,6.69487722 L9.21807443,6.67743374 L9.69018789,6.66681005 C9.7695571,6.66561969 9.84920954,6.66472244 9.92905731,6.66412279 L10.6454067,6.66592689 Z"/>
    <path fill="url(#com.qq.im.deepin-i)" d="M4.32941922,10.6439965 C3.28756981,14.5799104 4.03174796,20.9588055 10.1340088,20.9588055 C16.2362696,20.9588055 16.6827765,13.7655834 15.7897627,10.6439965 C15.3803465,10.2706555 13.0476245,10.7462824 10.5805157,10.6439965 C7.66639561,10.5231775 4.57121802,9.90901977 4.32941922,10.6439965 Z"/>
    <use fill="#000" filter="url(#com.qq.im.deepin-j)" xlink:href="#com.qq.im.deepin-k"/>
    <use fill="url(#com.qq.im.deepin-l)" xlink:href="#com.qq.im.deepin-k"/>
    <ellipse cx="12.137" cy="4.388" fill="#FFF" rx="1.392" ry="1.728"/>
    <ellipse cx="8.308" cy="4.388" fill="#FFF" rx="1.392" ry="1.728"/>
    <path fill="#34354A" d="M8.51718517 5.31838456C8.83811307 5.31838456 9.09827653 4.96121628 9.09827653 4.52062687 9.09827653 4.08003747 8.83811307 3.72286919 8.51718517 3.72286919 8.19625728 3.72286919 7.93609382 4.08003747 7.93609382 4.52062687 7.93609382 4.96121628 8.19625728 5.31838456 8.51718517 5.31838456zM11.259212 5.0738318C11.1902547 5.03057685 11.1413728 4.95888479 11.259212 4.78963395 11.3770511 4.62038311 11.7570982 4.3506619 12.260871 4.37699982 12.7646438 4.40333775 12.8711966 4.52097177 12.9473856 4.61718962 13.0349954 4.72783049 12.9551823 4.92123805 12.7419118 4.89470881 12.4847406 4.86271865 12.3417092 4.72399085 11.9959685 4.77016149 11.6502278 4.81633213 11.6015013 4.94521898 11.4297954 5.05630788 11.3930908 5.08005474 11.3281692 5.11708675 11.259212 5.0738318z"/>
  </g>
</svg>
