<svg xmlns="http://www.w3.org/2000/svg" xmlns:xlink="http://www.w3.org/1999/xlink" width="24" height="24" viewBox="0 0 24 24">
  <defs>
    <filter id="deepin-mail-a" width="133.3%" height="131.8%" x="-16.7%" y="-15.9%" filterUnits="objectBoundingBox">
      <feOffset in="SourceAlpha" result="shadowOffsetOuter1"/>
      <feGaussianBlur in="shadowOffsetOuter1" result="shadowBlurOuter1" stdDeviation=".5"/>
      <feColorMatrix in="shadowBlurOuter1" result="shadowMatrixOuter1" values="0 0 0 0 0   0 0 0 0 0   0 0 0 0 0  0 0 0 0.15 0"/>
      <feMerge>
        <feMergeNode in="shadowMatrixOuter1"/>
        <feMergeNode in="SourceGraphic"/>
      </feMerge>
    </filter>
    <linearGradient id="deepin-mail-b" x1="50%" x2="50%" y1="101.163%" y2="-1.163%">
      <stop offset="0%" stop-color="#DFDFDF"/>
      <stop offset="100%" stop-color="#FDFDFD"/>
    </linearGradient>
    <linearGradient id="deepin-mail-c" x1="50%" x2="50%" y1="65.875%" y2="98.085%">
      <stop offset="0%" stop-opacity=".22"/>
      <stop offset="100%" stop-opacity=".177"/>
    </linearGradient>
    <linearGradient id="deepin-mail-d" x1="50%" x2="50%" y1="81.013%" y2="1.473%">
      <stop offset="0%" stop-color="#89A8CB"/>
      <stop offset="100%" stop-color="#DAEBFD"/>
    </linearGradient>
    <radialGradient id="deepin-mail-e" cx="50%" cy="41.557%" r="41.557%" fx="50%" fy="41.557%" gradientTransform="matrix(0 -1 1.32077 0 -.049 .916)">
      <stop offset="0%" stop-color="#90B4DC"/>
      <stop offset="100%" stop-color="#6690BC"/>
    </radialGradient>
    <linearGradient id="deepin-mail-h" x1="125.314%" x2="125.314%" y1="69.996%" y2="-3.163%">
      <stop offset="0%" stop-opacity=".2"/>
      <stop offset="99.975%" stop-opacity=".08"/>
    </linearGradient>
    <path id="deepin-mail-f" d="M2.7965625,2.9221875 L15.4196875,2.9221875 C15.5237587,2.9221875 15.608125,3.00655384 15.608125,3.110625 L15.608125,14.9221875 L15.608125,14.9221875 L2.608125,14.9221875 L2.608125,3.110625 C2.608125,3.00655384 2.69249134,2.9221875 2.7965625,2.9221875 Z"/>
    <filter id="deepin-mail-g" width="161.5%" height="166.7%" x="-30.8%" y="-33.3%" filterUnits="objectBoundingBox">
      <feGaussianBlur in="SourceAlpha" result="shadowBlurInner1" stdDeviation="3.5"/>
      <feOffset dy="1" in="shadowBlurInner1" result="shadowOffsetInner1"/>
      <feComposite in="shadowOffsetInner1" in2="SourceAlpha" k2="-1" k3="1" operator="arithmetic" result="shadowInnerInner1"/>
      <feColorMatrix in="shadowInnerInner1" values="0 0 0 0 0   0 0 0 0 0   0 0 0 0 0  0 0 0 0.113581731 0"/>
    </filter>
    <linearGradient id="deepin-mail-i" x1="50%" x2="50%" y1="74.854%" y2="18.601%">
      <stop offset="0%" stop-color="#E0E0E0"/>
      <stop offset="100%" stop-color="#C9C9C9"/>
    </linearGradient>
    <path id="deepin-mail-j" d="M9.68678574,7.05211211 C9.94701361,7.23527399 10.2942364,7.23527399 10.5544643,7.05211211 L10.5544643,7.05211211 L20.115625,0.322470703 L20.115625,12.3896875 C20.115625,12.8059721 19.7781596,13.1434375 19.361875,13.1434375 L0.879375,13.1434375 C0.46309037,13.1434375 0.125625,12.8059721 0.125625,12.3896875 L0.125625,0.322470703 Z"/>
    <linearGradient id="deepin-mail-m" x1="50%" x2="50%" y1="0%" y2="38.945%">
      <stop offset="0%" stop-opacity="0"/>
      <stop offset="12.232%" stop-opacity=".064"/>
      <stop offset="100%" stop-opacity=".221"/>
    </linearGradient>
    <path id="deepin-mail-l" d="M9.68678574,7.05211211 C9.94701361,7.23527399 10.2942364,7.23527399 10.5544643,7.05211211 L10.5544643,7.05211211 L20.115625,0.322470703 L20.115625,12.3896875 C20.115625,12.8059721 19.7781596,13.1434375 19.361875,13.1434375 L0.879375,13.1434375 C0.46309037,13.1434375 0.125625,12.8059721 0.125625,12.3896875 L0.125625,0.322470703 Z"/>
    <filter id="deepin-mail-k" width="115%" height="123.4%" x="-7.5%" y="-11.7%" filterUnits="objectBoundingBox">
      <feOffset dy="1" in="SourceAlpha" result="shadowOffsetInner1"/>
      <feComposite in="shadowOffsetInner1" in2="SourceAlpha" k2="-1" k3="1" operator="arithmetic" result="shadowInnerInner1"/>
      <feColorMatrix in="shadowInnerInner1" values="0 0 0 0 1   0 0 0 0 1   0 0 0 0 1  0 0 0 0.5 0"/>
    </filter>
    <path id="deepin-mail-n" d="M20.116625,10.6001986 L20.116625,11.9351986 L19.115625,12.6434375 L19.115625,11.3091151 L20.116625,10.6001986 Z M20.116625,4.37419857 L20.116625,5.70819857 L19.115625,6.41659963 L19.115625,5.08227722 L20.116625,4.37419857 Z"/>
    <path id="deepin-mail-o" d="M1.114625,5.0389593 L1.114625,6.3729593 L0.115625,7.07836036 L0.115625,5.74403796 L1.114625,5.0389593 Z"/>
    <path id="deepin-mail-p" d="M20.116625,7.46167677 L20.116625,8.79667677 L19.115625,9.49768555 L19.115625,8.16336315 L20.116625,7.46167677 Z M20.116625,1.48167677 L20.116625,2.81667677 L19.115625,3.51675911 L19.115625,2.18243671 L20.116625,1.48167677 Z"/>
    <path id="deepin-mail-q" d="M1.126625,8.1184375 L1.126625,9.4534375 L0.115625,10.1594463 L0.115625,8.82512388 L1.126625,8.1184375 Z M1.126625,2.1374375 L1.126625,3.4724375 L0.115625,4.17851985 L0.115625,2.84419745 L1.126625,2.1374375 Z"/>
    <path id="deepin-mail-t" d="M10.6286219,11.8558277 L20.35125,19.1666411 L20.35125,19.1666411 L20.35125,19.2411396 C20.35125,19.6574242 20.0137846,19.9948896 19.5975,19.9948896 L0.75375,19.9948896 C0.33746537,19.9948896 8.64295424e-16,19.6574242 0,19.2411396 L0,19.1666411 L0,19.1666411 L9.72262814,11.8558277 C9.99093195,11.6540798 10.3603181,11.6540798 10.6286219,11.8558277 Z"/>
    <filter id="deepin-mail-r" width="109.8%" height="121.4%" x="-4.9%" y="-21.4%" filterUnits="objectBoundingBox">
      <feGaussianBlur in="SourceGraphic"/>
    </filter>
    <filter id="deepin-mail-s" width="119.7%" height="144.9%" x="-9.8%" y="-33.1%" filterUnits="objectBoundingBox">
      <feOffset dy="-1" in="SourceAlpha" result="shadowOffsetOuter1"/>
      <feGaussianBlur in="shadowOffsetOuter1" result="shadowBlurOuter1" stdDeviation=".5"/>
      <feColorMatrix in="shadowBlurOuter1" values="0 0 0 0 0   0 0 0 0 0   0 0 0 0 0  0 0 0 0.169361888 0"/>
    </filter>
    <linearGradient id="deepin-mail-u" x1="50%" x2="50%" y1="101.163%" y2="7.76%">
      <stop offset="0%" stop-color="#C3C8C9"/>
      <stop offset="100%" stop-color="#E5E9EA"/>
    </linearGradient>
    <path id="deepin-mail-v" d="M10.4010423,11.6712523 L20.115625,18.9760161 L20.115625,18.9760161 L20.115625,19.5708271 C20.115625,19.9871117 19.7781596,20.3245771 19.361875,20.3245771 L0.869375,20.3245771 C0.45309037,20.3245771 0.115625,19.9871117 0.115625,19.5708271 L0.115625,18.9760161 L0.115625,18.9760161 L9.48490091,11.6790183 C9.75348685,11.4698377 10.1289489,11.4666549 10.4010423,11.6712523 Z"/>
    <linearGradient id="deepin-mail-x" x1="50%" x2="50%" y1="1.947%" y2="100%">
      <stop offset="0%" stop-opacity=".05"/>
      <stop offset="100%" stop-opacity=".1"/>
    </linearGradient>
    <path id="deepin-mail-w" d="M10.4010423,11.6712523 L20.115625,18.9760161 L20.115625,18.9760161 L20.115625,19.5708271 C20.115625,19.9871117 19.7781596,20.3245771 19.361875,20.3245771 L0.869375,20.3245771 C0.45309037,20.3245771 0.115625,19.9871117 0.115625,19.5708271 L0.115625,18.9760161 L0.115625,18.9760161 L9.48490091,11.6790183 C9.75348685,11.4698377 10.1289489,11.4666549 10.4010423,11.6712523 Z"/>
  </defs>
  <g fill="none" fill-rule="evenodd" filter="url(#deepin-mail-a)" transform="translate(1.884 1.675)">
    <path fill="url(#deepin-mail-b)" fill-rule="nonzero" d="M0.115625,13.1547658 L0.115625,1.07832712 C0.115625,0.662042487 0.45309037,0.324577117 0.869375,0.324577117 L19.361875,0.324577117 C19.7781596,0.324577117 20.115625,0.662042487 20.115625,1.07832712 L20.115625,13.1547658 L20.115625,13.1547658 L10.5548259,20.0096784 C10.2922801,20.1979188 9.93896993,20.1979188 9.67642409,20.0096784 L0.115625,13.1547658 L0.115625,13.1547658 Z" transform="matrix(1 0 0 -1 0 20.65)"/>
    <path fill="url(#deepin-mail-c)" fill-rule="nonzero" d="M9.09373632,-0.173220223 L-0.467062773,6.68169233 C-0.729012718,6.8695055 -0.884375,7.1720663 -0.884375,7.49438844 L-0.884375,19.5708271 C-0.884375,20.5393965 -0.09919438,21.3245771 0.869375,21.3245771 L19.361875,21.3245771 C20.3304444,21.3245771 21.115625,20.5393965 21.115625,19.5708271 L21.115625,7.49438844 C21.115625,7.1720663 20.9602627,6.8695055 20.6983128,6.68169233 L11.1375137,-0.173220223 C10.5266483,-0.611199164 9.70460168,-0.611199164 9.09373632,-0.173220223 Z M9.67642409,0.639475882 C9.9061517,0.47476552 10.2053707,0.454176724 10.4524712,0.577709496 L10.5548259,0.639475882 L20.115625,7.49438844 L20.115625,19.5708271 C20.115625,19.9524214 19.8320603,20.2677855 19.4641544,20.3176963 L19.361875,20.3245771 L0.869375,20.3245771 C0.487780756,20.3245771 0.172416584,20.0410125 0.122505849,19.6731065 L0.115625,19.5708271 L0.115625,7.49438844 L9.67642409,0.639475882 Z"/>
    <g fill-rule="nonzero" transform="translate(1.508 .402)">
      <path fill="url(#deepin-mail-d)" d="M1.361875,0.9221875 L16.854375,0.9221875 C17.2706596,0.9221875 17.608125,1.25965287 17.608125,1.6759375 L17.608125,18.9221875 L17.608125,18.9221875 L0.608125,18.9221875 L0.608125,1.6759375 C0.608125,1.25965287 0.94559037,0.9221875 1.361875,0.9221875 Z"/>
      <use fill="url(#deepin-mail-e)" xlink:href="#deepin-mail-f"/>
      <use fill="#000" filter="url(#deepin-mail-g)" xlink:href="#deepin-mail-f"/>
      <path stroke="url(#deepin-mail-h)" stroke-linejoin="square" d="M14.9275919,3.42947952 L15.1002118,14.4221875 L3.108125,14.4221875 L3.108125,3.60332488 L14.9275919,3.42947952 Z"/>
      <path fill="#FFF" d="M8.81096062,9.9221875 C9.37665,9.9221875 9.88505437,9.8076175 10.3433344,9.58563813 C10.8159356,9.35649813 11.1739669,9.02710938 11.4245887,8.59747188 L10.923345,8.59747188 C10.7228475,8.88389688 10.4579044,9.10587625 10.1285156,9.27057063 C9.75616312,9.44958625 9.31220437,9.54267438 8.81096062,9.54267438 C8.10921937,9.54267438 7.55785125,9.3493375 7.15685625,8.976985 C6.72721875,8.58315063 6.51956062,8.02462188 6.51956062,7.30139875 C6.51956062,6.64262125 6.72721875,6.09125313 7.14969562,5.66161563 C7.57933312,5.2248175 8.12354062,5.00999875 8.78231812,5.00999875 C9.39813187,5.00999875 9.89937562,5.18901438 10.2717281,5.55420625 C10.6154381,5.89075563 10.7872931,6.3132325 10.7872931,6.82163688 C10.7872931,7.26559563 10.6584019,7.65226938 10.4006194,7.98165813 C10.17864,8.2609225 9.95666062,8.404135 9.73468125,8.404135 C9.59862937,8.404135 9.53418375,8.33968938 9.53418375,8.22511938 C9.53418375,8.13919188 9.56282625,7.99597938 9.62011125,7.78832125 L10.1285156,5.91939813 L9.663075,5.91939813 L9.55566562,6.32039313 C9.44109562,5.96236188 9.21195562,5.78334625 8.86824562,5.78334625 C8.43860812,5.78334625 8.07341625,5.9695225 7.75834875,6.35619625 C7.42896,6.74287 7.27142625,7.20831063 7.27142625,7.73819688 C7.27142625,8.04610375 7.36451437,8.30388625 7.55069062,8.50438375 C7.73686687,8.70488125 7.98032812,8.81229063 8.28107437,8.81229063 C8.63910562,8.81229063 8.93985187,8.64759625 9.18331312,8.32536813 C9.21195562,8.64043563 9.37665,8.79796938 9.67739625,8.79796938 C10.0497487,8.79796938 10.3934587,8.59747188 10.7085262,8.2036375 C11.0235937,7.78832125 11.1882881,7.33004125 11.1882881,6.81447625 C11.1882881,6.1986625 10.9877906,5.69025813 10.5867956,5.2821025 C10.1499975,4.83098313 9.55566562,4.60900375 8.81096062,4.60900375 C7.98748875,4.60900375 7.31439,4.87394688 6.78450375,5.41099375 C6.27609937,5.9122375 6.0254775,6.53521188 6.0254775,7.2870775 C6.0254775,8.0890675 6.27609937,8.72636313 6.78450375,9.21328563 C7.27858687,9.68588688 7.95168562,9.9221875 8.81096062,9.9221875 Z M8.3168775,8.38981375 C8.13786187,8.38981375 8.00181,8.33252875 7.90872187,8.21795875 C7.81563375,8.10338875 7.77267,7.95301563 7.77267,7.75967875 C7.77267,7.33720188 7.89440062,6.97917063 8.13786187,6.67842438 C8.36700187,6.37767813 8.63910562,6.23446563 8.9470125,6.23446563 C9.090225,6.23446563 9.204795,6.29175063 9.29788312,6.40632063 C9.37665,6.49940875 9.41961375,6.61397875 9.41961375,6.74287 C9.41961375,6.78583375 9.39097125,6.90040375 9.3480075,7.08658 L9.19047375,7.67375125 C9.13318875,7.8599275 9.01861875,8.0317825 8.84676375,8.174995 C8.67490875,8.3182075 8.49589312,8.38981375 8.3168775,8.38981375 Z"/>
    </g>
    <g transform="translate(0 7.181)">
      <use fill="url(#deepin-mail-i)" fill-rule="nonzero" xlink:href="#deepin-mail-j"/>
      <g fill-rule="nonzero" stroke-linejoin="round">
        <use fill="#000" filter="url(#deepin-mail-k)" xlink:href="#deepin-mail-l"/>
        <path stroke="url(#deepin-mail-m)" d="M-0.374375,-0.640889544 L9.69892013,6.44921863 L20.615625,-0.59523831 L20.615625,12.3896875 C20.615625,12.735901 20.4752943,13.0493385 20.2484101,13.2762226 C20.021526,13.5031068 19.7080885,13.6434375 19.361875,13.6434375 L19.361875,13.6434375 L0.879375,13.6434375 C0.533161497,13.6434375 0.219723997,13.5031068 -0.00716012691,13.2762226 C-0.234044251,13.0493385 -0.374375,12.735901 -0.374375,12.3896875 L-0.374375,12.3896875 L-0.374375,-0.640889544 Z"/>
      </g>
      <use fill="#D04B45" xlink:href="#deepin-mail-n"/>
      <use fill="#D04B45" xlink:href="#deepin-mail-o"/>
      <use fill="#5582B6" xlink:href="#deepin-mail-p"/>
      <use fill="#5582B6" xlink:href="#deepin-mail-q"/>
    </g>
    <g fill="#000" fill-rule="nonzero" filter="url(#deepin-mail-r)" transform="matrix(-1 0 0 1 20.351 0)">
      <use filter="url(#deepin-mail-s)" xlink:href="#deepin-mail-t"/>
    </g>
    <use fill="url(#deepin-mail-u)" fill-rule="nonzero" transform="matrix(-1 0 0 1 20.231 0)" xlink:href="#deepin-mail-v"/>
    <mask id="deepin-mail-y" fill="#fff">
      <use xlink:href="#deepin-mail-w"/>
    </mask>
    <path stroke="url(#deepin-mail-x)" d="M9.9805901,11.0203618 L10.1216489,11.0319826 L20.615625,18.7225492 L20.615625,19.5708271 C20.615625,19.9170406 20.4752943,20.2304781 20.2484101,20.4573622 C20.021526,20.6842464 19.7080885,20.8245771 19.361875,20.8245771 L19.361875,20.8245771 L0.869375,20.8245771 C0.523161497,20.8245771 0.209723997,20.6842464 -0.0171601269,20.4573622 C-0.244044251,20.2304781 -0.384375,19.9170406 -0.384375,19.5708271 L-0.384375,19.5708271 L-0.384375,18.7316756 L9.17767402,11.2845419 C9.45224478,11.0707001 9.79396442,10.9862843 10.1216489,11.0319826 Z"/>
    <g mask="url(#deepin-mail-y)">
      <g transform="translate(.584 19.034)">
        <polygon fill="#5582B6" points=".796 .29 2.057 .29 1.446 1.29 .185 1.29"/>
        <polygon fill="#D04B45" points="3.542 .29 4.803 .29 4.191 1.29 2.931 1.29"/>
        <polygon fill="#5582B6" points="6.288 .29 7.548 .29 6.937 1.29 5.676 1.29"/>
        <polygon fill="#D04B45" points="9.033 .29 10.294 .29 9.683 1.29 8.422 1.29"/>
        <polygon fill="#5582B6" points="11.779 .29 13.04 .29 12.428 1.29 11.168 1.29"/>
        <polygon fill="#D04B45" points="14.525 .29 15.786 .29 15.174 1.29 13.914 1.29"/>
        <polygon fill="#5582B6" points="17.271 .29 18.531 .29 17.92 1.29 16.659 1.29"/>
      </g>
    </g>
  </g>
</svg>
