<svg xmlns="http://www.w3.org/2000/svg" width="24" height="24" viewBox="0 0 24 24">
  <defs>
    <filter id="deepin-multitasking-view-a" width="122.7%" height="125%" x="-11.4%" y="-12.5%" filterUnits="objectBoundingBox">
      <feOffset in="SourceAlpha" result="shadowOffsetOuter1"/>
      <feGaussianBlur in="shadowOffsetOuter1" result="shadowBlurOuter1" stdDeviation=".5"/>
      <feColorMatrix in="shadowBlurOuter1" result="shadowMatrixOuter1" values="0 0 0 0 0   0 0 0 0 0   0 0 0 0 0  0 0 0 0.15 0"/>
      <feMerge>
        <feMergeNode in="shadowMatrixOuter1"/>
        <feMergeNode in="SourceGraphic"/>
      </feMerge>
    </filter>
    <linearGradient id="deepin-multitasking-view-b" x1="50%" x2="50%" y1="0%" y2="100%">
      <stop offset="0%" stop-color="#FFF"/>
      <stop offset="100%" stop-color="#C8C7CA"/>
    </linearGradient>
    <linearGradient id="deepin-multitasking-view-c" x1="50%" x2="50%" y1="0%" y2="100%">
      <stop offset="0%" stop-color="#BEBFC7"/>
      <stop offset="100%" stop-color="#87888D"/>
    </linearGradient>
    <radialGradient id="deepin-multitasking-view-d" cx="50%" cy="18.478%" r="81.522%" fx="50%" fy="18.478%" gradientTransform="matrix(0 1 -.84823 0 .657 -.315)">
      <stop offset="0%" stop-color="#6BB1DD"/>
      <stop offset="35.604%" stop-color="#60A0CE"/>
      <stop offset="100%" stop-color="#32639A"/>
    </radialGradient>
    <linearGradient id="deepin-multitasking-view-e" x1="50%" x2="50%" y1="-1.651%" y2="100%">
      <stop offset="0%" stop-color="#005392" stop-opacity=".557"/>
      <stop offset="100%" stop-color="#002D5B" stop-opacity=".855"/>
    </linearGradient>
    <linearGradient id="deepin-multitasking-view-f" x1="50%" x2="50%" y1="0%" y2="100%">
      <stop offset="0%" stop-color="#FFF"/>
      <stop offset="100%" stop-color="#FFF" stop-opacity=".6"/>
    </linearGradient>
  </defs>
  <g fill="none" fill-rule="evenodd" filter="url(#deepin-multitasking-view-a)" transform="translate(1 2)">
    <path fill="url(#deepin-multitasking-view-b)" fill-rule="nonzero" d="M2.5,1 L19.5,1 C20.3284271,1 21,1.67157288 21,2.5 L21,17.5 C21,18.3284271 20.3284271,19 19.5,19 L2.5,19 C1.67157288,19 1,18.3284271 1,17.5 L1,2.5 C1,1.67157288 1.67157288,1 2.5,1 Z"/>
    <path fill="url(#deepin-multitasking-view-c)" fill-rule="nonzero" d="M19.5,0 L2.5,0 C1.11928813,0 0,1.11928813 0,2.5 L0,17.5 C0,18.8807119 1.11928813,20 2.5,20 L19.5,20 C20.8807119,20 22,18.8807119 22,17.5 L22,2.5 C22,1.11928813 20.8807119,0 19.5,0 Z M19.5,1 C20.3284271,1 21,1.67157288 21,2.5 L21,17.5 C21,18.3284271 20.3284271,19 19.5,19 L2.5,19 C1.67157288,19 1,18.3284271 1,17.5 L1,2.5 C1,1.67157288 1.67157288,1 2.5,1 L19.5,1 Z"/>
    <path fill="url(#deepin-multitasking-view-d)" fill-rule="nonzero" d="M3.1,3 L18.9,3 C18.9552285,3 19,3.04477153 19,3.1 L19,16 L19,16 L3,16 L3,3.1 C3,3.04477153 3.04477153,3 3.1,3 Z"/>
    <path fill="url(#deepin-multitasking-view-e)" fill-rule="nonzero" d="M18.9,2 L3.1,2 C2.49248678,2 2,2.49248678 2,3.1 L2,17 L20,17 L20,3.1 C20,2.49248678 19.5075132,2 18.9,2 Z M18.9,3 C18.9552285,3 19,3.04477153 19,3.1 L19,16 L3,16 L3,3.1 C3,3.04477153 3.04477153,3 3.1,3 L18.9,3 Z"/>
    <g transform="translate(5.25 6)">
      <path fill="url(#deepin-multitasking-view-f)" fill-rule="nonzero" d="M10.2589948,4 C10.5301695,4 10.75,4.21505737 10.75,4.49047852 L10.75,7.50952148 C10.75,7.78040529 10.5221195,8 10.2589948,8 L5.24100518,8 C4.96983051,8 4.75,7.78494263 4.75,7.50952148 L4.75,4.49047852 C4.75,4.21959471 4.97788048,4 5.24100518,4 L10.2589948,4 Z M3.25461102,4 C3.5282068,4 3.75,4.21505737 3.75,4.49047852 L3.75,7.50952148 C3.75,7.78040529 3.5342474,8 3.25461102,8 L1.24538898,8 C0.971793203,8 0.75,7.78494263 0.75,7.50952148 L0.75,4.49047852 C0.75,4.21959471 0.965752602,4 1.24538898,4 L3.25461102,4 Z M11.25,-1.41553436e-14 C11.5261424,-1.41553436e-14 11.75,0.223857625 11.75,0.5 L11.75,2.5 C11.75,2.77614237 11.5261424,3 11.25,3 L8.25,3 C7.97385763,3 7.75,2.77614237 7.75,2.5 L7.75,0.5 C7.75,0.223857625 7.97385763,-1.41553436e-14 8.25,-1.41553436e-14 L11.25,-1.41553436e-14 Z M6.25899482,-2.83661983e-14 C6.53016949,-2.83661983e-14 6.75,0.215752602 6.75,0.495388985 L6.75,2.50461102 C6.75,2.7782068 6.52211952,3 6.25899482,3 L1.24100518,3 C0.969830508,3 0.75,2.7842474 0.75,2.50461102 L0.75,0.495388985 C0.75,0.221793203 0.977880478,-2.83661983e-14 1.24100518,-2.83661983e-14 L6.25899482,-2.83661983e-14 Z"/>
      <path fill="#004480" fill-opacity=".289" d="M1.25 0L6.25 0C6.52614237 0 6.75.223857625 6.75.5 6.75.776142375 6.52614237 1 6.25 1L1.25 1C.973857625 1 .75.776142375.75.5.75.223857625.973857625 0 1.25 0zM1.25 4L3.25 4C3.52614237 4 3.75 4.22385763 3.75 4.5 3.75 4.77614237 3.52614237 5 3.25 5L1.25 5C.973857625 5 .75 4.77614237.75 4.5.75 4.22385763.973857625 4 1.25 4zM5.25 4L10.25 4C10.5261424 4 10.75 4.22385763 10.75 4.5 10.75 4.77614237 10.5261424 5 10.25 5L5.25 5C4.97385763 5 4.75 4.77614237 4.75 4.5 4.75 4.22385763 4.97385763 4 5.25 4zM8.25 0L11.25 0C11.5261424 0 11.75.223857625 11.75.5 11.75.776142375 11.5261424 1 11.25 1L8.25 1C7.97385763 1 7.75.776142375 7.75.5 7.75.223857625 7.97385763 0 8.25 0z"/>
    </g>
  </g>
</svg>
