<svg xmlns="http://www.w3.org/2000/svg" width="24" height="24" viewBox="0 0 24 24">
  <defs>
    <filter id="security-center-a" width="138.9%" height="135%" x="-19.4%" y="-17.5%" filterUnits="objectBoundingBox">
      <feOffset in="SourceAlpha" result="shadowOffsetOuter1"/>
      <feGaussianBlur in="shadowOffsetOuter1" result="shadowBlurOuter1" stdDeviation=".5"/>
      <feColorMatrix in="shadowBlurOuter1" result="shadowMatrixOuter1" values="0 0 0 0 0   0 0 0 0 0   0 0 0 0 0  0 0 0 0.15 0"/>
      <feMerge>
        <feMergeNode in="shadowMatrixOuter1"/>
        <feMergeNode in="SourceGraphic"/>
      </feMerge>
    </filter>
    <linearGradient id="security-center-b" x1="52.273%" x2="52.273%" y1="-2.632%" y2="102.632%">
      <stop offset="0%" stop-color="#F0F0F0"/>
      <stop offset="100%" stop-color="#C8C8C8"/>
    </linearGradient>
    <linearGradient id="security-center-c" x1="61.364%" x2="61.364%" y1="1.264%" y2="102.632%">
      <stop offset="1.221%" stop-opacity=".207"/>
      <stop offset="100%" stop-opacity=".382"/>
    </linearGradient>
    <linearGradient id="security-center-d" x1="42.771%" x2="42.771%" y1="100%" y2="17.14%">
      <stop offset="0%" stop-color="#507855"/>
      <stop offset="100%" stop-color="#73CD7E"/>
    </linearGradient>
    <linearGradient id="security-center-e" x1="57.955%" x2="58.078%" y1="103.421%" y2="17.14%">
      <stop offset="0%" stop-color="#265E2D"/>
      <stop offset="100%" stop-color="#568359"/>
    </linearGradient>
    <linearGradient id="security-center-f" x1="51.574%" x2="56.368%" y1="106.242%" y2="11.386%">
      <stop offset="0%" stop-color="#1C6123" stop-opacity=".525"/>
      <stop offset="64.009%" stop-color="#509A59" stop-opacity=".044"/>
      <stop offset="100%" stop-color="#35C447" stop-opacity=".151"/>
    </linearGradient>
  </defs>
  <g fill="none" fill-rule="evenodd" filter="url(#security-center-a)" transform="translate(3 2)">
    <path fill="url(#security-center-b)" fill-rule="nonzero" d="M0,10.7191103 L0,3.10823472 L0.89479068,3.09373585 C0.913718051,3.09373585 2.91137771,3.05165734 4.97225133,2.22277682 C7.08615103,1.37201353 8.44965796,0.394941371 8.46249715,0.385528091 L9.04339203,0 L9.53529344,0.385528091 C9.54810807,0.394941347 10.9115905,1.3720135 13.0255393,2.22277682 C15.0866093,3.05165734 17.0840725,3.09373585 17.1052093,3.09373585 L17.9957775,3.10823472 L18,10.7191103 C18,15.2296032 12.1920615,20 9.04339203,20 C5.89671108,20 0,15.2296032 0,10.7191103 Z"/>
    <path fill="url(#security-center-c)" fill-rule="nonzero" d="M8.49041604,-0.833197188 L7.90952116,-0.447669096 L7.66820459,-0.283513702 L7.4372914,-0.136614499 L7.00366797,0.123548828 C6.28614279,0.539586934 5.47775964,0.941379608 4.59889293,1.29508964 C3.7755706,1.62622872 2.89448536,1.84864007 2.01916902,1.98019247 L1.68265242,2.0262336 L1.24993182,2.07227446 L0.953572554,2.09243078 L-0.0162015113,2.10836597 C-0.562097804,2.11721148 -1,2.56226676 -1,3.10823472 L-1,10.7191103 C-1,15.4083117 4.94539151,20.9999981 9.04339203,20.9999981 C13.1312705,20.9999981 19,15.4147828 19,10.7191103 L18.9957774,3.10767993 C18.9954746,2.56195787 18.5577057,2.11725065 18.0120559,2.10836722 L17.0574657,2.09252499 L16.7516767,2.07230822 L16.4723768,2.04459602 C16.4218712,2.03898694 16.3696027,2.0328744 16.3158932,2.02624596 L15.9789233,1.98018524 C15.1035285,1.84866463 14.2223545,1.62625124 13.3986571,1.29499287 C12.5200023,0.941376274 11.7116091,0.539582603 10.9940969,0.123549911 L10.7257885,-0.0352530465 L10.4940864,-0.177934142 L10.3069635,-0.297833903 L10.1273056,-0.420400951 L9.66025758,-0.787068547 C9.32100416,-1.05295866 8.84955247,-1.07154872 8.49041604,-0.833197188 Z M9.04339203,0 L9.5887664,0.42300442 L9.88680304,0.620295484 L10.1829238,0.804895491 L10.560981,1.02815982 L10.8560998,1.19403654 L11.1839756,1.37042788 L11.5431447,1.55466604 L11.9321434,1.74408321 L12.349508,1.93601159 C12.4213513,1.9680607 12.4943155,2.0001033 12.5683702,2.03208379 L13.0255393,2.22277682 C13.6880261,2.4892027 14.3439412,2.67433909 14.9297656,2.80291737 L15.3092343,2.88052865 L15.6637531,2.94301038 L16.1396012,3.01192718 L16.4134473,3.0437093 L16.7486818,3.07420983 L17.1052093,3.09373585 L17.9957775,3.10823472 L18,10.7191103 C18,15.2296032 12.1920615,20 9.04339203,20 C5.89671108,20 0,15.2296032 0,10.7191103 L0,3.10823472 L0.966663591,3.09137074 L1.25006854,3.07420983 L1.71712892,3.02909878 L2.16779116,2.96908653 L2.5081731,2.91355893 L2.87562086,2.84371598 C2.93888495,2.83079208 3.00310226,2.81720385 3.06818554,2.80291737 L3.4683787,2.70854814 C3.94576539,2.58804196 4.45703292,2.42999695 4.97225133,2.22277682 L5.4294107,2.03208379 C5.50346391,2.0001033 5.57642678,1.96806071 5.64826881,1.93601159 L6.06562701,1.74408322 L6.45462125,1.55466606 L6.8137877,1.3704279 L7.14166247,1.19403656 L7.43678171,1.02815984 L7.69768157,0.87546555 L8.11096764,0.620295499 L9.04339203,0 Z"/>
    <path fill="url(#security-center-d)" d="M8.999,3.589 L8.56414605,3.83563391 C7.80689165,4.2515989 6.98005146,4.64856322 6.09169674,5.00609175 C5.11576203,5.39861134 4.11216361,5.67282934 3.11282444,5.85325716 L3,5.871 L3,10.7191103 C3,11.7966433 3.7990004,13.2859896 5.17498649,14.6512097 L5.39700998,14.8656611 C6.78010343,16.1664715 8.38262343,17 9.04339203,17 C9.69689702,17 11.2725329,16.1737786 12.6342679,14.8778276 C14.0508786,13.5296518 14.9110022,12.0244096 14.9934734,10.895773 L15,10.7207747 L14.997,5.871 L14.8854079,5.8532927 C14.0525296,5.70295215 13.216635,5.487438 12.3959364,5.19247398 L11.9054864,5.00584737 C11.0176291,4.64852724 10.1908556,4.25159296 9.43360997,3.83563089 L8.999,3.589 Z"/>
    <path fill="url(#security-center-e)" fill-rule="nonzero" d="M8.5056594,2.71916378 L8.07080545,2.96579769 C7.332161,3.37143436 6.54076771,3.74740845 5.7183384,4.07840454 C4.84238675,4.43071106 3.91089962,4.69299904 2.93514994,4.86916785 L2.84464869,4.88314071 C2.35831771,4.9596214 2,5.37869205 2,5.871 L2,10.7191103 C2,12.1262558 2.94309126,13.8454691 4.47066228,15.3610881 L4.7022748,15.5849267 C6.16689375,16.962534 8.0017323,18 9.04339203,18 C10.0800896,18 11.8886513,16.9679008 13.3236609,15.6022151 C14.8781835,14.1227899 15.8858393,12.4052561 15.9908143,10.9686502 L15.9993053,10.7580439 L15.9969998,5.87038141 C15.9966957,5.37883184 15.6391938,4.96039133 15.1537181,4.88335662 L15.042126,4.86564932 C14.2547861,4.72330006 13.476384,4.51816795 12.734161,4.25140855 L12.2611298,4.07122564 C11.4568601,3.74735063 10.6655474,3.37140704 9.91506386,2.95915947 L9.49254553,2.71928004 C9.18651471,2.54561478 8.81173112,2.54557063 8.5056594,2.71916378 Z M8.999,3.589 L9.43360997,3.83563089 C10.0394065,4.16840055 10.6897008,4.48899241 11.3801696,4.78686628 L11.9054864,5.00584737 L12.3959364,5.19247398 C13.0524953,5.4284452 13.7187796,5.6135685 14.3854647,5.75515333 L14.8854079,5.8532927 L14.997,5.871 L15,10.7207747 L14.9934734,10.895773 C14.9110022,12.0244096 14.0508786,13.5296518 12.6342679,14.8778276 C11.2725329,16.1737786 9.69689702,17 9.04339203,17 C8.4140886,17 6.93058889,16.2439651 5.59596207,15.0482728 L5.39700998,14.8656611 L5.17498649,14.6512097 C3.87544408,13.3618351 3.09055864,11.9617431 3.00736008,10.9024203 L3,10.7191103 L3,5.871 L3.11282444,5.85325716 C4.11216361,5.67282934 5.11576203,5.39861134 6.09169674,5.00609175 C6.80238051,4.72006893 7.47369499,4.4088072 8.10150768,4.08276934 L8.56414605,3.83563391 L8.999,3.589 Z"/>
    <polygon fill="#FFF" fill-rule="nonzero" points="8.624 14.287 4.575 10.936 5.82 9.513 8.417 11.661 13.346 6.143 14.802 7.37" opacity=".7"/>
    <path fill="url(#security-center-f)" d="M8.999,3.589 L9,3.59 L9.0020523,16.9989753 C8.35099716,16.9676131 6.90217852,16.2185123 5.59596207,15.0482728 L5.39700998,14.8656611 L5.17498649,14.6512097 C3.7990004,13.2859896 3,11.7966433 3,10.7191103 L3,10.7191103 L3,5.871 L3.11282444,5.85325716 C4.11216361,5.67282934 5.11576203,5.39861134 6.09169674,5.00609175 C6.98005146,4.64856322 7.80689165,4.2515989 8.56414605,3.83563391 L8.56414605,3.83563391 L8.999,3.589 Z"/>
  </g>
</svg>
