<svg xmlns="http://www.w3.org/2000/svg" xmlns:xlink="http://www.w3.org/1999/xlink" width="24" height="24" viewBox="0 0 24 24">
  <defs>
    <linearGradient id="deepin-voice-recorder-a" x1="50%" x2="50%" y1="0%" y2="100%">
      <stop offset="0%" stop-color="#EEEDEF"/>
      <stop offset="100%" stop-color="#D5D4D6"/>
    </linearGradient>
    <path id="deepin-voice-recorder-b" d="M3.125,2 L20.875,2 C21.4963203,2 22,2.50367966 22,3.125 L22,20.875 C22,21.4963203 21.4963203,22 20.875,22 L3.125,22 C2.50367966,22 2,21.4963203 2,20.875 L2,3.125 C2,2.50367966 2.50367966,2 3.125,2 Z"/>
    <filter id="deepin-voice-recorder-c" width="105%" height="105%" x="-2.5%" y="-2.5%" filterUnits="objectBoundingBox">
      <feOffset dy="-1" in="SourceAlpha" result="shadowOffsetInner1"/>
      <feComposite in="shadowOffsetInner1" in2="SourceAlpha" k2="-1" k3="1" operator="arithmetic" result="shadowInnerInner1"/>
      <feColorMatrix in="shadowInnerInner1" values="0 0 0 0 0   0 0 0 0 0   0 0 0 0 0  0 0 0 0.202141608 0"/>
    </filter>
    <linearGradient id="deepin-voice-recorder-d" x1="50%" x2="50%" y1="0%" y2="100%">
      <stop offset="0%" stop-opacity=".213"/>
      <stop offset="100%" stop-opacity=".45"/>
    </linearGradient>
    <linearGradient id="deepin-voice-recorder-f" x1="50%" x2="50%" y1="-6.104%" y2="100%">
      <stop offset="0%" stop-color="#BEBDB9"/>
      <stop offset="100%" stop-color="#818181"/>
    </linearGradient>
    <path id="deepin-voice-recorder-e" d="M4.75,0.4375 L12.75,0.4375 C14.959139,0.4375 16.75,2.228361 16.75,4.4375 C16.75,6.646639 14.959139,8.4375 12.75,8.4375 L4.75,8.4375 C2.540861,8.4375 0.75,6.646639 0.75,4.4375 C0.75,2.228361 2.540861,0.4375 4.75,0.4375 Z"/>
    <linearGradient id="deepin-voice-recorder-g" x1="50%" x2="50%" y1="7.082%" y2="100%">
      <stop offset="0%" stop-color="#8D8D8D"/>
      <stop offset="100%" stop-color="#333"/>
    </linearGradient>
    <linearGradient id="deepin-voice-recorder-i" x1="50%" x2="50%" y1="-12.457%" y2="100%">
      <stop offset="0%" stop-color="#FFF"/>
      <stop offset="100%" stop-color="#E3E3E3"/>
    </linearGradient>
    <path id="deepin-voice-recorder-j" d="M4.75,3.4375 C5.30228475,3.4375 5.75,3.88521525 5.75,4.4375 C5.75,4.98978475 5.30228475,5.4375 4.75,5.4375 C4.19771525,5.4375 3.75,4.98978475 3.75,4.4375 C3.75,3.88521525 4.19771525,3.4375 4.75,3.4375 Z"/>
    <filter id="deepin-voice-recorder-k" width="300%" height="300%" x="-100%" y="-100%" filterUnits="objectBoundingBox">
      <feGaussianBlur in="SourceAlpha" result="shadowBlurInner1" stdDeviation="1"/>
      <feOffset dy="2" in="shadowBlurInner1" result="shadowOffsetInner1"/>
      <feComposite in="shadowOffsetInner1" in2="SourceAlpha" k2="-1" k3="1" operator="arithmetic" result="shadowInnerInner1"/>
      <feColorMatrix in="shadowInnerInner1" values="0 0 0 0 0   0 0 0 0 0   0 0 0 0 0  0 0 0 0.35041521 0"/>
    </filter>
    <linearGradient id="deepin-voice-recorder-l" x1="50%" x2="50%" y1="7.082%" y2="100%">
      <stop offset="0%" stop-color="#8F8F8F"/>
      <stop offset="100%" stop-color="#333"/>
    </linearGradient>
    <path id="deepin-voice-recorder-m" d="M13.75,3.4375 C14.3022847,3.4375 14.75,3.88521525 14.75,4.4375 C14.75,4.98978475 14.3022847,5.4375 13.75,5.4375 C13.1977153,5.4375 12.75,4.98978475 12.75,4.4375 C12.75,3.88521525 13.1977153,3.4375 13.75,3.4375 Z"/>
    <filter id="deepin-voice-recorder-n" width="300%" height="300%" x="-100%" y="-100%" filterUnits="objectBoundingBox">
      <feGaussianBlur in="SourceAlpha" result="shadowBlurInner1" stdDeviation="1"/>
      <feOffset dy="2" in="shadowBlurInner1" result="shadowOffsetInner1"/>
      <feComposite in="shadowOffsetInner1" in2="SourceAlpha" k2="-1" k3="1" operator="arithmetic" result="shadowInnerInner1"/>
      <feColorMatrix in="shadowInnerInner1" values="0 0 0 0 0   0 0 0 0 0   0 0 0 0 0  0 0 0 0.35041521 0"/>
    </filter>
    <path id="deepin-voice-recorder-o" d="M6.5,2 C6.77614237,2 7,2.22385763 7,2.5 C7,2.77614237 6.77614237,3 6.5,3 C6.22385763,3 6,2.77614237 6,2.5 C6,2.22385763 6.22385763,2 6.5,2 Z M4.5,2 C4.77614237,2 5,2.22385763 5,2.5 C5,2.77614237 4.77614237,3 4.5,3 C4.22385763,3 4,2.77614237 4,2.5 C4,2.22385763 4.22385763,2 4.5,2 Z M2.5,2 C2.77614237,2 3,2.22385763 3,2.5 C3,2.77614237 2.77614237,3 2.5,3 C2.22385763,3 2,2.77614237 2,2.5 C2,2.22385763 2.22385763,2 2.5,2 Z M0.5,2 C0.776142375,2 1,2.22385763 1,2.5 C1,2.77614237 0.776142375,3 0.5,3 C0.223857625,3 -2.22044605e-16,2.77614237 0,2.5 C0,2.22385763 0.223857625,2 0.5,2 Z M10.5,2 C10.7761424,2 11,2.22385763 11,2.5 C11,2.77614237 10.7761424,3 10.5,3 C10.2238576,3 10,2.77614237 10,2.5 C10,2.22385763 10.2238576,2 10.5,2 Z M8.5,2 C8.77614237,2 9,2.22385763 9,2.5 C9,2.77614237 8.77614237,3 8.5,3 C8.22385763,3 8,2.77614237 8,2.5 C8,2.22385763 8.22385763,2 8.5,2 Z M14.5,2 C14.7761424,2 15,2.22385763 15,2.5 C15,2.77614237 14.7761424,3 14.5,3 C14.2238576,3 14,2.77614237 14,2.5 C14,2.22385763 14.2238576,2 14.5,2 Z M12.5,2 C12.7761424,2 13,2.22385763 13,2.5 C13,2.77614237 12.7761424,3 12.5,3 C12.2238576,3 12,2.77614237 12,2.5 C12,2.22385763 12.2238576,2 12.5,2 Z M6.5,0 C6.77614237,5.07265313e-17 7,0.223857625 7,0.5 C7,0.776142375 6.77614237,1 6.5,1 C6.22385763,1 6,0.776142375 6,0.5 C6,0.223857625 6.22385763,-5.07265313e-17 6.5,0 Z M4.5,0 C4.77614237,5.07265313e-17 5,0.223857625 5,0.5 C5,0.776142375 4.77614237,1 4.5,1 C4.22385763,1 4,0.776142375 4,0.5 C4,0.223857625 4.22385763,-5.07265313e-17 4.5,0 Z M2.5,0 C2.77614237,5.07265313e-17 3,0.223857625 3,0.5 C3,0.776142375 2.77614237,1 2.5,1 C2.22385763,1 2,0.776142375 2,0.5 C2,0.223857625 2.22385763,-5.07265313e-17 2.5,0 Z M0.5,0 C0.776142375,5.07265313e-17 1,0.223857625 1,0.5 C1,0.776142375 0.776142375,1 0.5,1 C0.223857625,1 -2.22044605e-16,0.776142375 0,0.5 C0,0.223857625 0.223857625,-5.07265313e-17 0.5,0 Z M10.5,0 C10.7761424,5.07265313e-17 11,0.223857625 11,0.5 C11,0.776142375 10.7761424,1 10.5,1 C10.2238576,1 10,0.776142375 10,0.5 C10,0.223857625 10.2238576,-5.07265313e-17 10.5,0 Z M8.5,0 C8.77614237,5.07265313e-17 9,0.223857625 9,0.5 C9,0.776142375 8.77614237,1 8.5,1 C8.22385763,1 8,0.776142375 8,0.5 C8,0.223857625 8.22385763,-5.07265313e-17 8.5,0 Z M14.5,0 C14.7761424,5.07265313e-17 15,0.223857625 15,0.5 C15,0.776142375 14.7761424,1 14.5,1 C14.2238576,1 14,0.776142375 14,0.5 C14,0.223857625 14.2238576,-5.07265313e-17 14.5,0 Z M12.5,0 C12.7761424,5.07265313e-17 13,0.223857625 13,0.5 C13,0.776142375 12.7761424,1 12.5,1 C12.2238576,1 12,0.776142375 12,0.5 C12,0.223857625 12.2238576,-5.07265313e-17 12.5,0 Z"/>
    <filter id="deepin-voice-recorder-p" width="113.3%" height="166.7%" x="-6.7%" y="-33.3%" filterUnits="objectBoundingBox">
      <feGaussianBlur in="SourceAlpha" result="shadowBlurInner1" stdDeviation=".5"/>
      <feOffset dy="1" in="shadowBlurInner1" result="shadowOffsetInner1"/>
      <feComposite in="shadowOffsetInner1" in2="SourceAlpha" k2="-1" k3="1" operator="arithmetic" result="shadowInnerInner1"/>
      <feColorMatrix in="shadowInnerInner1" values="0 0 0 0 0   0 0 0 0 0   0 0 0 0 0  0 0 0 0.639149913 0"/>
    </filter>
    <linearGradient id="deepin-voice-recorder-q" x1="50%" x2="50%" y1="0%" y2="100%">
      <stop offset="0%" stop-color="#9C9C9C"/>
      <stop offset="100%" stop-color="#696969"/>
    </linearGradient>
    <linearGradient id="deepin-voice-recorder-r" x1="50%" x2="50%" y1="0%" y2="100%">
      <stop offset="0%" stop-color="#FF9393"/>
      <stop offset="100%" stop-color="#A41E1E"/>
    </linearGradient>
    <linearGradient id="deepin-voice-recorder-s" x1="50%" x2="50%" y1="0%" y2="100%">
      <stop offset="0%" stop-color="#9C9C9C"/>
      <stop offset="100%" stop-color="#696969"/>
    </linearGradient>
  </defs>
  <g fill="none" fill-rule="evenodd">
    <use fill="url(#deepin-voice-recorder-a)" xlink:href="#deepin-voice-recorder-b"/>
    <use fill="#000" filter="url(#deepin-voice-recorder-c)" xlink:href="#deepin-voice-recorder-b"/>
    <path fill="url(#deepin-voice-recorder-d)" fill-rule="nonzero" d="M20.875,1 L3.125,1 C1.95139491,1 1,1.95139491 1,3.125 L1,20.875 C1,22.0486051 1.95139491,23 3.125,23 L20.875,23 C22.0486051,23 23,22.0486051 23,20.875 L23,3.125 C23,1.95139491 22.0486051,1 20.875,1 Z M20.875,2 C21.4963203,2 22,2.50367966 22,3.125 L22,20.875 C22,21.4963203 21.4963203,22 20.875,22 L3.125,22 C2.50367966,22 2,21.4963203 2,20.875 L2,3.125 C2,2.50367966 2.50367966,2 3.125,2 L20.875,2 Z"/>
    <g transform="translate(3.25 2.563)">
      <mask id="deepin-voice-recorder-h" fill="#fff">
        <use xlink:href="#deepin-voice-recorder-e"/>
      </mask>
      <use fill="url(#deepin-voice-recorder-f)" xlink:href="#deepin-voice-recorder-e"/>
      <circle cx="4.75" cy="4.438" r="4" fill="url(#deepin-voice-recorder-g)" mask="url(#deepin-voice-recorder-h)"/>
      <path fill="url(#deepin-voice-recorder-i)" fill-rule="nonzero" d="M4.75,2.4375 C3.6454305,2.4375 2.75,3.3329305 2.75,4.4375 C2.75,5.5420695 3.6454305,6.4375 4.75,6.4375 C5.8545695,6.4375 6.75,5.5420695 6.75,4.4375 C6.75,3.3329305 5.8545695,2.4375 4.75,2.4375 Z" mask="url(#deepin-voice-recorder-h)"/>
      <g mask="url(#deepin-voice-recorder-h)">
        <use fill="#A09CAC" xlink:href="#deepin-voice-recorder-j"/>
        <use fill="#000" filter="url(#deepin-voice-recorder-k)" xlink:href="#deepin-voice-recorder-j"/>
      </g>
      <circle cx="13.75" cy="4.438" r="4" fill="url(#deepin-voice-recorder-l)" mask="url(#deepin-voice-recorder-h)"/>
      <path fill="url(#deepin-voice-recorder-i)" fill-rule="nonzero" d="M13.75,2.4375 C12.6454305,2.4375 11.75,3.3329305 11.75,4.4375 C11.75,5.5420695 12.6454305,6.4375 13.75,6.4375 C14.8545695,6.4375 15.75,5.5420695 15.75,4.4375 C15.75,3.3329305 14.8545695,2.4375 13.75,2.4375 Z" mask="url(#deepin-voice-recorder-h)"/>
      <g mask="url(#deepin-voice-recorder-h)">
        <use fill="#A09CAC" xlink:href="#deepin-voice-recorder-m"/>
        <use fill="#000" filter="url(#deepin-voice-recorder-n)" xlink:href="#deepin-voice-recorder-m"/>
      </g>
    </g>
    <g transform="translate(4 13)">
      <use fill="#D1D1D1" xlink:href="#deepin-voice-recorder-o"/>
      <use fill="#000" filter="url(#deepin-voice-recorder-p)" xlink:href="#deepin-voice-recorder-o"/>
    </g>
    <polygon fill="url(#deepin-voice-recorder-q)" points="11 18 13 18 13 20 11 20"/>
    <circle cx="7" cy="19" r="1" fill="url(#deepin-voice-recorder-r)"/>
    <path fill="url(#deepin-voice-recorder-s)" d="M16,17.9375 L16,20.0625 C16,20.1142767 16.0419733,20.15625 16.09375,20.15625 C16.1140347,20.15625 16.1337722,20.1496708 16.15,20.1375 L17.5666667,19.075 C17.608088,19.043934 17.6164827,18.9851714 17.5854167,18.94375 C17.5800866,18.9366432 17.5737734,18.9303301 17.5666667,18.925 L16.15,17.8625 C16.1085786,17.831434 16.049816,17.8398286 16.01875,17.88125 C16.0065792,17.8974778 16,17.9172153 16,17.9375 Z"/>
  </g>
</svg>
