<?xml version="1.0" encoding="UTF-8"?>
<svg width="24px" height="24px" viewBox="0 0 24 24" version="1.1" xmlns="http://www.w3.org/2000/svg" xmlns:xlink="http://www.w3.org/1999/xlink">
    <title>deepin-home</title>
    <defs>
        <filter x="-6.8%" y="-6.8%" width="113.6%" height="113.6%" filterUnits="objectBoundingBox" id="filter-1">
            <feOffset dx="0" dy="0" in="SourceAlpha" result="shadowOffsetOuter1"></feOffset>
            <feGaussianBlur stdDeviation="0.5" in="shadowOffsetOuter1" result="shadowBlurOuter1"></feGaussianBlur>
            <feColorMatrix values="0 0 0 0 0   0 0 0 0 0   0 0 0 0 0  0 0 0 0.15 0" type="matrix" in="shadowBlurOuter1" result="shadowMatrixOuter1"></feColorMatrix>
            <feMerge>
                <feMergeNode in="shadowMatrixOuter1"></feMergeNode>
                <feMergeNode in="SourceGraphic"></feMergeNode>
            </feMerge>
        </filter>
        <linearGradient x1="50%" y1="0%" x2="50%" y2="98.1385523%" id="linearGradient-2">
            <stop stop-color="#F6F6F6" offset="0%"></stop>
            <stop stop-color="#E8E8E8" offset="100%"></stop>
        </linearGradient>
        <path d="M3,1 L19,1 C20.1045695,1 21,1.8954305 21,3 L21,19 C21,20.1045695 20.1045695,21 19,21 L3,21 C1.8954305,21 1,20.1045695 1,19 L1,3 C1,1.8954305 1.8954305,1 3,1 Z" id="path-3"></path>
        <filter x="-2.5%" y="-2.5%" width="105.0%" height="105.0%" filterUnits="objectBoundingBox" id="filter-4">
            <feOffset dx="0" dy="-1" in="SourceAlpha" result="shadowOffsetInner1"></feOffset>
            <feComposite in="shadowOffsetInner1" in2="SourceAlpha" operator="arithmetic" k2="-1" k3="1" result="shadowInnerInner1"></feComposite>
            <feColorMatrix values="0 0 0 0 0   0 0 0 0 0   0 0 0 0 0  0 0 0 0.101016171 0" type="matrix" in="shadowInnerInner1"></feColorMatrix>
        </filter>
        <linearGradient x1="100%" y1="13.5620326%" x2="13.4852153%" y2="81.7847163%" id="linearGradient-5">
            <stop stop-color="#66B0D1" offset="0%"></stop>
            <stop stop-color="#4869A0" offset="100%"></stop>
        </linearGradient>
        <linearGradient x1="0%" y1="10.7339248%" x2="94.8275503%" y2="78.6429689%" id="linearGradient-6">
            <stop stop-color="#A1E9C5" offset="0%"></stop>
            <stop stop-color="#4FADBD" offset="100%"></stop>
        </linearGradient>
        <linearGradient x1="100%" y1="32.9780418%" x2="12.9632361%" y2="67.5894878%" id="linearGradient-7">
            <stop stop-color="#3A6FA7" offset="0%"></stop>
            <stop stop-color="#4494BB" offset="100%"></stop>
        </linearGradient>
        <linearGradient x1="50%" y1="-57.5073038%" x2="50%" y2="147.589253%" id="linearGradient-8">
            <stop stop-color="#FFFFFF" offset="0%"></stop>
            <stop stop-color="#FFFFFF" stop-opacity="0.558416193" offset="100%"></stop>
        </linearGradient>
        <linearGradient x1="50%" y1="0%" x2="50%" y2="100%" id="linearGradient-9">
            <stop stop-color="#000000" stop-opacity="0.202933785" offset="0%"></stop>
            <stop stop-color="#000000" stop-opacity="0.403791521" offset="100%"></stop>
        </linearGradient>
    </defs>
    <g id="deepin-home" stroke="none" stroke-width="1" fill="none" fill-rule="evenodd">
        <g id="编组-2" filter="url(#filter-1)" transform="translate(1, 1)">
            <g id="矩形">
                <use fill="url(#linearGradient-2)" fill-rule="evenodd" xlink:href="#path-3"></use>
                <use fill="black" fill-opacity="1" filter="url(#filter-4)" xlink:href="#path-3"></use>
            </g>
            <path d="M3.5,4 L15.5,4 C15.7761424,4 16,4.22385763 16,4.5 L16,12.5 C16,12.7761424 15.7761424,13 15.5,13 L6.29041607,13 C6.17229833,13 6.05799446,13.0418166 5.96776173,13.118039 L3.82265434,14.9300782 C3.61170313,15.1082753 3.29623611,15.0817228 3.11803904,14.8707716 C3.04181663,14.7805388 3,14.666235 3,14.5481172 L3,4.5 C3,4.22385763 3.22385763,4 3.5,4 Z" id="矩形" fill="url(#linearGradient-5)" fill-rule="nonzero"></path>
            <path d="M7.5,7 L18.5,7 C18.7761424,7 19,7.22385763 19,7.5 L19,15.5 C19,15.7761424 18.7761424,16 18.5,16 L10.2639782,16 C10.1620941,16 10.0626415,16.0311249 9.97893503,16.0892076 L7.78504321,17.6115192 C7.55816886,17.7689442 7.24663266,17.7126444 7.08920764,17.4857701 C7.03112489,17.4020637 7,17.302611 7,17.2007269 L7,7.5 C7,7.22385763 7.22385763,7 7.5,7 Z" id="矩形" fill="url(#linearGradient-6)" fill-rule="nonzero" transform="translate(13, 12.5781) scale(-1, 1) translate(-13, -12.5781)"></path>
            <path d="M16,7 L16,12.5 C16,12.7761424 15.7761424,13 15.5,13 L7,13 L7,7.5 C7,7.25454011 7.17687516,7.05039163 7.41012437,7.00805567 L7.5,7 L16,7 Z" id="形状结合" fill="url(#linearGradient-7)" fill-rule="nonzero"></path>
            <polygon id="路径-11" fill="url(#linearGradient-8)" fill-rule="nonzero" points="15 9 15 11 14 11 14 10 13 10 13 9"></polygon>
            <path d="M19,0 L3,0 C1.34314575,0 0,1.34314575 0,3 L0,19 C0,20.6568542 1.34314575,22 3,22 L19,22 C20.6568542,22 22,20.6568542 22,19 L22,3 C22,1.34314575 20.6568542,0 19,0 Z M19,1 C20.1045695,1 21,1.8954305 21,3 L21,19 C21,20.1045695 20.1045695,21 19,21 L3,21 C1.8954305,21 1,20.1045695 1,19 L1,3 C1,1.8954305 1.8954305,1 3,1 L19,1 Z" id="矩形备份-3" fill="url(#linearGradient-9)" fill-rule="nonzero"></path>
        </g>
    </g>
</svg>