<svg xmlns="http://www.w3.org/2000/svg" width="24" height="24" viewBox="0 0 24 24">
  <defs>
    <filter id="gnome-mime-application-x-deb-a" width="122.9%" height="123.8%" x="-11.4%" y="-11.9%" filterUnits="objectBoundingBox">
      <feOffset in="SourceAlpha" result="shadowOffsetOuter1"/>
      <feGaussianBlur in="shadowOffsetOuter1" result="shadowBlurOuter1" stdDeviation=".5"/>
      <feColorMatrix in="shadowBlurOuter1" result="shadowMatrixOuter1" values="0 0 0 0 0   0 0 0 0 0   0 0 0 0 0  0 0 0 0.15 0"/>
      <feMerge>
        <feMergeNode in="shadowMatrixOuter1"/>
        <feMergeNode in="SourceGraphic"/>
      </feMerge>
    </filter>
    <linearGradient id="gnome-mime-application-x-deb-b" x1="12.793%" x2="22.658%" y1="0%" y2="50%">
      <stop offset="0%" stop-color="#F8F8F8"/>
      <stop offset="100%" stop-color="#DCDCDC"/>
    </linearGradient>
    <linearGradient id="gnome-mime-application-x-deb-c" x1="50%" x2="50%" y1="0%" y2="100%">
      <stop offset="0%" stop-opacity=".187"/>
      <stop offset="100%" stop-opacity=".532"/>
    </linearGradient>
    <linearGradient id="gnome-mime-application-x-deb-d" x1="47.895%" x2="47.895%" y1="-1.471%" y2="87.506%">
      <stop offset="0%" stop-color="#DC5D56"/>
      <stop offset="100%" stop-color="#9A201A"/>
    </linearGradient>
    <linearGradient id="gnome-mime-application-x-deb-e" x1="47.674%" x2="47.674%" y1="8.742%" y2="107.537%">
      <stop offset="0%" stop-color="#F6D8BF"/>
      <stop offset="9.441%" stop-color="#F0D6B7"/>
      <stop offset="100%" stop-color="#B58163"/>
    </linearGradient>
    <linearGradient id="gnome-mime-application-x-deb-f" x1="52.326%" x2="52.326%" y1="-1.31%" y2="108.02%">
      <stop offset="0%" stop-color="#B6957F"/>
      <stop offset="100%" stop-color="#8D664F"/>
    </linearGradient>
    <linearGradient id="gnome-mime-application-x-deb-g" x1="47.674%" x2="47.674%" y1="-1.31%" y2="107.633%">
      <stop offset="0%" stop-color="#E6C5AA"/>
      <stop offset="100%" stop-color="#B58463"/>
    </linearGradient>
    <linearGradient id="gnome-mime-application-x-deb-h" x1="52.326%" x2="52.326%" y1="-1.31%" y2="108.02%">
      <stop offset="0%" stop-color="#B6957F"/>
      <stop offset="100%" stop-color="#8D664F"/>
    </linearGradient>
  </defs>
  <g fill="none" filter="url(#gnome-mime-application-x-deb-a)" transform="translate(1.076 1)">
    <g transform="translate(2.924)">
      <path fill="url(#gnome-mime-application-x-deb-b)" d="M9.96530411,1.28352379 C6.25528122,0.198522519 2.36894475,2.32565001 1.28350055,6.03565434 C0.198493854,9.74522117 2.32606948,13.6319757 6.03609237,14.716977 C9.74524026,15.8019783 13.6324517,13.6748508 14.7170209,9.96528393 C15.8020276,6.2548421 13.674452,2.36852506 9.96530411,1.28352379 L9.96530411,1.28352379 Z"/>
      <path fill="url(#gnome-mime-application-x-deb-c)" d="M0.323712924,5.75492722 C-0.916367101,9.99467961 1.51537769,14.4367744 5.75539834,15.6767743 C9.99482035,16.9168915 14.437333,14.4854063 15.676839,10.2459068 C16.9167632,6.00568713 14.485474,1.56385947 10.2460591,0.323744326 C6.08743221,-0.892451809 1.73499373,1.4227229 0.398829236,5.51225919 L0.323712924,5.75492722 Z M1.28350055,6.03565434 C2.36894475,2.32565001 6.25528122,0.198522519 9.96530411,1.28352379 C13.674452,2.36852506 15.8020276,6.2548421 14.7170209,9.96528393 C13.6324517,13.6748508 9.74524026,15.8019783 6.03609237,14.716977 C2.32606948,13.6319757 0.198493854,9.74522117 1.28350055,6.03565434 Z"/>
      <path fill="url(#gnome-mime-application-x-deb-d)" d="M11.0839023,6.34731728 L11.0000204,6.52389975 C11.1241121,6.1511992 11.052628,5.74531272 11.0700526,5.39436605 L11.035539,5.38515338 C11.0051585,4.50245886 10.2370412,3.56427008 9.55381058,3.24673082 C8.96451461,2.97647283 8.05767356,2.92996862 7.63882248,3.1337441 C7.69645621,3.08302209 7.92621037,3.06171229 7.85696041,3.02264426 C7.20098331,3.08735075 7.34763686,3.24994943 6.8446803,3.37747574 C6.70685012,3.5098854 7.2472244,3.27137031 6.95648566,3.4428482 C6.68674542,3.51687775 6.56108964,3.3962327 6.16133819,3.80722466 C6.19696859,3.86426938 6.41510608,3.63807746 6.23315699,3.86516071 C5.85741971,3.81898949 5.04652344,4.71922032 4.87429171,5.01755833 L4.96431683,5.03287544 C4.81654596,5.40102564 4.62197579,5.63576698 4.59572763,5.85619087 C4.55741684,6.39837159 4.36686723,7.38717155 4.63135782,7.69083719 L4.60566832,7.94444679 C4.64185717,8.01647862 4.66944551,8.08962025 4.71445819,8.1574345 L4.65570711,8.16209683 C4.93393609,9.03458062 4.9545997,8.17830139 5.32218357,9.0844145 C5.26879373,9.06654522 5.21495745,9.0470112 5.13733055,8.94290348 C5.12794829,9.02237172 5.25047608,9.26088681 5.39578945,9.44701516 L5.33424645,9.51682712 C5.41522418,9.66322147 5.48994739,9.69529713 5.54612917,9.74613022 C5.24366289,9.58208873 5.8267041,10.2867571 5.87931173,10.3765471 L5.92577638,10.2941933 C5.91896317,10.4126184 6.01111002,10.56545 6.1837884,10.7769949 L6.32765003,10.7713338 C6.38684775,10.887983 6.60353325,11.0979733 6.73499714,11.107963 L6.64754108,11.2212827 C6.97748391,11.3250572 6.80782124,11.3589089 7.21326928,11.5015295 L7.131398,11.3577991 C7.3382546,11.5361581 7.40214334,11.6920976 7.69399893,11.8288359 C8.09877697,11.969015 8.15238992,11.9134094 8.56766709,12.0315016 C8.21560868,12.0217347 7.80178325,12.0252863 7.52344273,11.9261732 C5.62442651,11.4151803 3.88714312,9.20150704 4.01402685,6.92135154 C3.98488488,6.45974885 4.06026817,5.88293938 3.9829759,5.76806602 C4.09143088,5.41667529 4.21730951,4.98848026 4.47029566,4.47881926 C4.45197801,4.44463458 4.51195727,4.57859833 4.64051674,4.36072707 C4.718479,4.19058113 4.78225619,4.00312083 4.88043492,3.83763653 L4.93103238,3.82598299 C4.98162961,3.53374943 5.61683133,3.0859093 5.80581741,2.86049079 L5.81877312,2.94661815 C6.23125767,2.56226363 6.96631389,2.30465858 7.38013886,2.12108286 C7.27146122,2.24072893 7.62363117,2.1093187 7.87728775,2.09400159 C7.79731488,2.13839723 7.71778911,2.17313661 7.64284281,2.22541251 C7.94731947,2.15315853 7.93279933,2.25504615 8.24397787,2.21420234 C8.13474158,2.22985177 8.00215993,2.27302606 8.02327133,2.28934192 C8.3709736,2.32929785 8.42414012,2.1825705 8.74592933,2.28911977 L8.72560222,2.19455725 C9.17271163,2.35482522 9.26631113,2.32763289 9.75217868,2.58379535 C9.92251156,2.59211874 9.93971233,2.47935487 10.1971664,2.58357343 C10.2425139,2.66259738 10.1868903,2.67735889 10.5034306,2.86437514 C10.5385021,2.85039067 10.4403234,2.76159961 10.3626962,2.69089953 C10.9987922,3.02874986 11.6900644,3.7490676 11.9010538,4.51988547 C11.7033557,4.15828354 11.8807253,4.70434886 11.8127037,4.67582479 C11.9008302,4.91167618 11.9728728,5.15551866 12.0175504,5.40713032 C11.9589111,5.20080221 11.831692,4.70246198 11.6085277,4.38114922 C11.5902099,4.58847652 11.3205814,4.23786263 11.4680169,4.6944709 C11.5801574,4.85629274 11.4906909,4.53042918 11.6291911,4.81789048 C11.6314251,4.95451771 11.6838094,5.09025727 11.7143017,5.26817237 C11.6669435,5.26051428 11.6085277,5.07138901 11.5740147,5.12410874 C11.6219308,5.34797338 11.7008984,5.46473429 11.7308324,5.4819369 C11.7155303,5.51945104 11.6755438,5.44697539 11.6727516,5.59925205 C11.691293,5.94975511 11.7716005,5.80191657 11.8098,5.81856612 C11.7711539,5.99115383 11.615788,6.19404166 11.692633,6.49093686 C11.6706296,6.4009249 11.627404,6.31046889 11.5949011,6.22522943 C11.5647439,6.47872797 11.6514185,6.52811802 11.5335814,6.83522441 C11.6184687,6.55841812 11.6093097,6.30847094 11.5292253,6.428783 C11.5647439,6.82234951 11.2157012,7.1244615 11.2536772,7.37352053 L11.1522589,7.23478428 C10.8776041,7.63034874 11.1457811,7.45265554 10.9590289,7.75243659 C11.0276085,7.63467739 10.9230634,7.70393421 11.0123068,7.5705256 C10.9529977,7.57385527 10.747928,7.82102767 10.560059,7.96642304 C9.82221087,8.55410924 8.94139441,8.63102438 8.08850118,8.31459517 C8.05532806,8.34156537 8.24062797,8.48596199 8.3774526,8.55577395 C8.70225823,8.6750875 9.06961832,8.67985952 9.35890507,8.66920473 C8.73375536,8.92902964 7.54053219,8.40549502 7.15016229,7.7109268 C7.23828878,7.73001674 7.54086706,8.19927775 7.76749372,8.27530523 C7.63357303,8.16875573 7.53003283,8.03312746 7.43397605,7.8936144 C7.61491982,8.10016466 7.83473306,8.26886779 8.07487432,8.38052254 C8.05968418,8.32258627 8.14122058,8.31093249 8.0277397,8.23479418 C7.30474659,7.68417828 6.87740655,7.21636032 7.02584717,6.13310868 C7.13597723,6.05031101 7.16546443,5.59847522 7.41833879,5.44031603 C7.57247621,5.10168911 8.03455336,4.78992222 8.52835075,4.78193 C9.03220129,4.75462681 9.45764248,5.0495243 9.67120071,5.32766231 C9.28239481,4.9670596 8.6456291,4.85762449 8.10246291,5.12466388 C7.54712205,5.37316777 7.21784896,5.98083204 7.26587713,6.58583237 C7.28642849,6.55586526 7.30485721,6.57451137 7.31468728,6.49992693 C7.29771007,7.67596505 8.59022908,8.53801574 9.52063768,8.10293919 L9.53158323,8.12746785 C9.90899649,8.0250253 9.86029788,7.94067373 10.1070292,7.77241444 C10.0878179,7.81181545 9.94082897,7.91269429 10.0285086,7.91459122 C10.1484675,7.88284854 10.5230882,7.53634113 10.7076061,7.37352053 C10.7921582,7.19227551 10.6623703,7.27551726 10.7804307,7.04754613 L10.9248505,6.97618028 C11.0051583,6.74576736 11.0939554,6.61546627 11.0839023,6.34731728 Z"/>
    </g>
    <path fill="url(#gnome-mime-application-x-deb-e)" d="M2.92435005,7.00025159 L18.9243501,7.00025159 L18.9243501,19.2502516 C18.9243501,19.6644652 18.5885636,20.0002516 18.1743501,20.0002516 L3.67435005,20.0002516 C3.26013649,20.0002516 2.92435005,19.6644652 2.92435005,19.2502516 L2.92435005,7.00025159 L2.92435005,7.00025159 Z"/>
    <text fill="#906052" font-family="SourceHanSansSC-Medium, Source Han Sans SC" font-size="4" font-weight="400" letter-spacing="-.107">
      <tspan x="4.612" y="17.361">Debian</tspan>
    </text>
    <path fill="url(#gnome-mime-application-x-deb-f)" d="M18.9243501,6.00025159 L2.92435005,6.00025159 C2.3720653,6.00025159 1.92435005,6.44796684 1.92435005,7.00025159 L1.92435005,19.2502516 C1.92435005,20.2167499 2.70785174,21.0002516 3.67435005,21.0002516 L18.1743501,21.0002516 C19.1408484,21.0002516 19.9243501,20.2167499 19.9243501,19.2502516 L19.9243501,7.00025159 C19.9243501,6.44796684 19.4766348,6.00025159 18.9243501,6.00025159 Z M18.9243501,7.00025159 L18.9243501,19.2502516 C18.9243501,19.6644652 18.5885636,20.0002516 18.1743501,20.0002516 L3.67435005,20.0002516 C3.26013649,20.0002516 2.92435005,19.6644652 2.92435005,19.2502516 L2.92435005,7.00025159 L18.9243501,7.00025159 Z"/>
    <path fill="url(#gnome-mime-application-x-deb-g)" d="M2.57343538,7.00025159 L19.2752647,7.00025159 C19.435175,7.00025159 19.5774927,7.10165604 19.6297091,7.25280083 L20.8384223,10.7515262 C20.8722361,10.8494033 20.8203026,10.9561599 20.7224255,10.9899738 C20.7027299,10.9967781 20.6820379,11.0002516 20.6612001,11.0002516 L1.1875,11.0002516 C1.08394661,11.0002516 1,10.916305 1,10.8127516 C1,10.7919138 1.00347354,10.7712218 1.01027782,10.7515262 L2.21899101,7.25280083 C2.27120737,7.10165604 2.4135251,7.00025159 2.57343538,7.00025159 Z"/>
    <path fill="url(#gnome-mime-application-x-deb-h)" d="M19.2752647,6.00025159 L2.57343538,6.00025159 C1.98709769,6.00025159 1.46526602,6.37206789 1.27380603,6.92626547 L0.0650928302,10.4249908 C0.0219990946,10.5497294 0,10.6807789 0,10.8127516 C0,11.4685897 0.53166186,12.0002516 1.1875,12.0002516 L20.6612001,12.0002516 C20.7931727,12.0002516 20.9242223,11.9782525 21.0489608,11.9351588 C21.6688492,11.7210044 21.9977616,11.0448792 21.7836073,10.4249908 L20.5748941,6.92626547 C20.3834341,6.37206789 19.8616024,6.00025159 19.2752647,6.00025159 Z M19.2752647,7.00025159 C19.435175,7.00025159 19.5774927,7.10165604 19.6297091,7.25280083 L20.8384223,10.7515262 C20.8722361,10.8494033 20.8203026,10.9561599 20.7224255,10.9899738 C20.7027299,10.9967781 20.6820379,11.0002516 20.6612001,11.0002516 L1.1875,11.0002516 C1.08394661,11.0002516 1,10.916305 1,10.8127516 C1,10.7919138 1.00347354,10.7712218 1.01027782,10.7515262 L2.21899101,7.25280083 C2.27120737,7.10165604 2.4135251,7.00025159 2.57343538,7.00025159 L19.2752647,7.00025159 Z"/>
  </g>
</svg>
