<svg xmlns="http://www.w3.org/2000/svg" xmlns:xlink="http://www.w3.org/1999/xlink" width="24" height="24" viewBox="0 0 24 24">
  <defs>
    <filter id="com.163.music-a" width="135%" height="135.6%" x="-17.5%" y="-17.5%" filterUnits="objectBoundingBox">
      <feOffset in="SourceAlpha" result="shadowOffsetOuter1"/>
      <feGaussianBlur in="shadowOffsetOuter1" result="shadowBlurOuter1" stdDeviation=".5"/>
      <feColorMatrix in="shadowBlurOuter1" result="shadowMatrixOuter1" values="0 0 0 0 0   0 0 0 0 0   0 0 0 0 0  0 0 0 0.15 0"/>
      <feMerge>
        <feMergeNode in="shadowMatrixOuter1"/>
        <feMergeNode in="SourceGraphic"/>
      </feMerge>
    </filter>
    <linearGradient id="com.163.music-b" x1="47.895%" x2="47.895%" y1="2.355%" y2="101.471%">
      <stop offset="0%" stop-color="#DF736D"/>
      <stop offset="100%" stop-color="#901F19"/>
    </linearGradient>
    <path id="com.163.music-c" d="M1.875,0 L18.125,0 C19.1605339,0 20,0.839466094 20,1.875 L20,18.125 C20,19.1605339 19.1605339,20 18.125,20 L1.875,20 C0.839466094,20 0,19.1605339 0,18.125 L0,1.875 C0,0.839466094 0.839466094,0 1.875,0 Z"/>
    <filter id="com.163.music-d" width="105%" height="105%" x="-2.5%" y="-2.5%" filterUnits="objectBoundingBox">
      <feOffset dy="1" in="SourceAlpha" result="shadowOffsetInner1"/>
      <feComposite in="shadowOffsetInner1" in2="SourceAlpha" k2="-1" k3="1" operator="arithmetic" result="shadowInnerInner1"/>
      <feColorMatrix in="shadowInnerInner1" values="0 0 0 0 1   0 0 0 0 1   0 0 0 0 1  0 0 0 0.5 0"/>
    </filter>
    <linearGradient id="com.163.music-g" x1="47.895%" x2="47.895%" y1="-1.471%" y2="101.471%">
      <stop offset="0%" stop-color="#BC3C34"/>
      <stop offset="100%" stop-color="#5F1B19"/>
    </linearGradient>
    <path id="com.163.music-f" d="M1.875,0 L18.125,0 C19.1605339,0 20,0.839466094 20,1.875 L20,18.125 C20,19.1605339 19.1605339,20 18.125,20 L1.875,20 C0.839466094,20 0,19.1605339 0,18.125 L0,1.875 C0,0.839466094 0.839466094,0 1.875,0 Z"/>
    <filter id="com.163.music-e" width="115%" height="115%" x="-7.5%" y="-7.5%" filterUnits="objectBoundingBox">
      <feOffset dy="1" in="SourceAlpha" result="shadowOffsetInner1"/>
      <feComposite in="shadowOffsetInner1" in2="SourceAlpha" k2="-1" k3="1" operator="arithmetic" result="shadowInnerInner1"/>
      <feColorMatrix in="shadowInnerInner1" values="0 0 0 0 1   0 0 0 0 1   0 0 0 0 1  0 0 0 0.5 0"/>
    </filter>
    <path id="com.163.music-i" d="M7.66516035,5.21002836 C5.60894697,6.1054141 4.36312638,7.95089784 3.99854556,9.49710923 C3.63396475,11.0433206 3.86874907,12.1916877 4.16040375,13.0615081 C4.37881178,13.7128804 4.70596809,14.322624 5.12134881,14.8364189 C5.65643113,15.4982758 6.2363716,15.9639666 6.59561555,16.2179629 C7.19808785,16.643929 8.32082953,17.1719505 9.67403773,17.2554952 C10.8625226,17.3288701 12.1579894,17.0925626 13.4641408,16.2632252 C15.0690737,15.2441773 15.7563884,13.7132541 15.8958949,12.4076195 C15.9440422,11.9570106 15.9037559,11.1088763 15.6856948,10.3946281 C15.6856948,10.3946281 15.6856948,10.3946281 15.6856948,10.3946281 C15.1982833,8.79813702 13.8202669,7.63563864 12.1644857,7.42411423 L11.8913993,7.38922959 L11.8913993,7.38922959 L11.5020573,7.38922959 C11.0306157,7.38924137 10.5627441,7.47098683 10.1192326,7.63084534 C9.86945878,7.72087337 9.64418072,7.82651544 9.44339838,7.94777154 C8.8087619,8.33104004 8.43900452,8.82953113 8.30594497,9.01449763 C7.62922913,9.95520241 7.6133023,11.1792045 8.11790576,12.057309 C8.61039278,12.9143285 9.57829989,13.4800129 10.7382168,13.1680407 C12.2176763,12.7701241 12.5783912,11.3556325 12.1286773,9.75666815 C11.6789635,8.15770385 11.1801103,6.3135072 11.1043977,5.98954376 C11.0955026,5.95148309 11.0817579,5.89679854 11.0631635,5.82549013 C10.8826562,5.13333667 11.2193246,4.41055613 11.865306,4.10336347 C12.5335234,3.78559656 13.3312174,3.94603825 13.8246167,4.49744333 L13.8561848,4.53272273 L13.8561848,4.53272273"/>
    <filter id="com.163.music-h" width="171.8%" height="160.7%" x="-35.9%" y="-21.7%" filterUnits="objectBoundingBox">
      <feMorphology in="SourceAlpha" operator="dilate" radius=".844" result="shadowSpreadOuter1"/>
      <feOffset dy="1" in="shadowSpreadOuter1" result="shadowOffsetOuter1"/>
      <feMorphology in="SourceAlpha" radius="1" result="shadowInner"/>
      <feOffset dy="1" in="shadowInner" result="shadowInner"/>
      <feComposite in="shadowOffsetOuter1" in2="shadowInner" operator="out" result="shadowOffsetOuter1"/>
      <feGaussianBlur in="shadowOffsetOuter1" result="shadowBlurOuter1" stdDeviation="1"/>
      <feColorMatrix in="shadowBlurOuter1" values="0 0 0 0 0   0 0 0 0 0   0 0 0 0 0  0 0 0 0.1 0"/>
    </filter>
  </defs>
  <g fill="none" fill-rule="evenodd" filter="url(#com.163.music-a)" transform="translate(2 2)">
    <g fill-rule="nonzero">
      <use fill="url(#com.163.music-b)" xlink:href="#com.163.music-c"/>
      <use fill="#000" filter="url(#com.163.music-d)" xlink:href="#com.163.music-c"/>
    </g>
    <g fill-rule="nonzero" stroke-linejoin="round">
      <use fill="#000" filter="url(#com.163.music-e)" xlink:href="#com.163.music-f"/>
      <path stroke="url(#com.163.music-g)" d="M18.125,-0.5 C18.7808381,-0.5 19.3745881,-0.23416907 19.8043786,0.195621395 C20.2341691,0.62541186 20.5,1.21916186 20.5,1.875 L20.5,1.875 L20.5,18.125 C20.5,18.7808381 20.2341691,19.3745881 19.8043786,19.8043786 C19.3745881,20.2341691 18.7808381,20.5 18.125,20.5 L18.125,20.5 L1.875,20.5 C1.21916186,20.5 0.62541186,20.2341691 0.195621395,19.8043786 C-0.23416907,19.3745881 -0.5,18.7808381 -0.5,18.125 L-0.5,18.125 L-0.5,1.875 C-0.5,1.21916186 -0.23416907,0.62541186 0.195621395,0.195621395 C0.62541186,-0.23416907 1.21916186,-0.5 1.875,-0.5 L1.875,-0.5 Z"/>
    </g>
    <path stroke="#712E2A" stroke-linecap="round" stroke-linejoin="round" stroke-width="1.688" d="M7.66516035,5.62140532 C5.60894697,6.51679106 4.36312638,8.36227479 3.99854556,9.90848619 C3.63396475,11.4546976 3.86874907,12.6030646 4.16040375,13.4728851 C4.37881178,14.1242573 4.70596809,14.734001 5.12134881,15.2477959 C5.65643113,15.9096527 6.2363716,16.3753436 6.59561555,16.6293399 C7.19808785,17.055306 8.32082953,17.5833275 9.67403773,17.6668721 C10.8625226,17.740247 12.1579894,17.5039395 13.4641408,16.6746022 C15.0690737,15.6555543 15.7563884,14.124631 15.8958949,12.8189964 C15.9440422,12.3683876 15.9037559,11.5202533 15.6856948,10.8060051 C15.6856948,10.8060051 15.6856948,10.8060051 15.6856948,10.8060051 C15.1982833,9.20951398 13.8202669,8.04701559 12.1644857,7.83549118 L11.8913993,7.80060654 L11.8913993,7.80060654 L11.5020573,7.80060654 C11.0306157,7.80061832 10.5627441,7.88236378 10.1192326,8.0422223 C9.86945878,8.13225032 9.64418072,8.23789239 9.44339838,8.35914849 C8.8087619,8.74241699 8.43900452,9.24090808 8.30594497,9.42587458 C7.62922913,10.3665794 7.6133023,11.5905815 8.11790576,12.4686859 C8.61039278,13.3257055 9.57829989,13.8913899 10.7382168,13.5794177 C12.2176763,13.181501 12.5783912,11.7670094 12.1286773,10.1680451 C11.6789635,8.5690808 11.1801103,6.72488415 11.1043977,6.40092071 C11.0955026,6.36286004 11.0817579,6.3081755 11.0631635,6.23686708 C10.8826562,5.54471362 11.2193246,4.82193308 11.865306,4.51474042 C12.5335234,4.19697351 13.3312174,4.3574152 13.8246167,4.90882028 L13.8561848,4.94409968 L13.8561848,4.94409968"/>
    <g stroke-linecap="round" stroke-linejoin="round">
      <use fill="#000" filter="url(#com.163.music-h)" xlink:href="#com.163.music-i"/>
      <use stroke="#FFF" stroke-width="1.688" xlink:href="#com.163.music-i"/>
    </g>
  </g>
</svg>
