<svg xmlns="http://www.w3.org/2000/svg" xmlns:xlink="http://www.w3.org/1999/xlink" width="24" height="24" viewBox="0 0 24 24">
  <defs>
    <filter id="org.deepin.browser-a" width="133.5%" height="127.4%" x="-16.8%" y="-13.7%" filterUnits="objectBoundingBox">
      <feOffset in="SourceAlpha" result="shadowOffsetOuter1"/>
      <feGaussianBlur in="shadowOffsetOuter1" result="shadowBlurOuter1" stdDeviation=".5"/>
      <feColorMatrix in="shadowBlurOuter1" result="shadowMatrixOuter1" values="0 0 0 0 0   0 0 0 0 0   0 0 0 0 0  0 0 0 0.15 0"/>
      <feMerge>
        <feMergeNode in="shadowMatrixOuter1"/>
        <feMergeNode in="SourceGraphic"/>
      </feMerge>
    </filter>
    <radialGradient id="org.deepin.browser-b" cx="43.349%" cy="37.544%" r="81.05%" fx="43.349%" fy="37.544%" gradientTransform="matrix(.15065 .98859 -.97682 .14886 .735 -.109)">
      <stop offset="0%" stop-color="#C6E2FF"/>
      <stop offset="100%" stop-color="#316297"/>
      <stop offset="100%"/>
    </radialGradient>
    <radialGradient id="org.deepin.browser-c" cx="50%" cy="22.004%" r="87.601%" fx="50%" fy="22.004%" gradientTransform="scale(.94444 1) rotate(13.391 .515 .345)">
      <stop offset="0%" stop-color="#779CC6"/>
      <stop offset="50%" stop-color="#1D436F"/>
      <stop offset="100%" stop-color="#15304F"/>
    </radialGradient>
    <linearGradient id="org.deepin.browser-d" x1="50%" x2="50%" y1=".124%" y2="114.522%">
      <stop offset="0%" stop-color="#FFF"/>
      <stop offset="100%" stop-color="#E9ECF2"/>
      <stop offset="100%" stop-color="#B2D0E0"/>
      <stop offset="100%" stop-color="#FFF"/>
    </linearGradient>
    <path id="org.deepin.browser-e" d="M20.605394,1.76985157 C21.9274359,3.47380798 18.4492746,8.18518917 12.8367034,12.293016 C7.22413212,16.4008428 1.60251744,18.3495648 0.280475556,16.6456084 C-0.372709231,15.8037301 0.145873112,14.2277158 1.51470925,12.3530751 C1.55209308,12.3018774 1.59011109,12.2504569 1.62875673,12.1988226 C1.63501359,12.1904629 1.64443587,12.1779107 1.65702356,12.161166 C1.67610933,12.1316677 1.69373722,12.104559 1.70990722,12.0798399 C1.79902428,12.3462369 1.90037398,12.605483 2.01272669,12.8582153 C1.989572,12.8963796 1.96736137,12.9313745 1.95645729,12.949993 C1.2441399,14.1662642 1.0440066,15.1653789 1.49997067,15.753063 C2.65675731,17.2440248 7.59841958,15.5222428 12.5374823,11.9073552 C17.476545,8.29246766 20.5426855,4.15335884 19.3858989,2.66239698 C18.941707,2.0898858 17.9556932,2.01309973 16.5718481,2.32881161 C16.5566822,2.33227158 16.5240148,2.34017209 16.487014,2.34921417 C16.2755718,2.16018722 16.0567724,1.98038855 15.8300767,1.81106106 C15.9247079,1.77703507 16.0313762,1.73851389 16.0521015,1.73165049 C18.242622,1.00623404 19.9663821,0.946240442 20.605394,1.76985157 Z"/>
    <filter id="org.deepin.browser-f" width="119.2%" height="124.9%" x="-9.6%" y="-12.4%" filterUnits="objectBoundingBox">
      <feGaussianBlur in="SourceAlpha" result="shadowBlurInner1" stdDeviation="1.5"/>
      <feOffset dy="1" in="shadowBlurInner1" result="shadowOffsetInner1"/>
      <feComposite in="shadowOffsetInner1" in2="SourceAlpha" k2="-1" k3="1" operator="arithmetic" result="shadowInnerInner1"/>
      <feColorMatrix in="shadowInnerInner1" values="0 0 0 0 1   0 0 0 0 1   0 0 0 0 1  0 0 0 0.5 0"/>
    </filter>
    <linearGradient id="org.deepin.browser-g" x1="50%" x2="50%" y1="0%" y2="100%">
      <stop offset="0%" stop-opacity=".05"/>
      <stop offset="100%" stop-opacity=".07"/>
    </linearGradient>
  </defs>
  <g fill="none" filter="url(#org.deepin.browser-a)" transform="translate(1.5 3.012)">
    <path fill="url(#org.deepin.browser-b)" d="M11.4600007,18.1906336 C16.4651788,17.5706193 20.0289979,13.0116093 19.4200135,8.00779961 C18.8110292,3.00398997 14.2598513,-0.54977834 9.25467323,0.0702359445 C4.24949517,0.690250229 0.685676026,5.2492603 1.29466039,10.25307 C1.90364475,15.2568796 6.45482262,18.8106479 11.4600007,18.1906336 L11.4600007,18.1906336 Z"/>
    <path fill="url(#org.deepin.browser-c)" d="M8.09864527,0.635726263 L7.91941944,0.886271435 L7.56581139,0.940310599 L7.26548689,1.08769022 L7.10563673,1.1662925 L7.06688524,1.22033167 L6.85859561,1.27437083 L6.71327735,1.55439205 L6.56311502,1.24980756 C6.54375244,1.25983414 6.52426443,1.26911158 6.50498771,1.27928361 L6.47592406,1.35297326 L6.51467555,1.75581068 L6.22403888,1.99653061 L6.05450088,2.42884392 L6.40810877,2.42884392 L6.53889528,2.14391008 L6.58249084,2.04074453 C6.7320602,1.93251782 6.87577798,1.82068423 7.0281336,1.71650954 L7.38174165,1.83932574 C7.61287905,1.99998217 7.83341031,2.14561617 8.0647377,2.30602757 L8.41834559,1.99653061 L8.03567405,1.83932574 L7.86613605,1.47578962 L7.19767175,1.39718718 L7.18313909,1.31367212 L7.47377576,1.36771129 L7.64331376,1.2055938 L7.98723382,1.12699136 C8.07499064,1.08331398 8.16012775,1.05418995 8.24880684,1.01891303 L8.02598545,1.24489494 L8.82523627,1.79511198 L8.82523627,2.11934696 L8.51037986,2.44358194 L8.93180304,3.28855792 L9.20790781,3.12644043 L9.54698395,2.56148552 C10.0404268,2.40540266 10.4864727,2.22623411 10.9517277,2.01126863 L10.9420393,2.10460894 L11.1890804,2.26672643 L11.5959717,1.98670536 L11.3876822,1.74598544 L11.1115772,1.9031903 L11.0970461,1.9031903 L11.4894055,0.886271435 L10.5835879,0.522735312 L9.54698395,0.645551509 L8.34084171,0.979611894 C8.46167762,0.934498764 8.59259978,0.888684207 8.71867025,0.846970295 L8.55397602,0.517822534 C8.39989995,0.552968062 8.24943939,0.592246043 8.09864527,0.635726263 Z M6.97807934,1.85751855 L7.49037682,2.36497946 L7.9016578,2.36497946 L7.9016578,1.776325 L7.38936032,1.441401 L6.97807934,1.85751855 Z M14.5144145,1.441401 L13.9057292,1.58815598 L13.5210401,1.84253148 L13.5210401,2.06755584 L12.9172243,2.46868632 L13.0487003,3.05570655 L13.4041725,2.80133105 L13.6281688,3.05570655 L13.8813818,3.20246153 L14.0372052,2.76219644 L13.944685,2.50782093 L14.0372052,2.32193119 L14.3926774,1.98928646 L14.5533703,1.98928646 L14.3926774,2.36106595 L14.3926774,2.69860248 C14.5397551,2.65803606 14.6950059,2.63440862 14.8455392,2.6154413 L14.4218942,2.90895142 L14.3926774,3.09973297 L13.9057292,3.49597165 L13.4333894,3.39324308 L13.4333894,3.09973297 L13.2045238,3.2464881 L13.2970439,3.49597165 L12.9561802,3.49597165 L12.7565314,3.83350818 L12.5179268,4.11234287 L12.0845429,4.19550405 L12.337756,4.45966317 L12.4010592,4.71403852 L12.0845429,4.71403852 L11.6755064,4.92927926 L11.6755064,5.59456887 L11.8605468,5.59456887 L12.0309786,5.79513403 L12.440015,5.59456887 L12.6007079,5.19343838 L12.8880074,5.00754864 L12.9561802,4.8607935 L13.4333894,4.75317313 L13.6817331,5.04668325 L13.9739018,5.19343838 L13.8132089,5.51629949 L14.0664221,5.44781373 L14.1978981,5.11516901 L13.8813818,4.75317313 L14.0128578,4.75317313 L14.3293741,5.00754864 L14.3926774,5.36954436 L14.6848463,5.70218924 L14.7384106,5.22278938 L14.9088424,5.15430362 C15.06712,5.32081893 15.184568,5.51478604 15.3178789,5.70218924 L15.7950884,5.74132385 L16.0823875,5.9321054 L15.9655193,6.10331957 L15.6733506,6.37237049 L15.2545757,6.37237049 L14.7091937,6.18158894 L14.4218942,6.22561551 L14.207637,6.45063987 L13.6281688,5.84894422 L13.2045238,5.74132385 L12.6007079,5.80980961 L12.0601955,5.95656459 C11.7548361,6.30740653 11.4483704,6.65862192 11.1593414,7.02298468 L10.8038691,7.86927206 L10.964562,8.05516181 L10.6723932,8.4954269 L11.0035179,9.26833688 C11.2757141,9.58039444 11.5351952,9.89039738 11.8069825,10.2026773 L12.2160189,9.85535695 L12.3864507,10.0559223 L12.8247042,9.77708773 L12.9707886,9.95319371 L13.4041725,9.95319371 L13.6427771,10.2320282 L13.4966927,10.7407791 L13.7986006,11.0880994 L13.788861,11.6897951 L14.0128572,12.1300603 L13.8424254,12.5018398 C13.8264534,12.7720341 13.8132083,13.0338611 13.8132083,13.3041006 C13.9444116,13.670204 14.0740218,14.0458099 14.1978975,14.4145465 L14.2904176,15.001568 L14.2904176,15.2950779 L14.5144139,15.2950779 L14.869886,15.070053 L15.293531,15.070053 L15.911955,14.3460615 L15.8340435,14.1210365 L16.2430804,13.7443652 L15.9411721,13.3970456 L16.3063842,13.0888599 L16.666725,12.8638355 L16.8225482,12.6779458 L16.7300289,12.2768153 L16.7300289,11.24953 L17.0221976,10.6184833 L17.363061,10.2173528 L17.7477506,9.26833688 L17.7477506,9.00417776 C17.5639485,9.02763116 17.3869338,9.04428802 17.2072378,9.05798794 L17.5773182,8.68131665 L18.1032232,8.30953716 L18.395392,7.98667605 L18.395392,7.61489656 C18.3313138,7.49242965 18.2602386,7.37536682 18.1957426,7.25290084 L17.9473985,7.54641095 L17.7477506,7.3213866 L17.4701896,7.10614586 L17.4701896,6.626746 L17.8013149,7.01320091 L18.1713953,6.95939072 C18.3391112,7.11368036 18.496653,7.24844966 18.6437345,7.42411501 L18.9845993,7.0376601 C18.6181782,4.94550872 17.4968355,3.11748526 15.9168248,1.83763952 L15.8340435,2.02842107 L15.5175277,2.40509237 L15.0938827,1.95993547 L15.5175277,1.95993547 L15.7025676,1.73491111 L14.9380593,1.58815598 L14.5144145,1.441401 Z M5.48525922,1.80194227 C5.48525922,1.80194227 5.29931571,1.81476061 5.1629022,1.8266369 C3.59167338,3.27485819 2.5400224,5.38412089 2.36018703,7.76816013 C2.4642472,7.9616627 2.70940712,8.34601398 2.70940712,8.34601398 L3.31382648,8.75100561 L3.90929166,8.92386783 L4.16449092,9.30416484 L4.56296,9.6301337 L4.79577335,9.5856835 L4.96590624,9.67952295 L4.96590624,9.73385109 L4.73309289,10.4351781 L4.56296,10.7315134 L4.6256406,10.879681 L4.47789363,11.4229624 L5.00172376,12.4848307 L5.51212229,12.9984786 L5.74045862,13.3787756 L5.7046411,14.1443085 L5.88820559,14.5789337 L5.7046411,15.4284287 C5.7046411,15.4284287 5.72265947,15.5474555 5.74045862,15.6506805 C6.01239227,15.8579843 6.2958772,16.0497285 6.59112293,16.2186564 C6.66245629,16.1504839 6.79707334,16.0062815 6.79707334,16.0062815 L6.7388699,15.8334202 L6.96720609,15.5765955 L7.0522726,15.3197724 L7.42835577,15.171604 L7.70594095,14.3616211 L7.62087457,14.1443085 L7.831302,13.8084612 L8.252157,13.699805 L8.48497049,13.1071349 L8.42228989,12.3811133 L8.76255567,11.8279541 L8.82523627,11.2747948 C8.35630342,11.0108304 7.89378194,10.7514011 7.42835577,10.4796283 L7.20001958,9.95116367 L6.77468742,9.84250738 L6.54187394,9.15599724 L5.97327197,9.22514207 L5.48525922,8.82015044 L4.96590624,9.32885946 L4.96590624,9.41282112 C4.81030813,9.36183928 4.61646776,9.36135561 4.47789363,9.26465353 L4.3704412,8.8991732 L4.3704412,8.49418173 L4.03017542,8.52381525 C4.05875784,8.26680712 4.08645182,8.01030641 4.11524193,7.75334329 L3.90929166,7.75334329 L3.71677285,8.04967864 L3.51082244,8.15833492 L3.2287601,7.98053381 L3.19294272,7.57554218 L3.25562317,7.13103909 L3.67647817,6.77049781 L4.03017542,6.77049781 L4.07942441,6.53836856 L4.51818817,6.66184153 L4.83159087,7.09152778 L4.88083986,6.36550618 L5.42705592,5.85185842 L5.61957472,5.29869904 L6.02252096,5.11101998 L6.25085715,4.74553982 L6.77468742,4.63688353 L7.02988669,4.19238059 L6.25085715,4.19238059 L6.7388699,3.93555656 L7.07465852,3.93555656 L7.56267113,3.75775544 L7.62087457,3.53056492 L7.45521884,3.35770271 L7.25822288,3.27374104 L7.30747187,3.05642847 L7.1731565,2.7353985 L6.82393641,2.86874941 L6.88213971,2.58723091 L6.48367063,2.33040687 L6.16579077,2.95271108 L6.19265385,3.16508476 L5.88820559,3.31325235 L5.68225518,3.78738896 L5.5971888,3.35770271 L5.05097275,3.10087882 L4.96590624,2.76009313 L5.68225518,2.29089556 L5.99565788,1.95504891 L6.02252096,1.55005728 L5.85238807,1.441401 L5.48525922,1.80194227 Z M11.5959717,3.46081259 L11.7633315,3.5817574 L11.7633315,3.84930206 L11.6765523,4.21213638 L12.1662347,4.14983149 L12.5195501,3.94092686 L12.2158229,3.76134213 C12.11144,3.59559936 11.9931079,3.4475272 11.8625078,3.28855792 L11.5959717,3.28855792 L11.5959717,3.46081259 Z M10.6723932,3.42796603 L10.8360651,4.21213638 L11.5959717,3.93332044 L11.2803182,3.28855792 L10.6723932,3.42796603 Z M7.85152071,5.13571484 L8.06790193,4.6136922 L7.73541368,4.21213638 L7.85152071,5.13571484 Z M16.5500325,7.31727073 L16.8685069,8.08161129 L17.0489765,8.32046773 L16.953434,8.59117163 L17.1374424,8.81808519 C17.0545728,8.82454614 16.9714529,8.83002869 16.8861999,8.83002869 C16.7380824,8.47674308 16.6239294,8.12476568 16.5111077,7.75517479 L16.3200229,7.50437548 L16.213864,7.07045308 L16.2810981,6.98287177 L16.5500325,7.31727073 Z" opacity=".392"/>
    <use fill="url(#org.deepin.browser-d)" xlink:href="#org.deepin.browser-e"/>
    <use fill="#000" filter="url(#org.deepin.browser-f)" xlink:href="#org.deepin.browser-e"/>
    <path fill="url(#org.deepin.browser-g)" d="M16.0190523,0.691748557 L15.4917204,0.87004299 L13.7416529,1.49930441 L15.2316483,2.61223738 C15.4316339,2.76161406 15.6278147,2.92244816 15.8205288,3.09473249 L16.2130048,3.4456017 L16.7942741,3.30376118 C17.3974609,3.16614951 17.8808381,3.11969518 18.223877,3.15674017 C18.4567234,3.1818854 18.5613155,3.2309299 18.5958153,3.27539602 C18.8571518,3.61222799 18.4934214,4.49731158 17.6408936,5.65611281 L17.3841313,5.99440983 L17.1014741,6.34618012 L16.7936283,6.71000078 L16.4613001,7.08444889 C16.3465222,7.21087807 16.2277815,7.33884134 16.1051959,7.46810154 L15.7260219,7.8595358 L15.3244844,8.25732875 L14.9012897,8.66005749 L14.457144,9.0662991 C14.3814131,9.13421972 14.3048386,9.20222743 14.2274353,9.27029257 L13.7531876,9.67913551 L13.2597548,10.087934 C12.840763,10.4281857 12.4025225,10.7669089 11.9468723,11.100398 C9.61823354,12.8047229 7.22763601,14.1189684 5.27135069,14.8005805 C3.590752,15.3861374 2.49096582,15.3990152 2.29005431,15.1400639 C2.2559348,15.0960879 2.23634321,14.9842912 2.27552204,14.7574246 C2.32664085,14.461419 2.47222731,14.0834378 2.71122082,13.6462727 L2.8676784,13.3769228 L3.13892855,12.929839 L2.92650164,12.4519945 C2.82547423,12.2247379 2.73605051,11.9951609 2.65825028,11.7625932 L2.00326618,9.80465425 L0.828161142,11.5996176 L0.707093736,11.7633657 C-0.943645813,14.0240772 -1.52055658,15.9556138 -0.509608085,17.2586074 C0.768943388,18.9065098 4.07187307,18.3995213 8.00354823,16.4471369 L8.5832417,16.1511864 C9.16709953,15.8450824 9.76296449,15.5087653 10.3664626,15.1444587 L10.9723432,14.7709045 C11.1750435,14.6433314 11.3784299,14.5127307 11.5823405,14.3791847 L12.1954826,13.9697935 L12.8107976,13.5432249 L13.4273133,13.0999732 L13.7295847,12.8767989 L14.3220977,12.4276743 C14.4194829,12.3525423 14.5161743,12.2772816 14.6121568,12.2019074 L15.1794236,11.748423 C15.2725097,11.6726562 15.3648565,11.5968064 15.4564487,11.5208891 L15.9968257,11.0646963 C16.1738521,10.9124433 16.3477384,10.7600422 16.5183632,10.6076154 L17.0203306,10.1503802 L17.5019975,9.69372479 L17.9626335,9.23838297 C21.1867525,5.98156044 22.7343386,2.88248669 21.3954777,1.15685253 C20.453988,-0.0566169591 18.5294397,-0.0933902911 16.0190523,0.691748557 Z M20.605394,1.76985157 C21.3012055,2.66667073 20.6673209,4.39657155 19.0923963,6.43309548 L18.7649794,6.84433259 C18.5951124,7.05183931 18.4160942,7.26206129 18.2283134,7.47447207 L17.8411833,7.90205603 C17.6418917,8.11715123 17.4340965,8.33408426 17.2181865,8.55232865 L16.7756617,8.99040994 L16.3121882,9.4310523 L15.8284569,9.87331978 L15.3251587,10.3162765 C15.2396835,10.390108 15.1534218,10.4639293 15.066388,10.5377208 L14.5350351,10.9799564 C14.3549059,11.1271452 14.1718034,11.2740589 13.9858428,11.4205415 L13.4195019,11.8585399 C13.3237211,11.9312721 13.2272545,12.0038576 13.1301167,12.0762768 L12.5360458,12.5110041 L11.9352676,12.9343836 L11.3361866,13.3406269 C11.1369067,13.4731399 10.9381059,13.6027289 10.7399805,13.7293259 L10.147827,14.1000723 C9.95124877,14.220617 9.75554224,14.3381015 9.56090368,14.4524579 L8.98038821,14.7860745 L8.40745823,15.1005139 C8.21787667,15.2020854 8.02975563,15.3003927 7.84329139,15.3953677 L7.28906533,15.6702279 C7.19758815,15.7143491 7.10657423,15.7576202 7.01604811,15.8000328 L6.47894132,16.044137 C3.47073118,17.3682391 1.08314385,17.6801534 0.280475556,16.6456084 C-0.347586739,15.83611 0.107715546,14.3478617 1.36055822,12.5680297 L1.65702356,12.161166 L1.70990722,12.0798399 C1.79902428,12.3462369 1.90037398,12.605483 2.01272669,12.8582153 L1.95645729,12.949993 C1.2441399,14.1662642 1.0440066,15.1653789 1.49997067,15.753063 C2.15475556,16.5970036 4.02220975,16.4115853 6.41544521,15.4361346 L6.90089919,15.2305816 C7.14692787,15.1226091 7.39775644,15.0068959 7.652698,14.8836812 L8.16786161,14.6273208 C8.51468865,14.4498405 8.8680136,14.2593079 9.22620828,14.0562903 L9.76694908,13.7424712 C10.1296064,13.5271105 10.4963194,13.2995485 10.8654599,13.0603525 L11.4207877,12.6929038 C11.6063681,12.5675597 11.7923519,12.439378 11.9785355,12.3084296 L12.5374823,11.9073552 C12.9102417,11.6345335 13.2723331,11.3587259 13.622746,11.081296 L14.1394804,10.6641051 C14.224101,10.5944273 14.30796,10.5246907 14.3910418,10.4549167 L14.8800793,10.0359936 C14.9599889,9.96615497 15.0390898,9.8963215 15.117366,9.8265145 L15.5770018,9.40816054 L16.0160893,8.99146454 C16.3017966,8.71444715 16.5732999,8.43921695 16.829589,8.16713769 L17.2024859,7.76155247 C17.2626915,7.69440563 17.3219146,7.62749833 17.3801395,7.5608519 L17.7173839,7.16427407 C19.3424482,5.19874122 20.0406838,3.50633765 19.3858989,2.66239698 C18.9678359,2.12356293 18.06982,2.0238487 16.811897,2.27719313 L16.487014,2.34921417 C16.2755718,2.16018722 16.0567724,1.98038855 15.8300767,1.81106106 L16.0521015,1.73165049 C18.242622,1.00623404 19.9663821,0.946240442 20.605394,1.76985157 Z"/>
  </g>
</svg>
