<svg xmlns="http://www.w3.org/2000/svg" xmlns:xlink="http://www.w3.org/1999/xlink" width="24" height="24" viewBox="0 0 24 24">
  <defs>
    <filter id="preferences-system-a" width="122.7%" height="127.3%" x="-11.4%" y="-11.4%" filterUnits="objectBoundingBox">
      <feOffset in="SourceAlpha" result="shadowOffsetOuter1"/>
      <feGaussianBlur in="shadowOffsetOuter1" result="shadowBlurOuter1" stdDeviation=".5"/>
      <feColorMatrix in="shadowBlurOuter1" result="shadowMatrixOuter1" values="0 0 0 0 0   0 0 0 0 0   0 0 0 0 0  0 0 0 0.15 0"/>
      <feMerge>
        <feMergeNode in="shadowMatrixOuter1"/>
        <feMergeNode in="SourceGraphic"/>
      </feMerge>
    </filter>
    <radialGradient id="preferences-system-b" cx="50%" cy="0%" r="105.049%" fx="50%" fy="0%">
      <stop offset="0%" stop-color="#BFBFBF"/>
      <stop offset="100%" stop-color="#4E4E4E"/>
    </radialGradient>
    <radialGradient id="preferences-system-c" cx="50.75%" cy="50.928%" r="50%" fx="50.75%" fy="50.928%">
      <stop offset="0%" stop-color="#595959" stop-opacity=".5"/>
      <stop offset="100%" stop-color="#070707" stop-opacity=".5"/>
    </radialGradient>
    <circle id="preferences-system-d" cx="11" cy="11" r="5.5"/>
    <filter id="preferences-system-e" width="118.2%" height="118.2%" x="-9.1%" y="-9.1%" filterUnits="objectBoundingBox">
      <feGaussianBlur in="SourceAlpha" result="shadowBlurInner1" stdDeviation=".5"/>
      <feOffset dy="1" in="shadowBlurInner1" result="shadowOffsetInner1"/>
      <feComposite in="shadowOffsetInner1" in2="SourceAlpha" k2="-1" k3="1" operator="arithmetic" result="shadowInnerInner1"/>
      <feColorMatrix in="shadowInnerInner1" values="0 0 0 0 0   0 0 0 0 0   0 0 0 0 0  0 0 0 0.5 0"/>
    </filter>
    <radialGradient id="preferences-system-h" cx="50%" cy="-4.334%" r="104.334%" fx="50%" fy="-4.334%" gradientTransform="matrix(0 1 -.95057 0 .459 -.543)">
      <stop offset="0%" stop-color="#E6E6E6"/>
      <stop offset="100%" stop-color="#D0D0D0"/>
    </radialGradient>
    <path id="preferences-system-g" d="M11.554104,2 C11.7539692,2 11.9187116,2.15675157 11.9286409,2.35636998 L12.0034156,3.86173009 C12.4019126,3.91741726 12.7900377,4.00585802 13.1650362,4.12427224 L13.8317208,2.8014092 C13.9219029,2.62243585 14.1368697,2.54600251 14.3197959,2.6278698 L15.0152607,2.93911996 C15.1971699,3.02053211 15.2836217,3.23001241 15.2120774,3.41602402 L14.6788681,4.80423784 C15.0710062,5.03822038 15.4393657,5.30848826 15.7794088,5.61046204 L16.9262881,4.67274593 C17.0815347,4.54575464 17.3092224,4.56340333 17.4430453,4.71280116 L17.9534911,5.28265513 C18.0863192,5.43094237 18.0801249,5.65717781 17.9393816,5.79797464 L16.8892987,6.84895788 C17.1521371,7.21956379 17.3814701,7.61602077 17.5728296,8.03381964 L18.9971834,7.64674291 C19.1904049,7.59420001 19.3908186,7.70273169 19.452406,7.89326338 L19.6885816,8.62391468 C19.7498979,8.81360791 19.6520758,9.01811885 19.4659119,9.08943674 L18.0889539,9.61736059 C18.1617322,9.97500672 18.2085969,10.3421923 18.2274806,10.7168311 L18.2360001,11.086 L18.2350001,10.982 L19.6868502,11.2105822 C19.8840776,11.2414944 20.0225114,11.4215042 20.0017505,11.620057 L19.9218256,12.3844444 C19.9010323,12.5833072 19.7278713,12.7308793 19.5282272,12.7198787 L18.074463,12.6398781 C17.9768301,13.0969317 17.8368,13.5380742 17.6587329,13.9589054 L18.8748567,14.748974 C19.0418905,14.8574384 19.0950008,15.0775537 18.9958075,15.2502544 L18.6139815,15.9150338 C18.5141416,16.0888602 18.2952489,16.1534294 18.1170512,16.0616187 L16.8424453,15.404098 C16.5686221,15.7813495 16.2597773,16.1310857 15.9207427,16.4484305 L16.700364,17.6492597 C16.8088215,17.8162582 16.767844,18.0389049 16.6070362,18.1563458 L15.9905566,18.6065723 C15.8285973,18.7248542 15.6022407,18.6947698 15.4767991,18.5382904 L14.5917369,17.4346821 C14.1894515,17.66714 13.7629256,17.8617305 13.31693,18.0136388 L13.5397724,19.4085144 C13.5713035,19.6055647 13.4429899,19.7927926 13.2478375,19.8344891 L12.5036765,19.9934875 C12.3079278,20.0353115 12.1138392,19.9160229 12.0627448,19.7224869 L11.7034895,18.3615223 C11.4726265,18.3839414 11.238593,18.3954112 11.001905,18.3954112 C10.7652169,18.3954112 10.5311834,18.3839414 10.3003205,18.3615223 L9.9410651,19.7224869 C9.88997067,19.9160229 9.69588214,20.0353115 9.50013338,19.9934875 L8.75597238,19.8344891 C8.56081999,19.7927926 8.43250639,19.6055647 8.4640375,19.4085144 L8.68701092,18.0136834 C8.24096788,17.8617686 7.8143978,17.6671628 7.41207306,17.4346821 L6.52701085,18.5382904 C6.40156924,18.6947698 6.17521258,18.7248542 6.01325329,18.6065723 L5.39677374,18.1563458 C5.23596595,18.0389049 5.19498842,17.8162582 5.30344588,17.6492597 L6.08306721,16.4484305 C5.74403262,16.1310857 5.43518785,15.7813495 5.16136464,15.404098 L3.88675875,16.0616187 C3.708561,16.1534294 3.48966832,16.0888602 3.38982846,15.9150338 L3.00800237,15.2502544 C2.90880915,15.0775537 2.96191939,14.8574384 3.12895316,14.748974 L4.34507701,13.9589054 C4.16700991,13.5380742 4.02697986,13.0969317 3.92934688,12.6398781 L2.47558267,12.7198787 C2.27593859,12.7308793 2.1027776,12.5833072 2.08198434,12.3844444 L2.00205939,11.620057 C1.98129855,11.4215042 2.1197323,11.2414944 2.31695974,11.2105822 L3.76767189,10.9826351 C3.77458352,10.5156064 3.82494424,10.0592036 3.91485605,9.61736059 L2.537898,9.08943674 C2.35173414,9.01811885 2.25391197,8.81360791 2.31522836,8.62391468 L2.55140387,7.89326338 C2.61299127,7.70273169 2.81340498,7.59420001 3.00662656,7.64674291 L4.43098036,8.03381964 C4.62251086,7.61564743 4.85208273,7.21885526 5.11521587,6.84796442 L4.06442828,5.79797464 C3.92368506,5.65717781 3.91749072,5.43094237 4.05031879,5.28265513 L4.56076464,4.71280116 C4.69458753,4.56340333 4.92227524,4.54575464 5.07752179,4.67274593 L6.2244011,5.61046204 C6.56444424,5.30848826 6.93280373,5.03822038 7.32494182,4.80423784 L6.79173251,3.41602402 C6.72018819,3.23001241 6.80664003,3.02053211 6.98854926,2.93911996 L7.68401398,2.6278698 C7.86694021,2.54600251 8.08190704,2.62243585 8.17208908,2.8014092 L8.83877372,4.12427224 C9.32113124,3.97195697 9.82520748,3.86923421 10.3451395,3.82202072 L10.418956,2.35636998 C10.4288853,2.15675157 10.5936277,2 10.793493,2 L11.554104,2 Z M12.7126561,12.821221 C12.2652514,13.242116 11.6627417,13.5 11,13.5 C10.3622312,13.5 9.78024073,13.2611846 9.33857578,12.868101 L6.70989214,14.4419669 C7.71793578,15.6967924 9.26516833,16.5 11.0000001,16.5 C12.7780876,16.5 14.3591041,15.6562392 15.3644997,14.3472678 L12.7126561,12.821221 Z M10.3491776,5.53810324 C7.61835515,5.86004202 5.50000007,8.18263684 5.50000007,11 C5.50000007,11.7539894 5.65172031,12.4725425 5.92629658,13.1267954 L8.56017281,11.5476682 C8.52078104,11.3714126 8.50000007,11.1881331 8.50000007,11 C8.50000007,9.84422529 9.28429993,8.87163364 10.3497132,8.58541157 L10.3491776,5.53810324 Z M11.9998082,5.59065287 L11.9998082,8.70794546 C12.882871,9.09368385 13.5,9.97477282 13.5,11 C13.5,11.1653381 13.4839498,11.3269274 13.4533224,11.4832949 L16.118434,13.0168834 C16.3647097,12.392391 16.5000001,11.7119949 16.5000001,11 C16.5000001,8.30386302 14.5600212,6.06083238 11.9998082,5.59065287 Z"/>
    <filter id="preferences-system-f" width="138.9%" height="138.9%" x="-19.4%" y="-13.9%" filterUnits="objectBoundingBox">
      <feOffset dy="1" in="SourceAlpha" result="shadowOffsetOuter1"/>
      <feGaussianBlur in="shadowOffsetOuter1" result="shadowBlurOuter1" stdDeviation="1"/>
      <feColorMatrix in="shadowBlurOuter1" values="0 0 0 0 0.097118433   0 0 0 0 0.097118433   0 0 0 0 0.097118433  0 0 0 0.799114948 0"/>
    </filter>
    <linearGradient id="preferences-system-i" x1="50%" x2="50%" y1="-4.334%" y2="100%">
      <stop offset="0%" stop-color="#DCDCDC"/>
      <stop offset="100%" stop-color="#8A8A8A"/>
    </linearGradient>
    <circle id="preferences-system-j" cx="11" cy="11" r="1.451"/>
    <path id="preferences-system-k" d="M10.6666667,10.3333333 C10.6666667,10.1492384 10.8159051,10 11,10 C11.1840949,10 11.3333333,10.1492384 11.3333333,10.3333333 C11.3333333,10.5174282 11.4825718,10.6666667 11.6666667,10.6666667 C11.8507616,10.6666667 12,10.8159051 12,11 C12,11.1840949 11.8507616,11.3333333 11.6666667,11.3333333 C11.4825718,11.3333333 11.3333333,11.4825718 11.3333333,11.6666667 C11.3333333,11.8507616 11.1840949,12 11,12 C10.8159051,12 10.6666667,11.8507616 10.6666667,11.6666667 C10.6666667,11.4825718 10.5174282,11.3333333 10.3333333,11.3333333 C10.1492384,11.3333333 10,11.1840949 10,11 C10,10.8159051 10.1492384,10.6666667 10.3333333,10.6666667 C10.5174282,10.6666667 10.6666667,10.5174282 10.6666667,10.3333333 Z"/>
    <filter id="preferences-system-l" width="200%" height="200%" x="-50%" y="-50%" filterUnits="objectBoundingBox">
      <feGaussianBlur in="SourceAlpha" result="shadowBlurInner1" stdDeviation=".5"/>
      <feOffset dy="1" in="shadowBlurInner1" result="shadowOffsetInner1"/>
      <feComposite in="shadowOffsetInner1" in2="SourceAlpha" k2="-1" k3="1" operator="arithmetic" result="shadowInnerInner1"/>
      <feColorMatrix in="shadowInnerInner1" values="0 0 0 0 0   0 0 0 0 0   0 0 0 0 0  0 0 0 0.5 0"/>
    </filter>
  </defs>
  <g fill="none" fill-rule="evenodd" filter="url(#preferences-system-a)" transform="translate(1 1)">
    <path fill="url(#preferences-system-b)" fill-rule="nonzero" d="M0.75,0 L21.25,0 C21.6642136,0 22,0.335786438 22,0.75 L22,21.25 C22,21.6642136 21.6642136,22 21.25,22 L0.75,22 C0.335786438,22 0,21.6642136 0,21.25 L0,0.75 C0,0.335786438 0.335786438,0 0.75,0 Z"/>
    <path fill="#CBCBCB" d="M11.1981928,6 C11.3165704,6 11.4141451,6.09284465 11.4200257,6.21107925 L11.4606103,7.02575903 C11.715288,7.05497715 11.9626883,7.10812897 12.2005058,7.18290889 L12.566275,6.45703136 C12.6196876,6.35101949 12.7470154,6.30574561 12.8553629,6.35424049 L13.2178466,6.51648314 C13.3255836,6.56470476 13.3767854,6.68877491 13.3344148,6.79894688 L13.0419106,7.55962337 C13.2599925,7.68944636 13.4646739,7.83943288 13.6533836,8.0070117 L14.2812781,7.49340869 C14.3732304,7.41818462 14.5080947,7.42863863 14.587357,7.5171344 L14.8534898,7.81426986 C14.9321549,7.90209889 14.9284863,8.03609024 14.8451333,8.1194831 L14.2690951,8.69567815 C14.4143874,8.90166976 14.5407044,9.12200577 14.6455029,9.35414294 L15.4293432,9.14097244 C15.5437882,9.1098483 15.6624942,9.17413411 15.6989702,9.2869902 L15.8221407,9.66807717 C15.8584541,9.78042991 15.8005178,9.90155746 15.6902602,9.94380038 L14.925503,10.2368348 C14.9676693,10.4557447 14.991981,10.6810111 14.9968631,10.9110587 L14.9975946,10.9878822 L15.8122717,11.1156922 C15.929085,11.1340026 16.0110758,11.2406211 15.9987805,11.3582228 L15.9570951,11.7569327 C15.9447803,11.8747204 15.8422187,11.9621287 15.7239715,11.9556125 L14.8932329,11.9098287 C14.8359741,12.1551752 14.7561248,12.3918379 14.6559977,12.617504 L15.3631421,13.0766798 C15.4620673,13.1409237 15.4935219,13.2712912 15.4347769,13.3735792 L15.2356714,13.7202662 C15.1765382,13.82323 15.0468846,13.8614765 14.9413377,13.8070916 L14.1832613,13.4165491 C14.0346683,13.611813 13.8685215,13.7929924 13.6871739,13.957734 L14.1588686,14.6843589 C14.2231002,14.7832697 14.1988313,14.9151361 14.103594,14.9846964 L13.7822316,15.2194161 C13.6863031,15.2894813 13.5522274,15.2716612 13.4779297,15.1789711 L12.9322906,14.4984004 C12.7219784,14.6147449 12.50007,14.712686 12.268738,14.7900513 L12.4079277,15.6598834 C12.4266015,15.7765947 12.3506051,15.8874877 12.2350216,15.9121859 L11.8471953,15.9950574 C11.7312538,16.019832 11.6162949,15.9491751 11.5860337,15.8345403 L11.3603391,14.979565 C11.2416433,14.9901694 11.1214541,14.9955858 11,14.9955858 C10.8785459,14.9955858 10.7583567,14.9901694 10.6396609,14.979565 L10.4139663,15.8345403 C10.3837051,15.9491751 10.2687462,16.019832 10.1528047,15.9950574 L9.76497835,15.9121859 C9.64939488,15.8874877 9.57339846,15.7765947 9.59207226,15.6598834 L9.73126196,14.7900513 C9.49993,14.712686 9.27802164,14.6147449 9.06770942,14.4984004 L8.52207032,15.1789711 C8.4477726,15.2716612 8.31369687,15.2894813 8.21776836,15.2194161 L7.89640598,14.9846964 C7.80116871,14.9151361 7.77689979,14.7832697 7.84113135,14.6843589 L8.3128261,13.957734 C8.13147848,13.7929924 7.96533167,13.611813 7.81673868,13.4165491 L7.0586623,13.8070916 C6.95311539,13.8614765 6.82346175,13.82323 6.76432865,13.7202662 L6.56522307,13.3735792 C6.50647812,13.2712912 6.53793271,13.1409237 6.63685786,13.0766798 L7.3440023,12.617504 C7.24387515,12.3918379 7.1640259,12.1551752 7.10676712,11.9098287 L6.27602855,11.9556125 C6.1577813,11.9621287 6.05521969,11.8747204 6.04290491,11.7569327 L6.00121954,11.3582228 C5.98892421,11.2406211 6.07091504,11.1340026 6.18772829,11.1156922 L7.00223145,10.9878808 C7.00283907,10.7311257 7.02764775,10.4800568 7.07449702,10.2368348 L6.30973984,9.94380038 C6.19948219,9.90155746 6.14154595,9.78042991 6.17785929,9.66807717 L6.30102976,9.2869902 C6.33750579,9.17413411 6.45621184,9.1098483 6.57065682,9.14097244 L7.35449706,9.35414294 C7.45929561,9.12200577 7.5856126,8.90166976 7.73090494,8.69567815 L7.15486673,8.1194831 C7.07151373,8.03609024 7.06784515,7.90209889 7.14651023,7.81426986 L7.41264302,7.5171344 C7.49190528,7.42863863 7.62676961,7.41818462 7.71872192,7.49340869 L8.34661635,8.0070117 C8.53532611,7.83943288 8.74000748,7.68944636 8.95808941,7.55962337 L8.66558515,6.79894688 C8.62321461,6.68877491 8.67441638,6.56470476 8.78215344,6.51648314 L9.14463706,6.35424049 C9.25298463,6.30574561 9.3803124,6.35101949 9.43372504,6.45703136 L9.7994942,7.18290889 C10.0373117,7.10812897 10.284712,7.05497715 10.5393897,7.02575903 L10.5799743,6.21107925 C10.5858549,6.09284465 10.6834296,6 10.8018072,6 L11.1981928,6 Z M11,8 C9.34314575,8 8,9.34314575 8,11 C8,12.6568542 9.34314575,14 11,14 C12.6568542,14 14,12.6568542 14,11 C14,9.34314575 12.6568542,8 11,8 Z"/>
    <use fill="url(#preferences-system-c)" xlink:href="#preferences-system-d"/>
    <use fill="#000" filter="url(#preferences-system-e)" xlink:href="#preferences-system-d"/>
    <use fill="#000" filter="url(#preferences-system-f)" xlink:href="#preferences-system-g"/>
    <use fill="url(#preferences-system-h)" xlink:href="#preferences-system-g"/>
    <use fill="url(#preferences-system-i)" xlink:href="#preferences-system-j"/>
    <use fill="#878787" xlink:href="#preferences-system-k"/>
    <use fill="#000" filter="url(#preferences-system-l)" xlink:href="#preferences-system-k"/>
  </g>
</svg>
