<svg xmlns="http://www.w3.org/2000/svg" xmlns:xlink="http://www.w3.org/1999/xlink" width="24" height="24" viewBox="0 0 24 24">
  <defs>
    <filter id="thunderbird-a" width="123.8%" height="122.7%" x="-11.9%" y="-11.4%" filterUnits="objectBoundingBox">
      <feOffset in="SourceAlpha" result="shadowOffsetOuter1"/>
      <feGaussianBlur in="shadowOffsetOuter1" result="shadowBlurOuter1" stdDeviation=".5"/>
      <feColorMatrix in="shadowBlurOuter1" result="shadowMatrixOuter1" values="0 0 0 0 0   0 0 0 0 0   0 0 0 0 0  0 0 0 0.15 0"/>
      <feMerge>
        <feMergeNode in="shadowMatrixOuter1"/>
        <feMergeNode in="SourceGraphic"/>
      </feMerge>
    </filter>
    <circle id="thunderbird-b" cx="10.5" cy="11.5" r="10.5"/>
    <linearGradient id="thunderbird-c" x1="124.21%" x2="58.624%" y1="130.676%" y2="61.842%">
      <stop offset="0%" stop-color="#A4D8E5"/>
      <stop offset="34.403%" stop-color="#0E2B73"/>
      <stop offset="100%" stop-color="#010456"/>
    </linearGradient>
    <linearGradient id="thunderbird-e" x1="50.011%" x2="50.011%" y1="96.755%" y2="52.831%">
      <stop offset="0%" stop-color="#A7D3DF"/>
      <stop offset="50%" stop-color="#0C418F"/>
      <stop offset="100%" stop-color="#0F0F62"/>
    </linearGradient>
    <linearGradient id="thunderbird-f" x1="18.078%" x2="66.348%" y1="20.348%" y2="78.816%">
      <stop offset="0%" stop-color="#FFE6C7"/>
      <stop offset="100%" stop-color="#FFFFF1"/>
    </linearGradient>
    <linearGradient id="thunderbird-g" x1="46.955%" x2="30.691%" y1="32.534%" y2="61.811%">
      <stop offset="0%" stop-color="#FFE8CC"/>
      <stop offset="100%" stop-color="#FFFFF8"/>
    </linearGradient>
    <path id="thunderbird-i" d="M10.3990438,0.887782794 C10.8879861,0.836532794 12.0394284,0.814568509 12.4437554,0.843366128 C13.0293323,0.887782794 13.6476015,0.925854223 14.22789,1.04348518 C14.9024092,1.18308041 15.6471154,1.98547619 16.1625,2.47161905 C16.1996223,2.50722118 16.2318784,2.54563195 16.2596192,2.58631474 C17.8421096,3.25069648 19.1941232,4.5606851 20.04576,6.56561585 C20.41776,7.44954878 20.69472,8.43223171 20.85408,9.46645732 L20.7957037,9.13057286 C20.7999156,9.14484706 20.8018918,9.15897184 20.8038488,9.17308165 L20.85408,9.46645732 C20.8512,9.46742073 20.8512,9.46742073 20.8512,9.46838415 L20.8512,9.46838415 C20.8640319,9.56823243 20.8709257,9.66504316 20.8750197,9.75888996 C21.6323398,17.0150283 17.2349065,20.0967744 17.23584,20.0967744 L17.23584,20.0967744 L16.992,19.9980244 C16.5216,20.961439 14.13504,21.8747561 13.17504,21.8747561 C13.93776,21.4055732 14.2272,21.0539268 14.22432,21.0539268 C14.22144,21.0539268 12.90768,21.8005732 10.7688,21.652689 C12.4704,20.8949634 15.86112,17.9575122 16.21824,12.2218232 L16.2167037,12.2415729 L16.2056055,12.0959493 C15.4592197,13.6456792 14.1979264,13.8621113 14.1218473,13.87401 C15.4058146,12.1389374 15.0992775,9.3604778 14.0496975,7.48251631 C13.2011424,7.6517284 11.8372322,7.4625453 11.5322086,7.41992857 C10.6071965,7.29068946 9.73701923,6.99430952 8.80336538,7.0894881 C8.09567308,7.16075 7.59423077,7.54683333 6.99567308,7.8982619 C6.89519231,8.00027381 6.58076923,8.19453571 6.46634615,8.27360714 L6.46634615,8.27360714 L5.71634615,8.6567619 C5.71298077,8.6567619 4.69471154,9.15705952 4.62884615,9.80769048 C4.01682692,9.18634524 4.56778846,7.8060119 4.56490385,7.8060119 C4.56201923,7.8060119 4.57067308,7.82504762 4.58942308,7.85628571 L4.58942308,7.85628571 L4.57259615,7.41992857 C4.56696087,7.18573028 4.5231782,6.89612556 4.4878464,6.59240694 C3.83326993,7.06842103 3.31588161,7.60757919 2.95347479,8.27618057 C1.31151683,11.2977339 2.73643951,13.1686827 2.73834821,13.1686827 C2.12703285,13.0815324 1.51360049,12.5394354 1.05568976,11.7347481 L1.06684493,11.8292035 L1.06761012,11.9415763 C1.06878892,12.0526133 1.07178373,12.2390739 1.07939215,12.4698241 C1.08020582,12.4727451 1.4834184,16.2871301 2.90396732,18.2433613 C0.429708326,17.4314237 -0.0497730769,12.9641901 -0.126795464,11.9593945 L-0.13568459,11.8330876 C-0.13875629,11.7845526 -0.139929755,11.7586652 -0.139929755,11.7586652 L-0.139929755,11.7586652 C-0.151049491,11.5710246 -0.156799335,11.3784028 -0.153290645,11.1851788 C-0.134617211,10.0380345 0.0243633767,9.0751688 0.323894186,8.29658183 C0.36960908,7.73386588 0.494056037,7.15847153 0.716867745,6.59456992 C1.59296939,4.44176355 5.30227826,1.80868239 7.20870551,1.20003476 C7.57589798,1.08280457 8.64285713,0.999003114 9.85180692,1.0016603 C10.0280006,0.946532216 10.2100614,0.907664114 10.3990438,0.887782794 Z"/>
    <filter id="thunderbird-h" width="118.9%" height="119%" x="-9.5%" y="-4.8%" filterUnits="objectBoundingBox">
      <feOffset dy="1" in="SourceAlpha" result="shadowOffsetOuter1"/>
      <feGaussianBlur in="shadowOffsetOuter1" result="shadowBlurOuter1" stdDeviation=".5"/>
      <feComposite in="shadowBlurOuter1" in2="SourceAlpha" operator="out" result="shadowBlurOuter1"/>
      <feColorMatrix in="shadowBlurOuter1" values="0 0 0 0 0.0817574505   0 0 0 0 0.273489918   0 0 0 0 0.722098214  0 0 0 0.2 0"/>
    </filter>
    <linearGradient id="thunderbird-j" x1="50.011%" x2="50.011%" y1="96.755%" y2="52.831%">
      <stop offset="0%" stop-color="#A4D8E5"/>
      <stop offset="50%" stop-color="#0C418F"/>
      <stop offset="100%" stop-color="#000060"/>
    </linearGradient>
    <linearGradient id="thunderbird-k" x1="49.961%" x2="49.961%" y1="96.763%" y2="52.781%">
      <stop offset="0%" stop-color="#A4D8E5"/>
      <stop offset="50%" stop-color="#154080"/>
      <stop offset="100%" stop-color="#000060"/>
    </linearGradient>
    <linearGradient id="thunderbird-l" x1="52.423%" x2="47.577%" y1="92.162%" y2="0%">
      <stop offset="0%" stop-color="#000060"/>
      <stop offset="100%" stop-color="#3268C3"/>
    </linearGradient>
    <linearGradient id="thunderbird-m" x1="38.538%" x2="9.875%" y1="69.1%" y2="37.555%">
      <stop offset="0%" stop-color="#1A257E"/>
      <stop offset="100%" stop-color="#5A9DD3"/>
    </linearGradient>
    <linearGradient id="thunderbird-n" x1="22.186%" x2="67.429%" y1="31.456%" y2="67.566%">
      <stop offset="0%" stop-color="#4388D0"/>
      <stop offset="67%" stop-color="#17478A"/>
      <stop offset="100%" stop-color="#163784"/>
    </linearGradient>
    <linearGradient id="thunderbird-o" x1="14.173%" x2="50%" y1="50%" y2="73.769%">
      <stop offset="0%" stop-color="#1B4498"/>
      <stop offset="100%" stop-color="#70B5E9" stop-opacity=".329"/>
    </linearGradient>
    <linearGradient id="thunderbird-p" x1="57.015%" x2="34.4%" y1="80.81%" y2="25.594%">
      <stop offset="0%" stop-color="#769EB8"/>
      <stop offset="100%" stop-color="#FFF"/>
    </linearGradient>
    <linearGradient id="thunderbird-q" x1="66.645%" x2="64.382%" y1="-20.242%" y2="93.962%">
      <stop offset="0%" stop-color="#A4CAE5"/>
      <stop offset="50%" stop-color="#0C418F"/>
      <stop offset="100%" stop-color="#160047"/>
    </linearGradient>
    <linearGradient id="thunderbird-r" x1="50%" x2="50%" y1="0%" y2="113.856%">
      <stop offset="0%" stop-color="#4848E6"/>
      <stop offset="50%" stop-color="#0C418F"/>
      <stop offset="82.58%" stop-color="#010765"/>
      <stop offset="100%" stop-color="#000060"/>
    </linearGradient>
    <linearGradient id="thunderbird-s" x1="50%" x2="50%" y1="24.881%" y2="113.856%">
      <stop offset="0%" stop-color="#3C5ADB"/>
      <stop offset="50%" stop-color="#0C418F"/>
      <stop offset="100%" stop-color="#000060"/>
    </linearGradient>
    <linearGradient id="thunderbird-t" x1="49.964%" x2="50%" y1="10.46%" y2="113.856%">
      <stop offset="0%" stop-color="#4674C1"/>
      <stop offset="57.744%" stop-color="#113884"/>
      <stop offset="100%" stop-color="#03196B"/>
    </linearGradient>
    <linearGradient id="thunderbird-u" x1="6.194%" x2="69.562%" y1="33.367%" y2="95.302%">
      <stop offset="0%" stop-color="#3C78AD"/>
      <stop offset="36.587%" stop-color="#5F8FD6"/>
      <stop offset="81.343%" stop-color="#2A56A3"/>
      <stop offset="100%" stop-color="#214383"/>
    </linearGradient>
    <linearGradient id="thunderbird-v" x1="15.052%" x2="38.825%" y1="100%" y2="19.345%">
      <stop offset="0%" stop-color="#3576CA"/>
      <stop offset="100%" stop-color="#3969BC"/>
    </linearGradient>
  </defs>
  <g fill="none" fill-rule="evenodd" filter="url(#thunderbird-a)" transform="translate(1.5 .5)">
    <mask id="thunderbird-d" fill="#fff">
      <use xlink:href="#thunderbird-b"/>
    </mask>
    <path fill="url(#thunderbird-c)" fill-rule="nonzero" d="M6.1201882,17.7505586 C2.86778477,15.7943274 2.29354907,11.4640799 2.30010413,11.4640799 L-0.5,10.75 C-0.5,10.75 -0.270997584,16.8345264 6.1201882,17.7505586 Z" mask="url(#thunderbird-d)"/>
    <path fill="url(#thunderbird-e)" fill-rule="nonzero" d="M1.75046644,15.9559909 C0.700682219,12.2638401 0.988320005,14.1525433 3.47249122,15.7415886 C3.53078896,16.7652785 3.8764777,18.1056173 4.50955745,19.7626047 C3.95621789,19.6760714 2.36791116,17.9434721 1.75046644,15.9559909 Z" mask="url(#thunderbird-d)"/>
    <polygon fill="url(#thunderbird-f)" fill-rule="nonzero" points="7.217 13.058 2.926 6.148 1.053 8.575 .885 14.715 14.291 19.126 17.099 14.296 16.553 9.502" mask="url(#thunderbird-d)"/>
    <path stroke="#CFB596" mask="url(#thunderbird-d)"/>
    <polygon fill="url(#thunderbird-g)" fill-rule="nonzero" points="16.553 9.502 16.368 7.877 3.112 5.906 3.042 5.997 2.926 6.148 7.217 13.058" mask="url(#thunderbird-d)"/>
    <polygon fill="#EED4BA" fill-rule="nonzero" points="3.351 5.884 7.423 12.444 16.375 9.034 16.731 9.969 7.01 13.672 2.501 6.412" mask="url(#thunderbird-d)"/>
    <g fill-rule="nonzero" mask="url(#thunderbird-d)">
      <use fill="#000" filter="url(#thunderbird-h)" xlink:href="#thunderbird-i"/>
      <use fill="#000" fill-opacity=".1" xlink:href="#thunderbird-i"/>
    </g>
    <path fill="url(#thunderbird-j)" fill-rule="nonzero" d="M4.7601767,19.9029449 C4.7601767,19.9029449 2.6711061,19.7589694 0.893630532,16.1900191 C-0.156153693,12.4978683 2.27886854,18.3138996 4.76303975,19.9029449 L4.7601767,19.9029449 L4.7601767,19.9029449 Z" mask="url(#thunderbird-d)"/>
    <path fill="url(#thunderbird-k)" fill-rule="nonzero" d="M-0.139929755,11.7586652 C-0.139929755,11.7586652 0.112495634,17.3273291 2.90396732,18.2433613 C1.4834184,16.2871301 1.08020582,12.4727451 1.08306887,12.4727451 L-0.139929755,11.7586652 L-0.139929755,11.7586652 Z" mask="url(#thunderbird-d)"/>
    <path fill="url(#thunderbird-l)" fill-rule="nonzero" d="M1.50679995,15.2962114 C0.919875138,15.419895 -0.192418966,13.3399802 -0.153290645,11.1851788 C-0.129909087,9.74880556 0.113449983,8.60134965 0.577263741,7.74281105 L1.06684493,11.8292035 C1.06684493,11.8292035 1.06684493,14.6275465 1.509663,15.2962114 L1.50679995,15.2962114 L1.50679995,15.2962114 Z" mask="url(#thunderbird-d)"/>
    <path fill="url(#thunderbird-m)" fill-rule="nonzero" d="M7.20870551,1.20003476 C5.30227826,1.80868239 1.59296939,4.44176355 0.716867745,6.59456992 C-0.472251478,9.60404481 1.14028188,12.9408592 2.73834821,13.1686827 C2.73643951,13.1686827 1.31151683,11.2977339 2.95347479,8.27618057 C4.04525038,6.2619727 6.54357188,5.42253618 9.94964451,3.91997286 C18.3391896,3.17801186 16.2812298,1.77259092 12.7331878,1.20003476 C10.7906755,0.886566834 7.86884271,0.989278777 7.20870551,1.20003476 Z" mask="url(#thunderbird-d)"/>
    <path fill="url(#thunderbird-n)" fill-rule="nonzero" d="M14.22789,1.04348518 C13.6476015,0.925854223 13.0293323,0.887782794 12.4437554,0.843366128 C12.0394284,0.814568509 10.8879861,0.836532794 10.3990438,0.887782794 C9.16490921,1.01761613 8.22596154,1.95716667 7.23317308,2.66978571 C6.32355769,3.31944048 4.98461538,4.02717857 4.58942308,5.16297619 C4.27596154,5.79359524 4.55769231,6.80053571 4.57259615,7.41992857 L4.58942308,7.85628571 C4.57067308,7.82504762 4.56201923,7.8060119 4.56490385,7.8060119 C4.56778846,7.8060119 4.01682692,9.18634524 4.62884615,9.80769048 C4.69471154,9.15705952 5.71298077,8.6567619 5.71634615,8.6567619 L6.46634615,8.27360714 C6.58076923,8.19453571 6.89519231,8.00027381 6.99567308,7.8982619 C7.59423077,7.54683333 8.09567308,7.16075 8.80336538,7.0894881 C9.73701923,6.99430952 10.6071965,7.29068946 11.5322086,7.41992857 C11.9050153,7.47201568 13.8596154,7.74304762 14.5230769,7.31352381 C14.8346154,7.11047619 14.3427885,6.0747381 14.5230769,5.76870238 C14.7379808,5.39433333 14.7644231,5.06584524 14.7605769,4.63778571 C15.2596154,4.51722619 15.8182692,4.30929762 16.1447115,3.87879762 C16.4110577,3.50247619 16.5447115,2.83817857 16.1625,2.47161905 C15.6471154,1.98547619 14.9024092,1.18308041 14.22789,1.04348518 Z" mask="url(#thunderbird-d)"/>
    <path fill="url(#thunderbird-o)" fill-rule="nonzero" d="M5.60769231,7.95634524 C7.89951923,7.88117857 6.68413462,6.29584524 9.74326923,3.29357143 C7.25096154,4.7617619 4.65528846,4.72857143 5.61057692,7.95634524 L5.60769231,7.95634524 L5.60769231,7.95634524 Z" mask="url(#thunderbird-d)"/>
    <path fill="#232371" fill-rule="nonzero" d="M6.78846154,7.03042857 C6.35769231,7.4677619 5.84230769,7.36575 5.80192308,6.78930952 C5.73894231,5.97467857 6.59951923,5.88877381 6.97403846,6.01275 C7.1,6.38175 6.94038462,6.74245238 6.79182692,7.03042857" mask="url(#thunderbird-d)"/>
    <path fill="#C58C3F" fill-rule="nonzero" d="M6.83028846,6.92158333 C6.69086538,7.18466667 6.36682692,7.29058333 6.1875,7.1915 C6.00384615,7.09241667 6.00480769,6.7614881 6.14711538,6.49791667 C6.28413462,6.23483333 6.88942308,6.35295238 6.89230769,6.35295238 C6.89519231,6.35295238 6.96923077,6.6589881 6.82980769,6.92158333 L6.83028846,6.92158333 Z" mask="url(#thunderbird-d)"/>
    <path fill="#000" fill-rule="nonzero" d="M6.21778846,6.93720238 C6.34423077,7.09729762 6.5375,7.15440476 6.65144231,7.06459524 C6.76105769,6.97332143 6.81153846,6.70633333 6.68701923,6.5462381 C6.55913462,6.38516667 6.30384615,6.39297619 6.19519231,6.48327381 C6.07884615,6.57308333 6.09086538,6.77710714 6.22067308,6.93720238 L6.21778846,6.93720238 L6.21778846,6.93720238 Z" mask="url(#thunderbird-d)"/>
    <path fill="url(#thunderbird-p)" fill-rule="nonzero" d="M5.73990385,8.62259524 C5.73990385,8.62259524 5.73990385,8.37269048 5.66875,8.12229762 C4.82019231,8.41466667 4.55769231,7.8060119 4.56057692,7.8060119 C4.56346154,7.8060119 4.01153846,9.18634524 4.62403846,9.80769048 C4.68990385,9.15705952 5.70817308,8.6567619 5.71105769,8.6567619" mask="url(#thunderbird-d)"/>
    <path fill="#000" fill-rule="nonzero" d="M4.63857122,8.98434596 C4.63857122,8.98434596 4.64875405,8.40248733 4.91011348,8.29656981 C4.90739805,8.41074065 5.04113262,8.49946377 5.17622489,8.49946377 C4.81167941,8.53591591 4.63857122,8.98434596 4.64332321,8.98434596 L4.63925007,8.98434596 L4.63857122,8.98434596 Z" mask="url(#thunderbird-d)"/>
    <path fill="url(#thunderbird-q)" d="M20.79504,9.13070732 L16.49712,7.33104878 L16.128,11.5040793 C16.17504,11.7733537 16.20672,12.0647866 16.22736,12.3730793 C16.22208,12.3215366 16.2192,12.2724024 16.21824,12.2218232 C15.86112,17.9575122 12.4704,20.8949634 10.7688,21.652689 C12.90768,21.8005732 14.22144,21.0539268 14.22432,21.0539268 C14.2272,21.0539268 13.93776,21.4055732 13.17504,21.8747561 C14.13504,21.8747561 16.5216,20.961439 16.992,19.9980244 L17.23584,20.0967744 C17.23488,20.0967744 21.8856,16.8375427 20.79792,9.13070732 L20.79504,9.13070732 L20.79504,9.13070732 Z" mask="url(#thunderbird-d)"/>
    <path fill="url(#thunderbird-r)" fill-rule="nonzero" d="M16.3797823,7.41908965 L16.0106623,11.5921201 C16.0500223,11.8180409 16.0783423,12.0603396 16.0989823,12.3141994 C16.1028223,12.3604433 16.1057023,12.4095775 16.1119423,12.4611201 C16.1066623,12.411986 16.1028223,12.3633335 16.1018623,12.3151628 C16.0869823,12.5232604 16.0697023,12.727986 16.0519423,12.9293396 C15.9967423,13.8282055 15.9103046,15.7952149 16.4647046,16.8058369 C16.8415046,16.2335686 17.2989823,15.2208214 17.4305023,14.505486 C17.4895423,15.2319006 17.1473023,16.1649677 16.8117823,16.8889738 C16.5708839,17.4262077 16.5003547,17.7205157 16.6001947,17.7718978 C16.6558747,17.7955014 17.1667859,17.4485399 17.3757823,17.2536262 C17.8471423,16.6688335 18.6127423,15.5874006 18.8114623,14.505486 C18.8805823,15.3590714 18.1515081,16.7465694 17.7723081,17.4956243 C19.3884681,17.0519718 20.7348223,13.2472665 20.7573823,13.1841628 C20.8841023,12.0198762 20.8869823,10.701925 20.6805823,9.21874818 L16.3797823,7.41908965 Z" mask="url(#thunderbird-d)"/>
    <path fill="url(#thunderbird-s)" fill-rule="nonzero" d="M17.43216,11.0840305 C17.7024,12.6645122 16.64448,14.985378 16.6473541,14.985378 C16.65024,14.985378 18.228,14.6746768 18.92592,11.2993537 C18.92592,11.2993537 18.77712,13.6433415 18.46944,14.195378 C18.46752,14.195378 19.99296,13.479561 20.31552,10.5657134 C20.63856,7.65186585 18.54192,5.87388415 17.8776,6.21975 C17.43504,6.4500061 17.28624,8.07143293 17.43216,11.0840305 L17.43216,11.0840305 Z" mask="url(#thunderbird-d)"/>
    <path fill="url(#thunderbird-t)" fill-rule="nonzero" d="M20.8512,9.46838415 C20.8512,9.46742073 20.8512,9.46742073 20.85408,9.46645732 C20.69472,8.43223171 20.41776,7.44954878 20.04576,6.56561585 C19.08816,4.31122561 17.49792,2.93546951 15.65712,2.36753659 C11.47248,1.97253659 9.4056,4.91865854 9.40847699,4.91865854 C10.98528,4.91865854 12.6744,5.42637805 13.7736,7.03479878 C15.03744,8.8922622 15.51264,11.994939 14.11824,13.874561 C14.11632,13.874561 17.01936,13.479561 16.72704,8.63936585 C16.72512,8.63936585 17.75856,10.6644634 16.4328,13.4545122 C16.43088,13.4545122 19.11264,12.7878293 18.27936,7.60273171 C18.27744,7.60273171 18.89232,8.78773171 18.6984,11.5286463 C18.69648,11.5286463 19.80384,10.7564695 19.80672,8.39273171 C19.8048,8.39273171 20.56752,10.8865305 19.80768,12.4670122 C19.80576,12.4670122 19.81872,12.4236585 19.8768,12.3798232 C20.11392,12.1784695 21.04464,11.3802805 20.85408,9.46838415 L20.8512,9.46838415 L20.8512,9.46838415 Z" mask="url(#thunderbird-d)"/>
    <path fill="url(#thunderbird-u)" fill-rule="nonzero" d="M13.95168,7.32575 C14.484,8.21209146 14.80704,9.23138415 14.92128,10.2574207 C14.99808,10.4669634 15.19776,10.8027134 15.47328,10.7256402 C15.69984,10.6606098 15.90528,10.398561 16.0392,10.2102134 C16.20864,9.96406098 16.27536,9.66492073 16.43808,9.41491463 C16.51344,9.29159756 16.62,9.18273171 16.63488,9.0305122 C16.63776,8.97752439 16.61904,8.66152439 16.728,8.67115854 C16.72512,8.66056098 16.72512,8.65044512 16.72704,8.63936585 C16.72512,8.63936585 16.73232,8.65429878 16.74672,8.68031098 C16.8216,8.74534146 16.8504,8.89756098 16.8816,8.98812195 C16.92432,9.13167073 16.96224,9.27666463 17.00064,9.42165854 C17.06112,9.67070122 17.23104,10.1191707 17.54928,9.84170732 C17.69376,9.71212805 17.78352,9.51559146 17.86224,9.33880488 C17.93376,9.16683537 17.97696,8.99534756 18.00576,8.80940854 C18.0528,8.4577622 18.0384,7.97798171 18.29904,7.70051829 C18.29232,7.6677622 18.28704,7.6350061 18.28512,7.60273171 C18.2832,7.60273171 18.30288,7.64078659 18.33744,7.71785976 C18.4536,7.79589634 18.61584,7.87007927 18.75552,7.7930061 C18.88272,7.72123171 18.93888,7.55793293 18.97632,7.42353659 C19.0272,7.21832927 19.04592,7.0030061 19.08912,6.79346341 C19.13472,6.55357317 19.18272,6.30742073 19.16592,6.06271341 C19.27056,6.30453049 19.3848,6.53960366 19.47888,6.78864634 C19.5528,6.99529878 19.62864,7.20339634 19.64544,7.4245 C19.6584,7.61236585 19.65408,7.80119512 19.68,7.98857927 C19.6968,8.13790854 19.73088,8.32143902 19.86384,8.41633537 C19.92096,7.6152561 20.04384,6.74818293 19.788,5.96878049 C19.36992,5.15517683 18.82752,4.40226829 18.1536,3.78616463 C17.4408,3.13923171 16.59552,2.65029878 15.68112,2.36753659 C11.496,1.97253659 9.4296,4.92010366 9.43247699,4.92010366 C10.28256,4.92010366 11.14368,5.0679878 11.9232,5.43167683 C12.76272,5.8382378 13.45776,6.50395732 13.95456,7.32575 L13.95168,7.32575 L13.95168,7.32575 Z" mask="url(#thunderbird-d)"/>
    <path fill="url(#thunderbird-v)" fill-rule="nonzero" d="M4.5,5.32433231 C5.84278846,1.16185612 8.42108618,0 8.4239708,0 C7.39476359,1.0686841 7.02713324,1.92484514 7.03001785,1.92484514 C7.37713324,1.74669038 7.8083976,0.861021684 8.71964387,0.700904762 C7.92926473,1.36722364 7.97530522,1.76865896 7.97818984,1.76865896 C8.21376676,1.66859944 8.15185541,1.5892381 8.95137464,1.2509881 C8.4239708,1.58428277 8.20691634,2.12706651 8.20980096,2.12706651 C7.55423083,2.55050181 6.91784098,2.98176185 6.30063142,3.42084663 C5.68342187,3.85993141 5.08321139,4.49442664 4.5,5.32433231 Z"/>
  </g>
</svg>
