<svg xmlns="http://www.w3.org/2000/svg" width="24" height="24" viewBox="0 0 24 24">
  <defs>
    <filter id="uos-service-support-a" width="147.1%" height="138.9%" x="-26.5%" y="-19.4%" filterUnits="objectBoundingBox">
      <feOffset in="SourceAlpha" result="shadowOffsetOuter1"/>
      <feGaussianBlur in="shadowOffsetOuter1" result="shadowBlurOuter1" stdDeviation=".5"/>
      <feColorMatrix in="shadowBlurOuter1" result="shadowMatrixOuter1" values="0 0 0 0 0   0 0 0 0 0   0 0 0 0 0  0 0 0 0.15 0"/>
      <feMerge>
        <feMergeNode in="shadowMatrixOuter1"/>
        <feMergeNode in="SourceGraphic"/>
      </feMerge>
    </filter>
    <radialGradient id="uos-service-support-b" cx="50%" cy="-3.497%" r="99.993%" fx="50%" fy="-3.497%" gradientTransform="matrix(0 .98244 -1.04 0 .464 -.526)">
      <stop offset="0%" stop-color="#DE7F56"/>
      <stop offset="100%" stop-color="#A83733"/>
    </radialGradient>
    <linearGradient id="uos-service-support-c" x1="50%" x2="50%" y1="2.427%" y2="100%">
      <stop offset="0%" stop-color="#BB726A"/>
      <stop offset="100%" stop-color="#600707"/>
    </linearGradient>
    <linearGradient id="uos-service-support-d" x1="50%" x2="50%" y1="0%" y2="96.905%">
      <stop offset="0%" stop-color="#FFF"/>
      <stop offset="100%" stop-color="#FFF" stop-opacity=".748"/>
    </linearGradient>
    <filter id="uos-service-support-e" width="166.7%" height="166.7%" x="-29.2%" y="-37.5%" filterUnits="objectBoundingBox">
      <feOffset in="SourceAlpha" result="shadowOffsetOuter1"/>
      <feGaussianBlur in="shadowOffsetOuter1" result="shadowBlurOuter1" stdDeviation=".5"/>
      <feColorMatrix in="shadowBlurOuter1" result="shadowMatrixOuter1" values="0 0 0 0 0   0 0 0 0 0   0 0 0 0 0  0 0 0 0.15 0"/>
      <feMerge>
        <feMergeNode in="shadowMatrixOuter1"/>
        <feMergeNode in="SourceGraphic"/>
      </feMerge>
    </filter>
    <radialGradient id="uos-service-support-f" cx="50%" cy="10.248%" r="105.558%" fx="50%" fy="10.248%">
      <stop offset="0%" stop-color="#7EC386"/>
      <stop offset="100%" stop-color="#45704A"/>
    </radialGradient>
    <linearGradient id="uos-service-support-g" x1="59.639%" x2="59.639%" y1="104.678%" y2="6.469%">
      <stop offset="0%" stop-color="#0F4116"/>
      <stop offset="100%" stop-color="#366D3A"/>
    </linearGradient>
    <linearGradient id="uos-service-support-h" x1="50%" x2="50%" y1="0%" y2="100%">
      <stop offset="0%" stop-color="#FFF"/>
      <stop offset="100%" stop-color="#FFF" stop-opacity=".6"/>
    </linearGradient>
  </defs>
  <g fill="none" fill-rule="evenodd">
    <g fill-rule="nonzero" filter="url(#uos-service-support-a)" transform="translate(6.188 2.625)">
      <path fill="url(#uos-service-support-b)" stroke="url(#uos-service-support-c)" stroke-linejoin="round" d="M8.6875,-0.125 C11.1727814,-0.125 13.4227814,0.882359313 15.051461,2.51103897 C16.6801407,4.13971863 17.6875,6.38971863 17.6875,8.875 C17.6875,11.3602814 16.6801407,13.6102814 15.051461,15.238961 C13.4227814,16.8676407 11.1727814,17.875 8.6875,17.875 C7.30770847,17.875 6.00048828,17.5643547 4.83180164,17.0094604 L4.83180164,17.0094604 L1.1542916,17.9475288 L2.540291,15.4486133 C0.784657437,13.8062481 -0.3125,11.4687348 -0.3125,8.875 C-0.3125,6.38971863 0.694859313,4.13971863 2.32353897,2.51103897 C3.95221863,0.882359313 6.20221863,-0.125 8.6875,-0.125 L8.6875,-0.125 Z" transform="matrix(-1 0 0 1 16.875 0)"/>
      <path fill="url(#uos-service-support-d)" d="M10.6664123,10.3924338 C10.7228473,10.1298915 10.7812099,9.93833026 10.8415,9.81775 C10.9605,9.57125 11.1305,9.35875 11.3515,9.18025 C11.9465,8.66175 12.312,8.326 12.448,8.173 C12.7625,7.7565 12.91975,7.23375 12.91975,6.60475 C12.91975,5.82275 12.66475,5.21075 12.15475,4.76875 C11.65325,4.31825 10.98175,4.093 10.14025,4.093 C9.20525,4.093 8.4615,4.36075 7.909,4.89625 C7.3565,5.42325 7.08025,6.423 7.08025,7.375 L8.53375,7.375 C8.53375,6.831 8.64,6.15425 8.8525,5.86525 C9.0905,5.51675 9.49,5.3425 10.051,5.3425 C10.493,5.3425 10.833,5.4615 11.071,5.6995 C11.309,5.9545 11.428,6.286 11.428,6.694 C11.428,7.017 11.31325,7.31875 11.08375,7.59925 L10.93075,7.77775 C10.09775,8.51725 9.6005,9.057 9.439,9.397 C9.34681273,9.57676517 9.26477186,9.90265294 9.19287736,10.3746633 L10.6664123,10.3924338 Z M9.91075,13.375 C10.19125,13.375 10.425,13.28575 10.612,13.10725 C10.8075,12.92875 10.90525,12.695 10.90525,12.406 C10.90525,12.134 10.81175,11.9045 10.62475,11.7175 C10.43775,11.539 10.19975,11.44975 9.91075,11.44975 C9.63875,11.44975 9.405,11.539 9.2095,11.7175 C9.0225,11.896 8.929,12.1255 8.929,12.406 C8.929,12.6865 9.0225,12.916 9.2095,13.0945 C9.4135,13.2815 9.64725,13.375 9.91075,13.375 Z"/>
    </g>
    <g filter="url(#uos-service-support-e)" transform="translate(.938 9.375)">
      <path fill="url(#uos-service-support-f)" stroke="url(#uos-service-support-g)" stroke-linejoin="round" d="M5.9375,-0.875 C7.73242544,-0.875 9.35742544,-0.147462718 10.5336941,1.02880592 C11.7099627,2.20507456 12.4375,3.83007456 12.4375,5.625 C12.4375,7.12950447 11.9263131,8.51459722 11.0682286,9.61615048 L11.0682286,9.61615048 L13.0432675,12.3191054 L8.53498498,11.6072713 C7.76952871,11.9250079 6.87687245,12.125 5.9375,12.125 C4.14257456,12.125 2.51757456,11.3974627 1.34130592,10.2211941 C0.165037282,9.04492544 -0.5625,7.41992544 -0.5625,5.625 C-0.5625,3.83007456 0.165037282,2.20507456 1.34130592,1.02880592 C2.51757456,-0.147462718 4.14257456,-0.875 5.9375,-0.875 Z" transform="matrix(-1 0 0 1 12 0)"/>
      <path fill="url(#uos-service-support-h)" fill-rule="nonzero" d="M2.74708919,5.73752775 L4.65004939,6.81967313 C4.71564622,6.8569757 4.79721296,6.85131908 4.85703279,6.80531893 L9.37382824,3.33200087 C9.54965776,3.19679176 9.79936814,3.21697273 9.95120301,3.37866286 C10.0994422,3.53652396 10.0930279,3.78428386 9.93681899,3.93426305 L5.0166019,8.65825727 C4.8720613,8.79703346 4.64395751,8.79765925 4.49865764,8.65967821 L2.07765127,6.36061938 C1.92710837,6.21765941 1.92096118,5.97972832 2.06392115,5.82918541 C2.07114216,5.82158138 2.0786782,5.81428284 2.08650949,5.80730894 C2.26896797,5.64482637 2.53470861,5.61675451 2.74708919,5.73752775 Z"/>
    </g>
  </g>
</svg>
