<svg xmlns="http://www.w3.org/2000/svg" xmlns:xlink="http://www.w3.org/1999/xlink" width="24" height="24" viewBox="0 0 24 24">
  <defs>
    <filter id="deepin-browser-a" width="138.1%" height="126.3%" x="-21.4%" y="-13.2%" filterUnits="objectBoundingBox">
      <feOffset in="SourceAlpha" result="shadowOffsetOuter1"/>
      <feGaussianBlur in="shadowOffsetOuter1" result="shadowBlurOuter1" stdDeviation=".5"/>
      <feColorMatrix in="shadowBlurOuter1" result="shadowMatrixOuter1" values="0 0 0 0 0   0 0 0 0 0   0 0 0 0 0  0 0 0 0.15 0"/>
      <feMerge>
        <feMergeNode in="shadowMatrixOuter1"/>
        <feMergeNode in="SourceGraphic"/>
      </feMerge>
    </filter>
    <radialGradient id="deepin-browser-b" cx="43.349%" cy="37.544%" r="81.05%" fx="43.349%" fy="37.544%" gradientTransform="matrix(.15065 .98859 -.97682 .14886 .735 -.109)">
      <stop offset="0%" stop-color="#C6E2FF"/>
      <stop offset="100%" stop-color="#316297"/>
      <stop offset="100%"/>
    </radialGradient>
    <radialGradient id="deepin-browser-c" cx="50%" cy="22.004%" r="87.601%" fx="50%" fy="22.004%" gradientTransform="scale(.94444 1) rotate(13.391 .515 .345)">
      <stop offset="0%" stop-color="#779CC6"/>
      <stop offset="50%" stop-color="#1D436F"/>
      <stop offset="100%" stop-color="#15304F"/>
    </radialGradient>
    <linearGradient id="deepin-browser-d" x1="50%" x2="50%" y1=".124%" y2="114.522%">
      <stop offset="0%" stop-color="#FFF"/>
      <stop offset="100%" stop-color="#E9ECF2"/>
      <stop offset="100%" stop-color="#B2D0E0"/>
      <stop offset="100%" stop-color="#FFF"/>
    </linearGradient>
    <path id="deepin-browser-e" d="M20.605394,2.36903635 C21.9274359,4.07299276 18.4492746,8.78437395 12.8367034,12.8922008 C7.22413212,17.0000276 1.60251744,18.9487496 0.280475556,17.2447932 C-0.372709231,16.4029148 0.145873112,14.8269006 1.51470925,12.9522599 C1.55209308,12.9010622 1.59011109,12.8496417 1.62875673,12.7980074 C1.63501359,12.7896477 1.64443587,12.7770954 1.65702356,12.7603508 C1.67610933,12.7308525 1.69373722,12.7037438 1.70990722,12.6790247 C1.79902428,12.9454216 1.90037398,13.2046678 2.01272669,13.4574 C1.989572,13.4955644 1.96736137,13.5305592 1.95645729,13.5491778 C1.2441399,14.7654489 1.0440066,15.7645637 1.49997067,16.3522477 C2.65675731,17.8432096 7.59841958,16.1214276 12.5374823,12.50654 C17.476545,8.89165244 20.5426855,4.75254362 19.3858989,3.26158176 C18.941707,2.68907058 17.9556932,2.61228451 16.5718481,2.92799639 C16.5566822,2.93145636 16.5240148,2.93935687 16.487014,2.94839895 C16.2755718,2.759372 16.0567724,2.57957334 15.8300767,2.41024585 C15.9247079,2.37621985 16.0313762,2.33769867 16.0521015,2.33083527 C18.242622,1.60541883 19.9663821,1.54542522 20.605394,2.36903635 Z"/>
    <filter id="deepin-browser-f" width="119.2%" height="124.9%" x="-9.6%" y="-12.4%" filterUnits="objectBoundingBox">
      <feGaussianBlur in="SourceAlpha" result="shadowBlurInner1" stdDeviation="1.5"/>
      <feOffset dy="1" in="shadowBlurInner1" result="shadowOffsetInner1"/>
      <feComposite in="shadowOffsetInner1" in2="SourceAlpha" k2="-1" k3="1" operator="arithmetic" result="shadowInnerInner1"/>
      <feColorMatrix in="shadowInnerInner1" values="0 0 0 0 1   0 0 0 0 1   0 0 0 0 1  0 0 0 0.5 0"/>
    </filter>
    <linearGradient id="deepin-browser-i" x1="50%" x2="50%" y1="0%" y2="100%">
      <stop offset="0%" stop-opacity=".05"/>
      <stop offset="100%" stop-opacity=".07"/>
    </linearGradient>
    <path id="deepin-browser-h" d="M20.605394,2.36903635 C21.9274359,4.07299276 18.4492746,8.78437395 12.8367034,12.8922008 C7.22413212,17.0000276 1.60251744,18.9487496 0.280475556,17.2447932 C-0.372709231,16.4029148 0.145873112,14.8269006 1.51470925,12.9522599 C1.55209308,12.9010622 1.59011109,12.8496417 1.62875673,12.7980074 C1.63501359,12.7896477 1.64443587,12.7770954 1.65702356,12.7603508 C1.67610933,12.7308525 1.69373722,12.7037438 1.70990722,12.6790247 C1.79902428,12.9454216 1.90037398,13.2046678 2.01272669,13.4574 C1.989572,13.4955644 1.96736137,13.5305592 1.95645729,13.5491778 C1.2441399,14.7654489 1.0440066,15.7645637 1.49997067,16.3522477 C2.65675731,17.8432096 7.59841958,16.1214276 12.5374823,12.50654 C17.476545,8.89165244 20.5426855,4.75254362 19.3858989,3.26158176 C18.941707,2.68907058 17.9556932,2.61228451 16.5718481,2.92799639 C16.5566822,2.93145636 16.5240148,2.93935687 16.487014,2.94839895 C16.2755718,2.759372 16.0567724,2.57957334 15.8300767,2.41024585 C15.9247079,2.37621985 16.0313762,2.33769867 16.0521015,2.33083527 C18.242622,1.60541883 19.9663821,1.54542522 20.605394,2.36903635 Z"/>
    <filter id="deepin-browser-g" width="128.7%" height="137.2%" x="-14.4%" y="-18.7%" filterUnits="objectBoundingBox">
      <feGaussianBlur in="SourceAlpha" result="shadowBlurInner1" stdDeviation="1.5"/>
      <feOffset dy="1" in="shadowBlurInner1" result="shadowOffsetInner1"/>
      <feComposite in="shadowOffsetInner1" in2="SourceAlpha" k2="-1" k3="1" operator="arithmetic" result="shadowInnerInner1"/>
      <feColorMatrix in="shadowInnerInner1" values="0 0 0 0 1   0 0 0 0 1   0 0 0 0 1  0 0 0 0.5 0"/>
    </filter>
  </defs>
  <g fill="none" filter="url(#deepin-browser-a)" transform="translate(1.5 2.413)">
    <path fill="url(#deepin-browser-b)" d="M11.4600007,18.7898184 C16.4651788,18.1698041 20.0289979,13.610794 19.4200135,8.60698439 C18.8110292,3.60317475 14.2598513,0.0494064421 9.25467323,0.669420727 C4.24949517,1.28943501 0.685676026,5.84844509 1.29466039,10.8522547 C1.90364475,15.8560644 6.45482262,19.4098327 11.4600007,18.7898184 L11.4600007,18.7898184 Z"/>
    <path fill="url(#deepin-browser-c)" d="M8.09864527,1.23491105 L7.91941944,1.48545622 L7.56581139,1.53949538 L7.26548689,1.686875 L7.10563673,1.76547728 L7.06688524,1.81951645 L6.85859561,1.87355561 L6.71327735,2.15357683 L6.56311502,1.84899234 C6.54375244,1.85901892 6.52426443,1.86829637 6.50498771,1.87846839 L6.47592406,1.95215805 L6.51467555,2.35499546 L6.22403888,2.59571539 L6.05450088,3.0280287 L6.40810877,3.0280287 L6.53889528,2.74309486 L6.58249084,2.63992931 C6.7320602,2.5317026 6.87577798,2.41986902 7.0281336,2.31569432 L7.38174165,2.43851052 C7.61287905,2.59916695 7.83341031,2.74480095 8.0647377,2.90521235 L8.41834559,2.59571539 L8.03567405,2.43851052 L7.86613605,2.0749744 L7.19767175,1.99637196 L7.18313909,1.91285691 L7.47377576,1.96689607 L7.64331376,1.80477858 L7.98723382,1.72617614 C8.07499064,1.68249876 8.16012775,1.65337474 8.24880684,1.61809782 L8.02598545,1.84407972 L8.82523627,2.39429676 L8.82523627,2.71853174 L8.51037986,3.04276673 L8.93180304,3.8877427 L9.20790781,3.72562521 L9.54698395,3.1606703 C10.0404268,3.00458744 10.4864727,2.82541889 10.9517277,2.61045341 L10.9420393,2.70379372 L11.1890804,2.86591121 L11.5959717,2.58589014 L11.3876822,2.34517022 L11.1115772,2.50237509 L11.0970461,2.50237509 L11.4894055,1.48545622 L10.5835879,1.12192009 L9.54698395,1.24473629 L8.34084171,1.57879668 C8.46167762,1.53368355 8.59259978,1.48786899 8.71867025,1.44615508 L8.55397602,1.11700732 C8.39989995,1.15215284 8.24943939,1.19143083 8.09864527,1.23491105 Z M6.97807934,2.45670334 L7.49037682,2.96416424 L7.9016578,2.96416424 L7.9016578,2.37550978 L7.38936032,2.04058578 L6.97807934,2.45670334 Z M14.5144145,2.04058578 L13.9057292,2.18734076 L13.5210401,2.44171626 L13.5210401,2.66674062 L12.9172243,3.0678711 L13.0487003,3.65489133 L13.4041725,3.40051583 L13.6281688,3.65489133 L13.8813818,3.80164631 L14.0372052,3.36138122 L13.944685,3.10700571 L14.0372052,2.92111597 L14.3926774,2.58847124 L14.5533703,2.58847124 L14.3926774,2.96025073 L14.3926774,3.29778727 C14.5397551,3.25722084 14.6950059,3.23359341 14.8455392,3.21462608 L14.4218942,3.5081362 L14.3926774,3.69891775 L13.9057292,4.09515643 L13.4333894,3.99242786 L13.4333894,3.69891775 L13.2045238,3.84567288 L13.2970439,4.09515643 L12.9561802,4.09515643 L12.7565314,4.43269296 L12.5179268,4.71152765 L12.0845429,4.79468884 L12.337756,5.05884795 L12.4010592,5.3132233 L12.0845429,5.3132233 L11.6755064,5.52846405 L11.6755064,6.19375365 L11.8605468,6.19375365 L12.0309786,6.39431881 L12.440015,6.19375365 L12.6007079,5.79262316 L12.8880074,5.60673342 L12.9561802,5.45997829 L13.4333894,5.35235791 L13.6817331,5.64586803 L13.9739018,5.79262316 L13.8132089,6.11548427 L14.0664221,6.04699851 L14.1978981,5.71435379 L13.8813818,5.35235791 L14.0128578,5.35235791 L14.3293741,5.60673342 L14.3926774,5.96872914 L14.6848463,6.30137402 L14.7384106,5.82197416 L14.9088424,5.7534884 C15.06712,5.92000371 15.184568,6.11397082 15.3178789,6.30137402 L15.7950884,6.34050863 L16.0823875,6.53129018 L15.9655193,6.70250435 L15.6733506,6.97155528 L15.2545757,6.97155528 L14.7091937,6.78077372 L14.4218942,6.8248003 L14.207637,7.04982465 L13.6281688,6.448129 L13.2045238,6.34050863 L12.6007079,6.40899439 L12.0601955,6.55574937 C11.7548361,6.90659132 11.4483704,7.2578067 11.1593414,7.62216946 L10.8038691,8.46845685 L10.964562,8.65434659 L10.6723932,9.09461169 L11.0035179,9.86752166 C11.2757141,10.1795792 11.5351952,10.4895822 11.8069825,10.801862 L12.2160189,10.4545417 L12.3864507,10.6551071 L12.8247042,10.3762725 L12.9707886,10.5523785 L13.4041725,10.5523785 L13.6427771,10.831213 L13.4966927,11.3399639 L13.7986006,11.6872842 L13.788861,12.2889798 L14.0128572,12.7292451 L13.8424254,13.1010246 C13.8264534,13.3712189 13.8132083,13.6330459 13.8132083,13.9032854 C13.9444116,14.2693888 14.0740218,14.6449947 14.1978975,15.0137313 L14.2904176,15.6007527 L14.2904176,15.8942627 L14.5144139,15.8942627 L14.869886,15.6692377 L15.293531,15.6692377 L15.911955,14.9452463 L15.8340435,14.7202213 L16.2430804,14.34355 L15.9411721,13.9962303 L16.3063842,13.6880447 L16.666725,13.4630203 L16.8225482,13.2771306 L16.7300289,12.8760001 L16.7300289,11.8487147 L17.0221976,11.2176681 L17.363061,10.8165376 L17.7477506,9.86752166 L17.7477506,9.60336254 C17.5639485,9.62681594 17.3869338,9.64347281 17.2072378,9.65717273 L17.5773182,9.28050143 L18.1032232,8.90872194 L18.395392,8.58586083 L18.395392,8.21408134 C18.3313138,8.09161443 18.2602386,7.97455161 18.1957426,7.85208562 L17.9473985,8.14559574 L17.7477506,7.92057138 L17.4701896,7.70533064 L17.4701896,7.22593078 L17.8013149,7.61238569 L18.1713953,7.55857551 C18.3391112,7.71286514 18.496653,7.84763444 18.6437345,8.02329979 L18.9845993,7.63684488 C18.6181782,5.5446935 17.4968355,3.71667004 15.9168248,2.4368243 L15.8340435,2.62760585 L15.5175277,3.00427715 L15.0938827,2.55912025 L15.5175277,2.55912025 L15.7025676,2.33409589 L14.9380593,2.18734076 L14.5144145,2.04058578 Z M5.48525922,2.40112705 C5.48525922,2.40112705 5.29931571,2.41394539 5.1629022,2.42582168 C3.59167338,3.87404297 2.5400224,5.98330567 2.36018703,8.36734491 C2.4642472,8.56084748 2.70940712,8.94519876 2.70940712,8.94519876 L3.31382648,9.35019039 L3.90929166,9.52305261 L4.16449092,9.90334962 L4.56296,10.2293185 L4.79577335,10.1848683 L4.96590624,10.2787077 L4.96590624,10.3330359 L4.73309289,11.0343628 L4.56296,11.3306982 L4.6256406,11.4788658 L4.47789363,12.0221472 L5.00172376,13.0840155 L5.51212229,13.5976634 L5.74045862,13.9779604 L5.7046411,14.7434933 L5.88820559,15.1781184 L5.7046411,16.0276135 C5.7046411,16.0276135 5.72265947,16.1466402 5.74045862,16.2498653 C6.01239227,16.457169 6.2958772,16.6489132 6.59112293,16.8178412 C6.66245629,16.7496687 6.79707334,16.6054662 6.79707334,16.6054662 L6.7388699,16.432605 L6.96720609,16.1757803 L7.0522726,15.9189572 L7.42835577,15.7707888 L7.70594095,14.9608059 L7.62087457,14.7434933 L7.831302,14.407646 L8.252157,14.2989897 L8.48497049,13.7063197 L8.42228989,12.9802981 L8.76255567,12.4271389 L8.82523627,11.8739796 C8.35630342,11.6100152 7.89378194,11.3505859 7.42835577,11.078813 L7.20001958,10.5503484 L6.77468742,10.4416922 L6.54187394,9.75518202 L5.97327197,9.82432685 L5.48525922,9.41933522 L4.96590624,9.92804424 L4.96590624,10.0120059 C4.81030813,9.96102406 4.61646776,9.96054039 4.47789363,9.86383831 L4.3704412,9.49835799 L4.3704412,9.09336651 L4.03017542,9.12300003 C4.05875784,8.8659919 4.08645182,8.60949119 4.11524193,8.35252808 L3.90929166,8.35252808 L3.71677285,8.64886342 L3.51082244,8.75751971 L3.2287601,8.57971859 L3.19294272,8.17472696 L3.25562317,7.73022387 L3.67647817,7.3696826 L4.03017542,7.3696826 L4.07942441,7.13755334 L4.51818817,7.26102631 L4.83159087,7.69071256 L4.88083986,6.96469097 L5.42705592,6.4510432 L5.61957472,5.89788382 L6.02252096,5.71020477 L6.25085715,5.3447246 L6.77468742,5.23606831 L7.02988669,4.79156537 L6.25085715,4.79156537 L6.7388699,4.53474134 L7.07465852,4.53474134 L7.56267113,4.35694023 L7.62087457,4.12974971 L7.45521884,3.95688749 L7.25822288,3.87292583 L7.30747187,3.65561325 L7.1731565,3.33458328 L6.82393641,3.4679342 L6.88213971,3.18641569 L6.48367063,2.92959165 L6.16579077,3.55189586 L6.19265385,3.76426954 L5.88820559,3.91243713 L5.68225518,4.38657374 L5.5971888,3.95688749 L5.05097275,3.70006361 L4.96590624,3.35927791 L5.68225518,2.89008035 L5.99565788,2.5542337 L6.02252096,2.14924207 L5.85238807,2.04058578 L5.48525922,2.40112705 Z M11.5959717,4.05999737 L11.7633315,4.18094218 L11.7633315,4.44848685 L11.6765523,4.81132116 L12.1662347,4.74901627 L12.5195501,4.54011164 L12.2158229,4.36052691 C12.11144,4.19478414 11.9931079,4.04671199 11.8625078,3.8877427 L11.5959717,3.8877427 L11.5959717,4.05999737 Z M10.6723932,4.02715081 L10.8360651,4.81132116 L11.5959717,4.53250523 L11.2803182,3.8877427 L10.6723932,4.02715081 Z M7.85152071,5.73489963 L8.06790193,5.21287698 L7.73541368,4.81132116 L7.85152071,5.73489963 Z M16.5500325,7.91645551 L16.8685069,8.68079608 L17.0489765,8.91965251 L16.953434,9.19035641 L17.1374424,9.41726997 C17.0545728,9.42373092 16.9714529,9.42921347 16.8861999,9.42921347 C16.7380824,9.07592786 16.6239294,8.72395046 16.5111077,8.35435958 L16.3200229,8.10356026 L16.213864,7.66963786 L16.2810981,7.58205655 L16.5500325,7.91645551 Z" opacity=".392"/>
    <use fill="url(#deepin-browser-d)" xlink:href="#deepin-browser-e"/>
    <use fill="#000" filter="url(#deepin-browser-f)" xlink:href="#deepin-browser-e"/>
    <use fill="#000" filter="url(#deepin-browser-g)" xlink:href="#deepin-browser-h"/>
    <path stroke="url(#deepin-browser-i)" d="M18.9124283,1.27858432 C19.9178481,1.26990787 20.6109771,1.56057034 21.0004358,2.06253683 C21.4053079,2.58436929 21.5039309,3.32607363 21.2308748,4.25339853 C20.9958195,5.05166879 20.4821466,5.99888788 19.7237866,7.02613274 C18.2942881,8.96247546 15.9858249,11.2069782 13.1320084,13.2956793 C10.2793025,15.3835676 7.42297546,16.9197282 5.11340468,17.7203365 C3.89206285,18.1437123 2.81705753,18.3619816 1.96514802,18.3614119 C0.98517416,18.3607565 0.285628598,18.0670968 -0.114566265,17.5512927 C-0.515408023,17.0346548 -0.616112522,16.3029663 -0.35337592,15.3891963 C-0.127240787,14.6027224 0.371603484,13.6698844 1.11090149,12.6574051 C1.34287971,12.3397077 1.57459751,12.0469484 1.80431004,11.7808677 C1.89307238,12.083839 1.96953034,12.4484257 2.01251248,12.9054417 C2.12868196,14.1406364 1.87871882,14.7580871 1.78670811,15.2775485 C1.73190653,15.5869398 1.74489103,15.8522593 1.89501249,16.0457482 C2.10272998,16.3134716 2.49724419,16.3899291 2.97720451,16.3889739 C3.64308489,16.3876488 4.48166236,16.2043901 5.43586182,15.8719263 C7.39614992,15.1889196 9.81882526,13.8767067 12.2421773,12.1030614 C14.6644303,10.3302206 16.6301012,8.43117148 17.8458617,6.78996657 C18.4352206,5.99436692 18.8463848,5.26565642 19.030422,4.64705902 C19.1599979,4.21152047 19.1938933,3.82977104 18.9908571,3.56808128 C18.8451576,3.38029177 18.600948,3.29702711 18.3007901,3.26144557 C17.8663213,3.20994243 17.3213984,3.26984024 16.6830611,3.41547118 C16.0632017,3.21381254 15.8565548,3.05803852 15.6564882,2.90583394 C15.463846,2.75927758 15.2663865,2.60772438 15.0618697,2.40716983 C15.2792191,2.28370087 15.5085643,2.16538279 15.7494294,2.05404337 C16.9194066,1.51322362 18.0387106,1.28612424 18.9124283,1.27858432 Z"/>
  </g>
</svg>
