<svg xmlns="http://www.w3.org/2000/svg" xmlns:xlink="http://www.w3.org/1999/xlink" width="24" height="24" viewBox="0 0 24 24">
  <defs>
    <filter id="uos-windesk-a" width="125%" height="125%" x="-12.5%" y="-12.5%" filterUnits="objectBoundingBox">
      <feOffset in="SourceAlpha" result="shadowOffsetOuter1"/>
      <feGaussianBlur in="shadowOffsetOuter1" result="shadowBlurOuter1" stdDeviation=".5"/>
      <feColorMatrix in="shadowBlurOuter1" result="shadowMatrixOuter1" values="0 0 0 0 0   0 0 0 0 0   0 0 0 0 0  0 0 0 0.15 0"/>
      <feMerge>
        <feMergeNode in="shadowMatrixOuter1"/>
        <feMergeNode in="SourceGraphic"/>
      </feMerge>
    </filter>
    <linearGradient id="uos-windesk-b" x1="50%" x2="50%" y1="0%" y2="98.139%">
      <stop offset="0%" stop-color="#F6F6F6"/>
      <stop offset="100%" stop-color="#E8E8E8"/>
    </linearGradient>
    <path id="uos-windesk-c" d="M3,1 L17,1 C18.1045695,1 19,1.8954305 19,3 L19,17 C19,18.1045695 18.1045695,19 17,19 L3,19 C1.8954305,19 1,18.1045695 1,17 L1,3 C1,1.8954305 1.8954305,1 3,1 Z"/>
    <filter id="uos-windesk-d" width="105.6%" height="105.6%" x="-2.8%" y="-2.8%" filterUnits="objectBoundingBox">
      <feOffset dy="-1" in="SourceAlpha" result="shadowOffsetInner1"/>
      <feComposite in="shadowOffsetInner1" in2="SourceAlpha" k2="-1" k3="1" operator="arithmetic" result="shadowInnerInner1"/>
      <feColorMatrix in="shadowInnerInner1" values="0 0 0 0 0   0 0 0 0 0   0 0 0 0 0  0 0 0 0.101016171 0"/>
    </filter>
    <linearGradient id="uos-windesk-e" x1="50%" x2="50%" y1="0%" y2="100%">
      <stop offset="0%" stop-opacity=".203"/>
      <stop offset="100%" stop-opacity=".404"/>
    </linearGradient>
    <linearGradient id="uos-windesk-f" x1="0%" x2="50%" y1="0%" y2="80.458%">
      <stop offset="0%" stop-color="#63D7D6"/>
      <stop offset="100%" stop-color="#3A7ED4"/>
    </linearGradient>
    <linearGradient id="uos-windesk-g" x1="16.487%" x2="60.788%" y1="11.587%" y2="67.367%">
      <stop offset="0%" stop-color="#63D7D6"/>
      <stop offset="100%" stop-color="#3A7ED4"/>
    </linearGradient>
  </defs>
  <g fill="none" fill-rule="evenodd" filter="url(#uos-windesk-a)" transform="translate(2 2)">
    <use fill="url(#uos-windesk-b)" xlink:href="#uos-windesk-c"/>
    <use fill="#000" filter="url(#uos-windesk-d)" xlink:href="#uos-windesk-c"/>
    <path fill="url(#uos-windesk-e)" fill-rule="nonzero" d="M17,0 L3,0 C1.34314575,0 0,1.34314575 0,3 L0,17 C0,18.6568542 1.34314575,20 3,20 L17,20 C18.6568542,20 20,18.6568542 20,17 L20,3 C20,1.34314575 18.6568542,0 17,0 Z M17,1 C18.1045695,1 19,1.8954305 19,3 L19,17 C19,18.1045695 18.1045695,19 17,19 L3,19 C1.8954305,19 1,18.1045695 1,17 L1,3 C1,1.8954305 1.8954305,1 3,1 L17,1 Z"/>
    <g fill-rule="nonzero" transform="translate(4 3)">
      <path fill="url(#uos-windesk-f)" d="M5.5,5 L12.5,5 C12.7761424,5 13,5.22385763 13,5.5 L13,12.5 C13,12.7761424 12.7761424,13 12.5,13 L5.5,13 C5.22385763,13 5,12.7761424 5,12.5 L5,5.5 C5,5.22385763 5.22385763,5 5.5,5 Z" transform="matrix(-1 0 0 1 18 0)"/>
      <path fill="url(#uos-windesk-g)" d="M9,0 C9.51283584,9.42064153e-17 9.93550716,0.38604019 9.99327227,0.883378875 L10,1 L10,4 L5,4 C4.48716416,4 4.06449284,4.38604019 4.00672773,4.88337887 L4,5 L4,10 L1,10 C0.487164161,10 0.0644928393,9.61395981 0.00672773133,9.11662113 L0,9 L0,1 C0,0.487164161 0.38604019,0.0644928393 0.883378875,0.00672773133 L1,0 L9,0 Z M5,10 L5,9.999 L4.99995541,9.999 L5,5.5 C5,5.25454011 5.17687516,5.05039163 5.41012437,5.00805567 L5.5,5 L9.99995541,4.999 L9.999,5 L10,5 L10,9.5 C10,9.74545989 9.82312484,9.94960837 9.58987563,9.99194433 L9.5,10 L5,10 Z"/>
    </g>
  </g>
</svg>
