<svg xmlns="http://www.w3.org/2000/svg" xmlns:xlink="http://www.w3.org/1999/xlink" width="24" height="24" viewBox="0 0 24 24">
  <defs>
    <filter id="com.qq.weixin.deepin-a" width="127.8%" height="129.4%" x="-13.9%" y="-14.7%" filterUnits="objectBoundingBox">
      <feOffset in="SourceAlpha" result="shadowOffsetOuter1"/>
      <feGaussianBlur in="shadowOffsetOuter1" result="shadowBlurOuter1" stdDeviation=".5"/>
      <feColorMatrix in="shadowBlurOuter1" result="shadowMatrixOuter1" values="0 0 0 0 0   0 0 0 0 0   0 0 0 0 0  0 0 0 0.15 0"/>
      <feMerge>
        <feMergeNode in="shadowMatrixOuter1"/>
        <feMergeNode in="SourceGraphic"/>
      </feMerge>
    </filter>
    <radialGradient id="com.qq.weixin.deepin-b" cx="44.018%" cy="22.165%" r="90.233%" fx="44.018%" fy="22.165%" gradientTransform="matrix(0 1 -.90165 0 .64 -.219)">
      <stop offset="0%" stop-color="#BFE2AA"/>
      <stop offset="99.138%" stop-color="#6B9F47"/>
      <stop offset="100%" stop-color="#D8D8D8"/>
    </radialGradient>
    <linearGradient id="com.qq.weixin.deepin-c" x1="50%" x2="50%" y1="0%" y2="100%">
      <stop offset="0%" stop-color="#84B663"/>
      <stop offset="100%" stop-color="#3C6721"/>
    </linearGradient>
    <linearGradient id="com.qq.weixin.deepin-d" x1="50%" x2="50%" y1="0%" y2="100%">
      <stop offset="0%" stop-color="#68A16C"/>
      <stop offset="100%" stop-color="#37683A"/>
    </linearGradient>
    <filter id="com.qq.weixin.deepin-e" width="131.2%" height="133.3%" x="-15.6%" y="-16.7%" filterUnits="objectBoundingBox">
      <feOffset in="SourceAlpha" result="shadowOffsetOuter1"/>
      <feGaussianBlur in="shadowOffsetOuter1" result="shadowBlurOuter1" stdDeviation=".5"/>
      <feColorMatrix in="shadowBlurOuter1" result="shadowMatrixOuter1" values="0 0 0 0 0   0 0 0 0 0   0 0 0 0 0  0 0 0 0.15 0"/>
      <feMerge>
        <feMergeNode in="shadowMatrixOuter1"/>
        <feMergeNode in="SourceGraphic"/>
      </feMerge>
    </filter>
    <radialGradient id="com.qq.weixin.deepin-f" cx="50%" cy="15.44%" r="79.623%" fx="50%" fy="15.44%" gradientTransform="matrix(0 1 -.9151 0 .641 -.346)">
      <stop offset="0%" stop-color="#EFEFEF"/>
      <stop offset="100%" stop-color="#CDCDCD"/>
    </radialGradient>
    <path id="com.qq.weixin.deepin-g" d="M7.59880066,1 C11.2432176,1 14.1976013,3.51839828 14.1976013,6.625 C14.1976013,8.38363244 13.2508282,9.95376696 11.7680648,10.985241 L12.1456299,13.077179 L9.91344648,11.8942301 C9.19320608,12.1242294 8.41323375,12.25 7.59880066,12.25 C3.95438369,12.25 1,9.73160172 1,6.625 C1,3.51839828 3.95438369,1 7.59880066,1 Z"/>
    <filter id="com.qq.weixin.deepin-h" width="107.6%" height="108.3%" x="-3.8%" y="-4.1%" filterUnits="objectBoundingBox">
      <feOffset dy="1" in="SourceAlpha" result="shadowOffsetInner1"/>
      <feComposite in="shadowOffsetInner1" in2="SourceAlpha" k2="-1" k3="1" operator="arithmetic" result="shadowInnerInner1"/>
      <feColorMatrix in="shadowInnerInner1" values="0 0 0 0 1   0 0 0 0 1   0 0 0 0 1  0 0 0 0.5 0"/>
    </filter>
    <linearGradient id="com.qq.weixin.deepin-i" x1="50%" x2="50%" y1="1.98%" y2="99.74%">
      <stop offset="0%" stop-opacity=".204"/>
      <stop offset="100%" stop-opacity=".402"/>
    </linearGradient>
    <linearGradient id="com.qq.weixin.deepin-j" x1="50%" x2="50%" y1="0%" y2="100%">
      <stop offset="0%" stop-color="#AAA"/>
      <stop offset="100%" stop-color="#727272"/>
    </linearGradient>
  </defs>
  <g fill="none" fill-rule="evenodd">
    <g filter="url(#com.qq.weixin.deepin-a)" transform="translate(.125 2.188)">
      <path fill="url(#com.qq.weixin.deepin-b)" d="M8.96939087,1 C13.3707639,1 16.9387817,4.02207794 16.9387817,7.75 C16.9387817,11.4779221 13.3707639,14.5 8.96939087,14.5 C7.90268256,14.5 6.88492339,14.3224909 5.95504265,14.0004454 L3.54289858,15.3712158 L4.13491693,13.116587 C2.22932093,11.8831986 1,9.93819466 1,7.75 C1,4.02207794 4.56801783,1 8.96939087,1 Z" opacity=".98"/>
      <path fill="url(#com.qq.weixin.deepin-c)" fill-rule="nonzero" d="M8.96939087,0 C4.04913031,0 0,3.42957574 0,7.75 L0.00517130894,8.01553616 C0.087737365,10.1328721 1.15480016,12.0779487 2.90415495,13.4634916 L2.992,13.53 L2.5756864,15.1172461 L2.55343563,15.2234073 C2.42699031,16.0301574 3.29942479,16.6597685 4.03697176,16.2406361 L6.069,15.085 L6.43158077,15.1860032 C7.24811541,15.3933113 8.1006597,15.5 8.96939087,15.5 C13.8896514,15.5 17.9387817,12.0704243 17.9387817,7.75 C17.9387817,3.42957574 13.8896514,0 8.96939087,0 Z M8.96939087,1 C13.3707639,1 16.9387817,4.02207794 16.9387817,7.75 C16.9387817,11.4779221 13.3707639,14.5 8.96939087,14.5 C7.90268256,14.5 6.88492339,14.3224909 5.95504265,14.0004454 L3.54289858,15.3712158 L4.13491693,13.116587 C2.22932093,11.8831986 1,9.93819466 1,7.75 C1,4.02207794 4.56801783,1 8.96939087,1 Z"/>
      <circle cx="6.125" cy="6.063" r="1.25" fill="url(#com.qq.weixin.deepin-d)"/>
      <circle cx="11.125" cy="6.063" r="1.25" fill="url(#com.qq.weixin.deepin-d)"/>
    </g>
    <g filter="url(#com.qq.weixin.deepin-e)" transform="translate(8.865 8.188)">
      <use fill="url(#com.qq.weixin.deepin-f)" xlink:href="#com.qq.weixin.deepin-g"/>
      <use fill="#000" filter="url(#com.qq.weixin.deepin-h)" xlink:href="#com.qq.weixin.deepin-g"/>
      <path fill="url(#com.qq.weixin.deepin-i)" fill-rule="nonzero" d="M7.59880066,0 C3.43436211,0 0,2.92754515 0,6.625 C0,10.3224549 3.43436211,13.25 7.59880066,13.25 L7.98467447,13.2416117 C8.49728499,13.2192786 9.00186145,13.1524932 9.4926134,13.0429674 L9.801,12.966 L11.6773697,13.9607696 L11.7741555,14.0060074 C12.4877883,14.2962707 13.2714876,13.6849869 13.1297297,12.8995629 L12.86,11.407 L12.9744442,11.3112515 C14.3757327,10.0904096 15.1976013,8.42217746 15.1976013,6.625 C15.1976013,2.92754515 11.7632392,0 7.59880066,0 Z M7.59880066,1 C11.2432176,1 14.1976013,3.51839828 14.1976013,6.625 C14.1976013,8.38363244 13.2508282,9.95376696 11.7680648,10.985241 L12.1456299,13.077179 L9.91344648,11.8942301 C9.19320608,12.1242294 8.41323375,12.25 7.59880066,12.25 C3.95438369,12.25 1,9.73160172 1,6.625 C1,3.51839828 3.95438369,1 7.59880066,1 Z"/>
      <circle cx="10.135" cy="5.813" r="1" fill="url(#com.qq.weixin.deepin-j)"/>
      <circle cx="6.135" cy="5.813" r="1" fill="url(#com.qq.weixin.deepin-j)"/>
    </g>
  </g>
</svg>
