<?xml version="1.0" encoding="iso-8859-1"?>
<!-- Generator: Adobe Illustrator 18.0.0, SVG Export Plug-In . SVG Version: 6.00 Build 0)  -->
<!DOCTYPE svg PUBLIC "-//W3C//DTD SVG 1.1//EN" "http://www.w3.org/Graphics/SVG/1.1/DTD/svg11.dtd">
<svg version="1.1" id="&#x56FE;&#x5C42;_1" xmlns="http://www.w3.org/2000/svg" xmlns:xlink="http://www.w3.org/1999/xlink" x="0px"
	 y="0px" viewBox="0 0 48 48" style="enable-background:new 0 0 48 48;" xml:space="preserve">
<g>
	<linearGradient id="SVGID_1_" gradientUnits="userSpaceOnUse" x1="24" y1="2.1527" x2="24" y2="46.1527">
		<stop  offset="0" style="stop-color:#0097FF"/>
		<stop  offset="1" style="stop-color:#3945FF"/>
	</linearGradient>
	<path style="fill:url(#SVGID_1_);" d="M46,39.4c0,3.645-2.955,6.6-6.6,6.6H8.6C4.955,46,2,43.045,2,39.4V8.6C2,4.955,4.955,2,8.6,2
		H39.4C43.045,2,46,4.955,46,8.6V39.4z"/>
	<path style="fill:none;" d="M14.475,33.19"/>
	<linearGradient id="SVGID_2_" gradientUnits="userSpaceOnUse" x1="32.5771" y1="12.2256" x2="32.5771" y2="12.2256">
		<stop  offset="0" style="stop-color:#036D94"/>
		<stop  offset="0.0446" style="stop-color:#179DB3"/>
		<stop  offset="0.0979" style="stop-color:#2DD1D3"/>
		<stop  offset="0.1381" style="stop-color:#3AF1E7"/>
		<stop  offset="0.1603" style="stop-color:#3FFDEF"/>
		<stop  offset="0.2656" style="stop-color:#3DE5E4"/>
		<stop  offset="0.4886" style="stop-color:#36A7C8"/>
		<stop  offset="0.8082" style="stop-color:#2C449C"/>
		<stop  offset="1" style="stop-color:#260680"/>
	</linearGradient>
	<path style="fill:url(#SVGID_2_);" d="M32.577,12.226"/>
	<path style="fill:none;" d="M13.945,33.355"/>
	<linearGradient id="SVGID_3_" gradientUnits="userSpaceOnUse" x1="33.0537" y1="11.5918" x2="33.0537" y2="11.5918">
		<stop  offset="0" style="stop-color:#036D94"/>
		<stop  offset="0.0446" style="stop-color:#179DB3"/>
		<stop  offset="0.0979" style="stop-color:#2DD1D3"/>
		<stop  offset="0.1381" style="stop-color:#3AF1E7"/>
		<stop  offset="0.1603" style="stop-color:#3FFDEF"/>
		<stop  offset="0.2656" style="stop-color:#3DE5E4"/>
		<stop  offset="0.4886" style="stop-color:#36A7C8"/>
		<stop  offset="0.8082" style="stop-color:#2C449C"/>
		<stop  offset="1" style="stop-color:#260680"/>
	</linearGradient>
	<path style="fill:url(#SVGID_3_);" d="M33.054,11.592"/>
	<g>
		<path style="fill:#0E174C;" d="M24,41.6c-9.503,0-17.233-7.73-17.233-17.233S14.497,7.133,24,7.133s17.233,7.731,17.233,17.233
			S33.503,41.6,24,41.6z"/>
		<g>
			<path style="fill:none;" d="M14.12,34.277"/>
			<linearGradient id="SVGID_4_" gradientUnits="userSpaceOnUse" x1="28.8734" y1="12.1503" x2="29.1219" y2="36.6307">
				<stop  offset="0" style="stop-color:#1738E0"/>
				<stop  offset="0.1208" style="stop-color:#173BE0"/>
				<stop  offset="0.2055" style="stop-color:#1644E2"/>
				<stop  offset="0.2791" style="stop-color:#1453E4"/>
				<stop  offset="0.3464" style="stop-color:#1269E7"/>
				<stop  offset="0.4089" style="stop-color:#0F85EA"/>
				<stop  offset="0.4304" style="stop-color:#0E91EC"/>
				<stop  offset="1" style="stop-color:#1738E0"/>
			</linearGradient>
			<path style="fill:url(#SVGID_4_);" d="M29.298,11.111c-5.699-0.128-10.469,5.745-10.634,13.09
				c-0.039,1.729,0.184,3.387,0.616,4.916c-0.023-0.31-0.037-0.622-0.029-0.941c0.091-4.059,2.704-7.303,5.825-7.234
				c3.121,0.07,5.586,3.429,5.494,7.487c-0.092,4.058-2.704,7.303-5.825,7.233c-0.705-0.016-1.374-0.207-1.99-0.528
				c1.657,1.599,3.68,2.663,5.915,2.71c5.698,0.128,10.496-5.837,10.662-13.182C39.497,17.317,34.996,11.238,29.298,11.111z"/>
			<linearGradient id="SVGID_5_" gradientUnits="userSpaceOnUse" x1="32.3167" y1="13.0411" x2="32.549" y2="35.9327">
				<stop  offset="0" style="stop-color:#6982FC"/>
				<stop  offset="0.1372" style="stop-color:#6985FC"/>
				<stop  offset="0.2334" style="stop-color:#698EFD"/>
				<stop  offset="0.317" style="stop-color:#699DFD"/>
				<stop  offset="0.393" style="stop-color:#69B3FE"/>
				<stop  offset="0.4304" style="stop-color:#69C1FF"/>
				<stop  offset="1" style="stop-color:#6982FC"/>
			</linearGradient>
			<path style="opacity:0.5;fill:url(#SVGID_5_);" d="M26.122,36.344c3.067-0.553,5.498-3.884,5.59-7.898
				c0.101-4.477-2.089-16.345-2.089-16.345c2.514-0.126,5.206,1.52,6.816,3.99c1.84,2.82,2.5,5.711,2.413,8.585
				c-0.211,6.972-4.587,12.429-10.077,12.429C28.775,37.105,27.079,36.811,26.122,36.344z"/>
			<linearGradient id="SVGID_6_" gradientUnits="userSpaceOnUse" x1="27.0453" y1="18.694" x2="30.2905" y2="36.0679">
				<stop  offset="0" style="stop-color:#02004E"/>
				<stop  offset="0.0802" style="stop-color:#030C5F"/>
				<stop  offset="0.2401" style="stop-color:#072A8D"/>
				<stop  offset="0.463" style="stop-color:#0C5AD6"/>
				<stop  offset="0.4895" style="stop-color:#0D60DF"/>
				<stop  offset="0.717" style="stop-color:#0A44B5"/>
				<stop  offset="1" style="stop-color:#051E7C"/>
			</linearGradient>
			<path style="fill:url(#SVGID_6_);" d="M28.412,11.438c-5.799-0.129-10.649,5.604-10.81,12.779c-0.038,1.69,0.19,3.31,0.633,4.804
				c-0.024-0.303-0.039-0.607-0.032-0.919c0.09-3.965,2.469-5.998,5.646-5.927c3.175,0.07,5.964,2.219,5.875,6.184
				c-0.09,3.965-2.746,7.132-5.923,7.062c-0.718-0.017-1.399-0.204-2.025-0.519c1.688,1.564,3.857,2.481,6.133,2.441
				c6.023-0.104,10.567-5.48,10.729-12.656C38.799,17.51,34.212,11.568,28.412,11.438z"/>
			<g>
				<linearGradient id="SVGID_7_" gradientUnits="userSpaceOnUse" x1="33.1869" y1="19.0108" x2="34.7934" y2="33.0691">
					<stop  offset="0" style="stop-color:#FFF0FF;stop-opacity:0.8"/>
					<stop  offset="0.1634" style="stop-color:#FFF7FF;stop-opacity:0.8752"/>
					<stop  offset="0.4346" style="stop-color:#FFFFFF"/>
					<stop  offset="0.5475" style="stop-color:#F8FFFE;stop-opacity:0.9201"/>
					<stop  offset="0.7142" style="stop-color:#E4FFFB;stop-opacity:0.8022"/>
					<stop  offset="0.9133" style="stop-color:#C3FFF6;stop-opacity:0.6614"/>
					<stop  offset="1" style="stop-color:#B3FFF3;stop-opacity:0.6"/>
				</linearGradient>
				<path style="opacity:0.5;fill:url(#SVGID_7_);" d="M37.19,27.527c0.172-0.922,0.324-1.877,0.346-2.866
					c0.018-0.746-0.021-1.481-0.111-2.202c-0.064-0.508-0.388-1.293-1.523-0.707c-1.611,0.83-3.3,1.396-5.195,1.791
					c-1.01,0.21-0.796,0.838-0.606,1.183c0.903,1.639,0.796,2.793,0.84,3.866c0.031,0.796,0.194,1.084,0.795,1.05
					c1.872-0.107,3.014-0.313,4.225-0.651C36.854,28.739,37.09,28.07,37.19,27.527z"/>
				<linearGradient id="SVGID_8_" gradientUnits="userSpaceOnUse" x1="27.3865" y1="19.6732" x2="28.993" y2="33.732">
					<stop  offset="0" style="stop-color:#FFF0FF;stop-opacity:0.8"/>
					<stop  offset="0.1634" style="stop-color:#FFF7FF;stop-opacity:0.8752"/>
					<stop  offset="0.4346" style="stop-color:#FFFFFF"/>
					<stop  offset="0.5475" style="stop-color:#F8FFFE;stop-opacity:0.9201"/>
					<stop  offset="0.7142" style="stop-color:#E4FFFB;stop-opacity:0.8022"/>
					<stop  offset="0.9133" style="stop-color:#C3FFF6;stop-opacity:0.6614"/>
					<stop  offset="1" style="stop-color:#B3FFF3;stop-opacity:0.6"/>
				</linearGradient>
				<path style="opacity:0.5;fill:url(#SVGID_8_);" d="M36.102,17.911c-0.301-0.647-0.65-1.087-1.213-1.818
					c-1.727-2.237-4.036-3.5-6.502-3.555c-0.055-0.001-0.111-0.002-0.167-0.002c-4.828,0-8.909,4.699-9.459,10.671
					c1.154-1.363,2.855-2.138,4.928-2.138c0.061,0,0.122,0.001,0.184,0.002c1.58,0.035,3.076,0.266,4.247,1.117
					c4.316-0.719,6.096-1.655,7.511-2.515C36.464,19.169,36.369,18.487,36.102,17.911z"/>
				<linearGradient id="SVGID_11_" gradientUnits="userSpaceOnUse" x1="29.2488" y1="19.4595" x2="30.8555" y2="33.5198">
					<stop  offset="0" style="stop-color:#FFF0FF;stop-opacity:0.8"/>
					<stop  offset="0.1634" style="stop-color:#FFF7FF;stop-opacity:0.8752"/>
					<stop  offset="0.4346" style="stop-color:#FFFFFF"/>
					<stop  offset="0.5475" style="stop-color:#F8FFFE;stop-opacity:0.9201"/>
					<stop  offset="0.7142" style="stop-color:#E4FFFB;stop-opacity:0.8022"/>
					<stop  offset="0.9133" style="stop-color:#C3FFF6;stop-opacity:0.6614"/>
					<stop  offset="1" style="stop-color:#B3FFF3;stop-opacity:0.6"/>
				</linearGradient>
				<path style="opacity:0.5;fill:url(#SVGID_11_);" d="M30.211,31.964c-0.831,2.069-2.42,3.301-4.26,3.898
					c0.588,0.504,2.068,0.504,2.068,0.504c3.155,0,5.86-1.49,7.569-4.427c0.231-0.398,0.521-1.08-0.875-0.832
					c-1.308,0.232-2.478,0.301-3.473,0.321C30.492,31.444,30.328,31.674,30.211,31.964z"/>
			</g>
			<linearGradient id="SVGID_12_" gradientUnits="userSpaceOnUse" x1="24.433" y1="37.0272" x2="24.7352" y2="11.3364">
				<stop  offset="0" style="stop-color:#1738E0"/>
				<stop  offset="0.0928" style="stop-color:#173BE1"/>
				<stop  offset="0.1578" style="stop-color:#1644E3"/>
				<stop  offset="0.2143" style="stop-color:#1453E6"/>
				<stop  offset="0.266" style="stop-color:#1269EB"/>
				<stop  offset="0.314" style="stop-color:#0F85F1"/>
				<stop  offset="0.3291" style="stop-color:#0E90F3"/>
				<stop  offset="1" style="stop-color:#1738E0"/>
			</linearGradient>
			<path style="fill:url(#SVGID_12_);" d="M28.829,36.174c-2.052-0.606-2.674-1.725-3.203-3.096
				c-0.941-3.327,0.482-5.685,0.483-5.686C27.221,24.613,30,22.754,30,22.754v-0.003c2-1.503,3.461-3.337,3.747-5.895
				c0.473-4.214-1.899-6.796-8.247-6.792c-5.161,0.003-10.701,2.112-10.797,6.35c-0.053,2.32,1.14,4.426,3.091,5.878
				c-0.101,0.671-0.171,1.359-0.186,2.062c-0.163,7.238,4.421,13.58,10.217,13.361c4.83-0.182,6.597-1.978,6.597-1.978l-0.391-0.49
				C34.03,35.246,31.972,37.105,28.829,36.174z"/>
			<linearGradient id="SVGID_13_" gradientUnits="userSpaceOnUse" x1="25.3168" y1="36.3157" x2="25.5957" y2="12.6043">
				<stop  offset="0" style="stop-color:#5052F3"/>
				<stop  offset="0.0573" style="stop-color:#5058F4"/>
				<stop  offset="0.1306" style="stop-color:#5067F5"/>
				<stop  offset="0.2126" style="stop-color:#5082F8"/>
				<stop  offset="0.3003" style="stop-color:#51A6FB"/>
				<stop  offset="0.3713" style="stop-color:#51C9FF"/>
				<stop  offset="0.5358" style="stop-color:#51A2FB"/>
				<stop  offset="0.7421" style="stop-color:#5078F7"/>
				<stop  offset="0.9039" style="stop-color:#505EF4"/>
				<stop  offset="1" style="stop-color:#5054F3"/>
			</linearGradient>
			<path style="fill:url(#SVGID_13_);" d="M28.116,36.955c-2.569-0.059-4.97-1.377-6.76-3.717c-1.829-2.39-2.795-5.54-2.72-8.868
				c0.015-0.662,0.071-1.323,0.168-1.965l0.067-0.452l-0.365-0.272c-1.827-1.36,3.965-9.763,7.33-10.1
				c3.118-0.312,4.959-0.146,6.058,1.336c0.771,1.042,1.082,2.27,0.98,3.838c-0.139,2.162-1.794,3.942-1.967,4.148
				c-0.448,0.531-1.807,1.544-1.807,1.544c-0.926,0.719-2.785,2.537-3.677,4.712c0,0-1.426,2.994-0.309,6.166
				c0,0,0.617,2.586,3.809,3.624c0.024,0.009-0.406,0.006-0.635,0.006C28.232,36.956,28.174,36.955,28.116,36.955z"/>
			<linearGradient id="SVGID_14_" gradientUnits="userSpaceOnUse" x1="30.6909" y1="14.3336" x2="23.751" y2="36.3414">
				<stop  offset="0" style="stop-color:#232285"/>
				<stop  offset="0.1971" style="stop-color:#191F81"/>
				<stop  offset="0.6673" style="stop-color:#071A79"/>
				<stop  offset="1" style="stop-color:#001876"/>
			</linearGradient>
			<path style="opacity:0.6;fill:url(#SVGID_14_);" d="M28.547,36.854c-2.963-0.901-3.627-3.576-3.627-3.576
				c-1.064-3.286,0.342-6.158,0.342-6.158c0.926-2.315,2.784-4.006,3.593-4.664l0.395-0.308c1.495-1.041,3.25-2.918,3.495-5.426
				c0.175-1.792-0.456-4.434-3.059-5.137c-0.007-0.002-2.156-0.579-4.313,0.677l-1.179-0.337
				c-5.581,2.168-5.849,11.782-5.864,12.445c-0.075,3.334,0.893,6.49,2.726,8.884c0.803,1.05,3.187,3.729,3.187,3.729l2.002,1.286
				l4.374-0.139l3.366-2.063C31.656,37.593,29.169,37.043,28.547,36.854z"/>
			<g>
				<linearGradient id="SVGID_15_" gradientUnits="userSpaceOnUse" x1="25.8736" y1="12.3132" x2="23.7543" y2="33.8368">
					<stop  offset="0" style="stop-color:#FFFFFF;stop-opacity:0.5"/>
					<stop  offset="0.1561" style="stop-color:#FFFFFF;stop-opacity:0.7"/>
					<stop  offset="0.4177" style="stop-color:#FFFFFF"/>
					<stop  offset="1" style="stop-color:#FFFFFF;stop-opacity:0.6"/>
				</linearGradient>
				<path style="opacity:0.6;fill:url(#SVGID_15_);" d="M27.254,11.5c-0.007-0.001-1.64-0.464-3.796,0.791l-3.832,4.561
					c1.453-0.464,5.979-1.104,8.992,2.079c0.277,0.293,0.926,0.506,1.425,0.079c0.657-0.563,1.158-1.932,1.233-2.655
					C31.461,14.564,30.825,12.084,27.254,11.5z"/>
				<linearGradient id="SVGID_16_" gradientUnits="userSpaceOnUse" x1="23.8957" y1="12.1796" x2="21.6453" y2="35.0339">
					<stop  offset="0" style="stop-color:#FFFFFF;stop-opacity:0.5"/>
					<stop  offset="0.1561" style="stop-color:#FFFFFF;stop-opacity:0.7"/>
					<stop  offset="0.4177" style="stop-color:#FFFFFF"/>
					<stop  offset="1" style="stop-color:#FFFFFF;stop-opacity:0.6"/>
				</linearGradient>
				<path style="opacity:0.6;fill:url(#SVGID_16_);" d="M17.758,26.385c0,0,1.229,1.046,4.606,1.046
					c0.693,0,0.938-0.339,1.124-0.762c0.509-1.161,1.15-3.164,3.811-5.039c0.273-0.194,0.892-0.755,0.028-1.252
					c-1.664-0.958-4.563-2.416-8.667-1.277L17.758,26.385z"/>
				<linearGradient id="SVGID_17_" gradientUnits="userSpaceOnUse" x1="24.9882" y1="12.2872" x2="22.7378" y2="35.1415">
					<stop  offset="0" style="stop-color:#FFFFFF;stop-opacity:0.5"/>
					<stop  offset="0.1561" style="stop-color:#FFFFFF;stop-opacity:0.7"/>
					<stop  offset="0.4177" style="stop-color:#FFFFFF"/>
					<stop  offset="1" style="stop-color:#FFFFFF;stop-opacity:0.6"/>
				</linearGradient>
				<path style="opacity:0.6;fill:url(#SVGID_17_);" d="M27.536,37.565c-2.35-0.725-4.62-3.15-4.681-7.061
					c-0.005-0.349,0.061-0.992-0.878-1.009c-1.91-0.037-3.743-0.474-3.743-0.474s-0.244,2.504,4.559,7.596
					c1.159,1.05,1.993,1.285,1.993,1.285S28.103,37.738,27.536,37.565z"/>
			</g>
			<linearGradient id="SVGID_18_" gradientUnits="userSpaceOnUse" x1="20.6821" y1="10.5249" x2="21.987" y2="38.5485">
				<stop  offset="0" style="stop-color:#1738E0"/>
				<stop  offset="0.0678" style="stop-color:#173DE1"/>
				<stop  offset="0.1522" style="stop-color:#154DE5"/>
				<stop  offset="0.2454" style="stop-color:#1366EB"/>
				<stop  offset="0.3444" style="stop-color:#1089F3"/>
				<stop  offset="0.3713" style="stop-color:#0F94F6"/>
				<stop  offset="1" style="stop-color:#1738E0"/>
			</linearGradient>
			<path style="fill:url(#SVGID_18_);" d="M29.192,37.717c-5.472,0-9.865-5.838-9.865-13.171c0-7.333,4.342-13.222,9.814-13.155
				c1.238,0.015,3.032,0.597,3.032,0.597s-1.388-1.626-4.299-2.502c-1.239-0.373-2.567-0.504-3.924-0.504
				c-8.264,0-15.165,6.956-15.165,15.47c0,8.513,6.699,15.31,15.212,15.31c3.943,0,7.7-1.492,10.42-4.025
				C33.712,36.299,31.503,37.717,29.192,37.717z"/>
			<linearGradient id="SVGID_19_" gradientUnits="userSpaceOnUse" x1="19.0505" y1="11.3294" x2="20.2909" y2="37.9683">
				<stop  offset="0" style="stop-color:#3B4AF6"/>
				<stop  offset="0.1308" style="stop-color:#8EFFFF"/>
				<stop  offset="0.2257" style="stop-color:#8AF6FF"/>
				<stop  offset="0.3805" style="stop-color:#7FDEFD"/>
				<stop  offset="0.576" style="stop-color:#6DB6FB"/>
				<stop  offset="0.802" style="stop-color:#5480F9"/>
				<stop  offset="1" style="stop-color:#3B4AF6"/>
			</linearGradient>
			<path style="fill:url(#SVGID_19_);" d="M24.171,39.03c-8.104,0-14.452-6.391-14.452-14.55c0-8.111,6.462-14.709,14.405-14.709
				c1.438,0,2.648,0.155,3.705,0.472c0.417,0.126,0.802,0.268,1.151,0.419c-5.763,0.163-10.321,6.244-10.242,13.912
				c0.077,7.343,4.124,13.191,9.567,13.867C26.973,38.826,25.577,39.03,24.171,39.03z"/>
			<linearGradient id="SVGID_20_" gradientUnits="userSpaceOnUse" x1="20.2432" y1="10.172" x2="20.2432" y2="40.0335">
				<stop  offset="0" style="stop-color:#0D70DD"/>
				<stop  offset="0.008" style="stop-color:#0E76DF"/>
				<stop  offset="0.0782" style="stop-color:#16AAF0"/>
				<stop  offset="0.1311" style="stop-color:#1ACAFB"/>
				<stop  offset="0.1603" style="stop-color:#1CD6FF"/>
				<stop  offset="0.2867" style="stop-color:#24BEFA"/>
				<stop  offset="0.5544" style="stop-color:#3880ED"/>
				<stop  offset="0.9388" style="stop-color:#591DD7"/>
				<stop  offset="1" style="stop-color:#5E0DD4"/>
			</linearGradient>
			<path style="fill:url(#SVGID_20_);" d="M18.526,24.502c0-6.532,3.099-12.015,8.55-13.54c3.055-0.654,4.525,0.465,4.873,0.822
				c-0.576-0.679-1.146-1.024-1.712-1.363c0.005,0-1.051-0.608-2.362-0.994c-1.242-0.366-2.567-0.475-3.924-0.475
				c-8.513,0-15.414,6.916-15.414,15.429c0,8.514,6.948,15.468,15.461,15.468c2.5,0,5.147-0.646,6.955-1.713
				c-0.981,0.327-2.874,0.287-3.831,0.029C21.887,36.755,18.526,31.004,18.526,24.502z"/>
			<linearGradient id="SVGID_21_" gradientUnits="userSpaceOnUse" x1="20.2432" y1="8.9199" x2="20.2432" y2="39.8169">
				<stop  offset="0" style="stop-color:#127FF4;stop-opacity:0.5"/>
				<stop  offset="0.0332" style="stop-color:#1D9FF7;stop-opacity:0.6036"/>
				<stop  offset="0.0918" style="stop-color:#2ED3FB;stop-opacity:0.7861"/>
				<stop  offset="0.1359" style="stop-color:#39F3FE;stop-opacity:0.9239"/>
				<stop  offset="0.1603" style="stop-color:#3DFFFF"/>
				<stop  offset="0.2765" style="stop-color:#39E7F1;stop-opacity:0.9308"/>
				<stop  offset="0.5226" style="stop-color:#2DA9CE;stop-opacity:0.7843"/>
				<stop  offset="0.8756" style="stop-color:#1B4696;stop-opacity:0.5741"/>
				<stop  offset="1" style="stop-color:#142281;stop-opacity:0.5"/>
			</linearGradient>
			<path style="fill:url(#SVGID_21_);" d="M18.526,24.502c0-6.532,3.099-12.015,8.55-13.54c3.055-0.654,4.525,0.465,4.873,0.822
				c-0.576-0.679-1.146-1.024-1.712-1.363c0.005,0-1.051-0.608-2.362-0.994c-1.242-0.366-2.567-0.475-3.924-0.475
				c-8.513,0-15.414,6.916-15.414,15.429c0,8.514,6.948,15.468,15.461,15.468c2.5,0,5.147-0.646,6.955-1.713
				c-0.981,0.327-2.874,0.287-3.831,0.029C21.887,36.755,18.526,31.004,18.526,24.502z"/>
			<g>
				<linearGradient id="SVGID_22_" gradientUnits="userSpaceOnUse" x1="15.4684" y1="9.4522" x2="12.7488" y2="35.9134">
					<stop  offset="0" style="stop-color:#CDE8D9;stop-opacity:0.6"/>
					<stop  offset="0.1561" style="stop-color:#FFFFFF"/>
					<stop  offset="0.4177" style="stop-color:#FFFFFF"/>
					<stop  offset="0.5111" style="stop-color:#FAFCFD;stop-opacity:0.8878"/>
					<stop  offset="0.6278" style="stop-color:#EAF4F9;stop-opacity:0.7475"/>
					<stop  offset="0.7569" style="stop-color:#D1E6F1;stop-opacity:0.5922"/>
					<stop  offset="0.894" style="stop-color:#ADD3E6;stop-opacity:0.4274"/>
					<stop  offset="1" style="stop-color:#8DC2DC;stop-opacity:0.3"/>
				</linearGradient>
				<path style="fill:url(#SVGID_22_);" d="M17.807,29.809c-0.54-1.684-0.853-3.115-0.974-4.952c-0.053-0.797,0-1.625,0.087-2.458
					c0.023-0.232-0.039-0.721-0.642-0.756c-1.612-0.094-3.913,0.016-6.101,0.569c-0.508,0.128-0.565,0.497-0.587,0.664
					c-0.065,0.501-0.088,0.959-0.088,1.513c0,2.106,0.473,4.183,1.318,6.083c0.07,0.157,0.273,0.498,0.781,0.572
					c1.355,0.199,3.382,0.191,5.745-0.451C17.953,30.427,17.87,30.007,17.807,29.809z"/>
				<linearGradient id="SVGID_23_" gradientUnits="userSpaceOnUse" x1="16.3383" y1="9.5467" x2="13.6244" y2="35.9516">
					<stop  offset="0" style="stop-color:#CDE8D9;stop-opacity:0.6"/>
					<stop  offset="0.1561" style="stop-color:#FFFFFF"/>
					<stop  offset="0.4177" style="stop-color:#FFFFFF"/>
					<stop  offset="0.5111" style="stop-color:#FAFCFD;stop-opacity:0.8878"/>
					<stop  offset="0.6278" style="stop-color:#EAF4F9;stop-opacity:0.7475"/>
					<stop  offset="0.7569" style="stop-color:#D1E6F1;stop-opacity:0.5922"/>
					<stop  offset="0.894" style="stop-color:#ADD3E6;stop-opacity:0.4274"/>
					<stop  offset="1" style="stop-color:#8DC2DC;stop-opacity:0.3"/>
				</linearGradient>
				<path style="fill:url(#SVGID_23_);" d="M20.66,12.697c-1.211-0.161-2.993-0.221-5.304,0.16
					c-0.138,0.023-0.424,0.067-0.678,0.295c-1.957,1.758-3.517,3.965-4.39,6.391c-0.06,0.166,0.017,0.43,0.369,0.335
					c1.546-0.413,3.739-0.804,6.227-0.545c0.438,0.045,0.576-0.212,0.616-0.35c0.638-2.188,1.752-4.256,3.439-5.831
					C21.067,13.034,21.067,12.751,20.66,12.697z"/>
				<linearGradient id="SVGID_24_" gradientUnits="userSpaceOnUse" x1="22.5435" y1="10.2387" x2="19.9399" y2="35.5703">
					<stop  offset="0" style="stop-color:#CDE8D9;stop-opacity:0.6"/>
					<stop  offset="0.1561" style="stop-color:#FFFFFF"/>
					<stop  offset="0.4177" style="stop-color:#FFFFFF"/>
					<stop  offset="0.5111" style="stop-color:#FAFCFD;stop-opacity:0.8878"/>
					<stop  offset="0.6278" style="stop-color:#EAF4F9;stop-opacity:0.7475"/>
					<stop  offset="0.7569" style="stop-color:#D1E6F1;stop-opacity:0.5922"/>
					<stop  offset="0.894" style="stop-color:#ADD3E6;stop-opacity:0.4274"/>
					<stop  offset="1" style="stop-color:#8DC2DC;stop-opacity:0.3"/>
				</linearGradient>
				<path style="fill:url(#SVGID_24_);" d="M23.236,11.204c1.555-0.679,2.357-1.254,4.391-1.359
					c0.318-0.016,0.553-0.079,0.221-0.185c-0.82-0.263-1.684-0.482-3.858-0.478c-2.483,0.004-4.713,0.555-6.833,1.846
					c-0.191,0.115-0.156,0.276,0.054,0.237c1.61-0.299,3.546-0.431,5.349,0.019C22.982,11.391,23.126,11.252,23.236,11.204z"/>
				<linearGradient id="SVGID_25_" gradientUnits="userSpaceOnUse" x1="20.4384" y1="9.922" x2="17.7115" y2="36.454">
					<stop  offset="0" style="stop-color:#CDE8D9;stop-opacity:0.6"/>
					<stop  offset="0.1561" style="stop-color:#FFFFFF"/>
					<stop  offset="0.4177" style="stop-color:#FFFFFF"/>
					<stop  offset="0.5111" style="stop-color:#FAFCFD;stop-opacity:0.8878"/>
					<stop  offset="0.6278" style="stop-color:#EAF4F9;stop-opacity:0.7475"/>
					<stop  offset="0.7569" style="stop-color:#D1E6F1;stop-opacity:0.5922"/>
					<stop  offset="0.894" style="stop-color:#ADD3E6;stop-opacity:0.4274"/>
					<stop  offset="1" style="stop-color:#8DC2DC;stop-opacity:0.3"/>
				</linearGradient>
				<path style="fill:url(#SVGID_25_);" d="M22.938,37.236c-1.68-1.045-2.809-2.691-3.771-4.332c-0.081-0.14-0.215-0.403-0.852-0.28
					c-1.339,0.259-3.153,0.687-5.241,0.455c-0.528-0.059-0.713,0.421-0.422,0.786c1.663,2.088,3.484,3.479,5.769,4.44
					c0.362,0.152,0.769,0.28,1.375,0.281c2.134,0.003,3.747-0.96,3.003-0.59C22.572,38.109,23.463,37.563,22.938,37.236z"/>
				
					<linearGradient id="SVGID_26_" gradientUnits="userSpaceOnUse" x1="17.0854" y1="-34.0182" x2="14.8331" y2="-12.1046" gradientTransform="matrix(0.9983 0.0582 -0.0582 0.9983 9.8855 48.9371)">
					<stop  offset="0" style="stop-color:#CDE8D9;stop-opacity:0.6"/>
					<stop  offset="0.1561" style="stop-color:#FFFFFF"/>
					<stop  offset="0.4177" style="stop-color:#FFFFFF"/>
					<stop  offset="0.5111" style="stop-color:#FAFCFD;stop-opacity:0.8878"/>
					<stop  offset="0.6278" style="stop-color:#EAF4F9;stop-opacity:0.7475"/>
					<stop  offset="0.7569" style="stop-color:#D1E6F1;stop-opacity:0.5922"/>
					<stop  offset="0.894" style="stop-color:#ADD3E6;stop-opacity:0.4274"/>
					<stop  offset="1" style="stop-color:#8DC2DC;stop-opacity:0.3"/>
				</linearGradient>
				<path style="fill:url(#SVGID_26_);" d="M24.632,38.74c-0.653,0.361-0.792,0.41-1.352,0.54c-0.222,0.052-0.318,0.288,0.139,0.288
					c0.954,0,1.561,0.01,3.583-0.266c0.18-0.023,0.309-0.225,0.02-0.272c-0.699-0.118-0.995-0.153-1.603-0.391
					C25.299,38.592,24.948,38.565,24.632,38.74z"/>
			</g>
			<linearGradient id="SVGID_27_" gradientUnits="userSpaceOnUse" x1="32.8936" y1="12.5371" x2="32.8936" y2="12.5371">
				<stop  offset="0" style="stop-color:#0D70DD"/>
				<stop  offset="0.008" style="stop-color:#0E76DF"/>
				<stop  offset="0.0782" style="stop-color:#16AAF0"/>
				<stop  offset="0.1311" style="stop-color:#1ACAFB"/>
				<stop  offset="0.1603" style="stop-color:#1CD6FF"/>
				<stop  offset="0.2867" style="stop-color:#24BEFA"/>
				<stop  offset="0.5544" style="stop-color:#3880ED"/>
				<stop  offset="0.9388" style="stop-color:#591DD7"/>
				<stop  offset="1" style="stop-color:#5E0DD4"/>
			</linearGradient>
			<path style="fill:url(#SVGID_27_);" d="M32.894,12.537"/>
		</g>
	</g>
</g>
</svg>
