<?xml version="1.0" encoding="utf-8"?>
<!-- Generator: Adobe Illustrator 18.0.0, SVG Export Plug-In . SVG Version: 6.00 Build 0)  -->
<!DOCTYPE svg PUBLIC "-//W3C//DTD SVG 1.1//EN" "http://www.w3.org/Graphics/SVG/1.1/DTD/svg11.dtd">
<svg version="1.1" id="图层_1" xmlns="http://www.w3.org/2000/svg" xmlns:xlink="http://www.w3.org/1999/xlink" x="0px" y="0px"
	 viewBox="0 0 48 48" enable-background="new 0 0 48 48" xml:space="preserve">
<linearGradient id="SVGID_1_" gradientUnits="userSpaceOnUse" x1="24" y1="2" x2="24" y2="46">
	<stop  offset="0" style="stop-color:#F5F5F5"/>
	<stop  offset="1" style="stop-color:#9CADBE"/>
</linearGradient>
<path fill="url(#SVGID_1_)" d="M46,39.4c0,3.6-3,6.6-6.6,6.6H8.6C5,46,2,43,2,39.4V8.6C2,5,5,2,8.6,2h30.8C43,2,46,5,46,8.6V39.4z"
	/>
<linearGradient id="SVGID_2_" gradientUnits="userSpaceOnUse" x1="10.6207" y1="20.1234" x2="39.159" y2="28.3424">
	<stop  offset="0" style="stop-color:#E64404"/>
	<stop  offset="1" style="stop-color:#F48342"/>
</linearGradient>
<circle fill="url(#SVGID_2_)" cx="24" cy="24" r="17"/>
<path fill="#FFFFFF" d="M32.8,17.3l-1.4-3.8c0,0-17.8-0.4-19.3,7.7c0,0-0.8,5.1,5.4,5.6c0,0,3.4,0.2,7.5-0.1c0,0,5.7-0.7,3,2
	c0,0-2.8,3.3-12.7,2.3l1.3,3.8c0,0,8,1,14-1.9c0,0,7-3,5.4-7.9c0,0-1-3.6-7.2-3.1c0,0-3.9,0.3-5.7,0.2c0,0-4.3-0.2-3.2-2
	C20,20,21.5,17.3,32.8,17.3z"/>
</svg>
