<?xml version="1.0" encoding="UTF-8" standalone="no"?>
<svg width="48px" height="48px" viewBox="0 0 48 48" version="1.1" xmlns="http://www.w3.org/2000/svg" xmlns:xlink="http://www.w3.org/1999/xlink" xmlns:sketch="http://www.bohemiancoding.com/sketch/ns">
    <!-- Generator: Sketch 3.0.4 (8054) - http://www.bohemiancoding.com/sketch -->
    <title>Slice 2</title>
    <desc>Created with Sketch.</desc>
    <defs>
        <linearGradient x1="50%" y1="0.347045455%" x2="50%" y2="100.347045%" id="linearGradient-1">
            <stop stop-color="#F5F5F5" offset="0%"></stop>
            <stop stop-color="#9CADBE" offset="100%"></stop>
        </linearGradient>
        <linearGradient x1="50%" y1="103.846176%" x2="50%" y2="-3.845%" id="linearGradient-2">
            <stop stop-color="#4D4D4D" stop-opacity="0.7073" offset="0%"></stop>
            <stop stop-color="#4D4D4D" stop-opacity="0.3137" offset="100%"></stop>
        </linearGradient>
        <path d="M17,0 C7.6,0 0,7.6 0,17 C0,26.4 7.6,34 17,34 C26.4,34 34,26.4 34,17 C34,7.6 26.4,0 17,0 L17,0 Z M17,10.9 C20.4,10.9 23.1,13.6 23.1,17 C23.1,20.4 20.4,23.1 17,23.1 C13.6,23.1 10.9,20.4 10.9,17 C10.9,13.6 13.6,10.9 17,10.9 L17,10.9 Z" id="path-3"></path>
        <path id="path-5" d="M2.24761903,0.093650793 C0.93650793,0.093650793 -0.093650793,1.21746031 -0.093650793,2.6222222 L-0.093650793,36.0555553 C-0.093650793,37.4603172 0.93650793,38.5841267 2.24761903,38.5841267 L39.6142854,38.5841267 C40.9253965,38.5841267 41.9555553,37.4603172 41.9555553,36.0555553 L41.9555553,2.6222222 C41.9555553,1.21746031 40.9253965,0.093650793 39.6142854,0.093650793 L2.24761903,0.093650793 L2.24761903,0.093650793 Z"></path>
        <path id="path-7" d="M2.715873,-0.280952379 L43.3603172,-0.280952379 C44.7650791,-0.280952379 45.8888886,0.93650793 45.8888886,2.43492062 L45.8888886,38.022222 C45.8888886,39.5206346 44.7650791,40.738095 43.3603172,40.738095 L2.715873,40.738095 C1.3111111,40.738095 0.187301586,39.5206346 0.187301586,38.022222 L0.187301586,2.43492062 C0.187301586,0.93650793 1.3111111,-0.280952379 2.715873,-0.280952379 L2.715873,-0.280952379 Z"></path>
        <linearGradient x1="49.822092%" y1="100.302175%" x2="-794.94309%" y2="-160.743545%" id="linearGradient-9">
            <stop stop-color="#F78F00" offset="0%"></stop>
            <stop stop-color="#F7CB00" offset="100%"></stop>
        </linearGradient>
        <linearGradient x1="12.0433426%" y1="19.8864627%" x2="170.529302%" y2="-53.7612616%" id="linearGradient-10">
            <stop stop-color="#74A3F7" offset="0%"></stop>
            <stop stop-color="#3092DF" offset="100%"></stop>
        </linearGradient>
        <linearGradient x1="31.4934077%" y1="70.580625%" x2="-406.043016%" y2="141.295783%" id="linearGradient-11">
            <stop stop-color="#AFDD1B" offset="0%"></stop>
            <stop stop-color="#E0F64E" offset="100%"></stop>
        </linearGradient>
        <path d="M17,0 C7.6,0 0,7.6 0,17 C0,26.4 7.6,34 17,34 C26.4,34 34,26.4 34,17 C34,7.6 26.4,0 17,0 L17,0 Z M17,10.9 C20.4,10.9 23.1,13.6 23.1,17 C23.1,20.4 20.4,23.1 17,23.1 C13.6,23.1 10.9,20.4 10.9,17 C10.9,13.6 13.6,10.9 17,10.9 L17,10.9 Z" id="path-12"></path>
    </defs>
    <g id="Page-1" stroke="none" stroke-width="1" fill="none" fill-rule="evenodd" sketch:type="MSPage">
        <g id="wps-office-etmain-16" sketch:type="MSLayerGroup" transform="translate(2.000000, 2.000000)">
            <path d="M44,37.4 C44,41 41,44 37.4,44 L6.6,44 C3,44 0,41 0,37.4 L0,6.6 C0,3 3,0 6.6,0 L37.4,0 C41,0 44,3 44,6.6 L44,37.4 L44,37.4 Z" id="Shape" fill="url(#linearGradient-1)" sketch:type="MSShapeGroup"></path>
            <path d="M22,5 C12.6,5 5,12.6 5,22 C5,31.4 12.6,39 22,39 C31.4,39 39,31.4 39,22 C39,12.6 31.4,5 22,5 L22,5 Z M22,15.9 C25.4,15.9 28.1,18.6 28.1,22 C28.1,25.4 25.4,28.1 22,28.1 C18.6,28.1 15.9,25.4 15.9,22 C15.9,18.6 18.6,15.9 22,15.9 L22,15.9 Z M22,18.4 C20,18.4 18.4,20 18.4,22 C18.4,24 20,25.6 22,25.6 C24,25.6 25.6,24 25.6,22 C25.6,20 24,18.4 22,18.4 L22,18.4 Z" id="path4028_1_" opacity="0.8" fill="#FFFFFF" sketch:type="MSShapeGroup"></path>
            <path d="M22,5 C12.6,5 5,12.6 5,22 C5,31.4 12.6,39 22,39 C31.4,39 39,31.4 39,22 C39,12.6 31.4,5 22,5 L22,5 Z M22,15.9 C25.4,15.9 28.1,18.6 28.1,22 C28.1,25.4 25.4,28.1 22,28.1 C18.6,28.1 15.9,25.4 15.9,22 C15.9,18.6 18.6,15.9 22,15.9 L22,15.9 Z M22,18.4 C20,18.4 18.4,20 18.4,22 C18.4,24 20,25.6 22,25.6 C24,25.6 25.6,24 25.6,22 C25.6,20 24,18.4 22,18.4 L22,18.4 Z" id="path3235_1_" fill="url(#linearGradient-2)" sketch:type="MSShapeGroup"></path>
            <g id="Group" transform="translate(5.000000, 5.000000)">
                <g id="layer3_3_-Clipped">
                    <mask id="mask-4" sketch:name="SVGID_191_" fill="white">
                        <use xlink:href="#path-3"></use>
                    </mask>
                    <g id="SVGID_191_"></g>
                    <g id="layer3_3_" mask="url(#mask-4)">
                        <g transform="translate(-7.000000, -5.000000)" id="g3286_1_">
                            <g transform="translate(3.047632, -0.174603)">
                                <g id="SVGID_4_-Clipped" transform="translate(0.000000, 3.746032)">
                                    <mask id="mask-6" sketch:name="SVGID_193_" fill="white">
                                        <use xlink:href="#path-5"></use>
                                    </mask>
                                    <g id="SVGID_193_"></g>
                                </g>
                                <g id="g3873-9_1_-Clipped" transform="translate(0.936508, 0.000000)">
                                    <mask id="mask-8" sketch:name="SVGID_194_" fill="white">
                                        <use xlink:href="#path-7"></use>
                                    </mask>
                                    <g id="SVGID_194_"></g>
                                    <g id="g3873-9_1_" mask="url(#mask-8)" sketch:type="MSShapeGroup">
                                        <g transform="translate(20.712425, 31.364839) rotate(45.000000) translate(-20.712425, -31.364839) translate(-1.447475, 9.204938)">
                                            <path d="M15.8812621,45.7971279 C10.7106186,45.4277963 5.17064348,43.9504696 0.738663354,40.9958161 L14.7732671,15.5119304 L15.8812621,45.7971279 L15.8812621,45.7971279 Z" id="path3841-0_1_" fill="url(#linearGradient-9)"></path>
                                            <path d="M40.6264845,1.47732671 C48.013118,13.665272 46.5357913,28.4385391 37.3024994,37.671831 L15.1425988,15.5119304 L40.6264845,1.47732671 L40.6264845,1.47732671 Z" id="path3845-9_1_" fill="url(#linearGradient-10)"></path>
                                            <path d="M36.9331677,37.671831 C31.3931925,43.2118062 24.006559,46.1664596 15.8812621,45.7971279 L14.7732671,15.5119304 L36.9331677,37.671831 L36.9331677,37.671831 Z" id="path3847-1_1_" fill="url(#linearGradient-11)"></path>
                                        </g>
                                    </g>
                                </g>
                            </g>
                        </g>
                    </g>
                </g>
                <g id="layer4_7_-Clipped">
                    <mask id="mask-13" sketch:name="SVGID_191_" fill="white">
                        <use xlink:href="#path-12"></use>
                    </mask>
                    <g id="SVGID_191_"></g>
                </g>
            </g>
        </g>
    </g>
</svg>