<?xml version="1.0" encoding="utf-8"?>
<!-- Generator: Adobe Illustrator 18.0.0, SVG Export Plug-In . SVG Version: 6.00 Build 0)  -->
<!DOCTYPE svg PUBLIC "-//W3C//DTD SVG 1.1//EN" "http://www.w3.org/Graphics/SVG/1.1/DTD/svg11.dtd">
<svg version="1.1" id="图层_1" xmlns="http://www.w3.org/2000/svg" xmlns:xlink="http://www.w3.org/1999/xlink" x="0px" y="0px"
	 viewBox="0 0 48 48" enable-background="new 0 0 48 48" xml:space="preserve">
<linearGradient id="SVGID_1_" gradientUnits="userSpaceOnUse" x1="24" y1="2.1527" x2="24" y2="46.1527">
	<stop  offset="0" style="stop-color:#00BEFF"/>
	<stop  offset="1" style="stop-color:#006CEB"/>
</linearGradient>
<path fill="url(#SVGID_1_)" d="M46,39.4c0,3.6-3,6.6-6.6,6.6H8.6C5,46,2,43,2,39.4V8.6C2,5,5,2,8.6,2h30.8C43,2,46,5,46,8.6V39.4z"
	/>
<path fill="#FFFFFF" d="M41,32.6v0.8c-0.5,0.8-0.9,1.1-1.5,1.4c-0.3,0.1-0.7,0.2-1.1,0.2c-0.5,0-0.9-0.1-1.2-0.3
	c-0.5-0.4-0.8-1.1-0.8-2.1c-0.7,0.7-1.4,1.2-1.9,1.6c-0.8,0.5-1.6,0.8-2.4,0.8c-0.9,0-1.6-0.3-2.2-0.9c-0.6-0.6-0.9-1.4-0.9-2.4
	c0-1.4,0.6-2.6,1.9-3.6c0.9-0.6,2.7-1.6,5.6-2.7v-1.9c0-1-0.3-1.7-0.8-2.2c-0.4-0.3-0.9-0.5-1.5-0.5c-0.5,0-1,0.1-1.5,0.4
	c-0.4,0.3-0.7,0.7-0.7,1.1c0,0.2,0,0.4,0,0.7c0,0.2,0.1,0.4,0.1,0.6c0,0.4-0.1,0.7-0.4,1c-0.3,0.3-0.6,0.4-1,0.4
	c-0.4,0-0.7-0.2-1-0.5s-0.3-0.6-0.3-0.9c0-0.8,0.4-1.5,1.1-2.2c0.9-0.9,2.2-1.3,3.7-1.3c1.9,0,3.2,0.6,3.9,1.8
	c0.4,0.7,0.6,1.8,0.6,3.3v6.2c0,0.7,0,1.1,0.1,1.4c0.1,0.3,0.3,0.4,0.7,0.4c0.3,0,0.5-0.1,0.7-0.2C40.7,32.9,40.8,32.7,41,32.6z
	 M36.5,30.8v-4.7c-2,0.7-3.4,1.5-4.1,2.4c-0.5,0.6-0.8,1.3-0.8,2.1c0,0.8,0.2,1.4,0.6,1.9c0.4,0.5,0.8,0.7,1.4,0.7
	c0.3,0,0.6-0.1,1-0.2c0.4-0.1,0.7-0.3,0.9-0.4c0.4-0.2,0.7-0.4,0.8-0.7C36.4,31.7,36.5,31.3,36.5,30.8z"/>
<path fill="#FFFFFF" d="M27.7,34C27,34,26,33.6,25,31.5L17.6,13H17l-6.3,16c-0.5,1.2-0.8,2-1.1,2.5c-0.5,1-0.8,1.8-1.1,2.1
	C8.3,33.9,8,34,7.8,34H7v1h6l0,0l0,0v-1c0,0,0,0,0,0l0,0h-0.6c-0.6-0.1-1.4-0.3-1.5-1c0-0.4,0.1-0.8,0.2-1.2l1.3-3.8h7.9l1.2,3.1
	c0.2,0.5,0.3,0.9,0.4,1.3c0.1,0.3,0.1,0.6,0.1,0.8C22.3,34,20.7,34,20,34h0v1h8v0v-1v0H27.7z M16.5,17.7l3.6,9.3h-7.2L16.5,17.7z"/>
</svg>
