<?xml version="1.0" encoding="UTF-8"?>
<svg width="24px" height="24px" viewBox="0 0 24 24" version="1.1" xmlns="http://www.w3.org/2000/svg" xmlns:xlink="http://www.w3.org/1999/xlink">
    <!-- Generator: Sketch 51.3 (57544) - http://www.bohemiancoding.com/sketch -->
    <title>games-config-tiles</title>
    <desc>Created with Sketch.</desc>
    <defs></defs>
    <g id="games-config-tiles" stroke="none" stroke-width="1" fill="none" fill-rule="evenodd">
        <g id="175" transform="translate(5.000000, 5.000000)" fill="#303030" fill-rule="nonzero">
            <path d="M1,1 L1,13 L13,13 L13,1 L1,1 Z M0,0 L14,0 L14,14 L0,14 L0,0 Z" id="Path"></path>
            <path d="M3,3 C3.0099,3 3,3.0099 3,3 L3,4 C3,3.9901 3.0099,4 3,4 L11,4 C10.99,4 11,3.9901 11,4 L11,3 C11,3.0099 10.99,3 11,3 L3,3 Z" id="Path"></path>
            <path d="M3,6 C3.0099,6 3,6.0099 3,6 L3,7 C3,6.9901 3.0099,7 3,7 L11,7 C10.99,7 11,6.9901 11,7 L11,6 C11,6.0099 10.99,6 11,6 L3,6 Z" id="Path"></path>
            <path d="M3,9 C3.0099,9 3,9.008 3,9 L3,10 C3,9.9902 3.0099,10.0002 3,10 L11,10 C10.99,10.0002 11,9.9902 11,10 L11,9 C11,9.008 10.99,9 11,9 L3,9 Z" id="Path"></path>
        </g>
    </g>
</svg>