<?xml version="1.0" encoding="UTF-8"?>
<svg width="24px" height="24px" viewBox="0 0 24 24" version="1.1" xmlns="http://www.w3.org/2000/svg" xmlns:xlink="http://www.w3.org/1999/xlink">
    <!-- Generator: Sketch 51.3 (57544) - http://www.bohemiancoding.com/sketch -->
    <title>kstars_fitsviewer</title>
    <desc>Created with Sketch.</desc>
    <defs></defs>
    <g id="kstars_fitsviewer" stroke="none" stroke-width="1" fill="none" fill-rule="evenodd">
        <path d="M10,6 C13.6652,6 16.66616,8.4086094 16.96875,11.4746094 C16.98786,11.6073094 16.9983,11.7414 17,11.875 C16.9988,11.892 16.997494,11.9087812 16.996094,11.9257812 C16.996294,11.9447813 17,11.965375 17,11.984375 L16.992188,11.984375 C16.916888,14.102375 14.705,15.791016 12,15.791016 C11.2219,15.790016 10.4547856,15.647147 9.7597656,15.373047 C10.8233656,16.359347 12.3275,16.978516 14,16.978516 C17.2217,16.978516 18.83401,14.694653 18.833984,11.8769531 C18.833984,9.0592531 17.2217,6.0019531 14,6.0019531 C17.866,6.0019531 20,8.4976062 20,11.8789062 C20,15.260106 17.866,18.001953 14,18.001953 C10.2585,18.001953 7.2124813,15.433425 7.0195312,12.203125 C7.0075402,12.097525 7.00102,11.9907656 7,11.8847656 L7,11.875 C7,9.712 9.2386,7.9589844 12,7.9589844 C12.6134,7.9606844 13.2211887,8.0506094 13.7929688,8.2246094 C12.7708687,7.4705094 11.4561,6.9960938 10,6.9960938 C6.7783,6.9960938 5.1659901,9.230475 5.1660156,11.984375 C5.1660156,14.738275 6.7783,17.75 10,17.75 C6.134,17.75 4,15.288975 4,11.984375 C4,8.679875 6.134,6 10,6 Z M8.43964998,13.7420677 C10.2816312,14.6787494 11.7962252,14.9909766 12.9834322,14.6787494 C14.1706391,14.3665222 15.092547,13.8198469 15.7491559,13.0387237 C16.1711237,12.144094 16.0629281,11.0594822 15.424569,9.78488841 C15.2426497,9.68881107 14.4957571,9.43239562 13.183891,9.01564206 C11.7254467,8.9336625 10.6993504,9.04137534 10.1056021,9.33878056 C8.10159293,10.2216299 7.54627557,11.6893923 8.43964998,13.7420677 Z" id="Combined-Shape" fill="#303030" fill-rule="nonzero"></path>
    </g>
</svg>