<?xml version="1.0" encoding="UTF-8"?>
<svg width="24px" height="24px" viewBox="0 0 24 24" version="1.1" xmlns="http://www.w3.org/2000/svg" xmlns:xlink="http://www.w3.org/1999/xlink">
    <!-- Generator: Sketch 51.3 (57544) - http://www.bohemiancoding.com/sketch -->
    <title>kstars_grid</title>
    <desc>Created with Sketch.</desc>
    <defs></defs>
    <g id="kstars_grid" stroke="none" stroke-width="1" fill="none" fill-rule="evenodd">
        <path d="M7.5253906,4 L10.4277344,5.2792969 C9.9455844,6.2083969 9.3338531,7.0555531 8.6269531,7.8144531 L4.81835938,4.01953125 L4.01171875,4.01953125 L4.01171875,4.96875 L7.734375,8.6738281 C7.013545,9.2977281 6.220575,9.8366781 5.359375,10.2675781 L4.56835938,8.4824219 L4.02929688,7.2265625 L4.015625,10.25 L4.24023438,10.7558594 C4.15877237,10.7858594 4.08232,10.8264688 4,10.8554688 L4,12.1640625 C4.25343,12.0850625 4.49383437,11.9786656 4.74023438,11.8847656 L6.6757812,16.25 C5.8141912,16.5847 4.9223,16.864753 4,17.064453 L4,18.333984 C5.0992,18.112184 6.1576344,17.782553 7.1777344,17.376953 L8.3125,19.939453 L9.6445312,19.939453 L8.2949219,16.892578 C9.9790219,16.091278 11.5220125,15.045181 12.8828125,13.8007812 L16.306641,17.208984 C15.188341,18.249884 13.9746219,19.1899 12.6699219,20 L14.890625,20 C15.696855,19.41 16.455394,18.761278 17.183594,18.080078 L19.050781,19.939453 L19.939453,19.949219 L19.945312,19.09375 L18.060547,17.216797 C18.746247,16.508797 19.4016,15.771228 20,14.986328 L20,12.8378906 C19.17694,14.098291 18.2303,15.268503 17.1875,16.345703 L13.7675781,12.9375 C15.100578,11.547 16.221172,9.9537781 17.076172,8.2050781 L19.935547,9.4648438 L19.939453,8.1191406 L17.572266,7.09375 C17.977526,6.10565 18.310769,5.0815781 18.542969,4.01757812 L17.273438,4.01757812 C17.064797,4.90917812 16.783099,5.7705156 16.443359,6.6035156 L12.0390625,4.6953125 C12.1295525,4.4689125 12.23485,4.25007812 12.3125,4.01757812 L10.9960938,4.01757812 C10.9715837,4.08357812 10.9377794,4.14388437 10.9121094,4.20898438 L10.4316406,4 L7.5253906,4 Z M11.5546875,5.7753906 L15.947266,7.7089844 C15.155486,9.3182844 14.119478,10.7840062 12.8925781,12.0664062 L9.5,8.6855469 C10.31296,7.8185469 11.0075875,6.8427906 11.5546875,5.7753906 Z M8.609375,9.5449219 L12.0078125,12.9277344 C10.7545125,14.065534 9.3384687,15.024519 7.7929688,15.761719 L5.859375,11.3945312 C6.859105,10.8983312 7.779175,10.2745219 8.609375,9.5449219 Z" id="Shape" fill="#303030" fill-rule="nonzero"></path>
    </g>
</svg>