<?xml version="1.0" encoding="UTF-8"?>
<svg width="24px" height="24px" viewBox="0 0 24 24" version="1.1" xmlns="http://www.w3.org/2000/svg" xmlns:xlink="http://www.w3.org/1999/xlink">
    <!-- Generator: Sketch 51.3 (57544) - http://www.bohemiancoding.com/sketch -->
    <title>tag-recents</title>
    <desc>Created with Sketch.</desc>
    <defs></defs>
    <g id="tag-recents" stroke="none" stroke-width="1" fill="none" fill-rule="evenodd">
        <g transform="translate(5.000000, 5.000000)" fill="#303030" fill-rule="nonzero">
            <path d="M1,6.58578644 L7,12.5857864 L12.5857864,7 L6.58578644,1 L2,1 C1.89138725,1 1.65840834,1.03882982 1.4472136,1.14442719 C1.14979226,1.29313786 1,1.51782625 1,2 L1,6.58578644 Z M2,0 L7,0 L14,7 L7,14 L0,7 L0,2 C0,0 2,0 2,0 Z" id="Path"></path>
            <path d="M6,2 C8.216,2 10,3.784 10,6 C10,8.216 8.216,10 6,10 C3.784,10 2,8.216 2,6 C2,3.784 3.784,2 6,2 Z M6,3 C4.338,3 3,4.338 3,6 C3,7.662 4.338,9 6,9 C7.662,9 9,7.662 9,6 C9,4.338 7.662,3 6,3 Z" id="Combined-Shape"></path>
            <polygon id="Path" points="5 4 6 4 6 6 7 6 7 7 5 7"></polygon>
        </g>
    </g>
</svg>