<?xml version="1.0" encoding="UTF-8"?>
<svg width="24px" height="24px" viewBox="0 0 24 24" version="1.1" xmlns="http://www.w3.org/2000/svg" xmlns:xlink="http://www.w3.org/1999/xlink">
    <!-- Generator: Sketch 51.3 (57544) - http://www.bohemiancoding.com/sketch -->
    <title>tool_color_eraser</title>
    <desc>Created with Sketch.</desc>
    <defs></defs>
    <g id="tool_color_eraser" stroke="none" stroke-width="1" fill="none" fill-rule="evenodd">
        <g id="98" transform="translate(4.000000, 5.000000)" fill="#303030" fill-rule="nonzero">
            <path d="M7.09043633,1.18784377 L2.09063566,9.84765452 C2.09055557,9.84779323 3.24541084,10.5148341 5.55520146,11.8487771 C5.55534608,11.8485272 7.22206659,8.96171583 10.555363,3.18834283 L7.09043633,1.18784377 Z M5.39687183,12.0493137 C5.39436393,12.0508705 5.39190732,12.0524449 5.38950258,12.0540355 C5.39628583,12.049549 5.40412588,12.0433195 5.41278371,12.0354843 L5.39687183,12.0493137 Z M6.9492188,0.0429688 C7.0262988,0.0291987 7.0982031,0.0376456 7.1582031,0.0722656 L11.488281,2.5722656 C11.728161,2.7107356 11.698875,3.20772 11.421875,3.6875 L6.421875,12.347656 C6.144875,12.827436 5.7281713,13.103344 5.4882812,12.964844 L1.1582031,10.464844 C0.91833313,10.326334 0.94760938,9.827436 1.2246094,9.347656 L6.2246094,0.6875 C6.4323594,0.32767 6.7179987,0.0842988 6.9492188,0.0429688 Z M11.156625,9.51278506 C11.0699938,9.62274341 10.4259191,10.4073517 10.2864837,10.5962463 C10.1282044,10.810669 10.0428968,10.9606233 10.0025891,11.101559 C10.0010072,11.1184902 9.99990787,11.1294854 9.99874271,11.1392386 C10.0434866,11.5589681 10.6508093,11.998047 11.496094,11.998047 C12.3484254,11.998047 12.9587905,11.5516479 12.9944448,11.1287688 C12.9936695,11.1221808 12.9927277,11.1140983 12.9915289,11.1038096 L12.9891641,11.0807136 C12.9715178,11.0007315 12.8857856,10.8398168 12.7054303,10.595257 C12.5657899,10.4059062 11.9209116,9.61959228 11.8353161,9.510874 C11.7136383,9.35632599 11.6014916,9.20816452 11.4967926,9.06233338 C11.3918375,9.20843405 11.27905,9.35739467 11.156625,9.51278506 Z M9.9960938,11.089844 C9.9960938,11.1034231 9.99576208,11.116689 9.99521304,11.1292617 C9.99585473,11.1266587 9.99651134,11.1240539 9.99718305,11.1214468 C9.99645861,11.1108937 9.9960938,11.100357 9.9960938,11.089844 Z M9.92744719,11.3593104 C9.93011576,11.3542853 9.93194517,11.3508097 9.93467951,11.3430137 C9.93253161,11.3481433 9.93027778,11.3530935 9.92744719,11.3593104 Z M12.996667,11.1203818 C12.9964769,11.1151566 12.996325,11.1097421 12.9962254,11.1042035 C12.9959994,11.1011534 12.9957934,11.1076202 12.9954515,11.1140937 L12.996667,11.1203818 Z M12.9962254,11.1042035 C12.9961407,11.0994934 12.996094,11.0946935 12.996094,11.089844 C12.996094,11.0914605 12.9960854,11.0930776 12.9960681,11.0946952 L12.9962254,11.1042035 Z M13.0013208,11.1800486 L13.0007196,11.1759876 C13.0004481,11.1741628 13.0001971,11.1724756 12.9999626,11.170895 C13.000686,11.1779962 13.0012429,11.1815201 13.0013208,11.1800486 Z M11.496094,6.9980469 C11.599604,7.2824569 11.739485,7.5593712 11.890625,7.8320312 C12.660925,9.182131 13.866142,10.106924 13.982422,10.958984 C13.985622,10.971714 13.994094,10.985407 13.996094,10.998047 C13.989328,11.031253 13.996094,11.060614 13.996094,11.089844 C13.996094,12.144174 12.876794,12.998047 11.496094,12.998047 C10.115394,12.998047 8.9960938,12.144144 8.9960938,11.089844 C8.9960938,11.060614 9.0058125,11.031263 9.0078125,11.001953 C8.9986937,10.985367 9.0067656,10.971714 9.0097656,10.958984 C9.1260656,10.106984 10.331293,9.184084 11.101562,7.8339844 C11.252702,7.5613244 11.392574,7.2824569 11.496094,6.9980469 Z" id="Shape"></path>
        </g>
    </g>
</svg>