<?xml version="1.0" encoding="UTF-8"?>
<svg width="24px" height="24px" viewBox="0 0 24 24" version="1.1" xmlns="http://www.w3.org/2000/svg" xmlns:xlink="http://www.w3.org/1999/xlink">
    <!-- Generator: Sketch 51.3 (57544) - http://www.bohemiancoding.com/sketch -->
    <title>transform-affect-rounded-corners</title>
    <desc>Created with Sketch.</desc>
    <defs></defs>
    <g id="transform-affect-rounded-corners" stroke="none" stroke-width="1" fill="none" fill-rule="evenodd">
        <path d="M6.5078125,6 C6.23167013,6 6.0078125,6.22385763 6.0078125,6.5 C6.0078125,6.77614237 6.23167013,7 6.5078125,7 L12.0039062,7 C13.6576063,7 14.893656,7.4668344 15.722656,8.2402344 C16.550656,9.0137344 17,10.111 17,11.5 C17,11.7761424 17.2238576,12 17.5,12 C17.7761424,12 18,11.7761424 18,11.5 C18,9.889 17.450297,8.4862656 16.404297,7.5097656 C15.359297,6.5331656 13.8481063,6 12.0039062,6 L6.5078125,6 Z M6.5078125,9 C6.23167013,9 6.0078125,9.22385763 6.0078125,9.5 C6.0078125,9.77614237 6.23167013,10 6.5078125,10 L10.5039062,10 C11.6865062,10 12.4147031,10.2364375 12.8457031,10.6484375 C13.2767031,11.0605375 13.5019531,11.7231813 13.5019531,12.8007812 C13.5020766,13.0768362 13.725898,13.3005576 14.0019531,13.3005576 C14.2780081,13.3005576 14.5018295,13.0768362 14.501953,12.8007812 C14.501953,11.5783812 14.227956,10.5886813 13.5351562,9.9257812 C12.8417562,9.2627812 11.8198062,9 10.5039062,9 L6.5078125,9 Z M15.007812,13.0136719 L15.007812,15.007812 L13.0058594,15.007812 L13.0058594,16.003906 L15.007812,16.003906 L15.007812,18 L18.011719,15.505859 L15.007812,13.0136719 Z M8,14.992188 L8,16.021484 L9,16.021484 L9,14.992188 L8,14.992188 Z M10.0175781,14.992188 L10.0175781,16.021484 L10.5019531,16.021484 L11.5039062,16.021484 L11.9882812,16.021484 L11.9882812,14.992188 L11.5039062,14.992188 L10.5019531,14.992188 L10.0175781,14.992188 Z" id="Shape" fill="#303030" fill-rule="nonzero"></path>
    </g>
</svg>