<?xml version="1.0" encoding="UTF-8"?>
<svg width="24px" height="24px" viewBox="0 0 24 24" version="1.1" xmlns="http://www.w3.org/2000/svg" xmlns:xlink="http://www.w3.org/1999/xlink">
    <!-- Generator: Sketch 51.3 (57544) - http://www.bohemiancoding.com/sketch -->
    <title>xc_crosshair</title>
    <desc>Created with Sketch.</desc>
    <defs></defs>
    <g id="xc_crosshair" stroke="none" stroke-width="1" fill="none" fill-rule="evenodd">
        <g id="139" transform="translate(4.000000, 4.000000)" fill="#303030" fill-rule="nonzero">
            <path d="M6,0 L10,0 L10,6 L6,6 L6,0 Z M7,1 L7,5 L9,5 L9,1 L7,1 Z" id="Combined-Shape"></path>
            <path d="M10,6 L16,6 L16,10 L10,10 L10,6 Z M11,7 L11,9 L15,9 L15,7 L11,7 Z" id="Combined-Shape"></path>
            <path d="M10,10 L10,16 L6,16 L6,10 L10,10 Z M7,11 L7,15 L9,15 L9,11 L7,11 Z" id="Combined-Shape"></path>
            <path d="M6,10 L0,10 L0,6 L6,6 L6,10 Z M1,7 L1,9 L5,9 L5,7 L1,7 Z" id="Combined-Shape"></path>
        </g>
    </g>
</svg>