<svg xmlns="http://www.w3.org/2000/svg" xmlns:xlink="http://www.w3.org/1999/xlink" width="24" height="24" viewBox="0 0 24 24">
  <defs>
    <linearGradient id="application-vnd.sun.xml.math-c" x1="50%" x2="50%" y1="0%" y2="100%">
      <stop offset="0%" stop-color="#5C84F0"/>
      <stop offset="100%" stop-color="#3B57E3"/>
    </linearGradient>
    <path id="application-vnd.sun.xml.math-b" d="M10.5,0 L16,5.5 L16,17.75 C16,18.9926407 14.9926407,20 13.75,20 L2.25,20 C1.00735931,20 1.52179594e-16,18.9926407 0,17.75 L0,2.25 C-1.52179594e-16,1.00735931 1.00735931,2.28269391e-16 2.25,0 L10.5,0 Z"/>
    <filter id="application-vnd.sun.xml.math-a" width="143.8%" height="135%" x="-21.9%" y="-12.5%" filterUnits="objectBoundingBox">
      <feOffset dy="1" in="SourceAlpha" result="shadowOffsetOuter1"/>
      <feGaussianBlur in="shadowOffsetOuter1" result="shadowBlurOuter1" stdDeviation="1"/>
      <feColorMatrix in="shadowBlurOuter1" values="0 0 0 0 0.133333333   0 0 0 0 0.215686275   0 0 0 0 0.650980392  0 0 0 0.5 0"/>
    </filter>
    <linearGradient id="application-vnd.sun.xml.math-f" x1="50%" x2="14.088%" y1="50%" y2="88.513%">
      <stop offset="0%" stop-color="#FFF" stop-opacity=".1"/>
      <stop offset="100%" stop-color="#FFF" stop-opacity=".3"/>
    </linearGradient>
    <path id="application-vnd.sun.xml.math-e" d="M10.5,0 L16,5.64102564 L12.75,5.64102564 C11.5073593,5.64102564 10.5,4.63366633 10.5,3.39102564 L10.5,0 Z"/>
    <filter id="application-vnd.sun.xml.math-d" width="172.7%" height="170.9%" x="-36.4%" y="-17.7%" filterUnits="objectBoundingBox">
      <feOffset dy="1" in="SourceAlpha" result="shadowOffsetOuter1"/>
      <feGaussianBlur in="shadowOffsetOuter1" result="shadowBlurOuter1" stdDeviation=".5"/>
      <feComposite in="shadowBlurOuter1" in2="SourceAlpha" operator="out" result="shadowBlurOuter1"/>
      <feColorMatrix in="shadowBlurOuter1" values="0 0 0 0 0   0 0 0 0 0   0 0 0 0 0  0 0 0 0.05 0"/>
    </filter>
  </defs>
  <g fill="none" fill-rule="evenodd">
    <g transform="translate(4 2)">
      <use fill="#000" filter="url(#application-vnd.sun.xml.math-a)" xlink:href="#application-vnd.sun.xml.math-b"/>
      <use fill="url(#application-vnd.sun.xml.math-c)" xlink:href="#application-vnd.sun.xml.math-b"/>
      <use fill="#000" filter="url(#application-vnd.sun.xml.math-d)" xlink:href="#application-vnd.sun.xml.math-e"/>
      <use fill="url(#application-vnd.sun.xml.math-f)" xlink:href="#application-vnd.sun.xml.math-e"/>
    </g>
    <path fill="#FFF" d="M8,8.5 L8,10.5 C8,10.777 8.223,11 8.5,11 C8.777,11 9,10.777 9,10.5 L9,8.5 C9,8.223 8.777,8 8.5,8 C8.223,8 8,8.223 8,8.5 Z M10,8.5 L10,10.5 C10,10.777 10.223,11 10.5,11 C10.777,11 11,10.777 11,10.5 L11,8.5 C11,8.223 10.777,8 10.5,8 C10.223,8 10,8.223 10,8.5 Z M8,12.5 L8,14.5 C8,14.777 8.223,15 8.5,15 C8.777,15 9,14.777 9,14.5 L9,12.5 C9,12.223 8.777,12 8.5,12 C8.223,12 8,12.223 8,12.5 Z M15,15.5 L15,17.5 C15,17.777 15.223,18 15.5,18 C15.777,18 16,17.777 16,17.5 L16,15.5 C16,15.223 15.777,15 15.5,15 C15.223,15 15,15.223 15,15.5 Z M12,8.5 L12,10.5 C12,10.777 12.223,11 12.5,11 C12.777,11 13,10.777 13,10.5 L13,8.5 C13,8.223 12.777,8 12.5,8 C12.223,8 12,8.223 12,8.5 Z M6,10 L7,10 L7,9 L6,9 L6,10 Z M14,10 L18,10 L18,9 L14,9 L14,10 Z M6,14 L7,14 L7,13 L6,13 L6,14 Z M12,14 L18,14 L18,13 L12,13 L12,14 Z M6,17 L14,17 L14,16 L6,16 L6,17 Z M17,17 L18,17 L18,16 L17,16 L17,17 Z M10,12.5 L10,14.5 C10,14.777 10.223,15 10.5,15 C10.777,15 11,14.777 11,14.5 L11,12.5 C11,12.223 10.777,12 10.5,12 C10.223,12 10,12.223 10,12.5 Z"/>
  </g>
</svg>
