<svg xmlns="http://www.w3.org/2000/svg" xmlns:xlink="http://www.w3.org/1999/xlink" width="24" height="24" viewBox="0 0 24 24">
  <defs>
    <linearGradient id="application-x-ace-c" x1="50%" x2="50%" y1="0%" y2="100%">
      <stop offset="0%" stop-color="#19BD72"/>
      <stop offset="100%" stop-color="#00914F"/>
    </linearGradient>
    <path id="application-x-ace-b" d="M10.5,0 L16,5.5 L16,17.75 C16,18.9926407 14.9926407,20 13.75,20 L2.25,20 C1.00735931,20 1.52179594e-16,18.9926407 0,17.75 L0,2.25 C-1.52179594e-16,1.00735931 1.00735931,2.28269391e-16 2.25,0 L10.5,0 Z"/>
    <filter id="application-x-ace-a" width="143.8%" height="135%" x="-21.9%" y="-12.5%" filterUnits="objectBoundingBox">
      <feOffset dy="1" in="SourceAlpha" result="shadowOffsetOuter1"/>
      <feGaussianBlur in="shadowOffsetOuter1" result="shadowBlurOuter1" stdDeviation="1"/>
      <feColorMatrix in="shadowBlurOuter1" values="0 0 0 0 0.00784313725   0 0 0 0 0.42745098   0 0 0 0 0.168627451  0 0 0 0.5 0"/>
    </filter>
    <linearGradient id="application-x-ace-f" x1="50%" x2="14.088%" y1="50%" y2="88.513%">
      <stop offset="0%" stop-color="#FFF" stop-opacity=".1"/>
      <stop offset="100%" stop-color="#FFF" stop-opacity=".3"/>
    </linearGradient>
    <path id="application-x-ace-e" d="M10.5,0 L16,5.64102564 L12.75,5.64102564 C11.5073593,5.64102564 10.5,4.63366633 10.5,3.39102564 L10.5,0 Z"/>
    <filter id="application-x-ace-d" width="172.7%" height="170.9%" x="-36.4%" y="-17.7%" filterUnits="objectBoundingBox">
      <feOffset dy="1" in="SourceAlpha" result="shadowOffsetOuter1"/>
      <feGaussianBlur in="shadowOffsetOuter1" result="shadowBlurOuter1" stdDeviation=".5"/>
      <feComposite in="shadowBlurOuter1" in2="SourceAlpha" operator="out" result="shadowBlurOuter1"/>
      <feColorMatrix in="shadowBlurOuter1" values="0 0 0 0 0   0 0 0 0 0   0 0 0 0 0  0 0 0 0.05 0"/>
    </filter>
  </defs>
  <g fill="none" fill-rule="evenodd">
    <g transform="translate(4 2)">
      <use fill="#000" filter="url(#application-x-ace-a)" xlink:href="#application-x-ace-b"/>
      <use fill="url(#application-x-ace-c)" xlink:href="#application-x-ace-b"/>
      <use fill="#000" filter="url(#application-x-ace-d)" xlink:href="#application-x-ace-e"/>
      <use fill="url(#application-x-ace-f)" xlink:href="#application-x-ace-e"/>
    </g>
    <g transform="translate(4 9)">
      <path fill="#FFF8F8" fill-opacity=".5" d="M4,1 L4,4 L0,4 L0,1 L4,1 Z M12,1 L16,1 L16,4 L12,4 L12,1 Z"/>
      <path fill="#F4F4F4" d="M5.375,0 L10.625,0 C10.8321068,-3.80448985e-17 11,0.167893219 11,0.375 L11,4.625 C11,4.83210678 10.8321068,5 10.625,5 L5.375,5 C5.16789322,5 5,4.83210678 5,4.625 L5,0.375 C5,0.167893219 5.16789322,3.80448985e-17 5.375,0 Z M6,1 L6,4 L10,4 L10,1 L6,1 Z M6,2 L9,2 L9,3 L6,3 L6,2 Z"/>
    </g>
    <path fill="#FFF" d="M9.625,20 L7.375,20 L7,21 L6,21 L8,16 L9,16 L11,21 L10,21 L9.625,20 Z M9.25,19 L8.5,17 L7.75,19 L9.25,19 Z M16,20 L16.0000001,16 L19.0000001,16 L19.0000001,17 L17.0000001,17 L17,18 L17.9999999,18 L18,19 L17.0000001,19 L17,20 L19.0000001,20 L19.0000001,21 L16,21 L16,20 Z M14.252482,17.6038316 C14.0245819,17.2373191 13.6603863,17 13.25,17 C12.5596441,17 12,17.6715729 12,18.5 C12,19.3284271 12.5596441,20 13.25,20 C13.6603863,20 14.0245819,19.7626809 14.252482,19.3961684 L15,20.0617948 C14.5883883,20.633738 13.9556513,21 13.2460586,21 C12.0055947,21 11,19.8807119 11,18.5 C11,17.1192881 12.0055947,16 13.2460586,16 C13.9556513,16 14.5883883,16.366262 15,16.9382052 L14.252482,17.6038316 Z"/>
  </g>
</svg>
