<svg xmlns="http://www.w3.org/2000/svg" xmlns:xlink="http://www.w3.org/1999/xlink" width="24" height="24" viewBox="0 0 24 24">
  <defs>
    <linearGradient id="image-bmp-c" x1="50%" x2="50%" y1="0%" y2="100%">
      <stop offset="0%" stop-color="#28DCB1"/>
      <stop offset="100%" stop-color="#00AF9D"/>
    </linearGradient>
    <path id="image-bmp-b" d="M10.5,0 L16,5.5 L16,17.75 C16,18.9926407 14.9926407,20 13.75,20 L2.25,20 C1.00735931,20 1.52179594e-16,18.9926407 0,17.75 L0,2.25 C-1.52179594e-16,1.00735931 1.00735931,2.28269391e-16 2.25,0 L10.5,0 Z"/>
    <filter id="image-bmp-a" width="143.8%" height="135%" x="-21.9%" y="-12.5%" filterUnits="objectBoundingBox">
      <feOffset dy="1" in="SourceAlpha" result="shadowOffsetOuter1"/>
      <feGaussianBlur in="shadowOffsetOuter1" result="shadowBlurOuter1" stdDeviation="1"/>
      <feColorMatrix in="shadowBlurOuter1" values="0 0 0 0 0.262745098   0 0 0 0 0.71372549   0 0 0 0 0.607843137  0 0 0 0.5 0"/>
    </filter>
    <linearGradient id="image-bmp-f" x1="50%" x2="14.088%" y1="50%" y2="88.513%">
      <stop offset="0%" stop-color="#FFF" stop-opacity=".1"/>
      <stop offset="100%" stop-color="#FFF" stop-opacity=".3"/>
    </linearGradient>
    <path id="image-bmp-e" d="M10.5,0 L16,5.64102564 L12.75,5.64102564 C11.5073593,5.64102564 10.5,4.63366633 10.5,3.39102564 L10.5,0 Z"/>
    <filter id="image-bmp-d" width="172.7%" height="170.9%" x="-36.4%" y="-17.7%" filterUnits="objectBoundingBox">
      <feOffset dy="1" in="SourceAlpha" result="shadowOffsetOuter1"/>
      <feGaussianBlur in="shadowOffsetOuter1" result="shadowBlurOuter1" stdDeviation=".5"/>
      <feComposite in="shadowBlurOuter1" in2="SourceAlpha" operator="out" result="shadowBlurOuter1"/>
      <feColorMatrix in="shadowBlurOuter1" values="0 0 0 0 0   0 0 0 0 0   0 0 0 0 0  0 0 0 0.05 0"/>
    </filter>
  </defs>
  <g fill="none" fill-rule="evenodd">
    <g transform="translate(4 2)">
      <use fill="#000" filter="url(#image-bmp-a)" xlink:href="#image-bmp-b"/>
      <use fill="url(#image-bmp-c)" xlink:href="#image-bmp-b"/>
      <use fill="#000" filter="url(#image-bmp-d)" xlink:href="#image-bmp-e"/>
      <use fill="url(#image-bmp-f)" xlink:href="#image-bmp-e"/>
    </g>
    <g fill="#FFF" transform="translate(5 15)">
      <path d="M15 1.5C15 .665797234 14.3305244 0 13.5046844 0L13 0 11 0 11 5 12 5 12 3 13.7096057 2.9858064C14.4329331 2.8848923 15 2.25812752 15 1.5zM13.4953156 1C13.7740451 1 14 1.23193359 14 1.5 14 1.77614237 13.785965 2 13.4953156 2L12 2 12 1 13.4953156 1zM4 1.5C4 .665797234 3.33052442 0 2.50468445 0L2 0 0 0 0 5 1 5 1 3 2.70960569 2.9858064C3.43293305 2.8848923 4 2.25812752 4 1.5zM2.49531555 1C2.77404508 1 3 1.23193359 3 1.5 3 1.77614237 2.78596497 2 2.49531555 2L1 2 1 1 2.49531555 1z"/>
      <path d="M4,3.5 C4,2.66579723 3.33052442,2 2.50468445,2 L2,2 L1,2 L1,5 L2.70960569,4.9858064 C3.43293305,4.8848923 4,4.25812752 4,3.5 Z M2.49531555,3 C2.77404508,3 3,3.23193359 3,3.5 C3,3.77614237 2.78596497,4 2.49531555,4 L1,4 L1,3 L2.49531555,3 Z" transform="matrix(1 0 0 -1 0 7)"/>
      <polygon points="7.5 4 7 4 6 2 6 5 5 5 5 0 5.5 0 6 0 7.5 3 9 0 9.5 0 10 0 10 5 9 5 9 2 8 4"/>
    </g>
  </g>
</svg>
