<svg xmlns="http://www.w3.org/2000/svg" xmlns:xlink="http://www.w3.org/1999/xlink" width="24" height="24" viewBox="0 0 24 24">
  <defs>
    <linearGradient id="multipart-encrypted-c" x1="50%" x2="50%" y1="0%" y2="98.947%">
      <stop offset="0%" stop-color="#F7F7F7"/>
      <stop offset="100%" stop-color="#F6F6F6"/>
    </linearGradient>
    <path id="multipart-encrypted-b" d="M10.5,0 L16,5.5 L16,17.75 C16,18.9926407 14.9926407,20 13.75,20 L2.25,20 C1.00735931,20 1.52179594e-16,18.9926407 0,17.75 L0,2.25 C-1.52179594e-16,1.00735931 1.00735931,2.28269391e-16 2.25,0 L10.5,0 Z"/>
    <filter id="multipart-encrypted-a" width="150%" height="140%" x="-25%" y="-15%" filterUnits="objectBoundingBox">
      <feMorphology in="SourceAlpha" operator="dilate" radius=".5" result="shadowSpreadOuter1"/>
      <feOffset dy="1" in="shadowSpreadOuter1" result="shadowOffsetOuter1"/>
      <feGaussianBlur in="shadowOffsetOuter1" result="shadowBlurOuter1" stdDeviation="1"/>
      <feComposite in="shadowBlurOuter1" in2="SourceAlpha" operator="out" result="shadowBlurOuter1"/>
      <feColorMatrix in="shadowBlurOuter1" values="0 0 0 0 0   0 0 0 0 0   0 0 0 0 0  0 0 0 0.1 0"/>
    </filter>
    <linearGradient id="multipart-encrypted-f" x1="50%" x2="14.088%" y1="50%" y2="88.513%">
      <stop offset="0%" stop-color="#FFF" stop-opacity=".1"/>
      <stop offset="100%" stop-color="#FFF" stop-opacity=".3"/>
    </linearGradient>
    <path id="multipart-encrypted-e" d="M10.5,0 L16,5.64102564 L12.75,5.64102564 C11.5073593,5.64102564 10.5,4.63366633 10.5,3.39102564 L10.5,0 Z"/>
    <filter id="multipart-encrypted-d" width="172.7%" height="170.9%" x="-36.4%" y="-17.7%" filterUnits="objectBoundingBox">
      <feOffset dy="1" in="SourceAlpha" result="shadowOffsetOuter1"/>
      <feGaussianBlur in="shadowOffsetOuter1" result="shadowBlurOuter1" stdDeviation=".5"/>
      <feComposite in="shadowBlurOuter1" in2="SourceAlpha" operator="out" result="shadowBlurOuter1"/>
      <feColorMatrix in="shadowBlurOuter1" values="0 0 0 0 0   0 0 0 0 0   0 0 0 0 0  0 0 0 0.05 0"/>
    </filter>
  </defs>
  <g fill="none" fill-rule="evenodd">
    <g transform="translate(4 2)">
      <use fill="#000" filter="url(#multipart-encrypted-a)" xlink:href="#multipart-encrypted-b"/>
      <path fill="url(#multipart-encrypted-c)" stroke="#000" stroke-opacity=".1" stroke-width=".5" d="M10.6767767,-0.176776695 L16.1767767,5.3232233 L16.25,5.5 L16.25,17.75 C16.25,19.1307119 15.1307119,20.25 13.75,20.25 L2.25,20.25 C0.869288125,20.25 -0.25,19.1307119 -0.25,17.75 L-0.25,2.25 C-0.25,0.869288125 0.869288125,-0.25 2.25,-0.25 L10.5,-0.25 L10.6767767,-0.176776695 Z"/>
      <use fill="#000" filter="url(#multipart-encrypted-d)" xlink:href="#multipart-encrypted-e"/>
      <use fill="url(#multipart-encrypted-f)" xlink:href="#multipart-encrypted-e"/>
    </g>
    <g fill="#6E79E0" transform="translate(6 9)">
      <polygon points="5 0 3 0 3 1 4 1 4 3 3 3 3 4 6 4 6 3 5 3"/>
      <polygon points="2 5 0 5 0 6 1 6 1 8 0 8 0 9 3 9 3 8 2 8"/>
      <polygon points="5 5 3 5 3 6 4 6 4 8 3 8 3 9 6 9 6 8 5 8"/>
      <polygon points="11 5 9 5 9 6 10 6 10 8 9 8 9 9 12 9 12 8 11 8"/>
      <path fill-rule="nonzero" d="M1.5 1C1.77480558 1 2 1.30133846 2 1.66722182L2 2.33277818C2 2.70284844 1.7778524 3 1.5 3 1.22519442 3 1 2.69866154 1 2.33277818L1 1.66722182C1 1.29715156 1.2221476 1 1.5 1zM0 2.39933381C0 3.27958039.672974497 4 1.5 4 2.33153344 4 3 3.28467062 3 2.39933381L3 1.60066619C3 .720419611 2.3270255 0 1.5 0 .668466565 0 0 .715329379 0 1.60066619L0 2.39933381zM7.5 1C7.77480558 1 8 1.30133846 8 1.66722182L8 2.33277818C8 2.70284844 7.7778524 3 7.5 3 7.22519442 3 7 2.69866154 7 2.33277818L7 1.66722182C7 1.29715156 7.2221476 1 7.5 1zM6 2.39933381C6 3.27958039 6.6729745 4 7.5 4 8.33153344 4 9 3.28467062 9 2.39933381L9 1.60066619C9 .720419611 8.3270255 0 7.5 0 6.66846656 0 6 .715329379 6 1.60066619L6 2.39933381zM7.5 6C7.77480558 6 8 6.30133846 8 6.66722182L8 7.33277818C8 7.70284844 7.7778524 8 7.5 8 7.22519442 8 7 7.69866154 7 7.33277818L7 6.66722182C7 6.29715156 7.2221476 6 7.5 6zM6 7.39933381C6 8.27958039 6.6729745 9 7.5 9 8.33153344 9 9 8.28467062 9 7.39933381L9 6.60066619C9 5.72041961 8.3270255 5 7.5 5 6.66846656 5 6 5.71532938 6 6.60066619L6 7.39933381zM10.5 1C10.7748056 1 11 1.30133846 11 1.66722182L11 2.33277818C11 2.70284844 10.7778524 3 10.5 3 10.2251944 3 10 2.69866154 10 2.33277818L10 1.66722182C10 1.29715156 10.2221476 1 10.5 1zM9 2.39933381C9 3.27958039 9.6729745 4 10.5 4 11.3315334 4 12 3.28467062 12 2.39933381L12 1.60066619C12 .720419611 11.3270255 0 10.5 0 9.66846656 0 9 .715329379 9 1.60066619L9 2.39933381z"/>
    </g>
  </g>
</svg>
