<svg xmlns="http://www.w3.org/2000/svg" width="32" height="32" viewBox="0 0 32 32">
  <defs>
    <filter id="deepin-movie-a" width="128.6%" height="128.6%" x="-14.3%" y="-14.3%" filterUnits="objectBoundingBox">
      <feOffset dy="1" in="SourceAlpha" result="shadowOffsetOuter1"/>
      <feGaussianBlur in="shadowOffsetOuter1" result="shadowBlurOuter1" stdDeviation=".5"/>
      <feComposite in="shadowBlurOuter1" in2="SourceAlpha" operator="out" result="shadowBlurOuter1"/>
      <feColorMatrix in="shadowBlurOuter1" result="shadowMatrixOuter1" values="0 0 0 0 0   0 0 0 0 0   0 0 0 0 0  0 0 0 0.15 0"/>
      <feMerge>
        <feMergeNode in="shadowMatrixOuter1"/>
        <feMergeNode in="SourceGraphic"/>
      </feMerge>
    </filter>
    <linearGradient id="deepin-movie-b" x1="50%" x2="50%" y1="2.375%" y2="100%">
      <stop offset="0%" stop-color="#3E3E3E"/>
      <stop offset="100%" stop-color="#0F0F0F"/>
    </linearGradient>
    <linearGradient id="deepin-movie-c" x1="40.768%" x2="50%" y1="0%" y2="100%">
      <stop offset="0%" stop-color="#B0FAFF"/>
      <stop offset="100%" stop-color="#0D96C2"/>
    </linearGradient>
  </defs>
  <g fill="none" fill-rule="evenodd" filter="url(#deepin-movie-a)" transform="translate(2 2)">
    <circle cx="14" cy="14" r="13.333" fill="url(#deepin-movie-b)" stroke="url(#deepin-movie-c)" stroke-width="1.333"/>
    <g transform="translate(9 7.5)">
      <path fill="#FF006B" d="M2.19413725,12.9553134 C0.982348709,13.646905 0,13.0799728 0,11.6860506 L0,1.56233394 C0,0.169747825 0.987856127,-0.395377287 2.19413725,0.293071154 L11.0932227,5.37195483 C12.3050112,6.06354646 12.2995038,7.18798124 11.0932227,7.87642968 L2.19413725,12.9553134 Z"/>
      <path fill="#FFB600" d="M2.109,12.9997127 L2.19413725,12.9553134 C1.50998883,13.3457704 0.898973812,13.3350759 0.496583959,13.0008877 L2.109,12.9997127 Z M2.19413725,12.9553134 L2.11,12.9997127 L2.109,12.9997127 L2.19413725,12.9553134 Z M4,1.32471266 L8,3.60671266 L8,9.64071266 L4,11.9237127 L4,1.32471266 Z"/>
      <path fill="#1473FF" d="M2.19413725,0.293071154 L4,1.324 L4,11.924 L2.19413725,12.9553134 C0.982348709,13.646905 0,13.0799728 0,11.6860506 L0,1.56233394 C0,0.169747825 0.987856127,-0.395377287 2.19413725,0.293071154 Z"/>
    </g>
  </g>
</svg>
