<svg xmlns="http://www.w3.org/2000/svg" xmlns:xlink="http://www.w3.org/1999/xlink" width="96" height="96" viewBox="0 0 96 96">
  <defs>
    <filter id="android-device-a" width="148%" height="128.6%" x="-24%" y="-14.3%" filterUnits="objectBoundingBox">
      <feOffset dy="2" in="SourceAlpha" result="shadowOffsetOuter1"/>
      <feGaussianBlur in="shadowOffsetOuter1" result="shadowBlurOuter1" stdDeviation="2"/>
      <feColorMatrix in="shadowBlurOuter1" result="shadowMatrixOuter1" values="0 0 0 0 0   0 0 0 0 0   0 0 0 0 0  0 0 0 0.2 0"/>
      <feMerge>
        <feMergeNode in="shadowMatrixOuter1"/>
        <feMergeNode in="SourceGraphic"/>
      </feMerge>
    </filter>
    <linearGradient id="android-device-b" x1="50%" x2="50%" y1="0%" y2="100%">
      <stop offset="0%" stop-color="#F7EBDE"/>
      <stop offset="100%" stop-color="#DBCBBA"/>
    </linearGradient>
    <path id="android-device-c" d="M2,5.49615172 C2,3.01299569 4.00614108,1 6.49442821,1 L43.5055714,1 C45.9877756,1 47.9999996,3.00661467 47.9999996,5.49615172 L48,78.5038483 C48,80.9870043 45.9938589,83 43.5055718,83 L6.49442825,83 C4.01222407,83 2,80.9933853 2,78.5038483 L2,5.49615172 Z"/>
    <filter id="android-device-d" width="102.2%" height="101.2%" x="-1.1%" y="-.6%" filterUnits="objectBoundingBox">
      <feOffset dy="1" in="SourceAlpha" result="shadowOffsetInner1"/>
      <feComposite in="shadowOffsetInner1" in2="SourceAlpha" k2="-1" k3="1" operator="arithmetic" result="shadowInnerInner1"/>
      <feColorMatrix in="shadowInnerInner1" values="0 0 0 0 1   0 0 0 0 1   0 0 0 0 1  0 0 0 1 0"/>
    </filter>
    <linearGradient id="android-device-e" x1="50%" x2="50%" y1=".612%" y2="100%">
      <stop offset="0%" stop-opacity=".191"/>
      <stop offset="100%" stop-opacity=".459"/>
    </linearGradient>
    <radialGradient id="android-device-f" cx="50%" cy="8.854%" r="151.91%" fx="50%" fy="8.854%" gradientTransform="matrix(0 .6 -1.64483 0 .646 -.211)">
      <stop offset="0%" stop-color="#5D5D5D"/>
      <stop offset="100%" stop-color="#343434"/>
    </radialGradient>
    <linearGradient id="android-device-g" x1="50%" x2="50%" y1="0%" y2="100%">
      <stop offset="0%" stop-opacity=".449"/>
      <stop offset="100%" stop-opacity=".526"/>
    </linearGradient>
    <circle id="android-device-h" cx="32.5" cy="4.5" r="1.5"/>
    <filter id="android-device-i" width="200%" height="200%" x="-50%" y="-50%" filterUnits="objectBoundingBox">
      <feGaussianBlur in="SourceAlpha" result="shadowBlurInner1" stdDeviation="1"/>
      <feOffset dy="1" in="shadowBlurInner1" result="shadowOffsetInner1"/>
      <feComposite in="shadowOffsetInner1" in2="SourceAlpha" k2="-1" k3="1" operator="arithmetic" result="shadowInnerInner1"/>
      <feColorMatrix in="shadowInnerInner1" values="0 0 0 0 1   0 0 0 0 1   0 0 0 0 1  0 0 0 0.0361396416 0"/>
    </filter>
    <linearGradient id="android-device-j" x1="100%" x2="100%" y1="0%" y2="100%">
      <stop offset="0%" stop-color="#CFCFCF"/>
      <stop offset="100%" stop-color="#BABABA"/>
    </linearGradient>
  </defs>
  <g fill="none" fill-rule="evenodd" filter="url(#android-device-a)" transform="translate(23 6)">
    <use fill="url(#android-device-b)" xlink:href="#android-device-c"/>
    <use fill="#000" filter="url(#android-device-d)" xlink:href="#android-device-c"/>
    <path fill="url(#android-device-e)" fill-rule="nonzero" d="M43.5055714,0 L6.49442821,0 C3.4556618,0 1,2.45890228 1,5.49615172 L1,78.5038483 C1,81.5436 3.45786787,84 6.49442825,84 L43.5055718,84 C46.5443382,84 49,81.5410977 49,78.5038483 L49,5.49615172 C49,2.45639997 46.5421318,0 43.5055714,0 Z M43.5055714,1 C45.9877756,1 48,3.00661467 48,5.49615172 L48,78.5038483 C48,80.9870043 45.9938589,83 43.5055718,83 L6.49442825,83 C4.01222407,83 2,80.9933853 2,78.5038483 L2,5.49615172 C2,3.01299569 4.00614108,1 6.49442821,1 L43.5055714,1 Z"/>
    <polygon fill="url(#android-device-f)" points="4 7 46 7 46 77 4 77"/>
    <path fill="url(#android-device-g)" fill-rule="nonzero" d="M46,7 L46,77 L4,77 L4,7 L46,7 Z M45,8 L5,8 L5,76 L45,76 L45,8 Z"/>
    <use fill="#232323" fill-opacity=".963" xlink:href="#android-device-h"/>
    <use fill="#000" filter="url(#android-device-i)" xlink:href="#android-device-h"/>
    <circle cx="32.5" cy="4.5" r="1.125"/>
    <rect width="7" height="1" x="22" y="4" fill="#8A837B" fill-rule="nonzero"/>
    <rect width="3" height="1" x="17" y="4" fill="#8A837B" fill-rule="nonzero"/>
    <path fill="url(#android-device-j)" d="M.75 16L1 16 1 16 1 24 .75 24C.335786438 24 5.07265313e-17 23.6642136 0 23.25L0 16.75C-5.07265313e-17 16.3357864.335786438 16 .75 16zM.75 25L1 25 1 25 1 33 .75 33C.335786438 33 5.07265313e-17 32.6642136 0 32.25L0 25.75C-5.07265313e-17 25.3357864.335786438 25 .75 25zM49 29L49.25 29C49.6642136 29 50 29.3357864 50 29.75L50 36.25C50 36.6642136 49.6642136 37 49.25 37L49 37 49 37 49 29z"/>
  </g>
</svg>
