<svg xmlns="http://www.w3.org/2000/svg" xmlns:xlink="http://www.w3.org/1999/xlink" width="96" height="96" viewBox="0 0 96 96">
  <defs>
    <filter id="drive-removable-media-usb-a" width="131.2%" height="130%" x="-15.6%" y="-15%" filterUnits="objectBoundingBox">
      <feOffset dy="2" in="SourceAlpha" result="shadowOffsetOuter1"/>
      <feGaussianBlur in="shadowOffsetOuter1" result="shadowBlurOuter1" stdDeviation="2"/>
      <feColorMatrix in="shadowBlurOuter1" result="shadowMatrixOuter1" values="0 0 0 0 0   0 0 0 0 0   0 0 0 0 0  0 0 0 0.2 0"/>
      <feMerge>
        <feMergeNode in="shadowMatrixOuter1"/>
        <feMergeNode in="SourceGraphic"/>
      </feMerge>
    </filter>
    <linearGradient id="drive-removable-media-usb-b" x1="2.924%" x2="95.934%" y1="40.22%" y2="40.22%">
      <stop offset="0%" stop-color="#D95D5D"/>
      <stop offset="32.671%" stop-color="#D86D6D"/>
      <stop offset="84.578%" stop-color="#DA5656"/>
      <stop offset="93.38%" stop-color="#BB3737"/>
      <stop offset="100%" stop-color="#7F0000"/>
    </linearGradient>
    <linearGradient id="drive-removable-media-usb-d" x1="125.69%" x2="3.54%" y1="32.745%" y2="32.745%">
      <stop offset="0%" stop-color="#FFF" stop-opacity="0"/>
      <stop offset="90.113%" stop-color="#FFBABA" stop-opacity=".452"/>
      <stop offset="94.27%" stop-color="#E27A7A" stop-opacity=".467"/>
      <stop offset="100%" stop-color="#A12727" stop-opacity=".5"/>
    </linearGradient>
    <linearGradient id="drive-removable-media-usb-e" x1="60.468%" x2="54.936%" y1="63.963%" y2="34.947%">
      <stop offset="0%" stop-color="#FFF" stop-opacity=".207"/>
      <stop offset="100%" stop-color="#FFF" stop-opacity="0"/>
    </linearGradient>
    <path id="drive-removable-media-usb-c" d="M11.4021074,1.25 L66.0978926,1.25 C68.0279948,1.25 69.6428644,2.71505599 69.8301892,4.63604636 L75.3959316,61.7120009 C75.6318377,64.1311875 75.75,66.5604122 75.75,68.9910737 L75.75,73.5625 C75.75,76.1513348 73.6513348,78.25 71.0625,78.25 L6.4375,78.25 C3.84866524,78.25 1.75,76.1513348 1.75,73.5625 L1.75,68.9910737 C1.75,66.5604122 1.86816227,64.1311875 2.10406843,61.7120009 L7.66981083,4.63604636 C7.85713556,2.71505599 9.4720052,1.25 11.4021074,1.25 Z"/>
    <linearGradient id="drive-removable-media-usb-f" x1="50%" x2="50%" y1="2.631%" y2="100%">
      <stop offset="0%" stop-color="#470000" stop-opacity=".508"/>
      <stop offset="100%" stop-color="#340000" stop-opacity=".62"/>
    </linearGradient>
    <linearGradient id="drive-removable-media-usb-g" x1="50%" x2="2.738%" y1="49.672%" y2="49.798%">
      <stop offset="0%" stop-color="#FCFCFD"/>
      <stop offset="81.699%" stop-color="#FFF"/>
      <stop offset="100%" stop-color="#C3AFB2"/>
    </linearGradient>
    <linearGradient id="drive-removable-media-usb-i" x1="100%" x2="73.708%" y1="100%" y2="100%">
      <stop offset="0%" stop-color="#AE8D93"/>
      <stop offset="41.965%" stop-color="#EFD3D5" stop-opacity=".314"/>
      <stop offset="100%" stop-color="#CCC1C1" stop-opacity=".397"/>
    </linearGradient>
    <path id="drive-removable-media-usb-h" d="M11.4144991,1.25 L66.0580517,1.25 C68.0048246,1.25 69.6278507,2.73969919 69.794317,4.67934182 L69.93396,6.30644213 L69.93396,6.30644213 C69.0447744,5.62145882 67.9538967,5.25 66.8314649,5.25 L10.8747253,5.25 C9.67630728,5.25 8.50692749,5.61884402 7.52539062,6.30644213 L7.52539062,6.30644213 L7.52539062,6.30644213 L7.68090974,4.64955665 C7.86176674,2.7227237 9.47919692,1.25 11.4144991,1.25 Z"/>
    <linearGradient id="drive-removable-media-usb-j" x1="50%" x2="50%" y1="-23.484%" y2="100%">
      <stop offset="0%" stop-opacity=".148"/>
      <stop offset="100%" stop-opacity="0"/>
    </linearGradient>
    <linearGradient id="drive-removable-media-usb-m" x1="44.527%" x2="0%" y1="48.211%" y2="47.432%">
      <stop offset="0%" stop-color="#FEFEFE"/>
      <stop offset="77.706%" stop-color="#D8D8D8"/>
      <stop offset="100%" stop-color="#AB9699"/>
    </linearGradient>
    <linearGradient id="drive-removable-media-usb-n" x1="100%" x2="73.708%" y1="100%" y2="100%">
      <stop offset="0%" stop-color="#AB9699"/>
      <stop offset="32.662%" stop-color="#EDD5D6" stop-opacity=".314"/>
      <stop offset="100%" stop-color="#F6EAEA" stop-opacity=".233"/>
    </linearGradient>
    <path id="drive-removable-media-usb-l" d="M75.1892239,59.674359 L75.4938473,63.1610366 C75.6645347,65.1147015 75.75,67.0748769 75.75,69.0359839 L75.75,73.5625 C75.75,76.1513348 73.6513348,78.25 71.0625,78.25 L6.4375,78.25 C3.84866524,78.25 1.75,76.1513348 1.75,73.5625 L1.75,69.0417131 C1.75,67.0767921 1.83579808,65.1128081 2.0071491,63.1553727 L2.31068628,59.6879033 C2.4802138,57.7512987 4.1015769,56.2653437 6.04558739,56.2649223 L71.4526418,56.2507451 C73.3975199,56.2503235 75.019949,57.7368614 75.1892239,59.674359 Z"/>
    <filter id="drive-removable-media-usb-k" width="102.7%" height="118.2%" x="-1.4%" y="-13.6%" filterUnits="objectBoundingBox">
      <feOffset dy="-2" in="SourceAlpha" result="shadowOffsetOuter1"/>
      <feColorMatrix in="shadowOffsetOuter1" values="0 0 0 0 1   0 0 0 0 1   0 0 0 0 1  0 0 0 0.160210883 0"/>
    </filter>
    <linearGradient id="drive-removable-media-usb-o" x1="50%" x2="50%" y1="-20.244%" y2="100%">
      <stop offset="0%" stop-opacity=".18"/>
      <stop offset="100%" stop-opacity=".467"/>
    </linearGradient>
    <linearGradient id="drive-removable-media-usb-p" x1="100%" x2="0%" y1="50%" y2="51.543%">
      <stop offset="0%" stop-color="#E3E3E3"/>
      <stop offset="68.204%" stop-color="#C1BFC1"/>
      <stop offset="100%" stop-color="#CBCBCB"/>
    </linearGradient>
    <linearGradient id="drive-removable-media-usb-r" x1="50%" x2="50%" y1="0%" y2="100%">
      <stop offset="0%" stop-color="#FFF" stop-opacity=".5"/>
      <stop offset="100%" stop-opacity=".326"/>
    </linearGradient>
    <linearGradient id="drive-removable-media-usb-t" x1="50%" x2="50%" y1="-13.675%" y2="100%">
      <stop offset="0%" stop-opacity="0"/>
      <stop offset="100%" stop-opacity=".111"/>
    </linearGradient>
    <path id="drive-removable-media-usb-q" d="M4.5625,65.25 L72.9375,65.25 C74.4908009,65.25 75.75,66.5091991 75.75,68.0625 L75.75,73.5625 C75.75,76.1513348 73.6513348,78.25 71.0625,78.25 L6.4375,78.25 C3.84866524,78.25 1.75,76.1513348 1.75,73.5625 L1.75,68.0625 C1.75,66.5091991 3.00919914,65.25 4.5625,65.25 Z"/>
    <filter id="drive-removable-media-usb-s" width="104.1%" height="123.1%" x="-2%" y="-11.5%" filterUnits="objectBoundingBox">
      <feOffset dy="1" in="SourceAlpha" result="shadowOffsetInner1"/>
      <feComposite in="shadowOffsetInner1" in2="SourceAlpha" k2="-1" k3="1" operator="arithmetic" result="shadowInnerInner1"/>
      <feColorMatrix in="shadowInnerInner1" values="0 0 0 0 1   0 0 0 0 1   0 0 0 0 1  0 0 0 1 0"/>
    </filter>
    <radialGradient id="drive-removable-media-usb-u" cx="50%" cy="22.082%" r="79.752%" fx="50%" fy="22.082%" gradientTransform="matrix(0 1 -.8 0 .677 -.28)">
      <stop offset="0%" stop-color="#760000" stop-opacity=".377"/>
      <stop offset="0%" stop-color="#760000" stop-opacity=".377"/>
      <stop offset="100%" stop-color="#530000" stop-opacity=".609"/>
    </radialGradient>
    <radialGradient id="drive-removable-media-usb-v" cx="50%" cy="41.549%" r="58.354%" fx="50%" fy="41.549%" gradientTransform="matrix(0 1 -.75 0 .812 -.085)">
      <stop offset="0%" stop-color="#F2CC8E"/>
      <stop offset="99.921%" stop-color="#D8723A"/>
    </radialGradient>
    <path id="drive-removable-media-usb-w" d="M47.7940336,20.375 L52.3444053,26.6102941 L48.707,26.61 L48.707,43.048 L54.7007532,39.476341 C55.4106222,38.900962 55.5540889,38.5834238 55.5700629,37.8797763 L55.5716944,37.7228501 L55.571,35.963 L53.2544796,35.9632353 L53.2544796,30.5073529 L59.625,30.5073529 L59.625,35.9632353 L57.126,35.963 L57.1264323,37.8310399 C57.1312309,39.6621008 55.8068245,40.3377766 55.8068245,40.3377766 L55.8068245,40.3377766 L48.707,44.714 L48.7073166,52.4093965 C50.710894,52.7590019 52.2356872,54.2361793 52.3388364,56.0334386 L52.3444053,56.2279412 C52.3444053,58.3802273 50.3071345,60.125 47.7940336,60.125 C45.2809327,60.125 43.243662,58.3802273 43.243662,56.2279412 C43.243662,54.3426336 44.806857,52.7700105 46.883772,52.4088702 L46.883,48.731 L40.5449606,44.900119 C40.5449606,44.900119 39.2205542,44.2366912 39.2205542,42.4444153 L39.2277521,42.4444153 L39.2268394,38.841388 C37.5986954,38.5544656 36.375,37.3273597 36.375,35.8570868 C36.375,34.1738966 37.9787766,32.8094013 39.9571353,32.8094013 C41.935494,32.8094013 43.5392706,34.1738966 43.5392706,35.8570868 C43.5392706,37.2992072 42.3619888,38.5073836 40.7805069,38.823877 L40.7800907,42.3362255 C40.7800907,43.1364216 40.8904579,43.4507843 41.6510319,44.055014 L46.883,47.112 L46.883,26.61 L43.243662,26.6102941 L47.7940336,20.375 Z"/>
    <filter id="drive-removable-media-usb-x" width="112.9%" height="107.5%" x="-6.5%" y="-3.8%" filterUnits="objectBoundingBox">
      <feGaussianBlur in="SourceAlpha" result="shadowBlurInner1" stdDeviation="1"/>
      <feOffset dy="1" in="shadowBlurInner1" result="shadowOffsetInner1"/>
      <feComposite in="shadowOffsetInner1" in2="SourceAlpha" k2="-1" k3="1" operator="arithmetic" result="shadowInnerInner1"/>
      <feColorMatrix in="shadowInnerInner1" values="0 0 0 0 1   0 0 0 0 0.537451738   0 0 0 0 0.509984756  0 0 0 0.6504316 0"/>
    </filter>
  </defs>
  <g fill="none" fill-rule="evenodd">
    <g filter="url(#drive-removable-media-usb-a)" transform="translate(9.25 8.75)">
      <use fill="url(#drive-removable-media-usb-b)" xlink:href="#drive-removable-media-usb-c"/>
      <use fill="url(#drive-removable-media-usb-d)" xlink:href="#drive-removable-media-usb-c"/>
      <use fill="url(#drive-removable-media-usb-e)" xlink:href="#drive-removable-media-usb-c"/>
      <path fill="url(#drive-removable-media-usb-f)" fill-rule="nonzero" d="M66.0978926,0.25 L11.4021074,0.25 C8.95731127,0.25 6.91180973,2.10573759 6.67453175,4.53899206 L1.10878934,61.6149466 C0.869737766,64.0663891 0.75,66.5280033 0.75,68.9910737 L0.75,73.5625 C0.75,76.7036195 3.29638049,79.25 6.4375,79.25 L71.0625,79.25 C74.2036195,79.25 76.75,76.7036195 76.75,73.5625 L76.75,68.9910737 C76.75,66.5280033 76.6302622,64.0663891 76.3912107,61.6149466 L70.8254683,4.53899206 C70.5881903,2.10573759 68.5426887,0.25 66.0978926,0.25 Z M66.0978926,1.25 C68.0279948,1.25 69.6428644,2.71505599 69.8301892,4.63604636 L75.3959316,61.7120009 C75.6318377,64.1311875 75.75,66.5604122 75.75,68.9910737 L75.75,73.5625 C75.75,76.1513348 73.6513348,78.25 71.0625,78.25 L6.4375,78.25 C3.84866524,78.25 1.75,76.1513348 1.75,73.5625 L1.75,68.9910737 C1.75,66.5604122 1.86816227,64.1311875 2.10406843,61.7120009 L7.66981083,4.63604636 C7.85713556,2.71505599 9.4720052,1.25 11.4021074,1.25 L66.0978926,1.25 Z"/>
      <use fill="url(#drive-removable-media-usb-g)" xlink:href="#drive-removable-media-usb-h"/>
      <use fill="url(#drive-removable-media-usb-i)" xlink:href="#drive-removable-media-usb-h"/>
      <path fill="url(#drive-removable-media-usb-j)" fill-rule="nonzero" d="M66.0580517,0.25 L11.4144991,0.25 C8.96311635,0.25 6.91437145,2.11545002 6.68528591,4.55610509 L6.33375218,8.30131121 L8.30939712,6.98580652 C9.06273237,6.50983445 9.95913804,6.25 10.8747253,6.25 L66.8314649,6.25 C67.733112,6.25 68.6094118,6.5483921 69.3236928,7.09863778 L71.124696,8.48603896 L70.7906544,4.59383297 C70.5797971,2.1369523 68.523964,0.25 66.0580517,0.25 Z M66.0580517,1.25 C68.0048246,1.25 69.6278507,2.73969919 69.794317,4.67934182 L69.93396,6.30644213 C69.0447744,5.62145882 67.9538967,5.25 66.8314649,5.25 L10.8747253,5.25 C9.76849328,5.25 8.68700389,5.5642813 7.75516134,6.1534468 L7.52539063,6.30644213 L7.68090974,4.64955665 C7.86176674,2.7227237 9.47919692,1.25 11.4144991,1.25 L66.0580517,1.25 Z"/>
      <use fill="#000" filter="url(#drive-removable-media-usb-k)" xlink:href="#drive-removable-media-usb-l"/>
      <use fill="url(#drive-removable-media-usb-m)" xlink:href="#drive-removable-media-usb-l"/>
      <use fill="url(#drive-removable-media-usb-n)" xlink:href="#drive-removable-media-usb-l"/>
      <path fill="url(#drive-removable-media-usb-o)" fill-rule="nonzero" d="M71.452425,55.250745 L6.04537063,55.2649224 C3.58295735,55.2654561 1.52923076,57.1476658 1.31449589,59.6006983 L1.01095872,63.0681677 C0.837069165,65.0546021 0.75,67.0476821 0.75,69.0417131 L0.75,73.5625 C0.75,76.7036195 3.29638049,79.25 6.4375,79.25 L71.0625,79.25 C74.2036195,79.25 76.75,76.7036195 76.75,73.5625 L76.75,69.0359839 C76.75,67.0458235 76.6632685,65.0566084 76.4900524,63.0740004 L76.185429,59.5873228 C75.9710141,57.1331591 73.9159373,55.2502111 71.452425,55.250745 Z M71.4526418,56.250745 C73.3975199,56.2503235 75.019949,57.7368614 75.1892239,59.674359 L75.4938473,63.1610366 C75.6645347,65.1147015 75.75,67.0748769 75.75,69.0359839 L75.75,73.5625 C75.75,76.1513348 73.6513348,78.25 71.0625,78.25 L6.4375,78.25 C3.84866524,78.25 1.75,76.1513348 1.75,73.5625 L1.75,69.0417131 C1.75,67.0767921 1.83579808,65.1128081 2.0071491,63.1553727 L2.31068628,59.6879033 C2.4802138,57.7512987 4.1015769,56.2653437 6.04558739,56.2649223 L71.4526418,56.250745 Z"/>
      <use fill="url(#drive-removable-media-usb-p)" fill-opacity=".6" xlink:href="#drive-removable-media-usb-q"/>
      <use fill="url(#drive-removable-media-usb-r)" xlink:href="#drive-removable-media-usb-q"/>
      <use fill="#000" filter="url(#drive-removable-media-usb-s)" xlink:href="#drive-removable-media-usb-q"/>
      <path stroke="url(#drive-removable-media-usb-t)" d="M72.9375,64.75 C73.8522216,64.75 74.6803466,65.1207642 75.2797912,65.7202088 C75.8792358,66.3196534 76.25,67.1477784 76.25,68.0625 L76.25,68.0625 L76.25,73.5625 C76.25,74.9949886 75.6693693,76.2918636 74.7306164,77.2306164 C73.7918636,78.1693693 72.4949886,78.75 71.0625,78.75 L71.0625,78.75 L6.4375,78.75 C5.00501143,78.75 3.70813643,78.1693693 2.76938357,77.2306164 C1.83063072,76.2918636 1.25,74.9949886 1.25,73.5625 L1.25,73.5625 L1.25,68.0625 C1.25,67.1477784 1.62076419,66.3196534 2.22020879,65.7202088 C2.81965338,65.1207642 3.64777838,64.75 4.5625,64.75 L4.5625,64.75 Z"/>
      <path fill="url(#drive-removable-media-usb-u)" d="M62.75,76 C64.8210678,76 66.5,74.6568542 66.5,73 C66.5,71.3431458 64.8210678,70 62.75,70 C60.6789322,70 59,71.3431458 59,73 C59,74.6568542 60.6789322,76 62.75,76 Z"/>
      <ellipse cx="62.75" cy="72.25" fill="url(#drive-removable-media-usb-v)" rx="3" ry="2.25"/>
    </g>
    <use fill="#FFF" xlink:href="#drive-removable-media-usb-w"/>
    <use fill="#000" filter="url(#drive-removable-media-usb-x)" xlink:href="#drive-removable-media-usb-w"/>
  </g>
</svg>
