<svg xmlns="http://www.w3.org/2000/svg" xmlns:xlink="http://www.w3.org/1999/xlink" width="96" height="96" viewBox="0 0 96 96">
  <defs>
    <filter id="drive-removable-media-encrypted-a" width="131.2%" height="130%" x="-15.6%" y="-15%" filterUnits="objectBoundingBox">
      <feOffset dy="2" in="SourceAlpha" result="shadowOffsetOuter1"/>
      <feGaussianBlur in="shadowOffsetOuter1" result="shadowBlurOuter1" stdDeviation="2"/>
      <feColorMatrix in="shadowBlurOuter1" result="shadowMatrixOuter1" values="0 0 0 0 0   0 0 0 0 0   0 0 0 0 0  0 0 0 0.2 0"/>
      <feMerge>
        <feMergeNode in="shadowMatrixOuter1"/>
        <feMergeNode in="SourceGraphic"/>
      </feMerge>
    </filter>
    <linearGradient id="drive-removable-media-encrypted-b" x1="2.924%" x2="95.934%" y1="40.22%" y2="40.22%">
      <stop offset="0%" stop-color="#D95D5D"/>
      <stop offset="32.671%" stop-color="#D86D6D"/>
      <stop offset="84.578%" stop-color="#DA5656"/>
      <stop offset="93.38%" stop-color="#BB3737"/>
      <stop offset="100%" stop-color="#7F0000"/>
    </linearGradient>
    <linearGradient id="drive-removable-media-encrypted-d" x1="125.69%" x2="3.54%" y1="32.745%" y2="32.745%">
      <stop offset="0%" stop-color="#FFF" stop-opacity="0"/>
      <stop offset="90.113%" stop-color="#FFBABA" stop-opacity=".452"/>
      <stop offset="94.27%" stop-color="#E27A7A" stop-opacity=".467"/>
      <stop offset="100%" stop-color="#A12727" stop-opacity=".5"/>
    </linearGradient>
    <linearGradient id="drive-removable-media-encrypted-e" x1="60.468%" x2="54.936%" y1="63.963%" y2="34.947%">
      <stop offset="0%" stop-color="#FFF" stop-opacity=".207"/>
      <stop offset="100%" stop-color="#FFF" stop-opacity="0"/>
    </linearGradient>
    <path id="drive-removable-media-encrypted-c" d="M11.4021074,1.25 L66.0978926,1.25 C68.0279948,1.25 69.6428644,2.71505599 69.8301892,4.63604636 L75.3959316,61.7120009 C75.6318377,64.1311875 75.75,66.5604122 75.75,68.9910737 L75.75,73.5625 C75.75,76.1513348 73.6513348,78.25 71.0625,78.25 L6.4375,78.25 C3.84866524,78.25 1.75,76.1513348 1.75,73.5625 L1.75,68.9910737 C1.75,66.5604122 1.86816227,64.1311875 2.10406843,61.7120009 L7.66981083,4.63604636 C7.85713556,2.71505599 9.4720052,1.25 11.4021074,1.25 Z"/>
    <linearGradient id="drive-removable-media-encrypted-f" x1="50%" x2="50%" y1="2.631%" y2="100%">
      <stop offset="0%" stop-color="#470000" stop-opacity=".508"/>
      <stop offset="100%" stop-color="#340000" stop-opacity=".62"/>
    </linearGradient>
    <linearGradient id="drive-removable-media-encrypted-g" x1="50%" x2="2.738%" y1="49.672%" y2="49.798%">
      <stop offset="0%" stop-color="#FCFCFD"/>
      <stop offset="81.699%" stop-color="#FFF"/>
      <stop offset="100%" stop-color="#C3AFB2"/>
    </linearGradient>
    <linearGradient id="drive-removable-media-encrypted-i" x1="100%" x2="73.708%" y1="100%" y2="100%">
      <stop offset="0%" stop-color="#AE8D93"/>
      <stop offset="41.965%" stop-color="#EFD3D5" stop-opacity=".314"/>
      <stop offset="100%" stop-color="#CCC1C1" stop-opacity=".397"/>
    </linearGradient>
    <path id="drive-removable-media-encrypted-h" d="M11.4144991,1.25 L66.0580517,1.25 C68.0048246,1.25 69.6278507,2.73969919 69.794317,4.67934182 L69.93396,6.30644213 L69.93396,6.30644213 C69.0447744,5.62145882 67.9538967,5.25 66.8314649,5.25 L10.8747253,5.25 C9.67630728,5.25 8.50692749,5.61884402 7.52539062,6.30644213 L7.52539062,6.30644213 L7.52539062,6.30644213 L7.68090974,4.64955665 C7.86176674,2.7227237 9.47919692,1.25 11.4144991,1.25 Z"/>
    <linearGradient id="drive-removable-media-encrypted-j" x1="50%" x2="50%" y1="-23.484%" y2="100%">
      <stop offset="0%" stop-opacity=".148"/>
      <stop offset="100%" stop-opacity="0"/>
    </linearGradient>
    <linearGradient id="drive-removable-media-encrypted-m" x1="44.527%" x2="0%" y1="48.211%" y2="47.432%">
      <stop offset="0%" stop-color="#FEFEFE"/>
      <stop offset="77.706%" stop-color="#D8D8D8"/>
      <stop offset="100%" stop-color="#AB9699"/>
    </linearGradient>
    <linearGradient id="drive-removable-media-encrypted-n" x1="100%" x2="73.708%" y1="100%" y2="100%">
      <stop offset="0%" stop-color="#AB9699"/>
      <stop offset="32.662%" stop-color="#EDD5D6" stop-opacity=".314"/>
      <stop offset="100%" stop-color="#F6EAEA" stop-opacity=".233"/>
    </linearGradient>
    <path id="drive-removable-media-encrypted-l" d="M75.1892239,59.674359 L75.4938473,63.1610366 C75.6645347,65.1147015 75.75,67.0748769 75.75,69.0359839 L75.75,73.5625 C75.75,76.1513348 73.6513348,78.25 71.0625,78.25 L6.4375,78.25 C3.84866524,78.25 1.75,76.1513348 1.75,73.5625 L1.75,69.0417131 C1.75,67.0767921 1.83579808,65.1128081 2.0071491,63.1553727 L2.31068628,59.6879033 C2.4802138,57.7512987 4.1015769,56.2653437 6.04558739,56.2649223 L71.4526418,56.2507451 C73.3975199,56.2503235 75.019949,57.7368614 75.1892239,59.674359 Z"/>
    <filter id="drive-removable-media-encrypted-k" width="102.7%" height="118.2%" x="-1.4%" y="-13.6%" filterUnits="objectBoundingBox">
      <feOffset dy="-2" in="SourceAlpha" result="shadowOffsetOuter1"/>
      <feColorMatrix in="shadowOffsetOuter1" values="0 0 0 0 1   0 0 0 0 1   0 0 0 0 1  0 0 0 0.160210883 0"/>
    </filter>
    <linearGradient id="drive-removable-media-encrypted-o" x1="50%" x2="50%" y1="-20.244%" y2="100%">
      <stop offset="0%" stop-opacity=".18"/>
      <stop offset="100%" stop-opacity=".467"/>
    </linearGradient>
    <linearGradient id="drive-removable-media-encrypted-p" x1="100%" x2="0%" y1="50%" y2="51.543%">
      <stop offset="0%" stop-color="#E3E3E3"/>
      <stop offset="68.204%" stop-color="#C1BFC1"/>
      <stop offset="100%" stop-color="#CBCBCB"/>
    </linearGradient>
    <linearGradient id="drive-removable-media-encrypted-r" x1="50%" x2="50%" y1="0%" y2="100%">
      <stop offset="0%" stop-color="#FFF" stop-opacity=".5"/>
      <stop offset="100%" stop-opacity=".326"/>
    </linearGradient>
    <linearGradient id="drive-removable-media-encrypted-t" x1="50%" x2="50%" y1="-13.675%" y2="100%">
      <stop offset="0%" stop-opacity="0"/>
      <stop offset="100%" stop-opacity=".111"/>
    </linearGradient>
    <path id="drive-removable-media-encrypted-q" d="M4.5625,65.25 L72.9375,65.25 C74.4908009,65.25 75.75,66.5091991 75.75,68.0625 L75.75,73.5625 C75.75,76.1513348 73.6513348,78.25 71.0625,78.25 L6.4375,78.25 C3.84866524,78.25 1.75,76.1513348 1.75,73.5625 L1.75,68.0625 C1.75,66.5091991 3.00919914,65.25 4.5625,65.25 Z"/>
    <filter id="drive-removable-media-encrypted-s" width="104.1%" height="123.1%" x="-2%" y="-11.5%" filterUnits="objectBoundingBox">
      <feOffset dy="1" in="SourceAlpha" result="shadowOffsetInner1"/>
      <feComposite in="shadowOffsetInner1" in2="SourceAlpha" k2="-1" k3="1" operator="arithmetic" result="shadowInnerInner1"/>
      <feColorMatrix in="shadowInnerInner1" values="0 0 0 0 1   0 0 0 0 1   0 0 0 0 1  0 0 0 1 0"/>
    </filter>
    <radialGradient id="drive-removable-media-encrypted-u" cx="50%" cy="22.082%" r="79.752%" fx="50%" fy="22.082%" gradientTransform="matrix(0 1 -.8 0 .677 -.28)">
      <stop offset="0%" stop-color="#760000" stop-opacity=".377"/>
      <stop offset="0%" stop-color="#760000" stop-opacity=".377"/>
      <stop offset="100%" stop-color="#530000" stop-opacity=".609"/>
    </radialGradient>
    <radialGradient id="drive-removable-media-encrypted-v" cx="50%" cy="41.549%" r="58.354%" fx="50%" fy="41.549%" gradientTransform="matrix(0 1 -.75 0 .812 -.085)">
      <stop offset="0%" stop-color="#F2CC8E"/>
      <stop offset="99.921%" stop-color="#D8723A"/>
    </radialGradient>
    <path id="drive-removable-media-encrypted-w" d="M48.375,21.75 C58.0698681,21.75 66.2889505,29.6413092 66.7328344,39.3757324 C67.1767183,49.1101556 58.9576359,57.0014648 48.375,57.0014648 C37.7923641,57.0014648 29.5732817,49.1101556 30.0171656,39.3757324 C30.4610495,29.6413092 38.6801319,21.75 48.375,21.75 Z M48.375,23.4695837 C39.5868919,23.4695837 32.1696712,30.591009 31.8081739,39.3757324 C31.4466765,48.1604558 38.8638972,55.2818812 48.375,55.2818812 C57.8861028,55.2818812 65.3033235,48.1604558 64.9418261,39.3757324 C64.5803288,30.591009 57.1631081,23.4695837 48.375,23.4695837 Z M48.6053307,50.9829221 L48.6060479,52.2726098 L48.1439521,52.2726098 L48.1446693,50.9829221 L48.6053307,50.9829221 Z M50.7604114,50.7692575 L51.0083209,52.0393519 L50.5538926,52.1140026 L50.3073309,50.8439081 L50.7604114,50.7692575 Z M45.9895886,50.7692575 L46.4426691,50.8439081 L46.1961074,52.1140026 L45.7416791,52.0393519 L45.9895886,50.7692575 Z M52.8370889,50.2094063 L53.3233357,51.4213164 L52.8915986,51.5683495 L52.4064505,50.3564394 L52.8370889,50.2094063 Z M43.9129111,50.2094063 L44.3435495,50.3564394 L43.8584014,51.5683495 L43.4266643,51.4213164 L43.9129111,50.2094063 Z M54.7676376,49.3203795 L55.4750269,50.4372819 L55.0800904,50.6522298 L54.3734183,49.5353275 L54.7676376,49.3203795 Z M41.9823624,49.3203795 L42.3765817,49.5353275 L41.6699096,50.6522298 L41.2749731,50.4372819 L41.9823624,49.3203795 Z M56.4900446,48.1291897 L57.3938559,49.1171478 L57.0483672,49.3934796 L56.1448049,48.4055214 L56.4900446,48.1291897 Z M40.2599554,48.1291897 L40.6051951,48.4055214 L39.7016328,49.3934796 L39.3561441,49.1171478 L40.2599554,48.1291897 Z M57.9502982,46.6720304 L59.0194259,47.5010257 L58.7341072,47.8303451 L57.6647304,47.0013498 L57.9502982,46.6720304 Z M38.7997018,46.6720304 L39.0852696,47.0013498 L38.0158928,47.8303451 L37.7305741,47.5010257 L38.7997018,46.6720304 Z M48.375,31.2077101 C52.9781206,31.2077101 56.7869636,34.8646582 56.8822891,39.3757324 C56.9776145,43.8868066 53.1687715,47.5437548 48.375,47.5437548 C43.5812285,47.5437548 39.7723855,43.8868066 39.8677109,39.3757324 C39.9630364,34.8646582 43.7718794,31.2077101 48.375,31.2077101 Z M59.1042316,44.9931769 L60.3025696,45.6380207 L60.0858654,46.0103215 L58.8868102,45.3654776 L59.1042316,44.9931769 Z M37.6457684,44.9931769 L37.8631898,45.3654776 L36.6641346,46.0103215 L36.4474304,45.6380207 L37.6457684,44.9931769 Z M36.8311595,43.1436401 L36.9744107,43.5476101 L35.6853366,43.9887093 L35.5431842,43.5847393 L36.8311595,43.1436401 Z M59.9188405,43.1436401 L61.2068158,43.5847393 L61.0646634,43.9887093 L59.7755893,43.5476101 L59.9188405,43.1436401 Z M48.375,34.2169815 C46.9626035,34.2169815 45.8011435,35.2907926 45.711241,36.644799 L45.7057,36.7963569 L45.6999626,37.5718475 L45.254123,37.5718475 C44.796838,37.5718475 44.4166761,37.9037617 44.3608517,38.3313694 L44.3538377,38.4316393 L44.3151098,42.6878183 C44.3106962,43.1287503 44.6560339,43.4921597 45.1052221,43.5418256 L45.2106139,43.5476101 L51.5393861,43.5476101 C52.0030462,43.5476101 52.381913,43.2156959 52.4298226,42.7880882 L52.4348902,42.6878183 L52.3961623,38.4316393 C52.3917488,37.9907073 52.0438396,37.6272979 51.5999121,37.577632 L51.495877,37.5718475 L51.0500374,37.5718475 L51.0443,36.7963569 C51.0347938,35.3718072 49.8397075,34.2169815 48.375,34.2169815 Z M60.3730374,41.1796173 L61.7091941,41.4035693 L61.6449214,41.8269341 L60.3074168,41.6029822 L60.3730374,41.1796173 Z M36.3769626,41.1796173 L36.4425832,41.6029822 L35.1050786,41.8269341 L35.0408059,41.4035693 L36.3769626,41.1796173 Z M61.8003899,39.1607845 L61.8147336,39.5906804 L60.4707602,39.5906804 L60.4578509,39.1607845 L61.8003899,39.1607845 Z M36.2921491,39.1607845 L36.2792398,39.5906804 L34.9352664,39.5906804 L34.9496101,39.1607845 L36.2921491,39.1607845 Z M48.375,35.0767733 C49.3091031,35.0767733 50.0773754,35.7782583 50.1490829,36.6680224 L50.1545333,36.7963569 L50.1583583,37.5718475 L46.5916417,37.5718475 L46.5954667,36.7963569 C46.5996916,35.8466571 47.3964158,35.0767733 48.375,35.0767733 Z M61.4843091,36.9245308 L61.5755391,37.3478956 L60.2659976,37.5718475 L60.1761155,37.1484827 L61.4843091,36.9245308 Z M35.2656909,36.9245308 L36.5738845,37.1484827 L36.4840024,37.5718475 L35.1744609,37.3478956 L35.2656909,36.9245308 Z M60.7771546,34.7627556 L60.9412827,35.1667256 L59.7047622,35.6078248 L59.5417329,35.2038547 L60.7771546,34.7627556 Z M35.9728454,34.7627556 L37.2082671,35.2038547 L37.0452378,35.6078248 L35.8087173,35.1667256 L35.9728454,34.7627556 Z M59.706138,32.7411433 L59.9371858,33.1134441 L58.8089359,33.758288 L58.5786052,33.3859872 L59.706138,32.7411433 Z M37.043862,32.7411433 L38.1713948,33.3859872 L37.9410641,33.758288 L36.8128142,33.1134441 L37.043862,32.7411433 Z M58.3079618,30.9211197 L58.5982621,31.2504391 L57.609402,32.0794344 L57.3193508,31.750115 L58.3079618,30.9211197 Z M38.4420382,30.9211197 L39.4306492,31.750115 L39.140598,32.0794344 L38.1517379,31.2504391 L38.4420382,30.9211197 Z M56.6272033,29.3579853 L56.9677105,29.6343171 L56.144665,30.6222752 L55.8039087,30.3459434 L56.6272033,29.3579853 Z M40.1227967,29.3579853 L40.9460913,30.3459434 L40.605335,30.6222752 L39.7822895,29.6343171 L40.1227967,29.3579853 Z M54.7147066,28.099235 L55.0952995,28.314183 L54.4594326,29.4310853 L54.0781226,29.2161373 L54.7147066,28.099235 Z M42.0352934,28.099235 L42.6718774,29.2161373 L42.2905674,29.4310853 L41.6547005,28.314183 L42.0352934,28.099235 Z M52.6260655,27.1831154 L53.0358269,27.3301484 L52.6032325,28.5420585 L52.1923722,28.3950254 L52.6260655,27.1831154 Z M44.1239345,27.1831154 L44.5576278,28.3950254 L44.1467675,28.5420585 L43.7141731,27.3301484 L44.1239345,27.1831154 Z M50.4202375,26.6374623 L50.8477085,26.7121129 L50.6291101,27.9822074 L50.2002911,27.9075567 L50.4202375,26.6374623 Z M46.3297625,26.6374623 L46.5497089,27.9075567 L46.1208899,27.9822074 L45.9022915,26.7121129 L46.3297625,26.6374623 Z M48.5917042,26.478855 L48.5924214,27.7685428 L48.1575786,27.7685428 L48.1582958,26.478855 L48.5917042,26.478855 Z"/>
    <filter id="drive-removable-media-encrypted-x" width="116.3%" height="117%" x="-8.2%" y="-8.5%" filterUnits="objectBoundingBox">
      <feGaussianBlur in="SourceAlpha" result="shadowBlurInner1" stdDeviation="2.5"/>
      <feOffset dy="1" in="shadowBlurInner1" result="shadowOffsetInner1"/>
      <feComposite in="shadowOffsetInner1" in2="SourceAlpha" k2="-1" k3="1" operator="arithmetic" result="shadowInnerInner1"/>
      <feColorMatrix in="shadowInnerInner1" values="0 0 0 0 1   0 0 0 0 0.537451738   0 0 0 0 0.509984756  0 0 0 0.6504316 0"/>
    </filter>
  </defs>
  <g fill="none" fill-rule="evenodd">
    <g filter="url(#drive-removable-media-encrypted-a)" transform="translate(9.25 8.75)">
      <use fill="url(#drive-removable-media-encrypted-b)" xlink:href="#drive-removable-media-encrypted-c"/>
      <use fill="url(#drive-removable-media-encrypted-d)" xlink:href="#drive-removable-media-encrypted-c"/>
      <use fill="url(#drive-removable-media-encrypted-e)" xlink:href="#drive-removable-media-encrypted-c"/>
      <path fill="url(#drive-removable-media-encrypted-f)" fill-rule="nonzero" d="M66.0978926,0.25 L11.4021074,0.25 C8.95731127,0.25 6.91180973,2.10573759 6.67453175,4.53899206 L1.10878934,61.6149466 C0.869737766,64.0663891 0.75,66.5280033 0.75,68.9910737 L0.75,73.5625 C0.75,76.7036195 3.29638049,79.25 6.4375,79.25 L71.0625,79.25 C74.2036195,79.25 76.75,76.7036195 76.75,73.5625 L76.75,68.9910737 C76.75,66.5280033 76.6302622,64.0663891 76.3912107,61.6149466 L70.8254683,4.53899206 C70.5881903,2.10573759 68.5426887,0.25 66.0978926,0.25 Z M66.0978926,1.25 C68.0279948,1.25 69.6428644,2.71505599 69.8301892,4.63604636 L75.3959316,61.7120009 C75.6318377,64.1311875 75.75,66.5604122 75.75,68.9910737 L75.75,73.5625 C75.75,76.1513348 73.6513348,78.25 71.0625,78.25 L6.4375,78.25 C3.84866524,78.25 1.75,76.1513348 1.75,73.5625 L1.75,68.9910737 C1.75,66.5604122 1.86816227,64.1311875 2.10406843,61.7120009 L7.66981083,4.63604636 C7.85713556,2.71505599 9.4720052,1.25 11.4021074,1.25 L66.0978926,1.25 Z"/>
      <use fill="url(#drive-removable-media-encrypted-g)" xlink:href="#drive-removable-media-encrypted-h"/>
      <use fill="url(#drive-removable-media-encrypted-i)" xlink:href="#drive-removable-media-encrypted-h"/>
      <path fill="url(#drive-removable-media-encrypted-j)" fill-rule="nonzero" d="M66.0580517,0.25 L11.4144991,0.25 C8.96311635,0.25 6.91437145,2.11545002 6.68528591,4.55610509 L6.33375218,8.30131121 L8.30939712,6.98580652 C9.06273237,6.50983445 9.95913804,6.25 10.8747253,6.25 L66.8314649,6.25 C67.733112,6.25 68.6094118,6.5483921 69.3236928,7.09863778 L71.124696,8.48603896 L70.7906544,4.59383297 C70.5797971,2.1369523 68.523964,0.25 66.0580517,0.25 Z M66.0580517,1.25 C68.0048246,1.25 69.6278507,2.73969919 69.794317,4.67934182 L69.93396,6.30644213 C69.0447744,5.62145882 67.9538967,5.25 66.8314649,5.25 L10.8747253,5.25 C9.76849328,5.25 8.68700389,5.5642813 7.75516134,6.1534468 L7.52539063,6.30644213 L7.68090974,4.64955665 C7.86176674,2.7227237 9.47919692,1.25 11.4144991,1.25 L66.0580517,1.25 Z"/>
      <use fill="#000" filter="url(#drive-removable-media-encrypted-k)" xlink:href="#drive-removable-media-encrypted-l"/>
      <use fill="url(#drive-removable-media-encrypted-m)" xlink:href="#drive-removable-media-encrypted-l"/>
      <use fill="url(#drive-removable-media-encrypted-n)" xlink:href="#drive-removable-media-encrypted-l"/>
      <path fill="url(#drive-removable-media-encrypted-o)" fill-rule="nonzero" d="M71.452425,55.250745 L6.04537063,55.2649224 C3.58295735,55.2654561 1.52923076,57.1476658 1.31449589,59.6006983 L1.01095872,63.0681677 C0.837069165,65.0546021 0.75,67.0476821 0.75,69.0417131 L0.75,73.5625 C0.75,76.7036195 3.29638049,79.25 6.4375,79.25 L71.0625,79.25 C74.2036195,79.25 76.75,76.7036195 76.75,73.5625 L76.75,69.0359839 C76.75,67.0458235 76.6632685,65.0566084 76.4900524,63.0740004 L76.185429,59.5873228 C75.9710141,57.1331591 73.9159373,55.2502111 71.452425,55.250745 Z M71.4526418,56.250745 C73.3975199,56.2503235 75.019949,57.7368614 75.1892239,59.674359 L75.4938473,63.1610366 C75.6645347,65.1147015 75.75,67.0748769 75.75,69.0359839 L75.75,73.5625 C75.75,76.1513348 73.6513348,78.25 71.0625,78.25 L6.4375,78.25 C3.84866524,78.25 1.75,76.1513348 1.75,73.5625 L1.75,69.0417131 C1.75,67.0767921 1.83579808,65.1128081 2.0071491,63.1553727 L2.31068628,59.6879033 C2.4802138,57.7512987 4.1015769,56.2653437 6.04558739,56.2649223 L71.4526418,56.250745 Z"/>
      <use fill="url(#drive-removable-media-encrypted-p)" fill-opacity=".6" xlink:href="#drive-removable-media-encrypted-q"/>
      <use fill="url(#drive-removable-media-encrypted-r)" xlink:href="#drive-removable-media-encrypted-q"/>
      <use fill="#000" filter="url(#drive-removable-media-encrypted-s)" xlink:href="#drive-removable-media-encrypted-q"/>
      <path stroke="url(#drive-removable-media-encrypted-t)" d="M72.9375,64.75 C73.8522216,64.75 74.6803466,65.1207642 75.2797912,65.7202088 C75.8792358,66.3196534 76.25,67.1477784 76.25,68.0625 L76.25,68.0625 L76.25,73.5625 C76.25,74.9949886 75.6693693,76.2918636 74.7306164,77.2306164 C73.7918636,78.1693693 72.4949886,78.75 71.0625,78.75 L71.0625,78.75 L6.4375,78.75 C5.00501143,78.75 3.70813643,78.1693693 2.76938357,77.2306164 C1.83063072,76.2918636 1.25,74.9949886 1.25,73.5625 L1.25,73.5625 L1.25,68.0625 C1.25,67.1477784 1.62076419,66.3196534 2.22020879,65.7202088 C2.81965338,65.1207642 3.64777838,64.75 4.5625,64.75 L4.5625,64.75 Z"/>
      <path fill="url(#drive-removable-media-encrypted-u)" d="M62.75,76 C64.8210678,76 66.5,74.6568542 66.5,73 C66.5,71.3431458 64.8210678,70 62.75,70 C60.6789322,70 59,71.3431458 59,73 C59,74.6568542 60.6789322,76 62.75,76 Z"/>
      <ellipse cx="62.75" cy="72.25" fill="url(#drive-removable-media-encrypted-v)" rx="3" ry="2.25"/>
    </g>
    <use fill="#FFF" xlink:href="#drive-removable-media-encrypted-w"/>
    <use fill="#000" filter="url(#drive-removable-media-encrypted-x)" xlink:href="#drive-removable-media-encrypted-w"/>
  </g>
</svg>
