<svg xmlns="http://www.w3.org/2000/svg" xmlns:xlink="http://www.w3.org/1999/xlink" width="128" height="128" viewBox="0 0 128 128">
  <defs>
    <linearGradient id="audio-x-mp3-playlist-c" x1="50%" x2="50%" y1="0%" y2="100%">
      <stop offset="0%" stop-color="#549807"/>
      <stop offset="100%" stop-color="#458300"/>
    </linearGradient>
    <path id="audio-x-mp3-playlist-b" d="M84,95 C84,99.9705627 79.9705627,104 75,104 L9,104 C4.02943725,104 6.08718376e-16,99.9705627 0,95 L0,9 C-6.08718376e-16,4.02943725 4.02943725,9.13077564e-16 9,0 L58,0 L84,26 L84,95 Z"/>
    <filter id="audio-x-mp3-playlist-a" width="123.8%" height="119.2%" x="-11.9%" y="-7.7%" filterUnits="objectBoundingBox">
      <feOffset dy="2" in="SourceAlpha" result="shadowOffsetOuter1"/>
      <feGaussianBlur in="shadowOffsetOuter1" result="shadowBlurOuter1" stdDeviation="3"/>
      <feColorMatrix in="shadowBlurOuter1" values="0 0 0 0 0.286130341   0 0 0 0 0.419214221   0 0 0 0 0  0 0 0 0.2 0"/>
    </filter>
    <linearGradient id="audio-x-mp3-playlist-f" x1="50%" x2="10.489%" y1="50%" y2="91.194%">
      <stop offset="0%" stop-color="#FFF" stop-opacity=".1"/>
      <stop offset="100%" stop-color="#FFF" stop-opacity=".3"/>
    </linearGradient>
    <path id="audio-x-mp3-playlist-e" d="M58,0 L84,26 L67,26 C62.0294373,26 58,21.9705627 58,17 L58,0 L58,0 Z"/>
    <filter id="audio-x-mp3-playlist-d" width="188.5%" height="188.5%" x="-44.2%" y="-36.5%" filterUnits="objectBoundingBox">
      <feOffset dy="2" in="SourceAlpha" result="shadowOffsetOuter1"/>
      <feGaussianBlur in="shadowOffsetOuter1" result="shadowBlurOuter1" stdDeviation="3.5"/>
      <feComposite in="shadowBlurOuter1" in2="SourceAlpha" operator="out" result="shadowBlurOuter1"/>
      <feColorMatrix in="shadowBlurOuter1" values="0 0 0 0 0   0 0 0 0 0   0 0 0 0 0  0 0 0 0.05 0"/>
    </filter>
  </defs>
  <g fill="none" fill-rule="evenodd">
    <g transform="translate(22 14)">
      <use fill="#000" filter="url(#audio-x-mp3-playlist-a)" xlink:href="#audio-x-mp3-playlist-b"/>
      <use fill="url(#audio-x-mp3-playlist-c)" xlink:href="#audio-x-mp3-playlist-b"/>
      <use fill="#000" filter="url(#audio-x-mp3-playlist-d)" xlink:href="#audio-x-mp3-playlist-e"/>
      <use fill="url(#audio-x-mp3-playlist-f)" xlink:href="#audio-x-mp3-playlist-e"/>
    </g>
    <path fill="#FFF" fill-opacity=".6" d="M79.5032958,57.8143905 C80.1933699,57.811872 80.8501435,58.4967691 80.9209885,59.3748615 L80.9272958,59.5317239 L80.9272958,60.0197239 C80.9272958,60.7343905 81.5619625,62.3930572 85.0739625,64.5823905 C85.0739625,64.5823905 89.6606291,67.0597239 90.9619625,71.5343905 C90.9619625,71.5343905 92.3912958,75.5263905 90.0606291,80.5637239 C90.0606291,80.5637239 89.8392958,81.0277239 89.3539625,80.8330572 C88.9699625,80.6783905 89.1006291,80.1903905 89.1006291,80.1903905 C89.1006291,80.1903905 90.6712958,76.2650572 89.3646291,73.0837239 C89.3646291,73.0837239 88.1592958,68.7130572 80.7112958,66.7290572 L80.7111197,66.8219202 C80.7083262,68.2874444 80.6728958,86.6090572 80.6472958,86.7370572 C80.6179625,89.2757239 78.5086291,91.9423905 75.2686291,93.2037239 C71.3139625,94.7423905 67.1806291,93.6037239 66.0339625,90.6623905 C64.8872958,87.7183905 67.1139625,83.9263905 71.1272958,82.5423905 C73.7390736,81.642835 76.0349208,81.6665803 77.8458514,82.5127044 L78.0792958,82.6277239 L78.1272958,59.5423905 C78.1299625,58.5903905 78.7752958,57.8170572 79.5032958,57.8143905 Z M72,76 L72,78 L44,78 L44,76 L72,76 Z M72,64 L72,66 L44,66 L44,64 L72,64 Z M72,52 L72,54 L44,54 L44,52 L72,52 Z"/>
  </g>
</svg>
