<?xml version="1.0" encoding="UTF-8"?>
<svg width="32px" height="32px" viewBox="0 0 32 32" version="1.1" xmlns="http://www.w3.org/2000/svg" xmlns:xlink="http://www.w3.org/1999/xlink">
    <title>status/32/dialog-warning</title>
    <defs>
        <filter x="-6.9%" y="-3.4%" width="113.8%" height="113.8%" filterUnits="objectBoundingBox" id="filter-1">
            <feOffset dx="0" dy="1" in="SourceAlpha" result="shadowOffsetOuter1"></feOffset>
            <feGaussianBlur stdDeviation="0.5" in="shadowOffsetOuter1" result="shadowBlurOuter1"></feGaussianBlur>
            <feColorMatrix values="0 0 0 0 0   0 0 0 0 0   0 0 0 0 0  0 0 0 0.15 0" type="matrix" in="shadowBlurOuter1" result="shadowMatrixOuter1"></feColorMatrix>
            <feMerge>
                <feMergeNode in="shadowMatrixOuter1"></feMergeNode>
                <feMergeNode in="SourceGraphic"></feMergeNode>
            </feMerge>
        </filter>
        <linearGradient x1="50%" y1="0%" x2="50%" y2="100%" id="linearGradient-2">
            <stop stop-color="#FADA00" offset="0%"></stop>
            <stop stop-color="#F38C00" offset="100%"></stop>
        </linearGradient>
        <linearGradient x1="50%" y1="0%" x2="50%" y2="100%" id="linearGradient-3">
            <stop stop-color="#000000" stop-opacity="0.0504739401" offset="0%"></stop>
            <stop stop-color="#000000" stop-opacity="0.101304701" offset="100%"></stop>
        </linearGradient>
    </defs>
    <g id="status/32/dialog-warning" stroke="none" stroke-width="1" fill="none" fill-rule="evenodd">
        <g id="编组" filter="url(#filter-1)" transform="translate(1.5, 1.5)" fill-rule="nonzero">
            <circle id="Oval" fill="url(#linearGradient-2)" cx="14.5" cy="14.5" r="14.5"></circle>
            <path d="M14.5,0 C22.5081289,0 29,6.49187113 29,14.5 C29,22.5081289 22.5081289,29 14.5,29 C6.49187113,29 0,22.5081289 0,14.5 C0,6.49187113 6.49187113,0 14.5,0 Z M14.5,1 C7.04415588,1 1,7.04415588 1,14.5 C1,21.9558441 7.04415588,28 14.5,28 C21.9558441,28 28,21.9558441 28,14.5 C28,7.04415588 21.9558441,1 14.5,1 Z" id="Oval" fill="url(#linearGradient-3)"></path>
            <path d="M14.5246854,18.2079927 L14.5246854,18.2079927 C13.7460983,18.2079927 13.1083984,17.6367376 13.0833724,16.9162358 L12.7107629,6.19362455 C12.6783217,5.25868763 13.4884231,4.4832904 14.4996594,4.4832904 L14.4996594,4.4832904 C15.508115,4.4832904 16.3172894,5.25354116 16.2894828,6.18590488 L15.9659983,16.9093739 C15.9446799,17.6333067 15.3060531,18.2079927 14.5246854,18.2079927 L14.5246854,18.2079927 Z" id="Shape" fill="#FFFFFF"></path>
            <circle id="Oval" fill="#FFFFFF" cx="14.5" cy="22.385076" r="1.79017856"></circle>
        </g>
    </g>
</svg>