<svg xmlns="http://www.w3.org/2000/svg" xmlns:xlink="http://www.w3.org/1999/xlink" width="22" height="22" viewBox="0 0 22 22">
  <defs>
    <filter id="folder-open-a" width="125%" height="127.8%" x="-12.5%" y="-13.9%" filterUnits="objectBoundingBox">
      <feOffset in="SourceAlpha" result="shadowOffsetOuter1"/>
      <feGaussianBlur in="shadowOffsetOuter1" result="shadowBlurOuter1" stdDeviation=".5"/>
      <feComposite in="shadowBlurOuter1" in2="SourceAlpha" operator="out" result="shadowBlurOuter1"/>
      <feColorMatrix in="shadowBlurOuter1" result="shadowMatrixOuter1" values="0 0 0 0 0   0 0 0 0 0   0 0 0 0 0  0 0 0 0.15 0"/>
      <feMerge>
        <feMergeNode in="shadowMatrixOuter1"/>
        <feMergeNode in="SourceGraphic"/>
      </feMerge>
    </filter>
    <linearGradient id="folder-open-c" x1="50%" x2="50%" y1="0%" y2="37.968%">
      <stop offset="0%" stop-color="#00B8FF"/>
      <stop offset="100%" stop-color="#2E5DFF"/>
    </linearGradient>
    <path id="folder-open-b" d="M11,1 L11,1 C11.306433,1.61286606 11.9328289,2 12.618034,2 L17.4144144,2 C18.8423939,2 20,3.1576061 20,4.58558559 L20,15.4144144 C20,16.8423939 18.8423939,18 17.4144144,18 L2.58558559,18 C1.1576061,18 -4.29017763e-14,16.8423939 -4.30766534e-14,15.4144144 L-4.26325641e-14,2.58558559 C-4.28074412e-14,1.1576061 1.1576061,-3.21561967e-14 2.58558559,-3.24185123e-14 L9.38196601,-3.19744231e-14 C10.0671711,-3.21002932e-14 10.693567,0.387133935 11,1 Z"/>
    <linearGradient id="folder-open-g" x1="50%" x2="50%" y1="0%" y2="77.929%">
      <stop offset="0%" stop-color="#FFF"/>
      <stop offset="100%" stop-color="#CEF5FF"/>
    </linearGradient>
    <path id="folder-open-f" d="M2.66216216,3 L17.3378378,3 C18.2558247,3 19,3.74417535 19,4.66216216 L19,9.33783784 C19,10.2558247 18.2558247,11 17.3378378,11 L2.66216216,11 C1.74417535,11 1,10.2558247 1,9.33783784 L1,4.66216216 C1,3.74417535 1.74417535,3 2.66216216,3 Z"/>
    <filter id="folder-open-e" width="116.7%" height="137.5%" x="-8.3%" y="-18.8%" filterUnits="objectBoundingBox">
      <feOffset in="SourceAlpha" result="shadowOffsetOuter1"/>
      <feGaussianBlur in="shadowOffsetOuter1" result="shadowBlurOuter1" stdDeviation=".5"/>
      <feColorMatrix in="shadowBlurOuter1" values="0 0 0 0 0   0 0 0 0 0   0 0 0 0 0  0 0 0 0.2 0"/>
    </filter>
    <filter id="folder-open-h" width="116.7%" height="137.5%" x="-8.3%" y="-18.8%" filterUnits="objectBoundingBox">
      <feOffset dy="1" in="SourceAlpha" result="shadowOffsetInner1"/>
      <feComposite in="shadowOffsetInner1" in2="SourceAlpha" k2="-1" k3="1" operator="arithmetic" result="shadowInnerInner1"/>
      <feColorMatrix in="shadowInnerInner1" values="0 0 0 0 1   0 0 0 0 1   0 0 0 0 1  0 0 0 0.5 0"/>
    </filter>
    <radialGradient id="folder-open-i" cx="50%" cy="0%" r="117.966%" fx="50%" fy="0%" gradientTransform="scale(.5 1) rotate(82.932 .75 .283)">
      <stop offset="0%" stop-color="#48D5FF"/>
      <stop offset="100%" stop-color="#0083F6"/>
    </radialGradient>
  </defs>
  <g fill="none" fill-rule="evenodd" filter="url(#folder-open-a)" transform="translate(1 2)">
    <mask id="folder-open-d" fill="#fff">
      <use xlink:href="#folder-open-b"/>
    </mask>
    <use fill="url(#folder-open-c)" xlink:href="#folder-open-b"/>
    <g mask="url(#folder-open-d)">
      <use fill="#000" filter="url(#folder-open-e)" xlink:href="#folder-open-f"/>
      <use fill="url(#folder-open-g)" xlink:href="#folder-open-f"/>
      <use fill="#000" filter="url(#folder-open-h)" xlink:href="#folder-open-f"/>
    </g>
    <g fill="url(#folder-open-i)" mask="url(#folder-open-d)">
      <path d="M0,0.6875 L20,0.6875 L20,8.10191441 C20,9.5298939 18.8423939,10.6875 17.4144144,10.6875 L2.58558559,10.6875 C1.1576061,10.6875 3.64938124e-16,9.5298939 -4.4408921e-16,8.10191441 L0,0.6875 Z" transform="translate(0 7.313)"/>
    </g>
  </g>
</svg>
