<?xml version="1.0" encoding="UTF-8"?>
<svg width="16px" height="16px" viewBox="0 0 16 16" version="1.1" xmlns="http://www.w3.org/2000/svg" xmlns:xlink="http://www.w3.org/1999/xlink">
    <!-- Generator: Sketch 42 (36781) - http://www.bohemiancoding.com/sketch -->
    <title>folder-recent-symbolic</title>
    <desc>Created with Sketch.</desc>
    <defs></defs>
    <g id="Page-1" stroke="none" stroke-width="1" fill="none" fill-rule="evenodd">
        <g id="folder-recent-symbolic" fill-rule="nonzero" fill="#303030">
            <path d="M8,15 C4.13400675,15 1,11.8659932 1,8 C1,4.13400675 4.13400675,1 8,1 C11.8659932,1 15,4.13400675 15,8 C15,11.8659932 11.8659932,15 8,15 Z M8,14 C11.3137085,14 14,11.3137085 14,8 C14,4.6862915 11.3137085,2 8,2 C4.6862915,2 2,4.6862915 2,8 C2,11.3137085 4.6862915,14 8,14 Z M8,4 L8,8 L12,8 C12.2761424,8 12.5,8.22385763 12.5,8.5 C12.5,8.77614237 12.2761424,9 12,9 L7.5,9 C7.22385763,9 7,8.77614237 7,8.5 L7,4 C7,3.72385763 7.22385763,3.5 7.5,3.5 C7.77614237,3.5 8,3.72385763 8,4 Z" id="Combined-Shape"></path>
        </g>
    </g>
</svg>