<?xml version="1.0" encoding="UTF-8"?>
<svg width="16px" height="16px" viewBox="0 0 16 16" version="1.1" xmlns="http://www.w3.org/2000/svg" xmlns:xlink="http://www.w3.org/1999/xlink">
    <!-- Generator: Sketch 42 (36781) - http://www.bohemiancoding.com/sketch -->
    <title>folder-documents-symbolic</title>
    <desc>Created with Sketch.</desc>
    <defs></defs>
    <g id="Page-1" stroke="none" stroke-width="1" fill="none" fill-rule="evenodd">
        <g id="folder-documents-symbolic" fill-rule="nonzero" fill="#303030">
            <path d="M3,14.0010024 L13,14.0010024 L13,7.00100238 L8.5,7.00100238 C8.22385763,7.00100238 8,6.77714475 8,6.50100238 L8,2.00100238 L3,2.00100238 L3,14.0010024 Z M13.5,6.00100238 C13.7761424,6.00100238 14,6.22486 14,6.50100238 L14,14.5010024 C14,14.7771448 13.7761424,15.0010024 13.5,15.0010024 L2.5,15.0010024 C2.22385763,15.0010024 2,14.7771448 2,14.5010024 L2,1.50100238 C2,1.22486 2.22385763,1.00100238 2.5,1.00100238 L8.5,1.00100238 C8.77614237,1.00100238 9,1.22486 9,1.50100238 L9,6.00100238 L13.5,6.00100238 Z M4.5,13.0010024 L11.5,13.0010024 C11.7761424,13.0010024 12,12.7771448 12,12.5010024 C12,12.22486 11.7761424,12.0010024 11.5,12.0010024 L4.5,12.0010024 C4.22385763,12.0010024 4,12.22486 4,12.5010024 C4,12.7771448 4.22385763,13.0010024 4.5,13.0010024 Z M4.5,11.0010024 L11.5,11.0010024 C11.7761424,11.0010024 12,10.7771448 12,10.5010024 C12,10.22486 11.7761424,10.0010024 11.5,10.0010024 L4.5,10.0010024 C4.22385763,10.0010024 4,10.22486 4,10.5010024 C4,10.7771448 4.22385763,11.0010024 4.5,11.0010024 Z M4.5,9.00100238 L11.5,9.00100238 C11.7761424,9.00100238 12,8.77714475 12,8.50100238 C12,8.22486 11.7761424,8.00100238 11.5,8.00100238 L4.5,8.00100238 C4.22385763,8.00100238 4,8.22486 4,8.50100238 C4,8.77714475 4.22385763,9.00100238 4.5,9.00100238 Z M10,1.50100238 C10,1.05554995 10.538571,0.832466556 10.8535534,1.14744899 L13.8535534,4.14744899 C14.1685358,4.46243142 13.9454524,5.00100238 13.5,5.00100238 L10.5,5.00100238 C10.2238576,5.00100238 10,4.77714475 10,4.50100238 L10,1.50100238 Z M11,4.00100238 L12.2928932,4.00100238 L11,2.70810916 L11,4.00100238 Z" id="Combined-Shape"></path>
        </g>
    </g>
</svg>