<svg xmlns="http://www.w3.org/2000/svg" width="16" height="16" viewBox="0 0 16 16">
 <defs>
  <style id="current-color-scheme" type="text/css">
   .ColorScheme-Text { color:#536076; } .ColorScheme-Highlight { color:#ffffff; }
  </style>
 </defs>
 <path style="fill:currentColor" class="ColorScheme-Text" d="M11.5246774,1.30045079 C12.7397039,1.30045079 13.7246775,2.28542437 13.7246775,3.50045084 C13.7246775,4.71547732 12.7397039,5.70045089 11.5246774,5.70045089 C10.8417653,5.70045089 10.2315283,5.38929163 9.82800775,4.90101438 L9.79751737,4.91871919 L5.79751737,6.91871919 C5.76059629,6.93717973 5.7228805,6.95230918 5.68471173,6.96422145 C5.73005671,7.13546197 5.7533559,7.31689201 5.7533559,7.50376388 C5.7533559,7.67985467 5.73266753,7.85111343 5.6935888,8.01524215 L9.8394064,10.0885991 C10.2429717,9.6074159 10.8486671,9.30148612 11.5258163,9.30148612 C12.7408427,9.30148612 13.7258163,10.2864597 13.7258163,11.5014862 C13.7258163,12.7165126 12.7408427,13.7014862 11.5258163,13.7014862 C10.3107898,13.7014862 9.32581621,12.7165126 9.32581621,11.5014862 C9.28055156,11.4814479 9.23583799,11.4642917 9.19223293,11.4424892 L9.19223293,11.4424892 L4.86305333,9.2778994 C4.86129914,9.27702231 4.8595499,9.27613927 4.8578056,9.27525032 C4.49324155,9.54452409 4.04189493,9.70376392 3.55335586,9.70376392 C2.33832938,9.70376392 1.35335581,8.71879035 1.35335581,7.50376388 C1.35335581,6.2887374 2.33832938,5.30376383 3.55335586,5.30376383 C4.05769795,5.30376383 4.52240251,5.4734723 4.89347873,5.75889845 C4.95597604,5.68567973 5.03451706,5.62316836 5.12669697,5.57707841 L5.12669697,5.57707841 L9.12669697,3.57707841 C9.19099057,3.54493161 9.25769407,3.52288602 9.32500291,3.5103401 C9.32468491,3.50717866 9.32467736,3.50381563 9.32467736,3.50045084 C9.32467736,2.28542437 10.3096509,1.30045079 11.5246774,1.30045079 Z"/>
</svg>
