<svg xmlns="http://www.w3.org/2000/svg" width="16" height="16" viewBox="0 0 16 16">
 <defs>
  <style id="current-color-scheme" type="text/css">
   .ColorScheme-Text { color:#536076; } .ColorScheme-Highlight { color:#ffffff; }
  </style>
 </defs>
 <path style="fill:currentColor" class="ColorScheme-Text" d="M8.00100657,1.13447237 C8.00100657,1.13447237 15.954817,9 15.5010066,9 L15.5010066,9 L13.0010061,9 L13.0010065,14.009222 C13.0010065,14.5490248 12.5553519,15 12.005609,15 L12.005609,15 L3.99640414,15 C3.45667097,15 3.00100658,14.5564136 3.00100658,14.009222 L3.00100658,14.009222 L3.0010066,9 L0.501006573,9 Z M10.5078753,7.41092894 C9.92499732,6.86302369 8.9791064,6.86302369 8.39622844,7.41092894 L8.39622844,7.41092894 L8.00021429,7.78300452 L7.60420015,7.41092894 C7.0208936,6.86302369 6.07543127,6.86302369 5.49212472,7.41092894 C4.83595843,8.02758276 4.83595843,9.02672861 5.49212472,9.64338243 L5.49212472,9.64338243 L8.00021429,12 L10.5078753,9.64338243 C11.1640416,9.02672861 11.1640416,8.02758276 10.5078753,7.41092894 Z"/>
</svg>
