<svg xmlns="http://www.w3.org/2000/svg" xmlns:xlink="http://www.w3.org/1999/xlink" width="16" height="16" viewBox="0 0 16 16">
  <defs>
    <filter id="user-trash-16px-a" width="157.1%" height="157.1%" x="-28.6%" y="-28.6%" filterUnits="objectBoundingBox">
      <feOffset dy="1" in="SourceAlpha" result="shadowOffsetOuter1"/>
      <feGaussianBlur in="shadowOffsetOuter1" result="shadowBlurOuter1" stdDeviation=".5"/>
      <feComposite in="shadowBlurOuter1" in2="SourceAlpha" operator="out" result="shadowBlurOuter1"/>
      <feColorMatrix in="shadowBlurOuter1" result="shadowMatrixOuter1" values="0 0 0 0 0   0 0 0 0 0   0 0 0 0 0  0 0 0 0.15 0"/>
      <feMerge>
        <feMergeNode in="shadowMatrixOuter1"/>
        <feMergeNode in="SourceGraphic"/>
      </feMerge>
    </filter>
    <path id="user-trash-16px-b" d="M0.583582725,0 L13.4164173,2.22044605e-16 C13.6918693,-8.07157266e-16 13.9151673,0.223297981 13.9151673,0.49875 C13.9151673,0.524771289 13.9131309,0.550752675 13.9090767,0.5764562 L12.0574492,12.3158248 C11.9044814,13.2856449 11.0686212,14 10.0868115,14 L3.91318847,14 C2.9313788,14 2.09551859,13.2856449 1.94255077,12.3158248 L0.0909233004,0.5764562 C0.0480073511,0.304367913 0.233788238,0.0490065244 0.505876525,0.00609057509 C0.53158005,0.0020364087 0.557561436,3.37846941e-16 0.583582725,3.33066907e-16 Z"/>
    <filter id="user-trash-16px-c" width="177.4%" height="178.6%" x="-38.7%" y="-39.3%" filterUnits="objectBoundingBox">
      <feMorphology in="SourceAlpha" radius="3" result="shadowSpreadInner1"/>
      <feGaussianBlur in="shadowSpreadInner1" result="shadowBlurInner1" stdDeviation="2.5"/>
      <feOffset dy="-3" in="shadowBlurInner1" result="shadowOffsetInner1"/>
      <feComposite in="shadowOffsetInner1" in2="SourceAlpha" k2="-1" k3="1" operator="arithmetic" result="shadowInnerInner1"/>
      <feColorMatrix in="shadowInnerInner1" result="shadowMatrixInner1" values="0 0 0 0 1   0 0 0 0 1   0 0 0 0 1  0 0 0 0.6 0"/>
      <feGaussianBlur in="SourceAlpha" result="shadowBlurInner2" stdDeviation=".5"/>
      <feOffset dy="1" in="shadowBlurInner2" result="shadowOffsetInner2"/>
      <feComposite in="shadowOffsetInner2" in2="SourceAlpha" k2="-1" k3="1" operator="arithmetic" result="shadowInnerInner2"/>
      <feColorMatrix in="shadowInnerInner2" result="shadowMatrixInner2" values="0 0 0 0 1   0 0 0 0 1   0 0 0 0 1  0 0 0 0.6 0"/>
      <feMerge>
        <feMergeNode in="shadowMatrixInner1"/>
        <feMergeNode in="shadowMatrixInner2"/>
      </feMerge>
    </filter>
    <linearGradient id="user-trash-16px-d" x1="98.965%" x2="0%" y1="50%" y2="50%">
      <stop offset="0%" stop-color="#9BAF03"/>
      <stop offset="45.365%" stop-color="#4F6A00"/>
      <stop offset="100%" stop-color="#A7BB00"/>
    </linearGradient>
  </defs>
  <g fill="none" fill-rule="evenodd">
    <g filter="url(#user-trash-16px-a)" transform="translate(1 1)">
      <use fill="#BFC7DC" fill-opacity=".8" xlink:href="#user-trash-16px-b"/>
      <use fill="#000" filter="url(#user-trash-16px-c)" xlink:href="#user-trash-16px-b"/>
    </g>
    <path fill="url(#user-trash-16px-d)" d="M8.29631579,5.84734658 C7.59684211,4.43929253 6.86105263,5.57313037 6.86105263,5.57313037 L6.30315789,6.53802226 L7.45157895,7.19275199 L8.29631579,5.84734658 Z M10.78,5.41599523 L10.1610526,5.75799523 L9.93421053,5.36721145 C9.93421053,5.36721145 9.75894737,4.96050875 8.89421053,5.00313037 C8.89421053,5.00313037 7.82263158,5.03240064 7.71105263,5.01237361 C7.71105263,5.01237361 8.01473684,5.07091415 8.16578947,5.30045469 L8.85,6.48153577 L8.35,6.75677902 L10.0278947,6.79221145 L10.78,5.41599523 Z M6.66736842,8.82161685 C5.79947368,10.1356979 7.17526316,10.1608601 7.17526316,10.1608601 L8.30842105,10.1244006 L8.28578947,8.82675199 L6.66736842,8.82161685 Z M5,6.97604929 L5.62105263,7.31394118 L5.39578947,7.70575199 C5.39578947,7.70575199 5.13157895,8.06418442 5.61842105,8.76153577 C5.61842105,8.76153577 6.20210526,9.64067091 6.24105263,9.74388712 C6.24105263,9.74388712 6.13421053,9.46042767 6.25684211,9.21496821 L6.93578947,8.03080604 L7.43736842,8.30348172 L6.59578947,6.88721145 L5,6.97604929 Z M10.2352632,8.62494118 C11.8347368,8.72353577 11.1857895,7.54040064 11.1857895,7.54040064 L10.6,6.59194118 L9.45052632,7.24513037 L10.2352632,8.62494118 Z M8.53894737,9.62988712 L9.39684211,8.22234658 L9.39684211,8.78361685 L10.7868421,8.78361685 C11.0663158,8.76821145 11.2678947,8.53867091 11.2678947,8.53867091 C11.1947368,8.6218601 10.6926316,9.54823848 10.6926316,9.54823848 C10.3063158,10.3031033 9.85684211,10.252779 9.85684211,10.252779 L9.39684211,10.252779 L9.39684211,10.9460223 L8.53894737,9.62988712 Z"/>
  </g>
</svg>
