<svg xmlns="http://www.w3.org/2000/svg" xmlns:xlink="http://www.w3.org/1999/xlink" width="128" height="128" viewBox="0 0 128 128">
  <defs>
    <linearGradient id="text-xhtml+xml-c" x1="50%" x2="50%" y1="0%" y2="100%">
      <stop offset="0%" stop-color="#005CC2"/>
      <stop offset="100%" stop-color="#004DA3"/>
    </linearGradient>
    <path id="text-xhtml+xml-b" d="M84,95 C84,99.9705627 79.9705627,104 75,104 L9,104 C4.02943725,104 6.08718376e-16,99.9705627 0,95 L0,9 C-6.08718376e-16,4.02943725 4.02943725,9.13077564e-16 9,0 L58,0 L84,26 L84,95 Z"/>
    <filter id="text-xhtml+xml-a" width="127.4%" height="122.1%" x="-13.7%" y="-9.1%" filterUnits="objectBoundingBox">
      <feOffset dy="2" in="SourceAlpha" result="shadowOffsetOuter1"/>
      <feGaussianBlur in="shadowOffsetOuter1" result="shadowBlurOuter1" stdDeviation="3.5"/>
      <feColorMatrix in="shadowBlurOuter1" values="0 0 0 0 0.22745098   0 0 0 0 0.494117647   0 0 0 0 0.960784314  0 0 0 0.2 0"/>
    </filter>
    <linearGradient id="text-xhtml+xml-f" x1="50%" x2="10.489%" y1="50%" y2="91.194%">
      <stop offset="0%" stop-color="#FFF" stop-opacity=".1"/>
      <stop offset="100%" stop-color="#FFF" stop-opacity=".3"/>
    </linearGradient>
    <path id="text-xhtml+xml-e" d="M58,0 L84,26 L67,26 C62.0294373,26 58,21.9705627 58,17 L58,0 L58,0 Z"/>
    <filter id="text-xhtml+xml-d" width="188.5%" height="188.5%" x="-44.2%" y="-36.5%" filterUnits="objectBoundingBox">
      <feOffset dy="2" in="SourceAlpha" result="shadowOffsetOuter1"/>
      <feGaussianBlur in="shadowOffsetOuter1" result="shadowBlurOuter1" stdDeviation="3.5"/>
      <feComposite in="shadowBlurOuter1" in2="SourceAlpha" operator="out" result="shadowBlurOuter1"/>
      <feColorMatrix in="shadowBlurOuter1" values="0 0 0 0 0   0 0 0 0 0   0 0 0 0 0  0 0 0 0.05 0"/>
    </filter>
  </defs>
  <g fill="none" fill-rule="evenodd">
    <g transform="translate(22 14)">
      <use fill="#000" filter="url(#text-xhtml+xml-a)" xlink:href="#text-xhtml+xml-b"/>
      <use fill="url(#text-xhtml+xml-c)" xlink:href="#text-xhtml+xml-b"/>
      <use fill="#000" filter="url(#text-xhtml+xml-d)" xlink:href="#text-xhtml+xml-e"/>
      <use fill="url(#text-xhtml+xml-f)" xlink:href="#text-xhtml+xml-e"/>
    </g>
    <path fill="#FFF" fill-opacity=".6" d="M64,52.1333333 C72.762918,52.1333333 79.8666667,59.237082 79.8666667,68 C79.8666667,76.762918 72.762918,83.8666667 64,83.8666667 C55.237082,83.8666667 48.1333333,76.762918 48.1333333,68 C48.1333333,59.237082 55.237082,52.1333333 64,52.1333333 Z M70.2435437,74.6171165 C70.1867709,74.6513582 70.129581,74.6860372 70.0719869,74.7211516 C68.3609897,75.7643272 66.6499176,76.9712271 65.0574402,78.3229776 C63.922886,79.2860268 62.8940346,80.2855452 61.9923594,81.3169187 C62.6474856,81.4159425 63.3178192,81.4666667 64,81.4666667 C66.4908075,81.4666667 68.8236725,80.7904342 70.8250189,79.6115453 L70.8039288,79.9029755 C70.9477691,78.1297825 70.9568844,76.4601967 70.8397356,74.8880486 C70.6282679,74.8226056 70.4282801,74.7310378 70.2435437,74.6171165 Z M56.3068394,68.9388285 C56.0524478,69.0696522 55.7738037,69.1599597 55.479432,69.201226 C54.3569657,71.3361292 53.7109984,73.4895106 53.2107421,76.0589183 C54.8038829,78.1892197 57.0124727,79.8311229 59.5727175,80.7219933 C60.7170162,79.2843413 62.076993,77.9147082 63.6078631,76.6152521 C64.9198161,75.5016205 66.3016439,74.4849449 67.6990992,73.5708147 C63.9709487,73.0746096 60.6868418,71.8476889 57.8212931,69.9975934 C57.2896642,69.6543557 56.7857632,69.3015057 56.3068394,68.9388285 Z M46,58 L46,61.7142835 L31,68 L46,74.2857165 L46,78 L28,70.0097889 L28,65.9351484 L46,58 Z M82,58 L100,65.9351484 L100,70.0097889 L82,78 L82,74.2857165 L97,68 L82,61.7142835 L82,58 Z M76.3026962,73.4849811 L75.9961278,73.5270318 C75.2688166,73.6199622 74.554415,73.6903911 73.8528038,73.7388218 C73.6853163,74.0165363 73.4676307,74.2605635 73.2123121,74.4583383 C73.2996525,75.5094434 73.3344683,76.5983701 73.3145618,77.7261868 C74.5647728,76.5286709 75.586128,75.0897979 76.3026962,73.4849811 Z M51.2548377,63.6396555 L51.1832322,63.8551955 C50.7612904,65.1609065 50.5333333,66.5538322 50.5333333,68 C50.5333333,69.7435744 50.8646907,71.4097562 51.467868,72.9390077 C51.9007996,71.3449897 52.4473169,69.8625245 53.1953928,68.3884611 C52.7637988,67.9223677 52.5,67.2986573 52.5,66.6133333 C52.5,66.2363131 52.5798381,65.87794 52.7235301,65.5541985 C52.2003845,64.938571 51.7136856,64.300614 51.2548377,63.6396555 Z M63.1836147,60.8936831 C60.9537595,62.3077494 59.1149758,63.9851757 57.6251032,65.8894174 C57.6912371,66.1192975 57.7266667,66.3621779 57.7266667,66.6133333 C57.7266667,66.7387175 57.7178366,66.8620392 57.7007643,66.9827107 C58.1496773,67.325565 58.6228302,67.6583435 59.1230705,67.9813157 C61.9917668,69.8334435 65.3388642,70.9959688 69.22682,71.324595 C69.4135296,70.9074365 69.7064043,70.5481697 70.0710781,70.2811603 C69.0620078,66.5420906 67.1853246,63.4753257 64.610918,60.9569837 C64.4176419,61.0025542 64.2160812,61.0266659 64.0088889,61.0266659 C63.7205027,61.0266659 63.4430268,60.9799538 63.1836147,60.8936831 Z M72.0718418,57.2195573 L72.284736,57.1657296 C70.1758581,57.6808348 68.261607,58.3310891 66.5295219,59.1056911 C66.5033244,59.2012847 66.4718345,59.2946899 66.4353868,59.3855722 C69.2978617,62.2331859 71.3706094,65.7114765 72.4558615,69.916566 C73.1442796,70.1508884 73.7035647,70.6644132 73.9987705,71.3221937 C75.0160098,71.2420787 76.0646259,71.1125528 77.1454361,70.931728 C77.3562799,69.9869256 77.4666667,69.0063539 77.4666667,68 C77.4666667,63.5905354 75.3473913,59.6760542 72.0718418,57.2195573 Z M57.6066081,56.1473686 L57.4541921,56.2284532 C55.3908526,57.3782726 53.6612148,59.0548517 52.4471236,61.0763457 C53.0965659,62.1302572 53.80201,63.1199383 54.5989002,64.0506187 C54.7652245,64.0174157 54.9372451,64 55.1133333,64 C55.4066374,64 55.6886561,64.0483189 55.9518634,64.137431 C57.4775221,62.2459859 59.3166431,60.5661746 61.4947617,59.1290031 C61.4301436,58.9015633 61.3955556,58.6614872 61.3955556,58.4133326 C61.3955556,58.3810705 61.3961402,58.3489451 61.3972994,58.3169661 C60.3531752,57.6109426 59.2066194,56.9745724 57.6066081,56.1473686 Z M64,54.5333333 C62.8001574,54.5333333 61.6369643,54.6902482 60.5298225,54.9846762 C61.2921077,55.4072287 61.956226,55.8037402 62.5852229,56.2214649 C62.9948087,55.9548848 63.483761,55.7999992 64.0088889,55.7999992 C64.8057967,55.7999992 65.5193939,56.1566943 65.9987336,56.7191376 C66.9958983,56.2915311 68.0447505,55.9020824 69.1467088,55.5525141 C67.5621505,54.8957245 65.8233958,54.5333333 64,54.5333333 Z"/>
  </g>
</svg>
