<svg xmlns="http://www.w3.org/2000/svg" xmlns:xlink="http://www.w3.org/1999/xlink" width="128" height="128" viewBox="0 0 128 128">
  <defs>
    <linearGradient id="text-x-vcard-c" x1="50%" x2="50%" y1="0%" y2="97.659%">
      <stop offset="0%" stop-color="#A3A3A3"/>
      <stop offset="100%" stop-color="#727272"/>
    </linearGradient>
    <path id="text-x-vcard-b" d="M84,95 C84,99.9705627 79.9705627,104 75,104 L9,104 C4.02943725,104 6.08718376e-16,99.9705627 0,95 L0,9 C-6.08718376e-16,4.02943725 4.02943725,9.13077564e-16 9,0 L58,0 L84,26 L84,95 Z"/>
    <filter id="text-x-vcard-a" width="127.4%" height="122.1%" x="-13.7%" y="-9.1%" filterUnits="objectBoundingBox">
      <feOffset dy="2" in="SourceAlpha" result="shadowOffsetOuter1"/>
      <feGaussianBlur in="shadowOffsetOuter1" result="shadowBlurOuter1" stdDeviation="3.5"/>
      <feColorMatrix in="shadowBlurOuter1" values="0 0 0 0 0   0 0 0 0 0   0 0 0 0 0  0 0 0 0.2 0"/>
    </filter>
    <linearGradient id="text-x-vcard-f" x1="50%" x2="10.489%" y1="50%" y2="91.194%">
      <stop offset="0%" stop-color="#FFF" stop-opacity=".1"/>
      <stop offset="100%" stop-color="#FFF" stop-opacity=".3"/>
    </linearGradient>
    <path id="text-x-vcard-e" d="M58,0 L84,26 L67,26 C62.0294373,26 58,21.9705627 58,17 L58,0 L58,0 Z"/>
    <filter id="text-x-vcard-d" width="188.5%" height="188.5%" x="-44.2%" y="-36.5%" filterUnits="objectBoundingBox">
      <feOffset dy="2" in="SourceAlpha" result="shadowOffsetOuter1"/>
      <feGaussianBlur in="shadowOffsetOuter1" result="shadowBlurOuter1" stdDeviation="3.5"/>
      <feComposite in="shadowBlurOuter1" in2="SourceAlpha" operator="out" result="shadowBlurOuter1"/>
      <feColorMatrix in="shadowBlurOuter1" values="0 0 0 0 0   0 0 0 0 0   0 0 0 0 0  0 0 0 0.05 0"/>
    </filter>
  </defs>
  <g fill="none" fill-rule="evenodd">
    <g transform="translate(22 14)">
      <use fill="#000" filter="url(#text-x-vcard-a)" xlink:href="#text-x-vcard-b"/>
      <use fill="url(#text-x-vcard-c)" xlink:href="#text-x-vcard-b"/>
      <use fill="#000" filter="url(#text-x-vcard-d)" xlink:href="#text-x-vcard-e"/>
      <use fill="url(#text-x-vcard-f)" xlink:href="#text-x-vcard-e"/>
    </g>
    <path fill="#FFF" fill-opacity=".6" d="M64,48.05 C70.7378739,48.05 76.2,53.5121261 76.2,60.25 C76.2,64.7114976 73.8051557,68.6136494 70.2308463,70.741076 C78.2256105,72.7189907 84.2,78.5783666 84.2,87.2934783 C84.2,87.9598218 83.6627417,88.5 83,88.5 L83,88.5 L45,88.5 C44.3372583,88.5 43.8,87.9598218 43.8,87.2934783 C43.8,78.5964317 49.8004059,72.7303807 57.775955,70.7450439 C54.1979767,68.6187514 51.8,64.7144144 51.8,60.25 C51.8,53.5121261 57.2621261,48.05 64,48.05 Z M64.7695618,72.4247402 L64.608903,72.4350693 C64.4071845,72.4449843 64.204178,72.45 64,72.45 C63.7417351,72.45 63.4853446,72.441975 63.2310641,72.4261607 C54.2971944,72.7004907 46.8761735,77.7830056 46.2436784,86.127327 C46.2436784,86.127327 81.755286,86.127327 81.755286,86.1080626 C81.1176408,77.7584291 73.7401028,72.6983632 64.7695618,72.4247402 Z M64,50.45 C58.5876095,50.45 54.2,54.8376095 54.2,60.25 C54.2,65.3779422 58.1385463,69.5859877 63.1556347,70.014132 C63.4359488,70.0043603 63.717459,70 64,70 C64.2829051,70 64.5647191,70.0043201 64.8453082,70.0129258 C69.8619794,69.5854259 73.8,65.3775999 73.8,60.25 C73.8,54.8376095 69.4123905,50.45 64,50.45 Z"/>
  </g>
</svg>
