<svg xmlns="http://www.w3.org/2000/svg" xmlns:xlink="http://www.w3.org/1999/xlink" width="128" height="128" viewBox="0 0 128 128">
  <defs>
    <linearGradient id="text-html-c" x1="50%" x2="50%" y1="0%" y2="100%">
      <stop offset="0%" stop-color="#5D89CD"/>
      <stop offset="100%" stop-color="#156EA0"/>
    </linearGradient>
    <path id="text-html-b" d="M84,95 C84,99.9705627 79.9705627,104 75,104 L9,104 C4.02943725,104 6.08718376e-16,99.9705627 0,95 L0,9 C-6.08718376e-16,4.02943725 4.02943725,9.13077564e-16 9,0 L58,0 L84,26 L84,95 Z"/>
    <filter id="text-html-a" width="127.4%" height="122.1%" x="-13.7%" y="-9.1%" filterUnits="objectBoundingBox">
      <feOffset dy="2" in="SourceAlpha" result="shadowOffsetOuter1"/>
      <feGaussianBlur in="shadowOffsetOuter1" result="shadowBlurOuter1" stdDeviation="3.5"/>
      <feColorMatrix in="shadowBlurOuter1" values="0 0 0 0 0.474509804   0 0 0 0 0.619607843   0 0 0 0 0.701960784  0 0 0 0.2 0"/>
    </filter>
    <linearGradient id="text-html-f" x1="50%" x2="10.489%" y1="50%" y2="91.194%">
      <stop offset="0%" stop-color="#FFF" stop-opacity=".1"/>
      <stop offset="100%" stop-color="#FFF" stop-opacity=".3"/>
    </linearGradient>
    <path id="text-html-e" d="M58,0 L84,26 L67,26 C62.0294373,26 58,21.9705627 58,17 L58,0 L58,0 Z"/>
    <filter id="text-html-d" width="188.5%" height="188.5%" x="-44.2%" y="-36.5%" filterUnits="objectBoundingBox">
      <feOffset dy="2" in="SourceAlpha" result="shadowOffsetOuter1"/>
      <feGaussianBlur in="shadowOffsetOuter1" result="shadowBlurOuter1" stdDeviation="3.5"/>
      <feComposite in="shadowBlurOuter1" in2="SourceAlpha" operator="out" result="shadowBlurOuter1"/>
      <feColorMatrix in="shadowBlurOuter1" values="0 0 0 0 0   0 0 0 0 0   0 0 0 0 0  0 0 0 0.05 0"/>
    </filter>
  </defs>
  <g fill="none" fill-rule="evenodd">
    <g transform="translate(22 14)">
      <use fill="#000" filter="url(#text-html-a)" xlink:href="#text-html-b"/>
      <use fill="url(#text-html-c)" xlink:href="#text-html-b"/>
      <use fill="#000" filter="url(#text-html-d)" xlink:href="#text-html-e"/>
      <use fill="url(#text-html-f)" xlink:href="#text-html-e"/>
    </g>
    <path fill="#FFF" fill-opacity=".6" d="M63.9090909,45.9666648 C77.1799914,45.9666648 87.9381818,56.7248553 87.9381818,69.9957557 C87.9381818,83.2666562 77.1799914,94.0248467 63.9090909,94.0248467 C50.6381904,94.0248467 39.88,83.2666562 39.88,69.9957557 C39.88,56.7248553 50.6381904,45.9666648 63.9090909,45.9666648 Z M72.646,79.7826648 L72.7695243,79.7048601 C70.130139,81.3524999 67.4909084,83.217897 65.0322207,85.2601139 C62.6984593,87.1985655 60.6547271,89.1937733 58.9766959,91.2250657 C60.5627394,91.5911217 62.2132917,91.7848467 63.9090909,91.7848467 C68.0819203,91.7848467 71.980781,90.6118468 75.2939252,88.5775949 L75.2458487,89.2359892 C75.4558756,86.6468801 75.4700308,84.166161 75.2999974,81.7909891 C74.1069933,81.6013117 73.0942136,80.8743654 72.5164806,79.8661997 L72.646,79.7826648 Z M53.7969137,70.703448 C53.1238901,71.2487714 52.2654926,71.576 51.3306667,71.576 C50.8633674,71.576 50.4151659,71.4942326 49.9995892,71.344225 C47.95753,74.9744694 46.6658021,78.6345199 45.9634689,82.0281453 L45.9125205,82.2831032 C48.5007604,86.0666503 52.2510775,88.9923891 56.6493042,90.5461521 C58.5322256,88.1351646 60.8842571,85.7935359 63.6009763,83.5369948 C66.144004,81.4247241 68.8637542,79.502416 71.5833498,77.8047048 L71.7843958,77.6796201 L71.7843958,77.6796201 L71.9833732,77.5566504 C65.8283427,76.8915908 60.3622255,74.9302981 55.5589283,71.8875974 C54.9532223,71.5039064 54.3659625,71.1087477 53.7969137,70.703448 Z M84.4711577,77.2224212 L83.9078332,77.3046512 C82.5226983,77.4977504 81.1650608,77.6350566 79.8347377,77.7182173 C79.8382688,77.7844146 79.84,77.8520051 79.84,77.92 C79.84,79.5133891 78.8893221,80.8847355 77.5242354,81.4977699 C77.6551562,83.2533442 77.6898482,85.0633069 77.624004,86.9273807 C80.7244519,84.4135512 83.1209456,81.0643136 84.4711577,77.2224212 Z M44.1732254,60.7504055 L44.1063194,60.8938607 C42.831162,63.6636139 42.12,66.7466344 42.12,69.9957557 C42.12,73.3850073 42.8938277,76.5935217 44.2744423,79.4542581 C45.0959759,76.3891094 46.3672472,73.180162 48.1853618,69.9982627 C47.69945,69.3449421 47.4106667,68.5341955 47.4106667,67.656 C47.4106667,66.9058393 47.6213831,66.204894 47.9868556,65.6091245 C46.5178536,64.0302012 45.2499162,62.3931289 44.1732254,60.7504055 Z M72.0187532,77.5341106 L71.9833732,77.5566504 L72.0164016,77.5589932 C72.0171596,77.5506915 72.0179435,77.5423973 72.0187532,77.5341106 Z M76.2785446,52.0556278 L76.8570263,51.9098324 C73.5162854,52.7258272 70.4581919,53.7952153 67.6684701,55.0950666 C67.8403611,55.534469 67.9333333,56.0110437 67.9333333,56.5093333 C67.9333333,56.9241841 67.8688907,57.3239836 67.7494697,57.6992672 C68.302525,58.3388474 68.8445701,59.0040071 69.3728218,59.6949032 C72.5869304,63.8986096 74.9556481,68.6660579 76.3183498,74.0196279 C77.4151324,74.1305315 78.3788823,74.6936834 79.0195822,75.519908 C80.9957364,75.4247302 83.0413393,75.2021316 85.1558147,74.846506 C85.5109971,73.2858926 85.6981818,71.6626839 85.6981818,69.9957557 C85.6981818,62.5558149 81.9693256,55.9867952 76.2785446,52.0556278 Z M60.9852563,58.9989172 C58.4752939,60.8088488 56.2620699,62.8625524 54.32719,65.1312117 C54.9045252,65.8139224 55.2506667,66.6945384 55.2506667,67.656 C55.2506667,68.0741294 55.1852014,68.4769685 55.0639614,68.8548268 C55.6093424,69.2450632 56.174436,69.6258893 56.7576172,69.9953117 C61.4508193,72.9682715 66.8202802,74.8472161 72.9166881,75.4026511 C73.2465473,75.0077107 73.6525886,74.6801805 74.1119552,74.4409615 C72.820931,69.4351988 70.5982868,64.9855796 67.5933601,61.0554604 C67.2110235,60.5554056 66.8209303,60.0695121 66.4240345,59.5976162 C65.759487,60.119781 64.9225601,60.4293333 64.0133333,60.4293333 C62.7937292,60.4293333 61.7042111,59.8723689 60.9852563,58.9989172 Z M54.8311066,50.1819936 C50.9311023,51.971769 47.650555,54.8791404 45.399512,58.4940604 L45.1393754,58.0558269 C46.3241747,60.0894508 47.8234572,62.1477611 49.6544741,64.112609 C50.1623418,63.8707555 50.7307673,63.736 51.3306667,63.736 C51.715863,63.736 52.0880829,63.791559 52.4397498,63.8951004 C54.6432332,61.272742 57.1938553,58.9180437 60.109826,56.8713113 C60.0989112,56.7521321 60.0933333,56.6313841 60.0933333,56.5093333 C60.0933333,55.6315886 60.3818203,54.8212237 60.86915,54.1678826 C58.9379811,52.6155981 56.9552923,51.322466 55.0036912,50.2732486 Z M63.9090909,48.2066648 C61.7000847,48.2066648 59.5678559,48.5353882 57.5586535,49.1465859 C59.297068,50.1796156 61.0414685,51.3950076 62.742755,52.8018054 C63.140727,52.6634701 63.5683724,52.5893333 64.0133333,52.5893333 C64.844206,52.5893333 65.6147031,52.8478322 66.2487882,53.2887938 C68.5255079,52.1963252 70.9728907,51.2533239 73.5962832,50.4721171 C70.6791063,49.0226254 67.3893875,48.2066648 63.9090909,48.2066648 Z"/>
  </g>
</svg>
