<svg xmlns="http://www.w3.org/2000/svg" xmlns:xlink="http://www.w3.org/1999/xlink" width="128" height="128" viewBox="0 0 128 128">
  <defs>
    <linearGradient id="text-plain-a" x1="50%" x2="50%" y1=".948%" y2="99.038%">
      <stop offset="0%" stop-color="#BCBECB"/>
      <stop offset="100%" stop-color="#A9A9B0"/>
    </linearGradient>
    <linearGradient id="text-plain-d" x1="50%" x2="10.489%" y1="50%" y2="91.194%">
      <stop offset="0%" stop-color="#FFF" stop-opacity=".1"/>
      <stop offset="100%" stop-color="#FFF" stop-opacity=".3"/>
    </linearGradient>
    <path id="text-plain-c" d="M58,0 L84,26 L67,26 C62.0294373,26 58,21.9705627 58,17 L58,0 L58,0 Z"/>
    <filter id="text-plain-b" width="188.5%" height="188.5%" x="-44.2%" y="-36.5%" filterUnits="objectBoundingBox">
      <feOffset dy="2" in="SourceAlpha" result="shadowOffsetOuter1"/>
      <feGaussianBlur in="shadowOffsetOuter1" result="shadowBlurOuter1" stdDeviation="3.5"/>
      <feComposite in="shadowBlurOuter1" in2="SourceAlpha" operator="out" result="shadowBlurOuter1"/>
      <feColorMatrix in="shadowBlurOuter1" values="0 0 0 0 0   0 0 0 0 0   0 0 0 0 0  0 0 0 0.05 0"/>
    </filter>
  </defs>
  <g fill="none" fill-rule="evenodd">
    <g transform="translate(22 14)">
      <path fill="url(#text-plain-a)" d="M84,95 C84,99.9705627 79.9705627,104 75,104 L9,104 C4.02943725,104 6.08718376e-16,99.9705627 0,95 L0,9 C-6.08718376e-16,4.02943725 4.02943725,9.13077564e-16 9,0 L58,0 L84,26 L84,95 Z"/>
      <use fill="#000" filter="url(#text-plain-b)" xlink:href="#text-plain-c"/>
      <use fill="url(#text-plain-d)" xlink:href="#text-plain-c"/>
    </g>
    <path fill="#4E59BA" d="M92,50 L92,52 L36,52 L36,50 L92,50 Z M92,60 L92,62 L36,62 L36,60 L92,60 Z M92,70 L92,72 L36,72 L36,70 L92,70 Z M92,80 L92,82 L36,82 L36,80 L92,80 Z M92,90 L92,92 L36,92 L36,90 L92,90 Z"/>
  </g>
</svg>
