<svg xmlns="http://www.w3.org/2000/svg" xmlns:xlink="http://www.w3.org/1999/xlink" width="128" height="128" viewBox="0 0 128 128">
  <defs>
    <linearGradient id="text-x-po-c" x1="50%" x2="50%" y1="0%" y2="100%">
      <stop offset="0%" stop-color="#3E77DA"/>
      <stop offset="100%" stop-color="#2762CC"/>
    </linearGradient>
    <path id="text-x-po-b" d="M84,95 C84,99.9705627 79.9705627,104 75,104 L9,104 C4.02943725,104 6.08718376e-16,99.9705627 0,95 L0,9 C-6.08718376e-16,4.02943725 4.02943725,9.13077564e-16 9,0 L58,0 L84,26 L84,95 Z"/>
    <filter id="text-x-po-a" width="123.8%" height="119.2%" x="-11.9%" y="-7.7%" filterUnits="objectBoundingBox">
      <feOffset dy="2" in="SourceAlpha" result="shadowOffsetOuter1"/>
      <feGaussianBlur in="shadowOffsetOuter1" result="shadowBlurOuter1" stdDeviation="3"/>
      <feColorMatrix in="shadowBlurOuter1" values="0 0 0 0 0.22745098   0 0 0 0 0.494117647   0 0 0 0 0.960784314  0 0 0 0.2 0"/>
    </filter>
    <linearGradient id="text-x-po-f" x1="50%" x2="10.489%" y1="50%" y2="91.194%">
      <stop offset="0%" stop-color="#FFF" stop-opacity=".1"/>
      <stop offset="100%" stop-color="#FFF" stop-opacity=".3"/>
    </linearGradient>
    <path id="text-x-po-e" d="M58,0 L84,26 L67,26 C62.0294373,26 58,21.9705627 58,17 L58,0 L58,0 Z"/>
    <filter id="text-x-po-d" width="188.5%" height="188.5%" x="-44.2%" y="-36.5%" filterUnits="objectBoundingBox">
      <feOffset dy="2" in="SourceAlpha" result="shadowOffsetOuter1"/>
      <feGaussianBlur in="shadowOffsetOuter1" result="shadowBlurOuter1" stdDeviation="3.5"/>
      <feComposite in="shadowBlurOuter1" in2="SourceAlpha" operator="out" result="shadowBlurOuter1"/>
      <feColorMatrix in="shadowBlurOuter1" values="0 0 0 0 0   0 0 0 0 0   0 0 0 0 0  0 0 0 0.05 0"/>
    </filter>
  </defs>
  <g fill="none" fill-rule="evenodd">
    <g transform="translate(22 14)">
      <use fill="#000" filter="url(#text-x-po-a)" xlink:href="#text-x-po-b"/>
      <use fill="url(#text-x-po-c)" xlink:href="#text-x-po-b"/>
      <use fill="#000" filter="url(#text-x-po-d)" xlink:href="#text-x-po-e"/>
      <use fill="url(#text-x-po-f)" xlink:href="#text-x-po-e"/>
    </g>
    <polygon fill="#FFF" fill-opacity=".6" points="44 94 46 94 46 76 84 76 84 48 46 48 46 46 44 46"/>
  </g>
</svg>
