<svg xmlns="http://www.w3.org/2000/svg" xmlns:xlink="http://www.w3.org/1999/xlink" width="48" height="48" viewBox="0 0 48 48">
  <defs>
    <filter id="android-device-a" width="146.4%" height="129.5%" x="-23.2%" y="-14.8%" filterUnits="objectBoundingBox">
      <feOffset dy="1" in="SourceAlpha" result="shadowOffsetOuter1"/>
      <feGaussianBlur in="shadowOffsetOuter1" result="shadowBlurOuter1" stdDeviation="1"/>
      <feColorMatrix in="shadowBlurOuter1" result="shadowMatrixOuter1" values="0 0 0 0 0   0 0 0 0 0   0 0 0 0 0  0 0 0 0.2 0"/>
      <feMerge>
        <feMergeNode in="shadowMatrixOuter1"/>
        <feMergeNode in="SourceGraphic"/>
      </feMerge>
    </filter>
    <linearGradient id="android-device-b" x1="50%" x2="50%" y1="0%" y2="100%">
      <stop offset="0%" stop-color="#F7EBDE"/>
      <stop offset="100%" stop-color="#DBCBBA"/>
    </linearGradient>
    <path id="android-device-c" d="M2,3.25810242 C2,2.01098689 3.00069462,1 4.25786172,1 L23.7421381,1 C24.9891207,1 25.9999998,2.00706541 25.9999998,3.25810242 L26,40.7418976 C26,41.9890131 24.9993054,43 23.7421383,43 L4.25786173,43 C3.01087913,43 2,41.9929346 2,40.7418976 L2,3.25810242 Z"/>
    <filter id="android-device-d" width="104.2%" height="102.4%" x="-2.1%" y="-1.2%" filterUnits="objectBoundingBox">
      <feOffset dy="1" in="SourceAlpha" result="shadowOffsetInner1"/>
      <feComposite in="shadowOffsetInner1" in2="SourceAlpha" k2="-1" k3="1" operator="arithmetic" result="shadowInnerInner1"/>
      <feColorMatrix in="shadowInnerInner1" values="0 0 0 0 1   0 0 0 0 1   0 0 0 0 1  0 0 0 1 0"/>
    </filter>
    <linearGradient id="android-device-e" x1="50%" x2="50%" y1=".612%" y2="100%">
      <stop offset="0%" stop-opacity=".191"/>
      <stop offset="100%" stop-opacity=".459"/>
    </linearGradient>
    <radialGradient id="android-device-f" cx="50%" cy="8.854%" r="154.948%" fx="50%" fy="8.854%" gradientTransform="matrix(0 .58823 -1.64483 0 .646 -.206)">
      <stop offset="0%" stop-color="#5D5D5D"/>
      <stop offset="100%" stop-color="#343434"/>
    </radialGradient>
    <linearGradient id="android-device-g" x1="50%" x2="50%" y1="0%" y2="100%">
      <stop offset="0%" stop-opacity=".449"/>
      <stop offset="100%" stop-opacity=".526"/>
    </linearGradient>
    <circle id="android-device-h" cx="17.5" cy="3.5" r="1"/>
    <filter id="android-device-i" width="300%" height="300%" x="-100%" y="-100%" filterUnits="objectBoundingBox">
      <feGaussianBlur in="SourceAlpha" result="shadowBlurInner1" stdDeviation=".5"/>
      <feOffset dy="1" in="shadowBlurInner1" result="shadowOffsetInner1"/>
      <feComposite in="shadowOffsetInner1" in2="SourceAlpha" k2="-1" k3="1" operator="arithmetic" result="shadowInnerInner1"/>
      <feColorMatrix in="shadowInnerInner1" values="0 0 0 0 1   0 0 0 0 1   0 0 0 0 1  0 0 0 0.0361396416 0"/>
    </filter>
    <linearGradient id="android-device-j" x1="100%" x2="100%" y1="0%" y2="100%">
      <stop offset="0%" stop-color="#CFCFCF"/>
      <stop offset="100%" stop-color="#BABABA"/>
    </linearGradient>
  </defs>
  <g fill="none" fill-rule="evenodd" filter="url(#android-device-a)" transform="translate(10 2)">
    <use fill="url(#android-device-b)" xlink:href="#android-device-c"/>
    <use fill="#000" filter="url(#android-device-d)" xlink:href="#android-device-c"/>
    <path fill="url(#android-device-e)" fill-rule="nonzero" d="M23.7421381,0 L4.25786172,0 C2.4512036,0 1,1.45589447 1,3.25810242 L1,40.7418976 C1,42.5441099 2.45748321,44 4.25786173,44 L23.7421383,44 C25.5487964,44 27,42.5441055 27,40.7418976 L27,3.25810241 C27,1.45589005 25.5425166,0 23.7421381,0 Z M23.7421381,1 C24.9891207,1 26,2.00706541 26,3.25810242 L26,40.7418976 C26,41.9890131 24.9993054,43 23.7421383,43 L4.25786173,43 C3.01087913,43 2,41.9929346 2,40.7418976 L2,3.25810242 C2,2.01098689 3.00069462,1 4.25786172,1 L23.7421381,1 Z"/>
    <path fill="#8A837B" fill-rule="nonzero" d="M12.5 3L15.5 3C15.7761424 3 16 3.22385763 16 3.5 16 3.77614237 15.7761424 4 15.5 4L12.5 4C12.2238576 4 12 3.77614237 12 3.5 12 3.22385763 12.2238576 3 12.5 3zM10.5 3C10.7761424 3 11 3.22385763 11 3.5 11 3.77614237 10.7761424 4 10.5 4 10.2238576 4 10 3.77614237 10 3.5 10 3.22385763 10.2238576 3 10.5 3z"/>
    <polygon fill="url(#android-device-f)" points="4 5 24 5 24 39 4 39"/>
    <path fill="url(#android-device-g)" fill-rule="nonzero" d="M24,5 L24,39 L4,39 L4,5 L24,5 Z M23,5.999 L5,5.999 L5,37.999 L23,37.999 L23,5.999 Z"/>
    <use fill="#232323" fill-opacity=".963" xlink:href="#android-device-h"/>
    <use fill="#000" filter="url(#android-device-i)" xlink:href="#android-device-h"/>
    <circle cx="17.5" cy="3.5" r="1"/>
    <path fill="url(#android-device-j)" d="M.5 9L1 9 1 9 1 13 .5 13C.223857625 13 3.38176876e-17 12.7761424 0 12.5L0 9.5C-3.38176876e-17 9.22385763.223857625 9 .5 9zM.5 14L1 14 1 14 1 18 .5 18C.223857625 18 3.38176876e-17 17.7761424 0 17.5L0 14.5C-3.38176876e-17 14.2238576.223857625 14 .5 14zM27 16L27.5 16C27.7761424 16 28 16.2238576 28 16.5L28 19.5C28 19.7761424 27.7761424 20 27.5 20L27 20 27 20 27 16z"/>
  </g>
</svg>
