<svg xmlns="http://www.w3.org/2000/svg" xmlns:xlink="http://www.w3.org/1999/xlink" width="48" height="48" viewBox="0 0 48 48">
  <defs>
    <filter id="drive-harddisk-a" width="133.3%" height="131.7%" x="-16.7%" y="-15.9%" filterUnits="objectBoundingBox">
      <feOffset dy="1" in="SourceAlpha" result="shadowOffsetOuter1"/>
      <feGaussianBlur in="shadowOffsetOuter1" result="shadowBlurOuter1" stdDeviation="1"/>
      <feColorMatrix in="shadowBlurOuter1" result="shadowMatrixOuter1" values="0 0 0 0 0   0 0 0 0 0   0 0 0 0 0  0 0 0 0.2 0"/>
      <feMerge>
        <feMergeNode in="shadowMatrixOuter1"/>
        <feMergeNode in="SourceGraphic"/>
      </feMerge>
    </filter>
    <linearGradient id="drive-harddisk-b" x1="-5.578%" x2="95.89%" y1="40.232%" y2="40.232%">
      <stop offset="0%" stop-color="#2D8A94"/>
      <stop offset="29.932%" stop-color="#81D7C6"/>
      <stop offset="83.27%" stop-color="#5FD0C3"/>
      <stop offset="92.574%" stop-color="#44BDAB"/>
      <stop offset="100%" stop-color="#0C857D"/>
    </linearGradient>
    <linearGradient id="drive-harddisk-d" x1="128.548%" x2="3.376%" y1="32.065%" y2="32.065%">
      <stop offset="0%" stop-color="#B2F1EE" stop-opacity="0"/>
      <stop offset="87.281%" stop-color="#B3F2EF" stop-opacity=".452"/>
      <stop offset="93.737%" stop-color="#77CACC" stop-opacity=".467"/>
      <stop offset="100%" stop-color="#0C767F" stop-opacity=".5"/>
    </linearGradient>
    <path id="drive-harddisk-c" d="M5.72769417,1.125 L33.0223058,1.125 C33.9984885,1.125 34.8113526,1.87400294 34.891047,2.84692708 L37.249824,31.6432929 C37.3332398,32.6616475 37.375,33.682986 37.375,34.7047513 L37.375,36.78125 C37.375,38.0756674 36.3256674,39.125 35.03125,39.125 L3.71875,39.125 C2.42433262,39.125 1.375,38.0756674 1.375,36.78125 L1.375,34.7047513 C1.375,33.682986 1.41676017,32.6616475 1.50017595,31.6432929 L3.85895297,2.84692708 C3.93864743,1.87400294 4.7515115,1.125 5.72769417,1.125 Z"/>
    <linearGradient id="drive-harddisk-e" x1="50%" x2="50%" y1="2.631%" y2="100%">
      <stop offset="0%" stop-color="#00473E" stop-opacity=".508"/>
      <stop offset="100%" stop-color="#003428" stop-opacity=".62"/>
    </linearGradient>
    <linearGradient id="drive-harddisk-f" x1="50%" x2="2.738%" y1="49.672%" y2="49.798%">
      <stop offset="0%" stop-color="#FCFDFC"/>
      <stop offset="81.318%" stop-color="#FFF"/>
      <stop offset="100%" stop-color="#BDC6C4"/>
    </linearGradient>
    <linearGradient id="drive-harddisk-h" x1="99.734%" x2="73.708%" y1="100%" y2="100%">
      <stop offset="0%" stop-color="#A5B0AC"/>
      <stop offset="41.965%" stop-color="#E8F6EE" stop-opacity=".314"/>
      <stop offset="100%" stop-color="#CBCFCD" stop-opacity=".397"/>
    </linearGradient>
    <path id="drive-harddisk-g" d="M5.70724954,1.125 L33.0290259,1.125 C34.0024123,1.125 34.8139254,1.86984959 34.8971585,2.83967091 L34.96698,3.65322107 L34.96698,3.65322107 C34.5223872,3.31072941 33.9769483,3.125 33.4157324,3.125 L5.43736265,3.125 C4.83815364,3.125 4.25346374,3.30942201 3.76269531,3.65322107 L3.76269531,3.65322107 L3.76269531,3.65322107 L3.84045487,2.82477833 C3.93088337,1.86136185 4.73959846,1.125 5.70724954,1.125 Z"/>
    <linearGradient id="drive-harddisk-i" x1="44.527%" x2="0%" y1="48.439%" y2="47.758%">
      <stop offset="0%" stop-color="#FEFEFE"/>
      <stop offset="77.706%" stop-color="#D8D8D8"/>
      <stop offset="100%" stop-color="#A2AEA8"/>
    </linearGradient>
    <linearGradient id="drive-harddisk-k" x1="100%" x2="74.044%" y1="100%" y2="100%">
      <stop offset="0%" stop-color="#AAB0AD"/>
      <stop offset="32.662%" stop-color="#E9F1F0" stop-opacity=".314"/>
      <stop offset="100%" stop-color="#F1FAF6" stop-opacity=".233"/>
    </linearGradient>
    <path id="drive-harddisk-j" d="M37.1097502,30.8188959 L37.216534,31.9169557 C37.3221159,33.0026556 37.375,34.0928358 37.375,35.1836574 L37.375,36.78125 C37.375,38.0756674 36.3256674,39.125 35.03125,39.125 L3.71875,39.125 C2.42433262,39.125 1.375,38.0756674 1.375,36.78125 L1.375,35.187136 C1.375,34.0939995 1.42810876,33.0015083 1.53413848,31.9135261 L1.64016398,30.8255871 C1.7337585,29.8652037 2.5409718,29.1326694 3.50590497,29.1324543 L35.2431359,29.1253794 C36.2085369,29.1251642 37.0163079,29.8580277 37.1097502,30.8188959 Z"/>
    <linearGradient id="drive-harddisk-l" x1="50%" x2="50%" y1="-20.244%" y2="100%">
      <stop offset="0%" stop-opacity=".18"/>
      <stop offset="100%" stop-opacity=".467"/>
    </linearGradient>
    <linearGradient id="drive-harddisk-m" x1="100%" x2="0%" y1="50%" y2="51.389%">
      <stop offset="0%" stop-color="#E3E3E3"/>
      <stop offset="68.204%" stop-color="#C1BFC1"/>
      <stop offset="100%" stop-color="#CBCBCB"/>
    </linearGradient>
    <linearGradient id="drive-harddisk-o" x1="50%" x2="50%" y1="0%" y2="100%">
      <stop offset="0%" stop-color="#FFF" stop-opacity=".5"/>
      <stop offset="100%" stop-opacity=".326"/>
    </linearGradient>
    <linearGradient id="drive-harddisk-q" x1="50%" x2="50%" y1="-13.675%" y2="100%">
      <stop offset="0%" stop-opacity="0"/>
      <stop offset="100%" stop-opacity=".111"/>
    </linearGradient>
    <path id="drive-harddisk-n" d="M2.78125,33.125 L35.96875,33.125 C36.7454004,33.125 37.375,33.7545996 37.375,34.53125 L37.375,36.78125 C37.375,38.0756674 36.3256674,39.125 35.03125,39.125 L3.71875,39.125 C2.42433262,39.125 1.375,38.0756674 1.375,36.78125 L1.375,34.53125 C1.375,33.7545996 2.00459957,33.125 2.78125,33.125 Z"/>
    <filter id="drive-harddisk-p" width="108.3%" height="150%" x="-4.2%" y="-25%" filterUnits="objectBoundingBox">
      <feOffset dy="1" in="SourceAlpha" result="shadowOffsetInner1"/>
      <feComposite in="shadowOffsetInner1" in2="SourceAlpha" k2="-1" k3="1" operator="arithmetic" result="shadowInnerInner1"/>
      <feColorMatrix in="shadowInnerInner1" values="0 0 0 0 1   0 0 0 0 1   0 0 0 0 1  0 0 0 1 0"/>
    </filter>
    <radialGradient id="drive-harddisk-r" cx="54.402%" cy="50%" r="50%" fx="54.402%" fy="50%" gradientTransform="matrix(0 1 -1.14403 0 1.116 -.044)">
      <stop offset="0%" stop-color="#4A5D00" stop-opacity=".477"/>
      <stop offset="100%" stop-color="#465900" stop-opacity=".693"/>
    </radialGradient>
    <radialGradient id="drive-harddisk-s" cx="50%" cy="39.587%" r="60.364%" fx="50%" fy="39.587%" gradientTransform="matrix(0 1 -.75 0 .797 -.104)">
      <stop offset="0%" stop-color="#F4EF6B"/>
      <stop offset="99.921%" stop-color="#9BD918"/>
    </radialGradient>
  </defs>
  <g fill="none" fill-rule="evenodd" filter="url(#drive-harddisk-a)" transform="translate(4.625 3.875)">
    <use fill="url(#drive-harddisk-b)" xlink:href="#drive-harddisk-c"/>
    <use fill="url(#drive-harddisk-d)" fill-opacity=".8" xlink:href="#drive-harddisk-c"/>
    <path fill="url(#drive-harddisk-e)" fill-rule="nonzero" d="M33.0223058,0.125 L5.72769417,0.125 C4.23088075,0.125 2.98448918,1.27347117 2.86229099,2.76528819 L0.503513979,31.561654 C0.417873771,32.6071648 0.375,33.6557389 0.375,34.7047513 L0.375,36.78125 C0.375,38.6279521 1.87204787,40.125 3.71875,40.125 L35.03125,40.125 C36.8779521,40.125 38.375,38.6279521 38.375,36.78125 L38.375,34.7047513 C38.375,33.6557389 38.3321262,32.6071648 38.246486,31.561654 L35.887709,2.76528819 C35.7655108,1.27347117 34.5191192,0.125 33.0223058,0.125 Z M33.0223058,1.125 C33.9984885,1.125 34.8113526,1.87400294 34.891047,2.84692708 L37.249824,31.6432929 C37.3332398,32.6616475 37.375,33.682986 37.375,34.7047513 L37.375,36.78125 C37.375,38.0756674 36.3256674,39.125 35.03125,39.125 L3.71875,39.125 C2.42433262,39.125 1.375,38.0756674 1.375,36.78125 L1.375,34.7047513 C1.375,33.682986 1.41676017,32.6616475 1.50017595,31.6432929 L3.85895297,2.84692708 C3.93864743,1.87400294 4.7515115,1.125 5.72769417,1.125 L33.0223058,1.125 Z"/>
    <use fill="url(#drive-harddisk-f)" xlink:href="#drive-harddisk-g"/>
    <use fill="url(#drive-harddisk-h)" xlink:href="#drive-harddisk-g"/>
    <use fill="url(#drive-harddisk-i)" xlink:href="#drive-harddisk-j"/>
    <use fill="url(#drive-harddisk-k)" xlink:href="#drive-harddisk-j"/>
    <path fill="url(#drive-harddisk-l)" fill-rule="nonzero" d="M35.2429129,28.1253793 L3.50568205,28.1324544 C2.02611785,28.1327842 0.788390784,29.2560034 0.644879193,30.7285912 L0.538853689,31.8165303 C0.429682356,32.936749 0.375,34.0616102 0.375,35.187136 L0.375,36.78125 C0.375,38.6279521 1.87204787,40.125 3.71875,40.125 L35.03125,40.125 C36.8779521,40.125 38.375,38.6279521 38.375,36.78125 L38.375,35.1836574 C38.375,34.0605152 38.320549,32.9380333 38.2118388,31.8201645 L38.1050549,30.7221047 C37.9617767,29.2487734 36.7231946,28.1250494 35.2429129,28.1253793 Z M35.2431359,29.1253793 C36.2085369,29.1251642 37.0163079,29.8580277 37.1097502,30.8188959 L37.216534,31.9169557 C37.3221159,33.0026556 37.375,34.0928358 37.375,35.1836574 L37.375,36.78125 C37.375,38.0756674 36.3256674,39.125 35.03125,39.125 L3.71875,39.125 C2.42433262,39.125 1.375,38.0756674 1.375,36.78125 L1.375,35.187136 C1.375,34.0939995 1.42810876,33.0015083 1.53413848,31.9135261 L1.64016398,30.8255871 C1.7337585,29.8652037 2.5409718,29.1326694 3.50590497,29.1324543 L35.2431359,29.1253793 Z"/>
    <use fill="url(#drive-harddisk-m)" fill-opacity=".6" xlink:href="#drive-harddisk-n"/>
    <use fill="url(#drive-harddisk-o)" xlink:href="#drive-harddisk-n"/>
    <use fill="#000" filter="url(#drive-harddisk-p)" xlink:href="#drive-harddisk-n"/>
    <path stroke="url(#drive-harddisk-q)" d="M35.96875,32.625 C36.4951464,32.625 36.9717089,32.8383643 37.3166723,33.1833277 C37.6616357,33.5282911 37.875,34.0048536 37.875,34.53125 L37.875,34.53125 L37.875,36.78125 C37.875,37.5665299 37.5567024,38.2774674 37.0420849,38.7920849 C36.5274674,39.3067024 35.8165299,39.625 35.03125,39.625 L35.03125,39.625 L3.71875,39.625 C2.93347012,39.625 2.22253262,39.3067024 1.70791509,38.7920849 C1.19329756,38.2774674 0.875,37.5665299 0.875,36.78125 L0.875,36.78125 L0.875,34.53125 C0.875,34.0048536 1.0883643,33.5282911 1.4333277,33.1833277 C1.7782911,32.8383643 2.2548536,32.625 2.78125,32.625 L2.78125,32.625 Z"/>
    <path fill="url(#drive-harddisk-r)" d="M31.375,38.5 C32.4105339,38.5 33.25,37.8284271 33.25,37 C33.25,36.1715729 32.4105339,35.5 31.375,35.5 C30.3394661,35.5 29.5,36.1715729 29.5,37 C29.5,37.8284271 30.3394661,38.5 31.375,38.5 Z"/>
    <ellipse cx="31.375" cy="36.625" fill="url(#drive-harddisk-s)" rx="1.5" ry="1.125"/>
  </g>
</svg>
