<svg xmlns="http://www.w3.org/2000/svg" xmlns:xlink="http://www.w3.org/1999/xlink" width="48" height="48" viewBox="0 0 48 48">
  <defs>
    <filter id="drive-removable-media-usb-a" width="133.3%" height="131.7%" x="-16.7%" y="-15.9%" filterUnits="objectBoundingBox">
      <feOffset dy="1" in="SourceAlpha" result="shadowOffsetOuter1"/>
      <feGaussianBlur in="shadowOffsetOuter1" result="shadowBlurOuter1" stdDeviation="1"/>
      <feColorMatrix in="shadowBlurOuter1" result="shadowMatrixOuter1" values="0 0 0 0 0   0 0 0 0 0   0 0 0 0 0  0 0 0 0.2 0"/>
      <feMerge>
        <feMergeNode in="shadowMatrixOuter1"/>
        <feMergeNode in="SourceGraphic"/>
      </feMerge>
    </filter>
    <linearGradient id="drive-removable-media-usb-b" x1="2.924%" x2="95.934%" y1="40.22%" y2="40.22%">
      <stop offset="0%" stop-color="#D95D5D"/>
      <stop offset="32.671%" stop-color="#D86D6D"/>
      <stop offset="84.578%" stop-color="#DA5656"/>
      <stop offset="93.38%" stop-color="#BB3737"/>
      <stop offset="100%" stop-color="#7F0000"/>
    </linearGradient>
    <linearGradient id="drive-removable-media-usb-d" x1="125.69%" x2="3.54%" y1="32.745%" y2="32.745%">
      <stop offset="0%" stop-color="#FFF" stop-opacity="0"/>
      <stop offset="90.113%" stop-color="#FFBABA" stop-opacity=".452"/>
      <stop offset="94.27%" stop-color="#E27A7A" stop-opacity=".467"/>
      <stop offset="100%" stop-color="#A12727" stop-opacity=".5"/>
    </linearGradient>
    <linearGradient id="drive-removable-media-usb-e" x1="60.172%" x2="54.797%" y1="63.963%" y2="34.947%">
      <stop offset="0%" stop-color="#FFF" stop-opacity=".207"/>
      <stop offset="100%" stop-color="#FFF" stop-opacity="0"/>
    </linearGradient>
    <path id="drive-removable-media-usb-c" d="M5.72769417,1.125 L33.0223058,1.125 C33.9984885,1.125 34.8113526,1.87400294 34.891047,2.84692708 L37.249824,31.6432929 C37.3332398,32.6616475 37.375,33.682986 37.375,34.7047513 L37.375,36.78125 C37.375,38.0756674 36.3256674,39.125 35.03125,39.125 L3.71875,39.125 C2.42433262,39.125 1.375,38.0756674 1.375,36.78125 L1.375,34.7047513 C1.375,33.682986 1.41676017,32.6616475 1.50017595,31.6432929 L3.85895297,2.84692708 C3.93864743,1.87400294 4.7515115,1.125 5.72769417,1.125 Z"/>
    <linearGradient id="drive-removable-media-usb-f" x1="50%" x2="50%" y1="2.631%" y2="100%">
      <stop offset="0%" stop-color="#470000" stop-opacity=".508"/>
      <stop offset="100%" stop-color="#340000" stop-opacity=".62"/>
    </linearGradient>
    <linearGradient id="drive-removable-media-usb-g" x1="50%" x2="2.738%" y1="49.672%" y2="49.798%">
      <stop offset="0%" stop-color="#FCFCFD"/>
      <stop offset="81.699%" stop-color="#FFF"/>
      <stop offset="100%" stop-color="#C3AFB2"/>
    </linearGradient>
    <linearGradient id="drive-removable-media-usb-i" x1="100%" x2="73.708%" y1="100%" y2="100%">
      <stop offset="0%" stop-color="#AE8D93"/>
      <stop offset="41.965%" stop-color="#EFD3D5" stop-opacity=".314"/>
      <stop offset="100%" stop-color="#CCC1C1" stop-opacity=".397"/>
    </linearGradient>
    <path id="drive-removable-media-usb-h" d="M5.70724954,1.125 L33.0290259,1.125 C34.0024123,1.125 34.8139254,1.86984959 34.8971585,2.83967091 L34.96698,3.65322107 L34.96698,3.65322107 C34.5223872,3.31072941 33.9769483,3.125 33.4157324,3.125 L5.43736265,3.125 C4.83815364,3.125 4.25346374,3.30942201 3.76269531,3.65322107 L3.76269531,3.65322107 L3.76269531,3.65322107 L3.84045487,2.82477833 C3.93088337,1.86136185 4.73959846,1.125 5.70724954,1.125 Z"/>
    <linearGradient id="drive-removable-media-usb-l" x1="44.527%" x2="0%" y1="48.439%" y2="47.758%">
      <stop offset="0%" stop-color="#FEFEFE"/>
      <stop offset="77.706%" stop-color="#D8D8D8"/>
      <stop offset="100%" stop-color="#AB9699"/>
    </linearGradient>
    <linearGradient id="drive-removable-media-usb-m" x1="100%" x2="73.708%" y1="100%" y2="100%">
      <stop offset="0%" stop-color="#AB9699"/>
      <stop offset="32.662%" stop-color="#EDD5D6" stop-opacity=".314"/>
      <stop offset="100%" stop-color="#F6EAEA" stop-opacity=".233"/>
    </linearGradient>
    <path id="drive-removable-media-usb-k" d="M37.1097502,30.8188959 L37.216534,31.9169557 C37.3221159,33.0026556 37.375,34.0928358 37.375,35.1836574 L37.375,36.78125 C37.375,38.0756674 36.3256674,39.125 35.03125,39.125 L3.71875,39.125 C2.42433262,39.125 1.375,38.0756674 1.375,36.78125 L1.375,35.187136 C1.375,34.0939995 1.42810876,33.0015083 1.53413848,31.9135261 L1.64016398,30.8255871 C1.7337585,29.8652037 2.5409718,29.1326694 3.50590497,29.1324543 L35.2431359,29.1253794 C36.2085369,29.1251642 37.0163079,29.8580277 37.1097502,30.8188959 Z"/>
    <filter id="drive-removable-media-usb-j" width="102.8%" height="120%" x="-1.4%" y="-15%" filterUnits="objectBoundingBox">
      <feOffset dy="-1" in="SourceAlpha" result="shadowOffsetOuter1"/>
      <feColorMatrix in="shadowOffsetOuter1" values="0 0 0 0 1   0 0 0 0 1   0 0 0 0 1  0 0 0 0.160210883 0"/>
    </filter>
    <linearGradient id="drive-removable-media-usb-n" x1="50%" x2="50%" y1="-20.244%" y2="100%">
      <stop offset="0%" stop-opacity=".18"/>
      <stop offset="100%" stop-opacity=".467"/>
    </linearGradient>
    <linearGradient id="drive-removable-media-usb-o" x1="100%" x2="0%" y1="50%" y2="51.389%">
      <stop offset="0%" stop-color="#E3E3E3"/>
      <stop offset="68.204%" stop-color="#C1BFC1"/>
      <stop offset="100%" stop-color="#CBCBCB"/>
    </linearGradient>
    <linearGradient id="drive-removable-media-usb-q" x1="50%" x2="50%" y1="0%" y2="100%">
      <stop offset="0%" stop-color="#FFF" stop-opacity=".5"/>
      <stop offset="100%" stop-opacity=".326"/>
    </linearGradient>
    <linearGradient id="drive-removable-media-usb-s" x1="50%" x2="50%" y1="-13.675%" y2="100%">
      <stop offset="0%" stop-opacity="0"/>
      <stop offset="100%" stop-opacity=".111"/>
    </linearGradient>
    <path id="drive-removable-media-usb-p" d="M2.78125,33.125 L35.96875,33.125 C36.7454004,33.125 37.375,33.7545996 37.375,34.53125 L37.375,36.78125 C37.375,38.0756674 36.3256674,39.125 35.03125,39.125 L3.71875,39.125 C2.42433262,39.125 1.375,38.0756674 1.375,36.78125 L1.375,34.53125 C1.375,33.7545996 2.00459957,33.125 2.78125,33.125 Z"/>
    <filter id="drive-removable-media-usb-r" width="105.6%" height="133.3%" x="-2.8%" y="-16.7%" filterUnits="objectBoundingBox">
      <feOffset dy="1" in="SourceAlpha" result="shadowOffsetInner1"/>
      <feComposite in="shadowOffsetInner1" in2="SourceAlpha" k2="-1" k3="1" operator="arithmetic" result="shadowInnerInner1"/>
      <feColorMatrix in="shadowInnerInner1" values="0 0 0 0 1   0 0 0 0 1   0 0 0 0 1  0 0 0 1 0"/>
    </filter>
    <radialGradient id="drive-removable-media-usb-t" cx="50%" cy="22.082%" r="79.752%" fx="50%" fy="22.082%" gradientTransform="matrix(0 1 -.8 0 .677 -.28)">
      <stop offset="0%" stop-color="#760000" stop-opacity=".377"/>
      <stop offset="0%" stop-color="#760000" stop-opacity=".377"/>
      <stop offset="100%" stop-color="#530000" stop-opacity=".609"/>
    </radialGradient>
    <radialGradient id="drive-removable-media-usb-u" cx="50%" cy="41.549%" r="58.354%" fx="50%" fy="41.549%" gradientTransform="matrix(0 1 -.75 0 .812 -.085)">
      <stop offset="0%" stop-color="#F2CC8E"/>
      <stop offset="99.921%" stop-color="#D8723A"/>
    </radialGradient>
    <path id="drive-removable-media-usb-v" d="M24.0215019,9.3878125 L26.3080637,12.5210478 L24.4804375,12.5208125 L24.4804375,20.7798125 L27.4921285,18.9862364 C27.8360981,18.7074344 27.9154172,18.5491081 27.9278414,18.2211188 L27.9297764,18.1051072 L27.9294375,17.2208125 L26.765376,17.2209007 L26.765376,14.4793199 L29.9665625,14.4793199 L29.9665625,17.2209007 L28.7104375,17.2208125 L28.7110322,18.1594726 C28.7134435,19.0795807 28.0479293,19.4191077 28.0479293,19.4191077 L28.0479293,19.4191077 L24.4804375,21.6178125 L24.4809634,25.4851905 C25.4718042,25.6582958 26.2295005,26.3802113 26.3023225,27.2640636 L26.3080637,27.4039154 C26.3080637,28.4854392 25.2843351,29.3621875 24.0215019,29.3621875 C22.7586687,29.3621875 21.7349401,28.4854392 21.7349401,27.4039154 C21.7349401,26.4565713 22.5204077,25.6663435 23.5640197,25.4848454 L23.5634375,23.6358125 L20.3788427,21.7116848 C20.3788427,21.7116848 19.7133285,21.3783123 19.7133285,20.4776937 L19.7169454,20.4776937 L19.7161947,18.667121 C18.8981981,18.5228472 18.2834375,17.9062853 18.2834375,17.1675611 C18.2834375,16.321758 19.0893352,15.6360991 20.0834605,15.6360991 C21.0775858,15.6360991 21.8834835,16.321758 21.8834835,17.1675611 C21.8834835,17.8921485 21.2920269,18.4992044 20.4974616,18.6583217 L20.4969956,20.4233283 C20.4969956,20.8254268 20.5524551,20.9833941 20.9346435,21.2870195 L23.5634375,22.8228125 L23.5634375,12.5208125 L21.7349401,12.5210478 L24.0215019,9.3878125 Z"/>
    <filter id="drive-removable-media-usb-w" width="117.1%" height="110%" x="-8.6%" y="-5%" filterUnits="objectBoundingBox">
      <feGaussianBlur in="SourceAlpha" result="shadowBlurInner1" stdDeviation=".5"/>
      <feOffset dy="1" in="shadowBlurInner1" result="shadowOffsetInner1"/>
      <feComposite in="shadowOffsetInner1" in2="SourceAlpha" k2="-1" k3="1" operator="arithmetic" result="shadowInnerInner1"/>
      <feColorMatrix in="shadowInnerInner1" values="0 0 0 0 1   0 0 0 0 0.537451738   0 0 0 0 0.509984756  0 0 0 0.6504316 0"/>
    </filter>
  </defs>
  <g fill="none" fill-rule="evenodd">
    <g filter="url(#drive-removable-media-usb-a)" transform="translate(4.625 3.875)">
      <use fill="url(#drive-removable-media-usb-b)" xlink:href="#drive-removable-media-usb-c"/>
      <use fill="url(#drive-removable-media-usb-d)" xlink:href="#drive-removable-media-usb-c"/>
      <use fill="url(#drive-removable-media-usb-e)" xlink:href="#drive-removable-media-usb-c"/>
      <path fill="url(#drive-removable-media-usb-f)" fill-rule="nonzero" d="M33.0223058,0.125 L5.72769417,0.125 C4.23088075,0.125 2.98448918,1.27347117 2.86229099,2.76528819 L0.503513979,31.561654 C0.417873771,32.6071648 0.375,33.6557389 0.375,34.7047513 L0.375,36.78125 C0.375,38.6279521 1.87204787,40.125 3.71875,40.125 L35.03125,40.125 C36.8779521,40.125 38.375,38.6279521 38.375,36.78125 L38.375,34.7047513 C38.375,33.6557389 38.3321262,32.6071648 38.246486,31.561654 L35.887709,2.76528819 C35.7655108,1.27347117 34.5191192,0.125 33.0223058,0.125 Z M33.0223058,1.125 C33.9984885,1.125 34.8113526,1.87400294 34.891047,2.84692708 L37.249824,31.6432929 C37.3332398,32.6616475 37.375,33.682986 37.375,34.7047513 L37.375,36.78125 C37.375,38.0756674 36.3256674,39.125 35.03125,39.125 L3.71875,39.125 C2.42433262,39.125 1.375,38.0756674 1.375,36.78125 L1.375,34.7047513 C1.375,33.682986 1.41676017,32.6616475 1.50017595,31.6432929 L3.85895297,2.84692708 C3.93864743,1.87400294 4.7515115,1.125 5.72769417,1.125 L33.0223058,1.125 Z"/>
      <use fill="url(#drive-removable-media-usb-g)" xlink:href="#drive-removable-media-usb-h"/>
      <use fill="url(#drive-removable-media-usb-i)" xlink:href="#drive-removable-media-usb-h"/>
      <use fill="#000" filter="url(#drive-removable-media-usb-j)" xlink:href="#drive-removable-media-usb-k"/>
      <use fill="url(#drive-removable-media-usb-l)" xlink:href="#drive-removable-media-usb-k"/>
      <use fill="url(#drive-removable-media-usb-m)" xlink:href="#drive-removable-media-usb-k"/>
      <path fill="url(#drive-removable-media-usb-n)" fill-rule="nonzero" d="M35.2429129,28.1253793 L3.50568205,28.1324544 C2.02611785,28.1327842 0.788390784,29.2560034 0.644879193,30.7285912 L0.538853689,31.8165303 C0.429682356,32.936749 0.375,34.0616102 0.375,35.187136 L0.375,36.78125 C0.375,38.6279521 1.87204787,40.125 3.71875,40.125 L35.03125,40.125 C36.8779521,40.125 38.375,38.6279521 38.375,36.78125 L38.375,35.1836574 C38.375,34.0605152 38.320549,32.9380333 38.2118388,31.8201645 L38.1050549,30.7221047 C37.9617767,29.2487734 36.7231946,28.1250494 35.2429129,28.1253793 Z M35.2431359,29.1253793 C36.2085369,29.1251642 37.0163079,29.8580277 37.1097502,30.8188959 L37.216534,31.9169557 C37.3221159,33.0026556 37.375,34.0928358 37.375,35.1836574 L37.375,36.78125 C37.375,38.0756674 36.3256674,39.125 35.03125,39.125 L3.71875,39.125 C2.42433262,39.125 1.375,38.0756674 1.375,36.78125 L1.375,35.187136 C1.375,34.0939995 1.42810876,33.0015083 1.53413848,31.9135261 L1.64016398,30.8255871 C1.7337585,29.8652037 2.5409718,29.1326694 3.50590497,29.1324543 L35.2431359,29.1253793 Z"/>
      <use fill="url(#drive-removable-media-usb-o)" fill-opacity=".6" xlink:href="#drive-removable-media-usb-p"/>
      <use fill="url(#drive-removable-media-usb-q)" xlink:href="#drive-removable-media-usb-p"/>
      <use fill="#000" filter="url(#drive-removable-media-usb-r)" xlink:href="#drive-removable-media-usb-p"/>
      <path stroke="url(#drive-removable-media-usb-s)" stroke-width=".5" d="M35.96875,32.875 C36.4261108,32.875 36.8401733,33.0603821 37.1398956,33.3601044 C37.4396179,33.6598267 37.625,34.0738892 37.625,34.53125 L37.625,34.53125 L37.625,36.78125 C37.625,37.4974943 37.3346846,38.1459318 36.8653082,38.6153082 C36.3959318,39.0846846 35.7474943,39.375 35.03125,39.375 L35.03125,39.375 L3.71875,39.375 C3.00250572,39.375 2.35406822,39.0846846 1.88469179,38.6153082 C1.41531536,38.1459318 1.125,37.4974943 1.125,36.78125 L1.125,36.78125 L1.125,34.53125 C1.125,34.0738892 1.3103821,33.6598267 1.61010439,33.3601044 C1.90982669,33.0603821 2.32388919,32.875 2.78125,32.875 L2.78125,32.875 Z"/>
      <path fill="url(#drive-removable-media-usb-t)" d="M31.375,38.5 C32.4105339,38.5 33.25,37.8284271 33.25,37 C33.25,36.1715729 32.4105339,35.5 31.375,35.5 C30.3394661,35.5 29.5,36.1715729 29.5,37 C29.5,37.8284271 30.3394661,38.5 31.375,38.5 Z"/>
      <ellipse cx="31.375" cy="36.625" fill="url(#drive-removable-media-usb-u)" rx="1.5" ry="1.125"/>
    </g>
    <use fill="#FFF" xlink:href="#drive-removable-media-usb-v"/>
    <use fill="#000" filter="url(#drive-removable-media-usb-w)" xlink:href="#drive-removable-media-usb-v"/>
  </g>
</svg>
