<svg xmlns="http://www.w3.org/2000/svg" xmlns:xlink="http://www.w3.org/1999/xlink" width="48" height="48" viewBox="0 0 48 48">
  <defs>
    <filter id="drive-harddisk-linux-48px-a" width="138.2%" height="132.5%" x="-19.1%" y="-16.2%" filterUnits="objectBoundingBox">
      <feOffset dy="1" in="SourceAlpha" result="shadowOffsetOuter1"/>
      <feGaussianBlur in="shadowOffsetOuter1" result="shadowBlurOuter1" stdDeviation="1"/>
      <feComposite in="shadowBlurOuter1" in2="SourceAlpha" operator="out" result="shadowBlurOuter1"/>
      <feColorMatrix in="shadowBlurOuter1" result="shadowMatrixOuter1" values="0 0 0 0 0   0 0 0 0 0   0 0 0 0 0  0 0 0 0.2 0"/>
      <feMerge>
        <feMergeNode in="shadowMatrixOuter1"/>
        <feMergeNode in="SourceGraphic"/>
      </feMerge>
    </filter>
    <linearGradient id="drive-harddisk-linux-48px-b" x1="102.549%" x2="-2.652%" y1="57.682%" y2="57.682%">
      <stop offset="0%" stop-color="#0067BC"/>
      <stop offset="4.571%" stop-color="#30EA7F"/>
      <stop offset="9.931%" stop-color="#00D887"/>
      <stop offset="88.945%" stop-color="#00B160"/>
      <stop offset="93.793%" stop-color="#00C165"/>
      <stop offset="100%" stop-color="#008CBD"/>
    </linearGradient>
    <linearGradient id="drive-harddisk-linux-48px-c" x1="100%" x2="0%" y1="56.43%" y2="56.43%">
      <stop offset="0%" stop-color="#FFF" stop-opacity=".5"/>
      <stop offset="9.936%" stop-color="#FFF" stop-opacity=".9"/>
      <stop offset="52.356%" stop-color="#FFF" stop-opacity=".7"/>
      <stop offset="87.648%" stop-color="#FFF" stop-opacity=".9"/>
      <stop offset="100%" stop-color="#FFF" stop-opacity=".5"/>
    </linearGradient>
    <path id="drive-harddisk-linux-48px-d" d="M0,31.9999433 C0,29.7908356 1.79203193,28 4.00021236,28 L29.9997876,28 C32.2090439,28 34,29.7996535 34,31.9999433 L34,36.4903342 C34,36.7718148 33.7828827,37 33.4929861,37 L0.507013887,37 C0.226997849,37 0,36.7775269 0,36.4903342 L0,31.9999433 Z"/>
    <filter id="drive-harddisk-linux-48px-e" width="102.9%" height="111.1%" x="-1.5%" y="-5.6%" filterUnits="objectBoundingBox">
      <feMorphology in="SourceAlpha" radius="1" result="shadowSpreadInner1"/>
      <feOffset in="shadowSpreadInner1" result="shadowOffsetInner1"/>
      <feComposite in="shadowOffsetInner1" in2="SourceAlpha" k2="-1" k3="1" operator="arithmetic" result="shadowInnerInner1"/>
      <feColorMatrix in="shadowInnerInner1" values="0 0 0 0 1   0 0 0 0 1   0 0 0 0 1  0 0 0 0.5 0"/>
    </filter>
    <radialGradient id="drive-harddisk-linux-48px-f" cx="48.239%" cy="19.103%" r="78.654%" fx="48.239%" fy="19.103%" gradientTransform="matrix(0 1 -.7372 0 .623 -.291)">
      <stop offset="0%" stop-color="#7CFFFE"/>
      <stop offset="100%" stop-color="#D6CDE6"/>
    </radialGradient>
    <path id="drive-harddisk-linux-48px-g" d="M0,36.5 C0,34.5670034 1.57170124,33 3.49466128,33 L30.5053387,33 C32.4353869,33 34,34.5709366 34,36.5 L34,36.5 C34,38.4329966 32.4282988,40 30.5053387,40 L3.49466128,40 C1.56461315,40 0,38.4290634 0,36.5 L0,36.5 Z"/>
    <filter id="drive-harddisk-linux-48px-h" width="102.9%" height="114.3%" x="-1.5%" y="-7.1%" filterUnits="objectBoundingBox">
      <feMorphology in="SourceAlpha" radius="1" result="shadowSpreadInner1"/>
      <feOffset in="shadowSpreadInner1" result="shadowOffsetInner1"/>
      <feComposite in="shadowOffsetInner1" in2="SourceAlpha" k2="-1" k3="1" operator="arithmetic" result="shadowInnerInner1"/>
      <feColorMatrix in="shadowInnerInner1" values="0 0 0 0 0   0 0 0 0 0.239215686   0 0 0 0 0.611764706  0 0 0 0.2 0"/>
    </filter>
    <linearGradient id="drive-harddisk-linux-48px-i" x1="50%" x2="50%" y1="0%" y2="100%">
      <stop offset="0%" stop-color="#0174FF"/>
      <stop offset="50.85%" stop-color="#01C2FF"/>
      <stop offset="100%" stop-color="#0056FF"/>
    </linearGradient>
  </defs>
  <g fill="none" fill-rule="evenodd">
    <g filter="url(#drive-harddisk-linux-48px-a)" transform="translate(7 4)">
      <path fill="url(#drive-harddisk-linux-48px-b)" d="M0,6.00641141 C0,2.68916199 2.68211672,0 6.00025246,0 L27.9997475,0 C31.3135955,0 34,2.69075263 34,6.00641141 L34,34.9976004 C34,36.1034952 33.1080589,37 32.0000796,37 L1.9999204,37 C0.895394863,37 0,36.1037214 0,34.9976004 L0,6.00641141 Z"/>
      <use fill="url(#drive-harddisk-linux-48px-c)" xlink:href="#drive-harddisk-linux-48px-d"/>
      <use fill="#000" filter="url(#drive-harddisk-linux-48px-e)" xlink:href="#drive-harddisk-linux-48px-d"/>
      <use fill="url(#drive-harddisk-linux-48px-f)" xlink:href="#drive-harddisk-linux-48px-g"/>
      <use fill="#000" filter="url(#drive-harddisk-linux-48px-h)" xlink:href="#drive-harddisk-linux-48px-g"/>
      <path fill="url(#drive-harddisk-linux-48px-i)" d="M11,0 C11.2761424,0 11.5,0.215752602 11.5,0.495388985 L11.5,2.50461102 C11.5,2.74780727 11.3167438,2.95007308 11.0877486,2.99201862 L11,3 C10.7238576,3 10.5,2.7842474 10.5,2.50461102 L10.5,0.495388985 C10.5,0.252192734 10.6832562,0.0499269165 10.9122514,0.00798137978 L11,0 Z M9,0 C9.27614237,0 9.5,0.215752602 9.5,0.495388985 L9.5,2.50461102 C9.5,2.74780727 9.31674383,2.95007308 9.08774863,2.99201862 L9,3 C8.72385763,3 8.5,2.7842474 8.5,2.50461102 L8.5,0.495388985 C8.5,0.252192734 8.68325617,0.0499269165 8.91225137,0.00798137978 L9,0 Z M7,0 C7.27614237,0 7.5,0.215752602 7.5,0.495388985 L7.5,2.50461102 C7.5,2.74780727 7.31674383,2.95007308 7.08774863,2.99201862 L7,3 C6.72385763,3 6.5,2.7842474 6.5,2.50461102 L6.5,0.495388985 C6.5,0.252192734 6.68325617,0.0499269165 6.91225137,0.00798137978 L7,0 Z M5,0 C5.27614237,0 5.5,0.215752602 5.5,0.495388985 L5.5,2.50461102 C5.5,2.74780727 5.31674383,2.95007308 5.08774863,2.99201862 L5,3 C4.72385763,3 4.5,2.7842474 4.5,2.50461102 L4.5,0.495388985 C4.5,0.252192734 4.68325617,0.0499269165 4.91225137,0.00798137978 L5,0 Z M3,0 C3.27614237,0 3.5,0.215752602 3.5,0.495388985 L3.5,2.50461102 C3.5,2.74780727 3.31674383,2.95007308 3.08774863,2.99201862 L3,3 C2.72385763,3 2.5,2.7842474 2.5,2.50461102 L2.5,0.495388985 C2.5,0.252192734 2.68325617,0.0499269165 2.91225137,0.00798137978 L3,0 Z M1,0 C1.27614237,0 1.5,0.215752602 1.5,0.495388985 L1.5,2.50461102 C1.5,2.74780727 1.31674383,2.95007308 1.08774863,2.99201862 L1,3 C0.723857625,3 0.5,2.7842474 0.5,2.50461102 L0.5,0.495388985 C0.5,0.252192734 0.683256173,0.0499269165 0.912251372,0.00798137978 L1,0 Z" transform="translate(19.5 35)"/>
      <path fill="#A5F532" stroke="#54D800" d="M4,37.5 C4.55228475,37.5 5,37.0522847 5,36.5 C5,35.9477153 4.55228475,35.5 4,35.5 C3.44771525,35.5 3,35.9477153 3,36.5 C3,37.0522847 3.44771525,37.5 4,37.5 Z"/>
    </g>
    <path fill="#FFF" d="M29.0810675,22.2289397 C29.0810675,22.1077663 28.8959462,21.9664011 28.5256945,21.8048373 C28.5526222,21.7038602 28.577867,21.6112995 28.6014268,21.5271508 C28.6249888,21.4430043 28.6418194,21.3554922 28.6519165,21.2646121 C28.6620135,21.173732 28.6721105,21.1013655 28.6822098,21.0475124 C28.6923068,20.993657 28.6939897,20.9179247 28.6872583,20.8203133 C28.680527,20.7227019 28.6771613,20.6570689 28.6771613,20.6234099 C28.6771613,20.5897508 28.6653792,20.5157014 28.6418194,20.4012593 C28.6182574,20.2868195 28.6047947,20.2178186 28.6014268,20.1942589 C28.5980611,20.1706969 28.5812327,20.0865504 28.5509393,19.941815 C28.520646,19.7970818 28.5021348,19.7078868 28.4954011,19.6742278 C28.4280831,19.3511002 28.2698895,19.0044173 28.0208112,18.6341656 C27.771733,18.2639163 27.5293929,18.0114769 27.2937774,17.8768407 C27.4553413,18.0114769 27.6471962,18.2908439 27.8693467,18.7149487 C28.4550153,19.8055028 28.6367709,20.7412108 28.4146204,21.5221023 C28.3405709,21.7913745 28.172278,21.932742 27.9097371,21.9462048 C27.7010493,21.9731324 27.5714639,21.9108629 27.5209765,21.7593984 C27.4704868,21.6079316 27.4435614,21.3268839 27.4401957,20.9162419 C27.4368278,20.5055999 27.3981225,20.1454543 27.3240708,19.8357894 C27.2634841,19.5732484 27.1978511,19.3410054 27.1271674,19.1390512 C27.0564836,18.937097 26.9908484,18.7839496 26.9302617,18.6796068 C26.869675,18.575264 26.8175047,18.4928004 26.7737486,18.4322137 C26.7299903,18.371627 26.6862342,18.3211396 26.6424782,18.2807469 C26.5987221,18.2403565 26.5734773,18.2167968 26.5667459,18.2100632 C26.4725001,17.792692 26.3681574,17.4460069 26.2537175,17.1700033 C26.1392777,16.8939996 26.0399835,16.7055104 25.955837,16.6045333 C25.8716883,16.5035562 25.7925903,16.392482 25.7185409,16.2713109 C25.6444915,16.1501374 25.5940018,16.0155036 25.5670764,15.8674025 C25.5401487,15.726035 25.5603428,15.5459622 25.6276608,15.3271773 C25.6949789,15.1083925 25.7101267,14.9417824 25.673102,14.8273426 C25.636075,14.7129005 25.4862956,14.628754 25.2237547,14.5749009 C25.1227776,14.5547046 24.9729959,14.4941201 24.7744074,14.3931408 C24.5758188,14.2921637 24.4563305,14.2383106 24.4159401,14.2315792 C24.3620847,14.2248479 24.32506,14.1373357 24.304866,13.9690383 C24.2846696,13.8007431 24.3115973,13.6290845 24.3856467,13.454058 C24.4596962,13.2790315 24.5808673,13.1881514 24.7491625,13.18142 C24.9982407,13.161226 25.1698993,13.2622008 25.2641451,13.4843514 C25.3583908,13.7064996 25.3718535,13.9017202 25.3045355,14.0700154 C25.230486,14.1979202 25.2237547,14.2871152 25.2843414,14.3376048 C25.3449259,14.3880923 25.445903,14.3897751 25.5872705,14.3426534 C25.6747849,14.3157257 25.7185409,14.1945545 25.7185409,13.9791376 L25.7185409,13.6055225 C25.6848819,13.4035683 25.639443,13.2352754 25.5822219,13.1006393 C25.5250009,12.9660031 25.4543194,12.8633432 25.3701707,12.7926594 C25.286022,12.7219757 25.2069263,12.6714883 25.1328746,12.6411949 C25.0588252,12.6109015 24.9679474,12.5856567 24.8602389,12.5654626 C24.1399342,12.6193157 23.8403708,13.0703414 23.9615443,13.9185509 C23.9615443,14.019528 23.9581786,14.0700154 23.9514472,14.0700154 C23.8908605,14.0094287 23.7915685,13.9740891 23.6535644,13.9639898 C23.5155626,13.9538927 23.4044907,13.9555756 23.320342,13.9690383 C23.2361933,13.9825033 23.184023,13.9656726 23.163829,13.9185509 C23.1705603,13.5348365 23.116705,13.2319097 23.0022652,13.0097592 C22.8878253,12.7876109 22.7363608,12.6731711 22.5478693,12.6664397 C22.3661114,12.6597061 22.2264268,12.752269 22.1288153,12.944124 C22.0312039,13.1359811 21.975668,13.3362502 21.9622053,13.5449358 C21.9554716,13.6459152 21.9672538,13.7704498 21.9975471,13.9185509 C22.0278382,14.066652 22.0715966,14.1928717 22.1288153,14.2972145 C22.1860364,14.4015572 22.2382066,14.4469961 22.2853306,14.4335334 C22.3526487,14.4133371 22.4065018,14.3662154 22.4468922,14.2921659 C22.4738199,14.2315792 22.4502601,14.2046515 22.3762085,14.2113829 C22.3290867,14.2113829 22.2769165,14.1625783 22.2196954,14.0649669 C22.1624744,13.9673555 22.1304982,13.8545985 22.1237668,13.726696 C22.1170355,13.5785948 22.1473288,13.454058 22.2146469,13.3530809 C22.281965,13.2521038 22.3964025,13.204982 22.5579663,13.2117134 C22.6724084,13.2117134 22.7632862,13.2823971 22.8306043,13.4237646 C22.8979224,13.5651321 22.9298986,13.6964003 22.9265329,13.8175738 C22.9231672,13.9387472 22.9181187,14.0127966 22.9113851,14.039722 C22.7632862,14.1407014 22.6589434,14.2383106 22.598359,14.3325563 C22.5445036,14.4133371 22.451943,14.492435 22.3206725,14.5698502 C22.1894021,14.6472675 22.1204011,14.6893407 22.1136698,14.6960721 C22.0261554,14.7903178 21.9739851,14.8811957 21.9571545,14.9687101 C21.9403261,15.0562222 21.9655709,15.1168089 22.032889,15.1504679 C22.1271325,15.2043233 22.211279,15.2699563 22.2853306,15.3473714 C22.3593801,15.4247887 22.4132332,15.4887389 22.4468922,15.5392286 C22.4805512,15.589716 22.5428208,15.633472 22.6337009,15.670499 C22.7245787,15.7075237 22.844067,15.7294006 22.9921681,15.736132 C23.3085621,15.749597 23.6518816,15.6991095 24.022131,15.5846675 C24.0355937,15.5779361 24.1130088,15.5543741 24.2543763,15.5139837 C24.395746,15.4735933 24.5118687,15.4382514 24.6027465,15.4079581 C24.6936266,15.3776647 24.7929186,15.3339087 24.9006293,15.2766876 C25.0083378,15.2194689 25.0790215,15.160565 25.1126806,15.0999783 C25.1732673,15.0057348 25.2405831,14.9788071 25.3146325,15.0191975 C25.3482915,15.0393938 25.3701707,15.0680021 25.3802677,15.105029 C25.390367,15.1420537 25.3802677,15.1824441 25.3499744,15.2262002 C25.3196833,15.2699563 25.2641451,15.3019325 25.1833643,15.3221288 C25.0487282,15.3625192 24.8585561,15.4348858 24.6128458,15.5392286 C24.3671333,15.6435713 24.2139859,15.7092066 24.1534014,15.736132 C23.8572015,15.8640368 23.6215905,15.9414519 23.446564,15.9683796 C23.2782665,16.0020386 23.0123644,15.9953072 22.6488464,15.9481832 C22.5815283,15.9347205 22.551235,15.9414519 22.5579663,15.9683796 C22.5647,15.9953072 22.6219187,16.0592574 22.7296272,16.1602345 C22.8979224,16.3150669 23.1234363,16.3891164 23.4061713,16.382385 C23.5206134,16.3756537 23.6417846,16.3520917 23.7696893,16.3117013 C23.8975941,16.2713086 24.0187653,16.2241869 24.1332051,16.1703338 C24.2476449,16.1164784 24.3604019,16.0575768 24.4714783,15.9936244 C24.5825524,15.929672 24.6835273,15.872451 24.7744074,15.8219635 C24.8652874,15.7714739 24.9477511,15.7310835 25.0218005,15.7007901 C25.0958499,15.670499 25.1547538,15.6620826 25.1985098,15.6755475 C25.2422659,15.6890102 25.2708764,15.726035 25.2843414,15.7866217 C25.2843414,15.8000844 25.2809735,15.8152322 25.2742421,15.8320606 C25.2675108,15.8488912 25.254048,15.8657196 25.2338517,15.8825503 C25.2136577,15.8993786 25.1934613,15.9145242 25.173265,15.9279892 C25.1530709,15.9414519 25.1244604,15.9582825 25.0874357,15.9784766 C25.050411,15.9986729 25.0201176,16.0138185 24.9965556,16.0239178 C24.9729959,16.0340148 24.9393369,16.0508432 24.8955808,16.0744052 C24.8518225,16.0979672 24.8198463,16.1131127 24.7996522,16.1198441 C24.6111607,16.2140898 24.3839662,16.3621887 24.1180596,16.5641429 C23.8521507,16.7660971 23.6283218,16.910828 23.446564,16.9983424 C23.2648038,17.0858568 23.0998766,17.0892225 22.9517777,17.0084394 C22.810408,16.93439 22.598359,16.688682 22.315624,16.2713109 C22.1675229,16.062623 22.0833764,15.9885736 22.0631801,16.0491603 C22.0564488,16.0693567 22.0530831,16.1030157 22.0530831,16.1501374 C22.0530831,16.3184326 22.0025957,16.5086047 21.9016185,16.7206559 C21.8006414,16.9327094 21.7013472,17.1195136 21.6037357,17.2810774 C21.5061243,17.4426412 21.4354428,17.6378618 21.3916845,17.8667437 C21.3479284,18.0956256 21.386636,18.3076746 21.5078094,18.5028974 C21.352977,18.5432878 21.1426108,18.8462146 20.8767042,19.4116869 C20.6107976,19.9771614 20.4509189,20.4517468 20.3970635,20.8354611 C20.3836008,20.9566323 20.3785523,21.1888776 20.381918,21.5321993 C20.3852836,21.8755233 20.3667724,22.0741095 20.3263798,22.1279626 C20.2725267,22.2895265 20.1749152,22.2996235 20.0335477,22.158256 C19.8181286,21.9495704 19.6969597,21.6331787 19.670032,21.2090739 C19.656567,21.0205847 19.670032,20.8320954 19.7104224,20.6436039 C19.73735,20.5156992 19.7339844,20.4551147 19.7003253,20.4618461 L19.6599327,20.5123357 C19.4175881,20.9499032 19.4512471,21.508635 19.7609098,22.1885494 C19.7945688,22.2693301 19.8787153,22.3635759 20.0133514,22.4712843 C20.1479898,22.5789928 20.2287683,22.6463109 20.255696,22.6732386 C20.3903322,22.8280688 20.740383,23.1326807 21.3058552,23.5870788 C21.8713275,24.0414746 22.1843535,24.2989648 22.2449403,24.3595492 C22.3526487,24.4605286 22.4115503,24.5884311 22.4216496,24.7432613 C22.4317467,24.8980938 22.3846249,25.0428247 22.2802821,25.1774631 C22.1759371,25.3120992 22.022792,25.3895143 21.8208378,25.4097084 C21.8746909,25.5106855 21.9723023,25.6604672 22.1136698,25.8590557 C22.2550373,26.057644 22.3492808,26.2394006 22.3964048,26.4043301 C22.4435265,26.5692596 22.4670885,26.8065527 22.4670885,27.1162163 C22.7767512,26.9546527 22.8003132,26.6449936 22.5377723,26.1872298 C22.5108446,26.1333754 22.4755027,26.0795216 22.4317467,26.0256672 C22.3879906,25.9718125 22.3560144,25.9314223 22.3358181,25.9044949 C22.315624,25.8775676 22.3088904,25.8573729 22.315624,25.8439079 C22.3358181,25.8102489 22.3795741,25.7782749 22.4468922,25.7479816 C22.5142103,25.7176882 22.5815283,25.7261024 22.6488464,25.7732242 C22.9585091,26.1232797 23.5172432,26.2444507 24.32506,26.1367415 C25.2203935,26.0357642 25.8161501,25.7429353 26.1123501,25.2582439 C26.2671825,25.0024343 26.3816201,24.9014594 26.4556718,24.9553125 C26.5364525,24.9957052 26.5701116,25.1707295 26.5566489,25.4803921 C26.5499152,25.6486873 26.4725024,25.958347 26.3244013,26.4093788 C26.2638146,26.5642108 26.2436205,26.6904305 26.2638146,26.7880417 C26.2840109,26.8856531 26.3647917,26.9378241 26.5061592,26.9445559 C26.5263555,26.8166513 26.5751601,26.5574801 26.6525752,26.1670346 C26.7299926,25.7765898 26.7754315,25.4736608 26.7888942,25.2582439 C26.8023591,25.1168764 26.78048,24.8694855 26.7232589,24.5160645 C26.6660402,24.1626435 26.6407953,23.8361547 26.6475267,23.5365891 C26.654258,23.2370234 26.7316731,22.9997296 26.8797742,22.8247031 C26.9807513,22.7035297 27.1524099,22.6429452 27.3947545,22.6429452 C27.4014859,22.393867 27.5176086,22.215477 27.7431248,22.1077686 C27.968641,22.0000579 28.2126662,21.9647182 28.4752071,22.001743 C28.737748,22.0387677 28.9397,22.1144999 29.0810675,22.2289397 L29.0810675,22.2289397 Z M22.7397265,13.8781605 C22.7599206,13.7637184 22.7515064,13.6627436 22.7144816,13.5752292 C22.6774569,13.487717 22.6387494,13.4372273 22.598359,13.4237646 C22.5377723,13.4103019 22.5074789,13.4338617 22.5074789,13.4944484 C22.5209416,13.5281074 22.5377723,13.5483037 22.5579663,13.5550351 C22.6252844,13.5550351 22.6488464,13.6055225 22.6286501,13.7064996 C22.608456,13.8411358 22.6353814,13.9084538 22.7094331,13.9084538 C22.7296272,13.9084538 22.7397265,13.8983545 22.7397265,13.8781605 L22.7397265,13.8781605 Z M25.173265,13.7165967 C25.173265,13.6425472 25.1564366,13.576912 25.1227776,13.5196932 C25.0891185,13.4624722 25.0520938,13.420399 25.0117034,13.3934713 C24.9713131,13.3665436 24.9410197,13.3564466 24.9208234,13.3631779 C24.8265776,13.3699093 24.8030179,13.3934713 24.8501396,13.4338617 C24.8636046,13.440593 24.8770673,13.4473266 24.89053,13.454058 C24.9847758,13.4809857 25.0453625,13.5853262 25.0722902,13.7670863 C25.0722902,13.7872804 25.0992156,13.7805491 25.1530709,13.74689 L25.173265,13.7165967 Z M31.7367565,25.1522182 C31.8108059,25.2363647 31.8511963,25.3171455 31.8579299,25.3945628 C31.8646613,25.4719779 31.8562471,25.5477102 31.8326851,25.6217596 C31.8091231,25.6958091 31.7569528,25.7698585 31.6761698,25.8439079 C31.595389,25.9179589 31.5162911,25.9835932 31.438876,26.0408136 C31.3614586,26.098034 31.2604838,26.1603024 31.1359447,26.2276207 C31.0114055,26.2949388 30.9053822,26.3504756 30.8178678,26.3942323 C30.7303534,26.4379891 30.6226472,26.49016 30.4947424,26.5507463 C30.3668376,26.6113328 30.2759598,26.6550888 30.2221045,26.6820161 C29.9662949,26.8099206 29.6785159,26.9984087 29.3587539,27.2474861 C29.038992,27.4965634 28.7848698,27.7119785 28.5963783,27.8937375 C28.4819384,28.0014467 28.2530588,28.0670809 27.9097371,28.0906423 C27.5664131,28.1142037 27.266852,28.0653987 27.0110424,27.944226 C26.8898713,27.8836396 26.790577,27.8045418 26.7131619,27.7069304 C26.6357468,27.6093192 26.5802086,27.5234897 26.5465496,27.4494398 C26.5128905,27.3753897 26.4388411,27.3097554 26.3244013,27.252535 C26.2099615,27.1953144 26.0517656,27.1633389 25.8498114,27.1566071 C25.5536114,27.1498753 25.1160485,27.1465094 24.5371113,27.1465094 C24.4092088,27.1465094 24.2173538,27.1515581 23.9615443,27.1616559 C23.7057347,27.1717536 23.5105164,27.1801682 23.3758802,27.1869 C23.0796803,27.1936318 22.8120931,27.2441197 22.5731142,27.3383652 C22.3341352,27.4326108 22.1540602,27.5335865 22.032889,27.6412956 C21.9117156,27.7490048 21.7652996,27.8449318 21.5936387,27.9290794 C21.4219779,28.0132272 21.2419051,28.0519346 21.0534136,28.0452027 C20.8581907,28.0384709 20.4845802,27.9341293 19.9325706,27.7321748 C19.3805611,27.5302201 18.8891473,27.3854881 18.4583099,27.2979746 C18.3304053,27.2710472 18.1587465,27.2390716 17.9433284,27.2020467 C17.7279102,27.1650215 17.5596173,27.1347289 17.4384445,27.1111675 C17.3172718,27.0876062 17.1843203,27.0556305 17.0395862,27.0152396 C16.8948521,26.9748486 16.7820958,26.9260437 16.7013139,26.8688232 C16.6205321,26.8116028 16.5633125,26.7459685 16.5296534,26.6719186 C16.4623352,26.5170866 16.4858962,26.293257 16.6003372,26.000423 C16.714778,25.7075889 16.7753635,25.5241505 16.7820954,25.4500988 C16.7888272,25.3423903 16.7753638,25.2077564 16.7417047,25.0461926 C16.7080455,24.8846288 16.6743869,24.7415807 16.6407279,24.6170416 C16.6070688,24.4925025 16.5919224,24.3696485 16.5952883,24.2484751 C16.5986542,24.1273039 16.6339957,24.0364238 16.7013139,23.9758394 C16.7955594,23.8950563 16.9874134,23.8479346 17.2768816,23.8344719 C17.5663497,23.8210069 17.7683015,23.7806165 17.8827422,23.7132984 C18.0846968,23.592125 18.226063,23.4743218 18.3068447,23.3598797 C18.3876266,23.2454399 18.428017,23.0737813 18.428017,22.8448994 C18.4280169,23.0367546 18.6064094,22.5419681 18.5794822,22.3804043 C18.5592865,22.2726958 18.552555,22.1447933 18.5592868,21.9966944 C18.5660186,21.8014716 18.5996771,21.6264451 18.6602634,21.4716148 C18.7208499,21.3167824 18.8016307,21.1585865 18.9026078,20.9970227 C19.0035849,20.8354589 19.0776343,20.6940936 19.1247561,20.5729202 C19.1786114,20.4315527 19.2678064,20.1892104 19.3923455,19.8458886 C19.5168846,19.5025647 19.6161766,19.2400283 19.690226,19.0582681 C19.7642777,18.8765102 19.8652526,18.6711926 19.9931574,18.4423107 C20.1210621,18.2134288 20.2523303,18.0316732 20.3869665,17.8970371 C21.1274675,16.9343855 21.5448341,16.2780445 21.6390776,15.9279892 C21.5582968,15.1740254 21.5044437,14.1306089 21.4775161,12.7977079 C21.4640511,12.1918453 21.5448319,11.6819181 21.7198607,11.2679103 C21.8948872,10.8539026 22.2516693,10.5021712 22.7902139,10.2127026 C23.0527548,10.0713351 23.4028034,10.0006514 23.8403731,10.0006514 C24.1971598,9.99392004 24.5539397,10.0393589 24.9107263,10.1369704 C25.267513,10.2345818 25.5670741,10.3742642 25.8094187,10.5560243 C26.1931331,10.8387593 26.5011084,11.2477117 26.7333582,11.7828929 C26.9656058,12.3180718 27.0648978,12.8145363 27.0312388,13.2723001 C26.9975797,13.9118218 27.0985546,14.6321152 27.3341701,15.4332029 C27.563052,16.193898 28.0107097,16.9276564 28.6771613,17.6344961 C29.0474107,18.0316732 29.3823137,18.580308 29.6818793,19.2804187 C29.9814449,19.9805271 30.1817141,20.6234054 30.2826912,21.2090739 C30.3365465,21.5389329 30.3533749,21.8233485 30.3331786,22.0623274 C30.3129845,22.3013086 30.2725941,22.4881127 30.2120074,22.6227489 C30.1514207,22.757385 30.2995196,23.2992953 30.3937653,23.2185122 C30.4004967,23.4272 30.4274243,23.6173699 30.4745461,23.7890307 C30.5216701,23.9606938 30.5704747,24.0970105 30.6209644,24.1979876 C30.6714518,24.2989648 30.7404527,24.3948911 30.8279648,24.4857712 C30.9154792,24.5766512 30.986163,24.6406014 31.0400161,24.6776261 C31.0938714,24.714653 31.166238,24.7584091 31.2571181,24.8088965 C31.3479959,24.8593862 31.4035341,24.8913602 31.4237282,24.9048251 C31.5583643,24.9856059 31.6627071,25.0680695 31.7367565,25.1522182 Z"/>
  </g>
</svg>
