<?xml version="1.0" encoding="UTF-8"?>
<svg width="24px" height="24px" viewBox="0 0 24 24" version="1.1" xmlns="http://www.w3.org/2000/svg" xmlns:xlink="http://www.w3.org/1999/xlink">
    <!-- Generator: Sketch 51.3 (57544) - http://www.bohemiancoding.com/sketch -->
    <title>configure-toolbars</title>
    <desc>Created with Sketch.</desc>
    <defs></defs>
    <g id="configure-toolbars" stroke="none" stroke-width="1" fill="none" fill-rule="evenodd">
        <g id="208" transform="translate(4.000000, 4.000000)" fill="#DDDDDD" fill-rule="nonzero">
            <path d="M7.9960938,8 C3.9976937,8 2,11 2,14 L0.25,14 C0.0001,14 0,14.157 0,14.25 L0,14.75 C0,15 0.13824,15 0.25,15 L15.744141,15 C15.939141,15.006 15.994141,14.871 15.994141,14.75 L15.994141,14.25 C16.015141,14.104 15.994141,14 15.744141,14 L13.994141,14 C13.994141,11 11.994994,8 7.9960938,8 Z M7.99999967,9 C11.9165,9 13,11.9366667 13,14 L3.00325483,14 C3.00325483,12.0033333 4.17283283,9 7.99999967,9 Z" id="Combined-Shape"></path>
            <path d="M13,8.72214128 L13,5 L12,5 L12,7.85403291 C11.7002373,7.63971995 11.3677641,7.43708225 10.996094,7.25 C10.996094,7.25 10.99675,5.2066125 10.96875,5.1953125 C10.62575,5.0532125 10.284953,4.8748656 10.001953,4.6347656 C8.6466531,3.4855656 8.6637156,1.6512094 10.041016,0.53710938 C10.329016,0.30432938 10.671578,0.13322 11.017578,0 L10.996094,3.2324219 C10.992094,3.6911219 11.442094,3.993 11.996094,4 L12.994141,4 C13.548141,4 13.995,3.7301844 14,3.2714844 L14.021484,0.0390625 C14.364484,0.1811225 14.705281,0.35952938 14.988281,0.59960938 C16.344281,1.7488094 16.326219,3.5830656 14.949219,4.6972656 C14.661219,4.9299656 14.340141,5.1186531 13.994141,5.2519531 L13.994141,10 C13.7137486,9.56729572 13.3936541,9.13459144 13,8.72214128 Z" id="Combined-Shape"></path>
        </g>
    </g>
</svg>