<?xml version="1.0" encoding="UTF-8"?>
<svg width="24px" height="24px" viewBox="0 0 24 24" version="1.1" xmlns="http://www.w3.org/2000/svg" xmlns:xlink="http://www.w3.org/1999/xlink">
    <!-- Generator: Sketch 51.3 (57544) - http://www.bohemiancoding.com/sketch -->
    <title>filename-discnumber-amarok</title>
    <desc>Created with Sketch.</desc>
    <defs></defs>
    <g id="filename-discnumber-amarok" stroke="none" stroke-width="1" fill="none" fill-rule="evenodd">
        <g id="258" transform="translate(5.000000, 5.000000)" fill="#DDDDDD" fill-rule="nonzero">
            <path d="M3,0 L3,3 L0,3 L0,4 L3,4 L3,10 L0,10 L0,11 L3,11 L3,14 L4,14 L4,11 L10,11 L10,14 L11,14 L11,11 L14,11 L14,10 L11,10 L11,4 L14,4 L14,3 L11,3 L11,0 L10,0 L10,3 L4,3 L4,0 L3,0 Z M4,4 L10,4 L10,10 L4,10 L4,4 Z" id="Shape"></path>
        </g>
    </g>
</svg>