<?xml version="1.0" encoding="UTF-8"?>
<svg width="24px" height="24px" viewBox="0 0 24 24" version="1.1" xmlns="http://www.w3.org/2000/svg" xmlns:xlink="http://www.w3.org/1999/xlink">
    <!-- Generator: Sketch 51.3 (57544) - http://www.bohemiancoding.com/sketch -->
    <title>im-irc</title>
    <desc>Created with Sketch.</desc>
    <defs></defs>
    <g id="im-irc" stroke="none" stroke-width="1" fill="none" fill-rule="evenodd">
        <path d="M15.498047,15 L15.998047,15 L16.5700381,15 C16.6095223,14.9999892 16.7378074,14.9789886 16.8437582,14.9270133 C16.9602653,14.8698594 16.998047,14.8142775 16.998047,14.599609 L16.998047,10.4003906 C16.998047,10.1857222 16.9602654,10.1301404 16.8437584,10.0729866 C16.7378077,10.0210114 16.6095226,10.0000108 16.570312,10 L9.40451251,10 C9.36947435,10.0000337 9.24729903,10.0203594 9.14699253,10.0703176 C9.03550706,10.1258436 8.9980469,10.1817945 8.9980469,10.4003906 L8.9980469,14.599609 C8.9980469,14.8180647 9.18382482,15 9.4277344,15 L13.4980469,15 L14.498047,16.3333334 L15.498047,15 Z M9.4042969,9 L16.570312,9 C16.570312,9 17.998047,9.0003906 17.998047,10.4003906 L17.998047,14.599609 C17.998047,15.999609 16.570312,16 16.570312,16 L15.998047,16 L14.498047,18 L12.9980469,16 L9.4277344,16 C8.6363044,16 7.9980469,15.375219 7.9980469,14.599609 L7.9980469,10.4003906 C7.9980469,9.0003906 9.4042969,9 9.4042969,9 Z" id="Shape" fill="#DDDDDD" fill-rule="nonzero"></path>
        <path d="M15,6.4003906 C15,6.18572201 14.9622184,6.13014018 14.8457117,6.0729865 C14.7397612,6.02101133 14.6114764,6.00001076 14.572266,6 L7.40646562,6 C7.37142745,6.00003373 7.24925213,6.02035941 7.14894563,6.07031762 C7.03746016,6.12584357 7,6.18179448 7,6.4003906 L7,7.42825033 C7.08175305,7.37416597 7.1676341,7.32473376 7.25730437,7.28007298 C7.68428224,7.06741429 8.08936538,7.00008798 8.40625,7 L15,7 L15,6.4003906 Z M7.40625,5 L14.572266,5 C14.572266,5 16,5.0003906 16,6.4003906 L16,8.0859375 C15.768,8.0235375 15.572266,8 15.572266,8 L8.40625,8 C8.40625,8 7,8.0003906 7,9.4003906 L7,11.9296875 C6.4207,11.7512875 6,11.2278094 6,10.5996094 L6,6.4003906 C6,5.0003906 7.40625,5 7.40625,5 Z" id="Shape" fill="#BBBBBB" fill-rule="nonzero"></path>
    </g>
</svg>