<svg xmlns="http://www.w3.org/2000/svg" xmlns:xlink="http://www.w3.org/1999/xlink" width="16" height="16" viewBox="0 0 16 16">
  <defs>
    <linearGradient id="application-x-xz-c" x1="50%" x2="50%" y1="0%" y2="97.687%">
      <stop offset="0%" stop-color="#626B79"/>
      <stop offset="100%" stop-color="#3D484E"/>
    </linearGradient>
    <path id="application-x-xz-b" d="M2.0085302,14 C0.899249601,14 0,13.1029399 0,11.9941413 L0,2.00585866 C0,0.898053512 0.901950359,-3.68622915e-15 2.0085302,-3.85003588e-15 L9.9914698,-5.03174832e-15 C11.1007504,-5.19595484e-15 12,0.897060126 12,2.00585866 L12,11.9941413 C12,13.1019465 11.0980496,14 9.9914698,14 L2.0085302,14 Z"/>
    <filter id="application-x-xz-a" width="133.3%" height="128.6%" x="-16.7%" y="-7.1%" filterUnits="objectBoundingBox">
      <feOffset dy="1" in="SourceAlpha" result="shadowOffsetOuter1"/>
      <feGaussianBlur in="shadowOffsetOuter1" result="shadowBlurOuter1" stdDeviation=".5"/>
      <feColorMatrix in="shadowBlurOuter1" values="0 0 0 0 0.360784314   0 0 0 0 0.419607843   0 0 0 0 0.450980392  0 0 0 0.2 0"/>
    </filter>
  </defs>
  <g fill="none" fill-rule="evenodd" transform="translate(2 1)">
    <use fill="#000" filter="url(#application-x-xz-a)" xlink:href="#application-x-xz-b"/>
    <use fill="url(#application-x-xz-c)" xlink:href="#application-x-xz-b"/>
    <path fill="#FFF8F8" fill-opacity=".5" d="M4,4.5 L4,6.5 L0,6.5 L0,4.5 L4,4.5 Z M12,4.5 L12,6.5 L8,6.5 L8,4.5 L12,4.5 Z"/>
    <path fill="#FFF" fill-opacity=".6" d="M7.75 4C7.88807119 4 8 4.11192881 8 4.25L8 6.75C8 6.88807119 7.88807119 7 7.75 7L4.25 7C4.11192881 7 4 6.88807119 4 6.75L4 4.25C4 4.11192881 4.11192881 4 4.25 4L7.75 4zM7 5L5 5 5 6 7 6 7 5zM2 13.208L3.435 10.527 2.084 8 3.477 8 3.897 8.931C4.009 9.176 4.128 9.449 4.275 9.785L4.303 9.785C4.422 9.449 4.534 9.176 4.639 8.931L5.017 8 6.34 8 4.996 10.583 6.431 13.208 5.038 13.208 4.555 12.193C4.429 11.92 4.31 11.647 4.17 11.325L4.142 11.325C4.016 11.647 3.904 11.92 3.785 12.193L3.337 13.208 2 13.208z"/>
    <polygon fill="#FFF" fill-opacity=".6" points="6.788 13.208 6.788 12.452 9.035 9.036 7.005 9.036 7.005 8 10.575 8 10.575 8.749 8.328 12.158 10.596 12.158 10.596 13.208"/>
  </g>
</svg>
