<svg xmlns="http://www.w3.org/2000/svg" xmlns:xlink="http://www.w3.org/1999/xlink" width="16" height="16" viewBox="0 0 16 16">
  <defs>
    <linearGradient id="application-vnd.sun.xml.impress.template-c" x1="50%" x2="50%" y1="0%" y2="99.372%">
      <stop offset="0%" stop-color="#BB8200"/>
      <stop offset="100%" stop-color="#916500"/>
    </linearGradient>
    <path id="application-vnd.sun.xml.impress.template-b" d="M2.0085302,14 C0.899249601,14 0,13.1029399 0,11.9941413 L0,2.00585866 C0,0.898053512 0.901950359,-3.68622915e-15 2.0085302,-3.85003588e-15 L9.9914698,-5.03174832e-15 C11.1007504,-5.19595484e-15 12,0.897060126 12,2.00585866 L12,11.9941413 C12,13.1019465 11.0980496,14 9.9914698,14 L2.0085302,14 Z"/>
    <filter id="application-vnd.sun.xml.impress.template-a" width="133.3%" height="128.6%" x="-16.7%" y="-7.1%" filterUnits="objectBoundingBox">
      <feOffset dy="1" in="SourceAlpha" result="shadowOffsetOuter1"/>
      <feGaussianBlur in="shadowOffsetOuter1" result="shadowBlurOuter1" stdDeviation=".5"/>
      <feColorMatrix in="shadowBlurOuter1" values="0 0 0 0 0.874509804   0 0 0 0 0.498039216   0 0 0 0 0.0588235294  0 0 0 0.2 0"/>
    </filter>
  </defs>
  <g fill="none" fill-rule="evenodd" transform="translate(2 1)">
    <g opacity=".9">
      <use fill="#000" filter="url(#application-vnd.sun.xml.impress.template-a)" xlink:href="#application-vnd.sun.xml.impress.template-b"/>
      <use fill="url(#application-vnd.sun.xml.impress.template-c)" xlink:href="#application-vnd.sun.xml.impress.template-b"/>
    </g>
    <path fill="#FFF" fill-opacity=".6" d="M5,3 L5,9 L6,9 L6,3 L5,3 Z M3,5 L3,9 L4,9 L4,5 L3,5 Z M7,6 L7,9 L8,9 L8,6 L7,6 Z M2,11 L10,11 L10,10 L2,10 L2,11 Z"/>
  </g>
</svg>
