<svg xmlns="http://www.w3.org/2000/svg" xmlns:xlink="http://www.w3.org/1999/xlink" width="16" height="16" viewBox="0 0 16 16">
  <defs>
    <linearGradient id="application-x-rar-c" x1="50%" x2="50%" y1="0%" y2="100%">
      <stop offset="0%" stop-color="#5C42B1"/>
      <stop offset="99.345%" stop-color="#3E1888"/>
    </linearGradient>
    <path id="application-x-rar-a" d="M2.0085302,14 C0.899249601,14 0,13.1029399 0,11.9941413 L0,2.00585866 C0,0.898053512 0.901950359,-3.68622915e-15 2.0085302,-3.85003588e-15 L9.9914698,-5.03174832e-15 C11.1007504,-5.19595484e-15 12,0.897060126 12,2.00585866 L12,11.9941413 C12,13.1019465 11.0980496,14 9.9914698,14 L2.0085302,14 Z"/>
    <filter id="application-x-rar-b" width="133.3%" height="128.6%" x="-16.7%" y="-7.1%" filterUnits="objectBoundingBox">
      <feOffset dy="1" in="SourceAlpha" result="shadowOffsetOuter1"/>
      <feGaussianBlur in="shadowOffsetOuter1" result="shadowBlurOuter1" stdDeviation=".5"/>
      <feColorMatrix in="shadowBlurOuter1" values="0 0 0 0 0.241013895   0 0 0 0 0   0 0 0 0 0.621603261  0 0 0 0.2 0"/>
    </filter>
  </defs>
  <g fill="none" fill-rule="evenodd">
    <g transform="translate(2 1)">
      <mask id="application-x-rar-d" fill="#fff">
        <use xlink:href="#application-x-rar-a"/>
      </mask>
      <use fill="#000" filter="url(#application-x-rar-b)" xlink:href="#application-x-rar-a"/>
      <use fill="url(#application-x-rar-c)" xlink:href="#application-x-rar-a"/>
      <path fill="#FFF8F8" fill-opacity=".5" d="M4,4.5 L4,6.5 L0,6.5 L0,4.5 L4,4.5 Z M12,4.5 L12,6.5 L8,6.5 L8,4.5 L12,4.5 Z" mask="url(#application-x-rar-d)"/>
      <path fill="#FFF" fill-opacity=".6" d="M7.75 4C7.88807119 4 8 4.11192881 8 4.25L8 6.75C8 6.88807119 7.88807119 7 7.75 7L4.25 7C4.11192881 7 4 6.88807119 4 6.75L4 4.25C4 4.11192881 4.11192881 4 4.25 4L7.75 4zM7 5L5 5 5 6 7 6 7 5zM6.2 8L8 13 7.1 13 6.762 12 4.738 12 4.4 13 3.5 13 5.3 8 6.2 8zM5.75 9L5.075 11 6.425 11 5.75 9z" mask="url(#application-x-rar-d)"/>
    </g>
    <path fill="#FFF" fill-opacity=".6" d="M13.5555556 10.5C13.5555556 9.66579723 12.9604662 9 12.2263862 9L11.7777778 9 10 9 10 14 11 14 11 12 11.2345679 12 12.8148148 14 14 14 12.4085384 11.9858064C13.051496 11.8848923 13.5555556 11.2581275 13.5555556 10.5zM12.2180583 10C12.4658178 10 12.6666667 10.2319336 12.6666667 10.5 12.6666667 10.7761424 12.4764133 11 12.2180583 11L11 11 11 10 12.2180583 10zM5.55555556 10.5C5.55555556 9.66579723 4.96046615 9 4.22638618 9L3.77777778 9 2 9 2 14 3 14 3 12 3.2345679 12 4.81481481 14 6 14 4.40853839 11.9858064C5.05149604 11.8848923 5.55555556 11.2581275 5.55555556 10.5zM4.21805827 10C4.46581785 10 4.66666667 10.2319336 4.66666667 10.5 4.66666667 10.7761424 4.4764133 11 4.21805827 11L3 11 3 10 4.21805827 10z"/>
  </g>
</svg>
