<svg xmlns="http://www.w3.org/2000/svg" xmlns:xlink="http://www.w3.org/1999/xlink" width="16" height="16" viewBox="0 0 16 16">
  <defs>
    <linearGradient id="text-x-install-c" x1="50%" x2="50%" y1="0%" y2="100%">
      <stop offset="0%" stop-color="#1CA779"/>
      <stop offset="100%" stop-color="#005F3F"/>
    </linearGradient>
    <path id="text-x-install-b" d="M2.0085302,14 C0.899249601,14 0,13.1029399 0,11.9941413 L0,2.00585866 C0,0.898053512 0.901950359,-4.57440757e-15 2.0085302,-4.73821429e-15 L9.9914698,-5.91992674e-15 C11.1007504,-6.08413326e-15 12,0.897060126 12,2.00585866 L12,11.9941413 C12,13.1019465 11.0980496,14 9.9914698,14 L2.0085302,14 Z"/>
    <filter id="text-x-install-a" width="133.3%" height="128.6%" x="-16.7%" y="-7.1%" filterUnits="objectBoundingBox">
      <feOffset dy="1" in="SourceAlpha" result="shadowOffsetOuter1"/>
      <feGaussianBlur in="shadowOffsetOuter1" result="shadowBlurOuter1" stdDeviation=".5"/>
      <feColorMatrix in="shadowBlurOuter1" values="0 0 0 0 0.262745098   0 0 0 0 0.71372549   0 0 0 0 0.607843137  0 0 0 0.3 0"/>
    </filter>
  </defs>
  <g fill="none" fill-rule="evenodd" transform="translate(2 1)">
    <use fill="#000" filter="url(#text-x-install-a)" xlink:href="#text-x-install-b"/>
    <use fill="url(#text-x-install-c)" xlink:href="#text-x-install-b"/>
    <circle cx="6" cy="7" r="4.5" stroke="#FFF" stroke-opacity=".6"/>
    <polygon fill="#FFF" fill-opacity=".6" points="7 4 5 4 5 7 3 7 6 10 9 7 7 7"/>
  </g>
</svg>
