<svg xmlns="http://www.w3.org/2000/svg" xmlns:xlink="http://www.w3.org/1999/xlink" width="16" height="16" viewBox="0 0 16 16">
  <defs>
    <linearGradient id="text-x-bak-c" x1="50%" x2="50%" y1="0%" y2="100%">
      <stop offset="0%" stop-color="#56A002"/>
      <stop offset="100%" stop-color="#458300"/>
    </linearGradient>
    <path id="text-x-bak-b" d="M2.0085302,14 C0.899249601,14 0,13.1029399 0,11.9941413 L0,2.00585866 C0,0.898053512 0.901950359,-4.57440757e-15 2.0085302,-4.73821429e-15 L9.9914698,-5.91992674e-15 C11.1007504,-6.08413326e-15 12,0.897060126 12,2.00585866 L12,11.9941413 C12,13.1019465 11.0980496,14 9.9914698,14 L2.0085302,14 Z"/>
    <filter id="text-x-bak-a" width="133.3%" height="128.6%" x="-16.7%" y="-7.1%" filterUnits="objectBoundingBox">
      <feOffset dy="1" in="SourceAlpha" result="shadowOffsetOuter1"/>
      <feGaussianBlur in="shadowOffsetOuter1" result="shadowBlurOuter1" stdDeviation=".5"/>
      <feColorMatrix in="shadowBlurOuter1" values="0 0 0 0 0.286130341   0 0 0 0 0.419214221   0 0 0 0 0  0 0 0 0.2 0"/>
    </filter>
  </defs>
  <g fill="none" fill-rule="evenodd" transform="translate(2 1)">
    <use fill="#000" filter="url(#text-x-bak-a)" xlink:href="#text-x-bak-b"/>
    <use fill="url(#text-x-bak-c)" xlink:href="#text-x-bak-b"/>
    <path fill="#FFF" fill-opacity=".75" d="M7.74787401,3 L5.08726333,3.00524364 C5.37683603,3.18672238 5.76065291,3.59365046 6.07701051,4.05921606 C6.43036889,4.57923519 6.71159553,5.17761482 6.9230847,5.70047659 L6.17279249,6.13045539 L8.5673421,6.12521174 L9.68479859,4.04872877 L9.0888218,4.44200206 L8.71101508,3.73411014 C8.45771558,3.33463576 8.22549237,3.04496597 7.74787401,3 L7.74787401,3 Z M4.45403799,3.0838983 C4.2915926,3.08050378 4.118461,3.10884093 3.92723707,3.18352754 L2.76721082,4.8772245 L4.81055982,6.22484098 L5.90673142,4.18506351 C5.6037879,3.74463971 5.15796832,3.09861104 4.45403799,3.0838983 L4.45403799,3.0838983 Z M10.0679265,5.96265878 L8.00861386,7.26832611 L8.96111248,9.30285993 L9.78058058,9.30810357 C10.2591493,9.31352491 11.0292974,8.61860149 10.9991403,8.11779641 L10.0679265,5.96265878 L10.0679265,5.96265878 Z M3.24079952,6.47129224 L1.01652899,6.59189605 L1.72957265,6.97468205 L1.49011769,7.47282822 C0.717334846,9.10088903 1.69483231,9.89479617 2.85235036,11.4789721 C2.68694245,11.0856925 2.69687721,10.6648054 2.84170792,10.2572031 L3.86870364,8.09157819 L4.51257142,8.42192776 L3.24079952,6.47129224 L3.24079952,6.47129224 Z M7.60952226,8.80471376 L6.51335066,10.8654658 L7.60952226,12.8999996 L7.61484348,12.0610166 L8.15228684,12.0610166 C9.88647118,12.0602447 10.1260647,10.7917173 10.9618917,8.99872858 C10.7000037,9.3293827 10.3367301,9.50346228 9.92425355,9.54931119 L7.61484348,9.55455483 L7.60952226,8.80471376 L7.60952226,8.80471376 Z M5.88012532,9.47590017 L3.49089692,9.55455483 L3.11841143,10.3148832 C2.90034573,10.7616537 3.15111948,11.7977994 3.59200013,11.9928492 L5.86416165,11.9928492 L5.88012532,9.47590017 L5.88012532,9.47590017 Z"/>
  </g>
</svg>
