<svg xmlns="http://www.w3.org/2000/svg" width="24" height="24" viewBox="0 0 24 24">
  <defs>
    <linearGradient id="drive-removable-media-a" x1="102.549%" x2="-2.652%" y1="57.682%" y2="57.682%">
      <stop offset="0%" stop-color="#5704D2"/>
      <stop offset="4.571%" stop-color="#4800B4"/>
      <stop offset="11.797%" stop-color="#6E0DD8"/>
      <stop offset="85.095%" stop-color="#6E0DD8"/>
      <stop offset="93.793%" stop-color="#4800B4"/>
      <stop offset="100%" stop-color="#5704D2"/>
    </linearGradient>
    <linearGradient id="drive-removable-media-b" x1="100%" x2="0%" y1="56.43%" y2="56.43%">
      <stop offset="0%" stop-color="#FFF" stop-opacity=".17"/>
      <stop offset="9.936%" stop-color="#BDBDBD" stop-opacity=".9"/>
      <stop offset="52.356%" stop-color="#E6E6E6" stop-opacity=".7"/>
      <stop offset="87.648%" stop-color="#BDBDBD"/>
      <stop offset="100%" stop-color="#FFF" stop-opacity=".46"/>
    </linearGradient>
    <radialGradient id="drive-removable-media-c" cx="48.239%" cy="19.103%" r="78.654%" fx="48.239%" fy="19.103%" gradientTransform="matrix(0 1 -.67138 0 .61 -.291)">
      <stop offset="0%" stop-color="#946CC3"/>
      <stop offset="100%" stop-color="#3462C9"/>
    </radialGradient>
    <linearGradient id="drive-removable-media-d" x1="50%" x2="50%" y1="0%" y2="100%">
      <stop offset="0%" stop-color="#0A2CBC"/>
      <stop offset="50.85%" stop-color="#116CB9"/>
      <stop offset="100%" stop-color="#0904C1"/>
    </linearGradient>
    <radialGradient id="drive-removable-media-e" cx="50%" cy="32.361%" r="60.349%" fx="50%" fy="32.361%">
      <stop offset="0%" stop-color="#DE3FB1"/>
      <stop offset="100%" stop-color="#9117C4"/>
    </radialGradient>
  </defs>
  <g fill="none" fill-rule="evenodd">
    <path fill="url(#drive-removable-media-a)" d="M4,5.00012207 C4,3.3432004 5.3366311,2 7.0094777,2 L16.9905228,2 C18.6526114,2 20.0000004,3.3360431 20.0000004,5.00012207 L20,21 L4,21 L4,5.00012207 Z"/>
    <path fill="url(#drive-removable-media-b)" stroke="#FFF" stroke-opacity=".35" d="M4.5,20.5 L10.3412832,20.5 C10.8293384,20.5 10.8293384,20.5 11.3255475,20.5 L19.5,20.5 L19.5,18.7428222 C19.5,18.0625193 18.9397245,17.5 18.2572615,17.5 L5.74273849,17.5 C5.06445207,17.5 4.5,18.0615431 4.5,18.7428222 L4.5,20.5 Z"/>
    <path fill="url(#drive-removable-media-c)" stroke="#393377" stroke-opacity=".2" d="M4.5,20.5 C4.5,21.0553749 4.9473686,21.5000001 5.50524116,21.5000001 L18.4947588,21.5000001 C19.054424,21.5000001 19.5,21.0545878 19.5,20.5000001 C19.5,19.9446252 19.0526314,19.5000001 18.4947588,19.5000001 L5.50524115,19.5 C4.94557597,19.5 4.5,19.9454123 4.5,20.5 Z"/>
    <path fill="url(#drive-removable-media-d)" d="M19,20 L19,21 L18,21 L18,20 L19,20 Z M17,20 L17,21 L16,21 L16,20 L17,20 Z M15,20 L15,21 L14,21 L14,20 L15,20 Z M13,20 L13,21 L12,21 L12,20 L13,20 Z"/>
    <path fill="url(#drive-removable-media-e)" d="M5.5,21 C5.77614237,21 6,20.7761424 6,20.5 C6,20.2238576 5.77614237,20 5.5,20 C5.22385763,20 5,20.2238576 5,20.5 C5,20.7761424 5.22385763,21 5.5,21 Z"/>
    <g fill="#FFF" fill-opacity=".6" transform="translate(7 5)">
      <polygon points="0 7 10 7 5 0"/>
      <rect width="10" height="1" y="8"/>
    </g>
  </g>
</svg>
