<svg xmlns="http://www.w3.org/2000/svg" width="24" height="24" viewBox="0 0 24 24">
  <defs>
    <linearGradient id="drive-harddisk-usb-a" x1="102.549%" x2="-2.652%" y1="57.682%" y2="57.682%">
      <stop offset="0%" stop-color="#00285D"/>
      <stop offset="4.571%" stop-color="#17A167"/>
      <stop offset="9.931%" stop-color="#138D6D"/>
      <stop offset="88.945%" stop-color="#0B673E"/>
      <stop offset="93.793%" stop-color="#187951"/>
      <stop offset="100%" stop-color="#002472"/>
    </linearGradient>
    <linearGradient id="drive-harddisk-usb-b" x1="100%" x2="0%" y1="56.43%" y2="56.43%">
      <stop offset="0%" stop-color="#FFF" stop-opacity=".29"/>
      <stop offset="8.389%" stop-color="#CDCDCD" stop-opacity=".94"/>
      <stop offset="52.356%" stop-color="#FFF" stop-opacity=".55"/>
      <stop offset="88.168%" stop-color="#CDCDCD" stop-opacity=".94"/>
      <stop offset="100%" stop-color="#FFF" stop-opacity=".29"/>
    </linearGradient>
    <radialGradient id="drive-harddisk-usb-c" cx="48.239%" cy="19.103%" r="78.654%" fx="48.239%" fy="19.103%" gradientTransform="matrix(0 1 -.67138 0 .61 -.291)">
      <stop offset="0%" stop-color="#47A9E0"/>
      <stop offset="100%" stop-color="#967B99"/>
    </radialGradient>
    <linearGradient id="drive-harddisk-usb-d" x1="50%" x2="50%" y1="0%" y2="100%">
      <stop offset="0%" stop-color="#0A2CBC"/>
      <stop offset="50.85%" stop-color="#116CB9"/>
      <stop offset="100%" stop-color="#0904C1"/>
    </linearGradient>
    <radialGradient id="drive-harddisk-usb-e" cx="50%" cy="37.643%" r="62.357%" fx="50%" fy="37.643%">
      <stop offset="0%" stop-color="#8ED63F"/>
      <stop offset="100%" stop-color="#28AC00"/>
    </radialGradient>
  </defs>
  <g fill="none" fill-rule="evenodd">
    <path fill="url(#drive-harddisk-usb-a)" d="M4,4.99253976 C4,3.33980569 5.3366311,2 7.0094777,2 L16.9905228,2 C18.6526114,2 20.0000004,3.35292554 20.0000004,4.99253976 L20,20 L4,20 L4,4.99253976 Z"/>
    <path fill="url(#drive-harddisk-usb-b)" stroke="#FFF" stroke-opacity=".2" d="M4.5,18.7428222 L4.5,19.9906311 C4.5,20.2770219 4.72402818,20.5 5.0081843,20.5 L9.82448781,20.5 C10.8320422,20.5 10.8320422,20.5 11.8311881,20.5 L19.0014841,20.5 C19.2784072,20.5 19.5,20.2752381 19.5,19.9906311 L19.5,18.7428222 C19.5,18.0625193 18.9397245,17.5 18.2572615,17.5 L5.74273849,17.5 C5.06445207,17.5 4.5,18.0615431 4.5,18.7428222 Z"/>
    <path fill="url(#drive-harddisk-usb-c)" stroke="#003D9C" stroke-opacity=".2" d="M4.5,20.5 C4.5,21.0553749 4.9473686,21.5000001 5.50524116,21.5000001 L18.4947588,21.5000001 C19.054424,21.5000001 19.5,21.0545878 19.5,20.5000001 C19.5,19.9446252 19.0526314,19.5000001 18.4947588,19.5000001 L5.50524115,19.5 C4.94557597,19.5 4.5,19.9454123 4.5,20.5 Z"/>
    <path fill="url(#drive-harddisk-usb-d)" d="M19,20 L19,21 L18,21 L18,20 L19,20 Z M17,20 L17,21 L16,21 L16,20 L17,20 Z M15,20 L15,21 L14,21 L14,20 L15,20 Z M13,20 L13,21 L12,21 L12,20 L13,20 Z"/>
    <path fill="url(#drive-harddisk-usb-e)" d="M5.5,21 C5.77614237,21 6,20.7761424 6,20.5 C6,20.2238576 5.77614237,20 5.5,20 C5.22385763,20 5,20.2238576 5,20.5 C5,20.7761424 5.22385763,21 5.5,21 Z"/>
    <path fill="#FFF" fill-opacity=".6" d="M4.30000019,0.5 L5.80000019,2.99066663 L4.69900019,2.99 L4.69900019,8.213 L6.328,7.07266667 C6.51291667,6.8965 6.55951042,6.79434375 6.56826953,6.59291146 L6.57,6.5 L6.56900019,6 L5.80000019,6 L5.80000019,4 L7.80000019,4 L7.80000019,6 L7.00200019,6 L7.00333333,6.53533333 C7.00333333,7.0835 6.69411111,7.31460185 6.64257407,7.34931211 L6.63533333,7.354 L4.69900019,8.756 L4.69941858,10.0537629 C5.28914667,10.2162702 5.73334239,10.7298199 5.79313361,11.35554 L5.80000019,11.5 C5.80000019,12.3284271 5.12842732,13 4.30000019,13 C3.47157307,13 2.80000019,12.3284271 2.80000019,11.5 C2.80000019,10.7744096 3.31519033,10.1691484 3.99972563,10.0300612 L3.99900019,9.718 L1.96800038,8.33733333 C1.96800038,8.33733333 1.60000038,8.12066667 1.60000038,7.53533333 L1.60118248,6.98023562 C1.1441455,6.88803895 0.800000191,6.4842092 0.800000191,6 C0.800000191,5.44771525 1.24771544,5 1.80000019,5 C2.35228494,5 2.80000019,5.44771525 2.80000019,6 C2.80000019,6.47192586 2.47309386,6.86749865 2.0333783,6.97262127 L2.03333371,7.5 C2.03333371,7.76133333 2.06400038,7.864 2.27533371,8.06133333 L3.99900019,9.186 L3.99900019,2.99 L2.80000019,2.99066663 L4.30000019,0.5 Z" transform="translate(8 3)"/>
  </g>
</svg>
