<svg xmlns="http://www.w3.org/2000/svg" width="24" height="24" viewBox="0 0 24 24">
  <defs>
    <filter id="media-dvd-a" width="125%" height="122.7%" x="-12.5%" y="-11.4%" filterUnits="objectBoundingBox">
      <feOffset in="SourceAlpha" result="shadowOffsetOuter1"/>
      <feGaussianBlur in="shadowOffsetOuter1" result="shadowBlurOuter1" stdDeviation=".5"/>
      <feComposite in="shadowBlurOuter1" in2="SourceAlpha" operator="out" result="shadowBlurOuter1"/>
      <feColorMatrix in="shadowBlurOuter1" result="shadowMatrixOuter1" values="0 0 0 0 0   0 0 0 0 0   0 0 0 0 0  0 0 0 0.15 0"/>
      <feMerge>
        <feMergeNode in="shadowMatrixOuter1"/>
        <feMergeNode in="SourceGraphic"/>
      </feMerge>
    </filter>
    <linearGradient id="media-dvd-b" x1="28.84%" x2="73.708%" y1="5.606%" y2="93.949%">
      <stop offset="0%" stop-color="#1E8C9B"/>
      <stop offset="47.787%" stop-color="#953A88"/>
      <stop offset="100%" stop-color="#1E8C9B"/>
    </linearGradient>
  </defs>
  <g fill="none" fill-rule="evenodd" filter="url(#media-dvd-a)" transform="translate(2 1)">
    <path fill="url(#media-dvd-b)" d="M10,1 C15.5228475,1 20,5.4771525 20,11 C20,16.5228475 15.5228475,21 10,21 C4.4771525,21 0,16.5228475 0,11 C0,5.4771525 4.4771525,1 10,1 Z M10,7 C7.790861,7 6,8.790861 6,11 C6,13.209139 7.790861,15 10,15 C12.209139,15 14,13.209139 14,11 C14,8.790861 12.209139,7 10,7 Z"/>
    <path fill="#FFF" d="M19,11 C19,6.02943725 14.9705627,2 10,2 C5.02943725,2 1,6.02943725 1,11 C1,15.9705627 5.02943725,20 10,20 C14.9705627,20 19,15.9705627 19,11 Z M10,16 C12.7614237,16 15,13.7614237 15,11 C15,8.23857625 12.7614237,6 10,6 C7.23857625,6 5,8.23857625 5,11 C5,13.7614237 7.23857625,16 10,16 L10,16 Z" opacity=".397"/>
    <path fill="#CBD4E5" d="M10,15 C12.209139,15 14,13.209139 14,11 C14,8.790861 12.209139,7 10,7 C7.790861,7 6,8.790861 6,11 C6,13.209139 7.790861,15 10,15 L10,15 Z M10,13 C11.1045695,13 12,12.1045695 12,11 C12,9.8954305 11.1045695,9 10,9 C8.8954305,9 8,9.8954305 8,11 C8,12.1045695 8.8954305,13 10,13 L10,13 Z" opacity=".8"/>
    <path fill="#B792AF" d="M10,16 C12.7614237,16 15,13.7614237 15,11 C15,8.23857625 12.7614237,6 10,6 C7.23857625,6 5,8.23857625 5,11 C5,13.7614237 7.23857625,16 10,16 L10,16 Z M10,14.5 C11.9329966,14.5 13.5,12.9329966 13.5,11 C13.5,9.06700338 11.9329966,7.5 10,7.5 C8.06700338,7.5 6.5,9.06700338 6.5,11 C6.5,12.9329966 8.06700338,14.5 10,14.5 L10,14.5 Z" opacity=".4"/>
    <path fill="#FFF" d="M10.693466,12.876507 C11.2843037,14.5220277 13.0201327,20.571383 13.0201327,20.5637077 C12.0636584,20.8504698 11.0498217,21.0045396 10,21.0045396 C8.96108872,21.0045396 7.9574183,20.8536555 7.00970667,20.5726053 C7.00970667,20.5726053 8.86063117,14.577945 9.37882593,12.9016586 C9.57436149,12.9654886 9.78315046,13 10,13 C10.2438043,13 10.4774197,12.9563757 10.693466,12.876507 Z M10,1 C11.0498217,1 12.0636584,1.15406981 13.0201327,1.44083192 C13.0201327,1.43316516 11.1639626,7.43207826 10.6504102,9.10813717 C10.4465014,9.03804957 10.2276942,9 10,9 C9.78550486,9 9.57889622,9.03376608 9.38519959,9.09627272 C8.86822092,7.41179586 7.00970667,1.4319343 7.00970667,1.43193431 C7.9574183,1.15088408 8.96108872,1 10,1 Z" opacity=".25" transform="rotate(-30 10.015 11.002)"/>
    <path fill="#443854" d="M7.216,16.7000008 L7.216,18.8420008 L7.96,18.8420008 C8.296,18.8420008 8.554,18.7430008 8.734,18.5480008 C8.905,18.3620008 8.992,18.1010008 8.992,17.7710008 C8.992,17.4350008 8.911,17.1740008 8.752,16.9940008 C8.578,16.7960008 8.323,16.7000008 7.984,16.7000008 L7.216,16.7000008 Z M7.462,16.9130008 L7.945,16.9130008 C8.227,16.9130008 8.431,16.9850008 8.563,17.1320008 C8.686,17.2700008 8.749,17.4830008 8.749,17.7710008 C8.749,18.0500008 8.68,18.2630008 8.548,18.4070008 C8.407,18.5540008 8.197,18.6290008 7.918,18.6290008 L7.462,18.6290008 L7.462,16.9130008 Z M9.133,16.7000008 L9.925,18.8420008 L10.228,18.8420008 L11.02,16.7000008 L10.75,16.7000008 L10.081,18.5750008 L10.072,18.5750008 L9.403,16.7000008 L9.133,16.7000008 Z M11.251,16.7000008 L11.251,18.8420008 L11.995,18.8420008 C12.331,18.8420008 12.589,18.7430008 12.769,18.5480008 C12.94,18.3620008 13.027,18.1010008 13.027,17.7710008 C13.027,17.4350008 12.946,17.1740008 12.787,16.9940008 C12.613,16.7960008 12.358,16.7000008 12.019,16.7000008 L11.251,16.7000008 Z M11.497,16.9130008 L11.98,16.9130008 C12.262,16.9130008 12.466,16.9850008 12.598,17.1320008 C12.721,17.2700008 12.784,17.4830008 12.784,17.7710008 C12.784,18.0500008 12.715,18.2630008 12.583,18.4070008 C12.442,18.5540008 12.232,18.6290008 11.953,18.6290008 L11.497,18.6290008 L11.497,16.9130008 Z"/>
  </g>
</svg>
