<svg xmlns="http://www.w3.org/2000/svg" xmlns:xlink="http://www.w3.org/1999/xlink" width="64" height="64" viewBox="0 0 64 64">
  <defs>
    <linearGradient id="image-jpeg-c" x1="50%" x2="50%" y1="0%" y2="100%">
      <stop offset="0%" stop-color="#28DCB1"/>
      <stop offset="100%" stop-color="#00AF9D"/>
    </linearGradient>
    <path id="image-jpeg-b" d="M29,0 L42,13 L42,47.5 C42,49.9852814 39.9852814,52 37.5,52 L4.5,52 C2.01471863,52 3.04359188e-16,49.9852814 0,47.5 L0,4.5 C-3.04359188e-16,2.01471863 2.01471863,4.56538782e-16 4.5,0 L29,0 Z"/>
    <filter id="image-jpeg-a" width="131%" height="125%" x="-15.5%" y="-10.6%" filterUnits="objectBoundingBox">
      <feOffset dy="1" in="SourceAlpha" result="shadowOffsetOuter1"/>
      <feGaussianBlur in="shadowOffsetOuter1" result="shadowBlurOuter1" stdDeviation="2"/>
      <feColorMatrix in="shadowBlurOuter1" values="0 0 0 0 0.262745098   0 0 0 0 0.71372549   0 0 0 0 0.607843137  0 0 0 0.5 0"/>
    </filter>
    <linearGradient id="image-jpeg-f" x1="50%" x2="10.489%" y1="50%" y2="91.194%">
      <stop offset="0%" stop-color="#FFF" stop-opacity=".1"/>
      <stop offset="100%" stop-color="#FFF" stop-opacity=".3"/>
    </linearGradient>
    <path id="image-jpeg-e" d="M29,0 L42,13 L33.5,13 C31.0147186,13 29,10.9852814 29,8.5 L29,0 Z"/>
    <filter id="image-jpeg-d" width="153.8%" height="153.8%" x="-26.9%" y="-19.2%" filterUnits="objectBoundingBox">
      <feOffset dy="1" in="SourceAlpha" result="shadowOffsetOuter1"/>
      <feGaussianBlur in="shadowOffsetOuter1" result="shadowBlurOuter1" stdDeviation="1"/>
      <feComposite in="shadowBlurOuter1" in2="SourceAlpha" operator="out" result="shadowBlurOuter1"/>
      <feColorMatrix in="shadowBlurOuter1" values="0 0 0 0 0   0 0 0 0 0   0 0 0 0 0  0 0 0 0.05 0"/>
    </filter>
  </defs>
  <g fill="none" fill-rule="evenodd">
    <g transform="translate(11 7)">
      <use fill="#000" filter="url(#image-jpeg-a)" xlink:href="#image-jpeg-b"/>
      <use fill="url(#image-jpeg-c)" xlink:href="#image-jpeg-b"/>
      <use fill="#000" filter="url(#image-jpeg-d)" xlink:href="#image-jpeg-e"/>
      <use fill="url(#image-jpeg-f)" xlink:href="#image-jpeg-e"/>
    </g>
    <path fill="#FFF" d="M23,49.0097846 L23,44.0099495 L24,44 L24,48.9998351 C24,50.1061861 22.8858266,51 21.5,51 C20.1195517,51 19,50.1109231 19,48.9928587 L20,49.0097846 C20,49.5569849 20.5,50 21.5,50 C22.5,50 23,49.5644706 23,49.0097846 Z M32,50 L36,50 L36,51 L31,51 L31,44 L36,44 L36,45 L32,45 L32,47 L35,47 L35,48 L32,48 L32,50 Z M41.5,50.2595077 C41.433726,50.3223967 40.6919932,51 39.5,51 C37.8414519,51 36.5,49.6943013 36.5,48.0776382 L36.5,46.9223618 C36.5,45.3059313 37.8364093,44 39.5,44 C40.8277375,44 41.9522584,44.83678 42.3480256,46 L41.2685857,46 C40.9332722,45.4042155 40.2677565,45 39.5,45 C38.3894723,45 37.5,45.8381448 37.5,46.8811019 L37.5,48.1188981 C37.5,49.1610047 38.3938939,50 39.5,50 C40.6105277,50 41.5,49.1618552 41.5,48.1188981 L41.5,48.0594491 L41.5,48 L42,48 L42.5,48 L42.5,51 L41.5,51 L41.5,50.2595077 Z M28,44 C29.3807119,44 30,45 30,46 C30,47 29.3903379,48 28,48 L26.0011561,48 L26.0011561,51 L25,51 L25,44 L28,44 Z M26,45 L26,47 L28,47 C28.5560877,47 29,46.5549039 29,46 C29,45.4439123 28.5549039,45 28,45 L26,45 Z M20.9573333,41 L20.9573333,23 L42.9573333,23 L42.9573333,41 L20.9573333,41 Z M23,39.004 L29.5,26 L33,33.5 L35,29.5 L41,38.9931116 L23,39.004 Z M22,40 L42,40 L41.876,24 L21.876,24 L22,40 Z"/>
  </g>
</svg>
