<svg xmlns="http://www.w3.org/2000/svg" xmlns:xlink="http://www.w3.org/1999/xlink" width="64" height="64" viewBox="0 0 64 64">
  <defs>
    <linearGradient id="message-c" x1="50%" x2="50%" y1="0%" y2="100%">
      <stop offset="0%" stop-color="#6F99D9"/>
      <stop offset="100%" stop-color="#2A90C8"/>
    </linearGradient>
    <path id="message-b" d="M29,0 L42,13 L42,47.5 C42,49.9852814 39.9852814,52 37.5,52 L4.5,52 C2.01471863,52 3.04359188e-16,49.9852814 0,47.5 L0,4.5 C-3.04359188e-16,2.01471863 2.01471863,4.56538782e-16 4.5,0 L29,0 Z"/>
    <filter id="message-a" width="131%" height="125%" x="-15.5%" y="-10.6%" filterUnits="objectBoundingBox">
      <feOffset dy="1" in="SourceAlpha" result="shadowOffsetOuter1"/>
      <feGaussianBlur in="shadowOffsetOuter1" result="shadowBlurOuter1" stdDeviation="2"/>
      <feColorMatrix in="shadowBlurOuter1" values="0 0 0 0 0.474509804   0 0 0 0 0.619607843   0 0 0 0 0.701960784  0 0 0 0.5 0"/>
    </filter>
    <linearGradient id="message-f" x1="50%" x2="10.489%" y1="50%" y2="91.194%">
      <stop offset="0%" stop-color="#FFF" stop-opacity=".1"/>
      <stop offset="100%" stop-color="#FFF" stop-opacity=".3"/>
    </linearGradient>
    <path id="message-e" d="M29,0 L42,13 L33.5,13 C31.0147186,13 29,10.9852814 29,8.5 L29,0 Z"/>
    <filter id="message-d" width="153.8%" height="153.8%" x="-26.9%" y="-19.2%" filterUnits="objectBoundingBox">
      <feOffset dy="1" in="SourceAlpha" result="shadowOffsetOuter1"/>
      <feGaussianBlur in="shadowOffsetOuter1" result="shadowBlurOuter1" stdDeviation="1"/>
      <feComposite in="shadowBlurOuter1" in2="SourceAlpha" operator="out" result="shadowBlurOuter1"/>
      <feColorMatrix in="shadowBlurOuter1" values="0 0 0 0 0   0 0 0 0 0   0 0 0 0 0  0 0 0 0.05 0"/>
    </filter>
  </defs>
  <g fill="none" fill-rule="evenodd">
    <g transform="translate(11 7)">
      <use fill="#000" filter="url(#message-a)" xlink:href="#message-b"/>
      <use fill="url(#message-c)" xlink:href="#message-b"/>
      <use fill="#000" filter="url(#message-d)" xlink:href="#message-e"/>
      <use fill="url(#message-f)" xlink:href="#message-e"/>
    </g>
    <path fill="#FFF" d="M41,41 L23,41 L23,28 L41,28 L41,41 Z M22,27.5 L22,41.5 C22,41.7761424 22.2238576,42 22.5,42 L41.5,42 C41.7761424,42 42,41.7761424 42,41.5 L42,27.5 C42,27.2238576 41.7761424,27 41.5,27 L22.5,27 C22.2238576,27 22,27.2238576 22,27.5 Z"/>
    <path fill="#FFF" d="M41.8624997,27.8443747 C42.0526926,27.6441717 42.0445778,27.3276932 41.8443747,27.1375003 C41.6441717,26.9473074 41.3276932,26.9554222 41.1375003,27.1556253 L32.0108042,36.7854195 L22.8624997,27.1556253 C22.6723068,26.9554222 22.3558283,26.9473074 22.1556253,27.1375003 C21.9554222,27.3276932 21.9473074,27.6441717 22.1375003,27.8443747 L27.9171306,33.9281962 L22.1095656,41.1876525 L22.8904344,41.8123475 L28.612327,34.6599818 L31.6375003,37.8443747 C31.8346256,38.0518751 32.1653744,38.0518751 32.3624997,37.8443747 L35.387673,34.6599818 L41.1095656,41.8123475 L41.8904344,41.1876525 L36.0828694,33.9281962 L41.8624997,27.8443747 Z"/>
  </g>
</svg>
