<svg xmlns="http://www.w3.org/2000/svg" xmlns:xlink="http://www.w3.org/1999/xlink" width="64" height="64" viewBox="0 0 64 64">
  <defs>
    <linearGradient id="rpm-c" x1="50%" x2="50%" y1="0%" y2="97.687%">
      <stop offset="0%" stop-color="#666E7B"/>
      <stop offset="100%" stop-color="#475055"/>
    </linearGradient>
    <path id="rpm-b" d="M29,0 L42,13 L42,47.5 C42,49.9852814 39.9852814,52 37.5,52 L4.5,52 C2.01471863,52 3.04359188e-16,49.9852814 0,47.5 L0,4.5 C-3.04359188e-16,2.01471863 2.01471863,4.56538782e-16 4.5,0 L29,0 Z"/>
    <filter id="rpm-a" width="131%" height="125%" x="-15.5%" y="-10.6%" filterUnits="objectBoundingBox">
      <feOffset dy="1" in="SourceAlpha" result="shadowOffsetOuter1"/>
      <feGaussianBlur in="shadowOffsetOuter1" result="shadowBlurOuter1" stdDeviation="2"/>
      <feColorMatrix in="shadowBlurOuter1" values="0 0 0 0 0.361595344   0 0 0 0 0.418797512   0 0 0 0 0.450973732  0 0 0 0.5 0"/>
    </filter>
    <linearGradient id="rpm-f" x1="50%" x2="10.489%" y1="50%" y2="91.194%">
      <stop offset="0%" stop-color="#FFF" stop-opacity=".1"/>
      <stop offset="100%" stop-color="#FFF" stop-opacity=".3"/>
    </linearGradient>
    <path id="rpm-e" d="M29,0 L42,13 L33.5,13 C31.0147186,13 29,10.9852814 29,8.5 L29,0 Z"/>
    <filter id="rpm-d" width="153.8%" height="153.8%" x="-26.9%" y="-19.2%" filterUnits="objectBoundingBox">
      <feOffset dy="1" in="SourceAlpha" result="shadowOffsetOuter1"/>
      <feGaussianBlur in="shadowOffsetOuter1" result="shadowBlurOuter1" stdDeviation="1"/>
      <feComposite in="shadowBlurOuter1" in2="SourceAlpha" operator="out" result="shadowBlurOuter1"/>
      <feColorMatrix in="shadowBlurOuter1" values="0 0 0 0 0   0 0 0 0 0   0 0 0 0 0  0 0 0 0.05 0"/>
    </filter>
  </defs>
  <g fill="none" fill-rule="evenodd">
    <g transform="translate(11 7)">
      <use fill="#000" filter="url(#rpm-a)" xlink:href="#rpm-b"/>
      <use fill="url(#rpm-c)" xlink:href="#rpm-b"/>
      <use fill="#000" filter="url(#rpm-d)" xlink:href="#rpm-e"/>
      <use fill="url(#rpm-f)" xlink:href="#rpm-e"/>
    </g>
    <path fill="#FFF" d="M32.0286491,32.484375 C32.4383933,32.484375 32.7843076,32.8318635 32.7924912,33.265625 C32.8170259,33.27004 32.8436052,33.271845 32.8659376,33.28125 C34.0157372,33.49117 35.1700738,33.70087 36.3179165,33.921875 C36.5936772,33.96274 36.8658428,34.02911 37.1405158,34.078125 C37.2528213,34.10508 37.3664744,34.109405 37.478369,34.140625 C38.6272069,34.354832 39.7831887,34.557402 40.930348,34.78125 C41.316092,34.841337 41.6912147,34.9331345 42.0761112,35 C43.7507362,35.312437 45.4249888,35.626123 47.0998422,35.9375 C47.4819551,36.0164875 47.8652158,36.0670265 48.2456055,36.15625 C48.2223612,36.248459 48.2131904,36.3427305 48.2015377,36.4375 C47.824139,36.37484 47.4473904,36.298435 47.0704637,36.234375 C45.2484398,35.886365 43.4268177,35.5577485 41.6060545,35.203125 C40.4674883,35.0039 39.3207013,34.77107 38.1834541,34.5625 C37.3947262,34.4134075 36.6066371,34.2775795 35.8184813,34.125 C35.0698055,33.9927625 34.3338166,33.838574 33.5857119,33.703125 C33.3080292,33.654913 33.0257456,33.597946 32.7484234,33.546875 C32.6463398,33.8592595 32.3570951,34.078125 32.0286491,34.078125 C31.61377,34.078125 31.2794962,33.7225575 31.2794962,33.28125 C31.2699541,33.27975 31.259641,33.2828 31.2501177,33.28125 C31.0207474,33.2289625 30.7907773,33.182805 30.5597219,33.140625 C30.5727942,33.0435795 30.5872014,32.955664 30.6037897,32.859375 C30.8484002,32.894773 31.0951301,32.938865 31.3382533,32.984375 C31.4492619,32.690567 31.712732,32.484375 32.0286491,32.484375 Z M20.0002144,37.0117109 C20.0011597,37.0505821 20.0025383,37.1663959 20.0035333,37.2052666 C20.7151453,37.0392714 21.3850343,36.969316 22.1128562,37.0123504 C22.6428159,37.0643208 23.1293945,37.3075996 23.6033373,37.5490974 C23.0690677,37.9030415 22.5254104,38.2439114 22.0040333,38.6183991 C21.4230423,38.1378037 20.6948896,38.136739 20.0173438,38.347014 C20.0088861,38.4246685 20.0009358,38.5025906 20.0002144,38.5812151 C20.0005577,40.3871793 20.0010104,42.1931767 20,43.9991767 C19.0210184,43.9988553 17.9805662,44.0007754 17.001592,43.9991767 C16.9995025,41.6838985 17.0031985,39.3305591 17.0005617,37.0153017 C17.9799433,37.0082416 19.0208403,37.0133629 20.0002144,37.0117109 Z M25,37.016398 C25.8107711,37.008515 26.6125618,37.0021266 27.4233989,37.0002387 C28.625034,36.9923692 29.8506584,37.1780592 30.9674443,37.7111711 C31.6610547,38.049932 32.3303413,38.5571217 32.7324629,39.310769 C33.0378504,39.8962065 33.1542997,40.6414237 32.9145678,41.2819914 C32.6331541,42.0504789 32.0291269,42.5803027 31.4157028,42.9785345 C30.3668595,43.6383084 29.4267685,43.9364167 28.2381377,44.0296599 C28.1626199,44.0347264 28.0752877,44.0422047 28,44.0458198 C27.999782,44.5290724 28.0060531,45.0166761 28,45.5 C27.213046,45.6148154 25.1369699,45.9904929 25,46 C25.001684,43.0055962 25.0007485,40.0107894 25,37.016398 Z M30.5,40.5 C30.5,39 28.7222695,37.7940322 28.0140101,37.7120545 C28.0118209,39.550916 27.9982224,41.3990521 28,43.237939 C28.5233853,43.1574974 30.5,42 30.5,40.5 Z M44,37.0054889 C45.0013764,37.0098348 46.9977736,37 46.9977736,37.8485848 C46.9977736,37.8485848 47.000506,41.949556 47,44 C46.0037736,43.9997688 44.9961475,43.9991249 44,44 C43.9997819,41.9655345 43.9939787,40.534393 44,38.5 C44,38 43.2246997,38.0306818 43,38.0016064 C42.3856016,37.9846465 42.6145011,38.0018135 42,38 C42.0001311,40.0994769 42.0032383,41.9005124 42,44 C41.0023644,43.9990342 39.9975728,43.9997512 39,43.9988294 C38.9970653,42.3171314 39.0324643,38.8678924 39,38.5016064 C38.998735,38.0016064 38.2907387,38.0031366 37.9897814,38.0016064 C37.4554168,38.0006943 37.5342628,38.0009926 37,38 C36.9973689,40.1001867 37.0050581,41.8982333 36.9989356,43.9984131 C36.0595763,43.9971254 35.1202342,43.9964815 34.1809357,43.9988294 C34.1162343,44.0042162 34.0559224,43.9910121 34,43.9592009 C34.0154529,41.6415641 34.0036937,39.3233344 34.0058897,37.0054846 C37.4285928,36.9944041 40.5771512,37.00903 44,37.0054889 Z M38.4656367,26.3604287 C40.6010831,27.0813011 42.6632557,28.2196172 44.3477444,29.9157807 C45.0365246,30.6266708 45.6594921,31.4308991 46.1379473,32.3459055 C46.7045288,33.4227179 47.0635633,34.6558837 47.1019796,35.9192517 C45.4271262,35.5818548 43.7527395,35.2415804 42.0781146,34.9030349 C42.2842213,34.1474776 42.2859812,33.3248482 42.1448443,32.5538171 C41.8832718,31.2212749 41.1420803,30.0771775 40.2480329,29.2086869 C39.5027326,28.4858738 38.6524593,27.9065928 37.7699673,27.4539757 C37.701457,27.4685442 37.6414872,27.4185973 37.5804677,27.3934472 C36.3738129,26.8195478 35.0893538,26.4864087 33.7965432,26.306134 C31.6700724,26.0551459 29.493034,26.2568048 27.4530419,27.0109952 C25.9510876,27.5708949 24.5006562,28.4342495 23.3806483,29.7362032 C22.5869303,30.6717492 21.9775314,31.8820036 21.8948145,33.2080503 C21.817846,33.8399984 21.9491225,34.4708538 22.0652472,35.0841039 C21.6216994,35.1362558 21.1871804,35.2616052 20.746741,35.339676 C19.5072306,35.5958766 18.2679266,35.8536787 17.0280683,36.1075735 C17.0158939,35.0831872 17.2478274,34.0696907 17.6169309,33.1429601 C18.3510829,31.3385409 19.6241633,29.8968606 21.042684,28.7930349 C22.0018587,28.0507599 23.038682,27.4452015 24.1155758,26.9650298 C25.5502444,26.3185495 27.0534185,25.8768406 28.5772023,25.6226587 C29.2142678,25.5098347 29.8568052,25.4273571 30.5008572,25.3882707 C30.6152751,25.3568528 30.7336245,25.3632729 30.8505154,25.3584565 C31.7643527,25.3248606 32.6794497,25.3263776 33.5929019,25.373816 C35.2415929,25.5082159 36.8819343,25.823902 38.4656367,26.3604287 Z"/>
  </g>
</svg>
