<svg xmlns="http://www.w3.org/2000/svg" xmlns:xlink="http://www.w3.org/1999/xlink" width="64" height="64" viewBox="0 0 64 64">
  <defs>
    <linearGradient id="text-x-sql-c" x1="50%" x2="50%" y1="0%" y2="98.501%">
      <stop offset="0%" stop-color="#7FCB10"/>
      <stop offset="100%" stop-color="#50A100"/>
    </linearGradient>
    <path id="text-x-sql-b" d="M29,0 L42,13 L42,47.5 C42,49.9852814 39.9852814,52 37.5,52 L4.5,52 C2.01471863,52 3.04359188e-16,49.9852814 0,47.5 L0,4.5 C-3.04359188e-16,2.01471863 2.01471863,4.56538782e-16 4.5,0 L29,0 Z"/>
    <filter id="text-x-sql-a" width="131%" height="125%" x="-15.5%" y="-10.6%" filterUnits="objectBoundingBox">
      <feOffset dy="1" in="SourceAlpha" result="shadowOffsetOuter1"/>
      <feGaussianBlur in="shadowOffsetOuter1" result="shadowBlurOuter1" stdDeviation="2"/>
      <feColorMatrix in="shadowBlurOuter1" values="0 0 0 0 0.46370117   0 0 0 0 0.679376132   0 0 0 0 0  0 0 0 0.5 0"/>
    </filter>
    <linearGradient id="text-x-sql-f" x1="50%" x2="10.489%" y1="50%" y2="91.194%">
      <stop offset="0%" stop-color="#FFF" stop-opacity=".1"/>
      <stop offset="100%" stop-color="#FFF" stop-opacity=".3"/>
    </linearGradient>
    <path id="text-x-sql-e" d="M29,0 L42,13 L33.5,13 C31.0147186,13 29,10.9852814 29,8.5 L29,0 Z"/>
    <filter id="text-x-sql-d" width="153.8%" height="153.8%" x="-26.9%" y="-19.2%" filterUnits="objectBoundingBox">
      <feOffset dy="1" in="SourceAlpha" result="shadowOffsetOuter1"/>
      <feGaussianBlur in="shadowOffsetOuter1" result="shadowBlurOuter1" stdDeviation="1"/>
      <feComposite in="shadowBlurOuter1" in2="SourceAlpha" operator="out" result="shadowBlurOuter1"/>
      <feColorMatrix in="shadowBlurOuter1" values="0 0 0 0 0   0 0 0 0 0   0 0 0 0 0  0 0 0 0.05 0"/>
    </filter>
  </defs>
  <g fill="none" fill-rule="evenodd">
    <g transform="translate(11 7)">
      <use fill="#000" filter="url(#text-x-sql-a)" xlink:href="#text-x-sql-b"/>
      <use fill="url(#text-x-sql-c)" xlink:href="#text-x-sql-b"/>
      <use fill="#000" filter="url(#text-x-sql-d)" xlink:href="#text-x-sql-e"/>
      <use fill="url(#text-x-sql-f)" xlink:href="#text-x-sql-e"/>
    </g>
    <path fill="#FFF" d="M20.9993964,29.4997245 C20.392557,29.0439152 20,28.3187078 20,27.5020869 L20,25.4979131 C20,24.1178058 21.1189742,23 22.5008642,23 L41.4991358,23 C42.8799993,23 44,24.118551 44,25.4979131 L44,27.5020869 C44,28.3193466 43.607613,29.044626 43.0006036,29.5002755 C43.607443,29.9560848 44,30.6812922 44,31.4979131 L44,33.5020869 C44,34.3193466 43.607613,35.044626 43.0006036,35.5002755 C43.607443,35.9560848 44,36.6812922 44,37.4979131 L44,39.5020869 C44,40.3193466 43.607613,41.044626 43.0006036,41.5002755 C43.607443,41.9560848 44,42.6812922 44,43.4979131 L44,45.5020869 C44,46.8821942 42.8810258,48 41.4991358,48 L22.5008642,48 C21.1200007,48 20,46.881449 20,45.5020869 L20,43.4979131 C20,42.6806534 20.392387,41.955374 20.9993964,41.4997245 C20.392557,41.0439152 20,40.3187078 20,39.5020869 L20,37.4979131 C20,36.6806534 20.392387,35.955374 20.9993964,35.4997245 C20.392557,35.0439152 20,34.3187078 20,33.5020869 L20,31.4979131 C20,30.6806534 20.392387,29.955374 20.9993964,29.4997245 Z M22.5008642,29 L41.4991358,29 C42.3289748,29 43,28.3296754 43,27.5020869 L43,25.4979131 C43,24.6711259 42.3280043,24 41.4991358,24 L22.5008642,24 C21.6710252,24 21,24.6703246 21,25.4979131 L21,27.5020869 C21,28.3288741 21.6719957,29 22.5008642,29 Z M22.5008642,30 C21.6710252,30 21,30.6703246 21,31.4979131 L21,33.5020869 C21,34.3288741 21.6719957,35 22.5008642,35 L41.4991358,35 C42.3289748,35 43,34.3296754 43,33.5020869 L43,31.4979131 C43,30.6711259 42.3280043,30 41.4991358,30 L22.5008642,30 Z M41.4991358,36 L22.5008642,36 C21.6710252,36 21,36.6703246 21,37.4979131 L21,39.5020869 C21,40.3288741 21.6719957,41 22.5008642,41 L41.4991358,41 C42.3289748,41 43,40.3296754 43,39.5020869 L43,37.4979131 C43,36.6711259 42.3280043,36 41.4991358,36 Z M22.5008642,42 C21.6710252,42 21,42.6703246 21,43.4979131 L21,45.5020869 C21,46.3288741 21.6719957,47 22.5008642,47 L41.4991358,47 C42.3289748,47 43,46.3296754 43,45.5020869 L43,43.4979131 C43,42.6711259 42.3280043,42 41.4991358,42 L22.5008642,42 Z M40.333341,26.9999695 L36.333341,27.0000305 C36.0571986,27.0000347 35.8333375,26.7761805 35.8333333,26.5000381 C35.8333291,26.2238958 36.0571833,26.0000347 36.3333257,26.0000305 L40.3333257,25.9999695 C40.6094681,25.9999653 40.8333291,26.2238195 40.8333333,26.4999619 C40.8333375,26.7761042 40.6094833,26.9999653 40.333341,26.9999695 Z M40.333341,32.9999695 L36.333341,33.0000305 C36.0571986,33.0000347 35.8333375,32.7761805 35.8333333,32.5000381 C35.8333291,32.2238958 36.0571833,32.0000347 36.3333257,32.0000305 L40.3333257,31.9999695 C40.6094681,31.9999653 40.8333291,32.2238195 40.8333333,32.4999619 C40.8333375,32.7761042 40.6094833,32.9999653 40.333341,32.9999695 Z M40.333341,38.9999695 L36.333341,39.0000305 C36.0571986,39.0000347 35.8333375,38.7761805 35.8333333,38.5000381 C35.8333291,38.2238958 36.0571833,38.0000347 36.3333257,38.0000305 L40.3333257,37.9999695 C40.6094681,37.9999653 40.8333291,38.2238195 40.8333333,38.4999619 C40.8333375,38.7761042 40.6094833,38.9999653 40.333341,38.9999695 Z M40.333341,44.9999695 L36.333341,45.0000305 C36.0571986,45.0000347 35.8333375,44.7761805 35.8333333,44.5000381 C35.8333291,44.2238958 36.0571833,44.0000347 36.3333257,44.0000305 L40.3333257,43.9999695 C40.6094681,43.9999653 40.8333291,44.2238195 40.8333333,44.4999619 C40.8333375,44.7761042 40.6094833,44.9999653 40.333341,44.9999695 Z"/>
  </g>
</svg>
