<?xml version="1.0" encoding="UTF-8"?>
<svg width="32px" height="32px" viewBox="0 0 32 32" version="1.1" xmlns="http://www.w3.org/2000/svg" xmlns:xlink="http://www.w3.org/1999/xlink">
    <title>devices/32/computer</title>
    <defs>
        <filter x="-7.1%" y="-4.2%" width="114.3%" height="116.7%" filterUnits="objectBoundingBox" id="filter-1">
            <feOffset dx="0" dy="1" in="SourceAlpha" result="shadowOffsetOuter1"></feOffset>
            <feGaussianBlur stdDeviation="0.5" in="shadowOffsetOuter1" result="shadowBlurOuter1"></feGaussianBlur>
            <feColorMatrix values="0 0 0 0 0   0 0 0 0 0   0 0 0 0 0  0 0 0 0.15 0" type="matrix" in="shadowBlurOuter1" result="shadowMatrixOuter1"></feColorMatrix>
            <feMerge>
                <feMergeNode in="shadowMatrixOuter1"></feMergeNode>
                <feMergeNode in="SourceGraphic"></feMergeNode>
            </feMerge>
        </filter>
        <linearGradient x1="50%" y1="100%" x2="50%" y2="0%" id="linearGradient-2">
            <stop stop-color="#CFDAFC" offset="0%"></stop>
            <stop stop-color="#CDCFD2" offset="100%"></stop>
        </linearGradient>
        <polygon id="path-3" points="11 21 17 21 17 23 11 23"></polygon>
        <filter x="-16.7%" y="-50.0%" width="133.3%" height="200.0%" filterUnits="objectBoundingBox" id="filter-4">
            <feGaussianBlur stdDeviation="0.5" in="SourceAlpha" result="shadowBlurInner1"></feGaussianBlur>
            <feOffset dx="0" dy="1" in="shadowBlurInner1" result="shadowOffsetInner1"></feOffset>
            <feComposite in="shadowOffsetInner1" in2="SourceAlpha" operator="arithmetic" k2="-1" k3="1" result="shadowInnerInner1"></feComposite>
            <feColorMatrix values="0 0 0 0 0.305544245   0 0 0 0 0.316030326   0 0 0 0 0.533769248  0 0 0 0.178130463 0" type="matrix" in="shadowInnerInner1"></feColorMatrix>
        </filter>
        <linearGradient x1="50%" y1="0%" x2="50%" y2="80.1038369%" id="linearGradient-5">
            <stop stop-color="#FFFFFF" offset="0%"></stop>
            <stop stop-color="#EBF4FF" offset="100%"></stop>
        </linearGradient>
        <linearGradient x1="39.598747%" y1="21.875%" x2="75.3018846%" y2="78.125%" id="linearGradient-6">
            <stop stop-color="#D7E4FF" offset="0%"></stop>
            <stop stop-color="#F4F9FF" offset="100%"></stop>
        </linearGradient>
        <linearGradient x1="46.8261315%" y1="0.564822635%" x2="46.8261315%" y2="99.6640703%" id="linearGradient-7">
            <stop stop-color="#4F5D73" offset="0%"></stop>
            <stop stop-color="#313A46" offset="100%"></stop>
        </linearGradient>
        <rect id="path-8" x="0" y="0" width="26" height="19" rx="2.25"></rect>
        <linearGradient x1="0%" y1="50%" x2="100%" y2="50%" id="linearGradient-10">
            <stop stop-color="#A09AD3" offset="0%"></stop>
            <stop stop-color="#988DD9" offset="49.6179452%"></stop>
            <stop stop-color="#1654D2" offset="100%"></stop>
        </linearGradient>
    </defs>
    <g id="devices/32/computer" stroke="none" stroke-width="1" fill="none" fill-rule="evenodd">
        <g id="矩形" filter="url(#filter-1)" transform="translate(2, 4)">
            <g>
                <use fill="url(#linearGradient-2)" fill-rule="evenodd" xlink:href="#path-3"></use>
                <use fill="black" fill-opacity="1" filter="url(#filter-4)" xlink:href="#path-3"></use>
            </g>
            <path d="M9.5,23 L18.5,23 C18.7761424,23 19,23.2238576 19,23.5 C19,23.7761424 18.7761424,24 18.5,24 L9.5,24 C9.22385763,24 9,23.7761424 9,23.5 C9,23.2238576 9.22385763,23 9.5,23 Z" fill="url(#linearGradient-5)"></path>
            <rect id="蒙版" fill="url(#linearGradient-6)" x="0" y="0" width="28" height="21" rx="3.125"></rect>
            <g id="kevin-lanceplaine-243768-unsplash" transform="translate(1, 1)">
                <mask id="mask-9" fill="white">
                    <use xlink:href="#path-8"></use>
                </mask>
                <use id="蒙版" fill="url(#linearGradient-7)" xlink:href="#path-8"></use>
                <g id="编组" mask="url(#mask-9)">
                    <g transform="translate(-0.9375, -3.875)">
                        <path d="M21.0233125,2.6875 C18.5714007,8.36258668 17.5820328,11.5130944 18.0552087,12.139023 C18.7649727,13.077916 18.5068767,15.456445 17.5390168,16.7708952 C16.5711568,18.0853455 13.5385291,18.9616456 13.2159091,20.0257244 C12.8932891,21.0898031 4.7632657,21.8409175 3.98897776,22.7172177 C3.21468982,23.5935178 4.56969372,23.2805535 4.56969372,23.5935178 C4.56969372,23.8021607 12.4631291,23.8021607 28.25,23.5935178 L28.25,2.6875 L21.0233125,2.6875 Z" id="路径-3" fill="#1C4186"></path>
                        <path d="M21.3915121,2.81453655 C22.5965279,2.81453655 22.3167921,4.48241006 20.5523047,7.81815708 C17.9055735,12.8217776 17.1309205,14.6981353 16.3562675,16.0115857 C15.5816145,17.3250361 12.0311215,22.6413829 10.5463698,23.0791997 C9.06161823,23.5170165 4.93013546,23.2042902 4.09092802,23.2042902 C3.5314564,23.2042902 3.66056523,17.4292782 4.47825453,5.87925412 L10.0299345,0 L21.3915121,2.81453655 Z" id="路径-2" fill="#E080A9"></path>
                        <path d="M10.0625,2.3125 C9.24408784,3.72916667 9.00717905,5.70833333 9.35177365,8.25 C9.86866554,12.0625 6.44425676,16.0625 7.15498311,18.9375 C7.86570946,21.8125 4.1875,24.625 4.1875,24.625 C4.1875,24.625 2.95833333,23.9791667 0.5,22.6875 L0,5.25 L2.11528716,1.8125 L10.0625,2.3125 Z" id="路径" fill="#101852"></path>
                        <path d="M19.501065,7.54516688 C18.0454156,8.61460397 17.3175908,9.80788167 17.3175908,11.125 C17.3175908,13.6875 16.0287513,16.5625 13.9021661,17.25 C11.7755809,17.9375 9.58455365,17.75 9.06901784,19.75 C8.55348203,21.75 7.00687459,20.125 6.1691289,20.9375 C5.3313832,21.75 5.52912965,23.5 4.5625,23.8125 C3.91808024,24.0208333 8.34162245,23.9375 17.8331266,23.5625 C18.4345851,19.6875 19.8523086,16.9583333 22.0862971,15.375 C25.4372799,13 19.0575242,12.3125 21.6996452,10.25 C23.4610593,8.875 23.5820108,6.35416667 22.0625,2.6875 L21.5523656,4.55999942 C21.2257729,5.75846143 20.5031076,6.81107752 19.5020251,7.54647385 Z" id="路径-4" fill="#7A6C9F"></path>
                    </g>
                </g>
                <g id="编组-2" mask="url(#mask-9)">
                    <g transform="translate(1, 14)">
                        <rect id="bg" fill="url(#linearGradient-10)" x="0" y="0" width="24" height="4" rx="0.625"></rect>
                        <rect id="矩形" fill="#00C98F" x="4" y="1" width="2" height="2" rx="0.3125"></rect>
                        <rect id="矩形备份" fill="#FF7D52" x="8" y="1" width="2" height="2" rx="0.3125"></rect>
                        <rect id="矩形备份-3" fill="#FFB656" x="11" y="1" width="2" height="2" rx="0.3125"></rect>
                        <rect id="矩形备份-4" fill-opacity="0.3" fill="#000000" x="21" y="1" width="2" height="2" rx="0.3125"></rect>
                        <rect id="矩形备份-6" fill-opacity="0.3" fill="#000000" x="18" y="1" width="2" height="2" rx="0.3125"></rect>
                        <circle id="椭圆形" fill="#326CFF" cx="2" cy="2" r="1"></circle>
                        <circle id="椭圆形备份" fill="#482AC5" cx="15" cy="2" r="1"></circle>
                    </g>
                </g>
            </g>
        </g>
    </g>
</svg>