<?xml version="1.0" encoding="UTF-8"?>
<svg width="32px" height="32px" viewBox="0 0 32 32" version="1.1" xmlns="http://www.w3.org/2000/svg" xmlns:xlink="http://www.w3.org/1999/xlink">
    <title>devices/32/drive-harddisk</title>
    <defs>
        <filter x="-8.3%" y="-3.6%" width="116.7%" height="114.3%" filterUnits="objectBoundingBox" id="filter-1">
            <feOffset dx="0" dy="1" in="SourceAlpha" result="shadowOffsetOuter1"></feOffset>
            <feGaussianBlur stdDeviation="0.5" in="shadowOffsetOuter1" result="shadowBlurOuter1"></feGaussianBlur>
            <feColorMatrix values="0 0 0 0 0   0 0 0 0 0   0 0 0 0 0  0 0 0 0.15 0" type="matrix" in="shadowBlurOuter1" result="shadowMatrixOuter1"></feColorMatrix>
            <feMerge>
                <feMergeNode in="shadowMatrixOuter1"></feMergeNode>
                <feMergeNode in="SourceGraphic"></feMergeNode>
            </feMerge>
        </filter>
        <linearGradient x1="102.549264%" y1="57.6822305%" x2="-2.65228894%" y2="57.6822305%" id="linearGradient-2">
            <stop stop-color="#0067BC" offset="0%"></stop>
            <stop stop-color="#30EA7F" offset="4.57146722%"></stop>
            <stop stop-color="#00D887" offset="9.93130604%"></stop>
            <stop stop-color="#00B160" offset="88.9446523%"></stop>
            <stop stop-color="#00C165" offset="93.7925209%"></stop>
            <stop stop-color="#008CBD" offset="100%"></stop>
        </linearGradient>
        <linearGradient x1="100%" y1="56.4295561%" x2="0%" y2="56.4295561%" id="linearGradient-3">
            <stop stop-color="#FFFFFF" stop-opacity="0.5" offset="0%"></stop>
            <stop stop-color="#FFFFFF" offset="8.38902143%"></stop>
            <stop stop-color="#FFFFFF" stop-opacity="0.8" offset="52.3560063%"></stop>
            <stop stop-color="#FFFFFF" offset="88.1683526%"></stop>
            <stop stop-color="#FFFFFF" stop-opacity="0.5" offset="100%"></stop>
        </linearGradient>
        <radialGradient cx="48.2392027%" cy="19.1031265%" fx="48.2392027%" fy="19.1031265%" r="78.6539217%" gradientTransform="translate(0.4824, 0.191), scale(0.25, 1), rotate(90), scale(1, 3.5807), translate(-0.4824, -0.191)" id="radialGradient-4">
            <stop stop-color="#7CFFFE" offset="0%"></stop>
            <stop stop-color="#D6CDE6" offset="100%"></stop>
        </radialGradient>
        <linearGradient x1="50%" y1="0%" x2="50%" y2="100%" id="linearGradient-5">
            <stop stop-color="#0174FF" offset="0%"></stop>
            <stop stop-color="#01C2FF" offset="50.8499801%"></stop>
            <stop stop-color="#0056FF" offset="100%"></stop>
        </linearGradient>
        <path d="M2.9393727,25.6875 C3.45713965,25.6875 3.8768727,25.267767 3.8768727,24.75 C3.8768727,24.232233 3.45713965,23.8125 2.9393727,23.8125 C2.42160575,23.8125 2.0018727,24.232233 2.0018727,24.75 C2.0018727,25.267767 2.42160575,25.6875 2.9393727,25.6875 Z" id="path-6"></path>
        <filter x="-26.7%" y="-26.7%" width="153.3%" height="153.3%" filterUnits="objectBoundingBox" id="filter-7">
            <feOffset dx="-1" dy="-1" in="SourceAlpha" result="shadowOffsetInner1"></feOffset>
            <feComposite in="shadowOffsetInner1" in2="SourceAlpha" operator="arithmetic" k2="-1" k3="1" result="shadowInnerInner1"></feComposite>
            <feColorMatrix values="0 0 0 0 0.200758155   0 0 0 0 0.799309772   0 0 0 0 0.127508033  0 0 0 0.5 0" type="matrix" in="shadowInnerInner1"></feColorMatrix>
        </filter>
    </defs>
    <g id="devices/32/drive-harddisk" stroke="none" stroke-width="1" fill="none" fill-rule="evenodd">
        <g id="编组-2" filter="url(#filter-1)" transform="translate(4, 2)">
            <path d="M4,0 L20,0 C22.209139,-4.05812251e-16 24,1.790861 24,4 L24,25 L24,25 L0,25 L0,4 C-2.705415e-16,1.790861 1.790861,4.05812251e-16 4,0 Z" id="Rectangle-1" fill="url(#linearGradient-2)"></path>
            <path d="M2.5,18 L21.5,18 C22.8807119,18 24,19.1192881 24,20.5 L24,25 L24,25 L0,25 L0,20.5 C-1.69088438e-16,19.1192881 1.11928813,18 2.5,18 Z" id="Rectangle-3" fill="url(#linearGradient-3)"></path>
            <path d="M21.5,18 C22.8807119,18 24,19.1192881 24,20.5 L24,25 L0,25 L0,20.5 C0,19.1192881 1.11928813,18 2.5,18 L21.5,18 Z M21.5,19 L2.5,19 C1.67157288,19 1,19.6715729 1,20.5 L1,24 L23,24 L23,20.5 C23,19.7203039 22.4051119,19.0795513 21.64446,19.0068666 L21.5,19 Z" id="Rectangle-3" fill-opacity="0.5" fill="#FFFFFF" fill-rule="nonzero"></path>
            <path d="M2.75,22 L21.25,22 C22.7687831,22 24,23.2312169 24,24.75 L24,25.25 C24,26.7687831 22.7687831,28 21.25,28 L2.75,28 C1.23121694,28 1.85997282e-16,26.7687831 0,25.25 L0,24.75 C-1.85997282e-16,23.2312169 1.23121694,22 2.75,22 Z" id="Rectangle-1" fill="url(#radialGradient-4)"></path>
            <path d="M21.25,22 C22.7687831,22 24,23.2312169 24,24.75 L24,25.25 C24,26.7687831 22.7687831,28 21.25,28 L2.75,28 C1.23121694,28 0,26.7687831 0,25.25 L0,24.75 C0,23.2312169 1.23121694,22 2.75,22 L21.25,22 Z M21.25,23 L2.75,23 C1.78350169,23 1,23.7835017 1,24.75 L1,25.25 C1,26.2164983 1.78350169,27 2.75,27 L21.25,27 C22.2164983,27 23,26.2164983 23,25.25 L23,24.75 C23,23.7835017 22.2164983,23 21.25,23 Z" id="Rectangle-1" fill-opacity="0.2" fill="#003D9C" fill-rule="nonzero"></path>
            <path d="M15.5,24 C15.7761424,24 16,24.2238576 16,24.5 L16,25.5 C16,25.7761424 15.7761424,26 15.5,26 C15.2238576,26 15,25.7761424 15,25.5 L15,24.5 C15,24.2238576 15.2238576,24 15.5,24 Z M17.5,24 C17.7761424,24 18,24.2238576 18,24.5 L18,25.5 C18,25.7761424 17.7761424,26 17.5,26 C17.2238576,26 17,25.7761424 17,25.5 L17,24.5 C17,24.2238576 17.2238576,24 17.5,24 Z M19.5,24 C19.7761424,24 20,24.2238576 20,24.5 L20,25.5 C20,25.7761424 19.7761424,26 19.5,26 C19.2238576,26 19,25.7761424 19,25.5 L19,24.5 C19,24.2238576 19.2238576,24 19.5,24 Z M21.5,24 C21.7761424,24 22,24.2238576 22,24.5 L22,25.5 C22,25.7761424 21.7761424,26 21.5,26 C21.2238576,26 21,25.7761424 21,25.5 L21,24.5 C21,24.2238576 21.2238576,24 21.5,24 Z" id="Combined-Shape" fill="url(#linearGradient-5)"></path>
            <g id="Oval">
                <use fill="#BAFF76" fill-rule="evenodd" xlink:href="#path-6"></use>
                <use fill="black" fill-opacity="1" filter="url(#filter-7)" xlink:href="#path-6"></use>
            </g>
        </g>
    </g>
</svg>