<?xml version="1.0" encoding="UTF-8"?>
<svg width="32px" height="32px" viewBox="0 0 32 32" version="1.1" xmlns="http://www.w3.org/2000/svg" xmlns:xlink="http://www.w3.org/1999/xlink">
    <title>devices/32/media-dvd</title>
    <defs>
        <filter x="-6.9%" y="-3.4%" width="113.8%" height="113.8%" filterUnits="objectBoundingBox" id="filter-1">
            <feOffset dx="0" dy="1" in="SourceAlpha" result="shadowOffsetOuter1"></feOffset>
            <feGaussianBlur stdDeviation="0.5" in="shadowOffsetOuter1" result="shadowBlurOuter1"></feGaussianBlur>
            <feColorMatrix values="0 0 0 0 0   0 0 0 0 0   0 0 0 0 0  0 0 0 0.15 0" type="matrix" in="shadowBlurOuter1" result="shadowMatrixOuter1"></feColorMatrix>
            <feMerge>
                <feMergeNode in="shadowMatrixOuter1"></feMergeNode>
                <feMergeNode in="SourceGraphic"></feMergeNode>
            </feMerge>
        </filter>
        <linearGradient x1="28.8395889%" y1="5.6059543%" x2="73.7075197%" y2="93.9492692%" id="linearGradient-2">
            <stop stop-color="#5CD4FB" offset="0%"></stop>
            <stop stop-color="#FFADF1" offset="47.7870472%"></stop>
            <stop stop-color="#7DF8FF" offset="100%"></stop>
        </linearGradient>
    </defs>
    <g id="devices/32/media-dvd" stroke="none" stroke-width="1" fill="none" fill-rule="evenodd">
        <g id="Group" filter="url(#filter-1)" transform="translate(1.5, 1.5)">
            <g id="Group-4" transform="translate(9.6667, 9.6667)"></g>
            <path d="M14.5,0 C22.5081289,0 29,6.49187113 29,14.5 C29,22.5081289 22.5081289,29 14.5,29 C6.49187113,29 0,22.5081289 0,14.5 C0,6.49187113 6.49187113,0 14.5,0 Z M14.5,9.66666667 C11.8306237,9.66666667 9.66666667,11.8306237 9.66666667,14.5 C9.66666667,17.1693763 11.8306237,19.3333333 14.5,19.3333333 C17.1693763,19.3333333 19.3333333,17.1693763 19.3333333,14.5 C19.3333333,11.8306237 17.1693763,9.66666667 14.5,9.66666667 Z" id="Combined-Shape" fill="url(#linearGradient-2)"></path>
            <path d="M28.3095238,14.5 C28.3095238,6.8732106 22.1267894,0.69047619 14.5,0.69047619 C6.8732106,0.69047619 0.69047619,6.8732106 0.69047619,14.5 C0.69047619,22.1267894 6.8732106,28.3095238 14.5,28.3095238 C22.1267894,28.3095238 28.3095238,22.1267894 28.3095238,14.5 Z M14.5,21.4047619 C18.3133947,21.4047619 21.4047619,18.3133947 21.4047619,14.5 C21.4047619,10.6866053 18.3133947,7.5952381 14.5,7.5952381 C10.6866053,7.5952381 7.5952381,10.6866053 7.5952381,14.5 C7.5952381,18.3133947 10.6866053,21.4047619 14.5,21.4047619 L14.5,21.4047619 Z" id="Combined-Shape" fill="#FFFFFF" opacity="0.39738806"></path>
            <path d="M14.5,19.3333333 C17.1693763,19.3333333 19.3333333,17.1693763 19.3333333,14.5 C19.3333333,11.8306237 17.1693763,9.66666667 14.5,9.66666667 C11.8306237,9.66666667 9.66666667,11.8306237 9.66666667,14.5 C9.66666667,17.1693763 11.8306237,19.3333333 14.5,19.3333333 L14.5,19.3333333 Z M14.5,16.5714286 C15.6440184,16.5714286 16.5714286,15.6440184 16.5714286,14.5 C16.5714286,13.3559816 15.6440184,12.4285714 14.5,12.4285714 C13.3559816,12.4285714 12.4285714,13.3559816 12.4285714,14.5 C12.4285714,15.6440184 13.3559816,16.5714286 14.5,16.5714286 L14.5,16.5714286 Z" id="Combined-Shape" fill="#CBD4E5" opacity="0.8"></path>
            <path d="M14.5,21.4047619 C18.3133947,21.4047619 21.4047619,18.3133947 21.4047619,14.5 C21.4047619,10.6866053 18.3133947,7.5952381 14.5,7.5952381 C10.6866053,7.5952381 7.5952381,10.6866053 7.5952381,14.5 C7.5952381,18.3133947 10.6866053,21.4047619 14.5,21.4047619 L14.5,21.4047619 Z M14.5,18.6428571 C16.7880368,18.6428571 18.6428571,16.7880368 18.6428571,14.5 C18.6428571,12.2119632 16.7880368,10.3571429 14.5,10.3571429 C12.2119632,10.3571429 10.3571429,12.2119632 10.3571429,14.5 C10.3571429,16.7880368 12.2119632,18.6428571 14.5,18.6428571 L14.5,18.6428571 Z" id="Combined-Shape" fill="#B792AF" opacity="0.4"></path>
            <path d="M14.5,0.69047619 C13.065313,0.69047619 11.6792919,0.898839916 10.3705473,1.2869569 C10.3705473,1.28695689 13.8333113,12.4285714 13.8333113,12.4741763 C14.0512391,12.4441094 14.273805,12.4285714 14.5,12.4285714 C14.7440675,12.4285714 14.9839098,12.4466619 15.2182591,12.481575 C15.2182591,12.4466621 18.6706595,1.28695689 18.6706595,1.29924408 C17.349814,0.903239268 15.9497537,0.69047619 14.5,0.69047619 Z M14.5,28.3157927 C13.065313,28.3157927 11.6792919,28.107429 10.3705473,27.719312 C10.3705473,27.7193121 13.8263824,16.526681 13.8263824,16.5311316 C14.0465208,16.5618283 14.2714072,16.5776975 14.5,16.5776975 C14.7391913,16.5776975 14.9743246,16.5603227 15.2042064,16.526681 C15.4493153,16.4909873 18.6706595,27.7193121 18.6706595,27.7070249 C17.349814,28.1030297 15.9497537,28.3157927 14.5,28.3157927 Z" id="Combined-Shape" fill="#FFFFFF" opacity="0.25" transform="translate(14.5206, 14.5031) rotate(-30) translate(-14.5206, -14.5031)"></path>
        </g>
        <path d="M12.125,24.362 L12.125,27.218 L13.117,27.218 C13.565,27.218 13.909,27.086 14.149,26.826 C14.377,26.578 14.493,26.23 14.493,25.79 C14.493,25.342 14.385,24.994 14.173,24.754 C13.941,24.49 13.601,24.362 13.149,24.362 L12.125,24.362 Z M12.453,24.646 L13.097,24.646 C13.473,24.646 13.745,24.742 13.921,24.938 C14.085,25.122 14.169,25.406 14.169,25.79 C14.169,26.162 14.077,26.446 13.901,26.638 C13.713,26.834 13.433,26.934 13.061,26.934 L12.453,26.934 L12.453,24.646 Z M14.681,24.362 L15.737,27.218 L16.141,27.218 L17.197,24.362 L16.837,24.362 L15.945,26.862 L15.933,26.862 L15.041,24.362 L14.681,24.362 Z M17.505,24.362 L17.505,27.218 L18.497,27.218 C18.945,27.218 19.289,27.086 19.529,26.826 C19.757,26.578 19.873,26.23 19.873,25.79 C19.873,25.342 19.765,24.994 19.553,24.754 C19.321,24.49 18.981,24.362 18.529,24.362 L17.505,24.362 Z M17.833,24.646 L18.477,24.646 C18.853,24.646 19.125,24.742 19.301,24.938 C19.465,25.122 19.549,25.406 19.549,25.79 C19.549,26.162 19.457,26.446 19.281,26.638 C19.093,26.834 18.813,26.934 18.441,26.934 L17.833,26.934 L17.833,24.646 Z" id="DVD" fill="#8F859E"></path>
        <g id="Guide/32" transform="translate(1, 1)"></g>
    </g>
</svg>