<svg xmlns="http://www.w3.org/2000/svg" xmlns:xlink="http://www.w3.org/1999/xlink" width="96" height="96" viewBox="0 0 96 96">
  <defs>
    <linearGradient id="audio-x-vorbis+ogg-c" x1="50%" x2="50%" y1="0%" y2="100%">
      <stop offset="0%" stop-color="#549807"/>
      <stop offset="100%" stop-color="#458300"/>
    </linearGradient>
    <path id="audio-x-vorbis+ogg-b" d="M64,69 C64,73.9705627 59.9705627,78 55,78 L9,78 C4.02943725,78 6.08718376e-16,73.9705627 0,69 L0,9 C-6.08718376e-16,4.02943725 4.02943725,4.46579124e-15 9,0 L42,0 L64,22 L64,69 Z"/>
    <filter id="audio-x-vorbis+ogg-a" width="131.2%" height="125.6%" x="-15.6%" y="-10.3%" filterUnits="objectBoundingBox">
      <feOffset dy="2" in="SourceAlpha" result="shadowOffsetOuter1"/>
      <feGaussianBlur in="shadowOffsetOuter1" result="shadowBlurOuter1" stdDeviation="3"/>
      <feColorMatrix in="shadowBlurOuter1" values="0 0 0 0 0.286130341   0 0 0 0 0.419214221   0 0 0 0 0  0 0 0 0.2 0"/>
    </filter>
    <linearGradient id="audio-x-vorbis+ogg-f" x1="50%" x2="11.493%" y1="50%" y2="88.683%">
      <stop offset="0%" stop-color="#FFF" stop-opacity=".1"/>
      <stop offset="100%" stop-color="#FFF" stop-opacity=".3"/>
    </linearGradient>
    <path id="audio-x-vorbis+ogg-e" d="M42,0 L64,22 L51,22 C46.0294373,22 42,17.9705627 42,13 L42,0 L42,0 Z"/>
    <filter id="audio-x-vorbis+ogg-d" width="190.9%" height="190.9%" x="-45.5%" y="-36.4%" filterUnits="objectBoundingBox">
      <feOffset dy="2" in="SourceAlpha" result="shadowOffsetOuter1"/>
      <feGaussianBlur in="shadowOffsetOuter1" result="shadowBlurOuter1" stdDeviation="3"/>
      <feComposite in="shadowBlurOuter1" in2="SourceAlpha" operator="out" result="shadowBlurOuter1"/>
      <feColorMatrix in="shadowBlurOuter1" values="0 0 0 0 0   0 0 0 0 0   0 0 0 0 0  0 0 0 0.05 0"/>
    </filter>
  </defs>
  <g fill="none" fill-rule="evenodd">
    <g transform="translate(16 10)">
      <use fill="#000" filter="url(#audio-x-vorbis+ogg-a)" xlink:href="#audio-x-vorbis+ogg-b"/>
      <use fill="url(#audio-x-vorbis+ogg-c)" xlink:href="#audio-x-vorbis+ogg-b"/>
      <use fill="#000" filter="url(#audio-x-vorbis+ogg-d)" xlink:href="#audio-x-vorbis+ogg-e"/>
      <use fill="url(#audio-x-vorbis+ogg-f)" xlink:href="#audio-x-vorbis+ogg-e"/>
    </g>
    <path fill="#FFF" fill-opacity=".6" d="M35,70 C36.6591592,70 38,71.3423926 38,73.009763 L38,74.990237 C38,76.6589684 36.6657915,78 35,78 C33.3408408,78 32,76.6576074 32,74.990237 L32,73.009763 C32,71.3410316 33.3342085,70 35,70 Z M35,68 C37.6915035,68 39.8819628,70.1220833 39.9953862,72.7921051 L40,73.009763 L40,74.990237 C40,77.7612606 37.7726512,80 35,80 C32.3084965,80 30.1180372,77.8779167 30.0046138,75.2078949 L30,74.990237 L30,73.009763 C30,70.2387394 32.2273488,68 35,68 Z M47.0000001,68 C49.2227236,68 51.1539406,69.4643667 51.7854289,71.5473071 L51.8460775,71.7649555 L49.9078498,72.258183 C49.5727203,70.9412302 48.3790416,70 47.0000001,70 C45.3937011,70 44.0957235,71.2469541 44.0050597,72.8322705 L44,73.009763 L44,74.990237 C44,76.6576074 45.3408408,78 47,78 C48.2441507,78 49.3037138,77.2498908 49.7601064,76.1727336 L49.8270949,76 L48,76 L48,74 L52.0000001,74 L52,80 L50,80 L50,79.0017842 C49.1658183,79.6288814 48.1281007,80 47,80 C44.3084965,80 42.1180372,77.8779167 42.0046138,75.2078949 L42,74.990237 L42,73.009763 C42,70.2387394 44.2273488,68 47.0000001,68 Z M59.0000001,68 C61.2227236,68 63.1539406,69.4643667 63.7854289,71.5473071 L63.8460775,71.7649555 L61.9078498,72.258183 C61.5727203,70.9412302 60.3790416,70 59.0000001,70 C57.3937011,70 56.0957235,71.2469541 56.0050597,72.8322705 L56,73.009763 L56,74.990237 C56,76.6576074 57.3408408,78 59,78 C60.2441507,78 61.3037138,77.2498908 61.7601064,76.1727336 L61.8270949,76 L60,76 L60,74 L64.0000001,74 L64,80 L62,80 L62,79.0017842 C61.1658183,79.6288814 60.1281007,80 59,80 C56.3084965,80 54.1180372,77.8779167 54.0046138,75.2078949 L54,74.990237 L54,73.009763 C54,70.2387394 56.2273488,68 59.0000001,68 Z M48,28 C57.9252,28 66,36.0748 66,46 C66,55.9252 57.9252,64 48,64 C38.0748,64 30,55.9252 30,46 C30,36.0748 38.0748,28 48,28 Z M48,30 C39.1786667,30 32,37.1768889 32,46 C32,54.8231111 39.1786667,62 48,62 C56.8213333,62 64,54.8231111 64,46 C64,37.1768889 56.8213333,30 48,30 Z M49.1274718,32.932 C49.6412218,32.930125 50.1303625,33.4362578 50.1894982,34.0878496 L50.1894982,34.0878496 L50.1954718,34.22 L50.1954718,34.586 L50.1970143,34.6400708 C50.2284271,35.2026722 50.7564396,36.4189677 53.3054718,38.008 C53.3054718,38.008 56.7454718,39.866 57.7214718,43.222 C57.7214718,43.222 58.7934718,46.216 57.0454718,49.994 C57.0454718,49.994 56.8794718,50.342 56.5154718,50.196 C56.2274718,50.08 56.3254718,49.714 56.3254718,49.714 C56.3254718,49.714 57.5034718,46.77 56.5234718,44.384 C56.5234718,44.384 55.6194718,41.106 50.0334718,39.618 L50.0334718,39.618 L50.0330706,39.7997847 C50.0295814,41.3663041 50.0040683,52.5310175 49.9854718,52.624 C49.9634718,54.528 48.3814718,56.528 45.9514718,57.474 C42.9854718,58.628 39.8854718,57.774 39.0254718,55.568 C38.1654718,53.36 39.8354718,50.516 42.8454718,49.478 C44.7818929,48.8110526 46.4867572,48.8208255 47.8376258,49.4341954 L47.8376258,49.4341954 L48.0594718,49.542 L48.0954718,34.228 L48.1021741,34.0871182 C48.1622807,33.4392356 48.6178718,32.9338667 49.1274718,32.932 Z"/>
  </g>
</svg>
