<svg xmlns="http://www.w3.org/2000/svg" xmlns:xlink="http://www.w3.org/1999/xlink" width="96" height="96" viewBox="0 0 96 96">
  <defs>
    <linearGradient id="image-gif-c" x1="50%" x2="50%" y1="0%" y2="100%">
      <stop offset="0%" stop-color="#079473"/>
      <stop offset="100%" stop-color="#005F56"/>
    </linearGradient>
    <path id="image-gif-b" d="M64,69 C64,73.9705627 59.9705627,78 55,78 L9,78 C4.02943725,78 6.08718376e-16,73.9705627 0,69 L0,9 C-6.08718376e-16,4.02943725 4.02943725,4.46579124e-15 9,0 L42,0 L64,22 L64,69 Z"/>
    <filter id="image-gif-a" width="131.2%" height="125.6%" x="-15.6%" y="-10.3%" filterUnits="objectBoundingBox">
      <feOffset dy="2" in="SourceAlpha" result="shadowOffsetOuter1"/>
      <feGaussianBlur in="shadowOffsetOuter1" result="shadowBlurOuter1" stdDeviation="3"/>
      <feColorMatrix in="shadowBlurOuter1" values="0 0 0 0 0.150370695   0 0 0 0 0.486016757   0 0 0 0 0.407212899  0 0 0 0.2 0"/>
    </filter>
    <linearGradient id="image-gif-f" x1="50%" x2="11.493%" y1="50%" y2="88.683%">
      <stop offset="0%" stop-color="#FFF" stop-opacity=".1"/>
      <stop offset="100%" stop-color="#FFF" stop-opacity=".3"/>
    </linearGradient>
    <path id="image-gif-e" d="M42,0 L64,22 L51,22 C46.0294373,22 42,17.9705627 42,13 L42,0 L42,0 Z"/>
    <filter id="image-gif-d" width="190.9%" height="190.9%" x="-45.5%" y="-36.4%" filterUnits="objectBoundingBox">
      <feOffset dy="2" in="SourceAlpha" result="shadowOffsetOuter1"/>
      <feGaussianBlur in="shadowOffsetOuter1" result="shadowBlurOuter1" stdDeviation="3"/>
      <feComposite in="shadowBlurOuter1" in2="SourceAlpha" operator="out" result="shadowBlurOuter1"/>
      <feColorMatrix in="shadowBlurOuter1" values="0 0 0 0 0   0 0 0 0 0   0 0 0 0 0  0 0 0 0.05 0"/>
    </filter>
  </defs>
  <g fill="none" fill-rule="evenodd">
    <g transform="translate(16 10)">
      <use fill="#000" filter="url(#image-gif-a)" xlink:href="#image-gif-b"/>
      <use fill="url(#image-gif-c)" xlink:href="#image-gif-b"/>
      <use fill="#000" filter="url(#image-gif-d)" xlink:href="#image-gif-e"/>
      <use fill="url(#image-gif-f)" xlink:href="#image-gif-e"/>
    </g>
    <path fill="#FFF" fill-opacity=".6" d="M31.936,60 L63.936,60 L63.936,32 L31.936,32 L31.936,60 Z M41.0000001,66 C43.2227236,66 45.1539406,67.4643667 45.7854289,69.5473071 L45.8460775,69.7649555 L43.9078498,70.258183 C43.5727203,68.9412302 42.3790416,68 41.0000001,68 C39.3937011,68 38.0957235,69.2469541 38.0050597,70.8322705 L38,71.009763 L38,72.990237 C38,74.6576074 39.3408408,76 41,76 C42.2441507,76 43.3037138,75.2498908 43.7601064,74.1727336 L43.8270949,74 L42,74 L42,72 L46.0000001,72 L46.0000001,72.9831356 L46,72.9836151 L46,78 L44,78 L44,77.0017842 C43.1658183,77.6288814 42.1281007,78 41,78 C38.3084965,78 36.1180372,75.8779167 36.0046138,73.2078949 L36,72.990237 L36,71.009763 C36,68.2387394 38.2273488,66 41.0000001,66 Z M50,66 L50,78 L48,78 L48,66 L50,66 Z M60,66 L60,68 L54,68 L54,72 L58,72 L58,74 L54,74 L54,78 L52,78 L52,66 L60,66 Z M62,34 L62,58 L34,58 L34,34 L62,34 Z M44,38 L35.9999992,55.9860006 L60,55.9860006 L52.512,42.484 L49,48 L44,38 Z"/>
  </g>
</svg>
