<svg xmlns="http://www.w3.org/2000/svg" xmlns:xlink="http://www.w3.org/1999/xlink" width="96" height="96" viewBox="0 0 96 96">
  <defs>
    <linearGradient id="message-c" x1="50%" x2="50%" y1="0%" y2="100%">
      <stop offset="0%" stop-color="#5D89CD"/>
      <stop offset="100%" stop-color="#156EA0"/>
    </linearGradient>
    <path id="message-b" d="M64,69 C64,73.9705627 59.9705627,78 55,78 L9,78 C4.02943725,78 6.08718376e-16,73.9705627 0,69 L0,9 C-6.08718376e-16,4.02943725 4.02943725,4.46579124e-15 9,0 L42,0 L64,22 L64,69 Z"/>
    <filter id="message-a" width="131.2%" height="125.6%" x="-15.6%" y="-10.3%" filterUnits="objectBoundingBox">
      <feOffset dy="2" in="SourceAlpha" result="shadowOffsetOuter1"/>
      <feGaussianBlur in="shadowOffsetOuter1" result="shadowBlurOuter1" stdDeviation="3"/>
      <feColorMatrix in="shadowBlurOuter1" values="0 0 0 0 0.474509804   0 0 0 0 0.619607843   0 0 0 0 0.701960784  0 0 0 0.2 0"/>
    </filter>
    <linearGradient id="message-f" x1="50%" x2="11.493%" y1="50%" y2="88.683%">
      <stop offset="0%" stop-color="#FFF" stop-opacity=".1"/>
      <stop offset="100%" stop-color="#FFF" stop-opacity=".3"/>
    </linearGradient>
    <path id="message-e" d="M42,0 L64,22 L51,22 C46.0294373,22 42,17.9705627 42,13 L42,0 L42,0 Z"/>
    <filter id="message-d" width="190.9%" height="190.9%" x="-45.5%" y="-36.4%" filterUnits="objectBoundingBox">
      <feOffset dy="2" in="SourceAlpha" result="shadowOffsetOuter1"/>
      <feGaussianBlur in="shadowOffsetOuter1" result="shadowBlurOuter1" stdDeviation="3"/>
      <feComposite in="shadowBlurOuter1" in2="SourceAlpha" operator="out" result="shadowBlurOuter1"/>
      <feColorMatrix in="shadowBlurOuter1" values="0 0 0 0 0   0 0 0 0 0   0 0 0 0 0  0 0 0 0.05 0"/>
    </filter>
  </defs>
  <g fill="none" fill-rule="evenodd">
    <g transform="translate(16 10)">
      <use fill="#000" filter="url(#message-a)" xlink:href="#message-b"/>
      <use fill="url(#message-c)" xlink:href="#message-b"/>
      <use fill="#000" filter="url(#message-d)" xlink:href="#message-e"/>
      <use fill="url(#message-f)" xlink:href="#message-e"/>
    </g>
    <path fill="#FFF" fill-opacity=".6" d="M63,40 C63.0034008,40 63.0067976,40.000017 63.0101903,40.0000508 C63.0298195,40.0002529 63.0488393,40.0009928 63.0678328,40.002273 C63.0903623,40.0037727 63.1127222,40.0060319 63.1348525,40.009015 C63.148768,40.0109331 63.1628443,40.0131396 63.1768794,40.015648 C63.2008381,40.0198733 63.2243977,40.0249789 63.2476323,40.0308981 C63.2630398,40.0348821 63.2780716,40.0390907 63.2930203,40.0436587 C63.3145118,40.0501896 63.3358206,40.0575153 63.3567906,40.0655266 C63.3724205,40.0714906 63.3881503,40.0779504 63.4037441,40.0848302 C63.4249604,40.0942419 63.4452895,40.1040828 63.4652211,40.1145769 C63.477552,40.120999 63.490244,40.1280251 63.5028138,40.1353497 C63.5252936,40.1485271 63.546961,40.1623135 63.5680412,40.1768889 C63.6081001,40.2045241 63.6469876,40.2358189 63.6839411,40.2704628 L63.6030637,40.2022372 C63.6273463,40.2206222 63.6507635,40.2400903 63.6732432,40.2605697 L63.6839411,40.2704628 C63.6853035,40.27174 63.6866614,40.2730201 63.688015,40.2743031 C63.7086488,40.2938653 63.728517,40.3143772 63.747486,40.3357064 C63.7579079,40.3473356 63.7677114,40.3588688 63.7772127,40.3705709 C63.8489563,40.459132 63.9060651,40.5604609 63.9444655,40.6705611 C63.9485831,40.6825975 63.9526003,40.6949055 63.9563734,40.7072739 C63.9636943,40.7308814 63.9701035,40.7550309 63.9756142,40.7795204 C63.9794167,40.7969707 63.9828322,40.8142912 63.9857876,40.8316778 C63.9951297,40.8859327 64,40.9423976 64,41 L63.9952761,40.9027811 C63.9960858,40.9111039 63.9967915,40.9194355 63.9973933,40.9277738 L64,41 L64,63 C64,63.5522847 63.5522847,64 63,64 L63,64 L33,64 C32.4477153,64 32,63.5522847 32,63 L32,63 L32,41 C32,40.9828043 32.000434,40.96571 32.0012917,40.9487274 C32.0022347,40.9303787 32.0037678,40.9110277 32.0058607,40.8917293 C32.0080388,40.8709676 32.0108366,40.8508811 32.0142216,40.8309947 C32.0171678,40.8142912 32.0205833,40.7969707 32.0244583,40.779736 C32.0298965,40.7550309 32.0363057,40.7308814 32.0435769,40.7071084 C32.0473997,40.6949055 32.0514169,40.6825975 32.055678,40.6703577 C32.0939349,40.5604609 32.1510437,40.459132 32.2230523,40.3703829 C32.2511826,40.3355987 32.2822762,40.302134 32.3160589,40.2704628 L32.252514,40.3357064 C32.271483,40.3143772 32.2913512,40.2938653 32.312059,40.2742303 C32.3196102,40.2671334 32.3231794,40.263835 32.3267661,40.2605675 C32.3492365,40.2400903 32.3726537,40.2206222 32.3969363,40.2022372 C32.408832,40.1931978 32.420523,40.1847395 32.4323474,40.1765664 C32.453039,40.1623135 32.4747064,40.1485271 32.4969182,40.1355722 C32.509756,40.1280251 32.522448,40.120999 32.5352523,40.1142713 C32.5547105,40.1040828 32.5750396,40.0942419 32.5957378,40.0850829 C32.6118497,40.0779504 32.6275795,40.0714906 32.6434286,40.0654502 C32.6641794,40.0575153 32.6854882,40.0501896 32.7071084,40.0435769 C32.7219284,40.0390907 32.7369602,40.0348821 32.7520619,40.0310323 C32.7756023,40.0249789 32.7991619,40.0198733 32.8230145,40.0156134 C32.8371557,40.0131396 32.851232,40.0109331 32.8653393,40.0090284 C32.9092514,40.00307 32.9542672,40 33,40 L32.9321672,40.002273 C32.9511607,40.0009928 32.9701805,40.0002529 32.9892017,40.0000526 L33,40 Z M52.3780164,53.79223 L48.7295372,57.6839411 C48.3344636,58.105353 47.6655364,58.105353 47.2704628,57.6839411 L47.2704628,57.6839411 L43.6219836,53.79223 L35.4139967,62 L60.5839967,61.999 L52.3780164,53.79223 Z M61.9999967,43.527 L53.7466102,52.3323966 L61.9999967,60.585 L61.9999967,43.527 Z M33.9999967,43.528 L33.9999967,60.584 L42.2533898,52.3323966 L33.9999967,43.528 Z M60.6910888,41.9999912 L35.3081944,41.9999599 C38.2140952,45.0995874 44.4374892,51.7378743 47.9968938,55.5345726 C47.9968938,55.5345726 56.9764295,45.96057 60.6910888,41.9999912 Z"/>
  </g>
</svg>
