<svg xmlns="http://www.w3.org/2000/svg" xmlns:xlink="http://www.w3.org/1999/xlink" width="96" height="96" viewBox="0 0 96 96">
  <defs>
    <linearGradient id="x-office-drawing-c" x1="50%" x2="50%" y1="0%" y2="97.95%">
      <stop offset="0%" stop-color="#6A3DAF"/>
      <stop offset="100%" stop-color="#4C1974"/>
    </linearGradient>
    <path id="x-office-drawing-b" d="M64,69 C64,73.9705627 59.9705627,78 55,78 L9,78 C4.02943725,78 6.08718376e-16,73.9705627 0,69 L0,9 C-6.08718376e-16,4.02943725 4.02943725,4.46579124e-15 9,0 L42,0 L64,22 L64,69 Z"/>
    <filter id="x-office-drawing-a" width="131.2%" height="125.6%" x="-15.6%" y="-10.3%" filterUnits="objectBoundingBox">
      <feOffset dy="2" in="SourceAlpha" result="shadowOffsetOuter1"/>
      <feGaussianBlur in="shadowOffsetOuter1" result="shadowBlurOuter1" stdDeviation="3"/>
      <feColorMatrix in="shadowBlurOuter1" values="0 0 0 0 0.339328004   0 0 0 0 0   0 0 0 0 0.621603261  0 0 0 0.2 0"/>
    </filter>
    <linearGradient id="x-office-drawing-f" x1="50%" x2="11.493%" y1="50%" y2="88.683%">
      <stop offset="0%" stop-color="#FFF" stop-opacity=".1"/>
      <stop offset="100%" stop-color="#FFF" stop-opacity=".3"/>
    </linearGradient>
    <path id="x-office-drawing-e" d="M42,0 L64,22 L51,22 C46.0294373,22 42,17.9705627 42,13 L42,0 L42,0 Z"/>
    <filter id="x-office-drawing-d" width="190.9%" height="190.9%" x="-45.5%" y="-36.4%" filterUnits="objectBoundingBox">
      <feOffset dy="2" in="SourceAlpha" result="shadowOffsetOuter1"/>
      <feGaussianBlur in="shadowOffsetOuter1" result="shadowBlurOuter1" stdDeviation="3"/>
      <feComposite in="shadowBlurOuter1" in2="SourceAlpha" operator="out" result="shadowBlurOuter1"/>
      <feColorMatrix in="shadowBlurOuter1" values="0 0 0 0 0   0 0 0 0 0   0 0 0 0 0  0 0 0 0.05 0"/>
    </filter>
  </defs>
  <g fill="none" fill-rule="evenodd">
    <g transform="translate(16 10)">
      <use fill="#000" filter="url(#x-office-drawing-a)" xlink:href="#x-office-drawing-b"/>
      <use fill="url(#x-office-drawing-c)" xlink:href="#x-office-drawing-b"/>
      <use fill="#000" filter="url(#x-office-drawing-d)" xlink:href="#x-office-drawing-e"/>
      <use fill="url(#x-office-drawing-f)" xlink:href="#x-office-drawing-e"/>
    </g>
    <path fill="#FFF" fill-opacity=".6" d="M61,34 C61.5522847,34 62,34.4477153 62,35 C62,35.5128358 61.6139598,35.9355072 61.1166211,35.9932723 L61,36 L36,36 C36.8257604,36.6713749 37.9230132,37.5186566 38.7000194,38.3302368 C45.6527171,45.5923051 46.4593879,54.4119473 37.3864612,64.0265621 C37.3450775,64.0704166 54.1638908,64.0142278 58.1711857,64.0021843 C58.5812271,62.8357958 59.6930083,62 61,62 C62.6568542,62 64,63.3431458 64,65 C64,66.6568542 62.6568542,68 61,68 C59.6941178,68 58.5831148,67.1656226 58.1710242,66.0009007 L36.0499992,66 C36.0499992,66 36.0300331,65.4535951 36.0062516,64.8027799 L36,64.662 L36,69 L29,69 L29,62 L36,62 L36,62.581 L36.2139977,62.3539989 C44.21537,53.7022442 43.4381491,46.1712361 37.2553689,39.7133439 C36.210199,38.6216676 35.0878437,37.6617515 33.966383,36.8440745 C33.5750815,36.5587695 32.5676716,35.9047063 32.5038611,35.8682431 C31.6477543,35.3790393 31.948617,34.1033163 32.8846594,34.0059074 L33,34 L61,34 Z M34,64 L31,64 L31,67 L34,67 L34,64 Z M61,64 C60.4477153,64 60,64.4477153 60,65 C60,65.5522847 60.4477153,66 61,66 C61.5522847,66 62,65.5522847 62,65 C62,64.4477153 61.5522847,64 61,64 Z"/>
  </g>
</svg>
