<svg xmlns="http://www.w3.org/2000/svg" width="16" height="16" viewBox="0 0 16 16">
  <defs>
    <linearGradient id="deepin-repair-tools-a" x1="50%" x2="50%" y1="0%" y2="100%">
      <stop offset="0%" stop-color="#6CAB02" stop-opacity=".5"/>
      <stop offset="11.581%" stop-color="#88B927"/>
      <stop offset="12.294%" stop-color="#739D21" stop-opacity=".982"/>
      <stop offset="100%" stop-color="#508F06"/>
    </linearGradient>
  </defs>
  <g fill="none" fill-rule="evenodd" transform="translate(1 1)">
    <path fill="url(#deepin-repair-tools-a)" d="M0.144273443,0.754083726 L0.686276126,0.171642 C0.788140422,0.0621775669 0.93093564,2.74679549e-17 1.08046422,0 L12.9195358,0 C13.0690644,-1.02666868e-15 13.2118596,0.0621775669 13.3137239,0.171642 L13.8557266,0.754083726 C13.9484518,0.853727216 14,0.984790106 14,1.12090326 L14,13.7113402 L14,13.7113402 C14,13.8707626 13.878291,14 13.7281553,14 L0.27184466,14 C0.121709,14 0,13.8707626 0,13.7113402 L0,1.12090326 C4.27420155e-16,0.984790106 0.0515482204,0.853727216 0.144273443,0.754083726 Z"/>
    <path fill="#FFF" fill-rule="nonzero" d="M4.12692416,10.332688 L6.42272821,7.70715303 C6.43928881,7.76041132 6.46251617,7.81139011 6.49209465,7.85876866 L6.54118626,7.92697122 L7.15552885,8.67146154 L4.99849976,11.1395337 C5.00419465,11.1840463 5.00762263,11.2177032 5.0087837,11.2405043 C5.03575917,11.7702495 4.64150318,12.2208934 4.12677925,12.2486562 C3.61205532,12.2764191 3.17418981,11.8706576 3.14721434,11.3409124 C3.12023887,10.8111672 3.51542564,10.3604731 4.02921879,10.3327605 C4.05115583,10.3315772 4.08372429,10.3315531 4.12692416,10.332688 L6.42272821,7.70715303 Z M7.08462681,2.29040706 L8.02351486,2.35754246 L7.53751196,2.85161364 C7.49724173,2.8665028 7.43141469,2.88715805 7.39055101,2.89772332 C7.39055101,2.89772332 6.7971813,3.03326382 6.32645771,3.38577947 C5.85573412,3.73829513 5.72771737,4.34441376 6.08784753,5.05750274 C6.29913818,5.47587656 6.4370718,5.62032327 6.72611722,5.9580409 C7.06412445,6.35296499 7.36383244,6.66805501 7.49402753,6.80239102 C7.55019161,6.81537466 7.60340399,6.84424138 7.64668206,6.88883792 L11.4690078,10.8276114 C11.7292795,11.0958123 11.7362142,11.5421268 11.4891931,11.8206327 C11.41342,11.8934851 11.2263109,12.0562638 11.2263109,12.0562638 C10.9402163,12.2942048 10.5128689,12.2506124 10.2748207,11.9621172 L6.77722509,7.72331488 C6.73703179,7.67460387 6.71297278,7.61613973 6.70463701,7.55563145 C6.59966658,7.41975472 6.19327104,6.91170447 5.35451455,6.06060098 C4.36372548,5.05522689 4.19463626,5.56232728 4.01181187,5.72921482 C3.82898748,5.89610236 3.84758418,6.05093921 3.84758418,6.05093921 C3.83168687,6.14621011 3.76758572,6.27375446 3.69576177,6.3356026 L3.40383827,6.58698014 C3.37667732,6.60064977 2.86831556,6.04150593 2.70707149,5.8564832 C2.56854682,5.6975303 2.34749247,5.3793801 2.34749247,5.3793801 C2.32222298,5.34356431 2.32572379,5.28910224 2.35440127,5.25668821 C2.35440127,5.25668821 2.62479815,4.940372 2.72478816,4.93423208 C3.01825228,4.91621182 3.15408747,4.88799635 3.29801698,4.66204235 C3.44194649,4.43608835 3.4419813,4.2580838 3.52201282,4.12732567 C3.5752222,4.04039044 4.01950058,3.47606906 4.66949327,3.08076444 C5.91632339,2.32248251 6.8839174,2.27605529 7.08462681,2.29040706 Z M3.93849049,10.8179606 L3.5893697,11.2007976 L3.73695382,11.6994015 L4.23365873,11.8151685 L4.58277953,11.4323315 L4.43519541,10.9337276 L3.93849049,10.8179606 Z M11.2077123,3.20893768 L10.4788815,3.35380588 C10.0609937,3.43686856 9.78807794,3.85061587 9.8693071,4.27793635 C9.95053625,4.70525683 10.3551505,4.98433292 10.7730383,4.90127023 L11.6387887,4.7291868 C11.4810504,5.38405689 10.922765,5.8844965 10.2341517,5.92163847 C10.2009787,5.92342773 10.1679973,5.92411517 10.1352411,5.92373188 C10.06624,5.93137891 9.99678942,5.93432396 9.92738164,5.93253649 C9.69436298,5.92687758 9.46993638,6.02626828 9.31413649,6.20462215 L8.41552885,7.23146154 L7.86589967,6.66638907 C7.82659629,6.62588831 7.78263077,6.59142316 7.73525318,6.56350169 L7.66178404,6.52659075 C7.62740798,6.49078556 7.59216246,6.45374478 7.55616112,6.41555669 L8.44261508,5.39748803 C8.59866373,5.21912074 8.67150994,4.97926343 8.64143578,4.74136326 C8.63016379,4.65205534 8.6261202,4.56189357 8.62936241,4.47189047 L8.6268615,4.43219379 C8.58265684,3.56410129 9.23059527,2.82349236 10.0740725,2.77799744 C10.51062,2.75445123 10.9139874,2.9217167 11.2077123,3.20893768 Z"/>
  </g>
</svg>
