<svg xmlns="http://www.w3.org/2000/svg" xmlns:xlink="http://www.w3.org/1999/xlink" width="16" height="16" viewBox="0 0 16 16">
  <defs>
    <linearGradient id="dde-log-viewer16-a" x1="39.599%" x2="75.302%" y1="13.265%" y2="86.735%">
      <stop offset="0%" stop-color="#3C3C3C"/>
      <stop offset="100%" stop-color="#2E2E2E"/>
    </linearGradient>
    <linearGradient id="dde-log-viewer16-c" x1="9.857%" x2="93.144%" y1="15.278%" y2="84.722%">
      <stop offset="0%" stop-color="#A655DF"/>
      <stop offset="100%" stop-color="#2F63AE"/>
    </linearGradient>
    <path id="dde-log-viewer16-b" d="M1.9375,0.5625 L11.6875,0.5625 C12.3088203,0.5625 12.8125,1.06617966 12.8125,1.6875 L12.8125,9.4375 C12.8125,10.0588203 12.3088203,10.5625 11.6875,10.5625 L1.9375,10.5625 C1.31617966,10.5625 0.8125,10.0588203 0.8125,9.4375 L0.8125,1.6875 C0.8125,1.06617966 1.31617966,0.5625 1.9375,0.5625 Z"/>
    <rect id="dde-log-viewer16-e" width="7" height="9.063" x=".028" y=".369"/>
    <linearGradient id="dde-log-viewer16-g" x1="0%" x2="100%" y1="50%" y2="50%">
      <stop offset="0%" stop-color="#A09AD3"/>
      <stop offset="49.618%" stop-color="#988DD9"/>
      <stop offset="100%" stop-color="#1654D2"/>
    </linearGradient>
    <linearGradient id="dde-log-viewer16-h" x1="0%" x2="100%" y1="50%" y2="50%">
      <stop offset="0%" stop-color="#A09AD3"/>
      <stop offset="49.618%" stop-color="#988DD9"/>
      <stop offset="100%" stop-color="#1654D2"/>
    </linearGradient>
    <rect id="dde-log-viewer16-i" width="5" height="3" x="0" y=".5" rx=".031"/>
    <path id="dde-log-viewer16-k" d="M0,0 L6,0 L6,6.4375 C6,7.30044492 5.30044492,8 4.4375,8 L0,8 L0,8 L0,0 Z"/>
    <linearGradient id="dde-log-viewer16-l" x1="50%" x2="62.308%" y1="14.936%" y2="67.002%">
      <stop offset="0%" stop-color="#F7FEFF" stop-opacity=".839"/>
      <stop offset="100%" stop-color="#FFF" stop-opacity="0"/>
    </linearGradient>
    <linearGradient id="dde-log-viewer16-n" x1="50%" x2="56.28%" y1="-17.393%" y2="82.678%">
      <stop offset="0%" stop-color="#F7FEFF" stop-opacity=".47"/>
      <stop offset="100%" stop-color="#FFF" stop-opacity=".05"/>
    </linearGradient>
    <filter id="dde-log-viewer16-o" width="214.3%" height="214.3%" x="-57.1%" y="-57.1%" filterUnits="objectBoundingBox">
      <feOffset dy="-1" in="SourceAlpha" result="shadowOffsetOuter1"/>
      <feGaussianBlur in="shadowOffsetOuter1" result="shadowBlurOuter1" stdDeviation=".5"/>
      <feColorMatrix in="shadowBlurOuter1" result="shadowMatrixOuter1" values="0 0 0 0 0   0 0 0 0 0   0 0 0 0 0  0 0 0 0.15586757 0"/>
      <feMerge>
        <feMergeNode in="shadowMatrixOuter1"/>
        <feMergeNode in="SourceGraphic"/>
      </feMerge>
    </filter>
    <linearGradient id="dde-log-viewer16-p" x1="31.195%" x2="74.285%" y1="4.862%" y2="92.47%">
      <stop offset="0%" stop-color="#4F4F4F"/>
      <stop offset="100%" stop-color="#3F3F3F"/>
    </linearGradient>
  </defs>
  <g fill="none" fill-rule="evenodd" transform="rotate(-5 30.904 -3.452)">
    <path fill="url(#dde-log-viewer16-a)" d="M1.5625,0 L12.4375,0 C13.3004449,-1.5852041e-16 14,0.699555078 14,1.5625 L14,10.4375 C14,11.3004449 13.3004449,12 12.4375,12 L1.5625,12 C0.699555078,12 1.05680274e-16,11.3004449 0,10.4375 L0,1.5625 C-1.05680274e-16,0.699555078 0.699555078,1.5852041e-16 1.5625,0 Z"/>
    <g transform="translate(.188 .438)">
      <mask id="dde-log-viewer16-d" fill="#fff">
        <use xlink:href="#dde-log-viewer16-b"/>
      </mask>
      <use fill="url(#dde-log-viewer16-c)" xlink:href="#dde-log-viewer16-b"/>
      <g mask="url(#dde-log-viewer16-d)">
        <g transform="translate(-.215 1.194)">
          <mask id="dde-log-viewer16-f" fill="#fff">
            <use xlink:href="#dde-log-viewer16-e"/>
          </mask>
          <g mask="url(#dde-log-viewer16-f)">
            <g transform="translate(1.778 5.619)">
              <rect width="12" height="3" x=".25" y=".75" fill="url(#dde-log-viewer16-g)" rx=".313"/>
              <rect width="1" height="1" x="3.25" y="1.75" fill="#00C98F" rx=".156"/>
              <rect width="1" height="1" x="4.75" y="1.75" fill="#FFB656" rx=".156"/>
              <rect width="1" height="1" x="9.75" y="1.75" fill="#000" fill-opacity=".3" rx=".156"/>
              <rect width="1" height="1" x="8.25" y="1.75" fill="#000" fill-opacity=".3" rx=".156"/>
              <circle cx="1.75" cy="2.25" r="1" fill="#326CFF"/>
              <circle cx="6.75" cy="2.25" r="1" fill="#482AC5"/>
            </g>
          </g>
        </g>
      </g>
      <g mask="url(#dde-log-viewer16-d)">
        <g transform="translate(-1.91 11.181)">
          <rect width="12" height="2" x=".25" y=".25" fill="url(#dde-log-viewer16-h)" rx=".313"/>
          <rect width="1" height="1" x="2.25" y=".75" fill="#00C98F" rx=".156"/>
          <rect width="1" height="1" x="4.25" y=".75" fill="#FF7D52" rx=".156"/>
          <rect width="1" height="1" x="5.75" y=".75" fill="#FFB656" rx=".156"/>
          <rect width="1" height="1" x="10.75" y=".75" fill="#000" fill-opacity=".3" rx=".156"/>
          <rect width="1" height="1" x="9.25" y=".75" fill="#000" fill-opacity=".3" rx=".156"/>
          <circle cx="1.25" cy="1.25" r="1" fill="#326CFF"/>
          <circle cx="7.75" cy="1.25" r="1" fill="#482AC5"/>
        </g>
      </g>
    </g>
    <g opacity=".3" transform="translate(7 7.5)">
      <mask id="dde-log-viewer16-j" fill="#fff">
        <use xlink:href="#dde-log-viewer16-i"/>
      </mask>
      <g stroke="#FFF" mask="url(#dde-log-viewer16-j)" opacity=".797">
        <rect width="6.781" height="2" x=".5" y=".5" rx=".313" transform="translate(-1 .5)"/>
      </g>
    </g>
    <g transform="translate(8 2)">
      <mask id="dde-log-viewer16-m" fill="#fff">
        <use xlink:href="#dde-log-viewer16-k"/>
      </mask>
      <g fill="url(#dde-log-viewer16-l)" mask="url(#dde-log-viewer16-m)" opacity=".56">
        <path d="M0.71875,4.96875 C1.11570466,4.96875 1.4375,5.29054534 1.4375,5.6875 L1.4375,6.15625 C1.4375,6.55320466 1.11570466,6.875 0.71875,6.875 C0.321795336,6.875 3.44454298e-15,6.55320466 3.55271368e-15,6.15625 L3.55271368e-15,5.6875 C3.50410075e-15,5.29054534 0.321795336,4.96875 0.71875,4.96875 Z M6.15625,4.96875 C6.55320466,4.96875 6.875,5.29054534 6.875,5.6875 L6.875,6.15625 C6.875,6.55320466 6.55320466,6.875 6.15625,6.875 C5.75929534,6.875 5.4375,6.55320466 5.4375,6.15625 L5.4375,5.6875 C5.4375,5.29054534 5.75929534,4.96875 6.15625,4.96875 Z M2.46875,4.875 C2.64133898,4.875 2.78125,5.01491102 2.78125,5.1875 L2.78125,6.46875 C2.78125,6.64133898 2.64133898,6.78125 2.46875,6.78125 L2.375,6.78125 C2.20241102,6.78125 2.0625,6.64133898 2.0625,6.46875 L2.0625,5.1875 C2.0625,5.01491102 2.20241102,4.875 2.375,4.875 L2.46875,4.875 Z M7.875,4.875 C8.04758898,4.875 8.1875,5.01491102 8.1875,5.1875 L8.1875,6.46875 C8.1875,6.64133898 8.04758898,6.78125 7.875,6.78125 L7.78125,6.78125 C7.60866102,6.78125 7.46875,6.64133898 7.46875,6.46875 L7.46875,5.1875 C7.46875,5.01491102 7.60866102,4.875 7.78125,4.875 L7.875,4.875 Z M9.21875,4.875 C9.39133898,4.875 9.53125,5.01491102 9.53125,5.1875 L9.53125,6.46875 C9.53125,6.64133898 9.39133898,6.78125 9.21875,6.78125 L9.125,6.78125 C8.95241102,6.78125 8.8125,6.64133898 8.8125,6.46875 L8.8125,5.1875 C8.8125,5.01491102 8.95241102,4.875 9.125,4.875 L9.21875,4.875 Z M4.09375,4.875 C4.49070466,4.875 4.8125,5.19679534 4.8125,5.59375 L4.8125,6.0625 C4.8125,6.45945466 4.49070466,6.78125 4.09375,6.78125 C3.69679534,6.78125 3.375,6.45945466 3.375,6.0625 L3.375,5.59375 C3.375,5.19679534 3.69679534,4.875 4.09375,4.875 Z M0.731359649,5.62088816 C0.626897895,5.62088816 0.538918451,5.69145731 0.512493684,5.78752325 L0.504385965,5.84786184 L0.504385965,5.99588816 C0.504385965,6.12124226 0.606005545,6.22286184 0.731359649,6.22286184 C0.835821403,6.22286184 0.923800848,6.15229269 0.950225614,6.05622675 L0.958333333,5.99588816 L0.958333333,5.84786184 C0.958333333,5.72250774 0.856713754,5.62088816 0.731359649,5.62088816 Z M6.16885965,5.62088816 C6.0643979,5.62088816 5.97641845,5.69145731 5.94999368,5.78752325 L5.94188596,5.84786184 L5.94188596,5.99588816 C5.94188596,6.12124226 6.04350554,6.22286184 6.16885965,6.22286184 C6.2733214,6.22286184 6.36130085,6.15229269 6.38772561,6.05622675 L6.39583333,5.99588816 L6.39583333,5.84786184 C6.39583333,5.72250774 6.29421375,5.62088816 6.16885965,5.62088816 Z M4.10635965,5.52713816 C4.0018979,5.52713816 3.91391845,5.59770731 3.88749368,5.69377325 L3.87938596,5.75411184 L3.87938596,5.90213816 C3.87938596,6.02749226 3.98100554,6.12911184 4.10635965,6.12911184 C4.2108214,6.12911184 4.29880085,6.05854269 4.32522561,5.96247675 L4.33333333,5.90213816 L4.33333333,5.75411184 C4.33333333,5.62875774 4.23171375,5.52713816 4.10635965,5.52713816 Z M3.375,2.5 C3.77195466,2.5 4.09375,2.82179534 4.09375,3.21875 L4.09375,3.6875 C4.09375,4.08445466 3.77195466,4.40625 3.375,4.40625 C2.97804534,4.40625 2.65625,4.08445466 2.65625,3.6875 L2.65625,3.21875 C2.65625,2.82179534 2.97804534,2.5 3.375,2.5 Z M0.40625,2.46875 C0.578838984,2.46875 0.71875,2.60866102 0.71875,2.78125 L0.71875,4.0625 C0.71875,4.23508898 0.578838984,4.375 0.40625,4.375 L0.3125,4.375 C0.139911016,4.375 2.11360547e-17,4.23508898 0,4.0625 L0,2.78125 C-2.11360547e-17,2.60866102 0.139911016,2.46875 0.3125,2.46875 L0.40625,2.46875 Z M1.75,2.46875 C1.92258898,2.46875 2.0625,2.60866102 2.0625,2.78125 L2.0625,4.0625 C2.0625,4.23508898 1.92258898,4.375 1.75,4.375 L1.65625,4.375 C1.48366102,4.375 1.34375,4.23508898 1.34375,4.0625 L1.34375,2.78125 C1.34375,2.60866102 1.48366102,2.46875 1.65625,2.46875 L1.75,2.46875 Z M5.125,2.46875 C5.29758898,2.46875 5.4375,2.60866102 5.4375,2.78125 L5.4375,4.0625 C5.4375,4.23508898 5.29758898,4.375 5.125,4.375 L5.03125,4.375 C4.85866102,4.375 4.71875,4.23508898 4.71875,4.0625 L4.71875,2.78125 C4.71875,2.60866102 4.85866102,2.46875 5.03125,2.46875 L5.125,2.46875 Z M8.8125,2.46875 C9.20945466,2.46875 9.53125,2.79054534 9.53125,3.1875 L9.53125,3.65625 C9.53125,4.05320466 9.20945466,4.375 8.8125,4.375 C8.41554534,4.375 8.09375,4.05320466 8.09375,3.65625 L8.09375,3.1875 C8.09375,2.79054534 8.41554534,2.46875 8.8125,2.46875 Z M6.75,2.46875 C7.14695466,2.46875 7.46875,2.79054534 7.46875,3.1875 L7.46875,3.65625 C7.46875,4.05320466 7.14695466,4.375 6.75,4.375 C6.35304534,4.375 6.03125,4.05320466 6.03125,3.65625 L6.03125,3.1875 C6.03125,2.79054534 6.35304534,2.46875 6.75,2.46875 Z M3.38760965,3.15213816 C3.2831479,3.15213816 3.19516845,3.22270731 3.16874368,3.31877325 L3.16063596,3.37911184 L3.16063596,3.52713816 C3.16063596,3.65249226 3.26225554,3.75411184 3.38760965,3.75411184 C3.4920714,3.75411184 3.58005085,3.68354269 3.60647561,3.58747675 L3.61458333,3.52713816 L3.61458333,3.37911184 C3.61458333,3.25375774 3.51296375,3.15213816 3.38760965,3.15213816 Z M8.82510965,3.12088816 C8.7206479,3.12088816 8.63266845,3.19145731 8.60624368,3.28752325 L8.59813596,3.34786184 L8.59813596,3.49588816 C8.59813596,3.62124226 8.69975554,3.72286184 8.82510965,3.72286184 C8.9295714,3.72286184 9.01755085,3.65229269 9.04397561,3.55622675 L9.05208333,3.49588816 L9.05208333,3.34786184 C9.05208333,3.22250774 8.95046375,3.12088816 8.82510965,3.12088816 Z M6.76260965,3.12088816 C6.6581479,3.12088816 6.57016845,3.19145731 6.54374368,3.28752325 L6.53563596,3.34786184 L6.53563596,3.49588816 C6.53563596,3.62124226 6.63725554,3.72286184 6.76260965,3.72286184 C6.8670714,3.72286184 6.95505085,3.65229269 6.98147561,3.55622675 L6.98958333,3.49588816 L6.98958333,3.34786184 C6.98958333,3.22250774 6.88796375,3.12088816 6.76260965,3.12088816 Z M0.40625,0 C0.578838984,-3.17040821e-17 0.71875,0.139911016 0.71875,0.3125 L0.71875,1.59375 C0.71875,1.76633898 0.578838984,1.90625 0.40625,1.90625 L0.3125,1.90625 C0.139911016,1.90625 2.11360547e-17,1.76633898 0,1.59375 L0,0.3125 C-2.11360547e-17,0.139911016 0.139911016,-7.93182204e-17 0.3125,0 L0.40625,0 Z M3.8125,0 C3.98508898,-3.17040821e-17 4.125,0.139911016 4.125,0.3125 L4.125,1.59375 C4.125,1.76633898 3.98508898,1.90625 3.8125,1.90625 L3.71875,1.90625 C3.54616102,1.90625 3.40625,1.76633898 3.40625,1.59375 L3.40625,0.3125 C3.40625,0.139911016 3.54616102,-7.93182204e-17 3.71875,0 L3.8125,0 Z M7.15625,0 C7.32883898,-3.17040821e-17 7.46875,0.139911016 7.46875,0.3125 L7.46875,1.59375 C7.46875,1.76633898 7.32883898,1.90625 7.15625,1.90625 L7.0625,1.90625 C6.88991102,1.90625 6.75,1.76633898 6.75,1.59375 L6.75,0.3125 C6.75,0.139911016 6.88991102,-7.93182204e-17 7.0625,0 L7.15625,0 Z M2.03125,0 C2.42820466,-7.29193888e-17 2.75,0.321795336 2.75,0.71875 L2.75,1.1875 C2.75,1.58445466 2.42820466,1.90625 2.03125,1.90625 C1.63429534,1.90625 1.3125,1.58445466 1.3125,1.1875 L1.3125,0.71875 C1.3125,0.321795336 1.63429534,7.29193888e-17 2.03125,0 Z M5.4375,0 C5.83445466,-7.29193888e-17 6.15625,0.321795336 6.15625,0.71875 L6.15625,1.1875 C6.15625,1.58445466 5.83445466,1.90625 5.4375,1.90625 C5.04054534,1.90625 4.71875,1.58445466 4.71875,1.1875 L4.71875,0.71875 C4.71875,0.321795336 5.04054534,7.29193888e-17 5.4375,0 Z M8.8125,0 C9.20945466,-7.29193888e-17 9.53125,0.321795336 9.53125,0.71875 L9.53125,1.1875 C9.53125,1.58445466 9.20945466,1.90625 8.8125,1.90625 C8.41554534,1.90625 8.09375,1.58445466 8.09375,1.1875 L8.09375,0.71875 C8.09375,0.321795336 8.41554534,7.29193888e-17 8.8125,0 Z M2.04385965,0.652138158 C1.9393979,0.652138158 1.85141845,0.722707311 1.82499368,0.818773246 L1.81688596,0.879111842 L1.81688596,1.02713816 C1.81688596,1.15249226 1.91850554,1.25411184 2.04385965,1.25411184 C2.1483214,1.25411184 2.23630085,1.18354269 2.26272561,1.08747675 L2.27083333,1.02713816 L2.27083333,0.879111842 C2.27083333,0.753757738 2.16921375,0.652138158 2.04385965,0.652138158 Z M5.45010965,0.652138158 C5.3456479,0.652138158 5.25766845,0.722707311 5.23124368,0.818773246 L5.22313596,0.879111842 L5.22313596,1.02713816 C5.22313596,1.15249226 5.32475554,1.25411184 5.45010965,1.25411184 C5.5545714,1.25411184 5.64255085,1.18354269 5.66897561,1.08747675 L5.67708333,1.02713816 L5.67708333,0.879111842 C5.67708333,0.753757738 5.57546375,0.652138158 5.45010965,0.652138158 Z M8.82510965,0.652138158 C8.7206479,0.652138158 8.63266845,0.722707311 8.60624368,0.818773246 L8.59813596,0.879111842 L8.59813596,1.02713816 C8.59813596,1.15249226 8.69975554,1.25411184 8.82510965,1.25411184 C8.9295714,1.25411184 9.01755085,1.18354269 9.04397561,1.08747675 L9.05208333,1.02713816 L9.05208333,0.879111842 C9.05208333,0.753757738 8.95046375,0.652138158 8.82510965,0.652138158 Z" transform="translate(-5)"/>
      </g>
    </g>
    <path fill="url(#dde-log-viewer16-n)" d="M3.9375,2 C3.9720178,2 4,2.0279822 4,2.0625 L4,8.9375 C4,8.9720178 3.9720178,9 3.9375,9 L2.5625,9 C2.25183983,9 2,8.74816017 2,8.4375 L2,2.46875 C2,2.20986652 2.20986652,2 2.46875,2 L3.9375,2 Z M6.9375,4 C6.9720178,4 7,4.0279822 7,4.0625 L7,8.9375 C7,8.9720178 6.9720178,9 6.9375,9 L5.0625,9 C5.0279822,9 5,8.9720178 5,8.9375 L5,4.0625 C5,4.0279822 5.0279822,4 5.0625,4 L6.9375,4 Z M6.9375,2 C6.9720178,2 7,2.0279822 7,2.0625 L7,2.9375 C7,2.9720178 6.9720178,3 6.9375,3 L5.0625,3 C5.0279822,3 5,2.9720178 5,2.9375 L5,2.0625 C5,2.0279822 5.0279822,2 5.0625,2 L6.9375,2 Z" opacity=".423"/>
    <g filter="url(#dde-log-viewer16-o)" transform="translate(7.469 6.813)">
      <path fill="url(#dde-log-viewer16-p)" d="M2.09808328,0.268554688 C1.67958398,0.447591719 1.31480078,0.692645937 1.00372336,1.00372336 C0.692645766,1.31480078 0.447592062,1.67958398 0.268554688,2.09808328 C0.0895173125,2.51658344 0,2.96305109 0,3.4375 C0,3.91194891 0.0895173125,4.35841656 0.268554688,4.77691672 C0.447592062,5.19541602 0.692645766,5.56019922 1.00372336,5.87127664 C1.31480078,6.18235423 1.67958398,6.42740794 2.09808328,6.60644531 C2.51658344,6.78548269 2.96305109,6.875 3.4375,6.875 C3.91194891,6.875 4.35841656,6.78548269 4.77691672,6.60644531 C5.19541602,6.42740794 5.56019922,6.18235423 5.87127664,5.87127664 C6.18235406,5.56019922 6.42740828,5.19541602 6.60644531,4.77691672 C6.78548234,4.35841656 6.875,3.91194891 6.875,3.4375 C6.875,2.96305109 6.78548234,2.51658344 6.60644531,2.09808328 C6.42740828,1.67958398 6.18235406,1.31480078 5.87127664,1.00372336 C5.56019922,0.692645937 5.19541602,0.447591719 4.77691672,0.268554688 C4.35841656,0.0895176562 3.91194891,0 3.4375,0 C2.96305109,0 2.51658344,0.0895176562 2.09808328,0.268554688 Z"/>
      <path fill="#FFF" d="M3.45319635,0.722031963 C3.07623694,0.722031963 2.72150922,0.793155581 2.38900224,0.935404181 C2.05649595,1.07765278 1.7666682,1.27235339 1.5195108,1.5195108 C1.27235326,1.7666682 1.07765305,2.05649595 0.935404181,2.38900224 C0.793155308,2.72150922 0.722031963,3.07623694 0.722031963,3.45319635 C0.722031963,3.83015575 0.793155308,4.18488348 0.935404181,4.51739045 C1.07765305,4.84989674 1.27235326,5.13972449 1.5195108,5.3868819 C1.7666682,5.63403944 2.05649595,5.82873964 2.38900224,5.97098851 C2.72150922,6.11323739 3.07623694,6.18436073 3.45319635,6.18436073 C3.83015575,6.18436073 4.18488348,6.11323739 4.51739045,5.97098851 C4.84989674,5.82873964 5.13972449,5.63403944 5.3868819,5.3868819 C5.6340393,5.13972449 5.82873991,4.84989674 5.97098851,4.51739045 C6.11323711,4.18488348 6.18436073,3.83015575 6.18436073,3.45319635 C6.18436073,3.07623694 6.11323711,2.72150922 5.97098851,2.38900224 C5.82873991,2.05649595 5.6340393,1.7666682 5.3868819,1.5195108 C5.13972449,1.27235339 4.84989674,1.07765278 4.51739045,0.935404181 C4.18488348,0.793155581 3.83015575,0.722031963 3.45319635,0.722031963 L3.45319635,0.722031963 Z"/>
      <path fill="#2F2F2F" d="M3.56244292,5.63812785 L3.56244292,6.18436073 L3.36013445,6.18436073 L3.36013445,5.63812785 L3.56244292,5.63812785 Z M4.64027241,5.29077925 L4.91338885,5.7638308 L4.72416823,5.87307737 L4.45105179,5.40002583 L4.64027241,5.29077925 Z M2.26612028,5.29077925 L2.4553409,5.40002583 L2.18222446,5.87307737 L1.99300385,5.7638308 L2.26612028,5.29077925 Z M5.40002583,4.45105179 L5.87307737,4.72416823 L5.7638308,4.91338885 L5.29077925,4.64027241 L5.40002583,4.45105179 Z M1.50636687,4.45105179 L1.61561344,4.64027241 L1.1425619,4.91338885 L1.03331532,4.72416823 L1.50636687,4.45105179 Z M6.18436073,3.34394977 L6.18436073,3.56244292 L5.63812785,3.56244292 L5.63812785,3.34394977 L6.18436073,3.34394977 Z M1.26826484,3.34394977 L1.26826484,3.56244292 L0.722031963,3.56244292 L0.722031963,3.34394977 L1.26826484,3.34394977 Z M5.7638308,1.99300385 L5.87307737,2.18222446 L5.40002583,2.4553409 L5.29077925,2.26612028 L5.7638308,1.99300385 Z M1.1425619,1.99300385 L1.61561344,2.26612028 L1.50636687,2.4553409 L1.03331532,2.18222446 L1.1425619,1.99300385 Z M4.72416823,1.03331532 L4.91338885,1.1425619 L4.64027241,1.61561344 L4.45105179,1.50636687 L4.72416823,1.03331532 Z M2.18222446,1.03331532 L2.4553409,1.50636687 L2.26612028,1.61561344 L1.99300385,1.1425619 L2.18222446,1.03331532 Z M3.56244292,0.722031963 L3.56244292,1.26826484 L3.36013445,1.26826484 L3.36013445,0.722031963 L3.56244292,0.722031963 Z"/>
      <path fill="#7F7F7F" d="M2.49174759,2.62866201 L3.45222553,2.62866201 C3.59181956,2.62866201 3.70498289,2.74182533 3.70498289,2.88141936 C3.70498289,3.02101339 3.59181956,3.13417671 3.45222553,3.13417671 L2.49174759,3.13417671 L2.49174759,3.13417671 L2.49174759,2.62866201 Z" transform="rotate(-113 3.098 2.881)"/>
      <path fill="#FD6C6C" d="M3.13926941,3.32762557 L4.69320776,3.32762557 C4.78856515,3.32762557 4.86586758,3.404928 4.86586758,3.50028539 C4.86586758,3.59564277 4.78856515,3.67294521 4.69320776,3.67294521 L3.21846397,3.67294521 L3.21846397,3.67294521 L3.13926941,3.32762557 Z"/>
      <circle cx="3.343" cy="3.406" r="1" fill="#4D4D4D"/>
    </g>
  </g>
</svg>
