<svg xmlns="http://www.w3.org/2000/svg" xmlns:xlink="http://www.w3.org/1999/xlink" width="16" height="16" viewBox="0 0 16 16">
  <defs>
    <linearGradient id="printer-a" x1="50%" x2="50%" y1="7.227%" y2="60.079%">
      <stop offset="0%" stop-color="#415E6B"/>
      <stop offset="100%" stop-color="#314956"/>
    </linearGradient>
    <path id="printer-b" d="M2.6875,1 L11.3125,1 C11.6921958,1 12,1.30780423 12,1.6875 L12,3.1875 C12,3.36008898 11.860089,3.5 11.6875,3.5 L2.3125,3.5 C2.13991102,3.5 2,3.36008898 2,3.1875 L2,1.6875 C2,1.30780423 2.30780423,1 2.6875,1 Z"/>
    <filter id="printer-c" width="110%" height="140%" x="-5%" y="-20%" filterUnits="objectBoundingBox">
      <feOffset dy="1" in="SourceAlpha" result="shadowOffsetInner1"/>
      <feComposite in="shadowOffsetInner1" in2="SourceAlpha" k2="-1" k3="1" operator="arithmetic" result="shadowInnerInner1"/>
      <feColorMatrix in="shadowInnerInner1" values="0 0 0 0 1   0 0 0 0 1   0 0 0 0 1  0 0 0 0.0991859703 0"/>
    </filter>
    <linearGradient id="printer-d" x1="6.392%" x2="3.067%" y1="28.285%" y2="59.57%">
      <stop offset="0%" stop-color="#AAD7F1"/>
      <stop offset="100%" stop-color="#FFF"/>
    </linearGradient>
    <linearGradient id="printer-e" x1="0%" x2="100%" y1="77.599%" y2="77.599%">
      <stop offset="0%" stop-color="#DCEAFD"/>
      <stop offset="100%" stop-color="#CCD2D7"/>
    </linearGradient>
    <linearGradient id="printer-f" x1="50%" x2="50%" y1="0%" y2="100%">
      <stop offset="0%" stop-opacity=".08"/>
      <stop offset="100%" stop-opacity=".04"/>
    </linearGradient>
    <linearGradient id="printer-g" x1="50%" x2="50%" y1="0%" y2="100%">
      <stop offset="0%" stop-color="#4C6775"/>
      <stop offset="10.836%" stop-color="#597888"/>
      <stop offset="11.307%" stop-color="#38505B"/>
      <stop offset="32.556%" stop-color="#324A56"/>
      <stop offset="100%" stop-color="#21323B"/>
    </linearGradient>
    <path id="printer-h" d="M1.25,3 L12.75,3 C13.4403559,3 14,3.55964406 14,4.25 L14,10.75 C14,11.4403559 13.4403559,12 12.75,12 L1.25,12 C0.559644063,12 8.45442189e-17,11.4403559 0,10.75 L0,4.25 C-8.45442189e-17,3.55964406 0.559644063,3 1.25,3 Z"/>
    <filter id="printer-i" width="107.1%" height="111.1%" x="-3.6%" y="-5.6%" filterUnits="objectBoundingBox">
      <feOffset dy="-1" in="SourceAlpha" result="shadowOffsetInner1"/>
      <feComposite in="shadowOffsetInner1" in2="SourceAlpha" k2="-1" k3="1" operator="arithmetic" result="shadowInnerInner1"/>
      <feColorMatrix in="shadowInnerInner1" values="0 0 0 0 0   0 0 0 0 0   0 0 0 0 0  0 0 0 0.25 0"/>
    </filter>
    <linearGradient id="printer-j" x1="50%" x2="50%" y1="0%" y2="100%">
      <stop offset="0%" stop-color="#1C2D35"/>
      <stop offset="100%" stop-color="#101C22"/>
    </linearGradient>
    <path id="printer-k" d="M2.78125,9 L11.21875,9 C11.6502225,9 12,9.34977754 12,9.78125 L12,12 L12,12 L2,12 L2,9.78125 C2,9.34977754 2.34977754,9 2.78125,9 Z"/>
    <filter id="printer-l" width="110%" height="133.3%" x="-5%" y="-16.7%" filterUnits="objectBoundingBox">
      <feOffset dy="1" in="SourceAlpha" result="shadowOffsetInner1"/>
      <feComposite in="shadowOffsetInner1" in2="SourceAlpha" k2="-1" k3="1" operator="arithmetic" result="shadowInnerInner1"/>
      <feColorMatrix in="shadowInnerInner1" values="0 0 0 0 0   0 0 0 0 0   0 0 0 0 0  0 0 0 0.2 0"/>
    </filter>
    <linearGradient id="printer-m" x1="50%" x2="50%" y1="0%" y2="100%">
      <stop offset="0%" stop-color="#213A44"/>
      <stop offset="100%" stop-color="#162C36"/>
    </linearGradient>
    <path id="printer-n" d="M3,9 L11,9 L11,9.8125 C11,9.91605339 10.9160534,10 10.8125,10 L3.1875,10 C3.08394661,10 3,9.91605339 3,9.8125 L3,9 L3,9 Z"/>
    <filter id="printer-o" width="112.5%" height="200%" x="-6.2%" y="-50%" filterUnits="objectBoundingBox">
      <feOffset dy="1" in="SourceAlpha" result="shadowOffsetInner1"/>
      <feComposite in="shadowOffsetInner1" in2="SourceAlpha" k2="-1" k3="1" operator="arithmetic" result="shadowInnerInner1"/>
      <feColorMatrix in="shadowInnerInner1" result="shadowMatrixInner1" values="0 0 0 0 0   0 0 0 0 0   0 0 0 0 0  0 0 0 0.13204764 0"/>
      <feOffset dy="-1" in="SourceAlpha" result="shadowOffsetInner2"/>
      <feComposite in="shadowOffsetInner2" in2="SourceAlpha" k2="-1" k3="1" operator="arithmetic" result="shadowInnerInner2"/>
      <feColorMatrix in="shadowInnerInner2" result="shadowMatrixInner2" values="0 0 0 0 1   0 0 0 0 1   0 0 0 0 1  0 0 0 0.0325065559 0"/>
      <feMerge>
        <feMergeNode in="shadowMatrixInner1"/>
        <feMergeNode in="shadowMatrixInner2"/>
      </feMerge>
    </filter>
    <linearGradient id="printer-p" x1="50%" x2="50%" y1="0%" y2="100%">
      <stop offset="0%" stop-color="#172D38"/>
      <stop offset="100%" stop-color="#142934"/>
    </linearGradient>
  </defs>
  <g fill="none" fill-rule="evenodd" transform="translate(1 2)">
    <use fill="url(#printer-a)" xlink:href="#printer-b"/>
    <use fill="#000" filter="url(#printer-c)" xlink:href="#printer-b"/>
    <g transform="translate(3)">
      <path fill="url(#printer-d)" d="M0,0 L8,0 L8,1.5 L6,3.5 L0.625,3.5 C0.279822031,3.5 4.22721094e-17,3.22017797 0,2.875 L0,0 L0,0 Z" transform="matrix(1 0 0 -1 0 3.5)"/>
      <path fill="url(#printer-e)" d="M6.46875,2 L8,2 L8,2 L6,0 L6,1.53125 C6,1.79013348 6.20986652,2 6.46875,2 Z"/>
      <path fill="url(#printer-f)" d="M3.5,2.5 C3.77614237,2.5 4,2.72385763 4,3 C4,3.27614237 3.77614237,3.5 3.5,3.5 L1.5,3.5 C1.22385763,3.5 1,3.27614237 1,3 C1,2.72385763 1.22385763,2.5 1.5,2.5 L3.5,2.5 Z M6,1 C6.27614237,1 6.5,1.22385763 6.5,1.5 C6.5,1.77614237 6.27614237,2 6,2 L1.5,2 C1.22385763,2 1,1.77614237 1,1.5 C1,1.22385763 1.22385763,1 1.5,1 L6,1 Z" transform="matrix(1 0 0 -1 0 4.5)"/>
    </g>
    <use fill="url(#printer-g)" xlink:href="#printer-h"/>
    <use fill="#000" filter="url(#printer-i)" xlink:href="#printer-h"/>
    <path fill="#B6B6B6" d="M2.33972168,5.45117188 L2.33166504,5.48608398 C2.35852064,5.50667328 2.38582343,5.51696777 2.41357422,5.51696777 C2.45922874,5.51696777 2.49839258,5.49525982 2.53106689,5.45184326 C2.56374121,5.4084267 2.58007812,5.35673044 2.58007812,5.29675293 C2.58007812,5.23498504 2.55993672,5.18530292 2.51965332,5.14770508 C2.47936992,5.11010723 2.4261071,5.09130859 2.35986328,5.09130859 C2.28556278,5.09130859 2.2211103,5.11144999 2.16650391,5.1517334 C2.11637345,5.18843606 2.09130859,5.22827127 2.09130859,5.27124023 C2.09130859,5.29003916 2.1011555,5.30570469 2.12084961,5.3182373 C2.14054372,5.33076992 2.15039062,5.33972165 2.15039062,5.34509277 C2.15039062,5.35762539 2.14680993,5.36836747 2.13964844,5.37731934 C2.13248694,5.3862712 2.12308762,5.39074707 2.1114502,5.39074707 C2.08190903,5.39074707 2.05594901,5.37821464 2.03356934,5.35314941 C2.01118967,5.32808418 2,5.29899105 2,5.26586914 C2,5.1942542 2.03535935,5.13203965 2.1060791,5.07922363 C2.17679886,5.02640761 2.26049756,5 2.35717773,5 C2.45743865,5 2.53755667,5.0268552 2.59753418,5.08056641 C2.65751169,5.13427761 2.6875,5.20633907 2.6875,5.29675293 C2.6875,5.38179567 2.66019721,5.45564747 2.60559082,5.51831055 C2.55098443,5.58097362 2.48608436,5.61230469 2.41088867,5.61230469 C2.38940419,5.61230469 2.37396245,5.61096193 2.36456299,5.60827637 C2.35516353,5.60559081 2.33703627,5.59753425 2.31018066,5.58410645 C2.29675286,5.63781765 2.28377285,5.69108047 2.27124023,5.74389648 C2.23364239,5.86385151 2.17321819,5.92382812 2.08996582,5.92382812 C2.07027171,5.92382812 2.05662032,5.91935226 2.04901123,5.91040039 C2.04140214,5.90144852 2.03401696,5.88130712 2.02685547,5.84997559 L2.0201416,5.81640625 C2.04252127,5.82088218 2.05863439,5.82312012 2.06848145,5.82312012 C2.09981298,5.82312012 2.12510163,5.80244721 2.14434814,5.76110077 C2.16359466,5.71975433 2.18530261,5.64200013 2.20947266,5.52783585 C2.22827158,5.44154823 2.24304194,5.37817975 2.25378418,5.3377285 C2.27079273,5.27570884 2.29093413,5.21908213 2.31420898,5.16784668 L2.40148926,5.16784668 C2.41044113,5.17053224 2.41760251,5.17232259 2.42297363,5.17321777 C2.41044102,5.20365412 2.39790859,5.23878968 2.38537598,5.27862549 C2.37284336,5.3184613 2.35762542,5.37597619 2.33972168,5.45117188 Z M2.67810059,5.78552246 L2.67810059,5.67407227 C2.72823104,5.62483699 2.76359039,5.58858247 2.78417969,5.56530762 C2.82446309,5.51965309 2.8544514,5.4757896 2.87414551,5.43371582 C2.86161289,5.40865059 2.85534668,5.38850919 2.85534668,5.37329102 C2.85534668,5.34554023 2.85825599,5.32383227 2.86407471,5.3081665 C2.86989342,5.29250074 2.8839924,5.28466797 2.90637207,5.28466797 C2.94307473,5.28466797 2.96590165,5.28735349 2.97485352,5.29272461 C2.98380538,5.29809573 2.98828125,5.31062816 2.98828125,5.33032227 C2.98828125,5.35001637 2.98156745,5.37776675 2.96813965,5.41357422 C3.01379417,5.42968758 3.04467765,5.44266759 3.06079102,5.45251465 C3.10017923,5.4757895 3.11987305,5.51428196 3.11987305,5.56799316 C3.11987305,5.59395358 3.11360683,5.62528465 3.10107422,5.6619873 C3.07242824,5.74523967 3.05810547,5.7913411 3.05810547,5.80029297 C3.05810547,5.81551114 3.06526686,5.82312012 3.07958984,5.82312012 C3.11897806,5.82312012 3.19103952,5.77075248 3.29577637,5.66601562 L3.29577637,5.78015137 C3.18208765,5.87772672 3.09167514,5.92651367 3.02453613,5.92651367 C2.9994709,5.92651367 2.9793295,5.91666677 2.96411133,5.89697266 C2.94889315,5.87727855 2.94128418,5.85176611 2.94128418,5.82043457 C2.94128418,5.78910303 2.95292143,5.74568713 2.97619629,5.69018555 C2.99947115,5.63468397 3.0111084,5.5966391 3.0111084,5.5760498 C3.0111084,5.5357664 2.98783389,5.50622568 2.94128418,5.48742676 C2.9126382,5.54650908 2.86206091,5.61140915 2.78955078,5.68212891 C2.76538074,5.70540376 2.72823104,5.73986794 2.67810059,5.78552246 Z M3.65563965,5.66601562 L3.65563965,5.78015137 C3.62072736,5.81506365 3.5791018,5.8468423 3.53076172,5.87548828 C3.47346977,5.90950538 3.42513041,5.92651367 3.38574219,5.92651367 C3.35262028,5.92651367 3.33068853,5.90323917 3.31994629,5.85668945 C3.31457517,5.8334146 3.31188965,5.79671249 3.31188965,5.74658203 C3.31188965,5.69824195 3.31949862,5.6427412 3.3347168,5.58007812 C3.34993497,5.51741505 3.37097155,5.4520674 3.39782715,5.3840332 L3.51062012,5.3840332 L3.49719238,5.42431641 C3.46944159,5.50756878 3.44974778,5.57425919 3.43811035,5.62438965 C3.42647292,5.67452011 3.4206543,5.71793601 3.4206543,5.75463867 C3.4206543,5.79760764 3.42915844,5.8190918 3.44616699,5.8190918 C3.46854666,5.8190918 3.51151498,5.7922366 3.57507324,5.73852539 C3.60192885,5.71525053 3.62878405,5.69108085 3.65563965,5.66601562 Z M3.52404785,5.09265137 C3.567912,5.09265137 3.58984375,5.10518379 3.58984375,5.13024902 C3.58984375,5.14457201 3.58626306,5.16269927 3.57910156,5.18463135 C3.57194007,5.20656342 3.56365971,5.22222896 3.55426025,5.23162842 C3.54486079,5.24102788 3.52718112,5.24572754 3.5012207,5.24572754 C3.46720361,5.24572754 3.45019531,5.23453787 3.45019531,5.2121582 C3.45019531,5.18082667 3.45713291,5.15307629 3.4710083,5.12890625 C3.4848837,5.10473621 3.50256337,5.09265137 3.52404785,5.09265137 Z M3.75657845,5.3840332 L3.86914062,5.3840332 C3.85660801,5.41715511 3.84608972,5.44669583 3.83758545,5.47265625 C3.82908117,5.49861667 3.82080082,5.52681463 3.81274414,5.55725098 C3.88077833,5.49279753 3.93426494,5.44781507 3.97320557,5.42230225 C4.01214619,5.39678942 4.04638657,5.3840332 4.07592773,5.3840332 C4.09920259,5.3840332 4.1188964,5.39567046 4.13500977,5.41894531 C4.15112313,5.44222017 4.15917969,5.4713133 4.15917969,5.50622559 C4.15917969,5.53308119 4.14396174,5.59216263 4.11352539,5.68347168 C4.0992024,5.72644064 4.09204102,5.76224758 4.09204102,5.79089355 C4.09204102,5.81685397 4.0992024,5.82983398 4.11352539,5.82983398 C4.12516282,5.82983398 4.15022767,5.81640638 4.1887207,5.78955078 C4.23706079,5.75553368 4.28226704,5.71435571 4.32434082,5.66601562 L4.32434082,5.78015137 L4.29614258,5.80432129 C4.24422175,5.84908063 4.20192481,5.88041169 4.16925049,5.89831543 C4.13657617,5.91621917 4.10502131,5.9251709 4.07458496,5.9251709 C4.04593898,5.9251709 4.02333586,5.91375744 4.0067749,5.89093018 C3.99021395,5.86810291 3.98193359,5.83744323 3.98193359,5.7989502 C3.98193359,5.77119941 3.98864739,5.73718282 4.0020752,5.69689941 C4.03161636,5.60738074 4.04638672,5.55232758 4.04638672,5.53173828 C4.04638672,5.50488268 4.03967292,5.49145508 4.02624512,5.49145508 C4.00386545,5.49145508 3.92956606,5.55143169 3.80334473,5.67138672 L3.78857422,5.68481445 C3.78767903,5.69913744 3.78678386,5.71323642 3.78588867,5.72711182 C3.78499349,5.74098721 3.7845459,5.75016274 3.7845459,5.75463867 L3.7845459,5.88891602 L3.78857422,5.9197998 L3.68115234,5.9197998 C3.6775716,5.89204901 3.67578125,5.86653657 3.67578125,5.84326172 L3.67578125,5.7277832 C3.67578125,5.64632121 3.70271338,5.53173902 3.75657845,5.3840332 Z M4.43041992,5.39880371 L4.529953,5.09936523 L4.6429348,5.09949112 L4.5484581,5.38846016 L4.67211914,5.38806152 L4.65600586,5.46594238 L4.51904297,5.46594238 L4.5123291,5.48893738 C4.49979649,5.53494159 4.49039717,5.57575939 4.48413086,5.61139202 C4.47786455,5.64702465 4.47473145,5.67836621 4.47473145,5.70541763 C4.47473145,5.78299116 4.48815905,5.82177734 4.51501465,5.82177734 C4.52933764,5.82177734 4.55350732,5.81004218 4.58752441,5.7865715 C4.62959819,5.75767375 4.67569962,5.71704128 4.72583008,5.66467285 L4.72583008,5.77939606 C4.66674775,5.83429618 4.61169459,5.87389362 4.56066895,5.89818954 C4.52486147,5.91528202 4.49397799,5.92382812 4.46801758,5.92382812 C4.43400048,5.92382812 4.40692149,5.90604355 4.38677979,5.87047386 C4.36663808,5.83490417 4.35656738,5.78785862 4.35656738,5.72933578 C4.35656738,5.69240933 4.35880532,5.66134052 4.36328125,5.63612843 C4.36775718,5.61091633 4.37849926,5.56769274 4.39550781,5.50645638 L4.40625,5.46594238 L4.36462402,5.47265625 L4.36999512,5.42074966 C4.3708903,5.41386792 4.37738031,5.40913679 4.38946533,5.40655613 C4.40155035,5.40397547 4.41520175,5.40139136 4.43041992,5.39880371 Z M5.28979492,5.66601562 L5.28979492,5.77880859 C5.15193616,5.87817432 5.01810775,5.92785645 4.88830566,5.92785645 C4.84086077,5.92785645 4.80483004,5.90838643 4.7802124,5.8694458 C4.75559477,5.83050518 4.74328613,5.78641789 4.74328613,5.73718262 C4.74328613,5.63960726 4.77237927,5.55299924 4.83056641,5.47735596 C4.88875355,5.40171268 4.95589155,5.3638916 5.03198242,5.3638916 C5.10359736,5.3638916 5.1394043,5.39790819 5.1394043,5.46594238 C5.1394043,5.52681508 5.10807323,5.5800779 5.04541016,5.62573242 C5.01228825,5.64990246 4.95857785,5.67720525 4.88427734,5.7076416 L4.8560791,5.71972656 L4.8560791,5.72509766 C4.8560791,5.75553401 4.86100255,5.78015127 4.87084961,5.7989502 C4.8851726,5.82670099 4.90799952,5.84057617 4.93933105,5.84057617 C4.99304226,5.84057617 5.04720025,5.82692478 5.10180664,5.79962158 C5.15641303,5.77231839 5.21907517,5.72778351 5.28979492,5.66601562 Z M4.86950684,5.63110352 C4.92500842,5.61051422 4.9693195,5.58656833 5.00244141,5.55926514 C5.03556332,5.53196194 5.05212402,5.50488295 5.05212402,5.47802734 C5.05212402,5.45833323 5.04182953,5.44848633 5.02124023,5.44848633 C4.99169907,5.44848633 4.96171076,5.46661359 4.93127441,5.50286865 C4.90083806,5.53912372 4.88024908,5.58186824 4.86950684,5.63110352 Z M5.28710938,5.78552246 L5.28710938,5.67407227 C5.33723983,5.62483699 5.37259918,5.58858247 5.39318848,5.56530762 C5.43347188,5.51965309 5.46346019,5.4757896 5.4831543,5.43371582 C5.47062168,5.40865059 5.46435547,5.38850919 5.46435547,5.37329102 C5.46435547,5.34554023 5.46726478,5.32383227 5.4730835,5.3081665 C5.47890221,5.29250074 5.49300119,5.28466797 5.51538086,5.28466797 C5.55208352,5.28466797 5.57491044,5.28735349 5.5838623,5.29272461 C5.59281417,5.29809573 5.59729004,5.31062816 5.59729004,5.33032227 C5.59729004,5.35001637 5.59057624,5.37776675 5.57714844,5.41357422 C5.62280296,5.42968758 5.65368644,5.44266759 5.6697998,5.45251465 C5.70918802,5.4757895 5.72888184,5.51428196 5.72888184,5.56799316 C5.72888184,5.59395358 5.72261562,5.62528465 5.71008301,5.6619873 C5.68143703,5.74523967 5.66711426,5.7913411 5.66711426,5.80029297 C5.66711426,5.81551114 5.67427564,5.82312012 5.68859863,5.82312012 C5.72798685,5.82312012 5.8000483,5.77075248 5.90478516,5.66601562 L5.90478516,5.78015137 C5.79109644,5.87772672 5.70068393,5.92651367 5.63354492,5.92651367 C5.60847969,5.92651367 5.58833829,5.91666677 5.57312012,5.89697266 C5.55790194,5.87727855 5.55029297,5.85176611 5.55029297,5.82043457 C5.55029297,5.78910303 5.56193022,5.74568713 5.58520508,5.69018555 C5.60847993,5.63468397 5.62011719,5.5966391 5.62011719,5.5760498 C5.62011719,5.5357664 5.59684268,5.50622568 5.55029297,5.48742676 C5.52164699,5.54650908 5.4710697,5.61140915 5.39855957,5.68212891 C5.37438953,5.70540376 5.33723983,5.73986794 5.28710938,5.78552246 Z"/>
    <use fill="url(#printer-j)" xlink:href="#printer-k"/>
    <use fill="#000" filter="url(#printer-l)" xlink:href="#printer-k"/>
    <use fill="url(#printer-m)" xlink:href="#printer-n"/>
    <use fill="#000" filter="url(#printer-o)" xlink:href="#printer-n"/>
    <path fill="url(#printer-p)" d="M3.1875,11 L10.8125,11 C10.9160534,11 11,11.0839466 11,11.1875 L11,12 L11,12 L3,12 L3,11.1875 C3,11.0839466 3.08394661,11 3.1875,11 Z"/>
    <g transform="translate(11.875 4.875)">
      <rect width="1" height="1" x=".125" y=".125" fill="#CC584C" rx=".313"/>
      <rect width="1" height="1" x=".125" y="1.125" fill="#1FABFF" rx=".313"/>
      <rect width="1" height="1" x=".125" y="2.125" fill="#F7C65C" rx=".313"/>
    </g>
  </g>
</svg>
