<svg xmlns="http://www.w3.org/2000/svg" width="24" height="24" viewBox="0 0 24 24">
  <defs>
    <linearGradient id="drive-harddisk-mac-a" x1="102.549%" x2="-2.652%" y1="57.682%" y2="57.682%">
      <stop offset="0%" stop-color="#00285D"/>
      <stop offset="4.571%" stop-color="#17A167"/>
      <stop offset="9.931%" stop-color="#138D6D"/>
      <stop offset="88.945%" stop-color="#0B673E"/>
      <stop offset="93.793%" stop-color="#187951"/>
      <stop offset="100%" stop-color="#002472"/>
    </linearGradient>
    <linearGradient id="drive-harddisk-mac-b" x1="100%" x2="0%" y1="56.43%" y2="56.43%">
      <stop offset="0%" stop-color="#FFF" stop-opacity=".29"/>
      <stop offset="8.389%" stop-color="#CDCDCD" stop-opacity=".94"/>
      <stop offset="52.356%" stop-color="#FFF" stop-opacity=".55"/>
      <stop offset="88.168%" stop-color="#CDCDCD" stop-opacity=".94"/>
      <stop offset="100%" stop-color="#FFF" stop-opacity=".29"/>
    </linearGradient>
    <radialGradient id="drive-harddisk-mac-c" cx="48.239%" cy="19.103%" r="78.654%" fx="48.239%" fy="19.103%" gradientTransform="matrix(0 1 -.67138 0 .61 -.291)">
      <stop offset="0%" stop-color="#47A9E0"/>
      <stop offset="100%" stop-color="#967B99"/>
    </radialGradient>
    <linearGradient id="drive-harddisk-mac-d" x1="50%" x2="50%" y1="0%" y2="100%">
      <stop offset="0%" stop-color="#0A2CBC"/>
      <stop offset="50.85%" stop-color="#116CB9"/>
      <stop offset="100%" stop-color="#0904C1"/>
    </linearGradient>
    <radialGradient id="drive-harddisk-mac-e" cx="50%" cy="37.643%" r="62.357%" fx="50%" fy="37.643%">
      <stop offset="0%" stop-color="#8ED63F"/>
      <stop offset="100%" stop-color="#28AC00"/>
    </radialGradient>
  </defs>
  <g fill="none" fill-rule="evenodd">
    <path fill="url(#drive-harddisk-mac-a)" d="M4,4.99253976 C4,3.33980569 5.3366311,2 7.0094777,2 L16.9905228,2 C18.6526114,2 20.0000004,3.35292554 20.0000004,4.99253976 L20,20 L4,20 L4,4.99253976 Z"/>
    <path fill="url(#drive-harddisk-mac-b)" stroke="#FFF" stroke-opacity=".2" d="M4.5,18.7428222 L4.5,19.9906311 C4.5,20.2770219 4.72402818,20.5 5.0081843,20.5 L9.82448781,20.5 C10.8320422,20.5 10.8320422,20.5 11.8311881,20.5 L19.0014841,20.5 C19.2784072,20.5 19.5,20.2752381 19.5,19.9906311 L19.5,18.7428222 C19.5,18.0625193 18.9397245,17.5 18.2572615,17.5 L5.74273849,17.5 C5.06445207,17.5 4.5,18.0615431 4.5,18.7428222 Z"/>
    <path fill="url(#drive-harddisk-mac-c)" stroke="#003D9C" stroke-opacity=".2" d="M4.5,20.5 C4.5,21.0553749 4.9473686,21.5000001 5.50524116,21.5000001 L18.4947588,21.5000001 C19.054424,21.5000001 19.5,21.0545878 19.5,20.5000001 C19.5,19.9446252 19.0526314,19.5000001 18.4947588,19.5000001 L5.50524115,19.5 C4.94557597,19.5 4.5,19.9454123 4.5,20.5 Z"/>
    <path fill="url(#drive-harddisk-mac-d)" d="M19,20 L19,21 L18,21 L18,20 L19,20 Z M17,20 L17,21 L16,21 L16,20 L17,20 Z M15,20 L15,21 L14,21 L14,20 L15,20 Z M13,20 L13,21 L12,21 L12,20 L13,20 Z"/>
    <path fill="url(#drive-harddisk-mac-e)" d="M5.5,21 C5.77614237,21 6,20.7761424 6,20.5 C6,20.2238576 5.77614237,20 5.5,20 C5.22385763,20 5,20.2238576 5,20.5 C5,20.7761424 5.22385763,21 5.5,21 Z"/>
    <path fill="#FFF" fill-opacity=".6" d="M17.1654826,11.6786946 C16.8873892,12.2944211 16.7545142,12.5696102 16.3972766,13.1134536 C15.8977249,13.8736726 15.1948673,14.8197713 14.32283,14.8277583 C13.5480892,14.8350192 13.3491398,14.32385 12.2984838,14.3296587 C11.2471017,14.3354675 11.0278218,14.8364714 10.2530809,14.8299365 C9.3810437,14.8219495 8.71449068,13.9673385 8.21566506,13.2071196 C6.81938896,11.0825726 6.67344434,8.58917052 7.53459018,7.2633254 C8.14668626,6.32158328 9.11093725,5.77047898 10.018553,5.77047898 C10.9428689,5.77047898 11.523743,6.27656554 12.2875924,6.27656554 C13.0282069,6.27656554 13.4798365,5.7690268 14.5479188,5.7690268 C15.3553337,5.7690268 16.2106708,6.20903892 16.8205886,6.96925789 C14.8231079,8.06347946 15.1476713,10.9162974 17.1654826,11.6786946 L17.1654826,11.6786946 Z M13.7375268,4.92051497 C14.1252602,4.42241543 14.4200538,3.71883169 14.3133182,3 C13.6794394,3.04356556 12.9380988,3.44727305 12.5053476,3.9729641 C12.1118054,4.45000695 11.787242,5.15794725 11.9143082,5.84628305 C12.6062745,5.86733974 13.3222018,5.45419304 13.7375268,4.92051497 L13.7375268,4.92051497 Z"/>
  </g>
</svg>
