<?xml version="1.0" encoding="UTF-8"?>
<svg width="512px" height="512px" viewBox="0 0 512 512" version="1.1" xmlns="http://www.w3.org/2000/svg" xmlns:xlink="http://www.w3.org/1999/xlink">
    <title>devices/512/computer</title>
    <defs>
        <filter x="-7.3%" y="-6.4%" width="114.7%" height="116.7%" filterUnits="objectBoundingBox" id="filter-1">
            <feOffset dx="0" dy="8" in="SourceAlpha" result="shadowOffsetOuter1"></feOffset>
            <feGaussianBlur stdDeviation="10" in="shadowOffsetOuter1" result="shadowBlurOuter1"></feGaussianBlur>
            <feColorMatrix values="0 0 0 0 0   0 0 0 0 0   0 0 0 0 0  0 0 0 0.2 0" type="matrix" in="shadowBlurOuter1" result="shadowMatrixOuter1"></feColorMatrix>
            <feMerge>
                <feMergeNode in="shadowMatrixOuter1"></feMergeNode>
                <feMergeNode in="SourceGraphic"></feMergeNode>
            </feMerge>
        </filter>
        <linearGradient x1="50%" y1="100%" x2="50%" y2="0%" id="linearGradient-2">
            <stop stop-color="#CFDAFC" offset="0%"></stop>
            <stop stop-color="#CDCFD2" offset="100%"></stop>
        </linearGradient>
        <polygon id="path-3" points="192 354 272 354 272 400 192 400"></polygon>
        <filter x="-10.0%" y="-17.4%" width="120.0%" height="134.8%" filterUnits="objectBoundingBox" id="filter-4">
            <feGaussianBlur stdDeviation="4" in="SourceAlpha" result="shadowBlurInner1"></feGaussianBlur>
            <feOffset dx="0" dy="8" in="shadowBlurInner1" result="shadowOffsetInner1"></feOffset>
            <feComposite in="shadowOffsetInner1" in2="SourceAlpha" operator="arithmetic" k2="-1" k3="1" result="shadowInnerInner1"></feComposite>
            <feColorMatrix values="0 0 0 0 0.305544245   0 0 0 0 0.316030326   0 0 0 0 0.533769248  0 0 0 0.178130463 0" type="matrix" in="shadowInnerInner1"></feColorMatrix>
        </filter>
        <linearGradient x1="50%" y1="0%" x2="50%" y2="80.1038369%" id="linearGradient-5">
            <stop stop-color="#FFFFFF" offset="0%"></stop>
            <stop stop-color="#EBF4FF" offset="100%"></stop>
        </linearGradient>
        <path d="M158,394 L306,394 C309.313708,394 312,396.686292 312,400 C312,403.313708 309.313708,406 306,406 L158,406 C154.686292,406 152,403.313708 152,400 C152,396.686292 154.686292,394 158,394 Z" id="path-6"></path>
        <filter x="-1.2%" y="-16.7%" width="102.5%" height="133.3%" filterUnits="objectBoundingBox" id="filter-7">
            <feOffset dx="0" dy="-4" in="SourceAlpha" result="shadowOffsetInner1"></feOffset>
            <feComposite in="shadowOffsetInner1" in2="SourceAlpha" operator="arithmetic" k2="-1" k3="1" result="shadowInnerInner1"></feComposite>
            <feColorMatrix values="0 0 0 0 0   0 0 0 0 0   0 0 0 0 0  0 0 0 0.168651661 0" type="matrix" in="shadowInnerInner1"></feColorMatrix>
        </filter>
        <linearGradient x1="39.598747%" y1="20.5670333%" x2="75.3018846%" y2="79.4329667%" id="linearGradient-8">
            <stop stop-color="#D7E4FF" offset="0%"></stop>
            <stop stop-color="#F4F9FF" offset="100%"></stop>
        </linearGradient>
        <path d="M50,0 L414,0 C441.614237,-5.07265313e-15 464,22.3857625 464,50 L464,306 C464,333.614237 441.614237,356 414,356 L50,356 C22.3857625,356 -3.2145368e-14,333.614237 -3.55271368e-14,306 L0,50 C-3.38176876e-15,22.3857625 22.3857625,5.07265313e-15 50,0 Z" id="path-9"></path>
        <filter x="-0.4%" y="-0.6%" width="100.9%" height="101.1%" filterUnits="objectBoundingBox" id="filter-10">
            <feOffset dx="0" dy="-4" in="SourceAlpha" result="shadowOffsetInner1"></feOffset>
            <feComposite in="shadowOffsetInner1" in2="SourceAlpha" operator="arithmetic" k2="-1" k3="1" result="shadowInnerInner1"></feComposite>
            <feColorMatrix values="0 0 0 0 0   0 0 0 0 0   0 0 0 0 0  0 0 0 0.12 0" type="matrix" in="shadowInnerInner1" result="shadowMatrixInner1"></feColorMatrix>
            <feOffset dx="0" dy="4" in="SourceAlpha" result="shadowOffsetInner2"></feOffset>
            <feComposite in="shadowOffsetInner2" in2="SourceAlpha" operator="arithmetic" k2="-1" k3="1" result="shadowInnerInner2"></feComposite>
            <feColorMatrix values="0 0 0 0 1   0 0 0 0 1   0 0 0 0 1  0 0 0 1 0" type="matrix" in="shadowInnerInner2" result="shadowMatrixInner2"></feColorMatrix>
            <feMerge>
                <feMergeNode in="shadowMatrixInner1"></feMergeNode>
                <feMergeNode in="shadowMatrixInner2"></feMergeNode>
            </feMerge>
        </filter>
        <linearGradient x1="46.8261315%" y1="0.564822635%" x2="46.8261315%" y2="99.6640703%" id="linearGradient-11">
            <stop stop-color="#4F5D73" offset="0%"></stop>
            <stop stop-color="#313A46" offset="100%"></stop>
        </linearGradient>
        <path d="M36,0 L400,0 C419.882251,-3.65231026e-15 436,16.117749 436,36 L436,292 C436,311.882251 419.882251,328 400,328 L36,328 C16.117749,328 2.4348735e-15,311.882251 0,292 L0,36 C-2.4348735e-15,16.117749 16.117749,3.65231026e-15 36,0 Z" id="path-12"></path>
        <linearGradient x1="0%" y1="50%" x2="100%" y2="50%" id="linearGradient-14">
            <stop stop-color="#A09AD3" offset="0%"></stop>
            <stop stop-color="#988DD9" offset="49.6179452%"></stop>
            <stop stop-color="#1654D2" offset="100%"></stop>
        </linearGradient>
    </defs>
    <g id="devices/512/computer" stroke="none" stroke-width="1" fill="none" fill-rule="evenodd">
        <g id="矩形" filter="url(#filter-1)" transform="translate(24, 57)">
            <g>
                <use fill="url(#linearGradient-2)" fill-rule="evenodd" xlink:href="#path-3"></use>
                <use fill="black" fill-opacity="1" filter="url(#filter-4)" xlink:href="#path-3"></use>
            </g>
            <g>
                <use fill="url(#linearGradient-5)" fill-rule="evenodd" xlink:href="#path-6"></use>
                <use fill="black" fill-opacity="1" filter="url(#filter-7)" xlink:href="#path-6"></use>
            </g>
            <g id="蒙版">
                <use fill="url(#linearGradient-8)" fill-rule="evenodd" xlink:href="#path-9"></use>
                <use fill="black" fill-opacity="1" filter="url(#filter-10)" xlink:href="#path-9"></use>
            </g>
            <g id="kevin-lanceplaine-243768-unsplash" transform="translate(14, 14)">
                <mask id="mask-13" fill="white">
                    <use xlink:href="#path-12"></use>
                </mask>
                <use id="蒙版" fill="url(#linearGradient-11)" xlink:href="#path-12"></use>
                <g id="编组" mask="url(#mask-13)">
                    <g transform="translate(-13, -58)">
                        <path d="M336.373,43 C297.142411,133.801387 281.312524,184.20951 288.88334,194.224368 C300.239563,209.246657 296.110027,247.30312 280.624268,268.334324 C265.13851,289.365527 216.616465,303.38633 211.454545,320.41159 C206.292626,337.43685 76.2122513,358.454681 63.8236442,372.475483 C51.4350371,386.496285 73.1150995,381.488856 73.1150995,386.496285 C73.1150995,389.834572 199.410066,389.834572 452,386.496285 L452,43 L336.373,43 Z" id="路径-3" fill="#1C4186"></path>
                        <path d="M342.264194,45.0325848 C361.544447,45.0325848 357.068674,71.7185609 328.836875,125.090513 C286.489176,205.148442 274.094728,235.170165 261.70028,256.185371 C249.305832,277.200577 192.497943,362.262126 168.741918,369.267195 C144.985892,376.272264 78.8821673,371.268643 65.4548483,371.268643 C56.5033023,371.268643 58.5690437,278.868451 71.6520725,94.068066 L160.478952,0 L342.264194,45.0325848 Z" id="路径-2" fill="#E080A9"></path>
                        <path d="M161,37 C147.905405,59.6666667 144.114865,91.3333333 149.628378,132 C157.898649,193 103.108108,257 114.47973,303 C125.851351,349 67,403 67,403 C67,403 47.3333333,392.666667 8,372 L0,84 L33.8445946,29 L161,37 Z" id="路径" fill="#101852"></path>
                        <path d="M312.041936,120.704384 C288.734947,137.820061 277.081453,156.918599 277.081453,178 C277.081453,219 256.460021,265 222.434657,276 C188.409294,287 153.352858,284 145.104285,316 C136.855712,348 112.109993,322 98.7060624,335 C85.3021313,348 88.4660744,385 73,390 C62.6892838,393.333333 133.465959,392 285.330026,386 C294.953361,318 317.636937,271.333333 353.380753,246 C406.996478,208 304.920387,197 347.194324,164 C375.376948,142 377.312174,101.666667 353,43 L344.864438,72.8887584 C339.641069,92.0783184 328.071615,108.932715 312.042021,120.704501 Z" id="路径-4" fill="#7A6C9F"></path>
                    </g>
                </g>
                <g id="编组-2" mask="url(#mask-13)">
                    <g transform="translate(17, 273)">
                        <rect id="bg" stroke-opacity="0.08" stroke="#000000" stroke-width="1" fill="url(#linearGradient-14)" x="-0.5" y="-0.5" width="403" height="39" rx="10"></rect>
                        <rect id="矩形" stroke="none" fill="#00C98F" x="46" y="8" width="22" height="22" rx="5"></rect>
                        <rect id="矩形备份-2" stroke="none" fill="#75FFAC" x="143" y="8" width="22" height="22" rx="5"></rect>
                        <rect id="矩形备份" stroke="none" fill="#FF7D52" x="77" y="8" width="22" height="22" rx="5"></rect>
                        <rect id="矩形备份-3" stroke="none" fill="#FFB656" x="174" y="8" width="22" height="22" rx="5"></rect>
                        <rect id="矩形备份-7" stroke="none" fill="#FF796E" x="238" y="8" width="22" height="22" rx="5"></rect>
                        <rect id="矩形备份-4" stroke="none" fill-opacity="0.3" fill="#000000" x="334" y="8" width="22" height="22" rx="5"></rect>
                        <rect id="矩形备份-6" stroke="none" fill-opacity="0.3" fill="#000000" x="303" y="8" width="22" height="22" rx="5"></rect>
                        <rect id="矩形备份-5" stroke="none" fill-opacity="0.3" fill="#000000" x="366" y="8" width="22" height="22" rx="5"></rect>
                        <circle id="椭圆形" stroke="none" fill="#326CFF" cx="25" cy="19" r="11"></circle>
                        <circle id="椭圆形备份" stroke="none" fill="#482AC5" cx="217" cy="19" r="11"></circle>
                    </g>
                </g>
            </g>
        </g>
        <g id="Guide/512" transform="translate(15, 15)"></g>
    </g>
</svg>