<svg xmlns="http://www.w3.org/2000/svg" xmlns:xlink="http://www.w3.org/1999/xlink" width="512" height="512" viewBox="0 0 512 512">
  <defs>
    <filter id="computer-a" width="123.5%" height="127.7%" x="-11.7%" y="-13.8%" filterUnits="objectBoundingBox">
      <feOffset dy="8" in="SourceAlpha" result="shadowOffsetOuter1"/>
      <feGaussianBlur in="shadowOffsetOuter1" result="shadowBlurOuter1" stdDeviation="10"/>
      <feComposite in="shadowBlurOuter1" in2="SourceAlpha" operator="out" result="shadowBlurOuter1"/>
      <feColorMatrix in="shadowBlurOuter1" result="shadowMatrixOuter1" values="0 0 0 0 0   0 0 0 0 0   0 0 0 0 0  0 0 0 0.2 0"/>
      <feMerge>
        <feMergeNode in="shadowMatrixOuter1"/>
        <feMergeNode in="SourceGraphic"/>
      </feMerge>
    </filter>
    <linearGradient id="computer-b" x1="50%" x2="50%" y1="100%" y2="0%">
      <stop offset="0%" stop-color="#CFDAFC"/>
      <stop offset="100%" stop-color="#CDCFD2"/>
    </linearGradient>
    <polygon id="computer-c" points="190 338 270 338 270 384 190 384"/>
    <filter id="computer-d" width="120%" height="134.8%" x="-10%" y="-17.4%" filterUnits="objectBoundingBox">
      <feGaussianBlur in="SourceAlpha" result="shadowBlurInner1" stdDeviation="4"/>
      <feOffset dy="8" in="shadowBlurInner1" result="shadowOffsetInner1"/>
      <feComposite in="shadowOffsetInner1" in2="SourceAlpha" k2="-1" k3="1" operator="arithmetic" result="shadowInnerInner1"/>
      <feColorMatrix in="shadowInnerInner1" values="0 0 0 0 0.305544245   0 0 0 0 0.316030326   0 0 0 0 0.533769248  0 0 0 0.178130463 0"/>
    </filter>
    <linearGradient id="computer-e" x1="50%" x2="50%" y1="0%" y2="80.104%">
      <stop offset="0%" stop-color="#FFF"/>
      <stop offset="100%" stop-color="#EBF4FF"/>
    </linearGradient>
    <path id="computer-f" d="M156,378 L304,378 C307.313708,378 310,380.686292 310,384 C310,387.313708 307.313708,390 304,390 L156,390 C152.686292,390 150,387.313708 150,384 C150,380.686292 152.686292,378 156,378 Z"/>
    <filter id="computer-g" width="102.5%" height="133.3%" x="-1.2%" y="-16.7%" filterUnits="objectBoundingBox">
      <feOffset dy="-4" in="SourceAlpha" result="shadowOffsetInner1"/>
      <feComposite in="shadowOffsetInner1" in2="SourceAlpha" k2="-1" k3="1" operator="arithmetic" result="shadowInnerInner1"/>
      <feColorMatrix in="shadowInnerInner1" values="0 0 0 0 0   0 0 0 0 0   0 0 0 0 0  0 0 0 0.168651661 0"/>
    </filter>
    <linearGradient id="computer-h" x1="39.599%" x2="75.302%" y1="22.684%" y2="77.316%">
      <stop offset="0%" stop-color="#D7E4FF"/>
      <stop offset="100%" stop-color="#F4F9FF"/>
    </linearGradient>
    <rect id="computer-i" width="460" height="340" x="0" y="0" rx="50"/>
    <filter id="computer-j" width="100.9%" height="101.2%" x="-.4%" y="-.6%" filterUnits="objectBoundingBox">
      <feOffset dy="-4" in="SourceAlpha" result="shadowOffsetInner1"/>
      <feComposite in="shadowOffsetInner1" in2="SourceAlpha" k2="-1" k3="1" operator="arithmetic" result="shadowInnerInner1"/>
      <feColorMatrix in="shadowInnerInner1" result="shadowMatrixInner1" values="0 0 0 0 0   0 0 0 0 0   0 0 0 0 0  0 0 0 0.12 0"/>
      <feOffset dy="4" in="SourceAlpha" result="shadowOffsetInner2"/>
      <feComposite in="shadowOffsetInner2" in2="SourceAlpha" k2="-1" k3="1" operator="arithmetic" result="shadowInnerInner2"/>
      <feColorMatrix in="shadowInnerInner2" result="shadowMatrixInner2" values="0 0 0 0 1   0 0 0 0 1   0 0 0 0 1  0 0 0 1 0"/>
      <feMerge>
        <feMergeNode in="shadowMatrixInner1"/>
        <feMergeNode in="shadowMatrixInner2"/>
      </feMerge>
    </filter>
    <linearGradient id="computer-l" x1="46.826%" x2="46.826%" y1=".565%" y2="99.664%">
      <stop offset="0%" stop-color="#4F5D73"/>
      <stop offset="100%" stop-color="#313A46"/>
    </linearGradient>
    <rect id="computer-k" width="432" height="312" x="0" y="0" rx="36"/>
    <linearGradient id="computer-n" x1="0%" x2="100%" y1="50%" y2="50%">
      <stop offset="0%" stop-color="#A09AD3"/>
      <stop offset="49.618%" stop-color="#988DD9"/>
      <stop offset="100%" stop-color="#1654D2"/>
    </linearGradient>
  </defs>
  <g fill="none" fill-rule="evenodd" filter="url(#computer-a)" transform="translate(26 61)">
    <use fill="url(#computer-b)" xlink:href="#computer-c"/>
    <use fill="#000" filter="url(#computer-d)" xlink:href="#computer-c"/>
    <use fill="url(#computer-e)" xlink:href="#computer-f"/>
    <use fill="#000" filter="url(#computer-g)" xlink:href="#computer-f"/>
    <use fill="url(#computer-h)" xlink:href="#computer-i"/>
    <use fill="#000" filter="url(#computer-j)" xlink:href="#computer-i"/>
    <g transform="translate(14 14)">
      <mask id="computer-m" fill="#fff">
        <use xlink:href="#computer-k"/>
      </mask>
      <use fill="url(#computer-l)" xlink:href="#computer-k"/>
      <g mask="url(#computer-m)">
        <g transform="translate(-15 -62)">
          <path fill="#1C4186" d="M336.373,43 C297.142411,133.801387 281.312524,184.20951 288.88334,194.224368 C300.239563,209.246657 296.110027,247.30312 280.624268,268.334324 C265.13851,289.365527 216.616465,303.38633 211.454545,320.41159 C206.292626,337.43685 76.2122513,349.454681 63.8236442,363.475483 C51.4350371,377.496285 73.1150995,372.488856 73.1150995,377.496285 C73.1150995,380.834572 199.410066,380.834572 452,377.496285 L452,43 L336.373,43 Z"/>
          <path fill="#E080A9" d="M342.264194,45.0325848 C361.544447,45.0325848 357.068674,71.7185609 328.836875,125.090513 C286.489176,205.148442 274.094728,235.170165 261.70028,256.185371 C249.305832,277.200577 192.497943,362.262126 168.741918,369.267195 C144.985892,376.272264 78.8821673,371.268643 65.4548483,371.268643 C56.5033023,371.268643 58.5690437,278.868451 71.6520725,94.068066 L160.478952,0 L342.264194,45.0325848 Z"/>
          <path fill="#101852" d="M161,37 C147.905405,59.6666667 144.114865,91.3333333 149.628378,132 C157.898649,193 103.108108,257 114.47973,303 C125.851351,349 67,394 67,394 C67,394 47.3333333,383.666667 8,363 L0,84 L33.8445946,29 L161,37 Z"/>
          <path fill="#7A6C9F" d="M312.041745,120.704524 C288.734884,137.820165 277.081453,156.918657 277.081453,178 C277.081453,219 256.460021,265 222.434657,276 C188.409294,287 153.352858,284 145.104285,316 C136.855712,348 112.109993,322 98.7060624,335 C85.3021313,348 88.4660744,376 73,381 C62.6892838,384.333333 133.465959,383 285.330026,377 C294.953361,315 317.636937,271.333333 353.380753,246 C406.996478,208 304.920387,197 347.194324,164 C375.376948,142 377.312174,101.666667 353,43 L344.86533,72.88688 C339.642043,92.0773016 328.072126,108.932444 312.041745,120.704524 Z"/>
        </g>
      </g>
      <g mask="url(#computer-m)">
        <g transform="translate(15 259)">
          <rect width="403" height="39" x="-.5" y="-.5" fill="url(#computer-n)" stroke="#000" stroke-opacity=".08" rx="10"/>
          <rect width="22" height="22" x="46" y="8" fill="#00C98F" rx="5"/>
          <rect width="22" height="22" x="143" y="8" fill="#75FFAC" rx="5"/>
          <rect width="22" height="22" x="77" y="8" fill="#FF7D52" rx="5"/>
          <rect width="22" height="22" x="174" y="8" fill="#FFB656" rx="5"/>
          <rect width="22" height="22" x="238" y="8" fill="#FF796E" rx="5"/>
          <rect width="22" height="22" x="334" y="8" fill="#000" fill-opacity=".3" rx="5"/>
          <rect width="22" height="22" x="303" y="8" fill="#000" fill-opacity=".3" rx="5"/>
          <rect width="22" height="22" x="366" y="8" fill="#000" fill-opacity=".3" rx="5"/>
          <circle cx="25" cy="19" r="11" fill="#326CFF"/>
          <circle cx="217" cy="19" r="11" fill="#482AC5"/>
        </g>
      </g>
    </g>
  </g>
</svg>
