<svg xmlns="http://www.w3.org/2000/svg" xmlns:xlink="http://www.w3.org/1999/xlink" width="16" height="16" viewBox="0 0 16 16">
  <defs>
    <linearGradient id="application-x-glade-c" x1="50%" x2="50%" y1="0%" y2="100%">
      <stop offset="0%" stop-color="#6F99D9"/>
      <stop offset="100%" stop-color="#2A90C8"/>
    </linearGradient>
    <path id="application-x-glade-b" d="M2.0085302,14 C0.899249601,14 0,13.1029399 0,11.9941413 L0,2.00585866 C0,0.898053512 0.901950359,1.64284137e-15 2.0085302,1.47903464e-15 L9.9914698,2.97322196e-16 C11.1007504,1.33115682e-16 12,0.897060126 12,2.00585866 L12,11.9941413 C12,13.1019465 11.0980496,14 9.9914698,14 L2.0085302,14 Z"/>
    <filter id="application-x-glade-a" width="133.3%" height="128.6%" x="-16.7%" y="-7.1%" filterUnits="objectBoundingBox">
      <feOffset dy="1" in="SourceAlpha" result="shadowOffsetOuter1"/>
      <feGaussianBlur in="shadowOffsetOuter1" result="shadowBlurOuter1" stdDeviation=".5"/>
      <feColorMatrix in="shadowBlurOuter1" values="0 0 0 0 0.474509804   0 0 0 0 0.619607843   0 0 0 0 0.701960784  0 0 0 0.5 0"/>
    </filter>
  </defs>
  <g fill="none" fill-rule="evenodd">
    <g transform="translate(2 1)">
      <use fill="#000" filter="url(#application-x-glade-a)" xlink:href="#application-x-glade-b"/>
      <use fill="url(#application-x-glade-c)" xlink:href="#application-x-glade-b"/>
    </g>
    <path stroke="#FFF" d="M0 2.16666667L10 2.16666667M0 4.16666667L10 4.16678874M3 6.16666667L7 6.16796875M5 8.16666667L7 8.16617839M1.5.666666667L1.5 11.6666667M8.5.666666667L8.5 11.6666667M0 10.1666667L10 10.1666667" transform="translate(3 2.333)"/>
  </g>
</svg>
