<svg xmlns="http://www.w3.org/2000/svg" xmlns:xlink="http://www.w3.org/1999/xlink" width="16" height="16" viewBox="0 0 16 16">
  <defs>
    <linearGradient id="application-x-font-ttf-c" x1="50%" x2="50%" y1="0%" y2="99.372%">
      <stop offset="0%" stop-color="#D6D6D6"/>
      <stop offset="98.276%" stop-color="#AAA"/>
    </linearGradient>
    <path id="application-x-font-ttf-b" d="M4.0085302,15 C2.8992496,15 2,14.1029399 2,12.9941413 L2,3.00585866 C2,1.89805351 2.90195036,1 4.0085302,1 L11.9914698,1 C13.1007504,1 14,1.89706013 14,3.00585866 L14,12.9941413 C14,14.1019465 13.0980496,15 11.9914698,15 L4.0085302,15 Z"/>
    <filter id="application-x-font-ttf-a" width="133.3%" height="128.6%" x="-16.7%" y="-7.1%" filterUnits="objectBoundingBox">
      <feOffset dy="1" in="SourceAlpha" result="shadowOffsetOuter1"/>
      <feGaussianBlur in="shadowOffsetOuter1" result="shadowBlurOuter1" stdDeviation=".5"/>
      <feColorMatrix in="shadowBlurOuter1" values="0 0 0 0 0   0 0 0 0 0   0 0 0 0 0  0 0 0 0.2 0"/>
    </filter>
  </defs>
  <g fill="none" fill-rule="evenodd">
    <use fill="#000" filter="url(#application-x-font-ttf-a)" xlink:href="#application-x-font-ttf-b"/>
    <use fill="url(#application-x-font-ttf-c)" xlink:href="#application-x-font-ttf-b"/>
    <path fill="#FFF" d="M10,14 L10,13 L9.66666667,13 C9.66666667,13 9,13 9,12.4210526 L9,10 L10,10 L10,9 L9,9 L9,8 L8,8 L8,9 L7,9 L7,10 L8,10 L8,12.4210526 C8,13.4113684 8.808,14 9.66666667,14 L10,14 Z M7,14 L7,13 L6.66666667,13 C6.66666667,13 6,13 6,12.4210526 L6,10 L7,10 L7,9 L6,9 L6,8 L5,8 L5,9 L4,9 L4,10 L5,10 L5,12.4210526 C5,13.4113684 5.808,14 6.66666667,14 L7,14 Z M13,7 L12.5,7 C11.5,7 11,7.5 11,8.5 L11,9 L10,9 L10,10 L11,10 L11,14 L12,14 L12,10 L13,10 L13,9 L12,9 L12,8.5 C12,8.5 12,8 12.5,8 L13,8 L13,7 Z"/>
  </g>
</svg>
