<?xml version="1.0" encoding="UTF-8"?>
<svg width="16px" height="16px" viewBox="0 0 16 16" version="1.1" xmlns="http://www.w3.org/2000/svg" xmlns:xlink="http://www.w3.org/1999/xlink">
    <!-- Generator: Sketch 41 (35326) - http://www.bohemiancoding.com/sketch -->
    <title>application-x-rar</title>
    <desc>Created with Sketch.</desc>
    <defs></defs>
    <g id="Page-1" stroke="none" stroke-width="1" fill="none" fill-rule="evenodd">
        <g id="application-x-rar">
            <g id="Group" transform="translate(2.000000, 1.000000)" fill="#9951AB">
                <polygon id="path14361" points="0 14 0 1.77635684e-15 12 0 12 14"></polygon>
            </g>
            <path d="M4.99200051,3 L4.98393753,4 L3.98400102,4 L3.992064,3 L4.99200051,3 Z M5.98400102,4 L6,5 L5.00006349,5 L4.9840645,4 L5.98400102,4 Z M4.99993651,5 L4.99993651,6 L4,6 L4,5 L4.99993651,5 Z M5.9681895,7 L5.99993651,8 L4.01574803,8 L3.98400102,7 L5.9681895,7 Z M6,1 L6,2 L4,2 L4,1 L6,1 Z" id="Combined-Shape" fill="#FFFFFF"></path>
            <path d="M6.7375,13 L6.4,14 L5.5,14 L7.3,9 L8.2,9 L10,14 L9.1,14 L8.7625,13 L6.7375,13 Z M7.075,12 L7.75,10 L8.425,12 L7.075,12 Z" id="Combined-Shape" fill="#FFFFFF"></path>
            <path d="M13.5555556,10.5 C13.5555556,9.66579723 12.9604662,9 12.2263862,9 L11.7777778,9 L10,9 L10,14 L11,14 L11,12 L11.2345679,12 L12.8148148,14 L14,14 L12.4085384,11.9858064 C13.051496,11.8848923 13.5555556,11.2581275 13.5555556,10.5 Z M12.2180583,10 C12.4658178,10 12.6666667,10.2319336 12.6666667,10.5 C12.6666667,10.7761424 12.4764133,11 12.2180583,11 L11,11 L11,10 L12.2180583,10 Z" id="Combined-Shape" fill="#FFFFFF"></path>
            <path d="M5.55555556,10.5 C5.55555556,9.66579723 4.96046615,9 4.22638618,9 L3.77777778,9 L2,9 L2,14 L3,14 L3,12 L3.2345679,12 L4.81481481,14 L6,14 L4.40853839,11.9858064 C5.05149604,11.8848923 5.55555556,11.2581275 5.55555556,10.5 Z M4.21805827,10 C4.46581785,10 4.66666667,10.2319336 4.66666667,10.5 C4.66666667,10.7761424 4.4764133,11 4.21805827,11 L3,11 L3,10 L4.21805827,10 Z" id="Combined-Shape" fill="#FFFFFF"></path>
        </g>
    </g>
</svg>