<?xml version="1.0" encoding="UTF-8"?>
<svg width="16px" height="16px" viewBox="0 0 16 16" version="1.1" xmlns="http://www.w3.org/2000/svg" xmlns:xlink="http://www.w3.org/1999/xlink">
    <!-- Generator: Sketch 41 (35326) - http://www.bohemiancoding.com/sketch -->
    <title>application-pgp-keys</title>
    <desc>Created with Sketch.</desc>
    <defs></defs>
    <g id="Page-1" stroke="none" stroke-width="1" fill="none" fill-rule="evenodd">
        <g id="application-pgp-keys">
            <polygon id="path14361" fill="#C5A981" points="2 15 2 1 14 1 14 15"></polygon>
            <path d="M12.7550262,7.35439076 C13.0992723,6.94752036 13.0782726,6.3497771 12.7074018,5.97890628 L11.0202958,4.29255031 C10.649425,3.9216795 10.0509317,3.90067973 9.64368632,4.24530084 L7.36746201,6.04528053 C6.90921718,6.43302616 6.87434257,7.12601834 7.29246285,7.54376363 L9.45656343,9.70711422 C9.87505871,10.1256095 10.5684259,10.0907349 10.9565465,9.63174007 L12.7550262,7.35439076 L12.7550262,7.35439076 Z M10.4833019,4.82916926 L12.1704078,6.51590023 C12.2615318,6.6066492 12.2630318,6.76002247 12.1749078,6.86464629 L11.8407865,7.26026683 L9.73931024,5.15916553 L10.1349308,4.82466931 C10.2388046,4.73617031 10.3921779,4.73842028 10.4833019,4.82916926 L10.4833019,4.82916926 Z M8.63982265,9.95086147 L5.59110705,12.9999521 L4.53061901,12.9999521 L4.265497,12.7348301 L6.99996615,9.99998591 L6.73484414,9.73486391 L4.000375,12.469708 L4,11.40922 L7.0487156,8.36050441 L8.63982265,9.95086147 L8.63982265,9.95086147 Z" id="Shape" fill="#FFFFFF"></path>
        </g>
    </g>
</svg>