<?xml version="1.0" encoding="UTF-8"?>
<svg width="16px" height="16px" viewBox="0 0 16 16" version="1.1" xmlns="http://www.w3.org/2000/svg" xmlns:xlink="http://www.w3.org/1999/xlink">
    <!-- Generator: Sketch 41 (35326) - http://www.bohemiancoding.com/sketch -->
    <title>audio-x-wav</title>
    <desc>Created with Sketch.</desc>
    <defs></defs>
    <g id="Page-1" stroke="none" stroke-width="1" fill="none" fill-rule="evenodd">
        <g id="audio-x-wav">
            <polygon id="path14361" fill="#92D700" points="2 15 2 1 14 1 14 15"></polygon>
            <polygon id="Combined-Shape" fill="#FFFFFF" transform="translate(5.450000, 11.500000) scale(1, -1) translate(-5.450000, -11.500000) " points="4.95 14 4.20000005 11 3 14 2 14 4 9 4.69999981 9 5.5 12.5 6.19999981 9 7 9 8.9000001 14 8 14 6.80000019 11 6.05 14"></polygon>
            <path d="M7.75,12 L9.25,12 L8.5,10 L7.75,12 Z M9.625,13 L7.375,13 L7,14 L6.5,13.5 L8,9 L9,9 L11,14 L10,14 L9.625,13 Z" id="Combined-Shape" fill="#FFFFFF"></path>
            <polygon id="Combined-Shape" fill="#FFFFFF" points="12 12.5 11 9 10 9 11.5 14 12.5 14 14 9 13 9"></polygon>
        </g>
    </g>
</svg>