<?xml version="1.0" encoding="UTF-8"?>
<svg width="16px" height="16px" viewBox="0 0 16 16" version="1.1" xmlns="http://www.w3.org/2000/svg" xmlns:xlink="http://www.w3.org/1999/xlink">
    <!-- Generator: Sketch 41 (35326) - http://www.bohemiancoding.com/sketch -->
    <title>opera-extension</title>
    <desc>Created with Sketch.</desc>
    <defs></defs>
    <g id="Page-1" stroke="none" stroke-width="1" fill="none" fill-rule="evenodd">
        <g id="opera-extension">
            <polygon id="path14361" fill="#DF1124" points="2 15 2 1 14 1 14 15"></polygon>
            <path d="M7.09999992,2.79999995 C6.38202974,2.79999995 5.79999995,3.20294374 5.79999995,3.69999994 C5.82088595,3.88543993 5.93811775,4.11960673 5.99999994,4.19999993 C6.29999994,4.59999992 6.29999994,4.84999991 6.22499994,4.99999991 L3.79999999,4.99999991 C3.35679999,4.99999991 3,5.3567999 3,5.7999999 L3,7.82499986 C3.15,7.89999986 3.39999999,7.89999986 3.79999999,7.59999986 C3.88039318,7.53811766 4.11455998,7.42088587 4.29999998,7.39999987 C4.79705617,7.39999987 5.19999996,7.98202966 5.19999996,8.69999984 C5.19999996,9.41797003 4.79705617,9.99999982 4.29999998,9.99999982 C4.14744758,9.99741582 3.91552578,9.86097882 3.79999999,9.79999982 C3.39999999,9.49999983 3.15,9.49999983 3,9.57499983 L3,12.1999998 C3,12.6431998 3.35679999,12.9999998 3.79999999,12.9999998 L7.02499992,12.9999998 C7.09999992,12.8499998 7.09999992,12.5999998 6.79999993,12.1999998 C6.73811773,12.1196066 6.62088593,11.8854398 6.59999993,11.6999998 C6.59999993,11.2029436 7.18202972,10.7999998 7.89999991,10.7999998 C8.61797009,10.7999998 9.19999988,11.2029436 9.19999988,11.6999998 C9.19741588,11.8525522 9.06097889,12.084474 8.99999989,12.1999998 C8.69999989,12.5999998 8.69999989,12.8499998 8.77499989,12.9999998 L10.1999999,12.9999998 C10.6431999,12.9999998 10.9999999,12.6431998 10.9999999,12.1999998 L10.9999999,9.97499982 C11.1499998,9.89999982 11.3999998,9.89999982 11.7999998,10.1999998 C11.9155256,10.2609788 12.1474474,10.397416 12.2999998,10.3999998 C12.797056,10.3999998 13.1999998,9.81797002 13.1999998,9.09999983 C13.1999998,8.38202965 12.797056,7.79999986 12.2999998,7.79999986 C12.1145598,7.82088586 11.880393,7.93811766 11.7999998,7.99999986 C11.3999998,8.29999985 11.1499998,8.29999985 10.9999999,8.22499985 L10.9999999,5.7999999 C10.9999999,5.3567999 10.6431999,4.99999991 10.1999999,4.99999991 L7.97499991,4.99999991 C7.89999991,4.84999991 7.89999991,4.59999992 8.1999999,4.19999993 C8.2609789,4.08447413 8.3974161,3.85255233 8.3999999,3.69999994 C8.3999999,3.20294374 7.81797011,2.79999995 7.09999992,2.79999995 L7.09999992,2.79999995 Z" id="rect4096" fill="#FFFFFF"></path>
        </g>
    </g>
</svg>