<?xml version="1.0" encoding="UTF-8"?>
<svg width="16px" height="16px" viewBox="0 0 16 16" version="1.1" xmlns="http://www.w3.org/2000/svg" xmlns:xlink="http://www.w3.org/1999/xlink">
    <!-- Generator: Sketch 41 (35326) - http://www.bohemiancoding.com/sketch -->
    <title>text-x-c++src</title>
    <desc>Created with Sketch.</desc>
    <defs></defs>
    <g id="Page-1" stroke="none" stroke-width="1" fill="none" fill-rule="evenodd">
        <g id="text-x-c++src">
            <polygon id="path14361" fill="#26A65B" points="2 15 2 1 14 1 14 15"></polygon>
            <path d="M8.5,6.29089001 C7.96897942,5.79981962 7.26042014,5.5 6.4822486,5.5 C4.83519818,5.5 3.5,6.84314575 3.5,8.5 C3.5,10.1568542 4.83519818,11.5 6.4822486,11.5 L6.4822486,11.5 C7.22893359,11.5 7.91152568,11.2239523 8.43467633,10.7677729" id="Oval" stroke="#FFFFFF"></path>
            <polygon id="Combined-Shape" fill="#FFFFFF" points="10 6 10 7 11 7 11 8 12 8 12 7 13 7 13 6 12 6 12 5 11 5 11 6"></polygon>
            <polygon id="Combined-Shape" fill="#FFFFFF" points="10 10 10 11 11 11 11 12 12 12 12 11 13 11 13 10 12 10 12 9 11 9 11 10"></polygon>
        </g>
    </g>
</svg>