<?xml version="1.0" encoding="UTF-8"?>
<svg width="16px" height="16px" viewBox="0 0 16 16" version="1.1" xmlns="http://www.w3.org/2000/svg" xmlns:xlink="http://www.w3.org/1999/xlink">
    <!-- Generator: Sketch 41 (35326) - http://www.bohemiancoding.com/sketch -->
    <title>text-x-c++hdr</title>
    <desc>Created with Sketch.</desc>
    <defs></defs>
    <g id="Page-1" stroke="none" stroke-width="1" fill="none" fill-rule="evenodd">
        <g id="text-x-c++hdr">
            <polygon id="path14361" fill="#EB2690" points="2 15 2 1 14 1 14 15"></polygon>
            <path d="M5,8 L5,11 L4,11 L4,4 L5,4 L5,7 L6.33402896,7 C6.70183461,7 7,7.30065012 7,7.66051865 L7,11 L6,11 L6,8.16129303 C6,8.07221335 5.93438721,8 5.82581329,8 L5,8 Z M3,10 L3,11 L2,11 L2,10 L3,10 Z" id="Combined-Shape" fill="#FFFFFF"></path>
            <polygon id="Combined-Shape" fill="#FFFFFF" points="11 7 11 8 12 8 12 9 13 9 13 8 14 8 14 7 13 7 13 6 12 6 12 7"></polygon>
            <polygon id="Combined-Shape" fill="#FFFFFF" points="8 7 8 8 9 8 9 9 10 9 10 8 11 8 11 7 10 7 10 6 9 6 9 7"></polygon>
        </g>
    </g>
</svg>