<svg xmlns="http://www.w3.org/2000/svg" xmlns:xlink="http://www.w3.org/1999/xlink" width="16" height="16" viewBox="0 0 16 16">
  <defs>
    <linearGradient id="text-x-c++-c" x1="50%" x2="50%" y1="0%" y2="98.501%">
      <stop offset="0%" stop-color="#7FCB10"/>
      <stop offset="100%" stop-color="#50A100"/>
    </linearGradient>
    <path id="text-x-c++-b" d="M4.0085302,15 C2.8992496,15 2,14.1029399 2,12.9941413 L2,3.00585866 C2,1.89805351 2.90195036,1 4.0085302,1 L11.9914698,1 C13.1007504,1 14,1.89706013 14,3.00585866 L14,12.9941413 C14,14.1019465 13.0980496,15 11.9914698,15 L4.0085302,15 Z"/>
    <filter id="text-x-c++-a" width="133.3%" height="128.6%" x="-16.7%" y="-7.1%" filterUnits="objectBoundingBox">
      <feOffset dy="1" in="SourceAlpha" result="shadowOffsetOuter1"/>
      <feGaussianBlur in="shadowOffsetOuter1" result="shadowBlurOuter1" stdDeviation=".5"/>
      <feColorMatrix in="shadowBlurOuter1" values="0 0 0 0 0.46370117   0 0 0 0 0.679376132   0 0 0 0 0  0 0 0 0.5 0"/>
    </filter>
  </defs>
  <g fill="none" fill-rule="evenodd">
    <use fill="#000" filter="url(#text-x-c++-a)" xlink:href="#text-x-c++-b"/>
    <use fill="url(#text-x-c++-c)" xlink:href="#text-x-c++-b"/>
    <polygon fill="#FFF" points="10 8 10 9 11 9 11 10 12 10 12 9 13 9 13 8 12 8 12 7 11 7 11 8"/>
    <polygon fill="#FFF" points="7 8 7 9 8 9 8 10 9 10 9 9 10 9 10 8 9 8 9 7 8 7 8 8"/>
    <path stroke="#FFF" d="M6.85317452,7.02726001 C6.49705358,6.69987975 6.021869,6.5 5.5,6.5 C4.3954305,6.5 3.5,7.3954305 3.5,8.5 C3.5,9.6045695 4.3954305,10.5 5.5,10.5 L5.5,10.5 C6.00075302,10.5 6.4585231,10.3159682 6.80936619,10.0118486"/>
    <path stroke="#FFF" d="M6.85317452,7.02726001 C6.49705358,6.69987975 6.021869,6.5 5.5,6.5 C4.3954305,6.5 3.5,7.3954305 3.5,8.5 C3.5,9.6045695 4.3954305,10.5 5.5,10.5 L5.5,10.5 C6.00075302,10.5 6.4585231,10.3159682 6.80936619,10.0118486"/>
  </g>
</svg>
