<svg xmlns="http://www.w3.org/2000/svg" xmlns:xlink="http://www.w3.org/1999/xlink" width="16" height="16" viewBox="0 0 16 16">
  <defs>
    <linearGradient id="video-x-mov-c" x1="50%" x2="50%" y1="0%" y2="100%">
      <stop offset="0%" stop-color="#327DFF"/>
      <stop offset="100%" stop-color="#1066FF"/>
    </linearGradient>
    <path id="video-x-mov-b" d="M4.0085302,15 C2.8992496,15 2,14.1029399 2,12.9941413 L2,3.00585866 C2,1.89805351 2.90195036,1 4.0085302,1 L11.9914698,1 C13.1007504,1 14,1.89706013 14,3.00585866 L14,12.9941413 C14,14.1019465 13.0980496,15 11.9914698,15 L4.0085302,15 Z"/>
    <filter id="video-x-mov-a" width="133.3%" height="128.6%" x="-16.7%" y="-7.1%" filterUnits="objectBoundingBox">
      <feOffset dy="1" in="SourceAlpha" result="shadowOffsetOuter1"/>
      <feGaussianBlur in="shadowOffsetOuter1" result="shadowBlurOuter1" stdDeviation=".5"/>
      <feColorMatrix in="shadowBlurOuter1" values="0 0 0 0 0.0391387195   0 0 0 0 0.388542822   0 0 0 0 1  0 0 0 0.5 0"/>
    </filter>
  </defs>
  <g fill="none" fill-rule="evenodd">
    <use fill="#000" filter="url(#video-x-mov-a)" xlink:href="#video-x-mov-b"/>
    <use fill="url(#video-x-mov-c)" xlink:href="#video-x-mov-b"/>
    <polygon fill="#FFF" points="5 13 4.6 13 3.8 11 3.8 14 3 14 3 9 3.4 9 3.8 9 5 12 6.2 9 6.6 9 7 9 7 14 6.2 14 6.2 11 5.4 13"/>
    <path fill="#FFF" d="M12,9 L11,9 L12,14 L13,14 L14,9 L13,9 L12.5,12 C12.4957185,11.9657477 12,9 12,9 Z"/>
    <path fill="#FFF" fill-rule="nonzero" d="M9,10 C9.55305305,10 10,10.5033972 10,11.1286611 L10,11.8713389 C10,12.4971131 9.55526385,13 9,13 C8.44694695,13 8,12.4966028 8,11.8713389 L8,11.1286611 C8,10.5028869 8.44473615,10 9,10 Z M7,11.9125987 C7,13.0673581 7.89430127,14 9,14 C10.1090605,14 11,13.0671919 11,11.9125987 L11,11.0874013 C11,9.9326419 10.1056987,9 9,9 C7.8909395,9 7,9.9328081 7,11.0874013 L7,11.9125987 Z"/>
  </g>
</svg>
