<?xml version="1.0" encoding="UTF-8"?>
<svg width="16px" height="16px" viewBox="0 0 16 16" version="1.1" xmlns="http://www.w3.org/2000/svg" xmlns:xlink="http://www.w3.org/1999/xlink">
    <!-- Generator: Sketch 41.2 (35397) - http://www.bohemiancoding.com/sketch -->
    <title>video-x-msvideo</title>
    <desc>Created with Sketch.</desc>
    <defs></defs>
    <g id="Page-1" stroke="none" stroke-width="1" fill="none" fill-rule="evenodd">
        <g id="video-x-msvideo">
            <polygon id="path14361" fill="#1C99FB" points="2 15 2 1 14 1 14 15"></polygon>
            <path d="M9.30000019,12.5 L8.10000019,9 L7,9 L8.90000019,14 L9.70000019,14 L11.5,9 L10.5000002,9 L9.30000019,12.5 Z M13,9 L13,14 L12,14 L12,9 L13,9 Z" id="Combined-Shape" fill="#FFFFFF"></path>
            <path d="M4.375,13 L4,14 L3,14 L5,9 L6,9 L8,14 L7,14 L6.625,13 L4.375,13 Z M4.75,12 L5.5,10 L6.25,12 L4.75,12 Z" id="Combined-Shape" fill="#FFFFFF"></path>
        </g>
    </g>
</svg>