<svg xmlns="http://www.w3.org/2000/svg" xmlns:xlink="http://www.w3.org/1999/xlink" width="16" height="16" viewBox="0 0 16 16">
  <defs>
    <linearGradient id="x-dia-diagram-c" x1="50%" x2="50%" y1="0%" y2="98.501%">
      <stop offset="0%" stop-color="#7FCB10"/>
      <stop offset="100%" stop-color="#50A100"/>
    </linearGradient>
    <path id="x-dia-diagram-b" d="M4.0085302,15 C2.8992496,15 2,14.1029399 2,12.9941413 L2,3.00585866 C2,1.89805351 2.90195036,1 4.0085302,1 L11.9914698,1 C13.1007504,1 14,1.89706013 14,3.00585866 L14,12.9941413 C14,14.1019465 13.0980496,15 11.9914698,15 L4.0085302,15 Z"/>
    <filter id="x-dia-diagram-a" width="133.3%" height="128.6%" x="-16.7%" y="-7.1%" filterUnits="objectBoundingBox">
      <feOffset dy="1" in="SourceAlpha" result="shadowOffsetOuter1"/>
      <feGaussianBlur in="shadowOffsetOuter1" result="shadowBlurOuter1" stdDeviation=".5"/>
      <feColorMatrix in="shadowBlurOuter1" values="0 0 0 0 0.46370117   0 0 0 0 0.679376132   0 0 0 0 0  0 0 0 0.5 0"/>
    </filter>
  </defs>
  <g fill="none" fill-rule="evenodd">
    <use fill="#000" filter="url(#x-dia-diagram-a)" xlink:href="#x-dia-diagram-b"/>
    <use fill="url(#x-dia-diagram-c)" xlink:href="#x-dia-diagram-b"/>
    <g stroke="#FFF" transform="translate(3 3.5)">
      <rect width="3" height="2" x="3.5"/>
      <polyline points="3.5 4 1.5 4 1.5 7"/>
      <polyline points="8.5 4 6.5 4 6.5 7" transform="matrix(-1 0 0 1 15 0)"/>
      <rect width="3" height="2" x="6.5" y="7"/>
      <rect width="3" height="2" x=".5" y="7"/>
      <polygon points="5 2.5 7 4 5 5.5 3 4"/>
    </g>
  </g>
</svg>
