<svg xmlns="http://www.w3.org/2000/svg" xmlns:xlink="http://www.w3.org/1999/xlink" width="64" height="64" viewBox="0 0 64 64">
  <defs>
    <rect id="application-vnd.kde.kphotoalbum-import-b" width="42" height="52" x="0" y="0"/>
    <filter id="application-vnd.kde.kphotoalbum-import-a" width="109.5%" height="107.7%" x="-4.8%" y="-1.9%" filterUnits="objectBoundingBox">
      <feOffset dy="1" in="SourceAlpha" result="shadowOffsetOuter1"/>
      <feGaussianBlur in="shadowOffsetOuter1" result="shadowBlurOuter1" stdDeviation=".5"/>
      <feColorMatrix in="shadowBlurOuter1" values="0 0 0 0 0   0 0 0 0 0   0 0 0 0 0  0 0 0 0.2 0"/>
    </filter>
  </defs>
  <g fill="none" fill-rule="evenodd">
    <g transform="translate(11 6)">
      <use fill="#000" filter="url(#application-vnd.kde.kphotoalbum-import-a)" xlink:href="#application-vnd.kde.kphotoalbum-import-b"/>
      <use fill="#F9FBFB" xlink:href="#application-vnd.kde.kphotoalbum-import-b"/>
      <path fill="#000" fill-opacity=".2" fill-rule="nonzero" d="M43,-1 L-1,-1 L-1,53 L43,53 L43,-1 Z M42,0 L42,52 L0,52 L0,0 L42,0 Z"/>
    </g>
    <path fill="#E28D54" d="M22.1785714,23 C21.5256429,23 21,23.4831667 21,24.0833333 L21,36 L43,36 L43,24.0833333 C43,23.4831667 42.4743571,23 41.8214286,23 L22.1785714,23 Z"/>
    <path fill="#FFFEE4" d="M37.5,27 C38.8806875,27 40,28.1193125 40,29.5 C40,30.8806875 38.8806875,32 37.5,32 C36.1193125,32 35,30.8806875 35,29.5 C35,28.1193125 36.1193125,27 37.5,27 Z"/>
    <path fill="#D66565" d="M21,36 L21,39 C21,39 21,40.0039881 22.1785714,40 L41.9,39.9333216 C42.5097143,39.9313216 43,39.5173229 43,39 L43,36 L21,36 Z"/>
    <path fill="#3F3F3F" fill-rule="nonzero" d="M21,35.9998956 L21,35.3049501 C21,35.3049501 22.5865766,34.1467366 23.0325656,34.045709 C23.4786174,33.9446638 24.0053968,34.026857 24.5467752,34.1398738 C25.0881457,34.252455 25.8963711,34.5647058 26.1485952,34.574227 C26.4008507,34.583955 26.8573216,34.549903 27.3877153,34.5144614 C27.9180933,34.4797134 28.7962421,34.447747 29.0701527,34.4512214 C29.3440712,34.4512214 30.0278976,34.4929182 30.7567549,34.5421118 C31.4856671,34.5914534 32.4868085,34.6738822 32.7139672,34.6969457 C32.9411262,34.7198777 33.2081304,34.7622709 33.5111843,34.8084933 C33.8141911,34.8543597 34.3388098,34.9236373 34.524324,34.9426873 C34.7098936,34.9613633 35.1401284,35.0268625 35.6392966,35.0776457 C36.1384805,35.1283769 36.9373476,35.1457501 37.1680424,35.1269865 C37.398745,35.1081345 37.8823081,34.9193693 38.4212272,34.7452853 C38.960107,34.571271 39.5543502,34.4119198 40.0063111,34.4513234 C40.4573288,34.4912834 43,35.3050545 43,35.3050545 L43,36 L23.6706692,36 L21,35.9998956 Z"/>
  </g>
</svg>
