<svg xmlns="http://www.w3.org/2000/svg" xmlns:xlink="http://www.w3.org/1999/xlink" width="64" height="64" viewBox="0 0 64 64">
  <defs>
    <rect id="application-vnd.sun.xml.impress-b" width="42" height="52" x="0" y="0"/>
    <filter id="application-vnd.sun.xml.impress-a" width="109.5%" height="107.7%" x="-4.8%" y="-1.9%" filterUnits="objectBoundingBox">
      <feOffset dy="1" in="SourceAlpha" result="shadowOffsetOuter1"/>
      <feGaussianBlur in="shadowOffsetOuter1" result="shadowBlurOuter1" stdDeviation=".5"/>
      <feColorMatrix in="shadowBlurOuter1" values="0 0 0 0 0   0 0 0 0 0   0 0 0 0 0  0 0 0 0.2 0"/>
    </filter>
  </defs>
  <g fill="none" fill-rule="evenodd">
    <g transform="translate(11 6)">
      <use fill="#000" filter="url(#application-vnd.sun.xml.impress-a)" xlink:href="#application-vnd.sun.xml.impress-b"/>
      <use fill="#F9FBFB" xlink:href="#application-vnd.sun.xml.impress-b"/>
      <path fill="#000" fill-opacity=".2" fill-rule="nonzero" d="M43,-1 L-1,-1 L-1,53 L43,53 L43,-1 Z M42,0 L42,52 L0,52 L0,0 L42,0 Z"/>
    </g>
    <path fill="#DD953E" d="M29,21 C28.5,21 28,21.5 28,22 L20,22 L20,44 L31,44 L31,45 L33,45 L33,44 L44,44 L44,22 L36,22 C36,21.5 35.6666667,21 35,21 L29,21 Z M43,24 L43,42 L21,42 L21,24 L43,24 Z M23,27 L41,27 L41,26 L23,26 L23,27 Z M23,40 L30,40 L30,36 L29,36 L29,39 L27,39 L27,34 L26,34 L26,39 L24,39 L24,29 L23,29 L23,40 Z M31,40 L41,40 L41,30 L31,30 L31,40 Z M40,31 L40,36.5 L38.5,35 L35.5,37 L34.5,36 L32,38 L32,31 L40,31 Z M33,33.5 C33,34.331 33.669,35 34.5,35 C35.331,35 36,34.331 36,33.5 C36,32.669 35.331,32 34.5,32 C33.669,32 33,32.669 33,33.5 Z"/>
  </g>
</svg>
