<svg xmlns="http://www.w3.org/2000/svg" xmlns:xlink="http://www.w3.org/1999/xlink" width="64" height="64" viewBox="0 0 64 64">
  <defs>
    <rect id="application-vnd.ms-htmlhelp-b" width="42" height="52" x="0" y="0"/>
    <filter id="application-vnd.ms-htmlhelp-a" width="109.5%" height="107.7%" x="-4.8%" y="-1.9%" filterUnits="objectBoundingBox">
      <feOffset dy="1" in="SourceAlpha" result="shadowOffsetOuter1"/>
      <feGaussianBlur in="shadowOffsetOuter1" result="shadowBlurOuter1" stdDeviation=".5"/>
      <feColorMatrix in="shadowBlurOuter1" values="0 0 0 0 0   0 0 0 0 0   0 0 0 0 0  0 0 0 0.2 0"/>
    </filter>
  </defs>
  <g fill="none" fill-rule="evenodd">
    <g transform="translate(11 6)">
      <use fill="#000" filter="url(#application-vnd.ms-htmlhelp-a)" xlink:href="#application-vnd.ms-htmlhelp-b"/>
      <use fill="#F9FBFB" xlink:href="#application-vnd.ms-htmlhelp-b"/>
      <path fill="#000" fill-opacity=".2" fill-rule="nonzero" d="M43,-1 L-1,-1 L-1,53 L43,53 L43,-1 Z M42,0 L42,52 L0,52 L0,0 L42,0 Z"/>
    </g>
    <path fill="#4A62AD" d="M41,22 C42.1045695,22 43,22.8954305 43,24 L43,24 L43,40 C43,41.1045695 42.1045695,42 41,42 L41,42 L25,42 C23.8954305,42 23,41.1045695 23,40 L23,40 L23,24 C23,22.8954305 23.8954305,22 25,22 L25,22 Z M34,37 L32,37 L32,39 L34,39 L34,37 Z M33,25.2295082 C30.827547,25.2295082 28.9031441,26.793623 28.9031441,29 L30.9001343,29 C30.9001343,27.9018033 31.9006348,27.2264984 33,27.2264984 C34.0993652,27.2264984 35.0030098,28.1252918 35.0030098,29.2234886 C35.0030098,29.7725869 34.7833922,30.2707131 34.4139987,30.630123 L33.1754614,31.888832 C32.4566414,32.6176352 31.9693905,33.6160066 31.9693902,34.7142033 L31.9693902,35 L34,35 L34,34.8688525 L33.9798297,34.8688525 C34.0467061,33.6244055 34.5129221,33.0564351 35.172453,32.3877434 L36.070761,31.4692623 C36.6398266,30.9001967 37,30.1020459 37,29.2234886 C37,27.0171119 35.172453,25.2295082 33,25.2295082 Z"/>
  </g>
</svg>
