<svg xmlns="http://www.w3.org/2000/svg" xmlns:xlink="http://www.w3.org/1999/xlink" width="64" height="64" viewBox="0 0 64 64">
  <defs>
    <rect id="application-x-glabels-b" width="42" height="52" x="0" y="0"/>
    <filter id="application-x-glabels-a" width="109.5%" height="107.7%" x="-4.8%" y="-1.9%" filterUnits="objectBoundingBox">
      <feOffset dy="1" in="SourceAlpha" result="shadowOffsetOuter1"/>
      <feGaussianBlur in="shadowOffsetOuter1" result="shadowBlurOuter1" stdDeviation=".5"/>
      <feColorMatrix in="shadowBlurOuter1" values="0 0 0 0 0   0 0 0 0 0   0 0 0 0 0  0 0 0 0.2 0"/>
    </filter>
  </defs>
  <g fill="none" fill-rule="evenodd">
    <g transform="translate(11 6)">
      <use fill="#000" filter="url(#application-x-glabels-a)" xlink:href="#application-x-glabels-b"/>
      <use fill="#F9FBFB" xlink:href="#application-x-glabels-b"/>
      <path fill="#000" fill-opacity=".2" fill-rule="nonzero" d="M43,-1 L-1,-1 L-1,53 L43,53 L43,-1 Z M42,0 L42,52 L0,52 L0,0 L42,0 Z"/>
    </g>
    <path fill="#2A4052" fill-opacity=".6" d="M30.5686323,22.9776779 L43.2407849,35.567362 C43.5258704,35.8505921 43.5259715,36.3129939 43.240713,36.5982524 L35.6982527,44.1407127 C35.4111329,44.4278325 34.9526654,44.4279564 34.6673623,44.1407845 L22.0776783,31.4686319 C21.6712972,31.0595888 21.3140452,30.1908549 21.3140452,29.6101391 L21.3140452,22.9512839 C21.3140452,22.5438433 21.6437308,22.2140448 22.0512843,22.2140448 L28.7101394,22.2140448 C29.291816,22.2140448 30.158095,22.5698124 30.5686323,22.9776779 Z M28.7101394,21.0140448 C29.6081237,21.0140448 30.7786095,21.4947455 31.4143858,22.1263842 L31.4143858,22.1263842 L44.0865384,34.7160683 C44.8434064,35.4680106 44.8436741,36.6923476 44.0892412,37.4467805 L44.0892412,37.4467805 L36.5467809,44.9892408 C35.7906718,45.7453499 34.5702699,45.7456797 33.8160687,44.9865381 L33.8160687,44.9865381 L21.2263846,32.3143854 C20.5963737,31.6802476 20.1140452,30.5073638 20.1140452,29.6101391 L20.1140452,29.6101391 L20.1140452,22.9512839 C20.1140452,21.8811935 20.9808972,21.0140448 22.0512843,21.0140448 L22.0512843,21.0140448 Z M25.5,25 C24.6715729,25 24,25.6715729 24,26.5 C24,27.3284271 24.6715729,28 25.5,28 C26.3284271,28 27,27.3284271 27,26.5 C27,25.6715729 26.3284271,25 25.5,25 Z"/>
  </g>
</svg>
