<svg xmlns="http://www.w3.org/2000/svg" xmlns:xlink="http://www.w3.org/1999/xlink" width="64" height="64" viewBox="0 0 64 64">
  <defs>
    <rect id="application-x-sln-b" width="42" height="52" x="0" y="0"/>
    <filter id="application-x-sln-a" width="109.5%" height="107.7%" x="-4.8%" y="-1.9%" filterUnits="objectBoundingBox">
      <feOffset dy="1" in="SourceAlpha" result="shadowOffsetOuter1"/>
      <feGaussianBlur in="shadowOffsetOuter1" result="shadowBlurOuter1" stdDeviation=".5"/>
      <feColorMatrix in="shadowBlurOuter1" values="0 0 0 0 0   0 0 0 0 0   0 0 0 0 0  0 0 0 0.2 0"/>
    </filter>
  </defs>
  <g fill="none" fill-rule="evenodd">
    <g transform="translate(11 6)">
      <use fill="#000" filter="url(#application-x-sln-a)" xlink:href="#application-x-sln-b"/>
      <use fill="#F9FBFB" xlink:href="#application-x-sln-b"/>
      <path fill="#000" fill-opacity=".2" fill-rule="nonzero" d="M43,-1 L-1,-1 L-1,53 L43,53 L43,-1 Z M42,0 L42,52 L0,52 L0,0 L42,0 Z"/>
    </g>
    <path fill="#2A4052" fill-opacity=".6" d="M35.867975,29.7702178 C35.48907,26.6475627 31.5708797,22.9994663 27.1318902,23 C23.3768034,23.0004268 18.6256526,26.5745689 18.6669338,32.0950968 C18.7068943,37.4383997 20.5046285,40.3217058 21.8606417,43.593452 L21.8606601,43.593452 L25.8602114,41.9270307 C24.9386081,40.0453467 23.7485511,38.1662153 23.3225038,37.2348258 C22.1297483,34.6269262 21.6943506,33.4606233 21.7939343,31.4728996 C21.8902233,29.5511583 22.5492819,28.3796426 23.7215489,27.246706 C24.8938387,26.1138693 26.4987203,25.5357618 28.4351794,25.8028704 C31.5442195,26.2321867 33.0540149,28.1175316 33.6451855,29.6612039 C30.1697505,30.0521491 28.9095143,32.5320913 28.6297546,34.8697613 C27.3054464,34.4034359 26.5630272,33.3214402 26.4498303,31.7522231 C26.3410502,30.2434804 27.8058445,28.7269733 30.1768754,29.4964398 C30.5584952,29.6202174 30.571683,28.9345858 30.1403295,28.5881078 C29.0298497,27.6961362 24.6262323,28.0379426 24.6411388,31.5416392 C24.6527648,34.2801809 26.515051,36.2614398 28.6080596,36.8234374 C28.9868136,39.9458429 32.9050774,43.5941797 37.3441694,43.593452 C41.0992417,43.5932468 45.8504075,40.0191037 45.8091263,34.4985773 C45.7691578,29.1551587 43.9714395,26.2719673 42.6154105,23 L42.6153851,23 L38.6158492,24.6666345 C39.5374296,26.5485321 40.727502,28.4272437 41.1535409,29.3589457 C42.3462964,31.9668537 42.781709,33.1330508 42.6821257,35.1208793 C42.5858443,37.0423017 41.9267777,38.2138174 40.7544879,39.3468598 C39.5822139,40.4796974 37.9773323,41.0578045 36.0408802,40.7905821 C32.9317816,40.3615829 31.4219879,38.4761487 30.830835,36.932428 C34.3062807,36.5413808 35.5665371,34.0614921 35.846304,31.7239911 C37.170605,32.1902596 37.9130159,33.2721276 38.0262064,34.8413352 C38.1349875,36.3499791 36.6702082,37.8666924 34.2991842,37.0971265 C33.9175495,36.9734552 33.9043846,37.6589804 34.3357301,38.0054585 C35.4462099,38.8975285 39.8498353,38.5555164 39.8349287,35.0519266 C39.8233031,32.3134611 37.9609971,30.332201 35.867975,29.7702178 L35.867975,29.7702178 Z M30.5369156,35.1146864 C32.9137613,34.9393307 33.8047421,32.7935078 33.9391271,31.4790946 C31.5622663,31.6544677 30.6712903,33.8003975 30.5369156,35.1146864 L30.5369156,35.1146864 Z"/>
  </g>
</svg>
