<svg xmlns="http://www.w3.org/2000/svg" xmlns:xlink="http://www.w3.org/1999/xlink" width="64" height="64" viewBox="0 0 64 64">
  <defs>
    <rect id="application-x-font-ttf-b" width="42" height="52" x="0" y="0"/>
    <filter id="application-x-font-ttf-a" width="109.5%" height="107.7%" x="-4.8%" y="-1.9%" filterUnits="objectBoundingBox">
      <feOffset dy="1" in="SourceAlpha" result="shadowOffsetOuter1"/>
      <feGaussianBlur in="shadowOffsetOuter1" result="shadowBlurOuter1" stdDeviation=".5"/>
      <feColorMatrix in="shadowBlurOuter1" values="0 0 0 0 0   0 0 0 0 0   0 0 0 0 0  0 0 0 0.2 0"/>
    </filter>
  </defs>
  <g fill="none" fill-rule="evenodd">
    <g transform="translate(11 6)">
      <use fill="#000" filter="url(#application-x-font-ttf-a)" xlink:href="#application-x-font-ttf-b"/>
      <use fill="#F9FBFB" xlink:href="#application-x-font-ttf-b"/>
      <path fill="#000" fill-opacity=".2" fill-rule="nonzero" d="M43,-1 L-1,-1 L-1,53 L43,53 L43,-1 Z M42,0 L42,52 L0,52 L0,0 L42,0 Z"/>
    </g>
    <path fill="#2A4052" fill-opacity=".6" d="M38,54 L38,53 C37.3333333,53 38.3946667,53 37.6666667,53 C36.8266667,53 36,52.508 36,51.5 L36,46 L38,46 L38,45.0026667 L36,45.0026667 L36,42.75 L35,42.75 L35,45.0026667 L34,45 L34,46 L35,46 L35,51.5 C35,53.5906667 36.5,54 37.6666667,54 C39.048,54 37.3333333,54 38,54 Z M43,54 L43,53 C42.3333333,53 43.3946667,53 42.6666667,53 C41.8266667,53 41,52.508 41,51.5 L41,46 L43,46 L43,45.0026667 L41,45.0026667 L41,42.75 L40,42.75 L40,45.0026667 L39,45.0026667 L39,46 L40,46 L40,51.5 C40,53.5906667 41.5,54 42.6666667,54 C44.048,54 42.3333333,54 43,54 Z M49.0133336,41 L47.6800003,41 C46,41 45.0133336,42.5 45.0133336,44 L45.0133336,45 L44,45 L44,46 L45.0133336,46 L45.0133336,54 L46,54 L46,46 L48,46 L48,45 L46,45 L46,44 C46,42.5 46.7653336,42 47.6800003,42 L49.0133336,42 L49.0133336,41 Z"/>
  </g>
</svg>
