<svg xmlns="http://www.w3.org/2000/svg" xmlns:xlink="http://www.w3.org/1999/xlink" width="64" height="64" viewBox="0 0 64 64">
  <defs>
    <rect id="application-x-yarock-b" width="42" height="52" x="0" y="0"/>
    <filter id="application-x-yarock-a" width="109.5%" height="107.7%" x="-4.8%" y="-1.9%" filterUnits="objectBoundingBox">
      <feOffset dy="1" in="SourceAlpha" result="shadowOffsetOuter1"/>
      <feGaussianBlur in="shadowOffsetOuter1" result="shadowBlurOuter1" stdDeviation=".5"/>
      <feColorMatrix in="shadowBlurOuter1" values="0 0 0 0 0   0 0 0 0 0   0 0 0 0 0  0 0 0 0.2 0"/>
    </filter>
  </defs>
  <g fill="none" fill-rule="evenodd">
    <g transform="translate(11 6)">
      <use fill="#000" filter="url(#application-x-yarock-a)" xlink:href="#application-x-yarock-b"/>
      <use fill="#F9FBFB" xlink:href="#application-x-yarock-b"/>
      <path fill="#000" fill-opacity=".2" fill-rule="nonzero" d="M43,-1 L-1,-1 L-1,53 L43,53 L43,-1 Z M42,0 L42,52 L0,52 L0,0 L42,0 Z"/>
    </g>
    <path fill="#DC7692" d="M32,19.9999995 C38.627417,19.9999995 44,25.3725825 44,31.9999995 C44,38.6274165 38.627417,43.9999995 32,43.9999995 C25.372583,43.9999995 20,38.6274165 20,31.9999995 C20,25.3725825 25.372583,19.9999995 32,19.9999995 Z M29.3189274,26.0003995 C28.9723624,25.9914463 28.6370139,26.1333061 28.3887784,26.3939021 C28.1405429,26.6544981 28.0003861,27.0118207 28,27.385073 L28.0007826,36.612012 C28.0003273,37.1076045 28.2456158,37.5657805 28.6441842,37.813826 C29.0427526,38.0618714 29.5339974,38.0620704 29.9327391,37.8143478 L33.6440387,35.5062596 L37.3553383,33.1999755 C37.7540827,32.9524667 37.9998385,32.4947248 38,31.9992364 C38.0001614,31.503748 37.7547039,31.0458207 37.356121,30.7980108 L33.6440083,28.4926305 L29.9327086,26.1854441 C29.8207809,26.1161161 29.6998052,26.0653003 29.573839,26.034701 C29.4901426,26.0141517 29.4047474,26.0026608 29.3189274,26.0003995 Z"/>
  </g>
</svg>
