<svg xmlns="http://www.w3.org/2000/svg" xmlns:xlink="http://www.w3.org/1999/xlink" width="64" height="64" viewBox="0 0 64 64">
  <defs>
    <rect id="application-x-smb-workgroup-b" width="42" height="52" x="0" y="0"/>
    <filter id="application-x-smb-workgroup-a" width="109.5%" height="107.7%" x="-4.8%" y="-1.9%" filterUnits="objectBoundingBox">
      <feOffset dy="1" in="SourceAlpha" result="shadowOffsetOuter1"/>
      <feGaussianBlur in="shadowOffsetOuter1" result="shadowBlurOuter1" stdDeviation=".5"/>
      <feColorMatrix in="shadowBlurOuter1" values="0 0 0 0 0   0 0 0 0 0   0 0 0 0 0  0 0 0 0.2 0"/>
    </filter>
  </defs>
  <g fill="none" fill-rule="evenodd">
    <g transform="translate(11 6)">
      <use fill="#000" filter="url(#application-x-smb-workgroup-a)" xlink:href="#application-x-smb-workgroup-b"/>
      <use fill="#F9FBFB" xlink:href="#application-x-smb-workgroup-b"/>
      <path fill="#000" fill-opacity=".2" fill-rule="nonzero" d="M43,-1 L-1,-1 L-1,53 L43,53 L43,-1 Z M42,0 L42,52 L0,52 L0,0 L42,0 Z"/>
    </g>
    <path fill="#6198C4" d="M27,24 L22,24 L22,34 L20,34 L20,43 L30,43 L30,39 L34,39 L34,43 L44,43 L44,34 L42,34 L42,24 L37,24 L37,20 L27,20 L27,24 Z M36,21 L36,28 L28,28 L28,21 L36,21 Z M27,25 L27,29 L37,29 L37,25 L41,25 L41,34 L34,34 L34,38 L30,38 L30,34 L23,34 L23,25 L27,25 Z M21,35 L29,35 L29,42 L21,42 L21,35 L21,35 Z M43,35 L43,42 L35,42 L35,35 L43,35 Z"/>
  </g>
</svg>
