<svg xmlns="http://www.w3.org/2000/svg" xmlns:xlink="http://www.w3.org/1999/xlink" width="64" height="64" viewBox="0 0 64 64">
  <defs>
    <rect id="application-sweethome3d-b" width="42" height="52" x="0" y="0"/>
    <filter id="application-sweethome3d-a" width="109.5%" height="107.7%" x="-4.8%" y="-1.9%" filterUnits="objectBoundingBox">
      <feOffset dy="1" in="SourceAlpha" result="shadowOffsetOuter1"/>
      <feGaussianBlur in="shadowOffsetOuter1" result="shadowBlurOuter1" stdDeviation=".5"/>
      <feColorMatrix in="shadowBlurOuter1" values="0 0 0 0 0   0 0 0 0 0   0 0 0 0 0  0 0 0 0.2 0"/>
    </filter>
  </defs>
  <g fill="none" fill-rule="evenodd">
    <g transform="translate(11 6)">
      <use fill="#000" filter="url(#application-sweethome3d-a)" xlink:href="#application-sweethome3d-b"/>
      <use fill="#F9FBFB" xlink:href="#application-sweethome3d-b"/>
      <path fill="#000" fill-opacity=".2" fill-rule="nonzero" d="M43,-1 L-1,-1 L-1,53 L43,53 L43,-1 Z M42,0 L42,52 L0,52 L0,0 L42,0 Z"/>
    </g>
    <g transform="translate(20.49 19)">
      <path fill="#6198C4" d="M11.5752268,0.000758477254 C11.0631947,-0.011180846 10.5577549,0.11803401 10.1142888,0.374244873 L1.90395274,5.11388706 C1.04077011,5.61230814 0.509121048,6.53330729 0.509121048,7.52998086 L0.509121048,17.0092646 C0.509880396,17.6631845 0.740342731,18.2960599 1.16026281,18.7973726 L11.509121,10.4286324 L21.8563263,18.7973726 C22.2768422,18.2962894 22.5078979,17.6633907 22.509121,17.0092646 L22.509121,7.52998086 C22.5097627,6.53271686 21.9779826,5.61095058 21.1142883,5.11223452 L12.9039528,0.374244873 C12.4993155,0.140447003 12.0424278,0.0120222344 11.5752268,0.000758477254 Z"/>
      <path fill="#000" fill-rule="nonzero" d="M11.509121,0.00240463146 C11.0197556,0.00136092534 10.538721,0.129025022 10.1142888,0.372592292 L1.90395274,5.11388706 C1.04077011,5.61230814 0.509121048,6.53330729 0.509121048,7.52998086 L0.509121048,17.0092646 C0.509880396,17.6631845 0.740342731,18.2960599 1.16026281,18.7973726 L11.509121,10.4286324 L11.509121,0.00240463146 Z" opacity=".3"/>
      <path fill="#E28D54" d="M11.5093038,10.4292247 L1.15963099,18.798102 C1.36926214,19.048997 1.62136572,19.2610964 1.90443513,19.4247195 L10.1139901,24.1644872 C10.9773861,24.6630364 12.0412218,24.6630364 12.9046178,24.1644872 L21.1141732,19.4247195 C21.3964871,19.260509 21.6477743,19.0480111 21.8565903,18.7969038 L11.5093038,10.4292247 Z"/>
      <polygon fill="#D66565" points="11.509 4.645 17.509 8 17.509 15.299 11.509 19.077 5.509 15.299 5.509 8"/>
      <polygon fill="#000" fill-rule="nonzero" points="17.509 8 11.509 11.533 11.509 19.077 17.509 15.299" opacity=".3"/>
      <polygon fill="#000" fill-rule="nonzero" points="5.509 8 5.509 15.299 11.509 19.077 11.509 11.533" opacity=".1"/>
    </g>
  </g>
</svg>
