<svg xmlns="http://www.w3.org/2000/svg" xmlns:xlink="http://www.w3.org/1999/xlink" width="64" height="64" viewBox="0 0 64 64">
  <defs>
    <rect id="application-vnd.sun.xml.math-b" width="42" height="52" x="0" y="0"/>
    <filter id="application-vnd.sun.xml.math-a" width="109.5%" height="107.7%" x="-4.8%" y="-1.9%" filterUnits="objectBoundingBox">
      <feOffset dy="1" in="SourceAlpha" result="shadowOffsetOuter1"/>
      <feGaussianBlur in="shadowOffsetOuter1" result="shadowBlurOuter1" stdDeviation=".5"/>
      <feColorMatrix in="shadowBlurOuter1" values="0 0 0 0 0   0 0 0 0 0   0 0 0 0 0  0 0 0 0.2 0"/>
    </filter>
  </defs>
  <g fill="none" fill-rule="evenodd">
    <g transform="translate(11 6)">
      <use fill="#000" filter="url(#application-vnd.sun.xml.math-a)" xlink:href="#application-vnd.sun.xml.math-b"/>
      <use fill="#F9FBFB" xlink:href="#application-vnd.sun.xml.math-b"/>
      <path fill="#000" fill-opacity=".2" fill-rule="nonzero" d="M43,-1 L-1,-1 L-1,53 L43,53 L43,-1 Z M42,0 L42,52 L0,52 L0,0 L42,0 Z"/>
    </g>
    <path fill="#6198C4" d="M23,22.5 L23,24.5 C23,24.777 23.223,25 23.5,25 C23.777,25 24,24.777 24,24.5 L24,22.5 C24,22.223 23.777,22 23.5,22 C23.223,22 23,22.223 23,22.5 Z M23,40.5 L23,42.5 C23,42.777 23.223,43 23.5,43 C23.777,43 24,42.777 24,42.5 L24,40.5 C24,40.223 23.777,40 23.5,40 C23.223,40 23,40.223 23,40.5 Z M23,28.5 L23,30.5 C23,30.777 23.223,31 23.5,31 C23.777,31 24,30.777 24,30.5 L24,28.5 C24,28.223 23.777,28 23.5,28 C23.223,28 23,28.223 23,28.5 Z M25,22.5 L25,24.5 C25,24.777 25.223,25 25.5,25 C25.777,25 26,24.777 26,24.5 L26,22.5 C26,22.223 25.777,22 25.5,22 C25.223,22 25,22.223 25,22.5 Z M25,40.5 L25,42.5 C25,42.777 25.223,43 25.5,43 C25.777,43 26,42.777 26,42.5 L26,40.5 C26,40.223 25.777,40 25.5,40 C25.223,40 25,40.223 25,40.5 Z M25,28.5 L25,30.5 C25,30.777 25.223,31 25.5,31 C25.777,31 26,30.777 26,30.5 L26,28.5 C26,28.223 25.777,28 25.5,28 C25.223,28 25,28.223 25,28.5 Z M27,22.5 L27,24.5 C27,24.777 27.223,25 27.5,25 C27.777,25 28,24.777 28,24.5 L28,22.5 C28,22.223 27.777,22 27.5,22 C27.223,22 27,22.223 27,22.5 Z M27,40.5 L27,42.5 C27,42.777 27.223,43 27.5,43 C27.777,43 28,42.777 28,42.5 L28,40.5 C28,40.223 27.777,40 27.5,40 C27.223,40 27,40.223 27,40.5 Z M20,24 L22,24 L22,23 L20,23 L20,24 Z M20,42 L22,42 L22,41 L20,41 L20,42 Z M29,24 L44,24 L44,23 L29,23 L29,24 Z M29,42 L44,42 L44,41 L29,41 L29,42 Z M20,30 L22,30 L22,29 L20,29 L20,30 Z M27,30 L44,30 L44,29 L27,29 L27,30 Z M20,36 L39,36 L39,35 L20,35 L20,36 Z M42,36 L44,36 L44,35 L42,35 L42,36 Z M40,34.5 L40,36.5 C40,36.777 40.223,37 40.5,37 C40.777,37 41,36.777 41,36.5 L41,34.5 C41,34.223 40.777,34 40.5,34 C40.223,34 40,34.223 40,34.5 Z"/>
  </g>
</svg>
