<svg xmlns="http://www.w3.org/2000/svg" xmlns:xlink="http://www.w3.org/1999/xlink" width="64" height="64" viewBox="0 0 64 64">
  <defs>
    <rect id="application-x-sketch-b" width="42" height="52" x="0" y="0"/>
    <filter id="application-x-sketch-a" width="109.5%" height="107.7%" x="-4.8%" y="-1.9%" filterUnits="objectBoundingBox">
      <feOffset dy="1" in="SourceAlpha" result="shadowOffsetOuter1"/>
      <feGaussianBlur in="shadowOffsetOuter1" result="shadowBlurOuter1" stdDeviation=".5"/>
      <feColorMatrix in="shadowBlurOuter1" values="0 0 0 0 0   0 0 0 0 0   0 0 0 0 0  0 0 0 0.2 0"/>
    </filter>
  </defs>
  <g fill="none" fill-rule="evenodd">
    <g transform="translate(11 6)">
      <use fill="#000" filter="url(#application-x-sketch-a)" xlink:href="#application-x-sketch-b"/>
      <use fill="#F9FBFB" xlink:href="#application-x-sketch-b"/>
      <path fill="#000" fill-opacity=".2" fill-rule="nonzero" d="M43,-1 L-1,-1 L-1,53 L43,53 L43,-1 Z M42,0 L42,52 L0,52 L0,0 L42,0 Z"/>
    </g>
    <path fill="#2A4052" fill-opacity=".6" d="M32,18.4973086 L32.0390044,18.5015094 C32.0450309,18.5019766 32.0510505,18.5025523 32.0570598,18.5032364 L39.815224,19.30928 L46.392871,26.6390513 L32,45.6448726 L17.607129,26.6390513 L24.184776,19.30928 L31.9428308,18.5032489 C31.9488765,18.5025593 31.9549325,18.5019794 31.9609956,18.5015094 L32,18.4973086 Z M38.199129,27.0013086 L25.801129,27.0033086 L32,42.7637771 L38.199129,27.0013086 Z M24.726129,27.0043086 L19.150129,27.0053086 L30.834129,42.4733086 L24.726129,27.0043086 Z M44.853129,26.9993086 L39.275129,27.0003086 L33.164129,42.4723086 L44.853129,26.9993086 Z M24.204129,20.7983086 L19.488129,26.0053086 L24.577129,26.0043086 L24.204129,20.7983086 Z M32,19.7753489 L26.381129,26.0043086 L37.615129,26.0003086 L32,19.7753489 Z M39.794129,20.7973086 L39.423129,26.0003086 L44.506129,25.9993086 L39.794129,20.7973086 Z M30.760129,19.6313086 L25.165129,20.2123086 L25.540129,25.4403086 L30.760129,19.6313086 Z M33.239129,19.6313086 L38.459129,25.4403086 L38.834129,20.2123086 L33.239129,19.6313086 Z"/>
  </g>
</svg>
