<svg xmlns="http://www.w3.org/2000/svg" xmlns:xlink="http://www.w3.org/1999/xlink" width="64" height="64" viewBox="0 0 64 64">
  <defs>
    <rect id="application-vnd.nokia.qt.qmakeprofile-b" width="42" height="52" x="0" y="0"/>
    <filter id="application-vnd.nokia.qt.qmakeprofile-a" width="109.5%" height="107.7%" x="-4.8%" y="-1.9%" filterUnits="objectBoundingBox">
      <feOffset dy="1" in="SourceAlpha" result="shadowOffsetOuter1"/>
      <feGaussianBlur in="shadowOffsetOuter1" result="shadowBlurOuter1" stdDeviation=".5"/>
      <feColorMatrix in="shadowBlurOuter1" values="0 0 0 0 0   0 0 0 0 0   0 0 0 0 0  0 0 0 0.2 0"/>
    </filter>
  </defs>
  <g fill="none" fill-rule="evenodd">
    <g transform="translate(11 6)">
      <use fill="#000" filter="url(#application-vnd.nokia.qt.qmakeprofile-a)" xlink:href="#application-vnd.nokia.qt.qmakeprofile-b"/>
      <use fill="#F9FBFB" xlink:href="#application-vnd.nokia.qt.qmakeprofile-b"/>
      <path fill="#000" fill-opacity=".2" fill-rule="nonzero" d="M43,-1 L-1,-1 L-1,53 L43,53 L43,-1 Z M42,0 L42,52 L0,52 L0,0 L42,0 Z"/>
    </g>
    <path fill="#8DB479" d="M33.5 38.8457031C32.6656704 39.0917981 31.8409432 39.2148438 31.0257937 39.2148438 28.9159947 39.2148438 27.5494409 38.1211047 26.9260913 35.9335938 26.5520815 35.9973962 26.2356164 36.0292969 25.9766865 36.0292969 23.7134477 36.0292969 21.984877 35.1748132 20.7909226 33.4658203 19.5969682 31.7568274 19 29.2754069 19 26.0214844 19 22.7675619 19.5945708 20.2838627 20.7837302 18.5703125 21.9728895 16.8567623 23.7038577 16 25.9766865 16 28.2495153 16 29.9828809 16.8544836 31.1768353 18.5634766 32.3707897 20.2724695 32.9677579 22.7584472 32.9677579 26.0214844 32.9677579 30.7610914 31.7210773 33.8417898 29.2276786 35.2636719 29.5825084 36.5944077 30.2585929 37.2597656 31.2559524 37.2597656 31.8121721 37.2597656 32.4211276 37.1914069 33.0828373 37.0546875L33.5 38.8457031zM39.0243797 15.999945L39.0243797 21 42 21 42 22.999945 39.0243797 22.999945 39.0243797 31.4901794C39.0243797 32.2193497 39.0243797 33.499945 40.3915672 33.499945 40.7470377 33.499945 41.1116174 33.4634871 41.4853172 33.39057L42 36 40 36C38.9244738 36 36 35.5 36 31.5L36 22.999945 34 22.999945 34 21 36 21 36 17.5 39.0243797 15.999945zM25.9935795 18C28.6645398 18 30 20.6689056 30 26.0067969 30 31.3356256 28.6645398 34 25.9935795 34 24.6837816 34 23.6907471 33.318047 23.0144462 31.9541206 22.3381454 30.5901943 22 28.6077728 22 26.0067969 22 23.4330089 22.3402855 21.4551188 23.0208668 20.0730671 23.701448 18.6910155 24.6923423 18 25.9935795 18zM33 53L34 53 34 49.5C34 49.5 34.5 51.0445848 36.044039 51.0445848 36.8782669 51.0445848 37.579476 50.7219155 38.1476873 50.0765673 38.7158986 49.431219 39 48.5605408 39 47.4645067 39 46.4361813 38.7424999 45.6014728 38.2274918 44.9603563 37.7124838 44.3192398 37 44 36 44 34.5 44 34 45.2999992 34 45.2999992L34 44 33 44 33 53zM36.0208333 50.1051317C36.6087992 50.1051317 37.0856463 49.8893136 37.4513889 49.4576708 37.8171315 49.026028 38 48.3933846 38 47.5597216 38 46.7726082 37.8101871 46.1315014 37.4305556 45.6363817 37.050924 45.1412621 36.562503 44.8937059 35.9652778 44.8937059 35.3912008 44.8937059 34.9201407 45.1158717 34.5520833 45.5602098 34.1840259 46.004548 34 46.6393073 34 47.4645067 34 48.0442622 34.0856473 48.530911 34.2569444 48.9244677 34.4282416 49.3180243 34.6712947 49.6131874 34.9861111 49.8099657 35.3009275 50.006744 35.6458315 50.1051317 36.0208333 50.1051317zM41.0246737 43.9986864L40.9992831 45.1666552 41.0246737 45.1666552C41.3886079 44.3880054 41.8646773 43.9986864 42.4528964 43.9986864 42.8422213 43.9986864 43.2336562 44.1192907 43.6272128 44.3605028L43.2336581 45.4142137C42.9501281 45.2491739 42.6729498 45.1666552 42.4021152 45.1666552 41.9747042 45.1666552 41.6509769 45.3581409 41.4309237 45.741118 41.2108706 46.1240952 41.0246737 46.8095611 41.0246737 47.4993432L40.9992831 51 40 51 40.0253906 43.9986864 41.0246737 43.9986864zM47 44C48.6568542 44 50 45.5670034 50 47.5 50 49.4329966 48.6568542 51 47 51 45.3431458 51 44 49.4329966 44 47.5 44 45.5670034 45.3431458 44 47 44zM47 45C45.8954305 45 45 46.1192881 45 47.5 45 48.8807119 45.8954305 50 47 50 48.1045695 50 49 48.8807119 49 47.5 49 46.1192881 48.1045695 45 47 45z"/>
  </g>
</svg>
