<svg xmlns="http://www.w3.org/2000/svg" xmlns:xlink="http://www.w3.org/1999/xlink" width="64" height="64" viewBox="0 0 64 64">
  <defs>
    <rect id="application-vnd.google-apps.form-b" width="42" height="52" x="0" y="0"/>
    <filter id="application-vnd.google-apps.form-a" width="109.5%" height="107.7%" x="-4.8%" y="-1.9%" filterUnits="objectBoundingBox">
      <feOffset dy="1" in="SourceAlpha" result="shadowOffsetOuter1"/>
      <feGaussianBlur in="shadowOffsetOuter1" result="shadowBlurOuter1" stdDeviation=".5"/>
      <feColorMatrix in="shadowBlurOuter1" values="0 0 0 0 0   0 0 0 0 0   0 0 0 0 0  0 0 0 0.2 0"/>
    </filter>
  </defs>
  <g fill="none" fill-rule="evenodd">
    <g transform="translate(11 6)">
      <use fill="#000" filter="url(#application-vnd.google-apps.form-a)" xlink:href="#application-vnd.google-apps.form-b"/>
      <use fill="#F9FBFB" xlink:href="#application-vnd.google-apps.form-b"/>
      <path fill="#000" fill-opacity=".2" fill-rule="nonzero" d="M43,-1 L-1,-1 L-1,53 L43,53 L43,-1 Z M42,0 L42,52 L0,52 L0,0 L42,0 Z"/>
    </g>
    <path fill="#8DB479" d="M44,39 L44,41 L24,41 L24,39 L44,39 Z M22,39 L22,41 L20,41 L20,39 L22,39 Z M44,34 L44,36 L24,36 L24,34 L44,34 Z M22,34 L22,36 L20,36 L20,34 L22,34 Z M44,29 L44,31 L24,31 L24,29 L44,29 Z M22,29 L22,31 L20,31 L20,29 L22,29 Z M44,24 L44,26 L24,26 L24,24 L44,24 Z M22,24 L22,26 L20,26 L20,24 L22,24 Z"/>
  </g>
</svg>
