<svg xmlns="http://www.w3.org/2000/svg" xmlns:xlink="http://www.w3.org/1999/xlink" width="64" height="64" viewBox="0 0 64 64">
  <defs>
    <rect id="application-x-yaml-b" width="42" height="52" x="0" y="0"/>
    <filter id="application-x-yaml-a" width="109.5%" height="107.7%" x="-4.8%" y="-1.9%" filterUnits="objectBoundingBox">
      <feOffset dy="1" in="SourceAlpha" result="shadowOffsetOuter1"/>
      <feGaussianBlur in="shadowOffsetOuter1" result="shadowBlurOuter1" stdDeviation=".5"/>
      <feColorMatrix in="shadowBlurOuter1" values="0 0 0 0 0   0 0 0 0 0   0 0 0 0 0  0 0 0 0.2 0"/>
    </filter>
  </defs>
  <g fill="none" fill-rule="evenodd">
    <g transform="translate(11 6)">
      <use fill="#000" filter="url(#application-x-yaml-a)" xlink:href="#application-x-yaml-b"/>
      <use fill="#F9FBFB" xlink:href="#application-x-yaml-b"/>
      <path fill="#000" fill-opacity=".2" fill-rule="nonzero" d="M43,-1 L-1,-1 L-1,53 L43,53 L43,-1 Z M42,0 L42,52 L0,52 L0,0 L42,0 Z"/>
    </g>
    <path fill="#2A4052" fill-opacity=".6" d="M46,43 L46,44 L30,44 L30,43 L46,43 Z M46,37 L46,38 L30,38 L30,37 L46,37 Z M46,31 L46,32 L24,32 L24,31 L46,31 Z M46,25 L46,26 L18,26 L18,25 L46,25 Z"/>
  </g>
</svg>
