<svg xmlns="http://www.w3.org/2000/svg" xmlns:xlink="http://www.w3.org/1999/xlink" width="64" height="64" viewBox="0 0 64 64">
  <defs>
    <rect id="application-vnd.wolfram.cdf-b" width="42" height="52" x="0" y="0"/>
    <filter id="application-vnd.wolfram.cdf-a" width="109.5%" height="107.7%" x="-4.8%" y="-1.9%" filterUnits="objectBoundingBox">
      <feOffset dy="1" in="SourceAlpha" result="shadowOffsetOuter1"/>
      <feGaussianBlur in="shadowOffsetOuter1" result="shadowBlurOuter1" stdDeviation=".5"/>
      <feColorMatrix in="shadowBlurOuter1" values="0 0 0 0 0   0 0 0 0 0   0 0 0 0 0  0 0 0 0.2 0"/>
    </filter>
  </defs>
  <g fill="none" fill-rule="evenodd">
    <g transform="translate(11 6)">
      <use fill="#000" filter="url(#application-vnd.wolfram.cdf-a)" xlink:href="#application-vnd.wolfram.cdf-b"/>
      <use fill="#F9FBFB" xlink:href="#application-vnd.wolfram.cdf-b"/>
      <path fill="#000" fill-opacity=".2" fill-rule="nonzero" d="M43,-1 L-1,-1 L-1,53 L43,53 L43,-1 Z M42,0 L42,52 L0,52 L0,0 L42,0 Z"/>
    </g>
    <path fill="#2A4052" fill-opacity=".6" d="M30.2689734,19 C24.4927829,19 19.9998209,23.9166659 20,29.6979167 C20,35.478982 24.057698,39.8 29.8337051,39.8 C37.1152194,39.3230993 38.5622137,28.732112 32.2109377,29.9738278 C32.1343006,30.2254619 33.9920866,30.9514581 34.1244423,32.2708333 C34.3845886,34.8640829 32.3573746,36.4261629 29.8253351,35.9338537 C27.9753783,35.5741663 25.7406294,33.9921668 25.3069194,32.4164065 C24.9059103,30.9594523 25.105406,29.2104453 25.53125,28.0492185 C27.5417283,22.5668949 34.6407011,21.1148461 37.1428571,21.1835935 C35.1852663,19.6931132 33.032486,19.0028574 30.2689734,19 Z M34.1662949,24.2 C26.8847806,24.6769007 25.4377863,35.267888 31.7890623,34.0261722 C31.8656994,33.7745381 30.0079134,33.0485419 29.8755577,31.7291667 C29.6154114,29.1359171 31.6426254,27.573838 34.1746649,28.0661463 C36.0246217,28.4258337 38.2593706,30.0078332 38.6930806,31.5835935 C39.0940897,33.0405477 38.894594,34.7895547 38.46875,35.9507815 C36.4582717,41.4331051 29.3592989,42.8851539 26.8571429,42.8164065 C28.8147337,44.3068868 30.967514,44.9971426 33.7310266,45 C39.5072171,45 44.0001791,40.0833341 44,34.3020833 C44,28.521018 39.942302,24.2 34.1662949,24.2 Z"/>
  </g>
</svg>
