<svg xmlns="http://www.w3.org/2000/svg" xmlns:xlink="http://www.w3.org/1999/xlink" width="64" height="64" viewBox="0 0 64 64">
  <defs>
    <rect id="application-msword-template-b" width="42" height="52" x="0" y="0"/>
    <filter id="application-msword-template-a" width="109.5%" height="107.7%" x="-4.8%" y="-1.9%" filterUnits="objectBoundingBox">
      <feOffset dy="1" in="SourceAlpha" result="shadowOffsetOuter1"/>
      <feGaussianBlur in="shadowOffsetOuter1" result="shadowBlurOuter1" stdDeviation=".5"/>
      <feColorMatrix in="shadowBlurOuter1" values="0 0 0 0 0   0 0 0 0 0   0 0 0 0 0  0 0 0 0.2 0"/>
    </filter>
  </defs>
  <g fill="none" fill-rule="evenodd">
    <g transform="translate(11 6)">
      <use fill="#000" filter="url(#application-msword-template-a)" xlink:href="#application-msword-template-b"/>
      <use fill="#F9FBFB" xlink:href="#application-msword-template-b"/>
      <path fill="#000" fill-opacity=".2" fill-rule="nonzero" d="M43,-1 L-1,-1 L-1,53 L43,53 L43,-1 Z M42,0 L42,52 L0,52 L0,0 L42,0 Z"/>
    </g>
    <path fill="#4B74AE" d="M38,32.5 L42,35 L42,44 L38,46 L32,43 L32,36 L38,32.5 Z M38,35.5 L34,36.5 L34,42 L32,43 L38,44 L38,35.5 Z M38.5,19 C38.7761424,19 39,19.2238576 39,19.5 L39,22.9980599 L42.5000004,22.9980621 C42.7761428,22.9980624 43.0000002,23.2219202 43,23.4980626 C42.9999998,23.774205 42.7761419,23.9980624 42.4999996,23.9980621 L39,23.9980599 L39,30.5 C39,30.7761424 38.7761424,31 38.5,31 C38.2238576,31 38,30.7761424 38,30.5 L38,23.998059 L26,23.99805 L26,36.9999995 L30.5000005,37.0000038 C30.7761429,37.0000041 31.0000003,37.2238619 31,37.5000043 C30.9999997,37.7761467 30.7761419,38.0000041 30.4999995,38.0000038 L26,37.9999995 L26,41.5 C26,41.7761424 25.7761424,42 25.5,42 C25.2238576,42 25,41.7761424 25,41.5 L25,37.9999986 L20.9999995,37.9999962 C20.7238571,37.9999959 20.4999997,37.7761381 20.5,37.4999957 C20.5000003,37.2238533 20.7238581,36.9999959 21.0000005,36.9999962 L25,36.9999986 L25,23.9980491 L20.9999996,23.9980469 C20.7238572,23.9980466 20.4999998,23.7741888 20.5,23.4980464 C20.5000002,23.2219041 20.7238581,22.9980466 21.0000004,22.9980469 L25,22.9980491 L25,19.5 C25,19.2238576 25.2238576,19 25.5,19 C25.7761424,19 26,19.2238576 26,19.5 L26,22.99805 L38,22.998059 L38,19.5 C38,19.2238576 38.2238576,19 38.5,19 Z"/>
  </g>
</svg>
