<svg xmlns="http://www.w3.org/2000/svg" xmlns:xlink="http://www.w3.org/1999/xlink" width="64" height="64" viewBox="0 0 64 64">
  <defs>
    <rect id="authors-b" width="42" height="52" x="0" y="0"/>
    <filter id="authors-a" width="109.5%" height="107.7%" x="-4.8%" y="-1.9%" filterUnits="objectBoundingBox">
      <feOffset dy="1" in="SourceAlpha" result="shadowOffsetOuter1"/>
      <feGaussianBlur in="shadowOffsetOuter1" result="shadowBlurOuter1" stdDeviation=".5"/>
      <feColorMatrix in="shadowBlurOuter1" values="0 0 0 0 0   0 0 0 0 0   0 0 0 0 0  0 0 0 0.2 0"/>
    </filter>
  </defs>
  <g fill="none" fill-rule="evenodd">
    <path fill="#FFF" d="M40.8808038,40.499092 L40.8356282,40.4999127 C40.7909044,40.5003108 40.7136542,40.5006909 40.6069269,40.5010537 L40.3550732,40.5017564 C40.3068483,40.5018698 40.255574,40.5019813 40.2013633,40.502091 L39.8417658,40.5027274 C39.7762612,40.5028299 39.7080461,40.5029306 39.6372335,40.5030296 L38.9328335,40.5038745 C38.8474516,40.5039633 38.7598111,40.5040505 38.6700246,40.5041361 L37.8070584,40.5048636 C37.7054134,40.5049398 37.6019613,40.5050144 37.4968152,40.5050876 L36.1609738,40.5058957 C36.044082,40.5059574 35.9259479,40.5060177 35.8066844,40.5060767 L33.9471452,40.5068648 C33.8194113,40.5069111 33.6911127,40.5069563 33.5623624,40.5070003 L30.0586585,40.507929 C29.9309246,40.5079547 29.8037554,40.5079794 29.6772638,40.5080033 L23.125,40.5086721 L23.125,40.5086721 C23.1379068,40.3393165 23.1564673,40.1726626 23.1805022,40.0087629 L23.1256349,40.0086721 C23.1773789,40.0086721 26.3843981,40.0086661 30.0586585,40.007929 L33.5623624,40.0070003 C33.6911127,40.0069563 33.8194113,40.0069111 33.9471452,40.0068648 L35.8066844,40.0060767 C35.9259479,40.0060177 36.044082,40.0059574 36.1609738,40.0058957 L37.4968152,40.0050876 C37.6019613,40.0050144 37.7054134,40.0049398 37.8070584,40.0048636 L38.6700246,40.0041361 C38.7598111,40.0040505 38.8474516,40.0039633 38.9328335,40.0038745 L39.6372335,40.0030296 C39.7080461,40.0029306 39.7762612,40.0028299 39.8417658,40.0027274 L40.2013633,40.002091 C40.255574,40.0019813 40.3068483,40.0018698 40.3550732,40.0017564 L40.6069269,40.0010537 C40.6425027,40.0009327 40.6748032,40.0008099 40.7037156,40.0006851 L40.825114,39.9989983 C40.8491722,40.1629384 40.8677938,40.3296532 40.8808038,40.499092 Z"/>
    <g transform="translate(11 6)">
      <use fill="#000" filter="url(#authors-a)" xlink:href="#authors-b"/>
      <use fill="#F9FBFB" xlink:href="#authors-b"/>
      <path fill="#000" fill-opacity=".2" fill-rule="nonzero" d="M43,-1 L-1,-1 L-1,53 L43,53 L43,-1 Z M42,0 L42,52 L0,52 L0,0 L42,0 Z"/>
    </g>
    <path fill="#2A4052" fill-opacity=".6" d="M32,21.025 C35.368937,21.025 38.1,23.756063 38.1,27.125 C38.1,29.355483 36.9028631,31.3063598 35.1160619,32.3701578 C39.112889,33.3595775 42.1,36.2892444 42.1,40.6467391 C42.1,40.9799109 41.8313708,41.25 41.5,41.25 L41.5,41.25 L22.5,41.25 C22.1686292,41.25 21.9,40.9799109 21.9,40.6467391 C21.9,36.29787 24.9006802,33.3647238 28.888929,32.3722851 C27.0993827,31.3100177 25.9,29.3575742 25.9,27.125 C25.9,23.756063 28.631063,21.025 32,21.025 Z M32.3715719,33.2119742 L32.2236278,33.220977 C32.1494155,33.2236513 32.0748653,33.225 32,33.225 C31.8755618,33.225 31.7519939,33.2212739 31.6294017,33.2139272 C27.1561104,33.3451037 23.4384068,35.8872807 23.1218392,40.0636635 L23.1218392,40.0636635 L29.2967741,40.0630605 C29.4217975,40.0630382 29.5476115,40.063015 29.674103,40.062991 L33.1717082,40.0621118 C33.3012491,40.0620699 33.4304512,40.0620268 33.5592016,40.0619826 L35.8035236,40.061054 C35.9227871,40.0609947 36.0409212,40.060934 36.157813,40.060872 L37.4936544,40.0600595 C37.5988005,40.0599859 37.7022526,40.0599109 37.8038976,40.0598343 L38.6668638,40.0591028 C38.7566502,40.0590168 38.8442908,40.0589291 38.9296727,40.0588398 L39.4139547,40.0582837 C39.4898497,40.0581877 39.5632599,40.0580899 39.6340726,40.0579903 L40.1982025,40.0570466 C40.2524132,40.0569363 40.3036874,40.0568242 40.3519124,40.0567102 L40.6037661,40.0560036 C40.7104934,40.0556389 40.7877436,40.0552568 40.8324674,40.0548564 L40.877643,40.0540313 C40.5585075,35.875117 36.8628072,33.3442168 32.3715719,33.2119742 Z M32,22.225 C29.2938047,22.225 27.1,24.4188047 27.1,27.125 C27.1,29.6876234 29.0672034,31.7907817 31.5738619,32.0067269 L31.7148906,32.0029695 L31.7148906,32.0029695 L32,32 C32.1430709,32 32.2855836,32.0022098 32.427469,32.0066114 C34.9333164,31.7902259 36.9,29.6872847 36.9,27.125 C36.9,24.4188047 34.7061953,22.225 32,22.225 Z"/>
  </g>
</svg>
