<svg xmlns="http://www.w3.org/2000/svg" xmlns:xlink="http://www.w3.org/1999/xlink" width="64" height="64" viewBox="0 0 64 64">
  <defs>
    <rect id="deb-b" width="42" height="52" x="0" y="0"/>
    <filter id="deb-a" width="109.5%" height="107.7%" x="-4.8%" y="-1.9%" filterUnits="objectBoundingBox">
      <feOffset dy="1" in="SourceAlpha" result="shadowOffsetOuter1"/>
      <feGaussianBlur in="shadowOffsetOuter1" result="shadowBlurOuter1" stdDeviation=".5"/>
      <feColorMatrix in="shadowBlurOuter1" values="0 0 0 0 0   0 0 0 0 0   0 0 0 0 0  0 0 0 0.2 0"/>
    </filter>
  </defs>
  <g fill="none" fill-rule="evenodd">
    <g transform="translate(11 6)">
      <use fill="#000" filter="url(#deb-a)" xlink:href="#deb-b"/>
      <use fill="#F9FBFB" xlink:href="#deb-b"/>
      <path fill="#000" fill-opacity=".2" fill-rule="nonzero" d="M43,-1 L-1,-1 L-1,53 L43,53 L43,-1 Z M42,0 L42,52 L0,52 L0,0 L42,0 Z"/>
    </g>
    <path fill="#D96464" d="M24.1884985,44.3085543 C24.1793806,44.3169571 24.1793806,45.6504979 24.1605369,45.998588 C24.1418958,46.2799921 24.1135289,46.8848143 23.437587,46.8848143 C22.7428013,46.8848143 22.5738158,46.1805889 22.5174873,45.8743339 C22.4518383,45.5346466 22.4518383,45.2527062 22.4518383,45.1288097 C22.4518383,44.731018 22.4800025,43.6205981 23.5409234,43.6205981 C23.8602533,43.6205981 24.0385593,43.7037321 24.1793806,43.769703 L24.1884985,44.3085543 L24.1884985,44.3085543 Z M27.4871601,43.0241787 C28.8767315,43.0241787 29.0925223,43.977091 29.0925223,44.9464513 L29.0925223,44.9464513 L29.0742865,45.4348858 L26.576381,45.4348858 C26.576381,45.8407228 26.5952247,47.0174711 28.0599683,47.0174711 C28.6232532,47.0174711 28.8767315,46.876769 29.0742865,46.7687842 C29.0175527,47.0255163 28.9707474,47.2160988 28.9800679,47.5143085 C28.8110824,47.5561436 28.5008705,47.6385625 27.8628185,47.6385625 C26.4262392,47.6385625 25.5719912,46.9758147 25.5719912,45.2941838 L25.5719912,45.2941838 L25.5726194,45.1920379 C25.5811002,44.6475254 25.7040719,43.0241787 27.4871601,43.0241787 Z M30.476015,41.3840254 C30.4117554,42.0302486 30.3958766,43.2059461 30.3926512,43.7947127 L30.3919275,44.0350166 C30.5325462,43.6953293 30.7953449,43.0325815 31.6968035,43.0325815 C32.1472289,43.0325815 32.5698952,43.2315668 32.8324914,43.6205981 C33.1046107,44.0350166 33.1422981,44.6893616 33.1422981,44.9875713 C33.1422981,45.4763635 33.0484848,46.1226632 32.7761629,46.6032314 C32.2035574,47.6385625 31.1426365,47.6385625 30.7765012,47.6385625 C30.2034905,47.6385625 29.7249009,47.5641889 29.3399219,47.431532 C29.4525789,47.1665759 29.4525789,46.8188434 29.4525789,46.2056184 L29.451969,43.5320193 C29.4465524,42.2509371 29.4050248,41.8221288 29.0866463,41.7070859 C29.4900637,41.6738323 29.8659247,41.6327123 30.476015,41.3840254 Z M25.2214578,41.4004734 C25.1138305,41.970738 25.1011685,43.6953114 25.0996789,44.9581891 L25.0994802,45.4348858 C25.0994802,46.7276642 25.2121372,47.3240836 25.362279,47.5890397 C25.2777863,47.5806369 25.2028167,47.5725916 25.1276445,47.5725916 C25.0522697,47.5641889 24.9679795,47.5641889 24.8646431,47.5641889 C24.5736801,47.5641889 24.395374,47.5806369 24.2168654,47.5890397 L24.2168654,47.5890397 L24.1980217,46.8519182 C24.0385593,47.3405316 23.6629009,47.6222933 23.0807723,47.6222933 L23.0807723,47.6222933 L23.0242257,47.6216011 C22.6927729,47.6119111 21.4658869,47.4665615 21.4658869,45.2863173 C21.4658869,44.3250023 21.7382089,43.0325815 23.4187433,43.0324027 C23.8037222,43.0324027 24.0292388,43.0905071 24.2073422,43.14003 L24.2073422,43.14003 L24.2069295,42.7926433 C24.2038339,42.015931 24.1775212,41.8942505 23.953864,41.6822351 C24.5923212,41.6327123 24.8836894,41.5415331 25.2214578,41.4004734 Z M37.2775798,43.0324027 C38.6859948,43.0324027 38.8740266,43.6536729 38.8740266,44.2835247 L38.8740266,44.2835247 L38.8645035,45.9735584 C38.8645035,46.4126489 38.8645035,46.7274854 38.8831445,47.0421431 C38.911714,47.3652036 38.9678399,47.4483376 39.0711764,47.5890397 C38.911714,47.5806369 38.7613696,47.5641889 38.6019073,47.5641889 C38.3200622,47.5641889 38.1510767,47.5806369 37.9820912,47.5890397 C37.953927,47.2988752 37.9444038,47.0753967 37.953927,46.7108586 C37.7754183,47.0587699 37.4846579,47.6222933 36.6206841,47.6222933 C36.5453093,47.6222933 36.3106748,47.6222933 36.0760402,47.531114 C35.5500374,47.307278 35.3715288,46.7855898 35.3715288,46.2635441 C35.3715288,45.1531242 36.1601277,44.7478236 37.3529546,44.7476448 C37.6066354,44.7476448 37.7569798,44.7640928 37.9354885,44.772138 C37.9354885,44.1261958 37.9354885,43.6704785 37.1558048,43.6704785 C36.6678947,43.6704785 36.1891025,43.8195834 35.822562,44.101345 C35.7382719,43.7446734 35.6444586,43.5877021 35.531599,43.4053436 C35.8039209,43.2810896 36.3483622,43.0324027 37.2775798,43.0324027 Z M40.8830088,42.9748347 L40.8830088,43.8526582 C40.9954632,43.5955685 41.2300977,43.0239999 42.1692437,43.0239999 C43.3430242,43.0239999 43.3521421,43.777927 43.3616653,44.2747643 L43.3616653,46.768963 C43.3711885,47.0507247 43.3711885,47.3489344 43.5024865,47.5892184 L43.4180103,47.5817419 L43.4180103,47.5817419 L43.2559305,47.5659881 C43.1428269,47.5559138 43.0088162,47.5477408 42.7890598,47.5477408 C42.5635432,47.5477408 42.4415656,47.5645464 42.263057,47.5892184 C42.3003392,47.4815912 42.3195881,47.4401136 42.3382292,47.299054 C42.3663934,47.1088291 42.3852371,46.4707533 42.3852371,46.2469173 L42.3852371,45.3522882 C42.3852371,44.9628993 42.3852371,44.3993759 42.3566677,44.2007483 C42.3380266,44.0600462 42.2914239,43.6790601 41.7463747,43.6790601 C41.211254,43.6790601 41.032948,44.0267926 40.9670963,44.3085543 C40.9063482,44.5440224 40.8949579,44.796132 40.8928222,45.5399467 L40.8923294,46.13929 L40.8923294,46.13929 C40.9014473,47.1998295 40.9014473,47.2988752 40.9952606,47.5890397 C40.8357982,47.5725916 40.6386485,47.5561436 40.357006,47.5561436 C40.1314894,47.5561436 39.9813476,47.5641889 39.7939237,47.5890397 C39.8595727,47.4563828 39.8972601,47.3900544 39.9159012,46.9262919 C39.9349475,46.4705745 39.9724323,44.2336443 39.8873317,43.7037321 C39.840729,43.380314 39.7465105,43.3059404 39.6435793,43.223164 C40.4042166,43.1899104 40.647969,43.0821044 40.8830088,42.9748347 Z M34.8530229,42.9828799 C34.778256,43.3470604 34.7683276,43.5297765 34.7683276,44.0845394 C34.764164,44.7300203 34.7604551,45.2453629 34.7595896,45.6603382 L34.7595998,45.992146 C34.7623265,47.0208685 34.7938367,47.2997032 34.9098475,47.5230168 L34.9472415,47.5890397 L34.9472415,47.5890397 C34.7592096,47.5641889 34.6275063,47.5475621 34.3551844,47.5475621 C34.055306,47.5475621 33.8482279,47.5643676 33.6326397,47.5890397 C33.726453,47.431532 33.7639378,47.3568008 33.792102,46.8186646 C33.8076204,46.5149968 33.8183291,46.0020504 33.8209747,45.4747394 L33.8211918,45.0237868 C33.818646,44.429949 33.8043546,43.8900869 33.7734609,43.6951505 C33.726453,43.3801353 33.6421629,43.3306124 33.5106622,43.247836 C34.2804174,43.1815076 34.4964109,43.1319847 34.8530229,42.9828799 Z M31.2925756,43.7868661 C31.2082855,43.7868661 30.7669781,43.7949113 30.5700309,44.3829279 C30.5039767,44.5656439 30.4196865,44.9378697 30.4196865,45.6504979 C30.4196865,46.2469173 30.4196865,46.7605602 30.4385302,47.0587699 C30.5605078,47.0834419 30.7481344,47.1086503 30.8984788,47.1086503 C31.9875639,47.1086503 32.1470262,46.0729616 32.1470262,45.3025866 C32.1470262,44.6566444 32.006205,43.7868661 31.2925756,43.7868661 Z M37.9537243,45.2443034 L37.4556832,45.2443034 C37.0992737,45.2443034 36.3104721,45.3027654 36.3104721,46.0813644 C36.3104721,46.4872013 36.4320444,46.9012623 36.9959373,46.9012623 C37.240095,46.9012623 37.5685428,46.793635 37.7656925,46.4206941 C37.9255601,46.1308872 37.9350833,45.7663491 37.9537243,45.2443034 L37.9537243,45.2443034 Z M27.3933469,43.5626725 C26.726928,43.5626725 26.5672631,44.1757187 26.5577399,44.8633173 L26.5577399,44.8633173 L28.1631021,44.8633173 C28.1817432,44.2749431 28.1258199,43.5626725 27.3933469,43.5626725 Z M34.2488086,41.1246116 L35.0264661,41.8104224 L34.2488086,42.4962332 L33.4715564,41.8104224 L34.2488086,41.1246116 Z M32.1488042,16.3333333 C31.9704627,16.4329654 31.7931183,16.510927 31.6259863,16.6282438 C32.3049766,16.4660925 32.2725963,16.6947472 32.9665321,16.6030861 C32.7229325,16.6382063 32.4272722,16.7350975 32.4743511,16.7717133 C33.2497356,16.8613818 33.3682982,16.5320984 34.085896,16.7712148 L34.085896,16.7712148 L34.040566,16.5589989 C35.0376309,16.91867 35.2463601,16.8576453 36.3298565,17.4325214 C36.709703,17.4512007 36.7480611,17.1981376 37.3221899,17.4320234 C37.423316,17.6093678 37.2992741,17.6424954 38.0051665,18.0621945 C38.0833769,18.0308108 37.8644359,17.8315472 37.6913255,17.6728831 C39.1098349,18.4310819 40.6513887,20.0476086 41.1219002,21.7774668 C40.6810286,20.9659651 41.0765671,22.1914369 40.9248774,22.1274236 C41.1214016,22.6567179 41.2820584,23.2039457 41.3816904,23.7686089 C41.2509234,23.3055704 40.9672218,22.1872024 40.46956,21.466117 C40.4559436,21.6212106 40.3800573,21.6371794 40.2971045,21.627493 L40.2255591,21.615554 C40.0841574,21.5896962 39.9683405,21.5837183 40.1562175,22.169269 C40.4062935,22.5324272 40.2067811,21.8011289 40.5156398,22.4462454 C40.5206216,22.7528623 40.6374399,23.057487 40.7054384,23.4567615 C40.5998285,23.4395753 40.46956,23.0151431 40.392595,23.133456 C40.4994492,23.6358498 40.6755487,23.8978829 40.7423025,23.9364888 C40.7081783,24.0206775 40.6190073,23.8580287 40.6127807,24.1997657 C40.6412074,24.740549 40.7347376,24.7527273 40.8180992,24.7196695 L40.8621083,24.7000571 C40.8831562,24.6909131 40.9024297,24.6849413 40.9184021,24.6919472 C40.8322202,25.0792661 40.4857507,25.534584 40.6571167,26.2008719 C40.6080487,25.9988684 40.5116546,25.7958683 40.4391723,25.6045751 C40.3719211,26.1734729 40.5652074,26.2843133 40.3024279,26.973517 L40.3028869,26.9693333 L40.3354767,26.8579357 C40.4783522,26.3236084 40.4631241,25.8723076 40.3243332,26.0203109 L40.2927136,26.0613871 C40.3719211,26.9446234 39.5935474,27.6226187 39.6782346,28.1815534 L39.6782346,28.1815534 L39.4520695,27.8702035 C39.1638403,28.2879541 39.1436866,28.4208059 39.1597305,28.5144976 L39.1749273,28.5812635 C39.1921213,28.6595501 39.1926462,28.7548908 39.0211619,29.0319114 C39.1740959,28.7676379 38.940958,28.923063 39.1399728,28.6236693 C39.0077122,28.6311417 38.5504017,29.1858425 38.1314493,29.5121367 C36.48603,30.8310135 34.5217879,31.0036254 32.6198153,30.2934995 L32.6198153,30.2934995 L32.6158869,30.3003333 L32.6211381,30.2783021 C32.6228028,30.247857 32.6082741,30.2136081 32.553456,30.1663486 L32.4843157,30.1144113 C30.8720235,28.8787271 29.9190448,27.8288567 30.250071,25.3978391 C30.4956637,25.2120257 30.5614209,24.1980224 31.1253369,23.8430838 C31.469067,23.0831422 32.4995103,22.3834795 33.6006905,22.3655434 C34.7242894,22.30427 35.6730336,22.9660747 36.1492737,23.590268 C35.2822271,22.7810086 33.8622241,22.5354159 32.6509503,23.1347018 C31.4125267,23.6923907 30.6782397,25.056102 30.7853437,26.413835 C30.8311737,26.3465833 30.8722702,26.3884286 30.8941915,26.2210473 C30.8563319,28.860295 33.7386807,30.7948967 35.8135145,29.8185042 L35.8135145,29.8185042 L35.8379233,29.8735511 C36.679564,29.643651 36.570965,29.4543504 37.1211819,29.0767454 C37.07834,29.1651685 36.7505512,29.3915594 36.9460789,29.3958164 C37.2135903,29.32458 38.0490034,28.5469531 38.4604829,28.1815534 C38.6490362,27.774806 38.359606,27.9616159 38.6228835,27.4500064 L38.6228835,27.4500064 L38.9449432,27.2898482 C39.1240314,26.7727588 39.3220513,26.480339 39.2996325,25.8785629 L39.299633,25.8785614 L39.1125738,26.2748467 C39.3893015,25.4384376 39.2298901,24.527553 39.2687473,23.7399636 L39.2687473,23.7399636 L39.1917812,23.7192886 C39.1240319,21.7383583 37.4111116,19.6328886 35.8874908,18.9202716 C34.5733465,18.3137625 32.5510689,18.2093984 31.6170208,18.6667085 C31.7455455,18.5528788 32.2579028,18.5050557 32.1034737,18.4173798 C30.6406288,18.5625931 30.9676698,18.9274948 29.8460645,19.2136875 C29.7166478,19.338804 29.8553596,19.3163441 30.0109538,19.2771272 L30.1268892,19.2466168 C30.2937633,19.2022704 30.4025084,19.1781084 30.0953932,19.3603954 C29.4938658,19.5265314 29.2136504,19.2557816 28.322195,20.1781238 C28.4016517,20.3061427 28.8881035,19.7985261 28.4823526,20.308143 C27.6444494,20.2045263 25.836131,22.2248112 25.4520501,22.8943371 L25.4520501,22.8943371 L25.6528083,22.9287115 C25.3232756,23.7549089 24.8893794,24.281712 24.8308454,24.7763841 C24.7454114,25.9931383 24.3204812,28.2121888 24.9103016,28.8936709 L24.9103016,28.8936709 L24.8530134,29.4628179 C24.9337154,29.6244707 24.9952381,29.7886141 25.0956174,29.9408018 L25.0956174,29.9408018 L24.9646011,29.9512649 C25.5850585,31.9092804 25.6311388,29.987631 26.4508598,32.0211169 C26.3317991,31.9810149 26.211743,31.937177 26.0386331,31.70354 C26.0177104,31.8818814 26.2909504,32.4171535 26.6150027,32.8348601 L26.6150027,32.8348601 L26.4777603,32.9915311 C26.6583426,33.3200672 26.8249772,33.3920509 26.9502639,33.5061298 C26.2757568,33.1379903 27.5759528,34.7193967 27.6932691,34.9209022 L27.6932691,34.9209022 L27.7968864,34.7360849 C27.7816928,35.001853 27.9871825,35.3448354 28.3722595,35.8195814 L28.3722595,35.8195814 L28.6930744,35.8068769 C28.8250868,36.0686592 29.3083007,36.5399165 29.6014684,36.5623353 L29.6014684,36.5623353 L29.4064392,36.8166457 C30.1422198,37.049535 29.7638679,37.1255045 30.6680268,37.4455716 L30.6680268,37.4455716 L30.4854519,37.1230138 C30.9467472,37.5232844 31.0892206,37.8732417 31.7400657,38.1801078 C32.6427305,38.4946956 32.7622887,38.3699064 33.6883669,38.6349272 C32.9032681,38.6130085 31.9804273,38.6209789 31.3597212,38.3985507 C27.1248689,37.2517877 23.2506847,32.2838943 23.5336385,27.1668023 C23.4686512,26.1308802 23.6367578,24.8364127 23.4643941,24.5786156 C23.7062514,23.7900296 23.9869638,22.8290805 24.551129,21.6853067 C24.5102803,21.6085899 24.6440355,21.9092294 24.9307262,21.4202859 C25.1045839,21.0384468 25.2468086,20.6177511 25.4657496,20.2463736 L25.4657496,20.2463736 L25.5785831,20.220221 C25.6914162,19.5643946 27.1079315,18.5593583 27.529375,18.0534773 L27.529375,18.0534773 L27.5582666,18.2467631 C28.4781171,17.3842002 30.1173103,16.8060867 31.0401501,16.3941087 C30.7977963,16.6626167 31.5831439,16.3677078 32.1488042,16.3333333 Z M30.5272967,28.9387557 C30.723821,28.9815971 31.3985779,30.0347058 31.9039608,30.2053256 C31.6053144,29.9662087 31.3744173,29.6618338 31.1602083,29.3487405 C31.5637173,29.8122777 32.0539062,30.1908788 32.5894271,30.4414528 C32.5781356,30.3981128 32.5908111,30.3663137 32.6033574,30.3368485 L32.6108869,30.3163333 L32.6242035,30.3500587 C32.6849362,30.4534107 32.9461125,30.6547091 33.1787359,30.7881948 L33.264184,30.8347495 C33.9885084,31.1025112 34.8077303,31.1132205 35.4528468,31.0893092 C34.0587478,31.6724044 31.3978311,30.4974956 30.5272967,28.9387557 Z"/>
  </g>
</svg>
