<svg xmlns="http://www.w3.org/2000/svg" xmlns:xlink="http://www.w3.org/1999/xlink" width="64" height="64" viewBox="0 0 64 64">
  <defs>
    <rect id="image-png-b" width="42" height="52" x="0" y="0"/>
    <filter id="image-png-a" width="109.5%" height="107.7%" x="-4.8%" y="-1.9%" filterUnits="objectBoundingBox">
      <feOffset dy="1" in="SourceAlpha" result="shadowOffsetOuter1"/>
      <feGaussianBlur in="shadowOffsetOuter1" result="shadowBlurOuter1" stdDeviation=".5"/>
      <feColorMatrix in="shadowBlurOuter1" values="0 0 0 0 0   0 0 0 0 0   0 0 0 0 0  0 0 0 0.2 0"/>
    </filter>
  </defs>
  <g fill="none" fill-rule="evenodd">
    <g transform="translate(11 6)">
      <use fill="#000" filter="url(#image-png-a)" xlink:href="#image-png-b"/>
      <use fill="#F9FBFB" xlink:href="#image-png-b"/>
      <path fill="#000" fill-opacity=".2" fill-rule="nonzero" d="M43,-1 L-1,-1 L-1,53 L43,53 L43,-1 Z M42,0 L42,52 L0,52 L0,0 L42,0 Z"/>
    </g>
    <path fill="#79B4A8" d="M24,42 L24,44 L26,44 C26.5560877,44 27,43.5549039 27,43 C27,42.4439123 26.5549039,42 26,42 L24,42 Z M26,41 C27.3807119,41 28,42 28,43 C28,44 27.3903379,45 26,45 L24.0011561,45 L24.0011561,48 L23,48 L23,41 L26,41 Z M30,41 L33,45.875 L33,41 L34,41 L34,48 L33,48 L30,43.125 L30,48 L29,48 L29,41 L30,41 Z M38,41 C39.3277375,41 40.4522584,41.83678 40.8480256,43 L39.7685857,43 C39.4332722,42.4042155 38.7677565,42 38,42 C36.8894723,42 36,42.8381448 36,43.8811019 L36,45.1188981 C36,46.1610047 36.8938939,47 38,47 C39.1105277,47 40,46.1618552 40,45.1188981 L40,45 L41,45 L41,48 L40,48 L40,47.2595077 C39.933726,47.3223967 39.1919932,48 38,48 C36.3414519,48 35,46.6943013 35,45.0776382 L35,43.9223618 C35,42.3059313 36.3364093,41 38,41 Z M42.9573333,20 L42.9573333,38 L20.9573333,38 L20.9573333,20 L42.9573333,20 Z M41.876,21 L21.876,21 L22,37 L42,37 L41.876,21 Z M29.5,23 L33,30.5 L35,26.5 L41,35.9931116 L23,36.004 L29.5,23 Z"/>
  </g>
</svg>
