<svg xmlns="http://www.w3.org/2000/svg" xmlns:xlink="http://www.w3.org/1999/xlink" width="64" height="64" viewBox="0 0 64 64">
  <defs>
    <rect id="image-x-generic-b" width="42" height="52" x="0" y="0"/>
    <filter id="image-x-generic-a" width="109.5%" height="107.7%" x="-4.8%" y="-1.9%" filterUnits="objectBoundingBox">
      <feOffset dy="1" in="SourceAlpha" result="shadowOffsetOuter1"/>
      <feGaussianBlur in="shadowOffsetOuter1" result="shadowBlurOuter1" stdDeviation=".5"/>
      <feColorMatrix in="shadowBlurOuter1" values="0 0 0 0 0   0 0 0 0 0   0 0 0 0 0  0 0 0 0.2 0"/>
    </filter>
  </defs>
  <g fill="none" fill-rule="evenodd">
    <g transform="translate(11 6)">
      <use fill="#000" filter="url(#image-x-generic-a)" xlink:href="#image-x-generic-b"/>
      <use fill="#F9FBFB" xlink:href="#image-x-generic-b"/>
      <path fill="#000" fill-opacity=".2" fill-rule="nonzero" d="M43,-1 L-1,-1 L-1,53 L43,53 L43,-1 Z M42,0 L42,52 L0,52 L0,0 L42,0 Z"/>
    </g>
    <path fill="#79B4A8" d="M43.9573333,21 L43.9573333,42 L19.9573333,42 L19.9573333,21 L43.9573333,21 Z M42.876,22 L20.876,22 L21,41 L43,41 L42.876,22 Z M29.5,25 L33,32.5 L35,28.5 L41,38.9931116 L23,39.004 L29.5,25 Z"/>
  </g>
</svg>
