<svg xmlns="http://www.w3.org/2000/svg" xmlns:xlink="http://www.w3.org/1999/xlink" width="64" height="64" viewBox="0 0 64 64">
  <defs>
    <rect id="message-b" width="42" height="52" x="0" y="0"/>
    <filter id="message-a" width="109.5%" height="107.7%" x="-4.8%" y="-1.9%" filterUnits="objectBoundingBox">
      <feOffset dy="1" in="SourceAlpha" result="shadowOffsetOuter1"/>
      <feGaussianBlur in="shadowOffsetOuter1" result="shadowBlurOuter1" stdDeviation=".5"/>
      <feColorMatrix in="shadowBlurOuter1" values="0 0 0 0 0   0 0 0 0 0   0 0 0 0 0  0 0 0 0.2 0"/>
    </filter>
  </defs>
  <g fill="none" fill-rule="evenodd">
    <g transform="translate(11 6)">
      <use fill="#000" filter="url(#message-a)" xlink:href="#message-b"/>
      <use fill="#F9FBFB" xlink:href="#message-b"/>
      <path fill="#000" fill-opacity=".2" fill-rule="nonzero" d="M43,-1 L-1,-1 L-1,53 L43,53 L43,-1 Z M42,0 L42,52 L0,52 L0,0 L42,0 Z"/>
    </g>
    <path fill="#2A4052" fill-opacity=".6" d="M41.5,24 C41.502758,24 41.5055107,24.0000223 41.5082581,24.0000668 C41.5295027,24.0004318 41.5502327,24.0020731 41.5708216,24.005001 C41.5808599,24.0064057 41.5905443,24.0080798 41.6001291,24.010028 C41.6147958,24.0130265 41.6298734,24.0168109 41.6447866,24.0213088 C41.6594511,24.0257305 41.673334,24.0306309 41.6869211,24.0361109 C41.6985429,24.040778 41.7103842,24.0460778 41.7220505,24.0518631 C41.7365627,24.0591028 41.7504442,24.0668581 41.7638987,24.0752349 C41.7922747,24.0928717 41.819241,24.1136233 41.8443747,24.1375003 L41.7933197,24.0950316 C41.8082053,24.1058319 41.8224722,24.1174329 41.8360571,24.1297714 L41.8443747,24.1375003 C41.8492817,24.1421619 41.8540732,24.1468993 41.8587493,24.1517091 C41.8724667,24.1658301 41.8855383,24.1809826 41.8976777,24.1968848 C41.9036885,24.2046716 41.9094032,24.2126296 41.9148569,24.2207141 C41.9239807,24.234337 41.9325276,24.2484537 41.9403744,24.2630037 C41.9480863,24.27723 41.9551162,24.29199 41.961385,24.3069987 C41.9656356,24.3171313 41.9695879,24.3275224 41.9731972,24.3380725 C41.9792966,24.3560724 41.9843384,24.374168 41.9883474,24.3924504 C41.9959419,24.4265879 42,24.46282 42,24.5 L41.9945884,24.4264857 C41.996707,24.4408066 41.9982043,24.4552049 41.9990792,24.4696369 L42,24.5 L42,38.5 C42,38.7761424 41.7761424,39 41.5,39 L41.5,39 L22.5,39 C22.2238576,39 22,38.7761424 22,38.5 L22,38.5 L22,24.5 C22,24.4935226 22.0001232,24.4870739 22.0003673,24.4806563 C22.0010245,24.462869 22.0027671,24.444108 22.0055615,24.4254798 C22.0073027,24.4136325 22.0093517,24.4026108 22.0117555,24.3917224 C22.0156616,24.374168 22.0207034,24.3560724 22.0267755,24.3382575 C22.0304121,24.3275224 22.0343644,24.3171313 22.0386462,24.3069126 C22.0448838,24.29199 22.0519137,24.27723 22.0597033,24.2627785 C22.0674724,24.2484537 22.0760193,24.234337 22.0852211,24.2206986 C22.1051358,24.1910772 22.1286349,24.1631411 22.1556253,24.1375003 L22.1023223,24.1968848 C22.1144617,24.1809826 22.1275333,24.1658301 22.1414555,24.1515088 L22.1556253,24.1375003 C22.158445,24.1348215 22.1612879,24.1321821 22.1641531,24.129582 C22.1775278,24.1174329 22.1917947,24.1058319 22.2066803,24.0950316 C22.216287,24.0880285 22.2260819,24.0814382 22.2360442,24.0752332 C22.2495558,24.0668581 22.2634373,24.0591028 22.2777058,24.0520091 C22.2896158,24.0460778 22.3014571,24.040778 22.313444,24.035963 C22.326666,24.0306309 22.3405489,24.0257305 22.3546973,24.0214403 C22.3701266,24.0168109 22.3852042,24.0130265 22.4003932,24.0099542 C22.4322219,24.0034522 22.4657078,24 22.5,24 L22.4281822,24.0051436 C22.4490986,24.0021264 22.4701627,24.0004376 22.4912392,24.0000739 L22.5,24 Z M35.387673,31.6599818 L32.3624997,34.8443747 C32.1653744,35.0518751 31.8346256,35.0518751 31.6375003,34.8443747 L31.6375003,34.8443747 L28.612327,31.6599818 L23.54,38 L40.459,37.999 L35.387673,31.6599818 Z M41,25.751 L36.0828694,30.9281962 L41,37.075 L41,25.751 Z M23,25.752 L23,37.073 L27.9171306,30.9281962 L23,25.752 Z M40.336,25 L23.665,25 L32.0108042,33.7854195 L40.336,25 Z"/>
  </g>
</svg>
