<svg xmlns="http://www.w3.org/2000/svg" xmlns:xlink="http://www.w3.org/1999/xlink" width="64" height="64" viewBox="0 0 64 64">
  <defs>
    <rect id="package-x-generic-b" width="42" height="52" x="0" y="0"/>
    <filter id="package-x-generic-a" width="109.5%" height="107.7%" x="-4.8%" y="-1.9%" filterUnits="objectBoundingBox">
      <feOffset dy="1" in="SourceAlpha" result="shadowOffsetOuter1"/>
      <feGaussianBlur in="shadowOffsetOuter1" result="shadowBlurOuter1" stdDeviation=".5"/>
      <feColorMatrix in="shadowBlurOuter1" values="0 0 0 0 0   0 0 0 0 0   0 0 0 0 0  0 0 0 0.2 0"/>
    </filter>
  </defs>
  <g fill="none" fill-rule="evenodd">
    <g transform="translate(11 6)">
      <use fill="#000" filter="url(#package-x-generic-a)" xlink:href="#package-x-generic-b"/>
      <use fill="#F9FBFB" xlink:href="#package-x-generic-b"/>
      <path fill="#000" fill-opacity=".2" fill-rule="nonzero" d="M43,-1 L-1,-1 L-1,53 L43,53 L43,-1 Z M42,0 L42,52 L0,52 L0,0 L42,0 Z"/>
    </g>
    <path fill="#2A4052" fill-opacity=".6" d="M23,29 L23,41 L41,41 L41,29 L23,29 Z M38,32 L38,35 L40,35 L36.5,39 L33,35 L35,35 L35,32 L38,32 Z M22.7566013,23.0164858 L19.4270866,28.0107579 L44.5,28 L41.2583852,23.0389656 L22.7566013,23.0164858 Z M42,41.506259 C42,41.7743607 41.7786564,42 41.5056152,42 L41.5056152,42 L22.4943848,42 C22.2246094,42 22,41.7789446 22,41.506259 L22,41.506259 L22,29 L18.5,29 C18.1006523,29 17.8624566,28.5549273 18.0839749,28.2226499 L18.0839749,28.2226499 L22.0839749,22.2226499 C22.1767077,22.0835506 22.3328234,22 22.5,22 L22.5,22 L41.5,22 C41.6671766,22 41.8232923,22.0835506 41.9160251,22.2226499 L41.9160251,22.2226499 L45.9160251,28.2226499 C46.1375434,28.5549273 45.8993477,29 45.5,29 L45.5,29 L42,29 Z"/>
  </g>
</svg>
