<svg xmlns="http://www.w3.org/2000/svg" xmlns:xlink="http://www.w3.org/1999/xlink" width="64" height="64" viewBox="0 0 64 64">
  <defs>
    <rect id="qgis-mime-b" width="42" height="52" x="0" y="0"/>
    <filter id="qgis-mime-a" width="109.5%" height="107.7%" x="-4.8%" y="-1.9%" filterUnits="objectBoundingBox">
      <feOffset dy="1" in="SourceAlpha" result="shadowOffsetOuter1"/>
      <feGaussianBlur in="shadowOffsetOuter1" result="shadowBlurOuter1" stdDeviation=".5"/>
      <feColorMatrix in="shadowBlurOuter1" values="0 0 0 0 0   0 0 0 0 0   0 0 0 0 0  0 0 0 0.2 0"/>
    </filter>
  </defs>
  <g fill="none" fill-rule="evenodd">
    <g transform="translate(11 6)">
      <use fill="#000" filter="url(#qgis-mime-a)" xlink:href="#qgis-mime-b"/>
      <use fill="#F9FBFB" xlink:href="#qgis-mime-b"/>
      <path fill="#000" fill-opacity=".2" fill-rule="nonzero" d="M43,-1 L-1,-1 L-1,53 L43,53 L43,-1 Z M42,0 L42,52 L0,52 L0,0 L42,0 Z"/>
    </g>
    <g transform="translate(20 18.5)">
      <path fill="#8DB479" d="M12,0.5 C18.627417,0.5 24,5.872583 24,12.5 C24,14.7846651 23.3615313,16.9202079 22.2532858,18.7379362 L18.5331971,15.0186766 C18.8347003,14.2371229 19,13.3878654 19,12.5 C19,8.63400675 15.8659932,5.5 12,5.5 C8.13400675,5.5 5,8.63400675 5,12.5 C5,16.3659932 8.13400675,19.5 12,19.5 C12.313217,19.5 12.6216293,19.4794284 12.9239595,19.4395625 L16.9290837,23.444184 C15.4253565,24.1224963 13.7567636,24.5 12,24.5 C5.372583,24.5 0,19.127417 0,12.5 C0,5.872583 5.372583,0.5 12,0.5 Z"/>
      <polygon fill="#D66565" points="10 11.5 10 15.09 10.588 15.689 13.001 18.103 13.11 18.212 20.402 25.504 24.001 25.512 24.001 21.899 16.617 14.516 16.603 14.501 13.602 11.5"/>
      <polygon fill="#8DB479" points="14.584 16.023 14.584 19.686 15.009 20.111 20.402 25.504 24.001 25.512 24.001 21.899 18.165 16.063 18.123 16.024"/>
      <polygon fill="#E28D54" points="13 14.5 13 18.103 13.39 18.492 14.585 19.687 15 20.111 15 16.5 18.604 16.5 18.403 16.302 18.165 16.063 16.992 14.89 16.603 14.5"/>
    </g>
  </g>
</svg>
