<svg xmlns="http://www.w3.org/2000/svg" xmlns:xlink="http://www.w3.org/1999/xlink" width="64" height="64" viewBox="0 0 64 64">
  <defs>
    <rect id="text-x-tex-b" width="42" height="52" x="0" y="0"/>
    <filter id="text-x-tex-a" width="109.5%" height="107.7%" x="-4.8%" y="-1.9%" filterUnits="objectBoundingBox">
      <feOffset dy="1" in="SourceAlpha" result="shadowOffsetOuter1"/>
      <feGaussianBlur in="shadowOffsetOuter1" result="shadowBlurOuter1" stdDeviation=".5"/>
      <feColorMatrix in="shadowBlurOuter1" values="0 0 0 0 0   0 0 0 0 0   0 0 0 0 0  0 0 0 0.2 0"/>
    </filter>
  </defs>
  <g fill="none" fill-rule="evenodd">
    <g transform="translate(11 6)">
      <use fill="#000" filter="url(#text-x-tex-a)" xlink:href="#text-x-tex-b"/>
      <use fill="#F9FBFB" xlink:href="#text-x-tex-b"/>
      <path fill="#000" fill-opacity=".2" fill-rule="nonzero" d="M43,-1 L-1,-1 L-1,53 L43,53 L43,-1 Z M42,0 L42,52 L0,52 L0,0 L42,0 Z"/>
    </g>
    <path fill="#2A4052" fill-opacity=".6" d="M48.5298648,23 L48.5298648,24.0653656 C46.8362465,24.0880672 46.2144752,24.4263302 45.9085904,24.8639206 L45.9085904,24.8639206 L42.8547432,29.3212728 L47.3930068,36.0237901 C47.8030758,36.6119058 48.0114442,36.7137259 49.3333333,36.7137259 L49.3333333,36.7137259 L49.3333333,37.9285714 C48.8324157,37.8890215 47.9272634,37.9285714 47.3930068,37.9285714 C46.7128924,37.9285714 45.5768679,37.8890215 44.9159233,37.9285714 L44.9159233,37.9285714 L44.9159233,36.7137259 C45.6385449,36.67081 45.8235761,36.3123362 45.8235761,36.1482461 C45.8235761,36.085976 45.8235761,36.0237901 45.6610487,35.7931383 L45.6610487,35.7931383 L42.0704445,30.4648631 L38.7690557,35.3294785 C38.6648715,35.4775804 38.5640212,35.6256822 38.5640212,35.8949583 C38.5640212,36.2307119 38.7490523,36.648174 39.3874931,36.7103599 L39.3874931,36.7103599 L39.3874931,37.9285714 C38.8732399,37.8890215 37.8900937,37.9285714 37.3333333,37.9285714 L37.3783333,37.928 L37.3785375,42 L26.2666677,42 L26.2666677,40.7797715 L26.2666677,40.7797715 L26.6078439,40.7792294 C27.7687897,40.7732669 27.9627864,40.7017165 27.9627864,39.8431115 L27.9627864,39.8431115 L27.9627864,29.0612363 C27.9627864,28.1246856 27.7285803,28.1246856 26.2666677,28.1246856 L26.2666677,28.1246856 L26.2666677,27.0714286 L27.7870161,27.0701327 C27.5405528,24.3890877 27.1359498,24.2475151 24.6829003,24.2407641 L22.9679062,24.2405058 C22.596177,24.325507 22.596177,24.5754289 22.596177,25.0357143 L22.596177,25.0357143 L22.596177,35.7207703 C22.596177,36.4739019 22.6578457,36.703628 24.3706422,36.703628 L24.3706422,36.703628 L24.9465725,36.703628 L24.9465725,37.9285714 C23.9572393,37.9091331 22.9220652,37.8889374 21.9127286,37.8889374 C20.9000582,37.8889374 19.868218,37.9091331 18.8780513,37.9285714 L18.8780513,37.9285714 L18.8780513,36.703628 L19.4639833,36.703628 C21.2026092,36.703628 21.2651197,36.4739019 21.2651197,35.7207703 L21.2651197,25.0357143 C21.2651197,24.5560663 21.0608997,24.3028054 20.6666667,24.2405058 L20.6666667,24.2405058 L18.9399046,24.2408045 C16.3143845,24.2483757 16.220212,24.4116387 15.9708955,27.6382973 L15.9708955,27.6382973 L15.3333333,27.6382973 L15.5999997,23.0294809 L28,23.0294809 L28.5843333,27.071 L37.3785375,27.0714286 L37.3785375,32.1612771 L36.840947,32.1612771 C36.5517317,29.4062799 36.1800025,28.1246856 32.9861317,28.1246856 L32.9861317,28.1246856 L30.1639901,28.1246856 C29.3396848,28.1246856 29.3005115,28.2298716 29.3005115,28.9333554 L29.3005115,34.0975404 L31.2475058,34.0975404 C33.1945001,34.0975404 32.9861317,33.3906907 32.9861317,31.6614334 L32.9861317,31.6614334 L33.7120872,31.6614334 L33.7120872,37.9285714 L32.9861317,37.9285714 C32.9861317,36.169862 33.1945001,35.2142857 31.2475058,35.2142857 L31.2475058,35.2142857 L29.3005115,35.2142857 L29.30107,40.0845585 C29.3078369,40.6932441 29.3881733,40.7864192 30.1639901,40.7864192 L30.1639901,40.7864192 L33.0286388,40.7864192 C36.3785232,40.7864192 36.4069348,40.4063187 36.7468025,37.920365 C36.3426464,37.910723 35.9038507,37.9026241 35.5943548,37.9285714 L35.5943548,37.9285714 L35.5943548,36.7103599 C35.9885878,36.7103599 37.3296468,36.6877239 38.2156292,35.3926742 L38.2156292,35.3926742 L41.8062334,30.0971245 L38.2156292,24.8639206 C37.7597192,24.2168317 36.9979243,24.0653656 35.8644003,24.0653656 L35.8644003,24.0653656 L35.8644003,23 C36.3628175,23.0395475 37.3946577,23.0395475 37.9289143,23.0395475 L38.2385728,23.0394322 C38.8903006,23.0387404 39.7127859,23.0338978 40.2793098,23 L40.2793098,23 L40.2793098,24.0653656 C39.3874931,24.0653656 39.8366392,24.4002356 39.8366392,24.5879042 C39.8366392,24.6501575 42.5880316,28.9333554 42.5880316,28.9333554 L42.5880316,28.9333554 L44.7367265,25.7142857 C44.8834179,25.507305 45.3333333,24.8370014 45.3333333,24.5879042 C45.3333333,24.252159 45.3976711,24.1276146 44.7367265,24.0653656 L44.7367265,24.0653656 L44.7367265,23 C45.2509797,23.0395475 46.0977889,23.0395475 46.7779033,23.0395475 L47.0467641,23.0393644 C47.5257606,23.0384489 48.1360485,23.0329562 48.5298648,23 L48.5298648,23 Z"/>
  </g>
</svg>
