<svg xmlns="http://www.w3.org/2000/svg" xmlns:xlink="http://www.w3.org/1999/xlink" width="64" height="64" viewBox="0 0 64 64">
  <defs>
    <rect id="text-x-install-b" width="42" height="52" x="0" y="0"/>
    <filter id="text-x-install-a" width="109.5%" height="107.7%" x="-4.8%" y="-1.9%" filterUnits="objectBoundingBox">
      <feOffset dy="1" in="SourceAlpha" result="shadowOffsetOuter1"/>
      <feGaussianBlur in="shadowOffsetOuter1" result="shadowBlurOuter1" stdDeviation=".5"/>
      <feColorMatrix in="shadowBlurOuter1" values="0 0 0 0 0   0 0 0 0 0   0 0 0 0 0  0 0 0 0.2 0"/>
    </filter>
  </defs>
  <g fill="none" fill-rule="evenodd">
    <g transform="translate(11 6)">
      <use fill="#000" filter="url(#text-x-install-a)" xlink:href="#text-x-install-b"/>
      <use fill="#F9FBFB" xlink:href="#text-x-install-b"/>
      <path fill="#000" fill-opacity=".2" fill-rule="nonzero" d="M43,-1 L-1,-1 L-1,53 L43,53 L43,-1 Z M42,0 L42,52 L0,52 L0,0 L42,0 Z"/>
    </g>
    <path fill="#2A4052" fill-opacity=".6" d="M43.25,31.5 C43.25,25.0106542 37.9893458,19.75 31.5,19.75 C25.0106542,19.75 19.75,25.0106542 19.75,31.5 C19.75,37.9893458 25.0106542,43.25 31.5,43.25 C37.9893458,43.25 43.25,37.9893458 43.25,31.5 Z M31.5,21.25 C37.1609187,21.25 41.75,25.8390813 41.75,31.5 C41.75,37.1609187 37.1609187,41.75 31.5,41.75 C25.8390813,41.75 21.25,37.1609187 21.25,31.5 C21.25,25.8390813 25.8390813,21.25 31.5,21.25 Z M34,25 L29,25 L29,33 L25,33 L31.5,40 L38,33 L34,33 L34,25 Z"/>
  </g>
</svg>
