<svg xmlns="http://www.w3.org/2000/svg" xmlns:xlink="http://www.w3.org/1999/xlink" width="64" height="64" viewBox="0 0 64 64">
  <defs>
    <rect id="text-x-javascript-b" width="42" height="52" x="0" y="0"/>
    <filter id="text-x-javascript-a" width="109.5%" height="107.7%" x="-4.8%" y="-1.9%" filterUnits="objectBoundingBox">
      <feOffset dy="1" in="SourceAlpha" result="shadowOffsetOuter1"/>
      <feGaussianBlur in="shadowOffsetOuter1" result="shadowBlurOuter1" stdDeviation=".5"/>
      <feColorMatrix in="shadowBlurOuter1" values="0 0 0 0 0   0 0 0 0 0   0 0 0 0 0  0 0 0 0.2 0"/>
    </filter>
  </defs>
  <g fill="none" fill-rule="evenodd">
    <g transform="translate(11 6)">
      <use fill="#000" filter="url(#text-x-javascript-a)" xlink:href="#text-x-javascript-b"/>
      <use fill="#F9FBFB" xlink:href="#text-x-javascript-b"/>
      <path fill="#000" fill-opacity=".2" fill-rule="nonzero" d="M43,-1 L-1,-1 L-1,53 L43,53 L43,-1 Z M42,0 L42,52 L0,52 L0,0 L42,0 Z"/>
    </g>
    <path fill="#2A4052" fill-opacity=".6" d="M29,24 L29,35.6540248 C29,38.5937165 27.5,41 24.037037,41 C24.0096618,41.273352 24.0025205,40.0499908 24.0006575,39.393113 L24,39 C25.962963,39 27,37.1278843 27,35.6540248 L27,35.6540248 L27,24 L29,24 Z M35.9335938,24 C36.9101611,24 37.7675744,24.1406236 38.5058594,24.421875 C39.2441443,24.7031264 39.7890607,25.083982 40.140625,25.5644531 C40.4921893,26.0449243 40.7343743,26.687496 40.8671875,27.4921875 L38.8046875,27.7734375 C38.710937,27.1328093 38.4394554,26.6328143 37.9902344,26.2734375 C37.5410134,25.9140607 36.9062541,25.734375 36.0859375,25.734375 C35.1171827,25.734375 34.4257833,25.8945296 34.0117188,26.2148437 C33.5976542,26.5351579 33.390625,26.9101541 33.390625,27.3398437 C33.390625,27.6132826 33.4765616,27.8593739 33.6484375,28.078125 C33.8203134,28.3046886 34.0898419,28.4921868 34.4570312,28.640625 C34.6679698,28.7187504 35.2890573,28.8984361 36.3203125,29.1796875 C37.8125075,29.578127 38.8535127,29.9042956 39.4433594,30.1582031 C40.0332061,30.4121106 40.4960921,30.7812476 40.8320312,31.265625 C41.1679704,31.7500024 41.3359375,32.3515589 41.3359375,33.0703125 C41.3359375,33.773441 41.1308614,34.4355438 40.7207031,35.0566406 C40.3105448,35.6777375 39.7187539,36.1582014 38.9453125,36.4980469 C38.1718711,36.8378923 37.2968799,37.0078125 36.3203125,37.0078125 C34.7031169,37.0078125 33.4707074,36.6718784 32.6230469,36 C31.7753864,35.3281216 31.2343762,34.3320379 31,33.0117187 L33.0859375,32.6835937 C33.2031256,33.5195354 33.5292942,34.160154 34.0644531,34.6054687 C34.5996121,35.0507835 35.3476514,35.2734375 36.3085938,35.2734375 C37.2773486,35.2734375 37.9960914,35.0761738 38.4648438,34.6816406 C38.9335961,34.2871074 39.1679688,33.8242214 39.1679688,33.2929687 C39.1679688,32.8164039 38.9609396,32.4414076 38.546875,32.1679687 C38.2578111,31.9804678 37.5390682,31.7421889 36.390625,31.453125 C34.8437423,31.062498 33.7714874,30.7246108 33.1738281,30.4394531 C32.5761689,30.1542954 32.1230484,29.7597681 31.8144531,29.2558594 C31.5058578,28.7519506 31.3515625,28.1953155 31.3515625,27.5859375 C31.3515625,27.0312472 31.4785144,26.5175805 31.7324219,26.0449219 C31.9863294,25.5722633 32.3320291,25.1796891 32.7695312,24.8671875 C33.0976579,24.6249988 33.544919,24.4199227 34.1113281,24.2519531 C34.6777372,24.0839835 35.285153,24 35.9335938,24 Z"/>
  </g>
</svg>
