<svg xmlns="http://www.w3.org/2000/svg" xmlns:xlink="http://www.w3.org/1999/xlink" width="64" height="64" viewBox="0 0 64 64">
  <defs>
    <rect id="text-x-c-b" width="42" height="52" x="0" y="0"/>
    <filter id="text-x-c-a" width="109.5%" height="107.7%" x="-4.8%" y="-1.9%" filterUnits="objectBoundingBox">
      <feOffset dy="1" in="SourceAlpha" result="shadowOffsetOuter1"/>
      <feGaussianBlur in="shadowOffsetOuter1" result="shadowBlurOuter1" stdDeviation=".5"/>
      <feColorMatrix in="shadowBlurOuter1" values="0 0 0 0 0   0 0 0 0 0   0 0 0 0 0  0 0 0 0.2 0"/>
    </filter>
  </defs>
  <g fill="none" fill-rule="evenodd">
    <g transform="translate(11 6)">
      <use fill="#000" filter="url(#text-x-c-a)" xlink:href="#text-x-c-b"/>
      <use fill="#F9FBFB" xlink:href="#text-x-c-b"/>
      <path fill="#000" fill-opacity=".2" fill-rule="nonzero" d="M43,-1 L-1,-1 L-1,53 L43,53 L43,-1 Z M42,0 L42,52 L0,52 L0,0 L42,0 Z"/>
    </g>
    <path fill="#2A4052" fill-opacity=".6" d="M31.7866667,22.6746667 C29.3226667,22.6746667 27.3706667,23.5386667 25.9626667,25.2986667 C24.6506667,26.8986667 24.0106667,28.9466667 24.0106667,31.4746667 C24.0106667,34.0026667 24.6506667,36.0506667 25.9626667,37.6186667 C27.3386667,39.2826667 29.2586667,40.1146667 31.7546667,40.1146667 C33.8026667,40.1146667 35.4346667,39.5706667 36.6826667,38.5146667 C37.9626667,37.4266667 38.7626667,35.7946667 39.1466667,33.6826667 L36.5866667,33.6826667 C36.2026667,36.5306667 34.5706667,37.9706667 31.7546667,37.9706667 C30.0906667,37.9706667 28.8106667,37.3626667 27.9466667,36.2106667 C27.0506667,35.0586667 26.6346667,33.4586667 26.6346667,31.4426667 C26.6346667,29.4266667 27.0826667,27.8266667 27.9786667,26.6426667 C28.9066667,25.4266667 30.1866667,24.8186667 31.7866667,24.8186667 C33.0986667,24.8186667 34.1546667,25.1066667 34.9866667,25.7466667 C35.7866667,26.3866667 36.2986667,27.3466667 36.5226667,28.6266667 L39.0506667,28.6266667 C38.7626667,26.6106667 37.9946667,25.1066667 36.7146667,24.1146667 C35.4666667,23.1546667 33.8346667,22.6746667 31.7866667,22.6746667 L31.7866667,22.6746667 Z"/>
  </g>
</svg>
