<svg xmlns="http://www.w3.org/2000/svg" xmlns:xlink="http://www.w3.org/1999/xlink" width="64" height="64" viewBox="0 0 64 64">
  <defs>
    <rect id="text-x-source-b" width="42" height="52" x="0" y="0"/>
    <filter id="text-x-source-a" width="109.5%" height="107.7%" x="-4.8%" y="-1.9%" filterUnits="objectBoundingBox">
      <feOffset dy="1" in="SourceAlpha" result="shadowOffsetOuter1"/>
      <feGaussianBlur in="shadowOffsetOuter1" result="shadowBlurOuter1" stdDeviation=".5"/>
      <feColorMatrix in="shadowBlurOuter1" values="0 0 0 0 0   0 0 0 0 0   0 0 0 0 0  0 0 0 0.2 0"/>
    </filter>
  </defs>
  <g fill="none" fill-rule="evenodd">
    <g transform="translate(11 6)">
      <use fill="#000" filter="url(#text-x-source-a)" xlink:href="#text-x-source-b"/>
      <use fill="#F9FBFB" xlink:href="#text-x-source-b"/>
      <path fill="#000" fill-opacity=".2" fill-rule="nonzero" d="M43,-1 L-1,-1 L-1,53 L43,53 L43,-1 Z M42,0 L42,52 L0,52 L0,0 L42,0 Z"/>
    </g>
    <path fill="#2A4052" fill-opacity=".6" d="M22,22 L22,23 L17,23 L17,22 L22,22 Z M32,22 L32,23 L26,23 L26,22 L32,22 Z M47,22 L47,23 L42,23 L42,22 L47,22 Z M34,37 L34,38 L32,38 L32,37 L34,37 Z M28,27 L28,28 L21,28 L21,27 L28,27 Z M39,27 L39,28 L32,28 L32,27 L39,27 Z M47,32 L47,33 L39,33 L39,32 L47,32 Z M35,32 L35,33 L28,33 L28,32 L35,32 Z M20,27 L20,28 L17,28 L17,27 L20,27 Z M25,22 L25,23 L23,23 L23,22 L25,22 Z M31,27 L31,28 L29,28 L29,27 L31,27 Z M47,37 L47,38 L38,38 L38,37 L47,37 Z M37,37 L37,38 L35,38 L35,37 L37,37 Z M38,32 L38,33 L36,33 L36,32 L38,32 Z M27,32 L27,33 L25,33 L25,32 L27,32 Z M24,32 L24,33 L17,33 L17,32 L24,32 Z M31,37 L31,38 L17,38 L17,37 L31,37 Z M43,27 L43,28 L40,28 L40,27 L43,27 Z M47,27 L47,28 L44,28 L44,27 L47,27 Z M28,42 L28,43 L21,43 L21,42 L28,42 Z M39,42 L39,43 L32,43 L32,42 L39,42 Z M20,42 L20,43 L17,43 L17,42 L20,42 Z M31,42 L31,43 L29,43 L29,42 L31,42 Z M43,42 L43,43 L40,43 L40,42 L43,42 Z M47,42 L47,43 L44,43 L44,42 L47,42 Z M35,22 L35,23 L33,23 L33,22 L35,22 Z M38,22 L38,23 L36,23 L36,22 L38,22 Z M41,22 L41,23 L39,23 L39,22 L41,22 Z"/>
  </g>
</svg>
