<svg xmlns="http://www.w3.org/2000/svg" xmlns:xlink="http://www.w3.org/1999/xlink" width="64" height="64" viewBox="0 0 64 64">
  <defs>
    <rect id="x-content-software-b" width="42" height="52" x="0" y="0"/>
    <filter id="x-content-software-a" width="109.5%" height="107.7%" x="-4.8%" y="-1.9%" filterUnits="objectBoundingBox">
      <feOffset dy="1" in="SourceAlpha" result="shadowOffsetOuter1"/>
      <feGaussianBlur in="shadowOffsetOuter1" result="shadowBlurOuter1" stdDeviation=".5"/>
      <feColorMatrix in="shadowBlurOuter1" values="0 0 0 0 0   0 0 0 0 0   0 0 0 0 0  0 0 0 0.2 0"/>
    </filter>
  </defs>
  <g fill="none" fill-rule="evenodd">
    <g transform="translate(11 6)">
      <use fill="#000" filter="url(#x-content-software-a)" xlink:href="#x-content-software-b"/>
      <use fill="#F9FBFB" xlink:href="#x-content-software-b"/>
      <path fill="#000" fill-opacity=".2" fill-rule="nonzero" d="M43,-1 L-1,-1 L-1,53 L43,53 L43,-1 Z M42,0 L42,52 L0,52 L0,0 L42,0 Z"/>
    </g>
    <path fill="#2A4052" fill-opacity=".6" d="M35,21 C37.209139,21 39,22.790861 39,25 L39,25 L39,26 L42,26 C42.5522847,26 43,26.4477153 43,27 L43,41 C43,41.5522847 42.5522847,42 42,42 L22,42 C21.4477153,42 21,41.5522847 21,41 L21,27 C21,26.4477153 21.4477153,26 22,26 L25,26 L25,25 C25,22.8578046 26.6839685,21.1089211 28.8003597,21.0048953 L29,21 Z M34.0009599,31 L30.0009599,31 L30.0009599,36 L27.5715145,36 L32,39 L36.4284855,36 L34.0009599,36 L34.0009599,31 Z M35,23 L29,23 L28.8507377,23.0054857 C27.8158778,23.0818349 27,23.9456382 27,25 L27,25 L27,26 L37,26 L37,25 L36.9945143,24.8507377 C36.9181651,23.8158778 36.0543618,23 35,23 L35,23 Z"/>
  </g>
</svg>
