<svg xmlns="http://www.w3.org/2000/svg" xmlns:xlink="http://www.w3.org/1999/xlink" width="64" height="64" viewBox="0 0 64 64">
  <defs>
    <rect id="x-office-presentation-b" width="42" height="52" x="0" y="0"/>
    <filter id="x-office-presentation-a" width="109.5%" height="107.7%" x="-4.8%" y="-1.9%" filterUnits="objectBoundingBox">
      <feOffset dy="1" in="SourceAlpha" result="shadowOffsetOuter1"/>
      <feGaussianBlur in="shadowOffsetOuter1" result="shadowBlurOuter1" stdDeviation=".5"/>
      <feColorMatrix in="shadowBlurOuter1" values="0 0 0 0 0   0 0 0 0 0   0 0 0 0 0  0 0 0 0.2 0"/>
    </filter>
  </defs>
  <g fill="none" fill-rule="evenodd">
    <g transform="translate(11 6)">
      <use fill="#000" filter="url(#x-office-presentation-a)" xlink:href="#x-office-presentation-b"/>
      <use fill="#F9FBFB" xlink:href="#x-office-presentation-b"/>
      <path fill="#000" fill-opacity=".2" fill-rule="nonzero" d="M43,-1 L-1,-1 L-1,53 L43,53 L43,-1 Z M42,0 L42,52 L0,52 L0,0 L42,0 Z"/>
    </g>
    <path fill="#B36B61" d="M41.5012539,24 C42.3301581,24 43,24.6696578 43,25.5008717 L43,25.5008717 L43,39.4991283 C43,40.3274832 42.3283655,41 41.5012539,41 L41.5012539,41 L32.706,40.999 L36.8535534,45.1464466 C37.0271197,45.320013 37.0464049,45.5894374 36.9114088,45.7843055 L36.8535534,45.8535534 C36.6582912,46.0488155 36.3417088,46.0488155 36.1464466,45.8535534 L36.1464466,45.8535534 L32.525,42.232 L32.4999942,47.5024038 C32.4988141,47.7478609 32.3209596,47.9511566 32.0875095,47.9923707 L31.9975962,47.9999942 C31.721457,47.9986666 31.4986782,47.7737354 31.5000058,47.4975962 L31.5000058,47.4975962 L31.525,42.181 L27.8535534,45.8535534 C27.679987,46.0271197 27.4105626,46.0464049 27.2156945,45.9114088 L27.1464466,45.8535534 C26.9511845,45.6582912 26.9511845,45.3417088 27.1464466,45.1464466 L27.1464466,45.1464466 L31.293,40.999 L22.4987461,41 C21.7186009,41 21.0793553,40.4068084 21.0068494,39.6440327 L21,39.4991283 L21,25.5008717 C21,24.6725168 21.6716345,24 22.4987461,24 L22.4987461,24 Z M41.5012539,25 L22.4987461,25 C22.2242133,25 22,25.2245079 22,25.5008717 L22,25.5008717 L22,39.4991283 C22,39.7779959 22.2220651,40 22.4987461,40 L22.4987461,40 L41.5012539,40 C41.7757867,40 42,39.7754921 42,39.4991283 L42,39.4991283 L42,25.5008717 C42,25.2220041 41.7779349,25 41.5012539,25 L41.5012539,25 Z M25.5,28.5 C25.7761424,28.5 26,28.7238576 26,29 L26,29 L26,37 L38.5,37 C38.7761424,37 39,37.2238576 39,37.5 C39,37.7761424 38.7761424,38 38.5,38 L38.5,38 L25.5,38 C25.2238576,38 25,37.7761424 25,37.5 L25,37.5 L25,29 C25,28.7238576 25.2238576,28.5 25.5,28.5 Z M44.5,21 C44.7761424,21 45,21.2238576 45,21.5 C45,21.7761424 44.7761424,22 44.5,22 L44.5,22 L19.5,22 C19.2238576,22 19,21.7761424 19,21.5 C19,21.2238576 19.2238576,21 19.5,21 L19.5,21 Z M28,27 L30,27 L30,35 L28,35 L28,27 Z M32,29 L34,29 L34,35 L32,35 L32,29 Z M36,31 L38,31 L38,35 L36,35 L36,31 Z"/>
  </g>
</svg>
