<svg xmlns="http://www.w3.org/2000/svg" xmlns:xlink="http://www.w3.org/1999/xlink" width="96" height="96" viewBox="0 0 96 96">
  <defs>
    <filter id="computer-a" width="127.3%" height="132.4%" x="-13.6%" y="-16.2%" filterUnits="objectBoundingBox">
      <feOffset dy="2" in="SourceAlpha" result="shadowOffsetOuter1"/>
      <feGaussianBlur in="shadowOffsetOuter1" result="shadowBlurOuter1" stdDeviation="2"/>
      <feComposite in="shadowBlurOuter1" in2="SourceAlpha" operator="out" result="shadowBlurOuter1"/>
      <feColorMatrix in="shadowBlurOuter1" result="shadowMatrixOuter1" values="0 0 0 0 0   0 0 0 0 0   0 0 0 0 0  0 0 0 0.2 0"/>
      <feMerge>
        <feMergeNode in="shadowMatrixOuter1"/>
        <feMergeNode in="SourceGraphic"/>
      </feMerge>
    </filter>
    <linearGradient id="computer-b" x1="50%" x2="50%" y1="100%" y2="0%">
      <stop offset="0%" stop-color="#CFDAFC"/>
      <stop offset="100%" stop-color="#CDCFD2"/>
    </linearGradient>
    <polygon id="computer-c" points="37 64 51 64 51 73 37 73"/>
    <filter id="computer-d" width="128.6%" height="144.4%" x="-14.3%" y="-22.2%" filterUnits="objectBoundingBox">
      <feGaussianBlur in="SourceAlpha" result="shadowBlurInner1" stdDeviation="1"/>
      <feOffset dy="2" in="shadowBlurInner1" result="shadowOffsetInner1"/>
      <feComposite in="shadowOffsetInner1" in2="SourceAlpha" k2="-1" k3="1" operator="arithmetic" result="shadowInnerInner1"/>
      <feColorMatrix in="shadowInnerInner1" values="0 0 0 0 0.305544245   0 0 0 0 0.316030326   0 0 0 0 0.533769248  0 0 0 0.178130463 0"/>
    </filter>
    <linearGradient id="computer-e" x1="50%" x2="50%" y1="0%" y2="80.104%">
      <stop offset="0%" stop-color="#FFF"/>
      <stop offset="100%" stop-color="#EBF4FF"/>
    </linearGradient>
    <path id="computer-f" d="M30.5,71 L57.5,71 C58.3284271,71 59,71.6715729 59,72.5 C59,73.3284271 58.3284271,74 57.5,74 L30.5,74 C29.6715729,74 29,73.3284271 29,72.5 C29,71.6715729 29.6715729,71 30.5,71 Z"/>
    <filter id="computer-g" width="103.3%" height="133.3%" x="-1.7%" y="-16.7%" filterUnits="objectBoundingBox">
      <feOffset dy="-1" in="SourceAlpha" result="shadowOffsetInner1"/>
      <feComposite in="shadowOffsetInner1" in2="SourceAlpha" k2="-1" k3="1" operator="arithmetic" result="shadowInnerInner1"/>
      <feColorMatrix in="shadowInnerInner1" values="0 0 0 0 0   0 0 0 0 0   0 0 0 0 0  0 0 0 0.168651661 0"/>
    </filter>
    <linearGradient id="computer-h" x1="39.599%" x2="75.302%" y1="23.554%" y2="76.446%">
      <stop offset="0%" stop-color="#D7E4FF"/>
      <stop offset="100%" stop-color="#F4F9FF"/>
    </linearGradient>
    <rect id="computer-i" width="88" height="64" x="0" y="0" rx="9.375"/>
    <filter id="computer-j" width="101.1%" height="101.6%" x="-.6%" y="-.8%" filterUnits="objectBoundingBox">
      <feOffset dy="-1" in="SourceAlpha" result="shadowOffsetInner1"/>
      <feComposite in="shadowOffsetInner1" in2="SourceAlpha" k2="-1" k3="1" operator="arithmetic" result="shadowInnerInner1"/>
      <feColorMatrix in="shadowInnerInner1" result="shadowMatrixInner1" values="0 0 0 0 0   0 0 0 0 0   0 0 0 0 0  0 0 0 0.12 0"/>
      <feOffset dy="1" in="SourceAlpha" result="shadowOffsetInner2"/>
      <feComposite in="shadowOffsetInner2" in2="SourceAlpha" k2="-1" k3="1" operator="arithmetic" result="shadowInnerInner2"/>
      <feColorMatrix in="shadowInnerInner2" result="shadowMatrixInner2" values="0 0 0 0 1   0 0 0 0 1   0 0 0 0 1  0 0 0 1 0"/>
      <feMerge>
        <feMergeNode in="shadowMatrixInner1"/>
        <feMergeNode in="shadowMatrixInner2"/>
      </feMerge>
    </filter>
    <linearGradient id="computer-l" x1="46.826%" x2="46.826%" y1=".565%" y2="99.664%">
      <stop offset="0%" stop-color="#4F5D73"/>
      <stop offset="100%" stop-color="#313A46"/>
    </linearGradient>
    <rect id="computer-k" width="82" height="58" x="0" y=".375" rx="6.75"/>
    <linearGradient id="computer-n" x1="0%" x2="100%" y1="50%" y2="50%">
      <stop offset="0%" stop-color="#A09AD3"/>
      <stop offset="49.618%" stop-color="#988DD9"/>
      <stop offset="100%" stop-color="#1654D2"/>
    </linearGradient>
  </defs>
  <g fill="none" fill-rule="evenodd" filter="url(#computer-a)" transform="translate(4 11)">
    <use fill="url(#computer-b)" xlink:href="#computer-c"/>
    <use fill="#000" filter="url(#computer-d)" xlink:href="#computer-c"/>
    <use fill="url(#computer-e)" xlink:href="#computer-f"/>
    <use fill="#000" filter="url(#computer-g)" xlink:href="#computer-f"/>
    <use fill="url(#computer-h)" xlink:href="#computer-i"/>
    <use fill="#000" filter="url(#computer-j)" xlink:href="#computer-i"/>
    <g transform="translate(3 2.625)">
      <mask id="computer-m" fill="#fff">
        <use xlink:href="#computer-k"/>
      </mask>
      <use fill="url(#computer-l)" xlink:href="#computer-k"/>
      <g mask="url(#computer-m)">
        <g transform="translate(-1.813 -11.625)">
          <path fill="#1C4186" d="M63.0699376,8.0625 C55.7142021,25.08776 52.7460983,34.5392831 54.1656262,36.4170691 C56.2949181,39.2337481 55.5206301,46.3693351 52.6170503,50.3126857 C49.7134705,54.2560364 40.6155872,56.8849368 39.6477273,60.0771731 C38.6798673,63.2694094 14.2897971,65.5227526 11.9669333,68.151653 C9.64406945,70.7805535 13.7090812,69.8416605 13.7090812,70.7805535 C13.7090812,71.4064822 37.3893874,71.4064822 84.75,70.7805535 L84.75,8.0625 L63.0699376,8.0625 Z"/>
          <path fill="#E080A9" d="M64.1745364,8.44360965 C67.7895838,8.44360965 66.9503763,13.4472302 61.656914,23.4544712 C53.7167206,38.4653328 51.3927615,44.0944059 49.0688025,48.0347571 C46.7448434,51.9751083 36.0933644,67.9241487 31.6391095,69.2375991 C27.1848547,70.5510495 14.7904064,69.6128706 12.2727841,69.6128706 C10.5943692,69.6128706 10.9816957,52.2878346 13.4347636,17.6377624 L30.0898035,0 L64.1745364,8.44360965 Z"/>
          <path fill="#101852" d="M30.1875,6.9375 C27.7322635,11.1875 27.0215372,17.125 28.0553209,24.75 C29.6059966,36.1875 19.3327703,48.1875 21.4649493,56.8125 C23.5971284,65.4375 12.5625,73.875 12.5625,73.875 C12.5625,73.875 8.875,71.9375 1.5,68.0625 L0,15.75 L6.34586149,5.4375 L30.1875,6.9375 Z"/>
          <path fill="#7A6C9F" d="M58.507826,22.6320991 C54.1377903,25.8412816 51.9527725,29.4222485 51.9527725,33.375 C51.9527725,41.0625 48.0862539,49.6875 41.7064982,51.75 C35.3267426,53.8125 28.753661,53.25 27.2070535,59.25 C25.6604461,65.25 21.0206238,60.375 18.5073867,62.8125 C15.9941496,65.25 16.5873889,70.5 13.6875,71.4375 C11.7542407,72.0625 25.0248673,71.8125 53.4993799,70.6875 C55.3037553,59.0625 59.5569257,50.875 66.2588913,46.125 C76.3118396,39 57.1725726,36.9375 65.0989357,30.75 C70.3831778,26.625 70.7460325,19.0625 66.1875,8.0625 L64.6622486,13.6662928 C63.6828808,17.2644957 61.5135218,20.4248343 58.507826,22.6320991 Z"/>
        </g>
      </g>
      <g mask="url(#computer-m)">
        <g transform="translate(3 46.375)">
          <rect width="76" height="9" fill="url(#computer-n)" rx="1.875"/>
          <rect width="5" height="5" x="25" y="2" fill="#75FFAC" rx="1.3"/>
          <rect width="5" height="5" x="11" y="2" fill="#FF7D52" rx="1.3"/>
          <rect width="5" height="5" x="32" y="2" fill="#FFB656" rx="1.3"/>
          <rect width="5" height="5" x="46" y="2" fill="#FF796E" rx="1.3"/>
          <rect width="5" height="5" x="68" y="2" fill="#000" fill-opacity=".3" rx="1.3"/>
          <rect width="5" height="5" x="61" y="2" fill="#000" fill-opacity=".3" rx="1.3"/>
          <circle cx="6.5" cy="4.5" r="2.5" fill="#326CFF"/>
          <circle cx="41.5" cy="4.5" r="2.5" fill="#482AC5"/>
        </g>
      </g>
    </g>
  </g>
</svg>
