<svg xmlns="http://www.w3.org/2000/svg" xmlns:xlink="http://www.w3.org/1999/xlink" width="96" height="96" viewBox="0 0 96 96">
  <defs>
    <rect id="application-epub+zip-b" width="64" height="78" x="0" y="0"/>
    <filter id="application-epub+zip-a" width="110.9%" height="109%" x="-5.5%" y="-3.2%" filterUnits="objectBoundingBox">
      <feOffset dy="1" in="SourceAlpha" result="shadowOffsetOuter1"/>
      <feGaussianBlur in="shadowOffsetOuter1" result="shadowBlurOuter1" stdDeviation="1"/>
      <feColorMatrix in="shadowBlurOuter1" values="0 0 0 0 0   0 0 0 0 0   0 0 0 0 0  0 0 0 0.2 0"/>
    </filter>
  </defs>
  <g fill="none" fill-rule="evenodd">
    <g transform="translate(16 10)">
      <use fill="#000" filter="url(#application-epub+zip-a)" xlink:href="#application-epub+zip-b"/>
      <use fill="#F9FBFB" xlink:href="#application-epub+zip-b"/>
      <path fill="#000" fill-opacity=".2" fill-rule="nonzero" d="M65,-1 L-1,-1 L-1,79 L65,79 L65,-1 Z M64,0 L64,78 L0,78 L0,0 L64,0 Z"/>
    </g>
    <polygon fill="#6198C4" points="52 50 55 48 58 50 58 36 62 36 62 68 40 68 40 36 36 36 36 68 62 68 62 70 34 70 34.071 34 35.929 34 62 34 62 36 52 36"/>
  </g>
</svg>
