<svg xmlns="http://www.w3.org/2000/svg" xmlns:xlink="http://www.w3.org/1999/xlink" width="96" height="96" viewBox="0 0 96 96">
  <defs>
    <rect id="application-vnd.wolfram.mathematica.package-b" width="64" height="78" x="0" y="0"/>
    <filter id="application-vnd.wolfram.mathematica.package-a" width="110.9%" height="109%" x="-5.5%" y="-3.2%" filterUnits="objectBoundingBox">
      <feOffset dy="1" in="SourceAlpha" result="shadowOffsetOuter1"/>
      <feGaussianBlur in="shadowOffsetOuter1" result="shadowBlurOuter1" stdDeviation="1"/>
      <feColorMatrix in="shadowBlurOuter1" values="0 0 0 0 0   0 0 0 0 0   0 0 0 0 0  0 0 0 0.2 0"/>
    </filter>
  </defs>
  <g fill="none" fill-rule="evenodd">
    <g transform="translate(16 10)">
      <use fill="#000" filter="url(#application-vnd.wolfram.mathematica.package-a)" xlink:href="#application-vnd.wolfram.mathematica.package-b"/>
      <use fill="#F9FBFB" xlink:href="#application-vnd.wolfram.mathematica.package-b"/>
      <path fill="#000" fill-opacity=".2" fill-rule="nonzero" d="M65,-1 L-1,-1 L-1,79 L65,79 L65,-1 Z M64,0 L64,78 L0,78 L0,0 L64,0 Z"/>
    </g>
    <path fill="#2A4052" fill-opacity=".6" d="M48.0000123,30 C47.3952855,30.0012047 46.7910035,30.032877 46.1894653,30.0949127 C45.6174779,30.1524613 45.0535776,30.2379228 44.4984511,30.3480378 C44.4738297,30.3515092 44.4492211,30.3551092 44.4246125,30.3587092 C43.9028027,30.4644592 43.3928318,30.6024473 42.8882827,30.752458 C42.8166812,30.7707666 42.7451981,30.7895123 42.6738306,30.808708 C42.1047682,30.985594 41.5474431,31.1864869 41.0039086,31.4169101 C40.4669171,31.644371 39.9412964,31.8977956 39.4289083,32.1762853 C38.4125021,32.7294434 37.4518059,33.3793271 36.5601578,34.1169106 C36.1151951,34.4840708 35.6881399,34.8724106 35.280472,35.2805838 C34.8917066,35.6700293 34.5210043,36.0770968 34.1695336,36.5005045 C34.1487822,36.5254216 34.1268736,36.5492974 34.1062508,36.5743431 C33.821996,36.926121 33.5510998,37.2884868 33.2941408,37.6606703 C33.2028679,37.7900543 33.1078484,37.9155452 33.0199223,38.0473901 C32.8245657,38.346464 32.6381551,38.6512863 32.4609386,38.9614534 C32.3361471,39.1750298 32.2079331,39.3857867 32.0917971,39.6048121 C31.9473214,39.8835974 31.8101652,40.1661164 31.68047,40.4520774 C31.5600114,40.7111964 31.4407241,40.9704826 31.332422,41.2360624 C31.2249748,41.5077866 31.1241684,41.782086 31.0300798,42.0587178 C30.9277112,42.3497817 30.8258479,42.6399958 30.7382817,42.9376245 C30.6643917,43.1985551 30.5964031,43.4611212 30.5343751,43.7251234 C30.4575022,44.0385214 30.3800791,44.3512972 30.3199218,44.6708281 C30.2664618,44.973124 30.2207418,45.2767391 30.1828157,45.5813737 C30.1445272,45.8639378 30.1058143,46.1456456 30.0808586,46.4321542 C30.0311143,46.9533623 30.00414,47.4764925 30,48.0000522 C30.0012034,48.604779 30.0328757,49.2090597 30.0949114,49.8105979 C30.4043906,52.8867175 31.4942947,55.7353003 33.160537,58.1602081 C33.175837,58.1824766 33.1908542,58.2048095 33.2062442,58.2270009 C33.3352155,58.4122878 33.4676608,58.5951318 33.6035094,58.7754366 C33.6044647,58.7696509 33.6060808,58.763608 33.6071094,58.7577966 C36.8940848,63.1425138 42.1150308,66.0000465 48,66.0000465 C51.3803422,66.0000465 54.5364217,65.0456979 57.2425807,63.4160625 L57.2461807,63.4196625 C57.282605,63.3951824 57.3189265,63.3705739 57.3551708,63.3458239 C57.7845056,63.082957 58.2019822,62.8059318 58.6067329,62.509104 C58.6999729,62.4408583 58.7925572,62.3717113 58.8844678,62.301681 C59.2398663,62.0304338 59.5840546,61.7472526 59.9180614,61.4509005 C60.0535101,61.3298891 60.187119,61.2068218 60.3188417,61.0817603 C60.5971025,60.8195543 60.866254,60.5488831 61.1274366,60.2696503 C61.2829296,60.1049618 61.4352997,59.9373535 61.584467,59.7669153 C61.8298392,59.4841032 62.0634509,59.1928232 62.2911072,58.8950415 C62.4157316,58.7342294 62.5376276,58.5713153 62.6567323,58.4063697 C62.8959061,58.0706465 63.1190637,57.7249654 63.3352476,57.3727761 C63.4251705,57.2298792 63.513067,57.0857249 63.5989283,56.9403543 C63.8130255,56.5685089 64.0089054,56.1856283 64.1965837,55.7977758 C64.2701138,55.6499379 64.3416033,55.5010958 64.4110371,55.3512908 C64.5792831,54.9776198 64.7286561,54.5952984 64.8715839,54.2087136 C64.9413724,54.025831 65.0081833,53.8418221 65.071974,53.6567602 C65.1960069,53.28393 65.3026492,52.9043202 65.4024438,52.5212133 C65.4548495,52.3286595 65.504041,52.1352482 65.5500078,51.941059 C65.631445,51.5788977 65.6947639,51.2106266 65.7539132,50.8406687 C65.7952489,50.5976905 65.8315832,50.3538895 65.8629032,50.1094186 C65.9002146,49.7924012 65.9197061,49.4714187 65.9402518,49.1496532 C65.9724204,48.7671853 65.9923489,48.3837865 66.0000118,48.0000445 C66.0000118,47.3931474 65.9676632,46.7952554 65.9086103,46.2035593 L65.9050103,46.1895193 C65.8474618,45.6175319 65.7620003,45.0536316 65.6518853,44.4985038 C65.6469996,44.4742938 65.6463567,44.4488624 65.6412139,44.4246652 C65.5354638,43.9028567 65.3974758,43.3928858 65.2474638,42.8883367 C65.2272138,42.8202195 65.2157709,42.7486926 65.1947238,42.6809162 L65.1876524,42.6563076 C65.0119903,42.0931467 64.8110949,41.5420856 64.5829654,41.0039626 C64.3555045,40.4669711 64.1020811,39.9413517 63.8235915,39.4289636 C63.2704334,38.4125574 62.6205497,37.4518612 61.8829662,36.5602131 C61.515806,36.1152491 61.1274662,35.6881939 60.719293,35.280526 C60.3298475,34.8917606 59.92278,34.5210583 59.4993723,34.1695876 C59.4794952,34.1519605 59.4595666,34.1343848 59.4396123,34.1168476 C59.4351123,34.113119 59.430098,34.1100333 59.4255723,34.1061762 C59.0737944,33.8219214 58.7114286,33.5510265 58.3392451,33.2940675 C58.2098611,33.2027946 58.0843702,33.1077739 57.9525253,33.0198477 C57.6534848,32.8244975 57.3486946,32.6380921 57.0385623,32.4608782 C56.8249858,32.3360867 56.6142289,32.2078714 56.3952023,32.0917354 C56.116417,31.9472596 55.8338979,31.8101035 55.547937,31.6804083 C55.288818,31.5599497 55.0295318,31.4406637 54.7639533,31.3323602 C54.4922689,31.2249388 54.218008,31.1241504 53.9414174,31.0300798 C53.6503548,30.9277112 53.3601407,30.8258479 53.062512,30.7382817 C52.8015814,30.6643917 52.539014,30.5964044 52.2750118,30.5343764 C51.9616138,30.4575035 51.6488393,30.3800804 51.3293084,30.3199218 C51.0270112,30.2664618 50.7233961,30.2207418 50.4187615,30.1828157 C50.1361974,30.1445272 49.8544909,30.1058143 49.567981,30.0808586 C49.0467498,30.0311143 48.5235964,30.00414 48.0000123,30 L48.0000123,30 Z M45.2648565,32.5980472 L47.6963664,38.307422 L51.8571495,34.7742193 L51.8571495,44.6460948 L61.5000122,52.5000003 L58.5363413,54.4708065 L50.2992312,54.3864251 L54.9117307,60.6421835 C52.8615946,61.7620254 50.5083912,62.4000034 48.0000123,62.4000034 C41.9997086,62.4000034 36.8798353,58.7603127 34.7109506,53.5617228 C35.8461761,49.1757237 37.5417455,44.9411496 39.970324,42.5789089 C41.0063682,38.7661726 43.0281028,35.610313 45.2648565,32.5980472 L45.2648565,32.5980472 Z M48.1287702,46.2000004 L48.1300739,47.7328126 L51.599995,48.0000007 C51.1535512,46.9208337 50.1828406,46.4237392 48.1287702,46.2000004 L48.1287702,46.2000004 Z"/>
  </g>
</svg>
