<svg xmlns="http://www.w3.org/2000/svg" xmlns:xlink="http://www.w3.org/1999/xlink" width="96" height="96" viewBox="0 0 96 96">
  <defs>
    <rect id="application-x-uml-b" width="64" height="78" x="0" y="0"/>
    <filter id="application-x-uml-a" width="110.9%" height="109%" x="-5.5%" y="-3.2%" filterUnits="objectBoundingBox">
      <feOffset dy="1" in="SourceAlpha" result="shadowOffsetOuter1"/>
      <feGaussianBlur in="shadowOffsetOuter1" result="shadowBlurOuter1" stdDeviation="1"/>
      <feColorMatrix in="shadowBlurOuter1" values="0 0 0 0 0   0 0 0 0 0   0 0 0 0 0  0 0 0 0.2 0"/>
    </filter>
  </defs>
  <g fill="none" fill-rule="evenodd">
    <g transform="translate(16 10)">
      <use fill="#000" filter="url(#application-x-uml-a)" xlink:href="#application-x-uml-b"/>
      <use fill="#F9FBFB" xlink:href="#application-x-uml-b"/>
      <path fill="#000" fill-opacity=".2" fill-rule="nonzero" d="M65,-1 L-1,-1 L-1,79 L65,79 L65,-1 Z M64,0 L64,78 L0,78 L0,0 L64,0 Z"/>
    </g>
    <path fill="#2A4052" fill-opacity=".6" d="M32,32 L32,42 L40,42 L40,48 L40,50 L52,50 L52,54 L58,54 L58,62 L48,62 L48,58 L32,58 L32,68 L48,68 L48,64 L60,64 L60,62 L60,54 L68,54 L68,44 L52,44 L52,48 L42,48 L42,42 L48,42 L48,32 L32,32 L32,32 Z M34,34 L46,34 L46,40 L34,40 L34,34 L34,34 Z M54,46 L66,46 L66,52 L54,52 L54,46 L54,46 Z M34,60 L46,60 L46,66 L34,66 L34,60 L34,60 Z"/>
  </g>
</svg>
