<svg xmlns="http://www.w3.org/2000/svg" xmlns:xlink="http://www.w3.org/1999/xlink" width="96" height="96" viewBox="0 0 96 96">
  <defs>
    <rect id="application-x-tiled-b" width="64" height="78" x="0" y="0"/>
    <filter id="application-x-tiled-a" width="110.9%" height="109%" x="-5.5%" y="-3.2%" filterUnits="objectBoundingBox">
      <feOffset dy="1" in="SourceAlpha" result="shadowOffsetOuter1"/>
      <feGaussianBlur in="shadowOffsetOuter1" result="shadowBlurOuter1" stdDeviation="1"/>
      <feColorMatrix in="shadowBlurOuter1" values="0 0 0 0 0   0 0 0 0 0   0 0 0 0 0  0 0 0 0.2 0"/>
    </filter>
  </defs>
  <g fill="none" fill-rule="evenodd">
    <g transform="translate(16 10)">
      <use fill="#000" filter="url(#application-x-tiled-a)" xlink:href="#application-x-tiled-b"/>
      <use fill="#F9FBFB" xlink:href="#application-x-tiled-b"/>
      <path fill="#000" fill-opacity=".2" fill-rule="nonzero" d="M65,-1 L-1,-1 L-1,79 L65,79 L65,-1 Z M64,0 L64,78 L0,78 L0,0 L64,0 Z"/>
    </g>
    <path stroke="#9C80E0" stroke-width="2" d="M46,54 L46,66 L34,66 L34,54 L46,54 Z M52,54 L64,54 L64,66 L52,66 L52,54 Z M64,36 L64,48 L52,48 L52,36 L64,36 Z"/>
  </g>
</svg>
