<svg xmlns="http://www.w3.org/2000/svg" xmlns:xlink="http://www.w3.org/1999/xlink" width="96" height="96" viewBox="0 0 96 96">
  <defs>
    <rect id="application-vnd.wolfram.cdf-b" width="64" height="78" x="0" y="0"/>
    <filter id="application-vnd.wolfram.cdf-a" width="110.9%" height="109%" x="-5.5%" y="-3.2%" filterUnits="objectBoundingBox">
      <feOffset dy="1" in="SourceAlpha" result="shadowOffsetOuter1"/>
      <feGaussianBlur in="shadowOffsetOuter1" result="shadowBlurOuter1" stdDeviation="1"/>
      <feColorMatrix in="shadowBlurOuter1" values="0 0 0 0 0   0 0 0 0 0   0 0 0 0 0  0 0 0 0.2 0"/>
    </filter>
  </defs>
  <g fill="none" fill-rule="evenodd">
    <g transform="translate(16 10)">
      <use fill="#000" filter="url(#application-vnd.wolfram.cdf-a)" xlink:href="#application-vnd.wolfram.cdf-b"/>
      <use fill="#F9FBFB" xlink:href="#application-vnd.wolfram.cdf-b"/>
      <path fill="#000" fill-opacity=".2" fill-rule="nonzero" d="M65,-1 L-1,-1 L-1,79 L65,79 L65,-1 Z M64,0 L64,78 L0,78 L0,0 L64,0 Z"/>
    </g>
    <path fill="#2A4052" fill-opacity=".6" d="M45.4034601,28.5 C36.7391743,28.5 29.9997313,35.8749988 30,44.546875 C30,53.218473 36.086547,59.7 44.7505577,59.7 C55.6728291,58.984649 57.8433206,43.098168 48.3164066,44.9607417 C48.2014509,45.3381928 50.9881299,46.4271872 51.1866634,48.40625 C51.5768829,52.2961243 48.5360619,54.6392443 44.7380027,53.9007806 C41.9630674,53.3612494 38.6109441,50.9882502 37.9603791,48.6246097 C37.3588654,46.4391784 37.658109,43.8156679 38.296875,42.0738278 C41.3125924,33.8503424 51.9610517,31.6722691 55.7142857,31.7753903 C52.7778994,29.5396698 49.548729,28.5042861 45.4034601,28.5 Z M51.2494423,36.3 C40.3271709,37.015351 38.1566794,52.901832 47.6835934,51.0392583 C47.7985491,50.6618072 45.0118701,49.5728128 44.8133366,47.59375 C44.4231171,43.7038757 47.4639381,41.360757 51.2619973,42.0992194 C54.0369326,42.6387506 57.3890559,45.0117498 58.0396209,47.3753903 C58.6411346,49.5608216 58.341891,52.1843321 57.703125,53.9261722 C54.6874076,62.1496576 44.0389483,64.3277309 40.2857143,64.2246097 C43.2221006,66.4603302 46.451271,67.4957139 50.5965399,67.5 C59.2608257,67.5 66.0002687,60.1250012 66,51.453125 C66,42.781527 59.913453,36.3 51.2494423,36.3 Z"/>
  </g>
</svg>
