<svg xmlns="http://www.w3.org/2000/svg" xmlns:xlink="http://www.w3.org/1999/xlink" width="96" height="96" viewBox="0 0 96 96">
  <defs>
    <rect id="application-x-remote-connection-b" width="64" height="78" x="0" y="0"/>
    <filter id="application-x-remote-connection-a" width="110.9%" height="109%" x="-5.5%" y="-3.2%" filterUnits="objectBoundingBox">
      <feOffset dy="1" in="SourceAlpha" result="shadowOffsetOuter1"/>
      <feGaussianBlur in="shadowOffsetOuter1" result="shadowBlurOuter1" stdDeviation="1"/>
      <feColorMatrix in="shadowBlurOuter1" values="0 0 0 0 0   0 0 0 0 0   0 0 0 0 0  0 0 0 0.2 0"/>
    </filter>
  </defs>
  <g fill="none" fill-rule="evenodd">
    <g transform="translate(16 10)">
      <use fill="#000" filter="url(#application-x-remote-connection-a)" xlink:href="#application-x-remote-connection-b"/>
      <use fill="#F9FBFB" xlink:href="#application-x-remote-connection-b"/>
      <path fill="#000" fill-opacity=".2" fill-rule="nonzero" d="M65,-1 L-1,-1 L-1,79 L65,79 L65,-1 Z M64,0 L64,78 L0,78 L0,0 L64,0 Z"/>
    </g>
    <path fill="#2A4052" fill-opacity=".6" d="M64.5,33 C65.3284271,33 66,33.6715729 66,34.5 L66,61.5 C66,62.3284271 65.3284271,63 64.5,63 L31.5,63 C30.6715729,63 30,62.3284271 30,61.5 L30,34.5 C30,33.6715729 30.6715729,33 31.5,33 L64.5,33 Z M64,35 L32,35 L32,61 L64,61 L64,35 Z M58,41 L58,55 L53,55 L53,57 L43,57 L43,55 L38,55 L38,41 L58,41 Z M56,43 L40,43 L40,53 L56,53 L56,43 Z"/>
  </g>
</svg>
