<svg xmlns="http://www.w3.org/2000/svg" xmlns:xlink="http://www.w3.org/1999/xlink" width="96" height="96" viewBox="0 0 96 96">
  <defs>
    <rect id="application-vnd.kde.kphotoalbum-import-b" width="64" height="78" x="0" y="0"/>
    <filter id="application-vnd.kde.kphotoalbum-import-a" width="110.9%" height="109%" x="-5.5%" y="-3.2%" filterUnits="objectBoundingBox">
      <feOffset dy="1" in="SourceAlpha" result="shadowOffsetOuter1"/>
      <feGaussianBlur in="shadowOffsetOuter1" result="shadowBlurOuter1" stdDeviation="1"/>
      <feColorMatrix in="shadowBlurOuter1" values="0 0 0 0 0   0 0 0 0 0   0 0 0 0 0  0 0 0 0.2 0"/>
    </filter>
  </defs>
  <g fill="none" fill-rule="evenodd">
    <g transform="translate(16 10)">
      <use fill="#000" filter="url(#application-vnd.kde.kphotoalbum-import-a)" xlink:href="#application-vnd.kde.kphotoalbum-import-b"/>
      <use fill="#F9FBFB" xlink:href="#application-vnd.kde.kphotoalbum-import-b"/>
      <path fill="#000" fill-opacity=".2" fill-rule="nonzero" d="M65,-1 L-1,-1 L-1,79 L65,79 L65,-1 Z M64,0 L64,78 L0,78 L0,0 L64,0 Z"/>
    </g>
    <path fill="#E28D54" d="M32.7678571,34 C31.7884643,34 31,34.72475 31,35.625 L31,54 L65,54 L65,35.625 C65,34.72475 64.2115357,34 63.2321429,34 L32.7678571,34 Z"/>
    <path fill="#FFFEE4" d="M57,40 C59.2091,40 61,41.7909 61,44 C61,46.2091 59.2091,48 57,48 C54.7909,48 53,46.2091 53,44 C53,41.7909 54.7909,40 57,40 Z"/>
    <path fill="#D66565" d="M31,54 L31,58.6000042 C31,58.6000042 31,60.1059997 32.7678571,60.0999997 L63.35,60 C64.2645714,59.997 65,59.3760019 65,58.6000042 L65,54 L31,54 Z"/>
    <path fill="#3F3F3F" fill-rule="nonzero" d="M31,53.9998434 L31,52.9574251 C31,52.9574251 33.3798649,51.2201049 34.0488484,51.0685635 C34.7179261,50.9169957 35.5080952,51.0402855 36.3201628,51.2098107 C37.1322185,51.3786825 38.8445566,51.8470586 39.2228928,51.8613404 C39.6012761,51.8759324 40.2859825,51.8248544 41.081573,51.7716921 C41.8771399,51.7195701 43.1943632,51.6716205 43.6052291,51.6768321 C44.0161068,51.6768321 45.0418464,51.7393773 46.1351323,51.8131676 C47.2285007,51.88718 48.7302128,52.0108232 49.0709508,52.0454186 C49.4116893,52.0798166 49.8121956,52.1434064 50.2667765,52.21274 C50.7212867,52.2815396 51.5082147,52.385456 51.786486,52.414031 C52.0648404,52.442045 52.7101925,52.5402938 53.4589449,52.6164686 C54.2077208,52.6925653 55.4060215,52.7186251 55.7520636,52.6904797 C56.0981175,52.6622018 56.8234622,52.379054 57.6318408,52.117928 C58.4401605,51.8569064 59.3315253,51.6178797 60.0094667,51.6769851 C60.6859932,51.7369251 65,52.9575817 65,52.9575817 L65,54 L35.0060038,54 L31,53.9998434 Z"/>
  </g>
</svg>
