<svg xmlns="http://www.w3.org/2000/svg" xmlns:xlink="http://www.w3.org/1999/xlink" width="96" height="97" viewBox="0 0 96 97">
  <defs>
    <rect id="application-x-rar-b" width="64" height="78" x="0" y="0"/>
    <filter id="application-x-rar-a" width="110.9%" height="109%" x="-5.5%" y="-3.2%" filterUnits="objectBoundingBox">
      <feOffset dy="1" in="SourceAlpha" result="shadowOffsetOuter1"/>
      <feGaussianBlur in="shadowOffsetOuter1" result="shadowBlurOuter1" stdDeviation="1"/>
      <feColorMatrix in="shadowBlurOuter1" values="0 0 0 0 0   0 0 0 0 0   0 0 0 0 0  0 0 0 0.2 0"/>
    </filter>
  </defs>
  <g fill="none" fill-rule="evenodd">
    <g transform="translate(16 10)">
      <use fill="#000" filter="url(#application-x-rar-a)" xlink:href="#application-x-rar-b"/>
      <use fill="#F9FBFB" xlink:href="#application-x-rar-b"/>
      <path fill="#000" fill-opacity=".2" fill-rule="nonzero" d="M65,-1 L-1,-1 L-1,79 L65,79 L65,-1 Z M64,0 L64,78 L0,78 L0,0 L64,0 Z"/>
    </g>
    <path fill="#9C80E0" d="M39,43 L39,53 L16,53 L16,43 L39,43 Z M80,43 L80,53 L57,53 L57,43 L80,43 Z M53,43 L53,53 L43,53 L42.999,50 L49,50 L49,46 L42.999,46 L43,43 L53,43 Z"/>
    <path fill="#9C80E0" d="M54.5 40C55.3284271 40 56 40.6715729 56 41.5L56 54.5C56 55.3284271 55.3284271 56 54.5 56L41.5 56C40.6715729 56 40 55.3284271 40 54.5L40 41.5C40 40.6715729 40.6715729 40 41.5 40L54.5 40zM42 54L54 54 54 42 42 42 42 47 48 47 48 49 42 49 42 54zM42 78L44 78 45.4000015 74 50.5999985 74 52 78 54 78 49.0772736 64 47 64 42 78zM58 64C60.209139 64 62 65.7754593 62 68 62 69.7446086 60.8927118 71.2283528 59.3314046 71.7752062L64 78 61.4000015 78 56.9000015 72 56 72 56 78 54 78 54 64 58 64zM38 64C40.209139 64 42 65.7754593 42 68 42 69.7446086 40.8927118 71.2283528 39.3314046 71.7752062L42.6500015 76.1500015 42 78 41.4000015 78 36.9000015 72 36 72 36 78 34 78 34 64 38 64zM48 66L50 72 46 72 48 66zM58 66L56 66 56 70 58 70C59.1134578 70 60 69.1110936 60 68 60 66.8865422 59.1110936 66 58 66zM38 66L36 66 36 70 38 70C39.1134578 70 40 69.1110936 40 68 40 66.8865422 39.1110936 66 38 66z"/>
  </g>
</svg>
