<svg xmlns="http://www.w3.org/2000/svg" xmlns:xlink="http://www.w3.org/1999/xlink" width="96" height="96" viewBox="0 0 96 96">
  <defs>
    <rect id="application-x-emerald-theme-b" width="64" height="78" x="0" y="0"/>
    <filter id="application-x-emerald-theme-a" width="110.9%" height="109%" x="-5.5%" y="-3.2%" filterUnits="objectBoundingBox">
      <feOffset dy="1" in="SourceAlpha" result="shadowOffsetOuter1"/>
      <feGaussianBlur in="shadowOffsetOuter1" result="shadowBlurOuter1" stdDeviation="1"/>
      <feColorMatrix in="shadowBlurOuter1" values="0 0 0 0 0   0 0 0 0 0   0 0 0 0 0  0 0 0 0.2 0"/>
    </filter>
  </defs>
  <g fill="none" fill-rule="evenodd">
    <g transform="translate(16 10)">
      <use fill="#000" filter="url(#application-x-emerald-theme-a)" xlink:href="#application-x-emerald-theme-b"/>
      <use fill="#F9FBFB" xlink:href="#application-x-emerald-theme-b"/>
      <path fill="#000" fill-opacity=".2" fill-rule="nonzero" d="M65,-1 L-1,-1 L-1,79 L65,79 L65,-1 Z M64,0 L64,78 L0,78 L0,0 L64,0 Z"/>
    </g>
    <path fill="#8DB479" d="M37.5,43 L45,65 L30,43 L37.5,43 Z M54,43 L46.5,65 L39,43 L54,43 Z M63,43 L48,65 L55.5,43 L63,43 Z M44.5755615,34 L37.5,42 L30,42 L37.5,34 L44.5755615,34 Z M46.5,34 L53.5140381,42 L39.3583374,42 L46.5,34 Z M55.5,34 L63,42 L55.5,42 L48.3735352,34 L55.5,34 Z"/>
  </g>
</svg>
