<svg xmlns="http://www.w3.org/2000/svg" xmlns:xlink="http://www.w3.org/1999/xlink" width="96" height="96" viewBox="0 0 96 96">
  <defs>
    <rect id="application-vnd.insync.link.drive.link-b" width="64" height="78" x="0" y="0"/>
    <filter id="application-vnd.insync.link.drive.link-a" width="110.9%" height="109%" x="-5.5%" y="-3.2%" filterUnits="objectBoundingBox">
      <feOffset dy="1" in="SourceAlpha" result="shadowOffsetOuter1"/>
      <feGaussianBlur in="shadowOffsetOuter1" result="shadowBlurOuter1" stdDeviation="1"/>
      <feColorMatrix in="shadowBlurOuter1" values="0 0 0 0 0   0 0 0 0 0   0 0 0 0 0  0 0 0 0.2 0"/>
    </filter>
  </defs>
  <g fill="none" fill-rule="evenodd">
    <g transform="translate(16 10)">
      <use fill="#000" filter="url(#application-vnd.insync.link.drive.link-a)" xlink:href="#application-vnd.insync.link.drive.link-b"/>
      <use fill="#F9FBFB" xlink:href="#application-vnd.insync.link.drive.link-b"/>
      <path fill="#000" fill-opacity=".2" fill-rule="nonzero" d="M65,-1 L-1,-1 L-1,79 L65,79 L65,-1 Z M64,0 L64,78 L0,78 L0,0 L64,0 Z"/>
    </g>
    <g transform="translate(31.16 33)">
      <path fill="#4A62AD" d="M1.30381801,17.340331 L5.72743996,23.5397872 L5.17132707,27.3790693 C5.11927209,27.6916442 5.49327864,28.4214746 5.75290147,28.5980332 C6.13850375,28.8604304 6.59136354,29 7.05431879,29 L26.513069,29 C27.2992351,29 28.0329769,28.5973047 28.4691746,27.9274255 L33.1713902,19.7039622 C33.2765786,19.5408236 33.362377,19.3648656 33.4261016,19.1806095 C33.4272223,19.1772472 33.4289544,19.1740887 33.4300752,19.1706245 C33.4674065,19.0629292 33.4838296,18.9509001 33.505694,18.8402964 L33.0912517,18.4016105 L1.30381801,17.340331 Z"/>
      <path fill="#74BF63" d="M10.5807368,-2.1755568e-08 C9.74450149,-2.1755568e-08 8.97111552,0.454619144 8.54955332,1.1942926 L0.320341709,17.1536395 C-0.132287666,17.9483295 -0.103328689,18.937695 0.39496813,19.7031878 L5.09776175,27.9278677 C5.27072426,28.1933801 5.49349158,28.4210324 5.7531139,28.597591 C8.47901501,23.5362136 10.5234408,19.9068472 11.8863914,17.7094919 C14.3963417,13.6629381 18.161267,7.75977415 23.1811676,-2.1755568e-08 L10.5807368,-2.1755568e-08 Z"/>
      <path fill="#DD953E" d="M10.5804831,-2.17876277e-08 C10.5374665,0.000708135003 10.4940444,0.00285285198 10.4511368,0.00597058783 L21.3953675,19 L33.5056991,19 C33.6192209,18.4258847 33.5383131,17.6659697 33.247008,17.1528673 L25.0166378,1.19396086 C24.5950745,0.454287401 23.8231405,-2.17876277e-08 22.9869051,-2.17876277e-08 L10.5804831,-2.17876277e-08 Z M0.316399658,19.5666565 C0.333784092,19.5986897 0.351333073,19.6309863 0.370127518,19.6621733 C0.35133399,19.6309756 0.3337845,19.5986887 0.316399658,19.5666565 Z"/>
      <path fill="#F9FBFB" fill-rule="nonzero" d="M15.6087479,9.63056411 L11.0133896,18.0846816 C10.7683297,18.4786888 10.7666816,18.9654805 11.0090685,19.3609384 C11.2514555,19.7563963 11.7008737,20.0001481 12.1873404,20.0000007 L16.9415096,20.0000007 L21.4891739,20.0000007 C21.9756406,20.000148 22.4250586,19.7563961 22.6674454,19.3609382 C22.9098322,18.9654803 22.908184,18.4786887 22.6631242,18.0846816 L17.9566505,9.63056411 C17.7235263,9.25602058 17.3031696,9.01842156 16.8410656,9 C16.3373122,8.97946976 15.8628733,9.22223519 15.6087479,9.63056411 Z"/>
    </g>
  </g>
</svg>
