<svg xmlns="http://www.w3.org/2000/svg" xmlns:xlink="http://www.w3.org/1999/xlink" width="96" height="96" viewBox="0 0 96 96">
  <defs>
    <rect id="application-x-cue-b" width="64" height="78" x="0" y="0"/>
    <filter id="application-x-cue-a" width="110.9%" height="109%" x="-5.5%" y="-3.2%" filterUnits="objectBoundingBox">
      <feOffset dy="1" in="SourceAlpha" result="shadowOffsetOuter1"/>
      <feGaussianBlur in="shadowOffsetOuter1" result="shadowBlurOuter1" stdDeviation="1"/>
      <feColorMatrix in="shadowBlurOuter1" values="0 0 0 0 0   0 0 0 0 0   0 0 0 0 0  0 0 0 0.2 0"/>
    </filter>
  </defs>
  <g fill="none" fill-rule="evenodd">
    <g transform="translate(16 10)">
      <use fill="#000" filter="url(#application-x-cue-a)" xlink:href="#application-x-cue-b"/>
      <use fill="#F9FBFB" xlink:href="#application-x-cue-b"/>
      <path fill="#000" fill-opacity=".2" fill-rule="nonzero" d="M65,-1 L-1,-1 L-1,79 L65,79 L65,-1 Z M64,0 L64,78 L0,78 L0,0 L64,0 Z"/>
    </g>
    <path fill="#7EAB68" d="M48,31 C57.9411255,31 66,39.0588745 66,49 C66,58.9411255 57.9411255,67 48,67 C38.0588745,67 30,58.9411255 30,49 C30,39.0588745 38.0588745,31 48,31 Z M60.2487113,42.1243557 C56.3827181,35.4282589 47.8204524,33.1340068 41.1243557,37 C35.1747283,40.4350189 32.7002289,47.577608 34.9343087,53.824464 C34.3588172,54.3710745 34,55.1436341 34,56 C34,57.6568542 35.3431458,59 37,59 C38.6568542,59 40,57.6568542 40,56 C40,54.3431458 38.6568542,53 37,53 C36.9219589,53 36.8446138,53.0029799 36.7680723,53.0088321 C34.9419439,47.6890577 37.070393,41.6499575 42.1243557,38.7320508 C52,32.9999999 60.5248537,42.6026483 60.2487113,42.1243557 Z M48,41 C43.581722,41 40,44.581722 40,49 C40,53.418278 43.581722,57 48,57 C52.418278,57 56,53.418278 56,49 C56,44.581722 52.418278,41 48,41 Z M48,43 C51.3137085,43 54,45.6862915 54,49 C54,52.3137085 51.3137085,55 48,55 C44.6862915,55 42,52.3137085 42,49 C42,45.6862915 44.6862915,43 48,43 Z M48,45 C45.790861,45 44,46.790861 44,49 C44,51.209139 45.790861,53 48,53 C50.209139,53 52,51.209139 52,49 C52,46.790861 50.209139,45 48,45 Z"/>
  </g>
</svg>
