<svg xmlns="http://www.w3.org/2000/svg" xmlns:xlink="http://www.w3.org/1999/xlink" width="96" height="96" viewBox="0 0 96 96">
  <defs>
    <rect id="application-x-mswinurl-b" width="64" height="78" x="0" y="0"/>
    <filter id="application-x-mswinurl-a" width="110.9%" height="109%" x="-5.5%" y="-3.2%" filterUnits="objectBoundingBox">
      <feOffset dy="1" in="SourceAlpha" result="shadowOffsetOuter1"/>
      <feGaussianBlur in="shadowOffsetOuter1" result="shadowBlurOuter1" stdDeviation="1"/>
      <feColorMatrix in="shadowBlurOuter1" values="0 0 0 0 0   0 0 0 0 0   0 0 0 0 0  0 0 0 0.2 0"/>
    </filter>
  </defs>
  <g fill="none" fill-rule="evenodd">
    <g transform="translate(16 10)">
      <use fill="#000" filter="url(#application-x-mswinurl-a)" xlink:href="#application-x-mswinurl-b"/>
      <use fill="#F9FBFB" xlink:href="#application-x-mswinurl-b"/>
      <path fill="#000" fill-opacity=".2" fill-rule="nonzero" d="M65,-1 L-1,-1 L-1,79 L65,79 L65,-1 Z M64,0 L64,78 L0,78 L0,0 L64,0 Z"/>
    </g>
    <path fill="#6198C4" d="M48,30 C38.0588571,30 30,38.0588571 30,48 C30,57.9411429 38.0588571,66 48,66 C57.9411429,66 66,57.9411429 66,48 C66,38.0588571 57.9411429,30 48,30 Z M46.1969863,33.4402911 C46.4068406,33.418434 46.6733126,33.4528911 46.885044,33.4402911 C46.910244,33.5406797 46.7326611,33.8969486 46.4933023,34.4196429 C44.9692346,37.7491131 44.882958,41.6519169 46.2974366,43.7360494 C46.5533966,44.1139157 46.7846014,44.4727817 46.7846014,44.5195303 C46.7846014,44.5662531 46.5091089,44.614956 46.1969889,44.614956 C45.4642809,44.614956 44.7710571,44.1698289 43.3543543,43.0479917 C42.7250049,42.549636 41.9084991,42.1319974 41.5915191,42.0686374 C41.09376,41.9692003 40.959786,42.012246 40.3158514,42.65625 C39.7167266,43.2552669 39.532368,43.5794057 39.532368,44.1277911 C39.532368,46.2073466 41.9997463,47.8559409 46.5887306,48.828684 C52.820742,50.149524 54.3571217,51.3373774 54.5290191,54.6143983 C54.7448391,58.7236903 52.5558309,61.8233391 47.7639531,64.2220989 C47.1920109,64.508502 46.8286963,64.616718 46.5887306,64.7092637 C46.482402,64.6997494 46.4034591,64.718778 46.2974366,64.7092637 C46.2566537,64.5822094 46.1969966,64.288398 46.1969966,63.729912 C46.1969966,61.5473426 45.3387309,59.300958 44.0424223,58.0446429 C43.6944489,57.7073666 42.7171671,56.9941629 41.8828234,56.4776786 C41.0485106,55.9612251 40.2071263,55.3625451 40.0195406,55.1065851 C39.7086806,54.6818211 39.6852831,54.4197334 39.9241149,53.635044 C40.3593857,52.2019046 40.875636,51.4016143 41.8828209,50.4960934 C42.4108483,50.0213614 42.9410691,49.6267011 43.0580434,49.6171869 C43.1750434,49.6076726 42.3874046,49.3679383 41.1997851,49.125 C40.0122326,48.8815886 38.2709563,48.3702729 37.3727769,48.0452006 C35.7303771,47.4509203 33.5172694,46.2059297 32.6718814,45.3030137 C32.6361129,45.2647509 32.6025043,45.2364651 32.5714414,45.2025737 C33.7826794,40.3777611 37.180848,36.4257429 41.6869551,34.5200957 C42.6298029,34.1213057 43.6040297,33.8460214 44.6300349,33.6361671 C45.1410934,33.5317157 45.6693163,33.4939414 46.1969991,33.4403014 L46.1969863,33.4402911 Z M60.9023434,40.7929697 C61.2707674,41.0206954 62.6598223,44.0308329 63.0569203,45.4988846 C63.5696091,47.3941483 63.5324983,50.672496 63.0569203,52.5552446 C62.8759174,53.2718297 62.646924,53.9433429 62.5697554,54.0267857 C62.4925869,54.1102286 62.2108791,53.630796 61.8816977,53.047434 C61.5524803,52.4641646 60.5005706,51.2223034 59.6266731,50.3002226 C57.1041943,47.6384983 56.7067697,46.2520766 57.7633929,44.1277911 C58.296252,43.0565854 60.6172029,40.6169811 60.9023434,40.7929697 L60.9023434,40.7929697 Z"/>
  </g>
</svg>
