<svg xmlns="http://www.w3.org/2000/svg" xmlns:xlink="http://www.w3.org/1999/xlink" width="96" height="97" viewBox="0 0 96 97">
  <defs>
    <rect id="application-x-7zip-b" width="64" height="78" x="0" y="0"/>
    <filter id="application-x-7zip-a" width="110.9%" height="109%" x="-5.5%" y="-3.2%" filterUnits="objectBoundingBox">
      <feOffset dy="1" in="SourceAlpha" result="shadowOffsetOuter1"/>
      <feGaussianBlur in="shadowOffsetOuter1" result="shadowBlurOuter1" stdDeviation="1"/>
      <feColorMatrix in="shadowBlurOuter1" values="0 0 0 0 0   0 0 0 0 0   0 0 0 0 0  0 0 0 0.2 0"/>
    </filter>
  </defs>
  <g fill="none" fill-rule="evenodd">
    <g transform="translate(16 10)">
      <use fill="#000" filter="url(#application-x-7zip-a)" xlink:href="#application-x-7zip-b"/>
      <use fill="#F9FBFB" xlink:href="#application-x-7zip-b"/>
      <path fill="#000" fill-opacity=".2" fill-rule="nonzero" d="M65,-1 L-1,-1 L-1,79 L65,79 L65,-1 Z M64,0 L64,78 L0,78 L0,0 L64,0 Z"/>
    </g>
    <path fill="#523D94" d="M39,43 L39,53 L16,53 L16,43 L39,43 Z M80,43 L80,53 L57,53 L57,43 L80,43 Z M53,43 L53,53 L43,53 L42.999,50 L49,50 L49,46 L42.999,46 L43,43 L53,43 Z"/>
    <path fill="#523D94" d="M54.5 40C55.3284271 40 56 40.6715729 56 41.5L56 54.5C56 55.3284271 55.3284271 56 54.5 56L41.5 56C40.6715729 56 40 55.3284271 40 54.5L40 41.5C40 40.6715729 40.6715729 40 41.5 40L54.5 40zM42 54L54 54 54 42 42 42 42 47 48 47 48 49 42 49 42 54zM48 61L48 63 40 78 38 78 46 63 36 63 36 61 48 61zM58 64L58 66.5 50.5 76 58 76 58 78 48 78 48 76 56 66 48 66 48 64 58 64z"/>
  </g>
</svg>
