<svg xmlns="http://www.w3.org/2000/svg" xmlns:xlink="http://www.w3.org/1999/xlink" width="96" height="96" viewBox="0 0 96 96">
  <defs>
    <rect id="application-x-nzb-b" width="64" height="78" x="0" y="0"/>
    <filter id="application-x-nzb-a" width="110.9%" height="109%" x="-5.5%" y="-3.2%" filterUnits="objectBoundingBox">
      <feOffset dy="1" in="SourceAlpha" result="shadowOffsetOuter1"/>
      <feGaussianBlur in="shadowOffsetOuter1" result="shadowBlurOuter1" stdDeviation="1"/>
      <feColorMatrix in="shadowBlurOuter1" values="0 0 0 0 0   0 0 0 0 0   0 0 0 0 0  0 0 0 0.2 0"/>
    </filter>
  </defs>
  <g fill="none" fill-rule="evenodd">
    <g transform="translate(16 10)">
      <use fill="#000" filter="url(#application-x-nzb-a)" xlink:href="#application-x-nzb-b"/>
      <use fill="#F9FBFB" xlink:href="#application-x-nzb-b"/>
      <path fill="#000" fill-opacity=".2" fill-rule="nonzero" d="M65,-1 L-1,-1 L-1,79 L65,79 L65,-1 Z M64,0 L64,78 L0,78 L0,0 L64,0 Z"/>
    </g>
    <path fill="#2A4052" fill-opacity=".6" d="M42,32 L42,36 L44,36 L44,32 L42,32 L42,32 Z M52,32 L52,34 L54,34 L54,32 L52,32 L52,32 Z M52,34 L50,34 L50,36 L46,36 L46,38 L44,38 L44,42 L46,42 L46,40 L52,40 L52,36 L52,34 L52,34 Z M48,42 L48,44 L50,44 L50,46 L54,46 L54,42 L50,42 L48,42 L48,42 Z M42,46 L42,50 L42,56 L36,56 L48,68 L60,56 L54,56 L54,50 L50,50 L50,48 L46,48 L46,46 L42,46 L42,46 Z"/>
  </g>
</svg>
