<svg xmlns="http://www.w3.org/2000/svg" xmlns:xlink="http://www.w3.org/1999/xlink" width="96" height="96" viewBox="0 0 96 96">
  <defs>
    <rect id="audio-x-mp3-playlist-b" width="64" height="78" x="0" y="0"/>
    <filter id="audio-x-mp3-playlist-a" width="110.9%" height="109%" x="-5.5%" y="-3.2%" filterUnits="objectBoundingBox">
      <feOffset dy="1" in="SourceAlpha" result="shadowOffsetOuter1"/>
      <feGaussianBlur in="shadowOffsetOuter1" result="shadowBlurOuter1" stdDeviation="1"/>
      <feColorMatrix in="shadowBlurOuter1" values="0 0 0 0 0   0 0 0 0 0   0 0 0 0 0  0 0 0 0.2 0"/>
    </filter>
  </defs>
  <g fill="none" fill-rule="evenodd">
    <g transform="translate(16 10)">
      <use fill="#000" filter="url(#audio-x-mp3-playlist-a)" xlink:href="#audio-x-mp3-playlist-b"/>
      <use fill="#F9FBFB" xlink:href="#audio-x-mp3-playlist-b"/>
      <path fill="#000" fill-opacity=".2" fill-rule="nonzero" d="M65,-1 L-1,-1 L-1,79 L65,79 L65,-1 Z M64,0 L64,78 L0,78 L0,0 L64,0 Z"/>
    </g>
    <path fill="#7EAB68" d="M61.1274718,42.932 C61.6754718,42.93 62.1954718,43.506 62.1954718,44.22 L62.1954718,44.22 L62.1954718,44.586 C62.1954718,45.122 62.6714718,46.366 65.3054718,48.008 C65.3054718,48.008 68.7454718,49.866 69.7214718,53.222 C69.7214718,53.222 70.7934718,56.216 69.0454718,59.994 C69.0454718,59.994 68.8794718,60.342 68.5154718,60.196 C68.2274718,60.08 68.3254718,59.714 68.3254718,59.714 C68.3254718,59.714 69.5034718,56.77 68.5234718,54.384 C68.5234718,54.384 67.6194718,51.106 62.0334718,49.618 L62.0334718,49.618 L62.0331208,49.8019061 C62.0330631,49.831859 62.0329986,49.8652942 62.0329273,49.9020808 L62.0321083,50.320114 C62.0317775,50.4872648 62.0313905,50.681044 62.0309514,50.8979172 L62.0300052,51.3614085 C62.026966,52.8379752 62.0221569,55.0611032 62.0165026,57.267379 L62.0145879,58.0011329 C62.0055181,61.412631 61.9946522,64.5780984 61.9854718,64.624 C61.9634718,66.528 60.3814718,68.528 57.9514718,69.474 C54.9854718,70.628 51.8854718,69.774 51.0254718,67.568 C50.1654718,65.36 51.8354718,62.516 54.8454718,61.478 C56.8894718,60.774 58.6754718,60.824 60.0594718,61.542 L60.0594718,61.542 L60.0954718,44.228 C60.0974718,43.514 60.5814718,42.934 61.1274718,42.932 Z M56,56 L56,58 L34,58 L34,56 L56,56 Z M56,48 L56,50 L34,50 L34,48 L56,48 Z M56,40 L56,42 L34,42 L34,40 L56,40 Z"/>
  </g>
</svg>
