<svg xmlns="http://www.w3.org/2000/svg" xmlns:xlink="http://www.w3.org/1999/xlink" width="96" height="96" viewBox="0 0 96 96">
  <defs>
    <rect id="audio-x-generic-b" width="64" height="78" x="0" y="0"/>
    <filter id="audio-x-generic-a" width="110.9%" height="109%" x="-5.5%" y="-3.2%" filterUnits="objectBoundingBox">
      <feOffset dy="1" in="SourceAlpha" result="shadowOffsetOuter1"/>
      <feGaussianBlur in="shadowOffsetOuter1" result="shadowBlurOuter1" stdDeviation="1"/>
      <feColorMatrix in="shadowBlurOuter1" values="0 0 0 0 0   0 0 0 0 0   0 0 0 0 0  0 0 0 0.2 0"/>
    </filter>
  </defs>
  <g fill="none" fill-rule="evenodd">
    <g transform="translate(16 10)">
      <use fill="#000" filter="url(#audio-x-generic-a)" xlink:href="#audio-x-generic-b"/>
      <use fill="#F9FBFB" xlink:href="#audio-x-generic-b"/>
      <path fill="#000" fill-opacity=".2" fill-rule="nonzero" d="M65,-1 L-1,-1 L-1,79 L65,79 L65,-1 Z M64,0 L64,78 L0,78 L0,0 L64,0 Z"/>
    </g>
    <path fill="#7EAB68" d="M48,72 C36.972,72 28,63.028 28,52 C28,40.972 36.972,32 48,32 C59.028,32 68,40.972 68,52 C68,63.028 59.028,72 48,72 L48,72 Z M48,34 C57.924,34 66,42.074 66,52 C66,61.926 57.924,70 48,70 C38.076,70 30,61.926 30,52 C30,42.074 38.076,34 48,34 Z M49.1274718,38.932 C48.5814718,38.934 48.0974718,39.514 48.0954718,40.228 L48.0594718,55.542 C46.6754718,54.824 44.8894718,54.774 42.8454718,55.478 C39.8354718,56.516 38.1654718,59.36 39.0254718,61.568 C39.8854718,63.774 42.9854718,64.628 45.9514718,63.474 C48.3814718,62.528 49.9634718,60.528 49.9854718,58.624 C50.0019631,58.5415439 50.0238935,49.752269 50.0310808,46.6708508 L50.0319167,46.3095959 C50.0320422,46.2549248 50.0321605,46.2031153 50.0322717,46.1543062 L50.0328498,45.8985676 C50.0329311,45.8623156 50.0330048,45.8293416 50.0330706,45.7997847 L50.0334718,45.618 L50.0334718,45.618 C55.6194718,47.106 56.5234718,50.384 56.5234718,50.384 C57.5034718,52.77 56.3254718,55.714 56.3254718,55.714 C56.3254718,55.714 56.2274718,56.08 56.5154718,56.196 C56.8794718,56.342 57.0454718,55.994 57.0454718,55.994 C58.7934718,52.216 57.7214718,49.222 57.7214718,49.222 C56.7454718,45.866 53.3054718,44.008 53.3054718,44.008 C50.6714718,42.366 50.1954718,41.122 50.1954718,40.586 L50.1954718,40.22 C50.1954718,39.506 49.6754718,38.93 49.1274718,38.932 Z"/>
  </g>
</svg>
