<svg xmlns="http://www.w3.org/2000/svg" xmlns:xlink="http://www.w3.org/1999/xlink" width="96" height="96" viewBox="0 0 96 96">
  <defs>
    <rect id="image-ico-b" width="64" height="78" x="0" y="0"/>
    <filter id="image-ico-a" width="110.9%" height="109%" x="-5.5%" y="-3.2%" filterUnits="objectBoundingBox">
      <feOffset dy="1" in="SourceAlpha" result="shadowOffsetOuter1"/>
      <feGaussianBlur in="shadowOffsetOuter1" result="shadowBlurOuter1" stdDeviation="1"/>
      <feColorMatrix in="shadowBlurOuter1" values="0 0 0 0 0   0 0 0 0 0   0 0 0 0 0  0 0 0 0.2 0"/>
    </filter>
  </defs>
  <g fill="none" fill-rule="evenodd">
    <g transform="translate(16 10)">
      <use fill="#000" filter="url(#image-ico-a)" xlink:href="#image-ico-b"/>
      <use fill="#F9FBFB" xlink:href="#image-ico-b"/>
      <path fill="#000" fill-opacity=".2" fill-rule="nonzero" d="M65,-1 L-1,-1 L-1,79 L65,79 L65,-1 Z M64,0 L64,78 L0,78 L0,0 L64,0 Z"/>
    </g>
    <path fill="#79B4A8" d="M45,66 C46.4527791,66 47.8071891,66.6252187 48.7500059,67.6936444 L48.7500059,67.6936444 L47.2503917,69.0169573 C46.6831741,68.3741709 45.8726084,68 45,68 C43.3342085,68 42,69.3410316 42,71.009763 L42,71.009763 L42,72.990237 C42,74.6576074 43.3408408,76 45,76 C45.905808,76 46.7363118,75.6055528 47.3014278,74.9321848 L47.3014278,74.9321848 L48.8334123,76.2178845 C47.8915858,77.3401244 46.5022257,78 45,78 C42.2357532,78 40,75.7616594 40,72.990237 L40,72.990237 L40,71.009763 C40,68.2387394 42.2273488,66 45,66 Z M55,66 C57.7642468,66 60,68.2383406 60,71.009763 L60,71.009763 L60,72.990237 C60,75.7612606 57.7726512,78 55,78 C52.2357532,78 50,75.7616594 50,72.990237 L50,72.990237 L50,71.009763 C50,68.2387394 52.2273488,66 55,66 Z M38,66 L38,78 L36,78 L36,66 L38,66 Z M55,68 C53.3342085,68 52,69.3410316 52,71.009763 L52,71.009763 L52,72.990237 C52,74.6576074 53.3408408,76 55,76 C56.6657915,76 58,74.6589684 58,72.990237 L58,72.990237 L58,71.009763 C58,69.3423926 56.6591592,68 55,68 Z M63.936,32 L63.936,60 L31.936,60 L31.936,32 L63.936,32 Z M62,34 L34,34 L34,58 L62,58 L62,34 Z M44,38 L49,48 L52.512,42.484 L60,55.9860006 L35.9999992,55.9860006 L44,38 Z"/>
  </g>
</svg>
