<svg xmlns="http://www.w3.org/2000/svg" xmlns:xlink="http://www.w3.org/1999/xlink" width="96" height="96" viewBox="0 0 96 96">
  <defs>
    <rect id="multipart-encrypted-b" width="64" height="78" x="0" y="0"/>
    <filter id="multipart-encrypted-a" width="110.9%" height="109%" x="-5.5%" y="-3.2%" filterUnits="objectBoundingBox">
      <feOffset dy="1" in="SourceAlpha" result="shadowOffsetOuter1"/>
      <feGaussianBlur in="shadowOffsetOuter1" result="shadowBlurOuter1" stdDeviation="1"/>
      <feColorMatrix in="shadowBlurOuter1" values="0 0 0 0 0   0 0 0 0 0   0 0 0 0 0  0 0 0 0.2 0"/>
    </filter>
  </defs>
  <g fill="none" fill-rule="evenodd">
    <g transform="translate(16 10)">
      <use fill="#000" filter="url(#multipart-encrypted-a)" xlink:href="#multipart-encrypted-b"/>
      <use fill="#F9FBFB" xlink:href="#multipart-encrypted-b"/>
      <path fill="#000" fill-opacity=".2" fill-rule="nonzero" d="M65,-1 L-1,-1 L-1,79 L65,79 L65,-1 Z M64,0 L64,78 L0,78 L0,0 L64,0 Z"/>
    </g>
    <path fill="#2A4052" fill-opacity=".6" d="M34,64 L34,72 L36,72 L36,74 L30,74 L30,72 L32,72 L32,66 L30,66 L30,64 L34,64 Z M64,64 L64,72 L66,72 L66,74 L60,74 L60,72 L62,72 L62,66 L60,66 L60,64 L64,64 Z M42,64 C44.2106956,64 46,65.7882909 46,68.0016655 L46,68.0016655 L46,69.9983345 C46,72.2072787 44.2068826,74 42,74 C39.7893044,74 38,72.2117091 38,69.9983345 L38,69.9983345 L38,68.0016655 C38,65.7927213 39.7931174,64 42,64 Z M53,64 C55.2106956,64 57,65.7882909 57,68.0016655 L57,68.0016655 L57,69.9983345 C57,72.2072787 55.2068826,74 53,74 C50.7893044,74 49,72.2117091 49,69.9983345 L49,69.9983345 L49,68.0016655 C49,65.7927213 50.7931174,64 53,64 Z M42,66 C40.897588,66 40,66.8973897 40,68.0016655 L40,68.0016655 L40,69.9983345 C40,71.1068858 40.8936203,72 42,72 C43.102412,72 44,71.1026103 44,69.9983345 L44,69.9983345 L44,68.0016655 C44,66.8931142 43.1063797,66 42,66 Z M53,66 C51.897588,66 51,66.8973897 51,68.0016655 L51,68.0016655 L51,69.9983345 C51,71.1068858 51.8936203,72 53,72 C54.102412,72 55,71.1026103 55,69.9983345 L55,69.9983345 L55,68.0016655 C55,66.8931142 54.1063797,66 53,66 Z M34,48 L34,56 L36,56 L36,58 L30,58 L30,56 L32,56 L32,50 L30,50 L30,48 L34,48 Z M64,48 L64,56 L66,56 L66,58 L60,58 L60,56 L62,56 L62,50 L60,50 L60,48 L64,48 Z M44,48 L44,56 L46,56 L46,58 L40,58 L40,56 L42,56 L42,50 L40,50 L40,48 L44,48 Z M52,48 C54.2106956,48 56,49.7882909 56,52.0016655 L56,52.0016655 L56,53.9983345 C56,56.2072787 54.2068826,58 52,58 C49.7893044,58 48,56.2117091 48,53.9983345 L48,53.9983345 L48,52.0016655 C48,49.7927213 49.7931174,48 52,48 Z M52,50 C50.897588,50 50,50.8973897 50,52.0016655 L50,52.0016655 L50,53.9983345 C50,55.1068858 50.8936203,56 52,56 C53.102412,56 54,55.1026103 54,53.9983345 L54,53.9983345 L54,52.0016655 C54,50.8931142 53.1063797,50 52,50 Z M44,32 L44,40 L46,40 L46,42 L40,42 L40,40 L42,40 L42,34 L40,34 L40,32 L44,32 Z M34,32 C36.2106956,32 38,33.7882909 38,36.0016655 L38,36.0016655 L38,37.9983345 C38,40.2072787 36.2068826,42 34,42 C31.7893044,42 30,40.2117091 30,37.9983345 L30,37.9983345 L30,36.0016655 C30,33.7927213 31.7931174,32 34,32 Z M62,32 C64.2106956,32 66,33.7882909 66,36.0016655 L66,36.0016655 L66,37.9983345 C66,40.2072787 64.2068826,42 62,42 C59.7893044,42 58,40.2117091 58,37.9983345 L58,37.9983345 L58,36.0016655 C58,33.7927213 59.7931174,32 62,32 Z M52,32 C54.2106956,32 56,33.7882909 56,36.0016655 L56,36.0016655 L56,37.9983345 C56,40.2072787 54.2068826,42 52,42 C49.7893044,42 48,40.2117091 48,37.9983345 L48,37.9983345 L48,36.0016655 C48,33.7927213 49.7931174,32 52,32 Z M34,34 C32.897588,34 32,34.8973897 32,36.0016655 L32,36.0016655 L32,37.9983345 C32,39.1068858 32.8936203,40 34,40 C35.102412,40 36,39.1026103 36,37.9983345 L36,37.9983345 L36,36.0016655 C36,34.8931142 35.1063797,34 34,34 Z M62,34 C60.897588,34 60,34.8973897 60,36.0016655 L60,36.0016655 L60,37.9983345 C60,39.1068858 60.8936203,40 62,40 C63.102412,40 64,39.1026103 64,37.9983345 L64,37.9983345 L64,36.0016655 C64,34.8931142 63.1063797,34 62,34 Z M52,34 C50.897588,34 50,34.8973897 50,36.0016655 L50,36.0016655 L50,37.9983345 C50,39.1068858 50.8936203,40 52,40 C53.102412,40 54,39.1026103 54,37.9983345 L54,37.9983345 L54,36.0016655 C54,34.8931142 53.1063797,34 52,34 Z"/>
  </g>
</svg>
