<svg xmlns="http://www.w3.org/2000/svg" xmlns:xlink="http://www.w3.org/1999/xlink" width="96" height="96" viewBox="0 0 96 96">
  <defs>
    <rect id="package-x-generic-b" width="64" height="78" x="0" y="0"/>
    <filter id="package-x-generic-a" width="110.9%" height="109%" x="-5.5%" y="-3.2%" filterUnits="objectBoundingBox">
      <feOffset dy="1" in="SourceAlpha" result="shadowOffsetOuter1"/>
      <feGaussianBlur in="shadowOffsetOuter1" result="shadowBlurOuter1" stdDeviation="1"/>
      <feColorMatrix in="shadowBlurOuter1" values="0 0 0 0 0   0 0 0 0 0   0 0 0 0 0  0 0 0 0.2 0"/>
    </filter>
  </defs>
  <g fill="none" fill-rule="evenodd">
    <g transform="translate(16 10)">
      <use fill="#000" filter="url(#package-x-generic-a)" xlink:href="#package-x-generic-b"/>
      <use fill="#F9FBFB" xlink:href="#package-x-generic-b"/>
      <path fill="#000" fill-opacity=".2" fill-rule="nonzero" d="M65,-1 L-1,-1 L-1,79 L65,79 L65,-1 Z M64,0 L64,78 L0,78 L0,0 L64,0 Z"/>
    </g>
    <path fill="#2A4052" fill-opacity=".6" d="M63,38 C63.3147573,38 63.6111456,38.1481942 63.8,38.4 L69.8,46.4 C70.2944272,47.0592363 69.8240453,48 69,48 L64,48 L64,67 C64,67.5522847 63.5522847,68 63,68 L33,68 C32.4477153,68 32,67.5522847 32,67 L32,48 L27,48 C26.1759547,48 25.7055728,47.0592363 26.2,46.4 L32.2,38.4 C32.3888544,38.1481942 32.6852427,38 33,38 L63,38 Z M62.5,40 L33.5,40 L29,46 L33,46 C33.5522847,46 34,46.4477153 34,47 L34,66 L62,66 L62,47 C62,46.4477153 62.4477153,46 63,46 L67,46 L62.5,40 Z M58,54 L58,58 L61,58 L56,63 L51,58 L54,58 L54,54 L58,54 Z"/>
  </g>
</svg>
