<svg xmlns="http://www.w3.org/2000/svg" xmlns:xlink="http://www.w3.org/1999/xlink" width="96" height="96" viewBox="0 0 96 96">
  <defs>
    <rect id="text-enriched-b" width="64" height="78" x="0" y="0"/>
    <filter id="text-enriched-a" width="110.9%" height="109%" x="-5.5%" y="-3.2%" filterUnits="objectBoundingBox">
      <feOffset dy="1" in="SourceAlpha" result="shadowOffsetOuter1"/>
      <feGaussianBlur in="shadowOffsetOuter1" result="shadowBlurOuter1" stdDeviation="1"/>
      <feColorMatrix in="shadowBlurOuter1" values="0 0 0 0 0   0 0 0 0 0   0 0 0 0 0  0 0 0 0.2 0"/>
    </filter>
  </defs>
  <g fill="none" fill-rule="evenodd">
    <g transform="translate(16 10)">
      <use fill="#000" filter="url(#text-enriched-a)" xlink:href="#text-enriched-b"/>
      <use fill="#F9FBFB" xlink:href="#text-enriched-b"/>
      <path fill="#000" fill-opacity=".2" fill-rule="nonzero" d="M65,-1 L-1,-1 L-1,79 L65,79 L65,-1 Z M64,0 L64,78 L0,78 L0,0 L64,0 Z"/>
    </g>
    <path fill="#6198C4" d="M25.936,36 L69.936,36 L69.936,38 L25.936,38 L25.936,36 L25.936,36 Z M25.936,44 L69.936,44 L69.936,46 L25.936,46 L25.936,44 L25.936,44 Z M25.936,52 L69.936,52 L69.936,54 L25.936,54 L25.936,52 L25.936,52 Z M25.936,60 L69.936,60 L69.936,62 L25.936,62 L25.936,60 L25.936,60 Z M25.936,68 L69.936,68 L69.936,70 L25.936,70 L25.936,68 L25.936,68 Z"/>
  </g>
</svg>
