<svg xmlns="http://www.w3.org/2000/svg" xmlns:xlink="http://www.w3.org/1999/xlink" width="96" height="96" viewBox="0 0 96 96">
  <defs>
    <rect id="text-x-c++src-b" width="64" height="78" x="0" y="0"/>
    <filter id="text-x-c++src-a" width="110.9%" height="109%" x="-5.5%" y="-3.2%" filterUnits="objectBoundingBox">
      <feOffset dy="1" in="SourceAlpha" result="shadowOffsetOuter1"/>
      <feGaussianBlur in="shadowOffsetOuter1" result="shadowBlurOuter1" stdDeviation="1"/>
      <feColorMatrix in="shadowBlurOuter1" values="0 0 0 0 0   0 0 0 0 0   0 0 0 0 0  0 0 0 0.2 0"/>
    </filter>
  </defs>
  <g fill="none" fill-rule="evenodd">
    <g transform="translate(16 10)">
      <use fill="#000" filter="url(#text-x-c++src-a)" xlink:href="#text-x-c++src-b"/>
      <use fill="#F9FBFB" xlink:href="#text-x-c++src-b"/>
      <path fill="#000" fill-opacity=".2" fill-rule="nonzero" d="M65,-1 L-1,-1 L-1,79 L65,79 L65,-1 Z M64,0 L64,78 L0,78 L0,0 L64,0 Z"/>
    </g>
    <path fill="#2A4052" fill-opacity=".6" d="M41.2814336,38.3008289 C44.2639912,38.3008289 46.6407168,39.0081456 48.4582128,40.4227788 C50.3223113,41.8845665 51.4407704,44.1008253 51.8601926,47.0715552 L51.8601926,47.0715552 L48.1785981,47.0715552 C47.8523808,45.1853775 47.1067414,43.7707442 45.9416799,42.8276554 C44.7300158,41.8845665 43.1921346,41.4601766 41.2814336,41.4601766 C38.9513105,41.4601766 37.0872119,42.356111 35.7357405,44.1479798 C34.4308716,45.8926941 33.7784371,48.2504163 33.7784371,51.2211461 C33.7784371,54.191876 34.3842691,56.5495981 35.6891381,58.247158 C36.9474046,59.944718 38.8115031,60.8406524 41.2348311,60.8406524 C45.3358478,60.8406524 47.7125734,58.7187025 48.271803,54.5219571 L48.271803,54.5219571 L52,54.5219571 C51.4407704,57.6341503 50.2757089,60.0390268 48.4116104,61.6422779 C46.5941143,63.1983745 44.2173887,64 41.2348311,64 C37.599839,64 34.8036913,62.7739845 32.7997854,60.3219535 C30.8890844,58.0113858 29.9570352,54.9935015 29.9570352,51.2683006 C29.9570352,47.5430996 30.8890844,44.5252153 32.7997854,42.1674932 C34.8502937,39.5739989 37.693044,38.3008289 41.2814336,38.3008289 Z M62,54 L62,58 L66,58 L66,60 L62,60 L62,64 L60,64 L60,60 L56,60 L56,58 L60,58 L60,54 L62,54 Z M62,40 L62,44 L66,44 L66,46 L62,46 L62,50 L60,50 L60,46 L56,46 L56,44 L60,44 L60,40 L62,40 Z"/>
  </g>
</svg>
