<svg xmlns="http://www.w3.org/2000/svg" xmlns:xlink="http://www.w3.org/1999/xlink" width="96" height="96" viewBox="0 0 96 96">
  <defs>
    <rect id="text-x-changelog-b" width="64" height="78" x="0" y="0"/>
    <filter id="text-x-changelog-a" width="110.9%" height="109%" x="-5.5%" y="-3.2%" filterUnits="objectBoundingBox">
      <feOffset dy="1" in="SourceAlpha" result="shadowOffsetOuter1"/>
      <feGaussianBlur in="shadowOffsetOuter1" result="shadowBlurOuter1" stdDeviation="1"/>
      <feColorMatrix in="shadowBlurOuter1" values="0 0 0 0 0   0 0 0 0 0   0 0 0 0 0  0 0 0 0.2 0"/>
    </filter>
  </defs>
  <g fill="none" fill-rule="evenodd">
    <g transform="translate(16 10)">
      <use fill="#000" filter="url(#text-x-changelog-a)" xlink:href="#text-x-changelog-b"/>
      <use fill="#F9FBFB" xlink:href="#text-x-changelog-b"/>
      <path fill="#000" fill-opacity=".2" fill-rule="nonzero" d="M65,-1 L-1,-1 L-1,79 L65,79 L65,-1 Z M64,0 L64,78 L0,78 L0,0 L64,0 Z"/>
    </g>
    <path fill="#2A4052" fill-opacity=".6" d="M63,41 C63.6330518,41.5343566 63.71306,42.480728 63.1787035,43.1137798 L44.104474,65.711003 L44.104474,65.711003 L33.0458876,55.120824 C32.4475667,54.5478461 32.4270221,53.5983209 33,53 C33.5729662,52.4016913 34.5224721,52.3811472 35.1207808,52.9541133 C35.1207881,52.9541204 35.1207955,52.9541274 35.1208028,52.9541345 L43.872,61.335 L43.872,61.335 L60.8862086,41.1786937 C61.4205732,40.5456455 62.3669464,40.4656418 63,41 Z"/>
  </g>
</svg>
