<svg xmlns="http://www.w3.org/2000/svg" xmlns:xlink="http://www.w3.org/1999/xlink" width="96" height="96" viewBox="0 0 96 96">
  <defs>
    <rect id="text-x-octave-b" width="64" height="78" x="0" y="0"/>
    <filter id="text-x-octave-a" width="110.9%" height="109%" x="-5.5%" y="-3.2%" filterUnits="objectBoundingBox">
      <feOffset dy="1" in="SourceAlpha" result="shadowOffsetOuter1"/>
      <feGaussianBlur in="shadowOffsetOuter1" result="shadowBlurOuter1" stdDeviation="1"/>
      <feColorMatrix in="shadowBlurOuter1" values="0 0 0 0 0   0 0 0 0 0   0 0 0 0 0  0 0 0 0.2 0"/>
    </filter>
  </defs>
  <g fill="none" fill-rule="evenodd">
    <g transform="translate(16 10)">
      <use fill="#000" filter="url(#text-x-octave-a)" xlink:href="#text-x-octave-b"/>
      <use fill="#F9FBFB" xlink:href="#text-x-octave-b"/>
      <path fill="#000" fill-opacity=".2" fill-rule="nonzero" d="M65,-1 L-1,-1 L-1,79 L65,79 L65,-1 Z M64,0 L64,78 L0,78 L0,0 L64,0 Z"/>
    </g>
    <path fill="#DD953E" d="M49.5,28.5 C38.7304474,28.5 30,37.2304474 30,48 C30,58.7695526 38.7304474,67.5 49.5,67.5 C60.2695526,67.5 69,58.7695526 69,48 C69,42.8282784 66.9455416,37.8683771 63.2885822,34.2114178 C59.6316229,30.5544584 54.6717216,28.5 49.5,28.5 L49.5,28.5 Z M51,31.5 C59.2842712,31.5 66,38.2157288 66,46.5 C66,54.7842712 59.2842712,61.5 51,61.5 C42.7157288,61.5 36,54.7842712 36,46.5 C36,38.2157288 42.7157288,31.5 51,31.5 Z" opacity=".603"/>
    <path fill="#DD953E" d="M58,30 C56.8016285,30 56,30.8016285 56,32 L56,37 C56,38.1983715 56.8016285,39 58,39 L63,39 C64.1983715,39 65,38.1983715 65,37 L65,32 C65,30.8016285 64.1983715,30 63,30 L58,30 Z M30,41 C28.338,41 27,42.338 27,44 L27,53 C27,54.662 28.338,56 30,56 L39,56 C40.662,56 42,54.662 42,53 L42,44 C42,42.338 40.662,41 39,41 L30,41 Z M59,53 C58.0698135,53 57,54.0698135 57,55 L57,63 C57,63.9301865 58.0698135,65 59,65 L67,65 C67.9301865,65 69,63.9301865 69,63 L69,55 C69,54.0698135 67.9301865,53 67,53 L59,53 Z"/>
  </g>
</svg>
