<svg xmlns="http://www.w3.org/2000/svg" xmlns:xlink="http://www.w3.org/1999/xlink" width="96" height="96" viewBox="0 0 96 96">
  <defs>
    <rect id="text-rdf-b" width="64" height="78" x="0" y="0"/>
    <filter id="text-rdf-a" width="110.9%" height="109%" x="-5.5%" y="-3.2%" filterUnits="objectBoundingBox">
      <feOffset dy="1" in="SourceAlpha" result="shadowOffsetOuter1"/>
      <feGaussianBlur in="shadowOffsetOuter1" result="shadowBlurOuter1" stdDeviation="1"/>
      <feColorMatrix in="shadowBlurOuter1" values="0 0 0 0 0   0 0 0 0 0   0 0 0 0 0  0 0 0 0.2 0"/>
    </filter>
  </defs>
  <g fill="none" fill-rule="evenodd">
    <g transform="translate(16 10)">
      <use fill="#000" filter="url(#text-rdf-a)" xlink:href="#text-rdf-b"/>
      <use fill="#F9FBFB" xlink:href="#text-rdf-b"/>
      <path fill="#000" fill-opacity=".2" fill-rule="nonzero" d="M65,-1 L-1,-1 L-1,79 L65,79 L65,-1 Z M64,0 L64,78 L0,78 L0,0 L64,0 Z"/>
    </g>
    <polygon fill="#6198C4" points="54 34 54 38 34 38 32 38 32 46 28 46 28 58 32 58 32 66 34 66 54 66 54 70 64 70 64 60 54 60 54 64 34 64 34 58 38 58 38 46 34 46 34 40 54 40 54 44 64 44 64 34"/>
  </g>
</svg>
