<svg xmlns="http://www.w3.org/2000/svg" xmlns:xlink="http://www.w3.org/1999/xlink" width="96" height="96" viewBox="0 0 96 96">
  <defs>
    <rect id="text-x-sql-b" width="64" height="78" x="0" y="0"/>
    <filter id="text-x-sql-a" width="110.9%" height="109%" x="-5.5%" y="-3.2%" filterUnits="objectBoundingBox">
      <feOffset dy="1" in="SourceAlpha" result="shadowOffsetOuter1"/>
      <feGaussianBlur in="shadowOffsetOuter1" result="shadowBlurOuter1" stdDeviation="1"/>
      <feColorMatrix in="shadowBlurOuter1" values="0 0 0 0 0   0 0 0 0 0   0 0 0 0 0  0 0 0 0.2 0"/>
    </filter>
  </defs>
  <g fill="none" fill-rule="evenodd">
    <g transform="translate(16 10)">
      <use fill="#000" filter="url(#text-x-sql-a)" xlink:href="#text-x-sql-b"/>
      <use fill="#F9FBFB" xlink:href="#text-x-sql-b"/>
      <path fill="#000" fill-opacity=".2" fill-rule="nonzero" d="M65,-1 L-1,-1 L-1,79 L65,79 L65,-1 Z M64,0 L64,78 L0,78 L0,0 L64,0 Z"/>
    </g>
    <path fill="#8DB479" d="M62.9925801,32 C65.2068258,32 67,33.7877368 67,36.0016655 L67,37.9983345 C67,39.1940092 66.4752475,40.2668715 65.6431839,41.0000175 C66.4751123,41.730811 67,42.803862 67,44.0016655 L67,45.9983345 C67,47.1940092 66.4752475,48.2668715 65.6431839,49.0000175 C66.4751123,49.730811 67,50.803862 67,52.0016655 L67,53.9983345 C67,55.1940092 66.4752475,56.2668715 65.6431839,57.0000175 C66.4751123,57.730811 67,58.803862 67,60.0016655 L67,61.9983345 C67,64.2090948 65.2060441,66 62.9925801,66 L33.0074199,66 C30.7931742,66 29,64.2122632 29,61.9983345 L29,60.0016655 C29,58.8059908 29.5247525,57.7331285 30.3568161,56.9999825 C29.5248877,56.269189 29,55.196138 29,53.9983345 L29,52.0016655 C29,50.8059908 29.5247525,49.7331285 30.3568161,48.9999825 C29.5248877,48.269189 29,47.196138 29,45.9983345 L29,44.0016655 C29,42.8059908 29.5247525,41.7331285 30.3568161,40.9999825 C29.5248877,40.269189 29,39.196138 29,37.9983345 L29,36.0016655 C29,33.7909052 30.7939559,32 33.0074199,32 L62.9925801,32 Z M62.9925801,58 L33.0074199,58 C31.8977641,58 31,58.8962374 31,60.0016655 L31,61.9983345 C31,63.1063318 31.8963863,64 33.0074199,64 L62.9925801,64 C64.1022359,64 65,63.1037626 65,61.9983345 L65,60.0016655 C65,58.8936682 64.1036137,58 62.9925801,58 Z M58.9999593,60 C59.5522441,59.9999775 59.9999775,60.4476746 60,60.9999593 C60.0000209,61.5127951 59.6139979,61.9354822 59.1166615,61.9932675 L59.0000407,62 L53.0000407,62.0002441 C52.4477559,62.0002666 52.0000225,61.5525696 52,61.0002848 C51.9999791,60.487449 52.3860021,60.064762 52.8833385,60.0069766 L52.9999593,60.0002441 L58.9999593,60 Z M62.9925801,50 L33.0074199,50 C31.8977641,50 31,50.8962374 31,52.0016655 L31,53.9983345 C31,55.1063318 31.8963863,56 33.0074199,56 L62.9925801,56 C64.1022359,56 65,55.1037626 65,53.9983345 L65,52.0016655 C65,50.8936682 64.1036137,50 62.9925801,50 Z M58.9999593,52 C59.5522441,51.9999775 59.9999775,52.4476746 60,52.9999593 C60.0000209,53.5127951 59.6139979,53.9354822 59.1166615,53.9932675 L59.0000407,54 L53.0000407,54.0002441 C52.4477559,54.0002666 52.0000225,53.5525696 52,53.0002848 C51.9999791,52.487449 52.3860021,52.064762 52.8833385,52.0069766 L52.9999593,52.0002441 L58.9999593,52 Z M62.9925801,42 L33.0074199,42 C31.8977641,42 31,42.8962374 31,44.0016655 L31,45.9983345 C31,47.1063318 31.8963863,48 33.0074199,48 L62.9925801,48 C64.1022359,48 65,47.1037626 65,45.9983345 L65,44.0016655 C65,42.8936682 64.1036137,42 62.9925801,42 Z M58.9999593,44 C59.5522441,43.9999775 59.9999775,44.4476746 60,44.9999593 C60.0000209,45.5127951 59.6139979,45.9354822 59.1166615,45.9932675 L59.0000407,46 L53.0000407,46.0002441 C52.4477559,46.0002666 52.0000225,45.5525696 52,45.0002848 C51.9999791,44.487449 52.3860021,44.064762 52.8833385,44.0069766 L52.9999593,44.0002441 L58.9999593,44 Z M62.9925801,34 L33.0074199,34 C31.8977641,34 31,34.8962374 31,36.0016655 L31,37.9983345 C31,39.1063318 31.8963863,40 33.0074199,40 L62.9925801,40 C64.1022359,40 65,39.1037626 65,37.9983345 L65,36.0016655 C65,34.8936682 64.1036137,34 62.9925801,34 Z M58.9999593,36 C59.5522441,35.9999775 59.9999775,36.4476746 60,36.9999593 C60.0000209,37.5127951 59.6139979,37.9354822 59.1166615,37.9932675 L59.0000407,38 L53.0000407,38.0002441 C52.4477559,38.0002666 52.0000225,37.5525696 52,37.0002848 C51.9999791,36.487449 52.3860021,36.064762 52.8833385,36.0069766 L52.9999593,36.0002441 L58.9999593,36 Z"/>
  </g>
</svg>
