<svg xmlns="http://www.w3.org/2000/svg" xmlns:xlink="http://www.w3.org/1999/xlink" width="96" height="96" viewBox="0 0 96 96">
  <defs>
    <rect id="text-x-bibtex-b" width="64" height="78" x="0" y="0"/>
    <filter id="text-x-bibtex-a" width="110.9%" height="109%" x="-5.5%" y="-3.2%" filterUnits="objectBoundingBox">
      <feOffset dy="1" in="SourceAlpha" result="shadowOffsetOuter1"/>
      <feGaussianBlur in="shadowOffsetOuter1" result="shadowBlurOuter1" stdDeviation="1"/>
      <feColorMatrix in="shadowBlurOuter1" values="0 0 0 0 0   0 0 0 0 0   0 0 0 0 0  0 0 0 0.2 0"/>
    </filter>
  </defs>
  <g fill="none" fill-rule="evenodd">
    <g transform="translate(16 10)">
      <use fill="#000" filter="url(#text-x-bibtex-a)" xlink:href="#text-x-bibtex-b"/>
      <use fill="#F9FBFB" xlink:href="#text-x-bibtex-b"/>
      <path fill="#000" fill-opacity=".2" fill-rule="nonzero" d="M65,-1 L-1,-1 L-1,79 L65,79 L65,-1 Z M64,0 L64,78 L0,78 L0,0 L64,0 Z"/>
    </g>
    <path fill="#2A4052" fill-opacity=".6" d="M72.7947972,38 L72.7947972,39.5700124 C70.5366394,39.5997503 69.5488189,39.9969253 69.0349327,40.5377322 L68.9158739,40.6757967 L68.9158739,40.6757967 L68.8628856,40.7468304 L64.2821148,47.3155599 L71.0895102,57.1929538 L71.1619967,57.2935538 L71.1619967,57.2935538 L71.3012863,57.4749846 C71.6894984,57.95293 72.0472794,58.1309373 72.9949509,58.1871624 L73.354927,58.20224 L73.354927,58.20224 L73.769951,58.2089448 L73.769951,58.2089448 L74,58.2097013 L74,60 C73.7495412,59.980572 73.4317099,59.974096 73.089569,59.974096 L72.3856337,59.9808118 L72.3856337,59.9808118 L71.3756489,59.9980812 C71.2744642,59.9992804 71.178553,60 71.0895102,60 L70.4065153,59.9944047 L70.4065153,59.9944047 L68.8162677,59.9748213 C68.4148452,59.972723 68.027285,59.9748213 67.6912922,59.985837 L67.373885,60 L67.373885,58.2097013 C68.3940567,58.1501771 68.6999213,57.6787208 68.7323754,57.4218569 L68.7350297,57.3454377 L68.7350297,57.3454377 L68.7263348,57.2754379 C68.711286,57.2091698 68.6711558,57.1173855 68.5641419,56.9574942 L63.1056668,49.0008508 L58.1535835,56.1697578 C57.9973072,56.3880132 57.8460318,56.6062685 57.8460318,57.0030964 C57.8460318,57.4687856 58.0918863,58.0411378 58.9192187,58.1832649 L59.0812396,58.2047409 L59.0812396,60 L58.8181317,59.9878401 L58.8181317,59.9878401 L58.2309866,59.9747931 L58.2309866,59.9747931 L56.5558079,59.9609277 L56.5558079,59.9609277 L56.0666175,59.9602752 L56.0678062,66 L39.4000015,66 L39.4000015,64.2017685 L40.1839675,64.1984966 L40.1839675,64.1984966 L40.5085781,64.1907258 C40.5591599,64.1888853 40.608019,64.1867381 40.655211,64.1842331 L40.9188046,64.1644993 C41.6929949,64.0858199 41.9056354,63.8410394 41.9391162,63.0795001 L41.9441796,62.8214274 L41.9441796,46.9323482 L41.939054,46.6743057 C41.9051931,45.9128553 41.6905678,45.6681034 40.9165992,45.5894332 L40.6531534,45.5697017 L40.6531534,45.5697017 L40.349872,45.558558 L40.349872,45.558558 L39.8144627,45.5525773 L39.8144627,45.5525773 L39.4000015,45.5521683 L39.4000015,44 L41.6806957,43.9999237 L41.6333069,43.5274743 L41.6333069,43.5274743 L41.5822652,43.0921009 L41.5822652,43.0921009 L41.5263585,42.6922891 C41.5067774,42.5647771 41.4861836,42.4429397 41.464375,42.3265243 L41.3951029,41.9932919 C41.0529412,40.5117603 40.4330965,40.0434788 38.9813428,39.8957878 L38.6573174,39.8687943 L38.6573174,39.8687943 L38.3066136,39.8501002 L38.3066136,39.8501002 L37.9280195,39.838191 L37.9280195,39.838191 L37.3051829,39.8297357 L37.3051829,39.8297357 L34.4518593,39.8281139 C33.9739217,39.9354838 33.9056449,40.2214145 33.8958911,40.7280784 L33.8959316,56.9455671 L33.8959316,56.9455671 L33.9032582,57.1272916 L33.9032582,57.1272916 L33.9197377,57.292206 C33.9938051,57.8146078 34.2786297,58.0674058 35.3562888,58.1562616 L35.7039536,58.1781057 L35.7039536,58.1781057 L36.102681,58.1907473 L36.102681,58.1907473 L36.5559634,58.1948202 L37.4198587,58.1948202 L37.4198587,60 C35.935859,59.971354 34.3830977,59.9415919 32.869093,59.9415919 C31.7298388,59.9415919 30.57441,59.9583331 29.4413092,59.9787887 L28.317077,60 L28.317077,58.1948202 L29.4331773,58.1938152 L29.4331773,58.1938152 L29.8651604,58.1855372 C29.9325918,58.1834346 29.9977895,58.1809619 30.0608275,58.1781057 L30.4137286,58.1562616 C31.5623081,58.062963 31.8235704,57.7889182 31.8815788,57.2118105 L31.8932128,57.0385703 L31.8932128,57.0385703 L31.8976795,56.7463984 L31.8976795,56.7463984 L31.8976795,41 C31.8976795,40.3436396 31.633548,39.974944 31.1223474,39.8521138 L31,39.8281139 L28.1502652,39.8297011 L28.1502652,39.8297011 L27.7480074,39.8338597 L27.7480074,39.8338597 L27.3747982,39.8419677 L27.3747982,39.8419677 L27.029424,39.8553157 L27.029424,39.8553157 L26.7106712,39.8751943 C26.6087223,39.8830523 26.5110079,39.8922138 26.417326,39.902894 L26.1481747,39.9397053 C25.1183394,40.1068948 24.640031,40.523738 24.3637115,41.5619178 L24.2986375,41.8346223 C24.278214,41.9299821 24.2589909,42.0298718 24.2407659,42.1345065 L24.1888833,42.4628608 L24.1888833,42.4628608 L24.1417758,42.8209758 L24.1417758,42.8209758 L24.0774131,43.4167728 L24.0774131,43.4167728 L24.0169676,44.0867908 L24.0169676,44.0867908 L23.9563432,44.8353855 L23,44.8353855 L23.3999996,38.0434455 L42,38.0434455 L43,44 L41.6806957,43.9999237 L41.6818325,44.0120983 L41.6818325,44.0120983 L42.5,44.0120983 L43,44 L56.0678062,44 L56.0678062,51.5008295 L55.2614205,51.5008295 L55.1550777,50.5854706 L55.1550777,50.5854706 L55.0964757,50.1575885 L55.0964757,50.1575885 L55.0322706,49.7494349 C55.0210202,49.6830477 55.0094744,49.6174782 54.9976022,49.5527243 L54.9222043,49.1739717 C54.4034371,46.7754769 53.2939763,45.6110701 49.756158,45.5543488 L49.4791975,45.5521683 L45.0912949,45.5531071 L45.0912949,45.5531071 L44.8197801,45.5616926 C44.1601146,45.5984238 43.9997457,45.7560395 43.9619847,46.2791791 L43.9528359,46.4929683 L43.9528359,46.4929683 L43.9507673,46.7438921 L43.9507673,54.3542701 L46.8712587,54.3542701 C48.9605333,54.3542701 49.3952164,53.8211676 49.4734078,52.5847067 L49.485443,52.2982905 C49.4866468,52.2486018 49.4874934,52.1979309 49.4880488,52.1462692 L49.4791975,50.7642177 L50.5681308,50.7642177 L50.5681308,60 L49.4791975,60 L49.4884799,58.8886509 L49.4884799,58.8886509 L49.4880488,58.5564007 L49.4810733,58.2435532 C49.479206,58.193039 49.4769464,58.1433407 49.4742348,58.0944623 L49.4520633,57.8110597 C49.3330975,56.6714586 48.8569188,56.0489716 47.0895949,56.0027738 L46.8712587,56 L43.9507673,56 L43.9528359,63.2556628 L43.9528359,63.2556628 L43.9619847,63.473369 C43.9973856,63.972643 44.1405474,64.1436842 44.701852,64.1935731 L44.9494105,64.207558 L44.9494105,64.207558 L45.2459852,64.2115652 L50.0805003,64.2091745 L50.0805003,64.2091745 L50.5777926,64.2014816 L50.5777926,64.2014816 L51.0365689,64.1877048 L51.0365689,64.1877048 L51.4585628,64.1670626 L51.4585628,64.1670626 L51.845508,64.1387737 L51.845508,64.1387737 L52.1991384,64.1020564 C53.7181168,63.9166925 54.2778147,63.4515795 54.5891563,62.3862513 L54.6545441,62.1395014 L54.6545441,62.1395014 L54.7134892,61.8722098 C54.7228729,61.825906 54.7320603,61.7787137 54.7410876,61.7306166 L54.7936195,61.4310472 L54.7936195,61.4310472 L54.8690058,60.9392699 L54.8690058,60.9392699 L55,60 L55,60 C55,59.9914213 55.0107861,59.9841026 55.02919,59.9778589 L55.1040862,59.9621673 L55.1040862,59.9621673 L56.0666175,59.9602752 L56.0678062,59.9415919 L55.3903082,59.9432115 L55.3903082,59.9432115 L55.1721516,59.954549 C55.1480483,59.9567085 55.1250175,59.959228 55.1040862,59.9621673 L54.038779,59.9758555 L54.038779,59.9758555 L53.5470085,59.9906837 L53.5470085,59.9906837 L53.3915322,60 L53.3915322,58.2047409 L53.6279337,58.2013268 L53.6279337,58.2013268 L53.8322171,58.1910622 C53.8690572,58.1885392 53.9072299,58.1855542 53.9466393,58.1820232 L54.1971707,58.1536146 C55.0326639,58.0386571 56.2454682,57.6660356 57.1785375,56.4602785 L57.3234438,56.2628884 L62.7093501,48.4589203 L57.3234438,40.7468304 C56.6755717,39.8434154 55.6158989,39.5955318 54.0604473,39.5719413 L53.7966004,39.5700124 L53.7966004,38 C54.0208881,38.0174842 54.317188,38.0297231 54.6437442,38.0382903 L55.672426,38.0545506 L55.672426,38.0545506 L57.2970991,38.0581667 L58.4897877,38.0528583 L58.4897877,38.0528583 L59.3101519,38.0406043 C59.5781056,38.0348493 59.8370118,38.0272205 60.076231,38.0171079 L60.4189647,38 L60.4189647,39.5700124 C59.6163297,39.5700124 59.5378145,39.7476698 59.603424,39.9495336 L59.6359797,40.0312063 L59.6359797,40.0312063 L59.6756598,40.1132787 C59.7161525,40.1948234 59.7549588,40.2736939 59.7549588,40.3400694 L59.7748638,40.381252 L59.7748638,40.381252 L59.9241238,40.6284322 L59.9241238,40.6284322 L61.4038176,42.9368624 L61.4038176,42.9368624 L63.8820474,46.7438921 L67.1050898,42 L67.3162057,41.6957639 L67.3162057,41.6957639 L67.4965533,41.4191995 C67.7444267,41.0269407 68,40.5659713 68,40.3400694 L68.0012994,40.0539164 C67.9900338,39.7886525 67.8918166,39.6602988 67.2604556,39.5861893 L67.1050898,39.5700124 L67.1050898,38 C67.3365037,38.0174842 67.6128127,38.0297231 67.9137971,38.0382903 L68.5426754,38.0509954 L68.5426754,38.0509954 L69.8540511,38.0582222 L69.8540511,38.0582222 L71.0498599,38.0559132 L71.0498599,38.0559132 L71.6713974,38.0479078 C71.9816287,38.0418571 72.2839771,38.0322768 72.5465981,38.0171079 L72.7947972,38 Z"/>
  </g>
</svg>
