<svg xmlns="http://www.w3.org/2000/svg" xmlns:xlink="http://www.w3.org/1999/xlink" width="96" height="96" viewBox="0 0 96 96">
  <defs>
    <rect id="vcalendar-b" width="64" height="78" x="0" y="0"/>
    <filter id="vcalendar-a" width="110.9%" height="109%" x="-5.5%" y="-3.2%" filterUnits="objectBoundingBox">
      <feOffset dy="1" in="SourceAlpha" result="shadowOffsetOuter1"/>
      <feGaussianBlur in="shadowOffsetOuter1" result="shadowBlurOuter1" stdDeviation="1"/>
      <feColorMatrix in="shadowBlurOuter1" values="0 0 0 0 0   0 0 0 0 0   0 0 0 0 0  0 0 0 0.2 0"/>
    </filter>
  </defs>
  <g fill="none" fill-rule="evenodd">
    <g transform="translate(16 10)">
      <use fill="#000" filter="url(#vcalendar-a)" xlink:href="#vcalendar-b"/>
      <use fill="#F9FBFB" xlink:href="#vcalendar-b"/>
      <path fill="#000" fill-opacity=".2" fill-rule="nonzero" d="M65,-1 L-1,-1 L-1,79 L65,79 L65,-1 Z M64,0 L64,78 L0,78 L0,0 L64,0 Z"/>
    </g>
    <path fill="#2A4052" fill-opacity=".6" d="M36,36 L36,36.9983345 C36,38.642909 37.3431458,40 39,40 C40.6684055,40 42,38.6561086 42,36.9983345 L42,36 L54,36 L54,36.9983345 C54,38.642909 55.3431458,40 57,40 C58.6684055,40 60,38.6561086 60,36.9983345 L60,36 L64.0132046,36 C65.1104814,36 66,36.8892617 66,38.0017433 L66,65.9982567 C66,67.103789 65.1101074,68 64.0132046,68 L31.9867954,68 C30.8895186,68 30,67.1107383 30,65.9982567 L30,38.0017433 C30,36.896211 30.8898926,36 31.9867954,36 L36,36 Z M64,42 L32,42 L32,66 L64,66 L64,42 Z M50,56 L50,60 L46,60 L46,56 L50,56 Z M40,56 L40,60 L36,60 L36,56 L40,56 Z M60,56 L60,60 L56,60 L56,56 L60,56 Z M40,48 L40,52 L36,52 L36,48 L40,48 Z M50,48 L50,52 L46,52 L46,48 L50,48 Z M60,48 L60,52 L56,52 L56,48 L60,48 Z M39,32 C39.5522847,32 40,32.4509752 40,32.990778 L40,37.009222 C40,37.5173285 39.6172798,37.9361019 39.1173326,37.9933343 L39,38 C38.4477153,38 38,37.5490248 38,37.009222 L38,32.990778 C38,32.4826715 38.3827202,32.0638981 38.8826674,32.0066657 L39,32 Z M57,32 C57.5522847,32 58,32.4509752 58,32.990778 L58,37.009222 C58,37.5173285 57.6172798,37.9361019 57.1173326,37.9933343 L57,38 C56.4477153,38 56,37.5490248 56,37.009222 L56,32.990778 C56,32.4826715 56.3827202,32.0638981 56.8826674,32.0066657 L57,32 Z"/>
  </g>
</svg>
