<svg xmlns="http://www.w3.org/2000/svg" xmlns:xlink="http://www.w3.org/1999/xlink" width="96" height="96" viewBox="0 0 96 96">
  <defs>
    <rect id="video-x-mp4-b" width="64" height="78" x="0" y="0"/>
    <filter id="video-x-mp4-a" width="110.9%" height="109%" x="-5.5%" y="-3.2%" filterUnits="objectBoundingBox">
      <feOffset dy="1" in="SourceAlpha" result="shadowOffsetOuter1"/>
      <feGaussianBlur in="shadowOffsetOuter1" result="shadowBlurOuter1" stdDeviation="1"/>
      <feColorMatrix in="shadowBlurOuter1" values="0 0 0 0 0   0 0 0 0 0   0 0 0 0 0  0 0 0 0.2 0"/>
    </filter>
  </defs>
  <g fill="none" fill-rule="evenodd">
    <g transform="translate(16 10)">
      <use fill="#000" filter="url(#video-x-mp4-a)" xlink:href="#video-x-mp4-b"/>
      <use fill="#F9FBFB" xlink:href="#video-x-mp4-b"/>
      <path fill="#000" fill-opacity=".2" fill-rule="nonzero" d="M65,-1 L-1,-1 L-1,79 L65,79 L65,-1 Z M64,0 L64,78 L0,78 L0,0 L64,0 Z"/>
    </g>
    <path fill="#DC7692" d="M50,68 C52.7614237,68 54,70 54,72 C54,74 52.7806759,76 50,76 L48.0023122,76 L48.0023122,80 L46,80 L46,68 L50,68 Z M61,68 L61,76 L63,76 L63,78 L61,78 L61,80 L59,80 L59,78 L54,78 L54,76 L59,68 L61,68 Z M36,68 L39,75.5 L42,68 L44,68 L44,80 L42,80 L42,73 L40,78 L38,78 L36,73 L36,80 L34,80 L34,68 L36,68 Z M59,71.739 L56.3399986,76 L59,76 L59,71.739 Z M50,70 L48,70 L48,74 L50,74 C51.1121754,74 52,73.1098078 52,72 C52,70.8878246 51.1098078,70 50,70 Z M48,28 C57.9252,28 66,36.0748 66,46 C66,55.9252 57.9252,64 48,64 C38.0748,64 30,55.9252 30,46 C30,36.0748 38.0748,28 48,28 Z M48,30 C39.1786667,30 32,37.1768889 32,46 C32,54.8231111 39.1786667,62 48,62 C56.8213333,62 64,54.8231111 64,46 C64,37.1768889 56.8213333,30 48,30 Z M42.986,36.038 L51.522,40.794 L59.848,45.53 C60.254,45.76 60.254,46.346 59.848,46.574 L51.488,51.292 L42.986,56.048 C42.586,56.27 42.162,55.98 42.162,55.524 L42.162,36.562 C42.162,36.104 42.586,35.816 42.986,36.038 Z"/>
  </g>
</svg>
