<svg xmlns="http://www.w3.org/2000/svg" xmlns:xlink="http://www.w3.org/1999/xlink" width="96" height="96" viewBox="0 0 96 96">
  <defs>
    <rect id="x-content-blank-cd-b" width="64" height="78" x="0" y="0"/>
    <filter id="x-content-blank-cd-a" width="110.9%" height="109%" x="-5.5%" y="-3.2%" filterUnits="objectBoundingBox">
      <feOffset dy="1" in="SourceAlpha" result="shadowOffsetOuter1"/>
      <feGaussianBlur in="shadowOffsetOuter1" result="shadowBlurOuter1" stdDeviation="1"/>
      <feColorMatrix in="shadowBlurOuter1" values="0 0 0 0 0   0 0 0 0 0   0 0 0 0 0  0 0 0 0.2 0"/>
    </filter>
  </defs>
  <g fill="none" fill-rule="evenodd">
    <g transform="translate(16 10)">
      <use fill="#000" filter="url(#x-content-blank-cd-a)" xlink:href="#x-content-blank-cd-b"/>
      <use fill="#F9FBFB" xlink:href="#x-content-blank-cd-b"/>
      <path fill="#000" fill-opacity=".2" fill-rule="nonzero" d="M65,-1 L-1,-1 L-1,79 L65,79 L65,-1 Z M64,0 L64,78 L0,78 L0,0 L64,0 Z"/>
    </g>
    <path fill="#2A4052" fill-opacity=".6" d="M48,30 C57.9411255,30 66,38.0588745 66,48 C66,57.9411255 57.9411255,66 48,66 C38.0588745,66 30,57.9411255 30,48 C30,38.0588745 38.0588745,30 48,30 Z M48,40 C43.581722,40 40,43.581722 40,48 C40,52.418278 43.581722,56 48,56 C52.418278,56 56,52.418278 56,48 C56,43.581722 52.418278,40 48,40 Z M48,42 C51.3137085,42 54,44.6862915 54,48 C54,51.3137085 51.3137085,54 48,54 C44.6862915,54 42,51.3137085 42,48 C42,44.6862915 44.6862915,42 48,42 Z M48,44 C45.790861,44 44,45.790861 44,48 C44,50.209139 45.790861,52 48,52 C50.209139,52 52,50.209139 52,48 C52,45.790861 50.209139,44 48,44 Z M48,34 C40.2680135,34 34,40.2680135 34,48 C34,48.5522847 34.4477153,49 35,49 C35.5522847,49 36,48.5522847 36,48 C36,41.372583 41.372583,36 48,36 C48.5522847,36 49,35.5522847 49,35 C49,34.4477153 48.5522847,34 48,34 Z"/>
  </g>
</svg>
