<?xml version="1.0" encoding="UTF-8"?>
<svg width="24px" height="24px" viewBox="0 0 24 24" version="1.1" xmlns="http://www.w3.org/2000/svg" xmlns:xlink="http://www.w3.org/1999/xlink">
    <!-- Generator: Sketch 49.3 (51167) - http://www.bohemiancoding.com/sketch -->
    <title>dde-introduction</title>
    <desc>Created with Sketch.</desc>
    <defs>
        <circle id="path-1" cx="12.5" cy="12.5" r="10.5"></circle>
        <filter x="-7.1%" y="-7.1%" width="114.3%" height="114.3%" filterUnits="objectBoundingBox" id="filter-2">
            <feOffset dx="0" dy="0" in="SourceAlpha" result="shadowOffsetOuter1"></feOffset>
            <feGaussianBlur stdDeviation="0.5" in="shadowOffsetOuter1" result="shadowBlurOuter1"></feGaussianBlur>
            <feComposite in="shadowBlurOuter1" in2="SourceAlpha" operator="out" result="shadowBlurOuter1"></feComposite>
            <feColorMatrix values="0 0 0 0 0   0 0 0 0 0   0 0 0 0 0  0 0 0 0.15 0" type="matrix" in="shadowBlurOuter1"></feColorMatrix>
        </filter>
        <linearGradient x1="42.15262%" y1="0%" x2="42.1526194%" y2="100%" id="linearGradient-3">
            <stop stop-color="#30FFAF" offset="0%"></stop>
            <stop stop-color="#08C5FF" offset="100%"></stop>
        </linearGradient>
        <path d="M13.3184329,1.34507822 L13.3184329,1.34507822 C15.9625121,1.34507822 18.1080727,3.48452865 18.1156134,6.12859704 L18.1426343,15.6032015 C18.1442093,16.155484 17.6977727,16.6044742 17.1454902,16.6060493 C17.1420889,16.606059 17.1386875,16.6060514 17.1352862,16.6060263 L8.46756434,16.5422983 L8.51370169,6.12856955 C8.52542139,3.48329901 10.6731364,1.34507822 13.3184329,1.34507822 Z" id="path-4"></path>
        <rect id="path-5" x="11.6373877" y="10.2157712" width="5.73830436" height="1"></rect>
        <rect id="path-6" x="10.1340667" y="11.7740309" width="5.73830436" height="1"></rect>
        <path d="M6.89293108,8.4790747 L6.89293108,8.4790747 C7.71340962,8.4790747 8.37853889,9.14420397 8.37853889,9.96468251 C8.37853889,9.96554978 8.37853813,9.96641705 8.37853661,9.96728432 L8.37408642,12.5082874 L5.54140062,12.4632632 L5.4557437,9.96641164 C5.4285138,9.17267497 6.0498903,8.50715007 6.84362697,8.47992016 C6.86005563,8.47935656 6.87649275,8.4790747 6.89293108,8.4790747 Z" id="path-7"></path>
        <path d="M8.72096256,10.3603088 L8.72096256,10.3603088 C9.5033717,10.3603088 10.1376396,10.9945767 10.1376396,11.7769858 C10.1376396,11.7772083 10.1376396,11.7774308 10.1376395,11.7776533 L10.1364591,14.282951 L7.31908298,14.3302553 L7.30913917,11.7776427 C7.3061017,10.9979142 7.93573422,10.363357 8.71546275,10.3603195 C8.71729601,10.3603123 8.71912928,10.3603088 8.72096256,10.3603088 Z" id="path-8"></path>
        <path d="M10.2521181,11.928092 L10.2521181,11.928092 C11.034896,11.928092 11.6694628,12.5626588 11.6694628,13.3454367 L11.6694628,15.8213165 L8.83477345,15.8213165 L8.83477345,13.3454367 C8.83477345,12.5626588 9.46934028,11.928092 10.2521181,11.928092 Z" id="path-9"></path>
        <path d="M11.8055499,13.5382937 L11.8055499,13.5382937 C12.6274666,13.5382937 13.2937618,14.2045888 13.2937618,15.0265056 L13.2937618,16.4315182 C13.2937618,16.9838029 12.8460465,17.4315182 12.2937618,17.4315182 L10.317338,17.4315182 L10.317338,15.0265056 C10.317338,14.2045888 10.9836331,13.5382937 11.8055499,13.5382937 Z" id="path-10"></path>
        <path d="M11.9952232,3.65014794 L11.9952232,6.48363303 C11.9952232,8.00505445 10.8847312,9.2384102 9.51486997,9.2384102 L9.51486997,3.65014794" id="path-11"></path>
    </defs>
    <g id="dde-introduction" stroke="none" stroke-width="1" fill="none" fill-rule="evenodd">
        <g id="Oval">
            <use fill="black" fill-opacity="1" filter="url(#filter-2)" xlink:href="#path-1"></use>
            <use fill-opacity="0.1" fill="#000000" fill-rule="evenodd" xlink:href="#path-1"></use>
        </g>
        <circle id="Oval" fill="url(#linearGradient-3)" cx="12" cy="12" r="11"></circle>
        <g id="Group" transform="translate(0.500000, 3.000000)">
            <g id="Rectangle" transform="translate(13.305101, 8.975566) rotate(-315.000000) translate(-13.305101, -8.975566) ">
                <use fill="#404040" fill-rule="evenodd" xlink:href="#path-4"></use>
                <path stroke="#373737" stroke-width="0.6" d="M8.76888664,16.2445057 L17.1374918,16.3060345 C17.1410632,16.3060546 17.1410632,16.3060546 17.1446347,16.3060505 C17.5312324,16.304948 17.843738,15.9906548 17.8426355,15.604057 L17.8156146,6.12945261 C17.8085455,3.65073495 15.7971607,1.64507822 13.3184329,1.64507822 C10.838303,1.64507822 8.82468669,3.64979312 8.81369875,6.12989866 L8.76888664,16.2445057 Z"></path>
            </g>
            <path d="M7.29999312,3.97033853 L16.0452972,3.97033853 C16.597582,3.97033853 17.0452972,4.41805378 17.0452972,4.97033853 L17.0452972,12.9604995 C17.0452972,13.5127843 16.597582,13.9604995 16.0452972,13.9604995 L7.29999312,13.9604995 C4.54128633,13.9604995 2.30491262,11.7241258 2.30491262,8.96541903 L2.30491262,8.96541903 C2.30491262,6.20671225 4.54128633,3.97033853 7.29999312,3.97033853 Z" id="Rectangle-13" fill="#FFFFFF" transform="translate(9.675105, 8.965419) rotate(-315.000000) translate(-9.675105, -8.965419) "></path>
            <g id="Rectangle-2" transform="translate(14.506540, 10.583056) rotate(-315.000000) translate(-14.506540, -10.583056) ">
                <use fill="#606060" fill-rule="evenodd" xlink:href="#path-5"></use>
                <rect stroke="#373737" stroke-width="0.7" x="11.9873877" y="10.5657712" width="5.03830436" height="1"></rect>
            </g>
            <g id="Rectangle-2" transform="translate(13.003219, 12.141316) rotate(-315.000000) translate(-13.003219, -12.141316) ">
                <use fill="#606060" fill-rule="evenodd" xlink:href="#path-6"></use>
                <rect stroke="#373737" stroke-width="0.7" x="10.4840667" y="12.1240309" width="5.03830436" height="1"></rect>
            </g>
            <g id="Rectangle-14" transform="translate(6.916710, 10.493681) rotate(-315.000000) translate(-6.916710, -10.493681) ">
                <use fill="#404040" fill-rule="evenodd" xlink:href="#path-7"></use>
                <path stroke="#373737" stroke-width="0.7" d="M5.87978242,12.1185974 L8.02470866,12.15269 L8.02853715,9.96667135 C8.0285386,9.96567693 8.0285386,9.96567693 8.02853889,9.96468251 C8.02853889,9.33750363 7.52010995,8.8290747 6.89293108,8.8290747 C6.87427538,8.82918133 6.87427538,8.82918133 6.855627,8.82971439 C6.25507635,8.85031686 5.78493546,9.35386096 5.80553793,9.95441161 L5.87978242,12.1185974 Z"></path>
            </g>
            <g id="Rectangle-14" transform="translate(8.723384, 12.345282) rotate(-315.000000) translate(-8.723384, -12.345282) ">
                <use fill="#404040" fill-rule="evenodd" xlink:href="#path-8"></use>
                <path stroke="#373737" stroke-width="0.7" d="M7.6676992,13.9743526 L9.78662123,13.9387755 L9.78763951,11.7774884 C9.7876396,11.7772371 9.7876396,11.7772371 9.78763962,11.7769858 C9.78763962,11.1878764 9.31007204,10.7103088 8.72096256,10.7103088 C8.71889436,10.7103101 8.71889436,10.7103101 8.71682617,10.7103168 C8.13039584,10.7126013 7.65685205,11.1898489 7.65913651,11.7762793 L7.6676992,13.9743526 Z"></path>
            </g>
            <g id="Rectangle-14" transform="translate(10.252118, 13.874704) rotate(-315.000000) translate(-10.252118, -13.874704) ">
                <use fill="#404040" fill-rule="evenodd" xlink:href="#path-9"></use>
                <path stroke="#373737" stroke-width="0.7" d="M9.18477345,15.4713165 L11.3194628,15.4713165 L11.3194628,13.3454367 C11.3194628,12.7559585 10.8415963,12.278092 10.2521181,12.278092 C9.66263994,12.278092 9.18477345,12.7559585 9.18477345,13.3454367 L9.18477345,15.4713165 Z"></path>
            </g>
            <g id="Rectangle-14" transform="translate(11.805550, 15.484906) rotate(-315.000000) translate(-11.805550, -15.484906) ">
                <use fill="#404040" fill-rule="evenodd" xlink:href="#path-10"></use>
                <path stroke="#373737" stroke-width="0.7" d="M10.667338,17.0815182 L12.2937618,17.0815182 C12.6527469,17.0815182 12.9437618,16.7905033 12.9437618,16.4315182 L12.9437618,15.0265056 C12.9437618,14.3978885 12.434167,13.8882937 11.8055499,13.8882937 C11.1769328,13.8882937 10.667338,14.3978885 10.667338,15.0265056 L10.667338,17.0815182 Z"></path>
            </g>
            <g id="Rectangle-15" transform="translate(10.755047, 6.444279) rotate(-315.000000) translate(-10.755047, -6.444279) ">
                <use fill="#404040" fill-rule="evenodd" xlink:href="#path-11"></use>
                <path stroke="#373737" stroke-width="0.7" d="M11.6452232,4.00014794 L9.86486997,4.00014794 L9.86486997,8.8559276 C10.8690107,8.66767401 11.6452232,7.683276 11.6452232,6.48363303 L11.6452232,4.00014794 Z"></path>
            </g>
        </g>
    </g>
</svg>