<svg xmlns="http://www.w3.org/2000/svg" width="24" height="24" viewBox="0 0 24 24">
  <defs>
    <filter id="deepin-album-a" width="127.8%" height="125%" x="-13.9%" y="-12.5%" filterUnits="objectBoundingBox">
      <feOffset in="SourceAlpha" result="shadowOffsetOuter1"/>
      <feGaussianBlur in="shadowOffsetOuter1" result="shadowBlurOuter1" stdDeviation=".5"/>
      <feColorMatrix in="shadowBlurOuter1" result="shadowMatrixOuter1" values="0 0 0 0 0   0 0 0 0 0   0 0 0 0 0  0 0 0 0.15 0"/>
      <feMerge>
        <feMergeNode in="shadowMatrixOuter1"/>
        <feMergeNode in="SourceGraphic"/>
      </feMerge>
    </filter>
    <linearGradient id="deepin-album-b" x1="50%" x2="50%" y1="0%" y2="100%">
      <stop offset="0%" stop-color="#FFF"/>
      <stop offset="100%" stop-color="#94A1A6"/>
    </linearGradient>
    <linearGradient id="deepin-album-c" x1="50%" x2="50%" y1="-16.819%" y2="98.139%">
      <stop offset="0%" stop-color="#F7F7F7"/>
      <stop offset="100%" stop-color="#EDEDED"/>
    </linearGradient>
    <linearGradient id="deepin-album-d" x1="50%" x2="50%" y1="164.835%" y2="0%">
      <stop offset="0%" stop-color="#D14848"/>
      <stop offset="0%" stop-color="#D54F42"/>
      <stop offset="100%" stop-color="#FF9E00"/>
    </linearGradient>
    <linearGradient id="deepin-album-e" x1="8.959%" x2="100%" y1="9.888%" y2="119.966%">
      <stop offset="0%" stop-color="#E1A836"/>
      <stop offset="100%" stop-color="#BE5A6F"/>
    </linearGradient>
  </defs>
  <g fill="none" fill-rule="evenodd" filter="url(#deepin-album-a)" transform="translate(3 2)">
    <path fill="url(#deepin-album-b)" fill-rule="nonzero" d="M0.5625,1 L17.4375,1 C17.7481602,1 18,1.25183983 18,1.5625 L18,19.4375 C18,19.7481602 17.7481602,20 17.4375,20 L0.5625,20 C0.251839828,20 3.80448985e-17,19.7481602 0,19.4375 L0,1.5625 C-3.80448985e-17,1.25183983 0.251839828,1 0.5625,1 Z"/>
    <path fill="url(#deepin-album-c)" fill-rule="nonzero" d="M0.5625,0 L17.4375,0 C17.7481602,-5.70673477e-17 18,0.251839828 18,0.5625 L18,18.4375 C18,18.7481602 17.7481602,19 17.4375,19 L0.5625,19 C0.251839828,19 3.80448985e-17,18.7481602 0,18.4375 L0,0.5625 C-3.80448985e-17,0.251839828 0.251839828,5.70673477e-17 0.5625,0 Z"/>
    <g transform="translate(2.25 2.5)">
      <polygon fill="url(#deepin-album-d)" points="0 0 13.5 0 13.5 8.25 0 8.25"/>
      <polygon fill="#942ECF" fill-rule="nonzero" points="5.807 2.091 .75 8.841 4.09 8.841 7.5 4.289"/>
      <polygon fill="#7D44DF" fill-rule="nonzero" points="11.177 8.322 7.682 8.322 4.427 8.322 7.593 4.139"/>
      <polygon fill="url(#deepin-album-e)" fill-rule="nonzero" points="7.484 4.272 8.498 3.049 12.734 8.299 10.599 8.299"/>
    </g>
    <polygon fill="#000" fill-rule="nonzero" points="2.25 2.5 15.75 2.5 15.75 3.25 2.25 3.25" opacity=".06"/>
    <polygon fill="#FFF" fill-rule="nonzero" points="2.25 10.75 15.75 10.75 15.75 11.5 2.25 11.5"/>
    <rect width="5" height="1" x="11" y="13" fill="#A4A4A4"/>
    <rect width="9" height="1" x="7" y="15" fill="#A4A4A4"/>
  </g>
</svg>
