<svg xmlns="http://www.w3.org/2000/svg" xmlns:xlink="http://www.w3.org/1999/xlink" width="24" height="24" viewBox="0 0 24 24">
  <defs>
    <filter id="downloader-a" width="122.7%" height="122.7%" x="-11.4%" y="-11.4%" filterUnits="objectBoundingBox">
      <feOffset in="SourceAlpha" result="shadowOffsetOuter1"/>
      <feGaussianBlur in="shadowOffsetOuter1" result="shadowBlurOuter1" stdDeviation=".5"/>
      <feColorMatrix in="shadowBlurOuter1" result="shadowMatrixOuter1" values="0 0 0 0 0   0 0 0 0 0   0 0 0 0 0  0 0 0 0.15 0"/>
      <feMerge>
        <feMergeNode in="shadowMatrixOuter1"/>
        <feMergeNode in="SourceGraphic"/>
      </feMerge>
    </filter>
    <path id="downloader-b" d="M18.0045751,10.1356877 L18.1285379,10.2489968 C18.8463742,10.967031 18.8463742,12.1309846 18.1285379,12.8490188 L13.3012563,17.6776309 C12.942466,18.0365201 12.4721738,18.2160048 12.0018568,18.2160696 C11.5283327,18.2161344 11.057991,18.0367794 10.6991018,17.6779891 L10.6987437,17.6776309 L5.87146208,12.8490188 C5.15362575,12.1309846 5.15362575,10.967031 5.87146208,10.2489968 C6.58904268,9.53121846 7.75263104,9.53105812 8.47040943,10.2486387 L11.9990848,13.7795581 L15.5292324,10.2489968 C16.2069475,9.57109503 17.2824904,9.5332908 18.0045751,10.1356877 Z M15.6036415,6.11353908 L15.6061318,6.11602932 C16.0483589,6.55963736 16.0483589,7.27740459 15.6061318,7.72101262 L12.7956647,10.5422017 L12.7777272,10.5605985 L12.7777272,10.5605985 C12.5575027,10.7815106 12.2685845,10.8922454 11.9794944,10.8926961 C11.6880622,10.8931467 11.3988002,10.7833132 11.1778881,10.5630887 C11.1770567,10.5622599 11.1762266,10.5614298 11.1753978,10.5605985 L11.1593228,10.5419304 L8.34699321,7.72101262 C7.90476605,7.27740459 7.90476605,6.55963736 8.34699321,6.11602932 C8.78744217,5.67420504 9.50266595,5.67309012 9.94449023,6.11353908 C9.94532161,6.11436786 9.94615169,6.11519795 9.94698048,6.11602932 L11.9763228,8.15193035 L14.0061445,6.11602932 C14.4465935,5.67420504 15.1618173,5.67309012 15.6036415,6.11353908 Z"/>
  </defs>
  <g fill="none" fill-rule="evenodd">
    <g filter="url(#downloader-a)" transform="translate(1 1)">
      <rect width="22" height="22" fill="#000" fill-opacity=".08" fill-rule="nonzero" rx="11"/>
      <path fill="#FAFAFA" d="M11,1 C5.4771525,1 1,5.4771525 1,11 C1,16.5228475 5.4771525,21 11,21 C16.5228475,21 21,16.5228475 21,11 C21,5.4771525 16.5228475,1 11,1 Z"/>
    </g>
    <use fill="#2A9AF3" xlink:href="#downloader-b"/>
  </g>
</svg>
