<svg xmlns="http://www.w3.org/2000/svg" width="24" height="24" viewBox="0 0 24 24">
  <defs>
    <filter id="google-chrome-a" width="129.4%" height="125%" x="-14.7%" y="-12.5%" filterUnits="objectBoundingBox">
      <feOffset in="SourceAlpha" result="shadowOffsetOuter1"/>
      <feGaussianBlur in="shadowOffsetOuter1" result="shadowBlurOuter1" stdDeviation=".5"/>
      <feColorMatrix in="shadowBlurOuter1" result="shadowMatrixOuter1" values="0 0 0 0 0   0 0 0 0 0   0 0 0 0 0  0 0 0 0.15 0"/>
      <feMerge>
        <feMergeNode in="shadowMatrixOuter1"/>
        <feMergeNode in="SourceGraphic"/>
      </feMerge>
    </filter>
    <linearGradient id="google-chrome-b" x1="50%" x2="50%" y1="0%" y2="100%">
      <stop offset="0%" stop-color="#020300"/>
      <stop offset="100%" stop-color="#000200"/>
    </linearGradient>
  </defs>
  <g fill="none" fill-rule="evenodd">
    <g filter="url(#google-chrome-a)" transform="translate(4 2)">
      <path fill="#CACBCF" d="M0.5625,0 L16.4375,0 C16.7481602,-5.70673477e-17 17,0.251839828 17,0.5625 L17,19.4375 C17,19.7481602 16.7481602,20 16.4375,20 L0.5625,20 C0.251839828,20 3.80448985e-17,19.7481602 0,19.4375 L0,0.5625 C-3.80448985e-17,0.251839828 0.251839828,5.70673477e-17 0.5625,0 Z"/>
      <path fill="#CACBCF" d="M0.5625,0 L16.4375,0 C16.7481602,-5.70673477e-17 17,0.251839828 17,0.5625 L17,19.4375 C17,19.7481602 16.7481602,20 16.4375,20 L0.5625,20 C0.251839828,20 3.80448985e-17,19.7481602 0,19.4375 L0,0.5625 C-3.80448985e-17,0.251839828 0.251839828,5.70673477e-17 0.5625,0 Z"/>
      <path fill="#949496" d="M1.89181415,13 C2.97009902,14.323319 3.90071879,15.1881574 4.68367347,15.5945154 C5.78346321,16.1653126 6.88890539,16.5231284 8,16.6679629 L8,20 L0.5625,20 C0.251839828,20 3.80448985e-17,19.7481602 0,19.4375 L0,13 L0,13 L1.89181415,13 Z"/>
      <g fill-rule="nonzero" transform="translate(1.95 1.58)">
        <path fill="#49494C" d="M12.65625,6.70276717 C12.65625,10.0217266 9.92807813,12.75 6.5625,12.75 C3.19692187,12.75 0.46875,10.0217266 0.46875,6.70276717 C0.46875,3.290875 3.19692187,0.5625 6.5625,0.5625 C9.92807813,0.5625 12.65625,3.290875 12.65625,6.70276717"/>
        <g transform="translate(4.5 4.594)">
          <path fill="url(#google-chrome-b)" d="M2.0625,4.125 C0.92338125,4.125 0,3.20149253 0,2.06244844 C0,0.923507463 0.92338125,0 2.0625,0 C3.20161875,0 4.125,0.923507463 4.125,2.06244844 C4.125,3.20149253 3.20161875,4.125 2.0625,4.125 Z"/>
          <path fill="#85858A" d="M2.0625,3 C1.54471875,3 1.125,2.58022388 1.125,2.06247656 C1.125,1.54477612 1.54471875,1.125 2.0625,1.125 C2.58028125,1.125 3,1.54477612 3,2.06247656 C3,2.58022388 2.58028125,3 2.0625,3 Z"/>
        </g>
        <path fill="#595959" d="M6.5625,-3.91686683e-13 C2.93840039,-3.91686683e-13 0,2.93807227 0,6.5625 C0,10.1869277 2.93840039,13.1253281 6.5625,13.1253281 C10.1865996,13.1253281 13.125,10.1869277 13.125,6.5625 C13.125,2.93807227 10.1865996,-3.91686683e-13 6.5625,-3.91686683e-13 Z M10.5839589,10.5842872 C10.0616661,11.1065801 9.45348628,11.5167364 8.77607227,11.8038457 C8.07560742,12.0999375 7.33088672,12.2498906 6.5625,12.2498906 C5.79411328,12.2498906 5.04939258,12.0999375 4.34892773,11.8038457 C3.67151367,11.5167364 3.06333398,11.1065801 2.54104102,10.5842872 C2.0180918,10.0620352 1.60793555,9.45315825 1.32148242,8.77607227 C1.02539062,8.07560742 0.87478125,7.33092773 0.87478125,6.5625 C0.87478125,5.79440039 1.02539062,5.0497207 1.32148242,4.34892773 C1.60793555,3.6718418 2.0180918,3.06366211 2.54104102,2.54104102 C3.06333398,2.01841992 3.67151367,1.60793555 4.34892773,1.32176953 C5.04939258,1.02534961 5.79407227,0.875068359 6.5625,0.875068359 C7.33088672,0.875068359 8.07560742,1.02534961 8.77607227,1.32176953 C9.45352734,1.60793555 10.061666,2.01837891 10.5839589,2.54104102 C11.1069082,3.06366211 11.5170645,3.6718418 11.8035175,4.34892773 C12.0996094,5.0497207 12.2502188,5.79440039 12.2502188,6.5625 C12.2502188,7.33088672 12.0996094,8.07560742 11.8035175,8.77607227 C11.5170645,9.45311719 11.1069082,10.0619531 10.5839589,10.5842872 Z"/>
      </g>
      <path fill="#ECF1F6" fill-rule="nonzero" d="M2.41810344,6.46635938 L7.0403867,0.720316406 C7.10646059,0.643412109 7.14636453,0.544728516 7.14636453,0.4370625 C7.14636453,0.196095703 6.94617488,-8.84708973e-17 6.69950739,-8.84708973e-17 C6.58959359,-8.84708973e-17 6.48884976,0.0384726562 6.41096798,0.103810547 L0.544334976,4.63156641 C0.213923646,4.87060547 1.39211559e-16,5.25451172 1.39211559e-16,5.6870625 C1.39211559e-16,6.41254688 0.599940887,6.9995625 1.33990148,6.9995625 C1.78219458,6.9995625 2.17407389,6.79001367 2.41810344,6.46635938 Z" transform="translate(2.194 10.594)"/>
    </g>
    <path fill="#85858A" fill-rule="nonzero" d="M6.5,3.56278122 C6.5,3.97694038 6.16400394,4.3125 5.75,4.3125 C5.33599606,4.3125 5,3.97694038 5,3.56278122 C5,3.14862205 5.33599606,2.8125 5.75,2.8125 C6.16400394,2.8125 6.5,3.14862205 6.5,3.56278122 Z"/>
    <path fill="#636363" fill-rule="nonzero" d="M6.5,20.0627812 C6.5,20.4769404 6.16400394,20.8125 5.75,20.8125 C5.33599606,20.8125 5,20.4769404 5,20.0627812 C5,19.648622 5.33599606,19.3125 5.75,19.3125 C6.16400394,19.3125 6.5,19.648622 6.5,20.0627812 Z"/>
    <path fill="#85858A" fill-rule="nonzero" d="M20 20.0627812C20 20.4769404 19.6640039 20.8125 19.25 20.8125 18.8359961 20.8125 18.5 20.4769404 18.5 20.0627812 18.5 19.648622 18.8359961 19.3125 19.25 19.3125 19.6640039 19.3125 20 19.648622 20 20.0627812zM20 3.56278122C20 3.97694038 19.6640039 4.3125 19.25 4.3125 18.8359961 4.3125 18.5 3.97694038 18.5 3.56278122 18.5 3.14862205 18.8359961 2.8125 19.25 2.8125 19.6640039 2.8125 20 3.14862205 20 3.56278122z"/>
    <path fill="#949496" d="M14.5,18 C14.7761424,18 15,18.2238576 15,18.5 L15,20.5 C15,20.7761424 14.7761424,21 14.5,21 C14.2238576,21 14,20.7761424 14,20.5 L14,18.5 C14,18.2238576 14.2238576,18 14.5,18 Z M16.5,18 C16.7761424,18 17,18.2238576 17,18.5 L17,20.5 C17,20.7761424 16.7761424,21 16.5,21 C16.2238576,21 16,20.7761424 16,20.5 L16,18.5 C16,18.2238576 16.2238576,18 16.5,18 Z"/>
  </g>
</svg>
