<svg xmlns="http://www.w3.org/2000/svg" xmlns:xlink="http://www.w3.org/1999/xlink" width="24" height="24" viewBox="0 0 24 24">
  <defs>
    <filter id="kbox-a" width="122.7%" height="123.8%" x="-11.4%" y="-11.9%" filterUnits="objectBoundingBox">
      <feOffset in="SourceAlpha" result="shadowOffsetOuter1"/>
      <feGaussianBlur in="shadowOffsetOuter1" result="shadowBlurOuter1" stdDeviation=".5"/>
      <feColorMatrix in="shadowBlurOuter1" result="shadowMatrixOuter1" values="0 0 0 0 0   0 0 0 0 0   0 0 0 0 0  0 0 0 0.15 0"/>
      <feMerge>
        <feMergeNode in="shadowMatrixOuter1"/>
        <feMergeNode in="SourceGraphic"/>
      </feMerge>
    </filter>
    <linearGradient id="kbox-b" x1="50%" x2="50%" y1="11.664%" y2="100%">
      <stop offset="0%" stop-color="#ECCB89"/>
      <stop offset="15.474%" stop-color="#CC9A4E"/>
      <stop offset="23.345%" stop-color="#E2BB78"/>
      <stop offset="29.459%" stop-color="#E5BE7D"/>
      <stop offset="100%" stop-color="#E6BB78"/>
    </linearGradient>
    <path id="kbox-c" d="M2.5,8 L19.5,8 C19.7761424,8 20,8.22385762 20,8.5 L20,20.5 C20,20.7761424 19.7761424,21 19.5,21 L2.5,21 C2.22385762,21 2,20.7761424 2,20.5 L2,8.5 C2,8.22385762 2.22385762,8 2.5,8 Z"/>
    <filter id="kbox-d" width="105.6%" height="107.7%" x="-2.8%" y="-3.8%" filterUnits="objectBoundingBox">
      <feOffset dy="-1" in="SourceAlpha" result="shadowOffsetInner1"/>
      <feComposite in="shadowOffsetInner1" in2="SourceAlpha" k2="-1" k3="1" operator="arithmetic" result="shadowInnerInner1"/>
      <feColorMatrix in="shadowInnerInner1" values="0 0 0 0 0   0 0 0 0 0   0 0 0 0 0  0 0 0 0.196213942 0"/>
    </filter>
    <path id="kbox-e" d="M19.8709093,8 C20.0821013,8 20.3232624,8.14941707 20.4088649,8.33230202 L21.9694277,11.6663569 C22.0553404,11.8499045 21.9539394,11.9987093 21.7434808,11.9987218 L0.256703239,12 C0.0460035861,12 -0.0550488367,11.8505887 0.0303056398,11.6677322 L1.58634675,8.33419542 C1.67201046,8.15067642 1.91289393,8.00188686 2.12385172,8.0018647 L19.8709093,8 Z"/>
    <filter id="kbox-f" width="104.5%" height="125%" x="-2.3%" y="-12.5%" filterUnits="objectBoundingBox">
      <feOffset dy="-1" in="SourceAlpha" result="shadowOffsetInner1"/>
      <feComposite in="shadowOffsetInner1" in2="SourceAlpha" k2="-1" k3="1" operator="arithmetic" result="shadowInnerInner1"/>
      <feColorMatrix in="shadowInnerInner1" values="0 0 0 0 0   0 0 0 0 0   0 0 0 0 0  0 0 0 0.203999126 0"/>
    </filter>
  </defs>
  <g fill="none" fill-rule="evenodd" filter="url(#kbox-a)" transform="translate(1 1)">
    <g transform="translate(4)">
      <path fill="#73C021" d="M0,8.475 L14.125,8.475 C14.125,6.09233367 13.1464608,3.95556528 11.1978916,2.55649075 L12.7465361,1.01326913 C13.0018072,0.716495748 13.0018072,0.44516008 12.7465361,0.190782891 C12.4912651,-0.0635942971 12.2104669,-0.0635942971 11.9211596,0.190782891 L10.1597892,1.94598549 C9.19826807,1.43723112 8.1686747,1.18285393 7.0625,1.18285393 C5.92228916,1.18285393 4.87567771,1.43723112 3.91415663,1.95446473 L2.15278614,0.190782891 C1.89751506,-0.0635942971 1.61671687,-0.0635942971 1.32740964,0.190782891 C1.02959337,0.44516008 1.02959337,0.724974987 1.32740964,1.01326913 L2.87605422,2.55649075 C0.953012048,3.91316908 0,6.04993747 0,8.475 Z"/>
      <path fill="#FFF" fill-rule="nonzero" d="M10,4 C10.5555556,4 11,4.44444444 11,5 C11,5.55555556 10.5555556,6 10,6 C9.44444444,6 9,5.55555556 9,5 C9,4.44444444 9.44444444,4 10,4 Z M4,4 C4.55555556,4 5,4.44444444 5,5 C5,5.55555556 4.55555556,6 4,6 C3.44444444,6 3,5.55555556 3,5 C3,4.44444444 3.44444444,4 4,4 Z"/>
    </g>
    <g fill-rule="nonzero">
      <use fill="url(#kbox-b)" xlink:href="#kbox-c"/>
      <use fill="#000" filter="url(#kbox-d)" xlink:href="#kbox-c"/>
    </g>
    <g fill-rule="nonzero">
      <use fill="#E5BC7A" xlink:href="#kbox-e"/>
      <use fill="#000" filter="url(#kbox-f)" xlink:href="#kbox-e"/>
    </g>
  </g>
</svg>
