<svg xmlns="http://www.w3.org/2000/svg" xmlns:xlink="http://www.w3.org/1999/xlink" width="24" height="24" viewBox="0 0 24 24">
  <defs>
    <filter id="uos-windesk-a" width="125%" height="126.3%" x="-12.5%" y="-13.2%" filterUnits="objectBoundingBox">
      <feOffset in="SourceAlpha" result="shadowOffsetOuter1"/>
      <feGaussianBlur in="shadowOffsetOuter1" result="shadowBlurOuter1" stdDeviation=".5"/>
      <feColorMatrix in="shadowBlurOuter1" result="shadowMatrixOuter1" values="0 0 0 0 0   0 0 0 0 0   0 0 0 0 0  0 0 0 0.15 0"/>
      <feMerge>
        <feMergeNode in="shadowMatrixOuter1"/>
        <feMergeNode in="SourceGraphic"/>
      </feMerge>
    </filter>
    <path id="uos-windesk-b" d="M5.75,4 L19.25,4 C19.6642136,4 20,4.33578644 20,4.75 L20,6.27255625 L20,16.7274438 L20,18.25 C20,18.6642136 19.6642136,19 19.25,19 L5.75,19 C5.33578644,19 5,18.6642136 5,18.25 L5,16.7274438 L5,6.27255625 L5,4.75 C5,4.33578644 5.33578644,4 5.75,4 Z"/>
    <filter id="uos-windesk-c" width="106.7%" height="106.7%" x="-3.3%" y="-3.3%" filterUnits="objectBoundingBox">
      <feOffset dy="-1" in="SourceAlpha" result="shadowOffsetInner1"/>
      <feComposite in="shadowOffsetInner1" in2="SourceAlpha" k2="-1" k3="1" operator="arithmetic" result="shadowInnerInner1"/>
      <feColorMatrix in="shadowInnerInner1" values="0 0 0 0 0   0 0 0 0 0   0 0 0 0 0  0 0 0 0.301354895 0"/>
    </filter>
  </defs>
  <g fill="none" fill-rule="evenodd" filter="url(#uos-windesk-a)" transform="translate(2 3)">
    <path fill="#00C1E6" fill-rule="nonzero" d="M0.75,0 L14.25,0 C14.6642136,3.49325055e-17 15,0.335786438 15,0.75 L15,2.27255625 L15,12.7274438 L15,14.25 C15,14.6642136 14.6642136,15 14.25,15 L0.75,15 C0.335786438,15 5.07265313e-17,14.6642136 0,14.25 L0,12.7274438 L0,2.27255625 L0,0.75 C-5.07265313e-17,0.335786438 0.335786438,1.87112099e-16 0.75,0 Z"/>
    <use fill="#F1F1F1" xlink:href="#uos-windesk-b"/>
    <use fill="#000" filter="url(#uos-windesk-c)" xlink:href="#uos-windesk-b"/>
    <g fill-rule="nonzero" transform="translate(12.794 11.535)">
      <path fill="#5383E3" d="M2.57763172,2.6947968 C2.34330157,2.57763172 2.06991638,2.46046664 1.71842115,2.46046664 L1.60125607,2.46046664 C1.28881586,2.49952167 0.976375651,2.57763172 0.781100523,2.65574177 C0.70299047,2.6947968 0.663935443,2.6947968 0.585825389,2.73385182 L-4.20776504e-14,4.76471318 C0.429605288,4.56943805 0.781100523,4.53038303 1.09354073,4.53038303 C1.56220105,4.53038303 1.91369628,4.72565815 2.22613649,4.92093329 C2.34330157,4.53038303 2.73385183,3.12440209 2.81196188,2.8510169 C2.73385182,2.81196188 2.65574177,2.73385182 2.57763172,2.6947968 L2.57763172,2.6947968 Z"/>
      <path fill="#E5B900" d="M3.20251214,3.12440209 L2.61668675,5.15526344 C2.61668675,5.15526344 3.28062219,5.58486873 3.78833753,5.58486873 C4.10077774,5.58486873 4.491328,5.50675868 4.95998831,5.31148355 L5.50675868,3.35873224 C5.07715339,3.51495235 4.72565815,3.55400737 4.41321794,3.55400737 C3.7492825,3.51495235 3.35873224,3.24156717 3.20251214,3.12440209 L3.20251214,3.12440209 Z"/>
      <path fill="#DC5600" d="M1.83558623,1.99180633 C2.30424654,1.99180633 2.61668675,2.18708146 2.92912696,2.38235659 C3.04629204,1.99180633 3.39778727,0.781100523 3.51495235,0.351495235 C3.51495235,0.351495235 3.08534706,0.117165081 2.81196188,0.0390550268 C2.6947968,-1.1114851e-14 2.5385767,-1.1114851e-14 2.38235659,-1.1114851e-14 C2.06991638,-1.1114851e-14 1.71842115,0.0781100537 1.28881586,0.234330154 L0.742045496,2.26519152 C1.17165078,2.06991639 1.52314602,1.99180633 1.83558623,1.99180633 Z"/>
      <path fill="#7FC902" d="M5.11620841,1.0544857 C4.491328,1.0544857 4.06172271,0.781100523 3.86644758,0.624880416 L3.31967722,2.65574177 C3.63211743,2.89007192 4.06172272,3.04629203 4.56943805,3.04629203 C4.92093329,3.04629203 5.27242852,2.96818198 5.66297878,2.77290685 L6.24880417,0.781100523 C5.81919888,0.976375651 5.42864862,1.0544857 5.11620841,1.0544857 Z"/>
    </g>
  </g>
</svg>
