<svg xmlns="http://www.w3.org/2000/svg" xmlns:xlink="http://www.w3.org/1999/xlink" width="24" height="24" viewBox="0 0 24 24">
  <defs>
    <filter id="uos-remote-assistance-a" width="123.8%" height="125%" x="-11.9%" y="-12.5%" filterUnits="objectBoundingBox">
      <feOffset in="SourceAlpha" result="shadowOffsetOuter1"/>
      <feGaussianBlur in="shadowOffsetOuter1" result="shadowBlurOuter1" stdDeviation=".5"/>
      <feColorMatrix in="shadowBlurOuter1" result="shadowMatrixOuter1" values="0 0 0 0 0   0 0 0 0 0   0 0 0 0 0  0 0 0 0.15 0"/>
      <feMerge>
        <feMergeNode in="shadowMatrixOuter1"/>
        <feMergeNode in="SourceGraphic"/>
      </feMerge>
    </filter>
    <linearGradient id="uos-remote-assistance-b" x1="50%" x2="50%" y1="21.23%" y2="79.403%">
      <stop offset="0%" stop-color="#64738B"/>
      <stop offset="100%" stop-color="#7C8EAA"/>
    </linearGradient>
    <path id="uos-remote-assistance-c" d="M0.75,0 L19.25,0 C19.6642136,-7.6089797e-17 20,0.335786438 20,0.75 L20,15.25 C20,15.6642136 19.6642136,16 19.25,16 L0.75,16 C0.335786438,16 5.07265313e-17,15.6642136 0,15.25 L0,0.75 C-5.07265313e-17,0.335786438 0.335786438,7.6089797e-17 0.75,0 Z"/>
    <filter id="uos-remote-assistance-d" width="105%" height="106.2%" x="-2.5%" y="-3.1%" filterUnits="objectBoundingBox">
      <feOffset dy="-1" in="SourceAlpha" result="shadowOffsetInner1"/>
      <feComposite in="shadowOffsetInner1" in2="SourceAlpha" k2="-1" k3="1" operator="arithmetic" result="shadowInnerInner1"/>
      <feColorMatrix in="shadowInnerInner1" values="0 0 0 0 0   0 0 0 0 0   0 0 0 0 0  0 0 0 0.210118007 0"/>
    </filter>
    <linearGradient id="uos-remote-assistance-e" x1="50%" x2="50%" y1="0%" y2="100%">
      <stop offset="0%" stop-color="#FFF" stop-opacity=".84"/>
      <stop offset="100%" stop-color="#FFF" stop-opacity=".517"/>
    </linearGradient>
    <linearGradient id="uos-remote-assistance-f" x1="46.826%" x2="46.826%" y1="-50.405%" y2="204.036%">
      <stop offset="0%" stop-color="#D4DFEE"/>
      <stop offset="100%" stop-color="#737D8C"/>
    </linearGradient>
  </defs>
  <g fill="none" fill-rule="evenodd" filter="url(#uos-remote-assistance-a)" transform="translate(2 3)">
    <polygon fill="url(#uos-remote-assistance-b)" points="8 16 12 16 12 17 8 17"/>
    <use fill="#D8E5F7" xlink:href="#uos-remote-assistance-c"/>
    <use fill="#000" filter="url(#uos-remote-assistance-d)" xlink:href="#uos-remote-assistance-c"/>
    <polygon fill="#2A4E77" points="1 1 19 1 19 14 1 14"/>
    <polygon fill="url(#uos-remote-assistance-e)" points="0 0 12 0 12 8 0 8" opacity=".335" transform="translate(4 4)"/>
    <polygon fill="#FFF" points="4 4 16 4 16 5 4 5" opacity=".596"/>
    <path fill="url(#uos-remote-assistance-f)" d="M6.20693893,17 L13.8,17 C13.9104569,17 14,17.0895431 14,17.2 L14,17.8 C14,17.9104569 13.9104569,18 13.8,18 L6.22740673,18 C6.11960383,18 6.03119834,17.9145589 6.027523,17.8068186 L6.0070552,17.2068186 C6.00328938,17.0964259 6.08972757,17.0038821 6.2001203,17.0001163 C6.20239235,17.0000388 6.20466556,17 6.20693893,17 Z"/>
    <circle cx="15.5" cy="14.5" r="5.5" fill="#3BAD88"/>
    <path fill="#FFF" fill-rule="nonzero" d="M13.8528916,11.9826697 L14.1542993,17.5718622 C14.1584208,17.6482897 14.2223602,17.7077071 14.2988844,17.706249 L17.1919773,17.6500668 C17.2407477,17.6491201 17.2856203,17.6232129 17.3108253,17.5814499 L18.8060034,15.1040354 C18.8455519,15.0385062 18.8260645,14.9534243 18.7619371,14.9116412 L14.0722583,11.8560182 C14.0065347,11.8131951 13.9185403,11.8317597 13.8757172,11.8974832 C13.8592625,11.9227374 13.8512685,11.9525715 13.8528916,11.9826697 Z"/>
  </g>
</svg>
