<?xml version="1.0" encoding="utf-8"?>
<!-- Generator: Adobe Illustrator 17.1.0, SVG Export Plug-In . SVG Version: 6.00 Build 0)  -->
<!DOCTYPE svg PUBLIC "-//W3C//DTD SVG 1.1//EN" "http://www.w3.org/Graphics/SVG/1.1/DTD/svg11.dtd">
<svg version="1.1" id="图层_1" xmlns="http://www.w3.org/2000/svg" xmlns:xlink="http://www.w3.org/1999/xlink" x="0px" y="0px"
	 viewBox="0 0 128 128" enable-background="new 0 0 128 128" xml:space="preserve">
<linearGradient id="SVGID_1_" gradientUnits="userSpaceOnUse" x1="64" y1="4.0247" x2="64" y2="124.0245">
	<stop  offset="0" style="stop-color:#22E1FD"/>
	<stop  offset="0.9662" style="stop-color:#0B53B6"/>
</linearGradient>
<circle fill="url(#SVGID_1_)" cx="64" cy="64" r="60"/>
<circle fill="#FFFFFF" cx="64" cy="64" r="55.5"/>
<linearGradient id="SVGID_2_" gradientUnits="userSpaceOnUse" x1="59.2127" y1="4.1886" x2="59.7837" y2="123.5745">
	<stop  offset="0" style="stop-color:#22E1FD"/>
	<stop  offset="0.9662" style="stop-color:#0B53B6"/>
</linearGradient>
<path fill="url(#SVGID_2_)" d="M12.3,87.6c11.9,3.5,44.5,11,65-3.6C90.7,74.6,89,59.5,89,59.5c-0.2-11.5-7.5-22.9-7.5-22.9
	C109.7,61.2,93,88.5,93,88.5c-8.6,16.9-27.2,27-42,30.6C33.8,115.1,19.5,103.3,12.3,87.6z M20,28.2c3.5,18.3,11.3,33.7,16.5,39.3
	c6.7,7.3,16.7,15,29.4,11.8c12.7-3.2,15.3-17.1,15.3-17.1C84,50.4,80,36.3,79.8,36c-0.2-0.3-2.1-0.6-2.1-0.6
	c2,18.6-2.9,26.9-2.9,26.9c-7.1,14.6-17.6,10.1-17.6,10.1C45.5,66.4,46,49.7,46,49.7C45.7,38,50.3,18.8,59.2,7.6
	C43.4,8.9,29.4,16.6,20,28.2z M85.9,11.9c-6.8,5.5-18.4,17.3-18.4,17.3C50.3,45.2,53.7,58.6,53.7,58.6c2.7,14.1,11.3,4.6,11.3,4.6
	c9-9.3,8.3-27.7,8.3-27.7c-3.6,0.6-5.9,2.6-5.9,2.6C66.8,50.4,59.6,58,59.6,58c-2.8,3.1-4.8,0.1-4.8,0.1c-1.5-2.2,1.5-3.8,1.5-3.8
	c4.1-3.6,5.4-9.8,5.3-12.1c-0.1-2.3,1.2-3,1.2-3c5.8-4.5,11.7-7.2,11.7-7.2c7.8-4,21.8-4.7,21.8-4.7c3.8,0.1,7.4-0.1,10.3-0.3
	C101,20.6,93.9,15.3,85.9,11.9z"/>
</svg>
