<?xml version="1.0" encoding="UTF-8" standalone="no"?>
<svg width="48px" height="48px" viewBox="0 0 48 48" version="1.1" xmlns="http://www.w3.org/2000/svg" xmlns:xlink="http://www.w3.org/1999/xlink">
    <!-- Generator: Sketch 3.8.3 (29802) - http://www.bohemiancoding.com/sketch -->
    <title>folder-remote</title>
    <desc>Created with Sketch.</desc>
    <defs>
        <filter x="-50%" y="-50%" width="200%" height="200%" filterUnits="objectBoundingBox" id="filter-1">
            <feOffset dx="0" dy="1" in="SourceAlpha" result="shadowOffsetOuter1"></feOffset>
            <feGaussianBlur stdDeviation="1" in="shadowOffsetOuter1" result="shadowBlurOuter1"></feGaussianBlur>
            <feColorMatrix values="0 0 0 0 0   0 0 0 0 0   0 0 0 0 0  0 0 0 0.2 0" type="matrix" in="shadowBlurOuter1" result="shadowMatrixOuter1"></feColorMatrix>
            <feMerge>
                <feMergeNode in="shadowMatrixOuter1"></feMergeNode>
                <feMergeNode in="SourceGraphic"></feMergeNode>
            </feMerge>
        </filter>
        <linearGradient x1="100%" y1="47.5817859%" x2="0%" y2="47.5817859%" id="linearGradient-2">
            <stop stop-color="#6AC4FF" offset="0%"></stop>
            <stop stop-color="#6CCDFC" offset="96.2651467%"></stop>
            <stop stop-color="#6AC4FF" offset="100%"></stop>
        </linearGradient>
        <path d="M11.1073074,12.4226405 C10.5308922,11.8462253 9.58126513,11.8612988 8.98625592,12.456308 C8.39124671,13.0513172 8.37617326,14.0009443 8.95258843,14.5773595 C9.52900361,15.1537747 10.4786307,15.1387012 11.0736399,14.543692 C11.6686491,13.9486828 11.6837226,12.9990557 11.1073074,12.4226405 Z" id="path-3"></path>
        <mask id="mask-4" maskContentUnits="userSpaceOnUse" maskUnits="objectBoundingBox" x="0" y="0" width="3" height="3" fill="white">
            <use xlink:href="#path-3"></use>
        </mask>
    </defs>
    <g id="Page-1" stroke="none" stroke-width="1" fill="none" fill-rule="evenodd">
        <g id="folder-remote">
            <g id="Group">
                <rect id="Rectangle-3" x="0" y="0" width="48" height="48"></rect>
                <g id="Group-43" filter="url(#filter-1)" transform="translate(24.000000, 26.000000) rotate(-90.000000) translate(-24.000000, -26.000000) translate(6.000000, 6.000000)">
                    <path d="M35.21875,25.375 C35.6502225,25.720178 36,26.444837 36,26.9955775 L36,35.0044225 C36,35.5542648 35.5562834,36 35.0001925,36 L31.995132,36 L3.00973606,36 C2.45207423,36 2,35.544827 2,34.9995806 L2,5.00041944 C2,4.44790304 2.44252932,4 3.00973606,4 L32.9902639,4 C33.5479258,4 34,4.45517302 34,5.00041944 L34,24.4 L35.21875,25.375 Z" id="Combined-Shape" fill="#6AC4FF"></path>
                    <path d="M1,3.00041944 C1,2.44790304 1.43822575,2 1.99631511,2 L31.0036849,2 C31.5539345,2 32,2.45517302 32,3.00041944 L32,36.9995806 C32,37.552097 31.5617743,38 31.0036849,38 L1.99631511,38 C1.44606547,38 1,37.544827 1,36.9995806 L1,3.00041944 Z" id="Rectangle-279" fill="#FFFFFF"></path>
                    <path d="M0,1.00877516 C0,0.451644023 0.447365195,7.05330002e-15 0.998153687,6.98912172e-15 L29.0018463,3.72610999e-15 C29.5531114,3.66187617e-15 30,0.44921875 30,1.00877516 L30,38.9912248 C30,39.548356 29.5526348,40 29.0018463,40 L0.998153687,40 C0.446888627,40 0,39.5507812 0,38.9912248 L0,1.00877516 Z" id="Rectangle-279" fill="url(#linearGradient-2)"></path>
                </g>
                <g id="Group-2" transform="translate(14.000000, 22.000000)" stroke="#2CA7F8">
                    <g id="Group-3">
                        <use id="Path" mask="url(#mask-4)" stroke-width="2" xlink:href="#path-3"></use>
                        <path d="M19.4866536,3.92509072 C16.9005539,1.79670345 13.5766301,0.516764323 9.95073707,0.516764323 C6.3583277,0.516764323 3.06233615,1.77317317 0.486653646,3.86634376" id="Oval-53" stroke-linecap="round"></path>
                        <path d="M16.995931,6.99899209 C15.0710449,5.45505906 12.6188826,4.53011068 9.94850216,4.53011068 C7.32179183,4.53011068 4.90622073,5.4250541 2.99593099,6.92374384" id="Oval-53" stroke-linecap="round"></path>
                        <path d="M14.5226237,10.014126 C13.2678463,9.06995383 11.702383,8.50952738 10.0047012,8.50952738 C8.32314738,8.50952738 6.77131173,9.05935637 5.5226237,9.98732135" id="Oval-53" stroke-linecap="round"></path>
                    </g>
                </g>
            </g>
        </g>
    </g>
</svg>