<?xml version="1.0" encoding="UTF-8" standalone="no"?>
<!-- Created with Inkscape (http://www.inkscape.org/) -->

<svg
   xmlns:dc="http://purl.org/dc/elements/1.1/"
   xmlns:cc="http://creativecommons.org/ns#"
   xmlns:rdf="http://www.w3.org/1999/02/22-rdf-syntax-ns#"
   xmlns:svg="http://www.w3.org/2000/svg"
   xmlns="http://www.w3.org/2000/svg"
   xmlns:inkscape="http://www.inkscape.org/namespaces/inkscape"
   version="1.1"
   width="48"
   height="48"
   viewBox="0 0 48 48"
   id="svg2">
  <title
     id="title4">folder-saved-search</title>
  <desc
     id="desc6">Created with Sketch.</desc>
  <metadata
     id="metadata40">
    <rdf:RDF>
      <cc:Work
         rdf:about="">
        <dc:format>image/svg+xml</dc:format>
        <dc:type
           rdf:resource="http://purl.org/dc/dcmitype/StillImage" />
      </cc:Work>
    </rdf:RDF>
  </metadata>
  <defs
     id="defs8">
    <filter
       filterUnits="objectBoundingBox"
       x="-0.5"
       y="-0.5"
       width="2"
       height="2"
       color-interpolation-filters="sRGB"
       id="filter-1">
      <feOffset
         id="feOffset11"
         result="shadowOffsetOuter1"
         in="SourceAlpha"
         dy="1"
         dx="0" />
      <feGaussianBlur
         id="feGaussianBlur13"
         result="shadowBlurOuter1"
         in="shadowOffsetOuter1"
         stdDeviation="1" />
      <feColorMatrix
         id="feColorMatrix15"
         result="shadowMatrixOuter1"
         type="matrix"
         in="shadowBlurOuter1"
         values="0 0 0 0 0   0 0 0 0 0   0 0 0 0 0  0 0 0 0.21 0" />
      <feMerge
         id="feMerge17">
        <feMergeNode
           id="feMergeNode19"
           in="shadowMatrixOuter1" />
        <feMergeNode
           id="feMergeNode21"
           in="SourceGraphic" />
      </feMerge>
    </filter>
    <linearGradient
       x1="0.5"
       y1="0"
       x2="0.5"
       y2="1"
       id="linearGradient-2">
      <stop
         id="stop24"
         style="stop-color:#8ec5ff;stop-opacity:1"
         offset="0" />
      <stop
         id="stop26"
         style="stop-color:#70bcff;stop-opacity:1"
         offset="0.97000003" />
      <stop
         id="stop28"
         style="stop-color:#0f70e6;stop-opacity:1"
         offset="1" />
    </linearGradient>
  </defs>
  <g
     id="Page-1"
     style="fill:none;stroke:none">
    <g
       id="folder-saved-search">
      <g
         transform="translate(4,5)"
         id="Group">
        <path
           d="M 2,6 2,2 24.172,2 26.237,0 38,0 38,6 40,6 40,36 0,36 0,6 2,6 z"
           inkscape:connector-curvature="0"
           id="Shape-4"
           style="fill:#31a4fc;filter:url(#filter-1)" />
        <path
           d="M 38,30 2,30 2,2 24.172,2 26.237,0 38,0 38,30 z"
           inkscape:connector-curvature="0"
           id="Shape"
           style="fill:#31a4fc" />
        <rect
           width="40"
           height="30"
           x="0"
           y="6"
           id="Rectangle-path"
           style="fill:url(#linearGradient-2)" />
      </g>
      <path
         d="m 30.627,31.003 -2.562,-2.562 c 0.703,-0.983 1.122,-2.182 1.122,-3.48 0,-3.309 -2.691,-6 -6,-6 -3.309,0 -6,2.691 -6,6 0,3.309 2.691,6 6,6 1.29,0 2.483,-0.413 3.462,-1.108 l 2.565,2.565 c 0.194,0.194 0.603,0.235 0.798,0.041 l 0.707,-0.707 c 0.194,-0.197 0.104,-0.554 -0.092,-0.749 l 0,0 z M 18.186,24.96 c 0,-2.757 2.243,-5 5,-5 2.757,0 5,2.243 5,5 0,2.757 -2.243,5 -5,5 -2.757,0 -5,-2.243 -5,-5 l 0,0 z"
         inkscape:connector-curvature="0"
         id="path36"
         style="fill:#ffffff" />
    </g>
  </g>
</svg>
