<?xml version="1.0" encoding="UTF-8" standalone="no"?>
<svg width="48px" height="48px" viewBox="0 0 48 48" version="1.1" xmlns="http://www.w3.org/2000/svg" xmlns:xlink="http://www.w3.org/1999/xlink">
    <!-- Generator: Sketch 3.8.3 (29802) - http://www.bohemiancoding.com/sketch -->
    <title>network-server</title>
    <desc>Created with Sketch.</desc>
    <defs>
        <filter x="-50%" y="-50%" width="200%" height="200%" filterUnits="objectBoundingBox" id="filter-1">
            <feOffset dx="0" dy="1" in="SourceAlpha" result="shadowOffsetOuter1"></feOffset>
            <feGaussianBlur stdDeviation="1" in="shadowOffsetOuter1" result="shadowBlurOuter1"></feGaussianBlur>
            <feColorMatrix values="0 0 0 0 0   0 0 0 0 0   0 0 0 0 0  0 0 0 0.2 0" type="matrix" in="shadowBlurOuter1" result="shadowMatrixOuter1"></feColorMatrix>
            <feMerge>
                <feMergeNode in="shadowMatrixOuter1"></feMergeNode>
                <feMergeNode in="SourceGraphic"></feMergeNode>
            </feMerge>
        </filter>
        <linearGradient x1="100%" y1="47.5817859%" x2="0%" y2="47.5817859%" id="linearGradient-2">
            <stop stop-color="#6AC4FF" offset="0%"></stop>
            <stop stop-color="#6CCDFC" offset="96.2651467%"></stop>
            <stop stop-color="#6AC4FF" offset="100%"></stop>
        </linearGradient>
    </defs>
    <g id="Page-1" stroke="none" stroke-width="1" fill="none" fill-rule="evenodd">
        <g id="network-server">
            <g id="Group">
                <rect id="Rectangle-3" x="0" y="0" width="48" height="48"></rect>
                <g id="Group-43" filter="url(#filter-1)" transform="translate(24.000000, 26.000000) rotate(-90.000000) translate(-24.000000, -26.000000) translate(6.000000, 6.000000)">
                    <path d="M35.21875,25.375 C35.6502225,25.720178 36,26.444837 36,26.9955775 L36,35.0044225 C36,35.5542648 35.5562834,36 35.0001925,36 L31.995132,36 L3.00973606,36 C2.45207423,36 2,35.544827 2,34.9995806 L2,5.00041944 C2,4.44790304 2.44252932,4 3.00973606,4 L32.9902639,4 C33.5479258,4 34,4.45517302 34,5.00041944 L34,24.4 L35.21875,25.375 Z" id="Combined-Shape" fill="#6AC4FF"></path>
                    <path d="M1,3.00041944 C1,2.44790304 1.43822575,2 1.99631511,2 L31.0036849,2 C31.5539345,2 32,2.45517302 32,3.00041944 L32,36.9995806 C32,37.552097 31.5617743,38 31.0036849,38 L1.99631511,38 C1.44606547,38 1,37.544827 1,36.9995806 L1,3.00041944 Z" id="Rectangle-279" fill="#FFFFFF"></path>
                    <path d="M0,1.00877516 C0,0.451644023 0.447365195,7.05330002e-15 0.998153687,6.98912172e-15 L29.0018463,3.72610999e-15 C29.5531114,3.66187617e-15 30,0.44921875 30,1.00877516 L30,38.9912248 C30,39.548356 29.5526348,40 29.0018463,40 L0.998153687,40 C0.446888627,40 0,39.5507812 0,38.9912248 L0,1.00877516 Z" id="Rectangle-279" fill="url(#linearGradient-2)"></path>
                </g>
                <g id="Page-1" transform="translate(15.000000, 20.000000)">
                    <path d="M17.4722,8.9722 C17.4722,13.6662 13.6662,17.4722 8.9722,17.4722 C4.2782,17.4722 0.4722,13.6662 0.4722,8.9722 C0.4722,4.2782 4.2782,0.4722 8.9722,0.4722 C13.6662,0.4722 17.4722,4.2782 17.4722,8.9722 L17.4722,8.9722 Z" id="Stroke-1" stroke="#2CA7F8" stroke-width="0.944"></path>
                    <path d="M17.1966,11.1223 C7.1716,12.9643 2.6716,6.6013 1.5916,4.7493" id="Stroke-3" stroke="#2CA7F8"></path>
                    <path d="M1.8102,13.5488 C2.2212,11.3958 4.2842,4.1378 13.6212,1.8568" id="Stroke-5" stroke="#2CA7F8"></path>
                    <path d="M13.5357,16.1432 C14.3237,6.4222 7.5997,2.2082 5.5917,1.1732" id="Stroke-7" stroke="#2CA7F8"></path>
                    <path d="M13.308,11.4479 C13.308,11.4479 8.832,13.7799 6.383,17.0689" id="Stroke-9" stroke="#2CA7F8"></path>
                    <path d="M10.4526,3.6628 C10.4526,4.4908 9.7806,5.1628 8.9526,5.1628 C8.1246,5.1628 7.4526,4.4908 7.4526,3.6628 C7.4526,2.8348 8.1246,2.1628 8.9526,2.1628 C9.7806,2.1628 10.4526,2.8348 10.4526,3.6628" id="Fill-11" fill="#2CA7F8"></path>
                    <path d="M5.793,7.856 C5.793,8.684 5.121,9.356 4.293,9.356 C3.465,9.356 2.793,8.684 2.793,7.856 C2.793,7.028 3.465,6.356 4.293,6.356 C5.121,6.356 5.793,7.028 5.793,7.856" id="Fill-13" fill="#2CA7F8"></path>
                    <path d="M14.808,11.4533 C14.808,12.2813 14.136,12.9533 13.308,12.9533 C12.48,12.9533 11.808,12.2813 11.808,11.4533 C11.808,10.6253 12.48,9.9533 13.308,9.9533 C14.136,9.9533 14.808,10.6253 14.808,11.4533" id="Fill-15" fill="#2CA7F8"></path>
                </g>
            </g>
        </g>
    </g>
</svg>