<?xml version="1.0" encoding="UTF-8" standalone="no"?>
<svg width="48px" height="48px" viewBox="0 0 48 48" version="1.1" xmlns="http://www.w3.org/2000/svg" xmlns:xlink="http://www.w3.org/1999/xlink">
    <!-- Generator: Sketch 3.7.1 (28215) - http://www.bohemiancoding.com/sketch -->
    <title>Artboard 3</title>
    <desc>Created with Sketch.</desc>
    <defs>
        <path d="M4.72847886,34.0132675 C4.87868083,35.6654891 6.34157448,37 7.99649048,37 L30.0035095,37 C31.6495018,37 33.1215642,35.6627943 33.2715211,34.0132675 L35.9090909,4 C37.0981492,4 38,3.1045695 38,2 C38,0.887729645 37.1032894,0 35.9971408,0 L2.00285922,0 C0.90185079,0 0,0.8954305 0,2 C0,3.11227036 0.896710617,4 2.00285922,4 L4.72847886,34.0132675 Z" id="path-1"></path>
        <filter x="-50%" y="-50%" width="200%" height="200%" filterUnits="objectBoundingBox" id="filter-2">
            <feOffset dx="0" dy="1" in="SourceAlpha" result="shadowOffsetOuter1"></feOffset>
            <feGaussianBlur stdDeviation="0.5" in="shadowOffsetOuter1" result="shadowBlurOuter1"></feGaussianBlur>
            <feColorMatrix values="0 0 0 0 0   0 0 0 0 0   0 0 0 0 0  0 0 0 0.3 0" type="matrix" in="shadowBlurOuter1"></feColorMatrix>
        </filter>
    </defs>
    <g id="Page-1" stroke="none" stroke-width="1" fill="none" fill-rule="evenodd">
        <g id="Artboard-3">
            <g id="Group-7" transform="translate(5.000000, 6.000000)">
                <g id="Page-1">
                    <g id="Combined-Shape">
                        <use fill="black" fill-opacity="1" filter="url(#filter-2)" xlink:href="#path-1"></use>
                        <use fill="#FFFFFF" fill-rule="evenodd" xlink:href="#path-1"></use>
                    </g>
                </g>
                <g id="Group-2" transform="translate(5.000000, 8.799999)">
                    <g id="Group-5">
                        <path d="M1.5,24.200001 C1.5,24.200001 1.5,26.2322729 3.50000012,26.2322729 C4.93219068,26.2322729 17.2329042,26.2322728 17.2329042,26.2322728 L16.4972219,18.7029679 L1.09800851,19.2094212 L1.5,24.200001 Z" id="Path-900" fill="#617B13"></path>
                        <polygon id="Path-898" fill="#6D8700" transform="translate(18.832018, 10.500801) rotate(-20.000000) translate(-18.832018, -10.500801) " points="9.55029066 8.46622749 26.1248037 3.71889 28.1137452 11.1789918 10.8762517 17.2827114"></polygon>
                        <polygon id="Path-896" fill="#839928" points="0.636125837 13.9704878 1.30714285 21.8288882 8.75146979 24.4483547 16.8668143 4.32408694 6.53571429 2.30952004e-08"></polygon>
                        <polygon id="Path-895" fill="#748D10" points="6.25807737 26.2206983 7.97040011 26.2395481 17.4285714 10.9144439 10.0214286 6.54866632 2.61428572 18.3362659"></polygon>
                        <polygon id="Path-897" fill="#6D8700" points="1.74285706 5.67551082 23.5285709 17.4631101 20.0428571 24.0117765 0.610010638 13.9704881 0.130735561 8.7315551"></polygon>
                        <path d="M16.6643189,23.1603885 C16.1928793,24.1843501 15.25,26.2322731 15.25,26.2322731 C15.25,26.2322731 22,26.2322728 24,26.2322728 C26,26.2322728 26.2000122,24.2000004 26.2000122,24.2000004 L27.720849,9.12073008 L23.4830537,8.35017361 L16.6643189,23.1603885 Z" id="Path-899" fill="#869D29"></path>
                        <polygon id="Path-894" fill="#90A72F" points="0.784306989 15.7167992 0.939039429 17.7544757 15.5000005 25.6999998 18.9999995 18.2000008 3.48571429 9.6047106"></polygon>
                    </g>
                </g>
            </g>
        </g>
    </g>
</svg>