<svg xmlns="http://www.w3.org/2000/svg" xmlns:xlink="http://www.w3.org/1999/xlink" width="48" height="48" viewBox="0 0 48 48">
  <defs>
    <filter id="folder-documents-a" width="131%" height="136.1%" x="-15.5%" y="-18.1%" filterUnits="objectBoundingBox">
      <feOffset dy="1" in="SourceAlpha" result="shadowOffsetOuter1"/>
      <feGaussianBlur in="shadowOffsetOuter1" result="shadowBlurOuter1" stdDeviation="1"/>
      <feColorMatrix in="shadowBlurOuter1" result="shadowMatrixOuter1" values="0 0 0 0 0   0 0 0 0 0   0 0 0 0 0  0 0 0 0.2 0"/>
      <feMerge>
        <feMergeNode in="shadowMatrixOuter1"/>
        <feMergeNode in="SourceGraphic"/>
      </feMerge>
    </filter>
    <path id="folder-documents-b" d="M23.4594595,2.0135498 C24.0367982,3.24247865 25.2722972,4.02709961 26.6300844,4.02709961 L40.5,4.02709961 C41.3284271,4.02709961 42,4.69867248 42,5.52709961 L42,34.5 C42,35.3284271 41.3284271,36 40.5,36 L1.5,36 C0.671572875,36 1.01453063e-16,35.3284271 0,34.5 L0,1.5 C1.20591542e-16,0.671572875 0.671572875,1.52179594e-16 1.5,0 L20.2888345,0 C21.6466217,-6.93510673e-16 22.8821207,0.78462096 23.4594595,2.0135498 Z"/>
    <filter id="folder-documents-c" width="104.8%" height="105.6%" x="-2.4%" y="-2.8%" filterUnits="objectBoundingBox">
      <feOffset dy="2" in="SourceAlpha" result="shadowOffsetInner1"/>
      <feComposite in="shadowOffsetInner1" in2="SourceAlpha" k2="-1" k3="1" operator="arithmetic" result="shadowInnerInner1"/>
      <feColorMatrix in="shadowInnerInner1" values="0 0 0 0 1   0 0 0 0 1   0 0 0 0 1  0 0 0 0.5 0"/>
    </filter>
    <radialGradient id="folder-documents-d" cx="50%" cy="0%" r="116.81%" fx="50%" fy="0%" gradientTransform="matrix(.06171 .99538 -.63989 .096 .47 -.498)">
      <stop offset="0%" stop-color="#D8EAFF"/>
      <stop offset="100%" stop-color="#A1C8E7"/>
    </radialGradient>
    <path id="folder-documents-e" d="M0,9 L42,9 L42,34.5 C42,35.3284271 41.3284271,36 40.5,36 L1.5,36 C0.671572875,36 1.01453063e-16,35.3284271 0,34.5 L0,9 L0,9 Z"/>
    <filter id="folder-documents-f" width="102.4%" height="103.7%" x="-1.2%" y="-1.9%" filterUnits="objectBoundingBox">
      <feOffset dy="1" in="SourceAlpha" result="shadowOffsetInner1"/>
      <feComposite in="shadowOffsetInner1" in2="SourceAlpha" k2="-1" k3="1" operator="arithmetic" result="shadowInnerInner1"/>
      <feColorMatrix in="shadowInnerInner1" values="0 0 0 0 1   0 0 0 0 1   0 0 0 0 1  0 0 0 0.5 0"/>
    </filter>
  </defs>
  <g fill="none" fill-rule="evenodd">
    <g filter="url(#folder-documents-a)" transform="translate(3 8)">
      <use fill="#A3C6EB" xlink:href="#folder-documents-b"/>
      <use fill="#000" filter="url(#folder-documents-c)" xlink:href="#folder-documents-b"/>
      <path stroke="#5C889C" stroke-linejoin="square" d="M20.2888345,0.5 C20.8708286,0.5 21.4266141,0.668157687 21.898768,0.968005606 C22.3709218,1.26785352 22.7594439,1.69939167 23.0069111,2.2261526 C23.3367827,2.92832052 23.8546794,3.50355727 24.4840565,3.90325204 C25.1134337,4.30294682 25.8542912,4.52709961 26.6300844,4.52709961 L26.6300844,4.52709961 L40.5,4.52709961 C40.7761424,4.52709961 41.0261424,4.63902842 41.2071068,4.81999283 C41.3880712,5.00095723 41.5,5.25095723 41.5,5.52709961 L41.5,5.52709961 L41.5,34.5 C41.5,34.7761424 41.3880712,35.0261424 41.2071068,35.2071068 C41.0261424,35.3880712 40.7761424,35.5 40.5,35.5 L40.5,35.5 L1.5,35.5 C1.22385763,35.5 0.973857625,35.3880712 0.792893219,35.2071068 C0.611928813,35.0261424 0.5,34.7761424 0.5,34.5 L0.5,34.5 L0.5,1.5 C0.5,1.22385763 0.611928813,0.973857625 0.792893219,0.792893219 C0.973857625,0.611928813 1.22385763,0.5 1.5,0.5 L1.5,0.5 L20.2888345,0.5 Z"/>
      <path fill="#FFF" stroke="#5C889C" d="M38.5,6.5 C38.7761424,6.5 39.0261424,6.61192881 39.2071068,6.79289322 C39.3880712,6.97385763 39.5,7.22385763 39.5,7.5 L39.5,7.5 L39.5,20.5 C39.5,20.7761424 39.3880712,21.0261424 39.2071068,21.2071068 C39.0261424,21.3880712 38.7761424,21.5 38.5,21.5 L38.5,21.5 L3.5,21.5 C3.22385763,21.5 2.97385763,21.3880712 2.79289322,21.2071068 C2.61192881,21.0261424 2.5,20.7761424 2.5,20.5 L2.5,20.5 L2.5,7.5 C2.5,7.22385763 2.61192881,6.97385763 2.79289322,6.79289322 C2.97385763,6.61192881 3.22385763,6.5 3.5,6.5 L3.5,6.5 Z"/>
      <use fill="url(#folder-documents-d)" xlink:href="#folder-documents-e"/>
      <use fill="#000" filter="url(#folder-documents-f)" xlink:href="#folder-documents-e"/>
      <path stroke="#5C819C" stroke-linejoin="square" d="M41.5,9.5 L41.5,34.5 C41.5,34.7761424 41.3880712,35.0261424 41.2071068,35.2071068 C41.0261424,35.3880712 40.7761424,35.5 40.5,35.5 L40.5,35.5 L1.5,35.5 C1.22385763,35.5 0.973857625,35.3880712 0.792893219,35.2071068 C0.611928813,35.0261424 0.5,34.7761424 0.5,34.5 L0.5,34.5 L0.5,9.5 L41.5,9.5 Z"/>
    </g>
    <g transform="translate(15 20)">
      <g transform="translate(0 1.638)">
        <path fill="#2A4052" fill-opacity=".4" stroke="#3E6F84" d="M13.5,0.861725664 C13.7761424,0.861725664 14.0261424,0.973654476 14.2071068,1.15461888 C14.3880712,1.33558329 14.5,1.58558329 14.5,1.86172566 L14.5,1.86172566 L14.5,15.8617257 C14.5,16.137868 14.3880712,16.387868 14.2071068,16.5688324 C14.0261424,16.7497969 13.7761424,16.8617257 13.5,16.8617257 L13.5,16.8617257 L1.5,16.8617257 C1.22385763,16.8617257 0.973857625,16.7497969 0.792893219,16.5688324 C0.611928813,16.387868 0.5,16.137868 0.5,15.8617257 L0.5,15.8617257 L0.5,1.86172566 C0.5,1.58558329 0.611928813,1.33558329 0.792893219,1.15461888 C0.973857625,0.973654476 1.22385763,0.861725664 1.5,0.861725664 L1.5,0.861725664 Z"/>
        <path fill="#3E6F84" d="M13,14.3617257 L13,15.3617257 L2,15.3617257 L2,14.3617257 L13,14.3617257 Z M7,12.3617257 L7,13.3617257 L2,13.3617257 L2,12.3617257 L7,12.3617257 Z M13,10.3617257 L13,11.3617257 L2,11.3617257 L2,10.3617257 L13,10.3617257 Z M13,8.36172566 L13,9.36172566 L2,9.36172566 L2,8.36172566 L13,8.36172566 Z M13,6.36172566 L13,7.36172566 L9,7.36172566 L9,6.36172566 L13,6.36172566 Z M13,4.36172566 L13,5.36172566 L9,5.36172566 L9,4.36172566 L13,4.36172566 Z M13,2.36172566 L13,3.36172566 L9,3.36172566 L9,2.36172566 L13,2.36172566 Z"/>
        <path fill="#2A4052" fill-opacity=".4" d="M8,2.36172566 L8,6.36172566 L7,6.36172566 L5.79406023,5.00987335 C5.73015019,4.93823053 5.62244892,4.92643736 5.54454956,4.98255223 L4.8165828,5.50694369 C4.74936427,5.55536461 4.66092514,5.55285801 4.59724884,5.50689869 L4.5518805,5.46014925 L4.5518805,5.46014925 L3.83642379,4.34145229 C3.78063585,4.25421119 3.6646879,4.22871337 3.5774468,4.28450131 C3.55714346,4.29748465 3.53953345,4.31426035 3.5255807,4.33391011 L2.08568548,6.36172566 L2,6.36172566 L2,2.36172566 L8,2.36172566 Z M6.5,3.36172566 C6.22385763,3.36172566 6,3.58558329 6,3.86172566 C6,4.13786804 6.22385763,4.36172566 6.5,4.36172566 C6.77614237,4.36172566 7,4.13786804 7,3.86172566 C7,3.58558329 6.77614237,3.36172566 6.5,3.36172566 Z"/>
      </g>
      <path fill="#3E6F84" d="M18,19 L18,19.625 C18,19.8321068 17.8321068,20 17.625,20 L17.375,20 C17.1678932,20 17,19.8321068 17,19.625 L17,19 L18,19 Z M18,3 L18,18 L17,18 L17,3 L18,3 Z M17.5,0 L18,2 L17,2 L17.5,0 Z"/>
    </g>
  </g>
</svg>
