<svg xmlns="http://www.w3.org/2000/svg" xmlns:xlink="http://www.w3.org/1999/xlink" width="48" height="48" viewBox="0 0 48 48">
  <defs>
    <filter id="folder-music-stack-a" width="131%" height="136.1%" x="-15.5%" y="-18.1%" filterUnits="objectBoundingBox">
      <feOffset dy="1" in="SourceAlpha" result="shadowOffsetOuter1"/>
      <feGaussianBlur in="shadowOffsetOuter1" result="shadowBlurOuter1" stdDeviation="1"/>
      <feColorMatrix in="shadowBlurOuter1" result="shadowMatrixOuter1" values="0 0 0 0 0   0 0 0 0 0   0 0 0 0 0  0 0 0 0.2 0"/>
      <feMerge>
        <feMergeNode in="shadowMatrixOuter1"/>
        <feMergeNode in="SourceGraphic"/>
      </feMerge>
    </filter>
    <path id="folder-music-stack-b" d="M23.4594595,2.0135498 C24.0367982,3.24247865 25.2722972,4.02709961 26.6300844,4.02709961 L40.5,4.02709961 C41.3284271,4.02709961 42,4.69867248 42,5.52709961 L42,34.5 C42,35.3284271 41.3284271,36 40.5,36 L1.5,36 C0.671572875,36 1.01453063e-16,35.3284271 0,34.5 L0,1.5 C1.20591542e-16,0.671572875 0.671572875,1.52179594e-16 1.5,0 L20.2888345,0 C21.6466217,-6.93510673e-16 22.8821207,0.78462096 23.4594595,2.0135498 Z"/>
    <filter id="folder-music-stack-c" width="104.8%" height="105.6%" x="-2.4%" y="-2.8%" filterUnits="objectBoundingBox">
      <feOffset dy="2" in="SourceAlpha" result="shadowOffsetInner1"/>
      <feComposite in="shadowOffsetInner1" in2="SourceAlpha" k2="-1" k3="1" operator="arithmetic" result="shadowInnerInner1"/>
      <feColorMatrix in="shadowInnerInner1" values="0 0 0 0 1   0 0 0 0 1   0 0 0 0 1  0 0 0 0.5 0"/>
    </filter>
    <radialGradient id="folder-music-stack-d" cx="50%" cy="0%" r="116.81%" fx="50%" fy="0%" gradientTransform="matrix(.06171 .99538 -.63989 .096 .47 -.498)">
      <stop offset="0%" stop-color="#FFE8D8"/>
      <stop offset="100%" stop-color="#EEC0AB"/>
    </radialGradient>
    <path id="folder-music-stack-e" d="M0,0 L42,0 L42,24.5 C42,25.3284271 41.3284271,26 40.5,26 L1.5,26 C0.671572875,26 1.01453063e-16,25.3284271 0,24.5 L0,0 L0,0 Z"/>
  </defs>
  <g fill="none" fill-rule="evenodd" filter="url(#folder-music-stack-a)" transform="translate(3 8)">
    <use fill="#E8BB9E" xlink:href="#folder-music-stack-b"/>
    <use fill="#000" filter="url(#folder-music-stack-c)" xlink:href="#folder-music-stack-b"/>
    <path stroke="#A8786D" stroke-linejoin="square" d="M20.2888345,0.5 C20.8708286,0.5 21.4266141,0.668157687 21.898768,0.968005606 C22.3709218,1.26785352 22.7594439,1.69939167 23.0069111,2.2261526 C23.3367827,2.92832052 23.8546794,3.50355727 24.4840565,3.90325204 C25.1134337,4.30294682 25.8542912,4.52709961 26.6300844,4.52709961 L26.6300844,4.52709961 L40.5,4.52709961 C40.7761424,4.52709961 41.0261424,4.63902842 41.2071068,4.81999283 C41.3880712,5.00095723 41.5,5.25095723 41.5,5.52709961 L41.5,5.52709961 L41.5,34.5 C41.5,34.7761424 41.3880712,35.0261424 41.2071068,35.2071068 C41.0261424,35.3880712 40.7761424,35.5 40.5,35.5 L40.5,35.5 L1.5,35.5 C1.22385763,35.5 0.973857625,35.3880712 0.792893219,35.2071068 C0.611928813,35.0261424 0.5,34.7761424 0.5,34.5 L0.5,34.5 L0.5,1.5 C0.5,1.22385763 0.611928813,0.973857625 0.792893219,0.792893219 C0.973857625,0.611928813 1.22385763,0.5 1.5,0.5 L1.5,0.5 L20.2888345,0.5 Z"/>
    <path fill="#FFF" stroke="#A8786D" d="M38.5,6.5 C38.7761424,6.5 39.0261424,6.61192881 39.2071068,6.79289322 C39.3880712,6.97385763 39.5,7.22385763 39.5,7.5 L39.5,7.5 L39.5,20.5 C39.5,20.7761424 39.3880712,21.0261424 39.2071068,21.2071068 C39.0261424,21.3880712 38.7761424,21.5 38.5,21.5 L38.5,21.5 L3.5,21.5 C3.22385763,21.5 2.97385763,21.3880712 2.79289322,21.2071068 C2.61192881,21.0261424 2.5,20.7761424 2.5,20.5 L2.5,20.5 L2.5,7.5 C2.5,7.22385763 2.61192881,6.97385763 2.79289322,6.79289322 C2.97385763,6.61192881 3.22385763,6.5 3.5,6.5 L3.5,6.5 Z"/>
    <path fill="url(#folder-music-stack-d)" stroke="#A17461" d="M41.5,9.5 L41.5,34.5 C41.5,34.7761424 41.3880712,35.0261424 41.2071068,35.2071068 C41.0261424,35.3880712 40.7761424,35.5 40.5,35.5 L40.5,35.5 L1.5,35.5 C1.22385763,35.5 0.973857625,35.3880712 0.792893219,35.2071068 C0.611928813,35.0261424 0.5,34.7761424 0.5,34.5 L0.5,34.5 L0.5,9.5 L41.5,9.5 Z"/>
    <g transform="translate(0 9)">
      <mask id="folder-music-stack-f" fill="#fff">
        <use xlink:href="#folder-music-stack-e"/>
      </mask>
      <g stroke="#925D51" mask="url(#folder-music-stack-f)">
        <g transform="translate(8.5 7)">
          <path fill="#3B1808" fill-opacity=".249" d="M12.5,0 C19.127417,0 24.5,5.372583 24.5,12 C24.5,18.627417 19.127417,24 12.5,24 C5.872583,24 0.5,18.627417 0.5,12 C0.5,5.372583 5.872583,0 12.5,0 Z M11.375,9.31864305 C11.1678932,9.31864305 11,9.48653627 11,9.69364305 L11,9.69364305 L11,14.3682967 C11,14.4310413 11.0157438,14.492783 11.0457892,14.5478662 C11.1449627,14.7296844 11.3727514,14.796681 11.5545695,14.6975075 L11.5545695,14.6975075 L15.4501142,12.572665 C15.504366,12.5430731 15.5504638,12.5005324 15.5843078,12.4488263 C15.6977317,12.2755398 15.6492034,12.043115 15.4759169,11.9296911 L15.4759169,11.9296911 L11.5803722,9.37987998 C11.5193292,9.33992455 11.4479568,9.31864305 11.375,9.31864305 Z"/>
          <circle cx="12.5" cy="12" r="10"/>
          <circle cx="12.5" cy="12" r="8"/>
          <circle cx="12.5" cy="12" r="6"/>
        </g>
      </g>
    </g>
  </g>
</svg>
