<svg xmlns="http://www.w3.org/2000/svg" xmlns:xlink="http://www.w3.org/1999/xlink" width="48" height="48" viewBox="0 0 48 48">
  <defs>
    <filter id="folder-applications-stack-a" width="131%" height="136.1%" x="-15.5%" y="-18.1%" filterUnits="objectBoundingBox">
      <feOffset dy="1" in="SourceAlpha" result="shadowOffsetOuter1"/>
      <feGaussianBlur in="shadowOffsetOuter1" result="shadowBlurOuter1" stdDeviation="1"/>
      <feColorMatrix in="shadowBlurOuter1" result="shadowMatrixOuter1" values="0 0 0 0 0   0 0 0 0 0   0 0 0 0 0  0 0 0 0.2 0"/>
      <feMerge>
        <feMergeNode in="shadowMatrixOuter1"/>
        <feMergeNode in="SourceGraphic"/>
      </feMerge>
    </filter>
    <path id="folder-applications-stack-b" d="M23.4594595,2.0135498 C24.0367982,3.24247865 25.2722972,4.02709961 26.6300844,4.02709961 L40.5,4.02709961 C41.3284271,4.02709961 42,4.69867248 42,5.52709961 L42,34.5 C42,35.3284271 41.3284271,36 40.5,36 L1.5,36 C0.671572875,36 1.01453063e-16,35.3284271 0,34.5 L0,1.5 C1.20591542e-16,0.671572875 0.671572875,1.52179594e-16 1.5,0 L20.2888345,0 C21.6466217,-6.93510673e-16 22.8821207,0.78462096 23.4594595,2.0135498 Z"/>
    <filter id="folder-applications-stack-c" width="104.8%" height="105.6%" x="-2.4%" y="-2.8%" filterUnits="objectBoundingBox">
      <feOffset dy="2" in="SourceAlpha" result="shadowOffsetInner1"/>
      <feComposite in="shadowOffsetInner1" in2="SourceAlpha" k2="-1" k3="1" operator="arithmetic" result="shadowInnerInner1"/>
      <feColorMatrix in="shadowInnerInner1" values="0 0 0 0 1   0 0 0 0 1   0 0 0 0 1  0 0 0 0.5 0"/>
    </filter>
    <radialGradient id="folder-applications-stack-d" cx="50%" cy="0%" r="116.81%" fx="50%" fy="0%" gradientTransform="matrix(.06171 .99538 -.63989 .096 .47 -.498)">
      <stop offset="0%" stop-color="#EFE0FF"/>
      <stop offset="100%" stop-color="#CFBDF1"/>
    </radialGradient>
    <path id="folder-applications-stack-e" d="M0,0 L42,0 L42,23.5 C42,24.3284271 41.3284271,25 40.5,25 L1.5,25 C0.671572875,25 1.01453063e-16,24.3284271 0,23.5 L0,0 L0,0 Z"/>
  </defs>
  <g fill="none" fill-rule="evenodd">
    <g filter="url(#folder-applications-stack-a)" transform="translate(3 8)">
      <use fill="#D2B8F1" xlink:href="#folder-applications-stack-b"/>
      <use fill="#000" filter="url(#folder-applications-stack-c)" xlink:href="#folder-applications-stack-b"/>
      <path stroke="#827CA9" stroke-linejoin="square" d="M20.2888345,0.5 C20.8708286,0.5 21.4266141,0.668157687 21.898768,0.968005606 C22.3709218,1.26785352 22.7594439,1.69939167 23.0069111,2.2261526 C23.3367827,2.92832052 23.8546794,3.50355727 24.4840565,3.90325204 C25.1134337,4.30294682 25.8542912,4.52709961 26.6300844,4.52709961 L26.6300844,4.52709961 L40.5,4.52709961 C40.7761424,4.52709961 41.0261424,4.63902842 41.2071068,4.81999283 C41.3880712,5.00095723 41.5,5.25095723 41.5,5.52709961 L41.5,5.52709961 L41.5,34.5 C41.5,34.7761424 41.3880712,35.0261424 41.2071068,35.2071068 C41.0261424,35.3880712 40.7761424,35.5 40.5,35.5 L40.5,35.5 L1.5,35.5 C1.22385763,35.5 0.973857625,35.3880712 0.792893219,35.2071068 C0.611928813,35.0261424 0.5,34.7761424 0.5,34.5 L0.5,34.5 L0.5,1.5 C0.5,1.22385763 0.611928813,0.973857625 0.792893219,0.792893219 C0.973857625,0.611928813 1.22385763,0.5 1.5,0.5 L1.5,0.5 L20.2888345,0.5 Z"/>
      <path fill="#FFF" stroke="#827CA9" d="M38.5,6.5 C38.7761424,6.5 39.0261424,6.61192881 39.2071068,6.79289322 C39.3880712,6.97385763 39.5,7.22385763 39.5,7.5 L39.5,7.5 L39.5,20.5 C39.5,20.7761424 39.3880712,21.0261424 39.2071068,21.2071068 C39.0261424,21.3880712 38.7761424,21.5 38.5,21.5 L38.5,21.5 L3.5,21.5 C3.22385763,21.5 2.97385763,21.3880712 2.79289322,21.2071068 C2.61192881,21.0261424 2.5,20.7761424 2.5,20.5 L2.5,20.5 L2.5,7.5 C2.5,7.22385763 2.61192881,6.97385763 2.79289322,6.79289322 C2.97385763,6.61192881 3.22385763,6.5 3.5,6.5 L3.5,6.5 Z"/>
      <path fill="url(#folder-applications-stack-d)" stroke="#8575A5" d="M41.5,9.5 L41.5,34.5 C41.5,34.7761424 41.3880712,35.0261424 41.2071068,35.2071068 C41.0261424,35.3880712 40.7761424,35.5 40.5,35.5 L40.5,35.5 L1.5,35.5 C1.22385763,35.5 0.973857625,35.3880712 0.792893219,35.2071068 C0.611928813,35.0261424 0.5,34.7761424 0.5,34.5 L0.5,34.5 L0.5,9.5 L41.5,9.5 Z"/>
      <path fill="url(#folder-applications-stack-d)" stroke="#8575A5" d="M41.5,9.5 L41.5,34.5 C41.5,34.7761424 41.3880712,35.0261424 41.2071068,35.2071068 C41.0261424,35.3880712 40.7761424,35.5 40.5,35.5 L40.5,35.5 L1.5,35.5 C1.22385763,35.5 0.973857625,35.3880712 0.792893219,35.2071068 C0.611928813,35.0261424 0.5,34.7761424 0.5,34.5 L0.5,34.5 L0.5,9.5 L41.5,9.5 Z"/>
    </g>
    <g transform="translate(3 18)">
      <mask id="folder-applications-stack-f" fill="#fff">
        <use xlink:href="#folder-applications-stack-e"/>
      </mask>
      <g mask="url(#folder-applications-stack-f)">
        <g transform="translate(3 -2)">
          <path fill="#000" fill-opacity=".105" fill-rule="nonzero" d="M18.5,20.500625 L28,24.25 L18.5001826,28 L9,24.25 L18.5,20.500625 Z"/>
          <g transform="translate(5.688 5.75)">
            <path fill="#AB9AC4" stroke="#686392" d="M5.95735629,5.34836119 L12.8143631,8.0378146 L19.3287251,5.43053418 L21.8125,9.42637631 L21.8125,16.1598237 L12.8125,19.7124553 L3.8125,16.1598237 L3.8125,9.40761784 L5.95735629,5.34836119 Z"/>
            <path fill="#AB9AC4" stroke="#686392" d="M3.52398209,4.37102446 L12.1041362,7.7579274 L10.1444304,11.3756602 L1.35865693,7.99651658 L3.52398209,4.37102446 Z"/>
            <path stroke="#686392" d="M12.8194873,0.537544708 L21.6834026,4.03908477 L21.4876217,4.60495822 L12.8125411,8.0343243 L4.14062775,4.60467589 L3.94298716,4.03880041 L12.8194873,0.537544708 Z"/>
            <path fill="#AB9AC4" stroke="#686392" d="M15.7116071,4.37102446 L24.2917612,7.7579274 L22.3320554,11.3756602 L13.5462819,7.99651658 L15.7116071,4.37102446 Z" transform="matrix(-1 0 0 1 37.813 0)"/>
          </g>
          <path fill="#FFF" fill-rule="nonzero" d="M20.9284556,10.7056935 C21.1710367,10.7056935 21.3676874,10.9023443 21.3676874,11.1449253 C21.3676874,11.3875063 21.1710367,11.5841571 20.9284556,11.5841571 C20.6858746,11.5841571 20.4892238,11.3875063 20.4892238,11.1449253 C20.4892238,10.9023443 20.6858746,10.7056935 20.9284556,10.7056935 Z M15.6576739,10.7056935 C15.900255,10.7056935 16.0969057,10.9023443 16.0969057,11.1449253 C16.0969057,11.3875063 15.900255,11.5841571 15.6576739,11.5841571 C15.4150929,11.5841571 15.2184421,11.3875063 15.2184421,11.1449253 C15.2184421,10.9023443 15.4150929,10.7056935 15.6576739,10.7056935 Z M21.7313714,8.07011501 L22.9737065,9.31245018 L21.7313714,10.5547853 L20.4890362,9.31245018 L21.7313714,8.07011501 Z M23.9804506,6.82375743 L23.8918928,7.40031999 L24.3164851,7.80028769 L23.7409515,7.89409702 L23.4917869,8.42174233 L23.2246976,7.90308763 L22.6460602,7.82929272 L23.0565049,7.41495467 L22.9479426,6.84173866 L23.4690294,7.10409518 L23.9804506,6.82375743 Z M1.9144671,4.55660597 L3.77796984,6.42010872 L1.9144671,8.28361146 L0.0509643562,6.42010872 L1.9144671,4.55660597 Z M19.1715284,7.191839 C19.4141094,7.191839 19.6107602,7.38848978 19.6107602,7.63107081 C19.6107602,7.87365184 19.4141094,8.07030262 19.1715284,8.07030262 C18.9289474,8.07030262 18.7322966,7.87365184 18.7322966,7.63107081 C18.7322966,7.38848978 18.9289474,7.191839 19.1715284,7.191839 Z M16.0742781,5.94529382 L15.9857202,6.52185637 L16.4103125,6.92182407 L15.834779,7.0156334 L15.5856143,7.54327871 L15.318525,7.02462402 L14.7398877,6.95082911 L15.1503324,6.53649106 L15.0417701,5.96327504 L15.5628569,6.22563157 L16.0742781,5.94529382 Z M11.1681303,5.56280246 L12.9119617,5.77691803 L12.6978461,7.52074939 L10.9540147,7.30663382 L11.1681303,5.56280246 Z M7.07851548,5.43491177 L7.33678378,5.95803685 L7.91393438,6.04193013 L7.49622493,6.44909801 L7.59505208,7.02405245 L7.07851548,6.75260719 L6.56197887,7.02405245 L6.66080603,6.44909801 L6.24309658,6.04193013 L6.82024717,5.95803685 L7.07851548,5.43491177 Z M27.2595429,4.19257661 L28.5018781,5.43491177 L27.2595429,6.67724693 L26.0172078,5.43491177 L27.2595429,4.19257661 Z M23.1246147,4.55644815 C23.6097767,4.55644815 24.0030783,4.94974971 24.0030783,5.43491177 C24.0030783,5.92007383 23.6097767,6.31337539 23.1246147,6.31337539 C22.6394526,6.31337539 22.2461511,5.92007383 22.2461511,5.43491177 C22.2461511,4.94974971 22.6394526,4.55644815 23.1246147,4.55644815 Z M32.0160311,1.92126202 L33.2583662,3.16359718 L31.3948635,5.02709993 L30.1525283,3.78476476 L32.0160311,1.92126202 Z M11.2653558,3.67798453 C11.5079369,3.67798453 11.7045876,3.87463531 11.7045876,4.11721634 C11.7045876,4.35979737 11.5079369,4.55644815 11.2653558,4.55644815 C11.0227748,4.55644815 10.826124,4.35979737 10.826124,4.11721634 C10.826124,3.87463531 11.0227748,3.67798453 11.2653558,3.67798453 Z M21.439864,1.72023899 L21.3067197,2.5850396 L21.9440911,3.18490221 L21.0802647,3.32601271 L20.7068685,4.11721634 L20.3059269,3.33919107 L19.4379277,3.22880626 L20.0538134,2.60685946 L19.8907513,1.74747517 L20.6722493,2.14083456 L21.439864,1.72023899 Z M1.80773377,1.9210573 C2.29289583,1.9210573 2.68619739,2.31435886 2.68619739,2.79952091 C2.68619739,3.28468297 2.29289583,3.67798453 1.80773377,3.67798453 C1.32257171,3.67798453 0.929270152,3.28468297 0.929270152,2.79952091 C0.929270152,2.31435886 1.32257171,1.9210573 1.80773377,1.9210573 Z M16.0050112,0.495774706 L17.6222712,1.18226087 L16.9357851,2.79952091 L15.318525,2.11303475 L16.0050112,0.495774706 Z"/>
        </g>
      </g>
    </g>
  </g>
</svg>
