<?xml version="1.0" encoding="UTF-8"?>
<svg width="128px" height="128px" viewBox="0 0 128 128" version="1.1" xmlns="http://www.w3.org/2000/svg" xmlns:xlink="http://www.w3.org/1999/xlink">
    <title>devices/128/media-cdrw</title>
    <defs>
        <filter x="-8.6%" y="-6.9%" width="117.2%" height="117.2%" filterUnits="objectBoundingBox" id="filter-1">
            <feOffset dx="0" dy="2" in="SourceAlpha" result="shadowOffsetOuter1"></feOffset>
            <feGaussianBlur stdDeviation="3" in="shadowOffsetOuter1" result="shadowBlurOuter1"></feGaussianBlur>
            <feColorMatrix values="0 0 0 0 0   0 0 0 0 0   0 0 0 0 0  0 0 0 0.2 0" type="matrix" in="shadowBlurOuter1" result="shadowMatrixOuter1"></feColorMatrix>
            <feMerge>
                <feMergeNode in="shadowMatrixOuter1"></feMergeNode>
                <feMergeNode in="SourceGraphic"></feMergeNode>
            </feMerge>
        </filter>
        <linearGradient x1="28.8395889%" y1="5.6059543%" x2="73.7075197%" y2="93.9492692%" id="linearGradient-2">
            <stop stop-color="#5CD4FB" offset="0%"></stop>
            <stop stop-color="#FFADF1" offset="47.7870472%"></stop>
            <stop stop-color="#7DF8FF" offset="100%"></stop>
        </linearGradient>
    </defs>
    <g id="devices/128/media-cdrw" stroke="none" stroke-width="1" fill="none" fill-rule="evenodd">
        <g id="Group" filter="url(#filter-1)" transform="translate(6, 6)">
            <g id="Group-4" transform="translate(38.6667, 38.6667)"></g>
            <path d="M58,0 C90.0325155,0 116,25.9674845 116,58 C116,90.0325155 90.0325155,116 58,116 C25.9674845,116 0,90.0325155 0,58 C0,25.9674845 25.9674845,0 58,0 Z M58,38.6666667 C47.3224948,38.6666667 38.6666667,47.3224948 38.6666667,58 C38.6666667,68.6775052 47.3224948,77.3333333 58,77.3333333 C68.6775052,77.3333333 77.3333333,68.6775052 77.3333333,58 C77.3333333,47.3224948 68.6775052,38.6666667 58,38.6666667 Z" id="Combined-Shape" fill="url(#linearGradient-2)"></path>
            <path d="M113.238095,58 C113.238095,27.4928424 88.5071576,2.76190476 58,2.76190476 C27.4928424,2.76190476 2.76190476,27.4928424 2.76190476,58 C2.76190476,88.5071576 27.4928424,113.238095 58,113.238095 C88.5071576,113.238095 113.238095,88.5071576 113.238095,58 Z M58,85.6190476 C73.2535788,85.6190476 85.6190476,73.2535788 85.6190476,58 C85.6190476,42.7464212 73.2535788,30.3809524 58,30.3809524 C42.7464212,30.3809524 30.3809524,42.7464212 30.3809524,58 C30.3809524,73.2535788 42.7464212,85.6190476 58,85.6190476 L58,85.6190476 Z" id="Combined-Shape" fill="#FFFFFF" opacity="0.39738806"></path>
            <path d="M58,77.3333333 C68.6775052,77.3333333 77.3333333,68.6775052 77.3333333,58 C77.3333333,47.3224948 68.6775052,38.6666667 58,38.6666667 C47.3224948,38.6666667 38.6666667,47.3224948 38.6666667,58 C38.6666667,68.6775052 47.3224948,77.3333333 58,77.3333333 L58,77.3333333 Z M58,66.2857143 C62.5760736,66.2857143 66.2857143,62.5760736 66.2857143,58 C66.2857143,53.4239264 62.5760736,49.7142857 58,49.7142857 C53.4239264,49.7142857 49.7142857,53.4239264 49.7142857,58 C49.7142857,62.5760736 53.4239264,66.2857143 58,66.2857143 L58,66.2857143 Z" id="Combined-Shape" fill="#CBD4E5" opacity="0.8"></path>
            <path d="M58,85.6190476 C73.2535788,85.6190476 85.6190476,73.2535788 85.6190476,58 C85.6190476,42.7464212 73.2535788,30.3809524 58,30.3809524 C42.7464212,30.3809524 30.3809524,42.7464212 30.3809524,58 C30.3809524,73.2535788 42.7464212,85.6190476 58,85.6190476 L58,85.6190476 Z M58,74.5714286 C67.1521473,74.5714286 74.5714286,67.1521473 74.5714286,58 C74.5714286,48.8478527 67.1521473,41.4285714 58,41.4285714 C48.8478527,41.4285714 41.4285714,48.8478527 41.4285714,58 C41.4285714,67.1521473 48.8478527,74.5714286 58,74.5714286 L58,74.5714286 Z" id="Combined-Shape" fill="#B792AF" opacity="0.4"></path>
            <path d="M58,2.76190476 C52.261252,2.76190476 46.7171678,3.59535967 41.4821892,5.1478276 C41.4821892,5.14782755 55.3332453,49.7142857 55.3332454,49.8967052 C56.2049562,49.7764377 57.0952199,49.7142857 58,49.7142857 C58.9762701,49.7142857 59.9356393,49.7866475 60.8730365,49.9263 C60.8730364,49.7866484 74.6826378,5.14782755 74.6826378,5.1969763 C69.3992561,3.61295707 63.799015,2.76190476 58,2.76190476 Z M58,113.263171 C52.261252,113.263171 46.7171678,112.429716 41.4821892,110.877248 C41.4821892,110.877248 55.3055295,66.1067241 55.3055298,66.1245263 C56.1860833,66.2473134 57.0856287,66.31079 58,66.31079 C58.9567653,66.31079 59.8972982,66.2412908 60.8168257,66.1067241 C61.7972611,65.9639491 74.6826378,110.877248 74.6826378,110.828099 C69.3992561,112.412119 63.799015,113.263171 58,113.263171 Z" id="Combined-Shape" fill="#FFFFFF" opacity="0.25" transform="translate(58.0824, 58.0125) rotate(-30) translate(-58.0824, -58.0125)"></path>
        </g>
        <path d="M40.408,97 C38.648,97 37.272,97.592 36.312,98.808 C35.432,99.896 35,101.288 35,102.984 C35,104.68 35.416,106.056 36.28,107.112 C37.224,108.28 38.584,108.872 40.36,108.872 C41.576,108.872 42.632,108.52 43.512,107.832 C44.456,107.096 45.048,106.056 45.304,104.728 L44.04,104.728 C43.816,105.72 43.352,106.472 42.68,106.984 C42.04,107.464 41.272,107.704 40.36,107.704 C39.016,107.704 38.008,107.256 37.304,106.376 C36.632,105.544 36.312,104.408 36.312,102.984 C36.312,101.56 36.648,100.424 37.32,99.56 C38.04,98.632 39.064,98.168 40.392,98.168 C41.288,98.168 42.04,98.376 42.664,98.808 C43.304,99.256 43.72,99.896 43.88,100.728 L45.144,100.728 C44.984,99.592 44.472,98.68 43.608,98.008 C42.744,97.336 41.672,97 40.408,97 L40.408,97 Z M47.128,97.224 L47.128,108.648 L51.096,108.648 C52.888,108.648 54.264,108.12 55.224,107.08 C56.136,106.088 56.6,104.696 56.6,102.936 C56.6,101.144 56.168,99.752 55.32,98.792 C54.392,97.736 53.032,97.224 51.224,97.224 L47.128,97.224 Z M48.44,98.36 L51.016,98.36 C52.52,98.36 53.608,98.744 54.312,99.528 C54.968,100.264 55.304,101.4 55.304,102.936 C55.304,104.424 54.936,105.56 54.232,106.328 C53.48,107.112 52.36,107.512 50.872,107.512 L48.44,107.512 L48.44,98.36 Z M58.072,103.96 L58.072,105.048 L66.152,105.048 L66.152,103.96 L58.072,103.96 Z M68.104,97.224 L68.104,108.648 L69.416,108.648 L69.416,103.736 L72.872,103.736 C73.592,103.736 74.136,103.864 74.52,104.152 C74.936,104.44 75.176,104.936 75.24,105.608 L75.384,107.128 C75.432,107.768 75.592,108.264 75.848,108.648 L77.272,108.648 C76.936,108.232 76.728,107.672 76.664,106.968 L76.488,105.208 C76.36,104.056 75.752,103.368 74.664,103.128 L74.664,103.096 C75.32,102.936 75.832,102.616 76.216,102.104 C76.568,101.608 76.744,101.048 76.744,100.408 C76.744,99.352 76.392,98.552 75.72,98.008 C75.064,97.48 74.168,97.224 73.032,97.224 L68.104,97.224 Z M69.416,98.36 L72.872,98.36 C73.752,98.36 74.408,98.536 74.824,98.888 C75.208,99.224 75.416,99.752 75.416,100.456 C75.416,101.128 75.208,101.64 74.808,102.008 C74.36,102.392 73.704,102.6 72.872,102.6 L69.416,102.6 L69.416,98.36 Z M77.848,97.224 L81.128,108.648 L82.584,108.648 L85.192,99.128 L85.24,99.128 L87.832,108.648 L89.288,108.648 L92.568,97.224 L91.096,97.224 L88.584,106.808 L88.52,106.808 L85.928,97.224 L84.504,97.224 L81.896,106.808 L81.832,106.808 L79.32,97.224 L77.848,97.224 Z" id="CD-RW" fill="#8F859E"></path>
    </g>
</svg>