<?xml version="1.0" encoding="UTF-8"?>
<svg width="22px" height="22px" viewBox="0 0 22 22" version="1.1" xmlns="http://www.w3.org/2000/svg" xmlns:xlink="http://www.w3.org/1999/xlink">
    <!-- Generator: Sketch 41.2 (35397) - http://www.bohemiancoding.com/sketch -->
    <title>help-contents</title>
    <desc>Created with Sketch.</desc>
    <defs></defs>
    <g id="Page-1" stroke="none" stroke-width="1" fill="none" fill-rule="evenodd">
        <g id="help-contents" fill="#303030">
            <path d="M11.1411765,4 C9.82352941,4 8.78823529,4.40366972 8.03529412,5.24770642 C7.35764706,6.01834862 7,7.00917431 7,8.25688073 L8.12941176,8.25688073 C8.12941176,7.30275229 8.35529412,6.53211009 8.80705882,5.98165138 C9.31529412,5.32110092 10.0682353,4.99082569 11.0847059,4.99082569 C11.9694118,4.99082569 12.6658824,5.21100917 13.1552941,5.68807339 C13.6070588,6.14678899 13.8517647,6.7706422 13.8517647,7.55963303 C13.8517647,8.11009174 13.6447059,8.62385321 13.2494118,9.11926606 C13.0988235,9.30275229 12.7976471,9.59633028 12.3835294,10 C11.48,10.7706422 10.9152941,11.4495413 10.6517647,12 C10.4258824,12.440367 10.3129412,12.9357798 10.3129412,13.4678899 L10.3129412,14 L11.4611765,14 L11.4611765,13.4678899 C11.4611765,12.9541284 11.5929412,12.4954128 11.8564706,12.0550459 C12.0447059,11.7431193 12.3458824,11.3944954 12.7976471,11.0091743 C13.5882353,10.3119266 14.0776471,9.85321101 14.2847059,9.59633028 C14.7552941,8.99082569 15,8.29357798 15,7.52293578 C15,6.4587156 14.6611765,5.6146789 13.9835294,4.99082569 C13.2682353,4.33027523 12.3270588,4 11.1411765,4 Z M11,16 C10.7254902,16 10.4705882,16.08 10.2745098,16.28 C10.0784314,16.46 10,16.7 10,17 C10,17.28 10.0784314,17.5 10.2745098,17.7 C10.4705882,17.9 10.7254902,18 11,18 C11.2745098,18 11.5098039,17.9 11.7058824,17.72 C11.9019608,17.52 12,17.28 12,17 C12,16.7 11.9019608,16.46 11.7058824,16.28 C11.5098039,16.08 11.2745098,16 11,16 Z" id="？"></path>
        </g>
    </g>
</svg>