<?xml version="1.0" encoding="UTF-8"?>
<svg width="24px" height="24px" viewBox="0 0 24 24" version="1.1" xmlns="http://www.w3.org/2000/svg" xmlns:xlink="http://www.w3.org/1999/xlink">
    <title>mimetypes/24/application-vnd.flatpak</title>
    <defs>
        <linearGradient x1="50%" y1="0%" x2="50%" y2="99.7939317%" id="linearGradient-1">
            <stop stop-color="#9BA6C1" offset="0%"></stop>
            <stop stop-color="#778EB2" offset="100%"></stop>
        </linearGradient>
        <path d="M16,17.75 C16,18.9926407 14.9926407,20 13.75,20 L2.25,20 C1.00735931,20 1.52179594e-16,18.9926407 0,17.75 L0,2.25 C-1.52179594e-16,1.00735931 1.00735931,2.28269391e-16 2.25,0 L10.5,0 L16,5.5 L16,17.75 Z" id="path-2"></path>
        <filter x="-21.9%" y="-12.5%" width="143.8%" height="135.0%" filterUnits="objectBoundingBox" id="filter-3">
            <feOffset dx="0" dy="1" in="SourceAlpha" result="shadowOffsetOuter1"></feOffset>
            <feGaussianBlur stdDeviation="1" in="shadowOffsetOuter1" result="shadowBlurOuter1"></feGaussianBlur>
            <feColorMatrix values="0 0 0 0 0.474509804   0 0 0 0 0.558835447   0 0 0 0 0.701960784  0 0 0 0.5 0" type="matrix" in="shadowBlurOuter1"></feColorMatrix>
        </filter>
        <linearGradient x1="50%" y1="50%" x2="12.2232245%" y2="88.5133793%" id="linearGradient-4">
            <stop stop-color="#FFFFFF" stop-opacity="0.1" offset="0%"></stop>
            <stop stop-color="#FFFFFF" stop-opacity="0.3" offset="100%"></stop>
        </linearGradient>
        <path d="M10.5,0 L16,5.5 L12.75,5.5 C11.5073593,5.5 10.5,4.49264069 10.5,3.25 L10.5,0 L10.5,0 Z" id="path-5"></path>
        <filter x="-36.4%" y="-18.2%" width="172.7%" height="172.7%" filterUnits="objectBoundingBox" id="filter-6">
            <feOffset dx="0" dy="1" in="SourceAlpha" result="shadowOffsetOuter1"></feOffset>
            <feGaussianBlur stdDeviation="0.5" in="shadowOffsetOuter1" result="shadowBlurOuter1"></feGaussianBlur>
            <feComposite in="shadowBlurOuter1" in2="SourceAlpha" operator="out" result="shadowBlurOuter1"></feComposite>
            <feColorMatrix values="0 0 0 0 0   0 0 0 0 0   0 0 0 0 0  0 0 0 0.05 0" type="matrix" in="shadowBlurOuter1"></feColorMatrix>
        </filter>
    </defs>
    <g id="mimetypes/24/application-vnd.flatpak" stroke="none" stroke-width="1" fill="none" fill-rule="evenodd">
        <g id="编组" transform="translate(4, 2)">
            <g id="bg">
                <use fill="black" fill-opacity="1" filter="url(#filter-3)" xlink:href="#path-2"></use>
                <use fill="url(#linearGradient-1)" fill-rule="evenodd" xlink:href="#path-2"></use>
            </g>
            <g id="折角">
                <use fill="black" fill-opacity="1" filter="url(#filter-6)" xlink:href="#path-5"></use>
                <use fill="url(#linearGradient-4)" fill-rule="evenodd" xlink:href="#path-5"></use>
            </g>
        </g>
        <path d="M17.0068344,14.4568639 C17.0068087,14.841924 16.8295715,15.2025715 16.5313793,15.4379124 L16.4139974,15.5200944 L12.6639403,17.8377525 C12.3014726,18.0617694 11.8530946,18.0841771 11.4734396,17.9049733 L11.3496453,17.8377716 L7.59934915,15.5201165 C7.27175909,15.3176683 7.05811246,14.9772729 7.01467975,14.5998538 L7.00648117,14.4567833 L7.00648117,10.4999666 L7.01048117,10.499 L7.01178974,10.4510217 C7.04674086,9.91649373 7.32821526,9.43083774 7.77045284,9.12579975 L7.90786125,9.03983863 L11.1085753,7.23513425 C11.3945084,7.0743356 11.7202754,6.99327923 12.050317,7.00043604 L12.141277,7.00470883 C12.4117393,7.02411265 12.6744421,7.10289773 12.9098542,7.23553006 L16.1108248,9.04038028 C16.6353187,9.3371745 16.9726738,9.8724292 17.0070945,10.4960598 L17.0068344,14.4568639 Z M8.00648117,12.015 L8.00648117,14.4567833 C8.00648117,14.5217686 8.0317182,14.5832786 8.07543218,14.6291887 L8.12505477,14.6694499 L11.8753509,16.9871051 C11.9357633,17.0244395 12.0081068,17.0337722 12.0744842,17.0151036 L12.1382099,16.9871013 L15.888267,14.6694431 C15.9435414,14.6352817 15.9825951,14.5814832 15.9986698,14.5201683 L16.0068344,14.456797 L16.0064812,12.017 L12.909881,13.7642301 C12.4030895,14.0500103 11.7891738,14.0759918 11.2629229,13.8421819 L11.1078724,13.7642452 L8.00648117,12.015 Z M12.0286375,8.00020102 C11.8771141,7.9969153 11.7281767,8.03397346 11.5992365,8.10648455 L8.39942916,9.91067775 C8.1706373,10.0399699 8.02594412,10.267209 8.01071959,10.485814 L8.02379528,10.5837079 C8.06719852,10.7924286 8.20179234,10.9772616 8.39872081,11.0886976 L11.5990417,12.8931811 C11.8516152,13.0356075 12.1661129,13.0356067 12.4187118,12.8931659 L15.6182979,11.0890976 C15.8470898,10.9598054 15.991783,10.7325662 16.006,10.517 L15.9939317,10.4160672 C15.9577623,10.2421334 15.8582662,10.0847882 15.7121424,9.97268292 L15.6190064,9.91107773 L12.418849,8.10668666 C12.3126031,8.04682725 12.1931394,8.01099984 12.0819816,8.00287371 Z" id="形状结合" fill="#FFFFFF" fill-rule="nonzero"></path>
    </g>
</svg>