<?xml version="1.0" encoding="UTF-8"?>
<svg width="24px" height="24px" viewBox="0 0 24 24" version="1.1" xmlns="http://www.w3.org/2000/svg" xmlns:xlink="http://www.w3.org/1999/xlink">
    <title>mimetypes/24/application-x-audacity-project</title>
    <defs>
        <linearGradient x1="50%" y1="0%" x2="50%" y2="100%" id="linearGradient-1">
            <stop stop-color="#B7EE43" offset="0%"></stop>
            <stop stop-color="#6AD500" offset="100%"></stop>
        </linearGradient>
        <path d="M16,17.75 C16,18.9926407 14.9926407,20 13.75,20 L2.25,20 C1.00735931,20 1.52179594e-16,18.9926407 0,17.75 L0,2.25 C-1.52179594e-16,1.00735931 1.00735931,2.28269391e-16 2.25,0 L10.5,0 L16,5.5 L16,17.75 Z" id="path-2"></path>
        <filter x="-21.9%" y="-12.5%" width="143.8%" height="135.0%" filterUnits="objectBoundingBox" id="filter-3">
            <feOffset dx="0" dy="1" in="SourceAlpha" result="shadowOffsetOuter1"></feOffset>
            <feGaussianBlur stdDeviation="1" in="shadowOffsetOuter1" result="shadowBlurOuter1"></feGaussianBlur>
            <feColorMatrix values="0 0 0 0 0.505882353   0 0 0 0 0.741176471   0 0 0 0 0  0 0 0 0.5 0" type="matrix" in="shadowBlurOuter1"></feColorMatrix>
        </filter>
        <linearGradient x1="50%" y1="50%" x2="14.0884528%" y2="88.5133793%" id="linearGradient-4">
            <stop stop-color="#FFFFFF" stop-opacity="0.1" offset="0%"></stop>
            <stop stop-color="#FFFFFF" stop-opacity="0.3" offset="100%"></stop>
        </linearGradient>
        <path d="M10.5,0 L16,5.64102564 L12.75,5.64102564 C11.5073593,5.64102564 10.5,4.63366633 10.5,3.39102564 L10.5,0 L10.5,0 Z" id="path-5"></path>
        <filter x="-36.4%" y="-17.7%" width="172.7%" height="170.9%" filterUnits="objectBoundingBox" id="filter-6">
            <feOffset dx="0" dy="1" in="SourceAlpha" result="shadowOffsetOuter1"></feOffset>
            <feGaussianBlur stdDeviation="0.5" in="shadowOffsetOuter1" result="shadowBlurOuter1"></feGaussianBlur>
            <feComposite in="shadowBlurOuter1" in2="SourceAlpha" operator="out" result="shadowBlurOuter1"></feComposite>
            <feColorMatrix values="0 0 0 0 0   0 0 0 0 0   0 0 0 0 0  0 0 0 0.05 0" type="matrix" in="shadowBlurOuter1"></feColorMatrix>
        </filter>
    </defs>
    <g id="mimetypes/24/application-x-audacity-project" stroke="none" stroke-width="1" fill="none" fill-rule="evenodd">
        <g id="编组" transform="translate(4, 2)">
            <g id="bg">
                <use fill="black" fill-opacity="1" filter="url(#filter-3)" xlink:href="#path-2"></use>
                <use fill="url(#linearGradient-1)" fill-rule="evenodd" xlink:href="#path-2"></use>
            </g>
            <g id="折角">
                <use fill="black" fill-opacity="1" filter="url(#filter-6)" xlink:href="#path-5"></use>
                <use fill="url(#linearGradient-4)" fill-rule="evenodd" xlink:href="#path-5"></use>
            </g>
        </g>
        <g id="Group-2" transform="translate(7, 6)" fill="#FFFFFF">
            <path d="M8.52923547,3.64399827 C8.78548608,3.64306548 9.02864359,3.91240918 9.02864359,4.24628315 L9.02864359,4.41742863 C9.02864359,4.66806791 9.25122623,5.2497755 10.4829126,6.0175921 C10.4829126,6.0175921 11.4398025,6.54336352 12,7.5 C12,7.5 12.6999998,8.79999924 11.7478336,10.3165554 C11.7478336,10.3165554 11.6702103,10.4792839 11.5,10.4110128 C11.3653281,10.3567699 11.411154,10.1856244 11.411154,10.1856244 C11.411154,10.1856244 12,9 11.5,8 C11.5,8 11,6.77044517 8.95289067,6.77044517 L8.95227286,7.00039947 C8.95217291,7.03693079 8.95206159,7.07735561 8.95193947,7.1213375 L8.9510817,7.42522197 C8.9471684,8.78996599 8.93768578,11.8159865 8.93044536,11.8521886 C8.92015793,12.7425192 8.18039796,13.6777404 7.0441042,14.1201 C5.65717117,14.6597227 4.20757831,14.2603832 3.80543319,13.2288342 C3.40328808,12.19635 4.18419778,10.8664655 5.59170568,10.3810857 C6.54750175,10.0518878 7.38265428,10.0752683 8.02982735,10.4110128 L8.04666133,4.25002403 C8.04759655,3.91615007 8.27392008,3.64493592 8.52923547,3.64399827 Z M6.66666667,0 L9,1.75 L9,3 L8,3 L8,2.25 L6.333,1 L1,1 L1,10 L4,10 L4,11 L0,11 L0,0 L6.66666667,0 Z" id="形状结合"></path>
        </g>
    </g>
</svg>