<svg xmlns="http://www.w3.org/2000/svg" xmlns:xlink="http://www.w3.org/1999/xlink" width="24" height="24" viewBox="0 0 24 24">
  <defs>
    <linearGradient id="application-x-qet-project-c" x1="50%" x2="50%" y1="0%" y2="100%">
      <stop offset="0%" stop-color="#3C9"/>
      <stop offset="100%" stop-color="#00AE74"/>
    </linearGradient>
    <path id="application-x-qet-project-b" d="M12.125,0 L10.5,0 L16,5.5 L16,2.25 L16,17.75 C16,18.9926407 14.9926407,20 13.75,20 L2.25,20 C1.00735931,20 1.52179594e-16,18.9926407 0,17.75 L0,2.25 C-1.52179594e-16,1.00735931 1.00735931,2.28269391e-16 2.25,0 L12.125,0 Z"/>
    <filter id="application-x-qet-project-a" width="143.8%" height="135%" x="-21.9%" y="-12.5%" filterUnits="objectBoundingBox">
      <feOffset dy="1" in="SourceAlpha" result="shadowOffsetOuter1"/>
      <feGaussianBlur in="shadowOffsetOuter1" result="shadowBlurOuter1" stdDeviation="1"/>
      <feColorMatrix in="shadowBlurOuter1" values="0 0 0 0 0.262745098   0 0 0 0 0.71372549   0 0 0 0 0.607843137  0 0 0 0.5 0"/>
    </filter>
    <linearGradient id="application-x-qet-project-f" x1="50%" x2="14.088%" y1="50%" y2="88.513%">
      <stop offset="0%" stop-color="#FFF" stop-opacity=".1"/>
      <stop offset="100%" stop-color="#FFF" stop-opacity=".3"/>
    </linearGradient>
    <path id="application-x-qet-project-e" d="M10.5,0 L16,5.64102564 L12.75,5.64102564 C11.5073593,5.64102564 10.5,4.63366633 10.5,3.39102564 L10.5,0 Z"/>
    <filter id="application-x-qet-project-d" width="172.7%" height="170.9%" x="-36.4%" y="-17.7%" filterUnits="objectBoundingBox">
      <feOffset dy="1" in="SourceAlpha" result="shadowOffsetOuter1"/>
      <feGaussianBlur in="shadowOffsetOuter1" result="shadowBlurOuter1" stdDeviation=".5"/>
      <feComposite in="shadowBlurOuter1" in2="SourceAlpha" operator="out" result="shadowBlurOuter1"/>
      <feColorMatrix in="shadowBlurOuter1" values="0 0 0 0 0   0 0 0 0 0   0 0 0 0 0  0 0 0 0.05 0"/>
    </filter>
  </defs>
  <g fill="none" fill-rule="evenodd">
    <g transform="translate(4 2)">
      <use fill="#000" filter="url(#application-x-qet-project-a)" xlink:href="#application-x-qet-project-b"/>
      <use fill="url(#application-x-qet-project-c)" xlink:href="#application-x-qet-project-b"/>
      <use fill="#000" filter="url(#application-x-qet-project-d)" xlink:href="#application-x-qet-project-e"/>
      <use fill="url(#application-x-qet-project-f)" xlink:href="#application-x-qet-project-e"/>
    </g>
    <path fill="#FFF" d="M10,9 L11,9 L11,7 L10,7 L10,9 Z M14,9 L15,9 L15,7 L14,7 L14,9 Z M13,9 L13,7 L12,7 L12,9 L13,9 Z M6,11 L8,11 L8,10 L6,10 L6,11 Z M9,16 L15,16 L15,10 L9,10 L9,16 Z M16,12 L18,12 L18,11 L16,11 L16,12 Z M6,13 L8,13 L8,12 L6,12 L6,13 Z M16,14 L18,14 L18,13 L16,13 L16,14 Z M6,15 L8,15 L8,14 L6,14 L6,15 Z M14,13 L14,15 L12,15 L14,13 Z M16,16 L18,16 L18,15 L16,15 L16,16 Z M9,19 L10,19 L10,17 L9,17 L9,19 Z M11,19 L12,19 L12,17 L11,17 L11,19 Z M13,19 L14,19 L14,17 L13,17 L13,19 Z"/>
  </g>
</svg>
