<svg xmlns="http://www.w3.org/2000/svg" xmlns:xlink="http://www.w3.org/1999/xlink" width="24" height="24" viewBox="0 0 24 24">
  <defs>
    <linearGradient id="application-x-ddf-c" x1="50%" x2="50%" y1="0%" y2="99.372%">
      <stop offset="0%" stop-color="#D6D6D6"/>
      <stop offset="98.276%" stop-color="#AAA"/>
    </linearGradient>
    <path id="application-x-ddf-b" d="M16,17.75 C16,18.9926407 14.9926407,20 13.75,20 L2.25,20 C1.00735931,20 1.52179594e-16,18.9926407 0,17.75 L0,2.25 C-1.52179594e-16,1.00735931 1.00735931,2.28269391e-16 2.25,0 L10.5,0 L16,5.5 L16,17.75 Z"/>
    <filter id="application-x-ddf-a" width="143.8%" height="135%" x="-21.9%" y="-12.5%" filterUnits="objectBoundingBox">
      <feOffset dy="1" in="SourceAlpha" result="shadowOffsetOuter1"/>
      <feGaussianBlur in="shadowOffsetOuter1" result="shadowBlurOuter1" stdDeviation="1"/>
      <feColorMatrix in="shadowBlurOuter1" values="0 0 0 0 0   0 0 0 0 0   0 0 0 0 0  0 0 0 0.2 0"/>
    </filter>
    <linearGradient id="application-x-ddf-d" x1="50%" x2="50%" y1="0%" y2="98.139%">
      <stop offset="0%" stop-color="#FFF"/>
      <stop offset="100%" stop-color="#EDEDED"/>
    </linearGradient>
    <linearGradient id="application-x-ddf-e" x1="52.692%" x2="33.21%" y1="0%" y2="86.29%">
      <stop offset="0%" stop-color="#1B90FF"/>
      <stop offset="47.525%" stop-color="#53A0FD"/>
      <stop offset="100%" stop-color="#68FFAD"/>
    </linearGradient>
    <linearGradient id="application-x-ddf-f" x1="52.104%" x2="64.032%" y1="0%" y2="71.03%">
      <stop offset="0%" stop-color="#A197FF"/>
      <stop offset="100%" stop-color="#60FFA4"/>
    </linearGradient>
    <linearGradient id="application-x-ddf-g" x1="63.732%" x2="31.888%" y1="18.3%" y2="92.174%">
      <stop offset="0%" stop-color="#DD61FA"/>
      <stop offset="100%" stop-color="#FFDC5A"/>
    </linearGradient>
    <linearGradient id="application-x-ddf-h" x1="96.359%" x2="0%" y1="23.403%" y2="81.528%">
      <stop offset="0%" stop-color="#FA6196"/>
      <stop offset="100%" stop-color="#FFD849"/>
    </linearGradient>
    <linearGradient id="application-x-ddf-i" x1="95.792%" x2="0%" y1="43.712%" y2="53.321%">
      <stop offset="0%" stop-color="#FF9532"/>
      <stop offset="100%" stop-color="#FFFF46"/>
    </linearGradient>
    <linearGradient id="application-x-ddf-j" x1="0%" x2="98.687%" y1="100%" y2="100%">
      <stop offset="0%" stop-color="#FFF"/>
      <stop offset="100%" stop-color="#EDEDED"/>
    </linearGradient>
    <linearGradient id="application-x-ddf-l" x1="-77.238%" x2="100%" y1="100%" y2="100%">
      <stop offset="0%" stop-color="#828282"/>
      <stop offset="100%" stop-color="#353535"/>
    </linearGradient>
    <path id="application-x-ddf-k" d="M2.97932872,4.65830533 C3.12775047,4.65787396 3.25857752,4.75562762 3.30023345,4.89808459 L3.4638958,5.45778507 C3.51556351,5.63448081 3.41420826,5.81960597 3.23751252,5.87127368 C3.20712285,5.88015994 3.1756221,5.88467107 3.14395985,5.88467107 L1.81195619,5.88467107 C1.62786128,5.88467107 1.47862286,5.73543265 1.47862286,5.55133773 C1.47862286,5.52214003 1.48245906,5.49306887 1.49003299,5.46487062 L1.63957069,4.90813114 C1.67859343,4.76284671 1.81009191,4.66170354 1.96052511,4.66126633 L2.97932872,4.65830533 Z M2.96111111,1.37254902 L2.96111111,4.39215686 L2.09444444,4.39215686 L2.09444444,1.37254902 L2.96111111,1.37254902 Z M2.62777778,1.2706176e-13 C2.81187269,1.2706176e-13 2.96111111,0.149238417 2.96111111,0.333333333 L2.96111111,0.333333333 L2.96111111,1.09803922 L2.09444444,1.09803922 L2.09444444,0.333333333 C2.09444444,0.149238417 2.24368286,1.2706176e-13 2.42777778,1.2706176e-13 L2.42777778,1.2706176e-13 Z"/>
    <linearGradient id="application-x-ddf-o" x1="50%" x2="14.088%" y1="50%" y2="88.513%">
      <stop offset="0%" stop-color="#FFF" stop-opacity=".1"/>
      <stop offset="100%" stop-color="#FFF" stop-opacity=".3"/>
    </linearGradient>
    <path id="application-x-ddf-n" d="M10.5,0 L16,5.64102564 L12.75,5.64102564 C11.5073593,5.64102564 10.5,4.63366633 10.5,3.39102564 L10.5,0 L10.5,0 Z"/>
    <filter id="application-x-ddf-m" width="172.7%" height="170.9%" x="-36.4%" y="-17.7%" filterUnits="objectBoundingBox">
      <feOffset dy="1" in="SourceAlpha" result="shadowOffsetOuter1"/>
      <feGaussianBlur in="shadowOffsetOuter1" result="shadowBlurOuter1" stdDeviation=".5"/>
      <feComposite in="shadowBlurOuter1" in2="SourceAlpha" operator="out" result="shadowBlurOuter1"/>
      <feColorMatrix in="shadowBlurOuter1" values="0 0 0 0 0   0 0 0 0 0   0 0 0 0 0  0 0 0 0.05 0"/>
    </filter>
  </defs>
  <g fill="none" fill-rule="evenodd" transform="translate(4 2)">
    <use fill="#000" filter="url(#application-x-ddf-a)" xlink:href="#application-x-ddf-b"/>
    <use fill="url(#application-x-ddf-c)" xlink:href="#application-x-ddf-b"/>
    <g transform="translate(2 3.5)">
      <path fill="url(#application-x-ddf-d)" d="M6,1.5 C6.78696532,1.5 6.4638321,3.09886477 7.41890727,3.08750622 C8.46837075,3.07502513 9.48154052,3.20694987 10.6621677,4.20287304 C11.5576081,4.95822568 12,6.41017615 12,7.5 C12,10.8137085 9.3137085,13.5 6,13.5 C2.6862915,13.5 0,10.8137085 0,7.5 C0,4.1862915 2.6862915,1.5 6,1.5 Z M4.21879393,3.47727273 C3.91754771,3.9990465 4.04344795,4.63570999 4.5,4.89930044 C4.95655205,5.16289089 5.57086893,4.95359195 5.87211516,4.43181818 C6.17336139,3.91004441 6.04746114,3.27338092 5.59090909,3.00979047 C5.13435704,2.74620002 4.52004016,2.95549896 4.21879393,3.47727273 Z"/>
      <g transform="rotate(27 1.216 13.719)">
        <g transform="scale(1 -1) rotate(-15 -40.446 -5.498)">
          <path fill="url(#application-x-ddf-e)" d="M1.35484098,-2.04803494e-14 C3.71577543,0.593098038 3.6106374,3.94937401 2.51188006,4.8107333 C2.2771205,4.99477059 2.03937529,5.09777849 1.81031554,5.14333731 L0.451169581,4.77406632 C0.0908381204,4.40516031 -0.116373444,3.58645619 0.190663855,2.87628725 C0.730834002,1.62688835 2.51188006,0.928105288 1.35484098,-2.04803494e-14 Z"/>
          <path fill="url(#application-x-ddf-f)" d="M1.59784671,0.0882201584 L1.66406985,0.0984584988 C3.70405048,0.895515611 3.56027768,3.98885298 2.51188006,4.8107333 C2.27783904,4.99420729 2.04083062,5.09714717 1.81241907,5.14291736 L0.492314263,4.78440443 C0.441262625,4.45481954 0.454703205,4.10040246 0.560903252,3.75606338 C1.05358545,2.15860896 3.14180043,1.0841246 1.59784671,0.0882201584 Z"/>
          <path fill="url(#application-x-ddf-g)" d="M2.37457437,0.546856695 L2.39108891,0.551191072 C3.64666638,1.71092721 3.41467296,4.10299827 2.51188006,4.8107333 C2.27783904,4.99420729 2.04083062,5.09714717 1.81241907,5.14291736 L0.495173741,4.78486925 C0.51142744,4.48018166 0.587171518,4.16555874 0.739772901,3.87260038 C1.49086143,2.430689 3.66823589,1.74100027 2.37457437,0.546856695 Z"/>
          <path fill="url(#application-x-ddf-h)" d="M2.51188006,4.8107333 C2.27783904,4.99420729 2.04083062,5.09714717 1.81241907,5.14291736 L0.50308334,4.78612441 C0.592789458,4.57453094 0.719368845,4.36987728 0.886778751,4.18902039 C1.61942721,3.39752288 2.90607939,3.11494937 3.25222298,2.51768336 C3.31928501,3.46891636 3.02315258,4.40992657 2.51188006,4.8107333 Z"/>
          <path fill="url(#application-x-ddf-i)" d="M2.51188006,4.9099414 C2.27783904,5.12959502 2.04083062,5.25283383 1.81241907,5.30762954 L0.58698851,4.90873437 C0.630179026,4.88044401 0.674783305,4.85416123 0.720755435,4.83014448 C1.4747247,4.43625597 2.43292445,4.61832063 2.9156656,4.30770868 C2.80377523,4.55702642 2.66783673,4.76357197 2.51188006,4.9099414 Z"/>
        </g>
        <use fill="url(#application-x-ddf-j)" xlink:href="#application-x-ddf-k"/>
        <use fill="url(#application-x-ddf-l)" xlink:href="#application-x-ddf-k"/>
      </g>
    </g>
    <use fill="#000" filter="url(#application-x-ddf-m)" xlink:href="#application-x-ddf-n"/>
    <use fill="url(#application-x-ddf-o)" xlink:href="#application-x-ddf-n"/>
  </g>
</svg>
