<svg xmlns="http://www.w3.org/2000/svg" xmlns:xlink="http://www.w3.org/1999/xlink" width="24" height="24" viewBox="0 0 24 24">
  <defs>
    <linearGradient id="application-vnd.nokia.xml.qt.resource-c" x1="50%" x2="50%" y1="0%" y2="98.501%">
      <stop offset="0%" stop-color="#7FCB10"/>
      <stop offset="100%" stop-color="#50A100"/>
    </linearGradient>
    <path id="application-vnd.nokia.xml.qt.resource-b" d="M10.5,0 L16,5.5 L16,17.75 C16,18.9926407 14.9926407,20 13.75,20 L2.25,20 C1.00735931,20 1.52179594e-16,18.9926407 0,17.75 L0,2.25 C-1.52179594e-16,1.00735931 1.00735931,2.28269391e-16 2.25,0 L10.5,0 Z"/>
    <filter id="application-vnd.nokia.xml.qt.resource-a" width="143.8%" height="135%" x="-21.9%" y="-12.5%" filterUnits="objectBoundingBox">
      <feOffset dy="1" in="SourceAlpha" result="shadowOffsetOuter1"/>
      <feGaussianBlur in="shadowOffsetOuter1" result="shadowBlurOuter1" stdDeviation="1"/>
      <feColorMatrix in="shadowBlurOuter1" values="0 0 0 0 0.46370117   0 0 0 0 0.679376132   0 0 0 0 0  0 0 0 0.5 0"/>
    </filter>
    <linearGradient id="application-vnd.nokia.xml.qt.resource-f" x1="50%" x2="14.088%" y1="50%" y2="88.513%">
      <stop offset="0%" stop-color="#FFF" stop-opacity=".1"/>
      <stop offset="100%" stop-color="#FFF" stop-opacity=".3"/>
    </linearGradient>
    <path id="application-vnd.nokia.xml.qt.resource-e" d="M10.5,0 L16,5.64102564 L12.75,5.64102564 C11.5073593,5.64102564 10.5,4.63366633 10.5,3.39102564 L10.5,0 Z"/>
    <filter id="application-vnd.nokia.xml.qt.resource-d" width="172.7%" height="170.9%" x="-36.4%" y="-17.7%" filterUnits="objectBoundingBox">
      <feOffset dy="1" in="SourceAlpha" result="shadowOffsetOuter1"/>
      <feGaussianBlur in="shadowOffsetOuter1" result="shadowBlurOuter1" stdDeviation=".5"/>
      <feComposite in="shadowBlurOuter1" in2="SourceAlpha" operator="out" result="shadowBlurOuter1"/>
      <feColorMatrix in="shadowBlurOuter1" values="0 0 0 0 0   0 0 0 0 0   0 0 0 0 0  0 0 0 0.05 0"/>
    </filter>
  </defs>
  <g fill="none" fill-rule="evenodd">
    <g transform="translate(4 2)">
      <use fill="#000" filter="url(#application-vnd.nokia.xml.qt.resource-a)" xlink:href="#application-vnd.nokia.xml.qt.resource-b"/>
      <use fill="url(#application-vnd.nokia.xml.qt.resource-c)" xlink:href="#application-vnd.nokia.xml.qt.resource-b"/>
      <use fill="#000" filter="url(#application-vnd.nokia.xml.qt.resource-d)" xlink:href="#application-vnd.nokia.xml.qt.resource-e"/>
      <use fill="url(#application-vnd.nokia.xml.qt.resource-f)" xlink:href="#application-vnd.nokia.xml.qt.resource-e"/>
    </g>
    <path fill="#FFF" d="M10.9130435 21.4782609L10.1482793 21.4782609 10.1482793 19.3652168C10.1482793 19.3652168 9.73913045 19.9130435 8.95652175 19.9130435 8.17391305 19.9130435 7 19.5217391 7 18.0034363 7 17.4090072 7.17136212 16.9264994 7.51409149 16.5558985 7.85682086 16.1852977 8.32275588 16 8.9119105 16 9.48407028 16 9.8621994 16.2322465 10.1482793 16.6260864L10.1482793 16 10.9130435 16 10.9130435 21.4782609zM8.96875001 19.1304348C9.31386043 19.1304348 9.59374894 19.0332055 9.80842392 18.8387439 10.0230989 18.6442823 10.1304348 18.3592668 10.1304348 17.983689 10.1304348 17.6290826 10.0190229 17.3402543 9.79619566 17.1171954 9.57336846 16.8941365 9.28668654 16.7826087 8.93614131 16.7826087 8.5991831 16.7826087 8.3226913 16.8826977 8.10665761 17.0828788 7.89062392 17.2830598 7.7826087 17.5690285 7.7826087 17.9407933 7.7826087 18.2019819 7.83287994 18.4212246 7.93342392 18.5985278 8.0339679 18.775831 8.17662952 18.9088064 8.36141305 18.997458 8.54619658 19.0861097 8.74864021 19.1304348 8.96875001 19.1304348zM14.3478261 16.20557L14.0959832 16.8042476C13.914547 16.7104784 13.7371755 16.6635945 13.5638634 16.6635945 13.2903552 16.6635945 13.0831961 16.7723892 12.94238 16.989982 12.8015639 17.2075747 12.7311569 17.5123202 12.7311569 17.9042276L12.7311569 19.9130435 12 19.9130435 12 16 12.6661652 16 12.6661652 16.6635945 12.6824131 16.6635945C12.9153013 16.2211959 13.219947 16 13.5963593 16 13.8454955 16 14.0959819 16.0685227 14.3478261 16.20557zM17.8000002 18.5311398C17.7053429 19.008228 17.4889867 19.3578132 17.1509251 19.579906 16.8128635 19.8019988 16.4301835 19.9130435 16.0028736 19.9130435 15.3781358 19.9130435 14.895391 19.7350194 14.5546249 19.3789659 14.2138588 19.0229124 14.0434783 18.5511193 14.0434783 17.9635723 14.0434783 17.4770834 14.1415147 17.0875455 14.3375904 16.7949471 14.5336662 16.5023487 14.7790952 16.2967103 15.0738849 16.1780259 15.3686747 16.0593414 15.6783345 16 16.0028736 16 16.4464105 16 16.8257099 16.0998815 17.1407833 16.2996475 17.4558568 16.4994135 17.6499012 16.7931826 17.7229225 17.1809636L17.0170534 17.2761457C16.9440321 17.0246756 16.8257123 16.8354883 16.6620905 16.7085781 16.4984687 16.581668 16.2895497 16.5182139 16.0353274 16.5182139 15.6269489 16.5182139 15.3172891 16.643947 15.1063387 16.8954172 14.8953882 17.1468873 14.7899146 17.4982351 14.7899146 17.9494712 14.7899146 18.4101081 14.8933599 18.7655687 15.1002536 19.0158637 15.3071473 19.2661587 15.6053132 19.3913044 15.9947602 19.3913044 16.3084814 19.3913044 16.5552626 19.3131618 16.7351114 19.1568743 16.9149602 19.0005868 17.0278711 18.766159 17.0738475 18.453584L17.8000002 18.5311398zM11 12.1226375C10.7123001 12.2105285 10.4279115 12.2544734 10.1468254 12.2544734 9.41930853 12.2544734 8.94808309 11.8638523 8.73313492 11.0825984 8.60416602 11.105385 8.49504013 11.1167781 8.40575397 11.1167781 7.62532679 11.1167781 7.02926793 10.8116054 6.61755952 10.2012507 6.20585112 9.59089612 6 8.70467452 6 7.54255933 6 6.38044415 6.2050244 5.49340875 6.61507937 4.88142652 7.02513433 4.26944429 7.62201989 3.96345777 8.40575397 3.96345777 9.18948805 3.96345777 9.78720032 4.2686305 10.1989087 4.87898511 10.6106171 5.48933973 10.8164683 6.37718892 10.8164683 7.54255933 10.8164683 9.23527613 10.3865784 10.3355255 9.52678571 10.8433406 9.64914082 11.3186034 9.88227341 11.5562312 10.2261905 11.5562312 10.4179904 11.5562312 10.627975 11.5318174 10.8561508 11.482989L11 12.1226375zM8.41855478 10.3922902C7.92050542 10.3922902 7.54290503 10.1473382 7.28574228 9.65742693 7.02857954 9.16751563 6.9000001 8.45544592 6.9000001 7.52119646 6.9000001 6.59671267 7.02939333 5.88627056 7.28818369 5.38984881 7.54697405 4.89342705 7.92376064 4.6452199 8.41855478 4.6452199 9.43418486 4.6452199 9.94199228 5.60386917 9.94199228 7.52119646 9.94199228 9.43526853 9.43418486 10.3922902 8.41855478 10.3922902zM14.0235118 10.997314C13.7630939 11.0493976 13.5433695 11.075439 13.3643321 11.075439 12.9802156 11.075439 12.7002705 11.0078941 12.5244884 10.8728023 12.3487063 10.7377105 12.2412855 10.5659999 12.2022228 10.3576656 12.1631601 10.1493312 12.143629 9.85962054 12.143629 9.48852493L12.143629 6.50512649 11.5039806 6.50512649 11.5039806 5.82641556 12.143629 5.82641556 12.143629 4.53735306 13.0225353 4.00512649 13.0225353 5.82641556 13.9014415 5.82641556 13.9014415 6.50512649 13.0225353 6.50512649 13.0225353 9.53735306C13.0225353 9.79777103 13.0493905 9.98250225 13.1031017 10.0915523 13.1568129 10.2006023 13.2927165 10.2551265 13.5108165 10.2551265 13.6377703 10.2551265 13.7679773 10.2421058 13.9014415 10.216064L14.0235118 10.997314z"/>
  </g>
</svg>
