<?xml version="1.0" encoding="UTF-8"?>
<svg width="24px" height="24px" viewBox="0 0 24 24" version="1.1" xmlns="http://www.w3.org/2000/svg" xmlns:xlink="http://www.w3.org/1999/xlink">
    <title>mimetypes/24/application-x-kmymoney</title>
    <defs>
        <linearGradient x1="50%" y1="0%" x2="50%" y2="99.7939317%" id="linearGradient-1">
            <stop stop-color="#9BA6C1" offset="0%"></stop>
            <stop stop-color="#778EB2" offset="100%"></stop>
        </linearGradient>
        <path d="M16,17.75 C16,18.9926407 14.9926407,20 13.75,20 L2.25,20 C1.00735931,20 1.52179594e-16,18.9926407 0,17.75 L0,2.25 C-1.52179594e-16,1.00735931 1.00735931,2.28269391e-16 2.25,0 L10.5,0 L16,5.5 L16,17.75 Z" id="path-2"></path>
        <filter x="-21.9%" y="-12.5%" width="143.8%" height="135.0%" filterUnits="objectBoundingBox" id="filter-3">
            <feOffset dx="0" dy="1" in="SourceAlpha" result="shadowOffsetOuter1"></feOffset>
            <feGaussianBlur stdDeviation="1" in="shadowOffsetOuter1" result="shadowBlurOuter1"></feGaussianBlur>
            <feColorMatrix values="0 0 0 0 0.474509804   0 0 0 0 0.558835447   0 0 0 0 0.701960784  0 0 0 0.5 0" type="matrix" in="shadowBlurOuter1"></feColorMatrix>
        </filter>
        <linearGradient x1="50%" y1="50%" x2="12.2232245%" y2="88.5133793%" id="linearGradient-4">
            <stop stop-color="#FFFFFF" stop-opacity="0.1" offset="0%"></stop>
            <stop stop-color="#FFFFFF" stop-opacity="0.3" offset="100%"></stop>
        </linearGradient>
        <path d="M10.5,0 L16,5.5 L12.75,5.5 C11.5073593,5.5 10.5,4.49264069 10.5,3.25 L10.5,0 L10.5,0 Z" id="path-5"></path>
        <filter x="-36.4%" y="-18.2%" width="172.7%" height="172.7%" filterUnits="objectBoundingBox" id="filter-6">
            <feOffset dx="0" dy="1" in="SourceAlpha" result="shadowOffsetOuter1"></feOffset>
            <feGaussianBlur stdDeviation="0.5" in="shadowOffsetOuter1" result="shadowBlurOuter1"></feGaussianBlur>
            <feComposite in="shadowBlurOuter1" in2="SourceAlpha" operator="out" result="shadowBlurOuter1"></feComposite>
            <feColorMatrix values="0 0 0 0 0   0 0 0 0 0   0 0 0 0 0  0 0 0 0.05 0" type="matrix" in="shadowBlurOuter1"></feColorMatrix>
        </filter>
    </defs>
    <g id="mimetypes/24/application-x-kmymoney" stroke="none" stroke-width="1" fill="none" fill-rule="evenodd">
        <g id="编组" transform="translate(4, 2)">
            <g id="bg">
                <use fill="black" fill-opacity="1" filter="url(#filter-3)" xlink:href="#path-2"></use>
                <use fill="url(#linearGradient-1)" fill-rule="evenodd" xlink:href="#path-2"></use>
            </g>
            <g id="折角">
                <use fill="black" fill-opacity="1" filter="url(#filter-6)" xlink:href="#path-5"></use>
                <use fill="url(#linearGradient-4)" fill-rule="evenodd" xlink:href="#path-5"></use>
            </g>
        </g>
        <path d="M9.5,7.6875 C9.77614237,7.6875 10,7.91135763 10,8.1875 L10.0003571,12.245237 C10.0279898,12.2394855 10.0561327,12.2367832 10.0842467,12.2371317 L14.6167253,7.86949244 C14.828847,7.66499849 15.1662265,7.66996064 15.3722423,7.88060453 C15.5783064,8.0912977 15.5759091,8.42874227 15.3668724,8.63648652 L10.991,12.9845 L15.1857535,17.1518402 C15.3608294,17.3257712 15.3887466,17.5941 15.2641091,17.7980847 L15.2102085,17.8712529 C15.2036191,17.878755 15.1967887,17.8860421 15.1897281,17.8931027 C15.0088771,18.0739537 14.7156596,18.0739537 14.5348086,17.8931027 L10.0187816,13.3798657 C10.0125297,13.3762151 10.0063349,13.3724301 10.0002014,13.3685104 L10,17.5 C10,17.7761424 9.77614237,18 9.5,18 C9.22385763,18 9,17.7761424 9,17.5 L9,8.1875 C9,7.91135763 9.22385763,7.6875 9.5,7.6875 Z" id="形状结合" fill="#FFFFFF"></path>
    </g>
</svg>