<svg xmlns="http://www.w3.org/2000/svg" xmlns:xlink="http://www.w3.org/1999/xlink" width="24" height="24" viewBox="0 0 24 24">
  <defs>
    <linearGradient id="application-x-jar-c" x1="50%" x2="50%" y1="0%" y2="100%">
      <stop offset="0%" stop-color="#19BD72"/>
      <stop offset="100%" stop-color="#00914F"/>
    </linearGradient>
    <path id="application-x-jar-b" d="M10.5,0 L16,5.5 L16,17.75 C16,18.9926407 14.9926407,20 13.75,20 L2.25,20 C1.00735931,20 1.52179594e-16,18.9926407 0,17.75 L0,2.25 C-1.52179594e-16,1.00735931 1.00735931,2.28269391e-16 2.25,0 L10.5,0 Z"/>
    <filter id="application-x-jar-a" width="143.8%" height="135%" x="-21.9%" y="-12.5%" filterUnits="objectBoundingBox">
      <feOffset dy="1" in="SourceAlpha" result="shadowOffsetOuter1"/>
      <feGaussianBlur in="shadowOffsetOuter1" result="shadowBlurOuter1" stdDeviation="1"/>
      <feColorMatrix in="shadowBlurOuter1" values="0 0 0 0 0.00784313725   0 0 0 0 0.42745098   0 0 0 0 0.168627451  0 0 0 0.5 0"/>
    </filter>
    <linearGradient id="application-x-jar-f" x1="50%" x2="14.088%" y1="50%" y2="88.513%">
      <stop offset="0%" stop-color="#FFF" stop-opacity=".1"/>
      <stop offset="100%" stop-color="#FFF" stop-opacity=".3"/>
    </linearGradient>
    <path id="application-x-jar-e" d="M10.5,0 L16,5.64102564 L12.75,5.64102564 C11.5073593,5.64102564 10.5,4.63366633 10.5,3.39102564 L10.5,0 Z"/>
    <filter id="application-x-jar-d" width="172.7%" height="170.9%" x="-36.4%" y="-17.7%" filterUnits="objectBoundingBox">
      <feOffset dy="1" in="SourceAlpha" result="shadowOffsetOuter1"/>
      <feGaussianBlur in="shadowOffsetOuter1" result="shadowBlurOuter1" stdDeviation=".5"/>
      <feComposite in="shadowBlurOuter1" in2="SourceAlpha" operator="out" result="shadowBlurOuter1"/>
      <feColorMatrix in="shadowBlurOuter1" values="0 0 0 0 0   0 0 0 0 0   0 0 0 0 0  0 0 0 0.05 0"/>
    </filter>
  </defs>
  <g fill="none" fill-rule="evenodd">
    <g transform="translate(4 2)">
      <use fill="#000" filter="url(#application-x-jar-a)" xlink:href="#application-x-jar-b"/>
      <use fill="url(#application-x-jar-c)" xlink:href="#application-x-jar-b"/>
      <use fill="#000" filter="url(#application-x-jar-d)" xlink:href="#application-x-jar-e"/>
      <use fill="url(#application-x-jar-f)" xlink:href="#application-x-jar-e"/>
    </g>
    <g fill="#FFF" transform="translate(9.625 9)">
      <path d="M4.93421049,3 C6.82817557,1.03068288 5.42763154,0 5.42763154,0 C5.42763154,0 5.67434207,1 5.42763154,1.5 C5.18092102,2 4.19407895,2.75 3.45394737,3.25 C2.71381579,3.75 2.22039465,5 4.44078944,6.5 C4.44078943,6.5 3.70065792,5.5 3.70065792,4.75 C3.70065792,4 4.91463887,3.02035029 4.93421049,3 Z"/>
      <path d="M7.15460526,2.5 C7.15460526,2.5 5.42763159,2.75 4.68750001,3.75 C3.94736843,4.75 4.68749998,5.25 4.93421051,5.75 C5.18092105,6.25 4.93421049,7 4.93421049,7 C4.93421049,7 6.41447361,5.75 5.42763154,5 C4.44078947,4.25 7.15460526,2.5 7.15460526,2.5 Z"/>
      <path d="M3.20723684 6.5C3.20723684 6.5.986842106 6.75.986842105 7.25.986842105 7.75 3.9473688 8.5 6.90789474 7 6.90789483 7 3.94736837 7.5 2.46710524 7.25.986842109 7 3.20723684 6.5 3.20723684 6.5zM2.32150609 10.0238037C2.32150609 10.0238037.101111353 10.2738037.101111353 10.7738037.101111353 11.2738037 7.15460534 12 8.3881575 10.5 8.38815754 10.5 7.18873366 10.9003442 5.67434218 11 4.15630183 11.099896 2.32239664 10.8989541 1.58137449 10.7738037.101111356 10.5238037 2.32150609 10.0238037 2.32150609 10.0238037z"/>
      <path d="M2.73863666,11.1805855 C2.73863666,11.1805855 1.72908389,10.802293 1.72908389,11.302293 C1.72908389,11.6772434 5.09643794,12.2649272 7.300981,11.9028709 C8.03621718,11.7821217 8.64211549,11.5557342 8.95062579,11.1805855 C8.95062584,11.1805855 8.24817084,11.5809297 6.73377936,11.6805855 C5.21573901,11.7804815 3.69446399,11.57978 2.95344184,11.4546296 C1.4731787,11.2046296 2.73863666,11.1805855 2.73863666,11.1805855 Z" transform="rotate(-7 5.34 11.543)"/>
      <path d="M4.93421064 8.25C3.45394771 8.5 3.2512905 8.56051567 2.71381578 8.5 2.17634106 8.43948433 2.46710526 8 2.46710526 8 2.46710526 8 1.48026317 8.25 1.97368421 8.75 2.46710525 9.25 4.93421062 9 6.66118431 8.5 6.66118431 8.5 6.41447356 8 4.93421064 8.25zM4.75256681 9.62196069C3.66434083 9.80575 3.51535591 9.85023853 3.12022749 9.80575 2.72509906 9.76126147 2.93885647 9.43817139 2.93885647 9.43817139 2.93885647 9.43817139 2.21337237 9.62196069 2.57611442 9.98953931 2.93885646 10.3571179 4.7525668 10.1733286 6.02216398 9.80575 6.02216399 9.80575 5.84079279 9.43817139 4.75256681 9.62196069zM8.14144737 7.24999998C8.14144737 6.49999992 7.15460526 6.75 7.15460526 6.75 7.15460526 6.75 8.38815789 6.25000001 8.88157895 6.99999999 9.375 7.74999998 7.64802632 8.99999997 6.90789474 8.99999994 6.90789474 8.99999992 8.14144737 8.00000004 8.14144737 7.24999998z"/>
    </g>
  </g>
</svg>
