<?xml version="1.0" encoding="UTF-8"?>
<svg width="24px" height="24px" viewBox="0 0 24 24" version="1.1" xmlns="http://www.w3.org/2000/svg" xmlns:xlink="http://www.w3.org/1999/xlink">
    <title>mimetypes/24/application-x-cda</title>
    <defs>
        <linearGradient x1="50%" y1="0%" x2="50%" y2="100%" id="linearGradient-1">
            <stop stop-color="#B7EE43" offset="0%"></stop>
            <stop stop-color="#6AD500" offset="100%"></stop>
        </linearGradient>
        <path d="M16,17.75 C16,18.9926407 14.9926407,20 13.75,20 L2.25,20 C1.00735931,20 1.52179594e-16,18.9926407 0,17.75 L0,2.25 C-1.52179594e-16,1.00735931 1.00735931,2.28269391e-16 2.25,0 L10.5,0 L16,5.5 L16,17.75 Z" id="path-2"></path>
        <filter x="-21.9%" y="-12.5%" width="143.8%" height="135.0%" filterUnits="objectBoundingBox" id="filter-3">
            <feOffset dx="0" dy="1" in="SourceAlpha" result="shadowOffsetOuter1"></feOffset>
            <feGaussianBlur stdDeviation="1" in="shadowOffsetOuter1" result="shadowBlurOuter1"></feGaussianBlur>
            <feColorMatrix values="0 0 0 0 0.505882353   0 0 0 0 0.741176471   0 0 0 0 0  0 0 0 0.5 0" type="matrix" in="shadowBlurOuter1"></feColorMatrix>
        </filter>
        <linearGradient x1="50%" y1="50%" x2="14.0884528%" y2="88.5133793%" id="linearGradient-4">
            <stop stop-color="#FFFFFF" stop-opacity="0.1" offset="0%"></stop>
            <stop stop-color="#FFFFFF" stop-opacity="0.3" offset="100%"></stop>
        </linearGradient>
        <path d="M10.5,0 L16,5.64102564 L12.75,5.64102564 C11.5073593,5.64102564 10.5,4.63366633 10.5,3.39102564 L10.5,0 L10.5,0 Z" id="path-5"></path>
        <filter x="-36.4%" y="-17.7%" width="172.7%" height="170.9%" filterUnits="objectBoundingBox" id="filter-6">
            <feOffset dx="0" dy="1" in="SourceAlpha" result="shadowOffsetOuter1"></feOffset>
            <feGaussianBlur stdDeviation="0.5" in="shadowOffsetOuter1" result="shadowBlurOuter1"></feGaussianBlur>
            <feComposite in="shadowBlurOuter1" in2="SourceAlpha" operator="out" result="shadowBlurOuter1"></feComposite>
            <feColorMatrix values="0 0 0 0 0   0 0 0 0 0   0 0 0 0 0  0 0 0 0.05 0" type="matrix" in="shadowBlurOuter1"></feColorMatrix>
        </filter>
    </defs>
    <g id="mimetypes/24/application-x-cda" stroke="none" stroke-width="1" fill="none" fill-rule="evenodd">
        <g id="编组" transform="translate(4, 2)">
            <g id="bg">
                <use fill="black" fill-opacity="1" filter="url(#filter-3)" xlink:href="#path-2"></use>
                <use fill="url(#linearGradient-1)" fill-rule="evenodd" xlink:href="#path-2"></use>
            </g>
            <g id="折角">
                <use fill="black" fill-opacity="1" filter="url(#filter-6)" xlink:href="#path-5"></use>
                <use fill="url(#linearGradient-4)" fill-rule="evenodd" xlink:href="#path-5"></use>
            </g>
        </g>
        <g id="Group-2" transform="translate(5, 6.6667)" fill="#FFFFFF">
            <path d="M11.7091573,5 C11.8918239,4.99933506 12.0651573,5.19133506 12.0651573,5.42933506 L12.0651573,5.55133506 C12.0651573,5.73000173 12.2238239,6.1446684 13.1018239,6.69200173 C13.1018239,6.69200173 14.2484906,7.31133506 14.5738239,8.43000173 C14.5738239,8.43000173 14.9311573,9.42800173 14.3484906,10.6873351 C14.3484906,10.6873351 14.2931573,10.8033351 14.1718239,10.7546684 C14.0758239,10.7160017 14.1084906,10.5940017 14.1084906,10.5940017 C14.1084906,10.5940017 14.5011573,9.6126684 14.1744906,8.81733506 C14.1744906,8.81733506 13.8731573,7.7246684 12.0111573,7.2286684 L12.0110188,7.29139192 C12.0109734,7.31177918 12.0109171,7.33687284 12.0108506,7.36628246 L12.0103328,7.59140831 C12.0102274,7.63652007 12.0101128,7.68516694 12.0099896,7.73695848 L12.0091515,8.08232049 C12.008374,8.39636325 12.0074083,8.76950161 12.0063226,9.15293212 L12.0049665,9.61486555 C12.0019226,10.6128903 11.9982525,11.5485255 11.9951573,11.5640017 C11.9878239,12.1986684 11.4604906,12.8653351 10.6504906,13.1806684 C9.66182395,13.5653351 8.62849062,13.2806684 8.34182395,12.5453351 C8.05515728,11.8093351 8.61182395,10.8613351 9.61515728,10.5153351 C10.2964906,10.2806684 10.8918239,10.2973351 11.3531573,10.5366684 L11.3651573,5.43200173 C11.3658239,5.19400173 11.5271573,5.0006684 11.7091573,5 Z M6,0 C8.48719479,0 10.6209239,1.51336657 11.5305919,3.66950429 C11.5003407,3.66751791 11.4697494,3.66656225 11.4388413,3.66667506 C10.6523157,3.6695561 10.0020828,4.2564465 10,5 L9.99992641,5.01605446 L9.99938867,5.13717421 C9.99798772,5.45907636 9.99453202,6.29736321 9.99278861,7.11106031 L9.99203011,7.5492049 C9.99193954,7.62073871 9.99186878,7.69125641 9.99182067,7.76035157 L9.99182633,8.15460042 C9.99225652,8.64883402 9.99449806,9 10,9 C9.6462499,9.01633443 9.39606587,9.10796418 9.02284234,9.23651083 C7.78292068,9.66409837 6.93731011,10.7817572 7.00028642,11.9169935 C6.67498768,11.9715845 6.34081224,12 6,12 C2.6862915,12 0,9.3137085 0,6 C0,2.6862915 2.6862915,0 6,0 Z M6,3.33333333 C4.52724067,3.33333333 3.33333333,4.52724067 3.33333333,6 C3.33333333,7.47275933 4.52724067,8.66666667 6,8.66666667 C7.47275933,8.66666667 8.66666667,7.47275933 8.66666667,6 C8.66666667,4.52724067 7.47275933,3.33333333 6,3.33333333 Z M6,4 C7.1045695,4 8,4.8954305 8,6 C8,7.1045695 7.1045695,8 6,8 C4.8954305,8 4,7.1045695 4,6 C4,4.8954305 4.8954305,4 6,4 Z M6,4.66666667 C5.26362033,4.66666667 4.66666667,5.26362033 4.66666667,6 C4.66666667,6.73637967 5.26362033,7.33333333 6,7.33333333 C6.73637967,7.33333333 7.33333333,6.73637967 7.33333333,6 C7.33333333,5.26362033 6.73637967,4.66666667 6,4.66666667 Z M6,1.33333333 C3.42267117,1.33333333 1.33333333,3.42267117 1.33333333,6 C1.33333333,6.18409492 1.48257175,6.33333333 1.66666667,6.33333333 C1.85076158,6.33333333 2,6.18409492 2,6 C2,3.790861 3.790861,2 6,2 C6.18409492,2 6.33333333,1.85076158 6.33333333,1.66666667 C6.33333333,1.48257175 6.18409492,1.33333333 6,1.33333333 Z" id="形状结合"></path>
        </g>
    </g>
</svg>