<?xml version="1.0" encoding="UTF-8"?>
<svg width="24px" height="24px" viewBox="0 0 24 24" version="1.1" xmlns="http://www.w3.org/2000/svg" xmlns:xlink="http://www.w3.org/1999/xlink">
    <title>mimetypes/24/application-x-deepinclone-dim</title>
    <defs>
        <linearGradient x1="50%" y1="0%" x2="50%" y2="100%" id="linearGradient-1">
            <stop stop-color="#327DFF" offset="0%"></stop>
            <stop stop-color="#1066FF" offset="100%"></stop>
        </linearGradient>
        <path d="M16,17.75 C16,18.9926407 14.9926407,20 13.75,20 L2.25,20 C1.00735931,20 1.52179594e-16,18.9926407 0,17.75 L0,2.25 C-1.52179594e-16,1.00735931 1.00735931,2.28269391e-16 2.25,0 L10.5,0 L16,5.5 L16,17.75 Z" id="path-2"></path>
        <filter x="-21.9%" y="-12.5%" width="143.8%" height="135.0%" filterUnits="objectBoundingBox" id="filter-3">
            <feOffset dx="0" dy="1" in="SourceAlpha" result="shadowOffsetOuter1"></feOffset>
            <feGaussianBlur stdDeviation="1" in="shadowOffsetOuter1" result="shadowBlurOuter1"></feGaussianBlur>
            <feColorMatrix values="0 0 0 0 0.0391387195   0 0 0 0 0.388542822   0 0 0 0 1  0 0 0 0.5 0" type="matrix" in="shadowBlurOuter1"></feColorMatrix>
        </filter>
        <linearGradient x1="50%" y1="50%" x2="14.0884528%" y2="88.5133793%" id="linearGradient-4">
            <stop stop-color="#FFFFFF" stop-opacity="0.1" offset="0%"></stop>
            <stop stop-color="#FFFFFF" stop-opacity="0.3" offset="100%"></stop>
        </linearGradient>
        <path d="M10.5,0 L16,5.64102564 L12.75,5.64102564 C11.5073593,5.64102564 10.5,4.63366633 10.5,3.39102564 L10.5,0 L10.5,0 Z" id="path-5"></path>
        <filter x="-36.4%" y="-17.7%" width="172.7%" height="170.9%" filterUnits="objectBoundingBox" id="filter-6">
            <feOffset dx="0" dy="1" in="SourceAlpha" result="shadowOffsetOuter1"></feOffset>
            <feGaussianBlur stdDeviation="0.5" in="shadowOffsetOuter1" result="shadowBlurOuter1"></feGaussianBlur>
            <feComposite in="shadowBlurOuter1" in2="SourceAlpha" operator="out" result="shadowBlurOuter1"></feComposite>
            <feColorMatrix values="0 0 0 0 0   0 0 0 0 0   0 0 0 0 0  0 0 0 0.05 0" type="matrix" in="shadowBlurOuter1"></feColorMatrix>
        </filter>
    </defs>
    <g id="mimetypes/24/application-x-deepinclone-dim" stroke="none" stroke-width="1" fill="none" fill-rule="evenodd">
        <g id="编组" transform="translate(4, 2)">
            <g id="bg">
                <use fill="black" fill-opacity="1" filter="url(#filter-3)" xlink:href="#path-2"></use>
                <use fill="url(#linearGradient-1)" fill-rule="evenodd" xlink:href="#path-2"></use>
            </g>
            <path d="M10.5,7 C10.7761424,7 11,7.22385763 11,7.5 L11,16.5 C11,16.7761424 10.7761424,17 10.5,17 L3.5,17 C3.22385763,17 3,16.7761424 3,16.5 L3,7.5 C3,7.22385763 3.22385763,7 3.5,7 L10.5,7 Z M11.875,5 C12.4963203,5 13,5.50367966 13,6.125 L13,13.8819402 C13,14.4583584 12.5664905,14.933525 12.0077175,14.999194 L12.0076826,7.12569402 C12.0076826,6.50437367 11.5040029,6.00069402 10.8826826,6.00069402 L4.99999418,6.00038942 C5.06199761,5.43770813 5.53896823,5 6.11817106,5 L11.875,5 Z M5,9 L5,12 L8,12 L6.70627581,10.7053411 C6.948051,10.5747085 7.22189819,10.5034701 7.50768256,10.5034701 C8.43966308,10.5034701 9.19518256,11.2589896 9.19518256,12.1909701 C9.19518256,13.1229506 8.43966308,13.8784701 7.50768256,13.8784701 C6.83918744,13.8784701 6.24225282,13.4863895 5.97038909,12.8882461 C5.85612739,12.6368523 5.559705,12.5256847 5.30831113,12.6399464 C5.05691726,12.7542081 4.94574966,13.0506305 5.06001136,13.3020243 C5.49269542,14.253998 6.44344143,14.8784701 7.50768256,14.8784701 C8.99194783,14.8784701 10.1951826,13.6752353 10.1951826,12.1909701 C10.1951826,10.7067048 8.99194783,9.50347008 7.50768256,9.50347008 C6.95101214,9.50347008 6.42150732,9.67402886 5.97996462,9.97952102 L5,9 Z" id="形状结合" fill="#FFFFFF"></path>
            <g id="折角">
                <use fill="black" fill-opacity="1" filter="url(#filter-6)" xlink:href="#path-5"></use>
                <use fill="url(#linearGradient-4)" fill-rule="evenodd" xlink:href="#path-5"></use>
            </g>
        </g>
    </g>
</svg>