<?xml version="1.0" encoding="UTF-8"?>
<svg width="24px" height="24px" viewBox="0 0 24 24" version="1.1" xmlns="http://www.w3.org/2000/svg" xmlns:xlink="http://www.w3.org/1999/xlink">
    <title>mimetypes/24/application-x-extension-fcstd</title>
    <defs>
        <linearGradient x1="50%" y1="0%" x2="50%" y2="99.7939317%" id="linearGradient-1">
            <stop stop-color="#9BC1AD" offset="0%"></stop>
            <stop stop-color="#77B2B0" offset="100%"></stop>
        </linearGradient>
        <path d="M16,17.75 C16,18.9926407 14.9926407,20 13.75,20 L2.25,20 C1.00735931,20 1.52179594e-16,18.9926407 0,17.75 L0,2.25 C-1.52179594e-16,1.00735931 1.00735931,2.28269391e-16 2.25,0 L10.5,0 L16,5.5 L16,17.75 Z" id="path-2"></path>
        <filter x="-21.9%" y="-12.5%" width="143.8%" height="135.0%" filterUnits="objectBoundingBox" id="filter-3">
            <feOffset dx="0" dy="1" in="SourceAlpha" result="shadowOffsetOuter1"></feOffset>
            <feGaussianBlur stdDeviation="1" in="shadowOffsetOuter1" result="shadowBlurOuter1"></feGaussianBlur>
            <feColorMatrix values="0 0 0 0 0.474509804   0 0 0 0 0.654611925   0 0 0 0 0.701960784  0 0 0 0.5 0" type="matrix" in="shadowBlurOuter1"></feColorMatrix>
        </filter>
        <linearGradient x1="50%" y1="50%" x2="12.2232245%" y2="88.5133793%" id="linearGradient-4">
            <stop stop-color="#FFFFFF" stop-opacity="0.1" offset="0%"></stop>
            <stop stop-color="#FFFFFF" stop-opacity="0.3" offset="100%"></stop>
        </linearGradient>
        <path d="M10.5,0 L16,5.5 L12.75,5.5 C11.5073593,5.5 10.5,4.49264069 10.5,3.25 L10.5,0 L10.5,0 Z" id="path-5"></path>
        <filter x="-36.4%" y="-18.2%" width="172.7%" height="172.7%" filterUnits="objectBoundingBox" id="filter-6">
            <feOffset dx="0" dy="1" in="SourceAlpha" result="shadowOffsetOuter1"></feOffset>
            <feGaussianBlur stdDeviation="0.5" in="shadowOffsetOuter1" result="shadowBlurOuter1"></feGaussianBlur>
            <feComposite in="shadowBlurOuter1" in2="SourceAlpha" operator="out" result="shadowBlurOuter1"></feComposite>
            <feColorMatrix values="0 0 0 0 0   0 0 0 0 0   0 0 0 0 0  0 0 0 0.05 0" type="matrix" in="shadowBlurOuter1"></feColorMatrix>
        </filter>
    </defs>
    <g id="mimetypes/24/application-x-extension-fcstd" stroke="none" stroke-width="1" fill="none" fill-rule="evenodd">
        <g id="编组" transform="translate(4, 2)">
            <g id="bg">
                <use fill="black" fill-opacity="1" filter="url(#filter-3)" xlink:href="#path-2"></use>
                <use fill="url(#linearGradient-1)" fill-rule="evenodd" xlink:href="#path-2"></use>
            </g>
            <g id="折角">
                <use fill="black" fill-opacity="1" filter="url(#filter-6)" xlink:href="#path-5"></use>
                <use fill="url(#linearGradient-4)" fill-rule="evenodd" xlink:href="#path-5"></use>
            </g>
        </g>
        <path d="M15.775644,13 L15.8420727,13.7922507 C16.0929837,13.8837462 16.3265241,14.0171981 16.5327253,14.18691 L17.249756,13.8498867 L18,15.1491373 L17.349398,15.6004567 C17.3720667,15.7321039 17.3835034,15.8654393 17.3835847,15.9990233 C17.3828009,16.132337 17.3707087,16.265344 17.347438,16.396614 L17.9990173,16.8498867 L17.2487727,18.1491373 L16.530766,17.8111367 C16.3254405,17.9820435 16.092558,18.1168181 15.8420653,18.209704 L15.7756387,19 L14.27515,19 L14.209706,18.20775 C13.9587271,18.1159567 13.7251819,17.9821719 13.5190513,17.8121133 L12.8020213,18.1491373 L12.0517773,16.8498867 L12.70238,16.3975907 C12.679709,16.2659434 12.6682701,16.1326078 12.6681867,15.9990233 C12.6689704,15.8657099 12.6810627,15.7327031 12.7043333,15.6014333 L12.0517773,15.1491373 L12.802022,13.84891 L13.521006,14.1878867 C13.7263315,14.0169801 13.959214,13.8822057 14.2097067,13.78932 L14.2761333,13 L15.775644,13 Z M14,7 L14,8 L8,8 L8,12 L12,12 L12,13 L8,13 L8,18 L7,18 L7,7 L14,7 Z M15.0517773,15 C14.4994926,15 14.0517773,15.4477153 14.0517773,16 C14.0517773,16.5522847 14.4994926,17 15.0517773,17 C15.6040621,17 16.0517773,16.5522847 16.0517773,16 C16.0517773,15.4477153 15.6040621,15 15.0517773,15 Z" id="形状结合" fill="#FFFFFF"></path>
    </g>
</svg>