<?xml version="1.0" encoding="UTF-8"?>
<svg width="24px" height="24px" viewBox="0 0 24 24" version="1.1" xmlns="http://www.w3.org/2000/svg" xmlns:xlink="http://www.w3.org/1999/xlink">
    <title>mimetypes/24/application-x-gzip</title>
    <defs>
        <linearGradient x1="50%" y1="0%" x2="50%" y2="100%" id="linearGradient-1">
            <stop stop-color="#19BD72" offset="0%"></stop>
            <stop stop-color="#00914F" offset="100%"></stop>
        </linearGradient>
        <path d="M16,17.75 C16,18.9926407 14.9926407,20 13.75,20 L2.25,20 C1.00735931,20 1.52179594e-16,18.9926407 0,17.75 L0,2.25 C-1.52179594e-16,1.00735931 1.00735931,2.28269391e-16 2.25,0 L10.5,0 L16,5.5 L16,17.75 Z" id="path-2"></path>
        <filter x="-21.9%" y="-12.5%" width="143.8%" height="135.0%" filterUnits="objectBoundingBox" id="filter-3">
            <feOffset dx="0" dy="1" in="SourceAlpha" result="shadowOffsetOuter1"></feOffset>
            <feGaussianBlur stdDeviation="1" in="shadowOffsetOuter1" result="shadowBlurOuter1"></feGaussianBlur>
            <feColorMatrix values="0 0 0 0 0.00784313725   0 0 0 0 0.42745098   0 0 0 0 0.168627451  0 0 0 0.5 0" type="matrix" in="shadowBlurOuter1"></feColorMatrix>
        </filter>
        <linearGradient x1="50%" y1="50%" x2="14.0884528%" y2="88.5133793%" id="linearGradient-4">
            <stop stop-color="#FFFFFF" stop-opacity="0.1" offset="0%"></stop>
            <stop stop-color="#FFFFFF" stop-opacity="0.3" offset="100%"></stop>
        </linearGradient>
        <path d="M10.5,0 L16,5.64102564 L12.75,5.64102564 C11.5073593,5.64102564 10.5,4.63366633 10.5,3.39102564 L10.5,0 L10.5,0 Z" id="path-5"></path>
        <filter x="-36.4%" y="-17.7%" width="172.7%" height="170.9%" filterUnits="objectBoundingBox" id="filter-6">
            <feOffset dx="0" dy="1" in="SourceAlpha" result="shadowOffsetOuter1"></feOffset>
            <feGaussianBlur stdDeviation="0.5" in="shadowOffsetOuter1" result="shadowBlurOuter1"></feGaussianBlur>
            <feComposite in="shadowBlurOuter1" in2="SourceAlpha" operator="out" result="shadowBlurOuter1"></feComposite>
            <feColorMatrix values="0 0 0 0 0   0 0 0 0 0   0 0 0 0 0  0 0 0 0.05 0" type="matrix" in="shadowBlurOuter1"></feColorMatrix>
        </filter>
    </defs>
    <g id="mimetypes/24/application-x-gzip" stroke="none" stroke-width="1" fill="none" fill-rule="evenodd">
        <g id="编组" transform="translate(4, 2)">
            <g id="bg">
                <use fill="black" fill-opacity="1" filter="url(#filter-3)" xlink:href="#path-2"></use>
                <use fill="url(#linearGradient-1)" fill-rule="evenodd" xlink:href="#path-2"></use>
            </g>
            <g id="折角">
                <use fill="black" fill-opacity="1" filter="url(#filter-6)" xlink:href="#path-5"></use>
                <use fill="url(#linearGradient-4)" fill-rule="evenodd" xlink:href="#path-5"></use>
            </g>
        </g>
        <path d="M10,20 C9.44771525,20 9,19.5573397 9,19.0010434 L9,17.9989566 C9,17.4472481 9.44386482,17 10,17 C10.4737952,17 10.8706312,17.325781 10.9738568,17.7696074 L11.8076452,17.1442661 C11.4867033,16.466467 10.7979196,16 10,16 C8.88772964,16 8,16.897616 8,18.0048815 L8,18.9951185 C8,20.1061002 8.8954305,21 10,21 C10.3654054,21 10.7065768,20.9031232 11,20.7337624 L11,21 L12,21 L12,18 L10,18 C10,18.4502776 10,18.7819837 10,18.9951185 C10,19.0337939 10.3333333,19.0357688 11,19.0010434 L11,19.25 C11,19.6000004 10.5,20 10,20 Z M13,16 L13,17 L15.6666666,17 L13,20 L13,21 L17,21 L17,20 L14.3333334,20 L17,17 L17,16 L13,16 Z" id="形状结合" fill="#FFFFFF"></path>
        <g id="编组-2" transform="translate(4, 9)">
            <path d="M4,1 L4,4 L0,4 L0,1 L4,1 Z M16,1 L16,4 L12,4 L12,1 L16,1 Z" id="Combined-Shape" fill-opacity="0.5" fill="#FFF8F8"></path>
            <path d="M10.625,0 C10.8321068,-3.80448985e-17 11,0.167893219 11,0.375 L11,4.625 C11,4.83210678 10.8321068,5 10.625,5 L5.375,5 C5.16789322,5 5,4.83210678 5,4.625 L5,0.375 C5,0.167893219 5.16789322,3.80448985e-17 5.375,0 L10.625,0 Z M6,4 L10,4 L10,1 L6,1 L6,2 L9,2 L9,3 L6,3 L6,4 Z" id="Combined-Shape" fill="#F4F4F4"></path>
        </g>
    </g>
</svg>