<?xml version="1.0" encoding="UTF-8"?>
<svg width="24px" height="24px" viewBox="0 0 24 24" version="1.1" xmlns="http://www.w3.org/2000/svg" xmlns:xlink="http://www.w3.org/1999/xlink">
    <title>mimetypes/24/application-pgp-keys</title>
    <defs>
        <linearGradient x1="50%" y1="0%" x2="50%" y2="99.3243243%" id="linearGradient-1">
            <stop stop-color="#C5A981" offset="0%"></stop>
            <stop stop-color="#BA853A" offset="100%"></stop>
        </linearGradient>
        <path d="M16,17.75 C16,18.9926407 14.9926407,20 13.75,20 L2.25,20 C1.00735931,20 1.52179594e-16,18.9926407 0,17.75 L0,2.25 C-1.52179594e-16,1.00735931 1.00735931,2.28269391e-16 2.25,0 L10.5,0 L16,5.5 L16,17.75 Z" id="path-2"></path>
        <filter x="-21.9%" y="-12.5%" width="143.8%" height="135.0%" filterUnits="objectBoundingBox" id="filter-3">
            <feOffset dx="0" dy="1" in="SourceAlpha" result="shadowOffsetOuter1"></feOffset>
            <feGaussianBlur stdDeviation="1" in="shadowOffsetOuter1" result="shadowBlurOuter1"></feGaussianBlur>
            <feColorMatrix values="0 0 0 0 0.733333333   0 0 0 0 0.537254902   0 0 0 0 0.258823529  0 0 0 0.5 0" type="matrix" in="shadowBlurOuter1"></feColorMatrix>
        </filter>
        <linearGradient x1="50%" y1="50%" x2="14.0884528%" y2="88.5133793%" id="linearGradient-4">
            <stop stop-color="#FFFFFF" stop-opacity="0.1" offset="0%"></stop>
            <stop stop-color="#FFFFFF" stop-opacity="0.3" offset="100%"></stop>
        </linearGradient>
        <path d="M10.5,0 L16,5.64102564 L12.75,5.64102564 C11.5073593,5.64102564 10.5,4.63366633 10.5,3.39102564 L10.5,0 L10.5,0 Z" id="path-5"></path>
        <filter x="-36.4%" y="-17.7%" width="172.7%" height="170.9%" filterUnits="objectBoundingBox" id="filter-6">
            <feOffset dx="0" dy="1" in="SourceAlpha" result="shadowOffsetOuter1"></feOffset>
            <feGaussianBlur stdDeviation="0.5" in="shadowOffsetOuter1" result="shadowBlurOuter1"></feGaussianBlur>
            <feComposite in="shadowBlurOuter1" in2="SourceAlpha" operator="out" result="shadowBlurOuter1"></feComposite>
            <feColorMatrix values="0 0 0 0 0   0 0 0 0 0   0 0 0 0 0  0 0 0 0.05 0" type="matrix" in="shadowBlurOuter1"></feColorMatrix>
        </filter>
    </defs>
    <g id="mimetypes/24/application-pgp-keys" stroke="none" stroke-width="1" fill="none" fill-rule="evenodd">
        <g id="编组" transform="translate(4, 2)">
            <g id="bg">
                <use fill="black" fill-opacity="1" filter="url(#filter-3)" xlink:href="#path-2"></use>
                <use fill="url(#linearGradient-1)" fill-rule="evenodd" xlink:href="#path-2"></use>
            </g>
            <g id="折角">
                <use fill="black" fill-opacity="1" filter="url(#filter-6)" xlink:href="#path-5"></use>
                <use fill="url(#linearGradient-4)" fill-rule="evenodd" xlink:href="#path-5"></use>
            </g>
        </g>
        <path d="M17.6735206,12.4725714 C18.1325214,11.9300704 18.1045213,11.133069 17.6100205,10.6385681 L15.3605165,8.39006418 C14.8660156,7.89556331 14.0680142,7.86756326 13.5250133,8.32706407 L10.4900079,10.7270683 C9.87900684,11.2440692 9.83250676,12.1680708 10.3900077,12.7250718 L13.2755128,15.6095769 C13.8335138,16.1675779 14.7580154,16.1210778 15.2755164,15.5090767 L17.6735206,12.4725714 L17.6735206,12.4725714 Z M14.6445152,9.10556544 L16.8940192,11.3545694 C17.0155194,11.4755696 17.0175194,11.68007 16.9000192,11.8195702 L16.4545184,12.3470712 L13.6525135,9.54556622 L14.1800144,9.09956543 C14.3185147,8.98156522 14.523015,8.98456523 14.6445152,9.10556544 L14.6445152,9.10556544 Z M12.1865109,15.9345775 L8.12150374,20.0000847 L6.70750125,20.0000847 L6.35400062,19.646584 L10,16.0000776 L9.64650643,15.646577 L6.0005,19.2930834 L6,17.8790809 L10.0650072,13.8140737 L12.1865109,15.9345775 L12.1865109,15.9345775 Z" id="Shape" fill="#FFFFFF"></path>
    </g>
</svg>