<?xml version="1.0" encoding="UTF-8"?>
<svg width="24px" height="24px" viewBox="0 0 24 24" version="1.1" xmlns="http://www.w3.org/2000/svg" xmlns:xlink="http://www.w3.org/1999/xlink">
    <title>mimetypes/24/package-x-ddf</title>
    <defs>
        <linearGradient x1="50%" y1="0%" x2="50%" y2="98.9468961%" id="linearGradient-1">
            <stop stop-color="#F7F7F7" offset="0%"></stop>
            <stop stop-color="#F6F6F6" offset="100%"></stop>
        </linearGradient>
        <path d="M16,17.75 C16,18.9926407 14.9926407,20 13.75,20 L2.25,20 C1.00735931,20 1.52179594e-16,18.9926407 0,17.75 L0,2.25 C-1.52179594e-16,1.00735931 1.00735931,2.28269391e-16 2.25,0 L10.5,0 L16,5.5 L16,17.75 Z" id="path-2"></path>
        <filter x="-21.9%" y="-12.5%" width="143.8%" height="135.0%" filterUnits="objectBoundingBox" id="filter-4">
            <feOffset dx="0" dy="1" in="SourceAlpha" result="shadowOffsetOuter1"></feOffset>
            <feGaussianBlur stdDeviation="1" in="shadowOffsetOuter1" result="shadowBlurOuter1"></feGaussianBlur>
            <feColorMatrix values="0 0 0 0 0   0 0 0 0 0   0 0 0 0 0  0 0 0 0.1 0" type="matrix" in="shadowBlurOuter1"></feColorMatrix>
        </filter>
        <linearGradient x1="56.9096326%" y1="0%" x2="6.8992975%" y2="86.2898213%" id="linearGradient-5">
            <stop stop-color="#1B90FF" offset="0%"></stop>
            <stop stop-color="#53A0FD" offset="47.5247532%"></stop>
            <stop stop-color="#68FFAD" offset="100%"></stop>
        </linearGradient>
        <linearGradient x1="56.8685664%" y1="0%" x2="7.15545875%" y2="86.2898213%" id="linearGradient-6">
            <stop stop-color="#1B90FF" offset="0%"></stop>
            <stop stop-color="#53A0FD" offset="47.5247532%"></stop>
            <stop stop-color="#68FFAD" offset="100%"></stop>
        </linearGradient>
        <linearGradient x1="56.91157%" y1="0%" x2="96.0869522%" y2="71.0304085%" id="linearGradient-7">
            <stop stop-color="#A197FF" offset="0%"></stop>
            <stop stop-color="#60FFA4" offset="100%"></stop>
        </linearGradient>
        <linearGradient x1="88.125222%" y1="18.2999345%" x2="-0.286538373%" y2="92.1740161%" id="linearGradient-8">
            <stop stop-color="#DD61FA" offset="0%"></stop>
            <stop stop-color="#FFDC5A" offset="100%"></stop>
        </linearGradient>
        <linearGradient x1="96.3907596%" y1="20.7037635%" x2="-0.0341632463%" y2="84.7270053%" id="linearGradient-9">
            <stop stop-color="#FA6196" offset="0%"></stop>
            <stop stop-color="#FFD849" offset="100%"></stop>
        </linearGradient>
        <linearGradient x1="95.7922523%" y1="15.9616874%" x2="0%" y2="67.9801117%" id="linearGradient-10">
            <stop stop-color="#FF9532" offset="0%"></stop>
            <stop stop-color="#FFFF46" offset="100%"></stop>
        </linearGradient>
        <linearGradient x1="50%" y1="50%" x2="14.0884528%" y2="88.5133793%" id="linearGradient-11">
            <stop stop-color="#FFFFFF" stop-opacity="0.1" offset="0%"></stop>
            <stop stop-color="#FFFFFF" stop-opacity="0.3" offset="100%"></stop>
        </linearGradient>
        <path d="M11,0.5 L16.5,6.14102564 L13.25,6.14102564 C12.0073593,6.14102564 11,5.13366633 11,3.89102564 L11,0.5 L11,0.5 Z" id="path-12"></path>
        <filter x="-36.4%" y="-17.7%" width="172.7%" height="170.9%" filterUnits="objectBoundingBox" id="filter-13">
            <feOffset dx="0" dy="1" in="SourceAlpha" result="shadowOffsetOuter1"></feOffset>
            <feGaussianBlur stdDeviation="0.5" in="shadowOffsetOuter1" result="shadowBlurOuter1"></feGaussianBlur>
            <feComposite in="shadowBlurOuter1" in2="SourceAlpha" operator="out" result="shadowBlurOuter1"></feComposite>
            <feColorMatrix values="0 0 0 0 0   0 0 0 0 0   0 0 0 0 0  0 0 0 0.05 0" type="matrix" in="shadowBlurOuter1"></feColorMatrix>
        </filter>
    </defs>
    <g id="mimetypes/24/package-x-ddf" stroke="none" stroke-width="1" fill="none" fill-rule="evenodd">
        <g id="编组" transform="translate(3.5, 1.5)">
            <g id="Group" transform="translate(0.5, 0.5)">
                <mask id="mask-3" fill="white">
                    <use xlink:href="#path-2"></use>
                </mask>
                <g id="蒙版">
                    <use fill="black" fill-opacity="1" filter="url(#filter-4)" xlink:href="#path-2"></use>
                    <use fill="url(#linearGradient-1)" fill-rule="evenodd" xlink:href="#path-2"></use>
                </g>
                <g mask="url(#mask-3)" id="路径">
                    <g transform="translate(-11, -4.9622)">
                        <path d="M9.54521648,28.6260525 C7.64028114,26.5607351 6.55106111,22.0178254 8.17908727,18.0753475 C11.0532769,11.115122 20.5300392,7.22229985 14.3735536,2.05195586 C26.935842,5.35602158 26.3764134,24.0533629 20.5300392,28.8518742 C19.2804048,29.8775329 18.0148714,30.4514246 16.7956147,30.7050708 L9.54521648,28.6260525 Z" fill="url(#linearGradient-5)" transform="translate(15.9522, 16.3785) scale(-1, 1) rotate(138) translate(-15.9522, -16.3785)"></path>
                        <path d="M9.54521648,28.6260525 C7.64028114,26.5607351 6.55106111,22.0178254 8.17908727,18.0753475 C11.0532769,11.115122 20.5300392,7.22229985 14.3735536,2.05195586 C26.935842,5.35602158 26.3764134,24.0533629 20.5300392,28.8518742 C19.2804048,29.8775329 18.0148714,30.4514246 16.7956147,30.7050708 L9.54521648,28.6260525 Z" fill="url(#linearGradient-6)" transform="translate(15.9522, 16.3785) scale(-1, 1) rotate(138) translate(-15.9522, -16.3785)"></path>
                        <path d="M15.8977591,2.91791937 C26.7510859,7.3589563 25.9859434,24.590452 20.4077239,29.1688706 C19.1580898,30.1945293 17.8925563,30.768421 16.6732996,31.0220672 L9.65501691,29.009607 C9.38754082,27.1787461 9.46150085,25.2109136 10.0257029,23.2985943 C12.6518415,14.3974993 23.765606,8.40542989 15.553825,2.86145842 C15.6692189,2.87919013 15.7838628,2.89801523 15.8977591,2.91791937 Z" fill="url(#linearGradient-7)" transform="translate(16.9509, 16.9418) scale(-1, 1) rotate(138) translate(-16.9509, -16.9418)"></path>
                        <path d="M20.6132039,3.28362485 C27.2806442,9.74865711 26.0448461,23.0610694 21.2440303,27.001421 C19.994396,28.0270795 18.7288626,28.6009714 17.5096059,28.8546174 L10.5161192,26.8492674 C10.6024656,25.1532601 11.0048579,23.4022642 11.8155243,21.7718983 C15.8090042,13.740439 27.3929196,9.90232308 20.507263,3.24729076 C20.5426751,3.25930183 20.5779886,3.27141334 20.6132039,3.28362485 Z" fill="url(#linearGradient-8)" transform="translate(17.8742, 16.051) scale(-1, 1) rotate(138) translate(-17.8742, -16.051)"></path>
                        <path d="M28.8576766,4.66837096 C29.2230388,9.97765991 27.6466446,15.233444 24.9217522,17.4699459 C23.672118,18.4956045 22.4065845,19.0694963 21.1873278,19.3231424 L14.2373065,17.3302559 C14.7127878,16.1470335 15.3857757,15.0027428 16.2776964,13.9924064 C20.1778337,9.57446807 27.0452561,8.01385765 28.8576776,4.66837096 L28.8576766,4.66837096 Z" fill="url(#linearGradient-9)" transform="translate(21.5736, 11.9958) scale(-1, 1) rotate(138) translate(-21.5736, -11.9958)"></path>
                        <path d="M30.6171644,5.48365639 C30.0202985,6.65248319 29.2924346,7.62277652 28.456477,8.30890299 C27.2068428,9.33456157 25.9413092,9.90845334 24.7220526,10.1620995 L18.1996753,8.29183791 C18.4354911,8.15560052 18.679338,8.02932108 18.9309511,7.914325 C22.9501585,6.07740547 28.0722437,6.95906342 30.6171644,5.48365639 Z" fill="url(#linearGradient-10)" transform="translate(24.4084, 7.8229) scale(-1, 1) rotate(138) translate(-24.4084, -7.8229)"></path>
                    </g>
                </g>
            </g>
            <path d="M17,5.79289322 L11.2071068,0 L2.75,0 C1.23121694,0 0,1.23121694 0,2.75 L0,18.25 C0,19.7687831 1.23121694,21 2.75,21 L14.25,21 C15.7687831,21 17,19.7687831 17,18.25 L17,5.79289322 Z M11,0.5 L16.5,6 L16.5,18.25 C16.5,19.4926407 15.4926407,20.5 14.25,20.5 L2.75,20.5 C1.50735931,20.5 0.5,19.4926407 0.5,18.25 L0.5,2.75 C0.5,1.50735931 1.50735931,0.5 2.75,0.5 L11,0.5 Z" id="bg" fill-opacity="0.1" fill="#000000" fill-rule="nonzero"></path>
            <g id="折角">
                <use fill="black" fill-opacity="1" filter="url(#filter-13)" xlink:href="#path-12"></use>
                <use fill="url(#linearGradient-11)" fill-rule="evenodd" xlink:href="#path-12"></use>
            </g>
        </g>
    </g>
</svg>