<?xml version="1.0" encoding="UTF-8"?>
<svg width="24px" height="24px" viewBox="0 0 24 24" version="1.1" xmlns="http://www.w3.org/2000/svg" xmlns:xlink="http://www.w3.org/1999/xlink">
    <title>mimetypes/24/package-x-generic</title>
    <defs>
        <linearGradient x1="50%" y1="0%" x2="50%" y2="100%" id="linearGradient-1">
            <stop stop-color="#6F99D9" offset="0%"></stop>
            <stop stop-color="#2A90C8" offset="100%"></stop>
        </linearGradient>
        <path d="M16,17.75 C16,18.9926407 14.9926407,20 13.75,20 L2.25,20 C1.00735931,20 1.52179594e-16,18.9926407 0,17.75 L0,2.25 C-1.52179594e-16,1.00735931 1.00735931,2.28269391e-16 2.25,0 L10.5,0 L16,5.5 L16,17.75 Z" id="path-2"></path>
        <filter x="-21.9%" y="-12.5%" width="143.8%" height="135.0%" filterUnits="objectBoundingBox" id="filter-3">
            <feOffset dx="0" dy="1" in="SourceAlpha" result="shadowOffsetOuter1"></feOffset>
            <feGaussianBlur stdDeviation="1" in="shadowOffsetOuter1" result="shadowBlurOuter1"></feGaussianBlur>
            <feColorMatrix values="0 0 0 0 0.474509804   0 0 0 0 0.619607843   0 0 0 0 0.701960784  0 0 0 0.5 0" type="matrix" in="shadowBlurOuter1"></feColorMatrix>
        </filter>
        <linearGradient x1="50%" y1="50%" x2="14.0884528%" y2="88.5133793%" id="linearGradient-4">
            <stop stop-color="#FFFFFF" stop-opacity="0.1" offset="0%"></stop>
            <stop stop-color="#FFFFFF" stop-opacity="0.3" offset="100%"></stop>
        </linearGradient>
        <path d="M10.5,0 L16,5.64102564 L12.75,5.64102564 C11.5073593,5.64102564 10.5,4.63366633 10.5,3.39102564 L10.5,0 L10.5,0 Z" id="path-5"></path>
        <filter x="-36.4%" y="-17.7%" width="172.7%" height="170.9%" filterUnits="objectBoundingBox" id="filter-6">
            <feOffset dx="0" dy="1" in="SourceAlpha" result="shadowOffsetOuter1"></feOffset>
            <feGaussianBlur stdDeviation="0.5" in="shadowOffsetOuter1" result="shadowBlurOuter1"></feGaussianBlur>
            <feComposite in="shadowBlurOuter1" in2="SourceAlpha" operator="out" result="shadowBlurOuter1"></feComposite>
            <feColorMatrix values="0 0 0 0 0   0 0 0 0 0   0 0 0 0 0  0 0 0 0.05 0" type="matrix" in="shadowBlurOuter1"></feColorMatrix>
        </filter>
    </defs>
    <g id="mimetypes/24/package-x-generic" stroke="none" stroke-width="1" fill="none" fill-rule="evenodd">
        <g id="编组" transform="translate(4, 2)">
            <g id="bg">
                <use fill="black" fill-opacity="1" filter="url(#filter-3)" xlink:href="#path-2"></use>
                <use fill="url(#linearGradient-1)" fill-rule="evenodd" xlink:href="#path-2"></use>
            </g>
            <g id="折角">
                <use fill="black" fill-opacity="1" filter="url(#filter-6)" xlink:href="#path-5"></use>
                <use fill="url(#linearGradient-4)" fill-rule="evenodd" xlink:href="#path-5"></use>
            </g>
        </g>
        <g id="Group-2" transform="translate(3.9992, 8)" fill="#FFFFFF" fill-rule="nonzero">
            <path d="M13.5008407,0 C13.6680173,0 13.824133,0.0835505677 13.9168659,0.222649902 L15.9168659,3.2226499 C16.1383841,3.55492727 15.9001884,4 15.5008407,4 L14,4 L14.0008407,10.5 C14.0008407,10.7454599 13.8239655,10.9496084 13.5907163,10.9919443 L13.5008407,11 L2.50084071,11 C2.22469833,11 2.00084071,10.7761424 2.00084071,10.5 L2,4 L0.500840709,4 C0.130017852,4 -0.10185252,3.61623831 0.0442749994,3.29537535 L0.0848155619,3.2226499 L2.08481556,0.222649902 C2.17754845,0.0835505677 2.33366412,0 2.50084071,0 L13.5008407,0 Z M13.0008407,4 L3.00084071,4 L3.00084071,10 L13.0008407,10 L13.0008407,4 Z M11.0008407,5 L11.0008407,7 L12.5008407,7 L10.0008407,9.5 L7.50084071,7 L9.00084071,7 L9.00084071,5 L11.0008407,5 Z M13.2328407,1 L2.76784071,1 L1.43484071,3 L14.5658407,3 L13.2328407,1 Z" id="形状结合"></path>
        </g>
    </g>
</svg>