<svg xmlns="http://www.w3.org/2000/svg" xmlns:xlink="http://www.w3.org/1999/xlink" width="24" height="24" viewBox="0 0 24 24">
  <defs>
    <linearGradient id="text-x-changelog-c" x1="50%" x2="50%" y1="0%" y2="98.947%">
      <stop offset="0%" stop-color="#F7F7F7"/>
      <stop offset="100%" stop-color="#F6F6F6"/>
    </linearGradient>
    <path id="text-x-changelog-b" d="M10.5,0 L16,5.5 L16,17.75 C16,18.9926407 14.9926407,20 13.75,20 L2.25,20 C1.00735931,20 1.52179594e-16,18.9926407 0,17.75 L0,2.25 C-1.52179594e-16,1.00735931 1.00735931,2.28269391e-16 2.25,0 L10.5,0 Z"/>
    <filter id="text-x-changelog-a" width="150%" height="140%" x="-25%" y="-15%" filterUnits="objectBoundingBox">
      <feMorphology in="SourceAlpha" operator="dilate" radius=".5" result="shadowSpreadOuter1"/>
      <feOffset dy="1" in="shadowSpreadOuter1" result="shadowOffsetOuter1"/>
      <feGaussianBlur in="shadowOffsetOuter1" result="shadowBlurOuter1" stdDeviation="1"/>
      <feComposite in="shadowBlurOuter1" in2="SourceAlpha" operator="out" result="shadowBlurOuter1"/>
      <feColorMatrix in="shadowBlurOuter1" values="0 0 0 0 0   0 0 0 0 0   0 0 0 0 0  0 0 0 0.1 0"/>
    </filter>
    <linearGradient id="text-x-changelog-f" x1="50%" x2="14.088%" y1="50%" y2="88.513%">
      <stop offset="0%" stop-color="#FFF" stop-opacity=".1"/>
      <stop offset="100%" stop-color="#FFF" stop-opacity=".3"/>
    </linearGradient>
    <path id="text-x-changelog-e" d="M10.5,0 L16,5.64102564 L12.75,5.64102564 C11.5073593,5.64102564 10.5,4.63366633 10.5,3.39102564 L10.5,0 Z"/>
    <filter id="text-x-changelog-d" width="172.7%" height="170.9%" x="-36.4%" y="-17.7%" filterUnits="objectBoundingBox">
      <feOffset dy="1" in="SourceAlpha" result="shadowOffsetOuter1"/>
      <feGaussianBlur in="shadowOffsetOuter1" result="shadowBlurOuter1" stdDeviation=".5"/>
      <feComposite in="shadowBlurOuter1" in2="SourceAlpha" operator="out" result="shadowBlurOuter1"/>
      <feColorMatrix in="shadowBlurOuter1" values="0 0 0 0 0   0 0 0 0 0   0 0 0 0 0  0 0 0 0.05 0"/>
    </filter>
  </defs>
  <g fill="none" fill-rule="evenodd">
    <g transform="translate(4 2)">
      <use fill="#000" filter="url(#text-x-changelog-a)" xlink:href="#text-x-changelog-b"/>
      <path fill="url(#text-x-changelog-c)" stroke="#000" stroke-opacity=".1" stroke-width=".5" d="M10.6767767,-0.176776695 L16.1767767,5.3232233 L16.25,5.5 L16.25,17.75 C16.25,19.1307119 15.1307119,20.25 13.75,20.25 L2.25,20.25 C0.869288125,20.25 -0.25,19.1307119 -0.25,17.75 L-0.25,2.25 C-0.25,0.869288125 0.869288125,-0.25 2.25,-0.25 L10.5,-0.25 L10.6767767,-0.176776695 Z"/>
      <use fill="#000" filter="url(#text-x-changelog-d)" xlink:href="#text-x-changelog-e"/>
      <use fill="url(#text-x-changelog-f)" xlink:href="#text-x-changelog-e"/>
    </g>
    <polyline stroke="#7B83D6" stroke-linecap="round" stroke-linejoin="round" stroke-width="1.3" points="7 13.667 10.663 17.174 17 9.667"/>
  </g>
</svg>
