<?xml version="1.0" encoding="UTF-8"?>
<svg width="24px" height="24px" viewBox="0 0 24 24" version="1.1" xmlns="http://www.w3.org/2000/svg" xmlns:xlink="http://www.w3.org/1999/xlink">
    <title>mimetypes/24/text-x-copying</title>
    <defs>
        <linearGradient x1="50%" y1="0%" x2="50%" y2="99.2029139%" id="linearGradient-1">
            <stop stop-color="#619FFF" offset="0%"></stop>
            <stop stop-color="#0093E4" offset="100%"></stop>
        </linearGradient>
        <path d="M16,17.75 C16,18.9926407 14.9926407,20 13.75,20 L2.25,20 C1.00735931,20 1.52179594e-16,18.9926407 0,17.75 L0,2.25 C-1.52179594e-16,1.00735931 1.00735931,2.28269391e-16 2.25,0 L10.5,0 L16,5.5 L16,17.75 Z" id="path-2"></path>
        <filter x="-21.9%" y="-12.5%" width="143.8%" height="135.0%" filterUnits="objectBoundingBox" id="filter-3">
            <feOffset dx="0" dy="1" in="SourceAlpha" result="shadowOffsetOuter1"></feOffset>
            <feGaussianBlur stdDeviation="1" in="shadowOffsetOuter1" result="shadowBlurOuter1"></feGaussianBlur>
            <feColorMatrix values="0 0 0 0 0.0156862745   0 0 0 0 0.580392157   0 0 0 0 0.898039216  0 0 0 0.5 0" type="matrix" in="shadowBlurOuter1"></feColorMatrix>
        </filter>
        <linearGradient x1="50%" y1="50%" x2="14.0884528%" y2="88.5133793%" id="linearGradient-4">
            <stop stop-color="#FFFFFF" stop-opacity="0.1" offset="0%"></stop>
            <stop stop-color="#FFFFFF" stop-opacity="0.3" offset="100%"></stop>
        </linearGradient>
        <path d="M10.5,0 L16,5.64102564 L12.75,5.64102564 C11.5073593,5.64102564 10.5,4.63366633 10.5,3.39102564 L10.5,0 L10.5,0 Z" id="path-5"></path>
        <filter x="-36.4%" y="-17.7%" width="172.7%" height="170.9%" filterUnits="objectBoundingBox" id="filter-6">
            <feOffset dx="0" dy="1" in="SourceAlpha" result="shadowOffsetOuter1"></feOffset>
            <feGaussianBlur stdDeviation="0.5" in="shadowOffsetOuter1" result="shadowBlurOuter1"></feGaussianBlur>
            <feComposite in="shadowBlurOuter1" in2="SourceAlpha" operator="out" result="shadowBlurOuter1"></feComposite>
            <feColorMatrix values="0 0 0 0 0   0 0 0 0 0   0 0 0 0 0  0 0 0 0.05 0" type="matrix" in="shadowBlurOuter1"></feColorMatrix>
        </filter>
    </defs>
    <g id="mimetypes/24/text-x-copying" stroke="none" stroke-width="1" fill="none" fill-rule="evenodd">
        <g id="编组" transform="translate(4, 2)">
            <g id="bg">
                <use fill="black" fill-opacity="1" filter="url(#filter-3)" xlink:href="#path-2"></use>
                <use fill="url(#linearGradient-1)" fill-rule="evenodd" xlink:href="#path-2"></use>
            </g>
            <g id="折角">
                <use fill="black" fill-opacity="1" filter="url(#filter-6)" xlink:href="#path-5"></use>
                <use fill="url(#linearGradient-4)" fill-rule="evenodd" xlink:href="#path-5"></use>
            </g>
        </g>
        <g id="network-normal" transform="translate(6, 7)" fill="#FFFFFF" fill-rule="nonzero">
            <path d="M6,0 C9.3137085,0 12,2.6862915 12,6 C12,9.3137085 9.3137085,12 6,12 C2.6862915,12 0,9.3137085 0,6 C0,2.6862915 2.6862915,0 6,0 Z M6,1 C3.23857625,1 1,3.23857625 1,6 C1,8.76142375 3.23857625,11 6,11 C8.76142375,11 11,8.76142375 11,6 C11,3.23857625 8.76142375,1 6,1 Z M5.88112079,1.9 C7.09593666,1.9 8.22056654,2.46429649 8.97084107,3.41417885 C9.17623508,3.6742172 9.1319371,4.05152467 8.87189875,4.25691868 C8.61186041,4.46231269 8.23455294,4.41801471 8.02915893,4.15797636 C7.50275763,3.4915279 6.72245156,3.1 5.88112079,3.1 C4.34987821,3.1 3.1,4.39382356 3.1,6 C3.1,7.60617644 4.34987821,8.9 5.88112079,8.9 C6.70311043,8.9 7.46711965,8.52645001 7.99352586,7.88623802 C8.20398358,7.63028063 8.58208774,7.59339587 8.83804513,7.80385359 C9.09400252,8.01431132 9.13088729,8.39241548 8.92042956,8.64837287 C8.16972647,9.56137335 7.06809149,10.1 5.88112079,10.1 C3.67768047,10.1 1.9,8.25981681 1.9,6 C1.9,3.74018319 3.67768047,1.9 5.88112079,1.9 Z" id="形状结合"></path>
        </g>
    </g>
</svg>