<svg xmlns="http://www.w3.org/2000/svg" xmlns:xlink="http://www.w3.org/1999/xlink" width="24" height="24" viewBox="0 0 24 24">
  <defs>
    <linearGradient id="text-x-bibtex-c" x1="50%" x2="50%" y1="0%" y2="99.345%">
      <stop offset="0%" stop-color="#8552D5"/>
      <stop offset="98.596%" stop-color="#68269D"/>
    </linearGradient>
    <path id="text-x-bibtex-b" d="M10.5,0 L16,5.5 L16,17.75 C16,18.9926407 14.9926407,20 13.75,20 L2.25,20 C1.00735931,20 1.52179594e-16,18.9926407 0,17.75 L0,2.25 C-1.52179594e-16,1.00735931 1.00735931,2.28269391e-16 2.25,0 L10.5,0 Z"/>
    <filter id="text-x-bibtex-a" width="143.8%" height="135%" x="-21.9%" y="-12.5%" filterUnits="objectBoundingBox">
      <feOffset dy="1" in="SourceAlpha" result="shadowOffsetOuter1"/>
      <feGaussianBlur in="shadowOffsetOuter1" result="shadowBlurOuter1" stdDeviation="1"/>
      <feColorMatrix in="shadowBlurOuter1" values="0 0 0 0 0.339328004   0 0 0 0 0   0 0 0 0 0.621603261  0 0 0 0.5 0"/>
    </filter>
    <linearGradient id="text-x-bibtex-f" x1="50%" x2="14.088%" y1="50%" y2="88.513%">
      <stop offset="0%" stop-color="#FFF" stop-opacity=".1"/>
      <stop offset="100%" stop-color="#FFF" stop-opacity=".3"/>
    </linearGradient>
    <path id="text-x-bibtex-e" d="M10.5,0 L16,5.64102564 L12.75,5.64102564 C11.5073593,5.64102564 10.5,4.63366633 10.5,3.39102564 L10.5,0 Z"/>
    <filter id="text-x-bibtex-d" width="172.7%" height="170.9%" x="-36.4%" y="-17.7%" filterUnits="objectBoundingBox">
      <feOffset dy="1" in="SourceAlpha" result="shadowOffsetOuter1"/>
      <feGaussianBlur in="shadowOffsetOuter1" result="shadowBlurOuter1" stdDeviation=".5"/>
      <feComposite in="shadowBlurOuter1" in2="SourceAlpha" operator="out" result="shadowBlurOuter1"/>
      <feColorMatrix in="shadowBlurOuter1" values="0 0 0 0 0   0 0 0 0 0   0 0 0 0 0  0 0 0 0.05 0"/>
    </filter>
  </defs>
  <g fill="none" fill-rule="evenodd">
    <g transform="translate(4 2)">
      <use fill="#000" filter="url(#text-x-bibtex-a)" xlink:href="#text-x-bibtex-b"/>
      <use fill="url(#text-x-bibtex-c)" xlink:href="#text-x-bibtex-b"/>
      <use fill="#000" filter="url(#text-x-bibtex-d)" xlink:href="#text-x-bibtex-e"/>
      <use fill="url(#text-x-bibtex-f)" xlink:href="#text-x-bibtex-e"/>
    </g>
    <g fill="#FFF" transform="translate(4.333 8.667)">
      <path d="M6.33333333,0.333333333 L0.133333206,0.333333333 L0,2.8080167 L0.318781078,2.8080167 C0.452136434,0.954601922 0.496718199,0.98358778 2.09698747,0.98358778 L2.66666667,0.98358778 C2.86378317,1.01703924 2.96589317,1.15302654 2.96589317,1.4105714 L2.96589317,7.14786441 C2.96589317,7.55225502 2.93463791,7.67560545 2.06532497,7.67560545 L1.772359,7.67560545 L1.772359,8.33333333 C2.26744231,8.32289599 2.78336246,8.312052 3.28969766,8.312052 C3.79436591,8.312052 4.311953,8.32289599 4.80661957,8.33333333 L4.80661957,7.67560545 L4.51865445,7.67560545 C3.66225618,7.67560545 3.63142183,7.55225502 3.63142183,7.14786441 L3.63142183,1.4105714 C3.63142183,1.16342322 3.63142183,1.02922879 3.81728643,0.98358778 L4.38363173,0.98358778 C5.96264743,0.98358778 6.11725678,0.952785553 6.25061255,2.8080167 L6.66666667,2.8080167"/>
      <path d="M10.3559354,6.74530514 L10.0871402,7.10606061 C9.86085209,8.55493341 9.99629155,8.7642859 8.18098609,8.7642859 L6.74866174,8.7642859 C6.33650906,8.7642859 6.31692243,8.71496425 6.31692243,8.37878788 L6.31692243,6.15151515 L7.29041957,6.15151515 C8.26391671,6.15151515 8.15973251,6.59958443 8.15973251,7.42424242 L8.52271026,7.42424242 L8.52271026,4.48558441 L8.15973251,4.48558441 C8.15973251,5.29643234 8.26391671,5.62787383 7.29041957,5.62787383 L6.31692243,5.62787383 L6.31692243,3.20638992 C6.31692243,2.87652672 6.33650906,2.82720507 6.74866174,2.82720507 L8.15973251,2.82720507 C9.75666789,2.82720507 9.9425325,3.428144 10.0871402,4.71996089 L10.3559354,4.71996089 L10.3559354,2.33333333 L4.80000051,2.33333333 L4.80000051,2.82720507 C5.53095684,2.82720507 5.64805988,2.82720507 5.64805988,3.26635321 L5.64805988,8.32196934 C5.64805988,8.76116877 5.53262379,8.76116877 4.80000051,8.76116877 L4.80000051,9.33333333 L10.3559354,9.33333333"/>
      <path d="M12.2968608,3.29737513 L13.8237844,1.20732482 C13.9767269,1.00213886 14.2876125,0.843527533 15.1344217,0.832882737 L15.1344217,0.333333333 C14.8981319,0.35187713 14.5059826,0.35187713 14.2584409,0.35187713 C13.9183837,0.35187713 13.4949791,0.35187713 13.2378525,0.333333333 L13.2378525,0.832882737 C13.5683248,0.86207129 13.5361559,0.920470097 13.5361559,1.07790086 C13.5361559,1.19470242 13.3111982,1.50900744 13.2378525,1.60606061 L12.1635051,3.11548083 C12.1635051,3.11548083 10.7878089,1.10709139 10.7878089,1.07790086 C10.7878089,0.989903144 10.5632358,0.832882737 11.0091442,0.832882737 L11.0091442,0.333333333 C10.6786719,0.35187713 10.1740036,0.35187713 9.83394642,0.35187713 C9.56681813,0.35187713 9.05089799,0.35187713 8.80168939,0.333333333 L8.80168939,0.832882737 C9.36845142,0.832882737 9.74934885,0.903905125 9.97730387,1.20732482 L11.772606,3.66117162 L9.97730387,6.14425236 C9.53431266,6.75150052 8.86378317,6.76211454 8.66666667,6.76211454 L8.66666667,7.33333333 C8.90253969,7.31478839 9.28861427,7.33333333 9.53615593,7.33333333 C9.8145361,7.33333333 10.3061092,7.31478839 10.5632358,7.33333333 L10.5632358,6.76211454 C10.2440154,6.73295558 10.1514999,6.53720781 10.1514999,6.3797731 C10.1514999,6.25350968 10.201925,6.18406479 10.2540171,6.11461991 L11.9047115,3.83360406 L13.7000136,6.33202974 C13.7812773,6.44018226 13.7812773,6.46934122 13.7812773,6.49853964 C13.7812773,6.57548141 13.6887617,6.74356959 13.3274509,6.76369283 L13.3274509,7.33333333 C13.6579232,7.31478839 14.2259355,7.33333333 14.5659927,7.33333333 C14.833121,7.33333333 15.2856971,7.31478839 15.5361559,7.33333333 L15.5361559,6.76369283 C14.8752114,6.76369283 14.7710272,6.71594947 14.5659927,6.44018226"/>
    </g>
  </g>
</svg>
