<?xml version="1.0" encoding="UTF-8"?>
<svg width="24px" height="24px" viewBox="0 0 24 24" version="1.1" xmlns="http://www.w3.org/2000/svg" xmlns:xlink="http://www.w3.org/1999/xlink">
    <title>mimetypes/24/text-x-nim</title>
    <defs>
        <linearGradient x1="50%" y1="0%" x2="50%" y2="100%" id="linearGradient-1">
            <stop stop-color="#FFA045" offset="0%"></stop>
            <stop stop-color="#ED6415" offset="100%"></stop>
        </linearGradient>
        <path d="M16,17.75 C16,18.9926407 14.9926407,20 13.75,20 L2.25,20 C1.00735931,20 1.52179594e-16,18.9926407 0,17.75 L0,2.25 C-1.52179594e-16,1.00735931 1.00735931,2.28269391e-16 2.25,0 L10.5,0 L16,5.5 L16,17.75 Z" id="path-2"></path>
        <filter x="-21.9%" y="-12.5%" width="143.8%" height="135.0%" filterUnits="objectBoundingBox" id="filter-3">
            <feOffset dx="0" dy="1" in="SourceAlpha" result="shadowOffsetOuter1"></feOffset>
            <feGaussianBlur stdDeviation="1" in="shadowOffsetOuter1" result="shadowBlurOuter1"></feGaussianBlur>
            <feColorMatrix values="0 0 0 0 0.937254902   0 0 0 0 0.415686275   0 0 0 0 0.101960784  0 0 0 0.5 0" type="matrix" in="shadowBlurOuter1"></feColorMatrix>
        </filter>
        <linearGradient x1="50%" y1="50%" x2="12.2232245%" y2="88.5133793%" id="linearGradient-4">
            <stop stop-color="#FFFFFF" stop-opacity="0.1" offset="0%"></stop>
            <stop stop-color="#FFFFFF" stop-opacity="0.3" offset="100%"></stop>
        </linearGradient>
        <path d="M10.5,0 L16,5.5 L12.75,5.5 C11.5073593,5.5 10.5,4.49264069 10.5,3.25 L10.5,0 L10.5,0 Z" id="path-5"></path>
        <filter x="-36.4%" y="-18.2%" width="172.7%" height="172.7%" filterUnits="objectBoundingBox" id="filter-6">
            <feOffset dx="0" dy="1" in="SourceAlpha" result="shadowOffsetOuter1"></feOffset>
            <feGaussianBlur stdDeviation="0.5" in="shadowOffsetOuter1" result="shadowBlurOuter1"></feGaussianBlur>
            <feComposite in="shadowBlurOuter1" in2="SourceAlpha" operator="out" result="shadowBlurOuter1"></feComposite>
            <feColorMatrix values="0 0 0 0 0   0 0 0 0 0   0 0 0 0 0  0 0 0 0.05 0" type="matrix" in="shadowBlurOuter1"></feColorMatrix>
        </filter>
    </defs>
    <g id="mimetypes/24/text-x-nim" stroke="none" stroke-width="1" fill="none" fill-rule="evenodd">
        <g id="编组" transform="translate(4, 2)">
            <g id="bg" fill-rule="nonzero">
                <use fill="black" fill-opacity="1" filter="url(#filter-3)" xlink:href="#path-2"></use>
                <use fill="url(#linearGradient-1)" xlink:href="#path-2"></use>
            </g>
            <g id="折角">
                <use fill="black" fill-opacity="1" filter="url(#filter-6)" xlink:href="#path-5"></use>
                <use fill="url(#linearGradient-4)" fill-rule="evenodd" xlink:href="#path-5"></use>
            </g>
        </g>
        <path d="M17.6115263,12.3672555 C17.6115263,12.3672555 17.2424965,13.2362398 16.8477818,14.1466571 L16.7079633,14.4683537 C16.6147854,14.6821684 16.5224218,14.8928868 16.4353452,15.0897287 C14.3195084,17.7310906 9.46610341,17.5562348 7.56548465,15.0410312 C7.11695093,13.9510867 6.47112597,12.3825315 6.47112597,12.3825315 C7.04138581,13.0790407 7.58228615,13.5878144 8.38651785,14.0184483 C8.78499058,14.2052883 9.66517965,14.3471365 9.66517965,14.3471365 L12.0206047,13.154127 L14.3625749,14.3714868 C14.3625749,14.3714868 15.254624,14.2430718 15.6412325,14.0306245 C16.1853057,13.7306887 17.0687086,13.1738745 17.6115263,12.3672555 Z M12.0476197,8.75000049 C12.0476197,8.75000049 12.4802145,9.14539146 12.9107122,9.50032594 C13.5431107,9.46569844 14.2950134,9.60555844 14.9166658,9.72066243 C15.3768148,9.3975197 15.7738085,9.10134472 15.7738085,9.10134472 C15.7738085,9.10134472 15.9344574,9.37524488 16.1097338,9.68416027 L16.2271494,9.8926698 C16.265942,9.96215445 16.3038545,10.0307467 16.3392845,10.0958252 C16.5820726,10.2427149 17.0092448,10.5470056 17.1904771,10.7449194 C17.4940163,10.6287946 17.9622675,10.4715436 18,10.4590786 C17.6558625,11.3684671 17.3155373,12.3534683 16.4404752,12.8112885 C15.0864471,10.9153126 8.92183932,10.7216124 7.59523715,12.823206 C6.76197445,12.268368 6.45565572,11.3452508 6,10.4233539 C6.01301812,10.4288761 6.41187935,10.5959626 6.75595308,10.7330124 C7.05177593,10.4705596 7.38369704,10.2721929 7.71428614,10.0958282 C7.93720038,9.73685868 8.29166686,9.12516622 8.29166686,9.12516622 C8.29166686,9.12516622 8.70648133,9.4563947 9.17857068,9.75639618 C9.69103964,9.56944819 10.6368353,9.46114219 11.1190471,9.47650969 L11.3331192,9.31058477 C11.7184013,9.01096687 12.0476197,8.75000049 12.0476197,8.75000049 Z" id="形状结合" fill="#FFFFFF"></path>
    </g>
</svg>