<svg xmlns="http://www.w3.org/2000/svg" xmlns:xlink="http://www.w3.org/1999/xlink" width="24" height="24" viewBox="0 0 24 24">
  <defs>
    <linearGradient id="x-media-podcast-c" x1="50%" x2="50%" y1="0%" y2="100%">
      <stop offset="0%" stop-color="#5C42B1"/>
      <stop offset="99.345%" stop-color="#3E1888"/>
    </linearGradient>
    <path id="x-media-podcast-b" d="M10.5,0 L16,5.5 L16,17.75 C16,18.9926407 14.9926407,20 13.75,20 L2.25,20 C1.00735931,20 1.52179594e-16,18.9926407 0,17.75 L0,2.25 C-1.52179594e-16,1.00735931 1.00735931,2.28269391e-16 2.25,0 L10.5,0 Z"/>
    <filter id="x-media-podcast-a" width="143.8%" height="135%" x="-21.9%" y="-12.5%" filterUnits="objectBoundingBox">
      <feOffset dy="1" in="SourceAlpha" result="shadowOffsetOuter1"/>
      <feGaussianBlur in="shadowOffsetOuter1" result="shadowBlurOuter1" stdDeviation="1"/>
      <feColorMatrix in="shadowBlurOuter1" values="0 0 0 0 0.241013895   0 0 0 0 0   0 0 0 0 0.621603261  0 0 0 0.5 0"/>
    </filter>
    <linearGradient id="x-media-podcast-f" x1="50%" x2="14.088%" y1="50%" y2="88.513%">
      <stop offset="0%" stop-color="#FFF" stop-opacity=".1"/>
      <stop offset="100%" stop-color="#FFF" stop-opacity=".3"/>
    </linearGradient>
    <path id="x-media-podcast-e" d="M10.5,0 L16,5.64102564 L12.75,5.64102564 C11.5073593,5.64102564 10.5,4.63366633 10.5,3.39102564 L10.5,0 Z"/>
    <filter id="x-media-podcast-d" width="172.7%" height="170.9%" x="-36.4%" y="-17.7%" filterUnits="objectBoundingBox">
      <feOffset dy="1" in="SourceAlpha" result="shadowOffsetOuter1"/>
      <feGaussianBlur in="shadowOffsetOuter1" result="shadowBlurOuter1" stdDeviation=".5"/>
      <feComposite in="shadowBlurOuter1" in2="SourceAlpha" operator="out" result="shadowBlurOuter1"/>
      <feColorMatrix in="shadowBlurOuter1" values="0 0 0 0 0   0 0 0 0 0   0 0 0 0 0  0 0 0 0.05 0"/>
    </filter>
  </defs>
  <g fill="none" fill-rule="evenodd">
    <g transform="translate(4 2)">
      <use fill="#000" filter="url(#x-media-podcast-a)" xlink:href="#x-media-podcast-b"/>
      <use fill="url(#x-media-podcast-c)" xlink:href="#x-media-podcast-b"/>
      <use fill="#000" filter="url(#x-media-podcast-d)" xlink:href="#x-media-podcast-e"/>
      <use fill="url(#x-media-podcast-f)" xlink:href="#x-media-podcast-e"/>
    </g>
    <path fill="#FFF" d="M12,6 C8.676,6 6,8.676 6,12 C6,14.2285245 7.2055035,16.1609408 9,17.1958005 L9,16.3110352 C7.639098,15.364305 6.75,13.790619 6.75,12 C6.75,9.0915 9.0915,6.75 12,6.75 C14.9085,6.75 17.25,9.0915 17.25,12 C17.25,13.790619 16.360902,15.364305 15,16.3110352 L15,17.1958005 C16.7944965,16.1609408 18,14.2285245 18,12 C18,8.676 15.324,6 12,6 L12,6 Z M12,8.1752925 C9.9225,8.1752925 8.25,9.8477925 8.25,11.9252925 C8.25,12.9399982 8.652927,13.8545362 9.30322275,14.5283197 C9.417528,14.29011 9.563592,14.0729557 9.733887,13.875 C9.28243425,13.3502167 9,12.6750112 9,11.9252925 C9,10.2632925 10.338,8.9252925 12,8.9252925 C13.662,8.9252925 15,10.2632925 15,11.9252925 C15,12.6750112 14.7175658,13.3502167 14.266113,13.875 C14.436408,14.0729557 14.582472,14.29011 14.6967773,14.5283197 C15.347073,13.8545362 15.75,12.9399982 15.75,11.9252925 C15.75,9.8477925 14.0775,8.1752925 12,8.1752925 L12,8.1752925 Z M12,10.5 C11.169,10.5 10.5,11.169 10.5,12 C10.5,12.831 11.169,13.5 12,13.5 C12.831,13.5 13.5,12.831 13.5,12 C13.5,11.169 12.831,10.5 12,10.5 L12,10.5 Z M9.67529325,17 L9.97558575,19 L13.999512,19 L14.25,17 C14.3880218,15.3437412 13.662,14 12,14 C10.338,14 9.50991825,15.3462485 9.67529325,17 Z"/>
  </g>
</svg>
