<svg xmlns="http://www.w3.org/2000/svg" xmlns:xlink="http://www.w3.org/1999/xlink" width="512" height="512" viewBox="0 0 512 512">
  <defs>
    <filter id="folder-music-512px-a" width="124.3%" height="128.1%" x="-12.2%" y="-14.1%" filterUnits="objectBoundingBox">
      <feOffset dy="8" in="SourceAlpha" result="shadowOffsetOuter1"/>
      <feGaussianBlur in="shadowOffsetOuter1" result="shadowBlurOuter1" stdDeviation="10"/>
      <feComposite in="shadowBlurOuter1" in2="SourceAlpha" operator="out" result="shadowBlurOuter1"/>
      <feColorMatrix in="shadowBlurOuter1" result="shadowMatrixOuter1" values="0 0 0 0 0   0 0 0 0 0   0 0 0 0 0  0 0 0 0.2 0"/>
      <feMerge>
        <feMergeNode in="shadowMatrixOuter1"/>
        <feMergeNode in="SourceGraphic"/>
      </feMerge>
    </filter>
    <linearGradient id="folder-music-512px-b" x1="50%" x2="50%" y1="0%" y2="37.968%">
      <stop offset="0%" stop-color="#00B8FF"/>
      <stop offset="100%" stop-color="#2E5DFF"/>
    </linearGradient>
    <linearGradient id="folder-music-512px-e" x1="50%" x2="50%" y1="0%" y2="11.796%">
      <stop offset="0%" stop-color="#FFF"/>
      <stop offset="100%" stop-color="#CEF5FF"/>
    </linearGradient>
    <rect id="folder-music-512px-d" width="404" height="166" x="20" y="64" rx="36"/>
    <filter id="folder-music-512px-c" width="108.9%" height="121.7%" x="-4.5%" y="-10.8%" filterUnits="objectBoundingBox">
      <feOffset in="SourceAlpha" result="shadowOffsetOuter1"/>
      <feGaussianBlur in="shadowOffsetOuter1" result="shadowBlurOuter1" stdDeviation="6"/>
      <feColorMatrix in="shadowBlurOuter1" values="0 0 0 0 0   0 0 0 0 0   0 0 0 0 0  0 0 0 0.2 0"/>
    </filter>
    <filter id="folder-music-512px-f" width="106.9%" height="116.9%" x="-3.5%" y="-8.4%" filterUnits="objectBoundingBox">
      <feOffset dy="4" in="SourceAlpha" result="shadowOffsetInner1"/>
      <feComposite in="shadowOffsetInner1" in2="SourceAlpha" k2="-1" k3="1" operator="arithmetic" result="shadowInnerInner1"/>
      <feColorMatrix in="shadowInnerInner1" values="0 0 0 0 1   0 0 0 0 1   0 0 0 0 1  0 0 0 0.5 0"/>
    </filter>
    <radialGradient id="folder-music-512px-g" cx="50%" cy="0%" r="117.589%" fx="50%" fy="0%" gradientTransform="scale(.65766 1) rotate(84.615 .63 .143)">
      <stop offset="0%" stop-color="#48D5FF"/>
      <stop offset="100%" stop-color="#0083F6"/>
    </radialGradient>
    <linearGradient id="folder-music-512px-j" x1="52.084%" x2="52.084%" y1="4.908%" y2="100%">
      <stop offset="0%" stop-color="#FFF"/>
      <stop offset="100%" stop-color="#FFF" stop-opacity=".6"/>
    </linearGradient>
    <path id="folder-music-512px-i" d="M98,196 C43.8760945,196 0,152.123905 0,98 C0,43.8760945 43.8760945,0 98,0 C152.123905,0 196,43.8760945 196,98 C196,152.123905 152.123905,196 98,196 Z M98,162 C133.346224,162 162,133.346224 162,98 C162,62.653776 133.346224,34 98,34 C62.653776,34 34,62.653776 34,98 C34,133.346224 62.653776,162 98,162 Z"/>
    <filter id="folder-music-512px-h" width="126.5%" height="126.5%" x="-13.3%" y="-11.2%" filterUnits="objectBoundingBox">
      <feOffset dy="4" in="SourceAlpha" result="shadowOffsetOuter1"/>
      <feGaussianBlur in="shadowOffsetOuter1" result="shadowBlurOuter1" stdDeviation="8"/>
      <feColorMatrix in="shadowBlurOuter1" values="0 0 0 0 0   0 0 0 0 0.42745098   0 0 0 0 0.968627451  0 0 0 0.5 0"/>
    </filter>
    <linearGradient id="folder-music-512px-k" x1="35.769%" x2="18.77%" y1="0%" y2="100%">
      <stop offset="0%" stop-color="#4B20FF"/>
      <stop offset="100%" stop-color="#9600F1"/>
    </linearGradient>
  </defs>
  <g fill="none" fill-rule="evenodd">
    <g filter="url(#folder-music-512px-a)" transform="translate(34 90)">
      <path fill="url(#folder-music-512px-b)" d="M248,23 L248,23 C254.072274,36.9662297 267.850687,46 283.079872,46 L388,46 C418.927946,46 444,71.072054 444,102 L444,328 C444,358.927946 418.927946,384 388,384 L56,384 C25.072054,384 -3.88449831e-14,358.927946 -4.26325641e-14,328 L-4.26325641e-14,56 C-4.64201452e-14,25.072054 25.072054,-2.27403379e-14 56,-2.84217094e-14 L212.920128,-7.10542736e-15 C228.149313,-2.34292169e-14 241.927726,9.03377035 248,23 Z"/>
      <use fill="#000" filter="url(#folder-music-512px-c)" xlink:href="#folder-music-512px-d"/>
      <use fill="url(#folder-music-512px-e)" xlink:href="#folder-music-512px-d"/>
      <use fill="#000" filter="url(#folder-music-512px-f)" xlink:href="#folder-music-512px-d"/>
      <path fill="url(#folder-music-512px-g)" d="M0,0 L444,0 L444,236 C444,266.927946 418.927946,292 388,292 L56,292 C25.072054,292 3.78758101e-15,266.927946 0,236 L0,0 Z" transform="translate(0 92)"/>
    </g>
    <g transform="translate(158 220)">
      <use fill="#000" filter="url(#folder-music-512px-h)" xlink:href="#folder-music-512px-i"/>
      <use fill="url(#folder-music-512px-j)" xlink:href="#folder-music-512px-i"/>
      <circle cx="98" cy="98" r="87" stroke="#0070DD" stroke-opacity=".15" stroke-width="2"/>
      <circle cx="98" cy="98" r="93" stroke="#0070DD" stroke-opacity=".15" stroke-width="2"/>
      <circle cx="98" cy="98" r="75" stroke="#0070DD" stroke-opacity=".15" stroke-width="2"/>
      <circle cx="98" cy="98" r="81" stroke="#0070DD" stroke-opacity=".15" stroke-width="2"/>
      <circle cx="98" cy="98" r="69" stroke="#0070DD" stroke-opacity=".15" stroke-width="2"/>
      <circle cx="98" cy="98" r="63" stroke="#0070DD" stroke-opacity=".15" stroke-width="2"/>
      <circle cx="98" cy="98" r="57" stroke="#0070DD" stroke-opacity=".15" stroke-width="2"/>
      <circle cx="98" cy="98" r="51" stroke="#0070DD" stroke-opacity=".15" stroke-width="2"/>
      <circle cx="98" cy="98" r="45" stroke="#0070DD" stroke-opacity=".15" stroke-width="2"/>
      <circle cx="98" cy="98" r="56" fill="url(#folder-music-512px-k)"/>
      <path fill="#FFF" d="M118,105.999268 L118,79.1402098 C118,77.6851735 116.82046,76.5056335 115.365424,76.5056335 C115.21193,76.5056335 115.058731,76.5190475 114.907573,76.5457224 L86.1767256,81.615872 C84.9177737,81.8380399 84,82.9319547 84,84.2103594 L84,124 C84,129.522847 79.5228475,134 74,134 C68.4771525,134 64,129.522847 64,124 C64,118.477153 68.4771525,114 74,114 C76.2512118,114 78.3286789,114.74389 80,115.999268 L80,78.5403575 C80,74.7455186 82.6970288,71.4862802 86.4248455,70.7762199 L112.617388,65.7871642 C116.905403,64.9703995 121.043644,67.7844037 121.860409,72.0724185 C121.953263,72.5599042 122,73.0550516 122,73.5513019 L122,114 C122,119.522847 117.522847,124 112,124 C106.477153,124 102,119.522847 102,114 C102,108.477153 106.477153,104 112,104 C114.251212,104 116.328679,104.74389 118,105.999268 Z"/>
    </g>
  </g>
</svg>
