<?xml version="1.0" encoding="UTF-8"?>
<svg width="512px" height="512px" viewBox="0 0 512 512" version="1.1" xmlns="http://www.w3.org/2000/svg" xmlns:xlink="http://www.w3.org/1999/xlink">
    <title>network-server</title>
    <defs>
        <filter x="-7.7%" y="-6.8%" width="115.3%" height="117.7%" filterUnits="objectBoundingBox" id="filter-1">
            <feOffset dx="0" dy="8" in="SourceAlpha" result="shadowOffsetOuter1"></feOffset>
            <feGaussianBlur stdDeviation="10" in="shadowOffsetOuter1" result="shadowBlurOuter1"></feGaussianBlur>
            <feColorMatrix values="0 0 0 0 0   0 0 0 0 0   0 0 0 0 0  0 0 0 0.2 0" type="matrix" in="shadowBlurOuter1" result="shadowMatrixOuter1"></feColorMatrix>
            <feMerge>
                <feMergeNode in="shadowMatrixOuter1"></feMergeNode>
                <feMergeNode in="SourceGraphic"></feMergeNode>
            </feMerge>
        </filter>
        <linearGradient x1="50%" y1="0%" x2="50%" y2="26.3530556%" id="linearGradient-2">
            <stop stop-color="#1FB0EA" offset="0%"></stop>
            <stop stop-color="#2C7FE2" offset="100%"></stop>
        </linearGradient>
        <linearGradient x1="50%" y1="0%" x2="50%" y2="11.7957837%" id="linearGradient-3">
            <stop stop-color="#FFFFFF" offset="0%"></stop>
            <stop stop-color="#CEF5FF" offset="100%"></stop>
        </linearGradient>
        <rect id="path-4" x="20" y="64" width="404" height="166" rx="36"></rect>
        <filter x="-4.5%" y="-10.8%" width="108.9%" height="121.7%" filterUnits="objectBoundingBox" id="filter-5">
            <feOffset dx="0" dy="0" in="SourceAlpha" result="shadowOffsetOuter1"></feOffset>
            <feGaussianBlur stdDeviation="6" in="shadowOffsetOuter1" result="shadowBlurOuter1"></feGaussianBlur>
            <feColorMatrix values="0 0 0 0 0   0 0 0 0 0   0 0 0 0 0  0 0 0 0.2 0" type="matrix" in="shadowBlurOuter1"></feColorMatrix>
        </filter>
        <filter x="-3.5%" y="-8.4%" width="106.9%" height="116.9%" filterUnits="objectBoundingBox" id="filter-6">
            <feOffset dx="0" dy="4" in="SourceAlpha" result="shadowOffsetInner1"></feOffset>
            <feComposite in="shadowOffsetInner1" in2="SourceAlpha" operator="arithmetic" k2="-1" k3="1" result="shadowInnerInner1"></feComposite>
            <feColorMatrix values="0 0 0 0 1   0 0 0 0 1   0 0 0 0 1  0 0 0 0.5 0" type="matrix" in="shadowInnerInner1"></feColorMatrix>
        </filter>
        <linearGradient x1="56.4262458%" y1="0%" x2="56.4262458%" y2="115.461063%" id="linearGradient-7">
            <stop stop-color="#5CCDF1" offset="0%"></stop>
            <stop stop-color="#1881DC" offset="100%"></stop>
        </linearGradient>
        <linearGradient x1="52.0842145%" y1="4.90831823%" x2="52.0842145%" y2="100%" id="linearGradient-8">
            <stop stop-color="#FFFFFF" offset="0%"></stop>
            <stop stop-color="#FFFFFF" stop-opacity="0.6" offset="100%"></stop>
        </linearGradient>
        <path d="M88,0 C136.59697,0 176,39.4030304 176,88 C176,136.59697 136.59697,176 88,176 C39.4030304,176 0,136.59697 0,88 C0,39.4030304 39.4030304,0 88,0 Z M119.190737,124.045271 C118.881587,124.236498 118.570191,124.429983 118.256618,124.625711 C108.904417,130.463238 99.5529396,137.072272 90.846369,144.30361 C83.767669,150.182901 77.4475554,156.206157 72.0563875,162.323581 C77.197787,163.422259 82.5315004,164 88,164 C101.599883,164 114.366124,160.426721 125.410968,154.167918 C126.018663,144.638625 125.859299,135.539814 124.981778,126.855745 C122.827488,126.362502 120.856952,125.385488 119.190737,124.045271 Z M48.020467,91.2266062 C46.1082602,92.1661483 43.9576309,92.6938765 41.6844934,92.6938765 C40.1697516,92.6938765 38.7094088,92.459542 37.3377636,92.0251717 C30.2746598,104.249356 25.7922345,116.559693 23.3491733,127.969392 C32.09489,142.084716 45.3337091,153.123679 61.0674824,159.088739 C67.4984829,151.240022 75.2880404,143.61569 84.156954,136.249516 C92.6995037,129.154409 101.794532,122.661729 110.922853,116.870505 C90.4071244,114.22144 72.0973395,107.299829 55.9310528,96.7807115 C53.1863837,94.9948037 50.5501519,93.1400255 48.020467,91.2266062 Z M158.801807,115.677433 L157.80946,115.836985 C152.34017,116.700158 146.991027,117.309689 141.761261,117.673907 C140.598039,120.920941 138.300764,123.629659 135.347546,125.321949 C136.067022,132.229433 136.359599,139.372895 136.20378,146.755001 C146.173461,138.568417 154.022562,127.89204 158.801807,115.677433 Z M17.6650086,59.1604761 L17.5197653,59.5144569 C13.9601497,68.3118815 12,77.9272904 12,88 C12,96.967497 13.5535996,105.572541 16.4062908,113.560624 C19.3703782,104.35441 23.5533687,94.8545534 29.1773938,85.4280906 C27.9755364,83.3256311 27.2885199,80.89151 27.2885199,78.2979029 C27.2885199,76.4130862 27.6513448,74.6124966 28.3109151,72.9622137 C24.332471,68.4534456 20.7894806,63.8223194 17.6650086,59.1604761 Z M131.487581,25.6658691 L131.125021,25.7545697 C120.098004,28.4293224 109.95491,31.8619026 100.65267,35.9877997 C100.749833,36.6627328 100.800119,37.352749 100.800119,38.0544388 C100.800119,40.09609 100.374401,42.0389138 99.6069508,43.7989248 C101.961337,46.4496604 104.26001,49.2250705 106.490456,52.1278373 C117.0668,65.8921974 125.094544,81.3493393 130.130256,98.5542595 C135.243786,99.2388953 139.510325,102.611321 141.460686,107.202363 C148.082602,106.724629 154.921386,105.829401 161.981641,104.496906 C162.057647,104.482561 162.133568,104.470029 162.209364,104.459279 C163.382829,99.1600705 164,93.6520278 164,88 C164,62.2026716 151.142809,39.4049105 131.487581,25.6658691 Z M77.1224921,49.0563912 C68.168528,55.1961825 60.2720131,62.1727479 53.3676525,69.8882906 C55.0745073,72.254592 56.0804669,75.1594843 56.0804669,78.2979029 C56.0804669,80.154767 55.728324,81.9298835 55.0872209,83.5600698 C57.1141823,85.0619284 59.2133608,86.5227138 61.3856578,87.9361891 C77.0428558,98.1240515 94.8938797,104.670609 115.112422,106.829883 C116.184738,104.492747 117.86464,102.491589 119.949506,101.02903 C115.268919,85.2412823 107.877195,71.0847655 98.1732458,58.4557659 C96.2431987,55.9439469 94.2570785,53.5338474 92.2247556,51.2237868 C90.444705,52.0123118 88.4752762,52.4504123 86.4041456,52.4504123 C83.0044674,52.4504123 79.878814,51.2699981 77.4149539,49.2969383 L77.1224921,49.0563912 Z M53.3121891,20.3618252 L53.0753962,20.4837412 C40.6877924,26.9053694 30.2913684,36.6362086 23.0571115,48.5052717 C26.4781517,54.1702576 30.5717868,59.8556641 35.3691009,65.3591079 C37.2761528,64.4258794 39.4195075,63.9019294 41.6844934,63.9019294 C42.69484,63.9019294 43.6809844,64.0061851 44.6327485,64.2045182 C52.553479,55.1977024 61.7035951,47.1130753 72.1506975,40.0865788 C72.0567599,39.422637 72.008172,38.7441776 72.008172,38.0544388 C72.008172,36.2950156 72.3243266,34.6089855 72.9028867,33.0500973 C66.4314899,28.0280945 59.8198623,23.812529 53.3121891,20.3618252 Z M88,12 C80.2037023,12 72.6813638,13.1742848 65.6002295,15.3556096 C70.3774914,18.2639378 75.1554668,21.5496123 79.8579743,25.2311613 C81.8222097,24.2257613 84.0473308,23.6584653 86.4041456,23.6584653 C89.9505652,23.6584653 93.198794,24.94298 95.7086526,27.0718301 C102.968859,23.8195647 110.69927,20.9704606 118.913877,18.5526568 C109.470338,14.3411782 99.0082662,12 88,12 Z" id="path-9"></path>
        <filter x="-14.8%" y="-12.5%" width="129.5%" height="129.5%" filterUnits="objectBoundingBox" id="filter-10">
            <feOffset dx="0" dy="4" in="SourceAlpha" result="shadowOffsetOuter1"></feOffset>
            <feGaussianBlur stdDeviation="8" in="shadowOffsetOuter1" result="shadowBlurOuter1"></feGaussianBlur>
            <feColorMatrix values="0 0 0 0 0   0 0 0 0 0.42745098   0 0 0 0 0.968627451  0 0 0 0.5 0" type="matrix" in="shadowBlurOuter1"></feColorMatrix>
        </filter>
    </defs>
    <g id="network-server" stroke="none" stroke-width="1" fill="none" fill-rule="evenodd">
        <g id="folder-256px" transform="translate(34, 90)">
            <g id="Group-2" filter="url(#filter-1)" transform="translate(0, -0)">
                <path d="M248,23 C254.072274,36.9662297 267.850687,46 283.079872,46 L388,46 C418.927946,46 444,71.072054 444,102 L444,328 C444,358.927946 418.927946,384 388,384 L56,384 C25.072054,384 3.78758101e-15,358.927946 0,328 L0,56 C-3.78758101e-15,25.072054 25.072054,5.68137151e-15 56,0 L212.920128,0 C228.149313,-2.79755592e-15 241.927726,9.03377035 248,23 Z" id="Mask" fill="url(#linearGradient-2)"></path>
                <g id="Rectangle">
                    <use fill="black" fill-opacity="1" filter="url(#filter-5)" xlink:href="#path-4"></use>
                    <use fill="url(#linearGradient-3)" fill-rule="evenodd" xlink:href="#path-4"></use>
                    <use fill="black" fill-opacity="1" filter="url(#filter-6)" xlink:href="#path-4"></use>
                </g>
                <g id="Group" transform="translate(0, 92)" fill="url(#linearGradient-7)">
                    <path d="M0,0 L444,0 L444,236 C444,266.927946 418.927946,292 388,292 L56,292 C25.072054,292 3.78758101e-15,266.927946 0,236 L0,0 L0,0 Z" id="Rectangle"></path>
                </g>
            </g>
        </g>
        <g id="Combined-Shape" transform="translate(168, 236)">
            <use fill="black" fill-opacity="1" filter="url(#filter-10)" xlink:href="#path-9"></use>
            <use fill="url(#linearGradient-8)" fill-rule="evenodd" xlink:href="#path-9"></use>
        </g>
    </g>
</svg>