<?xml version="1.0" encoding="UTF-8"?>
<svg width="512px" height="512px" viewBox="0 0 512 512" version="1.1" xmlns="http://www.w3.org/2000/svg" xmlns:xlink="http://www.w3.org/1999/xlink">
    <title>places/512/network-server</title>
    <defs>
        <filter x="-7.7%" y="-6.8%" width="115.3%" height="117.7%" filterUnits="objectBoundingBox" id="filter-1">
            <feOffset dx="0" dy="8" in="SourceAlpha" result="shadowOffsetOuter1"></feOffset>
            <feGaussianBlur stdDeviation="10" in="shadowOffsetOuter1" result="shadowBlurOuter1"></feGaussianBlur>
            <feColorMatrix values="0 0 0 0 0   0 0 0 0 0   0 0 0 0 0  0 0 0 0.2 0" type="matrix" in="shadowBlurOuter1" result="shadowMatrixOuter1"></feColorMatrix>
            <feMerge>
                <feMergeNode in="shadowMatrixOuter1"></feMergeNode>
                <feMergeNode in="SourceGraphic"></feMergeNode>
            </feMerge>
        </filter>
        <linearGradient x1="50%" y1="0%" x2="50%" y2="26.3530556%" id="linearGradient-2">
            <stop stop-color="#1FB0EA" offset="0%"></stop>
            <stop stop-color="#2C7FE2" offset="100%"></stop>
        </linearGradient>
        <linearGradient x1="50%" y1="0%" x2="50%" y2="11.7957837%" id="linearGradient-3">
            <stop stop-color="#FFFFFF" offset="0%"></stop>
            <stop stop-color="#CEF5FF" offset="100%"></stop>
        </linearGradient>
        <rect id="path-4" x="20" y="64" width="404" height="166" rx="36"></rect>
        <filter x="-4.5%" y="-10.8%" width="108.9%" height="121.7%" filterUnits="objectBoundingBox" id="filter-5">
            <feOffset dx="0" dy="0" in="SourceAlpha" result="shadowOffsetOuter1"></feOffset>
            <feGaussianBlur stdDeviation="6" in="shadowOffsetOuter1" result="shadowBlurOuter1"></feGaussianBlur>
            <feColorMatrix values="0 0 0 0 0   0 0 0 0 0   0 0 0 0 0  0 0 0 0.2 0" type="matrix" in="shadowBlurOuter1"></feColorMatrix>
        </filter>
        <filter x="-3.5%" y="-8.4%" width="106.9%" height="116.9%" filterUnits="objectBoundingBox" id="filter-6">
            <feOffset dx="0" dy="4" in="SourceAlpha" result="shadowOffsetInner1"></feOffset>
            <feComposite in="shadowOffsetInner1" in2="SourceAlpha" operator="arithmetic" k2="-1" k3="1" result="shadowInnerInner1"></feComposite>
            <feColorMatrix values="0 0 0 0 1   0 0 0 0 1   0 0 0 0 1  0 0 0 0.5 0" type="matrix" in="shadowInnerInner1"></feColorMatrix>
        </filter>
        <linearGradient x1="56.4262458%" y1="0%" x2="56.4262458%" y2="106.736081%" id="linearGradient-7">
            <stop stop-color="#5CCDF1" offset="0%"></stop>
            <stop stop-color="#1881DC" offset="100%"></stop>
        </linearGradient>
        <linearGradient x1="52.0842145%" y1="4.90831823%" x2="52.0842145%" y2="100%" id="linearGradient-8">
            <stop stop-color="#FFFFFF" offset="0%"></stop>
            <stop stop-color="#FFFFFF" stop-opacity="0.6" offset="100%"></stop>
        </linearGradient>
        <path d="M256,210 C304.59697,210 344,249.40303 344,298 C344,346.59697 304.59697,386 256,386 C207.40303,386 168,346.59697 168,298 C168,249.40303 207.40303,210 256,210 Z M287.190737,334.045271 C286.881587,334.236498 286.570191,334.429983 286.256618,334.625711 C276.904417,340.463238 267.55294,347.072272 258.846369,354.30361 C251.767669,360.182901 245.447555,366.206157 240.056388,372.323581 C245.197787,373.422259 250.5315,374 256,374 C269.599883,374 282.366124,370.426721 293.410968,364.167918 C294.018663,354.638625 293.859299,345.539814 292.981778,336.855745 C290.827488,336.362502 288.856952,335.385488 287.190737,334.045271 Z M216.020467,301.226606 C214.10826,302.166148 211.957631,302.693876 209.684493,302.693876 C208.169752,302.693876 206.709409,302.459542 205.337764,302.025172 C198.27466,314.249356 193.792234,326.559693 191.349173,337.969392 C200.09489,352.084716 213.333709,363.123679 229.067482,369.088739 C235.498483,361.240022 243.28804,353.61569 252.156954,346.249516 C260.699504,339.154409 269.794532,332.661729 278.922853,326.870505 C258.407124,324.22144 240.097339,317.299829 223.931053,306.780711 C221.186384,304.994804 218.550152,303.140025 216.020467,301.226606 Z M326.801807,325.677433 L325.80946,325.836985 C320.34017,326.700158 314.991027,327.309689 309.761261,327.673907 C308.598039,330.920941 306.300764,333.629659 303.347546,335.321949 C304.067022,342.229433 304.359599,349.372895 304.20378,356.755001 C314.173461,348.568417 322.022562,337.89204 326.801807,325.677433 Z M185.665009,269.160476 L185.519765,269.514457 C181.96015,278.311881 180,287.92729 180,298 C180,306.967497 181.5536,315.572541 184.406291,323.560624 C187.370378,314.35441 191.553369,304.854553 197.177394,295.428091 C195.975536,293.325631 195.28852,290.89151 195.28852,288.297903 C195.28852,286.413086 195.651345,284.612497 196.310915,282.962214 C192.332471,278.453446 188.789481,273.822319 185.665009,269.160476 Z M299.487581,235.665869 L299.125021,235.75457 C288.098004,238.429322 277.95491,241.861903 268.65267,245.9878 C268.749833,246.662733 268.800119,247.352749 268.800119,248.054439 C268.800119,250.09609 268.374401,252.038914 267.606951,253.798925 C269.961337,256.44966 272.26001,259.22507 274.490456,262.127837 C285.0668,275.892197 293.094544,291.349339 298.130256,308.554259 C303.243786,309.238895 307.510325,312.611321 309.460686,317.202363 C316.082602,316.724629 322.921386,315.829401 329.981641,314.496906 C330.057647,314.482561 330.133568,314.470029 330.209364,314.459279 C331.382829,309.16007 332,303.652028 332,298 C332,272.202672 319.142809,249.404911 299.487581,235.665869 Z M245.122492,259.056391 C236.168528,265.196183 228.272013,272.172748 221.367653,279.888291 C223.074507,282.254592 224.080467,285.159484 224.080467,288.297903 C224.080467,290.154767 223.728324,291.929884 223.087221,293.56007 C225.114182,295.061928 227.213361,296.522714 229.385658,297.936189 C245.042856,308.124051 262.89388,314.670609 283.112422,316.829883 C284.184738,314.492747 285.86464,312.491589 287.949506,311.02903 C283.268919,295.241282 275.877195,281.084765 266.173246,268.455766 C264.243199,265.943947 262.257078,263.533847 260.224756,261.223787 C258.444705,262.012312 256.475276,262.450412 254.404146,262.450412 C251.004467,262.450412 247.878814,261.269998 245.414954,259.296938 L245.122492,259.056391 Z M221.312189,230.361825 L221.075396,230.483741 C208.687792,236.905369 198.291368,246.636209 191.057111,258.505272 C194.478152,264.170258 198.571787,269.855664 203.369101,275.359108 C205.276153,274.425879 207.419507,273.901929 209.684493,273.901929 C210.69484,273.901929 211.680984,274.006185 212.632748,274.204518 C220.553479,265.197702 229.703595,257.113075 240.150697,250.086579 C240.05676,249.422637 240.008172,248.744178 240.008172,248.054439 C240.008172,246.295016 240.324327,244.608985 240.902887,243.050097 C234.43149,238.028094 227.819862,233.812529 221.312189,230.361825 Z M256,222 C248.203702,222 240.681364,223.174285 233.600229,225.35561 C238.377491,228.263938 243.155467,231.549612 247.857974,235.231161 C249.82221,234.225761 252.047331,233.658465 254.404146,233.658465 C257.950565,233.658465 261.198794,234.94298 263.708653,237.07183 C270.968859,233.819565 278.69927,230.970461 286.913877,228.552657 C277.470338,224.341178 267.008266,222 256,222 Z" id="path-9"></path>
        <filter x="-14.8%" y="-12.5%" width="129.5%" height="129.5%" filterUnits="objectBoundingBox" id="filter-10">
            <feOffset dx="0" dy="4" in="SourceAlpha" result="shadowOffsetOuter1"></feOffset>
            <feGaussianBlur stdDeviation="8" in="shadowOffsetOuter1" result="shadowBlurOuter1"></feGaussianBlur>
            <feColorMatrix values="0 0 0 0 0   0 0 0 0 0.42745098   0 0 0 0 0.968627451  0 0 0 0.5 0" type="matrix" in="shadowBlurOuter1"></feColorMatrix>
        </filter>
    </defs>
    <g id="places/512/network-server" stroke="none" stroke-width="1" fill="none" fill-rule="evenodd">
        <g id="Group-2" transform="translate(34, 64)" filter="url(#filter-1)">
            <path d="M248,23 C254.072274,36.9662297 267.850687,46 283.079872,46 L388,46 C418.927946,46 444,71.072054 444,102 L444,328 C444,358.927946 418.927946,384 388,384 L56,384 C25.072054,384 3.78758101e-15,358.927946 0,328 L0,56 C-3.78758101e-15,25.072054 25.072054,5.68137151e-15 56,0 L212.920128,0 C228.149313,-2.79755592e-15 241.927726,9.03377035 248,23 Z" id="Mask" fill="url(#linearGradient-2)"></path>
            <g id="Rectangle">
                <use fill="black" fill-opacity="1" filter="url(#filter-5)" xlink:href="#path-4"></use>
                <use fill="url(#linearGradient-3)" fill-rule="evenodd" xlink:href="#path-4"></use>
                <use fill="black" fill-opacity="1" filter="url(#filter-6)" xlink:href="#path-4"></use>
            </g>
            <g id="Group" transform="translate(0, 92)" fill="url(#linearGradient-7)">
                <path d="M0,0 L444,0 L444,236 C444,266.927946 418.927946,292 388,292 L56,292 C25.072054,292 3.78758101e-15,266.927946 0,236 L0,0 L0,0 Z" id="Rectangle"></path>
            </g>
        </g>
        <g id="Combined-Shape">
            <use fill="black" fill-opacity="1" filter="url(#filter-10)" xlink:href="#path-9"></use>
            <use fill="url(#linearGradient-8)" fill-rule="evenodd" xlink:href="#path-9"></use>
        </g>
    </g>
</svg>