<?xml version="1.0" encoding="UTF-8"?>
<svg width="512px" height="512px" viewBox="0 0 512 512" version="1.1" xmlns="http://www.w3.org/2000/svg" xmlns:xlink="http://www.w3.org/1999/xlink">
    <title>network-workgroup</title>
    <defs>
        <filter x="-7.7%" y="-6.8%" width="115.3%" height="117.7%" filterUnits="objectBoundingBox" id="filter-1">
            <feOffset dx="0" dy="8" in="SourceAlpha" result="shadowOffsetOuter1"></feOffset>
            <feGaussianBlur stdDeviation="10" in="shadowOffsetOuter1" result="shadowBlurOuter1"></feGaussianBlur>
            <feColorMatrix values="0 0 0 0 0   0 0 0 0 0   0 0 0 0 0  0 0 0 0.2 0" type="matrix" in="shadowBlurOuter1" result="shadowMatrixOuter1"></feColorMatrix>
            <feMerge>
                <feMergeNode in="shadowMatrixOuter1"></feMergeNode>
                <feMergeNode in="SourceGraphic"></feMergeNode>
            </feMerge>
        </filter>
        <linearGradient x1="50%" y1="0%" x2="50%" y2="26.3530556%" id="linearGradient-2">
            <stop stop-color="#1FB0EA" offset="0%"></stop>
            <stop stop-color="#2C7FE2" offset="100%"></stop>
        </linearGradient>
        <linearGradient x1="50%" y1="0%" x2="50%" y2="11.7957837%" id="linearGradient-3">
            <stop stop-color="#FFFFFF" offset="0%"></stop>
            <stop stop-color="#CEF5FF" offset="100%"></stop>
        </linearGradient>
        <rect id="path-4" x="20" y="64" width="404" height="166" rx="36"></rect>
        <filter x="-4.5%" y="-10.8%" width="108.9%" height="121.7%" filterUnits="objectBoundingBox" id="filter-5">
            <feOffset dx="0" dy="0" in="SourceAlpha" result="shadowOffsetOuter1"></feOffset>
            <feGaussianBlur stdDeviation="6" in="shadowOffsetOuter1" result="shadowBlurOuter1"></feGaussianBlur>
            <feColorMatrix values="0 0 0 0 0   0 0 0 0 0   0 0 0 0 0  0 0 0 0.2 0" type="matrix" in="shadowBlurOuter1"></feColorMatrix>
        </filter>
        <filter x="-3.5%" y="-8.4%" width="106.9%" height="116.9%" filterUnits="objectBoundingBox" id="filter-6">
            <feOffset dx="0" dy="4" in="SourceAlpha" result="shadowOffsetInner1"></feOffset>
            <feComposite in="shadowOffsetInner1" in2="SourceAlpha" operator="arithmetic" k2="-1" k3="1" result="shadowInnerInner1"></feComposite>
            <feColorMatrix values="0 0 0 0 1   0 0 0 0 1   0 0 0 0 1  0 0 0 0.5 0" type="matrix" in="shadowInnerInner1"></feColorMatrix>
        </filter>
        <linearGradient x1="56.4262458%" y1="0%" x2="56.4262458%" y2="115.461063%" id="linearGradient-7">
            <stop stop-color="#5CCDF1" offset="0%"></stop>
            <stop stop-color="#1881DC" offset="100%"></stop>
        </linearGradient>
        <linearGradient x1="52.0842145%" y1="4.90831823%" x2="52.0842145%" y2="100%" id="linearGradient-8">
            <stop stop-color="#FFFFFF" offset="0%"></stop>
            <stop stop-color="#FFFFFF" stop-opacity="0.6" offset="100%"></stop>
        </linearGradient>
        <path d="M302.937408,234.432688 C315.327204,241.471087 316.815316,261.472548 309.755309,286.603017 C334.097103,293.165395 350,304.226822 350,318 C350,331.773367 334.096666,342.834909 309.754619,349.397149 C316.81535,374.527 315.327344,394.528834 302.937408,401.567312 C290.666062,408.538421 272.472007,399.913402 254.000742,381.509616 C235.52865,399.91309 217.334159,408.538547 205.062592,401.567312 C192.672656,394.528834 191.18465,374.527 198.24493,349.39613 C173.903334,342.834909 158,331.773367 158,318 C158,304.226822 173.902897,293.165395 198.244377,286.603121 C191.184684,261.472548 192.672796,241.471087 205.062592,234.432688 C217.334159,227.461453 235.52865,236.08691 254.000259,254.491381 C272.472007,236.086598 290.666062,227.461579 302.937408,234.432688 Z M210.025565,352.094779 L209.767024,352.996619 C204.20372,372.655638 204.469978,387.429537 210.989904,391.133378 C217.640973,394.911719 231.030855,387.562951 245.765587,372.675526 C241.128828,367.346143 236.527811,361.452694 232.052263,355.087633 C224.309886,354.427531 216.925262,353.419867 210.025565,352.094779 Z M297.974701,352.094911 L296.737445,352.327979 C290.194512,353.538572 283.229391,354.466786 275.948554,355.087124 C271.472189,361.452694 266.871172,367.346143 262.234594,372.675337 C276.969145,387.562951 290.359027,394.911719 297.010096,391.133378 C303.629333,387.373121 303.80294,372.203002 297.974701,352.094911 Z M247.651301,355.925778 L248.09829,356.500538 C250.063473,359.017903 252.034657,361.425936 253.999827,363.716641 C256.114093,361.252545 258.234972,358.652688 260.347855,355.92702 C258.249848,355.975085 256.132887,356 254,356 C251.867113,356 249.750152,355.975085 247.651301,355.925778 Z M254,292 C248.811245,292 243.697406,292.160683 238.705382,292.472402 C236.030702,296.451282 233.40546,300.61878 230.862424,304.952725 C228.29433,309.329376 225.917935,313.691921 223.735982,318.000358 C225.917935,322.308079 228.29433,326.670624 230.862424,331.047275 C233.405672,335.381583 236.031141,339.549415 238.706069,343.528976 C243.69809,343.839339 248.811592,344 254,344 C259.188408,344 264.30191,343.839339 269.293616,343.527661 C271.968859,339.549415 274.594328,335.381583 277.137576,331.047275 C279.70567,326.670624 282.082065,322.308079 284.264018,317.999642 C282.082065,313.691921 279.70567,309.329376 277.137576,304.952725 C274.59454,300.61878 271.969298,296.451282 269.294602,292.472022 C264.302594,292.160683 259.188755,292 254,292 Z M290.617243,331.64353 L289.868501,332.979464 C289.091675,334.358434 288.297886,335.738997 287.487401,337.120258 C286.50742,338.790381 285.516178,340.439121 284.514831,342.065287 C287.8191,341.628247 291.038677,341.122793 294.156801,340.550623 C293.083104,337.644409 291.902755,334.669825 290.617243,331.64353 Z M217.383658,331.643022 L217.096259,332.321268 C215.921385,335.114126 214.836609,337.861719 213.842776,340.551724 C216.961323,341.122793 220.1809,341.628247 223.485479,342.063599 C222.483822,340.439121 221.49258,338.790381 220.512599,337.120258 C219.440181,335.292599 218.396993,333.466164 217.383658,331.643022 Z M201.93933,298.088993 L201.163723,298.296133 C198.072409,299.131872 195.133899,300.043311 192.370448,301.025871 C177.752661,306.223307 170,312.740408 170,318 C170,323.259592 177.752661,329.776693 192.370448,334.974129 C195.364063,336.038525 198.563112,337.01946 201.939304,337.911112 C204.260053,331.471145 207.06577,324.796576 210.322623,318.000001 C207.06577,311.203424 204.260053,304.528855 201.93933,298.088993 Z M306.060696,298.088888 L305.599549,299.354339 C303.371362,305.401629 300.721423,311.647522 297.677377,317.999999 C300.93423,324.796576 303.739947,331.471145 306.06067,337.911007 C309.436888,337.01946 312.635937,336.038525 315.629552,334.974129 C330.247339,329.776693 338,323.259592 338,318 C338,312.740408 330.247339,306.223307 315.629552,301.025871 C312.635937,299.961475 309.436888,298.98054 306.060696,298.088888 Z M223.484554,293.935713 L223.348836,293.954449 C220.092135,294.385704 216.91833,294.885096 213.843199,295.449377 C214.917167,298.356275 216.097393,301.330522 217.382757,304.35647 C218.397005,302.533816 219.440187,300.707391 220.512599,298.879742 C221.492379,297.209961 222.483416,295.561554 223.484554,293.935713 Z M284.514521,293.936401 L285.03643,294.785321 C285.86067,296.135089 286.677878,297.50012 287.487401,298.879742 C288.559813,300.707391 289.602995,302.533816 290.616325,304.356947 C291.902607,301.330522 293.082833,298.356275 294.156854,295.449277 C291.038677,294.877207 287.8191,294.371753 284.514521,293.936401 Z M262.667802,262.888378 L262.234594,263.324663 C266.871236,268.65393 271.472316,274.547469 275.947923,280.912631 C283.690114,281.572469 291.074738,282.580133 297.974435,283.905221 C303.80294,263.796998 303.629333,248.626879 297.010096,244.866622 C290.424295,241.125358 277.23129,248.293891 262.667802,262.888378 Z M210.989904,244.866622 C204.370667,248.626879 204.19706,263.796998 210.025299,283.905089 C216.925262,282.580133 224.309886,281.572469 232.051446,280.912876 C236.527684,274.547469 241.128764,268.65393 245.765406,263.324663 C231.030599,248.436909 217.64091,241.088317 210.989904,244.866622 Z M254.000173,272.283359 L253.498779,272.869801 C251.551016,275.158829 249.598353,277.56234 247.652472,280.072559 C249.750826,280.024907 251.867453,280 254,280 C256.132547,280 258.249174,280.024907 260.347697,280.074199 C258.234754,277.347044 256.113984,274.747328 254.000173,272.283359 Z" id="path-9"></path>
        <filter x="-13.5%" y="-12.8%" width="127.1%" height="130.2%" filterUnits="objectBoundingBox" id="filter-10">
            <feOffset dx="0" dy="4" in="SourceAlpha" result="shadowOffsetOuter1"></feOffset>
            <feGaussianBlur stdDeviation="8" in="shadowOffsetOuter1" result="shadowBlurOuter1"></feGaussianBlur>
            <feColorMatrix values="0 0 0 0 0   0 0 0 0 0.42745098   0 0 0 0 0.968627451  0 0 0 0.5 0" type="matrix" in="shadowBlurOuter1"></feColorMatrix>
        </filter>
    </defs>
    <g id="network-workgroup" stroke="none" stroke-width="1" fill="none" fill-rule="evenodd">
        <g id="folder-256px" transform="translate(34, 90)">
            <g id="Group-2" filter="url(#filter-1)" transform="translate(0, -0)">
                <path d="M248,23 C254.072274,36.9662297 267.850687,46 283.079872,46 L388,46 C418.927946,46 444,71.072054 444,102 L444,328 C444,358.927946 418.927946,384 388,384 L56,384 C25.072054,384 3.78758101e-15,358.927946 0,328 L0,56 C-3.78758101e-15,25.072054 25.072054,5.68137151e-15 56,0 L212.920128,0 C228.149313,-2.79755592e-15 241.927726,9.03377035 248,23 Z" id="Mask" fill="url(#linearGradient-2)"></path>
                <g id="Rectangle">
                    <use fill="black" fill-opacity="1" filter="url(#filter-5)" xlink:href="#path-4"></use>
                    <use fill="url(#linearGradient-3)" fill-rule="evenodd" xlink:href="#path-4"></use>
                    <use fill="black" fill-opacity="1" filter="url(#filter-6)" xlink:href="#path-4"></use>
                </g>
                <g id="Group" transform="translate(0, 92)" fill="url(#linearGradient-7)">
                    <path d="M0,0 L444,0 L444,236 C444,266.927946 418.927946,292 388,292 L56,292 C25.072054,292 3.78758101e-15,266.927946 0,236 L0,0 L0,0 Z" id="Rectangle"></path>
                </g>
            </g>
        </g>
        <path d="M302.937408,238.432688 C315.327204,245.471087 316.815316,265.472548 309.755309,290.603017 C334.097103,297.165395 350,308.226822 350,322 C350,335.773367 334.096666,346.834909 309.754619,353.397149 C316.81535,378.527 315.327344,398.528834 302.937408,405.567312 C290.666062,412.538421 272.472007,403.913402 254.000742,385.509616 C235.52865,403.91309 217.334159,412.538547 205.062592,405.567312 C192.672656,398.528834 191.18465,378.527 198.24493,353.39613 C173.903334,346.834909 158,335.773367 158,322 C158,308.226822 173.902897,297.165395 198.244377,290.603121 C191.184684,265.472548 192.672796,245.471087 205.062592,238.432688 C217.334159,231.461453 235.52865,240.08691 254.000259,258.491381 C272.472007,240.086598 290.666062,231.461579 302.937408,238.432688 Z M210.025565,356.094779 L209.767024,356.996619 C204.20372,376.655638 204.469978,391.429537 210.989904,395.133378 C217.640973,398.911719 231.030855,391.562951 245.765587,376.675526 C241.128828,371.346143 236.527811,365.452694 232.052263,359.087633 C224.309886,358.427531 216.925262,357.419867 210.025565,356.094779 Z M297.974701,356.094911 L296.737445,356.327979 C290.194512,357.538572 283.229391,358.466786 275.948554,359.087124 C271.472189,365.452694 266.871172,371.346143 262.234594,376.675337 C276.969145,391.562951 290.359027,398.911719 297.010096,395.133378 C303.629333,391.373121 303.80294,376.203002 297.974701,356.094911 Z M247.651301,359.925778 L248.09829,360.500538 C250.063473,363.017903 252.034657,365.425936 253.999827,367.716641 C256.114093,365.252545 258.234972,362.652688 260.347855,359.92702 C258.249848,359.975085 256.132887,360 254,360 C251.867113,360 249.750152,359.975085 247.651301,359.925778 Z M254,296 C248.811245,296 243.697406,296.160683 238.705382,296.472402 C236.030702,300.451282 233.40546,304.61878 230.862424,308.952725 C228.29433,313.329376 225.917935,317.691921 223.735982,322.000358 C225.917935,326.308079 228.29433,330.670624 230.862424,335.047275 C233.405672,339.381583 236.031141,343.549415 238.706069,347.528976 C243.69809,347.839339 248.811592,348 254,348 C259.188408,348 264.30191,347.839339 269.293616,347.527661 C271.968859,343.549415 274.594328,339.381583 277.137576,335.047275 C279.70567,330.670624 282.082065,326.308079 284.264018,321.999642 C282.082065,317.691921 279.70567,313.329376 277.137576,308.952725 C274.59454,304.61878 271.969298,300.451282 269.294602,296.472022 C264.302594,296.160683 259.188755,296 254,296 Z M290.617243,335.64353 L289.868501,336.979464 C289.091675,338.358434 288.297886,339.738997 287.487401,341.120258 C286.50742,342.790381 285.516178,344.439121 284.514831,346.065287 C287.8191,345.628247 291.038677,345.122793 294.156801,344.550623 C293.083104,341.644409 291.902755,338.669825 290.617243,335.64353 Z M217.383658,335.643022 L217.096259,336.321268 C215.921385,339.114126 214.836609,341.861719 213.842776,344.551724 C216.961323,345.122793 220.1809,345.628247 223.485479,346.063599 C222.483822,344.439121 221.49258,342.790381 220.512599,341.120258 C219.440181,339.292599 218.396993,337.466164 217.383658,335.643022 Z M201.93933,302.088993 L201.163723,302.296133 C198.072409,303.131872 195.133899,304.043311 192.370448,305.025871 C177.752661,310.223307 170,316.740408 170,322 C170,327.259592 177.752661,333.776693 192.370448,338.974129 C195.364063,340.038525 198.563112,341.01946 201.939304,341.911112 C204.260053,335.471145 207.06577,328.796576 210.322623,322.000001 C207.06577,315.203424 204.260053,308.528855 201.93933,302.088993 Z M306.060696,302.088888 L305.599549,303.354339 C303.371362,309.401629 300.721423,315.647522 297.677377,321.999999 C300.93423,328.796576 303.739947,335.471145 306.06067,341.911007 C309.436888,341.01946 312.635937,340.038525 315.629552,338.974129 C330.247339,333.776693 338,327.259592 338,322 C338,316.740408 330.247339,310.223307 315.629552,305.025871 C312.635937,303.961475 309.436888,302.98054 306.060696,302.088888 Z M223.484554,297.935713 L223.348836,297.954449 C220.092135,298.385704 216.91833,298.885096 213.843199,299.449377 C214.917167,302.356275 216.097393,305.330522 217.382757,308.35647 C218.397005,306.533816 219.440187,304.707391 220.512599,302.879742 C221.492379,301.209961 222.483416,299.561554 223.484554,297.935713 Z M284.514521,297.936401 L285.03643,298.785321 C285.86067,300.135089 286.677878,301.50012 287.487401,302.879742 C288.559813,304.707391 289.602995,306.533816 290.616325,308.356947 C291.902607,305.330522 293.082833,302.356275 294.156854,299.449277 C291.038677,298.877207 287.8191,298.371753 284.514521,297.936401 Z M262.667802,266.888378 L262.234594,267.324663 C266.871236,272.65393 271.472316,278.547469 275.947923,284.912631 C283.690114,285.572469 291.074738,286.580133 297.974435,287.905221 C303.80294,267.796998 303.629333,252.626879 297.010096,248.866622 C290.424295,245.125358 277.23129,252.293891 262.667802,266.888378 Z M210.989904,248.866622 C204.370667,252.626879 204.19706,267.796998 210.025299,287.905089 C216.925262,286.580133 224.309886,285.572469 232.051446,284.912876 C236.527684,278.547469 241.128764,272.65393 245.765406,267.324663 C231.030599,252.436909 217.64091,245.088317 210.989904,248.866622 Z M254.000173,276.283359 L253.498779,276.869801 C251.551016,279.158829 249.598353,281.56234 247.652472,284.072559 C249.750826,284.024907 251.867453,284 254,284 C256.132547,284 258.249174,284.024907 260.347697,284.074199 C258.234754,281.347044 256.113984,278.747328 254.000173,276.283359 Z" id="合并形状" fill-opacity="0.5" fill="#32A2FB"></path>
        <g id="合并形状">
            <use fill="black" fill-opacity="1" filter="url(#filter-10)" xlink:href="#path-9"></use>
            <use fill="url(#linearGradient-8)" fill-rule="evenodd" xlink:href="#path-9"></use>
        </g>
    </g>
</svg>