<svg xmlns="http://www.w3.org/2000/svg" xmlns:xlink="http://www.w3.org/1999/xlink" width="512" height="512" viewBox="0 0 512 512">
  <defs>
    <filter id="network-workgroup-512px-a" width="124.3%" height="128.1%" x="-12.2%" y="-14.1%" filterUnits="objectBoundingBox">
      <feOffset dy="8" in="SourceAlpha" result="shadowOffsetOuter1"/>
      <feGaussianBlur in="shadowOffsetOuter1" result="shadowBlurOuter1" stdDeviation="10"/>
      <feComposite in="shadowBlurOuter1" in2="SourceAlpha" operator="out" result="shadowBlurOuter1"/>
      <feColorMatrix in="shadowBlurOuter1" result="shadowMatrixOuter1" values="0 0 0 0 0   0 0 0 0 0   0 0 0 0 0  0 0 0 0.2 0"/>
      <feMerge>
        <feMergeNode in="shadowMatrixOuter1"/>
        <feMergeNode in="SourceGraphic"/>
      </feMerge>
    </filter>
    <linearGradient id="network-workgroup-512px-b" x1="50%" x2="50%" y1="0%" y2="37.968%">
      <stop offset="0%" stop-color="#00B8FF"/>
      <stop offset="100%" stop-color="#2E5DFF"/>
    </linearGradient>
    <linearGradient id="network-workgroup-512px-e" x1="50%" x2="50%" y1="0%" y2="11.796%">
      <stop offset="0%" stop-color="#FFF"/>
      <stop offset="100%" stop-color="#CEF5FF"/>
    </linearGradient>
    <rect id="network-workgroup-512px-d" width="404" height="166" x="20" y="64" rx="36"/>
    <filter id="network-workgroup-512px-c" width="108.9%" height="121.7%" x="-4.5%" y="-10.8%" filterUnits="objectBoundingBox">
      <feOffset in="SourceAlpha" result="shadowOffsetOuter1"/>
      <feGaussianBlur in="shadowOffsetOuter1" result="shadowBlurOuter1" stdDeviation="6"/>
      <feColorMatrix in="shadowBlurOuter1" values="0 0 0 0 0   0 0 0 0 0   0 0 0 0 0  0 0 0 0.2 0"/>
    </filter>
    <filter id="network-workgroup-512px-f" width="106.9%" height="116.9%" x="-3.5%" y="-8.4%" filterUnits="objectBoundingBox">
      <feOffset dy="4" in="SourceAlpha" result="shadowOffsetInner1"/>
      <feComposite in="shadowOffsetInner1" in2="SourceAlpha" k2="-1" k3="1" operator="arithmetic" result="shadowInnerInner1"/>
      <feColorMatrix in="shadowInnerInner1" values="0 0 0 0 1   0 0 0 0 1   0 0 0 0 1  0 0 0 0.5 0"/>
    </filter>
    <radialGradient id="network-workgroup-512px-g" cx="50%" cy="0%" r="117.589%" fx="50%" fy="0%" gradientTransform="scale(.65766 1) rotate(84.615 .63 .143)">
      <stop offset="0%" stop-color="#48D5FF"/>
      <stop offset="100%" stop-color="#0083F6"/>
    </radialGradient>
    <linearGradient id="network-workgroup-512px-j" x1="52.084%" x2="52.084%" y1="4.908%" y2="100%">
      <stop offset="0%" stop-color="#FFF"/>
      <stop offset="100%" stop-color="#FFF" stop-opacity=".6"/>
    </linearGradient>
    <path id="network-workgroup-512px-i" d="M232.051934,355.087165 C224.310116,354.427567 216.925253,353.419874 210.025349,352.094737 C204.197059,372.202915 204.370648,387.37311 210.989904,391.133378 C217.640972,394.911719 231.030849,387.562954 245.765578,372.675535 C241.128828,367.346158 236.527641,361.452484 232.051934,355.087165 Z M247.65118,355.925775 C249.764439,358.65197 251.885701,361.252311 254,363.716842 C256.114299,361.252311 258.235561,358.65197 260.34882,355.925775 C258.249929,355.975084 256.132928,356 254,356 C251.867072,356 249.750071,355.975084 247.65118,355.925775 Z M198.244696,286.603035 C191.184683,261.472558 192.672793,241.471088 205.062592,234.432688 C217.334096,227.461489 235.528462,236.086821 253.999973,254.491097 C272.47152,236.086829 290.665898,227.461485 302.937408,234.432688 C315.327207,241.471088 316.815317,261.472558 309.755304,286.603035 C334.096964,293.165298 350,304.226762 350,318 C350,331.773238 334.096964,342.834702 309.755304,349.396965 C316.815317,374.527442 315.327207,394.528912 302.937408,401.567312 C290.665904,408.538511 272.471538,399.913179 254.000027,381.508903 C235.52848,399.913171 217.334102,408.538515 205.062592,401.567312 C192.672793,394.528912 191.184683,374.527442 198.244696,349.396965 C173.903036,342.834702 158,331.773238 158,318 C158,304.226762 173.903036,293.165298 198.244696,286.603035 Z M210.025349,283.905263 C216.925253,282.580126 224.310116,281.572433 232.051934,280.912835 C236.527644,274.547512 241.128829,268.65384 245.765578,263.324465 C231.030849,248.437046 217.640972,241.088281 210.989904,244.866622 C204.370648,248.62689 204.197059,263.797085 210.025349,283.905263 Z M297.974651,352.094737 C291.074747,353.419874 283.689884,354.427567 275.948066,355.087165 C271.472356,361.452488 266.871171,367.34616 262.234422,372.675535 C276.969151,387.562954 290.359028,394.911719 297.010096,391.133378 C303.629352,387.37311 303.802941,372.202915 297.974651,352.094737 Z M260.34882,280.074225 C258.235561,277.34803 256.114299,274.747689 254,272.283158 C251.885701,274.747689 249.764439,277.34803 247.65118,280.074225 C249.750071,280.024916 251.867072,280 254,280 C256.132928,280 258.249929,280.024916 260.34882,280.074225 Z M275.948066,280.912835 C283.689884,281.572433 291.074747,282.580126 297.974651,283.905263 C303.802941,263.797085 303.629352,248.62689 297.010096,244.866622 C290.359028,241.088281 276.969151,248.437046 262.234422,263.324465 C266.871172,268.653842 271.472359,274.547516 275.948066,280.912835 Z M223.484011,342.063406 C222.483058,340.43785 221.492202,338.789737 220.512599,337.120258 C219.440044,335.292365 218.396726,333.465697 217.38327,331.642323 C216.097721,334.668651 214.917337,337.643269 213.843184,340.550621 C216.960851,341.122707 220.179941,341.628096 223.484011,342.063406 Z M238.705132,343.527582 C243.697235,343.839312 248.811158,344 254,344 C259.188842,344 264.302765,343.839312 269.294868,343.527582 C271.969472,339.548442 274.594624,335.381077 277.137576,331.047275 C279.705599,326.670745 282.081933,322.308321 284.263837,318 C282.081933,313.691679 279.705599,309.329255 277.137576,304.952725 C274.594624,300.618923 271.969472,296.451558 269.294868,292.472418 C264.302765,292.160688 259.188842,292 254,292 C248.811158,292 243.697235,292.160688 238.705132,292.472418 C236.030528,296.451558 233.405376,300.618923 230.862424,304.952725 C228.294401,309.329255 225.918067,313.691679 223.736163,318 C225.918067,322.308321 228.294401,326.670745 230.862424,331.047275 C233.405376,335.381077 236.030528,339.548442 238.705132,343.527582 Z M290.61673,304.357677 C291.902279,301.331349 293.082663,298.356731 294.156816,295.449379 C291.039149,294.877293 287.820059,294.371904 284.515989,293.936594 C285.516942,295.56215 286.507798,297.210263 287.487401,298.879742 C288.559956,300.707635 289.603274,302.534303 290.61673,304.357677 Z M201.939293,298.088891 C198.563105,298.980543 195.36406,299.961476 192.370448,301.025871 C177.752661,306.223307 170,312.740408 170,318 C170,323.259592 177.752661,329.776693 192.370448,334.974129 C195.36406,336.038524 198.563105,337.019457 201.939293,337.911109 C204.260023,331.471215 207.065753,324.796611 210.322624,318 C207.065753,311.203389 204.260023,304.528785 201.939293,298.088891 Z M213.843184,295.449379 C214.917337,298.356731 216.097721,301.331349 217.38327,304.357677 C218.396726,302.534303 219.440044,300.707635 220.512599,298.879742 C221.492202,297.210263 222.483058,295.56215 223.484011,293.936594 C220.179941,294.371904 216.960851,294.877293 213.843184,295.449379 Z M306.060707,337.911109 C309.436895,337.019457 312.63594,336.038524 315.629552,334.974129 C330.247339,329.776693 338,323.259592 338,318 C338,312.740408 330.247339,306.223307 315.629552,301.025871 C312.63594,299.961476 309.436895,298.980543 306.060707,298.088891 C303.739977,304.528785 300.934247,311.203389 297.677376,318 C300.934247,324.796611 303.739977,331.471215 306.060707,337.911109 Z M294.156816,340.550621 C293.082663,337.643269 291.902279,334.668651 290.61673,331.642323 C289.603274,333.465697 288.559956,335.292365 287.487401,337.120258 C286.507798,338.789737 285.516942,340.43785 284.515989,342.063406 C287.820059,341.628096 291.039149,341.122707 294.156816,340.550621 Z"/>
    <filter id="network-workgroup-512px-h" width="127.1%" height="130.2%" x="-13.5%" y="-12.8%" filterUnits="objectBoundingBox">
      <feOffset dy="4" in="SourceAlpha" result="shadowOffsetOuter1"/>
      <feGaussianBlur in="shadowOffsetOuter1" result="shadowBlurOuter1" stdDeviation="8"/>
      <feColorMatrix in="shadowBlurOuter1" values="0 0 0 0 0   0 0 0 0 0.42745098   0 0 0 0 0.968627451  0 0 0 0.5 0"/>
    </filter>
  </defs>
  <g fill="none" fill-rule="evenodd">
    <g filter="url(#network-workgroup-512px-a)" transform="translate(34 90)">
      <path fill="url(#network-workgroup-512px-b)" d="M248,23 L248,23 C254.072274,36.9662297 267.850687,46 283.079872,46 L388,46 C418.927946,46 444,71.072054 444,102 L444,328 C444,358.927946 418.927946,384 388,384 L56,384 C25.072054,384 -3.88449831e-14,358.927946 -4.26325641e-14,328 L-4.26325641e-14,56 C-4.64201452e-14,25.072054 25.072054,-2.27403379e-14 56,-2.84217094e-14 L212.920128,-7.10542736e-15 C228.149313,-2.34292169e-14 241.927726,9.03377035 248,23 Z"/>
      <use fill="#000" filter="url(#network-workgroup-512px-c)" xlink:href="#network-workgroup-512px-d"/>
      <use fill="url(#network-workgroup-512px-e)" xlink:href="#network-workgroup-512px-d"/>
      <use fill="#000" filter="url(#network-workgroup-512px-f)" xlink:href="#network-workgroup-512px-d"/>
      <path fill="url(#network-workgroup-512px-g)" d="M0,0 L444,0 L444,236 C444,266.927946 418.927946,292 388,292 L56,292 C25.072054,292 3.78758101e-15,266.927946 0,236 L0,0 Z" transform="translate(0 92)"/>
    </g>
    <path fill="#32A2FB" fill-opacity=".5" d="M232.051934,359.087165 C224.310116,358.427567 216.925253,357.419874 210.025349,356.094737 C204.197059,376.202915 204.370648,391.37311 210.989904,395.133378 C217.640972,398.911719 231.030849,391.562954 245.765578,376.675535 C241.128828,371.346158 236.527641,365.452484 232.051934,359.087165 Z M247.65118,359.925775 C249.764439,362.65197 251.885701,365.252311 254,367.716842 C256.114299,365.252311 258.235561,362.65197 260.34882,359.925775 C258.249929,359.975084 256.132928,360 254,360 C251.867072,360 249.750071,359.975084 247.65118,359.925775 Z M198.244696,290.603035 C191.184683,265.472558 192.672793,245.471088 205.062592,238.432688 C217.334096,231.461489 235.528462,240.086821 253.999973,258.491097 C272.47152,240.086829 290.665898,231.461485 302.937408,238.432688 C315.327207,245.471088 316.815317,265.472558 309.755304,290.603035 C334.096964,297.165298 350,308.226762 350,322 C350,335.773238 334.096964,346.834702 309.755304,353.396965 C316.815317,378.527442 315.327207,398.528912 302.937408,405.567312 C290.665904,412.538511 272.471538,403.913179 254.000027,385.508903 C235.52848,403.913171 217.334102,412.538515 205.062592,405.567312 C192.672793,398.528912 191.184683,378.527442 198.244696,353.396965 C173.903036,346.834702 158,335.773238 158,322 C158,308.226762 173.903036,297.165298 198.244696,290.603035 Z M210.025349,287.905263 C216.925253,286.580126 224.310116,285.572433 232.051934,284.912835 C236.527644,278.547512 241.128829,272.65384 245.765578,267.324465 C231.030849,252.437046 217.640972,245.088281 210.989904,248.866622 C204.370648,252.62689 204.197059,267.797085 210.025349,287.905263 Z M297.974651,356.094737 C291.074747,357.419874 283.689884,358.427567 275.948066,359.087165 C271.472356,365.452488 266.871171,371.34616 262.234422,376.675535 C276.969151,391.562954 290.359028,398.911719 297.010096,395.133378 C303.629352,391.37311 303.802941,376.202915 297.974651,356.094737 Z M260.34882,284.074225 C258.235561,281.34803 256.114299,278.747689 254,276.283158 C251.885701,278.747689 249.764439,281.34803 247.65118,284.074225 C249.750071,284.024916 251.867072,284 254,284 C256.132928,284 258.249929,284.024916 260.34882,284.074225 Z M275.948066,284.912835 C283.689884,285.572433 291.074747,286.580126 297.974651,287.905263 C303.802941,267.797085 303.629352,252.62689 297.010096,248.866622 C290.359028,245.088281 276.969151,252.437046 262.234422,267.324465 C266.871172,272.653842 271.472359,278.547516 275.948066,284.912835 Z M223.484011,346.063406 C222.483058,344.43785 221.492202,342.789737 220.512599,341.120258 C219.440044,339.292365 218.396726,337.465697 217.38327,335.642323 C216.097721,338.668651 214.917337,341.643269 213.843184,344.550621 C216.960851,345.122707 220.179941,345.628096 223.484011,346.063406 Z M238.705132,347.527582 C243.697235,347.839312 248.811158,348 254,348 C259.188842,348 264.302765,347.839312 269.294868,347.527582 C271.969472,343.548442 274.594624,339.381077 277.137576,335.047275 C279.705599,330.670745 282.081933,326.308321 284.263837,322 C282.081933,317.691679 279.705599,313.329255 277.137576,308.952725 C274.594624,304.618923 271.969472,300.451558 269.294868,296.472418 C264.302765,296.160688 259.188842,296 254,296 C248.811158,296 243.697235,296.160688 238.705132,296.472418 C236.030528,300.451558 233.405376,304.618923 230.862424,308.952725 C228.294401,313.329255 225.918067,317.691679 223.736163,322 C225.918067,326.308321 228.294401,330.670745 230.862424,335.047275 C233.405376,339.381077 236.030528,343.548442 238.705132,347.527582 Z M290.61673,308.357677 C291.902279,305.331349 293.082663,302.356731 294.156816,299.449379 C291.039149,298.877293 287.820059,298.371904 284.515989,297.936594 C285.516942,299.56215 286.507798,301.210263 287.487401,302.879742 C288.559956,304.707635 289.603274,306.534303 290.61673,308.357677 Z M201.939293,302.088891 C198.563105,302.980543 195.36406,303.961476 192.370448,305.025871 C177.752661,310.223307 170,316.740408 170,322 C170,327.259592 177.752661,333.776693 192.370448,338.974129 C195.36406,340.038524 198.563105,341.019457 201.939293,341.911109 C204.260023,335.471215 207.065753,328.796611 210.322624,322 C207.065753,315.203389 204.260023,308.528785 201.939293,302.088891 Z M213.843184,299.449379 C214.917337,302.356731 216.097721,305.331349 217.38327,308.357677 C218.396726,306.534303 219.440044,304.707635 220.512599,302.879742 C221.492202,301.210263 222.483058,299.56215 223.484011,297.936594 C220.179941,298.371904 216.960851,298.877293 213.843184,299.449379 Z M306.060707,341.911109 C309.436895,341.019457 312.63594,340.038524 315.629552,338.974129 C330.247339,333.776693 338,327.259592 338,322 C338,316.740408 330.247339,310.223307 315.629552,305.025871 C312.63594,303.961476 309.436895,302.980543 306.060707,302.088891 C303.739977,308.528785 300.934247,315.203389 297.677376,322 C300.934247,328.796611 303.739977,335.471215 306.060707,341.911109 Z M294.156816,344.550621 C293.082663,341.643269 291.902279,338.668651 290.61673,335.642323 C289.603274,337.465697 288.559956,339.292365 287.487401,341.120258 C286.507798,342.789737 285.516942,344.43785 284.515989,346.063406 C287.820059,345.628096 291.039149,345.122707 294.156816,344.550621 Z"/>
    <use fill="#000" filter="url(#network-workgroup-512px-h)" xlink:href="#network-workgroup-512px-i"/>
    <use fill="url(#network-workgroup-512px-j)" xlink:href="#network-workgroup-512px-i"/>
  </g>
</svg>
