<svg xmlns="http://www.w3.org/2000/svg" xmlns:xlink="http://www.w3.org/1999/xlink" width="512" height="512" viewBox="0 0 512 512">
  <defs>
    <filter id="user-trash-512px-a" width="126.5%" height="126.5%" x="-13.2%" y="-13.2%" filterUnits="objectBoundingBox">
      <feOffset dy="8" in="SourceAlpha" result="shadowOffsetOuter1"/>
      <feGaussianBlur in="shadowOffsetOuter1" result="shadowBlurOuter1" stdDeviation="10"/>
      <feColorMatrix in="shadowBlurOuter1" result="shadowMatrixOuter1" values="0 0 0 0 0   0 0 0 0 0   0 0 0 0 0  0 0 0 0.2 0"/>
      <feMerge>
        <feMergeNode in="shadowMatrixOuter1"/>
        <feMergeNode in="SourceGraphic"/>
      </feMerge>
    </filter>
    <path id="user-trash-512px-b" d="M18.6746472,0 L389.325353,0 C398.139817,-2.58290325e-14 405.285353,7.14553539 405.285353,15.96 C405.285353,16.7926812 405.220188,17.6240856 405.090454,18.4465984 L351.636186,357.348114 C347.03565,386.515637 321.896997,408 292.368887,408 L115.631113,408 C86.1030026,408 60.9643497,386.515637 56.3638138,357.348114 L2.90954561,18.4465984 C1.53623523,9.73977321 7.48122361,1.56820878 16.1880488,0.194898403 C17.0105616,0.0651650785 17.841966,7.25838842e-15 18.6746472,0 Z"/>
    <filter id="user-trash-512px-c" width="156.3%" height="158.1%" x="-28.2%" y="-29%" filterUnits="objectBoundingBox">
      <feGaussianBlur in="SourceGraphic" stdDeviation="30"/>
    </filter>
    <path id="user-trash-512px-e" d="M389.042991,0 C397.857455,-1.61919088e-15 405.002991,7.14553539 405.002991,15.96 C405.002991,16.7926498 404.937831,17.6240228 404.808107,18.4465053 L404.724652,18.983336 C403.327604,11.5946779 396.837881,6.00659427 389.042991,6.00659427 L389.042991,6.00659427 L17.9593328,6.00659427 C17.1266831,6.00659427 16.29531,6.07175442 15.4728276,6.20147798 C8.63726937,7.27959571 3.50394497,12.5478284 2.27767132,18.9756269 L2.19421653,18.4465053 C0.820957599,9.73967195 6.76599426,1.56814265 15.4728276,0.194883711 C16.29531,0.0651601512 17.1266831,-5.17611524e-15 17.9593328,0 L389.042991,0 Z"/>
    <linearGradient id="user-trash-512px-f" x1="98.965%" x2="0%" y1="50%" y2="50%">
      <stop offset="0%" stop-color="#00123C" stop-opacity=".2"/>
      <stop offset="45.365%" stop-color="#00143F" stop-opacity=".5"/>
      <stop offset="100%" stop-color="#00123C" stop-opacity=".2"/>
    </linearGradient>
  </defs>
  <g fill="none" fill-rule="evenodd">
    <g filter="url(#user-trash-512px-a)" transform="translate(52 52)">
      <mask id="user-trash-512px-d" fill="#fff">
        <use xlink:href="#user-trash-512px-b"/>
      </mask>
      <use fill="#FFF" fill-opacity=".8" xlink:href="#user-trash-512px-b"/>
      <path fill="#2D4688" fill-opacity=".3" d="M67.6746472,16 L340.325353,16 C349.139817,16 356.285353,23.1455354 356.285353,31.96 C356.285353,32.7926812 356.220188,33.6240856 356.090454,34.4465984 L318.093533,275.348114 C313.492997,304.515637 288.354344,326 258.826234,326 L149.173766,326 C119.645656,326 94.5070028,304.515637 89.906467,275.348114 L51.9095456,34.4465984 C50.5362352,25.7397732 56.4812236,17.5682088 65.1880488,16.1948984 C66.0105616,16.0651651 66.841966,16 67.6746472,16 Z" filter="url(#user-trash-512px-c)" mask="url(#user-trash-512px-d)"/>
      <use fill="#FFF" fill-opacity=".8" xlink:href="#user-trash-512px-e"/>
    </g>
    <path fill="url(#user-trash-512px-f)" d="M257.482105,187.115091 C235.098947,142.057361 211.553684,178.340172 211.553684,178.340172 L193.701053,209.216712 L230.450526,230.168064 L257.482105,187.115091 Z M336.96,173.311847 L317.153684,184.255847 L309.894737,171.750766 C309.894737,171.750766 304.286316,158.73628 276.614737,160.100172 C276.614737,160.100172 242.324211,161.03682 238.753684,160.395956 C238.753684,160.395956 248.471579,162.269253 253.305263,169.61455 L275.2,207.409145 L259.2,216.216929 L312.892632,217.350766 L336.96,173.311847 Z M205.355789,282.291739 C177.583158,324.342334 221.608421,325.147523 221.608421,325.147523 L257.869474,323.98082 L257.145263,282.456064 L205.355789,282.291739 Z M152,223.233577 L171.873684,234.046118 L164.665263,246.584064 C164.665263,246.584064 156.210526,258.053902 171.789474,280.369145 C171.789474,280.369145 190.467368,308.501469 191.713684,311.804388 C191.713684,311.804388 188.294737,302.733685 192.218947,294.878983 L213.945263,256.985793 L229.995789,265.711415 L203.065263,220.390766 L152,223.233577 Z M319.528421,275.998118 C370.711579,279.153145 349.945263,241.29282 349.945263,241.29282 L331.2,210.942118 L294.416842,231.844172 L319.528421,275.998118 Z M265.246316,308.156388 L292.698947,263.115091 L292.698947,281.075739 L337.178947,281.075739 C346.122105,280.582766 352.572632,273.237469 352.572632,273.237469 C350.231579,275.899523 334.164211,305.543631 334.164211,305.543631 C321.802105,329.699307 307.418947,328.088929 307.418947,328.088929 L292.698947,328.088929 L292.698947,350.272712 L265.246316,308.156388 Z"/>
  </g>
</svg>
