<svg xmlns="http://www.w3.org/2000/svg" xmlns:xlink="http://www.w3.org/1999/xlink" width="96" height="96" viewBox="0 0 96 96">
  <defs>
    <linearGradient id="application-x-dgn-c" x1="50%" x2="50%" y1="0%" y2="100%">
      <stop offset="0%" stop-color="#3C9"/>
      <stop offset="100%" stop-color="#00AE74"/>
    </linearGradient>
    <path id="application-x-dgn-b" d="M42,0 L64,22 L64,69 C64,73.9705627 59.9705627,78 55,78 L9,78 C4.02943725,78 6.08718376e-16,73.9705627 0,69 L0,9 C-6.08718376e-16,4.02943725 4.02943725,4.46579124e-15 9,3.55271368e-15 L42,0 Z"/>
    <filter id="application-x-dgn-a" width="131.2%" height="125.6%" x="-15.6%" y="-10.3%" filterUnits="objectBoundingBox">
      <feOffset dy="2" in="SourceAlpha" result="shadowOffsetOuter1"/>
      <feGaussianBlur in="shadowOffsetOuter1" result="shadowBlurOuter1" stdDeviation="3"/>
      <feColorMatrix in="shadowBlurOuter1" values="0 0 0 0 0.262745098   0 0 0 0 0.71372549   0 0 0 0 0.607843137  0 0 0 0.5 0"/>
    </filter>
    <linearGradient id="application-x-dgn-f" x1="50%" x2="11.493%" y1="50%" y2="88.683%">
      <stop offset="0%" stop-color="#FFF" stop-opacity=".1"/>
      <stop offset="100%" stop-color="#FFF" stop-opacity=".3"/>
    </linearGradient>
    <path id="application-x-dgn-e" d="M42,0 L64,22 L51,22 C46.0294373,22 42,17.9705627 42,13 L42,0 Z"/>
    <filter id="application-x-dgn-d" width="150%" height="150%" x="-25%" y="-15.9%" filterUnits="objectBoundingBox">
      <feOffset dy="2" in="SourceAlpha" result="shadowOffsetOuter1"/>
      <feGaussianBlur in="shadowOffsetOuter1" result="shadowBlurOuter1" stdDeviation="1.5"/>
      <feComposite in="shadowBlurOuter1" in2="SourceAlpha" operator="out" result="shadowBlurOuter1"/>
      <feColorMatrix in="shadowBlurOuter1" values="0 0 0 0 0   0 0 0 0 0   0 0 0 0 0  0 0 0 0.05 0"/>
    </filter>
  </defs>
  <g fill="none" fill-rule="evenodd">
    <g transform="translate(16 10)">
      <use fill="#000" filter="url(#application-x-dgn-a)" xlink:href="#application-x-dgn-b"/>
      <use fill="url(#application-x-dgn-c)" xlink:href="#application-x-dgn-b"/>
      <use fill="#000" filter="url(#application-x-dgn-d)" xlink:href="#application-x-dgn-e"/>
      <use fill="url(#application-x-dgn-f)" xlink:href="#application-x-dgn-e"/>
    </g>
    <path fill="#2DB789" d="M40,35 L40,57 L36,57 L36,61 L32,61 L32,63 L36,63 L36,67 L40,67 L40,71 L42,71 L42,67 L46,67 L46,63 L68,63 L68,61 L46,61 L46,57 L42,57 L42,35 L40,35 L40,35 Z M38,59 L44,59 L44,65 L38,65 L38,59 L38,59 Z"/>
    <path fill="#FFF" d="M40,34 L40,56 L36,56 L36,60 L32,60 L32,62 L36,62 L36,66 L40,66 L40,70 L42,70 L42,66 L46,66 L46,62 L68,62 L68,60 L46,60 L46,56 L42,56 L42,34 L40,34 L40,34 Z M38,58 L44,58 L44,64 L38,64 L38,58 L38,58 Z"/>
  </g>
</svg>
