<svg xmlns="http://www.w3.org/2000/svg" xmlns:xlink="http://www.w3.org/1999/xlink" width="96" height="96" viewBox="0 0 96 96">
  <defs>
    <linearGradient id="application-vnd.nokia.qt.qmakeprofile-c" x1="50%" x2="50%" y1="0%" y2="98.501%">
      <stop offset="0%" stop-color="#7FCB10"/>
      <stop offset="100%" stop-color="#50A100"/>
    </linearGradient>
    <path id="application-vnd.nokia.qt.qmakeprofile-b" d="M42,0 L64,22 L64,69 C64,73.9705627 59.9705627,78 55,78 L9,78 C4.02943725,78 6.08718376e-16,73.9705627 0,69 L0,9 C-6.08718376e-16,4.02943725 4.02943725,4.46579124e-15 9,3.55271368e-15 L42,0 Z"/>
    <filter id="application-vnd.nokia.qt.qmakeprofile-a" width="131.2%" height="125.6%" x="-15.6%" y="-10.3%" filterUnits="objectBoundingBox">
      <feOffset dy="2" in="SourceAlpha" result="shadowOffsetOuter1"/>
      <feGaussianBlur in="shadowOffsetOuter1" result="shadowBlurOuter1" stdDeviation="3"/>
      <feColorMatrix in="shadowBlurOuter1" values="0 0 0 0 0.46370117   0 0 0 0 0.679376132   0 0 0 0 0  0 0 0 0.5 0"/>
    </filter>
    <linearGradient id="application-vnd.nokia.qt.qmakeprofile-f" x1="50%" x2="11.493%" y1="50%" y2="88.683%">
      <stop offset="0%" stop-color="#FFF" stop-opacity=".1"/>
      <stop offset="100%" stop-color="#FFF" stop-opacity=".3"/>
    </linearGradient>
    <path id="application-vnd.nokia.qt.qmakeprofile-e" d="M42,0 L64,22 L51,22 C46.0294373,22 42,17.9705627 42,13 L42,0 Z"/>
    <filter id="application-vnd.nokia.qt.qmakeprofile-d" width="150%" height="150%" x="-25%" y="-15.9%" filterUnits="objectBoundingBox">
      <feOffset dy="2" in="SourceAlpha" result="shadowOffsetOuter1"/>
      <feGaussianBlur in="shadowOffsetOuter1" result="shadowBlurOuter1" stdDeviation="1.5"/>
      <feComposite in="shadowBlurOuter1" in2="SourceAlpha" operator="out" result="shadowBlurOuter1"/>
      <feColorMatrix in="shadowBlurOuter1" values="0 0 0 0 0   0 0 0 0 0   0 0 0 0 0  0 0 0 0.05 0"/>
    </filter>
  </defs>
  <g fill="none" fill-rule="evenodd">
    <g transform="translate(16 10)">
      <use fill="#000" filter="url(#application-vnd.nokia.qt.qmakeprofile-a)" xlink:href="#application-vnd.nokia.qt.qmakeprofile-b"/>
      <use fill="url(#application-vnd.nokia.qt.qmakeprofile-c)" xlink:href="#application-vnd.nokia.qt.qmakeprofile-b"/>
      <use fill="#000" filter="url(#application-vnd.nokia.qt.qmakeprofile-d)" xlink:href="#application-vnd.nokia.qt.qmakeprofile-e"/>
      <use fill="url(#application-vnd.nokia.qt.qmakeprofile-f)" xlink:href="#application-vnd.nokia.qt.qmakeprofile-e"/>
    </g>
    <path fill="#FFF" d="M52.1679688 60.5507812C51.0351506 60.9023455 49.9153701 61.078125 48.8085938 61.078125 45.9439961 61.078125 44.0885459 59.5156406 43.2421875 56.390625 42.7343725 56.4817713 42.3046893 56.5273438 41.953125 56.5273438 38.880193 56.5273438 36.5332112 55.3066528 34.9121094 52.8652344 33.2910075 50.4238159 32.4804688 46.8789295 32.4804688 42.2304688 32.4804688 37.582008 33.2877523 34.0338664 34.9023438 31.5859375 36.5169352 29.1380086 38.8671721 27.9140625 41.953125 27.9140625 45.0390779 27.9140625 47.39257 29.1347534 49.0136719 31.5761719 50.6347737 34.0175903 51.4453125 37.5689871 51.4453125 42.2304688 51.4453125 49.0013359 49.7526211 53.4023336 46.3671875 55.4335938 46.8489607 57.3346449 47.7669203 58.2851562 49.1210938 58.2851562 49.8763059 58.2851562 50.7031205 58.187501 51.6015625 57.9921875L52.1679688 60.5507812zM41.953125 53.7148438C39.9609275 53.7148438 38.450526 52.7350358 37.421875 50.7753906 36.393224 48.8157454 35.8789062 45.9674666 35.8789062 42.2304688 35.8789062 38.5325336 36.3964792 35.6907651 37.4316406 33.7050781 38.4668021 31.7193911 39.9739484 30.7265625 41.953125 30.7265625 46.0156453 30.7265625 48.046875 34.5611596 48.046875 42.2304688 48.046875 49.886757 46.0156453 53.7148438 41.953125 53.7148438zM62.0940473 56.989256C61.0523755 57.1975904 60.173478 57.301756 59.4573286 57.301756 57.9208626 57.301756 56.8010821 57.0315764 56.0979536 56.4912091 55.3948251 55.9508418 54.9651419 55.2639997 54.8088911 54.4306622 54.6526403 53.5973247 54.5745161 52.4384821 54.5745161 50.9540997L54.5745161 39.020506 52.0159223 39.020506 52.0159223 36.3056622 54.5745161 36.3056622 54.5745161 31.1494122 58.0901411 29.020506 58.0901411 36.3056622 61.6057661 36.3056622 61.6057661 39.020506 58.0901411 39.020506 58.0901411 51.1494122C58.0901411 52.1910841 58.1975619 52.930009 58.4124067 53.3662091 58.6272515 53.8024092 59.1708659 54.020506 60.0432661 54.020506 60.5510811 54.020506 61.0719093 53.9684232 61.6057661 53.864256L62.0940473 56.989256zM48 84L49.9543974 84 49.9543974 78.5999985C49.9543974 78.5999985 51 80 53 80 55 80 58 79 58 75.1198928 58 73.6007962 57.5620746 72.3677207 56.6862106 71.4206296 55.8103467 70.4735385 54.6196239 70 53.1140065 70 51.6518204 70 50.6854904 70.5935188 49.9543974 71.5999985L49.9543974 70 48 70 48 84zM53.03125 78C53.9131989 78 54.6284695 77.751525 55.1770833 77.2545676 55.7256972 76.7576102 56 76.0292374 56 75.0694275 56 74.1632111 55.7152806 73.4250942 55.1458333 72.8550548 54.576386 72.2850154 53.8437545 72 52.9479167 72 52.0868013 72 51.3802111 72.2557831 50.828125 72.7673569 50.2760389 73.2789307 50 74.0097395 50 74.9598051 50 75.6272871 50.1284709 76.1875739 50.3854167 76.6406821 50.6423624 77.0937903 51.0069421 77.4336164 51.4791667 77.6601705 51.9513913 77.8867246 52.4687472 78 53.03125 78zM66 70.5253456L65.3564014 72.0552995C64.8927312 71.815667 64.4394486 71.6958525 63.9965398 71.6958525 63.2975744 71.6958525 62.7681679 71.9738835 62.4083045 72.5299539 62.0484411 73.0860243 61.8685121 73.8648183 61.8685121 74.8663594L61.8685121 80 60 80 60 70 61.7024221 70 61.7024221 71.6958525 61.7439446 71.6958525C62.3391033 70.5652785 63.1176422 70 64.0795848 70 64.7162662 70 65.3563982 70.1751135 66 70.5253456zM71 80C68.2385763 80 66 77.7614237 66 75 66 72.2385763 68.2385763 70 71 70 73.7614237 70 76 72.2385763 76 75 76 77.7614237 73.7614237 80 71 80zM71 78C72.6568542 78 74 76.6568542 74 75 74 73.3431458 72.6568542 72 71 72 69.3431458 72 68 73.3431458 68 75 68 76.6568542 69.3431458 78 71 78z"/>
  </g>
</svg>
