<svg xmlns="http://www.w3.org/2000/svg" xmlns:xlink="http://www.w3.org/1999/xlink" width="96" height="96" viewBox="0 0 96 96">
  <defs>
    <linearGradient id="application-x-7zip-c" x1="50%" x2="50%" y1="0%" y2="100%">
      <stop offset="0%" stop-color="#5C42B1"/>
      <stop offset="99.345%" stop-color="#3E1888"/>
    </linearGradient>
    <path id="application-x-7zip-b" d="M42,0 L64,22 L64,69 C64,73.9705627 59.9705627,78 55,78 L9,78 C4.02943725,78 6.08718376e-16,73.9705627 0,69 L0,9 C-6.08718376e-16,4.02943725 4.02943725,4.46579124e-15 9,3.55271368e-15 L42,0 Z"/>
    <filter id="application-x-7zip-a" width="131.2%" height="125.6%" x="-15.6%" y="-10.3%" filterUnits="objectBoundingBox">
      <feOffset dy="2" in="SourceAlpha" result="shadowOffsetOuter1"/>
      <feGaussianBlur in="shadowOffsetOuter1" result="shadowBlurOuter1" stdDeviation="3"/>
      <feColorMatrix in="shadowBlurOuter1" values="0 0 0 0 0.241013895   0 0 0 0 0   0 0 0 0 0.621603261  0 0 0 0.5 0"/>
    </filter>
    <linearGradient id="application-x-7zip-f" x1="50%" x2="11.493%" y1="50%" y2="88.683%">
      <stop offset="0%" stop-color="#FFF" stop-opacity=".1"/>
      <stop offset="100%" stop-color="#FFF" stop-opacity=".3"/>
    </linearGradient>
    <path id="application-x-7zip-e" d="M42,0 L64,22 L51,22 C46.0294373,22 42,17.9705627 42,13 L42,0 Z"/>
    <filter id="application-x-7zip-d" width="150%" height="150%" x="-25%" y="-15.9%" filterUnits="objectBoundingBox">
      <feOffset dy="2" in="SourceAlpha" result="shadowOffsetOuter1"/>
      <feGaussianBlur in="shadowOffsetOuter1" result="shadowBlurOuter1" stdDeviation="1.5"/>
      <feComposite in="shadowBlurOuter1" in2="SourceAlpha" operator="out" result="shadowBlurOuter1"/>
      <feColorMatrix in="shadowBlurOuter1" values="0 0 0 0 0   0 0 0 0 0   0 0 0 0 0  0 0 0 0.05 0"/>
    </filter>
  </defs>
  <g fill="none" fill-rule="evenodd">
    <g transform="translate(16 10)">
      <use fill="#000" filter="url(#application-x-7zip-a)" xlink:href="#application-x-7zip-b"/>
      <use fill="url(#application-x-7zip-c)" xlink:href="#application-x-7zip-b"/>
      <use fill="#000" filter="url(#application-x-7zip-d)" xlink:href="#application-x-7zip-e"/>
      <use fill="url(#application-x-7zip-f)" xlink:href="#application-x-7zip-e"/>
    </g>
    <path fill="#FFF8F8" fill-opacity=".5" d="M43,50 L49,50 L49,46 L43,46 L43,43 L53,43 L53,53 L43,53 L43,50 Z M39,43 L39,53 L16,53 L16,43 L39,43 Z M57,43 L80,43 L80,53 L57,53 L57,43 Z"/>
    <path fill="#FFF" d="M41.5 40L54.5 40C55.3284271 40 56 40.6715729 56 41.5L56 54.5C56 55.3284271 55.3284271 56 54.5 56L41.5 56C40.6715729 56 40 55.3284271 40 54.5L40 41.5C40 40.6715729 40.6715729 40 41.5 40zM42 42L42 54 54 54 54 42 42 42zM42 47L48 47 48 49 42 49 42 47zM36 61L48 61 48 63 40 78 38 78 46 63 36 63 36 61zM48 64L58 64 58 66.5 50.5 76 58 76 58 78 48 78 48 76 56 66 48 66 48 64z"/>
  </g>
</svg>
