<svg xmlns="http://www.w3.org/2000/svg" xmlns:xlink="http://www.w3.org/1999/xlink" width="96" height="96" viewBox="0 0 96 96">
  <defs>
    <linearGradient id="application-vnd.sun.xml.impress.template-c" x1="50%" x2="50%" y1="0%" y2="99.372%">
      <stop offset="0%" stop-color="#FFBC2A"/>
      <stop offset="100%" stop-color="#E77B00"/>
    </linearGradient>
    <path id="application-vnd.sun.xml.impress.template-b" d="M42,0 L64,22 L64,69 C64,73.9705627 59.9705627,78 55,78 L9,78 C4.02943725,78 6.08718376e-16,73.9705627 0,69 L0,9 C-6.08718376e-16,4.02943725 4.02943725,4.46579124e-15 9,3.55271368e-15 L42,0 Z"/>
    <filter id="application-vnd.sun.xml.impress.template-a" width="131.2%" height="125.6%" x="-15.6%" y="-10.3%" filterUnits="objectBoundingBox">
      <feOffset dy="2" in="SourceAlpha" result="shadowOffsetOuter1"/>
      <feGaussianBlur in="shadowOffsetOuter1" result="shadowBlurOuter1" stdDeviation="3"/>
      <feColorMatrix in="shadowBlurOuter1" values="0 0 0 0 0.874509804   0 0 0 0 0.498039216   0 0 0 0 0.0588235294  0 0 0 0.5 0"/>
    </filter>
    <linearGradient id="application-vnd.sun.xml.impress.template-f" x1="50%" x2="11.493%" y1="50%" y2="88.683%">
      <stop offset="0%" stop-color="#FFF" stop-opacity=".1"/>
      <stop offset="100%" stop-color="#FFF" stop-opacity=".3"/>
    </linearGradient>
    <path id="application-vnd.sun.xml.impress.template-e" d="M42,0 L64,22 L51,22 C46.0294373,22 42,17.9705627 42,13 L42,0 Z"/>
    <filter id="application-vnd.sun.xml.impress.template-d" width="150%" height="150%" x="-25%" y="-15.9%" filterUnits="objectBoundingBox">
      <feOffset dy="2" in="SourceAlpha" result="shadowOffsetOuter1"/>
      <feGaussianBlur in="shadowOffsetOuter1" result="shadowBlurOuter1" stdDeviation="1.5"/>
      <feComposite in="shadowBlurOuter1" in2="SourceAlpha" operator="out" result="shadowBlurOuter1"/>
      <feColorMatrix in="shadowBlurOuter1" values="0 0 0 0 0   0 0 0 0 0   0 0 0 0 0  0 0 0 0.05 0"/>
    </filter>
  </defs>
  <g fill="none" fill-rule="evenodd">
    <g transform="translate(16 10)">
      <use fill="#000" filter="url(#application-vnd.sun.xml.impress.template-a)" xlink:href="#application-vnd.sun.xml.impress.template-b"/>
      <use fill="url(#application-vnd.sun.xml.impress.template-c)" xlink:href="#application-vnd.sun.xml.impress.template-b"/>
      <use fill="#000" filter="url(#application-vnd.sun.xml.impress.template-d)" xlink:href="#application-vnd.sun.xml.impress.template-e"/>
      <use fill="url(#application-vnd.sun.xml.impress.template-f)" xlink:href="#application-vnd.sun.xml.impress.template-e"/>
    </g>
    <path fill="#FFF" d="M44,34 L44,66 L52,66 L52,34 L44,34 L44,34 Z M32,50 L32,66 L40,66 L40,50 L32,50 L32,50 Z M56,58 L56,66 L64,66 L64,58 L56,58 L56,58 Z M30,68 L30,70 L66,70 L66,68 L30,68 L30,68 Z"/>
  </g>
</svg>
