<svg xmlns="http://www.w3.org/2000/svg" xmlns:xlink="http://www.w3.org/1999/xlink" width="96" height="96" viewBox="0 0 96 96">
  <defs>
    <linearGradient id="audio-x-wav-c" x1="50%" x2="50%" y1="0%" y2="100%">
      <stop offset="0%" stop-color="#B7EE43"/>
      <stop offset="100%" stop-color="#6AD500"/>
    </linearGradient>
    <path id="audio-x-wav-b" d="M43.5,0 L63,19.5 L63,71.25 C63,74.9779221 59.9779221,78 56.25,78 L6.75,78 C3.02207794,78 4.56538782e-16,74.9779221 0,71.25 L0,6.75 C-4.56538782e-16,3.02207794 3.02207794,6.84808173e-16 6.75,0 L43.5,0 Z"/>
    <filter id="audio-x-wav-a" width="131.7%" height="125.6%" x="-15.9%" y="-10.3%" filterUnits="objectBoundingBox">
      <feOffset dy="2" in="SourceAlpha" result="shadowOffsetOuter1"/>
      <feGaussianBlur in="shadowOffsetOuter1" result="shadowBlurOuter1" stdDeviation="3"/>
      <feColorMatrix in="shadowBlurOuter1" values="0 0 0 0 0.505882353   0 0 0 0 0.741176471   0 0 0 0 0  0 0 0 0.5 0"/>
    </filter>
    <linearGradient id="audio-x-wav-f" x1="50%" x2="10.489%" y1="50%" y2="91.194%">
      <stop offset="0%" stop-color="#FFF" stop-opacity=".1"/>
      <stop offset="100%" stop-color="#FFF" stop-opacity=".3"/>
    </linearGradient>
    <path id="audio-x-wav-e" d="M43.5,0 L63,19.5 L50.25,19.5 C46.5220779,19.5 43.5,16.4779221 43.5,12.75 L43.5,0 Z"/>
    <filter id="audio-x-wav-d" width="156.4%" height="156.4%" x="-28.2%" y="-17.9%" filterUnits="objectBoundingBox">
      <feOffset dy="2" in="SourceAlpha" result="shadowOffsetOuter1"/>
      <feGaussianBlur in="shadowOffsetOuter1" result="shadowBlurOuter1" stdDeviation="1.5"/>
      <feComposite in="shadowBlurOuter1" in2="SourceAlpha" operator="out" result="shadowBlurOuter1"/>
      <feColorMatrix in="shadowBlurOuter1" values="0 0 0 0 0   0 0 0 0 0   0 0 0 0 0  0 0 0 0.05 0"/>
    </filter>
  </defs>
  <g fill="none" fill-rule="evenodd">
    <g transform="translate(16.5 10.5)">
      <use fill="#000" filter="url(#audio-x-wav-a)" xlink:href="#audio-x-wav-b"/>
      <use fill="url(#audio-x-wav-c)" xlink:href="#audio-x-wav-b"/>
      <use fill="#000" filter="url(#audio-x-wav-d)" xlink:href="#audio-x-wav-e"/>
      <use fill="url(#audio-x-wav-f)" xlink:href="#audio-x-wav-e"/>
    </g>
    <path fill="#FFF" d="M46.5,81 L48.0749989,81 L48.6000023,79.5 L53.3999977,79.5 L53.9250011,81 L55.5,81 L51.8079552,70.5 L50.25,70.5 L46.5,81 Z M49.0500011,78 L51,72.4499989 L52.9499989,78 L49.0500011,78 Z M54,70.5 L55.5749989,70.5 L58.5,78.75 L61.4250011,70.5 L63,70.5 L59.3079552,81 L57.75,81 L54,70.5 Z M40.5,70.5 L42,70.5 L43.5,77.25 L46.125,70.5 L48,70.5 L44.0999994,81 L43.0500011,81 L41.25,75 L39.4499989,81 L38.4000006,81 L34.5,70.5 L36.5625,70.5 L39,77.25 L40.5,70.5 Z M30,48 C30,38.0748 38.0748,30 48,30 C57.9252,30 66,38.0748 66,48 C66,57.9252 57.9252,66 48,66 C38.0748,66 30,57.9252 30,48 Z M31.8,48 C31.8,56.9334 39.0684,64.2 48,64.2 C56.9316,64.2 64.2,56.9334 64.2,48 C64.2,39.0666 56.9316,31.8 48,31.8 C39.0684,31.8 31.8,39.0666 31.8,48 Z M50.1954718,36.5545349 C50.1954718,37.0905349 50.6714718,38.3345349 53.3054718,39.9765349 C53.3054718,39.9765349 56.7454718,41.8345349 57.7214718,45.1905349 C57.7214718,45.1905349 58.7934718,48.1845349 57.0454718,51.9625349 C57.0454718,51.9625349 56.8794718,52.3105349 56.5154718,52.1645349 C56.2274718,52.0485349 56.3254718,51.6825349 56.3254718,51.6825349 C56.3254718,51.6825349 57.5034718,48.7385349 56.5234718,46.3525349 C56.5234718,46.3525349 55.6194718,43.0745349 50.0334718,41.5865349 C50.0334718,41.5865349 50.0054718,54.4925349 49.9854718,54.5925349 C49.9634718,56.4965349 48.3814718,58.4965349 45.9514718,59.4425349 C42.9854718,60.5965349 39.8854718,59.7425349 39.0254718,57.5365349 C38.1654718,55.3285349 39.8354718,52.4845349 42.8454718,51.4465349 C44.8894718,50.7425349 46.6754718,50.7925349 48.0594718,51.5105349 L48.0954718,36.1965349 C48.0974718,35.4825349 48.5814718,34.9025349 49.1274718,34.9005349 C49.6754718,34.8985349 50.1954718,35.4745349 50.1954718,36.1885349 L50.1954718,36.5545349 Z"/>
  </g>
</svg>
