<svg xmlns="http://www.w3.org/2000/svg" xmlns:xlink="http://www.w3.org/1999/xlink" width="96" height="96" viewBox="0 0 96 96">
  <defs>
    <linearGradient id="phatch-actionlist-c" x1="50%" x2="50%" y1="0%" y2="98.501%">
      <stop offset="0%" stop-color="#10CB17"/>
      <stop offset="100%" stop-color="#1FA100"/>
    </linearGradient>
    <path id="phatch-actionlist-b" d="M42,0 L64,22 L64,69 C64,73.9705627 59.9705627,78 55,78 L9,78 C4.02943725,78 6.08718376e-16,73.9705627 0,69 L0,9 C-6.08718376e-16,4.02943725 4.02943725,4.46579124e-15 9,3.55271368e-15 L42,0 Z"/>
    <filter id="phatch-actionlist-a" width="131.2%" height="125.6%" x="-15.6%" y="-10.3%" filterUnits="objectBoundingBox">
      <feOffset dy="2" in="SourceAlpha" result="shadowOffsetOuter1"/>
      <feGaussianBlur in="shadowOffsetOuter1" result="shadowBlurOuter1" stdDeviation="3"/>
      <feColorMatrix in="shadowBlurOuter1" values="0 0 0 0 0   0 0 0 0 0.679376132   0 0 0 0 0.0411248227  0 0 0 0.5 0"/>
    </filter>
    <linearGradient id="phatch-actionlist-f" x1="50%" x2="11.493%" y1="50%" y2="88.683%">
      <stop offset="0%" stop-color="#FFF" stop-opacity=".1"/>
      <stop offset="100%" stop-color="#FFF" stop-opacity=".3"/>
    </linearGradient>
    <path id="phatch-actionlist-e" d="M42,0 L64,22 L51,22 C46.0294373,22 42,17.9705627 42,13 L42,0 Z"/>
    <filter id="phatch-actionlist-d" width="150%" height="150%" x="-25%" y="-15.9%" filterUnits="objectBoundingBox">
      <feOffset dy="2" in="SourceAlpha" result="shadowOffsetOuter1"/>
      <feGaussianBlur in="shadowOffsetOuter1" result="shadowBlurOuter1" stdDeviation="1.5"/>
      <feComposite in="shadowBlurOuter1" in2="SourceAlpha" operator="out" result="shadowBlurOuter1"/>
      <feColorMatrix in="shadowBlurOuter1" values="0 0 0 0 0   0 0 0 0 0   0 0 0 0 0  0 0 0 0.05 0"/>
    </filter>
  </defs>
  <g fill="none" fill-rule="evenodd">
    <g transform="translate(16 10)">
      <use fill="#000" filter="url(#phatch-actionlist-a)" xlink:href="#phatch-actionlist-b"/>
      <use fill="url(#phatch-actionlist-c)" xlink:href="#phatch-actionlist-b"/>
      <use fill="#000" filter="url(#phatch-actionlist-d)" xlink:href="#phatch-actionlist-e"/>
      <use fill="url(#phatch-actionlist-f)" xlink:href="#phatch-actionlist-e"/>
    </g>
    <path fill="#FFF" d="M45.7375667,63.0001289 C34.0289918,63.0001289 24,55.0001289 24,55.0001289 C24.2225065,53.9921686 30.2096368,39.275066 45.7375667,39.0034769 C60.1828958,38.7508049 70.2502989,52.345695 72,55.0001289 C69,58.0001289 57.4461423,63.0001289 45.7375667,63.0001289 Z M46.00677,41.0001289 C45.4271419,41.0001289 44.8532644,41.0543601 44.3006081,41.1489764 L44.3006081,43.2734683 C43.3897788,43.4756933 42.545325,43.843062 41.7819925,44.3289476 L40.2654012,42.8133889 C39.3182431,43.4774251 38.4950431,44.3045101 37.8280288,45.2491126 L39.3446187,46.764672 C38.8584044,47.5274995 38.4907762,48.3713764 38.288425,49.2815895 L36.1489475,49.2815895 C36.0515431,49.8415176 36,50.4123701 36,51.0001289 C36,51.5879001 36.0515438,52.172262 36.1489475,52.7321958 L38.288425,52.7321958 C38.4907762,53.6424201 38.8584044,54.4863014 39.3446188,55.2491126 L37.8280288,56.7646726 C38.4961144,57.7107814 39.3298856,58.522292 40.2789425,59.1868701 L41.7819925,57.684837 C42.545325,58.170712 43.3897787,58.538102 44.3006081,58.7403164 L44.3006081,60.8512764 C44.8532644,60.9458858 45.4271363,61.0001289 46.00677,61.0001289 C46.6027613,61.0001233 47.1861938,60.9511914 47.7535569,60.8512764 L47.7535569,58.7403164 C48.6643856,58.538102 49.5088394,58.1707283 50.2721719,57.684837 L51.7481394,59.1733326 C52.6948887,58.5057089 53.5340262,57.6860289 54.1990531,56.7376139 L52.7095506,55.2491126 C53.19576,54.4862914 53.5633825,53.6424201 53.7657394,52.7321958 L55.8510513,52.7321958 C55.9484562,52.1722664 56,51.5878839 56,51.0001289 C56,50.4123858 55.9484437,49.8415233 55.8510512,49.2815895 L53.7657394,49.2815895 C53.5633825,48.3713645 53.19576,47.5274889 52.7095506,46.764672 L54.1990531,45.2761764 C53.5350088,44.329157 52.7066688,43.4940308 51.761675,42.8269208 L50.2721719,44.3289476 C49.5088394,43.8430676 48.6643856,43.4756883 47.7535569,43.2734683 L47.7535569,41.1625089 C47.1861938,41.0625983 46.6027613,41.0001289 46.00677,41.0001289 Z M45.9932262,46.399317 C48.535645,46.3993283 50.6106944,48.4594308 50.6106944,51.0001289 C50.6106944,53.5408326 48.535645,55.6009414 45.9932262,55.6009414 C43.4508075,55.6009526 41.3892994,53.5408276 41.3892994,51.0001289 C41.3892994,48.4594426 43.4508075,46.399317 45.9932262,46.399317 Z"/>
  </g>
</svg>
