<svg xmlns="http://www.w3.org/2000/svg" xmlns:xlink="http://www.w3.org/1999/xlink" width="96" height="96" viewBox="0 0 96 96">
  <defs>
    <linearGradient id="x-media-podcast-c" x1="50%" x2="50%" y1="0%" y2="100%">
      <stop offset="0%" stop-color="#5C42B1"/>
      <stop offset="99.345%" stop-color="#3E1888"/>
    </linearGradient>
    <path id="x-media-podcast-b" d="M42,0 L64,22 L64,69 C64,73.9705627 59.9705627,78 55,78 L9,78 C4.02943725,78 6.08718376e-16,73.9705627 0,69 L0,9 C-6.08718376e-16,4.02943725 4.02943725,4.46579124e-15 9,3.55271368e-15 L42,0 Z"/>
    <filter id="x-media-podcast-a" width="131.2%" height="125.6%" x="-15.6%" y="-10.3%" filterUnits="objectBoundingBox">
      <feOffset dy="2" in="SourceAlpha" result="shadowOffsetOuter1"/>
      <feGaussianBlur in="shadowOffsetOuter1" result="shadowBlurOuter1" stdDeviation="3"/>
      <feColorMatrix in="shadowBlurOuter1" values="0 0 0 0 0.241013895   0 0 0 0 0   0 0 0 0 0.621603261  0 0 0 0.5 0"/>
    </filter>
    <linearGradient id="x-media-podcast-f" x1="50%" x2="11.493%" y1="50%" y2="88.683%">
      <stop offset="0%" stop-color="#FFF" stop-opacity=".1"/>
      <stop offset="100%" stop-color="#FFF" stop-opacity=".3"/>
    </linearGradient>
    <path id="x-media-podcast-e" d="M42,0 L64,22 L51,22 C46.0294373,22 42,17.9705627 42,13 L42,0 Z"/>
    <filter id="x-media-podcast-d" width="150%" height="150%" x="-25%" y="-15.9%" filterUnits="objectBoundingBox">
      <feOffset dy="2" in="SourceAlpha" result="shadowOffsetOuter1"/>
      <feGaussianBlur in="shadowOffsetOuter1" result="shadowBlurOuter1" stdDeviation="1.5"/>
      <feComposite in="shadowBlurOuter1" in2="SourceAlpha" operator="out" result="shadowBlurOuter1"/>
      <feColorMatrix in="shadowBlurOuter1" values="0 0 0 0 0   0 0 0 0 0   0 0 0 0 0  0 0 0 0.05 0"/>
    </filter>
  </defs>
  <g fill="none" fill-rule="evenodd">
    <g transform="translate(16 10)">
      <use fill="#000" filter="url(#x-media-podcast-a)" xlink:href="#x-media-podcast-b"/>
      <use fill="url(#x-media-podcast-c)" xlink:href="#x-media-podcast-b"/>
      <use fill="#000" filter="url(#x-media-podcast-d)" xlink:href="#x-media-podcast-e"/>
      <use fill="url(#x-media-podcast-f)" xlink:href="#x-media-podcast-e"/>
    </g>
    <path fill="#FFF" d="M48,32 C39.136,32 32,39.136 32,48 C32,53.942732 35.214676,59.095842 40,61.855468 L40,59.496094 C36.370928,56.97148 34,52.774984 34,48 C34,40.244 40.244,34 48,34 C55.756,34 62,40.244 62,48 C62,52.774984 59.629072,56.97148 56,59.496094 L56,61.855468 C60.785324,59.095842 64,53.942732 64,48 C64,39.136 56.864,32 48,32 L48,32 Z M48,37.80078 C42.46,37.80078 38,42.26078 38,47.80078 C38,50.506662 39.074472,52.94543 40.808594,54.742186 C41.113408,54.10696 41.502912,53.527882 41.957032,53 C40.753158,51.600578 40,49.80003 40,47.80078 C40,43.36878 43.568,39.80078 48,39.80078 C52.432,39.80078 56,43.36878 56,47.80078 C56,49.80003 55.246842,51.600578 54.042968,53 C54.497088,53.527882 54.886592,54.10696 55.191406,54.742186 C56.925528,52.94543 58,50.506662 58,47.80078 C58,42.26078 53.54,37.80078 48,37.80078 L48,37.80078 Z M48,42.199218 C45.784,42.199218 44,43.983218 44,46.199218 C44,48.415218 45.784,50.199218 48,50.199218 C50.216,50.199218 52,48.415218 52,46.199218 C52,43.983218 50.216,42.199218 48,42.199218 L48,42.199218 Z M48,52.199218 C43.568,52.199218 41.359782,55.789214 41.800782,60.199218 L42.601562,68.199218 L53.332032,68.199218 L54,60.199218 C54.368058,55.782528 52.432,52.199218 48,52.199218 L48,52.199218 Z"/>
  </g>
</svg>
