<?xml version="1.0" encoding="UTF-8"?>
<svg width="48px" height="48px" viewBox="0 0 48 48" version="1.1" xmlns="http://www.w3.org/2000/svg" xmlns:xlink="http://www.w3.org/1999/xlink">
    <title>status/48/refresh-reminder</title>
    <defs>
        <filter x="-8.0%" y="-5.7%" width="115.9%" height="115.9%" filterUnits="objectBoundingBox" id="filter-1">
            <feOffset dx="0" dy="1" in="SourceAlpha" result="shadowOffsetOuter1"></feOffset>
            <feGaussianBlur stdDeviation="1" in="shadowOffsetOuter1" result="shadowBlurOuter1"></feGaussianBlur>
            <feColorMatrix values="0 0 0 0 0   0 0 0 0 0   0 0 0 0 0  0 0 0 0.2 0" type="matrix" in="shadowBlurOuter1" result="shadowMatrixOuter1"></feColorMatrix>
            <feMerge>
                <feMergeNode in="shadowMatrixOuter1"></feMergeNode>
                <feMergeNode in="SourceGraphic"></feMergeNode>
            </feMerge>
        </filter>
        <linearGradient x1="50%" y1="0%" x2="50%" y2="100%" id="linearGradient-2">
            <stop stop-color="#FADA00" offset="0%"></stop>
            <stop stop-color="#F38C00" offset="100%"></stop>
        </linearGradient>
        <linearGradient x1="50%" y1="0%" x2="50%" y2="100%" id="linearGradient-3">
            <stop stop-color="#000000" stop-opacity="0.05" offset="0%"></stop>
            <stop stop-color="#000000" stop-opacity="0.1" offset="100%"></stop>
        </linearGradient>
    </defs>
    <g id="status/48/refresh-reminder" stroke="none" stroke-width="1" fill="none" fill-rule="evenodd">
        <g id="编组" filter="url(#filter-1)" transform="translate(2, 2)">
            <circle id="椭圆形" fill="url(#linearGradient-2)" fill-rule="nonzero" cx="22" cy="22" r="22"></circle>
            <path d="M22,0 C34.1502645,0 44,9.8497355 44,22 C44,34.1502645 34.1502645,44 22,44 C9.8497355,44 0,34.1502645 0,22 C0,9.8497355 9.8497355,0 22,0 Z M22,1 C10.4020203,1 1,10.4020203 1,22 C1,33.5979797 10.4020203,43 22,43 C33.5979797,43 43,33.5979797 43,22 C43,10.4020203 33.5979797,1 22,1 Z" id="椭圆形" fill="url(#linearGradient-3)" fill-rule="nonzero"></path>
            <path d="M33.4052011,16.0084225 C31.3271985,11.9729176 27.1201695,9.21296296 22.2685185,9.21296296 C15.3547317,9.21296296 9.75,14.8176946 9.75,21.7314815 C9.75,28.6452683 15.3547317,34.25 22.2685185,34.25 C26.3709737,34.25 30.0125215,32.2766208 32.2957018,29.2273225 C32.6196303,28.7947003 32.9162165,28.3404211 33.1828974,27.8670478" id="路径" stroke="#FFFFFF" stroke-width="2" stroke-linecap="round" stroke-linejoin="round"></path>
            <path d="M36,8 C36,8 36,11.3333333 36,18 L26,18 C32.6666667,11.3333333 36,8 36,8 Z" id="路径-14" fill="#FFFFFF"></path>
        </g>
    </g>
</svg>