<?xml version="1.0" encoding="UTF-8"?>
<svg width="48px" height="48px" viewBox="0 0 48 48" version="1.1" xmlns="http://www.w3.org/2000/svg" xmlns:xlink="http://www.w3.org/1999/xlink">
    <title>status/48/shutdown-symbolic-reminder</title>
    <defs>
        <filter x="-8.0%" y="-5.7%" width="115.9%" height="115.9%" filterUnits="objectBoundingBox" id="filter-1">
            <feOffset dx="0" dy="1" in="SourceAlpha" result="shadowOffsetOuter1"></feOffset>
            <feGaussianBlur stdDeviation="1" in="shadowOffsetOuter1" result="shadowBlurOuter1"></feGaussianBlur>
            <feColorMatrix values="0 0 0 0 0   0 0 0 0 0   0 0 0 0 0  0 0 0 0.2 0" type="matrix" in="shadowBlurOuter1" result="shadowMatrixOuter1"></feColorMatrix>
            <feMerge>
                <feMergeNode in="shadowMatrixOuter1"></feMergeNode>
                <feMergeNode in="SourceGraphic"></feMergeNode>
            </feMerge>
        </filter>
        <linearGradient x1="50%" y1="5.7220213%" x2="50%" y2="97.4663365%" id="linearGradient-2">
            <stop stop-color="#FF9C78" offset="0%"></stop>
            <stop stop-color="#CE032B" offset="100%"></stop>
        </linearGradient>
        <linearGradient x1="50%" y1="0%" x2="50%" y2="100%" id="linearGradient-3">
            <stop stop-color="#000000" stop-opacity="0.05" offset="0%"></stop>
            <stop stop-color="#000000" stop-opacity="0.1" offset="100%"></stop>
        </linearGradient>
    </defs>
    <g id="status/48/shutdown-symbolic-reminder" stroke="none" stroke-width="1" fill="none" fill-rule="evenodd">
        <g id="编组" filter="url(#filter-1)" transform="translate(2, 2)">
            <circle id="椭圆形" fill="url(#linearGradient-2)" fill-rule="nonzero" cx="22" cy="22" r="22"></circle>
            <path d="M22,2.2664608e-09 C34.1502645,2.2664608e-09 44,9.84973551 44,22 C44,34.1502645 34.1502645,44 22,44 C9.8497355,44 4.27917257e-10,34.1502645 4.27917257e-10,22 C4.27917257e-10,9.84973551 9.8497355,2.2664608e-09 22,2.2664608e-09 Z M22,1 C10.4020203,1 1,10.4020203 1,22 C1,33.5979797 10.4020203,43 22,43 C33.5979797,43 43,33.5979797 43,22 C43,10.4020203 33.5979797,1 22,1 Z" id="椭圆形" fill="url(#linearGradient-3)" fill-rule="nonzero"></path>
            <path d="M14.6021013,10.4065014 C10.8480083,12.8355231 8.36363636,17.0594516 8.36363636,21.8636364 C8.36363636,29.394792 14.4688443,35.5 22,35.5 C29.5311557,35.5 35.6363636,29.394792 35.6363636,21.8636364 C35.6363636,17.0287669 33.1201546,12.7815896 29.3258105,10.3601782" id="路径" stroke="#FFFFFF" stroke-width="2" stroke-linecap="round" stroke-linejoin="round"></path>
            <rect id="矩形" fill="#FFFFFF" x="21" y="6" width="3" height="17" rx="1.5"></rect>
        </g>
    </g>
</svg>