<svg xmlns="http://www.w3.org/2000/svg" xmlns:xlink="http://www.w3.org/1999/xlink" width="128" height="128" viewBox="0 0 128 128">
  <defs>
    <filter id="folder-images-stack-128px-a" width="128.8%" height="133.3%" x="-14.4%" y="-16.7%" filterUnits="objectBoundingBox">
      <feOffset dy="2" in="SourceAlpha" result="shadowOffsetOuter1"/>
      <feGaussianBlur in="shadowOffsetOuter1" result="shadowBlurOuter1" stdDeviation="3"/>
      <feComposite in="shadowBlurOuter1" in2="SourceAlpha" operator="out" result="shadowBlurOuter1"/>
      <feColorMatrix in="shadowBlurOuter1" result="shadowMatrixOuter1" values="0 0 0 0 0   0 0 0 0 0   0 0 0 0 0  0 0 0 0.2 0"/>
      <feMerge>
        <feMergeNode in="shadowMatrixOuter1"/>
        <feMergeNode in="SourceGraphic"/>
      </feMerge>
    </filter>
    <linearGradient id="folder-images-stack-128px-d" x1="50%" x2="50%" y1="0%" y2="11.796%">
      <stop offset="0%" stop-color="#FFF"/>
      <stop offset="100%" stop-color="#CEF5FF"/>
    </linearGradient>
    <rect id="folder-images-stack-128px-c" width="101" height="41.5" x="5" y="16" rx="9"/>
    <filter id="folder-images-stack-128px-b" width="108.9%" height="121.7%" x="-4.5%" y="-10.8%" filterUnits="objectBoundingBox">
      <feOffset in="SourceAlpha" result="shadowOffsetOuter1"/>
      <feGaussianBlur in="shadowOffsetOuter1" result="shadowBlurOuter1" stdDeviation="1.5"/>
      <feColorMatrix in="shadowBlurOuter1" values="0 0 0 0 0   0 0 0 0 0   0 0 0 0 0  0 0 0 0.2 0"/>
    </filter>
    <filter id="folder-images-stack-128px-e" width="106.9%" height="116.9%" x="-3.5%" y="-8.4%" filterUnits="objectBoundingBox">
      <feOffset dy="1" in="SourceAlpha" result="shadowOffsetInner1"/>
      <feComposite in="shadowOffsetInner1" in2="SourceAlpha" k2="-1" k3="1" operator="arithmetic" result="shadowInnerInner1"/>
      <feColorMatrix in="shadowInnerInner1" values="0 0 0 0 1   0 0 0 0 1   0 0 0 0 1  0 0 0 0.5 0"/>
    </filter>
    <linearGradient id="folder-images-stack-128px-g" x1="50%" x2="50%" y1="0%" y2="100%">
      <stop offset="0%" stop-color="#1850D2"/>
      <stop offset="100%" stop-color="#8BC5FF"/>
    </linearGradient>
    <path id="folder-images-stack-128px-f" d="M0,0 L111,0 L111,59 C111,66.7319865 104.731986,73 97,73 L14,73 C6.2680135,73 9.46895252e-16,66.7319865 0,59 L0,0 Z"/>
    <linearGradient id="folder-images-stack-128px-i" x1="50%" x2="50%" y1="20.953%" y2="100%">
      <stop offset="0%" stop-color="#0E3BAC"/>
      <stop offset="100%" stop-color="#1A0570"/>
    </linearGradient>
    <path id="folder-images-stack-128px-j" d="M7.46638307e-11,70.5 C16.7949971,65 15.801689,42.2264012 31.4000015,44 C46.9983141,45.7735988 51.1665877,47.9384851 58,44 C64.8334123,40.0615149 68,28.4720681 82,30.8514187 C96,33.2307692 109.025348,46.0337566 117.025348,50.2662873 L110,70.5 L7.46638307e-11,70.5 Z"/>
    <filter id="folder-images-stack-128px-k" width="110.3%" height="130%" x="-5.1%" y="-15%" filterUnits="objectBoundingBox">
      <feGaussianBlur in="SourceAlpha" result="shadowBlurInner1" stdDeviation="3"/>
      <feOffset dy="6" in="shadowBlurInner1" result="shadowOffsetInner1"/>
      <feComposite in="shadowOffsetInner1" in2="SourceAlpha" k2="-1" k3="1" operator="arithmetic" result="shadowInnerInner1"/>
      <feColorMatrix in="shadowInnerInner1" values="0 0 0 0 0.13973199   0 0 0 0 0.558172091   0 0 0 0 0.763472577  0 0 0 0.303357111 0"/>
    </filter>
    <linearGradient id="folder-images-stack-128px-l" x1="22.015%" x2="62.934%" y1="68.876%" y2="31.044%">
      <stop offset="0%" stop-color="#FFC8C8"/>
      <stop offset="100%" stop-color="#4C82F4"/>
    </linearGradient>
    <linearGradient id="folder-images-stack-128px-m" x1="22.015%" x2="63.689%" y1="65.92%" y2="29.337%">
      <stop offset="0%" stop-color="#FFC8C8"/>
      <stop offset="100%" stop-color="#4381FF"/>
    </linearGradient>
  </defs>
  <g fill="none" fill-rule="evenodd" filter="url(#folder-images-stack-128px-a)" transform="translate(9 23)">
    <path fill="#003BAE" d="M62,5.75 L62,5.75 C63.5180684,9.24155741 66.9626718,11.5 70.7699681,11.5 L97,11.5 C104.731986,11.5 111,17.7680135 111,25.5 L111,82 C111,89.7319865 104.731986,96 97,96 L14,96 C6.2680135,96 -4.16856689e-14,89.7319865 -4.26325641e-14,82 L-4.26325641e-14,14 C-4.35794594e-14,6.2680135 6.2680135,-2.70013666e-14 14,-2.84217094e-14 L53.2300319,-2.30926389e-14 C57.0373282,-2.71735863e-14 60.4819316,2.25844259 62,5.75 Z"/>
    <use fill="#000" filter="url(#folder-images-stack-128px-b)" xlink:href="#folder-images-stack-128px-c"/>
    <use fill="url(#folder-images-stack-128px-d)" xlink:href="#folder-images-stack-128px-c"/>
    <use fill="#000" filter="url(#folder-images-stack-128px-e)" xlink:href="#folder-images-stack-128px-c"/>
    <g transform="translate(0 23)">
      <mask id="folder-images-stack-128px-h" fill="#fff">
        <use xlink:href="#folder-images-stack-128px-f"/>
      </mask>
      <use fill="url(#folder-images-stack-128px-g)" xlink:href="#folder-images-stack-128px-f"/>
      <g mask="url(#folder-images-stack-128px-h)">
        <g transform="translate(.5 3.5)">
          <g transform="translate(8 26)">
            <circle cx="16" cy="16" r="8" fill="#F66161"/>
            <path fill="#FFA279" fill-rule="nonzero" d="M16,24 C20.418278,24 24,20.418278 24,16 C24,11.581722 20.418278,8 16,8 C11.581722,8 8,11.581722 8,16 C8,20.418278 11.581722,24 16,24 Z M16,28 C9.372583,28 4,22.627417 4,16 C4,9.372583 9.372583,4 16,4 C22.627417,4 28,9.372583 28,16 C28,22.627417 22.627417,28 16,28 Z" opacity=".5"/>
            <path fill="#FFA279" fill-rule="nonzero" d="M16,28 C22.627417,28 28,22.627417 28,16 C28,9.372583 22.627417,4 16,4 C9.372583,4 4,9.372583 4,16 C4,22.627417 9.372583,28 16,28 Z M16,32 C7.163444,32 0,24.836556 0,16 C0,7.163444 7.163444,0 16,0 C24.836556,0 32,7.163444 32,16 C32,24.836556 24.836556,32 16,32 Z" opacity=".2"/>
          </g>
          <use fill="url(#folder-images-stack-128px-i)" xlink:href="#folder-images-stack-128px-j"/>
          <use fill="#000" filter="url(#folder-images-stack-128px-k)" xlink:href="#folder-images-stack-128px-j"/>
          <path fill="url(#folder-images-stack-128px-l)" d="M29.2727273,6 C32.144544,6 34.5303957,8.13614833 35.0050518,10.9452085 C36.7520024,11.5959788 38,13.3150269 38,15.3333333 C38,17.9106622 35.9649307,20 33.4545455,20 C31.8812779,20 24.3663516,20 22.5454545,20 C20.0350693,20 18,17.9106622 18,15.3333333 C18,12.7560045 20.0350693,10.6666667 22.5454545,10.6666667 C22.8976136,10.6666667 23.240419,10.7077822 23.569565,10.7855926 C24.1060334,8.05562622 26.455557,6 29.2727273,6 Z" opacity=".7"/>
          <path fill="url(#folder-images-stack-128px-m)" d="M91.7818182,0 C95.8023616,0 99.1425539,2.74647642 99.8070726,6.35812519 C102.252803,7.1948299 104,9.40503454 104,12 C104,15.3137085 101.150903,18 97.6363636,18 C95.433789,18 84.9128923,18 82.3636364,18 C78.849097,18 76,15.3137085 76,12 C76,8.6862915 78.849097,6 82.3636364,6 C82.856659,6 83.3365865,6.05286278 83.797391,6.15290472 C84.5484468,2.642948 87.8377798,0 91.7818182,0 Z" opacity=".7"/>
        </g>
      </g>
    </g>
  </g>
</svg>
