<?xml version="1.0" encoding="UTF-8"?>
<svg width="22px" height="22px" viewBox="0 0 22 22" version="1.1" xmlns="http://www.w3.org/2000/svg" xmlns:xlink="http://www.w3.org/1999/xlink">
    <!-- Generator: Sketch 41.2 (35397) - http://www.bohemiancoding.com/sketch -->
    <title>android-device</title>
    <desc>Created with Sketch.</desc>
    <defs></defs>
    <g id="Page-1" stroke="none" stroke-width="1" fill="none" fill-rule="evenodd">
        <g id="android-device">
            <path d="M5.99999999,1.74482252 C5.99999999,1.3334684 6.33347314,1 6.75065372,1 L17.2493459,1 C17.6639205,1 17.9999997,1.32978058 17.9999997,1.74482252 L17.9999997,19.2551775 C17.9999997,19.6665316 17.6665265,20 17.2493459,20 L6.7506534,20 C6.33607878,20 5.99999966,19.6702194 5.99999967,19.2551775 L5.99999999,1.74482252 Z" id="Rectangle-154" fill="#C1B6AA"></path>
            <path d="M7.00000002,2.37087911 C7.00000002,2.16604823 7.17356875,1.99999999 7.37980082,1.99999998 L16.6201992,1.99999954 C16.8299574,1.99999953 17,2.1682545 17,2.37087863 L17,18.6291209 C17,18.8339518 16.8264313,19 16.6201992,19 L7.3798008,19.0000005 C7.17004261,19.0000005 7,18.8317455 7,18.6291214 L7.00000002,2.37087911 Z" id="Rectangle-154" fill="#F7EBDE"></path>
            <rect id="Rectangle-135" fill="#1A1A1A" x="8" y="5" width="8" height="12"></rect>
            <circle id="Oval-21" fill="#1C1C1C" cx="14.5" cy="3.5" r="0.5"></circle>
            <path d="M10.5,3.5 L12.5,3.5" id="Path-102" stroke="#8A837B" stroke-linecap="round"></path>
        </g>
    </g>
</svg>