<svg xmlns="http://www.w3.org/2000/svg" width="22" height="22" viewBox="0 0 22 22">
  <defs>
    <linearGradient id="drive-optical-a" x1="102.549%" x2="-2.652%" y1="57.682%" y2="57.682%">
      <stop offset="0%" stop-color="#0067BC"/>
      <stop offset="4.571%" stop-color="#30EA7F"/>
      <stop offset="9.931%" stop-color="#00D887"/>
      <stop offset="88.945%" stop-color="#00B160"/>
      <stop offset="93.793%" stop-color="#00C165"/>
      <stop offset="100%" stop-color="#008CBD"/>
    </linearGradient>
    <linearGradient id="drive-optical-b" x1="100%" x2="0%" y1="56.43%" y2="56.43%">
      <stop offset="0%" stop-color="#FFF" stop-opacity=".5"/>
      <stop offset="8.389%" stop-color="#FFF"/>
      <stop offset="52.356%" stop-color="#FFF" stop-opacity=".8"/>
      <stop offset="88.168%" stop-color="#FFF"/>
      <stop offset="100%" stop-color="#FFF" stop-opacity=".5"/>
    </linearGradient>
    <radialGradient id="drive-optical-c" cx="48.239%" cy="19.103%" r="78.654%" fx="48.239%" fy="19.103%" gradientTransform="matrix(0 1 -.7673 0 .629 -.291)">
      <stop offset="0%" stop-color="#7CFFFE"/>
      <stop offset="100%" stop-color="#D6CDE6"/>
    </radialGradient>
  </defs>
  <g fill="none" fill-rule="evenodd">
    <path fill="url(#drive-optical-a)" d="M4,3.99406028 C4,2.8927712 4.89706016,2 6.00585873,2 L15.9941417,2 C17.1019469,2 18.0000004,2.89451376 18.0000004,3.99406028 L18,18 L4,18 L4,3.99406028 Z"/>
    <path fill="url(#drive-optical-b)" stroke="#FFF" stroke-opacity=".5" d="M4.5,18.5 L9.33538177,18.5 C9.83352673,18.5 9.83352673,18.5 10.3312805,18.5 L17.5,18.5 L17.5,17 C17.5,16.1671591 16.8291022,15.5 15.9941413,15.5 L6.00585866,15.5 C5.1732569,15.5 4.5,16.1715202 4.5,17 L4.5,18.5 Z"/>
    <path fill="url(#drive-optical-c)" stroke="#003D9C" stroke-opacity=".2" d="M4.5,18.5 C4.5,19.0558985 4.94476496,19.5000001 5.49824524,19.5000001 L16.5017548,19.5000001 C17.0502485,19.5000001 17.5,19.0506461 17.5,18.5000001 C17.5,17.9441016 17.055235,17.5000001 16.5017548,17.5000001 L5.49824524,17.5 C4.94975153,17.5 4.5,17.9493539 4.5,18.5 Z"/>
    <g transform="translate(5 2)">
      <path d="M6.30381818.924181818C7.09090909.924181818 7.83624242 1.09751515 8.50987879 1.40163636L8.52012121 1.37878788C7.8409697 1.07072727 7.09012121.894242424 6.29751515.894242424 3.31854545.894242424.895818182 3.31854545.895818182 6.29987879.895818182 7.09248485 1.07151515 7.84412121 1.37957576 8.52327273L1.40793939 8.51066667C1.1030303 7.83624242.928909091 7.08933333.928909091 6.30066667.928121212 3.33115152 3.33509091.924181818 6.30381818.924181818L6.30381818.924181818zM11.1989091 4.08672727C11.5053939 4.76272727 11.6795152 5.51042424 11.6795152 6.30066667 11.6795152 9.26939394 9.27254545 11.6763636 6.30381818 11.6763636 5.512 11.6763636 4.76272727 11.5006667 4.08593939 11.1933939L4.07333333 11.2209697C4.75248485 11.5290303 5.50412121 11.7055152 6.29672727 11.7055152 9.27569697 11.7055152 11.6984242 9.28121212 11.6984242 6.29987879 11.6984242 5.50727273 11.5227273 4.75721212 11.2154545 4.07806061L11.1989091 4.08672727 11.1989091 4.08672727z"/>
      <circle cx="6" cy="6" r="1" fill="#FFF"/>
      <path fill="#FFF" d="M6.12207742 3.19997355L8 2.25158054C7.54623614 1.25356591 6.73954484.450936378 5.73740517 0L4.8 1.84034145C5.39256954 2.119463 6.1245672 3.20617626 6.12207742 3.19997355L6.12207742 3.19997355zM1.90863254 4.8L0 5.77655172C.443697479 6.7610728 1.23269672 7.55310345 2.21359817 8L3.2 6.13823755C2.62673797 5.86605364 2.16592819 5.39157088 1.90863254 4.8L1.90863254 4.8z" opacity=".5" transform="translate(2 2)"/>
      <path fill="#FFF" d="M9.26678788,5.23678788 C9.24278788,5.16412121 9.22545455,5.08878788 9.19612121,5.01878788 C9.22612121,5.08812121 9.24212121,5.16412121 9.26678788,5.23678788 Z"/>
      <circle cx="6" cy="6" r="4.5" stroke="#FFF"/>
      <circle cx="6" cy="6" r="2.5" stroke="#FFF"/>
    </g>
    <rect width="12" height="1" x="5" y="18" fill="#008BFF" rx=".5"/>
  </g>
</svg>
