<?xml version="1.0" encoding="UTF-8"?>
<svg width="22px" height="22px" viewBox="0 0 22 22" version="1.1" xmlns="http://www.w3.org/2000/svg" xmlns:xlink="http://www.w3.org/1999/xlink">
    <!-- Generator: Sketch 41.2 (35397) - http://www.bohemiancoding.com/sketch -->
    <title>drive-harddisk</title>
    <desc>Created with Sketch.</desc>
    <defs>
        <linearGradient x1="50%" y1="0.410554847%" x2="50%" y2="100%" id="linearGradient-1">
            <stop stop-color="#9DDA00" offset="0%"></stop>
            <stop stop-color="#73C300" offset="100%"></stop>
        </linearGradient>
    </defs>
    <g id="Page-1" stroke="none" stroke-width="1" fill="none" fill-rule="evenodd">
        <g id="drive-harddisk">
            <path d="M4,2.74121094 C4,2.33185144 4.33226083,2 4.75270083,2 L17.2472996,2 C17.6630048,2 18.0000005,2.32918832 18.0000004,2.74121094 L18,19.25 L4,19.25 L4,2.74121094 Z" id="Rectangle-1" fill="url(#linearGradient-1)"></path>
            <path d="M4,15.7570267 C4,15.3389324 4.33226082,15 4.75270081,15 L17.2472992,15 C17.6630044,15 18,15.3441381 18,15.7570267 L18,18 L9.83267211,18 L4,18 L4,15.7570267 Z" id="Rectangle-3" fill="#FFFFFF"></path>
            <path d="M4,17.7570267 C4,17.3389324 4.33226082,17 4.75270081,17 L17.2472992,17.0000001 C17.6630044,17.0000001 18,17.3441382 18,17.7570267 L18,19.2429734 C18,19.6610677 17.6677392,20.0000001 17.2472992,20.0000001 L4.75270081,20.0000001 C4.33699563,20.0000001 4,19.6558619 4,19.2429734 L4,17.7570267 Z" id="Rectangle-1" fill="#DCDDDD"></path>
            <path d="M16,18 L17,18 L17,19 L16,19 L16,18 Z M14,18 L15,18 L15,19 L14,19 L14,18 Z M12,18 L13,18 L13,19 L12,19 L12,18 Z" id="Combined-Shape" fill="#75C500"></path>
            <path d="M5.5,19 C5.77614237,19 6,18.7761424 6,18.5 C6,18.2238576 5.77614237,18 5.5,18 C5.22385763,18 5,18.2238576 5,18.5 C5,18.7761424 5.22385763,19 5.5,19 Z" id="Oval" fill="#75C600"></path>
        </g>
    </g>
</svg>