<svg xmlns="http://www.w3.org/2000/svg" width="22" height="22" viewBox="0 0 22 22">
  <defs>
    <linearGradient id="drive-harddisk-usb-a" x1="102.549%" x2="-2.652%" y1="57.682%" y2="57.682%">
      <stop offset="0%" stop-color="#0067BC"/>
      <stop offset="4.571%" stop-color="#30EA7F"/>
      <stop offset="9.931%" stop-color="#00D887"/>
      <stop offset="88.945%" stop-color="#00B160"/>
      <stop offset="93.793%" stop-color="#00C165"/>
      <stop offset="100%" stop-color="#008CBD"/>
    </linearGradient>
    <linearGradient id="drive-harddisk-usb-b" x1="100%" x2="0%" y1="56.43%" y2="56.43%">
      <stop offset="0%" stop-color="#FFF" stop-opacity=".5"/>
      <stop offset="8.389%" stop-color="#FFF"/>
      <stop offset="52.356%" stop-color="#FFF" stop-opacity=".8"/>
      <stop offset="88.168%" stop-color="#FFF"/>
      <stop offset="100%" stop-color="#FFF" stop-opacity=".5"/>
    </linearGradient>
    <radialGradient id="drive-harddisk-usb-c" cx="48.239%" cy="19.103%" r="78.654%" fx="48.239%" fy="19.103%" gradientTransform="matrix(0 1 -.7673 0 .629 -.291)">
      <stop offset="0%" stop-color="#7CFFFE"/>
      <stop offset="100%" stop-color="#D6CDE6"/>
    </radialGradient>
    <linearGradient id="drive-harddisk-usb-d" x1="50%" x2="50%" y1="0%" y2="100%">
      <stop offset="0%" stop-color="#0174FF"/>
      <stop offset="50.85%" stop-color="#01C2FF"/>
      <stop offset="100%" stop-color="#0056FF"/>
    </linearGradient>
    <radialGradient id="drive-harddisk-usb-e" cx="50%" cy="37.643%" r="62.357%" fx="50%" fy="37.643%">
      <stop offset="0%" stop-color="#B0FF58"/>
      <stop offset="100%" stop-color="#37EC00"/>
    </radialGradient>
  </defs>
  <g fill="none" fill-rule="evenodd">
    <path fill="url(#drive-harddisk-usb-a)" d="M4,3.99406028 C4,2.8927712 4.89706016,2 6.00585873,2 L15.9941417,2 C17.1019469,2 18.0000004,2.89451376 18.0000004,3.99406028 L18,18 L4,18 L4,3.99406028 Z"/>
    <path fill="url(#drive-harddisk-usb-b)" stroke="#FFF" stroke-opacity=".5" d="M4.5,18.5 L9.33538177,18.5 C9.83352673,18.5 9.83352673,18.5 10.3312805,18.5 L17.5,18.5 L17.5,17 C17.5,16.1671591 16.8291022,15.5 15.9941413,15.5 L6.00585866,15.5 C5.1732569,15.5 4.5,16.1715202 4.5,17 L4.5,18.5 Z"/>
    <path fill="url(#drive-harddisk-usb-c)" stroke="#003D9C" stroke-opacity=".2" d="M4.5,18.5 C4.5,19.0558985 4.94476496,19.5000001 5.49824524,19.5000001 L16.5017548,19.5000001 C17.0502485,19.5000001 17.5,19.0506461 17.5,18.5000001 C17.5,17.9441016 17.055235,17.5000001 16.5017548,17.5000001 L5.49824524,17.5 C4.94975153,17.5 4.5,17.9493539 4.5,18.5 Z"/>
    <path fill="url(#drive-harddisk-usb-d)" d="M17,18 L17,19 L16,19 L16,18 L17,18 Z M15,18 L15,19 L14,19 L14,18 L15,18 Z M13,18 L13,19 L12,19 L12,18 L13,18 Z M11,18 L11,19 L10,19 L10,18 L11,18 Z"/>
    <path fill="url(#drive-harddisk-usb-e)" d="M5.5,19 C5.77614237,19 6,18.7761424 6,18.5 C6,18.2238576 5.77614237,18 5.5,18 C5.22385763,18 5,18.2238576 5,18.5 C5,18.7761424 5.22385763,19 5.5,19 Z"/>
    <g fill="#FFF" transform="translate(7.2 2)">
      <circle cx="3.8" cy="11" r="1"/>
      <polygon points="2.3 3 5.3 3 3.8 .5"/>
      <circle cx="1.8" cy="6" r="1"/>
      <polygon points="4.8 4 6.8 4 6.8 6 4.8 6"/>
      <polygon points="4.2 2 3.5 2 3.5 11 4.2 11"/>
      <path d="M5.57,6.5 C5.57,6.76666667 5.53933333,6.87133333 5.328,7.07266667 L3.5,8.35333333 L3.5,8.90133333 L5.63533333,7.354 C5.63533333,7.354 6.00333333,7.13333333 6.00333333,6.53533333 L6.002,5.06533333 L5.57,5.06533333 L5.57,6.5 Z"/>
      <path d="M2.03333371,7.5 C2.03333371,7.76133333 2.06400038,7.864 2.27533371,8.06133333 L4.19999981,9.31666667 L4.19999981,9.854 L1.96800038,8.33733333 C1.96800038,8.33733333 1.60000038,8.12066667 1.60000038,7.53533333 L1.60200038,6.60533333 L2.03333371,6.60533333 L2.03333371,7.5 Z"/>
    </g>
  </g>
</svg>
