<svg xmlns="http://www.w3.org/2000/svg" width="22" height="22" viewBox="0 0 22 22">
  <defs>
    <linearGradient id="media-cdr-a" x1="28.84%" x2="73.708%" y1="5.606%" y2="93.949%">
      <stop offset="0%" stop-color="#5CD4FB"/>
      <stop offset="47.787%" stop-color="#FFADF1"/>
      <stop offset="100%" stop-color="#7DF8FF"/>
    </linearGradient>
  </defs>
  <g fill="none" fill-rule="evenodd">
    <path fill="url(#media-cdr-a)" d="M11,2 C15.9705627,2 20,6.02943725 20,11 C20,15.9705627 15.9705627,20 11,20 C6.02943725,20 2,15.9705627 2,11 C2,6.02943725 6.02943725,2 11,2 Z M11,7.4 C9.0117749,7.4 7.4,9.0117749 7.4,11 C7.4,12.9882251 9.0117749,14.6 11,14.6 C12.9882251,14.6 14.6,12.9882251 14.6,11 C14.6,9.0117749 12.9882251,7.4 11,7.4 Z"/>
    <path fill="#FFF" d="M19.25,11 C19.25,6.44365081 15.5563492,2.75 11,2.75 C6.44365081,2.75 2.75,6.44365081 2.75,11 C2.75,15.5563492 6.44365081,19.25 11,19.25 C15.5563492,19.25 19.25,15.5563492 19.25,11 Z M11,15.5833333 C13.5313051,15.5833333 15.5833333,13.5313051 15.5833333,11 C15.5833333,8.4686949 13.5313051,6.41666667 11,6.41666667 C8.4686949,6.41666667 6.41666667,8.4686949 6.41666667,11 C6.41666667,13.5313051 8.4686949,15.5833333 11,15.5833333 L11,15.5833333 Z" opacity=".397"/>
    <path fill="#8F859E" d="M8.015,16 C7.685,16 7.427,16.111 7.247,16.339 C7.082,16.543 7.001,16.804 7.001,17.122 C7.001,17.44 7.079,17.698 7.241,17.896 C7.418,18.115 7.673,18.226 8.006,18.226 C8.234,18.226 8.432,18.16 8.597,18.031 C8.774,17.893 8.885,17.698 8.933,17.449 L8.696,17.449 C8.654,17.635 8.567,17.776 8.441,17.872 C8.321,17.962 8.177,18.007 8.006,18.007 C7.754,18.007 7.565,17.923 7.433,17.758 C7.307,17.602 7.247,17.389 7.247,17.122 C7.247,16.855 7.31,16.642 7.436,16.48 C7.571,16.306 7.763,16.219 8.012,16.219 C8.18,16.219 8.321,16.258 8.438,16.339 C8.558,16.423 8.636,16.543 8.666,16.699 L8.903,16.699 C8.873,16.486 8.777,16.315 8.615,16.189 C8.453,16.063 8.252,16 8.015,16 L8.015,16 Z M9.275,16.042 L9.275,18.184 L10.019,18.184 C10.355,18.184 10.613,18.085 10.793,17.89 C10.964,17.704 11.051,17.443 11.051,17.113 C11.051,16.777 10.97,16.516 10.811,16.336 C10.637,16.138 10.382,16.042 10.043,16.042 L9.275,16.042 Z M9.521,16.255 L10.004,16.255 C10.286,16.255 10.49,16.327 10.622,16.474 C10.745,16.612 10.808,16.825 10.808,17.113 C10.808,17.392 10.739,17.605 10.607,17.749 C10.466,17.896 10.256,17.971 9.977,17.971 L9.521,17.971 L9.521,16.255 Z M11.327,17.305 L11.327,17.509 L12.842,17.509 L12.842,17.305 L11.327,17.305 Z M13.208,16.042 L13.208,18.184 L13.454,18.184 L13.454,17.263 L14.102,17.263 C14.237,17.263 14.339,17.287 14.411,17.341 C14.489,17.395 14.534,17.488 14.546,17.614 L14.573,17.899 C14.582,18.019 14.612,18.112 14.66,18.184 L14.927,18.184 C14.864,18.106 14.825,18.001 14.813,17.869 L14.78,17.539 C14.756,17.323 14.642,17.194 14.438,17.149 L14.438,17.143 C14.561,17.113 14.657,17.053 14.729,16.957 C14.795,16.864 14.828,16.759 14.828,16.639 C14.828,16.441 14.762,16.291 14.636,16.189 C14.513,16.09 14.345,16.042 14.132,16.042 L13.208,16.042 Z M13.454,16.255 L14.102,16.255 C14.267,16.255 14.39,16.288 14.468,16.354 C14.54,16.417 14.579,16.516 14.579,16.648 C14.579,16.774 14.54,16.87 14.465,16.939 C14.381,17.011 14.258,17.05 14.102,17.05 L13.454,17.05 L13.454,16.255 Z"/>
    <path fill="#CBD4E5" d="M11,14.6666667 C13.0250441,14.6666667 14.6666667,13.0250441 14.6666667,11 C14.6666667,8.97495592 13.0250441,7.33333333 11,7.33333333 C8.97495592,7.33333333 7.33333333,8.97495592 7.33333333,11 C7.33333333,13.0250441 8.97495592,14.6666667 11,14.6666667 L11,14.6666667 Z M11,12.8333333 C12.012522,12.8333333 12.8333333,12.012522 12.8333333,11 C12.8333333,9.98747796 12.012522,9.16666667 11,9.16666667 C9.98747796,9.16666667 9.16666667,9.98747796 9.16666667,11 C9.16666667,12.012522 9.98747796,12.8333333 11,12.8333333 L11,12.8333333 Z" opacity=".8"/>
    <path fill="#B792AF" d="M11,15.5833333 C13.5313051,15.5833333 15.5833333,13.5313051 15.5833333,11 C15.5833333,8.4686949 13.5313051,6.41666667 11,6.41666667 C8.4686949,6.41666667 6.41666667,8.4686949 6.41666667,11 C6.41666667,13.5313051 8.4686949,15.5833333 11,15.5833333 L11,15.5833333 Z M11,14.2083333 C12.7719136,14.2083333 14.2083333,12.7719136 14.2083333,11 C14.2083333,9.22808643 12.7719136,7.79166667 11,7.79166667 C9.22808643,7.79166667 7.79166667,9.22808643 7.79166667,11 C7.79166667,12.7719136 9.22808643,14.2083333 11,14.2083333 L11,14.2083333 Z" opacity=".4"/>
    <path fill="#FFF" d="M11.3383886,12.7638876 C11.6863478,14.2934342 12.9324219,19.7623375 12.9324218,19.7623375 C13.7914476,19.5562952 14.6356199,19.224454 15.4396476,18.760034 C16.2521191,18.2907367 16.9679,17.7182339 17.5799977,17.0686337 C17.5834272,17.0745765 13.5370764,13.1666952 12.3445685,12.1567356 C12.2130541,12.3151539 12.0517482,12.453363 11.8630647,12.5623498 C11.6952418,12.6592871 11.5182368,12.7258999 11.3383886,12.7638876 Z M9.64300135,9.81463785 C8.49024762,8.74149871 4.38000011,4.9422679 4.38000011,4.94226791 C4.98786853,4.3010074 5.69720497,3.73551577 6.50123272,3.27109576 C7.31370419,2.80179853 8.16716778,2.46787929 9.03552726,2.26234237 C9.03210161,2.25640622 10.2760163,7.73094734 10.6274665,9.25824253 C10.4383422,9.29512817 10.252003,9.36347994 10.0757873,9.46526509 C9.9097866,9.56114992 9.76497666,9.6796534 9.64300135,9.81463785 L9.64300135,9.81463785 Z" opacity=".25"/>
  </g>
</svg>
