<?xml version="1.0" encoding="UTF-8"?>
<svg width="24px" height="24px" viewBox="0 0 24 24" version="1.1" xmlns="http://www.w3.org/2000/svg" xmlns:xlink="http://www.w3.org/1999/xlink">
    <title>keyboard-symbolic-dark</title>
    <g id="keyboard-symbolic-dark" stroke="none" stroke-width="1" fill="none" fill-rule="evenodd">
        <path d="M20,3 C21.6568542,3 23,4.34314575 23,6 L23,18 C23,19.6568542 21.6568542,21 20,21 L4,21 C2.34314575,21 1,19.6568542 1,18 L1,6 C1,4.34314575 2.34314575,3 4,3 L20,3 Z M20,4 L4,4 C2.8954305,4 2,4.8954305 2,6 L2,18 C2,19.1045695 2.8954305,20 4,20 L20,20 C21.1045695,20 22,19.1045695 22,18 L22,6 C22,4.8954305 21.1045695,4 20,4 Z M17,14 L17,16 L7,16 L7,14 L17,14 Z M6,14 L6,16 L4,16 L4,14 L6,14 Z M20,14 L20,16 L18,16 L18,14 L20,14 Z M15,11 L15,13 L13,13 L13,11 L15,11 Z M12,11 L12,13 L10,13 L10,11 L12,11 Z M9,11 L9,13 L4,13 L4,11 L9,11 Z M20,11 L20,13 L16,13 L16,11 L20,11 Z M17,8 L17,10 L15,10 L15,8 L17,8 Z M20,8 L20,10 L18,10 L18,8 L20,8 Z M14,8 L14,10 L12,10 L12,8 L14,8 Z M11,8 L11,10 L9,10 L9,8 L11,8 Z M8,8 L8,10 L4,10 L4,8 L8,8 Z" id="形状" fill="#000000"></path>
    </g>
</svg>