<?xml version="1.0" encoding="UTF-8"?>
<svg width="24px" height="24px" viewBox="0 0 24 24" version="1.1" xmlns="http://www.w3.org/2000/svg" xmlns:xlink="http://www.w3.org/1999/xlink">
    <title>network-wired-symbolic-connecting5</title>
    <g id="network-wired-symbolic-connecting5" stroke="none" stroke-width="1" fill="none" fill-rule="evenodd">
        <path d="M7.01513168,15.2749058 L8.71218795,16.9719621 C9.1808171,17.4405912 9.1808171,18.2003892 8.71218795,18.6690184 L6.91598567,20.4652207 C6.70665997,20.6745463 6.42734761,20.7991111 6.13174144,20.8149694 L4.17489289,20.9199484 L1.32588969,23.7689516 C1.02483411,24.0700072 0.536726573,24.0700072 0.235670992,23.7689516 C-0.0653845894,23.467896 -0.0653845894,22.9797885 0.235670992,22.6787329 L3.08467419,19.8297297 L3.17536089,17.860737 C3.18912503,17.5618895 3.31402091,17.2789603 3.52556201,17.0674192 L5.3180754,15.2749058 C5.78670455,14.8062767 6.54650253,14.8062767 7.01513168,15.2749058 Z M15.2659328,7.02323279 L16.9629891,8.72028906 C17.4316182,9.18891821 18.1914162,9.18891821 18.6600453,8.72028906 L20.4562476,6.92408678 C20.6655733,6.71476108 20.790138,6.43544872 20.8059964,6.13984255 L20.9109754,4.182994 L23.7599786,1.3339908 C24.0610342,1.03293522 24.0610342,0.544827682 23.7599786,0.243772101 C23.458923,-0.0572834808 22.9708155,-0.0572834808 22.6697599,0.243772101 L19.8207567,3.0927753 L17.851764,3.183462 C17.5529165,3.19722614 17.2699873,3.32212202 17.0584462,3.53366312 L15.2659328,5.32617651 C14.7973036,5.79480566 14.7973036,6.55460364 15.2659328,7.02323279 Z" id="形状" fill="#FFFFFF"></path>
    </g>
</svg>