<?xml version="1.0" encoding="UTF-8"?>
<svg width="24px" height="24px" viewBox="0 0 24 24" version="1.1" xmlns="http://www.w3.org/2000/svg" xmlns:xlink="http://www.w3.org/1999/xlink">
    <title>screenshot</title>
    <g id="screenshot" stroke="none" stroke-width="1" fill="none" fill-rule="evenodd">
        <path d="M3,16 L3,19 C3,20.1045695 3.8954305,21 5,21 L9,21 L9,22 L5,22 C3.34314575,22 2,20.6568542 2,19 L2,16 L3,16 Z M22,16 L22,19 C22,20.6568542 20.6568542,22 19,22 L15,22 L15,21 L19,21 C20.1045695,21 21,20.1045695 21,19 L21,16 L22,16 Z M15.1596321,12.3398539 L19.000885,17.2656538 L18.999903,17.9999975 C18.999903,18.5522869 18.5521878,18.9999975 17.999903,18.9999975 L5.99840936,18.9999975 C5.44612461,18.9999975 4.99840936,18.5522869 4.99840936,17.9999975 L4.99677284,17.8138466 L8.04355535,14.3931339 C8.33830966,14.0411473 8.93305492,13.9991615 9.29163901,14.3050259 L10.7916414,15.5745843 C11.01526,15.7366007 11.327879,15.6866622 11.4898954,15.4630435 L13.7731017,12.3117108 C14.1072828,11.884137 14.8496723,11.8992057 15.1596321,12.3398539 Z M7.5,6 C8.32842712,6 9,6.67157288 9,7.5 C9,8.32842712 8.32842712,9 7.5,9 C6.67157288,9 6,8.32842712 6,7.5 C6,6.67157288 6.67157288,6 7.5,6 Z M9,2 L9,3 L5,3 C3.8954305,3 3,3.8954305 3,5 L3,8 L2,8 L2,5 C2,3.34314575 3.34314575,2 5,2 L9,2 Z M19,2 C20.6568542,2 22,3.34314575 22,5 L22,8 L21,8 L21,5 C21,3.8954305 20.1045695,3 19,3 L15,3 L15,2 L19,2 Z" id="形状" fill="#FFFFFF"></path>
    </g>
</svg>