<?xml version="1.0" encoding="UTF-8"?>
<svg width="24px" height="24px" viewBox="0 0 24 24" version="1.1" xmlns="http://www.w3.org/2000/svg" xmlns:xlink="http://www.w3.org/1999/xlink">
    <title>screen-recording-dark</title>
    <g id="screen-recording-dark" stroke="none" stroke-width="1" fill="none" fill-rule="evenodd">
        <path d="M12,1 C18.0751322,1 23,5.92486775 23,12 C23,16.4455078 20.3383258,20.4013139 16.3204594,22.1189144 C14.9665119,22.6977144 13.5038776,23 12,23 C10.5276146,23 9.09462231,22.7102526 7.76418976,22.1546812 C3.70151322,20.4581601 1,16.4786365 1,12 C1,5.92486775 5.92486775,1 12,1 Z M12,2.2 C6.58760945,2.2 2.2,6.58760945 2.2,12 C2.2,15.9903262 4.60685208,19.5357927 8.22659649,21.0473511 C9.4111822,21.5420188 10.6870701,21.8 12,21.8 C13.3409878,21.8 14.643233,21.5308623 15.8487639,21.0155091 C19.4286651,19.4851346 21.8,15.9608336 21.8,12 C21.8,6.58760945 17.4123905,2.2 12,2.2 Z M14,8 C15.1045695,8 16,8.8954305 16,10 L16,14 C16,15.1045695 15.1045695,16 14,16 L10,16 C8.8954305,16 8,15.1045695 8,14 L8,10 C8,8.8954305 8.8954305,8 10,8 L14,8 Z" id="形状" fill="#FF5736" fill-rule="nonzero"></path>
    </g>
</svg>