<?xml version="1.0" encoding="UTF-8"?>
<svg width="24px" height="24px" viewBox="0 0 24 24" version="1.1" xmlns="http://www.w3.org/2000/svg" xmlns:xlink="http://www.w3.org/1999/xlink">
    <title>status-ai-assistant-dark</title>
    <g id="status-ai-assistant-dark" stroke="none" stroke-width="1" fill="none" fill-rule="evenodd">
        <path d="M11.9918791,0.982849936 C17.2319043,0.982849936 20.9654321,4.74019917 21.3060072,11.0630722 L21.3208565,11.4042238 C21.3552886,11.9947196 21.33921,12.6285539 21.2744984,13.2942911 L21.2497616,13.5158499 L21.3191991,13.6236118 L21.4797859,13.8920141 C22.8026196,16.180567 23.048462,19.1123501 21.7553752,19.8580459 C21.2199648,20.1668056 20.8678469,20.0915448 20.0865328,19.5191229 L19.6838918,19.2118499 L19.6019307,19.4001761 C19.2982179,20.078171 18.8848486,20.905188 18.3612165,21.8834088 L18.1938918,22.1918499 L18.1842226,22.2164942 C17.9461898,22.6549337 17.5077703,22.9433882 17.0168774,22.993129 L16.8681832,23.0008011 L7.13743394,23.0005638 C6.58693043,23.0004908 6.08069865,22.6988728 5.81893078,22.2154232 C5.20125712,21.0786583 4.73806986,20.1211431 4.42833493,19.3368896 L4.3688918,19.1828499 L4.22151779,19.3011547 C3.29888589,20.0291702 2.89230907,20.1902684 2.33841768,19.9089987 L2.24462468,19.8580458 C0.951538003,19.1123501 1.19738037,16.180567 2.52021432,13.8920136 L2.71992507,13.5610977 L2.8198918,13.4088499 L2.76867746,13.0567523 C2.72028349,12.6943283 2.68122993,12.3343859 2.65163306,11.9754939 L2.61434481,11.437765 C2.56075491,5.39678668 6.72146664,0.982849936 11.9918791,0.982849936 Z M11.9918791,1.98284994 C7.28879266,1.98284994 3.56554833,5.93269458 3.61351625,11.4049003 C3.65102108,12.0634475 3.72569769,12.7481336 3.83600876,13.4463811 C3.85594133,13.5725504 3.82683036,13.7015641 3.7546494,13.8069486 C3.62612757,13.9945911 3.50289269,14.1902003 3.38598757,14.3924501 C2.30625279,16.2604326 2.10798367,18.6248829 2.74418831,18.9917686 C2.84923071,19.0523443 3.16144799,18.8777052 3.94010914,18.2431182 L4.29521437,17.9515245 C4.57308667,17.7257265 4.99128209,17.8566263 5.09082241,18.2005587 C5.32862171,19.0222044 5.86435628,20.2044928 6.69794873,21.7386351 C6.78532143,21.9000002 6.95406536,22.0005395 7.13751242,22.0005638 L8.6247358,22.0003939 C7.92927717,20.7590394 7.48056385,19.2601439 7.528504,17.8542141 C7.63807124,14.6409607 9.53007616,14 11.9991405,14 L12.3740911,14.0047933 C14.6550962,14.0656912 16.3417176,14.739315 16.4697771,17.8542141 C16.5283736,19.2795054 16.0885031,20.769919 15.400473,22.0003203 L16.8670833,22.0008023 C17.0195208,22.0004633 17.1616641,21.9307768 17.2553193,21.8145243 L17.3033169,21.7387636 L17.6441157,21.1021654 C18.2392009,19.9761934 18.6707992,19.0766484 18.9378038,18.407514 L19.0065416,18.2307385 C19.1255631,17.9158463 19.5154605,17.8061672 19.7811956,18.0128265 L20.31492,18.4346411 C20.9309996,18.9124823 21.1749604,19.0383939 21.2558116,18.9917687 C21.8920163,18.6248829 21.6937472,16.2604326 20.6140127,14.3924506 C20.5197053,14.2292955 20.4202392,14.0686615 20.3164311,13.9114808 C20.2508025,13.8121094 20.2227965,13.6925766 20.2374532,13.5743947 C20.331207,12.8184288 20.360172,12.1075987 20.3221807,11.4551504 L20.3072074,11.1117879 C19.9947774,5.3118755 16.6868577,1.98284994 11.9918791,1.98284994 Z M11.9991405,15 C9.52247444,15 8.60429024,15.6486926 8.52792315,17.8882928 C8.48374281,19.1839597 8.95100824,20.6831624 9.72420863,21.891974 L9.79600477,21.999 L14.2280048,22 L14.2996001,21.8942293 C15.0136438,20.7806621 15.4578456,19.4189302 15.4744513,18.1790788 L15.4706211,17.8952913 C15.3764383,15.6044026 14.5108787,15 11.9991405,15 Z M13.2529809,11.0594004 C13.4986178,11.0971989 13.6671042,11.3269688 13.6293056,11.5726057 C13.5016379,12.4022657 12.8515735,12.9505136 12,12.9505136 C11.1885768,12.9505136 10.5692602,12.3889017 10.3784313,11.6114336 C10.3191888,11.3700696 10.4668273,11.1263799 10.7081912,11.0671373 C10.9495552,11.0078948 11.1932449,11.1555333 11.2524875,11.3968973 C11.3502053,11.7950158 11.631955,12.0505136 12,12.0505136 C12.4105557,12.0505136 12.6801611,11.8231352 12.7397756,11.4357251 C12.7775741,11.1900882 13.0073439,11.0216019 13.2529809,11.0594004 Z M16,7 C17.1045695,7 18,7.8954305 18,9 C18,10.1045695 17.1045695,11 16,11 C14.8954305,11 14,10.1045695 14,9 C14,7.8954305 14.8954305,7 16,7 Z M8,7 C9.1045695,7 10,7.8954305 10,9 C10,10.1045695 9.1045695,11 8,11 C6.8954305,11 6,10.1045695 6,9 C6,7.8954305 6.8954305,7 8,7 Z M16.5,9 C16.2238576,9 16,9.22385763 16,9.5 C16,9.77614237 16.2238576,10 16.5,10 C16.7761424,10 17,9.77614237 17,9.5 C17,9.22385763 16.7761424,9 16.5,9 Z M8.5,9 C8.22385763,9 8,9.22385763 8,9.5 C8,9.77614237 8.22385763,10 8.5,10 C8.77614237,10 9,9.77614237 9,9.5 C9,9.22385763 8.77614237,9 8.5,9 Z M8,5.00691321 C8.32048481,5.00691321 8.61926778,5.08417643 8.88900629,5.31018335 C9.0795048,5.46979712 9.10454182,5.75361919 8.94492805,5.9441177 C8.80526601,6.11080389 8.57050698,6.15080864 8.38638032,6.0512766 L8.31099371,6.00003946 C8.23159311,5.93351175 8.12873444,5.90691321 8,5.90691321 C7.87132085,5.90691321 7.75938468,5.93532648 7.70673389,5.98437471 C7.52488678,6.15377916 7.24014114,6.14369239 7.0707367,5.96184529 C6.90133225,5.77999819 6.91141901,5.49525255 7.09326611,5.3258481 C7.34968504,5.08697432 7.66509164,5.00691321 8,5.00691321 Z M16,5.00691321 C16.3204848,5.00691321 16.6192678,5.08417643 16.8890063,5.31018335 C17.0795048,5.46979712 17.1045418,5.75361919 16.9449281,5.9441177 C16.805266,6.11080389 16.570507,6.15080864 16.3863803,6.0512766 L16.3109937,6.00003946 C16.2315931,5.93351175 16.1287344,5.90691321 16,5.90691321 C15.8713209,5.90691321 15.7593847,5.93532648 15.7067339,5.98437471 C15.5248868,6.15377916 15.2401411,6.14369239 15.0707367,5.96184529 C14.9013322,5.77999819 14.911419,5.49525255 15.0932661,5.3258481 C15.349685,5.08697432 15.6650916,5.00691321 16,5.00691321 Z" id="形状" fill="#000000" fill-rule="nonzero"></path>
    </g>
</svg>