<?xml version="1.0" encoding="UTF-8"?>
<svg width="16px" height="16px" viewBox="0 0 16 16" version="1.1" xmlns="http://www.w3.org/2000/svg" xmlns:xlink="http://www.w3.org/1999/xlink">
    <!-- Generator: Sketch 46.2 (44496) - http://www.bohemiancoding.com/sketch -->
    <title>crossover</title>
    <desc>Created with Sketch.</desc>
    <defs></defs>
    <g id="Page-1" stroke="none" stroke-width="1" fill="none" fill-rule="evenodd">
        <g id="crossover">
            <g id="图标形状" transform="translate(1.000000, 1.000000)">
                <circle id="Oval" stroke="#1038FB" fill="#FFFFFF" cx="7" cy="7" r="7"></circle>
                <path d="M12.4031682,4.56780863 C11.7895607,4.07977189 11.0753761,3.64347068 10.2810551,3.28981621 C6.97821045,1.81929502 3.54056245,2.33455695 2.6028534,4.44068594 C1.66514436,6.54681493 3.58246562,9.44626278 6.8853103,10.916784 C7.09106362,11.0083913 7.29734008,11.0922922 7.50350272,11.1685822 C5.56568512,9.62732643 4.63096516,7.57008998 5.34315893,5.9704766 C6.22245264,3.99555058 9.29991565,3.41945676 12.4031682,4.56780863 Z" id="Combined-Shape" fill="#1038FB"></path>
                <path d="M11.8125545,4.20992633 C11.1969855,3.7203296 10.4805181,3.28263378 9.68365813,2.92784887 C6.37025608,1.45262723 2.9216198,1.96953617 1.98091341,4.0823973 C1.04020703,6.19525843 2.96365691,9.10397423 6.27705897,10.5791959 C6.48346997,10.671096 6.69040579,10.7552651 6.89722742,10.831799 C4.95321568,9.28561663 4.01550793,7.22180433 4.72997819,5.61707786 C5.61208252,3.63583909 8.69938249,3.05790381 11.8125545,4.20992633 Z" id="Combined-Shape" fill="#FD5400" transform="translate(6.777381, 6.459504) rotate(181.000000) translate(-6.777381, -6.459504) "></path>
            </g>
        </g>
    </g>
</svg>