<svg xmlns="http://www.w3.org/2000/svg" width="16" height="16" viewBox="0 0 16 16">
  <defs>
    <linearGradient id="deepin-font-manager-a" x1="50%" x2="50%" y1="-7.446%" y2="100%">
      <stop offset="0%" stop-color="#E6D4FF"/>
      <stop offset="100%" stop-color="#AFA2FF"/>
    </linearGradient>
  </defs>
  <g fill="none" fill-rule="evenodd">
    <g transform="translate(2 1)">
      <path fill="url(#deepin-font-manager-a)" d="M1,0 L11.011319,0 C11.5636037,-1.01453063e-16 12.011319,0.44771525 12.011319,1 L12.011319,13 C12.011319,13.5522847 11.5636037,14 11.011319,14 L1,14 C0.44771525,14 6.76353751e-17,13.5522847 0,13 L0,1 C-6.76353751e-17,0.44771525 0.44771525,1.01453063e-16 1,0 Z"/>
      <path fill="#8378CC" fill-rule="nonzero" d="M1,11 L8.37603963,11 L11.136319,11 C11.6195681,11 12.012348,10.6327435 12.012348,10.1494944 C12.012348,10.1413284 12.012348,10.1331628 12.012005,10.125 L11.9976598,13 C11.9976598,13.5522848 11.5499445,14 10.9976598,14 L1,14 C0.44771525,14 0,13.5522848 0,13 L0,12 C0,11.4477153 0.44771525,11 1,11 Z"/>
      <path fill="#FFF" fill-rule="nonzero" d="M1.5,12 L8.04965638,12 L8.04965638,12 L10.5013128,12 C10.7774551,12 11.0186259,11.7761424 11.0186259,11.5 L11.0161665,12.0048712 C11.0134855,12.555248 10.5665618,13 10.0161784,13 L1.5,13 C1.22385763,13 1,12.7761424 1,12.5 C1,12.2238576 1.22385763,12 1.5,12 Z"/>
    </g>
    <path fill="#000" fill-rule="nonzero" d="M3,12 C4.1045695,12 5,11.1045695 5,10 L5,3 L5,3 L4,3 L4,2 L11,2 L11,4 L10,4 C10,3.44771525 9.55228475,3 9,3 L7,3 L7,3 L7,7 C8.1045695,7 9,6.1045695 9,5 L9,5 L9,5 L9,10 C9,8.8954305 8.1045695,8 7,8 L7,8 L7,8 L7,10 C7,11.1045695 7.8954305,12 9,12 L9,12 L9,12 L3,12 Z"/>
  </g>
</svg>
