<svg xmlns="http://www.w3.org/2000/svg" width="16" height="16" viewBox="0 0 16 16">
  <defs>
    <linearGradient id="deepin-album-a" x1="50%" x2="50%" y1="0%" y2="100%">
      <stop offset="0%" stop-color="#FFF"/>
      <stop offset="100%" stop-color="#94A1A6"/>
    </linearGradient>
    <linearGradient id="deepin-album-b" x1="50%" x2="50%" y1="-16.819%" y2="98.139%">
      <stop offset="0%" stop-color="#F7F7F7"/>
      <stop offset="100%" stop-color="#EDEDED"/>
    </linearGradient>
    <linearGradient id="deepin-album-c" x1="50%" x2="50%" y1="164.835%" y2="0%">
      <stop offset="0%" stop-color="#D14848"/>
      <stop offset="0%" stop-color="#D54F42"/>
      <stop offset="100%" stop-color="#FF9E00"/>
    </linearGradient>
    <linearGradient id="deepin-album-d" x1="8.959%" x2="100%" y1="9.888%" y2="119.966%">
      <stop offset="0%" stop-color="#E1A836"/>
      <stop offset="100%" stop-color="#BE5A6F"/>
    </linearGradient>
  </defs>
  <g fill="none" fill-rule="evenodd" transform="translate(2 1)">
    <path fill="url(#deepin-album-a)" fill-rule="nonzero" d="M0.375,1 L11.625,1 C11.8321068,1 12,1.16789322 12,1.375 L12,13.625 C12,13.8321068 11.8321068,14 11.625,14 L0.375,14 C0.167893219,14 2.53632657e-17,13.8321068 0,13.625 L0,1.375 C-2.53632657e-17,1.16789322 0.167893219,1 0.375,1 Z"/>
    <path fill="url(#deepin-album-b)" fill-rule="nonzero" d="M0.375,0 L11.625,0 C11.8321068,-3.80448985e-17 12,0.167893219 12,0.375 L12,12.625 C12,12.8321068 11.8321068,13 11.625,13 L0.375,13 C0.167893219,13 2.53632657e-17,12.8321068 0,12.625 L0,0.375 C-2.53632657e-17,0.167893219 0.167893219,3.80448985e-17 0.375,0 Z"/>
    <g transform="translate(2 2)">
      <polygon fill="url(#deepin-album-c)" points="0 0 9 0 9 6 0 6"/>
      <polygon fill="#942ECF" fill-rule="nonzero" points="3.371 1.394 0 5.894 2.227 5.894 4.5 2.86"/>
      <polygon fill="#7D44DF" fill-rule="nonzero" points="6.951 5.548 4.622 5.548 2.451 5.548 4.562 2.759"/>
      <polygon fill="url(#deepin-album-d)" fill-rule="nonzero" points="4.49 2.848 5.165 2.033 7.99 5.533 6.566 5.533"/>
    </g>
    <polygon fill="#F0F0F0" fill-rule="nonzero" points="2 7 11 7 11 8 2 8"/>
    <path fill="#A4A4A4" d="M11,10 L11,11 L5,11 L5,10 L11,10 Z M11,8 L11,9 L8,9 L8,8 L11,8 Z"/>
  </g>
</svg>
