<svg xmlns="http://www.w3.org/2000/svg" xmlns:xlink="http://www.w3.org/1999/xlink" width="16" height="16" viewBox="0 0 16 16">
  <defs>
    <linearGradient id="deepin-log-viewer-a" x1="39.599%" x2="75.302%" y1="13.265%" y2="86.735%">
      <stop offset="0%" stop-color="#3C3C3C"/>
      <stop offset="100%" stop-color="#2E2E2E"/>
    </linearGradient>
    <polygon id="deepin-log-viewer-b" points="0 0 11.61 0 11.61 9.675 0 9.675"/>
    <rect id="deepin-log-viewer-d" width="6.773" height="8.768" x="0" y="0"/>
    <linearGradient id="deepin-log-viewer-f" x1="0%" x2="100%" y1="50%" y2="50%">
      <stop offset="0%" stop-color="#A09AD3"/>
      <stop offset="49.618%" stop-color="#988DD9"/>
      <stop offset="100%" stop-color="#1654D2"/>
    </linearGradient>
    <linearGradient id="deepin-log-viewer-g" x1="0%" x2="100%" y1="50%" y2="50%">
      <stop offset="0%" stop-color="#A09AD3"/>
      <stop offset="49.618%" stop-color="#988DD9"/>
      <stop offset="100%" stop-color="#1654D2"/>
    </linearGradient>
    <rect id="deepin-log-viewer-h" width="4.838" height="2.903" x="0" y="0" rx=".031"/>
    <path id="deepin-log-viewer-j" d="M1.16869435,4.80738912 C1.55275786,4.80738912 1.86410284,5.1187341 1.86410284,5.5027976 L1.86410284,5.95632488 C1.86410284,6.34038838 1.55275786,6.65173337 1.16869435,6.65173337 C0.784630851,6.65173337 0.473285865,6.34038838 0.473285865,5.95632488 L0.473285865,5.5027976 C0.473285865,5.1187341 0.784630851,4.80738912 1.16869435,4.80738912 Z M2.82147921,4.71668366 C2.9940682,4.71668366 3.13397921,4.85659468 3.13397921,5.02918366 L3.13397921,6.24852791 C3.13397921,6.4211169 2.9940682,6.56102791 2.82147921,6.56102791 L2.75107072,6.56102791 C2.57848174,6.56102791 2.43857072,6.4211169 2.43857072,6.24852791 L2.43857072,5.02918366 C2.43857072,4.85659468 2.57848174,4.71668366 2.75107072,4.71668366 L2.82147921,4.71668366 Z M4.12159073,4.71668366 C4.29417972,4.71668366 4.43409073,4.85659468 4.43409073,5.02918366 L4.43409073,6.24852791 C4.43409073,6.4211169 4.29417972,6.56102791 4.12159073,6.56102791 L4.05118225,6.56102791 C3.87859326,6.56102791 3.73868225,6.4211169 3.73868225,6.24852791 L3.73868225,5.02918366 C3.73868225,4.85659468 3.87859326,4.71668366 4.05118225,4.71668366 L4.12159073,4.71668366 Z M1.1808945,5.43834899 C1.07982516,5.43834899 0.99470286,5.5066264 0.969136242,5.59957258 L0.961291822,5.65795167 L0.961291822,5.80117081 C0.961291822,5.92245402 1.05961129,6.02077349 1.1808945,6.02077349 C1.28196385,6.02077349 1.36708615,5.95249608 1.39265276,5.8595499 L1.40049718,5.80117081 L1.40049718,5.65795167 C1.40049718,5.53666846 1.30217771,5.43834899 1.1808945,5.43834899 Z M0.160785865,2.38857698 C0.33337485,2.38857698 0.473285865,2.528488 0.473285865,2.70107698 L0.473285865,3.92042123 C0.473285865,4.09301022 0.33337485,4.23292123 0.160785865,4.23292123 L0.0903773768,4.23292123 C0.059273428,4.23292123 0.0292308324,4.22837704 0.000877266869,4.21991633 L0.000877266869,2.40158189 C0.0292308324,2.39312118 0.059273428,2.38857698 0.0903773768,2.38857698 L0.160785865,2.38857698 Z M3.73868225,2.38857698 C4.12274575,2.38857698 4.43409073,2.69992197 4.43409073,3.08398547 L4.43409073,3.53751275 C4.43409073,3.92157625 4.12274575,4.23292123 3.73868225,4.23292123 C3.35461874,4.23292123 3.04327376,3.92157625 3.04327376,3.53751275 L3.04327376,3.08398547 C3.04327376,2.69992197 3.35461874,2.38857698 3.73868225,2.38857698 Z M1.74316224,2.38857698 C2.12722574,2.38857698 2.43857072,2.69992197 2.43857072,3.08398547 L2.43857072,3.53751275 C2.43857072,3.92157625 2.12722574,4.23292123 1.74316224,4.23292123 C1.35909873,4.23292123 1.04775375,3.92157625 1.04775375,3.53751275 L1.04775375,3.08398547 C1.04775375,2.69992197 1.35909873,2.38857698 1.74316224,2.38857698 Z M3.75088239,3.01953686 C3.64981305,3.01953686 3.56469075,3.08781427 3.53912413,3.18076045 L3.53127971,3.23913954 L3.53127971,3.38235868 C3.53127971,3.50364189 3.62959918,3.60196136 3.75088239,3.60196136 C3.85195174,3.60196136 3.93707404,3.53368395 3.96264066,3.44073777 L3.97048508,3.38235868 L3.97048508,3.23913954 C3.97048508,3.11785633 3.87216561,3.01953686 3.75088239,3.01953686 Z M1.75536238,3.01953686 C1.65429304,3.01953686 1.56917074,3.08781427 1.54360412,3.18076045 L1.5357597,3.23913954 L1.5357597,3.38235868 C1.5357597,3.50364189 1.63407917,3.60196136 1.75536238,3.60196136 C1.85643173,3.60196136 1.94155403,3.53368395 1.96712065,3.44073777 L1.97496507,3.38235868 L1.97496507,3.23913954 C1.97496507,3.11785633 1.8766456,3.01953686 1.75536238,3.01953686 Z M2.12607072,1.8189894e-12 C2.29865971,1.8189894e-12 2.43857072,0.139911016 2.43857072,0.3125 L2.43857072,1.53184425 C2.43857072,1.70443324 2.29865971,1.84434425 2.12607072,1.84434425 L2.05566224,1.84434425 C1.88307325,1.84434425 1.74316224,1.70443324 1.74316224,1.53184425 L1.74316224,0.3125 C1.74316224,0.139911016 1.88307325,1.8189894e-12 2.05566224,1.8189894e-12 L2.12607072,1.8189894e-12 Z M0.473285865,1.8189894e-12 C0.857349368,1.8189894e-12 1.16869435,0.311344985 1.16869435,0.695408488 L1.16869435,1.14893576 C1.16869435,1.53299927 0.857349368,1.84434425 0.473285865,1.84434425 C0.290467758,1.84434425 0.124126622,1.77379796 4.06619183e-14,1.65844291 L4.06619183e-14,0.185901341 C0.124126622,0.0705462954 0.290467758,1.8189894e-12 0.473285865,1.8189894e-12 Z M3.73868225,1.8189894e-12 C4.12274575,1.8189894e-12 4.43409073,0.311344985 4.43409073,0.695408488 L4.43409073,1.14893576 C4.43409073,1.53299927 4.12274575,1.84434425 3.73868225,1.84434425 C3.35461874,1.84434425 3.04327376,1.53299927 3.04327376,1.14893576 L3.04327376,0.695408488 C3.04327376,0.311344985 3.35461874,1.8189894e-12 3.73868225,1.8189894e-12 Z M0.485486014,0.630959876 C0.384416671,0.630959876 0.299294372,0.699237285 0.273727754,0.792183465 L0.265883334,0.850562556 L0.265883334,0.993781696 C0.265883334,1.11506491 0.364202803,1.21338438 0.485486014,1.21338438 C0.586555357,1.21338438 0.671677657,1.14510697 0.697244275,1.05216079 L0.705088695,0.993781696 L0.705088695,0.850562556 C0.705088695,0.729279345 0.606769226,0.630959876 0.485486014,0.630959876 Z M3.75088239,0.630959876 C3.64981305,0.630959876 3.56469075,0.699237285 3.53912413,0.792183465 L3.53127971,0.850562556 L3.53127971,0.993781696 C3.53127971,1.11506491 3.62959918,1.21338438 3.75088239,1.21338438 C3.85195174,1.21338438 3.93707404,1.14510697 3.96264066,1.05216079 L3.97048508,0.993781696 L3.97048508,0.850562556 C3.97048508,0.729279345 3.87216561,0.630959876 3.75088239,0.630959876 Z"/>
    <filter id="deepin-log-viewer-k" width="220.3%" height="220.3%" x="-60.1%" y="-60.1%" filterUnits="objectBoundingBox">
      <feOffset dy="-1" in="SourceAlpha" result="shadowOffsetOuter1"/>
      <feGaussianBlur in="shadowOffsetOuter1" result="shadowBlurOuter1" stdDeviation=".5"/>
      <feColorMatrix in="shadowBlurOuter1" result="shadowMatrixOuter1" values="0 0 0 0 0   0 0 0 0 0   0 0 0 0 0  0 0 0 0.15586757 0"/>
      <feMerge>
        <feMergeNode in="shadowMatrixOuter1"/>
        <feMergeNode in="SourceGraphic"/>
      </feMerge>
    </filter>
    <linearGradient id="deepin-log-viewer-l" x1="31.195%" x2="74.285%" y1="4.862%" y2="92.47%">
      <stop offset="0%" stop-color="#4F4F4F"/>
      <stop offset="100%" stop-color="#3F3F3F"/>
    </linearGradient>
  </defs>
  <g fill="none" fill-rule="evenodd" transform="rotate(-5 32.405 -4.44)">
    <path fill="url(#deepin-log-viewer-a)" d="M0.5,0 L13.0453479,0 C13.3214903,-1.03178132e-15 13.5453479,0.223857625 13.5453479,0.5 L13.5453479,11.1102982 C13.5453479,11.3864406 13.3214903,11.6102982 13.0453479,11.6102982 L0.5,11.6102982 C0.223857625,11.6102982 3.38176876e-17,11.3864406 0,11.1102982 L0,0.5 C-3.38176876e-17,0.223857625 0.223857625,5.07265313e-17 0.5,0 Z"/>
    <g transform="translate(.968 .968)">
      <mask id="deepin-log-viewer-c" fill="#fff">
        <use xlink:href="#deepin-log-viewer-b"/>
      </mask>
      <use fill="#695CC6" xlink:href="#deepin-log-viewer-b"/>
      <g mask="url(#deepin-log-viewer-c)">
        <g transform="translate(-.968 .968)">
          <mask id="deepin-log-viewer-e" fill="#fff">
            <use xlink:href="#deepin-log-viewer-d"/>
          </mask>
          <g mask="url(#deepin-log-viewer-e)">
            <g transform="translate(1.935 5.805)">
              <polygon fill="url(#deepin-log-viewer-f)" points="0 0 11.61 0 11.61 2.903 0 2.903"/>
              <rect width="1" height="1" x="2.903" y=".968" fill="#00C98F" rx=".156"/>
              <rect width="1" height="1" x="4.354" y=".968" fill="#FFB656" rx=".156"/>
              <rect width="1" height="1" x="9.191" y=".968" fill="#000" fill-opacity=".3" rx=".156"/>
              <rect width="1" height="1" x="7.74" y=".968" fill="#000" fill-opacity=".3" rx=".156"/>
              <circle cx="1.451" cy="1.451" r="1" fill="#326CFF"/>
              <circle cx="6.289" cy="1.451" r="1" fill="#482AC5"/>
            </g>
          </g>
        </g>
      </g>
      <g mask="url(#deepin-log-viewer-c)">
        <g transform="translate(-2.392 10.516)">
          <rect width="11.61" height="1.935" fill="url(#deepin-log-viewer-g)" rx=".313"/>
          <rect width="1" height="1" x="1.935" y=".484" fill="#00C98F" rx=".156"/>
          <rect width="1" height="1" x="3.87" y=".484" fill="#FF7D52" rx=".156"/>
          <rect width="1" height="1" x="5.321" y=".484" fill="#FFB656" rx=".156"/>
          <rect width="1" height="1" x="10.159" y=".484" fill="#000" fill-opacity=".3" rx=".156"/>
          <rect width="1" height="1" x="8.708" y=".484" fill="#000" fill-opacity=".3" rx=".156"/>
          <circle cx=".968" cy=".968" r="1" fill="#326CFF"/>
          <circle cx="7.256" cy=".968" r="1" fill="#482AC5"/>
        </g>
      </g>
    </g>
    <g opacity=".3" transform="translate(6.773 7.74)">
      <mask id="deepin-log-viewer-i" fill="#fff">
        <use xlink:href="#deepin-log-viewer-h"/>
      </mask>
      <g fill="#FFF" fill-rule="nonzero" mask="url(#deepin-log-viewer-i)" opacity=".797">
        <path d="M7.14486044,0 C7.35676786,0 7.52855277,0.172876824 7.52855277,0.379460934 L7.52855277,2.52311363 C7.52855277,2.73268411 7.35716316,2.90257456 7.14486044,2.90257456 L0.383692327,2.90257456 C0.171784906,2.90257456 0,2.72969774 0,2.52311363 L0,0.379460934 C0,0.169890447 0.171389603,0 0.383692327,0 L7.14486044,0 Z M6.528,1 L1,1 L1,1.902 L6.528,1.902 L6.528,1 Z" transform="translate(-.968)"/>
      </g>
    </g>
    <use fill="#FFF" fill-opacity=".297" opacity=".546" transform="translate(7.739 1.983)" xlink:href="#deepin-log-viewer-j"/>
    <path fill="#FFF" fill-opacity=".297" d="M3.87009941,1.93504971 L3.87009941,6.43313172 L1.93504971,6.43313172 L1.93504971,1.93504971 L3.87009941,1.93504971 Z M6.77267397,3.220216 L6.77267397,6.43313172 L4.83762427,6.43313172 L4.83762427,3.220216 L6.77267397,3.220216 Z M6.77267397,1.93504971 L6.77267397,2.57763285 L4.83762427,2.57763285 L4.83762427,1.93504971 L6.77267397,1.93504971 Z"/>
    <g filter="url(#deepin-log-viewer-k)" transform="translate(7.226 6.591)">
      <path fill="url(#deepin-log-viewer-l)" d="M2.02994772,0.259833335 C1.62503925,0.433056112 1.27210243,0.670152159 0.971127296,0.971127296 C0.670151993,1.27210243 0.433056445,1.62503925 0.259833335,2.02994772 C0.0866102247,2.43485702 9.09494702e-13,2.86682558 9.09494702e-13,3.32586668 C9.09494702e-13,3.78490779 0.0866102247,4.21687635 0.259833335,4.62178565 C0.433056445,5.02669412 0.670151993,5.37963093 0.971127296,5.68060607 C1.27210243,5.98158138 1.62503925,6.21867692 2.02994772,6.39190003 C2.43485702,6.56512314 2.86682558,6.65173337 3.32586668,6.65173337 C3.78490779,6.65173337 4.21687635,6.56512314 4.62178565,6.39190003 C5.02669412,6.21867692 5.37963093,5.98158138 5.68060607,5.68060607 C5.98158121,5.37963093 6.21867726,5.02669412 6.39190003,4.62178565 C6.56512281,4.21687635 6.65173337,3.78490779 6.65173337,3.32586668 C6.65173337,2.86682558 6.56512281,2.43485702 6.39190003,2.02994772 C6.21867726,1.62503925 5.98158121,1.27210243 5.68060607,0.971127296 C5.37963093,0.670152159 5.02669412,0.433056112 4.62178565,0.259833335 C4.21687635,0.0866105573 3.78490779,-9.09494702e-13 3.32586668,-9.09494702e-13 C2.86682558,-9.09494702e-13 2.43485702,0.0866105573 2.02994772,0.259833335 Z"/>
      <path fill="#FFF" d="M3.34105329,0.69858387 C2.9763357,0.69858387 2.6331278,0.767397737 2.31141904,0.905026793 C1.98971094,1.04265585 1.70929539,1.23103353 1.47016446,1.47016446 C1.2310334,1.70929539 1.04265611,1.98971094 0.905026793,2.31141904 C0.767397473,2.6331278 0.69858387,2.9763357 0.69858387,3.34105329 C0.69858387,3.70577088 0.767397473,4.04897877 0.905026793,4.37068754 C1.04265611,4.69239564 1.2310334,4.97281119 1.47016446,5.21194212 C1.70929539,5.45107318 1.98971094,5.63945047 2.31141904,5.77707979 C2.6331278,5.91470911 2.9763357,5.98352271 3.34105329,5.98352271 C3.70577088,5.98352271 4.04897877,5.91470911 4.37068754,5.77707979 C4.69239564,5.63945047 4.97281119,5.45107318 5.21194212,5.21194212 C5.45107305,4.97281119 5.63945073,4.69239564 5.77707979,4.37068754 C5.91470884,4.04897877 5.98352271,3.70577088 5.98352271,3.34105329 C5.98352271,2.9763357 5.91470884,2.6331278 5.77707979,2.31141904 C5.63945073,1.98971094 5.45107305,1.70929539 5.21194212,1.47016446 C4.97281119,1.23103353 4.69239564,1.04265585 4.37068754,0.905026793 C4.04897877,0.767397737 3.70577088,0.69858387 3.34105329,0.69858387 L3.34105329,0.69858387 Z"/>
      <path fill="#7F7F7F" d="M2.41082772,2.78784484 L3.58466302,2.78784484 L3.58466302,2.78784484 L2.41082772,2.78784484 L2.41082772,2.78784484 L2.41082772,2.78784484 Z" transform="rotate(-113 2.998 2.788)"/>
      <path fill="#FD6C6C" d="M3.03732117,3.21956044 L4.54079515,3.21956044 C4.63305579,3.21956044 4.70784782,3.29435247 4.70784782,3.38661311 C4.70784782,3.47887375 4.63305579,3.55366577 4.54079515,3.55366577 L3.11394388,3.55366577 L3.11394388,3.55366577 L3.03732117,3.21956044 Z"/>
      <path fill="#7F7F7F" d="M2.41301719,2.51579373 L3.33223003,2.51579373 C3.46582667,2.51579373 3.57412814,2.62409521 3.57412814,2.75769185 C3.57412814,2.89128849 3.46582667,2.99958996 3.33223003,2.99958996 L2.41301719,2.99958996 L2.41301719,2.99958996 L2.41301719,2.51579373 Z" transform="rotate(-113 2.994 2.758)"/>
      <circle cx="3.235" cy="3.295" r="1" fill="#4D4D4D"/>
    </g>
  </g>
</svg>
