<?xml version="1.0" encoding="UTF-8"?>
<svg width="16px" height="16px" viewBox="0 0 16 16" version="1.1" xmlns="http://www.w3.org/2000/svg" xmlns:xlink="http://www.w3.org/1999/xlink">
    <!-- Generator: Sketch 42 (36781) - http://www.bohemiancoding.com/sketch -->
    <title>deepin-screen-recorder</title>
    <desc>Created with Sketch.</desc>
    <defs>
        <linearGradient x1="50%" y1="0%" x2="50%" y2="100%" id="linearGradient-1">
            <stop stop-color="#FF7C44" offset="0%"></stop>
            <stop stop-color="#FF4E5A" offset="100%"></stop>
        </linearGradient>
    </defs>
    <g id="Page-1" stroke="none" stroke-width="1" fill="none" fill-rule="evenodd">
        <g id="deepin-screen-recorder">
            <rect id="Rectangle-183" fill="url(#linearGradient-1)" transform="translate(8.000000, 8.166667) rotate(-6.000000) translate(-8.000000, -8.166667) " x="1.33333333" y="2.33333333" width="13.3333333" height="11.6666667" rx="0.333333333"></rect>
            <path d="M9.43248072,6.82960488 L11.6046246,5.46795547 C11.7825191,5.35643896 11.9450226,5.43504989 11.9675457,5.64316275 L12.4173028,9.79889999 C12.4398441,10.0071808 12.2978506,10.1195766 12.1005272,10.0500752 L9.68141048,9.19801334 L9.73389013,9.69732392 C9.77781296,10.1152217 9.47489206,10.4895754 9.05775132,10.5334187 L4.14624953,11.0496383 C3.72890555,11.0935029 3.35509897,10.7914693 3.31105211,10.3723914 L2.95388265,6.97415102 C2.90995982,6.55625326 3.21288072,6.18189954 3.63002146,6.13805628 L8.54152325,5.62183664 C8.95886723,5.57797202 9.33267381,5.88000564 9.37672068,6.29908354 L9.43248072,6.82960488 L9.43248072,6.82960488 Z M9.43248072,6.82960488 L7.42514617,8.08794042 C7.24740321,8.19936194 7.26313833,8.34624891 7.46062999,8.41580947 L9.68141048,9.19801334 L9.43248072,6.82960488 L9.43248072,6.82960488 Z" id="Combined-Shape" fill="#FFFFFF"></path>
            <polygon id="Path-48" fill="#FFFFFF" opacity="0.3" transform="translate(12.806856, 7.661446) rotate(-6.000000) translate(-12.806856, -7.661446) " points="10.9735225 5.82811243 14.6401892 3.99477909 14.6401892 11.3281124 10.9735225 9.49477909"></polygon>
            <circle id="Oval" fill="#FFFFFF" cx="13.25" cy="2.875" r="0.375"></circle>
        </g>
    </g>
</svg>