<?xml version="1.0" encoding="UTF-8" standalone="no"?>
<svg width="16px" height="16px" viewBox="0 0 16 16" version="1.1" xmlns="http://www.w3.org/2000/svg" xmlns:xlink="http://www.w3.org/1999/xlink">
    <!-- Generator: Sketch 39.1 (31720) - http://www.bohemiancoding.com/sketch -->
    <title>chrome-16px</title>
    <desc>Created with Sketch.</desc>
    <defs>
        <linearGradient x1="49.9991752%" y1="-0.00154750851%" x2="49.9991752%" y2="100.000774%" id="linearGradient-1">
            <stop stop-color="#F7503B" offset="0%"></stop>
            <stop stop-color="#F34735" offset="21.74%"></stop>
            <stop stop-color="#E72F25" offset="57.19%"></stop>
            <stop stop-color="#D5090D" offset="100%"></stop>
        </linearGradient>
        <linearGradient x1="49.9979635%" y1="-0.000919624793%" x2="49.9979635%" y2="100.00092%" id="linearGradient-2">
            <stop stop-color="#35C230" offset="0%"></stop>
            <stop stop-color="#34BE30" offset="34.83%"></stop>
            <stop stop-color="#31B331" offset="68.09%"></stop>
            <stop stop-color="#2CA032" offset="100%"></stop>
        </linearGradient>
        <linearGradient x1="49.99875%" y1="0.00125%" x2="49.99875%" y2="100.00125%" id="linearGradient-3">
            <stop stop-color="#47BAFF" offset="0%"></stop>
            <stop stop-color="#3D8BFF" offset="100%"></stop>
        </linearGradient>
    </defs>
    <g id="Page-1" stroke="none" stroke-width="1" fill="none" fill-rule="evenodd">
        <g id="chrome-16px">
            <path d="M14.3033333,4.91766667 C13.158,2.60566667 10.7713333,1.015 8.012,1.015 C5.59566667,1.015 3.44133333,2.26966667 2.17933333,4.12433333 L5.402,9.631 L14.3033333,4.91766667 L14.3033333,4.91766667 Z" id="path11852" fill="url(#linearGradient-1)"></path>
            <path d="M7.543,14.9983333 C10.1216667,15.1766667 12.6486667,13.893 14.04,11.5153333 C15.258,9.43366667 15.2723333,6.94 14.303,4.91766667 L7.96766667,4.90433333 L7.543,14.9983333 L7.543,14.9983333 Z" id="path11854" fill="#FFCF00"></path>
            <path d="M5.402,9.631 L2.17933333,4.12433333 C1.43166667,5.237 0.995333333,6.57533333 0.995333333,8.01533333 C0.995333333,11.7243333 3.887,14.758 7.54333333,14.9983333 L10.8163333,9.422 L5.402,9.631 L5.402,9.631 Z" id="path11865" fill="url(#linearGradient-2)"></path>
            <path d="M8,11.5 C6.0701,11.5 4.5,9.92955 4.5,7.99965 C4.5,6.06975 6.0701,4.5 8,4.5 C9.92955,4.5 11.5,6.06975 11.5,7.99965 C11.5,9.92955 9.92955,11.5 8,11.5 L8,11.5 Z" id="path11878" fill="#FFFFFF"></path>
            <circle id="circle11885" fill="url(#linearGradient-3)" cx="8" cy="8" r="2.5"></circle>
        </g>
    </g>
</svg>