<svg xmlns="http://www.w3.org/2000/svg" xmlns:xlink="http://www.w3.org/1999/xlink" width="512" height="512" viewBox="0 0 512 512">
  <defs>
    <linearGradient id="application-vnd.nokia.xml.qt.resource-c" x1="50%" x2="50%" y1="0%" y2="98.501%">
      <stop offset="0%" stop-color="#7FCB10"/>
      <stop offset="100%" stop-color="#50A100"/>
    </linearGradient>
    <path id="application-vnd.nokia.xml.qt.resource-b" d="M232,0 L336,104 L336,380 C336,399.882251 319.882251,416 300,416 L36,416 C16.117749,416 2.4348735e-15,399.882251 0,380 L0,36 C-2.4348735e-15,16.117749 16.117749,3.65231026e-15 36,0 L232,0 Z"/>
    <filter id="application-vnd.nokia.xml.qt.resource-a" width="127.4%" height="122.1%" x="-13.7%" y="-9.1%" filterUnits="objectBoundingBox">
      <feOffset dy="8" in="SourceAlpha" result="shadowOffsetOuter1"/>
      <feGaussianBlur in="shadowOffsetOuter1" result="shadowBlurOuter1" stdDeviation="14"/>
      <feColorMatrix in="shadowBlurOuter1" values="0 0 0 0 0.46370117   0 0 0 0 0.679376132   0 0 0 0 0  0 0 0 0.5 0"/>
    </filter>
    <linearGradient id="application-vnd.nokia.xml.qt.resource-f" x1="50%" x2="7.994%" y1="50%" y2="88.893%">
      <stop offset="0%" stop-color="#FFF" stop-opacity=".1"/>
      <stop offset="100%" stop-color="#FFF" stop-opacity=".3"/>
    </linearGradient>
    <path id="application-vnd.nokia.xml.qt.resource-e" d="M232,0 L336,104 L268,104 C248.117749,104 232,87.882251 232,68 L232,0 Z"/>
    <filter id="application-vnd.nokia.xml.qt.resource-d" width="126.9%" height="126.9%" x="-13.5%" y="-9.6%" filterUnits="objectBoundingBox">
      <feOffset dy="4" in="SourceAlpha" result="shadowOffsetOuter1"/>
      <feGaussianBlur in="shadowOffsetOuter1" result="shadowBlurOuter1" stdDeviation="4"/>
      <feComposite in="shadowBlurOuter1" in2="SourceAlpha" operator="out" result="shadowBlurOuter1"/>
      <feColorMatrix in="shadowBlurOuter1" values="0 0 0 0 0   0 0 0 0 0   0 0 0 0 0  0 0 0 0.05 0"/>
    </filter>
  </defs>
  <g fill="none" fill-rule="evenodd">
    <g transform="translate(88 56)">
      <use fill="#000" filter="url(#application-vnd.nokia.xml.qt.resource-a)" xlink:href="#application-vnd.nokia.xml.qt.resource-b"/>
      <use fill="url(#application-vnd.nokia.xml.qt.resource-c)" xlink:href="#application-vnd.nokia.xml.qt.resource-b"/>
      <use fill="#000" filter="url(#application-vnd.nokia.xml.qt.resource-d)" xlink:href="#application-vnd.nokia.xml.qt.resource-e"/>
      <use fill="url(#application-vnd.nokia.xml.qt.resource-f)" xlink:href="#application-vnd.nokia.xml.qt.resource-e"/>
    </g>
    <path fill="#FFF" d="M268 334.765625C261.325363 336.734385 254.727546 337.71875 248.206349 337.71875 231.327958 337.71875 220.395528 328.968838 215.40873 311.46875 212.416652 311.979169 209.884931 312.234375 207.813492 312.234375 189.707581 312.234375 175.879016 305.398506 166.327381 291.726562 156.775746 278.054619 152 258.203255 152 232.171875 152 206.140495 156.756566 186.270902 166.269841 172.5625 175.783116 158.854098 189.630861 152 207.813492 152 225.996123 152 239.863047 158.835869 249.414683 172.507812 258.966318 186.179756 263.742063 206.067578 263.742063 232.171875 263.742063 270.088731 253.768618 294.734318 233.821429 306.109375 236.660067 316.755262 242.068743 322.078125 250.047619 322.078125 254.497377 322.078125 259.369021 321.531255 264.662698 320.4375L268 334.765625zM207.948636 296C197.470253 296 189.525977 290.544376 184.11557 279.632965 178.705163 268.721554 176 252.862183 176 232.054376 176 211.464072 178.722284 195.64095 184.166934 184.584537 189.611584 173.528124 197.538739 168 207.948636 168 229.316319 168 240 189.351245 240 232.054376 240 274.685005 229.316319 296 207.948636 296zM336 312L320 312C311.39579 312 288 308 288 276L288 207.99956 272 207.99956 272 192 288 192 288 164 312.195037 151.99956 312.195037 192 336 192 336 207.99956 312.195037 207.99956 312.195037 275.921435C312.195037 281.754798 312.195037 291.99956 323.132537 291.99956 325.976302 291.99956 328.892939 291.707897 331.882537 291.12456L336 312zM304 448L296 448 296 420C296 420 292 432.356679 279.647688 432.356679 272.973865 432.356679 267.364192 429.775324 262.818502 424.612538 258.272811 419.449752 256 412.484327 256 403.716054 256 395.48945 258.060001 388.811782 262.180065 383.682851 266.300129 378.553919 272 376 280 376 292 376 296 386.399994 296 386.399994L296 376 304 376 304 448zM280.166667 424.841054C284.870394 424.841054 288.685171 423.114508 291.611111 419.661366 294.537052 416.208224 296 411.147077 296 404.477772 296 398.180866 294.481497 393.052011 291.444444 389.091054 288.407392 385.130096 284.500024 383.149647 279.722222 383.149647 275.129607 383.149647 271.361126 384.926973 268.416667 388.481679 265.472208 392.036384 264 397.114458 264 403.716054 264 408.354098 264.685178 412.247288 266.055556 415.395741 267.425933 418.544194 269.370358 420.905499 271.888889 422.479726 274.40742 424.053952 277.166652 424.841054 280.166667 424.841054zM349.017702 378.884022L345.869265 387.31371C343.601024 385.993391 341.383599 385.333241 339.216921 385.333241 335.797633 385.333241 333.207815 386.865127 331.44739 389.928944 329.686964 392.992762 328.19739 398.476489 328.19739 403.994746L327.994265 432 320 432 320.203125 375.989491 328.19739 375.989491 327.994265 385.333241 328.19739 385.333241C331.108863 379.104043 334.917419 375.989491 339.623171 375.989491 342.73777 375.989491 345.869249 376.954325 349.017702 378.884022zM399.040001 412.212915C397.854682 419.040576 395.145422 424.043529 390.912139 427.221924 386.678856 430.400318 381.886852 431.989491 376.535983 431.989491 368.712877 431.989491 362.66784 429.441769 358.400691 424.346248 354.133542 419.250727 352 412.498843 352 404.090392 352 397.128195 353.227634 391.553476 355.682937 387.366068 358.138241 383.178659 361.211558 380.235746 364.902981 378.537239 368.594403 376.838732 372.472032 375.989491 376.535983 375.989491 382.09005 375.989491 386.839722 377.418906 390.785141 380.27778 394.730561 383.136653 397.160428 387.340815 398.074817 392.890392L389.235767 394.252554C388.321378 390.653737 386.839752 387.946257 384.790843 386.130032 382.741934 384.313806 380.125805 383.405707 376.942376 383.405707 371.828571 383.405707 367.950942 385.205089 365.309374 388.803906 362.667806 392.402722 361.347041 397.4309 361.347041 403.88859 361.347041 410.480815 362.642406 415.567852 365.233175 419.149852 367.823944 422.731851 371.557643 424.522825 376.434385 424.522825 380.362871 424.522825 383.453121 423.404517 385.705227 421.16787 387.957334 418.931222 389.371229 415.5763 389.946955 411.103005L399.040001 412.212915z"/>
  </g>
</svg>
