<?xml version="1.0" encoding="UTF-8"?>
<svg width="22px" height="22px" viewBox="0 0 22 22" version="1.1" xmlns="http://www.w3.org/2000/svg" xmlns:xlink="http://www.w3.org/1999/xlink">
    <!-- Generator: Sketch 41.2 (35397) - http://www.bohemiancoding.com/sketch -->
    <title>network-server-24px copy</title>
    <desc>Created with Sketch.</desc>
    <defs>
        <linearGradient x1="57.1541174%" y1="0%" x2="57.154119%" y2="100%" id="linearGradient-1">
            <stop stop-color="#6AC4FF" offset="0%"></stop>
            <stop stop-color="#6CCDFC" offset="96.2651467%"></stop>
            <stop stop-color="#6AC4FF" offset="100%"></stop>
        </linearGradient>
    </defs>
    <g id="Page-1" stroke="none" stroke-width="1" fill="none" fill-rule="evenodd">
        <g id="network-server-24px-copy">
            <g id="Group" transform="translate(2.000000, 3.000000)">
                <polygon id="Combined-Shape" fill="#6AC4FF" points="11 0 16 0 16 14.9951324 2 14.9951324 2 1 10 1"></polygon>
                <polygon id="Rectangle-279" fill="#FFFFFF" points="1 15 1.00000001 2 17.0000007 2 17.0000007 15"></polygon>
                <polygon id="Rectangle-279" fill="url(#linearGradient-1)" points="1.71667125e-11 16 0 3 18 3 18 16"></polygon>
            </g>
            <g id="Group" transform="translate(6.000000, 7.000000)" stroke="#2CA7F8" stroke-linecap="round" stroke-linejoin="round">
                <path d="M9.5,5 C9.5,7.48505882 7.48505882,9.5 5,9.5 C2.51494118,9.5 0.5,7.48505882 0.5,5 C0.5,2.51494118 2.51494118,0.5 5,0.5 C7.48505882,0.5 9.5,2.51494118 9.5,5 L9.5,5 Z" id="Stroke-1"></path>
                <path d="M9.16666667,6.25 C3.5,8.00000016 1.85,3.94555556 1.25,2.91666667" id="Stroke-3"></path>
                <path d="M1.5,7.5 C1.72833333,6.30388889 3.5,3.125 8.5,2.5" id="Stroke-5"></path>
                <path d="M5.5,9.5 C7.5,4 4.61555556,1.575 3.5,1" id="Stroke-7"></path>
            </g>
        </g>
    </g>
</svg>