<?xml version="1.0" encoding="UTF-8"?>
<svg width="22px" height="22px" viewBox="0 0 22 22" version="1.1" xmlns="http://www.w3.org/2000/svg" xmlns:xlink="http://www.w3.org/1999/xlink">
    <!-- Generator: Sketch 41.2 (35397) - http://www.bohemiancoding.com/sketch -->
    <title>user-trash-full-opened</title>
    <desc>Created with Sketch.</desc>
    <defs></defs>
    <g id="Page-1" stroke="none" stroke-width="1" fill="none" fill-rule="evenodd">
        <g id="user-trash-full-opened">
            <path d="M4.48867309,18.4248204 C4.56772675,19.2961893 5.33767078,20 6.2086792,20 L15.7913208,20 C16.6576325,20 17.4324022,19.2947681 17.5113269,18.4248204 L19,5 L19.5,5 C20.1258202,5 20.5,4.5825414 20.5,4 C20.5,3.41339723 20.0821835,3 19.5,3 L2.55413643,3 C1.97465831,3 1.5,3.4174586 1.5,4 C1.5,4.58660277 1.97195296,5 2.55413643,5 L3,5 L4.48867309,18.4248204 Z" id="Combined-Shape" fill="#FFFFFF"></path>
            <g id="Group" transform="translate(5.100000, 7.300000)">
                <path d="M0.729446728,10.2218926 C0.729446728,10.2218926 0.729446727,11.0790036 1.56310018,11.0790036 C2.16007545,11.0790036 7.2873413,11.0790036 7.2873413,11.0790036 L6.98068925,7.90351792 L0.561885941,8.1171147 L0.729446728,10.2218926 Z" id="Path-900" fill="#617B13"></path>
                <polygon id="Path-898" fill="#6D8700" transform="translate(7.953895, 4.444252) rotate(-20.000000) translate(-7.953895, -4.444252) " points="4.08502283 3.58617081 10.9937224 1.58398037 11.8227664 4.73027964 4.6377188 7.30452449"></polygon>
                <polygon id="Path-896" fill="#839928" points="0.36936091 5.90759357 0.649058717 9.22187536 3.75205296 10.3266358 7.13474525 1.83922229 2.82846691 0.0155378525"></polygon>
                <polygon id="Path-895" fill="#748D10" points="2.71274043 11.0741221 3.42648227 11.082072 7.36890062 4.61870651 4.2814057 2.77743904 1.19391077 7.74886129"></polygon>
                <polygon id="Path-897" fill="#6D8700" points="0.830676034 2.40918555 9.9115433 7.38060769 8.45860468 10.1425089 0.358475398 5.90759372 0.158700748 3.69807278"></polygon>
                <path d="M7.05033975,9.78343588 C6.85383113,10.2152918 6.46081389,11.0790038 6.46081389,11.0790038 C6.46081389,11.0790038 9.27439412,11.0790036 10.1080475,11.0790036 C10.9417009,11.0790036 11.0250714,10.2218924 11.0250714,10.2218924 L11.6589968,3.8622074 L9.89257048,3.53722507 L7.05033975,9.78343588 Z" id="Path-899" fill="#869D29"></path>
                <polygon id="Path-894" fill="#90A72F" points="0.431126771 6.64410072 0.495623384 7.50349117 6.56502075 10.8545174 8.02391381 7.69139146 1.55714546 4.06632627"></polygon>
            </g>
        </g>
    </g>
</svg>