<svg xmlns="http://www.w3.org/2000/svg" xmlns:xlink="http://www.w3.org/1999/xlink" width="32" height="32" viewBox="0 0 32 32">
  <defs>
    <filter id="folder-music-stack-a" width="128.6%" height="132%" x="-14.3%" y="-16%" filterUnits="objectBoundingBox">
      <feOffset dy="1" in="SourceAlpha" result="shadowOffsetOuter1"/>
      <feGaussianBlur in="shadowOffsetOuter1" result="shadowBlurOuter1" stdDeviation=".5"/>
      <feColorMatrix in="shadowBlurOuter1" result="shadowMatrixOuter1" values="0 0 0 0 0   0 0 0 0 0   0 0 0 0 0  0 0 0 0.15 0"/>
      <feMerge>
        <feMergeNode in="shadowMatrixOuter1"/>
        <feMergeNode in="SourceGraphic"/>
      </feMerge>
    </filter>
    <path id="folder-music-stack-b" d="M15.4227912,1.53061224 C15.8115247,2.45784549 16.718745,3.06122449 17.7241679,3.06122449 L27,3.06122449 C27.5522847,3.06122449 28,3.50893974 28,4.06122449 L28,23 C28,23.5522847 27.5522847,24 27,24 L1,24 C0.44771525,24 6.76353751e-17,23.5522847 0,23 L0,1 C-2.8967998e-16,0.44771525 0.44771525,-9.5692398e-18 1,0 L13.1214146,0 C14.1268375,2.59396016e-16 15.0340577,0.603379002 15.4227912,1.53061224 Z"/>
    <filter id="folder-music-stack-c" width="107.1%" height="108.3%" x="-3.6%" y="-4.2%" filterUnits="objectBoundingBox">
      <feOffset dy="2" in="SourceAlpha" result="shadowOffsetInner1"/>
      <feComposite in="shadowOffsetInner1" in2="SourceAlpha" k2="-1" k3="1" operator="arithmetic" result="shadowInnerInner1"/>
      <feColorMatrix in="shadowInnerInner1" values="0 0 0 0 1   0 0 0 0 1   0 0 0 0 1  0 0 0 0.5 0"/>
    </filter>
    <radialGradient id="folder-music-stack-d" cx="50%" cy="0%" r="116.81%" fx="50%" fy="0%" gradientTransform="matrix(.06171 .99538 -.63989 .096 .47 -.498)">
      <stop offset="0%" stop-color="#FFE8D8"/>
      <stop offset="100%" stop-color="#EEC0AB"/>
    </radialGradient>
    <path id="folder-music-stack-e" d="M0,0 L28,0 L28,17 C28,17.5522847 27.5522847,18 27,18 L1,18 C0.44771525,18 6.76353751e-17,17.5522847 0,17 L0,0 L0,0 Z"/>
  </defs>
  <g fill="none" fill-rule="evenodd" filter="url(#folder-music-stack-a)" transform="translate(2 5)">
    <use fill="#E8BB9E" xlink:href="#folder-music-stack-b"/>
    <use fill="#000" filter="url(#folder-music-stack-c)" xlink:href="#folder-music-stack-b"/>
    <path fill="#A8786D" fill-rule="nonzero" d="M13.1214146,0 C14.0676949,0 14.9269861,0.534481054 15.3488945,1.37040155 L15.4227912,1.53061224 C15.8115247,2.45784549 16.718745,3.06122449 17.7241679,3.06122449 L27,3.06122449 C27.5522847,3.06122449 28,3.50893974 28,4.06122449 L28,23 C28,23.5522847 27.5522847,24 27,24 L1,24 C0.44771525,24 0,23.5522847 0,23 L0,1 C0,0.44771525 0.44771525,0 1,0 L13.1214146,0 Z M13.1214146,1 L1,1 L1,23 L27,23 L27,4.06122449 L17.7241679,4.06122449 C16.3829044,4.06122449 15.1664079,3.29462909 14.5954657,2.12748259 L14.4561603,1.82098518 C14.2236899,1.36039531 13.7706063,1.0543646 13.2615208,1.00655802 L13.1214146,1 Z"/>
    <path fill="#FFF" d="M3,5 L25,5 C25.5522847,5 26,5.44771525 26,6 L26,15 C26,15.5522847 25.5522847,16 25,16 L3,16 C2.44771525,16 2,15.5522847 2,15 L2,6 C2,5.44771525 2.44771525,5 3,5 Z"/>
    <path fill="#A8786D" fill-rule="nonzero" d="M25,5 C25.5522847,5 26,5.44771525 26,6 L26,15 C26,15.5522847 25.5522847,16 25,16 L3,16 C2.44771525,16 2,15.5522847 2,15 L2,6 C2,5.44771525 2.44771525,5 3,5 L25,5 Z M25,6 L3,6 L3,15 L25,15 L25,6 Z"/>
    <path fill="url(#folder-music-stack-d)" d="M0,7 L28,7 L28,24 C28,24.5522847 27.5522847,25 27,25 L1,25 C0.44771525,25 6.76353751e-17,24.5522847 0,24 L0,7 L0,7 Z"/>
    <g transform="translate(0 7)">
      <mask id="folder-music-stack-f" fill="#fff">
        <use xlink:href="#folder-music-stack-e"/>
      </mask>
      <g stroke="#925D51" mask="url(#folder-music-stack-f)">
        <g transform="translate(6 4)">
          <path fill="#3B1808" fill-opacity=".249" d="M8,0.533569336 C12.1421356,0.533569336 15.5,3.89143371 15.5,8.03356934 C15.5,12.175705 12.1421356,15.5335693 8,15.5335693 C3.85786438,15.5335693 0.5,12.175705 0.5,8.03356934 C0.5,3.89143371 3.85786438,0.533569336 8,0.533569336 Z M6.75,6.35963125 C6.61192881,6.35963125 6.5,6.47156006 6.5,6.60963125 L6.5,6.60963125 L6.5,9.45750743 C6.5,9.50436235 6.51316736,9.55027426 6.53800042,9.59000716 C6.61117801,9.70709129 6.7654156,9.74268458 6.88249974,9.669507 L6.88249974,9.669507 L9.16080068,8.24556891 C9.19299296,8.22544874 9.22018034,8.19826135 9.24030052,8.16606907 C9.3134781,8.04898494 9.27788481,7.89474734 9.16080068,7.82156976 L9.16080068,7.82156976 L6.88249974,6.39763167 C6.84276683,6.37279861 6.79685493,6.35963125 6.75,6.35963125 Z"/>
          <circle cx="8" cy="8.034" r="5.5"/>
          <circle cx="8" cy="8.034" r="3.5"/>
        </g>
      </g>
    </g>
    <path fill="#A17461" fill-rule="nonzero" d="M28,7 L28,24 C28,24.5522847 27.5522847,25 27,25 L1,25 C0.44771525,25 0,24.5522847 0,24 L0,7 L28,7 Z M27,8 L1,8 L1,24 L27,24 L27,8 Z"/>
  </g>
</svg>
