<svg xmlns="http://www.w3.org/2000/svg" xmlns:xlink="http://www.w3.org/1999/xlink" width="32" height="32" viewBox="0 0 32 32">
  <defs>
    <filter id="folder-documents-stack-a" width="128.6%" height="132%" x="-14.3%" y="-16%" filterUnits="objectBoundingBox">
      <feOffset dy="1" in="SourceAlpha" result="shadowOffsetOuter1"/>
      <feGaussianBlur in="shadowOffsetOuter1" result="shadowBlurOuter1" stdDeviation=".5"/>
      <feColorMatrix in="shadowBlurOuter1" result="shadowMatrixOuter1" values="0 0 0 0 0   0 0 0 0 0   0 0 0 0 0  0 0 0 0.15 0"/>
      <feMerge>
        <feMergeNode in="shadowMatrixOuter1"/>
        <feMergeNode in="SourceGraphic"/>
      </feMerge>
    </filter>
    <path id="folder-documents-stack-b" d="M15.4227912,1.53061224 C15.8115247,2.45784549 16.718745,3.06122449 17.7241679,3.06122449 L27,3.06122449 C27.5522847,3.06122449 28,3.50893974 28,4.06122449 L28,23 C28,23.5522847 27.5522847,24 27,24 L1,24 C0.44771525,24 6.76353751e-17,23.5522847 0,23 L0,1 C-2.8967998e-16,0.44771525 0.44771525,-9.5692398e-18 1,0 L13.1214146,0 C14.1268375,2.59396016e-16 15.0340577,0.603379002 15.4227912,1.53061224 Z"/>
    <filter id="folder-documents-stack-c" width="107.1%" height="108.3%" x="-3.6%" y="-4.2%" filterUnits="objectBoundingBox">
      <feOffset dy="2" in="SourceAlpha" result="shadowOffsetInner1"/>
      <feComposite in="shadowOffsetInner1" in2="SourceAlpha" k2="-1" k3="1" operator="arithmetic" result="shadowInnerInner1"/>
      <feColorMatrix in="shadowInnerInner1" values="0 0 0 0 1   0 0 0 0 1   0 0 0 0 1  0 0 0 0.5 0"/>
    </filter>
    <radialGradient id="folder-documents-stack-d" cx="50%" cy="0%" r="116.81%" fx="50%" fy="0%" gradientTransform="matrix(.06171 .99538 -.63989 .096 .47 -.498)">
      <stop offset="0%" stop-color="#FFEFDC"/>
      <stop offset="100%" stop-color="#E3BF9F"/>
    </radialGradient>
    <path id="folder-documents-stack-e" d="M0,0 L28,0 L28,17 C28,17.5522847 27.5522847,18 27,18 L1,18 C0.44771525,18 6.76353751e-17,17.5522847 0,17 L0,0 L0,0 Z"/>
  </defs>
  <g fill="none" fill-rule="evenodd" filter="url(#folder-documents-stack-a)" transform="translate(2 5)">
    <use fill="#DFBE98" xlink:href="#folder-documents-stack-b"/>
    <use fill="#000" filter="url(#folder-documents-stack-c)" xlink:href="#folder-documents-stack-b"/>
    <path fill="#A37B66" fill-rule="nonzero" d="M13.1214146,0 C14.0676949,0 14.9269861,0.534481054 15.3488945,1.37040155 L15.4227912,1.53061224 C15.8115247,2.45784549 16.718745,3.06122449 17.7241679,3.06122449 L27,3.06122449 C27.5522847,3.06122449 28,3.50893974 28,4.06122449 L28,23 C28,23.5522847 27.5522847,24 27,24 L1,24 C0.44771525,24 0,23.5522847 0,23 L0,1 C0,0.44771525 0.44771525,0 1,0 L13.1214146,0 Z M13.1214146,1 L1,1 L1,23 L27,23 L27,4.06122449 L17.7241679,4.06122449 C16.3829044,4.06122449 15.1664079,3.29462909 14.5954657,2.12748259 L14.4561603,1.82098518 C14.2236899,1.36039531 13.7706063,1.0543646 13.2615208,1.00655802 L13.1214146,1 Z"/>
    <path fill="#FFF" d="M3,5 L25,5 C25.5522847,5 26,5.44771525 26,6 L26,15 C26,15.5522847 25.5522847,16 25,16 L3,16 C2.44771525,16 2,15.5522847 2,15 L2,6 C2,5.44771525 2.44771525,5 3,5 Z"/>
    <path fill="#A37B66" fill-rule="nonzero" d="M25,5 C25.5522847,5 26,5.44771525 26,6 L26,15 C26,15.5522847 25.5522847,16 25,16 L3,16 C2.44771525,16 2,15.5522847 2,15 L2,6 C2,5.44771525 2.44771525,5 3,5 L25,5 Z M25,6 L3,6 L3,15 L25,15 L25,6 Z"/>
    <path fill="url(#folder-documents-stack-d)" d="M0,7 L28,7 L28,24 C28,24.5522847 27.5522847,25 27,25 L1,25 C0.44771525,25 6.76353751e-17,24.5522847 0,24 L0,7 L0,7 Z"/>
    <g transform="translate(0 7)">
      <mask id="folder-documents-stack-f" fill="#fff">
        <use xlink:href="#folder-documents-stack-e"/>
      </mask>
      <use fill="url(#folder-documents-stack-d)" xlink:href="#folder-documents-stack-e"/>
      <g mask="url(#folder-documents-stack-f)">
        <g transform="translate(6 2)">
          <g transform="translate(0 .976)">
            <path fill="#52362A" fill-opacity=".4" d="M1,0.0243362832 L13,0.0243362832 C13.5522847,0.0243362832 14,0.472051533 14,1.02433628 L14,14.0243363 C14,14.576621 13.5522847,15.0243363 13,15.0243363 L1,15.0243363 C0.44771525,15.0243363 6.76353751e-17,14.576621 0,14.0243363 L0,1.02433628 C-6.76353751e-17,0.472051533 0.44771525,0.0243362832 1,0.0243362832 Z"/>
            <path fill="#8D5F4B" fill-rule="nonzero" d="M13,0.0243362832 C13.5522847,0.0243362832 14,0.472051533 14,1.02433628 L14,14.0243363 C14,14.576621 13.5522847,15.0243363 13,15.0243363 L1,15.0243363 C0.44771525,15.0243363 0,14.576621 0,14.0243363 L0,1.02433628 C0,0.472051533 0.44771525,0.0243362832 1,0.0243362832 L13,0.0243362832 Z M13,1.02433628 L1,1.02433628 L1,14.0243363 L13,14.0243363 L13,1.02433628 Z"/>
            <rect width="3" height="1" x="9" y="3.024" fill="#8D5F4B" fill-rule="nonzero"/>
            <rect width="3" height="1" x="9" y="5.024" fill="#8D5F4B" fill-rule="nonzero"/>
            <rect width="10" height="1" x="2" y="9.024" fill="#8D5F4B" fill-rule="nonzero"/>
            <polygon fill="#8D5F4B" fill-rule="nonzero" points="2 11.024 7 11.024 7 12.024 2 12.024"/>
            <path fill="#52362A" fill-opacity=".4" d="M7,3.02433628 L7,7.02433628 L5.75,7.02433628 L4.83767541,5.93344434 C4.78441705,5.86976183 4.69466598,5.85927902 4.62974986,5.90915889 L4.0951816,6.31990736 C4.0251623,6.37370838 3.927512,6.35677675 3.87707355,6.2820895 L3.34647439,5.39749591 C3.29998443,5.31994826 3.20336114,5.29728353 3.13066022,5.34687282 C3.11374078,5.35841357 3.09906576,5.3733253 3.08743847,5.39079175 L2,7.02433628 L2,3.02433628 L7,3.02433628 Z M5.42857143,4.16719343 C5.07353123,4.16719343 4.78571429,4.45501037 4.78571429,4.81005057 C4.78571429,5.16509077 5.07353123,5.45290771 5.42857143,5.45290771 C5.78361162,5.45290771 6.07142857,5.16509077 6.07142857,4.81005057 C6.07142857,4.45501037 5.78361162,4.16719343 5.42857143,4.16719343 Z"/>
          </g>
          <path fill="#8D5F4B" fill-rule="nonzero" d="M1.92857143,3 L1.92857143,15 L0.928571429,15 L0.928571429,3 L1.92857143,3 Z M1.42857143,0 L1.92857143,2 L0.928571429,2 L1.42857143,0 Z" transform="translate(14.071)"/>
        </g>
      </g>
    </g>
    <path fill="#99775B" fill-rule="nonzero" d="M28,7 L28,24 C28,24.5522847 27.5522847,25 27,25 L1,25 C0.44771525,25 0,24.5522847 0,24 L0,7 L28,7 Z M27,8 L1,8 L1,24 L27,24 L27,8 Z"/>
  </g>
</svg>
