<svg xmlns="http://www.w3.org/2000/svg" width="16" height="16" viewBox="0 0 16 16">
  <g fill="none" fill-rule="evenodd">
    <g transform="translate(2 1)">
      <polygon fill="#F9FBFB" points="0 0 12 0 12 14 0 14"/>
      <path fill="#000" fill-opacity=".2" fill-rule="nonzero" d="M13.2,-1.16666667 L-1.2,-1.16666667 L-1.2,15.1666667 L13.2,15.1666667 L13.2,-1.16666667 Z M12,4.4408921e-16 L12,14 L-5.5067062e-14,14 L-5.5067062e-14,4.4408921e-16 L12,4.4408921e-16 Z"/>
    </g>
    <path fill="#2A4052" fill-opacity=".6" d="M4.88809352,3.8575 C4.51107448,4.08898889 3.75303834,4.41363306 3.1285381,4.59474612 L3.1481287,4.64951983 C3.44518611,4.61993403 3.76263374,4.57795418 4.06049076,4.52757836 L4.06049076,5.28681393 L3.1333358,5.28681393 L3.15852371,5.37037382 L3.91655985,5.37037382 C3.76783124,5.98128059 3.49516212,6.63096874 3.10375,7.10314209 L3.1629216,7.15831561 C3.53034523,6.89244323 3.82700284,6.5849908 4.05969115,6.23475892 L4.05969115,7.81200184 L4.15404586,7.81200184 C4.40672457,7.81200184 4.57064589,7.71484847 4.57504378,7.68486287 L4.57504378,5.90491724 C4.76335339,6.07483568 4.94126799,6.34430633 4.9764511,6.55540501 C5.0404204,6.60977891 5.11038681,6.63616624 5.17475592,6.63616624 C5.30829182,6.63616624 5.42223713,6.53901287 5.42223713,6.40427755 C5.42223713,6.22156525 5.21393711,5.9820802 4.57504378,5.8385491 L4.57504378,5.37117344 L5.26911063,5.37117344 C5.40304634,5.37117344 5.46741544,5.3495838 5.50179894,5.2952099 L5.02162942,4.97056573 L4.76295358,5.28601431 L4.57504378,5.28601431 L4.57504378,4.42602711 C4.79813669,4.37525148 5.0060369,4.32527547 5.17475592,4.27449984 C5.23872521,4.29169159 5.29429854,4.30048737 5.34347493,4.30048737 C5.40344615,4.30048737 5.45222273,4.2872937 5.48220834,4.26210579 L4.88809352,3.8575 L4.88809352,3.8575 Z M7.17139753,4.44321885 L6.95350212,4.6922993 L6.09231549,4.6922993 L5.54098013,4.48919679 L5.54098013,7.72684272 C6.00675656,7.72684272 6.06632796,7.55852351 6.06632796,7.54972773 L6.06632796,7.2418755 L7.00267851,7.2418755 L7.00267851,7.64648129 C7.39489025,7.64648129 7.53282404,7.53293579 7.53282404,7.52453982 L7.53282404,4.89380257 C7.63677415,4.87301255 7.71633596,4.83942867 7.74592176,4.8010471 L7.17139753,4.44321885 L7.17139753,4.44321885 Z M6.06632796,4.7766588 L7.00267851,4.7766588 L7.00267851,7.15831561 L6.06632796,7.15831561 L6.06632796,4.7766588 Z M11.6284581,8.58123261 C11.0807211,8.58123261 10.682912,8.7091712 10.4354308,8.96464857 C10.2299294,9.17574724 10.1147847,9.49839237 10.0800014,9.92178914 L9.13925296,9.92178914 L9.13925296,9.1193743 C9.13925296,9.01422477 9.15564509,8.93906085 9.18762974,8.89348273 C9.21921458,8.84830441 9.27039001,8.82351631 9.34235547,8.81871862 L9.48828542,8.80992284 C9.54225952,8.80512514 9.56944647,8.778338 9.56944647,8.72956141 C9.56944647,8.69357868 9.56544838,8.67078962 9.55705241,8.66239365 C9.54785683,8.65399768 9.52546758,8.64919998 9.48908504,8.64919998 C9.48028926,8.64919998 9.45470154,8.6499996 9.4131215,8.65319806 C9.25039961,8.66039461 9.09367484,8.66399288 8.94254738,8.66399288 C8.78422337,8.66399288 8.62030206,8.66039461 8.45358208,8.65319806 C8.41360127,8.6499996 8.38961279,8.64919998 8.38241624,8.64919998 C8.34723313,8.64919998 8.32484387,8.65439749 8.31524848,8.66239365 C8.30605289,8.67078962 8.3012552,8.69317887 8.3012552,8.72956141 C8.3012552,8.77873781 8.32964157,8.80552495 8.38721394,8.80992284 L8.5239483,8.81871862 C8.59951203,8.8231165 8.6522867,8.84710499 8.68387154,8.8918835 C8.71545638,8.93706181 8.7314487,9.01262554 8.7314487,9.1193743 L8.7314487,11.2711415 C8.7314487,11.376291 8.71585619,11.4522545 8.68467116,11.4978326 C8.65388593,11.543011 8.60231069,11.5665996 8.52914581,11.5717971 L8.38721394,11.5805929 C8.38361566,11.5817923 8.37961758,11.5829918 8.37402027,11.5829918 C8.32564349,11.5857904 8.3012552,11.6097789 8.3012552,11.6561566 C8.3012552,11.6945382 8.30685251,11.7177271 8.31684771,11.7265229 C8.32684292,11.7361183 8.34923217,11.7405162 8.38241624,11.7405162 C8.39121202,11.7405162 8.41400108,11.7397165 8.45038362,11.7381173 C8.61990225,11.7301211 8.78342376,11.7257233 8.94174776,11.7257233 C9.09287522,11.7257233 9.2499998,11.7293215 9.4131215,11.7365181 C9.45310231,11.7393167 9.4774906,11.7405162 9.48828542,11.7405162 C9.52346854,11.7405162 9.54585779,11.7361183 9.55545318,11.7265229 C9.56464877,11.7177271 9.56944647,11.6941384 9.56944647,11.6561566 C9.56944647,11.6097789 9.54705721,11.5857904 9.50147909,11.5829918 C9.49548197,11.5817923 9.4922835,11.5805929 9.48908504,11.5805929 L9.34755297,11.5717971 C9.27198925,11.5669994 9.21921458,11.543011 9.18762974,11.4986323 C9.15564509,11.4542536 9.13925296,11.3778902 9.13925296,11.2711415 L9.13925296,10.3827679 L10.0740043,10.3827679 C10.097593,10.8501435 10.2047415,11.2031741 10.4066446,11.428266 C10.634935,11.6829438 11.0043577,11.8100828 11.512114,11.8100828 C12.0650486,11.8100828 12.4688547,11.6817444 12.7227329,11.4250676 C12.9762112,11.167991 13.10375,10.7581877 13.10375,10.1960575 C13.10375,9.62673077 12.9878057,9.21532824 12.7555172,8.9614501 C12.5236285,8.70677235 12.1478089,8.58123261 11.6284581,8.58123261 L11.6284581,8.58123261 Z M11.5800814,8.73435911 C11.9594992,8.73435911 12.2325682,8.84790461 12.4008874,9.07539541 C12.5680072,9.30248641 12.651567,9.67670678 12.651567,10.1952579 C12.651567,10.7098109 12.5676073,11.0812326 12.3992881,11.3087234 C12.2305691,11.536614 11.9582998,11.6501595 11.5800814,11.6501595 C11.2018629,11.6501595 10.9279944,11.536614 10.7592753,11.3087234 C10.5917558,11.0812326 10.5081959,10.707412 10.5081959,10.1880613 C10.5081959,9.67950544 10.5929552,9.30928314 10.7632734,9.07939349 C10.9339915,8.84950384 11.205861,8.73435911 11.5800814,8.73435911 L11.5800814,8.73435911 Z"/>
  </g>
</svg>
