<svg xmlns="http://www.w3.org/2000/svg" width="16" height="16" viewBox="0 0 16 16">
  <g fill="none" fill-rule="evenodd">
    <g transform="translate(2 1)">
      <polygon fill="#F9FBFB" points="0 0 12 0 12 14 0 14"/>
      <path fill="#000" fill-opacity=".2" fill-rule="nonzero" d="M13.2,-1.16666667 L-1.2,-1.16666667 L-1.2,15.1666667 L13.2,15.1666667 L13.2,-1.16666667 Z M12,4.4408921e-16 L12,14 L-5.5067062e-14,14 L-5.5067062e-14,4.4408921e-16 L12,4.4408921e-16 Z"/>
    </g>
    <path fill="#B36B61" d="M4.5,11 C5.32842712,11 6,11.6715729 6,12.5 C6,13.3284271 5.32842712,14 4.5,14 C3.67157288,14 3,13.3284271 3,12.5 C3,11.6715729 3.67157288,11 4.5,11 Z M3,8 C6.3137085,8 9,10.6862915 9,14 L9,14 L7.8,14 C7.8,11.3490332 5.6509668,9.2 3,9.2 L3,9.2 Z M3,5 C7.97056275,5 12,9.02943725 12,14 L12,14 L10.875,14 C10.875,9.6507576 7.3492424,6.125 3,6.125 L3,6.125 Z"/>
  </g>
</svg>
