<svg xmlns="http://www.w3.org/2000/svg" width="16" height="16" viewBox="0 0 16 16">
  <g fill="none" fill-rule="evenodd">
    <g transform="translate(2 1)">
      <polygon fill="#F9FBFB" points="0 0 12 0 12 14 0 14"/>
      <path fill="#000" fill-opacity=".2" fill-rule="nonzero" d="M13.2,-1.16666667 L-1.2,-1.16666667 L-1.2,15.1666667 L13.2,15.1666667 L13.2,-1.16666667 Z M12,4.4408921e-16 L12,14 L-5.5067062e-14,14 L-5.5067062e-14,4.4408921e-16 L12,4.4408921e-16 Z"/>
    </g>
    <path fill="#2A4052" fill-opacity=".6" d="M6,4 L7,4 L7,3 L6,3 L6,4 Z M9,3 L10,3 L10,2 L9,2 L9,3 Z M8,3 L8,4 L7,4 L7,5 L6,5 L6,6 L7,6 L7,5 L9,5 L9,3 L8,3 Z M8,7 L9,7 L9,8 L10,8 L10,6 L8,6 L8,7 Z M6,10 L4,10 L8,14 L12,10 L10,10 L10,9 L9,9 L9.0462963,8 L7,8 L7,7 L6,7 L6,10 Z"/>
  </g>
</svg>
