<svg xmlns="http://www.w3.org/2000/svg" width="16" height="16" viewBox="0 0 16 16">
  <g fill="none" fill-rule="evenodd">
    <g transform="translate(2 1)">
      <polygon fill="#F9FBFB" points="0 0 12 0 12 14 0 14"/>
      <path fill="#000" fill-opacity=".2" fill-rule="nonzero" d="M13.2,-1.16666667 L-1.2,-1.16666667 L-1.2,15.1666667 L13.2,15.1666667 L13.2,-1.16666667 Z M12,4.4408921e-16 L12,14 L-5.5067062e-14,14 L-5.5067062e-14,4.4408921e-16 L12,4.4408921e-16 Z"/>
    </g>
    <path fill="#6198C4" d="M8.00531459,3.58604885 C7.81330257,3.58157161 7.63615752,3.63002718 7.46985773,3.72610625 L4.52306187,5.50347202 C4.19936839,5.69037992 4,6.03575459 4,6.40950717 L4,9.89648376 C4.00028476,10.1417037 4.08670813,10.379032 4.24417815,10.5670242 L8.00531459,7.91603618 L11.755202,10.5670242 C11.9128954,10.379118 11.9995413,10.1417811 12,9.89648376 L12,6.40950717 C12.0002406,6.03553318 11.8008231,5.68987084 11.4769377,5.50285232 L8.51598169,3.72610625 C8.36424272,3.63843205 8.18051498,3.59027276 8.00531459,3.58604885 Z"/>
    <path fill="#000" fill-rule="nonzero" d="M8.00531459,3.58666378 C7.82180257,3.58627477 7.62901979,3.63414881 7.46985773,3.72548653 L4.52306187,5.50347202 C4.19936839,5.69037992 4,6.03575459 4,6.40950717 L4,9.89648376 C4.00028476,10.1417037 4.08670813,10.379032 4.24417815,10.5670242 L8.00531459,7.91603618 L8.00531459,3.58666378 Z" opacity=".3"/>
    <path fill="#E28D54" d="M8.00531459,7.49639747 L4.24394122,10.5672978 C4.3225529,10.6613834 4.41709174,10.7409207 4.52324277,10.8022793 L7.46974572,12.5796922 C7.79351921,12.7666481 8.1924576,12.7666481 8.5162311,12.5796922 L11.4768946,10.8022793 C11.5827623,10.7407004 11.676995,10.6610137 11.755301,10.5668485 L8.00531459,7.49639747 Z"/>
    <polygon fill="#D66565" points="8.005 5.828 10 6.916 10 9.117 8.005 10.333 6 9.117 6 6.916"/>
    <polygon fill="#000" fill-rule="nonzero" points="10 6.916 8.005 7.991 8.005 10.333 10 9.117" opacity=".3"/>
    <polygon fill="#000" fill-rule="nonzero" points="6 6.916 6 9.117 8.005 10.333 8.005 7.991" opacity=".1"/>
  </g>
</svg>
