<svg xmlns="http://www.w3.org/2000/svg" width="16" height="16" viewBox="0 0 16 16">
  <g fill="none" fill-rule="evenodd">
    <g transform="translate(2 1)">
      <polygon fill="#F9FBFB" points="0 0 12 0 12 14 0 14"/>
      <path fill="#000" fill-opacity=".2" fill-rule="nonzero" d="M13.2,-1.16666667 L-1.2,-1.16666667 L-1.2,15.1666667 L13.2,15.1666667 L13.2,-1.16666667 Z M12,4.4408921e-16 L12,14 L-5.5067062e-14,14 L-5.5067062e-14,4.4408921e-16 L12,4.4408921e-16 Z"/>
    </g>
    <path fill="#4B74AE" fill-rule="nonzero" d="M11,7.5 L12,8.5 L12,12.5 L11,13.5 L8,12 L8,9 L11,7.5 Z M6,3 L6,4 L10,4 L10,3 L11,3 L11,4 L12,4 L12,5 L11,5 L11,7 L10,7 L10,5 L6,5 L6,11 L7,11 L7,12 L6,12 L6,13 L5,13 L5,12 L4,12 L4,11 L5,11 L5,5 L4,5 L4,4 L5,4 L5,3 L6,3 Z M11,9 L9,9.25 L9,11.5 L8,12 L11,12.5 L11,9 Z"/>
  </g>
</svg>
