<svg xmlns="http://www.w3.org/2000/svg" width="16" height="16" viewBox="0 0 16 16">
  <g fill="none" fill-rule="evenodd">
    <g transform="translate(2 1)">
      <polygon fill="#F9FBFB" points="0 0 12 0 12 14 0 14"/>
      <path fill="#000" fill-opacity=".2" fill-rule="nonzero" d="M13.2,-1.16666667 L-1.2,-1.16666667 L-1.2,15.1666667 L13.2,15.1666667 L13.2,-1.16666667 Z M12,4.4408921e-16 L12,14 L-5.5067062e-14,14 L-5.5067062e-14,4.4408921e-16 L12,4.4408921e-16 Z"/>
    </g>
    <path fill="#2A4052" fill-opacity=".6" d="M6.37209579,4.57802041 L6.90850319,5.42197959 C5.72894126,6.17169091 5,7.46961906 5,8.8930681 C5,11.0939108 6.73007081,12.8906738 8.90440287,12.9975476 L9,13 L14,13 L14,14 L9.109,13.9990204 L9.1095088,14.0025769 C6.28760501,14.0025769 4,11.7149719 4,8.8930681 C4,7.20432766 4.82620082,5.6564615 6.17577223,4.70920704 L6.37209579,4.57802041 Z M9.25,5.5 L9.25,6.5 C8.00735931,6.5 7,7.50735931 7,8.75 C7,9.94086399 7.92516159,10.9156449 9.09595119,10.9948092 L9.25,11 L9.25,12 C7.45507456,12 6,10.5449254 6,8.75 C6,7.01696854 7.35645477,5.60075407 9.06557609,5.50514479 L9.25,5.5 Z M14,11 L14,12 L9.25,12 L9.25,11 L14,11 Z M9.25,7.5 C9.55895122,7.5 9.85065778,7.61318792 10.0760456,7.81180192 L10.168437,7.90207144 L9.43379008,8.58052111 C9.3863787,8.52918256 9.32112662,8.5 9.25,8.5 C9.11192881,8.5 9,8.61192881 9,8.75 C9,8.86834673 9.08223341,8.96748682 9.19267729,8.99339732 L9.25,9 L14,9 L14,10 L9.19999981,10 L9.199,9.99702041 L9.12219476,9.99354639 C8.49187466,9.9295339 8,9.39720869 8,8.75 C8,8.05964406 8.55964406,7.5 9.25,7.5 Z"/>
  </g>
</svg>
