<svg xmlns="http://www.w3.org/2000/svg" width="16" height="16" viewBox="0 0 16 16">
  <g fill="none" fill-rule="evenodd">
    <g transform="translate(2 1)">
      <polygon fill="#F9FBFB" points="0 0 12 0 12 14 0 14"/>
      <path fill="#000" fill-opacity=".2" fill-rule="nonzero" d="M13.2,-1.16666667 L-1.2,-1.16666667 L-1.2,15.1666667 L13.2,15.1666667 L13.2,-1.16666667 Z M12,4.4408921e-16 L12,14 L-5.5067062e-14,14 L-5.5067062e-14,4.4408921e-16 L12,4.4408921e-16 Z"/>
    </g>
    <path fill="#2A4052" fill-opacity=".6" d="M8.42478836,3 C8.53025163,3.00145448 8.62895992,3.08097405 8.64874333,3.18047637 L8.64874333,3.18047637 L8.84380355,4.13102999 C9.19388308,4.26256845 9.52282573,4.44327148 9.81180655,4.66546287 L9.81180655,4.66546287 L10.7726426,4.35323407 C10.8724614,4.32017634 10.9935392,4.36301915 11.047171,4.45037322 L11.047171,4.45037322 L11.9719092,5.99070921 C12.023995,6.07930035 12.0016557,6.20190367 11.9213391,6.26824703 L11.9213391,6.26824703 L11.1555567,6.91350584 C11.182486,7.08653267 11.1989007,7.26060008 11.1989007,7.44083333 C11.1989007,7.62109228 11.1825073,7.79514367 11.1555567,7.96816099 L11.1555567,7.96816099 L11.9213391,8.61345135 C12.001667,8.67979487 12.023995,8.80239803 11.9719092,8.89098902 L11.9719092,8.89098902 L11.047171,10.4313252 C10.9935392,10.5186914 10.8724614,10.5615187 10.7726426,10.5284611 L10.7726426,10.5284611 L9.81180655,10.2162327 C9.52302389,10.4382686 9.19391611,10.6189808 8.8437375,10.7505066 L8.8437375,10.7505066 L8.64867727,11.8196015 C8.62890444,11.9191042 8.53018558,11.9987312 8.4247223,12 L8.4247223,12 L6.57527883,12 C6.46981572,11.9986202 6.37110413,11.9191042 6.35132056,11.8196015 L6.35132056,11.8196015 L6.15626331,10.7505066 C5.80608486,10.6189682 5.47698054,10.4382559 5.18819458,10.2162327 L5.18819458,10.2162327 L4.22735858,10.5284611 C4.12753643,10.5615187 4.00646181,10.5186791 3.95283033,10.4313252 L3.95283033,10.4313252 L3.02809205,8.89098902 C2.97600287,8.80239803 2.99834522,8.67979487 3.07866204,8.61345135 L3.07866204,8.61345135 L3.84444434,7.96816099 C3.81747829,7.79513415 3.80109723,7.6210669 3.80109723,7.44083333 C3.80109723,7.26060642 3.81749487,7.08652316 3.84444434,6.91350584 L3.84444434,6.91350584 L3.07866204,6.26824703 C2.99833525,6.20190367 2.97600287,6.07930035 3.02809205,5.99070921 L3.02809205,5.99070921 L3.95283033,4.45037322 C4.00646181,4.36300377 4.12753643,4.32017634 4.22735858,4.35323407 L4.22735858,4.35323407 L5.18809566,4.66547556 C5.47687816,4.44343642 5.80598578,4.26272705 6.15616422,4.13120128 L6.15616422,4.13120128 L6.35122148,3.18064766 C6.36913832,3.08752384 6.45548254,3.01049462 6.55367891,3 L6.55367891,3 Z M7.5,6 C6.67157501,6 6,6.67157501 6,7.5 C6,8.32842499 6.67157501,9 7.5,9 C8.32842499,9 9,8.32842499 9,7.5 C9,6.67157501 8.32842499,6 7.5,6 Z"/>
  </g>
</svg>
