<svg xmlns="http://www.w3.org/2000/svg" width="16" height="16" viewBox="0 0 16 16">
  <g fill="none" fill-rule="evenodd">
    <g transform="translate(2 1)">
      <polygon fill="#F9FBFB" points="0 0 12 0 12 14 0 14"/>
      <path fill="#000" fill-opacity=".2" fill-rule="nonzero" d="M13.2,-1.16666667 L-1.2,-1.16666667 L-1.2,15.1666667 L13.2,15.1666667 L13.2,-1.16666667 Z M12,4.4408921e-16 L12,14 L-5.5067062e-14,14 L-5.5067062e-14,4.4408921e-16 L12,4.4408921e-16 Z"/>
    </g>
    <path fill="#DD953E" d="M8,3 C10.757,3 13,5.243 13,8 C13,10.757 10.757,13 8,13 C5.243,13 3,10.757 3,8 C3,5.243 5.243,3 8,3 Z M8,4 C5.79466667,4 4,5.79422222 4,8 C4,10.2057778 5.79466667,12 8,12 C10.2053333,12 12,10.2057778 12,8 C12,5.79422222 10.2053333,4 8,4 Z M11,8 C11,9.65433333 9.57597242,11 7.82609009,11 C7.64500773,11 7.46741483,10.9855897 7.29452835,10.9579184 C7.29452835,11 8,8 8,8 L8,8 Z"/>
  </g>
</svg>
