<svg xmlns="http://www.w3.org/2000/svg" width="16" height="16" viewBox="0 0 16 16">
  <g fill="none" fill-rule="evenodd">
    <g transform="translate(2 1)">
      <polygon fill="#F9FBFB" points="0 0 12 0 12 14 0 14"/>
      <path fill="#000" fill-opacity=".2" fill-rule="nonzero" d="M13.2,-1.16666667 L-1.2,-1.16666667 L-1.2,15.1666667 L13.2,15.1666667 L13.2,-1.16666667 Z M12,4.4408921e-16 L12,14 L-5.5067062e-14,14 L-5.5067062e-14,4.4408921e-16 L12,4.4408921e-16 Z"/>
    </g>
    <path fill="#E28D54" d="M4.29956055,5 C4.13551224,5 4.00344448,5.12139563 4.00344448,5.2721875 L4.00344448,10 L12,10 L12,5.2721875 C12,5.12139563 11.8679322,5 11.7038839,5 L4.29956055,5 Z"/>
    <path fill="#FFFEE4" d="M10,6 C10.552275,6 11,6.447725 11,7 C11,7.552275 10.552275,8 10,8 C9.447725,8 9,7.552275 9,7 C9,6.447725 9.447725,6 10,6 Z"/>
    <path fill="#D66565" d="M4.00344448,10 L4.00344448,10.720481 C4.00344448,10.720481 4.00344448,11.0513024 4.29956055,11.0499923 L11.723625,11.0280175 C11.8768157,11.0273585 12,10.8909441 12,10.720481 L12,10 L4.00344448,10 Z"/>
    <path fill="#3F3F3F" fill-rule="nonzero" d="M4.00344448,9.99997377 L4.00344448,9.53536871 C4.00344448,9.53536871 4.40207185,9.24436757 4.51412658,9.21898439 C4.6261971,9.19359679 4.75855043,9.21424783 4.89457174,9.24264329 C5.03059108,9.27092932 6.84146323,9.34938232 6.90483454,9.35177452 C6.96821374,9.35421868 7.08290206,9.34566312 7.21616347,9.33675842 C7.34942094,9.32802798 7.57005584,9.31999643 7.63887588,9.32086937 C7.70769789,9.32086937 7.87950927,9.33134569 8.06263466,9.34370558 C8.24577386,9.35610266 8.49731064,9.37681289 8.55438425,9.38260762 C8.61145796,9.38836928 8.67854276,9.39902057 8.75468506,9.41063395 C8.83081552,9.42215788 8.96262596,9.43956388 9.00923641,9.44435019 C9.05586077,9.44904253 9.16395725,9.46549921 9.28937326,9.47825848 C9.41479323,9.4910047 9.6155086,9.49536971 9.67347065,9.49065536 C9.73143468,9.48591879 9.85292992,9.43849154 9.98833334,9.39475294 C10.1237269,9.35103183 10.2730305,9.31099484 10.3865857,9.320895 C10.4999039,9.33093495 12,9.53539494 12,9.53539494 L12,10 L4.67445011,10 L4.00344448,9.99997377 Z"/>
  </g>
</svg>
