<svg xmlns="http://www.w3.org/2000/svg" width="16" height="16" viewBox="0 0 16 16">
  <defs>
    <linearGradient id="application-vnd.scribus-a" x1="59.066%" x2="34.454%" y1="27.238%" y2="100%">
      <stop offset="0%" stop-color="#FFF" stop-opacity="0"/>
      <stop offset="100%" stop-color="#9FACB4"/>
    </linearGradient>
  </defs>
  <g fill="none" fill-rule="evenodd">
    <g transform="translate(2 1)">
      <polygon fill="#F9FBFB" points="0 0 12 0 12 14 0 14"/>
      <path fill="#000" fill-opacity=".2" fill-rule="nonzero" d="M13.2,-1.16666667 L-1.2,-1.16666667 L-1.2,15.1666667 L13.2,15.1666667 L13.2,-1.16666667 Z M12,4.4408921e-16 L12,14 L-5.5067062e-14,14 L-5.5067062e-14,4.4408921e-16 L12,4.4408921e-16 Z"/>
    </g>
    <g transform="translate(3 1)">
      <path fill="url(#application-vnd.scribus-a)" d="M3.9018127,2.04281037e-14 C4.43177792,1.06206849 4.9617881,3.34136133 1.58731576,5.62065417 C-3.03033007,8.73965056 3.89613864,12.8333333 3.89613864,12.8333333 C3.89613864,12.8333333 -1.24098166,7.24297698 11,4.68861896" opacity=".643"/>
      <path fill="#6198C4" d="M4.36403679,13.059685 C4.36403679,13.059685 4.91467638,10.5893155 5.85076368,9.69577767 C5.85076368,9.69577767 5.74063577,8.22406822 7.72293829,5.85882089 C7.72293829,5.85882089 8.21851392,5.33321037 8.43876975,4.59735565 C8.76915351,4.01918408 9.15460122,4.38711144 9.15460122,4.38711144 C9.15460122,4.38711144 9.42992102,4.59735565 9.20966518,4.91272196 C8.98940934,5.22808827 8.60396163,6.1741872 8.60396163,6.1741872 C8.60396163,6.1741872 7.94319412,9.0124841 6.56659515,9.95858293 C5.9608916,10.5367544 6.12608348,11.2726092 6.12608348,11.2726092 L4.36403679,13.059685 Z" transform="rotate(5 6.83 8.666)"/>
    </g>
  </g>
</svg>
