<svg xmlns="http://www.w3.org/2000/svg" width="16" height="16" viewBox="0 0 16 16">
  <g fill="none" fill-rule="evenodd">
    <g transform="translate(2 1)">
      <polygon fill="#F9FBFB" points="0 0 12 0 12 14 0 14"/>
      <path fill="#000" fill-opacity=".2" fill-rule="nonzero" d="M13.2,-1.16666667 L-1.2,-1.16666667 L-1.2,15.1666667 L13.2,15.1666667 L13.2,-1.16666667 Z M12,4.4408921e-16 L12,14 L-5.5067062e-14,14 L-5.5067062e-14,4.4408921e-16 L12,4.4408921e-16 Z"/>
    </g>
    <path fill="#7EAB68" d="M8,3 C10.7614237,3 13,5.23857625 13,8 C13,10.7614237 10.7614237,13 8,13 C5.23857625,13 3,10.7614237 3,8 C3,5.23857625 5.23857625,3 8,3 Z M8,6 C6.8954305,6 6,6.8954305 6,8 C6,9.1045695 6.8954305,10 8,10 C9.1045695,10 10,9.1045695 10,8 C10,6.8954305 9.1045695,6 8,6 Z M8,7 C8.55228475,7 9,7.44771525 9,8 C9,8.55228475 8.55228475,9 8,9 C7.44771525,9 7,8.55228475 7,8 C7,7.44771525 7.44771525,7 8,7 Z M8,7.33333333 C7.63181017,7.33333333 7.33333333,7.63181017 7.33333333,8 C7.33333333,8.36818983 7.63181017,8.66666667 8,8.66666667 C8.36818983,8.66666667 8.66666667,8.36818983 8.66666667,8 C8.66666667,7.63181017 8.36818983,7.33333333 8,7.33333333 Z M7.73333333,4 C5.67147027,4 4,5.67147027 4,7.73333333 C4,7.88060927 4.11939073,8 4.26666667,8 C4.4139426,8 4.53333333,7.88060927 4.53333333,7.73333333 C4.53333333,5.96602213 5.96602213,4.53333333 7.73333333,4.53333333 C7.88060927,4.53333333 8,4.4139426 8,4.26666667 C8,4.11939073 7.88060927,4 7.73333333,4 Z"/>
  </g>
</svg>
