<svg xmlns="http://www.w3.org/2000/svg" width="16" height="16" viewBox="0 0 16 16">
  <g fill="none" fill-rule="evenodd">
    <g transform="translate(2 1)">
      <polygon fill="#F9FBFB" points="0 0 12 0 12 14 0 14"/>
      <path fill="#000" fill-opacity=".2" fill-rule="nonzero" d="M13.2,-1.16666667 L-1.2,-1.16666667 L-1.2,15.1666667 L13.2,15.1666667 L13.2,-1.16666667 Z M12,4.4408921e-16 L12,14 L-5.5067062e-14,14 L-5.5067062e-14,4.4408921e-16 L12,4.4408921e-16 Z"/>
    </g>
    <path fill="#389461" d="M14,9 L14,10 L12.0000001,10 L12.0000001,11 L14,11 L14,12 L12.0000001,12 L12,13 L14,13 L14,14 L11,14 L11.0000001,9.00000001 L14,9 Z M8.90221001,9 C9.56893146,9 10.1694583,9.30776181 10.589888,9.79959734 L10.6999999,9.93820519 L9.93379395,10.6038316 C9.70019639,10.2373191 9.32689589,10 8.90624991,10 C8.19863507,10 7.62499991,10.6715729 7.62499991,11.5 C7.62499991,12.3284271 8.19863507,13 8.90624991,13 C9.28015745,13 9.61665621,12.8124886 9.85088061,12.5134059 L9.93379395,12.3961684 L10.6999999,13.0617948 L10.589888,13.2004027 C10.1694583,13.6922382 9.56893146,14 8.90221001,14 C7.63073448,14 6.5999999,12.8807119 6.5999999,11.5 C6.5999999,10.1192881 7.63073448,9 8.90221001,9 Z M5,9 L7,14 L6,14 L5.625,13 L3.375,13 L3,14 L2,14 L4,9 L5,9 Z M4.5,10 L3.75,12 L5.25,12 L4.5,10 Z M9.75,4 C9.88807119,4 10,4.11192881 10,4.25 L10,5 L14,5 L14,7 L10,7 L10,7.75 C10,7.88807119 9.88807119,8 9.75,8 L6.25,8 C6.11192881,8 6,7.88807119 6,7.75 L6,7 L2,7 L2,5 L6,5 L6,4.25 C6,4.11192881 6.11192881,4 6.25,4 L9.75,4 Z M9,5 L7,5 L7,7 L9,7 L9,5 Z"/>
  </g>
</svg>
