<svg xmlns="http://www.w3.org/2000/svg" width="16" height="16" viewBox="0 0 16 16">
  <g fill="none" fill-rule="evenodd">
    <g transform="translate(2 1)">
      <polygon fill="#F9FBFB" points="0 0 12 0 12 14 0 14"/>
      <path fill="#000" fill-opacity=".2" fill-rule="nonzero" d="M13.2,-1.16666667 L-1.2,-1.16666667 L-1.2,15.1666667 L13.2,15.1666667 L13.2,-1.16666667 Z M12,4.4408921e-16 L12,14 L-5.5067062e-14,14 L-5.5067062e-14,4.4408921e-16 L12,4.4408921e-16 Z"/>
    </g>
    <path fill="#4A62AD" d="M8.37741311,3.25234467 C6.90365942,3.25234467 5.59817849,4.50323282 5.59817849,6 L6.95290132,6 C6.95290132,5.25500276 7.63162317,4.6070675 8.37741311,4.6070675 C9.12320304,4.6070675 9.73621955,5.21679309 9.73621955,5.96179033 C9.73621955,6.33428895 9.58723482,6.82586145 9.33664484,7.06967873 L8.49644302,7.92356467 C8.00880823,8.41797193 7.67826587,9.09524938 7.67826564,9.84024662 L7.67826564,9.94515788 L7.67826564,10.0341261 L9.04211223,10.0341261 L9.04211223,9.94515788 C9.08747999,9.10094709 9.40375274,8.71564597 9.85116679,8.26201738 L10.4605631,7.63893602 C10.8466071,7.252892 11.0909424,6.55778812 11.0909424,5.96179033 C11.0909424,4.46502338 9.85116679,3.25234467 8.37741311,3.25234467 Z M7.69903079,11 L7.69903079,12.3567646 L9.05579542,12.3567646 L9.05579542,11 L7.69903079,11 Z"/>
  </g>
</svg>
