<svg xmlns="http://www.w3.org/2000/svg" width="16" height="16" viewBox="0 0 16 16">
  <g fill="none" fill-rule="evenodd">
    <g transform="translate(2 1)">
      <polygon fill="#F9FBFB" points="0 0 12 0 12 14 0 14"/>
      <path fill="#000" fill-opacity=".2" fill-rule="nonzero" d="M13.2,-1.16666667 L-1.2,-1.16666667 L-1.2,15.1666667 L13.2,15.1666667 L13.2,-1.16666667 Z M12,4.4408921e-16 L12,14 L0,14 L0,4.4408921e-16 L12,4.4408921e-16 Z"/>
    </g>
    <path fill="#7EAB68" d="M13,9 L14.0062466,11.5156166 L14,14 L13.625,13 L11.375,13 L11,14 L10,14 L12,9 L13,9 Z M12.5,10 L11.75,12 L13.25,12 L12.5,10 Z"/>
    <polygon fill="#7EAB68" points="3.95 14 3.4 11 2.85 14 2.001 14 2.002 12.856 2.85 9 3.95 9 4.5 12.012 5.05 9 6.15 9 7.25 14 6.15 14 5.6 11 5.05 14" transform="matrix(1 0 0 -1 0 23)"/>
    <polygon fill="#7EAB68" points="8.6 13 8 11.5 8 14 7 14 7 9 8 9 9 11.5 10 9 11 9 11 14 10 14 10 11.5 9.4 13"/>
  </g>
</svg>
