<svg xmlns="http://www.w3.org/2000/svg" width="16" height="16" viewBox="0 0 16 16">
  <g fill="none" fill-rule="evenodd">
    <g transform="translate(2 1)">
      <polygon fill="#F9FBFB" points="0 0 12 0 12 14 0 14"/>
      <path fill="#000" fill-opacity=".2" fill-rule="nonzero" d="M13.2,-1.16666667 L-1.2,-1.16666667 L-1.2,15.1666667 L13.2,15.1666667 L13.2,-1.16666667 Z M12,4.4408921e-16 L12,14 L-5.5067062e-14,14 L-5.5067062e-14,4.4408921e-16 L12,4.4408921e-16 Z"/>
    </g>
    <path fill="#7C8B95" fill-rule="nonzero" d="M8,4 C9.38071187,4 10.5,5.11928813 10.5,6.5 C10.5,7.21138329 10.2028723,7.8533687 9.72595006,8.30862315 C10.9166693,8.76452103 11.8086822,9.71327898 11.9733296,11.057829 L11.9932194,11.2734013 L11.9997602,11.4845164 C12.0075284,11.7352491 11.8295947,11.9475305 11.5917531,11.9916086 L11.5,12 L4.5,12 C4.22385763,12 4,11.7761424 4,11.5 C4,9.92808505 4.95084274,8.81533921 6.27398405,8.30831115 C5.79712767,7.8533687 5.5,7.21138329 5.5,6.5 C5.5,5.11928813 6.61928813,4 8,4 Z M8,9 C6.66394631,9 5.52117776,9.62217088 5.13744839,10.6871822 L5.0856525,10.8502328 L5.049,11 L10.952,11 L10.9495298,10.9845915 C10.7136458,9.85176652 9.66784049,9.13593083 8.38300592,9.01745208 L8.18855938,9.00418299 L8,9 Z M8,5 C7.17157288,5 6.5,5.67157288 6.5,6.5 C6.5,7.32842712 7.17157288,8 8,8 C8.82842712,8 9.5,7.32842712 9.5,6.5 C9.5,5.67157288 8.82842712,5 8,5 Z"/>
  </g>
</svg>
