<svg xmlns="http://www.w3.org/2000/svg" width="16" height="16" viewBox="0 0 16 16">
  <g fill="none" fill-rule="evenodd">
    <g transform="translate(2 1)">
      <polygon fill="#F9FBFB" points="0 0 12 0 12 14 0 14"/>
      <path fill="#000" fill-opacity=".2" fill-rule="nonzero" d="M13.2,-1.16666667 L-1.2,-1.16666667 L-1.2,15.1666667 L13.2,15.1666667 L13.2,-1.16666667 Z M12,4.4408921e-16 L12,14 L-5.5067062e-14,14 L-5.5067062e-14,4.4408921e-16 L12,4.4408921e-16 Z"/>
    </g>
    <path fill="#2A4052" fill-opacity=".6" d="M10,5 C10,3.8954305 9.1045695,3 8,3 C6.8954305,3 6,3.8954305 6,5 C6,5.73540922 6.39692087,6.3781126 6.98821985,6.72556741 L6,11.0153003 C5.92701838,11.3802083 6,12 6.98821985,12 L9,12 C10,12 10.0719479,11.37504 10,11.0153003 L9.01178015,6.72556741 C9.60307913,6.3781126 10,5.73540922 10,5 Z"/>
  </g>
</svg>
