<svg xmlns="http://www.w3.org/2000/svg" width="16" height="16" viewBox="0 0 16 16">
  <g fill="none" fill-rule="evenodd">
    <g transform="translate(2 1)">
      <polygon fill="#F9FBFB" points="0 0 12 0 12 14 0 14"/>
      <path fill="#000" fill-opacity=".2" fill-rule="nonzero" d="M13.2,-1.16666667 L-1.2,-1.16666667 L-1.2,15.1666667 L13.2,15.1666667 L13.2,-1.16666667 Z M12,4.4408921e-16 L12,14 L0,14 L0,4.4408921e-16 L12,4.4408921e-16 Z"/>
    </g>
    <path fill="#79B4A8" d="M5 13C4.44771525 13 4 12.5573397 4 12.0010434L4 10.9989566C4 10.4472481 4.44386482 10 5 10 5.47379516 10 5.87063119 10.325781 5.97385677 10.7696074L6.80764515 10.1442661C6.48670333 9.46646704 5.79791956 9 5 9 3.88772964 9 3 9.89761602 3 11.0048815L3 11.9951185C3 13.1061002 3.8954305 14 5 14 5.36540536 14 5.70657678 13.9031232 6 13.7337624L6 14 7 14 7 11 5 11 5 11.9951185C5 12.0531315 6 12.0010434 6 12.0010434L6 12.25C6 12.6000004 5.5 13 5 13zM9 9L9 14 8 14 8 9 9 9zM10 9L13 9 13 10 11 10 11 11 13 11 13 12 11 12 11 14 10 14 10 9z"/>
  </g>
</svg>
