<svg xmlns="http://www.w3.org/2000/svg" width="16" height="16" viewBox="0 0 16 16">
  <g fill="none" fill-rule="evenodd">
    <g transform="translate(2 1)">
      <polygon fill="#F9FBFB" points="0 0 12 0 12 14 0 14"/>
      <path fill="#000" fill-opacity=".2" fill-rule="nonzero" d="M13.2,-1.16666667 L-1.2,-1.16666667 L-1.2,15.1666667 L13.2,15.1666667 L13.2,-1.16666667 Z M12,4.4408921e-16 L12,14 L-5.5067062e-14,14 L-5.5067062e-14,4.4408921e-16 L12,4.4408921e-16 Z"/>
    </g>
    <path fill="#6198C4" d="M9.43534214,5.00000173 C9.61762948,4.99933645 9.79060286,5.19093773 9.79060286,5.4284435 L9.79060286,5.4284435 L9.79060286,5.55019015 C9.79060286,5.7284858 9.94894004,6.14229136 10.8251168,6.68848809 C10.8251168,6.68848809 11.9694022,7.30653531 12.29406,8.42287893 C12.29406,8.42287893 12.6506513,9.41880647 12.0691946,10.6755247 C12.0691946,10.6755247 12.0139762,10.7912838 11.8928948,10.7427182 C11.7970941,10.7041318 11.829693,10.5823851 11.829693,10.5823851 C11.829693,10.5823851 12.2215442,9.60308966 11.8955559,8.80940792 C11.8955559,8.80940792 11.5948483,7.71901031 9.736715,7.22404031 L9.736715,7.22404031 L9.73614067,7.45903904 C9.7360482,7.49606939 9.73594538,7.5369275 9.73583282,7.58121284 L9.73504556,7.88484751 C9.73430027,8.16680849 9.73334205,8.51442431 9.73224693,8.87763001 L9.73087195,9.31775583 C9.72777156,10.2736905 9.72395144,11.199637 9.72074823,11.2156531 C9.71343012,11.8490018 9.18719186,12.514284 8.37887392,12.8289625 C7.39226033,13.2128304 6.36107283,12.9287549 6.07500146,12.1949486 C5.78893009,11.4604769 6.34444078,10.5144456 7.34569057,10.1691641 C8.02560904,9.93498473 8.61970609,9.95161679 9.08008141,10.1904531 L9.08008141,10.1904531 L9.09205649,5.43110463 C9.09272178,5.19359886 9.25372008,5.00066701 9.43534214,5.00000173 Z M8,8 L8,9 L3,9 L3,8 L8,8 Z M8,6 L8,7 L3,7 L3,6 L8,6 Z M8,4 L8,5 L3,5 L3,4 L8,4 Z"/>
  </g>
</svg>
