<svg xmlns="http://www.w3.org/2000/svg" width="16" height="16" viewBox="0 0 16 16">
  <g fill="none" fill-rule="evenodd">
    <g transform="translate(2 1)">
      <polygon fill="#F9FBFB" points="0 0 12 0 12 14 0 14"/>
      <path fill="#000" fill-opacity=".2" fill-rule="nonzero" d="M13.2,-1.16666667 L-1.2,-1.16666667 L-1.2,15.1666667 L13.2,15.1666667 L13.2,-1.16666667 Z M12,4.4408921e-16 L12,14 L-5.5067062e-14,14 L-5.5067062e-14,4.4408921e-16 L12,4.4408921e-16 Z"/>
    </g>
    <polygon fill="#E28D54" points="10.98 3.77 10.98 10.98 4.23 10.98" transform="matrix(0 -1 -1 0 14.98 14.98)"/>
    <polygon fill="#6198C4" points="4 12 7.605 8.595 11 12"/>
    <polygon fill="#74BF63" points="12 11.625 8.292 7.965 12 4.5"/>
  </g>
</svg>
