<svg xmlns="http://www.w3.org/2000/svg" width="16" height="16" viewBox="0 0 16 16">
  <g fill="none" fill-rule="evenodd">
    <g transform="translate(2 1)">
      <polygon fill="#F9FBFB" points="0 0 12 0 12 14 0 14"/>
      <path fill="#000" fill-opacity=".2" fill-rule="nonzero" d="M13.2,-1.16666667 L-1.2,-1.16666667 L-1.2,15.1666667 L13.2,15.1666667 L13.2,-1.16666667 Z M12,4.4408921e-16 L12,14 L-5.5067062e-14,14 L-5.5067062e-14,4.4408921e-16 L12,4.4408921e-16 Z"/>
    </g>
    <path fill="#2A4052" fill-opacity=".6" d="M7.60549927,8.5949707 L11,12 L4,12 L7.60549927,8.5949707 Z M12,4.5 L12,11.625 L8.29235837,7.96459961 L12,4.5 Z M11.2109985,4 L4,10.75 L4,4 L11.2109985,4 Z"/>
  </g>
</svg>
