<svg xmlns="http://www.w3.org/2000/svg" width="16" height="16" viewBox="0 0 16 16">
  <g fill="none" fill-rule="evenodd">
    <g transform="translate(2 1)">
      <polygon fill="#F9FBFB" points="0 0 12 0 12 14 0 14"/>
      <path fill="#000" fill-opacity=".2" fill-rule="nonzero" d="M13.2,-1.16666667 L-1.2,-1.16666667 L-1.2,15.1666667 L13.2,15.1666667 L13.2,-1.16666667 Z M12,4.4408921e-16 L12,14 L-5.5067062e-14,14 L-5.5067062e-14,4.4408921e-16 L12,4.4408921e-16 Z"/>
    </g>
    <path fill="#2A4052" fill-opacity=".6" d="M8,8 L8,12 L7,12 L7,3 L8,3 L8,7 L10.0010434,7 C10.5527519,7 11,7.44371665 11,7.99980749 L11,12 L10,12 L10,8.49047852 C10,8.21959471 9.78596497,8 9.49531555,8 L8,8 Z M6,11 L6,12 L5,12 L5,11 L6,11 Z"/>
  </g>
</svg>
