<svg xmlns="http://www.w3.org/2000/svg" width="16" height="16" viewBox="0 0 16 16">
  <defs>
    <filter id="text-x-bibtex-a">
      <feColorMatrix in="SourceGraphic" values="0 0 0 0 0.164158 0 0 0 0 0.252840 0 0 0 0 0.323143 0 0 0 0.600000 0"/>
    </filter>
  </defs>
  <g fill="none" fill-rule="evenodd">
    <g transform="translate(2 1)">
      <polygon fill="#F9FBFB" points="0 0 12 0 12 14 0 14"/>
      <path fill="#000" fill-opacity=".2" fill-rule="nonzero" d="M13.2,-1.16666667 L-1.2,-1.16666667 L-1.2,15.1666667 L13.2,15.1666667 L13.2,-1.16666667 Z M12,4.4408921e-16 L12,14 L0,14 L0,4.4408921e-16 L12,4.4408921e-16 Z"/>
    </g>
    <g filter="url(#text-x-bibtex-a)">
      <g transform="translate(3 6)">
        <polygon fill="#FFF" points="2 1 3 1 3 0 0 0 0 1 1 1 1 5 2 5 2 1"/>
        <polygon fill="#FFF" points="4 6 3 6 3 1 3.5 1 6 1 6 2 4 2 4 3 6 3 6 4 4 4 4 6 3 6 6 6 6 5 4 5"/>
        <polygon fill="#FFF" points="8 1.667 7 0 6 0 7.5 2.5 6 5 7 5 8 3.333 9 5 10 5 8.5 2.5 10 0 9 0"/>
      </g>
    </g>
  </g>
</svg>
