<svg xmlns="http://www.w3.org/2000/svg" width="16" height="16" viewBox="0 0 16 16">
  <g fill="none" fill-rule="evenodd">
    <g transform="translate(2 1)">
      <polygon fill="#F9FBFB" points="0 0 12 0 12 14 0 14"/>
      <path fill="#000" fill-opacity=".2" fill-rule="nonzero" d="M13.2,-1.16666667 L-1.2,-1.16666667 L-1.2,15.1666667 L13.2,15.1666667 L13.2,-1.16666667 Z M12,4.4408921e-16 L12,14 L-5.5067062e-14,14 L-5.5067062e-14,4.4408921e-16 L12,4.4408921e-16 Z"/>
    </g>
    <path fill="#DD953E" d="M12.6762719,7.57687939 C12.6762719,7.57687939 12.3596357,8.32248821 12.0252936,9.09320549 L11.891321,9.40112367 C11.8245712,9.55404446 11.7587073,9.70412693 11.696121,9.84560706 C9.93292363,12.0467419 5.88841951,11.9010288 4.30457054,9.80502581 C3.93079244,8.89673868 3.39260498,7.58960939 3.39260498,7.58960939 C3.86782151,8.17003373 4.31857179,8.59401183 4.98876488,8.95287337 C5.32082548,9.10857336 6.05431637,9.22678022 6.05431637,9.22678022 L6.05431637,9.22678022 L8.01717062,8.2326056 L9.96881238,9.2470721 C9.96881238,9.2470721 10.7121867,9.14005961 11.0343604,8.96302024 C11.4877548,8.71307369 12.2239238,8.24906185 12.6762719,7.57687939 Z M8.03968312,4.5625002 C8.03968312,4.5625002 8.40017872,4.89199268 8.75892683,5.18777141 C9.28592554,5.15891517 9.91251113,5.27546516 10.4305548,5.37138515 C10.8140123,5.10209955 11.1448404,4.85528706 11.1448404,4.85528706 C11.1448404,4.85528706 11.4241579,5.33151266 11.6160704,5.68402076 C11.8183938,5.80642888 12.1743707,6.06000449 12.3253975,6.2249326 C12.5783469,6.12816198 12.9685563,5.99711949 13,5.98673199 C12.7132188,6.74455569 12.4296144,7.56539002 11.700396,7.94690687 C10.5720392,6.36692697 5.4348661,6.2055101 4.32936429,7.95683812 C3.63497871,7.49447315 3.3797131,6.72520882 3,5.95696137 C3.01084844,5.96156324 3.34323279,6.10080198 3.6299609,6.2150101 C3.87647995,5.99629949 4.15308087,5.83099387 4.42857179,5.68402326 C4.61433365,5.38488203 4.90972238,4.87513831 4.90972238,4.87513831 C4.90972238,4.87513831 4.93543402,4.895669 4.98081325,4.93060322 L5.09600431,5.01786092 C5.23383715,5.12069243 5.43422283,5.26479897 5.6488089,5.40116328 C6.07586637,5.24537329 6.86402945,5.15511829 7.26587255,5.16792454 C7.6565019,4.86624206 8.03968312,4.5625002 8.03968312,4.5625002 Z"/>
  </g>
</svg>
