<svg xmlns="http://www.w3.org/2000/svg" width="16" height="16" viewBox="0 0 16 16">
  <g fill="none" fill-rule="evenodd">
    <g transform="translate(2 1)">
      <polygon fill="#F9FBFB" points="0 0 12 0 12 14 0 14"/>
      <path fill="#000" fill-opacity=".2" fill-rule="nonzero" d="M13.2,-1.16666667 L-1.2,-1.16666667 L-1.2,15.1666667 L13.2,15.1666667 L13.2,-1.16666667 Z M12,4.4408921e-16 L12,14 L0,14 L0,4.4408921e-16 L12,4.4408921e-16 Z"/>
    </g>
    <polygon fill="#2A4052" fill-opacity=".6" points="10 8 10 9 11 9 11 10 12 10 12 9 13 9 13 8 12 8 12 7 11 7 11 8"/>
    <polygon fill="#2A4052" fill-opacity=".6" points="7 8 7 9 8 9 8 10 9 10 9 9 10 9 10 8 9 8 9 7 8 7 8 8"/>
    <path fill="#2A4052" fill-opacity=".6" d="M5.5,6 C6.0642223,6 6.60007945,6.18817838 7.03383426,6.52567895 L7.19156225,6.65916526 L6.51478679,7.39535475 C6.23961206,7.14238796 5.88158417,7 5.5,7 C4.67157288,7 4,7.67157288 4,8.5 C4,9.32842712 4.67157288,10 5.5,10 C5.81394414,10 6.11200048,9.90368506 6.36138326,9.7282594 L6.48186673,9.63403366 L7.13686564,10.3896635 C6.68577241,10.7806824 6.10919745,11 5.5,11 C4.11928813,11 3,9.88071187 3,8.5 C3,7.11928813 4.11928813,6 5.5,6 Z"/>
  </g>
</svg>
