<svg xmlns="http://www.w3.org/2000/svg" width="16" height="16" viewBox="0 0 16 16">
  <g fill="none" fill-rule="evenodd">
    <g transform="translate(2 1)">
      <polygon fill="#F9FBFB" points="0 0 12 0 12 14 0 14"/>
      <path fill="#000" fill-opacity=".2" fill-rule="nonzero" d="M13.2,-1.16666667 L-1.2,-1.16666667 L-1.2,15.1666667 L13.2,15.1666667 L13.2,-1.16666667 Z M12,4.4408921e-16 L12,14 L-5.5067062e-14,14 L-5.5067062e-14,4.4408921e-16 L12,4.4408921e-16 Z"/>
    </g>
    <path fill="#7C8B95" d="M9,7 L9,8 L7,8 L7,9 L9,9 L9,10 L7,10 L7,11 L9,11 L9,12 L6,12 L6,7 L9,7 Z M6,6 L6,7 L5,7 L5,11 L4,11 L4,7 L3,7 L3,6 L6,6 Z M10,6 L11,7.66666667 L12,6 L13,6 L11.5,8.5 L13,11 L12,11 L11,9.33333333 L10,11 L9,11 L10.5,8.5 L9,6 L10,6 Z"/>
  </g>
</svg>
