<svg xmlns="http://www.w3.org/2000/svg" width="16" height="16" viewBox="0 0 16 16">
  <g fill="none" fill-rule="evenodd">
    <g transform="translate(2 1)">
      <polygon fill="#F9FBFB" points="0 0 12 0 12 14 0 14"/>
      <path fill="#000" fill-opacity=".2" fill-rule="nonzero" d="M13.2,-1.16666667 L-1.2,-1.16666667 L-1.2,15.1666667 L13.2,15.1666667 L13.2,-1.16666667 Z M12,4.4408921e-16 L12,14 L-5.5067062e-14,14 L-5.5067062e-14,4.4408921e-16 L12,4.4408921e-16 Z"/>
    </g>
    <path fill="#DC7692" d="M12,9 C12,9 12.4957185,11.9657477 12.5,12 L12.5,12 L13,9 L14,9 L13,14 L12,14 L11,9 Z M7,14 L6.2,14 L6.2,11 L5.4,13 L4.6,13 L3.8,11 L3.8,14 L3,14 L3,9 L3.8,9 L5,12 L6.2,9 L7,9 L7,11.0874013 C7,9.9328081 7.8909395,9 9,9 C10.1056987,9 11,9.9326419 11,11.0874013 L11,11.0874013 L11,11.9125987 C11,13.0671919 10.1090605,14 9,14 C7.89430127,14 7,13.0673581 7,11.9125987 L7,11.9125987 L7,14 Z M9,10 C8.44473615,10 8,10.5028869 8,11.1286611 L8,11.1286611 L8,11.8713389 C8,12.4966028 8.44694695,13 9,13 C9.55526385,13 10,12.4971131 10,11.8713389 L10,11.8713389 L10,11.1286611 C10,10.5033972 9.55305305,10 9,10 Z"/>
  </g>
</svg>
