<svg xmlns="http://www.w3.org/2000/svg" width="16" height="16" viewBox="0 0 16 16">
  <g fill="none" fill-rule="evenodd">
    <g transform="translate(2 1)">
      <polygon fill="#F9FBFB" points="0 0 12 0 12 14 0 14"/>
      <path fill="#000" fill-opacity=".2" fill-rule="nonzero" d="M13.2,-1.16666667 L-1.2,-1.16666667 L-1.2,15.1666667 L13.2,15.1666667 L13.2,-1.16666667 Z M12,4.4408921e-16 L12,14 L-5.5067062e-14,14 L-5.5067062e-14,4.4408921e-16 L12,4.4408921e-16 Z"/>
    </g>
    <path fill="#7C8B95" fill-rule="nonzero" d="M6,13 L3,13 L3,10 L6,10 L6.00267804,10.0379149 C6.09929417,9.85270049 6.17790139,9.66303573 6.23932889,9.46905415 C6.59724926,8.33877929 6.36881127,7.09639728 5.75649011,5.87175495 C5.61210512,5.58298497 5.457348,5.31908335 5.3031382,5.08641594 L5.20545225,4.94298523 L5.10797709,4.81035147 C4.86578112,4.50441972 5.05299663,4.0636544 5.41893942,4.00624539 L5.5,4 L11.5,4 C11.7761424,4 12,4.22385763 12,4.5 C12,4.74545989 11.8231248,4.94960837 11.5898756,4.99194433 L11.5,5 L6.423,5 L6.52629776,5.18471448 L6.6509173,5.42454135 C7.36859613,6.85989902 7.64260259,8.35010959 7.19267111,9.77094585 C7.08547903,10.1094472 6.9380176,10.4363092 6.74908746,10.75012 L6.587,11 L10.0852495,11.0002925 C10.2910851,10.4175435 10.8467813,10 11.5,10 C12.3284271,10 13,10.6715729 13,11.5 C13,12.3284271 12.3284271,13 11.5,13 C10.8471533,13 10.2917181,12.5829319 10.0856015,12.000703 L6,12 L6,13 Z M11.5,11 C11.2238576,11 11,11.2238576 11,11.5 C11,11.7761424 11.2238576,12 11.5,12 C11.7761424,12 12,11.7761424 12,11.5 C12,11.2238576 11.7761424,11 11.5,11 Z M5,11 L4,11 L4,12 L5,12 L4.99924261,11.5118582 C4.99894737,11.5025098 4.99891389,11.4931423 4.99914678,11.4837671 L5,11 Z"/>
  </g>
</svg>
