<svg xmlns="http://www.w3.org/2000/svg" width="16" height="16" viewBox="0 0 16 16">
  <g fill="none" fill-rule="evenodd">
    <g transform="translate(2 1)">
      <polygon fill="#F9FBFB" points="0 0 12 0 12 14 0 14"/>
      <path fill="#000" fill-opacity=".2" fill-rule="nonzero" d="M13.2,-1.16666667 L-1.2,-1.16666667 L-1.2,15.1666667 L13.2,15.1666667 L13.2,-1.16666667 Z M12,4.4408921e-16 L12,14 L-5.5067062e-14,14 L-5.5067062e-14,4.4408921e-16 L12,4.4408921e-16 Z"/>
    </g>
    <path fill="#2A4052" fill-opacity=".6" d="M12,5 L12,12 L5,12 L5,5 L12,5 Z M8,9 L6,9 L6,11 L8,11 L8,9 Z M11,9 L9,9 L9,11 L11,11 L11,9 Z M8,6 L6,6 L6,8.04 L8,8.04 L8,6 Z M11,6 L9,6 L9,8.04 L11,8.04 L11,6 Z"/>
  </g>
</svg>
