<svg xmlns="http://www.w3.org/2000/svg" xmlns:xlink="http://www.w3.org/1999/xlink" width="32" height="32" viewBox="0 0 32 32">
  <defs>
    <filter id="com.qq.im.deepin-a" width="130.8%" height="127.6%" x="-15.4%" y="-13.8%" filterUnits="objectBoundingBox">
      <feOffset dy="1" in="SourceAlpha" result="shadowOffsetOuter1"/>
      <feGaussianBlur in="shadowOffsetOuter1" result="shadowBlurOuter1" stdDeviation=".5"/>
      <feColorMatrix in="shadowBlurOuter1" result="shadowMatrixOuter1" values="0 0 0 0 0   0 0 0 0 0   0 0 0 0 0  0 0 0 0.15 0"/>
      <feMerge>
        <feMergeNode in="shadowMatrixOuter1"/>
        <feMergeNode in="SourceGraphic"/>
      </feMerge>
    </filter>
    <linearGradient id="com.qq.im.deepin-b" x1="28.78%" x2="42.037%" y1="45.388%" y2="54.612%">
      <stop offset="0%" stop-color="#EACB69"/>
      <stop offset="100%" stop-color="#E2B55D"/>
    </linearGradient>
    <linearGradient id="com.qq.im.deepin-c" x1="28.78%" x2="42.037%" y1="45.39%" y2="54.61%">
      <stop offset="0%" stop-color="#EACB69"/>
      <stop offset="100%" stop-color="#E2B55D"/>
    </linearGradient>
    <linearGradient id="com.qq.im.deepin-d" x1="50%" x2="50%" y1="0%" y2="100%">
      <stop offset="0%" stop-color="#CC9E45"/>
      <stop offset="100%" stop-color="#B07E42"/>
    </linearGradient>
    <linearGradient id="com.qq.im.deepin-e" x1="50%" x2="50%" y1="0%" y2="100%">
      <stop offset="0%" stop-color="#CC9E45"/>
      <stop offset="100%" stop-color="#B07E42"/>
    </linearGradient>
    <radialGradient id="com.qq.im.deepin-f" cx="52.484%" cy="11.205%" r="92.927%" fx="52.484%" fy="11.205%" gradientTransform="matrix(0 .95554 -1 0 .637 -.39)">
      <stop offset="0%" stop-color="#3A3B53"/>
      <stop offset="100%" stop-color="#2A2B39"/>
    </radialGradient>
    <linearGradient id="com.qq.im.deepin-i" x1="50%" x2="50%" y1="0%" y2="100%">
      <stop offset="0%"/>
      <stop offset="100%"/>
    </linearGradient>
    <path id="com.qq.im.deepin-g" d="M0.211632951,22.3963844 C-0.149616406,22.1816721 -0.137253811,20.0632385 0.961513244,16.5465825 C1.57335912,14.5883408 3.47852339,12.287048 3.47852339,10.3625062 C3.47852339,4.67984152 6.77759936,0 12.9595979,0 C19.1415965,0 22.6954864,4.42913572 22.7080417,10.3625062 C22.711726,12.103596 23.7437631,14.1437004 24.3952724,15.5437593 C25.5637787,18.0548172 26.1958794,21.6707944 25.7075629,22.3963844 C25.3326227,22.9535084 24.3327824,22.06211 22.7080417,19.7221892 C22.0405721,22.6995428 20.5351577,24.7284026 18.1917984,25.8087688 C16.7089994,26.4923883 14.9738164,27.0424898 12.9595979,27.0762259 C10.0529553,27.1249092 7.08656042,25.9827776 5.75774785,24.3044661 C4.25798727,22.4102445 3.40912269,20.8828189 3.21115412,19.7221892 C1.58641349,21.7278356 0.586573097,22.619234 0.211632951,22.3963844 Z"/>
    <filter id="com.qq.im.deepin-h" width="103.9%" height="103.7%" x="-1.9%" y="-1.8%" filterUnits="objectBoundingBox">
      <feOffset dy="1" in="SourceAlpha" result="shadowOffsetInner1"/>
      <feComposite in="shadowOffsetInner1" in2="SourceAlpha" k2="-1" k3="1" operator="arithmetic" result="shadowInnerInner1"/>
      <feColorMatrix in="shadowInnerInner1" values="0 0 0 0 1   0 0 0 0 1   0 0 0 0 1  0 0 0 0.5 0"/>
    </filter>
    <linearGradient id="com.qq.im.deepin-j" x1="50%" x2="50%" y1="0%" y2="100%">
      <stop offset="0%" stop-opacity=".277"/>
      <stop offset="100%" stop-opacity=".721"/>
    </linearGradient>
    <linearGradient id="com.qq.im.deepin-k" x1="50%" x2="50%" y1="0%" y2="100%">
      <stop offset="0%" stop-color="#FFF"/>
      <stop offset="100%" stop-color="#EBEBEB"/>
    </linearGradient>
    <linearGradient id="com.qq.im.deepin-n" x1="22.901%" x2="38.121%" y1="42.353%" y2="56.953%">
      <stop offset="0%" stop-color="#D36867"/>
      <stop offset="100%" stop-color="#BF4852"/>
    </linearGradient>
    <path id="com.qq.im.deepin-m" d="M3.30567564,11.1981922 C5.36784644,12.0338782 9.96007675,12.3681526 13.7094782,12.2010154 C17.4588797,12.0338782 21.8943368,11.6216607 22.8241762,11.1179182 C22.9771631,11.509812 23.1378215,12.0983463 23.3348242,12.702427 C23.5399349,13.3313697 23.7737633,13.9333703 23.9301666,14.4234799 C23.4264217,14.9119668 19.8959906,15.5437593 18.39623,15.7108965 C16.8964695,15.8780337 12.6872307,16.2123081 11,16.0451709 C11,16.7137197 11,17.9858893 11,19.8616797 L7,19.8616797 L7,15.7108965 C4.06416403,15.3188022 2.40877598,14.7884807 2.03383583,14.1199319 C2.12999595,13.6912786 2.35828319,13.2194333 2.56194069,12.702427 C2.75532603,12.2114977 3.08152596,11.5840779 3.30567564,11.1981922 Z"/>
    <filter id="com.qq.im.deepin-l" width="118.3%" height="145.7%" x="-9.1%" y="-11.4%" filterUnits="objectBoundingBox">
      <feOffset dy="1" in="SourceAlpha" result="shadowOffsetOuter1"/>
      <feGaussianBlur in="shadowOffsetOuter1" result="shadowBlurOuter1" stdDeviation=".5"/>
      <feColorMatrix in="shadowBlurOuter1" values="0 0 0 0 0   0 0 0 0 0   0 0 0 0 0  0 0 0 0.1 0"/>
    </filter>
    <filter id="com.qq.im.deepin-o" width="113.7%" height="134.3%" x="-6.9%" y="-5.7%" filterUnits="objectBoundingBox">
      <feOffset dy="1" in="SourceAlpha" result="shadowOffsetInner1"/>
      <feComposite in="shadowOffsetInner1" in2="SourceAlpha" k2="-1" k3="1" operator="arithmetic" result="shadowInnerInner1"/>
      <feColorMatrix in="shadowInnerInner1" values="0 0 0 0 1   0 0 0 0 1   0 0 0 0 1  0 0 0 0.241750437 0"/>
    </filter>
  </defs>
  <g fill="none" fill-rule="evenodd" filter="url(#com.qq.im.deepin-a)" transform="translate(3 2)">
    <path fill="url(#com.qq.im.deepin-b)" d="M17.199566,23.7877248 C17.199566,23.7877248 23.9482826,25.6926236 23.4466308,26.5869872 C23.1121963,27.1832295 19.516349,27.22989 12.6590889,26.7269687 C15.6860736,24.7674727 17.199566,23.7877248 17.199566,23.7877248 Z"/>
    <path fill="url(#com.qq.im.deepin-c)" d="M13.5188272,26.673746 L8.9783501,23.7345021 L8.9783501,23.7345021 L8.05944535,24.0069028 L8.05944535,24.0069028 L7.3153385,24.239659 L7.3153385,24.239659 L6.6789123,24.4475589 L6.6789123,24.4475589 L6.23316713,24.5987313 L6.23316713,24.5987313 L5.78011327,24.7579083 L5.78011327,24.7579083 L5.10531639,25.007832 L5.10531639,25.007832 L4.67096624,25.1793199 C3.467868,25.668646 2.53295776,26.1801789 2.73128522,26.5337645 C2.79399169,26.64556 2.97135721,26.7380342 3.26338177,26.8111871 L3.47505133,26.8570934 L3.47505133,26.8570934 L3.72069395,26.8972748 C3.76446547,26.9034946 3.80965254,26.9094759 3.85625515,26.9152187 L4.15285734,26.9468129 L4.15285734,26.9468129 L4.48343258,26.9726823 L4.48343258,26.9726823 L4.84798087,26.9928269 L4.84798087,26.9928269 L5.24650221,27.0072467 L5.24650221,27.0072467 L5.90798369,27.0181423 L5.90798369,27.0181423 L6.64590454,27.0161572 L6.64590454,27.0161572 L7.46026474,27.0012912 L7.46026474,27.0012912 L8.35106431,26.9735443 L8.35106431,26.9735443 L9.65770274,26.9165117 L9.65770274,26.9165117 L11.1002334,26.8365799 L11.1002334,26.8365799 L11.8724583,26.7880267 L11.8724583,26.7880267 L13.5188272,26.673746 L13.5188272,26.673746 Z"/>
    <path fill="url(#com.qq.im.deepin-d)" fill-rule="nonzero" d="M16.5392931,22.6492263 L9.11827969,27.4531639 L12.6159421,27.7090652 L13.6302625,27.778476 L14.5928372,27.8391041 L15.9397842,27.9135706 L16.7732109,27.9522261 L17.5550647,27.9820864 L18.285395,28.0031479 L18.9642512,28.0154072 C19.0731072,28.0167167 19.1798204,28.0176593 19.284392,28.0182349 L19.7735732,28.0181423 L20.3216916,28.0115428 L20.823351,27.9981373 L21.2804637,27.9766023 C22.7320528,27.8897992 23.4730677,27.6454471 23.8222186,27.0229678 C24.3470677,26.0872472 23.9734883,25.5332481 22.8868878,24.9436801 L22.5730033,24.7816935 C22.5177893,24.7544442 22.4611369,24.7270431 22.4030636,24.6994509 L22.0377116,24.5312916 C21.9740242,24.5027784 21.9089506,24.4739958 21.8425083,24.4449046 C21.3634094,24.2351348 20.8027184,24.0174523 20.1754388,23.7939758 C19.6491588,23.6064818 19.0964225,23.4220292 18.5372482,23.2446244 L17.7214738,22.991983 L16.974631,22.7721052 L16.5392931,22.6492263 Z M16.7029839,23.7345021 L17.6218887,24.0069028 L18.3659955,24.239659 L19.0024217,24.4475589 L19.4481669,24.5987313 L19.9012208,24.7579083 L20.5760176,25.007832 L21.0103678,25.1793199 C22.213466,25.668646 23.1483763,26.1801789 22.9500488,26.5337645 C22.8256312,26.7555809 22.2498285,26.9013342 21.2226406,26.9710244 L20.7876916,26.9948437 L20.3045948,27.0105497 L19.7733503,27.0181423 L19.2898964,27.0182501 L18.6457846,27.0104794 L17.5824145,26.9824437 L16.8086997,26.9528336 L15.550925,26.8920387 L14.1765077,26.8115884 L13.1954279,26.7470351 L12.1625068,26.673746 L16.7029839,23.7345021 Z"/>
    <path fill="url(#com.qq.im.deepin-e)" fill-rule="nonzero" d="M16.5793458,27.46371 L9.13540566,22.644931 L7.77522982,23.0481424 L7.01680312,23.2852605 L6.36839278,23.4969919 L5.91198996,23.6517122 L5.44863491,23.8144455 L4.75800328,24.0700828 L4.30373696,24.2491895 C3.58984697,24.5394871 3.0325401,24.8080923 2.63111704,25.0686672 C1.83536506,25.5852121 1.38863169,26.1841718 1.8591154,27.0229678 C2.09593266,27.4451744 2.48158081,27.6462423 3.02038714,27.7812148 L3.26310175,27.834374 L3.73395176,27.9077115 L4.04693608,27.9411874 L4.40541539,27.9696343 L4.79280601,27.9913036 L5.21034267,28.0065927 L5.89151435,28.0180067 L6.64859476,28.0161535 L7.47851653,28.0011246 L8.38219744,27.9730596 L9.70130957,27.9155605 L11.1555594,27.8350482 L11.9352087,27.786056 L16.5793458,27.46371 Z M8.9783501,23.7345021 L13.5188272,26.673746 L11.8724583,26.7880267 L11.1002334,26.8365799 L9.65770274,26.9165117 L8.35106431,26.9735443 L7.46026474,27.0012912 L6.64590454,27.0161572 L5.90798369,27.0181423 L5.24650221,27.0072467 L4.84798087,26.9928269 L4.48343258,26.9726823 L4.15285734,26.9468129 L3.85625515,26.9152187 L3.72069395,26.8972748 L3.47505133,26.8570934 L3.26338177,26.8111871 C2.97135721,26.7380342 2.79399169,26.64556 2.73128522,26.5337645 C2.58253963,26.2685753 3.07124024,25.9145407 3.83244421,25.5476633 L4.15059426,25.4004076 L4.49262104,25.2528629 L4.67096624,25.1793199 L5.10531639,25.007832 L5.78011327,24.7579083 L6.23316713,24.5987313 L6.6789123,24.4475589 L7.3153385,24.239659 L8.05944535,24.0069028 L8.9783501,23.7345021 Z"/>
    <use fill="url(#com.qq.im.deepin-f)" xlink:href="#com.qq.im.deepin-g"/>
    <use fill="#000" filter="url(#com.qq.im.deepin-h)" xlink:href="#com.qq.im.deepin-g"/>
    <path stroke="url(#com.qq.im.deepin-i)" stroke-linejoin="square" d="M12.9595979,0.5 C15.8109074,0.5 18.0788771,1.48399698 19.6518189,3.15601965 C21.3199217,4.92919759 22.2019017,7.46138167 22.2080428,10.3635642 C22.2115665,12.0287608 23.0998603,13.9620072 23.7740818,15.3964161 C24.9109792,17.8374646 25.6406666,20.9465898 25.3735595,21.9278126 C24.5280441,21.3434851 23.9003317,20.5626441 23.1187435,19.4370155 C22.8585639,19.0623098 22.6282252,18.7169306 22.428031,18.4011026 C22.3823055,18.7948865 22.3129651,19.1988036 22.2201515,19.612813 C21.592559,22.4122886 20.1914239,24.3362957 17.9824585,25.3547019 C16.5565998,26.0120699 14.8885279,26.5438482 12.9512246,26.576296 C10.2183383,26.622069 7.40480274,25.57924 6.14975379,23.9940931 C4.72279168,22.1918172 3.89281844,20.7448953 3.70403555,19.6381185 C3.63902621,19.2569884 3.63238143,18.8125981 3.68205842,18.3051835 C3.43521024,18.6376388 3.14865454,19.0050107 2.82263801,19.4074588 C2.03271567,20.3825713 1.3961474,21.0883255 0.909983939,21.52176 C0.487053951,21.379141 0.507422796,20.9424777 0.577195329,20.3981834 C0.697866763,19.4568279 0.966006978,18.2087668 1.43876049,16.6956968 C1.67163261,15.9503785 2.1019356,15.1550374 2.53361597,14.3495518 C3.2638688,12.9869507 3.97852339,11.5974176 3.97852339,10.3625062 C3.97852339,7.53530981 4.82209239,4.96130179 6.47973293,3.14955457 C7.98630957,1.50291529 10.1642375,0.5 12.9595979,0.5 Z"/>
    <path fill="#DEB162" d="M7.24045946,9.19676915 C7.24045946,10.1180436 11.0607343,11.1179182 13.1229051,11.1179182 C15.1850759,11.1179182 18.7586098,9.78174934 18.7586098,9.19676915 C18.7586098,8.61178896 16.1224263,8.37601779 13.1229051,8.37601779 C10.1233839,8.37601779 7.24045946,8.69535756 7.24045946,9.19676915 Z"/>
    <path fill="url(#com.qq.im.deepin-j)" fill-rule="nonzero" d="M13.399362,7.37668215 L12.4754001,7.37853255 L11.8574833,7.38650568 L11.2695458,7.40058051 L10.7119788,7.42140031 L10.1851734,7.4496084 L9.68952077,7.48584808 L9.22541201,7.53076265 C7.28318414,7.74511726 6.24045946,8.22193423 6.24045946,9.19676915 C6.24045946,10.659374 9.1214103,11.7460808 11.7635693,12.0391842 L12.2267188,12.0825852 C12.532986,12.1059138 12.8334081,12.1179182 13.1229051,12.1179182 C15.6163989,12.1179182 19.7586098,10.6528136 19.7586098,9.19676915 C19.7586098,8.23397142 19.0119433,7.77210398 17.3660592,7.55584395 L16.953704,7.50852647 L16.5063502,7.46985598 L16.0235291,7.4390481 L15.5047722,7.41531849 L14.9496107,7.3978828 L14.3575762,7.38595668 L13.399362,7.37668215 Z M13.3945247,8.37667045 L13.9302403,8.38194858 L14.4533949,8.39265004 L14.9609526,8.40892635 L15.4498776,8.43092903 L15.9171342,8.45880958 L16.3596867,8.49271953 L16.7744991,8.53281039 L17.1585358,8.57923367 C17.2198086,8.587507 17.2796726,8.5960505 17.3380646,8.60486732 L17.6702456,8.66107334 C17.774747,8.68091879 17.8728543,8.70188278 17.9640614,8.72399057 L18.2164763,8.79377053 C18.56253,8.90366327 18.7586098,9.0372291 18.7586098,9.19676915 C18.7586098,9.46266924 18.0202763,9.88377359 17.0211542,10.2640494 L16.6087286,10.4135175 C15.4778742,10.8038142 14.1227455,11.1179182 13.1229051,11.1179182 C12.6983405,11.1179182 12.1992542,11.0755359 11.6743279,11.0001832 L11.2191983,10.9277402 L10.7582249,10.8404654 C10.373538,10.7619224 9.98986018,10.6693017 9.62493273,10.566033 L9.19715539,10.4372192 C8.08647188,10.0812572 7.24045946,9.63031006 7.24045946,9.19676915 C7.24045946,9.04482624 7.50519082,8.90960251 7.95767638,8.79491764 L8.25108241,8.72860194 L8.58585455,8.66739891 C8.64489181,8.65763464 8.7054987,8.64809105 8.76759825,8.63877194 L9.1574916,8.58558168 L9.5795138,8.53796246 L10.0299699,8.49609762 L10.5051651,8.46017049 L11.0014045,8.43036444 L11.514993,8.4068628 L12.0422359,8.38984891 L12.8506196,8.37689369 L13.3945247,8.37667045 Z"/>
    <path fill="url(#com.qq.im.deepin-k)" d="M5.58698064,13.372806 C4.24250643,18.2400653 5.20284515,26.1283821 13.0776226,26.1283821 C20.9524001,26.1283821 21.5286034,17.2330461 20.3761969,13.372806 C19.8478581,12.9111223 16.837553,13.4992956 13.6538259,13.372806 C9.89324473,13.2233979 5.89901445,12.4639136 5.58698064,13.372806 Z"/>
    <use fill="#000" filter="url(#com.qq.im.deepin-l)" xlink:href="#com.qq.im.deepin-m"/>
    <use fill="url(#com.qq.im.deepin-n)" xlink:href="#com.qq.im.deepin-m"/>
    <use fill="#000" filter="url(#com.qq.im.deepin-o)" xlink:href="#com.qq.im.deepin-m"/>
    <ellipse cx="15.596" cy="5" fill="#FFF" rx="1.586" ry="2"/>
    <ellipse cx="10.586" cy="5" fill="#FFF" rx="1.586" ry="2"/>
    <path fill="#34354A" d="M10.9911622 6.23383881C11.4053096 6.23383881 11.7410424 5.78485957 11.7410424 5.23101562 11.7410424 4.67717167 11.4053096 4.22819244 10.9911622 4.22819244 10.5770147 4.22819244 10.2412819 4.67717167 10.2412819 5.23101562 10.2412819 5.78485957 10.5770147 6.23383881 10.9911622 6.23383881zM14.445861 5.6575758C14.3568739 5.60320206 14.2937933 5.51308138 14.445861 5.30032422 14.5979287 5.08756706 15.0883678 4.74851337 15.7384708 4.78162152 16.3885739 4.81472967 16.526077 4.96260179 16.6243965 5.08355267 16.7374542 5.22263404 16.634458 5.46575747 16.359239 5.43240882 16.0273675 5.39219552 15.84279 5.21780741 15.3966224 5.27584632 14.9504548 5.33388523 14.8875748 5.49590275 14.6659937 5.63554732 14.6186276 5.66539837 14.5348482 5.71194954 14.445861 5.6575758z"/>
  </g>
</svg>
