<svg xmlns="http://www.w3.org/2000/svg" width="32" height="32" viewBox="0 0 32 32">
  <defs>
    <filter id="printer-a" width="126.7%" height="128.6%" x="-13.3%" y="-14.3%" filterUnits="objectBoundingBox">
      <feOffset dy="1" in="SourceAlpha" result="shadowOffsetOuter1"/>
      <feGaussianBlur in="shadowOffsetOuter1" result="shadowBlurOuter1" stdDeviation=".5"/>
      <feColorMatrix in="shadowBlurOuter1" result="shadowMatrixOuter1" values="0 0 0 0 0   0 0 0 0 0   0 0 0 0 0  0 0 0 0.15 0"/>
      <feMerge>
        <feMergeNode in="shadowMatrixOuter1"/>
        <feMergeNode in="SourceGraphic"/>
      </feMerge>
    </filter>
    <linearGradient id="printer-b" x1="47.778%" x2="47.778%" y1="-1.316%" y2="101.316%">
      <stop offset="0%" stop-color="#F5F5F5"/>
      <stop offset="100%" stop-color="#C8C8C8"/>
    </linearGradient>
    <linearGradient id="printer-c" x1="54.444%" x2="54.444%" y1="1.14%" y2="101.316%">
      <stop offset="0%" stop-opacity=".153"/>
      <stop offset="100%" stop-opacity=".459"/>
    </linearGradient>
    <linearGradient id="printer-d" x1="47.778%" x2="47.778%" y1="0%" y2="114.411%">
      <stop offset="0%" stop-color="#FFF"/>
      <stop offset="85.999%" stop-color="#BFBFBF"/>
      <stop offset="100%" stop-color="#626262"/>
    </linearGradient>
    <linearGradient id="printer-e" x1="54.444%" x2="54.444%" y1="-1.316%" y2="101.316%">
      <stop offset="0%" stop-opacity=".1"/>
      <stop offset="100%" stop-opacity=".45"/>
    </linearGradient>
    <filter id="printer-f" width="107%" height="185.7%" x="-3.5%" y="-42.9%" filterUnits="objectBoundingBox">
      <feGaussianBlur in="SourceGraphic" stdDeviation=".251"/>
    </filter>
    <linearGradient id="printer-g" x1="50%" x2="50%" y1="-1.724%" y2="101.724%">
      <stop offset="0%" stop-color="#646464"/>
      <stop offset="100%" stop-color="#323232"/>
    </linearGradient>
    <linearGradient id="printer-h" x1="55.405%" x2="55.405%" y1="-22.772%" y2="101.724%">
      <stop offset="0%" stop-opacity=".654"/>
      <stop offset="100%" stop-opacity=".496"/>
    </linearGradient>
    <radialGradient id="printer-i" cx="50%" cy="-13.221%" r="133.355%" fx="50%" fy="-13.221%" gradientTransform="matrix(0 1 -.68467 0 .41 -.632)">
      <stop offset="0%" stop-color="#959595"/>
      <stop offset="100%" stop-color="#323232"/>
    </radialGradient>
    <linearGradient id="printer-j" x1="55.405%" x2="55.405%" y1="-1.724%" y2="92.479%">
      <stop offset="0%" stop-color="#828282"/>
      <stop offset="100%" stop-color="#404040"/>
    </linearGradient>
    <linearGradient id="printer-k" x1="50%" x2="50%" y1="0%" y2="123.199%">
      <stop offset="0%" stop-color="#5C5C5C"/>
      <stop offset="100%" stop-opacity=".816"/>
    </linearGradient>
    <linearGradient id="printer-l" x1="55.405%" x2="55.405%" y1="-1.724%" y2="101.724%">
      <stop offset="0%" stop-color="#404040"/>
      <stop offset="100%" stop-color="#292929"/>
    </linearGradient>
    <linearGradient id="printer-m" x1="50%" x2="50%" y1="0%" y2="144.712%">
      <stop offset="0%" stop-opacity=".215"/>
      <stop offset="100%" stop-color="#595959" stop-opacity=".195"/>
    </linearGradient>
    <radialGradient id="printer-n" cx="50%" cy="50%" r="1250%" fx="50%" fy="50%" gradientTransform="matrix(.04 0 0 1 .48 0)">
      <stop offset="0%" stop-color="#FFF"/>
      <stop offset="100%" stop-color="#FFF" stop-opacity="0"/>
    </radialGradient>
    <linearGradient id="printer-o" x1="47.778%" x2="47.778%" y1="-1.316%" y2="101.316%">
      <stop offset="0%" stop-color="#5B5B5B"/>
      <stop offset="11.755%" stop-color="#D0D0D0"/>
      <stop offset="36.994%" stop-color="#D8D8D8"/>
      <stop offset="100%" stop-color="#FFF"/>
    </linearGradient>
    <linearGradient id="printer-p" x1="54.444%" x2="54.444%" y1="-3.645%" y2="115.143%">
      <stop offset="0%" stop-opacity="0"/>
      <stop offset="13.802%" stop-opacity=".22"/>
      <stop offset="100%" stop-opacity=".32"/>
    </linearGradient>
    <radialGradient id="printer-q" cx="50%" cy="18.931%" r="100%" fx="50%" fy="18.931%">
      <stop offset="2.576%" stop-color="#B4E09E"/>
      <stop offset="100%" stop-color="#1A8F29"/>
    </radialGradient>
  </defs>
  <g fill="none" fill-rule="evenodd" filter="url(#printer-a)" transform="translate(1 2)">
    <path fill="url(#printer-b)" fill-rule="nonzero" d="M2.82511447,9.78698489 C2.92729786,9.32715965 3.33514032,9 3.80618246,9 L26.1938175,9 C26.6648597,9 27.0727021,9.32715965 27.1748855,9.78698489 L29,18 L29,23.995 C29,24.5500462 28.5500462,25 27.995,25 L2.005,25 C1.44995383,25 1,24.5500462 1,23.995 L1,18 L2.82511447,9.78698489 Z"/>
    <path fill="url(#printer-c)" fill-rule="nonzero" d="M26.1938175,8 L3.80618246,8 C2.86644167,8 2.05278581,8.65269163 1.84892741,9.57005443 L0.0238129398,17.7830695 L0,18 L0,23.995 C0,25.1023309 0.897669077,26 2.005,26 L27.995,26 C29.1023309,26 30,25.1023309 30,23.995 L30,18 L29.9761871,17.7830695 L28.1510726,9.57005443 C27.9472142,8.65269163 27.1335583,8 26.1938175,8 Z M26.1938175,9 C26.6648597,9 27.0727021,9.32715965 27.1748855,9.78698489 L29,18 L29,23.995 C29,24.5500462 28.5500462,25 27.995,25 L2.005,25 C1.44995383,25 1,24.5500462 1,23.995 L1,18 L2.82511447,9.78698489 C2.92729786,9.32715965 3.33514032,9 3.80618246,9 L26.1938175,9 Z"/>
    <polygon fill="#000" fill-opacity=".225" fill-rule="nonzero" points="29 18 29 19 1 19 1 18"/>
    <polygon fill="url(#printer-d)" fill-rule="nonzero" points="5 1 25 1 25 12 5 12"/>
    <path fill="url(#printer-e)" fill-rule="nonzero" d="M25,0 L5,0 C4.44771525,0 4,0.44771525 4,1 L4,12 C4,12.5522847 4.44771525,13 5,13 L25,13 C25.5522847,13 26,12.5522847 26,12 L26,1 C26,0.44771525 25.5522847,0 25,0 Z M25,1 L25,12 L5,12 L5,1 L25,1 Z"/>
    <polygon fill="#A9A9A9" points="4.276 10.06 25.884 10.06 25.884 11.819 4.276 11.819" filter="url(#printer-f)"/>
    <polygon fill="url(#printer-g)" fill-rule="nonzero" points="4 8 5 8 5.167 11 4 11"/>
    <path fill="url(#printer-h)" fill-rule="nonzero" d="M5,7 L4,7 C3.44771525,7 3,7.44771525 3,8 L3,11 C3,11.5522847 3.44771525,12 4,12 L5.16666667,12 C5.74075162,12 6.19697152,11.517731 6.16512702,10.94453 L5.99846035,7.94452998 C5.96902054,7.41461342 5.53073371,7 5,7 Z M5,8 L5.16666667,11 L4,11 L4,8 L5,8 Z"/>
    <polygon fill="url(#printer-g)" fill-rule="nonzero" points="25 8 26 8 26 11 24.833 11"/>
    <path fill="url(#printer-h)" fill-rule="nonzero" d="M26,7 L25,7 C24.4692663,7 24.0309795,7.41461342 24.0015396,7.94452998 L23.834873,10.94453 C23.8030285,11.517731 24.2592484,12 24.8333333,12 L26,12 C26.5522847,12 27,11.5522847 27,11 L27,8 C27,7.44771525 26.5522847,7 26,7 Z M26,8 L26,11 L24.8333333,11 L25,8 L26,8 Z"/>
    <polygon fill="url(#printer-i)" fill-rule="nonzero" points="4.522 11 25.417 11 27 18 3 18"/>
    <path fill="url(#printer-j)" fill-rule="nonzero" d="M25.4166667,10 L4.5225,10 C4.05211365,10 3.6453174,10.3278289 3.54534569,10.7874689 L2.02284569,17.7874689 C1.88727175,18.4107974 2.36209823,19 3,19 L27,19 C27.641298,19 28.1168419,18.4048795 27.9753605,17.7793828 L26.3920271,10.7793828 C26.2889362,10.3236124 25.8839507,10 25.4166667,10 Z M25.4166667,11 L27,18 L3,18 L4.5225,11 L25.4166667,11 Z"/>
    <g fill-rule="nonzero" transform="translate(1.5 17)">
      <polygon fill="url(#printer-k)" points="1.5 1 25.5 1 25.5 7 1.5 7"/>
      <path fill="url(#printer-l)" d="M25.5,0 L1.5,0 C0.94771525,0 0.5,0.44771525 0.5,1 L0.5,7 C0.5,7.55228475 0.94771525,8 1.5,8 L25.5,8 C26.0522847,8 26.5,7.55228475 26.5,7 L26.5,1 C26.5,0.44771525 26.0522847,0 25.5,0 Z M25.5,1 L25.5,7 L1.5,7 L1.5,1 L25.5,1 Z"/>
      <path fill="url(#printer-m)" d="M23.407519,5 C23.8707624,5 24.2747194,5.31151523 24.3877798,5.75593737 L24.6405029,7 L2.5,7 L2.75297583,5.75593737 C2.86603624,5.31151523 3.26999319,5 3.73323661,5 L23.407519,5 Z"/>
    </g>
    <polygon fill="url(#printer-n)" fill-rule="nonzero" points="2.5 18 27.5 18 27.5 19 2.5 19" opacity=".5"/>
    <polygon fill="url(#printer-o)" fill-rule="nonzero" points="5.32 23 24.84 23 25.637 27 4.522 27"/>
    <path fill="url(#printer-p)" fill-rule="nonzero" d="M24.840431,22 L5.31956897,22 C4.84262301,22 4.43205754,22.3368251 4.33885034,22.8045749 L3.54178137,26.8045749 C3.41851524,27.4231719 3.89174106,28 4.5225,28 L25.6375,28 C26.2682589,28 26.7414848,27.4231719 26.6182186,26.8045749 L25.8211497,22.8045749 C25.7279425,22.3368251 25.317377,22 24.840431,22 Z M24.840431,23 L25.6375,27 L4.5225,27 L5.31956897,23 L24.840431,23 Z"/>
    <path fill="#000" fill-opacity=".04" d="M11.5,25 C11.7761424,25 12,25.2238576 12,25.5 C12,25.7761424 11.7761424,26 11.5,26 L6.5,26 C6.22385763,26 6,25.7761424 6,25.5 C6,25.2238576 6.22385763,25 6.5,25 L11.5,25 Z M17.5,25 C17.7761424,25 18,25.2238576 18,25.5 C18,25.7761424 17.7761424,26 17.5,26 L13.5,26 C13.2238576,26 13,25.7761424 13,25.5 C13,25.2238576 13.2238576,25 13.5,25 L17.5,25 Z M23.5,25 C23.7761424,25 24,25.2238576 24,25.5 C24,25.7761424 23.7761424,26 23.5,26 L19.5,26 C19.2238576,26 19,25.7761424 19,25.5 C19,25.2238576 19.2238576,25 19.5,25 L23.5,25 Z"/>
    <circle cx="24.5" cy="20.5" r="1" fill="url(#printer-q)"/>
  </g>
</svg>
