<svg xmlns="http://www.w3.org/2000/svg" xmlns:xlink="http://www.w3.org/1999/xlink" width="32" height="32" viewBox="0 0 32 32">
  <defs>
    <filter id="dde-introduction-a" width="126.7%" height="130.8%" x="-13.3%" y="-15.4%" filterUnits="objectBoundingBox">
      <feOffset dy="1" in="SourceAlpha" result="shadowOffsetOuter1"/>
      <feGaussianBlur in="shadowOffsetOuter1" result="shadowBlurOuter1" stdDeviation=".5"/>
      <feColorMatrix in="shadowBlurOuter1" result="shadowMatrixOuter1" values="0 0 0 0 0   0 0 0 0 0   0 0 0 0 0  0 0 0 0.15 0"/>
      <feMerge>
        <feMergeNode in="shadowMatrixOuter1"/>
        <feMergeNode in="SourceGraphic"/>
      </feMerge>
    </filter>
    <linearGradient id="dde-introduction-b" x1="54.21%" x2="54.135%" y1="87.784%" y2="12.216%">
      <stop offset="0%" stop-color="#E6E6E6"/>
      <stop offset="100%" stop-color="#FAFAFA"/>
    </linearGradient>
    <path id="dde-introduction-c" d="M2.25,1 L27.75,1 C28.4403559,1 29,1.55964406 29,2.25 L29,23.75 C29,24.4403559 28.4403559,25 27.75,25 L2.25,25 C1.55964406,25 1,24.4403559 1,23.75 L1,2.25 C1,1.55964406 1.55964406,1 2.25,1 Z"/>
    <filter id="dde-introduction-d" width="103.6%" height="104.2%" x="-1.8%" y="-2.1%" filterUnits="objectBoundingBox">
      <feOffset dy="1" in="SourceAlpha" result="shadowOffsetInner1"/>
      <feComposite in="shadowOffsetInner1" in2="SourceAlpha" k2="-1" k3="1" operator="arithmetic" result="shadowInnerInner1"/>
      <feColorMatrix in="shadowInnerInner1" values="0 0 0 0 1   0 0 0 0 1   0 0 0 0 1  0 0 0 1 0"/>
    </filter>
    <radialGradient id="dde-introduction-e" cx="50%" cy="10.248%" r="105.558%" fx="50%" fy="10.248%" gradientTransform="matrix(0 1 -.66667 0 .568 -.398)">
      <stop offset="0%" stop-color="#7EC386"/>
      <stop offset="100%" stop-color="#45704A"/>
    </radialGradient>
    <polygon id="dde-introduction-f" points="3 3 27 3 27 19 3 19"/>
    <filter id="dde-introduction-g" width="104.2%" height="106.2%" x="-2.1%" y="-3.1%" filterUnits="objectBoundingBox">
      <feOffset dy="1" in="SourceAlpha" result="shadowOffsetInner1"/>
      <feComposite in="shadowOffsetInner1" in2="SourceAlpha" k2="-1" k3="1" operator="arithmetic" result="shadowInnerInner1"/>
      <feColorMatrix in="shadowInnerInner1" values="0 0 0 0 1   0 0 0 0 1   0 0 0 0 1  0 0 0 0.5 0"/>
    </filter>
    <linearGradient id="dde-introduction-h" x1="37.216%" x2="37.29%" y1="87.991%" y2="11.372%">
      <stop offset="0%" stop-opacity=".478"/>
      <stop offset="100%" stop-opacity=".214"/>
    </linearGradient>
    <linearGradient id="dde-introduction-i" x1="59.639%" x2="59.789%" y1="76.207%" y2="34.25%">
      <stop offset="0%" stop-color="#205E28"/>
      <stop offset="100%" stop-color="#404C41"/>
    </linearGradient>
    <radialGradient id="dde-introduction-j" cx="50%" cy="21.607%" r="93.266%" fx="50%" fy="21.607%" gradientTransform="matrix(0 1 -.76923 0 .666 -.284)">
      <stop offset="0%" stop-color="#FFF" stop-opacity=".819"/>
      <stop offset="100%" stop-color="#CEEBD2"/>
    </radialGradient>
    <path id="dde-introduction-k" d="M21.5727241,12.0614349 C21.9357929,12.218187 22.0996781,12.6308396 21.9372336,12.9834447 C21.8633952,13.1447353 20.0631795,16.9469347 15.4736739,16.9993018 C15.4448589,16.9993018 15.4153235,17 15.3861484,17 C10.9861013,17 9.1408621,13.1517176 9.06414222,12.9865867 C8.90025704,12.6346799 9.06126072,12.2216781 9.42360907,12.0628313 C9.78667779,11.9046827 10.2113385,12.0600384 10.3759441,12.4091523 C10.4378963,12.5407682 11.930152,15.6035444 15.3890299,15.6035444 C15.4117217,15.6035444 15.4340533,15.6028462 15.4567451,15.6028462 C19.1331761,15.5613016 20.6070622,12.4458093 20.6218299,12.4147381 C20.7828336,12.0628313 21.2071341,11.9025881 21.5727241,12.0614349 Z M19.5,7 C20.3285714,7 21,7.67188871 21,8.49943602 C21,9.32773531 20.3285714,10 19.5,10 C18.6710526,10 18,9.32773531 18,8.49943602 C18,7.67188871 18.6710526,7 19.5,7 Z M11.5,7 C12.3285714,7 13,7.67188871 13,8.49943602 C13,9.32773531 12.3285714,10 11.5,10 C10.6710526,10 10,9.32773531 10,8.49943602 C10,7.67188871 10.6710526,7 11.5,7 Z"/>
    <filter id="dde-introduction-l" width="115.4%" height="120%" x="-7.7%" y="-10%" filterUnits="objectBoundingBox">
      <feGaussianBlur in="SourceAlpha" result="shadowBlurInner1" stdDeviation=".5"/>
      <feOffset dy="1" in="shadowBlurInner1" result="shadowOffsetInner1"/>
      <feComposite in="shadowOffsetInner1" in2="SourceAlpha" k2="-1" k3="1" operator="arithmetic" result="shadowInnerInner1"/>
      <feColorMatrix in="shadowInnerInner1" values="0 0 0 0 1   0 0 0 0 1   0 0 0 0 1  0 0 0 0.5 0"/>
    </filter>
  </defs>
  <g fill="none" fill-rule="evenodd" filter="url(#dde-introduction-a)" transform="translate(1 3)">
    <g fill-rule="nonzero">
      <use fill="url(#dde-introduction-b)" xlink:href="#dde-introduction-c"/>
      <use fill="#000" filter="url(#dde-introduction-d)" xlink:href="#dde-introduction-c"/>
    </g>
    <use fill="url(#dde-introduction-e)" xlink:href="#dde-introduction-f"/>
    <use fill="#000" filter="url(#dde-introduction-g)" xlink:href="#dde-introduction-f"/>
    <path fill="url(#dde-introduction-h)" fill-rule="nonzero" d="M27.75,0 L2.25,0 C1.00735931,0 0,1.00735931 0,2.25 L0,23.75 C0,24.9926407 1.00735931,26 2.25,26 L27.75,26 C28.9926407,26 30,24.9926407 30,23.75 L30,2.25 C30,1.00735931 28.9926407,0 27.75,0 Z M27.75,1 C28.4403559,1 29,1.55964406 29,2.25 L29,23.75 C29,24.4403559 28.4403559,25 27.75,25 L2.25,25 C1.55964406,25 1,24.4403559 1,23.75 L1,2.25 C1,1.55964406 1.55964406,1 2.25,1 L27.75,1 Z"/>
    <path fill="url(#dde-introduction-i)" fill-rule="nonzero" d="M27,2 L3,2 C2.44771525,2 2,2.44771525 2,3 L2,19 C2,19.5522847 2.44771525,20 3,20 L27,20 C27.5522847,20 28,19.5522847 28,19 L28,3 C28,2.44771525 27.5522847,2 27,2 Z M27,3 L27,19 L3,19 L3,3 L27,3 Z"/>
    <g fill-rule="nonzero">
      <use fill="url(#dde-introduction-j)" xlink:href="#dde-introduction-k"/>
      <use fill="#000" filter="url(#dde-introduction-l)" xlink:href="#dde-introduction-k"/>
    </g>
    <polygon fill="#C3C3C3" fill-rule="nonzero" points="1 21 29 21 29 22 1 22"/>
    <path fill="#A9A9A9" d="M24.5,23 C24.7761424,23 25,23.2238576 25,23.5 C25,23.7761424 24.7761424,24 24.5,24 C24.2238576,24 24,23.7761424 24,23.5 C24,23.2238576 24.2238576,23 24.5,23 Z M22.5,23 C22.7761424,23 23,23.2238576 23,23.5 C23,23.7761424 22.7761424,24 22.5,24 C22.2238576,24 22,23.7761424 22,23.5 C22,23.2238576 22.2238576,23 22.5,23 Z"/>
    <path fill="#B65D5D" d="M26.5,24 C26.7761424,24 27,23.7761424 27,23.5 C27,23.2238576 26.7761424,23 26.5,23 C26.2238576,23 26,23.2238576 26,23.5 C26,23.7761424 26.2238576,24 26.5,24 Z"/>
    <path fill="#A9A9A9" d="M6.5,23 C6.77614237,23 7,23.2238576 7,23.5 C7,23.7761424 6.77614237,24 6.5,24 L3.5,24 C3.22385763,24 3,23.7761424 3,23.5 C3,23.2238576 3.22385763,23 3.5,23 L6.5,23 Z M9.5,23 C9.77614237,23 10,23.2238576 10,23.5 C10,23.7761424 9.77614237,24 9.5,24 L8.5,24 C8.22385763,24 8,23.7761424 8,23.5 C8,23.2238576 8.22385763,23 8.5,23 L9.5,23 Z M11.5,23 C11.7761424,23 12,23.2238576 12,23.5 C12,23.7761424 11.7761424,24 11.5,24 C11.2238576,24 11,23.7761424 11,23.5 C11,23.2238576 11.2238576,23 11.5,23 Z" opacity=".497"/>
  </g>
</svg>
