<svg xmlns="http://www.w3.org/2000/svg" xmlns:xlink="http://www.w3.org/1999/xlink" width="32" height="32" viewBox="0 0 32 32">
  <defs>
    <filter id="deepin-draw-a" width="126.7%" height="129.6%" x="-13.3%" y="-14.8%" filterUnits="objectBoundingBox">
      <feOffset dy="1" in="SourceAlpha" result="shadowOffsetOuter1"/>
      <feGaussianBlur in="shadowOffsetOuter1" result="shadowBlurOuter1" stdDeviation=".5"/>
      <feColorMatrix in="shadowBlurOuter1" result="shadowMatrixOuter1" values="0 0 0 0 0   0 0 0 0 0   0 0 0 0 0  0 0 0 0.15 0"/>
      <feMerge>
        <feMergeNode in="shadowMatrixOuter1"/>
        <feMergeNode in="SourceGraphic"/>
      </feMerge>
    </filter>
    <linearGradient id="deepin-draw-b" x1="18.343%" x2="69.412%" y1="29.8%" y2="61.022%">
      <stop offset="0%" stop-color="#E8C87C"/>
      <stop offset="100%" stop-color="#AE895A"/>
    </linearGradient>
    <linearGradient id="deepin-draw-c" x1="50%" x2="50%" y1="0%" y2="100%">
      <stop offset="0%" stop-color="#D6B982"/>
      <stop offset="100%" stop-color="#D9BD86"/>
    </linearGradient>
    <linearGradient id="deepin-draw-d" x1="50%" x2="50%" y1="0%" y2="100%">
      <stop offset="0%" stop-color="#EDCE89"/>
      <stop offset="100%" stop-color="#E7CD93"/>
    </linearGradient>
    <linearGradient id="deepin-draw-e" x1="50%" x2="36.924%" y1="18%" y2="82%">
      <stop offset="0%" stop-color="#CCE59B"/>
      <stop offset="100%" stop-color="#6BB45D" stop-opacity=".867"/>
    </linearGradient>
    <linearGradient id="deepin-draw-f" x1="35.601%" x2="50%" y1="82%" y2="24.328%">
      <stop offset="0%" stop-color="#7091B7"/>
      <stop offset="100%" stop-color="#AAC5E5"/>
    </linearGradient>
    <linearGradient id="deepin-draw-g" x1="50%" x2="78.14%" y1="82.78%" y2="24.035%">
      <stop offset="0%" stop-color="#D87E60"/>
      <stop offset="100%" stop-color="#E39D7C"/>
    </linearGradient>
    <linearGradient id="deepin-draw-h" x1="34.492%" x2="50%" y1="82%" y2="17.256%">
      <stop offset="0%" stop-color="#F5DD7D"/>
      <stop offset="100%" stop-color="#F8EAB7"/>
    </linearGradient>
    <linearGradient id="deepin-draw-i" x1="93.268%" x2="31.244%" y1="4.786%" y2="67.768%">
      <stop offset="0%" stop-color="#DDC3B8" stop-opacity="0"/>
      <stop offset="11.475%" stop-color="#D6BAAC"/>
      <stop offset="100%" stop-color="#783900"/>
    </linearGradient>
    <filter id="deepin-draw-j" width="108%" height="107.8%" x="-4%" y="-3.9%" filterUnits="objectBoundingBox">
      <feGaussianBlur in="SourceGraphic" stdDeviation=".253"/>
    </filter>
    <linearGradient id="deepin-draw-k" x1="50%" x2="50%" y1="-1.22%" y2="101.219%">
      <stop offset="0%" stop-color="#5F5F5F"/>
      <stop offset="100%" stop-color="#1E1E1E"/>
    </linearGradient>
    <linearGradient id="deepin-draw-l" x1="31.623%" x2="93.105%" y1="42.858%" y2="42.858%">
      <stop offset="0%" stop-color="#9B9B9B"/>
      <stop offset="28.689%" stop-color="#CDCDCD"/>
      <stop offset="44.198%" stop-color="#E1E1E1"/>
      <stop offset="58.142%" stop-color="#F5F5F5"/>
      <stop offset="100%" stop-color="#B9B9B9"/>
    </linearGradient>
    <path id="deepin-draw-m" d="M2.38062263,20.8872268 L2.37795048,20.9165245 C2.3358661,22.0468104 2.28326063,23.1725561 2.22013407,24.2937618 L0.515716884,24.2937618 C0.435212785,23.4053474 0.371819576,22.2793875 0.325537256,20.9158821 C0.505483909,20.8737687 0.752347429,20.8478021 1.0644686,20.835902 C1.60478246,20.8153017 2.04350047,20.8324099 2.38062263,20.8872268 Z"/>
    <linearGradient id="deepin-draw-n" x1="-18.686%" x2="100%" y1="19.736%" y2="76.424%">
      <stop offset="0%" stop-color="#9D9D9D"/>
      <stop offset="100%" stop-color="#646464"/>
    </linearGradient>
    <path id="deepin-draw-o" d="M1.32076672,21.4373013 C1.66460222,21.4325425 2.00985035,21.4452357 2.35521704,21.475301 L2.34618949,21.6799173 C2.01008718,21.6535148 1.67421558,21.6427211 1.33964652,21.6475949 C1.00915889,21.6539212 0.680639204,21.6762751 0.355206125,21.7145506 C0.353018099,21.6497574 0.350233807,21.5816598 0.34749797,21.5128894 C0.668438376,21.469461 0.993526373,21.4450046 1.32076672,21.4373013 Z"/>
    <linearGradient id="deepin-draw-p" x1="60.539%" x2="90.508%" y1="59.746%" y2="81.996%">
      <stop offset="0%" stop-color="#DE9959"/>
      <stop offset="100%" stop-color="#BB5809"/>
    </linearGradient>
    <linearGradient id="deepin-draw-q" x1="58.796%" x2="45.275%" y1="22.041%" y2="92.261%">
      <stop offset="0%" stop-color="#FFF"/>
      <stop offset="96.555%" stop-color="#882C2C"/>
    </linearGradient>
    <radialGradient id="deepin-draw-r" cx="54.87%" cy="48.482%" r="42.874%" fx="54.87%" fy="48.482%">
      <stop offset=".729%" stop-color="#EFEFEF"/>
      <stop offset="100%" stop-color="#A1A1A1"/>
    </radialGradient>
    <radialGradient id="deepin-draw-s" cx="54.87%" cy="48.482%" r="45.728%" fx="54.87%" fy="48.482%" gradientTransform="scale(-1 -.8) rotate(35.422 1.708 -1.779)">
      <stop offset=".729%" stop-color="#EFEFEF"/>
      <stop offset="100%" stop-color="#A1A1A1"/>
    </radialGradient>
    <radialGradient id="deepin-draw-t" cx="54.87%" cy="48.482%" r="53.081%" fx="54.87%" fy="48.482%" gradientTransform="scale(-1 -.5609) rotate(45.41 1.612 -1.501)">
      <stop offset=".729%" stop-color="#EFEFEF"/>
      <stop offset="100%" stop-color="#A1A1A1"/>
    </radialGradient>
    <radialGradient id="deepin-draw-u" cx="54.87%" cy="48.482%" r="46.351%" fx="54.87%" fy="48.482%" gradientTransform="matrix(-.80396 -.45745 .59468 -.61843 .702 1.036)">
      <stop offset=".729%" stop-color="#EFEFEF"/>
      <stop offset="100%" stop-color="#A1A1A1"/>
    </radialGradient>
  </defs>
  <g fill="none" fill-rule="evenodd" filter="url(#deepin-draw-a)" transform="translate(1.263 3.03)">
    <path fill="url(#deepin-draw-b)" fill-rule="nonzero" d="M25.2522245,2.9900029 C21.6834754,0.668069517 17.2386382,-0.00482361227 11.9090647,2.02103635 C4.05962815,4.99612565 -1.38373918,11.2917588 0.694106116,17.2365542 C2.77195141,23.1813497 11.2851912,25.8073947 19.4933141,23.8568989 C21.620859,23.372199 23.63523,22.4890596 25.4279446,21.2550415 C27.469559,19.6400956 25.9985822,18.1740835 24.853684,17.3468723 C22.6798266,15.7857579 23.8935637,13.9572802 27.6597715,12.2544095 C31.7248847,10.4241374 28.4061292,5.03739548 25.2522245,2.9900029 Z M20.6675379,20.6268812 C19.1090443,21.1336362 17.6314829,20.7524031 17.2529158,19.6066152 C16.8743487,18.4608274 17.8349185,17.1194172 19.3934121,16.6089361 C20.9519057,16.098455 22.5192443,16.6201145 22.8960425,17.7659024 C23.012295,18.1194093 22.8535521,18.3336636 22.7255625,18.6766502 C22.4387118,19.4453529 21.7451936,20.2764741 20.6675379,20.6268812 Z"/>
    <path stroke="url(#deepin-draw-c)" d="M11.7002593,2.41635482 C16.8456745,0.456312558 21.8254521,1.12119093 25.2787456,3.3729031 C26.9145191,4.4416622 28.3928431,6.36924682 28.7244699,8.17770868 C28.8526613,8.87677538 28.8055646,9.55770679 28.4940338,10.1476999 C28.2141051,10.6778436 27.722563,11.1261592 26.988608,11.4595751 C25.1314596,12.3030055 24.0732155,13.2475679 23.5954765,14.1192907 C23.2782393,14.6981485 23.1990208,15.2582421 23.2986146,15.7686339 C23.4032635,16.3049321 23.7092165,16.7954399 24.1988439,17.200284 C24.8708795,17.7408654 25.5756336,18.2870985 25.6510445,18.9753022 C25.7035713,19.4546638 25.3847444,19.9587149 24.6620144,20.5532191 C22.9844987,21.7103148 21.1075218,22.5493428 19.127239,23.0283513 C14.9388351,24.0244804 10.84222,23.9333801 7.56500256,22.8228323 C4.5052892,21.7859899 2.16098043,19.856629 1.19290838,17.0738777 C0.23184791,14.3112813 0.900105611,11.4708787 2.67603762,8.95714786 C4.59379457,6.24267187 7.79502663,3.90566107 11.7002593,2.41635482 Z"/>
    <path stroke="url(#deepin-draw-d)" d="M19.2138061,16.589181 C19.9457558,16.3524462 20.6865074,16.3518359 21.2895336,16.5601887 C21.8179055,16.7427475 22.2425096,17.0889619 22.4080013,17.5908776 C22.5733304,18.0922998 22.4364583,18.6211668 22.1186798,19.0788394 C21.7555073,19.6018895 21.1566999,20.0369808 20.425115,20.2753503 C19.7074419,20.5094378 18.9802733,20.5141191 18.3833388,20.3161681 C17.859339,20.1424031 17.433413,19.809955 17.2534549,19.3257325 C17.0841225,18.8005941 17.2112088,18.2588087 17.5251752,17.7933997 C17.8839283,17.2616011 18.4824317,16.8257298 19.2138061,16.589181 Z"/>
    <path fill="url(#deepin-draw-e)" fill-rule="nonzero" d="M5.56648754,10.11081 C5.07248645,9.29621217 5.33183702,8.39400916 5.85300817,7.81999884 C6.90770049,6.6589028 7.81295748,6.77396637 8.16740326,6.88249224 C8.5947142,7.0132463 8.66757936,7.44342715 9.01091011,7.67616938 C9.37400091,7.92198701 9.98409225,7.88406833 10.2841979,8.34824524 C10.5608385,8.7784261 10.0149673,10.1578814 8.37858872,10.6691298 C6.97068562,11.1058483 5.93698835,10.7279691 5.56648754,10.11081 Z"/>
    <path fill="url(#deepin-draw-f)" fill-rule="nonzero" d="M3.04291163,15.9093711 C2.55053872,15.0925268 2.80172389,14.1902439 3.32034003,13.619359 C4.37131875,12.4607604 5.27858457,12.5837402 5.63349296,12.6911856 C6.06088265,12.820638 6.13336394,13.2543034 6.48077427,13.4886121 C6.84817943,13.7345716 7.45677235,13.6983249 7.75794461,14.1656479 C8.03662268,14.5980188 7.49551235,15.9779809 5.8584349,16.480256 C4.45254779,16.9139214 3.41656519,16.5294479 3.04291163,15.9093711 Z"/>
    <path fill="url(#deepin-draw-g)" fill-rule="nonzero" d="M22.7271935,9.3650799 C22.2455457,8.55639919 22.5056604,7.65419758 23.030868,7.07656849 C24.093729,5.90893257 24.9997744,6.01483123 25.3519871,6.1221052 C25.7776293,6.25138409 25.8498142,6.67222814 26.1895813,6.90603039 C26.5517505,7.14808448 27.1615888,7.10407464 27.4565514,7.56617791 C27.7303563,7.99389849 27.1740345,9.37470705 25.5324494,9.90420037 C24.1235986,10.3498 23.0930964,9.97846697 22.7271935,9.3650799 Z"/>
    <path fill="url(#deepin-draw-h)" fill-rule="nonzero" d="M12.3722489,5.83720452 C11.8919212,5.03169503 12.1559181,4.12721509 12.6814674,3.54851288 C13.749677,2.37598797 14.6541107,2.47908219 15.0036621,2.58630018 C15.4289904,2.71413701 15.4925452,3.13613601 15.83843,3.36844164 C16.2050923,3.60899482 16.8161962,3.56363336 17.1046372,4.02412087 C17.3771895,4.45024364 16.8161962,5.83308075 15.1723268,6.36092315 C13.7655657,6.81728688 12.7364668,6.45027147 12.3722489,5.83720452 Z"/>
    <path fill="url(#deepin-draw-i)" fill-rule="nonzero" d="M12.302124,20.4929909 C15.092498,18.919585 19.2509504,15.0252276 19.9955321,14.3132792 C23.6895246,10.7535375 26.971974,6.96310829 27.5231813,5.33986606 C27.315349,5.12450168 27.102095,4.9215964 26.8834193,4.72937035 C25.2044961,5.26333161 21.1250552,8.20832216 17.4491351,11.7556048 C16.8111804,12.3714401 16.2021416,12.9837157 15.6310546,13.5799724 C15.4882829,13.7294816 15.4503309,13.7846576 15.3039447,13.9359466 L15.061775,14.1958078 C15.061775,14.1958078 11.4762167,18.6365856 11.3352522,18.8750883 C9.5135573,20.8436255 8.61051382,22.3726772 8.5852125,23.6061278 C9.40203934,23.8578903 10.4404447,24.1437744 11.3352522,24.2406 C11.5685281,23.9317643 11.7282802,23.8525228 11.9063391,23.509872 C12.4973056,22.3760943 12.2967023,20.491211 12.302124,20.4929909 Z" filter="url(#deepin-draw-j)" opacity=".397" style="mix-blend-mode:multiply"/>
    <g transform="rotate(39 11.982 35.011)">
      <path fill="url(#deepin-draw-k)" fill-rule="nonzero" d="M1.52581365,0.0532864758 L1.28529685,0.0532864758 C1.12192823,0.0532864758 0.98612728,0.154899829 0.973688045,0.286451637 C0.559547933,4.66513906 0.3409782,9.00966159 0.31797087,13.3199611 L0.315940811,14.080247 L0.317393335,14.9733734 C0.330276248,18.8614228 0.428848041,21.7869545 0.612671048,23.7468866 L0.633845368,23.9646406 L0.641779407,24.0410359 L2.16886413,24.0410359 L2.20502939,23.503713 C2.38793298,20.656278 2.48700755,17.7795722 2.50224982,14.8735933 L2.50432831,14.0803278 C2.50432831,11.1156152 2.33024006,7.17291523 1.98200836,2.25348842 L1.94259931,1.70286605 L1.83773566,0.290196943 C1.82833442,0.166579284 1.70984132,0.0682624359 1.56073141,0.0548478742 L1.52581365,0.0532864758 Z"/>
      <use fill="url(#deepin-draw-l)" fill-rule="nonzero" xlink:href="#deepin-draw-m"/>
      <use fill="url(#deepin-draw-n)" fill-rule="nonzero" xlink:href="#deepin-draw-o"/>
    </g>
    <g fill-rule="nonzero" transform="rotate(2 -532.087 175.79)">
      <path fill="#A06C5C" d="M5.82685477,1.19153144 C5.5943365,1.06050876 5.06710981,0.682538301 4.86982158,0.53772375 C4.67253336,0.392909199 4.47717998,0.280301031 4.31336029,0.147554359 C3.23179806,0.0406674286 1.77415223,0.667610622 1.02727538,2.12265206 C-0.0683788652,4.23797889 0.305059559,7.07048255 0.305059559,7.07048255 C0.305059559,7.07048255 3.43701012,6.38088945 4.94485583,4.86033666 C6.12682367,3.67423653 6.3799664,2.12593009 5.82685477,1.19153144 Z"/>
      <path fill="url(#deepin-draw-p)" d="M5.72331,1.20140435 C5.50917714,1.08419463 5.17699399,0.797492986 4.9632148,0.638905991 C4.74943562,0.480318997 5.71688568,1.89967374 4.78960225,3.45465346 C3.68723755,5.30398527 0.379375241,6.71639005 0.379375241,6.71639005 C0.379375241,6.71639005 3.34204143,6.07103719 4.87940996,4.57073326 C5.96713118,3.50923604 6.2586022,2.1135001 5.72331,1.20140435 Z" opacity=".208" transform="rotate(-2 3.182 3.672)" style="mix-blend-mode:multiply"/>
      <path fill="url(#deepin-draw-q)" d="M3.09729146,5.6877549 C3.34024686,5.53165261 3.57399932,5.36323159 3.79751442,5.18323713 C4.02403483,5.0014005 4.2375944,4.80573209 4.43681048,4.59749869 C4.63704064,4.38955592 4.81648971,4.16469048 4.97288497,3.92575026 C4.59697277,4.34340609 4.17329016,4.72078505 3.7095044,5.05105783 C3.4811692,5.21020946 3.25114227,5.36936058 3.01265187,5.51258713 C2.61343246,5.73762777 2.18768373,5.91810574 1.74401792,6.05037025 C2.10325589,5.8230641 2.4482994,5.57650016 2.77744062,5.31189885 C2.94657301,5.17820466 3.10386184,5.0397303 3.26114875,4.89488713 C3.33894609,4.82166919 3.41674344,4.74845125 3.49115636,4.67204789 C3.56556928,4.59564453 3.63998027,4.51287235 3.70762628,4.43646695 C3.3693557,4.68474889 3.02262068,4.91392185 2.67927249,5.15424125 C2.33592431,5.39456064 1.91305422,5.59982767 1.70331887,5.72873304 C2.26989712,5.23054389 3.17124322,4.09079765 3.54327596,3.60369543 C3.73098454,3.36173704 3.90854081,3.11340677 4.07763698,2.86029736 C4.24773441,2.60903757 4.40406303,2.34974758 4.54601042,2.08344319 C4.36112171,2.3264639 4.17228418,2.56470682 3.97949784,2.79817194 C3.78840387,3.03376051 3.59223326,3.26457094 3.39437044,3.49378866 C2.99638883,3.95116196 2.58712582,4.39791717 2.16658138,4.83405431 C1.74547303,5.27019128 1.3869355,5.62992133 1.0182558,6.01671577 C1.0182558,6.01671577 1.91602142,4.22734968 2.14936083,3.83414573 C2.38270023,3.44094178 2.61603963,3.04773783 2.85445278,2.6497588 C2.53663937,2.9971539 2.24452402,3.3646657 1.98016228,3.7497081 C1.7129849,4.13175646 1.47287858,4.52495837 1.23784986,4.92612283 C1.00282115,5.32728729 0.799937221,5.73483022 0.610589063,6.14874604 L0.542968171,6.30794599 C0.581819037,6.11370892 0.624053363,5.91947287 0.669671148,5.72523784 C0.799252812,5.18515246 0.965216541,4.65339398 1.16655674,4.13318436 C1.37270379,3.60223922 1.62314052,3.08749037 1.91552598,2.59374938 C1.98992441,2.46957993 2.06770679,2.34700369 2.14718089,2.22442797 C2.226655,2.10185224 2.31628045,1.98246398 2.39913946,1.86466588 C2.57239701,1.62460453 2.76280456,1.39591848 2.96904468,1.18019 C2.84957836,1.26956983 2.73657553,1.3663438 2.63078665,1.46986922 C2.52085562,1.57332935 2.41600171,1.68315982 2.31283808,1.78821419 C2.1104425,2.01473352 1.92402602,2.25348767 1.75478414,2.50294549 C1.41890519,2.99773037 1.14165832,3.52569373 0.928005975,4.07738554 C0.719675282,4.61078659 0.567421755,5.16215744 0.473430038,5.72358663 C0.435151773,5.94648352 0.407023563,6.168322 0.389045409,6.38910206 C0.404337131,6.60723845 0.422984788,6.73462028 0.422984788,6.73462028 C0.880778396,6.65018657 1.33270045,6.53972717 1.77626799,6.40384899 C1.97586535,6.31580711 2.1737689,6.22086518 2.36997862,6.11902319 C2.61016317,5.98375816 2.86387963,5.84212839 3.09729146,5.6877549 Z" opacity=".246" transform="rotate(-2 2.681 3.957)" style="mix-blend-mode:multiply"/>
      <path fill="url(#deepin-draw-r)" d="M2.45855286,1.41457827 C1.88288209,1.92745909 1.31404421,2.93987438 1.12101514,3.25256008 C1.20877659,2.89073181 1.34344069,2.54516012 1.52073906,2.22679845 C1.69929299,1.89662672 1.91452702,1.59297348 2.16132226,1.32306051 C2.40314338,1.04659576 2.68642025,0.819464142 2.99835097,0.651930223 C3.27860959,0.503752913 3.59065964,0.446915803 3.89858389,0.487960892 C3.37979987,0.714815603 2.89440018,1.02715594 2.45855286,1.41457827 Z" opacity=".16"/>
      <path fill="url(#deepin-draw-s)" d="M3.48854899 1.62428524C3.33713328 1.75692471 3.19276015 1.89398549 3.05366897 2.03399382 2.77486802 2.313969 2.51899103 2.60939655 2.28778714 2.91825695 1.7603962 3.58561599 1.30606538 4.29147054.930327626 5.02722452 1.17419498 4.24652972 1.56846856 3.5043321 2.09763717 2.82983064 2.33783433 2.50942152 2.61690932 2.2106268 2.93042362 1.93819865 3.08530268 1.80366142 3.24931479 1.6767066 3.42164438 1.5579655 3.58980337 1.43891307 3.77007591 1.33239588 3.96040263 1.23963077 3.79490173 1.36342761 3.63996471 1.49164577 3.48854899 1.62428524zM4.24800442 2.24022815C3.95314881 2.59918312 3.15356978 3.54453433 2.77892971 4.03036131 2.53784188 4.33980524 1.56481837 5.61161981 1.21792942 6.0278219 1.84985695 5.42173935 2.44006978 4.78208315 2.98532863 4.11236395 3.45574379 3.51598634 3.87771345 2.89034315 4.24800442 2.24022815L4.24800442 2.24022815z" opacity=".16"/>
      <path fill="url(#deepin-draw-t)" d="M3.57342798,2.51133159 C3.43958987,2.74465422 3.22227741,3.14817493 3.03178545,3.44653924 C2.90898995,3.63779903 2.44601911,4.49838777 2.29798384,4.78524504 C2.45757312,4.29044746 2.66430251,3.82000771 2.913936,3.38356545 C3.10429894,3.06182637 3.32571557,2.76898417 3.57342798,2.51133159 Z" opacity=".16" transform="rotate(6 2.936 3.648)"/>
      <path fill="url(#deepin-draw-u)" d="M4.73478769,2.20559388 C4.34077064,2.83577927 3.91489688,3.52740334 3.51249648,4.05050987 C3.11421637,4.56411001 2.6786657,5.04475927 2.20972519,5.48817513 C2.77737333,5.10024463 3.29423922,4.63641574 3.74723005,4.10843777 C4.17965199,3.53914133 4.51385212,2.89519849 4.73478769,2.20559388 L4.73478769,2.20559388 Z" opacity=".16"/>
    </g>
  </g>
</svg>
