<svg xmlns="http://www.w3.org/2000/svg" xmlns:xlink="http://www.w3.org/1999/xlink" width="32" height="32" viewBox="0 0 32 32">
  <defs>
    <filter id="deepin-camera-a" width="128.6%" height="128.6%" x="-14.3%" y="-14.3%" filterUnits="objectBoundingBox">
      <feOffset dy="1" in="SourceAlpha" result="shadowOffsetOuter1"/>
      <feGaussianBlur in="shadowOffsetOuter1" result="shadowBlurOuter1" stdDeviation=".5"/>
      <feColorMatrix in="shadowBlurOuter1" result="shadowMatrixOuter1" values="0 0 0 0 0   0 0 0 0 0   0 0 0 0 0  0 0 0 0.15 0"/>
      <feMerge>
        <feMergeNode in="shadowMatrixOuter1"/>
        <feMergeNode in="SourceGraphic"/>
      </feMerge>
    </filter>
    <linearGradient id="deepin-camera-b" x1="50%" x2="50%" y1="0%" y2="108.279%">
      <stop offset="0%" stop-color="#F7F7F7"/>
      <stop offset="100%" stop-color="#B8B8B8"/>
    </linearGradient>
    <path id="deepin-camera-c" d="M2.5,1 L25.5,1 C26.3284271,1 27,1.67157288 27,2.5 L27,25.5 C27,26.3284271 26.3284271,27 25.5,27 L2.5,27 C1.67157288,27 1,26.3284271 1,25.5 L1,2.5 C1,1.67157288 1.67157288,1 2.5,1 Z"/>
    <filter id="deepin-camera-d" width="103.8%" height="103.8%" x="-1.9%" y="-1.9%" filterUnits="objectBoundingBox">
      <feOffset dy="1" in="SourceAlpha" result="shadowOffsetInner1"/>
      <feComposite in="shadowOffsetInner1" in2="SourceAlpha" k2="-1" k3="1" operator="arithmetic" result="shadowInnerInner1"/>
      <feColorMatrix in="shadowInnerInner1" values="0 0 0 0 1   0 0 0 0 1   0 0 0 0 1  0 0 0 1 0"/>
    </filter>
    <linearGradient id="deepin-camera-e" x1="50%" x2="50%" y1=".202%" y2="100%">
      <stop offset="0%" stop-opacity=".071"/>
      <stop offset="100%" stop-opacity=".311"/>
    </linearGradient>
    <linearGradient id="deepin-camera-f" x1="47.895%" x2="47.895%" y1="-1.471%" y2="101.471%">
      <stop offset="0%" stop-color="#D86E69"/>
      <stop offset="100%" stop-color="#9A201A"/>
    </linearGradient>
    <linearGradient id="deepin-camera-i" x1="50%" x2="50%" y1="0%" y2="100%">
      <stop offset="0%" stop-color="#FDFDFD"/>
      <stop offset="100%" stop-color="#C3C3C3"/>
    </linearGradient>
    <circle id="deepin-camera-h" cx="14" cy="14" r="10"/>
    <filter id="deepin-camera-g" width="120%" height="120%" x="-10%" y="-5%" filterUnits="objectBoundingBox">
      <feOffset dy="1" in="SourceAlpha" result="shadowOffsetOuter1"/>
      <feGaussianBlur in="shadowOffsetOuter1" result="shadowBlurOuter1" stdDeviation=".5"/>
      <feColorMatrix in="shadowBlurOuter1" values="0 0 0 0 0   0 0 0 0 0   0 0 0 0 0  0 0 0 0.097847465 0"/>
    </filter>
    <linearGradient id="deepin-camera-j" x1="50%" x2="50%" y1="3.139%" y2="100%">
      <stop offset="0%" stop-opacity=".068"/>
      <stop offset="100%" stop-opacity=".175"/>
    </linearGradient>
    <linearGradient id="deepin-camera-k" x1="50%" x2="50%" y1="0%" y2="100%">
      <stop offset="0%" stop-color="#757575"/>
      <stop offset="100%" stop-color="#FFF"/>
    </linearGradient>
    <linearGradient id="deepin-camera-l" x1="39.277%" x2="39.277%" y1="12.707%" y2="91.218%">
      <stop offset="0%" stop-color="#272727"/>
      <stop offset="100%" stop-color="#1A191D"/>
    </linearGradient>
    <linearGradient id="deepin-camera-m" x1="50%" x2="50%" y1="0%" y2="100%">
      <stop offset="0%" stop-color="#FFF" stop-opacity=".15"/>
      <stop offset="43.683%" stop-color="#7F7F7F" stop-opacity=".24"/>
      <stop offset="100%" stop-color="#FFF" stop-opacity=".347"/>
    </linearGradient>
    <linearGradient id="deepin-camera-n" x1="50%" x2="50%" y1="0%" y2="100%">
      <stop offset="0%" stop-color="#F87F7F"/>
      <stop offset="100%" stop-color="#B61D1D"/>
    </linearGradient>
    <linearGradient id="deepin-camera-o" x1="50%" x2="50%" y1="0%" y2="99.323%">
      <stop offset="0%" stop-opacity=".3"/>
      <stop offset="100%" stop-color="#FFF" stop-opacity=".846"/>
    </linearGradient>
    <radialGradient id="deepin-camera-p" cx="50%" cy="51.34%" r="58.486%" fx="50%" fy="51.34%">
      <stop offset="0%" stop-color="#AC60DA"/>
      <stop offset="100%" stop-color="#27132B" stop-opacity=".664"/>
    </radialGradient>
    <radialGradient id="deepin-camera-q" cx="50%" cy="51.34%" r="57.196%" fx="50%" fy="51.34%">
      <stop offset="0%" stop-color="#B653F2"/>
      <stop offset="100%" stop-color="#753E81" stop-opacity="0"/>
    </radialGradient>
    <radialGradient id="deepin-camera-r" cx="50%" cy="51.34%" r="73.102%" fx="50%" fy="51.34%" gradientTransform="matrix(0 1 -.96828 0 .997 .013)">
      <stop offset="0%" stop-color="#FFF" stop-opacity="0"/>
      <stop offset="100%" stop-color="#FFF"/>
    </radialGradient>
  </defs>
  <g fill="none" fill-rule="evenodd" filter="url(#deepin-camera-a)" transform="translate(2 2)">
    <use fill="url(#deepin-camera-b)" xlink:href="#deepin-camera-c"/>
    <use fill="#000" filter="url(#deepin-camera-d)" xlink:href="#deepin-camera-c"/>
    <path fill="url(#deepin-camera-e)" fill-rule="nonzero" d="M25.5,0 L2.5,0 C1.11928813,0 0,1.11928813 0,2.5 L0,25.5 C0,26.8807119 1.11928813,28 2.5,28 L25.5,28 C26.8807119,28 28,26.8807119 28,25.5 L28,2.5 C28,1.11928813 26.8807119,0 25.5,0 Z M25.5,1 C26.3284271,1 27,1.67157288 27,2.5 L27,25.5 C27,26.3284271 26.3284271,27 25.5,27 L2.5,27 C1.67157288,27 1,26.3284271 1,25.5 L1,2.5 C1,1.67157288 1.67157288,1 2.5,1 L25.5,1 Z"/>
    <polygon fill="url(#deepin-camera-f)" fill-rule="nonzero" points="1 8 27 8 27 21 1 21"/>
    <polygon fill="#732623" fill-rule="nonzero" points="27 21 27 22 1 22 1 21"/>
    <polygon fill="#C2514A" fill-rule="nonzero" points="27 8 27 9 1 9 1 8"/>
    <use fill="#000" filter="url(#deepin-camera-g)" xlink:href="#deepin-camera-h"/>
    <use fill="url(#deepin-camera-i)" xlink:href="#deepin-camera-h"/>
    <path fill="url(#deepin-camera-j)" fill-rule="nonzero" d="M14,3 C7.92486775,3 3,7.92486775 3,14 C3,20.0751322 7.92486775,25 14,25 C20.0751322,25 25,20.0751322 25,14 C25,7.92486775 20.0751322,3 14,3 Z M14,4 C19.5228475,4 24,8.4771525 24,14 C24,19.5228475 19.5228475,24 14,24 C8.4771525,24 4,19.5228475 4,14 C4,8.4771525 8.4771525,4 14,4 Z"/>
    <circle cx="14" cy="14" r="8" fill="url(#deepin-camera-k)"/>
    <circle cx="14" cy="14" r="6.5" fill="url(#deepin-camera-l)"/>
    <path fill="url(#deepin-camera-m)" fill-rule="nonzero" d="M14,7.5 C17.5898509,7.5 20.5,10.4101491 20.5,14 C20.5,17.5898509 17.5898509,20.5 14,20.5 C10.4101491,20.5 7.5,17.5898509 7.5,14 C7.5,10.4101491 10.4101491,7.5 14,7.5 Z M14,8.5 C10.9624339,8.5 8.5,10.9624339 8.5,14 C8.5,17.0375661 10.9624339,19.5 14,19.5 C17.0375661,19.5 19.5,17.0375661 19.5,14 C19.5,10.9624339 17.0375661,8.5 14,8.5 Z"/>
    <circle cx="24" cy="4" r="1" fill="url(#deepin-camera-n)"/>
    <path fill="url(#deepin-camera-o)" fill-rule="nonzero" d="M24,2 C22.8954305,2 22,2.8954305 22,4 C22,5.1045695 22.8954305,6 24,6 C25.1045695,6 26,5.1045695 26,4 C26,2.8954305 25.1045695,2 24,2 Z M24,3 C24.5522847,3 25,3.44771525 25,4 C25,4.55228475 24.5522847,5 24,5 C23.4477153,5 23,4.55228475 23,4 C23,3.44771525 23.4477153,3 24,3 Z"/>
    <g transform="translate(10 10)">
      <circle cx="4" cy="4" r="4" fill="url(#deepin-camera-p)"/>
      <circle cx="4" cy="4" r="2.75" fill="#242424"/>
      <circle cx="4" cy="4" r="2" fill="url(#deepin-camera-q)"/>
      <path fill="url(#deepin-camera-r)" d="M7.9677025,4.51071346 C7.71690768,6.47867983 6.03611553,8 4,8 C3.99966528,8 3.99933057,7.99999996 3.99899587,7.99999988 L4,6.75 L4,6.75 C5.34438535,6.75 6.46345379,5.78530366 6.70272681,4.51038949 Z M1.51090987,2.831126 C1.32422897,3.20224993 1.25,3.55623861 1.25,4 L-1.0658141e-13,4 C-1.0658141e-13,3.42614238 0.120843723,2.88050933 0.338471926,2.38716008 C0.926456896,2.60132302 1.31631531,2.74905479 1.51090987,2.831126 Z M3.00708865,1.4347132 C2.428401,1.65885208 1.98489939,2.00628022 1.67240028,2.53408077 C1.55664514,2.46160089 1.19298601,2.2582561 0.581422879,1.92404641 C1.02802039,1.18799112 1.70656254,0.608046737 2.51539253,0.284565159 C2.78094425,0.920887183 2.94480129,1.30367874 3.00708865,1.4347132 Z" opacity=".162"/>
    </g>
  </g>
</svg>
