<svg xmlns="http://www.w3.org/2000/svg" xmlns:xlink="http://www.w3.org/1999/xlink" width="32" height="32" viewBox="0 0 32 32">
  <defs>
    <filter id="deepin-multitasking-view-a" width="126.7%" height="128.6%" x="-13.3%" y="-14.3%" filterUnits="objectBoundingBox">
      <feOffset dy="1" in="SourceAlpha" result="shadowOffsetOuter1"/>
      <feGaussianBlur in="shadowOffsetOuter1" result="shadowBlurOuter1" stdDeviation=".5"/>
      <feColorMatrix in="shadowBlurOuter1" result="shadowMatrixOuter1" values="0 0 0 0 0   0 0 0 0 0   0 0 0 0 0  0 0 0 0.15 0"/>
      <feMerge>
        <feMergeNode in="shadowMatrixOuter1"/>
        <feMergeNode in="SourceGraphic"/>
      </feMerge>
    </filter>
    <linearGradient id="deepin-multitasking-view-b" x1="50%" x2="50%" y1="0%" y2="100%">
      <stop offset="0%" stop-color="#E2E2E4"/>
      <stop offset="100%" stop-color="#C8C7CA"/>
    </linearGradient>
    <path id="deepin-multitasking-view-c" d="M3,1 L27,1 C28.1045695,1 29,1.8954305 29,3 L29,25 C29,26.1045695 28.1045695,27 27,27 L3,27 C1.8954305,27 1,26.1045695 1,25 L1,3 C1,1.8954305 1.8954305,1 3,1 Z"/>
    <filter id="deepin-multitasking-view-d" width="103.6%" height="103.8%" x="-1.8%" y="-1.9%" filterUnits="objectBoundingBox">
      <feOffset dy="1" in="SourceAlpha" result="shadowOffsetInner1"/>
      <feComposite in="shadowOffsetInner1" in2="SourceAlpha" k2="-1" k3="1" operator="arithmetic" result="shadowInnerInner1"/>
      <feColorMatrix in="shadowInnerInner1" values="0 0 0 0 1   0 0 0 0 1   0 0 0 0 1  0 0 0 1 0"/>
    </filter>
    <linearGradient id="deepin-multitasking-view-e" x1="50%" x2="50%" y1="0%" y2="100%">
      <stop offset="0%" stop-color="#BEBFC7"/>
      <stop offset="100%" stop-color="#87888D"/>
    </linearGradient>
    <radialGradient id="deepin-multitasking-view-f" cx="50%" cy="18.478%" r="81.522%" fx="50%" fy="18.478%" gradientTransform="matrix(0 1 -.91348 0 .669 -.315)">
      <stop offset="0%" stop-color="#6BB1DD"/>
      <stop offset="35.604%" stop-color="#60A0CE"/>
      <stop offset="100%" stop-color="#32639A"/>
    </radialGradient>
    <linearGradient id="deepin-multitasking-view-g" x1="50%" x2="50%" y1="-1.651%" y2="100%">
      <stop offset="0%" stop-color="#005392" stop-opacity=".557"/>
      <stop offset="100%" stop-color="#002D5B" stop-opacity=".855"/>
    </linearGradient>
    <linearGradient id="deepin-multitasking-view-j" x1="50%" x2="50%" y1="0%" y2="100%">
      <stop offset="0%" stop-color="#FFF"/>
      <stop offset="100%" stop-color="#FFF" stop-opacity=".6"/>
    </linearGradient>
    <path id="deepin-multitasking-view-i" d="M17.4987692,9 C17.7755913,9 18,9.22788048 18,9.51155663 L18,14.4884434 C18,14.7709683 17.7702494,15 17.4987692,15 L7.50123084,15 C7.22440869,15 7,14.7721195 7,14.4884434 L7,9.51155663 C7,9.2290317 7.22975063,9 7.50123084,9 L17.4987692,9 Z M4.50230122,9 C4.77717266,9 5,9.22788048 5,9.51155663 L5,14.4884434 C5,14.7709683 4.7721678,15 4.50230122,15 L0.497698784,15 C0.222827336,15 -3.53050922e-13,14.7721195 -3.53050922e-13,14.4884434 L-3.53050922e-13,9.51155663 C-3.53050922e-13,9.2290317 0.227832198,9 0.497698784,9 L4.50230122,9 Z M9.49035048,3.33066907e-14 C9.77182214,3.33066907e-14 10,0.227880478 10,0.511556625 L10,5.48844337 C10,5.7709683 9.77234721,6 9.49035048,6 L0.509649515,6 C0.22817786,6 -2.14672724e-12,5.77211952 -2.14672724e-12,5.48844337 L-2.14672724e-12,0.511556625 C-2.14672724e-12,0.229031703 0.227652788,3.33066907e-14 0.509649515,3.33066907e-14 L9.49035048,3.33066907e-14 Z M18.4949875,3.33066907e-14 C18.7738982,3.33066907e-14 19,0.226101798 19,0.5050125 L19,5.4949875 C19,5.7738982 18.7738982,6 18.4949875,6 L12.5050125,6 C12.2261018,6 12,5.7738982 12,5.4949875 L12,0.5050125 C12,0.226101798 12.2261018,3.33066907e-14 12.5050125,3.33066907e-14 L18.4949875,3.33066907e-14 Z"/>
    <filter id="deepin-multitasking-view-h" width="105.3%" height="113.3%" x="-2.6%" y="-3.3%" filterUnits="objectBoundingBox">
      <feOffset dy="1" in="SourceAlpha" result="shadowOffsetOuter1"/>
      <feColorMatrix in="shadowOffsetOuter1" values="0 0 0 0 0   0 0 0 0 0   0 0 0 0 0  0 0 0 0.1 0"/>
    </filter>
  </defs>
  <g fill="none" fill-rule="evenodd" filter="url(#deepin-multitasking-view-a)" transform="translate(1 2)">
    <g fill-rule="nonzero">
      <use fill="url(#deepin-multitasking-view-b)" xlink:href="#deepin-multitasking-view-c"/>
      <use fill="#000" filter="url(#deepin-multitasking-view-d)" xlink:href="#deepin-multitasking-view-c"/>
    </g>
    <path fill="url(#deepin-multitasking-view-e)" fill-rule="nonzero" d="M27,0 L3,0 C1.34314575,0 0,1.34314575 0,3 L0,25 C0,26.6568542 1.34314575,28 3,28 L27,28 C28.6568542,28 30,26.6568542 30,25 L30,3 C30,1.34314575 28.6568542,0 27,0 Z M27,1 C28.1045695,1 29,1.8954305 29,3 L29,25 C29,26.1045695 28.1045695,27 27,27 L3,27 C1.8954305,27 1,26.1045695 1,25 L1,3 C1,1.8954305 1.8954305,1 3,1 L27,1 Z"/>
    <path fill="url(#deepin-multitasking-view-f)" fill-rule="nonzero" d="M3.5,3 L26.5,3 C26.7761424,3 27,3.22385763 27,3.5 L27,24 L27,24 L3,24 L3,3.5 C3,3.22385763 3.22385763,3 3.5,3 Z"/>
    <path fill="url(#deepin-multitasking-view-g)" fill-rule="nonzero" d="M26.5,2 L3.5,2 C2.67157288,2 2,2.67157288 2,3.5 L2,25 L28,25 L28,3.5 C28,2.67157288 27.3284271,2 26.5,2 Z M26.5,3 C26.7761424,3 27,3.22385763 27,3.5 L27,24 L3,24 L3,3.5 C3,3.22385763 3.22385763,3 3.5,3 L26.5,3 Z"/>
    <g transform="translate(6 6)">
      <g fill-rule="nonzero">
        <use fill="#000" filter="url(#deepin-multitasking-view-h)" xlink:href="#deepin-multitasking-view-i"/>
        <use fill="url(#deepin-multitasking-view-j)" xlink:href="#deepin-multitasking-view-i"/>
      </g>
      <path fill="#004480" fill-opacity=".289" d="M1.335,1 L8.665,1 C8.85001539,1 9,1.14998461 9,1.335 L9,1.665 C9,1.85001539 8.85001539,2 8.665,2 L1.335,2 C1.14998461,2 1,1.85001539 1,1.665 L1,1.335 C1,1.14998461 1.14998461,1 1.335,1 Z"/>
      <rect width="3" height="1" x="1" y="10" fill="#004480" fill-opacity=".289" rx=".335"/>
      <rect width="9" height="1" x="8" y="10" fill="#004480" fill-opacity=".289" rx=".335"/>
      <path fill="#004480" fill-opacity=".289" d="M13.335,1 L17.665,1 C17.8500154,1 18,1.14998461 18,1.335 L18,1.665 C18,1.85001539 17.8500154,2 17.665,2 L13.335,2 C13.1499846,2 13,1.85001539 13,1.665 L13,1.335 C13,1.14998461 13.1499846,1 13.335,1 Z"/>
    </g>
  </g>
</svg>
