<svg xmlns="http://www.w3.org/2000/svg" xmlns:xlink="http://www.w3.org/1999/xlink" width="32" height="32" viewBox="0 0 32 32">
  <defs>
    <filter id="evince-a" width="128.6%" height="133.3%" x="-14.3%" y="-16.7%" filterUnits="objectBoundingBox">
      <feOffset dy="1" in="SourceAlpha" result="shadowOffsetOuter1"/>
      <feGaussianBlur in="shadowOffsetOuter1" result="shadowBlurOuter1" stdDeviation=".5"/>
      <feColorMatrix in="shadowBlurOuter1" result="shadowMatrixOuter1" values="0 0 0 0 0   0 0 0 0 0   0 0 0 0 0  0 0 0 0.15 0"/>
      <feMerge>
        <feMergeNode in="shadowMatrixOuter1"/>
        <feMergeNode in="SourceGraphic"/>
      </feMerge>
    </filter>
    <linearGradient id="evince-b" x1="52.224%" x2="52.224%" y1="100%" y2="0%">
      <stop offset="0%" stop-color="#BF3632"/>
      <stop offset="100%" stop-color="#DF926E"/>
    </linearGradient>
    <path id="evince-c" d="M2.5,1 L25.5,1 C26.3284271,1 27,1.67157288 27,2.5 L27,21.5 C27,22.3284271 26.3284271,23 25.5,23 L2.5,23 C1.67157288,23 1,22.3284271 1,21.5 L1,2.5 C1,1.67157288 1.67157288,1 2.5,1 Z"/>
    <filter id="evince-d" width="103.8%" height="104.5%" x="-1.9%" y="-2.3%" filterUnits="objectBoundingBox">
      <feOffset dy="1" in="SourceAlpha" result="shadowOffsetInner1"/>
      <feComposite in="shadowOffsetInner1" in2="SourceAlpha" k2="-1" k3="1" operator="arithmetic" result="shadowInnerInner1"/>
      <feColorMatrix in="shadowInnerInner1" result="shadowMatrixInner1" values="0 0 0 0 1   0 0 0 0 1   0 0 0 0 1  0 0 0 0.5 0"/>
      <feOffset dy="-1" in="SourceAlpha" result="shadowOffsetInner2"/>
      <feComposite in="shadowOffsetInner2" in2="SourceAlpha" k2="-1" k3="1" operator="arithmetic" result="shadowInnerInner2"/>
      <feColorMatrix in="shadowInnerInner2" result="shadowMatrixInner2" values="0 0 0 0 0   0 0 0 0 0   0 0 0 0 0  0 0 0 0.14 0"/>
      <feMerge>
        <feMergeNode in="shadowMatrixInner1"/>
        <feMergeNode in="shadowMatrixInner2"/>
      </feMerge>
    </filter>
    <linearGradient id="evince-e" x1="50%" x2="50%" y1="0%" y2="97.702%">
      <stop offset="0%" stop-color="#D07C54"/>
      <stop offset="100%" stop-color="#902521"/>
    </linearGradient>
    <linearGradient id="evince-h" x1="50%" x2="50%" y1="0%" y2="100%">
      <stop offset="0%" stop-color="#FFF"/>
      <stop offset="100%" stop-color="#FFF" stop-opacity=".6"/>
    </linearGradient>
    <path id="evince-g" d="M7.84678375,17.4867893 L4.75,19.4166667 C5.52389357,18.6450172 6.25451092,17.9127111 6.94185207,17.2197482 L6.92840375,17.2152785 L7.02825295,17.1157188 C6.80312575,16.9868823 6.58830905,16.8488287 6.38380283,16.7015581 C1.48239437,13.1719169 12.1021127,3.66903697 17.0035211,6.6556564 C17.3665884,6.99813665 17.5481221,7.44088762 17.5481221,7.98390932 C17.5481221,8.52693105 17.5481221,8.7984419 17.0035211,9.37076495 C12.46518,13.7149387 10.1052426,15.9775291 9.92370892,16.1585364 C9.74217527,16.3395436 9.4698748,16.5205508 9.1068075,16.7015581 L8.80680185,16.8885179 L8.77301068,16.8211315 C9.9524799,18.3098928 12.2985837,18.4454838 15.811322,17.2279047 C17.3247258,16.7033314 20.0820629,15.3513355 24.0833333,13.1719169 L24.0833333,16.7015581 C16.6389791,18.7546639 11.1984933,19.0164077 7.76187607,17.4867893 L7.84678375,17.4867893 Z M8.13547505,16.0117074 C12.4825645,11.5937651 14.8032121,9.0181031 15.0974178,8.28472152 C15.6420188,6.92716725 6.65610327,8.28472152 8.01760562,15.0724929 C8.0770025,15.3686161 8.15544505,15.6426484 8.25293328,15.8945898 L8.13547505,16.0117074 Z"/>
    <filter id="evince-f" width="105.2%" height="115%" x="-2.6%" y="-3.7%" filterUnits="objectBoundingBox">
      <feOffset dy="1" in="SourceAlpha" result="shadowOffsetOuter1"/>
      <feColorMatrix in="shadowOffsetOuter1" values="0 0 0 0 0.298148777   0 0 0 0 0.034139173   0 0 0 0 0  0 0 0 0.409937719 0"/>
    </filter>
  </defs>
  <g fill="none" filter="url(#evince-a)" transform="translate(2 4)">
    <use fill="url(#evince-b)" xlink:href="#evince-c"/>
    <use fill="#000" filter="url(#evince-d)" xlink:href="#evince-c"/>
    <path fill="url(#evince-e)" d="M25.5,0 L2.5,0 C1.11928813,0 0,1.11928813 0,2.5 L0,21.5 C0,22.8807119 1.11928813,24 2.5,24 L25.5,24 C26.8807119,24 28,22.8807119 28,21.5 L28,2.5 C28,1.11928813 26.8807119,0 25.5,0 Z M25.5,1 C26.3284271,1 27,1.67157288 27,2.5 L27,21.5 C27,22.3284271 26.3284271,23 25.5,23 L2.5,23 C1.67157288,23 1,22.3284271 1,21.5 L1,2.5 C1,1.67157288 1.67157288,1 2.5,1 L25.5,1 Z"/>
    <use fill="#000" filter="url(#evince-f)" xlink:href="#evince-g"/>
    <use fill="url(#evince-h)" xlink:href="#evince-g"/>
  </g>
</svg>
