<svg xmlns="http://www.w3.org/2000/svg" width="32" height="32" viewBox="0 0 32 32">
  <defs>
    <filter id="安卓容器-a" width="126.7%" height="126.7%" x="-13.3%" y="-13.3%" filterUnits="objectBoundingBox">
      <feOffset dy="1" in="SourceAlpha" result="shadowOffsetOuter1"/>
      <feGaussianBlur in="shadowOffsetOuter1" result="shadowBlurOuter1" stdDeviation=".5"/>
      <feColorMatrix in="shadowBlurOuter1" result="shadowMatrixOuter1" values="0 0 0 0 0   0 0 0 0 0   0 0 0 0 0  0 0 0 0.15 0"/>
      <feMerge>
        <feMergeNode in="shadowMatrixOuter1"/>
        <feMergeNode in="SourceGraphic"/>
      </feMerge>
    </filter>
    <linearGradient id="安卓容器-b" x1="47.674%" x2="47.674%" y1="-11.89%" y2="207.666%">
      <stop offset="0%" stop-color="#767676"/>
      <stop offset="100%" stop-color="#A9A9A9"/>
    </linearGradient>
    <linearGradient id="安卓容器-c" x1="52.326%" x2="52.326%" y1="1.513%" y2="108.319%">
      <stop offset="0%" stop-opacity=".304"/>
      <stop offset="100%" stop-opacity=".399"/>
    </linearGradient>
    <radialGradient id="安卓容器-d" cx="50%" cy="20.15%" r="87.25%" fx="50%" fy="20.15%" gradientTransform="matrix(0 1 -.74012 0 .65 -.298)">
      <stop offset="0%" stop-color="#BDEB7F"/>
      <stop offset="81.729%" stop-color="#408712"/>
      <stop offset="100%" stop-color="#236300"/>
    </radialGradient>
    <linearGradient id="安卓容器-e" x1="50%" x2="50%" y1="0%" y2="98.61%">
      <stop offset="0%" stop-opacity=".163"/>
      <stop offset="100%" stop-opacity=".289"/>
    </linearGradient>
    <linearGradient id="安卓容器-f" x1="50%" x2="50%" y1="100%" y2="-31.377%">
      <stop offset="0%" stop-opacity="0"/>
      <stop offset="100%" stop-opacity=".301"/>
    </linearGradient>
    <filter id="安卓容器-g" width="100%" height="100%" x="0%" y="0%" filterUnits="objectBoundingBox">
      <feGaussianBlur in="SourceGraphic"/>
    </filter>
    <linearGradient id="安卓容器-h" x1="50%" x2="50%" y1="0%" y2="190.452%">
      <stop offset="0%" stop-color="#FFF"/>
      <stop offset="100%" stop-color="#FFF" stop-opacity=".255"/>
    </linearGradient>
    <linearGradient id="安卓容器-i" x1="12.793%" x2="12.793%" y1="-14.386%" y2="100%">
      <stop offset="0%" stop-color="#F8F8F8"/>
      <stop offset="100%" stop-color="#DCDCDC"/>
    </linearGradient>
    <linearGradient id="安卓容器-j" x1="59.071%" x2="59.071%" y1="100%" y2="0%">
      <stop offset="0%" stop-opacity=".3"/>
      <stop offset="100%" stop-opacity=".095"/>
    </linearGradient>
    <linearGradient id="安卓容器-k" x1="50%" x2="50%" y1="-11.919%" y2="100%">
      <stop offset="0%" stop-opacity=".678"/>
      <stop offset="100%" stop-opacity=".35"/>
    </linearGradient>
    <linearGradient id="安卓容器-l" x1="22.658%" x2="22.658%" y1="-36.328%" y2="100%">
      <stop offset="0%" stop-color="#F8F8F8"/>
      <stop offset="100%" stop-color="#DCDCDC"/>
    </linearGradient>
    <linearGradient id="安卓容器-m" x1="54.661%" x2="54.661%" y1="100%" y2="-9.128%">
      <stop offset="0%" stop-opacity=".403"/>
      <stop offset="100%" stop-opacity=".087"/>
    </linearGradient>
  </defs>
  <g fill="none" fill-rule="evenodd" filter="url(#安卓容器-a)" transform="translate(1 1.428)">
    <path fill="url(#安卓容器-b)" fill-rule="nonzero" d="M5.63019932,7.57215722 L24.3698007,7.57215722 C24.6147148,7.57215722 24.8511134,7.66203579 25.0341645,7.8247479 L27,9.57215722 L27,9.57215722 L25.0717773,9.57215722 L3,9.57215722 L4.96583548,7.8247479 C5.14888661,7.66203579 5.38528516,7.57215722 5.63019932,7.57215722 Z"/>
    <path fill="url(#安卓容器-c)" fill-rule="nonzero" d="M24.3698007,6.57215722 L5.63019932,6.57215722 C5.140371,6.57215722 4.6675739,6.75191436 4.30147164,7.07733858 L2.33563616,8.8247479 C1.64838051,9.43564181 2.0804829,10.5721572 3,10.5721572 L27,10.5721572 C27.9195171,10.5721572 28.3516195,9.43564181 27.6643638,8.8247479 L25.6985284,7.07733858 C25.3324261,6.75191436 24.859629,6.57215722 24.3698007,6.57215722 Z M24.3698007,7.57215722 C24.6147148,7.57215722 24.8511134,7.66203579 25.0341645,7.8247479 L27,9.57215722 L3,9.57215722 L4.96583548,7.8247479 C5.14888661,7.66203579 5.38528516,7.57215722 5.63019932,7.57215722 L24.3698007,7.57215722 Z"/>
    <g transform="translate(2.25)">
      <path fill="url(#安卓容器-d)" d="M19.284896,1.107718 C19.4281415,0.965995387 19.6581095,0.963850148 19.8039739,1.10287582 L19.8039739,1.10287582 L19.8113313,1.11009713 C19.9477977,1.24802997 19.9466089,1.47047453 19.8086761,1.60694096 L19.8086761,1.60694096 L17.7018397,3.69148093 C20.068208,5.20211174 21.6595586,7.81954754 21.7462695,10.8141661 L21.75,11.0721572 L21.75,14.3221572 L3.75,14.3221572 L3.75,11.0721572 C3.75,7.95334799 5.38171894,5.21564713 7.83803368,3.6661778 L5.75718791,1.60694096 C5.61925507,1.47047453 5.61806631,1.24802997 5.75453274,1.11009713 C5.75694973,1.10765417 5.75940242,1.10524681 5.76189005,1.10287582 C5.90775449,0.963850148 6.1377225,0.965995387 6.280968,1.107718 L8.4906216,3.29273681 C9.69174733,2.67244372 11.0549668,2.32215722 12.5,2.32215722 L13,2.32215722 C14.4626117,2.32215722 15.8414071,2.68101787 17.0531406,3.31549372 Z"/>
      <path fill="url(#安卓容器-e)" fill-rule="nonzero" d="M16.848,2.111 L16.5359118,1.98334454 C15.420581,1.54911067 14.2259667,1.32215722 13,1.32215722 L12.5,1.32215722 L12.137535,1.32878618 C11.0531656,1.3685034 9.99727306,1.58618469 9.0035382,1.96808837 L8.698,2.091 L6.98409998,0.396658631 C6.49172616,-0.0904806406 5.72087603,-0.129841201 5.18337636,0.283499593 L5.04365727,0.406779228 L4.94573621,0.517026791 C4.52170637,1.04992803 4.55870072,1.82791146 5.05387001,2.31781643 L6.297,3.548 L6.06727405,3.74441436 C3.99050181,5.56719969 2.75,8.21378503 2.75,11.0721572 L2.75,15.3221572 L22.75,15.3221572 L22.75,11.0721572 L22.746165,10.7997078 L22.731987,10.4839519 C22.5722169,7.86153229 21.3762433,5.46740579 19.4678544,3.77560061 L19.238,3.578 L20.5120114,2.3177992 L20.5887182,2.232668 L20.6394575,2.16941548 L20.7065078,2.07513403 C21.0379023,1.54691108 20.965883,0.855223075 20.5222067,0.406779228 L20.4082971,0.306136484 L20.3411326,0.255192524 L20.2470388,0.191893455 C19.7130568,-0.12489846 19.0278737,-0.0447083404 18.5815781,0.396842534 L16.848,2.111 Z M19.7368095,1.05193186 L19.8113313,1.11009713 C19.9283025,1.22832528 19.9441393,1.40864367 19.8594154,1.54368844 L19.8086761,1.60694096 L17.7018397,3.69148093 C20.068208,5.20211174 21.6595586,7.81954754 21.7462695,10.8141661 L21.75,11.0721572 L21.75,14.3221572 L3.75,14.3221572 L3.75,11.0721572 C3.75,7.95334799 5.38171894,5.21564713 7.83803368,3.6661778 L5.75718791,1.60694096 C5.63895976,1.48996974 5.62119665,1.30983091 5.70447234,1.17388834 L5.76189005,1.10287582 C5.90775449,0.963850148 6.1377225,0.965995387 6.280968,1.107718 L8.4906216,3.29273681 C9.69174733,2.67244372 11.0549668,2.32215722 12.5,2.32215722 L13,2.32215722 C14.4626117,2.32215722 15.8414071,2.68101787 17.0531406,3.31549372 L19.284896,1.107718 C19.4076778,0.986241474 19.5941742,0.967311592 19.7368095,1.05193186 Z"/>
      <polygon fill="url(#安卓容器-f)" points="0 9.825 25.5 9.825 24.402 10.822 1.099 10.822" filter="url(#安卓容器-g)" opacity=".388" transform="matrix(1 0 0 -1 0 20.647)"/>
      <circle cx="8.5" cy="6.822" r="1" fill="url(#安卓容器-h)"/>
      <circle cx="17" cy="6.822" r="1" fill="url(#安卓容器-h)"/>
    </g>
    <path fill="url(#安卓容器-i)" fill-rule="nonzero" d="M3,9.57215722 L27,9.57215722 L27,27.5721572 C27,28.124442 26.5522847,28.5721572 26,28.5721572 L4,28.5721572 C3.44771525,28.5721572 3,28.124442 3,27.5721572 L3,9.57215722 L3,9.57215722 Z"/>
    <path fill="url(#安卓容器-j)" fill-rule="nonzero" d="M27,8.57215722 L3,8.57215722 C2.44771525,8.57215722 2,9.01987247 2,9.57215722 L2,27.5721572 C2,28.6767267 2.8954305,29.5721572 4,29.5721572 L26,29.5721572 C27.1045695,29.5721572 28,28.6767267 28,27.5721572 L28,9.57215722 C28,9.01987247 27.5522847,8.57215722 27,8.57215722 Z M27,9.57215722 L27,27.5721572 C27,28.124442 26.5522847,28.5721572 26,28.5721572 L4,28.5721572 C3.44771525,28.5721572 3,28.124442 3,27.5721572 L3,9.57215722 L27,9.57215722 Z"/>
    <path fill="url(#安卓容器-k)" d="M19.0298601,19.8502465 L18.9202388,20.0901321 C19.0824084,19.5838219 18.9889892,19.0324289 19.0117606,18.5556712 L18.9666564,18.5431559 C18.9269536,17.3440237 17.9231379,16.0695031 17.0302566,15.638129 C16.260134,15.2709861 15.0750269,15.2078105 14.5276505,15.4846376 C14.6029693,15.4157322 14.903224,15.3867831 14.8127245,15.3337095 C13.9554595,15.4216127 14.147114,15.6425014 13.4898242,15.8157447 C13.3097006,15.995622 14.0158898,15.6716015 13.6359373,15.9045526 C13.2834267,16.0051211 13.1192132,15.8412259 12.5967972,16.3995546 C12.6433609,16.4770493 12.9284343,16.1697697 12.6906537,16.4782602 C12.1996207,16.415537 11.1398993,17.6384921 10.9148179,18.0437815 L11.0324674,18.0645896 C10.8393527,18.5647182 10.5850783,18.8836121 10.5507758,19.1830559 C10.5007093,19.9196033 10.2516892,21.2628787 10.5973392,21.6754056 L10.5637669,22.0199318 C10.6110603,22.1177864 10.6471142,22.2171486 10.7059391,22.3092736 L10.6291602,22.3156073 C10.9927643,23.5008684 11.0197685,22.3376211 11.5001463,23.5685672 C11.4303736,23.544292 11.3600176,23.5177552 11.2585707,23.3763258 C11.2463095,23.4842827 11.4064352,23.8083032 11.5963383,24.0611568 L11.5159107,24.1559957 C11.6217366,24.354871 11.7193888,24.3984455 11.79281,24.4675018 C11.3975314,24.244653 12.1594799,25.2019382 12.2282303,25.3239172 L12.2889528,25.2120402 C12.2800489,25.3729197 12.4004712,25.5805399 12.6261363,25.8679217 L12.8141422,25.8602312 C12.8915048,26.018698 13.1746807,26.3039678 13.3464846,26.3175388 L13.2321924,26.4714825 C13.6633789,26.6124592 13.4416549,26.6584464 13.9715155,26.8521952 L13.8645218,26.6569388 C14.1348528,26.8992377 14.2183459,27.1110801 14.599758,27.2968378 C15.128743,27.4872697 15.1988072,27.4117301 15.741513,27.5721572 C15.2814248,27.558889 14.7406162,27.5637138 14.3768663,27.4290696 C11.8951331,26.7348905 9.62476074,23.7276363 9.79057899,20.6300666 C9.75249475,20.0029837 9.85100955,19.2193935 9.75,19.0633391 C9.89173461,18.5859781 10.0562394,18.0042792 10.3868548,17.3119095 C10.3629164,17.26547 10.4413004,17.4474584 10.6093086,17.1514824 C10.7111937,16.9203407 10.7945411,16.6656777 10.9228461,16.4408688 L10.9889695,16.4250376 C11.0550926,16.0280411 11.8852073,15.4196545 12.1321841,15.1134256 L12.1491153,15.2304288 C12.6881716,14.7082868 13.6487813,14.3583328 14.1895893,14.1089469 C14.0475637,14.2714849 14.5077978,14.0929654 14.8392894,14.0721572 C14.7347767,14.1324683 14.6308482,14.1796614 14.5329045,14.2506777 C14.9308105,14.1525214 14.9118348,14.2909347 15.3184991,14.2354488 C15.1757434,14.2567084 15.0024788,14.3153603 15.0300683,14.3375252 C15.4844637,14.391805 15.5539445,14.1924772 15.9744754,14.3372234 L15.9479109,14.2087611 C16.5322167,14.4264837 16.6545374,14.3895431 17.2894944,14.7375374 C17.5120943,14.7488447 17.5345731,14.595656 17.8710275,14.7372359 C17.93029,14.8445892 17.8575982,14.8646426 18.2712695,15.1187024 C18.3171028,15.0997046 18.1887977,14.9790828 18.0873505,14.8830374 C18.9186338,15.3420039 19.8220242,16.3205488 20.0977562,17.3676976 C19.839394,16.8764648 20.0711899,17.6182894 19.9822957,17.5795397 C20.097464,17.8999416 20.191613,18.2311993 20.25,18.5730113 C20.1733671,18.2927165 20.0071106,17.615726 19.7154679,17.1792257 C19.6915292,17.4608779 19.3391647,16.9845722 19.5318411,17.6048702 C19.6783921,17.8247037 19.5614727,17.3820211 19.7424719,17.7725346 C19.7453914,17.9581414 19.8138499,18.1425423 19.8536988,18.3842383 C19.7918087,18.3738348 19.7154679,18.1169099 19.6703644,18.1885292 C19.7329838,18.4926472 19.8361827,18.6512658 19.8753021,18.6746354 C19.8553045,18.725598 19.803048,18.6271405 19.799399,18.8340069 C19.8236299,19.310162 19.92858,19.1093247 19.978501,19.131943 C19.9279962,19.3664018 19.7249561,19.642023 19.825381,20.0453523 C19.7966259,19.9230719 19.7401365,19.8001883 19.69766,19.6843913 C19.658249,20.0287666 19.7715198,20.0958625 19.6175242,20.5130637 C19.7284593,20.1370249 19.7164899,19.7974741 19.6118314,19.9609169 C19.658249,20.4955733 19.2021018,20.9059895 19.2517307,21.2443339 L19.1191921,21.055862 C18.7602589,21.5932326 19.1107265,21.3518381 18.8666691,21.7590878 C18.9562924,21.599113 18.8196675,21.6931978 18.9362954,21.5119634 C18.8587872,21.5164867 18.5907914,21.8522681 18.3452745,22.0497864 C17.3810161,22.8481525 16.2299193,22.952641 15.1153141,22.5227749 C15.0719617,22.5594137 15.3141213,22.7555751 15.4929308,22.850414 C15.9174037,23.0125003 16.397489,23.0189831 16.775544,23.0045086 C15.9585658,23.3574783 14.3991997,22.6462615 13.889044,21.7026971 C14.0042123,21.7286306 14.3996373,22.3661173 14.6958048,22.4693999 C14.5207903,22.3246534 14.3854786,22.1404037 14.2599466,21.9508765 C14.4964133,22.2314731 14.7836767,22.4606547 15.0975058,22.6123366 C15.0776545,22.5336307 15.1842105,22.5177992 15.0359078,22.414366 C14.0910628,21.6663595 13.5325926,21.0308332 13.7265825,19.5592461 C13.8705062,19.4467662 13.9090416,18.8329516 14.239511,18.6180938 C14.4409458,18.1580723 15.0448123,17.73454 15.6901324,17.7236826 C16.3485905,17.6865915 16.9045792,18.0872069 17.1836682,18.4650548 C16.6755564,17.9751794 15.8433978,17.8265128 15.13356,18.1892833 C14.4078116,18.5268735 13.9775004,19.3523797 14.0402661,20.174267 C14.0671237,20.1335569 14.0912074,20.1588875 14.1040538,20.0575652 C14.0818671,21.6552019 15.7709982,22.8262896 16.9869046,22.2352423 L17.0012088,22.2685642 C17.4944321,22.129397 17.4307902,22.0148062 17.7532316,21.7862275 C17.7281251,21.8397534 17.5360324,21.9767963 17.6506167,21.9793733 C17.8073853,21.9362512 18.296959,21.4655241 18.5380967,21.2443339 C18.6485938,20.9981142 18.4789802,21.1111974 18.6332676,20.8015007 L18.822003,20.7045509 C18.9269533,20.3915371 19.0429981,20.2145243 19.0298601,19.8502465 Z" opacity=".696"/>
    <path fill="url(#安卓容器-l)" fill-rule="nonzero" d="M3.19113617,9.57215722 L26.8088638,9.57215722 C27.0183308,9.57215722 27.2055946,9.70272373 27.2780228,9.8992703 L28.8760193,14.2357138 C28.9237607,14.3652684 28.8574379,14.5089953 28.7278832,14.5567367 C28.7002042,14.5669365 28.6709384,14.5721572 28.6414398,14.5721572 L1.35856021,14.5721572 C1.22048902,14.5721572 1.10856021,14.4602284 1.10856021,14.3221572 C1.10856021,14.2926586 1.1137809,14.2633928 1.12398074,14.2357138 L2.72197723,9.8992703 C2.79440541,9.70272373 2.98166923,9.57215722 3.19113617,9.57215722 Z"/>
    <path fill="url(#安卓容器-m)" fill-rule="nonzero" d="M26.8088638,8.57215722 L3.19113617,8.57215722 C2.56273536,8.57215722 2.0009439,8.96385675 1.78365934,9.55349647 L0.185662853,13.8899399 C0.134663645,14.0283352 0.108560211,14.1746643 0.108560211,14.3221572 C0.108560211,15.0125132 0.668204273,15.5721572 1.35856021,15.5721572 L28.6414398,15.5721572 C28.7889328,15.5721572 28.9352618,15.5460538 29.0736571,15.4950546 C29.7214304,15.2563476 30.0530442,14.5377132 29.8143371,13.8899399 L28.2163407,9.55349647 C27.9990561,8.96385675 27.4372646,8.57215722 26.8088638,8.57215722 Z M26.8088638,9.57215722 C27.0183308,9.57215722 27.2055946,9.70272373 27.2780228,9.8992703 L28.8760193,14.2357138 C28.9237607,14.3652684 28.8574379,14.5089953 28.7278832,14.5567367 C28.7002042,14.5669365 28.6709384,14.5721572 28.6414398,14.5721572 L1.35856021,14.5721572 C1.22048902,14.5721572 1.10856021,14.4602284 1.10856021,14.3221572 C1.10856021,14.2926586 1.1137809,14.2633928 1.12398074,14.2357138 L2.72197723,9.8992703 C2.79440541,9.70272373 2.98166923,9.57215722 3.19113617,9.57215722 L26.8088638,9.57215722 Z"/>
  </g>
</svg>
