<svg xmlns="http://www.w3.org/2000/svg" xmlns:xlink="http://www.w3.org/1999/xlink" width="32" height="32" viewBox="0 0 32 32">
  <defs>
    <filter id="快速激活ukey-a" width="126.7%" height="126.7%" x="-13.3%" y="-13.3%" filterUnits="objectBoundingBox">
      <feOffset dy="1" in="SourceAlpha" result="shadowOffsetOuter1"/>
      <feGaussianBlur in="shadowOffsetOuter1" result="shadowBlurOuter1" stdDeviation=".5"/>
      <feColorMatrix in="shadowBlurOuter1" result="shadowMatrixOuter1" values="0 0 0 0 0   0 0 0 0 0   0 0 0 0 0  0 0 0 0.15 0"/>
      <feMerge>
        <feMergeNode in="shadowMatrixOuter1"/>
        <feMergeNode in="SourceGraphic"/>
      </feMerge>
    </filter>
    <linearGradient id="快速激活ukey-b" x1="50%" x2="50%" y1="0%" y2="98.139%">
      <stop offset="0%" stop-color="#F4F4F4"/>
      <stop offset="97.899%" stop-color="#E3E3E3"/>
    </linearGradient>
    <linearGradient id="快速激活ukey-c" x1="50%" x2="50%" y1="0%" y2="98.88%">
      <stop offset="0%" stop-opacity=".103"/>
      <stop offset="100%" stop-opacity=".296"/>
    </linearGradient>
    <linearGradient id="快速激活ukey-d" x1="59.606%" x2="59.606%" y1="5.486%" y2="100%">
      <stop offset="0%" stop-opacity="0"/>
      <stop offset="100%" stop-opacity=".239"/>
    </linearGradient>
    <filter id="快速激活ukey-e" width="133.3%" height="125.8%" x="-16.7%" y="-12.9%" filterUnits="objectBoundingBox">
      <feOffset dy="1" in="SourceAlpha" result="shadowOffsetOuter1"/>
      <feGaussianBlur in="shadowOffsetOuter1" result="shadowBlurOuter1" stdDeviation=".5"/>
      <feColorMatrix in="shadowBlurOuter1" result="shadowMatrixOuter1" values="0 0 0 0 0   0 0 0 0 0   0 0 0 0 0  0 0 0 0.15 0"/>
      <feMerge>
        <feMergeNode in="shadowMatrixOuter1"/>
        <feMergeNode in="SourceGraphic"/>
      </feMerge>
    </filter>
    <linearGradient id="快速激活ukey-f" x1="100%" x2="0%" y1="64.916%" y2="64.916%">
      <stop offset="0%" stop-color="#EFEFF0"/>
      <stop offset="100%" stop-color="#CCCCCB"/>
    </linearGradient>
    <linearGradient id="快速激活ukey-g" x1="50%" x2="50%" y1="0%" y2="100%">
      <stop offset="0%" stop-opacity=".237"/>
      <stop offset="100%" stop-opacity=".584"/>
    </linearGradient>
    <linearGradient id="快速激活ukey-h" x1="132.739%" x2="0%" y1="50%" y2="50%">
      <stop offset="0%" stop-color="#EFF0F0"/>
      <stop offset="100%" stop-color="#CCC"/>
    </linearGradient>
    <linearGradient id="快速激活ukey-i" x1="50%" x2="50%" y1="0%" y2="98.003%">
      <stop offset="0%" stop-opacity=".203"/>
      <stop offset="100%" stop-opacity=".601"/>
    </linearGradient>
    <linearGradient id="快速激活ukey-j" x1="50%" x2="50%" y1="-30.059%" y2="100%">
      <stop offset="2.344%" stop-color="#707382"/>
      <stop offset="99.787%" stop-color="#4B4A55"/>
    </linearGradient>
    <path id="快速激活ukey-k" d="M18.2532483,6.93081094 L19.0657483,6.93081094 C19.2728551,6.93081094 19.4407483,7.09870415 19.4407483,7.30581094 L19.4407483,8.11831094 C19.4407483,8.32541772 19.2728551,8.49331094 19.0657483,8.49331094 L18.2532483,8.49331094 C18.0461416,8.49331094 17.8782483,8.32541772 17.8782483,8.11831094 L17.8782483,7.30581094 C17.8782483,7.09870415 18.0461416,6.93081094 18.2532483,6.93081094 Z"/>
    <filter id="快速激活ukey-l" width="484%" height="484%" x="-192%" y="-192%" filterUnits="objectBoundingBox">
      <feGaussianBlur in="SourceAlpha" result="shadowBlurInner1" stdDeviation="1.5"/>
      <feOffset dy="3" in="shadowBlurInner1" result="shadowOffsetInner1"/>
      <feComposite in="shadowOffsetInner1" in2="SourceAlpha" k2="-1" k3="1" operator="arithmetic" result="shadowInnerInner1"/>
      <feColorMatrix in="shadowInnerInner1" values="0 0 0 0 0   0 0 0 0 0   0 0 0 0 0  0 0 0 0.194110577 0"/>
    </filter>
    <path id="快速激活ukey-m" d="M13.5176886,4.39366304 L14.3301886,4.39366304 C14.5372954,4.39366304 14.7051886,4.56155626 14.7051886,4.76866304 L14.7051886,5.58116304 C14.7051886,5.78826982 14.5372954,5.95616304 14.3301886,5.95616304 L13.5176886,5.95616304 C13.3105818,5.95616304 13.1426886,5.78826982 13.1426886,5.58116304 L13.1426886,4.76866304 C13.1426886,4.56155626 13.3105818,4.39366304 13.5176886,4.39366304 Z"/>
    <filter id="快速激活ukey-n" width="484%" height="484%" x="-192%" y="-192%" filterUnits="objectBoundingBox">
      <feGaussianBlur in="SourceAlpha" result="shadowBlurInner1" stdDeviation="1.5"/>
      <feOffset dy="3" in="shadowBlurInner1" result="shadowOffsetInner1"/>
      <feComposite in="shadowOffsetInner1" in2="SourceAlpha" k2="-1" k3="1" operator="arithmetic" result="shadowInnerInner1"/>
      <feColorMatrix in="shadowInnerInner1" values="0 0 0 0 0   0 0 0 0 0   0 0 0 0 0  0 0 0 0.194110577 0"/>
    </filter>
    <linearGradient id="快速激活ukey-o" x1="43.066%" x2="43.066%" y1="4.482%" y2="97.913%">
      <stop offset="0%" stop-color="#595B6F"/>
      <stop offset="100%" stop-color="#9196A2"/>
    </linearGradient>
    <linearGradient id="快速激活ukey-p" x1="50%" x2="50%" y1="1.48%" y2="100%">
      <stop offset="0%" stop-color="#373848"/>
      <stop offset="100%" stop-color="#666874" stop-opacity=".978"/>
    </linearGradient>
    <linearGradient id="快速激活ukey-q" x1="50%" x2="50%" y1="0%" y2="88.619%">
      <stop offset="0%" stop-color="#92959F"/>
      <stop offset="100%" stop-color="#363848"/>
    </linearGradient>
    <linearGradient id="快速激活ukey-r" x1="50%" x2="50%" y1="3.499%" y2="100%">
      <stop offset="0%" stop-opacity=".196"/>
      <stop offset="100%" stop-opacity=".301"/>
    </linearGradient>
  </defs>
  <g fill="none" fill-rule="evenodd">
    <g filter="url(#快速激活ukey-a)" transform="translate(1 1)">
      <path fill="url(#快速激活ukey-b)" d="M15,1 C22.7319865,1 29,7.2680135 29,15 C29,22.7319865 22.7319865,29 15,29 C7.2680135,29 1,22.7319865 1,15 C1,7.2680135 7.2680135,1 15,1 Z"/>
      <path fill="url(#快速激活ukey-c)" fill-rule="nonzero" d="M15,0 C6.71572875,0 0,6.71572875 0,15 C0,23.2842712 6.71572875,30 15,30 C23.2842712,30 30,23.2842712 30,15 C30,6.71572875 23.2842712,0 15,0 Z M15,1 C22.7319865,1 29,7.2680135 29,15 C29,22.7319865 22.7319865,29 15,29 C7.2680135,29 1,22.7319865 1,15 C1,7.2680135 7.2680135,1 15,1 Z"/>
      <path fill="url(#快速激活ukey-d)" fill-rule="nonzero" d="M15,4 C8.92486775,4 4,8.92486775 4,15 C4,21.0751322 8.92486775,26 15,26 C21.0751322,26 26,21.0751322 26,15 C26,8.92486775 21.0751322,4 15,4 Z M15,5 C20.5228475,5 25,9.4771525 25,15 C25,20.5228475 20.5228475,25 15,25 C9.4771525,25 5,20.5228475 5,15 C5,9.4771525 9.4771525,5 15,5 Z"/>
    </g>
    <g filter="url(#快速激活ukey-e)" transform="translate(4.271 .825)">
      <path fill="url(#快速激活ukey-f)" fill-rule="nonzero" d="M12.5754813,3 L16.4504813,3 L16.4504813,10.6875 L10.8254813,10.6875 L10.8254813,4.75 C10.8254813,3.78350169 11.6089829,3 12.5754813,3 Z" transform="rotate(30 13.638 6.844)"/>
      <path fill="url(#快速激活ukey-g)" fill-rule="nonzero" d="M17.4504813,11.6875 L17.4504813,2 L12.5754813,2 C11.0566982,2 9.82548126,3.23121694 9.82548126,4.75 L9.82548126,11.6875 L17.4504813,11.6875 Z M16.4504813,3 L16.4504813,10.6875 L10.8254813,10.6875 L10.8254813,4.75 C10.8254813,3.78350169 11.6089829,3 12.5754813,3 L16.4504813,3 Z" transform="rotate(30 13.638 6.844)"/>
      <path fill="url(#快速激活ukey-h)" fill-rule="nonzero" d="M15.5036652,5.390625 L18.8724152,5.390625 C19.8389135,5.390625 20.6224152,6.17412669 20.6224152,7.140625 L20.6224152,13.078125 L15.5036652,13.078125 L15.5036652,10.4602424 C15.5036652,10.3221712 15.3917364,10.2102424 15.2536652,10.2102424 L15.1849152,10.2102424 C15.046844,10.2102424 14.9349152,10.0983135 14.9349152,9.96024236 L14.9349152,9.22783876 C14.9349152,9.08976757 15.046844,8.97783876 15.1849152,8.97783876 L15.2536652,8.97783876 C15.3917364,8.97783876 15.5036652,8.86590994 15.5036652,8.72783876 L15.5036652,7.91560071 C15.5036652,7.77752953 15.3917364,7.66560071 15.2536652,7.66560071 L15.1849152,7.66560071 C15.046844,7.66560071 14.9349152,7.5536719 14.9349152,7.41560071 L14.9349152,6.68141841 C14.9349152,6.54334723 15.046844,6.43141841 15.1849152,6.43141841 L15.2536652,6.43141841 C15.3917364,6.43141841 15.5036652,6.3194896 15.5036652,6.18141841 L15.5036652,5.390625 Z" transform="rotate(30 17.779 9.234)"/>
      <path fill="url(#快速激活ukey-i)" fill-rule="nonzero" d="M14.5036652,4.390625 L14.5028499,5.63391304 L14.4860283,5.64489878 C14.1535262,5.86953282 13.9349152,6.24994595 13.9349152,6.68141841 L13.9349152,7.41560071 L13.9413688,7.54340595 C13.9712413,7.83755533 14.1031019,8.10155437 14.3010317,8.29948419 L14.3248499,8.32191304 L14.3010317,8.34395528 C14.0748262,8.57016079 13.9349152,8.88266079 13.9349152,9.22783876 L13.9349152,9.96024236 L13.9413688,10.0880476 C13.9797763,10.4662397 14.1867764,10.7945914 14.4860283,10.996762 L14.5028499,11.005913 L14.5036652,14.078125 L21.6224152,14.078125 L21.6224152,7.140625 C21.6224152,5.62184194 20.3911983,4.390625 18.8724152,4.390625 L14.5036652,4.390625 Z M18.8724152,5.390625 C19.8389135,5.390625 20.6224152,6.17412669 20.6224152,7.140625 L20.6224152,13.078125 L15.5036652,13.078125 L15.5036652,10.4602424 C15.5036652,10.3221712 15.3917364,10.2102424 15.2536652,10.2102424 L15.1849152,10.2102424 C15.046844,10.2102424 14.9349152,10.0983135 14.9349152,9.96024236 L14.9349152,9.22783876 C14.9349152,9.08976757 15.046844,8.97783876 15.1849152,8.97783876 L15.2536652,8.97783876 C15.3917364,8.97783876 15.5036652,8.86590994 15.5036652,8.72783876 L15.5036652,7.91560071 C15.5036652,7.77752953 15.3917364,7.66560071 15.2536652,7.66560071 L15.1849152,7.66560071 C15.046844,7.66560071 14.9349152,7.5536719 14.9349152,7.41560071 L14.9349152,6.68141841 C14.9349152,6.54334723 15.046844,6.43141841 15.1849152,6.43141841 L15.2536652,6.43141841 C15.3917364,6.43141841 15.5036652,6.3194896 15.5036652,6.18141841 L15.5036652,5.390625 L18.8724152,5.390625 Z" transform="rotate(30 17.779 9.234)"/>
      <g fill-rule="nonzero" transform="rotate(30 18.66 7.712)">
        <use fill="url(#快速激活ukey-j)" xlink:href="#快速激活ukey-k"/>
        <use fill="#000" filter="url(#快速激活ukey-l)" xlink:href="#快速激活ukey-k"/>
      </g>
      <g fill-rule="nonzero" transform="rotate(30 13.924 5.175)">
        <use fill="url(#快速激活ukey-j)" xlink:href="#快速激活ukey-m"/>
        <use fill="#000" filter="url(#快速激活ukey-n)" xlink:href="#快速激活ukey-m"/>
      </g>
      <path fill="url(#快速激活ukey-o)" fill-rule="nonzero" d="M6,10.828526 L6,15.1797711 C6,15.374794 6.05069792,15.5664673 6.14711994,15.7359865 L7.32770312,17.811565 C7.5642726,18.2274768 7.51187746,18.7475202 7.1970972,19.1078828 L6.62432604,19.763595 C6.26928785,20.1700385 6.25289162,20.7713401 6.58524958,21.1965302 C7.34358702,22.1666818 7.72275575,22.8429555 7.72275575,23.2253514 C7.72275575,23.5702075 7.41437891,24.040599 6.79762523,24.636526 C6.36825941,25.0513542 6.33773115,25.7293323 6.72805584,26.181089 L8.4686644,28.1956466 C8.64920189,28.4045983 8.96494528,28.4276326 9.17389702,28.2470951 C9.17540094,28.2457957 9.1768971,28.2444873 9.17838542,28.2431701 L12.2917145,25.4876852 C12.3989415,25.3927828 12.4603341,25.2564621 12.4603341,25.1132696 L12.4603341,11.0398355 L12.4603341,11.0398355 L6,10.828526 Z" transform="rotate(30 9.23 19.704)"/>
      <path fill="url(#快速激活ukey-p)" fill-rule="nonzero" d="M12.4930253,10.04037 L6.03269128,9.82906051 C5.46789589,9.81058675 5,10.2634286 5,10.828526 L5,15.1797711 C5,15.5481478 5.09576274,15.9101973 5.27789323,16.2304002 L6.4584764,18.3059787 C6.4847619,18.3521911 6.47894022,18.4099737 6.44396464,18.450014 L5.87119348,19.1057262 C5.20057015,19.8734478 5.16959758,21.0092417 5.79738542,21.8123793 L5.91669217,21.9670123 L6.13059985,22.2554199 L6.31157393,22.5132152 L6.45962342,22.7370365 L6.57475733,22.9235224 L6.65698468,23.0693112 C6.66794753,23.0900311 6.67753964,23.1089153 6.68576121,23.1258937 L6.71864562,23.204334 C6.72138577,23.213409 6.72275575,23.2204382 6.72275575,23.2253514 L6.52063226,23.4753238 L6.38278429,23.6307501 L6.20615983,23.8154393 C6.17339477,23.8484147 6.13894181,23.882426 6.10276485,23.9173813 C5.29176923,24.700918 5.23409268,25.9815525 5.97137469,26.834873 L7.71198324,28.8494306 C8.21974493,29.4371074 9.08400657,29.5345721 9.7065686,29.0981847 L9.84114631,28.9920011 L12.9544754,26.2365163 C13.2761563,25.9518092 13.4603341,25.542847 13.4603341,25.1132696 L13.4603341,11.0398355 C13.4603341,10.500277 13.0322955,10.0580089 12.4930253,10.04037 Z M6,10.828526 L12.4603341,11.0398355 L12.4603341,25.1132696 C12.4603341,25.2278236 12.4210428,25.3379796 12.3504261,25.4260499 L12.2917145,25.4876852 L9.17389702,28.2470951 C8.98816214,28.4075729 8.71804867,28.4072038 8.53351923,28.2583871 L8.4686644,28.1956466 L6.72805584,26.181089 C6.33773115,25.7293323 6.36825941,25.0513542 6.79762523,24.636526 C7.41437891,24.040599 7.72275575,23.5702075 7.72275575,23.2253514 C7.72275575,22.8429555 7.34358702,22.1666818 6.58524958,21.1965302 C6.28058812,20.8067727 6.26897705,20.2690324 6.54262739,19.8690507 L6.62432604,19.763595 L7.1970972,19.1078828 C7.48039943,18.7835565 7.55116972,18.3298887 7.39003161,17.9391986 L7.32770312,17.811565 L6.14711994,15.7359865 C6.07480343,15.6088471 6.02820672,15.4692461 6.00942814,15.3251164 L6,15.1797711 L6,10.828526 Z" transform="rotate(30 9.23 19.599)"/>
      <path fill="#FFF" fill-opacity=".702" fill-rule="nonzero" d="M6,10.828526 L12.4603341,11.0398355 L12.4603341,25.1132696 C12.4603341,25.2278236 12.4210428,25.3379796 12.3504261,25.4260499 L12.2917145,25.4876852 L9.17389702,28.2470951 C8.98816214,28.4075729 8.71804867,28.4072038 8.53351923,28.2583871 L8.4686644,28.1956466 L6.72805584,26.181089 C6.33773115,25.7293323 6.36825941,25.0513542 6.79762523,24.636526 C7.41437891,24.040599 7.72275575,23.5702075 7.72275575,23.2253514 C7.72275575,22.8429555 7.34358702,22.1666818 6.58524958,21.1965302 C6.28058812,20.8067727 6.26897705,20.2690324 6.54262739,19.8690507 L6.62432604,19.763595 L7.1970972,19.1078828 C7.48039943,18.7835565 7.55116972,18.3298887 7.39003161,17.9391986 L7.32770312,17.811565 L6.14711994,15.7359865 C6.07480343,15.6088471 6.02820672,15.4692461 6.00942814,15.3251164 L6,15.1797711 L6,10.828526 Z M6.99948096,11.8610989 L7,15.1797711 L7.00415575,15.2117346 L7.01634666,15.2415728 L8.19692984,17.3171513 C8.61399307,18.0503884 8.55558464,18.9549671 8.06252365,19.6257407 L7.95022976,19.7657516 L7.37745332,20.4214698 C7.33800657,20.466628 7.33618471,20.5334374 7.37311374,20.5806812 C8.27266384,21.731488 8.72275575,22.5342581 8.72275575,23.2253514 C8.72275575,23.9260157 8.29186944,24.5832806 7.49245216,25.355703 C7.45668007,25.3902639 7.4458289,25.4412722 7.46093715,25.4857943 L7.484737,25.5273049 L8.89448096,27.1590989 L11.459481,24.8880989 L11.459481,12.0070989 L6.99948096,11.8610989 Z" transform="rotate(30 9.23 19.599)"/>
      <path fill="url(#快速激活ukey-q)" d="M8.30478997,9.59872519 L18.8729221,9.59872519 C19.559583,9.59872519 20.1162317,10.1024048 20.1162317,10.7237252 L20.1162317,13.0987252 C20.1162317,13.7200455 19.559583,14.2237252 18.8729221,14.2237252 L8.30478997,14.2237252 C7.618129,14.2237252 7.06148031,13.7200455 7.06148031,13.0987252 L7.06148031,10.7237252 C7.06148031,10.1024048 7.618129,9.59872519 8.30478997,9.59872519 Z" transform="rotate(30 13.589 11.911)"/>
      <path fill="url(#快速激活ukey-r)" fill-rule="nonzero" d="M18.8729221,8.59872519 L8.30478997,8.59872519 C7.08691106,8.59872519 6.06148031,9.52657899 6.06148031,10.7237252 L6.06148031,13.0987252 C6.06148031,14.2958714 7.08691106,15.2237252 8.30478997,15.2237252 L18.8729221,15.2237252 C20.090801,15.2237252 21.1162317,14.2958714 21.1162317,13.0987252 L21.1162317,10.7237252 C21.1162317,9.52657899 20.090801,8.59872519 18.8729221,8.59872519 Z M18.8729221,9.59872519 C19.559583,9.59872519 20.1162317,10.1024048 20.1162317,10.7237252 L20.1162317,13.0987252 C20.1162317,13.7200455 19.559583,14.2237252 18.8729221,14.2237252 L8.30478997,14.2237252 C7.618129,14.2237252 7.06148031,13.7200455 7.06148031,13.0987252 L7.06148031,10.7237252 C7.06148031,10.1024048 7.618129,9.59872519 8.30478997,9.59872519 L18.8729221,9.59872519 Z" transform="rotate(30 13.589 11.911)"/>
    </g>
  </g>
</svg>
