<?xml version="1.0" encoding="UTF-8"?>
<svg width="32px" height="32px" viewBox="0 0 32 32" version="1.1" xmlns="http://www.w3.org/2000/svg" xmlns:xlink="http://www.w3.org/1999/xlink">
    <title>UosAiAssistant</title>
    <defs>
        <filter x="-7.1%" y="-3.6%" width="114.3%" height="114.3%" filterUnits="objectBoundingBox" id="filter-1">
            <feOffset dx="0" dy="1" in="SourceAlpha" result="shadowOffsetOuter1"></feOffset>
            <feGaussianBlur stdDeviation="0.5" in="shadowOffsetOuter1" result="shadowBlurOuter1"></feGaussianBlur>
            <feColorMatrix values="0 0 0 0 0   0 0 0 0 0   0 0 0 0 0  0 0 0 0.15 0" type="matrix" in="shadowBlurOuter1" result="shadowMatrixOuter1"></feColorMatrix>
            <feMerge>
                <feMergeNode in="shadowMatrixOuter1"></feMergeNode>
                <feMergeNode in="SourceGraphic"></feMergeNode>
            </feMerge>
        </filter>
        <linearGradient x1="50%" y1="0%" x2="50%" y2="100%" id="linearGradient-2">
            <stop stop-color="#285788" offset="0%"></stop>
            <stop stop-color="#0F1E46" offset="100%"></stop>
        </linearGradient>
        <linearGradient x1="84.802583%" y1="28.2548315%" x2="26.4263906%" y2="88.4663437%" id="linearGradient-3">
            <stop stop-color="#4273A8" offset="0%"></stop>
            <stop stop-color="#4B95EA" stop-opacity="0" offset="100%"></stop>
        </linearGradient>
        <linearGradient x1="65.5749046%" y1="50%" x2="17.9284553%" y2="35.0958664%" id="linearGradient-4">
            <stop stop-color="#5ADB70" stop-opacity="0" offset="0%"></stop>
            <stop stop-color="#78C486" offset="100%"></stop>
        </linearGradient>
        <linearGradient x1="29.4916773%" y1="100%" x2="84.2445198%" y2="23.5866707%" id="linearGradient-5">
            <stop stop-color="#B8B86C" offset="0%"></stop>
            <stop stop-color="#8EFFC5" stop-opacity="0" offset="100%"></stop>
        </linearGradient>
        <linearGradient x1="84.3268951%" y1="73.9758333%" x2="50%" y2="54.99656%" id="linearGradient-6">
            <stop stop-color="#9E5D8C" offset="0%"></stop>
            <stop stop-color="#84D2A9" stop-opacity="0" offset="100%"></stop>
        </linearGradient>
        <path d="M13.9901583,2 C19.6696462,2 24.4187101,6.09558974 24.6910093,14.4612831 C24.7394633,15.3199712 24.7006954,16.250194 24.584189,17.2205815 C24.7147212,17.423791 24.8416244,17.6350839 24.9639225,17.8537226 C26.4308986,20.4763179 26.67978,23.1627156 25.5198134,23.8539607 C24.8954049,24.2260568 23.9900421,23.9441777 23.0583119,23.1954977 C22.3993942,24.9120908 21.5688342,26.5654329 20.6136769,28 L7.39348217,28 C6.47786819,26.5585948 5.68619624,24.882987 5.04487356,23.1105982 C4.07720279,23.922469 3.12765169,24.2397967 2.48018665,23.8539607 C1.32022004,23.1627156 1.5691014,20.4763179 3.0360775,17.8537226 C3.18681782,17.5842363 3.34455415,17.3259098 3.50751561,17.0800451 C3.37127186,16.1886201 3.27825547,15.3102873 3.23146499,14.4612831 C3.16661148,6.90670251 8.25095504,2 13.9901583,2 Z" id="path-7"></path>
        <filter x="-6.1%" y="-5.8%" width="112.2%" height="111.5%" filterUnits="objectBoundingBox" id="filter-8">
            <feGaussianBlur stdDeviation="1.5" in="SourceAlpha" result="shadowBlurInner1"></feGaussianBlur>
            <feOffset dx="0" dy="0" in="shadowBlurInner1" result="shadowOffsetInner1"></feOffset>
            <feComposite in="shadowOffsetInner1" in2="SourceAlpha" operator="arithmetic" k2="-1" k3="1" result="shadowInnerInner1"></feComposite>
            <feColorMatrix values="0 0 0 0 0.425990854   0 0 0 0 0.741752332   0 0 0 0 1  0 0 0 1 0" type="matrix" in="shadowInnerInner1"></feColorMatrix>
        </filter>
        <linearGradient x1="50%" y1="108.810073%" x2="50%" y2="-8.13439193%" id="linearGradient-9">
            <stop stop-color="#355883" offset="0%"></stop>
            <stop stop-color="#171D51" offset="100%"></stop>
        </linearGradient>
        <radialGradient cx="47.2409555%" cy="28.1029292%" fx="47.2409555%" fy="28.1029292%" r="85.8176038%" gradientTransform="translate(0.4724, 0.281), scale(1, 0.9771), rotate(90), scale(1, 1.233), translate(-0.4724, -0.281)" id="radialGradient-10">
            <stop stop-color="#EFF5FF" offset="0%"></stop>
            <stop stop-color="#E4EEFF" offset="40.9128%"></stop>
            <stop stop-color="#B6D1FF" offset="100%"></stop>
            <stop stop-color="#B6D1FF" offset="100%"></stop>
        </radialGradient>
    </defs>
    <g id="UosAiAssistant" stroke="none" stroke-width="1" fill="none" fill-rule="evenodd">
        <g id="编组-2" filter="url(#filter-1)" transform="translate(2, 2)">
            <path d="M3,0 L25,-4.4408921e-16 C26.6568542,7.23133791e-16 28,1.34314575 28,3 L28,25 C28,26.6568542 26.6568542,28 25,28 L3,28 C1.34314575,28 1.9661902e-15,26.6568542 -4.4408921e-16,25 L-4.4408921e-16,3 C-6.46995335e-16,1.34314575 1.34314575,-1.39730022e-16 3,-4.4408921e-16 Z" id="矩形" fill="url(#linearGradient-2)"></path>
            <g id="路径">
                <use fill="url(#linearGradient-3)" fill-rule="evenodd" xlink:href="#path-7"></use>
                <use fill="url(#linearGradient-4)" fill-rule="evenodd" xlink:href="#path-7"></use>
                <use fill="url(#linearGradient-5)" fill-rule="evenodd" xlink:href="#path-7"></use>
                <use fill="url(#linearGradient-6)" fill-rule="evenodd" xlink:href="#path-7"></use>
                <use fill="black" fill-opacity="1" filter="url(#filter-8)" xlink:href="#path-7"></use>
            </g>
            <path d="M18.96875,12.78125 C20.2286496,12.78125 21.25,11.7598996 21.25,10.5 C21.25,9.24010041 20.2286496,8.21875 18.96875,8.21875 C17.7088504,8.21875 16.6875,9.24010041 16.6875,10.5 C16.6875,11.7598996 17.7088504,12.78125 18.96875,12.78125 Z M9.03125,12.78125 C10.2911496,12.78125 11.3125,11.7598996 11.3125,10.5 C11.3125,9.24010041 10.2911496,8.21875 9.03125,8.21875 C7.77135041,8.21875 6.75,9.24010041 6.75,10.5 C6.75,11.7598996 7.77135041,12.78125 9.03125,12.78125 Z" id="形状" fill="#FFFFFF"></path>
            <path d="M18.9860197,8.75 C20.0138326,8.75 20.8470395,9.58320692 20.8470395,10.6110197 C20.8470395,11.6388326 20.0138326,12.4720395 18.9860197,12.4720395 C17.9582069,12.4720395 17.125,11.6388326 17.125,10.6110197 C17.125,9.58320692 17.9582069,8.75 18.9860197,8.75 Z M9.04851974,8.75 C10.0763326,8.75 10.9095395,9.58320692 10.9095395,10.6110197 C10.9095395,11.6388326 10.0763326,12.4720395 9.04851974,12.4720395 C8.02070692,12.4720395 7.1875,11.6388326 7.1875,10.6110197 C7.1875,9.58320692 8.02070692,8.75 9.04851974,8.75 Z M20.0065789,10.9111842 C19.7413369,10.9111842 19.5263158,11.1262054 19.5263158,11.3914474 C19.5263158,11.6566894 19.7413369,11.8717105 20.0065789,11.8717105 C20.271821,11.8717105 20.4868421,11.6566894 20.4868421,11.3914474 C20.4868421,11.1262054 20.271821,10.9111842 20.0065789,10.9111842 Z M10.0690789,10.9111842 C9.80383693,10.9111842 9.58881579,11.1262054 9.58881579,11.3914474 C9.58881579,11.6566894 9.80383693,11.8717105 10.0690789,11.8717105 C10.334321,11.8717105 10.5493421,11.6566894 10.5493421,11.3914474 C10.5493421,11.1262054 10.334321,10.9111842 10.0690789,10.9111842 Z" id="形状结合" fill="url(#linearGradient-9)"></path>
            <path d="M9.15625,6.16681451 C9.46821794,6.16681451 9.75639757,6.25275593 10.0079341,6.49580951 C10.1196364,6.60374477 10.1226903,6.78179624 10.014755,6.89349859 C9.90681974,7.00520094 9.72876828,7.00825477 9.61706593,6.90031951 C9.48673152,6.77438055 9.33561561,6.72931451 9.15625,6.72931451 C8.97320197,6.72931451 8.81092988,6.77681706 8.7058686,6.88968831 C8.6000377,7.0033864 8.42207429,7.00976402 8.3083762,6.90393312 C8.19467811,6.79810221 8.18830049,6.6201388 8.2941314,6.50644071 C8.52711512,6.25613761 8.83224919,6.16681451 9.15625,6.16681451 Z M18.84375,6.16681451 C19.1557179,6.16681451 19.4438976,6.25275593 19.6954341,6.49580951 C19.8071364,6.60374477 19.8101903,6.78179624 19.702255,6.89349859 C19.5943197,7.00520094 19.4162683,7.00825477 19.3045659,6.90031951 C19.1742315,6.77438055 19.0231156,6.72931451 18.84375,6.72931451 C18.660702,6.72931451 18.4984299,6.77681706 18.3933686,6.88968831 C18.2875377,7.0033864 18.1095743,7.00976402 17.9958762,6.90393312 C17.8821781,6.79810221 17.8758005,6.6201388 17.9816314,6.50644071 C18.2146151,6.25613761 18.5197492,6.16681451 18.84375,6.16681451 Z M14.15625,12.96875 C13.6660071,12.96875 13.3030505,12.5994103 13.1931447,12.0910123 C13.1639703,11.9560586 13.2497214,11.8230064 13.3846751,11.7938321 C13.5196288,11.7646577 13.652681,11.8504088 13.6818553,11.9853625 C13.7462106,12.2830544 13.9286969,12.46875 14.15625,12.46875 C14.4085435,12.46875 14.5865776,12.2978827 14.6272649,11.9976744 C14.6458082,11.8608541 14.7717553,11.7649716 14.9085756,11.7835149 C15.0453959,11.8020582 15.1412784,11.9280053 15.1227351,12.0648256 C15.049709,12.6036428 14.6692879,12.96875 14.15625,12.96875 Z" id="形状结合" fill="#283C50" fill-rule="nonzero"></path>
            <path d="M20.7360932,20.1076594 C20.8500784,22.9294408 19.7124547,25.9176419 18.1344838,27.999773 L9.90184776,28.0001191 C8.31659327,25.8983264 7.16827353,22.8847486 7.2613164,20.1076594 C7.42643763,15.1792171 10.2777479,14.1961207 13.9987048,14.1961207 C17.7196616,14.1961207 20.5326717,15.0718236 20.7360932,20.1076594 Z" id="形状结合" fill="url(#radialGradient-10)"></path>
        </g>
    </g>
</svg>