<svg xmlns="http://www.w3.org/2000/svg" xmlns:xlink="http://www.w3.org/1999/xlink" width="32" height="32" viewBox="0 0 32 32">
  <defs>
    <filter id="wps-office2019-kprometheus-a" width="138.4%" height="131.3%" x="-19.2%" y="-15.6%" filterUnits="objectBoundingBox">
      <feOffset dy="1" in="SourceAlpha" result="shadowOffsetOuter1"/>
      <feGaussianBlur in="shadowOffsetOuter1" result="shadowBlurOuter1" stdDeviation=".5"/>
      <feColorMatrix in="shadowBlurOuter1" result="shadowMatrixOuter1" values="0 0 0 0 0   0 0 0 0 0   0 0 0 0 0  0 0 0 0.15 0"/>
      <feMerge>
        <feMergeNode in="shadowMatrixOuter1"/>
        <feMergeNode in="SourceGraphic"/>
      </feMerge>
    </filter>
    <linearGradient id="wps-office2019-kprometheus-b" x1="50%" x2="50%" y1=".348%" y2="99.213%">
      <stop offset="0%" stop-color="#8DC2E1"/>
      <stop offset="100%" stop-color="#2D4FB5"/>
    </linearGradient>
    <linearGradient id="wps-office2019-kprometheus-e" x1="50%" x2="50%" y1="1.683%" y2="100%">
      <stop offset="0%" stop-color="#5F8BCC"/>
      <stop offset="100%" stop-color="#22336C"/>
    </linearGradient>
    <path id="wps-office2019-kprometheus-c" d="M14,0.577350269 L24.9903811,6.92264973 C25.6091832,7.27991532 25.9903811,7.94016936 25.9903811,8.65470054 L25.9903811,21.3452995 C25.9903811,22.0598306 25.6091832,22.7200847 24.9903811,23.0773503 L14,29.4226497 C13.3811978,29.7799153 12.6188022,29.7799153 12,29.4226497 L1.00961894,23.0773503 C0.39081679,22.7200847 0.00961894323,22.0598306 0.00961894323,21.3452995 L0.00961894323,8.65470054 C0.00961894323,7.94016936 0.39081679,7.27991532 1.00961894,6.92264973 L12,0.577350269 C12.6188022,0.220084679 13.3811978,0.220084679 14,0.577350269 Z"/>
    <filter id="wps-office2019-kprometheus-d" width="111.5%" height="110.2%" x="-5.8%" y="-5.1%" filterUnits="objectBoundingBox">
      <feOffset dy="1" in="SourceAlpha" result="shadowOffsetInner1"/>
      <feComposite in="shadowOffsetInner1" in2="SourceAlpha" k2="-1" k3="1" operator="arithmetic" result="shadowInnerInner1"/>
      <feColorMatrix in="shadowInnerInner1" values="0 0 0 0 1   0 0 0 0 1   0 0 0 0 1  0 0 0 0.5 0"/>
    </filter>
    <linearGradient id="wps-office2019-kprometheus-f" x1="50%" x2="50%" y1="0%" y2="100%">
      <stop offset="0%" stop-color="#FFF"/>
      <stop offset="100%" stop-color="#CDD6F0"/>
    </linearGradient>
  </defs>
  <g fill="none" fill-rule="evenodd" filter="url(#wps-office2019-kprometheus-a)" transform="translate(3 1)">
    <use fill="url(#wps-office2019-kprometheus-b)" xlink:href="#wps-office2019-kprometheus-c"/>
    <use fill="#000" filter="url(#wps-office2019-kprometheus-d)" xlink:href="#wps-office2019-kprometheus-c"/>
    <path stroke="url(#wps-office2019-kprometheus-e)" d="M13,-0.190598923 C13.4316243,-0.190598923 13.8632487,-0.0789534264 14.25,0.144337567 L14.25,0.144337567 L25.2403811,6.48963703 C25.6271324,6.71292802 25.9396324,7.03090291 26.1554446,7.40470054 C26.3712567,7.77849817 26.4903811,8.20811855 26.4903811,8.65470054 L26.4903811,8.65470054 L26.4903811,21.3452995 C26.4903811,22.2384634 26.0138837,23.063781 25.2403811,23.510363 L25.2403811,23.510363 L14.25,29.8556624 C13.8632487,30.0789534 13.4316243,30.1905989 13,30.1905989 C12.5683757,30.1905989 12.1367513,30.0789534 11.75,29.8556624 L11.75,29.8556624 L0.759618943,23.510363 C0.372867597,23.287072 0.0603675973,22.9690971 -0.155444566,22.5952995 C-0.37125673,22.2215018 -0.490381057,21.7918814 -0.490381057,21.3452995 L-0.490381057,21.3452995 L-0.490381057,8.65470054 C-0.490381057,7.76153656 -0.0138837487,6.93621902 0.759618943,6.48963703 L0.759618943,6.48963703 L11.75,0.144337567 C12.1367513,-0.0789534264 12.5683757,-0.190598923 13,-0.190598923 Z"/>
    <path fill="url(#wps-office2019-kprometheus-f)" fill-rule="nonzero" d="M15.9424309,22.9930838 C15.9005553,22.9930838 15.7955536,22.9811376 15.7311776,22.8717353 L13.849273,19.6714065 L15.3155461,17.1809344 L15.9418059,18.4893596 L19.4081105,13 L16.3355621,12.9987425 L10.2685916,22.8843103 C10.2042156,22.9937125 10.0992139,23 10.0573383,23 C10.0154626,23 9.91046094,22.98491 9.84608493,22.8755078 L3.17285483,11.5253434 C2.94597626,11.1392919 2.9422262,10.844409 3.16285467,10.454585 C3.38410816,10.0647611 3.78223943,10 4.22787145,10 L11.0911045,10 L12.1579963,11.7303153 L10.6529726,14.5137841 L9.41420312,13 L6.59228368,13 L10.0579633,18.4887309 L14.9086647,10 L21.7718977,10 C22.2175298,10 22.616286,10.0641323 22.8369145,10.4539563 C23.057543,10.8437802 23.0544179,11.2222867 22.8269144,11.6083382 L16.1918099,22.8491004 C16.1274339,22.9585026 15.9849316,22.9930838 15.9424309,22.9930838 Z"/>
  </g>
</svg>
