<svg xmlns="http://www.w3.org/2000/svg" xmlns:xlink="http://www.w3.org/1999/xlink" width="24" height="24" viewBox="0 0 24 24">
  <defs>
    <linearGradient id="x-dia-diagram-c" x1="50%" x2="50%" y1="0%" y2="100%">
      <stop offset="0%" stop-color="#287500"/>
      <stop offset="100%" stop-color="#1E5800"/>
    </linearGradient>
    <path id="x-dia-diagram-b" d="M16,17.75 C16,18.9926407 14.9926407,20 13.75,20 L2.25,20 C1.00735931,20 1.52179594e-16,18.9926407 0,17.75 L0,2.25 C-1.52179594e-16,1.00735931 1.00735931,2.28269391e-16 2.25,0 L10.5,0 L16,5.5 L16,17.75 Z"/>
    <filter id="x-dia-diagram-a" width="143.8%" height="135%" x="-21.9%" y="-12.5%" filterUnits="objectBoundingBox">
      <feOffset dy="1" in="SourceAlpha" result="shadowOffsetOuter1"/>
      <feGaussianBlur in="shadowOffsetOuter1" result="shadowBlurOuter1" stdDeviation="1"/>
      <feColorMatrix in="shadowBlurOuter1" values="0 0 0 0 0.286130341   0 0 0 0 0.419214221   0 0 0 0 0  0 0 0 0.2 0"/>
    </filter>
    <linearGradient id="x-dia-diagram-f" x1="50%" x2="14.088%" y1="50%" y2="88.513%">
      <stop offset="0%" stop-color="#FFF" stop-opacity=".1"/>
      <stop offset="100%" stop-color="#FFF" stop-opacity=".3"/>
    </linearGradient>
    <path id="x-dia-diagram-e" d="M10.5,0 L16,5.64102564 L12.75,5.64102564 C11.5073593,5.64102564 10.5,4.63366633 10.5,3.39102564 L10.5,0 L10.5,0 Z"/>
    <filter id="x-dia-diagram-d" width="227.3%" height="224.1%" x="-63.6%" y="-44.3%" filterUnits="objectBoundingBox">
      <feOffset dy="1" in="SourceAlpha" result="shadowOffsetOuter1"/>
      <feGaussianBlur in="shadowOffsetOuter1" result="shadowBlurOuter1" stdDeviation="1"/>
      <feComposite in="shadowBlurOuter1" in2="SourceAlpha" operator="out" result="shadowBlurOuter1"/>
      <feColorMatrix in="shadowBlurOuter1" values="0 0 0 0 0   0 0 0 0 0   0 0 0 0 0  0 0 0 0.05 0"/>
    </filter>
  </defs>
  <g fill="none" fill-rule="evenodd">
    <g transform="translate(4 2)">
      <use fill="#000" filter="url(#x-dia-diagram-a)" xlink:href="#x-dia-diagram-b"/>
      <use fill="url(#x-dia-diagram-c)" xlink:href="#x-dia-diagram-b"/>
      <use fill="#000" filter="url(#x-dia-diagram-d)" xlink:href="#x-dia-diagram-e"/>
      <use fill="url(#x-dia-diagram-f)" xlink:href="#x-dia-diagram-e"/>
    </g>
    <g transform="translate(5 6)">
      <rect width="3" height="3" x="5.5" y=".5" stroke="#FFF" stroke-opacity=".6"/>
      <polyline stroke="#FFF" stroke-opacity=".6" points="4.5 6.5 2.5 6.5 2.5 9.5"/>
      <path stroke="#B7D19A" d="M7,3.66666667 L7,4.5"/>
      <polyline stroke="#B7D19A" points="11.5 6.5 9 6.5 9 9" transform="matrix(-1 0 0 1 20.5 0)"/>
      <rect width="4" height="3" x="9.5" y="9.5" stroke="#FFF" stroke-opacity=".6"/>
      <rect width="4" height="3" x=".5" y="9.5" stroke="#B6D099"/>
      <polygon stroke="#B7D19A" points="7 4.5 9.5 6.5 7 8.5 4.5 6.5"/>
    </g>
  </g>
</svg>
