<svg xmlns="http://www.w3.org/2000/svg" xmlns:xlink="http://www.w3.org/1999/xlink" width="128" height="128" viewBox="0 0 128 128">
  <defs>
    <filter id="folder-documents-128px-a" width="128.8%" height="133.3%" x="-14.4%" y="-16.7%" filterUnits="objectBoundingBox">
      <feOffset dy="2" in="SourceAlpha" result="shadowOffsetOuter1"/>
      <feGaussianBlur in="shadowOffsetOuter1" result="shadowBlurOuter1" stdDeviation="3"/>
      <feComposite in="shadowBlurOuter1" in2="SourceAlpha" operator="out" result="shadowBlurOuter1"/>
      <feColorMatrix in="shadowBlurOuter1" result="shadowMatrixOuter1" values="0 0 0 0 0   0 0 0 0 0   0 0 0 0 0  0 0 0 0.2 0"/>
      <feMerge>
        <feMergeNode in="shadowMatrixOuter1"/>
        <feMergeNode in="SourceGraphic"/>
      </feMerge>
    </filter>
    <linearGradient id="folder-documents-128px-c" x1="50%" x2="50%" y1="0%" y2="37.968%">
      <stop offset="0%" stop-color="#00B8FF"/>
      <stop offset="100%" stop-color="#2E5DFF"/>
    </linearGradient>
    <path id="folder-documents-128px-b" d="M62,6 L62,6 C63.5138782,9.63330765 67.0639167,12 71,12 L97,12 C104.731986,12 111,18.2680135 111,26 L111,82 C111,89.7319865 104.731986,96 97,96 L14,96 C6.2680135,96 -5.58965236e-14,89.7319865 -5.68434189e-14,82 L-5.68434189e-14,14 C-5.77903141e-14,6.2680135 6.2680135,-2.70013666e-14 14,-2.84217094e-14 L53,-2.84217094e-14 C56.9360833,-2.91447562e-14 60.4861218,2.36669235 62,6 Z"/>
    <linearGradient id="folder-documents-128px-g" x1="50%" x2="50%" y1="0%" y2="11.796%">
      <stop offset="0%" stop-color="#FFF"/>
      <stop offset="100%" stop-color="#CEF5FF"/>
    </linearGradient>
    <rect id="folder-documents-128px-f" width="101" height="41.5" x="5" y="16" rx="9"/>
    <filter id="folder-documents-128px-e" width="108.9%" height="121.7%" x="-4.5%" y="-10.8%" filterUnits="objectBoundingBox">
      <feOffset in="SourceAlpha" result="shadowOffsetOuter1"/>
      <feGaussianBlur in="shadowOffsetOuter1" result="shadowBlurOuter1" stdDeviation="1.5"/>
      <feColorMatrix in="shadowBlurOuter1" values="0 0 0 0 0   0 0 0 0 0   0 0 0 0 0  0 0 0 0.2 0"/>
    </filter>
    <filter id="folder-documents-128px-h" width="106.9%" height="116.9%" x="-3.5%" y="-8.4%" filterUnits="objectBoundingBox">
      <feOffset dy="1" in="SourceAlpha" result="shadowOffsetInner1"/>
      <feComposite in="shadowOffsetInner1" in2="SourceAlpha" k2="-1" k3="1" operator="arithmetic" result="shadowInnerInner1"/>
      <feColorMatrix in="shadowInnerInner1" values="0 0 0 0 1   0 0 0 0 1   0 0 0 0 1  0 0 0 0.5 0"/>
    </filter>
    <radialGradient id="folder-documents-128px-i" cx="50%" cy="0%" r="117.589%" fx="50%" fy="0%" gradientTransform="scale(.65766 1) rotate(84.615 .63 .143)">
      <stop offset="0%" stop-color="#48D5FF"/>
      <stop offset="100%" stop-color="#0083F6"/>
    </radialGradient>
    <linearGradient id="folder-documents-128px-l" x1="50%" x2="50%" y1="0%" y2="100%">
      <stop offset="0%" stop-color="#FFF"/>
      <stop offset="100%" stop-color="#FFF" stop-opacity=".6"/>
    </linearGradient>
    <path id="folder-documents-128px-k" d="M4,0 L36.5,-1.15463195e-14 C38.709139,-1.19521317e-14 40.5,1.790861 40.5,4 L40.5,45.4336283 C40.5,47.6427673 38.709139,49.4336283 36.5,49.4336283 L4,49.4336283 C1.790861,49.4336283 -4.54476809e-13,47.6427673 -4.54747351e-13,45.4336283 L-4.54747351e-13,4 C-4.55017892e-13,1.790861 1.790861,4.05812251e-16 4,0 Z M24,6.55752212 L24,8.07079646 L37.5,8.07079646 L37.5,6.55752212 L24,6.55752212 Z M24,10.0884956 L24,11.6017699 L37.5,11.6017699 L37.5,10.0884956 L24,10.0884956 Z M24,13.619469 L24,15.1327434 L37.5,15.1327434 L37.5,13.619469 L24,13.619469 Z M24,17.1504425 L24,18.6637168 L37.5,18.6637168 L37.5,17.1504425 L24,17.1504425 Z M3.5,20.6814159 L3.5,22.1946903 L37.5,22.1946903 L37.5,20.6814159 L3.5,20.6814159 Z M3.5,24.2123894 L3.5,25.7256637 L37.5,25.7256637 L37.5,24.2123894 L3.5,24.2123894 Z M3.5,27.7433628 L3.5,29.2566372 L37.5,29.2566372 L37.5,27.7433628 L3.5,27.7433628 Z M3.5,31.2743363 L3.5,32.7876106 L37.5,32.7876106 L37.5,31.2743363 L3.5,31.2743363 Z M3.5,34.8053097 L3.5,36.3185841 L22,36.3185841 L22,34.8053097 L3.5,34.8053097 Z M3.5,42.3716814 L3.5,43.8849558 L37.5,43.8849558 L37.5,42.3716814 L3.5,42.3716814 Z"/>
    <filter id="folder-documents-128px-j" width="132.1%" height="126.3%" x="-16%" y="-11.1%" filterUnits="objectBoundingBox">
      <feOffset dy="1" in="SourceAlpha" result="shadowOffsetOuter1"/>
      <feGaussianBlur in="shadowOffsetOuter1" result="shadowBlurOuter1" stdDeviation="2"/>
      <feColorMatrix in="shadowBlurOuter1" values="0 0 0 0 0   0 0 0 0 0.42905776   0 0 0 0 0.968670281  0 0 0 0.5 0"/>
    </filter>
    <radialGradient id="folder-documents-128px-m" cx="79.957%" cy="71.832%" r="100%" fx="79.957%" fy="71.832%" gradientTransform="matrix(0 -1 .65439 0 .33 1.518)">
      <stop offset="0%" stop-color="#FA9361"/>
      <stop offset="100%" stop-color="#5F1CF7"/>
    </radialGradient>
    <linearGradient id="folder-documents-128px-n" x1="50%" x2="50%" y1="20.953%" y2="100%">
      <stop offset="0%" stop-color="#0E3BAC"/>
      <stop offset="100%" stop-color="#1A0570"/>
    </linearGradient>
    <filter id="folder-documents-128px-o" width="260%" height="110.7%" x="-80%" y="-5.3%" filterUnits="objectBoundingBox">
      <feGaussianBlur in="SourceGraphic" stdDeviation="1"/>
    </filter>
    <linearGradient id="folder-documents-128px-p" x1="50%" x2="50%" y1="0%" y2="100%">
      <stop offset="0%" stop-color="#242424"/>
      <stop offset="100%"/>
    </linearGradient>
    <linearGradient id="folder-documents-128px-q" x1="29.396%" x2="100%" y1="60.605%" y2="60.605%">
      <stop offset="0%" stop-color="#F6F6F6"/>
      <stop offset="100%" stop-color="#939393"/>
    </linearGradient>
    <linearGradient id="folder-documents-128px-r" x1="32.652%" x2="100%" y1="26.969%" y2="38.102%">
      <stop offset="0%" stop-color="#FCAFD2"/>
      <stop offset="100%" stop-color="#FF4B8D"/>
    </linearGradient>
    <path id="folder-documents-128px-s" d="M0,52.9646018 L3,52.9646018 L3,54.4867257 C3,55.0390104 2.55228475,55.4867257 2,55.4867257 L1,55.4867257 C0.44771525,55.4867257 6.76353751e-17,55.0390104 0,54.4867257 L0,52.9646018 Z"/>
    <filter id="folder-documents-128px-t" width="200%" height="218.9%" x="-50%" y="-59.5%" filterUnits="objectBoundingBox">
      <feGaussianBlur in="SourceAlpha" result="shadowBlurInner1" stdDeviation="1"/>
      <feOffset dx="-1" dy="-1" in="shadowBlurInner1" result="shadowOffsetInner1"/>
      <feComposite in="shadowOffsetInner1" in2="SourceAlpha" k2="-1" k3="1" operator="arithmetic" result="shadowInnerInner1"/>
      <feColorMatrix in="shadowInnerInner1" values="0 0 0 0 0.376992985   0 0 0 0 0   0 0 0 0 0  0 0 0 0.5 0"/>
    </filter>
    <linearGradient id="folder-documents-128px-u" x1="50.139%" x2="49.973%" y1="45.328%" y2="60.059%">
      <stop offset="0%" stop-color="#463417"/>
      <stop offset="100%" stop-color="#281212"/>
    </linearGradient>
    <linearGradient id="folder-documents-128px-v" x1="50%" x2="50%" y1="0%" y2="100%">
      <stop offset="0%" stop-color="#080808"/>
      <stop offset="100%" stop-color="#481D1D"/>
    </linearGradient>
    <linearGradient id="folder-documents-128px-w" x1="11.779%" x2="76.358%" y1="79.249%" y2="79.249%">
      <stop offset="0%" stop-color="#6A6A6A"/>
      <stop offset="100%" stop-color="#0A0A0A"/>
    </linearGradient>
  </defs>
  <g fill="none" fill-rule="evenodd">
    <g filter="url(#folder-documents-128px-a)" transform="translate(9 22)">
      <mask id="folder-documents-128px-d" fill="#fff">
        <use xlink:href="#folder-documents-128px-b"/>
      </mask>
      <use fill="url(#folder-documents-128px-c)" xlink:href="#folder-documents-128px-b"/>
      <g mask="url(#folder-documents-128px-d)">
        <use fill="#000" filter="url(#folder-documents-128px-e)" xlink:href="#folder-documents-128px-f"/>
        <use fill="url(#folder-documents-128px-g)" xlink:href="#folder-documents-128px-f"/>
        <use fill="#000" filter="url(#folder-documents-128px-h)" xlink:href="#folder-documents-128px-f"/>
      </g>
      <g fill="url(#folder-documents-128px-i)" mask="url(#folder-documents-128px-d)">
        <path d="M0,0 L111,0 L111,59 C111,66.7319865 104.731986,73 97,73 L14,73 C6.2680135,73 9.46895252e-16,66.7319865 0,59 L0,0 Z" transform="translate(0 23)"/>
      </g>
    </g>
    <g transform="translate(39 53)">
      <g transform="translate(0 4.035)">
        <use fill="#000" filter="url(#folder-documents-128px-j)" xlink:href="#folder-documents-128px-k"/>
        <use fill="url(#folder-documents-128px-l)" xlink:href="#folder-documents-128px-k"/>
        <polygon fill="url(#folder-documents-128px-m)" points="3.5 6.558 22 6.558 22 18.664 3.5 18.664"/>
        <path fill="#FF5151" d="M17.6370968,16.0325281 C18.3586301,16.0325281 18.9435484,15.4343608 18.9435484,14.6964841 C18.9435484,13.9586074 18.3586301,13.3604401 17.6370968,13.3604401 C16.9155635,13.3604401 16.3306452,13.9586074 16.3306452,14.6964841 C16.3306452,15.4343608 16.9155635,16.0325281 17.6370968,16.0325281 Z"/>
        <path fill="url(#folder-documents-128px-n)" d="M3.91935484,18.0365941 L15.0241935,18.0365941 L12.3643312,14.5178943 C12.1978121,14.2976082 11.8842444,14.2540214 11.6639583,14.4205405 C11.6563442,14.4262962 11.6488965,14.4322687 11.6416244,14.4384506 L10.1967226,15.6667431 C9.98632794,15.845597 9.67077968,15.820028 9.49192586,15.6096334 C9.46945675,15.5832018 9.44979947,15.5545036 9.43327165,15.5240025 L7.95380907,12.7937414 C7.82224785,12.5509529 7.51877744,12.4607854 7.27598894,12.5923466 C7.19748836,12.6348842 7.13181009,12.697666 7.08577759,12.7741696 L3.91935484,18.0365941 Z"/>
      </g>
      <g transform="translate(46)">
        <polygon fill="#00267B" fill-opacity=".3" points="1.25 7.371 3.125 .504 5 7.371 5 56.738 1.25 56.738" filter="url(#folder-documents-128px-o)"/>
        <polygon fill="url(#folder-documents-128px-p)" points="0 7.062 3 7.062 3 50.442 0 50.442"/>
        <rect width="3" height="2.522" y="50.442" fill="url(#folder-documents-128px-q)"/>
        <use fill="url(#folder-documents-128px-r)" xlink:href="#folder-documents-128px-s"/>
        <use fill="#000" filter="url(#folder-documents-128px-t)" xlink:href="#folder-documents-128px-s"/>
        <polygon fill="url(#folder-documents-128px-u)" points="0 7.062 1 7.062 1 50.442 0 50.442"/>
        <polygon fill="url(#folder-documents-128px-v)" points="2 7.062 3 7.062 3 50.442 2 50.442"/>
        <polygon fill="#FFDCAC" points="1.5 .404 3 7.062 0 7.062"/>
        <polygon fill="#D8915B" points="1.5 .404 2 7.062 1 7.062"/>
        <polygon fill="#965600" points="1.5 .404 3 7.062 1.969 7.062"/>
        <polygon fill="url(#folder-documents-128px-w)" points="1.8 1.735 1.2 1.735 1.5 .404"/>
      </g>
    </g>
  </g>
</svg>
