<?xml version="1.0" encoding="UTF-8"?>
<svg width="16px" height="16px" viewBox="0 0 16 16" version="1.1" xmlns="http://www.w3.org/2000/svg" xmlns:xlink="http://www.w3.org/1999/xlink">
    <!-- Generator: Sketch 41 (35326) - http://www.bohemiancoding.com/sketch -->
    <title>vcalendar</title>
    <desc>Created with Sketch.</desc>
    <defs></defs>
    <g id="Page-1" stroke="none" stroke-width="1" fill="none" fill-rule="evenodd">
        <g id="vcalendar">
            <polygon id="path14361" fill="#D0021B" points="2 15 2 1 14 1 14 15"></polygon>
            <rect id="Rectangle-9" fill="#FFFFFF" x="5" y="7" width="1" height="1"></rect>
            <polygon id="Rectangle-9" fill="#FFFFFF" points="7 7 9 7 9 8 7 8"></polygon>
            <polygon id="Rectangle-9" fill="#FFFFFF" points="5 3 6 3 6 4 5 4"></polygon>
            <polygon id="Rectangle-9" fill="#FFFFFF" points="10 3 11 3 11 4 10 4"></polygon>
            <rect id="Rectangle-9" fill="#FFFFFF" x="10" y="7" width="1" height="1"></rect>
            <polygon id="Rectangle-9" fill="#FFFFFF" points="7 9 9 9 9 10 7 10"></polygon>
            <rect id="Rectangle-9" fill="#FFFFFF" x="5" y="9" width="1" height="1"></rect>
            <polygon id="Rectangle-9" fill="#FFFFFF" points="10 9 11 9 11 10 10 10"></polygon>
            <path d="M13,4 L13,12 L3,12 L3,4 L13,4 Z M12,11 L4,11 L4,6 L12,6 L12,11 Z" id="Combined-Shape" fill="#FFFFFF"></path>
        </g>
    </g>
</svg>