<svg xmlns="http://www.w3.org/2000/svg" xmlns:xlink="http://www.w3.org/1999/xlink" width="128" height="128" viewBox="0 0 128 128">
  <defs>
    <filter id="user-home-a" width="128.8%" height="133.3%" x="-14.4%" y="-16.7%" filterUnits="objectBoundingBox">
      <feOffset dy="2" in="SourceAlpha" result="shadowOffsetOuter1"/>
      <feGaussianBlur in="shadowOffsetOuter1" result="shadowBlurOuter1" stdDeviation="3"/>
      <feComposite in="shadowBlurOuter1" in2="SourceAlpha" operator="out" result="shadowBlurOuter1"/>
      <feColorMatrix in="shadowBlurOuter1" result="shadowMatrixOuter1" values="0 0 0 0 0   0 0 0 0 0   0 0 0 0 0  0 0 0 0.2 0"/>
      <feMerge>
        <feMergeNode in="shadowMatrixOuter1"/>
        <feMergeNode in="SourceGraphic"/>
      </feMerge>
    </filter>
    <linearGradient id="user-home-c" x1="50%" x2="50%" y1="0%" y2="37.968%">
      <stop offset="0%" stop-color="#147ADD"/>
      <stop offset="100%" stop-color="#0D00E9"/>
    </linearGradient>
    <path id="user-home-b" d="M62,6 C63.5138782,9.63330765 67.0639167,12 71,12 L97,12 C104.731986,12 111,18.2680135 111,26 L111,82 C111,89.7319865 104.731986,96 97,96 L14,96 C6.2680135,96 -5.58965236e-14,89.7319865 -5.68434189e-14,82 L-5.68434189e-14,14 C-5.77903141e-14,6.2680135 6.2680135,-2.70013666e-14 14,-2.84217094e-14 L53,-2.84217094e-14 C56.9360833,-2.91447562e-14 60.4861218,2.36669235 62,6 Z"/>
    <linearGradient id="user-home-g" x1="50%" x2="50%" y1="0%" y2="77.929%">
      <stop offset="0%" stop-color="#B5B7B8"/>
      <stop offset="100%" stop-color="#80B0BD"/>
    </linearGradient>
    <rect id="user-home-f" width="101" height="41.5" x="5" y="16" rx="9"/>
    <filter id="user-home-e" width="117.8%" height="143.4%" x="-8.9%" y="-21.7%" filterUnits="objectBoundingBox">
      <feOffset in="SourceAlpha" result="shadowOffsetOuter1"/>
      <feGaussianBlur in="shadowOffsetOuter1" result="shadowBlurOuter1" stdDeviation="3"/>
      <feColorMatrix in="shadowBlurOuter1" values="0 0 0 0 0   0 0 0 0 0   0 0 0 0 0  0 0 0 0.2 0"/>
    </filter>
    <filter id="user-home-h" width="113.9%" height="133.7%" x="-6.9%" y="-16.9%" filterUnits="objectBoundingBox">
      <feOffset dy="2" in="SourceAlpha" result="shadowOffsetInner1"/>
      <feComposite in="shadowOffsetInner1" in2="SourceAlpha" k2="-1" k3="1" operator="arithmetic" result="shadowInnerInner1"/>
      <feColorMatrix in="shadowInnerInner1" values="0 0 0 0 0.82745098   0 0 0 0 0.82745098   0 0 0 0 0.82745098  0 0 0 0.5 0"/>
    </filter>
    <radialGradient id="user-home-i" cx="50%" cy="0%" r="117.589%" fx="50%" fy="0%" gradientTransform="scale(.65766 1) rotate(84.615 .63 .143)">
      <stop offset="0%" stop-color="#1D95E9"/>
      <stop offset="100%" stop-color="#0B43D8"/>
    </radialGradient>
    <linearGradient id="user-home-l" x1="50%" x2="50%" y1="0%" y2="100%">
      <stop offset="0%" stop-color="#FFF"/>
      <stop offset="100%" stop-color="#FFF" stop-opacity=".6"/>
    </linearGradient>
    <path id="user-home-k" d="M6,27.656 L6,46 L42,46 L42,27.656 L24,10.906 L6,27.656 Z M28,42 L20,42 L20,30 L28,30 L28,42 Z M48,22.296 L45.278,25.226 L24,5.46 L2.722,25.196 L6.66133815e-16,22.266 L24,1.77635684e-15 L48,22.296 Z"/>
    <filter id="user-home-j" width="127.1%" height="128.3%" x="-13.5%" y="-12%" filterUnits="objectBoundingBox">
      <feOffset dy="1" in="SourceAlpha" result="shadowOffsetOuter1"/>
      <feGaussianBlur in="shadowOffsetOuter1" result="shadowBlurOuter1" stdDeviation="2"/>
      <feColorMatrix in="shadowBlurOuter1" values="0 0 0 0 0   0 0 0 0 0.42905776   0 0 0 0 0.968670281  0 0 0 0.5 0"/>
    </filter>
  </defs>
  <g fill="none" fill-rule="evenodd">
    <g filter="url(#user-home-a)" transform="translate(9 22)">
      <mask id="user-home-d" fill="#fff">
        <use xlink:href="#user-home-b"/>
      </mask>
      <use fill="url(#user-home-c)" xlink:href="#user-home-b"/>
      <g mask="url(#user-home-d)">
        <use fill="#000" filter="url(#user-home-e)" xlink:href="#user-home-f"/>
        <use fill="url(#user-home-g)" xlink:href="#user-home-f"/>
        <use fill="#000" filter="url(#user-home-h)" xlink:href="#user-home-f"/>
      </g>
      <g fill="url(#user-home-i)" mask="url(#user-home-d)">
        <path d="M0,0 L111,0 L111,59 C111,66.7319865 104.731986,73 97,73 L14,73 C6.2680135,73 9.46895252e-16,66.7319865 0,59 L0,0 L0,0 Z" transform="translate(0 23)"/>
      </g>
    </g>
    <g opacity=".6" transform="translate(40 54)">
      <use fill="#000" filter="url(#user-home-j)" xlink:href="#user-home-k"/>
      <use fill="url(#user-home-l)" xlink:href="#user-home-k"/>
    </g>
  </g>
</svg>
