<svg xmlns="http://www.w3.org/2000/svg" xmlns:xlink="http://www.w3.org/1999/xlink" width="64" height="64" viewBox="0 0 64 64">
  <defs>
    <linearGradient id="package-x-generic-c" x1="50%" x2="50%" y1="0%" y2="100%">
      <stop offset="0%" stop-color="#5D89CD"/>
      <stop offset="100%" stop-color="#156EA0"/>
    </linearGradient>
    <path id="package-x-generic-b" d="M42,47.5 C42,49.9852814 39.9852814,52 37.5,52 L4.5,52 C2.01471863,52 3.04359188e-16,49.9852814 0,47.5 L0,4.5 C-3.04359188e-16,2.01471863 2.01471863,4.56538782e-16 4.5,0 L29,0 L42,13 L42,47.5 Z"/>
    <filter id="package-x-generic-a" width="131%" height="125%" x="-15.5%" y="-10.6%" filterUnits="objectBoundingBox">
      <feOffset dy="1" in="SourceAlpha" result="shadowOffsetOuter1"/>
      <feGaussianBlur in="shadowOffsetOuter1" result="shadowBlurOuter1" stdDeviation="2"/>
      <feColorMatrix in="shadowBlurOuter1" values="0 0 0 0 0.474509804   0 0 0 0 0.619607843   0 0 0 0 0.701960784  0 0 0 0.2 0"/>
    </filter>
    <linearGradient id="package-x-generic-f" x1="50%" x2="10.489%" y1="50%" y2="91.194%">
      <stop offset="0%" stop-color="#FFF" stop-opacity=".1"/>
      <stop offset="100%" stop-color="#FFF" stop-opacity=".3"/>
    </linearGradient>
    <path id="package-x-generic-e" d="M29,0 L42,13 L33.5,13 C31.0147186,13 29,10.9852814 29,8.5 L29,0 L29,0 Z"/>
    <filter id="package-x-generic-d" width="200%" height="200%" x="-50%" y="-42.3%" filterUnits="objectBoundingBox">
      <feOffset dy="1" in="SourceAlpha" result="shadowOffsetOuter1"/>
      <feGaussianBlur in="shadowOffsetOuter1" result="shadowBlurOuter1" stdDeviation="2"/>
      <feComposite in="shadowBlurOuter1" in2="SourceAlpha" operator="out" result="shadowBlurOuter1"/>
      <feColorMatrix in="shadowBlurOuter1" values="0 0 0 0 0   0 0 0 0 0   0 0 0 0 0  0 0 0 0.05 0"/>
    </filter>
  </defs>
  <g fill="none" fill-rule="evenodd">
    <g transform="translate(11 7)">
      <use fill="#000" filter="url(#package-x-generic-a)" xlink:href="#package-x-generic-b"/>
      <use fill="url(#package-x-generic-c)" xlink:href="#package-x-generic-b"/>
      <use fill="#000" filter="url(#package-x-generic-d)" xlink:href="#package-x-generic-e"/>
      <use fill="url(#package-x-generic-f)" xlink:href="#package-x-generic-e"/>
    </g>
    <path fill="#FFF" fill-opacity=".6" d="M23,32 L23,44 L41,44 L41,32 L23,32 Z M38,35 L38,38 L40,38 L36.5,42 L33,38 L35,38 L35,35 L38,35 Z M22.7566013,26.0164858 L19.4270866,31.0107579 L44.5,31 L41.2583852,26.0389656 L22.7566013,26.0164858 Z M42,44.506259 C42,44.7743607 41.7786564,45 41.5056152,45 L41.5056152,45 L22.4943848,45 C22.2246094,45 22,44.7789446 22,44.506259 L22,44.506259 L22,32 L18.5,32 C18.1291771,32 17.8973068,31.6162383 18.0434343,31.2953753 L18.0839749,31.2226499 L22.0839749,25.2226499 C22.1581612,25.1113704 22.2729125,25.0356422 22.4014399,25.0098021 L22.5,25 L41.5,25 C41.6337413,25 41.7604036,25.0534724 41.8531981,25.1460802 L41.9160251,25.2226499 L45.9160251,31.2226499 C46.1217207,31.5311932 45.9310302,31.9369937 45.5829991,31.993391 L45.5,32 L42,32 Z"/>
  </g>
</svg>
