<svg xmlns="http://www.w3.org/2000/svg" xmlns:xlink="http://www.w3.org/1999/xlink" width="64" height="64" viewBox="0 0 64 64">
  <defs>
    <linearGradient id="text-html-c" x1="50%" x2="50%" y1="0%" y2="100%">
      <stop offset="0%" stop-color="#5D89CD"/>
      <stop offset="100%" stop-color="#156EA0"/>
    </linearGradient>
    <path id="text-html-b" d="M42,47.5 C42,49.9852814 39.9852814,52 37.5,52 L4.5,52 C2.01471863,52 3.04359188e-16,49.9852814 0,47.5 L0,4.5 C-3.04359188e-16,2.01471863 2.01471863,4.56538782e-16 4.5,0 L29,0 L42,13 L42,47.5 Z"/>
    <filter id="text-html-a" width="131%" height="125%" x="-15.5%" y="-10.6%" filterUnits="objectBoundingBox">
      <feOffset dy="1" in="SourceAlpha" result="shadowOffsetOuter1"/>
      <feGaussianBlur in="shadowOffsetOuter1" result="shadowBlurOuter1" stdDeviation="2"/>
      <feColorMatrix in="shadowBlurOuter1" values="0 0 0 0 0.474509804   0 0 0 0 0.619607843   0 0 0 0 0.701960784  0 0 0 0.2 0"/>
    </filter>
    <linearGradient id="text-html-f" x1="50%" x2="10.489%" y1="50%" y2="91.194%">
      <stop offset="0%" stop-color="#FFF" stop-opacity=".1"/>
      <stop offset="100%" stop-color="#FFF" stop-opacity=".3"/>
    </linearGradient>
    <path id="text-html-e" d="M29,0 L42,13 L33.5,13 C31.0147186,13 29,10.9852814 29,8.5 L29,0 L29,0 Z"/>
    <filter id="text-html-d" width="200%" height="200%" x="-50%" y="-42.3%" filterUnits="objectBoundingBox">
      <feOffset dy="1" in="SourceAlpha" result="shadowOffsetOuter1"/>
      <feGaussianBlur in="shadowOffsetOuter1" result="shadowBlurOuter1" stdDeviation="2"/>
      <feComposite in="shadowBlurOuter1" in2="SourceAlpha" operator="out" result="shadowBlurOuter1"/>
      <feColorMatrix in="shadowBlurOuter1" values="0 0 0 0 0   0 0 0 0 0   0 0 0 0 0  0 0 0 0.05 0"/>
    </filter>
  </defs>
  <g fill="none" fill-rule="evenodd">
    <g transform="translate(11 7)">
      <use fill="#000" filter="url(#text-html-a)" xlink:href="#text-html-b"/>
      <use fill="url(#text-html-c)" xlink:href="#text-html-b"/>
      <use fill="#000" filter="url(#text-html-d)" xlink:href="#text-html-e"/>
      <use fill="url(#text-html-f)" xlink:href="#text-html-e"/>
    </g>
    <path fill="#FFF" fill-opacity=".6" d="M31.9545455,22.9833324 C38.5899957,22.9833324 43.9690909,28.3624276 43.9690909,34.9978779 C43.9690909,41.6333281 38.5899957,47.0124233 31.9545455,47.0124233 C25.3190952,47.0124233 19.94,41.6333281 19.94,34.9978779 C19.94,28.3624276 25.3190952,22.9833324 31.9545455,22.9833324 Z M32.5161103,42.630057 C31.3494754,43.5990786 30.327794,44.5964664 29.4888782,45.611891 C30.2822069,45.7956591 31.1070759,45.8924233 31.9545455,45.8924233 C34.0404179,45.8924233 35.9893772,45.3062282 37.6456709,44.2895904 L37.6229244,44.6179946 C37.7279532,43.3232503 37.7350175,42.0827168 37.6499613,40.8949723 C37.0535997,40.8005825 36.5475092,40.4374244 36.2586239,39.933769 L36.375,39.8583324 L35.8194473,40.2121021 C34.6898788,40.9445395 33.5698337,41.7548212 32.5161103,42.630057 Z M26.8968881,35.3506065 C26.561561,35.6245321 26.1325371,35.788 25.6653333,35.788 C25.4318939,35.788 25.2079862,35.7471899 25.0003556,35.6723149 C24.007266,37.4365237 23.3692767,39.2150294 23.0118543,40.871569 L22.9562805,41.1415811 C24.2505359,43.0335394 26.1259448,44.4965065 28.3253463,45.2733212 L28.0926932,45.576778 C29.0704393,44.2639616 30.3283836,42.991246 31.8004881,41.7684974 C33.072002,40.712362 34.4318771,39.751208 35.7916749,38.9023524 L35.8919472,38.8399655 L35.8919472,38.8399655 L35.9911905,38.7786307 C32.9135717,38.4455802 30.1808493,37.4649821 27.7794641,35.9437987 C27.4760545,35.7516006 27.1819019,35.5536476 26.8968881,35.3506065 Z M42.2359964,38.6100224 L41.8700396,38.6638916 C41.2058237,38.7544734 40.5542912,38.8193442 39.915361,38.8592341 L39.92,38.96 C39.92,39.7572513 39.4439965,40.443326 38.7606866,40.749527 C38.8273111,41.6267146 38.844873,42.5315619 38.811999,43.463521 C40.3620284,42.2072393 41.5608212,40.5318809 42.2359964,38.6100224 Z M22.0867716,30.3754459 C21.4267123,31.7839426 21.06,33.3480851 21.06,34.9978779 C21.06,36.692249 21.4467976,38.2962787 22.13691,39.7264842 C22.5483833,38.1934966 23.1840253,36.5892583 24.0930129,34.9985503 C23.8496036,34.6721301 23.7053333,34.2669131 23.7053333,33.828 C23.7053333,33.4527187 23.8108045,33.1020715 23.9937216,32.8040835 C23.2593492,32.0155604 22.6252528,31.1969828 22.0867716,30.3754459 Z M36.0094218,38.7665933 L35.9911905,38.7786307 L36.0081005,38.7805986 C36.0085245,38.7759254 36.008965,38.7712569 36.0094218,38.7665933 Z M38.1402583,26.0284951 L38.4285132,25.9549162 C36.7580965,26.3629249 35.2290113,26.8976373 33.8341192,27.5475873 C33.9203432,27.768069 33.9666667,28.0059581 33.9666667,28.2546667 C33.9666667,28.4626635 33.9342676,28.6630931 33.8742407,28.8511841 C34.1510806,29.1692004 34.4221964,29.5018876 34.6864109,29.8474516 C36.2934706,31.9493119 37.4778321,34.3330451 38.1591818,37.0098412 C38.7060657,37.0647897 39.1877636,37.3457048 39.5083407,37.7580859 C40.475363,37.7135529 41.4764625,37.6058926 42.5105479,37.4344997 L42.5781599,37.4231522 C42.7554667,36.6432222 42.8490909,35.8314836 42.8490909,34.9978779 C42.8490909,31.2783371 40.9850935,27.9941564 38.1402583,26.0284951 Z M30.4927093,29.4995572 C29.2381049,30.4039588 28.1312524,31.4309879 27.1635241,32.5656839 C27.4520693,32.9064696 27.6253333,33.3470008 27.6253333,33.828 C27.6253333,34.0370226 27.5926139,34.2384032 27.5320173,34.4272993 C27.8046351,34.6225072 28.0871994,34.8129328 28.3788086,34.9976559 C30.7255052,36.4841963 33.4103588,37.4236846 36.4587166,37.7013595 C36.6240898,37.5031879 36.8268022,37.3398086 37.0560796,37.2204276 C36.4106981,34.718065 35.2993006,32.4929954 33.79668,30.5277302 C33.6053212,30.2774536 33.4100763,30.0342718 33.2114238,29.7981026 C32.8785634,30.0603266 32.460639,30.2146667 32.0066667,30.2146667 C31.3969105,30.2146667 30.8521876,29.9362264 30.4927093,29.4995572 Z M27.4148245,25.0913313 C25.4655714,25.9860498 23.8258589,27.4391559 22.7004988,29.2458375 L22.5696877,29.0279134 C23.1620128,30.0445974 23.9115398,31.0736214 24.8268913,32.0559334 C25.0810345,31.9354101 25.3653117,31.868 25.6653333,31.868 C25.8585296,31.868 26.0451973,31.8959523 26.2215128,31.9480332 C27.3224475,30.6355707 28.5976204,29.4584717 30.055409,28.4353076 C30.0495075,28.3771841 30.0466667,28.3162571 30.0466667,28.2546667 C30.0466667,27.816189 30.1906508,27.4113406 30.4339178,27.0848228 C29.5205457,26.3492279 28.5838177,25.7309121 27.6590436,25.2221225 Z M31.9545455,24.1033324 C30.8499048,24.1033324 29.7836624,24.267735 28.7789515,24.5734071 C29.6486153,25.089856 30.5208999,25.6976191 31.371621,26.4011041 C31.5702602,26.331753 31.7841324,26.2946667 32.0066667,26.2946667 C32.422502,26.2946667 32.8080915,26.4241645 33.1253073,26.6450324 C34.2627824,26.0983406 35.4862351,25.6267749 36.7977835,25.2361709 C35.3402699,24.5114905 33.6950729,24.1033324 31.9545455,24.1033324 Z"/>
  </g>
</svg>
