<?xml version="1.0" encoding="UTF-8"?>
<svg width="128px" height="128px" viewBox="0 0 128 128" version="1.1" xmlns="http://www.w3.org/2000/svg" xmlns:xlink="http://www.w3.org/1999/xlink">
    <title>mimetypes/128/application-dxf</title>
    <defs>
        <linearGradient x1="50%" y1="0%" x2="50%" y2="99.7939317%" id="linearGradient-1">
            <stop stop-color="#9BA6C1" offset="0%"></stop>
            <stop stop-color="#778EB2" offset="100%"></stop>
        </linearGradient>
        <path d="M92,105 C92,109.970563 87.9705627,114 83,114 L9,114 C4.02943725,114 6.08718376e-16,109.970563 0,105 L0,9 C-6.08718376e-16,4.02943725 4.02943725,9.13077564e-16 9,0 L63.5,0 L92,28.5 L92,105 Z" id="path-2"></path>
        <filter x="-12.5%" y="-8.3%" width="125.0%" height="120.2%" filterUnits="objectBoundingBox" id="filter-3">
            <feOffset dx="0" dy="2" in="SourceAlpha" result="shadowOffsetOuter1"></feOffset>
            <feGaussianBlur stdDeviation="3.5" in="shadowOffsetOuter1" result="shadowBlurOuter1"></feGaussianBlur>
            <feColorMatrix values="0 0 0 0 0.474509804   0 0 0 0 0.558835447   0 0 0 0 0.701960784  0 0 0 0.5 0" type="matrix" in="shadowBlurOuter1"></feColorMatrix>
        </filter>
        <linearGradient x1="50%" y1="50%" x2="7.99354867%" y2="88.8926673%" id="linearGradient-4">
            <stop stop-color="#FFFFFF" stop-opacity="0.1" offset="0%"></stop>
            <stop stop-color="#FFFFFF" stop-opacity="0.3" offset="100%"></stop>
        </linearGradient>
        <path d="M63.5,0 L92,28.5 L72.5,28.5 C67.5294373,28.5 63.5,24.4705627 63.5,19.5 L63.5,0 L63.5,0 Z" id="path-5"></path>
        <filter x="-12.3%" y="-8.8%" width="124.6%" height="124.6%" filterUnits="objectBoundingBox" id="filter-6">
            <feOffset dx="0" dy="1" in="SourceAlpha" result="shadowOffsetOuter1"></feOffset>
            <feGaussianBlur stdDeviation="1" in="shadowOffsetOuter1" result="shadowBlurOuter1"></feGaussianBlur>
            <feComposite in="shadowBlurOuter1" in2="SourceAlpha" operator="out" result="shadowBlurOuter1"></feComposite>
            <feColorMatrix values="0 0 0 0 0   0 0 0 0 0   0 0 0 0 0  0 0 0 0.05 0" type="matrix" in="shadowBlurOuter1"></feColorMatrix>
        </filter>
    </defs>
    <g id="mimetypes/128/application-dxf" stroke="none" stroke-width="1" fill="none" fill-rule="evenodd">
        <g id="编组-2" transform="translate(18, 7)">
            <g id="蒙版">
                <use fill="black" fill-opacity="1" filter="url(#filter-3)" xlink:href="#path-2"></use>
                <use fill="url(#linearGradient-1)" fill-rule="evenodd" xlink:href="#path-2"></use>
            </g>
            <g id="折角">
                <use fill="black" fill-opacity="1" filter="url(#filter-6)" xlink:href="#path-5"></use>
                <use fill="url(#linearGradient-4)" fill-rule="evenodd" xlink:href="#path-5"></use>
            </g>
        </g>
        <path d="M48,14 L48,66 L32,66 L32,82 L22,82 L22,86 L32,86 L32,102 L48,102 L48,118 L52,118 L52,102 L68,102 L68,86 L106,86 L106,82 L68,82 L68,66 L52,66 L52,14 L48,14 Z M36,98 L36,70 L64,70 L64,98 L36,98 Z M48,82 L48,86 L52,86 L52,82 L48,82 Z" id="形状" fill="#FFFFFF"></path>
    </g>
</svg>