<?xml version="1.0" encoding="UTF-8"?>
<svg width="128px" height="128px" viewBox="0 0 128 128" version="1.1" xmlns="http://www.w3.org/2000/svg" xmlns:xlink="http://www.w3.org/1999/xlink">
    <title>mimetypes/128/application-x-deepinclone-dim</title>
    <defs>
        <linearGradient x1="50%" y1="0%" x2="50%" y2="100%" id="linearGradient-1">
            <stop stop-color="#327DFF" offset="0%"></stop>
            <stop stop-color="#1066FF" offset="100%"></stop>
        </linearGradient>
        <path d="M92,105 C92,109.970563 87.9705627,114 83,114 L9,114 C4.02943725,114 6.08718376e-16,109.970563 0,105 L0,9 C-6.08718376e-16,4.02943725 4.02943725,9.13077564e-16 9,0 L63.5,0 L92,28.5 L92,105 Z" id="path-2"></path>
        <filter x="-12.5%" y="-8.3%" width="125.0%" height="120.2%" filterUnits="objectBoundingBox" id="filter-3">
            <feOffset dx="0" dy="2" in="SourceAlpha" result="shadowOffsetOuter1"></feOffset>
            <feGaussianBlur stdDeviation="3.5" in="shadowOffsetOuter1" result="shadowBlurOuter1"></feGaussianBlur>
            <feColorMatrix values="0 0 0 0 0.0391387195   0 0 0 0 0.388542822   0 0 0 0 1  0 0 0 0.5 0" type="matrix" in="shadowBlurOuter1"></feColorMatrix>
        </filter>
        <linearGradient x1="50%" y1="50%" x2="7.99354867%" y2="88.8926673%" id="linearGradient-4">
            <stop stop-color="#FFFFFF" stop-opacity="0.1" offset="0%"></stop>
            <stop stop-color="#FFFFFF" stop-opacity="0.3" offset="100%"></stop>
        </linearGradient>
        <path d="M63.5,0 L92,28.5 L72.5,28.5 C67.5294373,28.5 63.5,24.4705627 63.5,19.5 L63.5,0 L63.5,0 Z" id="path-5"></path>
        <filter x="-12.3%" y="-8.8%" width="124.6%" height="124.6%" filterUnits="objectBoundingBox" id="filter-6">
            <feOffset dx="0" dy="1" in="SourceAlpha" result="shadowOffsetOuter1"></feOffset>
            <feGaussianBlur stdDeviation="1" in="shadowOffsetOuter1" result="shadowBlurOuter1"></feGaussianBlur>
            <feComposite in="shadowBlurOuter1" in2="SourceAlpha" operator="out" result="shadowBlurOuter1"></feComposite>
            <feColorMatrix values="0 0 0 0 0   0 0 0 0 0   0 0 0 0 0  0 0 0 0.05 0" type="matrix" in="shadowBlurOuter1"></feColorMatrix>
        </filter>
    </defs>
    <g id="mimetypes/128/application-x-deepinclone-dim" stroke="none" stroke-width="1" fill="none" fill-rule="evenodd">
        <g id="编组-2" transform="translate(18, 7)">
            <g id="蒙版">
                <use fill="black" fill-opacity="1" filter="url(#filter-3)" xlink:href="#path-2"></use>
                <use fill="url(#linearGradient-1)" fill-rule="evenodd" xlink:href="#path-2"></use>
            </g>
            <g id="折角">
                <use fill="black" fill-opacity="1" filter="url(#filter-6)" xlink:href="#path-5"></use>
                <use fill="url(#linearGradient-4)" fill-rule="evenodd" xlink:href="#path-5"></use>
            </g>
        </g>
        <g id="Group-2" transform="translate(44, 38)" fill="#FFFFFF">
            <path d="M30,8 C31.1045695,8 32,8.8954305 32,10 L32,46 C32,47.1045695 31.1045695,48 30,48 L2,48 C0.8954305,48 1.43461255e-14,47.1045695 1.42108547e-14,46 L1.42108547e-14,10 C1.4075584e-14,8.8954305 0.8954305,8 2,8 L30,8 Z M30,0 C35.5228475,-1.01453063e-15 40,4.4771525 40,10 L40,38 C40,39.1045695 39.1045695,40 38,40 L34.999,40 L35,10 C35,7.3112453 32.8776933,5.11818189 30.2168896,5.00461951 L30,5 L7,5 L7,2 C7,0.8954305 7.8954305,2.02906125e-16 9,0 L30,0 Z M7,17 L7,27 L17,27 L12.9703882,22.9712803 C14.1425919,22.1860726 15.5350961,21.75 17,21.75 C21.0040644,21.75 24.25,24.9959356 24.25,29 C24.25,33.0040644 21.0040644,36.25 17,36.25 C14.1281465,36.25 11.5635024,34.5654821 10.3956372,31.9959933 C10.0528522,31.2418117 9.16358497,30.908309 8.40940336,31.251094 C7.65522176,31.5938791 7.32171898,32.4831463 7.66450405,33.2373279 C9.31483014,36.8683074 12.9409085,39.25 17,39.25 C22.6609187,39.25 27.25,34.6609187 27.25,29 C27.25,23.3390813 22.6609187,18.75 17,18.75 C14.7261882,18.75 12.5716745,19.4958214 10.8204734,20.8209867 L7,17 Z M5.672,70.5 L5.672,57.306 L8.984,57.306 C13.034,57.306 15.212,59.664 15.212,63.858 C15.212,68.034 13.034,70.5 9.056,70.5 L5.672,70.5 Z M7.346,69.132 L8.84,69.132 C11.954,69.132 13.484,67.188 13.484,63.858 C13.484,60.51 11.954,58.656 8.84,58.656 L7.346,58.656 L7.346,69.132 Z M18.038,70.5 L19.712,70.5 L19.712,57.306 L18.038,57.306 L18.038,70.5 Z M23.312,70.5 L24.824,70.5 L24.824,63.192 C24.824,62.058 24.698,60.456 24.626,59.304 L24.698,59.304 L25.742,62.31 L28.244,69.168 L29.36,69.168 L31.862,62.31 L32.906,59.304 L32.978,59.304 C32.888,60.456 32.762,62.058 32.762,63.192 L32.762,70.5 L34.328,70.5 L34.328,57.306 L32.312,57.306 L29.792,64.362 C29.486,65.28 29.198,66.198 28.892,67.116 L28.802,67.116 C28.478,66.198 28.172,65.28 27.866,64.362 L25.328,57.306 L23.312,57.306 L23.312,70.5 Z" id="形状结合"></path>
        </g>
    </g>
</svg>