<?xml version="1.0" encoding="UTF-8"?>
<svg width="128px" height="128px" viewBox="0 0 128 128" version="1.1" xmlns="http://www.w3.org/2000/svg" xmlns:xlink="http://www.w3.org/1999/xlink">
    <title>mimetypes/128/application-vnd.scribus</title>
    <defs>
        <linearGradient x1="50%" y1="0%" x2="50%" y2="99.2029139%" id="linearGradient-1">
            <stop stop-color="#619FFF" offset="0%"></stop>
            <stop stop-color="#0093E4" offset="100%"></stop>
        </linearGradient>
        <path d="M92,105 C92,109.970563 87.9705627,114 83,114 L9,114 C4.02943725,114 6.08718376e-16,109.970563 0,105 L0,9 C-6.08718376e-16,4.02943725 4.02943725,9.13077564e-16 9,0 L63.5,0 L92,28.5 L92,105 Z" id="path-2"></path>
        <filter x="-12.5%" y="-8.3%" width="125.0%" height="120.2%" filterUnits="objectBoundingBox" id="filter-3">
            <feOffset dx="0" dy="2" in="SourceAlpha" result="shadowOffsetOuter1"></feOffset>
            <feGaussianBlur stdDeviation="3.5" in="shadowOffsetOuter1" result="shadowBlurOuter1"></feGaussianBlur>
            <feColorMatrix values="0 0 0 0 0.0156862745   0 0 0 0 0.580392157   0 0 0 0 0.898039216  0 0 0 0.5 0" type="matrix" in="shadowBlurOuter1"></feColorMatrix>
        </filter>
        <linearGradient x1="50%" y1="50%" x2="7.99354867%" y2="88.8926673%" id="linearGradient-4">
            <stop stop-color="#FFFFFF" stop-opacity="0.1" offset="0%"></stop>
            <stop stop-color="#FFFFFF" stop-opacity="0.3" offset="100%"></stop>
        </linearGradient>
        <path d="M63.5,0 L92,28.5 L72.5,28.5 C67.5294373,28.5 63.5,24.4705627 63.5,19.5 L63.5,0 L63.5,0 Z" id="path-5"></path>
        <filter x="-12.3%" y="-8.8%" width="124.6%" height="124.6%" filterUnits="objectBoundingBox" id="filter-6">
            <feOffset dx="0" dy="1" in="SourceAlpha" result="shadowOffsetOuter1"></feOffset>
            <feGaussianBlur stdDeviation="1" in="shadowOffsetOuter1" result="shadowBlurOuter1"></feGaussianBlur>
            <feComposite in="shadowBlurOuter1" in2="SourceAlpha" operator="out" result="shadowBlurOuter1"></feComposite>
            <feColorMatrix values="0 0 0 0 0   0 0 0 0 0   0 0 0 0 0  0 0 0 0.05 0" type="matrix" in="shadowBlurOuter1"></feColorMatrix>
        </filter>
        <linearGradient x1="59.3066467%" y1="27.237768%" x2="34.0414915%" y2="100%" id="linearGradient-7">
            <stop stop-color="#FFFFFF" stop-opacity="0" offset="0%"></stop>
            <stop stop-color="#FFFFFF" offset="100%"></stop>
        </linearGradient>
    </defs>
    <g id="mimetypes/128/application-vnd.scribus" stroke="none" stroke-width="1" fill="none" fill-rule="evenodd">
        <g id="编组-2" transform="translate(18, 7)">
            <g id="蒙版">
                <use fill="black" fill-opacity="1" filter="url(#filter-3)" xlink:href="#path-2"></use>
                <use fill="url(#linearGradient-1)" fill-rule="evenodd" xlink:href="#path-2"></use>
            </g>
            <g id="折角">
                <use fill="black" fill-opacity="1" filter="url(#filter-6)" xlink:href="#path-5"></use>
                <use fill="url(#linearGradient-4)" fill-rule="evenodd" xlink:href="#path-5"></use>
            </g>
        </g>
        <path d="M56.0393209,14.8891437 C59.7119471,22.1534872 63.3848849,37.7434102 40.0000002,53.3333333 C8.00000022,74.6666667 56.0000002,102.666667 56.0000002,102.666667 C56.0000002,102.666667 20.400074,64.4297083 105.22932,46.9583924" id="Path-2" fill="url(#linearGradient-7)" opacity="0.64348181"></path>
        <path d="M57.9283854,103.818209 C60.3311764,92.525092 63.5749441,84.836161 67.6596887,80.7514164 C67.6596887,80.7514164 66.9388514,70.6596945 79.9139225,54.4408556 C79.9139225,54.4408556 83.1576902,50.8366692 84.5993648,45.7908083 C86.0410394,43.1477382 87.6028535,42.6671801 89.2848071,44.3491337 C90.4862026,45.3102501 90.6063421,46.5116456 89.6452258,47.9533201 C88.6841094,49.3949947 87.3625744,52.2783438 85.6806207,56.6033675 C82.7972716,69.578439 78.3521084,78.2284864 72.345131,82.5535096 C69.702061,85.1965792 68.7409446,88.2000678 69.4617819,91.5639756 L57.9283854,103.818209 Z" id="Path" fill="#FFFFFF" transform="translate(74.0663, 73.6881) rotate(5) translate(-74.0663, -73.6881)"></path>
    </g>
</svg>