<?xml version="1.0" encoding="UTF-8"?>
<svg width="128px" height="128px" viewBox="0 0 128 128" version="1.1" xmlns="http://www.w3.org/2000/svg" xmlns:xlink="http://www.w3.org/1999/xlink">
    <title>mimetypes/128/application-x-glade</title>
    <defs>
        <linearGradient x1="50%" y1="0%" x2="50%" y2="100%" id="linearGradient-1">
            <stop stop-color="#6F99D9" offset="0%"></stop>
            <stop stop-color="#2A90C8" offset="100%"></stop>
        </linearGradient>
        <path d="M92,105 C92,109.970563 87.9705627,114 83,114 L9,114 C4.02943725,114 6.08718376e-16,109.970563 0,105 L0,9 C-6.08718376e-16,4.02943725 4.02943725,9.13077564e-16 9,0 L63.5,0 L92,28.5 L92,105 Z" id="path-2"></path>
        <filter x="-12.5%" y="-8.3%" width="125.0%" height="120.2%" filterUnits="objectBoundingBox" id="filter-3">
            <feOffset dx="0" dy="2" in="SourceAlpha" result="shadowOffsetOuter1"></feOffset>
            <feGaussianBlur stdDeviation="3.5" in="shadowOffsetOuter1" result="shadowBlurOuter1"></feGaussianBlur>
            <feColorMatrix values="0 0 0 0 0.474509804   0 0 0 0 0.619607843   0 0 0 0 0.701960784  0 0 0 0.5 0" type="matrix" in="shadowBlurOuter1"></feColorMatrix>
        </filter>
        <linearGradient x1="50%" y1="50%" x2="7.99354867%" y2="88.8926673%" id="linearGradient-4">
            <stop stop-color="#FFFFFF" stop-opacity="0.1" offset="0%"></stop>
            <stop stop-color="#FFFFFF" stop-opacity="0.3" offset="100%"></stop>
        </linearGradient>
        <path d="M63.5,0 L92,28.5 L72.5,28.5 C67.5294373,28.5 63.5,24.4705627 63.5,19.5 L63.5,0 L63.5,0 Z" id="path-5"></path>
        <filter x="-12.3%" y="-8.8%" width="124.6%" height="124.6%" filterUnits="objectBoundingBox" id="filter-6">
            <feOffset dx="0" dy="1" in="SourceAlpha" result="shadowOffsetOuter1"></feOffset>
            <feGaussianBlur stdDeviation="1" in="shadowOffsetOuter1" result="shadowBlurOuter1"></feGaussianBlur>
            <feComposite in="shadowBlurOuter1" in2="SourceAlpha" operator="out" result="shadowBlurOuter1"></feComposite>
            <feColorMatrix values="0 0 0 0 0   0 0 0 0 0   0 0 0 0 0  0 0 0 0.05 0" type="matrix" in="shadowBlurOuter1"></feColorMatrix>
        </filter>
    </defs>
    <g id="mimetypes/128/application-x-glade" stroke="none" stroke-width="1" fill="none" fill-rule="evenodd">
        <g id="编组-2" transform="translate(18, 7)">
            <g id="蒙版">
                <use fill="black" fill-opacity="1" filter="url(#filter-3)" xlink:href="#path-2"></use>
                <use fill="url(#linearGradient-1)" fill-rule="evenodd" xlink:href="#path-2"></use>
            </g>
            <g id="折角">
                <use fill="black" fill-opacity="1" filter="url(#filter-6)" xlink:href="#path-5"></use>
                <use fill="url(#linearGradient-4)" fill-rule="evenodd" xlink:href="#path-5"></use>
            </g>
        </g>
        <path d="M42,100 L40,100 L39.9999583,94 L34,94 L34,92 L39.9999583,92 L40,59.9937505 L34.0010417,60 L33.9989583,58 L40,57.9937495 L40,52 L34,52 L34,50 L40,50 L40,44 L42,44 L42,50 L85.9999583,50 L86,44 L88,44 L87.9999583,50 L94,50 L94,52 L87.9999583,52 L87.9999583,57.943 L93.9989583,57.9375005 L94.0010417,59.9374995 L87.9999583,59.943 L88,92 L94,92 L94,94 L88,94 L88,100 L86,100 L86,94 L41.9999583,94 L42,100 Z M85.9999583,59.945 L42,59.9916672 L41.9999583,92 L86,92 L85.9999583,59.945 Z M79.9995117,83.9921876 L80.0004883,85.9921876 L64.0004883,85.9999999 L63.9995117,84.0000001 L79.9995117,83.9921876 Z M80,76 L80,78 L48,78 L48,76 L80,76 Z M80.0001221,67.9960938 L80.0001221,69.9960938 L47.9998779,70 L47.9998779,68 L80.0001221,67.9960938 Z M85.9999583,52 L42,52 L42,57.9916661 L85.9999583,57.945 L85.9999583,52 Z M84,54 L84,56 L82,56 L82,54 L84,54 Z M80,54 L80,56 L78,56 L78,54 L80,54 Z M76,54 L76,56 L74,56 L74,54 L76,54 Z" id="形状结合" fill="#FFFFFF"></path>
    </g>
</svg>