<?xml version="1.0" encoding="UTF-8"?>
<svg width="128px" height="128px" viewBox="0 0 128 128" version="1.1" xmlns="http://www.w3.org/2000/svg" xmlns:xlink="http://www.w3.org/1999/xlink">
    <title>mimetypes/128/application-x-ipynb+json</title>
    <defs>
        <linearGradient x1="50%" y1="0%" x2="50%" y2="99.7939317%" id="linearGradient-1">
            <stop stop-color="#9BA6C1" offset="0%"></stop>
            <stop stop-color="#778EB2" offset="100%"></stop>
        </linearGradient>
        <path d="M92,105 C92,109.970563 87.9705627,114 83,114 L9,114 C4.02943725,114 6.08718376e-16,109.970563 0,105 L0,9 C-6.08718376e-16,4.02943725 4.02943725,9.13077564e-16 9,0 L63.5,0 L92,28.5 L92,105 Z" id="path-2"></path>
        <filter x="-12.5%" y="-8.3%" width="125.0%" height="120.2%" filterUnits="objectBoundingBox" id="filter-3">
            <feOffset dx="0" dy="2" in="SourceAlpha" result="shadowOffsetOuter1"></feOffset>
            <feGaussianBlur stdDeviation="3.5" in="shadowOffsetOuter1" result="shadowBlurOuter1"></feGaussianBlur>
            <feColorMatrix values="0 0 0 0 0.474509804   0 0 0 0 0.558835447   0 0 0 0 0.701960784  0 0 0 0.5 0" type="matrix" in="shadowBlurOuter1"></feColorMatrix>
        </filter>
        <linearGradient x1="50%" y1="50%" x2="7.99354867%" y2="88.8926673%" id="linearGradient-4">
            <stop stop-color="#FFFFFF" stop-opacity="0.1" offset="0%"></stop>
            <stop stop-color="#FFFFFF" stop-opacity="0.3" offset="100%"></stop>
        </linearGradient>
        <path d="M63.5,0 L92,28.5 L72.5,28.5 C67.5294373,28.5 63.5,24.4705627 63.5,19.5 L63.5,0 L63.5,0 Z" id="path-5"></path>
        <filter x="-12.3%" y="-8.8%" width="124.6%" height="124.6%" filterUnits="objectBoundingBox" id="filter-6">
            <feOffset dx="0" dy="1" in="SourceAlpha" result="shadowOffsetOuter1"></feOffset>
            <feGaussianBlur stdDeviation="1" in="shadowOffsetOuter1" result="shadowBlurOuter1"></feGaussianBlur>
            <feComposite in="shadowBlurOuter1" in2="SourceAlpha" operator="out" result="shadowBlurOuter1"></feComposite>
            <feColorMatrix values="0 0 0 0 0   0 0 0 0 0   0 0 0 0 0  0 0 0 0.05 0" type="matrix" in="shadowBlurOuter1"></feColorMatrix>
        </filter>
    </defs>
    <g id="mimetypes/128/application-x-ipynb+json" stroke="none" stroke-width="1" fill="none" fill-rule="evenodd">
        <g id="编组-2" transform="translate(18, 7)">
            <g id="蒙版">
                <use fill="black" fill-opacity="1" filter="url(#filter-3)" xlink:href="#path-2"></use>
                <use fill="url(#linearGradient-1)" fill-rule="evenodd" xlink:href="#path-2"></use>
            </g>
            <g id="折角">
                <use fill="black" fill-opacity="1" filter="url(#filter-6)" xlink:href="#path-5"></use>
                <use fill="url(#linearGradient-4)" fill-rule="evenodd" xlink:href="#path-5"></use>
            </g>
        </g>
        <path d="M46,42 L46,46 L40,46 L40,86 L46,86 L46,90 L36,90 L36,42 L46,42 Z M86,42 L86,90 L76,90 L76,86 L82,86 L82,46 L76,46 L76,42 L86,42 Z M52.5503078,49.1206796 L63.0683338,70.6083744 C63.1986311,70.3076084 63.3292641,70.0020659 63.4602045,69.6918561 L63.9162886,68.5955703 C63.9924941,68.4097832 64.0687917,68.2224738 64.1451759,68.0336634 L64.6044767,66.8829576 C64.6811854,66.6882277 64.7579698,66.4920392 64.8348243,66.2944133 C66.2657947,62.6147752 67.6345982,58.6640012 68.8920129,54.7121264 L69.2581545,53.5509822 L69.6011529,52.4431182 L69.920174,51.3932121 L70.4904052,49.4556957 L74.3394215,50.5443063 L73.9930893,51.733364 L73.5912243,53.0725911 L73.0763692,54.7431398 L72.703716,55.9249411 C71.4227401,59.9508654 70.0275183,63.9778906 68.562843,67.7441983 L68.3211512,68.3617002 L67.8388511,69.5697282 C67.5178086,70.3629591 67.1977606,71.1317722 66.8787824,71.8751133 L66.4011269,72.9708891 L65.9251328,74.0276663 C64.4996987,77.1387089 63.097455,79.7125947 61.7252699,81.6532565 C59.8129774,84.3577845 57.9196061,85.8892954 55.795948,85.9943638 L55.5675207,86.000002 L53,86.000002 L53,82 L55.5675207,82 C56.0485572,82 56.9842567,81.3162176 58.127236,79.7990876 L58.4592281,79.343934 C59.240791,78.2385806 60.0524749,76.8634638 60.8860176,75.2505421 L48.957652,50.8793224 L52.5503078,49.1206796 Z M96,74.000002 C96,75.1045696 95.104569,76.000002 94,76.000002 C92.8954304,76.000002 92,75.1045696 92,74.000002 C92,72.8954315 92.8954309,72.000002 94,72.000002 C95.1045685,72.000002 96,72.8954315 96,74.000002 Z M96,88.000002 C96,89.1045696 95.104569,90.000002 94,90.000002 C92.8954304,90.000002 92,89.1045696 92,88.000002 C92,86.8954315 92.8954309,86.000002 94,86.000002 C95.1045685,86.000002 96,86.8954315 96,88.000002 Z" id="形状结合" fill="#FFFFFF"></path>
    </g>
</svg>