<?xml version="1.0" encoding="UTF-8"?>
<svg width="128px" height="128px" viewBox="0 0 128 128" version="1.1" xmlns="http://www.w3.org/2000/svg" xmlns:xlink="http://www.w3.org/1999/xlink">
    <title>mimetypes/128/application-x-subrip</title>
    <defs>
        <linearGradient x1="50%" y1="0%" x2="50%" y2="100%" id="linearGradient-1">
            <stop stop-color="#5895FF" offset="0%"></stop>
            <stop stop-color="#387CF4" offset="100%"></stop>
        </linearGradient>
        <path d="M92,105 C92,109.970563 87.9705627,114 83,114 L9,114 C4.02943725,114 6.08718376e-16,109.970563 0,105 L0,9 C-6.08718376e-16,4.02943725 4.02943725,9.13077564e-16 9,0 L63.5,0 L92,28.5 L92,105 Z" id="path-2"></path>
        <filter x="-12.5%" y="-8.3%" width="125.0%" height="120.2%" filterUnits="objectBoundingBox" id="filter-3">
            <feOffset dx="0" dy="2" in="SourceAlpha" result="shadowOffsetOuter1"></feOffset>
            <feGaussianBlur stdDeviation="3.5" in="shadowOffsetOuter1" result="shadowBlurOuter1"></feGaussianBlur>
            <feColorMatrix values="0 0 0 0 0.22745098   0 0 0 0 0.494117647   0 0 0 0 0.960784314  0 0 0 0.5 0" type="matrix" in="shadowBlurOuter1"></feColorMatrix>
        </filter>
        <linearGradient x1="50%" y1="50%" x2="7.99354867%" y2="88.8926673%" id="linearGradient-4">
            <stop stop-color="#FFFFFF" stop-opacity="0.1" offset="0%"></stop>
            <stop stop-color="#FFFFFF" stop-opacity="0.3" offset="100%"></stop>
        </linearGradient>
        <path d="M63.5,0 L92,28.5 L72.5,28.5 C67.5294373,28.5 63.5,24.4705627 63.5,19.5 L63.5,0 L63.5,0 Z" id="path-5"></path>
        <filter x="-12.3%" y="-8.8%" width="124.6%" height="124.6%" filterUnits="objectBoundingBox" id="filter-6">
            <feOffset dx="0" dy="1" in="SourceAlpha" result="shadowOffsetOuter1"></feOffset>
            <feGaussianBlur stdDeviation="1" in="shadowOffsetOuter1" result="shadowBlurOuter1"></feGaussianBlur>
            <feComposite in="shadowBlurOuter1" in2="SourceAlpha" operator="out" result="shadowBlurOuter1"></feComposite>
            <feColorMatrix values="0 0 0 0 0   0 0 0 0 0   0 0 0 0 0  0 0 0 0.05 0" type="matrix" in="shadowBlurOuter1"></feColorMatrix>
        </filter>
    </defs>
    <g id="mimetypes/128/application-x-subrip" stroke="none" stroke-width="1" fill="none" fill-rule="evenodd">
        <g id="编组-2" transform="translate(18, 7)">
            <g id="蒙版">
                <use fill="black" fill-opacity="1" filter="url(#filter-3)" xlink:href="#path-2"></use>
                <use fill="url(#linearGradient-1)" fill-rule="evenodd" xlink:href="#path-2"></use>
            </g>
            <g id="折角">
                <use fill="black" fill-opacity="1" filter="url(#filter-6)" xlink:href="#path-5"></use>
                <use fill="url(#linearGradient-4)" fill-rule="evenodd" xlink:href="#path-5"></use>
            </g>
        </g>
        <path d="M46,96 L82,96 C85.3137085,96 88,93.3137085 88,90 L88,48 C88,44.6862915 85.3137085,42 82,42 L46,42 C42.6862915,42 40,44.6862915 40,48 L40,90 C40,93.3137085 42.6862915,96 46,96 Z M86,48 L86,88 L86,88 C85.3333333,86.6666667 84,86 82,86 C70.010621,86 58.0212421,86 46,86 C44,86 42.6666667,86.6666667 42,88 L42,48 C42,45.790861 43.790861,44 46,44 L82,44 C84.209139,44 86,45.790861 86,48 Z M56,58 C56,62.432 59.568,66 64,66 C68.432,66 72,62.432 72,58 C72,53.568 68.432,50 64,50 C59.568,50 56,53.568 56,58 Z M50.9322907,74 L77.0677093,74 C76.3641547,70.659188 74.277656,67.8356356 71.4322907,66 C69.5130907,67.7863687 66.901112,68.8959508 64,68.8959508 C61.098888,68.8959508 58.4869093,67.7863687 56.5677093,66 C53.722344,67.8356356 51.6358453,70.659188 50.9322907,74 Z M46,82 L54,82 L54,80 L46,80 L46,82 Z M56,82 L60,82 L60,80 L56,80 L56,82 Z M62,82 L82,82 L82,80 L62,80 L62,82 Z M80,92 C80,93.108 79.108,94 78,94 C76.892,94 76,93.108 76,92 C76,90.892 76.892,90 78,90 C79.108,90 80,90.892 80,92 Z" id="rect4219" fill="#FFFFFF"></path>
    </g>
</svg>