<?xml version="1.0" encoding="UTF-8"?>
<svg width="128px" height="128px" viewBox="0 0 128 128" version="1.1" xmlns="http://www.w3.org/2000/svg" xmlns:xlink="http://www.w3.org/1999/xlink">
    <title>mimetypes/128/application-vnd.wolfram.nb</title>
    <defs>
        <linearGradient x1="50%" y1="0%" x2="50%" y2="99.7939317%" id="linearGradient-1">
            <stop stop-color="#9BA6C1" offset="0%"></stop>
            <stop stop-color="#778EB2" offset="100%"></stop>
        </linearGradient>
        <path d="M92,105 C92,109.970563 87.9705627,114 83,114 L9,114 C4.02943725,114 6.08718376e-16,109.970563 0,105 L0,9 C-6.08718376e-16,4.02943725 4.02943725,9.13077564e-16 9,0 L63.5,0 L92,28.5 L92,105 Z" id="path-2"></path>
        <filter x="-12.5%" y="-8.3%" width="125.0%" height="120.2%" filterUnits="objectBoundingBox" id="filter-3">
            <feOffset dx="0" dy="2" in="SourceAlpha" result="shadowOffsetOuter1"></feOffset>
            <feGaussianBlur stdDeviation="3.5" in="shadowOffsetOuter1" result="shadowBlurOuter1"></feGaussianBlur>
            <feColorMatrix values="0 0 0 0 0.474509804   0 0 0 0 0.558835447   0 0 0 0 0.701960784  0 0 0 0.5 0" type="matrix" in="shadowBlurOuter1"></feColorMatrix>
        </filter>
        <linearGradient x1="50%" y1="50%" x2="7.99354867%" y2="88.8926673%" id="linearGradient-4">
            <stop stop-color="#FFFFFF" stop-opacity="0.1" offset="0%"></stop>
            <stop stop-color="#FFFFFF" stop-opacity="0.3" offset="100%"></stop>
        </linearGradient>
        <path d="M63.5,0 L92,28.5 L72.5,28.5 C67.5294373,28.5 63.5,24.4705627 63.5,19.5 L63.5,0 L63.5,0 Z" id="path-5"></path>
        <filter x="-12.3%" y="-8.8%" width="124.6%" height="124.6%" filterUnits="objectBoundingBox" id="filter-6">
            <feOffset dx="0" dy="1" in="SourceAlpha" result="shadowOffsetOuter1"></feOffset>
            <feGaussianBlur stdDeviation="1" in="shadowOffsetOuter1" result="shadowBlurOuter1"></feGaussianBlur>
            <feComposite in="shadowBlurOuter1" in2="SourceAlpha" operator="out" result="shadowBlurOuter1"></feComposite>
            <feColorMatrix values="0 0 0 0 0   0 0 0 0 0   0 0 0 0 0  0 0 0 0.05 0" type="matrix" in="shadowBlurOuter1"></feColorMatrix>
        </filter>
    </defs>
    <g id="mimetypes/128/application-vnd.wolfram.nb" stroke="none" stroke-width="1" fill="none" fill-rule="evenodd">
        <g id="编组-2" transform="translate(18, 7)">
            <g id="蒙版">
                <use fill="black" fill-opacity="1" filter="url(#filter-3)" xlink:href="#path-2"></use>
                <use fill="url(#linearGradient-1)" fill-rule="evenodd" xlink:href="#path-2"></use>
            </g>
            <g id="折角">
                <use fill="black" fill-opacity="1" filter="url(#filter-6)" xlink:href="#path-5"></use>
                <use fill="url(#linearGradient-4)" fill-rule="evenodd" xlink:href="#path-5"></use>
            </g>
        </g>
        <path d="M45.453124,44 C45.453124,44 48.902388,55.113212 46.796876,62.238282 C44.691356,69.363352 34,77.38672 34,77.38672 C34,77.38672 47.978248,78.147352 53.285156,81.539062 C58.592064,84.930768 63.98828,98 63.988282,98 C63.988282,98 71.154278,83.600098 74.152344,81.539062 C77.150404,79.478026 94,77.367186 94,77.367188 C94,77.367188 81.67995,65.773496 80.632812,62.539062 C79.58567,59.30461 82.550782,44.007814 82.550782,44.007814 C82.550782,44.007814 71.462564,51.5 63.675782,51.5 C55.889004,51.5 45.453126,44 45.453124,44 Z M72.492188,57.992188 C72.319688,60.06112 71.901722,61.535202 73.023438,65 C74.26974,68.849618 75.542746,69.597442 77.050782,71.382814 C77.234682,71.600538 77.462274,71.815972 77.652344,72.035156 C77.316786,72.111696 76.9529,72.162276 76.625,72.242188 C74.318918,72.804202 72.728038,72.809422 69.621094,74.945314 C66.513882,77.08138 65.928084,78.614086 64.644532,80.539062 C64.479692,80.786284 64.335364,81.067148 64.171876,81.320314 C62.574594,78.985716 60.595632,76.715412 57.59375,74.796876 C55.27764,73.31662 52.977376,72.499146 50.714844,71.863282 C52.21948,69.761196 53.607412,67.418674 54.46875,64.503906 C55.138276,62.23823 55.228562,60.125552 55.308594,58.039062 C57.831886,58.87276 60.587524,59.5 63.675782,59.5 C66.91261,59.5 69.841114,58.877962 72.492188,57.992188 Z" id="形状" fill="#FFFFFF"></path>
    </g>
</svg>