<?xml version="1.0" encoding="UTF-8"?>
<svg width="128px" height="128px" viewBox="0 0 128 128" version="1.1" xmlns="http://www.w3.org/2000/svg" xmlns:xlink="http://www.w3.org/1999/xlink">
    <title>mimetypes/128/application-x-theme</title>
    <defs>
        <linearGradient x1="50%" y1="0%" x2="50%" y2="98.9468961%" id="linearGradient-1">
            <stop stop-color="#F7F7F7" offset="0%"></stop>
            <stop stop-color="#F6F6F6" offset="100%"></stop>
        </linearGradient>
        <path d="M92,105 C92,109.970563 87.9705627,114 83,114 L9,114 C4.02943725,114 6.08718376e-16,109.970563 0,105 L0,9 C-6.08718376e-16,4.02943725 4.02943725,9.13077564e-16 9,0 L63.5,0 L92,28.5 L92,105 Z" id="path-2"></path>
        <filter x="-12.5%" y="-8.3%" width="125.0%" height="120.2%" filterUnits="objectBoundingBox" id="filter-3">
            <feOffset dx="0" dy="2" in="SourceAlpha" result="shadowOffsetOuter1"></feOffset>
            <feGaussianBlur stdDeviation="3.5" in="shadowOffsetOuter1" result="shadowBlurOuter1"></feGaussianBlur>
            <feColorMatrix values="0 0 0 0 0   0 0 0 0 0   0 0 0 0 0  0 0 0 0.1 0" type="matrix" in="shadowBlurOuter1"></feColorMatrix>
        </filter>
        <linearGradient x1="50%" y1="50%" x2="7.99354867%" y2="88.8926673%" id="linearGradient-4">
            <stop stop-color="#FFFFFF" stop-opacity="0.1" offset="0%"></stop>
            <stop stop-color="#FFFFFF" stop-opacity="0.3" offset="100%"></stop>
        </linearGradient>
        <path d="M63.5,0 L92,28.5 L72.5,28.5 C67.5294373,28.5 63.5,24.4705627 63.5,19.5 L63.5,0 L63.5,0 Z" id="path-5"></path>
        <filter x="-12.3%" y="-8.8%" width="124.6%" height="124.6%" filterUnits="objectBoundingBox" id="filter-6">
            <feOffset dx="0" dy="1" in="SourceAlpha" result="shadowOffsetOuter1"></feOffset>
            <feGaussianBlur stdDeviation="1" in="shadowOffsetOuter1" result="shadowBlurOuter1"></feGaussianBlur>
            <feComposite in="shadowBlurOuter1" in2="SourceAlpha" operator="out" result="shadowBlurOuter1"></feComposite>
            <feColorMatrix values="0 0 0 0 0   0 0 0 0 0   0 0 0 0 0  0 0 0 0.05 0" type="matrix" in="shadowBlurOuter1"></feColorMatrix>
        </filter>
    </defs>
    <g id="mimetypes/128/application-x-theme" stroke="none" stroke-width="1" fill="none" fill-rule="evenodd">
        <g id="编组-2" transform="translate(18, 7)">
            <g id="蒙版">
                <use fill="black" fill-opacity="1" filter="url(#filter-3)" xlink:href="#path-2"></use>
                <use fill="url(#linearGradient-1)" fill-rule="evenodd" xlink:href="#path-2"></use>
            </g>
            <path d="M63.7071068,-0.5 L63.8535534,-0.353553391 L92.3535534,28.1464466 L92.5,28.2928932 L92.5,105 C92.5,110.246705 88.2467051,114.5 83,114.5 L9,114.5 C3.75329488,114.5 -0.5,110.246705 -0.5,105 L-0.5,9 C-0.5,3.75329488 3.75329488,-0.5 9,-0.5 L63.7071068,-0.5 Z M63.5,0 L9,0 C4.02943725,0 0,4.02943725 0,9 L0,105 C0,109.970563 4.02943725,114 9,114 L83,114 C87.9705627,114 92,109.970563 92,105 L92,28.5 L63.5,0 Z" id="蒙版" fill-opacity="0.1" fill="#000000" fill-rule="nonzero"></path>
            <g id="折角">
                <use fill="black" fill-opacity="1" filter="url(#filter-6)" xlink:href="#path-5"></use>
                <use fill="url(#linearGradient-4)" fill-rule="evenodd" xlink:href="#path-5"></use>
            </g>
        </g>
        <path d="M70.8499657,95.4525656 C70.1892889,95.8443747 69.8589569,96.5127219 69.8589569,97.4576395 C69.8589569,98.2104964 70.1047845,98.8097091 70.5964526,99.2552775 C71.0957933,99.693169 71.7718302,99.9121148 72.6245645,99.9121148 C73.799941,99.9121148 74.7410149,99.4972753 75.4477893,98.6675854 C76.1622287,97.8302296 76.5194629,96.720147 76.5194629,95.3373378 L76.5194629,94.8648736 L74.4106862,94.8648736 C72.6975396,94.8648736 71.5106339,95.0607781 70.8499657,95.4525656 Z M60,84 L68,102 L65.6999969,102 L63.8000031,98 L54.2000008,98 L52.2999992,102 L50,102 L58,84 L60,84 Z M73.0739756,88.1352331 C74.9407524,88.1352331 76.335079,88.6192287 77.2569576,89.5871768 C78.1788156,90.5551465 78.6397624,92.0224546 78.6397624,93.9891013 L78.6397624,101.352538 L76.5194629,101.352538 L76.5194629,99.3935573 C76.0354716,100.177154 75.4324163,100.757158 74.7102936,101.133592 C73.9881558,101.502338 73.104698,101.686711 72.0599192,101.686711 C70.7385687,101.686711 69.6861033,101.317965 68.9025176,100.580473 C68.1266086,99.8352927 67.7386574,98.8404379 67.7386574,97.5959194 C67.7386574,96.1439756 68.2226368,95.0492575 69.1906011,94.3117543 C70.1662422,93.5742725 71.6181849,93.2055263 73.5464345,93.2055155 L76.5194629,93.2055155 L76.5194629,92.9980904 C76.5194521,92.0224546 76.1967981,91.2695977 75.5514997,90.7395088 C74.9138652,90.2017647 74.015043,89.9328926 72.855032,89.9328818 C72.1175309,89.9328926 71.3992413,90.0212784 70.700162,90.1979101 C70.0010741,90.3746172 69.3288788,90.6396562 68.6835729,90.9930273 L68.6835729,89.0340574 C69.4594764,88.7344565 70.2123355,88.5116777 70.9421533,88.3656995 C71.6719615,88.212066 72.3825678,88.1352331 73.0739756,88.1352331 Z M59,87 L55,96 L63,96 L59,87 Z" id="Combined-Shape" fill="#4D4D4D"></path>
        <g id="Group-2" transform="translate(34.5, 45)">
            <path d="M53.9444444,25.0952381 C51.2443853,25.0952381 49.0555556,27.3124933 49.0555556,30.047619 C49.0555556,32.7827448 51.2443853,35 53.9444444,35 C56.6445036,35 58.8333333,32.7827448 58.8333333,30.047619 C58.8333333,27.3124933 56.6445036,25.0952381 53.9444444,25.0952381 L53.9444444,25.0952381 Z" id="path4155" fill="#FC0000"></path>
            <path d="M44.1666667,26.7460317 C42.3666275,26.7460317 40.9074074,28.2242019 40.9074074,30.047619 C40.9074074,31.8710362 42.3666275,33.3492063 44.1666667,33.3492063 C45.9667059,33.3492063 47.4259259,31.8710362 47.4259259,30.047619 C47.4259259,28.2242019 45.9667059,26.7460317 44.1666667,26.7460317 L44.1666667,26.7460317 Z" id="path4153" fill="#FC0000"></path>
            <path d="M37.6481481,28.3968254 C36.748129,28.3968254 36.0185185,29.1359105 36.0185185,30.047619 C36.0185185,30.9593276 36.748129,31.6984127 37.6481481,31.6984127 C38.5481673,31.6984127 39.2777778,30.9593276 39.2777778,30.047619 C39.2777778,29.1359105 38.5481673,28.3968254 37.6481481,28.3968254 L37.6481481,28.3968254 Z" id="path4123" fill="#FC0000"></path>
            <path d="M48.2250653,13.377781 C45.8867456,14.7453397 45.0855781,17.7741663 46.4356081,20.1428571 C47.7856373,22.5115479 50.7756345,23.3231194 53.1139542,21.9555524 C55.4522739,20.5879937 56.2534414,17.559167 54.9034122,15.1904762 C53.5533822,12.8217854 50.563385,12.010214 48.2250653,13.377781 L48.2250653,13.377781 Z" id="path4161" fill="#FF6600"></path>
            <path d="M40.5720761,19.7597905 C39.0131968,20.671499 38.4790849,22.6907168 39.3791049,24.2698413 C40.2791241,25.8489657 42.2724561,26.3900133 43.8313353,25.4783048 C45.3902154,24.5665962 45.9243265,22.5473784 45.0243073,20.968254 C44.1242873,19.3891295 42.1309561,18.8480819 40.5720761,19.7597905 L40.5720761,19.7597905 Z" id="path4159" fill="#FF6600"></path>
            <path d="M35.7416884,24.4910063 C34.9622488,24.9468565 34.6951933,25.9564654 35.1452024,26.7460317 C35.5952124,27.5355981 36.5918784,27.8061219 37.3713181,27.3502635 C38.1507577,26.8944133 38.4178133,25.8848044 37.9678041,25.0952381 C37.5177941,24.3056717 36.5211281,24.0351562 35.7416884,24.4910063 L35.7416884,24.4910063 Z" id="path4125" fill="#FF6600"></path>
            <path d="M37.4883206,6.12699175 C36.1382906,8.49567429 36.9394581,11.5245092 39.2777778,12.8920679 C41.6160975,14.2596267 44.6060947,13.4480552 45.9561239,11.0793727 C47.3061539,8.7106819 46.5049864,5.68185524 44.1666667,4.31429651 C41.828347,2.94672952 38.8383498,3.75830095 37.4883206,6.12699175 L37.4883206,6.12699175 Z" id="path4167" fill="#FFD700"></path>
            <path d="M34.0107317,15.53016 C33.1107125,17.1092844 33.6448244,19.1285022 35.2037037,20.0402108 C36.762583,20.9519194 38.755915,20.4108717 39.655935,18.8317473 C40.5559541,17.2526229 40.0218422,15.2334051 38.462963,14.3216965 C36.9040837,13.4099879 34.9107517,13.9510356 34.0107317,15.53016 L34.0107317,15.53016 Z" id="path4165" fill="#FFD700"></path>
            <path d="M32.1627733,22.0740794 C31.7127641,22.8636375 31.9798196,23.8732463 32.7592593,24.3291048 C33.5386989,24.7849549 34.5353649,24.5144311 34.9853749,23.724873 C35.4353841,22.9353067 35.1683285,21.9256978 34.3888889,21.4698476 C33.6094493,21.0139892 32.6127833,21.284513 32.1627733,22.0740794 L32.1627733,22.0740794 Z" id="path4127" fill="#FFD700"></path>
            <path d="M24.6111119,5.28571429 C24.6111119,8.02084 26.7999408,10.2380952 29.5,10.2380952 C32.2000592,10.2380952 34.3888889,8.02084 34.3888889,5.28571429 C34.3888889,2.55058857 32.2000592,0.333333333 29.5,0.333333333 C26.7999408,0.333333333 24.6111119,2.55058857 24.6111119,5.28571429 L24.6111119,5.28571429 Z" id="path4173" fill="#25CC00"></path>
            <path d="M26.2407407,15.1904762 C26.2407407,17.0138933 27.6999616,18.4920635 29.5,18.4920635 C31.3000392,18.4920635 32.7592601,17.0138933 32.7592601,15.1904762 C32.7592601,13.367059 31.3000384,11.8888889 29.5,11.8888889 C27.6999616,11.8888889 26.2407407,13.367059 26.2407407,15.1904762 L26.2407407,15.1904762 Z" id="path4171" fill="#25CC00"></path>
            <path d="M27.8703704,21.7936508 C27.8703704,22.7053594 28.5999808,23.4444444 29.5,23.4444444 C30.4000192,23.4444444 31.1296296,22.7053594 31.1296296,21.7936508 C31.1296296,20.8819422 30.4000192,20.1428571 29.5,20.1428571 C28.5999808,20.1428571 27.8703704,20.8819422 27.8703704,21.7936508 L27.8703704,21.7936508 Z" id="path4129" fill="#25CC00"></path>
            <path d="M13.043877,11.0793727 C14.3939053,13.4480552 17.3839025,14.2596349 19.7222222,12.8920679 C22.0605419,11.5245092 22.8617094,8.49567429 21.5116794,6.12699175 C20.1616502,3.75830095 17.171653,2.94672952 14.8333333,4.31429651 C12.4950136,5.68185524 11.6938461,8.7106819 13.043877,11.0793727 L13.043877,11.0793727 Z" id="path4179" fill="#009999"></path>
            <path d="M19.344065,18.8317473 C20.244085,20.4108717 22.237417,20.9519194 23.7962963,20.0402108 C25.3551764,19.1285022 25.8892875,17.1092844 24.9892691,15.53016 C24.0892483,13.9510356 22.0959163,13.4099879 20.537037,14.3216965 C18.9781578,15.2334051 18.4440459,17.2526229 19.344065,18.8317473 L19.344065,18.8317473 Z" id="path4177" fill="#009999"></path>
            <path d="M24.0146251,23.724873 C24.4646359,24.5144311 25.4613011,24.7849549 26.2407407,24.3291048 C27.0201804,23.8732463 27.2872359,22.8636375 26.8372267,22.0740794 C26.3872167,21.284513 25.3905507,21.0139892 24.6111111,21.4698476 C23.8316715,21.9256978 23.5646159,22.9353067 24.0146251,23.724873 L24.0146251,23.724873 Z" id="path4131" fill="#009999"></path>
            <path d="M5.88604659,21.9555524 C8.22436548,23.3231194 11.2143627,22.5115479 12.5643927,20.1428571 C13.9144219,17.7741663 13.1132544,14.7453397 10.7749347,13.377781 C8.43661496,12.010214 5.44661778,12.8217854 4.09658859,15.1904762 C2.74655859,17.559167 3.54772607,20.5879937 5.88604659,21.9555524 L5.88604659,21.9555524 Z" id="path4185" fill="#0033CC"></path>
            <path d="M15.1686639,25.4783048 C16.7275439,26.3900133 18.7208759,25.8489657 19.6208959,24.2698413 C20.5209151,22.6907168 19.9868032,20.671499 18.4279247,19.7597905 C16.8690439,18.8480819 14.8757119,19.3891295 13.9756927,20.968254 C13.0756735,22.5473784 13.6097846,24.5665962 15.1686639,25.4783048 L15.1686639,25.4783048 Z" id="path4183" fill="#0033CC"></path>
            <path d="M21.6286819,27.3502635 C22.4081224,27.8061219 23.4047876,27.5355981 23.8547976,26.7460317 C24.3048076,25.9564737 24.0377512,24.9468565 23.2583116,24.4910063 C22.4788719,24.0351562 21.4822059,24.3056717 21.0321959,25.0952381 C20.5821867,25.8848044 20.8492423,26.8944133 21.6286819,27.3502635 L21.6286819,27.3502635 Z" id="path4133" fill="#0033CC"></path>
            <path d="M5.05555637,35 C7.75561474,35 9.94444526,32.7827448 9.94444526,30.047619 C9.94444526,27.3124933 7.75561474,25.0952381 5.05555556,25.0952381 C2.35549637,25.0952381 0.166667481,27.3124933 0.166667481,30.047619 C0.166667481,32.7827448 2.35549637,35 5.05555637,35 L5.05555637,35 Z" id="path4191" fill="#660099"></path>
            <path d="M14.8333333,33.3492063 C16.6333725,33.3492063 18.0925934,31.8710362 18.0925934,30.047619 C18.0925934,28.2242019 16.6333725,26.7460317 14.8333333,26.7460317 C13.0332941,26.7460317 11.5740741,28.2242019 11.5740741,30.047619 C11.5740741,31.8710362 13.0332941,33.3492063 14.8333333,33.3492063 L14.8333333,33.3492063 Z" id="path4189" fill="#660099"></path>
            <path d="M21.3518519,31.6984127 C22.2518719,31.6984127 22.9814815,30.9593276 22.9814815,30.047619 C22.9814815,29.1359105 22.251871,28.3968254 21.3518519,28.3968254 C20.4518327,28.3968254 19.7222222,29.1359105 19.7222222,30.047619 C19.7222222,30.9593276 20.4518327,31.6984127 21.3518519,31.6984127 L21.3518519,31.6984127 Z" id="path4135" fill="#660099"></path>
        </g>
    </g>
</svg>