<?xml version="1.0" encoding="UTF-8"?>
<svg width="128px" height="128px" viewBox="0 0 128 128" version="1.1" xmlns="http://www.w3.org/2000/svg" xmlns:xlink="http://www.w3.org/1999/xlink">
    <title>mimetypes/128/application-x-yarock</title>
    <defs>
        <linearGradient x1="50%" y1="1.38716264%" x2="50%" y2="100%" id="linearGradient-1">
            <stop stop-color="#FF6464" offset="0%"></stop>
            <stop stop-color="#E02260" offset="100%"></stop>
        </linearGradient>
        <path d="M92,105 C92,109.970563 87.9705627,114 83,114 L9,114 C4.02943725,114 6.08718376e-16,109.970563 0,105 L0,9 C-6.08718376e-16,4.02943725 4.02943725,9.13077564e-16 9,0 L63.5,0 L92,28.5 L92,105 Z" id="path-2"></path>
        <filter x="-12.5%" y="-8.3%" width="125.0%" height="120.2%" filterUnits="objectBoundingBox" id="filter-3">
            <feOffset dx="0" dy="2" in="SourceAlpha" result="shadowOffsetOuter1"></feOffset>
            <feGaussianBlur stdDeviation="3.5" in="shadowOffsetOuter1" result="shadowBlurOuter1"></feGaussianBlur>
            <feColorMatrix values="0 0 0 0 0.6622226   0 0 0 0 0   0 0 0 0 0  0 0 0 0.5 0" type="matrix" in="shadowBlurOuter1"></feColorMatrix>
        </filter>
        <linearGradient x1="50%" y1="50%" x2="7.99354867%" y2="88.8926673%" id="linearGradient-4">
            <stop stop-color="#FFFFFF" stop-opacity="0.1" offset="0%"></stop>
            <stop stop-color="#FFFFFF" stop-opacity="0.3" offset="100%"></stop>
        </linearGradient>
        <path d="M63.5,0 L92,28.5 L72.5,28.5 C67.5294373,28.5 63.5,24.4705627 63.5,19.5 L63.5,0 L63.5,0 Z" id="path-5"></path>
        <filter x="-12.3%" y="-8.8%" width="124.6%" height="124.6%" filterUnits="objectBoundingBox" id="filter-6">
            <feOffset dx="0" dy="1" in="SourceAlpha" result="shadowOffsetOuter1"></feOffset>
            <feGaussianBlur stdDeviation="1" in="shadowOffsetOuter1" result="shadowBlurOuter1"></feGaussianBlur>
            <feComposite in="shadowBlurOuter1" in2="SourceAlpha" operator="out" result="shadowBlurOuter1"></feComposite>
            <feColorMatrix values="0 0 0 0 0   0 0 0 0 0   0 0 0 0 0  0 0 0 0.05 0" type="matrix" in="shadowBlurOuter1"></feColorMatrix>
        </filter>
    </defs>
    <g id="mimetypes/128/application-x-yarock" stroke="none" stroke-width="1" fill="none" fill-rule="evenodd">
        <g id="编组-2" transform="translate(18, 7)">
            <g id="蒙版">
                <use fill="black" fill-opacity="1" filter="url(#filter-3)" xlink:href="#path-2"></use>
                <use fill="url(#linearGradient-1)" fill-rule="evenodd" xlink:href="#path-2"></use>
            </g>
            <g id="折角">
                <use fill="black" fill-opacity="1" filter="url(#filter-6)" xlink:href="#path-5"></use>
                <use fill="url(#linearGradient-4)" fill-rule="evenodd" xlink:href="#path-5"></use>
            </g>
        </g>
        <path d="M64,39.9999991 C77.254834,39.9999991 88,50.7451651 88,63.9999991 C88,77.2548331 77.254834,87.9999991 64,87.9999991 C50.745166,87.9999991 40,77.2548331 40,63.9999991 C40,50.7451651 50.745166,39.9999991 64,39.9999991 Z M58.6378548,52.000799 C57.9447249,51.9828926 57.2740277,52.2666123 56.7775567,52.7878043 C56.2810858,53.3089963 56.0007723,54.0236413 56,54.7701459 L56,63.997084 L56.0015652,73.2240239 C56.0006546,74.2152091 56.4912315,75.1315609 57.2883684,75.6276519 C58.0855053,76.1237429 59.0679947,76.1241408 59.8654781,75.6286955 L67.2880774,71.0125191 L74.7106767,66.399951 C75.5081653,65.9049334 75.999677,64.9894496 76,63.9984728 C76.0003227,63.007496 75.5094078,62.0916413 74.7122419,61.5960217 L67.2880165,56.9852609 L59.8654172,52.3708882 C59.6415618,52.2322322 59.3996104,52.1306005 59.147678,52.069402 C58.9802851,52.0283035 58.8094949,52.0053215 58.6378548,52.000799 Z" id="形状结合" fill="#FFFFFF"></path>
    </g>
</svg>