<?xml version="1.0" encoding="UTF-8"?>
<svg width="128px" height="128px" viewBox="0 0 128 128" version="1.1" xmlns="http://www.w3.org/2000/svg" xmlns:xlink="http://www.w3.org/1999/xlink">
    <title>mimetypes/128/application-x-sharedlib</title>
    <defs>
        <linearGradient x1="50%" y1="0%" x2="50%" y2="100%" id="linearGradient-1">
            <stop stop-color="#52C3CB" offset="0%"></stop>
            <stop stop-color="#1BB8C6" offset="100%"></stop>
        </linearGradient>
        <path d="M92,105 C92,109.970563 87.9705627,114 83,114 L9,114 C4.02943725,114 6.08718376e-16,109.970563 0,105 L0,9 C-6.08718376e-16,4.02943725 4.02943725,9.13077564e-16 9,0 L63.5,0 L92,28.5 L92,105 Z" id="path-2"></path>
        <filter x="-12.5%" y="-8.3%" width="125.0%" height="120.2%" filterUnits="objectBoundingBox" id="filter-3">
            <feOffset dx="0" dy="2" in="SourceAlpha" result="shadowOffsetOuter1"></feOffset>
            <feGaussianBlur stdDeviation="3.5" in="shadowOffsetOuter1" result="shadowBlurOuter1"></feGaussianBlur>
            <feColorMatrix values="0 0 0 0 0.262745098   0 0 0 0 0.643801848   0 0 0 0 0.71372549  0 0 0 0.5 0" type="matrix" in="shadowBlurOuter1"></feColorMatrix>
        </filter>
        <linearGradient x1="50%" y1="50%" x2="7.99354867%" y2="88.8926673%" id="linearGradient-4">
            <stop stop-color="#FFFFFF" stop-opacity="0.1" offset="0%"></stop>
            <stop stop-color="#FFFFFF" stop-opacity="0.3" offset="100%"></stop>
        </linearGradient>
        <path d="M63.5,0 L92,28.5 L72.5,28.5 C67.5294373,28.5 63.5,24.4705627 63.5,19.5 L63.5,0 L63.5,0 Z" id="path-5"></path>
        <filter x="-12.3%" y="-8.8%" width="124.6%" height="124.6%" filterUnits="objectBoundingBox" id="filter-6">
            <feOffset dx="0" dy="1" in="SourceAlpha" result="shadowOffsetOuter1"></feOffset>
            <feGaussianBlur stdDeviation="1" in="shadowOffsetOuter1" result="shadowBlurOuter1"></feGaussianBlur>
            <feComposite in="shadowBlurOuter1" in2="SourceAlpha" operator="out" result="shadowBlurOuter1"></feComposite>
            <feColorMatrix values="0 0 0 0 0   0 0 0 0 0   0 0 0 0 0  0 0 0 0.05 0" type="matrix" in="shadowBlurOuter1"></feColorMatrix>
        </filter>
    </defs>
    <g id="mimetypes/128/application-x-sharedlib" stroke="none" stroke-width="1" fill="none" fill-rule="evenodd">
        <g id="编组-2" transform="translate(18, 7)">
            <g id="蒙版">
                <use fill="black" fill-opacity="1" filter="url(#filter-3)" xlink:href="#path-2"></use>
                <use fill="url(#linearGradient-1)" fill-rule="evenodd" xlink:href="#path-2"></use>
            </g>
            <g id="折角">
                <use fill="black" fill-opacity="1" filter="url(#filter-6)" xlink:href="#path-5"></use>
                <use fill="url(#linearGradient-4)" fill-rule="evenodd" xlink:href="#path-5"></use>
            </g>
        </g>
        <path d="M68,55.9733333 L68,51.976 C68,50.8693333 66.208,49.9706667 64,49.9706667 C61.792,49.9706667 60,50.8693333 60,51.976 L60,55.9813333 C60.0026667,56.9706667 61.7973333,57.9733333 64,57.9733333 C66.208,57.9733333 68,56.9626667 68,55.9733333 Z M68,66.6106667 L68,62.616 C68,61.5093333 66.208,60.6106667 64,60.6106667 C61.792,60.6106667 60,61.5093333 60,62.616 L60,66.6213333 C60.0026667,67.6106667 61.7973333,68.6106667 64,68.6106667 C66.208,68.6106667 68,67.6 68,66.6106667 Z M79,61.32 L79,57.3253333 C79,56.2186667 77.208,55.32 75,55.32 C72.792,55.32 71,56.2186667 71,57.3253333 L71,61.3306667 C71,62.3173333 72.7946667,63.32 75,63.32 C77.208,63.32 79,62.3093333 79,61.32 Z M81.36,61.32 C81.36,63.9786667 78.4933333,65.984 74.6933333,65.984 C73.1813333,65.984 71.8293333,65.656 70.736,65.1093333 L70.736,66.6133333 C70.736,69.272 67.8693333,71.2773333 64.0693333,71.2773333 C60.2693333,71.2773333 57.4026667,69.2746667 57.4026667,66.6213333 L57.4026667,65.0186667 C56.2933333,65.5946667 54.912,65.944 53.36,65.944 C49.56,65.944 46.6933333,63.9413333 46.6933333,61.288 L46.6933333,58.304 L44,59.1973333 L44,81.4426667 L64.0213333,92.5786667 L84.0426667,81.4586667 L84.0426667,59.16 L81.36,58.2693333 L81.36,61.32 Z M57,61.2773333 L57,57.2826667 C57,56.176 55.208,55.2773333 53,55.2773333 C50.792,55.2773333 49,56.176 49,57.2826667 L49,61.288 C49,62.2773333 50.7946667,63.2773333 53,63.2773333 C55.208,63.2773333 57,62.2666667 57,61.2773333 Z" id="Combined-Shape" fill="#FFFFFF"></path>
    </g>
</svg>