<?xml version="1.0" encoding="UTF-8"?>
<svg width="128px" height="128px" viewBox="0 0 128 128" version="1.1" xmlns="http://www.w3.org/2000/svg" xmlns:xlink="http://www.w3.org/1999/xlink">
    <title>mimetypes/128/application-x-kdenlive</title>
    <defs>
        <linearGradient x1="50%" y1="0%" x2="50%" y2="99.7939317%" id="linearGradient-1">
            <stop stop-color="#9BA6C1" offset="0%"></stop>
            <stop stop-color="#778EB2" offset="100%"></stop>
        </linearGradient>
        <path d="M92,105 C92,109.970563 87.9705627,114 83,114 L9,114 C4.02943725,114 6.08718376e-16,109.970563 0,105 L0,9 C-6.08718376e-16,4.02943725 4.02943725,9.13077564e-16 9,0 L63.5,0 L92,28.5 L92,105 Z" id="path-2"></path>
        <filter x="-12.5%" y="-8.3%" width="125.0%" height="120.2%" filterUnits="objectBoundingBox" id="filter-3">
            <feOffset dx="0" dy="2" in="SourceAlpha" result="shadowOffsetOuter1"></feOffset>
            <feGaussianBlur stdDeviation="3.5" in="shadowOffsetOuter1" result="shadowBlurOuter1"></feGaussianBlur>
            <feColorMatrix values="0 0 0 0 0.474509804   0 0 0 0 0.558835447   0 0 0 0 0.701960784  0 0 0 0.5 0" type="matrix" in="shadowBlurOuter1"></feColorMatrix>
        </filter>
        <linearGradient x1="50%" y1="50%" x2="7.99354867%" y2="88.8926673%" id="linearGradient-4">
            <stop stop-color="#FFFFFF" stop-opacity="0.1" offset="0%"></stop>
            <stop stop-color="#FFFFFF" stop-opacity="0.3" offset="100%"></stop>
        </linearGradient>
        <path d="M63.5,0 L92,28.5 L72.5,28.5 C67.5294373,28.5 63.5,24.4705627 63.5,19.5 L63.5,0 L63.5,0 Z" id="path-5"></path>
        <filter x="-12.3%" y="-8.8%" width="124.6%" height="124.6%" filterUnits="objectBoundingBox" id="filter-6">
            <feOffset dx="0" dy="1" in="SourceAlpha" result="shadowOffsetOuter1"></feOffset>
            <feGaussianBlur stdDeviation="1" in="shadowOffsetOuter1" result="shadowBlurOuter1"></feGaussianBlur>
            <feComposite in="shadowBlurOuter1" in2="SourceAlpha" operator="out" result="shadowBlurOuter1"></feComposite>
            <feColorMatrix values="0 0 0 0 0   0 0 0 0 0   0 0 0 0 0  0 0 0 0.05 0" type="matrix" in="shadowBlurOuter1"></feColorMatrix>
        </filter>
    </defs>
    <g id="mimetypes/128/application-x-kdenlive" stroke="none" stroke-width="1" fill="none" fill-rule="evenodd">
        <g id="编组-2" transform="translate(18, 7)">
            <g id="蒙版">
                <use fill="black" fill-opacity="1" filter="url(#filter-3)" xlink:href="#path-2"></use>
                <use fill="url(#linearGradient-1)" fill-rule="evenodd" xlink:href="#path-2"></use>
            </g>
            <g id="折角">
                <use fill="black" fill-opacity="1" filter="url(#filter-6)" xlink:href="#path-5"></use>
                <use fill="url(#linearGradient-4)" fill-rule="evenodd" xlink:href="#path-5"></use>
            </g>
        </g>
        <path d="M58.89,48 L62.004,52.984 L62.039,82 L45.9,82 C44.8975238,82 44.0811701,81.2358786 44.0056953,80.2591464 L44,80.111111 L44,49.888889 C44,48.8424444 44.8474,48 45.9,48 L58.89,48 Z M70,46 L68.164,48.934 L66,52.398 L66,82 L64.03906,82 L64.004,52.408 L61.833,48.934 L60,46 L70,46 Z M82.1,48 C83.1526,48 84,48.8424444 84,49.888889 L84,80.111111 C84,81.1575562 83.1526,82 82.1,82 L67.999,82 L68,52.968 L71.106,48 L82.1,48 Z M59,74 L52,74 L52,76 L59,76 L59,74 Z M71.0371947,58.0012344 C70.545844,58.0277077 70.017124,58.4594438 70.01836,58.9378372 L70,73.0623352 C70,73.7002433 70.9388787,74.2553208 71.475972,73.8763594 L81.5950124,66.789965 C82.1356124,66.4156876 82.134379,65.5377168 81.5950124,65.1617794 L71.4947414,58.1238077 C71.3599214,58.029901 71.2009387,57.9924877 71.0371947,58.0012344 Z M59,70 L48,70 L48,72 L59,72 L59,70 Z M59,66 L46,66 L46,68 L59,68 L59,66 Z M59,62 L48,62 L48,64 L59,64 L59,62 Z M59,58 L52,58 L52,60 L59,60 L59,58 Z M59,54 L56,54 L56,56 L59,56 L59,54 Z" id="形状结合" fill="#FFFFFF"></path>
    </g>
</svg>