<?xml version="1.0" encoding="UTF-8"?>
<svg width="128px" height="128px" viewBox="0 0 128 128" version="1.1" xmlns="http://www.w3.org/2000/svg" xmlns:xlink="http://www.w3.org/1999/xlink">
    <title>mimetypes/128/application-vnd.flatpak</title>
    <defs>
        <linearGradient x1="50%" y1="0%" x2="50%" y2="99.7939317%" id="linearGradient-1">
            <stop stop-color="#9BA6C1" offset="0%"></stop>
            <stop stop-color="#778EB2" offset="100%"></stop>
        </linearGradient>
        <path d="M92,105 C92,109.970563 87.9705627,114 83,114 L9,114 C4.02943725,114 6.08718376e-16,109.970563 0,105 L0,9 C-6.08718376e-16,4.02943725 4.02943725,9.13077564e-16 9,0 L63.5,0 L92,28.5 L92,105 Z" id="path-2"></path>
        <filter x="-12.5%" y="-8.3%" width="125.0%" height="120.2%" filterUnits="objectBoundingBox" id="filter-3">
            <feOffset dx="0" dy="2" in="SourceAlpha" result="shadowOffsetOuter1"></feOffset>
            <feGaussianBlur stdDeviation="3.5" in="shadowOffsetOuter1" result="shadowBlurOuter1"></feGaussianBlur>
            <feColorMatrix values="0 0 0 0 0.474509804   0 0 0 0 0.558835447   0 0 0 0 0.701960784  0 0 0 0.5 0" type="matrix" in="shadowBlurOuter1"></feColorMatrix>
        </filter>
        <linearGradient x1="50%" y1="50%" x2="7.99354867%" y2="88.8926673%" id="linearGradient-4">
            <stop stop-color="#FFFFFF" stop-opacity="0.1" offset="0%"></stop>
            <stop stop-color="#FFFFFF" stop-opacity="0.3" offset="100%"></stop>
        </linearGradient>
        <path d="M63.5,0 L92,28.5 L72.5,28.5 C67.5294373,28.5 63.5,24.4705627 63.5,19.5 L63.5,0 L63.5,0 Z" id="path-5"></path>
        <filter x="-12.3%" y="-8.8%" width="124.6%" height="124.6%" filterUnits="objectBoundingBox" id="filter-6">
            <feOffset dx="0" dy="1" in="SourceAlpha" result="shadowOffsetOuter1"></feOffset>
            <feGaussianBlur stdDeviation="1" in="shadowOffsetOuter1" result="shadowBlurOuter1"></feGaussianBlur>
            <feComposite in="shadowBlurOuter1" in2="SourceAlpha" operator="out" result="shadowBlurOuter1"></feComposite>
            <feColorMatrix values="0 0 0 0 0   0 0 0 0 0   0 0 0 0 0  0 0 0 0.05 0" type="matrix" in="shadowBlurOuter1"></feColorMatrix>
        </filter>
    </defs>
    <g id="mimetypes/128/application-vnd.flatpak" stroke="none" stroke-width="1" fill="none" fill-rule="evenodd">
        <g id="编组-2" transform="translate(18, 7)">
            <g id="蒙版">
                <use fill="black" fill-opacity="1" filter="url(#filter-3)" xlink:href="#path-2"></use>
                <use fill="url(#linearGradient-1)" fill-rule="evenodd" xlink:href="#path-2"></use>
            </g>
            <g id="折角">
                <use fill="black" fill-opacity="1" filter="url(#filter-6)" xlink:href="#path-5"></use>
                <use fill="url(#linearGradient-4)" fill-rule="evenodd" xlink:href="#path-5"></use>
            </g>
        </g>
        <path d="M43.9801701,55.4007843 C44.1078525,53.285972 45.2302568,51.3713467 46.9833321,50.2984363 L61.9368248,41.1671247 C62.9071403,40.576159 64.0161849,40.2772332 65.1413956,40.3036583 L65.4498839,40.3193887 C66.3695006,40.3908414 67.262447,40.6805595 68.0608679,41.1677329 L83.014726,50.2992684 C84.7809135,51.3816565 85.9053117,53.3192034 86.0169777,55.4526342 L86.0163524,55.5170464 L86.0183447,74.6784755 C86.0183447,76.8369922 84.9568441,78.843236 83.2089005,80.0003574 L82.9958763,80.1350916 L68.0547782,89.1583729 C66.2410667,90.2538257 64.0172334,90.2976438 62.1707458,89.2898476 L61.9419572,89.1583959 L47.0009413,80.1351662 C45.1991907,79.0474013 44.0683619,77.0833735 43.9834922,74.9389137 L43.9783524,74.680757 L43.9783524,55.5176297 L43.9793524,55.5170464 Z M45.9777904,59.8969127 L45.9783524,74.6804822 C45.9787572,76.1533981 46.6897701,77.5144899 47.8481609,78.3033431 L48.0347441,78.4230763 L62.9759214,87.4464035 C64.159723,88.1614007 65.5973305,88.2011228 66.8093647,87.5655504 L67.0208139,87.4463806 L81.9620718,78.4230028 C83.1671043,77.6954893 83.9383613,76.3709159 84.0124744,74.9101821 L84.0183447,74.6784755 L84.0177414,59.8987165 C83.7121269,60.1872582 83.3762586,60.4454225 83.0133657,60.6675189 L68.0609059,69.7981988 C66.168363,70.953991 63.8283324,70.953991 61.9358275,69.798222 L46.981972,60.6666868 C46.6190779,60.4442914 46.2832782,60.1857937 45.9777904,59.8969127 Z M65.093,42.303 L64.8477921,42.3052265 C64.1915828,42.3319319 63.5498281,42.5264725 62.9781513,42.8746486 L48.0265061,52.0048322 C46.8386285,52.7318328 46.0653065,54.050985 45.9765348,55.5213154 L45.9803524,55.4700464 L45.9963354,55.6545826 C46.1248912,56.8759507 46.7269897,57.976853 47.6429231,58.6945739 L47.830247,58.8329311 L48.0256558,58.9606031 L62.9781893,68.0913295 C64.2307527,68.8562808 65.7659427,68.8562808 67.0185442,68.0913062 L81.9701916,58.961123 C83.1580693,58.234122 83.9313911,56.9149693 84.0201623,55.4446384 L84.015,55.504 L84.0003617,55.3113712 C83.8632353,54.0085792 83.187323,52.8428503 82.1664508,52.133024 L81.9710421,52.0053521 L67.0188404,42.8748295 C66.4303982,42.5157791 65.7686983,42.3196539 65.093,42.303 Z" id="形状结合" fill="#FFFFFF"></path>
    </g>
</svg>