<?xml version="1.0" encoding="UTF-8"?>
<svg width="128px" height="128px" viewBox="0 0 128 128" version="1.1" xmlns="http://www.w3.org/2000/svg" xmlns:xlink="http://www.w3.org/1999/xlink">
    <title>mimetypes/128/audio-x-wav</title>
    <defs>
        <linearGradient x1="50%" y1="0%" x2="50%" y2="100%" id="linearGradient-1">
            <stop stop-color="#B7EE43" offset="0%"></stop>
            <stop stop-color="#6AD500" offset="100%"></stop>
        </linearGradient>
        <path d="M92,105 C92,109.970563 87.9705627,114 83,114 L9,114 C4.02943725,114 6.08718376e-16,109.970563 0,105 L0,9 C-6.08718376e-16,4.02943725 4.02943725,9.13077564e-16 9,0 L63.5,0 L92,28.5 L92,105 Z" id="path-2"></path>
        <filter x="-12.5%" y="-8.3%" width="125.0%" height="120.2%" filterUnits="objectBoundingBox" id="filter-3">
            <feOffset dx="0" dy="2" in="SourceAlpha" result="shadowOffsetOuter1"></feOffset>
            <feGaussianBlur stdDeviation="3.5" in="shadowOffsetOuter1" result="shadowBlurOuter1"></feGaussianBlur>
            <feColorMatrix values="0 0 0 0 0.505882353   0 0 0 0 0.741176471   0 0 0 0 0  0 0 0 0.5 0" type="matrix" in="shadowBlurOuter1"></feColorMatrix>
        </filter>
        <linearGradient x1="50%" y1="50%" x2="7.99354867%" y2="88.8926673%" id="linearGradient-4">
            <stop stop-color="#FFFFFF" stop-opacity="0.1" offset="0%"></stop>
            <stop stop-color="#FFFFFF" stop-opacity="0.3" offset="100%"></stop>
        </linearGradient>
        <path d="M63.5,0 L92,28.5 L72.5,28.5 C67.5294373,28.5 63.5,24.4705627 63.5,19.5 L63.5,0 L63.5,0 Z" id="path-5"></path>
        <filter x="-12.3%" y="-8.8%" width="124.6%" height="124.6%" filterUnits="objectBoundingBox" id="filter-6">
            <feOffset dx="0" dy="1" in="SourceAlpha" result="shadowOffsetOuter1"></feOffset>
            <feGaussianBlur stdDeviation="1" in="shadowOffsetOuter1" result="shadowBlurOuter1"></feGaussianBlur>
            <feComposite in="shadowBlurOuter1" in2="SourceAlpha" operator="out" result="shadowBlurOuter1"></feComposite>
            <feColorMatrix values="0 0 0 0 0   0 0 0 0 0   0 0 0 0 0  0 0 0 0.05 0" type="matrix" in="shadowBlurOuter1"></feColorMatrix>
        </filter>
    </defs>
    <g id="mimetypes/128/audio-x-wav" stroke="none" stroke-width="1" fill="none" fill-rule="evenodd">
        <g id="编组-2" transform="translate(18, 7)">
            <g id="蒙版">
                <use fill="black" fill-opacity="1" filter="url(#filter-3)" xlink:href="#path-2"></use>
                <use fill="url(#linearGradient-1)" fill-rule="evenodd" xlink:href="#path-2"></use>
            </g>
            <g id="折角">
                <use fill="black" fill-opacity="1" filter="url(#filter-6)" xlink:href="#path-5"></use>
                <use fill="url(#linearGradient-4)" fill-rule="evenodd" xlink:href="#path-5"></use>
            </g>
        </g>
        <path d="M62,108 L64.0999985,108 L64.8000031,106 L71.1999969,106 L71.9000015,108 L74,108 L69.0772736,94 L67,94 L62,108 Z M74.0999985,94 L78,105 L81.9000015,94 L84,94 L79.0772736,108 L77,108 L72,94 L74.0999985,94 Z M48.75,94 L52,103 L54,94 L56,94 L58,103 L61.5,94 L64,94 L58.7999992,108 L57.4000015,108 L55,100 L52.5999985,108 L51.2000008,108 L46,94 L48.75,94 Z M68,96.5999985 L70.5999985,104 L65.4000015,104 L68,96.5999985 Z M64,40 C77.2336,40 88,50.7664 88,64 C88,77.2336 77.2336,88 64,88 C50.7664,88 40,77.2336 40,64 C40,50.7664 50.7664,40 64,40 Z M64,42.4 C52.0912,42.4 42.4,52.0888 42.4,64 C42.4,75.9112 52.0912,85.6 64,85.6 C75.9088,85.6 85.6,75.9112 85.6,64 C85.6,52.0888 75.9088,42.4 64,42.4 Z M65.5032958,46.5340397 C66.2339625,46.5313799 66.9272958,47.2993799 66.9272958,48.2513799 L66.9272958,48.7393799 C66.9272958,49.4540466 67.5619625,51.1127132 71.0739625,53.3020466 C71.0739625,53.3020466 75.6606291,55.7793799 76.9619625,60.2540466 C76.9619625,60.2540466 78.3912958,64.2460466 76.0606291,69.2833799 C76.0606291,69.2833799 75.8392958,69.7473799 75.3539625,69.5527132 C75.0339625,69.4238244 75.0713699,69.063454 75.0927279,68.9469108 L75.1006291,68.9100466 C75.1006291,68.9100466 76.6712958,64.9847132 75.3646291,61.8033799 C75.3646291,61.8033799 74.1592958,57.4327132 66.7112958,55.4487132 L66.7110689,55.5521548 C66.711019,55.574784 66.710961,55.601006 66.7108951,55.6307014 L66.7100932,55.9885227 C66.7034966,58.9068247 66.6711342,72.6708547 66.6472958,72.7900466 C66.6179625,75.3287132 64.5086291,77.9953799 61.2686291,79.2567132 C57.3139625,80.7953799 53.1806291,79.6567132 52.0339625,76.7153799 C50.8872958,73.7713799 53.1139625,69.9793799 57.1272958,68.5953799 C59.8526291,67.6567132 62.2339625,67.7233799 64.0792958,68.6807132 L64.1272958,48.2620466 C64.1299625,47.3100466 64.7752958,46.5367132 65.5032958,46.5340397 Z" id="Combined-Shape" fill="#FFFFFF"></path>
    </g>
</svg>