<svg xmlns="http://www.w3.org/2000/svg" xmlns:xlink="http://www.w3.org/1999/xlink" width="128" height="128" viewBox="0 0 128 128">
  <defs>
    <linearGradient id="empty-c" x1="50%" x2="50%" y1="0%" y2="98.947%">
      <stop offset="0%" stop-color="#F7F7F7"/>
      <stop offset="100%" stop-color="#F6F6F6"/>
    </linearGradient>
    <path id="empty-b" d="M58,0 L84,26 L84,95 C84,99.9705627 79.9705627,104 75,104 L9,104 C4.02943725,104 6.08718376e-16,99.9705627 0,95 L0,9 C-6.08718376e-16,4.02943725 4.02943725,9.13077564e-16 9,0 L58,0 Z"/>
    <filter id="empty-a" width="128.6%" height="123.1%" x="-14.3%" y="-9.6%" filterUnits="objectBoundingBox">
      <feMorphology in="SourceAlpha" operator="dilate" radius=".5" result="shadowSpreadOuter1"/>
      <feOffset dy="2" in="shadowSpreadOuter1" result="shadowOffsetOuter1"/>
      <feGaussianBlur in="shadowOffsetOuter1" result="shadowBlurOuter1" stdDeviation="3.5"/>
      <feComposite in="shadowBlurOuter1" in2="SourceAlpha" operator="out" result="shadowBlurOuter1"/>
      <feColorMatrix in="shadowBlurOuter1" values="0 0 0 0 0   0 0 0 0 0   0 0 0 0 0  0 0 0 0.1 0"/>
    </filter>
    <linearGradient id="empty-f" x1="50%" x2="10.489%" y1="50%" y2="91.194%">
      <stop offset="0%" stop-color="#FFF" stop-opacity=".1"/>
      <stop offset="100%" stop-color="#FFF" stop-opacity=".3"/>
    </linearGradient>
    <path id="empty-e" d="M58,0 L84,26 L67,26 C62.0294373,26 58,21.9705627 58,17 L58,0 Z"/>
    <filter id="empty-d" width="142.3%" height="142.3%" x="-21.2%" y="-13.5%" filterUnits="objectBoundingBox">
      <feOffset dy="2" in="SourceAlpha" result="shadowOffsetOuter1"/>
      <feGaussianBlur in="shadowOffsetOuter1" result="shadowBlurOuter1" stdDeviation="1.5"/>
      <feComposite in="shadowBlurOuter1" in2="SourceAlpha" operator="out" result="shadowBlurOuter1"/>
      <feColorMatrix in="shadowBlurOuter1" values="0 0 0 0 0   0 0 0 0 0   0 0 0 0 0  0 0 0 0.05 0"/>
    </filter>
  </defs>
  <g fill="none" fill-rule="evenodd" transform="translate(22 14)">
    <use fill="#000" filter="url(#empty-a)" xlink:href="#empty-b"/>
    <path fill="url(#empty-c)" stroke="#000" stroke-opacity=".1" stroke-width=".5" d="M58.1767767,-0.176776695 L84.1767767,25.8232233 L84.25,26 L84.25,95 C84.25,100.108634 80.1086339,104.25 75,104.25 L9,104.25 C3.89136606,104.25 -0.25,100.108634 -0.25,95 L-0.25,9 C-0.25,3.89136606 3.89136606,-0.25 9,-0.25 L58,-0.25 L58.1767767,-0.176776695 Z"/>
    <use fill="#000" filter="url(#empty-d)" xlink:href="#empty-e"/>
    <use fill="url(#empty-f)" xlink:href="#empty-e"/>
  </g>
</svg>
