<svg xmlns="http://www.w3.org/2000/svg" xmlns:xlink="http://www.w3.org/1999/xlink" width="128" height="128" viewBox="0 0 128 128">
  <defs>
    <linearGradient id="image-tiff-c" x1="50%" x2="50%" y1="0%" y2="100%">
      <stop offset="0%" stop-color="#28DCB1"/>
      <stop offset="100%" stop-color="#00AF9D"/>
    </linearGradient>
    <path id="image-tiff-b" d="M58,0 L84,26 L84,95 C84,99.9705627 79.9705627,104 75,104 L9,104 C4.02943725,104 6.08718376e-16,99.9705627 0,95 L0,9 C-6.08718376e-16,4.02943725 4.02943725,9.13077564e-16 9,0 L58,0 Z"/>
    <filter id="image-tiff-a" width="127.4%" height="122.1%" x="-13.7%" y="-9.1%" filterUnits="objectBoundingBox">
      <feOffset dy="2" in="SourceAlpha" result="shadowOffsetOuter1"/>
      <feGaussianBlur in="shadowOffsetOuter1" result="shadowBlurOuter1" stdDeviation="3.5"/>
      <feColorMatrix in="shadowBlurOuter1" values="0 0 0 0 0.262745098   0 0 0 0 0.71372549   0 0 0 0 0.607843137  0 0 0 0.5 0"/>
    </filter>
    <linearGradient id="image-tiff-f" x1="50%" x2="10.489%" y1="50%" y2="91.194%">
      <stop offset="0%" stop-color="#FFF" stop-opacity=".1"/>
      <stop offset="100%" stop-color="#FFF" stop-opacity=".3"/>
    </linearGradient>
    <path id="image-tiff-e" d="M58,0 L84,26 L67,26 C62.0294373,26 58,21.9705627 58,17 L58,0 Z"/>
    <filter id="image-tiff-d" width="142.3%" height="142.3%" x="-21.2%" y="-13.5%" filterUnits="objectBoundingBox">
      <feOffset dy="2" in="SourceAlpha" result="shadowOffsetOuter1"/>
      <feGaussianBlur in="shadowOffsetOuter1" result="shadowBlurOuter1" stdDeviation="1.5"/>
      <feComposite in="shadowBlurOuter1" in2="SourceAlpha" operator="out" result="shadowBlurOuter1"/>
      <feColorMatrix in="shadowBlurOuter1" values="0 0 0 0 0   0 0 0 0 0   0 0 0 0 0  0 0 0 0.05 0"/>
    </filter>
  </defs>
  <g fill="none" fill-rule="evenodd">
    <g transform="translate(22 14)">
      <use fill="#000" filter="url(#image-tiff-a)" xlink:href="#image-tiff-b"/>
      <use fill="url(#image-tiff-c)" xlink:href="#image-tiff-b"/>
      <use fill="#000" filter="url(#image-tiff-d)" xlink:href="#image-tiff-e"/>
      <use fill="url(#image-tiff-f)" xlink:href="#image-tiff-e"/>
    </g>
    <path fill="#FFF" d="M50,90 L46,90 L46,88 L56,88 L56,90 L52,90 L52,102 L50,102 L50,90 Z M58,88 L60,88 L60,102 L58,102 L58,88 Z M64,102 L62,102 L62,88 L72,88 L72,90 L64,90 L64,94 L70,94 L70,96 L64,96 L64,102 Z M76,102 L74,102 L74,88 L84,88 L84,90 L76,90 L76,94 L82,94 L82,96 L76,96 L76,102 Z M41.9146667,82 L41.9146667,46 L85.9146667,46 L85.9146667,82 L41.9146667,82 Z M46,78.008 L59,52 L66,67 L70,59 L82,77.9862233 L46,78.008 Z M44,80 L84,80 L83.752,48 L43.752,48 L44,80 Z"/>
  </g>
</svg>
