<?xml version="1.0" encoding="UTF-8"?>
<svg width="128px" height="128px" viewBox="0 0 128 128" version="1.1" xmlns="http://www.w3.org/2000/svg" xmlns:xlink="http://www.w3.org/1999/xlink">
    <title>mimetypes/128/opera-unite-application</title>
    <defs>
        <linearGradient x1="50%" y1="0%" x2="50%" y2="100%" id="linearGradient-1">
            <stop stop-color="#F33C3C" offset="0%"></stop>
            <stop stop-color="#DC2121" offset="99.6278505%"></stop>
        </linearGradient>
        <path d="M92,105 C92,109.970563 87.9705627,114 83,114 L9,114 C4.02943725,114 6.08718376e-16,109.970563 0,105 L0,9 C-6.08718376e-16,4.02943725 4.02943725,9.13077564e-16 9,0 L63.5,0 L92,28.5 L92,105 Z" id="path-2"></path>
        <filter x="-12.5%" y="-8.3%" width="125.0%" height="120.2%" filterUnits="objectBoundingBox" id="filter-3">
            <feOffset dx="0" dy="2" in="SourceAlpha" result="shadowOffsetOuter1"></feOffset>
            <feGaussianBlur stdDeviation="3.5" in="shadowOffsetOuter1" result="shadowBlurOuter1"></feGaussianBlur>
            <feColorMatrix values="0 0 0 0 0.6622226   0 0 0 0 0   0 0 0 0 0  0 0 0 0.5 0" type="matrix" in="shadowBlurOuter1"></feColorMatrix>
        </filter>
        <linearGradient x1="50%" y1="50%" x2="7.99354867%" y2="88.8926673%" id="linearGradient-4">
            <stop stop-color="#FFFFFF" stop-opacity="0.1" offset="0%"></stop>
            <stop stop-color="#FFFFFF" stop-opacity="0.3" offset="100%"></stop>
        </linearGradient>
        <path d="M63.5,0 L92,28.5 L72.5,28.5 C67.5294373,28.5 63.5,24.4705627 63.5,19.5 L63.5,0 L63.5,0 Z" id="path-5"></path>
        <filter x="-12.3%" y="-8.8%" width="124.6%" height="124.6%" filterUnits="objectBoundingBox" id="filter-6">
            <feOffset dx="0" dy="1" in="SourceAlpha" result="shadowOffsetOuter1"></feOffset>
            <feGaussianBlur stdDeviation="1" in="shadowOffsetOuter1" result="shadowBlurOuter1"></feGaussianBlur>
            <feComposite in="shadowBlurOuter1" in2="SourceAlpha" operator="out" result="shadowBlurOuter1"></feComposite>
            <feColorMatrix values="0 0 0 0 0   0 0 0 0 0   0 0 0 0 0  0 0 0 0.05 0" type="matrix" in="shadowBlurOuter1"></feColorMatrix>
        </filter>
    </defs>
    <g id="mimetypes/128/opera-unite-application" stroke="none" stroke-width="1" fill="none" fill-rule="evenodd">
        <g id="编组-2" transform="translate(18, 7)">
            <g id="蒙版">
                <use fill="black" fill-opacity="1" filter="url(#filter-3)" xlink:href="#path-2"></use>
                <use fill="url(#linearGradient-1)" fill-rule="evenodd" xlink:href="#path-2"></use>
            </g>
            <g id="折角">
                <use fill="black" fill-opacity="1" filter="url(#filter-6)" xlink:href="#path-5"></use>
                <use fill="url(#linearGradient-4)" fill-rule="evenodd" xlink:href="#path-5"></use>
            </g>
        </g>
        <path d="M83.7597717,82.387848 C83.8218631,77.7717439 81.1759927,72.2865929 74.7620797,68.5197757 C67.3432169,64.1214509 61.7358048,67.9112466 61.7358048,67.9112466 C61.7358048,67.9112466 67.976503,66.5189298 70.4043123,70.9859228 C72.8316207,75.4539399 70.8476138,78.0788167 69.8870241,79.7775762 C66.6706784,85.4693139 69.7482027,88.7970111 72.3480651,90.3307621 C74.9479283,91.8645132 79.7177704,92.1883794 82.505738,87.2560852 C83.2897124,85.8685916 83.7354764,84.1941486 83.7597717,82.387848 L83.7597717,82.387848 Z M74.589651,54.7798153 C74.589651,51.7128255 72.4684528,47.3333333 66.8930184,47.3333333 C61.3170832,47.3333333 54.8665842,53.0240469 54.8856006,63.5394409 C54.8665864,72.3022678 60.8893321,75.373742 60.8893321,75.373742 C60.8893321,75.373742 56.5917589,70.5631542 59.1650359,66.1817404 C61.7383128,61.8003266 64.956665,62.2262979 66.8773434,62.2262979 C73.3105358,62.2262979 74.589651,57.846805 74.589651,54.7798153 L74.589651,54.7798153 Z M67.7238162,72.5072474 C67.7238162,72.5072474 65.7801895,78.7251392 60.7796041,78.6405856 C55.7780156,78.5544955 54.5446736,75.4866082 53.5845855,73.7883619 C50.3682397,68.096111 46.0111001,69.1484192 43.4112369,70.6816579 C40.8113744,72.2148966 38.1622283,76.2855119 40.9501959,81.2188295 C43.7366594,86.1511238 51.7965846,89.0076267 60.7012269,83.7330187 C68.139152,79.3695408 67.7238162,72.5072474 67.7238162,72.5072474 L67.7238162,72.5072474 Z" id="path3884" fill="#FFFFFF"></path>
    </g>
</svg>