<?xml version="1.0" encoding="UTF-8"?>
<svg width="128px" height="128px" viewBox="0 0 128 128" version="1.1" xmlns="http://www.w3.org/2000/svg" xmlns:xlink="http://www.w3.org/1999/xlink">
    <title>mimetypes/128/playlist</title>
    <defs>
        <linearGradient x1="50%" y1="0%" x2="50%" y2="100%" id="linearGradient-1">
            <stop stop-color="#00C9FF" offset="0%"></stop>
            <stop stop-color="#008AF9" offset="100%"></stop>
        </linearGradient>
        <path d="M92,105 C92,109.970563 87.9705627,114 83,114 L9,114 C4.02943725,114 6.08718376e-16,109.970563 0,105 L0,9 C-6.08718376e-16,4.02943725 4.02943725,9.13077564e-16 9,0 L63.5,0 L92,28.5 L92,105 Z" id="path-2"></path>
        <filter x="-12.5%" y="-8.3%" width="125.0%" height="120.2%" filterUnits="objectBoundingBox" id="filter-3">
            <feOffset dx="0" dy="2" in="SourceAlpha" result="shadowOffsetOuter1"></feOffset>
            <feGaussianBlur stdDeviation="3.5" in="shadowOffsetOuter1" result="shadowBlurOuter1"></feGaussianBlur>
            <feColorMatrix values="0 0 0 0 0.22745098   0 0 0 0 0.513210696   0 0 0 0 0.960784314  0 0 0 0.5 0" type="matrix" in="shadowBlurOuter1"></feColorMatrix>
        </filter>
        <linearGradient x1="50%" y1="50%" x2="7.99354867%" y2="88.8926673%" id="linearGradient-4">
            <stop stop-color="#FFFFFF" stop-opacity="0.1" offset="0%"></stop>
            <stop stop-color="#FFFFFF" stop-opacity="0.3" offset="100%"></stop>
        </linearGradient>
        <path d="M63.5,0 L92,28.5 L72.5,28.5 C67.5294373,28.5 63.5,24.4705627 63.5,19.5 L63.5,0 L63.5,0 Z" id="path-5"></path>
        <filter x="-12.3%" y="-8.8%" width="124.6%" height="124.6%" filterUnits="objectBoundingBox" id="filter-6">
            <feOffset dx="0" dy="1" in="SourceAlpha" result="shadowOffsetOuter1"></feOffset>
            <feGaussianBlur stdDeviation="1" in="shadowOffsetOuter1" result="shadowBlurOuter1"></feGaussianBlur>
            <feComposite in="shadowBlurOuter1" in2="SourceAlpha" operator="out" result="shadowBlurOuter1"></feComposite>
            <feColorMatrix values="0 0 0 0 0   0 0 0 0 0   0 0 0 0 0  0 0 0 0.05 0" type="matrix" in="shadowBlurOuter1"></feColorMatrix>
        </filter>
    </defs>
    <g id="mimetypes/128/playlist" stroke="none" stroke-width="1" fill="none" fill-rule="evenodd">
        <g id="编组-2" transform="translate(18, 7)">
            <g id="蒙版">
                <use fill="black" fill-opacity="1" filter="url(#filter-3)" xlink:href="#path-2"></use>
                <use fill="url(#linearGradient-1)" fill-rule="evenodd" xlink:href="#path-2"></use>
            </g>
            <g id="折角">
                <use fill="black" fill-opacity="1" filter="url(#filter-6)" xlink:href="#path-5"></use>
                <use fill="url(#linearGradient-4)" fill-rule="evenodd" xlink:href="#path-5"></use>
            </g>
        </g>
        <path d="M79.424,52.3140748 C80.1140741,52.311872 80.7708477,52.9967691 80.8416927,53.8748615 L80.848,54.0317239 L80.8494351,54.5797303 L80.8617126,54.7119593 C80.8712528,54.782097 80.8861608,54.8582202 80.9076321,54.9401088 L80.9596798,55.1115079 L81.0313547,55.2978896 C81.0450542,55.3301799 81.05966,55.3630783 81.0752165,55.3965764 L81.180317,55.6046975 C81.6296463,56.429585 82.6286993,57.5631298 84.716171,58.9060481 L85.020031,59.0964002 L85.2855657,59.2528011 L85.5640757,59.4286879 L85.7913239,59.5796385 L86.0473028,59.7572672 L86.3281306,59.9613372 L86.6299253,60.1916119 L86.9488049,60.4478545 L87.2808874,60.7298284 L87.6222909,61.0372968 C88.8289857,62.1577754 90.1356217,63.7423667 90.7932201,65.7454011 L90.9477119,66.2442231 L91.0254259,66.5424056 L91.0922121,66.8449684 L91.1374626,67.0823748 L91.1812274,67.3471657 L91.2217351,67.6383353 L91.2572141,67.9548777 L91.2858929,68.295787 L91.306,68.6600572 L91.3157639,69.0466824 C91.3311042,70.5703077 91.0794163,72.564503 90.1116602,74.7742892 L89.9773849,75.0714496 L89.945448,75.124057 C89.8651203,75.2428008 89.648,75.4828008 89.2746667,75.3330572 C89.0186667,75.2299461 88.9914074,74.9786868 89.001679,74.8226374 L89.0134321,74.7272547 L89.0213333,74.6903905 L89.1270161,74.3984609 L89.220229,74.1122343 L89.3291031,73.7430819 L89.4059108,73.4556087 L89.4829656,73.138327 C89.4956795,73.0831193 89.5082918,73.026787 89.5207466,72.9693889 L89.5931371,72.61268 L89.6590613,72.23321 C89.8650481,70.9335073 89.9185082,69.3014363 89.3718836,67.8068258 L89.2762965,67.5537901 L89.1937295,67.3280998 L89.0799212,67.0695515 L88.9579439,66.8266344 L88.8007726,66.5468158 L88.6747487,66.3420374 C88.652258,66.3067867 88.62901,66.2709944 88.6049833,66.2346889 L88.4513118,66.0109235 C88.396861,65.9344333 88.3391269,65.8561169 88.2779403,65.7762012 L88.0838544,65.5318831 C88.015594,65.4489956 87.943712,65.3647356 87.8680395,65.2793299 L87.6294811,65.0199028 L87.3671647,64.7549625 C86.1317632,63.5523684 84.5118946,62.2095513 81.3555362,61.3127893 L81,61.214955 L81,81.252117 C80.9706667,83.7907837 78.4293333,86.4423905 75.1893333,87.7037239 C71.2346667,89.2423905 67.1013333,88.1037239 65.9546667,85.1623905 C64.808,82.2183905 67.0346667,78.4263905 71.048,77.0423905 C73.6597778,76.142835 75.955625,76.1665803 77.7665556,77.0127044 L78,77.1277239 L78.048,54.0423905 C78.0506667,53.0903905 78.696,52.3170572 79.424,52.3140748 Z M72,70 L72,72 L44,72 L44,70 L72,70 Z M72,58 L72,60 L44,60 L44,58 L72,58 Z M72,46 L72,48 L44,48 L44,46 L72,46 Z" id="形状" fill="#FFFFFF"></path>
    </g>
</svg>