<svg xmlns="http://www.w3.org/2000/svg" xmlns:xlink="http://www.w3.org/1999/xlink" width="128" height="128" viewBox="0 0 128 128">
  <defs>
    <linearGradient id="text-x-c++-c" x1="50%" x2="50%" y1="0%" y2="98.501%">
      <stop offset="0%" stop-color="#7FCB10"/>
      <stop offset="100%" stop-color="#50A100"/>
    </linearGradient>
    <path id="text-x-c++-b" d="M58,0 L84,26 L84,95 C84,99.9705627 79.9705627,104 75,104 L9,104 C4.02943725,104 6.08718376e-16,99.9705627 0,95 L0,9 C-6.08718376e-16,4.02943725 4.02943725,9.13077564e-16 9,0 L58,0 Z"/>
    <filter id="text-x-c++-a" width="127.4%" height="122.1%" x="-13.7%" y="-9.1%" filterUnits="objectBoundingBox">
      <feOffset dy="2" in="SourceAlpha" result="shadowOffsetOuter1"/>
      <feGaussianBlur in="shadowOffsetOuter1" result="shadowBlurOuter1" stdDeviation="3.5"/>
      <feColorMatrix in="shadowBlurOuter1" values="0 0 0 0 0.46370117   0 0 0 0 0.679376132   0 0 0 0 0  0 0 0 0.5 0"/>
    </filter>
    <linearGradient id="text-x-c++-f" x1="50%" x2="10.489%" y1="50%" y2="91.194%">
      <stop offset="0%" stop-color="#FFF" stop-opacity=".1"/>
      <stop offset="100%" stop-color="#FFF" stop-opacity=".3"/>
    </linearGradient>
    <path id="text-x-c++-e" d="M58,0 L84,26 L67,26 C62.0294373,26 58,21.9705627 58,17 L58,0 Z"/>
    <filter id="text-x-c++-d" width="142.3%" height="142.3%" x="-21.2%" y="-13.5%" filterUnits="objectBoundingBox">
      <feOffset dy="2" in="SourceAlpha" result="shadowOffsetOuter1"/>
      <feGaussianBlur in="shadowOffsetOuter1" result="shadowBlurOuter1" stdDeviation="1.5"/>
      <feComposite in="shadowBlurOuter1" in2="SourceAlpha" operator="out" result="shadowBlurOuter1"/>
      <feColorMatrix in="shadowBlurOuter1" values="0 0 0 0 0   0 0 0 0 0   0 0 0 0 0  0 0 0 0.05 0"/>
    </filter>
  </defs>
  <g fill="none" fill-rule="evenodd">
    <g transform="translate(22 14)">
      <use fill="#000" filter="url(#text-x-c++-a)" xlink:href="#text-x-c++-b"/>
      <use fill="url(#text-x-c++-c)" xlink:href="#text-x-c++-b"/>
      <use fill="#000" filter="url(#text-x-c++-d)" xlink:href="#text-x-c++-e"/>
      <use fill="url(#text-x-c++-f)" xlink:href="#text-x-c++-e"/>
    </g>
    <path fill="#FFF" d="M62,70 L68,70 L68,64 L70,64 L70,70 L76,70 L76,72 L70,72 L70,78 L68,78 L68,72 L62,72 L62,70 Z M78,70 L84,70 L84,64 L86,64 L86,70 L92,70 L92,72 L86,72 L86,78 L84,78 L84,72 L78,72 L78,70 Z M48.3298097,56 C51.577167,56 54.1649049,56.7706422 56.1437632,58.3119266 C58.1733615,59.9045872 59.3911205,62.3192661 59.8477801,65.5559633 L55.8393235,65.5559633 C55.4841438,63.5009174 54.6723044,61.959633 53.4038055,60.9321101 C52.0845666,59.9045872 50.410148,59.4422018 48.3298097,59.4422018 C45.7928118,59.4422018 43.7632135,60.4183486 42.2917548,62.3706422 C40.8710359,64.2715596 40.1606765,66.840367 40.1606765,70.0770642 C40.1606765,73.3137615 40.820296,75.8825688 42.2410148,77.7321101 C43.6109937,79.5816514 45.640592,80.5577982 48.2790698,80.5577982 C52.744186,80.5577982 55.3319239,78.2458716 55.9408034,73.6733945 L60,73.6733945 C59.3911205,77.0642202 58.1226216,79.6844037 56.0930233,81.4311927 C54.1141649,83.1266055 51.5264271,84 48.2790698,84 C44.3213531,84 41.2769556,82.6642202 39.0951374,79.9926606 C37.0147992,77.4752294 36,74.187156 36,70.1284404 C36,66.0697248 37.0147992,62.7816514 39.0951374,60.212844 C41.3276956,57.387156 44.422833,56 48.3298097,56 Z"/>
  </g>
</svg>
