<?xml version="1.0" encoding="UTF-8"?>
<svg width="128px" height="128px" viewBox="0 0 128 128" version="1.1" xmlns="http://www.w3.org/2000/svg" xmlns:xlink="http://www.w3.org/1999/xlink">
    <title>mimetypes/128/text-x-copying</title>
    <defs>
        <linearGradient x1="50%" y1="0%" x2="50%" y2="99.2029139%" id="linearGradient-1">
            <stop stop-color="#619FFF" offset="0%"></stop>
            <stop stop-color="#0093E4" offset="100%"></stop>
        </linearGradient>
        <path d="M92,105 C92,109.970563 87.9705627,114 83,114 L9,114 C4.02943725,114 6.08718376e-16,109.970563 0,105 L0,9 C-6.08718376e-16,4.02943725 4.02943725,9.13077564e-16 9,0 L63.5,0 L92,28.5 L92,105 Z" id="path-2"></path>
        <filter x="-12.5%" y="-8.3%" width="125.0%" height="120.2%" filterUnits="objectBoundingBox" id="filter-3">
            <feOffset dx="0" dy="2" in="SourceAlpha" result="shadowOffsetOuter1"></feOffset>
            <feGaussianBlur stdDeviation="3.5" in="shadowOffsetOuter1" result="shadowBlurOuter1"></feGaussianBlur>
            <feColorMatrix values="0 0 0 0 0.0156862745   0 0 0 0 0.580392157   0 0 0 0 0.898039216  0 0 0 0.5 0" type="matrix" in="shadowBlurOuter1"></feColorMatrix>
        </filter>
        <linearGradient x1="50%" y1="50%" x2="7.99354867%" y2="88.8926673%" id="linearGradient-4">
            <stop stop-color="#FFFFFF" stop-opacity="0.1" offset="0%"></stop>
            <stop stop-color="#FFFFFF" stop-opacity="0.3" offset="100%"></stop>
        </linearGradient>
        <path d="M63.5,0 L92,28.5 L72.5,28.5 C67.5294373,28.5 63.5,24.4705627 63.5,19.5 L63.5,0 L63.5,0 Z" id="path-5"></path>
        <filter x="-12.3%" y="-8.8%" width="124.6%" height="124.6%" filterUnits="objectBoundingBox" id="filter-6">
            <feOffset dx="0" dy="1" in="SourceAlpha" result="shadowOffsetOuter1"></feOffset>
            <feGaussianBlur stdDeviation="1" in="shadowOffsetOuter1" result="shadowBlurOuter1"></feGaussianBlur>
            <feComposite in="shadowBlurOuter1" in2="SourceAlpha" operator="out" result="shadowBlurOuter1"></feComposite>
            <feColorMatrix values="0 0 0 0 0   0 0 0 0 0   0 0 0 0 0  0 0 0 0.05 0" type="matrix" in="shadowBlurOuter1"></feColorMatrix>
        </filter>
    </defs>
    <g id="mimetypes/128/text-x-copying" stroke="none" stroke-width="1" fill="none" fill-rule="evenodd">
        <g id="编组-2" transform="translate(18, 7)">
            <g id="蒙版">
                <use fill="black" fill-opacity="1" filter="url(#filter-3)" xlink:href="#path-2"></use>
                <use fill="url(#linearGradient-1)" fill-rule="evenodd" xlink:href="#path-2"></use>
            </g>
            <g id="折角">
                <use fill="black" fill-opacity="1" filter="url(#filter-6)" xlink:href="#path-5"></use>
                <use fill="url(#linearGradient-4)" fill-rule="evenodd" xlink:href="#path-5"></use>
            </g>
        </g>
        <path d="M86.5,69 C86.5,56.0213084 75.9786916,45.5 63,45.5 C50.0213084,45.5 39.5,56.0213084 39.5,69 C39.5,81.9786916 50.0213084,92.5 63,92.5 C75.9786916,92.5 86.5,81.9786916 86.5,69 Z M63,48.5 C74.3218374,48.5 83.5,57.6781626 83.5,69 C83.5,80.3218374 74.3218374,89.5 63,89.5 C51.6781626,89.5 42.5,80.3218374 42.5,69 C42.5,57.6781626 51.6781626,48.5 63,48.5 Z M63.2758433,53.5 C54.5695658,53.5 47.5,60.4329649 47.5,69 C47.5,77.5670351 54.5695658,84.5 63.2758433,84.5 C67.9548367,84.5 72.3055423,82.4847509 75.2845159,79.0524263 C75.8275247,78.4267804 75.7605342,77.4793985 75.1348882,76.9363896 C74.5092423,76.3933807 73.5618603,76.4603713 73.0188515,77.0860172 C70.6055857,79.8665425 67.079127,81.5 63.2758433,81.5 C56.2134598,81.5 50.5,75.8969379 50.5,69 C50.5,62.1030621 56.2134598,56.5 63.2758433,56.5 C67.1683116,56.5 70.7689956,58.2115975 73.1812328,61.1048646 C73.7117322,61.7411522 74.6575999,61.8269104 75.2938875,61.296411 C75.9301751,60.7659116 76.0159333,59.8200438 75.4854339,59.1837563 C72.507262,55.6117 68.0648831,53.5 63.2758433,53.5 Z" id="Combined-Shape" fill="#FFFFFF"></path>
    </g>
</svg>