<?xml version="1.0" encoding="UTF-8"?>
<svg width="128px" height="128px" viewBox="0 0 128 128" version="1.1" xmlns="http://www.w3.org/2000/svg" xmlns:xlink="http://www.w3.org/1999/xlink">
    <title>mimetypes/128/text-x-c++</title>
    <defs>
        <linearGradient x1="50%" y1="0%" x2="50%" y2="98.5008446%" id="linearGradient-1">
            <stop stop-color="#7FCB10" offset="0%"></stop>
            <stop stop-color="#50A100" offset="100%"></stop>
        </linearGradient>
        <path d="M92,105 C92,109.970563 87.9705627,114 83,114 L9,114 C4.02943725,114 6.08718376e-16,109.970563 0,105 L0,9 C-6.08718376e-16,4.02943725 4.02943725,9.13077564e-16 9,0 L63.5,0 L92,28.5 L92,105 Z" id="path-2"></path>
        <filter x="-12.5%" y="-8.3%" width="125.0%" height="120.2%" filterUnits="objectBoundingBox" id="filter-3">
            <feOffset dx="0" dy="2" in="SourceAlpha" result="shadowOffsetOuter1"></feOffset>
            <feGaussianBlur stdDeviation="3.5" in="shadowOffsetOuter1" result="shadowBlurOuter1"></feGaussianBlur>
            <feColorMatrix values="0 0 0 0 0.46370117   0 0 0 0 0.679376132   0 0 0 0 0  0 0 0 0.5 0" type="matrix" in="shadowBlurOuter1"></feColorMatrix>
        </filter>
        <linearGradient x1="50%" y1="50%" x2="7.99354867%" y2="88.8926673%" id="linearGradient-4">
            <stop stop-color="#FFFFFF" stop-opacity="0.1" offset="0%"></stop>
            <stop stop-color="#FFFFFF" stop-opacity="0.3" offset="100%"></stop>
        </linearGradient>
        <path d="M63.5,0 L92,28.5 L72.5,28.5 C67.5294373,28.5 63.5,24.4705627 63.5,19.5 L63.5,0 L63.5,0 Z" id="path-5"></path>
        <filter x="-12.3%" y="-8.8%" width="124.6%" height="124.6%" filterUnits="objectBoundingBox" id="filter-6">
            <feOffset dx="0" dy="1" in="SourceAlpha" result="shadowOffsetOuter1"></feOffset>
            <feGaussianBlur stdDeviation="1" in="shadowOffsetOuter1" result="shadowBlurOuter1"></feGaussianBlur>
            <feComposite in="shadowBlurOuter1" in2="SourceAlpha" operator="out" result="shadowBlurOuter1"></feComposite>
            <feColorMatrix values="0 0 0 0 0   0 0 0 0 0   0 0 0 0 0  0 0 0 0.05 0" type="matrix" in="shadowBlurOuter1"></feColorMatrix>
        </filter>
    </defs>
    <g id="mimetypes/128/text-x-c++" stroke="none" stroke-width="1" fill="none" fill-rule="evenodd">
        <g id="编组-2" transform="translate(18, 7)">
            <g id="蒙版">
                <use fill="black" fill-opacity="1" filter="url(#filter-3)" xlink:href="#path-2"></use>
                <use fill="url(#linearGradient-1)" fill-rule="evenodd" xlink:href="#path-2"></use>
            </g>
            <g id="折角">
                <use fill="black" fill-opacity="1" filter="url(#filter-6)" xlink:href="#path-5"></use>
                <use fill="url(#linearGradient-4)" fill-rule="evenodd" xlink:href="#path-5"></use>
            </g>
        </g>
        <path d="M62,70 L62,72 L68,72 L68,78 L70,78 L70,72 L76,72 L76,70 L70,70 L70,64 L68,64 L68,70 L62,70 Z M78,70 L78,72 L84,72 L84,78 L86,78 L86,72 L92,72 L92,70 L86,70 L86,64 L84,64 L84,70 L78,70 Z M39.0951374,60.212844 C37.0147992,62.7816514 36,66.0697248 36,70.1284404 C36,74.187156 37.0147992,77.4752294 39.0951374,79.9926606 C41.2769556,82.6642202 44.3213531,84 48.2790698,84 C51.5264271,84 54.1141649,83.1266055 56.0930233,81.4311927 C58.1226216,79.6844037 59.3911205,77.3402842 60,73.9494585 L55.9408034,73.9494585 C55.3319239,78.5219355 52.744186,80.5577982 48.2790698,80.5577982 C45.640592,80.5577982 43.6109937,79.5816514 42.2410148,77.7321101 C40.820296,75.8825688 40.1606765,73.3137615 40.1606765,70.0770642 C40.1606765,66.840367 40.8710359,64.2715596 42.2917548,62.3706422 C43.7632135,60.4183486 45.7928118,59.4422018 48.3298097,59.4422018 C50.410148,59.4422018 52.0845666,59.9045872 53.4038055,60.9321101 C54.6723044,61.959633 55.4841438,63.9449541 55.8393235,66 L59.8477801,66 C59.3911205,62.7633028 58.1733615,59.9045872 56.1437632,58.3119266 C54.1649049,56.7706422 51.577167,56 48.3298097,56 C44.422833,56 41.3276956,57.387156 39.0951374,60.212844 Z" id="Combined-Shape" fill="#FFFFFF"></path>
    </g>
</svg>