<svg xmlns="http://www.w3.org/2000/svg" xmlns:xlink="http://www.w3.org/1999/xlink" width="128" height="128" viewBox="0 0 128 128">
  <defs>
    <linearGradient id="text-x-python-c" x1="50%" x2="50%" y1="0%" y2="99.372%">
      <stop offset="0%" stop-color="#FFBC2A"/>
      <stop offset="100%" stop-color="#E77B00"/>
    </linearGradient>
    <path id="text-x-python-b" d="M58,0 L84,26 L84,95 C84,99.9705627 79.9705627,104 75,104 L9,104 C4.02943725,104 6.08718376e-16,99.9705627 0,95 L0,9 C-6.08718376e-16,4.02943725 4.02943725,9.13077564e-16 9,0 L58,0 Z"/>
    <filter id="text-x-python-a" width="127.4%" height="122.1%" x="-13.7%" y="-9.1%" filterUnits="objectBoundingBox">
      <feOffset dy="2" in="SourceAlpha" result="shadowOffsetOuter1"/>
      <feGaussianBlur in="shadowOffsetOuter1" result="shadowBlurOuter1" stdDeviation="3.5"/>
      <feColorMatrix in="shadowBlurOuter1" values="0 0 0 0 0.874509804   0 0 0 0 0.498039216   0 0 0 0 0.0588235294  0 0 0 0.5 0"/>
    </filter>
    <linearGradient id="text-x-python-f" x1="50%" x2="10.489%" y1="50%" y2="91.194%">
      <stop offset="0%" stop-color="#FFF" stop-opacity=".1"/>
      <stop offset="100%" stop-color="#FFF" stop-opacity=".3"/>
    </linearGradient>
    <path id="text-x-python-e" d="M58,0 L84,26 L67,26 C62.0294373,26 58,21.9705627 58,17 L58,0 Z"/>
    <filter id="text-x-python-d" width="142.3%" height="142.3%" x="-21.2%" y="-13.5%" filterUnits="objectBoundingBox">
      <feOffset dy="2" in="SourceAlpha" result="shadowOffsetOuter1"/>
      <feGaussianBlur in="shadowOffsetOuter1" result="shadowBlurOuter1" stdDeviation="1.5"/>
      <feComposite in="shadowBlurOuter1" in2="SourceAlpha" operator="out" result="shadowBlurOuter1"/>
      <feColorMatrix in="shadowBlurOuter1" values="0 0 0 0 0   0 0 0 0 0   0 0 0 0 0  0 0 0 0.05 0"/>
    </filter>
  </defs>
  <g fill="none" fill-rule="evenodd">
    <g transform="translate(22 14)">
      <g opacity=".9">
        <use fill="#000" filter="url(#text-x-python-a)" xlink:href="#text-x-python-b"/>
        <use fill="url(#text-x-python-c)" xlink:href="#text-x-python-b"/>
      </g>
      <use fill="#000" filter="url(#text-x-python-d)" xlink:href="#text-x-python-e"/>
      <use fill="url(#text-x-python-f)" xlink:href="#text-x-python-e"/>
    </g>
    <path fill="#FFF" d="M48,80 C43.6774647,80 40,75.4285714 40,69 C40,62.5714286 43.5384206,58 47.8266424,58 L54,58 L54,52.3617689 C54,48.1118813 58.4615385,44 65,44 C71.5384615,44 76,48.1456181 76,52.3617689 L76,63.9577472 C76,66.079137 74.1590354,68 72,68 L57,68 C57,68 52,68 52,74 L52,80 L48,80 Z M62,53 C62,54.6568542 60.6568542,56 59,56 C57.3431458,56 56,54.6568542 56,53 C56,51.3431458 57.3431458,50 59,50 C60.6568542,50 62,51.3431458 62,53 Z M82,58 C86.3225353,58 90,62.5714286 90,69 C90,75.4285714 86.4615794,80 82.1733576,80 L76,80 L76,85.6382311 C76,89.8881187 71.5384615,94 65,94 C58.4615385,94 54,89.8543819 54,85.6382311 L54,74.0422528 C54,71.920863 55.8409646,70 58,70 L73,70 C73,70 78,70 78,64 L78,58 L82,58 Z M68,85 C68,86.6568542 69.3431458,88 71,88 C72.6568542,88 74,86.6568542 74,85 C74,83.3431458 72.6568542,82 71,82 C69.3431458,82 68,83.3431458 68,85 Z"/>
  </g>
</svg>
