<?xml version="1.0" encoding="UTF-8"?>
<svg width="128px" height="128px" viewBox="0 0 128 128" version="1.1" xmlns="http://www.w3.org/2000/svg" xmlns:xlink="http://www.w3.org/1999/xlink">
    <title>mimetypes/128/text-x-source</title>
    <defs>
        <linearGradient x1="50%" y1="0%" x2="50%" y2="99.2029139%" id="linearGradient-1">
            <stop stop-color="#619FFF" offset="0%"></stop>
            <stop stop-color="#0093E4" offset="100%"></stop>
        </linearGradient>
        <path d="M92,105 C92,109.970563 87.9705627,114 83,114 L9,114 C4.02943725,114 6.08718376e-16,109.970563 0,105 L0,9 C-6.08718376e-16,4.02943725 4.02943725,9.13077564e-16 9,0 L63.5,0 L92,28.5 L92,105 Z" id="path-2"></path>
        <filter x="-12.5%" y="-8.3%" width="125.0%" height="120.2%" filterUnits="objectBoundingBox" id="filter-3">
            <feOffset dx="0" dy="2" in="SourceAlpha" result="shadowOffsetOuter1"></feOffset>
            <feGaussianBlur stdDeviation="3.5" in="shadowOffsetOuter1" result="shadowBlurOuter1"></feGaussianBlur>
            <feColorMatrix values="0 0 0 0 0.0156862745   0 0 0 0 0.580392157   0 0 0 0 0.898039216  0 0 0 0.5 0" type="matrix" in="shadowBlurOuter1"></feColorMatrix>
        </filter>
        <linearGradient x1="50%" y1="50%" x2="7.99354867%" y2="88.8926673%" id="linearGradient-4">
            <stop stop-color="#FFFFFF" stop-opacity="0.1" offset="0%"></stop>
            <stop stop-color="#FFFFFF" stop-opacity="0.3" offset="100%"></stop>
        </linearGradient>
        <path d="M63.5,0 L92,28.5 L72.5,28.5 C67.5294373,28.5 63.5,24.4705627 63.5,19.5 L63.5,0 L63.5,0 Z" id="path-5"></path>
        <filter x="-12.3%" y="-8.8%" width="124.6%" height="124.6%" filterUnits="objectBoundingBox" id="filter-6">
            <feOffset dx="0" dy="1" in="SourceAlpha" result="shadowOffsetOuter1"></feOffset>
            <feGaussianBlur stdDeviation="1" in="shadowOffsetOuter1" result="shadowBlurOuter1"></feGaussianBlur>
            <feComposite in="shadowBlurOuter1" in2="SourceAlpha" operator="out" result="shadowBlurOuter1"></feComposite>
            <feColorMatrix values="0 0 0 0 0   0 0 0 0 0   0 0 0 0 0  0 0 0 0.05 0" type="matrix" in="shadowBlurOuter1"></feColorMatrix>
        </filter>
    </defs>
    <g id="mimetypes/128/text-x-source" stroke="none" stroke-width="1" fill="none" fill-rule="evenodd">
        <g id="编组-2" transform="translate(18, 7)">
            <g id="蒙版">
                <use fill="black" fill-opacity="1" filter="url(#filter-3)" xlink:href="#path-2"></use>
                <use fill="url(#linearGradient-1)" fill-rule="evenodd" xlink:href="#path-2"></use>
            </g>
            <g id="折角">
                <use fill="black" fill-opacity="1" filter="url(#filter-6)" xlink:href="#path-5"></use>
                <use fill="url(#linearGradient-4)" fill-rule="evenodd" xlink:href="#path-5"></use>
            </g>
        </g>
        <path d="M44,50 L44,52 L34,52 L34,50 L44,50 Z M64,50 L64,52 L52,52 L52,50 L64,50 Z M94,50 L94,52 L84,52 L84,50 L94,50 Z M68,80 L68,82 L64,82 L64,80 L68,80 Z M56,60 L56,62 L42,62 L42,60 L56,60 Z M78,60 L78,62 L64,62 L64,60 L78,60 Z M94,70 L94,72 L78,72 L78,70 L94,70 Z M70,70 L70,72 L56,72 L56,70 L70,70 Z M40,60 L40,62 L34,62 L34,60 L40,60 Z M50,50 L50,52 L46,52 L46,50 L50,50 Z M62,60 L62,62 L58,62 L58,60 L62,60 Z M94,80 L94,82 L76,82 L76,80 L94,80 Z M74,80 L74,82 L70,82 L70,80 L74,80 Z M76,70 L76,72 L72,72 L72,70 L76,70 Z M54,70 L54,72 L50,72 L50,70 L54,70 Z M48,70 L48,72 L34,72 L34,70 L48,70 Z M62,80 L62,82 L34,82 L34,80 L62,80 Z M86,60 L86,62 L80,62 L80,60 L86,60 Z M94,60 L94,62 L88,62 L88,60 L94,60 Z M56,90 L56,92 L42,92 L42,90 L56,90 Z M78,90 L78,92 L64,92 L64,90 L78,90 Z M40,90 L40,92 L34,92 L34,90 L40,90 Z M62,90 L62,92 L58,92 L58,90 L62,90 Z M86,90 L86,92 L80,92 L80,90 L86,90 Z M94,90 L94,92 L88,92 L88,90 L94,90 Z M70,50 L70,52 L66,52 L66,50 L70,50 Z M76,50 L76,52 L72,52 L72,50 L76,50 Z M82,50 L82,52 L78,52 L78,50 L82,50 Z" id="Combined-Shape" fill="#FFFFFF"></path>
    </g>
</svg>