<?xml version="1.0" encoding="UTF-8"?>
<svg width="128px" height="128px" viewBox="0 0 128 128" version="1.1" xmlns="http://www.w3.org/2000/svg" xmlns:xlink="http://www.w3.org/1999/xlink">
    <title>mimetypes/128/text-x-c</title>
    <defs>
        <linearGradient x1="50%" y1="0%" x2="50%" y2="99.2029139%" id="linearGradient-1">
            <stop stop-color="#619FFF" offset="0%"></stop>
            <stop stop-color="#0093E4" offset="100%"></stop>
        </linearGradient>
        <path d="M92,105 C92,109.970563 87.9705627,114 83,114 L9,114 C4.02943725,114 6.08718376e-16,109.970563 0,105 L0,9 C-6.08718376e-16,4.02943725 4.02943725,9.13077564e-16 9,0 L63.5,0 L92,28.5 L92,105 Z" id="path-2"></path>
        <filter x="-12.5%" y="-8.3%" width="125.0%" height="120.2%" filterUnits="objectBoundingBox" id="filter-3">
            <feOffset dx="0" dy="2" in="SourceAlpha" result="shadowOffsetOuter1"></feOffset>
            <feGaussianBlur stdDeviation="3.5" in="shadowOffsetOuter1" result="shadowBlurOuter1"></feGaussianBlur>
            <feColorMatrix values="0 0 0 0 0.0156862745   0 0 0 0 0.580392157   0 0 0 0 0.898039216  0 0 0 0.5 0" type="matrix" in="shadowBlurOuter1"></feColorMatrix>
        </filter>
        <linearGradient x1="50%" y1="50%" x2="7.99354867%" y2="88.8926673%" id="linearGradient-4">
            <stop stop-color="#FFFFFF" stop-opacity="0.1" offset="0%"></stop>
            <stop stop-color="#FFFFFF" stop-opacity="0.3" offset="100%"></stop>
        </linearGradient>
        <path d="M63.5,0 L92,28.5 L72.5,28.5 C67.5294373,28.5 63.5,24.4705627 63.5,19.5 L63.5,0 L63.5,0 Z" id="path-5"></path>
        <filter x="-12.3%" y="-8.8%" width="124.6%" height="124.6%" filterUnits="objectBoundingBox" id="filter-6">
            <feOffset dx="0" dy="1" in="SourceAlpha" result="shadowOffsetOuter1"></feOffset>
            <feGaussianBlur stdDeviation="1" in="shadowOffsetOuter1" result="shadowBlurOuter1"></feGaussianBlur>
            <feComposite in="shadowBlurOuter1" in2="SourceAlpha" operator="out" result="shadowBlurOuter1"></feComposite>
            <feColorMatrix values="0 0 0 0 0   0 0 0 0 0   0 0 0 0 0  0 0 0 0.05 0" type="matrix" in="shadowBlurOuter1"></feColorMatrix>
        </filter>
    </defs>
    <g id="mimetypes/128/text-x-c" stroke="none" stroke-width="1" fill="none" fill-rule="evenodd">
        <g id="编组-2" transform="translate(18, 7)">
            <g id="蒙版">
                <use fill="black" fill-opacity="1" filter="url(#filter-3)" xlink:href="#path-2"></use>
                <use fill="url(#linearGradient-1)" fill-rule="evenodd" xlink:href="#path-2"></use>
            </g>
            <g id="折角">
                <use fill="black" fill-opacity="1" filter="url(#filter-6)" xlink:href="#path-5"></use>
                <use fill="url(#linearGradient-4)" fill-rule="evenodd" xlink:href="#path-5"></use>
            </g>
        </g>
        <path d="M51.9253333,56.5973333 C49.3013333,59.7973333 48.0213333,63.8933333 48.0213333,68.9493333 C48.0213333,74.0053333 49.3013333,78.1013333 51.9253333,81.2373333 C54.6773333,84.5653333 58.5173333,86.2293333 63.5093333,86.2293333 C67.6053333,86.2293333 70.8693333,85.1413333 73.3653333,83.0293333 C75.9253333,80.8533333 77.5253333,77.2750867 78.2933333,73.0510867 L73.1733333,73.0510867 C72.4053333,78.7470867 69.1413333,81.9413333 63.5093333,81.9413333 C60.1813333,81.9413333 57.6213333,80.7253333 55.8933333,78.4213333 C54.1013333,76.1173333 53.2693333,72.9173333 53.2693333,68.8853333 C53.2693333,64.8533333 54.1653333,61.6533333 55.9573333,59.2853333 C57.8133333,56.8533333 60.3733333,55.6373333 63.5733333,55.6373333 C66.1973333,55.6373333 68.3093333,56.2133333 69.9733333,57.4933333 C71.5733333,58.7733333 72.5973333,60.5154733 73.0453333,63.0754733 L78.1013333,63.0754733 C77.5253333,59.0434733 75.9893333,56.2133333 73.4293333,54.2293333 C70.9333333,52.3093333 67.6693333,51.3493333 63.5733333,51.3493333 C58.6453333,51.3493333 54.7413333,53.0773333 51.9253333,56.5973333 Z" id="c" fill="#FFFFFF"></path>
    </g>
</svg>