<svg xmlns="http://www.w3.org/2000/svg" xmlns:xlink="http://www.w3.org/1999/xlink" width="128" height="128" viewBox="0 0 128 128">
  <defs>
    <linearGradient id="x-media-podcast-c" x1="50%" x2="50%" y1="0%" y2="100%">
      <stop offset="0%" stop-color="#5C42B1"/>
      <stop offset="99.345%" stop-color="#3E1888"/>
    </linearGradient>
    <path id="x-media-podcast-b" d="M58,0 L84,26 L84,95 C84,99.9705627 79.9705627,104 75,104 L9,104 C4.02943725,104 6.08718376e-16,99.9705627 0,95 L0,9 C-6.08718376e-16,4.02943725 4.02943725,9.13077564e-16 9,0 L58,0 Z"/>
    <filter id="x-media-podcast-a" width="127.4%" height="122.1%" x="-13.7%" y="-9.1%" filterUnits="objectBoundingBox">
      <feOffset dy="2" in="SourceAlpha" result="shadowOffsetOuter1"/>
      <feGaussianBlur in="shadowOffsetOuter1" result="shadowBlurOuter1" stdDeviation="3.5"/>
      <feColorMatrix in="shadowBlurOuter1" values="0 0 0 0 0.241013895   0 0 0 0 0   0 0 0 0 0.621603261  0 0 0 0.5 0"/>
    </filter>
    <linearGradient id="x-media-podcast-f" x1="50%" x2="10.489%" y1="50%" y2="91.194%">
      <stop offset="0%" stop-color="#FFF" stop-opacity=".1"/>
      <stop offset="100%" stop-color="#FFF" stop-opacity=".3"/>
    </linearGradient>
    <path id="x-media-podcast-e" d="M58,0 L84,26 L67,26 C62.0294373,26 58,21.9705627 58,17 L58,0 Z"/>
    <filter id="x-media-podcast-d" width="142.3%" height="142.3%" x="-21.2%" y="-13.5%" filterUnits="objectBoundingBox">
      <feOffset dy="2" in="SourceAlpha" result="shadowOffsetOuter1"/>
      <feGaussianBlur in="shadowOffsetOuter1" result="shadowBlurOuter1" stdDeviation="1.5"/>
      <feComposite in="shadowBlurOuter1" in2="SourceAlpha" operator="out" result="shadowBlurOuter1"/>
      <feColorMatrix in="shadowBlurOuter1" values="0 0 0 0 0   0 0 0 0 0   0 0 0 0 0  0 0 0 0.05 0"/>
    </filter>
  </defs>
  <g fill="none" fill-rule="evenodd">
    <g transform="translate(22 14)">
      <use fill="#000" filter="url(#x-media-podcast-a)" xlink:href="#x-media-podcast-b"/>
      <use fill="url(#x-media-podcast-c)" xlink:href="#x-media-podcast-b"/>
      <use fill="#000" filter="url(#x-media-podcast-d)" xlink:href="#x-media-podcast-e"/>
      <use fill="url(#x-media-podcast-f)" xlink:href="#x-media-podcast-e"/>
    </g>
    <path fill="#FFF" d="M64,44 C52.197594,44 42.696018,53.501576 42.696018,65.303982 C42.696018,73.2167229 46.9763555,80.0780831 53.348009,83.752522 L53.348009,80.6110182 C48.5159037,77.2494975 45.3590158,71.6618678 45.3590158,65.303982 C45.3590158,54.9768767 53.6728947,46.6629977 64,46.6629977 C74.3271053,46.6629977 82.6409842,54.9768767 82.6409842,65.303982 C82.6409842,71.6618678 79.4840963,77.2494975 74.651991,80.6110182 L74.651991,83.752522 C81.0236445,80.0780831 85.303982,73.2167229 85.303982,65.303982 C85.303982,53.501576 75.802406,44 64,44 L64,44 Z M64,51.723732 C56.6234962,51.723732 50.6850113,57.662217 50.6850113,65.0387208 C50.6850113,68.6415996 52.1156695,71.8888165 54.424651,74.281195 C54.8305105,73.4353923 55.3491346,72.6643506 55.9537949,71.9614764 C54.350838,70.0981475 53.348009,67.7007199 53.348009,65.0387208 C53.348009,59.1375178 58.098797,54.3867298 64,54.3867298 C69.901203,54.3867298 74.651991,59.1375178 74.651991,65.0387208 C74.651991,67.7007199 73.649162,70.0981475 72.0462051,71.9614764 C72.6508654,72.6643506 73.1694895,73.4353923 73.575349,74.281195 C75.8843305,71.8888165 77.3149887,68.6415996 77.3149887,65.0387208 C77.3149887,57.662217 71.3765038,51.723732 64,51.723732 L64,51.723732 Z M63.9986303,60 C61.2286303,60 58.9986303,62.23 58.9986303,65 C58.9986303,67.77 61.2286303,70 63.9986303,70 C66.7686303,70 68.9986303,67.77 68.9986303,65 C68.9986303,62.23 66.7686303,60 63.9986303,60 L63.9986303,60 Z M64,72 C58.098797,72 55.1585572,76.5321945 55.7457482,82.099609 L56.8119859,92.199218 L71.0995946,92.199218 L71.9889932,82.099609 C72.4790621,76.5237537 69.901203,72 64,72 L64,72 Z"/>
  </g>
</svg>
