<?xml version="1.0" encoding="UTF-8"?>
<svg width="128px" height="128px" viewBox="0 0 128 128" version="1.1" xmlns="http://www.w3.org/2000/svg" xmlns:xlink="http://www.w3.org/1999/xlink">
    <title>mimetypes/128/x-office-address-book</title>
    <defs>
        <linearGradient x1="50%" y1="0%" x2="50%" y2="99.6278505%" id="linearGradient-1">
            <stop stop-color="#B93F3F" offset="0%"></stop>
            <stop stop-color="#9F3535" offset="100%"></stop>
        </linearGradient>
        <path d="M92,105 C92,109.970563 87.9705627,114 83,114 L9,114 C4.02943725,114 6.08718376e-16,109.970563 0,105 L0,9 C-6.08718376e-16,4.02943725 4.02943725,9.13077564e-16 9,0 L63.5,0 L92,28.5 L92,105 Z" id="path-2"></path>
        <filter x="-12.5%" y="-8.3%" width="125.0%" height="120.2%" filterUnits="objectBoundingBox" id="filter-3">
            <feOffset dx="0" dy="2" in="SourceAlpha" result="shadowOffsetOuter1"></feOffset>
            <feGaussianBlur stdDeviation="3.5" in="shadowOffsetOuter1" result="shadowBlurOuter1"></feGaussianBlur>
            <feColorMatrix values="0 0 0 0 0.6622226   0 0 0 0 0   0 0 0 0 0  0 0 0 0.5 0" type="matrix" in="shadowBlurOuter1"></feColorMatrix>
        </filter>
        <linearGradient x1="50%" y1="50%" x2="7.99354867%" y2="88.8926673%" id="linearGradient-4">
            <stop stop-color="#FFFFFF" stop-opacity="0.1" offset="0%"></stop>
            <stop stop-color="#FFFFFF" stop-opacity="0.3" offset="100%"></stop>
        </linearGradient>
        <path d="M63.5,0 L92,28.5 L72.5,28.5 C67.5294373,28.5 63.5,24.4705627 63.5,19.5 L63.5,0 L63.5,0 Z" id="path-5"></path>
        <filter x="-12.3%" y="-8.8%" width="124.6%" height="124.6%" filterUnits="objectBoundingBox" id="filter-6">
            <feOffset dx="0" dy="1" in="SourceAlpha" result="shadowOffsetOuter1"></feOffset>
            <feGaussianBlur stdDeviation="1" in="shadowOffsetOuter1" result="shadowBlurOuter1"></feGaussianBlur>
            <feComposite in="shadowBlurOuter1" in2="SourceAlpha" operator="out" result="shadowBlurOuter1"></feComposite>
            <feColorMatrix values="0 0 0 0 0   0 0 0 0 0   0 0 0 0 0  0 0 0 0.05 0" type="matrix" in="shadowBlurOuter1"></feColorMatrix>
        </filter>
    </defs>
    <g id="mimetypes/128/x-office-address-book" stroke="none" stroke-width="1" fill="none" fill-rule="evenodd">
        <g id="编组-2" transform="translate(18, 7)">
            <g id="蒙版">
                <use fill="black" fill-opacity="1" filter="url(#filter-3)" xlink:href="#path-2"></use>
                <use fill="url(#linearGradient-1)" fill-rule="evenodd" xlink:href="#path-2"></use>
            </g>
            <g id="折角">
                <use fill="black" fill-opacity="1" filter="url(#filter-6)" xlink:href="#path-5"></use>
                <use fill="url(#linearGradient-4)" fill-rule="evenodd" xlink:href="#path-5"></use>
            </g>
        </g>
        <path d="M74.0266667,87.3066667 L72.2133333,83.52 C70.1866667,84.9066667 66.72,85.92 63.36,85.92 C53.44,85.92 48.0533333,80.8 48.0533333,70.9333333 C48.0533333,60.2133333 56.2133333,51.04 67.1466667,51.04 C76.7466667,51.04 82.4,55.84 82.4,64.4266667 C82.4,70.08 79.84,75.5733333 75.4133333,75.5733333 C73.8133333,75.5733333 73.1733333,74.7733333 73.1733333,73.2266667 C73.1733333,72.4266667 73.3333333,70.9333333 73.5466667,69.7066667 L75.2,58.9866667 C73.4933333,57.92 70.6666667,57.28 68.1066667,57.28 C61.6,57.28 55.04,61.7066667 55.04,71.3066667 C55.04,75.9466667 57.3333333,79.68 62.88,79.68 C65.3866667,79.68 67.6266667,78.72 69.12,76.8533333 L69.3333333,76.8533333 C70.08,78.5066667 71.7866667,79.68 74.7733333,79.68 C82.24,79.68 87.0933333,72.9066667 87.0933333,63.84 C87.0933333,53.4933333 79.4666667,46.7733333 67.84,46.7733333 C53.76,46.7733333 43.3066667,57.7066667 43.3066667,71.4666667 C43.3066667,82.88 50.0266667,90.1333333 62.56,90.1333333 C67.04,90.1333333 71.3066667,89.0133333 74.0266667,87.3066667 L74.0266667,87.3066667 Z M63.84,75.6266667 C61.0666667,75.6266667 59.7333333,74.0266667 59.7333333,70.4533333 C59.7333333,65.12 63.0933333,61.3866667 67.52,61.3866667 C68.5333333,61.3866667 69.4933333,61.6 70.1333333,61.8133333 L68.9066667,70.1866667 C68.8,70.7733333 68.64,72.2666667 68.64,72.9066667 C67.84,74.3466667 66.0266667,75.6266667 63.84,75.6266667 L63.84,75.6266667 Z" id="@" fill="#FFFFFF"></path>
    </g>
</svg>