<?xml version="1.0" encoding="UTF-8"?>
<svg width="128px" height="128px" viewBox="0 0 128 128" version="1.1" xmlns="http://www.w3.org/2000/svg" xmlns:xlink="http://www.w3.org/1999/xlink">
    <title>mimetypes/128/x-office-drawing</title>
    <defs>
        <linearGradient x1="50%" y1="0%" x2="50%" y2="97.9504916%" id="linearGradient-1">
            <stop stop-color="#BA58FF" offset="0%"></stop>
            <stop stop-color="#7E21FF" offset="100%"></stop>
        </linearGradient>
        <path d="M92,105 C92,109.970563 87.9705627,114 83,114 L9,114 C4.02943725,114 6.08718376e-16,109.970563 0,105 L0,9 C-6.08718376e-16,4.02943725 4.02943725,9.13077564e-16 9,0 L63.5,0 L92,28.5 L92,105 Z" id="path-2"></path>
        <filter x="-12.5%" y="-8.3%" width="125.0%" height="120.2%" filterUnits="objectBoundingBox" id="filter-3">
            <feOffset dx="0" dy="2" in="SourceAlpha" result="shadowOffsetOuter1"></feOffset>
            <feGaussianBlur stdDeviation="3.5" in="shadowOffsetOuter1" result="shadowBlurOuter1"></feGaussianBlur>
            <feColorMatrix values="0 0 0 0 0.497310222   0 0 0 0 0   0 0 0 0 0.911005435  0 0 0 0.5 0" type="matrix" in="shadowBlurOuter1"></feColorMatrix>
        </filter>
        <linearGradient x1="50%" y1="50%" x2="7.99354867%" y2="88.8926673%" id="linearGradient-4">
            <stop stop-color="#FFFFFF" stop-opacity="0.1" offset="0%"></stop>
            <stop stop-color="#FFFFFF" stop-opacity="0.3" offset="100%"></stop>
        </linearGradient>
        <path d="M63.5,0 L92,28.5 L72.5,28.5 C67.5294373,28.5 63.5,24.4705627 63.5,19.5 L63.5,0 L63.5,0 Z" id="path-5"></path>
        <filter x="-12.3%" y="-8.8%" width="124.6%" height="124.6%" filterUnits="objectBoundingBox" id="filter-6">
            <feOffset dx="0" dy="1" in="SourceAlpha" result="shadowOffsetOuter1"></feOffset>
            <feGaussianBlur stdDeviation="1" in="shadowOffsetOuter1" result="shadowBlurOuter1"></feGaussianBlur>
            <feComposite in="shadowBlurOuter1" in2="SourceAlpha" operator="out" result="shadowBlurOuter1"></feComposite>
            <feColorMatrix values="0 0 0 0 0   0 0 0 0 0   0 0 0 0 0  0 0 0 0.05 0" type="matrix" in="shadowBlurOuter1"></feColorMatrix>
        </filter>
    </defs>
    <g id="mimetypes/128/x-office-drawing" stroke="none" stroke-width="1" fill="none" fill-rule="evenodd">
        <g id="编组-2" transform="translate(18, 7)">
            <g id="蒙版">
                <use fill="black" fill-opacity="1" filter="url(#filter-3)" xlink:href="#path-2"></use>
                <use fill="url(#linearGradient-1)" fill-rule="evenodd" xlink:href="#path-2"></use>
            </g>
            <g id="折角">
                <use fill="black" fill-opacity="1" filter="url(#filter-6)" xlink:href="#path-5"></use>
                <use fill="url(#linearGradient-4)" fill-rule="evenodd" xlink:href="#path-5"></use>
            </g>
        </g>
        <path d="M49.5,88 C49.5,88 50.8945043,86.3786417 52.1052247,84.6262831 C55.5730434,79.6070718 56.8669039,74.2674966 56.3272236,68.7823257 C55.9020402,64.4608702 54.3704792,60.2756784 52.0866403,56.3490781 C51.1385648,54.7190536 50.1230526,53.2438885 49.1062635,51.9476311 C49.1062635,52 81,52 81,52 C81.5522847,52 82,51.5522847 82,51 C82,50.4477153 81.5522847,50 81,50 L47,50 C46.1214028,50 45.6698672,51.051767 46.2750006,51.6887495 C46.3312806,51.7479916 46.4453167,51.8730978 46.6088445,52.0608065 C46.8864417,52.3794519 47.1971214,52.75428 47.5326254,53.1819986 C48.495003,54.4088893 49.4586574,55.8087242 50.3578042,57.3546256 C52.5077348,61.0509975 53.9426933,64.9722106 54.3368343,68.978158 C54.831198,74.0027436 53.6520171,78.8690531 50.459764,83.4894194 C49.7233684,84.5552552 48.8816478,85.6041762 47.9313233,86.6350714 C47.7855235,86.2632665 47.4235063,86 47,86 L41,86 C40.4477153,86 40,86.4477153 40,87 L40,93 C40,93.5522847 40.4477153,94 41,94 L47,94 C47.5522847,94 48,93.5522847 48,93 L48,90 L76.1000181,90 C76.5632884,92.2822403 78.5810421,94 81,94 C83.7614237,94 86,91.7614237 86,89 C86,86.2385763 83.7614237,84 81,84 C78.5810421,84 76.5632884,85.7177597 76.1000181,88 L49.5,88 Z M81,86 C82.6568542,86 84,87.3431458 84,89 C84,90.6568542 82.6568542,92 81,92 C79.3431458,92 78,90.6568542 78,89 C78,87.3431458 79.3431458,86 81,86 Z M46,88 L46,92 L42,92 L42,88 L46,88 Z" id="Combined-Shape" fill="#FFFFFF"></path>
    </g>
</svg>