<svg xmlns="http://www.w3.org/2000/svg" width="24" height="24" viewBox="0 0 24 24">
  <defs>
    <filter id="五子棋-a" width="122.7%" height="122.7%" x="-11.4%" y="-11.4%" filterUnits="objectBoundingBox">
      <feOffset in="SourceAlpha" result="shadowOffsetOuter1"/>
      <feGaussianBlur in="shadowOffsetOuter1" result="shadowBlurOuter1" stdDeviation=".5"/>
      <feColorMatrix in="shadowBlurOuter1" result="shadowMatrixOuter1" values="0 0 0 0 0   0 0 0 0 0   0 0 0 0 0  0 0 0 0.15 0"/>
      <feMerge>
        <feMergeNode in="shadowMatrixOuter1"/>
        <feMergeNode in="SourceGraphic"/>
      </feMerge>
    </filter>
    <linearGradient id="五子棋-b" x1="50%" x2="50%" y1="0%" y2="100%">
      <stop offset="0%" stop-color="#FDD7A7"/>
      <stop offset="100%" stop-color="#C78051"/>
    </linearGradient>
    <linearGradient id="五子棋-c" x1="50%" x2="50%" y1="0%" y2="100%">
      <stop offset="0%" stop-color="#FFF" stop-opacity=".2"/>
      <stop offset="100%" stop-color="#FFF" stop-opacity=".05"/>
    </linearGradient>
    <linearGradient id="五子棋-d" x1="50%" x2="50%" y1="0%" y2="100%">
      <stop offset="0%" stop-color="#EDBD8D"/>
      <stop offset="100%" stop-color="#AE6633"/>
    </linearGradient>
    <radialGradient id="五子棋-e" cx="50%" cy="25.241%" r="74.759%" fx="50%" fy="25.241%">
      <stop offset="0%" stop-color="#767676"/>
      <stop offset="100%"/>
    </radialGradient>
    <radialGradient id="五子棋-f" cx="50%" cy="32.875%" r="67.125%" fx="50%" fy="32.875%">
      <stop offset="0%" stop-color="#FFFBFB"/>
      <stop offset="37.61%" stop-color="#FFFBFB"/>
      <stop offset="100%" stop-color="#C8CBE4"/>
    </radialGradient>
  </defs>
  <g fill="none" fill-rule="evenodd" filter="url(#五子棋-a)" transform="translate(1 1)">
    <path fill="url(#五子棋-b)" d="M3.75,0 L18.25,0 C20.3210678,-8.24538195e-16 22,1.67893219 22,3.75 L22,18.25 C22,20.3210678 20.3210678,22 18.25,22 L3.75,22 C1.67893219,22 -1.90456553e-16,20.3210678 0,18.25 L0,3.75 C-6.97721867e-16,1.67893219 1.67893219,-6.36402249e-17 3.75,0 Z"/>
    <path fill="url(#五子棋-c)" fill-rule="nonzero" d="M18.25,0 C20.3210678,0 22,1.67893219 22,3.75 L22,18.25 C22,20.3210678 20.3210678,22 18.25,22 L3.75,22 C1.67893219,22 0,20.3210678 0,18.25 L0,3.75 C0,1.67893219 1.67893219,0 3.75,0 L18.25,0 Z M18.25,1 L3.75,1 C2.28746816,1 1.09159572,2.1417046 1.00501879,3.58247767 L1,3.75 L1,18.25 C1,19.7125318 2.1417046,20.9084043 3.58247767,20.9949812 L3.75,21 L18.25,21 C19.7125318,21 20.9084043,19.8582954 20.9949812,18.4175223 L21,18.25 L21,3.75 C21,2.28746816 19.8582954,1.09159572 18.4175223,1.00501879 L18.25,1 Z"/>
    <path fill="url(#五子棋-d)" d="M7,1 L7,6 L11,6 L11,1 L12,1 L12,6 L16,6 L16,1 L17,1 L17,6 L21,6 L21,7 L17,7 L17,11 L21,11 L21,12 L16.999,12 L16.999,16 L21,16 L21,17 L16.999,17 L17,21 L16,21 L15.999,17 L11.999,17 L12,21 L11,21 L10.999,17 L6.999,17 L7,21 L6,21 L5.999,17 L1,17 L1,16 L5.999,16 L5.999,12 L1,12 L1,11 L6,11 L6,7 L1,7 L1,6 L6,6 L6,1 L7,1 Z M10.999,12 L6.999,12 L6.999,16 L10.999,16 L10.999,12 Z M15.999,12 L11.999,12 L11.999,16 L15.999,16 L15.999,12 Z M11,7 L7,7 L7,11 L11,11 L11,7 Z M16,7 L12,7 L12,11 L16,11 L16,7 Z" opacity=".698"/>
    <circle cx="16" cy="16" r="2" fill="url(#五子棋-e)"/>
    <circle cx="11" cy="6" r="2" fill="url(#五子棋-e)"/>
    <circle cx="6" cy="11" r="2" fill="url(#五子棋-e)"/>
    <circle cx="2" cy="2" r="2" fill="url(#五子棋-f)" transform="translate(4 4)"/>
    <circle cx="2" cy="2" r="2" fill="url(#五子棋-f)" transform="translate(9 9)"/>
  </g>
</svg>
