<?xml version="1.0" encoding="UTF-8"?>
<svg width="24px" height="24px" viewBox="0 0 24 24" version="1.1" xmlns="http://www.w3.org/2000/svg" xmlns:xlink="http://www.w3.org/1999/xlink">
    <title>apps/24/deepin-calculator</title>
    <defs>
        <filter x="-7.5%" y="-7.5%" width="115.0%" height="115.0%" filterUnits="objectBoundingBox" id="filter-1">
            <feOffset dx="0" dy="0" in="SourceAlpha" result="shadowOffsetOuter1"></feOffset>
            <feGaussianBlur stdDeviation="0.5" in="shadowOffsetOuter1" result="shadowBlurOuter1"></feGaussianBlur>
            <feColorMatrix values="0 0 0 0 0   0 0 0 0 0   0 0 0 0 0  0 0 0 0.15 0" type="matrix" in="shadowBlurOuter1" result="shadowMatrixOuter1"></feColorMatrix>
            <feMerge>
                <feMergeNode in="shadowMatrixOuter1"></feMergeNode>
                <feMergeNode in="SourceGraphic"></feMergeNode>
            </feMerge>
        </filter>
        <radialGradient cx="50%" cy="9.26819408%" fx="50%" fy="9.26819408%" r="92.6181353%" id="radialGradient-2">
            <stop stop-color="#35DCFF" offset="0%"></stop>
            <stop stop-color="#0068FF" offset="100%"></stop>
        </radialGradient>
        <linearGradient x1="50%" y1="0%" x2="50%" y2="100%" id="linearGradient-3">
            <stop stop-color="#FFFFFF" offset="0%"></stop>
            <stop stop-color="#FFFFFF" stop-opacity="0.8" offset="100%"></stop>
        </linearGradient>
    </defs>
    <g id="apps/24/deepin-calculator" stroke="none" stroke-width="1" fill="none" fill-rule="evenodd">
        <g id="Group-3" filter="url(#filter-1)" transform="translate(2, 2)">
            <path d="M3,0 L17,0 C18.6568542,-3.04359188e-16 20,1.34314575 20,3 L20,17 C20,18.6568542 18.6568542,20 17,20 L3,20 C1.34314575,20 2.02906125e-16,18.6568542 0,17 L0,3 C-2.02906125e-16,1.34314575 1.34314575,3.04359188e-16 3,0 Z" id="Mask" fill="url(#radialGradient-2)"></path>
            <g id="Group" transform="translate(3.3, 12.4194)" fill="#FFFFFF">
                <polygon id="Combined-Shape" points="2.82842712 2.12132034 4.24264069 0.707106781 3.53553391 2.22044605e-16 2.12132034 1.41421356 0.707106781 0 0 0.707106781 1.41421356 2.12132034 4.4408921e-16 3.53553391 0.707106781 4.24264069 2.12132034 2.82842712 3.53553391 4.24264069 4.24264069 3.53553391"></polygon>
            </g>
            <g id="Group" fill="url(#linearGradient-3)">
                <path d="M20,10 L20,17 C20,18.6568542 18.6568542,20 17,20 L10,20 L10,10 L20,10 Z M17,15 L13,15 L13,16 L17,16 L17,15 Z M17,13 L13,13 L13,14 L17,14 L17,13 Z M10,0 L10,10 L0,10 L0,3 C-2.02906125e-16,1.34314575 1.34314575,3.04359188e-16 3,0 L10,0 Z M6,3 L5,3 L5,5 L3,5 L3,6 L5,6 L5,8 L6,8 L6,6 L8,6 L8,5 L6,5 L6,3 Z" id="形状结合"></path>
            </g>
            <g id="Group" transform="translate(13, 5)" fill="#FFFFFF">
                <rect id="Rectangle-3" x="0" y="0" width="4" height="1"></rect>
            </g>
            <g id="Group-2" transform="translate(13, 14)"></g>
        </g>
        <g id="Guide/24" transform="translate(0.5, 0.5)"></g>
    </g>
</svg>