<?xml version="1.0" encoding="UTF-8"?>
<svg width="24px" height="24px" viewBox="0 0 24 24" version="1.1" xmlns="http://www.w3.org/2000/svg" xmlns:xlink="http://www.w3.org/1999/xlink">
    <title>apps/24/deepin-system-monitor</title>
    <defs>
        <filter x="-6.8%" y="-6.8%" width="113.6%" height="113.6%" filterUnits="objectBoundingBox" id="filter-1">
            <feOffset dx="0" dy="0" in="SourceAlpha" result="shadowOffsetOuter1"></feOffset>
            <feGaussianBlur stdDeviation="0.5" in="shadowOffsetOuter1" result="shadowBlurOuter1"></feGaussianBlur>
            <feColorMatrix values="0 0 0 0 0   0 0 0 0 0   0 0 0 0 0  0 0 0 0.15 0" type="matrix" in="shadowBlurOuter1" result="shadowMatrixOuter1"></feColorMatrix>
            <feMerge>
                <feMergeNode in="shadowMatrixOuter1"></feMergeNode>
                <feMergeNode in="SourceGraphic"></feMergeNode>
            </feMerge>
        </filter>
        <radialGradient cx="38.2561849%" cy="21.1260463%" fx="38.2561849%" fy="21.1260463%" r="100.210009%" id="radialGradient-2">
            <stop stop-color="#665AFF" offset="0%"></stop>
            <stop stop-color="#4300D7" offset="100%"></stop>
        </radialGradient>
        <radialGradient cx="50%" cy="52.2797758%" fx="50%" fy="52.2797758%" r="54.4239253%" id="radialGradient-3">
            <stop stop-color="#00D8FF" offset="0%"></stop>
            <stop stop-color="#3D00B5" offset="100%"></stop>
        </radialGradient>
    </defs>
    <g id="apps/24/deepin-system-monitor" stroke="none" stroke-width="1" fill="none" fill-rule="evenodd">
        <g id="编组" filter="url(#filter-1)" transform="translate(1, 1)">
            <circle id="Oval-3" fill="url(#radialGradient-2)" cx="11" cy="11" r="11"></circle>
            <circle id="Oval-3" fill="url(#radialGradient-3)" cx="11" cy="11" r="8"></circle>
            <line x1="3" y1="8.75" x2="18.75" y2="8.75" id="Path-6" stroke="#FFFFFF" stroke-width="0.5" opacity="0.1"></line>
            <rect id="Rectangle" fill="#FFFFFF" opacity="0.5" x="10" y="19" width="2" height="1"></rect>
            <line x1="6" y1="4.25" x2="15.75" y2="4.25" id="Path-6" stroke="#FFFFFF" stroke-width="0.5" opacity="0.1"></line>
            <line x1="3" y1="13.25" x2="18.75" y2="13.25" id="Path-6" stroke="#FFFFFF" stroke-width="0.5" opacity="0.1"></line>
            <line x1="13.25" y1="19" x2="13.25" y2="3" id="Path-6" stroke="#FFFFFF" stroke-width="0.5" opacity="0.1"></line>
            <line x1="17.75" y1="15.5" x2="17.75" y2="6.5" id="Path-6" stroke="#FFFFFF" stroke-width="0.5" opacity="0.1"></line>
            <line x1="8.75" y1="19" x2="8.75" y2="2.5" id="Path-6" stroke="#FFFFFF" stroke-width="0.5" opacity="0.1"></line>
            <line x1="4.25" y1="15.5" x2="4.25" y2="6.5" id="Path-6" stroke="#FFFFFF" stroke-width="0.5" opacity="0.1"></line>
            <line x1="6" y1="17.75" x2="16" y2="17.75" id="Path-6" stroke="#FFFFFF" stroke-width="0.5" opacity="0.1"></line>
            <path d="M14.7312418,18.6394025 C17.5552366,17.2575135 19.5,14.3558686 19.5,11 C19.5,6.30557963 15.6944204,2.5 11,2.5 C6.30557963,2.5 2.5,6.30557963 2.5,11 C2.5,14.3632572 4.45333629,17.2702883 7.28742353,18.6485078" id="Oval-2" stroke="#FFFFFF" opacity="0.5" stroke-linecap="round"></path>
            <path d="M11,2.5 C6.30557963,2.5 2.5,6.30557963 2.5,11 C2.5,14.3632572 4.45333629,17.2702883 7.28742353,18.6485078" id="Oval-2" stroke="#FFFFFF" stroke-linecap="round"></path>
            <path d="M4.5,12.394791 C4.83333333,13.1199452 5.33333333,13.4825223 6,13.4825223 C8.16666667,13.4825223 6.83333333,7.5 9,7.5 C11.1666667,7.5 9.83333333,13.4825223 12,13.4825223 C13.4444444,13.4825223 13,10.5 14.5,10.5 C16,10.5 14.8518519,13.7544551 17.5,13.4825223" id="Path-5" stroke="#FFFFFF" stroke-linecap="round" stroke-linejoin="round"></path>
        </g>
        <g id="Guide/24" transform="translate(0.5, 0.5)"></g>
    </g>
</svg>