<?xml version="1.0" encoding="UTF-8"?>
<svg width="24px" height="24px" viewBox="0 0 24 24" version="1.1" xmlns="http://www.w3.org/2000/svg" xmlns:xlink="http://www.w3.org/1999/xlink">
    <title>apps/24/deepin-mail</title>
    <defs>
        <filter x="-12.5%" y="-11.4%" width="127.0%" height="135.7%" filterUnits="objectBoundingBox" id="filter-1">
            <feOffset dx="0" dy="0" in="SourceAlpha" result="shadowOffsetOuter1"></feOffset>
            <feGaussianBlur stdDeviation="0.5" in="shadowOffsetOuter1" result="shadowBlurOuter1"></feGaussianBlur>
            <feColorMatrix values="0 0 0 0 0   0 0 0 0 0   0 0 0 0 0  0 0 0 0.15 0" type="matrix" in="shadowBlurOuter1" result="shadowMatrixOuter1"></feColorMatrix>
            <feMerge>
                <feMergeNode in="shadowMatrixOuter1"></feMergeNode>
                <feMergeNode in="SourceGraphic"></feMergeNode>
            </feMerge>
        </filter>
        <linearGradient x1="50%" y1="0%" x2="50%" y2="100%" id="linearGradient-2">
            <stop stop-color="#080030" offset="0%"></stop>
            <stop stop-color="#002F48" offset="100%"></stop>
        </linearGradient>
        <path d="M1.76315341,0.00145898349 C0.666201635,0.00145898349 -0.223053482,0.753063859 -0.223053482,1.68021546 L-0.223053482,16.3227025 C-0.223053482,17.2498541 0.666201635,18.001459 1.76315341,18.001459 L13.7907396,18.001459 C14.8876914,18.001459 15.7769465,17.2498541 15.7769465,16.3227025 L15.7769465,1.68021546 C15.7769465,0.753063859 14.8876914,0.00145898349 13.7907396,0.00145898349 L1.76315341,0.00145898349 Z" id="path-3"></path>
        <linearGradient x1="3.38077148%" y1="56.037905%" x2="74.0374777%" y2="63.0365072%" id="linearGradient-5">
            <stop stop-color="#00807D" offset="0%"></stop>
            <stop stop-color="#0013AE" offset="100%"></stop>
        </linearGradient>
        <linearGradient x1="8.68155965%" y1="67.0734404%" x2="71.2944657%" y2="43.1874836%" id="linearGradient-6">
            <stop stop-color="#00499C" offset="0%"></stop>
            <stop stop-color="#000A72" offset="100%"></stop>
        </linearGradient>
        <ellipse id="path-7" cx="13.6621433" cy="0.0440720422" rx="4.86749726" ry="4.35242281"></ellipse>
        <filter x="-15.4%" y="-17.2%" width="130.8%" height="134.5%" filterUnits="objectBoundingBox" id="filter-8">
            <feOffset dx="3" dy="1" in="SourceAlpha" result="shadowOffsetInner1"></feOffset>
            <feComposite in="shadowOffsetInner1" in2="SourceAlpha" operator="arithmetic" k2="-1" k3="1" result="shadowInnerInner1"></feComposite>
            <feColorMatrix values="0 0 0 0 1   0 0 0 0 1   0 0 0 0 1  0 0 0 0.1 0" type="matrix" in="shadowInnerInner1"></feColorMatrix>
        </filter>
        <linearGradient x1="50%" y1="0%" x2="50%" y2="100%" id="linearGradient-9">
            <stop stop-color="#FAD961" offset="0%"></stop>
            <stop stop-color="#F76B1C" offset="100%"></stop>
        </linearGradient>
        <linearGradient x1="50%" y1="0%" x2="50%" y2="100%" id="linearGradient-10">
            <stop stop-color="#FAD961" offset="0%"></stop>
            <stop stop-color="#F76B1C" offset="100%"></stop>
        </linearGradient>
        <linearGradient x1="30.0727141%" y1="16.1853093%" x2="80.5342614%" y2="62.1898145%" id="linearGradient-11">
            <stop stop-color="#004940" offset="0%"></stop>
            <stop stop-color="#001D3C" offset="100%"></stop>
        </linearGradient>
        <ellipse id="path-12" cx="2.3783997" cy="18.3440316" rx="2.87624838" ry="2.57188621"></ellipse>
        <filter x="-17.4%" y="-19.4%" width="134.8%" height="138.9%" filterUnits="objectBoundingBox" id="filter-13">
            <feOffset dx="2" dy="1" in="SourceAlpha" result="shadowOffsetInner1"></feOffset>
            <feComposite in="shadowOffsetInner1" in2="SourceAlpha" operator="arithmetic" k2="-1" k3="1" result="shadowInnerInner1"></feComposite>
            <feColorMatrix values="0 0 0 0 1   0 0 0 0 1   0 0 0 0 1  0 0 0 0.1 0" type="matrix" in="shadowInnerInner1"></feColorMatrix>
        </filter>
        <linearGradient x1="27.9639812%" y1="60.5343838%" x2="60.4101874%" y2="98.1833451%" id="linearGradient-14">
            <stop stop-color="#33B8EC" offset="0%"></stop>
            <stop stop-color="#B5DEFF" offset="100%"></stop>
        </linearGradient>
        <linearGradient x1="34.0760377%" y1="58.3894118%" x2="1.46165993%" y2="98.1833451%" id="linearGradient-15">
            <stop stop-color="#00B7FF" offset="0%"></stop>
            <stop stop-color="#87CAFF" offset="100%"></stop>
        </linearGradient>
        <polygon id="path-16" points="5.42383644 7.02967479 4.01938105 9.11765127 13.3073233 -9.74279511e-13"></polygon>
        <filter x="-5.4%" y="-5.5%" width="110.8%" height="111.0%" filterUnits="objectBoundingBox" id="filter-17">
            <feOffset dx="1" dy="1" in="SourceAlpha" result="shadowOffsetInner1"></feOffset>
            <feComposite in="shadowOffsetInner1" in2="SourceAlpha" operator="arithmetic" k2="-1" k3="1" result="shadowInnerInner1"></feComposite>
            <feColorMatrix values="0 0 0 0 1   0 0 0 0 1   0 0 0 0 1  0 0 0 0.5 0" type="matrix" in="shadowInnerInner1"></feColorMatrix>
        </filter>
        <filter x="-30.1%" y="-18.6%" width="160.1%" height="174.2%" filterUnits="objectBoundingBox" id="filter-18">
            <feOffset dx="0" dy="2" in="SourceAlpha" result="shadowOffsetOuter1"></feOffset>
            <feGaussianBlur stdDeviation="1" in="shadowOffsetOuter1" result="shadowBlurOuter1"></feGaussianBlur>
            <feColorMatrix values="0 0 0 0 0   0 0 0 0 0   0 0 0 0 0  0 0 0 0.2 0" type="matrix" in="shadowBlurOuter1" result="shadowMatrixOuter1"></feColorMatrix>
            <feMerge>
                <feMergeNode in="shadowMatrixOuter1"></feMergeNode>
                <feMergeNode in="SourceGraphic"></feMergeNode>
            </feMerge>
        </filter>
        <linearGradient x1="98.2475456%" y1="38.0079771%" x2="10.4235407%" y2="60.2459531%" id="linearGradient-19">
            <stop stop-color="#6DB4FF" offset="0%"></stop>
            <stop stop-color="#D5FFFD" offset="100%"></stop>
        </linearGradient>
        <linearGradient x1="75.2201577%" y1="3.1102325%" x2="50%" y2="94.7721121%" id="linearGradient-20">
            <stop stop-color="#57A2FF" offset="0%"></stop>
            <stop stop-color="#D3F9FF" offset="100%"></stop>
        </linearGradient>
    </defs>
    <g id="apps/24/deepin-mail" stroke="none" stroke-width="1" fill="none" fill-rule="evenodd">
        <g id="编组-2" filter="url(#filter-1)" transform="translate(2.0007, 1)">
            <path d="M16.4992632,1 C17.055127,1 17.5403714,0.697642038 17.7995028,0.248419628 C18.3314201,0.446509965 18.798389,0.758951509 19.1636121,1.1507554 C19.0583382,1.35557007 18.9992632,1.58747491 18.9992632,1.83317747 C18.9992632,2.48602417 19.4163312,3.0414594 19.9985602,3.24757596 L19.9985602,4.41877899 C19.4163312,4.62489554 18.9992632,5.18033077 18.9992632,5.83317747 C18.9992632,6.48602417 19.4163312,7.0414594 19.9985602,7.24757596 L19.9985602,9.41877899 C19.4163312,9.62489554 18.9992632,10.1803308 18.9992632,10.8331775 C18.9992632,11.4860242 19.4163312,12.0414594 19.9985602,12.247576 L19.9985602,13.418779 C19.4163312,13.6248955 18.9992632,14.1803308 18.9992632,14.8331775 C18.9992632,15.4860242 19.4163312,16.0414594 19.9985602,16.247576 L19.9985602,18.418779 C19.4163312,18.6248955 18.9992632,19.1803308 18.9992632,19.8331775 C18.9992632,20.160685 19.1042239,20.4636776 19.2823423,20.7103521 C18.902683,21.1663351 18.3904067,21.5285165 17.7972807,21.7512427 C17.538208,21.3010117 17.0538881,21 16.4992632,21 C15.8467885,21 15.2916142,21.4165929 15.0852174,21.9983019 L13.913309,21.9983019 C13.7069121,21.4165929 13.1517379,21 12.4992632,21 C11.8467885,21 11.2916142,21.4165929 11.0852174,21.9983019 L8.91330897,21.9983019 C8.70691209,21.4165929 8.15173787,21 7.49926316,21 C6.84678845,21 6.29161424,21.4165929 6.08521735,21.9983019 L4.91330897,21.9983019 C4.70691209,21.4165929 4.15173787,21 3.49926316,21 C2.94463822,21 2.46031832,21.3010117 2.20075959,21.7485788 C1.74027081,21.5776406 1.32821857,21.3201951 0.988780889,20.9999061 C0.996157656,20.945121 0.999263162,20.8895119 0.999263162,20.8331775 C0.999263162,20.2102003 0.619486014,19.6759248 0.0788204521,19.4492397 C0.0271860346,19.2336917 0.000198329448,19.0085469 0.000198329448,18.7777312 L0.000570880113,17.2473617 C0.582483861,17.0410747 0.999263162,16.4857981 0.999263162,15.8331775 C0.999263162,15.1805568 0.582483861,14.6252802 0.000570880113,14.4189932 L0.000570880114,13.2473617 C0.582483861,13.0410747 0.999263162,12.4857981 0.999263162,11.8331775 C0.999263162,11.1805568 0.582483861,10.6252802 0.000570880114,10.4189932 L0.000570880112,8.24736172 C0.582483861,8.04107474 0.999263162,7.48579812 0.999263162,6.83317747 C0.999263162,6.18055683 0.582483861,5.6252802 0.000570880112,5.41899322 L0.000570880114,4.24736172 C0.582483861,4.04107474 0.999263162,3.48579812 0.999263162,2.83317747 C0.999263162,2.36273582 0.782694281,1.94287655 0.443815828,1.66785895 C0.830563205,1.0328457 1.4507447,0.528248063 2.20017255,0.246344057 C2.45815492,0.697642038 2.9433993,1 3.49926316,1 C4.15263351,1 4.70843607,0.582262586 4.91415695,-0.000698378907 L6.08436937,-0.000698378906 C6.29009026,0.582262586 6.84589281,1 7.49926316,1 C8.15263351,1 8.70843607,0.582262586 8.91415695,-0.000698378906 L11.0843694,-0.000698378905 C11.2900903,0.582262586 11.8458928,1 12.4992632,1 C13.1526335,1 13.7084361,0.582262586 13.914157,-0.000698378905 L15.0843694,-0.000698378907 C15.2900903,0.582262586 15.8458928,1 16.4992632,1 Z M15.7944367,1.99854102 L4.19029865,1.99854102 C3.09527918,1.99854102 2.20759051,2.79717191 2.20759051,3.78233305 L2.20759051,18.2190163 C2.20759051,19.2041775 3.09527918,20.0028084 4.19029865,20.0028084 L15.7944367,20.0028084 C16.8894562,20.0028084 17.7771448,19.2041775 17.7771448,18.2190163 L17.7771448,3.78233305 C17.7771448,2.79717191 16.8894562,1.99854102 15.7944367,1.99854102 Z" id="形状结合" fill="#F3F3F3" fill-rule="nonzero"></path>
            <path d="M6.79191883,-1.00069838 L7.02737495,-0.333475285 C7.09724913,-0.13546954 7.28546303,1.33226763e-15 7.49926316,1.33226763e-15 C7.7130633,1.33226763e-15 7.90127719,-0.13546954 7.97115137,-0.333475285 L8.20660749,-1.00069838 L11.7919188,-1.00069838 L12.027375,-0.333475285 C12.0972491,-0.13546954 12.285463,1.33226763e-15 12.4992632,1.33226763e-15 C12.7130633,1.33226763e-15 12.9012772,-0.13546954 12.9711514,-0.333475285 L13.2066075,-1.00069838 L15.7919188,-1.00069838 L16.027375,-0.333475285 C16.0972491,-0.13546954 16.285463,1.33226763e-15 16.4992632,1.33226763e-15 C16.6805711,1.33226763e-15 16.8440034,-0.096471099 16.9332877,-0.251251614 L17.3558977,-0.983875689 L18.1484959,-0.688705672 C18.8205958,-0.438410197 19.4200593,-0.0407130076 19.8950961,0.46889677 L20.3742437,0.982916468 L20.0530046,1.60789976 C20.0177735,1.6764433 19.9992632,1.75219403 19.9992632,1.83317747 C19.9992632,2.04680024 20.1345037,2.23488828 20.3322785,2.30490312 L20.9985602,2.54077542 L20.9985602,5.12557952 L20.3322785,5.36145182 C20.1345037,5.43146667 19.9992632,5.61955471 19.9992632,5.83317747 C19.9992632,6.04680024 20.1345037,6.23488828 20.3322785,6.30490312 L20.9985602,6.54077542 L20.9985602,10.1255795 L20.3322785,10.3614518 C20.1345037,10.4314667 19.9992632,10.6195547 19.9992632,10.8331775 C19.9992632,11.0468002 20.1345037,11.2348883 20.3322785,11.3049031 L20.9985602,11.5407754 L20.9985602,14.1255795 L20.3322785,14.3614518 C20.1345037,14.4314667 19.9992632,14.6195547 19.9992632,14.8331775 C19.9992632,15.0468002 20.1345037,15.2348883 20.3322785,15.3049031 L20.9985602,15.5407754 L20.9985602,19.1255795 L20.3322785,19.3614518 C20.1345037,19.4314667 19.9992632,19.6195547 19.9992632,19.8331775 C19.9992632,19.9406253 20.0320988,20.0404902 20.0930768,20.1249381 L20.5472816,20.7539622 L20.0508342,21.3502116 C19.556672,21.9437162 18.8989937,22.4057163 18.1488248,22.687414 L17.3539842,22.9858866 L16.9305325,22.2499885 C16.8416489,22.0955218 16.6798515,22 16.4992632,22 C16.2857664,22 16.0977678,22.135078 16.0276533,22.3326888 L15.7914862,22.9983019 L13.2070401,22.9983019 L12.9708731,22.3326888 C12.9007585,22.135078 12.7127599,22 12.4992632,22 C12.2857664,22 12.0977678,22.135078 12.0276533,22.3326888 L11.7914862,22.9983019 L8.20704008,22.9983019 L7.97087306,22.3326888 C7.90075853,22.135078 7.71275995,22 7.49926316,22 C7.28576638,22 7.09776779,22.135078 7.02765326,22.3326888 L6.79148624,22.9983019 L4.20704008,22.9983019 L3.97087306,22.3326888 C3.90075853,22.135078 3.71275995,22 3.49926316,22 C3.31836247,22 3.15525946,22.0960226 3.06581614,22.2502532 L2.64295829,22.9794034 L1.85275277,22.6860709 C1.27132367,22.4702383 0.743120004,22.143006 0.302487065,21.7272305 L-0.0707555046,21.3750437 L-0.002275358,20.8664613 C-0.00140614077,20.8600059 -0.000736838293,20.8490541 -0.000736838293,20.8331775 C-0.000736838293,20.6296136 -0.123264227,20.448849 -0.307839981,20.3714619 L-0.775525982,20.175375 L-0.893666183,19.6821984 C-0.964066174,19.3883134 -0.999801641,19.0849103 -0.999801641,18.7774878 L-0.999257151,16.5408233 L-0.333553723,16.3048328 C-0.135878562,16.2347574 -0.000736838293,16.0467237 -0.000736838293,15.8331775 C-0.000736838293,15.6196313 -0.135878562,15.4315976 -0.333553723,15.3615221 L-0.99942912,15.1254706 L-0.99942912,12.5408843 L-0.333553723,12.3048328 C-0.135878562,12.2347574 -0.000736838293,12.0467237 -0.000736838293,11.8331775 C-0.000736838293,11.6196313 -0.135878562,11.4315976 -0.333553723,11.3615221 L-0.99942912,11.1254706 L-0.99942912,7.5408843 L-0.333553723,7.30483281 C-0.135878562,7.23475736 -0.000736838293,7.04672368 -0.000736838293,6.83317747 C-0.000736838293,6.61963127 -0.135878562,6.43159758 -0.333553723,6.36152214 L-0.99942912,6.12547065 L-0.99942912,3.5408843 L-0.333553723,3.30483281 C-0.135878562,3.23475736 -0.000736838293,3.04672368 -0.000736838293,2.83317747 C-0.000736838293,2.67972368 -0.0690032309,2.53955257 -0.186333456,2.44433296 L-0.864672521,1.89382531 L-0.410252735,1.14769851 C0.0958804652,0.31666174 0.895255594,-0.331207688 1.84809826,-0.689628003 L2.64551832,-0.98958471 L3.06833462,-0.249936721 C3.15642035,-0.0958451407 3.31836882,1.33226763e-15 3.49926316,1.33226763e-15 C3.7130633,1.33226763e-15 3.90127719,-0.13546954 3.97115137,-0.333475285 L4.20660749,-1.00069838 L6.79191883,-1.00069838 Z M6.08436937,-0.000698378907 L4.91415695,-0.000698378907 C4.70843607,0.582262586 4.15263351,1 3.49926316,1 C2.9433993,1 2.45815492,0.697642038 2.20017255,0.246344057 C1.4507447,0.528248063 0.830563205,1.0328457 0.443815828,1.66785895 C0.782694281,1.94287655 0.999263162,2.36273582 0.999263162,2.83317747 C0.999263162,3.48579812 0.582483861,4.04107474 0.000570880114,4.24736172 L0.000570880112,5.41899322 C0.582483861,5.6252802 0.999263162,6.18055683 0.999263162,6.83317747 C0.999263162,7.48579812 0.582483861,8.04107474 0.000570880112,8.24736172 L0.000570880114,10.4189932 C0.582483861,10.6252802 0.999263162,11.1805568 0.999263162,11.8331775 C0.999263162,12.4857981 0.582483861,13.0410747 0.000570880114,13.2473617 L0.000570880113,14.4189932 C0.582483861,14.6252802 0.999263162,15.1805568 0.999263162,15.8331775 C0.999263162,16.4857981 0.582483861,17.0410747 0.000570880113,17.2473617 L0.000198329448,18.7777312 C0.000198329448,19.0085469 0.0271860346,19.2336917 0.0788204521,19.4492397 C0.619486014,19.6759248 0.999263162,20.2102003 0.999263162,20.8331775 C0.999263162,20.8895119 0.996157656,20.945121 0.988780889,20.9999061 C1.32821857,21.3201951 1.74027081,21.5776406 2.20075959,21.7485788 C2.46031832,21.3010117 2.94463822,21 3.49926316,21 C4.15173787,21 4.70691209,21.4165929 4.91330897,21.9983019 L6.08521735,21.9983019 C6.29161424,21.4165929 6.84678845,21 7.49926316,21 C8.15173787,21 8.70691209,21.4165929 8.91330897,21.9983019 L11.0852174,21.9983019 C11.2916142,21.4165929 11.8467885,21 12.4992632,21 C13.1517379,21 13.7069121,21.4165929 13.913309,21.9983019 L15.0852174,21.9983019 C15.2916142,21.4165929 15.8467885,21 16.4992632,21 C17.0538881,21 17.538208,21.3010117 17.7972807,21.7512427 C18.3904067,21.5285165 18.902683,21.1663351 19.2823423,20.7103521 C19.1042239,20.4636776 18.9992632,20.160685 18.9992632,19.8331775 C18.9992632,19.1803308 19.4163312,18.6248955 19.9985602,18.418779 L19.9985602,16.247576 C19.4163312,16.0414594 18.9992632,15.4860242 18.9992632,14.8331775 C18.9992632,14.1803308 19.4163312,13.6248955 19.9985602,13.418779 L19.9985602,12.247576 C19.4163312,12.0414594 18.9992632,11.4860242 18.9992632,10.8331775 C18.9992632,10.1803308 19.4163312,9.62489554 19.9985602,9.41877899 L19.9985602,7.24757596 C19.4163312,7.0414594 18.9992632,6.48602417 18.9992632,5.83317747 C18.9992632,5.18033077 19.4163312,4.62489554 19.9985602,4.41877899 L19.9985602,3.24757596 C19.4163312,3.0414594 18.9992632,2.48602417 18.9992632,1.83317747 C18.9992632,1.58747491 19.0583382,1.35557007 19.1636121,1.1507554 C18.798389,0.758951509 18.3314201,0.446509965 17.7995028,0.248419628 C17.5403714,0.697642038 17.055127,1 16.4992632,1 C15.8458928,1 15.2900903,0.582262586 15.0843694,-0.000698378907 L13.914157,-0.000698378907 C13.7084361,0.582262586 13.1526335,1 12.4992632,1 C11.8458928,1 11.2900903,0.582262586 11.0843694,-0.000698378907 L8.91415695,-0.000698378907 C8.70843607,0.582262586 8.15263351,1 7.49926316,1 C6.84589281,1 6.29009026,0.582262586 6.08436937,-0.000698378907 Z M15.7944367,1.99854102 C16.8894562,1.99854102 17.7771448,2.79717191 17.7771448,3.78233305 L17.7771448,18.2190163 C17.7771448,19.2041775 16.8894562,20.0028084 15.7944367,20.0028084 L4.19029865,20.0028084 C3.09527918,20.0028084 2.20759051,19.2041775 2.20759051,18.2190163 L2.20759051,3.78233305 C2.20759051,2.79717191 3.09527918,1.99854102 4.19029865,1.99854102 L15.7944367,1.99854102 Z M15.7944367,2.99854102 L4.19029865,2.99854102 C3.62537515,2.99854102 3.20759051,3.37441122 3.20759051,3.78233305 L3.20759051,18.2190163 C3.20759051,18.6269382 3.62537515,19.0028084 4.19029865,19.0028084 L15.7944367,19.0028084 C16.3593602,19.0028084 16.7771448,18.6269382 16.7771448,18.2190163 L16.7771448,3.78233305 C16.7771448,3.37441122 16.3593602,2.99854102 15.7944367,2.99854102 Z" id="形状结合" fill-opacity="0.05" fill="#000000" fill-rule="nonzero"></path>
            <g id="编组" transform="translate(2.2223, 1.9985)">
                <mask id="mask-4" fill="white">
                    <use xlink:href="#path-3"></use>
                </mask>
                <use id="蒙版" fill="url(#linearGradient-2)" fill-rule="nonzero" xlink:href="#path-3"></use>
                <path d="M5.34485054,-0.000560370512 C5.16939407,0.196522835 5.0534306,0.409863543 5.00388033,0.637801013 C4.60659101,2.46540696 8.56580219,4.85446055 13.9393034,5.78846775 C14.4861677,5.88351553 15.0257739,5.9596845 15.5543554,6.01790556 L15.5543554,6.77427009 C14.9733727,6.71201179 14.380912,6.62907849 13.7813012,6.52486309 C13.0875032,6.40426906 12.4145049,6.2604593 11.76821,6.09657943 L11.1310348,5.92612602 C6.73617752,4.68775301 3.74621095,2.51732347 4.18609108,0.493790586 C4.22352153,0.321605569 4.28444248,0.156755582 4.36741708,-0.000560370512 L5.34485054,-0.000560370512 Z" id="路径" fill="url(#linearGradient-5)" fill-rule="nonzero" opacity="0.502906436" mask="url(#mask-4)"></path>
                <g id="椭圆形" opacity="0.5" mask="url(#mask-4)">
                    <use fill="url(#linearGradient-6)" fill-rule="evenodd" xlink:href="#path-7"></use>
                    <use fill="black" fill-opacity="1" filter="url(#filter-8)" xlink:href="#path-7"></use>
                </g>
                <ellipse id="椭圆形" fill="url(#linearGradient-9)" mask="url(#mask-4)" cx="5.55529579" cy="3" rx="1.11105916" ry="1"></ellipse>
                <path d="M5.55529579,1.25 C4.48145899,1.25 3.61094226,2.03350169 3.61094226,3 C3.61094226,3.96649831 4.48145899,4.75 5.55529579,4.75 C6.62913259,4.75 7.49964931,3.96649831 7.49964931,3 C7.49964931,2.03350169 6.62913259,1.25 5.55529579,1.25 Z M5.55529579,2 C6.16891682,2 6.66635494,2.44771525 6.66635494,3 C6.66635494,3.55228475 6.16891682,4 5.55529579,4 C4.94167476,4 4.44423663,3.55228475 4.44423663,3 C4.44423663,2.44771525 4.94167476,2 5.55529579,2 Z" id="椭圆形" fill="#070935" fill-rule="nonzero" mask="url(#mask-4)"></path>
                <ellipse id="椭圆形" fill="url(#linearGradient-10)" mask="url(#mask-4)" cx="13.8882395" cy="16.5" rx="1" ry="1"></ellipse>
                <g id="椭圆形" mask="url(#mask-4)">
                    <use fill="url(#linearGradient-11)" fill-rule="evenodd" xlink:href="#path-12"></use>
                    <use fill="black" fill-opacity="1" filter="url(#filter-13)" xlink:href="#path-12"></use>
                </g>
            </g>
            <g id="编组-4" transform="translate(9.3495, 13.4818) rotate(-28) translate(-9.3495, -13.4818)translate(2.6958, 8.0862)">
                <polygon id="路径-2" fill="url(#linearGradient-14)" points="4.43083137 6.52410095 4.01938105 9.11765127 13.3073233 -9.74279511e-13"></polygon>
                <g id="路径-2">
                    <use fill="url(#linearGradient-15)" fill-rule="evenodd" xlink:href="#path-16"></use>
                    <use fill="black" fill-opacity="1" filter="url(#filter-17)" xlink:href="#path-16"></use>
                </g>
                <g id="编组-5" filter="url(#filter-18)" transform="translate(-0, 0.0104)">
                    <polygon id="路径-2" fill="url(#linearGradient-19)" points="4.43083137 6.51366466 13.3003838 5.92372289e-12 1.91462493e-12 5.87141167"></polygon>
                    <polygon id="路径-2" fill="url(#linearGradient-20)" points="5.42383644 7.0192385 13.3003838 5.73795938e-13 9.99594063 10.7807013"></polygon>
                </g>
            </g>
        </g>
        <g id="Guide/24" transform="translate(0.5, 0.5)"></g>
    </g>
</svg>