<svg xmlns="http://www.w3.org/2000/svg" width="24" height="24" viewBox="0 0 24 24">
  <defs>
    <filter id="deepin-picker-a" width="122.7%" height="122.7%" x="-11.4%" y="-11.4%" filterUnits="objectBoundingBox">
      <feOffset in="SourceAlpha" result="shadowOffsetOuter1"/>
      <feGaussianBlur in="shadowOffsetOuter1" result="shadowBlurOuter1" stdDeviation=".5"/>
      <feComposite in="shadowBlurOuter1" in2="SourceAlpha" operator="out" result="shadowBlurOuter1"/>
      <feColorMatrix in="shadowBlurOuter1" result="shadowMatrixOuter1" values="0 0 0 0 0   0 0 0 0 0   0 0 0 0 0  0 0 0 0.15 0"/>
      <feMerge>
        <feMergeNode in="shadowMatrixOuter1"/>
        <feMergeNode in="SourceGraphic"/>
      </feMerge>
    </filter>
    <linearGradient id="deepin-picker-b" x1="50%" x2="50%" y1="0%" y2="96.171%">
      <stop offset="0%" stop-color="#2E2E2E"/>
      <stop offset="100%" stop-color="#121212"/>
    </linearGradient>
    <linearGradient id="deepin-picker-c" x1="73.941%" x2="23.567%" y1="21.464%" y2="79.721%">
      <stop offset="0%" stop-color="#7366FF"/>
      <stop offset="100%" stop-color="#1696FF"/>
    </linearGradient>
    <linearGradient id="deepin-picker-d" x1="100%" x2="20.305%" y1="50%" y2="50%">
      <stop offset="0%" stop-color="#8D47FF"/>
      <stop offset="100%" stop-color="#6671FF"/>
    </linearGradient>
    <linearGradient id="deepin-picker-e" x1="22.068%" x2="50%" y1="112.692%" y2="18.521%">
      <stop offset="0%" stop-color="#30CED6"/>
      <stop offset="31.564%" stop-color="#28BCE3"/>
      <stop offset="100%" stop-color="#1696FF"/>
    </linearGradient>
    <linearGradient id="deepin-picker-f" x1="26.073%" x2="12.986%" y1="92.736%" y2="1.161%">
      <stop offset="0%" stop-color="#7EE22C"/>
      <stop offset="100%" stop-color="#30D6B2"/>
    </linearGradient>
    <linearGradient id="deepin-picker-g" x1="79.217%" x2="22.467%" y1="68.141%" y2="26.333%">
      <stop offset="0%" stop-color="#C1EA55"/>
      <stop offset="100%" stop-color="#74E126"/>
    </linearGradient>
    <linearGradient id="deepin-picker-h" x1="100%" x2="16.903%" y1="50%" y2="50%">
      <stop offset="0%" stop-color="#FBEF4D"/>
      <stop offset="100%" stop-color="#B9EA56"/>
    </linearGradient>
    <linearGradient id="deepin-picker-i" x1="70.982%" x2="6.761%" y1="30.681%" y2="61.264%">
      <stop offset="0%" stop-color="#FFD600"/>
      <stop offset="100%" stop-color="#FFED58"/>
    </linearGradient>
    <linearGradient id="deepin-picker-j" x1="74.532%" x2="23.798%" y1="19.114%" y2="80.27%">
      <stop offset="0%" stop-color="#FFC134"/>
      <stop offset="100%" stop-color="#FBE04D"/>
    </linearGradient>
    <linearGradient id="deepin-picker-k" x1="61.454%" x2="84.081%" y1="84.281%" y2="8.538%">
      <stop offset="0%" stop-color="#F5B543"/>
      <stop offset="100%" stop-color="#EF7640"/>
    </linearGradient>
    <linearGradient id="deepin-picker-l" x1="50%" x2="32.704%" y1="112.211%" y2="28.854%">
      <stop offset="0%" stop-color="#EF7640"/>
      <stop offset="100%" stop-color="#FB563F"/>
    </linearGradient>
    <linearGradient id="deepin-picker-m" x1="68.76%" x2="22.262%" y1="87.852%" y2="25.963%">
      <stop offset="0%" stop-color="#FB563F"/>
      <stop offset="100%" stop-color="#DA377B"/>
    </linearGradient>
    <linearGradient id="deepin-picker-n" x1="82.465%" x2="-.423%" y1="50%" y2="37.72%">
      <stop offset="0%" stop-color="#DA377B"/>
      <stop offset="100%" stop-color="#894CEC"/>
    </linearGradient>
  </defs>
  <g fill="none" fill-rule="evenodd" filter="url(#deepin-picker-a)" transform="translate(1 1)">
    <circle cx="11" cy="11" r="11" fill="url(#deepin-picker-b)"/>
    <g transform="translate(1 1)">
      <path fill="url(#deepin-picker-c)" d="M4.62760008,1.56421936 L6.4984532,4.64196522 C5.74478065,5.1355034 5.10156508,5.78376923 4.61393663,6.54163256 L1.48508897,4.75364996 C2.27867398,3.46838587 3.35512291,2.37629711 4.62760008,1.56421936 L4.62760008,1.56421936 Z"/>
      <path fill="url(#deepin-picker-d)" d="M5.5854501,1.02467232 C6.91684674,0.368574805 8.41538074,0 10,0 L10.0178571,0 L10.0178571,3.60002325 C10.0119067,3.60000813 10.0059543,3.6 10,3.6 C9.07704699,3.6 8.19972478,3.7953687 7.40713262,4.14700687 L5.5854501,1.02467232 L5.5854501,1.02467232 Z"/>
      <path fill="url(#deepin-picker-e)" d="M0.997160746,5.64172405 L4.13833271,7.42677349 C3.79215729,8.21420882 3.6,9.08466404 3.6,10 C3.6,10.0059543 3.60000813,10.0119067 3.60002438,10.0178571 L0,10.0178571 L0,10 C0,8.43766711 0.358280307,6.95901506 0.997160746,5.64172405 L0.997160746,5.64172405 Z"/>
      <path fill="url(#deepin-picker-f)" d="M0.0501114362,11.0178571 L3.68049466,11.0178571 C3.81716768,11.8730749 4.12326895,12.6717469 4.56329822,13.3783731 L1.42486725,15.190347 C0.682774305,13.9508439 0.200308278,12.534387 0.0501114362,11.0178571 L0.0501114362,11.0178571 Z"/>
      <path fill="url(#deepin-picker-g)" d="M1.98220215,16.0232701 L5.16057848,14.1882337 C5.67122375,14.7777576 6.28778757,15.2730258 6.98067235,15.6444409 L5.16232294,18.7939145 C3.91250948,18.1091309 2.82922298,17.1609802 1.98220215,16.0232701 L1.98220215,16.0232701 Z"/>
      <path fill="url(#deepin-picker-h)" d="M6.06522928,19.2300348 L7.90221901,16.0482753 C8.55940907,16.2761828 9.26524501,16.4 10,16.4 C10.0059543,16.4 10.0119067,16.3999919 10.0178571,16.3999756 L10.0178571,19.999382 C9.98041856,19.9997933 9.94293492,20 9.90540737,20 C8.5392108,20 7.24279161,19.7260305 6.06522928,19.2300348 L6.06522928,19.2300348 Z"/>
      <path fill="url(#deepin-picker-i)" d="M11.0178571,19.9389586 L11.0178571,16.3195053 C11.6960467,16.2111233 12.3386774,15.9961959 12.9280459,15.6924265 L14.7124317,18.7830735 C13.5891346,19.3908632 12.3396779,19.7931531 11.0178571,19.9389586 L11.0178571,19.9389586 Z"/>
      <path fill="url(#deepin-picker-j)" d="M15.5676905,18.2644251 L13.7787581,15.1659032 C14.3090709,14.7773311 14.7773311,14.3090709 15.1659032,13.7787581 L18.2743317,15.5734101 C17.5519398,16.6312738 16.6312773,17.5457636 15.5676905,18.2644251 L15.5676905,18.2644251 Z"/>
      <path fill="url(#deepin-picker-k)" d="M18.7965622,14.7202195 L15.6924265,12.9280459 C15.9961959,12.3386774 16.2111233,11.6960467 16.3195053,11.0178571 L19.9477828,11.0178571 C19.8107999,12.3459366 19.4088994,13.5972688 18.7965622,14.7202195 L18.7965622,14.7202195 Z"/>
      <path fill="url(#deepin-picker-l)" d="M20,10.0178571 L16.3999761,10.0178571 C16.3999919,10.0119067 16.4,10.0059543 16.4,10 C16.4,9.26524501 16.2761828,8.55940907 16.0482753,7.90221901 L19.2028449,6.08092741 C19.7160085,7.28440895 20,8.60903959 20,10 L20,10.0178571 L20,10.0178571 Z"/>
      <path fill="url(#deepin-picker-m)" d="M18.7637018,5.17976623 L15.6444409,6.98067235 C15.2730258,6.28778757 14.7777576,5.67122375 14.1882337,5.16057848 L16.0093554,2.00630324 C17.1365891,2.85505919 18.0785367,3.93671232 18.7637018,5.17976623 L18.7637018,5.17976623 Z"/>
      <path fill="url(#deepin-picker-n)" d="M15.1792783,1.4440389 L13.3783731,4.56329822 C12.6717469,4.12326895 11.8730749,3.81716768 11.0178571,3.68049466 L11.0178571,0.0511643276 C12.5298747,0.204016765 13.942414,0.693707191 15.1792783,1.4440389 L15.1792783,1.4440389 Z"/>
    </g>
    <path fill="#FFF" d="M8.84464529,18.757058 C10.5470262,13.9578214 11.3982167,11.0881036 11.3982167,10.1479045 C11.3982167,8.73760598 10.2549439,7.59433311 8.84464529,7.59433311 C7.43434674,7.59433311 6.29107387,8.73760598 6.29107387,10.1479045 C6.29107387,11.0881036 7.14226434,13.9578214 8.84464529,18.757058 Z" transform="rotate(45 8.845 13.176)"/>
    <path fill="#7BD938" fill-rule="nonzero" d="M11,12.375 C11.7593915,12.375 12.375,11.7593915 12.375,11 C12.375,10.2406085 11.7593915,9.625 11,9.625 C10.2406085,9.625 9.625,10.2406085 9.625,11 C9.625,11.7593915 10.2406085,12.375 11,12.375 Z"/>
  </g>
</svg>
