<svg xmlns="http://www.w3.org/2000/svg" xmlns:xlink="http://www.w3.org/1999/xlink" width="24" height="24" viewBox="0 0 24 24">
  <defs>
    <filter id="dde-log-viewer24-a" width="141.7%" height="147.6%" x="-10.4%" y="-11.9%" filterUnits="objectBoundingBox">
      <feOffset in="SourceAlpha" result="shadowOffsetOuter1"/>
      <feGaussianBlur in="shadowOffsetOuter1" result="shadowBlurOuter1" stdDeviation=".5"/>
      <feComposite in="shadowBlurOuter1" in2="SourceAlpha" operator="out" result="shadowBlurOuter1"/>
      <feColorMatrix in="shadowBlurOuter1" result="shadowMatrixOuter1" values="0 0 0 0 0   0 0 0 0 0   0 0 0 0 0  0 0 0 0.15 0"/>
      <feMerge>
        <feMergeNode in="shadowMatrixOuter1"/>
        <feMergeNode in="SourceGraphic"/>
      </feMerge>
    </filter>
    <linearGradient id="dde-log-viewer24-b" x1="39.599%" x2="75.302%" y1="23.554%" y2="76.446%">
      <stop offset="0%" stop-color="#3C3C3C"/>
      <stop offset="100%" stop-color="#2E2E2E"/>
    </linearGradient>
    <path id="dde-log-viewer24-c" d="M2.34375,0 L19.65625,0 C20.9506674,-2.37780616e-16 22,1.04933262 22,2.34375 L22,13.65625 C22,14.9506674 20.9506674,16 19.65625,16 L2.34375,16 C1.04933262,16 1.5852041e-16,14.9506674 0,13.65625 L0,2.34375 C-1.5852041e-16,1.04933262 1.04933262,2.37780616e-16 2.34375,0 Z"/>
    <filter id="dde-log-viewer24-d" width="104.5%" height="106.2%" x="-2.3%" y="-3.1%" filterUnits="objectBoundingBox">
      <feOffset dy="-1" in="SourceAlpha" result="shadowOffsetInner1"/>
      <feComposite in="shadowOffsetInner1" in2="SourceAlpha" k2="-1" k3="1" operator="arithmetic" result="shadowInnerInner1"/>
      <feColorMatrix in="shadowInnerInner1" values="0 0 0 0 0   0 0 0 0 0   0 0 0 0 0  0 0 0 0.12 0"/>
    </filter>
    <linearGradient id="dde-log-viewer24-f" x1="9.857%" x2="93.144%" y1="25.5%" y2="74.5%">
      <stop offset="0%" stop-color="#A655DF"/>
      <stop offset="100%" stop-color="#2F63AE"/>
    </linearGradient>
    <path id="dde-log-viewer24-e" d="M2.03125,0.84375 L18.65625,0.84375 C19.5882305,0.84375 20.34375,1.59926948 20.34375,2.53125 L20.34375,13.15625 C20.34375,14.0882305 19.5882305,14.84375 18.65625,14.84375 L2.03125,14.84375 C1.09926948,14.84375 0.34375,14.0882305 0.34375,13.15625 L0.34375,2.53125 C0.34375,1.59926948 1.09926948,0.84375 2.03125,0.84375 Z"/>
    <rect id="dde-log-viewer24-h" width="9" height="14" x=".535" y=".444"/>
    <linearGradient id="dde-log-viewer24-j" x1="0%" x2="100%" y1="50%" y2="50%">
      <stop offset="0%" stop-color="#A09AD3"/>
      <stop offset="49.618%" stop-color="#988DD9"/>
      <stop offset="100%" stop-color="#1654D2"/>
    </linearGradient>
    <rect id="dde-log-viewer24-k" width="8.5" height="3" x="0" y=".009" rx=".047"/>
    <path id="dde-log-viewer24-m" d="M0,0 L10.265625,0 L10.265625,9.65625 C10.265625,10.9506674 9.21629238,12 7.921875,12 L0,12 L0,12 L0,0 Z"/>
    <linearGradient id="dde-log-viewer24-n" x1="50%" x2="62.308%" y1="14.936%" y2="67.002%">
      <stop offset="0%" stop-color="#F7FEFF" stop-opacity=".839"/>
      <stop offset="100%" stop-color="#FFF" stop-opacity="0"/>
    </linearGradient>
    <linearGradient id="dde-log-viewer24-p" x1="50%" x2="57.97%" y1="-17.393%" y2="82.678%">
      <stop offset="0%" stop-color="#F7FEFF" stop-opacity=".47"/>
      <stop offset="100%" stop-color="#FFF" stop-opacity=".05"/>
    </linearGradient>
    <filter id="dde-log-viewer24-q" width="218.2%" height="218.2%" x="-59.1%" y="-59.1%" filterUnits="objectBoundingBox">
      <feOffset dy="-1" in="SourceAlpha" result="shadowOffsetOuter1"/>
      <feGaussianBlur in="shadowOffsetOuter1" result="shadowBlurOuter1" stdDeviation="1"/>
      <feColorMatrix in="shadowBlurOuter1" result="shadowMatrixOuter1" values="0 0 0 0 0   0 0 0 0 0   0 0 0 0 0  0 0 0 0.15586757 0"/>
      <feMerge>
        <feMergeNode in="shadowMatrixOuter1"/>
        <feMergeNode in="SourceGraphic"/>
      </feMerge>
    </filter>
    <linearGradient id="dde-log-viewer24-r" x1="31.195%" x2="74.285%" y1="4.862%" y2="92.47%">
      <stop offset="0%" stop-color="#4F4F4F"/>
      <stop offset="100%" stop-color="#3F3F3F"/>
    </linearGradient>
    <path id="dde-log-viewer24-s" d="M5.17979452,1.08304795 C4.61435541,1.08304795 4.08226382,1.18973337 3.58350336,1.40310627 C3.08474393,1.61647917 2.6500023,1.90853009 2.2792662,2.2792662 C1.90852989,2.6500023 1.61647958,3.08474393 1.40310627,3.58350336 C1.18973296,4.08226382 1.08304795,4.61435541 1.08304795,5.17979452 C1.08304795,5.74523363 1.18973296,6.27732522 1.40310627,6.77608568 C1.61647958,7.27484511 1.90852989,7.70958674 2.2792662,8.08032285 C2.6500023,8.45105916 3.08474393,8.74310946 3.58350336,8.95648277 C4.08226382,9.16985608 4.61435541,9.2765411 5.17979452,9.2765411 C5.74523363,9.2765411 6.27732522,9.16985608 6.77608568,8.95648277 C7.27484511,8.74310946 7.70958674,8.45105916 8.08032285,8.08032285 C8.45105895,7.70958674 8.74310987,7.27484511 8.95648277,6.77608568 C9.16985567,6.27732522 9.2765411,5.74523363 9.2765411,5.17979452 C9.2765411,4.61435541 9.16985567,4.08226382 8.95648277,3.58350336 C8.74310987,3.08474393 8.45105895,2.6500023 8.08032285,2.2792662 C7.70958674,1.90853009 7.27484511,1.61647917 6.77608568,1.40310627 C6.27732522,1.18973337 5.74523363,1.08304795 5.17979452,1.08304795 L5.17979452,1.08304795 Z"/>
    <filter id="dde-log-viewer24-t" width="112.2%" height="112.2%" x="-6.1%" y="-6.1%" filterUnits="objectBoundingBox">
      <feOffset dy="1" in="SourceAlpha" result="shadowOffsetInner1"/>
      <feComposite in="shadowOffsetInner1" in2="SourceAlpha" k2="-1" k3="1" operator="arithmetic" result="shadowInnerInner1"/>
      <feColorMatrix in="shadowInnerInner1" values="0 0 0 0 0   0 0 0 0 0   0 0 0 0 0  0 0 0 0.08 0"/>
    </filter>
  </defs>
  <g fill="none" fill-rule="evenodd" filter="url(#dde-log-viewer24-a)" transform="rotate(-5 46.856 .548)">
    <use fill="url(#dde-log-viewer24-b)" xlink:href="#dde-log-viewer24-c"/>
    <use fill="#000" filter="url(#dde-log-viewer24-d)" xlink:href="#dde-log-viewer24-c"/>
    <g transform="translate(.656 .156)">
      <mask id="dde-log-viewer24-g" fill="#fff">
        <use xlink:href="#dde-log-viewer24-e"/>
      </mask>
      <use fill="url(#dde-log-viewer24-f)" xlink:href="#dde-log-viewer24-e"/>
      <g mask="url(#dde-log-viewer24-g)">
        <g transform="translate(.809 2.4)">
          <mask id="dde-log-viewer24-i" fill="#fff">
            <use xlink:href="#dde-log-viewer24-h"/>
          </mask>
          <g mask="url(#dde-log-viewer24-i)">
            <g transform="translate(.535 7.944)">
              <rect width="18" height="3" y=".5" fill="url(#dde-log-viewer24-j)" rx=".469"/>
              <rect width="1" height="1" x="3" y="1.5" fill="#00C98F" rx=".234"/>
              <rect width="1" height="1" x="7" y="1.5" fill="#FFB656" rx=".234"/>
              <rect width="1" height="1" x="11" y="1.5" fill="#FF796E" rx=".234"/>
              <rect width="1" height="1" x="14" y="1.5" fill="#000" fill-opacity=".3" rx=".234"/>
              <rect width="1" height="1" x="16" y="1.5" fill="#000" fill-opacity=".3" rx=".234"/>
              <circle cx="1.5" cy="2" r="1" fill="#326CFF"/>
              <circle cx="9.5" cy="2" r="1" fill="#482AC5"/>
            </g>
          </g>
        </g>
      </g>
    </g>
    <g opacity=".3" transform="translate(11 11)">
      <mask id="dde-log-viewer24-l" fill="#fff">
        <use xlink:href="#dde-log-viewer24-k"/>
      </mask>
      <g stroke="#FFF" mask="url(#dde-log-viewer24-l)" opacity=".797">
        <rect width="11" height="2" x=".934" y=".728" rx=".469" transform="translate(-2.219 -.219)"/>
      </g>
    </g>
    <g transform="translate(11)">
      <mask id="dde-log-viewer24-o" fill="#fff">
        <use xlink:href="#dde-log-viewer24-m"/>
      </mask>
      <g fill="url(#dde-log-viewer24-n)" mask="url(#dde-log-viewer24-o)" opacity=".56">
        <path d="M1.078125,7.453125 C1.673557,7.453125 2.15625,7.935818 2.15625,8.53125 L2.15625,9.234375 C2.15625,9.829807 1.673557,10.3125 1.078125,10.3125 C0.482693004,10.3125 3.62563307e-15,9.829807 3.55271368e-15,9.234375 L3.55271368e-15,8.53125 C3.47979429e-15,7.935818 0.482693004,7.453125 1.078125,7.453125 Z M9.234375,7.453125 C9.829807,7.453125 10.3125,7.935818 10.3125,8.53125 L10.3125,9.234375 C10.3125,9.829807 9.829807,10.3125 9.234375,10.3125 C8.638943,10.3125 8.15625,9.829807 8.15625,9.234375 L8.15625,8.53125 C8.15625,7.935818 8.638943,7.453125 9.234375,7.453125 Z M3.703125,7.3125 C3.96200848,7.3125 4.171875,7.52236652 4.171875,7.78125 L4.171875,9.703125 C4.171875,9.96200848 3.96200848,10.171875 3.703125,10.171875 L3.5625,10.171875 C3.30361652,10.171875 3.09375,9.96200848 3.09375,9.703125 L3.09375,7.78125 C3.09375,7.52236652 3.30361652,7.3125 3.5625,7.3125 L3.703125,7.3125 Z M11.8125,7.3125 C12.0713835,7.3125 12.28125,7.52236652 12.28125,7.78125 L12.28125,9.703125 C12.28125,9.96200848 12.0713835,10.171875 11.8125,10.171875 L11.671875,10.171875 C11.4129915,10.171875 11.203125,9.96200848 11.203125,9.703125 L11.203125,7.78125 C11.203125,7.52236652 11.4129915,7.3125 11.671875,7.3125 L11.8125,7.3125 Z M13.828125,7.3125 C14.0870085,7.3125 14.296875,7.52236652 14.296875,7.78125 L14.296875,9.703125 C14.296875,9.96200848 14.0870085,10.171875 13.828125,10.171875 L13.6875,10.171875 C13.4286165,10.171875 13.21875,9.96200848 13.21875,9.703125 L13.21875,7.78125 C13.21875,7.52236652 13.4286165,7.3125 13.6875,7.3125 L13.828125,7.3125 Z M6.140625,7.3125 C6.736057,7.3125 7.21875,7.795193 7.21875,8.390625 L7.21875,9.09375 C7.21875,9.689182 6.736057,10.171875 6.140625,10.171875 C5.545193,10.171875 5.0625,9.689182 5.0625,9.09375 L5.0625,8.390625 C5.0625,7.795193 5.545193,7.3125 6.140625,7.3125 Z M1.09703947,8.43133224 C0.932512212,8.43133224 0.795242568,8.54803597 0.763495895,8.70317809 L0.756578947,8.77179276 L0.756578947,8.99383224 C0.756578947,9.18186339 0.909008317,9.33429276 1.09703947,9.33429276 C1.26156674,9.33429276 1.39883638,9.21758903 1.43058305,9.06244691 L1.4375,8.99383224 L1.4375,8.77179276 C1.4375,8.58376161 1.28507063,8.43133224 1.09703947,8.43133224 Z M9.25328947,8.43133224 C9.08876221,8.43133224 8.95149257,8.54803597 8.9197459,8.70317809 L8.91282895,8.77179276 L8.91282895,8.99383224 C8.91282895,9.18186339 9.06525832,9.33429276 9.25328947,9.33429276 C9.41781674,9.33429276 9.55508638,9.21758903 9.58683305,9.06244691 L9.59375,8.99383224 L9.59375,8.77179276 C9.59375,8.58376161 9.44132063,8.43133224 9.25328947,8.43133224 Z M6.15953947,8.29070724 C5.99501221,8.29070724 5.85774257,8.40741097 5.8259959,8.56255309 L5.81907895,8.63116776 L5.81907895,8.85320724 C5.81907895,9.04123839 5.97150832,9.19366776 6.15953947,9.19366776 C6.32406674,9.19366776 6.46133638,9.07696403 6.49308305,8.92182191 L6.5,8.85320724 L6.5,8.63116776 C6.5,8.44313661 6.34757063,8.29070724 6.15953947,8.29070724 Z M5.0625,3.75 C5.657932,3.75 6.140625,4.232693 6.140625,4.828125 L6.140625,5.53125 C6.140625,6.126682 5.657932,6.609375 5.0625,6.609375 C4.467068,6.609375 3.984375,6.126682 3.984375,5.53125 L3.984375,4.828125 C3.984375,4.232693 4.467068,3.75 5.0625,3.75 Z M0.609375,3.703125 C0.868258476,3.703125 1.078125,3.91299152 1.078125,4.171875 L1.078125,6.09375 C1.078125,6.35263348 0.868258476,6.5625 0.609375,6.5625 L0.46875,6.5625 C0.209866524,6.5625 3.17040821e-17,6.35263348 0,6.09375 L0,4.171875 C-3.17040821e-17,3.91299152 0.209866524,3.703125 0.46875,3.703125 L0.609375,3.703125 Z M2.625,3.703125 C2.88388348,3.703125 3.09375,3.91299152 3.09375,4.171875 L3.09375,6.09375 C3.09375,6.35263348 2.88388348,6.5625 2.625,6.5625 L2.484375,6.5625 C2.22549152,6.5625 2.015625,6.35263348 2.015625,6.09375 L2.015625,4.171875 C2.015625,3.91299152 2.22549152,3.703125 2.484375,3.703125 L2.625,3.703125 Z M7.6875,3.703125 C7.94638348,3.703125 8.15625,3.91299152 8.15625,4.171875 L8.15625,6.09375 C8.15625,6.35263348 7.94638348,6.5625 7.6875,6.5625 L7.546875,6.5625 C7.28799152,6.5625 7.078125,6.35263348 7.078125,6.09375 L7.078125,4.171875 C7.078125,3.91299152 7.28799152,3.703125 7.546875,3.703125 L7.6875,3.703125 Z M13.21875,3.703125 C13.814182,3.703125 14.296875,4.185818 14.296875,4.78125 L14.296875,5.484375 C14.296875,6.079807 13.814182,6.5625 13.21875,6.5625 C12.623318,6.5625 12.140625,6.079807 12.140625,5.484375 L12.140625,4.78125 C12.140625,4.185818 12.623318,3.703125 13.21875,3.703125 Z M10.125,3.703125 C10.720432,3.703125 11.203125,4.185818 11.203125,4.78125 L11.203125,5.484375 C11.203125,6.079807 10.720432,6.5625 10.125,6.5625 C9.529568,6.5625 9.046875,6.079807 9.046875,5.484375 L9.046875,4.78125 C9.046875,4.185818 9.529568,3.703125 10.125,3.703125 Z M5.08141447,4.72820724 C4.91688721,4.72820724 4.77961757,4.84491097 4.7478709,5.00005309 L4.74095395,5.06866776 L4.74095395,5.29070724 C4.74095395,5.47873839 4.89338332,5.63116776 5.08141447,5.63116776 C5.24594174,5.63116776 5.38321138,5.51446403 5.41495805,5.35932191 L5.421875,5.29070724 L5.421875,5.06866776 C5.421875,4.88063661 5.26944563,4.72820724 5.08141447,4.72820724 Z M13.2376645,4.68133224 C13.0731372,4.68133224 12.9358676,4.79803597 12.9041209,4.95317809 L12.8972039,5.02179276 L12.8972039,5.24383224 C12.8972039,5.43186339 13.0496333,5.58429276 13.2376645,5.58429276 C13.4021917,5.58429276 13.5394614,5.46758903 13.5712081,5.31244691 L13.578125,5.24383224 L13.578125,5.02179276 C13.578125,4.83376161 13.4256956,4.68133224 13.2376645,4.68133224 Z M10.1439145,4.68133224 C9.97938721,4.68133224 9.84211757,4.79803597 9.8103709,4.95317809 L9.80345395,5.02179276 L9.80345395,5.24383224 C9.80345395,5.43186339 9.95588332,5.58429276 10.1439145,5.58429276 C10.3084417,5.58429276 10.4457114,5.46758903 10.4774581,5.31244691 L10.484375,5.24383224 L10.484375,5.02179276 C10.484375,4.83376161 10.3319456,4.68133224 10.1439145,4.68133224 Z M0.609375,0 C0.868258476,-1.03067274e-16 1.078125,0.209866524 1.078125,0.46875 L1.078125,2.390625 C1.078125,2.64950848 0.868258476,2.859375 0.609375,2.859375 L0.46875,2.859375 C0.209866524,2.859375 3.17040821e-17,2.64950848 0,2.390625 L0,0.46875 C-3.17040821e-17,0.209866524 0.209866524,-7.95502811e-18 0.46875,0 L0.609375,0 Z M5.71875,0 C5.97763348,-1.03067274e-16 6.1875,0.209866524 6.1875,0.46875 L6.1875,2.390625 C6.1875,2.64950848 5.97763348,2.859375 5.71875,2.859375 L5.578125,2.859375 C5.31924152,2.859375 5.109375,2.64950848 5.109375,2.390625 L5.109375,0.46875 C5.109375,0.209866524 5.31924152,-7.95502811e-18 5.578125,0 L5.71875,0 Z M10.734375,0 C10.9932585,-1.03067274e-16 11.203125,0.209866524 11.203125,0.46875 L11.203125,2.390625 C11.203125,2.64950848 10.9932585,2.859375 10.734375,2.859375 L10.59375,2.859375 C10.3348665,2.859375 10.125,2.64950848 10.125,2.390625 L10.125,0.46875 C10.125,0.209866524 10.3348665,-7.95502811e-18 10.59375,0 L10.734375,0 Z M3.046875,0 C3.642307,-1.09379083e-16 4.125,0.482693004 4.125,1.078125 L4.125,1.78125 C4.125,2.376682 3.642307,2.859375 3.046875,2.859375 C2.451443,2.859375 1.96875,2.376682 1.96875,1.78125 L1.96875,1.078125 C1.96875,0.482693004 2.451443,1.09379083e-16 3.046875,0 Z M8.15625,0 C8.751682,-1.09379083e-16 9.234375,0.482693004 9.234375,1.078125 L9.234375,1.78125 C9.234375,2.376682 8.751682,2.859375 8.15625,2.859375 C7.560818,2.859375 7.078125,2.376682 7.078125,1.78125 L7.078125,1.078125 C7.078125,0.482693004 7.560818,1.09379083e-16 8.15625,0 Z M13.21875,0 C13.814182,-1.09379083e-16 14.296875,0.482693004 14.296875,1.078125 L14.296875,1.78125 C14.296875,2.376682 13.814182,2.859375 13.21875,2.859375 C12.623318,2.859375 12.140625,2.376682 12.140625,1.78125 L12.140625,1.078125 C12.140625,0.482693004 12.623318,1.09379083e-16 13.21875,0 Z M3.06578947,0.978207237 C2.90126221,0.978207237 2.76399257,1.09491097 2.7322459,1.25005309 L2.72532895,1.31866776 L2.72532895,1.54070724 C2.72532895,1.72873839 2.87775832,1.88116776 3.06578947,1.88116776 C3.23031674,1.88116776 3.36758638,1.76446403 3.39933305,1.60932191 L3.40625,1.54070724 L3.40625,1.31866776 C3.40625,1.13063661 3.25382063,0.978207237 3.06578947,0.978207237 Z M8.17516447,0.978207237 C8.01063721,0.978207237 7.87336757,1.09491097 7.8416209,1.25005309 L7.83470395,1.31866776 L7.83470395,1.54070724 C7.83470395,1.72873839 7.98713332,1.88116776 8.17516447,1.88116776 C8.33969174,1.88116776 8.47696138,1.76446403 8.50870805,1.60932191 L8.515625,1.54070724 L8.515625,1.31866776 C8.515625,1.13063661 8.36319563,0.978207237 8.17516447,0.978207237 Z M13.2376645,0.978207237 C13.0731372,0.978207237 12.9358676,1.09491097 12.9041209,1.25005309 L12.8972039,1.31866776 L12.8972039,1.54070724 C12.8972039,1.72873839 13.0496333,1.88116776 13.2376645,1.88116776 C13.4021917,1.88116776 13.5394614,1.76446403 13.5712081,1.60932191 L13.578125,1.54070724 L13.578125,1.31866776 C13.578125,1.13063661 13.4256956,0.978207237 13.2376645,0.978207237 Z" transform="translate(-5 2)"/>
      </g>
    </g>
    <path fill="url(#dde-log-viewer24-p)" d="M5.90625,2 C5.9580267,2 6,2.0419733 6,2.09375 L6,11.90625 C6,11.9580267 5.9580267,12 5.90625,12 L2.84375,12 C2.37775974,12 2,11.6222403 2,11.15625 L2,2.703125 C2,2.31479979 2.31479979,2 2.703125,2 L5.90625,2 Z M9.90625,4 C9.9580267,4 10,4.0419733 10,4.09375 L10,11.90625 C10,11.9580267 9.9580267,12 9.90625,12 L7.09375,12 C7.0419733,12 7,11.9580267 7,11.90625 L7,4.09375 C7,4.0419733 7.0419733,4 7.09375,4 L9.90625,4 Z M9.953125,2 C10.0049017,2 10.046875,2.0419733 10.046875,2.09375 L10.046875,2.90625 C10.046875,2.9580267 10.0049017,3 9.953125,3 L7.140625,3 C7.0888483,3 7.046875,2.9580267 7.046875,2.90625 L7.046875,2.09375 C7.046875,2.0419733 7.0888483,2 7.140625,2 L9.953125,2 Z" opacity=".423"/>
    <g filter="url(#dde-log-viewer24-q)" transform="translate(12.078 9.344)">
      <path fill="url(#dde-log-viewer24-r)" d="M3.14712492,0.402832031 C2.51937598,0.671387578 1.97220117,1.03896891 1.50558504,1.50558504 C1.03896865,1.97220117 0.671388094,2.51937598 0.402832031,3.14712492 C0.134275969,3.77487516 0,4.44457664 0,5.15625 C0,5.86792336 0.134275969,6.53762484 0.402832031,7.16537508 C0.671388094,7.79312402 1.03896865,8.34029883 1.50558504,8.80691496 C1.97220117,9.27353135 2.51937598,9.64111191 3.14712492,9.90966797 C3.77487516,10.178224 4.44457664,10.3125 5.15625,10.3125 C5.86792336,10.3125 6.53762484,10.178224 7.16537508,9.90966797 C7.79312402,9.64111191 8.34029883,9.27353135 8.80691496,8.80691496 C9.27353109,8.34029883 9.64111242,7.79312402 9.90966797,7.16537508 C10.1782235,6.53762484 10.3125,5.86792336 10.3125,5.15625 C10.3125,4.44457664 10.1782235,3.77487516 9.90966797,3.14712492 C9.64111242,2.51937598 9.27353109,1.97220117 8.80691496,1.50558504 C8.34029883,1.03896891 7.79312402,0.671387578 7.16537508,0.402832031 C6.53762484,0.134276484 5.86792336,0 5.15625,0 C4.44457664,0 3.77487516,0.134276484 3.14712492,0.402832031 Z"/>
      <use fill="#FFF" xlink:href="#dde-log-viewer24-s"/>
      <use fill="#000" filter="url(#dde-log-viewer24-t)" xlink:href="#dde-log-viewer24-s"/>
      <path fill="#2F2F2F" d="M5.34366438,8.45719178 L5.34366438,9.2765411 L5.04020167,9.2765411 L5.04020167,8.45719178 L5.34366438,8.45719178 Z M6.96040861,7.93616887 L7.37008327,8.6457462 L7.08625234,8.80961606 L6.67657769,8.10003874 L6.96040861,7.93616887 Z M3.39918043,7.93616887 L3.68301135,8.10003874 L3.2733367,8.80961606 L2.98950577,8.6457462 L3.39918043,7.93616887 Z M8.10003874,6.67657769 L8.80961606,7.08625234 L8.6457462,7.37008327 L7.93616887,6.96040861 L8.10003874,6.67657769 Z M2.2595503,6.67657769 L2.42342017,6.96040861 L1.71384284,7.37008327 L1.54997298,7.08625234 L2.2595503,6.67657769 Z M9.2765411,5.01592466 L9.2765411,5.34366438 L8.45719178,5.34366438 L8.45719178,5.01592466 L9.2765411,5.01592466 Z M1.90239726,5.01592466 L1.90239726,5.34366438 L1.08304795,5.34366438 L1.08304795,5.01592466 L1.90239726,5.01592466 Z M8.6457462,2.98950577 L8.80961606,3.2733367 L8.10003874,3.68301135 L7.93616887,3.39918043 L8.6457462,2.98950577 Z M1.71384284,2.98950577 L2.42342017,3.39918043 L2.2595503,3.68301135 L1.54997298,3.2733367 L1.71384284,2.98950577 Z M7.08625234,1.54997298 L7.37008327,1.71384284 L6.96040861,2.42342017 L6.67657769,2.2595503 L7.08625234,1.54997298 Z M3.2733367,1.54997298 L3.68301135,2.2595503 L3.39918043,2.42342017 L2.98950577,1.71384284 L3.2733367,1.54997298 Z M5.34366438,1.08304795 L5.34366438,1.90239726 L5.04020167,1.90239726 L5.04020167,1.08304795 L5.34366438,1.08304795 Z"/>
      <path fill="#7F7F7F" d="M3.73762139,3.94299301 L5.1783383,3.94299301 C5.38772935,3.94299301 5.55747433,4.11273799 5.55747433,4.32212904 C5.55747433,4.53152009 5.38772935,4.70126507 5.1783383,4.70126507 L3.73762139,4.70126507 L3.73762139,4.70126507 L3.73762139,3.94299301 Z" transform="rotate(-113 4.648 4.322)"/>
      <path fill="#FD6C6C" d="M4.70890411,4.99143836 L7.03981164,4.99143836 C7.18284772,4.99143836 7.29880137,5.10739201 7.29880137,5.25042808 C7.29880137,5.39346416 7.18284772,5.50941781 7.03981164,5.50941781 L4.82769595,5.50941781 L4.82769595,5.50941781 L4.70890411,4.99143836 Z"/>
      <circle cx="5.015" cy="5.109" r="1" fill="#4D4D4D"/>
    </g>
  </g>
</svg>
