<?xml version="1.0" encoding="UTF-8"?>
<svg width="24px" height="24px" viewBox="0 0 24 24" version="1.1" xmlns="http://www.w3.org/2000/svg" xmlns:xlink="http://www.w3.org/1999/xlink">
    <title>apps/24/deepin-voice-note</title>
    <defs>
        <filter x="-7.5%" y="-6.8%" width="115.0%" height="122.7%" filterUnits="objectBoundingBox" id="filter-1">
            <feOffset dx="0" dy="0" in="SourceAlpha" result="shadowOffsetOuter1"></feOffset>
            <feGaussianBlur stdDeviation="0.5" in="shadowOffsetOuter1" result="shadowBlurOuter1"></feGaussianBlur>
            <feColorMatrix values="0 0 0 0 0   0 0 0 0 0   0 0 0 0 0  0 0 0 0.15 0" type="matrix" in="shadowBlurOuter1" result="shadowMatrixOuter1"></feColorMatrix>
            <feMerge>
                <feMergeNode in="shadowMatrixOuter1"></feMergeNode>
                <feMergeNode in="SourceGraphic"></feMergeNode>
            </feMerge>
        </filter>
        <linearGradient x1="50%" y1="0%" x2="50%" y2="100%" id="linearGradient-2">
            <stop stop-color="#FD5E5E" offset="0%"></stop>
            <stop stop-color="#ED5656" offset="100%"></stop>
        </linearGradient>
        <path d="M9.9833344,15 C9.1722176,15 8.41666987,14.7068999 7.85,14.1206908 C7.28333056,13.5344794 7,12.8218439 7,11.9827597 L7,11 L13,11 L13,11.9827597 C13,12.8218439 12.7111147,13.5344794 12.1333333,14.1206908 C11.555552,14.7068999 10.7944491,15 9.9833344,15 Z M9,16.8999819 C6.71775968,16.4367116 5,14.4189579 5,12 L6,12 C6,14.209139 7.790861,16 10,16 C12.209139,16 14,14.209139 14,12 L15,12 C15,14.4189579 13.2822403,16.4367116 11,16.8999819 L11,18 L13,18 L13,19 L7,19 L7,18 L9,18 L9,16.8999819 Z M9.9833344,3 C10.7944491,3 11.555552,3.29597352 12.1333333,3.88793159 C12.7111147,4.47988745 13,5.18965186 13,6.01724248 L13,10 L7,10 L7,6.01724248 C7,5.18965186 7.28333056,4.47988745 7.85,3.88793159 C8.41666987,3.29597352 9.1722176,3 9.9833344,3 Z" id="path-3"></path>
        <filter x="-55.0%" y="-21.9%" width="210.0%" height="168.8%" filterUnits="objectBoundingBox" id="filter-4">
            <feOffset dx="0" dy="2" in="SourceAlpha" result="shadowOffsetOuter1"></feOffset>
            <feGaussianBlur stdDeviation="1.5" in="shadowOffsetOuter1" result="shadowBlurOuter1"></feGaussianBlur>
            <feColorMatrix values="0 0 0 0 0.97254902   0 0 0 0 0.17254902   0 0 0 0 0.277440324  0 0 0 0.4 0" type="matrix" in="shadowBlurOuter1"></feColorMatrix>
        </filter>
    </defs>
    <g id="apps/24/deepin-voice-note" stroke="none" stroke-width="1" fill="none" fill-rule="evenodd">
        <g id="编组" filter="url(#filter-1)" transform="translate(2, 1)">
            <rect id="Rectangle-3" fill="#FFFFFF" x="0" y="0" width="20" height="22" rx="3"></rect>
            <path d="M6,1 L6,4 L17,4 L17,5 L6,5 L6,8 L17,8 L17,9 L6,9 L6,12 L17,12 L17,13 L6,13 L6,16 L17,16 L17,17 L6,17 L6,21 L5,21 L5,17 L3,17 L3,16 L5,16 L5,13 L3,13 L3,12 L5,12 L5,9 L3,9 L3,8 L5,8 L5,5 L3,5 L3,4 L5,4 L5,1 L6,1 Z" id="Combined-Shape" fill-opacity="0.1" fill="#000000"></path>
            <g id="Combined-Shape">
                <use fill="black" fill-opacity="1" filter="url(#filter-4)" xlink:href="#path-3"></use>
                <use fill="url(#linearGradient-2)" fill-rule="evenodd" xlink:href="#path-3"></use>
            </g>
        </g>
        <g id="Guide/24" transform="translate(0.5, 0.5)"></g>
    </g>
</svg>