<?xml version="1.0" encoding="UTF-8"?>
<svg width="24px" height="24px" viewBox="0 0 24 24" version="1.1" xmlns="http://www.w3.org/2000/svg" xmlns:xlink="http://www.w3.org/1999/xlink">
    <title>apps/24/deepin-wine-diag</title>
    <defs>
        <filter x="-8.0%" y="-7.4%" width="116.0%" height="114.9%" filterUnits="objectBoundingBox" id="filter-1">
            <feOffset dx="0" dy="0" in="SourceAlpha" result="shadowOffsetOuter1"></feOffset>
            <feGaussianBlur stdDeviation="0.5" in="shadowOffsetOuter1" result="shadowBlurOuter1"></feGaussianBlur>
            <feColorMatrix values="0 0 0 0 0   0 0 0 0 0   0 0 0 0 0  0 0 0 0.15 0" type="matrix" in="shadowBlurOuter1" result="shadowMatrixOuter1"></feColorMatrix>
            <feMerge>
                <feMergeNode in="shadowMatrixOuter1"></feMergeNode>
                <feMergeNode in="SourceGraphic"></feMergeNode>
            </feMerge>
        </filter>
        <linearGradient x1="50%" y1="0%" x2="50%" y2="100%" id="linearGradient-2">
            <stop stop-color="#00BFFB" offset="0%"></stop>
            <stop stop-color="#0044E5" offset="100%"></stop>
        </linearGradient>
        <linearGradient x1="50%" y1="0%" x2="50%" y2="148.982343%" id="linearGradient-3">
            <stop stop-color="#FFFFFF" offset="0%"></stop>
            <stop stop-color="#97D0EE" offset="100%"></stop>
        </linearGradient>
        <linearGradient x1="6.210873%" y1="0%" x2="82.1889569%" y2="63.5443536%" id="linearGradient-4">
            <stop stop-color="#F7FEFF" stop-opacity="0.839324738" offset="0%"></stop>
            <stop stop-color="#FFFFFF" stop-opacity="0" offset="100%"></stop>
        </linearGradient>
        <filter x="-23.9%" y="-6.6%" width="153.4%" height="126.0%" filterUnits="objectBoundingBox" id="filter-5">
            <feOffset dx="0" dy="1" in="SourceAlpha" result="shadowOffsetOuter1"></feOffset>
            <feGaussianBlur stdDeviation="0.5" in="shadowOffsetOuter1" result="shadowBlurOuter1"></feGaussianBlur>
            <feColorMatrix values="0 0 0 0 0   0 0 0 0 0   0 0 0 0 0  0 0 0 0.15 0" type="matrix" in="shadowBlurOuter1" result="shadowMatrixOuter1"></feColorMatrix>
            <feMerge>
                <feMergeNode in="shadowMatrixOuter1"></feMergeNode>
                <feMergeNode in="SourceGraphic"></feMergeNode>
            </feMerge>
        </filter>
        <linearGradient x1="50%" y1="1.79026897%" x2="50.3530198%" y2="100%" id="linearGradient-6">
            <stop stop-color="#FFFFFF" offset="0%"></stop>
            <stop stop-color="#9CD8F8" offset="100%"></stop>
        </linearGradient>
        <linearGradient x1="50%" y1="0%" x2="50%" y2="101.579708%" id="linearGradient-7">
            <stop stop-color="#003958" stop-opacity="0.298257894" offset="0%"></stop>
            <stop stop-color="#005294" stop-opacity="0.101299579" offset="100%"></stop>
        </linearGradient>
        <linearGradient x1="50%" y1="0%" x2="50%" y2="100%" id="linearGradient-8">
            <stop stop-color="#E44D4D" offset="0%"></stop>
            <stop stop-color="#BA2F6C" offset="100%"></stop>
        </linearGradient>
    </defs>
    <g id="apps/24/deepin-wine-diag" stroke="none" stroke-width="1" fill="none" fill-rule="evenodd">
        <g id="编组-2" filter="url(#filter-1)" transform="translate(11.8527, 11.8594) rotate(-8) translate(-11.8527, -11.8594)translate(2.4777, 1.7813)">
            <path d="M2.90625,1.74100225e-14 L15.84375,1.74100225e-14 C17.4488276,1.74100225e-14 18.75,1.30117245 18.75,2.90625 L18.75,17.25 C18.75,18.8550776 17.4488276,20.15625 15.84375,20.15625 L2.90625,20.15625 C1.30117245,20.15625 -6.44224922e-13,18.8550776 -6.44224922e-13,17.25 L-6.44224922e-13,2.90625 C-6.44224922e-13,1.30117245 1.30117245,1.74100225e-14 2.90625,1.74100225e-14 Z" id="矩形" fill="url(#linearGradient-2)"></path>
            <path d="M15.84375,1.74100225e-14 C17.4488276,1.74100225e-14 18.75,1.30117245 18.75,2.90625 L18.75,17.25 C18.75,18.8550776 17.4488276,20.15625 15.84375,20.15625 L2.90625,20.15625 C1.30117245,20.15625 -6.44224922e-13,18.8550776 -6.44224922e-13,17.25 L-6.44224922e-13,2.90625 C-6.44224922e-13,1.30117245 1.30117245,1.74100225e-14 2.90625,1.74100225e-14 L15.84375,1.74100225e-14 Z M15.84375,1 L2.90625,1 C1.8534572,1 1,1.8534572 1,2.90625 L1,17.25 C1,18.3027928 1.8534572,19.15625 2.90625,19.15625 L15.84375,19.15625 C16.8965428,19.15625 17.75,18.3027928 17.75,17.25 L17.75,2.90625 C17.75,1.8534572 16.8965428,1 15.84375,1 Z" id="矩形" fill="url(#linearGradient-3)" fill-rule="nonzero"></path>
            <path d="M3.67877217,2.94916586 L3.85267484,2.94916586 C4.24100005,2.94916586 4.55579984,3.26396565 4.55579984,3.65229086 L4.55579984,6.5303218 C4.55579984,6.91864701 4.24100005,7.2334468 3.85267484,7.2334468 L3.67877217,7.2334468 C3.29044695,7.2334468 2.97564717,6.91864701 2.97564717,6.5303218 L2.97564717,3.65229086 C2.97564717,3.26396565 3.29044695,2.94916586 3.67877217,2.94916586 Z M3.67877217,8.49766085 L3.85267484,8.49766085 C4.24100005,8.49766085 4.55579984,8.81246063 4.55579984,9.20078585 L4.55579984,12.0788168 C4.55579984,12.467142 4.24100005,12.7819418 3.85267484,12.7819418 L3.67877217,12.7819418 C3.29044695,12.7819418 2.97564717,12.467142 2.97564717,12.0788168 L2.97564717,9.20078585 C2.97564717,8.81246063 3.29044695,8.49766085 3.67877217,8.49766085 Z M6.63297064,8.49766085 L6.80687331,8.49766085 C7.19519853,8.49766085 7.50999831,8.81246063 7.50999831,9.20078585 L7.50999831,12.0788168 C7.50999831,12.467142 7.19519853,12.7819418 6.80687331,12.7819418 L6.63297064,12.7819418 C6.24464543,12.7819418 5.92984564,12.467142 5.92984564,12.0788168 L5.92984564,9.20078585 C5.92984564,8.81246063 6.24464543,8.49766085 6.63297064,8.49766085 Z M11.1673218,2.94916586 L11.3412245,2.94916586 C11.7295497,2.94916586 12.0443495,3.26396565 12.0443495,3.65229086 L12.0443495,6.5303218 C12.0443495,6.91864701 11.7295497,7.2334468 11.3412245,7.2334468 L11.1673218,7.2334468 C10.7789966,7.2334468 10.4641968,6.91864701 10.4641968,6.5303218 L10.4641968,3.65229086 C10.4641968,3.26396565 10.7789966,2.94916586 11.1673218,2.94916586 Z M14.052818,8.49766085 L14.2267206,8.49766085 C14.6150459,8.49766085 14.9298456,8.81246063 14.9298456,9.20078585 L14.9298456,12.0788168 C14.9298456,12.467142 14.6150459,12.7819418 14.2267206,12.7819418 L14.052818,12.7819418 C13.6644928,12.7819418 13.349693,12.467142 13.349693,12.0788168 L13.349693,9.20078585 C13.349693,8.81246063 13.6644928,8.49766085 14.052818,8.49766085 Z M8.21312331,13.9056876 L8.38702598,13.9056876 C8.7753512,13.9056876 9.09015098,14.2204874 9.09015098,14.6088126 L9.09015098,17.4868435 C9.09015098,17.8751688 8.7753512,18.1899685 8.38702598,18.1899685 L8.21312331,18.1899685 C7.8247981,18.1899685 7.50999831,17.8751688 7.50999831,17.4868435 L7.50999831,14.6088126 C7.50999831,14.2204874 7.8247981,13.9056876 8.21312331,13.9056876 Z M7.44129602,2.94916586 C8.31399025,2.94916586 9.02144869,3.65662431 9.02144869,4.52931854 L9.02144869,5.65329413 C9.02144869,6.52598835 8.31399025,7.2334468 7.44129602,7.2334468 C6.5686018,7.2334468 5.86114335,6.52598835 5.86114335,5.65329413 L5.86114335,4.52931854 C5.86114335,3.65662431 6.5686018,2.94916586 7.44129602,2.94916586 Z M7.469018,4.41484092 C7.19343035,4.41484092 6.97002242,4.63824885 6.97002242,4.9138365 L6.97002242,5.26877616 C6.97002242,5.54436381 7.19343035,5.76777174 7.469018,5.76777174 C7.74460565,5.76777174 7.96801358,5.54436381 7.96801358,5.26877616 L7.96801358,4.9138365 C7.96801358,4.63824885 7.74460565,4.41484092 7.469018,4.41484092 Z M14.9298456,2.94916586 C15.8025399,2.94916586 16.5099983,3.65662431 16.5099983,4.52931854 L16.5099983,5.65329413 C16.5099983,6.52598835 15.8025399,7.2334468 14.9298456,7.2334468 C14.0571514,7.2334468 13.349693,6.52598835 13.349693,5.65329413 L13.349693,4.52931854 C13.349693,3.65662431 14.0571514,2.94916586 14.9298456,2.94916586 Z M14.9575676,4.41484092 C14.68198,4.41484092 14.458572,4.63824885 14.458572,4.9138365 L14.458572,5.26877616 C14.458572,5.54436381 14.68198,5.76777174 14.9575676,5.76777174 C15.2331553,5.76777174 15.4565632,5.54436381 15.4565632,5.26877616 L15.4565632,4.9138365 C15.4565632,4.63824885 15.2331553,4.41484092 14.9575676,4.41484092 Z M11.9756472,13.9056876 C12.8483414,13.9056876 13.5557998,14.6131461 13.5557998,15.4858403 L13.5557998,16.6098159 C13.5557998,17.4825101 12.8483414,18.1899685 11.9756472,18.1899685 C11.1029529,18.1899685 10.3954945,17.4825101 10.3954945,16.6098159 L10.3954945,15.4858403 C10.3954945,14.6131461 11.1029529,13.9056876 11.9756472,13.9056876 Z M12.0033691,15.3713627 C11.7277815,15.3713627 11.5043736,15.5947706 11.5043736,15.8703582 L11.5043736,16.2252979 C11.5043736,16.5008856 11.7277815,16.7242935 12.0033691,16.7242935 C12.2789568,16.7242935 12.5023647,16.5008856 12.5023647,16.2252979 L12.5023647,15.8703582 C12.5023647,15.5947706 12.2789568,15.3713627 12.0033691,15.3713627 Z M4.55579984,14.1163899 C5.42849406,14.1163899 6.13595251,14.8238484 6.13595251,15.6965426 L6.13595251,16.8205182 C6.13595251,17.6932124 5.42849406,18.4006709 4.55579984,18.4006709 C3.68310562,18.4006709 2.97564717,17.6932124 2.97564717,16.8205182 L2.97564717,15.6965426 C2.97564717,14.8238484 3.68310562,14.1163899 4.55579984,14.1163899 Z M4.58352182,15.582065 C4.30793417,15.582065 4.08452624,15.8054729 4.08452624,16.0810606 L4.08452624,16.4360002 C4.08452624,16.7115879 4.30793417,16.9349958 4.58352182,16.9349958 C4.85910947,16.9349958 5.0825174,16.7115879 5.0825174,16.4360002 L5.0825174,16.0810606 C5.0825174,15.8054729 4.85910947,15.582065 4.58352182,15.582065 Z M16.5099983,14.1163899 C17.3826925,14.1163899 18.090151,14.8238484 18.090151,15.6965426 L18.090151,16.8205182 C18.090151,17.6932124 17.3826925,18.4006709 16.5099983,18.4006709 C15.6373041,18.4006709 14.9298456,17.6932124 14.9298456,16.8205182 L14.9298456,15.6965426 C14.9298456,14.8238484 15.6373041,14.1163899 16.5099983,14.1163899 Z M16.5377203,15.582065 C16.2621326,15.582065 16.0387247,15.8054729 16.0387247,16.0810606 L16.0387247,16.4360002 C16.0387247,16.7115879 16.2621326,16.9349958 16.5377203,16.9349958 C16.8133079,16.9349958 17.0367159,16.7115879 17.0367159,16.4360002 L17.0367159,16.0810606 C17.0367159,15.8054729 16.8133079,15.582065 16.5377203,15.582065 Z M10.3954945,8.56789496 C11.2681887,8.56789496 11.9756472,9.27535341 11.9756472,10.1480476 L11.9756472,11.2720232 C11.9756472,12.1447174 11.2681887,12.8521759 10.3954945,12.8521759 C9.52280027,12.8521759 8.81534182,12.1447174 8.81534182,11.2720232 L8.81534182,10.1480476 C8.81534182,9.27535341 9.52280027,8.56789496 10.3954945,8.56789496 Z M10.4232165,10.03357 C10.1476288,10.03357 9.92422089,10.2569779 9.92422089,10.5325656 L9.92422089,10.8875053 C9.92422089,11.1630929 10.1476288,11.3865008 10.4232165,11.3865008 C10.6988041,11.3865008 10.9222121,11.1630929 10.9222121,10.8875053 L10.9222121,10.5325656 C10.9222121,10.2569779 10.6988041,10.03357 10.4232165,10.03357 Z" id="形状结合" fill="url(#linearGradient-4)" opacity="0.759483701" transform="translate(10.5329, 10.6749) rotate(-1.5) translate(-10.5329, -10.6749)"></path>
        </g>
        <g id="编组" filter="url(#filter-5)" transform="translate(19.0668, 15.1644) rotate(12) translate(-19.0668, -15.1644)translate(15.3236, 7.4614)">
            <path d="M1.17151065,1.51441851 C1.42288587,1.11465239 2.50175872,1.01127273 3.50721579,1.0019742 C4.47797796,0.992996535 5.62834968,0.990913982 5.74712715,1.47474787 C5.86987827,1.97476824 6.11639886,5.23133937 5.79712295,7.0146365 C5.47784703,8.79793363 4.44799007,9.33704057 4.167293,10.3294389 C3.88659593,11.3218373 4.0297934,12.3386898 4.58466524,12.9688099 C5.13953708,13.59893 6.60216866,13.4891195 6.47526168,13.9089119 C6.39065703,14.1887735 5.47187072,14.3545081 3.71890277,14.4061158 C2.10677287,14.3870422 1.23992689,14.2585159 1.11836483,14.0205368 C1.05204023,13.8906948 1.07687031,13.7314072 1.44996476,13.59893 C2.02820904,13.3936088 2.71006206,13.296442 2.99964724,12.9688099 C3.30893738,12.6188839 3.64874619,11.5209499 3.22880011,10.3294389 C2.80885404,9.13792795 1.89995084,8.80122459 1.40023192,7.0146365 C0.900512997,5.22804841 0.920135435,1.91418464 1.17151065,1.51441851 Z" id="路径-2" fill="url(#linearGradient-6)"></path>
            <path d="M5.08418207,0.0630572038 C5.93253346,0.180838359 6.53028208,0.470490212 6.71829096,1.23633468 C6.95347568,2.19434751 7.06796179,5.59069417 6.78147114,7.19087111 C6.61963796,8.09478098 6.31309752,8.77184965 5.81996631,9.49409497 C5.74586978,9.60261756 5.42777215,10.0463644 5.35852828,10.1509847 C5.23358376,10.339763 5.16532248,10.4751085 5.12954232,10.6016084 C4.93097567,11.3036365 5.03220603,11.9638948 5.33516245,12.3079363 C5.35859139,12.3345425 5.48299569,12.3970423 5.71149059,12.4641671 C5.74557014,12.4741786 5.81320854,12.4921544 5.88919559,12.5118927 L6.04483155,12.5518818 C6.15026774,12.5787319 6.23938808,12.6010066 6.24464982,12.6020902 C6.5148879,12.6722774 6.69479405,12.7336632 6.88076738,12.8441897 C7.33351871,13.1132662 7.60891045,13.6146688 7.43247752,14.1982868 C7.14057428,15.1638661 6.2001708,15.3335001 3.70707232,15.4060458 C1.49793017,15.3799088 0.623617508,15.2502754 0.227821461,14.4754352 C-0.172550643,13.6916365 0.28070633,12.9529377 1.11535555,12.656573 C1.24396974,12.6109051 1.37380566,12.5701907 1.54155602,12.5212804 C1.64560978,12.4911805 1.64560978,12.4911805 1.74320816,12.4632103 C2.10856063,12.3581424 2.26172689,12.2937044 2.25037468,12.3065481 C2.41248017,12.1231445 2.52958536,11.3539226 2.28566399,10.6618457 C2.19127049,10.3940235 2.06543293,10.1836235 1.80698966,9.84073257 L1.81275712,9.84848813 C1.80365004,9.83706155 1.52664033,9.47296413 1.44423828,9.35961233 C0.98194659,8.72368649 0.669863576,8.11583936 0.437194355,7.28400362 C-0.078481763,5.44036559 -0.16573351,1.76246826 0.324963471,0.982104822 C0.819716234,0.195291401 1.80453503,0.0176779397 3.49796812,0.00201696494 C4.26825403,-0.00510668713 4.66382737,0.00469711628 5.08418207,0.0630572038 Z M3.68014469,1.00049802 L3.50721579,1.0019742 C2.50175872,1.01127273 1.42288587,1.11465239 1.17151065,1.51441851 C0.920135435,1.91418464 0.900512997,5.22804841 1.40023192,7.0146365 C1.89995084,8.80122459 2.80885404,9.13792795 3.22880011,10.3294389 C3.64874619,11.5209499 3.30893738,12.6188839 2.99964724,12.9688099 C2.71006206,13.296442 2.02820904,13.3936088 1.44996476,13.59893 C1.07687031,13.7314072 1.05204023,13.8906948 1.11836483,14.0205368 C1.23992689,14.2585159 2.10677287,14.3870422 3.71890277,14.4061158 C5.47187072,14.3545081 6.39065703,14.1887735 6.47526168,13.9089119 C6.60216866,13.4891195 5.13953708,13.59893 4.58466524,12.9688099 C4.0297934,12.3386898 3.88659593,11.3218373 4.167293,10.3294389 C4.44799007,9.33704057 5.47784703,8.79793363 5.79712295,7.0146365 C6.11639886,5.23133937 5.86987827,1.97476824 5.74712715,1.47474787 C5.64931041,1.07629643 4.85186574,1.00739386 4.03127251,1.00049802 L3.68014469,1.00049802 Z" id="路径-2" fill="url(#linearGradient-7)" fill-rule="nonzero"></path>
            <path d="M1.78606884,5.00614771 C1.84184392,4.94280611 2.03257231,5.05888209 2.31985305,5.17629592 C2.52603557,5.26056428 2.7903967,5.22343403 2.99121964,5.15414748 C3.46589836,4.99037709 4.06473067,4.09715327 4.58084167,3.99207651 C5.09695266,3.88699976 5.19467822,4.02672747 5.25797532,4.14359443 C5.32127243,4.2604614 5.34530908,6.43668249 5.08768787,7.27601594 C4.96499756,7.67574262 4.76585723,8.21059618 4.29305673,8.69326726 C3.96886414,9.02422798 3.5222709,9.04902475 3.13524732,8.72341716 C2.85018703,8.48359251 2.45335431,8.04897466 2.13052614,7.1884421 C1.9166998,6.6184654 1.71143208,5.09090978 1.78606884,5.00614771 Z" id="路径-4" fill="url(#linearGradient-8)" fill-rule="nonzero"></path>
        </g>
        <g id="Guide/24" transform="translate(0.5, 0.5)"></g>
    </g>
</svg>