<?xml version="1.0" encoding="UTF-8"?>
<svg width="24px" height="24px" viewBox="0 0 24 24" version="1.1" xmlns="http://www.w3.org/2000/svg" xmlns:xlink="http://www.w3.org/1999/xlink">
    <title>apps/24/deepin-music</title>
    <defs>
        <filter x="-6.8%" y="-7.5%" width="113.6%" height="115.0%" filterUnits="objectBoundingBox" id="filter-1">
            <feOffset dx="0" dy="0" in="SourceAlpha" result="shadowOffsetOuter1"></feOffset>
            <feGaussianBlur stdDeviation="0.5" in="shadowOffsetOuter1" result="shadowBlurOuter1"></feGaussianBlur>
            <feColorMatrix values="0 0 0 0 0   0 0 0 0 0   0 0 0 0 0  0 0 0 0.15 0" type="matrix" in="shadowBlurOuter1" result="shadowMatrixOuter1"></feColorMatrix>
            <feMerge>
                <feMergeNode in="shadowMatrixOuter1"></feMergeNode>
                <feMergeNode in="SourceGraphic"></feMergeNode>
            </feMerge>
        </filter>
        <linearGradient x1="98.0163112%" y1="38.451407%" x2="0%" y2="41.8451878%" id="linearGradient-2">
            <stop stop-color="#0BA186" offset="0%"></stop>
            <stop stop-color="#68C639" offset="100%"></stop>
        </linearGradient>
        <linearGradient x1="50%" y1="0%" x2="50%" y2="98.0310694%" id="linearGradient-3">
            <stop stop-color="#8DF34C" offset="0%"></stop>
            <stop stop-color="#00CCB3" offset="100%"></stop>
        </linearGradient>
        <linearGradient x1="50%" y1="0%" x2="50%" y2="100%" id="linearGradient-4">
            <stop stop-color="#FFFFFF" offset="0%"></stop>
            <stop stop-color="#FFFFFF" stop-opacity="0.7" offset="100%"></stop>
        </linearGradient>
    </defs>
    <g id="apps/24/deepin-music" stroke="none" stroke-width="1" fill="none" fill-rule="evenodd">
        <g id="6-music" filter="url(#filter-1)" transform="translate(1, 2)">
            <circle id="circle13330" stroke="url(#linearGradient-2)" fill="#151E25" transform="translate(13, 10) rotate(-270) translate(-13, -10)" cx="13" cy="10" r="8.5"></circle>
            <path d="M3.8458278,-1.55376046e-16 L14.1541722,1.55376046e-16 C15.4914503,-9.02779573e-17 15.9763797,0.139238417 16.4652686,0.400699056 C16.9541574,0.662159695 17.3378403,1.04584256 17.5993009,1.53473144 C17.8607616,2.02362033 18,2.50854969 18,3.8458278 L18,16.1541722 C18,17.4914503 17.8607616,17.9763797 17.5993009,18.4652686 C17.3378403,18.9541574 16.9541574,19.3378403 16.4652686,19.5993009 C15.9763797,19.8607616 15.4914503,20 14.1541722,20 L3.8458278,20 C2.50854969,20 2.02362033,19.8607616 1.53473144,19.5993009 C1.04584256,19.3378403 0.662159695,18.9541574 0.400699056,18.4652686 C0.139238417,17.9763797 -3.83903905e-16,17.4914503 -5.47673241e-16,16.1541722 L1.03584031e-16,3.8458278 C-6.01853049e-17,2.50854969 0.139238417,2.02362033 0.400699056,1.53473144 C0.662159695,1.04584256 1.04584256,0.662159695 1.53473144,0.400699056 C2.02362033,0.139238417 2.50854969,9.02779573e-17 3.8458278,-1.55376046e-16 Z" id="Rectangle" fill="url(#linearGradient-3)"></path>
            <path d="M13.9743083,5.03095663 C13.9913993,5.12210855 14,5.21464907 14,5.30738943 L14,13 C14,14.1045695 13.1045695,15 12,15 C10.8954305,15 10,14.1045695 10,13 C10,11.8954305 10.8954305,11 12,11 C12.364732,11 12.7066608,11.0976323 13.0010775,11.2681881 L13,6.28996314 C13,6.01382077 12.7761424,5.78996314 12.5,5.78996314 C12.4690865,5.78996314 12.4382397,5.79283006 12.4078557,5.79852705 L7.40785573,6.73602705 C7.17136928,6.78036826 7,6.98685561 7,7.22746314 L7,15 C7,16.1045695 6.1045695,17 5,17 C3.8954305,17 3,16.1045695 3,15 C3,13.8954305 3.8954305,13 5,13 C5.364732,13 5.70666076,13.0976323 6.0010775,13.2681881 L6,6.24488943 C6,5.52306683 6.51410783,4.90360478 7.2235672,4.77058115 L12.2235672,3.83308115 C13.0378052,3.68041153 13.8216387,4.21671865 13.9743083,5.03095663 Z" id="路径" fill="url(#linearGradient-4)"></path>
            <path d="M13.9743083,5.03095663 C13.9913993,5.12210855 14,5.21464907 14,5.30738943 L14,13 C14,14.1045695 13.1045695,15 12,15 C10.8954305,15 10,14.1045695 10,13 C10,11.8954305 10.8954305,11 12,11 C12.364732,11 12.7066608,11.0976323 13.0010775,11.2681881 L13,6.28996314 C13,6.01382077 12.7761424,5.78996314 12.5,5.78996314 C12.4690865,5.78996314 12.4382397,5.79283006 12.4078557,5.79852705 L7.40785573,6.73602705 C7.17136928,6.78036826 7,6.98685561 7,7.22746314 L7,15 C7,16.1045695 6.1045695,17 5,17 C3.8954305,17 3,16.1045695 3,15 C3,13.8954305 3.8954305,13 5,13 C5.364732,13 5.70666076,13.0976323 6.0010775,13.2681881 L6,6.24488943 C6,5.52306683 6.51410783,4.90360478 7.2235672,4.77058115 L12.2235672,3.83308115 C13.0378052,3.68041153 13.8216387,4.21671865 13.9743083,5.03095663 Z M5,14 C4.44771525,14 4,14.4477153 4,15 C4,15.5522847 4.44771525,16 5,16 C5.55228475,16 6,15.5522847 6,15 L6,14.42312 L5.49981224,14.1334818 C5.38699477,14.0681266 5.26309247,14.0257207 5.1325674,14.0086024 L5,14 Z M12,12 C11.4477153,12 11,12.4477153 11,13 C11,13.5522847 11.4477153,14 12,14 C12.5522847,14 13,13.5522847 13,13 L13,12.42312 L12.4998122,12.1334818 C12.3869948,12.0681266 12.2630925,12.0257207 12.1325674,12.0086024 L12,12 Z" id="Combined-Shape" fill-opacity="0.3" fill="#FFFFFF" fill-rule="nonzero"></path>
        </g>
        <g id="Guide/24" transform="translate(0.5, 0.5)"></g>
    </g>
</svg>