<?xml version="1.0" encoding="UTF-8"?>
<svg width="24px" height="24px" viewBox="0 0 24 24" version="1.1" xmlns="http://www.w3.org/2000/svg" xmlns:xlink="http://www.w3.org/1999/xlink">
    <title>apps/24/ide</title>
    <defs>
        <filter x="-7.5%" y="-7.5%" width="115.0%" height="115.0%" filterUnits="objectBoundingBox" id="filter-1">
            <feOffset dx="0" dy="0" in="SourceAlpha" result="shadowOffsetOuter1"></feOffset>
            <feGaussianBlur stdDeviation="0.5" in="shadowOffsetOuter1" result="shadowBlurOuter1"></feGaussianBlur>
            <feColorMatrix values="0 0 0 0 0   0 0 0 0 0   0 0 0 0 0  0 0 0 0.15 0" type="matrix" in="shadowBlurOuter1" result="shadowMatrixOuter1"></feColorMatrix>
            <feMerge>
                <feMergeNode in="shadowMatrixOuter1"></feMergeNode>
                <feMergeNode in="SourceGraphic"></feMergeNode>
            </feMerge>
        </filter>
        <linearGradient x1="59.0850092%" y1="100%" x2="59.0850092%" y2="-35.7610059%" id="linearGradient-2">
            <stop stop-color="#0056F5" offset="0%"></stop>
            <stop stop-color="#B4DFFF" offset="100%"></stop>
        </linearGradient>
        <linearGradient x1="15.3149337%" y1="4.05950478%" x2="93.5555556%" y2="91.0619167%" id="linearGradient-3">
            <stop stop-color="#6188FF" offset="0%"></stop>
            <stop stop-color="#0065FA" stop-opacity="0" offset="100%"></stop>
        </linearGradient>
        <linearGradient x1="50%" y1="-20.1731725%" x2="50%" y2="116.108818%" id="linearGradient-4">
            <stop stop-color="#3480F8" offset="0%"></stop>
            <stop stop-color="#CCE0FA" offset="100%"></stop>
        </linearGradient>
        <linearGradient x1="42.0245068%" y1="0%" x2="42.0245068%" y2="112.774634%" id="linearGradient-5">
            <stop stop-color="#CCE0FA" offset="0%"></stop>
            <stop stop-color="#3480F8" offset="100%"></stop>
        </linearGradient>
    </defs>
    <g id="apps/24/ide" stroke="none" stroke-width="1" fill="none" fill-rule="evenodd">
        <g id="编组" filter="url(#filter-1)" transform="translate(2, 2)">
            <rect id="矩形" fill="url(#linearGradient-2)" x="0" y="0" width="20" height="20" rx="4.125"></rect>
            <g id="编组-2" transform="translate(3, 2)">
                <path d="M7.88541515,0.474329544 L13.0104151,3.21986526 C13.6197063,3.54627125 14,4.18142633 14,4.8726402 L14,10.1273598 C14,10.8185737 13.6197063,11.4537288 13.0104151,11.7801347 L7.88541515,14.5256705 C7.33232168,14.8219705 6.66767832,14.8219705 6.11458485,14.5256705 L0.989584852,11.7801347 C0.38029367,11.4537288 4.54609956e-13,10.8185737 4.54525306e-13,10.1273598 L4.55857574e-13,4.8726402 C4.56079885e-13,4.18142633 0.38029367,3.54627125 0.989584852,3.21986526 L6.11458485,0.474329544 C6.66767832,0.178029469 7.33232168,0.178029469 7.88541515,0.474329544 Z" id="多边形" fill="url(#linearGradient-3)"></path>
                <path d="M5,5.96721598 L5,13.928216 L0.989584852,11.7801347 C0.38029367,11.4537288 4.53329901e-13,10.8185737 4.53859172e-13,10.1273598 L0,6 L5,5.96721598 Z" id="形状结合" fill="url(#linearGradient-4)"></path>
                <path d="M10.0231084,1.6191062 L13.0104151,3.21986526 C13.6197063,3.54627125 14,4.18142633 14,4.8726402 L13.999,8.99986402 L10,9.09716621 L10,1.76487649 C10,1.71398486 10.0081101,1.66498746 10.0231084,1.6191062 Z" id="形状结合" fill="url(#linearGradient-5)"></path>
                <path d="M14,6 L14,10.1273598 C14,10.8185737 13.6197063,11.4537288 13.0104151,11.7801347 L8,14.4632602 L8,9.64901683 C8,9.47966708 8.09134454,9.32348492 8.23894707,9.24046184 L14,6 Z M7.00049717,0.252104553 L7,5.20087862 C7,5.37823941 6.89989719,5.54041162 6.74134958,5.61990693 L4.54747351e-13,9 L4.54969395e-13,4.8726402 C4.55191707e-13,4.18142633 0.38029367,3.54627125 0.989584852,3.21986526 L6.11458485,0.474329544 C6.39128213,0.326098859 6.69589725,0.252023862 7.00049717,0.252104553 Z" id="形状结合" fill="#F2F8FF"></path>
            </g>
        </g>
        <g id="Guide/24" transform="translate(0.5, 0.5)"></g>
    </g>
</svg>