<svg xmlns="http://www.w3.org/2000/svg" xmlns:xlink="http://www.w3.org/1999/xlink" width="24" height="24" viewBox="0 0 24 24">
  <defs>
    <filter id="快速激活（ukey）-24px-a" width="121.7%" height="121.7%" x="-10.9%" y="-10.9%" filterUnits="objectBoundingBox">
      <feOffset in="SourceAlpha" result="shadowOffsetOuter1"/>
      <feGaussianBlur in="shadowOffsetOuter1" result="shadowBlurOuter1" stdDeviation=".5"/>
      <feColorMatrix in="shadowBlurOuter1" result="shadowMatrixOuter1" values="0 0 0 0 0   0 0 0 0 0   0 0 0 0 0  0 0 0 0.15 0"/>
      <feMerge>
        <feMergeNode in="shadowMatrixOuter1"/>
        <feMergeNode in="SourceGraphic"/>
      </feMerge>
    </filter>
    <linearGradient id="快速激活（ukey）-24px-b" x1="50%" x2="50%" y1="0%" y2="98.139%">
      <stop offset="0%" stop-color="#FFF"/>
      <stop offset="100%" stop-color="#EDEDED"/>
    </linearGradient>
    <path id="快速激活（ukey）-24px-d" d="M11.0625,2.671875 C15.6965142,2.671875 19.453125,6.42848577 19.453125,11.0625 C19.453125,15.6965142 15.6965142,19.453125 11.0625,19.453125 C6.42848577,19.453125 2.671875,15.6965142 2.671875,11.0625 C2.671875,6.42848577 6.42848577,2.671875 11.0625,2.671875 Z"/>
    <filter id="快速激活（ukey）-24px-c" width="141.7%" height="141.7%" x="-20.9%" y="-14.9%" filterUnits="objectBoundingBox">
      <feOffset dy="1" in="SourceAlpha" result="shadowOffsetOuter1"/>
      <feGaussianBlur in="shadowOffsetOuter1" result="shadowBlurOuter1" stdDeviation="1"/>
      <feColorMatrix in="shadowBlurOuter1" values="0 0 0 0 0   0 0 0 0 0   0 0 0 0 0  0 0 0 0.102108829 0"/>
    </filter>
    <path id="快速激活（ukey）-24px-f" d="M11.0859375,5.296875 C14.2831484,5.296875 16.875,7.88872657 16.875,11.0859375 C16.875,14.2831484 14.2831484,16.875 11.0859375,16.875 C7.88872657,16.875 5.296875,14.2831484 5.296875,11.0859375 C5.296875,7.88872657 7.88872657,5.296875 11.0859375,5.296875 Z"/>
    <filter id="快速激活（ukey）-24px-e" width="160.5%" height="160.5%" x="-30.2%" y="-21.6%" filterUnits="objectBoundingBox">
      <feOffset dy="1" in="SourceAlpha" result="shadowOffsetOuter1"/>
      <feGaussianBlur in="shadowOffsetOuter1" result="shadowBlurOuter1" stdDeviation="1"/>
      <feColorMatrix in="shadowBlurOuter1" values="0 0 0 0 0   0 0 0 0 0   0 0 0 0 0  0 0 0 0.102108829 0"/>
    </filter>
    <filter id="快速激活（ukey）-24px-g" width="155.6%" height="123.8%" x="-27.8%" y="-11.9%" filterUnits="objectBoundingBox">
      <feOffset in="SourceAlpha" result="shadowOffsetOuter1"/>
      <feGaussianBlur in="shadowOffsetOuter1" result="shadowBlurOuter1" stdDeviation=".5"/>
      <feColorMatrix in="shadowBlurOuter1" result="shadowMatrixOuter1" values="0 0 0 0 0   0 0 0 0 0   0 0 0 0 0  0 0 0 0.15 0"/>
      <feMerge>
        <feMergeNode in="shadowMatrixOuter1"/>
        <feMergeNode in="SourceGraphic"/>
      </feMerge>
    </filter>
    <linearGradient id="快速激活（ukey）-24px-h" x1="100%" x2="0%" y1="64.916%" y2="64.916%">
      <stop offset="0%" stop-color="#EFEFF0"/>
      <stop offset="100%" stop-color="#CCCCCB"/>
    </linearGradient>
    <linearGradient id="快速激活（ukey）-24px-i" x1="132.739%" x2="0%" y1="50%" y2="50%">
      <stop offset="0%" stop-color="#EFF0F0"/>
      <stop offset="100%" stop-color="#CCC"/>
    </linearGradient>
    <linearGradient id="快速激活（ukey）-24px-j" x1="50%" x2="50%" y1="-30.059%" y2="100%">
      <stop offset="2.344%" stop-color="#707382"/>
      <stop offset="99.787%" stop-color="#4B4A55"/>
    </linearGradient>
    <path id="快速激活（ukey）-24px-k" d="M6.35725944,1.45065179 L6.96663444,1.45065179 C7.12196453,1.45065179 7.24788444,1.5765717 7.24788444,1.73190179 L7.24788444,2.34127679 C7.24788444,2.49660687 7.12196453,2.62252679 6.96663444,2.62252679 L6.35725944,2.62252679 C6.20192936,2.62252679 6.07600944,2.49660687 6.07600944,2.34127679 L6.07600944,1.73190179 C6.07600944,1.5765717 6.20192936,1.45065179 6.35725944,1.45065179 Z"/>
    <filter id="快速激活（ukey）-24px-l" width="270.7%" height="270.7%" x="-85.3%" y="-85.3%" filterUnits="objectBoundingBox">
      <feGaussianBlur in="SourceAlpha" result="shadowBlurInner1" stdDeviation=".5"/>
      <feOffset dy="1" in="shadowBlurInner1" result="shadowOffsetInner1"/>
      <feComposite in="shadowOffsetInner1" in2="SourceAlpha" k2="-1" k3="1" operator="arithmetic" result="shadowInnerInner1"/>
      <feColorMatrix in="shadowInnerInner1" values="0 0 0 0 0   0 0 0 0 0   0 0 0 0 0  0 0 0 0.194110577 0"/>
    </filter>
    <path id="快速激活（ukey）-24px-m" d="M1.95100944,1.45065179 L2.56038444,1.45065179 C2.71571453,1.45065179 2.84163444,1.5765717 2.84163444,1.73190179 L2.84163444,2.34127679 C2.84163444,2.49660687 2.71571453,2.62252679 2.56038444,2.62252679 L1.95100944,2.62252679 C1.79567936,2.62252679 1.66975944,2.49660687 1.66975944,2.34127679 L1.66975944,1.73190179 C1.66975944,1.5765717 1.79567936,1.45065179 1.95100944,1.45065179 Z"/>
    <filter id="快速激活（ukey）-24px-n" width="270.7%" height="270.7%" x="-85.3%" y="-85.3%" filterUnits="objectBoundingBox">
      <feGaussianBlur in="SourceAlpha" result="shadowBlurInner1" stdDeviation=".5"/>
      <feOffset dy="1" in="shadowBlurInner1" result="shadowOffsetInner1"/>
      <feComposite in="shadowOffsetInner1" in2="SourceAlpha" k2="-1" k3="1" operator="arithmetic" result="shadowInnerInner1"/>
      <feColorMatrix in="shadowInnerInner1" values="0 0 0 0 0   0 0 0 0 0   0 0 0 0 0  0 0 0 0.194110577 0"/>
    </filter>
    <linearGradient id="快速激活（ukey）-24px-o" x1="43.066%" x2="43.066%" y1="4.482%" y2="97.913%">
      <stop offset="0%" stop-color="#595B6F"/>
      <stop offset="100%" stop-color="#9196A2"/>
    </linearGradient>
    <linearGradient id="快速激活（ukey）-24px-p" x1="50%" x2="50%" y1="1.48%" y2="100%">
      <stop offset="0%" stop-color="#373848"/>
      <stop offset="100%" stop-color="#666874" stop-opacity=".476"/>
    </linearGradient>
    <linearGradient id="快速激活（ukey）-24px-q" x1="50%" x2="50%" y1="0%" y2="100%">
      <stop offset="0%" stop-color="#FFF" stop-opacity=".206"/>
      <stop offset="100%" stop-color="#FFF" stop-opacity=".275"/>
    </linearGradient>
    <linearGradient id="快速激活（ukey）-24px-r" x1="0%" x2="98.687%" y1="100%" y2="100%">
      <stop offset="0%" stop-color="#FFF"/>
      <stop offset="100%" stop-color="#EDEDED"/>
    </linearGradient>
    <linearGradient id="快速激活（ukey）-24px-t" x1="50%" x2="50%" y1="0%" y2="88.619%">
      <stop offset="0%" stop-color="#92959F"/>
      <stop offset="100%" stop-color="#363848"/>
    </linearGradient>
    <path id="快速激活（ukey）-24px-s" d="M0.872884444,4.87252679 L8.04475944,4.87252679 C8.5107497,4.87252679 8.88850944,5.25028653 8.88850944,5.71627679 L8.88850944,7.49752679 C8.88850944,7.96351704 8.5107497,8.34127679 8.04475944,8.34127679 L0.872884444,8.34127679 C0.406894186,8.34127679 0.0291344441,7.96351704 0.0291344441,7.49752679 L0.0291344441,5.71627679 C0.0291344441,5.25028653 0.406894186,4.87252679 0.872884444,4.87252679 Z"/>
    <filter id="快速激活（ukey）-24px-u" width="105.6%" height="114.4%" x="-2.8%" y="-7.2%" filterUnits="objectBoundingBox">
      <feOffset dy="-.5" in="SourceAlpha" result="shadowOffsetInner1"/>
      <feComposite in="shadowOffsetInner1" in2="SourceAlpha" k2="-1" k3="1" operator="arithmetic" result="shadowInnerInner1"/>
      <feColorMatrix in="shadowInnerInner1" result="shadowMatrixInner1" values="0 0 0 0 0   0 0 0 0 0   0 0 0 0 0  0 0 0 0.227573208 0"/>
      <feOffset dy=".5" in="SourceAlpha" result="shadowOffsetInner2"/>
      <feComposite in="shadowOffsetInner2" in2="SourceAlpha" k2="-1" k3="1" operator="arithmetic" result="shadowInnerInner2"/>
      <feColorMatrix in="shadowInnerInner2" result="shadowMatrixInner2" values="0 0 0 0 1   0 0 0 0 1   0 0 0 0 1  0 0 0 0.165428322 0"/>
      <feMerge>
        <feMergeNode in="shadowMatrixInner1"/>
        <feMergeNode in="shadowMatrixInner2"/>
      </feMerge>
    </filter>
  </defs>
  <g fill="none" fill-rule="evenodd">
    <g filter="url(#快速激活（ukey）-24px-a)" transform="translate(.938 .938)">
      <path fill="url(#快速激活（ukey）-24px-b)" d="M11.0625,0 C17.17215,0 22.125,4.95284996 22.125,11.0625 C22.125,17.17215 17.17215,22.125 11.0625,22.125 C4.95284996,22.125 0,17.17215 0,11.0625 C0,4.95284996 4.95284996,0 11.0625,0 Z"/>
      <use fill="#000" filter="url(#快速激活（ukey）-24px-c)" xlink:href="#快速激活（ukey）-24px-d"/>
      <use fill="url(#快速激活（ukey）-24px-b)" xlink:href="#快速激活（ukey）-24px-d"/>
      <use fill="#000" filter="url(#快速激活（ukey）-24px-e)" xlink:href="#快速激活（ukey）-24px-f"/>
      <use fill="url(#快速激活（ukey）-24px-b)" xlink:href="#快速激活（ukey）-24px-f"/>
    </g>
    <g filter="url(#快速激活（ukey）-24px-g)" transform="rotate(30 3.43 24.755)">
      <path fill="url(#快速激活（ukey）-24px-h)" fill-rule="nonzero" d="M1.85725944,0.044401787 L4.76350944,0.044401787 L4.76350944,5.81002679 L0.544759444,5.81002679 L0.544759444,1.35690179 C0.544759444,0.632028053 1.13238571,0.044401787 1.85725944,0.044401787 Z"/>
      <path fill="url(#快速激活（ukey）-24px-i)" fill-rule="nonzero" d="M4.53382194,0.044401787 L7.06038444,0.044401787 C7.78525818,0.044401787 8.37288444,0.632028053 8.37288444,1.35690179 L8.37288444,5.81002679 L4.53382194,5.81002679 L4.53382194,3.8466148 C4.53382194,3.74306141 4.44987533,3.6591148 4.34632194,3.6591148 L4.29475944,3.6591148 C4.19120605,3.6591148 4.10725944,3.5751682 4.10725944,3.4716148 L4.10725944,2.9223121 C4.10725944,2.81875871 4.19120605,2.7348121 4.29475944,2.7348121 L4.34632194,2.7348121 C4.44987533,2.7348121 4.53382194,2.65086549 4.53382194,2.5473121 L4.53382194,1.93813357 C4.53382194,1.83458018 4.44987533,1.75063357 4.34632194,1.75063357 L4.29475944,1.75063357 C4.19120605,1.75063357 4.10725944,1.66668696 4.10725944,1.56313357 L4.10725944,1.01249685 C4.10725944,0.908943456 4.19120605,0.824996847 4.29475944,0.824996847 L4.34632194,0.824996847 C4.44987533,0.824996847 4.53382194,0.741050237 4.53382194,0.637496847 L4.53382194,0.044401787 Z"/>
      <g fill-rule="nonzero">
        <use fill="url(#快速激活（ukey）-24px-j)" xlink:href="#快速激活（ukey）-24px-k"/>
        <use fill="#000" filter="url(#快速激活（ukey）-24px-l)" xlink:href="#快速激活（ukey）-24px-k"/>
      </g>
      <g fill-rule="nonzero">
        <use fill="url(#快速激活（ukey）-24px-j)" xlink:href="#快速激活（ukey）-24px-m"/>
        <use fill="#000" filter="url(#快速激活（ukey）-24px-n)" xlink:href="#快速激活（ukey）-24px-m"/>
      </g>
      <path fill="url(#快速激活（ukey）-24px-o)" fill-rule="nonzero" d="M2.09163444,6.70065179 L2.09163444,9.95916475 C2.09163444,10.1085464 2.13129345,10.2552502 2.20655888,10.3842851 L3.10715392,11.9282635 C3.29162255,12.2445162 3.25108608,12.6436466 3.0068015,12.9163542 L2.57844542,13.3945505 C2.30333864,13.7017473 2.29054593,14.1627961 2.54823704,14.4847416 C3.12716864,15.2080278 3.41663444,15.7125376 3.41663444,15.9982708 C3.41663444,16.2557755 3.18153819,16.6066054 2.71134567,17.0507606 C2.38019955,17.36356 2.35712806,17.8827336 2.65921769,18.223678 L3.99928708,19.7361068 C4.1353716,19.8896945 4.36963033,19.9053804 4.52497662,19.7713069 L6.93039852,17.6952782 C7.01293552,17.6240436 7.06038444,17.5204152 7.06038444,17.411389 L7.06038444,6.85913393 L7.06038444,6.85913393 L2.09163444,6.70065179 Z"/>
      <path fill="url(#快速激活（ukey）-24px-p)" fill-rule="nonzero" d="M2.09163444,6.70065179 L7.06038444,6.85913393 L7.06038444,17.411389 C7.06038444,17.4931586 7.03369442,17.5718921 6.98552912,17.6362002 L6.93039852,17.6952782 L4.52497662,19.7713069 C4.38904862,19.8886213 4.19270328,19.891276 4.05457482,19.7872149 L3.99928708,19.7361068 L2.65921769,18.223678 C2.35712806,17.8827336 2.38019955,17.36356 2.71134567,17.0507606 C3.18153819,16.6066054 3.41663444,16.2557755 3.41663444,15.9982708 C3.41663444,15.7601598 3.21561653,15.3701206 2.81358069,14.8281533 L2.54823704,14.4847416 C2.31631504,14.1949906 2.30348494,13.792566 2.50379098,13.4910321 L2.57844542,13.3945505 L3.0068015,12.9163542 C3.22394335,12.6739474 3.28009903,12.331651 3.1603391,12.0364635 L3.10715392,11.9282635 L2.20655888,10.3842851 C2.15010981,10.287509 2.11368935,10.180794 2.09900719,10.0704647 L2.09163444,9.95916475 L2.09163444,6.70065179 Z M2.591,7.216 L2.59163444,9.95916475 C2.59163444,9.99973755 2.5988155,10.0398255 2.61268841,10.0776189 L2.63845551,10.1323619 L3.53905056,11.6763403 C3.80835197,12.1380301 3.77654704,12.7106287 3.46971173,13.1373865 L3.37923003,13.2499663 L2.95091754,13.7281138 C2.83881914,13.853288 2.83361185,14.0411382 2.93859176,14.1722945 C3.59066226,14.9869565 3.91663444,15.5550932 3.91663444,15.9982708 C3.91663444,16.4368764 3.61873587,16.8814251 3.05468658,17.4142397 C2.93904999,17.5234696 2.91562433,17.6944716 2.98879583,17.8285734 L3.03345165,17.8920925 L4.291,19.312 L6.56,17.353 L6.56,7.343 L2.591,7.216 Z"/>
      <path fill="url(#快速激活（ukey）-24px-q)" fill-rule="nonzero" d="M5.65709092,8.94541479 C5.77543652,8.94490105 5.87493434,9.02670127 5.9013263,9.13703109 L5.90817893,9.19432445 L5.93647249,15.6812756 C5.9370747,15.8193455 5.82563514,15.9317614 5.68756527,15.932366 C5.56921966,15.9328798 5.46972185,15.8510796 5.44332988,15.7407498 L5.43647725,15.6834564 L5.40818369,9.19650524 C5.40758148,9.05843536 5.51902104,8.94601943 5.65709092,8.94541479 Z"/>
      <use fill="url(#快速激活（ukey）-24px-r)" xlink:href="#快速激活（ukey）-24px-s"/>
      <use fill="url(#快速激活（ukey）-24px-t)" xlink:href="#快速激活（ukey）-24px-s"/>
      <use fill="#000" filter="url(#快速激活（ukey）-24px-u)" xlink:href="#快速激活（ukey）-24px-s"/>
    </g>
  </g>
</svg>
