<?xml version="1.0" encoding="UTF-8"?>
<svg width="24px" height="24px" viewBox="0 0 24 24" version="1.1" xmlns="http://www.w3.org/2000/svg" xmlns:xlink="http://www.w3.org/1999/xlink">
    <title>apps/24/org.deepin.scanner</title>
    <defs>
        <filter x="-6.8%" y="-6.8%" width="114.5%" height="113.6%" filterUnits="objectBoundingBox" id="filter-1">
            <feOffset dx="0" dy="0" in="SourceAlpha" result="shadowOffsetOuter1"></feOffset>
            <feGaussianBlur stdDeviation="0.5" in="shadowOffsetOuter1" result="shadowBlurOuter1"></feGaussianBlur>
            <feColorMatrix values="0 0 0 0 0   0 0 0 0 0   0 0 0 0 0  0 0 0 0.15 0" type="matrix" in="shadowBlurOuter1" result="shadowMatrixOuter1"></feColorMatrix>
            <feMerge>
                <feMergeNode in="shadowMatrixOuter1"></feMergeNode>
                <feMergeNode in="SourceGraphic"></feMergeNode>
            </feMerge>
        </filter>
        <linearGradient x1="50%" y1="0%" x2="50%" y2="100%" id="linearGradient-2">
            <stop stop-color="#0ECB04" offset="0%"></stop>
            <stop stop-color="#008972" offset="100%"></stop>
        </linearGradient>
        <filter x="-19.2%" y="-25.0%" width="138.5%" height="157.1%" filterUnits="objectBoundingBox" id="filter-3">
            <feOffset dx="0" dy="1" in="SourceAlpha" result="shadowOffsetOuter1"></feOffset>
            <feGaussianBlur stdDeviation="1" in="shadowOffsetOuter1" result="shadowBlurOuter1"></feGaussianBlur>
            <feColorMatrix values="0 0 0 0 0   0 0 0 0 0   0 0 0 0 0  0 0 0 0.21 0" type="matrix" in="shadowBlurOuter1" result="shadowMatrixOuter1"></feColorMatrix>
            <feMerge>
                <feMergeNode in="shadowMatrixOuter1"></feMergeNode>
                <feMergeNode in="SourceGraphic"></feMergeNode>
            </feMerge>
        </filter>
        <linearGradient x1="50%" y1="0%" x2="50%" y2="100%" id="linearGradient-4">
            <stop stop-color="#C3FFBF" stop-opacity="0.305015297" offset="0%"></stop>
            <stop stop-color="#83E991" stop-opacity="0.778791521" offset="100%"></stop>
        </linearGradient>
        <linearGradient x1="84.4802726%" y1="29.5015934%" x2="44.517753%" y2="79.4355073%" id="linearGradient-5">
            <stop stop-color="#FFFFFF" offset="0%"></stop>
            <stop stop-color="#D6DDF6" offset="100%"></stop>
        </linearGradient>
        <linearGradient x1="72.5830172%" y1="25.7789986%" x2="50%" y2="82%" id="linearGradient-6">
            <stop stop-color="#FFFFFF" offset="0%"></stop>
            <stop stop-color="#D7FFC6" offset="100%"></stop>
        </linearGradient>
        <radialGradient cx="52.3239218%" cy="53.481434%" fx="52.3239218%" fy="53.481434%" r="62.6040671%" gradientTransform="translate(0.5232, 0.5348), scale(0.9359, 1), rotate(120.3132), scale(1, 1.2647), translate(-0.5232, -0.5348)" id="radialGradient-7">
            <stop stop-color="#000000" offset="0%"></stop>
            <stop stop-color="#000000" stop-opacity="0.148218969" offset="100%"></stop>
        </radialGradient>
        <linearGradient x1="69.9516273%" y1="71.0965544%" x2="57.0509821%" y2="57.7013487%" id="linearGradient-8">
            <stop stop-color="#C6C6C6" offset="0%"></stop>
            <stop stop-color="#E7E7E7" offset="53.0517663%"></stop>
            <stop stop-color="#F4F4F4" offset="100%"></stop>
        </linearGradient>
        <path d="M13.75,-0.25 C13.75,-0.25 13.475949,0.85576438 13.2378049,1.23404255 C12.8607557,1.83296342 12.4329268,1.68882979 12.0914634,2.19148936 C11.75,2.69414894 11.8783487,3.05973519 11.0914634,3.72340426 C10.6697691,4.07906662 9.75,4.25 9.75,4.25 C12.1994382,4.25 13.75,1.48201439 13.75,-0.25 Z" id="path-9"></path>
        <filter x="-50.0%" y="-22.2%" width="200.0%" height="188.9%" filterUnits="objectBoundingBox" id="filter-10">
            <feOffset dx="0" dy="1" in="SourceAlpha" result="shadowOffsetOuter1"></feOffset>
            <feGaussianBlur stdDeviation="0.5" in="shadowOffsetOuter1" result="shadowBlurOuter1"></feGaussianBlur>
            <feColorMatrix values="0 0 0 0 0   0 0 0 0 0   0 0 0 0 0  0 0 0 0.05 0" type="matrix" in="shadowBlurOuter1"></feColorMatrix>
        </filter>
        <linearGradient x1="80.4721539%" y1="32.8136894%" x2="50%" y2="69.53125%" id="linearGradient-11">
            <stop stop-color="#000000" stop-opacity="0.0351835664" offset="0%"></stop>
            <stop stop-color="#000000" stop-opacity="0.08" offset="100%"></stop>
        </linearGradient>
        <radialGradient cx="50%" cy="50%" fx="50%" fy="50%" r="94.5776543%" gradientTransform="translate(0.5, 0.5), scale(0.4588, 1), scale(1, 0.3047), translate(-0.5, -0.5)" id="radialGradient-12">
            <stop stop-color="#EBFF26" offset="0%"></stop>
            <stop stop-color="#F2FF3D" stop-opacity="0" offset="100%"></stop>
        </radialGradient>
        <filter x="0.0%" y="0.0%" width="100.0%" height="100.0%" filterUnits="objectBoundingBox" id="filter-13">
            <feGaussianBlur stdDeviation="0.234375" in="SourceGraphic"></feGaussianBlur>
        </filter>
        <radialGradient cx="50%" cy="50%" fx="50%" fy="50%" r="520.710277%" gradientTransform="translate(0.5, 0.5), scale(0.0945, 1), scale(1, 0.072), translate(-0.5, -0.5)" id="radialGradient-14">
            <stop stop-color="#F7FF81" stop-opacity="0.995473976" offset="0%"></stop>
            <stop stop-color="#F8FF98" stop-opacity="0" offset="100%"></stop>
        </radialGradient>
        <radialGradient cx="50%" cy="50%" fx="50%" fy="50%" r="1628.5185%" gradientTransform="translate(0.5, 0.5), scale(0.0302, 1), scale(1, 0.0131), translate(-0.5, -0.5)" id="radialGradient-15">
            <stop stop-color="#FFFFFF" stop-opacity="0.995473976" offset="0%"></stop>
            <stop stop-color="#FFFFFF" stop-opacity="0" offset="100%"></stop>
        </radialGradient>
        <linearGradient x1="0%" y1="50%" x2="99.2134713%" y2="50%" id="linearGradient-16">
            <stop stop-color="#FFFFFF" stop-opacity="0" offset="0%"></stop>
            <stop stop-color="#FFFFFF" stop-opacity="0.891541755" offset="49.7980275%"></stop>
            <stop stop-color="#FFFFFF" stop-opacity="0" offset="100%"></stop>
        </linearGradient>
    </defs>
    <g id="apps/24/org.deepin.scanner" stroke="none" stroke-width="1" fill="none" fill-rule="evenodd">
        <g id="编组-2" filter="url(#filter-1)" transform="translate(1, 1)">
            <circle id="椭圆形" fill="url(#linearGradient-2)" cx="11" cy="11" r="11"></circle>
            <g id="编组" filter="url(#filter-3)" transform="translate(2, 4)">
                <path d="M5.875,5 L12.125,5 C13.1605339,5 14,5.83946609 14,6.875 L14,12.125 C14,13.1605339 13.1605339,14 12.125,14 L5.875,14 C4.83946609,14 4,13.1605339 4,12.125 L4,6.875 C4,5.83946609 4.83946609,5 5.875,5 Z" id="矩形备份-3" fill="#0EA141"></path>
                <path d="M7.36525149,13 L7.365,14 L6.365,14 L6.36525149,13 L7.36525149,13 Z M9.36525149,13 L9.365,14 L8.365,14 L8.36525149,13 L9.36525149,13 Z M11.3652515,13 L11.365,14 L10.365,14 L10.3652515,13 L11.3652515,13 Z M12.6689488,12.8104724 L13.2918686,13.5927581 C13.0324745,13.7992509 12.7171043,13.938426 12.372191,13.9838507 L12.2411981,12.9924672 C12.398514,12.9718266 12.5453378,12.9088426 12.6689488,12.8104724 Z M5.23965895,12.726643 C5.34892958,12.8419507 5.48683151,12.9256089 5.63872009,12.9679901 L5.36955395,13.9310839 C5.03837558,13.8385953 4.74418493,13.6574636 4.51417001,13.4148769 L5.23965895,12.726643 Z M14,11.754 L14,12.125 C14,12.3427909 13.9628675,12.551909 13.8945882,12.7463688 L12.9511251,12.4148909 C12.9833235,12.3231237 13,12.2258964 13,12.125 L13,11.7548743 L14,11.754 Z M5,11.4852996 L5.00002422,12.1316582 C5.00044221,12.1890682 5.00626592,12.2452263 5.01727818,12.299872 L4.03697991,12.4973948 C4.01272699,12.3770365 4,12.2525045 4,12.125 L4,11.485 L5,11.4852996 Z M14,9.754 L14,10.754 L13,10.7548743 L13,9.75487426 L14,9.754 Z M5,9.48537723 L5,10.4853772 L4,10.485 L4,9.485 L5,9.48537723 Z M14,7.754 L14,8.754 L13,8.75487426 L13,7.75487426 L14,7.754 Z M5,7.48537723 L5,8.48537723 L4,8.485 L4,7.485 L5,7.48537723 Z M12.9984316,6.82165112 C12.9889922,6.66190812 12.9368505,6.51152125 12.8479318,6.38173698 L13.6727748,5.81637507 C13.8593388,6.08861936 13.975942,6.41257659 13.9966708,6.7623331 L12.9984316,6.82165112 Z M4.50069396,5.59948511 L5.23343085,6.27999717 C5.12555728,6.39619774 5.05121082,6.53854567 5.01872832,6.69308347 L4.04026321,6.4866706 C4.11151004,6.14836874 4.27396025,5.84366694 4.50069396,5.59948511 Z M12.125,5 C12.3859219,5 12.6343959,5.05329613 12.8601294,5.14959594 L12.4676789,6.06936908 C12.3608181,6.02379043 12.2454626,6 12.125,6 L11.875,6 L11.875,5 L12.125,5 Z M5.875,5 L5.875,6 C5.81527007,6 5.7568834,6.00584077 5.70012804,6.01727818 L5.50260515,5.03697991 C5.62296352,5.01272699 5.74749549,5 5.875,5 Z M6.875,5 L6.875,6 L5.875,6 L5.875,5 L6.875,5 Z M8.875,5 L8.875,6 L7.875,6 L7.875,5 L8.875,5 Z M10.875,5 L10.875,6 L9.875,6 L9.875,5 L10.875,5 Z" id="矩形备份-3" fill-opacity="0.703316215" fill="#96FF8F" fill-rule="nonzero"></path>
                <path d="M5.5,9 L10.5,9 C10.7761424,9 11,9.22385763 11,9.5 C11,9.77614237 10.7761424,10 10.5,10 L5.5,10 C5.22385763,10 5,9.77614237 5,9.5 C5,9.22385763 5.22385763,9 5.5,9 Z M5.5,11 C5.77614237,11 6,11.2238576 6,11.5 C6,11.7761424 5.77614237,12 5.5,12 C5.22385763,12 5,11.7761424 5,11.5 C5,11.2238576 5.22385763,11 5.5,11 Z M7.5,11 L8.5,11 C8.77614237,11 9,11.2238576 9,11.5 C9,11.7761424 8.77614237,12 8.5,12 L7.5,12 C7.22385763,12 7,11.7761424 7,11.5 C7,11.2238576 7.22385763,11 7.5,11 Z M10.5,11 L12.5,11 C12.7761424,11 13,11.2238576 13,11.5 C13,11.7761424 12.7761424,12 12.5,12 L10.5,12 C10.2238576,12 10,11.7761424 10,11.5 C10,11.2238576 10.2238576,11 10.5,11 Z" id="形状结合备份-2" fill="url(#linearGradient-4)" opacity="0.359375"></path>
                <path d="M5.875,0 L10.6447368,0 L10.6447368,0 C11.2383964,0.228437187 11.9036011,0.680544467 12.6403509,1.35632184 C13.3421053,2 13.7953216,2.8045977 14,3.77011494 L14,8 L4,8 L4,1.875 C4,0.839466094 4.83946609,1.90224492e-16 5.875,0 Z" id="矩形备份-5" fill="url(#linearGradient-5)"></path>
                <path d="M5.875,0 L12.125,0 C13.1605339,-1.90224492e-16 14,0.839466094 14,1.875 L14,8 L14,8 L4,8 L4,1.875 C4,0.839466094 4.83946609,1.90224492e-16 5.875,0 Z" id="矩形备份-2" fill="url(#linearGradient-6)"></path>
                <path d="M9.72587711,0 L12.125,0 C13.1605339,-1.90224492e-16 14,0.839466094 14,1.875 L14,4 L14,4 C13.8523645,2.94308943 13.3557723,2.03252033 12.5102233,1.26829268 C11.7725632,0.601577497 10.8444477,0.17881327 9.72587711,0 Z" id="路径" fill-opacity="0.28" fill="url(#radialGradient-7)"></path>
                <g id="路径-11" transform="translate(11.75, 2) rotate(-90) translate(-11.75, -2)">
                    <use fill="black" fill-opacity="1" filter="url(#filter-10)" xlink:href="#path-9"></use>
                    <use fill="url(#linearGradient-8)" fill-rule="evenodd" xlink:href="#path-9"></use>
                </g>
                <path d="M5.5,4 L7.5,4 C7.77614237,4 8,4.22385763 8,4.5 C8,4.77614237 7.77614237,5 7.5,5 L5.5,5 C5.22385763,5 5,4.77614237 5,4.5 C5,4.22385763 5.22385763,4 5.5,4 Z M5.5,2 L11.5,2 C11.7761424,2 12,2.22385763 12,2.5 C12,2.77614237 11.7761424,3 11.5,3 L5.5,3 C5.22385763,3 5,2.77614237 5,2.5 C5,2.22385763 5.22385763,2 5.5,2 Z M9.5,4 L10.5,4 C10.7761424,4 11,4.22385763 11,4.5 C11,4.77614237 10.7761424,5 10.5,5 L9.5,5 C9.22385763,5 9,4.77614237 9,4.5 C9,4.22385763 9.22385763,4 9.5,4 Z M11.5,6 L12.5,6 C12.7761424,6 13,6.22385763 13,6.5 C13,6.77614237 12.7761424,7 12.5,7 L11.5,7 C11.2238576,7 11,6.77614237 11,6.5 C11,6.22385763 11.2238576,6 11.5,6 Z M5.5,6 L9.5,6 C9.77614237,6 10,6.22385763 10,6.5 C10,6.77614237 9.77614237,7 9.5,7 L5.5,7 C5.22385763,7 5,6.77614237 5,6.5 C5,6.22385763 5.22385763,6 5.5,6 Z" id="形状结合备份" fill="url(#linearGradient-11)"></path>
                <g id="编组-3" transform="translate(0, 3.7812)">
                    <polygon id="矩形" fill="url(#radialGradient-12)" opacity="0.799153646" filter="url(#filter-13)" points="0 3.71557617 9.09375 0 18.1875 3.32446289 18.1875 5.1496582 9.2109375 8.34375 0 5.54077148"></polygon>
                    <rect id="矩形备份-7" fill="url(#radialGradient-14)" x="1.40625" y="3.46875" width="15.375" height="1.453125"></rect>
                    <rect id="矩形备份-10" fill="url(#radialGradient-15)" opacity="0.95265997" x="0.5625" y="3.9375" width="17.0625" height="1"></rect>
                    <rect id="矩形备份-22" fill="url(#linearGradient-16)" opacity="0.95265997" x="3.9375" y="4.125" width="10.3125" height="1"></rect>
                </g>
            </g>
        </g>
        <g id="Guide/24" transform="translate(0.5, 0.5)"></g>
    </g>
</svg>