<?xml version="1.0" encoding="UTF-8"?>
<svg width="24px" height="24px" viewBox="0 0 24 24" version="1.1" xmlns="http://www.w3.org/2000/svg" xmlns:xlink="http://www.w3.org/1999/xlink">
    <title>apps/24/preferences-system</title>
    <defs>
        <filter x="-6.8%" y="-6.8%" width="113.6%" height="113.6%" filterUnits="objectBoundingBox" id="filter-1">
            <feOffset dx="0" dy="0" in="SourceAlpha" result="shadowOffsetOuter1"></feOffset>
            <feGaussianBlur stdDeviation="0.5" in="shadowOffsetOuter1" result="shadowBlurOuter1"></feGaussianBlur>
            <feColorMatrix values="0 0 0 0 0   0 0 0 0 0   0 0 0 0 0  0 0 0 0.15 0" type="matrix" in="shadowBlurOuter1" result="shadowMatrixOuter1"></feColorMatrix>
            <feMerge>
                <feMergeNode in="shadowMatrixOuter1"></feMergeNode>
                <feMergeNode in="SourceGraphic"></feMergeNode>
            </feMerge>
        </filter>
        <linearGradient x1="52.7028203%" y1="103.309406%" x2="47.9444041%" y2="1.43982049e-14%" id="linearGradient-2">
            <stop stop-color="#410DD9" offset="1.92602962%"></stop>
            <stop stop-color="#2F54F8" offset="100%"></stop>
        </linearGradient>
        <circle id="path-3" cx="11.2619048" cy="11.2619048" r="7.07142857"></circle>
        <filter x="-7.1%" y="-7.1%" width="114.1%" height="114.1%" filterUnits="objectBoundingBox" id="filter-4">
            <feGaussianBlur stdDeviation="0.5" in="SourceAlpha" result="shadowBlurInner1"></feGaussianBlur>
            <feOffset dx="0" dy="1" in="shadowBlurInner1" result="shadowOffsetInner1"></feOffset>
            <feComposite in="shadowOffsetInner1" in2="SourceAlpha" operator="arithmetic" k2="-1" k3="1" result="shadowInnerInner1"></feComposite>
            <feColorMatrix values="0 0 0 0 0   0 0 0 0 0   0 0 0 0 0  0 0 0 0.5 0" type="matrix" in="shadowInnerInner1"></feColorMatrix>
        </filter>
        <path d="M10.6676644,3.97640304 C11.0372745,4.02053651 11.3965159,4.09843139 11.742217,4.20691596 L11.6700123,5.01764875 C11.9484126,5.12077023 12.2152232,5.24823841 12.4679278,5.39750628 L13.071698,4.81259843 C13.3815836,5.00281879 13.6727771,5.22052962 13.9418829,5.46233535 L13.5010184,6.20738302 C13.7133535,6.42403982 13.9064602,6.66003481 14.0775321,6.91252717 L14.9437006,6.62657832 C15.1374234,6.92089522 15.3058153,7.23336614 15.4457739,7.56088863 L14.6655168,8.08136822 C14.768883,8.37681336 14.8459072,8.68486875 14.8937315,9.00264151 L15.8746061,9.13679446 C15.9069418,9.38843279 15.9236142,9.64497428 15.9236142,9.9054098 C15.9236142,9.99251726 15.9217491,10.0791891 15.9180566,10.1653876 L14.9239953,10.3001311 C14.8897931,10.6333348 14.8236477,10.9569309 14.7287129,11.2677269 L15.5997148,11.8503509 C15.4904954,12.1675544 15.3553045,12.4726688 15.1966826,12.7631536 L14.2025988,12.4355776 C14.024361,12.726292 13.817827,12.9973705 13.5868918,13.2448703 L14.1331636,14.1689065 C13.9002538,14.3973363 13.6487069,14.606832 13.3810147,14.794902 L12.6164536,14.0532744 C12.3265152,14.2385017 12.0164559,14.3943903 11.6903447,14.5168215 L11.7863083,15.589878 C11.4826526,15.6877799 11.1683746,15.7620263 10.8456456,15.8104461 L10.4727437,14.8039965 C10.3016388,14.8219178 10.1279719,14.8311026 9.95218565,14.8311026 C9.77639946,14.8311026 9.6027325,14.8219178 9.4316276,14.8039965 L9.05772186,15.8102954 C8.73534497,15.7618724 8.42140386,15.6876784 8.11806305,15.589878 L8.21402666,14.5168215 C7.88791542,14.3943903 7.57785613,14.2385017 7.28791771,14.0532744 L6.52234483,14.7941911 C6.25503053,14.606304 6.00382409,14.3970485 5.7712077,14.1689065 L6.31747946,13.2448703 C6.08654433,12.9973705 5.88001036,12.726292 5.70177247,12.4355776 L4.70768866,12.7631536 C4.54889899,12.4723615 4.41358994,12.1669089 4.30431003,11.8493443 L5.17565837,11.2677269 C5.08072357,10.9569309 5.01457816,10.6333348 4.98037601,10.3001311 L3.9863147,10.1653876 C3.98262221,10.0791891 3.98075708,9.99251726 3.98075708,9.9054098 C3.98075708,9.64497428 3.99742948,9.38843279 4.02976517,9.13679446 L5.01063981,9.00264151 C5.05846408,8.68486875 5.13548828,8.37681336 5.23885454,8.08136822 L4.45859739,7.56088863 C4.59855598,7.23336614 4.76694791,6.92089522 4.96067075,6.62657832 L5.82683918,6.91252717 C5.9979111,6.66003481 6.19101781,6.42403982 6.4033529,6.20738302 L5.96294959,5.46192097 C6.23200076,5.22021457 6.52312453,5.0025907 6.83292837,4.81244189 L7.43644356,5.39750628 C7.68914815,5.24823841 7.95595869,5.12077023 8.23435901,5.01764875 L8.16215427,4.20691596 C8.50785538,4.09843139 8.86709685,4.02053651 9.23670696,3.97640304 L9.51570096,4.72997321 C9.6595397,4.71737848 9.80512103,4.71094988 9.95218565,4.71094988 C10.0992503,4.71094988 10.2448316,4.71737848 10.3886703,4.72997321 Z M9.95218565,5.78526935 C7.75356636,5.78526935 5.97123327,7.56760244 5.97123327,9.76622173 C5.97123327,11.964841 7.75356636,13.7471741 9.95218565,13.7471741 C12.1508049,13.7471741 13.933138,11.964841 13.933138,9.76622173 C13.933138,7.56760244 12.1508049,5.78526935 9.95218565,5.78526935 Z" id="path-5"></path>
        <filter x="-16.7%" y="-8.5%" width="133.5%" height="133.8%" filterUnits="objectBoundingBox" id="filter-6">
            <feOffset dx="0" dy="1" in="SourceAlpha" result="shadowOffsetOuter1"></feOffset>
            <feGaussianBlur stdDeviation="0.5" in="shadowOffsetOuter1" result="shadowBlurOuter1"></feGaussianBlur>
            <feColorMatrix values="0 0 0 0 0   0 0 0 0 0   0 0 0 0 0  0 0 0 0.2 0" type="matrix" in="shadowBlurOuter1"></feColorMatrix>
        </filter>
        <radialGradient cx="50%" cy="50%" fx="50%" fy="50%" r="50.3926794%" gradientTransform="translate(0.5, 0.5), scale(0.9995, 1), rotate(90), scale(1, 0.9507), translate(-0.5, -0.5)" id="radialGradient-7">
            <stop stop-color="#E2E5ED" offset="0%"></stop>
            <stop stop-color="#9DA3B5" offset="48.4048274%"></stop>
            <stop stop-color="#E7ECFF" offset="100%"></stop>
        </radialGradient>
    </defs>
    <g id="apps/24/preferences-system" stroke="none" stroke-width="1" fill="none" fill-rule="evenodd">
        <g id="13-settings" filter="url(#filter-1)" transform="translate(1, 1)">
            <circle id="Oval" fill="url(#linearGradient-2)" cx="11" cy="11" r="11"></circle>
            <g id="Oval">
                <use fill-opacity="0.5" fill="#000000" fill-rule="evenodd" xlink:href="#path-3"></use>
                <use fill="black" fill-opacity="1" filter="url(#filter-4)" xlink:href="#path-3"></use>
            </g>
            <g id="Group-12" transform="translate(1.0478, 1.0522)">
                <g id="Combined-Shape">
                    <use fill="black" fill-opacity="1" filter="url(#filter-6)" xlink:href="#path-5"></use>
                    <use fill="#585F6C" fill-rule="evenodd" xlink:href="#path-5"></use>
                </g>
                <path d="M11.8286132,0.0130777356 L12.4073831,0.144473201 C12.6668694,0.203383187 12.8409589,0.447480398 12.8121454,0.712005118 L12.678471,1.93921444 C12.6543994,2.1602056 12.772438,2.37232163 12.972925,2.46835012 L13.6585154,2.79673142 C13.8603728,2.89341623 14.1013595,2.85116445 14.2582847,2.69157491 L15.1105311,1.82485876 C15.2983094,1.63389232 15.5998961,1.61533372 15.8096717,1.78183607 L16.2770473,2.15279962 C16.4845874,2.31752756 16.5364303,2.61129569 16.3978119,2.83711224 L15.7584333,3.87869288 C15.6420751,4.06824644 15.6581118,4.3106147 15.7984307,4.48318472 L16.3112971,5.11392945 C16.4511519,5.28592886 16.6841367,5.35126516 16.8930333,5.27706668 L18.0371533,4.87068382 C18.2871736,4.78187848 18.5641082,4.89403958 18.6818668,5.13179881 L18.9459851,5.665064 C19.0643549,5.90405708 18.9842555,6.19383206 18.7599446,6.33810161 L17.7543034,6.98489763 C17.565874,7.10608934 17.4753811,7.33370101 17.5291595,7.55118881 L17.7408669,8.4073632 C17.7932958,8.61939295 17.9717859,8.77663569 18.1887336,8.80191607 L19.417887,8.94514629 C19.6728764,8.97485957 19.8687567,9.18499099 19.8805185,9.44143617 L19.9034033,9.94039985 L19.9037738,9.97811365 L19.8970403,10.235201 C19.8928928,10.3935518 19.772963,10.524768 19.6156225,10.5431025 L18.2554022,10.7016057 C18.0296424,10.7279129 17.8466089,10.8968106 17.8022798,11.1197332 L17.6183958,12.0444506 C17.5764261,12.2555081 17.6678078,12.4707616 17.8487954,12.587167 L18.8998099,13.2631457 C19.1180418,13.4035054 19.200627,13.682481 19.093968,13.9190182 L18.8658975,14.4248096 C18.7538457,14.6733064 18.4699358,14.7943277 18.2130664,14.7030896 L17.1138089,14.3126416 C16.8981657,14.2360468 16.6577611,14.3083052 16.520082,14.4910981 L15.9290676,15.2757728 C15.7995383,15.4477455 15.7884285,15.6814613 15.9010609,15.8649454 L16.5620254,16.9416905 C16.6980079,17.1632129 16.6509729,17.4509466 16.4515304,17.6176382 L16.0490167,17.954054 C15.8396226,18.129063 15.5309442,18.1139827 15.3396064,17.9193963 L14.5080143,17.0736851 C14.3482349,16.9111929 14.1017299,16.8706503 13.8983246,16.9734096 L13.0041069,17.4251639 C12.809308,17.5235753 12.6959404,17.7324557 12.7195732,17.9494186 L12.8555022,19.1973259 C12.8841158,19.4600153 12.7125898,19.7028842 12.4554555,19.7637643 L11.9652517,19.8798268 C11.703345,19.9418369 11.4370684,19.795268 11.3493557,19.540814 L10.9574034,18.4037633 C10.8810731,18.1823298 10.6670176,18.0384819 10.4331574,18.0514638 L9.9809195,18.0765681 C9.96157931,18.0776417 9.94219446,18.0776417 9.92285427,18.0765681 L9.47061637,18.0514638 C9.23675617,18.0384819 9.02270064,18.1823298 8.94637038,18.4037633 L8.5544181,19.540814 C8.46670535,19.795268 8.20042874,19.9418369 7.93852203,19.8798268 L7.44831831,19.7637643 C7.19118396,19.7028842 7.01965795,19.4600153 7.04827154,19.1973259 L7.18420055,17.9494186 C7.20783336,17.7324557 7.09446578,17.5235753 6.89966686,17.4251639 L6.00544915,16.9734096 C5.80204389,16.8706503 5.5555389,16.9111929 5.3957595,17.0736851 L4.56416736,17.9193963 C4.37282955,18.1139827 4.0641512,18.129063 3.85475708,17.954054 L3.45224334,17.6176382 C3.25280082,17.4509466 3.20576591,17.1632129 3.34174833,16.9416905 L4.00271283,15.8649454 C4.11534525,15.6814613 4.10423542,15.4477455 3.97470613,15.2757728 L3.38369173,14.4910981 C3.24601266,14.3083052 3.00560812,14.2360468 2.78996485,14.3126416 L1.69070741,14.7030896 C1.43383801,14.7943277 1.14992806,14.6733064 1.0378763,14.4248096 L0.809805752,13.9190182 C0.703146776,13.682481 0.785731977,13.4035054 1.00396389,13.2631457 L2.05497838,12.587167 C2.23596601,12.4707616 2.32734764,12.2555081 2.28537795,12.0444506 L2.10149399,11.1197332 C2.05716488,10.8968106 1.8741314,10.7279129 1.6483716,10.7016057 L0.288151299,10.5431025 C0.13081075,10.524768 0.0108809584,10.3935518 0.00673350782,10.235201 L1.85851334e-13,9.97811365 L0.000370494104,9.94039985 L0.0232553093,9.44143617 C0.0350170886,9.18499099 0.23089737,8.97485957 0.485886768,8.94514629 L1.71504017,8.80191607 C1.93198787,8.77663569 2.11047797,8.61939295 2.16290685,8.4073632 L2.37461422,7.55118881 C2.42839272,7.33370101 2.33789975,7.10608934 2.14947036,6.98489763 L1.1438292,6.33810161 C0.919518296,6.19383206 0.839418905,5.90405708 0.957788627,5.665064 L1.22190696,5.13179881 C1.33966557,4.89403958 1.6166002,4.78187848 1.8666205,4.87068382 L3.01074049,5.27706668 C3.21963703,5.35126516 3.45262184,5.28592886 3.5924767,5.11392945 L4.10534311,4.48318472 C4.24566196,4.3106147 4.26169872,4.06824644 4.14534048,3.87869288 L3.50596187,2.83711224 C3.36734344,2.61129569 3.41918641,2.31752756 3.62672651,2.15279962 L4.09410204,1.78183607 C4.30387771,1.61533372 4.60546441,1.63389232 4.79324269,1.82485876 L5.6454891,2.69157491 C5.8024143,2.85116445 6.04340102,2.89341623 6.24525836,2.79673142 L6.93084872,2.46835012 C7.1313358,2.37232163 7.24937439,2.1602056 7.2253028,1.93921444 L7.09162833,0.712005118 C7.06281483,0.447480398 7.23690435,0.203383187 7.49639069,0.144473201 L8.0751606,0.0130777356 C8.33582357,-0.0460993755 8.59923175,0.100480561 8.68634108,0.353184094 L9.076747,1.49056373 C9.15180782,1.71123545 9.3636528,1.8557603 9.5964994,1.84514912 C9.74012097,1.83776394 9.85858537,1.83413401 9.95188689,1.83413401 C10.0140879,1.83413401 10.0874724,1.83574731 10.1720404,1.83897391 L10.3072744,1.84514912 C10.540121,1.8557603 10.7519659,1.71123545 10.8270268,1.49056373 L11.2174327,0.353184094 C11.304542,0.100480561 11.5679502,-0.0460993755 11.8286132,0.0130777356 Z M8.44385808,11.0674778 C7.45142576,9.34853456 5.58830268,8.44569508 3.73320161,8.59440969 L3.62265284,8.60518941 C3.531226,9.0383403 3.48313804,9.48747183 3.48313804,9.9478349 C3.48313804,12.9645711 5.54809067,15.4990117 8.34174797,16.2145782 C9.29597535,14.7018417 9.40025235,12.7240012 8.44385808,11.0674778 Z M16.2816956,8.6045178 C14.3904257,8.41015128 12.472658,9.31439159 11.4605132,11.0674778 C10.504119,12.7240012 10.608396,14.7018417 11.5625676,16.214846 C14.3562021,15.4991081 16.4212333,12.9646285 16.4212333,9.9478349 C16.4212333,9.48747183 16.3731453,9.0383403 16.2816956,8.6045178 Z M9.95219779,8.95188581 C9.40254296,8.95188581 8.95695969,9.39746909 8.95695969,9.94712391 C8.95695969,10.4967787 9.40254296,10.942362 9.95219779,10.942362 C10.5018526,10.942362 10.9474359,10.4967787 10.9474359,9.94712391 C10.9474359,9.39746909 10.5018526,8.95188581 9.95219779,8.95188581 Z M9.95218565,3.47878728 C8.15578572,3.47878728 6.5304049,4.21100713 5.35779481,5.39371792 C6.10795766,7.19146235 7.88251674,8.45497776 9.95218565,8.45497776 C12.0218546,8.45497776 13.7964136,7.19146235 14.5461536,5.39327226 C13.3739664,4.21100713 11.7485856,3.47878728 9.95218565,3.47878728 Z" id="Combined-Shape" fill="url(#radialGradient-7)"></path>
            </g>
        </g>
        <g id="Guide/24" transform="translate(0.5, 0.5)"></g>
    </g>
</svg>