<?xml version="1.0" encoding="UTF-8"?>
<svg width="24px" height="24px" viewBox="0 0 24 24" version="1.1" xmlns="http://www.w3.org/2000/svg" xmlns:xlink="http://www.w3.org/1999/xlink">
    <title>apps/24/virtual-windows</title>
    <defs>
        <filter x="-7.5%" y="-7.5%" width="115.0%" height="115.0%" filterUnits="objectBoundingBox" id="filter-1">
            <feOffset dx="0" dy="0" in="SourceAlpha" result="shadowOffsetOuter1"></feOffset>
            <feGaussianBlur stdDeviation="0.5" in="shadowOffsetOuter1" result="shadowBlurOuter1"></feGaussianBlur>
            <feColorMatrix values="0 0 0 0 0   0 0 0 0 0   0 0 0 0 0  0 0 0 0.15 0" type="matrix" in="shadowBlurOuter1" result="shadowMatrixOuter1"></feColorMatrix>
            <feMerge>
                <feMergeNode in="shadowMatrixOuter1"></feMergeNode>
                <feMergeNode in="SourceGraphic"></feMergeNode>
            </feMerge>
        </filter>
        <linearGradient x1="50%" y1="0%" x2="50%" y2="98.1385523%" id="linearGradient-2">
            <stop stop-color="#FFFFFF" offset="0%"></stop>
            <stop stop-color="#EDEDED" offset="100%"></stop>
        </linearGradient>
        <path d="M4,0 L16,0 C18.209139,-4.05812251e-16 20,1.790861 20,4 L20,16 C20,18.209139 18.209139,20 16,20 L4,20 C1.790861,20 2.705415e-16,18.209139 0,16 L0,4 C-2.705415e-16,1.790861 1.790861,4.05812251e-16 4,0 Z" id="path-3"></path>
        <filter x="-2.5%" y="-2.5%" width="105.0%" height="105.0%" filterUnits="objectBoundingBox" id="filter-4">
            <feOffset dx="0" dy="-1" in="SourceAlpha" result="shadowOffsetInner1"></feOffset>
            <feComposite in="shadowOffsetInner1" in2="SourceAlpha" operator="arithmetic" k2="-1" k3="1" result="shadowInnerInner1"></feComposite>
            <feColorMatrix values="0 0 0 0 0   0 0 0 0 0   0 0 0 0 0  0 0 0 0.101016171 0" type="matrix" in="shadowInnerInner1"></feColorMatrix>
        </filter>
        <linearGradient x1="89.3381348%" y1="0%" x2="0%" y2="100%" id="linearGradient-5">
            <stop stop-color="#00EADB" offset="0%"></stop>
            <stop stop-color="#0065FF" offset="100%"></stop>
        </linearGradient>
        <path d="M6,5 L12,5 C12.5522847,5 13,5.44771525 13,6 L13,12 C13,12.5522847 12.5522847,13 12,13 L6,13 C5.44771525,13 5,12.5522847 5,12 L5,6 C5,5.44771525 5.44771525,5 6,5 Z" id="path-6"></path>
        <filter x="-25.0%" y="-12.5%" width="150.0%" height="150.0%" filterUnits="objectBoundingBox" id="filter-7">
            <feOffset dx="0" dy="1" in="SourceAlpha" result="shadowOffsetOuter1"></feOffset>
            <feGaussianBlur stdDeviation="0.5" in="shadowOffsetOuter1" result="shadowBlurOuter1"></feGaussianBlur>
            <feColorMatrix values="0 0 0 0 0.322289899   0 0 0 0 0.533281681   0 0 0 0 0.621721351  0 0 0 0.205947129 0" type="matrix" in="shadowBlurOuter1"></feColorMatrix>
        </filter>
        <linearGradient x1="14.0841064%" y1="13.6693115%" x2="88.0665283%" y2="100%" id="linearGradient-8">
            <stop stop-color="#00EADB" offset="0%"></stop>
            <stop stop-color="#0065FF" offset="100%"></stop>
        </linearGradient>
        <path d="M8,0 C9.1045695,2.02906125e-16 10,0.8954305 10,2 L10,4 L6.15625,4 C5.0171627,4 4.08437284,4.88326433 4.00541397,6.00225943 L4,6.15625 L4,10 L2,10 C0.945638205,10 0.0818348781,9.18412221 0.00548573643,8.14926234 L0,8 L0,2 C0,0.8954305 0.8954305,-2.02906125e-16 2,0 L8,0 Z M9.99995541,5 L9.999,5 L10,8 L9.999,8.025 L10,8.59375 C10,9.37040043 9.37040043,10 8.59375,10 L8.02926633,9.99979023 C8.01952757,9.99992992 8.00977197,10 8,10 L5,10 L5,9.998 L5,6 C5,5.48716416 5.38604019,5.06449284 5.88337887,5.00672773 L6,5 L9.99995541,5 Z" id="path-9"></path>
        <filter x="-20.0%" y="-10.0%" width="140.0%" height="140.0%" filterUnits="objectBoundingBox" id="filter-10">
            <feOffset dx="0" dy="1" in="SourceAlpha" result="shadowOffsetOuter1"></feOffset>
            <feGaussianBlur stdDeviation="0.5" in="shadowOffsetOuter1" result="shadowBlurOuter1"></feGaussianBlur>
            <feColorMatrix values="0 0 0 0 0.322289899   0 0 0 0 0.533281681   0 0 0 0 0.621721351  0 0 0 0.205947129 0" type="matrix" in="shadowBlurOuter1"></feColorMatrix>
        </filter>
    </defs>
    <g id="apps/24/virtual-windows" stroke="none" stroke-width="1" fill="none" fill-rule="evenodd">
        <g id="编组-2" filter="url(#filter-1)" transform="translate(2, 2)">
            <g id="矩形">
                <use fill="url(#linearGradient-2)" fill-rule="evenodd" xlink:href="#path-3"></use>
                <use fill="black" fill-opacity="1" filter="url(#filter-4)" xlink:href="#path-3"></use>
            </g>
            <path d="M16,0 C18.209139,0 20,1.790861 20,4 L20,16 C20,18.209139 18.209139,20 16,20 L4,20 C1.790861,20 0,18.209139 0,16 L0,4 C0,1.790861 1.790861,0 4,0 L16,0 Z M16,1 L4,1 C2.34314575,1 1,2.34314575 1,4 L1,16 C1,17.6568542 2.34314575,19 4,19 L16,19 C17.6568542,19 19,17.6568542 19,16 L19,4 C19,2.34314575 17.6568542,1 16,1 Z" id="矩形" fill-opacity="0.04" fill="#000000" fill-rule="nonzero"></path>
            <g id="编组" transform="translate(4.0725, 3.0725)" fill-rule="nonzero">
                <g id="矩形" transform="translate(9, 9) scale(-1, 1) translate(-9, -9)">
                    <use fill="black" fill-opacity="1" filter="url(#filter-7)" xlink:href="#path-6"></use>
                    <use fill="url(#linearGradient-5)" xlink:href="#path-6"></use>
                </g>
                <g id="形状结合">
                    <use fill="black" fill-opacity="1" filter="url(#filter-10)" xlink:href="#path-9"></use>
                    <use fill="url(#linearGradient-8)" xlink:href="#path-9"></use>
                </g>
            </g>
        </g>
        <g id="Guide/24" transform="translate(0.5, 0.5)"></g>
    </g>
</svg>