<?xml version="1.0" encoding="UTF-8"?>
<svg width="24px" height="24px" viewBox="0 0 24 24" version="1.1" xmlns="http://www.w3.org/2000/svg" xmlns:xlink="http://www.w3.org/1999/xlink">
    <title>devices/24/computer</title>
    <defs>
        <filter x="-6.8%" y="-7.9%" width="113.6%" height="115.8%" filterUnits="objectBoundingBox" id="filter-1">
            <feOffset dx="0" dy="0" in="SourceAlpha" result="shadowOffsetOuter1"></feOffset>
            <feGaussianBlur stdDeviation="0.5" in="shadowOffsetOuter1" result="shadowBlurOuter1"></feGaussianBlur>
            <feColorMatrix values="0 0 0 0 0   0 0 0 0 0   0 0 0 0 0  0 0 0 0.15 0" type="matrix" in="shadowBlurOuter1" result="shadowMatrixOuter1"></feColorMatrix>
            <feMerge>
                <feMergeNode in="shadowMatrixOuter1"></feMergeNode>
                <feMergeNode in="SourceGraphic"></feMergeNode>
            </feMerge>
        </filter>
        <linearGradient x1="50%" y1="100%" x2="50%" y2="0%" id="linearGradient-2">
            <stop stop-color="#CFDAFC" offset="0%"></stop>
            <stop stop-color="#CDCFD2" offset="100%"></stop>
        </linearGradient>
        <polygon id="path-3" points="9 17 13 17 13 19 9 19"></polygon>
        <filter x="-25.0%" y="-50.0%" width="150.0%" height="200.0%" filterUnits="objectBoundingBox" id="filter-4">
            <feGaussianBlur stdDeviation="0.5" in="SourceAlpha" result="shadowBlurInner1"></feGaussianBlur>
            <feOffset dx="0" dy="1" in="shadowBlurInner1" result="shadowOffsetInner1"></feOffset>
            <feComposite in="shadowOffsetInner1" in2="SourceAlpha" operator="arithmetic" k2="-1" k3="1" result="shadowInnerInner1"></feComposite>
            <feColorMatrix values="0 0 0 0 0.305544245   0 0 0 0 0.316030326   0 0 0 0 0.533769248  0 0 0 0.178130463 0" type="matrix" in="shadowInnerInner1"></feColorMatrix>
        </filter>
        <linearGradient x1="50%" y1="0%" x2="50%" y2="80.1038369%" id="linearGradient-5">
            <stop stop-color="#FFFFFF" offset="0%"></stop>
            <stop stop-color="#EBF4FF" offset="100%"></stop>
        </linearGradient>
        <linearGradient x1="39.598747%" y1="20.1446281%" x2="75.3018846%" y2="79.8553719%" id="linearGradient-6">
            <stop stop-color="#D7E4FF" offset="0%"></stop>
            <stop stop-color="#F4F9FF" offset="100%"></stop>
        </linearGradient>
        <linearGradient x1="46.8261315%" y1="0.564822635%" x2="46.8261315%" y2="99.6640703%" id="linearGradient-7">
            <stop stop-color="#4F5D73" offset="0%"></stop>
            <stop stop-color="#313A46" offset="100%"></stop>
        </linearGradient>
        <rect id="path-8" x="0" y="0" width="20" height="15" rx="1.75"></rect>
        <linearGradient x1="0%" y1="50%" x2="100%" y2="50%" id="linearGradient-10">
            <stop stop-color="#A09AD3" offset="0%"></stop>
            <stop stop-color="#988DD9" offset="49.6179452%"></stop>
            <stop stop-color="#1654D2" offset="100%"></stop>
        </linearGradient>
    </defs>
    <g id="devices/24/computer" stroke="none" stroke-width="1" fill="none" fill-rule="evenodd">
        <g id="矩形" filter="url(#filter-1)" transform="translate(1, 3)">
            <g>
                <use fill="url(#linearGradient-2)" fill-rule="evenodd" xlink:href="#path-3"></use>
                <use fill="black" fill-opacity="1" filter="url(#filter-4)" xlink:href="#path-3"></use>
            </g>
            <path d="M7.46875,18 L14.53125,18 C14.7901335,18 15,18.2098665 15,18.46875 L15,18.53125 C15,18.7901335 14.7901335,19 14.53125,19 L7.46875,19 C7.20986652,19 7,18.7901335 7,18.53125 L7,18.46875 C7,18.2098665 7.20986652,18 7.46875,18 Z" fill="url(#linearGradient-5)"></path>
            <rect id="蒙版" fill="url(#linearGradient-6)" x="0" y="0" width="22" height="17" rx="2.25"></rect>
            <g id="kevin-lanceplaine-243768-unsplash" transform="translate(1, 1)">
                <mask id="mask-9" fill="white">
                    <use xlink:href="#path-8"></use>
                </mask>
                <use id="蒙版" fill="url(#linearGradient-7)" xlink:href="#path-8"></use>
                <g id="编组" mask="url(#mask-9)">
                    <g transform="translate(-1, -3.25)">
                        <path d="M16.0643594,2.015625 C14.2254255,6.27194001 13.4833996,8.63482077 13.8382816,9.10426727 C14.3706045,9.80843704 14.1770325,11.5923338 13.4511376,12.5781714 C12.7252426,13.5640091 10.4507718,14.2212342 10.2088068,15.0192933 C9.96684184,15.8173523 3.86932428,16.3806882 3.28860832,17.0379133 C2.70789236,17.6951384 3.72414529,17.4604151 3.72414529,17.6951384 C3.72414529,17.8516205 9.64422186,17.8516205 21.484375,17.6951384 L21.484375,2.015625 L16.0643594,2.015625 Z" id="路径-3" fill="#1C4186"></path>
                        <path d="M16.3405091,2.11090241 C17.2442709,2.11090241 17.0344691,3.36180754 15.7111035,5.86361781 C13.7260551,9.61633321 13.1450654,11.0236015 12.5640756,12.0086893 C11.9830859,12.9937771 9.3202161,16.9810372 8.20665239,17.3093998 C7.09308867,17.6377624 3.99447659,17.4032177 3.36507102,17.4032177 C2.9454673,17.4032177 3.04229892,13.0719586 3.6555659,4.40944059 L7.81932588,0 L16.3405091,2.11090241 Z" id="路径-2" fill="#E080A9"></path>
                        <path d="M7.546875,2.625 C6.93306588,3.6875 6.75538429,5.171875 7.01383024,7.078125 C7.40149916,9.9375 4.83319257,12.9375 5.36623733,15.09375 C5.89928209,17.25 3.140625,19.359375 3.140625,19.359375 C3.140625,19.359375 2.21875,18.875 0.375,17.90625 L0,4.828125 L1.58646537,2.25 L7.546875,2.625 Z" id="路径" fill="#101852"></path>
                        <path d="M14.9268249,6.15582781 C13.8323204,6.95868597 13.2850681,7.85466003 13.2850681,8.84375 C13.2850681,10.765625 12.3184385,12.921875 10.7234996,13.4375 C9.12856064,13.953125 7.48529024,13.8125 7.09863838,15.3125 C6.71198652,16.8125 5.55203094,15.59375 4.92372167,16.203125 C4.2954124,16.8125 4.44372224,18.125 3.71875,18.359375 C3.23543518,18.515625 6.55309184,18.453125 13.67172,18.171875 C14.1228138,15.265625 15.1861064,13.21875 16.8615978,12.03125 C19.3748349,10.25 14.5900181,9.734375 16.5716089,8.1875 C17.8926694,7.15625 18.0354665,5.09375 17,2 L16.4640026,3.93405041 C16.2163553,4.82674156 15.675421,5.61008325 14.9283368,6.15788982 Z" id="路径-4" fill="#7A6C9F"></path>
                    </g>
                </g>
                <g id="编组-2" mask="url(#mask-9)">
                    <g transform="translate(1, 11)">
                        <rect id="bg" fill="url(#linearGradient-10)" x="0" y="0" width="18" height="3" rx="0.46875"></rect>
                        <rect id="矩形" fill="#00C98F" x="3" y="1" width="1" height="1" rx="0.234375"></rect>
                        <rect id="矩形备份-3" fill="#FFB656" x="7" y="1" width="1" height="1" rx="0.234375"></rect>
                        <rect id="矩形备份-7" fill="#FF796E" x="11" y="1" width="1" height="1" rx="0.234375"></rect>
                        <rect id="矩形备份-6" fill-opacity="0.3" fill="#000000" x="14" y="1" width="1" height="1" rx="0.234375"></rect>
                        <rect id="矩形备份-5" fill-opacity="0.3" fill="#000000" x="16" y="1" width="1" height="1" rx="0.234375"></rect>
                        <circle id="椭圆形" fill="#326CFF" cx="1.5" cy="1.5" r="1"></circle>
                        <circle id="椭圆形备份" fill="#482AC5" cx="9.5" cy="1.5" r="1"></circle>
                    </g>
                </g>
            </g>
        </g>
    </g>
</svg>