<?xml version="1.0" encoding="UTF-8"?>
<svg width="24px" height="24px" viewBox="0 0 24 24" version="1.1" xmlns="http://www.w3.org/2000/svg" xmlns:xlink="http://www.w3.org/1999/xlink">
    <title>devices/24/drive-harddisk-root</title>
    <defs>
        <filter x="-8.3%" y="-6.8%" width="116.7%" height="113.6%" filterUnits="objectBoundingBox" id="filter-1">
            <feOffset dx="0" dy="0" in="SourceAlpha" result="shadowOffsetOuter1"></feOffset>
            <feGaussianBlur stdDeviation="0.5" in="shadowOffsetOuter1" result="shadowBlurOuter1"></feGaussianBlur>
            <feColorMatrix values="0 0 0 0 0   0 0 0 0 0   0 0 0 0 0  0 0 0 0.15 0" type="matrix" in="shadowBlurOuter1" result="shadowMatrixOuter1"></feColorMatrix>
            <feMerge>
                <feMergeNode in="shadowMatrixOuter1"></feMergeNode>
                <feMergeNode in="SourceGraphic"></feMergeNode>
            </feMerge>
        </filter>
        <linearGradient x1="102.549264%" y1="57.6822305%" x2="-2.65228894%" y2="57.6822305%" id="linearGradient-2">
            <stop stop-color="#0067BC" offset="0%"></stop>
            <stop stop-color="#30EA7F" offset="4.57146722%"></stop>
            <stop stop-color="#00D887" offset="9.93130604%"></stop>
            <stop stop-color="#00B160" offset="88.9446523%"></stop>
            <stop stop-color="#00C165" offset="93.7925209%"></stop>
            <stop stop-color="#008CBD" offset="100%"></stop>
        </linearGradient>
        <linearGradient x1="100%" y1="56.4295561%" x2="0%" y2="56.4295561%" id="linearGradient-3">
            <stop stop-color="#FFFFFF" stop-opacity="0.5" offset="0%"></stop>
            <stop stop-color="#FFFFFF" offset="8.38902143%"></stop>
            <stop stop-color="#FFFFFF" stop-opacity="0.8" offset="52.3560063%"></stop>
            <stop stop-color="#FFFFFF" offset="88.1683526%"></stop>
            <stop stop-color="#FFFFFF" stop-opacity="0.5" offset="100%"></stop>
        </linearGradient>
        <radialGradient cx="48.2392027%" cy="19.1031265%" fx="48.2392027%" fy="19.1031265%" r="78.6539217%" gradientTransform="translate(0.4824, 0.191), scale(0.2778, 1), rotate(90), scale(1, 3.5807), translate(-0.4824, -0.191)" id="radialGradient-4">
            <stop stop-color="#7CFFFE" offset="0%"></stop>
            <stop stop-color="#D6CDE6" offset="100%"></stop>
        </radialGradient>
        <linearGradient x1="50%" y1="0%" x2="50%" y2="100%" id="linearGradient-5">
            <stop stop-color="#0174FF" offset="0%"></stop>
            <stop stop-color="#01C2FF" offset="50.8499801%"></stop>
            <stop stop-color="#0056FF" offset="100%"></stop>
        </linearGradient>
        <path d="M2.53210791,20.703125 C2.92043312,20.703125 3.23523291,20.3883252 3.23523291,20 C3.23523291,19.6116748 2.92043312,19.296875 2.53210791,19.296875 C2.14378269,19.296875 1.82898291,19.6116748 1.82898291,20 C1.82898291,20.3883252 2.14378269,20.703125 2.53210791,20.703125 Z" id="path-6"></path>
        <filter x="-35.6%" y="-35.6%" width="171.1%" height="171.1%" filterUnits="objectBoundingBox" id="filter-7">
            <feOffset dx="-1" dy="-1" in="SourceAlpha" result="shadowOffsetInner1"></feOffset>
            <feComposite in="shadowOffsetInner1" in2="SourceAlpha" operator="arithmetic" k2="-1" k3="1" result="shadowInnerInner1"></feComposite>
            <feColorMatrix values="0 0 0 0 0.200758155   0 0 0 0 0.799309772   0 0 0 0 0.127508033  0 0 0 0.5 0" type="matrix" in="shadowInnerInner1"></feColorMatrix>
        </filter>
    </defs>
    <g id="devices/24/drive-harddisk-root" stroke="none" stroke-width="1" fill="none" fill-rule="evenodd">
        <g id="编组-2" filter="url(#filter-1)" transform="translate(3, 1)">
            <path d="M3,0 L15,0 C16.6568542,-3.04359188e-16 18,1.34314575 18,3 L18,20 L18,20 L0,20 L0,3 C-2.02906125e-16,1.34314575 1.34314575,3.04359188e-16 3,0 Z" id="Rectangle-1" fill="url(#linearGradient-2)"></path>
            <path d="M1.875,15 L16.125,15 C17.1605339,15 18,15.8394661 18,16.875 L18,19 L18,19 L0,19 L0,16.875 C-1.26816328e-16,15.8394661 0.839466094,15 1.875,15 Z" id="Rectangle-3" fill="url(#linearGradient-3)"></path>
            <path d="M16.125,15 C17.1605339,15 18,15.8394661 18,16.875 L18,19 L0,19 L0,16.875 C0,15.8394661 0.839466094,15 1.875,15 L16.125,15 Z M16.125,16 L1.875,16 C1.39175084,16 1,16.3917508 1,16.875 L1,18 L17,18 L17,16.875 C17,16.4289239 16.6662005,16.0608108 16.2347581,16.0068175 L16.125,16 Z" id="Rectangle-3" fill="url(#linearGradient-3)"></path>
            <path d="M2.0625,17 L15.9375,17 C17.0765873,17 18,17.9234127 18,19.0625 L18,19.9375 C18,21.0765873 17.0765873,22 15.9375,22 L2.0625,22 C0.923412703,22 1.39497961e-16,21.0765873 0,19.9375 L0,19.0625 C-1.39497961e-16,17.9234127 0.923412703,17 2.0625,17 Z" id="Rectangle-1" fill="url(#radialGradient-4)"></path>
            <path d="M15.9375,17 C17.0765873,17 18,17.9234127 18,19.0625 L18,19.9375 C18,21.0765873 17.0765873,22 15.9375,22 L2.0625,22 C0.923412703,22 0,21.0765873 0,19.9375 L0,19.0625 C0,17.9234127 0.923412703,17 2.0625,17 L15.9375,17 Z M15.9375,18 L2.0625,18 C1.47569745,18 1,18.4756975 1,19.0625 L1,19.9375 C1,20.5243025 1.47569745,21 2.0625,21 L15.9375,21 C16.5243025,21 17,20.5243025 17,19.9375 L17,19.0625 C17,18.4756975 16.5243025,18 15.9375,18 Z" id="Rectangle-1" fill-opacity="0.2" fill="#003D9C" fill-rule="nonzero"></path>
            <path d="M10.5,19 C10.7761424,19 11,19.2238576 11,19.5 L11,20.5 C11,20.7761424 10.7761424,21 10.5,21 C10.2238576,21 10,20.7761424 10,20.5 L10,19.5 C10,19.2238576 10.2238576,19 10.5,19 Z M12.5,19 C12.7761424,19 13,19.2238576 13,19.5 L13,20.5 C13,20.7761424 12.7761424,21 12.5,21 C12.2238576,21 12,20.7761424 12,20.5 L12,19.5 C12,19.2238576 12.2238576,19 12.5,19 Z M14.5,19 C14.7761424,19 15,19.2238576 15,19.5 L15,20.5 C15,20.7761424 14.7761424,21 14.5,21 C14.2238576,21 14,20.7761424 14,20.5 L14,19.5 C14,19.2238576 14.2238576,19 14.5,19 Z" id="Combined-Shape" fill="url(#linearGradient-5)"></path>
            <g id="Oval">
                <use fill="#BAFF76" fill-rule="evenodd" xlink:href="#path-6"></use>
                <use fill="black" fill-opacity="1" filter="url(#filter-7)" xlink:href="#path-6"></use>
            </g>
        </g>
        <path d="M12,13 C11.6738462,13 11.3546154,12.9684615 11.0461538,12.9084615 C12.3430769,12.5453846 13.8838462,11.6484615 14.6161538,10.2084615 C14.6161538,10.2084615 16.1176923,7.74769231 13.5769231,5.53307692 C13.5769231,5.53307692 14.23,6.56076923 14.25,7.59461538 C14.25,7.59461538 14.4053846,8.95384615 13.2030769,9.80307692 C11.43,11.0546154 8.66769231,10.4907692 7.49230769,10.1661538 C7.17692308,9.51076923 7,8.77615385 7,8 C7,6.83846154 7.39615385,5.77 8.06076923,4.92076923 C8.38846154,6.50307692 9.06538462,7.82461538 9.52076923,8.31538462 C10.1276923,8.96846154 11.0215385,9.66230769 12.1692308,9.37615385 C13.3161538,9.08923077 13.55,7.83461538 13.55,7.83461538 C13.8038462,6.76769231 13.4423077,5.5 13.4230769,5.47307692 C13.4038462,5.44615385 13.2315385,5.41692308 13.2315385,5.41692308 C13.4115385,7.09769231 12.9692308,7.84153846 12.9692308,7.84153846 C12.3261538,9.15923077 11.3815385,8.75153846 11.3815385,8.75153846 C10.3315385,8.21615385 10.3807692,6.70769231 10.3807692,6.70769231 C10.35,5.69615385 10.7353846,4.04846154 11.4784615,3.02692308 C11.65,3.00923077 11.8238462,3 12,3 C12.6692308,3 13.3076923,3.13153846 13.8915385,3.37076923 C13.2715385,3.89153846 12.3161538,4.86615385 12.3161538,4.86615385 C10.7684615,6.30076923 11.0684615,7.50769231 11.0684615,7.50769231 C11.3146154,8.77538462 12.0823077,7.92153846 12.0823077,7.92153846 C12.8892308,7.08769231 12.8292308,5.42692308 12.8292308,5.42692308 C12.5023077,5.48 12.2953846,5.66 12.2953846,5.66 C12.2553846,6.76769231 11.6015385,7.45461538 11.6015385,7.45461538 C11.3484615,7.73461538 11.1684615,7.46769231 11.1684615,7.46769231 C11.0353846,7.26769231 11.3015385,7.12769231 11.3015385,7.12769231 C11.6753846,6.80076923 11.7869231,6.24307692 11.7823077,6.03384615 C11.7769231,5.82384615 11.8884615,5.76692308 11.8884615,5.76692308 C12.4161538,5.36 12.9430769,5.12 12.9430769,5.12 C13.65,4.75923077 14.9107692,4.69923077 14.9107692,4.69923077 C15.2092308,4.70923077 15.4953846,4.69769231 15.7376923,4.67923077 C16.5230769,5.56230769 17,6.72538462 17,8 C17,10.7615385 14.7615385,13 12,13 M6,8 C6,11.3137143 8.68628571,14 12,14 C15.3137143,14 18,11.3137143 18,8 C18,4.68628571 15.3137143,2 12,2 C8.68628571,2 6,4.68628571 6,8 Z" id="Page-1" fill="#FFFFFF"></path>
    </g>
</svg>