<?xml version="1.0" encoding="UTF-8"?>
<svg width="24px" height="24px" viewBox="0 0 24 24" version="1.1" xmlns="http://www.w3.org/2000/svg" xmlns:xlink="http://www.w3.org/1999/xlink">
    <title>devices/24/media-dvd</title>
    <defs>
        <filter x="-6.8%" y="-6.8%" width="113.6%" height="113.6%" filterUnits="objectBoundingBox" id="filter-1">
            <feOffset dx="0" dy="0" in="SourceAlpha" result="shadowOffsetOuter1"></feOffset>
            <feGaussianBlur stdDeviation="0.5" in="shadowOffsetOuter1" result="shadowBlurOuter1"></feGaussianBlur>
            <feColorMatrix values="0 0 0 0 0   0 0 0 0 0   0 0 0 0 0  0 0 0 0.15 0" type="matrix" in="shadowBlurOuter1" result="shadowMatrixOuter1"></feColorMatrix>
            <feMerge>
                <feMergeNode in="shadowMatrixOuter1"></feMergeNode>
                <feMergeNode in="SourceGraphic"></feMergeNode>
            </feMerge>
        </filter>
        <linearGradient x1="28.8395889%" y1="7.27383969%" x2="73.7075197%" y2="92.298094%" id="linearGradient-2">
            <stop stop-color="#5CD4FB" offset="0%"></stop>
            <stop stop-color="#FFADF1" offset="47.7870472%"></stop>
            <stop stop-color="#7DF8FF" offset="100%"></stop>
        </linearGradient>
    </defs>
    <g id="devices/24/media-dvd" stroke="none" stroke-width="1" fill="none" fill-rule="evenodd">
        <g id="Group" filter="url(#filter-1)" transform="translate(1, 1)">
            <g id="Group-4" transform="translate(7.15, 7.2206)"></g>
            <path d="M11,0.206163878 C17.0751322,0.206163878 22,5.03763228 22,10.9975506 C22,16.9574689 17.0751322,21.7889373 11,21.7889373 C4.92486775,21.7889373 0,16.9574689 0,10.9975506 C0,5.03763228 4.92486775,0.206163878 11,0.206163878 Z M11,6.6809959 C8.5699471,6.6809959 6.6,8.61358326 6.6,10.9975506 C6.6,13.3815179 8.5699471,15.3141053 11,15.3141053 C13.4300529,15.3141053 15.4,13.3815179 15.4,10.9975506 C15.4,8.61358326 13.4300529,6.6809959 11,6.6809959 Z" id="Combined-Shape" fill="url(#linearGradient-2)"></path>
            <path d="M20.9,10.9975506 C20.9,5.63362411 16.467619,1.28530255 11,1.28530255 C5.53238098,1.28530255 1.1,5.63362411 1.1,10.9975506 C1.1,16.3614771 5.53238098,20.7097986 11,20.7097986 C16.467619,20.7097986 20.9,16.3614771 20.9,10.9975506 Z M11,16.3932439 C14.0375661,16.3932439 16.5,13.9775097 16.5,10.9975506 C16.5,8.01759143 14.0375661,5.60185723 11,5.60185723 C7.96243388,5.60185723 5.5,8.01759143 5.5,10.9975506 C5.5,13.9775097 7.96243388,16.3932439 11,16.3932439 L11,16.3932439 Z" id="Combined-Shape" fill="#FFFFFF" opacity="0.39738806"></path>
            <path d="M11,15.3141053 C13.4300529,15.3141053 15.4,13.3815179 15.4,10.9975506 C15.4,8.61358326 13.4300529,6.6809959 11,6.6809959 C8.5699471,6.6809959 6.6,8.61358326 6.6,10.9975506 C6.6,13.3815179 8.5699471,15.3141053 11,15.3141053 L11,15.3141053 Z M11,13.1558279 C12.2150264,13.1558279 13.2,12.1895342 13.2,10.9975506 C13.2,9.80556692 12.2150264,8.83927324 11,8.83927324 C9.78497355,8.83927324 8.8,9.80556692 8.8,10.9975506 C8.8,12.1895342 9.78497355,13.1558279 11,13.1558279 L11,13.1558279 Z" id="Combined-Shape" fill="#CBD4E5" opacity="0.8"></path>
            <path d="M11,16.3932439 C14.0375661,16.3932439 16.5,13.9775097 16.5,10.9975506 C16.5,8.01759143 14.0375661,5.60185723 11,5.60185723 C7.96243388,5.60185723 5.5,8.01759143 5.5,10.9975506 C5.5,13.9775097 7.96243388,16.3932439 11,16.3932439 L11,16.3932439 Z M11,14.7745359 C13.1262963,14.7745359 14.85,13.083522 14.85,10.9975506 C14.85,8.91157918 13.1262963,7.22056524 11,7.22056524 C8.87370371,7.22056524 7.15,8.91157918 7.15,10.9975506 C7.15,13.083522 8.87370371,14.7745359 11,14.7745359 L11,14.7745359 Z" id="Combined-Shape" fill="#B792AF" opacity="0.4"></path>
            <path d="M10.3167085,13.0497039 C9.74669429,14.8586494 7.71067734,21.3277191 7.71067734,21.3277191 C8.75316013,21.6310113 9.85719759,21.7938361 11,21.7938361 C12.1548038,21.7938361 13.2700243,21.6275734 14.322146,21.3181174 C14.322146,21.3264001 12.4127341,14.7983069 11.7628126,13.0225619 C11.5251616,13.1087512 11.2681848,13.1558279 11,13.1558279 C10.7614655,13.1558279 10.5317976,13.1185853 10.3167085,13.0497039 Z M10.3237196,8.94316486 C9.75504302,7.12538073 7.71067734,0.672280883 7.71067734,0.672280891 C8.75316013,0.368988721 9.85719759,0.206163878 11,0.206163878 C12.1548038,0.206163878 13.2700243,0.372426573 14.322146,0.681882647 C14.322146,0.673609156 12.2803589,7.14726826 11.7154512,8.95596824 C11.4911516,8.880334 11.2504636,8.83927324 11,8.83927324 C10.7640553,8.83927324 10.5367858,8.87571153 10.3237196,8.94316486 L10.3237196,8.94316486 Z" id="Combined-Shape" fill="#FFFFFF" opacity="0.25" transform="translate(11.0164, 11) rotate(-30) translate(-11.0164, -11)"></path>
        </g>
        <path d="M9.09375,18.2715 L9.09375,20.4135 L9.83775,20.4135 C10.17375,20.4135 10.43175,20.3145 10.61175,20.1195 C10.78275,19.9335 10.86975,19.6725 10.86975,19.3425 C10.86975,19.0065 10.78875,18.7455 10.62975,18.5655 C10.45575,18.3675 10.20075,18.2715 9.86175,18.2715 L9.09375,18.2715 Z M9.33975,18.4845 L9.82275,18.4845 C10.10475,18.4845 10.30875,18.5565 10.44075,18.7035 C10.56375,18.8415 10.62675,19.0545 10.62675,19.3425 C10.62675,19.6215 10.55775,19.8345 10.42575,19.9785 C10.28475,20.1255 10.07475,20.2005 9.79575,20.2005 L9.33975,20.2005 L9.33975,18.4845 Z M11.01075,18.2715 L11.80275,20.4135 L12.10575,20.4135 L12.89775,18.2715 L12.62775,18.2715 L11.95875,20.1465 L11.94975,20.1465 L11.28075,18.2715 L11.01075,18.2715 Z M13.12875,18.2715 L13.12875,20.4135 L13.87275,20.4135 C14.20875,20.4135 14.46675,20.3145 14.64675,20.1195 C14.81775,19.9335 14.90475,19.6725 14.90475,19.3425 C14.90475,19.0065 14.82375,18.7455 14.66475,18.5655 C14.49075,18.3675 14.23575,18.2715 13.89675,18.2715 L13.12875,18.2715 Z M13.37475,18.4845 L13.85775,18.4845 C14.13975,18.4845 14.34375,18.5565 14.47575,18.7035 C14.59875,18.8415 14.66175,19.0545 14.66175,19.3425 C14.66175,19.6215 14.59275,19.8345 14.46075,19.9785 C14.31975,20.1255 14.10975,20.2005 13.83075,20.2005 L13.37475,20.2005 L13.37475,18.4845 Z" id="DVD" fill="#8F859E"></path>
        <g id="Guide/24" transform="translate(0.5, 0.5)"></g>
    </g>
</svg>