<?xml version="1.0" encoding="UTF-8"?>
<svg width="24px" height="24px" viewBox="0 0 24 24" version="1.1" xmlns="http://www.w3.org/2000/svg" xmlns:xlink="http://www.w3.org/1999/xlink">
    <title>devices/24/media-cdr</title>
    <defs>
        <filter x="-6.8%" y="-6.8%" width="113.6%" height="113.6%" filterUnits="objectBoundingBox" id="filter-1">
            <feOffset dx="0" dy="0" in="SourceAlpha" result="shadowOffsetOuter1"></feOffset>
            <feGaussianBlur stdDeviation="0.5" in="shadowOffsetOuter1" result="shadowBlurOuter1"></feGaussianBlur>
            <feColorMatrix values="0 0 0 0 0   0 0 0 0 0   0 0 0 0 0  0 0 0 0.15 0" type="matrix" in="shadowBlurOuter1" result="shadowMatrixOuter1"></feColorMatrix>
            <feMerge>
                <feMergeNode in="shadowMatrixOuter1"></feMergeNode>
                <feMergeNode in="SourceGraphic"></feMergeNode>
            </feMerge>
        </filter>
        <linearGradient x1="28.8395889%" y1="7.27383969%" x2="73.7075197%" y2="92.298094%" id="linearGradient-2">
            <stop stop-color="#5CD4FB" offset="0%"></stop>
            <stop stop-color="#FFADF1" offset="47.7870472%"></stop>
            <stop stop-color="#7DF8FF" offset="100%"></stop>
        </linearGradient>
    </defs>
    <g id="devices/24/media-cdr" stroke="none" stroke-width="1" fill="none" fill-rule="evenodd">
        <g id="Group" filter="url(#filter-1)" transform="translate(1, 1)">
            <g id="Group-4" transform="translate(7.15, 7.2206)"></g>
            <path d="M11,0.206163878 C17.0751322,0.206163878 22,5.03763228 22,10.9975506 C22,16.9574689 17.0751322,21.7889373 11,21.7889373 C4.92486775,21.7889373 0,16.9574689 0,10.9975506 C0,5.03763228 4.92486775,0.206163878 11,0.206163878 Z M11,6.6809959 C8.5699471,6.6809959 6.6,8.61358326 6.6,10.9975506 C6.6,13.3815179 8.5699471,15.3141053 11,15.3141053 C13.4300529,15.3141053 15.4,13.3815179 15.4,10.9975506 C15.4,8.61358326 13.4300529,6.6809959 11,6.6809959 Z" id="Combined-Shape" fill="url(#linearGradient-2)"></path>
            <path d="M20.9,10.9975506 C20.9,5.63362411 16.467619,1.28530255 11,1.28530255 C5.53238098,1.28530255 1.1,5.63362411 1.1,10.9975506 C1.1,16.3614771 5.53238098,20.7097986 11,20.7097986 C16.467619,20.7097986 20.9,16.3614771 20.9,10.9975506 Z M11,16.3932439 C14.0375661,16.3932439 16.5,13.9775097 16.5,10.9975506 C16.5,8.01759143 14.0375661,5.60185723 11,5.60185723 C7.96243388,5.60185723 5.5,8.01759143 5.5,10.9975506 C5.5,13.9775097 7.96243388,16.3932439 11,16.3932439 L11,16.3932439 Z" id="Combined-Shape" fill="#FFFFFF" opacity="0.39738806"></path>
            <path d="M11,15.3141053 C13.4300529,15.3141053 15.4,13.3815179 15.4,10.9975506 C15.4,8.61358326 13.4300529,6.6809959 11,6.6809959 C8.5699471,6.6809959 6.6,8.61358326 6.6,10.9975506 C6.6,13.3815179 8.5699471,15.3141053 11,15.3141053 L11,15.3141053 Z M11,13.1558279 C12.2150264,13.1558279 13.2,12.1895342 13.2,10.9975506 C13.2,9.80556692 12.2150264,8.83927324 11,8.83927324 C9.78497355,8.83927324 8.8,9.80556692 8.8,10.9975506 C8.8,12.1895342 9.78497355,13.1558279 11,13.1558279 L11,13.1558279 Z" id="Combined-Shape" fill="#CBD4E5" opacity="0.8"></path>
            <path d="M11,16.3932439 C14.0375661,16.3932439 16.5,13.9775097 16.5,10.9975506 C16.5,8.01759143 14.0375661,5.60185723 11,5.60185723 C7.96243388,5.60185723 5.5,8.01759143 5.5,10.9975506 C5.5,13.9775097 7.96243388,16.3932439 11,16.3932439 L11,16.3932439 Z M11,14.7745359 C13.1262963,14.7745359 14.85,13.083522 14.85,10.9975506 C14.85,8.91157918 13.1262963,7.22056524 11,7.22056524 C8.87370371,7.22056524 7.15,8.91157918 7.15,10.9975506 C7.15,13.083522 8.87370371,14.7745359 11,14.7745359 L11,14.7745359 Z" id="Combined-Shape" fill="#B792AF" opacity="0.4"></path>
            <path d="M10.3167085,13.0497039 C9.74669429,14.8586494 7.71067734,21.3277191 7.71067734,21.3277191 C8.75316013,21.6310113 9.85719759,21.7938361 11,21.7938361 C12.1548038,21.7938361 13.2700243,21.6275734 14.322146,21.3181174 C14.322146,21.3264001 12.4127341,14.7983069 11.7628126,13.0225619 C11.5251616,13.1087512 11.2681848,13.1558279 11,13.1558279 C10.7614655,13.1558279 10.5317976,13.1185853 10.3167085,13.0497039 Z M10.3237196,8.94316486 C9.75504302,7.12538073 7.71067734,0.672280883 7.71067734,0.672280891 C8.75316013,0.368988721 9.85719759,0.206163878 11,0.206163878 C12.1548038,0.206163878 13.2700243,0.372426573 14.322146,0.681882647 C14.322146,0.673609156 12.2803589,7.14726826 11.7154512,8.95596824 C11.4911516,8.880334 11.2504636,8.83927324 11,8.83927324 C10.7640553,8.83927324 10.5367858,8.87571153 10.3237196,8.94316486 L10.3237196,8.94316486 Z" id="Combined-Shape" fill="#FFFFFF" opacity="0.25" transform="translate(11.0164, 11) rotate(-30) translate(-11.0164, -11)"></path>
        </g>
        <path d="M9.0765,18.1875 C8.7465,18.1875 8.4885,18.2985 8.3085,18.5265 C8.1435,18.7305 8.0625,18.9915 8.0625,19.3095 C8.0625,19.6275 8.1405,19.8855 8.3025,20.0835 C8.4795,20.3025 8.7345,20.4135 9.0675,20.4135 C9.2955,20.4135 9.4935,20.3475 9.6585,20.2185 C9.8355,20.0805 9.9465,19.8855 9.9945,19.6365 L9.7575,19.6365 C9.7155,19.8225 9.6285,19.9635 9.5025,20.0595 C9.3825,20.1495 9.2385,20.1945 9.0675,20.1945 C8.8155,20.1945 8.6265,20.1105 8.4945,19.9455 C8.3685,19.7895 8.3085,19.5765 8.3085,19.3095 C8.3085,19.0425 8.3715,18.8295 8.4975,18.6675 C8.6325,18.4935 8.8245,18.4065 9.0735,18.4065 C9.2415,18.4065 9.3825,18.4455 9.4995,18.5265 C9.6195,18.6105 9.6975,18.7305 9.7275,18.8865 L9.9645,18.8865 C9.9345,18.6735 9.8385,18.5025 9.6765,18.3765 C9.5145,18.2505 9.3135,18.1875 9.0765,18.1875 L9.0765,18.1875 Z M10.3365,18.2295 L10.3365,20.3715 L11.0805,20.3715 C11.4165,20.3715 11.6745,20.2725 11.8545,20.0775 C12.0255,19.8915 12.1125,19.6305 12.1125,19.3005 C12.1125,18.9645 12.0315,18.7035 11.8725,18.5235 C11.6985,18.3255 11.4435,18.2295 11.1045,18.2295 L10.3365,18.2295 Z M10.5825,18.4425 L11.0655,18.4425 C11.3475,18.4425 11.5515,18.5145 11.6835,18.6615 C11.8065,18.7995 11.8695,19.0125 11.8695,19.3005 C11.8695,19.5795 11.8005,19.7925 11.6685,19.9365 C11.5275,20.0835 11.3175,20.1585 11.0385,20.1585 L10.5825,20.1585 L10.5825,18.4425 Z M12.3885,19.4925 L12.3885,19.6965 L13.9035,19.6965 L13.9035,19.4925 L12.3885,19.4925 Z M14.2695,18.2295 L14.2695,20.3715 L14.5155,20.3715 L14.5155,19.4505 L15.1635,19.4505 C15.2985,19.4505 15.4005,19.4745 15.4725,19.5285 C15.5505,19.5825 15.5955,19.6755 15.6075,19.8015 L15.6345,20.0865 C15.6435,20.2065 15.6735,20.2995 15.7215,20.3715 L15.9885,20.3715 C15.9255,20.2935 15.8865,20.1885 15.8745,20.0565 L15.8415,19.7265 C15.8175,19.5105 15.7035,19.3815 15.4995,19.3365 L15.4995,19.3305 C15.6225,19.3005 15.7185,19.2405 15.7905,19.1445 C15.8565,19.0515 15.8895,18.9465 15.8895,18.8265 C15.8895,18.6285 15.8235,18.4785 15.6975,18.3765 C15.5745,18.2775 15.4065,18.2295 15.1935,18.2295 L14.2695,18.2295 Z M14.5155,18.4425 L15.1635,18.4425 C15.3285,18.4425 15.4515,18.4755 15.5295,18.5415 C15.6015,18.6045 15.6405,18.7035 15.6405,18.8355 C15.6405,18.9615 15.6015,19.0575 15.5265,19.1265 C15.4425,19.1985 15.3195,19.2375 15.1635,19.2375 L14.5155,19.2375 L14.5155,18.4425 Z" id="CD-R" fill="#8F859E"></path>
    </g>
</svg>