<svg xmlns="http://www.w3.org/2000/svg" width="20" height="20" viewBox="0 0 20 20">
  <g fill="none" fill-rule="evenodd">
    <rect width="18" height="18" x="1" y="1" fill="#000" opacity=".2" rx="3"/>
    <path fill="#FFF" d="M4,2 C2.892,2 2,2.892 2,4 L2,16 C2,17.108 2.892,18 4,18 L16,18 C17.108,18 18,17.108 18,16 L18,4 C18,2.892 17.108,2 16,2 L4,2 Z"/>
    <path fill="#000" fill-rule="nonzero" d="M9,2.5 L10,2.5 L10,3 L13,3 L13,2.5 L14,2.5 L14,3 L16,3 L16,4 L14,4 L14,6 L12,6 L12,7 L15,7 L15,10 L12,10 L12,11 L15,11 L15,12 L12,12 L12,13 L16,13 L16,14 L12.338,14 C12.595,14.394 12.977,14.782 13.451,15.115 C14.327,15.731 15.449,16.113 15.99,16.102 L16.01,17.102 C15.066,17.121 13.899,16.651 12.877,15.934 C12.346,15.56 11.8503,15.108 11.5,14.588 C11.1497,15.108 10.6542,15.56 10.123,15.934 C9.1012,16.651 7.9343,17.121 6.9902,17.102 L7.0098,16.102 C7.5508,16.113 8.6727,15.731 9.5488,15.115 C10.023,14.782 10.4047,14.394 10.6621,14 L7,14 L7,13 L11,13 L11,12 L8,12 L8,11 L11,11 L11,10 L8,10 L8,7 L11,7 L11,6 L9,6 L9,4 L7,4 L7,3 L9,3 L9,2.5 Z M4.3516,4.3769 C5.1974,4.8382 5.9662,5.3971 6.6582,6.0507 L5.9082,7.0311 C5.1393,6.3006 4.3504,5.6853 3.543,5.1854 L4.3516,4.3769 Z M10,4 L10,5 L13,5 L13,4 L10,4 Z M3.7754,7.6531 C4.5443,8.076 5.2546,8.5562 5.9082,9.0945 L5.1016,10.0749 C4.448,9.4213 3.7357,8.8826 2.9668,8.4597 L3.7754,7.6531 Z M9,8 L9,9 L11,9 L11,8 L9,8 Z M12,8 L12,9 L14,9 L14,8 L12,8 Z M5.1016,10.9863 L6.082,11.6797 C5.6207,13.487 4.9468,15.236 4.0625,16.928 L2.91016,16.119 C3.8329,14.504 4.5633,12.793 5.1016,10.9863 Z"/>
  </g>
</svg>
