<svg xmlns="http://www.w3.org/2000/svg" width="20" height="20" viewBox="0 0 20 20">
  <g fill="none" fill-rule="evenodd">
    <rect width="18" height="18" x="1" y="1" fill="#000" opacity=".2" rx="3"/>
    <path fill="#FFF" d="M4,2 C2.892,2 2,2.892 2,4 L2,16 C2,17.108 2.892,18 4,18 L16,18 C17.108,18 18,17.108 18,16 L18,4 C18,2.892 17.108,2 16,2 L4,2 Z"/>
    <path fill="#000" fill-rule="nonzero" d="M5,0 C2.2377,0 0,2.1175 0,4.73 C0,6.27 0.7694,7.62648333 1.9852,8.48815 C2.5396,8.88231667 2.9753,9.39583333 2.9753,10.1016667 L3,11 L7,11 L7.029,10.1016667 C7.068,9.39583333 7.46,8.88231667 8.015,8.48815 C9.231,7.62648333 10,6.27 10,4.73 C10,2.1175 7.762,0 5,0 Z M5,1.88879167 C6.6535,1.88879167 8.005,3.1625 8.005,4.73 C8.005,5.61916667 7.567,6.44361667 6.8085,6.97528333 C5.6802,7.78195 5.2525,8.68000833 5.0969,9.43158333 L4.9031,9.43158333 C4.7475,8.68000833 4.3198,7.78195 3.1915,6.97528333 C2.4328,6.44361667 1.9947,5.61916667 1.9947,4.73 C1.9947,3.1625 3.3465,1.88879167 5,1.88879167 Z M3,12 L3,13 C3,14 4.0274,14 4.0274,14 L5.9726,14 C5.9726,14 7.029,14 7,13 L7,12 L3,12 Z" transform="translate(5 3)"/>
  </g>
</svg>
