<svg xmlns="http://www.w3.org/2000/svg" width="20" height="20" viewBox="0 0 20 20">
  <g fill="none" fill-rule="evenodd" transform="translate(1 1)">
    <rect width="18" height="18" fill="#000" opacity=".2" rx="3"/>
    <rect width="14" height="14" x="2" y="2" fill="#000" rx="3"/>
    <path fill="#FFF" d="M3,1 C1.892,1 1,1.892 1,3 L1,15 C1,16.108 1.892,17 3,17 L15,17 C16.108,17 17,16.108 17,15 L17,3 C17,1.892 16.108,1 15,1 L3,1 Z M8.9004,2.6992 L10.4004,4.6992 L10.002,5 L11.998,5 L11.6,4.6992 L13.1,2.6992 L13.9,3.3008 L12.625,5 L15,5 L15,6 L13,6 L13,9 L15,9 L15,10 L13,10 L13,15 L12,15 L12,10 L9.959,10 C9.863,11.12 9.4822,12.031 9.0332,12.811 C8.4122,13.881 7.3418,14.865 7.3418,14.865 L6.6582,14.137 C6.6582,14.137 7.6707,13.171 8.168,12.311 C8.569,11.611 8.8719,10.9 8.9609,10 L7,10 L7,9.0605 L6,9.5605 L6,15 L3,15 L3,14 L5,14 L5,10.0605 L3.2227,10.9492 L2.7773,10.0508 L5,8.9395 L5,6 L3,6 L3,5 L5,5 L5,3 L6,3 L6,5 L7,5 L7,6 L6,6 L6,8.4395 L6.7773,8.0508 L7.2227,8.9492 L7.1172,9 L9,9 L9,6 L8,6 L8,5 L9.375,5 L8.0996,3.3008 L8.9004,2.6992 Z M10,6 L10,9 L12,9 L12,6 L10,6 Z"/>
  </g>
</svg>
