<?xml version="1.0" encoding="UTF-8"?>
<svg width="16px" height="16px" viewBox="0 0 16 16" version="1.1" xmlns="http://www.w3.org/2000/svg" xmlns:xlink="http://www.w3.org/1999/xlink">
    <title>network-wirelss-6-no-route-symbolic</title>
    <g id="network-wirelss-6-no-route-symbolic" stroke="none" stroke-width="1" fill="none" fill-rule="evenodd">
        <path d="M5.01963068,8.65060895 L7.9999864,11.547 L8.9239864,10.649 L9.9149864,11.64 L8,13.5 L4.16780873,9.77667574 C4.50802926,9.45035602 4.79648605,9.07048427 5.01963068,8.65060895 Z M3.53033009,1.71966991 L13.5303301,11.7196699 C13.8232233,12.0125631 13.8232233,12.4874369 13.5303301,12.7803301 C13.2374369,13.0732233 12.7625631,13.0732233 12.4696699,12.7803301 L5.46754309,5.77720384 C5.16368249,4.07956161 3.89665642,2.71583005 2.25205976,2.27160405 C2.24440544,2.07308382 2.31751759,1.87182224 2.46966991,1.71966991 C2.76256313,1.4267767 3.23743687,1.4267767 3.53033009,1.71966991 Z M2.8410424,4.02714844 C3.46372782,4.02714844 3.9203638,4.29006006 4.22478778,4.60832149 L3.68512708,5.21716946 C3.50524018,5.01652638 3.19389747,4.85047694 2.89639222,4.85047694 C2.30830043,4.85047694 1.82398955,5.28635673 1.78247719,6.57323993 C2.06614499,6.22038486 2.50202479,6.01282305 2.83412368,6.01282305 C3.69204581,6.01282305 4.3078125,6.50405266 4.3078125,7.54878041 C4.3078125,8.57275199 3.57442745,9.20927486 2.69574914,9.20927486 C1.72712738,9.20927486 0.855367792,8.46205236 0.855367792,6.75312682 C0.855367792,4.85047694 1.80323337,4.02714844 2.8410424,4.02714844 Z M8,2.5 C10.9900669,2.5 13.6377792,3.5946246 15.9431368,5.7838738 L12.4249864,9.201 L11.4349864,8.21 L13.8599864,5.854 L13.6056136,5.67018513 C12.0065027,4.54948228 10.2602657,3.96670116 8.34057488,3.90540667 L8,3.9 C7.71609029,3.9 7.43592839,3.91114576 7.15943178,3.93348878 L5.91228462,2.68804337 C6.58858325,2.56268112 7.28448838,2.5 8,2.5 Z M2.64039932,6.73237064 C2.3774877,6.73237064 2.06614499,6.87766391 1.8101521,7.27895007 C1.90701428,8.12303474 2.25295062,8.44129618 2.67499296,8.44129618 C3.06244166,8.44129618 3.37378437,8.14379093 3.37378437,7.54878041 C3.37378437,6.98836354 3.08319784,6.73237064 2.64039932,6.73237064 Z" id="形状结合" fill="#FFFFFF" fill-rule="nonzero"></path>
    </g>
</svg>