<?xml version="1.0" encoding="UTF-8"?>
<svg width="16px" height="16px" viewBox="0 0 16 16" version="1.1" xmlns="http://www.w3.org/2000/svg" xmlns:xlink="http://www.w3.org/1999/xlink">
    <title>network-wireless-6-signal-offline-secure-symbolic-dark</title>
    <g id="network-wireless-6-signal-offline-secure-symbolic-dark" stroke="none" stroke-width="1" fill="none" fill-rule="evenodd">
        <path d="M13.5,8 C14.3284271,8 15,8.67157288 15,9.5 L15.0001925,10 C15.5523709,10 16,10.4433532 16,11.0093689 L16,12.9906311 C16,13.5480902 15.5562834,14 15.0001925,14 L11.9998075,14 C11.4476291,14 11,13.5566468 11,12.9906311 L11,11.0093689 C11,10.4519098 11.4437166,10 11.9998075,10 L12,9.5 C12,8.67157288 12.6715729,8 13.5,8 Z M8,11 C8.55228475,11 9,11.4477153 9,12 C9,12.5522847 8.55228475,13 8,13 C7.44771525,13 7,12.5522847 7,12 C7,11.4477153 7.44771525,11 8,11 Z M6.00015144,8.75270042 L5.9996532,10.2098001 C5.72081112,10.3796912 5.46526337,10.5840322 5.23892238,10.8169105 L4.3061403,9.911416 C4.78386698,9.41976324 5.35889771,9.02316437 6.00015144,8.75270042 Z M13.5,9 C13.2545401,9 13.0503916,9.17687516 13.0080557,9.41012437 L13,9.5 L13,9.999 L14,9.999 L14,9.5 C14,9.22385763 13.7761424,9 13.5,9 Z M8,4.5 C8.41421356,4.5 8.75,4.83578644 8.75,5.25 L8.75,9.24868576 C8.75,9.66289932 8.41421356,9.99868576 8,9.99868576 C7.58578644,9.99868576 7.25,9.66289932 7.25,9.24868576 L7.25,5.25 C7.25,4.83578644 7.58578644,4.5 8,4.5 Z M2.8410424,4.02714844 C3.46372782,4.02714844 3.9203638,4.29006006 4.22478778,4.60832149 L3.68512708,5.21716946 C3.50524018,5.01652638 3.19389747,4.85047694 2.89639222,4.85047694 C2.30830043,4.85047694 1.82398955,5.28635673 1.78247719,6.57323993 C2.06614499,6.22038486 2.50202479,6.01282305 2.83412368,6.01282305 C3.69204581,6.01282305 4.3078125,6.50405266 4.3078125,7.54878041 C4.3078125,8.57275199 3.57442745,9.20927486 2.69574914,9.20927486 C1.72712738,9.20927486 0.855367792,8.46205236 0.855367792,6.75312682 C0.855367792,4.85047694 1.80323337,4.02714844 2.8410424,4.02714844 Z M2.64039932,6.73237064 C2.3774877,6.73237064 2.06614499,6.87766391 1.8101521,7.27895007 C1.90701428,8.12303474 2.25295062,8.44129618 2.67499296,8.44129618 C3.06244166,8.44129618 3.37378437,8.14379093 3.37378437,7.54878041 C3.37378437,6.98836354 3.08319784,6.73237064 2.64039932,6.73237064 Z M10.001296,5.74440955 C11.0473476,6.00506332 12.0144191,6.46537117 12.8596992,7.08252179 C12.3138683,7.22738837 11.842596,7.5503767 11.5108201,7.98546141 C11.0433232,7.69831037 10.5365562,7.46755594 10.0012822,7.30161552 L10.001296,5.74440955 Z M8,2.5 C11.1010686,2.5 13.9090822,3.75471765 15.9440658,5.78417802 L14.8673243,6.82884653 C13.1050934,5.08023611 10.678698,4 8,4 C7.10163595,4 6.23164972,4.12149989 5.40557725,4.34896375 L4.94295883,4.349 L4.87796632,4.23543236 C4.64538089,3.85718765 4.35711862,3.5164158 4.02495883,3.2243829 C5.26031563,2.75561663 6.60030658,2.5 8,2.5 Z" id="形状结合" fill="#000000"></path>
    </g>
</svg>