<svg xmlns="http://www.w3.org/2000/svg" width="96" height="96" viewBox="0 0 96 96">
  <defs>
    <filter id="dde-launcher-96px-a" width="127.3%" height="127.3%" x="-13.6%" y="-13.6%" filterUnits="objectBoundingBox">
      <feOffset dy="2" in="SourceAlpha" result="shadowOffsetOuter1"/>
      <feGaussianBlur in="shadowOffsetOuter1" result="shadowBlurOuter1" stdDeviation="2"/>
      <feColorMatrix in="shadowBlurOuter1" result="shadowMatrixOuter1" values="0 0 0 0 0   0 0 0 0 0   0 0 0 0 0  0 0 0 0.2 0"/>
      <feMerge>
        <feMergeNode in="shadowMatrixOuter1"/>
        <feMergeNode in="SourceGraphic"/>
      </feMerge>
    </filter>
    <radialGradient id="dde-launcher-96px-b" cx="36.374%" cy="10.403%" r="83.143%" fx="36.374%" fy="10.403%">
      <stop offset="0%" stop-color="#00ABFF"/>
      <stop offset="100%" stop-color="#4021FF"/>
    </radialGradient>
    <linearGradient id="dde-launcher-96px-c" x1="49.999%" x2="49.999%" y1="0%" y2="100%">
      <stop offset="0%" stop-color="#FFF"/>
      <stop offset="100%" stop-color="#04ACF7"/>
    </linearGradient>
  </defs>
  <g fill="none" fill-rule="evenodd" filter="url(#dde-launcher-96px-a)" transform="translate(4 4)">
    <path fill="url(#dde-launcher-96px-b)" d="M0,44 C0,19.6994286 19.6994286,0 44,0 C68.3005714,0 88,19.6994286 88,44 C88,68.3005714 68.3005714,88 44,88 C19.6994286,88 0,68.3005714 0,44 Z"/>
    <path fill="url(#dde-launcher-96px-c)" fill-rule="nonzero" d="M59.6785614,10.4097937 C55.0480176,8.34990814 49.9204921,7.20512821 44.525641,7.20512821 C42.3755487,7.20512821 40.2679179,7.38696313 38.2172869,7.73609362 C33.111529,15.5064599 30.4766401,27.4471354 30.6951804,34.862799 C30.6951804,34.862799 30.3331303,46.2838305 38.0104895,50.3348172 C38.0104895,50.3348172 44.9099944,53.4197238 49.6119026,43.4445375 C49.6119026,43.4445375 52.8434763,37.8150742 51.5280804,25.0922907 C51.5280804,25.0922907 52.7865602,25.3182552 52.9288506,25.5212958 C53.071141,25.7226989 55.708257,35.3163654 53.8553194,43.3954148 C53.8553194,43.3954148 52.1494152,52.8891985 43.7621849,55.0604225 C35.3781166,57.2316466 28.8438238,51.9787908 24.4075244,47.0304958 C21.2312859,43.4878663 16.5752796,34.2047441 14.0739767,22.9452986 C9.74822337,29.0382123 7.20512821,36.4854413 7.20512821,44.5264887 C7.20512821,50.1335347 8.44167692,55.4517639 10.6569557,60.2233635 C18.7820475,62.6464785 40.0175185,67.560409 53.487612,57.6883312 C62.3330019,51.2043849 61.1933044,40.8208173 61.1933044,40.8208173 C61.0468628,32.9224321 56.2381669,25.0769231 56.2381669,25.0769231 C74.9365285,41.9923561 63.8849643,60.7848948 63.8849643,60.7848948 C58.5796013,71.621051 47.4992118,78.4299127 38.0505375,81.2864671 C40.1536011,81.6543412 42.3172195,81.8461538 44.525641,81.8461538 C65.1372633,81.8461538 81.8461538,65.1376428 81.8461538,44.5264887 C81.8461538,35.6079253 78.7177185,27.4198584 73.4984004,20.9999225 C71.6261241,21.1341305 69.4285567,21.215878 67.1454727,21.1409503 C67.1454727,21.1409503 57.1972126,21.6055178 51.6188128,24.3879093 C51.6188128,24.3879093 47.4589106,26.242837 43.3007153,29.3878585 C43.3007153,29.3878585 42.4182084,29.8290305 42.4608828,31.4500033 C42.4984363,33.0659628 41.6142224,37.3740741 38.6679806,39.8991153 C38.6679806,39.8991153 36.5649853,40.9803209 37.616483,42.5277651 C37.616483,42.5277651 39.0366876,44.5899099 41.0372642,42.4241565 C41.0372642,42.4241565 46.1957478,37.1167238 46.5115385,28.5640032 C46.5115385,28.5640032 48.1434082,27.1703008 50.720943,26.7592087 C50.720943,26.7592087 51.1954825,39.5899607 44.8284595,46.0320744 C44.8284595,46.0320744 38.7721062,52.6279298 36.8261527,42.8369197 C36.8261527,42.8369197 34.4568691,33.5088059 46.6702873,22.4310442 C46.6702873,22.4310442 54.8311076,14.2810356 59.6785614,10.4097937 Z M44,85 C21.3562532,85 3,66.6441259 3,44.0008466 C3,21.3572693 21.3565512,3 44,3 C66.6434488,3 85,21.3572693 85,44.0008466 C85,66.6441259 66.6437468,85 44,85 Z"/>
  </g>
</svg>
