<svg xmlns="http://www.w3.org/2000/svg" xmlns:xlink="http://www.w3.org/1999/xlink" width="96" height="96" viewBox="0 0 96 96">
  <defs>
    <filter id="stack-download-a" width="129.3%" height="137.5%" x="-14.6%" y="-19.4%" filterUnits="objectBoundingBox">
      <feOffset dy="2" in="SourceAlpha" result="shadowOffsetOuter1"/>
      <feGaussianBlur in="shadowOffsetOuter1" result="shadowBlurOuter1" stdDeviation="2"/>
      <feColorMatrix in="shadowBlurOuter1" result="shadowMatrixOuter1" values="0 0 0 0 0   0 0 0 0 0   0 0 0 0 0  0 0 0 0.5 0"/>
      <feMerge>
        <feMergeNode in="shadowMatrixOuter1"/>
        <feMergeNode in="SourceGraphic"/>
      </feMerge>
    </filter>
    <linearGradient id="stack-download-d" x1="50%" x2="50%" y1="0%" y2="98.094%">
      <stop offset="0%" stop-color="#14BBAC"/>
      <stop offset="100%" stop-color="#BEBEBE"/>
    </linearGradient>
    <path id="stack-download-c" d="M71.009205,0 C72.1086907,0 73,0.894124107 73,1.99866798 L73,65 C73,66.1153237 72.0904928,67 71,67 L11,67 C9.8949672,67 9,66.1344135 9,65 L9,4.99262998 C9,3.8921307 9.89447314,2.99999976 11.0052699,2.99999977 L49.0068273,2.99999986 C49.555342,2.99999986 50.3210535,2.67894733 50.7109591,2.28904177 L52.2890428,0.710958091 C52.6816942,0.31830678 53.4553065,0 53.991804,0 L71.009205,0 Z"/>
    <filter id="stack-download-b" width="121.9%" height="120.9%" x="-10.9%" y="-7.5%" filterUnits="objectBoundingBox">
      <feOffset dy="2" in="SourceAlpha" result="shadowOffsetOuter1"/>
      <feGaussianBlur in="shadowOffsetOuter1" result="shadowBlurOuter1" stdDeviation="2"/>
      <feColorMatrix in="shadowBlurOuter1" values="0 0 0 0 0   0 0 0 0 0   0 0 0 0 0  0 0 0 0.5 0"/>
    </filter>
    <linearGradient id="stack-download-e" x1="50%" x2="50%" y1="0%" y2="98.094%">
      <stop offset="0%" stop-color="#069AA6"/>
      <stop offset="100%" stop-color="#BEBEBE"/>
    </linearGradient>
    <linearGradient id="stack-download-f" x1="50%" x2="50%" y1="0%" y2="92.487%">
      <stop offset="0%" stop-color="#16C2AC"/>
      <stop offset="100%" stop-color="#0A9AB1"/>
    </linearGradient>
    <radialGradient id="stack-download-g" r="55.632%" fx="50%" fy="50%" gradientTransform="matrix(0 .89876 -1 0 1 .05)">
      <stop offset="0%" stop-color="#FFF" stop-opacity=".217"/>
      <stop offset="100%" stop-color="#E9E9E9" stop-opacity=".745"/>
    </radialGradient>
    <linearGradient id="stack-download-h" x1="50%" x2="50%" y1="0%" y2="100%">
      <stop offset="0%" stop-color="#FFF" stop-opacity=".418"/>
      <stop offset="100%" stop-color="#FFF" stop-opacity=".329"/>
    </linearGradient>
  </defs>
  <g fill="none" fill-rule="evenodd" filter="url(#stack-download-a)" transform="translate(7 17)">
    <use fill="#000" filter="url(#stack-download-b)" xlink:href="#stack-download-c"/>
    <use fill="url(#stack-download-d)" xlink:href="#stack-download-c"/>
    <path fill="url(#stack-download-e)" d="M70.9943894,1.00000001 C72.1020576,1.00000001 73,1.90444884 73,3.00268907 L73,64.980526 L9,64.980526 L9,5.99426132 C9,4.89286108 9.8913231,3.99999978 10.9996239,3.99999978 L49.7591517,3.99999983 C50.3063826,3.99999984 51.0710535,3.6789473 51.4609591,3.28904176 L53.0390428,1.7109581 C53.4316942,1.31830679 54.1882325,1.00000001 54.7578612,1.00000001 L70.9943894,1.00000001 Z"/>
    <path fill="#FFF" d="M5,67.0073698 L4.99999998,8.99655258 C4.99999998,7.89388704 5.89731331,7 7.00083886,7 L74.9991611,7 C76.1041939,7 77,7.89484029 77,8.99655258 L77,67.0073698 L5,67.0073698 Z"/>
    <path fill="#F1F1F1" d="M4.99999998,66 L4.99999998,9.99649128 C4.99999998,8.89385959 5.89731331,8 7.00083886,8 L74.9991611,8 C76.1041939,8 77,8.88783214 77,9.99649128 L77,66 L4.99999998,66 Z"/>
    <path fill="url(#stack-download-f)" d="M2.00661467,72 C0.898391991,72 -3.1663639e-11,71.1141708 -5.80115294e-12,70.0051016 L1.32362502e-09,12.9948984 C1.34931688e-09,11.8931464 0.892951404,11 2.00661468,11 L79.9933853,11 C81.101608,11 82,11.8858292 82,12.9948984 L82,70.0051016 C82,71.1068536 81.1070486,72 79.9933853,72 L2.00661467,72 Z"/>
    <g transform="translate(15 26)">
      <path fill="url(#stack-download-g)" stroke="#FFF" stroke-opacity=".2" d="M8.42640033,28.3275862 C12.03627,28.3275862 15.4264003,23.9510382 15.4264003,19.7241379 C15.4264003,15.8092629 12.2911064,12.637931 8.42640033,12.637931 C4.5616943,12.637931 1.42640033,15.8092629 1.42640033,19.7241379 C1.42640033,23.9510382 4.81653061,28.3275862 8.42640033,28.3275862 Z"/>
      <ellipse cx="6" cy="18.207" fill="#FFF" rx="1.5" ry="1.517"/>
      <ellipse cx="22.5" cy="6.069" fill="#FFF" rx="1.5" ry="1.517"/>
      <ellipse cx="40.5" cy="15.172" fill="#FFF" rx="1.5" ry="1.517"/>
      <path fill="url(#stack-download-g)" stroke="#FFF" stroke-opacity=".2" d="M24 16.1896552C27.6098697 16.1896552 31 11.8131071 31 7.5862069 31 3.67133184 27.864706.5 24 .5 20.135294.5 17 3.67133184 17 7.5862069 17 11.8131071 20.3901303 16.1896552 24 16.1896552zM43.5 25.2931034C47.1098697 25.2931034 50.5 20.9165554 50.5 16.6896552 50.5 12.7747801 47.364706 9.60344828 43.5 9.60344828 39.635294 9.60344828 36.5 12.7747801 36.5 16.6896552 36.5 20.9165554 39.8901303 25.2931034 43.5 25.2931034z"/>
      <path stroke="url(#stack-download-h)" stroke-linecap="round" stroke-width="1.2" d="M24 18.2068966C24 30.1277117 24.3766042 36.3628819 24.9264003 43.4745174M45 27.3103448C45 36.2047789 43.4080869 35.3815333 43.5041818 40.6877117"/>
      <path stroke="url(#stack-download-h)" stroke-linecap="round" stroke-width="1.2" d="M12,30.3448276 C12,37.2216742 7.2242608,36.5851712 7.51254549,40.6877117" transform="matrix(-1 0 0 1 19.5 0)"/>
    </g>
    <g transform="translate(0 11)">
      <path fill="#FFF" fill-opacity=".3" d="M1.30597606e-09,2.9948984 L1.32929515e-09,1.9948984 C1.35498701e-09,0.893146438 0.892951404,-3.33066907e-15 2.00661468,-3.33066907e-15 L79.9933853,-3.33066907e-15 C81.101608,-3.33066907e-15 82,0.885829231 82,1.9948984 L82,2.9948984 C82,1.88582923 81.101608,1 79.9933853,1 L2.00661468,1 C0.892951404,1 1.35498701e-09,1.89314644 1.32929515e-09,2.9948984 Z"/>
      <path fill="#000" fill-opacity=".3" d="M-6.70730656e-14,58.0051016 C-2.59295592e-11,59.1141708 0.898391991,60 2.00661467,60 L79.9933853,60 C81.1070486,60 82,59.1068536 82,58.0051016 L82,59.0051016 C82,60.1068536 81.1070486,61 79.9933853,61 L2.00661467,61 C0.898391991,61 -2.59295592e-11,60.1141708 -6.70730656e-14,59.0051016 L2.3252019e-11,58.0051016 Z"/>
      <path fill="#FFF" fill-opacity=".06" d="M78.9933853 7.10542736e-15L79.9933853 7.10542736e-15C81.101608 7.10542736e-15 82 .885829231 82 1.9948984L82 59.0051016C82 60.1068536 81.1070486 61 79.9933853 61L78.9933853 61C80.1070486 61 81 60.1068536 81 59.0051016L81 1.9948984C81 .885829231 80.101608 7.10542736e-15 78.9933853 7.10542736e-15zM3.00661468 7.10542736e-15C1.8929514 7.10542736e-15 1 .893146438 1 1.9948984L1 59.0051016C1 60.1141708 1.89839199 61 3.00661467 61L2.00661467 61C.898391991 61-2.59790751e-11 60.1141708-1.16589012e-13 59.0051016L1.32930959e-9 1.9948984C1.35500144e-9.893146438.892951404 7.10542736e-15 2.00661468 7.10542736e-15L3.00661468 7.10542736e-15z"/>
    </g>
  </g>
</svg>
