<svg xmlns="http://www.w3.org/2000/svg" xmlns:xlink="http://www.w3.org/1999/xlink" width="128" height="128" viewBox="0 0 128 128">
  <defs>
    <linearGradient id="application-vnd.sun.xml.calc.template-c" x1="50%" x2="50%" y1="0%" y2="100%">
      <stop offset="0%" stop-color="#5C84F0"/>
      <stop offset="100%" stop-color="#3B57E3"/>
    </linearGradient>
    <path id="application-vnd.sun.xml.calc.template-b" d="M58,0 L84,26 L84,95 C84,99.9705627 79.9705627,104 75,104 L9,104 C4.02943725,104 6.08718376e-16,99.9705627 0,95 L0,9 C-6.08718376e-16,4.02943725 4.02943725,9.13077564e-16 9,0 L58,0 Z"/>
    <filter id="application-vnd.sun.xml.calc.template-a" width="127.4%" height="122.1%" x="-13.7%" y="-9.1%" filterUnits="objectBoundingBox">
      <feOffset dy="2" in="SourceAlpha" result="shadowOffsetOuter1"/>
      <feGaussianBlur in="shadowOffsetOuter1" result="shadowBlurOuter1" stdDeviation="3.5"/>
      <feColorMatrix in="shadowBlurOuter1" values="0 0 0 0 0.133333333   0 0 0 0 0.215686275   0 0 0 0 0.650980392  0 0 0 0.5 0"/>
    </filter>
    <linearGradient id="application-vnd.sun.xml.calc.template-f" x1="50%" x2="10.489%" y1="50%" y2="91.194%">
      <stop offset="0%" stop-color="#FFF" stop-opacity=".1"/>
      <stop offset="100%" stop-color="#FFF" stop-opacity=".3"/>
    </linearGradient>
    <path id="application-vnd.sun.xml.calc.template-e" d="M58,0 L84,26 L67,26 C62.0294373,26 58,21.9705627 58,17 L58,6 L58,1 L58,0 Z"/>
    <filter id="application-vnd.sun.xml.calc.template-d" width="142.3%" height="142.3%" x="-21.2%" y="-13.5%" filterUnits="objectBoundingBox">
      <feOffset dy="2" in="SourceAlpha" result="shadowOffsetOuter1"/>
      <feGaussianBlur in="shadowOffsetOuter1" result="shadowBlurOuter1" stdDeviation="1.5"/>
      <feComposite in="shadowBlurOuter1" in2="SourceAlpha" operator="out" result="shadowBlurOuter1"/>
      <feColorMatrix in="shadowBlurOuter1" values="0 0 0 0 0   0 0 0 0 0   0 0 0 0 0  0 0 0 0.05 0"/>
    </filter>
  </defs>
  <g fill="none" fill-rule="evenodd">
    <g transform="translate(22 14)">
      <use fill="#000" filter="url(#application-vnd.sun.xml.calc.template-a)" xlink:href="#application-vnd.sun.xml.calc.template-b"/>
      <use fill="url(#application-vnd.sun.xml.calc.template-c)" xlink:href="#application-vnd.sun.xml.calc.template-b"/>
      <use fill="#000" filter="url(#application-vnd.sun.xml.calc.template-d)" xlink:href="#application-vnd.sun.xml.calc.template-e"/>
      <use fill="url(#application-vnd.sun.xml.calc.template-f)" xlink:href="#application-vnd.sun.xml.calc.template-e"/>
    </g>
    <path fill="#FFF" d="M40,56 L42,56 L42,50 L50,50 L50,94 L42,94 L42,88 L40,88 L40,96 L88,96 L88,48 L40,48 L40,56 Z M62,50 L62,56 L52,56 L52,50 L62,50 Z M74,50 L74,56 L64,56 L64,50 L74,50 Z M86,50 L86,56 L76,56 L76,50 L86,50 Z M40,62 L42,62 L42,58 L40,58 L40,62 Z M62,58 L62,64 L52,64 L52,58 L62,58 Z M74,58 L74,64 L64,64 L64,58 L74,58 Z M86,58 L86,64 L76,64 L76,58 L86,58 Z M40,68 L42,68 L42,64 L40,64 L40,68 Z M62,66 L62,72 L52,72 L52,66 L62,66 Z M74,66 L74,72 L64,72 L64,66 L74,66 Z M86,66 L86,72 L76,72 L76,66 L86,66 Z M40,74 L42,74 L42,70 L40,70 L40,74 Z M62,74 L62,94 L52,94 L52,74 L62,74 Z M74,74 L74,94 L64,94 L64,74 L74,74 Z M86,74 L86,94 L76,94 L76,74 L86,74 Z M40,80 L42,80 L42,76 L40,76 L40,80 Z M40,86 L42,86 L42,82 L40,82 L40,86 Z"/>
  </g>
</svg>
