<svg xmlns="http://www.w3.org/2000/svg" xmlns:xlink="http://www.w3.org/1999/xlink" width="128" height="128" viewBox="0 0 128 128">
  <defs>
    <linearGradient id="application-x-zip-c" x1="50%" x2="50%" y1="0%" y2="100%">
      <stop offset="0%" stop-color="#327DFF"/>
      <stop offset="100%" stop-color="#1066FF"/>
    </linearGradient>
    <path id="application-x-zip-b" d="M58,0 L84,26 L84,95 C84,99.9705627 79.9705627,104 75,104 L9,104 C4.02943725,104 6.08718376e-16,99.9705627 0,95 L0,9 C-6.08718376e-16,4.02943725 4.02943725,9.13077564e-16 9,0 L58,0 Z"/>
    <filter id="application-x-zip-a" width="127.4%" height="122.1%" x="-13.7%" y="-9.1%" filterUnits="objectBoundingBox">
      <feOffset dy="2" in="SourceAlpha" result="shadowOffsetOuter1"/>
      <feGaussianBlur in="shadowOffsetOuter1" result="shadowBlurOuter1" stdDeviation="3.5"/>
      <feColorMatrix in="shadowBlurOuter1" values="0 0 0 0 0.0391387195   0 0 0 0 0.388542822   0 0 0 0 1  0 0 0 0.5 0"/>
    </filter>
    <linearGradient id="application-x-zip-f" x1="50%" x2="10.489%" y1="50%" y2="91.194%">
      <stop offset="0%" stop-color="#FFF" stop-opacity=".1"/>
      <stop offset="100%" stop-color="#FFF" stop-opacity=".3"/>
    </linearGradient>
    <path id="application-x-zip-e" d="M58,0 L84,26 L67,26 C62.0294373,26 58,21.9705627 58,17 L58,0 Z"/>
    <filter id="application-x-zip-d" width="142.3%" height="142.3%" x="-21.2%" y="-13.5%" filterUnits="objectBoundingBox">
      <feOffset dy="2" in="SourceAlpha" result="shadowOffsetOuter1"/>
      <feGaussianBlur in="shadowOffsetOuter1" result="shadowBlurOuter1" stdDeviation="1.5"/>
      <feComposite in="shadowBlurOuter1" in2="SourceAlpha" operator="out" result="shadowBlurOuter1"/>
      <feColorMatrix in="shadowBlurOuter1" values="0 0 0 0 0   0 0 0 0 0   0 0 0 0 0  0 0 0 0.05 0"/>
    </filter>
  </defs>
  <g fill="none" fill-rule="evenodd">
    <g transform="translate(22 14)">
      <use fill="#000" filter="url(#application-x-zip-a)" xlink:href="#application-x-zip-b"/>
      <use fill="url(#application-x-zip-c)" xlink:href="#application-x-zip-b"/>
      <use fill="#000" filter="url(#application-x-zip-d)" xlink:href="#application-x-zip-e"/>
      <use fill="url(#application-x-zip-f)" xlink:href="#application-x-zip-e"/>
      <g transform="translate(0 38.5)">
        <path fill="#FFF8F8" fill-opacity=".5" d="M36,13.5 L45,13.5 L45,7.5 L36,7.5 L36,4.5 L48,4.5 L48,16.5 L36,16.5 L36,13.5 Z M30,4.5 L30,16.5 L0,16.5 L0,4.5 L30,4.5 Z M54,4.5 L84,4.5 L84,16.5 L54,16.5 L54,4.5 Z"/>
        <path fill="#F4F4F4" d="M34,0.5 L50,0.5 C51.1045695,0.5 52,1.3954305 52,2.5 L52,18.5 C52,19.6045695 51.1045695,20.5 50,20.5 L34,20.5 C32.8954305,20.5 32,19.6045695 32,18.5 L32,2.5 C32,1.3954305 32.8954305,0.5 34,0.5 Z M34,2.5 L34,18.5 L50,18.5 L50,2.5 L34,2.5 Z M34,9.5 L43,9.5 L43,11.5 L34,11.5 L34,9.5 Z"/>
      </g>
    </g>
    <path fill="#FFF" d="M46,85 L59.9999997,85 L59.9999997,87 L49,101 L59.9999997,101 L59.9999997,103 L46.0000003,103 L46,101 L57,87 L46.0000003,87 L46,85 Z M64,85 L66,85 L66,103 L64,103 L64,85 Z M77.9592701,84.9400919 C81.323641,84.9400919 84,87.5241551 84,91 C84,94.4517797 81.3470968,97 77.9592701,97 L72,97 L72,103 L70,103 L70,85 L77.9592701,84.9400919 Z M72,87 L72,95 L78,95 C80.2243508,95 82,93.2196156 82,91 C82,88.7756492 80.2196156,87 78,87 L72,87 Z"/>
  </g>
</svg>
