<svg xmlns="http://www.w3.org/2000/svg" xmlns:xlink="http://www.w3.org/1999/xlink" width="128" height="128" viewBox="0 0 128 128">
  <defs>
    <linearGradient id="opera-unite-application-c" x1="50%" x2="50%" y1="0%" y2="100%">
      <stop offset="0%" stop-color="#F33C3C"/>
      <stop offset="99.628%" stop-color="#DC2121"/>
    </linearGradient>
    <path id="opera-unite-application-b" d="M58,0 L84,26 L84,95 C84,99.9705627 79.9705627,104 75,104 L9,104 C4.02943725,104 6.08718376e-16,99.9705627 0,95 L0,9 C-6.08718376e-16,4.02943725 4.02943725,9.13077564e-16 9,0 L58,0 Z"/>
    <filter id="opera-unite-application-a" width="127.4%" height="122.1%" x="-13.7%" y="-9.1%" filterUnits="objectBoundingBox">
      <feOffset dy="2" in="SourceAlpha" result="shadowOffsetOuter1"/>
      <feGaussianBlur in="shadowOffsetOuter1" result="shadowBlurOuter1" stdDeviation="3.5"/>
      <feColorMatrix in="shadowBlurOuter1" values="0 0 0 0 0.6622226   0 0 0 0 0   0 0 0 0 0  0 0 0 0.5 0"/>
    </filter>
    <linearGradient id="opera-unite-application-f" x1="50%" x2="10.489%" y1="50%" y2="91.194%">
      <stop offset="0%" stop-color="#FFF" stop-opacity=".1"/>
      <stop offset="100%" stop-color="#FFF" stop-opacity=".3"/>
    </linearGradient>
    <path id="opera-unite-application-e" d="M58,0 L84,26 L67,26 C62.0294373,26 58,21.9705627 58,17 L58,0 Z"/>
    <filter id="opera-unite-application-d" width="142.3%" height="142.3%" x="-21.2%" y="-13.5%" filterUnits="objectBoundingBox">
      <feOffset dy="2" in="SourceAlpha" result="shadowOffsetOuter1"/>
      <feGaussianBlur in="shadowOffsetOuter1" result="shadowBlurOuter1" stdDeviation="1.5"/>
      <feComposite in="shadowBlurOuter1" in2="SourceAlpha" operator="out" result="shadowBlurOuter1"/>
      <feColorMatrix in="shadowBlurOuter1" values="0 0 0 0 0   0 0 0 0 0   0 0 0 0 0  0 0 0 0.05 0"/>
    </filter>
  </defs>
  <g fill="none" fill-rule="evenodd">
    <g transform="translate(22 14)">
      <use fill="#000" filter="url(#opera-unite-application-a)" xlink:href="#opera-unite-application-b"/>
      <use fill="url(#opera-unite-application-c)" xlink:href="#opera-unite-application-b"/>
      <use fill="#000" filter="url(#opera-unite-application-d)" xlink:href="#opera-unite-application-e"/>
      <use fill="url(#opera-unite-application-f)" xlink:href="#opera-unite-application-e"/>
    </g>
    <path fill="#FFF" d="M83.7597717,82.387848 C83.8218631,77.7717439 81.1759927,72.2865929 74.7620797,68.5197757 C67.3432169,64.1214509 61.7358048,67.9112466 61.7358048,67.9112466 C61.7358048,67.9112466 67.976503,66.5189298 70.4043123,70.9859228 C72.8316207,75.4539399 70.8476138,78.0788167 69.8870241,79.7775762 C66.6706784,85.4693139 69.7482027,88.7970111 72.3480651,90.3307621 C74.9479283,91.8645132 79.7177704,92.1883794 82.505738,87.2560852 C83.2897124,85.8685916 83.7354764,84.1941486 83.7597717,82.387848 L83.7597717,82.387848 Z M74.589651,54.7798153 C74.589651,51.7128255 72.4684528,47.3333333 66.8930184,47.3333333 C61.3170832,47.3333333 54.8665842,53.0240469 54.8856457,63.5394409 C54.8665864,72.3022678 60.8893321,75.373742 60.8893321,75.373742 C60.8893321,75.373742 56.5917589,70.5631542 59.1650359,66.1817404 C61.7383128,61.8003266 64.956665,62.2262979 66.8773434,62.2262979 C73.3105358,62.2262979 74.589651,57.846805 74.589651,54.7798153 L74.589651,54.7798153 Z M67.7238162,72.5072474 C67.7238162,72.5072474 65.7801895,78.7251392 60.7796041,78.6405856 C55.7780156,78.5544955 54.5446736,75.4866082 53.5845855,73.7883619 C50.3682397,68.096111 46.0111001,69.1484192 43.4112369,70.6816579 C40.8113744,72.2148966 38.1622283,76.2855119 40.9501959,81.2188295 C43.7366594,86.1511238 51.7965846,89.0076267 60.7012269,83.7330187 C68.139152,79.3695408 67.7238162,72.5072474 67.7238162,72.5072474 L67.7238162,72.5072474 Z"/>
  </g>
</svg>
