<svg xmlns="http://www.w3.org/2000/svg" xmlns:xlink="http://www.w3.org/1999/xlink" width="128" height="128" viewBox="0 0 128 128">
  <defs>
    <linearGradient id="text-xml-c" x1="50%" x2="50%" y1="0%" y2="98.547%">
      <stop offset="0%" stop-color="#DC3C99"/>
      <stop offset="100%" stop-color="#CD3474"/>
    </linearGradient>
    <path id="text-xml-b" d="M58,0 L84,26 L84,95 C84,99.9705627 79.9705627,104 75,104 L9,104 C4.02943725,104 6.08718376e-16,99.9705627 0,95 L0,9 C-6.08718376e-16,4.02943725 4.02943725,9.13077564e-16 9,0 L58,0 Z"/>
    <filter id="text-xml-a" width="127.4%" height="122.1%" x="-13.7%" y="-9.1%" filterUnits="objectBoundingBox">
      <feOffset dy="2" in="SourceAlpha" result="shadowOffsetOuter1"/>
      <feGaussianBlur in="shadowOffsetOuter1" result="shadowBlurOuter1" stdDeviation="3.5"/>
      <feColorMatrix in="shadowBlurOuter1" values="0 0 0 0 0.920884284   0 0 0 0 0.0193547135   0 0 0 0 0.46292854  0 0 0 0.5 0"/>
    </filter>
    <linearGradient id="text-xml-f" x1="50%" x2="10.489%" y1="50%" y2="91.194%">
      <stop offset="0%" stop-color="#FFF" stop-opacity=".1"/>
      <stop offset="100%" stop-color="#FFF" stop-opacity=".3"/>
    </linearGradient>
    <path id="text-xml-e" d="M58,0 L84,26 L67,26 C62.0294373,26 58,21.9705627 58,17 L58,0 Z"/>
    <filter id="text-xml-d" width="142.3%" height="142.3%" x="-21.2%" y="-13.5%" filterUnits="objectBoundingBox">
      <feOffset dy="2" in="SourceAlpha" result="shadowOffsetOuter1"/>
      <feGaussianBlur in="shadowOffsetOuter1" result="shadowBlurOuter1" stdDeviation="1.5"/>
      <feComposite in="shadowBlurOuter1" in2="SourceAlpha" operator="out" result="shadowBlurOuter1"/>
      <feColorMatrix in="shadowBlurOuter1" values="0 0 0 0 0   0 0 0 0 0   0 0 0 0 0  0 0 0 0.05 0"/>
    </filter>
  </defs>
  <g fill="none" fill-rule="evenodd">
    <g transform="translate(22 14)">
      <use fill="#000" filter="url(#text-xml-a)" xlink:href="#text-xml-b"/>
      <use fill="url(#text-xml-c)" xlink:href="#text-xml-b"/>
      <use fill="#000" filter="url(#text-xml-d)" xlink:href="#text-xml-e"/>
      <use fill="url(#text-xml-f)" xlink:href="#text-xml-e"/>
    </g>
    <path fill="#FFF" d="M34,67 L50,56 L50,60 L37,69 L50,78 L50,82 L34,71 L34,67 Z M94,67 L94,71 L78,82 L78,78 L91,69 L78,60 L78,56 L94,67 Z M69.136,56 L73,56 L58,81.9893671 L54,81.9893671 L69.136,56 Z"/>
  </g>
</svg>
