<svg xmlns="http://www.w3.org/2000/svg" xmlns:xlink="http://www.w3.org/1999/xlink" width="128" height="128" viewBox="0 0 128 128">
  <defs>
    <linearGradient id="text-xhtml+xml-c" x1="50%" x2="50%" y1="0%" y2="99.203%">
      <stop offset="0%" stop-color="#619FFF"/>
      <stop offset="100%" stop-color="#0093E4"/>
    </linearGradient>
    <path id="text-xhtml+xml-b" d="M58,0 L84,26 L84,95 C84,99.9705627 79.9705627,104 75,104 L9,104 C4.02943725,104 6.08718376e-16,99.9705627 0,95 L0,9 C-6.08718376e-16,4.02943725 4.02943725,9.13077564e-16 9,0 L58,0 Z"/>
    <filter id="text-xhtml+xml-a" width="127.4%" height="122.1%" x="-13.7%" y="-9.1%" filterUnits="objectBoundingBox">
      <feOffset dy="2" in="SourceAlpha" result="shadowOffsetOuter1"/>
      <feGaussianBlur in="shadowOffsetOuter1" result="shadowBlurOuter1" stdDeviation="3.5"/>
      <feColorMatrix in="shadowBlurOuter1" values="0 0 0 0 0.0156862745   0 0 0 0 0.580392157   0 0 0 0 0.898039216  0 0 0 0.5 0"/>
    </filter>
    <linearGradient id="text-xhtml+xml-f" x1="50%" x2="10.489%" y1="50%" y2="91.194%">
      <stop offset="0%" stop-color="#FFF" stop-opacity=".1"/>
      <stop offset="100%" stop-color="#FFF" stop-opacity=".3"/>
    </linearGradient>
    <path id="text-xhtml+xml-e" d="M58,0 L84,26 L67,26 C62.0294373,26 58,21.9705627 58,17 L58,0 Z"/>
    <filter id="text-xhtml+xml-d" width="142.3%" height="142.3%" x="-21.2%" y="-13.5%" filterUnits="objectBoundingBox">
      <feOffset dy="2" in="SourceAlpha" result="shadowOffsetOuter1"/>
      <feGaussianBlur in="shadowOffsetOuter1" result="shadowBlurOuter1" stdDeviation="1.5"/>
      <feComposite in="shadowBlurOuter1" in2="SourceAlpha" operator="out" result="shadowBlurOuter1"/>
      <feColorMatrix in="shadowBlurOuter1" values="0 0 0 0 0   0 0 0 0 0   0 0 0 0 0  0 0 0 0.05 0"/>
    </filter>
  </defs>
  <g fill="none" fill-rule="evenodd">
    <g transform="translate(22 14)">
      <use fill="#000" filter="url(#text-xhtml+xml-a)" xlink:href="#text-xhtml+xml-b"/>
      <use fill="url(#text-xhtml+xml-c)" xlink:href="#text-xhtml+xml-b"/>
      <use fill="#000" filter="url(#text-xhtml+xml-d)" xlink:href="#text-xhtml+xml-e"/>
      <use fill="url(#text-xhtml+xml-f)" xlink:href="#text-xhtml+xml-e"/>
    </g>
    <path fill="#FFF" d="M61.9915007,81.317901 C62.6467592,81.4158875 63.3174496,81.4666667 64,81.4666667 C66.4914176,81.4666667 68.8248154,80.7901029 70.8264895,79.6106789 C70.9483904,77.9460078 70.9504266,76.3735326 70.8397356,74.8880486 C70.6282679,74.8226056 70.4282801,74.7310378 70.2435437,74.6171165 C70.1867709,74.6513582 70.129581,74.6860372 70.0719869,74.7211516 C68.3609897,75.7643272 66.6499176,76.9712271 65.0574402,78.3229776 C63.9225258,79.2863326 62.8933814,80.2861798 61.9915007,81.317901 Z M59.5715212,80.721577 C60.7172926,79.2840629 62.0771485,77.9145762 63.6078631,76.6152521 C64.9198161,75.5016205 66.3016439,74.4849449 67.6990992,73.5708147 C63.9709487,73.0746096 60.6868418,71.8476889 57.8212931,69.9975934 C57.2896642,69.6543557 56.7857632,69.3015057 56.3068394,68.9388285 C56.0524478,69.0696522 55.7738037,69.1599597 55.479432,69.201226 C54.3568322,71.3363832 53.7108447,73.490023 53.2105636,76.0598354 C54.8034597,78.188758 57.0116833,79.8305761 59.5715212,80.721577 Z M51.4672011,72.9373166 C51.9009618,71.3445498 52.4474279,69.8623058 53.1953928,68.3884611 C52.7637988,67.9223677 52.5,67.2986573 52.5,66.6133333 C52.5,66.2363131 52.5798381,65.87794 52.7235301,65.5541985 C52.2004038,64.9385937 51.7137215,64.300661 51.2548884,63.6397285 C50.7871569,65.0072582 50.5333333,66.4739873 50.5333333,68 C50.5333333,69.7429317 50.8644465,71.4085278 51.4672011,72.9373166 Z M52.4460974,61.0780545 C53.0965328,62.1302108 53.8019913,63.1199165 54.5989002,64.0506187 C54.7652245,64.0174157 54.9372451,64 55.1133333,64 C55.4066374,64 55.6886561,64.0483189 55.9518634,64.137431 C57.4775221,62.2459859 59.3166431,60.5661746 61.4947617,59.1290031 C61.4301436,58.9015633 61.3955556,58.6614872 61.3955556,58.4133326 C61.3955556,58.3810705 61.3961402,58.3489451 61.3972994,58.3169661 C60.3526479,57.6105861 59.2054615,56.9739297 57.604184,56.1461154 C55.4740651,57.2978537 53.6895381,59.0069982 52.4460974,61.0780545 Z M60.5297254,54.9847021 C61.2911034,55.4066291 61.9557504,55.8034244 62.5852229,56.2214649 C62.9948087,55.9548848 63.483761,55.7999992 64.0088889,55.7999992 C64.8057967,55.7999992 65.5193939,56.1566943 65.9987336,56.7191376 C66.9961899,56.2914061 68.0453638,55.9018547 69.1476753,55.5522075 C67.5617891,54.8956491 65.8232063,54.5333333 64,54.5333333 C62.8001234,54.5333333 61.6368983,54.6902571 60.5297282,54.9847013 Z M72.0706386,57.2186551 C70.0461021,57.7251264 68.2028081,58.3573844 66.5295219,59.1056911 C66.5033244,59.2012847 66.4718345,59.2946899 66.4353868,59.3855722 C69.2978617,62.2331859 71.3706094,65.7114765 72.4558615,69.916566 C73.1442796,70.1508884 73.7035647,70.6644132 73.9987705,71.3221937 C75.0163987,71.242048 76.0654278,71.1124537 77.1466759,70.9315206 C77.3561821,69.9877941 77.4666667,69.0067996 77.4666667,68 C77.4666667,63.5899956 75.3468723,59.6750956 72.0706386,57.2186551 Z M76.301912,73.4867371 C75.4688084,73.5998408 74.6524979,73.6836207 73.8528038,73.7388218 C73.6853163,74.0165363 73.4676307,74.2605635 73.2123121,74.4583383 C73.2996415,75.5093113 73.3344596,76.5980964 73.3145693,77.7257615 C74.5655964,76.5273039 75.5858302,75.0898439 76.3019094,73.4867429 Z M70.0710781,70.2811603 C69.0620078,66.5420906 67.1853246,63.4753257 64.610918,60.9569837 C64.4176419,61.0025542 64.2160812,61.0266659 64.0088889,61.0266659 C63.7205027,61.0266659 63.4430268,60.9799538 63.1836147,60.8936831 C60.9537595,62.3077494 59.1149758,63.9851757 57.6251032,65.8894174 C57.6912371,66.1192975 57.7266667,66.3621779 57.7266667,66.6133333 C57.7266667,66.7387175 57.7178366,66.8620392 57.7007643,66.9827107 C58.1496773,67.325565 58.6228302,67.6583435 59.1230705,67.9813157 C61.9917668,69.8334435 65.3388642,70.9959688 69.22682,71.324595 C69.4135296,70.9074365 69.7064043,70.5481697 70.0710781,70.2811603 Z M79.8666667,68 C79.8666667,76.762918 72.762918,83.8666667 64,83.8666667 C55.237082,83.8666667 48.1333333,76.762918 48.1333333,68 C48.1333333,59.237082 55.237082,52.1333333 64,52.1333333 C72.762918,52.1333333 79.8666667,59.237082 79.8666667,68 Z M46,58 L46,61.7142835 L31,68 L46,74.2857165 L46,78 L28,70.0097889 L28,65.9351484 L46,58 Z M82,58 L100,65.9351484 L100,70.0097889 L82,78 L82,74.2857165 L97,68 L82,61.7142835 L82,58 Z"/>
  </g>
</svg>
