<svg xmlns="http://www.w3.org/2000/svg" xmlns:xlink="http://www.w3.org/1999/xlink" width="24" height="24" viewBox="0 0 24 24">
  <defs>
    <polygon id="application-x-qet-project-b" points="0 0 16 0 16 20 0 20"/>
    <filter id="application-x-qet-project-a" width="125%" height="120%" x="-12.5%" y="-5%" filterUnits="objectBoundingBox">
      <feOffset dy="1" in="SourceAlpha" result="shadowOffsetOuter1"/>
      <feGaussianBlur in="shadowOffsetOuter1" result="shadowBlurOuter1" stdDeviation=".5"/>
      <feColorMatrix in="shadowBlurOuter1" values="0 0 0 0 0   0 0 0 0 0   0 0 0 0 0  0 0 0 0.2 0"/>
    </filter>
  </defs>
  <g fill="none" fill-rule="evenodd">
    <g transform="translate(4 2)">
      <use fill="#000" filter="url(#application-x-qet-project-a)" xlink:href="#application-x-qet-project-b"/>
      <use fill="#F9FBFB" xlink:href="#application-x-qet-project-b"/>
      <path fill="#000" fill-opacity=".2" fill-rule="nonzero" d="M17,-1.11111111 L-1,-1.11111111 L-1,21.1111111 L17,21.1111111 L17,-1.11111111 Z M16,-4.4408921e-16 L16,20 L0,20 L0,-4.4408921e-16 L16,-4.4408921e-16 Z"/>
    </g>
    <path fill="#2A4052" fill-opacity=".6" d="M10,9 L11,9 L11,7 L10,7 L10,9 Z M14,9 L15,9 L15,7 L14,7 L14,9 Z M13,9 L13,7 L12,7 L12,9 L13,9 Z M6,11 L8,11 L8,10 L6,10 L6,11 Z M9,16 L15,16 L15,10 L9,10 L9,16 Z M16,12 L18,12 L18,11 L16,11 L16,12 Z M6,13 L8,13 L8,12 L6,12 L6,13 Z M16,14 L18,14 L18,13 L16,13 L16,14 Z M6,15 L8,15 L8,14 L6,14 L6,15 Z M14,13 L14,15 L12,15 L14,13 Z M16,16 L18,16 L18,15 L16,15 L16,16 Z M9,19 L10,19 L10,17 L9,17 L9,19 Z M11,19 L12,19 L12,17 L11,17 L11,19 Z M13,19 L14,19 L14,17 L13,17 L13,19 Z"/>
  </g>
</svg>
