<svg xmlns="http://www.w3.org/2000/svg" xmlns:xlink="http://www.w3.org/1999/xlink" width="24" height="24" viewBox="0 0 24 24">
  <defs>
    <polygon id="application-x-flash-video-b" points="0 0 16 0 16 20 0 20"/>
    <filter id="application-x-flash-video-a" width="125%" height="120%" x="-12.5%" y="-5%" filterUnits="objectBoundingBox">
      <feOffset dy="1" in="SourceAlpha" result="shadowOffsetOuter1"/>
      <feGaussianBlur in="shadowOffsetOuter1" result="shadowBlurOuter1" stdDeviation=".5"/>
      <feColorMatrix in="shadowBlurOuter1" values="0 0 0 0 0   0 0 0 0 0   0 0 0 0 0  0 0 0 0.2 0"/>
    </filter>
  </defs>
  <g fill="none" fill-rule="evenodd">
    <g transform="translate(4 2)">
      <use fill="#000" filter="url(#application-x-flash-video-a)" xlink:href="#application-x-flash-video-b"/>
      <use fill="#F9FBFB" xlink:href="#application-x-flash-video-b"/>
      <path fill="#000" fill-opacity=".2" fill-rule="nonzero" d="M17,-1.11111111 L-1,-1.11111111 L-1,21.1111111 L17,21.1111111 L17,-1.11111111 Z M16,-4.4408921e-16 L16,20 L0,20 L0,-4.4408921e-16 L16,-4.4408921e-16 Z"/>
    </g>
    <path fill="#D96464" d="M17,9 C14.3913043,9.04241979 13.5,12.0415964 13.5,12 L16,12 L16,14 L13,14 C11.3108696,19.0876189 7,18.9911841 7,18.9911841 L7,17 C7,17 10.294112,17.1070095 11.3000002,12.5 C12.5,7.00395107 17,7.00395107 17,7.00395107 L17,9 Z"/>
  </g>
</svg>
