<svg xmlns="http://www.w3.org/2000/svg" xmlns:xlink="http://www.w3.org/1999/xlink" width="24" height="24" viewBox="0 0 24 24">
  <defs>
    <polygon id="application-vnd.wolfram.nb-b" points="0 0 16 0 16 20 0 20"/>
    <filter id="application-vnd.wolfram.nb-a" width="125%" height="120%" x="-12.5%" y="-5%" filterUnits="objectBoundingBox">
      <feOffset dy="1" in="SourceAlpha" result="shadowOffsetOuter1"/>
      <feGaussianBlur in="shadowOffsetOuter1" result="shadowBlurOuter1" stdDeviation=".5"/>
      <feColorMatrix in="shadowBlurOuter1" values="0 0 0 0 0   0 0 0 0 0   0 0 0 0 0  0 0 0 0.2 0"/>
    </filter>
  </defs>
  <g fill="none" fill-rule="evenodd">
    <g transform="translate(4 2)">
      <use fill="#000" filter="url(#application-vnd.wolfram.nb-a)" xlink:href="#application-vnd.wolfram.nb-b"/>
      <use fill="#F9FBFB" xlink:href="#application-vnd.wolfram.nb-b"/>
      <path fill="#000" fill-opacity=".2" fill-rule="nonzero" d="M17,-1.11111111 L-1,-1.11111111 L-1,21.1111111 L17,21.1111111 L17,-1.11111111 Z M16,-4.4408921e-16 L16,20 L0,20 L0,-4.4408921e-16 L16,-4.4408921e-16 Z"/>
    </g>
    <path fill="#2A4052" fill-opacity=".6" d="M8.4815102,7.15 C8.4815102,7.15 9.22885073,9.5578626 8.77265647,11.1016278 C8.31646047,12.6453929 6,14.3837893 6,14.3837893 C6,14.3837893 9.0286204,14.5485929 10.1784505,15.2834634 C11.3282805,16.0183331 12.4974607,18.85 12.4974611,18.85 C12.4974611,18.85 14.0500936,15.7300212 14.6996745,15.2834634 C15.3492542,14.8369056 19,14.379557 19,14.3795574 C19,14.3795574 16.3306558,11.8675908 16.1037759,11.1667968 C15.8768952,10.4659988 16.5193361,7.15169303 16.5193361,7.15169303 C16.5193361,7.15169303 14.1168889,8.775 12.4297528,8.775 C10.7426175,8.775 8.48151063,7.15 8.4815102,7.15 Z M14.3399741,10.1816407 C14.3025991,10.6299093 14.2120398,10.9492938 14.4550782,11.7 C14.7251103,12.5340839 15.0009283,12.6961124 15.3276694,13.082943 C15.3675144,13.1301166 15.416826,13.1767939 15.4580079,13.2242838 C15.3853036,13.2408675 15.3064617,13.2518265 15.2354167,13.2691407 C14.7357656,13.3909104 14.3910749,13.3920414 13.7179037,13.854818 C13.0446744,14.3176323 12.9177515,14.6497186 12.6396486,15.0667968 C12.6039333,15.1203615 12.5726622,15.1812154 12.5372398,15.236068 C12.191162,14.7302385 11.7623869,14.2383393 11.1119792,13.8226565 C10.6101553,13.5019343 10.1117648,13.324815 9.62154953,13.1870444 C9.947554,12.7315925 10.2482726,12.224046 10.4348958,11.592513 C10.5799598,11.1016165 10.5995218,10.6438696 10.616862,10.1917968 C11.1635753,10.3724313 11.7606302,10.5083333 12.4297528,10.5083333 C13.1310655,10.5083333 13.7655747,10.3735584 14.3399741,10.1816407 Z"/>
  </g>
</svg>
