<svg xmlns="http://www.w3.org/2000/svg" xmlns:xlink="http://www.w3.org/1999/xlink" width="24" height="24" viewBox="0 0 24 24">
  <defs>
    <polygon id="application-x-font-otf-b" points="0 0 16 0 16 20 0 20"/>
    <filter id="application-x-font-otf-a" width="125%" height="120%" x="-12.5%" y="-5%" filterUnits="objectBoundingBox">
      <feOffset dy="1" in="SourceAlpha" result="shadowOffsetOuter1"/>
      <feGaussianBlur in="shadowOffsetOuter1" result="shadowBlurOuter1" stdDeviation=".5"/>
      <feColorMatrix in="shadowBlurOuter1" values="0 0 0 0 0   0 0 0 0 0   0 0 0 0 0  0 0 0 0.2 0"/>
    </filter>
  </defs>
  <g fill="none" fill-rule="evenodd">
    <g transform="translate(4 2)">
      <use fill="#000" filter="url(#application-x-font-otf-a)" xlink:href="#application-x-font-otf-b"/>
      <use fill="#F9FBFB" xlink:href="#application-x-font-otf-b"/>
      <path fill="#000" fill-opacity=".2" fill-rule="nonzero" d="M17,-1.11111111 L-1,-1.11111111 L-1,21.1111111 L17,21.1111111 L17,-1.11111111 Z M16,-4.4408921e-16 L16,20 L0,20 L0,-4.4408921e-16 L16,-4.4408921e-16 Z"/>
    </g>
    <path fill="#2A4052" fill-opacity=".6" d="M19,14 L19,15 L18.5,15 C18,15 18,15.5 18,15.5 L18,15.5 L18,16 L19,16 L19,17 L18,17 L18,21 L17,21 L17,17 L16,17 L16,15.9853333 L17,16 L17,15.5 C17,14.5 17.5,14 18.5,14 L18.5,14 L19,14 Z M9.5,16 C10.3284271,16 11,16.8033365 11,17.7909921 L11,19.2090079 C11,20.1981455 10.3342028,21 9.5,21 C8.67157288,21 8,20.1966635 8,19.2090079 L8,17.7909921 C8,16.8018545 8.66579723,16 9.5,16 Z M14,14.6666667 L14,16.0013333 L15,16.0013333 L15,17 L14,17 L14,19.3333333 C14,19.8373333 14.2466667,20 14.6666667,20 L14.6666667,20 L15,20 L15,21 L14.6666667,21 C13.808,21 13,20.3786667 13,19.3333333 L13,19.3333333 L13,17 L12,17 L12,16.0013333 L13,16.0013333 L13,14.6666667 L14,14.6666667 Z M9.5,17 C9.03571429,17 9.00255102,17.4291716 9.00018222,17.8926213 L9,19 C9,19.499162 9,20 9.5,20 C10,20 10,19.5022625 10,19 L10,18 C10,17.500838 10,17 9.5,17 Z"/>
  </g>
</svg>
