<svg xmlns="http://www.w3.org/2000/svg" xmlns:xlink="http://www.w3.org/1999/xlink" width="24" height="24" viewBox="0 0 24 24">
  <defs>
    <polygon id="application-x-cda-b" points="0 0 16 0 16 20 0 20"/>
    <filter id="application-x-cda-a" width="125%" height="120%" x="-12.5%" y="-5%" filterUnits="objectBoundingBox">
      <feOffset dy="1" in="SourceAlpha" result="shadowOffsetOuter1"/>
      <feGaussianBlur in="shadowOffsetOuter1" result="shadowBlurOuter1" stdDeviation=".5"/>
      <feColorMatrix in="shadowBlurOuter1" values="0 0 0 0 0   0 0 0 0 0   0 0 0 0 0  0 0 0 0.2 0"/>
    </filter>
  </defs>
  <g fill="none" fill-rule="evenodd">
    <g transform="translate(4 2)">
      <use fill="#000" filter="url(#application-x-cda-a)" xlink:href="#application-x-cda-b"/>
      <use fill="#F9FBFB" xlink:href="#application-x-cda-b"/>
      <path fill="#000" fill-opacity=".2" fill-rule="nonzero" d="M17,-1.11111111 L-1,-1.11111111 L-1,21.1111111 L17,21.1111111 L17,-1.11111111 Z M16,-4.4408921e-16 L16,20 L0,20 L0,-4.4408921e-16 L16,-4.4408921e-16 Z"/>
    </g>
    <path fill="#7EAB68" d="M16.7091573,11.6666684 C16.8918239,11.6660017 17.0651573,11.8580017 17.0651573,12.0960017 L17.0651573,12.0960017 L17.0651573,12.2180017 C17.0651573,12.3966684 17.2238239,12.8113351 18.1018239,13.3586684 C18.1018239,13.3586684 19.2484906,13.9780017 19.5738239,15.0966684 C19.5738239,15.0966684 19.9311573,16.0946684 19.3484906,17.3540017 C19.3484906,17.3540017 19.2931573,17.4700017 19.1718239,17.4213351 C19.0758239,17.3826684 19.1084906,17.2606684 19.1084906,17.2606684 C19.1084906,17.2606684 19.5011573,16.2793351 19.1744906,15.4840017 C19.1744906,15.4840017 18.8731573,14.3913351 17.0111573,13.8953351 L17.0111573,13.8953351 L17.0110188,13.9580586 C17.0109734,13.9784459 17.0109171,14.0035395 17.0108506,14.0329491 L17.0103328,14.258075 C17.0102274,14.3031867 17.0101128,14.3518336 17.0099896,14.4036252 L17.0091515,14.7489872 C17.008374,15.0630299 17.0074083,15.4361683 17.0063226,15.8195988 L17.0049665,16.2815322 C17.0019226,17.279557 16.9982525,18.2151922 16.9951573,18.2306684 C16.9878239,18.8653351 16.4604906,19.5320017 15.6504906,19.8473351 C14.6618239,20.2320017 13.6284906,19.9473351 13.3418239,19.2120017 C13.0551573,18.4760017 13.6118239,17.5280017 14.6151573,17.1820017 C15.2964906,16.9473351 15.8918239,16.9640017 16.3531573,17.2033351 L16.3531573,17.2033351 L16.3651573,12.0986684 C16.3658239,11.8606684 16.5271573,11.6673351 16.7091573,11.6666684 Z M11,6.66666667 C13.4871948,6.66666667 15.6209239,8.18003323 16.5305919,10.336171 C16.5003407,10.3341846 16.4697494,10.3332289 16.4388413,10.3333417 C15.6523157,10.3362228 15.0020828,10.9231132 15,11.6666667 L14.9999264,11.6827211 L14.9999264,11.6827211 L14.9993887,11.8038409 C14.9979877,12.125743 14.994532,12.9640299 14.9927886,13.777727 L14.9920301,14.2158716 C14.9919395,14.2874054 14.9918688,14.3579231 14.9918207,14.4270182 L14.9918263,14.8212671 C14.9922565,15.3155007 14.9944981,15.6666667 15,15.6666667 C14.6462499,15.6830011 14.3960659,15.7746308 14.0228423,15.9031775 C12.7829207,16.330765 11.9373101,17.4484239 12.0002864,18.5836602 C11.6749877,18.6382512 11.3408122,18.6666667 11,18.6666667 C7.6862915,18.6666667 5,15.9803752 5,12.6666667 C5,9.35295817 7.6862915,6.66666667 11,6.66666667 Z M11,10 C9.52724067,10 8.33333333,11.1939073 8.33333333,12.6666667 C8.33333333,14.139426 9.52724067,15.3333333 11,15.3333333 C12.4727593,15.3333333 13.6666667,14.139426 13.6666667,12.6666667 C13.6666667,11.1939073 12.4727593,10 11,10 Z M11,10.6666667 C12.1045695,10.6666667 13,11.5620972 13,12.6666667 C13,13.7712362 12.1045695,14.6666667 11,14.6666667 C9.8954305,14.6666667 9,13.7712362 9,12.6666667 C9,11.5620972 9.8954305,10.6666667 11,10.6666667 Z M11,11.3333333 C10.2636203,11.3333333 9.66666667,11.930287 9.66666667,12.6666667 C9.66666667,13.4030463 10.2636203,14 11,14 C11.7363797,14 12.3333333,13.4030463 12.3333333,12.6666667 C12.3333333,11.930287 11.7363797,11.3333333 11,11.3333333 Z M11,8 C8.42267117,8 6.33333333,10.0893378 6.33333333,12.6666667 C6.33333333,12.8507616 6.48257175,13 6.66666667,13 C6.85076158,13 7,12.8507616 7,12.6666667 C7,10.4575277 8.790861,8.66666667 11,8.66666667 C11.1840949,8.66666667 11.3333333,8.51742825 11.3333333,8.33333333 C11.3333333,8.14923842 11.1840949,8 11,8 Z"/>
  </g>
</svg>
