<svg xmlns="http://www.w3.org/2000/svg" xmlns:xlink="http://www.w3.org/1999/xlink" width="24" height="24" viewBox="0 0 24 24">
  <defs>
    <polygon id="application-wps-office.dotx-b" points="0 0 16 0 16 20 0 20"/>
    <filter id="application-wps-office.dotx-a" width="125%" height="120%" x="-12.5%" y="-5%" filterUnits="objectBoundingBox">
      <feOffset dy="1" in="SourceAlpha" result="shadowOffsetOuter1"/>
      <feGaussianBlur in="shadowOffsetOuter1" result="shadowBlurOuter1" stdDeviation=".5"/>
      <feColorMatrix in="shadowBlurOuter1" values="0 0 0 0 0   0 0 0 0 0   0 0 0 0 0  0 0 0 0.2 0"/>
    </filter>
    <filter id="application-wps-office.dotx-c">
      <feColorMatrix in="SourceGraphic" values="0 0 0 0 0.295629 0 0 0 0 0.454809 0 0 0 0 0.684216 0 0 0 1.000000 0"/>
    </filter>
  </defs>
  <g fill="none" fill-rule="evenodd">
    <g transform="translate(4 2)">
      <use fill="#000" filter="url(#application-wps-office.dotx-a)" xlink:href="#application-wps-office.dotx-b"/>
      <use fill="#F9FBFB" xlink:href="#application-wps-office.dotx-b"/>
      <path fill="#000" fill-opacity=".2" fill-rule="nonzero" d="M17,-1.11111111 L-1,-1.11111111 L-1,21.1111111 L17,21.1111111 L17,-1.11111111 Z M16,-4.4408921e-16 L16,20 L0,20 L0,-4.4408921e-16 L16,-4.4408921e-16 Z"/>
    </g>
    <g filter="url(#application-wps-office.dotx-c)">
      <g transform="translate(6 6.667)">
        <line x1=".5" x2="11.5" y1="2.833" y2="2.833" stroke="#FFF" stroke-linejoin="round"/>
        <line x1="2.5" x2="2.5" y1=".833" y2="11.833" stroke="#FFF" stroke-linejoin="round"/>
        <line x1="9.5" x2="9.5" y1=".833" y2="4.833" stroke="#FFF" stroke-linejoin="round"/>
        <line x1=".5" x2="4.5" y1="9.833" y2="9.833" stroke="#FFF" stroke-linejoin="round"/>
        <polygon fill="#FFF" points="6 10.833 6 6.833 8.996 5.333 11 6.333 11 11.333 9 12.333 6 10.833 8.996 10.833 8.996 6.833 7 7.333 7 10.333"/>
      </g>
    </g>
  </g>
</svg>
