<svg xmlns="http://www.w3.org/2000/svg" xmlns:xlink="http://www.w3.org/1999/xlink" width="24" height="24" viewBox="0 0 24 24">
  <defs>
    <polygon id="application-x-fusioncomp-b" points="0 0 16 0 16 20 0 20"/>
    <filter id="application-x-fusioncomp-a" width="125%" height="120%" x="-12.5%" y="-5%" filterUnits="objectBoundingBox">
      <feOffset dy="1" in="SourceAlpha" result="shadowOffsetOuter1"/>
      <feGaussianBlur in="shadowOffsetOuter1" result="shadowBlurOuter1" stdDeviation=".5"/>
      <feColorMatrix in="shadowBlurOuter1" values="0 0 0 0 0   0 0 0 0 0   0 0 0 0 0  0 0 0 0.2 0"/>
    </filter>
  </defs>
  <g fill="none" fill-rule="evenodd">
    <g transform="translate(4 2)">
      <use fill="#000" filter="url(#application-x-fusioncomp-a)" xlink:href="#application-x-fusioncomp-b"/>
      <use fill="#F9FBFB" xlink:href="#application-x-fusioncomp-b"/>
      <path fill="#000" fill-opacity=".2" fill-rule="nonzero" d="M17,-1.11111111 L-1,-1.11111111 L-1,21.1111111 L17,21.1111111 L17,-1.11111111 Z M16,-4.4408921e-16 L16,20 L0,20 L0,-4.4408921e-16 L16,-4.4408921e-16 Z"/>
    </g>
    <path fill="#2A4052" fill-opacity=".6" d="M12.1539613,15.4391772 C12.0791085,15.443806 12.0044605,15.4564552 11.9319703,15.4758781 C11.6420107,15.5535724 11.3865545,15.7502962 11.2364598,16.0102667 C11.0863656,16.2702381 11.0441898,16.590366 11.121884,16.8803265 C11.1995783,17.1702865 11.3963021,17.4257423 11.6562726,17.575837 C11.9162441,17.7259312 12.2363724,17.768107 12.5263329,17.6904127 C12.8162925,17.6127185 13.0717487,17.4159947 13.2218434,17.1560241 C13.3719376,16.8960527 13.4141134,16.5759248 13.3364191,16.2859643 C13.2587249,15.9960034 13.0620011,15.7405476 12.8020305,15.5904529 C12.607052,15.4778822 12.3785187,15.4252901 12.1539613,15.4391772 L12.1539613,15.4391772 Z M15.3772996,10.8550997 C15.0488228,10.8641008 14.7222173,10.9690847 14.4562178,11.162127 C14.1477552,11.3859855 13.9288303,11.7081977 13.6882024,12.0035424 C13.5678883,12.1512154 13.4401546,12.2938897 13.2925577,12.4144041 C13.1449612,12.5349186 12.9763699,12.633676 12.7921844,12.6829408 C12.6079988,12.7322061 12.4128616,12.7306533 12.2246756,12.6999484 C12.036489,12.6692513 11.8541275,12.6093497 11.6759655,12.5415117 C11.3196413,12.4058366 10.969446,12.2359034 10.5901811,12.1959939 C10.0668935,12.1409288 9.52215504,12.3578825 9.1803623,12.7572363 C8.83857002,13.1565905 8.70939916,13.7277281 8.84558664,14.2350842 C8.98177366,14.7424412 9.3789459,15.1715695 9.87497775,15.3468268 C10.3710105,15.5220842 10.9513949,15.4381795 11.3769943,15.1293121 C11.6854569,14.9054536 11.9043818,14.5832414 12.1450097,14.2878967 C12.2653234,14.1402237 12.3930584,13.9975494 12.5406548,13.877035 C12.6882513,13.7565206 12.8568427,13.6577636 13.0410282,13.6084983 C13.2252138,13.5592335 13.4203505,13.5607862 13.6085365,13.5914907 C13.7967231,13.6221924 13.9790841,13.6820894 14.1572466,13.7499274 C14.5135703,13.885603 14.8637661,14.0555357 15.243031,14.0954452 C15.7663181,14.1505099 16.3110571,13.933557 16.6528498,13.5342028 C16.9946425,13.1348491 17.1238129,12.563711 16.9876255,12.0563549 C16.851438,11.5489979 16.4542671,11.1198696 15.9582344,10.9446123 C15.772222,10.8788907 15.5743854,10.8497 15.3772996,10.8550997 L15.3772996,10.8550997 Z M15.2806261,6.27222259 C14.8426575,6.28392306 14.4071831,6.42049322 14.0525175,6.67144756 C13.6412337,6.96246399 13.3502287,7.38223514 13.0293919,7.76618305 C12.8689735,7.958157 12.6980645,8.14300709 12.5012692,8.29967613 C12.3044739,8.45634516 12.0799834,8.58383451 11.8344022,8.64787914 C11.5888214,8.71192332 11.328938,8.71106446 11.0780231,8.67115177 C10.8271077,8.63123816 10.583362,8.55346232 10.3458126,8.46527337 C9.8707137,8.28889501 9.40319013,8.06780369 8.89750366,8.01592196 C8.19978734,7.94433779 7.47346832,8.22628715 7.01774513,8.74544727 C6.56202194,9.26460692 6.38949608,10.0068176 6.57107893,10.6663811 C6.75266177,11.3259442 7.28371576,11.8841705 7.94509279,12.1120048 C8.60646936,12.3398396 9.38001741,12.2306727 9.94748266,11.8291457 C10.358767,11.5381297 10.6497715,11.1183581 10.9706083,10.7344102 C11.1310267,10.5424363 11.3019357,10.3575862 11.498731,10.2009172 C11.6955258,10.0442481 11.9200168,9.91675831 12.1655976,9.85271413 C12.4111783,9.7886695 12.6710622,9.78952836 12.9219771,9.82944151 C13.1728925,9.86935511 13.4166382,9.9471305 13.6541876,10.0353199 C14.129287,10.2116978 14.5968101,10.4327896 15.1024965,10.4846713 C15.8002129,10.5562555 16.5265314,10.2743066 16.9822551,9.75514601 C17.4379783,9.23598636 17.6105037,8.49377569 17.4289213,7.83421217 C17.247338,7.1746491 16.716284,6.61642279 16.0549074,6.38858846 C15.8068913,6.3031507 15.5434074,6.26520276 15.2806261,6.27222259 L15.2806261,6.27222259 Z"/>
  </g>
</svg>
