<svg xmlns="http://www.w3.org/2000/svg" xmlns:xlink="http://www.w3.org/1999/xlink" width="24" height="24" viewBox="0 0 24 24">
  <defs>
    <polygon id="application-x-rar-b" points="0 0 16 0 16 20 0 20"/>
    <filter id="application-x-rar-a" width="125%" height="120%" x="-12.5%" y="-5%" filterUnits="objectBoundingBox">
      <feOffset dy="1" in="SourceAlpha" result="shadowOffsetOuter1"/>
      <feGaussianBlur in="shadowOffsetOuter1" result="shadowBlurOuter1" stdDeviation=".5"/>
      <feColorMatrix in="shadowBlurOuter1" values="0 0 0 0 0   0 0 0 0 0   0 0 0 0 0  0 0 0 0.2 0"/>
    </filter>
  </defs>
  <g fill="none" fill-rule="evenodd">
    <g transform="translate(4 2)">
      <use fill="#000" filter="url(#application-x-rar-a)" xlink:href="#application-x-rar-b"/>
      <use fill="#F9FBFB" xlink:href="#application-x-rar-b"/>
      <path fill="#000" fill-opacity=".2" fill-rule="nonzero" d="M17,-1.11111111 L-1,-1.11111111 L-1,21.1111111 L17,21.1111111 L17,-1.11111111 Z M16,-4.4408921e-16 L16,20 L0,20 L0,-4.4408921e-16 L16,-4.4408921e-16 Z"/>
    </g>
    <path fill="#9C80E0" d="M9.16666667,21 L7.38888889,19 L7,19 L7,21 L6,21 L6,16 L8.50468445,16 C9.33052442,16 10,16.6657972 10,17.5 C10,18.2581275 9.43293305,18.8848923 8.70960569,18.9858064 L8.70960569,18.9858064 L10.155,20.612 L12,16 L13,16 L15,21 L14,21 L13.625,20 L11.375,20 L11,21 L9.16666667,21 Z M17.5046844,16 C18.3305244,16 19,16.6657972 19,17.5 C19,18.2581275 18.4329331,18.8848923 17.7096057,18.9858064 L17.7096057,18.9858064 L19.5,21 L18.1666667,21 L16.3888889,19 L16,19 L16,21 L15,21 L15,16 Z M12.5,17 L11.75,19 L13.25,19 L12.5,17 Z M17.4953156,17 L16,17 L16,18 L17.4953156,18 C17.785965,18 18,17.7761424 18,17.5 C18,17.2319336 17.7740451,17 17.4953156,17 L17.4953156,17 Z M8.49531555,17 L7,17 L7,18 L8.49531555,18 C8.78596497,18 9,17.7761424 9,17.5 C9,17.2319336 8.77404508,17 8.49531555,17 L8.49531555,17 Z M14.625,9 C14.8321068,9 15,9.16789322 15,9.375 L15,13.625 C15,13.8321068 14.8321068,14 14.625,14 L9.375,14 C9.16789322,14 9,13.8321068 9,13.625 L9,9.375 C9,9.16789322 9.16789322,9 9.375,9 L14.625,9 Z M8,10 L8,13 L4,13 L4,10 L8,10 Z M20,10 L20,13 L16,13 L16,10 L20,10 Z M14,10 L10,10 L10,11 L13,11 L13,12 L10,12 L10,13 L14,13 L14,10 Z"/>
  </g>
</svg>
