<svg xmlns="http://www.w3.org/2000/svg" xmlns:xlink="http://www.w3.org/1999/xlink" width="24" height="24" viewBox="0 0 24 24">
  <defs>
    <polygon id="application-x-emerald-theme-b" points="0 0 16 0 16 20 0 20"/>
    <filter id="application-x-emerald-theme-a" width="125%" height="120%" x="-12.5%" y="-5%" filterUnits="objectBoundingBox">
      <feOffset dy="1" in="SourceAlpha" result="shadowOffsetOuter1"/>
      <feGaussianBlur in="shadowOffsetOuter1" result="shadowBlurOuter1" stdDeviation=".5"/>
      <feColorMatrix in="shadowBlurOuter1" values="0 0 0 0 0   0 0 0 0 0   0 0 0 0 0  0 0 0 0.2 0"/>
    </filter>
  </defs>
  <g fill="none" fill-rule="evenodd">
    <g transform="translate(4 2)">
      <use fill="#000" filter="url(#application-x-emerald-theme-a)" xlink:href="#application-x-emerald-theme-b"/>
      <use fill="#F9FBFB" xlink:href="#application-x-emerald-theme-b"/>
      <path fill="#000" fill-opacity=".2" fill-rule="nonzero" d="M17,-1.11111111 L-1,-1.11111111 L-1,21.1111111 L17,21.1111111 L17,-1.11111111 Z M16,-4.4408921e-16 L16,20 L0,20 L0,-4.4408921e-16 L16,-4.4408921e-16 Z"/>
    </g>
    <path fill="#8DB479" d="M18,11 L12.6666667,18 L15.3333333,11 L18,11 Z M8.98177083,11 L11.6666667,18 L6,11 L8.98177083,11 Z M14.5046794,11 L12.1666667,17.6666667 L9.8758138,11 L14.5046794,11 Z M11.3333333,7 L8.98177083,10.3 L6,10.3 L8.83333333,7 L11.3333333,7 Z M12.1666667,7 L14.5046794,10.3 L9.8758138,10.3 L12.1666667,7 Z M15.1666667,7 L18,10.3 L15.3333333,10.3 L12.9390462,7 L15.1666667,7 Z"/>
  </g>
</svg>
