<svg xmlns="http://www.w3.org/2000/svg" xmlns:xlink="http://www.w3.org/1999/xlink" width="24" height="24" viewBox="0 0 24 24">
  <defs>
    <polygon id="application-x-ace-b" points="0 0 16 0 16 20 0 20"/>
    <filter id="application-x-ace-a" width="125%" height="120%" x="-12.5%" y="-5%" filterUnits="objectBoundingBox">
      <feOffset dy="1" in="SourceAlpha" result="shadowOffsetOuter1"/>
      <feGaussianBlur in="shadowOffsetOuter1" result="shadowBlurOuter1" stdDeviation=".5"/>
      <feColorMatrix in="shadowBlurOuter1" values="0 0 0 0 0   0 0 0 0 0   0 0 0 0 0  0 0 0 0.2 0"/>
    </filter>
  </defs>
  <g fill="none" fill-rule="evenodd">
    <g transform="translate(4 2)">
      <use fill="#000" filter="url(#application-x-ace-a)" xlink:href="#application-x-ace-b"/>
      <use fill="#F9FBFB" xlink:href="#application-x-ace-b"/>
      <path fill="#000" fill-opacity=".2" fill-rule="nonzero" d="M17,-1.11111111 L-1,-1.11111111 L-1,21.1111111 L17,21.1111111 L17,-1.11111111 Z M16,-4.4408921e-16 L16,20 L0,20 L0,-4.4408921e-16 L16,-4.4408921e-16 Z"/>
    </g>
    <path fill="#389461" d="M19.0000001,16 L19.0000001,17 L17.0000001,17 L17,18 L17.9999999,18 L18,19 L17.0000001,19 L17,20 L19.0000001,20 L19.0000001,21 L16,21 L16,20 L16.0000001,16 L19.0000001,16 Z M13.2460586,16 C13.8965186,16 14.4823984,16.3077618 14.8925738,16.7995973 L15,16.9382052 L14.252482,17.6038316 C14.0245819,17.2373191 13.6603863,17 13.25,17 C12.5596441,17 12,17.6715729 12,18.5 C12,19.3284271 12.5596441,20 13.25,20 C13.6147878,20 13.9430793,19.8124886 14.1715909,19.5134059 L14.252482,19.3961684 L15,20.0617948 C14.5883883,20.633738 13.9556513,21 13.2460586,21 C12.0055947,21 11,19.8807119 11,18.5 C11,17.1192881 12.0055947,16 13.2460586,16 Z M9,16 L11,21 L10,21 L9.625,20 L7.375,20 L7,21 L6,21 L8,16 L9,16 Z M8.5,17 L7.75,19 L9.25,19 L8.5,17 Z M14.625,9 C14.8321068,9 15,9.16789322 15,9.375 L15,13.625 C15,13.8321068 14.8321068,14 14.625,14 L9.375,14 C9.16789322,14 9,13.8321068 9,13.625 L9,9.375 C9,9.16789322 9.16789322,9 9.375,9 L14.625,9 Z M8,10 L8,13 L4,13 L4,10 L8,10 Z M20,10 L20,13 L16,13 L16,10 L20,10 Z M14,10 L10,10 L10,11 L13,11 L13,12 L10,12 L10,13 L14,13 L14,10 Z"/>
  </g>
</svg>
