<svg xmlns="http://www.w3.org/2000/svg" xmlns:xlink="http://www.w3.org/1999/xlink" width="24" height="24" viewBox="0 0 24 24">
  <defs>
    <polygon id="application-x-remote-connection-b" points="0 0 16 0 16 20 0 20"/>
    <filter id="application-x-remote-connection-a" width="125%" height="120%" x="-12.5%" y="-5%" filterUnits="objectBoundingBox">
      <feOffset dy="1" in="SourceAlpha" result="shadowOffsetOuter1"/>
      <feGaussianBlur in="shadowOffsetOuter1" result="shadowBlurOuter1" stdDeviation=".5"/>
      <feColorMatrix in="shadowBlurOuter1" values="0 0 0 0 0   0 0 0 0 0   0 0 0 0 0  0 0 0 0.2 0"/>
    </filter>
  </defs>
  <g fill="none" fill-rule="evenodd">
    <g transform="translate(4 2)">
      <use fill="#000" filter="url(#application-x-remote-connection-a)" xlink:href="#application-x-remote-connection-b"/>
      <use fill="#F9FBFB" xlink:href="#application-x-remote-connection-b"/>
      <path fill="#000" fill-opacity=".2" fill-rule="nonzero" d="M17,-1.11111111 L-1,-1.11111111 L-1,21.1111111 L17,21.1111111 L17,-1.11111111 Z M16,-4.4408921e-16 L16,20 L0,20 L0,-4.4408921e-16 L16,-4.4408921e-16 Z"/>
    </g>
    <path fill="#2A4052" fill-opacity=".6" d="M17.625,8 C17.8321068,8 18,8.16789322 18,8.375 L18,16.625 C18,16.8321068 17.8321068,17 17.625,17 L6.375,17 C6.16789322,17 6,16.8321068 6,16.625 L6,8.375 C6,8.16789322 6.16789322,8 6.375,8 L17.625,8 Z M17,9 L7,9 L7,16 L17,16 L17,9 Z M16,10 L16,14 L14,14 L14,15 L10,15 L10,14 L8,14 L8,10 L16,10 Z M15,11 L9,11 L9,13 L15,13 L15,11 Z"/>
  </g>
</svg>
