<svg xmlns="http://www.w3.org/2000/svg" xmlns:xlink="http://www.w3.org/1999/xlink" width="24" height="24" viewBox="0 0 24 24">
  <defs>
    <polygon id="application-pgp-keys-b" points="0 0 16 0 16 20 0 20"/>
    <filter id="application-pgp-keys-a" width="125%" height="120%" x="-12.5%" y="-5%" filterUnits="objectBoundingBox">
      <feOffset dy="1" in="SourceAlpha" result="shadowOffsetOuter1"/>
      <feGaussianBlur in="shadowOffsetOuter1" result="shadowBlurOuter1" stdDeviation=".5"/>
      <feColorMatrix in="shadowBlurOuter1" values="0 0 0 0 0   0 0 0 0 0   0 0 0 0 0  0 0 0 0.2 0"/>
    </filter>
  </defs>
  <g fill="none" fill-rule="evenodd">
    <g transform="translate(4 2)">
      <use fill="#000" filter="url(#application-pgp-keys-a)" xlink:href="#application-pgp-keys-b"/>
      <use fill="#F9FBFB" xlink:href="#application-pgp-keys-b"/>
      <path fill="#000" fill-opacity=".2" fill-rule="nonzero" d="M17,-1.11111111 L-1,-1.11111111 L-1,21.1111111 L17,21.1111111 L17,-1.11111111 Z M16,-4.4408921e-16 L16,20 L0,20 L0,-4.4408921e-16 L16,-4.4408921e-16 Z"/>
    </g>
    <path fill="#DA9F59" d="M17.6735206,12.4725714 C18.1325214,11.9300704 18.1045213,11.133069 17.6100205,10.6385681 L15.3605165,8.39006418 C14.8660156,7.89556331 14.0680142,7.86756326 13.5250133,8.32706407 L10.4900079,10.7270683 C9.87900684,11.2440692 9.83250676,12.1680708 10.3900077,12.7250718 L13.2755128,15.6095769 C13.8335138,16.1675779 14.7580154,16.1210778 15.2755164,15.5090767 L17.6735206,12.4725714 L17.6735206,12.4725714 Z M14.6445152,9.10556544 L16.8940192,11.3545694 C17.0155194,11.4755696 17.0175194,11.68007 16.9000192,11.8195702 L16.4545184,12.3470712 L13.6525135,9.54556622 L14.1800144,9.09956543 C14.3185147,8.98156522 14.523015,8.98456523 14.6445152,9.10556544 L14.6445152,9.10556544 Z M12.1865109,15.9345775 L8.12150374,20.0000847 L6.70750125,20.0000847 L6.35400062,19.646584 L10.0000071,16.0000776 L9.64650643,15.646577 L6.0005,19.2930834 L6,17.8790809 L10.0650072,13.8140737 L12.1865109,15.9345775 L12.1865109,15.9345775 Z"/>
  </g>
</svg>
