<svg xmlns="http://www.w3.org/2000/svg" xmlns:xlink="http://www.w3.org/1999/xlink" width="24" height="24" viewBox="0 0 24 24">
  <defs>
    <polygon id="application-x-ipynb+json-b" points="0 0 16 0 16 20 0 20"/>
    <filter id="application-x-ipynb+json-a" width="125%" height="120%" x="-12.5%" y="-5%" filterUnits="objectBoundingBox">
      <feOffset dy="1" in="SourceAlpha" result="shadowOffsetOuter1"/>
      <feGaussianBlur in="shadowOffsetOuter1" result="shadowBlurOuter1" stdDeviation=".5"/>
      <feColorMatrix in="shadowBlurOuter1" values="0 0 0 0 0   0 0 0 0 0   0 0 0 0 0  0 0 0 0.2 0"/>
    </filter>
  </defs>
  <g fill="none" fill-rule="evenodd">
    <g transform="translate(4 2)">
      <use fill="#000" filter="url(#application-x-ipynb+json-a)" xlink:href="#application-x-ipynb+json-b"/>
      <use fill="#F9FBFB" xlink:href="#application-x-ipynb+json-b"/>
      <path fill="#000" fill-opacity=".2" fill-rule="nonzero" d="M17,-1.11111111 L-1,-1.11111111 L-1,21.1111111 L17,21.1111111 L17,-1.11111111 Z M16,-4.4408921e-16 L16,20 L0,20 L0,-4.4408921e-16 L16,-4.4408921e-16 Z"/>
    </g>
    <path fill="#2A4052" fill-opacity=".6" d="M9,7 L9,8 L8,8 L8,15.999 L9,15.9999995 L9,16.9999995 L8,16.999 L8,17 L7,17 L7,7 L9,7 Z M16,7 L16,17 L15,17 L15,16.999 L14,16.9999995 L14,15.9999995 L15,15.999 L15,8 L14,8 L14,7 L16,7 Z"/>
    <g stroke="#2A4052" opacity=".595" transform="translate(9.516 8.375)">
      <line x2="2.273" y1=".742" y2="5.451"/>
      <path d="M4.06142501,0.741882137 C4.06142501,0.741882137 2.25634723,7.12412144 0.902538892,7.12412144 L0.483628764,7.12412144"/>
    </g>
    <path fill="#2A4052" fill-opacity=".6" d="M18 14.5C18 14.7761423 17.7761426 15 17.5 15 17.2238577 15 17 14.7761423 17 14.5 17 14.2238575 17.2238578 14 17.5 14 17.7761425 14 18 14.2238575 18 14.5zM18 16.5C18 16.7761423 17.7761426 17 17.5 17 17.2238577 17 17 16.7761423 17 16.5 17 16.2238575 17.2238578 16 17.5 16 17.7761425 16 18 16.2238575 18 16.5z"/>
  </g>
</svg>
