<svg xmlns="http://www.w3.org/2000/svg" xmlns:xlink="http://www.w3.org/1999/xlink" width="24" height="24" viewBox="0 0 24 24">
  <defs>
    <polygon id="audio-x-wav-b" points="0 0 16 0 16 20 0 20"/>
    <filter id="audio-x-wav-a" width="125%" height="120%" x="-12.5%" y="-5%" filterUnits="objectBoundingBox">
      <feOffset dy="1" in="SourceAlpha" result="shadowOffsetOuter1"/>
      <feGaussianBlur in="shadowOffsetOuter1" result="shadowBlurOuter1" stdDeviation=".5"/>
      <feColorMatrix in="shadowBlurOuter1" values="0 0 0 0 0   0 0 0 0 0   0 0 0 0 0  0 0 0 0.2 0"/>
    </filter>
  </defs>
  <g fill="none" fill-rule="evenodd">
    <g transform="translate(4 2)">
      <use fill="#000" filter="url(#audio-x-wav-a)" xlink:href="#audio-x-wav-b"/>
      <use fill="#F9FBFB" xlink:href="#audio-x-wav-b"/>
      <path fill="#000" fill-opacity=".2" fill-rule="nonzero" d="M17,-1.11111111 L-1,-1.11111111 L-1,21.1111111 L17,21.1111111 L17,-1.11111111 Z M16,-4.4408921e-16 L16,20 L0,20 L0,-4.4408921e-16 L16,-4.4408921e-16 Z"/>
    </g>
    <path fill="#7EAB68" d="M5.89999962,15 L7,18.5 L7.69999981,15 L8.69999981,15 L9.39999962,18.5 L10.5,15 L11.3999996,15 L9.69999981,20 L8.80000019,20 L8.19999981,17 L7.59999943,20 L6.69999981,20 L5,15 L5.89999962,15 Z M13.6999998,15 L15.6999998,20 L14.6999998,20 L14.3249998,19 L12.0749998,19 L11.6999998,20 L10.6999998,20 L12.6999998,15 L13.6999998,15 Z M15.6999998,15 L17.1999998,19 L18.6999998,15 L19.6999998,15 L17.6999998,20 L16.6999998,20 L14.6999998,15 L15.6999998,15 Z M13.1999998,16 L12.4499998,18 L13.9499998,18 L13.1999998,16 Z"/>
  </g>
</svg>
