<svg xmlns="http://www.w3.org/2000/svg" xmlns:xlink="http://www.w3.org/1999/xlink" width="24" height="24" viewBox="0 0 24 24">
  <defs>
    <polygon id="audio-x-mpeg-b" points="0 0 16 0 16 20 0 20"/>
    <filter id="audio-x-mpeg-a" width="125%" height="120%" x="-12.5%" y="-5%" filterUnits="objectBoundingBox">
      <feOffset dy="1" in="SourceAlpha" result="shadowOffsetOuter1"/>
      <feGaussianBlur in="shadowOffsetOuter1" result="shadowBlurOuter1" stdDeviation=".5"/>
      <feColorMatrix in="shadowBlurOuter1" values="0 0 0 0 0   0 0 0 0 0   0 0 0 0 0  0 0 0 0.2 0"/>
    </filter>
  </defs>
  <g fill="none" fill-rule="evenodd">
    <g transform="translate(4 2)">
      <use fill="#000" filter="url(#audio-x-mpeg-a)" xlink:href="#audio-x-mpeg-b"/>
      <use fill="#F9FBFB" xlink:href="#audio-x-mpeg-b"/>
      <path fill="#000" fill-opacity=".2" fill-rule="nonzero" d="M17,-1.11111111 L-1,-1.11111111 L-1,21.1111111 L17,21.1111111 L17,-1.11111111 Z M16,-4.4408921e-16 L16,20 L0,20 L0,-4.4408921e-16 L16,-4.4408921e-16 Z"/>
    </g>
    <path fill="#7EAB68" d="M13.5046844,15 C14.3305244,15 15,15.6657972 15,16.5 C15,17.2581275 14.4329331,17.8848923 13.7096057,17.9858064 L13.7096057,17.9858064 L12,18 L12,20 L11,20 L11,15 Z M17.1841904,15 C17.6008592,15 17.9685025,15.1118249 18.2871316,15.3354779 C18.6057606,15.559131 18.7650728,15.8823508 18.7650728,16.3051471 C18.7650728,16.7647082 18.5383593,17.1017146 18.0849257,17.3161765 C18.3667899,17.4080887 18.5904396,17.5689327 18.7558816,17.7987132 C18.9213236,18.0284938 19.0040434,18.287376 19.0040434,18.5753676 C19.0040434,18.9920364 18.8340083,19.3336384 18.4939331,19.6001838 C18.1538578,19.8667293 17.7111539,20 17.1658081,20 C16.693992,20 16.2849887,19.8820477 15.938786,19.6461397 C15.5925833,19.4102317 15.3796565,19.0992666 15.2999992,18.7132353 L16.4397051,18.5018382 C16.4703425,18.6795352 16.5515304,18.8265926 16.6832713,18.9430147 C16.8150122,19.0594369 16.9758561,19.1176471 17.1658081,19.1176471 C17.343505,19.1176471 17.4920942,19.0625006 17.6115801,18.9522059 C17.731066,18.8419112 17.7908081,18.6948539 17.7908081,18.5110294 C17.7908081,18.2965676 17.7234068,18.1265325 17.5886022,18.0009191 C17.4537976,17.8753057 17.2515937,17.8125 16.9819845,17.8125 L16.8073522,17.8216912 L16.8992639,17.0036765 L17.0187492,17.0036765 C17.1780638,17.0036765 17.3098026,16.9531255 17.4139698,16.8520221 C17.518137,16.7509186 17.5702198,16.6176479 17.5702198,16.4522059 C17.5702198,16.3296563 17.5334555,16.2178314 17.4599257,16.1167279 C17.3863959,16.0156245 17.2791666,15.9650735 17.1382345,15.9650735 C16.8992627,15.9650735 16.7307595,16.0814939 16.6327198,16.3143382 L15.4930139,16.1305147 C15.7626231,15.3768345 16.326343,15 17.1841904,15 Z M6,15 L7.5,18 L9,15 L10,15 L10,20 L9,20 L9,17 L8,19 L7,19 L6,17 L6,20 L5,20 L5,15 L6,15 Z M13.4953156,16 L12,16 L12,17 L13.4953156,17 C13.785965,17 14,16.7761424 14,16.5 C14,16.2319336 13.7740451,16 13.4953156,16 L13.4953156,16 Z"/>
  </g>
</svg>
