<svg xmlns="http://www.w3.org/2000/svg" xmlns:xlink="http://www.w3.org/1999/xlink" width="24" height="24" viewBox="0 0 24 24">
  <defs>
    <polygon id="image-bmp-b" points="0 0 16 0 16 20 0 20"/>
    <filter id="image-bmp-a" width="125%" height="120%" x="-12.5%" y="-5%" filterUnits="objectBoundingBox">
      <feOffset dy="1" in="SourceAlpha" result="shadowOffsetOuter1"/>
      <feGaussianBlur in="shadowOffsetOuter1" result="shadowBlurOuter1" stdDeviation=".5"/>
      <feColorMatrix in="shadowBlurOuter1" values="0 0 0 0 0   0 0 0 0 0   0 0 0 0 0  0 0 0 0.2 0"/>
    </filter>
  </defs>
  <g fill="none" fill-rule="evenodd">
    <g transform="translate(4 2)">
      <use fill="#000" filter="url(#image-bmp-a)" xlink:href="#image-bmp-b"/>
      <use fill="#F9FBFB" xlink:href="#image-bmp-b"/>
      <path fill="#000" fill-opacity=".2" fill-rule="nonzero" d="M17,-1.11111111 L-1,-1.11111111 L-1,21.1111111 L17,21.1111111 L17,-1.11111111 Z M16,-4.4408921e-16 L16,20 L0,20 L0,-4.4408921e-16 L16,-4.4408921e-16 Z"/>
    </g>
    <path fill="#79B4A8" d="M18.5046844,15 C19.3305244,15 20,15.6657972 20,16.5 C20,17.2581275 19.4329331,17.8848923 18.7096057,17.9858064 L18.7096057,17.9858064 L17,18 L17,20 L16,20 L16,15 Z M7.50468445,15 C8.33052442,15 9,15.6657972 9,16.5 C9,16.8845502 8.85409979,17.2353022 8.61591232,17.5007727 C8.85447801,17.7656077 9,18.1159486 9,18.5 C9,19.3342028 8.33052442,20 7.50468445,20 L5,20 L5,15 Z M11,15 L12.5,18 L14,15 L15,15 L15,20 L14,20 L14,17 L13,19 L12,19 L11,17 L11,20 L10,20 L10,15 L11,15 Z M7.49531555,18 L6,18 L6,19 L7.49531555,19 C7.77404508,19 8,18.7680664 8,18.5 C8,18.2238576 7.78596497,18 7.49531555,18 Z M18.4953156,16 L17,16 L17,17 L18.4953156,17 C18.785965,17 19,16.7761424 19,16.5 C19,16.2319336 18.7740451,16 18.4953156,16 L18.4953156,16 Z M7.49531555,16 L6,16 L6,17 L7.49531555,17 C7.78596497,17 8,16.7761424 8,16.5 C8,16.2319336 7.77404508,16 7.49531555,16 L7.49531555,16 Z"/>
  </g>
</svg>
