<svg xmlns="http://www.w3.org/2000/svg" xmlns:xlink="http://www.w3.org/1999/xlink" width="24" height="24" viewBox="0 0 24 24">
  <defs>
    <polygon id="image-jpeg-b" points="0 0 16 0 16 20 0 20"/>
    <filter id="image-jpeg-a" width="125%" height="120%" x="-12.5%" y="-5%" filterUnits="objectBoundingBox">
      <feOffset dy="1" in="SourceAlpha" result="shadowOffsetOuter1"/>
      <feGaussianBlur in="shadowOffsetOuter1" result="shadowBlurOuter1" stdDeviation=".5"/>
      <feColorMatrix in="shadowBlurOuter1" values="0 0 0 0 0   0 0 0 0 0   0 0 0 0 0  0 0 0 0.2 0"/>
    </filter>
  </defs>
  <g fill="none" fill-rule="evenodd">
    <g transform="translate(4 2)">
      <use fill="#000" filter="url(#image-jpeg-a)" xlink:href="#image-jpeg-b"/>
      <use fill="#F9FBFB" xlink:href="#image-jpeg-b"/>
      <path fill="#000" fill-opacity=".2" fill-rule="nonzero" d="M17,-1.11111111 L-1,-1.11111111 L-1,21.1111111 L17,21.1111111 L17,-1.11111111 Z M16,-4.4408921e-16 L16,20 L0,20 L0,-4.4408921e-16 L16,-4.4408921e-16 Z"/>
    </g>
    <path fill="#79B4A8" d="M15,15 L15,16 L13,16 L13,17 L15,17 L15.0054402,16.8552548 C15.0811666,15.8178691 15.9382874,15 17,15 C17.7979196,15 18.4867033,15.466467 18.8076452,16.1442661 L18.8076452,16.1442661 L17.9738568,16.7696074 C17.8706312,16.325781 17.4737952,16 17,16 C16.4438648,16 16,16.4472481 16,16.9989566 L16,16.9989566 L16,18.0010434 C16,18.5573397 16.4477153,19 17,19 C17.5,19 18,18.6000004 18,18.25 L18,18.25 L18,18.0010434 C18,18.0010434 17,18.0531315 17,17.9951185 L17,17.9951185 L17,17 L19,17 L19,20 L18,20 L18,19.7337624 C17.7065768,19.9031232 17.3654054,20 17,20 C15.8954305,20 15,19.1061002 15,17.9951185 L15,18 L13,18 L13,19 L15,19 L15,20 L12,20 L12,15 L15,15 Z M10.5046844,15 C11.3305244,15 12,15.6657972 12,16.5 C12,17.2581275 11.4329331,17.8848923 10.7096057,17.9858064 L10.7096057,17.9858064 L9,18 L9,20 L8,20 L8,15 Z M7,15 L7,18.4998764 C7,19.3296395 6.33149595,20 5.5,20 C4.67173101,20 4,19.3331923 4,18.494644 L4,18.494644 L5,18.5073384 C5,19 5.5,19 5.5,19 C5.5,19 6,19 6,18.5073384 L6,18.5073384 L6,15 L7,15 Z M10.4953156,16 L9,16 L9,17 L10.4953156,17 C10.785965,17 11,16.7761424 11,16.5 C11,16.2319336 10.7740451,16 10.4953156,16 L10.4953156,16 Z"/>
  </g>
</svg>
