<svg xmlns="http://www.w3.org/2000/svg" xmlns:xlink="http://www.w3.org/1999/xlink" width="24" height="24" viewBox="0 0 24 24">
  <defs>
    <polygon id="message-b" points="0 0 16 0 16 20 0 20"/>
    <filter id="message-a" width="125%" height="120%" x="-12.5%" y="-5%" filterUnits="objectBoundingBox">
      <feOffset dy="1" in="SourceAlpha" result="shadowOffsetOuter1"/>
      <feGaussianBlur in="shadowOffsetOuter1" result="shadowBlurOuter1" stdDeviation=".5"/>
      <feColorMatrix in="shadowBlurOuter1" values="0 0 0 0 0   0 0 0 0 0   0 0 0 0 0  0 0 0 0.2 0"/>
    </filter>
  </defs>
  <g fill="none" fill-rule="evenodd">
    <g transform="translate(4 2)">
      <use fill="#000" filter="url(#message-a)" xlink:href="#message-b"/>
      <use fill="#F9FBFB" xlink:href="#message-b"/>
      <path fill="#000" fill-opacity=".2" fill-rule="nonzero" d="M17,-1.11111111 L-1,-1.11111111 L-1,21.1111111 L17,21.1111111 L17,-1.11111111 Z M16,-4.4408921e-16 L16,20 L0,20 L0,-4.4408921e-16 L16,-4.4408921e-16 Z"/>
    </g>
    <path fill="#7C8B95" fill-rule="nonzero" d="M17.5,8 L17.5212761,8.00045284 C17.5414511,8.00131274 17.5615732,8.00338716 17.5815233,8.00667045 C17.5908343,8.00814873 17.5995983,8.00983938 17.6082776,8.01175555 C17.6274746,8.01604408 17.6469135,8.02156001 17.6660136,8.0282628 C17.6760773,8.0317567 17.6861992,8.03569334 17.6961551,8.03994371 C17.7120595,8.04672084 17.7276849,8.05435175 17.742948,8.06283618 C17.754947,8.06956565 17.7667859,8.07681952 17.7782867,8.08453828 C17.789817,8.09219466 17.8010814,8.1004519 17.8120512,8.10923407 C17.8278738,8.12194051 17.8431635,8.1357732 17.857552,8.1504907 C17.8617769,8.15481057 17.8659047,8.15919176 17.86997,8.1636636 C17.885984,8.18156128 17.8980576,8.19676334 17.9092301,8.21264513 L17.86997,8.1636636 C17.8924616,8.18840427 17.912009,8.21478544 17.9286328,8.24237685 C17.9338207,8.25102942 17.9387819,8.25985962 17.9434776,8.26885039 C17.979296,8.33748456 17.9979506,8.41222221 17.9998432,8.48715491 L18,8.5 L18,16.5 C18,16.7761424 17.7761424,17 17.5,17 L17.5,17 L6.5,17 C6.22385763,17 6,16.7761424 6,16.5 L6,16.5 L6,8.5 C6,8.49761358 6.00001672,8.49523107 6.00005004,8.49285258 C6.00106206,8.41623143 6.01974734,8.33931879 6.05641004,8.2690224 C6.06121813,8.25985962 6.0661793,8.25102942 6.07139546,8.24237019 C6.07739743,8.2323682 6.08381234,8.2225188 6.09061292,8.21284919 C6.10194239,8.19676334 6.11401598,8.18156128 6.12691636,8.16711324 C6.12774436,8.16619044 6.12888334,8.16492489 6.13002996,8.1636636 L6.14244798,8.1504907 C6.15683646,8.1357732 6.1721262,8.12194051 6.18822795,8.10908188 L6.13002996,8.1636636 C6.15792087,8.1329836 6.18875325,8.10657072 6.22170666,8.08446402 C6.23321408,8.07681952 6.24505303,8.06956565 6.25720325,8.06280359 C6.27231511,8.05435175 6.28794052,8.04672084 6.30385621,8.03994688 C6.3138008,8.03569334 6.32392266,8.0317567 6.33419807,8.02814621 C6.35308648,8.02156001 6.3725254,8.01604408 6.39218621,8.01172058 C6.42658791,8.00405811 6.46282005,8 6.5,8 L6.4184767,8.00667045 C6.43908786,8.00327838 6.45988256,8.0011766 6.4807295,8.00037136 L6.5,8 L17.5,8 L17.5,8 Z M13.529,12.785 L12.3363364,13.86997 C12.1694646,14.0216717 11.9256162,14.0406344 11.7395002,13.9268581 L11.6636636,13.86997 L10.47,12.785 L7.613,16 L16.386,16 L13.529,12.785 Z M17,9.629 L14.269,12.112 L17,15.185 L17,9.629 Z M7,9.63 L7,15.184 L9.73,12.112 L7,9.63 Z M16.206,9 L7.793,9 L11.999,12.824 L16.206,9 Z"/>
  </g>
</svg>
