<svg xmlns="http://www.w3.org/2000/svg" xmlns:xlink="http://www.w3.org/1999/xlink" width="24" height="24" viewBox="0 0 24 24">
  <defs>
    <polygon id="opera-unite-application-b" points="0 0 16 0 16 20 0 20"/>
    <filter id="opera-unite-application-a" width="125%" height="120%" x="-12.5%" y="-5%" filterUnits="objectBoundingBox">
      <feOffset dy="1" in="SourceAlpha" result="shadowOffsetOuter1"/>
      <feGaussianBlur in="shadowOffsetOuter1" result="shadowBlurOuter1" stdDeviation=".5"/>
      <feColorMatrix in="shadowBlurOuter1" values="0 0 0 0 0   0 0 0 0 0   0 0 0 0 0  0 0 0 0.2 0"/>
    </filter>
  </defs>
  <g fill="none" fill-rule="evenodd">
    <g transform="translate(4 2)">
      <use fill="#000" filter="url(#opera-unite-application-a)" xlink:href="#opera-unite-application-b"/>
      <use fill="#F9FBFB" xlink:href="#opera-unite-application-b"/>
      <path fill="#000" fill-opacity=".2" fill-rule="nonzero" d="M17,-1.11111111 L-1,-1.11111111 L-1,21.1111111 L17,21.1111111 L17,-1.11111111 Z M16,-4.4408921e-16 L16,20 L0,20 L0,-4.4408921e-16 L16,-4.4408921e-16 Z"/>
    </g>
    <path fill="#2A4052" fill-opacity=".6" d="M17.9997078,16.5603222 C18.0167261,15.3013847 17.2915297,13.8054344 15.533565,12.7781206 C13.5001575,11.5785775 11.9632435,12.6121582 11.9632435,12.6121582 C11.9632435,12.6121582 13.6737325,12.2324354 14.3391613,13.4507062 C15.004453,14.6692563 14.4606641,15.3851318 14.1973798,15.8484299 C13.315824,17.400722 14.1593308,18.3082757 14.8719171,18.7265715 C15.5845036,19.1448672 16.8918512,19.2331944 17.6559945,17.8880232 C17.870871,17.5096159 17.9930488,17.0529496 17.9997078,16.5603222 L17.9997078,16.5603222 Z M15.4863047,9.0308587 C15.4863047,8.19440696 14.9049137,7 13.3767643,7 C11.8484777,7 10.0804853,8.55201278 10.0857098,11.4198475 C10.0804859,13.8097094 11.7312371,14.6473842 11.7312371,14.6473842 C11.7312371,14.6473842 10.5533318,13.3354057 11.2586314,12.1404746 C11.9639309,10.9455436 12.8460367,11.0617176 13.372468,11.0617176 C15.1357169,11.0617176 15.4863047,9.86731045 15.4863047,9.0308587 L15.4863047,9.0308587 Z M13.6044745,13.8656129 C13.6044745,13.8656129 13.0717533,15.5614016 11.7011622,15.5383415 C10.330296,15.5148624 9.99225405,14.6781659 9.72910721,14.2150078 C8.84755139,12.6625757 7.65331977,12.9495689 6.94073328,13.3677249 C6.22814699,13.7858809 5.50205272,14.8960487 6.26619603,16.241499 C7.02992709,17.5866701 9.23904094,18.3657164 11.67968,16.9271869 C13.7183123,15.7371475 13.6044745,13.8656129 13.6044745,13.8656129 L13.6044745,13.8656129 Z"/>
  </g>
</svg>
