<svg xmlns="http://www.w3.org/2000/svg" xmlns:xlink="http://www.w3.org/1999/xlink" width="24" height="24" viewBox="0 0 24 24">
  <defs>
    <polygon id="playlist-b" points="0 0 16 0 16 20 0 20"/>
    <filter id="playlist-a" width="125%" height="120%" x="-12.5%" y="-5%" filterUnits="objectBoundingBox">
      <feOffset dy="1" in="SourceAlpha" result="shadowOffsetOuter1"/>
      <feGaussianBlur in="shadowOffsetOuter1" result="shadowBlurOuter1" stdDeviation=".5"/>
      <feColorMatrix in="shadowBlurOuter1" values="0 0 0 0 0   0 0 0 0 0   0 0 0 0 0  0 0 0 0.2 0"/>
    </filter>
  </defs>
  <g fill="none" fill-rule="evenodd">
    <g transform="translate(4 2)">
      <use fill="#000" filter="url(#playlist-a)" xlink:href="#playlist-b"/>
      <use fill="#F9FBFB" xlink:href="#playlist-b"/>
      <path fill="#000" fill-opacity=".2" fill-rule="nonzero" d="M17,-1.11111111 L-1,-1.11111111 L-1,21.1111111 L17,21.1111111 L17,-1.11111111 Z M16,-4.4408921e-16 L16,20 L0,20 L0,-4.4408921e-16 L16,-4.4408921e-16 Z"/>
    </g>
    <path fill="#6198C4" d="M15.5560714,9.1784733 C15.7553774,9.1777459 15.9445,9.38723545 15.9445,9.64691521 L15.9445,9.64691521 L15.9445,9.78002836 C15.9445,9.97497002 16.1176198,10.4274093 17.075598,11.0245999 C17.075598,11.0245999 18.3267162,11.7003492 18.6816846,12.9209168 C18.6816846,12.9209168 19.0715679,14.009826 18.4358253,15.3838738 C18.4358253,15.3838738 18.3754516,15.5104404 18.2430658,15.4573406 C18.1383211,15.4151517 18.1739634,15.2820386 18.1739634,15.2820386 C18.1739634,15.2820386 18.6023986,14.2113142 18.2459754,13.3435329 C18.2459754,13.3435329 17.9171932,12.1513337 15.885581,11.6101523 L15.885581,11.6101523 L15.8851292,11.8431685 C15.8850561,11.8802458 15.8849746,11.9212981 15.8848851,11.9659957 L15.8842562,12.2752871 C15.883299,12.7389654 15.8818843,13.3937325 15.8802168,14.0707419 L15.8789219,14.5800312 C15.8755822,15.8504894 15.8715332,17.0507432 15.8681236,17.0677915 C15.8601222,17.7602708 15.2847534,18.4876651 14.4009693,18.8317226 C13.3222436,19.2514291 12.1947825,18.9408317 11.882003,18.1385159 C11.5692234,17.3354726 12.1765977,16.301118 13.271326,15.9236003 C14.014723,15.6675575 14.664286,15.6857424 15.1676429,15.9468769 L15.1676429,15.9468769 L15.180736,9.64982478 C15.1814634,9.39014503 15.3574928,9.17920069 15.5560714,9.1784733 Z M14,14 L14,15 L6,15 L6,14 L14,14 Z M14,11 L14,12 L6,12 L6,11 L14,11 Z M14,8 L14,9 L6,9 L6,8 L14,8 Z"/>
  </g>
</svg>
