<svg xmlns="http://www.w3.org/2000/svg" xmlns:xlink="http://www.w3.org/1999/xlink" width="24" height="24" viewBox="0 0 24 24">
  <defs>
    <polygon id="text-html-b" points="0 0 16 0 16 20 0 20"/>
    <filter id="text-html-a" width="125%" height="120%" x="-12.5%" y="-5%" filterUnits="objectBoundingBox">
      <feOffset dy="1" in="SourceAlpha" result="shadowOffsetOuter1"/>
      <feGaussianBlur in="shadowOffsetOuter1" result="shadowBlurOuter1" stdDeviation=".5"/>
      <feColorMatrix in="shadowBlurOuter1" values="0 0 0 0 0   0 0 0 0 0   0 0 0 0 0  0 0 0 0.2 0"/>
    </filter>
  </defs>
  <g fill="none" fill-rule="evenodd">
    <g transform="translate(4 2)">
      <use fill="#000" filter="url(#text-html-a)" xlink:href="#text-html-b"/>
      <use fill="#F9FBFB" xlink:href="#text-html-b"/>
      <path fill="#000" fill-opacity=".2" fill-rule="nonzero" d="M17,-1.11111111 L-1,-1.11111111 L-1,21.1111111 L17,21.1111111 L17,-1.11111111 Z M16,-4.4408921e-16 L16,20 L0,20 L0,-4.4408921e-16 L16,-4.4408921e-16 Z"/>
    </g>
    <path fill="#7C8B95" fill-rule="nonzero" d="M12,7 C15.3137085,7 18,9.6862915 18,13 C18,16.3137085 15.3137085,19 12,19 C8.6862915,19 6,16.3137085 6,13 C6,9.6862915 8.6862915,7 12,7 Z M13.6320313,15.4766432 L13.5172906,15.5181556 C13.0890093,15.6858991 12.660316,15.919537 12.2612751,16.2287937 C11.7044061,16.6603671 11.2520664,17.2033741 10.9367318,17.8729383 L10.9309935,17.8854641 C11.2754156,17.9604798 11.6330926,18 12,18 C12.5862472,18 13.1489292,17.8991055 13.6716291,17.7137336 L13.6514374,17.9683125 C13.7295488,17.1090863 13.7181419,16.2746356 13.6320313,15.4766432 Z M9.02537456,12.6772997 L8.99354479,12.7189554 C8.33700938,13.5798363 7.89813841,14.5172166 7.66277336,15.4873209 C8.239431,16.4924866 9.15538099,17.2772656 10.254116,17.6867322 L10.1750332,17.8700133 C10.5390728,16.9599143 11.1112962,16.2344167 11.8324749,15.6755032 C12.1908679,15.3977486 12.5686934,15.1742675 12.9508607,14.998646 C11.3910769,14.5588564 10.0952315,13.7599278 9.02537456,12.6772997 Z M14.3141089,15.2833883 L14.3482897,15.6037981 C14.4018201,16.1843066 14.4178034,16.7818564 14.3914198,17.3925782 C15.238267,16.929953 15.9364961,16.2303657 16.3967971,15.3827997 C15.6605201,15.4085351 14.9673181,15.3736289 14.3141089,15.2833883 Z M14.9941593,8.99525336 L14.878516,9.02753427 C13.9655759,9.29132087 13.1427069,9.61303934 12.4067256,9.98284731 C13.2508136,11.2352205 13.9015386,12.8007961 14.2090724,14.5588697 C14.9506565,14.6783742 15.7523981,14.7186662 16.618012,14.673908 L16.7151606,14.6675998 C16.8996233,14.1460379 17,13.5847411 17,13 C17,11.3615613 16.2119275,9.90718673 14.9941593,8.99525336 Z M7.53434218,10.7486207 C7.19254026,11.4252579 7,12.1901439 7,13 C7,13.523143 7.08034273,14.0275209 7.22936249,14.5014681 C7.52551907,13.6790573 7.9629044,12.8887278 8.54738671,12.1544369 C8.36363561,11.9412065 8.19211874,11.7213654 8.02895924,11.4946731 L7.68838005,10.9964591 Z M11.7893423,10.3171885 L11.604112,10.4253609 C10.7632988,10.9333509 10.0572888,11.511112 9.47979943,12.1392195 L9.44816554,12.1083464 C10.5208799,13.2201313 11.8407052,14.0180792 13.4678229,14.4124257 C13.1568246,12.832843 12.5529857,11.4337066 11.7893423,10.3171885 Z M9.99183472,8.42057986 L9.95982128,8.43381033 C9.15339603,8.79467147 8.46002681,9.36288914 7.94752668,10.0706503 L7.95598171,10.0856732 L8.23273312,10.5436327 C8.49854511,10.9710139 8.72610848,11.2930336 9.00565891,11.622489 C9.64986687,10.9317986 10.4357738,10.3008108 11.3696532,9.75183947 C10.9418204,9.22032514 10.4761342,8.77156208 9.99183472,8.42057986 Z M12,8 C11.5796594,8 11.1714335,8.05186906 10.7813737,8.14955582 C11.2074583,8.50580814 11.6145105,8.92917195 11.9919359,9.41092842 C12.6571583,9.0677459 13.3902614,8.76392223 14.1916211,8.50562051 C13.5303912,8.18154713 12.7863969,8 12,8 Z"/>
    <circle cx="11.9" cy="9.9" r="1" fill="#7C8B95"/>
    <circle cx="8.9" cy="11.9" r="1" fill="#7C8B95"/>
    <circle cx="13.9" cy="14.9" r="1" fill="#7C8B95"/>
  </g>
</svg>
