<svg xmlns="http://www.w3.org/2000/svg" xmlns:xlink="http://www.w3.org/1999/xlink" width="24" height="24" viewBox="0 0 24 24">
  <defs>
    <polygon id="text-x-c++-b" points="0 0 16 0 16 20 0 20"/>
    <filter id="text-x-c++-a" width="125%" height="120%" x="-12.5%" y="-5%" filterUnits="objectBoundingBox">
      <feOffset dy="1" in="SourceAlpha" result="shadowOffsetOuter1"/>
      <feGaussianBlur in="shadowOffsetOuter1" result="shadowBlurOuter1" stdDeviation=".5"/>
      <feColorMatrix in="shadowBlurOuter1" values="0 0 0 0 0   0 0 0 0 0   0 0 0 0 0  0 0 0 0.2 0"/>
    </filter>
  </defs>
  <g fill="none" fill-rule="evenodd">
    <g transform="translate(4 2)">
      <use fill="#000" filter="url(#text-x-c++-a)" xlink:href="#text-x-c++-b"/>
      <use fill="#F9FBFB" xlink:href="#text-x-c++-b"/>
      <path fill="#000" fill-opacity=".2" fill-rule="nonzero" d="M17,-1.11111111 L-1,-1.11111111 L-1,21.1111111 L17,21.1111111 L17,-1.11111111 Z M16,-4.4408921e-16 L16,20 L0,20 L0,-4.4408921e-16 L16,-4.4408921e-16 Z"/>
    </g>
    <path fill="#2A4052" fill-opacity=".6" d="M8.08245243,9 C8.89429175,9 9.54122622,9.19266055 10.0359408,9.57798165 C10.5433404,9.97614679 10.8477801,10.5798165 10.961945,11.3889908 L10.961945,11.3889908 L9.95983087,11.3889908 C9.87103594,10.8752294 9.66807611,10.4899083 9.35095137,10.2330275 C9.02114165,9.97614679 8.602537,9.86055046 8.08245243,9.86055046 C7.44820296,9.86055046 6.94080338,10.1045872 6.57293869,10.5926606 C6.21775899,11.0678899 6.04016913,11.7100917 6.04016913,12.5192661 C6.04016913,13.3284404 6.205074,13.9706422 6.5602537,14.4330275 C6.90274841,14.8954128 7.41014799,15.1394495 8.06976744,15.1394495 C9.18604651,15.1394495 9.83298097,14.5614679 9.98520085,13.4183486 L9.98520085,13.4183486 L11,13.4183486 C10.8477801,14.266055 10.5306554,14.9211009 10.0232558,15.3577982 C9.52854123,15.7816514 8.88160677,16 8.06976744,16 C7.08033827,16 6.3192389,15.666055 5.77378436,14.9981651 C5.25369979,14.3688073 5,13.546789 5,12.5321101 C5,11.5174312 5.25369979,10.6954128 5.77378436,10.053211 C6.33192389,9.34678899 7.10570825,9 8.08245243,9 Z M14,11 L14,12 L15,12 L15,13 L14,13 L14,14 L13,14 L13,13 L12,13 L12,12 L13,12 L13,11 L14,11 Z M18,11 L18,12 L19,12 L19,13 L18,13 L18,14 L17,14 L17,13 L16,13 L16,12 L17,12 L17,11 L18,11 Z"/>
  </g>
</svg>
