<svg xmlns="http://www.w3.org/2000/svg" xmlns:xlink="http://www.w3.org/1999/xlink" width="24" height="24" viewBox="0 0 24 24">
  <defs>
    <polygon id="text-x-c-b" points="0 0 16 0 16 20 0 20"/>
    <filter id="text-x-c-a" width="125%" height="120%" x="-12.5%" y="-5%" filterUnits="objectBoundingBox">
      <feOffset dy="1" in="SourceAlpha" result="shadowOffsetOuter1"/>
      <feGaussianBlur in="shadowOffsetOuter1" result="shadowBlurOuter1" stdDeviation=".5"/>
      <feColorMatrix in="shadowBlurOuter1" values="0 0 0 0 0   0 0 0 0 0   0 0 0 0 0  0 0 0 0.2 0"/>
    </filter>
  </defs>
  <g fill="none" fill-rule="evenodd">
    <g transform="translate(4 2)">
      <use fill="#000" filter="url(#text-x-c-a)" xlink:href="#text-x-c-b"/>
      <use fill="#F9FBFB" xlink:href="#text-x-c-b"/>
      <path fill="#000" fill-opacity=".2" fill-rule="nonzero" d="M17,-1.11111111 L-1,-1.11111111 L-1,21.1111111 L17,21.1111111 L17,-1.11111111 Z M16,-4.4408921e-16 L16,20 L0,20 L0,-4.4408921e-16 L16,-4.4408921e-16 Z"/>
    </g>
    <path fill="#2A4052" fill-opacity=".6" d="M12.11253,8 C10.8110726,8 9.78004792,8.44587156 9.036358,9.35412844 C8.34337421,10.1798165 8.00533333,11.2366972 8.00533333,12.5412844 C8.00533333,13.8458716 8.34337421,14.9027523 9.036358,15.7119266 C9.76314588,16.5706422 10.7772685,17 12.0956279,17 C13.1773587,17 14.0393629,16.7192661 14.6985426,16.1743119 C15.3746244,15.612844 15.7971755,14.7706422 16,13.6807339 L14.6478365,13.6807339 C14.445012,15.1504587 13.5830078,15.893578 12.0956279,15.893578 C11.2167216,15.893578 10.5406399,15.5798165 10.0842847,14.9853211 C9.61102748,14.3908257 9.39130092,13.5651376 9.39130092,12.5247706 C9.39130092,11.4844037 9.62792953,10.6587156 10.1011868,10.0477064 C10.591346,9.42018349 11.2674278,9.10642202 12.11253,9.10642202 C12.8055137,9.10642202 13.3632812,9.25504587 13.8027343,9.5853211 C14.2252854,9.91559633 14.4957181,10.4110092 14.6140324,11.0715596 L15.9492939,11.0715596 C15.7971755,10.0311927 15.3915264,9.25504587 14.7154447,8.74311927 C14.056265,8.24770642 13.1942607,8 12.11253,8 L12.11253,8 Z"/>
  </g>
</svg>
