<svg xmlns="http://www.w3.org/2000/svg" xmlns:xlink="http://www.w3.org/1999/xlink" width="24" height="24" viewBox="0 0 24 24">
  <defs>
    <polygon id="text-x-chdr-b" points="0 0 16 0 16 20 0 20"/>
    <filter id="text-x-chdr-a" width="125%" height="120%" x="-12.5%" y="-5%" filterUnits="objectBoundingBox">
      <feOffset dy="1" in="SourceAlpha" result="shadowOffsetOuter1"/>
      <feGaussianBlur in="shadowOffsetOuter1" result="shadowBlurOuter1" stdDeviation=".5"/>
      <feColorMatrix in="shadowBlurOuter1" values="0 0 0 0 0   0 0 0 0 0   0 0 0 0 0  0 0 0 0.2 0"/>
    </filter>
  </defs>
  <g fill="none" fill-rule="evenodd">
    <g transform="translate(4 2)">
      <use fill="#000" filter="url(#text-x-chdr-a)" xlink:href="#text-x-chdr-b"/>
      <use fill="#F9FBFB" xlink:href="#text-x-chdr-b"/>
      <path fill="#000" fill-opacity=".2" fill-rule="nonzero" d="M17,-1.11111111 L-1,-1.11111111 L-1,21.1111111 L17,21.1111111 L17,-1.11111111 Z M16,-4.4408921e-16 L16,20 L0,20 L0,-4.4408921e-16 L16,-4.4408921e-16 Z"/>
    </g>
    <path fill="#2A4052" fill-opacity=".6" d="M12,13 L12,17 L11,17 L11,8 L12,8 L12,12 L13.6754236,12 C14.406967,12 15,12.5932003 15,13.3399082 L15,17 L14,17 L14,13.3410378 C14,13.1526878 13.8430634,13 13.6697407,13 L12,13 Z M10,16 L10,17 L9,17 L9,16 L10,16 Z"/>
  </g>
</svg>
