<svg xmlns="http://www.w3.org/2000/svg" xmlns:xlink="http://www.w3.org/1999/xlink" width="24" height="24" viewBox="0 0 24 24">
  <defs>
    <polygon id="text-x-qml-b" points="0 0 16 0 16 20 0 20"/>
    <filter id="text-x-qml-a" width="125%" height="120%" x="-12.5%" y="-5%" filterUnits="objectBoundingBox">
      <feOffset dy="1" in="SourceAlpha" result="shadowOffsetOuter1"/>
      <feGaussianBlur in="shadowOffsetOuter1" result="shadowBlurOuter1" stdDeviation=".5"/>
      <feColorMatrix in="shadowBlurOuter1" values="0 0 0 0 0   0 0 0 0 0   0 0 0 0 0  0 0 0 0.2 0"/>
    </filter>
  </defs>
  <g fill="none" fill-rule="evenodd">
    <g transform="translate(4 2)">
      <use fill="#000" filter="url(#text-x-qml-a)" xlink:href="#text-x-qml-b"/>
      <use fill="#F9FBFB" xlink:href="#text-x-qml-b"/>
      <path fill="#000" fill-opacity=".2" fill-rule="nonzero" d="M17,-1.11111111 L-1,-1.11111111 L-1,21.1111111 L17,21.1111111 L17,-1.11111111 Z M16,-4.4408921e-16 L16,20 L0,20 L0,-4.4408921e-16 L16,-4.4408921e-16 Z"/>
    </g>
    <path fill="#6198C4" d="M9.63225,7.25730114 C9.6161585,7.25681556 9.60005308,7.2570687 9.5839875,7.25812614 C9.5376891,7.26126932 9.49203293,7.27070586 9.448275,7.28617614 C9.448275,7.28617614 9.128175,7.39218864 8.7573375,7.58771364 C8.3860875,7.78323864 7.9356375,8.05672614 7.6452375,8.52697614 C7.3226625,9.05002614 7.445175,9.61020114 7.5454125,9.94515114 C7.6460625,10.2801011 7.700925,10.4265386 7.608525,10.6509386 C7.56315,10.7602511 7.285125,10.9995011 6.981525,11.1488261 C6.6775125,11.2977386 6.402375,11.3757011 6.402375,11.3757011 C6.26992734,11.4099401 6.15668619,11.4958682 6.08793804,11.614298 C6.01918988,11.7327277 6.00066051,11.8737955 6.0364875,12.0060011 C5.9717344,12.2763582 6.13409739,12.5490988 6.402375,12.6206261 C6.402375,12.6206261 6.677925,12.6985886 6.981525,12.8479136 C7.285125,12.9968261 7.56315,13.2369011 7.608525,13.3466261 C7.700925,13.5706136 7.6460625,13.7174636 7.5454125,14.0524136 C7.445175,14.3873636 7.3226625,14.9471261 7.6452375,15.4701761 C7.9356375,15.9404261 8.3860875,16.2143261 8.7573375,16.4098511 C9.128175,16.6049636 9.448275,16.7109761 9.448275,16.7109761 C9.6235695,16.7760742 9.82036261,16.740234 9.96154769,16.6174983 C10.1027328,16.4947626 10.1658255,16.3046777 10.1261051,16.1217218 C10.0863847,15.9387658 9.9501769,15.7920754 9.77085,15.7391261 C9.77085,15.7391261 9.5270625,15.6570386 9.2341875,15.5023511 C8.9409,15.3480761 8.6269875,15.1100636 8.5164375,14.9306261 C8.3910375,14.7272636 8.431875,14.6571386 8.5251,14.3465261 C8.618325,14.0355011 8.7870375,13.5186386 8.5535625,12.9543386 C8.3464875,12.4539761 7.933575,12.1895636 7.563975,11.9985761 C7.933575,11.8075886 8.3464875,11.5431761 8.5535625,11.0432261 C8.7870375,10.4785136 8.618325,9.96206364 8.5251,9.65103864 C8.431875,9.34001364 8.3910375,9.26988864 8.5164375,9.06693864 C8.6269875,8.88708864 8.9409,8.64825114 9.2341875,8.49397614 C9.527475,8.33970114 9.77085,8.25802614 9.77085,8.25802614 C10.0087103,8.18285734 10.1577806,7.94687377 10.1237137,7.6994303 C10.0896469,7.45198683 9.88237239,7.2652056 9.633075,7.25730114 L9.63225,7.25730114 L9.63225,7.25730114 Z M14.365275,7.25730114 C14.1162528,7.2659259 13.9096493,7.45295432 13.8760169,7.7002035 C13.8423845,7.94745269 13.9915052,8.18300953 14.22915,8.25802614 C14.22915,8.25802614 14.472525,8.33970114 14.7658125,8.49397614 C15.0591,8.64825114 15.3730125,8.88708864 15.4835625,9.06693864 C15.6089625,9.26988864 15.568125,9.34001364 15.4749,9.65103864 C15.381675,9.96206364 15.2129625,10.4785136 15.4464375,11.0432261 C15.6535125,11.5431761 16.066425,11.8075886 16.436025,11.9985761 C16.066425,12.1895636 15.6535125,12.4539761 15.4464375,12.9543386 C15.2129625,13.5186386 15.381675,14.0355011 15.4749,14.3465261 C15.568125,14.6571386 15.6089625,14.7272636 15.4835625,14.9306261 C15.3730125,15.1100636 15.0591,15.3480761 14.7658125,15.5023511 C14.4729375,15.6570386 14.22915,15.7391261 14.22915,15.7391261 C14.0498231,15.7920754 13.9136153,15.9387658 13.8738949,16.1217218 C13.8341745,16.3046777 13.8972672,16.4947626 14.0384523,16.6174983 C14.1796374,16.740234 14.3764305,16.7760742 14.551725,16.7109761 C14.551725,16.7109761 14.871825,16.6049636 15.2426625,16.4098511 C15.6139125,16.2143261 16.0643625,15.9404261 16.3547625,15.4701761 C16.6773375,14.9471261 16.554825,14.3873636 16.4545875,14.0524136 C16.3539375,13.7174636 16.299075,13.5706136 16.391475,13.3466261 C16.43685,13.2369011 16.714875,12.9968261 17.018475,12.8479136 C17.322075,12.6985886 17.597625,12.6206261 17.597625,12.6206261 C17.8659026,12.5490988 18.0282656,12.2763582 17.9635125,12.0060011 C17.9993395,11.8737955 17.9808101,11.7327277 17.912062,11.614298 C17.8433138,11.4958682 17.7300727,11.4099401 17.597625,11.3757011 C17.597625,11.3757011 17.3224875,11.2977386 17.018475,11.1488261 C16.714875,10.9995011 16.43685,10.7602511 16.391475,10.6509386 C16.299075,10.4265386 16.3539375,10.2801011 16.4545875,9.94515114 C16.554825,9.61020114 16.6773375,9.05002614 16.3547625,8.52697614 C16.0643625,8.05672614 15.6139125,7.78323864 15.2426625,7.58771364 C14.871825,7.39218864 14.5509,7.28617614 14.5509,7.28617614 C14.5074059,7.27077886 14.4620321,7.26134334 14.4160125,7.25812614 C14.3996726,7.25705151 14.3832913,7.25678933 14.366925,7.25730114 C14.366375,7.25730025 14.365825,7.25730025 14.365275,7.25730114 L14.365275,7.25730114 Z M12,9.31980114 C11.4304564,9.31980114 10.96875,9.78150749 10.96875,10.3510511 C10.96875,10.9205948 11.4304564,11.3823011 12,11.3823011 C12.5695436,11.3823011 13.03125,10.9205948 13.03125,10.3510511 C13.03125,9.78150749 12.5695436,9.31980114 12,9.31980114 L12,9.31980114 Z M12,12.4135511 C11.4303375,12.4135511 10.96875,12.8751386 10.96875,13.4448011 C10.96875,14.0144636 11.4303375,14.4760511 12,14.4760511 C12.36465,14.4760511 12.515625,15.5073011 12.515625,15.5073011 C12.515625,15.5073011 13.03125,13.6498136 13.03125,13.4448011 C13.03125,12.8751386 12.5696625,12.4135511 12,12.4135511 Z"/>
  </g>
</svg>
