<svg xmlns="http://www.w3.org/2000/svg" xmlns:xlink="http://www.w3.org/1999/xlink" width="24" height="24" viewBox="0 0 24 24">
  <defs>
    <polygon id="text-enriched-b" points="0 0 16 0 16 20 0 20"/>
    <filter id="text-enriched-a" width="125%" height="120%" x="-12.5%" y="-5%" filterUnits="objectBoundingBox">
      <feOffset dy="1" in="SourceAlpha" result="shadowOffsetOuter1"/>
      <feGaussianBlur in="shadowOffsetOuter1" result="shadowBlurOuter1" stdDeviation=".5"/>
      <feColorMatrix in="shadowBlurOuter1" values="0 0 0 0 0   0 0 0 0 0   0 0 0 0 0  0 0 0 0.2 0"/>
    </filter>
  </defs>
  <g fill="none" fill-rule="evenodd">
    <g transform="translate(4 2)">
      <use fill="#000" filter="url(#text-enriched-a)" xlink:href="#text-enriched-b"/>
      <use fill="#F9FBFB" xlink:href="#text-enriched-b"/>
      <path fill="#000" fill-opacity=".2" fill-rule="nonzero" d="M17,-1.11111111 L-1,-1.11111111 L-1,21.1111111 L17,21.1111111 L17,-1.11111111 Z M16,-4.4408921e-16 L16,20 L0,20 L0,-4.4408921e-16 L16,-4.4408921e-16 Z"/>
    </g>
    <path fill="#6198C4" d="M18,7 L18,8 L6,8 L6,7 L18,7 Z M18,10 L18,11 L6,11 L6,10 L18,10 Z M18,13 L18,14 L6,14 L6,13 L18,13 Z M18,16 L18,17 L6,17 L6,16 L18,16 Z"/>
  </g>
</svg>
