<svg xmlns="http://www.w3.org/2000/svg" xmlns:xlink="http://www.w3.org/1999/xlink" width="24" height="24" viewBox="0 0 24 24">
  <defs>
    <polygon id="text-xml-b" points="0 0 16 0 16 20 0 20"/>
    <filter id="text-xml-a" width="125%" height="120%" x="-12.5%" y="-5%" filterUnits="objectBoundingBox">
      <feOffset dy="1" in="SourceAlpha" result="shadowOffsetOuter1"/>
      <feGaussianBlur in="shadowOffsetOuter1" result="shadowBlurOuter1" stdDeviation=".5"/>
      <feColorMatrix in="shadowBlurOuter1" values="0 0 0 0 0   0 0 0 0 0   0 0 0 0 0  0 0 0 0.2 0"/>
    </filter>
  </defs>
  <g fill="none" fill-rule="evenodd">
    <g transform="translate(4 2)">
      <use fill="#000" filter="url(#text-xml-a)" xlink:href="#text-xml-b"/>
      <use fill="#F9FBFB" xlink:href="#text-xml-b"/>
      <path fill="#000" fill-opacity=".2" fill-rule="nonzero" d="M17,-1.11111111 L-1,-1.11111111 L-1,21.1111111 L17,21.1111111 L17,-1.11111111 Z M16,-4.4408921e-16 L16,20 L0,20 L0,-4.4408921e-16 L16,-4.4408921e-16 Z"/>
    </g>
    <path fill="#7C8B95" d="M8,9 L8,10.1677246 L4.94934082,12.508432 L8,14.84021 L8,16 L4,13 L4,12 L8,9 Z M16,9 L20,12 L20,13 L16,16 L16,14.84021 L19.0640869,12.508432 L16,10.1677246 L16,9 Z M15,9 L10.1999998,16 L9,16 L13.7000008,9 L15,9 Z"/>
  </g>
</svg>
