<svg xmlns="http://www.w3.org/2000/svg" xmlns:xlink="http://www.w3.org/1999/xlink" width="24" height="24" viewBox="0 0 24 24">
  <defs>
    <polygon id="x-content-audio-cdda-b" points="0 0 16 0 16 20 0 20"/>
    <filter id="x-content-audio-cdda-a" width="125%" height="120%" x="-12.5%" y="-5%" filterUnits="objectBoundingBox">
      <feOffset dy="1" in="SourceAlpha" result="shadowOffsetOuter1"/>
      <feGaussianBlur in="shadowOffsetOuter1" result="shadowBlurOuter1" stdDeviation=".5"/>
      <feColorMatrix in="shadowBlurOuter1" values="0 0 0 0 0   0 0 0 0 0   0 0 0 0 0  0 0 0 0.2 0"/>
    </filter>
  </defs>
  <g fill="none" fill-rule="evenodd">
    <g transform="translate(4 2)">
      <use fill="#000" filter="url(#x-content-audio-cdda-a)" xlink:href="#x-content-audio-cdda-b"/>
      <use fill="#F9FBFB" xlink:href="#x-content-audio-cdda-b"/>
      <path fill="#000" fill-opacity=".2" fill-rule="nonzero" d="M17,-1.11111111 L-1,-1.11111111 L-1,21.1111111 L17,21.1111111 L17,-1.11111111 Z M16,-4.4408921e-16 L16,20 L0,20 L0,-4.4408921e-16 L16,-4.4408921e-16 Z"/>
    </g>
    <path fill="#D96464" d="M12,6 C15.3137085,6 18,8.6862915 18,12 C18,15.3137085 15.3137085,18 12,18 C8.6862915,18 6,15.3137085 6,12 C6,8.6862915 8.6862915,6 12,6 Z M14,10 L10,10 L10,13 L9.88337887,13.0067277 C9.38604019,13.0644928 9,13.4871642 9,14 C9,14.5522847 9.44771525,15 10,15 C10.5522847,15 11,14.5522847 11,14 L11,14 L11,11 L13,11 L13,13 L12.8833789,13.0067277 C12.3860402,13.0644928 12,13.4871642 12,14 C12,14.5522847 12.4477153,15 13,15 C13.5522847,15 14,14.5522847 14,14 L14,14 L14,10 Z"/>
  </g>
</svg>
