<svg xmlns="http://www.w3.org/2000/svg" xmlns:xlink="http://www.w3.org/1999/xlink" width="24" height="24" viewBox="0 0 24 24">
  <defs>
    <polygon id="x-office-spreadsheet-b" points="0 0 16 0 16 20 0 20"/>
    <filter id="x-office-spreadsheet-a" width="125%" height="120%" x="-12.5%" y="-5%" filterUnits="objectBoundingBox">
      <feOffset dy="1" in="SourceAlpha" result="shadowOffsetOuter1"/>
      <feGaussianBlur in="shadowOffsetOuter1" result="shadowBlurOuter1" stdDeviation=".5"/>
      <feColorMatrix in="shadowBlurOuter1" values="0 0 0 0 0   0 0 0 0 0   0 0 0 0 0  0 0 0 0.2 0"/>
    </filter>
  </defs>
  <g fill="none" fill-rule="evenodd">
    <g transform="translate(4 2)">
      <use fill="#000" filter="url(#x-office-spreadsheet-a)" xlink:href="#x-office-spreadsheet-b"/>
      <use fill="#F9FBFB" xlink:href="#x-office-spreadsheet-b"/>
      <path fill="#000" fill-opacity=".2" fill-rule="nonzero" d="M17,-1.11111111 L-1,-1.11111111 L-1,21.1111111 L17,21.1111111 L17,-1.11111111 Z M16,-4.4408921e-16 L16,20 L0,20 L0,-4.4408921e-16 L16,-4.4408921e-16 Z"/>
    </g>
    <g fill="#8DB479" transform="translate(6 8)">
      <path d="M12,0 L0,0 L0,11 L12,11 L12,0 Z M11,1 L11,10 L1,10 L1,1 L11,1 Z"/>
      <polygon points="4 .667 4 10.333 3 10.333 3 .667"/>
      <path d="M4.99975053,2.99922171 L3.66655858,2.99870297 L3.66655858,2 L4.99951267,2.00051866 L4.99967464,0.666655821 L5.99983732,0.666655821 L5.99967536,2.00075652 L6.99951269,2.00118886 L6.99967464,0.666677512 L7.99983732,0.666655821 L7.99967538,2.00140503 L8.99951271,2.00183737 L8.99967464,0.666677512 L9.99983732,0.666655821 L9.9996754,2.00205354 L11.5,2 L11.5,2.99870297 L9.99991326,3.00075658 L9.99995664,4.00205356 L11.5002162,4 L11.5,4.99870297 L9.99997833,5.0007566 L9.99980555,6.00205358 L11.5,6 L11.5,6.99870297 L10.0000434,7.00075662 L10.0001627,10.3333225 L9,10.3333442 L8.99988072,7.00054046 L8.00004339,7.00010812 L8.00016268,10.3333225 L7,10.3333442 L6.9998807,6.99989195 L6.00004336,6.99945961 L6.00016268,10.3333225 L5,10.3333225 L4.99988068,6.99922175 L3.66655858,6.99870297 L3.66655858,6 L4.99964282,6.0005187 L4.9998156,4.99922173 L3.66655858,4.99870297 L3.66677475,4 L4.99979391,4.00051868 L4.99975053,2.99922171 Z M5.99991322,2.99945957 L6.99975055,2.9998919 L6.99979393,4.00118888 L5.9999566,4.00075654 L5.99991322,2.99945957 Z M5.9998055,6.00075657 L6.99964284,6.0011889 L6.99981562,4.99989193 L5.99997829,4.99945959 L5.9998055,6.00075657 Z M7.99991324,3.00010807 L8.99975057,3.00054041 L8.99979395,4.00183739 L7.99995662,4.00140505 L7.99991324,3.00010807 Z M7.99980553,6.00140507 L8.99964286,6.00183741 L8.99981565,5.00054043 L7.99997831,5.0001081 L7.99980553,6.00140507 Z"/>
    </g>
  </g>
</svg>
