<svg xmlns="http://www.w3.org/2000/svg" xmlns:xlink="http://www.w3.org/1999/xlink" width="64" height="64" viewBox="0 0 64 64">
  <defs>
    <filter id="folder-music-64px-a" width="128.6%" height="133.3%" x="-14.3%" y="-16.7%" filterUnits="objectBoundingBox">
      <feOffset dy="1" in="SourceAlpha" result="shadowOffsetOuter1"/>
      <feGaussianBlur in="shadowOffsetOuter1" result="shadowBlurOuter1" stdDeviation="1.5"/>
      <feComposite in="shadowBlurOuter1" in2="SourceAlpha" operator="out" result="shadowBlurOuter1"/>
      <feColorMatrix in="shadowBlurOuter1" result="shadowMatrixOuter1" values="0 0 0 0 0   0 0 0 0 0   0 0 0 0 0  0 0 0 0.2 0"/>
      <feMerge>
        <feMergeNode in="shadowMatrixOuter1"/>
        <feMergeNode in="SourceGraphic"/>
      </feMerge>
    </filter>
    <linearGradient id="folder-music-64px-c" x1="50%" x2="50%" y1="0%" y2="37.968%">
      <stop offset="0%" stop-color="#00B8FF"/>
      <stop offset="100%" stop-color="#2E5DFF"/>
    </linearGradient>
    <path id="folder-music-64px-b" d="M31.2792793,3 L31.2792793,3 C32.0434808,4.81770784 33.8230705,6 35.7948884,6 L49,6 C52.8659932,6 56,9.13400675 56,13 L56,41 C56,44.8659932 52.8659932,48 49,48 L7,48 C3.13400675,48 -4.92645439e-14,44.8659932 -4.97379915e-14,41 L-5.24025268e-14,7 C-5.28759744e-14,3.13400675 3.13400675,-2.7711538e-14 7,-2.84217094e-14 L26.7636702,-1.687539e-14 C28.735488,-1.7237607e-14 30.5150778,1.18229216 31.2792793,3 Z"/>
    <linearGradient id="folder-music-64px-g" x1="50%" x2="50%" y1="0%" y2="11.796%">
      <stop offset="0%" stop-color="#FFF"/>
      <stop offset="100%" stop-color="#CEF5FF"/>
    </linearGradient>
    <rect id="folder-music-64px-f" width="50.955" height="20.75" x="2.523" y="9" rx="4.5"/>
    <filter id="folder-music-64px-e" width="111.8%" height="128.9%" x="-5.9%" y="-14.5%" filterUnits="objectBoundingBox">
      <feOffset in="SourceAlpha" result="shadowOffsetOuter1"/>
      <feGaussianBlur in="shadowOffsetOuter1" result="shadowBlurOuter1" stdDeviation="1"/>
      <feColorMatrix in="shadowBlurOuter1" values="0 0 0 0 0   0 0 0 0 0   0 0 0 0 0  0 0 0 0.2 0"/>
    </filter>
    <filter id="folder-music-64px-h" width="109.8%" height="124.1%" x="-4.9%" y="-12%" filterUnits="objectBoundingBox">
      <feOffset dy="1" in="SourceAlpha" result="shadowOffsetInner1"/>
      <feComposite in="shadowOffsetInner1" in2="SourceAlpha" k2="-1" k3="1" operator="arithmetic" result="shadowInnerInner1"/>
      <feColorMatrix in="shadowInnerInner1" values="0 0 0 0 1   0 0 0 0 1   0 0 0 0 1  0 0 0 0.5 0"/>
    </filter>
    <radialGradient id="folder-music-64px-i" cx="50%" cy="0%" r="117.613%" fx="50%" fy="0%" gradientTransform="matrix(.06171 .99538 -.63989 .096 .47 -.498)">
      <stop offset="0%" stop-color="#48D5FF"/>
      <stop offset="100%" stop-color="#0083F6"/>
    </radialGradient>
    <linearGradient id="folder-music-64px-l" x1="52.084%" x2="52.084%" y1="4.908%" y2="100%">
      <stop offset="0%" stop-color="#FFF"/>
      <stop offset="100%" stop-color="#FFF" stop-opacity=".6"/>
    </linearGradient>
    <path id="folder-music-64px-k" d="M12,24 C5.372583,24 0,18.627417 0,12 C0,5.372583 5.372583,0 12,0 C18.627417,0 24,5.372583 24,12 C24,18.627417 18.627417,24 12,24 Z M12,20 C16.418278,20 20,16.418278 20,12 C20,7.581722 16.418278,4 12,4 C7.581722,4 4,7.581722 4,12 C4,16.418278 7.581722,20 12,20 Z"/>
    <filter id="folder-music-64px-j" width="125%" height="125%" x="-12.5%" y="-12.5%" filterUnits="objectBoundingBox">
      <feOffset in="SourceAlpha" result="shadowOffsetOuter1"/>
      <feGaussianBlur in="shadowOffsetOuter1" result="shadowBlurOuter1" stdDeviation="1"/>
      <feColorMatrix in="shadowBlurOuter1" values="0 0 0 0 0   0 0 0 0 0.42745098   0 0 0 0 0.968627451  0 0 0 0.5 0"/>
    </filter>
    <linearGradient id="folder-music-64px-m" x1="35.769%" x2="18.77%" y1="0%" y2="100%">
      <stop offset="0%" stop-color="#4B20FF"/>
      <stop offset="100%" stop-color="#9600F1"/>
    </linearGradient>
  </defs>
  <g fill="none" fill-rule="evenodd">
    <g filter="url(#folder-music-64px-a)" transform="translate(4 11)">
      <mask id="folder-music-64px-d" fill="#fff">
        <use xlink:href="#folder-music-64px-b"/>
      </mask>
      <use fill="url(#folder-music-64px-c)" xlink:href="#folder-music-64px-b"/>
      <g mask="url(#folder-music-64px-d)">
        <use fill="#000" filter="url(#folder-music-64px-e)" xlink:href="#folder-music-64px-f"/>
        <use fill="url(#folder-music-64px-g)" xlink:href="#folder-music-64px-f"/>
        <use fill="#000" filter="url(#folder-music-64px-h)" xlink:href="#folder-music-64px-f"/>
      </g>
      <g fill="url(#folder-music-64px-i)" mask="url(#folder-music-64px-d)">
        <path d="M0,0.5 L56,0.5 L56,29.5 C56,33.3659932 52.8659932,36.5 49,36.5 L7,36.5 C3.13400675,36.5 4.73447626e-16,33.3659932 0,29.5 L0,0.5 Z" transform="translate(0 11.5)"/>
      </g>
    </g>
    <g transform="translate(20 28)">
      <use fill="#000" filter="url(#folder-music-64px-j)" xlink:href="#folder-music-64px-k"/>
      <use fill="url(#folder-music-64px-l)" xlink:href="#folder-music-64px-k"/>
      <circle cx="12" cy="12" r="7" fill="url(#folder-music-64px-m)"/>
      <path fill="#FFF" d="M14,12.0853529 L14,9.71726114 C14,9.53909343 13.8555665,9.39465997 13.6773988,9.39465997 C13.6515413,9.39465997 13.6257775,9.39776878 13.6006621,9.40391949 L11.2458644,9.98060463 C11.1015202,10.0159542 11,10.1453366 11,10.2939463 L11,14.383673 L10.9955561,14.383673 C10.9985006,14.4220623 11,14.460856 11,14.5 C11,15.3284271 10.3284271,16 9.5,16 C8.67157288,16 8,15.3284271 8,14.5 C8,13.6715729 8.67157288,13 9.5,13 C9.67531771,13 9.84361054,13.0300771 10,13.0853529 L10,9.61291876 C10,9.15015565 10.327601,8.75214348 10.7817305,8.66317116 L13.8461235,8.0628003 C14.3706546,7.96003502 14.8791788,8.30194379 14.9819441,8.8264749 C14.9939532,8.88777125 15,8.95008623 15,9.0125479 L15,13.359184 L14.9934772,13.359184 C14.9977934,13.4055427 15,13.4525136 15,13.5 C15,14.3284271 14.3284271,15 13.5,15 C12.6715729,15 12,14.3284271 12,13.5 C12,12.6715729 12.6715729,12 13.5,12 C13.6753177,12 13.8436105,12.0300771 14,12.0853529 Z"/>
    </g>
  </g>
</svg>
