<svg xmlns="http://www.w3.org/2000/svg" xmlns:xlink="http://www.w3.org/1999/xlink" width="64" height="64" viewBox="0 0 64 64">
  <defs>
    <filter id="folder-documents-64px-a" width="128.6%" height="133.3%" x="-14.3%" y="-16.7%" filterUnits="objectBoundingBox">
      <feOffset dy="1" in="SourceAlpha" result="shadowOffsetOuter1"/>
      <feGaussianBlur in="shadowOffsetOuter1" result="shadowBlurOuter1" stdDeviation="1.5"/>
      <feComposite in="shadowBlurOuter1" in2="SourceAlpha" operator="out" result="shadowBlurOuter1"/>
      <feColorMatrix in="shadowBlurOuter1" result="shadowMatrixOuter1" values="0 0 0 0 0   0 0 0 0 0   0 0 0 0 0  0 0 0 0.2 0"/>
      <feMerge>
        <feMergeNode in="shadowMatrixOuter1"/>
        <feMergeNode in="SourceGraphic"/>
      </feMerge>
    </filter>
    <linearGradient id="folder-documents-64px-c" x1="50%" x2="50%" y1="0%" y2="37.968%">
      <stop offset="0%" stop-color="#00B8FF"/>
      <stop offset="100%" stop-color="#2E5DFF"/>
    </linearGradient>
    <path id="folder-documents-64px-b" d="M31.2792793,3 L31.2792793,3 C32.0434808,4.81770784 33.8230705,6 35.7948884,6 L49,6 C52.8659932,6 56,9.13400675 56,13 L56,41 C56,44.8659932 52.8659932,48 49,48 L7,48 C3.13400675,48 -4.92645439e-14,44.8659932 -4.97379915e-14,41 L-5.24025268e-14,7 C-5.28759744e-14,3.13400675 3.13400675,-2.7711538e-14 7,-2.84217094e-14 L26.7636702,-1.687539e-14 C28.735488,-1.7237607e-14 30.5150778,1.18229216 31.2792793,3 Z"/>
    <linearGradient id="folder-documents-64px-g" x1="50%" x2="50%" y1="0%" y2="11.796%">
      <stop offset="0%" stop-color="#FFF"/>
      <stop offset="100%" stop-color="#CEF5FF"/>
    </linearGradient>
    <rect id="folder-documents-64px-f" width="50.955" height="20.75" x="2.523" y="9" rx="4.5"/>
    <filter id="folder-documents-64px-e" width="111.8%" height="128.9%" x="-5.9%" y="-14.5%" filterUnits="objectBoundingBox">
      <feOffset in="SourceAlpha" result="shadowOffsetOuter1"/>
      <feGaussianBlur in="shadowOffsetOuter1" result="shadowBlurOuter1" stdDeviation="1"/>
      <feColorMatrix in="shadowBlurOuter1" values="0 0 0 0 0   0 0 0 0 0   0 0 0 0 0  0 0 0 0.2 0"/>
    </filter>
    <filter id="folder-documents-64px-h" width="109.8%" height="124.1%" x="-4.9%" y="-12%" filterUnits="objectBoundingBox">
      <feOffset dy="1" in="SourceAlpha" result="shadowOffsetInner1"/>
      <feComposite in="shadowOffsetInner1" in2="SourceAlpha" k2="-1" k3="1" operator="arithmetic" result="shadowInnerInner1"/>
      <feColorMatrix in="shadowInnerInner1" values="0 0 0 0 1   0 0 0 0 1   0 0 0 0 1  0 0 0 0.5 0"/>
    </filter>
    <radialGradient id="folder-documents-64px-i" cx="50%" cy="0%" r="117.613%" fx="50%" fy="0%" gradientTransform="matrix(.06171 .99538 -.63989 .096 .47 -.498)">
      <stop offset="0%" stop-color="#48D5FF"/>
      <stop offset="100%" stop-color="#0083F6"/>
    </radialGradient>
    <linearGradient id="folder-documents-64px-l" x1="50%" x2="50%" y1="0%" y2="100%">
      <stop offset="0%" stop-color="#FFF"/>
      <stop offset="100%" stop-color="#FFF" stop-opacity=".6"/>
    </linearGradient>
    <path id="folder-documents-64px-k" d="M2,-0.0530973451 L19,-0.0530973451 C20.1045695,-0.0530973451 21,0.842333155 21,1.94690265 L21,22.9469027 C21,24.0514722 20.1045695,24.9469027 19,24.9469027 L2,24.9469027 C0.8954305,24.9469027 -4.5461208e-13,24.0514722 -4.54747351e-13,22.9469027 L-4.54747351e-13,1.94690265 C-4.54882622e-13,0.842333155 0.8954305,-0.0530973451 2,-0.0530973451 Z M12,2.94690265 L12,3.94690265 L19,3.94690265 L19,2.94690265 L12,2.94690265 Z M12,4.94690265 L12,5.94690265 L19,5.94690265 L19,4.94690265 L12,4.94690265 Z M12,6.94690265 L12,7.94690265 L19,7.94690265 L19,6.94690265 L12,6.94690265 Z M12,8.94690265 L12,9.94690265 L19,9.94690265 L19,8.94690265 L12,8.94690265 Z M2,10.9469027 L2,11.9469027 L19,11.9469027 L19,10.9469027 L2,10.9469027 Z M2,12.9469027 L2,13.9469027 L19,13.9469027 L19,12.9469027 L2,12.9469027 Z M2,14.9469027 L2,15.9469027 L19,15.9469027 L19,14.9469027 L2,14.9469027 Z M2,16.9469027 L2,17.9469027 L19,17.9469027 L19,16.9469027 L2,16.9469027 Z M2,18.9469027 L2,19.9469027 L11,19.9469027 L11,18.9469027 L2,18.9469027 Z M2,21.9469027 L2,22.9469027 L19,22.9469027 L19,21.9469027 L2,21.9469027 Z"/>
    <filter id="folder-documents-64px-j" width="133.3%" height="128%" x="-16.7%" y="-10%" filterUnits="objectBoundingBox">
      <feOffset dy="1" in="SourceAlpha" result="shadowOffsetOuter1"/>
      <feGaussianBlur in="shadowOffsetOuter1" result="shadowBlurOuter1" stdDeviation="1"/>
      <feColorMatrix in="shadowBlurOuter1" values="0 0 0 0 0   0 0 0 0 0.42905776   0 0 0 0 0.968670281  0 0 0 0.5 0"/>
    </filter>
    <radialGradient id="folder-documents-64px-m" cx="79.957%" cy="71.832%" r="100%" fx="79.957%" fy="71.832%" gradientTransform="matrix(0 -1 .77778 0 .24 1.518)">
      <stop offset="0%" stop-color="#FA9361"/>
      <stop offset="100%" stop-color="#5F1CF7"/>
    </radialGradient>
    <linearGradient id="folder-documents-64px-n" x1="50%" x2="50%" y1="20.953%" y2="100%">
      <stop offset="0%" stop-color="#0E3BAC"/>
      <stop offset="100%" stop-color="#1A0570"/>
    </linearGradient>
    <linearGradient id="folder-documents-64px-o" x1="50%" x2="50%" y1="0%" y2="100%">
      <stop offset="0%" stop-color="#242424"/>
      <stop offset="100%"/>
    </linearGradient>
    <linearGradient id="folder-documents-64px-p" x1="29.396%" x2="100%" y1="60.605%" y2="60.605%">
      <stop offset="0%" stop-color="#F6F6F6"/>
      <stop offset="100%" stop-color="#939393"/>
    </linearGradient>
    <linearGradient id="folder-documents-64px-q" x1="32.652%" x2="100%" y1="41.854%" y2="45.792%">
      <stop offset="0%" stop-color="#FCAFD2"/>
      <stop offset="100%" stop-color="#FF4B8D"/>
    </linearGradient>
    <path id="folder-documents-64px-r" d="M0.549019608,26 L2.54901961,26 L2.54901961,26.5 C2.54901961,26.7761424 2.32516198,27 2.04901961,27 L1.04901961,27 C0.772877233,27 0.549019608,26.7761424 0.549019608,26.5 L0.549019608,26 Z"/>
    <filter id="folder-documents-64px-s" width="200%" height="300%" x="-50%" y="-100%" filterUnits="objectBoundingBox">
      <feGaussianBlur in="SourceAlpha" result="shadowBlurInner1" stdDeviation=".5"/>
      <feOffset dx="-1" dy="-1" in="shadowBlurInner1" result="shadowOffsetInner1"/>
      <feComposite in="shadowOffsetInner1" in2="SourceAlpha" k2="-1" k3="1" operator="arithmetic" result="shadowInnerInner1"/>
      <feColorMatrix in="shadowInnerInner1" values="0 0 0 0 0.376992985   0 0 0 0 0   0 0 0 0 0  0 0 0 0.5 0"/>
    </filter>
    <linearGradient id="folder-documents-64px-t" x1="50.54%" x2="49.897%" y1="45.328%" y2="60.059%">
      <stop offset="0%" stop-color="#463417"/>
      <stop offset="100%" stop-color="#281212"/>
    </linearGradient>
    <linearGradient id="folder-documents-64px-u" x1="50%" x2="50%" y1="0%" y2="100%">
      <stop offset="0%" stop-color="#080808"/>
      <stop offset="100%" stop-color="#481D1D"/>
    </linearGradient>
    <linearGradient id="folder-documents-64px-v" x1="11.779%" x2="76.358%" y1="79.249%" y2="79.249%">
      <stop offset="0%" stop-color="#6A6A6A"/>
      <stop offset="100%" stop-color="#0A0A0A"/>
    </linearGradient>
  </defs>
  <g fill="none" fill-rule="evenodd">
    <g filter="url(#folder-documents-64px-a)" transform="translate(4 11)">
      <mask id="folder-documents-64px-d" fill="#fff">
        <use xlink:href="#folder-documents-64px-b"/>
      </mask>
      <use fill="url(#folder-documents-64px-c)" xlink:href="#folder-documents-64px-b"/>
      <g mask="url(#folder-documents-64px-d)">
        <use fill="#000" filter="url(#folder-documents-64px-e)" xlink:href="#folder-documents-64px-f"/>
        <use fill="url(#folder-documents-64px-g)" xlink:href="#folder-documents-64px-f"/>
        <use fill="#000" filter="url(#folder-documents-64px-h)" xlink:href="#folder-documents-64px-f"/>
      </g>
      <g fill="url(#folder-documents-64px-i)" mask="url(#folder-documents-64px-d)">
        <path d="M0,0.5 L56,0.5 L56,29.5 C56,33.3659932 52.8659932,36.5 49,36.5 L7,36.5 C3.13400675,36.5 4.73447626e-16,33.3659932 0,29.5 L0,0.5 Z" transform="translate(0 11.5)"/>
      </g>
    </g>
    <g transform="translate(19 27)">
      <g transform="translate(0 1.053)">
        <use fill="#000" filter="url(#folder-documents-64px-j)" xlink:href="#folder-documents-64px-k"/>
        <use fill="url(#folder-documents-64px-l)" xlink:href="#folder-documents-64px-k"/>
        <polygon fill="url(#folder-documents-64px-m)" points="2 2.947 11 2.947 11 9.947 2 9.947"/>
        <path fill="#FF5151" d="M8.9914611,8.15690026 C9.35930161,8.15690026 9.65749526,7.85256954 9.65749526,7.47715857 C9.65749526,7.10174761 9.35930161,6.79741689 8.9914611,6.79741689 C8.62362059,6.79741689 8.32542694,7.10174761 8.32542694,7.47715857 C8.32542694,7.85256954 8.62362059,8.15690026 8.9914611,8.15690026 Z"/>
        <path fill="url(#folder-documents-64px-n)" d="M2,9.94690265 L9,9.94690265 L7.27492834,7.91933001 C7.1891108,7.81846389 7.03952384,7.80202131 6.93384564,7.88183826 L5.88121619,8.67687139 C5.77103926,8.76008615 5.61426432,8.73822899 5.53104956,8.62805206 C5.52606567,8.62145336 5.52141225,8.61461144 5.51710647,8.60755154 L4.48278495,6.91164473 C4.41089231,6.79376724 4.25705323,6.75648916 4.13917575,6.8283818 C4.10861933,6.84701795 4.08242064,6.87199788 4.06235111,6.90163257 L2,9.94690265 Z"/>
      </g>
      <g transform="translate(22.451)">
        <polygon fill="url(#folder-documents-64px-o)" points=".549 3 2.549 3 2.549 25 .549 25"/>
        <rect width="2" height="1" x=".549" y="25" fill="url(#folder-documents-64px-p)"/>
        <use fill="url(#folder-documents-64px-q)" xlink:href="#folder-documents-64px-r"/>
        <use fill="#000" filter="url(#folder-documents-64px-s)" xlink:href="#folder-documents-64px-r"/>
        <polygon fill="url(#folder-documents-64px-t)" points=".549 3 1.549 3 1.549 25 .549 25"/>
        <polygon fill="url(#folder-documents-64px-u)" points="1.549 3 2.549 3 2.549 25 1.549 25"/>
        <polygon fill="#FFDCAC" points="1.549 0 2.549 3 .549 3"/>
        <polygon fill="#965600" points="1.549 0 2.549 3 1.549 3"/>
        <path fill="url(#folder-documents-64px-v)" d="M1.88235294,1 L1.21568627,1 L1.54901961,0 L1.88235294,1 Z M2.54901961,3 L0.549019608,3 L2.54901961,3 Z"/>
      </g>
    </g>
  </g>
</svg>
