<svg xmlns="http://www.w3.org/2000/svg" xmlns:xlink="http://www.w3.org/1999/xlink" width="64" height="64" viewBox="0 0 64 64">
  <defs>
    <filter id="folder-open-a" width="128.6%" height="133.3%" x="-14.3%" y="-16.7%" filterUnits="objectBoundingBox">
      <feOffset dy="1" in="SourceAlpha" result="shadowOffsetOuter1"/>
      <feGaussianBlur in="shadowOffsetOuter1" result="shadowBlurOuter1" stdDeviation="1.5"/>
      <feComposite in="shadowBlurOuter1" in2="SourceAlpha" operator="out" result="shadowBlurOuter1"/>
      <feColorMatrix in="shadowBlurOuter1" result="shadowMatrixOuter1" values="0 0 0 0 0   0 0 0 0 0   0 0 0 0 0  0 0 0 0.2 0"/>
      <feMerge>
        <feMergeNode in="shadowMatrixOuter1"/>
        <feMergeNode in="SourceGraphic"/>
      </feMerge>
    </filter>
    <linearGradient id="folder-open-c" x1="50%" x2="50%" y1="0%" y2="37.968%">
      <stop offset="0%" stop-color="#147ADD"/>
      <stop offset="100%" stop-color="#0D00E9"/>
    </linearGradient>
    <path id="folder-open-b" d="M31.2792793,3 C32.0434808,4.81770784 33.8230705,6 35.7948884,6 L49,6 C52.8659932,6 56,9.13400675 56,13 L56,41 C56,44.8659932 52.8659932,48 49,48 L7,48 C3.13400675,48 -4.92645439e-14,44.8659932 -4.97379915e-14,41 L-4.97379915e-14,7 C-5.02114391e-14,3.13400675 3.13400675,-2.7711538e-14 7,-2.84217094e-14 L26.7636702,-2.84217094e-14 C28.735488,-2.87839265e-14 30.5150778,1.18229216 31.2792793,3 Z"/>
    <linearGradient id="folder-open-g" x1="50%" x2="50%" y1="0%" y2="77.929%">
      <stop offset="0%" stop-color="#B5B7B8"/>
      <stop offset="100%" stop-color="#80B0BD"/>
    </linearGradient>
    <rect id="folder-open-f" width="50.955" height="20.75" x="2.523" y="9" rx="4.5"/>
    <filter id="folder-open-e" width="111.8%" height="128.9%" x="-5.9%" y="-14.5%" filterUnits="objectBoundingBox">
      <feOffset in="SourceAlpha" result="shadowOffsetOuter1"/>
      <feGaussianBlur in="shadowOffsetOuter1" result="shadowBlurOuter1" stdDeviation="1"/>
      <feColorMatrix in="shadowBlurOuter1" values="0 0 0 0 0   0 0 0 0 0   0 0 0 0 0  0 0 0 0.2 0"/>
    </filter>
    <filter id="folder-open-h" width="109.8%" height="124.1%" x="-4.9%" y="-12%" filterUnits="objectBoundingBox">
      <feOffset dy="1" in="SourceAlpha" result="shadowOffsetInner1"/>
      <feComposite in="shadowOffsetInner1" in2="SourceAlpha" k2="-1" k3="1" operator="arithmetic" result="shadowInnerInner1"/>
      <feColorMatrix in="shadowInnerInner1" values="0 0 0 0 0.827247509   0 0 0 0 0.827247509   0 0 0 0 0.827247509  0 0 0 0.5 0"/>
    </filter>
    <radialGradient id="folder-open-i" cx="50%" cy="0%" r="118.109%" fx="50%" fy="0%" gradientTransform="scale(.46429 1) rotate(82.394 .788 .33)">
      <stop offset="0%" stop-color="#1D95E9"/>
      <stop offset="100%" stop-color="#0B43D8"/>
    </radialGradient>
  </defs>
  <g fill="none" fill-rule="evenodd" filter="url(#folder-open-a)" transform="translate(4 11)">
    <mask id="folder-open-d" fill="#fff">
      <use xlink:href="#folder-open-b"/>
    </mask>
    <use fill="url(#folder-open-c)" xlink:href="#folder-open-b"/>
    <g mask="url(#folder-open-d)">
      <use fill="#000" filter="url(#folder-open-e)" xlink:href="#folder-open-f"/>
      <use fill="url(#folder-open-g)" xlink:href="#folder-open-f"/>
      <use fill="#000" filter="url(#folder-open-h)" xlink:href="#folder-open-f"/>
    </g>
    <g fill="url(#folder-open-i)" mask="url(#folder-open-d)">
      <path d="M0,0.5 L56,0.5 L56,19.5 C56,23.3659932 52.8659932,26.5 49,26.5 L7,26.5 C3.13400675,26.5 4.73447626e-16,23.3659932 0,19.5 L0,0.5 L0,0.5 Z" transform="translate(0 21.5)"/>
    </g>
  </g>
</svg>
