<svg xmlns="http://www.w3.org/2000/svg" width="64" height="64" viewBox="0 0 64 64">
  <defs>
    <filter id="dialog-question-a" width="128.6%" height="128.6%" x="-14.3%" y="-14.3%" filterUnits="objectBoundingBox">
      <feOffset dy="1" in="SourceAlpha" result="shadowOffsetOuter1"/>
      <feGaussianBlur in="shadowOffsetOuter1" result="shadowBlurOuter1" stdDeviation="1.5"/>
      <feColorMatrix in="shadowBlurOuter1" result="shadowMatrixOuter1" values="0 0 0 0 0   0 0 0 0 0   0 0 0 0 0  0 0 0 0.2 0"/>
      <feMerge>
        <feMergeNode in="shadowMatrixOuter1"/>
        <feMergeNode in="SourceGraphic"/>
      </feMerge>
    </filter>
    <linearGradient id="dialog-question-b" x1="50%" x2="50%" y1="0%" y2="100%">
      <stop offset="0%" stop-color="#9AD7EF"/>
      <stop offset="100%" stop-color="#61AEDB"/>
    </linearGradient>
    <linearGradient id="dialog-question-c" x1="50%" x2="50%" y1="0%" y2="100%">
      <stop offset="0%" stop-opacity=".149"/>
      <stop offset="100%" stop-opacity=".3"/>
    </linearGradient>
    <linearGradient id="dialog-question-d" x1="50%" x2="50%" y1="1.407%" y2="100%">
      <stop offset="0%" stop-opacity=".146"/>
      <stop offset="100%" stop-opacity=".2"/>
    </linearGradient>
  </defs>
  <g fill="none" filter="url(#dialog-question-a)" transform="translate(4 3)">
    <circle cx="28" cy="28" r="28" fill="url(#dialog-question-b)"/>
    <path fill="url(#dialog-question-c)" d="M28,0 C43.463973,0 56,12.536027 56,28 C56,43.463973 43.463973,56 28,56 C12.536027,56 0,43.463973 0,28 C0,12.536027 12.536027,0 28,0 Z M28,1 C13.0883118,1 1,13.0883118 1,28 C1,42.9116882 13.0883118,55 28,55 C42.9116882,55 55,42.9116882 55,28 C55,13.0883118 42.9116882,1 28,1 Z"/>
    <path fill="#FFF" d="M28,36 C29.6846947,36 31,37.3153053 31,39 C31,40.6605881 29.6735921,42 28,42 C26.3264079,42 25,40.6605881 25,39 C25,37.3153053 26.3153053,36 28,36 Z M28.468,12.96 C34.1785728,12.96 37.968,15.7046154 37.968,19.9843519 C37.968,22.858853 36.882884,24.675952 33.3328167,27.0068188 C30.2408493,28.7804809 29.0706287,30.087734 28.6329793,31.0204247 C28.1923697,32.5680604 28,34 27,33.5 C26,33 26,31.916658 26,31 C26,28.5 29.2518819,25.5253283 29.4522353,25.2779172 C31.3753311,22.8992916 32.072,21.5483621 32.072,19.4265357 C32.072,16.4206734 30.4418576,14.7367478 27.64,14.7367478 C25.1314221,14.7367478 23.316,16.1849102 23.316,17.4183975 C23.316,17.7167857 23.4706135,17.8638914 23.8296148,17.9566688 C25.3642533,18.3265653 26.124,19.0803988 26.124,20.7281068 C26.124,22.4889526 24.9057249,23.77337 23.032,23.77337 C21.003148,23.77337 19.58,22.1861804 19.58,20.1702907 C19.58,16.0244775 23.4238833,12.96 28.468,12.96 Z"/>
    <path fill="url(#dialog-question-d)" d="M28,35 C30.2369794,35 32,36.7630206 32,39 C32,41.2167107 30.2220547,43 28,43 C25.7779453,43 24,41.2167107 24,39 C24,36.7630206 25.7630206,35 28,35 Z M28,36 C26.3153053,36 25,37.3153053 25,39 C25,40.6012814 26.2333563,41.9039181 27.8220597,41.9949211 L28,42 L28.1779403,41.9949211 C29.7666437,41.9039181 31,40.6012814 31,39 C31,37.3153053 29.6846947,36 28,36 Z M28.468,11.96 C34.7038378,11.96 38.968,15.0945565 38.968,19.9843519 C38.968,23.2996491 37.6137522,25.3923652 33.830398,27.8742361 C31.3729124,29.283937 30.0787846,30.4242724 29.5946002,31.3328494 L29.571,31.379 L29.313998,32.3338573 C29.1012656,33.1090171 28.9342193,33.5531201 28.6506036,33.9294226 C28.1421147,34.604088 27.3476209,34.7918445 26.5527864,34.3944272 C25.4859051,33.8609865 25.0777375,32.9426345 25.0123145,31.6793305 L25.002937,31.4217304 L25,31 C25,30.5321734 25.0841071,30.0523229 25.2417712,29.5614766 C25.5241994,28.68221 26.0321761,27.7878045 26.7115526,26.8779239 L27.0225868,26.4756327 L27.3848182,26.0426384 L27.784739,25.5879197 L28.2548634,25.0725629 L28.6352553,24.6733907 L28.6967909,24.617513 L28.6745976,24.6492046 C30.5537187,22.32497 31.072,21.1994167 31.072,19.4265357 C31.072,16.9770596 29.8923193,15.7367478 27.64,15.7367478 C26.6519865,15.7367478 25.7507854,16.0039185 25.0954279,16.4447586 C24.8374999,16.6182593 24.6426429,16.8023185 24.5122679,16.9726777 L24.434,17.085 L24.4992692,17.1049473 C26.1013963,17.6100869 26.9743631,18.6274884 27.1063699,20.2735171 L27.119777,20.5018829 L27.124,20.7281068 C27.124,23.070563 25.4288249,24.77337 23.032,24.77337 C20.4702148,24.77337 18.58,22.760975 18.58,20.1702907 C18.58,15.438091 22.8898441,11.96 28.468,11.96 Z M28.468,12.96 C23.4238833,12.96 19.58,16.0244775 19.58,20.1702907 C19.58,22.1189841 20.9098527,23.667081 22.8311641,23.7681223 L23.032,23.77337 L23.2302225,23.7684919 C24.9911906,23.6810182 26.124,22.4260653 26.124,20.7281068 C26.124,19.0803988 25.3642533,18.3265653 23.8296148,17.9566688 C23.4706135,17.8638914 23.316,17.7167857 23.316,17.4183975 C23.316,16.1849102 25.1314221,14.7367478 27.64,14.7367478 C30.4418576,14.7367478 32.072,16.4206734 32.072,19.4265357 C32.072,21.5483621 31.3753311,22.8992916 29.4522353,25.2779172 L29.3864851,25.3492369 L28.8860935,25.8638205 L28.6439095,26.1225219 L28.3768622,26.4182929 C28.33071,26.4704599 28.2838426,26.5240086 28.2364204,26.5788574 L27.9465119,26.9229008 C27.0155098,28.0576501 26,29.6029412 26,31 L26.0013717,31.3106973 C26.0123457,32.1501989 26.1111111,33.0555556 27,33.5 C27.1428571,33.5714286 27.269232,33.6034298 27.382203,33.6014893 L27.4644661,33.5933836 C27.8188706,33.5305795 28.0332628,33.1041965 28.2212059,32.509579 L28.3217798,32.1697318 L28.6329793,31.0204247 L28.7306291,30.8288652 L28.8499283,30.627154 C28.8935378,30.5582069 28.9411079,30.4875407 28.9929909,30.415128 L29.161931,30.1926238 C29.5879592,29.6610958 30.2425854,29.0426625 31.2466651,28.3279896 L31.6987325,28.0157818 L32.1957041,27.6916262 C32.5424564,27.4715036 32.9205544,27.2433071 33.3328167,27.0068188 C36.882884,24.675952 37.968,22.858853 37.968,19.9843519 C37.968,15.7046154 34.1785728,12.96 28.468,12.96 Z"/>
  </g>
</svg>
