<svg xmlns="http://www.w3.org/2000/svg" width="64" height="64" viewBox="0 0 64 64">
  <defs>
    <filter id="dialog-window-scale-a" width="128.6%" height="128.6%" x="-14.3%" y="-14.3%" filterUnits="objectBoundingBox">
      <feOffset dy="1" in="SourceAlpha" result="shadowOffsetOuter1"/>
      <feGaussianBlur in="shadowOffsetOuter1" result="shadowBlurOuter1" stdDeviation="1.5"/>
      <feColorMatrix in="shadowBlurOuter1" result="shadowMatrixOuter1" values="0 0 0 0 0   0 0 0 0 0   0 0 0 0 0  0 0 0 0.2 0"/>
      <feMerge>
        <feMergeNode in="shadowMatrixOuter1"/>
        <feMergeNode in="SourceGraphic"/>
      </feMerge>
    </filter>
    <linearGradient id="dialog-window-scale-b" x1="50%" x2="50%" y1="0%" y2="100%">
      <stop offset="0%" stop-color="#9898A0"/>
      <stop offset="100%" stop-color="#5F5F67"/>
    </linearGradient>
    <linearGradient id="dialog-window-scale-c" x1="50%" x2="50%" y1=".448%" y2="100%">
      <stop offset="0%" stop-opacity=".157"/>
      <stop offset="100%" stop-opacity=".199"/>
    </linearGradient>
    <linearGradient id="dialog-window-scale-d" x1="50%" x2="50%" y1="1.407%" y2="100%">
      <stop offset="0%" stop-opacity=".146"/>
      <stop offset="100%" stop-opacity=".2"/>
    </linearGradient>
    <linearGradient id="dialog-window-scale-e" x1="50%" x2="50%" y1="1.407%" y2="100%">
      <stop offset="0%" stop-opacity=".146"/>
      <stop offset="100%" stop-opacity=".2"/>
    </linearGradient>
  </defs>
  <g fill="none" filter="url(#dialog-window-scale-a)" transform="translate(4 3)">
    <circle cx="28" cy="28" r="28" fill="url(#dialog-window-scale-b)"/>
    <path fill="url(#dialog-window-scale-c)" d="M28,0 C43.463973,0 56,12.536027 56,28 C56,43.463973 43.463973,56 28,56 C12.536027,56 0,43.463973 0,28 C0,12.536027 12.536027,0 28,0 Z M28,1 C13.0883118,1 1,13.0883118 1,28 C1,42.9116882 13.0883118,55 28,55 C42.9116882,55 55,42.9116882 55,28 C55,13.0883118 42.9116882,1 28,1 Z"/>
    <g transform="translate(12 14)">
      <path fill="#FFF" d="M1,3 C1,1.8954305 1.8954305,1 3,1 L3,1 L29,1 C30.1045695,1 31,1.8954305 31,3 L31,3 L31,25 C31,26.1045695 30.1045695,27 29,27 L29,27 L3,27 C2.99163205,27 2.9832761,26.9999486 2.97493245,26.9998461 L2,27 C1.44771525,27 1,26.5522847 1,26 Z M29,3 L3,3 L3,10.359 L22,10.36 C22.5522847,10.36 23,10.8077153 23,11.36 L23,25 L29,25 L29,3 Z"/>
      <path fill="url(#dialog-window-scale-d)" d="M29,0 C30.5153883,0 31.7797074,1.12716223 31.9759792,2.63801992 L31.9938396,2.81401014 L32,3 L32,25 C32,26.5153883 30.8728378,27.7797074 29.3619801,27.9759792 L29.1859899,27.9938396 L29,28 L2,28 C0.945638205,28 0.0818348781,27.1841222 0.00548573643,26.1492623 L0,26 L0,3 C0,1.4846117 1.12716223,0.220292635 2.63801992,0.0240208289 L2.81401014,0.00616041928 L3,0 L29,0 Z M29,1 L3,1 L2.85073766,1.00548574 C1.86762078,1.07801742 1.08213523,1.86122651 1.00604447,2.84334953 L1,3 L1,26 C1,26.5128358 1.38604019,26.9355072 1.88337887,26.9932723 L2,27 L29,27 L29.1492623,26.9945143 C30.1323792,26.9219826 30.9178648,26.1387735 30.9939555,25.1566505 L31,25 L31,3 L30.9945143,2.85073766 C30.9219826,1.86762078 30.1387735,1.08213523 29.1566505,1.00604447 L29,1 Z"/>
    </g>
    <path stroke="url(#dialog-window-scale-e)" d="M15.5,17.5 L40.5,17.5 L40.5,38.5 L35.5,38.5 L35.5,25.36 C35.5,24.9774642 35.356764,24.6284033 35.1210967,24.3634188 C34.8760211,24.0878554 34.5308082,23.9035581 34.1427592,23.8667383 L34.1427592,23.8667383 L15.5,23.8592021 L15.5,17.5 Z"/>
  </g>
</svg>
