<svg xmlns="http://www.w3.org/2000/svg" xmlns:xlink="http://www.w3.org/1999/xlink" width="48" height="48" viewBox="0 0 48 48">
  <defs>
    <filter id="media-flash-a" width="140.6%" height="132.5%" x="-20.3%" y="-16.2%" filterUnits="objectBoundingBox">
      <feOffset dy="1" in="SourceAlpha" result="shadowOffsetOuter1"/>
      <feGaussianBlur in="shadowOffsetOuter1" result="shadowBlurOuter1" stdDeviation="1"/>
      <feComposite in="shadowBlurOuter1" in2="SourceAlpha" operator="out" result="shadowBlurOuter1"/>
      <feColorMatrix in="shadowBlurOuter1" result="shadowMatrixOuter1" values="0 0 0 0 0   0 0 0 0 0   0 0 0 0 0  0 0 0 0.2 0"/>
      <feMerge>
        <feMergeNode in="shadowMatrixOuter1"/>
        <feMergeNode in="SourceGraphic"/>
      </feMerge>
    </filter>
    <linearGradient id="media-flash-b" x1="50%" x2="50%" y1="0%" y2="98.789%">
      <stop offset="0%" stop-color="#555"/>
      <stop offset="100%" stop-color="#272727"/>
    </linearGradient>
    <path id="media-flash-c" d="M0,24 L0,6 L0,4.50142398 C0,2.01535617 2.00494659,0 4.50013175,0 L21.3398809,0 C22.8090241,0 24.8410197,0.84101975 25.885758,1.885758 L32,8 L32,11 L32,11 C30.8954305,11.5522847 30,13.0118246 30,14.2513426 L30,14.7486574 C30,15.9920396 30.9063721,17.453186 32,18 L32,18 L32,35.494884 C32,37.9829909 29.9861344,40 27.4999594,40 L4.50004057,40 C2.01473679,40 0,37.9897898 0,35.5005291 L0,24 Z"/>
    <filter id="media-flash-d" width="103.1%" height="102.5%" x="-1.6%" y="-1.2%" filterUnits="objectBoundingBox">
      <feOffset dy="1" in="SourceAlpha" result="shadowOffsetInner1"/>
      <feComposite in="shadowOffsetInner1" in2="SourceAlpha" k2="-1" k3="1" operator="arithmetic" result="shadowInnerInner1"/>
      <feColorMatrix in="shadowInnerInner1" values="0 0 0 0 1   0 0 0 0 1   0 0 0 0 1  0 0 0 0.13 0"/>
    </filter>
    <rect id="media-flash-e" width="3" height="8.25" x="3" y="3" rx="1"/>
    <filter id="media-flash-f" width="166.7%" height="124.2%" x="-33.3%" y="-12.1%" filterUnits="objectBoundingBox">
      <feOffset dy="2" in="SourceAlpha" result="shadowOffsetInner1"/>
      <feComposite in="shadowOffsetInner1" in2="SourceAlpha" k2="-1" k3="1" operator="arithmetic" result="shadowInnerInner1"/>
      <feColorMatrix in="shadowInnerInner1" values="0 0 0 0 0.819607843   0 0 0 0 0.623529412   0 0 0 0 0  0 0 0 1 0"/>
    </filter>
    <rect id="media-flash-g" width="3" height="8.25" x="8" y="3" rx="1"/>
    <filter id="media-flash-h" width="166.7%" height="124.2%" x="-33.3%" y="-12.1%" filterUnits="objectBoundingBox">
      <feOffset dy="2" in="SourceAlpha" result="shadowOffsetInner1"/>
      <feComposite in="shadowOffsetInner1" in2="SourceAlpha" k2="-1" k3="1" operator="arithmetic" result="shadowInnerInner1"/>
      <feColorMatrix in="shadowInnerInner1" values="0 0 0 0 0.819607843   0 0 0 0 0.623529412   0 0 0 0 0  0 0 0 1 0"/>
    </filter>
    <rect id="media-flash-i" width="3" height="8.25" x="13" y="3" rx="1"/>
    <filter id="media-flash-j" width="166.7%" height="124.2%" x="-33.3%" y="-12.1%" filterUnits="objectBoundingBox">
      <feOffset dy="2" in="SourceAlpha" result="shadowOffsetInner1"/>
      <feComposite in="shadowOffsetInner1" in2="SourceAlpha" k2="-1" k3="1" operator="arithmetic" result="shadowInnerInner1"/>
      <feColorMatrix in="shadowInnerInner1" values="0 0 0 0 0.819607843   0 0 0 0 0.623529412   0 0 0 0 0  0 0 0 1 0"/>
    </filter>
    <rect id="media-flash-k" width="3" height="8.25" x="18" y="3" rx="1"/>
    <filter id="media-flash-l" width="166.7%" height="124.2%" x="-33.3%" y="-12.1%" filterUnits="objectBoundingBox">
      <feOffset dy="2" in="SourceAlpha" result="shadowOffsetInner1"/>
      <feComposite in="shadowOffsetInner1" in2="SourceAlpha" k2="-1" k3="1" operator="arithmetic" result="shadowInnerInner1"/>
      <feColorMatrix in="shadowInnerInner1" values="0 0 0 0 0.819607843   0 0 0 0 0.623529412   0 0 0 0 0  0 0 0 1 0"/>
    </filter>
  </defs>
  <g fill="none" fill-rule="evenodd" filter="url(#media-flash-a)" transform="translate(8 4)">
    <use fill="url(#media-flash-b)" xlink:href="#media-flash-c"/>
    <use fill="#000" filter="url(#media-flash-d)" xlink:href="#media-flash-c"/>
    <use fill="#C88200" xlink:href="#media-flash-e"/>
    <use fill="#000" filter="url(#media-flash-f)" xlink:href="#media-flash-e"/>
    <use fill="#C88200" xlink:href="#media-flash-g"/>
    <use fill="#000" filter="url(#media-flash-h)" xlink:href="#media-flash-g"/>
    <use fill="#C88200" xlink:href="#media-flash-i"/>
    <use fill="#000" filter="url(#media-flash-j)" xlink:href="#media-flash-i"/>
    <use fill="#C88200" xlink:href="#media-flash-k"/>
    <use fill="#000" filter="url(#media-flash-l)" xlink:href="#media-flash-k"/>
    <rect width="23" height="21" x="3" y="16" fill="#CCC"/>
    <path fill="#534FCB" d="M3 17.5C3 16.1192881 4.10933781 15 5.50518657 15L23.4948134 15C24.8783898 15 26 16.1096621 26 17.5L26 20 3 20 3 17.5zM8.66210938 34.8652344L8.66210938 32.1464844 9.36523438 32.1464844C9.56054785 32.9589884 9.85351367 33.5390608 10.2441406 33.8867188 10.6347676 34.2343767 11.0566384 34.4082031 11.5097656 34.4082031 11.8457048 34.4082031 12.1132803 34.3085947 12.3125 34.109375 12.5117197 33.9101553 12.6113281 33.6757826 12.6113281 33.40625 12.6113281 33.2148428 12.5488287 33.0234385 12.4238281 32.8320312 12.2988275 32.640624 12.0019555 32.4277355 11.5332031 32.1933594 10.6308549 31.7441384 10.021486 31.4150401 9.70507812 31.2060547 9.38867029 30.9970693 9.13476658 30.7285173 8.94335938 30.4003906 8.75195217 30.072264 8.65625 29.6953146 8.65625 29.2695312 8.65625 28.5859341 8.90136474 28.0224632 9.39160156 27.5791016 9.88183839 27.13574 10.4492155 26.9140625 11.09375 26.9140625 11.7695346 26.9140625 12.3437476 27.1406227 12.8164062 27.59375 12.8945316 27.4765619 12.9589841 27.2968762 13.0097656 27.0546875L13.6835938 27.0546875 13.6835938 29.3984375 13.0273438 29.3984375C12.9101557 28.8789037 12.6875016 28.4511736 12.359375 28.1152344 12.0312484 27.7792952 11.6621114 27.6113281 11.2519531 27.6113281 10.9433578 27.6113281 10.6982431 27.6972648 10.5166016 27.8691406 10.33496 28.0410165 10.2441406 28.2558581 10.2441406 28.5136719 10.2441406 28.7128916 10.3027338 28.8974601 10.4199219 29.0673828 10.53711 29.2373055 10.6953115 29.3779291 10.8945312 29.4892578 11.093751 29.6005865 11.5156218 29.8066391 12.1601562 30.1074219 12.7382841 30.3808607 13.1660142 30.6249989 13.4433594 30.8398438 13.7207045 31.0546886 13.9404289 31.3251937 14.1025391 31.6513672 14.2646492 31.9775407 14.3457031 32.3300762 14.3457031 32.7089844 14.3457031 33.4121129 14.0859401 33.997068 13.5664062 34.4638672 13.0468724 34.9306664 12.427738 35.1640625 11.7089844 35.1640625 11.2988261 35.1640625 10.8974629 35.0781259 10.5048828 34.90625 10.1123027 34.7343741 9.7988293 34.5058608 9.56445312 34.2207031 9.47460893 34.3964853 9.40820334 34.6113269 9.36523438 34.8652344L8.66210938 34.8652344zM15.1015625 35L15.1015625 34.3496094C15.5195333 34.3496094 15.7968743 34.2841803 15.9335938 34.1533203 16.0703132 34.0224603 16.1386719 33.7636738 16.1386719 33.3769531L16.1386719 28.671875C16.1386719 28.2968731 16.0742194 28.0410163 15.9453125 27.9042969 15.8164056 27.7675774 15.5351584 27.6992188 15.1015625 27.6992188L15.1015625 27.0546875 16.0566406 27.0195312C17.0175829 26.9804686 17.7714816 26.9609375 18.3183594 26.9609375 19.2324264 26.9609375 19.9755831 27.0136713 20.5478516 27.1191406 21.12012 27.2246099 21.6611303 27.4560529 22.1708984 27.8134766 22.6806666 28.1709002 23.0732408 28.6337862 23.3486328 29.2021484 23.6240248 29.7705107 23.7617188 30.396481 23.7617188 31.0800781 23.7617188 31.7793004 23.6162124 32.4042941 23.3251953 32.9550781 23.0341782 33.5058621 22.6425806 33.9453109 22.1503906 34.2734375 21.6582007 34.6015641 21.1484401 34.8046871 20.6210938 34.8828125 20.0937474 34.9609379 19.2070375 35 17.9609375 35L15.1015625 35zM18.21875 27.6757812L18.21875 33.1484375C18.21875 33.5000018 18.2353514 33.7363275 18.2685547 33.8574219 18.301758 33.9785162 18.3896477 34.0820308 18.5322266 34.1679688 18.6748054 34.2539067 18.8945298 34.296875 19.1914062 34.296875 19.9257849 34.296875 20.4755841 34.0273464 20.8408203 33.4882812 21.2060565 32.9492161 21.3886719 32.1425835 21.3886719 31.0683594 21.3886719 30.2011675 21.2539076 29.5107448 20.984375 28.9970703 20.7148424 28.4833959 20.3652365 28.1347665 19.9355469 27.9511719 19.5058572 27.7675772 18.9335973 27.6757812 18.21875 27.6757812L18.21875 27.6757812z"/>
  </g>
</svg>
