<svg xmlns="http://www.w3.org/2000/svg" xmlns:xlink="http://www.w3.org/1999/xlink" width="48" height="48" viewBox="0 0 48 48">
  <defs>
    <linearGradient id="application-x-xz-c" x1="50%" x2="50%" y1="0%" y2="97.687%">
      <stop offset="0%" stop-color="#666E7B"/>
      <stop offset="100%" stop-color="#475055"/>
    </linearGradient>
    <path id="application-x-xz-b" d="M21,0 L32,11 L32,34.5 C32,36.9852814 29.9852814,39 27.5,39 L4.5,39 C2.01471863,39 3.04359188e-16,36.9852814 0,34.5 L0,4.5 C-3.04359188e-16,2.01471863 2.01471863,2.23289562e-15 4.5,1.77635684e-15 L21,0 Z"/>
    <filter id="application-x-xz-a" width="131.2%" height="125.6%" x="-15.6%" y="-10.3%" filterUnits="objectBoundingBox">
      <feOffset dy="1" in="SourceAlpha" result="shadowOffsetOuter1"/>
      <feGaussianBlur in="shadowOffsetOuter1" result="shadowBlurOuter1" stdDeviation="1.5"/>
      <feColorMatrix in="shadowBlurOuter1" values="0 0 0 0 0.361595344   0 0 0 0 0.418797512   0 0 0 0 0.450973732  0 0 0 0.5 0"/>
    </filter>
    <linearGradient id="application-x-xz-f" x1="50%" x2="12.223%" y1="50%" y2="88.513%">
      <stop offset="0%" stop-color="#FFF" stop-opacity=".1"/>
      <stop offset="100%" stop-color="#FFF" stop-opacity=".3"/>
    </linearGradient>
    <path id="application-x-xz-e" d="M21,0 L32,11 L25.5,11 C23.0147186,11 21,8.98528137 21,6.5 L21,0 Z"/>
    <filter id="application-x-xz-d" width="163.6%" height="163.6%" x="-31.8%" y="-22.7%" filterUnits="objectBoundingBox">
      <feOffset dy="1" in="SourceAlpha" result="shadowOffsetOuter1"/>
      <feGaussianBlur in="shadowOffsetOuter1" result="shadowBlurOuter1" stdDeviation="1"/>
      <feComposite in="shadowBlurOuter1" in2="SourceAlpha" operator="out" result="shadowBlurOuter1"/>
      <feColorMatrix in="shadowBlurOuter1" values="0 0 0 0 0   0 0 0 0 0   0 0 0 0 0  0 0 0 0.05 0"/>
    </filter>
  </defs>
  <g fill="none" fill-rule="evenodd">
    <g transform="translate(8 5)">
      <use fill="#000" filter="url(#application-x-xz-a)" xlink:href="#application-x-xz-b"/>
      <use fill="url(#application-x-xz-c)" xlink:href="#application-x-xz-b"/>
      <use fill="#000" filter="url(#application-x-xz-d)" xlink:href="#application-x-xz-e"/>
      <use fill="url(#application-x-xz-f)" xlink:href="#application-x-xz-e"/>
    </g>
    <path fill="#FFF8F8" fill-opacity=".5" d="M21.5,25 L24.5,25 L24.5,23 L21.5,23 L21.5,21.5 L26.5,21.5 L26.5,26.5 L21.5,26.5 L21.5,25 Z M19.5,21.5 L19.5,26.5 L8,26.5 L8,21.5 L19.5,21.5 Z M28.5,21.5 L40,21.5 L40,26.5 L28.5,26.5 L28.5,21.5 Z"/>
    <path fill="#F4F4F4" d="M20.75,20 L27.25,20 C27.6642136,20 28,20.3357864 28,20.75 L28,27.25 C28,27.6642136 27.6642136,28 27.25,28 L20.75,28 C20.3357864,28 20,27.6642136 20,27.25 L20,20.75 C20,20.3357864 20.3357864,20 20.75,20 Z M21,21 L21,27 L27,27 L27,21 L21,21 Z M21,23.5 L24,23.5 L24,24.5 L21,24.5 L21,23.5 Z"/>
    <path fill="#FFF" fill-rule="nonzero" d="M17,39.5 L19.8413086,35.2661133 L17.1516113,31.2287598 L18.5273438,31.2287598 L20.498291,34.2890625 L22.4973145,31.2287598 L23.8056641,31.2287598 L21.1159668,35.2436523 L23.9572754,39.5 L22.5759277,39.5 L20.4477539,36.1533203 L18.3701172,39.5 L17,39.5 Z M24.2773438,39.5 L24.2773438,38.5678711 L29.3366699,32.2114258 L24.6142578,32.2114258 L24.6142578,31.2287598 L30.6394043,31.2287598 L30.6394043,32.2675781 L25.6811523,38.4892578 L30.6394043,38.4892578 L30.6394043,39.5 L24.2773438,39.5 Z"/>
  </g>
</svg>
