<svg xmlns="http://www.w3.org/2000/svg" xmlns:xlink="http://www.w3.org/1999/xlink" width="48" height="48" viewBox="0 0 48 48">
  <defs>
    <linearGradient id="text-plain-c" x1="50%" x2="50%" y1="0%" y2="98.947%">
      <stop offset="0%" stop-color="#F7F7F7"/>
      <stop offset="100%" stop-color="#F6F6F6"/>
    </linearGradient>
    <path id="text-plain-b" d="M21,0 L32,11 L32,34.5 C32,36.9852814 29.9852814,39 27.5,39 L4.5,39 C2.01471863,39 3.04359188e-16,36.9852814 0,34.5 L0,4.5 C-3.04359188e-16,2.01471863 2.01471863,2.23289562e-15 4.5,1.77635684e-15 L21,0 Z"/>
    <filter id="text-plain-a" width="134.4%" height="128.2%" x="-17.2%" y="-11.5%" filterUnits="objectBoundingBox">
      <feMorphology in="SourceAlpha" operator="dilate" radius=".5" result="shadowSpreadOuter1"/>
      <feOffset dy="1" in="shadowSpreadOuter1" result="shadowOffsetOuter1"/>
      <feGaussianBlur in="shadowOffsetOuter1" result="shadowBlurOuter1" stdDeviation="1.5"/>
      <feComposite in="shadowBlurOuter1" in2="SourceAlpha" operator="out" result="shadowBlurOuter1"/>
      <feColorMatrix in="shadowBlurOuter1" values="0 0 0 0 0   0 0 0 0 0   0 0 0 0 0  0 0 0 0.1 0"/>
    </filter>
    <linearGradient id="text-plain-f" x1="50%" x2="12.223%" y1="50%" y2="88.513%">
      <stop offset="0%" stop-color="#FFF" stop-opacity=".1"/>
      <stop offset="100%" stop-color="#FFF" stop-opacity=".3"/>
    </linearGradient>
    <path id="text-plain-e" d="M21,0 L32,11 L25.5,11 C23.0147186,11 21,8.98528137 21,6.5 L21,0 Z"/>
    <filter id="text-plain-d" width="163.6%" height="163.6%" x="-31.8%" y="-22.7%" filterUnits="objectBoundingBox">
      <feOffset dy="1" in="SourceAlpha" result="shadowOffsetOuter1"/>
      <feGaussianBlur in="shadowOffsetOuter1" result="shadowBlurOuter1" stdDeviation="1"/>
      <feComposite in="shadowBlurOuter1" in2="SourceAlpha" operator="out" result="shadowBlurOuter1"/>
      <feColorMatrix in="shadowBlurOuter1" values="0 0 0 0 0   0 0 0 0 0   0 0 0 0 0  0 0 0 0.05 0"/>
    </filter>
  </defs>
  <g fill="none" fill-rule="evenodd">
    <g transform="translate(8 5)">
      <use fill="#000" filter="url(#text-plain-a)" xlink:href="#text-plain-b"/>
      <path fill="url(#text-plain-c)" stroke="#000" stroke-opacity=".1" stroke-width=".5" d="M21.1767767,-0.176776695 L32.1767767,10.8232233 L32.25,11 L32.25,34.5 C32.25,37.1233526 30.1233526,39.25 27.5,39.25 L4.5,39.25 C1.87664744,39.25 -0.25,37.1233526 -0.25,34.5 L-0.25,4.5 C-0.25,1.87664744 1.87664744,-0.25 4.5,-0.25 L21,-0.25 L21.1767767,-0.176776695 Z"/>
      <use fill="#000" filter="url(#text-plain-d)" xlink:href="#text-plain-e"/>
      <use fill="url(#text-plain-f)" xlink:href="#text-plain-e"/>
    </g>
    <path fill="#ACA3C2" d="M12.968,18 L34.968,18 L34.968,19 L12.968,19 L12.968,18 L12.968,18 Z M12.968,22 L34.968,22 L34.968,23 L12.968,23 L12.968,22 L12.968,22 Z M12.968,26 L34.968,26 L34.968,27 L12.968,27 L12.968,26 L12.968,26 Z M12.968,30 L34.968,30 L34.968,31 L12.968,31 L12.968,30 L12.968,30 Z M12.968,34 L34.968,34 L34.968,35 L12.968,35 L12.968,34 L12.968,34 Z"/>
  </g>
</svg>
