<svg xmlns="http://www.w3.org/2000/svg" xmlns:xlink="http://www.w3.org/1999/xlink" width="48" height="48" viewBox="0 0 48 48">
  <defs>
    <linearGradient id="video-x-mp4-c" x1="50%" x2="50%" y1="0%" y2="100%">
      <stop offset="0%" stop-color="#327DFF"/>
      <stop offset="100%" stop-color="#1066FF"/>
    </linearGradient>
    <path id="video-x-mp4-b" d="M21,0 L32,11 L32,34.5 C32,36.9852814 29.9852814,39 27.5,39 L4.5,39 C2.01471863,39 3.04359188e-16,36.9852814 0,34.5 L0,4.5 C-3.04359188e-16,2.01471863 2.01471863,2.23289562e-15 4.5,1.77635684e-15 L21,0 Z"/>
    <filter id="video-x-mp4-a" width="131.2%" height="125.6%" x="-15.6%" y="-10.3%" filterUnits="objectBoundingBox">
      <feOffset dy="1" in="SourceAlpha" result="shadowOffsetOuter1"/>
      <feGaussianBlur in="shadowOffsetOuter1" result="shadowBlurOuter1" stdDeviation="1.5"/>
      <feColorMatrix in="shadowBlurOuter1" values="0 0 0 0 0.0391387195   0 0 0 0 0.388542822   0 0 0 0 1  0 0 0 0.5 0"/>
    </filter>
    <linearGradient id="video-x-mp4-f" x1="50%" x2="12.223%" y1="50%" y2="88.513%">
      <stop offset="0%" stop-color="#FFF" stop-opacity=".1"/>
      <stop offset="100%" stop-color="#FFF" stop-opacity=".3"/>
    </linearGradient>
    <path id="video-x-mp4-e" d="M21,0 L32,11 L25.5,11 C23.0147186,11 21,8.98528137 21,6.5 L21,0 Z"/>
    <filter id="video-x-mp4-d" width="163.6%" height="163.6%" x="-31.8%" y="-22.7%" filterUnits="objectBoundingBox">
      <feOffset dy="1" in="SourceAlpha" result="shadowOffsetOuter1"/>
      <feGaussianBlur in="shadowOffsetOuter1" result="shadowBlurOuter1" stdDeviation="1"/>
      <feComposite in="shadowBlurOuter1" in2="SourceAlpha" operator="out" result="shadowBlurOuter1"/>
      <feColorMatrix in="shadowBlurOuter1" values="0 0 0 0 0   0 0 0 0 0   0 0 0 0 0  0 0 0 0.05 0"/>
    </filter>
  </defs>
  <g fill="none" fill-rule="evenodd">
    <g transform="translate(8 5)">
      <use fill="#000" filter="url(#video-x-mp4-a)" xlink:href="#video-x-mp4-b"/>
      <use fill="url(#video-x-mp4-c)" xlink:href="#video-x-mp4-b"/>
      <use fill="#000" filter="url(#video-x-mp4-d)" xlink:href="#video-x-mp4-e"/>
      <use fill="url(#video-x-mp4-f)" xlink:href="#video-x-mp4-e"/>
    </g>
    <path fill="#FFF" d="M25,34 C26.3807119,34 27,35 27,36 C27,37 26.3903379,38 25,38 L24.0011561,38 L24.0011561,40 L23,40 L23,34 L25,34 Z M24,35 L24,37 L25,37 C25.5560877,37 26,36.5549039 26,36 C26,35.4439123 25.5549039,35 25,35 L24,35 Z M30.5,38 L31.5,38 L31.5,39 L30.5,39 L30.5,40 L29.5,40 L29.5,39 L27,39 L27,38 L29.5,34 L30.5,34 L30.5,38 Z M29.5,38 L29.5,35.8699547 L28.1699993,38 L29.5,38 Z M19.5,39 L19,39 L18,36.5 L18,40 L17,40 L17,34 L17.5,34 L18,34 L19.5,37.75 L21,34 L21.5,34 L22,34 L22,40 L21,40 L21,36.5 L20,39 L19.5,39 Z M24,32 C19.0374,32 15,27.9626 15,23 C15,18.0374 19.0374,14 24,14 C28.9626,14 33,18.0374 33,23 C33,27.9626 28.9626,32 24,32 Z M24,15 C19.5893333,15 16,18.5884444 16,23 C16,27.4115556 19.5893333,31 24,31 C28.4106667,31 32,27.4115556 32,23 C32,18.5884444 28.4106667,15 24,15 Z M29.924,22.765 C30.127,22.88 30.127,23.173 29.924,23.287 L25.744,25.646 L21.493,28.024 C21.293,28.135 21.081,27.99 21.081,27.762 L21.081,23.021 L21.081,18.281 C21.081,18.052 21.293,17.908 21.493,18.019 L25.761,20.397 L29.924,22.765 Z"/>
  </g>
</svg>
