<?xml version="1.0" encoding="UTF-8"?>
<svg width="64px" height="64px" viewBox="0 0 64 64" version="1.1" xmlns="http://www.w3.org/2000/svg" xmlns:xlink="http://www.w3.org/1999/xlink">
    <!-- Generator: Sketch 49.1 (51147) - http://www.bohemiancoding.com/sketch -->
    <title>application-x-jar</title>
    <desc>Created with Sketch.</desc>
    <defs>
        <path d="M14,7 C14,6.17157288 14.6715729,5.5 15.5,5.5 L26.5,5.5 C27.3284271,5.5 28,6.17157288 28,7 L28,1.5 C28,0.671572875 28.6715729,1.52179594e-16 29.5,0 L40.5,0 C41.3284271,-1.52179594e-16 42,0.671572875 42,1.5 L42,50.5 C42,51.3284271 41.3284271,52 40.5,52 L29.5,52 C28.6715729,52 28,51.3284271 28,50.5 C28,51.3284271 27.3284271,52 26.5,52 L15.5,52 C14.6715729,52 14,51.3284271 14,50.5 C14,51.3284271 13.3284271,52 12.5,52 L1.25,52 C0.559644063,52 1.77635684e-15,51.3470819 1.77635684e-15,50.5416667 L0,4.45833333 C0,3.65291807 0.559644063,3 1.25,3 L12.5,3 C13.3284271,3 14,3.67157288 14,4.5 L14,7 Z" id="path-1"></path>
        <filter x="-11.9%" y="-7.7%" width="123.8%" height="119.2%" filterUnits="objectBoundingBox" id="filter-2">
            <feOffset dx="0" dy="1" in="SourceAlpha" result="shadowOffsetOuter1"></feOffset>
            <feGaussianBlur stdDeviation="1.5" in="shadowOffsetOuter1" result="shadowBlurOuter1"></feGaussianBlur>
            <feComposite in="shadowBlurOuter1" in2="SourceAlpha" operator="out" result="shadowBlurOuter1"></feComposite>
            <feColorMatrix values="0 0 0 0 0   0 0 0 0 0   0 0 0 0 0  0 0 0 0.2 0" type="matrix" in="shadowBlurOuter1"></feColorMatrix>
        </filter>
        <linearGradient x1="98.4747561%" y1="48.4747561%" x2="1.52524386%" y2="48.4747561%" id="linearGradient-3">
            <stop stop-color="#C926EA" offset="0%"></stop>
            <stop stop-color="#B505C3" offset="100%"></stop>
        </linearGradient>
        <linearGradient x1="99.4549187%" y1="50.5450813%" x2="3.99781362%" y2="50.5450813%" id="linearGradient-4">
            <stop stop-color="#628FFF" offset="0%"></stop>
            <stop stop-color="#4084FF" offset="100%"></stop>
        </linearGradient>
        <linearGradient x1="100%" y1="50%" x2="6.53071043%" y2="50%" id="linearGradient-5">
            <stop stop-color="#6DBD00" offset="0%"></stop>
            <stop stop-color="#8FBF12" offset="100%"></stop>
        </linearGradient>
    </defs>
    <g id="application-x-jar" stroke="none" stroke-width="1" fill="none" fill-rule="evenodd">
        <g id="Group" transform="translate(11.000000, 7.000000)">
            <g id="Combined-Shape">
                <use fill="black" fill-opacity="1" filter="url(#filter-2)" xlink:href="#path-1"></use>
                <use fill-opacity="0.1" fill="#000000" fill-rule="evenodd" xlink:href="#path-1"></use>
            </g>
            <path d="M42,1.5 L42,50.5 C42,51.3284271 41.3284271,52 40.5,52 L29.5,52 C28.6715729,52 28,51.3284271 28,50.5 L28,1.5 C28,0.671572875 28.6715729,1.52179594e-16 29.5,0 L40.5,0 C41.3284271,-1.52179594e-16 42,0.671572875 42,1.5 Z" id="Rectangle-43" fill="url(#linearGradient-3)"></path>
            <path d="M28,6.5 L28,50.5 C28,51.3284271 27.3284271,52 26.5,52 L15.5,52 C14.6715729,52 14,51.3284271 14,50.5 L14,6.5 C14,5.67157288 14.6715729,5 15.5,5 L26.5,5 C27.3284271,5 28,5.67157288 28,6.5 Z" id="Rectangle-43" fill="url(#linearGradient-4)"></path>
            <path d="M14,4.5 L14,50.5 C14,51.3284271 13.3284271,52 12.5,52 L1.25,52 C0.559644063,52 1.77635684e-15,51.3470819 1.77635684e-15,50.5416667 L0,4.45833333 C0,3.65291807 0.559644063,3 1.25,3 L12.5,3 C13.3284271,3 14,3.67157288 14,4.5 Z" id="Rectangle-43" fill="url(#linearGradient-5)"></path>
            <path d="M14,50.25 L14,6.5 C14,5.67157288 14.6715729,5 15.5,5 L26.5,5 C27.3284271,5 28,5.67157288 28,6.5 L28,7.5 C28,6.67157288 27.3284271,6 26.5,6 L15.5,6 C14.6715729,6 14,6.67157288 14,7.5 L14,50 L14,50.25 Z M3.85466222e-17,5.45833333 L0,4.45833333 C0,3.65291807 0.559644063,3 1.25,3 L12.5,3 C13.3284271,3 14,3.67157288 14,4.5 L14,5.5 C14,4.67157288 13.3284271,4 12.5,4 L1.25,4 C0.559644063,4 0,4.65291807 0,5.45833333 Z M28,2.5 L28,1.5 C28,0.671572875 28.6715729,3.74224199e-16 29.5,2.22044605e-16 L40.5,2.22044605e-16 C41.3284271,6.98650109e-17 42,0.671572875 42,1.5 L42,2.5 C42,1.67157288 41.3284271,1 40.5,1 L29.5,1 C28.6715729,1 28,1.67157288 28,2.5 Z" id="Combined-Shape" fill-opacity="0.2" fill="#FFFFFF"></path>
            <path d="M1.77635684e-15,49.5416667 C1.77635684e-15,50.3470819 0.559644063,51 1.25,51 L12.5,51 C13.3284271,51 14,50.3284271 14,49.5 C14,50.3284271 14.6715729,51 15.5,51 L26.5,51 C27.3284271,51 28,50.3284271 28,49.5 C28,50.3284271 28.6715729,51 29.5,51 L40.5,51 C41.3284271,51 42,50.3284271 42,49.5 L42,50.5 C42,51.3284271 41.3284271,52 40.5,52 L29.5,52 C28.6715729,52 28,51.3284271 28,50.5 C28,51.3284271 27.3284271,52 26.5,52 L15.5,52 C14.6715729,52 14,51.3284271 14,50.5 C14,51.3284271 13.3284271,52 12.5,52 L1.25,52 C0.559644063,52 1.77635684e-15,51.3470819 1.77635684e-15,50.5416667 L1.73781022e-15,49.5416667 Z" id="Combined-Shape" fill-opacity="0.2" fill="#000000"></path>
            <path d="M18,27 L22,27 L22,24 L18,24 L18,22 L24,22 L24,29 L18,29 L18,27 Z M15,22 L15,29 L0,29 L0,22 L15,22 Z M27,22 L42,22 L42,29 L27,29 L27,22 Z" id="Combined-Shape" fill-opacity="0.5" fill="#FFF8F8"></path>
            <path d="M0,29 L15,29 L15,30 L0,30 L0,29 Z M24,30 L26,30 L26,31 C26,31.5522847 25.5522847,32 25,32 L17,32 C16.4477153,32 16,31.5522847 16,31 L16,30 L18,30 L18,29 L24,29 L24,30 Z M42,29 L42,30 L27,30 L27,29 L42,29 Z M18,24 L22,24 L22,25 L18,25 L18,24 Z M17,26 L21,26 L21,27 L17,27 L17,26 Z M17,21 L25,21 L25,22 L17,22 L17,21 Z" id="Combined-Shape" fill-opacity="0.2" fill="#000000"></path>
            <path d="M17,20 L25,20 C25.5522847,20 26,20.4477153 26,21 L26,30 C26,30.5522847 25.5522847,31 25,31 L17,31 C16.4477153,31 16,30.5522847 16,30 L16,21 C16,20.4477153 16.4477153,20 17,20 Z M17,21 L17,30 L25,30 L25,21 L17,21 Z M17,25 L21,25 L21,26 L17,26 L17,25 Z" id="Combined-Shape" fill="#F4F4F4"></path>
        </g>
        <path d="M27.4303721,42.5 L27.4303721,50.4903962 C27.4303721,51.0522237 27.3497407,51.5334114 27.1884754,51.9339736 C27.0272101,52.3345358 26.8100254,52.6622636 26.5369148,52.9171669 C26.2638042,53.1720701 25.9477809,53.3593431 25.5888355,53.4789916 C25.2298902,53.5986401 24.8501421,53.6584634 24.4495798,53.6584634 C24.0646239,53.6584634 23.6952799,53.5973395 23.3415366,53.47509 C22.9877933,53.3528405 22.6743711,53.17207 22.4012605,52.9327731 C22.1281499,52.6934762 21.9096647,52.39566 21.7457983,52.0393157 C21.581932,51.6829714 21.5,51.2707106 21.5,50.802521 L21.5,50.0066026 L22.6548619,50.0066026 L22.6548619,50.6698679 C22.6548619,51.0080049 22.7094832,51.2993185 22.8187275,51.5438175 C22.9279717,51.7883165 23.069727,51.9911957 23.2439976,52.152461 C23.4182682,52.3137263 23.6133443,52.433373 23.8292317,52.5114046 C24.0451191,52.5894362 24.2623038,52.6284514 24.4807923,52.6284514 C24.6524618,52.6284514 24.8423359,52.5959387 25.0504202,52.5309124 C25.2585044,52.465886 25.4535805,52.3566434 25.6356543,52.2031813 C25.817728,52.0497191 25.9698873,51.8455395 26.0921369,51.5906363 C26.2143864,51.335733 26.2755102,51.0158082 26.2755102,50.6308523 L26.2755102,42.5 L27.4303721,42.5 Z M36.5912365,53.4477791 C36.518407,53.4737896 36.42347,53.4958983 36.3064226,53.5141056 C36.1893752,53.532313 36.0918371,53.5414166 36.0138055,53.5414166 C35.6860728,53.5414166 35.4142668,53.4191689 35.1983794,53.1746699 C34.9824919,52.9301708 34.8615447,52.5504227 34.8355342,52.0354142 C34.5858331,52.3579448 34.3400372,52.6180462 34.0981393,52.8157263 C33.8562413,53.0134064 33.6143469,53.1655657 33.372449,53.2722089 C33.130551,53.3788521 32.8886567,53.45038 32.6467587,53.4867947 C32.4048607,53.5232095 32.1590649,53.5414166 31.9093637,53.5414166 C31.5868331,53.5414166 31.2851155,53.4893963 31.0042017,53.3853541 C30.7232879,53.281312 30.477492,53.1330542 30.2668067,52.9405762 C30.0561214,52.7480983 29.890957,52.516608 29.7713085,52.2460984 C29.6516601,51.9755889 29.5918367,51.6738712 29.5918367,51.3409364 C29.5918367,51.0080015 29.6646651,50.7231905 29.8103241,50.4864946 C29.9559831,50.2497987 30.1497587,50.0456191 30.3916567,49.8739496 C30.6335546,49.7022801 30.9066611,49.5579238 31.2109844,49.4408764 C31.5153076,49.3238289 31.8274294,49.2197884 32.1473589,49.1287515 C32.4672885,49.0377146 32.7807108,48.9505806 33.0876351,48.8673469 C33.3945594,48.7841132 33.6689664,48.6930777 33.9108643,48.5942377 C34.1527623,48.4953977 34.3465379,48.3796525 34.4921969,48.2469988 C34.6378559,48.1143451 34.7106843,47.9491807 34.7106843,47.7515006 C34.7106843,47.5226079 34.666467,47.3184283 34.5780312,47.1389556 C34.4895954,46.9594829 34.3647467,46.8086241 34.2034814,46.6863745 C34.0422161,46.564125 33.84714,46.471789 33.6182473,46.4093637 C33.3893546,46.3469385 33.1370562,46.3157263 32.8613445,46.3157263 C32.6272497,46.3157263 32.404863,46.345638 32.1941777,46.4054622 C31.9834923,46.4652864 31.7962193,46.5524204 31.6323529,46.6668667 C31.4684866,46.7813131 31.3319333,46.9217679 31.2226891,47.0882353 C31.1134448,47.2547027 31.0432174,47.4471778 31.0120048,47.6656663 L29.8103241,47.6656663 C29.8311326,47.2807104 29.9325721,46.9399775 30.1146459,46.6434574 C30.2967196,46.3469373 30.5282099,46.0985404 30.8091236,45.8982593 C31.0900374,45.6979782 31.4086617,45.5458188 31.765006,45.4417767 C32.1213503,45.3377346 32.4867928,45.2857143 32.8613445,45.2857143 C33.2671089,45.2857143 33.6507585,45.3351336 34.0123049,45.4339736 C34.3738513,45.5328136 34.6924756,45.6836725 34.9681873,45.8865546 C35.2438989,46.0894368 35.4623841,46.3456367 35.6236495,46.6551621 C35.7849148,46.9646874 35.8655462,47.3301299 35.8655462,47.7515006 L35.8655462,51.8559424 C35.8655462,52.0588245 35.916266,52.2213879 36.0177071,52.3436375 C36.1191482,52.465887 36.2452974,52.5270108 36.3961585,52.5270108 C36.4273711,52.5270108 36.4585833,52.5244098 36.4897959,52.5192077 C36.5210086,52.5140056 36.5548217,52.5062025 36.5912365,52.4957983 L36.5912365,53.4477791 Z M34.7106843,48.9765906 C34.549419,49.1482602 34.3400373,49.2887149 34.082533,49.3979592 C33.8250287,49.5072034 33.5493212,49.606042 33.2554022,49.6944778 C32.9614831,49.7829136 32.666268,49.8687471 32.3697479,49.9519808 C32.0732278,50.0352145 31.8040228,50.134053 31.5621248,50.2484994 C31.3202269,50.3629458 31.1238503,50.5021 30.9729892,50.6659664 C30.8221281,50.8298328 30.7466987,51.0366134 30.7466987,51.2863145 C30.7466987,51.5100051 30.7857139,51.6998792 30.8637455,51.8559424 C30.9417771,52.0120056 31.0432167,52.1407558 31.1680672,52.2421969 C31.2929178,52.343638 31.4359736,52.4177669 31.5972389,52.4645858 C31.7585042,52.5114048 31.9223681,52.5348139 32.0888355,52.5348139 C32.5674294,52.5348139 33.0369125,52.3891571 33.4972989,52.0978391 C33.9576854,51.8065212 34.3621431,51.3591467 34.7106843,50.7557023 L34.7106843,48.9765906 Z M38.2064826,45.4417767 L39.3613445,45.4417767 L39.3145258,46.7605042 C39.5590248,46.3287293 39.8464369,45.999701 40.1767707,45.7734094 C40.5071045,45.5471177 40.8933551,45.4339736 41.3355342,45.4339736 C41.371949,45.4339736 41.4226687,45.4352741 41.4876951,45.4378752 C41.5527214,45.4404762 41.6203478,45.4456782 41.6905762,45.4534814 C41.7608047,45.4612846 41.828431,45.4716886 41.8934574,45.4846939 C41.9584837,45.4976991 42.0092035,45.5120047 42.0456182,45.527611 L42.0456182,46.7058824 C41.9259698,46.6642655 41.790717,46.6317528 41.6398559,46.6083433 C41.4889948,46.5849339 41.3771512,46.5732293 41.3043217,46.5732293 C40.9973974,46.5732293 40.7242909,46.6304516 40.484994,46.744898 C40.2456971,46.8593443 40.042818,47.0141047 39.8763505,47.2091837 C39.7098831,47.4042627 39.5824334,47.6279499 39.4939976,47.8802521 C39.4055618,48.1325543 39.3613445,48.3965572 39.3613445,48.6722689 L39.3613445,53.3853541 L38.2064826,53.3853541 L38.2064826,45.4417767 Z" id="Jar1" fill-opacity="0.2" fill="#000000"></path>
        <path d="M27.4303721,41.5 L27.4303721,49.4903962 C27.4303721,50.0522237 27.3497407,50.5334114 27.1884754,50.9339736 C27.0272101,51.3345358 26.8100254,51.6622636 26.5369148,51.9171669 C26.2638042,52.1720701 25.9477809,52.3593431 25.5888355,52.4789916 C25.2298902,52.5986401 24.8501421,52.6584634 24.4495798,52.6584634 C24.0646239,52.6584634 23.6952799,52.5973395 23.3415366,52.47509 C22.9877933,52.3528405 22.6743711,52.17207 22.4012605,51.9327731 C22.1281499,51.6934762 21.9096647,51.39566 21.7457983,51.0393157 C21.581932,50.6829714 21.5,50.2707106 21.5,49.802521 L21.5,49.0066026 L22.6548619,49.0066026 L22.6548619,49.6698679 C22.6548619,50.0080049 22.7094832,50.2993185 22.8187275,50.5438175 C22.9279717,50.7883165 23.069727,50.9911957 23.2439976,51.152461 C23.4182682,51.3137263 23.6133443,51.433373 23.8292317,51.5114046 C24.0451191,51.5894362 24.2623038,51.6284514 24.4807923,51.6284514 C24.6524618,51.6284514 24.8423359,51.5959387 25.0504202,51.5309124 C25.2585044,51.465886 25.4535805,51.3566434 25.6356543,51.2031813 C25.817728,51.0497191 25.9698873,50.8455395 26.0921369,50.5906363 C26.2143864,50.335733 26.2755102,50.0158082 26.2755102,49.6308523 L26.2755102,41.5 L27.4303721,41.5 Z M36.5912365,52.4477791 C36.518407,52.4737896 36.42347,52.4958983 36.3064226,52.5141056 C36.1893752,52.532313 36.0918371,52.5414166 36.0138055,52.5414166 C35.6860728,52.5414166 35.4142668,52.4191689 35.1983794,52.1746699 C34.9824919,51.9301708 34.8615447,51.5504227 34.8355342,51.0354142 C34.5858331,51.3579448 34.3400372,51.6180462 34.0981393,51.8157263 C33.8562413,52.0134064 33.6143469,52.1655657 33.372449,52.2722089 C33.130551,52.3788521 32.8886567,52.45038 32.6467587,52.4867947 C32.4048607,52.5232095 32.1590649,52.5414166 31.9093637,52.5414166 C31.5868331,52.5414166 31.2851155,52.4893963 31.0042017,52.3853541 C30.7232879,52.281312 30.477492,52.1330542 30.2668067,51.9405762 C30.0561214,51.7480983 29.890957,51.516608 29.7713085,51.2460984 C29.6516601,50.9755889 29.5918367,50.6738712 29.5918367,50.3409364 C29.5918367,50.0080015 29.6646651,49.7231905 29.8103241,49.4864946 C29.9559831,49.2497987 30.1497587,49.0456191 30.3916567,48.8739496 C30.6335546,48.7022801 30.9066611,48.5579238 31.2109844,48.4408764 C31.5153076,48.3238289 31.8274294,48.2197884 32.1473589,48.1287515 C32.4672885,48.0377146 32.7807108,47.9505806 33.0876351,47.8673469 C33.3945594,47.7841132 33.6689664,47.6930777 33.9108643,47.5942377 C34.1527623,47.4953977 34.3465379,47.3796525 34.4921969,47.2469988 C34.6378559,47.1143451 34.7106843,46.9491807 34.7106843,46.7515006 C34.7106843,46.5226079 34.666467,46.3184283 34.5780312,46.1389556 C34.4895954,45.9594829 34.3647467,45.8086241 34.2034814,45.6863745 C34.0422161,45.564125 33.84714,45.471789 33.6182473,45.4093637 C33.3893546,45.3469385 33.1370562,45.3157263 32.8613445,45.3157263 C32.6272497,45.3157263 32.404863,45.345638 32.1941777,45.4054622 C31.9834923,45.4652864 31.7962193,45.5524204 31.6323529,45.6668667 C31.4684866,45.7813131 31.3319333,45.9217679 31.2226891,46.0882353 C31.1134448,46.2547027 31.0432174,46.4471778 31.0120048,46.6656663 L29.8103241,46.6656663 C29.8311326,46.2807104 29.9325721,45.9399775 30.1146459,45.6434574 C30.2967196,45.3469373 30.5282099,45.0985404 30.8091236,44.8982593 C31.0900374,44.6979782 31.4086617,44.5458188 31.765006,44.4417767 C32.1213503,44.3377346 32.4867928,44.2857143 32.8613445,44.2857143 C33.2671089,44.2857143 33.6507585,44.3351336 34.0123049,44.4339736 C34.3738513,44.5328136 34.6924756,44.6836725 34.9681873,44.8865546 C35.2438989,45.0894368 35.4623841,45.3456367 35.6236495,45.6551621 C35.7849148,45.9646874 35.8655462,46.3301299 35.8655462,46.7515006 L35.8655462,50.8559424 C35.8655462,51.0588245 35.916266,51.2213879 36.0177071,51.3436375 C36.1191482,51.465887 36.2452974,51.5270108 36.3961585,51.5270108 C36.4273711,51.5270108 36.4585833,51.5244098 36.4897959,51.5192077 C36.5210086,51.5140056 36.5548217,51.5062025 36.5912365,51.4957983 L36.5912365,52.4477791 Z M34.7106843,47.9765906 C34.549419,48.1482602 34.3400373,48.2887149 34.082533,48.3979592 C33.8250287,48.5072034 33.5493212,48.606042 33.2554022,48.6944778 C32.9614831,48.7829136 32.666268,48.8687471 32.3697479,48.9519808 C32.0732278,49.0352145 31.8040228,49.134053 31.5621248,49.2484994 C31.3202269,49.3629458 31.1238503,49.5021 30.9729892,49.6659664 C30.8221281,49.8298328 30.7466987,50.0366134 30.7466987,50.2863145 C30.7466987,50.5100051 30.7857139,50.6998792 30.8637455,50.8559424 C30.9417771,51.0120056 31.0432167,51.1407558 31.1680672,51.2421969 C31.2929178,51.343638 31.4359736,51.4177669 31.5972389,51.4645858 C31.7585042,51.5114048 31.9223681,51.5348139 32.0888355,51.5348139 C32.5674294,51.5348139 33.0369125,51.3891571 33.4972989,51.0978391 C33.9576854,50.8065212 34.3621431,50.3591467 34.7106843,49.7557023 L34.7106843,47.9765906 Z M38.2064826,44.4417767 L39.3613445,44.4417767 L39.3145258,45.7605042 C39.5590248,45.3287293 39.8464369,44.999701 40.1767707,44.7734094 C40.5071045,44.5471177 40.8933551,44.4339736 41.3355342,44.4339736 C41.371949,44.4339736 41.4226687,44.4352741 41.4876951,44.4378752 C41.5527214,44.4404762 41.6203478,44.4456782 41.6905762,44.4534814 C41.7608047,44.4612846 41.828431,44.4716886 41.8934574,44.4846939 C41.9584837,44.4976991 42.0092035,44.5120047 42.0456182,44.527611 L42.0456182,45.7058824 C41.9259698,45.6642655 41.790717,45.6317528 41.6398559,45.6083433 C41.4889948,45.5849339 41.3771512,45.5732293 41.3043217,45.5732293 C40.9973974,45.5732293 40.7242909,45.6304516 40.484994,45.744898 C40.2456971,45.8593443 40.042818,46.0141047 39.8763505,46.2091837 C39.7098831,46.4042627 39.5824334,46.6279499 39.4939976,46.8802521 C39.4055618,47.1325543 39.3613445,47.3965572 39.3613445,47.6722689 L39.3613445,52.3853541 L38.2064826,52.3853541 L38.2064826,44.4417767 Z" id="Jar1" fill="#FFFFFF"></path>
    </g>
</svg>