<svg xmlns="http://www.w3.org/2000/svg" xmlns:xlink="http://www.w3.org/1999/xlink" width="32" height="32" viewBox="0 0 32 32">
  <defs>
    <filter id="drive-harddisk-root-a" width="129.6%" height="127.6%" x="-14.8%" y="-13.8%" filterUnits="objectBoundingBox">
      <feOffset dy="1" in="SourceAlpha" result="shadowOffsetOuter1"/>
      <feGaussianBlur in="shadowOffsetOuter1" result="shadowBlurOuter1" stdDeviation=".5"/>
      <feColorMatrix in="shadowBlurOuter1" result="shadowMatrixOuter1" values="0 0 0 0 0   0 0 0 0 0   0 0 0 0 0  0 0 0 0.15 0"/>
      <feMerge>
        <feMergeNode in="shadowMatrixOuter1"/>
        <feMergeNode in="SourceGraphic"/>
      </feMerge>
    </filter>
    <linearGradient id="drive-harddisk-root-b" x1="-5.578%" x2="95.89%" y1="40.232%" y2="40.232%">
      <stop offset="0%" stop-color="#2D8A94"/>
      <stop offset="29.932%" stop-color="#81D7C6"/>
      <stop offset="83.27%" stop-color="#5FD0C3"/>
      <stop offset="92.574%" stop-color="#44BDAB"/>
      <stop offset="100%" stop-color="#0C857D"/>
    </linearGradient>
    <linearGradient id="drive-harddisk-root-d" x1="128.548%" x2="3.376%" y1="32.065%" y2="32.065%">
      <stop offset="0%" stop-color="#B2F1EE" stop-opacity="0"/>
      <stop offset="87.281%" stop-color="#B3F2EF" stop-opacity=".452"/>
      <stop offset="93.737%" stop-color="#77CACC" stop-opacity=".467"/>
      <stop offset="100%" stop-color="#0C767F" stop-opacity=".5"/>
    </linearGradient>
    <path id="drive-harddisk-root-c" d="M4.15035452,1.25 L22.3496455,1.25 C22.9998346,1.25 23.5414551,1.74844444 23.5953446,2.3963965 L25.1639825,21.2572543 C25.2213028,21.9464572 25.25,22.6377419 25.25,23.3293243 L25.25,25.6875 C25.25,26.5504449 24.5504449,27.25 23.6875,27.25 L2.8125,27.25 C1.94955508,27.25 1.25,26.5504449 1.25,25.6875 L1.25,23.3293243 C1.25,22.6377419 1.27869717,21.9464572 1.33601746,21.2572543 L2.9046554,2.3963965 C2.95854489,1.74844444 3.50016536,1.25 4.15035452,1.25 Z"/>
    <linearGradient id="drive-harddisk-root-e" x1="50%" x2="50%" y1="2.631%" y2="100%">
      <stop offset="0%" stop-color="#00473E" stop-opacity=".508"/>
      <stop offset="100%" stop-color="#003428" stop-opacity=".62"/>
    </linearGradient>
    <linearGradient id="drive-harddisk-root-f" x1="50%" x2="2.738%" y1="49.31%" y2="49.575%">
      <stop offset="0%" stop-color="#FCFDFC"/>
      <stop offset="81.318%" stop-color="#FFF"/>
      <stop offset="100%" stop-color="#BDC6C4"/>
    </linearGradient>
    <linearGradient id="drive-harddisk-root-h" x1="99.734%" x2="73.708%" y1="100%" y2="100%">
      <stop offset="0%" stop-color="#A5B0AC"/>
      <stop offset="41.965%" stop-color="#E8F6EE" stop-opacity=".314"/>
      <stop offset="100%" stop-color="#CBCFCD" stop-opacity=".397"/>
    </linearGradient>
    <path id="drive-harddisk-root-g" d="M4.15265235,1.25 L22.3491024,1.25 C22.9995174,1.25 23.5412468,1.74878005 23.5948501,2.39698244 L23.703064,3.70556641 L23.703064,3.70556641 C23.3697613,3.43128242 22.9515189,3.28131616 22.5198682,3.28131616 L4.03419163,3.28131616 C3.58723427,3.28131616 3.15308772,3.43063639 2.8006897,3.70556641 L2.8006897,3.70556641 L2.8006897,3.70556641 L2.90674964,2.39887415 C2.95942764,1.74986436 3.50150822,1.25 4.15265235,1.25 Z"/>
    <linearGradient id="drive-harddisk-root-i" x1="44.527%" x2="0%" y1="47.751%" y2="46.771%">
      <stop offset="0%" stop-color="#FEFEFE"/>
      <stop offset="77.706%" stop-color="#D8D8D8"/>
      <stop offset="100%" stop-color="#A2AEA8"/>
    </linearGradient>
    <linearGradient id="drive-harddisk-root-k" x1="100%" x2="74.044%" y1="100%" y2="100%">
      <stop offset="0%" stop-color="#AAB0AD"/>
      <stop offset="32.662%" stop-color="#E9F1F0" stop-opacity=".314"/>
      <stop offset="100%" stop-color="#F1FAF6" stop-opacity=".233"/>
    </linearGradient>
    <path id="drive-harddisk-root-j" d="M25.0818549,20.4146268 L25.1800148,21.6562569 C25.2266534,22.2461919 25.25,22.8377373 25.25,23.4295131 L25.25,25.6875 C25.25,26.5504449 24.5504449,27.25 23.6875,27.25 L2.8125,27.25 C1.94955508,27.25 1.25,26.5504449 1.25,25.6875 L1.25,23.4264189 C1.25,22.8367035 1.27318428,22.2472161 1.31949912,21.6593223 L1.41851215,20.4025082 C1.46976311,19.7519581 2.01282119,19.2502964 2.66538681,19.2506804 L23.8364786,19.2631412 C24.4883467,19.2635249 25.0304802,19.7647862 25.0818549,20.4146268 Z"/>
    <linearGradient id="drive-harddisk-root-l" x1="50%" x2="50%" y1="-20.244%" y2="100%">
      <stop offset="0%" stop-opacity=".18"/>
      <stop offset="100%" stop-opacity=".467"/>
    </linearGradient>
    <linearGradient id="drive-harddisk-root-m" x1="100%" x2="0%" y1="50%" y2="52.161%">
      <stop offset="0%" stop-color="#E3E3E3"/>
      <stop offset="68.204%" stop-color="#C1BFC1"/>
      <stop offset="100%" stop-color="#CBCBCB"/>
    </linearGradient>
    <linearGradient id="drive-harddisk-root-o" x1="50%" x2="50%" y1="0%" y2="100%">
      <stop offset="0%" stop-color="#FFF" stop-opacity=".5"/>
      <stop offset="100%" stop-opacity=".326"/>
    </linearGradient>
    <linearGradient id="drive-harddisk-root-q" x1="50%" x2="50%" y1="-13.675%" y2="100%">
      <stop offset="0%" stop-opacity="0"/>
      <stop offset="100%" stop-opacity=".111"/>
    </linearGradient>
    <path id="drive-harddisk-root-n" d="M2.1875,22.2605286 L24.3125,22.2605286 C24.830267,22.2605286 25.25,22.6802616 25.25,23.1980286 L25.25,25.6875 C25.25,26.5504449 24.5504449,27.25 23.6875,27.25 L2.8125,27.25 C1.94955508,27.25 1.25,26.5504449 1.25,25.6875 L1.25,23.1980286 C1.25,22.6802616 1.66973305,22.2605286 2.1875,22.2605286 Z"/>
    <filter id="drive-harddisk-root-p" width="112.5%" height="160.1%" x="-6.2%" y="-30.1%" filterUnits="objectBoundingBox">
      <feOffset dy="1" in="SourceAlpha" result="shadowOffsetInner1"/>
      <feComposite in="shadowOffsetInner1" in2="SourceAlpha" k2="-1" k3="1" operator="arithmetic" result="shadowInnerInner1"/>
      <feColorMatrix in="shadowInnerInner1" values="0 0 0 0 1   0 0 0 0 1   0 0 0 0 1  0 0 0 1 0"/>
    </filter>
    <radialGradient id="drive-harddisk-root-r" cx="54.402%" cy="50%" r="50%" fx="54.402%" fy="50%" gradientTransform="matrix(0 1 -1.14403 0 1.116 -.044)">
      <stop offset="0%" stop-color="#4A5D00" stop-opacity=".477"/>
      <stop offset="100%" stop-color="#465900" stop-opacity=".693"/>
    </radialGradient>
    <radialGradient id="drive-harddisk-root-s" cx="50%" cy="39.587%" r="60.364%" fx="50%" fy="39.587%" gradientTransform="matrix(0 1 -.75 0 .797 -.104)">
      <stop offset="0%" stop-color="#F4EF6B"/>
      <stop offset="99.921%" stop-color="#9BD918"/>
    </radialGradient>
    <path id="drive-harddisk-root-t" d="M16.25,17.7987223 C15.8968991,17.7987223 15.5512934,17.7659717 15.2173466,17.7036658 C16.6214221,17.3266351 18.2894906,16.3952415 19.0823019,14.8998995 C19.0823019,14.8998995 20.7078983,12.3445581 17.9572093,10.0448308 C17.9572093,10.0448308 18.6642438,11.1120193 18.6858962,12.1855982 C18.6858962,12.1855982 18.8541188,13.5970668 17.5524758,14.4789352 C15.6329063,15.7785727 12.6423752,15.1930569 11.3698797,14.8559659 C11.0284378,14.1753935 10.8368973,13.4125455 10.8368973,12.6065625 C10.8368973,11.4003838 11.2657816,10.2908592 11.9853078,9.40899088 C12.3400743,11.0521097 13.0729251,12.4244375 13.5659338,12.934068 C14.2230012,13.6122439 15.1906974,14.3327559 16.4332127,14.0356046 C17.6748952,13.7376545 17.9280618,12.4348218 17.9280618,12.4348218 C18.2028809,11.3268948 17.8114719,10.0104826 17.7906523,9.98252483 C17.7698327,9.95456705 17.5832888,9.92421289 17.5832888,9.92421289 C17.7781605,11.6695774 17.2993091,12.442011 17.2993091,12.442011 C16.6031009,13.8103448 15.5804408,13.3869841 15.5804408,13.3869841 C14.4436893,12.8310236 14.4969875,11.2645889 14.4969875,11.2645889 C14.4636761,10.214175 14.8809014,8.5031587 15.6853717,7.44236052 C15.8710828,7.42398826 16.0592922,7.41440273 16.25,7.41440273 C16.974523,7.41440273 17.6657346,7.55099648 18.2978184,7.79942135 C17.6265937,8.34020476 16.5922746,9.35227652 16.5922746,9.35227652 C14.9167112,10.842027 15.2414973,12.0953345 15.2414973,12.0953345 C15.5079885,13.4117467 16.339108,12.5250855 16.339108,12.5250855 C17.2126995,11.659193 17.1477423,9.93459721 17.1477423,9.93459721 C16.7938086,9.98971398 16.5697895,10.1766317 16.5697895,10.1766317 C16.5264846,11.3268948 15.8186174,12.0402177 15.8186174,12.0402177 C15.5446311,12.3309786 15.3497594,12.0537972 15.3497594,12.0537972 C15.2056876,11.8461108 15.4938312,11.7007303 15.4938312,11.7007303 C15.8985647,11.361243 16.0193185,10.7821174 16.0143218,10.5648455 C16.0084923,10.3467748 16.1292462,10.2876641 16.1292462,10.2876641 C16.7005367,9.86510214 17.2709945,9.61587848 17.2709945,9.61587848 C18.0363239,9.24124418 19.4012586,9.17893826 19.4012586,9.17893826 C19.7243792,9.18932258 20.0341752,9.17734067 20.2965025,9.15816962 C21.146776,10.0751849 21.6631027,11.2829612 21.6631027,12.6065625 C21.6631027,15.4742323 19.2396983,17.7987223 16.25,17.7987223 M10.0635969,12.6065625 C10.0635969,15.883769 12.8333379,18.5404594 16.25,18.5404594 C19.6666621,18.5404594 22.4364031,15.883769 22.4364031,12.6065625 C22.4364031,9.32935603 19.6666621,6.67266563 16.25,6.67266563 C12.8333379,6.67266563 10.0635969,9.32935603 10.0635969,12.6065625 Z"/>
    <filter id="drive-harddisk-root-u" width="108.1%" height="108.4%" x="-4%" y="-4.2%" filterUnits="objectBoundingBox">
      <feGaussianBlur in="SourceAlpha" result="shadowBlurInner1" stdDeviation=".5"/>
      <feOffset in="shadowBlurInner1" result="shadowOffsetInner1"/>
      <feComposite in="shadowOffsetInner1" in2="SourceAlpha" k2="-1" k3="1" operator="arithmetic" result="shadowInnerInner1"/>
      <feColorMatrix in="shadowInnerInner1" values="0 0 0 0 0.509984756   0 0 0 0 1   0 0 0 0 0.799699844  0 0 0 0.6504316 0"/>
    </filter>
  </defs>
  <g fill="none" fill-rule="evenodd">
    <g filter="url(#drive-harddisk-root-a)" transform="translate(2.75 1.75)">
      <use fill="url(#drive-harddisk-root-b)" xlink:href="#drive-harddisk-root-c"/>
      <use fill="url(#drive-harddisk-root-d)" fill-opacity=".8" xlink:href="#drive-harddisk-root-c"/>
      <path fill="url(#drive-harddisk-root-e)" fill-rule="nonzero" d="M22.3496455,0.25 L4.15035452,0.25 C2.98001403,0.25 2.00509719,1.14719999 1.90809609,2.3135137 L0.339458162,21.1743715 C0.279845059,21.8911426 0.25,22.6100786 0.25,23.3293243 L0.25,25.6875 C0.25,27.1027297 1.39727033,28.25 2.8125,28.25 L23.6875,28.25 C25.1027297,28.25 26.25,27.1027297 26.25,25.6875 L26.25,23.3293243 C26.25,22.6100786 26.2201549,21.8911426 26.1605418,21.1743715 L24.5919039,2.3135137 C24.4949028,1.14719999 23.519986,0.25 22.3496455,0.25 Z M22.3496455,1.25 C22.9998346,1.25 23.5414551,1.74844444 23.5953446,2.3963965 L25.1639825,21.2572543 C25.2213028,21.9464572 25.25,22.6377419 25.25,23.3293243 L25.25,25.6875 C25.25,26.5504449 24.5504449,27.25 23.6875,27.25 L2.8125,27.25 C1.94955508,27.25 1.25,26.5504449 1.25,25.6875 L1.25,23.3293243 C1.25,22.6377419 1.27869717,21.9464572 1.33601746,21.2572543 L2.9046554,2.3963965 C2.95854489,1.74844444 3.50016536,1.25 4.15035452,1.25 L22.3496455,1.25 Z"/>
      <use fill="url(#drive-harddisk-root-f)" xlink:href="#drive-harddisk-root-g"/>
      <use fill="url(#drive-harddisk-root-h)" xlink:href="#drive-harddisk-root-g"/>
      <use fill="url(#drive-harddisk-root-i)" xlink:href="#drive-harddisk-root-j"/>
      <use fill="url(#drive-harddisk-root-k)" xlink:href="#drive-harddisk-root-j"/>
      <path fill="url(#drive-harddisk-root-l)" fill-rule="nonzero" d="M23.8370672,18.2631414 L2.66597538,18.2506802 C1.49135727,18.2499893 0.513852733,19.1529805 0.421601001,20.3239706 L0.322587969,21.5807847 C0.274214689,22.1948071 0.25,22.8104939 0.25,23.4264189 L0.25,25.6875 C0.25,27.1027297 1.39727033,28.25 2.8125,28.25 L23.6875,28.25 C25.1027297,28.25 26.25,27.1027297 26.25,25.6875 L26.25,23.4295131 C26.25,22.8114362 26.2256158,22.1935999 26.1769043,21.5774455 L26.0787444,20.3358154 C25.9862701,19.1661023 25.0104298,18.263832 23.8370672,18.2631414 Z M2.66538681,19.2506802 L23.8364786,19.2631412 C24.4883467,19.2635249 25.0304802,19.7647862 25.0818549,20.4146268 L25.1800148,21.6562569 C25.2266534,22.2461919 25.25,22.8377373 25.25,23.4295131 L25.25,25.6875 C25.25,26.5504449 24.5504449,27.25 23.6875,27.25 L2.8125,27.25 C1.94955508,27.25 1.25,26.5504449 1.25,25.6875 L1.25,23.4264189 C1.25,22.8367035 1.27318428,22.2472161 1.31949912,21.6593223 L1.41851215,20.4025082 C1.46976311,19.7519581 2.01282119,19.2502964 2.66538681,19.2506802 Z"/>
      <use fill="url(#drive-harddisk-root-m)" fill-opacity=".6" xlink:href="#drive-harddisk-root-n"/>
      <use fill="url(#drive-harddisk-root-o)" xlink:href="#drive-harddisk-root-n"/>
      <use fill="#000" filter="url(#drive-harddisk-root-p)" xlink:href="#drive-harddisk-root-n"/>
      <path stroke="url(#drive-harddisk-root-q)" d="M24.3125,21.7605286 C24.7094547,21.7605286 25.0688297,21.9214262 25.328966,22.1815626 C25.5891023,22.4416989 25.75,22.8010739 25.75,23.1980286 L25.75,23.1980286 L25.75,25.6875 C25.75,26.2570436 25.5191468,26.7726686 25.1459077,27.1459077 C24.7726686,27.5191468 24.2570436,27.75 23.6875,27.75 L23.6875,27.75 L2.8125,27.75 C2.24295635,27.75 1.72733135,27.5191468 1.35409226,27.1459077 C0.980853176,26.7726686 0.75,26.2570436 0.75,25.6875 L0.75,25.6875 L0.75,23.1980286 C0.75,22.8010739 0.910897668,22.4416989 1.171034,22.1815626 C1.43117034,21.9214262 1.79054534,21.7605286 2.1875,21.7605286 L2.1875,21.7605286 Z"/>
      <path fill="url(#drive-harddisk-root-r)" d="M21.25,26.5 C21.9403559,26.5 22.5,26.0522847 22.5,25.5 C22.5,24.9477153 21.9403559,24.5 21.25,24.5 C20.5596441,24.5 20,24.9477153 20,25.5 C20,26.0522847 20.5596441,26.5 21.25,26.5 Z"/>
      <ellipse cx="21.25" cy="25.25" fill="url(#drive-harddisk-root-s)" rx="1" ry="1"/>
    </g>
    <use fill="#FFF" xlink:href="#drive-harddisk-root-t"/>
    <use fill="#000" filter="url(#drive-harddisk-root-u)" xlink:href="#drive-harddisk-root-t"/>
  </g>
</svg>
