<?xml version="1.0" encoding="UTF-8"?>
<svg width="256px" height="256px" viewBox="0 0 256 256" version="1.1" xmlns="http://www.w3.org/2000/svg" xmlns:xlink="http://www.w3.org/1999/xlink">
    <title>mimetypes/256/application-vnd.kde.kphotoalbum-import</title>
    <defs>
        <linearGradient x1="50%" y1="0%" x2="50%" y2="100%" id="linearGradient-1">
            <stop stop-color="#FF8145" offset="0%"></stop>
            <stop stop-color="#ED4115" offset="100%"></stop>
        </linearGradient>
        <path d="M184,210 C184,219.941125 175.941125,228 166,228 L18,228 C8.0588745,228 1.21743675e-15,219.941125 0,210 L0,18 C-1.21743675e-15,8.0588745 8.0588745,1.82615513e-15 18,0 L127,0 L184,57 L184,210 Z" id="path-2"></path>
        <filter x="-12.5%" y="-8.3%" width="125.0%" height="120.2%" filterUnits="objectBoundingBox" id="filter-3">
            <feOffset dx="0" dy="4" in="SourceAlpha" result="shadowOffsetOuter1"></feOffset>
            <feGaussianBlur stdDeviation="7" in="shadowOffsetOuter1" result="shadowBlurOuter1"></feGaussianBlur>
            <feColorMatrix values="0 0 0 0 0.937254902   0 0 0 0 0.415686275   0 0 0 0 0.101960784  0 0 0 0.5 0" type="matrix" in="shadowBlurOuter1"></feColorMatrix>
        </filter>
        <linearGradient x1="50%" y1="50%" x2="7.99354867%" y2="88.8926673%" id="linearGradient-4">
            <stop stop-color="#FFFFFF" stop-opacity="0.1" offset="0%"></stop>
            <stop stop-color="#FFFFFF" stop-opacity="0.3" offset="100%"></stop>
        </linearGradient>
        <path d="M127,0 L184,57 L145,57 C135.058875,57 127,48.9411255 127,39 L127,0 L127,0 Z" id="path-5"></path>
        <filter x="-12.3%" y="-8.8%" width="124.6%" height="124.6%" filterUnits="objectBoundingBox" id="filter-6">
            <feOffset dx="0" dy="2" in="SourceAlpha" result="shadowOffsetOuter1"></feOffset>
            <feGaussianBlur stdDeviation="2" in="shadowOffsetOuter1" result="shadowBlurOuter1"></feGaussianBlur>
            <feComposite in="shadowBlurOuter1" in2="SourceAlpha" operator="out" result="shadowBlurOuter1"></feComposite>
            <feColorMatrix values="0 0 0 0 0   0 0 0 0 0   0 0 0 0 0  0 0 0 0.05 0" type="matrix" in="shadowBlurOuter1"></feColorMatrix>
        </filter>
    </defs>
    <g id="mimetypes/256/application-vnd.kde.kphotoalbum-import" stroke="none" stroke-width="1" fill="none" fill-rule="evenodd">
        <g id="编组-2" transform="translate(36, 14)">
            <g id="蒙版" fill-rule="nonzero">
                <use fill="black" fill-opacity="1" filter="url(#filter-3)" xlink:href="#path-2"></use>
                <use fill="url(#linearGradient-1)" xlink:href="#path-2"></use>
            </g>
            <g id="折角">
                <use fill="black" fill-opacity="1" filter="url(#filter-6)" xlink:href="#path-5"></use>
                <use fill="url(#linearGradient-4)" fill-rule="evenodd" xlink:href="#path-5"></use>
            </g>
        </g>
        <path d="M170,92 C172.209139,92 174,93.790861 174,96 L174,160 C174,162.209139 172.209139,164 170,164 L86,164 C83.790861,164 82,162.209139 82,160 L82,96 C82,93.790861 83.790861,92 86,92 Z M86,146 L86,157.999964 C86,159.104534 86.8954305,159.999964 88,159.999964 L168,159.999964 C169.104569,159.999964 170,159.104534 170,157.999964 L170,143.220218 C170,143.220218 168.018245,142.52254 165.726951,141.757322 L165.171953,141.572696 C164.985544,141.510936 164.79801,141.449067 164.610207,141.387411 L164.046848,141.203405 C161.890779,140.502971 159.812404,139.873373 159.113859,139.805294 C157.470364,139.647679 153.30948,140.285084 151.349917,140.981141 C149.390211,141.677477 147.6318,142.432538 146.792881,142.507946 C145.953991,142.583 143.04902,142.513508 141.233806,142.310583 C139.418649,142.10745 137.854159,141.845453 137.17936,141.770749 C136.504763,141.694549 134.597059,141.417439 133.495216,141.233973 C132.393201,141.049084 131.422277,140.879511 130.596244,140.787783 C130.56776,140.784602 130.53593,140.781138 130.500909,140.777408 L130.253743,140.751938 C129.027597,140.628728 125.8555,140.345396 123.479109,140.168447 C120.828719,139.971673 118.342077,139.804886 117.34601,139.804886 C116.349971,139.790988 111.156703,139.918853 109.228056,140.057845 C107.299351,140.199612 105.639457,140.33582 104.722164,140.296908 C103.804986,140.258823 100.865984,139.00982 98.8973643,138.559495 C96.9287157,138.107428 95.0131543,137.778655 93.3911476,138.182836 C92.2018437,138.479184 88.7820573,141.049656 87.0427439,142.3995 L86.7458933,142.630698 C86.2849071,142.991017 86,143.2198 86,143.2198 L86,145.999582 L95.7115243,146 L86,146 Z M150,108 C144.47725,108 140,112.47725 140,118 C140,123.52275 144.47725,128 150,128 C155.52275,128 160,123.52275 160,118 C160,112.47725 155.52275,108 150,108 Z" id="形状结合" fill="#FFFFFF"></path>
    </g>
</svg>