<svg xmlns="http://www.w3.org/2000/svg" xmlns:xlink="http://www.w3.org/1999/xlink" width="256" height="256" viewBox="0 0 256 256">
  <defs>
    <linearGradient id="application-x-troff-man-c" x1="50%" x2="50%" y1="0%" y2="100%">
      <stop offset="0%" stop-color="#FC7440"/>
      <stop offset="100%" stop-color="#F04E11"/>
    </linearGradient>
    <path id="application-x-troff-man-b" d="M116,0 L168,52 L168,190 C168,199.941125 159.941125,208 150,208 L18,208 C8.0588745,208 1.21743675e-15,199.941125 0,190 L0,18 C-1.21743675e-15,8.0588745 8.0588745,1.82615513e-15 18,0 L116,0 Z"/>
    <filter id="application-x-troff-man-a" width="127.4%" height="122.1%" x="-13.7%" y="-9.1%" filterUnits="objectBoundingBox">
      <feOffset dy="4" in="SourceAlpha" result="shadowOffsetOuter1"/>
      <feGaussianBlur in="shadowOffsetOuter1" result="shadowBlurOuter1" stdDeviation="7"/>
      <feColorMatrix in="shadowBlurOuter1" values="0 0 0 0 0.941176471   0 0 0 0 0.309803922   0 0 0 0 0.0705882353  0 0 0 0.5 0"/>
    </filter>
    <linearGradient id="application-x-troff-man-f" x1="50%" x2="7.994%" y1="50%" y2="88.893%">
      <stop offset="0%" stop-color="#FFF" stop-opacity=".1"/>
      <stop offset="100%" stop-color="#FFF" stop-opacity=".3"/>
    </linearGradient>
    <path id="application-x-troff-man-e" d="M116,0 L168,52 L134,52 C124.058875,52 116,43.9411255 116,34 L116,0 Z"/>
    <filter id="application-x-troff-man-d" width="126.9%" height="126.9%" x="-13.5%" y="-9.6%" filterUnits="objectBoundingBox">
      <feOffset dy="2" in="SourceAlpha" result="shadowOffsetOuter1"/>
      <feGaussianBlur in="shadowOffsetOuter1" result="shadowBlurOuter1" stdDeviation="2"/>
      <feComposite in="shadowBlurOuter1" in2="SourceAlpha" operator="out" result="shadowBlurOuter1"/>
      <feColorMatrix in="shadowBlurOuter1" values="0 0 0 0 0   0 0 0 0 0   0 0 0 0 0  0 0 0 0.05 0"/>
    </filter>
  </defs>
  <g fill="none" fill-rule="evenodd">
    <g transform="translate(44 28)">
      <use fill="#000" filter="url(#application-x-troff-man-a)" xlink:href="#application-x-troff-man-b"/>
      <use fill="url(#application-x-troff-man-c)" xlink:href="#application-x-troff-man-b"/>
      <use fill="#000" filter="url(#application-x-troff-man-d)" xlink:href="#application-x-troff-man-e"/>
      <use fill="url(#application-x-troff-man-f)" xlink:href="#application-x-troff-man-e"/>
    </g>
    <path fill="#FFF" d="M164,175.990153 C164,178.20473 162.204319,180 159.993444,180 L108.006556,180 C105.793796,180 104,178.20229 104,175.990153 L104,96.0098467 C104,93.7952695 105.795681,92 108.006556,92 L159.993444,92 C162.206204,92 164,93.7977102 164,96.0098467 L164,175.990153 Z M96.0000511,88 L159.999949,88 C164.420214,88 168,91.5813843 168,95.9992458 L168,176.000754 C168,180.411895 164.418255,184 159.999949,184 L96.0000511,184 C91.5797863,184 88,180.418616 88,176.000754 L88,95.9992458 C88,91.5881049 91.5817449,88 96.0000511,88 Z M136,92 L136,140 L137.977529,138.269662 C141.302718,135.360122 146.696352,135.359308 150.022471,138.269662 L152,140 L152,92 L136,92 Z"/>
  </g>
</svg>
