<?xml version="1.0" encoding="UTF-8"?>
<svg width="256px" height="256px" viewBox="0 0 256 256" version="1.1" xmlns="http://www.w3.org/2000/svg" xmlns:xlink="http://www.w3.org/1999/xlink">
    <title>mimetypes/256/application-x-theme</title>
    <defs>
        <linearGradient x1="50%" y1="0%" x2="50%" y2="98.9468961%" id="linearGradient-1">
            <stop stop-color="#F7F7F7" offset="0%"></stop>
            <stop stop-color="#F6F6F6" offset="100%"></stop>
        </linearGradient>
        <path d="M184,210 C184,219.941125 175.941125,228 166,228 L18,228 C8.0588745,228 1.21743675e-15,219.941125 0,210 L0,18 C-1.21743675e-15,8.0588745 8.0588745,1.82615513e-15 18,0 L127,0 L184,57 L184,210 Z" id="path-2"></path>
        <filter x="-12.5%" y="-8.3%" width="125.0%" height="120.2%" filterUnits="objectBoundingBox" id="filter-3">
            <feOffset dx="0" dy="4" in="SourceAlpha" result="shadowOffsetOuter1"></feOffset>
            <feGaussianBlur stdDeviation="7" in="shadowOffsetOuter1" result="shadowBlurOuter1"></feGaussianBlur>
            <feColorMatrix values="0 0 0 0 0   0 0 0 0 0   0 0 0 0 0  0 0 0 0.1 0" type="matrix" in="shadowBlurOuter1"></feColorMatrix>
        </filter>
        <linearGradient x1="50%" y1="50%" x2="7.99354867%" y2="88.8926673%" id="linearGradient-4">
            <stop stop-color="#FFFFFF" stop-opacity="0.1" offset="0%"></stop>
            <stop stop-color="#FFFFFF" stop-opacity="0.3" offset="100%"></stop>
        </linearGradient>
        <path d="M127,0 L184,57 L145,57 C135.058875,57 127,48.9411255 127,39 L127,0 L127,0 Z" id="path-5"></path>
        <filter x="-12.3%" y="-8.8%" width="124.6%" height="124.6%" filterUnits="objectBoundingBox" id="filter-6">
            <feOffset dx="0" dy="2" in="SourceAlpha" result="shadowOffsetOuter1"></feOffset>
            <feGaussianBlur stdDeviation="2" in="shadowOffsetOuter1" result="shadowBlurOuter1"></feGaussianBlur>
            <feComposite in="shadowBlurOuter1" in2="SourceAlpha" operator="out" result="shadowBlurOuter1"></feComposite>
            <feColorMatrix values="0 0 0 0 0   0 0 0 0 0   0 0 0 0 0  0 0 0 0.05 0" type="matrix" in="shadowBlurOuter1"></feColorMatrix>
        </filter>
    </defs>
    <g id="mimetypes/256/application-x-theme" stroke="none" stroke-width="1" fill="none" fill-rule="evenodd">
        <g id="编组-2" transform="translate(36, 14)">
            <g id="蒙版">
                <use fill="black" fill-opacity="1" filter="url(#filter-3)" xlink:href="#path-2"></use>
                <use fill="url(#linearGradient-1)" fill-rule="evenodd" xlink:href="#path-2"></use>
            </g>
            <path d="M127.414214,-1 L127.707107,-0.707106781 L184.707107,56.2928932 L185,56.5857864 L185,210 C185,220.49341 176.49341,229 166,229 L18,229 C7.50658975,229 -1,220.49341 -1,210 L-1,18 C-1,7.50658975 7.50658975,-1 18,-1 L127.414214,-1 Z M127,0 L18,0 C8.0588745,0 0,8.0588745 0,18 L0,210 C0,219.941125 8.0588745,228 18,228 L166,228 C175.941125,228 184,219.941125 184,210 L184,57 L127,0 Z" id="蒙版" fill-opacity="0.1" fill="#000000" fill-rule="nonzero"></path>
            <g id="折角">
                <use fill="black" fill-opacity="1" filter="url(#filter-6)" xlink:href="#path-5"></use>
                <use fill="url(#linearGradient-4)" fill-rule="evenodd" xlink:href="#path-5"></use>
            </g>
        </g>
        <path d="M141.699931,190.905131 C140.378578,191.688749 139.717914,193.025444 139.717914,194.915279 C139.717914,196.420993 140.209569,197.619418 141.192905,198.510555 C142.191587,199.386338 143.54366,199.82423 145.249129,199.82423 C147.599882,199.82423 149.48203,198.994551 150.895579,197.335171 C152.324457,195.660459 153.038926,193.440294 153.038926,190.674676 L153.038926,189.729747 L148.821372,189.729747 C145.395079,189.729747 143.021268,190.121556 141.699931,190.905131 Z M120,168 L136,204 L131.399994,204 L127.600006,196 L108.400002,196 L104.599998,204 L100,204 L116,168 L120,168 Z M146.147951,176.270466 C149.881505,176.270466 152.670158,177.238457 154.513915,179.174354 C156.357631,181.110293 157.279525,184.044909 157.279525,187.978203 L157.279525,202.705076 L153.038926,202.705076 L153.038926,198.787115 C152.070943,200.354308 150.864833,201.514317 149.420587,202.267184 C147.976312,203.004677 146.209396,203.373423 144.119838,203.373423 C141.477137,203.373423 139.372207,202.63593 137.805035,201.160945 C136.253217,199.670585 135.477315,197.680876 135.477315,195.191839 C135.477315,192.287951 136.445274,190.098515 138.381202,188.623509 C140.332484,187.148545 143.23637,186.411053 147.092869,186.411031 L153.038926,186.411031 L153.038926,185.996181 C153.038904,184.044909 152.393596,182.539195 151.102999,181.479018 C149.82773,180.403529 148.030086,179.865785 145.710064,179.865764 C144.235062,179.865785 142.798483,180.042557 141.400324,180.39582 C140.002148,180.749234 138.657758,181.279312 137.367146,181.986055 L137.367146,178.068115 C138.918953,177.468913 140.424671,177.023355 141.884307,176.731399 C143.343923,176.424132 144.765136,176.270466 146.147951,176.270466 Z M118,174 L110,192 L126,192 L118,174 Z" id="Combined-Shape" fill="#4D4D4D"></path>
        <g id="Group-2" transform="translate(69, 90)">
            <path d="M107.888889,50.1904762 C102.488771,50.1904762 98.1111111,54.6249867 98.1111111,60.0952381 C98.1111111,65.5654895 102.488771,70 107.888889,70 C113.289007,70 117.666667,65.5654895 117.666667,60.0952381 C117.666667,54.6249867 113.289007,50.1904762 107.888889,50.1904762 L107.888889,50.1904762 Z" id="path4155" fill="#FC0000"></path>
            <path d="M88.3333333,53.4920635 C84.733255,53.4920635 81.8148148,56.4484038 81.8148148,60.0952381 C81.8148148,63.7420724 84.733255,66.6984127 88.3333333,66.6984127 C91.9334117,66.6984127 94.8518519,63.7420724 94.8518519,60.0952381 C94.8518519,56.4484038 91.9334117,53.4920635 88.3333333,53.4920635 L88.3333333,53.4920635 Z" id="path4153" fill="#FC0000"></path>
            <path d="M75.2962963,56.7936508 C73.4962579,56.7936508 72.037037,58.271821 72.037037,60.0952381 C72.037037,61.9186552 73.4962579,63.3968254 75.2962963,63.3968254 C77.0963347,63.3968254 78.5555556,61.9186552 78.5555556,60.0952381 C78.5555556,58.271821 77.0963347,56.7936508 75.2962963,56.7936508 L75.2962963,56.7936508 Z" id="path4123" fill="#FC0000"></path>
            <path d="M96.4501307,26.7555619 C91.7734913,29.4906794 90.1711563,35.5483327 92.8712163,40.2857143 C95.5712747,45.0230959 101.551269,46.6462387 106.227908,43.9111048 C110.904548,41.1759873 112.506883,35.118334 109.806824,30.3809524 C107.106764,25.6435708 101.12677,24.0204279 96.4501307,26.7555619 L96.4501307,26.7555619 Z" id="path4161" fill="#FF6600"></path>
            <path d="M81.1441521,39.519581 C78.0263936,41.3429981 76.9581698,45.3814337 78.7582098,48.5396825 C80.5582481,51.6979314 84.5449121,52.7800267 87.6626707,50.9566095 C90.7804308,49.1331924 91.848653,45.0947568 90.0486147,41.9365079 C88.2485747,38.778259 84.2619123,37.6961638 81.1441521,39.519581 L81.1441521,39.519581 Z" id="path4159" fill="#FF6600"></path>
            <path d="M71.4833769,48.9820127 C69.9244976,49.893713 69.3903865,51.9129308 70.2904049,53.4920635 C71.1904249,55.0711962 73.1837569,55.6122438 74.7426361,54.700527 C76.3015154,53.7888267 76.8356265,51.7696089 75.9356081,50.1904762 C75.0355881,48.6113435 73.0422561,48.0703124 71.4833769,48.9820127 L71.4833769,48.9820127 Z" id="path4125" fill="#FF6600"></path>
            <path d="M74.9766412,12.2539835 C72.2765812,16.9913486 73.8789161,23.0490184 78.5555556,25.7841359 C83.232195,28.5192533 89.2121893,26.8961105 91.9122477,22.1587454 C94.6123077,17.4213638 93.0099727,11.3637105 88.3333333,8.62859302 C83.6566939,5.89345905 77.6766996,7.5166019 74.9766412,12.2539835 L74.9766412,12.2539835 Z" id="path4167" fill="#FFD700"></path>
            <path d="M68.0214634,31.06032 C66.221425,34.2185689 67.2896489,38.2570044 70.4074074,40.0804216 C73.5251659,41.9038387 77.5118299,40.8217435 79.3118699,37.6634946 C81.1119083,34.5052457 80.0436844,30.4668102 76.9259259,28.643393 C73.8081674,26.8199759 69.8215034,27.9020711 68.0214634,31.06032 L68.0214634,31.06032 Z" id="path4165" fill="#FFD700"></path>
            <path d="M64.3255465,44.1481587 C63.4255281,45.7272749 63.9596393,47.7464927 65.5185185,48.6582095 C67.0773978,49.5699098 69.0707298,49.0288622 69.9707498,47.449746 C70.8707681,45.8706133 70.336657,43.8513956 68.7777778,42.9396952 C67.2188985,42.0279784 65.2255665,42.569026 64.3255465,44.1481587 L64.3255465,44.1481587 Z" id="path4127" fill="#FFD700"></path>
            <path d="M49.2222239,10.5714286 C49.2222239,16.04168 53.5998816,20.4761905 59,20.4761905 C64.4001184,20.4761905 68.7777778,16.04168 68.7777778,10.5714286 C68.7777778,5.10117714 64.4001184,0.666666667 59,0.666666667 C53.5998816,0.666666667 49.2222239,5.10117714 49.2222239,10.5714286 L49.2222239,10.5714286 Z" id="path4173" fill="#25CC00"></path>
            <path d="M52.4814815,30.3809524 C52.4814815,34.0277867 55.3999233,36.984127 59,36.984127 C62.6000784,36.984127 65.5185201,34.0277867 65.5185201,30.3809524 C65.5185201,26.7341181 62.6000767,23.7777778 59,23.7777778 C55.3999233,23.7777778 52.4814815,26.7341181 52.4814815,30.3809524 L52.4814815,30.3809524 Z" id="path4171" fill="#25CC00"></path>
            <path d="M55.7407407,43.5873016 C55.7407407,45.4107187 57.1999616,46.8888889 59,46.8888889 C60.8000384,46.8888889 62.2592593,45.4107187 62.2592593,43.5873016 C62.2592593,41.7638844 60.8000384,40.2857143 59,40.2857143 C57.1999616,40.2857143 55.7407407,41.7638844 55.7407407,43.5873016 L55.7407407,43.5873016 Z" id="path4129" fill="#25CC00"></path>
            <path d="M26.0877539,22.1587454 C28.7878107,26.8961105 34.767805,28.5192698 39.4444444,25.7841359 C44.1210839,23.0490184 45.7234188,16.9913486 43.0233588,12.2539835 C40.3233004,7.5166019 34.3433061,5.89345905 29.6666667,8.62859302 C24.9900273,11.3637105 23.3876923,17.4213638 26.0877539,22.1587454 L26.0877539,22.1587454 Z" id="path4179" fill="#009999"></path>
            <path d="M38.6881301,37.6634946 C40.4881701,40.8217435 44.4748341,41.9038387 47.5925926,40.0804216 C50.7103527,38.2570044 51.778575,34.2185689 49.9785382,31.06032 C48.1784966,27.9020711 44.1918326,26.8199759 41.0740741,28.643393 C37.9563156,30.4668102 36.8880917,34.5052457 38.6881301,37.6634946 L38.6881301,37.6634946 Z" id="path4177" fill="#009999"></path>
            <path d="M48.0292502,47.449746 C48.9292719,49.0288622 50.9226022,49.5699098 52.4814815,48.6582095 C54.0403607,47.7464927 54.5744719,45.7272749 53.6744535,44.1481587 C52.7744335,42.569026 50.7811015,42.0279784 49.2222222,42.9396952 C47.663343,43.8513956 47.1292319,45.8706133 48.0292502,47.449746 L48.0292502,47.449746 Z" id="path4131" fill="#009999"></path>
            <path d="M11.7720932,43.9111048 C16.448731,46.6462387 22.4287253,45.0230959 25.1287853,40.2857143 C27.8288437,35.5483327 26.2265087,29.4906794 21.5498693,26.7555619 C16.8732299,24.0204279 10.8932356,25.6435708 8.19317719,30.3809524 C5.49311719,35.118334 7.09545215,41.1759873 11.7720932,43.9111048 L11.7720932,43.9111048 Z" id="path4185" fill="#0033CC"></path>
            <path d="M30.3373277,50.9566095 C33.4550879,52.7800267 37.4417519,51.6979314 39.2417919,48.5396825 C41.0418302,45.3814337 39.9736064,41.3429981 36.8558495,39.519581 C33.7380877,37.6961638 29.7514237,38.778259 27.9513853,41.9365079 C26.151347,45.0947568 27.2195692,49.1331924 30.3373277,50.9566095 L30.3373277,50.9566095 Z" id="path4183" fill="#0033CC"></path>
            <path d="M43.2573639,54.700527 C44.8162447,55.6122438 46.8095751,55.0711962 47.7095951,53.4920635 C48.6096151,51.9129473 48.0755024,49.893713 46.5166231,48.9820127 C44.9577439,48.0703124 42.9644119,48.6113435 42.0643919,50.1904762 C41.1643735,51.7696089 41.6984846,53.7888267 43.2573639,54.700527 L43.2573639,54.700527 Z" id="path4133" fill="#0033CC"></path>
            <path d="M10.1111127,70 C15.5112295,70 19.8888905,65.5654895 19.8888905,60.0952381 C19.8888905,54.6249867 15.5112295,50.1904762 10.1111111,50.1904762 C4.71099274,50.1904762 0.333334963,54.6249867 0.333334963,60.0952381 C0.333334963,65.5654895 4.71099274,70 10.1111127,70 L10.1111127,70 Z" id="path4191" fill="#660099"></path>
            <path d="M29.6666667,66.6984127 C33.266745,66.6984127 36.1851868,63.7420724 36.1851868,60.0952381 C36.1851868,56.4484038 33.266745,53.4920635 29.6666667,53.4920635 C26.0665883,53.4920635 23.1481481,56.4484038 23.1481481,60.0952381 C23.1481481,63.7420724 26.0665883,66.6984127 29.6666667,66.6984127 L29.6666667,66.6984127 Z" id="path4189" fill="#660099"></path>
            <path d="M42.7037037,63.3968254 C44.5037437,63.3968254 45.962963,61.9186552 45.962963,60.0952381 C45.962963,58.271821 44.5037421,56.7936508 42.7037037,56.7936508 C40.9036653,56.7936508 39.4444444,58.271821 39.4444444,60.0952381 C39.4444444,61.9186552 40.9036653,63.3968254 42.7037037,63.3968254 L42.7037037,63.3968254 Z" id="path4135" fill="#660099"></path>
        </g>
    </g>
</svg>