<?xml version="1.0" encoding="UTF-8"?>
<svg width="256px" height="256px" viewBox="0 0 256 256" version="1.1" xmlns="http://www.w3.org/2000/svg" xmlns:xlink="http://www.w3.org/1999/xlink">
    <title>mimetypes/256/application-pkix-cert</title>
    <defs>
        <linearGradient x1="50%" y1="9.40791504%" x2="50%" y2="95.1452294%" id="linearGradient-1">
            <stop stop-color="#00E073" offset="0%"></stop>
            <stop stop-color="#00C69A" offset="100%"></stop>
        </linearGradient>
        <path d="M184,210 C184,219.941125 175.941125,228 166,228 L18,228 C8.0588745,228 1.21743675e-15,219.941125 0,210 L0,18 C-1.21743675e-15,8.0588745 8.0588745,1.82615513e-15 18,0 L127,0 L184,57 L184,210 Z" id="path-2"></path>
        <filter x="-12.5%" y="-8.3%" width="125.0%" height="120.2%" filterUnits="objectBoundingBox" id="filter-3">
            <feOffset dx="0" dy="4" in="SourceAlpha" result="shadowOffsetOuter1"></feOffset>
            <feGaussianBlur stdDeviation="7" in="shadowOffsetOuter1" result="shadowBlurOuter1"></feGaussianBlur>
            <feColorMatrix values="0 0 0 0 0.262745098   0 0 0 0 0.71372549   0 0 0 0 0.584665184  0 0 0 0.5 0" type="matrix" in="shadowBlurOuter1"></feColorMatrix>
        </filter>
        <linearGradient x1="50%" y1="50%" x2="7.99354867%" y2="88.8926673%" id="linearGradient-4">
            <stop stop-color="#FFFFFF" stop-opacity="0.1" offset="0%"></stop>
            <stop stop-color="#FFFFFF" stop-opacity="0.3" offset="100%"></stop>
        </linearGradient>
        <path d="M127,0 L184,57 L145,57 C135.058875,57 127,48.9411255 127,39 L127,0 L127,0 Z" id="path-5"></path>
        <filter x="-12.3%" y="-8.8%" width="124.6%" height="124.6%" filterUnits="objectBoundingBox" id="filter-6">
            <feOffset dx="0" dy="2" in="SourceAlpha" result="shadowOffsetOuter1"></feOffset>
            <feGaussianBlur stdDeviation="2" in="shadowOffsetOuter1" result="shadowBlurOuter1"></feGaussianBlur>
            <feComposite in="shadowBlurOuter1" in2="SourceAlpha" operator="out" result="shadowBlurOuter1"></feComposite>
            <feColorMatrix values="0 0 0 0 0   0 0 0 0 0   0 0 0 0 0  0 0 0 0.05 0" type="matrix" in="shadowBlurOuter1"></feColorMatrix>
        </filter>
    </defs>
    <g id="mimetypes/256/application-pkix-cert" stroke="none" stroke-width="1" fill="none" fill-rule="evenodd">
        <g id="编组-2" transform="translate(36, 14)">
            <g id="蒙版">
                <use fill="black" fill-opacity="1" filter="url(#filter-3)" xlink:href="#path-2"></use>
                <use fill="url(#linearGradient-1)" fill-rule="evenodd" xlink:href="#path-2"></use>
            </g>
            <g id="折角">
                <use fill="black" fill-opacity="1" filter="url(#filter-6)" xlink:href="#path-5"></use>
                <use fill="url(#linearGradient-4)" fill-rule="evenodd" xlink:href="#path-5"></use>
            </g>
        </g>
        <path d="M128,76 C121.870032,76.0092 116.28408,79.51962 113.617188,85.039064 C111.82228,84.358556 109.919568,84.006592 108,84 C99.163444,84 92,91.163444 92,100 C92.0016,101.918612 92.34824,103.8213 93.023436,105.617188 C87.510076,108.288528 84.006152,113.873568 84,120 C84.0092,126.129968 87.51962,131.71592 93.039064,134.382812 C92.358556,136.17772 92.006592,138.080432 92,140 C92,148.836556 99.163444,156 108,156 C109.350408,155.9924 110.694428,155.81392 112,155.468752 L112,184 C112.0014,187.562548 116.308144,189.346348 118.828124,186.828124 L128,177.656248 L137.171876,186.828124 C139.691856,189.346348 143.9986,187.562548 144,184 L144,155.476564 C145.305908,155.819124 146.649924,155.99498 148,156 C156.836556,156 164,148.836556 164,140 C163.9984,138.081388 163.65172,136.1787 162.976564,134.382812 C168.489924,131.711472 171.993848,126.126432 172,120 C171.990948,113.870032 168.48038,108.28408 162.960936,105.617188 C163.641444,103.82228 163.993408,101.919568 164,100 C164,91.163444 156.836556,84 148,84 C146.081388,84.0016 144.1787,84.34824 142.382812,85.023436 C139.711472,79.510076 134.126432,76.006152 128,76 Z M128,92 C143.463972,92 156,104.536028 156,120 C156,135.463972 143.463972,148 128,148 C112.536028,148 100,135.463972 100,120 C100,104.536028 112.536028,92 128,92 Z M128,96 C114.745168,96 104,106.745168 104,120 C104,133.254832 114.745168,144 128,144 C141.254832,144 152,133.254832 152,120 C152,106.745168 141.254832,96 128,96 Z" id="形状" fill="#FFFFFF"></path>
    </g>
</svg>