<?xml version="1.0" encoding="UTF-8"?>
<svg width="256px" height="256px" viewBox="0 0 256 256" version="1.1" xmlns="http://www.w3.org/2000/svg" xmlns:xlink="http://www.w3.org/1999/xlink">
    <title>mimetypes/256/application-x-cue</title>
    <defs>
        <linearGradient x1="50%" y1="0%" x2="50%" y2="100%" id="linearGradient-1">
            <stop stop-color="#B7EE43" offset="0%"></stop>
            <stop stop-color="#6AD500" offset="100%"></stop>
        </linearGradient>
        <path d="M184,210 C184,219.941125 175.941125,228 166,228 L18,228 C8.0588745,228 1.21743675e-15,219.941125 0,210 L0,18 C-1.21743675e-15,8.0588745 8.0588745,1.82615513e-15 18,0 L127,0 L184,57 L184,210 Z" id="path-2"></path>
        <filter x="-12.5%" y="-8.3%" width="125.0%" height="120.2%" filterUnits="objectBoundingBox" id="filter-3">
            <feOffset dx="0" dy="4" in="SourceAlpha" result="shadowOffsetOuter1"></feOffset>
            <feGaussianBlur stdDeviation="7" in="shadowOffsetOuter1" result="shadowBlurOuter1"></feGaussianBlur>
            <feColorMatrix values="0 0 0 0 0.505882353   0 0 0 0 0.741176471   0 0 0 0 0  0 0 0 0.5 0" type="matrix" in="shadowBlurOuter1"></feColorMatrix>
        </filter>
        <linearGradient x1="50%" y1="50%" x2="7.99354867%" y2="88.8926673%" id="linearGradient-4">
            <stop stop-color="#FFFFFF" stop-opacity="0.1" offset="0%"></stop>
            <stop stop-color="#FFFFFF" stop-opacity="0.3" offset="100%"></stop>
        </linearGradient>
        <path d="M127,0 L184,57 L145,57 C135.058875,57 127,48.9411255 127,39 L127,0 L127,0 Z" id="path-5"></path>
        <filter x="-12.3%" y="-8.8%" width="124.6%" height="124.6%" filterUnits="objectBoundingBox" id="filter-6">
            <feOffset dx="0" dy="2" in="SourceAlpha" result="shadowOffsetOuter1"></feOffset>
            <feGaussianBlur stdDeviation="2" in="shadowOffsetOuter1" result="shadowBlurOuter1"></feGaussianBlur>
            <feComposite in="shadowBlurOuter1" in2="SourceAlpha" operator="out" result="shadowBlurOuter1"></feComposite>
            <feColorMatrix values="0 0 0 0 0   0 0 0 0 0   0 0 0 0 0  0 0 0 0.05 0" type="matrix" in="shadowBlurOuter1"></feColorMatrix>
        </filter>
    </defs>
    <g id="mimetypes/256/application-x-cue" stroke="none" stroke-width="1" fill="none" fill-rule="evenodd">
        <g id="编组-2" transform="translate(36, 14)">
            <g id="蒙版">
                <use fill="black" fill-opacity="1" filter="url(#filter-3)" xlink:href="#path-2"></use>
                <use fill="url(#linearGradient-1)" fill-rule="evenodd" xlink:href="#path-2"></use>
            </g>
            <g id="折角">
                <use fill="black" fill-opacity="1" filter="url(#filter-6)" xlink:href="#path-5"></use>
                <use fill="url(#linearGradient-4)" fill-rule="evenodd" xlink:href="#path-5"></use>
            </g>
        </g>
        <path d="M128,92 C154.509668,92 176,113.490332 176,140 C176,166.509668 154.509668,188 128,188 C101.490332,188 80,166.509668 80,140 C80,113.490332 101.490332,92 128,92 Z M160.66323,121.664948 C150.353915,103.80869 127.521206,97.6906847 109.664948,108 C93.7992756,117.16005 87.2006104,136.206955 93.1581564,152.865237 C91.6235124,154.322865 90.6666667,156.383024 90.6666667,158.666667 C90.6666667,163.084945 94.2483887,166.666667 98.6666667,166.666667 C103.084945,166.666667 106.666667,163.084945 106.666667,158.666667 C106.666667,154.248389 103.084945,150.666667 98.6666667,150.666667 C98.4585571,150.666667 98.2523036,150.674613 98.0481928,150.690219 C93.178517,136.504154 98.8543813,120.399887 112.331615,112.618802 C138.666667,97.3333331 161.39961,122.940395 160.66323,121.664948 Z M128,118.666667 C116.217925,118.666667 106.666667,128.217925 106.666667,140 C106.666667,151.782075 116.217925,161.333333 128,161.333333 C139.782075,161.333333 149.333333,151.782075 149.333333,140 C149.333333,128.217925 139.782075,118.666667 128,118.666667 Z M128,124 C136.836556,124 144,131.163444 144,140 C144,148.836556 136.836556,156 128,156 C119.163444,156 112,148.836556 112,140 C112,131.163444 119.163444,124 128,124 Z M128,129.333333 C122.108963,129.333333 117.333333,134.108963 117.333333,140 C117.333333,145.891037 122.108963,150.666667 128,150.666667 C133.891037,150.666667 138.666667,145.891037 138.666667,140 C138.666667,134.108963 133.891037,129.333333 128,129.333333 Z" id="Combined-Shape" fill="#FFFFFF"></path>
    </g>
</svg>