<?xml version="1.0" encoding="UTF-8"?>
<svg width="256px" height="256px" viewBox="0 0 256 256" version="1.1" xmlns="http://www.w3.org/2000/svg" xmlns:xlink="http://www.w3.org/1999/xlink">
    <title>mimetypes/256/application-vnd.oasis.opendocument.formula</title>
    <defs>
        <linearGradient x1="50%" y1="0%" x2="50%" y2="100%" id="linearGradient-1">
            <stop stop-color="#9BAAC1" offset="0%"></stop>
            <stop stop-color="#779DB2" offset="100%"></stop>
        </linearGradient>
        <path d="M184,210 C184,219.941125 175.941125,228 166,228 L18,228 C8.0588745,228 1.21743675e-15,219.941125 0,210 L0,18 C-1.21743675e-15,8.0588745 8.0588745,1.82615513e-15 18,0 L127,0 L184,57 L184,210 Z" id="path-2"></path>
        <filter x="-12.5%" y="-8.3%" width="125.0%" height="120.2%" filterUnits="objectBoundingBox" id="filter-3">
            <feOffset dx="0" dy="4" in="SourceAlpha" result="shadowOffsetOuter1"></feOffset>
            <feGaussianBlur stdDeviation="7" in="shadowOffsetOuter1" result="shadowBlurOuter1"></feGaussianBlur>
            <feColorMatrix values="0 0 0 0 0.474509804   0 0 0 0 0.619607843   0 0 0 0 0.701960784  0 0 0 0.5 0" type="matrix" in="shadowBlurOuter1"></feColorMatrix>
        </filter>
        <linearGradient x1="50%" y1="50%" x2="7.99354867%" y2="88.8926673%" id="linearGradient-4">
            <stop stop-color="#FFFFFF" stop-opacity="0.1" offset="0%"></stop>
            <stop stop-color="#FFFFFF" stop-opacity="0.3" offset="100%"></stop>
        </linearGradient>
        <path d="M127,0 L184,57 L145,57 C135.058875,57 127,48.9411255 127,39 L127,0 L127,0 Z" id="path-5"></path>
        <filter x="-12.3%" y="-8.8%" width="124.6%" height="124.6%" filterUnits="objectBoundingBox" id="filter-6">
            <feOffset dx="0" dy="2" in="SourceAlpha" result="shadowOffsetOuter1"></feOffset>
            <feGaussianBlur stdDeviation="2" in="shadowOffsetOuter1" result="shadowBlurOuter1"></feGaussianBlur>
            <feComposite in="shadowBlurOuter1" in2="SourceAlpha" operator="out" result="shadowBlurOuter1"></feComposite>
            <feColorMatrix values="0 0 0 0 0   0 0 0 0 0   0 0 0 0 0  0 0 0 0.05 0" type="matrix" in="shadowBlurOuter1"></feColorMatrix>
        </filter>
    </defs>
    <g id="mimetypes/256/application-vnd.oasis.opendocument.formula" stroke="none" stroke-width="1" fill="none" fill-rule="evenodd">
        <g id="编组-2" transform="translate(36, 14)">
            <g id="蒙版">
                <use fill="black" fill-opacity="1" filter="url(#filter-3)" xlink:href="#path-2"></use>
                <use fill="url(#linearGradient-1)" fill-rule="evenodd" xlink:href="#path-2"></use>
            </g>
            <g id="折角">
                <use fill="black" fill-opacity="1" filter="url(#filter-6)" xlink:href="#path-5"></use>
                <use fill="url(#linearGradient-4)" fill-rule="evenodd" xlink:href="#path-5"></use>
            </g>
        </g>
        <path d="M152.962364,88 L156.832462,112.938397 L152.962364,112.938397 C151.340542,108.902516 149.036915,105.144281 146.051473,101.66368 C143.065912,98.1461877 141.136105,96.5184503 138.666667,96 C137.929472,95.8519402 126.373916,95.8519402 104,96 L136.210366,137.320679 L136.210366,138.820272 L102,180 L144,180 C149.333333,180 152.746761,179.48107 154,178 C155.326822,176.444862 156.132089,174.181037 157.164184,172.255639 C158.196137,170.330236 159.043874,168.552943 159.707392,166.923755 L163.411629,168.090103 L157.164185,192 L88,192 L88,189.750889 L126.479833,143.152429 L88,93.3333333 L88,88 L152.962364,88 Z" id="path4431" fill="#FFFFFF"></path>
    </g>
</svg>