<?xml version="1.0" encoding="UTF-8"?>
<svg width="256px" height="256px" viewBox="0 0 256 256" version="1.1" xmlns="http://www.w3.org/2000/svg" xmlns:xlink="http://www.w3.org/1999/xlink">
    <title>mimetypes/256/application-x-subrip</title>
    <defs>
        <linearGradient x1="50%" y1="0%" x2="50%" y2="100%" id="linearGradient-1">
            <stop stop-color="#5895FF" offset="0%"></stop>
            <stop stop-color="#387CF4" offset="100%"></stop>
        </linearGradient>
        <path d="M184,210 C184,219.941125 175.941125,228 166,228 L18,228 C8.0588745,228 1.21743675e-15,219.941125 0,210 L0,18 C-1.21743675e-15,8.0588745 8.0588745,1.82615513e-15 18,0 L127,0 L184,57 L184,210 Z" id="path-2"></path>
        <filter x="-12.5%" y="-8.3%" width="125.0%" height="120.2%" filterUnits="objectBoundingBox" id="filter-3">
            <feOffset dx="0" dy="4" in="SourceAlpha" result="shadowOffsetOuter1"></feOffset>
            <feGaussianBlur stdDeviation="7" in="shadowOffsetOuter1" result="shadowBlurOuter1"></feGaussianBlur>
            <feColorMatrix values="0 0 0 0 0.22745098   0 0 0 0 0.494117647   0 0 0 0 0.960784314  0 0 0 0.5 0" type="matrix" in="shadowBlurOuter1"></feColorMatrix>
        </filter>
        <linearGradient x1="50%" y1="50%" x2="7.99354867%" y2="88.8926673%" id="linearGradient-4">
            <stop stop-color="#FFFFFF" stop-opacity="0.1" offset="0%"></stop>
            <stop stop-color="#FFFFFF" stop-opacity="0.3" offset="100%"></stop>
        </linearGradient>
        <path d="M127,0 L184,57 L145,57 C135.058875,57 127,48.9411255 127,39 L127,0 L127,0 Z" id="path-5"></path>
        <filter x="-12.3%" y="-8.8%" width="124.6%" height="124.6%" filterUnits="objectBoundingBox" id="filter-6">
            <feOffset dx="0" dy="2" in="SourceAlpha" result="shadowOffsetOuter1"></feOffset>
            <feGaussianBlur stdDeviation="2" in="shadowOffsetOuter1" result="shadowBlurOuter1"></feGaussianBlur>
            <feComposite in="shadowBlurOuter1" in2="SourceAlpha" operator="out" result="shadowBlurOuter1"></feComposite>
            <feColorMatrix values="0 0 0 0 0   0 0 0 0 0   0 0 0 0 0  0 0 0 0.05 0" type="matrix" in="shadowBlurOuter1"></feColorMatrix>
        </filter>
    </defs>
    <g id="mimetypes/256/application-x-subrip" stroke="none" stroke-width="1" fill="none" fill-rule="evenodd">
        <g id="编组-2" transform="translate(36, 14)">
            <g id="蒙版">
                <use fill="black" fill-opacity="1" filter="url(#filter-3)" xlink:href="#path-2"></use>
                <use fill="url(#linearGradient-1)" fill-rule="evenodd" xlink:href="#path-2"></use>
            </g>
            <g id="折角">
                <use fill="black" fill-opacity="1" filter="url(#filter-6)" xlink:href="#path-5"></use>
                <use fill="url(#linearGradient-4)" fill-rule="evenodd" xlink:href="#path-5"></use>
            </g>
        </g>
        <path d="M92,192 L164,192 C170.627417,192 176,186.627417 176,180 L176,96 C176,89.372583 170.627417,84 164,84 L92,84 C85.372583,84 80,89.372583 80,96 L80,180 C80,186.627417 85.372583,192 92,192 Z M172,96 L172,176 L172,176 C170.666667,173.333333 168,172 164,172 C140.021242,172 116.042484,172 92,172 C88,172 85.3333333,173.333333 84,176 L84,96 C84,91.581722 87.581722,88 92,88 L164,88 C168.418278,88 172,91.581722 172,96 Z M112,116 C112,124.864 119.136,132 128,132 C136.864,132 144,124.864 144,116 C144,107.136 136.864,100 128,100 C119.136,100 112,107.136 112,116 Z M101.864581,148 L154.135419,148 C152.728309,141.318376 148.555312,135.671271 142.864581,132 C139.026181,135.572737 133.802224,137.791902 128,137.791902 C122.197776,137.791902 116.973819,135.572737 113.135419,132 C107.444688,135.671271 103.271691,141.318376 101.864581,148 Z M92,164 L108,164 L108,160 L92,160 L92,164 Z M112,164 L120,164 L120,160 L112,160 L112,164 Z M124,164 L164,164 L164,160 L124,160 L124,164 Z M160,184 C160,186.216 158.216,188 156,188 C153.784,188 152,186.216 152,184 C152,181.784 153.784,180 156,180 C158.216,180 160,181.784 160,184 Z" id="rect4219" fill="#FFFFFF"></path>
    </g>
</svg>