<svg xmlns="http://www.w3.org/2000/svg" xmlns:xlink="http://www.w3.org/1999/xlink" width="256" height="256" viewBox="0 0 256 256">
  <defs>
    <linearGradient id="audio-x-wav-c" x1="50%" x2="50%" y1="0%" y2="100%">
      <stop offset="0%" stop-color="#B7EE43"/>
      <stop offset="100%" stop-color="#6AD500"/>
    </linearGradient>
    <path id="audio-x-wav-b" d="M116,0 L168,52 L168,190 C168,199.941125 159.941125,208 150,208 L18,208 C8.0588745,208 1.21743675e-15,199.941125 0,190 L0,18 C-1.21743675e-15,8.0588745 8.0588745,1.82615513e-15 18,0 L116,0 Z"/>
    <filter id="audio-x-wav-a" width="127.4%" height="122.1%" x="-13.7%" y="-9.1%" filterUnits="objectBoundingBox">
      <feOffset dy="4" in="SourceAlpha" result="shadowOffsetOuter1"/>
      <feGaussianBlur in="shadowOffsetOuter1" result="shadowBlurOuter1" stdDeviation="7"/>
      <feColorMatrix in="shadowBlurOuter1" values="0 0 0 0 0.505882353   0 0 0 0 0.741176471   0 0 0 0 0  0 0 0 0.5 0"/>
    </filter>
    <linearGradient id="audio-x-wav-f" x1="50%" x2="7.994%" y1="50%" y2="88.893%">
      <stop offset="0%" stop-color="#FFF" stop-opacity=".1"/>
      <stop offset="100%" stop-color="#FFF" stop-opacity=".3"/>
    </linearGradient>
    <path id="audio-x-wav-e" d="M116,0 L168,52 L134,52 C124.058875,52 116,43.9411255 116,34 L116,0 Z"/>
    <filter id="audio-x-wav-d" width="126.9%" height="126.9%" x="-13.5%" y="-9.6%" filterUnits="objectBoundingBox">
      <feOffset dy="2" in="SourceAlpha" result="shadowOffsetOuter1"/>
      <feGaussianBlur in="shadowOffsetOuter1" result="shadowBlurOuter1" stdDeviation="2"/>
      <feComposite in="shadowBlurOuter1" in2="SourceAlpha" operator="out" result="shadowBlurOuter1"/>
      <feColorMatrix in="shadowBlurOuter1" values="0 0 0 0 0   0 0 0 0 0   0 0 0 0 0  0 0 0 0.05 0"/>
    </filter>
  </defs>
  <g fill="none" fill-rule="evenodd">
    <g transform="translate(44 28)">
      <use fill="#000" filter="url(#audio-x-wav-a)" xlink:href="#audio-x-wav-b"/>
      <use fill="url(#audio-x-wav-c)" xlink:href="#audio-x-wav-b"/>
      <use fill="#000" filter="url(#audio-x-wav-d)" xlink:href="#audio-x-wav-e"/>
      <use fill="url(#audio-x-wav-f)" xlink:href="#audio-x-wav-e"/>
    </g>
    <path fill="#FFF" d="M124,216 L128.199997,216 L129.600006,212 L142.399994,212 L143.800003,216 L148,216 L138.154547,188 L134,188 L124,216 Z M130.800003,208 L136,193.199997 L141.199997,208 L130.800003,208 Z M144,188 L148.199997,188 L156,210 L163.800003,188 L168,188 L158.154547,216 L154,216 L144,188 Z M108,188 L112,188 L116,206 L123,188 L128,188 L117.599998,216 L114.800003,216 L110,200 L105.199997,216 L102.400002,216 L92,188 L97.5,188 L104,206 L108,188 Z M80,128 C80,101.5328 101.5328,80 128,80 C154.4672,80 176,101.5328 176,128 C176,154.4672 154.4672,176 128,176 C101.5328,176 80,154.4672 80,128 Z M84.8,128 C84.8,151.8224 104.1824,171.2 128,171.2 C151.8176,171.2 171.2,151.8224 171.2,128 C171.2,104.1776 151.8176,84.8 128,84.8 C104.1824,84.8 84.8,104.1776 84.8,128 Z M133.854592,97.4787598 C133.854592,98.9080932 135.123925,102.225426 142.147925,106.604093 C142.147925,106.604093 151.321258,111.55876 153.923925,120.508093 C153.923925,120.508093 156.782592,128.492093 152.121258,138.56676 C152.121258,138.56676 151.678592,139.49476 150.707925,139.105426 C149.939925,138.796093 150.201258,137.820093 150.201258,137.820093 C150.201258,137.820093 153.342592,129.969426 150.729258,123.60676 C150.729258,123.60676 148.318592,114.865426 133.422592,110.897426 C133.422592,110.897426 133.347925,145.313426 133.294592,145.580093 C133.235925,150.657426 129.017258,155.99076 122.537258,158.513426 C114.627925,161.59076 106.361258,159.313426 104.067925,153.43076 C101.774592,147.54276 106.227925,139.95876 114.254592,137.19076 C119.705258,135.313426 124.467925,135.44676 128.158592,137.361426 L128.254592,96.5240932 C128.259925,94.6200932 129.550592,93.0734265 131.006592,93.0680932 C132.467925,93.0627598 133.854592,94.5987598 133.854592,96.5027598 L133.854592,97.4787598 Z"/>
  </g>
</svg>
