<?xml version="1.0" encoding="UTF-8"?>
<svg width="256px" height="256px" viewBox="0 0 256 256" version="1.1" xmlns="http://www.w3.org/2000/svg" xmlns:xlink="http://www.w3.org/1999/xlink">
    <title>mimetypes/256/audio-x-generic</title>
    <defs>
        <linearGradient x1="50%" y1="0%" x2="50%" y2="100%" id="linearGradient-1">
            <stop stop-color="#B7EE43" offset="0%"></stop>
            <stop stop-color="#6AD500" offset="100%"></stop>
        </linearGradient>
        <path d="M184,210 C184,219.941125 175.941125,228 166,228 L18,228 C8.0588745,228 1.21743675e-15,219.941125 0,210 L0,18 C-1.21743675e-15,8.0588745 8.0588745,1.82615513e-15 18,0 L127,0 L184,57 L184,210 Z" id="path-2"></path>
        <filter x="-12.5%" y="-8.3%" width="125.0%" height="120.2%" filterUnits="objectBoundingBox" id="filter-3">
            <feOffset dx="0" dy="4" in="SourceAlpha" result="shadowOffsetOuter1"></feOffset>
            <feGaussianBlur stdDeviation="7" in="shadowOffsetOuter1" result="shadowBlurOuter1"></feGaussianBlur>
            <feColorMatrix values="0 0 0 0 0.505882353   0 0 0 0 0.741176471   0 0 0 0 0  0 0 0 0.5 0" type="matrix" in="shadowBlurOuter1"></feColorMatrix>
        </filter>
        <linearGradient x1="50%" y1="50%" x2="7.99354867%" y2="88.8926673%" id="linearGradient-4">
            <stop stop-color="#FFFFFF" stop-opacity="0.1" offset="0%"></stop>
            <stop stop-color="#FFFFFF" stop-opacity="0.3" offset="100%"></stop>
        </linearGradient>
        <path d="M127,0 L184,57 L145,57 C135.058875,57 127,48.9411255 127,39 L127,0 L127,0 Z" id="path-5"></path>
        <filter x="-12.3%" y="-8.8%" width="124.6%" height="124.6%" filterUnits="objectBoundingBox" id="filter-6">
            <feOffset dx="0" dy="2" in="SourceAlpha" result="shadowOffsetOuter1"></feOffset>
            <feGaussianBlur stdDeviation="2" in="shadowOffsetOuter1" result="shadowBlurOuter1"></feGaussianBlur>
            <feComposite in="shadowBlurOuter1" in2="SourceAlpha" operator="out" result="shadowBlurOuter1"></feComposite>
            <feColorMatrix values="0 0 0 0 0   0 0 0 0 0   0 0 0 0 0  0 0 0 0.05 0" type="matrix" in="shadowBlurOuter1"></feColorMatrix>
        </filter>
    </defs>
    <g id="mimetypes/256/audio-x-generic" stroke="none" stroke-width="1" fill="none" fill-rule="evenodd">
        <g id="编组-2" transform="translate(36, 14)">
            <g id="蒙版">
                <use fill="black" fill-opacity="1" filter="url(#filter-3)" xlink:href="#path-2"></use>
                <use fill="url(#linearGradient-1)" fill-rule="evenodd" xlink:href="#path-2"></use>
            </g>
            <g id="折角">
                <use fill="black" fill-opacity="1" filter="url(#filter-6)" xlink:href="#path-5"></use>
                <use fill="url(#linearGradient-4)" fill-rule="evenodd" xlink:href="#path-5"></use>
            </g>
        </g>
        <path d="M128,192 C99.3272,192 76,168.6728 76,140 C76,111.3272 99.3272,88 128,88 C156.6728,88 180,111.3272 180,140 C180,168.6728 156.6728,192 128,192 L128,192 Z M128,93.2 C153.8024,93.2 174.8,114.1924 174.8,140 C174.8,165.8076 153.8024,186.8 128,186.8 C102.1976,186.8 81.2,165.8076 81.2,140 C81.2,114.1924 102.1976,93.2 128,93.2 Z M131.006592,105.068079 C129.550592,105.073426 128.259925,106.620093 128.254592,108.524093 L128.158592,149.361426 C124.467925,147.44676 119.705258,147.313426 114.254592,149.19076 C106.227925,151.95876 101.774592,159.54276 104.067925,165.43076 C106.361258,171.313426 114.627925,173.59076 122.537258,170.513426 C129.017258,167.99076 133.235925,162.657426 133.294592,157.580093 C133.342058,157.34276 133.406423,130.05574 133.420009,124.055467 L133.420847,123.683751 C133.420974,123.627356 133.421094,123.573786 133.421207,123.523108 L133.421806,123.254309 C133.421892,123.215478 133.421971,123.179678 133.422044,123.146976 L133.422592,122.897426 C148.318592,126.865426 150.729258,135.60676 150.729258,135.60676 C153.342592,141.969426 150.201258,149.820093 150.201258,149.820093 C150.201258,149.820093 149.939925,150.796093 150.707925,151.105426 C151.678592,151.49476 152.121258,150.56676 152.121258,150.56676 C156.782592,140.492093 153.923925,132.508093 153.923925,132.508093 C151.321258,123.55876 142.147925,118.604093 142.147925,118.604093 C135.123925,114.225426 133.854592,110.908093 133.854592,109.47876 L133.854592,108.50276 C133.854592,106.59876 132.467925,105.06276 131.006592,105.068079 Z" id="Combined-Shape" fill="#FFFFFF"></path>
    </g>
</svg>