<?xml version="1.0" encoding="UTF-8"?>
<svg width="256px" height="256px" viewBox="0 0 256 256" version="1.1" xmlns="http://www.w3.org/2000/svg" xmlns:xlink="http://www.w3.org/1999/xlink">
    <title>mimetypes/256/image-bmp</title>
    <defs>
        <linearGradient x1="50%" y1="0%" x2="50%" y2="100%" id="linearGradient-1">
            <stop stop-color="#28DCB1" offset="0%"></stop>
            <stop stop-color="#00AF9D" offset="100%"></stop>
        </linearGradient>
        <path d="M184,210 C184,219.941125 175.941125,228 166,228 L18,228 C8.0588745,228 1.21743675e-15,219.941125 0,210 L0,18 C-1.21743675e-15,8.0588745 8.0588745,1.82615513e-15 18,0 L127,0 L184,57 L184,210 Z" id="path-2"></path>
        <filter x="-12.5%" y="-8.3%" width="125.0%" height="120.2%" filterUnits="objectBoundingBox" id="filter-3">
            <feOffset dx="0" dy="4" in="SourceAlpha" result="shadowOffsetOuter1"></feOffset>
            <feGaussianBlur stdDeviation="7" in="shadowOffsetOuter1" result="shadowBlurOuter1"></feGaussianBlur>
            <feColorMatrix values="0 0 0 0 0.262745098   0 0 0 0 0.71372549   0 0 0 0 0.607843137  0 0 0 0.5 0" type="matrix" in="shadowBlurOuter1"></feColorMatrix>
        </filter>
        <linearGradient x1="50%" y1="50%" x2="7.99354867%" y2="88.8926673%" id="linearGradient-4">
            <stop stop-color="#FFFFFF" stop-opacity="0.1" offset="0%"></stop>
            <stop stop-color="#FFFFFF" stop-opacity="0.3" offset="100%"></stop>
        </linearGradient>
        <path d="M127,0 L184,57 L145,57 C135.058875,57 127,48.9411255 127,39 L127,0 L127,0 Z" id="path-5"></path>
        <filter x="-12.3%" y="-8.8%" width="124.6%" height="124.6%" filterUnits="objectBoundingBox" id="filter-6">
            <feOffset dx="0" dy="2" in="SourceAlpha" result="shadowOffsetOuter1"></feOffset>
            <feGaussianBlur stdDeviation="2" in="shadowOffsetOuter1" result="shadowBlurOuter1"></feGaussianBlur>
            <feComposite in="shadowBlurOuter1" in2="SourceAlpha" operator="out" result="shadowBlurOuter1"></feComposite>
            <feColorMatrix values="0 0 0 0 0   0 0 0 0 0   0 0 0 0 0  0 0 0 0.05 0" type="matrix" in="shadowBlurOuter1"></feColorMatrix>
        </filter>
    </defs>
    <g id="mimetypes/256/image-bmp" stroke="none" stroke-width="1" fill="none" fill-rule="evenodd">
        <g id="编组-2" transform="translate(36, 14)">
            <g id="蒙版">
                <use fill="black" fill-opacity="1" filter="url(#filter-3)" xlink:href="#path-2"></use>
                <use fill="url(#linearGradient-1)" fill-rule="evenodd" xlink:href="#path-2"></use>
            </g>
            <g id="折角">
                <use fill="black" fill-opacity="1" filter="url(#filter-6)" xlink:href="#path-5"></use>
                <use fill="url(#linearGradient-4)" fill-rule="evenodd" xlink:href="#path-5"></use>
            </g>
        </g>
        <path d="M103.996669,176 C108.414557,176 112,179.586235 112,184 C112,186.392056 110.95313,188.537428 109.291136,190.002879 C110.952039,191.469432 112,193.61378 112,196 C112,200.421391 108.423418,204 103.996669,204 L92,204 L92,176 L103.996669,176 Z M160,175.850667 C165.522847,175.850667 168,179.850667 168,183.850667 C168,187.850667 165.561352,191.850667 160,191.850667 L152.004624,191.850667 L152.004624,203.850667 L148,203.850667 L148,175.850667 L160,175.850667 Z M120,175.850667 L130,194.850667 L140,175.850667 L144,175.850667 L144,203.850667 L140,203.850667 L140,185.850667 L132,199.850667 L128,199.850667 L120,185.850667 L120,203.850667 L116,203.850667 L116,175.850667 L120,175.850667 Z M103.996669,192 L96,192 L96,200 L103.996669,200 C106.213772,200 108,198.212759 108,196 C108,193.795176 106.205221,192 103.996669,192 Z M103.996669,180 L96,180 L96,188 L103.996669,188 C106.213772,188 108,186.212759 108,184 C108,181.795176 106.205221,180 103.996669,180 Z M160,179.850667 L152,179.850667 L152,187.850667 L160,187.850667 C162.224351,187.850667 164,186.070282 164,183.850667 C164,181.626316 162.219616,179.850667 160,179.850667 Z M172,92 L172,164 L84,164 L84,92 L172,92 Z M168,96 L88,96 L88,160 L168,160 L168,96 Z M118,104 L132,134 L140,118 L164,155.972447 L92,156.016 L118,104 Z" id="形状结合" fill="#FFFFFF"></path>
    </g>
</svg>