<?xml version="1.0" encoding="UTF-8"?>
<svg width="256px" height="256px" viewBox="0 0 256 256" version="1.1" xmlns="http://www.w3.org/2000/svg" xmlns:xlink="http://www.w3.org/1999/xlink">
    <title>mimetypes/256/package-x-ddf</title>
    <defs>
        <linearGradient x1="50%" y1="0%" x2="50%" y2="98.9468961%" id="linearGradient-1">
            <stop stop-color="#F7F7F7" offset="0%"></stop>
            <stop stop-color="#F6F6F6" offset="100%"></stop>
        </linearGradient>
        <path d="M220,224 C220,233.941125 211.941125,242 202,242 L54,242 C44.0588745,242 36,233.941125 36,224 L36,32 C36,22.0588745 44.0588745,14 54,14 L163,14 L220,71 L220,224 Z" id="path-2"></path>
        <filter x="-12.5%" y="-8.3%" width="125.0%" height="120.2%" filterUnits="objectBoundingBox" id="filter-4">
            <feOffset dx="0" dy="4" in="SourceAlpha" result="shadowOffsetOuter1"></feOffset>
            <feGaussianBlur stdDeviation="7" in="shadowOffsetOuter1" result="shadowBlurOuter1"></feGaussianBlur>
            <feColorMatrix values="0 0 0 0 0   0 0 0 0 0   0 0 0 0 0  0 0 0 0.1 0" type="matrix" in="shadowBlurOuter1"></feColorMatrix>
        </filter>
        <linearGradient x1="56.9096326%" y1="0%" x2="6.8992975%" y2="86.2898213%" id="linearGradient-5">
            <stop stop-color="#1B90FF" offset="0%"></stop>
            <stop stop-color="#53A0FD" offset="47.5247532%"></stop>
            <stop stop-color="#68FFAD" offset="100%"></stop>
        </linearGradient>
        <linearGradient x1="56.8685664%" y1="0%" x2="7.15545875%" y2="86.2898213%" id="linearGradient-6">
            <stop stop-color="#1B90FF" offset="0%"></stop>
            <stop stop-color="#53A0FD" offset="47.5247532%"></stop>
            <stop stop-color="#68FFAD" offset="100%"></stop>
        </linearGradient>
        <linearGradient x1="56.91157%" y1="0%" x2="96.0869522%" y2="71.0304085%" id="linearGradient-7">
            <stop stop-color="#A197FF" offset="0%"></stop>
            <stop stop-color="#60FFA4" offset="100%"></stop>
        </linearGradient>
        <linearGradient x1="88.125222%" y1="18.2999345%" x2="-0.286538373%" y2="92.1740161%" id="linearGradient-8">
            <stop stop-color="#DD61FA" offset="0%"></stop>
            <stop stop-color="#FFDC5A" offset="100%"></stop>
        </linearGradient>
        <linearGradient x1="96.3907596%" y1="20.7037635%" x2="-0.0341632463%" y2="84.7270053%" id="linearGradient-9">
            <stop stop-color="#FA6196" offset="0%"></stop>
            <stop stop-color="#FFD849" offset="100%"></stop>
        </linearGradient>
        <linearGradient x1="95.7922523%" y1="15.9616874%" x2="0%" y2="67.9801117%" id="linearGradient-10">
            <stop stop-color="#FF9532" offset="0%"></stop>
            <stop stop-color="#FFFF46" offset="100%"></stop>
        </linearGradient>
        <linearGradient x1="50%" y1="50%" x2="7.99354867%" y2="88.8926673%" id="linearGradient-11">
            <stop stop-color="#FFFFFF" stop-opacity="0.1" offset="0%"></stop>
            <stop stop-color="#FFFFFF" stop-opacity="0.3" offset="100%"></stop>
        </linearGradient>
        <path d="M163,14 L220,71 L181,71 C171.058875,71 163,62.9411255 163,53 L163,14 L163,14 Z" id="path-12"></path>
        <filter x="-12.3%" y="-8.8%" width="124.6%" height="124.6%" filterUnits="objectBoundingBox" id="filter-13">
            <feOffset dx="0" dy="2" in="SourceAlpha" result="shadowOffsetOuter1"></feOffset>
            <feGaussianBlur stdDeviation="2" in="shadowOffsetOuter1" result="shadowBlurOuter1"></feGaussianBlur>
            <feComposite in="shadowBlurOuter1" in2="SourceAlpha" operator="out" result="shadowBlurOuter1"></feComposite>
            <feColorMatrix values="0 0 0 0 0   0 0 0 0 0   0 0 0 0 0  0 0 0 0.05 0" type="matrix" in="shadowBlurOuter1"></feColorMatrix>
        </filter>
    </defs>
    <g id="mimetypes/256/package-x-ddf" stroke="none" stroke-width="1" fill="none" fill-rule="evenodd">
        <mask id="mask-3" fill="white">
            <use xlink:href="#path-2"></use>
        </mask>
        <g id="蒙版">
            <use fill="black" fill-opacity="1" filter="url(#filter-4)" xlink:href="#path-2"></use>
            <use fill="url(#linearGradient-1)" fill-rule="evenodd" xlink:href="#path-2"></use>
        </g>
        <g id="Group" mask="url(#mask-3)">
            <g transform="translate(-75, -27.0969)" id="路径">
                <path d="M101.815642,305.34456 C81.4963322,283.314507 69.8779852,234.856804 87.2435976,192.803706 C117.90162,118.561301 218.987084,77.037865 153.317905,21.8875292 C287.315648,57.1308969 281.34841,256.569204 218.987084,307.753325 C205.657652,318.693684 192.158629,324.815195 179.153224,327.520755 L101.815642,305.34456 Z" fill="url(#linearGradient-5)" transform="translate(170.1563, 174.7041) scale(-1, 1) rotate(138) translate(-170.1563, -174.7041)"></path>
                <path d="M101.815642,305.34456 C81.4963322,283.314507 69.8779852,234.856804 87.2435976,192.803706 C117.90162,118.561301 218.987084,77.037865 153.317905,21.8875292 C287.315648,57.1308969 281.34841,256.569204 218.987084,307.753325 C205.657652,318.693684 192.158629,324.815195 179.153224,327.520755 L101.815642,305.34456 Z" fill="url(#linearGradient-6)" transform="translate(170.1563, 174.7041) scale(-1, 1) rotate(138) translate(-170.1563, -174.7041)"></path>
                <path d="M169.576097,31.1244733 C285.344916,78.4955338 277.183396,262.298155 217.682388,311.13462 C204.352957,322.074979 190.853934,328.19649 177.848529,330.90205 L102.986847,309.435807 C100.133769,289.906625 100.922676,268.916412 106.94083,248.518339 C134.952976,153.573326 253.499797,89.6579188 165.907467,30.5222232 C167.138335,30.7113614 168.361203,30.9121624 169.576097,31.1244733 Z" fill="url(#linearGradient-7)" transform="translate(180.8091, 180.7121) scale(-1, 1) rotate(138) translate(-180.8091, -180.7121)"></path>
                <path d="M219.874174,35.0253318 C290.993538,103.985676 277.811691,245.98474 226.60299,288.015157 C213.273558,298.955515 199.774534,305.077028 186.769129,307.782585 L112.171938,286.392186 C113.092967,268.301441 117.385151,249.624152 126.032259,232.233582 C168.629378,146.564683 292.191142,105.624779 218.744139,34.6377681 C219.121868,34.7658862 219.498545,34.8950756 219.874174,35.0253318 Z" fill="url(#linearGradient-8)" transform="translate(190.6577, 171.2102) scale(-1, 1) rotate(138) translate(-190.6577, -171.2102)"></path>
                <path d="M307.815218,49.7959569 C311.712413,106.428372 294.897543,162.49007 265.832024,186.34609 C252.502592,197.286448 239.003568,203.40796 225.998163,206.113519 L151.864603,184.856063 C156.936403,172.235024 164.114941,160.029256 173.628762,149.252335 C215.230226,102.127659 288.482732,85.4811483 307.815228,49.7959569 L307.815218,49.7959569 Z" fill="url(#linearGradient-9)" transform="translate(230.1185, 127.9547) scale(-1, 1) rotate(138) translate(-230.1185, -127.9547)"></path>
                <path d="M326.583087,58.4923348 C320.216517,70.9598207 312.452636,81.3096162 303.535755,88.6282985 C290.206323,99.5686567 276.707299,105.690169 263.701894,108.395728 L194.12987,88.446271 C196.645239,86.9930722 199.246272,85.6460916 201.930145,84.4194666 C244.801691,64.8256584 299.437266,74.2300098 326.583087,58.4923348 Z" fill="url(#linearGradient-10)" transform="translate(260.3565, 83.444) scale(-1, 1) rotate(138) translate(-260.3565, -83.444)"></path>
            </g>
        </g>
        <g id="折角">
            <use fill="black" fill-opacity="1" filter="url(#filter-13)" xlink:href="#path-12"></use>
            <use fill="url(#linearGradient-11)" fill-rule="evenodd" xlink:href="#path-12"></use>
        </g>
        <path d="M163.414214,13 L163.707107,13.2928932 L220.707107,70.2928932 L221,70.5857864 L221,224 C221,234.49341 212.49341,243 202,243 L54,243 C43.5065898,243 35,234.49341 35,224 L35,32 C35,21.5065898 43.5065898,13 54,13 L163.414214,13 Z M163,14 L54,14 C44.0588745,14 36,22.0588745 36,32 L36,224 C36,233.941125 44.0588745,242 54,242 L202,242 C211.941125,242 220,233.941125 220,224 L220,71 L163,14 Z" id="蒙版" fill-opacity="0.1" fill="#000000" fill-rule="nonzero"></path>
    </g>
</svg>