<svg xmlns="http://www.w3.org/2000/svg" xmlns:xlink="http://www.w3.org/1999/xlink" width="256" height="256" viewBox="0 0 256 256">
  <defs>
    <linearGradient id="package-x-generic-c" x1="50%" x2="50%" y1="0%" y2="100%">
      <stop offset="0%" stop-color="#6F99D9"/>
      <stop offset="100%" stop-color="#2A90C8"/>
    </linearGradient>
    <path id="package-x-generic-b" d="M116,0 L168,52 L168,190 C168,199.941125 159.941125,208 150,208 L18,208 C8.0588745,208 1.21743675e-15,199.941125 0,190 L0,18 C-1.21743675e-15,8.0588745 8.0588745,1.82615513e-15 18,0 L116,0 Z"/>
    <filter id="package-x-generic-a" width="127.4%" height="122.1%" x="-13.7%" y="-9.1%" filterUnits="objectBoundingBox">
      <feOffset dy="4" in="SourceAlpha" result="shadowOffsetOuter1"/>
      <feGaussianBlur in="shadowOffsetOuter1" result="shadowBlurOuter1" stdDeviation="7"/>
      <feColorMatrix in="shadowBlurOuter1" values="0 0 0 0 0.474509804   0 0 0 0 0.619607843   0 0 0 0 0.701960784  0 0 0 0.5 0"/>
    </filter>
    <linearGradient id="package-x-generic-f" x1="50%" x2="7.994%" y1="50%" y2="88.893%">
      <stop offset="0%" stop-color="#FFF" stop-opacity=".1"/>
      <stop offset="100%" stop-color="#FFF" stop-opacity=".3"/>
    </linearGradient>
    <path id="package-x-generic-e" d="M116,0 L168,52 L134,52 C124.058875,52 116,43.9411255 116,34 L116,0 Z"/>
    <filter id="package-x-generic-d" width="126.9%" height="126.9%" x="-13.5%" y="-9.6%" filterUnits="objectBoundingBox">
      <feOffset dy="2" in="SourceAlpha" result="shadowOffsetOuter1"/>
      <feGaussianBlur in="shadowOffsetOuter1" result="shadowBlurOuter1" stdDeviation="2"/>
      <feComposite in="shadowBlurOuter1" in2="SourceAlpha" operator="out" result="shadowBlurOuter1"/>
      <feColorMatrix in="shadowBlurOuter1" values="0 0 0 0 0   0 0 0 0 0   0 0 0 0 0  0 0 0 0.05 0"/>
    </filter>
  </defs>
  <g fill="none" fill-rule="evenodd">
    <g transform="translate(44 28)">
      <use fill="#000" filter="url(#package-x-generic-a)" xlink:href="#package-x-generic-b"/>
      <use fill="url(#package-x-generic-c)" xlink:href="#package-x-generic-b"/>
      <use fill="#000" filter="url(#package-x-generic-d)" xlink:href="#package-x-generic-e"/>
      <use fill="url(#package-x-generic-f)" xlink:href="#package-x-generic-e"/>
    </g>
    <path fill="#FFF" d="M88,128 L74,128 C72.4026092,128 71.4498264,126.219709 72.3358994,124.8906 L88.3358994,100.8906 C88.706831,100.334202 89.3312936,100 90,100 L166,100 C166.668706,100 167.293169,100.334202 167.664101,100.8906 L183.664101,124.8906 C184.550174,126.219709 183.597391,128 182,128 L168,128 L168,177.993401 C168,179.097443 167.10569,180 166.002502,180 L89.9974983,180 C88.8984375,180 88,179.101615 88,177.993401 L88,128 Z M92,128 L92,176 L164,176 L164,128 L92,128 Z M165.033541,104.155862 L91.0264053,104.065943 L77.7083464,124.043032 L178,124 L165.033541,104.155862 Z M152,140 L152,152 L160,152 L146,168 L132,152 L140,152 L140,140 L152,140 Z"/>
  </g>
</svg>
