<?xml version="1.0" encoding="UTF-8"?>
<svg width="256px" height="256px" viewBox="0 0 256 256" version="1.1" xmlns="http://www.w3.org/2000/svg" xmlns:xlink="http://www.w3.org/1999/xlink">
    <title>mimetypes/256/playlist</title>
    <defs>
        <linearGradient x1="50%" y1="0%" x2="50%" y2="100%" id="linearGradient-1">
            <stop stop-color="#00C9FF" offset="0%"></stop>
            <stop stop-color="#008AF9" offset="100%"></stop>
        </linearGradient>
        <path d="M184,210 C184,219.941125 175.941125,228 166,228 L18,228 C8.0588745,228 1.21743675e-15,219.941125 0,210 L0,18 C-1.21743675e-15,8.0588745 8.0588745,1.82615513e-15 18,0 L127,0 L184,57 L184,210 Z" id="path-2"></path>
        <filter x="-12.5%" y="-8.3%" width="125.0%" height="120.2%" filterUnits="objectBoundingBox" id="filter-3">
            <feOffset dx="0" dy="4" in="SourceAlpha" result="shadowOffsetOuter1"></feOffset>
            <feGaussianBlur stdDeviation="7" in="shadowOffsetOuter1" result="shadowBlurOuter1"></feGaussianBlur>
            <feColorMatrix values="0 0 0 0 0.22745098   0 0 0 0 0.513210696   0 0 0 0 0.960784314  0 0 0 0.5 0" type="matrix" in="shadowBlurOuter1"></feColorMatrix>
        </filter>
        <linearGradient x1="50%" y1="50%" x2="7.99354867%" y2="88.8926673%" id="linearGradient-4">
            <stop stop-color="#FFFFFF" stop-opacity="0.1" offset="0%"></stop>
            <stop stop-color="#FFFFFF" stop-opacity="0.3" offset="100%"></stop>
        </linearGradient>
        <path d="M127,0 L184,57 L145,57 C135.058875,57 127,48.9411255 127,39 L127,0 L127,0 Z" id="path-5"></path>
        <filter x="-12.3%" y="-8.8%" width="124.6%" height="124.6%" filterUnits="objectBoundingBox" id="filter-6">
            <feOffset dx="0" dy="2" in="SourceAlpha" result="shadowOffsetOuter1"></feOffset>
            <feGaussianBlur stdDeviation="2" in="shadowOffsetOuter1" result="shadowBlurOuter1"></feGaussianBlur>
            <feComposite in="shadowBlurOuter1" in2="SourceAlpha" operator="out" result="shadowBlurOuter1"></feComposite>
            <feColorMatrix values="0 0 0 0 0   0 0 0 0 0   0 0 0 0 0  0 0 0 0.05 0" type="matrix" in="shadowBlurOuter1"></feColorMatrix>
        </filter>
    </defs>
    <g id="mimetypes/256/playlist" stroke="none" stroke-width="1" fill="none" fill-rule="evenodd">
        <g id="编组-2" transform="translate(36, 14)">
            <g id="蒙版">
                <use fill="black" fill-opacity="1" filter="url(#filter-3)" xlink:href="#path-2"></use>
                <use fill="url(#linearGradient-1)" fill-rule="evenodd" xlink:href="#path-2"></use>
            </g>
            <g id="折角">
                <use fill="black" fill-opacity="1" filter="url(#filter-6)" xlink:href="#path-5"></use>
                <use fill="url(#linearGradient-4)" fill-rule="evenodd" xlink:href="#path-5"></use>
            </g>
        </g>
        <path d="M158.752,104.628672 C160.132148,104.623744 161.445695,105.993538 161.587385,107.749723 L161.6,108.063448 L161.60287,109.159461 L161.627425,109.423919 C161.646506,109.564194 161.676322,109.71644 161.719264,109.880218 L161.82336,110.223016 L161.966709,110.595779 C161.994108,110.66036 162.02332,110.726157 162.054433,110.793153 L162.264634,111.209395 C163.163293,112.85917 165.161399,115.12626 169.336342,117.812096 L169.944062,118.1928 L170.475131,118.505602 L171.032151,118.857376 L171.486648,119.159277 L171.998606,119.514534 L172.560261,119.922674 L173.163851,120.383224 L173.80161,120.895709 L174.465775,121.459657 L175.148582,122.074594 C177.561971,124.315551 180.175243,127.484733 181.49044,131.490802 L181.799424,132.488446 L181.954852,133.084811 L182.088424,133.689937 L182.178925,134.16475 L182.266455,134.694331 L182.34747,135.276671 L182.418428,135.909755 L182.475786,136.591574 L182.516,137.320114 L182.535528,138.093365 C182.566208,141.140615 182.062833,145.129006 180.12732,149.548578 L179.85877,150.142899 L179.794896,150.248114 C179.634241,150.485602 179.2,150.965602 178.453333,150.666114 C177.941333,150.459892 177.886815,149.957374 177.907358,149.645275 L177.930864,149.454509 L177.946667,149.380781 L178.158032,148.796922 L178.344458,148.224469 L178.562206,147.486164 L178.715822,146.911217 L178.869931,146.276654 C178.895359,146.166239 178.920584,146.053574 178.945493,145.938778 L179.090274,145.22536 L179.222123,144.46642 C179.634096,141.867015 179.741016,138.602873 178.647767,135.613652 L178.456593,135.10758 L178.291459,134.6562 L178.063842,134.139103 L177.819888,133.653269 L177.505545,133.093632 L177.253497,132.684075 C177.208516,132.613573 177.16202,132.541989 177.113967,132.469378 L176.806624,132.021847 C176.697722,131.868867 176.582254,131.712234 176.459881,131.552402 L176.071709,131.063766 C175.935188,130.897991 175.791424,130.729471 175.640079,130.55866 L175.162962,130.039806 L174.638329,129.509925 C172.167526,127.104737 168.191789,124.447307 161.879072,122.653783 L161,122.441107 L161.04,162.474114 C160.981333,167.551448 156.762667,172.884781 150.282667,175.407448 C142.373333,178.484781 134.106667,176.207448 131.813333,170.324781 C129.52,164.436781 133.973333,156.852781 142,154.084781 C147.223556,152.28567 151.91125,152.455797 155.533111,154.148045 L156,154.378084 L156,108.084781 C156.005333,106.180781 157.296,104.634114 158.752,104.628672 Z M144,140 L144,144 L88,144 L88,140 L144,140 Z M144,116 L144,120 L88,120 L88,116 L144,116 Z M144,92 L144,96 L88,96 L88,92 L144,92 Z" id="形状" fill="#FFFFFF"></path>
    </g>
</svg>