<?xml version="1.0" encoding="UTF-8"?>
<svg width="256px" height="256px" viewBox="0 0 256 256" version="1.1" xmlns="http://www.w3.org/2000/svg" xmlns:xlink="http://www.w3.org/1999/xlink">
    <title>mimetypes/256/text-x-bak</title>
    <defs>
        <linearGradient x1="50%" y1="0%" x2="50%" y2="98.5008446%" id="linearGradient-1">
            <stop stop-color="#7FCB10" offset="0%"></stop>
            <stop stop-color="#50A100" offset="100%"></stop>
        </linearGradient>
        <path d="M184,210 C184,219.941125 175.941125,228 166,228 L18,228 C8.0588745,228 1.21743675e-15,219.941125 0,210 L0,18 C-1.21743675e-15,8.0588745 8.0588745,1.82615513e-15 18,0 L127,0 L184,57 L184,210 Z" id="path-2"></path>
        <filter x="-12.5%" y="-8.3%" width="125.0%" height="120.2%" filterUnits="objectBoundingBox" id="filter-3">
            <feOffset dx="0" dy="4" in="SourceAlpha" result="shadowOffsetOuter1"></feOffset>
            <feGaussianBlur stdDeviation="7" in="shadowOffsetOuter1" result="shadowBlurOuter1"></feGaussianBlur>
            <feColorMatrix values="0 0 0 0 0.46370117   0 0 0 0 0.679376132   0 0 0 0 0  0 0 0 0.5 0" type="matrix" in="shadowBlurOuter1"></feColorMatrix>
        </filter>
        <linearGradient x1="50%" y1="50%" x2="7.99354867%" y2="88.8926673%" id="linearGradient-4">
            <stop stop-color="#FFFFFF" stop-opacity="0.1" offset="0%"></stop>
            <stop stop-color="#FFFFFF" stop-opacity="0.3" offset="100%"></stop>
        </linearGradient>
        <path d="M127,0 L184,57 L145,57 C135.058875,57 127,48.9411255 127,39 L127,0 L127,0 Z" id="path-5"></path>
        <filter x="-12.3%" y="-8.8%" width="124.6%" height="124.6%" filterUnits="objectBoundingBox" id="filter-6">
            <feOffset dx="0" dy="2" in="SourceAlpha" result="shadowOffsetOuter1"></feOffset>
            <feGaussianBlur stdDeviation="2" in="shadowOffsetOuter1" result="shadowBlurOuter1"></feGaussianBlur>
            <feComposite in="shadowBlurOuter1" in2="SourceAlpha" operator="out" result="shadowBlurOuter1"></feComposite>
            <feColorMatrix values="0 0 0 0 0   0 0 0 0 0   0 0 0 0 0  0 0 0 0.05 0" type="matrix" in="shadowBlurOuter1"></feColorMatrix>
        </filter>
    </defs>
    <g id="mimetypes/256/text-x-bak" stroke="none" stroke-width="1" fill="none" fill-rule="evenodd">
        <g id="编组-2" transform="translate(36, 14)">
            <g id="蒙版">
                <use fill="black" fill-opacity="1" filter="url(#filter-3)" xlink:href="#path-2"></use>
                <use fill="url(#linearGradient-1)" fill-rule="evenodd" xlink:href="#path-2"></use>
            </g>
            <g id="折角">
                <use fill="black" fill-opacity="1" filter="url(#filter-6)" xlink:href="#path-5"></use>
                <use fill="url(#linearGradient-4)" fill-rule="evenodd" xlink:href="#path-5"></use>
            </g>
        </g>
        <path d="M115.15353,92.0531155 C118.043992,93.8914036 121.875183,98.0133799 125.033007,102.729325 C128.560167,107.996857 131.36732,114.058141 133.478367,119.354467 L125.989086,124.053115 L149.891047,124 L161.045296,102.623094 L155.096363,106.606754 L151.325165,99.4361658 C148.796775,95.3896916 146.478765,92.4554826 141.711265,92 L115.15353,92.0531155 Z M103.574358,93.8590414 L91.9951854,111.015338 L112.391526,124.666014 L123.333312,104.004096 C120.309385,99.542825 115.859294,92.9988802 108.832789,92.8498475 C107.211289,92.8154627 105.48312,93.1025038 103.574358,93.8590414 Z M144.313923,135.235992 L153.821592,155.946885 L162.001374,156 C166.77836,156.054915 174.46584,148.913601 174.164817,143.840698 L164.86961,122.01024 L144.313923,135.235992 Z M74.5201958,128.384097 L81.6376688,132.261526 L79.2474726,137.307496 C71.533694,153.798931 81.290897,161.84081 92.8450329,177.887714 C91.193961,173.90399 91.293128,169.640616 92.7388019,165.51181 L102.990088,143.575121 L109.417059,146.921396 L96.7224622,127.162441 L74.5201958,128.384097 Z M129.388476,171.673204 L141,192.282007 L141.053115,184 L145.748041,184 C163.058355,183.992181 165.449935,170.92617 173.793009,152.764097 C171.17889,156.113457 167.552759,158.535574 163.435492,159 L141.053115,159.053115 L141,150.798825 L129.388476,171.673204 Z M99.2188892,158.394337 L95.5008064,166.09608 C93.324114,170.621641 95.8272923,181.117274 100.228083,183.09303 L122.908389,183.09303 L123.067735,157.597605 L99.2188892,158.394337 Z" id="path4068" fill="#FFFFFF"></path>
    </g>
</svg>