<?xml version="1.0" encoding="UTF-8"?>
<svg width="256px" height="256px" viewBox="0 0 256 256" version="1.1" xmlns="http://www.w3.org/2000/svg" xmlns:xlink="http://www.w3.org/1999/xlink">
    <title>mimetypes/256/text-x-javascript</title>
    <defs>
        <linearGradient x1="50%" y1="0%" x2="50%" y2="99.3718328%" id="linearGradient-1">
            <stop stop-color="#FFBC2A" offset="0%"></stop>
            <stop stop-color="#E77B00" offset="100%"></stop>
        </linearGradient>
        <path d="M184,210 C184,219.941125 175.941125,228 166,228 L18,228 C8.0588745,228 1.21743675e-15,219.941125 0,210 L0,18 C-1.21743675e-15,8.0588745 8.0588745,1.82615513e-15 18,0 L127,0 L184,57 L184,210 Z" id="path-2"></path>
        <filter x="-12.5%" y="-8.3%" width="125.0%" height="120.2%" filterUnits="objectBoundingBox" id="filter-3">
            <feOffset dx="0" dy="4" in="SourceAlpha" result="shadowOffsetOuter1"></feOffset>
            <feGaussianBlur stdDeviation="7" in="shadowOffsetOuter1" result="shadowBlurOuter1"></feGaussianBlur>
            <feColorMatrix values="0 0 0 0 0.874509804   0 0 0 0 0.498039216   0 0 0 0 0.0588235294  0 0 0 0.5 0" type="matrix" in="shadowBlurOuter1"></feColorMatrix>
        </filter>
        <linearGradient x1="50%" y1="50%" x2="7.99354867%" y2="88.8926673%" id="linearGradient-4">
            <stop stop-color="#FFFFFF" stop-opacity="0.1" offset="0%"></stop>
            <stop stop-color="#FFFFFF" stop-opacity="0.3" offset="100%"></stop>
        </linearGradient>
        <path d="M127,0 L184,57 L145,57 C135.058875,57 127,48.9411255 127,39 L127,0 L127,0 Z" id="path-5"></path>
        <filter x="-12.3%" y="-8.8%" width="124.6%" height="124.6%" filterUnits="objectBoundingBox" id="filter-6">
            <feOffset dx="0" dy="2" in="SourceAlpha" result="shadowOffsetOuter1"></feOffset>
            <feGaussianBlur stdDeviation="2" in="shadowOffsetOuter1" result="shadowBlurOuter1"></feGaussianBlur>
            <feComposite in="shadowBlurOuter1" in2="SourceAlpha" operator="out" result="shadowBlurOuter1"></feComposite>
            <feColorMatrix values="0 0 0 0 0   0 0 0 0 0   0 0 0 0 0  0 0 0 0.05 0" type="matrix" in="shadowBlurOuter1"></feColorMatrix>
        </filter>
    </defs>
    <g id="mimetypes/256/text-x-javascript" stroke="none" stroke-width="1" fill="none" fill-rule="evenodd">
        <g id="编组-2" transform="translate(36, 14)">
            <g id="蒙版" opacity="0.9">
                <use fill="black" fill-opacity="1" filter="url(#filter-3)" xlink:href="#path-2"></use>
                <use fill="url(#linearGradient-1)" fill-rule="evenodd" xlink:href="#path-2"></use>
            </g>
            <g id="折角">
                <use fill="black" fill-opacity="1" filter="url(#filter-6)" xlink:href="#path-5"></use>
                <use fill="url(#linearGradient-4)" fill-rule="evenodd" xlink:href="#path-5"></use>
            </g>
        </g>
        <path d="M108,154.616099 C108,160.511537 103.851852,168 96,168 C96,168 96,177.479317 96.1481481,176 C110,176 116,166.374866 116,154.616099 L116,108 L108,108 L108,154.616099 Z M124,144.046875 L132.34375,142.734375 C132.812502,146.078142 134.117177,148.640616 136.257812,150.421875 C138.398448,152.203134 141.390606,153.09375 145.234375,153.09375 C149.109394,153.09375 151.984366,152.304695 153.859375,150.726562 C155.734384,149.14843 156.671875,147.296886 156.671875,145.171875 C156.671875,143.265615 155.843758,141.76563 154.1875,140.671875 C153.031244,139.921871 150.156273,138.968756 145.5625,137.8125 C139.374969,136.249992 135.085949,134.898443 132.695312,133.757812 C130.304676,132.617182 128.492194,131.039073 127.257812,129.023438 C126.023431,127.007802 125.40625,124.781262 125.40625,122.34375 C125.40625,120.124989 125.914057,118.070322 126.929688,116.179688 C127.945318,114.289053 129.328116,112.718756 131.078125,111.46875 C132.390632,110.5 134.179676,109.679691 136.445312,109.007812 C138.710949,108.335934 141.140612,108 143.734375,108 C147.640645,108 151.070298,108.562494 154.023438,109.6875 C156.976577,110.812506 159.156243,112.335928 160.5625,114.257812 C161.968757,116.179697 162.937497,118.749984 163.46875,121.96875 L155.21875,123.09375 C154.843748,120.531237 153.757821,118.531257 151.960938,117.09375 C150.164054,115.656243 147.625016,114.9375 144.34375,114.9375 C140.468731,114.9375 137.703133,115.578119 136.046875,116.859375 C134.390617,118.140631 133.5625,119.640616 133.5625,121.359375 C133.5625,122.45313 133.906247,123.437496 134.59375,124.3125 C135.281253,125.218755 136.359368,125.968747 137.828125,126.5625 C138.671879,126.875002 141.156229,127.593744 145.28125,128.71875 C151.25003,130.312508 155.414051,131.617182 157.773438,132.632812 C160.132824,133.648443 161.984368,135.12499 163.328125,137.0625 C164.671882,139 165.34375,141.406236 165.34375,144.28125 C165.34375,147.093764 164.523446,149.742175 162.882812,152.226562 C161.242179,154.71095 158.875015,156.632806 155.78125,157.992188 C152.687485,159.351569 149.18752,160.03125 145.28125,160.03125 C138.812468,160.03125 133.882829,158.687513 130.492188,156 C127.101546,153.312487 124.937505,149.328151 124,144.046875 L124,144.046875 Z" id="Combined-Shape" fill="#FFFFFF"></path>
    </g>
</svg>