<?xml version="1.0" encoding="UTF-8"?>
<svg width="256px" height="256px" viewBox="0 0 256 256" version="1.1" xmlns="http://www.w3.org/2000/svg" xmlns:xlink="http://www.w3.org/1999/xlink">
    <title>mimetypes/256/text-x-octave</title>
    <defs>
        <linearGradient x1="50%" y1="0%" x2="50%" y2="100%" id="linearGradient-1">
            <stop stop-color="#FFA045" offset="0%"></stop>
            <stop stop-color="#ED6415" offset="100%"></stop>
        </linearGradient>
        <path d="M184,210 C184,219.941125 175.941125,228 166,228 L18,228 C8.0588745,228 1.21743675e-15,219.941125 0,210 L0,18 C-1.21743675e-15,8.0588745 8.0588745,1.82615513e-15 18,0 L127,0 L184,57 L184,210 Z" id="path-2"></path>
        <filter x="-12.5%" y="-8.3%" width="125.0%" height="120.2%" filterUnits="objectBoundingBox" id="filter-3">
            <feOffset dx="0" dy="4" in="SourceAlpha" result="shadowOffsetOuter1"></feOffset>
            <feGaussianBlur stdDeviation="7" in="shadowOffsetOuter1" result="shadowBlurOuter1"></feGaussianBlur>
            <feColorMatrix values="0 0 0 0 0.937254902   0 0 0 0 0.415686275   0 0 0 0 0.101960784  0 0 0 0.5 0" type="matrix" in="shadowBlurOuter1"></feColorMatrix>
        </filter>
        <linearGradient x1="50%" y1="50%" x2="7.99354867%" y2="88.8926673%" id="linearGradient-4">
            <stop stop-color="#FFFFFF" stop-opacity="0.1" offset="0%"></stop>
            <stop stop-color="#FFFFFF" stop-opacity="0.3" offset="100%"></stop>
        </linearGradient>
        <path d="M127,0 L184,57 L145,57 C135.058875,57 127,48.9411255 127,39 L127,0 L127,0 Z" id="path-5"></path>
        <filter x="-12.3%" y="-8.8%" width="124.6%" height="124.6%" filterUnits="objectBoundingBox" id="filter-6">
            <feOffset dx="0" dy="2" in="SourceAlpha" result="shadowOffsetOuter1"></feOffset>
            <feGaussianBlur stdDeviation="2" in="shadowOffsetOuter1" result="shadowBlurOuter1"></feGaussianBlur>
            <feComposite in="shadowBlurOuter1" in2="SourceAlpha" operator="out" result="shadowBlurOuter1"></feComposite>
            <feColorMatrix values="0 0 0 0 0   0 0 0 0 0   0 0 0 0 0  0 0 0 0.05 0" type="matrix" in="shadowBlurOuter1"></feColorMatrix>
        </filter>
    </defs>
    <g id="mimetypes/256/text-x-octave" stroke="none" stroke-width="1" fill="none" fill-rule="evenodd">
        <g id="编组-2" transform="translate(36, 14)">
            <g id="蒙版" fill-rule="nonzero">
                <use fill="black" fill-opacity="1" filter="url(#filter-3)" xlink:href="#path-2"></use>
                <use fill="url(#linearGradient-1)" xlink:href="#path-2"></use>
            </g>
            <g id="折角">
                <use fill="black" fill-opacity="1" filter="url(#filter-6)" xlink:href="#path-5"></use>
                <use fill="url(#linearGradient-4)" fill-rule="evenodd" xlink:href="#path-5"></use>
            </g>
        </g>
        <path d="M132,80 C103.281193,80 80,103.281193 80,132 C80,160.718807 103.281193,184 132,184 C160.718807,184 184,160.718807 184,132 C184,118.208743 178.521444,104.982339 168.769553,95.2304474 C159.017661,85.4785557 145.791257,80 132,80 L132,80 Z M136,88 C158.09139,88 176,105.90861 176,128 C176,150.09139 158.09139,168 136,168 C113.90861,168 96,150.09139 96,128 C96,105.90861 113.90861,88 136,88 Z" id="形状" fill-opacity="0.5" fill="#FFFFFF"></path>
        <path d="M152.796876,84 C150.137676,84 148,86.137676 148,88.796876 L148,103.203124 C148,105.862324 150.137676,108 152.796876,108 L167.203124,108 C169.862324,108 172,105.862324 172,103.203124 L172,88.796876 C172,86.137676 169.862324,84 167.203124,84 L152.796876,84 Z M80,112 C75.568,112 72,115.568 72,120 L72,144 C72,148.432 75.568,152 80,152 L104,152 C108.432,152 112,148.432 112,144 L112,120 C112,115.568 108.432,112 104,112 L80,112 Z M158.398436,144 C154.852836,144 152,146.852836 152,150.398436 L152,169.601564 C152,173.147164 154.852836,176 158.398436,176 L177.601564,176 C181.147164,176 184,173.147164 184,169.601564 L184,150.398436 C184,146.852836 181.147164,144 177.601564,144 L158.398436,144 Z" id="形状" fill="#FFFFFF"></path>
    </g>
</svg>