<?xml version="1.0" encoding="UTF-8"?>
<svg width="256px" height="256px" viewBox="0 0 256 256" version="1.1" xmlns="http://www.w3.org/2000/svg" xmlns:xlink="http://www.w3.org/1999/xlink">
    <title>mimetypes/256/text-richtext</title>
    <defs>
        <linearGradient x1="50%" y1="0%" x2="50%" y2="98.9468961%" id="linearGradient-1">
            <stop stop-color="#F7F7F7" offset="0%"></stop>
            <stop stop-color="#F6F6F6" offset="100%"></stop>
        </linearGradient>
        <path d="M184,210 C184,219.941125 175.941125,228 166,228 L18,228 C8.0588745,228 1.21743675e-15,219.941125 0,210 L0,18 C-1.21743675e-15,8.0588745 8.0588745,1.82615513e-15 18,0 L127,0 L184,57 L184,210 Z" id="path-2"></path>
        <filter x="-12.5%" y="-8.3%" width="125.0%" height="120.2%" filterUnits="objectBoundingBox" id="filter-3">
            <feOffset dx="0" dy="4" in="SourceAlpha" result="shadowOffsetOuter1"></feOffset>
            <feGaussianBlur stdDeviation="7" in="shadowOffsetOuter1" result="shadowBlurOuter1"></feGaussianBlur>
            <feColorMatrix values="0 0 0 0 0   0 0 0 0 0   0 0 0 0 0  0 0 0 0.1 0" type="matrix" in="shadowBlurOuter1"></feColorMatrix>
        </filter>
        <linearGradient x1="50%" y1="50%" x2="7.99354867%" y2="88.8926673%" id="linearGradient-4">
            <stop stop-color="#FFFFFF" stop-opacity="0.1" offset="0%"></stop>
            <stop stop-color="#FFFFFF" stop-opacity="0.3" offset="100%"></stop>
        </linearGradient>
        <path d="M127,0 L184,57 L145,57 C135.058875,57 127,48.9411255 127,39 L127,0 L127,0 Z" id="path-5"></path>
        <filter x="-12.3%" y="-8.8%" width="124.6%" height="124.6%" filterUnits="objectBoundingBox" id="filter-6">
            <feOffset dx="0" dy="2" in="SourceAlpha" result="shadowOffsetOuter1"></feOffset>
            <feGaussianBlur stdDeviation="2" in="shadowOffsetOuter1" result="shadowBlurOuter1"></feGaussianBlur>
            <feComposite in="shadowBlurOuter1" in2="SourceAlpha" operator="out" result="shadowBlurOuter1"></feComposite>
            <feColorMatrix values="0 0 0 0 0   0 0 0 0 0   0 0 0 0 0  0 0 0 0.05 0" type="matrix" in="shadowBlurOuter1"></feColorMatrix>
        </filter>
    </defs>
    <g id="mimetypes/256/text-richtext" stroke="none" stroke-width="1" fill="none" fill-rule="evenodd">
        <g id="编组-2" transform="translate(36, 14)">
            <g id="蒙版">
                <use fill="black" fill-opacity="1" filter="url(#filter-3)" xlink:href="#path-2"></use>
                <use fill="url(#linearGradient-1)" fill-rule="evenodd" xlink:href="#path-2"></use>
            </g>
            <path d="M127.414214,-1 L127.707107,-0.707106781 L184.707107,56.2928932 L185,56.5857864 L185,210 C185,220.49341 176.49341,229 166,229 L18,229 C7.50658975,229 -1,220.49341 -1,210 L-1,18 C-1,7.50658975 7.50658975,-1 18,-1 L127.414214,-1 Z M127,0 L18,0 C8.0588745,0 0,8.0588745 0,18 L0,210 C0,219.941125 8.0588745,228 18,228 L166,228 C175.941125,228 184,219.941125 184,210 L184,57 L127,0 Z" id="蒙版" fill-opacity="0.1" fill="#000000" fill-rule="nonzero"></path>
            <g id="折角">
                <use fill="black" fill-opacity="1" filter="url(#filter-6)" xlink:href="#path-5"></use>
                <use fill="url(#linearGradient-4)" fill-rule="evenodd" xlink:href="#path-5"></use>
            </g>
        </g>
        <path d="M184,120 L184,124 L72,124 L72,120 L184,120 Z M184,144 L184,148 L72,148 L72,144 L184,144 Z M184,168 L184,172 L72,172 L72,168 L184,168 Z M128,192 L128,196 L72,196 L72,192 L128,192 Z M136,192 L136,196 L132,196 L132,192 L136,192 Z M115.996669,80 C120.414557,80 124,83.5862349 124,88 C124,90.3920557 122.95313,92.5374278 121.291136,94.0028795 C122.952039,95.4694324 124,97.61378 124,100 C124,104.421391 120.423418,108 115.996669,108 L104,108 L104,80 Z M90.1545472,80 L100,108 L95.8000031,108 L94.3999939,104 L81.6000061,104 L80.1999969,108 L76,108 L86,80 L90.1545472,80 Z M140.264131,80 C143.827545,80 147.149677,81.4588437 149.462243,83.9518368 L146,86 C144.608714,84.500165 142.404488,84 140.264131,84 C136.178234,84 132,87.7957404 132,91.689447 L132,96.310553 C132,100.201084 136.194502,104 140.264131,104 C142.48592,104 144.613869,103.571192 146,102 L149.666825,103.84173 C147.356688,106.46029 143.948829,108 140.264131,108 C133.483914,108 128,102.777205 128,96.310553 L128,91.689447 C128,85.2237254 133.463299,80 140.264131,80 Z M115.996669,96 L108,96 L108,104 L115.996669,104 C118.213772,104 120,102.212759 120,100 C120,97.7951761 118.205221,96 115.996669,96 Z M88,85.1999969 L82.8000031,100 L93.1999969,100 L88,85.1999969 Z M115.996669,84 L108,84 L108,92 L115.996669,92 C118.213772,92 120,90.2127593 120,88 C120,85.7951761 118.205221,84 115.996669,84 Z" id="形状结合" fill="#7B83D6"></path>
    </g>
</svg>