<?xml version="1.0" encoding="UTF-8"?>
<svg width="256px" height="256px" viewBox="0 0 256 256" version="1.1" xmlns="http://www.w3.org/2000/svg" xmlns:xlink="http://www.w3.org/1999/xlink">
    <title>mimetypes/256/uos-application-bundle</title>
    <defs>
        <linearGradient x1="50%" y1="0%" x2="50%" y2="100%" id="linearGradient-1">
            <stop stop-color="#4987F6" offset="0%"></stop>
            <stop stop-color="#0651E6" offset="100%"></stop>
        </linearGradient>
        <path d="M184,210 C184,219.941125 175.941125,228 166,228 L18,228 C8.0588745,228 1.21743675e-15,219.941125 0,210 L0,18 C-1.21743675e-15,8.0588745 8.0588745,1.82615513e-15 18,0 L127,0 L184,57 L184,210 Z" id="path-2"></path>
        <filter x="-12.5%" y="-8.3%" width="125.0%" height="120.2%" filterUnits="objectBoundingBox" id="filter-3">
            <feOffset dx="0" dy="4" in="SourceAlpha" result="shadowOffsetOuter1"></feOffset>
            <feGaussianBlur stdDeviation="7" in="shadowOffsetOuter1" result="shadowBlurOuter1"></feGaussianBlur>
            <feColorMatrix values="0 0 0 0 0.22745098   0 0 0 0 0.494117647   0 0 0 0 0.960784314  0 0 0 0.5 0" type="matrix" in="shadowBlurOuter1"></feColorMatrix>
        </filter>
        <linearGradient x1="50%" y1="50%" x2="7.99354867%" y2="88.8926673%" id="linearGradient-4">
            <stop stop-color="#FFFFFF" stop-opacity="0.1" offset="0%"></stop>
            <stop stop-color="#FFFFFF" stop-opacity="0.3" offset="100%"></stop>
        </linearGradient>
        <path d="M127,0 L184,57 L145,57 C135.058875,57 127,48.9411255 127,39 L127,0 L127,0 Z" id="path-5"></path>
        <filter x="-12.3%" y="-8.8%" width="124.6%" height="124.6%" filterUnits="objectBoundingBox" id="filter-6">
            <feOffset dx="0" dy="2" in="SourceAlpha" result="shadowOffsetOuter1"></feOffset>
            <feGaussianBlur stdDeviation="2" in="shadowOffsetOuter1" result="shadowBlurOuter1"></feGaussianBlur>
            <feComposite in="shadowBlurOuter1" in2="SourceAlpha" operator="out" result="shadowBlurOuter1"></feComposite>
            <feColorMatrix values="0 0 0 0 0   0 0 0 0 0   0 0 0 0 0  0 0 0 0.05 0" type="matrix" in="shadowBlurOuter1"></feColorMatrix>
        </filter>
    </defs>
    <g id="mimetypes/256/uos-application-bundle" stroke="none" stroke-width="1" fill="none" fill-rule="evenodd">
        <g id="编组-2" transform="translate(36, 14)">
            <g id="蒙版">
                <use fill="black" fill-opacity="1" filter="url(#filter-3)" xlink:href="#path-2"></use>
                <use fill="url(#linearGradient-1)" fill-rule="evenodd" xlink:href="#path-2"></use>
            </g>
            <g id="折角">
                <use fill="black" fill-opacity="1" filter="url(#filter-6)" xlink:href="#path-5"></use>
                <use fill="url(#linearGradient-4)" fill-rule="evenodd" xlink:href="#path-5"></use>
            </g>
        </g>
        <g id="编组-2" transform="translate(84, 87)">
            <polygon id="路径-10" fill="#B2CBFA" points="88 27.733977 66 37.5961538 66 64.1346154 44 74.411672 44 101.5 88 81.8269231"></polygon>
            <polygon id="路径-11" fill="#FFFFFF" points="66 64.1346154 44 54.1826923 44 27.733977 66 37.5961538"></polygon>
            <polygon id="路径-12" fill="#7AA7F7" points="88 27.733977 66 16.5865385 44 27.733977 66 37.5961538"></polygon>
            <polygon id="路径-13" fill="#FFFFFF" points="44 101.5 22 90.6730769 22 64.1346154 44 74.411672"></polygon>
            <polygon id="路径-14" fill="#467FEF" points="22 64.1346154 44 54.1826923 66 64.1346154 44 74.411672"></polygon>
            <polygon id="矩形" fill="#FFFFFF" points="3.14278518e-13 21.0096154 22 30.9615385 22 85.1442308 0 74.0865385"></polygon>
            <polygon id="路径-8" fill="#7AA6F7" points="22 30.9615385 66 9.95192308 43.7307692 0 4.71417777e-13 21.0096154"></polygon>
            <polygon id="路径-9" fill="#B2CBFA" points="22 30.9615385 22 85.1442308 44 74.411672 44 47.5480769 66 37.5961538 66 9.95192308"></polygon>
        </g>
    </g>
</svg>