<?xml version="1.0" encoding="UTF-8"?>
<svg width="24px" height="24px" viewBox="0 0 24 24" version="1.1" xmlns="http://www.w3.org/2000/svg" xmlns:xlink="http://www.w3.org/1999/xlink">
    <!-- Generator: Sketch 51.3 (57544) - http://www.bohemiancoding.com/sketch -->
    <title>audio-volume-medium</title>
    <desc>Created with Sketch.</desc>
    <defs></defs>
    <g id="audio-volume-medium" stroke="none" stroke-width="1" fill="none" fill-rule="evenodd">
        <path d="M10,7.37600567 L7.31578703,10 L5,10 L5,14 L7.31787929,14 L10,16.6232011 L10,7.37600567 Z M11,5 L11,19 L6.9101562,15 L4,15 L4,9 L6.9082031,9 L11,5 Z" id="Path" fill="#BBBBBB" fill-rule="nonzero"></path>
        <path d="M13,17.9681334 C15.5776301,16.9844494 17.3855128,14.6876187 17.3855128,12.0111077 C17.3855128,9.33459669 15.5776301,7.03776598 13,6.05408192 L13,5 C16.15,5.78 18.5,8.6 18.5,12 C18.5,15.4 16.15,18.22 13,19 L13,17.9681334 Z" id="Combined-Shape" fill="#DDDDDD" fill-rule="nonzero"></path>
        <path d="M13,14.0125136 C13.4812249,13.4799054 13.7743006,12.7739495 13.7743006,12 C13.7743006,11.1667764 13.4916947,10.4822768 13,10.0076411 L13,9 C14.07,9.58 14.789062,10.7 14.789062,12 C14.789062,13.3 14.06,14.42 13,15 L13,14.0125136 Z" id="Combined-Shape" fill="#BBBBBB" fill-rule="nonzero"></path>
    </g>
</svg>