<?xml version="1.0" encoding="UTF-8"?>
<svg width="24px" height="24px" viewBox="0 0 24 24" version="1.1" xmlns="http://www.w3.org/2000/svg" xmlns:xlink="http://www.w3.org/1999/xlink">
    <!-- Generator: Sketch 51.3 (57544) - http://www.bohemiancoding.com/sketch -->
    <title>configure-shortcuts</title>
    <desc>Created with Sketch.</desc>
    <defs></defs>
    <g id="configure-shortcuts" stroke="none" stroke-width="1" fill="none" fill-rule="evenodd">
        <g id="195" transform="translate(4.000000, 6.000000)" fill="#DDDDDD" fill-rule="nonzero">
            <path d="M2,1 C1.89138725,1 1.65840834,1.03882982 1.4472136,1.14442719 C1.14979226,1.29313786 1,1.51782625 1,2 L1,10 C1,10.4821737 1.14979226,10.7068621 1.4472136,10.8555728 C1.65840834,10.9611702 1.89138725,11 2,11 L13,11 C13.1086127,11 13.3415917,10.9611702 13.5527864,10.8555728 C13.8502077,10.7068621 14,10.4821737 14,10 L14,2 C14,1.51782625 13.8502077,1.29313786 13.5527864,1.14442719 C13.3415917,1.03882982 13.1086127,1 13,1 L2,1 Z M2,0 L13,0 C13,0 15,0 15,2 L15,10 C15,12 13,12 13,12 L2,12 C2,12 0,12 0,10 L0,2 C0,0 2,0 2,0 Z" id="Path"></path>
            <path d="M2.25,2 L3.75,2 C3.8885,2 4,2.1115 4,2.25 L4,3.75 C4,3.8885 3.8885,4 3.75,4 L2.25,4 C2.1115,4 2,3.8885 2,3.75 L2,2.25 C2,2.1115 2.1115,2 2.25,2 Z" id="Path"></path>
            <path d="M5.25,2 L6.75,2 C6.8885,2 7,2.1115 7,2.25 L7,3.75 C7,3.8885 6.8885,4 6.75,4 L5.25,4 C5.1115,4 5,3.8885 5,3.75 L5,2.25 C5,2.1115 5.1115,2 5.25,2 Z" id="Path"></path>
            <path d="M8.25,2 L9.75,2 C9.8885,2 10,2.1115 10,2.25 L10,3.75 C10,3.8885 9.8885,4 9.75,4 L8.25,4 C8.1115,4 8,3.8885 8,3.75 L8,2.25 C8,2.1115 8.1115,2 8.25,2 Z" id="Path"></path>
            <path d="M11.25,2 L12.75,2 C12.8885,2 13,2.1115 13,2.25 L13,3.75 C13,3.8885 12.8885,4 12.75,4 L11.25,4 C11.1115,4 11,3.8885 11,3.75 L11,2.25 C11,2.1115 11.1115,2 11.25,2 Z" id="Path"></path>
            <path d="M2.25,5 L3.75,5 C3.8885,5 4,5.1115 4,5.25 L4,6.75 C4,6.8885 3.8885,7 3.75,7 L2.25,7 C2.1115,7 2,6.8885 2,6.75 L2,5.25 C2,5.1115 2.1115,5 2.25,5 Z" id="Path"></path>
            <path d="M5.25,5 L6.75,5 C6.8885,5 7,5.1115 7,5.25 L7,6.75 C7,6.8885 6.8885,7 6.75,7 L5.25,7 C5.1115,7 5,6.8885 5,6.75 L5,5.25 C5,5.1115 5.1115,5 5.25,5 Z" id="Path"></path>
            <path d="M8.25,5 L9.75,5 C9.8885,5 10,5.1115 10,5.25 L10,6.75 C10,6.8885 9.8885,7 9.75,7 L8.25,7 C8.1115,7 8,6.8885 8,6.75 L8,5.25 C8,5.1115 8.1115,5 8.25,5 Z" id="Path"></path>
            <path d="M11.25,5 L12.75,5 C12.8885,5 13,5.1115 13,5.25 L13,6.75 C13,6.8885 12.8885,7 12.75,7 L11.25,7 C11.1115,7 11,6.8885 11,6.75 L11,5.25 C11,5.1115 11.1115,5 11.25,5 Z" id="Path"></path>
            <path d="M4.25,9 L10.75,9 C10.8885,9 11,9.05575 11,9.125 L11,9.875 C11,9.94425 10.8885,10 10.75,10 L4.25,10 C4.1115,10 4,9.94425 4,9.875 L4,9.125 C4,9.05575 4.1115,9 4.25,9 Z" id="Path"></path>
        </g>
    </g>
</svg>