<?xml version="1.0" encoding="UTF-8"?>
<svg width="24px" height="24px" viewBox="0 0 24 24" version="1.1" xmlns="http://www.w3.org/2000/svg" xmlns:xlink="http://www.w3.org/1999/xlink">
    <!-- Generator: Sketch 51.3 (57544) - http://www.bohemiancoding.com/sketch -->
    <title>debug-step-instruction</title>
    <desc>Created with Sketch.</desc>
    <defs></defs>
    <g id="debug-step-instruction" stroke="none" stroke-width="1" fill="none" fill-rule="evenodd">
        <g id="204" transform="translate(4.000000, 5.000000)" fill="#DDDDDD" fill-rule="nonzero">
            <polygon id="Path" points="5.0078125 0 7.50390625 3 10 0"></polygon>
            <path d="M2.00637617,0 L4.00637617,0 L4.00637617,4 L1.00637617,4 L1.00637617,13 L14.0005166,13 L14.0005166,4 L11.0024696,4 L11.0024696,0 L13.0005166,0 C13.0005166,0 15.0005166,0 15.0005166,2 L15.0005166,14 L0.00832937117,14 L0.00832937117,2 C0.00832937117,2 -0.242323799,0 2.00637617,0 Z M1.99661057,1 C1.44432582,1 0.996610571,1.44771525 0.996610571,2 L0.996610571,3 L2.99661057,3 L2.99661057,1 L1.99661057,1 Z M12.9966106,1 L11.9966106,1 L11.9966106,3 L13.9966106,3 L13.9966106,2 C13.9966106,1.44771525 13.5488953,1 12.9966106,1 Z" id="Combined-Shape"></path>
            <polygon id="Path" points="7 5 7 6 8 6 8 5"></polygon>
            <polygon id="Path" points="7 7 7 11 8 11 8 7"></polygon>
            <path d="M9.5820313,5 L9.5703125,5.0058594 L9.5703125,5.5976563 C10.2805925,5.5976563 10.2890625,5.836785 10.2890625,6.703125 C10.2960625,6.783525 10.2910535,6.9017494 10.3144535,7.0058594 C10.3676535,7.3814894 10.5386485,7.8072056 11.0117185,8.0097656 C10.4130285,8.2661156 10.2890625,8.8853313 10.2890625,9.3007814 C10.2753625,9.4914414 10.2718815,9.8898894 10.2382815,10.0058594 C10.1747815,10.2957494 10.0198225,10.4140624 9.5703125,10.4140624 L9.5703125,11.0058594 C10.5275625,11.0058594 10.9812535,10.7174994 11.0644535,10.0058594 C11.0684535,9.8977194 11.0870315,9.7032264 11.0820315,9.5292974 C11.0820315,8.9723869 11.1028365,8.328125 11.6914065,8.328125 L11.9960935,8.328125 L11.9960935,7.6835938 L11.6914065,7.6835938 C11.2886765,7.6835938 11.1594615,7.3747794 11.1132815,7.0058594 C11.1062815,6.8471994 11.0820315,6.2597656 11.0820315,6.2597656 C11.0920315,5.3497657 10.6420315,5 9.5820313,5 Z" id="Path"></path>
            <path d="M5.4277344,5.0058594 C4.3622344,5.0058594 3.9140625,5.3581156 3.9140625,6.2597656 C3.9140625,6.2597656 3.8895125,6.8471994 3.8828125,7.0058594 C3.8366125,7.3747794 3.7074175,7.6835938 3.3046875,7.6835938 L3,7.6835938 L3,8.328125 L3.3046875,8.328125 C3.8932375,8.328125 3.9140625,8.9723569 3.9140625,9.5292974 C3.9090625,9.7032274 3.9276406,9.8977194 3.9316406,10.0058594 C4.0149406,10.7174994 4.4704844,11.0058594 5.4277344,11.0058594 L5.4277344,10.4140624 C4.9782244,10.4140624 4.8213425,10.2957494 4.7578125,10.0058594 C4.7241125,9.8898894 4.7206312,9.4914414 4.7070313,9.3007814 C4.7070313,8.8853213 4.583065,8.2660657 3.984375,8.0097656 C4.457445,7.8071956 4.6284506,7.3814794 4.6816406,7.0058594 C4.7055406,6.9017494 4.7002313,6.783555 4.7070313,6.703125 C4.7070313,5.836815 4.7174244,5.5976563 5.4277344,5.5976563 L5.4277344,5.0058594 Z" id="Path"></path>
        </g>
    </g>
</svg>