<?xml version="1.0" encoding="UTF-8"?>
<svg width="24px" height="24px" viewBox="0 0 24 24" version="1.1" xmlns="http://www.w3.org/2000/svg" xmlns:xlink="http://www.w3.org/1999/xlink">
    <!-- Generator: Sketch 51.3 (57544) - http://www.bohemiancoding.com/sketch -->
    <title>draw-path</title>
    <desc>Created with Sketch.</desc>
    <defs></defs>
    <g id="draw-path" stroke="none" stroke-width="1" fill="none" fill-rule="evenodd">
        <g id="165" transform="translate(4.000000, 5.000000)" fill="#DDDDDD" fill-rule="nonzero">
            <path d="M11.4046732,1.88502749 L13.114806,3.59532464 L13.9273513,2.78684676 L12.213276,1.07250764 L11.4046732,1.88502749 Z M12.213,0 C12.425,6.66133815e-16 12.638,0.083 12.803,0.248 L14.752,2.1973 C15.082,2.5273 15.082,3.047 14.752,3.377 L13.113,5.0078 L9.9922,1.8867 L11.623,0.248 C11.788,0.083 12,0 12.213,0 Z M3.69919468,13.0080002 L10.5780071,6.12708536 L8.87299151,4.42196041 L1.99219867,11.3012777 L1.9921932,13.0080002 L3.69919468,13.0080002 Z M5.12119,13 L6.53518753,13 L15.00009,13 L15.00009,14 L4.11329,14.008 L0.99219,14.008 L0.9922,10.887 L8.87309,3.0078 L11.99209,6.127 L5.12119,13 Z" id="Shape"></path>
        </g>
    </g>
</svg>