<?xml version="1.0" encoding="UTF-8"?>
<svg width="24px" height="24px" viewBox="0 0 24 24" version="1.1" xmlns="http://www.w3.org/2000/svg" xmlns:xlink="http://www.w3.org/1999/xlink">
    <!-- Generator: Sketch 51.3 (57544) - http://www.bohemiancoding.com/sketch -->
    <title>layer-bottom</title>
    <desc>Created with Sketch.</desc>
    <defs></defs>
    <g id="layer-bottom" stroke="none" stroke-width="1" fill="none" fill-rule="evenodd">
        <g id="230" transform="translate(5.000000, 5.000000)" fill="#DDDDDD">
            <path d="M9.5,1 L8,3 L9.5,3 L11,1 L9.5,1 Z M9,0 L13,0 L10,4 L6,4 L9,0 Z" id="Path"></path>
            <polygon id="Path" points="2 2 2 10.7552465 0.6562 9.05662722 0 10 2.5 13 5 10 4.3438 9.05662722 3 10.7552465 3 2"></polygon>
            <path d="M9.5,6 L8,8 L9.5,8 L11,6 L9.5,6 Z M9,5 L13,5 L10,9 L6,9 L9,5 Z" id="Path"></path>
            <path d="M11,11 L7.5,11 L6,13 L9.5,13 L11,11 Z M7,10 L13,10 L10,14 L4,14 L7,10 Z" id="Path"></path>
        </g>
    </g>
</svg>