<?xml version="1.0" encoding="UTF-8"?>
<svg width="24px" height="24px" viewBox="0 0 24 24" version="1.1" xmlns="http://www.w3.org/2000/svg" xmlns:xlink="http://www.w3.org/1999/xlink">
    <!-- Generator: Sketch 51.3 (57544) - http://www.bohemiancoding.com/sketch -->
    <title>object-locked</title>
    <desc>Created with Sketch.</desc>
    <defs></defs>
    <g id="object-locked" stroke="none" stroke-width="1" fill="none" fill-rule="evenodd">
        <g id="27" transform="translate(6.000000, 5.000000)" fill="#DDDDDD" fill-rule="nonzero">
            <path d="M6,1 C4.34346732,1 3,2.36671785 3,4.0625 L3,7 L1,7 L1,13 L11,13 L11,7 L9,7 L9,4.0625 C9,2.36727307 7.65619244,1 6,1 Z M6,0 C8.216,0 10,1.8225 10,4.0625 L10,6 L11,6 C11.554,6 12,6.446 12,7 L12,13 C12,13.554 11.554,14 11,14 L1,14 C0.446,14 0,13.554 0,13 L0,7 C0,6.446 0.446,6 1,6 L2,6 L2,4.0625 C2,1.8216 3.784,0 6,0 Z" id="Combined-Shape"></path>
            <rect id="Rectangle" x="2" y="6" width="8" height="1"></rect>
        </g>
    </g>
</svg>