<svg xmlns="http://www.w3.org/2000/svg" xmlns:xlink="http://www.w3.org/1999/xlink" width="256" height="256" viewBox="0 0 256 256">
  <defs>
    <linearGradient id="application-vnd.nokia.qt.qmakeprofile-c" x1="50%" x2="50%" y1="0%" y2="98.501%">
      <stop offset="0%" stop-color="#7FCB10"/>
      <stop offset="100%" stop-color="#50A100"/>
    </linearGradient>
    <path id="application-vnd.nokia.qt.qmakeprofile-b" d="M116,0 L168,52 L168,190 C168,199.941125 159.941125,208 150,208 L18,208 C8.0588745,208 1.21743675e-15,199.941125 0,190 L0,18 C-1.21743675e-15,8.0588745 8.0588745,1.82615513e-15 18,0 L116,0 Z"/>
    <filter id="application-vnd.nokia.qt.qmakeprofile-a" width="127.4%" height="122.1%" x="-13.7%" y="-9.1%" filterUnits="objectBoundingBox">
      <feOffset dy="4" in="SourceAlpha" result="shadowOffsetOuter1"/>
      <feGaussianBlur in="shadowOffsetOuter1" result="shadowBlurOuter1" stdDeviation="7"/>
      <feColorMatrix in="shadowBlurOuter1" values="0 0 0 0 0.46370117   0 0 0 0 0.679376132   0 0 0 0 0  0 0 0 0.5 0"/>
    </filter>
    <linearGradient id="application-vnd.nokia.qt.qmakeprofile-f" x1="50%" x2="7.994%" y1="50%" y2="88.893%">
      <stop offset="0%" stop-color="#FFF" stop-opacity=".1"/>
      <stop offset="100%" stop-color="#FFF" stop-opacity=".3"/>
    </linearGradient>
    <path id="application-vnd.nokia.qt.qmakeprofile-e" d="M116,0 L168,52 L134,52 C124.058875,52 116,43.9411255 116,34 L116,0 Z"/>
    <filter id="application-vnd.nokia.qt.qmakeprofile-d" width="126.9%" height="126.9%" x="-13.5%" y="-9.6%" filterUnits="objectBoundingBox">
      <feOffset dy="2" in="SourceAlpha" result="shadowOffsetOuter1"/>
      <feGaussianBlur in="shadowOffsetOuter1" result="shadowBlurOuter1" stdDeviation="2"/>
      <feComposite in="shadowBlurOuter1" in2="SourceAlpha" operator="out" result="shadowBlurOuter1"/>
      <feColorMatrix in="shadowBlurOuter1" values="0 0 0 0 0   0 0 0 0 0   0 0 0 0 0  0 0 0 0.05 0"/>
    </filter>
  </defs>
  <g fill="none" fill-rule="evenodd">
    <g transform="translate(44 28)">
      <use fill="#000" filter="url(#application-vnd.nokia.qt.qmakeprofile-a)" xlink:href="#application-vnd.nokia.qt.qmakeprofile-b"/>
      <use fill="url(#application-vnd.nokia.qt.qmakeprofile-c)" xlink:href="#application-vnd.nokia.qt.qmakeprofile-b"/>
      <use fill="#000" filter="url(#application-vnd.nokia.qt.qmakeprofile-d)" xlink:href="#application-vnd.nokia.qt.qmakeprofile-e"/>
      <use fill="url(#application-vnd.nokia.qt.qmakeprofile-f)" xlink:href="#application-vnd.nokia.qt.qmakeprofile-e"/>
    </g>
    <path fill="#FFF" d="M134 167.382812C130.662682 168.367192 127.363773 168.859375 124.103175 168.859375 115.663979 168.859375 110.197764 164.484419 107.704365 155.734375 106.208326 155.989585 104.942465 156.117188 103.906746 156.117188 94.8537907 156.117188 87.939508 152.699253 83.1636905 145.863281 78.3878729 139.02731 76 129.101628 76 116.085938 76 103.070247 78.3782831 93.1354509 83.1349206 86.28125 87.8915582 79.4270491 94.8154307 76 103.906746 76 112.998061 76 119.931524 79.4179346 124.707341 86.2539062 129.483159 93.0898779 131.871032 103.033789 131.871032 116.085938 131.871032 135.044366 126.884309 147.367159 116.910714 153.054688 118.330034 158.377631 121.034372 161.039062 125.02381 161.039062 127.248688 161.039062 129.684511 160.765628 132.331349 160.21875L134 167.382812zM103.974318 148C98.7351263 148 94.7629884 145.272188 92.0577849 139.816483 89.3525814 134.360777 88 126.431091 88 116.027188 88 105.732036 89.3611421 97.8204751 92.0834671 92.2922685 94.8057921 86.7640619 98.7693694 84 103.974318 84 114.658159 84 120 94.6756225 120 116.027188 120 137.342502 114.658159 148 103.974318 148zM168 156L160 156C155.697895 156 144 154 144 138L144 103.99978 136 103.99978 136 96 144 96 144 82 156.097519 75.9997802 156.097519 96 168 96 168 103.99978 156.097519 103.99978 156.097519 137.960718C156.097519 140.877399 156.097519 145.99978 161.566269 145.99978 162.988151 145.99978 164.44647 145.853948 165.941269 145.56228L168 156zM132 224L136 224 136 210C136 210 138 216.178339 144.176156 216.178339 147.513068 216.178339 150.317904 214.887662 152.590749 212.306269 154.863594 209.724876 156 206.242163 156 201.858027 156 197.744725 154.969999 194.405891 152.909967 191.841425 150.849935 189.276959 148 188 144 188 138 188 136 193.199997 136 193.199997L136 188 132 188 132 224zM144.083333 212.420527C146.435197 212.420527 148.342585 211.557254 149.805556 209.830683 151.268526 208.104112 152 205.573538 152 202.238886 152 199.090433 151.240748 196.526006 149.722222 194.545527 148.203696 192.565048 146.250012 191.574824 143.861111 191.574824 141.564803 191.574824 139.680563 192.463487 138.208333 194.240839 136.736104 196.018192 136 198.557229 136 201.858027 136 204.177049 136.342589 206.123644 137.027778 207.697871 137.712966 209.272097 138.685179 210.452749 139.944444 211.239863 141.20371 212.026976 142.583326 212.420527 144.083333 212.420527zM174.508851 189.442011L172.934632 193.656855C171.800512 192.996695 170.691799 192.666621 169.608461 192.666621 167.898817 192.666621 166.603908 193.432563 165.723695 194.964472 164.843482 196.496381 164.098695 199.238244 164.098695 201.997373L163.997132 216 160 216 160.101562 187.994746 164.098695 187.994746 163.997132 192.666621 164.098695 192.666621C165.554431 189.552022 167.458709 187.994746 169.811586 187.994746 171.368885 187.994746 172.934625 188.477163 174.508851 189.442011zM188 216C181.372583 216 176 209.731986 176 202 176 194.268014 181.372583 188 188 188 194.627417 188 200 194.268014 200 202 200 209.731986 194.627417 216 188 216zM188 212C192.418278 212 196 207.522847 196 202 196 196.477153 192.418278 192 188 192 183.581722 192 180 196.477153 180 202 180 207.522847 183.581722 212 188 212z"/>
  </g>
</svg>
