<svg xmlns="http://www.w3.org/2000/svg" xmlns:xlink="http://www.w3.org/1999/xlink" width="256" height="256" viewBox="0 0 256 256">
  <defs>
    <linearGradient id="application-x-cda-c" x1="50%" x2="50%" y1="0%" y2="100%">
      <stop offset="0%" stop-color="#B7EE43"/>
      <stop offset="100%" stop-color="#6AD500"/>
    </linearGradient>
    <path id="application-x-cda-b" d="M116,0 L168,52 L168,190 C168,199.941125 159.941125,208 150,208 L18,208 C8.0588745,208 1.21743675e-15,199.941125 0,190 L0,18 C-1.21743675e-15,8.0588745 8.0588745,1.82615513e-15 18,0 L116,0 Z"/>
    <filter id="application-x-cda-a" width="127.4%" height="122.1%" x="-13.7%" y="-9.1%" filterUnits="objectBoundingBox">
      <feOffset dy="4" in="SourceAlpha" result="shadowOffsetOuter1"/>
      <feGaussianBlur in="shadowOffsetOuter1" result="shadowBlurOuter1" stdDeviation="7"/>
      <feColorMatrix in="shadowBlurOuter1" values="0 0 0 0 0.505882353   0 0 0 0 0.741176471   0 0 0 0 0  0 0 0 0.5 0"/>
    </filter>
    <linearGradient id="application-x-cda-f" x1="50%" x2="7.994%" y1="50%" y2="88.893%">
      <stop offset="0%" stop-color="#FFF" stop-opacity=".1"/>
      <stop offset="100%" stop-color="#FFF" stop-opacity=".3"/>
    </linearGradient>
    <path id="application-x-cda-e" d="M116,0 L168,52 L134,52 C124.058875,52 116,43.9411255 116,34 L116,0 Z"/>
    <filter id="application-x-cda-d" width="126.9%" height="126.9%" x="-13.5%" y="-9.6%" filterUnits="objectBoundingBox">
      <feOffset dy="2" in="SourceAlpha" result="shadowOffsetOuter1"/>
      <feGaussianBlur in="shadowOffsetOuter1" result="shadowBlurOuter1" stdDeviation="2"/>
      <feComposite in="shadowBlurOuter1" in2="SourceAlpha" operator="out" result="shadowBlurOuter1"/>
      <feColorMatrix in="shadowBlurOuter1" values="0 0 0 0 0   0 0 0 0 0   0 0 0 0 0  0 0 0 0.05 0"/>
    </filter>
  </defs>
  <g fill="none" fill-rule="evenodd">
    <g transform="translate(44 28)">
      <use fill="#000" filter="url(#application-x-cda-a)" xlink:href="#application-x-cda-b"/>
      <use fill="url(#application-x-cda-c)" xlink:href="#application-x-cda-b"/>
      <use fill="#000" filter="url(#application-x-cda-d)" xlink:href="#application-x-cda-e"/>
      <use fill="url(#application-x-cda-f)" xlink:href="#application-x-cda-e"/>
    </g>
    <path fill="#FFF" d="M120,184 C93.490332,184 72,162.509668 72,136 C72,109.490332 93.490332,88 120,88 C139.897558,88 156.967391,100.106933 164.244735,117.356034 C164.002726,117.340143 163.757995,117.332498 163.51073,117.3334 C157.218525,117.356449 152.016662,122.051572 152,128 C152,128 151.851448,160 152,160 C149.169999,160.130675 147.168527,160.863713 144.182739,161.892087 C134.263365,165.312787 127.498481,174.254058 128.002291,183.335948 C125.399901,183.772676 122.726498,184 120,184 Z M82.6666667,136 C82.6666667,137.472759 83.860574,138.666667 85.3333333,138.666667 C86.8060927,138.666667 88,137.472759 88,136 C88,118.326888 102.326888,104 120,104 C121.472759,104 122.666667,102.806093 122.666667,101.333333 C122.666667,99.860574 121.472759,98.6666667 120,98.6666667 C99.3813693,98.6666667 82.6666667,115.381369 82.6666667,136 Z M141.333333,136 C141.333333,147.782075 131.782075,157.333333 120,157.333333 C108.217925,157.333333 98.6666667,147.782075 98.6666667,136 C98.6666667,124.217925 108.217925,114.666667 120,114.666667 C131.782075,114.666667 141.333333,124.217925 141.333333,136 Z M120,152 C128.836556,152 136,144.836556 136,136 C136,127.163444 128.836556,120 120,120 C111.163444,120 104,127.163444 104,136 C104,144.836556 111.163444,152 120,152 Z M120,146.666667 C114.108963,146.666667 109.333333,141.891037 109.333333,136 C109.333333,130.108963 114.108963,125.333333 120,125.333333 C125.891037,125.333333 130.666667,130.108963 130.666667,136 C130.666667,141.891037 125.891037,146.666667 120,146.666667 Z M164.521258,128.410681 C164.521258,129.840014 165.790592,133.157347 172.814592,137.536014 C172.814592,137.536014 181.987925,142.490681 184.590592,151.440014 C184.590592,151.440014 187.449258,159.424014 182.787925,169.498681 C182.787925,169.498681 182.345258,170.426681 181.374592,170.037347 C180.606592,169.728014 180.867925,168.752014 180.867925,168.752014 C180.867925,168.752014 184.009258,160.901347 181.395925,154.538681 C181.395925,154.538681 178.985258,145.797347 164.089258,141.829347 C164.089258,141.829347 164.014592,176.245347 163.961258,176.512014 C163.902592,181.589347 159.683925,186.922681 153.203925,189.445347 C145.294592,192.522681 137.027925,190.245347 134.734592,184.362681 C132.441258,178.474681 136.894592,170.890681 144.921258,168.122681 C150.035691,166.361154 154.544387,166.369882 158.130115,167.959408 C158.365849,168.063907 158.130115,127.434681 158.130115,127.434681 C158.135448,125.530681 159,124 161.399994,124 C163,124 164.521258,125.530681 164.521258,127.434681 L164.521258,128.410681 Z"/>
  </g>
</svg>
