<svg xmlns="http://www.w3.org/2000/svg" xmlns:xlink="http://www.w3.org/1999/xlink" width="256" height="256" viewBox="0 0 256 256">
  <defs>
    <linearGradient id="encrypted-c" x1="50%" x2="50%" y1="0%" y2="99.324%">
      <stop offset="0%" stop-color="#C5A981"/>
      <stop offset="100%" stop-color="#BA853A"/>
    </linearGradient>
    <path id="encrypted-b" d="M116,0 L168,52 L168,190 C168,199.941125 159.941125,208 150,208 L18,208 C8.0588745,208 1.21743675e-15,199.941125 0,190 L0,18 C-1.21743675e-15,8.0588745 8.0588745,1.82615513e-15 18,0 L116,0 Z"/>
    <filter id="encrypted-a" width="127.4%" height="122.1%" x="-13.7%" y="-9.1%" filterUnits="objectBoundingBox">
      <feOffset dy="4" in="SourceAlpha" result="shadowOffsetOuter1"/>
      <feGaussianBlur in="shadowOffsetOuter1" result="shadowBlurOuter1" stdDeviation="7"/>
      <feColorMatrix in="shadowBlurOuter1" values="0 0 0 0 0.733333333   0 0 0 0 0.537254902   0 0 0 0 0.258823529  0 0 0 0.5 0"/>
    </filter>
    <linearGradient id="encrypted-f" x1="50%" x2="7.994%" y1="50%" y2="88.893%">
      <stop offset="0%" stop-color="#FFF" stop-opacity=".1"/>
      <stop offset="100%" stop-color="#FFF" stop-opacity=".3"/>
    </linearGradient>
    <path id="encrypted-e" d="M116,0 L168,52 L134,52 C124.058875,52 116,43.9411255 116,34 L116,0 Z"/>
    <filter id="encrypted-d" width="126.9%" height="126.9%" x="-13.5%" y="-9.6%" filterUnits="objectBoundingBox">
      <feOffset dy="2" in="SourceAlpha" result="shadowOffsetOuter1"/>
      <feGaussianBlur in="shadowOffsetOuter1" result="shadowBlurOuter1" stdDeviation="2"/>
      <feComposite in="shadowBlurOuter1" in2="SourceAlpha" operator="out" result="shadowBlurOuter1"/>
      <feColorMatrix in="shadowBlurOuter1" values="0 0 0 0 0   0 0 0 0 0   0 0 0 0 0  0 0 0 0.05 0"/>
    </filter>
  </defs>
  <g fill="none" fill-rule="evenodd">
    <g transform="translate(44 28)">
      <use fill="#000" filter="url(#encrypted-a)" xlink:href="#encrypted-b"/>
      <use fill="url(#encrypted-c)" xlink:href="#encrypted-b"/>
      <use fill="#000" filter="url(#encrypted-d)" xlink:href="#encrypted-e"/>
      <use fill="url(#encrypted-f)" xlink:href="#encrypted-e"/>
    </g>
    <path fill="#FFF" d="M108,111.067746 C108,118.711998 112.74206,126.129408 119.540577,129.169777 L108.124763,187.445576 C107.892895,188.570681 108.19878,189.735927 108.95897,190.623422 C109.71916,191.510916 110.854331,192.028054 112.054797,192.033753 L143.994125,192.033753 C145.194591,192.028054 146.329763,191.510916 147.089952,190.623422 C147.850142,189.735927 148.156028,188.570681 147.92416,187.445576 L136.508345,129.169777 C143.306863,126.129408 147.92416,118.711998 147.92416,111.067746 C147.92416,100.536922 138.986831,92 127.96208,92 C116.937329,92 108,100.536922 108,111.067746 Z"/>
  </g>
</svg>
