<svg xmlns="http://www.w3.org/2000/svg" xmlns:xlink="http://www.w3.org/1999/xlink" width="256" height="256" viewBox="0 0 256 256">
  <defs>
    <linearGradient id="image-tiff-c" x1="50%" x2="50%" y1="0%" y2="100%">
      <stop offset="0%" stop-color="#28DCB1"/>
      <stop offset="100%" stop-color="#00AF9D"/>
    </linearGradient>
    <path id="image-tiff-b" d="M116,0 L168,52 L168,190 C168,199.941125 159.941125,208 150,208 L18,208 C8.0588745,208 1.21743675e-15,199.941125 0,190 L0,18 C-1.21743675e-15,8.0588745 8.0588745,1.82615513e-15 18,0 L116,0 Z"/>
    <filter id="image-tiff-a" width="127.4%" height="122.1%" x="-13.7%" y="-9.1%" filterUnits="objectBoundingBox">
      <feOffset dy="4" in="SourceAlpha" result="shadowOffsetOuter1"/>
      <feGaussianBlur in="shadowOffsetOuter1" result="shadowBlurOuter1" stdDeviation="7"/>
      <feColorMatrix in="shadowBlurOuter1" values="0 0 0 0 0.262745098   0 0 0 0 0.71372549   0 0 0 0 0.607843137  0 0 0 0.5 0"/>
    </filter>
    <linearGradient id="image-tiff-f" x1="50%" x2="7.994%" y1="50%" y2="88.893%">
      <stop offset="0%" stop-color="#FFF" stop-opacity=".1"/>
      <stop offset="100%" stop-color="#FFF" stop-opacity=".3"/>
    </linearGradient>
    <path id="image-tiff-e" d="M116,0 L168,52 L134,52 C124.058875,52 116,43.9411255 116,34 L116,0 Z"/>
    <filter id="image-tiff-d" width="126.9%" height="126.9%" x="-13.5%" y="-9.6%" filterUnits="objectBoundingBox">
      <feOffset dy="2" in="SourceAlpha" result="shadowOffsetOuter1"/>
      <feGaussianBlur in="shadowOffsetOuter1" result="shadowBlurOuter1" stdDeviation="2"/>
      <feComposite in="shadowBlurOuter1" in2="SourceAlpha" operator="out" result="shadowBlurOuter1"/>
      <feColorMatrix in="shadowBlurOuter1" values="0 0 0 0 0   0 0 0 0 0   0 0 0 0 0  0 0 0 0.05 0"/>
    </filter>
  </defs>
  <g fill="none" fill-rule="evenodd">
    <g transform="translate(44 28)">
      <use fill="#000" filter="url(#image-tiff-a)" xlink:href="#image-tiff-b"/>
      <use fill="url(#image-tiff-c)" xlink:href="#image-tiff-b"/>
      <use fill="#000" filter="url(#image-tiff-d)" xlink:href="#image-tiff-e"/>
      <use fill="url(#image-tiff-f)" xlink:href="#image-tiff-e"/>
    </g>
    <path fill="#FFF" d="M100,180 L92,180 L92,176 L112,176 L112,180 L104,180 L104,204 L100,204 L100,180 Z M116,176 L120,176 L120,204 L116,204 L116,176 Z M128,204 L124,204 L124,176 L144,176 L144,180 L128,180 L128,188 L140,188 L140,192 L128,192 L128,204 Z M152,204 L148,204 L148,176 L168,176 L168,180 L152,180 L152,188 L164,188 L164,192 L152,192 L152,204 Z M83.8293333,164 L83.8293333,92 L171.829333,92 L171.829333,164 L83.8293333,164 Z M92,156.016 L118,104 L132,134 L140,118 L164,155.972447 L92,156.016 Z M88,160 L168,160 L167.504,96 L87.504,96 L88,160 Z"/>
  </g>
</svg>
