<?xml version="1.0" encoding="UTF-8"?>
<svg width="256px" height="256px" viewBox="0 0 256 256" version="1.1" xmlns="http://www.w3.org/2000/svg" xmlns:xlink="http://www.w3.org/1999/xlink">
    <title>apps/256/certificate-sign-platform</title>
    <defs>
        <filter x="-8.3%" y="-5.9%" width="119.4%" height="118.6%" filterUnits="objectBoundingBox" id="filter-1">
            <feOffset dx="0" dy="4" in="SourceAlpha" result="shadowOffsetOuter1"></feOffset>
            <feGaussianBlur stdDeviation="5" in="shadowOffsetOuter1" result="shadowBlurOuter1"></feGaussianBlur>
            <feColorMatrix values="0 0 0 0 0   0 0 0 0 0   0 0 0 0 0  0 0 0 0.2 0" type="matrix" in="shadowBlurOuter1" result="shadowMatrixOuter1"></feColorMatrix>
            <feMerge>
                <feMergeNode in="shadowMatrixOuter1"></feMergeNode>
                <feMergeNode in="SourceGraphic"></feMergeNode>
            </feMerge>
        </filter>
        <linearGradient x1="50%" y1="0%" x2="50%" y2="100%" id="linearGradient-2">
            <stop stop-color="#81EF5A" offset="4.24787615%"></stop>
            <stop stop-color="#00BF88" offset="100%"></stop>
        </linearGradient>
        <path d="M24,1.36856979e-14 L176,1.36856979e-14 C189.254834,1.12508244e-14 200,10.745166 200,24 L200,181 C200,194.254834 189.254834,205 176,205 L24,205 C10.745166,205 -7.57401057e-15,194.254834 -9.19725957e-15,181 L-9.19725957e-15,24 C-1.08205086e-14,10.745166 10.745166,1.61205714e-14 24,1.36856979e-14 Z" id="path-3"></path>
        <filter x="-1.8%" y="-1.7%" width="103.5%" height="103.4%" filterUnits="objectBoundingBox" id="filter-4">
            <feOffset dx="0" dy="-7" in="SourceAlpha" result="shadowOffsetInner1"></feOffset>
            <feComposite in="shadowOffsetInner1" in2="SourceAlpha" operator="arithmetic" k2="-1" k3="1" result="shadowInnerInner1"></feComposite>
            <feColorMatrix values="0 0 0 0 0   0 0 0 0 0   0 0 0 0 0  0 0 0 0.160868185 0" type="matrix" in="shadowInnerInner1"></feColorMatrix>
        </filter>
        <linearGradient x1="50%" y1="0%" x2="50%" y2="100%" id="linearGradient-5">
            <stop stop-color="#FFFFFF" offset="0%"></stop>
            <stop stop-color="#D1EAE4" offset="100%"></stop>
            <stop stop-color="#EDF2DE" offset="100%"></stop>
        </linearGradient>
        <circle id="path-6" cx="47" cy="47" r="47"></circle>
        <filter x="-14.4%" y="-14.4%" width="126.6%" height="126.6%" filterUnits="objectBoundingBox" id="filter-7">
            <feOffset dx="-1" dy="-1" in="SourceAlpha" result="shadowOffsetOuter1"></feOffset>
            <feGaussianBlur stdDeviation="4" in="shadowOffsetOuter1" result="shadowBlurOuter1"></feGaussianBlur>
            <feColorMatrix values="0 0 0 0 0   0 0 0 0 0   0 0 0 0 0  0 0 0 0.1 0" type="matrix" in="shadowBlurOuter1"></feColorMatrix>
        </filter>
        <linearGradient x1="50%" y1="-36.2184661%" x2="50%" y2="100%" id="linearGradient-8">
            <stop stop-color="#81EF5A" offset="0%"></stop>
            <stop stop-color="#01A171" offset="100%"></stop>
        </linearGradient>
        <filter x="-15.0%" y="-6.7%" width="129.0%" height="117.5%" filterUnits="objectBoundingBox" id="filter-9">
            <feOffset dx="0" dy="4" in="SourceAlpha" result="shadowOffsetOuter1"></feOffset>
            <feGaussianBlur stdDeviation="5" in="shadowOffsetOuter1" result="shadowBlurOuter1"></feGaussianBlur>
            <feColorMatrix values="0 0 0 0 0.0200617454   0 0 0 0 0.261693098   0 0 0 0 0.202345466  0 0 0 0.2 0" type="matrix" in="shadowBlurOuter1" result="shadowMatrixOuter1"></feColorMatrix>
            <feMerge>
                <feMergeNode in="shadowMatrixOuter1"></feMergeNode>
                <feMergeNode in="SourceGraphic"></feMergeNode>
            </feMerge>
        </filter>
        <radialGradient cx="38.2045411%" cy="60.388968%" fx="38.2045411%" fy="60.388968%" r="133.891229%" gradientTransform="translate(0.382, 0.6039), scale(1, 0.5705), rotate(-61.2717), translate(-0.382, -0.6039)" id="radialGradient-10">
            <stop stop-color="#E2FFF0" offset="0%"></stop>
            <stop stop-color="#C2FFDF" offset="100%"></stop>
        </radialGradient>
        <linearGradient x1="48.0462425%" y1="0.918640828%" x2="51.9537575%" y2="99.0813592%" id="linearGradient-11">
            <stop stop-color="#64D47C" offset="0%"></stop>
            <stop stop-color="#D7CD87" offset="100%"></stop>
        </linearGradient>
    </defs>
    <g id="apps/256/certificate-sign-platform" stroke="none" stroke-width="1" fill="none" fill-rule="evenodd">
        <g id="apps/256/编组-3" transform="translate(10.2781, -5.8313)">
            <g id="主体" filter="url(#filter-1)" transform="translate(119.8573, 140.4503) rotate(-8) translate(-119.8573, -140.4503)translate(14.2756, 30.4926)">
                <g id="矩形备份" fill-rule="nonzero" transform="translate(100, 102.5) rotate(-360) translate(-100, -102.5)">
                    <use fill="url(#linearGradient-2)" xlink:href="#path-3"></use>
                    <use fill="black" fill-opacity="1" filter="url(#filter-4)" xlink:href="#path-3"></use>
                </g>
                <g id="编组" transform="translate(117.1633, 125.9154)" fill-rule="nonzero">
                    <g id="椭圆形" transform="translate(47, 47) rotate(-360) translate(-47, -47)">
                        <use fill="black" fill-opacity="1" filter="url(#filter-7)" xlink:href="#path-6"></use>
                        <use fill="url(#linearGradient-5)" xlink:href="#path-6"></use>
                    </g>
                    <path d="M23.9983172,55.8193942 C27.821708,60.8596971 34.535549,65.2063525 40.8768195,66.7814472 L34.1629785,78.5 C34.1629785,78.5 31.6231578,75.6043723 28.8285677,72.7178032 L28.4180498,72.2957803 C28.2121468,72.0851384 28.0054765,71.8753035 27.7989341,71.6674137 L27.3862852,71.2545646 C23.8741271,70.277703 20.3309213,69.364451 16.7559108,68.5140513 L23.9983172,55.8193942 Z M69.410265,55.8201515 L77.2440892,68.5148086 C77.2130416,68.5458561 71.8970972,69.3015987 67.203618,70.6245267 C66.6221782,71.2026257 66.015576,71.8219466 65.4107994,72.4499376 L64.8076308,73.0796129 C62.538845,75.460195 60.4245001,77.8096553 59.9196514,78.3729525 L59.8475642,78.4534591 C59.8201705,78.4840845 59.8059739,78.5 59.8059739,78.5 L53.154228,66.7822045 C59.4947413,65.2071098 65.5876315,60.8915019 69.410265,55.8201515 Z M46.9689525,15.5 C59.5886411,15.5 70.4371056,26.4938578 70.4371056,39.3142196 C70.4371056,52.1345814 59.5886411,63.1284392 46.9689525,63.1284392 C34.3485065,63.1284392 23.5007993,52.7646193 23.5007993,39.9442575 C23.5007993,27.1238957 34.3492638,15.5 46.9689525,15.5 Z M46.9689525,24.8551536 C45.9428692,24.8551536 45.0106857,25.4851914 44.5752629,26.3673959 L42.1512831,31.5962558 C41.8090029,32.3838031 41.0631048,32.9199411 40.2240639,32.9509886 L34.9399243,33.8013883 C33.5412705,34.0217501 32.5159445,35.376483 32.7332772,36.7940682 C32.8264199,37.3294489 33.106605,37.8648296 33.4481279,38.2745057 L37.5819941,42.7158183 C38.079512,43.251199 38.2968448,43.9440892 38.2037021,44.6687842 L37.2397139,50.7480438 C37.0223812,52.1656289 38.0166597,53.5514093 39.4153134,53.7717711 C40.0059739,53.8346235 40.5655869,53.7717711 41.0941523,53.488557 L45.6944889,51.0002103 C46.440387,50.4958772 47.3733277,50.4958772 48.1192259,50.9055532 L52.8437526,53.4575095 C54.117459,54.1822045 55.7031552,53.6778713 56.4180059,52.386748 C56.6974337,51.9142196 56.7905764,51.3159865 56.6974337,50.748801 L55.7652503,44.8899032 L55.7652503,44.7952461 C55.5782078,43.975894 55.8583929,43.1572991 56.4180059,42.5901136 L60.5208246,38.2745057 C61.5158603,37.2665966 61.4848128,35.5657972 60.489777,34.525326 C60.086159,34.1474548 59.5575936,33.8960454 59.0290282,33.8013883 L53.7448885,32.9820362 C52.8437526,32.9191838 52.0978544,32.3838031 51.7555743,31.564451 L49.362642,26.3673959 C48.8961716,25.4223391 47.9942785,24.8551536 46.9689525,24.8551536 Z" id="形状结合" fill="url(#linearGradient-8)"></path>
                </g>
                <g id="编组-2" transform="translate(33.2273, 96.6715)">
                    <path d="M1.84394325,42.5488088 C3.1463644,47.0842446 8.83364402,46.8105172 18.9057821,41.7276263 C43.2719583,29.7400873 59.1858215,23.7463178 66.6473717,23.7463178 C78.3371121,23.7463178 61.0786491,41.7948363 67.6947673,42.5488088 C74.3108854,43.3027813 87.1445347,26.9201819 94.498069,26.9201819 C101.851603,26.9201819 89.442474,38.9660969 99.7459881,35.8956871 C110.049502,32.8252773 125.61819,6.045402 137.540146,15.9388883" id="路径-12" stroke="#FFFFFF" stroke-width="5" opacity="0.398126511" stroke-linecap="round" stroke-linejoin="round" transform="translate(69.692, 29.7568) rotate(-12) translate(-69.692, -29.7568)"></path>
                    <circle id="椭圆形" fill="#FFFFFF" opacity="0.401146298" cx="79.1382057" cy="14.3407534" r="3.84926754"></circle>
                </g>
            </g>
            <g id="羽毛" filter="url(#filter-9)" transform="translate(84.4994, 104.2578) rotate(-8) translate(-84.4994, -104.2578)translate(25.9327, 7.2064)" fill-rule="nonzero">
                <path d="M76.0729808,92.4382701 C78.5169617,91.3478796 80.859179,90.272065 83.0996324,89.2108263 C85.0490965,88.2970286 87.0494424,87.3759429 89.1006701,86.4475693 C91.1518979,85.5191957 92.8541034,84.6936944 94.2072867,83.9710655 L93.2072535,92.5223569 C92.911314,94.8915021 92.5875957,96.682937 92.2360984,97.8966615 C91.6046136,100.842676 90.7664383,103.606773 89.7215724,106.188951 C88.6767065,108.771129 87.6652576,111.031235 86.6872255,112.96927 C85.5485718,115.247597 84.3375832,117.377641 83.0542599,119.359404 L65.0725996,127.804745 L80.8759671,128.396746 C80.8764518,128.405784 77.5583859,135.403217 71.855532,141.890651 C66.720817,147.731783 59.2704345,153.361085 56.0877194,155.032954 C49.3701323,158.56168 27.6911195,166.233894 23.4559263,161.649683 C17.0215509,154.685059 12.3865019,135.20076 14.6474417,112.672903 C16.1842226,97.3605198 23.1177322,79.1137722 30.3005779,65.4651918 C33.685265,59.0337332 39.5810691,50.7303275 40.4754572,49.5586531 C54.7653958,30.838418 70.7496272,20.5568788 76.1211538,17.2041625 C81.4926805,13.8514462 99.6797915,5.89261848 102.929154,7.20183561 C103.803754,7.55422506 100.245694,14.8206941 99.6232264,21.3312867 C99.0007585,27.8418792 98.3127536,30.2113418 98.0283669,37.1794654 C97.7439802,44.1475889 97.3212499,51.2412896 96.760176,58.4605675 C96.1991022,65.6798453 95.5995228,72.2436278 94.9614378,78.1519151 L76.0729808,92.4382701 Z" id="路径" fill="url(#radialGradient-10)" transform="translate(58.5667, 85.064) rotate(11) translate(-58.5667, -85.064)"></path>
                <path d="M11.4918114,191.311653 C12.7057788,185.860912 15.3491454,183.145386 20.5747236,180.478086 C20.5747236,180.478086 18.5100523,160.784088 23.2298563,143.788002 C26.380749,134.205728 34.215742,112.281028 39.5201386,100.778077 C48.953643,80.3208688 50.1196824,77.5667023 59.086228,61.0177017 C53.6597836,68.9768023 52.3283132,70.3228734 39.5201386,92.1557639 C24.4573094,117.831952 11.2375286,156.669284 9.86474202,190.798481 L11.4918114,191.311653 Z" id="path1873" fill="url(#linearGradient-11)" transform="translate(34.4755, 126.1647) rotate(8) translate(-34.4755, -126.1647)"></path>
                <path d="M1.98516415,187.554501 C3.24534597,188.248066 3.87543688,188.594849 3.87543688,188.594849 C3.87543688,188.594849 4.71163908,185.592465 5.25254785,184.402403 C6.80526718,180.986238 9.97414203,178.555075 12.6951457,177.234105 L3.20663448,173.173739 C2.74218181,176.253034 2.43282687,178.814254 2.27856968,180.857398 C2.12431248,182.900542 2.02651063,185.13291 1.98516415,187.554501 Z" id="path3810" fill="#329A68" transform="translate(7.3402, 180.8843) rotate(8) translate(-7.3402, -180.8843)"></path>
            </g>
        </g>
        <g id="Guide/256" transform="translate(8.0533, 8)"></g>
    </g>
</svg>