<svg xmlns="http://www.w3.org/2000/svg" xmlns:xlink="http://www.w3.org/1999/xlink" width="256" height="256" viewBox="0 0 256 256">
  <defs>
    <filter id="dde-calendar256-a" width="126.2%" height="127.1%" x="-12.6%" y="-12.6%" filterUnits="objectBoundingBox">
      <feOffset dy="4" in="SourceAlpha" result="shadowOffsetOuter1"/>
      <feGaussianBlur in="shadowOffsetOuter1" result="shadowBlurOuter1" stdDeviation="5"/>
      <feComposite in="shadowBlurOuter1" in2="SourceAlpha" operator="out" result="shadowBlurOuter1"/>
      <feColorMatrix in="shadowBlurOuter1" result="shadowMatrixOuter1" values="0 0 0 0 0   0 0 0 0 0   0 0 0 0 0  0 0 0 0.2 0"/>
      <feMerge>
        <feMergeNode in="shadowMatrixOuter1"/>
        <feMergeNode in="SourceGraphic"/>
      </feMerge>
    </filter>
    <radialGradient id="dde-calendar256-b" cx="54.324%" cy="55.779%" r="61.914%" fx="54.324%" fy="55.779%" gradientTransform="matrix(-.81914 -.50611 .72543 -.9141 .584 1.343)">
      <stop offset="0%"/>
      <stop offset="100%" stop-opacity=".148"/>
    </radialGradient>
    <path id="dde-calendar256-d" d="M100.5,153 L100.5,141.768027 L70.0024067,141.768027 L95.6817088,110.168027 C98.8939029,106.155329 100.5,101.569388 100.5,96.4102041 C100.426996,89.9612245 98.2186121,84.6408163 93.8748496,80.4489796 C89.6040915,76.2213152 84.037505,74.0716553 77.1750903,74 C71.0427196,74.0716553 65.8776574,76.1854875 61.6799037,80.3414966 C57.5186522,84.6049887 55.2920176,89.9970522 55,96.5176871 L55,96.5176871 L66.3886883,96.5176871 C66.7902126,92.9349206 68.0677898,90.1582766 70.22142,88.1877551 C72.3020457,86.2172336 74.9119535,85.2319728 78.0511432,85.2319728 C81.5918572,85.3036281 84.3295227,86.4321995 86.2641396,88.6176871 C88.1257521,90.8031746 89.0565584,93.3648526 89.0565584,96.3027211 C89.0565584,97.4133787 88.9105495,98.5956916 88.6185319,99.8496599 C88.1805054,101.175283 87.3592058,102.60839 86.154633,104.14898 L86.154633,104.14898 L55,142.412925 L55,153 L100.5,153 Z M131.419277,152.5 L158.5,85.2527435 L158.5,74 L113,74 L113,96.6131687 L124.457229,96.6131687 L124.457229,85.2527435 L145.672289,85.2527435 L118.646386,152.5 L131.419277,152.5 Z"/>
    <filter id="dde-calendar256-c" width="133.8%" height="144.3%" x="-16.9%" y="-15.8%" filterUnits="objectBoundingBox">
      <feOffset dy="5" in="SourceAlpha" result="shadowOffsetOuter1"/>
      <feGaussianBlur in="shadowOffsetOuter1" result="shadowBlurOuter1" stdDeviation="5"/>
      <feColorMatrix in="shadowBlurOuter1" values="0 0 0 0 0   0 0 0 0 0.423732517   0 0 0 0 1  0 0 0 0.2 0"/>
    </filter>
    <linearGradient id="dde-calendar256-g" x1="69.176%" x2="56.777%" y1="71.097%" y2="57.701%">
      <stop offset="0%" stop-color="#C6C6C6"/>
      <stop offset="53.052%" stop-color="#E7E7E7"/>
      <stop offset="100%" stop-color="#F4F4F4"/>
    </linearGradient>
    <path id="dde-calendar256-f" d="M214,144 C214,144 211.131698,161.907704 207.5,167.75 C201.75,177 197.5,173.5 189.5,183.25 C181.5,193 187,194.75 175,205 C168.569162,210.493008 153,214 153,214 C202.75,214 214,170.75 214,144 Z"/>
    <filter id="dde-calendar256-e" width="113.1%" height="111.4%" x="-6.6%" y="-2.9%" filterUnits="objectBoundingBox">
      <feOffset dy="2" in="SourceAlpha" result="shadowOffsetOuter1"/>
      <feGaussianBlur in="shadowOffsetOuter1" result="shadowBlurOuter1" stdDeviation="1"/>
      <feColorMatrix in="shadowBlurOuter1" values="0 0 0 0 0   0 0 0 0 0   0 0 0 0 0  0 0 0 0.05 0"/>
    </filter>
  </defs>
  <g fill="none" fill-rule="evenodd" filter="url(#dde-calendar256-a)" transform="rotate(-8 267.657 -32.657)">
    <rect width="214" height="214" fill="#FFF" rx="39"/>
    <path fill="url(#dde-calendar256-b)" fill-opacity=".39" d="M214,146 L214,175 C214,196.539105 196.539105,214 175,214 L154,214 C174.5,211.5 188.916667,203.583333 197.25,190.25 C205.583333,176.916667 211.166667,162.166667 214,146 Z"/>
    <path fill="#E06164" fill-rule="nonzero" d="M53.035,53 L53.035,40.26 C53.035,37.95 52.72,34.625 52.545,32.28 L52.685,32.28 L54.715,38.23 L59.23,50.515 L61.75,50.515 L66.23,38.23 L68.295,32.28 L68.435,32.28 C68.225,34.625 67.91,37.95 67.91,40.26 L67.91,53 L71.69,53 L71.69,27.205 L67,27.205 L62.345,40.26 C61.75,41.975 61.26,43.725 60.665,45.44 L60.49,45.44 C59.895,43.725 59.37,41.975 58.775,40.26 L54.05,27.205 L49.395,27.205 L49.395,53 L53.035,53 Z M79.18,53 L81.385,45.65 L90.345,45.65 L92.515,53 L96.82,53 L88.28,27.205 L83.59,27.205 L75.05,53 L79.18,53 Z M89.365,42.465 L82.33,42.465 L83.38,39 C84.22,36.2 85.025,33.365 85.76,30.425 L85.935,30.425 C86.705,33.33 87.475,36.2 88.35,39 L89.365,42.465 Z M104.275,53 L104.275,42.605 L108.44,42.605 L114.285,53 L118.87,53 L112.57,42.08 C115.825,41.065 117.96,38.685 117.96,34.695 C117.96,29.13 113.97,27.205 108.65,27.205 L100.215,27.205 L100.215,53 L104.275,53 Z M108.16,39.35 L104.275,39.35 L104.275,30.495 L108.16,30.495 C111.905,30.495 113.935,31.58 113.935,34.695 C113.935,37.81 111.905,39.35 108.16,39.35 Z M133.22,53.455 C136.545,53.455 139.17,52.125 141.235,49.745 L139.065,47.19 C137.525,48.87 135.74,49.92 133.36,49.92 C128.81,49.92 125.94,46.175 125.94,40.05 C125.94,33.995 129.02,30.285 133.465,30.285 C135.565,30.285 137.175,31.23 138.505,32.595 L140.71,30.005 C139.135,28.29 136.615,26.75 133.395,26.75 C126.885,26.75 121.775,31.79 121.775,40.19 C121.775,48.625 126.745,53.455 133.22,53.455 Z M149.845,53 L149.845,41.275 L160.87,41.275 L160.87,53 L164.93,53 L164.93,27.205 L160.87,27.205 L160.87,37.74 L149.845,37.74 L149.845,27.205 L145.785,27.205 L145.785,53 L149.845,53 Z"/>
    <g fill-rule="nonzero">
      <use fill="#000" filter="url(#dde-calendar256-c)" xlink:href="#dde-calendar256-d"/>
      <use fill="#2D394F" xlink:href="#dde-calendar256-d"/>
    </g>
    <path fill="#2D394F" fill-rule="nonzero" d="M68.52,185 L68.52,177.72 C68.52,176.4 68.34,174.5 68.24,173.16 L68.32,173.16 L69.48,176.56 L72.06,183.58 L73.5,183.58 L76.06,176.56 L77.24,173.16 L77.32,173.16 C77.2,174.5 77.02,176.4 77.02,177.72 L77.02,185 L79.18,185 L79.18,170.26 L76.5,170.26 L73.84,177.72 C73.5,178.7 73.22,179.7 72.88,180.68 L72.78,180.68 C72.44,179.7 72.14,178.7 71.8,177.72 L69.1,170.26 L66.44,170.26 L66.44,185 L68.52,185 Z M88.64,185.26 C92.42,185.26 95.06,182.32 95.06,177.58 C95.06,172.84 92.42,170 88.64,170 C84.86,170 82.24,172.84 82.24,177.58 C82.24,182.32 84.86,185.26 88.64,185.26 Z M88.64,183.24 C86.2,183.24 84.62,181.02 84.62,177.58 C84.62,174.12 86.2,172.02 88.64,172.02 C91.08,172.02 92.68,174.12 92.68,177.58 C92.68,181.02 91.08,183.24 88.64,183.24 Z M100.32,185 L100.32,178.06 C100.32,176.46 100.14,174.76 100.02,173.24 L100.12,173.24 L101.66,176.32 L106.54,185 L108.92,185 L108.92,170.26 L106.72,170.26 L106.72,177.14 C106.72,178.74 106.9,180.52 107.02,182.04 L106.92,182.04 L105.38,178.92 L100.5,170.26 L98.12,170.26 L98.12,185 L100.32,185 Z M116.74,185 C121.14,185 123.72,182.36 123.72,177.58 C123.72,172.78 121.14,170.26 116.62,170.26 L112.8,170.26 L112.8,185 L116.74,185 Z M116.46,183.1 L115.12,183.1 L115.12,172.16 L116.46,172.16 C119.62,172.16 121.32,173.9 121.32,177.58 C121.32,181.24 119.62,183.1 116.46,183.1 Z M127.2,185 L128.46,180.8 L133.58,180.8 L134.82,185 L137.28,185 L132.4,170.26 L129.72,170.26 L124.84,185 L127.2,185 Z M133.02,178.98 L129,178.98 L129.6,177 C130.08,175.4 130.54,173.78 130.96,172.1 L131.06,172.1 C131.5,173.76 131.94,175.4 132.44,177 L133.02,178.98 Z M143.96,185 L143.96,179.42 L148.4,170.26 L145.98,170.26 L144.26,174.18 C143.82,175.28 143.34,176.3 142.86,177.42 L142.78,177.42 C142.28,176.3 141.86,175.28 141.4,174.18 L139.7,170.26 L137.22,170.26 L141.64,179.42 L141.64,185 L143.96,185 Z"/>
    <use fill="#000" filter="url(#dde-calendar256-e)" xlink:href="#dde-calendar256-f"/>
    <use fill="url(#dde-calendar256-g)" xlink:href="#dde-calendar256-f"/>
  </g>
</svg>
