<?xml version="1.0" encoding="UTF-8"?>
<svg width="256px" height="256px" viewBox="0 0 256 256" version="1.1" xmlns="http://www.w3.org/2000/svg" xmlns:xlink="http://www.w3.org/1999/xlink">
    <title>apps/256/dde-introduction</title>
    <defs>
        <filter x="-7.3%" y="-5.6%" width="114.7%" height="114.7%" filterUnits="objectBoundingBox" id="filter-1">
            <feOffset dx="0" dy="4" in="SourceAlpha" result="shadowOffsetOuter1"></feOffset>
            <feGaussianBlur stdDeviation="5" in="shadowOffsetOuter1" result="shadowBlurOuter1"></feGaussianBlur>
            <feColorMatrix values="0 0 0 0 0   0 0 0 0 0   0 0 0 0 0  0 0 0 0.2 0" type="matrix" in="shadowBlurOuter1" result="shadowMatrixOuter1"></feColorMatrix>
            <feMerge>
                <feMergeNode in="shadowMatrixOuter1"></feMergeNode>
                <feMergeNode in="SourceGraphic"></feMergeNode>
            </feMerge>
        </filter>
        <linearGradient x1="42.15262%" y1="0%" x2="42.1526194%" y2="100%" id="linearGradient-2">
            <stop stop-color="#00D8A5" offset="0%"></stop>
            <stop stop-color="#0058FF" offset="100%"></stop>
        </linearGradient>
    </defs>
    <g id="apps/256/dde-introduction" stroke="none" stroke-width="1" fill="none" fill-rule="evenodd">
        <g id="编组" filter="url(#filter-1)" transform="translate(12, 12)">
            <circle id="Mask" fill="url(#linearGradient-2)" cx="116" cy="116" r="116"></circle>
            <g id="Group" transform="translate(13.2712, 31.9492)">
                <path d="M119.559999,12.4074567 C145.283633,12.4074567 166.136759,33.2605825 166.136759,58.9842168 L166.136759,145.93288 C166.136759,151.455728 161.659607,155.93288 156.136759,155.93288 L72.9832389,155.93288 L72.9832389,155.93288 L72.9832389,58.9842168 C72.9832389,33.2605825 93.8363647,12.4074567 119.559999,12.4074567 Z" id="Rectangle" fill="#404040" transform="translate(119.56, 84.1702) rotate(-315) translate(-119.56, -84.1702)"></path>
                <path d="M119.559999,12.4074567 C145.283633,12.4074567 166.136759,33.2605825 166.136759,58.9842168 L166.136759,146.102372 C166.136759,151.531612 161.735491,155.93288 156.306251,155.93288 L72.9832389,155.93288 L72.9832389,58.9842168 C72.9832389,33.2605825 93.8363647,12.4074567 119.559999,12.4074567 Z M119.559999,19.2888126 C97.8560643,19.2888126 80.2204547,36.7073829 79.8699129,58.3277807 L79.8640339,58.9842168 L79.8640339,149.051524 L156.306251,149.051524 C157.876852,149.051524 159.160697,147.823773 159.250397,146.275657 L159.255403,146.102372 L159.255403,58.9842168 C159.255403,37.0610504 141.483165,19.2888126 119.559999,19.2888126 Z" id="Rectangle" fill="#373737" fill-rule="nonzero" transform="translate(119.56, 84.1702) rotate(-315) translate(-119.56, -84.1702)"></path>
                <path d="M59.0816654,37.000831 L145.685316,37.000831 C151.208164,37.000831 155.685316,41.4779835 155.685316,47.000831 L155.685316,120.844377 C155.685316,126.367225 151.208164,130.844377 145.685316,130.844377 L59.0816654,130.844377 C33.1674857,130.844377 12.1598923,109.836784 12.1598923,83.9226042 C12.1598923,58.0084244 33.1674857,37.000831 59.0816654,37.000831 Z" id="Rectangle-13" fill="#FFFFFF" transform="translate(83.9226, 83.9226) rotate(-315) translate(-83.9226, -83.9226)"></path>
                <polygon id="Rectangle-2" fill="#373737" transform="translate(130.9762, 98.9212) rotate(-315) translate(-130.9762, -98.9212)" points="103.039569 95.4710487 158.912776 95.4710487 158.912776 102.371309 103.039569 102.371309"></polygon>
                <polygon id="Rectangle-2" fill="#373737" transform="translate(116.5667, 113.6175) rotate(-315) translate(-116.5667, -113.6175)" points="88.6300502 110.167371 144.503257 110.167371 144.503257 117.067632 88.6300502 117.067632"></polygon>
                <path d="M59.0576565,85.1180162 C62.0926124,85.1180162 64.8402493,86.3481752 66.8291472,88.3370731 C68.8180451,90.325971 70.0482041,93.0736079 70.0482041,96.1085638 L70.0482041,114.689398 L48.0671089,114.689398 L48.0671089,96.1085638 C48.0671089,93.0736079 49.2972679,90.325971 51.2861658,88.3370731 C53.2750637,86.3481752 56.0227006,85.1180162 59.0576565,85.1180162 Z" id="Rectangle-14" stroke="#373737" stroke-width="7" fill="#404040" transform="translate(59.0577, 99.9037) rotate(-315) translate(-59.0577, -99.9037)"></path>
                <path d="M74.2985479,100.358908 C77.1429584,100.358908 79.7180888,101.511833 81.5821166,103.375861 C83.4461443,105.239888 84.5990695,107.815019 84.5990695,110.659429 L84.5990695,129.93029 L63.9980264,129.93029 L63.9980264,110.659429 C63.9980264,107.815019 65.1509516,105.239888 67.0149793,103.375861 C68.8790071,101.511833 71.4541375,100.358908 74.2985479,100.358908 Z" id="Rectangle-14" stroke="#373737" stroke-width="7" fill="#404040" transform="translate(74.2985, 115.1446) rotate(-315) translate(-74.2985, -115.1446)"></path>
                <path d="M89.0443107,115.10467 C91.8887211,115.10467 94.4638515,116.257596 96.3278793,118.121623 C98.191907,119.985651 99.3448322,122.560781 99.3448322,125.405192 L99.3448322,144.676052 L78.7437891,144.676052 L78.7437891,125.405192 C78.7437891,122.560781 79.8967143,119.985651 81.760742,118.121623 C83.6247698,116.257596 86.1999002,115.10467 89.0443107,115.10467 Z" id="Rectangle-14" stroke="#373737" stroke-width="7" fill="#404040" transform="translate(89.0443, 129.8904) rotate(-315) translate(-89.0443, -129.8904)"></path>
                <path d="M104.277995,126.838355 C112.280904,126.838355 118.768543,133.325994 118.768543,141.328903 L118.768543,153.409737 C118.768543,158.932585 114.291391,163.409737 108.768543,163.409737 L89.7874479,163.409737 L89.7874479,163.409737 L89.7874479,141.328903 C89.7874479,133.325994 96.275087,126.838355 104.277995,126.838355 Z" id="Rectangle-14" fill="#404040" transform="translate(104.278, 145.124) rotate(-315) translate(-104.278, -145.124)"></path>
                <path d="M104.277995,126.838355 C112.280904,126.838355 118.768543,133.325994 118.768543,141.328903 L118.768543,153.579229 C118.768543,159.008469 114.367275,163.409737 108.938035,163.409737 L89.7874479,163.409737 L89.7874479,141.328903 C89.7874479,133.325994 96.275087,126.838355 104.277995,126.838355 Z M104.277995,133.719711 C100.156371,133.719711 96.800127,136.996693 96.6725649,141.087356 L96.6688038,141.328903 L96.6683051,156.527542 L108.938035,156.528381 C110.508636,156.528381 111.792481,155.300629 111.882181,153.752514 L111.887187,153.579229 L111.887187,141.328903 C111.887187,137.126462 108.480436,133.719711 104.277995,133.719711 Z" id="Rectangle-14" fill="#373737" fill-rule="nonzero" transform="translate(104.278, 145.124) rotate(-315) translate(-104.278, -145.124)"></path>
                <path d="M105.579846,36.1356951 L105.579846,61.4148107 C105.579846,74.9882677 94.7671143,85.9917287 81.4289335,85.9917287 L81.4289335,36.1356951 L81.4289335,36.1356951" id="Rectangle-15" fill="#404040" transform="translate(93.5044, 61.0637) rotate(-315) translate(-93.5044, -61.0637)"></path>
                <path d="M84.8696115,36.1356951 L84.8687458,82.2597288 L85.1118296,82.2176276 C94.6751451,80.4649712 101.973587,72.0088974 102.13639,61.7647292 L102.139168,61.4148107 L102.139168,36.1356951 L109.020524,36.1356951 L109.020524,61.4148107 C109.020524,76.7205621 96.9265023,89.1809715 81.8856107,89.4286491 L81.4289335,89.4324067 L77.9882556,89.4324067 L77.9882556,36.1356951 L84.8696115,36.1356951 Z" id="Rectangle-15" fill="#373737" fill-rule="nonzero" transform="translate(93.5044, 62.7841) rotate(-315) translate(-93.5044, -62.7841)"></path>
            </g>
        </g>
        <g id="Guide-256" transform="translate(8, 8)"></g>
    </g>
</svg>