<svg xmlns="http://www.w3.org/2000/svg" xmlns:xlink="http://www.w3.org/1999/xlink" width="256" height="256" viewBox="0 0 256 256">
  <defs>
    <filter id="deepin-mail-256px-a" width="149.5%" height="130.6%" x="-28.8%" y="-11.5%" filterUnits="objectBoundingBox">
      <feOffset dy="4" in="SourceAlpha" result="shadowOffsetOuter1"/>
      <feGaussianBlur in="shadowOffsetOuter1" result="shadowBlurOuter1" stdDeviation="5"/>
      <feColorMatrix in="shadowBlurOuter1" result="shadowMatrixOuter1" values="0 0 0 0 0   0 0 0 0 0   0 0 0 0 0  0 0 0 0.2 0"/>
      <feMerge>
        <feMergeNode in="shadowMatrixOuter1"/>
        <feMergeNode in="SourceGraphic"/>
      </feMerge>
    </filter>
    <linearGradient id="deepin-mail-256px-c" x1="50%" x2="50%" y1="0%" y2="100%">
      <stop offset="0%" stop-color="#080030"/>
      <stop offset="100%" stop-color="#002F48"/>
    </linearGradient>
    <path id="deepin-mail-256px-b" d="M19.7008009,0.651106267 C9.18834632,0.651106267 0.666318107,9.18189684 0.666318107,19.7051603 L0.666318107,186.597052 C0.666318107,197.120316 9.18834632,205.651106 19.7008009,205.651106 L135.631835,205.651106 C146.14429,205.651106 154.666318,197.120316 154.666318,186.597052 L154.666318,19.7051603 C154.666318,9.18189684 146.14429,0.651106267 135.631835,0.651106267 L19.7008009,0.651106267 Z"/>
    <linearGradient id="deepin-mail-256px-d" x1="3.381%" x2="74.037%" y1="58.058%" y2="67.397%">
      <stop offset="0%" stop-color="#00807D"/>
      <stop offset="100%" stop-color="#0013AE"/>
    </linearGradient>
    <linearGradient id="deepin-mail-256px-f" x1="8.766%" x2="71.251%" y1="71.354%" y2="41.48%">
      <stop offset="0%" stop-color="#00499C"/>
      <stop offset="100%" stop-color="#000A72"/>
    </linearGradient>
    <ellipse id="deepin-mail-256px-g" cx="131.597" cy="6.822" rx="46.529" ry="46.577"/>
    <filter id="deepin-mail-256px-h" width="125.8%" height="125.8%" x="-12.9%" y="-12.9%" filterUnits="objectBoundingBox">
      <feOffset dx="24" dy="1" in="SourceAlpha" result="shadowOffsetInner1"/>
      <feComposite in="shadowOffsetInner1" in2="SourceAlpha" k2="-1" k3="1" operator="arithmetic" result="shadowInnerInner1"/>
      <feColorMatrix in="shadowInnerInner1" values="0 0 0 0 1   0 0 0 0 1   0 0 0 0 1  0 0 0 0.1 0"/>
    </filter>
    <linearGradient id="deepin-mail-256px-i" x1="50%" x2="50%" y1="0%" y2="100%">
      <stop offset="0%" stop-color="#FAD961"/>
      <stop offset="100%" stop-color="#F76B1C"/>
    </linearGradient>
    <linearGradient id="deepin-mail-256px-j" x1="30.114%" x2="80.472%" y1="7.708%" y2="65.246%">
      <stop offset="0%" stop-color="#004940"/>
      <stop offset="100%" stop-color="#001D3C"/>
    </linearGradient>
    <ellipse id="deepin-mail-256px-k" cx="23.735" cy="202.656" rx="27.494" ry="27.523"/>
    <filter id="deepin-mail-256px-l" width="143.6%" height="143.6%" x="-21.8%" y="-21.8%" filterUnits="objectBoundingBox">
      <feOffset dx="24" dy="1" in="SourceAlpha" result="shadowOffsetInner1"/>
      <feComposite in="shadowOffsetInner1" in2="SourceAlpha" k2="-1" k3="1" operator="arithmetic" result="shadowInnerInner1"/>
      <feColorMatrix in="shadowInnerInner1" values="0 0 0 0 1   0 0 0 0 1   0 0 0 0 1  0 0 0 0.1 0"/>
    </filter>
    <linearGradient id="deepin-mail-256px-m" x1="31.685%" x2="58.652%" y1="60.932%" y2="100%">
      <stop offset="0%" stop-color="#33B8EC"/>
      <stop offset="100%" stop-color="#B5DEFF"/>
    </linearGradient>
    <linearGradient id="deepin-mail-256px-n" x1="91.557%" x2="50%" y1="1.086%" y2="100%">
      <stop offset="49.623%" stop-color="#0D98CF"/>
      <stop offset="100%" stop-color="#7ADAFF"/>
    </linearGradient>
    <linearGradient id="deepin-mail-256px-o" x1="36.765%" x2="9.658%" y1="58.706%" y2="100%">
      <stop offset="0%" stop-color="#00B7FF"/>
      <stop offset="100%" stop-color="#87CAFF"/>
    </linearGradient>
    <polygon id="deepin-mail-256px-p" points="52.071 75.827 38.588 98.225 127.756 .417"/>
    <filter id="deepin-mail-256px-q" width="101.1%" height="101%" x="-.6%" y="-.5%" filterUnits="objectBoundingBox">
      <feOffset dx="1" dy="1" in="SourceAlpha" result="shadowOffsetInner1"/>
      <feComposite in="shadowOffsetInner1" in2="SourceAlpha" k2="-1" k3="1" operator="arithmetic" result="shadowInnerInner1"/>
      <feColorMatrix in="shadowInnerInner1" values="0 0 0 0 1   0 0 0 0 1   0 0 0 0 1  0 0 0 0.5 0"/>
    </filter>
    <filter id="deepin-mail-256px-r" width="139.8%" height="144%" x="-19.9%" y="-22%" filterUnits="objectBoundingBox">
      <feOffset dy="5" in="SourceAlpha" result="shadowOffsetOuter1"/>
      <feGaussianBlur in="shadowOffsetOuter1" result="shadowBlurOuter1" stdDeviation="4"/>
      <feColorMatrix in="shadowBlurOuter1" result="shadowMatrixOuter1" values="0 0 0 0 0   0 0 0 0 0   0 0 0 0 0  0 0 0 0.2 0"/>
      <feMerge>
        <feMergeNode in="shadowMatrixOuter1"/>
        <feMergeNode in="SourceGraphic"/>
      </feMerge>
    </filter>
    <linearGradient id="deepin-mail-256px-s" x1="98.248%" x2="10.424%" y1="35.028%" y2="62.792%">
      <stop offset="0%" stop-color="#6DB4FF"/>
      <stop offset="100%" stop-color="#D5FFFD"/>
    </linearGradient>
    <linearGradient id="deepin-mail-256px-t" x1="70.2%" x2="50%" y1="3.11%" y2="94.772%">
      <stop offset="0%" stop-color="#57A2FF"/>
      <stop offset="100%" stop-color="#D3F9FF"/>
    </linearGradient>
  </defs>
  <g fill="none" fill-rule="evenodd" filter="url(#deepin-mail-256px-a)" transform="translate(36 11)">
    <path fill="#F3F3F3" fill-rule="nonzero" stroke="#FFF" stroke-width="2" d="M54.0384022,1.00067963 C54.8650571,2.65381698 56.1136477,4.05883327 57.6430389,5.07393902 C59.3068831,6.17828554 61.3026412,6.82186671 63.4486244,6.82186671 C65.5946077,6.82186671 67.5903657,6.17828554 69.25421,5.07393902 C70.6816418,4.12650699 71.864465,2.83941955 72.6879317,1.32795681 L72.8588467,1.00067963 L82.5901263,1.00067963 C83.4167813,2.65381698 84.6653718,4.05883327 86.194763,5.07393902 C87.8586072,6.17828554 89.8543653,6.82186671 92.0003486,6.82186671 C94.1463318,6.82186671 96.1420899,6.17828554 97.8059341,5.07393902 C99.2333659,4.12650699 100.416189,2.83941955 101.239656,1.32795681 L101.410571,1.00067963 L111.14185,1.00067963 C111.968505,2.65381698 113.217096,4.05883327 114.746487,5.07393902 C116.410331,6.17828554 118.406089,6.82186671 120.552073,6.82186671 C122.698056,6.82186671 124.693814,6.17828554 126.357658,5.07393902 C127.78509,4.12650699 128.967913,2.83941955 129.79138,1.32795681 L129.962295,1.00067963 L139.693575,1.00067963 C140.52023,2.65381698 141.76882,4.05883327 143.298211,5.07393902 C144.962056,6.17828554 146.957814,6.82186671 149.103797,6.82186671 C151.053918,6.82186671 152.879963,6.29031654 154.445648,5.36465282 C155.843669,4.53811591 157.033925,3.39685013 157.91972,2.03843694 C161.39553,2.92695313 164.653197,4.36272726 167.595458,6.24821839 C168.159943,8.10413095 169.22248,9.74247454 170.627661,11.0069185 C172.022794,12.2623215 173.755331,13.1490985 175.672343,13.5158059 C177.990209,16.4059406 179.837292,19.6916049 181.097058,23.2554702 C178.403204,25.1603069 176.645735,28.2975712 176.645735,31.8446222 C176.645735,34.1038538 177.358975,36.196607 178.57233,37.9108247 C179.613518,39.381807 181.023492,40.5736501 182.667592,41.3525241 L182.999494,41.502753 L182.999494,50.7382156 C181.213127,51.5096466 179.68293,52.7610961 178.57233,54.3301438 C177.358975,56.0443615 176.645735,58.1371147 176.645735,60.3963464 C176.645735,62.655578 177.358975,64.7483312 178.57233,66.4625489 C179.613518,67.9335312 181.023492,69.1253743 182.667592,69.9042482 L182.999494,70.0544771 L182.999494,79.2899397 C181.213127,80.0613708 179.68293,81.3128202 178.57233,82.881868 C177.358975,84.5960857 176.645735,86.6888389 176.645735,88.9480705 C176.645735,91.2073021 177.358975,93.3000553 178.57233,95.014273 C179.613518,96.4852553 181.023492,97.6770984 182.667592,98.4559724 L182.999494,98.6062012 L182.999494,107.841664 C181.213127,108.613095 179.68293,109.864544 178.57233,111.433592 C177.358975,113.14781 176.645735,115.240563 176.645735,117.499795 C176.645735,119.759026 177.358975,121.851779 178.57233,123.565997 C179.613518,125.036979 181.023492,126.228823 182.667592,127.007697 L182.999494,127.157925 L182.999494,136.393388 C181.213127,137.164819 179.68293,138.416268 178.57233,139.985316 C177.358975,141.699534 176.645735,143.792287 176.645735,146.051519 C176.645735,148.31075 177.358975,150.403504 178.57233,152.117721 C179.613518,153.588704 181.023492,154.780547 182.667592,155.559421 L182.999494,155.70965 L182.999494,164.945112 C181.213127,165.716543 179.68293,166.967993 178.57233,168.53704 C177.358975,170.251258 176.645735,172.344011 176.645735,174.603243 C176.645735,176.862475 177.358975,178.955228 178.57233,180.669445 C179.613518,182.140428 181.023492,183.332271 182.667592,184.111145 L182.999494,184.261374 L182.999494,193.496836 C181.213127,194.268267 179.68293,195.519717 178.57233,197.088765 C177.358975,198.802982 176.645735,200.895735 176.645735,203.154967 C176.645735,206.702221 178.403427,209.839633 181.096327,211.744883 C179.924897,215.060194 178.244208,218.135472 176.148683,220.876202 C174.011425,221.182985 172.081632,222.13256 170.561369,223.5234 C169.030042,224.924362 167.914686,226.772993 167.420224,228.862157 C164.604279,230.642949 161.502248,232.013213 158.199245,232.888623 C157.34172,231.413087 156.136382,230.165514 154.695641,229.258431 C153.07578,228.238574 151.158665,227.648443 149.103797,227.648443 C146.844988,227.648443 144.752595,228.361417 143.038556,229.574357 C141.567702,230.615207 140.375864,232.024747 139.596802,233.668386 L139.446533,234.000195 L130.209337,234.000195 C129.437678,232.214325 128.186224,230.684597 126.617314,229.574357 C124.903275,228.361417 122.810882,227.648443 120.552073,227.648443 C118.293264,227.648443 116.200871,228.361417 114.486832,229.574357 C113.015978,230.615207 111.82414,232.024747 111.045078,233.668386 L110.894809,234.000195 L101.657613,234.000195 C100.885953,232.214325 99.6344998,230.684597 98.0655894,229.574357 C96.3515506,228.361417 94.2591577,227.648443 92.0003486,227.648443 C89.7415394,227.648443 87.6491465,228.361417 85.9351077,229.574357 C84.4642542,230.615207 83.2724154,232.024747 82.4933536,233.668386 L82.3430845,234.000195 L73.1058885,234.000195 C72.3342293,232.214325 71.0827757,230.684597 69.5138653,229.574357 C67.7998265,228.361417 65.7074336,227.648443 63.4486244,227.648443 C61.1898153,227.648443 59.0974223,228.361417 57.3833836,229.574357 C55.9125301,230.615207 54.7206913,232.024747 53.9416294,233.668386 L53.7913604,234.000195 L44.5541643,234.000195 C43.7825052,232.214325 42.5310516,230.684597 40.9621411,229.574357 C39.2481024,228.361417 37.1557094,227.648443 34.8969003,227.648443 C32.8422588,227.648443 30.9253389,228.238447 29.3055673,229.257874 C27.8644291,230.164877 26.6587749,231.412354 25.8004257,232.887262 C22.4976873,232.012865 19.3957692,230.642622 16.5788,228.861596 C16.0852668,226.772942 14.9704754,224.924743 13.4399085,223.523877 C11.919545,222.13235 9.98938003,221.182263 7.85170642,220.874651 C5.7560091,218.134567 4.07544046,215.059427 2.90327493,211.743672 C5.59740278,209.839429 7.35496179,206.702115 7.35496179,203.154967 C7.35496179,200.895579 6.6416233,198.802693 5.42811609,197.088409 C4.38680347,195.61738 2.97666888,194.425535 1.33239828,193.64673 L1.00046226,193.496516 L1.00046226,184.261694 C2.78701173,183.490347 4.31738263,182.238899 5.42811609,180.669801 C6.6416233,178.955517 7.35496179,176.862631 7.35496179,174.603243 C7.35496179,172.343855 6.6416233,170.250969 5.42811609,168.536685 C4.38680347,167.065655 2.97666888,165.873811 1.33239828,165.095006 L1.00046226,164.944792 L1.00046226,155.709969 C2.78701173,154.938623 4.31738263,153.687175 5.42811609,152.118076 C6.6416233,150.403793 7.35496179,148.310906 7.35496179,146.051519 C7.35496179,143.792131 6.6416233,141.699245 5.42811609,139.984961 C4.38680347,138.513931 2.97666888,137.322087 1.33239828,136.543282 L1.00046226,136.393068 L1.00046226,127.158245 C2.78701173,126.386899 4.31738263,125.135451 5.42811609,123.566352 C6.6416233,121.852069 7.35496179,119.759182 7.35496179,117.499795 C7.35496179,115.240407 6.6416233,113.147521 5.42811609,111.433237 C4.38680347,109.962207 2.97666888,108.770362 1.33239828,107.991558 L1.00046226,107.841344 L1.00046226,98.6065212 C2.78701173,97.8351745 4.31738263,96.5837266 5.42811609,95.0146281 C6.6416233,93.3003444 7.35496179,91.2074581 7.35496179,88.9480705 C7.35496179,86.6886829 6.6416233,84.5957966 5.42811609,82.8815129 C4.38680347,81.410483 2.97666888,80.2186383 1.33239828,79.4398338 L1.00046226,79.2896198 L1.00046226,70.0547971 C2.78701173,69.2834503 4.31738263,68.0320025 5.42811609,66.462904 C6.6416233,64.7486202 7.35496179,62.655734 7.35496179,60.3963464 C7.35496179,58.1369587 6.6416233,56.0440725 5.42811609,54.3297887 C4.38680347,52.8587589 2.97666888,51.6669142 1.33239828,50.8881097 L1.00046226,50.7378956 L1.00046226,41.5030729 C2.78701173,40.7317262 4.31738263,39.4802784 5.42811609,37.9111799 C6.6416233,36.1968961 7.35496179,34.1040098 7.35496179,31.8446222 C7.35496179,28.2973678 5.59727007,25.1599562 2.90448282,23.2544558 C4.163839,19.6906734 6.01114718,16.4048046 8.32933354,13.5137055 C10.2456295,13.1479325 11.9774719,12.261928 13.3723379,11.0076264 C14.778332,9.74331806 15.8415778,8.10486179 16.4073174,6.24893034 C19.3488127,4.36221737 22.6062928,2.92656161 26.0822022,2.03791392 C26.9671216,3.39658294 28.1570726,4.53781372 29.5547677,5.36435043 C31.1204706,6.29023978 32.9466372,6.82186671 34.8969003,6.82186671 C37.0428836,6.82186671 39.0386416,6.17828554 40.7024858,5.07393902 C42.1299176,4.12650699 43.3127408,2.83941955 44.1362075,1.32795681 L44.3071225,1.00067963 L54.0384022,1.00067963 Z M149.632532,14.3488937 L34.3681647,14.3488937 L33.9207492,14.3537958 C28.5659434,14.4712409 23.7289143,16.691695 20.2012828,20.2229536 C16.5760333,23.8519306 14.3336819,28.8652913 14.3336819,34.4029478 L14.3336819,34.4029478 L14.3336819,200.596641 L14.3388541,201.056881 C14.459324,206.41175 16.6767347,211.248464 20.2012828,214.776636 C23.826904,218.405985 28.8356776,220.650696 34.3681647,220.650696 L34.3681647,220.650696 L149.632532,220.650696 L150.079948,220.645793 C155.434754,220.528348 160.271783,218.307894 163.799414,214.776636 C167.424664,211.147659 169.667015,206.134298 169.667015,200.596641 L169.667015,200.596641 L169.667015,34.4029478 L169.661843,33.9427085 C169.541373,28.5878395 167.323962,23.7511257 163.799414,20.2229536 C160.173793,16.5936045 155.16502,14.3488937 149.632532,14.3488937 L149.632532,14.3488937 Z"/>
    <g transform="translate(14.334 14.349)">
      <mask id="deepin-mail-256px-e" fill="#fff">
        <use xlink:href="#deepin-mail-256px-b"/>
      </mask>
      <use fill="url(#deepin-mail-256px-c)" fill-rule="nonzero" xlink:href="#deepin-mail-256px-b"/>
      <path fill="url(#deepin-mail-256px-d)" fill-rule="nonzero" d="M56.0079288,0.650601043 C51.2942581,4.09990294 48.2850726,8.21040421 47.3779478,12.8819554 C43.3506923,33.6216918 81.8720533,59.6435832 133.969124,69.7806489 C141.018577,71.1523316 147.946387,72.1611318 154.667054,72.8287583 L154.667054,77.8623805 C147.62696,77.1742334 140.378994,76.1216557 133.014134,74.6886011 C78.4783227,64.0770046 37.6933397,36.5259947 42.4696284,11.9288547 C43.282301,7.74371809 45.3498276,3.97389392 48.4902776,0.651470505 L56.0079288,0.650601043 Z" mask="url(#deepin-mail-256px-e)" opacity=".503"/>
      <g mask="url(#deepin-mail-256px-e)" opacity=".5">
        <use fill="url(#deepin-mail-256px-f)" xlink:href="#deepin-mail-256px-g"/>
        <use fill="#000" filter="url(#deepin-mail-256px-h)" xlink:href="#deepin-mail-256px-g"/>
      </g>
      <circle cx="59.666" cy="38.651" r="8" fill="url(#deepin-mail-256px-i)" mask="url(#deepin-mail-256px-e)"/>
      <path fill="#070935" fill-rule="nonzero" d="M59.6663181,23.6511063 C51.3820469,23.6511063 44.6663181,30.366835 44.6663181,38.6511063 C44.6663181,46.9353775 51.3820469,53.6511063 59.6663181,53.6511063 C67.9505894,53.6511063 74.6663181,46.9353775 74.6663181,38.6511063 C74.6663181,30.366835 67.9505894,23.6511063 59.6663181,23.6511063 Z M59.6663181,30.6511063 C64.0845961,30.6511063 67.6663181,34.2328283 67.6663181,38.6511063 C67.6663181,43.0693843 64.0845961,46.6511063 59.6663181,46.6511063 C55.2480401,46.6511063 51.6663181,43.0693843 51.6663181,38.6511063 C51.6663181,34.2328283 55.2480401,30.6511063 59.6663181,30.6511063 Z" mask="url(#deepin-mail-256px-e)"/>
      <path fill="#000" fill-rule="nonzero" d="M59.6663181,28.6511063 C54.1434706,28.6511063 49.6663181,33.1282588 49.6663181,38.6511063 C49.6663181,44.1739538 54.1434706,48.6511063 59.6663181,48.6511063 C65.1891656,48.6511063 69.6663181,44.1739538 69.6663181,38.6511063 C69.6663181,33.1282588 65.1891656,28.6511063 59.6663181,28.6511063 Z M59.6663181,32.6511063 C62.9800266,32.6511063 65.6663181,35.3373978 65.6663181,38.6511063 C65.6663181,41.9648148 62.9800266,44.6511063 59.6663181,44.6511063 C56.3526096,44.6511063 53.6663181,41.9648148 53.6663181,38.6511063 C53.6663181,35.3373978 56.3526096,32.6511063 59.6663181,32.6511063 Z" mask="url(#deepin-mail-256px-e)"/>
      <circle cx="137.166" cy="194.151" r="3.5" fill="url(#deepin-mail-256px-i)" mask="url(#deepin-mail-256px-e)"/>
      <g mask="url(#deepin-mail-256px-e)">
        <use fill="url(#deepin-mail-256px-j)" xlink:href="#deepin-mail-256px-k"/>
        <use fill="#000" filter="url(#deepin-mail-256px-l)" xlink:href="#deepin-mail-256px-k"/>
      </g>
    </g>
    <g transform="rotate(-28 247.297 60.27)">
      <polygon fill="url(#deepin-mail-256px-m)" points="42.538 70.403 38.588 98.225 127.756 .417"/>
      <path fill="url(#deepin-mail-256px-n)" fill-rule="nonzero" d="M127.756277,0.417326364 L38.5878624,98.2248581 L42.5379701,70.4031366 L127.756277,0.417326364 Z M107.6,19.558 L44.409,71.454 L41.48,92.083 L107.6,19.558 Z"/>
      <use fill="url(#deepin-mail-256px-o)" xlink:href="#deepin-mail-256px-p"/>
      <use fill="#000" filter="url(#deepin-mail-256px-q)" xlink:href="#deepin-mail-256px-p"/>
      <g filter="url(#deepin-mail-256px-r)" transform="translate(0 .53)">
        <polygon fill="url(#deepin-mail-256px-s)" points="42.538 69.874 127.69 0 0 62.984"/>
        <polygon fill="url(#deepin-mail-256px-t)" points="52.071 75.297 127.69 0 95.966 115.648"/>
      </g>
    </g>
  </g>
</svg>
