<?xml version="1.0" encoding="UTF-8"?>
<svg width="256px" height="256px" viewBox="0 0 256 256" version="1.1" xmlns="http://www.w3.org/2000/svg" xmlns:xlink="http://www.w3.org/1999/xlink">
    <title>apps/256/deepin-reader</title>
    <defs>
        <filter x="-13.6%" y="-14.8%" width="127.2%" height="123.6%" filterUnits="objectBoundingBox" id="filter-1">
            <feOffset dx="0" dy="4" in="SourceAlpha" result="shadowOffsetOuter1"></feOffset>
            <feGaussianBlur stdDeviation="5" in="shadowOffsetOuter1" result="shadowBlurOuter1"></feGaussianBlur>
            <feColorMatrix values="0 0 0 0 0   0 0 0 0 0   0 0 0 0 0  0 0 0 0.2 0" type="matrix" in="shadowBlurOuter1" result="shadowMatrixOuter1"></feColorMatrix>
            <feMerge>
                <feMergeNode in="shadowMatrixOuter1"></feMergeNode>
                <feMergeNode in="SourceGraphic"></feMergeNode>
            </feMerge>
        </filter>
        <radialGradient cx="55.9211747%" cy="91.9197688%" fx="55.9211747%" fy="91.9197688%" r="40.0712901%" gradientTransform="translate(0.5592, 0.9192), scale(1, 0.9758), rotate(89.4475), scale(1, 1.0312), translate(-0.5592, -0.9192)" id="radialGradient-2">
            <stop stop-color="#FFFFFF" offset="0.0818201014%"></stop>
            <stop stop-color="#F4EEEE" offset="32.699392%"></stop>
            <stop stop-color="#E9E4E4" offset="100%"></stop>
        </radialGradient>
        <linearGradient x1="50%" y1="0%" x2="50%" y2="100%" id="linearGradient-3">
            <stop stop-color="#FFFFFF" stop-opacity="0" offset="0%"></stop>
            <stop stop-color="#C4C4C4" stop-opacity="0.554250437" offset="100%"></stop>
        </linearGradient>
        <linearGradient x1="64.1867976%" y1="16.5047449%" x2="92.7708671%" y2="86.0131903%" id="linearGradient-4">
            <stop stop-color="#FFFDFD" offset="0%"></stop>
            <stop stop-color="#F2EEEE" offset="100%"></stop>
        </linearGradient>
        <path d="M32.0010994,12.8897582 L174.001099,12.8897582 C191.674211,12.8897582 206.001099,27.2166463 206.001099,44.8897582 L206.001099,173 C206.001099,190.673112 191.674211,205 174.001099,205 L32.0010994,205 C14.3279874,205 0.00109941067,190.673112 0.00109941067,173 L0.00109941067,44.8897582 C0.00109941067,27.2166463 14.3279874,12.8897582 32.0010994,12.8897582 Z" id="path-5"></path>
        <filter x="-9.5%" y="-7.0%" width="118.9%" height="120.3%" filterUnits="objectBoundingBox" id="filter-6">
            <feOffset dx="0" dy="6" in="SourceAlpha" result="shadowOffsetOuter1"></feOffset>
            <feGaussianBlur stdDeviation="5.5" in="shadowOffsetOuter1" result="shadowBlurOuter1"></feGaussianBlur>
            <feColorMatrix values="0 0 0 0 0   0 0 0 0 0   0 0 0 0 0  0 0 0 0.06 0" type="matrix" in="shadowBlurOuter1"></feColorMatrix>
        </filter>
        <linearGradient x1="50%" y1="0%" x2="50%" y2="100%" id="linearGradient-7">
            <stop stop-color="#FFFFFF" stop-opacity="0" offset="0%"></stop>
            <stop stop-color="#C4C4C4" stop-opacity="0.554250437" offset="100%"></stop>
        </linearGradient>
        <linearGradient x1="50%" y1="0%" x2="50%" y2="100%" id="linearGradient-8">
            <stop stop-color="#FFFFFF" stop-opacity="0" offset="0%"></stop>
            <stop stop-color="#C4C4C4" stop-opacity="0.554250437" offset="100%"></stop>
        </linearGradient>
        <linearGradient x1="50%" y1="0%" x2="50%" y2="100%" id="linearGradient-9">
            <stop stop-color="#FFFFFF" stop-opacity="0" offset="0%"></stop>
            <stop stop-color="#C4C4C4" stop-opacity="0.554250437" offset="100%"></stop>
        </linearGradient>
        <linearGradient x1="50%" y1="0%" x2="50%" y2="100%" id="linearGradient-10">
            <stop stop-color="#FFFFFF" stop-opacity="0" offset="0%"></stop>
            <stop stop-color="#C4C4C4" stop-opacity="0.554250437" offset="100%"></stop>
        </linearGradient>
        <linearGradient x1="50%" y1="0%" x2="50%" y2="100%" id="linearGradient-11">
            <stop stop-color="#FE8B45" offset="0%"></stop>
            <stop stop-color="#F7B338" offset="99.6964738%"></stop>
        </linearGradient>
        <path d="M38.0010994,205 L38.0010994,227.21302 C38.0010994,228.31759 38.8965299,229.21302 40.0010994,229.21302 C40.207013,229.21302 40.4116916,229.181221 40.6078991,229.118747 L54.5010994,224.695033 L54.5010994,224.695033 L68.3889351,229.160155 C69.4404909,229.498244 70.5670206,228.919865 70.9051096,227.868309 C70.9687142,227.67048 71.0010994,227.463947 71.0010994,227.256145 L71.0010994,205 L71.0010994,205 L38.0010994,205 Z" id="path-12"></path>
        <filter x="-10.6%" y="-14.0%" width="121.2%" height="125.0%" filterUnits="objectBoundingBox" id="filter-13">
            <feOffset dx="0" dy="-1" in="SourceAlpha" result="shadowOffsetInner1"></feOffset>
            <feComposite in="shadowOffsetInner1" in2="SourceAlpha" operator="arithmetic" k2="-1" k3="1" result="shadowInnerInner1"></feComposite>
            <feColorMatrix values="0 0 0 0 0   0 0 0 0 0   0 0 0 0 0  0 0 0 0.2 0" type="matrix" in="shadowInnerInner1" result="shadowMatrixInner1"></feColorMatrix>
            <feGaussianBlur stdDeviation="1.5" in="SourceAlpha" result="shadowBlurInner2"></feGaussianBlur>
            <feOffset dx="0" dy="4" in="shadowBlurInner2" result="shadowOffsetInner2"></feOffset>
            <feComposite in="shadowOffsetInner2" in2="SourceAlpha" operator="arithmetic" k2="-1" k3="1" result="shadowInnerInner2"></feComposite>
            <feColorMatrix values="0 0 0 0 0   0 0 0 0 0   0 0 0 0 0  0 0 0 0.08 0" type="matrix" in="shadowInnerInner2" result="shadowMatrixInner2"></feColorMatrix>
            <feMerge>
                <feMergeNode in="shadowMatrixInner1"></feMergeNode>
                <feMergeNode in="shadowMatrixInner2"></feMergeNode>
            </feMerge>
        </filter>
        <linearGradient x1="50%" y1="0%" x2="50%" y2="100%" id="linearGradient-14">
            <stop stop-color="#000000" stop-opacity="0.04" offset="0%"></stop>
            <stop stop-color="#000000" stop-opacity="0.07" offset="100%"></stop>
        </linearGradient>
        <linearGradient x1="54.0180894%" y1="39.1501339%" x2="100%" y2="39.1501339%" id="linearGradient-15">
            <stop stop-color="#FFFFFF" offset="0%"></stop>
            <stop stop-color="#E7DBDB" offset="100%"></stop>
        </linearGradient>
        <path d="M58.6662124,173.495901 L31.0010994,197.37208 L31.0010994,197.37208 C59.778561,199.790693 75.260973,201 77.4483354,201 C104.404249,201 116.437947,196.083637 119.352818,195.091276 C121.027493,194.521137 126.102271,192.472791 128.661421,190.013792 C130.556625,188.192755 131.232116,186.415573 131.387747,185.853663 C132.153162,183.090101 131.985551,179.01648 131.985551,175.669014 C131.985551,162.451215 131.985551,128.34384 131.985551,73.3468872 L131.985551,21.0047813 C130.772146,14.3274428 125.741885,8.66282121 116.894766,4.01091638 C108.049334,-0.640101103 94.4452586,-1.24616447 76.0825391,2.19272628 L76.0824345,2.192166 C73.7165231,2.6337505 72.0009196,4.6982254 71.9998156,7.10499341 L71.9998151,15.5795251 L71.9998151,15.5795251 L71.8384376,57.9393095 L71.8384376,144.728183 C71.8384376,155.776321 67.0301527,166.277461 58.6662124,173.495901 Z" id="path-16"></path>
        <filter x="-28.7%" y="-16.9%" width="167.3%" height="133.8%" filterUnits="objectBoundingBox" id="filter-17">
            <feOffset dx="5" dy="0" in="SourceAlpha" result="shadowOffsetOuter1"></feOffset>
            <feGaussianBlur stdDeviation="10.5" in="shadowOffsetOuter1" result="shadowBlurOuter1"></feGaussianBlur>
            <feColorMatrix values="0 0 0 0 0.22899683   0 0 0 0 0.22899683   0 0 0 0 0.22899683  0 0 0 0.4 0" type="matrix" in="shadowBlurOuter1" result="shadowMatrixOuter1"></feColorMatrix>
            <feOffset dx="2" dy="0" in="SourceAlpha" result="shadowOffsetOuter2"></feOffset>
            <feGaussianBlur stdDeviation="2.5" in="shadowOffsetOuter2" result="shadowBlurOuter2"></feGaussianBlur>
            <feColorMatrix values="0 0 0 0 0   0 0 0 0 0   0 0 0 0 0  0 0 0 0.06 0" type="matrix" in="shadowBlurOuter2" result="shadowMatrixOuter2"></feColorMatrix>
            <feMerge>
                <feMergeNode in="shadowMatrixOuter1"></feMergeNode>
                <feMergeNode in="shadowMatrixOuter2"></feMergeNode>
            </feMerge>
        </filter>
        <radialGradient cx="19.9526148%" cy="2.93103031%" fx="19.9526148%" fy="2.93103031%" r="148.964832%" gradientTransform="translate(0.1995, 0.0293), scale(1, 0.6819), rotate(68.5693), translate(-0.1995, -0.0293)" id="radialGradient-18">
            <stop stop-color="#FF5E4D" offset="0%"></stop>
            <stop stop-color="#BA0E55" offset="100%"></stop>
        </radialGradient>
        <path d="M72.0010587,12.8741994 C71.9164269,104.817639 71.8741109,153.115611 71.8741109,157.768115 C71.8741109,164.958306 78.0726076,164.434495 79.3527479,164.434495 C88.7856365,164.434495 100.890952,164.958107 111.945246,166.843306 C123.49047,168.812229 126.810677,172.705126 129.403636,176.240789 C131.199987,178.690227 132.876598,187.240353 126.149331,192.267814 C119.373954,197.331228 110.616147,205 78.1175768,205 C62.7450512,205 47.3725256,205 32,205 C14.326888,205 -1.38838168e-15,190.673112 -3.55271368e-15,173 L3.55271368e-15,43.8752988 C1.45594269e-15,26.7538643 13.879665,12.8741994 31.0010994,12.8741994 L31.0010994,12.8741994 L31.0010994,12.8741994 L40.0010587,12.8741994 L72.0010587,12.8741994 L72.0010587,12.8741994 Z" id="path-19"></path>
        <filter x="-3.4%" y="-2.3%" width="106.9%" height="104.7%" filterUnits="objectBoundingBox" id="filter-20">
            <feOffset dx="-1" dy="0" in="SourceAlpha" result="shadowOffsetInner1"></feOffset>
            <feComposite in="shadowOffsetInner1" in2="SourceAlpha" operator="arithmetic" k2="-1" k3="1" result="shadowInnerInner1"></feComposite>
            <feColorMatrix values="0 0 0 0 0   0 0 0 0 0   0 0 0 0 0  0 0 0 0.152890079 0" type="matrix" in="shadowInnerInner1" result="shadowMatrixInner1"></feColorMatrix>
            <feGaussianBlur stdDeviation="2" in="SourceAlpha" result="shadowBlurInner2"></feGaussianBlur>
            <feOffset dx="-5" dy="2" in="shadowBlurInner2" result="shadowOffsetInner2"></feOffset>
            <feComposite in="shadowOffsetInner2" in2="SourceAlpha" operator="arithmetic" k2="-1" k3="1" result="shadowInnerInner2"></feComposite>
            <feColorMatrix values="0 0 0 0 0   0 0 0 0 0   0 0 0 0 0  0 0 0 0.06 0" type="matrix" in="shadowInnerInner2" result="shadowMatrixInner2"></feColorMatrix>
            <feMerge>
                <feMergeNode in="shadowMatrixInner1"></feMergeNode>
                <feMergeNode in="shadowMatrixInner2"></feMergeNode>
            </feMerge>
        </filter>
        <linearGradient x1="41.0531845%" y1="55.3909977%" x2="100%" y2="55.3909977%" id="linearGradient-21">
            <stop stop-color="#6F0F0F" offset="0%"></stop>
            <stop stop-color="#5A0823" offset="100%"></stop>
        </linearGradient>
    </defs>
    <g id="apps/256/deepin-reader" stroke="none" stroke-width="1" fill="none" fill-rule="evenodd">
        <g id="编组" filter="url(#filter-1)" transform="translate(24.9989, 12)">
            <path d="M174.001099,13.3897582 C182.699584,13.3897582 190.574584,16.9155158 196.274963,22.6158946 C201.975342,28.3162734 205.501099,36.1912734 205.501099,44.8897582 L205.501099,192 C205.501099,200.698485 201.975342,208.573485 196.274963,214.273864 C190.574584,219.974242 182.699584,223.5 174.001099,223.5 L32.0010994,223.5 C23.3026146,223.5 15.4276146,219.974242 9.7272358,214.273864 C4.02685701,208.573485 0.501099411,200.698485 0.501099411,192 L0.501099411,44.8897582 C0.501099411,36.1912734 4.02685701,28.3162734 9.7272358,22.6158946 C15.4276146,16.9155158 23.3026146,13.3897582 32.0010994,13.3897582 Z" id="矩形备份-9" stroke="url(#linearGradient-3)" fill="url(#radialGradient-2)"></path>
            <g id="矩形备份-10">
                <use fill="black" fill-opacity="1" filter="url(#filter-6)" xlink:href="#path-5"></use>
                <use fill="url(#linearGradient-4)" fill-rule="evenodd" xlink:href="#path-5"></use>
            </g>
            <path d="M32.0010994,13 L174.001099,13 C191.674211,13 206.001099,27.326888 206.001099,45 L206.001099,192 C206.001099,209.673112 191.674211,224 174.001099,224 L32.0010994,224 C14.3279874,224 0.00109941067,209.673112 0.00109941067,192 L0.00109941067,45 C0.00109941067,27.326888 14.3279874,13 32.0010994,13 Z" id="矩形"></path>
            <path d="M174.001099,13.3897582 C182.699584,13.3897582 190.574584,16.9155158 196.274963,22.6158946 C201.975342,28.3162734 205.501099,36.1912734 205.501099,44.8897582 L205.501099,188 C205.501099,196.698485 201.975342,204.573485 196.274963,210.273864 C190.574584,215.974242 182.699584,219.5 174.001099,219.5 L32.0010994,219.5 C23.3026146,219.5 15.4276146,215.974242 9.7272358,210.273864 C4.02685701,204.573485 0.501099411,196.698485 0.501099411,188 L0.501099411,44.8897582 C0.501099411,36.1912734 4.02685701,28.3162734 9.7272358,22.6158946 C15.4276146,16.9155158 23.3026146,13.3897582 32.0010994,13.3897582 Z" id="矩形备份-2" stroke="url(#linearGradient-7)"></path>
            <path d="M174.001099,13.3897582 C182.699584,13.3897582 190.574584,16.9155158 196.274963,22.6158946 C201.975342,28.3162734 205.501099,36.1912734 205.501099,44.8897582 L205.501099,183 C205.501099,191.698485 201.975342,199.573485 196.274963,205.273864 C190.574584,210.974242 182.699584,214.5 174.001099,214.5 L32.0010994,214.5 C23.3026146,214.5 15.4276146,210.974242 9.7272358,205.273864 C4.02685701,199.573485 0.501099411,191.698485 0.501099411,183 L0.501099411,44.8897582 C0.501099411,36.1912734 4.02685701,28.3162734 9.7272358,22.6158946 C15.4276146,16.9155158 23.3026146,13.3897582 32.0010994,13.3897582 Z" id="矩形备份-3" stroke="url(#linearGradient-8)"></path>
            <path d="M174.001099,13.3897582 C182.699584,13.3897582 190.574584,16.9155158 196.274963,22.6158946 C201.975342,28.3162734 205.501099,36.1912734 205.501099,44.8897582 L205.501099,178 C205.501099,186.698485 201.975342,194.573485 196.274963,200.273864 C190.574584,205.974242 182.699584,209.5 174.001099,209.5 L32.0010994,209.5 C23.3026146,209.5 15.4276146,205.974242 9.7272358,200.273864 C4.02685701,194.573485 0.501099411,186.698485 0.501099411,178 L0.501099411,44.8897582 C0.501099411,36.1912734 4.02685701,28.3162734 9.7272358,22.6158946 C15.4276146,16.9155158 23.3026146,13.3897582 32.0010994,13.3897582 Z" id="矩形备份-3" stroke="url(#linearGradient-9)"></path>
            <path d="M174.001099,13.3897582 C182.699584,13.3897582 190.574584,16.9155158 196.274963,22.6158946 C201.975342,28.3162734 205.501099,36.1912734 205.501099,44.8897582 L205.501099,173 C205.501099,181.698485 201.975342,189.573485 196.274963,195.273864 C190.574584,200.974242 182.699584,204.5 174.001099,204.5 L32.0010994,204.5 C23.3026146,204.5 15.4276146,200.974242 9.7272358,195.273864 C4.02685701,189.573485 0.501099411,181.698485 0.501099411,173 L0.501099411,44.8897582 C0.501099411,36.2855694 3.95082389,28.4871034 9.54262077,22.8020428 C15.1438754,17.1073667 22.8944334,13.5331819 31.4759715,13.3940289 L32.0010994,13.3897582 Z" id="矩形备份-7" stroke="url(#linearGradient-10)"></path>
            <g id="路径">
                <use fill="url(#linearGradient-11)" fill-rule="evenodd" xlink:href="#path-12"></use>
                <use fill="black" fill-opacity="1" filter="url(#filter-13)" xlink:href="#path-12"></use>
            </g>
            <path d="M51.2526333,63 L82.2526333,63 C83.3572028,63 84.2526333,63.8954305 84.2526333,65 L84.2526333,69 C84.2526333,70.1045695 83.3572028,71 82.2526333,71 L51.2526333,71 C50.1480638,71 49.2526333,70.1045695 49.2526333,69 L49.2526333,65 C49.2526333,63.8954305 50.1480638,63 51.2526333,63 Z M51.2526333,79 L82.2526333,79 C83.3572028,79 84.2526333,79.8954305 84.2526333,81 L84.2526333,85 C84.2526333,86.1045695 83.3572028,87 82.2526333,87 L51.2526333,87 C50.1480638,87 49.2526333,86.1045695 49.2526333,85 L49.2526333,81 C49.2526333,79.8954305 50.1480638,79 51.2526333,79 Z M96.2526333,47 L133.252633,47 C134.357203,47 135.252633,47.8954305 135.252633,49 L135.252633,53 C135.252633,54.1045695 134.357203,55 133.252633,55 L96.2526333,55 C95.1480638,55 94.2526333,54.1045695 94.2526333,53 L94.2526333,49 C94.2526333,47.8954305 95.1480638,47 96.2526333,47 Z M51.2526333,47 L82.2526333,47 C83.3572028,47 84.2526333,47.8954305 84.2526333,49 L84.2526333,53 C84.2526333,54.1045695 83.3572028,55 82.2526333,55 L51.2526333,55 C50.1480638,55 49.2526333,54.1045695 49.2526333,53 L49.2526333,49 C49.2526333,47.8954305 50.1480638,47 51.2526333,47 Z M51.2526333,111 L72.2526333,111 C73.3572028,111 74.2526333,111.895431 74.2526333,113 L74.2526333,133 C74.2526333,134.104569 73.3572028,135 72.2526333,135 L51.2526333,135 C50.1480638,135 49.2526333,134.104569 49.2526333,133 L49.2526333,113 C49.2526333,111.895431 50.1480638,111 51.2526333,111 Z M96.2526333,63 L121.252633,63 C122.357203,63 123.252633,63.8954305 123.252633,65 L123.252633,85 C123.252633,86.1045695 122.357203,87 121.252633,87 L96.2526333,87 C95.1480638,87 94.2526333,86.1045695 94.2526333,85 L94.2526333,65 C94.2526333,63.8954305 95.1480638,63 96.2526333,63 Z M82.2526333,127 L111.252633,127 C112.357203,127 113.252633,127.895431 113.252633,129 L113.252633,133 C113.252633,134.104569 112.357203,135 111.252633,135 L82.2526333,135 C81.1480638,135 80.2526333,134.104569 80.2526333,133 L80.2526333,129 C80.2526333,127.895431 81.1480638,127 82.2526333,127 Z M82.2526333,111 L111.252633,111 C112.357203,111 113.252633,111.895431 113.252633,113 L113.252633,117 C113.252633,118.104569 112.357203,119 111.252633,119 L82.2526333,119 C81.1480638,119 80.2526333,118.104569 80.2526333,117 L80.2526333,113 C80.2526333,111.895431 81.1480638,111 82.2526333,111 Z M51.2526333,143 L185.252633,143 C186.357203,143 187.252633,143.895431 187.252633,145 L187.252633,149 C187.252633,150.104569 186.357203,151 185.252633,151 L51.2526333,151 C50.1480638,151 49.2526333,150.104569 49.2526333,149 L49.2526333,145 C49.2526333,143.895431 50.1480638,143 51.2526333,143 Z M51.2526333,159 L101.252633,159 C102.357203,159 103.252633,159.895431 103.252633,161 L103.252633,165 C103.252633,166.104569 102.357203,167 101.252633,167 L51.2526333,167 C50.1480638,167 49.2526333,166.104569 49.2526333,165 L49.2526333,161 C49.2526333,159.895431 50.1480638,159 51.2526333,159 Z M51.2526333,95 L59.2526333,95 C60.3572028,95 61.2526333,95.8954305 61.2526333,97 L61.2526333,101 C61.2526333,102.104569 60.3572028,103 59.2526333,103 L51.2526333,103 C50.1480638,103 49.2526333,102.104569 49.2526333,101 L49.2526333,97 C49.2526333,95.8954305 50.1480638,95 51.2526333,95 Z M73.2526333,95 L116.252633,95 C117.357203,95 118.252633,95.8954305 118.252633,97 L118.252633,101 C118.252633,102.104569 117.357203,103 116.252633,103 L73.2526333,103 C72.1480638,103 71.2526333,102.104569 71.2526333,101 L71.2526333,97 C71.2526333,95.8954305 72.1480638,95 73.2526333,95 Z" id="形状结合备份" fill="url(#linearGradient-14)" transform="translate(118.1269, 107) scale(-1, 1) translate(-118.1269, -107)"></path>
            <g id="路径-6">
                <use fill="black" fill-opacity="1" filter="url(#filter-17)" xlink:href="#path-16"></use>
                <use fill="url(#linearGradient-15)" fill-rule="evenodd" xlink:href="#path-16"></use>
            </g>
            <g id="蒙版">
                <use fill="url(#radialGradient-18)" fill-rule="evenodd" xlink:href="#path-19"></use>
                <use fill="black" fill-opacity="1" filter="url(#filter-20)" xlink:href="#path-19"></use>
            </g>
            <path d="M29.0003784,11.1544121 L29.0003491,204.747494 C12.7709135,203.238286 0.0456481011,189.603618 0.00133579094,172.971505 L0.00122221886,43.0155589 C0.00122221886,26.3543861 12.7344041,12.6672073 29.0003784,11.1544121 Z" id="形状结合" fill-opacity="0.18" fill="url(#linearGradient-21)"></path>
        </g>
        <g id="Guide-256" transform="translate(8, 8)"></g>
    </g>
</svg>