<svg xmlns="http://www.w3.org/2000/svg" xmlns:xlink="http://www.w3.org/1999/xlink" width="256" height="256" viewBox="0 0 256 256">
  <defs>
    <filter id="deepin-boot-maker-a" width="137.5%" height="123.1%" x="-18.8%" y="-11.5%" filterUnits="objectBoundingBox">
      <feOffset dy="4" in="SourceAlpha" result="shadowOffsetOuter1"/>
      <feGaussianBlur in="shadowOffsetOuter1" result="shadowBlurOuter1" stdDeviation="5"/>
      <feComposite in="shadowBlurOuter1" in2="SourceAlpha" operator="out" result="shadowBlurOuter1"/>
      <feColorMatrix in="shadowBlurOuter1" result="shadowMatrixOuter1" values="0 0 0 0 0   0 0 0 0 0   0 0 0 0 0  0 0 0 0.2 0"/>
      <feMerge>
        <feMergeNode in="shadowMatrixOuter1"/>
        <feMergeNode in="SourceGraphic"/>
      </feMerge>
    </filter>
    <linearGradient id="deepin-boot-maker-c" x1="31.976%" x2="72.249%" y1="0%" y2="80.043%">
      <stop offset="0%" stop-color="#9BBE34"/>
      <stop offset="100%" stop-color="#3A7D09"/>
    </linearGradient>
    <path id="deepin-boot-maker-b" d="M126,0 C135.941125,-1.82615513e-15 144,8.0588745 144,18 L144,159 L0,159 L0,56.7842712 C6.45583431e-15,51.4799415 2.10713681,46.3928632 5.85786438,42.6421356 L42.6421356,5.85786438 C46.3928632,2.10713681 51.4799415,8.07981693e-15 56.7842712,0 L126,0 Z M128.5,8 C124.357864,8 121,11.3578644 121,15.5 C121,19.6421356 124.357864,23 128.5,23 C132.642136,23 136,19.6421356 136,15.5 C136,11.3578644 132.642136,8 128.5,8 Z"/>
    <filter id="deepin-boot-maker-d" width="102.1%" height="101.9%" x="-1%" y="-.9%" filterUnits="objectBoundingBox">
      <feGaussianBlur in="SourceAlpha" result="shadowBlurInner1" stdDeviation=".5"/>
      <feOffset dy="2" in="shadowBlurInner1" result="shadowOffsetInner1"/>
      <feComposite in="shadowOffsetInner1" in2="SourceAlpha" k2="-1" k3="1" operator="arithmetic" result="shadowInnerInner1"/>
      <feColorMatrix in="shadowInnerInner1" result="shadowMatrixInner1" values="0 0 0 0 1   0 0 0 0 1   0 0 0 0 1  0 0 0 0.3 0"/>
      <feGaussianBlur in="SourceAlpha" result="shadowBlurInner2" stdDeviation="1"/>
      <feOffset dx="-1" dy="-1" in="shadowBlurInner2" result="shadowOffsetInner2"/>
      <feComposite in="shadowOffsetInner2" in2="SourceAlpha" k2="-1" k3="1" operator="arithmetic" result="shadowInnerInner2"/>
      <feColorMatrix in="shadowInnerInner2" result="shadowMatrixInner2" values="0 0 0 0 0.0184287527   0 0 0 0 0.105044158   0 0 0 0 0.00466373642  0 0 0 0.35385708 0"/>
      <feMerge>
        <feMergeNode in="shadowMatrixInner1"/>
        <feMergeNode in="shadowMatrixInner2"/>
      </feMerge>
    </filter>
    <linearGradient id="deepin-boot-maker-e" x1="82.09%" x2="16.982%" y1="23.327%" y2="86.409%">
      <stop offset="0%" stop-color="#FFF" stop-opacity=".647"/>
      <stop offset="100%" stop-color="#FFF"/>
    </linearGradient>
    <linearGradient id="deepin-boot-maker-g" x1="50%" x2="50%" y1="0%" y2="96.171%">
      <stop offset="0%" stop-color="#343434"/>
      <stop offset="100%" stop-color="#181818"/>
    </linearGradient>
    <path id="deepin-boot-maker-h" d="M0,159 L144,159 L144,216 C144,225.941125 135.941125,234 126,234 L18,234 C8.0588745,234 1.21743675e-15,225.941125 0,216 L0,159 L0,159 Z"/>
    <filter id="deepin-boot-maker-i" width="102.8%" height="105.3%" x="-1.4%" y="-2.7%" filterUnits="objectBoundingBox">
      <feGaussianBlur in="SourceAlpha" result="shadowBlurInner1" stdDeviation="1"/>
      <feOffset dx="-2" dy="-2" in="shadowBlurInner1" result="shadowOffsetInner1"/>
      <feComposite in="shadowOffsetInner1" in2="SourceAlpha" k2="-1" k3="1" operator="arithmetic" result="shadowInnerInner1"/>
      <feColorMatrix in="shadowInnerInner1" values="0 0 0 0 0   0 0 0 0 0   0 0 0 0 0  0 0 0 0.2 0"/>
    </filter>
    <linearGradient id="deepin-boot-maker-j" x1="0%" x2="100%" y1="41.51%" y2="58.478%">
      <stop offset="0%" stop-color="#F1E274"/>
      <stop offset="18.149%" stop-color="#CEB214"/>
      <stop offset="37.816%" stop-color="#F2CC00"/>
      <stop offset="56.473%" stop-color="#E7BF00"/>
      <stop offset="67.568%" stop-color="#F9D53B"/>
      <stop offset="83.443%" stop-color="#E8B800"/>
      <stop offset="100%" stop-color="#FFCF00"/>
    </linearGradient>
    <path id="deepin-boot-maker-k" d="M34,171 C36.209139,171 38,172.790861 38,175 L38,211 C38,213.209139 36.209139,215 34,215 L28,215 C25.790861,215 24,213.209139 24,211 L24,175 C24,172.790861 25.790861,171 28,171 L34,171 Z M118,171 C120.209139,171 122,172.790861 122,175 L122,211 C122,213.209139 120.209139,215 118,215 L112,215 C109.790861,215 108,213.209139 108,211 L108,175 C108,172.790861 109.790861,171 112,171 L118,171 Z M90,171 C92.209139,171 94,172.790861 94,175 L94,199 C94,201.209139 92.209139,203 90,203 L84,203 C81.790861,203 80,201.209139 80,199 L80,175 C80,172.790861 81.790861,171 84,171 L90,171 Z M62,171 C64.209139,171 66,172.790861 66,175 L66,199 C66,201.209139 64.209139,203 62,203 L56,203 C53.790861,203 52,201.209139 52,199 L52,175 C52,172.790861 53.790861,171 56,171 L62,171 Z"/>
    <filter id="deepin-boot-maker-l" width="102%" height="104.5%" x="-1%" y="-2.3%" filterUnits="objectBoundingBox">
      <feOffset dy="2" in="SourceAlpha" result="shadowOffsetInner1"/>
      <feComposite in="shadowOffsetInner1" in2="SourceAlpha" k2="-1" k3="1" operator="arithmetic" result="shadowInnerInner1"/>
      <feColorMatrix in="shadowInnerInner1" values="0 0 0 0 0.926828578   0 0 0 0 0.558558022   0 0 0 0 0  0 0 0 0.5 0"/>
    </filter>
  </defs>
  <g fill="none" fill-rule="evenodd" filter="url(#deepin-boot-maker-a)" transform="translate(56 11)">
    <mask id="deepin-boot-maker-f" fill="#fff">
      <use xlink:href="#deepin-boot-maker-b"/>
    </mask>
    <use fill="url(#deepin-boot-maker-c)" xlink:href="#deepin-boot-maker-b"/>
    <use fill="#000" filter="url(#deepin-boot-maker-d)" xlink:href="#deepin-boot-maker-b"/>
    <path fill="url(#deepin-boot-maker-e)" fill-opacity=".67" fill-rule="nonzero" d="M-29.0866187,85.6453901 C-25.2575141,88.8084929 -20.8398351,92.7314099 -16.5646093,97.1493913 C-16.5646093,97.1493913 2.64815382,114.001821 18.0466009,118.66118 C18.0466009,118.66118 29.1260958,122.553541 42.568428,123.992242 C42.568428,123.992242 45.0062996,124.727465 47.9003469,121.572245 C50.7946514,118.435677 60.3275069,111.82844 70.3960044,112.284267 C70.3960044,112.284267 76.2602399,113.979486 77.1575284,109.165495 C77.1575284,109.165495 78.3182652,102.716498 70.6540327,103.264031 C70.6540327,103.264031 51.3997552,104.149743 35.1315288,119.833228 C35.1315288,119.833228 29.5637063,119.571499 24.0526137,115.757387 C24.0526137,115.757387 46.7079488,90.5385691 70.2737034,89.6519374 C70.2737034,89.6519374 93.5480351,87.9194277 79.1831609,109.987169 C79.1831609,109.987169 66.4485316,131.930285 23.5909022,131.20018 C23.5909022,131.20018 -3.54629547,132.043959 -20.0074361,131.019145 C-14.8364176,142.391675 -9.69898107,153.280151 1.32848859,163.548308 C3.99302998,166.091312 6.65151541,168.873159 10.8040369,169.772223 C35.8444474,164.903789 64.1744364,146.454331 77.8525294,131.400131 C77.8525294,131.400131 99.9506175,109.955726 92.2342762,87.3252628 C92.2342762,87.3252628 84.2597482,68.0648626 56.2198782,78.3531181 C56.2198782,78.3531181 39.243766,83.0466209 18.0518173,110.243332 C18.0518173,110.243332 15.967003,107.382999 16.0634925,106.715502 C16.1569173,106.05118 28.8583594,82.376707 47.6721556,70.2807983 C47.6721556,70.2807983 68.8409057,55.1592259 89.6178478,67.0933947 C110.388489,79.0214773 113.577535,101.781805 113.155992,119.913569 C112.841253,133.466161 104.02963,162.25281 86.4969745,190.009648 C108.199851,187.090961 129.071311,177.138688 145.419687,160.205542 C156.474782,148.755015 164.268007,135.348532 168.822971,121.127664 C156.236806,99.7441223 124.046241,52.8364696 80.6085645,46.2813912 C51.0754888,41.8273992 34.072309,63.9539957 34.072309,63.9539957 C19.7126401,79.4074682 14.6786811,103.672459 14.6786811,103.672459 C9.04432128,35.4296548 65.7732358,20.4553984 65.7732358,20.4553984 C95.9222397,9.937654 129.916105,17.6491392 153.865339,29.9075067 C150.485464,25.3123186 146.673777,20.93741 142.431454,16.8396937 C102.019873,-22.1943926 37.8403895,-21.2890627 -0.918163589,18.8558559 L-7.43311176,12.5629804 C34.7859463,-31.166223 104.685545,-32.1522421 148.692515,10.354679 C192.699486,52.8616001 194.153693,122.769215 151.934635,166.498418 C109.715014,210.228205 39.8122196,211.216359 -4.19416371,168.710005 C-48.200547,126.203651 -49.6527329,56.292767 -7.43311176,12.5629804 L-0.918163589,18.8558559 C-18.9751349,37.5587121 -28.3304097,61.4801963 -29.0866187,85.6453901 Z" mask="url(#deepin-boot-maker-f)" transform="rotate(135 72.25 89.532)"/>
    <use fill="url(#deepin-boot-maker-g)" xlink:href="#deepin-boot-maker-h"/>
    <use fill="#000" filter="url(#deepin-boot-maker-i)" xlink:href="#deepin-boot-maker-h"/>
    <use fill="url(#deepin-boot-maker-j)" xlink:href="#deepin-boot-maker-k"/>
    <use fill="#000" filter="url(#deepin-boot-maker-l)" xlink:href="#deepin-boot-maker-k"/>
  </g>
</svg>
