<?xml version="1.0" encoding="UTF-8"?>
<svg width="256px" height="256px" viewBox="0 0 256 256" version="1.1" xmlns="http://www.w3.org/2000/svg" xmlns:xlink="http://www.w3.org/1999/xlink">
    <title>apps/256/deepin-wine-diag</title>
    <defs>
        <filter x="-8.9%" y="-6.1%" width="117.2%" height="116.0%" filterUnits="objectBoundingBox" id="filter-1">
            <feOffset dx="0" dy="4" in="SourceAlpha" result="shadowOffsetOuter1"></feOffset>
            <feGaussianBlur stdDeviation="5" in="shadowOffsetOuter1" result="shadowBlurOuter1"></feGaussianBlur>
            <feColorMatrix values="0 0 0 0 0   0 0 0 0 0   0 0 0 0 0  0 0 0 0.2 0" type="matrix" in="shadowBlurOuter1" result="shadowMatrixOuter1"></feColorMatrix>
            <feMerge>
                <feMergeNode in="shadowMatrixOuter1"></feMergeNode>
                <feMergeNode in="SourceGraphic"></feMergeNode>
            </feMerge>
        </filter>
        <linearGradient x1="50%" y1="0%" x2="50%" y2="100%" id="linearGradient-2">
            <stop stop-color="#00BFFB" offset="0%"></stop>
            <stop stop-color="#0044E5" offset="100%"></stop>
        </linearGradient>
        <linearGradient x1="50%" y1="0%" x2="50%" y2="104.624603%" id="linearGradient-3">
            <stop stop-color="#FFFFFF" offset="0%"></stop>
            <stop stop-color="#97D0EE" offset="100%"></stop>
        </linearGradient>
        <linearGradient x1="0.636976046%" y1="-15.7447646%" x2="81.2256952%" y2="89.9630239%" id="linearGradient-4">
            <stop stop-color="#F7FEFF" stop-opacity="0.839324738" offset="0%"></stop>
            <stop stop-color="#FFFFFF" stop-opacity="0" offset="100%"></stop>
        </linearGradient>
        <filter x="-25.3%" y="-8.9%" width="153.2%" height="123.0%" filterUnits="objectBoundingBox" id="filter-5">
            <feOffset dx="0" dy="4" in="SourceAlpha" result="shadowOffsetOuter1"></feOffset>
            <feGaussianBlur stdDeviation="5" in="shadowOffsetOuter1" result="shadowBlurOuter1"></feGaussianBlur>
            <feColorMatrix values="0 0 0 0 0   0 0 0 0 0   0 0 0 0 0  0 0 0 0.2 0" type="matrix" in="shadowBlurOuter1" result="shadowMatrixOuter1"></feColorMatrix>
            <feMerge>
                <feMergeNode in="shadowMatrixOuter1"></feMergeNode>
                <feMergeNode in="SourceGraphic"></feMergeNode>
            </feMerge>
        </filter>
        <linearGradient x1="50%" y1="1.79026897%" x2="50.3530198%" y2="100%" id="linearGradient-6">
            <stop stop-color="#FFFFFF" offset="0%"></stop>
            <stop stop-color="#9CD8F8" offset="100%"></stop>
        </linearGradient>
        <linearGradient x1="50%" y1="0%" x2="50%" y2="101.579708%" id="linearGradient-7">
            <stop stop-color="#003958" stop-opacity="0.298257894" offset="0%"></stop>
            <stop stop-color="#005294" stop-opacity="0.101299579" offset="100%"></stop>
        </linearGradient>
        <linearGradient x1="50%" y1="0%" x2="50%" y2="100%" id="linearGradient-8">
            <stop stop-color="#E44D4D" offset="0%"></stop>
            <stop stop-color="#BA2F6C" offset="100%"></stop>
        </linearGradient>
    </defs>
    <g id="apps/256/deepin-wine-diag" stroke="none" stroke-width="1" fill="none" fill-rule="evenodd">
        <g id="apps/256/编组-3" transform="translate(9.1135, 8.8326)">
            <g id="编组-2" filter="url(#filter-1)" transform="translate(112.848, 119.1674) rotate(-8) translate(-112.848, -119.1674)translate(13.848, 12.7424)">
                <rect id="矩形" fill="url(#linearGradient-2)" x="0" y="-1.13686838e-13" width="198" height="212.85" rx="30.69"></rect>
                <path d="M167.31,-1.13686838e-13 C184.259619,-1.13686838e-13 198,13.740381 198,30.69 L198,182.16 C198,199.109619 184.259619,212.85 167.31,212.85 L30.69,212.85 C13.740381,212.85 0,199.109619 0,182.16 L0,30.69 C0,13.740381 13.740381,-1.13686838e-13 30.69,-1.13686838e-13 L167.31,-1.13686838e-13 Z M167.31,7.92 L30.69,7.92 C18.1144762,7.92 7.92,18.1144762 7.92,30.69 L7.92,182.16 C7.92,194.735524 18.1144762,204.93 30.69,204.93 L167.31,204.93 C179.885524,204.93 190.08,194.735524 190.08,182.16 L190.08,30.69 C190.08,18.1144762 179.885524,7.92 167.31,7.92 Z" id="矩形" fill="url(#linearGradient-3)" fill-rule="nonzero"></path>
                <path d="M41.0925746,31.6340028 L42.5775746,31.6340028 C45.3113841,31.6340028 47.5275746,33.8501933 47.5275746,36.5840028 L47.5275746,56.8790028 C47.5275746,59.6128123 45.3113841,61.8290028 42.5775746,61.8290028 L41.0925746,61.8290028 C38.3587651,61.8290028 36.1425746,59.6128123 36.1425746,56.8790028 L36.1425746,36.5840028 C36.1425746,33.8501933 38.3587651,31.6340028 41.0925746,31.6340028 Z M41.0925746,149.444003 L42.5775746,149.444003 C45.3113841,149.444003 47.5275746,151.660193 47.5275746,154.394003 L47.5275746,174.689003 C47.5275746,177.422812 45.3113841,179.639003 42.5775746,179.639003 L41.0925746,179.639003 C38.3587651,179.639003 36.1425746,177.422812 36.1425746,174.689003 L36.1425746,154.394003 C36.1425746,151.660193 38.3587651,149.444003 41.0925746,149.444003 Z M41.0925746,70.7390028 L42.5775746,70.7390028 C45.3113841,70.7390028 47.5275746,72.9551933 47.5275746,75.6890028 L47.5275746,95.9840028 C47.5275746,98.7178123 45.3113841,100.934003 42.5775746,100.934003 L41.0925746,100.934003 C38.3587651,100.934003 36.1425746,98.7178123 36.1425746,95.9840028 L36.1425746,75.6890028 C36.1425746,72.9551933 38.3587651,70.7390028 41.0925746,70.7390028 Z M62.3775746,70.7390028 L63.8625746,70.7390028 C66.5963841,70.7390028 68.8125746,72.9551933 68.8125746,75.6890028 L68.8125746,95.9840028 C68.8125746,98.7178123 66.5963841,100.934003 63.8625746,100.934003 L62.3775746,100.934003 C59.6437651,100.934003 57.4275746,98.7178123 57.4275746,95.9840028 L57.4275746,75.6890028 C57.4275746,72.9551933 59.6437651,70.7390028 62.3775746,70.7390028 Z M95.0475746,31.6340028 L96.5325746,31.6340028 C99.2663841,31.6340028 101.482575,33.8501933 101.482575,36.5840028 L101.482575,56.8790028 C101.482575,59.6128123 99.2663841,61.8290028 96.5325746,61.8290028 L95.0475746,61.8290028 C92.3137651,61.8290028 90.0975746,59.6128123 90.0975746,56.8790028 L90.0975746,36.5840028 C90.0975746,33.8501933 92.3137651,31.6340028 95.0475746,31.6340028 Z M95.0475746,149.444003 L96.5325746,149.444003 C99.2663841,149.444003 101.482575,151.660193 101.482575,154.394003 L101.482575,174.689003 C101.482575,177.422812 99.2663841,179.639003 96.5325746,179.639003 L95.0475746,179.639003 C92.3137651,179.639003 90.0975746,177.422812 90.0975746,174.689003 L90.0975746,154.394003 C90.0975746,151.660193 92.3137651,149.444003 95.0475746,149.444003 Z M148.012575,31.6340028 L149.497575,31.6340028 C152.231384,31.6340028 154.447575,33.8501933 154.447575,36.5840028 L154.447575,56.8790028 C154.447575,59.6128123 152.231384,61.8290028 149.497575,61.8290028 L148.012575,61.8290028 C145.278765,61.8290028 143.062575,59.6128123 143.062575,56.8790028 L143.062575,36.5840028 C143.062575,33.8501933 145.278765,31.6340028 148.012575,31.6340028 Z M148.012575,149.444003 L149.497575,149.444003 C152.231384,149.444003 154.447575,151.660193 154.447575,154.394003 L154.447575,174.689003 C154.447575,177.422812 152.231384,179.639003 149.497575,179.639003 L148.012575,179.639003 C145.278765,179.639003 143.062575,177.422812 143.062575,174.689003 L143.062575,154.394003 C143.062575,151.660193 145.278765,149.444003 148.012575,149.444003 Z M115.837575,70.7390028 L117.322575,70.7390028 C120.056384,70.7390028 122.272575,72.9551933 122.272575,75.6890028 L122.272575,95.9840028 C122.272575,98.7178123 120.056384,100.934003 117.322575,100.934003 L115.837575,100.934003 C113.103765,100.934003 110.887575,98.7178123 110.887575,95.9840028 L110.887575,75.6890028 C110.887575,72.9551933 113.103765,70.7390028 115.837575,70.7390028 Z M73.7625746,108.854003 L75.2475746,108.854003 C77.9813841,108.854003 80.1975746,111.070193 80.1975746,113.804003 L80.1975746,134.099003 C80.1975746,136.832812 77.9813841,139.049003 75.2475746,139.049003 L73.7625746,139.049003 C71.0287651,139.049003 68.8125746,136.832812 68.8125746,134.099003 L68.8125746,113.804003 C68.8125746,111.070193 71.0287651,108.854003 73.7625746,108.854003 Z M159.397575,108.854003 L160.882575,108.854003 C163.616384,108.854003 165.832575,111.070193 165.832575,113.804003 L165.832575,134.099003 C165.832575,136.832812 163.616384,139.049003 160.882575,139.049003 L159.397575,139.049003 C156.663765,139.049003 154.447575,136.832812 154.447575,134.099003 L154.447575,113.804003 C154.447575,111.070193 156.663765,108.854003 159.397575,108.854003 Z M68.3175746,31.6340028 C74.6053365,31.6340028 79.7025746,36.7312409 79.7025746,43.0190028 L79.7025746,50.4440028 C79.7025746,56.7317647 74.6053365,61.8290028 68.3175746,61.8290028 C62.0298127,61.8290028 56.9325746,56.7317647 56.9325746,50.4440028 L56.9325746,43.0190028 C56.9325746,36.7312409 62.0298127,31.6340028 68.3175746,31.6340028 Z M68.5173114,41.9638712 C66.5317024,41.9638712 64.9220483,43.5735254 64.9220483,45.5591344 L64.9220483,47.9038712 C64.9220483,49.8894802 66.5317024,51.4991344 68.5173114,51.4991344 C70.5029205,51.4991344 72.1125746,49.8894802 72.1125746,47.9038712 L72.1125746,45.5591344 C72.1125746,43.5735254 70.5029205,41.9638712 68.5173114,41.9638712 Z M68.3175746,149.444003 C74.6053365,149.444003 79.7025746,154.541241 79.7025746,160.829003 L79.7025746,168.254003 C79.7025746,174.541765 74.6053365,179.639003 68.3175746,179.639003 C62.0298127,179.639003 56.9325746,174.541765 56.9325746,168.254003 L56.9325746,160.829003 C56.9325746,154.541241 62.0298127,149.444003 68.3175746,149.444003 Z M68.5173114,159.773871 C66.5317024,159.773871 64.9220483,161.383525 64.9220483,163.369134 L64.9220483,165.713871 C64.9220483,167.69948 66.5317024,169.309134 68.5173114,169.309134 C70.5029205,169.309134 72.1125746,167.69948 72.1125746,165.713871 L72.1125746,163.369134 C72.1125746,161.383525 70.5029205,159.773871 68.5173114,159.773871 Z M122.272575,31.6340028 C128.560336,31.6340028 133.657575,36.7312409 133.657575,43.0190028 L133.657575,50.4440028 C133.657575,56.7317647 128.560336,61.8290028 122.272575,61.8290028 C115.984813,61.8290028 110.887575,56.7317647 110.887575,50.4440028 L110.887575,43.0190028 C110.887575,36.7312409 115.984813,31.6340028 122.272575,31.6340028 Z M122.472311,41.9638712 C120.486702,41.9638712 118.877048,43.5735254 118.877048,45.5591344 L118.877048,47.9038712 C118.877048,49.8894802 120.486702,51.4991344 122.472311,51.4991344 C124.45792,51.4991344 126.067575,49.8894802 126.067575,47.9038712 L126.067575,45.5591344 C126.067575,43.5735254 124.45792,41.9638712 122.472311,41.9638712 Z M122.272575,149.444003 C128.560336,149.444003 133.657575,154.541241 133.657575,160.829003 L133.657575,168.254003 C133.657575,174.541765 128.560336,179.639003 122.272575,179.639003 C115.984813,179.639003 110.887575,174.541765 110.887575,168.254003 L110.887575,160.829003 C110.887575,154.541241 115.984813,149.444003 122.272575,149.444003 Z M122.472311,159.773871 C120.486702,159.773871 118.877048,161.383525 118.877048,163.369134 L118.877048,165.713871 C118.877048,167.69948 120.486702,169.309134 122.472311,169.309134 C124.45792,169.309134 126.067575,167.69948 126.067575,165.713871 L126.067575,163.369134 C126.067575,161.383525 124.45792,159.773871 122.472311,159.773871 Z M143.062575,70.7390028 C149.350336,70.7390028 154.447575,75.8362409 154.447575,82.1240028 L154.447575,89.5490028 C154.447575,95.8367647 149.350336,100.934003 143.062575,100.934003 C136.774813,100.934003 131.677575,95.8367647 131.677575,89.5490028 L131.677575,82.1240028 C131.677575,75.8362409 136.774813,70.7390028 143.062575,70.7390028 Z M143.262311,81.0688712 C141.276702,81.0688712 139.667048,82.6785254 139.667048,84.6641344 L139.667048,87.0088712 C139.667048,88.9944802 141.276702,90.6041344 143.262311,90.6041344 C145.24792,90.6041344 146.857575,88.9944802 146.857575,87.0088712 L146.857575,84.6641344 C146.857575,82.6785254 145.24792,81.0688712 143.262311,81.0688712 Z M100.987575,108.854003 C107.275336,108.854003 112.372575,113.951241 112.372575,120.239003 L112.372575,127.664003 C112.372575,133.951765 107.275336,139.049003 100.987575,139.049003 C94.6998127,139.049003 89.6025746,133.951765 89.6025746,127.664003 L89.6025746,120.239003 C89.6025746,113.951241 94.6998127,108.854003 100.987575,108.854003 Z M101.187311,119.183871 C99.2017024,119.183871 97.5920483,120.793525 97.5920483,122.779134 L97.5920483,125.123871 C97.5920483,127.10948 99.2017024,128.719134 101.187311,128.719134 C103.17292,128.719134 104.782575,127.10948 104.782575,125.123871 L104.782575,122.779134 C104.782575,120.793525 103.17292,119.183871 101.187311,119.183871 Z M47.5275746,110.339003 C53.8153365,110.339003 58.9125746,115.436241 58.9125746,121.724003 L58.9125746,129.149003 C58.9125746,135.436765 53.8153365,140.534003 47.5275746,140.534003 C41.2398127,140.534003 36.1425746,135.436765 36.1425746,129.149003 L36.1425746,121.724003 C36.1425746,115.436241 41.2398127,110.339003 47.5275746,110.339003 Z M47.7273114,120.668871 C45.7417024,120.668871 44.1320483,122.278525 44.1320483,124.264134 L44.1320483,126.608871 C44.1320483,128.59448 45.7417024,130.204134 47.7273114,130.204134 C49.7129205,130.204134 51.3225746,128.59448 51.3225746,126.608871 L51.3225746,124.264134 C51.3225746,122.278525 49.7129205,120.668871 47.7273114,120.668871 Z M133.657575,110.339003 C139.945336,110.339003 145.042575,115.436241 145.042575,121.724003 L145.042575,129.149003 C145.042575,135.436765 139.945336,140.534003 133.657575,140.534003 C127.369813,140.534003 122.272575,135.436765 122.272575,129.149003 L122.272575,121.724003 C122.272575,115.436241 127.369813,110.339003 133.657575,110.339003 Z M133.857311,120.668871 C131.871702,120.668871 130.262048,122.278525 130.262048,124.264134 L130.262048,126.608871 C130.262048,128.59448 131.871702,130.204134 133.857311,130.204134 C135.84292,130.204134 137.452575,128.59448 137.452575,126.608871 L137.452575,124.264134 C137.452575,122.278525 135.84292,120.668871 133.857311,120.668871 Z M89.6025746,71.2340028 C95.8903365,71.2340028 100.987575,76.3312409 100.987575,82.6190028 L100.987575,90.0440028 C100.987575,96.3317647 95.8903365,101.429003 89.6025746,101.429003 C83.3148127,101.429003 78.2175746,96.3317647 78.2175746,90.0440028 L78.2175746,82.6190028 C78.2175746,76.3312409 83.3148127,71.2340028 89.6025746,71.2340028 Z M89.8023114,81.5638712 C87.8167024,81.5638712 86.2070483,83.1735254 86.2070483,85.1591344 L86.2070483,87.5038712 C86.2070483,89.4894802 87.8167024,91.0991344 89.8023114,91.0991344 C91.7879205,91.0991344 93.3975746,89.4894802 93.3975746,87.5038712 L93.3975746,85.1591344 C93.3975746,83.1735254 91.7879205,81.5638712 89.8023114,81.5638712 Z" id="形状结合" fill="url(#linearGradient-4)" opacity="0.759483701" transform="translate(100.9876, 105.6365) rotate(-0.5) translate(-100.9876, -105.6365)"></path>
            </g>
            <g id="编组" filter="url(#filter-5)" transform="translate(191.3013, 155.3023) rotate(12) translate(-191.3013, -155.3023)translate(159.3593, 81.5483)">
                <path d="M4.81401493,8.40185837 C7.46853724,4.18032807 18.8614345,3.08863893 29.4790612,2.99044645 C39.7303097,2.89564227 51.8782351,2.8736505 53.1325251,7.98293632 C54.428777,13.2631515 57.0320344,47.6525426 53.6604807,66.4841603 C50.2889271,85.315778 39.4136375,91.0087472 36.4494765,101.488474 C33.4853154,111.968201 34.9974807,122.706163 40.8569274,129.360231 C46.716374,136.0143 62.1617635,134.854701 60.8216258,139.287708 C59.9282006,142.243047 50.2258173,143.993204 31.7144757,144.538181 C14.690384,144.336765 5.53649044,142.979527 4.25279508,140.466468 C3.55240722,139.095335 3.81461292,137.413259 7.7544903,136.0143 C13.8607499,133.846108 21.0611178,132.820027 24.1191373,129.360231 C27.3852411,125.665012 30.9736222,114.07083 26.5389916,101.488474 C22.1043611,88.906118 12.5063433,85.3505306 7.22931151,66.4841603 C1.95227968,47.6177901 2.15949262,12.6233887 4.81401493,8.40185837 Z" id="路径-2" fill="url(#linearGradient-6)"></path>
                <path d="M45.0880761,0.593374123 C51.1898463,1.44051547 55.0429584,3.30762321 56.0168816,7.27484917 C56.7472737,10.2500635 57.599449,19.5355441 58.0160447,29.4359841 L58.058264,30.480161 L58.0971213,31.5274043 L58.1152441,32.0517146 C58.580758,45.8616596 58.1423722,58.3033509 56.5839949,67.0075771 C55.0832296,75.3900149 52.2794816,81.5827701 47.6334347,88.387421 C47.3050448,88.8683843 46.3888318,90.1586947 45.4208772,91.5252385 L44.7967679,92.4070189 C43.9002196,93.6750314 43.0581076,94.8733207 42.6996487,95.4149152 C40.9838663,98.0072858 39.9291186,100.098593 39.307357,102.296817 C36.5558546,112.024694 38.0330294,121.659322 43.0859041,127.397436 C44.504705,129.008646 46.9457224,130.234996 50.6168954,131.313474 C51.4762028,131.565912 52.3666386,131.802613 53.5409213,132.096774 C53.7577615,132.151094 53.9794943,132.206225 54.2683977,132.277752 C54.6299413,132.367185 54.8312391,132.416978 54.9886293,132.456011 C55.5745832,132.601326 55.9930178,132.706781 56.3974624,132.811958 C58.6578743,133.399786 60.0690284,133.881286 61.2260565,134.568924 C63.2884173,135.794614 64.3797093,137.781517 63.6645568,140.147152 C62.1554549,145.139072 52.3888685,146.900811 31.8018751,147.507974 L31.6793392,147.507974 C12.8821211,147.285578 3.70605156,145.925052 1.60788126,141.817516 C-0.210323085,138.258061 1.80376041,134.975595 6.76070095,133.215499 C7.95664395,132.790848 9.20243678,132.400188 10.8462195,131.920916 C11.1627867,131.828616 11.4875425,131.734848 11.9066266,131.614518 C11.9814762,131.593027 12.7306391,131.378215 12.9488502,131.315462 C18.3311416,129.767625 20.6619051,128.787058 21.8937978,127.393314 C25.5143558,123.297071 27.1921213,112.276432 23.7378773,102.475722 C22.4334516,98.7746811 20.7425726,95.9475375 17.5858375,91.7593228 C17.3224082,91.4098165 17.050031,91.0514367 16.6826811,90.5702724 C16.6395862,90.5139086 16.4728624,90.2956875 16.2877892,90.0533651 L16.1316527,89.8489106 C15.9759462,89.6449968 15.8285458,89.4518846 15.7525982,89.3521893 C14.9803646,88.3384908 14.4034632,87.5685354 13.8332431,86.7841438 C9.45188208,80.7571683 6.56462667,75.1336328 4.36908994,67.2841807 C-0.547970453,49.7047752 -1.42479783,12.7441276 2.2997698,6.8208867 C5.43166267,1.84018619 14.7679784,0.156368459 29.4515956,0.0205734515 C37.1972819,-0.0510591381 41.152404,0.0469637446 45.0880761,0.593374123 Z M33.9512869,2.96870294 L32.823693,2.96870294 C32.1980471,2.96870294 31.5742658,2.97339696 30.9550467,2.97794453 L30.2143462,2.98386683 C29.9682911,2.98597324 29.7231385,2.98818921 29.4790612,2.99044645 C18.8614345,3.08863893 7.46853724,4.18032807 4.81401493,8.40185837 C2.15949262,12.6233887 1.95227968,47.6177901 7.22931151,66.4841603 C10.0562929,76.5911444 14.1233531,82.30409 17.9723216,87.3647627 L18.484097,88.0359822 C21.6304967,92.1553847 24.5856425,95.9462458 26.5389916,101.488474 C30.9736222,114.07083 27.3852411,125.665012 24.1191373,129.360231 C21.9145186,131.854502 17.5569541,133.083874 13.0085261,134.388195 L12.1263288,134.64194 C10.653784,135.067607 9.17455068,135.510069 7.7544903,136.0143 C3.81461292,137.413259 3.55240722,139.095335 4.25279508,140.466468 C5.53649044,142.979527 14.690384,144.336765 31.7144757,144.538181 C50.2258173,143.993204 59.9282006,142.243047 60.8216258,139.287708 C62.1617635,134.854701 46.716374,136.0143 40.8569274,129.360231 C34.9974807,122.706163 33.4853154,111.968201 36.4494765,101.488474 C39.4136375,91.0087472 50.2889271,85.315778 53.6604807,66.4841603 C57.0320344,47.6525426 54.428777,13.2631515 53.1325251,7.98293632 C52.1619435,4.02932229 44.6684582,3.14822071 36.5783652,2.99582927 L35.8300655,2.9837638 C35.455241,2.97869765 35.0795341,2.97503015 34.7035274,2.97253088 L33.9512869,2.96870294 Z" id="路径-2" fill="url(#linearGradient-7)" fill-rule="nonzero"></path>
                <path d="M9.13356562,42.7308256 C9.79065184,41.9845982 12.0376231,43.3520894 15.4220775,44.7353417 C17.8511137,45.7281073 20.9655522,45.2906758 23.3314473,44.4744109 C28.9236373,42.545032 35.9784807,32.0219621 42.0587844,30.7840529 C48.139088,29.5461436 49.2903927,31.1922758 50.036096,32.5690855 C50.7817992,33.9458952 51.064975,59.5839559 48.0299394,69.4721432 C46.584525,74.1813233 44.2384528,80.4824331 38.6683901,86.1687811 C34.8490771,90.0678293 29.5877621,90.35996 25.0282374,86.523977 C21.669942,83.6986028 16.9948558,78.5783699 13.1916172,68.4404358 C10.672529,61.7255404 8.25427005,43.7294076 9.13356562,42.7308256 Z" id="路径-4" fill="url(#linearGradient-8)" fill-rule="nonzero"></path>
            </g>
        </g>
        <g id="Guide/256" transform="translate(8.0533, 8)"></g>
    </g>
</svg>