<?xml version="1.0" encoding="UTF-8"?>
<svg width="256px" height="256px" viewBox="0 0 256 256" version="1.1" xmlns="http://www.w3.org/2000/svg" xmlns:xlink="http://www.w3.org/1999/xlink">
    <title>apps/256/deepin-wine-assist</title>
    <defs>
        <filter x="-8.8%" y="-6.5%" width="117.6%" height="116.8%" filterUnits="objectBoundingBox" id="filter-1">
            <feOffset dx="0" dy="4" in="SourceAlpha" result="shadowOffsetOuter1"></feOffset>
            <feGaussianBlur stdDeviation="5" in="shadowOffsetOuter1" result="shadowBlurOuter1"></feGaussianBlur>
            <feColorMatrix values="0 0 0 0 0   0 0 0 0 0   0 0 0 0 0  0 0 0 0.2 0" type="matrix" in="shadowBlurOuter1" result="shadowMatrixOuter1"></feColorMatrix>
            <feMerge>
                <feMergeNode in="shadowMatrixOuter1"></feMergeNode>
                <feMergeNode in="SourceGraphic"></feMergeNode>
            </feMerge>
        </filter>
        <linearGradient x1="50%" y1="0%" x2="50%" y2="98.1385523%" id="linearGradient-2">
            <stop stop-color="#FFFFFF" offset="0%"></stop>
            <stop stop-color="#EDEDED" offset="100%"></stop>
        </linearGradient>
        <linearGradient x1="34.3158356%" y1="0%" x2="34.3158356%" y2="56.1446629%" id="linearGradient-3">
            <stop stop-color="#00E0DE" offset="0%"></stop>
            <stop stop-color="#00B3EB" offset="100%"></stop>
        </linearGradient>
        <linearGradient x1="50%" y1="0%" x2="50%" y2="98.1385523%" id="linearGradient-4">
            <stop stop-color="#FFFFFF" offset="0%"></stop>
            <stop stop-color="#EDEDED" offset="100%"></stop>
        </linearGradient>
        <path d="M12,85 L226,85 L226,186 C226,201.463973 213.463973,214 198,214 L40,214 C24.536027,214 12,201.463973 12,186 L12,85 L12,85 Z" id="path-5"></path>
        <filter x="-0.9%" y="-1.6%" width="101.9%" height="103.1%" filterUnits="objectBoundingBox" id="filter-6">
            <feOffset dx="0" dy="-4" in="SourceAlpha" result="shadowOffsetInner1"></feOffset>
            <feComposite in="shadowOffsetInner1" in2="SourceAlpha" operator="arithmetic" k2="-1" k3="1" result="shadowInnerInner1"></feComposite>
            <feColorMatrix values="0 0 0 0 0   0 0 0 0 0   0 0 0 0 0  0 0 0 0.101016171 0" type="matrix" in="shadowInnerInner1"></feColorMatrix>
        </filter>
        <rect id="path-7" x="0" y="83" width="238" height="7" rx="3.5"></rect>
        <filter x="-3.2%" y="-150.0%" width="106.3%" height="314.3%" filterUnits="objectBoundingBox" id="filter-8">
            <feOffset dx="0" dy="-3" in="SourceAlpha" result="shadowOffsetOuter1"></feOffset>
            <feGaussianBlur stdDeviation="2" in="shadowOffsetOuter1" result="shadowBlurOuter1"></feGaussianBlur>
            <feColorMatrix values="0 0 0 0 0   0 0 0 0 0   0 0 0 0 0  0 0 0 0.0968913899 0" type="matrix" in="shadowBlurOuter1"></feColorMatrix>
        </filter>
    </defs>
    <g id="apps/256/deepin-wine-assist" stroke="none" stroke-width="1" fill="none" fill-rule="evenodd">
        <g id="apps/256/编组" filter="url(#filter-1)" transform="translate(9, 21)">
            <path d="M50,0 L188,0 C203.463973,-2.84068575e-15 216,12.536027 216,28 L216,85 L216,85 L22,85 L22,28 C22,12.536027 34.536027,-4.2647416e-15 50,-7.10542736e-15 Z" id="矩形" fill="url(#linearGradient-2)"></path>
            <path d="M188,-1 C204.016258,-1 217,11.9837423 217,28 L217,86 L21,86 L21,28 C21,11.9837423 33.9837423,-1 50,-1 L188,-1 Z M188,-9.99200722e-15 L50,-9.99200722e-15 C34.536027,-9.99200722e-15 22,12.536027 22,28 L22,85 L216,85 L216,28 C216,12.536027 203.463973,-9.99200722e-15 188,-9.99200722e-15 Z" id="矩形" fill-opacity="0.04" fill="#000000" fill-rule="nonzero"></path>
            <path d="M119,13 C161.525512,13 196,47.475849 196,90.0015938 C196,132.101519 162.212073,166.30973 120.273339,166.989684 L119,167 L119.382113,166.996835 L118.617387,167 C76.6921291,166.795103 42.688223,133.085671 42.0103158,91.2749071 L42,90.0015938 C42,47.475849 76.4744929,13 119,13 Z M119.496774,20.9483871 L118.422102,20.9565223 C118.303244,20.9583229 118.184458,20.9604217 118.065745,20.962818 C117.812392,20.9679307 117.559003,20.9744097 117.305954,20.9822405 L118.065745,20.962818 C117.6837,20.9705297 117.302412,20.9813223 116.921903,20.995172 L117.305954,20.9822405 C116.966605,20.992742 116.627868,21.0056747 116.289759,21.0210217 L116.921903,20.995172 C116.527163,21.0095396 116.133262,21.0271972 115.740227,21.0481183 L116.289759,21.0210217 C115.925634,21.0375496 115.562239,21.0568778 115.199594,21.0789851 L115.740227,21.0481183 C115.403875,21.0660222 115.068157,21.086316 114.73309,21.1089832 L115.199594,21.0789851 C114.831311,21.1014361 114.463802,21.1267533 114.097089,21.1549148 L114.73309,21.1089832 C114.371902,21.1334174 114.011472,21.1606093 113.651818,21.1905381 L114.097089,21.1549148 C113.738005,21.1824904 113.379685,21.2127932 113.022148,21.2458024 L113.651818,21.1905381 C113.286889,21.2209059 112.92276,21.2540915 112.559453,21.290073 L113.022148,21.2458024 C112.643265,21.2807824 112.265262,21.3188017 111.888164,21.3598357 L112.559453,21.290073 C112.179054,21.3277473 111.799555,21.3684869 111.420982,21.4122666 C111.104675,21.4488436 110.788571,21.4876004 110.473131,21.5284708 L111.420982,21.4122666 C111.037472,21.4566173 110.654912,21.504088 110.273329,21.5546527 L110.473131,21.5284708 C110.119901,21.5742374 109.767503,21.6226544 109.415957,21.6737012 L110.273329,21.5546527 C109.854125,21.6102025 109.4361,21.6694864 109.019289,21.7324699 L109.415957,21.6737012 C109.149113,21.7124488 108.882759,21.7527116 108.616904,21.7944807 C99.2028537,36.4919439 94.3543634,58.4793087 94.764834,72.2324323 L94.7641309,72.2580533 C94.7432672,73.0903652 94.3657087,93.9732013 108.769264,101.477111 C108.769264,101.477111 121.977661,107.308077 130.979004,88.4533433 C130.979004,88.4533433 137.165491,77.8127012 134.647323,53.7645651 C134.647323,53.7645651 137.056535,54.1916689 137.328948,54.575444 C137.601362,54.9561277 142.649834,73.0897313 139.102561,88.3604548 C139.102561,88.3604548 135.836817,106.305286 119.780315,110.409241 C103.729859,114.513244 91.2206311,104.584457 82.7277666,95.2313577 C76.6691092,88.5593764 67.7979718,71.114962 62.9972,49.9364471 C62.1941239,51.0528213 61.4233353,52.1939709 60.6861987,53.358529 C60.6520818,53.4098655 60.6190434,53.4622273 60.5860731,53.5146362 L60.6861987,53.358529 C60.5621266,53.554543 60.439008,53.7512202 60.3168492,53.948554 L60.5860731,53.5146362 C60.3480714,53.8929587 60.1136129,54.2737349 59.8827443,54.6569185 L60.3168492,53.948554 C60.0988034,54.3007826 59.8838157,54.6551032 59.6719232,55.0114789 L59.8827443,54.6569185 C59.7264742,54.9162873 59.5718488,55.1767591 59.4188826,55.4383194 L59.6719232,55.0114789 C59.510804,55.2824607 59.3514743,55.5546306 59.1939504,55.8279724 L59.4188826,55.4383194 C59.2023214,55.8086223 58.9890856,56.181107 58.7792164,56.5557323 L59.1939504,55.8279724 C59.0160771,56.1366252 58.8405064,56.4467723 58.6672616,56.7583902 L58.7792164,56.5557323 C58.6504661,56.7855571 58.5229828,57.0161875 58.3967759,57.2476142 L58.6672616,56.7583902 C58.4629149,57.1259515 58.2618043,57.4955591 58.0639681,57.8671744 C57.9765465,58.0295418 57.890608,58.1925633 57.8052998,58.3559658 L58.0639681,57.8671744 C57.9025299,58.1704199 57.743272,58.4750023 57.5862156,58.7809007 L57.8052998,58.3559658 C57.6664635,58.6218978 57.5292963,58.8888393 57.3938119,59.1567765 L57.5862156,58.7809007 C57.4474229,59.0512267 57.3103493,59.3225805 57.1750093,59.5949475 L56.8020173,60.3572676 C56.7606482,60.4431469 56.7194504,60.5291242 56.6784245,60.6151991 L56.801266,60.3572732 C56.6693422,60.6311886 56.5391607,60.9061011 56.4107356,61.1819963 L56.6784245,60.6151991 C56.5243068,60.9385471 56.3726129,61.2632725 56.2233663,61.5893519 C56.1271508,61.7981945 56.0325449,62.0076782 55.9389496,62.2177113 L56.2233663,61.5893519 C56.068566,61.9275651 55.9163986,62.2672349 55.7668901,62.6083351 L55.9389496,62.2177113 C55.8208191,62.482803 55.7042982,62.7487699 55.5893996,63.0155996 L55.7668901,62.6083351 C55.6178638,62.9483353 55.4714794,63.2897565 55.3277627,63.632573 C55.2432076,63.8331076 55.1598353,64.0346759 55.0773858,64.2367189 L55.3277627,63.632573 C55.2041341,63.9274722 55.0824796,64.2234038 54.9628157,64.5203514 L55.0773858,64.2367189 C54.9539137,64.5392881 54.8325112,64.8429218 54.713196,65.1476022 L54.9628157,64.5203514 C54.825443,64.8612437 54.6906936,65.2034748 54.5585927,65.5470197 C54.465166,65.789022 54.3734648,66.0316026 54.2830853,66.2748258 L54.5585927,65.5470197 C54.417564,65.9137821 54.2795538,66.2820419 54.1445924,66.6517687 L54.2830853,66.2748258 C54.1669058,66.5874801 54.0529105,66.9011962 53.9411177,67.2159555 L54.1445924,66.6517687 C54.038404,66.9426718 53.934103,67.2344831 53.8317042,67.5271877 C53.7164659,67.8558138 53.6040572,68.1851358 53.4940603,68.5155595 L53.1728593,69.5059406 C53.1524619,69.5704382 53.132156,69.6349764 53.1119418,69.6995551 C53.0384765,69.9336149 52.9663038,70.1685984 52.8953461,70.4041085 L53.1119418,69.6995551 C52.999986,70.0572217 52.8908417,70.416131 52.7845345,70.7762571 C52.6926241,71.0876127 52.6028344,71.3998778 52.5151822,71.7130357 C52.4350063,71.9989912 52.356888,72.2852083 52.2805582,72.5721545 L52.5151822,71.7130357 C52.414637,72.0722569 52.3169043,72.432653 52.2220093,72.7941985 L52.2805582,72.5721545 C52.1963463,72.8887321 52.1143115,73.206197 52.0344707,73.5245323 L52.2220093,72.7941985 C52.1214745,73.1772315 52.0241248,73.5615548 51.9299901,73.9471382 C51.872776,74.1811043 51.8167161,74.4160768 51.761852,74.6515085 L51.9299901,73.9471382 C51.8435994,74.3010016 51.7599165,74.6559264 51.6789646,75.0118894 L51.761852,74.6515085 C51.6692051,75.0490728 51.5799681,75.4479467 51.4941734,75.8480978 L51.6789646,75.0118894 C51.6071726,75.3275743 51.5375285,75.6440757 51.4700485,75.9613774 L51.4941734,75.8480978 C51.4167388,76.2092572 51.3421083,76.571457 51.2703059,76.9346732 L51.4700485,75.9613774 C51.3911895,76.3321852 51.3152859,76.7040861 51.2423636,77.0770541 L51.2703059,76.9346732 C51.198761,77.2965867 51.1300239,77.6595093 51.0641183,78.0234174 L51.2423636,77.0770541 C51.172658,77.4335699 51.1056765,77.7910607 51.0414415,78.1495041 L51.0641183,78.0234174 C51.0047124,78.3514365 50.9476071,78.6802563 50.8928195,79.0098595 L51.0414415,78.1495041 C50.9721977,78.535898 50.9061455,78.9233986 50.8433131,79.3119779 L50.8928195,79.0098595 C50.8247259,79.4195124 50.7602126,79.8303755 50.699313,80.2424155 L50.8433131,79.3119779 C50.7849818,79.6727206 50.7294256,80.0343928 50.6766671,80.396972 L50.699313,80.2424155 C50.6494283,80.5799301 50.6019682,80.9182344 50.5569511,81.2573101 L50.6766671,80.396972 C50.626193,80.7438507 50.5782796,81.0915595 50.5329465,81.4400786 L50.5569511,81.2573101 C50.5069503,81.6339238 50.4599632,82.0114891 50.416015,82.389981 L50.5329465,81.4400786 C50.4780198,81.8623533 50.4268812,82.2858176 50.3795657,82.7104362 L50.416015,82.389981 C50.3278034,83.1496789 50.2518343,83.91311 50.1883102,84.6800717 C50.1821513,84.754474 50.1761113,84.8288422 50.1701884,84.9032434 L50.1883102,84.6800717 C50.1620506,84.997119 50.1379176,85.3147697 50.1159256,85.6330095 L50.1701884,84.9032434 C50.1420848,85.2562696 50.1166175,85.6100385 50.0938061,85.9645302 L50.1159256,85.6330095 C50.0876746,86.0418208 50.0629566,86.4516042 50.0418019,86.8623292 L50.0938061,85.9645302 C50.0681321,86.3635088 50.0458224,86.7634032 50.0269052,87.1641852 L50.0418019,86.8623292 C50.0203875,87.2780965 50.0026245,87.6948287 49.9885442,88.1124944 L50.0269052,87.1641852 C50.0107581,87.50628 49.9970826,87.8490214 49.9858963,88.1923921 L49.9885442,88.1124944 C49.9763576,88.4739898 49.9669298,88.8361845 49.9602812,89.1990581 C49.95866,89.2875564 49.9572073,89.3758785 49.9559193,89.4642405 L49.9602812,89.1990581 C49.9523633,89.6312116 49.9483871,90.064328 49.9483871,90.4983728 L49.9546579,91.4419908 C49.9564667,91.5780087 49.958666,91.7139323 49.9612547,91.8497607 C49.9652343,92.0585768 49.9701354,92.267212 49.9759534,92.4756179 L49.9612547,91.8497607 C49.967743,92.1902063 49.9766777,92.5300531 49.988042,92.8692842 L49.9759534,92.4756179 C49.9888964,92.9392449 50.0063768,93.4017372 50.0283519,93.863052 L49.988042,92.8692842 C50.0009286,93.2539606 50.0169393,93.6378452 50.0360494,94.0209137 L50.0283519,93.863052 C50.0446033,94.2042127 50.063313,94.5447294 50.0844636,94.8845848 L50.0360494,94.0209137 C50.0547258,94.3952862 50.0763625,94.7688791 50.1009366,95.1416694 L50.0844636,94.8845848 C50.1072496,95.2507196 50.1328686,95.6160869 50.1612989,95.980665 L50.1009366,95.1416694 C50.1246631,95.5016007 50.1511278,95.8607838 50.1803102,96.2191982 L50.1612989,95.980665 C50.192959,96.3866601 50.2281054,96.7916765 50.2667082,97.1956843 L50.1803102,96.2191982 C50.2160517,96.6581716 50.2558699,97.0959918 50.2997267,97.5326209 L50.2667082,97.1956843 C50.2970637,97.5133775 50.3295565,97.8304471 50.3641721,98.1468784 L50.2997267,97.5326209 C50.3340731,97.874566 50.3708965,98.2157806 50.4101786,98.5562465 L50.3641721,98.1468784 C50.449987,98.931339 50.5488481,99.7118772 50.6605337,100.488272 C50.6749896,100.588767 50.689705,100.689493 50.7046361,100.790149 L50.6605337,100.488272 C50.764533,101.211233 50.8796523,101.930602 51.0057128,102.646198 C51.0356502,102.816145 51.0662507,102.986129 51.0974676,103.155897 L51.0057128,102.646198 C51.0682332,103.001102 51.1334447,103.355078 51.2013257,103.708104 L51.0974676,103.155897 C51.1510332,103.447204 51.206414,103.737876 51.2635978,104.0279 L51.2013257,103.708104 C51.279078,104.112468 51.3603325,104.515586 51.4450564,104.917425 L51.2635978,104.0279 C51.334924,104.389651 51.4090554,104.750394 51.4859683,105.110107 C51.5478122,105.399363 51.6116642,105.688874 51.6773139,105.977701 L51.4859683,105.110107 C51.5701164,105.503658 51.657594,105.895974 51.7483702,106.287026 L51.6773139,105.977701 C51.7390037,106.249107 51.8022809,106.519909 51.8671353,106.790097 L51.7483702,106.287026 C51.8248751,106.616598 51.9037229,106.945272 51.9848951,107.273029 L51.8671353,106.790097 C51.9803936,107.26194 52.0984618,107.731911 52.2212851,108.199957 L51.9848951,107.273029 C52.0772939,107.646116 52.1727045,108.018015 52.2710997,108.388698 L52.2212851,108.199957 C52.3046301,108.517561 52.3901646,108.834278 52.4778716,109.150091 L52.2710997,108.388698 C52.3660162,108.746277 52.46371,109.102724 52.5641566,109.458015 L52.4778716,109.150091 C52.6721407,109.849611 52.8770683,110.544695 53.0924685,111.235158 C53.1404964,111.389114 53.1891635,111.543211 53.2383517,111.697075 L53.0924685,111.235158 C53.1848949,111.53143 53.2792495,111.826851 53.3755177,112.121407 L53.2383517,111.697075 C53.3345988,111.998143 53.4328411,112.298318 53.5330631,112.597586 L53.8019452,113.384697 C53.8424564,113.500991 53.8832677,113.617144 53.9243781,113.733156 L53.8019685,113.384763 C53.9132853,113.704316 54.0268679,114.022807 54.142697,114.340217 L53.9243781,113.733156 C54.0274073,114.023901 54.1323154,114.313756 54.239088,114.602708 L54.142697,114.340217 C54.4091034,115.070259 54.687394,115.794584 54.9773348,116.512957 C54.9913859,116.547771 55.0055626,116.582814 55.0197669,116.617842 L54.9773348,116.512957 C55.0808585,116.769453 55.1858674,117.02519 55.2923509,117.280158 L55.0197669,116.617842 C55.1583886,116.959684 55.2996499,117.300174 55.4435257,117.639286 L55.2923509,117.280158 C55.4622764,117.687034 55.6359569,118.09195 55.8133492,118.494864 L55.4435257,117.639286 C55.5887491,117.981575 55.7366361,118.32246 55.8871608,118.661915 L55.8133492,118.494864 C55.9456005,118.795249 56.0799149,119.09452 56.2162744,119.392661 L55.8871608,118.661915 C56.0413995,119.009746 56.1984075,119.356076 56.358157,119.700877 L56.2162744,119.392661 C56.392401,119.777749 56.5719395,120.160951 56.7548512,120.542227 C72.9592152,125.221875 111.651996,133.540617 136.436382,115.376423 C153.155636,103.1207 151.001404,83.4940361 151.001404,83.4940361 C150.724597,68.5647617 141.635389,53.7354839 141.635389,53.7354839 C176.978355,85.7084401 156.089111,121.229445 156.089111,121.229445 C146.453567,140.909923 126.740033,153.562363 109.368104,159.312494 C109.711137,159.36301 110.055173,159.410582 110.400003,159.455627 C110.477407,159.465747 110.554598,159.475699 110.63183,159.485524 L110.400003,159.455627 C110.758633,159.502475 111.118122,159.546591 111.478449,159.587953 L110.63183,159.485524 C111.053221,159.539131 111.475793,159.588967 111.89951,159.634998 L111.478449,159.587953 C111.808666,159.625859 112.139587,159.661452 112.471194,159.694716 L111.89951,159.634998 C112.26208,159.674387 112.625488,159.710988 112.989713,159.744782 L112.471194,159.694716 C112.855337,159.73325 113.240402,159.768658 113.626363,159.800914 L112.989713,159.744782 C113.349726,159.778185 113.710537,159.808844 114.072123,159.836738 L113.626363,159.800914 C113.957051,159.828551 114.288396,159.853875 114.620383,159.876868 L114.072123,159.836738 C114.432933,159.864573 114.794515,159.889654 115.156848,159.911961 L114.620383,159.876868 C115.025271,159.904911 115.431113,159.929488 115.837879,159.950571 L115.156848,159.911961 C115.49357,159.932692 115.830941,159.951026 116.168944,159.966949 L115.837879,159.950571 C116.242281,159.97153 116.647596,159.989036 117.053795,160.003058 L116.168944,159.966949 C116.529649,159.98394 116.891074,159.998184 117.253198,160.00966 L117.053795,160.003058 C117.421229,160.015742 117.789387,160.025576 118.158248,160.032539 L117.253198,160.00966 C117.631783,160.021657 118.011133,160.030629 118.391223,160.036553 L119.496774,160.045161 C157.907431,160.045161 189.045161,128.908132 189.045161,90.4983728 C189.045161,90.1075649 189.041938,89.7175096 189.035516,89.3282322 C189.035163,89.3068559 189.034802,89.2855271 189.034431,89.2642007 L189.035516,89.3282322 C189.023296,88.5874807 188.999495,87.8495458 188.964286,87.1146006 C188.961404,87.054454 188.958469,86.9947898 188.955459,86.9351454 L188.964286,87.1146006 C188.947257,86.7591361 188.927559,86.404371 188.905212,86.0503249 L188.955459,86.9351454 C188.932824,86.4866321 188.90594,86.0392389 188.874847,85.5930054 L188.905212,86.0503249 C188.857083,85.2878055 188.796666,84.5286212 188.724157,83.7729677 C188.714263,83.6698458 188.704077,83.5661235 188.693663,83.4624684 L188.724157,83.7729677 C188.651283,83.0135084 188.566195,82.2576155 188.469092,81.505488 C188.460624,81.4399048 188.452143,81.3749379 188.443572,81.3099993 L188.469092,81.505488 C188.32272,80.3717396 188.149046,79.2465467 187.948752,78.1305902 C187.93707,78.0655057 187.925377,78.0008839 187.913594,77.9362931 L187.948752,78.1305902 C187.818558,77.4051987 187.677115,76.6837097 187.524612,75.9663102 C187.518747,75.9387219 187.512919,75.9113871 187.507075,75.8840583 L187.524612,75.9663102 C187.141901,74.1659767 186.689532,72.3913979 186.170459,70.6455292 C186.146984,70.5665749 186.123547,70.4882566 186.099975,70.4099965 L186.170459,70.6455292 C186.061964,70.2806114 185.950555,69.916948 185.836258,69.5545658 C185.830638,69.5367473 185.82507,69.5191175 185.819494,69.5014907 L185.528209,68.6020288 C185.498133,68.5112833 185.467876,68.4206206 185.437437,68.3300412 L185.528294,68.6022853 C185.177489,67.5438144 184.801946,66.4966179 184.402348,65.4613812 C184.386744,65.4209572 184.371242,65.3809058 184.355703,65.3408722 L184.402348,65.4613812 C184.280786,65.1464492 184.156997,64.8326239 184.031002,64.5199248 L184.355703,65.3408722 C184.228713,65.0137028 184.099319,64.6877327 183.967542,64.3629837 L184.031002,64.5199248 C183.889085,64.1677118 183.744369,63.8169274 183.59688,63.4675993 L183.967542,64.3629837 C183.82617,64.0145869 183.682056,63.6675954 183.535226,63.3220359 L183.59688,63.4675993 C183.042913,62.1555227 182.449838,60.8639903 181.819116,59.594463 C181.775034,59.5057357 181.730984,59.4175463 181.686753,59.3294638 L181.819116,59.594463 C181.656722,59.2675931 181.491831,58.942182 181.324471,58.6182547 L181.686753,59.3294638 C181.51343,58.9843079 181.337318,58.640794 181.158447,58.2989516 L181.324471,58.6182547 C181.169859,58.3190043 181.013139,58.0210201 180.85433,57.7243219 L181.158447,58.2989516 C181.022249,58.0386601 180.88445,57.7793378 180.745064,57.5209977 L180.85433,57.7243219 C180.668468,57.3770821 180.479745,57.0316037 180.288193,56.6879181 L180.745064,57.5209977 C180.553209,57.1654079 180.358347,56.811679 180.160513,56.459845 L180.288193,56.6879181 C179.946496,56.0748434 179.595794,55.4674736 179.236267,54.8659876 C179.194752,54.7965328 179.152951,54.7268765 179.111031,54.6572996 C178.896413,54.3010814 178.678691,53.9469436 178.457905,53.5949235 C178.366452,53.449112 178.274559,53.3037983 178.182143,53.1588499 L178.457905,53.5949235 C178.300124,53.3433576 178.140777,53.0928732 177.979878,52.8434841 L178.182143,53.1588499 C177.947724,52.7911763 177.709944,52.4258534 177.468847,52.0629244 L177.979878,52.8434841 C177.781309,52.5357059 177.580376,52.2295959 177.377106,51.9251796 L177.468847,52.0629244 C177.294068,51.7998253 177.117546,51.5379842 176.939298,51.2774177 L177.377106,51.9251796 C177.189447,51.6441423 176.999796,51.3645487 176.808172,51.0864188 L176.939298,51.2774177 C176.745965,50.9948004 176.5506,50.7136826 176.353225,50.4340851 L176.808172,51.0864188 C176.58129,50.7571125 176.351643,50.4298582 176.119265,50.1046894 L176.353225,50.4340851 C175.527184,49.2639297 174.665933,48.1204055 173.771013,47.0050543 C173.716362,46.936942 173.661719,46.8691006 173.606952,46.801364 L173.771013,47.0050543 C173.530088,46.704786 173.286723,46.4065596 173.040948,46.1104051 L173.606952,46.801364 C173.363689,46.5004965 173.117969,46.2016986 172.869821,45.9050008 L173.040948,46.1104051 C172.776862,45.7921866 172.509994,45.4763603 172.24038,45.1629635 C169.182807,45.3363276 165.771149,45.4177849 162.251966,45.3022761 C162.251966,45.3022761 143.44813,46.1804094 132.904043,51.4395894 C132.904043,51.4395894 125.041154,54.9456774 117.18144,60.8903083 C117.18144,60.8903083 117.153411,60.9043208 117.104794,60.9353868 L117.058254,60.9662622 C116.673998,61.2302147 115.526831,62.2348442 115.594048,64.78811 C115.665041,67.8425536 113.993718,75.985572 108.424835,80.7583325 C108.424835,80.7583325 104.449837,82.8019873 106.437312,85.7269018 C106.437312,85.7269018 109.121733,89.6247034 112.903182,85.5310449 C112.903182,85.5310449 122.653549,75.4991525 123.25045,59.3330731 C123.25045,59.3330731 126.334954,56.6987694 131.20689,55.9217391 C131.20689,55.9217391 131.217744,56.2151913 131.221045,56.7537432 L131.221687,57.2480875 C131.204585,62.4756861 130.419012,81.8787155 120.069125,92.3506346 C120.069125,92.3506346 108.621654,104.817896 104.943471,86.3112497 C104.943471,86.3112497 100.465124,68.6795627 123.550488,47.740771 C123.550488,47.740771 123.556713,47.7345547 123.568986,47.7223126 L123.623776,47.6676993 L123.643021,47.6485306 L123.771701,47.520488 C125.014241,46.2850561 131.305058,40.0548434 137.897435,33.9714654 L138.557503,33.3638075 C138.667623,33.2626763 138.777783,33.1616334 138.88796,33.0607027 L139.549065,32.4566555 C141.945817,30.2725673 144.330208,28.1641244 146.47592,26.3764748 L146.387427,26.3380578 C146.147928,26.2375527 145.907748,26.1383496 145.666896,26.0404573 C145.482817,25.9667064 145.298584,25.8927255 145.113964,25.8195128 L145.666896,26.0404573 C145.409762,25.9359478 145.151862,25.8329324 144.893207,25.7314217 L145.113964,25.8195128 C144.823432,25.7043 144.531939,25.5909896 144.239501,25.4795969 L144.893207,25.7314217 C144.614107,25.6218877 144.334128,25.5141057 144.053282,25.4080893 L144.239501,25.4795969 C143.968395,25.3763298 143.696476,25.2747109 143.423757,25.1747522 L142.633921,24.8906949 C142.502912,24.8444768 142.371723,24.7986404 142.240355,24.7531868 L142.633435,24.8897987 C142.309954,24.7757155 141.985376,24.6639572 141.659722,24.5545437 L142.240355,24.7531868 C141.921945,24.6430158 141.602485,24.5350942 141.281994,24.429441 L141.659722,24.5545437 C141.312944,24.4380331 140.964945,24.3241813 140.615749,24.2130127 L141.281994,24.429441 C140.98669,24.3320906 140.690511,24.236666 140.393472,24.1431821 C139.916203,23.9929761 139.436714,23.8477802 138.955066,23.7076557 C138.839399,23.6736009 138.723669,23.6402683 138.607816,23.6072285 L138.955066,23.7076557 C138.666384,23.6236701 138.376926,23.5415063 138.086706,23.4611777 L138.607816,23.6072285 C138.227796,23.4988516 137.846448,23.3936259 137.463801,23.2915814 L138.086706,23.4611777 C137.801042,23.3821101 137.51464,23.3048204 137.227513,23.2293212 L137.463801,23.2915814 C137.073564,23.1875125 136.681975,23.0867524 136.289069,22.9893329 L137.227513,23.2293212 C136.790713,23.1144664 136.352234,23.0037553 135.912119,22.8972324 L136.289069,22.9893329 C135.976678,22.911877 135.663454,22.8365328 135.349413,22.7633165 L135.912119,22.8972324 C135.563769,22.8129193 135.214394,22.7312301 134.864016,22.6521866 L135.349413,22.7633165 C135.037201,22.6905265 134.72418,22.6198397 134.410368,22.5512716 L134.864016,22.6521866 C134.55112,22.5815987 134.237425,22.5131208 133.922946,22.4467685 L134.410368,22.5512716 C133.639589,22.3828563 132.86403,22.2272234 132.083927,22.0846064 C131.930397,22.0566379 131.776717,22.0290747 131.622862,22.0020174 L132.083927,22.0846064 C131.741222,22.0219538 131.39764,21.9618131 131.053201,21.9042042 L131.622862,22.0020174 C131.301,21.9454141 130.978376,21.8910247 130.655005,21.8388656 L131.053201,21.9042042 C130.6396,21.8350277 130.224763,21.7695017 129.808724,21.7076605 L130.655005,21.8388656 C130.25603,21.7745117 129.85592,21.7135528 129.454703,21.6560193 C129.186873,21.6175671 128.918447,21.5806771 128.649537,21.5453235 L129.454703,21.6560193 C129.112665,21.6069717 128.769822,21.5604137 128.426196,21.516364 L128.649537,21.5453235 C128.344706,21.5052473 128.039253,21.4671454 127.733191,21.431031 L128.426196,21.516364 C128.044583,21.467445 127.662003,21.4216195 127.278481,21.3789135 L127.733191,21.431031 C127.267153,21.3760399 126.799704,21.3256571 126.330891,21.2799293 L127.278481,21.3789135 C126.954334,21.3428189 126.629514,21.3089528 126.304037,21.2773306 L126.330891,21.2799293 C126.004272,21.248071 125.67699,21.2184722 125.349061,21.1911487 L126.304037,21.2773306 C125.870762,21.2352352 125.436323,21.1971163 125.000757,21.1630108 L125.349061,21.1911487 C124.98447,21.1607704 124.61908,21.1332046 124.252913,21.1084732 L125.000757,21.1630108 C124.653343,21.1358077 124.305211,21.1111578 123.95638,21.08908 L124.252913,21.1084732 C123.815839,21.0789526 123.377658,21.0534704 122.938406,21.0320634 L123.95638,21.08908 C123.598104,21.0664043 123.239091,21.0464417 122.879362,21.0292126 L122.938406,21.0320634 C122.614431,21.0162745 122.289873,21.0027025 121.964748,20.9913623 L122.879362,21.0292126 C122.442838,21.0083054 122.005259,20.9914232 121.566662,20.9786023 L121.964748,20.9913623 C121.592942,20.9783939 121.220393,20.9683442 120.847125,20.9612355 L121.566662,20.9786023 C121.223213,20.9685627 120.879141,20.9610134 120.534461,20.9559717 L119.496774,20.9483871 Z" id="形状结合" fill="url(#linearGradient-3)" fill-rule="nonzero"></path>
            <g id="矩形">
                <use fill="url(#linearGradient-4)" fill-rule="evenodd" xlink:href="#path-5"></use>
                <use fill="black" fill-opacity="1" filter="url(#filter-6)" xlink:href="#path-5"></use>
            </g>
            <path d="M227,84 L227,186 C227,202.016258 214.016258,215 198,215 L40,215 C23.9837423,215 11,202.016258 11,186 L11,85 L11,84 L227,84 Z M226,85 L12,85 L12,186 C12,201.463973 24.536027,214 40,214 L198,214 C213.463973,214 226,201.463973 226,186 L226,85 Z" id="矩形" fill-opacity="0.04" fill="#000000" fill-rule="nonzero"></path>
            <g id="编组-2" transform="translate(123.5885, 147) scale(-1, 1) translate(-123.5885, -147)translate(91, 115)" fill-rule="nonzero">
                <rect id="矩形" fill="#00AFFF" x="40.1769214" y="9" width="25" height="24" rx="4"></rect>
                <rect id="矩形" fill="#FF3900" x="40.1769214" y="40" width="25" height="24" rx="4"></rect>
                <rect id="矩形" fill="#3CC700" x="8.17692143" y="40" width="25" height="24" rx="4"></rect>
                <path d="M18.0377014,4.80354526 L31.8287506,12.7658112 C33.7419211,13.8703807 34.3974217,16.3167424 33.2928522,18.2299129 L25.5091275,31.7117195 C24.404558,33.62489 21.9581964,34.2803906 20.0450259,33.1758211 L6.25397671,25.2135551 C4.34080622,24.1089856 3.6853056,21.662624 4.7898751,19.7494535 L12.5735998,6.26764688 C13.6781693,4.35447639 16.1245309,3.69897576 18.0377014,4.80354526 Z" id="矩形" fill="#FFD500" transform="translate(19.0414, 18.9897) rotate(11) translate(-19.0414, -18.9897)"></path>
            </g>
            <g id="矩形">
                <use fill="black" fill-opacity="1" filter="url(#filter-8)" xlink:href="#path-7"></use>
                <use fill="#EBEBEB" fill-rule="evenodd" xlink:href="#path-7"></use>
            </g>
        </g>
        <g id="Guide/256" transform="translate(8.0533, 8)"></g>
    </g>
</svg>