<?xml version="1.0" encoding="UTF-8"?>
<svg width="256px" height="256px" viewBox="0 0 256 256" version="1.1" xmlns="http://www.w3.org/2000/svg" xmlns:xlink="http://www.w3.org/1999/xlink">
    <title>apps/256/eye-care</title>
    <defs>
        <filter x="-8.2%" y="-6.2%" width="116.3%" height="116.3%" filterUnits="objectBoundingBox" id="filter-1">
            <feOffset dx="0" dy="4" in="SourceAlpha" result="shadowOffsetOuter1"></feOffset>
            <feGaussianBlur stdDeviation="5" in="shadowOffsetOuter1" result="shadowBlurOuter1"></feGaussianBlur>
            <feColorMatrix values="0 0 0 0 0   0 0 0 0 0   0 0 0 0 0  0 0 0 0.2 0" type="matrix" in="shadowBlurOuter1" result="shadowMatrixOuter1"></feColorMatrix>
            <feMerge>
                <feMergeNode in="shadowMatrixOuter1"></feMergeNode>
                <feMergeNode in="SourceGraphic"></feMergeNode>
            </feMerge>
        </filter>
        <linearGradient x1="50%" y1="0%" x2="50%" y2="100%" id="linearGradient-2">
            <stop stop-color="#FFE94B" offset="0%"></stop>
            <stop stop-color="#FFB31B" offset="100%"></stop>
        </linearGradient>
        <linearGradient x1="50%" y1="2.98925514%" x2="50%" y2="97.9240805%" id="linearGradient-3">
            <stop stop-color="#F9FDEE" offset="0%"></stop>
            <stop stop-color="#FEF6CF" offset="100%"></stop>
        </linearGradient>
        <path d="M12.7615448,24.4155537 L17.75,22.8981048 C29.5637412,19.3044577 41.0654408,14.755372 52.1412175,9.29588934 L62.7494453,4.06687143 C67.931123,1.5127138 74.0238541,1.60081699 79.1295126,4.30373337 L90.2602173,10.1962866 C101.052318,15.9095839 112.454289,20.38763 124.25,23.5455408 L128.654974,24.7248266 C136.526135,26.8320692 142,33.9641482 142,42.1125009 L142,95.7437377 C142,112.420303 133.685699,127.999129 119.831458,137.281792 L81.019325,163.28682 C74.9572449,167.348554 67.0427551,167.348554 60.980675,163.28682 L22.1685416,137.281792 C8.31430057,127.999129 2.36590274e-14,112.420303 1.42108547e-14,95.7437377 L1.42108547e-14,41.6364302 C2.02778944e-14,33.7130518 5.181127,26.7214571 12.7615448,24.4155537 Z" id="path-4"></path>
        <filter x="-8.5%" y="-2.2%" width="116.9%" height="110.7%" filterUnits="objectBoundingBox" id="filter-5">
            <feOffset dx="0" dy="6" in="SourceAlpha" result="shadowOffsetOuter1"></feOffset>
            <feGaussianBlur stdDeviation="3" in="shadowOffsetOuter1" result="shadowBlurOuter1"></feGaussianBlur>
            <feColorMatrix values="0 0 0 0 0.373564347   0 0 0 0 0.184487449   0 0 0 0 0  0 0 0 0.0953565477 0" type="matrix" in="shadowBlurOuter1"></feColorMatrix>
        </filter>
        <linearGradient x1="50%" y1="0%" x2="50%" y2="100%" id="linearGradient-6">
            <stop stop-color="#81EF5A" offset="4.24787615%"></stop>
            <stop stop-color="#00BF88" offset="100%"></stop>
        </linearGradient>
        <path d="M71.0532629,119.603604 C87.5266375,119.603604 102.798845,112.841226 116.869887,99.3164699 L117.383582,98.8180677 C124.792656,91.5924262 124.941358,79.7286449 117.715717,72.3195706 L117.379558,71.9835132 C103.166323,58.1333573 87.7249214,51.2072072 71.0532629,51.2072072 C54.5798882,51.2072072 39.3076803,57.9695851 25.2366391,71.4943409 L24.7229435,71.9927431 C17.3138692,79.2183846 17.1651676,91.0821659 24.3908091,98.4912402 L24.7269673,98.8272976 C38.9402024,112.677453 54.3816043,119.603604 71.0532629,119.603604 Z" id="path-7"></path>
        <filter x="-1.9%" y="-2.9%" width="103.8%" height="105.8%" filterUnits="objectBoundingBox" id="filter-8">
            <feOffset dx="0" dy="-4" in="SourceAlpha" result="shadowOffsetInner1"></feOffset>
            <feComposite in="shadowOffsetInner1" in2="SourceAlpha" operator="arithmetic" k2="-1" k3="1" result="shadowInnerInner1"></feComposite>
            <feColorMatrix values="0 0 0 0 0   0 0 0 0 0   0 0 0 0 0  0 0 0 0.160868185 0" type="matrix" in="shadowInnerInner1"></feColorMatrix>
        </filter>
    </defs>
    <g id="apps/256/eye-care" stroke="none" stroke-width="1" fill="none" fill-rule="evenodd">
        <g id="编组" filter="url(#filter-1)" transform="translate(24.0533, 24)">
            <rect id="矩形" fill="url(#linearGradient-2)" fill-rule="nonzero" x="-0.0532628616" y="0" width="208" height="208" rx="44"></rect>
            <g id="编组-2" transform="translate(32.9467, 20)">
                <g id="矩形">
                    <use fill="black" fill-opacity="1" filter="url(#filter-5)" xlink:href="#path-4"></use>
                    <use fill="url(#linearGradient-3)" fill-rule="evenodd" xlink:href="#path-4"></use>
                </g>
                <path d="M45.4493253,41.0586444 C47.5832582,39.5956517 50.4991426,40.1395563 51.9621353,42.2734892 L59.0279856,52.5797955 C60.4909783,54.7137284 59.9470738,57.6296127 57.8131409,59.0926054 C55.679208,60.5555981 52.7633236,60.0116936 51.3003309,57.8777607 L44.2344806,47.5714544 C42.7714879,45.4375214 43.3153924,42.5216371 45.4493253,41.0586444 Z M96.1887319,41.0586444 C94.054799,39.5956517 91.1389147,40.1395563 89.675922,42.2734892 L82.6100716,52.5797955 C81.1470789,54.7137284 81.6909835,57.6296127 83.8249164,59.0926054 C85.9588493,60.5555981 88.8747336,60.0116936 90.3377263,57.8777607 L97.4035767,47.5714544 C98.8665694,45.4375214 98.3226649,42.5216371 96.1887319,41.0586444 Z M70,35 C72.9852814,35 75,37.1128135 75,40 L75,51 C75,53.8871865 72.9852814,56 70,56 C68.0147186,56 66,53.8871865 66,51 L66,40 C66,37.1128135 68.0147186,35 70,35 Z" id="形状结合" fill="#80EE5A" fill-rule="nonzero"></path>
                <g id="椭圆形" fill-rule="nonzero">
                    <use fill="url(#linearGradient-6)" xlink:href="#path-7"></use>
                    <use fill="black" fill-opacity="1" filter="url(#filter-8)" xlink:href="#path-7"></use>
                </g>
                <path d="M70.5847944,61.5135135 C82.74501,61.5135135 92.6028124,71.371316 92.6028124,83.5315315 C92.6028124,95.6917471 82.74501,105.54955 70.5847944,105.54955 C58.4245788,105.54955 48.5667764,95.6917471 48.5667764,83.5315315 C48.5667764,71.371316 58.4245788,61.5135135 70.5847944,61.5135135 Z M70.5847944,70.8828829 C63.5991386,70.8828829 57.9361457,76.5458758 57.9361457,83.5315315 C57.9361457,90.5171873 63.5991386,96.1801802 70.5847944,96.1801802 C77.5704501,96.1801802 83.233443,90.5171873 83.233443,83.5315315 C83.233443,76.5458758 77.5704501,70.8828829 70.5847944,70.8828829 Z" id="椭圆形" fill="#FDF8D6" fill-rule="nonzero"></path>
            </g>
        </g>
        <g id="Guide/256" transform="translate(8.0533, 8)"></g>
    </g>
</svg>