<svg xmlns="http://www.w3.org/2000/svg" width="256" height="256" viewBox="0 0 256 256">
  <defs>
    <filter id="iso定制工具-256-a" width="122.9%" height="122.9%" x="-11.4%" y="-11.4%" filterUnits="objectBoundingBox">
      <feOffset dy="4" in="SourceAlpha" result="shadowOffsetOuter1"/>
      <feGaussianBlur in="shadowOffsetOuter1" result="shadowBlurOuter1" stdDeviation="5"/>
      <feColorMatrix in="shadowBlurOuter1" result="shadowMatrixOuter1" values="0 0 0 0 0   0 0 0 0 0   0 0 0 0 0  0 0 0 0.2 0"/>
      <feMerge>
        <feMergeNode in="shadowMatrixOuter1"/>
        <feMergeNode in="SourceGraphic"/>
      </feMerge>
    </filter>
    <linearGradient id="iso定制工具-256-b" x1="50%" x2="50%" y1="0%" y2="100%">
      <stop offset="0%" stop-color="#4EFFD8"/>
      <stop offset="100%" stop-color="#00A29F"/>
    </linearGradient>
    <filter id="iso定制工具-256-c" width="180.6%" height="165.8%" x="-40.3%" y="-32.9%" filterUnits="objectBoundingBox">
      <feOffset dy="2" in="SourceAlpha" result="shadowOffsetOuter1"/>
      <feGaussianBlur in="shadowOffsetOuter1" result="shadowBlurOuter1" stdDeviation="12"/>
      <feColorMatrix in="shadowBlurOuter1" result="shadowMatrixOuter1" values="0 0 0 0 0   0 0 0 0 0.4549649   0 0 0 0 0.409478353  0 0 0 0.3 0"/>
      <feMerge>
        <feMergeNode in="shadowMatrixOuter1"/>
        <feMergeNode in="SourceGraphic"/>
      </feMerge>
    </filter>
    <linearGradient id="iso定制工具-256-d" x1="50%" x2="50%" y1="0%" y2="100%">
      <stop offset="0%" stop-color="#FFF"/>
      <stop offset="100%" stop-color="#CBFEF3"/>
    </linearGradient>
    <linearGradient id="iso定制工具-256-e" x1="50%" x2="50%" y1="0%" y2="100%">
      <stop offset="0%" stop-color="#FFF"/>
      <stop offset="100%" stop-color="#CBFEF3"/>
    </linearGradient>
  </defs>
  <g fill="none" filter="url(#iso定制工具-256-a)" transform="translate(10 10)">
    <circle cx="118" cy="118" r="118" fill="url(#iso定制工具-256-b)"/>
    <g filter="url(#iso定制工具-256-c)" transform="translate(68 42)">
      <path fill="url(#iso定制工具-256-d)" d="M52,4 C91.7645019,4 124,36.235498 124,76 C124,115.764502 91.7645019,148 52,148 C50.6574827,148 49.3235474,147.963256 47.9991448,147.89072 L47.9993803,142.882533 C49.3229563,142.960478 50.6568627,143 52,143 C89.0030782,143 119,113.003078 119,76 C119,38.9969218 89.0030782,9 52,9 C50.6568627,9 49.3229563,9.03952226 47.9993803,9.11746728 L47.9991448,4.10928035 C49.3235474,4.03674371 50.6574827,4 52,4 Z M52,14 C86.2416544,14 114,41.7583455 114,76 C114,110.241654 86.2416544,138 52,138 C50.6560489,138 49.3220852,137.957239 47.9993954,137.873002 L47.9997174,105.73562 C49.3083572,105.909991 50.6436672,106 52,106 C68.5685425,106 82,92.5685425 82,76 C82,59.4314575 68.5685425,46 52,46 C50.6436672,46 49.3083572,46.0900092 47.9997174,46.2643803 L47.9993954,14.1269976 C49.3220852,14.0427613 50.6560489,14 52,14 Z"/>
      <path fill="url(#iso定制工具-256-e)" d="M3.49260176e-10,8 C3.49260176e-10,3.581722 3.581722,-2.25998974e-15 8,-2.09055944e-15 L42,3.37705756e-15 L42,152 L8,152 C3.581722,152 3.4923886e-10,148.418278 3.4923886e-10,144 L9.09494702e-12,138 L11.5,138 C12.8807119,138 14,136.880712 14,135.5 C14,134.119288 12.8807119,133 11.5,133 L11.5,133 L9.09494702e-12,133 L1.09139364e-11,123 L11.5,123 C12.8807119,123 14,121.880712 14,120.5 C14,119.119288 12.8807119,118 11.5,118 L11.5,118 L1.09139364e-11,118 L1.09139364e-11,108 L11.5,108 C12.8807119,108 14,106.880712 14,105.5 C14,104.119288 12.8807119,103 11.5,103 L11.5,103 L1.09139364e-11,103 L3.63797881e-12,93 L23.5,93 C24.8807119,93 26,91.8807119 26,90.5 C26,89.1192881 24.8807119,88 23.5,88 L23.5,88 L3.63797881e-12,88 L3.63797881e-12,78 L11.5,78 C12.8807119,78 14,76.8807119 14,75.5 C14,74.1192881 12.8807119,73 11.5,73 L11.5,73 L3.63797881e-12,73 L7.27595761e-12,63 L11.5,63 C12.8807119,63 14,61.8807119 14,60.5 C14,59.1192881 12.8807119,58 11.5,58 L11.5,58 L7.27595761e-12,58 L5.45696821e-12,48 L11.5,48 C12.8807119,48 14,46.8807119 14,45.5 C14,44.1192881 12.8807119,43 11.5,43 L11.5,43 L5.45696821e-12,43 L5.45696821e-12,33 L11.5,33 C12.8807119,33 14,31.8807119 14,30.5 C14,29.1192881 12.8807119,28 11.5,28 L11.5,28 L5.45696821e-12,28 L1.8189894e-12,18 L23.5,18 C24.8807119,18 26,16.8807119 26,15.5 C26,14.1192881 24.8807119,13 23.5,13 L23.5,13 L1.8189894e-12,13 L3.49260176e-10,8 Z"/>
    </g>
  </g>
</svg>
