<svg xmlns="http://www.w3.org/2000/svg" xmlns:xlink="http://www.w3.org/1999/xlink" width="512" height="512" viewBox="0 0 512 512">
  <defs>
    <filter id="user-home-a" width="124.3%" height="128.1%" x="-12.2%" y="-14.1%" filterUnits="objectBoundingBox">
      <feOffset dy="8" in="SourceAlpha" result="shadowOffsetOuter1"/>
      <feGaussianBlur in="shadowOffsetOuter1" result="shadowBlurOuter1" stdDeviation="10"/>
      <feComposite in="shadowBlurOuter1" in2="SourceAlpha" operator="out" result="shadowBlurOuter1"/>
      <feColorMatrix in="shadowBlurOuter1" result="shadowMatrixOuter1" values="0 0 0 0 0   0 0 0 0 0   0 0 0 0 0  0 0 0 0.2 0"/>
      <feMerge>
        <feMergeNode in="shadowMatrixOuter1"/>
        <feMergeNode in="SourceGraphic"/>
      </feMerge>
    </filter>
    <linearGradient id="user-home-b" x1="50%" x2="50%" y1="0%" y2="37.968%">
      <stop offset="0%" stop-color="#147ADD"/>
      <stop offset="100%" stop-color="#0D00E9"/>
    </linearGradient>
    <linearGradient id="user-home-e" x1="50%" x2="50%" y1="0%" y2="77.929%">
      <stop offset="0%" stop-color="#B5B7B8"/>
      <stop offset="100%" stop-color="#80B0BD"/>
    </linearGradient>
    <rect id="user-home-d" width="404" height="166" x="20" y="64" rx="36"/>
    <filter id="user-home-c" width="108.9%" height="121.7%" x="-4.5%" y="-10.8%" filterUnits="objectBoundingBox">
      <feOffset in="SourceAlpha" result="shadowOffsetOuter1"/>
      <feGaussianBlur in="shadowOffsetOuter1" result="shadowBlurOuter1" stdDeviation="6"/>
      <feColorMatrix in="shadowBlurOuter1" values="0 0 0 0 0   0 0 0 0 0   0 0 0 0 0  0 0 0 0.2 0"/>
    </filter>
    <filter id="user-home-f" width="106.9%" height="116.9%" x="-3.5%" y="-8.4%" filterUnits="objectBoundingBox">
      <feOffset dy="4" in="SourceAlpha" result="shadowOffsetInner1"/>
      <feComposite in="shadowOffsetInner1" in2="SourceAlpha" k2="-1" k3="1" operator="arithmetic" result="shadowInnerInner1"/>
      <feColorMatrix in="shadowInnerInner1" values="0 0 0 0 0.82745098   0 0 0 0 0.82745098   0 0 0 0 0.82745098  0 0 0 0.5 0"/>
    </filter>
    <radialGradient id="user-home-g" cx="50%" cy="0%" r="117.589%" fx="50%" fy="0%" gradientTransform="scale(.65766 1) rotate(84.615 .63 .143)">
      <stop offset="0%" stop-color="#1D95E9"/>
      <stop offset="100%" stop-color="#0B43D8"/>
    </radialGradient>
    <linearGradient id="user-home-j" x1="50%" x2="50%" y1="0%" y2="100%">
      <stop offset="0%" stop-color="#FFF"/>
      <stop offset="100%" stop-color="#FFF" stop-opacity=".6"/>
    </linearGradient>
    <path id="user-home-i" d="M24,110.624 L24,184 L168,184 L168,110.624 L96,43.624 L24,110.624 Z M112,168 L80,168 L80,120 L112,120 L112,168 Z M192,89.184 L181.112,100.904 L96,21.84 L10.888,100.784 L6.66133815e-16,89.064 L96,1.77635684e-15 L192,89.184 Z"/>
    <filter id="user-home-h" width="127.1%" height="128.3%" x="-13.5%" y="-12%" filterUnits="objectBoundingBox">
      <feOffset dy="4" in="SourceAlpha" result="shadowOffsetOuter1"/>
      <feGaussianBlur in="shadowOffsetOuter1" result="shadowBlurOuter1" stdDeviation="8"/>
      <feColorMatrix in="shadowBlurOuter1" values="0 0 0 0 0   0 0 0 0 0.42905776   0 0 0 0 0.968670281  0 0 0 0.5 0"/>
    </filter>
  </defs>
  <g fill="none" fill-rule="evenodd">
    <g filter="url(#user-home-a)" transform="translate(34 90)">
      <path fill="url(#user-home-b)" d="M248,23 C254.072274,36.9662297 267.850687,46 283.079872,46 L388,46 C418.927946,46 444,71.072054 444,102 L444,328 C444,358.927946 418.927946,384 388,384 L56,384 C25.072054,384 -3.88449831e-14,358.927946 -4.26325641e-14,328 L-4.26325641e-14,56 C-4.64201452e-14,25.072054 25.072054,-2.27403379e-14 56,-2.84217094e-14 L212.920128,-2.84217094e-14 C228.149313,-2.34292169e-14 241.927726,9.03377035 248,23 Z"/>
      <use fill="#000" filter="url(#user-home-c)" xlink:href="#user-home-d"/>
      <use fill="url(#user-home-e)" xlink:href="#user-home-d"/>
      <use fill="#000" filter="url(#user-home-f)" xlink:href="#user-home-d"/>
      <path fill="url(#user-home-g)" d="M0,0 L444,0 L444,236 C444,266.927946 418.927946,292 388,292 L56,292 C25.072054,292 3.78758101e-15,266.927946 0,236 L0,0 L0,0 Z" transform="translate(0 92)"/>
    </g>
    <g opacity=".6" transform="translate(160 222)">
      <use fill="#000" filter="url(#user-home-h)" xlink:href="#user-home-i"/>
      <use fill="url(#user-home-j)" xlink:href="#user-home-i"/>
    </g>
  </g>
</svg>
