<svg xmlns="http://www.w3.org/2000/svg" xmlns:xlink="http://www.w3.org/1999/xlink" width="512" height="512" viewBox="0 0 512 512">
  <defs>
    <filter id="user-trash-empty-opened-a" width="126.5%" height="126.5%" x="-13.2%" y="-13.2%" filterUnits="objectBoundingBox">
      <feOffset dy="8" in="SourceAlpha" result="shadowOffsetOuter1"/>
      <feGaussianBlur in="shadowOffsetOuter1" result="shadowBlurOuter1" stdDeviation="10"/>
      <feColorMatrix in="shadowBlurOuter1" result="shadowMatrixOuter1" values="0 0 0 0 0   0 0 0 0 0   0 0 0 0 0  0 0 0 0.2 0"/>
      <feMerge>
        <feMergeNode in="shadowMatrixOuter1"/>
        <feMergeNode in="SourceGraphic"/>
      </feMerge>
    </filter>
    <path id="user-trash-empty-opened-b" d="M18.6746472,0 L389.325353,0 C398.139817,5.48623648e-15 405.285353,7.14553539 405.285353,15.96 C405.285353,16.7926812 405.220188,17.6240856 405.090454,18.4465984 L351.636186,357.348114 C347.03565,386.515637 321.896997,408 292.368887,408 L115.631113,408 C86.1030026,408 60.9643497,386.515637 56.3638138,357.348114 L2.90954561,18.4465984 C1.53623523,9.73977321 7.48122361,1.56820878 16.1880488,0.194898403 C17.0105616,0.0651650785 17.841966,7.25838842e-15 18.6746472,0 Z"/>
    <filter id="user-trash-empty-opened-c" width="156.3%" height="158.1%" x="-28.2%" y="-29%" filterUnits="objectBoundingBox">
      <feGaussianBlur in="SourceGraphic" stdDeviation="30"/>
    </filter>
    <path id="user-trash-empty-opened-e" d="M389.325353,0 C398.139817,5.48623648e-15 405.285353,7.14553539 405.285353,15.96 C405.285353,16.7926812 405.220188,17.6240856 405.090454,18.4465984 L405.007467,18.9791411 C403.611371,11.5892934 397.121087,6 389.325353,6 L389.325353,6 L18.6746472,6 C17.841966,6 17.0105616,6.06516508 16.1880488,6.1948984 C9.35173091,7.27317735 4.21805314,12.5425005 2.9925559,18.9712865 L2.90954561,18.4465984 C1.53623523,9.73977321 7.48122361,1.56820878 16.1880488,0.194898403 C17.0105616,0.0651650785 17.841966,7.25838842e-15 18.6746472,0 L389.325353,0 Z"/>
  </defs>
  <g fill="none" fill-rule="evenodd" filter="url(#user-trash-empty-opened-a)" transform="translate(52 52)">
    <mask id="user-trash-empty-opened-d" fill="#fff">
      <use xlink:href="#user-trash-empty-opened-b"/>
    </mask>
    <use fill="#525354" fill-opacity=".8" xlink:href="#user-trash-empty-opened-b"/>
    <path fill="#000" fill-opacity=".35" d="M67.6746472,16 L340.325353,16 C349.139817,16 356.285353,23.1455354 356.285353,31.96 C356.285353,32.7926812 356.220188,33.6240856 356.090454,34.4465984 L318.093533,275.348114 C313.492997,304.515637 288.354344,326 258.826234,326 L149.173766,326 C119.645656,326 94.5070028,304.515637 89.906467,275.348114 L51.9095456,34.4465984 C50.5362352,25.7397732 56.4812236,17.5682088 65.1880488,16.1948984 C66.0105616,16.0651651 66.841966,16 67.6746472,16 Z" filter="url(#user-trash-empty-opened-c)" mask="url(#user-trash-empty-opened-d)"/>
    <use fill="#FFF" fill-opacity=".05" xlink:href="#user-trash-empty-opened-e"/>
  </g>
</svg>
