<svg xmlns="http://www.w3.org/2000/svg" width="16" height="16" viewBox="0 0 16 16">
  <defs>
    <linearGradient id="dde-introduction-a" x1="42.153%" x2="42.153%" y1="0%" y2="100%">
      <stop offset="0%" stop-color="#00D8A5"/>
      <stop offset="100%" stop-color="#0058FF"/>
    </linearGradient>
  </defs>
  <g fill="none" fill-rule="evenodd">
    <circle cx="8" cy="8" r="7" fill="url(#dde-introduction-a)"/>
    <g transform="translate(1 2)">
      <path fill="#404040" d="M8.19394033,0.881209277 C9.93841668,0.881209277 11.3525942,2.29538677 11.3525942,4.03986312 L11.3525942,10.2158992 C11.3525942,10.5610772 11.0727721,10.8408992 10.7275942,10.8408992 L5.03528648,10.8408992 L5.03528648,10.8408992 L5.03528648,4.03986312 C5.03528648,2.29538677 6.44946398,0.881209277 8.19394033,0.881209277 Z" transform="rotate(45 8.194 5.861)"/>
      <path fill="#FFF" d="M4.18437573,2.58807252 L10.0366566,2.58807252 C10.3818346,2.58807252 10.6616566,2.86789455 10.6616566,3.21307252 L10.6616566,8.47517747 C10.6616566,8.82035544 10.3818346,9.10017747 10.0366566,9.10017747 L4.18437573,9.10017747 C2.3861076,9.10017747 0.928323252,7.64239312 0.928323252,5.844125 C0.928323252,4.04585687 2.3861076,2.58807252 4.18437573,2.58807252 Z" transform="rotate(45 5.795 5.844)"/>
      <path fill="#404040" d="M5.05482435,6.08163446 C5.26859277,6.29540289 5.36328594,6.58315518 5.33890387,6.862469 C5.60371022,6.83772698 5.87727826,6.92794322 6.08058245,7.13124741 C6.28482725,7.3354922 6.37493524,7.61065251 6.35090644,7.87746981 C6.60863907,7.85759321 6.87451603,7.94826631 7.07325159,8.14700187 C7.28213967,8.35588995 7.37164241,8.63895457 7.34175981,8.91140782 C7.61316179,8.89341793 7.89108339,8.98868851 8.09900969,9.19661482 C8.48277491,9.58038004 8.48277491,10.2025864 8.09900969,10.5863516 L7.44132027,11.244041 C7.19724259,11.4881187 6.80151448,11.4881187 6.5574368,11.244041 L5.60964175,10.296246 L5.6214564,10.2838105 L4.61697261,9.279722 L4.6274564,9.26781055 L3.62430348,8.26396754 L3.6354564,8.25181055 L2.5654564,7.18126562 L3.66508756,6.08163446 C4.04885278,5.69786924 4.67105913,5.69786924 5.05482435,6.08163446 Z"/>
      <path fill="#404040" d="M7.31331079,2.41207978 L7.31331079,4.23965296 C7.31331079,5.22095652 6.58003357,6.01646023 5.67549028,6.01646023 L5.67549028,2.41207978 L5.67549028,2.41207978" transform="rotate(45 6.494 4.214)"/>
    </g>
  </g>
</svg>
