<svg xmlns="http://www.w3.org/2000/svg" xmlns:xlink="http://www.w3.org/1999/xlink" width="16" height="16" viewBox="0 0 16 16">
  <defs>
    <filter id="deepin-boot-maker-a" width="188.9%" height="157.1%" x="-44.4%" y="-28.6%" filterUnits="objectBoundingBox">
      <feOffset dy="1" in="SourceAlpha" result="shadowOffsetOuter1"/>
      <feGaussianBlur in="shadowOffsetOuter1" result="shadowBlurOuter1" stdDeviation=".5"/>
      <feComposite in="shadowBlurOuter1" in2="SourceAlpha" operator="out" result="shadowBlurOuter1"/>
      <feColorMatrix in="shadowBlurOuter1" result="shadowMatrixOuter1" values="0 0 0 0 0   0 0 0 0 0   0 0 0 0 0  0 0 0 0.15 0"/>
      <feMerge>
        <feMergeNode in="shadowMatrixOuter1"/>
        <feMergeNode in="SourceGraphic"/>
      </feMerge>
    </filter>
    <linearGradient id="deepin-boot-maker-c" x1="32.201%" x2="71.972%" y1="0%" y2="80.043%">
      <stop offset="0%" stop-color="#9BBE34"/>
      <stop offset="100%" stop-color="#3A7D09"/>
    </linearGradient>
    <path id="deepin-boot-maker-b" d="M3.55362815,0 L7.875,0 C8.49632034,-6.65978016e-16 9,0.503679656 9,1.125 L9,10 L9,10 L0,10 L0,3.582788 C-2.62310657e-16,3.25399074 0.129547121,2.93843329 0.360575099,2.70448091 L2.66420325,0.37169291 C2.89905952,0.133863779 3.21938249,6.13999318e-17 3.55362815,0 Z"/>
    <filter id="deepin-boot-maker-d" width="122.2%" height="120%" x="-11.1%" y="-10%" filterUnits="objectBoundingBox">
      <feGaussianBlur in="SourceAlpha" result="shadowBlurInner1" stdDeviation=".5"/>
      <feOffset dy="1" in="shadowBlurInner1" result="shadowOffsetInner1"/>
      <feComposite in="shadowOffsetInner1" in2="SourceAlpha" k2="-1" k3="1" operator="arithmetic" result="shadowInnerInner1"/>
      <feColorMatrix in="shadowInnerInner1" result="shadowMatrixInner1" values="0 0 0 0 1   0 0 0 0 1   0 0 0 0 1  0 0 0 0.3 0"/>
      <feGaussianBlur in="SourceAlpha" result="shadowBlurInner2" stdDeviation=".5"/>
      <feOffset dx="-1" dy="-1" in="shadowBlurInner2" result="shadowOffsetInner2"/>
      <feComposite in="shadowOffsetInner2" in2="SourceAlpha" k2="-1" k3="1" operator="arithmetic" result="shadowInnerInner2"/>
      <feColorMatrix in="shadowInnerInner2" result="shadowMatrixInner2" values="0 0 0 0 0.0184287527   0 0 0 0 0.105044158   0 0 0 0 0.00466373642  0 0 0 0.35385708 0"/>
      <feMerge>
        <feMergeNode in="shadowMatrixInner1"/>
        <feMergeNode in="shadowMatrixInner2"/>
      </feMerge>
    </filter>
    <linearGradient id="deepin-boot-maker-e" x1="82.09%" x2="16.982%" y1="23.327%" y2="86.409%">
      <stop offset="0%" stop-color="#FFF" stop-opacity=".647"/>
      <stop offset="100%" stop-color="#FFF"/>
    </linearGradient>
    <linearGradient id="deepin-boot-maker-g" x1="50%" x2="60.724%" y1="34.568%" y2="62.646%">
      <stop offset="0%" stop-color="#303030"/>
      <stop offset="100%" stop-color="#131212"/>
    </linearGradient>
    <linearGradient id="deepin-boot-maker-h" x1="0%" x2="100%" y1="42.264%" y2="57.725%">
      <stop offset="0%" stop-color="#F1E274"/>
      <stop offset="18.149%" stop-color="#CEB214"/>
      <stop offset="37.816%" stop-color="#F2CC00"/>
      <stop offset="56.473%" stop-color="#E7BF00"/>
      <stop offset="67.568%" stop-color="#F9D53B"/>
      <stop offset="83.443%" stop-color="#E8B800"/>
      <stop offset="100%" stop-color="#FFCF00"/>
    </linearGradient>
    <path id="deepin-boot-maker-i" d="M1.75,10 C1.88807119,10 2,10.1119288 2,10.25 L2,12.75 C2,12.8880712 1.88807119,13 1.75,13 L1.25,13 C1.11192881,13 1,12.8880712 1,12.75 L1,10.25 C1,10.1119288 1.11192881,10 1.25,10 L1.75,10 Z M7.75,10 C7.88807119,10 8,10.1119288 8,10.25 L8,12.75 C8,12.8880712 7.88807119,13 7.75,13 L7.25,13 C7.11192881,13 7,12.8880712 7,12.75 L7,10.25 C7,10.1119288 7.11192881,10 7.25,10 L7.75,10 Z M5.75,10 C5.88807119,10 6,10.1119288 6,10.25 L6,11.75 C6,11.8880712 5.88807119,12 5.75,12 L5.25,12 C5.11192881,12 5,11.8880712 5,11.75 L5,10.25 C5,10.1119288 5.11192881,10 5.25,10 L5.75,10 Z M3.75,10 C3.88807119,10 4,10.1119288 4,10.25 L4,11.75 C4,11.8880712 3.88807119,12 3.75,12 L3.25,12 C3.11192881,12 3,11.8880712 3,11.75 L3,10.25 C3,10.1119288 3.11192881,10 3.25,10 L3.75,10 Z"/>
    <filter id="deepin-boot-maker-j" width="114.3%" height="133.3%" x="-7.1%" y="-16.7%" filterUnits="objectBoundingBox">
      <feOffset dy="1" in="SourceAlpha" result="shadowOffsetInner1"/>
      <feComposite in="shadowOffsetInner1" in2="SourceAlpha" k2="-1" k3="1" operator="arithmetic" result="shadowInnerInner1"/>
      <feColorMatrix in="shadowInnerInner1" values="0 0 0 0 0.926828578   0 0 0 0 0.558558022   0 0 0 0 0  0 0 0 0.5 0"/>
    </filter>
  </defs>
  <g fill="none" fill-rule="evenodd" filter="url(#deepin-boot-maker-a)" transform="translate(4 1)">
    <mask id="deepin-boot-maker-f" fill="#fff">
      <use xlink:href="#deepin-boot-maker-b"/>
    </mask>
    <use fill="url(#deepin-boot-maker-c)" xlink:href="#deepin-boot-maker-b"/>
    <use fill="#000" filter="url(#deepin-boot-maker-d)" xlink:href="#deepin-boot-maker-b"/>
    <path fill="url(#deepin-boot-maker-e)" fill-opacity=".67" fill-rule="nonzero" d="M-1.81791367,5.35283688 C-1.57859463,5.5505308 -1.30248969,5.79571312 -1.03528808,6.07183696 C-1.03528808,6.07183696 0.165509613,7.12511381 1.12791255,7.41632376 C1.12791255,7.41632376 1.82038099,7.65959633 2.66052675,7.74951513 C2.66052675,7.74951513 2.81289372,7.79546655 2.99377168,7.59826531 C3.17466571,7.40222984 3.77046918,6.98927749 4.39975028,7.01776668 C4.39975028,7.01776668 4.76626499,7.12371789 4.82234552,6.82284345 C4.82234552,6.82284345 4.89489157,6.4197811 4.41587705,6.45400192 C4.41587705,6.45400192 3.2124847,6.50935891 2.19572055,7.48957677 C2.19572055,7.48957677 1.84773164,7.47321872 1.50328835,7.23483672 C1.50328835,7.23483672 2.9192468,5.65866057 4.39210646,5.60324609 C4.39210646,5.60324609 5.8467522,5.49496423 4.94894755,6.87419805 C4.94894755,6.87419805 4.15303323,8.24564281 1.47443139,8.20001126 C1.47443139,8.20001126 -0.221643467,8.25274746 -1.25046476,8.18869656 C-0.927276101,8.89947969 -0.606186317,9.58000942 0.0830305369,10.2217692 C0.249564374,10.380707 0.415719713,10.5545724 0.675252308,10.6107639 C2.24027797,10.3064868 4.01090228,9.15339568 4.86578309,8.2125082 C4.86578309,8.2125082 6.2469136,6.87223286 5.76464227,5.45782893 C5.76464227,5.45782893 5.26623426,4.25405392 3.51374239,4.89706988 C3.51374239,4.89706988 2.45273537,5.1904138 1.12823858,6.89020827 C1.12823858,6.89020827 0.997937687,6.71143746 1.00396828,6.66971889 C1.00980733,6.62819872 1.80364747,5.14854419 2.97950973,4.39254989 C2.97950973,4.39254989 4.30255661,3.44745162 5.60111549,4.19333717 C6.89928057,4.93884233 7.09859596,6.3613628 7.07224949,7.49459806 C7.05257831,8.34163504 6.50185189,10.1408007 5.40606091,11.875603 C6.76249067,11.693185 8.06695694,11.071168 9.08873044,10.0128464 C9.77967385,9.29718845 10.2667504,8.45928325 10.5514357,7.57047899 C9.76480034,6.23400764 7.75289006,3.30227935 5.03803528,2.89258695 C3.19221805,2.61421245 2.12951931,3.99712473 2.12951931,3.99712473 C1.23204001,4.96296676 0.91741757,6.47952871 0.91741757,6.47952871 C0.56527008,2.21435342 4.11082724,1.2784624 4.11082724,1.2784624 C5.99513998,0.621103375 8.11975657,1.1030712 9.61658366,1.86921917 C9.40534151,1.58201992 9.16711107,1.30858812 8.9019659,1.05248086 C6.37624209,-1.38714954 2.36502434,-1.33056642 -0.0573852243,1.178491 L-0.464569485,0.785186274 C2.17412164,-1.94788894 6.54284656,-2.00951513 9.29328221,0.647167438 C12.0437179,3.30385001 12.1346058,7.67307591 9.49591471,10.4061511 C6.85718839,13.1392628 2.48826372,13.2010224 -0.262135232,10.5443753 C-3.01253419,7.88772817 -3.1032958,3.51829794 -0.464569485,0.785186274 L-0.0573852243,1.178491 C-1.18594593,2.34741951 -1.77065061,3.84251227 -1.81791367,5.35283688 Z" mask="url(#deepin-boot-maker-f)" transform="rotate(135 4.516 5.596)"/>
    <path fill="url(#deepin-boot-maker-g)" d="M0,9 L9,9 L9,12.875 C9,13.4963203 8.49632034,14 7.875,14 L1.125,14 C0.503679656,14 7.6089797e-17,13.4963203 0,12.875 L0,9 L0,9 Z"/>
    <use fill="url(#deepin-boot-maker-h)" xlink:href="#deepin-boot-maker-i"/>
    <use fill="#000" filter="url(#deepin-boot-maker-j)" xlink:href="#deepin-boot-maker-i"/>
  </g>
</svg>
