<?xml version="1.0" encoding="UTF-8"?>
<svg width="16px" height="16px" viewBox="0 0 16 16" version="1.1" xmlns="http://www.w3.org/2000/svg" xmlns:xlink="http://www.w3.org/1999/xlink">
    <title>apps/16/deepin-calculator</title>
    <defs>
        <radialGradient cx="50%" cy="9.26819408%" fx="50%" fy="9.26819408%" r="92.6181353%" id="radialGradient-1">
            <stop stop-color="#35DCFF" offset="0%"></stop>
            <stop stop-color="#0068FF" offset="100%"></stop>
        </radialGradient>
    </defs>
    <g id="apps/16/deepin-calculator" stroke="none" stroke-width="1" fill="none" fill-rule="evenodd">
        <g id="Group-3" transform="translate(1, 1)">
            <path d="M2,0 L12,-2.22044605e-16 C13.1045695,5.56104062e-16 14,0.8954305 14,2 L14,12 C14,13.1045695 13.1045695,14 12,14 L2,14 C0.8954305,14 8.94280938e-16,13.1045695 -2.22044605e-16,12 L-2.22044605e-16,2 C-3.57315355e-16,0.8954305 0.8954305,-1.91384796e-17 2,-2.22044605e-16 Z" id="Mask" fill="url(#radialGradient-1)"></path>
            <polygon id="Combined-Shape" fill="#FFFFFF" points="4.16666667 10.5 5.5 9.16666667 4.83333333 8.5 3.5 9.83333333 2.16666667 8.5 1.5 9.16666667 2.83333333 10.5 1.5 11.8333333 2.16666667 12.5 3.5 11.1666667 4.83333333 12.5 5.5 11.8333333"></polygon>
            <path d="M14,7 L14,12 C14,13.1045695 13.1045695,14 12,14 L7,14 L7,7 L14,7 Z M13,11 L8,11 L8,12 L13,12 L13,11 Z M13,9 L8,9 L8,10 L13,10 L13,9 Z M7,0 L7,7 L0,7 L-2.22044605e-16,2 C-3.57315355e-16,0.8954305 0.8954305,-1.91384796e-17 2,-2.22044605e-16 L7,0 Z M4,1 L3,1 L3,3 L1,3 L1,4 L3,4 L3,6 L4,6 L4,4 L6,4 L6,3 L4,3 L4,1 Z" id="形状结合" fill="#FFFFFF"></path>
            <rect id="Rectangle-3" fill="#FFFFFF" x="8" y="3" width="5" height="1"></rect>
            <path d="M12,-0.5 C12.6903559,-0.5 13.3153559,-0.220177969 13.767767,0.232233047 C14.220178,0.684644063 14.5,1.30964406 14.5,2 L14.5,12 C14.5,12.6903559 14.220178,13.3153559 13.767767,13.767767 C13.3153559,14.220178 12.6903559,14.5 12,14.5 L2,14.5 C1.30964406,14.5 0.684644063,14.220178 0.232233047,13.767767 C-0.220177969,13.3153559 -0.5,12.6903559 -0.5,12 L-0.5,2 C-0.5,1.30964406 -0.220177969,0.684644063 0.232233047,0.232233047 C0.684644063,-0.220177969 1.30964406,-0.5 2,-0.5 Z" id="Mask" stroke-opacity="0.1" stroke="#000000"></path>
        </g>
        <g id="Guide/16" transform="translate(0.5, 0.5)"></g>
    </g>
</svg>