<?xml version="1.0" encoding="UTF-8"?>
<svg width="16px" height="16px" viewBox="0 0 16 16" version="1.1" xmlns="http://www.w3.org/2000/svg" xmlns:xlink="http://www.w3.org/1999/xlink">
    <title>apps/16/deepin-defender</title>
    <defs>
        <linearGradient x1="50%" y1="0%" x2="50%" y2="98.1385523%" id="linearGradient-1">
            <stop stop-color="#FFFFFF" offset="0%"></stop>
            <stop stop-color="#EDEDED" offset="100%"></stop>
        </linearGradient>
        <linearGradient x1="50%" y1="0%" x2="50%" y2="98.5538974%" id="linearGradient-2">
            <stop stop-color="#44B0FB" offset="0%"></stop>
            <stop stop-color="#0074FF" offset="100%"></stop>
        </linearGradient>
        <linearGradient x1="50%" y1="0%" x2="50%" y2="100%" id="linearGradient-3">
            <stop stop-color="#FFFFFF" offset="0%"></stop>
            <stop stop-color="#60B8E5" offset="100%"></stop>
        </linearGradient>
        <linearGradient x1="19.6315827%" y1="23.7439246%" x2="72.0817441%" y2="30.2126494%" id="linearGradient-4">
            <stop stop-color="#5BE9FF" offset="0%"></stop>
            <stop stop-color="#5FE2FF" stop-opacity="0.936413763" offset="4.36176811%"></stop>
            <stop stop-color="#0065FA" stop-opacity="0" offset="100%"></stop>
        </linearGradient>
        <linearGradient x1="50%" y1="1.79026897%" x2="51.6666881%" y2="100%" id="linearGradient-5">
            <stop stop-color="#FFFFFF" offset="0%"></stop>
            <stop stop-color="#9CD8F8" offset="100%"></stop>
        </linearGradient>
    </defs>
    <g id="apps/16/deepin-defender" stroke="none" stroke-width="1" fill="none" fill-rule="evenodd">
        <g id="路径-13备份-14" transform="translate(0.5, 0.5)">
            <rect id="蒙版" fill="url(#linearGradient-1)" x="0" y="0" width="15" height="15" rx="7.5"></rect>
            <rect id="蒙版" fill="url(#linearGradient-2)" x="0" y="0" width="15" height="15" rx="7.5"></rect>
            <path d="M7.5,0 C11.6421356,0 15,3.35786438 15,7.5 C15,11.6421356 11.6421356,15 7.5,15 C3.35786438,15 0,11.6421356 0,7.5 C0,3.35786438 3.35786438,0 7.5,0 Z M7.5,1 C3.91014913,1 1,3.91014913 1,7.5 C1,11.0898509 3.91014913,14 7.5,14 C11.0898509,14 14,11.0898509 14,7.5 C14,3.91014913 11.0898509,1 7.5,1 Z" id="蒙版备份" fill="url(#linearGradient-3)" fill-rule="nonzero"></path>
            <g id="编组" transform="translate(3.2143, 0.9925)">
                <path d="M4.28571429,0 C6.34649108,0 8.18078969,0.981557355 9.3572367,2.50800961 L4.28571429,6.50747146 Z" id="形状结合" fill="url(#linearGradient-4)"></path>
                <path d="M8.5165574,3.68924447 C8.49972528,3.55867787 8.41388288,3.44869985 8.29400096,3.40406256 L4.50870682,2.2639379 C4.34544502,2.20386635 4.18995296,2.21166244 4.06274608,2.2639379 L0.277438044,3.40406255 C0.157500531,3.44869985 0.0717137239,3.55869222 0.0548816036,3.68924446 C0.0464168933,3.75491541 -0.147798762,5.31858467 0.249264054,7.10564142 C0.485219469,8.16753235 0.882226683,9.08696873 1.4293469,9.83843737 C2.10656507,10.7685844 3.01185772,11.437828 4.12077588,11.828853 C4.2126923,11.8673309 4.31318462,11.8849331 4.45059362,11.828853 C5.55951179,11.4378423 6.46487393,10.7685844 7.14209209,9.83843737 C7.68915672,9.08696873 8.08621953,8.16753235 8.32217494,7.10564142 C8.71925166,5.31858468 8.52498041,3.75491542 8.5165574,3.68924447 L8.5165574,3.68924447 Z" id="路径" fill="url(#linearGradient-5)"></path>
                <path d="M3.17802488,3.96375142 C3.26086487,3.69967158 3.59222483,3.50747146 3.89597146,3.50747146 L5.01273222,3.50747146 C5.31647885,3.50747146 5.4545455,3.69967158 5.34409217,3.93979151 L4.78399267,5.50747146 L6.3007653,5.50747146 C6.90825856,5.50747146 6.96259477,6.00635477 6.57600814,6.390755 L3.54617628,10.1725896 C3.35288296,10.3647897 3.17883309,10.3319908 3.26167309,10.0679109 L3.86049209,7.50747146 L2.35232737,7.50747146 C2.04858073,7.50747146 1.88290076,7.31527134 1.96574075,7.0511915 L3.17802488,3.96375142 Z" id="路径" fill="#0081FF" fill-rule="nonzero"></path>
            </g>
        </g>
        <g id="Guide/16" transform="translate(0.5, 0.5)"></g>
    </g>
</svg>