<?xml version="1.0" encoding="UTF-8"?>
<svg width="16px" height="16px" viewBox="0 0 16 16" version="1.1" xmlns="http://www.w3.org/2000/svg" xmlns:xlink="http://www.w3.org/1999/xlink">
    <title>apps/16/deepin-toggle-desktop</title>
    <defs>
        <linearGradient x1="50%" y1="0%" x2="50%" y2="100%" id="linearGradient-1">
            <stop stop-color="#00D479" offset="0%"></stop>
            <stop stop-color="#02A5CB" offset="100%"></stop>
        </linearGradient>
    </defs>
    <g id="apps/16/deepin-toggle-desktop" stroke="none" stroke-width="1" fill="none" fill-rule="evenodd">
        <g id="编组" transform="translate(1, 2)">
            <path d="M14,1 L14,10.999767 C14,11.5520517 13.5522847,11.999767 13,11.999767 L1,11.999767 C0.44771525,11.999767 9.37667865e-16,11.5520517 -1.11022302e-16,10.999767 L-1.11022302e-16,1 C-1.78657678e-16,0.44771525 0.44771525,-9.5692398e-18 1,-1.11022302e-16 L13,-1.11022302e-16 C13.5522847,7.68579428e-16 14,0.44771525 14,1 Z" id="path4604" fill="url(#linearGradient-1)"></path>
            <g id="Group" transform="translate(1, 1)">
                <rect id="Rectangle" fill="#A4FFCC" opacity="0.7" x="0" y="8" width="12" height="2"></rect>
                <rect id="Rectangle-190" fill="#FFFFFF" x="0" y="0" width="2" height="2"></rect>
                <rect id="Rectangle-190" fill="#FFFFFF" x="0" y="3" width="2" height="2"></rect>
            </g>
        </g>
        <g id="Guide/16" transform="translate(0.5, 0.5)"></g>
    </g>
</svg>