<?xml version="1.0" encoding="UTF-8"?>
<svg width="16px" height="16px" viewBox="0 0 16 16" version="1.1" xmlns="http://www.w3.org/2000/svg" xmlns:xlink="http://www.w3.org/1999/xlink">
    <title>apps/16/deepin-music</title>
    <defs>
        <linearGradient x1="97.10607%" y1="38.451407%" x2="0.947845805%" y2="41.8451878%" id="linearGradient-1">
            <stop stop-color="#0BA186" offset="0%"></stop>
            <stop stop-color="#68C639" offset="100%"></stop>
        </linearGradient>
        <linearGradient x1="50%" y1="0%" x2="50%" y2="98.0310694%" id="linearGradient-2">
            <stop stop-color="#8DF34C" offset="0%"></stop>
            <stop stop-color="#00CCB3" offset="100%"></stop>
        </linearGradient>
        <linearGradient x1="50%" y1="0%" x2="50%" y2="100%" id="linearGradient-3">
            <stop stop-color="#FFFFFF" offset="0%"></stop>
            <stop stop-color="#FFFFFF" stop-opacity="0.7" offset="100%"></stop>
        </linearGradient>
    </defs>
    <g id="apps/16/deepin-music" stroke="none" stroke-width="1" fill="none" fill-rule="evenodd">
        <g id="6-music" transform="translate(1, 1)">
            <ellipse id="circle13330" stroke="url(#linearGradient-1)" fill="#151E25" transform="translate(8.875, 7) rotate(-270) translate(-8.875, -7)" cx="8.875" cy="7" rx="5.07142857" ry="5.125"></ellipse>
            <path d="M2.5638852,-1.03584031e-16 L9.4361148,1.03584031e-16 C10.3276335,-6.01853049e-17 10.6509198,0.0928256111 10.9768457,0.267132704 C11.3027716,0.441439796 11.5585602,0.697228371 11.7328673,1.0231543 C11.9071744,1.34908022 12,1.67236646 12,2.5638852 L12,11.4361148 C12,12.3276335 11.9071744,12.6509198 11.7328673,12.9768457 C11.5585602,13.3027716 11.3027716,13.5585602 10.9768457,13.7328673 C10.6509198,13.9071744 10.3276335,14 9.4361148,14 L2.5638852,14 C1.67236646,14 1.34908022,13.9071744 1.0231543,13.7328673 C0.697228371,13.5585602 0.441439796,13.3027716 0.267132704,12.9768457 C0.0928256111,12.6509198 4.01235366e-17,12.3276335 -6.90560205e-17,11.4361148 L6.90560205e-17,2.5638852 C-4.01235366e-17,1.67236646 0.0928256111,1.34908022 0.267132704,1.0231543 C0.441439796,0.697228371 0.697228371,0.441439796 1.0231543,0.267132704 C1.34908022,0.0928256111 1.67236646,6.01853049e-17 2.5638852,-1.03584031e-16 Z" id="Rectangle" fill="url(#linearGradient-2)"></path>
            <path d="M9.9611458,3.54890712 C9.98696418,3.66012477 10,3.77392658 10,3.88810168 L10,8.85714286 C10,9.88281454 9.16053391,10.7142857 8.125,10.7142857 C7.08946609,10.7142857 6.25,9.88281454 6.25,8.85714286 C6.25,7.83147118 7.08946609,7 8.125,7 C8.4414805,7 8.7396475,7.0776627 9.00113442,7.21479645 L9,4.67860035 C9,4.40245798 8.77614237,4.17860035 8.5,4.17860035 C8.45736619,4.17860035 8.41490745,4.18405319 8.37365718,4.19482614 L5.37365718,4.97830828 C5.15355663,5.0357899 5,5.23459977 5,5.4620825 L5,9.85714286 C5,10.8828145 4.16053391,11.7142857 3.125,11.7142857 C2.08946609,11.7142857 1.25,10.8828145 1.25,9.85714286 C1.25,8.83147118 2.08946609,8 3.125,8 C3.4414805,8 3.7396475,8.0776627 4.00113442,8.21479645 L4,4.58453025 C4,3.8867776 4.48112653,3.28116706 5.16080544,3.12338445 L8.16080544,2.42695588 C8.96777398,2.2396239 9.77381382,2.74193858 9.9611458,3.54890712 Z" id="路径" fill="url(#linearGradient-3)"></path>
            <path d="M9.9611458,3.54890712 C9.98696418,3.66012477 10,3.77392658 10,3.88810168 L10,8.85714286 C10,9.88281454 9.16053391,10.7142857 8.125,10.7142857 C7.08946609,10.7142857 6.25,9.88281454 6.25,8.85714286 C6.25,7.83147118 7.08946609,7 8.125,7 C8.4414805,7 8.7396475,7.0776627 9.00113442,7.21479645 L9,4.67860035 C9,4.40245798 8.77614237,4.17860035 8.5,4.17860035 C8.45736619,4.17860035 8.41490745,4.18405319 8.37365718,4.19482614 L5.37365718,4.97830828 C5.15355663,5.0357899 5,5.23459977 5,5.4620825 L5,9.85714286 C5,10.8828145 4.16053391,11.7142857 3.125,11.7142857 C2.08946609,11.7142857 1.25,10.8828145 1.25,9.85714286 C1.25,8.83147118 2.08946609,8 3.125,8 C3.4414805,8 3.7396475,8.0776627 4.00113442,8.21479645 L4,4.58453025 C4,3.8867776 4.48112653,3.28116706 5.16080544,3.12338445 L8.16080544,2.42695588 C8.96777398,2.2396239 9.77381382,2.74193858 9.9611458,3.54890712 Z M3.125,9 C2.63962005,9 2.25,9.38590939 2.25,9.85714286 C2.25,10.3283763 2.63962005,10.7142857 3.125,10.7142857 C3.61037995,10.7142857 4,10.3283763 4,9.85714286 L4,9.34276753 L3.53669053,9.100399 C3.44281841,9.05116887 3.34084454,9.0193095 3.23372512,9.00645669 L3.125,9 Z M8.125,8 C7.63962005,8 7.25,8.38590939 7.25,8.85714286 C7.25,9.32837633 7.63962005,9.71428571 8.125,9.71428571 C8.61037995,9.71428571 9,9.32837633 9,8.85714286 L9,8.34376753 L8.53669053,8.100399 C8.44281841,8.05116887 8.34084454,8.0193095 8.23372512,8.00645669 L8.125,8 Z" id="Combined-Shape" fill-opacity="0.3" fill="#FFFFFF" fill-rule="nonzero"></path>
        </g>
        <g id="Guide/16" transform="translate(0.5, 0.5)"></g>
    </g>
</svg>