<svg xmlns="http://www.w3.org/2000/svg" xmlns:xlink="http://www.w3.org/1999/xlink" width="16" height="16" viewBox="0 0 16 16">
  <defs>
    <filter id="16px-a" width="153.3%" height="153.3%" x="-26.7%" y="-26.7%" filterUnits="objectBoundingBox">
      <feOffset dy="1" in="SourceAlpha" result="shadowOffsetOuter1"/>
      <feGaussianBlur in="shadowOffsetOuter1" result="shadowBlurOuter1" stdDeviation=".5"/>
      <feColorMatrix in="shadowBlurOuter1" result="shadowMatrixOuter1" values="0 0 0 0 0   0 0 0 0 0   0 0 0 0 0  0 0 0 0.15 0"/>
      <feMerge>
        <feMergeNode in="shadowMatrixOuter1"/>
        <feMergeNode in="SourceGraphic"/>
      </feMerge>
    </filter>
    <linearGradient id="16px-b" x1="50%" x2="50%" y1="0%" y2="100%">
      <stop offset="0%" stop-color="#0ECB04"/>
      <stop offset="100%" stop-color="#008972"/>
    </linearGradient>
    <linearGradient id="16px-c" x1="50%" x2="50%" y1="0%" y2="100%">
      <stop offset="0%" stop-color="#C3FFBF" stop-opacity=".305"/>
      <stop offset="100%" stop-color="#83E991" stop-opacity=".779"/>
    </linearGradient>
    <linearGradient id="16px-d" x1="84.48%" x2="44.518%" y1="17.971%" y2="95.993%">
      <stop offset="0%" stop-color="#FFF"/>
      <stop offset="100%" stop-color="#D6DDF6"/>
    </linearGradient>
    <linearGradient id="16px-e" x1="72.583%" x2="50%" y1="28.712%" y2="78.125%">
      <stop offset="0%" stop-color="#FFF"/>
      <stop offset="100%" stop-color="#D7FFC6"/>
    </linearGradient>
    <radialGradient id="16px-f" cx="52.324%" cy="53.481%" r="63.673%" fx="52.324%" fy="53.481%" gradientTransform="matrix(-.46443 .84879 -.9429 -.6687 1.27 .448)">
      <stop offset="0%"/>
      <stop offset="100%" stop-opacity=".148"/>
    </radialGradient>
    <linearGradient id="16px-i" x1="69.333%" x2="56.832%" y1="71.097%" y2="57.701%">
      <stop offset="0%" stop-color="#C6C6C6"/>
      <stop offset="53.052%" stop-color="#E7E7E7"/>
      <stop offset="100%" stop-color="#F4F4F4"/>
    </linearGradient>
    <path id="16px-h" d="M10.8125,-0.1875 C10.8125,-0.1875 10.632654,0.549676254 10.476372,0.801861702 C10.2289334,1.20114228 9.94817073,1.10505319 9.72408537,1.44015957 C9.5,1.77526596 9.58422881,2.01899013 9.06783537,2.46143617 C8.79109848,2.69854441 8.1875,2.8125 8.1875,2.8125 C9.79494382,2.8125 10.8125,0.967176259 10.8125,-0.1875 Z"/>
    <filter id="16px-g" width="252.4%" height="233.3%" x="-76.2%" y="-33.3%" filterUnits="objectBoundingBox">
      <feOffset dy="1" in="SourceAlpha" result="shadowOffsetOuter1"/>
      <feGaussianBlur in="shadowOffsetOuter1" result="shadowBlurOuter1" stdDeviation=".5"/>
      <feColorMatrix in="shadowBlurOuter1" values="0 0 0 0 0   0 0 0 0 0   0 0 0 0 0  0 0 0 0.05 0"/>
    </filter>
    <linearGradient id="16px-j" x1="80.472%" x2="50%" y1="19.447%" y2="84.722%">
      <stop offset="0%" stop-opacity=".035"/>
      <stop offset="100%" stop-opacity=".08"/>
    </linearGradient>
    <radialGradient id="16px-k" cx="50%" cy="50%" r="94.578%" fx="50%" fy="50%" gradientTransform="matrix(.45876 0 0 .30467 .27 .348)">
      <stop offset="0%" stop-color="#EBFF26"/>
      <stop offset="100%" stop-color="#F2FF3D" stop-opacity="0"/>
    </radialGradient>
    <filter id="16px-l" width="107.7%" height="116.9%" x="-3.9%" y="-8.4%" filterUnits="objectBoundingBox">
      <feGaussianBlur in="SourceGraphic" stdDeviation=".156"/>
    </filter>
    <radialGradient id="16px-m" cx="50%" cy="50%" r="520.71%" fx="50%" fy="50%" gradientTransform="matrix(.09451 0 0 .07199 .453 .464)">
      <stop offset="0%" stop-color="#F7FF81" stop-opacity=".995"/>
      <stop offset="100%" stop-color="#F8FF98" stop-opacity="0"/>
    </radialGradient>
    <radialGradient id="16px-n" cx="50%" cy="50%" r="1628.518%" fx="50%" fy="50%" gradientTransform="matrix(.03022 0 0 .01306 .485 .493)">
      <stop offset="0%" stop-color="#FFF" stop-opacity=".995"/>
      <stop offset="100%" stop-color="#FFF" stop-opacity="0"/>
    </radialGradient>
    <linearGradient id="16px-o" x1="0%" x2="99.213%" y1="50%" y2="50%">
      <stop offset="0%" stop-color="#FFF" stop-opacity="0"/>
      <stop offset="49.798%" stop-color="#FFF" stop-opacity=".892"/>
      <stop offset="100%" stop-color="#FFF" stop-opacity="0"/>
    </linearGradient>
  </defs>
  <g fill="none" fill-rule="evenodd" filter="url(#16px-a)" transform="translate(.5 .5)">
    <circle cx="7.5" cy="7.5" r="7" fill="url(#16px-b)"/>
    <g transform="translate(.5 2.5)">
      <path fill="#0EA141" stroke="#96FF8F" stroke-opacity=".703" d="M9.75,4.5 C9.95710678,4.5 10.1446068,4.58394661 10.2803301,4.71966991 C10.4160534,4.85539322 10.5,5.04289322 10.5,5.25 L10.5,5.25 L10.5,8.75 C10.5,8.95710678 10.4160534,9.14460678 10.2803301,9.28033009 C10.1446068,9.41605339 9.95710678,9.5 9.75,9.5 L9.75,9.5 L4.25,9.5 C4.04289322,9.5 3.85539322,9.41605339 3.71966991,9.28033009 C3.58394661,9.14460678 3.5,8.95710678 3.5,8.75 L3.5,8.75 L3.5,5.25 C3.5,5.04289322 3.58394661,4.85539322 3.71966991,4.71966991 C3.85539322,4.58394661 4.04289322,4.5 4.25,4.5 L4.25,4.5 Z"/>
      <path fill="url(#16px-c)" d="M5.5,7 C5.77614237,7 6,7.22385763 6,7.5 C6,7.77614237 5.77614237,8 5.5,8 L4.5,8 C4.22385763,8 4,7.77614237 4,7.5 C4,7.22385763 4.22385763,7 4.5,7 L5.5,7 Z M8.5,7 C8.77614237,7 9,7.22385763 9,7.5 C9,7.77614237 8.77614237,8 8.5,8 L7.5,8 C7.22385763,8 7,7.77614237 7,7.5 C7,7.22385763 7.22385763,7 7.5,7 L8.5,7 Z" opacity=".359"/>
      <path fill="url(#16px-d)" d="M4.25,0 L6.98684211,0 L6.98684211,0 C7.34303786,0.17132789 7.74216067,0.51040835 8.18421053,1.01724138 C8.60526316,1.5 8.87719298,2.10344828 9,2.82758621 L9,6 L3,6 L3,1.25 C3,0.559644063 3.55964406,1.26816328e-16 4.25,0 Z"/>
      <path fill="url(#16px-e)" d="M4.25,0 L9.75,0 C10.4403559,-1.26816328e-16 11,0.559644063 11,1.25 L11,6 L11,6 L3,6 L3,1.25 C3,0.559644063 3.55964406,1.26816328e-16 4.25,0 Z"/>
      <path fill="url(#16px-f)" fill-opacity=".28" d="M8,0 L9.75421856,0.00592024833 C10.4429237,0.00824453423 11,0.567204069 11,1.25591313 L11,2.38512459 L11,2.38512459 L11,2.63512459 C10.90625,1.8679582 10.53125,1.23958333 9.875,0.75 C9.30248493,0.322885584 8.67748493,0.0728855842 8,0 Z"/>
      <g transform="rotate(-90 9.5 1.312)">
        <use fill="#000" filter="url(#16px-g)" xlink:href="#16px-h"/>
        <use fill="url(#16px-i)" xlink:href="#16px-h"/>
      </g>
      <path fill="url(#16px-j)" d="M8.5,5 C8.77614237,5 9,5.22385763 9,5.5 C9,5.77614237 8.77614237,6 8.5,6 L6.5,6 C6.22385763,6 6,5.77614237 6,5.5 C6,5.22385763 6.22385763,5 6.5,5 L8.5,5 Z M4.5,5 C4.77614237,5 5,5.22385763 5,5.5 C5,5.77614237 4.77614237,6 4.5,6 C4.22385763,6 4,5.77614237 4,5.5 C4,5.22385763 4.22385763,5 4.5,5 Z M9.5,3 C9.77614237,3 10,3.22385763 10,3.5 C10,3.77614237 9.77614237,4 9.5,4 L4.5,4 C4.22385763,4 4,3.77614237 4,3.5 C4,3.22385763 4.22385763,3 4.5,3 L9.5,3 Z M8.5,1 C8.77614237,1 9,1.22385763 9,1.5 C9,1.77614237 8.77614237,2 8.5,2 L7.5,2 C7.22385763,2 7,1.77614237 7,1.5 C7,1.22385763 7.22385763,1 7.5,1 L8.5,1 Z M5.5,1 C5.77614237,1 6,1.22385763 6,1.5 C6,1.77614237 5.77614237,2 5.5,2 L4.5,2 C4.22385763,2 4,1.77614237 4,1.5 C4,1.22385763 4.22385763,1 4.5,1 L5.5,1 Z"/>
      <g transform="translate(.5 3.2)">
        <polygon fill="url(#16px-k)" points="0 2.477 6.063 0 12.125 2.216 12.125 3.433 6.141 5.563 0 3.694" filter="url(#16px-l)" opacity=".799"/>
        <rect width="10.25" height="1" x=".938" y="2.313" fill="url(#16px-m)"/>
        <rect width="11.375" height="1" x=".375" y="2.625" fill="url(#16px-n)" opacity=".953"/>
        <rect width="6.875" height="1" x="2.625" y="2.75" fill="url(#16px-o)" opacity=".953"/>
      </g>
    </g>
  </g>
</svg>
