<svg xmlns="http://www.w3.org/2000/svg" xmlns:xlink="http://www.w3.org/1999/xlink" width="16" height="16" viewBox="0 0 16 16">
  <defs>
    <filter id="deepin-font-installer-a" width="157.1%" height="150%" x="-28.6%" y="-25%" filterUnits="objectBoundingBox">
      <feOffset dy="1" in="SourceAlpha" result="shadowOffsetOuter1"/>
      <feGaussianBlur in="shadowOffsetOuter1" result="shadowBlurOuter1" stdDeviation=".5"/>
      <feComposite in="shadowBlurOuter1" in2="SourceAlpha" operator="out" result="shadowBlurOuter1"/>
      <feColorMatrix in="shadowBlurOuter1" result="shadowMatrixOuter1" values="0 0 0 0 0   0 0 0 0 0   0 0 0 0 0  0 0 0 0.2 0"/>
      <feMerge>
        <feMergeNode in="shadowMatrixOuter1"/>
        <feMergeNode in="SourceGraphic"/>
      </feMerge>
    </filter>
    <linearGradient id="deepin-font-installer-c" x1="11.719%" x2="89.812%" y1="0%" y2="101%">
      <stop offset="0%" stop-color="#FCE7FF"/>
      <stop offset="100%" stop-color="#9A8FFF"/>
    </linearGradient>
    <path id="deepin-font-installer-b" d="M0,2.39536166 C0,1.07243995 1.0753102,0 2.39077847,0 L11.6092215,0 C12.929612,0 14,1.07464957 14,2.39536166 L14,13.6046383 C14,14.9275601 12.9246898,16 11.6092215,16 L2.39077847,16 C1.07038798,16 0,14.9253504 0,13.6046383 L0,2.39536166 Z"/>
  </defs>
  <g fill="none" fill-rule="evenodd">
    <g filter="url(#deepin-font-installer-a)" transform="translate(1)">
      <mask id="deepin-font-installer-d" fill="#fff">
        <use xlink:href="#deepin-font-installer-b"/>
      </mask>
      <use fill="url(#deepin-font-installer-c)" xlink:href="#deepin-font-installer-b"/>
      <path fill="#FFF" stroke="#000" stroke-linejoin="round" stroke-opacity=".2" d="M14.5,12 L14.5,12.6071622 C14.5,14.2048324 13.2048324,15.5 11.6071622,15.5 L2.5,15.5 C1.94771525,15.5 1.5,15.0522847 1.5,14.5 C1.5,13.9477153 1.94771525,13.5 2.5,13.5 L12,13.5 C12.8284271,13.5 13.5,12.8284271 13.5,12 L14.5,12 Z" mask="url(#deepin-font-installer-d)"/>
    </g>
    <path fill="#000" fill-rule="nonzero" d="M3,12 C4.1045695,12 5,11.1045695 5,10 L5,2 L5,2 L4,2 L4,1 L11,1 L11,3 L10,3 C10,2.44771525 9.55228475,2 9,2 L7,2 L7,2 L7,6 C8.1045695,6 9,5.1045695 9,4 L9,4 L9,4 L9,9 C9,7.8954305 8.1045695,7 7,7 L7,7 L7,7 L7,10 C7,11.1045695 7.8954305,12 9,12 L9,12 L9,12 L3,12 Z"/>
  </g>
</svg>
