<svg xmlns="http://www.w3.org/2000/svg" xmlns:xlink="http://www.w3.org/1999/xlink" width="16" height="16" viewBox="0 0 16 16">
  <defs>
    <linearGradient id="kmsclient-a" x1="50%" x2="50%" y1="0%" y2="100%">
      <stop offset="0%" stop-color="#F0FBEE"/>
      <stop offset="100%" stop-color="#B1E2F7"/>
    </linearGradient>
    <linearGradient id="kmsclient-b" x1="80.797%" x2="16.842%" y1="17.938%" y2="83.862%">
      <stop offset="0%" stop-color="#8333FF"/>
      <stop offset="100%" stop-color="#2D2DF0"/>
    </linearGradient>
    <linearGradient id="kmsclient-c" x1="77.514%" x2="18.075%" y1="10.345%" y2="87.056%">
      <stop offset="0%" stop-color="#0AB4FF"/>
      <stop offset="100%" stop-color="#0A51D0"/>
    </linearGradient>
    <linearGradient id="kmsclient-d" x1="92.831%" x2="11.074%" y1="28.169%" y2="75.209%">
      <stop offset="0%" stop-color="#37FBB3"/>
      <stop offset="100%" stop-color="#2184DC"/>
    </linearGradient>
    <linearGradient id="kmsclient-g" x1="56.876%" x2="56.876%" y1="0%" y2="91.235%">
      <stop offset="0%" stop-color="#FFF"/>
      <stop offset="100%" stop-color="#FFF" stop-opacity=".769"/>
    </linearGradient>
    <path id="kmsclient-f" d="M4.25,9.25 L4.25,8.7713761 L4.82638145,8.18611501 L5.46515143,9.43202828 C5.48654476,9.47375572 5.52949247,9.5 5.57638441,9.5 L6.33897354,9.5 C6.39075023,9.5 6.43272354,9.4580267 6.43272354,9.40625 C6.43272354,9.39002428 6.42851231,9.37407634 6.42050172,9.35996591 L5.42012974,7.59783737 L6.34311815,6.65949209 C6.3794265,6.62257963 6.37893677,6.56322243 6.34202431,6.52691408 C6.32448933,6.50966607 6.30087836,6.5 6.27628223,6.5 L5.55032754,6.5 C5.51803538,6.5 5.48699617,6.51249702 5.46371295,6.53487279 L4.25,7.70128246 L4.25,6.75 C4.25,6.61192881 4.13807119,6.5 4,6.5 L3.75,6.5 C3.61192881,6.5 3.5,6.61192881 3.5,6.75 L3.5,9.25 C3.5,9.38807119 3.61192881,9.5 3.75,9.5 L4,9.5 C4.13807119,9.5 4.25,9.38807119 4.25,9.25 Z M7.75,9.3125 L7.75,7.375 L8.3054586,9.3629571 C8.32809593,9.44397491 8.40192096,9.5 8.48604191,9.5 L8.85149725,9.5 C8.93850691,9.5 9.01408434,9.44014157 9.03401297,9.35544488 L9.5,7.375 L9.5,9.3125 C9.5,9.41605339 9.58394661,9.5 9.6875,9.5 L10.0625,9.5 C10.1660534,9.5 10.25,9.41605339 10.25,9.3125 L10.25,6.75 C10.25,6.61192881 10.1380712,6.5 10,6.5 L9.28000624,6.5 C9.16288041,6.5 9.06145559,6.58131665 9.0359878,6.6956401 L8.66796875,8.34765625 L8.27631203,6.69243482 C8.24962582,6.57965341 8.14892543,6.5 8.03302979,6.5 L7.25,6.5 C7.11192881,6.5 7,6.61192881 7,6.75 L7,9.3125 C7,9.41605339 7.08394661,9.5 7.1875,9.5 L7.5625,9.5 C7.66605339,9.5 7.75,9.41605339 7.75,9.3125 Z M11.78125,9.5625 C12.0585938,9.5625 12.2727865,9.47753906 12.4550781,9.39746094 C12.6373698,9.31738281 12.7792969,9.19986979 12.8808594,9.04492187 C12.9824219,8.88997396 13.0332031,8.72070312 13.0332031,8.53710937 C13.0332031,8.38085937 12.9951172,8.23958333 12.9189453,8.11328125 C12.8427734,7.98697917 12.7210286,7.8811849 12.5537109,7.79589844 C12.4142795,7.72482639 12.1986672,7.65443251 11.9068739,7.5847168 L11.7226563,7.54296875 C11.5664063,7.51041667 11.4674479,7.47526042 11.4257813,7.4375 C11.3828125,7.40104167 11.3613281,7.36002604 11.3613281,7.31445312 C11.3613281,7.25195312 11.3873698,7.19889323 11.4394531,7.15527344 C11.4915365,7.11165365 11.5690104,7.08984375 11.671875,7.08984375 C11.796875,7.08984375 11.8948568,7.11914062 11.9658203,7.17773437 L12.0432489,7.23841176 C12.0550409,7.2498386 12.0661023,7.26316613 12.0761719,7.28025993 L12.0919966,7.30854103 L12.0919966,7.30854103 C12.1134634,7.34952517 12.1559688,7.375 12.2022329,7.375 L12.75,7.375 C12.8050722,7.37471699 12.8518025,7.33894454 12.8682917,7.28940068 L12.8743727,7.24174642 L12.8743727,7.24174642 C12.8692403,7.16440642 12.855076,7.10121301 12.8318799,7.05216617 C12.7746145,6.93108188 12.6963967,6.83138913 12.5966797,6.76074219 C12.4046224,6.62467448 12.1471354,6.53125 11.78125,6.53125 C11.4830729,6.53125 11.226888,6.59407552 11.0556641,6.66894531 C10.8844401,6.7438151 10.7561849,6.84667969 10.6708984,6.97753906 C10.585612,7.10839844 10.5429688,7.24739583 10.5429688,7.39453125 C10.5429688,7.61848958 10.6263021,7.80273437 10.7929688,7.94726562 C10.9347098,8.07114955 11.158243,8.17398756 11.4635682,8.25577966 L11.6230469,8.29492187 C11.860026,8.34700521 12.0110677,8.40234375 12.0761719,8.4609375 C12.141276,8.51953125 12.1738281,8.5859375 12.1738281,8.66015625 C12.1738281,8.73828125 12.1396484,8.80696615 12.0712891,8.86621094 C12.0029297,8.92545573 11.8919271,8.9375 11.765625,8.9375 C11.5963542,8.9375 11.4798177,8.89713542 11.3886719,8.78125 C11.367465,8.75412492 11.3495271,8.72681304 11.3344337,8.69591819 C11.3241017,8.67476945 11.3132899,8.64126542 11.3019983,8.59540609 C11.2884961,8.53935016 11.2382818,8.5 11.1806234,8.5 L10.5833984,8.5 C10.5281227,8.49991448 10.4812197,8.53574522 10.4646696,8.5854574 L10.4587796,8.63603999 L10.4587796,8.63603999 L10.4819393,8.75124528 C10.4855875,8.76592147 10.4892515,8.77924813 10.4929313,8.79122527 C10.5454721,8.96223501 10.6321069,9.11452874 10.7539063,9.23632812 C10.9414063,9.42382812 11.2942708,9.5625 11.78125,9.5625 Z"/>
    <filter id="kmsclient-e" width="142%" height="230.6%" x="-21%" y="-32.7%" filterUnits="objectBoundingBox">
      <feOffset dy="1" in="SourceAlpha" result="shadowOffsetOuter1"/>
      <feGaussianBlur in="shadowOffsetOuter1" result="shadowBlurOuter1" stdDeviation=".5"/>
      <feColorMatrix in="shadowBlurOuter1" values="0 0 0 0 0   0 0 0 0 0   0 0 0 0 0  0 0 0 0.1 0"/>
    </filter>
    <linearGradient id="kmsclient-h" x1="50%" x2="50%" y1="0%" y2="100%">
      <stop offset="0%" stop-color="#FFF"/>
      <stop offset="100%" stop-color="#D1EAE4"/>
      <stop offset="100%" stop-color="#EDF2DE"/>
    </linearGradient>
    <linearGradient id="kmsclient-i" x1="50%" x2="50%" y1="6.026%" y2="100%">
      <stop offset="0%" stop-color="#577FB3"/>
      <stop offset="100%" stop-color="#192469"/>
    </linearGradient>
  </defs>
  <g fill="none" fill-rule="evenodd">
    <rect width="14" height="14" x="1" y="1" fill="url(#kmsclient-a)" rx="3.063"/>
    <path fill="#000" fill-opacity=".04" fill-rule="nonzero" d="M11.9375,0 L4.0625,0 C1.8188432,0 0,1.8188432 0,4.0625 L0,11.9375 C0,14.1811568 1.8188432,16 4.0625,16 L11.9375,16 C14.1811568,16 16,14.1811568 16,11.9375 L16,4.0625 C16,1.8188432 14.1811568,0 11.9375,0 Z M11.9375,1 C13.628872,1 15,2.37112795 15,4.0625 L15,11.9375 C15,13.628872 13.628872,15 11.9375,15 L4.0625,15 C2.37112795,15 1,13.628872 1,11.9375 L1,4.0625 C1,2.37112795 2.37112795,1 4.0625,1 L11.9375,1 Z"/>
    <g transform="translate(1.938 4.594)">
      <circle cx="3.063" cy="3.406" r="3" fill="url(#kmsclient-b)" fill-rule="nonzero" opacity=".704"/>
      <circle cx="6.063" cy="3.406" r="3" fill="url(#kmsclient-c)" fill-rule="nonzero" opacity=".86"/>
      <circle cx="9.063" cy="3.406" r="3" fill="url(#kmsclient-d)" opacity=".855"/>
    </g>
    <g fill-rule="nonzero">
      <use fill="#000" filter="url(#kmsclient-e)" xlink:href="#kmsclient-f"/>
      <use fill="url(#kmsclient-g)" xlink:href="#kmsclient-f"/>
    </g>
    <g fill-rule="nonzero" transform="translate(8.9 9)">
      <circle cx="3.5" cy="3.5" r="3.5" fill="url(#kmsclient-h)"/>
      <path fill="url(#kmsclient-i)" d="M2.61745481,2.03341247 C2.51446249,2.14798772 2.36510241,2.22004436 2.1989126,2.22004436 C1.88818945,2.22004436 1.63629856,1.96815347 1.63629856,1.65743031 C1.63629856,1.34670716 1.88818945,1.09481627 2.1989126,1.09481627 C2.36510241,1.09481627 2.51446249,1.16687291 2.61745481,1.28144816 L4.26183076,1.28235429 C4.88327707,1.28235429 5.38705885,1.78613606 5.38705885,2.40758237 C5.38705885,2.99239798 4.94178103,3.47348449 4.37136063,3.52969453 L4.26301845,3.53517648 L2.75797107,3.53992726 C2.55259656,3.54057554 2.38645062,3.70724677 2.38645062,3.9126223 C2.38645062,4.09442964 2.51745859,4.24563842 2.69022171,4.27699584 L2.75679084,4.28296252 L4.63690679,4.28296252 L4.63690679,4.02466881 C4.63690679,4.01232974 4.64055917,4.00026676 4.64740365,3.99000004 C4.66655068,3.9612795 4.70535501,3.95351863 4.73407555,3.97266566 L4.73407555,3.97266566 L5.68413016,4.6060354 C5.69099593,4.61061258 5.69688737,4.61650402 5.70146454,4.62336978 C5.72061157,4.65209033 5.71285071,4.69089466 5.68413016,4.71004169 L5.68413016,4.71004169 L4.73407555,5.34341143 C4.72380883,5.35025591 4.71174585,5.35390829 4.69940679,5.35390829 C4.66488899,5.35390829 4.63690679,5.32592608 4.63690679,5.29140829 L4.63690679,5.29140829 L4.63690679,5.03311458 L2.75679084,5.03311458 C2.13796004,5.03311458 1.63629856,4.53145309 1.63629856,3.9126223 C1.63629856,3.33027062 2.07970035,2.85121102 2.64771746,2.7952378 L2.75560318,2.78977894 L4.26065055,2.78502816 C4.46864298,2.78437162 4.63690679,2.61557583 4.63690679,2.40758237 C4.63690679,2.22345013 4.50422353,2.07030773 4.32925115,2.03854932 L4.26183076,2.03250634 Z"/>
    </g>
  </g>
</svg>
