<?xml version="1.0" encoding="UTF-8"?>
<svg width="16px" height="16px" viewBox="0 0 16 16" version="1.1" xmlns="http://www.w3.org/2000/svg" xmlns:xlink="http://www.w3.org/1999/xlink">
    <title>apps/16/org.deepin.scanner</title>
    <defs>
        <linearGradient x1="50%" y1="0%" x2="50%" y2="100%" id="linearGradient-1">
            <stop stop-color="#0ECB04" offset="0%"></stop>
            <stop stop-color="#008972" offset="100%"></stop>
        </linearGradient>
        <linearGradient x1="50%" y1="0%" x2="50%" y2="100%" id="linearGradient-2">
            <stop stop-color="#C3FFBF" stop-opacity="0.305015297" offset="0%"></stop>
            <stop stop-color="#83E991" stop-opacity="0.778791521" offset="100%"></stop>
        </linearGradient>
        <linearGradient x1="82.8579015%" y1="17.9712397%" x2="44.7757045%" y2="95.9929801%" id="linearGradient-3">
            <stop stop-color="#FFFFFF" offset="0%"></stop>
            <stop stop-color="#D6DDF6" offset="100%"></stop>
        </linearGradient>
        <linearGradient x1="72.5830172%" y1="28.7120105%" x2="50%" y2="78.125%" id="linearGradient-4">
            <stop stop-color="#FFFFFF" offset="0%"></stop>
            <stop stop-color="#D7FFC6" offset="100%"></stop>
        </linearGradient>
        <radialGradient cx="52.3239218%" cy="53.481434%" fx="52.3239218%" fy="53.481434%" r="61.6060591%" gradientTransform="translate(0.5232, 0.5348), rotate(118.6859), scale(1, 1.2647), translate(-0.5232, -0.5348)" id="radialGradient-5">
            <stop stop-color="#000000" offset="0%"></stop>
            <stop stop-color="#000000" stop-opacity="0.148218969" offset="100%"></stop>
        </radialGradient>
        <linearGradient x1="69.7378787%" y1="71.0965544%" x2="56.9754425%" y2="57.7013487%" id="linearGradient-6">
            <stop stop-color="#C6C6C6" offset="0%"></stop>
            <stop stop-color="#E7E7E7" offset="53.0517663%"></stop>
            <stop stop-color="#F4F4F4" offset="100%"></stop>
        </linearGradient>
        <path d="M10.2111101,-0.184324374 C10.2111101,-0.184324374 10.018418,0.597364731 9.85097289,0.864777873 C9.58586019,1.28816817 9.28504302,1.18627695 9.04495155,1.54161803 C8.80486009,1.89695912 8.89510524,2.15540006 8.34182655,2.62456229 C8.04532274,2.87598782 7.39861009,2.99682437 7.39861009,2.99682437 C9.12087132,2.99682437 10.2111101,1.0400746 10.2111101,-0.184324374 Z" id="path-7"></path>
        <filter x="-71.1%" y="-31.4%" width="242.2%" height="225.7%" filterUnits="objectBoundingBox" id="filter-8">
            <feOffset dx="0" dy="1" in="SourceAlpha" result="shadowOffsetOuter1"></feOffset>
            <feGaussianBlur stdDeviation="0.5" in="shadowOffsetOuter1" result="shadowBlurOuter1"></feGaussianBlur>
            <feColorMatrix values="0 0 0 0 0   0 0 0 0 0   0 0 0 0 0  0 0 0 0.05 0" type="matrix" in="shadowBlurOuter1"></feColorMatrix>
        </filter>
        <linearGradient x1="80.4721539%" y1="19.4465589%" x2="50%" y2="84.7222222%" id="linearGradient-9">
            <stop stop-color="#000000" stop-opacity="0.0351835664" offset="0%"></stop>
            <stop stop-color="#000000" stop-opacity="0.08" offset="100%"></stop>
        </linearGradient>
        <radialGradient cx="50%" cy="50%" fx="50%" fy="50%" r="86.7774354%" gradientTransform="translate(0.5, 0.5), scale(0.5, 1), scale(1, 0.3047), translate(-0.5, -0.5)" id="radialGradient-10">
            <stop stop-color="#EBFF26" offset="0%"></stop>
            <stop stop-color="#F2FF3D" stop-opacity="0" offset="100%"></stop>
        </radialGradient>
        <filter x="0.0%" y="0.0%" width="100.0%" height="100.0%" filterUnits="objectBoundingBox" id="filter-11">
            <feGaussianBlur stdDeviation="0.15625" in="SourceGraphic"></feGaussianBlur>
        </filter>
        <radialGradient cx="50%" cy="50%" fx="50%" fy="50%" r="492.134713%" gradientTransform="translate(0.5, 0.5), scale(0.1, 1), scale(1, 0.072), translate(-0.5, -0.5)" id="radialGradient-12">
            <stop stop-color="#F7FF81" stop-opacity="0.995473976" offset="0%"></stop>
            <stop stop-color="#F8FF98" stop-opacity="0" offset="100%"></stop>
        </radialGradient>
        <radialGradient cx="50%" cy="50%" fx="50%" fy="50%" r="5413.48184%" gradientTransform="translate(0.5, 0.5), scale(0.0091, 1), scale(1, 0.0131), translate(-0.5, -0.5)" id="radialGradient-13">
            <stop stop-color="#FFFFFF" stop-opacity="0.995473976" offset="0%"></stop>
            <stop stop-color="#FFFFFF" stop-opacity="0" offset="100%"></stop>
        </radialGradient>
        <linearGradient x1="0%" y1="50%" x2="99.2134713%" y2="50%" id="linearGradient-14">
            <stop stop-color="#FFFFFF" stop-opacity="0" offset="0%"></stop>
            <stop stop-color="#FFFFFF" stop-opacity="0.891541755" offset="49.7980275%"></stop>
            <stop stop-color="#FFFFFF" stop-opacity="0" offset="100%"></stop>
        </linearGradient>
    </defs>
    <g id="apps/16/org.deepin.scanner" stroke="none" stroke-width="1" fill="none" fill-rule="evenodd">
        <g id="编组-2" transform="translate(0.5, 0.5)">
            <circle id="椭圆形" fill="url(#linearGradient-1)" cx="7.5" cy="7.5" r="7.5"></circle>
            <g id="编组" transform="translate(1.0714, 2.5)">
                <path d="M3.67857143,4 L9.17857143,4 C9.86892737,4 10.4285714,4.55964406 10.4285714,5.25 L10.4285714,8.75 C10.4285714,9.44035594 9.86892737,10 9.17857143,10 L3.67857143,10 C2.98821549,10 2.42857143,9.44035594 2.42857143,8.75 L2.42857143,5.25 C2.42857143,4.55964406 2.98821549,4 3.67857143,4 Z" id="矩形备份-3" fill="#0EA141"></path>
                <path d="M9.17857143,4 C9.86892737,4 10.4285714,4.55964406 10.4285714,5.25 L10.4285714,8.75 C10.4285714,9.44035594 9.86892737,10 9.17857143,10 L3.67857143,10 C2.98821549,10 2.42857143,9.44035594 2.42857143,8.75 L2.42857143,5.25 C2.42857143,4.55964406 2.98821549,4 3.67857143,4 L9.17857143,4 Z M9.17857143,5 L3.67857143,5 C3.54050024,5 3.42857143,5.11192881 3.42857143,5.25 L3.42857143,8.75 C3.42857143,8.88807119 3.54050024,9 3.67857143,9 L9.17857143,9 C9.31664262,9 9.42857143,8.88807119 9.42857143,8.75 L9.42857143,5.25 C9.42857143,5.11192881 9.31664262,5 9.17857143,5 Z" id="矩形备份-3" fill-opacity="0.703316215" fill="#96FF8F" fill-rule="nonzero"></path>
                <path d="M3.92857143,7 L4.92857143,7 C5.2047138,7 5.42857143,7.22385763 5.42857143,7.5 C5.42857143,7.77614237 5.2047138,8 4.92857143,8 L3.92857143,8 C3.65242905,8 3.42857143,7.77614237 3.42857143,7.5 C3.42857143,7.22385763 3.65242905,7 3.92857143,7 Z M6.92857143,7 L7.92857143,7 C8.2047138,7 8.42857143,7.22385763 8.42857143,7.5 C8.42857143,7.77614237 8.2047138,8 7.92857143,8 L6.92857143,8 C6.65242905,8 6.42857143,7.77614237 6.42857143,7.5 C6.42857143,7.22385763 6.65242905,7 6.92857143,7 Z" id="形状结合备份-2" fill="url(#linearGradient-2)" opacity="0.359375"></path>
                <path d="M3.67857143,0 L6.1287594,0 L6.1287594,0 C6.51039771,0.231184645 6.93802929,0.618294661 7.41165414,1.16133005 C7.86278195,1.67857143 8.15413534,2.26559934 8.28571429,2.92241379 L8.28571429,6 L2.42857143,6 L2.42857143,1.25 C2.42857143,0.559644063 2.98821549,1.26816328e-16 3.67857143,0 Z" id="矩形备份-5" fill="url(#linearGradient-3)"></path>
                <path d="M3.67857143,0 L9.17857143,0 C9.86892737,-1.26816328e-16 10.4285714,0.559644063 10.4285714,1.25 L10.4285714,6 L10.4285714,6 L2.42857143,6 L2.42857143,1.25 C2.42857143,0.559644063 2.98821549,1.26816328e-16 3.67857143,0 Z" id="矩形备份-2" fill="url(#linearGradient-4)"></path>
                <path d="M7.21428571,9.09494702e-13 L9.1833741,0.00756556794 C9.87185014,0.0102108084 10.4285714,0.569075225 10.4285714,1.25755634 L10.4285714,2.90933944 L10.4285714,2.90933944 L10.4285714,3.21428571 C10.4196918,2.750067 10.3666228,2.40779897 10.2693644,2.18748163 C10.0642869,1.72292372 9.63406755,1.26378959 9.22321429,0.914838826 C8.60980528,0.393851025 7.94016243,0.0889047497 7.21428571,9.09494702e-13 Z" id="路径" fill-opacity="0.28" fill="url(#radialGradient-5)"></path>
                <g id="路径-11" transform="translate(8.8049, 1.4063) rotate(-90) translate(-8.8049, -1.4063)">
                    <use fill="black" fill-opacity="1" filter="url(#filter-8)" xlink:href="#path-7"></use>
                    <use fill="url(#linearGradient-6)" fill-rule="evenodd" xlink:href="#path-7"></use>
                </g>
                <path d="M3.92857143,3 L8.92857143,3 C9.2047138,3 9.42857143,3.22385763 9.42857143,3.5 C9.42857143,3.77614237 9.2047138,4 8.92857143,4 L3.92857143,4 C3.65242905,4 3.42857143,3.77614237 3.42857143,3.5 C3.42857143,3.22385763 3.65242905,3 3.92857143,3 Z M6.92857143,1 L7.92857143,1 C8.2047138,1 8.42857143,1.22385763 8.42857143,1.5 C8.42857143,1.77614237 8.2047138,2 7.92857143,2 L6.92857143,2 C6.65242905,2 6.42857143,1.77614237 6.42857143,1.5 C6.42857143,1.22385763 6.65242905,1 6.92857143,1 Z M3.92857143,1 L4.92857143,1 C5.2047138,1 5.42857143,1.22385763 5.42857143,1.5 C5.42857143,1.77614237 5.2047138,2 4.92857143,2 L3.92857143,2 C3.65242905,2 3.42857143,1.77614237 3.42857143,1.5 C3.42857143,1.22385763 3.65242905,1 3.92857143,1 Z M5.85714286,5 L7.78571429,5 C8.06185666,5 8.28571429,5.22385763 8.28571429,5.5 C8.28571429,5.77614237 8.06185666,6 7.78571429,6 L5.85714286,6 C5.58100048,6 5.35714286,5.77614237 5.35714286,5.5 C5.35714286,5.22385763 5.58100048,5 5.85714286,5 Z M3.85714286,5 C4.09383632,5 4.28571429,5.19187796 4.28571429,5.42857143 L4.28571429,5.57142857 C4.28571429,5.80812204 4.09383632,6 3.85714286,6 C3.62044939,6 3.42857143,5.80812204 3.42857143,5.57142857 L3.42857143,5.42857143 C3.42857143,5.19187796 3.62044939,5 3.85714286,5 Z" id="形状结合备份" fill="url(#linearGradient-9)"></path>
                <g id="编组-3" transform="translate(0, 2.7857)">
                    <polygon id="矩形" fill="url(#radialGradient-10)" opacity="0.799153646" filter="url(#filter-11)" points="0 2.86272321 6.42857143 0 12.8571429 2.56138393 12.8571429 3.96763393 6.51141384 6.42857143 0 4.26897321"></polygon>
                    <rect id="矩形备份-7" fill="url(#radialGradient-12)" x="1.07142857" y="2.73214286" width="10.7142857" height="1.07142857"></rect>
                    <rect id="矩形备份-10" fill="url(#radialGradient-13)" opacity="0.95265997" x="0" y="3.21428571" width="11.7857143" height="1"></rect>
                    <rect id="矩形备份-22" fill="url(#linearGradient-14)" opacity="0.95265997" x="3.21428571" y="3.21428571" width="7.5" height="1"></rect>
                </g>
            </g>
        </g>
        <g id="Guide/16" transform="translate(0.5, 0.5)"></g>
    </g>
</svg>