<svg xmlns="http://www.w3.org/2000/svg" width="16" height="16" viewBox="0 0 16 16">
  <defs>
    <linearGradient id="org.deepin.browser-a" x1="50%" x2="50%" y1="0%" y2="98.139%">
      <stop offset="0%" stop-color="#FFF"/>
      <stop offset="100%" stop-color="#EDEDED"/>
    </linearGradient>
    <linearGradient id="org.deepin.browser-b" x1="14.027%" x2="96.311%" y1="-16.187%" y2="43.414%">
      <stop offset="0%" stop-color="#4BFFE4"/>
      <stop offset="100%" stop-color="#2976FF"/>
    </linearGradient>
    <linearGradient id="org.deepin.browser-c" x1="3.368%" x2="105.703%" y1="-17.121%" y2="82.924%">
      <stop offset="0%" stop-color="#22E3FF"/>
      <stop offset="100%" stop-color="#33F"/>
    </linearGradient>
    <linearGradient id="org.deepin.browser-d" x1="-20.863%" x2="72.175%" y1="-72.352%" y2="115.66%">
      <stop offset="0%" stop-color="#00FFF9"/>
      <stop offset="100%" stop-color="#392AFF"/>
    </linearGradient>
  </defs>
  <g fill="none" fill-rule="evenodd">
    <rect width="14" height="14" x="1" y="1" fill="url(#org.deepin.browser-a)" rx="7"/>
    <path fill="#000" fill-opacity=".08" fill-rule="nonzero" d="M8,0 C3.581722,0 0,3.581722 0,8 C0,12.418278 3.581722,16 8,16 C12.418278,16 16,12.418278 16,8 C16,3.581722 12.418278,0 8,0 Z M8,1 C11.8659932,1 15,4.13400675 15,8 C15,11.8659932 11.8659932,15 8,15 C4.13400675,15 1,11.8659932 1,8 C1,4.13400675 4.13400675,1 8,1 Z"/>
    <path fill="url(#org.deepin.browser-b)" d="M14.3948737,5.17625499 L14.4114118,5.18601849 C14.7899069,6.0471483 15,6.99903921 15,8 C15,11.8659932 11.8659932,15 8,15 C6.77797654,15 5.62909056,14.6868612 4.62920541,14.1364471 C6.50688874,14.7268909 8.56914962,13.8275049 9.38872856,11.9867005 C10.2705705,10.006051 9.37981103,7.68554314 7.39916152,6.80370117 C6.48710078,6.39762556 5.50297408,6.3674249 4.62044477,6.64643606 L4.40297467,6.72197506 L4.47235723,6.62255971 C5.9352657,4.60817487 10.159114,2.66885453 14.3948737,5.17625499 Z"/>
    <path fill="url(#org.deepin.browser-c)" d="M9.91749351,5.84587424 C12.4247822,6.53717357 13.7736416,8.26185695 14.3583124,9.97895971 C14.4147295,10.1446495 14.4709368,10.3342888 14.5228437,10.5436954 C13.5049192,13.1525825 10.9682033,15 8,15 C6.77797654,15 5.62909056,14.6868612 4.62920541,14.1364471 C6.50688874,14.7268909 8.56914962,13.8275049 9.38872856,11.9867005 C10.2705705,10.006051 9.37981103,7.68554314 7.39916152,6.80370117 C6.48710078,6.39762556 5.50297408,6.3674249 4.62044477,6.64643606 L4.40297467,6.72197506 L4.42397467,6.69087816 L4.43902318,6.67840461 C5.42576666,5.84648449 7.49975085,5.17926417 9.91749351,5.84587424 Z"/>
    <path fill="url(#org.deepin.browser-d)" d="M8.7693021,6.74007551 C10.9555363,7.89021873 11.9063689,9.80721851 11.7928978,11.7368962 C11.7469755,12.5178457 11.5013357,13.4227042 11.00313,14.3236152 C10.0927897,14.7578227 9.07467664,15 8,15 C6.77797654,15 5.62909056,14.6868612 4.62920541,14.1364471 C6.50688874,14.7268909 8.56914962,13.8275049 9.38872856,11.9867005 C10.2705705,10.006051 9.37981103,7.68554314 7.39916152,6.80370117 C6.48710078,6.39762556 5.50297408,6.3674249 4.62044477,6.64643606 L4.40297467,6.72197506 L4.44868375,6.65556481 C5.51103114,6.09738163 7.08439403,5.85367204 8.7693021,6.74007551 Z"/>
  </g>
</svg>
