<svg xmlns="http://www.w3.org/2000/svg" xmlns:xlink="http://www.w3.org/1999/xlink" width="16" height="16" viewBox="0 0 16 16">
  <defs>
    <circle id="thunderbird-a" cx="7" cy="7.667" r="7"/>
    <linearGradient id="thunderbird-b" x1="124.21%" x2="58.624%" y1="130.676%" y2="61.842%">
      <stop offset="0%" stop-color="#A4D8E5"/>
      <stop offset="34.403%" stop-color="#0C418F"/>
      <stop offset="100%" stop-color="#000060"/>
    </linearGradient>
    <linearGradient id="thunderbird-d" x1="50.011%" x2="50.011%" y1="96.755%" y2="52.831%">
      <stop offset="0%" stop-color="#A4D8E5"/>
      <stop offset="50%" stop-color="#0C418F"/>
      <stop offset="100%" stop-color="#000060"/>
    </linearGradient>
    <linearGradient id="thunderbird-e" x1="18.078%" x2="66.348%" y1="20.348%" y2="78.816%">
      <stop offset="0%" stop-color="#FFE6C7"/>
      <stop offset="100%" stop-color="#FFFFF1"/>
    </linearGradient>
    <linearGradient id="thunderbird-f" x1="46.955%" x2="30.691%" y1="32.534%" y2="61.811%">
      <stop offset="0%" stop-color="#FFE8CC"/>
      <stop offset="100%" stop-color="#FFFFF8"/>
    </linearGradient>
    <path id="thunderbird-h" d="M7.68813904,4.94661905 C7.0714643,4.86045964 6.49134615,4.66287302 5.86891026,4.7263254 C5.39711538,4.77383333 5.06282051,5.03122222 4.66378205,5.26550794 C4.63698718,5.29271111 4.58737179,5.32975429 4.53259744,5.36778667 L4.31089744,5.5157381 L3.81089744,5.7711746 C3.80865385,5.7711746 3.12980769,6.10470635 3.08589744,6.53846032 C2.67788462,6.12423016 3.04519231,5.20400794 3.04326923,5.20400794 C3.04198718,5.20400794 3.04412393,5.20964815 3.04939459,5.21957878 L3.05961538,5.23752381 L3.04839744,4.94661905 C3.04463524,4.79026496 3.01536912,4.5968682 2.99179721,4.39407464 C2.55622866,4.71153542 2.21083824,5.07125731 1.96898319,5.51745371 C0.874344551,7.53182263 1.824293,8.7791218 1.82556547,8.7791218 C1.41803853,8.72102396 1.00910038,8.3596531 0.703830549,7.82323109 L0.711229953,7.88613568 L0.711574274,7.94431695 C0.712226314,8.0153501 0.714113125,8.14677027 0.719572989,8.31255524 C0.720137213,8.3151634 0.988945598,10.8580867 1.93597822,12.1622408 C0.133152749,11.5706367 -0.0811157538,8.06810872 -0.0927469635,7.84977846 L-0.0932865033,7.83911012 C-0.100715257,7.71349304 -0.104528123,7.58533935 -0.102193763,7.45678586 C-0.0900699927,6.71199974 0.0107689889,6.08373171 0.200472857,5.57198179 L0.216607793,5.53284803 C0.246295757,5.15642069 0.329271927,4.77256431 0.47791183,4.39637995 C1.06197959,2.9611757 3.53485217,1.20578826 4.80580367,0.800023172 C5.05073916,0.721824854 5.76272146,0.665937949 6.56925921,0.66777664 C6.68634543,0.63080573 6.8072326,0.605054175 6.93269589,0.591855196 C7.25865742,0.55768853 8.02628563,0.543045672 8.29583691,0.562244085 C8.68622153,0.591855196 9.09840101,0.617236149 9.48525999,0.695656784 C9.93493947,0.788720276 10.4314103,1.32365079 10.775,1.64774603 L10.8410518,1.72476151 C11.8959153,2.16827037 12.7964524,3.0413285 13.36384,4.37707724 C13.61184,4.96636585 13.79648,5.6214878 13.90272,6.31097154 C13.9008,6.31161382 13.9008,6.31161382 13.9008,6.3122561 L13.9008,6.3122561 C13.910513,6.39044322 13.9154931,6.46583648 13.9179396,6.53851542 C14.3971472,11.2449088 11.619008,13.3048081 11.4948438,13.3947609 L11.49056,13.3978496 L11.328,13.3320163 C11.0144,13.9742927 9.42336,14.5831707 8.78336,14.5831707 C9.29184,14.2703821 9.4848,14.0359512 9.48288,14.0359512 C9.48096,14.0359512 8.60512,14.5337154 7.1792,14.435126 C8.27922424,13.9452832 10.4381153,12.0890253 10.7850326,8.49037201 L10.8111358,8.16271524 L10.8034954,8.06446777 C10.2900004,9.13010897 9.41129738,9.24970732 9.41216,9.24970732 C10.2706811,8.09243883 10.0661192,6.2397227 9.36612733,4.98774018 C8.80096118,5.10117995 7.89151048,4.97503332 7.68813904,4.94661905 Z M10.8111358,8.16271524 L10.8131358,8.18671524 L10.8121358,8.15071524 L10.8111358,8.16271524 Z M13.20448,5.59515447 C13.2043902,5.6688169 13.2026915,5.74016082 13.1995346,5.80924204 L13.2670371,5.8359914 C13.2314133,5.68493494 13.2041825,5.59515447 13.20448,5.59515447 Z M12.18624,5.0684878 C12.2048302,5.18416583 12.2207962,5.29647048 12.2342928,5.40549799 L12.3144285,5.43779247 C12.2468375,5.18681155 12.1857446,5.0684878 12.18624,5.0684878 Z"/>
    <filter id="thunderbird-g" width="149.7%" height="149.9%" x="-24.9%" y="-17.8%" filterUnits="objectBoundingBox">
      <feOffset dy="1" in="SourceAlpha" result="shadowOffsetOuter1"/>
      <feGaussianBlur in="shadowOffsetOuter1" result="shadowBlurOuter1" stdDeviation="1"/>
      <feComposite in="shadowBlurOuter1" in2="SourceAlpha" operator="out" result="shadowBlurOuter1"/>
      <feColorMatrix in="shadowBlurOuter1" values="0 0 0 0 0.0378745226   0 0 0 0 0.382748737   0 0 0 0 0.828922194  0 0 0 0.2 0"/>
    </filter>
    <linearGradient id="thunderbird-i" x1="50.011%" x2="50.011%" y1="96.755%" y2="52.831%">
      <stop offset="0%" stop-color="#A4D8E5"/>
      <stop offset="50%" stop-color="#0C418F"/>
      <stop offset="100%" stop-color="#000060"/>
    </linearGradient>
    <linearGradient id="thunderbird-j" x1="49.961%" x2="49.961%" y1="96.763%" y2="52.781%">
      <stop offset="0%" stop-color="#A4D8E5"/>
      <stop offset="50%" stop-color="#0C418F"/>
      <stop offset="100%" stop-color="#000060"/>
    </linearGradient>
    <linearGradient id="thunderbird-k" x1="52.423%" x2="47.577%" y1="92.162%" y2="0%">
      <stop offset="0%" stop-color="#000060"/>
      <stop offset="100%" stop-color="#3268C3"/>
    </linearGradient>
    <linearGradient id="thunderbird-l" x1="38.538%" x2="9.875%" y1="69.078%" y2="37.57%">
      <stop offset="0%" stop-color="#0909B3"/>
      <stop offset="100%" stop-color="#58B1E1"/>
    </linearGradient>
    <linearGradient id="thunderbird-m" x1="22.186%" x2="67.429%" y1="31.456%" y2="67.566%">
      <stop offset="0%" stop-color="#3E98EB"/>
      <stop offset="67%" stop-color="#094895"/>
      <stop offset="100%" stop-color="#0F308D"/>
    </linearGradient>
    <linearGradient id="thunderbird-n" x1="14.173%" x2="50%" y1="50%" y2="73.769%">
      <stop offset="0%" stop-color="#0037A7"/>
      <stop offset="100%" stop-color="#57B7FF" stop-opacity=".329"/>
    </linearGradient>
    <linearGradient id="thunderbird-o" x1="57.015%" x2="34.4%" y1="80.81%" y2="25.594%">
      <stop offset="0%" stop-color="#769EB8"/>
      <stop offset="100%" stop-color="#FFF"/>
    </linearGradient>
    <linearGradient id="thunderbird-p" x1="67.087%" x2="64.764%" y1="-20.242%" y2="93.962%">
      <stop offset="0%" stop-color="#A4CAE5"/>
      <stop offset="50%" stop-color="#0C418F"/>
      <stop offset="100%" stop-color="#160047"/>
    </linearGradient>
    <linearGradient id="thunderbird-q" x1="50%" x2="50%" y1="0%" y2="113.856%">
      <stop offset="0%" stop-color="#4848E6"/>
      <stop offset="50%" stop-color="#0C418F"/>
      <stop offset="82.58%" stop-color="#010765"/>
      <stop offset="100%" stop-color="#000060"/>
    </linearGradient>
    <linearGradient id="thunderbird-r" x1="50%" x2="50%" y1="24.881%" y2="113.856%">
      <stop offset="0%" stop-color="#3C5ADB"/>
      <stop offset="50%" stop-color="#0C418F"/>
      <stop offset="100%" stop-color="#000060"/>
    </linearGradient>
    <linearGradient id="thunderbird-s" x1="49.964%" x2="50%" y1="10.46%" y2="113.856%">
      <stop offset="0%" stop-color="#0550CE"/>
      <stop offset="50%" stop-color="#0043A5"/>
      <stop offset="100%" stop-color="#000060"/>
    </linearGradient>
    <linearGradient id="thunderbird-t" x1="6.194%" x2="69.562%" y1="33.367%" y2="95.302%">
      <stop offset="0%" stop-color="#2D76AB"/>
      <stop offset="36.587%" stop-color="#4789EF"/>
      <stop offset="100%" stop-color="#0D3B90"/>
    </linearGradient>
    <linearGradient id="thunderbird-u" x1="15.052%" x2="38.825%" y1="100%" y2="19.345%">
      <stop offset="0%" stop-color="#3488DA"/>
      <stop offset="100%" stop-color="#0057D8"/>
    </linearGradient>
  </defs>
  <g fill="none" fill-rule="evenodd" transform="translate(1 .333)">
    <mask id="thunderbird-c" fill="#fff">
      <use xlink:href="#thunderbird-a"/>
    </mask>
    <path fill="url(#thunderbird-b)" fill-rule="nonzero" d="M4.08012547,11.8337057 C1.91185651,10.5295516 1.52903271,7.64271995 1.53340276,7.64271995 L-0.333333333,7.16666667 C-0.333333333,7.16666667 -0.180665056,11.2230176 4.08012547,11.8337057 Z" mask="url(#thunderbird-c)"/>
    <path fill="url(#thunderbird-d)" fill-rule="nonzero" d="M1.16697763,10.6373273 C0.467121479,8.17589343 0.658880003,9.43502887 2.31499415,10.4943924 C2.35385931,11.1768524 2.58431847,12.0704115 3.00637163,13.1750698 C2.63747859,13.117381 1.57860744,11.9623147 1.16697763,10.6373273 Z" mask="url(#thunderbird-c)"/>
    <polygon fill="url(#thunderbird-e)" fill-rule="nonzero" stroke="#D5B593" points="4.811 8.705 1.951 4.099 .702 5.717 .59 9.81 9.527 12.75 11.399 9.531 11.035 6.334" mask="url(#thunderbird-c)"/>
    <polygon fill="url(#thunderbird-f)" fill-rule="nonzero" points="11.035 6.334 10.912 5.251 2.075 3.938 2.028 3.998 1.951 4.099 4.811 8.705" mask="url(#thunderbird-c)"/>
    <polygon fill="url(#thunderbird-f)" fill-rule="nonzero" stroke="#F1D4B5" points="11.035 6.334 10.912 5.251 2.075 3.938 2.028 3.998 1.951 4.099 4.811 8.705" mask="url(#thunderbird-c)"/>
    <g fill-rule="nonzero" mask="url(#thunderbird-c)">
      <use fill="#000" filter="url(#thunderbird-g)" xlink:href="#thunderbird-h"/>
      <use fill="#000" fill-opacity=".1" xlink:href="#thunderbird-h"/>
    </g>
    <path fill="url(#thunderbird-i)" fill-rule="nonzero" d="M3.17345114,13.2686299 C3.17345114,13.2686299 1.7807374,13.1726462 0.595753688,10.7933461 C-0.104102462,8.33191223 1.51924569,12.2092664 3.17535983,13.2686299 L3.17345114,13.2686299 L3.17345114,13.2686299 Z" mask="url(#thunderbird-c)"/>
    <path fill="url(#thunderbird-j)" fill-rule="nonzero" d="M-0.0932865033,7.83911012 C-0.0932865033,7.83911012 0.0749970892,11.5515527 1.93597822,12.1622408 C0.988945598,10.8580867 0.720137213,8.3151634 0.722045912,8.3151634 L-0.0932865033,7.83911012 L-0.0932865033,7.83911012 Z" mask="url(#thunderbird-c)"/>
    <path fill="url(#thunderbird-k)" fill-rule="nonzero" d="M1.0045333,10.1974742 C0.613250092,10.27993 -0.128279311,8.89332014 -0.102193763,7.45678586 C-0.0866060582,6.4992037 0.0756333221,5.7342331 0.384842494,5.16187404 L0.711229953,7.88613568 C0.711229953,7.88613568 0.711229953,9.75169768 1.006442,10.1974742 L1.0045333,10.1974742 L1.0045333,10.1974742 Z" mask="url(#thunderbird-c)"/>
    <path fill="url(#thunderbird-l)" fill-rule="nonzero" d="M4.80580367,0.800023172 C3.31448391,1.22132391 1.06197959,2.9611757 0.47791183,4.39637995 C-0.314834318,6.40269654 0.760187923,8.62723947 1.82556547,8.7791218 C1.824293,8.7791218 0.874344551,7.53182263 1.96898319,5.51745371 C2.69683359,4.17464846 4.36238125,3.61502412 6.63309634,2.61331524 C12.2261264,2.11867458 10.8541532,1.18172728 8.48879184,0.800023172 C7.19378366,0.591044556 5.25283323,0.673736451 4.80580367,0.800023172 Z" mask="url(#thunderbird-c)"/>
    <path fill="url(#thunderbird-m)" fill-rule="nonzero" d="M9.48525999,0.695656784 C9.09840101,0.617236149 8.68622153,0.591855196 8.29583691,0.562244085 C8.02628563,0.543045672 7.25865742,0.55768853 6.93269589,0.591855196 C6.10993947,0.678410752 5.48397436,1.30477778 4.82211538,1.77985714 C4.21570513,2.21296032 3.32307692,2.68478571 3.05961538,3.44198413 C2.85064103,3.86239683 3.03846154,4.53369048 3.04839744,4.94661905 L3.05961538,5.23752381 C3.04711538,5.21669841 3.04134615,5.20400794 3.04326923,5.20400794 C3.04519231,5.20400794 2.67788462,6.12423016 3.08589744,6.53846032 C3.12980769,6.10470635 3.80865385,5.7711746 3.81089744,5.7711746 L4.31089744,5.5157381 C4.38717949,5.46302381 4.59679487,5.33351587 4.66378205,5.26550794 C5.06282051,5.03122222 5.39711538,4.77383333 5.86891026,4.7263254 C6.49134615,4.66287302 7.0714643,4.86045964 7.68813904,4.94661905 C7.93667686,4.98134379 9.23974359,5.16203175 9.68205128,4.87568254 C9.88974359,4.74031746 9.56185897,4.0498254 9.68205128,3.84580159 C9.82532051,3.59622222 9.84294872,3.37723016 9.84038462,3.09185714 C10.1730769,3.01148413 10.5455128,2.87286508 10.763141,2.58586508 C10.9407051,2.33498413 11.0298077,1.89211905 10.775,1.64774603 C10.4314103,1.32365079 9.93493947,0.788720276 9.48525999,0.695656784 Z" mask="url(#thunderbird-c)"/>
    <path fill="url(#thunderbird-n)" fill-rule="nonzero" d="M3.73846154,5.30423016 C5.26634615,5.25411905 4.45608974,4.19723016 6.49551282,2.19571429 C4.83397436,3.17450794 3.10352564,3.15238095 3.74038462,5.30423016 L3.73846154,5.30423016 L3.73846154,5.30423016 Z" mask="url(#thunderbird-c)"/>
    <path fill="#000064" fill-rule="nonzero" d="M4.52564103,4.68695238 C4.23846154,4.97850794 3.89487179,4.9105 3.86794872,4.52620635 C3.82596154,3.98311905 4.39967949,3.92584921 4.64935897,4.0085 C4.73333333,4.2545 4.62692308,4.49496825 4.52788462,4.68695238" mask="url(#thunderbird-c)"/>
    <path fill="#F5A623" fill-rule="nonzero" d="M4.55352564,4.61438889 C4.46057692,4.78977778 4.24455128,4.86038889 4.125,4.79433333 C4.0025641,4.72827778 4.00320513,4.50765873 4.09807692,4.33194444 C4.18942308,4.15655556 4.59294872,4.23530159 4.59487179,4.23530159 C4.59679487,4.23530159 4.64615385,4.4393254 4.55320513,4.61438889 L4.55352564,4.61438889 Z" mask="url(#thunderbird-c)"/>
    <path fill="#000" fill-rule="nonzero" d="M4.15635981,4.65603576 C4.2544041,4.77242191 4.40426647,4.81393771 4.49261817,4.74864791 C4.57761474,4.68229361 4.6167579,4.48819842 4.52020478,4.37181227 C4.42104211,4.25471645 4.22308957,4.26039382 4.13883858,4.32603845 C4.04862292,4.39132824 4.05794272,4.53964961 4.15859656,4.65603576 L4.15635981,4.65603576 L4.15635981,4.65603576 Z" mask="url(#thunderbird-c)"/>
    <path fill="url(#thunderbird-o)" fill-rule="nonzero" d="M3.82660256,5.74839683 C3.82660256,5.74839683 3.82660256,5.58179365 3.77916667,5.41486508 C3.21346154,5.60977778 3.03846154,5.20400794 3.04038462,5.20400794 C3.04230769,5.20400794 2.67435897,6.12423016 3.08269231,6.53846032 C3.12660256,6.10470635 3.80544872,5.7711746 3.80737179,5.7711746" mask="url(#thunderbird-c)"/>
    <path fill="#000" fill-rule="nonzero" d="M3.07980769,5.97636508 C3.07980769,5.97636508 3.08927739,5.55336508 3.33233294,5.47636508 C3.32980769,5.55936508 3.45417638,5.62386508 3.57980769,5.62386508 C3.24079254,5.65036508 3.07980769,5.97636508 3.08422688,5.97636508 L3.08043901,5.97636508 L3.07980769,5.97636508 Z" mask="url(#thunderbird-c)"/>
    <path fill="url(#thunderbird-p)" d="M14.0647734,6.08713821 L10.99808,4.88736585 L10.752,7.66938618 C10.78336,7.84890244 10.80448,8.04319106 10.81824,8.24871951 C10.81472,8.21435772 10.8128,8.18160163 10.81216,8.14788211 C10.57408,11.9716748 8.3136,13.9299756 7.1792,14.435126 C8.60512,14.5337154 9.48096,14.0359512 9.48288,14.0359512 C9.4848,14.0359512 9.29184,14.2703821 8.78336,14.5831707 C9.42336,14.5831707 11.0144,13.9742927 11.328,13.3320163 L11.49056,13.3978496 C11.48992,13.3978496 14.5904,11.2250285 13.86528,6.08713821 L14.0647734,6.08713821 Z" mask="url(#thunderbird-c)"/>
    <path fill="url(#thunderbird-q)" fill-rule="nonzero" d="M10.99808,4.88736585 L10.752,7.66938618 C10.77824,7.82 10.79712,7.98153252 10.81088,8.15077236 C10.81344,8.18160163 10.81536,8.21435772 10.81952,8.24871951 C10.816,8.21596341 10.81344,8.18352846 10.8128,8.15141463 C10.80288,8.29014634 10.79136,8.42663008 10.77952,8.56086585 C10.74272,9.16010976 10.6850949,10.4714494 11.0546949,11.1451974 C11.3058949,10.7636852 11.61088,10.0885203 11.69856,9.61163008 C11.73792,10.0959065 11.50976,10.7179512 11.28608,11.200622 C11.1254811,11.5587779 11.0784616,11.7549832 11.1450216,11.7892379 C11.1821416,11.8049737 11.5227491,11.573666 11.66208,11.4437236 C11.97632,11.0538618 12.48672,10.3329065 12.6192,9.61163008 C12.66528,10.180687 12.1792306,11.1056857 11.9264306,11.6050556 C13.0038706,11.3092873 13.90144,8.77281707 13.91648,8.73074797 C14.00096,7.95455691 14.00288,7.07592276 13.86528,6.08713821 L10.99808,4.88736585 Z" mask="url(#thunderbird-c)"/>
    <path fill="url(#thunderbird-r)" fill-rule="nonzero" d="M11.62144,7.38935366 C11.8016,8.44300813 11.09632,9.99025203 11.0982361,9.99025203 C11.10016,9.99025203 12.152,9.78311789 12.61728,7.53290244 C12.61728,7.53290244 12.51808,9.09556098 12.31296,9.46358537 C12.31168,9.46358537 13.32864,8.98637398 13.54368,7.04380894 C13.75904,5.1012439 12.36128,3.91592276 11.9184,4.1465 C11.62336,4.30000407 11.52416,5.38095528 11.62144,7.38935366 L11.62144,7.38935366 Z" mask="url(#thunderbird-c)"/>
    <path fill="url(#thunderbird-s)" fill-rule="nonzero" d="M13.9008,6.3122561 C13.9008,6.31161382 13.9008,6.31161382 13.90272,6.31097154 C13.79648,5.6214878 13.61184,4.96636585 13.36384,4.37707724 C12.72544,2.87415041 11.66528,1.95697967 10.43808,1.57835772 C7.64832,1.31502439 6.2704,3.27910569 6.272318,3.27910569 C7.32352,3.27910569 8.4496,3.61758537 9.1824,4.68986585 C10.02496,5.9281748 10.34176,7.99662602 9.41216,9.24970732 C9.41088,9.24970732 11.34624,8.98637398 11.15136,5.75957724 C11.15008,5.75957724 11.83904,7.10964228 10.9552,8.9696748 C10.95392,8.9696748 12.74176,8.52521951 12.18624,5.0684878 C12.18496,5.0684878 12.59488,5.8584878 12.4656,7.68576423 C12.46432,7.68576423 13.20256,7.17097967 13.20448,5.59515447 C13.2032,5.59515447 13.71168,7.25768699 13.20512,8.31134146 C13.20384,8.31134146 13.21248,8.28243902 13.2512,8.25321545 C13.40928,8.11897967 14.02976,7.58685366 13.90272,6.3122561 L13.9008,6.3122561 L13.9008,6.3122561 Z" mask="url(#thunderbird-c)"/>
    <path fill="url(#thunderbird-t)" fill-rule="nonzero" d="M9.30112,4.88383333 C9.656,5.47472764 9.87136,6.1542561 9.94752,6.83828049 C9.99872,6.97797561 10.13184,7.20180894 10.31552,7.15042683 C10.46656,7.10707317 10.60352,6.93237398 10.6928,6.80680894 C10.80576,6.64270732 10.85024,6.44328049 10.95872,6.27660976 C11.00896,6.19439837 11.08,6.12182114 11.08992,6.02034146 C11.09184,5.98501626 11.07936,5.77434959 11.152,5.78077236 C11.15008,5.77370732 11.15008,5.76696341 11.15136,5.75957724 C11.15008,5.75957724 11.15488,5.76953252 11.16448,5.78687398 C11.2144,5.83022764 11.2336,5.93170732 11.2544,5.9920813 C11.28288,6.08778049 11.30816,6.18444309 11.33376,6.28110569 C11.37408,6.44713415 11.48736,6.74611382 11.69952,6.56113821 C11.79584,6.47475203 11.85568,6.34372764 11.90816,6.22586992 C11.95584,6.11122358 11.98464,5.99689837 12.00384,5.87293902 C12.0352,5.63850813 12.0256,5.31865447 12.19936,5.13367886 C12.19488,5.11184146 12.19136,5.09000407 12.19008,5.0684878 C12.1888,5.0684878 12.20192,5.09385772 12.22496,5.14523984 C12.3024,5.19726423 12.41056,5.24671951 12.50368,5.1953374 C12.58848,5.1474878 12.62592,5.03862195 12.65088,4.94902439 C12.6848,4.81221951 12.69728,4.66867073 12.72608,4.52897561 C12.75648,4.36904878 12.78848,4.20494715 12.77728,4.04180894 C12.84704,4.20302033 12.9232,4.35973577 12.98592,4.52576423 C13.0352,4.66353252 13.08576,4.80226423 13.09696,4.94966667 C13.1056,5.07491057 13.10272,5.20079675 13.12,5.32571951 C13.1312,5.42527236 13.15392,5.54762602 13.24256,5.61089024 C13.28064,5.0768374 13.36256,4.49878862 13.192,3.97918699 C12.91328,3.43678455 12.55168,2.93484553 12.1024,2.52410976 C11.6272,2.09282114 11.06368,1.76686585 10.45408,1.57835772 C7.664,1.31502439 6.2864,3.28006911 6.288318,3.28006911 C6.85504,3.28006911 7.42912,3.37865854 7.9488,3.62111789 C8.50848,3.89215854 8.97184,4.33597154 9.30304,4.88383333 L9.30112,4.88383333 L9.30112,4.88383333 Z" mask="url(#thunderbird-c)"/>
    <path fill="url(#thunderbird-u)" fill-rule="nonzero" d="M3,3.54955487 C3.89519231,0.774570748 5.61405745,0 5.61598053,0 C4.92984239,0.712456069 4.68475549,1.28323009 4.68667857,1.28323009 C4.91808882,1.16446025 5.2055984,0.574014456 5.81309591,0.467269841 C5.28617649,0.911482423 5.31687015,1.17910597 5.31879322,1.17910597 C5.47584451,1.11239962 5.43457027,1.05949206 5.96758309,0.833992063 C5.61598053,1.05618851 5.47127756,1.41804434 5.47320064,1.41804434 C5.03615388,1.70033454 4.61189399,1.98784123 4.20042095,2.28056442 C3.78894791,2.57328761 3.38880759,2.99628443 3,3.54955487 Z"/>
  </g>
</svg>
