<?xml version="1.0" encoding="UTF-8"?>
<svg width="16px" height="16px" viewBox="0 0 16 16" version="1.1" xmlns="http://www.w3.org/2000/svg" xmlns:xlink="http://www.w3.org/1999/xlink">
    <title>apps/16/UosAiAssistant</title>
    <defs>
        <linearGradient x1="50%" y1="106.87104%" x2="50%" y2="-8.08228935%" id="linearGradient-1">
            <stop stop-color="#001563" offset="0%"></stop>
            <stop stop-color="#0065CB" offset="99.0763631%"></stop>
        </linearGradient>
        <linearGradient x1="89.1945791%" y1="31.2565587%" x2="23.451462%" y2="83.1564067%" id="linearGradient-2">
            <stop stop-color="#006CFF" offset="0%"></stop>
            <stop stop-color="#4B95EA" stop-opacity="0" offset="100%"></stop>
        </linearGradient>
        <linearGradient x1="67.5404174%" y1="50%" x2="13.8811092%" y2="37.1532496%" id="linearGradient-3">
            <stop stop-color="#5ADB70" stop-opacity="0" offset="0%"></stop>
            <stop stop-color="#11FFA4" offset="100%"></stop>
        </linearGradient>
        <linearGradient x1="26.9035799%" y1="93.0979443%" x2="88.5660898%" y2="27.2327961%" id="linearGradient-4">
            <stop stop-color="#EEC61F" offset="0%"></stop>
            <stop stop-color="#8EFFC5" stop-opacity="0" offset="100%"></stop>
        </linearGradient>
        <linearGradient x1="88.6588606%" y1="70.6661826%" x2="50%" y2="54.3068293%" id="linearGradient-5">
            <stop stop-color="#D840A5" offset="0%"></stop>
            <stop stop-color="#8EFFC5" stop-opacity="0" offset="100%"></stop>
        </linearGradient>
        <path d="M7.01155148,1 C10.1843679,1 12.8374078,2.98424143 12.9895263,7.03727322 C13.0170241,7.459889 12.9942383,7.98433713 12.9267229,8.57066937 C13.2775965,8.73830488 13.6505483,9.01476653 14.00211,9.37363848 L14.0009204,10.9099099 C14.0009204,11.5714037 13.7930675,12.1843508 13.4391099,12.687003 C13.051294,12.411072 12.6609752,12.0243087 12.3202694,11.5586517 C12.0909819,12.3763937 11.8095096,13.1950902 11.4854759,13.9459303 C11.2993477,13.9816777 11.1072287,14 10.9108303,14 L3.09101053,14 C2.9352348,14 2.78215127,13.9884733 2.63256634,13.9662264 C2.39888895,13.3966014 2.18674908,12.7875693 1.99825213,12.1664769 C1.61447773,12.558535 1.20486393,12.8518438 0.826454483,13.0117325 C0.313607097,12.459556 0.000920435956,11.7212489 0.000920435956,10.9099099 L-9.17113607e-14,10.4671607 C0.0592661153,10.365773 0.123125859,10.2640741 0.191522477,10.1625725 C0.506812874,9.69467655 0.874543755,9.29621954 1.24714505,8.99623328 C1.1199323,8.26741214 1.03677138,7.59602865 1.0012633,7.03727322 C0.965033227,3.37721135 3.80537535,1 7.01155148,1 Z" id="path-6"></path>
        <filter x="-7.1%" y="-7.7%" width="114.3%" height="115.4%" filterUnits="objectBoundingBox" id="filter-8">
            <feGaussianBlur stdDeviation="1" in="SourceAlpha" result="shadowBlurInner1"></feGaussianBlur>
            <feOffset dx="0" dy="0" in="shadowBlurInner1" result="shadowOffsetInner1"></feOffset>
            <feComposite in="shadowOffsetInner1" in2="SourceAlpha" operator="arithmetic" k2="-1" k3="1" result="shadowInnerInner1"></feComposite>
            <feColorMatrix values="0 0 0 0 0.425990854   0 0 0 0 0.741752332   0 0 0 0 1  0 0 0 1 0" type="matrix" in="shadowInnerInner1"></feColorMatrix>
        </filter>
        <linearGradient x1="50%" y1="109.360765%" x2="50%" y2="-8.83481406%" id="linearGradient-9">
            <stop stop-color="#0069D2" offset="0%"></stop>
            <stop stop-color="#130B75" offset="100%"></stop>
        </linearGradient>
        <radialGradient cx="47.2409555%" cy="28.1029292%" fx="47.2409555%" fy="28.1029292%" r="83.8525507%" gradientTransform="translate(0.4724, 0.281), scale(0.6245, 1), rotate(90), scale(1, 1.2329), translate(-0.4724, -0.281)" id="radialGradient-10">
            <stop stop-color="#EFF5FF" offset="0%"></stop>
            <stop stop-color="#E4EEFF" offset="40.9128%"></stop>
            <stop stop-color="#B6D1FF" offset="100%"></stop>
            <stop stop-color="#B6D1FF" offset="100%"></stop>
        </radialGradient>
    </defs>
    <g id="apps/16/UosAiAssistant" stroke="none" stroke-width="1" fill="none" fill-rule="evenodd">
        <g id="编组-2" transform="translate(0.9991, 1)">
            <path d="M3.09101053,0 L10.9108303,0 C12.61744,0 14.0009204,1.38348046 14.0009204,3.09009009 L14.0009204,10.9099099 C14.0009204,12.6165195 12.61744,14 10.9108303,14 L3.09101053,14 C1.38440089,14 0.000920435956,12.6165195 0.000920435956,10.9099099 L0.000920435956,3.09009009 C0.000920435956,1.38348046 1.38440089,0 3.09101053,0 Z" id="蒙版" fill="url(#linearGradient-1)"></path>
            <mask id="mask-7" fill="white">
                <use xlink:href="#path-6"></use>
            </mask>
            <g id="形状结合">
                <use fill="url(#linearGradient-2)" fill-rule="evenodd" xlink:href="#path-6"></use>
                <use fill="url(#linearGradient-3)" fill-rule="evenodd" xlink:href="#path-6"></use>
                <use fill="url(#linearGradient-4)" fill-rule="evenodd" xlink:href="#path-6"></use>
                <use fill="url(#linearGradient-5)" fill-rule="evenodd" xlink:href="#path-6"></use>
                <use fill="black" fill-opacity="1" filter="url(#filter-8)" xlink:href="#path-6"></use>
            </g>
        </g>
        <path d="M7.45495495,9.36486486 C7.49988748,9.03333377 7.72044336,8.81981982 8.02477477,8.81981982 C8.32910619,8.81981982 8.5311021,9.06566385 8.59459459,9.35936495" id="路径-2" stroke="#00244E" stroke-width="0.6" opacity="0.898049491" stroke-linecap="round" stroke-linejoin="round" transform="translate(8.0248, 9.0923) rotate(-180) translate(-8.0248, -9.0923)"></path>
        <path d="M4.5689397,4.1981982 C4.7323006,4.02269349 4.96661211,4 5.08920997,4 C5.21180784,4 5.42589328,4.02080259 5.60948025,4.1981982" id="路径-2" stroke="#00244E" stroke-width="0.6" opacity="0.898049491" stroke-linecap="round" stroke-linejoin="round"></path>
        <path d="M10.481982,4.1981982 C10.6453429,4.02269349 10.8796544,4 11.0022523,4 C11.1248501,4 11.3389356,4.02080259 11.5225225,4.1981982" id="路径-2" stroke="#00244E" stroke-width="0.6" opacity="0.898049491" stroke-linecap="round" stroke-linejoin="round"></path>
        <path d="M10.75,8.5 C11.7164983,8.5 12.5,7.71649831 12.5,6.75 C12.5,5.78350169 11.7164983,5 10.75,5 C9.78350169,5 9,5.78350169 9,6.75 C9,7.71649831 9.78350169,8.5 10.75,8.5 Z M5.25,8.5 C6.21649831,8.5 7,7.71649831 7,6.75 C7,5.78350169 6.21649831,5 5.25,5 C4.28350169,5 3.5,5.78350169 3.5,6.75 C3.5,7.71649831 4.28350169,8.5 5.25,8.5 Z" id="形状结合" fill="#FFFFFF"></path>
        <path d="M10.75,8.26973684 C11.5384591,8.26973684 12.1776316,7.63056441 12.1776316,6.84210526 C12.1776316,6.05364611 11.5384591,5.41447368 10.75,5.41447368 C9.96154085,5.41447368 9.32236842,6.05364611 9.32236842,6.84210526 C9.32236842,7.63056441 9.96154085,8.26973684 10.75,8.26973684 Z M5.25,8.26973684 C6.03845915,8.26973684 6.67763158,7.63056441 6.67763158,6.84210526 C6.67763158,6.05364611 6.03845915,5.41447368 5.25,5.41447368 C4.46154085,5.41447368 3.82236842,6.05364611 3.82236842,6.84210526 C3.82236842,7.63056441 4.46154085,8.26973684 5.25,8.26973684 Z" id="形状结合" fill="url(#linearGradient-9)"></path>
        <path d="M11.5328947,7.80921053 C11.7363681,7.80921053 11.9013158,7.6442628 11.9013158,7.44078947 C11.9013158,7.23731614 11.7363681,7.07236842 11.5328947,7.07236842 C11.3294214,7.07236842 11.1644737,7.23731614 11.1644737,7.44078947 C11.1644737,7.6442628 11.3294214,7.80921053 11.5328947,7.80921053 Z M6.03289474,7.80921053 C6.23636807,7.80921053 6.40131579,7.6442628 6.40131579,7.44078947 C6.40131579,7.23731614 6.23636807,7.07236842 6.03289474,7.07236842 C5.82942141,7.07236842 5.66447368,7.23731614 5.66447368,7.44078947 C5.66447368,7.6442628 5.82942141,7.80921053 6.03289474,7.80921053 Z" id="形状结合" fill="#FFFFFF"></path>
        <path d="M8,10 C10.206219,10 11.8746816,10.4772731 12,13 C12.0264138,13.6755482 11.9304577,14.3545702 11.7443844,15.0004508 L4.27102656,15.0003679 C4.07936066,14.350556 3.97814319,13.6703873 4,13 C4.10106511,10.5358044 5.7922445,10 8,10 Z" id="形状结合" fill="url(#radialGradient-10)"></path>
        <g id="Guide/16" transform="translate(0.5, 0.5)"></g>
    </g>
</svg>