<?xml version="1.0" encoding="UTF-8"?>
<svg width="16px" height="16px" viewBox="0 0 16 16" version="1.1" xmlns="http://www.w3.org/2000/svg" xmlns:xlink="http://www.w3.org/1999/xlink">
    <title>apps/16/virtual-windows</title>
    <defs>
        <linearGradient x1="50%" y1="0%" x2="50%" y2="98.1385523%" id="linearGradient-1">
            <stop stop-color="#FFFFFF" offset="0%"></stop>
            <stop stop-color="#EDEDED" offset="100%"></stop>
        </linearGradient>
        <linearGradient x1="89.3381348%" y1="0%" x2="0%" y2="100%" id="linearGradient-2">
            <stop stop-color="#00EADB" offset="0%"></stop>
            <stop stop-color="#0065FF" offset="100%"></stop>
        </linearGradient>
        <linearGradient x1="14.0841064%" y1="13.6693115%" x2="88.0665283%" y2="100%" id="linearGradient-3">
            <stop stop-color="#00EADB" offset="0%"></stop>
            <stop stop-color="#0065FF" offset="100%"></stop>
        </linearGradient>
    </defs>
    <g id="apps/16/virtual-windows" stroke="none" stroke-width="1" fill="none" fill-rule="evenodd">
        <rect id="矩形" fill="url(#linearGradient-1)" x="1" y="1" width="14" height="14" rx="2.83333333"></rect>
        <path d="M12.1666667,1 C13.7314735,1 15,2.26852654 15,3.83333333 L15,12.1666667 C15,13.7314735 13.7314735,15 12.1666667,15 L3.83333333,15 C2.26852654,15 1,13.7314735 1,12.1666667 L1,3.83333333 C1,2.26852654 2.26852654,1 3.83333333,1 L12.1666667,1 Z M12.1666667,2 L3.83333333,2 C2.82081129,2 2,2.82081129 2,3.83333333 L2,12.1666667 C2,13.1791887 2.82081129,14 3.83333333,14 L12.1666667,14 C13.1791887,14 14,13.1791887 14,12.1666667 L14,3.83333333 C14,2.82081129 13.1791887,2 12.1666667,2 Z" id="矩形" fill-opacity="0.04" fill="#000000" fill-rule="nonzero"></path>
        <g id="编组" transform="translate(4, 4)" fill-rule="nonzero">
            <path d="M4.9375,3 L8.0625,3 C8.58026695,3 9,3.41973305 9,3.9375 L9,7.0625 C9,7.58026695 8.58026695,8 8.0625,8 L4.9375,8 C4.41973305,8 4,7.58026695 4,7.0625 L4,3.9375 C4,3.41973305 4.41973305,3 4.9375,3 Z" id="矩形" fill="url(#linearGradient-2)" transform="translate(6.5, 5.5) scale(-1, 1) translate(-6.5, -5.5)"></path>
            <path d="M5.5625,-2.22044605e-16 C6.35640933,-7.62058273e-17 7,0.643590672 7,1.4375 L7,1.999 L4.4,2 C3.67228362,2 3.0742479,2.55522888 3.00640881,3.26517066 L3,3.4 L3,7 L1.4375,7 C0.690291221,7 0.0762366834,6.42989892 0.00658047064,5.70094084 L0,5.5625 L0,1.4375 C0,0.643590672 0.643590672,-3.67883383e-16 1.4375,-2.22044605e-16 L5.5625,-2.22044605e-16 Z M4,7 L4,3.9375 C4,3.4567164 4.36191268,3.06046204 4.82816769,3.00630725 L4.9375,3 L7,3 L7,5.5625 C7,6.35640933 6.35640933,7 5.5625,7 L4,7 Z" id="形状结合" fill="url(#linearGradient-3)"></path>
        </g>
        <g id="Guide/16" transform="translate(0.5, 0.5)"></g>
    </g>
</svg>