<?xml version="1.0" encoding="iso-8859-1"?>
<!-- Generator: Adobe Illustrator 18.0.0, SVG Export Plug-In . SVG Version: 6.00 Build 0)  -->
<!DOCTYPE svg PUBLIC "-//W3C//DTD SVG 1.1//EN" "http://www.w3.org/Graphics/SVG/1.1/DTD/svg11.dtd">
<svg version="1.1" id="&#x56FE;&#x5C42;_1" xmlns="http://www.w3.org/2000/svg" xmlns:xlink="http://www.w3.org/1999/xlink" x="0px"
	 y="0px" viewBox="0 0 16 16" style="enable-background:new 0 0 16 16;" xml:space="preserve">
<g>
	<path style="fill:#9FA0A0;" d="M15.328,6.24c-1.96-2.088-4.563-3.237-7.331-3.237c-2.769,0-5.372,1.149-7.33,3.237
		C0.478,6.441,0.488,6.757,0.69,6.946c0.096,0.091,0.219,0.136,0.342,0.136c0.133,0,0.267-0.053,0.364-0.158
		c1.768-1.884,4.112-2.921,6.602-2.921s4.834,1.037,6.603,2.921c0.19,0.203,0.507,0.211,0.706,0.022
		C15.508,6.757,15.518,6.441,15.328,6.24z"/>
	<path style="fill:#9FA0A0;" d="M7.997,6.002c-2.017,0-3.913,0.837-5.34,2.357C2.468,8.561,2.478,8.877,2.68,9.066
		c0.199,0.188,0.518,0.18,0.706-0.022C4.622,7.727,6.26,7.002,7.997,7.002s3.375,0.725,4.612,2.042
		c0.099,0.104,0.231,0.157,0.364,0.157c0.123,0,0.246-0.045,0.343-0.136c0.201-0.188,0.211-0.506,0.021-0.707
		C11.91,6.839,10.014,6.002,7.997,6.002z"/>
	<path style="fill:#9FA0A0;" d="M7.998,9.002c-1.268,0-2.458,0.524-3.352,1.477c-0.189,0.201-0.18,0.518,0.022,0.706
		c0.199,0.189,0.519,0.182,0.706-0.022c1.406-1.496,3.839-1.496,5.245,0c0.099,0.105,0.231,0.158,0.364,0.158
		c0.123,0,0.246-0.045,0.342-0.136c0.202-0.188,0.212-0.505,0.022-0.706C10.455,9.527,9.266,9.002,7.998,9.002z"/>
	<path style="fill:#9FA0A0;" d="M6.666,12.572l1.339,1.427l1.337-1.424c0,0-0.013-0.007-0.021-0.015
		C8.588,11.778,7.33,11.865,6.666,12.572z"/>
</g>
</svg>
