<svg xmlns="http://www.w3.org/2000/svg" xmlns:xlink="http://www.w3.org/1999/xlink" width="256" height="256" viewBox="0 0 256 256">
  <defs>
    <path id="application-x-7zip-b" d="M56,28 C56,24.6862915 58.6862915,22 62,22 L106,22 C109.313708,22 112,24.6862915 112,28 L112,6 C112,2.6862915 114.686292,1.4968968e-15 118,8.8817842e-16 L162,8.8817842e-16 C165.313708,2.79460044e-16 168,2.6862915 168,6 L168,202 C168,205.313708 165.313708,208 162,208 L118,208 C114.686292,208 112,205.313708 112,202 C112,205.313708 109.313708,208 106,208 L62,208 C58.6862915,208 56,205.313708 56,202 C56,205.313708 53.3137085,208 50,208 L5,208 C2.23857625,208 7.10542736e-15,205.388328 7.10542736e-15,202.166667 L0,17.8333333 C0,14.6116723 2.23857625,12 5,12 L50,12 C53.3137085,12 56,14.6862915 56,18 L56,28 Z"/>
    <filter id="application-x-7zip-a" width="120.2%" height="116.3%" x="-10.1%" y="-6.2%" filterUnits="objectBoundingBox">
      <feOffset dy="4" in="SourceAlpha" result="shadowOffsetOuter1"/>
      <feGaussianBlur in="shadowOffsetOuter1" result="shadowBlurOuter1" stdDeviation="5"/>
      <feComposite in="shadowBlurOuter1" in2="SourceAlpha" operator="out" result="shadowBlurOuter1"/>
      <feColorMatrix in="shadowBlurOuter1" values="0 0 0 0 0   0 0 0 0 0   0 0 0 0 0  0 0 0 0.2 0"/>
    </filter>
    <linearGradient id="application-x-7zip-c" x1="98.475%" x2="1.525%" y1="48.475%" y2="48.475%">
      <stop offset="0%" stop-color="#780094"/>
      <stop offset="100%" stop-color="#670074"/>
    </linearGradient>
    <linearGradient id="application-x-7zip-d" x1="99.455%" x2="3.998%" y1="50.545%" y2="50.545%">
      <stop offset="0%" stop-color="#1C44A8"/>
      <stop offset="100%" stop-color="#023BA8"/>
    </linearGradient>
    <linearGradient id="application-x-7zip-e" x1="100%" x2="6.531%" y1="50%" y2="50%">
      <stop offset="0%" stop-color="#286D00"/>
      <stop offset="100%" stop-color="#457000"/>
    </linearGradient>
  </defs>
  <g fill="none" fill-rule="evenodd">
    <g transform="translate(44 28)">
      <use fill="#000" filter="url(#application-x-7zip-a)" xlink:href="#application-x-7zip-b"/>
      <use fill="#000" fill-opacity=".1" xlink:href="#application-x-7zip-b"/>
      <path fill="url(#application-x-7zip-c)" d="M168,6 L168,202 C168,205.313708 165.313708,208 162,208 L118,208 C114.686292,208 112,205.313708 112,202 L112,6 C112,2.6862915 114.686292,1.4968968e-15 118,8.8817842e-16 L162,8.8817842e-16 C165.313708,2.79460044e-16 168,2.6862915 168,6 Z"/>
      <path fill="url(#application-x-7zip-d)" d="M112,28 L112,202 C112,205.313708 109.313708,208 106,208 L62,208 C58.6862915,208 56,205.313708 56,202 L56,28 C56,24.6862915 58.6862915,22 62,22 L106,22 C109.313708,22 112,24.6862915 112,28 Z"/>
      <path fill="url(#application-x-7zip-e)" d="M56,18 L56,202 C56,205.313708 53.3137085,208 50,208 L5,208 C2.23857625,208 8.8817842e-15,205.388328 8.8817842e-15,202.166667 L1.77635684e-15,17.8333333 C1.77635684e-15,14.6116723 2.23857625,12 5,12 L50,12 C53.3137085,12 56,14.6862915 56,18 Z"/>
      <path fill="#FFF" fill-opacity=".2" d="M7.70932444e-17,19.8333333 L0,17.8333333 C0,14.6116723 2.23857625,12 5,12 L50,12 C53.3137085,12 56,14.6862915 56,18 L56,20 C56,16.6862915 53.3137085,14 50,14 L5,14 C2.23857625,14 0,16.6116723 0,19.8333333 Z M56,28 C56,24.6862915 58.6862915,22 62,22 L106,22 C109.313708,22 112,24.6862915 112,28 L112,30 C112,26.6862915 109.313708,24 106,24 L62,24 C58.6862915,24 56,26.6862915 56,30 L56,116.000005 L56,28 Z M112,8 L112,6 C112,2.6862915 114.686292,1.4968968e-15 118,8.8817842e-16 L162,8.8817842e-16 C165.313708,2.79460044e-16 168,2.6862915 168,6 L168,8 C168,4.6862915 165.313708,2 162,2 L118,2 C114.686292,2 112,4.6862915 112,8 Z"/>
      <path fill="#FFF8F8" fill-opacity=".3" d="M74,106 L92,106 L92,94 L74,94 L74,88 L98,88 L98,112 L74,112 L74,106 Z M62,88 L62,112 L2,112 L2,88 L62,88 Z M110,88 L166,88 L166,112 L110,112 L110,88 Z"/>
      <path fill="#000" fill-opacity=".2" d="M2,112 L62,112 L62,114 L2,114 L2,112 Z M166,112 L166,114 L110,114 L110,112 L166,112 Z M74,94 L92,94 L92,96 L74,96 L74,94 Z M74,112 L98,112 L98,114 L74,114 L74,112 Z M70,102 L88,102 L88,104 L70,104 L70,102 Z M70,84 L102,84 L102,86 L70,86 L70,84 Z M66,116 L106,116 L106,118 C106,120.209139 104.209139,122 102,122 L70,122 C67.790861,122 66,120.209139 66,118 L66,116 Z"/>
      <path fill="#FFF" fill-opacity=".6" d="M70,80 L102,80 C104.209139,80 106,81.790861 106,84 L106,116 C106,118.209139 104.209139,120 102,120 L70,120 C67.790861,120 66,118.209139 66,116 L66,84 C66,81.790861 67.790861,80 70,80 Z M70,84 L70,116 L102,116 L102,84 L70,84 Z M70,98 L88,98 L88,102 L70,102 L70,98 Z"/>
      <path fill="#000" fill-opacity=".2" d="M7.10542736e-15,200.166667 C7.10542736e-15,203.388328 2.23857625,206 5,206 L50,206 C53.3137085,206 56,203.313708 56,200 C56,203.313708 58.6862915,206 62,206 L106,206 C109.313708,206 112,203.313708 112,200 C112,203.313708 114.686292,206 118,206 L162,206 C165.313708,206 168,203.313708 168,200 L168,202 C168,205.313708 165.313708,208 162,208 L118,208 C114.686292,208 112,205.313708 112,202 C112,205.313708 109.313708,208 106,208 L62,208 C58.6862915,208 56,205.313708 56,202 C56,205.313708 53.3137085,208 50,208 L5,208 C2.23857625,208 7.10542736e-15,205.388328 7.10542736e-15,202.166667 L7.02833411e-15,200.166667 Z"/>
    </g>
    <path fill="#000" fill-opacity=".2" d="M96.0000003,166 L128,166 L128,170 L106,210 L100,210 L122,170 L96.0000003,170 L96.0000003,166 Z M128,174 L156,174 L156,178 L134,206 L156,206 L156,210 L128.000001,210 L128,206 L150.000001,178 L128.000001,178 L128,174 Z"/>
    <path fill="#FFF" fill-opacity=".6" d="M96.0000003,164 L128,164 L128,168 L106,208 L100,208 L122,168 L96.0000003,168 L96.0000003,164 Z M128,172 L156,172 L156,176 L134,204 L156,204 L156,208 L128.000001,208 L128,204 L150.000001,176 L128.000001,176 L128,172 Z"/>
  </g>
</svg>
