<svg xmlns="http://www.w3.org/2000/svg" xmlns:xlink="http://www.w3.org/1999/xlink" width="32" height="32" viewBox="0 0 32 32">
  <defs>
    <filter id="user-trash-a" width="130.8%" height="130.8%" x="-15.4%" y="-15.4%" filterUnits="objectBoundingBox">
      <feOffset dy="1" in="SourceAlpha" result="shadowOffsetOuter1"/>
      <feGaussianBlur in="shadowOffsetOuter1" result="shadowBlurOuter1" stdDeviation=".5"/>
      <feColorMatrix in="shadowBlurOuter1" result="shadowMatrixOuter1" values="0 0 0 0 0   0 0 0 0 0   0 0 0 0 0  0 0 0 0.15 0"/>
      <feMerge>
        <feMergeNode in="shadowMatrixOuter1"/>
        <feMergeNode in="SourceGraphic"/>
      </feMerge>
    </filter>
    <path id="user-trash-b" d="M1.19005105,0 L24.809949,0 C25.371655,-9.91362152e-16 25.8270078,0.455352746 25.8270078,1.01705882 C25.8270078,1.07012184 25.8228551,1.12310349 25.8145878,1.17551853 L22.4081883,22.7721838 C22.1150169,24.6308984 20.513044,26 18.6313506,26 L7.36864936,26 C5.48695605,26 3.88498307,24.6308984 3.59181167,22.7721838 L0.18541222,1.17551853 C0.0978973434,0.620671822 0.476744642,0.0999348733 1.03159135,0.0124199963 C1.08400638,0.00415267657 1.13698803,-2.12297086e-16 1.19005105,0 Z"/>
    <filter id="user-trash-c" width="156.6%" height="160%" x="-28.3%" y="-30%" filterUnits="objectBoundingBox">
      <feGaussianBlur in="SourceGraphic" stdDeviation="2"/>
    </filter>
    <linearGradient id="user-trash-e" x1="98.965%" x2="0%" y1="50%" y2="50%">
      <stop offset="0%" stop-color="#FFF" stop-opacity=".2"/>
      <stop offset="45.365%" stop-color="#FFF" stop-opacity=".5"/>
      <stop offset="100%" stop-color="#FFF" stop-opacity=".2"/>
    </linearGradient>
  </defs>
  <g fill="none" fill-rule="evenodd">
    <g filter="url(#user-trash-a)" transform="translate(3 3)">
      <mask id="user-trash-d" fill="#fff">
        <use xlink:href="#user-trash-b"/>
      </mask>
      <use fill="#525354" fill-opacity=".8" xlink:href="#user-trash-b"/>
      <path fill="#000" fill-opacity=".35" d="M5.34018135,3 L20.6598186,3 C21.7643881,3 22.6598186,3.8954305 22.6598186,5 C22.6598186,5.10434602 22.6516526,5.20853203 22.6353953,5.31160381 L20.1117468,21.3116038 C19.9583956,22.2838546 19.1204405,23 18.1361702,23 L7.86382982,23 C6.87955947,23 6.04160438,22.2838546 5.88825318,21.3116038 L3.36460471,5.31160381 C3.19251068,4.22052296 3.93749669,3.19651739 5.02857754,3.02442336 C5.13164932,3.00816605 5.23583533,3 5.34018135,3 Z" filter="url(#user-trash-c)" mask="url(#user-trash-d)"/>
    </g>
    <path fill="url(#user-trash-e)" d="M15.5926316,12.6946932 C14.1936842,9.87858506 12.7221053,12.1462607 12.7221053,12.1462607 L11.6063158,14.0760445 L13.9031579,15.385504 L15.5926316,12.6946932 Z M20.56,11.8319905 L19.3221053,12.5159905 L18.8684211,11.7344229 C18.8684211,11.7344229 18.5178947,10.9210175 16.7884211,11.0062607 C16.7884211,11.0062607 14.6452632,11.0648013 14.4221053,11.0247472 C14.4221053,11.0247472 15.0294737,11.1418283 15.3315789,11.6009094 L16.7,13.9630715 L15.7,14.513558 L19.0557895,14.5844229 L20.56,11.8319905 Z M12.3347368,18.6432337 C10.5989474,21.2713959 13.3505263,21.3217202 13.3505263,21.3217202 L15.6168421,21.2488013 L15.5715789,18.653504 L12.3347368,18.6432337 Z M9,14.9520986 L10.2421053,15.6278824 L9.79157895,16.411504 C9.79157895,16.411504 9.26315789,17.1283688 10.2368421,18.5230715 C10.2368421,18.5230715 11.4042105,20.2813418 11.4821053,20.4877742 C11.4821053,20.4877742 11.2684211,19.9208553 11.5136842,19.4299364 L12.8715789,17.0616121 L13.8747368,17.6069634 L12.1915789,14.7744229 L9,14.9520986 Z M19.4705263,18.2498824 C22.6694737,18.4470715 21.3715789,16.0808013 21.3715789,16.0808013 L20.2,14.1838824 L17.9010526,15.4902607 L19.4705263,18.2498824 Z M16.0778947,20.2597742 L17.7936842,17.4446932 L17.7936842,18.5672337 L20.5736842,18.5672337 C21.1326316,18.5364229 21.5357895,18.0773418 21.5357895,18.0773418 C21.3894737,18.2437202 20.3852632,20.096477 20.3852632,20.096477 C19.6126316,21.6062067 18.7136842,21.505558 18.7136842,21.505558 L17.7936842,21.505558 L17.7936842,22.8920445 L16.0778947,20.2597742 Z"/>
  </g>
</svg>
