<?xml version="1.0" encoding="UTF-8"?>
<svg width="24px" height="24px" viewBox="0 0 24 24" version="1.1" xmlns="http://www.w3.org/2000/svg" xmlns:xlink="http://www.w3.org/1999/xlink">
    <!-- Generator: Sketch 41.2 (35397) - http://www.bohemiancoding.com/sketch -->
    <title>脚标-禁止-24px</title>
    <desc>Created with Sketch.</desc>
    <defs></defs>
    <g id="Page-1" stroke="none" stroke-width="1" fill="none" fill-rule="evenodd">
        <g id="脚标-禁止">
            <g id="Group" transform="translate(2.000000, 2.000000)">
                <path d="M19.5,9.5 C19.5,14.7471667 15.2471667,19 10,19 C4.75283333,19 0.5,14.7471667 0.5,9.5 C0.5,4.25283333 4.75283333,0 10,0 C15.2471667,0 19.5,4.25283333 19.5,9.5" id="Fill-4" fill="#000000" opacity="0.110074627"></path>
                <path d="M19,9 C19,13.971 14.971,18 10,18 C5.029,18 1,13.971 1,9 C1,4.029 5.029,0 10,0 C14.971,0 19,4.029 19,9" id="Fill-4" fill="#FFFFFF"></path>
                <path d="M10,15 C13.3137085,15 16,12.3137085 16,9 C16,5.6862915 13.3137085,3 10,3 C6.6862915,3 4,5.6862915 4,9 C4,12.3137085 6.6862915,15 10,15 Z M10,13.5 C12.4852814,13.5 14.5,11.4852814 14.5,9 C14.5,6.51471863 12.4852814,4.5 10,4.5 C7.51471863,4.5 5.5,6.51471863 5.5,9 C5.5,11.4852814 7.51471863,13.5 10,13.5 Z" id="Combined-Shape" fill="#FF4E00"></path>
                <rect id="Rectangle-2" fill="#FF4E00" transform="translate(10.065864, 9.065864) rotate(-45.000000) translate(-10.065864, -9.065864) " x="9.31586399" y="4.06586399" width="1.5" height="10"></rect>
            </g>
        </g>
    </g>
</svg>