<?xml version="1.0" encoding="UTF-8"?>
<svg width="24px" height="24px" viewBox="0 0 24 24" version="1.1" xmlns="http://www.w3.org/2000/svg" xmlns:xlink="http://www.w3.org/1999/xlink">
    <!-- Generator: Sketch 42 (36781) - http://www.bohemiancoding.com/sketch -->
    <title>深度商店-24px</title>
    <desc>Created with Sketch.</desc>
    <defs></defs>
    <g id="Page-1" stroke="none" stroke-width="1" fill="none" fill-rule="evenodd">
        <g id="深度商店-24px">
            <path d="M3,21.5 L3,8 L21,8 L21,21.5 C21,21.5 21,22 20.4997903,22 C15.0162182,22 3.53582764,22 3.53582764,22 C3.53582764,22 3,22 3,21.5 Z" id="Rectangle-124" fill="#FFA737"></path>
            <path d="M13,8 L13,22 L11,22 L11,8 L13,8 Z M19,8 L19,22 L16,22 L16,8 L19,8 Z M8,8 L8,22 L5,22 L5,8 L8,8 Z" id="Combined-Shape" fill="#FF7300"></path>
            <path d="M3,4.49769878 C3,4.22282734 3.22758651,4 3.50020972,4 L20.4997903,4 C20.7760485,4 21,4.21484375 21,4.49769878 L21,9 L3,9 L3,4.49769878 Z" id="Rectangle-124" fill="#EFEFEF"></path>
            <path d="M7,8 C6.44771525,8 6,7.55228475 6,7 C6,6.44771525 6.44771525,6 7,6 C7.55228475,6 8,6.44771525 8,7 C8,7.55228475 7.55228475,8 7,8 Z M17,8 C16.4477153,8 16,7.55228475 16,7 C16,6.44771525 16.4477153,6 17,6 C17.5522847,6 18,6.44771525 18,7 C18,7.55228475 17.5522847,8 17,8 Z" id="Combined-Shape" fill="#785C46"></path>
            <path d="M17,13.5 C17,10.1862915 16,7 12,7 C8,7 7,10.1862915 7,13.5" id="Oval-27" stroke="#FFFFFF" stroke-linecap="round" stroke-linejoin="round" transform="translate(12.000000, 10.250000) scale(1, -1) translate(-12.000000, -10.250000) "></path>
        </g>
    </g>
</svg>