<svg xmlns="http://www.w3.org/2000/svg" width="24" height="24" viewBox="0 0 24 24">
  <defs>
    <filter id="deepin-system-monitor-a" width="122.7%" height="122.7%" x="-11.4%" y="-11.4%" filterUnits="objectBoundingBox">
      <feOffset in="SourceAlpha" result="shadowOffsetOuter1"/>
      <feGaussianBlur in="shadowOffsetOuter1" result="shadowBlurOuter1" stdDeviation=".5"/>
      <feComposite in="shadowBlurOuter1" in2="SourceAlpha" operator="out" result="shadowBlurOuter1"/>
      <feColorMatrix in="shadowBlurOuter1" result="shadowMatrixOuter1" values="0 0 0 0 0   0 0 0 0 0   0 0 0 0 0  0 0 0 0.15 0"/>
      <feMerge>
        <feMergeNode in="shadowMatrixOuter1"/>
        <feMergeNode in="SourceGraphic"/>
      </feMerge>
    </filter>
    <radialGradient id="deepin-system-monitor-b" cx="38.256%" cy="21.126%" r="100.21%" fx="38.256%" fy="21.126%">
      <stop offset="0%" stop-color="#665AFF"/>
      <stop offset="100%" stop-color="#4300D7"/>
    </radialGradient>
    <radialGradient id="deepin-system-monitor-c" cx="50%" cy="52.28%" r="54.424%" fx="50%" fy="52.28%">
      <stop offset="0%" stop-color="#00D8FF"/>
      <stop offset="100%" stop-color="#3D00B5"/>
    </radialGradient>
  </defs>
  <g fill="none" fill-rule="evenodd" filter="url(#deepin-system-monitor-a)" transform="translate(1 1)">
    <circle cx="11" cy="11" r="11" fill="url(#deepin-system-monitor-b)"/>
    <circle cx="11" cy="11" r="8" fill="url(#deepin-system-monitor-c)"/>
    <rect width="2" height="1" x="10" y="19" fill="#FFF" opacity=".5"/>
    <path d="M6 4.25L15.75 4.25M3 13.25L18.75 13.25M13.25 19L13.25 3M17.75 15.5L17.75 6.5M8.75 19L8.75 2.5M4.25 15.5L4.25 6.5M6 17.75L16 17.75" opacity=".1"/>
    <path stroke="#FFF" stroke-linecap="round" d="M14.7312418,18.6394025 C17.5552366,17.2575135 19.5,14.3558686 19.5,11 C19.5,6.30557963 15.6944204,2.5 11,2.5 C6.30557963,2.5 2.5,6.30557963 2.5,11 C2.5,14.3632572 4.45333629,17.2702883 7.28742353,18.6485078" opacity=".5"/>
    <path stroke="#FFF" stroke-linecap="round" d="M11,2.5 C6.30557963,2.5 2.5,6.30557963 2.5,11 C2.5,14.3632572 4.45333629,17.2702883 7.28742353,18.6485078"/>
    <path stroke="#FFF" stroke-linecap="round" stroke-linejoin="round" d="M4.5,12.394791 C4.5,12.394791 5,13.4825223 6,13.4825223 C8.16666667,13.4825223 6.83333333,7.5 9,7.5 C11.1666667,7.5 9.83333333,13.4825223 12,13.4825223 C13.4444444,13.4825223 13,10.5 14.5,10.5 C16,10.5 14.8518519,13.7544551 17.5,13.4825223"/>
  </g>
</svg>
