<svg xmlns="http://www.w3.org/2000/svg" xmlns:xlink="http://www.w3.org/1999/xlink" width="128" height="128" viewBox="0 0 128 128">
  <defs>
    <filter id="apps.com.dingtalk.im_icon-a" width="129.3%" height="129.3%" x="-14.7%" y="-14.7%" filterUnits="objectBoundingBox">
      <feOffset dy="2" in="SourceAlpha" result="shadowOffsetOuter1"/>
      <feGaussianBlur in="shadowOffsetOuter1" result="shadowBlurOuter1" stdDeviation="3"/>
      <feColorMatrix in="shadowBlurOuter1" result="shadowMatrixOuter1" values="0 0 0 0 0   0 0 0 0 0   0 0 0 0 0  0 0 0 0.2 0"/>
      <feMerge>
        <feMergeNode in="shadowMatrixOuter1"/>
        <feMergeNode in="SourceGraphic"/>
      </feMerge>
    </filter>
    <linearGradient id="apps.com.dingtalk.im_icon-b" x1="50%" x2="50%" y1="0%" y2="100%">
      <stop offset="0%" stop-color="#7BC7E6"/>
      <stop offset="100%" stop-color="#4382BA"/>
    </linearGradient>
    <linearGradient id="apps.com.dingtalk.im_icon-e" x1="50%" x2="50%" y1="0%" y2="100%">
      <stop offset="0%" stop-color="#5699C9"/>
      <stop offset="100%" stop-color="#124D7F"/>
    </linearGradient>
    <path id="apps.com.dingtalk.im_icon-c" d="M58,116 C26.0171429,116 0,89.9800952 0,58 C0,26.0199048 26.0171429,0 58,0 C89.9800952,0 116,26.0199048 116,58 C116,89.9800952 89.9800952,116 58,116 Z"/>
    <filter id="apps.com.dingtalk.im_icon-d" width="103.4%" height="103.4%" x="-1.7%" y="-1.7%" filterUnits="objectBoundingBox">
      <feOffset dy="-2" in="SourceAlpha" result="shadowOffsetInner1"/>
      <feComposite in="shadowOffsetInner1" in2="SourceAlpha" k2="-1" k3="1" operator="arithmetic" result="shadowInnerInner1"/>
      <feColorMatrix in="shadowInnerInner1" result="shadowMatrixInner1" values="0 0 0 0 0   0 0 0 0 0   0 0 0 0 0  0 0 0 0.203835227 0"/>
      <feOffset dy="1" in="SourceAlpha" result="shadowOffsetInner2"/>
      <feComposite in="shadowOffsetInner2" in2="SourceAlpha" k2="-1" k3="1" operator="arithmetic" result="shadowInnerInner2"/>
      <feColorMatrix in="shadowInnerInner2" result="shadowMatrixInner2" values="0 0 0 0 1   0 0 0 0 1   0 0 0 0 1  0 0 0 0.703425481 0"/>
      <feMerge>
        <feMergeNode in="shadowMatrixInner1"/>
        <feMergeNode in="shadowMatrixInner2"/>
      </feMerge>
    </filter>
    <linearGradient id="apps.com.dingtalk.im_icon-f" x1="50%" x2="50%" y1="0%" y2="100%">
      <stop offset="0%" stop-color="#FFF" stop-opacity=".797"/>
      <stop offset="100%" stop-color="#FFF" stop-opacity=".703"/>
    </linearGradient>
    <path id="apps.com.dingtalk.im_icon-g" d="M66.4760434,101.984261 L85.9814453,76.0014648 L75.8710744,76.0014648 L87.6408588,55.7702162 C87.6408588,55.7702162 91.8732598,48.7647119 84.1700652,45.7424566 L29.6378546,24.1521329 C29.6378546,24.1521329 26.5886149,22.2969974 27.0972899,27.5838551 C27.0972899,27.5838551 28.2832615,38.1547851 33.0243375,42.5168605 L60.3747536,52.0822291 L34.3789307,46.4583272 C34.3789307,46.4583272 30.5680835,45.5335449 32.0069875,49.9819705 C32.0069875,49.9819705 34.9719165,58.9623864 41.4919499,61.2269888 L62.1537109,61.4776828 L44.1168254,64.3300233 C44.1168254,64.3300233 40.8989641,64.8341968 43.7767719,68.4414048 C43.7767719,68.4414048 48.517848,74.9873034 55.4622456,75.4914769 L65.7088154,73.2742278 L62.9125079,85.079834 L71.1384294,85.079834 L66.4760434,101.984261 Z"/>
    <filter id="apps.com.dingtalk.im_icon-h" width="101.6%" height="101.3%" x="-.8%" y="-.6%" filterUnits="objectBoundingBox">
      <feOffset dy="1" in="SourceAlpha" result="shadowOffsetInner1"/>
      <feComposite in="shadowOffsetInner1" in2="SourceAlpha" k2="-1" k3="1" operator="arithmetic" result="shadowInnerInner1"/>
      <feColorMatrix in="shadowInnerInner1" values="0 0 0 0 1   0 0 0 0 1   0 0 0 0 1  0 0 0 1 0"/>
    </filter>
    <linearGradient id="apps.com.dingtalk.im_icon-i" x1="50%" x2="50%" y1="0%" y2="100%">
      <stop offset="0%" stop-opacity=".201"/>
      <stop offset="100%" stop-opacity=".3"/>
    </linearGradient>
  </defs>
  <g fill="none" filter="url(#apps.com.dingtalk.im_icon-a)" transform="translate(6 6)">
    <use fill="url(#apps.com.dingtalk.im_icon-b)" xlink:href="#apps.com.dingtalk.im_icon-c"/>
    <use fill="#000" filter="url(#apps.com.dingtalk.im_icon-d)" xlink:href="#apps.com.dingtalk.im_icon-c"/>
    <path stroke="url(#apps.com.dingtalk.im_icon-e)" d="M58,-0.5 C74.1278929,-0.5 88.7530189,6.06084069 99.3460891,16.6539109 C109.939159,27.2469811 116.5,41.8721071 116.5,58 C116.5,74.1278929 109.939159,88.7530189 99.3460891,99.3460891 C88.7530189,109.939159 74.1278929,116.5 58,116.5 C41.8710617,116.5 27.246222,109.939436 16.6535554,99.3467693 C6.06043211,88.753646 -0.5,74.1282403 -0.5,58 C-0.5,41.8717597 6.06043211,27.246354 16.6535554,16.6532307 C27.246222,6.06056404 41.8710617,-0.5 58,-0.5 Z"/>
    <use fill="url(#apps.com.dingtalk.im_icon-f)" xlink:href="#apps.com.dingtalk.im_icon-g"/>
    <use fill="#000" filter="url(#apps.com.dingtalk.im_icon-h)" xlink:href="#apps.com.dingtalk.im_icon-g"/>
    <path fill="url(#apps.com.dingtalk.im_icon-i)" d="M28.1955137,22.8614842 C26.6066573,23.0917724 25.8685775,24.6479512 26.0778029,27.4004002 L26.1035246,27.6953474 L26.1407481,27.993375 L26.2056292,28.4517105 L26.2609696,28.8126019 L26.3896585,29.5787557 C26.4366345,29.8434832 26.487742,30.1172086 26.5431367,30.3988972 C26.9392176,32.4130152 27.4717216,34.428391 28.1624675,36.317878 C29.2454884,39.2804051 30.6175711,41.6613543 32.347257,43.2527695 L32.4531916,43.3377092 C32.5274114,43.3893511 32.6084669,43.4308096 32.6942108,43.4607972 L44.76,47.68 L34.5531223,45.4726981 L34.4863095,45.4593382 C33.6249464,45.2974718 32.7289686,45.3266537 31.938619,45.7943664 C30.6661115,46.5474104 30.3470212,48.0993693 31.0555246,50.2897341 L31.2017302,50.6993341 L31.2567457,50.8446396 C31.417444,51.2645557 31.6108973,51.7306843 31.8377289,52.231704 C32.4853643,53.6621838 33.273395,55.0928655 34.2091229,56.4336232 C36.1404544,59.2009315 38.4446415,61.2271695 41.1638474,62.1716309 L41.2670351,62.2013672 C41.3367421,62.2174576 41.4080762,62.2260447 41.4798175,62.2269152 L50.335,62.334 L43.9606271,63.3422976 C43.6556174,63.3900854 43.2545147,63.5111863 42.8388939,63.7574004 C41.1901091,64.7341418 41.0716873,66.6541797 42.9950625,69.0650476 L43.1223609,69.2350059 L43.300269,69.4590614 L43.5262645,69.731157 L43.797825,70.0452355 C43.846742,70.100744 43.8974524,70.1577494 43.9499038,70.2161255 C44.7299365,71.0842688 45.6298057,71.9512893 46.640619,72.7619136 C49.2934563,74.8893629 52.2291184,76.2593791 55.3898347,76.4888518 L55.4849979,76.491218 C55.5484074,76.4897749 55.6116083,76.4823008 55.6737401,76.4688561 L64.369,74.586 L61.9394321,84.8493486 L61.9187526,84.9666723 C61.8508714,85.550378 62.3073887,86.079834 62.9125079,86.079834 L69.825,86.079 L65.5120376,101.71838 C65.2184408,102.782874 66.6128303,103.467715 67.2757729,102.584621 L86.7811748,76.6018254 L86.8427291,76.5103042 C87.2325356,75.8590286 86.7682322,75.0014648 85.9814453,75.0014648 L77.609,75.001 L88.5199122,56.248084 C88.7338358,55.8783464 88.9829715,55.3618642 89.2129126,54.7283946 C89.5724148,53.737994 89.7899399,52.7062006 89.8005911,51.6647713 L89.7989179,51.4038337 C89.7325044,48.5487787 88.0787596,46.2017747 84.5352988,44.8115407 L30.1576128,23.2978195 C30.0467551,23.2303744 29.8815893,23.1455339 29.6715756,23.0632719 C29.1976868,22.8776506 28.7032234,22.787897 28.1955137,22.8614842 Z M28.7266033,23.8466396 L28.8661508,23.8669814 L28.9994427,23.8957731 L29.1247664,23.9306827 L29.2940656,23.9894171 L29.4358038,24.0487998 L29.5442011,24.1009602 L29.6378546,24.1521329 L84.1700652,45.7424566 C88.3144668,47.3684625 89.0040437,50.1474421 88.7566414,52.3681143 L88.7162925,52.67418 C88.7086386,52.7245296 88.7005413,52.7745343 88.6920323,52.8241724 L88.6362906,53.1174307 L88.5721871,53.4008593 L88.5012418,53.6734251 L88.3853209,54.0596461 L88.2625566,54.4156145 L88.1380791,54.7378433 L88.0170186,55.0228458 L87.9045054,55.2671351 L87.6852725,55.6930139 L75.8710744,76.0014648 L85.9814453,76.0014648 L66.4760434,101.984261 L71.1384294,85.079834 L62.9125079,85.079834 L65.7088154,73.2742278 L55.4622456,75.4914769 C51.9900468,75.2393902 49.0686784,73.4768721 47.0153596,71.7773758 L46.6030251,71.4271712 C46.5364017,71.3691257 46.4708365,71.3112841 46.4063424,71.2537111 L46.0323364,70.9120105 L45.684663,70.5798503 L45.3639468,70.260327 L45.0708119,69.9565374 L44.8058826,69.6715782 L44.4627402,69.2862205 L44.1097638,68.8672192 L43.7767719,68.4414048 C41.9849293,66.1954073 42.5562706,65.1524019 43.242629,64.6850568 L43.3681884,64.6062886 C43.3891593,64.5941713 43.4101108,64.5825477 43.4309802,64.5714003 L43.5547115,64.5100911 L43.6734706,64.459374 L43.8357177,64.4013252 L44.0658426,64.3397558 L62.1537109,61.4776828 L41.4919499,61.2269888 C38.1267713,60.0581617 35.7086341,57.1003147 34.1563944,54.5115408 L33.8754768,54.0309976 L33.6147349,53.5622659 C33.5729526,53.4853039 33.532006,53.4089657 33.4918927,53.3333172 L33.2611913,52.88823 L33.0503684,52.4628574 L32.859305,52.0603606 L32.6878824,51.683901 L32.5359816,51.3366477 L32.344474,50.8774103 L32.0908242,50.2200562 L32.0069875,49.9819705 C31.1862223,47.4445441 32.0735558,46.6553852 32.9874052,46.4456316 L33.1586521,46.4128073 C33.1871082,46.4083731 33.2154876,46.4044334 33.2437389,46.4009525 L33.4112995,46.3852876 L33.5733233,46.378922 L33.8005895,46.3830643 L34.0015424,46.3984989 L34.2554099,46.4336222 L34.3789307,46.4583272 L60.3747536,52.0822291 L33.0243375,42.5168605 C31.3003099,40.9306513 30.0463787,38.5234365 29.1486262,36.1020577 L28.9315426,35.4968849 L28.7289041,34.8939234 C28.6963129,34.7937697 28.664307,34.693825 28.6328783,34.5941474 L28.4511661,33.9997559 L28.2829102,33.4145795 L28.1277151,32.8414199 C28.1029157,32.7470503 28.078644,32.6532982 28.0548918,32.5602219 L27.9185463,32.0103402 L27.7365394,31.2220569 L27.5803594,30.4860249 L27.4899284,30.0290348 L27.3738267,29.4011001 L27.2799919,28.8506307 L27.1537833,28.0199084 L27.0972899,27.5838551 C26.7760215,24.2447871 27.8739766,23.7546028 28.7266033,23.8466396 Z"/>
  </g>
</svg>
