<svg xmlns="http://www.w3.org/2000/svg" xmlns:xlink="http://www.w3.org/1999/xlink" width="128" height="128" viewBox="0 0 128 128">
  <defs>
    <filter id="com.360.browser-stable-a" width="127.1%" height="127.1%" x="-13.6%" y="-13.6%" filterUnits="objectBoundingBox">
      <feOffset dy="2" in="SourceAlpha" result="shadowOffsetOuter1"/>
      <feGaussianBlur in="shadowOffsetOuter1" result="shadowBlurOuter1" stdDeviation="3"/>
      <feColorMatrix in="shadowBlurOuter1" result="shadowMatrixOuter1" values="0 0 0 0 0   0 0 0 0 0   0 0 0 0 0  0 0 0 0.2 0"/>
      <feMerge>
        <feMergeNode in="shadowMatrixOuter1"/>
        <feMergeNode in="SourceGraphic"/>
      </feMerge>
    </filter>
    <linearGradient id="com.360.browser-stable-b" x1="50.002%" x2="50.002%" y1="27.195%" y2="99.995%">
      <stop offset="0%" stop-color="#A1E494"/>
      <stop offset="100%" stop-color="#309F6E"/>
    </linearGradient>
    <path id="com.360.browser-stable-c" d="M59,1 C91.0359375,1 117,26.9640625 117,59 C117,62.9648438 116.614844,67.2617188 115.844531,71 L113.896094,71 L114.054688,71 L32.9453125,71 C32.9453125,59.7398438 42.0757812,50 53.3359375,50 L92.621875,50 C88.8382813,34.9109375 75.1765625,24.109375 58.8867188,24.109375 C39.6742188,24.109375 24.109375,39.6742188 24.109375,58.8867188 C24.109375,78.0992188 39.6742188,93.6640625 58.8867188,93.6640625 C67.6546875,93.6640625 75.675,90.4242188 81.7921875,85.0546875 L110.8375,85.0546875 C101.299219,103.995313 81.65625,117 59,117 C26.9640625,117 1,91.0359375 1,59 C1,26.9640625 26.9640625,1 59,1 Z"/>
    <filter id="com.360.browser-stable-d" width="100.9%" height="100.9%" x="-.4%" y="-.4%" filterUnits="objectBoundingBox">
      <feOffset dy="1" in="SourceAlpha" result="shadowOffsetInner1"/>
      <feComposite in="shadowOffsetInner1" in2="SourceAlpha" k2="-1" k3="1" operator="arithmetic" result="shadowInnerInner1"/>
      <feColorMatrix in="shadowInnerInner1" values="0 0 0 0 1   0 0 0 0 1   0 0 0 0 1  0 0 0 0.603720498 0"/>
    </filter>
    <linearGradient id="com.360.browser-stable-e" x1="50%" x2="50%" y1="0%" y2="100%">
      <stop offset="0%" stop-color="#92DA84"/>
      <stop offset="20.804%" stop-color="#5FAC57"/>
      <stop offset="100%" stop-color="#2C7C59"/>
    </linearGradient>
    <linearGradient id="com.360.browser-stable-f" x1="18.989%" x2="61.029%" y1="22.368%" y2="71.175%">
      <stop offset="0%" stop-color="#5CC093"/>
      <stop offset="100%" stop-color="#05A692" stop-opacity=".11"/>
    </linearGradient>
    <linearGradient id="com.360.browser-stable-g" x1="6.423%" x2="84.297%" y1="41.892%" y2="75.206%">
      <stop offset="0%" stop-color="#4BA481"/>
      <stop offset="100%" stop-color="#55BA8D"/>
    </linearGradient>
  </defs>
  <g fill="none" fill-rule="evenodd" filter="url(#com.360.browser-stable-a)" transform="translate(5 5)">
    <use fill="url(#com.360.browser-stable-b)" xlink:href="#com.360.browser-stable-c"/>
    <use fill="#000" filter="url(#com.360.browser-stable-d)" xlink:href="#com.360.browser-stable-c"/>
    <path fill="url(#com.360.browser-stable-e)" fill-rule="nonzero" d="M59,0 C26.4117778,0 0,26.4117778 0,59 C0,91.5882222 26.4117778,118 59,118 C81.5189248,118 101.783662,105.25666 111.730641,85.5044633 L112.460732,84.0546875 L81.4155557,84.0546875 L81.1325013,84.3031463 C75.0275911,89.6619009 67.1921214,92.6640625 58.8867188,92.6640625 C40.2265035,92.6640625 25.109375,77.546934 25.109375,58.8867188 C25.109375,40.2265035 40.2265035,25.109375 58.8867188,25.109375 L59.3566334,25.1124745 C74.2210531,25.3086694 86.9271443,34.8013119 91.1665341,48.5082693 L91.314,49 L53.3359375,49 C41.6258517,49 31.9453125,59.080191 31.9453125,71 L31.9453125,72 L116.65948,72 L116.823954,71.2018204 C117.589034,67.4889293 118,63.1416967 118,59 C118,26.4117778 91.5882222,0 59,0 Z M59,1 C91.0359375,1 117,26.9640625 117,59 C117,62.9648438 116.614844,67.2617188 115.844531,71 L32.9453125,71 C32.9453125,59.7398438 42.0757812,50 53.3359375,50 L92.621875,50 C88.8382813,34.9109375 75.1765625,24.109375 58.8867188,24.109375 C39.6742188,24.109375 24.109375,39.6742188 24.109375,58.8867188 C24.109375,78.0992188 39.6742188,93.6640625 58.8867188,93.6640625 C67.6546875,93.6640625 75.675,90.4242188 81.7921875,85.0546875 L110.8375,85.0546875 C101.299219,103.995313 81.65625,117 59,117 C26.9640625,117 1,91.0359375 1,59 C1,26.9640625 26.9640625,1 59,1 Z"/>
    <path fill="url(#com.360.browser-stable-f)" d="M46.765625,11.875 C72.6617188,11.875 93.6640625,32.9226562 93.6640625,58.8867187 C93.6640625,63.070951 93.1152979,67.1332356 92.0873584,71.0008197 L32.9453125,71 C32.9453125,59.7398438 42.0757813,50 53.3359375,50 L92.621875,50 C88.8382813,34.9109375 75.1765625,24.109375 58.8867187,24.109375 C39.6742187,24.109375 24.109375,39.6742187 24.109375,58.8867188 C24.109375,78.0992188 39.6742187,93.6640625 58.8867188,93.6640625 C67.6546875,93.6640625 75.675,90.4242187 81.7921875,85.0546875 L110.8375,85.0546875 C101.299219,103.995313 81.65625,117 59,117 C26.9640625,117 1,91.0359375 1,59 C1,51.0002125 2.61902915,43.3790462 5.54734153,36.4462469 C13.4945143,21.8085693 28.9752521,11.875 46.765625,11.875 Z" opacity=".63"/>
    <path fill="url(#com.360.browser-stable-g)" d="M24.109375,58.8867188 C24.109375,78.0992188 39.6742188,93.6640625 58.8867188,93.6640625 C67.6546875,93.6640625 75.675,90.4242188 81.7921875,85.0546875 L110.8375,85.0546875 C101.299219,103.995313 81.65625,117 59,117 C38.5401993,117 20.5569694,106.409888 10.2320361,90.4113888 C9.6734638,87.1995986 9.3828125,83.8957123 9.3828125,80.5234375 C9.3828125,58.9530837 21.2889123,40.1776924 38.8326325,30.465743 C29.9244348,36.7629758 24.109375,47.1434611 24.109375,58.8867188 Z"/>
  </g>
</svg>
