<svg xmlns="http://www.w3.org/2000/svg" width="128" height="128" viewBox="0 0 128 128">
  <defs>
    <filter id="crossover-a" width="127.1%" height="127.1%" x="-13.6%" y="-13.6%" filterUnits="objectBoundingBox">
      <feOffset dy="2" in="SourceAlpha" result="shadowOffsetOuter1"/>
      <feGaussianBlur in="shadowOffsetOuter1" result="shadowBlurOuter1" stdDeviation="3"/>
      <feColorMatrix in="shadowBlurOuter1" result="shadowMatrixOuter1" values="0 0 0 0 0   0 0 0 0 0   0 0 0 0 0  0 0 0 0.2 0"/>
      <feMerge>
        <feMergeNode in="shadowMatrixOuter1"/>
        <feMergeNode in="SourceGraphic"/>
      </feMerge>
    </filter>
    <linearGradient id="crossover-b" x1="50%" x2="50%" y1="0%" y2="100%">
      <stop offset="0%" stop-color="#001965" stop-opacity=".076"/>
      <stop offset="100%" stop-color="#00105C" stop-opacity=".104"/>
    </linearGradient>
    <linearGradient id="crossover-c" x1="50%" x2="50%" y1="0%" y2="99.161%">
      <stop offset="0%" stop-color="#4F73DB"/>
      <stop offset="100%" stop-color="#4255B4"/>
    </linearGradient>
    <linearGradient id="crossover-d" x1="50%" x2="50%" y1="0%" y2="100%">
      <stop offset="0%" stop-color="#5874C5"/>
      <stop offset="100%" stop-color="#2B3E9A"/>
    </linearGradient>
    <linearGradient id="crossover-e" x1="50%" x2="50%" y1="0%" y2="100%">
      <stop offset="0%" stop-color="#CA6542"/>
      <stop offset="100%" stop-color="#E79E77"/>
    </linearGradient>
  </defs>
  <g fill="none" filter="url(#crossover-a)" transform="translate(5 5)">
    <circle cx="59" cy="59" r="58" fill="#FFF"/>
    <path fill="url(#crossover-b)" d="M59,0 C26.4151998,0 0,26.4151998 0,59 C0,91.5848002 26.4151998,118 59,118 C91.5848002,118 118,91.5848002 118,59 C118,26.4151998 91.5848002,0 59,0 Z M59,1 C91.0325155,1 117,26.9674845 117,59 C117,91.0325155 91.0325155,117 59,117 C26.9674845,117 1,91.0325155 1,59 C1,26.9674845 26.9674845,1 59,1 Z"/>
    <path fill="url(#crossover-c)" d="M59,5 C29.1766235,5 5,29.1766235 5,59 C5,88.8233765 29.1766235,113 59,113 C73.4103087,113 87.0476534,107.319879 97.1837661,97.1837662 C107.319879,87.0476534 113,73.4103087 113,59 C113,29.1766235 88.8233765,5 59,5 Z M59,7 C87.718807,7 111,30.281193 111,59 C111,72.9799233 105.459156,86.0799488 95.7695526,95.7695526 C86.0799488,105.459156 72.9799233,111 59,111 C30.281193,111 7,87.718807 7,59 C7,30.281193 30.281193,7 59,7 Z"/>
    <path fill="url(#crossover-d)" d="M101.803725,44.0628254 C96.8854034,40.1316609 91.1523565,36.6194997 84.7704618,33.7780971 C58.3855119,22.0307606 30.9013782,26.1970449 23.3829311,43.0837537 C15.8644839,59.9704624 31.1588063,83.1829426 57.5437562,94.9302791 C59.1605155,95.6501067 60.7814018,96.310183 62.4015689,96.9112427 C46.9858552,84.5896196 39.5740943,68.1516593 45.2740071,55.3494456 C52.3317553,39.4974836 76.9833284,34.8547991 101.803725,44.0628254 Z"/>
    <path fill="url(#crossover-e)" d="M96.4820214,35.951768 C91.5529238,32.0565414 85.8270509,28.571286 79.4659408,25.7391373 C52.8148681,13.8733153 25.1053843,17.9651437 17.5750765,34.878492 C10.0447686,51.7918403 25.5452112,75.1219674 52.1962839,86.9877895 C53.8924193,87.7429576 55.5928416,88.4334918 57.2920763,89.0602005 C41.5697879,76.6356391 33.9539845,60.0399836 39.6869494,47.1635336 C46.7380112,31.3265895 71.4814835,26.731115 96.4820214,35.951768 Z" transform="rotate(-179 56.077 54.006)"/>
    <path fill="#FFF" d="M16.661531,34.4717553 C8.85785208,51.9991051 24.696933,75.8389259 51.7895472,87.9013349 C53.4958318,88.6610217 55.2162488,89.3604431 56.9460428,89.9984227 C58.0137799,90.3922235 58.8049888,88.9812241 57.9120964,88.2756146 C42.16086,75.8281769 35.2033762,59.692397 40.6004948,47.5702702 C47.3433485,32.4255729 71.3910962,27.7636241 96.135988,36.8899902 C97.203725,37.283791 97.9949339,35.8727916 97.1020415,35.1671821 C92.0100499,31.1432282 86.1934194,27.6397675 79.8726774,24.8255918 C53.0509893,12.8838069 25.0313847,16.8624054 16.901773,33.9499416 L16.661531,34.4717553 Z M79.9371459,27.0496225 C83.410932,28.6443242 86.7216191,30.452297 89.8295869,32.4429241 L90.729,33.028 L90.6979843,33.0199031 C67.2999933,26.4207797 45.4536665,31.7526815 38.7734039,46.7567969 L38.6022998,47.1511421 C33.6989672,58.7526534 38.9684948,73.3302855 51.5969371,85.4329485 L51.972,85.789 L51.0437969,85.3608498 C25.7959846,73.4947999 11.3768239,51.2585884 18.4886219,35.2852286 C25.7455586,18.9858819 52.8496729,14.9834477 79.0592041,26.6526827 L79.9371459,27.0496225 Z" transform="rotate(-179 56.08 54.009)"/>
  </g>
</svg>
