<svg xmlns="http://www.w3.org/2000/svg" xmlns:xlink="http://www.w3.org/1999/xlink" width="128" height="128" viewBox="0 0 128 128">
  <defs>
    <filter id="dde-introduction-a" width="127.6%" height="134%" x="-13.8%" y="-17%" filterUnits="objectBoundingBox">
      <feOffset dy="2" in="SourceAlpha" result="shadowOffsetOuter1"/>
      <feGaussianBlur in="shadowOffsetOuter1" result="shadowBlurOuter1" stdDeviation="3"/>
      <feColorMatrix in="shadowBlurOuter1" result="shadowMatrixOuter1" values="0 0 0 0 0   0 0 0 0 0   0 0 0 0 0  0 0 0 0.2 0"/>
      <feMerge>
        <feMergeNode in="shadowMatrixOuter1"/>
        <feMergeNode in="SourceGraphic"/>
      </feMerge>
    </filter>
    <linearGradient id="dde-introduction-b" x1="54.21%" x2="54.135%" y1="83.494%" y2="16.506%">
      <stop offset="0%" stop-color="#E6E6E6"/>
      <stop offset="100%" stop-color="#FAFAFA"/>
    </linearGradient>
    <path id="dde-introduction-c" d="M5.99999058,0.99999058 L109.999991,0.99999058 C112.761414,0.99999058 114.999991,3.23856683 114.999991,5.99999058 L114.999991,87.9999906 C114.999991,90.7614143 112.761414,92.9999906 109.999991,92.9999906 L5.99999058,92.9999906 C3.23856683,92.9999906 0.99999058,90.7614143 0.99999058,87.9999906 L0.99999058,5.99999058 C0.99999058,3.23856683 3.23856683,0.99999058 5.99999058,0.99999058 Z"/>
    <filter id="dde-introduction-d" width="100.9%" height="101.1%" x="-.4%" y="-.5%" filterUnits="objectBoundingBox">
      <feOffset dy="1" in="SourceAlpha" result="shadowOffsetInner1"/>
      <feComposite in="shadowOffsetInner1" in2="SourceAlpha" k2="-1" k3="1" operator="arithmetic" result="shadowInnerInner1"/>
      <feColorMatrix in="shadowInnerInner1" values="0 0 0 0 1   0 0 0 0 1   0 0 0 0 1  0 0 0 1 0"/>
    </filter>
    <radialGradient id="dde-introduction-e" cx="50%" cy="10.248%" r="105.558%" fx="50%" fy="10.248%" gradientTransform="matrix(0 1 -.71154 0 .573 -.398)">
      <stop offset="0%" stop-color="#7EC386"/>
      <stop offset="100%" stop-color="#45704A"/>
    </radialGradient>
    <path id="dde-introduction-f" d="M6.99999058,5.99999058 L108.999981,5.99999058 C109.552265,5.99999058 109.999981,6.44770583 109.999981,6.99999058 L109.999981,78.9999906 C109.999981,79.5522753 109.552265,79.9999906 108.999981,79.9999906 L6.99999058,79.9999906 C6.44770583,79.9999906 5.99999058,79.5522753 5.99999058,78.9999906 L5.99999058,6.99999058 C5.99999058,6.44770583 6.44770583,5.99999058 6.99999058,5.99999058 Z"/>
    <filter id="dde-introduction-g" width="101%" height="101.4%" x="-.5%" y="-.7%" filterUnits="objectBoundingBox">
      <feOffset dy="1" in="SourceAlpha" result="shadowOffsetInner1"/>
      <feComposite in="shadowOffsetInner1" in2="SourceAlpha" k2="-1" k3="1" operator="arithmetic" result="shadowInnerInner1"/>
      <feColorMatrix in="shadowInnerInner1" values="0 0 0 0 1   0 0 0 0 1   0 0 0 0 1  0 0 0 0.5 0"/>
    </filter>
    <linearGradient id="dde-introduction-h" x1="37.216%" x2="37.29%" y1="83.214%" y2="16.229%">
      <stop offset="0%" stop-opacity=".478"/>
      <stop offset="100%" stop-opacity=".214"/>
    </linearGradient>
    <linearGradient id="dde-introduction-i" x1="59.639%" x2="59.789%" y1="78.108%" y2="33.108%">
      <stop offset="0%" stop-color="#205E28"/>
      <stop offset="100%" stop-color="#404C41"/>
    </linearGradient>
  </defs>
  <g fill="none" fill-rule="evenodd" filter="url(#dde-introduction-a)" transform="translate(6 17)">
    <g fill-rule="nonzero">
      <use fill="url(#dde-introduction-b)" xlink:href="#dde-introduction-c"/>
      <use fill="#000" filter="url(#dde-introduction-d)" xlink:href="#dde-introduction-c"/>
    </g>
    <use fill="url(#dde-introduction-e)" xlink:href="#dde-introduction-f"/>
    <use fill="#000" filter="url(#dde-introduction-g)" xlink:href="#dde-introduction-f"/>
    <path fill="url(#dde-introduction-h)" fill-rule="nonzero" d="M110,0 L6,0 C2.68628728,0 -4.26325641e-13,2.68628728 -4.26325641e-13,6 L-4.26325641e-13,88 C-4.26325641e-13,91.3136939 2.68628728,93.9999812 6,93.9999812 L110,93.9999812 C113.313694,93.9999812 115.999981,91.3136939 115.999981,88 L115.999981,6 C115.999981,2.68628728 113.313694,0 110,0 Z M109.999991,0.99999058 C112.761414,0.99999058 114.999991,3.23856683 114.999991,5.99999058 L114.999991,87.9999906 C114.999991,90.7614143 112.761414,92.9999906 109.999991,92.9999906 L5.99999058,92.9999906 C3.23856683,92.9999906 0.99999058,90.7614143 0.99999058,87.9999906 L0.99999058,5.99999058 C0.99999058,3.23856683 3.23856683,0.99999058 5.99999058,0.99999058 L109.999991,0.99999058 Z"/>
    <path fill="url(#dde-introduction-i)" fill-rule="nonzero" d="M108.999981,5.0000335 L6.99999058,5.0000335 C5.89544478,5.0000335 5.0000335,5.89544478 5.0000335,6.99999058 L5.0000335,78.9999906 C5.0000335,80.1045364 5.89544478,80.9999477 6.99999058,80.9999477 L108.999981,80.9999477 C110.104526,80.9999477 110.999938,80.1045364 110.999938,78.9999906 L110.999938,6.99999058 C110.999938,5.89544478 110.104526,5.0000335 108.999981,5.0000335 Z M108.999981,5.99999058 C109.552265,5.99999058 109.999981,6.44770583 109.999981,6.99999058 L109.999981,78.9999906 C109.999981,79.5522753 109.552265,79.9999906 108.999981,79.9999906 L6.99999058,79.9999906 C6.44770583,79.9999906 5.99999058,79.5522753 5.99999058,78.9999906 L5.99999058,6.99999058 C5.99999058,6.44770583 6.44770583,5.99999058 6.99999058,5.99999058 L108.999981,5.99999058 Z"/>
    <path fill="#D6EBD8" fill-rule="nonzero" d="M72.9999906 38.9999906C69.6842011 38.9999906 66.9999906 36.3109318 66.9999906 32.9977347 66.9999906 29.6875454 69.6842011 26.9999906 72.9999906 26.9999906 76.3142763 26.9999906 78.9999906 29.6875454 78.9999906 32.9977347 78.9999906 36.3109318 76.3142763 38.9999906 72.9999906 38.9999906zM42.9999906 38.9999906C39.6842011 38.9999906 36.9999906 36.3109318 36.9999906 32.9977347 36.9999906 29.6875454 39.6842011 26.9999906 42.9999906 26.9999906 46.3142763 26.9999906 48.9999906 29.6875454 48.9999906 32.9977347 48.9999906 36.3109318 46.3142763 38.9999906 42.9999906 38.9999906z"/>
    <polygon fill="#FFF" fill-rule="nonzero" points="1 86 115 86 115 87 1 87" opacity=".448"/>
    <polygon fill="#C3C3C3" fill-rule="nonzero" points="1 85 115 85 115 86 1 86"/>
    <circle cx="99" cy="89.5" r="1" fill="#A9A9A9"/>
    <circle cx="94" cy="89.5" r="1" fill="#A9A9A9"/>
    <circle cx="109" cy="89.5" r="1" fill="#B65D5D"/>
    <circle cx="104" cy="89.5" r="1" fill="#A9A9A9"/>
    <path fill="#A9A9A9" d="M24.9999906,88.9999906 C25.5522753,88.9999906 25.9999906,89.4477058 25.9999906,89.9999906 C25.9999906,90.5522753 25.5522753,90.9999906 24.9999906,90.9999906 L6.99999058,90.9999906 C6.44770583,90.9999906 5.99999058,90.5522753 5.99999058,89.9999906 C5.99999058,89.4477058 6.44770583,88.9999906 6.99999058,88.9999906 L24.9999906,88.9999906 Z M34.9999906,88.9999906 C35.5522753,88.9999906 35.9999906,89.4477058 35.9999906,89.9999906 C35.9999906,90.5522753 35.5522753,90.9999906 34.9999906,90.9999906 L29.9999906,90.9999906 C29.4477058,90.9999906 28.9999906,90.5522753 28.9999906,89.9999906 C28.9999906,89.4477058 29.4477058,88.9999906 29.9999906,88.9999906 L34.9999906,88.9999906 Z M41.9999906,88.9999906 C42.5522753,88.9999906 42.9999906,89.4477058 42.9999906,89.9999906 C42.9999906,90.5522753 42.5522753,90.9999906 41.9999906,90.9999906 L39.9999906,90.9999906 C39.4477058,90.9999906 38.9999906,90.5522753 38.9999906,89.9999906 C38.9999906,89.4477058 39.4477058,88.9999906 39.9999906,88.9999906 L41.9999906,88.9999906 Z" opacity=".497"/>
    <path stroke="#D6EBD8" stroke-linecap="round" stroke-linejoin="round" stroke-width="6" d="M35.9999906,50.9999906 C41.1545425,61.6666572 48.4878758,66.9999906 57.9999906,66.9999906 C67.5121054,66.9999906 74.8454387,61.6666572 79.9999906,50.9999906"/>
  </g>
</svg>
