<?xml version="1.0" encoding="UTF-8"?>
<svg width="128px" height="128px" viewBox="0 0 128 128" version="1.1" xmlns="http://www.w3.org/2000/svg" xmlns:xlink="http://www.w3.org/1999/xlink">
    <title>dde-cooperation</title>
    <defs>
        <filter x="-9.3%" y="-7.4%" width="118.5%" height="118.5%" filterUnits="objectBoundingBox" id="filter-1">
            <feOffset dx="0" dy="2" in="SourceAlpha" result="shadowOffsetOuter1"></feOffset>
            <feGaussianBlur stdDeviation="3" in="shadowOffsetOuter1" result="shadowBlurOuter1"></feGaussianBlur>
            <feColorMatrix values="0 0 0 0 0   0 0 0 0 0   0 0 0 0 0  0 0 0 0.2 0" type="matrix" in="shadowBlurOuter1" result="shadowMatrixOuter1"></feColorMatrix>
            <feMerge>
                <feMergeNode in="shadowMatrixOuter1"></feMergeNode>
                <feMergeNode in="SourceGraphic"></feMergeNode>
            </feMerge>
        </filter>
        <linearGradient x1="50%" y1="0%" x2="50%" y2="98.1385523%" id="linearGradient-2">
            <stop stop-color="#F6F6F6" offset="0%"></stop>
            <stop stop-color="#E8E8E8" offset="100%"></stop>
        </linearGradient>
        <path d="M9,1 L99,1 C103.418278,1 107,4.581722 107,9 L107,99 C107,103.418278 103.418278,107 99,107 L9,107 C4.581722,107 1,103.418278 1,99 L1,9 C1,4.581722 4.581722,1 9,1 Z" id="path-3"></path>
        <filter x="-0.9%" y="-0.9%" width="101.9%" height="101.9%" filterUnits="objectBoundingBox" id="filter-4">
            <feOffset dx="0" dy="-2" in="SourceAlpha" result="shadowOffsetInner1"></feOffset>
            <feComposite in="shadowOffsetInner1" in2="SourceAlpha" operator="arithmetic" k2="-1" k3="1" result="shadowInnerInner1"></feComposite>
            <feColorMatrix values="0 0 0 0 0   0 0 0 0 0   0 0 0 0 0  0 0 0 0.101016171 0" type="matrix" in="shadowInnerInner1" result="shadowMatrixInner1"></feColorMatrix>
            <feOffset dx="0" dy="1" in="SourceAlpha" result="shadowOffsetInner2"></feOffset>
            <feComposite in="shadowOffsetInner2" in2="SourceAlpha" operator="arithmetic" k2="-1" k3="1" result="shadowInnerInner2"></feComposite>
            <feColorMatrix values="0 0 0 0 1   0 0 0 0 1   0 0 0 0 1  0 0 0 1 0" type="matrix" in="shadowInnerInner2" result="shadowMatrixInner2"></feColorMatrix>
            <feMerge>
                <feMergeNode in="shadowMatrixInner1"></feMergeNode>
                <feMergeNode in="shadowMatrixInner2"></feMergeNode>
            </feMerge>
        </filter>
        <linearGradient x1="50%" y1="0%" x2="50%" y2="100%" id="linearGradient-5">
            <stop stop-color="#E1E4E6" offset="0%"></stop>
            <stop stop-color="#C2C8CD" offset="100%"></stop>
        </linearGradient>
        <linearGradient x1="50%" y1="0%" x2="50%" y2="100%" id="linearGradient-6">
            <stop stop-color="#000000" stop-opacity="0.202933785" offset="0%"></stop>
            <stop stop-color="#000000" stop-opacity="0.403791521" offset="100%"></stop>
        </linearGradient>
        <linearGradient x1="106.273294%" y1="17.9381684%" x2="1.29917318%" y2="17.9381684%" id="linearGradient-7">
            <stop stop-color="#C7B1DB" offset="0%"></stop>
            <stop stop-color="#5E5CA4" offset="100%"></stop>
        </linearGradient>
        <polygon id="path-8" points="34 57 74 57 74 65 52 65.0002226 52 75.25"></polygon>
        <filter x="-2.5%" y="-5.5%" width="105.0%" height="111.0%" filterUnits="objectBoundingBox" id="filter-9">
            <feOffset dx="0" dy="-2" in="SourceAlpha" result="shadowOffsetInner1"></feOffset>
            <feComposite in="shadowOffsetInner1" in2="SourceAlpha" operator="arithmetic" k2="-1" k3="1" result="shadowInnerInner1"></feComposite>
            <feColorMatrix values="0 0 0 0 0   0 0 0 0 0   0 0 0 0 0  0 0 0 0.105475579 0" type="matrix" in="shadowInnerInner1"></feColorMatrix>
        </filter>
        <linearGradient x1="-18.0409837%" y1="0%" x2="119.034024%" y2="0%" id="linearGradient-10">
            <stop stop-color="#81D6EB" offset="0%"></stop>
            <stop stop-color="#5059B7" offset="100%"></stop>
        </linearGradient>
        <polygon id="path-11" points="34 32.75 74 32.75 74 40.7497774 52 40.75 52 51"></polygon>
        <filter x="-2.5%" y="-5.5%" width="105.0%" height="111.0%" filterUnits="objectBoundingBox" id="filter-12">
            <feOffset dx="0" dy="2" in="SourceAlpha" result="shadowOffsetInner1"></feOffset>
            <feComposite in="shadowOffsetInner1" in2="SourceAlpha" operator="arithmetic" k2="-1" k3="1" result="shadowInnerInner1"></feComposite>
            <feColorMatrix values="0 0 0 0 0   0 0 0 0 0   0 0 0 0 0  0 0 0 0.10612093 0" type="matrix" in="shadowInnerInner1"></feColorMatrix>
        </filter>
        <linearGradient x1="43.0658849%" y1="4.48152103%" x2="43.0658849%" y2="97.9131011%" id="linearGradient-13">
            <stop stop-color="#C3C4D0" offset="0%"></stop>
            <stop stop-color="#5B5E70" offset="100%"></stop>
        </linearGradient>
    </defs>
    <g id="dde-cooperation" stroke="none" stroke-width="1" fill="none" fill-rule="evenodd">
        <g id="编组-2" filter="url(#filter-1)" transform="translate(10, 10)">
            <g id="矩形">
                <use fill="url(#linearGradient-2)" fill-rule="evenodd" xlink:href="#path-3"></use>
                <use fill="black" fill-opacity="1" filter="url(#filter-4)" xlink:href="#path-3"></use>
            </g>
            <path d="M99,1 C103.418278,1 107,4.581722 107,9 L107,99 C107,103.418278 103.418278,107 99,107 L9,107 C4.581722,107 1,103.418278 1,99 L1,9 C1,4.581722 4.581722,1 9,1 L99,1 Z M99,9 L9,9 L9,99 L99,99 L99,9 Z" id="矩形" fill="url(#linearGradient-5)" fill-rule="nonzero"></path>
            <path d="M99,0 L9,0 C4.02943725,0 0,4.02943725 0,9 L0,99 C0,103.970563 4.02943725,108 9,108 L99,108 C103.970563,108 108,103.970563 108,99 L108,9 C108,4.02943725 103.970563,0 99,0 Z M99,1 C103.418278,1 107,4.581722 107,9 L107,99 C107,103.418278 103.418278,107 99,107 L9,107 C4.581722,107 1,103.418278 1,99 L1,9 C1,4.581722 4.581722,1 9,1 L99,1 Z" id="矩形备份-3" fill="url(#linearGradient-6)" fill-rule="nonzero"></path>
            <g id="路径" fill-rule="nonzero">
                <use fill="url(#linearGradient-7)" xlink:href="#path-8"></use>
                <use fill="black" fill-opacity="1" filter="url(#filter-9)" xlink:href="#path-8"></use>
            </g>
            <g id="路径" fill-rule="nonzero" transform="translate(54, 41.875) rotate(-180) translate(-54, -41.875)">
                <use fill="url(#linearGradient-10)" xlink:href="#path-11"></use>
                <use fill="black" fill-opacity="1" filter="url(#filter-12)" xlink:href="#path-11"></use>
            </g>
            <path d="M88,20 L90,20 C91.6568542,20 93,21.3431458 93,23 L93,85 C93,86.6568542 91.6568542,88 90,88 L88,88 C86.3431458,88 85,86.6568542 85,85 L85,23 C85,21.3431458 86.3431458,20 88,20 Z" id="矩形" fill="url(#linearGradient-13)" fill-rule="nonzero"></path>
            <path d="M18,20 L20,20 C21.6568542,20 23,21.3431458 23,23 L23,85 C23,86.6568542 21.6568542,88 20,88 L18,88 C16.3431458,88 15,86.6568542 15,85 L15,23 C15,21.3431458 16.3431458,20 18,20 Z" id="矩形" fill="url(#linearGradient-13)" fill-rule="nonzero"></path>
        </g>
    </g>
</svg>