<svg xmlns="http://www.w3.org/2000/svg" xmlns:xlink="http://www.w3.org/1999/xlink" width="128" height="128" viewBox="0 0 128 128">
  <defs>
    <filter id="deepin-calendar-a" width="147.3%" height="141.4%" x="-23.6%" y="-18%" filterUnits="objectBoundingBox">
      <feOffset dy="2" in="SourceAlpha" result="shadowOffsetOuter1"/>
      <feGaussianBlur in="shadowOffsetOuter1" result="shadowBlurOuter1" stdDeviation="3"/>
      <feColorMatrix in="shadowBlurOuter1" result="shadowMatrixOuter1" values="0 0 0 0 0   0 0 0 0 0   0 0 0 0 0  0 0 0 0.2 0"/>
      <feMerge>
        <feMergeNode in="shadowMatrixOuter1"/>
        <feMergeNode in="SourceGraphic"/>
      </feMerge>
    </filter>
    <filter id="deepin-calendar-b" width="124.5%" height="125.7%" x="-12.3%" y="-12.9%" filterUnits="objectBoundingBox">
      <feOffset dy="2" in="SourceAlpha" result="shadowOffsetOuter1"/>
      <feGaussianBlur in="shadowOffsetOuter1" result="shadowBlurOuter1" stdDeviation="2.5"/>
      <feColorMatrix in="shadowBlurOuter1" result="shadowMatrixOuter1" values="0 0 0 0 0   0 0 0 0 0   0 0 0 0 0  0 0 0 0.2 0"/>
      <feMerge>
        <feMergeNode in="shadowMatrixOuter1"/>
        <feMergeNode in="SourceGraphic"/>
      </feMerge>
    </filter>
    <linearGradient id="deepin-calendar-c" x1="50%" x2="50%" y1="43.306%" y2="0%">
      <stop offset="0%" stop-color="#FFF" stop-opacity="0"/>
      <stop offset="100%" stop-color="#FFF"/>
    </linearGradient>
    <circle id="deepin-calendar-e" cx="75" cy="13" r="4"/>
    <filter id="deepin-calendar-d" width="175%" height="175%" x="-37.5%" y="-37.5%" filterUnits="objectBoundingBox">
      <feOffset in="SourceAlpha" result="shadowOffsetOuter1"/>
      <feGaussianBlur in="shadowOffsetOuter1" result="shadowBlurOuter1" stdDeviation="1"/>
      <feColorMatrix in="shadowBlurOuter1" values="0 0 0 0 0   0 0 0 0 0   0 0 0 0 0  0 0 0 0.5 0"/>
    </filter>
    <filter id="deepin-calendar-f" width="175%" height="175%" x="-37.5%" y="-37.5%" filterUnits="objectBoundingBox">
      <feGaussianBlur in="SourceAlpha" result="shadowBlurInner1" stdDeviation="1"/>
      <feOffset in="shadowBlurInner1" result="shadowOffsetInner1"/>
      <feComposite in="shadowOffsetInner1" in2="SourceAlpha" k2="-1" k3="1" operator="arithmetic" result="shadowInnerInner1"/>
      <feColorMatrix in="shadowInnerInner1" values="0 0 0 0 0.198624321   0 0 0 0 0.0835751191   0 0 0 0 0.0835751191  0 0 0 1 0"/>
    </filter>
    <radialGradient id="deepin-calendar-g" cx="50%" cy="100%" r="50%" fx="50%" fy="100%">
      <stop offset="0%" stop-color="#FFF"/>
      <stop offset="100%" stop-color="#FFF" stop-opacity="0"/>
    </radialGradient>
    <linearGradient id="deepin-calendar-h" x1="47.519%" x2="47.519%" y1="-61.406%" y2="309.141%">
      <stop offset="0%" stop-color="#D5655F"/>
      <stop offset="100%" stop-color="#962620"/>
      <stop offset="100%" stop-color="#9A201A"/>
    </linearGradient>
    <linearGradient id="deepin-calendar-i" x1="47.895%" x2="47.895%" y1="-66.445%" y2="100.157%">
      <stop offset="0%" stop-color="#8F241F"/>
      <stop offset="100%" stop-color="#AC3D37"/>
    </linearGradient>
    <linearGradient id="deepin-calendar-j" x1="96.552%" x2="96.552%" y1="43.74%" y2="100%">
      <stop offset="0%" stop-color="#EEE"/>
      <stop offset="100%" stop-color="#D8D8D8"/>
    </linearGradient>
    <linearGradient id="deepin-calendar-k" x1="50%" x2="50%" y1="2.827%" y2="56.451%">
      <stop offset="0%" stop-opacity=".304"/>
      <stop offset="100%" stop-opacity=".331"/>
    </linearGradient>
    <linearGradient id="deepin-calendar-n" x1="50%" x2="50%" y1="0%" y2="100%">
      <stop offset="0%" stop-color="#FFF"/>
      <stop offset="100%" stop-color="#DFDFDF"/>
    </linearGradient>
    <path id="deepin-calendar-m" d="M1,31 L109,31 L106.101562,33.694115 L103.148438,33.694115 L100.404297,35.843356 L95.0449219,34 L91.9008789,35.843356 L85.9458008,33.694115 L81.3637695,35.843356 C75.0906576,35.0639963 71.9541016,34.6743164 71.9541016,34.6743164 C71.9541016,34.6743164 67.3027344,34.2567703 58,33.421678 L41.78125,34 L39.8813477,32.347168 L37.3666992,33.421678 L33,33.421678 C29.8522135,32.705338 28.0652669,32.347168 27.6391602,32.347168 C27,32.347168 18.5849609,33.421678 18.5849609,33.421678 C18.5849609,33.421678 15.8588867,33.063508 10.4067383,32.347168 C7.18343099,33.8986003 5.57177734,34.6743164 5.57177734,34.6743164 C5.57177734,34.6743164 4.04785156,33.4495443 1,31 Z"/>
    <filter id="deepin-calendar-l" width="103.7%" height="182.6%" x="-1.9%" y="-20.6%" filterUnits="objectBoundingBox">
      <feOffset dy="1" in="SourceAlpha" result="shadowOffsetOuter1"/>
      <feGaussianBlur in="shadowOffsetOuter1" result="shadowBlurOuter1" stdDeviation=".5"/>
      <feColorMatrix in="shadowBlurOuter1" values="0 0 0 0 0   0 0 0 0 0   0 0 0 0 0  0 0 0 0.197006119 0"/>
    </filter>
    <linearGradient id="deepin-calendar-q" x1="47.519%" x2="47.519%" y1="4.215%" y2="100%">
      <stop offset="0%" stop-color="#E77B76"/>
      <stop offset="100%" stop-color="#962620"/>
      <stop offset="100%" stop-color="#BF5954"/>
    </linearGradient>
    <path id="deepin-calendar-p" d="M2,7 L108,7 C108.552285,7 109,7.44771525 109,8 L109,30 L109,30 L1,30 L1,8 C1,7.44771525 1.44771525,7 2,7 Z"/>
    <filter id="deepin-calendar-o" width="103.7%" height="117.4%" x="-1.9%" y="-4.3%" filterUnits="objectBoundingBox">
      <feOffset dy="1" in="SourceAlpha" result="shadowOffsetOuter1"/>
      <feGaussianBlur in="shadowOffsetOuter1" result="shadowBlurOuter1" stdDeviation=".5"/>
      <feColorMatrix in="shadowBlurOuter1" values="0 0 0 0 0   0 0 0 0 0   0 0 0 0 0  0 0 0 0.250928759 0"/>
    </filter>
    <linearGradient id="deepin-calendar-r" x1="47.895%" x2="47.895%" y1="-1.471%" y2="100.157%">
      <stop offset="0%" stop-color="#AD3D37"/>
      <stop offset="100%" stop-color="#680500"/>
    </linearGradient>
    <radialGradient id="deepin-calendar-s" cx="50%" cy="50%" r="4000%" fx="50%" fy="50%" gradientTransform="matrix(.0125 0 0 1 .494 0)">
      <stop offset="0%" stop-color="#FFF"/>
      <stop offset="100%" stop-color="#FFF" stop-opacity="0"/>
    </radialGradient>
    <circle id="deepin-calendar-u" cx="80" cy="14" r="4"/>
    <filter id="deepin-calendar-t" width="175%" height="175%" x="-37.5%" y="-37.5%" filterUnits="objectBoundingBox">
      <feOffset in="SourceAlpha" result="shadowOffsetOuter1"/>
      <feGaussianBlur in="shadowOffsetOuter1" result="shadowBlurOuter1" stdDeviation="1"/>
      <feColorMatrix in="shadowBlurOuter1" values="0 0 0 0 0   0 0 0 0 0   0 0 0 0 0  0 0 0 0.5 0"/>
    </filter>
    <filter id="deepin-calendar-v" width="175%" height="175%" x="-37.5%" y="-37.5%" filterUnits="objectBoundingBox">
      <feGaussianBlur in="SourceAlpha" result="shadowBlurInner1" stdDeviation="1"/>
      <feOffset in="shadowBlurInner1" result="shadowOffsetInner1"/>
      <feComposite in="shadowOffsetInner1" in2="SourceAlpha" k2="-1" k3="1" operator="arithmetic" result="shadowInnerInner1"/>
      <feColorMatrix in="shadowInnerInner1" values="0 0 0 0 0.198624321   0 0 0 0 0.0835751191   0 0 0 0 0.0835751191  0 0 0 1 0"/>
    </filter>
    <circle id="deepin-calendar-x" cx="30" cy="14" r="4"/>
    <filter id="deepin-calendar-w" width="175%" height="175%" x="-37.5%" y="-37.5%" filterUnits="objectBoundingBox">
      <feOffset in="SourceAlpha" result="shadowOffsetOuter1"/>
      <feGaussianBlur in="shadowOffsetOuter1" result="shadowBlurOuter1" stdDeviation="1"/>
      <feColorMatrix in="shadowBlurOuter1" values="0 0 0 0 0   0 0 0 0 0   0 0 0 0 0  0 0 0 0.5 0"/>
    </filter>
    <filter id="deepin-calendar-y" width="175%" height="175%" x="-37.5%" y="-37.5%" filterUnits="objectBoundingBox">
      <feGaussianBlur in="SourceAlpha" result="shadowBlurInner1" stdDeviation="1"/>
      <feOffset in="shadowBlurInner1" result="shadowOffsetInner1"/>
      <feComposite in="shadowOffsetInner1" in2="SourceAlpha" k2="-1" k3="1" operator="arithmetic" result="shadowInnerInner1"/>
      <feColorMatrix in="shadowInnerInner1" values="0 0 0 0 0.198624321   0 0 0 0 0.0835751191   0 0 0 0 0.0835751191  0 0 0 1 0"/>
    </filter>
    <linearGradient id="deepin-calendar-z" x1="50%" x2="117.958%" y1="42.227%" y2="102.255%">
      <stop offset="0%" stop-color="#AAA1A0"/>
      <stop offset="10.838%" stop-color="#C1BBBA"/>
      <stop offset="34.359%" stop-color="#E8E8E8"/>
      <stop offset="100%" stop-color="#DBDBDB"/>
    </linearGradient>
    <linearGradient id="deepin-calendar-A" x1="36.929%" x2="61.073%" y1="24.696%" y2="57.643%">
      <stop offset="0%" stop-color="#FFF"/>
      <stop offset="26.249%" stop-color="#E9E9E9"/>
      <stop offset="38.085%" stop-color="#DFDFDF"/>
      <stop offset="100%" stop-color="#D1C7C0"/>
    </linearGradient>
    <radialGradient id="deepin-calendar-B" cx="40.841%" cy="12.602%" r="99.875%" fx="40.841%" fy="12.602%" gradientTransform="matrix(-.40892 .87507 -.73934 -.484 .669 -.17)">
      <stop offset="0%" stop-opacity=".072"/>
      <stop offset="100%" stop-opacity=".115"/>
    </radialGradient>
    <linearGradient id="deepin-calendar-E" x1="167.218%" x2="-69.049%" y1="0%" y2="0%">
      <stop offset="0%" stop-color="silver"/>
      <stop offset="49.779%" stop-color="#FFF"/>
      <stop offset="100%" stop-color="#BABABA"/>
    </linearGradient>
    <linearGradient id="deepin-calendar-F" x1="50%" x2="50%" y1="0%" y2="100%">
      <stop offset="0%" stop-opacity=".058"/>
      <stop offset="43.923%" stop-color="#FFF" stop-opacity=".315"/>
      <stop offset="100%" stop-opacity=".477"/>
    </linearGradient>
    <path id="deepin-calendar-D" d="M30,1 C31.6568542,1 33,2.34314575 33,4 L33,20 C33,21.6568542 31.6568542,23 30,23 C28.3431458,23 27,21.6568542 27,20 L27,4 C27,2.34314575 28.3431458,1 30,1 Z"/>
    <filter id="deepin-calendar-C" width="216.7%" height="131.8%" x="-58.3%" y="-11.4%" filterUnits="objectBoundingBox">
      <feOffset dy="1" in="SourceAlpha" result="shadowOffsetOuter1"/>
      <feGaussianBlur in="shadowOffsetOuter1" result="shadowBlurOuter1" stdDeviation="1"/>
      <feColorMatrix in="shadowBlurOuter1" values="0 0 0 0 0   0 0 0 0 0   0 0 0 0 0  0 0 0 0.297394012 0"/>
    </filter>
    <path id="deepin-calendar-H" d="M80,1 C81.6568542,1 83,2.34314575 83,4 L83,20 C83,21.6568542 81.6568542,23 80,23 C78.3431458,23 77,21.6568542 77,20 L77,4 C77,2.34314575 78.3431458,1 80,1 Z"/>
    <filter id="deepin-calendar-G" width="216.7%" height="131.8%" x="-58.3%" y="-11.4%" filterUnits="objectBoundingBox">
      <feOffset dy="1" in="SourceAlpha" result="shadowOffsetOuter1"/>
      <feGaussianBlur in="shadowOffsetOuter1" result="shadowBlurOuter1" stdDeviation="1"/>
      <feColorMatrix in="shadowBlurOuter1" values="0 0 0 0 0   0 0 0 0 0   0 0 0 0 0  0 0 0 0.297394012 0"/>
    </filter>
    <linearGradient id="deepin-calendar-I" x1="55.405%" x2="55.405%" y1="-1.351%" y2="101.351%">
      <stop offset="0%" stop-opacity=".135"/>
      <stop offset="100%" stop-opacity=".192"/>
    </linearGradient>
  </defs>
  <g fill="none" fill-rule="evenodd" filter="url(#deepin-calendar-a)" transform="translate(9 8)">
    <g filter="url(#deepin-calendar-b)" transform="translate(0 6)">
      <path fill="url(#deepin-calendar-c)" fill-rule="nonzero" d="M80 0C77.2385763 0 75 2.23857625 75 5 75 7.76142375 77.2385763 10 80 10 82.7614237 10 85 7.76142375 85 5 85 2.23857625 82.7614237 0 80 0zM80 1C82.209139 1 84 2.790861 84 5 84 7.209139 82.209139 9 80 9 77.790861 9 76 7.209139 76 5 76 2.790861 77.790861 1 80 1zM30 0C27.2385763 0 25 2.23857625 25 5 25 7.76142375 27.2385763 10 30 10 32.7614237 10 35 7.76142375 35 5 35 2.23857625 32.7614237 0 30 0zM30 1C32.209139 1 34 2.790861 34 5 34 7.209139 32.209139 9 30 9 27.790861 9 26 7.209139 26 5 26 2.790861 27.790861 1 30 1z" opacity=".285"/>
      <g fill-rule="nonzero" opacity=".4">
        <use fill="#000" filter="url(#deepin-calendar-d)" xlink:href="#deepin-calendar-e"/>
        <use fill="#4A2323" xlink:href="#deepin-calendar-e"/>
        <use fill="#000" filter="url(#deepin-calendar-f)" xlink:href="#deepin-calendar-e"/>
      </g>
      <path fill="url(#deepin-calendar-g)" fill-rule="nonzero" d="M75,8 C72.2385763,8 70,10.2385763 70,13 C70,15.7614237 72.2385763,18 75,18 C77.7614237,18 80,15.7614237 80,13 C80,10.2385763 77.7614237,8 75,8 Z M75,9 C77.209139,9 79,10.790861 79,13 C79,15.209139 77.209139,17 75,17 C72.790861,17 71,15.209139 71,13 C71,10.790861 72.790861,9 75,9 Z" opacity=".4"/>
      <path fill="url(#deepin-calendar-h)" fill-rule="nonzero" d="M6.56015639,2 L103.428112,2 C104.412563,2 105.334368,2.48299124 105.894715,3.29240764 L108.461426,7 L108.461426,7 L1.49291992,7 L4.10409561,3.27727964 C4.66566503,2.47665716 5.58222154,2 6.56015639,2 Z"/>
      <path fill="url(#deepin-calendar-i)" fill-rule="nonzero" d="M103.428112,1 L6.56015639,1 C5.25624325,1 4.03416792,1.63554288 3.28540868,2.70303951 L0.674232996,6.42575988 C0.209410772,7.08845108 0.683463727,8 1.49291992,8 L108.461426,8 C109.268081,8 109.742773,7.09403496 109.283627,6.43080255 L106.716915,2.72321019 C105.969786,1.64398832 104.740713,1 103.428112,1 Z M103.428112,2 C104.412563,2 105.334368,2.48299124 105.894715,3.29240764 L108.461426,7 L1.49291992,7 L4.10409561,3.27727964 C4.66566503,2.47665716 5.58222154,2 6.56015639,2 L103.428112,2 Z"/>
      <path fill="url(#deepin-calendar-j)" d="M4,7 L106,7 C107.656854,7 109,8.34314575 109,10 L109,98 C109,101.313708 106.313708,104 103,104 L7,104 C3.6862915,104 1,101.313708 1,98 L1,10 C1,8.34314575 2.34314575,7 4,7 Z"/>
      <path fill="url(#deepin-calendar-k)" fill-rule="nonzero" d="M106,6 L4,6 C1.790861,6 0,7.790861 0,10 L0,98 C0,101.865993 3.13400675,105 7,105 L103,105 C106.865993,105 110,101.865993 110,98 L110,10 C110,7.790861 108.209139,6 106,6 Z M106,7 C107.656854,7 109,8.34314575 109,10 L109,98 C109,101.313708 106.313708,104 103,104 L7,104 C3.6862915,104 1,101.313708 1,98 L1,10 C1,8.34314575 2.34314575,7 4,7 L106,7 Z"/>
      <use fill="#000" filter="url(#deepin-calendar-l)" xlink:href="#deepin-calendar-m"/>
      <use fill="url(#deepin-calendar-n)" xlink:href="#deepin-calendar-m"/>
      <g fill-rule="nonzero">
        <use fill="#000" filter="url(#deepin-calendar-o)" xlink:href="#deepin-calendar-p"/>
        <use fill="url(#deepin-calendar-q)" xlink:href="#deepin-calendar-p"/>
      </g>
      <path fill="url(#deepin-calendar-r)" fill-rule="nonzero" d="M108,6 L2,6 C0.8954305,6 0,6.8954305 0,8 L0,31 L110,31 L110,8 C110,6.8954305 109.104569,6 108,6 Z M108,7 C108.552285,7 109,7.44771525 109,8 L109,30 L1,30 L1,8 C1,7.44771525 1.44771525,7 2,7 L108,7 Z"/>
      <polygon fill="url(#deepin-calendar-s)" fill-rule="nonzero" points="15 7 95 7 95 8 15 8" opacity=".5"/>
      <g fill-rule="nonzero" opacity=".4">
        <use fill="#000" filter="url(#deepin-calendar-t)" xlink:href="#deepin-calendar-u"/>
        <use fill="#4A2323" xlink:href="#deepin-calendar-u"/>
        <use fill="#000" filter="url(#deepin-calendar-v)" xlink:href="#deepin-calendar-u"/>
      </g>
      <path fill="url(#deepin-calendar-g)" fill-rule="nonzero" d="M80,9 C77.2385763,9 75,11.2385763 75,14 C75,16.7614237 77.2385763,19 80,19 C82.7614237,19 85,16.7614237 85,14 C85,11.2385763 82.7614237,9 80,9 Z M80,10 C82.209139,10 84,11.790861 84,14 C84,16.209139 82.209139,18 80,18 C77.790861,18 76,16.209139 76,14 C76,11.790861 77.790861,10 80,10 Z" opacity=".4"/>
      <g fill-rule="nonzero" opacity=".4">
        <use fill="#000" filter="url(#deepin-calendar-w)" xlink:href="#deepin-calendar-x"/>
        <use fill="#4A2323" xlink:href="#deepin-calendar-x"/>
        <use fill="#000" filter="url(#deepin-calendar-y)" xlink:href="#deepin-calendar-x"/>
      </g>
      <path fill="url(#deepin-calendar-g)" fill-rule="nonzero" d="M30,9 C27.2385763,9 25,11.2385763 25,14 C25,16.7614237 27.2385763,19 30,19 C32.7614237,19 35,16.7614237 35,14 C35,11.2385763 32.7614237,9 30,9 Z M30,10 C32.209139,10 34,11.790861 34,14 C34,16.209139 32.209139,18 30,18 C27.790861,18 26,16.209139 26,14 C26,11.790861 27.790861,10 30,10 Z" opacity=".4"/>
      <path fill="#000" fill-opacity=".323" fill-rule="nonzero" d="M48.8964844,24.9789297 C49.9674479,24.9789297 50.7923177,24.6359935 51.3710938,23.9501211 C51.9498698,23.2642487 52.2392578,22.4769766 52.2392578,21.5883047 C52.2392578,20.5492422 51.9339193,19.7676667 51.3232422,19.2435781 C50.7125651,18.7194896 49.9970703,18.4574453 49.1767578,18.4574453 C48.6936849,18.4574453 48.2561849,18.5485911 47.8642578,18.7308828 C47.4358724,18.9359609 47.0804036,19.2458568 46.7978516,19.6605703 C46.8434245,18.4756745 47.0690104,17.5653555 47.4746094,16.9296133 C47.8802083,16.2938711 48.4270833,15.976 49.1152344,15.976 C49.7167969,15.976 50.1656901,16.1810781 50.4619141,16.5912344 C50.6214193,16.8099844 50.7376302,17.1130443 50.8105469,17.5004141 L52.0273438,17.5004141 C52.0273438,16.8988516 51.8120117,16.3143789 51.3813477,15.7469961 C50.9506836,15.1796133 50.1884766,14.8959219 49.0947266,14.8959219 C47.5817057,14.8959219 46.5403646,15.7071198 45.9707031,17.3295156 C45.6744792,18.1771719 45.5263672,19.2093984 45.5263672,20.4261953 C45.5263672,22.0713776 45.8590495,23.2414622 46.5244141,23.9364492 C47.1897786,24.6314362 47.9804688,24.9789297 48.8964844,24.9789297 Z M49.0058594,23.8851797 C48.3632812,23.8851797 47.8608398,23.6744049 47.4985352,23.2528555 C47.1362305,22.831306 46.9550781,22.3106354 46.9550781,21.6908437 C46.9550781,20.9844635 47.1544596,20.4558177 47.5532227,20.1049062 C47.9519857,19.7539948 48.4156901,19.5785391 48.9443359,19.5785391 C49.7008464,19.5785391 50.2226562,19.8052643 50.5097656,20.2587148 C50.796875,20.7121654 50.9404297,21.1895417 50.9404297,21.6908437 C50.9404297,22.2832917 50.7797852,22.7971263 50.4584961,23.2323477 C50.137207,23.667569 49.6529948,23.8851797 49.0058594,23.8851797 Z M55.5021328,26.168 C56.4121328,24.978 56.9441328,23.48 57.1121328,21.66 L63.1461328,21.66 L63.1461328,24.446 C63.1461328,24.852 62.9781328,25.062 62.6561328,25.062 C62.1241328,25.062 61.5361328,25.034 60.8921328,25.006 L61.1721328,26 L62.9781328,26 C63.7621328,26 64.1681328,25.594 64.1681328,24.796 L64.1681328,13.848 L56.1461328,13.848 L56.1461328,20.68 C56.1181328,22.612 55.6561328,24.208 54.7321328,25.468 L55.5021328,26.168 Z M63.1461328,17.264 L57.1681328,17.264 L57.1681328,14.814 L63.1461328,14.814 L63.1461328,17.264 Z M63.1461328,20.722 L57.1681328,20.722 L57.1681328,18.202 L63.1461328,18.202 L63.1461328,20.722 Z"/>
      <path fill="#FFF" fill-rule="nonzero" d="M48.8964844,24.2529297 C49.9674479,24.2529297 50.7923177,23.9099935 51.3710938,23.2241211 C51.9498698,22.5382487 52.2392578,21.7509766 52.2392578,20.8623047 C52.2392578,19.8232422 51.9339193,19.0416667 51.3232422,18.5175781 C50.7125651,17.9934896 49.9970703,17.7314453 49.1767578,17.7314453 C48.6936849,17.7314453 48.2561849,17.8225911 47.8642578,18.0048828 C47.4358724,18.2099609 47.0804036,18.5198568 46.7978516,18.9345703 C46.8434245,17.7496745 47.0690104,16.8393555 47.4746094,16.2036133 C47.8802083,15.5678711 48.4270833,15.25 49.1152344,15.25 C49.7167969,15.25 50.1656901,15.4550781 50.4619141,15.8652344 C50.6214193,16.0839844 50.7376302,16.3870443 50.8105469,16.7744141 L50.8105469,16.7744141 L52.0273438,16.7744141 C52.0273438,16.1728516 51.8120117,15.5883789 51.3813477,15.0209961 C50.9506836,14.4536133 50.1884766,14.1699219 49.0947266,14.1699219 C47.5817057,14.1699219 46.5403646,14.9811198 45.9707031,16.6035156 C45.6744792,17.4511719 45.5263672,18.4833984 45.5263672,19.7001953 C45.5263672,21.3453776 45.8590495,22.5154622 46.5244141,23.2104492 C47.1897786,23.9054362 47.9804688,24.2529297 48.8964844,24.2529297 Z M49.0058594,23.1591797 C48.3632812,23.1591797 47.8608398,22.9484049 47.4985352,22.5268555 C47.1362305,22.105306 46.9550781,21.5846354 46.9550781,20.9648437 C46.9550781,20.2584635 47.1544596,19.7298177 47.5532227,19.3789062 C47.9519857,19.0279948 48.4156901,18.8525391 48.9443359,18.8525391 C49.7008464,18.8525391 50.2226562,19.0792643 50.5097656,19.5327148 C50.796875,19.9861654 50.9404297,20.4635417 50.9404297,20.9648437 C50.9404297,21.5572917 50.7797852,22.0711263 50.4584961,22.5063477 C50.137207,22.941569 49.6529948,23.1591797 49.0058594,23.1591797 Z M55.5021328,25.442 C56.4121328,24.252 56.9441328,22.754 57.1121328,20.934 L63.1461328,20.934 L63.1461328,23.72 C63.1461328,24.126 62.9781328,24.336 62.6561328,24.336 C62.1241328,24.336 61.5361328,24.308 60.8921328,24.28 L61.1721328,25.274 L62.9781328,25.274 C63.7621328,25.274 64.1681328,24.868 64.1681328,24.07 L64.1681328,13.122 L56.1461328,13.122 L56.1461328,19.954 C56.1181328,21.886 55.6561328,23.482 54.7321328,24.742 L55.5021328,25.442 Z M63.1461328,16.538 L57.1681328,16.538 L57.1681328,14.088 L63.1461328,14.088 L63.1461328,16.538 Z M63.1461328,19.996 L57.1681328,19.996 L57.1681328,17.476 L63.1461328,17.476 L63.1461328,19.996 Z"/>
      <path fill="#313131" fill-rule="nonzero" d="M52.9667969,86 L52.9667969,78.6464844 L34.421875,78.6464844 C34.9492188,77.7675781 35.5986328,76.9960938 36.3701172,76.3320312 C37.1416016,75.6679688 38.5722656,74.59375 40.6621094,73.109375 L40.6621094,73.109375 L44.0019531,70.7363281 C46.8144531,68.7441406 48.8359375,66.9375 50.0664062,65.3164062 C51.9414062,62.875 52.8789062,60.0820312 52.8789062,56.9375 C52.8789062,52.8359375 51.5507812,49.5400391 48.8945312,47.0498047 C46.2382812,44.5595703 42.6640625,43.3144531 38.171875,43.3144531 C32.4882812,43.3144531 28.5332031,45.4335938 26.3066406,49.671875 C25.1347656,51.8984375 24.4804688,54.8183594 24.34375,58.4316406 L24.34375,58.4316406 L32.4589844,58.4316406 C32.5566406,56.0488281 32.8691406,54.3105469 33.3964844,53.2167969 C34.3144531,51.3222656 36.0429688,50.375 38.5820312,50.375 C40.4375,50.375 41.8632812,50.9707031 42.859375,52.1621094 C43.8554688,53.3535156 44.3535156,54.8476562 44.3535156,56.6445312 C44.3535156,58.8515625 43.484375,60.8828125 41.7460938,62.7382812 C40.6132812,63.9296875 38.1230469,65.9023438 34.2753906,68.65625 C29.8417969,71.8203125 27.0292969,74.8183594 25.8378906,77.6503906 C24.6074219,80.1699219 23.953125,82.953125 23.875,86 L23.875,86 L52.9667969,86 Z M71.5410156,86 C71.5410156,83.5585938 72.0195312,80.4335938 72.9765625,76.625 C73.9335938,72.8164062 75.0078125,69.59375 76.1992188,66.9570312 C77.703125,63.5976562 79.5683594,60.3408203 81.7949219,57.1865234 C84.0214844,54.0322266 85.7597656,51.8398438 87.0097656,50.609375 L87.0097656,50.609375 L87.0097656,44.0761719 L57.0097656,44.0761719 L56.8925781,51.5761719 L78.0742188,51.5761719 C76.0039062,53.5878906 73.4355469,57.1425781 70.3691406,62.2402344 C65.6230469,70.4628906 63.1230469,78.3828125 62.8691406,86 L62.8691406,86 L71.5410156,86 Z"/>
      <path fill="url(#deepin-calendar-z)" d="M109,72.546875 L83.9600592,93.2293987 L71,104 L103,104 C106.313708,104 109,101.313708 109,98 L109,72.546875 L109,72.546875 Z"/>
      <path fill="url(#deepin-calendar-A)" d="M109,71.8943481 C107.037987,73.2395584 105.566226,74.0981806 104.584717,74.4702148 C101.748981,75.5450806 91.5583703,75.5679939 87.3404478,75.5369353 C83.1225253,75.5058767 80.7385927,79.7405478 80.3529148,82.024619 C79.9672368,84.3086903 78.7464718,91.9971089 76.7440283,96.4358158 C75.409066,99.3949537 73.4943899,101.916348 71,104 C72.5284538,103.410416 73.5954762,102.924574 74.2010672,102.542474 C78.5816185,99.7785476 81.5173046,97.4447446 83.5364783,95.7776407 C87.5313419,92.4793348 98.7713559,83.1999424 102.89443,79.2107681 C105.137106,77.0409241 107.21245,74.8900368 109,72.546875 L109,71.8943481 Z"/>
      <path fill="url(#deepin-calendar-B)" fill-rule="nonzero" d="M109,71.8943481 L109,72.546875 C107.21245,74.8900368 105.137106,77.0409241 102.89443,79.2107681 L102.436169,79.6483996 L101.658852,80.3713572 L101.086071,80.8934459 L100.154269,81.7295146 L99.1463817,82.6204183 L97.331316,84.2005674 L95.0011019,86.1982607 L93.4015481,87.555381 L90.1923846,90.2531726 L87.6960942,92.33413 L82.8552448,96.3361648 L82.364093,96.7331635 L81.5689829,97.3643423 L80.9983031,97.8081609 L80.0784856,98.5071447 L79.4210572,98.9945501 L78.7269077,99.498485 L77.9948817,100.018432 C77.8696568,100.106395 77.7428056,100.195005 77.614304,100.284248 L76.8232971,100.827244 C76.6880977,100.918984 76.5511997,101.011337 76.4125791,101.104293 L75.559992,101.669173 L74.6649072,102.247996 C74.5121208,102.3456 74.3575154,102.443763 74.2010672,102.542474 C73.9847847,102.678939 73.7096461,102.828635 73.3756515,102.991564 L72.9466071,103.193431 L72.4610609,103.408 L71.9190129,103.635273 L71.3204631,103.875249 C71.2159963,103.916303 71.1091753,103.957887 71,104 C73.4943899,101.916348 75.409066,99.3949537 76.7440283,96.4358158 C77.3638323,95.0619303 77.9087475,93.3767063 78.3771903,91.6367704 L78.5879589,90.8307727 C78.62218,90.6961038 78.6559473,90.5613447 78.6892599,90.4266124 L78.8836736,89.6194728 L79.0671408,88.8185804 L79.2396269,88.0295421 L79.4010973,87.2579645 L79.6225728,86.1456019 L79.8190682,85.1040641 L80.0420026,83.8582253 L80.3529148,82.024619 C80.7385927,79.7405478 83.1225253,75.5058767 87.3404478,75.5369353 L88.5674987,75.543157 L90.8011331,75.539286 L92.4755844,75.5221612 L94.2369835,75.4888079 L95.583463,75.4507744 L96.4809025,75.4182967 L97.3705035,75.3795473 L98.2456937,75.3340339 L99.0999008,75.2812645 C99.240155,75.2718375 99.379261,75.2620878 99.5170819,75.2520049 L100.327491,75.1874286 L101.100487,75.1143659 C102.604682,74.9594259 103.84496,74.7506146 104.584717,74.4702148 C105.162075,74.2513712 105.909071,73.864158 106.825704,73.3085752 L107.39604,72.9550212 L108.007089,72.5610585 L108.658852,72.1266871 L109,71.8943481 Z M105.457,75.187 L105.337364,75.2413919 C105.1983,75.3027436 105.065584,75.3573722 104.939153,75.4052952 C104.595989,75.535369 104.170103,75.6524261 103.668105,75.7573903 L103.219336,75.8444196 L102.734212,75.9256552 C102.566548,75.9517824 102.392979,75.9769656 102.213659,76.0012263 L101.658602,76.0712621 C101.563268,76.0824807 101.466536,76.093474 101.368423,76.1042448 L100.763344,76.1662203 L99.7956563,76.2494514 L99.1118332,76.2986393 L98.0303649,76.363295 L96.8847914,76.4173873 L95.6782347,76.4613525 L94.8415257,76.4852519 L93.5402683,76.5133082 L92.1863533,76.5324008 L90.3046177,76.5446685 L88.8399764,76.5445429 L87.3330845,76.5369082 C84.4138963,76.5154128 81.9389668,79.2609096 81.3791472,81.9768163 L81.2929928,82.4647326 L81.0970192,83.6257225 C80.9774479,84.3227345 80.8590513,84.9868232 80.7319166,85.6655463 C80.395911,87.4593506 80.0354129,89.1580193 79.6367779,90.7603769 C79.0312667,93.1942965 78.3753398,95.2515493 77.6555632,96.8470385 C77.1122556,98.0513588 76.4766834,99.1870718 75.7492574,100.253642 L75.625,100.43 L76.2306125,100.02434 C78.4510334,98.5225486 80.3632481,97.0780025 82.3544877,95.454035 L86.779269,91.7962598 L90.1380584,88.9950824 L91.8205006,87.5811805 L94.7851431,85.0683743 L96.9804132,83.1822647 L98.5985228,81.7710415 L100.014166,80.5138689 L100.99436,79.6241566 L101.637377,79.0271086 L102.199089,78.4920878 L103.085148,77.6261888 L103.913007,76.798493 C104.313182,76.3932081 104.693321,76.0000267 105.056108,75.615615 L105.457,75.187 Z"/>
    </g>
    <g fill-rule="nonzero">
      <use fill="#000" filter="url(#deepin-calendar-C)" xlink:href="#deepin-calendar-D"/>
      <use fill="url(#deepin-calendar-E)" xlink:href="#deepin-calendar-D"/>
      <use fill="url(#deepin-calendar-F)" xlink:href="#deepin-calendar-D"/>
    </g>
    <g fill-rule="nonzero">
      <use fill="#000" filter="url(#deepin-calendar-G)" xlink:href="#deepin-calendar-H"/>
      <use fill="url(#deepin-calendar-E)" xlink:href="#deepin-calendar-H"/>
      <use fill="url(#deepin-calendar-F)" xlink:href="#deepin-calendar-H"/>
    </g>
    <path fill="url(#deepin-calendar-I)" fill-rule="nonzero" d="M30.0000002 2.40000006e-7C27.7908611 2.40000006e-7 26.0000002 1.79086113 26.0000002 4.00000024L26.0000002 20.0000002C26.0000002 22.2091389 27.7908611 24.0000002 30.0000002 24.0000002 32.2091389 24.0000002 34.0000002 22.2091389 34.0000002 20.0000002L34.0000002 4.00000024C34.0000002 1.79086113 32.2091389 2.40000006e-7 30.0000002 2.40000006e-7zM30 1C31.6568542 1 33 2.34314575 33 4L33 20C33 21.6568542 31.6568542 23 30 23 28.3431458 23 27 21.6568542 27 20L27 4C27 2.34314575 28.3431458 1 30 1zM80.0000002 2.40000006e-7C77.7908611 2.40000006e-7 76.0000002 1.79086113 76.0000002 4.00000024L76.0000002 20.0000002C76.0000002 22.2091389 77.7908611 24.0000002 80.0000002 24.0000002 82.2091389 24.0000002 84.0000002 22.2091389 84.0000002 20.0000002L84.0000002 4.00000024C84.0000002 1.79086113 82.2091389 2.40000006e-7 80.0000002 2.40000006e-7zM80 1C81.6568542 1 83 2.34314575 83 4L83 20C83 21.6568542 81.6568542 23 80 23 78.3431458 23 77 21.6568542 77 20L77 4C77 2.34314575 78.3431458 1 80 1z"/>
  </g>
</svg>
