<?xml version="1.0" encoding="UTF-8"?>
<svg width="128px" height="128px" viewBox="0 0 128 128" version="1.1" xmlns="http://www.w3.org/2000/svg" xmlns:xlink="http://www.w3.org/1999/xlink">
    <title>deepin-home</title>
    <defs>
        <filter x="-9.3%" y="-7.4%" width="118.5%" height="118.5%" filterUnits="objectBoundingBox" id="filter-1">
            <feOffset dx="0" dy="2" in="SourceAlpha" result="shadowOffsetOuter1"></feOffset>
            <feGaussianBlur stdDeviation="3" in="shadowOffsetOuter1" result="shadowBlurOuter1"></feGaussianBlur>
            <feColorMatrix values="0 0 0 0 0   0 0 0 0 0   0 0 0 0 0  0 0 0 0.2 0" type="matrix" in="shadowBlurOuter1" result="shadowMatrixOuter1"></feColorMatrix>
            <feMerge>
                <feMergeNode in="shadowMatrixOuter1"></feMergeNode>
                <feMergeNode in="SourceGraphic"></feMergeNode>
            </feMerge>
        </filter>
        <linearGradient x1="50%" y1="0%" x2="50%" y2="98.1385523%" id="linearGradient-2">
            <stop stop-color="#F6F6F6" offset="0%"></stop>
            <stop stop-color="#E8E8E8" offset="100%"></stop>
        </linearGradient>
        <path d="M9,1 L99,1 C103.418278,1 107,4.581722 107,9 L107,99 C107,103.418278 103.418278,107 99,107 L9,107 C4.581722,107 1,103.418278 1,99 L1,9 C1,4.581722 4.581722,1 9,1 Z" id="path-3"></path>
        <filter x="-0.9%" y="-0.9%" width="101.9%" height="101.9%" filterUnits="objectBoundingBox" id="filter-4">
            <feOffset dx="0" dy="-2" in="SourceAlpha" result="shadowOffsetInner1"></feOffset>
            <feComposite in="shadowOffsetInner1" in2="SourceAlpha" operator="arithmetic" k2="-1" k3="1" result="shadowInnerInner1"></feComposite>
            <feColorMatrix values="0 0 0 0 0   0 0 0 0 0   0 0 0 0 0  0 0 0 0.101016171 0" type="matrix" in="shadowInnerInner1" result="shadowMatrixInner1"></feColorMatrix>
            <feOffset dx="0" dy="1" in="SourceAlpha" result="shadowOffsetInner2"></feOffset>
            <feComposite in="shadowOffsetInner2" in2="SourceAlpha" operator="arithmetic" k2="-1" k3="1" result="shadowInnerInner2"></feComposite>
            <feColorMatrix values="0 0 0 0 1   0 0 0 0 1   0 0 0 0 1  0 0 0 1 0" type="matrix" in="shadowInnerInner2" result="shadowMatrixInner2"></feColorMatrix>
            <feMerge>
                <feMergeNode in="shadowMatrixInner1"></feMergeNode>
                <feMergeNode in="shadowMatrixInner2"></feMergeNode>
            </feMerge>
        </filter>
        <linearGradient x1="100%" y1="11.9093141%" x2="13.4852153%" y2="83.226377%" id="linearGradient-5">
            <stop stop-color="#66B0D1" offset="0%"></stop>
            <stop stop-color="#4869A0" offset="100%"></stop>
        </linearGradient>
        <path d="M15,20 L77,20 C79.209139,20 81,21.790861 81,24 L81,65 C81,67.209139 79.209139,69 77,69 L29.4253204,69 C28.4469461,69 27.5024983,69.3585756 26.7706478,70.0078915 L14.3273363,81.047905 C13.5010884,81.7809726 12.2370134,81.705435 11.5039457,80.879187 C11.1792878,80.5132618 11,80.0410379 11,79.5518507 L11,24 C11,21.790861 12.790861,20 15,20 Z" id="path-6"></path>
        <filter x="-1.4%" y="-1.6%" width="102.9%" height="99.3%" filterUnits="objectBoundingBox" id="filter-7">
            <feOffset dx="0" dy="1" in="SourceAlpha" result="shadowOffsetInner1"></feOffset>
            <feComposite in="shadowOffsetInner1" in2="SourceAlpha" operator="arithmetic" k2="-1" k3="1" result="shadowInnerInner1"></feComposite>
            <feColorMatrix values="0 0 0 0 1   0 0 0 0 1   0 0 0 0 1  0 0 0 0.5 0" type="matrix" in="shadowInnerInner1" result="shadowMatrixInner1"></feColorMatrix>
            <feOffset dx="0" dy="-2" in="SourceAlpha" result="shadowOffsetInner2"></feOffset>
            <feComposite in="shadowOffsetInner2" in2="SourceAlpha" operator="arithmetic" k2="-1" k3="1" result="shadowInnerInner2"></feComposite>
            <feColorMatrix values="0 0 0 0 0   0 0 0 0 0   0 0 0 0 0  0 0 0 0.19692417 0" type="matrix" in="shadowInnerInner2" result="shadowMatrixInner2"></feColorMatrix>
            <feMerge>
                <feMergeNode in="shadowMatrixInner1"></feMergeNode>
                <feMergeNode in="shadowMatrixInner2"></feMergeNode>
            </feMerge>
        </filter>
        <linearGradient x1="0%" y1="13.460777%" x2="94.8275503%" y2="76.6538436%" id="linearGradient-8">
            <stop stop-color="#A1E9C5" offset="0%"></stop>
            <stop stop-color="#4FADBD" offset="100%"></stop>
        </linearGradient>
        <path d="M38,41 L93,41 C95.209139,41 97,42.790861 97,45 L97,80 C97,82.209139 95.209139,84 93,84 L52.3077243,84 C51.4006922,84 50.5205905,84.3082714 49.8117998,84.8742423 L37.2479623,94.9064949 C36.3848081,95.5957254 35.1263517,95.4547324 34.4371212,94.5915783 C34.1541357,94.237183 34,93.7971321 34,93.343616 L34,45 C34,42.790861 35.790861,41 38,41 Z" id="path-9"></path>
        <filter x="-1.6%" y="-1.8%" width="103.2%" height="99.7%" filterUnits="objectBoundingBox" id="filter-10">
            <feOffset dx="0" dy="-2" in="SourceAlpha" result="shadowOffsetInner1"></feOffset>
            <feComposite in="shadowOffsetInner1" in2="SourceAlpha" operator="arithmetic" k2="-1" k3="1" result="shadowInnerInner1"></feComposite>
            <feColorMatrix values="0 0 0 0 0   0 0 0 0 0   0 0 0 0 0  0 0 0 0.19692417 0" type="matrix" in="shadowInnerInner1"></feColorMatrix>
        </filter>
        <linearGradient x1="100%" y1="36.4070918%" x2="12.9632361%" y2="64.0461098%" id="linearGradient-11">
            <stop stop-color="#3A6FA7" offset="0%"></stop>
            <stop stop-color="#4494BB" offset="100%"></stop>
        </linearGradient>
        <linearGradient x1="50%" y1="-57.5073038%" x2="50%" y2="147.589253%" id="linearGradient-12">
            <stop stop-color="#FFFFFF" offset="0%"></stop>
            <stop stop-color="#FFFFFF" stop-opacity="0.558416193" offset="100%"></stop>
        </linearGradient>
        <linearGradient x1="50%" y1="0%" x2="50%" y2="100%" id="linearGradient-13">
            <stop stop-color="#000000" stop-opacity="0.202933785" offset="0%"></stop>
            <stop stop-color="#000000" stop-opacity="0.403791521" offset="100%"></stop>
        </linearGradient>
    </defs>
    <g id="deepin-home" stroke="none" stroke-width="1" fill="none" fill-rule="evenodd">
        <g id="编组-2" filter="url(#filter-1)" transform="translate(10, 10)">
            <g id="矩形">
                <use fill="url(#linearGradient-2)" fill-rule="evenodd" xlink:href="#path-3"></use>
                <use fill="black" fill-opacity="1" filter="url(#filter-4)" xlink:href="#path-3"></use>
            </g>
            <g id="矩形" fill-rule="nonzero">
                <use fill="url(#linearGradient-5)" xlink:href="#path-6"></use>
                <use fill="black" fill-opacity="1" filter="url(#filter-7)" xlink:href="#path-6"></use>
            </g>
            <g id="矩形" fill-rule="nonzero" transform="translate(65.5, 69.25) scale(-1, 1) translate(-65.5, -69.25)">
                <use fill="url(#linearGradient-8)" xlink:href="#path-9"></use>
                <use fill="black" fill-opacity="1" filter="url(#filter-10)" xlink:href="#path-9"></use>
            </g>
            <path d="M81,41 L81,65 C81,67.209139 79.209139,69 77,69 L34,69 L34,45 C34,42.8578046 35.6839685,41.1089211 37.8003597,41.0048953 L38,41 L81,41 Z" id="形状结合" fill="url(#linearGradient-11)" fill-rule="nonzero"></path>
            <polygon id="路径-11" fill="url(#linearGradient-12)" fill-rule="nonzero" points="76 47 76 57 70 57 70 53 66 53 66 47"></polygon>
            <path d="M99,0 L9,0 C4.02943725,0 0,4.02943725 0,9 L0,99 C0,103.970563 4.02943725,108 9,108 L99,108 C103.970563,108 108,103.970563 108,99 L108,9 C108,4.02943725 103.970563,0 99,0 Z M99,1 C103.418278,1 107,4.581722 107,9 L107,99 C107,103.418278 103.418278,107 99,107 L9,107 C4.581722,107 1,103.418278 1,99 L1,9 C1,4.581722 4.581722,1 9,1 L99,1 Z" id="矩形备份-3" fill="url(#linearGradient-13)" fill-rule="nonzero"></path>
        </g>
    </g>
</svg>