<svg xmlns="http://www.w3.org/2000/svg" xmlns:xlink="http://www.w3.org/1999/xlink" width="128" height="128" viewBox="0 0 128 128">
  <defs>
    <filter id="deepin-installer-a" width="126.2%" height="127.8%" x="-13.1%" y="-13.9%" filterUnits="objectBoundingBox">
      <feOffset dy="2" in="SourceAlpha" result="shadowOffsetOuter1"/>
      <feGaussianBlur in="shadowOffsetOuter1" result="shadowBlurOuter1" stdDeviation="3"/>
      <feColorMatrix in="shadowBlurOuter1" result="shadowMatrixOuter1" values="0 0 0 0 0   0 0 0 0 0   0 0 0 0 0  0 0 0 0.2 0"/>
      <feMerge>
        <feMergeNode in="shadowMatrixOuter1"/>
        <feMergeNode in="SourceGraphic"/>
      </feMerge>
    </filter>
    <linearGradient id="deepin-installer-b" x1="47.674%" x2="47.674%" y1="-11.89%" y2="100%">
      <stop offset="0%" stop-color="#735D3A"/>
      <stop offset="100%" stop-color="#A79069"/>
    </linearGradient>
    <polygon id="deepin-installer-c" points="18 31 104 31 113 39 105.287 39 9 39"/>
    <linearGradient id="deepin-installer-d" x1="52.326%" x2="52.326%" y1="-.266%" y2="108.319%">
      <stop offset="0%" stop-color="#88703C"/>
      <stop offset="100%" stop-color="#BBA585"/>
    </linearGradient>
    <linearGradient id="deepin-installer-e" x1="50%" x2="50%" y1="0%" y2="50%">
      <stop offset="0%" stop-opacity="0"/>
      <stop offset="100%" stop-opacity=".301"/>
    </linearGradient>
    <filter id="deepin-installer-f" width="100%" height="100%" x="0%" y="0%" filterUnits="objectBoundingBox">
      <feGaussianBlur in="SourceGraphic"/>
    </filter>
    <linearGradient id="deepin-installer-g" x1="50%" x2="50%" y1="0%" y2="100%">
      <stop offset="0%" stop-opacity=".187"/>
      <stop offset="100%" stop-opacity=".532"/>
    </linearGradient>
    <linearGradient id="deepin-installer-h" x1="50%" x2="50%" y1="2.933%" y2="46.554%">
      <stop offset="0%" stop-color="#4ABED4"/>
      <stop offset="100%" stop-color="#0173A3"/>
    </linearGradient>
    <linearGradient id="deepin-installer-i" x1="47.674%" x2="47.674%" y1="8.742%" y2="109.399%">
      <stop offset="0%" stop-color="#F6E4BF"/>
      <stop offset="9.441%" stop-color="#F0DCB7"/>
      <stop offset="100%" stop-color="#B59463"/>
    </linearGradient>
    <linearGradient id="deepin-installer-j" x1="52.326%" x2="52.326%" y1="-1.31%" y2="109.399%">
      <stop offset="0%" stop-color="#B6A07F"/>
      <stop offset="100%" stop-color="#8D744F"/>
    </linearGradient>
    <linearGradient id="deepin-installer-k" x1="50%" x2="50%" y1="0%" y2="50%">
      <stop offset=".079%" stop-color="#563500" stop-opacity=".369"/>
      <stop offset="100%" stop-color="#693900" stop-opacity="0"/>
    </linearGradient>
    <filter id="deepin-installer-l" width="100%" height="100%" x="0%" y="0%" filterUnits="objectBoundingBox">
      <feGaussianBlur in="SourceGraphic"/>
    </filter>
    <linearGradient id="deepin-installer-m" x1="47.674%" x2="47.674%" y1="-1.31%" y2="109.399%">
      <stop offset="0%" stop-color="#E6D2AA"/>
      <stop offset="100%" stop-color="#B59463"/>
    </linearGradient>
    <linearGradient id="deepin-installer-n" x1="52.326%" x2="52.326%" y1="-1.31%" y2="109.399%">
      <stop offset="0%" stop-color="#B6A07F"/>
      <stop offset="100%" stop-color="#8D744F"/>
    </linearGradient>
    <radialGradient id="deepin-installer-o" cx="50%" cy="100%" r="5100.001%" fx="50%" fy="100%" gradientTransform="matrix(.0098 0 0 1 .495 0)">
      <stop offset="0%" stop-color="#FFF"/>
      <stop offset="100%" stop-color="#FFF" stop-opacity="0"/>
    </radialGradient>
  </defs>
  <g fill="none" fill-rule="evenodd" filter="url(#deepin-installer-a)" transform="translate(3 5)">
    <use fill="url(#deepin-installer-b)" fill-rule="nonzero" xlink:href="#deepin-installer-c"/>
    <path fill="url(#deepin-installer-d)" fill-rule="nonzero" d="M104,30 L18,30 C17.7550858,30 17.5186873,30.0898786 17.3356362,30.2525907 L8.33563616,38.2525907 C7.64838051,38.8634846 8.0804829,40 9,40 L113,40 C113.919517,40 114.351619,38.8634846 113.664364,38.2525907 L104.664364,30.2525907 C104.481313,30.0898786 104.244914,30 104,30 Z M104,31 L113,39 L9,39 L18,31 L104,31 Z"/>
    <polygon fill="url(#deepin-installer-e)" points="12.059 36.252 109.955 36.252 113.21 39.059 113.21 42 9 42 9.054 39.007" filter="url(#deepin-installer-f)"/>
    <g fill-rule="nonzero" transform="translate(17)">
      <path fill="#FFF" d="M56.0709658,2.7401006 C33.2808253,-3.92490718 9.40761557,9.1417331 2.73988697,31.9317597 C-3.92515413,54.7190988 9.14423897,78.5948767 31.9343795,85.2598845 C54.719145,91.9248923 78.5977297,78.8582521 85.260083,56.0709129 C91.925124,33.2781988 78.8557313,9.4051084 56.0709658,2.7401006 L56.0709658,2.7401006 Z"/>
      <path fill="url(#deepin-installer-g)" d="M1.78012092,31.6509588 C-5.04015669,54.9690414 8.33403129,79.399817 31.6536854,86.2196818 C54.9700392,93.04019 79.4029951,79.6674937 86.2199011,56.3515357 C93.0395445,33.0301214 79.6678306,8.60075798 56.3517208,1.78032114 C33.0311726,-5.0398051 8.60282953,8.33121682 1.78012092,31.6509588 Z M2.73988697,31.9317597 C9.40761557,9.1417331 33.2808253,-3.92490718 56.0709658,2.7401006 C78.8557313,9.4051084 91.925124,33.2781988 85.260083,56.0709129 C78.5977297,78.8582521 54.719145,91.9248923 31.9343795,85.2598845 C9.14423897,78.5948767 -3.92515413,54.7190988 2.73988697,31.9317597 Z"/>
      <path fill="url(#deepin-installer-h)" d="M56.9968526,8.2027898 C51.5356305,6.2105011 45.9414065,5.6730718 40.5127563,6.1779297 C34.2182364,6.6746447 31.1456203,8.6235047 31.3274801,8.2706471 C21.0347593,11.9457954 12.3326331,19.8498073 8.30186027,30.9349667 C1.12518467,50.6759963 11.2903322,72.507029 31.0017611,79.6944683 C50.721333,86.8819077 72.5200779,76.703321 79.6967535,56.9622914 C86.876143,37.2212619 76.7109958,15.3929435 56.9968526,8.2027898 L56.9968526,8.2027898 L56.9968526,8.2027898 Z M32.2992085,76.1251773 C30.1983209,75.3570333 28.2358638,74.379889 26.3874084,73.2643159 C35.5726846,73.9700312 47.5591442,71.8528852 55.6424044,64.2881596 C55.6424044,64.2881596 71.051628,51.9761411 59.9038948,31.770968 C59.9038948,31.770968 61.700778,39.9138373 59.4098876,46.6127045 C59.4098876,46.6127045 57.2248559,55.721861 47.5130007,58.3682935 C33.2085074,62.2660137 16.9089852,52.2529987 10.0960292,47.4025628 C9.58302167,42.4164125 10.0390284,37.2646905 11.8657691,32.2378258 C14.5746656,24.7898147 19.6667395,18.9785203 25.8879726,15.0753715 C24.3326643,25.9569593 25.5622536,35.9754029 27.3292793,40.1716949 C29.7015994,45.7984176 33.8246592,52.3615703 41.8672045,53.2030001 C49.9097498,54.0471442 54.344957,46.5204187 54.344957,46.5204187 C58.4707312,40.2504093 59.1167405,31.2471101 59.0543111,31.0299669 C58.9918816,30.8101094 57.9550094,30.2156799 57.9550094,30.2156799 C55.1782548,41.4528396 50.5991884,45.2067024 50.5991884,45.2067024 C43.3790836,52.1769986 38.2652951,47.3428485 38.2652951,47.3428485 C32.7687868,41.4392682 36.6176998,31.8442538 36.6176998,31.8442538 C38.7701596,25.308244 45.0429649,15.7430868 52.1517823,10.8790795 C53.3352281,11.1722228 54.5268168,11.3540803 55.6966909,11.7802238 C59.9988962,13.3490832 63.7663794,15.7132296 66.9529971,18.6175197 C61.7550645,20.5148083 53.3623713,24.5265286 53.3623713,24.5265286 C40.059464,30.1288227 39.1610224,38.6028354 39.1610224,38.6028354 C37.7848596,47.3374199 44.7145315,43.6405572 44.7145315,43.6405572 C51.8477779,40.1662663 55.3519716,29.3389643 55.3519716,29.3389643 C53.126225,28.9155351 51.372771,29.5913933 51.372771,29.5913933 C48.525444,36.6186895 42.7167883,39.5094082 42.7167883,39.5094082 C40.4313265,40.7199814 39.8993188,38.581121 39.8993188,38.581121 C39.5138846,36.9796901 41.5523428,36.7055468 41.5523428,36.7055468 C44.7172459,35.4759735 46.7421324,32.1509686 47.2008533,30.7911094 C47.6568599,29.4285359 48.5064437,29.3226786 48.5064437,29.3226786 C52.8439352,27.9383908 56.7987069,27.6289618 56.7987069,27.6289618 C62.1839279,26.9666751 70.4273332,29.5343932 70.4273332,29.5343932 C72.2757886,30.2781086 74.0482429,30.834538 75.6225515,31.2796815 C78.6435953,38.8281214 79.1213165,47.4242771 76.1274159,55.6648609 C69.6727509,73.4298875 50.0481804,82.5933298 32.2992085,76.1251773 L32.2992085,76.1251773 L32.2992085,76.1251773 Z" opacity=".8"/>
    </g>
    <path fill="url(#deepin-installer-i)" fill-rule="nonzero" d="M9,39 L113,39 L113,110 C113,112.209139 111.209139,114 109,114 L13,114 C10.790861,114 9,112.209139 9,110 L9,39 L9,39 Z"/>
    <path fill="url(#deepin-installer-j)" fill-rule="nonzero" d="M113,38 L9,38 C8.44771525,38 8,38.4477153 8,39 L8,110 C8,112.761424 10.2385763,115 13,115 L109,115 C111.761424,115 114,112.761424 114,110 L114,39 C114,38.4477153 113.552285,38 113,38 Z M113,39 L113,110 C113,112.209139 111.209139,114 109,114 L13,114 C10.790861,114 9,112.209139 9,110 L9,39 L113,39 Z"/>
    <path fill="#000" fill-opacity=".252" fill-rule="nonzero" d="M69.4502481,82.4900803 C69.4891134,82.4901326 69.5271883,82.4901903 69.5646229,82.4902528 L69.8883052,82.4909287 C69.9232508,82.4910146 69.9580072,82.4911036 69.9927244,82.491195 L70.3081821,82.4920679 C70.3440174,82.4921687 70.3802646,82.4922702 70.4170738,82.4923718 L70.6458766,82.4929779 C70.6855353,82.4930776 70.7260567,82.4931762 70.7675911,82.4932732 L71.1728083,82.4940853 C71.2217731,82.4941671 71.2722017,82.4942454 71.3242444,82.4943198 L74.1547924,82.4942603 C77.7519809,82.4908758 78.3878017,85.5380997 78.3915927,86.9919523 C78.394606,88.446557 77.7682356,91.5114558 74.2111166,91.5103276 C73.3828862,91.5099516 72.5567349,91.5100456 71.738711,91.5101866 L69.3150693,91.5103276 L69.3150693,91.5103276 L69.3150165,91.6485982 C69.3150053,91.6778702 69.3149925,91.7112933 69.3149783,91.7483828 L69.3140262,94.2554373 C69.3140121,94.2934011 69.3139993,94.327757 69.3139881,94.3580199 L69.3139353,94.5067833 C69.3139353,94.8948784 68.9359205,94.8948784 68.9359205,94.8948784 L67.4196715,94.8945024 C67.3582494,94.8911178 67.0511389,94.8572723 67.0511389,94.5188172 L67.0511389,94.5188172 L67.0518151,84.3318971 C67.0606567,84.1016284 67.1850912,82.4897476 68.9362986,82.4897476 L68.9362986,82.4897476 Z M86.9746485,82.4910914 C87.0582039,82.4911497 87.1418105,82.4912125 87.2253727,82.4912803 L87.9736448,82.4920279 L87.9736448,82.4920279 L88.2198524,82.4923424 C90.9967488,82.496103 92,83.995083 92,86.0795902 L92,86.0795902 L92,91.1394937 C92,91.3470795 91.8310275,91.5155548 91.6223633,91.5155548 L91.6223633,91.5155548 L90.1110602,91.516683 C89.9016401,91.516683 89.7322894,91.3478316 89.7326675,91.1398697 L89.7326675,91.1398697 L89.74363,86.250322 C89.74363,84.4016051 88.2799567,84.3734005 88.2168283,84.3734005 L86.9162186,84.3739948 C86.8522417,84.374038 86.7877273,84.3740826 86.7229328,84.3741284 L85.5819203,84.3750181 C85.5230216,84.3750675 85.4653857,84.3751163 85.4092697,84.3751643 L84.4389487,84.376033 L84.4502891,91.1274597 C84.4502891,91.1274597 84.4654097,91.5813656 83.9445054,91.5072815 C83.5748069,91.5084097 82.9937983,91.5106661 82.6240998,91.5117942 C82.2812404,91.5554174 82.1716162,91.3038324 82.1716162,91.1334767 L82.1716162,91.1334767 L82.1716162,82.4915903 L82.1716162,82.4915903 L82.78943,82.4911392 C82.832607,82.4911125 82.8777517,82.4910855 82.9247681,82.4910583 Z M51.180378,82.4900108 C54.0253171,82.4900108 53.8204331,85.1359774 53.8204331,85.1359774 L53.8204331,86.626684 C53.8204331,86.626684 54.0332554,88.1309288 51.9333833,88.1309288 L51.9333833,88.1309288 L44.3700639,88.1309288 C44.370442,88.1309288 44.3602356,88.8480775 44.3700639,88.8958373 C44.3700639,88.8958373 44.3583455,89.6291567 45.1200453,89.6291567 L45.1200453,89.6291567 L46.4558869,89.6300175 C46.5270034,89.6300695 46.6001288,89.6301233 46.6750681,89.6301787 L47.9108198,89.631111 C47.9990224,89.6311786 48.0880638,89.631247 48.1777491,89.631316 L48.9970347,89.6319504 C49.0888279,89.6320219 49.1806799,89.6320935 49.2723957,89.6321652 L50.3539687,89.6330143 C50.441475,89.6330834 50.5280652,89.6331517 50.6135441,89.6332193 L51.5734737,89.6339808 C51.646943,89.6340393 51.7185211,89.6340963 51.788013,89.6341517 L52.9554252,89.6350859 C52.9790576,89.6351049 52.9990438,89.635121 53.0151887,89.635134 L53.0751467,89.6357077 C53.1373037,89.640006 53.4480886,89.6784207 53.4480886,90.0168758 L53.4480886,90.0168758 L53.4489431,90.4936822 C53.449304,90.6564594 53.4497256,90.8281043 53.4500958,90.955035 L53.4502811,91.1525983 C53.4464026,91.234325 53.4094554,91.5154797 53.0583553,91.5154797 L53.0583553,91.5154797 L44.7597972,91.5034457 C44.7597972,91.5034457 42.1099137,91.5154797 42.1099137,88.8800428 L42.1099137,88.8800428 L42.1091576,85.1006277 C42.1091576,85.1006277 42.1077952,85.0824984 42.1069731,85.0492614 L42.1066132,84.963539 C42.1143014,84.4258155 42.3151337,82.4900108 44.8085611,82.4900108 L44.8085611,82.4900108 Z M81.037534,82.4898604 C81.2461982,82.4898604 81.4155487,82.6583358 81.4155487,82.8659216 L81.4155487,91.139268 C81.4155487,91.3468538 81.2461982,91.5153293 81.037534,91.5153293 L79.5254749,91.5153293 C79.3168108,91.5153293 79.1474602,91.3468538 79.1474602,91.139268 L79.1474602,82.8659216 C79.1474602,82.6583358 79.3168108,82.4898604 79.5254749,82.4898604 L81.037534,82.4898604 Z M63.6548653,82.4900108 C66.4998043,82.4900108 66.2949203,85.1359774 66.2949203,85.1359774 L66.2949203,85.1359774 L66.2949203,86.626684 C66.2949203,86.626684 66.5077427,88.1309288 64.4078706,88.1309288 L64.4078706,88.1309288 L56.8445512,88.1309288 C56.844778,88.1309288 56.8411945,88.3891024 56.8404143,88.6059573 L56.8408134,88.7979471 C56.8414213,88.8499579 56.8425855,88.8862854 56.8445512,88.8958373 C56.8445512,88.8958373 56.8328328,89.6291567 57.5945326,89.6291567 L57.5945326,89.6291567 L58.9303741,89.6300175 C59.0014907,89.6300695 59.0746161,89.6301233 59.1495554,89.6301787 L60.385307,89.631111 C60.4735096,89.6311786 60.5625511,89.631247 60.6522363,89.631316 L61.4715219,89.6319504 C61.5633151,89.6320219 61.6551671,89.6320935 61.746883,89.6321652 L62.828456,89.6330143 C62.9159623,89.6330834 63.0025524,89.6331517 63.0880314,89.6332193 L64.0479609,89.6339808 C64.1214302,89.6340393 64.1930084,89.6340963 64.2625003,89.6341517 L65.4299125,89.6350859 C65.4535449,89.6351049 65.4735311,89.635121 65.489676,89.635134 L65.549634,89.6357077 C65.611791,89.640006 65.9225759,89.6784207 65.9225759,90.0168758 L65.9225759,90.0168758 L65.9228227,90.1958272 C65.9228994,90.2382071 65.9229912,90.2855413 65.9230939,90.3358453 L65.9238074,90.6574308 C65.923937,90.7116759 65.9240692,90.7649218 65.9241999,90.8151841 L65.9249321,91.0650765 L65.9249321,91.0650765 L65.925222,91.1334015 C65.925222,91.1683752 65.9229538,91.5154797 65.5328426,91.5154797 L65.5328426,91.5154797 L57.2342845,91.5034457 C57.2342845,91.5034457 54.584401,91.5154797 54.584401,88.8800428 L54.584401,88.8800428 L54.584023,86.823082 C54.5839993,86.7561314 54.5839757,86.6900518 54.5839524,86.6242909 L54.5832612,85.0946965 C54.5751311,84.9576078 54.4678884,82.4900108 57.2830484,82.4900108 L57.2830484,82.4900108 Z M40.9746628,79.1054976 C41.0365748,79.1088822 41.3461348,79.1427277 41.3461348,79.4811828 L41.3461348,79.4811828 L41.3460405,89.6478352 C41.3435702,89.7719963 41.2765126,91.5102524 39.4579511,91.5102524 L39.4579511,91.5102524 L39.1879154,91.5101645 C39.145286,91.510136 39.1037447,91.510101 39.0631416,91.51006 L38.611327,91.5093195 C38.5758271,91.5092402 38.540665,91.5091573 38.5056906,91.5090713 L38.1919334,91.5082319 C38.1567338,91.5081331 38.1212715,91.508033 38.0853965,91.5079321 L37.8639923,91.5073237 C37.8258658,91.5072225 37.7870264,91.5071217 37.7473239,91.5070221 L37.3626467,91.5061696 C37.3164151,91.5060816 37.2688701,91.5059965 37.2198617,91.5059147 L36.5519097,91.5051345 C36.4887923,91.5050894 36.4236111,91.50505 36.3562159,91.5050169 L35.1604829,91.5050694 C35.0671961,91.5051143 34.970945,91.5051685 34.8715794,91.5052326 L34.2368111,91.5057396 C30.6396226,91.5091242 30.0038018,88.4619003 30.0000108,87.0080477 C29.9969975,85.553443 30.623368,82.4885442 34.180865,82.4896724 L34.180865,82.4896724 L39.0765342,82.4896724 L39.0765342,82.4896724 L39.0769528,81.8319162 C39.0769876,81.7771936 39.0770238,81.7202596 39.0770611,81.6615991 L39.0778973,80.3422754 C39.0779346,80.2832069 39.0779708,80.2258066 39.0780056,80.1705594 L39.0784243,79.4932167 C39.0784243,79.1051216 39.456817,79.1051216 39.456817,79.1051216 Z M35.911479,84.3791162 L35.0155216,84.3786278 C33.9638845,84.3786278 32.2786947,84.7016644 32.2794504,87.0317396 C32.2802067,89.3621908 33.796802,89.6322028 35.0332883,89.6359634 C35.2285229,89.6365572 35.4430961,89.6369353 35.6676553,89.6371511 L36.8303723,89.637124 C36.9076617,89.6370649 36.9843287,89.6369976 37.060027,89.6369241 L37.7058043,89.6361489 C37.7725729,89.636056 37.8373337,89.6359629 37.8997402,89.6358714 L38.3884827,89.6351475 C38.4336465,89.6350841 38.4754169,89.6350282 38.5134475,89.6349819 L38.6939833,89.6348352 C39.0780463,89.6348352 39.0720037,89.2681755 39.0720037,89.2681755 C39.0720037,89.2570441 39.0720015,89.2412266 39.0719975,89.2210476 L39.0710558,86.7002416 C39.0710242,86.6216009 39.0709926,86.5431458 39.0709612,86.465201 L39.0701079,84.3827645 L39.0701079,84.3827645 L38.7051436,84.382276 C38.6673009,84.3822263 38.6269818,84.3821735 38.5844121,84.3821181 L37.8052882,84.3811363 C37.7458558,84.381064 37.6853015,84.3809908 37.6238511,84.3809174 L37.0526949,84.3802559 C36.987899,84.3801836 36.9228841,84.380112 36.857876,84.3800415 L36.0925506,84.3792741 C36.0312084,84.3792187 35.970776,84.379166 35.911479,84.3791162 Z M72.9448323,84.3631208 L71.3315765,84.3630759 C71.2558782,84.3631493 71.1811487,84.363229 71.1077342,84.3633129 L70.6857992,84.3638511 C70.6190306,84.363944 70.5542698,84.3640371 70.4918633,84.3641286 L69.878156,84.3650181 C69.8020948,84.3651106 69.7409925,84.3651648 69.6976203,84.3651648 C69.3135573,84.3651648 69.3195999,84.7318245 69.3195999,84.7318245 L69.3199324,85.7324312 C69.3199571,85.7977551 69.3199828,85.8651669 69.3200094,85.9343418 L69.3209179,88.2137555 C69.3209472,88.2857155 69.320976,88.3561909 69.3210041,88.4248569 L69.3214955,89.6172355 L69.3214955,89.6172355 L69.9413604,89.6180556 C69.9882012,89.6181159 70.0370668,89.6181785 70.0877315,89.6182429 L70.7676215,89.6190826 C70.8290681,89.6191561 70.8914112,89.61923 70.9544249,89.6193039 L71.5335633,89.6199585 C71.59857,89.620029 71.6635703,89.6200983 71.7283385,89.6201662 L72.6542469,89.6210236 C72.7110524,89.6210669 72.7664974,89.6211069 72.8203562,89.6211431 L73.376082,89.6213722 C74.4277191,89.6213722 76.1129089,89.2983356 76.1121531,86.9682604 C76.1113968,84.6378092 74.5948016,84.3677972 73.3583152,84.3640366 C73.2281588,84.3636408 73.0894075,84.3633407 72.9448323,84.3631208 Z M50.8140817,84.3759577 L45.1321417,84.3759577 C44.7363603,84.377462 44.3715761,84.752019 44.3715761,85.1340971 L44.3715761,85.1340971 L44.3710771,85.5693148 C44.371022,85.6090948 44.3709649,85.6496633 44.3709071,85.6902018 L44.3700639,86.2562638 L44.3700639,86.2562638 L46.7497418,86.2561284 C46.8364095,86.2561235 46.9240567,86.2561186 47.0124285,86.2561136 L51.180756,86.2558877 C51.5462963,86.2558877 51.5462963,85.8802025 51.5462963,85.8802025 C51.5462963,85.6007891 51.5508325,85.4214079 51.5523512,85.1280801 C51.5542346,84.7580359 51.1565631,84.3759577 50.8140817,84.3759577 L50.8140817,84.3759577 Z M63.2885689,84.3759577 L57.606629,84.3759577 C57.2108475,84.377462 56.8460633,84.752019 56.8460633,85.1340971 C56.8460633,85.1569501 56.8460275,85.1993315 56.845967,85.2546918 L56.8450502,85.9265212 C56.8449951,85.9636643 56.8449421,85.9991399 56.8448926,86.0321292 L56.8445512,86.2562638 L56.8445512,86.2562638 L59.2242291,86.2561284 C59.3108968,86.2561235 59.3985439,86.2561186 59.4869158,86.2561136 L63.6552432,86.2558877 C64.0211615,86.2558877 64.0211615,85.8802025 64.0211615,85.8802025 C64.0211615,85.6007891 64.0253197,85.4214079 64.0268385,85.1280801 C64.0287219,84.7580359 63.6310504,84.3759577 63.2885689,84.3759577 L63.2885689,84.3759577 Z M81.037534,79.1053096 C81.2461982,79.1053096 81.4155487,79.273785 81.4155487,79.4813708 L81.4155487,80.9856156 C81.4155487,81.1932014 81.2461982,81.3616768 81.037534,81.3616768 L79.5254749,81.3616768 C79.3168108,81.3616768 79.1474602,81.1932014 79.1474602,80.9856156 L79.1474602,79.4813708 C79.1474602,79.273785 79.3168108,79.1053096 79.5254749,79.1053096 L81.037534,79.1053096 Z"/>
    <polygon fill="url(#deepin-installer-k)" points="9 60 114 60 114 68 9 68" filter="url(#deepin-installer-l)"/>
    <path fill="url(#deepin-installer-m)" fill-rule="nonzero" d="M9.76454468,39 L112.235455,39 C113.073323,39 113.822378,39.522266 114.112091,40.3084523 L120.504077,57.6542262 C120.695043,58.1724448 120.429752,58.7473523 119.911533,58.9383179 C119.800817,58.9791173 119.683754,59 119.565759,59 L2.43424084,59 C1.88195609,59 1.43424084,58.5522847 1.43424084,58 C1.43424084,57.8820056 1.45512359,57.7649424 1.49592296,57.6542262 L7.88790891,40.3084523 C8.17762165,39.522266 8.92667693,39 9.76454468,39 Z"/>
    <path fill="url(#deepin-installer-n)" fill-rule="nonzero" d="M112.235455,38 L9.76454468,38 C8.50774306,38 7.38416013,38.7833991 6.94959102,39.9626785 L0.557605071,57.3084523 C0.476006337,57.5298848 0.434240842,57.7640113 0.434240842,58 C0.434240842,59.1045695 1.32967134,60 2.43424084,60 L119.565759,60 C119.801748,60 120.035874,59.9582345 120.257307,59.8766358 C121.293744,59.4947045 121.824326,58.3448896 121.442395,57.3084523 L115.050409,39.9626785 C114.61584,38.7833991 113.492257,38 112.235455,38 Z M112.235455,39 C113.073323,39 113.822378,39.522266 114.112091,40.3084523 L120.504077,57.6542262 C120.695043,58.1724448 120.429752,58.7473523 119.911533,58.9383179 C119.800817,58.9791173 119.683754,59 119.565759,59 L2.43424084,59 C1.88195609,59 1.43424084,58.5522847 1.43424084,58 C1.43424084,57.8820056 1.45512359,57.7649424 1.49592296,57.6542262 L7.88790891,40.3084523 C8.17762165,39.522266 8.92667693,39 9.76454468,39 L112.235455,39 Z"/>
    <polygon fill="url(#deepin-installer-o)" fill-rule="nonzero" points="10 39 112 39 112 40 10 40" opacity=".675"/>
  </g>
</svg>
