<svg xmlns="http://www.w3.org/2000/svg" xmlns:xlink="http://www.w3.org/1999/xlink" width="128" height="128" viewBox="0 0 128 128">
  <defs>
    <filter id="deepin-terminal-a" width="129.8%" height="134%" x="-14.9%" y="-17%" filterUnits="objectBoundingBox">
      <feOffset dy="2" in="SourceAlpha" result="shadowOffsetOuter1"/>
      <feGaussianBlur in="shadowOffsetOuter1" result="shadowBlurOuter1" stdDeviation="3"/>
      <feColorMatrix in="shadowBlurOuter1" result="shadowMatrixOuter1" values="0 0 0 0 0   0 0 0 0 0   0 0 0 0 0  0 0 0 0.2 0"/>
      <feMerge>
        <feMergeNode in="shadowMatrixOuter1"/>
        <feMergeNode in="SourceGraphic"/>
      </feMerge>
    </filter>
    <linearGradient id="deepin-terminal-b" x1="50%" x2="50%" y1="5.541%" y2="100%">
      <stop offset="0%" stop-color="#E6E6E6"/>
      <stop offset="100%" stop-color="#C6C6C6"/>
    </linearGradient>
    <linearGradient id="deepin-terminal-e" x1="50%" x2="50%" y1="0%" y2="100%">
      <stop offset="0%" stop-opacity=".299"/>
      <stop offset="100%" stop-opacity=".514"/>
    </linearGradient>
    <path id="deepin-terminal-c" d="M0,5.99306484 C0,2.68318653 2.67777462,0 6.00857766,0 L107.991422,0 C111.309868,0 114,2.68768095 114,5.99306484 L114,94.0069352 C114,97.3168135 111.322225,100 107.991422,100 L6.00857766,100 C2.69013185,100 0,97.312319 0,94.0069352 L0,5.99306484 Z"/>
    <filter id="deepin-terminal-d" width="102.6%" height="103%" x="-1.3%" y="-1.5%" filterUnits="objectBoundingBox">
      <feOffset dy="1" in="SourceAlpha" result="shadowOffsetInner1"/>
      <feComposite in="shadowOffsetInner1" in2="SourceAlpha" k2="-1" k3="1" operator="arithmetic" result="shadowInnerInner1"/>
      <feColorMatrix in="shadowInnerInner1" values="0 0 0 0 1   0 0 0 0 1   0 0 0 0 1  0 0 0 0.894394668 0"/>
    </filter>
    <linearGradient id="deepin-terminal-f" x1="59.789%" x2="59.789%" y1="100%" y2="17.14%">
      <stop offset="0%" stop-color="#273B51"/>
      <stop offset="100%" stop-color="#233240"/>
    </linearGradient>
    <radialGradient id="deepin-terminal-g" cx="48.839%" cy="8.587%" r="91.413%" fx="48.839%" fy="8.587%" gradientTransform="matrix(0 1 -.74545 0 .552 -.403)">
      <stop offset="0%" stop-color="#6481A2"/>
      <stop offset="100%" stop-color="#1B324A"/>
    </radialGradient>
    <path id="deepin-terminal-h" d="M2,16 L112,16 L112,92.9939698 C112,95.7587239 109.752862,98 107.005771,98 L6.99422945,98 C4.23599269,98 2,95.7641708 2,92.9939698 L2,16 Z"/>
    <filter id="deepin-terminal-i" width="100.9%" height="101.2%" x="-.5%" y="-.6%" filterUnits="objectBoundingBox">
      <feOffset dy="1" in="SourceAlpha" result="shadowOffsetInner1"/>
      <feComposite in="shadowOffsetInner1" in2="SourceAlpha" k2="-1" k3="1" operator="arithmetic" result="shadowInnerInner1"/>
      <feColorMatrix in="shadowInnerInner1" values="0 0 0 0 1   0 0 0 0 1   0 0 0 0 1  0 0 0 0.187745848 0"/>
    </filter>
    <linearGradient id="deepin-terminal-j" x1="50%" x2="50%" y1="0%" y2="100%">
      <stop offset="0%" stop-opacity=".204"/>
      <stop offset="100%" stop-opacity=".396"/>
    </linearGradient>
    <linearGradient id="deepin-terminal-k" x1="50%" x2="50%" y1="5.541%" y2="100%">
      <stop offset="0%" stop-color="#E9E9E9"/>
      <stop offset="100%" stop-color="#D0D0D0"/>
    </linearGradient>
    <linearGradient id="deepin-terminal-l" x1="42.621%" x2="42.771%" y1="104.678%" y2="17.14%">
      <stop offset="0%" stop-color="#1B3149"/>
      <stop offset="100%" stop-color="#305884"/>
    </linearGradient>
    <path id="deepin-terminal-m" d="M1,0 L8,0 C8.55228475,0 9,0.44771525 9,1 L9,8 C9,8.55228475 8.55228475,9 8,9 L1,9 C0.44771525,9 0,8.55228475 0,8 L0,1 C0,0.44771525 0.44771525,0 1,0 Z"/>
  </defs>
  <g fill="none" fill-rule="evenodd" filter="url(#deepin-terminal-a)" transform="translate(7 14)">
    <g fill-rule="nonzero">
      <use fill="url(#deepin-terminal-b)" xlink:href="#deepin-terminal-c"/>
      <use fill="#000" filter="url(#deepin-terminal-d)" xlink:href="#deepin-terminal-c"/>
      <path stroke="url(#deepin-terminal-e)" d="M107.991422,-0.5 C109.78797,-0.5 111.414484,0.22730561 112.592116,1.4018977 C113.771007,2.57774444 114.5,4.20174577 114.5,5.99306484 L114.5,5.99306484 L114.5,94.0069352 C114.5,95.8017267 113.773197,97.4263805 112.594831,98.6017043 C111.41909,99.7744098 109.793617,100.5 107.991422,100.5 L107.991422,100.5 L6.00857766,100.5 C4.21203003,100.5 2.58551628,99.7726944 1.4078838,98.5981023 C0.228993421,97.4222556 -0.5,95.7982542 -0.5,94.0069352 L-0.5,94.0069352 L-0.5,5.99306484 C-0.5,4.19827326 0.22680347,2.57361947 1.40516948,1.39829574 C2.58091049,0.225590238 4.20638319,-0.5 6.00857766,-0.5 L6.00857766,-0.5 Z"/>
    </g>
    <path fill="url(#deepin-terminal-f)" fill-rule="nonzero" d="M112.999957,15.0000429 L1.00004292,15.0000429 L1.00004292,92.9939698 C1.00004292,96.314191 3.68149316,98.9999571 6.99422945,98.9999571 L107.005771,98.9999571 C110.309156,98.9999571 112.999957,96.3069492 112.999957,92.9939698 L112.999957,15.0000429 Z"/>
    <use fill="url(#deepin-terminal-g)" xlink:href="#deepin-terminal-h"/>
    <use fill="#000" filter="url(#deepin-terminal-i)" xlink:href="#deepin-terminal-h"/>
    <path fill="#F0F9FF" fill-rule="nonzero" d="M69,67 C69.5522847,67 70,67.4477153 70,68 L70,72 C70,72.5522847 69.5522847,73 69,73 L36,73 C35.4477153,73 35,72.5522847 35,72 L35,68 C35,67.4477153 35.4477153,67 36,67 L69,67 Z M9.40915165,30.4888753 C10.2130725,29.1107253 11.9462497,28.6114189 13.3514857,29.3217976 L13.5121014,29.4091516 L37.5121014,43.4091516 C39.4382492,44.5327379 39.4949006,47.2669989 37.6820556,48.4853307 L37.5121014,48.5918251 L13.5121014,62.5918251 C12.0809457,63.4266659 10.2439925,62.9432572 9.40915165,61.5121014 C8.60523083,60.1339515 9.02371978,58.3795065 10.333777,57.5059641 L10.4888753,57.4091516 L30.1785915,45.9234838 L10.4888753,34.5918251 C9.05771953,33.7569842 8.5743108,31.920031 9.40915165,30.4888753 Z"/>
    <path fill="#2B4E6E" fill-opacity=".687" fill-rule="nonzero" d="M69,67 C69.5522847,67 70,67.4477153 70,68 L70,72 C70,72.5522847 69.5522847,73 69,73 L36,73 C35.4477153,73 35,72.5522847 35,72 L35,68 C35,67.4477153 35.4477153,67 36,67 L69,67 Z M69,68 L36,68 L36,72 L69,72 L69,68 Z M13.3514857,29.3217976 L13.5121014,29.4091516 L37.5121014,43.4091516 C39.4382492,44.5327379 39.4949006,47.2669989 37.6820556,48.4853307 L37.5121014,48.5918251 L13.5121014,62.5918251 C13.0880553,62.8391853 12.6283836,62.9708145 12.1697093,62.9963501 L11.9978247,63.0009717 C10.967656,62.9990882 9.96571222,62.4662053 9.40915165,61.5121014 C8.60523083,60.1339515 9.02371978,58.3795065 10.333777,57.5059641 L10.4888753,57.4091516 L30.1785915,45.9234838 L10.4888753,34.5918251 C9.05771953,33.7569842 8.5743108,31.920031 9.40915165,30.4888753 C9.93479218,29.5877772 10.8577036,29.0623978 11.8264628,29.0052168 L11.9978247,29 C12.4556774,28.9991679 12.9191054,29.1032196 13.3514857,29.3217976 Z M10.2729306,30.9927463 C9.74287287,31.9014166 10.0099427,33.0554671 10.8563938,33.6415581 L10.9876796,33.7251104 L32.1732381,45.9176437 L11.0183866,58.2574545 L10.8885523,58.3379643 C10.0123949,58.9221836 9.73930753,60.0934481 10.2729306,61.0082304 C10.8029882,61.9169007 11.9390095,62.2524814 12.8701909,61.801603 L13.0082304,61.7280462 L36.9811243,47.7444389 L37.1242631,47.6553504 C38.2921532,46.8704638 38.2863616,45.1508918 37.1449672,44.3599642 L37.0082304,44.2729306 L13.0343227,30.2876319 L12.893,30.211 L12.750284,30.1459585 C11.8407693,29.7764085 10.7784681,30.1261104 10.2729306,30.9927463 Z"/>
    <path fill="url(#deepin-terminal-j)" fill-rule="nonzero" d="M107,2 L76,2 C74.8954305,2 74,2.89543047 74,4 L74,11 C74,12.1045695 74.8954305,13 76,13 L107,13 C108.10457,13 109,12.1045695 109,11 L109,4 C109,2.89543047 108.10457,2 107,2 Z M107,3 C107.552285,3 108,3.44771522 108,4 L108,11 C108,11.5522848 107.552285,12 107,12 L76,12 C75.4477152,12 75,11.5522848 75,11 L75,4 C75,3.44771522 75.4477152,3 76,3 L107,3 Z"/>
    <rect width="33" height="9" x="75" y="3" fill="url(#deepin-terminal-k)" fill-rule="nonzero" rx="1"/>
    <rect width="4" height="1" x="80" y="7" fill="#979797" fill-rule="nonzero"/>
    <rect width="4" height="4" x="89.5" y="5.5" fill="#D8D8D8" stroke="#979797"/>
    <g stroke="#979797" stroke-linecap="round" transform="translate(99 6)">
      <line x2="3" y1="3"/>
      <line x2="3" y2="3"/>
    </g>
    <g opacity=".776" transform="translate(6 3)">
      <use fill="url(#deepin-terminal-l)" opacity=".752" xlink:href="#deepin-terminal-m"/>
      <path fill="#AFAFAF" fill-rule="nonzero" d="M1,0 L8,0 C8.55228475,0 9,0.44771525 9,1 L9,2 L0,2 L0,1 C0,0.44771525 0.44771525,0 1,0 Z"/>
      <path fill="#E0E0E0" d="M1.5 4L7.5 4C7.77614237 4 8 4.22385763 8 4.5 8 4.77614237 7.77614237 5 7.5 5L1.5 5C1.22385763 5 1 4.77614237 1 4.5 1 4.22385763 1.22385763 4 1.5 4zM1.5 6L7.5 6C7.77614237 6 8 6.22385763 8 6.5 8 6.77614237 7.77614237 7 7.5 7L1.5 7C1.22385763 7 1 6.77614237 1 6.5 1 6.22385763 1.22385763 6 1.5 6z"/>
    </g>
  </g>
</svg>
