<?xml version="1.0" encoding="UTF-8"?>
<svg width="128px" height="128px" viewBox="0 0 128 128" version="1.1" xmlns="http://www.w3.org/2000/svg" xmlns:xlink="http://www.w3.org/1999/xlink">
    <title>deepin-data-transfer</title>
    <defs>
        <filter x="-8.8%" y="-7.4%" width="117.5%" height="118.5%" filterUnits="objectBoundingBox" id="filter-1">
            <feOffset dx="0" dy="2" in="SourceAlpha" result="shadowOffsetOuter1"></feOffset>
            <feGaussianBlur stdDeviation="3" in="shadowOffsetOuter1" result="shadowBlurOuter1"></feGaussianBlur>
            <feColorMatrix values="0 0 0 0 0   0 0 0 0 0   0 0 0 0 0  0 0 0 0.2 0" type="matrix" in="shadowBlurOuter1" result="shadowMatrixOuter1"></feColorMatrix>
            <feMerge>
                <feMergeNode in="shadowMatrixOuter1"></feMergeNode>
                <feMergeNode in="SourceGraphic"></feMergeNode>
            </feMerge>
        </filter>
        <linearGradient x1="20.9329173%" y1="8.8817842e-14%" x2="20.9329173%" y2="100%" id="linearGradient-2">
            <stop stop-color="#6684DF" offset="0%"></stop>
            <stop stop-color="#5E3F8A" offset="100%"></stop>
        </linearGradient>
        <linearGradient x1="50%" y1="0%" x2="50%" y2="100%" id="linearGradient-3">
            <stop stop-color="#050000" stop-opacity="0.19684222" offset="0%"></stop>
            <stop stop-color="#020000" stop-opacity="0.397853611" offset="100%"></stop>
        </linearGradient>
        <linearGradient x1="50%" y1="0%" x2="50%" y2="98.1385523%" id="linearGradient-4">
            <stop stop-color="#FFFFFF" offset="0%"></stop>
            <stop stop-color="#EDEDED" offset="100%"></stop>
        </linearGradient>
        <linearGradient x1="50%" y1="0%" x2="50%" y2="100%" id="linearGradient-5">
            <stop stop-color="#485176" stop-opacity="0.218394886" offset="0%"></stop>
            <stop stop-color="#14101A" stop-opacity="0.219214379" offset="100%"></stop>
        </linearGradient>
        <linearGradient x1="20.9329173%" y1="8.8817842e-14%" x2="20.9329173%" y2="90.355637%" id="linearGradient-6">
            <stop stop-color="#26253D" offset="0%"></stop>
            <stop stop-color="#7272C1" offset="100%"></stop>
        </linearGradient>
    </defs>
    <g id="deepin-data-transfer" stroke="none" stroke-width="1" fill="none" fill-rule="evenodd">
        <g id="编组" filter="url(#filter-1)" transform="translate(7, 10)">
            <path d="M8,0 L95,-1.77635684e-15 C99.418278,-2.58798134e-15 103,3.581722 103,8 L103,90 C103,94.418278 99.418278,98 95,98 L8,98 C3.581722,98 5.41083001e-16,94.418278 0,90 L-1.77635684e-15,8 C-2.31743984e-15,3.581722 3.581722,8.11624501e-16 8,0 Z" id="矩形" fill="url(#linearGradient-2)"></path>
            <path d="M95,0 C99.418278,0 103,3.581722 103,8 L103,90 C103,94.418278 99.418278,98 95,98 L8,98 C3.581722,98 0,94.418278 0,90 L0,8 C0,3.581722 3.581722,0 8,0 L95,0 Z M95,5 L8,5 C6.34314575,5 5,6.34314575 5,8 L5,90 C5,91.6568542 6.34314575,93 8,93 L95,93 C96.6568542,93 98,91.6568542 98,90 L98,8 C98,6.34314575 96.6568542,5 95,5 Z" id="矩形" fill="url(#linearGradient-3)" fill-rule="nonzero"></path>
            <path d="M49,46 L108,46 C111.313708,46 114,48.6862915 114,52 L114,102 C114,105.313708 111.313708,108 108,108 L49,108 C45.6862915,108 43,105.313708 43,102 L43,52 C43,48.6862915 45.6862915,46 49,46 Z" id="矩形" fill="url(#linearGradient-4)"></path>
            <path d="M108,46 C111.313708,46 114,48.6862915 114,52 L114,102 C114,105.313708 111.313708,108 108,108 L49,108 C45.6862915,108 43,105.313708 43,102 L43,52 C43,48.6862915 45.6862915,46 49,46 L108,46 Z M108,51 L49,51 C48.4477153,51 48,51.4477153 48,52 L48,102 C48,102.552285 48.4477153,103 49,103 L108,103 C108.552285,103 109,102.552285 109,102 L109,52 C109,51.4477153 108.552285,51 108,51 Z" id="矩形" fill="url(#linearGradient-5)" fill-rule="nonzero"></path>
            <path d="M98.5486813,57.7499043 C99.011791,58.3165883 99.0171562,59.1294783 98.561567,59.7022259 L75.1174175,89.1739846 L82.1741377,96.7004725 L57.7234175,94.5613117 L59.6393079,72.6625834 L65.7624175,79.1939846 L96.7282094,57.4984844 C97.3072739,57.0927638 98.1012612,57.202419 98.5486813,57.7499043 Z" id="形状结合" fill="url(#linearGradient-6)" transform="translate(78.3115, 76.9772) rotate(85) translate(-78.3115, -76.9772)"></path>
        </g>
    </g>
</svg>