<svg xmlns="http://www.w3.org/2000/svg" xmlns:xlink="http://www.w3.org/1999/xlink" width="128" height="128" viewBox="0 0 128 128">
  <defs>
    <filter id="download-a" width="129.1%" height="130.9%" x="-14.5%" y="-16.4%" filterUnits="objectBoundingBox">
      <feOffset dy="2" in="SourceAlpha" result="shadowOffsetOuter1"/>
      <feGaussianBlur in="shadowOffsetOuter1" result="shadowBlurOuter1" stdDeviation="3"/>
      <feColorMatrix in="shadowBlurOuter1" result="shadowMatrixOuter1" values="0 0 0 0 0   0 0 0 0 0   0 0 0 0 0  0 0 0 0.2 0"/>
      <feMerge>
        <feMergeNode in="shadowMatrixOuter1"/>
        <feMergeNode in="SourceGraphic"/>
      </feMerge>
    </filter>
    <linearGradient id="download-b" x1="50%" x2="50%" y1="0%" y2="100%">
      <stop offset="0%" stop-color="#555"/>
      <stop offset="16.921%" stop-color="#6D6D6D"/>
      <stop offset="18.089%" stop-color="#BBB"/>
      <stop offset="93.507%" stop-color="#797C7F"/>
      <stop offset="100%" stop-color="#7A7A7A"/>
    </linearGradient>
    <linearGradient id="download-c" x1="50%" x2="50%" y1="0%" y2="100%">
      <stop offset="0%" stop-color="#424242"/>
      <stop offset="100%" stop-color="#363636"/>
    </linearGradient>
    <linearGradient id="download-d" x1="50%" x2="50%" y1="0%" y2="100%">
      <stop offset="0%" stop-color="#FFF" stop-opacity=".15"/>
      <stop offset="100%" stop-color="#FFF" stop-opacity=".31"/>
    </linearGradient>
    <linearGradient id="download-g" x1="50%" x2="50%" y1="0%" y2="99.836%">
      <stop offset="0%" stop-color="#FFF"/>
      <stop offset="68.43%" stop-color="#DDD"/>
      <stop offset="100%" stop-color="#CDCDCD"/>
    </linearGradient>
    <path id="download-f" d="M26,2 L84,2 C86.209139,2 88,3.790861 88,6 L88,15 L22,15 L22,6 C22,3.790861 23.790861,2 26,2 Z"/>
    <filter id="download-e" width="115.2%" height="176.9%" x="-7.6%" y="-46.2%" filterUnits="objectBoundingBox">
      <feOffset dy="-1" in="SourceAlpha" result="shadowOffsetOuter1"/>
      <feGaussianBlur in="shadowOffsetOuter1" result="shadowBlurOuter1" stdDeviation="1.5"/>
      <feColorMatrix in="shadowBlurOuter1" values="0 0 0 0 0   0 0 0 0 0   0 0 0 0 0  0 0 0 0.123934659 0"/>
    </filter>
    <linearGradient id="download-j" x1="50%" x2="50%" y1="0%" y2="99.836%">
      <stop offset="0%" stop-color="#FFF"/>
      <stop offset="68.43%" stop-color="#DDD"/>
      <stop offset="100%" stop-color="#CDCDCD"/>
    </linearGradient>
    <path id="download-i" d="M23,5 L87,5 C89.209139,5 91,6.790861 91,9 L91,15 L19,15 L19,9 C19,6.790861 20.790861,5 23,5 Z"/>
    <filter id="download-h" width="113.9%" height="200%" x="-6.9%" y="-60%" filterUnits="objectBoundingBox">
      <feOffset dy="-1" in="SourceAlpha" result="shadowOffsetOuter1"/>
      <feGaussianBlur in="shadowOffsetOuter1" result="shadowBlurOuter1" stdDeviation="1.5"/>
      <feColorMatrix in="shadowBlurOuter1" values="0 0 0 0 0   0 0 0 0 0   0 0 0 0 0  0 0 0 0.123934659 0"/>
    </filter>
    <path id="download-k" d="M42,41 C42,39.8954305 42.8954305,39 44,39 L66,39 C67.1045695,39 68,39.8954305 68,41 L68,62 L79.579893,62 C80.6844625,62 81.579893,62.8954305 81.579893,64 C81.579893,64.4859211 81.4029864,64.9552223 81.0822228,65.3202292 L56.5023298,93.2904523 C55.7731873,94.1201661 54.5094846,94.2016953 53.6797708,93.4725529 C53.6152215,93.4158278 53.5543953,93.3550015 53.4976702,93.2904523 L28.9177772,65.3202292 C28.1886347,64.4905154 28.2701639,63.2268127 29.0998778,62.4976702 C29.4648846,62.1769066 29.9341859,62 30.420107,62 L42,62 L42,41 Z"/>
    <filter id="download-l" width="111.3%" height="110.9%" x="-5.6%" y="-5.5%" filterUnits="objectBoundingBox">
      <feGaussianBlur in="SourceAlpha" result="shadowBlurInner1" stdDeviation="2.5"/>
      <feOffset dy="1" in="shadowBlurInner1" result="shadowOffsetInner1"/>
      <feComposite in="shadowOffsetInner1" in2="SourceAlpha" k2="-1" k3="1" operator="arithmetic" result="shadowInnerInner1"/>
      <feColorMatrix in="shadowInnerInner1" result="shadowMatrixInner1" values="0 0 0 0 0   0 0 0 0 0   0 0 0 0 0  0 0 0 0.603638549 0"/>
      <feOffset dy="-2" in="SourceAlpha" result="shadowOffsetInner2"/>
      <feComposite in="shadowOffsetInner2" in2="SourceAlpha" k2="-1" k3="1" operator="arithmetic" result="shadowInnerInner2"/>
      <feColorMatrix in="shadowInnerInner2" result="shadowMatrixInner2" values="0 0 0 0 1   0 0 0 0 1   0 0 0 0 1  0 0 0 0.566679414 0"/>
      <feMerge>
        <feMergeNode in="shadowMatrixInner1"/>
        <feMergeNode in="shadowMatrixInner2"/>
      </feMerge>
    </filter>
    <linearGradient id="download-o" x1="50%" x2="50%" y1="0%" y2="99.836%">
      <stop offset="0%" stop-color="#FFF"/>
      <stop offset="68.43%" stop-color="#DDD"/>
      <stop offset="100%" stop-color="#CDCDCD"/>
    </linearGradient>
    <path id="download-n" d="M20,8 L90,8 C92.209139,8 94,9.790861 94,12 L94,15 L16,15 L16,12 C16,9.790861 17.790861,8 20,8 Z"/>
    <filter id="download-m" width="112.8%" height="242.9%" x="-6.4%" y="-85.7%" filterUnits="objectBoundingBox">
      <feOffset dy="-1" in="SourceAlpha" result="shadowOffsetOuter1"/>
      <feGaussianBlur in="shadowOffsetOuter1" result="shadowBlurOuter1" stdDeviation="1.5"/>
      <feColorMatrix in="shadowBlurOuter1" values="0 0 0 0 0   0 0 0 0 0   0 0 0 0 0  0 0 0 0.123934659 0"/>
    </filter>
    <radialGradient id="download-p" cx="50%" cy="100%" r="5500%" fx="50%" fy="100%" gradientTransform="matrix(.0091 0 0 1 .495 0)">
      <stop offset="0%" stop-color="#FFF"/>
      <stop offset="100%" stop-color="#FFF" stop-opacity="0"/>
    </radialGradient>
  </defs>
  <g fill="none" fill-rule="evenodd" filter="url(#download-a)" transform="translate(9 9)">
    <path fill="url(#download-b)" d="M17.0318466,0 L92.9681534,0 C94.8745995,0 96.6675865,0.906010236 97.7984885,2.44080577 L108.830335,17.4125975 C109.590123,18.4437389 110,19.6909596 110,20.9717918 L110,104 C110,107.313708 107.313708,110 104,110 L6,110 C2.6862915,110 0,107.313708 0,104 L0,20.9717918 C0,19.6909596 0.409876572,18.4437389 1.16966498,17.4125975 L12.2015115,2.44080577 C13.3324135,0.906010236 15.1254005,0 17.0318466,0 Z"/>
    <path fill="url(#download-c)" d="M16.5,4 L93.5,4 C93.8147573,4 94.1111456,4.14819416 94.3,4.4 L101.8,14.4 C102.131371,14.8418278 102.041828,15.4686292 101.6,15.8 C101.426904,15.9298221 101.21637,16 101,16 L9,16 C8.44771525,16 8,15.5522847 8,15 C8,14.7836298 8.07017787,14.5730962 8.2,14.4 L15.7,4.4 C15.8888544,4.14819416 16.1852427,4 16.5,4 Z"/>
    <path fill="url(#download-d)" fill-rule="nonzero" d="M93.5,4 C93.8147573,4 94.1111456,4.14819416 94.3,4.4 L101.8,14.4 C102.131371,14.8418278 102.041828,15.4686292 101.6,15.8 C101.426904,15.9298221 101.21637,16 101,16 L9,16 C8.44771525,16 8,15.5522847 8,15 C8,14.7836298 8.07017787,14.5730962 8.2,14.4 L15.7,4.4 C15.8888544,4.14819416 16.1852427,4 16.5,4 L93.5,4 Z M101,15 L93.5,5 L16.5,5 L9,15 L101,15 Z"/>
    <use fill="#000" filter="url(#download-e)" xlink:href="#download-f"/>
    <use fill="url(#download-g)" xlink:href="#download-f"/>
    <use fill="#000" filter="url(#download-h)" xlink:href="#download-i"/>
    <use fill="url(#download-j)" xlink:href="#download-i"/>
    <use fill="#000" fill-opacity=".416" xlink:href="#download-k"/>
    <use fill="#000" filter="url(#download-l)" xlink:href="#download-k"/>
    <use fill="#000" filter="url(#download-m)" xlink:href="#download-n"/>
    <use fill="url(#download-o)" xlink:href="#download-n"/>
    <polygon fill="url(#download-p)" fill-rule="nonzero" points="0 19 110 19 110 20 0 20" opacity=".584"/>
  </g>
</svg>
