<svg xmlns="http://www.w3.org/2000/svg" xmlns:xlink="http://www.w3.org/1999/xlink" width="128" height="128" viewBox="0 0 128 128">
  <defs>
    <filter id="evince-a" width="128.1%" height="132%" x="-14%" y="-16%" filterUnits="objectBoundingBox">
      <feOffset dy="2" in="SourceAlpha" result="shadowOffsetOuter1"/>
      <feGaussianBlur in="shadowOffsetOuter1" result="shadowBlurOuter1" stdDeviation="3"/>
      <feColorMatrix in="shadowBlurOuter1" result="shadowMatrixOuter1" values="0 0 0 0 0   0 0 0 0 0   0 0 0 0 0  0 0 0 0.2 0"/>
      <feMerge>
        <feMergeNode in="shadowMatrixOuter1"/>
        <feMergeNode in="SourceGraphic"/>
      </feMerge>
    </filter>
    <linearGradient id="evince-b" x1="52.224%" x2="52.224%" y1="100%" y2="0%">
      <stop offset="0%" stop-color="#BF3632"/>
      <stop offset="100%" stop-color="#DF926E"/>
    </linearGradient>
    <path id="evince-c" d="M7,1 L107,1 C110.313708,1 113,3.6862915 113,7 L113,93 C113,96.3137085 110.313708,99 107,99 L7,99 C3.6862915,99 1,96.3137085 1,93 L1,7 C1,3.6862915 3.6862915,1 7,1 Z"/>
    <filter id="evince-d" width="101.8%" height="102%" x="-.9%" y="-1%" filterUnits="objectBoundingBox">
      <feOffset dy="1" in="SourceAlpha" result="shadowOffsetInner1"/>
      <feComposite in="shadowOffsetInner1" in2="SourceAlpha" k2="-1" k3="1" operator="arithmetic" result="shadowInnerInner1"/>
      <feColorMatrix in="shadowInnerInner1" result="shadowMatrixInner1" values="0 0 0 0 1   0 0 0 0 1   0 0 0 0 1  0 0 0 0.5 0"/>
      <feOffset dy="-2" in="SourceAlpha" result="shadowOffsetInner2"/>
      <feComposite in="shadowOffsetInner2" in2="SourceAlpha" k2="-1" k3="1" operator="arithmetic" result="shadowInnerInner2"/>
      <feColorMatrix in="shadowInnerInner2" result="shadowMatrixInner2" values="0 0 0 0 0   0 0 0 0 0   0 0 0 0 0  0 0 0 0.14 0"/>
      <feMerge>
        <feMergeNode in="shadowMatrixInner1"/>
        <feMergeNode in="shadowMatrixInner2"/>
      </feMerge>
    </filter>
    <linearGradient id="evince-e" x1="50%" x2="50%" y1="0%" y2="97.702%">
      <stop offset="0%" stop-color="#D07C54"/>
      <stop offset="100%" stop-color="#902521"/>
    </linearGradient>
    <linearGradient id="evince-h" x1="50%" x2="50%" y1="0%" y2="100%">
      <stop offset="0%" stop-color="#FFF"/>
      <stop offset="100%" stop-color="#FFF" stop-opacity=".6"/>
    </linearGradient>
    <path id="evince-g" d="M32.387135,70.9471573 L20,78.6666667 C23.0955743,75.5800689 26.0180437,72.6508443 28.7674083,69.878993 L28.713615,69.8611139 L29.1130118,69.4628753 C28.212503,68.9475293 27.3532362,68.395315 26.5352113,67.8062324 C6.92957746,53.6876678 49.4084507,15.6761479 69.0140845,27.6226256 C70.4663537,28.9925466 71.1924883,30.7635505 71.1924883,32.9356373 C71.1924883,35.1077242 71.1924883,36.1937676 69.0140845,38.4830598 C50.8607199,55.8597547 41.4209703,64.9101166 40.6948357,65.6341455 C39.9687011,66.3581745 38.8794992,67.0822034 37.42723,67.8062324 L36.2272074,68.5540717 L36.0920427,68.2845261 C40.8099196,74.2395711 50.1943348,74.7819354 64.2452881,69.9116189 C70.2989031,67.8133257 81.3282515,62.405342 97.3333333,53.6876678 L97.3333333,67.8062324 C67.5559163,76.0186557 45.7939733,77.0656307 32.0475043,70.9471573 L32.387135,70.9471573 Z M33.5419002,65.0468297 C50.9302579,47.3750603 60.2128483,37.0724124 61.3896714,34.1388861 C63.5680751,28.708669 27.6244131,34.1388861 33.0704225,61.2899718 C33.30801,62.4744646 33.6217802,63.5705938 34.0117331,64.5783592 L33.5419002,65.0468297 Z"/>
    <filter id="evince-f" width="101.3%" height="103.7%" x="-.6%" y="-.9%" filterUnits="objectBoundingBox">
      <feOffset dy="1" in="SourceAlpha" result="shadowOffsetOuter1"/>
      <feColorMatrix in="shadowOffsetOuter1" values="0 0 0 0 0.298148777   0 0 0 0 0.034139173   0 0 0 0 0  0 0 0 0.409937719 0"/>
    </filter>
  </defs>
  <g fill="none" filter="url(#evince-a)" transform="translate(7 14)">
    <use fill="url(#evince-b)" xlink:href="#evince-c"/>
    <use fill="#000" filter="url(#evince-d)" xlink:href="#evince-c"/>
    <path fill="url(#evince-e)" d="M107,0 L7,0 C3.13400675,0 0,3.13400675 0,7 L0,93 C0,96.8659932 3.13400675,100 7,100 L107,100 C110.865993,100 114,96.8659932 114,93 L114,7 C114,3.13400675 110.865993,0 107,0 Z M107,1 C110.313708,1 113,3.6862915 113,7 L113,93 C113,96.3137085 110.313708,99 107,99 L7,99 C3.6862915,99 1,96.3137085 1,93 L1,7 C1,3.6862915 3.6862915,1 7,1 L107,1 Z"/>
    <use fill="#000" filter="url(#evince-f)" xlink:href="#evince-g"/>
    <use fill="url(#evince-h)" xlink:href="#evince-g"/>
  </g>
</svg>
