<svg xmlns="http://www.w3.org/2000/svg" xmlns:xlink="http://www.w3.org/1999/xlink" width="128" height="128" viewBox="0 0 128 128">
  <defs>
    <filter id="fcitx-a" width="123.3%" height="150.9%" x="-11.6%" y="-25.5%" filterUnits="objectBoundingBox">
      <feOffset dy="2" in="SourceAlpha" result="shadowOffsetOuter1"/>
      <feGaussianBlur in="shadowOffsetOuter1" result="shadowBlurOuter1" stdDeviation="2.5"/>
      <feColorMatrix in="shadowBlurOuter1" result="shadowMatrixOuter1" values="0 0 0 0 0   0 0 0 0 0   0 0 0 0 0  0 0 0 0.2 0"/>
      <feMerge>
        <feMergeNode in="shadowMatrixOuter1"/>
        <feMergeNode in="SourceGraphic"/>
      </feMerge>
    </filter>
    <linearGradient id="fcitx-b" x1="50%" x2="50%" y1="50%" y2="100%">
      <stop offset="0%" stop-color="#898989"/>
      <stop offset="100%" stop-color="#767676"/>
    </linearGradient>
    <linearGradient id="fcitx-c" x1="50%" x2="50%" y1="0%" y2="100%">
      <stop offset="0%" stop-color="#DDD"/>
      <stop offset="100%" stop-color="#9E9E9E"/>
    </linearGradient>
    <path id="fcitx-d" d="M11.3673641,1 L104.632722,1 C107.688754,1 110.256501,3.29696908 110.595658,6.33412236 L114.975552,45.5560816 C115.220721,47.751574 113.639672,49.7301214 111.44418,49.9752907 C111.296779,49.9917508 111.148578,50 111.000261,50 L5.00046028,50 C2.79132128,50 1.00046028,48.209139 1.00046028,46 C1.00046028,45.8517049 1.00870707,45.7035245 1.02516245,45.5561452 L5.40441736,6.33421773 C5.74353001,3.2970226 8.3112961,1 11.3673641,1 Z"/>
    <filter id="fcitx-e" width="100.9%" height="102%" x="-.4%" y="-1%" filterUnits="objectBoundingBox">
      <feOffset dy="-1" in="SourceAlpha" result="shadowOffsetInner1"/>
      <feComposite in="shadowOffsetInner1" in2="SourceAlpha" k2="-1" k3="1" operator="arithmetic" result="shadowInnerInner1"/>
      <feColorMatrix in="shadowInnerInner1" values="0 0 0 0 1   0 0 0 0 1   0 0 0 0 1  0 0 0 0.25 0"/>
    </filter>
    <linearGradient id="fcitx-f" x1="50%" x2="50%" y1="2.497%" y2="100%">
      <stop offset="0%" stop-color="#C3C3C3"/>
      <stop offset="100%" stop-color="#717171"/>
    </linearGradient>
    <linearGradient id="fcitx-i" x1="50%" x2="50%" y1="0%" y2="100%">
      <stop offset="0%" stop-color="#E9E9E9"/>
      <stop offset="100%" stop-color="#E3E3E3"/>
    </linearGradient>
    <path id="fcitx-h" d="M11.7900856,4 L18.2951843,4 C19.3997538,4 20.2951843,4.8954305 20.2951843,6 L20.2933868,6.08477617 L20.2933868,6.08477617 L20.0812557,11.0847762 C20.0358328,12.155409 19.1546492,13 18.0830533,13 L11.23453,13 C10.1299605,13 9.23453003,12.1045695 9.23453003,11 C9.23453003,10.9262097 9.23861379,10.8524759 9.24676256,10.7791369 L9.80231812,5.77913695 C9.91485871,4.76627159 10.7709872,4 11.7900856,4 Z"/>
    <filter id="fcitx-g" width="109%" height="122.2%" x="-4.5%" y="-5.6%" filterUnits="objectBoundingBox">
      <feOffset dy="1" in="SourceAlpha" result="shadowOffsetOuter1"/>
      <feColorMatrix in="shadowOffsetOuter1" values="0 0 0 0 0   0 0 0 0 0   0 0 0 0 0  0 0 0 0.08 0"/>
    </filter>
    <filter id="fcitx-j" width="109%" height="122.2%" x="-4.5%" y="-5.6%" filterUnits="objectBoundingBox">
      <feOffset dy="-1" in="SourceAlpha" result="shadowOffsetInner1"/>
      <feComposite in="shadowOffsetInner1" in2="SourceAlpha" k2="-1" k3="1" operator="arithmetic" result="shadowInnerInner1"/>
      <feColorMatrix in="shadowInnerInner1" values="0 0 0 0 1   0 0 0 0 1   0 0 0 0 1  0 0 0 0.5 0"/>
    </filter>
    <linearGradient id="fcitx-m" x1="50%" x2="50%" y1="0%" y2="100%">
      <stop offset="0%" stop-color="#E9E9E9"/>
      <stop offset="100%" stop-color="#E3E3E3"/>
    </linearGradient>
    <path id="fcitx-l" d="M28.2134528,15 L35.1621929,15 C36.2165547,15 37.080358,15.8158778 37.1567072,16.8507377 L37.1620578,17.0232429 L37.1620578,17.0232429 L37.0454146,22.0464827 C37.0201639,23.1326478 36.1324135,24 35.0459548,24 L28.0616448,24 C27.007283,24 26.1434797,23.1841222 26.0671305,22.1492623 L26.0618751,21.9696489 L26.0618751,21.9696489 L26.214374,16.9393048 C26.2471779,15.8588659 27.1325161,15 28.2134528,15 Z"/>
    <filter id="fcitx-k" width="109%" height="122.2%" x="-4.5%" y="-5.6%" filterUnits="objectBoundingBox">
      <feOffset dy="1" in="SourceAlpha" result="shadowOffsetOuter1"/>
      <feColorMatrix in="shadowOffsetOuter1" values="0 0 0 0 0   0 0 0 0 0   0 0 0 0 0  0 0 0 0.08 0"/>
    </filter>
    <filter id="fcitx-n" width="109%" height="122.2%" x="-4.5%" y="-5.6%" filterUnits="objectBoundingBox">
      <feOffset dy="-1" in="SourceAlpha" result="shadowOffsetInner1"/>
      <feComposite in="shadowOffsetInner1" in2="SourceAlpha" k2="-1" k3="1" operator="arithmetic" result="shadowInnerInner1"/>
      <feColorMatrix in="shadowInnerInner1" values="0 0 0 0 1   0 0 0 0 1   0 0 0 0 1  0 0 0 0.5 0"/>
    </filter>
    <linearGradient id="fcitx-q" x1="50%" x2="50%" y1="0%" y2="100%">
      <stop offset="0%" stop-color="#E9E9E9"/>
      <stop offset="100%" stop-color="#E3E3E3"/>
    </linearGradient>
    <path id="fcitx-p" d="M9.79008559,26 L16.3828146,26 C17.4371764,26 18.3009797,26.8158778 18.3773289,27.8507377 L18.3820566,28.0550588 L18.3820566,28.0550588 L18.1041755,33.110076 C18.0457361,34.1702681 17.1690086,35 16.107207,35 L9.23453003,35 C8.12996053,35 7.23453003,34.1045695 7.23453003,33 C7.23453003,32.9262097 7.23861379,32.8524759 7.24676256,32.7791369 L7.80231812,27.7791369 C7.91485871,26.7662716 8.77098715,26 9.79008559,26 Z"/>
    <filter id="fcitx-o" width="109%" height="122.2%" x="-4.5%" y="-5.6%" filterUnits="objectBoundingBox">
      <feOffset dy="1" in="SourceAlpha" result="shadowOffsetOuter1"/>
      <feColorMatrix in="shadowOffsetOuter1" values="0 0 0 0 0   0 0 0 0 0   0 0 0 0 0  0 0 0 0.08 0"/>
    </filter>
    <filter id="fcitx-r" width="109%" height="122.2%" x="-4.5%" y="-5.6%" filterUnits="objectBoundingBox">
      <feOffset dy="-1" in="SourceAlpha" result="shadowOffsetInner1"/>
      <feComposite in="shadowOffsetInner1" in2="SourceAlpha" k2="-1" k3="1" operator="arithmetic" result="shadowInnerInner1"/>
      <feColorMatrix in="shadowInnerInner1" values="0 0 0 0 1   0 0 0 0 1   0 0 0 0 1  0 0 0 0.5 0"/>
    </filter>
    <linearGradient id="fcitx-u" x1="50%" x2="50%" y1="0%" y2="100%">
      <stop offset="0%" stop-color="#E9E9E9"/>
      <stop offset="100%" stop-color="#E3E3E3"/>
    </linearGradient>
    <path id="fcitx-t" d="M8.79008559,37 L15.374683,37 C16.4792525,37 17.374683,37.8954305 17.374683,39 L17.3717797,39.1077264 L17.3717797,39.1077264 L17.1020721,44.1077264 C17.0448311,45.1688941 16.1676859,46 15.1049755,46 L8.23453003,46 C7.12996053,46 6.23453003,45.1045695 6.23453003,44 C6.23453003,43.9262097 6.23861379,43.8524759 6.24676256,43.7791369 L6.80231812,38.7791369 C6.91485871,37.7662716 7.77098715,37 8.79008559,37 Z"/>
    <filter id="fcitx-s" width="109%" height="122.2%" x="-4.5%" y="-5.6%" filterUnits="objectBoundingBox">
      <feOffset dy="1" in="SourceAlpha" result="shadowOffsetOuter1"/>
      <feColorMatrix in="shadowOffsetOuter1" values="0 0 0 0 0   0 0 0 0 0   0 0 0 0 0  0 0 0 0.08 0"/>
    </filter>
    <filter id="fcitx-v" width="109%" height="122.2%" x="-4.5%" y="-5.6%" filterUnits="objectBoundingBox">
      <feOffset dy="-1" in="SourceAlpha" result="shadowOffsetInner1"/>
      <feComposite in="shadowOffsetInner1" in2="SourceAlpha" k2="-1" k3="1" operator="arithmetic" result="shadowInnerInner1"/>
      <feColorMatrix in="shadowInnerInner1" values="0 0 0 0 1   0 0 0 0 1   0 0 0 0 1  0 0 0 0.5 0"/>
    </filter>
    <linearGradient id="fcitx-y" x1="50%" x2="50%" y1="0%" y2="100%">
      <stop offset="0%" stop-color="#E9E9E9"/>
      <stop offset="100%" stop-color="#E3E3E3"/>
    </linearGradient>
    <path id="fcitx-x" d="M41.153336,15 L48.0908817,15 C49.1452435,15 50.0090468,15.8158778 50.085396,16.8507377 L50.0907125,17.0260123 L50.0907125,17.0260123 L50.0256762,22.0260123 C50.0114419,23.1203442 49.1202697,24 48.0258454,24 L41.0441508,24 C39.989789,24 39.1259857,23.1841222 39.0496366,22.1492623 L39.0446275,21.9563364 L39.0446275,21.9563364 L39.1538126,16.9563364 C39.1775559,15.8690408 40.0657812,15 41.153336,15 Z"/>
    <filter id="fcitx-w" width="109.1%" height="122.2%" x="-4.5%" y="-5.6%" filterUnits="objectBoundingBox">
      <feOffset dy="1" in="SourceAlpha" result="shadowOffsetOuter1"/>
      <feColorMatrix in="shadowOffsetOuter1" values="0 0 0 0 0   0 0 0 0 0   0 0 0 0 0  0 0 0 0.08 0"/>
    </filter>
    <filter id="fcitx-z" width="109.1%" height="122.2%" x="-4.5%" y="-5.6%" filterUnits="objectBoundingBox">
      <feOffset dy="-1" in="SourceAlpha" result="shadowOffsetInner1"/>
      <feComposite in="shadowOffsetInner1" in2="SourceAlpha" k2="-1" k3="1" operator="arithmetic" result="shadowInnerInner1"/>
      <feColorMatrix in="shadowInnerInner1" values="0 0 0 0 1   0 0 0 0 1   0 0 0 0 1  0 0 0 0.5 0"/>
    </filter>
    <linearGradient id="fcitx-C" x1="50%" x2="50%" y1="0%" y2="100%">
      <stop offset="0%" stop-color="#E9E9E9"/>
      <stop offset="100%" stop-color="#E3E3E3"/>
    </linearGradient>
    <path id="fcitx-B" d="M22.2732348,26 L29.206856,26 C30.2612178,26 31.1250212,26.8158778 31.2013703,27.8507377 L31.206636,28.0296669 L31.206636,28.0296669 L31.0575927,33.0593272 C31.0255124,34.1403192 30.1399407,35 29.0584728,35 L22.079143,35 C21.0247812,35 20.1609779,34.1841222 20.0846288,33.1492623 L20.0795193,32.9612036 L20.0795193,32.9612036 L20.27474,27.9224217 C20.3164145,26.8488443 21.1988488,26 22.2732348,26 Z"/>
    <filter id="fcitx-A" width="109%" height="122.2%" x="-4.5%" y="-5.6%" filterUnits="objectBoundingBox">
      <feOffset dy="1" in="SourceAlpha" result="shadowOffsetOuter1"/>
      <feColorMatrix in="shadowOffsetOuter1" values="0 0 0 0 0   0 0 0 0 0   0 0 0 0 0  0 0 0 0.08 0"/>
    </filter>
    <filter id="fcitx-D" width="109%" height="122.2%" x="-4.5%" y="-5.6%" filterUnits="objectBoundingBox">
      <feOffset dy="-1" in="SourceAlpha" result="shadowOffsetInner1"/>
      <feComposite in="shadowOffsetInner1" in2="SourceAlpha" k2="-1" k3="1" operator="arithmetic" result="shadowInnerInner1"/>
      <feColorMatrix in="shadowInnerInner1" values="0 0 0 0 1   0 0 0 0 1   0 0 0 0 1  0 0 0 0.5 0"/>
    </filter>
    <linearGradient id="fcitx-G" x1="50%" x2="50%" y1="0%" y2="100%">
      <stop offset="0%" stop-color="#E9E9E9"/>
      <stop offset="100%" stop-color="#E3E3E3"/>
    </linearGradient>
    <path id="fcitx-F" d="M21.3566011,37 L28.1809539,37 C29.2353157,37 30.0991191,37.8158778 30.1754682,38.8507377 L30.180281,39.051876 L30.180281,39.051876 L30.0505474,44.051876 C30.0224212,45.1358735 29.1355827,46 28.0512203,46 L21.1037121,46 C19.9991426,46 19.1037121,45.1045695 19.1037121,44 L19.1062653,43.8989735 L19.1062653,43.8989735 L19.3591543,38.8989735 C19.4129662,37.8350307 20.2912983,37 21.3566011,37 Z"/>
    <filter id="fcitx-E" width="109%" height="122.2%" x="-4.5%" y="-5.6%" filterUnits="objectBoundingBox">
      <feOffset dy="1" in="SourceAlpha" result="shadowOffsetOuter1"/>
      <feColorMatrix in="shadowOffsetOuter1" values="0 0 0 0 0   0 0 0 0 0   0 0 0 0 0  0 0 0 0.08 0"/>
    </filter>
    <filter id="fcitx-H" width="109%" height="122.2%" x="-4.5%" y="-5.6%" filterUnits="objectBoundingBox">
      <feOffset dy="-1" in="SourceAlpha" result="shadowOffsetInner1"/>
      <feComposite in="shadowOffsetInner1" in2="SourceAlpha" k2="-1" k3="1" operator="arithmetic" result="shadowInnerInner1"/>
      <feColorMatrix in="shadowInnerInner1" values="0 0 0 0 1   0 0 0 0 1   0 0 0 0 1  0 0 0 0.5 0"/>
    </filter>
    <linearGradient id="fcitx-K" x1="50%" x2="50%" y1="0%" y2="100%">
      <stop offset="0%" stop-color="#E9E9E9"/>
      <stop offset="100%" stop-color="#E3E3E3"/>
    </linearGradient>
    <path id="fcitx-J" d="M35.1407762,26 L42.061683,26 C43.1160447,26 43.9798481,26.8158778 44.0561972,27.8507377 L44.0616051,28.0176453 L44.0616051,28.0176453 L44.0174903,33.0176453 C44.0078058,34.1152873 43.1152529,35 42.0175681,35 L35.040509,35 C33.9861472,35 33.1223439,34.1841222 33.0459947,33.1492623 L33.040911,32.9599012 L33.040911,32.9599012 L33.1411782,27.9599012 C33.1630108,26.8711789 34.051835,26 35.1407762,26 Z"/>
    <filter id="fcitx-I" width="109.1%" height="122.2%" x="-4.5%" y="-5.6%" filterUnits="objectBoundingBox">
      <feOffset dy="1" in="SourceAlpha" result="shadowOffsetOuter1"/>
      <feColorMatrix in="shadowOffsetOuter1" values="0 0 0 0 0   0 0 0 0 0   0 0 0 0 0  0 0 0 0.08 0"/>
    </filter>
    <filter id="fcitx-L" width="109.1%" height="122.2%" x="-4.5%" y="-5.6%" filterUnits="objectBoundingBox">
      <feOffset dy="-1" in="SourceAlpha" result="shadowOffsetInner1"/>
      <feComposite in="shadowOffsetInner1" in2="SourceAlpha" k2="-1" k3="1" operator="arithmetic" result="shadowInnerInner1"/>
      <feColorMatrix in="shadowInnerInner1" values="0 0 0 0 1   0 0 0 0 1   0 0 0 0 1  0 0 0 0.5 0"/>
    </filter>
    <linearGradient id="fcitx-O" x1="50%" x2="50%" y1="0%" y2="100%">
      <stop offset="0%" stop-color="#E9E9E9"/>
      <stop offset="100%" stop-color="#E3E3E3"/>
    </linearGradient>
    <path id="fcitx-N" d="M48,26 L55,26 C56.1045695,26 57,26.8954305 57,28 L57,33 C57,34.1045695 56.1045695,35 55,35 L48,35 C46.8954305,35 46,34.1045695 46,33 L46,28 C46,26.8954305 46.8954305,26 48,26 Z"/>
    <filter id="fcitx-M" width="109.1%" height="122.2%" x="-4.5%" y="-5.6%" filterUnits="objectBoundingBox">
      <feOffset dy="1" in="SourceAlpha" result="shadowOffsetOuter1"/>
      <feColorMatrix in="shadowOffsetOuter1" values="0 0 0 0 0   0 0 0 0 0   0 0 0 0 0  0 0 0 0.08 0"/>
    </filter>
    <filter id="fcitx-P" width="109.1%" height="122.2%" x="-4.5%" y="-5.6%" filterUnits="objectBoundingBox">
      <feOffset dy="-1" in="SourceAlpha" result="shadowOffsetInner1"/>
      <feComposite in="shadowOffsetInner1" in2="SourceAlpha" k2="-1" k3="1" operator="arithmetic" result="shadowInnerInner1"/>
      <feColorMatrix in="shadowInnerInner1" values="0 0 0 0 1   0 0 0 0 1   0 0 0 0 1  0 0 0 0.5 0"/>
    </filter>
    <path id="fcitx-R" d="M61,26 L68,26 C69.1045695,26 70,26.8954305 70,28 L70,33 C70,34.1045695 69.1045695,35 68,35 L61,35 C59.8954305,35 59,34.1045695 59,33 L59,28 C59,26.8954305 59.8954305,26 61,26 Z"/>
    <filter id="fcitx-Q" width="109.1%" height="122.2%" x="-4.5%" y="-5.6%" filterUnits="objectBoundingBox">
      <feOffset dy="1" in="SourceAlpha" result="shadowOffsetOuter1"/>
      <feColorMatrix in="shadowOffsetOuter1" values="0 0 0 0 0   0 0 0 0 0   0 0 0 0 0  0 0 0 0.08 0"/>
    </filter>
    <filter id="fcitx-S" width="109.1%" height="122.2%" x="-4.5%" y="-5.6%" filterUnits="objectBoundingBox">
      <feOffset dy="-1" in="SourceAlpha" result="shadowOffsetInner1"/>
      <feComposite in="shadowOffsetInner1" in2="SourceAlpha" k2="-1" k3="1" operator="arithmetic" result="shadowInnerInner1"/>
      <feColorMatrix in="shadowInnerInner1" values="0 0 0 0 1   0 0 0 0 1   0 0 0 0 1  0 0 0 0.5 0"/>
    </filter>
    <linearGradient id="fcitx-V" x1="50%" x2="50%" y1="0%" y2="100%">
      <stop offset="0%" stop-color="#E9E9E9"/>
      <stop offset="100%" stop-color="#E3E3E3"/>
    </linearGradient>
    <path id="fcitx-U" d="M73.922504,26 L80.8962453,26 C81.9892809,26 82.8798614,26.8775055 82.8960265,27.9704215 L82.9699808,32.9704215 C82.985574,34.024668 82.1825604,34.9004431 81.1489429,34.9920887 L80.9701995,35 L80.9701995,35 L73.9779468,35 C72.8820274,35 71.9902206,34.1180268 71.9780698,33.0221747 L71.9226295,28.0221747 C71.9109394,26.9678778 72.7171897,26.0950816 73.7511395,26.0072633 L73.922504,26 L73.922504,26 Z"/>
    <filter id="fcitx-T" width="109.1%" height="122.2%" x="-4.5%" y="-5.6%" filterUnits="objectBoundingBox">
      <feOffset dy="1" in="SourceAlpha" result="shadowOffsetOuter1"/>
      <feColorMatrix in="shadowOffsetOuter1" values="0 0 0 0 0   0 0 0 0 0   0 0 0 0 0  0 0 0 0.08 0"/>
    </filter>
    <filter id="fcitx-W" width="109.1%" height="122.2%" x="-4.5%" y="-5.6%" filterUnits="objectBoundingBox">
      <feOffset dy="-1" in="SourceAlpha" result="shadowOffsetInner1"/>
      <feComposite in="shadowOffsetInner1" in2="SourceAlpha" k2="-1" k3="1" operator="arithmetic" result="shadowInnerInner1"/>
      <feColorMatrix in="shadowInnerInner1" values="0 0 0 0 1   0 0 0 0 1   0 0 0 0 1  0 0 0 0.5 0"/>
    </filter>
    <linearGradient id="fcitx-Z" x1="50%" x2="50%" y1="0%" y2="100%">
      <stop offset="0%" stop-color="#E9E9E9"/>
      <stop offset="100%" stop-color="#E3E3E3"/>
    </linearGradient>
    <path id="fcitx-Y" d="M86.8697932,26 L93.8819394,26 C94.9733915,26 95.8632949,26.8750564 95.8816564,27.966354 L95.9657832,32.966354 C95.9835207,34.0205666 95.1822901,34.8979732 94.1488611,34.991721 L93.9660662,35 L93.9660662,35 L86.9630485,35 C85.8730156,35 84.9837214,34.1271362 84.9633962,33.0372928 L84.8701481,28.0372928 C84.850488,26.9831143 85.6501172,26.104248 86.6833735,26.0086157 L86.8697932,26 L86.8697932,26 Z"/>
    <filter id="fcitx-X" width="109%" height="122.2%" x="-4.5%" y="-5.6%" filterUnits="objectBoundingBox">
      <feOffset dy="1" in="SourceAlpha" result="shadowOffsetOuter1"/>
      <feColorMatrix in="shadowOffsetOuter1" values="0 0 0 0 0   0 0 0 0 0   0 0 0 0 0  0 0 0 0.08 0"/>
    </filter>
    <filter id="fcitx-aa" width="109%" height="122.2%" x="-4.5%" y="-5.6%" filterUnits="objectBoundingBox">
      <feOffset dy="-1" in="SourceAlpha" result="shadowOffsetInner1"/>
      <feComposite in="shadowOffsetInner1" in2="SourceAlpha" k2="-1" k3="1" operator="arithmetic" result="shadowInnerInner1"/>
      <feColorMatrix in="shadowInnerInner1" values="0 0 0 0 1   0 0 0 0 1   0 0 0 0 1  0 0 0 0.5 0"/>
    </filter>
    <linearGradient id="fcitx-ad" x1="50%" x2="50%" y1="0%" y2="100%">
      <stop offset="0%" stop-color="#E9E9E9"/>
      <stop offset="100%" stop-color="#E3E3E3"/>
    </linearGradient>
    <path id="fcitx-ac" d="M99.6394583,26.000513 L106.209914,26 C107.229013,26 108.085141,26.7662716 108.197682,27.7791369 L108.753237,32.7791369 C108.875217,33.8769506 108.084147,34.8657882 106.986333,34.9877675 C106.912994,34.9959162 106.83926,35 106.76547,35 L99.9113961,35 C98.8420427,35 97.9618704,34.1588211 97.9134476,33.0905646 L97.6868037,28.0905646 C97.6390598,27.0372843 98.4149857,26.1374222 99.4453268,26.0142906 L99.6394583,26.000513 L99.6394583,26.000513 Z"/>
    <filter id="fcitx-ab" width="109%" height="122.2%" x="-4.5%" y="-5.6%" filterUnits="objectBoundingBox">
      <feOffset dy="1" in="SourceAlpha" result="shadowOffsetOuter1"/>
      <feColorMatrix in="shadowOffsetOuter1" values="0 0 0 0 0   0 0 0 0 0   0 0 0 0 0  0 0 0 0.08 0"/>
    </filter>
    <filter id="fcitx-ae" width="109%" height="122.2%" x="-4.5%" y="-5.6%" filterUnits="objectBoundingBox">
      <feOffset dy="-1" in="SourceAlpha" result="shadowOffsetInner1"/>
      <feComposite in="shadowOffsetInner1" in2="SourceAlpha" k2="-1" k3="1" operator="arithmetic" result="shadowInnerInner1"/>
      <feColorMatrix in="shadowInnerInner1" values="0 0 0 0 1   0 0 0 0 1   0 0 0 0 1  0 0 0 0.5 0"/>
    </filter>
    <linearGradient id="fcitx-ah" x1="50%" x2="50%" y1="0%" y2="100%">
      <stop offset="0%" stop-color="#E9E9E9"/>
      <stop offset="100%" stop-color="#E3E3E3"/>
    </linearGradient>
    <path id="fcitx-ag" d="M81.8355437,37 L88.6080271,37 C89.6694945,37 90.5460682,37.8292268 90.6049478,38.88906 L90.8827256,43.88906 C90.941211,44.9417984 90.1745046,45.8495285 89.1454731,45.9831638 L88.9412962,45.99923 L88.9412962,45.99923 L81.9534093,46 C80.8672036,46 79.979563,45.1330373 79.9539648,44.0471332 L79.8360991,39.0471332 C79.8112514,37.9930642 80.6065457,37.1102733 81.6393189,37.0095573 L81.8355437,37 L81.8355437,37 Z"/>
    <filter id="fcitx-af" width="109%" height="122.2%" x="-4.5%" y="-5.6%" filterUnits="objectBoundingBox">
      <feOffset dy="1" in="SourceAlpha" result="shadowOffsetOuter1"/>
      <feColorMatrix in="shadowOffsetOuter1" values="0 0 0 0 0   0 0 0 0 0   0 0 0 0 0  0 0 0 0.08 0"/>
    </filter>
    <filter id="fcitx-ai" width="109%" height="122.2%" x="-4.5%" y="-5.6%" filterUnits="objectBoundingBox">
      <feOffset dy="-1" in="SourceAlpha" result="shadowOffsetInner1"/>
      <feComposite in="shadowOffsetInner1" in2="SourceAlpha" k2="-1" k3="1" operator="arithmetic" result="shadowInnerInner1"/>
      <feColorMatrix in="shadowInnerInner1" values="0 0 0 0 1   0 0 0 0 1   0 0 0 0 1  0 0 0 0.5 0"/>
    </filter>
    <path id="fcitx-ak" d="M54,15 L61,15 C62.1045695,15 63,15.8954305 63,17 L63,22 C63,23.1045695 62.1045695,24 61,24 L54,24 C52.8954305,24 52,23.1045695 52,22 L52,17 C52,15.8954305 52.8954305,15 54,15 Z"/>
    <filter id="fcitx-aj" width="109.1%" height="122.2%" x="-4.5%" y="-5.6%" filterUnits="objectBoundingBox">
      <feOffset dy="1" in="SourceAlpha" result="shadowOffsetOuter1"/>
      <feColorMatrix in="shadowOffsetOuter1" values="0 0 0 0 0   0 0 0 0 0   0 0 0 0 0  0 0 0 0.08 0"/>
    </filter>
    <filter id="fcitx-al" width="109.1%" height="122.2%" x="-4.5%" y="-5.6%" filterUnits="objectBoundingBox">
      <feOffset dy="-1" in="SourceAlpha" result="shadowOffsetInner1"/>
      <feComposite in="shadowOffsetInner1" in2="SourceAlpha" k2="-1" k3="1" operator="arithmetic" result="shadowInnerInner1"/>
      <feColorMatrix in="shadowInnerInner1" values="0 0 0 0 1   0 0 0 0 1   0 0 0 0 1  0 0 0 0.5 0"/>
    </filter>
    <linearGradient id="fcitx-ao" x1="50%" x2="50%" y1="0%" y2="100%">
      <stop offset="0%" stop-color="#E9E9E9"/>
      <stop offset="100%" stop-color="#E3E3E3"/>
    </linearGradient>
    <path id="fcitx-an" d="M66.9169676,15 L73.8605129,15 C74.9495964,15 75.838482,15.8713985 75.8601182,16.9602672 L75.9594698,21.9602672 C75.9804162,23.0144209 75.1818601,23.8942623 74.1487213,23.9911553 L73.9598645,24 L73.9598645,24 L66.9763781,24 C65.8810769,24 64.9895322,23.1189853 64.9765193,22.0237613 L64.9171117,17.0237613 C64.9045852,15.969474 65.7101429,15.0960384 66.7440226,15.0073998 L66.9169676,15 L66.9169676,15 Z"/>
    <filter id="fcitx-am" width="109.1%" height="122.2%" x="-4.5%" y="-5.6%" filterUnits="objectBoundingBox">
      <feOffset dy="1" in="SourceAlpha" result="shadowOffsetOuter1"/>
      <feColorMatrix in="shadowOffsetOuter1" values="0 0 0 0 0   0 0 0 0 0   0 0 0 0 0  0 0 0 0.08 0"/>
    </filter>
    <filter id="fcitx-ap" width="109.1%" height="122.2%" x="-4.5%" y="-5.6%" filterUnits="objectBoundingBox">
      <feOffset dy="-1" in="SourceAlpha" result="shadowOffsetInner1"/>
      <feComposite in="shadowOffsetInner1" in2="SourceAlpha" k2="-1" k3="1" operator="arithmetic" result="shadowInnerInner1"/>
      <feColorMatrix in="shadowInnerInner1" values="0 0 0 0 1   0 0 0 0 1   0 0 0 0 1  0 0 0 0.5 0"/>
    </filter>
    <linearGradient id="fcitx-as" x1="50%" x2="50%" y1="0%" y2="100%">
      <stop offset="0%" stop-color="#E9E9E9"/>
      <stop offset="100%" stop-color="#E3E3E3"/>
    </linearGradient>
    <path id="fcitx-ar" d="M79.8236643,15 L86.5978015,15 C87.6581622,15 88.5342256,15.8275554 88.5945612,16.8861981 L88.8795275,21.8861981 C88.9423785,22.988978 88.0993496,23.9339086 86.9965697,23.9967597 L86.8827679,24 L86.8827679,24 L79.9500748,24 C78.8651964,24 77.978133,23.13508 77.9507137,22.0505481 L77.8243031,17.0505481 C77.7976552,15.9965231 78.5914405,15.1123752 79.6240402,15.0098953 L79.8236643,15 L79.8236643,15 Z"/>
    <filter id="fcitx-aq" width="109%" height="122.2%" x="-4.5%" y="-5.6%" filterUnits="objectBoundingBox">
      <feOffset dy="1" in="SourceAlpha" result="shadowOffsetOuter1"/>
      <feColorMatrix in="shadowOffsetOuter1" values="0 0 0 0 0   0 0 0 0 0   0 0 0 0 0  0 0 0 0.08 0"/>
    </filter>
    <filter id="fcitx-at" width="109%" height="122.2%" x="-4.5%" y="-5.6%" filterUnits="objectBoundingBox">
      <feOffset dy="-1" in="SourceAlpha" result="shadowOffsetInner1"/>
      <feComposite in="shadowOffsetInner1" in2="SourceAlpha" k2="-1" k3="1" operator="arithmetic" result="shadowInnerInner1"/>
      <feColorMatrix in="shadowInnerInner1" values="0 0 0 0 1   0 0 0 0 1   0 0 0 0 1  0 0 0 0.5 0"/>
    </filter>
    <linearGradient id="fcitx-aw" x1="50%" x2="50%" y1="0%" y2="100%">
      <stop offset="0%" stop-color="#E9E9E9"/>
      <stop offset="100%" stop-color="#E3E3E3"/>
    </linearGradient>
    <path id="fcitx-av" d="M10.7900856,15 L22.2606434,15 C23.3150052,15 24.1788085,15.8158778 24.2551577,16.8507377 L24.2602934,17.0374152 L24.2602934,17.0374152 L24.072069,22.0748174 C24.0318376,23.1495212 23.1489255,24 22.0734689,24 L10.23453,24 C9.12996053,24 8.23453003,23.1045695 8.23453003,22 C8.23453003,21.9262097 8.23861379,21.8524759 8.24676256,21.7791369 L8.80231812,16.7791369 C8.91485871,15.7662716 9.77098715,15 10.7900856,15 Z"/>
    <filter id="fcitx-au" width="106.2%" height="122.2%" x="-3.1%" y="-5.6%" filterUnits="objectBoundingBox">
      <feOffset dy="1" in="SourceAlpha" result="shadowOffsetOuter1"/>
      <feColorMatrix in="shadowOffsetOuter1" values="0 0 0 0 0   0 0 0 0 0   0 0 0 0 0  0 0 0 0.08 0"/>
    </filter>
    <filter id="fcitx-ax" width="106.2%" height="122.2%" x="-3.1%" y="-5.6%" filterUnits="objectBoundingBox">
      <feOffset dy="-1" in="SourceAlpha" result="shadowOffsetInner1"/>
      <feComposite in="shadowOffsetInner1" in2="SourceAlpha" k2="-1" k3="1" operator="arithmetic" result="shadowInnerInner1"/>
      <feColorMatrix in="shadowInnerInner1" values="0 0 0 0 1   0 0 0 0 1   0 0 0 0 1  0 0 0 0.5 0"/>
    </filter>
    <linearGradient id="fcitx-aA" x1="50%" x2="50%" y1="0%" y2="100%">
      <stop offset="0%" stop-color="#E9E9E9"/>
      <stop offset="100%" stop-color="#E3E3E3"/>
    </linearGradient>
    <path id="fcitx-az" d="M92.6277707,15.0005469 L105.209914,15 C106.229013,15 107.085141,15.7662716 107.197682,16.7791369 L107.753237,21.7791369 C107.875217,22.8769506 107.084147,23.8657882 105.986333,23.9877675 C105.912994,23.9959162 105.83926,24 105.76547,24 L92.9085753,24 C91.8403634,24 90.960708,23.1605556 90.9107627,22.093512 L90.6767268,17.093512 C90.627429,16.0403033 91.4020265,15.1392975 92.4321848,15.014646 L92.6277707,15.0005469 L92.6277707,15.0005469 Z"/>
    <filter id="fcitx-ay" width="105.9%" height="122.2%" x="-2.9%" y="-5.6%" filterUnits="objectBoundingBox">
      <feOffset dy="1" in="SourceAlpha" result="shadowOffsetOuter1"/>
      <feColorMatrix in="shadowOffsetOuter1" values="0 0 0 0 0   0 0 0 0 0   0 0 0 0 0  0 0 0 0.08 0"/>
    </filter>
    <filter id="fcitx-aB" width="105.9%" height="122.2%" x="-2.9%" y="-5.6%" filterUnits="objectBoundingBox">
      <feOffset dy="-1" in="SourceAlpha" result="shadowOffsetInner1"/>
      <feComposite in="shadowOffsetInner1" in2="SourceAlpha" k2="-1" k3="1" operator="arithmetic" result="shadowInnerInner1"/>
      <feColorMatrix in="shadowInnerInner1" values="0 0 0 0 1   0 0 0 0 1   0 0 0 0 1  0 0 0 0.5 0"/>
    </filter>
    <linearGradient id="fcitx-aE" x1="50%" x2="50%" y1="0%" y2="100%">
      <stop offset="0%" stop-color="#E9E9E9"/>
      <stop offset="100%" stop-color="#E3E3E3"/>
    </linearGradient>
    <path id="fcitx-aD" d="M94.6198021,37 L107.209914,37 C108.229013,37 109.085141,37.7662716 109.197682,38.7791369 L109.753237,43.7791369 C109.875217,44.8769506 109.084147,45.8657882 107.986333,45.9877675 C107.912994,45.9959162 107.83926,46 107.76547,46 L94.8935109,46 C93.8314169,46 92.9545548,45.1698261 92.8965009,44.1093198 L92.6227921,39.1093198 C92.5624164,38.0064016 93.4075641,37.0633656 94.5104823,37.0029899 L94.6198021,37 L94.6198021,37 Z"/>
    <filter id="fcitx-aC" width="105.8%" height="122.2%" x="-2.9%" y="-5.6%" filterUnits="objectBoundingBox">
      <feOffset dy="1" in="SourceAlpha" result="shadowOffsetOuter1"/>
      <feColorMatrix in="shadowOffsetOuter1" values="0 0 0 0 0   0 0 0 0 0   0 0 0 0 0  0 0 0 0.08 0"/>
    </filter>
    <filter id="fcitx-aF" width="105.8%" height="122.2%" x="-2.9%" y="-5.6%" filterUnits="objectBoundingBox">
      <feOffset dy="-1" in="SourceAlpha" result="shadowOffsetInner1"/>
      <feComposite in="shadowOffsetInner1" in2="SourceAlpha" k2="-1" k3="1" operator="arithmetic" result="shadowInnerInner1"/>
      <feColorMatrix in="shadowInnerInner1" values="0 0 0 0 1   0 0 0 0 1   0 0 0 0 1  0 0 0 0.5 0"/>
    </filter>
    <linearGradient id="fcitx-aI" x1="50%" x2="50%" y1="0%" y2="100%">
      <stop offset="0%" stop-color="#E9E9E9"/>
      <stop offset="100%" stop-color="#E3E3E3"/>
    </linearGradient>
    <path id="fcitx-aH" d="M34.1717812,37 L75.8411223,37 C76.9280658,37 77.8160263,37.8680988 77.8406107,38.9547642 L77.9537292,43.9547642 C77.9775767,45.0088563 77.181445,45.8908921 76.1485767,45.990628 L75.9542408,46 L75.9542408,46 L34.0495075,46 C32.9951457,46 32.1313423,45.1841222 32.0549932,44.1492623 L32.0496569,43.9755507 L32.0496569,43.9755507 L32.172379,38.9511051 C32.1989172,37.8659086 33.0862603,37 34.1717812,37 Z"/>
    <filter id="fcitx-aG" width="102.2%" height="122.2%" x="-1.1%" y="-5.6%" filterUnits="objectBoundingBox">
      <feOffset dy="1" in="SourceAlpha" result="shadowOffsetOuter1"/>
      <feColorMatrix in="shadowOffsetOuter1" values="0 0 0 0 0   0 0 0 0 0   0 0 0 0 0  0 0 0 0.08 0"/>
    </filter>
    <filter id="fcitx-aJ" width="102.2%" height="122.2%" x="-1.1%" y="-5.6%" filterUnits="objectBoundingBox">
      <feOffset dy="-1" in="SourceAlpha" result="shadowOffsetInner1"/>
      <feComposite in="shadowOffsetInner1" in2="SourceAlpha" k2="-1" k3="1" operator="arithmetic" result="shadowInnerInner1"/>
      <feColorMatrix in="shadowInnerInner1" values="0 0 0 0 1   0 0 0 0 1   0 0 0 0 1  0 0 0 0.5 0"/>
    </filter>
    <linearGradient id="fcitx-aM" x1="50%" x2="50%" y1="0%" y2="100%">
      <stop offset="0%" stop-color="#E9E9E9"/>
      <stop offset="100%" stop-color="#E3E3E3"/>
    </linearGradient>
    <path id="fcitx-aL" d="M24.1977041,4 L42.2326363,4 C43.2869981,4 44.1508014,4.81587779 44.2271506,5.85073766 L44.2323577,6.03337906 L44.2323577,6.03337906 L44.0645571,11.0667488 C44.0285599,12.1447348 43.1442581,13 42.0656712,13 L24.057052,13 C23.0026902,13 22.1388869,12.1841222 22.0625378,11.1492623 L22.0578429,10.9437614 L22.0578429,10.9437614 L22.198495,5.9437614 C22.2289388,4.86152202 23.1150367,4 24.1977041,4 Z"/>
    <filter id="fcitx-aK" width="104.5%" height="122.2%" x="-2.3%" y="-5.6%" filterUnits="objectBoundingBox">
      <feOffset dy="1" in="SourceAlpha" result="shadowOffsetOuter1"/>
      <feColorMatrix in="shadowOffsetOuter1" values="0 0 0 0 0   0 0 0 0 0   0 0 0 0 0  0 0 0 0.08 0"/>
    </filter>
    <filter id="fcitx-aN" width="104.5%" height="122.2%" x="-2.3%" y="-5.6%" filterUnits="objectBoundingBox">
      <feOffset dy="-1" in="SourceAlpha" result="shadowOffsetInner1"/>
      <feComposite in="shadowOffsetInner1" in2="SourceAlpha" k2="-1" k3="1" operator="arithmetic" result="shadowInnerInner1"/>
      <feColorMatrix in="shadowInnerInner1" values="0 0 0 0 1   0 0 0 0 1   0 0 0 0 1  0 0 0 0.5 0"/>
    </filter>
    <linearGradient id="fcitx-aQ" x1="50%" x2="50%" y1="0%" y2="100%">
      <stop offset="0%" stop-color="#E9E9E9"/>
      <stop offset="100%" stop-color="#E3E3E3"/>
    </linearGradient>
    <path id="fcitx-aP" d="M48.1707296,4 L55,4 C56.1045695,4 57,4.8954305 57,6 L57,11 C57,12.1045695 56.1045695,13 55,13 L48.0492018,13 C46.99484,13 46.1310367,12.1841222 46.0546875,11.1492623 L46.0497923,10.9514032 L46.0497923,10.9514032 L46.1713201,5.95140324 C46.1976993,4.86608695 47.0850927,4 48.1707296,4 Z"/>
    <filter id="fcitx-aO" width="109.1%" height="122.2%" x="-4.6%" y="-5.6%" filterUnits="objectBoundingBox">
      <feOffset dy="1" in="SourceAlpha" result="shadowOffsetOuter1"/>
      <feColorMatrix in="shadowOffsetOuter1" values="0 0 0 0 0   0 0 0 0 0   0 0 0 0 0  0 0 0 0.08 0"/>
    </filter>
    <filter id="fcitx-aR" width="109.1%" height="122.2%" x="-4.6%" y="-5.6%" filterUnits="objectBoundingBox">
      <feOffset dy="-1" in="SourceAlpha" result="shadowOffsetInner1"/>
      <feComposite in="shadowOffsetInner1" in2="SourceAlpha" k2="-1" k3="1" operator="arithmetic" result="shadowInnerInner1"/>
      <feColorMatrix in="shadowInnerInner1" values="0 0 0 0 1   0 0 0 0 1   0 0 0 0 1  0 0 0 0.5 0"/>
    </filter>
    <path id="fcitx-aT" d="M61,4 L68,4 C69.1045695,4 70,4.8954305 70,6 L70,11 C70,12.1045695 69.1045695,13 68,13 L61,13 C59.8954305,13 59,12.1045695 59,11 L59,6 C59,4.8954305 59.8954305,4 61,4 Z"/>
    <filter id="fcitx-aS" width="109.1%" height="122.2%" x="-4.5%" y="-5.6%" filterUnits="objectBoundingBox">
      <feOffset dy="1" in="SourceAlpha" result="shadowOffsetOuter1"/>
      <feColorMatrix in="shadowOffsetOuter1" values="0 0 0 0 0   0 0 0 0 0   0 0 0 0 0  0 0 0 0.08 0"/>
    </filter>
    <filter id="fcitx-aU" width="109.1%" height="122.2%" x="-4.5%" y="-5.6%" filterUnits="objectBoundingBox">
      <feOffset dy="-1" in="SourceAlpha" result="shadowOffsetInner1"/>
      <feComposite in="shadowOffsetInner1" in2="SourceAlpha" k2="-1" k3="1" operator="arithmetic" result="shadowInnerInner1"/>
      <feColorMatrix in="shadowInnerInner1" values="0 0 0 0 1   0 0 0 0 1   0 0 0 0 1  0 0 0 0.5 0"/>
    </filter>
    <linearGradient id="fcitx-aX" x1="50%" x2="50%" y1="0%" y2="100%">
      <stop offset="0%" stop-color="#E9E9E9"/>
      <stop offset="100%" stop-color="#E3E3E3"/>
    </linearGradient>
    <path id="fcitx-aW" d="M73.8820036,4 L80.7729925,4 C81.8524413,4 82.7371239,4.8565852 82.7719513,5.93547198 L82.9333554,10.935472 C82.9673733,11.9892849 82.17979,12.878962 81.1479323,12.9886601 L80.9343966,13 L80.9343966,13 L73.9664923,13 C72.8750957,13 71.985216,12.1250292 71.9667778,11.0337883 L71.8822949,6.03378831 C71.8644824,4.97957699 72.6656505,4.10211338 73.6990728,4.00829205 L73.8820036,4 L73.8820036,4 Z"/>
    <filter id="fcitx-aV" width="109%" height="122.2%" x="-4.5%" y="-5.6%" filterUnits="objectBoundingBox">
      <feOffset dy="1" in="SourceAlpha" result="shadowOffsetOuter1"/>
      <feColorMatrix in="shadowOffsetOuter1" values="0 0 0 0 0   0 0 0 0 0   0 0 0 0 0  0 0 0 0.08 0"/>
    </filter>
    <filter id="fcitx-aY" width="109%" height="122.2%" x="-4.5%" y="-5.6%" filterUnits="objectBoundingBox">
      <feOffset dy="-1" in="SourceAlpha" result="shadowOffsetInner1"/>
      <feComposite in="shadowOffsetInner1" in2="SourceAlpha" k2="-1" k3="1" operator="arithmetic" result="shadowInnerInner1"/>
      <feColorMatrix in="shadowInnerInner1" values="0 0 0 0 1   0 0 0 0 1   0 0 0 0 1  0 0 0 0.5 0"/>
    </filter>
    <linearGradient id="fcitx-bb" x1="50%" x2="50%" y1="0%" y2="100%">
      <stop offset="0%" stop-color="#E9E9E9"/>
      <stop offset="100%" stop-color="#E3E3E3"/>
    </linearGradient>
    <path id="fcitx-ba" d="M86.6291644,4.0005428 L104.209914,4 C105.229013,4 106.085141,4.76627159 106.197682,5.77913695 L106.753237,10.7791369 C106.875217,11.8769506 106.084147,12.8657882 104.986333,12.9877675 C104.912994,12.9959162 104.83926,13 104.76547,13 L86.9089115,13 C85.8405635,13 84.9608463,12.1603489 84.9110824,11.0931605 L84.6779281,6.09316049 C84.6288157,5.03994315 85.4035717,4.13907365 86.433752,4.01460336 L86.6291644,4.0005428 L86.6291644,4.0005428 Z"/>
    <filter id="fcitx-aZ" width="104.5%" height="122.2%" x="-2.3%" y="-5.6%" filterUnits="objectBoundingBox">
      <feOffset dy="1" in="SourceAlpha" result="shadowOffsetOuter1"/>
      <feColorMatrix in="shadowOffsetOuter1" values="0 0 0 0 0   0 0 0 0 0   0 0 0 0 0  0 0 0 0.08 0"/>
    </filter>
    <filter id="fcitx-bc" width="104.5%" height="122.2%" x="-2.3%" y="-5.6%" filterUnits="objectBoundingBox">
      <feOffset dy="-1" in="SourceAlpha" result="shadowOffsetInner1"/>
      <feComposite in="shadowOffsetInner1" in2="SourceAlpha" k2="-1" k3="1" operator="arithmetic" result="shadowInnerInner1"/>
      <feColorMatrix in="shadowInnerInner1" values="0 0 0 0 1   0 0 0 0 1   0 0 0 0 1  0 0 0 0.5 0"/>
    </filter>
    <filter id="fcitx-bd" width="141%" height="144.4%" x="-20.5%" y="-22.2%" filterUnits="objectBoundingBox">
      <feOffset dy="2" in="SourceAlpha" result="shadowOffsetOuter1"/>
      <feGaussianBlur in="shadowOffsetOuter1" result="shadowBlurOuter1" stdDeviation="3"/>
      <feColorMatrix in="shadowBlurOuter1" result="shadowMatrixOuter1" values="0 0 0 0 0   0 0 0 0 0   0 0 0 0 0  0 0 0 0.2 0"/>
      <feMerge>
        <feMergeNode in="shadowMatrixOuter1"/>
        <feMergeNode in="SourceGraphic"/>
      </feMerge>
    </filter>
    <radialGradient id="fcitx-be" cx="50%" cy="0%" r="109.814%" fx="50%" fy="0%" gradientTransform="matrix(0 1 -.90925 0 .5 -.5)">
      <stop offset="0%" stop-color="#84E0D2"/>
      <stop offset="100%" stop-color="#108989"/>
    </radialGradient>
    <path id="fcitx-bf" d="M7,1 L71,1 C74.3137085,1 77,3.6862915 77,7 L77,52.1024566 C77,55.4161651 74.3137085,58.1024566 71,58.1024566 L48.1129522,58.1024566 C47.4209489,58.1024566 46.7781148,58.4601784 46.4133547,59.0482419 L39.8497987,69.6299605 C39.5586854,70.0992914 38.9422235,70.2437652 38.4728927,69.9526519 C38.3418949,69.8713975 38.2314557,69.7609582 38.1502013,69.6299605 L31.5866453,59.0482419 C31.2218852,58.4601784 30.5790511,58.1024566 29.8870478,58.1024566 L7,58.1024566 C3.6862915,58.1024566 1,55.4161651 1,52.1024566 L1,7 C1,3.6862915 3.6862915,1 7,1 Z"/>
    <filter id="fcitx-bg" width="101.3%" height="101.4%" x="-.7%" y="-.7%" filterUnits="objectBoundingBox">
      <feOffset dy="1" in="SourceAlpha" result="shadowOffsetInner1"/>
      <feComposite in="shadowOffsetInner1" in2="SourceAlpha" k2="-1" k3="1" operator="arithmetic" result="shadowInnerInner1"/>
      <feColorMatrix in="shadowInnerInner1" values="0 0 0 0 1   0 0 0 0 1   0 0 0 0 1  0 0 0 0.351972247 0"/>
    </filter>
    <linearGradient id="fcitx-bh" x1="54.878%" x2="54.878%" y1="-1.22%" y2="101.22%">
      <stop offset="0%" stop-color="#3BA9A4"/>
      <stop offset="100%" stop-color="#16706F"/>
    </linearGradient>
    <path id="fcitx-bj" d="M42,55 L42,39 L55,39 L55,41 L60,41 L60,16 L42,16 L42,7 L36,7 L36,16 L18,16 L18,41 L23,41 L23,39 L36,39 L36,55 L42,55 Z M55,34 L42,34 L42,21 L55,21 L55,34 Z M36,34 L23,34 L23,21 L36,21 L36,34 Z"/>
    <filter id="fcitx-bi" width="116.7%" height="114.6%" x="-8.3%" y="-5.2%" filterUnits="objectBoundingBox">
      <feOffset dy="1" in="SourceAlpha" result="shadowOffsetOuter1"/>
      <feGaussianBlur in="shadowOffsetOuter1" result="shadowBlurOuter1" stdDeviation="1"/>
      <feColorMatrix in="shadowBlurOuter1" values="0 0 0 0 0   0 0 0 0 0   0 0 0 0 0  0 0 0 0.16 0"/>
    </filter>
  </defs>
  <g fill="none" fill-rule="evenodd">
    <g filter="url(#fcitx-a)" transform="translate(6 63)">
      <path fill="url(#fcitx-b)" d="M0,46 L116,46 L116,48 C116,50.7614237 113.761424,53 111,53 L5,53 C2.23857625,53 0,50.7614237 0,48 L0,46 Z"/>
      <use fill="url(#fcitx-c)" xlink:href="#fcitx-d"/>
      <use fill="#000" filter="url(#fcitx-e)" xlink:href="#fcitx-d"/>
      <path fill="url(#fcitx-f)" fill-rule="nonzero" d="M104.632722,0 L11.3673641,0 C7.80195144,0 4.80622432,2.6798597 4.4105929,6.22325402 L0.0313379905,45.4451814 C0.010768768,45.6294056 0.000460284056,45.8146311 0.000460284056,46 C0.000460284056,48.7614237 2.23903653,51 5.00046028,51 L111.000261,51 C111.185657,51 111.370909,50.9896885 111.555159,50.9691134 C114.299525,50.6626517 116.275836,48.1894675 115.969375,45.445102 L111.589481,6.22314276 C111.193798,2.67979726 108.198092,0 104.632722,0 Z M104.632722,1 C107.688754,1 110.256501,3.29696908 110.595658,6.33412236 L114.975552,45.5560816 C115.220721,47.751574 113.639672,49.7301214 111.44418,49.9752907 C111.296779,49.9917508 111.148578,50 111.000261,50 L5.00046028,50 C2.79132128,50 1.00046028,48.209139 1.00046028,46 C1.00046028,45.8517049 1.00870707,45.7035245 1.02516245,45.5561452 L5.40441736,6.33421773 C5.74353001,3.2970226 8.3112961,1 11.3673641,1 L104.632722,1 Z"/>
      <use fill="#000" filter="url(#fcitx-g)" xlink:href="#fcitx-h"/>
      <use fill="url(#fcitx-i)" xlink:href="#fcitx-h"/>
      <use fill="#000" filter="url(#fcitx-j)" xlink:href="#fcitx-h"/>
      <use fill="#000" filter="url(#fcitx-k)" xlink:href="#fcitx-l"/>
      <use fill="url(#fcitx-m)" xlink:href="#fcitx-l"/>
      <use fill="#000" filter="url(#fcitx-n)" xlink:href="#fcitx-l"/>
      <use fill="#000" filter="url(#fcitx-o)" xlink:href="#fcitx-p"/>
      <use fill="url(#fcitx-q)" xlink:href="#fcitx-p"/>
      <use fill="#000" filter="url(#fcitx-r)" xlink:href="#fcitx-p"/>
      <use fill="#000" filter="url(#fcitx-s)" xlink:href="#fcitx-t"/>
      <use fill="url(#fcitx-u)" xlink:href="#fcitx-t"/>
      <use fill="#000" filter="url(#fcitx-v)" xlink:href="#fcitx-t"/>
      <use fill="#000" filter="url(#fcitx-w)" xlink:href="#fcitx-x"/>
      <use fill="url(#fcitx-y)" xlink:href="#fcitx-x"/>
      <use fill="#000" filter="url(#fcitx-z)" xlink:href="#fcitx-x"/>
      <use fill="#000" filter="url(#fcitx-A)" xlink:href="#fcitx-B"/>
      <use fill="url(#fcitx-C)" xlink:href="#fcitx-B"/>
      <use fill="#000" filter="url(#fcitx-D)" xlink:href="#fcitx-B"/>
      <use fill="#000" filter="url(#fcitx-E)" xlink:href="#fcitx-F"/>
      <use fill="url(#fcitx-G)" xlink:href="#fcitx-F"/>
      <use fill="#000" filter="url(#fcitx-H)" xlink:href="#fcitx-F"/>
      <use fill="#000" filter="url(#fcitx-I)" xlink:href="#fcitx-J"/>
      <use fill="url(#fcitx-K)" xlink:href="#fcitx-J"/>
      <use fill="#000" filter="url(#fcitx-L)" xlink:href="#fcitx-J"/>
      <use fill="#000" filter="url(#fcitx-M)" xlink:href="#fcitx-N"/>
      <use fill="url(#fcitx-O)" xlink:href="#fcitx-N"/>
      <use fill="#000" filter="url(#fcitx-P)" xlink:href="#fcitx-N"/>
      <use fill="#000" filter="url(#fcitx-Q)" xlink:href="#fcitx-R"/>
      <use fill="url(#fcitx-O)" xlink:href="#fcitx-R"/>
      <use fill="#000" filter="url(#fcitx-S)" xlink:href="#fcitx-R"/>
      <use fill="#000" filter="url(#fcitx-T)" xlink:href="#fcitx-U"/>
      <use fill="url(#fcitx-V)" xlink:href="#fcitx-U"/>
      <use fill="#000" filter="url(#fcitx-W)" xlink:href="#fcitx-U"/>
      <use fill="#000" filter="url(#fcitx-X)" xlink:href="#fcitx-Y"/>
      <use fill="url(#fcitx-Z)" xlink:href="#fcitx-Y"/>
      <use fill="#000" filter="url(#fcitx-aa)" xlink:href="#fcitx-Y"/>
      <use fill="#000" filter="url(#fcitx-ab)" xlink:href="#fcitx-ac"/>
      <use fill="url(#fcitx-ad)" xlink:href="#fcitx-ac"/>
      <use fill="#000" filter="url(#fcitx-ae)" xlink:href="#fcitx-ac"/>
      <use fill="#000" filter="url(#fcitx-af)" xlink:href="#fcitx-ag"/>
      <use fill="url(#fcitx-ah)" xlink:href="#fcitx-ag"/>
      <use fill="#000" filter="url(#fcitx-ai)" xlink:href="#fcitx-ag"/>
      <use fill="#000" filter="url(#fcitx-aj)" xlink:href="#fcitx-ak"/>
      <use fill="url(#fcitx-O)" xlink:href="#fcitx-ak"/>
      <use fill="#000" filter="url(#fcitx-al)" xlink:href="#fcitx-ak"/>
      <use fill="#000" filter="url(#fcitx-am)" xlink:href="#fcitx-an"/>
      <use fill="url(#fcitx-ao)" xlink:href="#fcitx-an"/>
      <use fill="#000" filter="url(#fcitx-ap)" xlink:href="#fcitx-an"/>
      <use fill="#000" filter="url(#fcitx-aq)" xlink:href="#fcitx-ar"/>
      <use fill="url(#fcitx-as)" xlink:href="#fcitx-ar"/>
      <use fill="#000" filter="url(#fcitx-at)" xlink:href="#fcitx-ar"/>
      <use fill="#000" filter="url(#fcitx-au)" xlink:href="#fcitx-av"/>
      <use fill="url(#fcitx-aw)" xlink:href="#fcitx-av"/>
      <use fill="#000" filter="url(#fcitx-ax)" xlink:href="#fcitx-av"/>
      <use fill="#000" filter="url(#fcitx-ay)" xlink:href="#fcitx-az"/>
      <use fill="url(#fcitx-aA)" xlink:href="#fcitx-az"/>
      <use fill="#000" filter="url(#fcitx-aB)" xlink:href="#fcitx-az"/>
      <use fill="#000" filter="url(#fcitx-aC)" xlink:href="#fcitx-aD"/>
      <use fill="url(#fcitx-aE)" xlink:href="#fcitx-aD"/>
      <use fill="#000" filter="url(#fcitx-aF)" xlink:href="#fcitx-aD"/>
      <use fill="#000" filter="url(#fcitx-aG)" xlink:href="#fcitx-aH"/>
      <use fill="url(#fcitx-aI)" xlink:href="#fcitx-aH"/>
      <use fill="#000" filter="url(#fcitx-aJ)" xlink:href="#fcitx-aH"/>
      <use fill="#000" filter="url(#fcitx-aK)" xlink:href="#fcitx-aL"/>
      <use fill="url(#fcitx-aM)" xlink:href="#fcitx-aL"/>
      <use fill="#000" filter="url(#fcitx-aN)" xlink:href="#fcitx-aL"/>
      <use fill="#000" filter="url(#fcitx-aO)" xlink:href="#fcitx-aP"/>
      <use fill="url(#fcitx-aQ)" xlink:href="#fcitx-aP"/>
      <use fill="#000" filter="url(#fcitx-aR)" xlink:href="#fcitx-aP"/>
      <use fill="#000" filter="url(#fcitx-aS)" xlink:href="#fcitx-aT"/>
      <use fill="url(#fcitx-O)" xlink:href="#fcitx-aT"/>
      <use fill="#000" filter="url(#fcitx-aU)" xlink:href="#fcitx-aT"/>
      <use fill="#000" filter="url(#fcitx-aV)" xlink:href="#fcitx-aW"/>
      <use fill="url(#fcitx-aX)" xlink:href="#fcitx-aW"/>
      <use fill="#000" filter="url(#fcitx-aY)" xlink:href="#fcitx-aW"/>
      <use fill="#000" filter="url(#fcitx-aZ)" xlink:href="#fcitx-ba"/>
      <use fill="url(#fcitx-bb)" xlink:href="#fcitx-ba"/>
      <use fill="#000" filter="url(#fcitx-bc)" xlink:href="#fcitx-ba"/>
    </g>
    <g fill-rule="nonzero" filter="url(#fcitx-bd)" transform="translate(25 10)">
      <use fill="url(#fcitx-be)" xlink:href="#fcitx-bf"/>
      <use fill="#000" filter="url(#fcitx-bg)" xlink:href="#fcitx-bf"/>
      <path fill="url(#fcitx-bh)" d="M71,0 L7,0 C3.13400675,0 0,3.13400675 0,7 L0,52.1024566 C0,55.9684499 3.13400675,59.1024566 7,59.1024566 L29.8870478,59.1024566 C30.2330495,59.1024566 30.5544665,59.2813175 30.7368465,59.5753493 L37.3004026,70.1570679 C37.4629113,70.4190633 37.6837899,70.6399419 37.9457853,70.8024506 C38.8844471,71.3846773 40.1173707,71.0957296 40.6995974,70.1570679 L47.2631535,59.5753493 C47.4455335,59.2813175 47.7669505,59.1024566 48.1129522,59.1024566 L71,59.1024566 C74.8659932,59.1024566 78,55.9684499 78,52.1024566 L78,7 C78,3.13400675 74.8659932,0 71,0 Z M71,1 C74.3137085,1 77,3.6862915 77,7 L77,52.1024566 C77,55.4161651 74.3137085,58.1024566 71,58.1024566 L48.1129522,58.1024566 C47.4209489,58.1024566 46.7781148,58.4601784 46.4133547,59.0482419 L39.8497987,69.6299605 C39.5586854,70.0992914 38.9422235,70.2437652 38.4728927,69.9526519 C38.3418949,69.8713975 38.2314557,69.7609582 38.1502013,69.6299605 L31.5866453,59.0482419 C31.2218852,58.4601784 30.5790511,58.1024566 29.8870478,58.1024566 L7,58.1024566 C3.6862915,58.1024566 1,55.4161651 1,52.1024566 L1,7 C1,3.6862915 3.6862915,1 7,1 L71,1 Z"/>
      <use fill="#000" filter="url(#fcitx-bi)" xlink:href="#fcitx-bj"/>
      <use fill="#FFF" xlink:href="#fcitx-bj"/>
    </g>
  </g>
</svg>
