<svg xmlns="http://www.w3.org/2000/svg" xmlns:xlink="http://www.w3.org/1999/xlink" width="128" height="128" viewBox="0 0 128 128">
  <defs>
    <filter id="google-chrome-a" width="129.3%" height="129.3%" x="-14.7%" y="-14.7%" filterUnits="objectBoundingBox">
      <feOffset dy="2" in="SourceAlpha" result="shadowOffsetOuter1"/>
      <feGaussianBlur in="shadowOffsetOuter1" result="shadowBlurOuter1" stdDeviation="3"/>
      <feColorMatrix in="shadowBlurOuter1" result="shadowMatrixOuter1" values="0 0 0 0 0   0 0 0 0 0   0 0 0 0 0  0 0 0 0.2 0"/>
      <feMerge>
        <feMergeNode in="shadowMatrixOuter1"/>
        <feMergeNode in="SourceGraphic"/>
      </feMerge>
    </filter>
    <linearGradient id="google-chrome-b" x1="50%" x2="50%" y1="101.22%" y2="-1.22%">
      <stop offset="0%" stop-color="#C32F2F"/>
      <stop offset="45.52%" stop-color="#E85842"/>
      <stop offset="100%" stop-color="#F1998B"/>
    </linearGradient>
    <linearGradient id="google-chrome-c" x1="54.651%" x2="54.651%" y1="101.22%" y2="-1.22%">
      <stop offset="0%" stop-color="#B73725"/>
      <stop offset="100%" stop-color="#DF6D61"/>
    </linearGradient>
    <linearGradient id="google-chrome-d" x1="50%" x2="50%" y1="101.163%" y2="-1.163%">
      <stop offset="0%" stop-color="#FAD10C"/>
      <stop offset="100%" stop-color="#FCE694"/>
    </linearGradient>
    <linearGradient id="google-chrome-e" x1="41.429%" x2="41.429%" y1="101.163%" y2="-1.163%">
      <stop offset="0%" stop-color="#AD8E11"/>
      <stop offset="100%" stop-color="#F0D264"/>
    </linearGradient>
    <linearGradient id="google-chrome-f" x1="50%" x2="50%" y1="-2.632%" y2="128.948%">
      <stop offset="0%" stop-color="#A5E774"/>
      <stop offset="100%" stop-color="#41A643"/>
    </linearGradient>
    <linearGradient id="google-chrome-g" x1="60.526%" x2="60.526%" y1="-2.632%" y2="128.948%">
      <stop offset="0%" stop-color="#ABD24E"/>
      <stop offset="100%" stop-color="#4D7B4F"/>
    </linearGradient>
    <linearGradient id="google-chrome-j" x1="0%" x2="100%" y1="39.862%" y2="39.862%">
      <stop offset="0%" stop-color="#F5F5F5"/>
      <stop offset="100%" stop-color="#DCDCDC"/>
    </linearGradient>
    <linearGradient id="google-chrome-k" x1="54.444%" x2="54.444%" y1="-1.316%" y2="101.316%">
      <stop offset="0%" stop-color="#F9F9F9"/>
      <stop offset="100%" stop-color="#C9C9C9"/>
    </linearGradient>
    <path id="google-chrome-i" d="M58.2622222,85.0088889 C43.2249316,85.0088889 30.9911111,72.7723413 30.9911111,57.7350507 C30.9911111,42.69776 43.2249316,30.4666667 58.2622222,30.4666667 C73.2967858,30.4666667 85.5333333,42.69776 85.5333333,57.7350507 C85.5333333,72.7723413 73.2967858,85.0088889 58.2622222,85.0088889 L58.2622222,85.0088889 Z"/>
    <filter id="google-chrome-h" width="129.3%" height="129.3%" x="-14.7%" y="-11%" filterUnits="objectBoundingBox">
      <feMorphology in="SourceAlpha" operator="dilate" radius="1" result="shadowSpreadOuter1"/>
      <feOffset dy="2" in="shadowSpreadOuter1" result="shadowOffsetOuter1"/>
      <feGaussianBlur in="shadowOffsetOuter1" result="shadowBlurOuter1" stdDeviation="2"/>
      <feComposite in="shadowBlurOuter1" in2="SourceAlpha" operator="out" result="shadowBlurOuter1"/>
      <feColorMatrix in="shadowBlurOuter1" values="0 0 0 0 0   0 0 0 0 0   0 0 0 0 0  0 0 0 0.3 0"/>
    </filter>
    <linearGradient id="google-chrome-n" x1="50%" x2="50%" y1="101.163%" y2="-1.163%">
      <stop offset="0%" stop-color="#517FB3"/>
      <stop offset="100%" stop-color="#A1C6EF"/>
    </linearGradient>
    <linearGradient id="google-chrome-o" x1="41.429%" x2="41.429%" y1="101.163%" y2="-1.163%">
      <stop offset="0%" stop-color="#49627F"/>
      <stop offset="100%" stop-color="#78A7DC"/>
    </linearGradient>
    <circle id="google-chrome-m" cx="58" cy="58" r="21"/>
    <filter id="google-chrome-l" width="138.1%" height="138.1%" x="-19%" y="-14.3%" filterUnits="objectBoundingBox">
      <feMorphology in="SourceAlpha" operator="dilate" radius="1" result="shadowSpreadOuter1"/>
      <feOffset dy="2" in="shadowSpreadOuter1" result="shadowOffsetOuter1"/>
      <feGaussianBlur in="shadowOffsetOuter1" result="shadowBlurOuter1" stdDeviation="2"/>
      <feComposite in="shadowBlurOuter1" in2="SourceAlpha" operator="out" result="shadowBlurOuter1"/>
      <feColorMatrix in="shadowBlurOuter1" values="0 0 0 0 0   0 0 0 0 0   0 0 0 0 0  0 0 0 0.3 0"/>
    </filter>
  </defs>
  <g fill="none" filter="url(#google-chrome-a)" transform="translate(6 6)">
    <path fill="url(#google-chrome-b)" stroke="url(#google-chrome-c)" stroke-linecap="square" d="M58.1084351,-0.49999994 C69.3820858,-0.49999994 79.8985682,2.71329261 88.8141568,8.26407247 C98.191408,14.1022801 105.797471,22.5267297 110.65031,32.5184681 L110.65031,32.5184681 L36.391417,70.6594112 L9.4511423,25.3804632 C19.9259213,9.74176926 37.8924508,-0.49999994 58.1084351,-0.49999994 Z"/>
    <path fill="url(#google-chrome-d)" stroke="url(#google-chrome-e)" d="M57.6430481,32.4984486 L110.710256,32.6733189 C118.899667,49.4742905 118.6246,70.1975615 108.453163,87.5368333 C102.72922,97.29346 94.4871568,104.872905 84.9355772,109.826876 C75.0672684,114.94512 63.801134,117.260604 52.4707688,116.279257 L52.4707688,116.279257 L57.6430481,32.4984486 Z"/>
    <path fill="url(#google-chrome-f)" stroke="url(#google-chrome-g)" stroke-linecap="square" d="M9.42625711,25.3815261 L36.7767516,71.3830753 L80.8963024,69.8275859 L53.360895,116.322533 C38.5206236,115.180216 24.834937,108.194456 14.97308,97.5566613 C5.45562208,87.2903637 -0.50010705,73.6244907 -0.50010705,58.5324707 C-0.50010705,46.3608296 3.00042507,34.675531 9.42625711,25.3815261 L9.42625711,25.3815261 Z"/>
    <g stroke-linejoin="round">
      <use fill="#000" filter="url(#google-chrome-h)" xlink:href="#google-chrome-i"/>
      <path fill="url(#google-chrome-j)" fill-rule="evenodd" stroke="url(#google-chrome-k)" d="M58.2622222,29.9666667 C65.9178593,29.9666667 72.8611935,33.0807251 77.8903169,38.1093456 C82.9187533,43.1372792 86.0333333,50.0790719 86.0333333,57.7350507 C86.0333333,65.3913715 82.9184654,72.3348313 77.8896115,77.364188 C72.8605356,82.3937669 65.9174897,85.5088888 58.2622222,85.5088888 C50.6059117,85.5088888 43.6631547,82.3940354 38.634482,77.3648598 C33.6055768,72.3354518 30.4911112,65.391717 30.4911112,57.7350507 C30.4911112,50.0787264 33.6052889,43.1366588 38.6337766,38.108674 C43.6624968,33.0804567 50.6055421,29.9666667 58.2622222,29.9666667 Z"/>
    </g>
    <g stroke-linejoin="round">
      <use fill="#000" filter="url(#google-chrome-l)" xlink:href="#google-chrome-m"/>
      <circle cx="58" cy="58" r="21.5" fill="url(#google-chrome-n)" fill-rule="evenodd" stroke="url(#google-chrome-o)"/>
    </g>
  </g>
</svg>
