<svg xmlns="http://www.w3.org/2000/svg" xmlns:xlink="http://www.w3.org/1999/xlink" width="128" height="128" viewBox="0 0 128 128">
  <defs>
    <filter id="安卓容器-a" width="126.2%" height="127.6%" x="-13.1%" y="-13.8%" filterUnits="objectBoundingBox">
      <feOffset dy="2" in="SourceAlpha" result="shadowOffsetOuter1"/>
      <feGaussianBlur in="shadowOffsetOuter1" result="shadowBlurOuter1" stdDeviation="3"/>
      <feColorMatrix in="shadowBlurOuter1" result="shadowMatrixOuter1" values="0 0 0 0 0   0 0 0 0 0   0 0 0 0 0  0 0 0 0.2 0"/>
      <feMerge>
        <feMergeNode in="shadowMatrixOuter1"/>
        <feMergeNode in="SourceGraphic"/>
      </feMerge>
    </filter>
    <linearGradient id="安卓容器-b" x1="47.674%" x2="47.674%" y1="-11.89%" y2="207.666%">
      <stop offset="0%" stop-color="#767676"/>
      <stop offset="100%" stop-color="#A9A9A9"/>
    </linearGradient>
    <linearGradient id="安卓容器-c" x1="52.326%" x2="52.326%" y1="1.513%" y2="108.319%">
      <stop offset="0%" stop-opacity=".304"/>
      <stop offset="100%" stop-opacity=".399"/>
    </linearGradient>
    <radialGradient id="安卓容器-d" cx="50%" cy="20.15%" r="87.25%" fx="50%" fy="20.15%" gradientTransform="matrix(0 1 -.74012 0 .65 -.298)">
      <stop offset="0%" stop-color="#BDEB7F"/>
      <stop offset="81.729%" stop-color="#408712"/>
      <stop offset="100%" stop-color="#236300"/>
    </radialGradient>
    <linearGradient id="安卓容器-e" x1="50%" x2="50%" y1="0%" y2="98.61%">
      <stop offset="0%" stop-opacity=".163"/>
      <stop offset="100%" stop-opacity=".289"/>
    </linearGradient>
    <linearGradient id="安卓容器-f" x1="50%" x2="50%" y1="100%" y2="-31.377%">
      <stop offset="0%" stop-opacity="0"/>
      <stop offset="100%" stop-opacity=".301"/>
    </linearGradient>
    <filter id="安卓容器-g" width="100%" height="100%" x="0%" y="0%" filterUnits="objectBoundingBox">
      <feGaussianBlur in="SourceGraphic"/>
    </filter>
    <linearGradient id="安卓容器-h" x1="50%" x2="50%" y1="0%" y2="190.452%">
      <stop offset="0%" stop-color="#FFF"/>
      <stop offset="100%" stop-color="#FFF" stop-opacity=".255"/>
    </linearGradient>
    <radialGradient id="安卓容器-i" cx="50%" cy="100%" r="5500%" fx="50%" fy="100%" gradientTransform="matrix(.0091 0 0 1 .495 0)">
      <stop offset="0%" stop-color="#FFF"/>
      <stop offset="100%" stop-color="#FFF" stop-opacity="0"/>
    </radialGradient>
    <linearGradient id="安卓容器-j" x1="50%" x2="50%" y1="0%" y2="50%">
      <stop offset="0%" stop-opacity="0"/>
      <stop offset="100%" stop-opacity=".301"/>
    </linearGradient>
    <filter id="安卓容器-k" width="100%" height="100%" x="0%" y="0%" filterUnits="objectBoundingBox">
      <feGaussianBlur in="SourceGraphic"/>
    </filter>
    <linearGradient id="安卓容器-l" x1="12.793%" x2="12.793%" y1="-14.386%" y2="100%">
      <stop offset="0%" stop-color="#F8F8F8"/>
      <stop offset="100%" stop-color="#DCDCDC"/>
    </linearGradient>
    <linearGradient id="安卓容器-m" x1="59.071%" x2="59.071%" y1="100%" y2="0%">
      <stop offset="0%" stop-opacity=".3"/>
      <stop offset="100%" stop-opacity=".095"/>
    </linearGradient>
    <linearGradient id="安卓容器-n" x1="50%" x2="50%" y1="0%" y2="50%">
      <stop offset=".079%" stop-color="#6C6C6C" stop-opacity=".369"/>
      <stop offset="100%" stop-color="#6B6B69" stop-opacity="0"/>
    </linearGradient>
    <filter id="安卓容器-o" width="100%" height="100%" x="0%" y="0%" filterUnits="objectBoundingBox">
      <feGaussianBlur in="SourceGraphic"/>
    </filter>
    <radialGradient id="安卓容器-p" cx="50%" cy="100%" r="5100.001%" fx="50%" fy="100%" gradientTransform="matrix(.0098 0 0 1 .495 0)">
      <stop offset="0%" stop-color="#FFF"/>
      <stop offset="100%" stop-color="#FFF" stop-opacity="0"/>
    </radialGradient>
    <linearGradient id="安卓容器-q" x1="50%" x2="50%" y1="-11.919%" y2="100%">
      <stop offset="0%" stop-opacity=".678"/>
      <stop offset="100%" stop-opacity=".35"/>
    </linearGradient>
    <linearGradient id="安卓容器-r" x1="22.658%" x2="22.658%" y1="-36.328%" y2="100%">
      <stop offset="0%" stop-color="#F8F8F8"/>
      <stop offset="100%" stop-color="#DCDCDC"/>
    </linearGradient>
    <path id="安卓容器-s" d="M9.76454468,39.2886289 L112.235455,39.2886289 C113.073323,39.2886289 113.822378,39.8108949 114.112091,40.5970812 L120.504077,57.942855 C120.695043,58.4610737 120.429752,59.0359811 119.911533,59.2269468 C119.800817,59.2677461 119.683754,59.2886289 119.565759,59.2886289 L2.43424084,59.2886289 C1.88195609,59.2886289 1.43424084,58.8409136 1.43424084,58.2886289 C1.43424084,58.1706345 1.45512359,58.0535713 1.49592296,57.942855 L7.88790891,40.5970812 C8.17762165,39.8108949 8.92667693,39.2886289 9.76454468,39.2886289 Z"/>
    <filter id="安卓容器-t" width="100.1%" height="105%" x="-.1%" y="-2.5%" filterUnits="objectBoundingBox">
      <feOffset dx="1" dy="1" in="SourceAlpha" result="shadowOffsetInner1"/>
      <feComposite in="shadowOffsetInner1" in2="SourceAlpha" k2="-1" k3="1" operator="arithmetic" result="shadowInnerInner1"/>
      <feColorMatrix in="shadowInnerInner1" values="0 0 0 0 1   0 0 0 0 1   0 0 0 0 1  0 0 0 1 0"/>
    </filter>
    <linearGradient id="安卓容器-u" x1="54.661%" x2="54.661%" y1="100%" y2="-9.128%">
      <stop offset="0%" stop-opacity=".403"/>
      <stop offset="100%" stop-opacity=".087"/>
    </linearGradient>
  </defs>
  <g fill="none" fill-rule="evenodd" filter="url(#安卓容器-a)" transform="translate(3 4.711)">
    <path fill="url(#安卓容器-b)" fill-rule="nonzero" d="M19.5207973,31.2886289 L102.479203,31.2886289 C103.458859,31.2886289 104.404454,31.6481431 105.136658,32.2989916 L113,39.2886289 L113,39.2886289 L105.287109,39.2886289 L9,39.2886289 L16.8633419,32.2989916 C17.5955464,31.6481431 18.5411406,31.2886289 19.5207973,31.2886289 Z"/>
    <path fill="url(#安卓容器-c)" fill-rule="nonzero" d="M102.479203,30.2886289 L19.5207973,30.2886289 C18.2962265,30.2886289 17.1142337,30.7380217 16.1989781,31.5515823 L8.33563616,38.5412196 C7.64838051,39.1521135 8.0804829,40.2886289 9,40.2886289 L113,40.2886289 C113.919517,40.2886289 114.351619,39.1521135 113.664364,38.5412196 L105.801022,31.5515823 C104.885766,30.7380217 103.703774,30.2886289 102.479203,30.2886289 Z M102.479203,31.2886289 C103.458859,31.2886289 104.404454,31.6481431 105.136658,32.2989916 L113,39.2886289 L9,39.2886289 L16.8633419,32.2989916 C17.5955464,31.6481431 18.5411406,31.2886289 19.5207973,31.2886289 L102.479203,31.2886289 Z"/>
    <g transform="translate(10)">
      <path fill="url(#安卓容器-d)" d="M77.139584,1.430872 C77.712566,0.863981547 78.632438,0.855400594 79.2158958,1.41150329 C79.2258463,1.42098725 79.2356571,1.4306167 79.245325,1.44038852 C79.7911907,1.99211989 79.7864357,2.88189814 79.2347043,3.42776386 L79.2347043,3.42776386 L70.8064945,11.7653719 C80.3916267,17.8838877 86.7980309,28.5421757 86.995311,40.7098399 L87,41.2886289 L87,54.2886289 L15,54.2886289 L15,41.2886289 C15,28.8125526 21.527754,17.861115 31.3541178,11.6634603 L23.0287517,3.42776386 C22.4770203,2.88189814 22.4722652,1.99211989 23.018131,1.44038852 C23.0277989,1.4306167 23.0376097,1.42098725 23.0475602,1.41150329 C23.631018,0.855400594 24.55089,0.863981547 25.123872,1.430872 L33.9602799,10.1720868 C38.7653198,7.69020391 44.2189822,6.28862887 50,6.28862887 L52,6.28862887 C57.8506441,6.28862887 63.3659999,7.72416821 68.2130522,10.2622314 Z"/>
      <path fill="url(#安卓容器-e)" fill-rule="nonzero" d="M68.023,9.043 L67.5746142,8.82301827 C62.7604297,6.50916468 57.4670591,5.28862887 52,5.28862887 L50,5.28862887 L49.3773591,5.29391188 C44.1952246,5.38190409 39.1800747,6.56763035 34.5937226,8.74266028 L34.152,8.956 L25.8271391,0.719946246 C24.913243,-0.184233943 23.4711383,-0.238398092 22.493954,0.566761447 L22.3257501,0.718595408 L22.1856923,0.869320581 C21.3756322,1.81864004 21.4240211,3.24680992 22.3254338,4.13863932 L29.772,11.505 L29.5933418,11.6268688 C19.9292552,18.2833664 14,29.2781799 14,41.2886289 L14,55.2886289 L88,55.2886289 L88,41.2886289 L87.9952782,40.7017387 L87.9834801,40.193175 C87.6358889,28.6809009 81.8465034,18.2148181 72.5897824,11.753939 L72.383,11.611 L79.9379797,4.13868143 L80.0700166,3.99605189 C80.8852748,3.00934791 80.8262514,1.61647073 79.9562005,0.737070621 L79.9058298,0.687630982 C78.9308587,-0.241629108 77.3937319,-0.227290142 76.436266,0.719996531 L68.023,9.043 Z M79.2158958,1.41150329 L79.245325,1.44038852 C79.7570741,1.95763668 79.7848792,2.77199635 79.3317432,3.3215503 L79.2347043,3.42776386 L70.8064945,11.7653719 C80.3916267,17.8838877 86.7980309,28.5421757 86.995311,40.7098399 L87,41.2886289 L87,54.2886289 L15,54.2886289 L15,41.2886289 C15,28.8125526 21.527754,17.861115 31.3541178,11.6634603 L23.0287517,3.42776386 C22.5115035,2.91601474 22.4749962,2.10199876 22.9222328,1.54763315 L23.0327396,1.42583796 L23.0475602,1.41150329 C23.631018,0.855400594 24.55089,0.863981547 25.123872,1.430872 L33.9602799,10.1720868 C38.7653198,7.69020391 44.2189822,6.28862887 50,6.28862887 L52,6.28862887 C57.8506441,6.28862887 63.3659999,7.72416821 68.2130522,10.2622314 L77.139584,1.430872 C77.712566,0.863981547 78.632438,0.855400594 79.2158958,1.41150329 Z"/>
      <polygon fill="url(#安卓容器-f)" points="0 36.299 102 36.299 97.607 40.286 4.394 40.289" filter="url(#安卓容器-g)" opacity=".388" transform="matrix(1 0 0 -1 0 76.587)"/>
      <circle cx="34" cy="24.289" r="4" fill="url(#安卓容器-h)"/>
      <circle cx="68" cy="24.289" r="4" fill="url(#安卓容器-h)"/>
    </g>
    <rect width="110" height="1" x="5" y="40.289" fill="url(#安卓容器-i)" fill-rule="nonzero" opacity=".4"/>
    <polygon fill="url(#安卓容器-j)" points="12.059 36.541 109.955 36.541 113.21 39.348 113.21 42.289 9 42.289 9.054 39.295" filter="url(#安卓容器-k)"/>
    <path fill="url(#安卓容器-l)" fill-rule="nonzero" d="M9,39.2886289 L113,39.2886289 L113,110.288629 C113,112.497768 111.209139,114.288629 109,114.288629 L13,114.288629 C10.790861,114.288629 9,112.497768 9,110.288629 L9,39.2886289 L9,39.2886289 Z"/>
    <path fill="url(#安卓容器-m)" fill-rule="nonzero" d="M113,38.2886289 L9,38.2886289 C8.44771525,38.2886289 8,38.7363441 8,39.2886289 L8,110.288629 C8,113.050053 10.2385763,115.288629 13,115.288629 L109,115.288629 C111.761424,115.288629 114,113.050053 114,110.288629 L114,39.2886289 C114,38.7363441 113.552285,38.2886289 113,38.2886289 Z M113,39.2886289 L113,110.288629 C113,112.497768 111.209139,114.288629 109,114.288629 L13,114.288629 C10.790861,114.288629 9,112.497768 9,110.288629 L9,39.2886289 L113,39.2886289 Z"/>
    <polygon fill="url(#安卓容器-n)" points="9 60.289 114 60.289 114 68.289 9 68.289" filter="url(#安卓容器-o)"/>
    <polygon fill="url(#安卓容器-p)" fill-rule="nonzero" points="10 39.289 112 39.289 112 40.289 10 40.289" opacity=".675"/>
    <path fill="url(#安卓容器-q)" d="M77.1194403,80.4009858 L76.6809553,81.3605283 C77.3296337,79.3352876 76.9559569,77.1297158 77.0470422,75.2226848 L76.8666258,75.1726235 C76.7078144,70.3760948 72.6925517,65.2780124 69.1210265,63.552516 C66.040536,62.0839442 61.3001077,61.8312421 59.1106022,62.9385504 C59.4118772,62.6629289 60.6128959,62.5471323 60.2508982,62.334838 C56.8218381,62.6864507 57.5884561,63.5700058 54.9592969,64.2629789 C54.2388022,64.9824881 57.0635592,63.6864061 55.5437491,64.6182105 C54.1337068,65.0204842 53.4768528,64.3649036 51.3871888,66.5982184 C51.5734434,66.9081972 52.7137371,65.6790789 51.7626149,66.9130407 C49.7984828,66.662148 45.5595971,71.5539683 44.6592715,73.1751259 L45.1298696,73.2583584 C44.3574109,75.2588727 43.3403132,76.5344483 43.2031033,77.7322234 C43.0028373,80.678413 42.0067567,86.0515147 43.3893569,87.7016223 L43.2550674,89.0797273 C43.4442413,89.4711455 43.5884568,89.8685944 43.8237565,90.2370945 L43.5166406,90.2624294 C44.971057,95.0034734 45.0790742,90.3504844 47.0005851,95.2742688 C46.7214946,95.1771678 46.4400704,95.0710207 46.0342829,94.5053032 C45.985238,94.9371307 46.6257408,96.2332127 47.3853531,97.2446271 L47.0636427,97.6239827 C47.4869463,98.419484 47.877555,98.593782 48.1712401,98.8700071 C46.5901254,97.9786118 49.6379198,101.807753 49.9129214,102.295669 L50.155811,101.848161 C50.1201956,102.491679 50.6018848,103.32216 51.5045452,104.471687 L52.2565686,104.440925 C52.5660193,105.074792 53.6987228,106.215871 54.3859382,106.270155 L53.9287697,106.88593 C55.6535155,107.449837 54.7666195,107.633786 56.8860619,108.408781 L56.4580873,107.627755 C57.5394112,108.596951 57.8733837,109.44432 59.399032,110.187351 C61.514972,110.949079 61.7952288,110.64692 63.966052,111.288629 C62.125699,111.235556 59.9624646,111.254855 58.5074651,110.716278 C48.5805323,107.939562 39.4990429,95.9105453 40.162316,83.5202663 C40.009979,81.0119347 40.4040382,77.8775738 40,77.2533563 C40.5669385,75.3439124 41.2249574,73.0171167 42.5474193,70.2476381 C42.4516655,70.0618798 42.7652015,70.7898338 43.4372343,69.6059296 C43.8447749,68.681363 44.1781643,67.6627107 44.6913846,66.7634753 L44.9558782,66.7001504 C45.2203705,65.1121643 48.5408292,62.6786179 49.5287365,61.4537022 L49.5964613,61.921715 C51.7526864,59.8331471 55.5951253,58.433331 57.7583573,57.4357875 C57.1902549,58.0859397 59.031191,57.3718614 60.3571575,57.2886289 C59.9391066,57.5298731 59.523393,57.7186456 59.1316181,58.0027108 C60.7232419,57.6100854 60.6473391,58.1637389 62.2739964,57.9417952 C61.7029737,58.0268336 61.0099153,58.2614411 61.1202732,58.3501008 C62.9378549,58.5672198 63.215778,57.769909 64.8979015,58.3488937 L64.7916434,57.8350445 C67.1288668,58.7059346 67.6181496,58.5581725 70.1579776,59.9501497 C71.0483771,59.9953787 71.1382925,59.382624 72.4841099,59.9489438 C72.72116,60.3783569 72.4303929,60.4585704 74.0850779,61.4748096 C74.2684111,61.3988186 73.7551907,60.9163313 73.349402,60.5321497 C76.6745351,62.3680157 80.288097,66.2821951 81.3910247,70.4707903 C80.357576,68.5058591 81.2847594,71.4731574 80.9291829,71.3181587 C81.3898561,72.5997662 81.7664521,73.9247971 82,75.2920453 C81.6934685,74.1708662 81.0284426,71.4629042 79.8618718,69.7169028 C79.7661168,70.8435115 78.3566587,68.9382888 79.1273644,71.4194809 C79.7135685,72.2988147 79.2458908,70.5280844 79.9698876,72.0901383 C79.9815655,72.8325655 80.2553996,73.5701692 80.4147952,74.5369531 C80.1672346,74.4953393 79.8618718,73.4676398 79.6814578,73.7541167 C79.931935,74.9705888 80.3447307,75.6050631 80.5012084,75.6985415 C80.4212178,75.9023919 80.2121918,75.508562 80.197596,76.3360276 C80.2945196,78.240648 80.7143198,77.4372989 80.914004,77.527772 C80.7119849,78.4656071 79.8998243,79.5680919 80.3015241,81.1814092 C80.1865037,80.6922876 79.9605459,80.200753 79.7906398,79.737565 C79.632996,81.1150665 80.0860791,81.3834502 79.4700969,83.0522547 C79.9138371,81.5480998 79.8659595,80.1898963 79.4473256,80.8436675 C79.632996,82.982293 77.8084073,84.6239582 78.006923,85.9773355 L77.4767685,85.223448 C76.0410356,87.3729303 77.4429061,86.4073522 76.4666765,88.0363511 C76.8251697,87.3964521 76.2786701,87.772791 76.7451816,87.0478537 C76.435149,87.065947 75.3631656,88.4090724 74.3810978,89.1991454 C70.5240644,92.39261 65.9196773,92.810564 61.4612563,91.0910996 C61.2878468,91.2376546 62.2564851,92.0223005 62.9717233,92.401656 C64.6696149,93.0500013 66.589956,93.0759323 68.1021759,93.0180346 C64.8342632,94.4299133 58.5967987,91.585046 56.5561759,87.8107885 C57.0168491,87.9145225 58.5985492,90.4644691 59.7832192,90.8775996 C59.0831611,90.2986136 58.5419143,89.5616147 58.0397863,88.803506 C58.9856532,89.9258923 60.1347067,90.8426188 61.3900231,91.4493465 C61.3106181,91.1345229 61.7368421,91.0711968 61.1436312,90.657464 C57.3642511,87.665438 55.1303703,85.1233329 55.9063301,79.2369844 C56.4820248,78.7870649 56.6361665,76.3318063 57.9580439,75.4723752 C58.7637832,73.6322894 61.179249,71.9381598 63.7605295,71.8947304 C66.3943619,71.7463659 68.6183167,73.3488277 69.7346727,74.8602192 C67.7022255,72.9007176 64.3735913,72.3060514 61.5342399,73.7571333 C58.6312466,75.1074941 56.9100018,78.4095188 57.1610646,81.6970678 C57.2684949,81.5342277 57.3648294,81.6355499 57.4162152,81.2302609 C57.3274684,87.6208076 64.0839928,92.3051586 68.9476183,89.940969 L69.0048351,90.0742568 C70.9777283,89.5175878 70.7231607,89.0592246 72.0129263,88.14491 C71.9125005,88.3590136 71.1441297,88.9071854 71.6024667,88.9174932 C72.2295412,88.7450047 74.1878362,86.8620965 75.1523867,85.9773355 C75.5943751,84.9924569 74.9159209,85.4447894 75.5330705,84.2060029 L76.2880119,83.8182036 C76.7078133,82.5661485 77.1719923,81.8580973 77.1194403,80.4009858 Z" opacity=".696"/>
    <g fill-rule="nonzero">
      <use fill="url(#安卓容器-r)" xlink:href="#安卓容器-s"/>
      <use fill="#000" filter="url(#安卓容器-t)" xlink:href="#安卓容器-s"/>
    </g>
    <path fill="url(#安卓容器-u)" fill-rule="nonzero" d="M112.235455,38.2886289 L9.76454468,38.2886289 C8.50774306,38.2886289 7.38416013,39.0720279 6.94959102,40.2513074 L0.557605071,57.5970812 C0.476006337,57.8185137 0.434240842,58.0526401 0.434240842,58.2886289 C0.434240842,59.3931984 1.32967134,60.2886289 2.43424084,60.2886289 L119.565759,60.2886289 C119.801748,60.2886289 120.035874,60.2468634 120.257307,60.1652646 C121.293744,59.7833334 121.824326,58.6335185 121.442395,57.5970812 L115.050409,40.2513074 C114.61584,39.0720279 113.492257,38.2886289 112.235455,38.2886289 Z M112.235455,39.2886289 C113.073323,39.2886289 113.822378,39.8108949 114.112091,40.5970812 L120.504077,57.942855 C120.695043,58.4610737 120.429752,59.0359811 119.911533,59.2269468 C119.800817,59.2677461 119.683754,59.2886289 119.565759,59.2886289 L2.43424084,59.2886289 C1.88195609,59.2886289 1.43424084,58.8409136 1.43424084,58.2886289 C1.43424084,58.1706345 1.45512359,58.0535713 1.49592296,57.942855 L7.88790891,40.5970812 C8.17762165,39.8108949 8.92667693,39.2886289 9.76454468,39.2886289 L112.235455,39.2886289 Z"/>
  </g>
</svg>
