<svg xmlns="http://www.w3.org/2000/svg" xmlns:xlink="http://www.w3.org/1999/xlink" width="128" height="128" viewBox="0 0 128 128">
  <defs>
    <filter id="org.deepin.browser-a" width="128.4%" height="131.1%" x="-14.2%" y="-15.5%" filterUnits="objectBoundingBox">
      <feOffset dy="2" in="SourceAlpha" result="shadowOffsetOuter1"/>
      <feGaussianBlur in="shadowOffsetOuter1" result="shadowBlurOuter1" stdDeviation="3"/>
      <feColorMatrix in="shadowBlurOuter1" result="shadowMatrixOuter1" values="0 0 0 0 0   0 0 0 0 0   0 0 0 0 0  0 0 0 0.2 0"/>
      <feMerge>
        <feMergeNode in="shadowMatrixOuter1"/>
        <feMergeNode in="SourceGraphic"/>
      </feMerge>
    </filter>
    <radialGradient id="org.deepin.browser-b" cx="43.349%" cy="37.544%" r="81.05%" fx="43.349%" fy="37.544%" gradientTransform="matrix(.15065 .98859 -.97682 .14886 .735 -.109)">
      <stop offset="0%" stop-color="#C6E2FF"/>
      <stop offset="100%" stop-color="#316297"/>
      <stop offset="100%"/>
    </radialGradient>
    <linearGradient id="org.deepin.browser-c" x1="20.306%" x2="84.787%" y1="9.636%" y2="92.198%">
      <stop offset="0%" stop-color="#26609E"/>
      <stop offset="100%" stop-color="#0D3867"/>
    </linearGradient>
    <radialGradient id="org.deepin.browser-d" cx="50%" cy="22.004%" r="84.596%" fx="50%" fy="22.004%" gradientTransform="scale(.98 1) rotate(13.876 .505 .262)">
      <stop offset="0%" stop-color="#779CC6"/>
      <stop offset="50%" stop-color="#1D436F"/>
      <stop offset="100%" stop-color="#15304F"/>
    </radialGradient>
    <linearGradient id="org.deepin.browser-e" x1="50%" x2="50%" y1=".124%" y2="114.522%">
      <stop offset="0%" stop-color="#FFF"/>
      <stop offset="100%" stop-color="#E9ECF2"/>
      <stop offset="100%" stop-color="#B2D0E0"/>
      <stop offset="100%" stop-color="#FFF"/>
    </linearGradient>
    <path id="org.deepin.browser-f" d="M73.5266747,69.6148851 C41.3787244,93.1438893 9.17897494,104.305871 1.60652111,94.545869 C-2.1348215,89.7237187 0.835538886,80.6965502 8.67602301,69.9588945 C8.89015188,69.6656419 9.10791324,69.3711135 9.32926958,69.0753602 C9.36510791,69.0274767 9.41907726,68.9555795 9.49117763,68.8596686 C9.94717445,68.1617644 10.2340851,67.7286275 10.3519097,67.5602578 C10.3582014,67.551267 10.7076238,68.7050291 11.2062883,69.9588945 C11.7049528,71.2127598 12.0547095,72.042277 12.0472804,72.0541628 C11.8457917,72.3765272 11.3513537,73.1302522 11.2062883,73.3779491 C7.12624316,80.3445643 5.97991018,86.0673411 8.59160267,89.4335053 C15.2174997,97.9735069 43.5225857,88.1114028 71.8127818,67.4058794 C100.102978,46.7003559 117.665362,22.9921734 111.039465,14.4521718 C108.495202,11.1729153 102.847466,10.7330964 94.9210125,12.5414458 C94.6571608,12.6016412 93.468475,12.8964895 93.468475,12.8964895 C93.468475,12.8964895 92.4003331,11.9823669 91.2812565,11.0921914 C90.7413731,10.6627382 90.1268696,10.2237678 89.7691461,9.91512127 C89.9895138,9.82534626 91.7343447,9.1904224 91.9439832,9.12099818 C104.49095,4.96592369 114.364385,4.62228951 118.024547,9.33980812 C125.597001,19.09981 105.674625,46.0858812 73.5266747,69.6148851 Z"/>
    <filter id="org.deepin.browser-g" width="103.3%" height="104.3%" x="-1.7%" y="-2.2%" filterUnits="objectBoundingBox">
      <feGaussianBlur in="SourceAlpha" result="shadowBlurInner1" stdDeviation="1.5"/>
      <feOffset dy="1" in="shadowBlurInner1" result="shadowOffsetInner1"/>
      <feComposite in="shadowOffsetInner1" in2="SourceAlpha" k2="-1" k3="1" operator="arithmetic" result="shadowInnerInner1"/>
      <feColorMatrix in="shadowInnerInner1" values="0 0 0 0 1   0 0 0 0 1   0 0 0 0 1  0 0 0 0.5 0"/>
    </filter>
    <linearGradient id="org.deepin.browser-h" x1="50%" x2="50%" y1="0%" y2="100%">
      <stop offset="0%" stop-opacity=".05"/>
      <stop offset="100%" stop-opacity=".07"/>
    </linearGradient>
  </defs>
  <g fill="none" filter="url(#org.deepin.browser-a)" transform="translate(4 12.5)">
    <path fill="url(#org.deepin.browser-b)" d="M65.4240232,101.611632 C93.1074249,98.1823623 112.818739,72.9666947 109.450475,45.2908619 C106.082212,17.615029 80.9098636,-2.04069428 53.2264622,1.3885752 C25.5430606,4.81784468 5.83174667,30.0335123 9.2000102,57.7093452 C12.5682737,85.3851781 37.7406218,105.040901 65.4240232,101.611632 L65.4240232,101.611632 Z"/>
    <path fill="url(#org.deepin.browser-c)" d="M53.1035272,0.396160472 C24.8729774,3.89320772 4.77243473,29.6067955 8.20733488,57.8301579 C11.6424368,86.0551788 37.3147517,106.101299 65.5469581,102.604047 C93.777508,99.1069993 113.878051,73.3934116 110.443151,45.1700492 C107.0424,17.2272785 81.8469562,-2.6993517 53.9497058,0.298290546 L53.1035272,0.396160472 Z M53.2264622,1.3885752 C80.9098636,-2.04069428 106.082212,17.615029 109.450475,45.2908619 C112.818739,72.9666947 93.1074249,98.1823623 65.4240232,101.611632 C37.7406218,105.040901 12.5682737,85.3851781 9.2000102,57.7093452 C5.83174667,30.0335123 25.5430606,4.81784468 53.2264622,1.3885752 Z"/>
    <path fill="url(#org.deepin.browser-d)" d="M48.2182625,2.73177116 L47.1716796,4.32782538 L45.1067979,4.67207243 L43.3530635,5.61092855 L42.4196241,6.11165064 L42.1933362,6.45589768 L40.9770362,6.80014473 L40.1284554,8.58397097 L39.2515877,6.64366871 C39.1385207,6.70754129 39.0247211,6.76664162 38.9121554,6.83144072 L38.7424392,7.3008678 L38.9687272,9.86707315 L37.2715645,11.4005374 L36.2815534,14.1545137 L38.3464342,14.1545137 L39.1101574,12.3393925 L39.3647322,11.6821944 C40.2381372,10.9927551 41.0773721,10.2803388 41.9670474,9.61671211 L44.0319291,10.3990912 C45.3816478,11.4225249 46.6694323,12.3502609 48.0202605,13.3721336 L50.0851413,11.4005374 L47.8505443,10.3990912 L46.8605332,8.0832479 L42.9570594,7.58252483 L42.8721964,7.05050676 L44.5693591,7.3947538 L45.5593702,6.36201266 L47.5676793,5.86128959 C48.0801322,5.58305044 48.5772873,5.39752095 49.0951257,5.1727955 L47.7939681,6.6123737 L52.461165,10.1174352 L52.461165,12.1829175 L50.6225721,14.2483997 L53.083458,19.6311715 L54.6957621,18.5984304 L56.6757852,14.9994839 C59.5572273,14.0051853 62.1618966,12.8638234 64.8787368,11.4944234 L64.8221615,12.0890315 L66.2647494,13.1217726 L68.6407767,11.3379473 L67.4244776,9.80448314 L65.8121726,10.8059293 L65.7273186,10.8059293 L68.0184873,4.32782538 L62.7289975,2.01198205 L56.6757852,2.79436117 L49.6325601,4.92243446 C50.3381772,4.63504915 51.1026925,4.34319552 51.8388766,4.07746434 L50.8771504,1.98068606 C49.9774286,2.20457451 49.0988195,2.45478801 48.2182625,2.73177116 Z M39.223301,12.1313309 L40.8550518,13.7476764 L42.1650485,13.7476764 L42.1650485,11.8727162 L40.5332978,10.8059288 L39.223301,12.1313309 Z M83.9854273,9.82534626 L80.4669339,10.7186731 L78.2432466,12.2671076 L78.2432466,13.6368758 L74.752901,16.0786371 L75.5128956,19.6519464 L77.5676953,18.103512 L78.8625014,19.6519464 L80.3261941,20.5452733 L81.2269285,17.8652918 L80.6921171,16.3168573 L81.2269285,15.1853093 L83.2817283,13.1604345 L84.2106104,13.1604345 L83.2817283,15.4235304 L83.2817283,17.4781827 C84.1319085,17.2312468 85.0293325,17.0874218 85.8994872,16.971964 L83.4506159,18.7586186 L83.2817283,19.919944 L80.4669339,22.331928 L77.7365829,21.7065987 L77.7365829,19.919944 L76.41363,20.8132718 L76.9484405,22.331928 L74.978085,22.331928 L73.8240188,24.3865802 L72.4447694,26.0839027 L69.9396025,26.5901214 L71.4032961,28.1981107 L71.769219,29.7465442 L69.9396025,29.7465442 L67.5751753,31.0567576 L67.5751753,35.1065082 L68.6447973,35.1065082 L69.6299751,36.3273884 L71.9944022,35.1065082 L72.9232844,32.6647468 L74.5840134,31.5331989 L74.978085,30.6398711 L77.7365829,29.9847644 L79.1721288,31.7714191 L80.8610047,32.6647468 L79.9321225,34.6300669 L81.3958161,34.2131804 L82.1558107,32.1883055 L80.3261941,29.9847644 L81.0861887,29.9847644 L82.9158053,31.5331989 L83.2817283,33.7367391 L84.970605,35.7616149 L85.2802324,32.8434122 L86.2654102,32.4265257 C87.1803308,33.4401377 87.8592367,34.6208542 88.6298373,35.7616149 L91.3883379,35.9998351 L93.0490642,37.1611604 L92.3735103,38.2033753 L90.6846344,39.841142 L88.2639144,39.841142 L85.1113449,38.6798166 L83.4506159,38.9478151 L82.2121063,40.3175833 L78.8625014,36.6549417 L76.41363,35.9998351 L72.9232844,36.4167215 L69.7988627,37.3100484 C68.0337388,39.4456934 66.2622198,41.5836116 64.5914934,43.8015604 L62.5366927,48.9530807 L63.4655749,50.0846286 L61.776699,52.7646102 L63.690759,57.4694675 C65.2641837,59.3690242 66.764109,61.2560739 68.3351699,63.1569839 L70.6995971,61.0427759 L71.6847748,62.263657 L74.2180904,60.5663355 L75.0625284,61.6383277 L77.5676953,61.6383277 L78.9469447,63.3356492 L78.1025068,66.4325173 L79.8476791,68.5467253 L79.79138,72.2093668 L81.0861852,74.8893493 L80.1010074,77.1524452 C80.0086818,78.797172 79.9321189,80.3909651 79.9321189,82.035967 C80.6905371,84.2645117 81.439746,86.5508995 82.1558072,88.7954728 L82.6906177,92.3687896 L82.6906177,94.1554433 L83.9854238,94.1554433 L86.0402235,92.7856714 L88.4890949,92.7856714 L92.0638829,88.378591 L91.6135166,87.0088191 L93.9779464,84.7159457 L92.2327714,82.6017414 L94.3438729,80.7257536 L96.426816,79.3559855 L97.3275487,78.2244375 L96.7927425,75.7826761 L96.7927425,69.5293853 L98.4816184,65.6880784 L100.451972,63.246317 L102.675663,57.4694675 L102.675663,55.8614782 C101.613199,56.0042437 100.589969,56.1056374 99.5512395,56.1890315 L101.690482,53.8961582 L104.730465,51.6330622 L106.419341,49.6677421 L106.419341,47.4046462 C106.048939,46.6591657 105.63809,45.9465809 105.265272,45.201106 L103.829724,46.9877606 L102.675663,45.6179925 L101.071227,44.3077791 L101.071227,41.3895764 L102.98529,43.7420046 L105.124533,43.4144513 C106.094011,44.3536431 107.004679,45.1740107 107.85488,46.2433208 L109.825243,43.8908926 C107.707152,31.1555495 101.225253,20.0280057 92.0920325,12.2373293 L91.6135166,13.3986546 L89.7839036,15.691528 L87.3350322,12.9817691 L89.7839036,12.9817691 L90.8535229,11.6120009 L86.4342978,10.7186731 L83.9854273,9.82534626 Z M31.5626698,9.35092352 L31.2007229,11.1671441 C31.2007229,11.1671441 30.0444052,11.244419 29.1960972,11.3160148 C19.4251738,20.0465634 12.8853236,32.7621758 11.7669903,47.1342685 C12.4141041,48.3007916 13.9386681,50.6178391 13.9386681,50.6178391 L17.697341,53.0593162 L21.400331,54.1014097 L22.9873261,56.3940162 L25.4652662,58.3591074 L26.913051,58.091141 L27.9710481,58.6568487 L27.9710481,58.9843639 L26.5232632,63.2122877 L25.4652662,64.9987344 L25.8550549,65.8919573 L24.9362681,69.1671094 L28.1937848,75.5685429 L31.367775,78.6650505 L32.7877189,80.9576569 L32.5649822,85.5726438 L33.7065057,88.1927655 L32.5649822,93.313915 C32.5649822,93.313915 32.6770322,94.0314634 32.7877189,94.6537516 C34.4787793,95.9034748 36.241673,97.0593976 38.0777031,98.0777734 C38.5213004,97.666798 39.3584368,96.7974791 39.3584368,96.7974791 L38.9964899,95.7553912 L40.416433,94.2071332 L40.9454319,92.6588846 L43.2841618,91.765657 L45.0103671,86.8827047 L44.481369,85.5726438 L45.7899437,83.5480009 L48.407094,82.8929705 L49.8548797,79.3200809 L49.465091,74.9432865 L51.581085,71.6085865 L51.9708738,68.2738865 C49.0547442,66.6825865 46.1784846,65.1186265 43.2841618,63.4802541 L41.8642187,60.2944248 L39.2192266,59.6393943 L37.7714408,55.5007933 L34.2355038,55.9176303 L31.2007229,53.4761532 L27.9710481,56.5428868 L27.9710481,57.0490466 C27.0034378,56.7417044 25.7980122,56.7387886 24.9362681,56.1558237 L24.2680589,53.9525391 L24.2680589,51.5110629 L22.1520649,51.6897075 C22.329809,50.1403434 22.5020281,48.5940384 22.6810638,47.0449457 L21.400331,47.0449457 L20.2031238,48.8313924 L18.9223901,49.4864228 L17.1683429,48.4145554 L16.9456071,45.9730783 L17.335395,43.2934078 L19.9525452,41.119898 L22.1520649,41.119898 L22.4583271,39.7205153 L25.1868457,40.4648676 L27.1357877,43.0552153 L27.44205,38.6784209 L30.8387769,35.5819143 L32.0359841,32.2472134 L34.541766,31.1157971 L35.9617091,28.9125134 L39.2192266,28.257483 L40.8062217,25.5778134 L35.9617091,25.5778134 L38.9964899,24.0295592 L41.0846421,24.0295592 L44.1194221,22.9576917 L44.481369,21.5880821 L43.4512138,20.5459885 L42.2261647,20.0398288 L42.532427,18.7297679 L41.6971667,16.7944506 L39.5254889,17.5983517 L39.8874349,15.9012277 L37.4094948,14.3529735 L35.432711,18.1045114 L35.5997631,19.3847983 L33.7065057,20.2780212 L32.425772,23.1363363 L31.8967739,20.5459885 L28.500047,18.9977353 L27.9710481,16.9433212 L32.425772,14.114781 L34.374714,12.0901419 L34.541766,9.64866479 L33.483769,8.99363437 L32.230878,8.84476373 C32.0083724,9.01411904 31.7823946,9.1777157 31.5626698,9.35092352 Z M69.6213592,18.7673247 L70.3321171,19.5377825 L70.3321171,21.242129 L69.9635756,23.5535016 L72.0432001,23.1565992 L73.5436893,21.8258087 L72.2537954,20.6817956 C71.8104933,19.6259603 71.3079505,18.6826925 70.753307,17.6700065 L69.6213592,17.6700065 L69.6213592,18.7673247 Z M64.7184466,20.075209 L65.2397684,22.5729191 L67.6601942,21.684845 L66.6547865,19.6311715 L64.7184466,20.075209 Z M45.7916476,29.4369967 L47.0679612,27.7742697 L45.1067961,26.4952492 L45.7916476,29.4369967 Z M95.2968426,43.5117363 L97.3256284,48.7865925 L98.4752782,50.4349851 L97.8666418,52.3031629 L99.038835,53.8691355 C98.5109283,53.9137237 97.9814275,53.9515598 97.4383384,53.9515598 C96.4947815,51.5134703 95.7675903,49.0844089 95.0488794,46.5337936 L93.8316065,44.802981 L93.1553398,41.8084019 L93.5836432,41.203987 L95.2968426,43.5117363 Z" opacity=".392"/>
    <use fill="url(#org.deepin.browser-e)" xlink:href="#org.deepin.browser-f"/>
    <use fill="#000" filter="url(#org.deepin.browser-g)" xlink:href="#org.deepin.browser-f"/>
    <path fill="url(#org.deepin.browser-h)" d="M91.6296114,8.17169823 L90.2067021,8.68481977 L89.3918652,8.9890224 L87.8792236,9.60525335 L89.2056381,10.7483057 L89.5359265,11.0124182 L90.742945,11.9419012 C91.0557639,12.1916339 91.3780006,12.4536887 91.7007454,12.7198868 L92.5630385,13.4395076 L93.2094691,13.991039 L95.1434385,13.5163954 C96.0476491,13.3101078 96.9155434,13.1349677 97.7467832,12.9908118 L98.5657922,12.8569779 C104.482074,11.9511795 108.421086,12.7087127 110.249382,15.0651708 C116.328277,22.9001519 99.0386765,46.2400924 71.2221719,66.5989222 C43.3860673,86.9720972 15.4889534,96.6920549 9.38168631,88.8205063 C7.41053282,86.2799214 7.8976995,81.8791933 10.8276758,76.1439455 L11.2149843,75.4045771 C11.4152724,75.0313087 11.6255104,74.6526942 11.8456943,74.2688704 L12.125242,73.7907444 L12.8967751,72.581767 L13.0086451,71.7986248 L13.0148973,71.7091438 C13.0143325,71.6919539 13.0112814,71.6857848 13.0062322,71.6857877 L12.9855781,71.6994636 L12.8520024,71.378543 L12.57072,70.7207179 L12.2988989,70.0676578 L12.1546182,69.7100029 L11.9557687,69.1993935 C11.812238,68.8214117 11.6783222,68.4338095 11.5436546,68.0175758 L11.283288,67.2011697 L11.2513657,67.1270812 L11.1901395,67.0189804 L11.1165157,66.9194023 L11.0445306,66.8423278 L10.8165999,66.6775831 L10.4928182,66.5725113 L9.80310096,66.7254595 C9.55398965,67.0033098 9.34772009,67.2778884 9.11535433,67.617235 L8.8195772,68.059894 C8.76672263,68.1403034 8.71172122,68.2243922 8.65402144,68.3127046 L8.52951766,68.4750295 L8.19592986,68.923446 L7.55924662,69.7951405 L6.95661445,70.6408876 L6.37499663,71.4782688 L5.81450703,72.3071071 C5.72285911,72.4445251 5.63209628,72.5815798 5.54222091,72.7182674 L5.01363717,73.5339596 L4.50646636,74.3406664 C4.3409909,74.6080515 4.17910324,74.8739095 4.02082236,75.138211 L3.55681903,75.9264163 C3.48129485,76.0569958 3.40667712,76.1871787 3.3329682,76.3169615 L2.90163941,77.0908261 L2.492236,77.8549091 C-1.42539124,85.3197182 -2.1464086,91.3401082 0.816437467,95.1588681 C8.90671615,105.586285 41.5167822,94.2820682 74.1172846,70.4218423 C106.737276,46.5473525 126.93322,19.1907161 118.814631,8.72680909 C116.593841,5.86447306 112.428288,4.64372522 106.778601,4.94292536 L106.016555,4.99181514 C103.190436,5.20402536 100.014483,5.77822975 96.5425233,6.70021462 L95.5883265,6.96027701 C95.2678416,7.04983157 94.9449507,7.14224968 94.6196943,7.23752064 L93.6368693,7.53188144 L92.6400941,7.84329533 C92.3055376,7.94993502 91.9686966,8.05940621 91.6296114,8.17169823 Z M118.024547,9.33980812 C125.597001,19.09981 105.674625,46.0858812 73.5266747,69.6148851 C41.3787244,93.1438893 9.17897494,104.305871 1.60652111,94.545869 C-1.3673666,90.7128777 -0.100658279,84.223067 4.481774,76.3292321 L4.93555499,75.5609716 L5.40985143,74.7841974 C5.49060011,74.6540396 5.57219583,74.5235376 5.65463473,74.3926966 L6.15935506,73.6036249 L6.68412515,72.8066704 C6.95149159,72.4062645 7.22630684,72.0029971 7.50846611,71.5970101 L8.08254566,70.7814522 C8.17984724,70.6449355 8.27795707,70.5081272 8.37687125,70.3710325 L8.99993599,69.5180651 L9.49117763,68.8596686 L10.1549539,67.8509468 L10.3504245,67.5623806 L10.6206269,68.4124167 L10.7657975,68.8459794 C10.7919063,68.9220409 10.8189034,68.9996382 10.846686,69.0782244 L11.0219854,69.5572324 L11.2255906,70.0800134 L11.5797986,70.9443369 L12.0455762,72.0406402 C12.0480168,72.0474661 12.0490747,72.0512912 12.0486622,72.0519515 L11.2668663,73.277661 L11.2062883,73.3779491 C7.12624316,80.3445643 5.97991018,86.0673411 8.59160267,89.4335053 C15.2174997,97.9735069 43.5225857,88.1114028 71.8127818,67.4058794 C100.102978,46.7003559 117.665362,22.9921734 111.039465,14.4521718 C108.589434,11.2943692 103.261559,10.7695706 95.7923102,12.3497999 L94.7711572,12.5767837 L93.468475,12.8964895 L92.3012293,11.9189599 L91.4334466,11.2136393 L91.0759497,10.9309734 L90.0804068,10.1688569 C89.9640566,10.0775898 89.858577,9.99228289 89.7691461,9.91512127 L90.0598251,9.80472359 L91.9439832,9.12099818 C92.2741665,9.01165412 92.6024984,8.90494955 92.9289142,8.80090727 L93.9023494,8.49679001 C94.3861285,8.34874757 94.8654515,8.2067465 95.3401006,8.07086366 L96.2831026,7.8072784 C96.4392095,7.76471472 96.5947809,7.72283654 96.7498089,7.6816467 L97.6733898,7.44279059 C98.1318548,7.32751537 98.585283,7.2184865 99.0334568,7.11578083 L99.9227341,6.91882321 C101.392971,6.60468801 102.803214,6.36138004 104.145397,6.19174619 L104.942476,6.09882955 L105.722833,6.02373135 C111.511841,5.52765561 115.857346,6.54654052 118.024547,9.33980812 Z"/>
  </g>
</svg>
