<?xml version="1.0" encoding="UTF-8"?>
<svg width="32px" height="32px" viewBox="0 0 32 32" version="1.1" xmlns="http://www.w3.org/2000/svg" xmlns:xlink="http://www.w3.org/1999/xlink">
    <title>mimetypes/32/application-vnd.wolfram.cdf</title>
    <defs>
        <linearGradient x1="50%" y1="0%" x2="50%" y2="99.7939317%" id="linearGradient-1">
            <stop stop-color="#9BA6C1" offset="0%"></stop>
            <stop stop-color="#778EB2" offset="100%"></stop>
        </linearGradient>
        <path d="M15.1847826,0 L22,7 L21.9998546,2.47275678 C21.9999515,2.48182635 22,2.49090751 22,2.5 L22,25.4 C22,26.8359403 20.8359403,28 19.4,28 L2.6,28 C1.16405965,28 -2.68237235e-16,26.8359403 -4.4408921e-16,25.4 L4.4408921e-16,2.6 C2.68237235e-16,1.16405965 1.16405965,-1.80311247e-16 2.6,-4.4408921e-16 L15.1847826,0 Z" id="path-2"></path>
        <filter x="-15.9%" y="-8.9%" width="131.8%" height="125.0%" filterUnits="objectBoundingBox" id="filter-3">
            <feOffset dx="0" dy="1" in="SourceAlpha" result="shadowOffsetOuter1"></feOffset>
            <feGaussianBlur stdDeviation="1" in="shadowOffsetOuter1" result="shadowBlurOuter1"></feGaussianBlur>
            <feColorMatrix values="0 0 0 0 0.474509804   0 0 0 0 0.558835447   0 0 0 0 0.701960784  0 0 0 0.5 0" type="matrix" in="shadowBlurOuter1"></feColorMatrix>
        </filter>
        <linearGradient x1="50%" y1="50%" x2="10.1820093%" y2="88.8926673%" id="linearGradient-4">
            <stop stop-color="#FFFFFF" stop-opacity="0.1" offset="0%"></stop>
            <stop stop-color="#FFFFFF" stop-opacity="0.3" offset="100%"></stop>
        </linearGradient>
        <path d="M15.1847826,0 L22,7 L17.4347826,7 C16.1921419,7 15.1847826,5.99264069 15.1847826,4.75 L15.1847826,0 L15.1847826,0 Z" id="path-5"></path>
        <filter x="-29.3%" y="-14.3%" width="158.7%" height="157.1%" filterUnits="objectBoundingBox" id="filter-6">
            <feOffset dx="0" dy="1" in="SourceAlpha" result="shadowOffsetOuter1"></feOffset>
            <feGaussianBlur stdDeviation="0.5" in="shadowOffsetOuter1" result="shadowBlurOuter1"></feGaussianBlur>
            <feComposite in="shadowBlurOuter1" in2="SourceAlpha" operator="out" result="shadowBlurOuter1"></feComposite>
            <feColorMatrix values="0 0 0 0 0   0 0 0 0 0   0 0 0 0 0  0 0 0 0.05 0" type="matrix" in="shadowBlurOuter1"></feColorMatrix>
        </filter>
    </defs>
    <g id="mimetypes/32/application-vnd.wolfram.cdf" stroke="none" stroke-width="1" fill="none" fill-rule="evenodd">
        <g id="编组-2" transform="translate(5, 2)">
            <g id="蒙版">
                <use fill="black" fill-opacity="1" filter="url(#filter-3)" xlink:href="#path-2"></use>
                <use fill="url(#linearGradient-1)" fill-rule="evenodd" xlink:href="#path-2"></use>
            </g>
            <g id="折角">
                <use fill="black" fill-opacity="1" filter="url(#filter-6)" xlink:href="#path-5"></use>
                <use fill="url(#linearGradient-4)" fill-rule="evenodd" xlink:href="#path-5"></use>
            </g>
        </g>
        <path d="M15.1344867,10.5 C12.2463914,10.5 9.99991043,12.9583329 10,15.8489583 C10,18.739491 12.028849,20.9 14.9168526,20.9 C18.5576097,20.6615497 19.2811069,15.366056 16.1054689,15.9869139 C16.0671503,16.1127309 16.9960433,16.4757291 17.0622211,17.1354167 C17.1922943,18.4320414 16.1786873,19.2130814 14.9126676,18.9669269 C13.9876891,18.7870831 12.8703147,17.9960834 12.6534597,17.2082032 C12.4529551,16.4797261 12.552703,15.6052226 12.765625,15.0246093 C13.7708641,12.2834475 17.3203506,11.557423 18.5714286,11.5917968 C17.5926331,10.8465566 16.516243,10.5014287 15.1344867,10.5 Z M17.0831474,13.1 C13.4423903,13.3384503 12.7188931,18.633944 15.8945311,18.0130861 C15.9328497,17.8872691 15.0039567,17.5242709 14.9377789,16.8645833 C14.8077057,15.5679586 15.8213127,14.786919 17.0873324,15.0330731 C18.0123109,15.2129169 19.1296853,16.0039166 19.3465403,16.7917968 C19.5470449,17.5202739 19.447297,18.3947774 19.234375,18.9753907 C18.2291359,21.7165525 14.6796494,22.442577 13.4285714,22.4082032 C14.4073669,23.1534434 15.483757,23.4985713 16.8655133,23.5 C19.7536086,23.5 22.0000896,21.0416671 22,18.1510417 C22,15.260509 19.971151,13.1 17.0831474,13.1 Z" id="形状" fill="#FFFFFF"></path>
    </g>
</svg>