<?xml version="1.0" encoding="UTF-8"?>
<svg width="32px" height="32px" viewBox="0 0 32 32" version="1.1" xmlns="http://www.w3.org/2000/svg" xmlns:xlink="http://www.w3.org/1999/xlink">
    <title>mimetypes/32/application-x-sharedlib</title>
    <defs>
        <linearGradient x1="50%" y1="0%" x2="50%" y2="100%" id="linearGradient-1">
            <stop stop-color="#52C3CB" offset="0%"></stop>
            <stop stop-color="#1BB8C6" offset="100%"></stop>
        </linearGradient>
        <path d="M15.1847826,0 L22,7 L21.9998546,2.47275678 C21.9999515,2.48182635 22,2.49090751 22,2.5 L22,25.4 C22,26.8359403 20.8359403,28 19.4,28 L2.6,28 C1.16405965,28 -2.68237235e-16,26.8359403 -4.4408921e-16,25.4 L4.4408921e-16,2.6 C2.68237235e-16,1.16405965 1.16405965,-1.80311247e-16 2.6,-4.4408921e-16 L15.1847826,0 Z" id="path-2"></path>
        <filter x="-15.9%" y="-8.9%" width="131.8%" height="125.0%" filterUnits="objectBoundingBox" id="filter-3">
            <feOffset dx="0" dy="1" in="SourceAlpha" result="shadowOffsetOuter1"></feOffset>
            <feGaussianBlur stdDeviation="1" in="shadowOffsetOuter1" result="shadowBlurOuter1"></feGaussianBlur>
            <feColorMatrix values="0 0 0 0 0.262745098   0 0 0 0 0.643801848   0 0 0 0 0.71372549  0 0 0 0.5 0" type="matrix" in="shadowBlurOuter1"></feColorMatrix>
        </filter>
        <linearGradient x1="50%" y1="50%" x2="10.1820093%" y2="88.8926673%" id="linearGradient-4">
            <stop stop-color="#FFFFFF" stop-opacity="0.1" offset="0%"></stop>
            <stop stop-color="#FFFFFF" stop-opacity="0.3" offset="100%"></stop>
        </linearGradient>
        <path d="M15.1847826,0 L22,7 L17.4347826,7 C16.1921419,7 15.1847826,5.99264069 15.1847826,4.75 L15.1847826,0 L15.1847826,0 Z" id="path-5"></path>
        <filter x="-29.3%" y="-14.3%" width="158.7%" height="157.1%" filterUnits="objectBoundingBox" id="filter-6">
            <feOffset dx="0" dy="1" in="SourceAlpha" result="shadowOffsetOuter1"></feOffset>
            <feGaussianBlur stdDeviation="0.5" in="shadowOffsetOuter1" result="shadowBlurOuter1"></feGaussianBlur>
            <feComposite in="shadowBlurOuter1" in2="SourceAlpha" operator="out" result="shadowBlurOuter1"></feComposite>
            <feColorMatrix values="0 0 0 0 0   0 0 0 0 0   0 0 0 0 0  0 0 0 0.05 0" type="matrix" in="shadowBlurOuter1"></feColorMatrix>
        </filter>
    </defs>
    <g id="mimetypes/32/application-x-sharedlib" stroke="none" stroke-width="1" fill="none" fill-rule="evenodd">
        <g id="编组-2" transform="translate(5, 2)">
            <g id="蒙版">
                <use fill="black" fill-opacity="1" filter="url(#filter-3)" xlink:href="#path-2"></use>
                <use fill="url(#linearGradient-1)" fill-rule="evenodd" xlink:href="#path-2"></use>
            </g>
            <g id="折角">
                <use fill="black" fill-opacity="1" filter="url(#filter-6)" xlink:href="#path-5"></use>
                <use fill="url(#linearGradient-4)" fill-rule="evenodd" xlink:href="#path-5"></use>
            </g>
        </g>
        <path d="M16.0166667,13.9933333 C16.5686667,13.9933333 17.0166667,13.7406667 17.0166667,13.4933333 L17.0166667,12.494 C17.0166667,12.2173333 16.5686667,11.9926667 16.0166667,11.9926667 C15.4646667,11.9926667 15.0166667,12.2173333 15.0166667,12.494 L15.0166667,12.4953333 L15.0166667,13.4953333 C15.0173333,13.7426667 15.466,13.9933333 16.0166667,13.9933333 L16.0166667,13.9933333 Z M16.0166667,16.6526667 C16.5686667,16.6526667 17.0166667,16.4 17.0166667,16.1526667 L17.0166667,15.154 C17.0166667,14.8773333 16.5686667,14.6526667 16.0166667,14.6526667 C15.4646667,14.6526667 15.0166667,14.8773333 15.0166667,15.154 L15.0166667,15.1553333 L15.0166667,16.1553333 C15.0173333,16.4026667 15.466,16.6526667 16.0166667,16.6526667 L16.0166667,16.6526667 Z M18.6733333,15.33 C19.2253333,15.33 19.6733333,15.0773333 19.6733333,14.83 L19.6733333,13.8313333 C19.6733333,13.5546667 19.2253333,13.33 18.6733333,13.33 C18.1213333,13.33 17.6733333,13.5546667 17.6733333,13.8313333 L17.6733333,13.8326667 L17.6733333,14.8326667 C17.6733333,15.0793333 18.122,15.33 18.6733333,15.33 L18.6733333,15.33 Z M20.34,14.0673333 L20.34,14.83 C20.34,15.4946667 19.6233333,15.996 18.6733333,15.996 C18.2953333,15.996 17.9573333,15.914 17.684,15.7773333 L17.684,16.1533333 C17.684,16.818 16.9673333,17.3193333 16.0173333,17.3193333 C15.0673333,17.3193333 14.3506667,16.8186667 14.3506667,16.1553333 L14.3506667,15.7546667 C14.0733333,15.8986667 13.728,15.986 13.34,15.986 C12.39,15.986 11.6733333,15.4853333 11.6733333,14.822 L11.6733333,14.076 L11,14.2993333 L11,19.8606667 L16.0053333,22.6446667 L21.0106667,19.8646667 L21.0106667,14.29 L20.34,14.0673333 L20.34,14.0673333 Z M13.34,15.3193333 C13.892,15.3193333 14.34,15.0666667 14.34,14.8193333 L14.34,13.8206667 C14.34,13.544 13.892,13.3193333 13.34,13.3193333 C12.788,13.3193333 12.34,13.544 12.34,13.8206667 L12.34,13.822 L12.34,14.822 C12.34,15.0693333 12.7886667,15.3193333 13.34,15.3193333 L13.34,15.3193333 Z" id="Combined-Shape" fill="#FFFFFF"></path>
    </g>
</svg>