<?xml version="1.0" encoding="UTF-8"?>
<svg width="32px" height="32px" viewBox="0 0 32 32" version="1.1" xmlns="http://www.w3.org/2000/svg" xmlns:xlink="http://www.w3.org/1999/xlink">
    <title>mimetypes/32/application-x-extension-fcstd</title>
    <defs>
        <linearGradient x1="50%" y1="0%" x2="50%" y2="99.7939317%" id="linearGradient-1">
            <stop stop-color="#9BC1AD" offset="0%"></stop>
            <stop stop-color="#77B2B0" offset="100%"></stop>
        </linearGradient>
        <path d="M15.1847826,0 L22,7 L21.9998546,2.47275678 C21.9999515,2.48182635 22,2.49090751 22,2.5 L22,25.4 C22,26.8359403 20.8359403,28 19.4,28 L2.6,28 C1.16405965,28 -2.68237235e-16,26.8359403 -4.4408921e-16,25.4 L4.4408921e-16,2.6 C2.68237235e-16,1.16405965 1.16405965,-1.80311247e-16 2.6,-4.4408921e-16 L15.1847826,0 Z" id="path-2"></path>
        <filter x="-15.9%" y="-8.9%" width="131.8%" height="125.0%" filterUnits="objectBoundingBox" id="filter-3">
            <feOffset dx="0" dy="1" in="SourceAlpha" result="shadowOffsetOuter1"></feOffset>
            <feGaussianBlur stdDeviation="1" in="shadowOffsetOuter1" result="shadowBlurOuter1"></feGaussianBlur>
            <feColorMatrix values="0 0 0 0 0.474509804   0 0 0 0 0.654611925   0 0 0 0 0.701960784  0 0 0 0.5 0" type="matrix" in="shadowBlurOuter1"></feColorMatrix>
        </filter>
        <linearGradient x1="50%" y1="50%" x2="10.1820093%" y2="88.8926673%" id="linearGradient-4">
            <stop stop-color="#FFFFFF" stop-opacity="0.1" offset="0%"></stop>
            <stop stop-color="#FFFFFF" stop-opacity="0.3" offset="100%"></stop>
        </linearGradient>
        <path d="M15.1847826,0 L22,7 L17.4347826,7 C16.1921419,7 15.1847826,5.99264069 15.1847826,4.75 L15.1847826,0 L15.1847826,0 Z" id="path-5"></path>
        <filter x="-29.3%" y="-14.3%" width="158.7%" height="157.1%" filterUnits="objectBoundingBox" id="filter-6">
            <feOffset dx="0" dy="1" in="SourceAlpha" result="shadowOffsetOuter1"></feOffset>
            <feGaussianBlur stdDeviation="0.5" in="shadowOffsetOuter1" result="shadowBlurOuter1"></feGaussianBlur>
            <feComposite in="shadowBlurOuter1" in2="SourceAlpha" operator="out" result="shadowBlurOuter1"></feComposite>
            <feColorMatrix values="0 0 0 0 0   0 0 0 0 0   0 0 0 0 0  0 0 0 0.05 0" type="matrix" in="shadowBlurOuter1"></feColorMatrix>
        </filter>
    </defs>
    <g id="mimetypes/32/application-x-extension-fcstd" stroke="none" stroke-width="1" fill="none" fill-rule="evenodd">
        <g id="编组-2" transform="translate(5, 2)">
            <g id="蒙版">
                <use fill="black" fill-opacity="1" filter="url(#filter-3)" xlink:href="#path-2"></use>
                <use fill="url(#linearGradient-1)" fill-rule="evenodd" xlink:href="#path-2"></use>
            </g>
            <g id="折角">
                <use fill="black" fill-opacity="1" filter="url(#filter-6)" xlink:href="#path-5"></use>
                <use fill="url(#linearGradient-4)" fill-rule="evenodd" xlink:href="#path-5"></use>
            </g>
        </g>
        <path d="M21.5858,17 L21.685443,18.188376 C22.0618095,18.3256193 22.4121201,18.5257971 22.721422,18.780365 L23.796968,18.27483 L24.922334,20.223706 L23.946431,20.900685 C23.9804341,21.0981558 23.9975892,21.298159 23.997711,21.498535 C23.9965354,21.6985055 23.9783971,21.898016 23.943491,22.094921 L24.92086,22.77483 L23.795493,24.723706 L22.718483,24.216705 C22.4104948,24.4730652 22.061171,24.6752271 21.685432,24.814556 L21.585792,26 L19.335059,26 L19.236893,24.811625 C18.8604247,24.673935 18.5101069,24.4732579 18.200911,24.21817 L17.125366,24.723706 L16,22.77483 L16.975904,22.096386 C16.9418975,21.8989151 16.9247391,21.6989116 16.924614,21.498535 C16.9257896,21.2985648 16.943928,21.0990546 16.978834,20.90215 L16,20.223706 L17.125367,18.273365 L18.203843,18.78183 C18.5118313,18.5254701 18.861155,18.3233086 19.236894,18.18398 L19.336534,17 L21.5858,17 Z M18,10 L18,12 L11,12 L11,16 L15,16 L15,18 L11,18 L11,25 L9,25 L9,10 L18,10 Z M20.5,20 C19.6715729,20 19,20.671573 19,21.5 C19,22.328427 19.6715729,23 20.5,23 C21.3284271,23 22,22.328427 22,21.5 C22,20.671573 21.3284271,20 20.5,20 Z" id="形状结合" fill="#FFFFFF"></path>
    </g>
</svg>