<svg xmlns="http://www.w3.org/2000/svg" xmlns:xlink="http://www.w3.org/1999/xlink" width="32" height="32" viewBox="0 0 32 32">
  <defs>
    <linearGradient id="application-vnd.nokia.qt.qmakeprofile-c" x1="50%" x2="50%" y1="0%" y2="98.501%">
      <stop offset="0%" stop-color="#7FCB10"/>
      <stop offset="100%" stop-color="#50A100"/>
    </linearGradient>
    <path id="application-vnd.nokia.qt.qmakeprofile-b" d="M15,0 L22,7 L22,22 C22,24.209139 20.209139,26 18,26 L4,26 C1.790861,26 2.705415e-16,24.209139 0,22 L0,4 C-2.705415e-16,1.790861 1.790861,4.05812251e-16 4,0 L15,0 Z"/>
    <filter id="application-vnd.nokia.qt.qmakeprofile-a" width="131.8%" height="126.9%" x="-15.9%" y="-9.6%" filterUnits="objectBoundingBox">
      <feOffset dy="1" in="SourceAlpha" result="shadowOffsetOuter1"/>
      <feGaussianBlur in="shadowOffsetOuter1" result="shadowBlurOuter1" stdDeviation="1"/>
      <feColorMatrix in="shadowBlurOuter1" values="0 0 0 0 0.46370117   0 0 0 0 0.679376132   0 0 0 0 0  0 0 0 0.5 0"/>
    </filter>
    <linearGradient id="application-vnd.nokia.qt.qmakeprofile-f" x1="50%" x2="10.489%" y1="50%" y2="91.194%">
      <stop offset="0%" stop-color="#FFF" stop-opacity=".1"/>
      <stop offset="100%" stop-color="#FFF" stop-opacity=".3"/>
    </linearGradient>
    <path id="application-vnd.nokia.qt.qmakeprofile-e" d="M15,0 L22,7 L17.25,7 C16.0073593,7 15,5.99264069 15,4.75 L15,0 Z"/>
    <filter id="application-vnd.nokia.qt.qmakeprofile-d" width="157.1%" height="157.1%" x="-28.6%" y="-14.3%" filterUnits="objectBoundingBox">
      <feOffset dy="1" in="SourceAlpha" result="shadowOffsetOuter1"/>
      <feGaussianBlur in="shadowOffsetOuter1" result="shadowBlurOuter1" stdDeviation=".5"/>
      <feComposite in="shadowBlurOuter1" in2="SourceAlpha" operator="out" result="shadowBlurOuter1"/>
      <feColorMatrix in="shadowBlurOuter1" values="0 0 0 0 0   0 0 0 0 0   0 0 0 0 0  0 0 0 0.05 0"/>
    </filter>
  </defs>
  <g fill="none" fill-rule="evenodd">
    <g transform="translate(5 3)">
      <use fill="#000" filter="url(#application-vnd.nokia.qt.qmakeprofile-a)" xlink:href="#application-vnd.nokia.qt.qmakeprofile-b"/>
      <use fill="url(#application-vnd.nokia.qt.qmakeprofile-c)" xlink:href="#application-vnd.nokia.qt.qmakeprofile-b"/>
      <use fill="#000" filter="url(#application-vnd.nokia.qt.qmakeprofile-d)" xlink:href="#application-vnd.nokia.qt.qmakeprofile-e"/>
      <use fill="url(#application-vnd.nokia.qt.qmakeprofile-f)" xlink:href="#application-vnd.nokia.qt.qmakeprofile-e"/>
    </g>
    <path fill="#FFF" d="M15 28.5L15.767799 28.5 15.767799 26.3785708C15.767799 26.3785708 16.1785714 26.9285714 16.9642857 26.9285714 17.75 26.9285714 18.9285714 26.5357143 18.9285714 25.0113865 18.9285714 24.4145985 18.7565293 23.930176 18.4124399 23.5581045 18.0683505 23.186033 17.6005665 23 17.009074 23 16.4346437 23 16.0550141 23.2331681 15.767799 23.6285708L15.767799 23 15 23 15 28.5zM16.9765625 26.1428571C16.7555793 26.1428571 16.5523323 26.0983561 16.3668155 26.0093527 16.1812987 25.9203493 16.0380709 25.7868462 15.937128 25.6088394 15.836185 25.4308326 15.7857143 25.2107199 15.7857143 24.9484949 15.7857143 24.5752548 15.8941581 24.2881513 16.1110491 24.0871759 16.3279401 23.8862005 16.6055291 23.7857143 16.9438244 23.7857143 17.2957607 23.7857143 17.5835802 23.8976846 17.8072917 24.1216287 18.0310031 24.3455727 18.1428571 24.6355472 18.1428571 24.9915608 18.1428571 25.368629 18.0350953 25.6547754 17.8195685 25.8500087 17.6040416 26.045242 17.3230424 26.1428571 16.9765625 26.1428571zM22.3571429 23.2063858L22.1043005 23.8074391C21.9221444 23.7132978 21.7440691 23.6662278 21.5700692 23.6662278 21.2954756 23.6662278 21.0874945 23.7754543 20.9461196 23.9939105 20.8047447 24.2123667 20.7340583 24.5183215 20.7340583 24.9117841L20.7340583 26.9285714 20 26.9285714 20 23 20.6688087 23 20.6688087 23.6662278 20.6851211 23.6662278C20.9189334 23.2220737 21.224788 23 21.602694 23 21.8528188 23 22.1042993 23.0687946 22.3571429 23.2063858zM24.0357143 26.9285714C22.9508692 26.9285714 22.0714286 26.0491308 22.0714286 24.9642857 22.0714286 23.8794407 22.9508692 23 24.0357143 23 25.1205593 23 26 23.8794407 26 24.9642857 26 26.0491308 25.1205593 26.9285714 24.0357143 26.9285714zM24.0357143 26.1428571C24.6866213 26.1428571 25.2142857 25.6151927 25.2142857 24.9642857 25.2142857 24.3133787 24.6866213 23.7857143 24.0357143 23.7857143 23.3848073 23.7857143 22.8571429 24.3133787 22.8571429 24.9642857 22.8571429 25.6151927 23.3848073 26.1428571 24.0357143 26.1428571zM16.75 20.9228516C16.3328352 21.0458991 15.9204716 21.1074219 15.5128968 21.1074219 14.4579974 21.1074219 13.7747205 20.5605523 13.4630456 19.4667969 13.2760407 19.4986981 13.1178082 19.5146484 12.9883433 19.5146484 11.8567238 19.5146484 10.9924385 19.0874066 10.3954613 18.2329102 9.79848412 17.3784137 9.5 16.1377034 9.5 14.5107422 9.5 12.8837809 9.79728539 11.6419314 10.3918651 10.7851562 10.9864448 9.92838113 11.8519288 9.5 12.9883433 9.5 14.1247577 9.5 14.9914405 9.92724182 15.5884177 10.7817383 16.1853948 11.6362347 16.483879 12.8792236 16.483879 14.5107422 16.483879 16.8805457 15.8605386 18.4208949 14.6138393 19.1318359 14.7912542 19.7972038 15.1292964 20.1298828 15.6279762 20.1298828 15.906086 20.1298828 16.2105638 20.0957035 16.5414187 20.0273438L16.75 20.9228516zM12.9967897 18.5C12.3418908 18.5 11.8453735 18.1590235 11.5072231 17.4770603 11.1690727 16.7950971 11 15.8038864 11 14.5033985 11 13.2165045 11.1701428 12.2275594 11.5104334 11.5365336 11.850724 10.8455077 12.3461712 10.5 12.9967897 10.5 14.3322699 10.5 15 11.8344528 15 14.5033985 15 17.1678128 14.3322699 18.5 12.9967897 18.5zM21 19.5L20 19.5C19.4622369 19.5 18 19.25 18 17.25L18 12.9999725 17 12.9999725 17 12 18 12 18 10.25 19.5121898 9.49997252 19.5121898 12 21 12 21 12.9999725 19.5121898 12.9999725 19.5121898 17.2450897C19.5121898 17.6096749 19.5121898 18.2499725 20.1957836 18.2499725 20.3735189 18.2499725 20.5558087 18.2317435 20.7426586 18.195285L21 19.5z"/>
  </g>
</svg>
