<?xml version="1.0" encoding="UTF-8"?>
<svg width="32px" height="32px" viewBox="0 0 32 32" version="1.1" xmlns="http://www.w3.org/2000/svg" xmlns:xlink="http://www.w3.org/1999/xlink">
    <title>mimetypes/32/application-sweethome3d</title>
    <defs>
        <linearGradient x1="50%" y1="0%" x2="50%" y2="99.7939317%" id="linearGradient-1">
            <stop stop-color="#9BBBC1" offset="0%"></stop>
            <stop stop-color="#77ACB2" offset="100%"></stop>
        </linearGradient>
        <path d="M15.1847826,0 L22,7 L21.9998546,2.47275678 C21.9999515,2.48182635 22,2.49090751 22,2.5 L22,25.4 C22,26.8359403 20.8359403,28 19.4,28 L2.6,28 C1.16405965,28 -2.68237235e-16,26.8359403 -4.4408921e-16,25.4 L4.4408921e-16,2.6 C2.68237235e-16,1.16405965 1.16405965,-1.80311247e-16 2.6,-4.4408921e-16 L15.1847826,0 Z" id="path-2"></path>
        <filter x="-15.9%" y="-8.9%" width="131.8%" height="125.0%" filterUnits="objectBoundingBox" id="filter-3">
            <feOffset dx="0" dy="1" in="SourceAlpha" result="shadowOffsetOuter1"></feOffset>
            <feGaussianBlur stdDeviation="1" in="shadowOffsetOuter1" result="shadowBlurOuter1"></feGaussianBlur>
            <feColorMatrix values="0 0 0 0 0.474509804   0 0 0 0 0.701960784   0 0 0 0 0.536342292  0 0 0 0.5 0" type="matrix" in="shadowBlurOuter1"></feColorMatrix>
        </filter>
        <linearGradient x1="50%" y1="50%" x2="10.1820093%" y2="88.8926673%" id="linearGradient-4">
            <stop stop-color="#FFFFFF" stop-opacity="0.1" offset="0%"></stop>
            <stop stop-color="#FFFFFF" stop-opacity="0.3" offset="100%"></stop>
        </linearGradient>
        <path d="M15.1847826,0 L22,7 L17.4347826,7 C16.1921419,7 15.1847826,5.99264069 15.1847826,4.75 L15.1847826,0 L15.1847826,0 Z" id="path-5"></path>
        <filter x="-29.3%" y="-14.3%" width="158.7%" height="157.1%" filterUnits="objectBoundingBox" id="filter-6">
            <feOffset dx="0" dy="1" in="SourceAlpha" result="shadowOffsetOuter1"></feOffset>
            <feGaussianBlur stdDeviation="0.5" in="shadowOffsetOuter1" result="shadowBlurOuter1"></feGaussianBlur>
            <feComposite in="shadowBlurOuter1" in2="SourceAlpha" operator="out" result="shadowBlurOuter1"></feComposite>
            <feColorMatrix values="0 0 0 0 0   0 0 0 0 0   0 0 0 0 0  0 0 0 0.05 0" type="matrix" in="shadowBlurOuter1"></feColorMatrix>
        </filter>
    </defs>
    <g id="mimetypes/32/application-sweethome3d" stroke="none" stroke-width="1" fill="none" fill-rule="evenodd">
        <g id="编组-2" transform="translate(5, 2)">
            <g id="蒙版">
                <use fill="black" fill-opacity="1" filter="url(#filter-3)" xlink:href="#path-2"></use>
                <use fill="url(#linearGradient-1)" fill-rule="evenodd" xlink:href="#path-2"></use>
            </g>
            <g id="折角">
                <use fill="black" fill-opacity="1" filter="url(#filter-6)" xlink:href="#path-5"></use>
                <use fill="url(#linearGradient-4)" fill-rule="evenodd" xlink:href="#path-5"></use>
            </g>
        </g>
        <g id="编组" transform="translate(10, 9.6711)" fill="#FFFFFF" fill-rule="nonzero">
            <path d="M6.55872881,0 C6.88783703,0.00793447476 7.21179204,0.0817931242 7.55664128,0.238710415 L7.75417586,0.343350116 L11.7694198,2.8111508 C12.4591985,3.2094441 12.912496,3.91613252 12.9921197,4.75458142 L13,4.94358789 L13,9.38698738 C12.9990758,9.88029255 12.8499496,10.3614324 12.5435111,10.808931 L12.4552472,10.9254775 L12.3880372,11.0052169 L12.2307404,11.1707547 C12.138234,11.2587246 12.0390146,11.3393741 11.9015036,11.4334891 L7.73102509,13.9990874 C7.04866365,14.3931021 6.22020448,14.436009 5.45445271,14.0949173 L5.24548631,13.984975 L1.10736616,11.4398546 C0.985333317,11.3587859 0.864623624,11.2614947 0.729136621,11.1315201 L0.57321407,10.9631415 C0.257349071,10.584935 0.0622534595,10.1212416 0.00878334184,9.58221768 L0,9.38511744 L0,4.94358789 C0,4.14757858 0.384844144,3.40204299 1.07043505,2.91371653 L1.18936247,2.83716202 L5.27164168,0.327148658 C5.42497995,0.239153008 5.58717723,0.168029891 5.75119048,0.116230527 L5.86552389,0.0834372008 L6.08939048,0.0342753333 L6.20460539,0.0175776726 L6.33886741,0.00607817987 L6.46086741,0.00130034429 Z M6.5346268,0.999709504 L6.378,1.00531221 L6.30296536,1.01272857 C6.2677913,1.01752768 6.23282817,1.02360339 6.1981024,1.03142197 L6.11851798,1.05013415 L6.05662805,1.06844263 C5.95704153,1.09990072 5.8607057,1.14206718 5.76937358,1.1944796 L1.732,3.67631221 L1.6116987,3.75456947 C1.23015111,4.02713446 1,4.46898143 1,4.94358789 L1,9.38511744 L1.00747461,9.53107324 C1.03690726,9.82096438 1.15249143,10.0967208 1.3407433,10.3221275 L1.45774268,10.4465871 C1.54038851,10.5247938 1.63202917,10.5932175 1.7308788,10.6503558 L5.76921712,13.1330912 L5.90783342,13.2036003 C6.3318717,13.3916246 6.82394496,13.3681215 7.2309745,13.1330912 L11.269313,10.6503558 L11.3654253,10.5893209 C11.4278073,10.546207 11.4867159,10.4983194 11.5416248,10.4461032 L11.6580599,10.3217455 L11.7463238,10.2051989 C11.910453,9.96432684 11.9994508,9.67880674 12,9.38511744 L12,4.94358789 L11.993256,4.80223887 C11.9482535,4.33525563 11.6806563,3.91463317 11.2693733,3.67714933 L7.23062613,1.19534524 L7.10034584,1.12853875 C6.92272834,1.04842644 6.73040629,1.00442955 6.5346268,0.999709504 Z M6.46243841,11.3470264 C6.4493827,11.345884 6.43630774,11.3442094 6.4232409,11.3419875 C6.41805948,11.3402727 6.41506676,11.339728 6.41207809,11.3391558 C6.40712953,11.3386338 6.40182966,11.3375089 6.39655276,11.3362994 C6.3810738,11.3331345 6.36606078,11.3289456 6.35112581,11.3239909 C6.34429647,11.3213662 6.33769183,11.3190306 6.33114065,11.3165606 C6.29762327,11.3038502 6.26834553,11.2891815 6.23980581,11.2712147 L6.28098173,11.2945012 C6.27226856,11.2900969 6.26368268,11.2854434 6.25523645,11.2805475 L6.23980581,11.2712147 L3.23980581,9.38260359 C3.09440323,9.29106728 3.00618439,9.1312857 3.00618439,8.9594695 L3.00618439,5.30975027 C3.00618439,5.21687821 3.03041857,5.13245131 3.07186312,5.06048453 C3.07587335,5.05504756 3.07916986,5.04955852 3.08257086,5.04413405 C3.09422317,5.02425568 3.10793598,5.00557846 3.1228105,4.9880006 C3.12574894,4.98526169 3.12837098,4.98221165 3.1310309,4.97919212 C3.14644963,4.96118822 3.16328035,4.9447634 3.18113194,4.92960295 C3.20569935,4.90875665 3.23290918,4.88969615 3.26218158,4.87332994 L3.20005774,4.91429663 C3.21758172,4.90080586 3.23596594,4.88847443 3.25506885,4.87738325 L6.26218158,3.19602951 C6.4138054,3.1112566 6.59856309,3.1112566 6.75018691,3.19602951 L9.75018691,4.87332994 C9.75623918,4.87671377 9.76220327,4.88021277 9.76807708,4.88382333 C9.7811946,4.89187499 9.79389447,4.90048442 9.80618824,4.90965629 C9.8160239,4.9171122 9.82564413,4.92489984 9.83493689,4.93300837 C9.85153865,4.94716696 9.86706067,4.96247217 9.88156138,4.97878162 C9.88393892,4.9821435 9.88659068,4.98522728 9.88920325,4.98834148 C9.93946659,5.04697946 9.97629641,5.11833477 9.99414712,5.19869361 C10.0019539,5.23508123 10.0061842,5.27210999 10.0061842,5.30975027 L9.99895253,5.22321759 L10.0061844,5.30975027 L10.0061844,8.9594695 C10.0061844,9.1312857 9.91796551,9.29106728 9.77256294,9.38260359 L6.77256294,11.2712147 C6.7670244,11.2747014 6.76145808,11.2780639 6.75586642,11.2813035 C6.74726751,11.2862367 6.73827598,11.2910682 6.72914654,11.2956269 C6.71575981,11.3025029 6.70235992,11.3085272 6.6888739,11.3139057 C6.6790234,11.3174948 6.66942856,11.3209524 6.65973087,11.3241194 C6.64826806,11.3282511 6.63678239,11.3315565 6.62527068,11.3344238 L6.61473016,11.336547 C6.61009197,11.3375992 6.60543617,11.3385862 6.60076416,11.3395071 C6.56782152,11.3458349 6.54202821,11.3483264 6.51640078,11.3488009 C6.50953584,11.3481139 6.50283265,11.3481139 6.49613156,11.3479793 Z M4.006,6.18431221 L4.006,8.68331221 L6.006,9.941 L6.006,7.36131221 L4.006,6.18431221 Z M9.006,6.18331221 L7.006,7.36131221 L7.006,9.94131221 L9.006,8.68331221 L9.006,6.18331221 Z M6.506,4.20431221 L4.51,5.32 L6.506,6.496 L8.502,5.32 L6.506,4.20431221 Z" id="形状结合"></path>
        </g>
    </g>
</svg>