<?xml version="1.0" encoding="UTF-8"?>
<svg width="32px" height="32px" viewBox="0 0 32 32" version="1.1" xmlns="http://www.w3.org/2000/svg" xmlns:xlink="http://www.w3.org/1999/xlink">
    <title>mimetypes/32/application-x-gettext-translation</title>
    <defs>
        <linearGradient x1="50%" y1="0%" x2="50%" y2="99.7939317%" id="linearGradient-1">
            <stop stop-color="#9BA6C1" offset="0%"></stop>
            <stop stop-color="#778EB2" offset="100%"></stop>
        </linearGradient>
        <path d="M15.1847826,0 L22,7 L21.9998546,2.47275678 C21.9999515,2.48182635 22,2.49090751 22,2.5 L22,25.4 C22,26.8359403 20.8359403,28 19.4,28 L2.6,28 C1.16405965,28 -2.68237235e-16,26.8359403 -4.4408921e-16,25.4 L4.4408921e-16,2.6 C2.68237235e-16,1.16405965 1.16405965,-1.80311247e-16 2.6,-4.4408921e-16 L15.1847826,0 Z" id="path-2"></path>
        <filter x="-15.9%" y="-8.9%" width="131.8%" height="125.0%" filterUnits="objectBoundingBox" id="filter-3">
            <feOffset dx="0" dy="1" in="SourceAlpha" result="shadowOffsetOuter1"></feOffset>
            <feGaussianBlur stdDeviation="1" in="shadowOffsetOuter1" result="shadowBlurOuter1"></feGaussianBlur>
            <feColorMatrix values="0 0 0 0 0.474509804   0 0 0 0 0.558835447   0 0 0 0 0.701960784  0 0 0 0.5 0" type="matrix" in="shadowBlurOuter1"></feColorMatrix>
        </filter>
        <linearGradient x1="50%" y1="50%" x2="10.1820093%" y2="88.8926673%" id="linearGradient-4">
            <stop stop-color="#FFFFFF" stop-opacity="0.1" offset="0%"></stop>
            <stop stop-color="#FFFFFF" stop-opacity="0.3" offset="100%"></stop>
        </linearGradient>
        <path d="M15.1847826,0 L22,7 L17.4347826,7 C16.1921419,7 15.1847826,5.99264069 15.1847826,4.75 L15.1847826,0 L15.1847826,0 Z" id="path-5"></path>
        <filter x="-29.3%" y="-14.3%" width="158.7%" height="157.1%" filterUnits="objectBoundingBox" id="filter-6">
            <feOffset dx="0" dy="1" in="SourceAlpha" result="shadowOffsetOuter1"></feOffset>
            <feGaussianBlur stdDeviation="0.5" in="shadowOffsetOuter1" result="shadowBlurOuter1"></feGaussianBlur>
            <feComposite in="shadowBlurOuter1" in2="SourceAlpha" operator="out" result="shadowBlurOuter1"></feComposite>
            <feColorMatrix values="0 0 0 0 0   0 0 0 0 0   0 0 0 0 0  0 0 0 0.05 0" type="matrix" in="shadowBlurOuter1"></feColorMatrix>
        </filter>
    </defs>
    <g id="mimetypes/32/application-x-gettext-translation" stroke="none" stroke-width="1" fill="none" fill-rule="evenodd">
        <g id="编组-2" transform="translate(5, 2)">
            <g id="蒙版">
                <use fill="black" fill-opacity="1" filter="url(#filter-3)" xlink:href="#path-2"></use>
                <use fill="url(#linearGradient-1)" fill-rule="evenodd" xlink:href="#path-2"></use>
            </g>
            <g id="折角">
                <use fill="black" fill-opacity="1" filter="url(#filter-6)" xlink:href="#path-5"></use>
                <use fill="url(#linearGradient-4)" fill-rule="evenodd" xlink:href="#path-5"></use>
            </g>
        </g>
        <path d="M11.7315,11 C11.26,11.2895 10.312,11.6955 9.531,11.922 L9.5555,11.9905 C9.927,11.9535 10.324,11.901 10.6965,11.838 L10.6965,12.7875 L9.537,12.7875 L9.5685,12.892 L10.5165,12.892 C10.3305,13.656 9.9895,14.4685 9.5,15.059 L9.574,15.128 C10.0335,14.7955 10.4045,14.411 10.6955,13.973 L10.6955,15.9455 L10.8135,15.9455 C11.1295,15.9455 11.3345,15.824 11.34,15.7865 L11.34,13.5605 C11.5755,13.773 11.798,14.11 11.842,14.374 C11.922,14.442 12.0095,14.475 12.09,14.475 C12.257,14.475 12.3995,14.3535 12.3995,14.185 C12.3995,13.9565 12.139,13.657 11.34,13.4775 L11.34,12.893 L12.208,12.893 C12.3755,12.893 12.456,12.866 12.499,12.798 L11.8985,12.392 L11.575,12.7865 L11.34,12.7865 L11.34,11.711 C11.619,11.6475 11.879,11.585 12.09,11.5215 C12.17,11.543 12.2395,11.554 12.301,11.554 C12.376,11.554 12.437,11.5375 12.4745,11.506 L11.7315,11 L11.7315,11 Z M14.587,11.7325 L14.3145,12.044 L13.2375,12.044 L12.548,11.79 L12.548,15.839 C13.1305,15.839 13.205,15.6285 13.205,15.6175 L13.205,15.2325 L14.376,15.2325 L14.376,15.7385 C14.8665,15.7385 15.039,15.5965 15.039,15.586 L15.039,12.296 C15.169,12.27 15.2685,12.228 15.3055,12.18 L14.587,11.7325 L14.587,11.7325 Z M13.205,12.1495 L14.376,12.1495 L14.376,15.128 L13.205,15.128 L13.205,12.1495 Z M20.161,16.9075 C19.476,16.9075 18.9785,17.0675 18.669,17.387 C18.412,17.651 18.268,18.0545 18.2245,18.584 L17.048,18.584 L17.048,17.5805 C17.048,17.449 17.0685,17.355 17.1085,17.298 C17.148,17.2415 17.212,17.2105 17.302,17.2045 L17.4845,17.1935 C17.552,17.1875 17.586,17.154 17.586,17.093 C17.586,17.048 17.581,17.0195 17.5705,17.009 C17.559,16.9985 17.531,16.9925 17.4855,16.9925 C17.4745,16.9925 17.4425,16.9935 17.3905,16.9975 C17.187,17.0065 16.991,17.011 16.802,17.011 C16.604,17.011 16.399,17.0065 16.1905,16.9975 C16.1405,16.9935 16.1105,16.9925 16.1015,16.9925 C16.0575,16.9925 16.0295,16.999 16.0175,17.009 C16.006,17.0195 16,17.0475 16,17.093 C16,17.1545 16.0355,17.188 16.1075,17.1935 L16.2785,17.2045 C16.373,17.21 16.439,17.24 16.4785,17.296 C16.518,17.3525 16.538,17.447 16.538,17.5805 L16.538,20.2715 C16.538,20.403 16.5185,20.498 16.4795,20.555 C16.441,20.6115 16.3765,20.641 16.285,20.6475 L16.1075,20.6585 C16.103,20.66 16.098,20.6615 16.091,20.6615 C16.0305,20.665 16,20.695 16,20.753 C16,20.801 16.007,20.83 16.0195,20.841 C16.032,20.853 16.06,20.8585 16.1015,20.8585 C16.1125,20.8585 16.141,20.8575 16.1865,20.8555 C16.3985,20.8455 16.603,20.84 16.801,20.84 C16.99,20.84 17.1865,20.8445 17.3905,20.8535 C17.4405,20.857 17.471,20.8585 17.4845,20.8585 C17.5285,20.8585 17.5565,20.853 17.5685,20.841 C17.58,20.83 17.586,20.8005 17.586,20.753 C17.586,20.695 17.558,20.665 17.501,20.6615 C17.4935,20.66 17.4895,20.6585 17.4855,20.6585 L17.3085,20.6475 C17.214,20.6415 17.148,20.6115 17.1085,20.556 C17.0685,20.5005 17.048,20.405 17.048,20.2715 L17.048,19.1605 L18.217,19.1605 C18.2465,19.745 18.3805,20.1865 18.633,20.468 C18.9185,20.7865 19.3805,20.9455 20.0155,20.9455 C20.707,20.9455 21.212,20.785 21.5295,20.464 C21.8465,20.1425 22.006,19.63 22.006,18.927 C22.006,18.215 21.861,17.7005 21.5705,17.383 C21.2805,17.0645 20.8105,16.9075 20.161,16.9075 L20.161,16.9075 Z M20.1005,17.099 C20.575,17.099 20.9165,17.241 21.127,17.5255 C21.336,17.8095 21.4405,18.2775 21.4405,18.926 C21.4405,19.5695 21.3355,20.034 21.125,20.3185 C20.914,20.6035 20.5735,20.7455 20.1005,20.7455 C19.6275,20.7455 19.285,20.6035 19.074,20.3185 C18.8645,20.034 18.76,19.5665 18.76,18.917 C18.76,18.281 18.866,17.818 19.079,17.5305 C19.2925,17.243 19.6325,17.099 20.1005,17.099 L20.1005,17.099 Z" id="形状" fill-opacity="0.991743608" fill="#FFFFFF"></path>
    </g>
</svg>