<svg xmlns="http://www.w3.org/2000/svg" xmlns:xlink="http://www.w3.org/1999/xlink" width="32" height="32" viewBox="0 0 32 32">
  <defs>
    <linearGradient id="application-x-deepinclone-dim-c" x1="50%" x2="50%" y1="0%" y2="100%">
      <stop offset="0%" stop-color="#327DFF"/>
      <stop offset="100%" stop-color="#1066FF"/>
    </linearGradient>
    <path id="application-x-deepinclone-dim-b" d="M21,23.75 C21,24.9926407 19.9926407,26 18.75,26 L2.25,26 C1.00735931,26 1.52179594e-16,24.9926407 0,23.75 L0,2.25 C-1.52179594e-16,1.00735931 1.00735931,2.28269391e-16 2.25,0 L14.5,0 L21,6.5 L21,23.75 Z"/>
    <filter id="application-x-deepinclone-dim-a" width="133.3%" height="126.9%" x="-16.7%" y="-9.6%" filterUnits="objectBoundingBox">
      <feOffset dy="1" in="SourceAlpha" result="shadowOffsetOuter1"/>
      <feGaussianBlur in="shadowOffsetOuter1" result="shadowBlurOuter1" stdDeviation="1"/>
      <feColorMatrix in="shadowBlurOuter1" values="0 0 0 0 0.0391387195   0 0 0 0 0.388542822   0 0 0 0 1  0 0 0 0.5 0"/>
    </filter>
    <linearGradient id="application-x-deepinclone-dim-f" x1="50%" x2="10.489%" y1="50%" y2="91.194%">
      <stop offset="0%" stop-color="#FFF" stop-opacity=".1"/>
      <stop offset="100%" stop-color="#FFF" stop-opacity=".3"/>
    </linearGradient>
    <path id="application-x-deepinclone-dim-e" d="M14.5,0 L21,6.5 L16.75,6.5 C15.5073593,6.5 14.5,5.49264069 14.5,4.25 L14.5,0 L14.5,0 Z"/>
    <filter id="application-x-deepinclone-dim-d" width="161.5%" height="161.5%" x="-30.8%" y="-15.4%" filterUnits="objectBoundingBox">
      <feOffset dy="1" in="SourceAlpha" result="shadowOffsetOuter1"/>
      <feGaussianBlur in="shadowOffsetOuter1" result="shadowBlurOuter1" stdDeviation=".5"/>
      <feComposite in="shadowBlurOuter1" in2="SourceAlpha" operator="out" result="shadowBlurOuter1"/>
      <feColorMatrix in="shadowBlurOuter1" values="0 0 0 0 0   0 0 0 0 0   0 0 0 0 0  0 0 0 0.05 0"/>
    </filter>
  </defs>
  <g fill="none" fill-rule="evenodd">
    <g transform="translate(5.5 3.5)">
      <use fill="#000" filter="url(#application-x-deepinclone-dim-a)" xlink:href="#application-x-deepinclone-dim-b"/>
      <use fill="url(#application-x-deepinclone-dim-c)" xlink:href="#application-x-deepinclone-dim-b"/>
      <use fill="#000" filter="url(#application-x-deepinclone-dim-d)" xlink:href="#application-x-deepinclone-dim-e"/>
      <use fill="url(#application-x-deepinclone-dim-f)" xlink:href="#application-x-deepinclone-dim-e"/>
    </g>
    <g fill="#FFF" transform="translate(10.875 8.75)">
      <path fill-rule="nonzero" d="M0,14 L1.566,14 C2.262,14 2.784,14.192 3.144,14.576 C3.486,14.936 3.66,15.458 3.66,16.142 C3.66,16.82 3.486,17.342 3.144,17.708 C2.784,18.092 2.262,18.284 1.566,18.284 L0,18.284 L0,14 Z M0.702,14.6 L0.702,17.684 L1.434,17.684 C1.968,17.684 2.358,17.558 2.604,17.312 C2.844,17.06 2.964,16.67 2.964,16.142 C2.964,15.602 2.844,15.206 2.604,14.966 C2.358,14.72 1.968,14.6 1.434,14.6 L0.702,14.6 Z M4.32,14 L5.022,14 L5.022,18.284 L4.32,18.284 L4.32,14 Z M5.862,14 L6.684,14 L8.142,17.36 L8.166,17.36 L9.618,14 L10.44,14 L10.44,18.284 L9.738,18.284 L9.738,15.332 L9.714,15.332 L8.454,18.284 L7.848,18.284 L6.588,15.332 L6.564,15.332 L6.564,18.284 L5.862,18.284 L5.862,14 Z"/>
      <path d="M7.625,2.25 C7.90114237,2.25 8.125,2.47385763 8.125,2.75 L8.125,11.75 C8.125,12.0261424 7.90114237,12.25 7.625,12.25 L0.625,12.25 C0.348857625,12.25 0.125,12.0261424 0.125,11.75 L0.125,2.75 C0.125,2.47385763 0.348857625,2.25 0.625,2.25 L7.625,2.25 Z M9,0.25 C9.62132034,0.25 10.125,0.753679656 10.125,1.375 L10.125,9.13194017 C10.125,9.70835837 9.69149049,10.183525 9.13271748,10.249194 L9.13268256,2.37569402 C9.13268256,1.79579503 8.69392161,1.31837415 8.1302637,1.25729536 L8.00768256,1.25069402 L2.12499418,1.25038942 C2.18699761,0.68770813 2.66396823,0.25 3.24317106,0.25 L9,0.25 Z M2.125,4.25 L2.125,7.25 L5.125,7.25 L3.83127581,5.95534108 C4.073051,5.82470846 4.34689819,5.75347008 4.63268256,5.75347008 C5.56466308,5.75347008 6.32018256,6.50898957 6.32018256,7.44097008 C6.32018256,8.3729506 5.56466308,9.12847008 4.63268256,9.12847008 C3.96418744,9.12847008 3.36725282,8.73638954 3.09538909,8.13824614 C2.98112739,7.88685228 2.684705,7.77568468 2.43331113,7.88994637 C2.18191726,8.00420807 2.07074966,8.30063046 2.18501136,8.55202433 C2.61769542,9.50399799 3.56844143,10.1284701 4.63268256,10.1284701 C6.11694783,10.1284701 7.32018256,8.92523535 7.32018256,7.44097008 C7.32018256,5.95670482 6.11694783,4.75347008 4.63268256,4.75347008 C4.07601214,4.75347008 3.54650732,4.92402886 3.10496462,5.22952102 L2.125,4.25 Z"/>
    </g>
  </g>
</svg>
