<?xml version="1.0" encoding="UTF-8"?>
<svg width="32px" height="32px" viewBox="0 0 32 32" version="1.1" xmlns="http://www.w3.org/2000/svg" xmlns:xlink="http://www.w3.org/1999/xlink">
    <title>mimetypes/32/audio-x-generic</title>
    <defs>
        <linearGradient x1="50%" y1="0%" x2="50%" y2="100%" id="linearGradient-1">
            <stop stop-color="#B7EE43" offset="0%"></stop>
            <stop stop-color="#6AD500" offset="100%"></stop>
        </linearGradient>
        <path d="M15.1847826,0 L22,7 L21.9998546,2.47275678 C21.9999515,2.48182635 22,2.49090751 22,2.5 L22,25.4 C22,26.8359403 20.8359403,28 19.4,28 L2.6,28 C1.16405965,28 -2.68237235e-16,26.8359403 -4.4408921e-16,25.4 L4.4408921e-16,2.6 C2.68237235e-16,1.16405965 1.16405965,-1.80311247e-16 2.6,-4.4408921e-16 L15.1847826,0 Z" id="path-2"></path>
        <filter x="-15.9%" y="-8.9%" width="131.8%" height="125.0%" filterUnits="objectBoundingBox" id="filter-3">
            <feOffset dx="0" dy="1" in="SourceAlpha" result="shadowOffsetOuter1"></feOffset>
            <feGaussianBlur stdDeviation="1" in="shadowOffsetOuter1" result="shadowBlurOuter1"></feGaussianBlur>
            <feColorMatrix values="0 0 0 0 0.505882353   0 0 0 0 0.741176471   0 0 0 0 0  0 0 0 0.5 0" type="matrix" in="shadowBlurOuter1"></feColorMatrix>
        </filter>
        <linearGradient x1="50%" y1="50%" x2="10.1820093%" y2="88.8926673%" id="linearGradient-4">
            <stop stop-color="#FFFFFF" stop-opacity="0.1" offset="0%"></stop>
            <stop stop-color="#FFFFFF" stop-opacity="0.3" offset="100%"></stop>
        </linearGradient>
        <path d="M15.1847826,0 L22,7 L17.4347826,7 C16.1921419,7 15.1847826,5.99264069 15.1847826,4.75 L15.1847826,0 L15.1847826,0 Z" id="path-5"></path>
        <filter x="-29.3%" y="-14.3%" width="158.7%" height="157.1%" filterUnits="objectBoundingBox" id="filter-6">
            <feOffset dx="0" dy="1" in="SourceAlpha" result="shadowOffsetOuter1"></feOffset>
            <feGaussianBlur stdDeviation="0.5" in="shadowOffsetOuter1" result="shadowBlurOuter1"></feGaussianBlur>
            <feComposite in="shadowBlurOuter1" in2="SourceAlpha" operator="out" result="shadowBlurOuter1"></feComposite>
            <feColorMatrix values="0 0 0 0 0   0 0 0 0 0   0 0 0 0 0  0 0 0 0.05 0" type="matrix" in="shadowBlurOuter1"></feColorMatrix>
        </filter>
    </defs>
    <g id="mimetypes/32/audio-x-generic" stroke="none" stroke-width="1" fill="none" fill-rule="evenodd">
        <g id="编组-2" transform="translate(5, 2)">
            <g id="蒙版">
                <use fill="black" fill-opacity="1" filter="url(#filter-3)" xlink:href="#path-2"></use>
                <use fill="url(#linearGradient-1)" fill-rule="evenodd" xlink:href="#path-2"></use>
            </g>
            <g id="折角">
                <use fill="black" fill-opacity="1" filter="url(#filter-6)" xlink:href="#path-5"></use>
                <use fill="url(#linearGradient-4)" fill-rule="evenodd" xlink:href="#path-5"></use>
            </g>
        </g>
        <g id="Group-2" transform="translate(9, 11)" fill="#FFFFFF">
            <path d="M7,0 C10.8598,0 14,3.1402 14,7 C14,10.8598 10.8598,14 7,14 C3.1402,14 0,10.8598 0,7 C0,3.1402 3.1402,0 7,0 Z M7,1 C3.692,1 1,3.69133333 1,7 C1,10.3086667 3.692,13 7,13 C10.308,13 13,10.3086667 13,7 C13,3.69133333 10.308,1 7,1 Z M7.55526288,2.5 C7.72799478,2.49936129 7.89190096,2.68378908 7.89190096,2.9124027 L7.89190096,3.0295912 C7.89190096,3.20121151 8.04193816,3.59952431 8.87218601,4.1252716 C8.87218601,4.1252716 9.95648844,4.72017931 10.2641277,5.79472737 C10.2641277,5.79472737 10.6020266,6.75336767 10.0510497,7.9630347 C10.0510497,7.9630347 9.9987258,8.07445983 9.88399148,8.0277125 C9.79321267,7.9905708 9.82410268,7.8733823 9.82410268,7.8733823 C9.82410268,7.8733823 10.1954132,6.93075135 9.88651311,6.16678483 C9.88651311,6.16678483 9.60156852,5.11721137 7.84083788,4.6407729 L7.84003335,4.70161052 C7.83268986,5.25626953 7.77741753,9.41720822 7.77153372,9.44709236 C7.76459923,10.0567287 7.26594619,10.697103 6.5,11 C5.56510436,11.369496 4.58797135,11.0960561 4.31689574,10.3897233 C4.04582014,9.68275009 4.57221114,8.77213786 5.52097577,8.4397836 C6.16525314,8.21437185 6.72820784,8.23038121 7.16445044,8.46027558 L7.22997215,2.9149642 C7.23060256,2.68635058 7.38316139,2.50064204 7.55526288,2.5 Z" id="形状结合"></path>
        </g>
    </g>
</svg>