<?xml version="1.0" encoding="UTF-8"?>
<svg width="32px" height="32px" viewBox="0 0 32 32" version="1.1" xmlns="http://www.w3.org/2000/svg" xmlns:xlink="http://www.w3.org/1999/xlink">
    <title>mimetypes/32/text-xml</title>
    <defs>
        <linearGradient x1="50%" y1="0%" x2="50%" y2="99.6278505%" id="linearGradient-1">
            <stop stop-color="#FF4BB4" offset="0%"></stop>
            <stop stop-color="#F6237B" offset="98.9152238%"></stop>
        </linearGradient>
        <path d="M15.1847826,0 L22,7 L21.9998546,2.47275678 C21.9999515,2.48182635 22,2.49090751 22,2.5 L22,25.4 C22,26.8359403 20.8359403,28 19.4,28 L2.6,28 C1.16405965,28 -2.68237235e-16,26.8359403 -4.4408921e-16,25.4 L4.4408921e-16,2.6 C2.68237235e-16,1.16405965 1.16405965,-1.80311247e-16 2.6,-4.4408921e-16 L15.1847826,0 Z" id="path-2"></path>
        <filter x="-15.9%" y="-8.9%" width="131.8%" height="125.0%" filterUnits="objectBoundingBox" id="filter-3">
            <feOffset dx="0" dy="1" in="SourceAlpha" result="shadowOffsetOuter1"></feOffset>
            <feGaussianBlur stdDeviation="1" in="shadowOffsetOuter1" result="shadowBlurOuter1"></feGaussianBlur>
            <feColorMatrix values="0 0 0 0 0.920884284   0 0 0 0 0.0193547135   0 0 0 0 0.46292854  0 0 0 0.5 0" type="matrix" in="shadowBlurOuter1"></feColorMatrix>
        </filter>
        <linearGradient x1="50%" y1="50%" x2="10.1820093%" y2="88.8926673%" id="linearGradient-4">
            <stop stop-color="#FFFFFF" stop-opacity="0.1" offset="0%"></stop>
            <stop stop-color="#FFFFFF" stop-opacity="0.3" offset="100%"></stop>
        </linearGradient>
        <path d="M15.1847826,0 L22,7 L17.4347826,7 C16.1921419,7 15.1847826,5.99264069 15.1847826,4.75 L15.1847826,0 L15.1847826,0 Z" id="path-5"></path>
        <filter x="-29.3%" y="-14.3%" width="158.7%" height="157.1%" filterUnits="objectBoundingBox" id="filter-6">
            <feOffset dx="0" dy="1" in="SourceAlpha" result="shadowOffsetOuter1"></feOffset>
            <feGaussianBlur stdDeviation="0.5" in="shadowOffsetOuter1" result="shadowBlurOuter1"></feGaussianBlur>
            <feComposite in="shadowBlurOuter1" in2="SourceAlpha" operator="out" result="shadowBlurOuter1"></feComposite>
            <feColorMatrix values="0 0 0 0 0   0 0 0 0 0   0 0 0 0 0  0 0 0 0.05 0" type="matrix" in="shadowBlurOuter1"></feColorMatrix>
        </filter>
    </defs>
    <g id="mimetypes/32/text-xml" stroke="none" stroke-width="1" fill="none" fill-rule="evenodd">
        <g id="编组-2" transform="translate(5, 2)">
            <g id="蒙版">
                <use fill="black" fill-opacity="1" filter="url(#filter-3)" xlink:href="#path-2"></use>
                <use fill="url(#linearGradient-1)" fill-rule="evenodd" xlink:href="#path-2"></use>
            </g>
            <g id="折角">
                <use fill="black" fill-opacity="1" filter="url(#filter-6)" xlink:href="#path-5"></use>
                <use fill="url(#linearGradient-4)" fill-rule="evenodd" xlink:href="#path-5"></use>
            </g>
        </g>
        <path d="M8,17 L12,14 L12,15 L8.75,17.508432 L12,20.0197751 L12,21 L8,18 L8,17 Z M24,17 L20,14 L20,15 L23.25,17.508432 L20,20.0197751 L20,21 L24,18 L24,17 Z M17.7000008,14 L13,21 L14.1999998,21 L19,14 L17.7000008,14 Z" id="形状结合" fill="#FFFFFF"></path>
    </g>
</svg>