<svg xmlns="http://www.w3.org/2000/svg" xmlns:xlink="http://www.w3.org/1999/xlink" width="32" height="32" viewBox="0 0 32 32">
  <defs>
    <linearGradient id="video-x-msvideo-c" x1="50%" x2="50%" y1="0%" y2="100%">
      <stop offset="0%" stop-color="#327DFF"/>
      <stop offset="100%" stop-color="#1066FF"/>
    </linearGradient>
    <path id="video-x-msvideo-b" d="M15,0 L22,7 L22,22 C22,24.209139 20.209139,26 18,26 L4,26 C1.790861,26 2.705415e-16,24.209139 0,22 L0,4 C-2.705415e-16,1.790861 1.790861,4.05812251e-16 4,0 L15,0 Z"/>
    <filter id="video-x-msvideo-a" width="131.8%" height="126.9%" x="-15.9%" y="-9.6%" filterUnits="objectBoundingBox">
      <feOffset dy="1" in="SourceAlpha" result="shadowOffsetOuter1"/>
      <feGaussianBlur in="shadowOffsetOuter1" result="shadowBlurOuter1" stdDeviation="1"/>
      <feColorMatrix in="shadowBlurOuter1" values="0 0 0 0 0.0391387195   0 0 0 0 0.388542822   0 0 0 0 1  0 0 0 0.5 0"/>
    </filter>
    <linearGradient id="video-x-msvideo-f" x1="50%" x2="10.489%" y1="50%" y2="91.194%">
      <stop offset="0%" stop-color="#FFF" stop-opacity=".1"/>
      <stop offset="100%" stop-color="#FFF" stop-opacity=".3"/>
    </linearGradient>
    <path id="video-x-msvideo-e" d="M15,0 L22,7 L17.25,7 C16.0073593,7 15,5.99264069 15,4.75 L15,0 Z"/>
    <filter id="video-x-msvideo-d" width="157.1%" height="157.1%" x="-28.6%" y="-14.3%" filterUnits="objectBoundingBox">
      <feOffset dy="1" in="SourceAlpha" result="shadowOffsetOuter1"/>
      <feGaussianBlur in="shadowOffsetOuter1" result="shadowBlurOuter1" stdDeviation=".5"/>
      <feComposite in="shadowBlurOuter1" in2="SourceAlpha" operator="out" result="shadowBlurOuter1"/>
      <feColorMatrix in="shadowBlurOuter1" values="0 0 0 0 0   0 0 0 0 0   0 0 0 0 0  0 0 0 0.05 0"/>
    </filter>
  </defs>
  <g fill="none" fill-rule="evenodd">
    <g transform="translate(5 3)">
      <use fill="#000" filter="url(#video-x-msvideo-a)" xlink:href="#video-x-msvideo-b"/>
      <use fill="url(#video-x-msvideo-c)" xlink:href="#video-x-msvideo-b"/>
      <use fill="#000" filter="url(#video-x-msvideo-d)" xlink:href="#video-x-msvideo-e"/>
      <use fill="url(#video-x-msvideo-f)" xlink:href="#video-x-msvideo-e"/>
    </g>
    <path fill="#FFF" d="M17.5 25.5L19 21 20 21 18 27 17.5 27 17 27 15 21 16 21 17.5 25.5zM21 21L22 21 22 27 21 27 21 21zM9 27L10 27 10.5 26 13.5 26 14 27 15 27 12.5386368 21 11.5 21 9 27zM10.7999992 25L12 22 13.2000008 25 10.7999992 25zM16 20C12.6916 20 10 17.3084 10 14 10 10.6916 12.6916 8 16 8 19.3084 8 22 10.6916 22 14 22 17.3084 19.3084 20 16 20L16 20zM16 9C13.2433333 9 11 11.2427778 11 14 11 16.7572222 13.2433333 19 16 19 18.7566667 19 21 16.7572222 21 14 21 11.2427778 18.7572222 9 16 9L16 9z"/>
    <path fill="#FFF" d="M19.8984464,13.8219423 C20.0338512,13.9017931 20.0338512,14.105239 19.8984464,14.1843955 L17.1103082,15.8223782 L14.2748117,17.4735537 C14.141408,17.5506271 14,17.4499457 14,17.2916328 L14,13.9996971 L14,10.7084558 C14,10.5494486 14.141408,10.4494615 14.2748117,10.5265349 L17.1216475,12.1777104 L19.8984464,13.8219423 L19.8984464,13.8219423 Z"/>
  </g>
</svg>
