<?xml version="1.0" encoding="UTF-8"?>
<svg width="32px" height="32px" viewBox="0 0 32 32" version="1.1" xmlns="http://www.w3.org/2000/svg" xmlns:xlink="http://www.w3.org/1999/xlink">
    <title>mimetypes/32/virtualbox-vbox-extpack</title>
    <defs>
        <linearGradient x1="50%" y1="0%" x2="50%" y2="99.7939317%" id="linearGradient-1">
            <stop stop-color="#9BA6C1" offset="0%"></stop>
            <stop stop-color="#778EB2" offset="100%"></stop>
        </linearGradient>
        <path d="M15.1847826,0 L22,7 L21.9998546,2.47275678 C21.9999515,2.48182635 22,2.49090751 22,2.5 L22,25.4 C22,26.8359403 20.8359403,28 19.4,28 L2.6,28 C1.16405965,28 -2.68237235e-16,26.8359403 -4.4408921e-16,25.4 L4.4408921e-16,2.6 C2.68237235e-16,1.16405965 1.16405965,-1.80311247e-16 2.6,-4.4408921e-16 L15.1847826,0 Z" id="path-2"></path>
        <filter x="-15.9%" y="-8.9%" width="131.8%" height="125.0%" filterUnits="objectBoundingBox" id="filter-3">
            <feOffset dx="0" dy="1" in="SourceAlpha" result="shadowOffsetOuter1"></feOffset>
            <feGaussianBlur stdDeviation="1" in="shadowOffsetOuter1" result="shadowBlurOuter1"></feGaussianBlur>
            <feColorMatrix values="0 0 0 0 0.474509804   0 0 0 0 0.558835447   0 0 0 0 0.701960784  0 0 0 0.5 0" type="matrix" in="shadowBlurOuter1"></feColorMatrix>
        </filter>
        <linearGradient x1="50%" y1="50%" x2="10.1820093%" y2="88.8926673%" id="linearGradient-4">
            <stop stop-color="#FFFFFF" stop-opacity="0.1" offset="0%"></stop>
            <stop stop-color="#FFFFFF" stop-opacity="0.3" offset="100%"></stop>
        </linearGradient>
        <path d="M15.1847826,0 L22,7 L17.4347826,7 C16.1921419,7 15.1847826,5.99264069 15.1847826,4.75 L15.1847826,0 L15.1847826,0 Z" id="path-5"></path>
        <filter x="-29.3%" y="-14.3%" width="158.7%" height="157.1%" filterUnits="objectBoundingBox" id="filter-6">
            <feOffset dx="0" dy="1" in="SourceAlpha" result="shadowOffsetOuter1"></feOffset>
            <feGaussianBlur stdDeviation="0.5" in="shadowOffsetOuter1" result="shadowBlurOuter1"></feGaussianBlur>
            <feComposite in="shadowBlurOuter1" in2="SourceAlpha" operator="out" result="shadowBlurOuter1"></feComposite>
            <feColorMatrix values="0 0 0 0 0   0 0 0 0 0   0 0 0 0 0  0 0 0 0.05 0" type="matrix" in="shadowBlurOuter1"></feColorMatrix>
        </filter>
    </defs>
    <g id="mimetypes/32/virtualbox-vbox-extpack" stroke="none" stroke-width="1" fill="none" fill-rule="evenodd">
        <g id="编组-2" transform="translate(5, 2)">
            <g id="蒙版">
                <use fill="black" fill-opacity="1" filter="url(#filter-3)" xlink:href="#path-2"></use>
                <use fill="url(#linearGradient-1)" fill-rule="evenodd" xlink:href="#path-2"></use>
            </g>
            <g id="折角">
                <use fill="black" fill-opacity="1" filter="url(#filter-6)" xlink:href="#path-5"></use>
                <use fill="url(#linearGradient-4)" fill-rule="evenodd" xlink:href="#path-5"></use>
            </g>
        </g>
        <path d="M14.1568627,10.5343137 C14.1804107,10.7433882 14.3125838,11.0073998 14.3823529,11.0980392 C14.7205882,11.5490196 14.7205882,11.8308824 14.6360294,12 L11.9019608,12 C11.4022745,12 11,12.4022745 11,12.9019608 L11,15.1654412 C11.1691176,15.25 11.4509804,15.25 11.9019608,14.9117647 C11.9926002,14.8419956 12.2566118,14.7098225 12.4656863,14.6862745 C13.0260928,14.6862745 13.4803922,15.3424846 13.4803922,16.1519608 C13.4803922,16.961437 13.0260928,17.6176471 12.4656863,17.6176471 C12.2936909,17.6147337 12.0322105,17.4609077 11.9019608,17.3921569 C11.4509804,17.0539216 11.1691176,17.0539216 11,17.1384804 L11,20.0980392 C11,20.5977255 11.4022745,21 11.9019608,21 L15.5379902,21 C15.622549,20.8308824 15.622549,20.5490196 15.2843137,20.0980392 C15.2145446,20.0073998 15.0823715,19.7433882 15.0588235,19.5343137 C15.0588235,18.9739072 15.7150336,18.5196078 16.5245098,18.5196078 C17.333986,18.5196078 17.9901961,18.9739072 17.9901961,19.5343137 C17.9872827,19.7063091 17.8334567,19.9677895 17.7647059,20.0980392 C17.4264706,20.5490196 17.4264706,20.8308824 17.5110294,21 L19.1176471,21 C19.6173333,21 20.0196078,20.5977255 20.0196078,20.0980392 L20.0196078,17.5894608 C20.1887255,17.504902 20.4705882,17.504902 20.9215686,17.8431373 C21.0518183,17.9118881 21.3132988,18.0657143 21.4852941,18.0686275 C22.0457006,18.0686275 22.5,17.4124174 22.5,16.6029412 C22.5,15.793465 22.0457006,15.1372549 21.4852941,15.1372549 C21.2762196,15.1608028 21.012208,15.292976 20.9215686,15.3627451 C20.4705882,15.7009804 20.1887255,15.7009804 20.0196078,15.6164216 L20.0196078,12.9019608 C20.0196078,12.4022745 19.6173333,12 19.1176471,12 L16.6090686,12 C16.5245098,11.8308824 16.5245098,11.5490196 16.8627451,11.0980392 C16.9314959,10.9677895 17.0853222,10.7063091 17.0882353,10.5343137 C17.0882353,9.97390723 16.4320252,9.51960784 15.622549,9.51960784 C14.8130728,9.51960784 14.1568627,9.97390723 14.1568627,10.5343137 Z" id="rect4096" fill="#FFFFFF"></path>
    </g>
</svg>