<?xml version="1.0" encoding="UTF-8"?>
<svg width="32px" height="32px" viewBox="0 0 32 32" version="1.1" xmlns="http://www.w3.org/2000/svg" xmlns:xlink="http://www.w3.org/1999/xlink">
    <title>mimetypes/32/x-office-address-book</title>
    <defs>
        <linearGradient x1="50%" y1="0%" x2="50%" y2="99.6278505%" id="linearGradient-1">
            <stop stop-color="#B93F3F" offset="0%"></stop>
            <stop stop-color="#9F3535" offset="100%"></stop>
        </linearGradient>
        <path d="M15.1847826,0 L22,7 L21.9998546,2.47275678 C21.9999515,2.48182635 22,2.49090751 22,2.5 L22,25.4 C22,26.8359403 20.8359403,28 19.4,28 L2.6,28 C1.16405965,28 -2.68237235e-16,26.8359403 -4.4408921e-16,25.4 L4.4408921e-16,2.6 C2.68237235e-16,1.16405965 1.16405965,-1.80311247e-16 2.6,-4.4408921e-16 L15.1847826,0 Z" id="path-2"></path>
        <filter x="-15.9%" y="-8.9%" width="131.8%" height="125.0%" filterUnits="objectBoundingBox" id="filter-3">
            <feOffset dx="0" dy="1" in="SourceAlpha" result="shadowOffsetOuter1"></feOffset>
            <feGaussianBlur stdDeviation="1" in="shadowOffsetOuter1" result="shadowBlurOuter1"></feGaussianBlur>
            <feColorMatrix values="0 0 0 0 0.6622226   0 0 0 0 0   0 0 0 0 0  0 0 0 0.5 0" type="matrix" in="shadowBlurOuter1"></feColorMatrix>
        </filter>
        <linearGradient x1="50%" y1="50%" x2="10.1820093%" y2="88.8926673%" id="linearGradient-4">
            <stop stop-color="#FFFFFF" stop-opacity="0.1" offset="0%"></stop>
            <stop stop-color="#FFFFFF" stop-opacity="0.3" offset="100%"></stop>
        </linearGradient>
        <path d="M15.1847826,0 L22,7 L17.4347826,7 C16.1921419,7 15.1847826,5.99264069 15.1847826,4.75 L15.1847826,0 L15.1847826,0 Z" id="path-5"></path>
        <filter x="-29.3%" y="-14.3%" width="158.7%" height="157.1%" filterUnits="objectBoundingBox" id="filter-6">
            <feOffset dx="0" dy="1" in="SourceAlpha" result="shadowOffsetOuter1"></feOffset>
            <feGaussianBlur stdDeviation="0.5" in="shadowOffsetOuter1" result="shadowBlurOuter1"></feGaussianBlur>
            <feComposite in="shadowBlurOuter1" in2="SourceAlpha" operator="out" result="shadowBlurOuter1"></feComposite>
            <feColorMatrix values="0 0 0 0 0   0 0 0 0 0   0 0 0 0 0  0 0 0 0.05 0" type="matrix" in="shadowBlurOuter1"></feColorMatrix>
        </filter>
    </defs>
    <g id="mimetypes/32/x-office-address-book" stroke="none" stroke-width="1" fill="none" fill-rule="evenodd">
        <g id="编组-2" transform="translate(5, 2)">
            <g id="蒙版">
                <use fill="black" fill-opacity="1" filter="url(#filter-3)" xlink:href="#path-2"></use>
                <use fill="url(#linearGradient-1)" fill-rule="evenodd" xlink:href="#path-2"></use>
            </g>
            <g id="折角">
                <use fill="black" fill-opacity="1" filter="url(#filter-6)" xlink:href="#path-5"></use>
                <use fill="url(#linearGradient-4)" fill-rule="evenodd" xlink:href="#path-5"></use>
            </g>
        </g>
        <path d="M18.4409756,22.1351637 L17.9470702,21.103773 C17.3950583,21.4814654 16.4508273,21.7574713 15.5356496,21.7574713 C12.8336964,21.7574713 11.3665068,20.3629149 11.3665068,17.6754883 C11.3665068,14.7556357 13.5890812,12.2570553 16.5670404,12.2570553 C19.1818338,12.2570553 20.7216566,13.564452 20.7216566,15.9032394 C20.7216566,17.4430622 20.0243783,18.9393051 18.818668,18.9393051 C18.3828691,18.9393051 18.2085496,18.7214057 18.2085496,18.3001334 C18.2085496,18.0822339 18.2521294,17.6754883 18.310236,17.3413758 L18.7605615,14.4215232 C18.2957093,14.1309906 17.5257979,13.956671 16.8285197,13.956671 C15.0562708,13.956671 13.2694953,15.1623813 13.2694953,17.7771747 C13.2694953,19.0409915 13.8941404,20.0578556 15.40491,20.0578556 C16.0876616,20.0578556 16.69778,19.7963763 17.1045257,19.2879442 L17.1626322,19.2879442 C17.366005,19.7382698 17.8308572,20.0578556 18.6443485,20.0578556 C20.6780767,20.0578556 22,18.2129736 22,15.7434465 C22,12.9252803 19.9226919,11.0949249 16.7558866,11.0949249 C12.9208562,11.0949249 10.0736367,14.072884 10.0736367,17.8207546 C10.0736367,20.9294534 11.9039921,22.9050751 15.3177502,22.9050751 C16.5379871,22.9050751 17.7001175,22.6000159 18.4409756,22.1351637 L18.4409756,22.1351637 Z M15.6663893,18.9538317 C14.9110045,18.9538317 14.5478388,18.5180328 14.5478388,17.5447486 C14.5478388,16.0920856 15.4630165,15.0752215 16.6687268,15.0752215 C16.9447327,15.0752215 17.2062121,15.133328 17.3805316,15.1914346 L17.0464192,17.4721155 C17.0173659,17.6319084 16.973786,18.038654 16.973786,18.2129736 C16.7558866,18.6051926 16.2619811,18.9538317 15.6663893,18.9538317 L15.6663893,18.9538317 Z" id="@" fill="#FFFFFF"></path>
    </g>
</svg>