<?xml version="1.0" encoding="UTF-8" standalone="no"?>
<svg width="48px" height="48px" viewBox="0 0 48 48" version="1.1" xmlns="http://www.w3.org/2000/svg" xmlns:xlink="http://www.w3.org/1999/xlink">
    <!-- Generator: Sketch 39.1 (31720) - http://www.bohemiancoding.com/sketch -->
    <title>深度启动盘制作工具</title>
    <desc>Created with Sketch.</desc>
    <defs></defs>
    <g id="Page-1" stroke="none" stroke-width="1" fill="none" fill-rule="evenodd">
        <g id="深度启动盘制作工具">
            <path d="M22.5443,26.1689208 C21.6336345,25.3397113 11.4342751,15.7621552 16.8953884,7.56699412 C22.6085796,-1.00644494 34.5110618,4.0367545 34.0349619,10.0885938 C33.5588619,16.1404331 27.8456712,15.6361121 25.9412742,18.1577127 C24.161712,20.5140202 25.7079706,25.0721747 25.9183345,25.659632 L25.924591,25.6431107 C25.924591,25.6431107 39.8755531,20.1933882 44.021063,29.7265687 C48.1665729,39.2597491 38.0964462,47.6682767 33.3918335,44.2051513 C28.6872208,40.742026 31.9557056,35.7477261 30.8484606,32.7381055 C29.7883991,29.8567352 25.095127,29.0256296 24.6970589,28.9600293 C24.4571173,30.3029005 21.7196748,44.3476293 12.3315573,43.4336991 C2.47285615,42.4739577 0.640500645,29.0222307 5.82121328,26.4335168 C11.0019259,23.8448028 13.4466318,29.3434238 16.4582739,29.8314437 C19.1677109,30.270493 22.0026372,26.8581658 22.5443,26.1689208 L22.5443,26.1689208 Z M22.7520999,26.2051136 L25.8916802,25.7300167 L24.7099116,28.8506623 L22.7520999,26.2051136 L22.7520999,26.2051136 Z" id="Combined-Shape" fill="#FFC627"></path>
            <ellipse id="Oval-121" stroke="#FFC527" stroke-width="2" fill="#A76417" cx="24" cy="27.5" rx="3.5" ry="3.5"></ellipse>
        </g>
    </g>
</svg>