<?xml version="1.0" encoding="UTF-8" standalone="no"?>
<svg width="48px" height="48px" viewBox="0 0 48 48" version="1.1" xmlns="http://www.w3.org/2000/svg" xmlns:xlink="http://www.w3.org/1999/xlink">
    <!-- Generator: Sketch 39.1 (31720) - http://www.bohemiancoding.com/sketch -->
    <title>图像查看器</title>
    <desc>Created with Sketch.</desc>
    <defs></defs>
    <g id="Page-1" stroke="none" stroke-width="1" fill="none" fill-rule="evenodd">
        <g id="图像查看器">
            <g id="Group" transform="translate(3.000000, 4.105263)">
                <path d="M34.6910017,5.79782765 C34.6910017,4.53623316 33.6664278,3.50703575 32.4127747,3.50703575 L9.58722533,3.50703575 C8.33321385,3.50703575 7.3089983,4.53377784 7.3089983,5.79782765 L7.3089983,15.0258649 C6.66145595,15.3340115 6.16905221,15.6246343 5.81041756,15.863336 L5.02716469,15.5456501 L5.02716469,13.657613 C5.74680098,13.2249474 6.5625152,14.0458724 7.55578841,13.6576126 C10.9093902,12.3467256 15.369344,11.5186421 21,11.5186421 C26.630656,11.5186421 30.7824007,12.3467256 34.1360025,13.6576126 C35.1292757,14.0458724 36.253199,13.2249474 36.9728353,13.657613 L36.9728353,15.5456501 L36.1895824,15.863336 C35.8309478,15.6246343 35.338544,15.3340115 34.6910017,15.0258649 L34.6910017,5.79782765 Z M9.56781585,0.894736842 L32.4321842,0.894736842 C34.9549192,0.894736842 37,2.98513581 37,5.54524793 L37,16.3947368 C37,16.3947368 33.2642299,13.4190804 21,13.4190804 C8.73577009,13.4190804 5,16.3947368 5,16.3947368 L5,5.54524793 C5,2.97684158 7.05042315,0.894736842 9.56781585,0.894736842 Z" id="Rectangle-129" fill="#FFC527"></path>
                <path d="M23.4042664,24.401686 C22.9916945,23.3804815 21.7593293,22.5526316 20.6554971,22.5526316 L19.819401,22.5526316 L14.7567568,33.9039829 L10.2162162,36.1742532 L12.4210031,39.113969 C13.0840864,39.9980801 14.40459,40.2824295 15.4016313,39.8044692 C15.4016313,39.8044692 17.3108108,38.4445235 21,38.4445235 C24.6891892,38.4445235 26.5983687,39.8044692 26.5983687,39.8044692 C27.5814409,40.3072275 28.910473,40.0053343 29.5789969,39.113969 L31.7837838,36.1742532 L27.2432432,33.9039829 L23.4042664,24.401686 Z" id="Path-166" fill="#494747"></path>
                <rect id="Rectangle-129" fill="#FFC527" x="19.3421053" y="23.6877667" width="3.31578947" height="9.94736842" rx="1"></rect>
                <path d="M4.01383379,17.4146515 L10.257077,14.0092461 C10.257077,14.0092461 4.01383379,27.6308677 10.257077,35.5768137 L1.74356352,33.874111 L2.31113108,19.6849218 L4.01383379,17.4146515 Z" id="Path-167" fill="#494747"></path>
                <path d="M33.5273473,17.4146515 L39.7705905,14.0092461 C39.7705905,14.0092461 33.5273473,27.6308677 39.7705905,35.5768137 L31.257077,33.874111 L31.8246446,19.6849218 L33.5273473,17.4146515 Z" id="Path-167" fill="#494747" transform="translate(35.513834, 24.793030) scale(-1, 1) translate(-35.513834, -24.793030) "></path>
                <path d="M2.87721116,20.6982142 L2.87721116,20.6982142 L2.27435354,30.9467939 C2.19683134,32.2646712 3.24304925,33.5446881 4.55318271,33.7318501 L11.4645629,34.7191901 C12.7937949,34.9090804 14.2194615,33.9530314 14.5333736,32.7221787 C14.5513097,32.6396576 14.584047,32.493858 14.6306449,32.2936482 C14.7071852,31.96479 14.7956544,31.5995443 14.8951542,31.2066835 C15.1801572,30.081389 15.4978863,28.9547043 15.8428834,27.8935153 C17.1420684,23.8973049 18.2052398,21.9043226 20.5159141,21.72498 C20.6281242,21.7177058 20.6281242,21.7177058 20.7418622,21.7162162 C20.8556001,21.7177058 20.8556001,21.7177058 20.9678102,21.72498 C23.2784845,21.9043226 24.3416559,23.8973049 25.6408409,27.8935153 C25.985838,28.9547043 26.3035671,30.081389 26.5885701,31.2066835 C26.6880699,31.5995443 26.7765391,31.96479 26.8530794,32.2936482 C26.8996773,32.493858 26.9324146,32.6396576 26.9276223,32.62745 C27.2753453,33.9508771 28.6965732,34.9081313 30.0191614,34.7191901 L36.9305416,33.7318501 C38.2405461,33.5447066 39.28694,32.2654706 39.2093708,30.9467939 L38.6065131,20.6982142 C38.5108738,19.0723448 37.0581575,17.037309 35.5491781,16.4175064 C35.4553368,16.3789618 35.3641846,16.3341704 35.2763344,16.2834335 C35.2011729,16.2400248 34.9751734,16.1264959 34.5963933,15.9643659 C33.9144236,15.6724609 33.0758062,15.3750899 32.078324,15.0937802 C29.1560917,14.2696529 25.5732294,13.7702703 21.3094297,13.7702703 C17.0391993,13.7702703 13.2426522,14.2945213 9.96988491,15.1640132 C8.83929569,15.4643823 7.85911084,15.7838242 7.03601546,16.0998261 C6.56400214,16.281041 6.26226393,16.4137611 6.13759613,16.4753232 C6.0578998,16.514678 5.97596106,16.5493185 5.89220309,16.5790658 C4.41732181,17.1028824 2.97271741,19.074608 2.87721116,20.6982142 L2.87721116,20.6982142 Z M5.13239488,14.4397158 C5.13239488,14.4397158 11.0855384,11.5 21.3094297,11.5 C31.5333211,11.5 36.4117481,14.3174826 36.4117481,14.3174826 C38.728571,15.2691012 40.7260609,18.0692166 40.8728658,20.5648994 L41.4757234,30.813479 C41.6227078,33.3122134 39.7291431,35.6253691 37.2516063,35.979303 L30.3402261,36.966643 C27.8603263,37.3209144 25.368518,35.6274074 24.7318784,33.2043692 C24.7318784,33.2043692 23.0320274,24.2105263 21,24.2105263 C18.9679726,24.2105263 16.7518459,33.2043692 16.7518459,33.2043692 C16.1343408,35.6364871 13.621035,37.3205768 11.1434982,36.966643 L4.23211801,35.979303 C1.75221817,35.6250316 -0.138803965,33.3091618 0.00800090691,30.813479 L0.61085853,20.5648994 C0.757842907,18.066165 2.76488714,15.2805561 5.13239488,14.4397158 Z" id="Rectangle-127" fill="#A6A0A1"></path>
            </g>
        </g>
    </g>
</svg>