<?xml version="1.0" encoding="UTF-8" standalone="no"?>
<svg width="48px" height="48px" viewBox="0 0 48 48" version="1.1" xmlns="http://www.w3.org/2000/svg" xmlns:xlink="http://www.w3.org/1999/xlink">
    <!-- Generator: Sketch 39.1 (31720) - http://www.bohemiancoding.com/sketch -->
    <title>字体查看器</title>
    <desc>Created with Sketch.</desc>
    <defs>
        <linearGradient x1="0%" y1="18.3874703%" x2="100%" y2="77.7966864%" id="linearGradient-1">
            <stop stop-color="#FFCE44" offset="0%"></stop>
            <stop stop-color="#FFAE00" offset="100%"></stop>
        </linearGradient>
    </defs>
    <g id="Page-1" stroke="none" stroke-width="1" fill="none" fill-rule="evenodd">
        <g id="字体查看器">
            <g id="Group" transform="translate(9.000000, 2.000000)">
                <path d="M24.5279948,2.21125298 C24.5279948,2.21125298 30.4404948,1.40351607 30.4404948,5.48671868 C30.4404948,9.5699213 24.0404948,11.9257432 24.0404948,11.9257432" id="Path-311" stroke="#ABABAB"></path>
                <path d="M8.82630208,1.98298162 C8.82630208,1.98298162 16.326302,-0.122340855 17.3929687,4.70692756 C18.4596354,9.53619598 14.726302,12.7557077 14.726302,12.7557077" id="Path-311" stroke="#ABABAB"></path>
                <path d="M4.26666667,8.55672001 C2.42272135,9.48851752 4.16851738e-14,12.2029197 4.16851738e-14,15.5647692 L4.16851738e-14,40.7779568 C4.16851738e-14,42.5583964 1.432413,44 3.19938397,44 L12.800616,44 C14.5660259,44 16,42.5574421 16,40.7779568 L16,15.5647692 C16,12.2011401 13.509549,9.42622594 11.7122396,8.55672001 C9.91493022,7.68721408 9.01461397,4.29277519 9.01461397,4.29277519 L7,4.30000019 C7,4.29277519 6.11061198,7.62492249 4.26666667,8.55672001 Z" id="Combined-Shape" fill="url(#linearGradient-1)"></path>
                <path d="M20.2666667,8.55662774 C18.4227214,9.48842525 16,12.2028275 16,15.5646769 L16,40.7778645 C16,42.5583041 17.432413,43.9999077 19.199384,43.9999077 L28.800616,43.9999077 C30.5660259,43.9999077 32,42.5573499 32,40.7778645 L32,15.5646769 C32,12.2010479 29.509549,9.42613367 27.7122396,8.55662774 C25.9149302,7.68712181 25.014614,4.29268293 25.014614,4.29268293 L23,4.29268293 C23,4.29268293 22.110612,7.62483022 20.2666667,8.55662774 Z" id="Combined-Shape-Copy" fill="url(#linearGradient-1)"></path>
                <rect id="Rectangle-189" fill="#ABABAB" x="3" y="1" width="4" height="2"></rect>
                <polygon id="Rectangle-188" fill="#909090" points="7 -4.4408921e-16 9 -4.4408921e-16 9 4.29268293 7 4.29268293"></polygon>
                <path d="M9.48689479,27.7937128 C9.41009479,28.5663957 9.38449479,29.2360543 9.38449479,29.7511762 C9.41009479,31.2192738 9.81969479,31.8631762 10.3316948,32.0949811 C10.5620948,32.1980055 10.7156948,32.1207372 10.7156948,31.8631762 C10.7668948,30.498103 10.9204948,29.0815177 11.0996948,27.7422006 C11.5348948,27.7679567 11.8932948,27.8194689 12.2004948,27.8967372 C12.4308948,27.9740055 12.5332948,27.8967372 12.4820948,27.6649323 C12.3796948,27.1240543 12.0980948,26.6089323 11.3300948,26.3513713 C11.8164948,23.5182006 12.5332948,20.8910786 13.1988948,18.8563469 C13.4292948,18.1609323 13.4548948,17.5942982 13.1988948,16.9761518 C12.9428948,16.3322494 12.8660948,16.2807372 12.6100948,15.9201518 C12.3540948,15.5595665 12.0980948,15.5595665 11.6884948,15.8943957 C8.97489479,18.1351762 5.41649479,23.2348835 3.41969479,26.7377128 C3.01009479,26.7119567 2.62609479,26.6604445 2.26769479,26.6089323 C1.88369479,26.5574201 1.83249479,26.6604445 1.96049479,26.9952738 C2.03729479,27.1755665 2.24209479,27.5619079 2.80529479,27.8709811 C2.49809479,28.4376152 2.26769479,28.9527372 2.11409479,29.3390786 C1.57649479,30.7814201 1.67889479,31.554103 1.98609479,31.9662006 C2.11409479,32.1464933 2.34449479,32.1464933 2.44689479,31.9146884 C2.95889479,30.7814201 3.62449479,29.5193713 4.39249479,28.2058104 C5.59569479,28.2315665 7.66929479,27.9224933 9.48689479,27.7937128 L9.48689479,27.7937128 Z M5.36529479,26.6604445 C7.31089479,23.5954689 9.64049479,20.4789811 11.5860948,18.2897128 C10.7924948,20.2986884 10.0756948,23.5439567 9.69169479,26.2225908 C8.48849479,26.2483469 6.92689479,26.531664 5.36529479,26.6604445 L5.36529479,26.6604445 Z M26.7156948,23.4666884 C26.7668948,22.4622006 26.2548948,21.6122494 25.1540948,21.6122494 C23.8740948,21.6122494 21.8516948,22.7712738 19.7780948,25.8104933 C17.6532948,28.9269811 18.1396948,32.1980055 20.5204948,32.1980055 C21.7492948,32.1980055 22.9012948,31.2450299 23.7204948,30.1890299 C23.7204948,31.3995665 24.4372948,32.2237616 25.8196948,32.3010299 C27.2276948,32.3782982 28.8404948,30.9617128 29.5060948,29.5451274 C29.8388948,28.8239567 29.8388948,28.1800543 29.7364948,27.9482494 C29.6340948,27.7164445 29.4548948,27.7422006 29.3268948,27.9740055 C28.4308948,29.7511762 27.0228948,31.5025908 25.9732948,31.554103 C25.1028948,31.6056152 25.1284948,30.498103 25.7684948,29.0557616 C26.3828948,27.6906884 27.6628948,25.7589811 28.2260948,24.5999567 C28.8404948,23.3121518 28.6356948,22.2046396 28.2516948,21.7410299 C28.0724948,21.509225 27.8676948,21.5607372 27.6372948,21.8955665 C27.3556948,22.307664 27.0484948,22.8485421 26.7156948,23.4666884 L26.7156948,23.4666884 Z M24.4884948,27.4588835 C23.1828948,29.7254201 21.8516948,31.3738104 20.8020948,31.3480543 C19.8036948,31.3222982 20.1364948,29.0557616 21.4932948,26.8407372 C22.9012948,24.5484445 24.7700948,22.8742982 25.5892948,22.9515665 C26.3316948,23.0288347 26.1012948,24.6257128 24.4884948,27.4588835 L24.4884948,27.4588835 Z" id="A-a" fill="#FFFFFF"></path>
                <rect id="Rectangle-189" fill="#ABABAB" x="19" y="1" width="4" height="2"></rect>
                <polygon id="Rectangle-188" fill="#909090" points="23 -4.4408921e-16 25 -4.4408921e-16 25 4.29268293 23 4.29268293"></polygon>
            </g>
        </g>
    </g>
</svg>