<svg xmlns="http://www.w3.org/2000/svg" xmlns:xlink="http://www.w3.org/1999/xlink" width="128" height="128" viewBox="0 0 128 128">
  <defs>
    <filter id="android-device-a" width="148.5%" height="128.6%" x="-24.2%" y="-14.3%" filterUnits="objectBoundingBox">
      <feOffset dy="2" in="SourceAlpha" result="shadowOffsetOuter1"/>
      <feGaussianBlur in="shadowOffsetOuter1" result="shadowBlurOuter1" stdDeviation="3"/>
      <feColorMatrix in="shadowBlurOuter1" result="shadowMatrixOuter1" values="0 0 0 0 0   0 0 0 0 0   0 0 0 0 0  0 0 0 0.2 0"/>
      <feMerge>
        <feMergeNode in="shadowMatrixOuter1"/>
        <feMergeNode in="SourceGraphic"/>
      </feMerge>
    </filter>
    <linearGradient id="android-device-b" x1="50%" x2="50%" y1="0%" y2="100%">
      <stop offset="0%" stop-color="#F7EBDE"/>
      <stop offset="100%" stop-color="#DBCBBA"/>
    </linearGradient>
    <path id="android-device-c" d="M2,6.9921951 C2,3.68279713 4.68396266,1 8.00115495,1 L57.9988445,1 C61.3131909,1 63.9999995,3.69180017 63.9999995,6.9921951 L64,105.007805 C64,108.317203 61.3160373,111 57.998845,111 L8.00115501,111 C4.68680862,111 2,108.3082 2,105.007805 L2,6.9921951 Z"/>
    <filter id="android-device-d" width="101.6%" height="100.9%" x="-.8%" y="-.5%" filterUnits="objectBoundingBox">
      <feOffset dy="1" in="SourceAlpha" result="shadowOffsetInner1"/>
      <feComposite in="shadowOffsetInner1" in2="SourceAlpha" k2="-1" k3="1" operator="arithmetic" result="shadowInnerInner1"/>
      <feColorMatrix in="shadowInnerInner1" values="0 0 0 0 1   0 0 0 0 1   0 0 0 0 1  0 0 0 1 0"/>
    </filter>
    <linearGradient id="android-device-e" x1="50%" x2="50%" y1=".612%" y2="100%">
      <stop offset="0%" stop-opacity=".191"/>
      <stop offset="100%" stop-opacity=".459"/>
    </linearGradient>
    <radialGradient id="android-device-f" cx="50%" cy="8.854%" r="147.719%" fx="50%" fy="8.854%" gradientTransform="matrix(0 .61702 -1.64483 0 .646 -.22)">
      <stop offset="0%" stop-color="#5D5D5D"/>
      <stop offset="100%" stop-color="#343434"/>
    </radialGradient>
    <linearGradient id="android-device-g" x1="50%" x2="50%" y1="0%" y2="100%">
      <stop offset="0%" stop-opacity=".449"/>
      <stop offset="100%" stop-opacity=".526"/>
    </linearGradient>
    <circle id="android-device-h" cx="42.5" cy="5.5" r="1.5"/>
    <filter id="android-device-i" width="200%" height="200%" x="-50%" y="-50%" filterUnits="objectBoundingBox">
      <feGaussianBlur in="SourceAlpha" result="shadowBlurInner1" stdDeviation="1"/>
      <feOffset dy="1" in="shadowBlurInner1" result="shadowOffsetInner1"/>
      <feComposite in="shadowOffsetInner1" in2="SourceAlpha" k2="-1" k3="1" operator="arithmetic" result="shadowInnerInner1"/>
      <feColorMatrix in="shadowInnerInner1" values="0 0 0 0 1   0 0 0 0 1   0 0 0 0 1  0 0 0 0.0361396416 0"/>
    </filter>
    <linearGradient id="android-device-j" x1="100%" x2="100%" y1="0%" y2="100%">
      <stop offset="0%" stop-color="#CFCFCF"/>
      <stop offset="100%" stop-color="#BABABA"/>
    </linearGradient>
  </defs>
  <g fill="none" fill-rule="evenodd" filter="url(#android-device-a)" transform="translate(31 8)">
    <use fill="url(#android-device-b)" xlink:href="#android-device-c"/>
    <use fill="#000" filter="url(#android-device-d)" xlink:href="#android-device-c"/>
    <path fill="url(#android-device-e)" fill-rule="nonzero" d="M57.9988445,0 L8.00115495,0 C4.13292178,0 1,3.12926932 1,6.9921951 L1,105.007805 C1,108.863696 4.13773693,112 8.00115501,112 L57.998845,112 C61.8670782,112 65,108.870731 65,105.007805 L65,6.9921951 C65,3.13630373 61.8622625,0 57.9988445,0 Z M57.9988445,1 C61.3131909,1 64,3.69180017 64,6.9921951 L64,105.007805 C64,108.317203 61.3160373,111 57.998845,111 L8.00115501,111 C4.68680862,111 2,108.3082 2,105.007805 L2,6.9921951 C2,3.68279713 4.68396266,1 8.00115495,1 L57.9988445,1 Z"/>
    <polygon fill="url(#android-device-f)" points="4 9 62 9 62 103 4 103"/>
    <path fill="url(#android-device-g)" fill-rule="nonzero" d="M62,9 L62,103 L4,103 L4,9 L62,9 Z M61,9.999 L5,9.999 L5,101.999 L61,101.999 L61,9.999 Z"/>
    <use fill="#232323" fill-opacity=".963" xlink:href="#android-device-h"/>
    <use fill="#000" filter="url(#android-device-i)" xlink:href="#android-device-h"/>
    <circle cx="42.5" cy="5.5" r="1"/>
    <line x1="29.5" x2="38.5" y1="5.5" y2="5.5" stroke="#8A837B" stroke-linecap="round"/>
    <line x1="23.5" x2="25.5" y1="5.5" y2="5.5" stroke="#8A837B" stroke-linecap="round"/>
    <path fill="url(#android-device-j)" d="M1 21L1 21 1 21 1 31C.44771525 31 2.80124436e-10 30.5522847 2.80124368e-10 30L2.80124368e-10 22C2.80124301e-10 21.4477152.44771525 21 1 21zM1 33L1 33 1 33 1 43C.44771525 43 2.80124436e-10 42.5522847 2.80124368e-10 42L2.80124368e-10 34C2.80124301e-10 33.4477152.44771525 33 1 33zM65 38C65.5522848 38 66 38.4477152 66 39L66 47C66 47.5522847 65.5522848 48 65 48L65 48 65 48 65 38z"/>
  </g>
</svg>
