<svg xmlns="http://www.w3.org/2000/svg" xmlns:xlink="http://www.w3.org/1999/xlink" width="128" height="128" viewBox="0 0 128 128">
  <defs>
    <filter id="drive-harddisk-a" width="132%" height="130.5%" x="-16%" y="-15.2%" filterUnits="objectBoundingBox">
      <feOffset dy="2" in="SourceAlpha" result="shadowOffsetOuter1"/>
      <feGaussianBlur in="shadowOffsetOuter1" result="shadowBlurOuter1" stdDeviation="3"/>
      <feColorMatrix in="shadowBlurOuter1" result="shadowMatrixOuter1" values="0 0 0 0 0   0 0 0 0 0   0 0 0 0 0  0 0 0 0.2 0"/>
      <feMerge>
        <feMergeNode in="shadowMatrixOuter1"/>
        <feMergeNode in="SourceGraphic"/>
      </feMerge>
    </filter>
    <linearGradient id="drive-harddisk-b" x1="-5.578%" x2="95.89%" y1="40.232%" y2="40.232%">
      <stop offset="0%" stop-color="#2D8A94"/>
      <stop offset="29.932%" stop-color="#81D7C6"/>
      <stop offset="83.27%" stop-color="#5FD0C3"/>
      <stop offset="92.574%" stop-color="#44BDAB"/>
      <stop offset="100%" stop-color="#0C857D"/>
    </linearGradient>
    <linearGradient id="drive-harddisk-d" x1="128.548%" x2="3.376%" y1="32.065%" y2="32.065%">
      <stop offset="0%" stop-color="#B2F1EE" stop-opacity="0"/>
      <stop offset="87.281%" stop-color="#B3F2EF" stop-opacity=".452"/>
      <stop offset="93.737%" stop-color="#77CACC" stop-opacity=".467"/>
      <stop offset="100%" stop-color="#0C767F" stop-opacity=".5"/>
    </linearGradient>
    <path id="drive-harddisk-c" d="M13.5521291,1 L86.4478709,1 C89.028049,1 91.1845122,2.96329977 91.4259352,5.53215826 L98.5612859,81.4557689 C98.8536014,84.5661487 99,87.6885182 99,90.8126038 L99,97.75 C99,101.20178 96.2017797,104 92.75,104 L7.25,104 C3.79822031,104 1,101.20178 1,97.75 L1,90.8126038 C1,87.6885182 1.14639862,84.5661487 1.43871414,81.4557689 L8.5740648,5.53215826 C8.8154878,2.96329977 10.971951,1 13.5521291,1 Z"/>
    <linearGradient id="drive-harddisk-e" x1="50%" x2="50%" y1="2.631%" y2="100%">
      <stop offset="0%" stop-color="#00473E" stop-opacity=".508"/>
      <stop offset="100%" stop-color="#003428" stop-opacity=".62"/>
    </linearGradient>
    <linearGradient id="drive-harddisk-f" x1="50%" x2="2.738%" y1="49.672%" y2="49.798%">
      <stop offset="0%" stop-color="#FCFDFC"/>
      <stop offset="81.318%" stop-color="#FFF"/>
      <stop offset="100%" stop-color="#BDC6C4"/>
    </linearGradient>
    <linearGradient id="drive-harddisk-h" x1="99.734%" x2="73.708%" y1="100%" y2="100%">
      <stop offset="0%" stop-color="#A5B0AC"/>
      <stop offset="41.965%" stop-color="#E8F6EE" stop-opacity=".314"/>
      <stop offset="100%" stop-color="#CBCFCD" stop-opacity=".397"/>
    </linearGradient>
    <path id="drive-harddisk-g" d="M13.5526655,1 L86.4107357,1 C89.0064328,1 91.1704676,2.98626558 91.3924227,5.57245576 L91.5786133,7.74192285 L91.5786133,7.74192285 C90.4032627,6.65110401 88.8589984,6.04492188 87.2554602,6.04492188 L13.0090694,6.04492188 C11.3099685,6.04492188 9.66565667,6.64605712 8.3671875,7.74192285 L8.3671875,7.74192285 L8.3671875,7.74192285 L8.57454631,5.5327422 C8.81568899,2.9636316 10.9722626,1 13.5526655,1 Z"/>
    <linearGradient id="drive-harddisk-i" x1="50%" x2="50%" y1="-20.651%" y2="100%">
      <stop offset="0%" stop-opacity=".148"/>
      <stop offset="100%" stop-opacity="0"/>
    </linearGradient>
    <linearGradient id="drive-harddisk-l" x1="44.527%" x2="0%" y1="48.103%" y2="47.276%">
      <stop offset="0%" stop-color="#FEFEFE"/>
      <stop offset="77.706%" stop-color="#D8D8D8"/>
      <stop offset="100%" stop-color="#A2AEA8"/>
    </linearGradient>
    <linearGradient id="drive-harddisk-m" x1="100%" x2="74.044%" y1="100%" y2="100%">
      <stop offset="0%" stop-color="#AAB0AD"/>
      <stop offset="32.662%" stop-color="#E9F1F0" stop-opacity=".314"/>
      <stop offset="100%" stop-color="#F1FAF6" stop-opacity=".233"/>
    </linearGradient>
    <path id="drive-harddisk-k" d="M98.2520868,78.558352 L98.6588622,83.2169879 C98.8861796,85.8203616 99,88.4324009 99,91.0456801 L99,97.75 C99,101.20178 96.2017797,104 92.75,104 L7.25,104 C3.79822031,104 1,101.20178 1,97.75 L1,91.0533109 C1,88.4349517 1.11426339,85.8178398 1.34246406,83.2094439 L1.74779525,78.576398 C1.97370815,75.9941521 4.1355689,74.0127343 6.72767815,74.0121685 L93.2699475,73.9932795 C95.8632191,73.9927134 98.0265098,75.9749099 98.2520868,78.558352 Z"/>
    <filter id="drive-harddisk-j" width="102%" height="113.3%" x="-1%" y="-10%" filterUnits="objectBoundingBox">
      <feOffset dy="-2" in="SourceAlpha" result="shadowOffsetOuter1"/>
      <feColorMatrix in="shadowOffsetOuter1" values="0 0 0 0 1   0 0 0 0 1   0 0 0 0 1  0 0 0 0.160210883 0"/>
    </filter>
    <linearGradient id="drive-harddisk-n" x1="50%" x2="50%" y1="-20.244%" y2="100%">
      <stop offset="0%" stop-opacity=".18"/>
      <stop offset="100%" stop-opacity=".467"/>
    </linearGradient>
    <linearGradient id="drive-harddisk-o" x1="100%" x2="0%" y1="50%" y2="51.687%">
      <stop offset="0%" stop-color="#E3E3E3"/>
      <stop offset="68.204%" stop-color="#C1BFC1"/>
      <stop offset="100%" stop-color="#CBCBCB"/>
    </linearGradient>
    <linearGradient id="drive-harddisk-q" x1="50%" x2="50%" y1="0%" y2="100%">
      <stop offset="0%" stop-color="#FFF" stop-opacity=".5"/>
      <stop offset="100%" stop-opacity=".326"/>
    </linearGradient>
    <linearGradient id="drive-harddisk-s" x1="50%" x2="50%" y1="-13.675%" y2="100%">
      <stop offset="0%" stop-opacity="0"/>
      <stop offset="100%" stop-opacity=".111"/>
    </linearGradient>
    <path id="drive-harddisk-p" d="M4.75,86 L95.25,86 C97.3210678,86 99,87.6789322 99,89.75 L99,97.75 C99,101.20178 96.2017797,104 92.75,104 L7.25,104 C3.79822031,104 1,101.20178 1,97.75 L1,89.75 C1,87.6789322 2.67893219,86 4.75,86 Z"/>
    <filter id="drive-harddisk-r" width="103.1%" height="116.7%" x="-1.5%" y="-8.3%" filterUnits="objectBoundingBox">
      <feOffset dy="1" in="SourceAlpha" result="shadowOffsetInner1"/>
      <feComposite in="shadowOffsetInner1" in2="SourceAlpha" k2="-1" k3="1" operator="arithmetic" result="shadowInnerInner1"/>
      <feColorMatrix in="shadowInnerInner1" values="0 0 0 0 1   0 0 0 0 1   0 0 0 0 1  0 0 0 1 0"/>
    </filter>
    <radialGradient id="drive-harddisk-t" cx="54.402%" cy="50%" r="50%" fx="54.402%" fy="50%" gradientTransform="matrix(0 1 -1.14403 0 1.116 -.044)">
      <stop offset="0%" stop-color="#4A5D00" stop-opacity=".477"/>
      <stop offset="100%" stop-color="#465900" stop-opacity=".693"/>
    </radialGradient>
    <radialGradient id="drive-harddisk-u" cx="50%" cy="39.587%" r="60.364%" fx="50%" fy="39.587%" gradientTransform="matrix(0 1 -.75 0 .797 -.104)">
      <stop offset="0%" stop-color="#F4EF6B"/>
      <stop offset="99.921%" stop-color="#9BD918"/>
    </radialGradient>
  </defs>
  <g fill="none" fill-rule="evenodd" filter="url(#drive-harddisk-a)" transform="translate(14 12)">
    <use fill="url(#drive-harddisk-b)" xlink:href="#drive-harddisk-c"/>
    <use fill="url(#drive-harddisk-d)" fill-opacity=".8" xlink:href="#drive-harddisk-c"/>
    <path fill="url(#drive-harddisk-e)" fill-rule="nonzero" d="M86.4478709,0 L13.5521291,0 C10.4559154,0 7.86815954,2.35595972 7.57845194,5.43858991 L0.443101284,81.3622006 C0.147862602,84.5036842 0,87.6572774 0,90.8126038 L0,97.75 C0,101.754064 3.24593556,105 7.25,105 L92.75,105 C96.7540644,105 100,101.754064 100,97.75 L100,90.8126038 C100,87.6572774 99.8521374,84.5036842 99.5568987,81.3622006 L92.4215481,5.43858991 C92.1318405,2.35595972 89.5440846,0 86.4478709,0 Z M86.4478709,1 C89.028049,1 91.1845122,2.96329977 91.4259352,5.53215826 L98.5612859,81.4557689 C98.8536014,84.5661487 99,87.6885182 99,90.8126038 L99,97.75 C99,101.20178 96.2017797,104 92.75,104 L7.25,104 C3.79822031,104 1,101.20178 1,97.75 L1,90.8126038 C1,87.6885182 1.14639862,84.5661487 1.43871414,81.4557689 L8.5740648,5.53215826 C8.8154878,2.96329977 10.971951,1 13.5521291,1 L86.4478709,1 Z"/>
    <use fill="url(#drive-harddisk-f)" xlink:href="#drive-harddisk-g"/>
    <use fill="url(#drive-harddisk-h)" xlink:href="#drive-harddisk-g"/>
    <path fill="url(#drive-harddisk-i)" fill-rule="nonzero" d="M86.4107357,0 L13.5526655,0 C10.456182,0 7.86829369,2.35635792 7.57892249,5.43929064 L7.15000612,10.0089239 L9.24257336,8.32053249 C10.3088399,7.49872101 11.6393482,7.04492188 13.0090694,7.04492188 L87.2554602,7.04492188 C88.6066782,7.04492188 89.9079492,7.55571994 90.8983558,8.47489607 L92.796374,10.236408 L92.3887601,5.48694691 C92.122414,2.3835187 89.5255722,0 86.4107357,0 Z M86.4107357,1 C89.0064328,1 91.1704676,2.98626558 91.3924227,5.57245576 L91.5786133,7.74192285 C90.4032627,6.65110401 88.8589984,6.04492188 87.2554602,6.04492188 L13.0090694,6.04492188 C11.4161624,6.04492188 9.87140967,6.5732634 8.61463226,7.54227162 L8.3671875,7.74192285 L8.57454631,5.5327422 C8.81568899,2.9636316 10.9722626,1 13.5526655,1 L86.4107357,1 Z"/>
    <use fill="#000" filter="url(#drive-harddisk-j)" xlink:href="#drive-harddisk-k"/>
    <use fill="url(#drive-harddisk-l)" xlink:href="#drive-harddisk-k"/>
    <use fill="url(#drive-harddisk-m)" xlink:href="#drive-harddisk-k"/>
    <path fill="url(#drive-harddisk-n)" fill-rule="nonzero" d="M93.2697293,72.9932793 L6.72745988,73.0121686 C3.61692879,73.0128475 1.02269588,75.3905488 0.751600406,78.489244 L0.346269219,83.1222898 C0.115532978,85.7596679 0,88.4058588 0,91.0533109 L0,97.75 C0,101.754064 3.24593556,105 7.25,105 L92.75,105 C96.7540644,105 100,101.754064 100,97.75 L100,91.0456801 C100,88.4033644 99.8849149,85.7623025 99.6550718,83.1300024 L99.2482963,78.4713665 C98.977604,75.3712361 96.3816552,72.9926003 93.2697293,72.9932793 Z M93.2699475,73.9932793 C95.8632191,73.9927134 98.0265098,75.9749099 98.2520868,78.558352 L98.6588622,83.2169879 C98.8861796,85.8203616 99,88.4324009 99,91.0456801 L99,97.75 C99,101.20178 96.2017797,104 92.75,104 L7.25,104 C3.79822031,104 1,101.20178 1,97.75 L1,91.0533109 C1,88.4349517 1.11426339,85.8178398 1.34246406,83.2094439 L1.74779525,78.576398 C1.97370815,75.9941521 4.1355689,74.0127343 6.72767815,74.0121685 L93.2699475,73.9932793 Z"/>
    <use fill="url(#drive-harddisk-o)" fill-opacity=".6" xlink:href="#drive-harddisk-p"/>
    <use fill="url(#drive-harddisk-q)" xlink:href="#drive-harddisk-p"/>
    <use fill="#000" filter="url(#drive-harddisk-r)" xlink:href="#drive-harddisk-p"/>
    <path stroke="url(#drive-harddisk-s)" d="M95.25,85.5 C96.4236051,85.5 97.4861051,85.9756975 98.2552038,86.7447962 C99.0243025,87.5138949 99.5,88.5763949 99.5,89.75 L99.5,89.75 L99.5,97.75 C99.5,99.613961 98.7444805,101.301461 97.5229708,102.522971 C96.301461,103.744481 94.613961,104.5 92.75,104.5 L92.75,104.5 L7.25,104.5 C5.38603897,104.5 3.69853897,103.744481 2.47702923,102.522971 C1.25551948,101.301461 0.5,99.613961 0.5,97.75 L0.5,97.75 L0.5,89.75 C0.5,88.5763949 0.975697453,87.5138949 1.74479618,86.7447962 C2.51389491,85.9756975 3.57639491,85.5 4.75,85.5 L4.75,85.5 Z"/>
    <path fill="url(#drive-harddisk-t)" d="M82,101 C84.7614237,101 87,99.209139 87,97 C87,94.790861 84.7614237,93 82,93 C79.2385763,93 77,94.790861 77,97 C77,99.209139 79.2385763,101 82,101 Z"/>
    <ellipse cx="82" cy="96" fill="url(#drive-harddisk-u)" rx="4" ry="3"/>
  </g>
</svg>
