<svg xmlns="http://www.w3.org/2000/svg" xmlns:xlink="http://www.w3.org/1999/xlink" width="128" height="128" viewBox="0 0 128 128">
  <defs>
    <filter id="drive-removable-media-usb-a" width="132%" height="130.5%" x="-16%" y="-15.2%" filterUnits="objectBoundingBox">
      <feOffset dy="2" in="SourceAlpha" result="shadowOffsetOuter1"/>
      <feGaussianBlur in="shadowOffsetOuter1" result="shadowBlurOuter1" stdDeviation="3"/>
      <feColorMatrix in="shadowBlurOuter1" result="shadowMatrixOuter1" values="0 0 0 0 0   0 0 0 0 0   0 0 0 0 0  0 0 0 0.2 0"/>
      <feMerge>
        <feMergeNode in="shadowMatrixOuter1"/>
        <feMergeNode in="SourceGraphic"/>
      </feMerge>
    </filter>
    <linearGradient id="drive-removable-media-usb-b" x1="2.924%" x2="95.934%" y1="40.22%" y2="40.22%">
      <stop offset="0%" stop-color="#D95D5D"/>
      <stop offset="32.671%" stop-color="#D86D6D"/>
      <stop offset="84.578%" stop-color="#DA5656"/>
      <stop offset="93.38%" stop-color="#BB3737"/>
      <stop offset="100%" stop-color="#7F0000"/>
    </linearGradient>
    <linearGradient id="drive-removable-media-usb-d" x1="125.69%" x2="3.54%" y1="32.745%" y2="32.745%">
      <stop offset="0%" stop-color="#FFF" stop-opacity="0"/>
      <stop offset="90.113%" stop-color="#FFBABA" stop-opacity=".452"/>
      <stop offset="94.27%" stop-color="#E27A7A" stop-opacity=".467"/>
      <stop offset="100%" stop-color="#A12727" stop-opacity=".5"/>
    </linearGradient>
    <linearGradient id="drive-removable-media-usb-e" x1="60.26%" x2="54.838%" y1="63.963%" y2="34.947%">
      <stop offset="0%" stop-color="#FFF" stop-opacity=".207"/>
      <stop offset="100%" stop-color="#FFF" stop-opacity="0"/>
    </linearGradient>
    <path id="drive-removable-media-usb-c" d="M13.5521291,1 L86.4478709,1 C89.028049,1 91.1845122,2.96329977 91.4259352,5.53215826 L98.5612859,81.4557689 C98.8536014,84.5661487 99,87.6885182 99,90.8126038 L99,97.75 C99,101.20178 96.2017797,104 92.75,104 L7.25,104 C3.79822031,104 1,101.20178 1,97.75 L1,90.8126038 C1,87.6885182 1.14639862,84.5661487 1.43871414,81.4557689 L8.5740648,5.53215826 C8.8154878,2.96329977 10.971951,1 13.5521291,1 Z"/>
    <linearGradient id="drive-removable-media-usb-f" x1="50%" x2="50%" y1="2.631%" y2="100%">
      <stop offset="0%" stop-color="#470000" stop-opacity=".508"/>
      <stop offset="100%" stop-color="#340000" stop-opacity=".62"/>
    </linearGradient>
    <linearGradient id="drive-removable-media-usb-g" x1="50%" x2="2.738%" y1="49.672%" y2="49.798%">
      <stop offset="0%" stop-color="#FCFCFD"/>
      <stop offset="81.699%" stop-color="#FFF"/>
      <stop offset="100%" stop-color="#C3AFB2"/>
    </linearGradient>
    <linearGradient id="drive-removable-media-usb-i" x1="100%" x2="73.708%" y1="100%" y2="100%">
      <stop offset="0%" stop-color="#AE8D93"/>
      <stop offset="41.965%" stop-color="#EFD3D5" stop-opacity=".314"/>
      <stop offset="100%" stop-color="#CCC1C1" stop-opacity=".397"/>
    </linearGradient>
    <path id="drive-removable-media-usb-h" d="M13.5526655,1 L86.4107357,1 C89.0064328,1 91.1704676,2.98626558 91.3924227,5.57245576 L91.5786133,7.74192285 L91.5786133,7.74192285 C90.4032627,6.65110401 88.8589984,6.04492188 87.2554602,6.04492188 L13.0090694,6.04492188 C11.3099685,6.04492188 9.66565667,6.64605712 8.3671875,7.74192285 L8.3671875,7.74192285 L8.3671875,7.74192285 L8.57454631,5.5327422 C8.81568899,2.9636316 10.9722626,1 13.5526655,1 Z"/>
    <linearGradient id="drive-removable-media-usb-j" x1="50%" x2="50%" y1="-23.484%" y2="100%">
      <stop offset="0%" stop-opacity=".148"/>
      <stop offset="100%" stop-opacity="0"/>
    </linearGradient>
    <linearGradient id="drive-removable-media-usb-m" x1="44.527%" x2="0%" y1="48.103%" y2="47.276%">
      <stop offset="0%" stop-color="#FEFEFE"/>
      <stop offset="77.706%" stop-color="#D8D8D8"/>
      <stop offset="100%" stop-color="#AB9699"/>
    </linearGradient>
    <linearGradient id="drive-removable-media-usb-n" x1="100%" x2="73.708%" y1="100%" y2="100%">
      <stop offset="0%" stop-color="#AB9699"/>
      <stop offset="32.662%" stop-color="#EDD5D6" stop-opacity=".314"/>
      <stop offset="100%" stop-color="#F6EAEA" stop-opacity=".233"/>
    </linearGradient>
    <path id="drive-removable-media-usb-l" d="M98.2520868,78.558352 L98.6588622,83.2169879 C98.8861796,85.8203616 99,88.4324009 99,91.0456801 L99,97.75 C99,101.20178 96.2017797,104 92.75,104 L7.25,104 C3.79822031,104 1,101.20178 1,97.75 L1,91.0533109 C1,88.4349517 1.11426339,85.8178398 1.34246406,83.2094439 L1.74779525,78.576398 C1.97370815,75.9941521 4.1355689,74.0127343 6.72767815,74.0121685 L93.2699475,73.9932795 C95.8632191,73.9927134 98.0265098,75.9749099 98.2520868,78.558352 Z"/>
    <filter id="drive-removable-media-usb-k" width="102%" height="113.3%" x="-1%" y="-10%" filterUnits="objectBoundingBox">
      <feOffset dy="-2" in="SourceAlpha" result="shadowOffsetOuter1"/>
      <feColorMatrix in="shadowOffsetOuter1" values="0 0 0 0 1   0 0 0 0 1   0 0 0 0 1  0 0 0 0.160210883 0"/>
    </filter>
    <linearGradient id="drive-removable-media-usb-o" x1="50%" x2="50%" y1="-20.244%" y2="100%">
      <stop offset="0%" stop-opacity=".18"/>
      <stop offset="100%" stop-opacity=".467"/>
    </linearGradient>
    <linearGradient id="drive-removable-media-usb-p" x1="100%" x2="0%" y1="50%" y2="51.687%">
      <stop offset="0%" stop-color="#E3E3E3"/>
      <stop offset="68.204%" stop-color="#C1BFC1"/>
      <stop offset="100%" stop-color="#CBCBCB"/>
    </linearGradient>
    <linearGradient id="drive-removable-media-usb-r" x1="50%" x2="50%" y1="0%" y2="100%">
      <stop offset="0%" stop-color="#FFF" stop-opacity=".5"/>
      <stop offset="100%" stop-opacity=".326"/>
    </linearGradient>
    <linearGradient id="drive-removable-media-usb-t" x1="50%" x2="50%" y1="-13.675%" y2="100%">
      <stop offset="0%" stop-opacity="0"/>
      <stop offset="100%" stop-opacity=".111"/>
    </linearGradient>
    <path id="drive-removable-media-usb-q" d="M4.75,86 L95.25,86 C97.3210678,86 99,87.6789322 99,89.75 L99,97.75 C99,101.20178 96.2017797,104 92.75,104 L7.25,104 C3.79822031,104 1,101.20178 1,97.75 L1,89.75 C1,87.6789322 2.67893219,86 4.75,86 Z"/>
    <filter id="drive-removable-media-usb-s" width="103.1%" height="116.7%" x="-1.5%" y="-8.3%" filterUnits="objectBoundingBox">
      <feOffset dy="1" in="SourceAlpha" result="shadowOffsetInner1"/>
      <feComposite in="shadowOffsetInner1" in2="SourceAlpha" k2="-1" k3="1" operator="arithmetic" result="shadowInnerInner1"/>
      <feColorMatrix in="shadowInnerInner1" values="0 0 0 0 1   0 0 0 0 1   0 0 0 0 1  0 0 0 1 0"/>
    </filter>
    <radialGradient id="drive-removable-media-usb-u" cx="50%" cy="22.082%" r="79.752%" fx="50%" fy="22.082%" gradientTransform="matrix(0 1 -.8 0 .677 -.28)">
      <stop offset="0%" stop-color="#760000" stop-opacity=".377"/>
      <stop offset="0%" stop-color="#760000" stop-opacity=".377"/>
      <stop offset="100%" stop-color="#530000" stop-opacity=".609"/>
    </radialGradient>
    <radialGradient id="drive-removable-media-usb-v" cx="50%" cy="41.549%" r="58.354%" fx="50%" fy="41.549%" gradientTransform="matrix(0 1 -.75 0 .812 -.085)">
      <stop offset="0%" stop-color="#F2CC8E"/>
      <stop offset="99.921%" stop-color="#D8723A"/>
    </radialGradient>
    <path id="drive-removable-media-usb-w" d="M64.2253782,24 L70.2925404,32.3137255 L65.443,32.313 L65.443,54.231 L73.4343376,49.4684547 C74.3887834,48.6948358 74.5752802,48.270807 74.5939184,47.3159401 L74.5955925,47.1304669 L74.595,44.784 L71.5059729,44.7843137 L71.5059729,37.5098039 L80,37.5098039 L80,44.7843137 L76.668,44.784 L76.6685764,47.2747199 C76.6749745,49.7161345 74.9090993,50.6170355 74.9090993,50.6170355 L74.9090993,50.6170355 L65.443,56.453 L65.4436133,66.7126202 C68.1370643,67.1828152 70.1814474,69.1813441 70.2881593,71.6046129 L70.2925404,71.8039216 C70.2925404,74.6736364 67.5761794,77 64.2253782,77 C60.874577,77 58.1582159,74.6736364 58.1582159,71.8039216 C58.1582159,69.2903426 60.2422033,67.1936217 63.0111526,66.7119215 L63.011,61.807 L54.5599475,56.7001587 C54.5599475,56.7001587 52.7940723,55.8155882 52.7940723,53.425887 L52.8036695,53.425887 L52.8030582,48.6219574 C50.6318974,48.2395917 49,46.6033286 49,44.6427824 C49,42.3985288 51.1383688,40.5792017 53.7761804,40.5792017 C56.413992,40.5792017 58.5523609,42.3985288 58.5523609,44.6427824 C58.5523609,46.5658149 56.9823165,48.1768554 54.8733338,48.5986378 L54.8734543,53.281634 C54.8734543,54.3485621 55.0206106,54.7677124 56.0347091,55.573352 L63.011,59.649 L63.011,32.313 L58.1582159,32.3137255 L64.2253782,24 Z"/>
    <filter id="drive-removable-media-usb-x" width="112.9%" height="107.5%" x="-6.5%" y="-3.8%" filterUnits="objectBoundingBox">
      <feGaussianBlur in="SourceAlpha" result="shadowBlurInner1" stdDeviation="1.5"/>
      <feOffset dy="1" in="shadowBlurInner1" result="shadowOffsetInner1"/>
      <feComposite in="shadowOffsetInner1" in2="SourceAlpha" k2="-1" k3="1" operator="arithmetic" result="shadowInnerInner1"/>
      <feColorMatrix in="shadowInnerInner1" values="0 0 0 0 1   0 0 0 0 0.537451738   0 0 0 0 0.509984756  0 0 0 0.6504316 0"/>
    </filter>
  </defs>
  <g fill="none" fill-rule="evenodd">
    <g filter="url(#drive-removable-media-usb-a)" transform="translate(14 12)">
      <use fill="url(#drive-removable-media-usb-b)" xlink:href="#drive-removable-media-usb-c"/>
      <use fill="url(#drive-removable-media-usb-d)" xlink:href="#drive-removable-media-usb-c"/>
      <use fill="url(#drive-removable-media-usb-e)" xlink:href="#drive-removable-media-usb-c"/>
      <path fill="url(#drive-removable-media-usb-f)" fill-rule="nonzero" d="M86.4478709,0 L13.5521291,0 C10.4559154,0 7.86815954,2.35595972 7.57845194,5.43858991 L0.443101284,81.3622006 C0.147862602,84.5036842 0,87.6572774 0,90.8126038 L0,97.75 C0,101.754064 3.24593556,105 7.25,105 L92.75,105 C96.7540644,105 100,101.754064 100,97.75 L100,90.8126038 C100,87.6572774 99.8521374,84.5036842 99.5568987,81.3622006 L92.4215481,5.43858991 C92.1318405,2.35595972 89.5440846,0 86.4478709,0 Z M86.4478709,1 C89.028049,1 91.1845122,2.96329977 91.4259352,5.53215826 L98.5612859,81.4557689 C98.8536014,84.5661487 99,87.6885182 99,90.8126038 L99,97.75 C99,101.20178 96.2017797,104 92.75,104 L7.25,104 C3.79822031,104 1,101.20178 1,97.75 L1,90.8126038 C1,87.6885182 1.14639862,84.5661487 1.43871414,81.4557689 L8.5740648,5.53215826 C8.8154878,2.96329977 10.971951,1 13.5521291,1 L86.4478709,1 Z"/>
      <use fill="url(#drive-removable-media-usb-g)" xlink:href="#drive-removable-media-usb-h"/>
      <use fill="url(#drive-removable-media-usb-i)" xlink:href="#drive-removable-media-usb-h"/>
      <path fill="url(#drive-removable-media-usb-j)" fill-rule="nonzero" d="M86.4107357,0 L13.5526655,0 C10.456182,0 7.86829369,2.35635792 7.57892249,5.43929064 L7.15000612,10.0089239 L9.24257336,8.32053249 C10.3088399,7.49872101 11.6393482,7.04492188 13.0090694,7.04492188 L87.2554602,7.04492188 C88.6066782,7.04492188 89.9079492,7.55571994 90.8983558,8.47489607 L92.796374,10.236408 L92.3887601,5.48694691 C92.122414,2.3835187 89.5255722,0 86.4107357,0 Z M86.4107357,1 C89.0064328,1 91.1704676,2.98626558 91.3924227,5.57245576 L91.5786133,7.74192285 C90.4032627,6.65110401 88.8589984,6.04492188 87.2554602,6.04492188 L13.0090694,6.04492188 C11.4161624,6.04492188 9.87140967,6.5732634 8.61463226,7.54227162 L8.3671875,7.74192285 L8.57454631,5.5327422 C8.81568899,2.9636316 10.9722626,1 13.5526655,1 L86.4107357,1 Z"/>
      <use fill="#000" filter="url(#drive-removable-media-usb-k)" xlink:href="#drive-removable-media-usb-l"/>
      <use fill="url(#drive-removable-media-usb-m)" xlink:href="#drive-removable-media-usb-l"/>
      <use fill="url(#drive-removable-media-usb-n)" xlink:href="#drive-removable-media-usb-l"/>
      <path fill="url(#drive-removable-media-usb-o)" fill-rule="nonzero" d="M93.2697293,72.9932793 L6.72745988,73.0121686 C3.61692879,73.0128475 1.02269588,75.3905488 0.751600406,78.489244 L0.346269219,83.1222898 C0.115532978,85.7596679 0,88.4058588 0,91.0533109 L0,97.75 C0,101.754064 3.24593556,105 7.25,105 L92.75,105 C96.7540644,105 100,101.754064 100,97.75 L100,91.0456801 C100,88.4033644 99.8849149,85.7623025 99.6550718,83.1300024 L99.2482963,78.4713665 C98.977604,75.3712361 96.3816552,72.9926003 93.2697293,72.9932793 Z M93.2699475,73.9932793 C95.8632191,73.9927134 98.0265098,75.9749099 98.2520868,78.558352 L98.6588622,83.2169879 C98.8861796,85.8203616 99,88.4324009 99,91.0456801 L99,97.75 C99,101.20178 96.2017797,104 92.75,104 L7.25,104 C3.79822031,104 1,101.20178 1,97.75 L1,91.0533109 C1,88.4349517 1.11426339,85.8178398 1.34246406,83.2094439 L1.74779525,78.576398 C1.97370815,75.9941521 4.1355689,74.0127343 6.72767815,74.0121685 L93.2699475,73.9932793 Z"/>
      <use fill="url(#drive-removable-media-usb-p)" fill-opacity=".6" xlink:href="#drive-removable-media-usb-q"/>
      <use fill="url(#drive-removable-media-usb-r)" xlink:href="#drive-removable-media-usb-q"/>
      <use fill="#000" filter="url(#drive-removable-media-usb-s)" xlink:href="#drive-removable-media-usb-q"/>
      <path stroke="url(#drive-removable-media-usb-t)" d="M95.25,85.5 C96.4236051,85.5 97.4861051,85.9756975 98.2552038,86.7447962 C99.0243025,87.5138949 99.5,88.5763949 99.5,89.75 L99.5,89.75 L99.5,97.75 C99.5,99.613961 98.7444805,101.301461 97.5229708,102.522971 C96.301461,103.744481 94.613961,104.5 92.75,104.5 L92.75,104.5 L7.25,104.5 C5.38603897,104.5 3.69853897,103.744481 2.47702923,102.522971 C1.25551948,101.301461 0.5,99.613961 0.5,97.75 L0.5,97.75 L0.5,89.75 C0.5,88.5763949 0.975697453,87.5138949 1.74479618,86.7447962 C2.51389491,85.9756975 3.57639491,85.5 4.75,85.5 L4.75,85.5 Z"/>
      <path fill="url(#drive-removable-media-usb-u)" d="M82,101 C84.7614237,101 87,99.209139 87,97 C87,94.790861 84.7614237,93 82,93 C79.2385763,93 77,94.790861 77,97 C77,99.209139 79.2385763,101 82,101 Z"/>
      <ellipse cx="82" cy="96" fill="url(#drive-removable-media-usb-v)" rx="4" ry="3"/>
    </g>
    <use fill="#FFF" xlink:href="#drive-removable-media-usb-w"/>
    <use fill="#000" filter="url(#drive-removable-media-usb-x)" xlink:href="#drive-removable-media-usb-w"/>
  </g>
</svg>
