<svg xmlns="http://www.w3.org/2000/svg" xmlns:xlink="http://www.w3.org/1999/xlink" width="128" height="128" viewBox="0 0 128 128">
  <defs>
    <filter id="media-dvd-a" width="130.4%" height="130.4%" x="-15.2%" y="-15.2%" filterUnits="objectBoundingBox">
      <feOffset dy="2" in="SourceAlpha" result="shadowOffsetOuter1"/>
      <feGaussianBlur in="shadowOffsetOuter1" result="shadowBlurOuter1" stdDeviation="3"/>
      <feColorMatrix in="shadowBlurOuter1" result="shadowMatrixOuter1" values="0 0 0 0 0   0 0 0 0 0   0 0 0 0 0  0 0 0 0.2 0"/>
      <feMerge>
        <feMergeNode in="shadowMatrixOuter1"/>
        <feMergeNode in="SourceGraphic"/>
      </feMerge>
    </filter>
    <linearGradient id="media-dvd-b" x1="55.236%" x2="55.236%" y1="99.549%" y2="0%">
      <stop offset="0%" stop-color="#DBDBDB"/>
      <stop offset="10.762%" stop-color="#DFDFDF"/>
      <stop offset="34.919%" stop-color="#E2E2F0"/>
      <stop offset="66.968%" stop-color="#F8EEEE"/>
      <stop offset="100%" stop-color="#F7F7F7"/>
    </linearGradient>
    <linearGradient id="media-dvd-d" x1="45.043%" x2="44.765%" y1="99.549%" y2=".45%">
      <stop offset="0%" stop-color="#A0A0A0"/>
      <stop offset="100%" stop-color="#C8C8C8"/>
    </linearGradient>
    <linearGradient id="media-dvd-e" x1="50%" x2="50%" y1="1.318%" y2="60.158%">
      <stop offset="0%" stop-color="#FFF"/>
      <stop offset="21.25%" stop-color="#FFF"/>
      <stop offset="100%" stop-color="#FFF" stop-opacity="0"/>
    </linearGradient>
    <path id="media-dvd-c" d="M56,0 C25.0720536,0 0,25.0720546 0,56 C0,86.9279454 25.0720536,112 56,112 C86.9279464,112 112,86.9279454 112,56 C112,25.0720546 86.9279464,0 56,0 Z M56,37 C66.4879178,37 75,45.5120719 75,56 C75,66.4880103 66.488,75 56,75 C45.5119897,75 37,66.4880103 37,56 C37,45.512 45.5119897,37 56,37 Z"/>
    <linearGradient id="media-dvd-f" x1="50%" x2="50%" y1="-9.503%" y2="13.124%">
      <stop offset="0%" stop-color="#FFF" stop-opacity=".89"/>
      <stop offset="100%" stop-color="#FFF" stop-opacity=".107"/>
    </linearGradient>
  </defs>
  <g fill="none" fill-rule="evenodd">
    <g filter="url(#media-dvd-a)" transform="translate(8 8)">
      <g fill-rule="nonzero" stroke-linecap="square" stroke-linejoin="round">
        <use fill="url(#media-dvd-b)" xlink:href="#media-dvd-c"/>
        <path stroke="url(#media-dvd-d)" d="M56,-0.49995905 C71.602033,-0.49995905 85.7270226,5.82401434 95.9515041,16.0484958 C106.175986,26.2729775 112.499959,40.3979673 112.499959,56 C112.499959,71.6020327 106.175986,85.7270225 95.9515041,95.9515042 C85.7270226,106.175986 71.602033,112.499959 56,112.499959 C40.397967,112.499959 26.2729774,106.175986 16.0484959,95.9515042 C5.82401427,85.7270225 -0.49995905,71.6020327 -0.49995905,56 C-0.49995905,40.3979673 5.82401427,26.2729775 16.0484959,16.0484958 C26.2729774,5.82401434 40.397967,-0.49995905 56,-0.49995905 Z M56,37.499959 C50.893985,37.499959 46.2690154,39.5720296 42.9205231,42.9205219 C39.5720292,46.2690159 37.499959,50.8939874 37.4999591,56 C37.4999591,61.1060163 39.5720281,65.7309869 42.9205206,69.0794794 C46.2690131,72.4279719 50.8939837,74.5000409 56,74.5000409 C61.1060126,74.5000409 65.7309841,72.4279708 69.0794781,69.0794769 C72.4279704,65.7309846 74.5000409,61.106015 74.5000409,56 C74.5000409,50.894025 72.4279494,46.269056 69.0794473,42.9205539 C65.7309435,39.5720502 61.1059726,37.4999591 56,37.4999591 Z"/>
        <path stroke="url(#media-dvd-e)" stroke-linejoin="square" d="M56,0.5 C71.3259019,0.5 85.2009018,6.71204916 95.2444263,16.7555737 C105.287951,26.7990983 111.5,40.6740984 111.5,56 C111.5,71.3259016 105.287951,85.2009017 95.2444263,95.2444263 C85.2009018,105.287951 71.3259019,111.5 56,111.5 C40.6740981,111.5 26.7990982,105.287951 16.7555737,95.2444263 C6.71204909,85.2009017 0.5,71.3259016 0.5,56 C0.5,40.6740984 6.71204909,26.7990983 16.7555737,16.7555737 C26.7990982,6.71204916 40.6740981,0.5 56,0.5 Z M56,36.5 C50.617996,36.5 45.7429574,38.6839319 42.2134453,42.2134441 C38.6839314,45.7429579 36.5,50.6179987 36.5,56 C36.5,61.3820053 38.6839304,66.2570449 42.2134428,69.7865572 C45.7429551,73.3160696 50.6179947,75.5 56,75.5 C61.3820013,75.5 66.2570421,73.3160686 69.7865559,69.7865547 C73.3160681,66.2570426 75.5,61.382004 75.5,56 C75.5,50.6180382 73.316048,45.742999 69.7865251,42.2134761 C66.2570005,38.6839515 61.3819591,36.5 56,36.5 Z"/>
      </g>
      <path stroke="#000" stroke-linecap="square" stroke-linejoin="round" stroke-opacity=".05" stroke-width="4" d="M77.000458,56.000475 C77.000458,67.5985071 67.5982865,77.000487 56.000255,77.000487 C44.4022235,77.000487 35.00018,67.5983791 35.00018,56.000347 C35.00018,44.4023149 44.4022235,35.000207 56.000255,35.000207 C67.5982865,35.000207 77.000458,44.4021869 77.000458,56.000219"/>
      <path fill="#BCBCBC" fill-rule="nonzero" stroke="#A8A8A8" stroke-linecap="square" stroke-linejoin="round" d="M56,36.5 C61.3819647,36.5 66.2570045,38.6839501 69.786527,42.2134726 C73.3160501,45.7429957 75.5,50.6180364 75.5,56 C75.5,61.3820098 73.3160712,66.2570487 69.7865603,69.7865596 C66.2570484,73.3160715 61.3820082,75.5 56,75.5 C50.6179924,75.5 45.7429534,73.3160702 42.213442,69.7865588 C38.6839295,66.2570463 36.5,61.3820061 36.5,56 C36.5,50.6179939 38.6839295,45.7429537 42.213442,42.2134412 C45.7429534,38.6839298 50.6179924,36.5 56,36.5 Z M56,48.5 C53.9300055,48.5 52.0550464,49.340071 50.6975592,50.6975581 C49.3400706,52.0550468 48.5,53.9300077 48.5,56 C48.5,58.0699923 49.3400706,59.9449532 50.6975592,61.3024419 C52.0550464,62.659929 53.9300055,63.5 56,63.5 C58.0699912,63.5 59.9449511,62.659928 61.3024396,61.3024396 C62.659928,59.9449511 63.5,58.0699912 63.5,56 C63.5,53.9300088 62.659928,52.0550489 61.3024396,50.6975604 C59.9449511,49.340072 58.0699912,48.5 56,48.5 Z" opacity=".9"/>
      <path fill="#FFF" fill-opacity=".206" fill-rule="nonzero" d="M56,44 C49.376004,44 44,49.376 44,56 C44,62.624 49.376004,68 56,68 C62.624004,68 68,62.624 68,56 C68,49.37605 62.623944,44 56,44 Z M56,48 C60.41596,48 64,51.58403 64,56 C64,60.416 60.416,64 56,64 C51.584,64 48,60.416 48,56 C48,51.584 51.584,48 56,48 Z"/>
      <circle cx="56" cy="56" r="8.5" stroke="url(#media-dvd-f)"/>
    </g>
    <path fill="#999" d="M50.152,98.576 L50.152,110 L54.12,110 C55.912,110 57.288,109.472 58.248,108.432 C59.16,107.44 59.624,106.048 59.624,104.288 C59.624,102.496 59.192,101.104 58.344,100.144 C57.416,99.088 56.056,98.576 54.248,98.576 L50.152,98.576 Z M51.464,99.712 L54.04,99.712 C55.544,99.712 56.632,100.096 57.336,100.88 C57.992,101.616 58.328,102.752 58.328,104.288 C58.328,105.776 57.96,106.912 57.256,107.68 C56.504,108.464 55.384,108.864 53.896,108.864 L51.464,108.864 L51.464,99.712 Z M60.376,98.576 L64.6,110 L66.216,110 L70.44,98.576 L69,98.576 L65.432,108.576 L65.384,108.576 L61.816,98.576 L60.376,98.576 Z M71.672,98.576 L71.672,110 L75.64,110 C77.432,110 78.808,109.472 79.768,108.432 C80.68,107.44 81.144,106.048 81.144,104.288 C81.144,102.496 80.712,101.104 79.864,100.144 C78.936,99.088 77.576,98.576 75.768,98.576 L71.672,98.576 Z M72.984,99.712 L75.56,99.712 C77.064,99.712 78.152,100.096 78.856,100.88 C79.512,101.616 79.848,102.752 79.848,104.288 C79.848,105.776 79.48,106.912 78.776,107.68 C78.024,108.464 76.904,108.864 75.416,108.864 L72.984,108.864 L72.984,99.712 Z"/>
  </g>
</svg>
