<svg xmlns="http://www.w3.org/2000/svg" width="24" height="24" viewBox="0 0 24 24">
  <g fill="#536076" transform="translate(4 5)">
    <path d="M14,1 L14,6.5820312 L13,5.5820312 L12.292969,6.2890625 L11.134766,7.4472656 L9.9375,6.25 L7.8125,8.3125 L4.5,4.5625 L1,7.5 L1,11 L8,11 L8,12 L1,12 C1,12 0,12 0,11 L0,1 C0,1 0,0 1,0 L13,0 C13,0 14,0 14,1 Z M13.0129473,0.987320381 L1.02242833,0.987320381 L1.02242833,6.16048075 L4.59976392,3.18636172 L7.9423428,6.84131524 L9.95980824,4.85920352 L11.1463111,6 L13.0129473,4.17957085 L13.0129473,0.987320381 Z"/>
    <path d="M12.7071069,8.70320051 L11.7071068,9.70320078 L10,11.4103074 L10,11.996094 L10.5857864,11.996094 L13.5857865,8.99609396 L13,8.4103074 L12.7071069,8.70320051 Z M13,6.9960938 L15,8.9960938 L11,12.9960938 L9,12.9960938 L9,10.9960938 L11,8.9960938 L12,7.9960938 L13,6.9960938 Z"/>
  </g>
</svg>
