<svg xmlns="http://www.w3.org/2000/svg" width="24" height="24" viewBox="0 0 24 24">
  <path fill="#536076" d="M12,6 C9.790861,6 8,7.790861 8,10.0007812 L8.0003907,10.5075204 L7.59999878,10.8078134 C6.59453295,11.5619104 6.00196373,12.7447341 6,14 C6,16.209139 7.790861,18 9.99717627,18 C10.5470067,17.9984514 11.090613,17.88356 11.5940513,17.662504 L11.9960895,17.485972 L12.398129,17.6625008 C12.9034961,17.884399 13.4493172,17.9993087 14,18 C16.209139,18 18,16.209139 18,14.0015634 C17.9980363,12.7447341 17.405467,11.5619104 16.4000012,10.8078134 L15.9996093,10.5075204 L16,10.0070312 C16,8.93913404 15.5785726,7.92171839 14.8284271,7.17157288 C14.0782816,6.42142736 13.060866,6 12,6 Z M12,5 C13.3260824,5 14.597852,5.5267842 15.5355339,6.46446609 C16.4732158,7.40214799 17,8.67391755 17,10 C18.2568323,10.9504337 18.9975438,12.4289634 19,14 C19,16.7614237 16.7614237,19 14,19 C13.310079,18.9991349 12.6278026,18.8554977 11.9960938,18.578125 C11.366796,18.8544451 10.687288,18.9980593 10,19 C7.23857625,19 5,16.7614237 5,14 C5.00245619,12.4289634 5.74316772,10.9504337 7,10.0078125 C7,7.23857625 9.23857625,5 12,5 Z"/>
</svg>
