<svg xmlns="http://www.w3.org/2000/svg" width="24" height="24" viewBox="0 0 24 24">
  <g fill="#536076" transform="translate(4 5)">
    <path d="M13.009766,0 C14.009766,0 14.009766,1 14.009766,1 L14.0095945,13.0089163 C14.0066796,13.1080247 13.9542104,14 13.009766,14 L13.009766,14 L1.0097656,14 C0.0097656,14 0.0097656,13 0.0097656,13 L0.0097656,9.003906 L1.0097656,9.009766 L1.0097656,13 L4.71147402,13 L5.2148438,13.458984 L5.77038023,13 L13,13 L13,5 L7.625,5 L5.2109375,2.5859375 L4.5039062,3.2929688 L2.80588452,5 L1,5 L1,6 L0,5.9941406 L0,1 C0,0 1,0 1,0 Z M13.0338629,0.981449395 L0.986190467,0.981449395 L0.986190467,3.99643261 L2.39474494,3.99643261 L5.21286265,1.19732635 L8.05325091,3.99643261 L13.0338629,3.99643261 L13.0338629,0.981449395 Z"/>
    <polygon points="5.753 4.024 5 4.75 7.149 7 0 7 0 8 7.149 8 5.003 10.036 5.753 10.786 9 7.5"/>
  </g>
</svg>
