<svg xmlns="http://www.w3.org/2000/svg" width="24" height="24" viewBox="0 0 24 24">
  <path fill="#536076" d="M13.470703,0.9921875 C13.081143,1.0034875 12.711243,1.1660525 12.439453,1.4453125 L10.4775847,3.40718071 L8.70944471,1.63904073 L8.00233792,2.34614752 L9.41655149,3.76036108 L1.14119053,12.035722 L0.9921875,15.005859 L3.97059451,14.8631723 L12.2449786,6.5887882 L13.6591922,8.00300177 L14.366299,7.29589498 L12.5986785,5.52827456 L14.560547,3.5664062 C15.539917,2.6125863 14.837183,0.9527875 13.470703,0.9921875 Z M9.41655149,5.17457464 L10.830765,6.5887882 L3.75969724,13.659856 L2.34548367,12.2456425 L9.41655149,5.17457464 Z M13.1740865,2.10991956 C13.3111821,1.97052865 13.6233412,1.95144907 13.8461754,2.10991956 C13.9947315,2.21556655 14.0274234,2.44823539 13.9442511,2.8079261 L13.9442511,2.8079261 L11.1780469,5.50335889 L10.4889825,4.81266858 C12.1876547,3.10376317 13.0826894,2.20284683 13.1740865,2.10991956 Z" transform="translate(4 4)"/>
</svg>
