<svg xmlns="http://www.w3.org/2000/svg" width="24" height="24" viewBox="0 0 24 24">
  <path fill="#536076" d="M5.50390625,4.00585938 C4.67547909,4.00585938 4.00390625,4.67743229 4.00390625,5.50585938 C4.00390625,6.33428651 4.67547909,7.00585938 5.50390625,7.00585938 C6.33233332,7.00585938 7.00390625,6.33428652 7.00390625,5.50585938 C7.00390625,5.10803466 6.84587095,4.72650379 6.56456638,4.44519921 C6.28326181,4.16389464 5.90173094,4.00585938 5.50390625,4.00585938 Z M18.503906,4.00585938 C18.1060813,4.00585938 17.7245504,4.16389464 17.4432458,4.44519921 C17.1619413,4.72650379 17.003906,5.10803466 17.003906,5.50585938 C17.003906,6.33428652 17.6754789,7.00585938 18.503906,7.00585938 C19.3323331,7.00585938 20.003906,6.33428652 20.003906,5.50585938 C20.003906,5.10803466 19.8458707,4.72650379 19.5645662,4.44519921 C19.2832616,4.16389464 18.9017307,4.00585938 18.503906,4.00585938 L18.503906,4.00585938 Z M16.785156,6.5683594 L12.9394531,10.7558594 L13.6894531,11.4433594 L17.535156,7.2558594 C17.393496,7.1204694 17.061756,6.8330494 16.785156,6.5683594 Z M7.2226562,6.6308594 L6.4726562,7.3183594 L10.28125,11.4199219 L11.0351562,10.7246094 L7.2226562,6.6308594 Z M12.0019531,11.0058594 C11.173526,11.0058594 10.5019531,11.6774323 10.5019531,12.5058594 C10.5019531,13.3342864 11.1735261,14.0058594 12.0019531,14.0058594 C12.8303801,14.0058594 13.5019531,13.3342864 13.5019531,12.5058594 C13.5019531,11.6774323 12.8303802,11.0058594 12.0019531,11.0058594 Z M11.5019531,14.443359 L11.5019531,16.568359 L12.5019531,16.568359 L12.5019531,14.443359 C12.1048131,14.447359 11.7971631,14.444059 11.5019531,14.443359 Z M12.0019531,17.005859 C12.8303802,17.005859 13.5019531,17.6774319 13.5019531,18.505859 C13.5019531,19.3342861 12.8303802,20.005859 12.0019531,20.005859 C11.173526,20.005859 10.5019531,19.3342861 10.5019531,18.505859 C10.5019531,17.6774319 11.173526,17.005859 12.0019531,17.005859 Z M12,18 C11.7238576,18 11.5,18.2238576 11.5,18.5 C11.5,18.7761424 11.7238576,19 12,19 C12.2761424,19 12.5,18.7761424 12.5,18.5 C12.5,18.2238576 12.2761424,18 12,18 Z M12,12 C12.2761424,12 12.5,12.2238576 12.5,12.5 C12.5,12.7761424 12.2761424,13 12,13 C11.7238576,13 11.5,12.7761424 11.5,12.5 C11.5,12.2238576 11.7238576,12 12,12 Z M5.5,5 C5.77614237,5 6,5.22385763 6,5.5 C6,5.77614237 5.77614237,6 5.5,6 C5.22385763,6 5,5.77614237 5,5.5 C5,5.22385763 5.22385763,5 5.5,5 Z M18.5,5 C18.7761424,5 19,5.22385763 19,5.5 C19,5.77614237 18.7761424,6 18.5,6 C18.2238576,6 18,5.77614237 18,5.5 C18,5.22385763 18.2238576,5 18.5,5 Z"/>
</svg>
