<svg xmlns="http://www.w3.org/2000/svg" width="24" height="24" viewBox="0 0 24 24">
  <g fill="none" fill-rule="evenodd">
    <path fill="#536076" fill-rule="nonzero" d="M7,5 L17,5 C17,5 18,5 18,6 L18,11.9902344 L17,11.9902344 L17,6.0039062 L7,6.0039062 L7,18 L11,18 L11,19 L7,19 C7,19 6,19 6,18 L6,6 C6,5 7,5 7,5 Z"/>
    <path fill="#536076" fill-rule="nonzero" d="M14,16.9902344 L13,16.9902344 L13,17.9902344 L17,17.9902344 L17,16.9902344 L16,16.9902344 L16,14.1625028 C15.8654747,14.0713505 15.5594491,13.9902344 15,13.9902344 C14.4405509,13.9902344 14.1345253,14.0713505 14,14.1625028 L14,16.9902344 Z M15,12.9902344 C17,12.9902344 17,13.9902344 17,13.9902344 L17,15.9902344 L18,15.9902344 L18,18.9902344 L12,18.9902344 L12,15.9902344 L13,15.9902344 L13,13.9902344 C13,13.9902344 13,12.9902344 15,12.9902344 Z"/>
    <rect width="3" height="1" x="13" y="16" fill="#536076" fill-rule="nonzero"/>
  </g>
</svg>
