<svg xmlns="http://www.w3.org/2000/svg" width="24" height="24" viewBox="0 0 24 24">
  <path fill="#536076" d="M1,2.00390625 L1,13.9975055 C1.00078754,13.9977448 2.25338298,13.9979254 4.75778634,13.998047 C4.27914086,13.2829946 4,12.4231149 4,11.498047 C4,9.01279559 6.01473032,6.9980469 8.4999486,6.9980469 C9.41869083,6.99799968 10.2768605,7.27431386 10.992357,7.7508273 C10.9924867,6.7380631 10.9920839,5.87886157 10.9910145,5.17139209 L7.5997662,2.00390625 L1,2.00390625 Z M1,1.00390625 L7.9941406,1.00390625 L11.990234,4.7363281 C11.993734,6.3914876 11.9923335,9.0329289 11.990234,11.234375 C11.852334,9.4088197 10.330799,7.9979528 8.5,7.9980469 C6.5670012,7.9980469 5,9.5650942 5,11.498047 C5,13.431 6.5670012,14.998047 8.5,14.998047 L1,14.998047 C1,14.998047 0,14.9974384 0,14.064453 L0,1.93945312 C0,1.23977026 0.5626502,1.0495583 0.84375,1.00585937 C0.9374249,0.989353606 1,1.00390625 1,1.00390625 Z M9.99513355,12.3572096 C10.1539825,12.0793483 10.238281,11.7887888 10.238281,11.509766 C10.238281,10.5658583 9.4622543,9.7890625 8.519531,9.7890625 C7.57680788,9.7890625 6.8007812,10.5658583 6.8007812,11.509766 C6.8007812,12.4530812 7.57621599,13.228516 8.519531,13.228516 C8.79850563,13.228516 9.08909015,13.1442107 9.36702181,12.9853416 L9.76662259,12.7569249 L9.99513355,12.3572096 Z M9.863281,13.853516 L9.42627532,14.0592926 C9.1421891,14.1656699 8.83657064,14.228516 8.519531,14.228516 C7.0239313,14.228516 5.8007812,13.005366 5.8007812,11.509766 C5.8007812,10.0141656 7.0239312,8.7890625 8.519531,8.7890625 C10.015131,8.7890625 11.238281,10.0141656 11.238281,11.509766 C11.238281,11.8267785 11.1754611,12.1323449 11.0691243,12.4163688 L10.863281,12.853516 L10.9663982,12.9124665 C11.0080354,12.9408667 11.0467895,12.9734496 11.082031,13.009766 L12.925781,14.822266 C13.1156148,15.0120561 13.1897667,15.2887098 13.1203007,15.5480003 C13.0508347,15.8072909 12.8483059,16.0098197 12.5890153,16.0792857 C12.3297248,16.1487517 12.0530711,16.0745998 11.863281,15.884766 L10.019531,14.072266 C9.98319502,14.0370055 9.95059654,13.9982287 9.92218446,13.9565639 L9.863281,13.853516 Z" transform="translate(5 3)"/>
</svg>
