<svg xmlns="http://www.w3.org/2000/svg" width="24" height="24" viewBox="0 0 24 24">
  <g fill="none" fill-rule="evenodd">
    <polygon fill="#536076" fill-rule="nonzero" points="14.094 5 16.094 7 11 7 11 8 16.094 8 14.094 10 15.5 10 17.812 7.719 18 7.5 17.812 7.281 15.5 5"/>
    <polygon fill="#536076" fill-rule="nonzero" points="8.5 7 6.188 9.281 6 9.5 6.188 9.719 8.5 12 9.906 12 7.906 10 13 10 13 9 7.906 9 9.906 7"/>
    <path fill="#536076" fill-rule="nonzero" d="M6,11.9902 L7,11.9902 L7,17.996 L17,17.996 L17,12.0098 L18,12.0098 L18,18 C18,19 17,19 17,19 L7,19 C7,19 6,19 6,18 L6,11.9902 Z"/>
  </g>
</svg>
