<svg xmlns="http://www.w3.org/2000/svg" width="24" height="24" viewBox="0 0 24 24">
  <g fill="#536076" transform="translate(5 4)">
    <rect width="1" height="5" x="6.885" y="3.249" transform="rotate(58 7.385 5.749)"/>
    <rect width="1" height="4.533" x="6.687" y="8.359" transform="scale(1 -1) rotate(58 26.355 0)"/>
    <path d="M11 0C12.6568542 0 14 1.34314575 14 3 14 4.65685425 12.6568542 6 11 6 9.34314575 6 8 4.65685425 8 3 8 1.34314575 9.34314575 0 11 0zM11 1C9.8954305 1 9 1.8954305 9 3 9 4.1045695 9.8954305 5 11 5 12.1045695 5 13 4.1045695 13 3 13 1.8954305 12.1045695 1 11 1zM11 10C12.6568542 10 14 11.3431458 14 13 14 14.6568542 12.6568542 16 11 16 9.34314575 16 8 14.6568542 8 13 8 11.3431458 9.34314575 10 11 10zM11 11C9.8954305 11 9 11.8954305 9 13 9 14.1045695 9.8954305 15 11 15 12.1045695 15 13 14.1045695 13 13 13 11.8954305 12.1045695 11 11 11zM3 5C4.65685425 5 6 6.34314575 6 8 6 9.65685425 4.65685425 11 3 11 1.34314575 11 0 9.65685425 0 8 0 6.34314575 1.34314575 5 3 5zM3 6C1.8954305 6 1 6.8954305 1 8 1 9.1045695 1.8954305 10 3 10 4.1045695 10 5 9.1045695 5 8 5 6.8954305 4.1045695 6 3 6z"/>
  </g>
</svg>
