<svg xmlns="http://www.w3.org/2000/svg" width="24" height="24" viewBox="0 0 24 24">
  <path fill="#536076" d="M11,0 L11,0.011719 L11,1.554719 C10.637,1.575719 10.277,1.595819 9.8848,1.632819 C8.6059,1.755619 7.2229,1.961819 6,2.363319 L6,2.000019 L2,2.000019 L2,6.000019 L2.127,6.000019 C1.5576,7.354119 1.207,8.931719 0.9648,10.391019 C0.92938,10.604019 0.90925,10.792019 0.87891,11.000019 L0,11.000019 L0,11.012019 L0,15.000019 L0,15.012019 L1.5,15.012019 L4,15.012019 L4,15.000019 L4,13.457019 C4.3633,13.436019 4.7235,13.416019 5.1152,13.379019 C6.3941,13.256019 7.7771,13.050019 9,12.648019 L9,13.012019 L13,13.012019 L13,9.011719 L12.873,9.011719 C13.442,7.657619 13.793,6.080019 14.035,4.621119 C14.07,4.407519 14.091,4.219219 14.121,4.011719 L15,4.011719 L15,4.000019 L15,0.011719 L15,0 L13.5,0 L11,0 L11,0 Z M3,12 L3,14 L1,14 L1,12 L3,12 Z M11,2.5547 L11,4.0117 L13.111,4.0117 C13.088,4.1652 13.075,4.3022 13.049,4.459 C12.788,6.0281 12.351,7.7156 11.744,9.0117 L9,9.0117 L9,11.562 C7.8366,11.986 6.3724,12.255 5.0195,12.385 C4.6616,12.419 4.334,12.437 4,12.457 L4,11 L1.8887,11 C1.9118,10.846 1.9252,10.71 1.9512,10.553 C2.2117,8.9836 2.6492,7.2961 3.2559,6 L6,6 L6,3.4492 C7.1634,3.0253 8.6276,2.7567 9.9805,2.627 C10.338,2.593 10.666,2.5747 11,2.5547 Z M12,10 L12,12 L10,12 L10,10 L12,10 Z M5,3 L5,5 L3,5 L3,3 L5,3 Z M14,1 L14,3 L12,3 L12,1 L14,1 Z" transform="translate(4 4)"/>
</svg>
