<svg xmlns="http://www.w3.org/2000/svg" width="24" height="24" viewBox="0 0 24 24">
  <g fill="none" fill-rule="evenodd">
    <polygon fill="#536076" fill-rule="nonzero" points="4.502 4 4.09 4.219 4.037 4.684 4.391 4.988 4.5 5 5.5 5 5.914 4.781 5.965 4.316 5.611 4.012 5.502 4"/>
    <polygon fill="#536076" fill-rule="nonzero" points="7.502 4 7.09 4.219 7.037 4.684 7.391 4.988 7.5 5 8.5 5 8.914 4.781 8.965 4.316 8.611 4.012 8.502 4"/>
    <polygon fill="#536076" fill-rule="nonzero" points="10.502 4 10.09 4.219 10.037 4.684 10.391 4.988 10.5 5 11.5 5 11.914 4.781 11.965 4.316 11.611 4.012 11.502 4"/>
    <polygon fill="#536076" fill-rule="nonzero" points="13.502 4 13.09 4.219 13.037 4.684 13.391 4.988 13.5 5 14.5 5 14.914 4.781 14.965 4.316 14.611 4.012 14.502 4"/>
    <polygon fill="#536076" fill-rule="nonzero" points="16.502 4 16.09 4.219 16.037 4.684 16.391 4.988 16.5 5 17.5 5 17.914 4.781 17.965 4.316 17.611 4.012 17.502 4"/>
    <polygon fill="#536076" fill-rule="nonzero" points="19.498 4.5 19 5.5 19.219 5.914 19.684 5.965 19.988 5.611 19.998 5.5"/>
    <polygon fill="#536076" fill-rule="nonzero" points="4.316 6.035 4.01 6.389 4 6.5 4 7.5 4.219 7.914 4.684 7.965 4.988 7.611 4.998 7.5 4.998 6.5 4.779 6.086"/>
    <polygon fill="#536076" fill-rule="nonzero" points="7 7 7 8 13 8 13 7"/>
    <polygon fill="#536076" fill-rule="nonzero" points="19.316 7.035 19.01 7.389 19 7.5 19 8.5 19.219 8.914 19.684 8.965 19.988 8.611 19.998 8.5 19.998 7.5 19.779 7.086"/>
    <polygon fill="#536076" fill-rule="nonzero" points="4.316 9.035 4.01 9.389 4 9.5 4 10.5 4.219 10.914 4.684 10.965 4.988 10.611 4.998 10.5 4.998 9.5 4.779 9.086"/>
    <polygon fill="#536076" fill-rule="nonzero" points="19.316 10.035 19.01 10.389 19 10.5 19 11.5 19.219 11.914 19.684 11.965 19.988 11.611 19.998 11.5 19.998 10.5 19.779 10.086"/>
    <polygon fill="#536076" fill-rule="nonzero" points="9 11 9 12 15 12 15 11"/>
    <polygon fill="#536076" fill-rule="nonzero" points="4.316 12.035 4.01 12.389 4 12.5 4 13.5 4.219 13.914 4.684 13.965 4.988 13.611 4.998 13.5 4.998 12.5 4.779 12.086"/>
    <polygon fill="#536076" fill-rule="nonzero" points="19.316 13.035 19.01 13.389 19 13.5 19 14.5 19.219 14.914 19.684 14.965 19.988 14.611 19.998 14.5 19.998 13.5 19.779 13.086"/>
    <polygon fill="#536076" fill-rule="nonzero" points="11 15 11 16 17 16 17 15"/>
    <polygon fill="#536076" fill-rule="nonzero" points="4.316 15.035 4.01 15.389 4 15.5 4 16.5 4.219 16.914 4.684 16.965 4.988 16.611 4.998 16.5 4.998 15.5 4.779 15.086"/>
    <polygon fill="#536076" fill-rule="nonzero" points="19.316 16.035 19.01 16.389 19 16.5 19 17.5 19.219 17.914 19.684 17.965 19.988 17.611 19.998 17.5 19.998 16.5 19.779 16.086"/>
    <polygon fill="#536076" fill-rule="nonzero" points="4.318 18.035 4.01 18.389 4 18.5 4.5 19.5 5 18.5 4.781 18.086"/>
    <polygon fill="#536076" fill-rule="nonzero" points="6.506 19 6.084 19.219 6.031 19.684 6.385 19.988 6.506 20 7.506 20 7.92 19.781 7.971 19.316 7.617 19.012 7.506 19"/>
    <polygon fill="#536076" fill-rule="nonzero" points="9.506 19 9.084 19.219 9.031 19.684 9.385 19.988 9.506 20 10.506 20 10.92 19.781 10.971 19.316 10.617 19.012 10.506 19"/>
    <polygon fill="#536076" fill-rule="nonzero" points="12.506 19 12.084 19.219 12.031 19.684 12.385 19.988 12.506 20 13.506 20 13.92 19.781 13.971 19.316 13.617 19.012 13.506 19"/>
    <polygon fill="#536076" fill-rule="nonzero" points="15.506 19 15.084 19.219 15.031 19.684 15.385 19.988 15.506 20 16.506 20 16.92 19.781 16.971 19.316 16.617 19.012 16.506 19"/>
    <polygon fill="#536076" fill-rule="nonzero" points="18.506 19 18.084 19.219 18.031 19.684 18.385 19.988 18.506 20 19.506 19.5"/>
  </g>
</svg>
