<svg xmlns="http://www.w3.org/2000/svg" width="24" height="24" viewBox="0 0 24 24">
  <g fill="#536076" transform="translate(5 5)">
    <path d="M1,1 L1,13 L13,13 L13,1 L1,1 Z M0,4.54747351e-13 L14,4.54747351e-13 L14,14 L0,14 L0,4.54747351e-13 Z"/>
    <rect width="5" height="1" x="9" y="5"/>
    <rect width="5" height="1" y="5"/>
    <rect width="5" height="1" y="8"/>
    <rect width="5" height="1" x="9" y="8"/>
    <path d="M7,9 C8.1045695,9 9,8.1045695 9,7 C9,5.8954305 8.1045695,5 7,5 C5.8954305,5 5,5.8954305 5,7 C5,8.1045695 5.8954305,9 7,9 Z M7,10 C5.34314575,10 4,8.65685425 4,7 C4,5.34314575 5.34314575,4 7,4 C8.65685425,4 10,5.34314575 10,7 C10,8.65685425 8.65685425,10 7,10 Z"/>
  </g>
</svg>
