<?xml version="1.0" encoding="UTF-8"?>
<svg width="24px" height="24px" viewBox="0 0 24 24" version="1.1" xmlns="http://www.w3.org/2000/svg" xmlns:xlink="http://www.w3.org/1999/xlink">
    <!-- Generator: Sketch 51.3 (57544) - http://www.bohemiancoding.com/sketch -->
    <title>format-text-blockquote</title>
    <desc>Created with Sketch.</desc>
    <defs></defs>
    <g id="format-text-blockquote" stroke="none" stroke-width="1" fill="none" fill-rule="evenodd">
        <path d="M10,9 C8.8954,9 8,9.89543 8,11 L8,13.53125 L8.0019531,13.53125 C8.01894462,14.346689 8.68438443,14.999115 9.5,15 C10.3284271,15 11,14.3284271 11,13.5 C11,12.6715729 10.3284271,12 9.5,12 C9.48957682,12.0005423 9.47915959,12.0011934 9.46875,12.0019531 L9.46875,12 L9,12 L9,11 C9,10.44772 9.44772,10 10,10 L10,9 Z M14,9 L14,10 C13.44772,10 13,10.44772 13,11 L13,12 L13.46875,12 L13.46875,12.0019531 C13.4791596,12.0011934 13.4895768,12.0005423 13.5,12 C14.3284271,12 15,12.6715729 15,13.5 C15,14.3284271 14.3284271,15 13.5,15 C12.6843844,14.999115 12.0189446,14.346689 12.0019531,13.53125 L12,13.53125 L12,11 C12,9.89543 12.8954,9 14,9 Z M9,13 C9.2115434,13 9.41165029,13 9.60032067,13 C9.88332625,13 10.0068916,13.2885002 10.0068916,13.4873932 C10.0068916,13.6862861 9.84895285,13.9747863 9.49426147,13.9747863 C9.25780055,13.9747863 9.09304672,13.8238649 9,13.5220221 L9,13 Z M13,13 L13,13.5220221 C13.0930467,13.8238649 13.2578005,13.9747863 13.4942615,13.9747863 C13.8489528,13.9747863 14.0068916,13.6862861 14.0068916,13.4873932 C14.0068916,13.2885002 13.8833263,13 13.6003207,13 C13.4116503,13 13.2115434,13 13,13 Z" id="Combined-Shape" fill="#303030" fill-rule="nonzero"></path>
    </g>
</svg>