<svg xmlns="http://www.w3.org/2000/svg" width="24" height="24" viewBox="0 0 24 24">
  <g fill="none" fill-rule="evenodd">
    <path fill="#536076" fill-rule="nonzero" d="M6 6L6 10 18 10 18 6 6 6zM5 5L19 5 19 11 5 11 5 5zM5 13L9 16 5 19 5 13zM6.00383557 14.9869452L6.00383557 16.9878822 7.33512503 15.9950145 6.00383557 14.9869452z"/>
    <polygon fill="#536076" fill-rule="nonzero" points="12 14 12 18 13 18 13 14"/>
    <path fill="#536076" fill-rule="nonzero" d="M15,15 L15,17 L18,17 L18,15 L15,15 Z M14,14 L19,14 L19,18 L14,18 L14,14 Z"/>
  </g>
</svg>
