<svg xmlns="http://www.w3.org/2000/svg" width="24" height="24" viewBox="0 0 24 24">
  <g fill="none" fill-rule="evenodd">
    <path fill="#536076" fill-rule="nonzero" d="M18 4C17.4477153 4 17 4.44771525 17 5 17 5.55228475 17.4477153 6 18 6 18.5522847 6 19 5.55228475 19 5 19 4.44771525 18.5522847 4 18 4zM18 7C17.4477153 7 17 7.44771525 17 8 17 8.55228475 17.4477153 9 18 9 18.5522847 9 19 8.55228475 19 8 19 7.44771525 18.5522847 7 18 7zM18 10C17.4477153 10 17 10.4477153 17 11 17 11.5522847 17.4477153 12 18 12 18.5522847 12 19 11.5522847 19 11 19 10.4477153 18.5522847 10 18 10zM11.3084459 6L10.7047192 6 6.41900491 18 7.95914963 18 9.02164963 15 13.2830928 15 14.3455928 18 15.8352316 18 11.3084459 6zM10 5L12 5 17.28125 19 13.6388947 19 12.5763947 16 9.72834771 16 8.66584771 19 5 19 10 5z"/>
    <polygon fill="#536076" fill-rule="nonzero" points="11 9 12.75 14 9.25 14"/>
  </g>
</svg>
