<svg xmlns="http://www.w3.org/2000/svg" width="24" height="24" viewBox="0 0 24 24">
  <path fill="#536076" d="M4,4 L4,7.8886719 L4,9.0097656 L4,12 L4,14.990234 L4,16 L4,16.111328 L4,20 L20,20 L20,16.107422 L20,16 L20,14.990234 L20,12 L20,9.0097656 L20,7.8925781 L20,4 L4,4 Z M5,5 L19,5 L19,7.3867188 C17.0332401,6.49459449 14.5579571,6.00423428 12,6 C9.44337151,6.00258704 6.96823673,6.49084606 5,7.3808594 L5,5 Z M12,7 C14.6209594,7.00323376 17.1346163,7.52083386 19,8.4414062 L19,10.5488281 C17.5918843,9.59341859 14.9109902,9.00024084 12,9 C9.08570524,9.00141822 6.40402094,9.59701551 5,10.5546875 L5,8.4453125 C6.86412215,7.52330922 9.37793241,7.00427474 12,7 Z M12,10 C15.8659932,10 19,10.8954305 19,12 C19,13.1045695 15.8659932,14 12,14 C8.13400675,14 5,13.1045695 5,12 C5,10.8954305 8.13400675,10 12,10 Z M19,13.4453125 L19,15.558594 C17.1346163,16.4791663 14.6209593,16.9967663 12,17 C9.37793255,16.9957254 6.86412231,16.4766911 5,15.554688 L5,13.4511719 C6.40811567,14.4065814 9.08900984,14.9997592 12,15 C14.9142948,14.9985818 17.5959791,14.4029845 19,13.4453125 Z M19,16.613281 L19,19 L5,19 L5,16.619141 C6.96823683,17.5091542 9.4433716,17.9974131 12,18 C14.5579572,17.9957657 17.0332402,17.5054054 19,16.613281 Z"/>
</svg>
