<svg xmlns="http://www.w3.org/2000/svg" width="24" height="24" viewBox="0 0 24 24">
  <g fill="none" fill-rule="evenodd">
    <path fill="#536076" fill-rule="nonzero" d="M12,6 C8.6862915,6 6,8.6862915 6,12 C6,15.3137085 8.6862915,18 12,18 C13.5912989,18 15.1174224,17.367859 16.2426407,16.2426407 C17.367859,15.1174224 18,13.5912989 18,12 C18,8.6862915 15.3137085,6 12,6 Z M12,5 C15.8659932,5 19,8.13400675 19,12 C19,13.8565154 18.2625021,15.6369928 16.9497475,16.9497475 C15.6369928,18.2625021 13.8565154,19 12,19 C8.13400675,19 5,15.8659932 5,12 C5,8.13400675 8.13400675,5 12,5 Z"/>
    <path fill="#536076" fill-rule="nonzero" d="M12,8 C9.790861,8 8,9.790861 8,12 C8,14.209139 9.790861,16 12,16 C14.209139,16 16,14.209139 16,12 C16,9.790861 14.209139,8 12,8 Z M12,7 C14.7614237,7 17,9.23857625 17,12 C17,14.7614237 14.7614237,17 12,17 C9.23857625,17 7,14.7614237 7,12 C7,9.23857625 9.23857625,7 12,7 Z"/>
    <path fill="#536076" fill-rule="nonzero" d="M13.095703,12.0000001 C13.5000231,12 13.84212,11.7597256 14,11.4160156 C14.0567,11.6017956 14.095703,11.79519 14.095703,12 C14.095703,12.2930031 14.0333252,12.5709013 13.9210707,12.8211936 C13.6679862,12.9366595 13.388038,13 13.0957031,13 C12.8910561,13 12.6936831,12.9694173 12.507896,12.9125636 C12.8557211,12.7566577 13.095703,12.4084237 13.095703,12.0000001 Z M11.0957031,11 C11.0957031,10.7076638 11.1590426,10.4277165 11.2745077,10.1746331 C11.5248004,10.0623781 11.8026993,10 12.0957031,10 C12.3005131,10 12.4939075,10.0390031 12.6796875,10.0957031 C12.3359675,10.2535931 12.0957031,10.59568 12.0957031,11 C11.6872795,11 11.3390454,11.2399819 11.1831395,11.5878071 C11.1262858,11.40202 11.0957031,11.204647 11.0957031,11 Z M12.0957031,10 C12.3005131,10 12.4939075,10.0390031 12.6796875,10.0957031 C12.3359675,10.2535931 12.0957031,10.59568 12.0957031,11 C12.0957031,11.554 12.5417031,12 13.0957031,12 C13.5000231,12 13.84212,11.7597256 14,11.4160156 C14.0567,11.6017956 14.0957031,11.79519 14.0957031,12 C14.0957031,13.108 13.2037031,14 12.0957031,14 C10.9877031,14 10.0957031,13.108 10.0957031,12 C10.0957031,10.892 10.9877031,10 12.0957031,10 Z"/>
  </g>
</svg>
