<?xml version="1.0" encoding="UTF-8"?>
<svg width="24px" height="24px" viewBox="0 0 24 24" version="1.1" xmlns="http://www.w3.org/2000/svg" xmlns:xlink="http://www.w3.org/1999/xlink">
    <!-- Generator: Sketch 51.3 (57544) - http://www.bohemiancoding.com/sketch -->
    <title>lighttable</title>
    <desc>Created with Sketch.</desc>
    <defs></defs>
    <g id="lighttable" stroke="none" stroke-width="1" fill="none" fill-rule="evenodd">
        <path d="M12,6 C8.69814805,6 6,8.69812145 6,12 C6,15.301752 8.69822145,18 12,18 C15.3017153,18 18,15.3017153 18,12 C18,8.69815816 15.3017887,6 12,6 Z M12,5 C15.854,5 19,8.1458 19,12 C19,15.854 15.854,19 12,19 C8.1459,19 5,15.854 5,12 C5,8.1458 8.1459,5 12,5 Z" id="Path" fill="#303030" fill-rule="nonzero"></path>
        <path d="M9.97402669,15.4404083 C10.0726104,15.4976507 10.1817423,15.5543935 10.3110923,15.615645 C10.3730679,15.646347 10.4361877,15.6755714 10.5003655,15.7032858 C10.6669872,15.7688849 10.8436599,15.8226042 11.0723068,15.878485 C11.1458121,15.8977841 11.2162058,15.9143853 11.279719,15.9274988 C11.2990014,15.9301006 11.3026255,15.9307217 11.3400601,15.9371372 C11.5558675,15.9752794 11.7737564,15.995681 11.9804688,15.998047 C12.092998,16.0038808 12.1076448,16.0046401 12.1326113,16.0088807 C12.1138071,16.0058154 12.0973983,16.0049769 12,16 C12.0005275,16 11.9982366,16.0001323 12.0469768,15.996612 C12.0998332,15.9925591 12.0998332,15.9925591 12.187374,15.9884377 C12.2470321,15.9873814 12.3125894,15.9842568 12.3602099,15.9814522 C12.4282814,15.9746954 12.4909318,15.9658261 12.6449513,15.941797 C12.7121091,15.93202 12.7369777,15.9282227 12.7611703,15.9240147 C12.7631044,15.9235345 12.7693537,15.9220119 12.7799181,15.919447 C12.8133286,15.9110895 12.8133286,15.9110895 12.8336509,15.9068068 L12.8893174,15.8932156 C13.0923322,15.8478448 13.2855773,15.7892119 13.5163189,15.6998784 C13.5327242,15.6912015 13.5450932,15.6852497 13.5930645,15.6621664 C13.6112824,15.6537676 13.6112824,15.6537676 13.6276749,15.6461692 C13.6513585,15.6351085 13.6513585,15.6351085 13.6895966,15.6168637 C13.8385388,15.5483662 13.9804404,15.4717975 14.1467073,15.3682207 C14.175108,15.3518333 14.2047042,15.3341673 14.2286181,15.3196183 C14.2642957,15.2940573 14.2794564,15.2827892 14.3443681,15.2341196 C14.4836709,15.1335566 14.6108747,15.0292461 14.7541238,14.8954071 C14.7853454,14.8681263 14.818343,14.8381849 14.8087941,14.8499135 C14.845592,14.8105326 14.845592,14.8105326 14.9000006,14.7507035 C15.0091023,14.6358596 15.1183038,14.5018765 15.2567266,14.3123089 C15.273868,14.2902668 15.2855612,14.2751798 15.2926318,14.2661978 C15.3000457,14.2532621 15.3068105,14.2424852 15.3267008,14.2107979 C15.3563901,14.1630941 15.3563901,14.1630941 15.3936664,14.1009369 C15.4828789,13.9566961 15.559085,13.8155395 15.6485292,13.6236336 C15.6698502,13.5825941 15.6698502,13.5825941 15.6694896,13.5874302 C15.6873804,13.5370845 15.6873804,13.5370845 15.6881107,13.5375887 C15.6944948,13.5196755 15.6944948,13.5196755 15.6978287,13.5104064 C15.7036695,13.4941241 15.7036695,13.4941241 15.7199442,13.4491183 C15.7923719,13.2622722 15.8476267,13.0867258 15.8977333,12.8732578 C15.9044034,12.8484953 15.9046503,12.8475785 15.913867,12.8110959 C15.9333605,12.7161318 15.9492587,12.6224827 15.9619517,12.5275839 C15.9696143,12.47496 15.9703308,12.4702728 15.9736491,12.4520075 C15.9774081,12.4113079 15.9798657,12.3718061 15.9845966,12.2777442 C15.9860829,12.2481615 15.9860829,12.2481615 15.9890825,12.1953598 C15.9935498,12.1352965 15.9966183,12.0721448 15.998047,12.03125 C15.9978652,12.003436 15.9971166,11.9883429 15.9962048,11.9699619 C15.9948354,11.8779698 15.9907236,11.7896017 15.9829452,11.6933771 C15.9737918,11.5635505 15.9575569,11.4311226 15.9390881,11.3217991 C15.9235295,11.2434786 15.9047715,11.1629081 15.8772975,11.0579073 C15.831211,10.8661547 15.7800064,10.6968852 15.705444,10.5009084 C15.6782784,10.4396425 15.6513665,10.3823082 15.6132115,10.305098 C15.5583777,10.1860575 15.5011469,10.0753102 15.4420675,9.9738779 L9.97402669,15.4404083 Z M12.1448748,16.0110468 C12.1403293,16.0102142 12.1364211,16.0095017 12.1326113,16.0088807 C12.1363472,16.0095152 12.1403142,16.0102277 12.1448748,16.0110468 Z M12.7671295,15.922968 C12.7588435,15.9247058 12.7559012,15.9253229 12.7611703,15.9240147 C12.7631536,15.9236697 12.7651324,15.923322 12.7671295,15.922968 Z M15.9712694,12.6297397 C15.9722453,12.6412103 15.9727056,12.6466202 15.9730046,12.6499389 C15.9715843,12.6372258 15.9710167,12.6214801 15.96875,12.5585938 L16.1937961,12.5585938 L15.9672176,12.5282883 C15.9659078,12.5587733 15.9679812,12.5862168 15.9712694,12.6297397 Z M15.9758497,12.4522216 L16.7543618,12.5279687 L15.9818185,12.4176118 C15.9795331,12.4302502 15.9775531,12.4417018 15.9758497,12.4522216 Z M15.9736718,12.6566503 C15.9731966,12.6531036 15.9728404,12.6504449 15.9725258,12.647135 C15.9732715,12.6529013 15.9734099,12.6541974 15.9736718,12.6566503 Z M16.0033394,11.9228445 C16.0030595,11.9244572 16.0027855,11.9264914 16.002503,11.9310482 C16.0027524,11.9285494 16.0030288,11.9258629 16.0033394,11.9228445 Z M16.0068328,12.1097677 C16.006103,12.1048219 16.0055323,12.1010057 16.0050209,12.0974705 C16.0055277,12.1026982 16.0060539,12.1055487 16.0068328,12.1097677 Z M15.535156,8.4667969 C15.574216,8.5084699 15.612781,8.550763 15.650391,8.59375 C15.787391,8.74055 15.915203,8.8957937 16.033203,9.0585938 C16.102183,9.1519778 16.168155,9.247745 16.230469,9.3457031 C16.339469,9.5188031 16.435484,9.7000187 16.521484,9.8867188 C16.560164,9.9638897 16.596219,10.0420238 16.630859,10.1210938 C16.725672,10.3634312 16.793609,10.5912187 16.849609,10.8242188 C16.876069,10.9244024 16.899732,11.0253188 16.919922,11.1269531 C16.948172,11.2911833 16.968749,11.456817 16.980469,11.6230469 C16.989469,11.7335389 16.994444,11.8442313 16.996094,11.9550781 C16.996094,11.9706781 17,11.9843 17,12 C17,12.0107 16.998047,12.02065 16.998047,12.03125 C16.995947,12.110767 16.992228,12.1902048 16.986328,12.2695312 C16.981328,12.3635313 16.97775,12.4563281 16.96875,12.5488281 C16.963797,12.6012656 16.957125,12.6294031 16.953125,12.6582031 C16.936125,12.7872563 16.914672,12.9112563 16.888672,13.0351562 C16.879772,13.0703904 16.871048,13.105594 16.861328,13.140625 C16.808328,13.371125 16.736344,13.5938469 16.652344,13.8105469 C16.645444,13.8307919 16.637989,13.8509388 16.630859,13.8710938 C16.615859,13.9067938 16.604844,13.9432156 16.589844,13.9785156 C16.571314,14.015919 16.552663,14.052917 16.533203,14.089844 C16.448203,14.275844 16.351141,14.453953 16.244141,14.626953 C16.221321,14.665603 16.197678,14.704167 16.173828,14.742188 C16.156828,14.767188 16.143953,14.795313 16.126953,14.820312 C16.100113,14.856682 16.072742,14.892104 16.044922,14.927734 C15.914922,15.106734 15.777,15.279453 15.625,15.439453 C15.59609,15.471833 15.566859,15.503536 15.537109,15.535156 C15.496079,15.573526 15.454409,15.611477 15.412109,15.648438 C15.260109,15.791437 15.098686,15.922922 14.929688,16.044922 C14.894697,16.071382 14.859889,16.097517 14.824219,16.123047 C14.811219,16.132047 14.797203,16.143344 14.783203,16.152344 C14.737973,16.180404 14.692584,16.207775 14.646484,16.234375 C14.474484,16.342375 14.294422,16.439391 14.107422,16.525391 C14.075912,16.540721 14.043539,16.555643 14.011719,16.570312 C13.9784185,16.585313 13.9474625,16.605141 13.9140625,16.619141 C13.9003825,16.623841 13.8867669,16.628214 13.8730469,16.632812 C13.6270469,16.731814 13.3714219,16.810141 13.1074219,16.869141 L13.0761719,16.876953 C13.0333719,16.885953 12.9924188,16.89825 12.9492188,16.90625 C12.8953317,16.91585 12.8412814,16.923861 12.7871094,16.931641 C12.6785094,16.948641 12.5697844,16.965564 12.4589844,16.976562 C12.3744584,16.982363 12.289791,16.986781 12.2050781,16.988281 C12.1366781,16.991281 12.069,17 12,17 C11.7073487,16.995003 11.434984,16.969413 11.1660156,16.921875 C11.1454156,16.917875 11.1240156,16.916109 11.1035156,16.912109 C11.0078587,16.892895 10.9127284,16.87048 10.8183594,16.845703 C10.5885594,16.789703 10.3623844,16.723672 10.1464844,16.638672 C10.0508283,16.599172 9.9583079,16.556859 9.8671875,16.511719 C9.6914875,16.428719 9.5210219,16.338328 9.3574219,16.236328 C9.2519935,16.170521 9.1490615,16.100822 9.0488281,16.027344 C8.8819281,15.905344 8.7223656,15.773812 8.5722656,15.632812 C8.5359589,15.60067 8.5001999,15.568342 8.4648438,15.535156 L15.535156,8.4667969 Z" id="Path" fill="#303030" fill-rule="nonzero"></path>
    </g>
</svg>