<svg xmlns="http://www.w3.org/2000/svg" width="24" height="24" viewBox="0 0 24 24">
  <g fill="none" fill-rule="evenodd">
    <path fill="#536076" fill-rule="nonzero" d="M13.2718437,17 L13.2687399,17 L13.2718437,17 Z M13.0638904,16.4999027 C13.0218804,16.3375273 13.0002365,16.169657 13,16 L13,14.9986033 C13.000237,14.8296186 13.0218806,14.6620971 13.0638904,14.4999027 C13.0218804,14.3375273 13.0002365,14.169657 13,14 L13,12.9999 C13.0001104,11.8954315 13.8954315,11.0001104 15,11 L19,11 L19,8 C19,7.44428475 18.5557153,7 18,7 L6,7 C5.44428475,7 5,7.44428475 5,8 L5,16 C5,16.5557153 5.44428475,17 6,17 L13,17 C13.000237,16.8296186 13.0218806,16.6620971 13.0638904,16.4999027 Z M6,6 L18,6 C19.108,6 20,6.892 20,8 L20,12 L15,12 C14.4477381,12.0000552 14.0000552,12.4477381 14,13 L14,14 C14.0002453,14.175608 14.0467254,14.3480557 14.134766,14.5 C14.0467254,14.6519443 14.0002453,14.824392 14,15 L14,16 C14.0002453,16.175608 14.0467254,16.3480557 14.134766,16.5 C14.0467254,16.6519443 14.0002453,16.824392 14,17 L14,18 L6,18 C4.892,18 4,17.108 4,16 L4,8 C4,6.892 4.892,6 6,6 Z"/>
    <polygon fill="#536076" fill-rule="nonzero" points="15 13 15 14 20 14 20 13"/>
    <polygon fill="#536076" fill-rule="nonzero" points="15 15 15 16 20 16 20 15"/>
    <polygon fill="#536076" fill-rule="nonzero" points="15 17 15 18 20 18 20 17"/>
    <polygon fill="#536076" fill-rule="nonzero" points="6 8 12 11 18 8 18 9 12 12 6 9"/>
  </g>
</svg>
