<svg xmlns="http://www.w3.org/2000/svg" width="24" height="24" viewBox="0 0 24 24">
  <g fill="#536076" transform="translate(5 7)">
    <path d="M3.5 1C2.21121079 1 1 2.73030113 1 5 1 7.26969887 2.21121079 9 3.5 9 4.78878921 9 6 7.26969887 6 5 6 2.73030113 4.78878921 1 3.5 1zM7 5C7 7.76142375 5.43299662 10 3.5 10 1.56700338 10 0 7.76142375 0 5 0 2.23857625 1.56700338 0 3.5 0 5.43299662 0 7 2.23857625 7 5zM8 5C8 7.26969887 9.21121079 9 10.5 9 11.7887892 9 13 7.26969887 13 5 13 2.73030113 11.7887892 1 10.5 1 9.21121079 1 8 2.73030113 8 5zM7 5C7 2.23857625 8.56700338 0 10.5 0 12.4329966 0 14 2.23857625 14 5 14 7.76142375 12.4329966 10 10.5 10 8.56700338 10 7 7.76142375 7 5z"/>
    <path d="M4 5C5.1045695 5 6 5.8954305 6 7 6 8.1045695 5.1045695 9 4 9 2.8954305 9 2 8.1045695 2 7 2 5.8954305 2.8954305 5 4 5zM4 6C3.44771525 6 3 6.44771525 3 7 3 7.55228475 3.44771525 8 4 8 4.55228475 8 5 7.55228475 5 7 5 6.44771525 4.55228475 6 4 6zM11 5C12.1045695 5 13 5.8954305 13 7 13 8.1045695 12.1045695 9 11 9 9.8954305 9 9 8.1045695 9 7 9 5.8954305 9.8954305 5 11 5zM11 6C10.4477153 6 10 6.44771525 10 7 10 7.55228475 10.4477153 8 11 8 11.5522847 8 12 7.55228475 12 7 12 6.44771525 11.5522847 6 11 6z"/>
  </g>
</svg>
