<?xml version="1.0" encoding="UTF-8"?>
<svg width="24px" height="24px" viewBox="0 0 24 24" version="1.1" xmlns="http://www.w3.org/2000/svg" xmlns:xlink="http://www.w3.org/1999/xlink">
    <!-- Generator: Sketch 51.3 (57544) - http://www.bohemiancoding.com/sketch -->
    <title>mark-location</title>
    <desc>Created with Sketch.</desc>
    <defs></defs>
    <g id="mark-location" stroke="none" stroke-width="1" fill="none" fill-rule="evenodd">
        <path d="M15.9192714,10.8430544 C15.943532,10.6941927 15.9613614,10.553218 15.9738848,10.4026973 C15.9927564,10.2171929 16,10.111998 16,10.0039062 C16,7.79479095 14.2091153,6.0039062 12,6.0039062 C9.79088475,6.0039062 8,7.79479095 8,10.0039062 C8,10.1114717 8.00717072,10.2153793 8.0279119,10.4222664 C8.03863857,10.553218 8.056468,10.6941927 8.08074086,10.8431298 C8.47721554,13.2770499 9.62555271,15.1014765 12.0000008,17.5775589 C14.3745032,15.1014311 15.5227722,13.277109 15.9192714,10.8430544 Z M12,5.0039062 C14.7614,5.0039062 17,7.2425062 17,10.0039062 C17,10.1764962 16.98585,10.3358163 16.96875,10.5039062 C16.95505,10.6711563 16.93295,10.8400763 16.90625,11.0039062 C16.33375,14.518406 14,17.005859 12,19.005859 C10,17.005859 7.66623,14.518306 7.09375,11.0039062 C7.06705,10.8400763 7.04495,10.6711563 7.03125,10.5039062 C7.01425,10.3358163 7,10.1764962 7,10.0039062 C7,7.2425062 9.2386,5.0039062 12,5.0039062 Z" id="Path" fill="#303030" fill-rule="nonzero"></path>
        <path d="M12,9.0039062 C11.4477148,9.0039062 11,9.45162101 11,10.0039062 C11,10.5561915 11.4477147,11.0039062 12,11.0039062 C12.5522853,11.0039062 13,10.5561915 13,10.0039062 C13,9.45160827 12.5523026,9.0039062 12,9.0039062 Z M12,8.0039062 C13.1046,8.0039062 14,8.8993362 14,10.0039062 C14,11.1084763 13.10457,12.0039062 12,12.0039062 C10.89543,12.0039062 10,11.1084762 10,10.0039062 C10,8.8993363 10.89543,8.0039062 12,8.0039062 Z" id="Path" fill="#303030" fill-rule="nonzero"></path>
    </g>
</svg>