<svg xmlns="http://www.w3.org/2000/svg" width="24" height="24" viewBox="0 0 24 24">
  <path fill="#536076" d="M19.419922,5 C19.6809373,4.99373864 19.9024916,5.19143342 19.927734,5.453125 C20.181334,7.317325 19.78625,9.7558687 18.53125,11.7929688 C17.81875,12.9496688 16.798069,13.957707 15.480469,14.623047 C15.4083985,16.5077341 13.8709733,17.9985967 11.9980469,18 C10.1438009,17.9987456 8.61470902,16.5365837 8.5175781,14.671875 C7.1577781,14.007875 6.1142375,12.9763625 5.3984375,11.7890625 C4.1690575,9.7496625 3.80916688,7.3095125 4.09179687,5.4453125 C4.12348765,5.2087812 4.31624087,5.02746253 4.55273438,5.0117188 C4.70463974,5.00185524 4.85268983,5.0624562 4.95468346,5.17624758 C5.05667709,5.29003897 5.10142498,5.44453721 5.0761719,5.5957031 C4.83357187,7.1959031 5.1643531,9.4653313 6.2519531,11.2695312 C6.8281531,12.2253312 7.6057469,13.049094 8.6230469,13.621094 C9.0157187,12.0661837 10.404837,10.9769155 11.9980469,10.9746094 C13.5749802,10.974903 14.9555257,12.040742 15.365234,13.574219 C16.349234,13.003319 17.110574,12.1938319 17.683594,11.2636719 C18.796314,9.4573719 19.157103,7.1880906 18.939453,5.5878906 C18.9144847,5.4437367 18.9532478,5.29578902 19.0455879,5.18280384 C19.137928,5.06981867 19.2746441,5.00305419 19.419922,5 Z M12,12 C10.6192881,12 9.5,13.1192881 9.5,14.5 C9.5,15.8807119 10.6192881,17 12,17 C13.3807119,17 14.5,15.8807119 14.5,14.5 C14.5,13.1192881 13.3807119,12 12,12 Z"/>
</svg>
