<svg xmlns="http://www.w3.org/2000/svg" width="24" height="24" viewBox="0 0 24 24">
  <g fill="#536076" transform="translate(4 4)">
    <path d="M13,4 L13,1 L11,1 L11,4 L13,4 Z M14.5219531,2.00009999 C14.5172763,2.00003385 14.5126079,2.00003317 14.5079492,2.00009731 L14.5219531,2.00009999 Z M14,3 L14,5 L10,5 L10,0 L14,0 L14,2 L14.5220109,2 C14.6968985,2.00247494 14.8582433,2.09628358 14.9467559,2.24793642 C15.037659,2.4036852 15.037659,2.5963148 14.9467559,2.75206358 C14.8582433,2.90371642 14.6968985,2.99752506 14.5220109,3 L14,3 Z"/>
    <path d="M3,4 L3,1 L1,1 L1,4 L3,4 Z M4.52195308,2.00009999 C4.51727627,2.00003385 4.51260795,2.00003317 4.50794922,2.00009731 L4.52195308,2.00009999 Z M4,3 L4,5 L0,5 L0,0 L4,0 L4,2 L4.52201087,2 C4.69689848,2.00247494 4.85824328,2.09628358 4.94675586,2.24793642 C5.03765904,2.4036852 5.03765904,2.5963148 4.94675586,2.75206358 C4.85824328,2.90371642 4.69689848,2.99752506 4.52201087,3 L4,3 Z" transform="matrix(-1 0 0 1 5.015 0)"/>
    <polygon points="7 5.027 7 7.027 5 7.027 7.5 10.027 10 7.027 8 7.027 8 5.027"/>
    <path d="M10,11 L10,13.027344 L14.498047,13.027344 C14.678365,13.0247939 14.8460877,13.1195316 14.9369909,13.2752804 C15.027894,13.4310292 15.027894,13.6236588 14.9369909,13.7794076 C14.8460877,13.9351564 14.678365,14.0025501 14.498047,14 L14.498047,14 L10,14 L10,16 L5,16 L5,14 L0.52148438,14 C0.341166422,14.0025501 0.173443698,13.9351564 0.0825405193,13.7794076 C-0.0083626592,13.6236588 -0.0083626592,13.4310292 0.0825405193,13.2752804 C0.173443698,13.1195316 0.341166422,13.0247939 0.52148438,13.027344 L0.52148438,13.027344 L5,13.027344 L5,11 L10,11 Z M9,12 L6,12 L6,15 L9,15 L9,12 Z"/>
  </g>
</svg>
