<?xml version="1.0" encoding="UTF-8"?>
<svg width="24px" height="24px" viewBox="0 0 24 24" version="1.1" xmlns="http://www.w3.org/2000/svg" xmlns:xlink="http://www.w3.org/1999/xlink">
    <!-- Generator: Sketch 51.3 (57544) - http://www.bohemiancoding.com/sketch -->
    <title>office-chart-scatter</title>
    <desc>Created with Sketch.</desc>
    <defs></defs>
    <g id="office-chart-scatter" stroke="none" stroke-width="1" fill="none" fill-rule="evenodd">
        <path d="M6,6 L6,17 L6,18 L7,18 L18,18 L18,17 L7,17 L7,6 L6,6 Z M8,6 L8,7 L9,7 L9,6 L8,6 Z M10,6 L10,7 L11,7 L11,6 L10,6 Z M16,7 L16,8 L17,8 L17,7 L16,7 Z M17,8 L17,9 L18,9 L18,8 L17,8 Z M17,9 L16,9 L16,10 L17,10 L17,9 Z M16,9 L16,8 L15,8 L15,9 L16,9 Z M8,8 L8,9 L9,9 L9,8 L8,8 Z M10,8 L10,9 L11,9 L11,8 L10,8 Z M13,11 L13,12 L14,12 L14,11 L13,11 Z M15,11 L15,12 L16,12 L16,11 L15,11 Z M9,13 L9,14 L10,14 L10,13 L9,13 Z M10,14 L10,15 L11,15 L11,14 L10,14 Z M10,15 L9,15 L9,16 L10,16 L10,15 Z M9,15 L9,14 L8,14 L8,15 L9,15 Z M13,13 L13,14 L14,14 L14,13 L13,13 Z M15,13 L15,14 L16,14 L16,13 L15,13 Z" id="Shape" fill="#303030" fill-rule="nonzero"></path>
    </g>
</svg>