<svg xmlns="http://www.w3.org/2000/svg" width="24" height="24" viewBox="0 0 24 24">
  <path fill="#536076" d="M19,3 L19,15.5825398 L14.0041965,21 L5,21 L5,3 L19,3 Z M8,15 L6,15 L6,16 L7,16 L7,17 L6,17 L6,18 L7,18 L7,19 L6,19 L6,20 L8,20 L8,15 Z M18,7 L9,7 L9,20 L13.5660724,20 L18,15.1918393 L18,7 Z M8,7 L6,7 L6,8 L7,8 L7,9 L6,9 L6,10 L7,10 L7,11 L6,11 L6,12 L7,12 L7,13 L6,13 L6,14 L8,14 L8,7 Z M6,4 L6,6 L8,6 L8,4 L6,4 Z M17,5 L16,5 L16,4 L15,4 L15,5 L14,5 L14,4 L13,4 L13,5 L12,5 L12,4 L11,4 L11,5 L10,5 L10,4 L9,4 L9,6 L18,6 L18,4 L17,4 L17,5 Z"/>
</svg>
