<svg xmlns="http://www.w3.org/2000/svg" width="24" height="24" viewBox="0 0 24 24">
  <g fill="#536076" transform="translate(5 5)">
    <polygon points="5 5 9 7 5 9"/>
    <path d="M8,0 L8,1.0898438 C8.8908,1.2405438 9.735656,1.5902812 10.472656,2.1132812 L10.472656,2.1132812 L11.242188,1.34375 L12.65625,2.7578125 L11.884766,3.5292969 C12.409766,4.2648969 12.761062,5.1094 12.914062,6 L12.914062,6 L14,6 L14,8 L12.910156,8 C12.760156,8.8908 12.409719,9.735656 11.886719,10.472656 L11.886719,10.472656 L12.65625,11.242188 L11.242188,12.65625 L10.470703,11.884766 C9.734703,12.409766 8.8906,12.761062 8,12.914062 L8,12.914062 L8,14 L6,14 L6,12.910156 C5.1092,12.760156 4.2640437,12.409719 3.5273438,11.886719 L3.5273438,11.886719 L2.7578125,12.65625 L1.34375,11.242188 L2.1152344,10.470703 C1.5905344,9.734703 1.2386375,8.8906 1.0859375,8 L1.0859375,8 L0,8 L0,6 L1.0898438,6 C1.2405438,5.1092 1.5902812,4.2640437 2.1132812,3.5273438 L2.1132812,3.5273438 L1.34375,2.7578125 L2.7578125,1.34375 L3.5292969,2.1152344 C4.2648969,1.5905344 5.1094,1.2386375 6,1.0859375 L6,1.0859375 L6,0 L8,0 Z M7,2 C4.23857625,2 2,4.23857625 2,7 C2,9.76142375 4.23857625,12 7,12 C9.76142375,12 12,9.76142375 12,7 C12,4.23857625 9.76142375,2 7,2 Z"/>
  </g>
</svg>
