<?xml version="1.0" encoding="UTF-8"?>
<svg width="24px" height="24px" viewBox="0 0 24 24" version="1.1" xmlns="http://www.w3.org/2000/svg" xmlns:xlink="http://www.w3.org/1999/xlink">
    <!-- Generator: Sketch 51.3 (57544) - http://www.bohemiancoding.com/sketch -->
    <title>snap-intersection</title>
    <desc>Created with Sketch.</desc>
    <defs></defs>
    <g id="snap-intersection" stroke="none" stroke-width="1" fill="none" fill-rule="evenodd">
        <path d="M17.646484,5.6464844 L18.353516,6.3535156 L14,10.7070312 L14,14 L10.7070312,14 L6.3535156,18.353516 L5.6464844,17.646484 L10,13.2929688 L10,10 L13.2929688,10 L17.646484,5.6464844 Z M11,11 L11,13 L13,13 L13,11 L11,11 Z" id="Combined-Shape" fill="#303030" fill-rule="nonzero"></path>
        <polygon id="Path" fill="#303030" fill-rule="nonzero" points="6 6 6 7 7 7 7 6"></polygon>
        <polygon id="Path" fill="#303030" fill-rule="nonzero" points="8 8 8 9 9 9 9 8"></polygon>
        <polygon id="Path" fill="#303030" fill-rule="nonzero" points="15 15 15 16 16 16 16 15"></polygon>
        <polygon id="Path" fill="#303030" fill-rule="nonzero" points="17 17 17 18 18 18 18 17"></polygon>
    </g>
</svg>