<?xml version="1.0" encoding="UTF-8"?>
<svg width="24px" height="24px" viewBox="0 0 24 24" version="1.1" xmlns="http://www.w3.org/2000/svg" xmlns:xlink="http://www.w3.org/1999/xlink">
    <!-- Generator: Sketch 51.3 (57544) - http://www.bohemiancoding.com/sketch -->
    <title>text-field</title>
    <desc>Created with Sketch.</desc>
    <defs></defs>
    <g id="text-field" stroke="none" stroke-width="1" fill="none" fill-rule="evenodd">
        <path d="M5,6.99990001 L7,7 L7,17 L6,17 L5.00009999,17 L5,18 L9.99990001,18 L10,17.0001 L8,17 L8,7 L9,7 L9.99990001,7 L10,6 L5,6 L5,6.99990001 Z M5,5 L10,5 C10.5522619,5.00005522 10.9999448,5.44773812 11,6 L11,7 C10.9999448,7.55226188 10.5522619,7.99994478 10,8 L9,8 L9,16 L10,16 C10.5522619,16.0000552 10.9999448,16.4477381 11,17 L11,18 C10.9999448,18.5522619 10.5522619,18.9999448 10,19 L5,19 C4.44773812,18.9999448 4.00005522,18.5522619 4,18 L4,17 C4.00005522,16.4477381 4.44773812,16.0000552 5,16 L6,16 L6,8 L5,8 C4.44773812,7.99994478 4.00005522,7.55226188 4,7 L4,6 C4.00005522,5.44773812 4.44773812,5.00005522 5,5 Z M11,14.9999 L17.9999,15 L18,13.0001 L17.0001,13 L16.9999,14 L12.0001,14 L12,13.0001 L11,13 L11,14.9999 Z M11,12 L12,12 C12.5522619,12.0000552 12.9999448,12.4477381 13,13 L16,13 C16.0000552,12.4477381 16.4477381,12.0000552 17,12 L18,12 C18.5522619,12.0000552 18.9999448,12.4477381 19,13 L19,15 C18.9999448,15.5522619 18.5522619,15.9999448 18,16 L11,16 C10.4477381,15.9999448 10.0000552,15.5522619 10,15 L10,13 C10.0000552,12.4477381 10.4477381,12.0000552 11,12 Z" id="Shape" fill="#303030" fill-rule="nonzero"></path>
    </g>
</svg>