<?xml version="1.0" encoding="UTF-8"?>
<svg width="24px" height="24px" viewBox="0 0 24 24" version="1.1" xmlns="http://www.w3.org/2000/svg" xmlns:xlink="http://www.w3.org/1999/xlink">
    <!-- Generator: Sketch 51.3 (57544) - http://www.bohemiancoding.com/sketch -->
    <title>transform-shear-right</title>
    <desc>Created with Sketch.</desc>
    <defs></defs>
    <g id="transform-shear-right" stroke="none" stroke-width="1" fill="none" fill-rule="evenodd">
        <g id="104" transform="translate(12.000000, 12.000000) scale(-1, 1) rotate(-270.000000) translate(-12.000000, -12.000000) translate(5.000000, 5.000000)" fill="#303030" fill-rule="nonzero">
            <path d="M13,1.24661605 L6,2.80217161 L6,9.75338395 L13,8.19782839 L13,1.24661605 Z M14,0 L14,9 L5,11 L5,2 L14,0 Z M8,12.3814348 L5.21700002,13 L8,13 L8,12.3814348 Z M3,5 L1,5 L1,13 L3,13 L3,5 Z M4,11.2216908 L4,11.4439564 L4,12.246094 L4.78302919,12.0720535 L5,12.0238284 L9,11.134766 L9,14 L0,14 L0,4 L4,4 L4,11.2216908 Z" id="Shape"></path>
        </g>
    </g>
</svg>