<?xml version="1.0" encoding="UTF-8"?>
<svg width="24px" height="24px" viewBox="0 0 24 24" version="1.1" xmlns="http://www.w3.org/2000/svg" xmlns:xlink="http://www.w3.org/1999/xlink">
    <!-- Generator: Sketch 51.3 (57544) - http://www.bohemiancoding.com/sketch -->
    <title>view-bank-account</title>
    <desc>Created with Sketch.</desc>
    <defs></defs>
    <g id="view-bank-account" stroke="none" stroke-width="1" fill="none" fill-rule="evenodd">
        <g id="109" transform="translate(5.000000, 5.000000)" fill="#303030" fill-rule="nonzero">
            <path d="M11.5857864,6 L7,1.41421356 L2.41421356,6 L3,6 L3,13 L11,13 L11,6 L11.5857864,6 Z M7,0 L14,7 L12,7 L12,14 L2,14 L2,7 L0,7 L7,0 Z" id="Path"></path>
            <path d="M7,5 C8.1046,5 9,5.89547 9,7 C9,8.10453 8.10457,9 7,9 C9.9999,8.9982 10,11.400391 10,11.400391 L10,12 L4,12 L4,11.400391 C4,11.400391 3.99989,9.0018 7,9 C5.8954,9 5,8.10453 5,7 C5,5.89547 5.89543,5 7,5 Z M7,8 C7.55228475,8 8,7.55228475 8,7 C8,6.44771525 7.55228475,6 7,6 C6.44771525,6 6,6.44771525 6,7 C6,7.55228475 6.44771525,8 7,8 Z M5.12103604,11.018592 L8.92834327,11.018592 C8.76152961,10.3528024 8.1269784,10.0199077 7.02468965,10.0199077 C5.9224009,10.0199077 5.28784969,10.3528024 5.12103604,11.018592 Z" id="Combined-Shape"></path>
        </g>
    </g>
</svg>