<?xml version="1.0" encoding="UTF-8"?>
<svg width="24px" height="24px" viewBox="0 0 24 24" version="1.1" xmlns="http://www.w3.org/2000/svg" xmlns:xlink="http://www.w3.org/1999/xlink">
    <!-- Generator: Sketch 51.3 (57544) - http://www.bohemiancoding.com/sketch -->
    <title>view-right-close</title>
    <desc>Created with Sketch.</desc>
    <defs></defs>
    <g id="view-right-close" stroke="none" stroke-width="1" fill="none" fill-rule="evenodd">
        <g id="125" transform="translate(12.000000, 12.500000) scale(-1, 1) translate(-12.000000, -12.500000) translate(4.000000, 5.000000)" fill="#303030" fill-rule="nonzero">
            <path d="M16,-2.31765562e-14 L16,14 C10.6667,13.998 5.333,14.005906 0,14.003906 L0,0.0039062 C5.3333,0.0059062 10.667,-0.002 16,-2.31765562e-14 Z M1,1 L1,13 L15,13 L15,1 L1,1 Z" id="Combined-Shape"></path>
            <path d="M9,2 L14,2.0039062 L14,12.005859 L9,12.003906 L9,2 Z M10,3 L10,11 L13,11 L13,3 L10,3 Z" id="Combined-Shape"></path>
            <polygon id="Path" points="2.43854408 5.04549513 3.75853229 6.35240272 5.03848515 5.08513375 5.73851461 5.77822616 4.45856175 7.04549513 5.73851461 8.3127641 5.03848515 9.00585651 3.75853229 7.73858754 2.43854408 9.04549513 1.73851461 8.35240272 3.05850283 7.04549513 1.73851461 5.73858754"></polygon>
        </g>
    </g>
</svg>