<?xml version="1.0" encoding="UTF-8"?>
<svg width="24px" height="24px" viewBox="0 0 24 24" version="1.1" xmlns="http://www.w3.org/2000/svg" xmlns:xlink="http://www.w3.org/1999/xlink">
    <!-- Generator: Sketch 51.3 (57544) - http://www.bohemiancoding.com/sketch -->
    <title>view-readermode-active</title>
    <desc>Created with Sketch.</desc>
    <defs></defs>
    <g id="view-readermode-active" stroke="none" stroke-width="1" fill="none" fill-rule="evenodd">
        <path d="M14.029297,5 C13.8821968,5.003 13.7293125,5.0169625 13.5703125,5.0390625 C13.0034125,5.1178625 12.3186875,5.3915281 11.5546875,5.7988281 C10.0140875,4.94570816 8.8138406,4.89374685 7.8066406,5.1542969 C6.7378406,5.4307969 5.868925,5.88425 4.515625,5.84375 L4,5.828125 L4,20 L15.787109,20 C15.304109,19.467 15,18.769 15,18 C15,16.816 15.707844,15.790686 16.714844,15.304688 C16.227844,15.167687 15.735453,15.018814 15.189453,14.882812 C14.210453,14.637814 13.0982,14.696187 12,15.367188 L12,6.6699219 C12.7033,6.2844219 13.2453875,6.0717125 13.6796875,6.0078125 C13.9188875,5.9726125 14.131891,5.9756531 14.337891,6.0019531 C14.543891,6.0284531 14.743219,6.079125 14.949219,6.140625 C15.484219,6.300425 17,6.90780454 18,6.7011719 L18,15 C18.352,15 18.685,15.0735 19,15.1875 L19,5.8457031 L18.482422,5.8632812 C16.966422,5.9184812 16.212422,5.464575 15.232422,5.171875 C14.865422,5.062075 14.471297,4.99098 14.029297,5 Z M9.21875,5.9941406 C9.71765,6.0327406 10.2822,6.213475 11,6.609375 L11,15.335938 C9.8956,14.693937 8.7902064,14.645672 7.8164062,14.888672 C7.1632062,15.050672 5.78916632,15.5713848 5,15.388672 L5,6.6640625 C6.28727119,6.87698459 7.4740875,6.2830125 8.0546875,6.1328125 C8.2857875,6.0730125 8.5090812,6.024 8.7382812,6 C8.8932813,5.9838 9.05235,5.9813406 9.21875,5.9941406 Z M18,16 C19.1045695,16 20,16.8954305 20,18 C20,19.1045695 19.1045695,20 18,20 C16.8954305,20 16,19.1045695 16,18 C16,16.8954305 16.8954305,16 18,16 Z M18,19 C18.5522847,19 19,18.5522847 19,18 C19,17.4477153 18.5522847,17 18,17 C17.4477153,17 17,17.4477153 17,18 C17,18.5522847 17.4477153,19 18,19 Z M5,16.3004716 C5.93246744,16.5414422 6.72332725,16.285134 7.8164062,16 C8.85294488,15.7249661 9.63031698,15.8003999 11.017024,16.3605678 C11.3449004,16.3896886 11.6721236,16.3314471 12,16.3605678 C12.2592022,16.3835892 12.5179376,16.2215513 13.2687655,16 C13.5703125,15.9110207 14.029297,15.7267638 14.8169281,16 C14.8007289,16.0189525 14.7607549,16.0649177 14.697006,16.1378956 L14.6969953,16.1378862 C14.0088743,16.9256281 13.8318395,18.0375016 14.2412836,19 L5,18.9992308 C5.00553815,17.7772667 5.00553815,16.8776802 5,16.3004716 Z" id="Combined-Shape" fill="#303030" fill-rule="nonzero"></path>
    </g>
</svg>