<?xml version="1.0" encoding="UTF-8"?>
<svg width="24px" height="24px" viewBox="0 0 24 24" version="1.1" xmlns="http://www.w3.org/2000/svg" xmlns:xlink="http://www.w3.org/1999/xlink">
    <!-- Generator: Sketch 51.3 (57544) - http://www.bohemiancoding.com/sketch -->
    <title>view-bank-account-savings</title>
    <desc>Created with Sketch.</desc>
    <defs></defs>
    <g id="view-bank-account-savings" stroke="none" stroke-width="1" fill="none" fill-rule="evenodd">
        <path d="M15.5857864,10 L11,5.41421356 L6.41421356,10 L7,10 L7,17 L15,17 L15,10 L15.5857864,10 Z M11,4 L18,11 L16,11 L16,18 L6,18 L6,11 L4,11 L11,4 Z" id="Path" fill="#303030" fill-rule="nonzero"></path>
        <polygon id="Path" fill="#303030" fill-rule="nonzero" points="18 14 18 16 17 16 18.5 19 20 16 19 16 19 14"></polygon>
        <path d="M11,9 C12.1046,9 13,9.89547 13,11 C13,12.10453 12.10457,13 11,13 C13.9999,12.9982 14,15.400391 14,15.400391 L14,16 L8,16 L8,15.400391 C8,15.400391 7.99989,13.0018 11,13 C9.8954,13 9,12.10453 9,11 C9,9.89547 9.89543,9 11,9 Z M11,12 C11.5522847,12 12,11.5522847 12,11 C12,10.4477153 11.5522847,10 11,10 C10.4477153,10 10,10.4477153 10,11 C10,11.5522847 10.4477153,12 11,12 Z M9.12103604,15.018592 L12.9283433,15.018592 C12.7615296,14.3528024 12.1269784,14.0199077 11.0246897,14.0199077 C9.9224009,14.0199077 9.28784969,14.3528024 9.12103604,15.018592 Z" id="Combined-Shape" fill="#303030" fill-rule="nonzero"></path>
    </g>
</svg>