<svg xmlns="http://www.w3.org/2000/svg" width="16" height="16" viewBox="0 0 16 16">
  <g fill="none" fill-rule="evenodd">
    <path fill="#565656" d="M2.00000042,3 L2.92985433,13.9222455 C2.98321556,14.5184453 3.50292778,15 4.09085846,15 L11.9091415,15 C12.493902,15 13.0168715,14.5174729 13.0701457,13.9222455 L14.0000005,3 L14.5017326,3 C14.7800934,3 15,2.77614237 15,2.5 C15,2.23193359 14.7769181,2 14.5017326,2 L1.49826741,2 C1.21990657,2 1,2.22385763 1,2.5 C1,2.76806641 1.22308192,3 1.49826741,3 L2.00000042,3 L2.00000042,3 Z"/>
    <path fill="#394700" d="M3.72009416,11.453861 L3.83571438,12.6848148 L3.83635379,12.6850193 L3.9000001,13.4033338 C3.9000001,13.4033338 3.90000009,14.0191738 4.5666668,14.0191738 C4.71558008,14.0191738 5.21699166,14.0191738 5.83650451,14.0191738 L6.05680013,14.0213784 L6.05829682,14.0191738 C6.88171666,14.0191738 7.85343653,14.0191738 8.48333348,14.0191738 C8.48333364,14.0191734 8.48333344,14.0191738 8.48333344,14.0191738 C8.48333344,14.0191738 10.7333334,14.0191737 11.4000001,14.0191737 C12.0666668,14.0191737 12.1333375,13.4033336 12.1333375,13.4033336 L12.6402831,8.83385777 L12.1781082,8.75746044 L12.6549524,8.38700029 L11.2587711,6.48944916 L8.60576003,8.31929028 L9.02227153,7.38032955 L5.57857152,6.07000018 L4.63111455,8.10965494 L3.98095245,7.78985193 L3.44357862,8.71592596 L3.60333697,10.3034814 L3.61244386,10.3077593 L3.66169661,10.83213 L3.66143576,10.8326666 L3.71301324,11.4501443 L3.72009416,11.453861 L3.72009416,11.453861 Z" opacity=".599"/>
    <path fill="#869D29" d="M7.94631588,7.09734658 C7.2468422,5.68929253 6.51105273,6.82313037 6.51105273,6.82313037 L5.95315799,7.78802226 L7.10157904,8.44275199 L7.94631588,7.09734658 Z M10.4300001,6.66599523 L9.81105273,7.00799523 L9.58421062,6.61721145 C9.58421062,6.61721145 9.40894746,6.21050875 8.54421062,6.25313037 C8.54421062,6.25313037 7.47263167,6.28240064 7.36105273,6.26237361 C7.36105273,6.26237361 7.66473694,6.32091415 7.81578957,6.55045469 L8.5000001,7.73153577 L8.0000001,8.00677902 L9.67789483,8.04221145 L10.4300001,6.66599523 Z M6.31736852,10.0716169 C5.44947378,11.3856979 6.82526325,11.4108601 6.82526325,11.4108601 L7.95842115,11.3744006 L7.93578957,10.076752 L6.31736852,10.0716169 Z M4.6500001,8.22604929 L5.27105273,8.56394118 L5.04578957,8.95575199 C5.04578957,8.95575199 4.78157904,9.31418442 5.26842115,10.0115358 C5.26842115,10.0115358 5.85210536,10.8906709 5.89105273,10.9938871 C5.89105273,10.9938871 5.78421062,10.7104277 5.9068422,10.4649682 L6.58578957,9.28080604 L7.08736852,9.55348172 L6.24578957,8.13721145 L4.6500001,8.22604929 Z M9.88526325,9.87494118 C11.4847369,9.97353577 10.8357896,8.79040064 10.8357896,8.79040064 L10.2500001,7.84194118 L9.10052641,8.49513037 L9.88526325,9.87494118 Z M8.18894746,10.8798871 L9.0468422,9.47234658 L9.0468422,10.0336169 L10.4368422,10.0336169 C10.7163159,10.0182114 10.9178948,9.78867091 10.9178948,9.78867091 C10.8447369,9.8718601 10.3426317,10.7982385 10.3426317,10.7982385 C9.95631588,11.5531033 9.5068422,11.502779 9.5068422,11.502779 L9.0468422,11.502779 L9.0468422,12.1960223 L8.18894746,10.8798871 Z"/>
  </g>
</svg>
