<svg xmlns="http://www.w3.org/2000/svg" xmlns:xlink="http://www.w3.org/1999/xlink" width="24" height="24" viewBox="0 0 24 24">
  <defs>
    <filter id="media-optical-a" width="135%" height="135%" x="-17.5%" y="-17.5%" filterUnits="objectBoundingBox">
      <feOffset in="SourceAlpha" result="shadowOffsetOuter1"/>
      <feGaussianBlur in="shadowOffsetOuter1" result="shadowBlurOuter1" stdDeviation=".5"/>
      <feColorMatrix in="shadowBlurOuter1" result="shadowMatrixOuter1" values="0 0 0 0 0   0 0 0 0 0   0 0 0 0 0  0 0 0 0.15 0"/>
      <feMerge>
        <feMergeNode in="shadowMatrixOuter1"/>
        <feMergeNode in="SourceGraphic"/>
      </feMerge>
    </filter>
    <linearGradient id="media-optical-b" x1="55.236%" x2="24.479%" y1="99.549%" y2="2.297%">
      <stop offset="0%" stop-color="#DBDBDB"/>
      <stop offset="10.762%" stop-color="#DFDFDF"/>
      <stop offset="34.919%" stop-color="#E2E2F0"/>
      <stop offset="66.968%" stop-color="#F8EEEE"/>
      <stop offset="100%" stop-color="#F7F7F7"/>
      <stop offset="100%" stop-color="#F7F7F7"/>
    </linearGradient>
    <linearGradient id="media-optical-d" x1="45.043%" x2="44.765%" y1="99.549%" y2=".45%">
      <stop offset="0%" stop-color="#A0A0A0"/>
      <stop offset="100%" stop-color="#C8C8C8"/>
    </linearGradient>
    <linearGradient id="media-optical-e" x1="50%" x2="50%" y1="1.318%" y2="60.158%">
      <stop offset="0%" stop-color="#FFF"/>
      <stop offset="21.25%" stop-color="#FFF"/>
      <stop offset="100%" stop-color="#FFF" stop-opacity="0"/>
    </linearGradient>
    <path id="media-optical-c" d="M10,0 C4.47715243,0 0,4.47715261 0,10 C0,15.5228474 4.47715243,20 10,20 C15.5228476,20 20,15.5228474 20,10 C20,4.47715261 15.5228476,0 10,0 Z M10,5 C12.7599784,5 15,7.24001892 15,10 C15,12.7600027 12.76,15 10,15 C7.2399973,15 5,12.7600027 5,10 C5,7.24 7.2399973,5 10,5 Z"/>
  </defs>
  <g fill="none" stroke-linecap="square" stroke-linejoin="round" filter="url(#media-optical-a)" transform="translate(2 2)">
    <use fill="url(#media-optical-b)" xlink:href="#media-optical-c"/>
    <path stroke="url(#media-optical-d)" d="M10,-0.5 C12.899495,-0.5 15.5244949,0.675252543 17.4246212,2.5753788 C19.3247475,4.47550508 20.5,7.1005051 20.5,10 C20.5,12.8994949 19.3247475,15.5244949 17.4246212,17.4246212 C15.5244949,19.3247475 12.899495,20.5 10,20.5 C7.10050506,20.5 4.47550509,19.3247475 2.57537883,17.4246212 C0.675252539,15.5244949 -0.5,12.8994949 -0.5,10 C-0.5,7.1005051 0.67525253,4.47550508 2.57537881,2.5753788 C4.47550507,0.675252543 7.10050505,-0.5 10,-0.5 Z M10,5.5 C8.7579991,5.5 7.63303903,6.00406674 6.81855304,6.81855273 C6.00406665,7.63303912 5.5,8.75799969 5.5,10 C5.5,11.2420012 6.00406632,12.3669616 6.81855238,13.1814476 C7.63303843,13.9959337 8.75799878,14.5 10,14.5 C11.2420003,14.5 12.3669609,13.9959334 13.1814473,13.181447 C13.9959333,12.366961 14.5,11.2420009 14.5,10 C14.5,8.75800883 13.9959274,7.63304936 13.1814392,6.81856115 C12.3669505,6.00407253 11.2419906,5.5 10,5.5 Z"/>
    <path stroke="url(#media-optical-e)" stroke-linejoin="square" d="M10,0.5 C12.6233526,0.5 14.9983526,1.56332373 16.7175144,3.28248558 C18.4366763,5.00164746 19.5,7.37664747 19.5,10 C19.5,12.6233525 18.4366763,14.9983525 16.7175144,16.7175144 C14.9983526,18.4366763 12.6233526,19.5 10,19.5 C7.37664744,19.5 5.00164746,18.4366763 3.28248561,16.7175144 C1.56332373,14.9983526 0.5,12.6233525 0.5,10 C0.5,7.37664747 1.56332372,5.00164746 3.28248559,3.28248558 C5.00164744,1.56332373 7.37664743,0.5 10,0.5 Z M10,4.5 L10,4.5 L9.71710788,4.50716026 C8.31160148,4.57847433 7.04473991,5.17815229 6.11144626,6.11144594 C5.11593255,7.10695965 4.5,8.48199964 4.5,10 C4.5,11.5180015 5.11593232,12.8930411 6.1114456,13.8885544 C7.10695887,14.8840677 8.48199851,15.5 10,15.5 C11.5180004,15.5 12.8930403,14.8840674 13.8885541,13.8885537 C14.8840673,12.8930405 15.5,11.5180011 15.5,10 C15.5,8.48201077 14.8840624,7.10697078 13.8885459,6.11145437 C12.8930291,5.11593748 11.5179885,4.5 10,4.5 L10,4.5 Z"/>
    <path fill="#BCBCBC" stroke="#A8A8A8" d="M10,5.5 C11.2419916,5.5 12.3670318,6.00393629 13.1815477,6.81845224 C13.9960637,7.63296822 14.5,8.75800849 14.5,10 C14.5,11.2420022 13.9960677,12.3670415 13.1815548,13.1815545 C12.3670414,13.9960679 11.2420016,14.5 10,14.5 C8.75799815,14.5 7.6329587,13.9960677 6.81844561,13.1815546 C6.00393225,12.3670412 5.5,11.2420014 5.5,10 C5.5,8.75799858 6.00393225,7.63295879 6.81844561,6.81844543 C7.6329587,6.00393234 8.75799815,5.5 10,5.5 Z M10,8.03491211 C9.45763721,8.03491211 8.96640544,8.25507032 8.61073805,8.61073771 C8.25507027,8.9664055 8.03491211,9.45763775 8.03491211,10 C8.03491211,10.5423623 8.25507027,11.0335945 8.61073805,11.3892623 C8.96640544,11.7449297 9.45763721,11.9650879 10,11.9650879 C10.5423619,11.9650879 11.0335939,11.7449293 11.3892616,11.3892616 C11.7449293,11.0335939 11.9650879,10.5423619 11.9650879,10 C11.9650879,9.45763805 11.7449293,8.96640613 11.3892616,8.61073843 C11.0335939,8.25507072 10.5423619,8.03491211 10,8.03491211 Z" opacity=".9"/>
  </g>
</svg>
