<?xml version="1.0" encoding="UTF-8"?>
<svg width="24px" height="24px" viewBox="0 0 24 24" version="1.1" xmlns="http://www.w3.org/2000/svg" xmlns:xlink="http://www.w3.org/1999/xlink">
    <title>places/24/deepin-launcher</title>
    <defs>
        <filter x="-6.8%" y="-6.8%" width="113.6%" height="113.6%" filterUnits="objectBoundingBox" id="filter-1">
            <feOffset dx="0" dy="0" in="SourceAlpha" result="shadowOffsetOuter1"></feOffset>
            <feGaussianBlur stdDeviation="0.5" in="shadowOffsetOuter1" result="shadowBlurOuter1"></feGaussianBlur>
            <feColorMatrix values="0 0 0 0 0   0 0 0 0 0   0 0 0 0 0  0 0 0 0.15 0" type="matrix" in="shadowBlurOuter1" result="shadowMatrixOuter1"></feColorMatrix>
            <feMerge>
                <feMergeNode in="shadowMatrixOuter1"></feMergeNode>
                <feMergeNode in="SourceGraphic"></feMergeNode>
            </feMerge>
        </filter>
        <linearGradient x1="36.374%" y1="10.403%" x2="36.374%" y2="93.072%" id="linearGradient-2">
            <stop stop-color="#FFFFFF" offset="0%"></stop>
            <stop stop-color="#C6D3D5" offset="100%"></stop>
        </linearGradient>
        <linearGradient x1="100%" y1="0%" x2="0%" y2="100%" id="linearGradient-3">
            <stop stop-color="#ECD935" offset="0%"></stop>
            <stop stop-color="#3BCAB9" offset="100%"></stop>
        </linearGradient>
        <linearGradient x1="0%" y1="0%" x2="100%" y2="100%" id="linearGradient-4">
            <stop stop-color="#00B8E8" offset="0%"></stop>
            <stop stop-color="#4B5EFF" offset="100%"></stop>
        </linearGradient>
        <linearGradient x1="0%" y1="0%" x2="100%" y2="100%" id="linearGradient-5">
            <stop stop-color="#FFC823" offset="0%"></stop>
            <stop stop-color="#FF2F78" offset="100%"></stop>
        </linearGradient>
        <linearGradient x1="81.903%" y1="0%" x2="0%" y2="100%" id="linearGradient-6">
            <stop stop-color="#DE00C0" offset="0%"></stop>
            <stop stop-color="#8720FF" offset="100%"></stop>
        </linearGradient>
    </defs>
    <g id="places/24/deepin-launcher" stroke="none" stroke-width="1" fill="none" fill-rule="evenodd">
        <g id="deepin-launcher" filter="url(#filter-1)" transform="translate(1, 1)" fill-rule="nonzero">
            <path d="M0,11 C0,4.92485714 4.92485714,0 11,0 C17.0751429,0 22,4.92485714 22,11 C22,17.0751429 17.0751429,22 11,22 C4.92485714,22 0,17.0751429 0,11 Z" id="路径" fill="url(#linearGradient-2)"></path>
            <g id="编组" transform="translate(3.0934, 3.0931)">
                <path d="M2.011863,5.57395162 L4.53817879,5.57395162 C5.11953116,5.57395162 5.59081037,6.04523083 5.59081037,6.6265832 L5.59081037,9.15289899 C5.59081037,9.73425136 5.11953116,10.2055306 4.53817879,10.2055306 L2.011863,10.2055306 C1.43051063,10.2055306 0.959231415,9.73425136 0.959231415,9.15289899 L0.959231415,6.6265832 C0.959231415,6.04523083 1.43051063,5.57395162 2.011863,5.57395162 Z" id="路径" fill="url(#linearGradient-3)" transform="translate(3.275, 7.8897) rotate(-45) translate(-3.275, -7.8897)"></path>
                <path d="M6.62658318,10.1889516 L9.15289897,10.1889516 C9.73425134,10.1889516 10.2055306,10.6602308 10.2055306,11.2415832 L10.2055306,13.7678989 C10.2055306,14.3492513 9.73425134,14.8205305 9.15289897,14.8205305 L6.62658318,14.8205305 C6.04523081,14.8205305 5.5739516,14.3492513 5.5739516,13.7678989 L5.5739516,11.2415832 C5.5739516,10.6602308 6.04523081,10.1889516 6.62658318,10.1889516 Z" id="路径" fill="url(#linearGradient-4)" transform="translate(7.8897, 12.5047) rotate(-45) translate(-7.8897, -12.5047)"></path>
                <path d="M6.62686299,0.959231415 L9.15317878,0.959231415 C9.73453115,0.959231415 10.2058104,1.43051063 10.2058104,2.011863 L10.2058104,4.53817879 C10.2058104,5.11953116 9.73453115,5.59081037 9.15317878,5.59081037 L6.62686299,5.59081037 C6.04551062,5.59081037 5.57423141,5.11953116 5.57423141,4.53817879 L5.57423141,2.011863 C5.57423141,1.43051063 6.04551062,0.959231415 6.62686299,0.959231415 Z" id="路径" fill="url(#linearGradient-5)" transform="translate(7.89, 3.275) rotate(-45) translate(-7.89, -3.275)"></path>
                <path d="M11.2415832,5.57423142 L13.7678989,5.57423142 C14.3492513,5.57423142 14.8205305,6.04551063 14.8205305,6.626863 L14.8205305,9.15317879 C14.8205305,9.73453116 14.3492513,10.2058104 13.7678989,10.2058104 L11.2415832,10.2058104 C10.6602308,10.2058104 10.1889516,9.73453116 10.1889516,9.15317879 L10.1889516,6.626863 C10.1889516,6.04551063 10.6602308,5.57423142 11.2415832,5.57423142 Z" id="路径" fill="url(#linearGradient-6)" transform="translate(12.5047, 7.89) rotate(-45) translate(-12.5047, -7.89)"></path>
            </g>
        </g>
        <g id="Guide/24" transform="translate(0.5, 0.5)"></g>
    </g>
</svg>