<svg xmlns="http://www.w3.org/2000/svg" xmlns:xlink="http://www.w3.org/1999/xlink" width="24" height="24" viewBox="0 0 24 24">
  <defs>
    <filter id="folder-downloads-a" width="122.7%" height="127.8%" x="-11.4%" y="-13.9%" filterUnits="objectBoundingBox">
      <feOffset in="SourceAlpha" result="shadowOffsetOuter1"/>
      <feGaussianBlur in="shadowOffsetOuter1" result="shadowBlurOuter1" stdDeviation=".5"/>
      <feComposite in="shadowBlurOuter1" in2="SourceAlpha" operator="out" result="shadowBlurOuter1"/>
      <feColorMatrix in="shadowBlurOuter1" result="shadowMatrixOuter1" values="0 0 0 0 0   0 0 0 0 0   0 0 0 0 0  0 0 0 0.15 0"/>
      <feMerge>
        <feMergeNode in="shadowMatrixOuter1"/>
        <feMergeNode in="SourceGraphic"/>
      </feMerge>
    </filter>
    <linearGradient id="folder-downloads-c" x1="50%" x2="50%" y1="0%" y2="37.968%">
      <stop offset="0%" stop-color="#00B8FF"/>
      <stop offset="100%" stop-color="#2E5DFF"/>
    </linearGradient>
    <path id="folder-downloads-b" d="M13,1 C13.306433,1.61286606 13.9328289,2 14.618034,2 L19.4144144,2 C20.8423939,2 22,3.1576061 22,4.58558559 L22,15.4144144 C22,16.8423939 20.8423939,18 19.4144144,18 L2.58558559,18 C1.1576061,18 -4.20135979e-14,16.8423939 -4.26325641e-14,15.4144144 L-4.26325641e-14,2.58558559 C-4.28074412e-14,1.1576061 1.1576061,-3.2600286e-14 2.58558559,-3.19744231e-14 L11.381966,-3.19744231e-14 C12.0671711,-3.137661e-14 12.693567,0.387133935 13,1 Z"/>
    <linearGradient id="folder-downloads-g" x1="50%" x2="50%" y1="0%" y2="11.796%">
      <stop offset="0%" stop-color="#FFF"/>
      <stop offset="100%" stop-color="#CEF5FF"/>
    </linearGradient>
    <path id="folder-downloads-f" d="M2.66216216,3 L19.3378378,3 C20.2558247,3 21,3.74417535 21,4.66216216 L21,9.33783784 C21,10.2558247 20.2558247,11 19.3378378,11 L2.66216216,11 C1.74417535,11 1,10.2558247 1,9.33783784 L1,4.66216216 C1,3.74417535 1.74417535,3 2.66216216,3 Z"/>
    <filter id="folder-downloads-e" width="115%" height="137.5%" x="-7.5%" y="-18.8%" filterUnits="objectBoundingBox">
      <feOffset in="SourceAlpha" result="shadowOffsetOuter1"/>
      <feGaussianBlur in="shadowOffsetOuter1" result="shadowBlurOuter1" stdDeviation=".5"/>
      <feColorMatrix in="shadowBlurOuter1" values="0 0 0 0 0   0 0 0 0 0   0 0 0 0 0  0 0 0 0.2 0"/>
    </filter>
    <filter id="folder-downloads-h" width="115%" height="137.5%" x="-7.5%" y="-18.8%" filterUnits="objectBoundingBox">
      <feOffset dy="1" in="SourceAlpha" result="shadowOffsetInner1"/>
      <feComposite in="shadowOffsetInner1" in2="SourceAlpha" k2="-1" k3="1" operator="arithmetic" result="shadowInnerInner1"/>
      <feColorMatrix in="shadowInnerInner1" values="0 0 0 0 1   0 0 0 0 1   0 0 0 0 1  0 0 0 0.5 0"/>
    </filter>
    <radialGradient id="folder-downloads-i" cx="50%" cy="0%" r="117.712%" fx="50%" fy="0%" gradientTransform="matrix(.06165 .99454 -.58767 .10434 .469 -.497)">
      <stop offset="0%" stop-color="#48D5FF"/>
      <stop offset="100%" stop-color="#0083F6"/>
    </radialGradient>
  </defs>
  <g fill="none" fill-rule="evenodd">
    <g filter="url(#folder-downloads-a)" transform="translate(1 3)">
      <mask id="folder-downloads-d" fill="#fff">
        <use xlink:href="#folder-downloads-b"/>
      </mask>
      <use fill="url(#folder-downloads-c)" xlink:href="#folder-downloads-b"/>
      <g mask="url(#folder-downloads-d)">
        <use fill="#000" filter="url(#folder-downloads-e)" xlink:href="#folder-downloads-f"/>
        <use fill="url(#folder-downloads-g)" xlink:href="#folder-downloads-f"/>
        <use fill="#000" filter="url(#folder-downloads-h)" xlink:href="#folder-downloads-f"/>
      </g>
      <g fill="url(#folder-downloads-i)" mask="url(#folder-downloads-d)">
        <path d="M7.10542736e-15,0.6875 L22,0.6875 L22,11.1019144 C22,12.5298939 20.8423939,13.6875 19.4144144,13.6875 L2.58558559,13.6875 C1.1576061,13.6875 8.99269418e-15,12.5298939 7.10542736e-15,11.1019144 L7.10542736e-15,0.6875 L7.10542736e-15,0.6875 Z" transform="translate(0 4.313)"/>
      </g>
    </g>
    <g stroke="#FFF" transform="translate(7 9)">
      <circle cx="5" cy="5" r="4.5"/>
      <path d="M2.5,6.5 L5,8.375 L7.5,6.5 C6.94771525,6.5 6.5,6.05228475 6.5,5.5 L6.5,4.5 L3.5,4.5 L3.5,5.5 C3.5,6.05228475 3.05228475,6.5 2.5,6.5 Z"/>
    </g>
  </g>
</svg>
