<?xml version="1.0" encoding="UTF-8"?>
<svg width="16px" height="16px" viewBox="0 0 16 16" version="1.1" xmlns="http://www.w3.org/2000/svg" xmlns:xlink="http://www.w3.org/1999/xlink">
    <!-- Generator: Sketch 41 (35326) - http://www.bohemiancoding.com/sketch -->
    <title>audio-x-generic</title>
    <desc>Created with Sketch.</desc>
    <defs></defs>
    <g id="Page-1" stroke="none" stroke-width="1" fill="none" fill-rule="evenodd">
        <g id="audio-x-generic">
            <polygon id="path14361" fill="#92D700" points="2 15 2 1 14 1 14 15"></polygon>
            <path d="M9,3.57115309 C9,3.57115309 9.02674614,3 8.5,3 C7.97325386,3 8,3.57115309 8,3.57115309 C8,3.57115309 8,9.22624526 8,9.22624526 C7.39814241,9.0038578 6.69885716,8.94942445 5.86381875,9.22624526 C4.47706003,9.68653603 3.70766233,10.9476796 4.10387911,11.9267952 C4.50009589,12.905024 5.92831916,13.2837218 7.29480633,12.7719919 C8.41434909,12.3524976 8.98986422,11.3443099 9,10.5 C9.00921434,10.455656 9,6 9,6 C11.5735662,6.6598388 11.4851866,8 11.4851866,8 C11.5,9 11,10 11,10 C11,10 10.9548497,10.1622991 11.0875363,10.2137381 C11.2552373,10.2784804 11.3317164,10.1241632 11.3317164,10.1241632 C12.1999998,9 12,7.5 12,7.5 C11.6999998,5.19999981 9.5,5.5 9,3.57115309 Z" id="path14573" fill="#FFFFFF"></path>
        </g>
    </g>
</svg>