<?xml version="1.0" encoding="UTF-8"?>
<svg width="16px" height="16px" viewBox="0 0 16 16" version="1.1" xmlns="http://www.w3.org/2000/svg" xmlns:xlink="http://www.w3.org/1999/xlink">
    <!-- Generator: Sketch 41.2 (35397) - http://www.bohemiancoding.com/sketch -->
    <title>image-png</title>
    <desc>Created with Sketch.</desc>
    <defs></defs>
    <g id="Page-1" stroke="none" stroke-width="1" fill="none" fill-rule="evenodd">
        <g id="image-png">
            <polygon id="path14361" fill="#FFAD01" points="2 15 2 1 14 1 14 15"></polygon>
            <polygon id="Combined-Shape" fill="#FFFFFF" points="8 14 7 11.5 7 14 6 14 6 9 7 9 8 11.5 8 9 9 9 9 14 8.33333333 14"></polygon>
            <path d="M6,10.5 C6,9.66579723 5.33052442,9 4.50468445,9 L4,9 L3,9 L3,14 L4,14 L4,12 L4.70960569,11.9858064 C5.43293305,11.8848923 6,11.2581275 6,10.5 Z M4.49531555,10 C4.77404508,10 5,10.2319336 5,10.5 C5,10.7761424 4.78596497,11 4.49531555,11 L4,11 L4,10 L4.49531555,10 Z" id="Combined-Shape" fill="#FFFFFF"></path>
            <path d="M11,13 C10.4477153,13 10,12.5573397 10,12.0010434 L10,10.9989566 C10,10.4472481 10.4438648,10 11,10 C11.4737952,10 11.8706312,10.325781 11.9738568,10.7696074 L12.8076452,10.1442661 C12.4867033,9.46646704 11.7979196,9 11,9 C9.88772964,9 9,9.89761602 9,11.0048815 L9,11.9951185 C9,13.1061002 9.8954305,14 11,14 C11.3654054,14 11.7065768,13.9031232 12,13.7337624 L12,14 L13,14 L13,11 L11,11 L11,11.9951185 C11,12.0531315 12,12.0010434 12,12.0010434 L12,12.25 C12,12.6000004 11.5,13 11,13 Z" id="Combined-Shape" fill="#FFFFFF"></path>
        </g>
    </g>
</svg>