<svg xmlns="http://www.w3.org/2000/svg" xmlns:xlink="http://www.w3.org/1999/xlink" width="64" height="64" viewBox="0 0 64 64">
  <defs>
    <linearGradient id="application-x-font-otf-c" x1="50%" x2="50%" y1="0%" y2="97.659%">
      <stop offset="0%" stop-color="#A3A3A3"/>
      <stop offset="100%" stop-color="#727272"/>
    </linearGradient>
    <path id="application-x-font-otf-b" d="M42,47.5 C42,49.9852814 39.9852814,52 37.5,52 L4.5,52 C2.01471863,52 3.04359188e-16,49.9852814 0,47.5 L0,4.5 C-3.04359188e-16,2.01471863 2.01471863,4.56538782e-16 4.5,0 L29,0 L42,13 L42,47.5 Z"/>
    <filter id="application-x-font-otf-a" width="131%" height="125%" x="-15.5%" y="-10.6%" filterUnits="objectBoundingBox">
      <feOffset dy="1" in="SourceAlpha" result="shadowOffsetOuter1"/>
      <feGaussianBlur in="shadowOffsetOuter1" result="shadowBlurOuter1" stdDeviation="2"/>
      <feColorMatrix in="shadowBlurOuter1" values="0 0 0 0 0   0 0 0 0 0   0 0 0 0 0  0 0 0 0.2 0"/>
    </filter>
    <linearGradient id="application-x-font-otf-f" x1="50%" x2="10.489%" y1="50%" y2="91.194%">
      <stop offset="0%" stop-color="#FFF" stop-opacity=".1"/>
      <stop offset="100%" stop-color="#FFF" stop-opacity=".3"/>
    </linearGradient>
    <path id="application-x-font-otf-e" d="M29,0 L42,13 L33.5,13 C31.0147186,13 29,10.9852814 29,8.5 L29,0 L29,0 Z"/>
    <filter id="application-x-font-otf-d" width="200%" height="200%" x="-50%" y="-42.3%" filterUnits="objectBoundingBox">
      <feOffset dy="1" in="SourceAlpha" result="shadowOffsetOuter1"/>
      <feGaussianBlur in="shadowOffsetOuter1" result="shadowBlurOuter1" stdDeviation="2"/>
      <feComposite in="shadowBlurOuter1" in2="SourceAlpha" operator="out" result="shadowBlurOuter1"/>
      <feColorMatrix in="shadowBlurOuter1" values="0 0 0 0 0   0 0 0 0 0   0 0 0 0 0  0 0 0 0.05 0"/>
    </filter>
  </defs>
  <g fill="none" fill-rule="evenodd">
    <g transform="translate(11 7)">
      <use fill="#000" filter="url(#application-x-font-otf-a)" xlink:href="#application-x-font-otf-b"/>
      <use fill="url(#application-x-font-otf-c)" xlink:href="#application-x-font-otf-b"/>
      <use fill="#000" filter="url(#application-x-font-otf-d)" xlink:href="#application-x-font-otf-e"/>
      <use fill="url(#application-x-font-otf-f)" xlink:href="#application-x-font-otf-e"/>
    </g>
    <path fill="#FFF" fill-opacity=".6" d="M43,54 L43,53 C42.3333333,53 43.3946667,53 42.6666667,53 C41.8266667,53 41,52.508 41,51.5 L41,46 L43,46 L43,45.0026667 L41,45.0026667 L41,42.6666667 L40,42.6666667 L40,45.0026667 L39,45.032 L39,46 L40,46 L40,51.5 C40,53.5906667 41.5,54 42.6666667,54 C44.048,54 42.3333333,54 43,54 Z M49.0133336,41 L49.0133336,42 L47.6800003,42 C46.8051018,42 46.066833,42.4574669 46.0042896,43.8099778 L46,44 L46,45 L48,45 L48,46 L46,46 L46,54 L45.0133336,54 L45.0133336,46 L44,46 L44,45 L45.0133336,45 L45.0133336,44 C45.0133336,42.5555556 45.9282671,41.1111111 47.4962017,41.0060966 L47.6800003,41 L49.0133336,41 Z M35,45 C36.6568542,45 38,46.4460057 38,48.2237858 L38,50.7762142 C38,52.5566619 36.6684055,54 35,54 C33.3431458,54 32,52.5539943 32,50.7762142 L32,48.2237858 C32,46.4433381 33.3315945,45 35,45 Z M35,46 C33.8887095,46 33,46.9383987 33,48.1103445 L33,48.1103445 L33,50.8896555 L33.0054976,51.0470536 C33.0820089,52.1383797 33.9475526,53 35,53 C36.1112905,53 37,52.0616013 37,50.8896555 L37,50.8896555 L37,48.1103445 L36.9945024,47.9529464 C36.9179911,46.8616203 36.0524474,46 35,46 Z"/>
  </g>
</svg>
