<svg xmlns="http://www.w3.org/2000/svg" xmlns:xlink="http://www.w3.org/1999/xlink" width="64" height="64" viewBox="0 0 64 64">
  <defs>
    <linearGradient id="image-ico-c" x1="50%" x2="50%" y1="0%" y2="100%">
      <stop offset="0%" stop-color="#079473"/>
      <stop offset="100%" stop-color="#005F56"/>
    </linearGradient>
    <path id="image-ico-b" d="M42,47.5 C42,49.9852814 39.9852814,52 37.5,52 L4.5,52 C2.01471863,52 3.04359188e-16,49.9852814 0,47.5 L0,4.5 C-3.04359188e-16,2.01471863 2.01471863,4.56538782e-16 4.5,0 L29,0 L42,13 L42,47.5 Z"/>
    <filter id="image-ico-a" width="131%" height="125%" x="-15.5%" y="-10.6%" filterUnits="objectBoundingBox">
      <feOffset dy="1" in="SourceAlpha" result="shadowOffsetOuter1"/>
      <feGaussianBlur in="shadowOffsetOuter1" result="shadowBlurOuter1" stdDeviation="2"/>
      <feColorMatrix in="shadowBlurOuter1" values="0 0 0 0 0.150370695   0 0 0 0 0.486016757   0 0 0 0 0.407212899  0 0 0 0.2 0"/>
    </filter>
    <linearGradient id="image-ico-f" x1="50%" x2="10.489%" y1="50%" y2="91.194%">
      <stop offset="0%" stop-color="#FFF" stop-opacity=".1"/>
      <stop offset="100%" stop-color="#FFF" stop-opacity=".3"/>
    </linearGradient>
    <path id="image-ico-e" d="M29,0 L42,13 L33.5,13 C31.0147186,13 29,10.9852814 29,8.5 L29,0 L29,0 Z"/>
    <filter id="image-ico-d" width="200%" height="200%" x="-50%" y="-42.3%" filterUnits="objectBoundingBox">
      <feOffset dy="1" in="SourceAlpha" result="shadowOffsetOuter1"/>
      <feGaussianBlur in="shadowOffsetOuter1" result="shadowBlurOuter1" stdDeviation="2"/>
      <feComposite in="shadowBlurOuter1" in2="SourceAlpha" operator="out" result="shadowBlurOuter1"/>
      <feColorMatrix in="shadowBlurOuter1" values="0 0 0 0 0   0 0 0 0 0   0 0 0 0 0  0 0 0 0.05 0"/>
    </filter>
  </defs>
  <g fill="none" fill-rule="evenodd">
    <g transform="translate(11 7)">
      <use fill="#000" filter="url(#image-ico-a)" xlink:href="#image-ico-b"/>
      <use fill="url(#image-ico-c)" xlink:href="#image-ico-b"/>
      <use fill="#000" filter="url(#image-ico-d)" xlink:href="#image-ico-e"/>
      <use fill="url(#image-ico-f)" xlink:href="#image-ico-e"/>
    </g>
    <path fill="#FFF" fill-opacity=".6" d="M31.0660327,44 C31.8883591,44 32.6592881,44.3107596 33.2277507,44.8487704 L33.3655608,44.9879592 L32.5,45.5 C32.1521784,45.1250412 31.6011219,45 31.0660327,45 C30.0909891,45 29.0949122,45.8646289 29.0063743,46.7898604 L29,46.9223618 L29,48.0776382 C29,49.050271 30.0486254,50 31.0660327,50 C31.5659353,50 32.0468351,49.9131664 32.3906385,49.6094499 L32.5,49.5 L33.4167061,49.9604326 C32.839172,50.6150726 31.9872073,51 31.0660327,51 C29.4315161,51 28.0983404,49.7859001 28.0051984,48.2496169 L28,48.0776382 L28,46.9223618 C28,45.3059313 29.3658248,44 31.0660327,44 Z M37,44 C38.5993142,44 39.9037775,45.2140999 39.9949136,46.7503831 L40,46.9223618 L40,48.0776382 C40,49.6940687 38.6635907,51 37,51 C35.4006858,51 34.0962225,49.7859001 34.0050864,48.2496169 L34,48.0776382 L34,46.9223618 C34,45.3059313 35.3364093,44 37,44 Z M27,44 L27,51 L26,51 L26,44 L27,44 Z M37,45 C35.9423546,45 35.0852129,45.760222 35.0059787,46.7335697 L35,46.8811019 L35,48.1188981 C35,49.1610047 35.8938939,50 37,50 C38.0576454,50 38.9147871,49.239778 38.9940213,48.2664303 L39,48.1188981 L39,46.8811019 C39,45.8389953 38.1061061,45 37,45 Z M42.9573333,23 L42.9573333,41 L20.9573333,41 L20.9573333,23 L42.9573333,23 Z M41.876,24 L21.876,24 L22,40 L42,40 L41.876,24 Z M29.5,26 L33,33.5 L35,29.5 L41,38.9931116 L23,39.004 L29.5,26 Z"/>
  </g>
</svg>
