<svg xmlns="http://www.w3.org/2000/svg" xmlns:xlink="http://www.w3.org/1999/xlink" width="64" height="64" viewBox="0 0 64 64">
  <defs>
    <linearGradient id="multipart-encrypted-a" x1="50%" x2="50%" y1=".948%" y2="99.038%">
      <stop offset="0%" stop-color="#BCBECB"/>
      <stop offset="100%" stop-color="#A9A9B0"/>
    </linearGradient>
    <linearGradient id="multipart-encrypted-d" x1="50%" x2="10.489%" y1="50%" y2="91.194%">
      <stop offset="0%" stop-color="#FFF" stop-opacity=".1"/>
      <stop offset="100%" stop-color="#FFF" stop-opacity=".3"/>
    </linearGradient>
    <path id="multipart-encrypted-c" d="M29,0 L42,13 L33.5,13 C31.0147186,13 29,10.9852814 29,8.5 L29,0 L29,0 Z"/>
    <filter id="multipart-encrypted-b" width="200%" height="200%" x="-50%" y="-42.3%" filterUnits="objectBoundingBox">
      <feOffset dy="1" in="SourceAlpha" result="shadowOffsetOuter1"/>
      <feGaussianBlur in="shadowOffsetOuter1" result="shadowBlurOuter1" stdDeviation="2"/>
      <feComposite in="shadowBlurOuter1" in2="SourceAlpha" operator="out" result="shadowBlurOuter1"/>
      <feColorMatrix in="shadowBlurOuter1" values="0 0 0 0 0   0 0 0 0 0   0 0 0 0 0  0 0 0 0.05 0"/>
    </filter>
  </defs>
  <g fill="none" fill-rule="evenodd">
    <g transform="translate(11 7)">
      <path fill="url(#multipart-encrypted-a)" d="M42,47.5 C42,49.9852814 39.9852814,52 37.5,52 L4.5,52 C2.01471863,52 3.04359188e-16,49.9852814 0,47.5 L0,4.5 C-3.04359188e-16,2.01471863 2.01471863,4.56538782e-16 4.5,0 L29,0 L42,13 L42,47.5 Z"/>
      <use fill="#000" filter="url(#multipart-encrypted-b)" xlink:href="#multipart-encrypted-c"/>
      <use fill="url(#multipart-encrypted-d)" xlink:href="#multipart-encrypted-c"/>
    </g>
    <path fill="#4E59BA" d="M43,43 L43,49 L44,49 L44,50 L41,50 L41,49 L42,49 L42,44 L41,44 L41,43 L43,43 Z M24,43 L24,49 L25,49 L25,50 L22,50 L22,49 L23,49 L23,44 L22,44 L22,43 L24,43 Z M29.5,43 C30.8242632,43 31.9099411,44.0329724 31.9946765,45.3339504 L32,45.4979131 L32,47.5020869 C32,48.8810753 30.879037,50 29.5,50 C28.1757368,50 27.0900589,48.9670276 27.0053235,47.6660496 L27,47.5020869 L27,45.4979131 C27,44.1189247 28.120963,43 29.5,43 Z M36.5,43 C37.8794408,43 39,44.1208468 39,45.4979131 L39,45.4979131 L39,47.5020869 C39,48.8810753 37.879037,50 36.5,50 C35.1205592,50 34,48.8791532 34,47.5020869 L34,47.5020869 L34,45.4979131 C34,44.1189247 35.120963,43 36.5,43 Z M29.5,44 C28.7214971,44 28.0796917,44.5949274 28.006879,45.3538071 L28,45.4979131 L28,47.5020869 C28,48.3269259 28.6729014,49 29.5,49 C30.2785029,49 30.9203083,48.4050726 30.993121,47.6461929 L31,47.5020869 L31,45.4979131 C31,44.6730741 30.3270986,44 29.5,44 Z M36.5,44 C35.6728407,44 35,44.6716173 35,45.4979131 L35,45.4979131 L35,47.5020869 C35,48.3269259 35.6729014,49 36.5,49 C37.3271593,49 38,48.3283827 38,47.5020869 L38,47.5020869 L38,45.4979131 C38,44.6730741 37.3270986,44 36.5,44 Z M43,32 L43,38 L44,38 L44,39 L41,39 L41,38 L42,38 L42,33 L41,33 L41,32 L43,32 Z M30,32 L30,38 L31,38 L31,39 L28,39 L28,38 L29,38 L29,33 L28,33 L28,32 L30,32 Z M24,32 L24,38 L25,38 L25,39 L22,39 L22,38 L23,38 L23,33 L22,33 L22,32 L24,32 Z M35.5,32 C36.8242632,32 37.9099411,33.0329724 37.9946765,34.3339504 L38,34.4979131 L38,36.5020869 C38,37.8810753 36.879037,39 35.5,39 C34.1757368,39 33.0900589,37.9670276 33.0053235,36.6660496 L33,36.5020869 L33,34.4979131 C33,33.1189247 34.120963,32 35.5,32 Z M35.5,33 C34.7214971,33 34.0796917,33.5949274 34.006879,34.3538071 L34,34.4979131 L34,36.5020869 C34,37.3269259 34.6729014,38 35.5,38 C36.2785029,38 36.9203083,37.4050726 36.993121,36.6461929 L37,36.5020869 L37,34.4979131 C37,33.6730741 36.3270986,33 35.5,33 Z M30,22 L30,28 L31,28 L31,29 L28,29 L28,28 L29,28 L29,23 L28,23 L28,22 L30,22 Z M23.5,22 C24.8242632,22 25.9099411,23.0329724 25.9946765,24.3339504 L26,24.4979131 L26,26.5020869 C26,27.8810753 24.879037,29 23.5,29 C22.1757368,29 21.0900589,27.9670276 21.0053235,26.6660496 L21,26.5020869 L21,24.4979131 C21,23.1189247 22.120963,22 23.5,22 Z M34.5,22 C35.8242632,22 36.9099411,23.0329724 36.9946765,24.3339504 L37,24.4979131 L37,26.5020869 C37,27.8810753 35.879037,29 34.5,29 C33.1757368,29 32.0900589,27.9670276 32.0053235,26.6660496 L32,26.5020869 L32,24.4979131 C32,23.1189247 33.120963,22 34.5,22 Z M41.5,22 C42.8242632,22 43.9099411,23.0329724 43.9946765,24.3339504 L44,24.4979131 L44,26.5020869 C44,27.8810753 42.879037,29 41.5,29 C40.1757368,29 39.0900589,27.9670276 39.0053235,26.6660496 L39,26.5020869 L39,24.4979131 C39,23.1189247 40.120963,22 41.5,22 Z M23.5,23 C22.7214971,23 22.0796917,23.5949274 22.006879,24.3538071 L22,24.4979131 L22,26.5020869 C22,27.3269259 22.6729014,28 23.5,28 C24.2785029,28 24.9203083,27.4050726 24.993121,26.6461929 L25,26.5020869 L25,24.4979131 C25,23.6730741 24.3270986,23 23.5,23 Z M34.5,23 C33.7214971,23 33.0796917,23.5949274 33.006879,24.3538071 L33,24.4979131 L33,26.5020869 C33,27.3269259 33.6729014,28 34.5,28 C35.2785029,28 35.9203083,27.4050726 35.993121,26.6461929 L36,26.5020869 L36,24.4979131 C36,23.6730741 35.3270986,23 34.5,23 Z M41.5,23 C40.7214971,23 40.0796917,23.5949274 40.006879,24.3538071 L40,24.4979131 L40,26.5020869 C40,27.3269259 40.6729014,28 41.5,28 C42.2785029,28 42.9203083,27.4050726 42.993121,26.6461929 L43,26.5020869 L43,24.4979131 C43,23.6730741 42.3270986,23 41.5,23 Z"/>
  </g>
</svg>
