<svg xmlns="http://www.w3.org/2000/svg" xmlns:xlink="http://www.w3.org/1999/xlink" width="64" height="65" viewBox="0 0 64 65">
  <defs>
    <linearGradient id="x-office-presentation-c" x1="50%" x2="50%" y1="0%" y2="99.372%">
      <stop offset="0%" stop-color="#BB8200"/>
      <stop offset="100%" stop-color="#916500"/>
    </linearGradient>
    <path id="x-office-presentation-b" d="M42,47.5 C42,49.9852814 39.9852814,52 37.5,52 L4.5,52 C2.01471863,52 3.04359188e-16,49.9852814 0,47.5 L0,4.5 C-3.04359188e-16,2.01471863 2.01471863,4.56538782e-16 4.5,0 L29,0 L42,13 L42,47.5 Z"/>
    <filter id="x-office-presentation-a" width="131%" height="125%" x="-15.5%" y="-10.6%" filterUnits="objectBoundingBox">
      <feOffset dy="1" in="SourceAlpha" result="shadowOffsetOuter1"/>
      <feGaussianBlur in="shadowOffsetOuter1" result="shadowBlurOuter1" stdDeviation="2"/>
      <feColorMatrix in="shadowBlurOuter1" values="0 0 0 0 0.874509804   0 0 0 0 0.498039216   0 0 0 0 0.0588235294  0 0 0 0.2 0"/>
    </filter>
    <linearGradient id="x-office-presentation-f" x1="50%" x2="10.489%" y1="50%" y2="91.194%">
      <stop offset="0%" stop-color="#FFF" stop-opacity=".1"/>
      <stop offset="100%" stop-color="#FFF" stop-opacity=".3"/>
    </linearGradient>
    <path id="x-office-presentation-e" d="M29,0 L42,13 L33.5,13 C31.0147186,13 29,10.9852814 29,8.5 L29,0 L29,0 Z"/>
    <filter id="x-office-presentation-d" width="200%" height="200%" x="-50%" y="-42.3%" filterUnits="objectBoundingBox">
      <feOffset dy="1" in="SourceAlpha" result="shadowOffsetOuter1"/>
      <feGaussianBlur in="shadowOffsetOuter1" result="shadowBlurOuter1" stdDeviation="2"/>
      <feComposite in="shadowBlurOuter1" in2="SourceAlpha" operator="out" result="shadowBlurOuter1"/>
      <feColorMatrix in="shadowBlurOuter1" values="0 0 0 0 0   0 0 0 0 0   0 0 0 0 0  0 0 0 0.05 0"/>
    </filter>
  </defs>
  <g fill="none" fill-rule="evenodd">
    <g transform="translate(11 7)">
      <g opacity=".9">
        <use fill="#000" filter="url(#x-office-presentation-a)" xlink:href="#x-office-presentation-b"/>
        <use fill="url(#x-office-presentation-c)" xlink:href="#x-office-presentation-b"/>
      </g>
      <use fill="#000" filter="url(#x-office-presentation-d)" xlink:href="#x-office-presentation-e"/>
      <use fill="url(#x-office-presentation-f)" xlink:href="#x-office-presentation-e"/>
    </g>
    <path fill="#FFF" fill-opacity=".6" d="M41.5012539,27 C42.2813991,27 42.9206447,27.5931916 42.9931506,28.3559673 L43,28.5008717 L43,42.4991283 C43,43.2787565 42.4050573,43.9203411 41.6454958,43.993124 L41.5012539,44 L32.706,43.999 L36.8535534,48.1464466 C37.0271197,48.320013 37.0464049,48.5894374 36.9114088,48.7843055 L36.8535534,48.8535534 C36.679987,49.0271197 36.4105626,49.0464049 36.2156945,48.9114088 L36.1464466,48.8535534 L32.525,45.232 L32.4999942,50.5024038 C32.4986666,50.778543 32.2737354,51.0013218 31.9975962,50.9999942 C31.7521391,50.9988141 31.5488434,50.8209596 31.5076293,50.5875095 L31.5000058,50.4975962 L31.525,45.181 L27.8535534,48.8535534 C27.6582912,49.0488155 27.3417088,49.0488155 27.1464466,48.8535534 C26.9728803,48.679987 26.9535951,48.4105626 27.0885912,48.2156945 L27.1464466,48.1464466 L31.293,43.999 L22.4987461,44 C21.7186009,44 21.0793553,43.4068084 21.0068494,42.6440327 L21,42.4991283 L21,28.5008717 C21,27.7212435 21.5949427,27.0796589 22.3545042,27.006876 L22.4987461,27 L41.5012539,27 Z M41.5012539,28 L22.4987461,28 C22.254717,28 22.0504464,28.1773889 22.0080657,28.4109078 L22,28.5008717 L22,42.4991283 C22,42.7470107 22.1754588,42.9499637 22.4087716,42.9920042 L22.4987461,43 L41.5012539,43 C41.745283,43 41.9495536,42.8226111 41.9919343,42.5890922 L42,42.4991283 L42,28.5008717 C42,28.2220041 41.7779349,28 41.5012539,28 Z M25.5,31.5 C25.7761424,31.5 26,31.7238576 26,32 L26,32 L26,40 L38.5,40 C38.7761424,40 39,40.2238576 39,40.5 C39,40.7761424 38.7761424,41 38.5,41 L38.5,41 L25.5,41 C25.2238576,41 25,40.7761424 25,40.5 L25,40.5 L25,32 C25,31.7238576 25.2238576,31.5 25.5,31.5 Z M44.5,24 C44.7761424,24 45,24.2238576 45,24.5 C45,24.7454599 44.8231248,24.9496084 44.5898756,24.9919443 L44.5,25 L19.5,25 C19.2238576,25 19,24.7761424 19,24.5 C19,24.2545401 19.1768752,24.0503916 19.4101244,24.0080557 L19.5,24 L44.5,24 Z M28,30 L30,30 L30,38 L28,38 L28,30 Z M32,32 L34,32 L34,38 L32,38 L32,32 Z M36,34 L38,34 L38,38 L36,38 L36,34 Z"/>
  </g>
</svg>
