<svg xmlns="http://www.w3.org/2000/svg" xmlns:xlink="http://www.w3.org/1999/xlink" width="64" height="64" viewBox="0 0 64 64">
  <defs>
    <filter id="deepin-launcher-a" width="126.7%" height="126.7%" x="-13.3%" y="-13.3%" filterUnits="objectBoundingBox">
      <feOffset dy="1" in="SourceAlpha" result="shadowOffsetOuter1"/>
      <feGaussianBlur in="shadowOffsetOuter1" result="shadowBlurOuter1" stdDeviation="1.5"/>
      <feColorMatrix in="shadowBlurOuter1" result="shadowMatrixOuter1" values="0 0 0 0 0   0 0 0 0 0   0 0 0 0 0  0 0 0 0.2 0"/>
      <feMerge>
        <feMergeNode in="shadowMatrixOuter1"/>
        <feMergeNode in="SourceGraphic"/>
      </feMerge>
    </filter>
    <linearGradient id="deepin-launcher-b" x1="50%" x2="50%" y1="-7.925%" y2="95.501%">
      <stop offset="0%" stop-color="#FFF"/>
      <stop offset="100%" stop-color="#C5CFE5"/>
    </linearGradient>
    <path id="deepin-launcher-c" d="M1,30 C1,13.9837143 13.9837143,1 30,1 C46.0162857,1 59,13.9837143 59,30 C59,46.0162857 46.0162857,59 30,59 C13.9837143,59 1,46.0162857 1,30 Z"/>
    <filter id="deepin-launcher-d" width="103.4%" height="103.4%" x="-1.7%" y="-1.7%" filterUnits="objectBoundingBox">
      <feOffset dy="-2" in="SourceAlpha" result="shadowOffsetInner1"/>
      <feComposite in="shadowOffsetInner1" in2="SourceAlpha" k2="-1" k3="1" operator="arithmetic" result="shadowInnerInner1"/>
      <feColorMatrix in="shadowInnerInner1" result="shadowMatrixInner1" values="0 0 0 0 0   0 0 0 0 0   0 0 0 0 0  0 0 0 0.13051792 0"/>
      <feOffset dy="1" in="SourceAlpha" result="shadowOffsetInner2"/>
      <feComposite in="shadowOffsetInner2" in2="SourceAlpha" k2="-1" k3="1" operator="arithmetic" result="shadowInnerInner2"/>
      <feColorMatrix in="shadowInnerInner2" result="shadowMatrixInner2" values="0 0 0 0 1   0 0 0 0 1   0 0 0 0 1  0 0 0 1 0"/>
      <feMerge>
        <feMergeNode in="shadowMatrixInner1"/>
        <feMergeNode in="shadowMatrixInner2"/>
      </feMerge>
    </filter>
    <linearGradient id="deepin-launcher-e" x1="50%" x2="50%" y1="0%" y2="100%">
      <stop offset="0%" stop-color="#00389E" stop-opacity=".17"/>
      <stop offset="100%" stop-color="#002071" stop-opacity=".493"/>
    </linearGradient>
    <radialGradient id="deepin-launcher-f" cx="50%" cy="41.557%" r="40.177%" fx="50%" fy="41.557%">
      <stop offset="0%" stop-color="#689ED8" stop-opacity=".744"/>
      <stop offset="100%" stop-color="#387BC2" stop-opacity=".772"/>
    </radialGradient>
    <path id="deepin-launcher-g" d="M31.4142136,34.5961941 L36.363961,39.5459415 C37.1450096,40.3269901 37.1450096,41.5933201 36.363961,42.3743687 L31.4142136,47.3241161 C30.633165,48.1051647 29.366835,48.1051647 28.5857864,47.3241161 L23.636039,42.3743687 C22.8549904,41.5933201 22.8549904,40.3269901 23.636039,39.5459415 L28.5857864,34.5961941 C29.366835,33.8151455 30.633165,33.8151455 31.4142136,34.5961941 Z M20.4540585,23.636039 L25.4038059,28.5857864 C26.1848545,29.366835 26.1848545,30.633165 25.4038059,31.4142136 L20.4540585,36.363961 C19.6730099,37.1450096 18.4066799,37.1450096 17.6256313,36.363961 L12.6758839,31.4142136 C11.8948353,30.633165 11.8948353,29.366835 12.6758839,28.5857864 L17.6256313,23.636039 C18.4066799,22.8549904 19.6730099,22.8549904 20.4540585,23.636039 Z M42.3743687,23.636039 L47.3241161,28.5857864 C48.1051647,29.366835 48.1051647,30.633165 47.3241161,31.4142136 L42.3743687,36.363961 C41.5933201,37.1450096 40.3269901,37.1450096 39.5459415,36.363961 L34.5961941,31.4142136 C33.8151455,30.633165 33.8151455,29.366835 34.5961941,28.5857864 L39.5459415,23.636039 C40.3269901,22.8549904 41.5933201,22.8549904 42.3743687,23.636039 Z M31.4142136,12.6758839 L36.363961,17.6256313 C37.1450096,18.4066799 37.1450096,19.6730099 36.363961,20.4540585 L31.4142136,25.4038059 C30.633165,26.1848545 29.366835,26.1848545 28.5857864,25.4038059 L23.636039,20.4540585 C22.8549904,19.6730099 22.8549904,18.4066799 23.636039,17.6256313 L28.5857864,12.6758839 C29.366835,11.8948353 30.633165,11.8948353 31.4142136,12.6758839 Z"/>
    <filter id="deepin-launcher-h" width="153%" height="153%" x="-26.5%" y="-26.5%" filterUnits="objectBoundingBox">
      <feGaussianBlur in="SourceAlpha" result="shadowBlurInner1" stdDeviation="9"/>
      <feOffset dy="1" in="shadowBlurInner1" result="shadowOffsetInner1"/>
      <feComposite in="shadowOffsetInner1" in2="SourceAlpha" k2="-1" k3="1" operator="arithmetic" result="shadowInnerInner1"/>
      <feColorMatrix in="shadowInnerInner1" values="0 0 0 0 0   0 0 0 0 0   0 0 0 0 0  0 0 0 0.210008741 0"/>
    </filter>
    <linearGradient id="deepin-launcher-i" x1="125.314%" x2="125.314%" y1="71.813%" y2="0%">
      <stop offset="0%" stop-color="#00366F" stop-opacity=".294"/>
      <stop offset="100%" stop-color="#5581AE"/>
    </linearGradient>
    <linearGradient id="deepin-launcher-j" x1="51.001%" x2="51.001%" y1="0%" y2="100%">
      <stop offset="0%" stop-color="#FEFEFE"/>
      <stop offset="100%" stop-color="#FFF" stop-opacity=".068"/>
    </linearGradient>
  </defs>
  <g fill="none" filter="url(#deepin-launcher-a)" transform="translate(2 2)">
    <use fill="url(#deepin-launcher-b)" xlink:href="#deepin-launcher-c"/>
    <use fill="#000" filter="url(#deepin-launcher-d)" xlink:href="#deepin-launcher-c"/>
    <path fill="url(#deepin-launcher-e)" d="M30,0 C13.4314295,0 0,13.4314295 0,30 C0,46.5685705 13.4314295,60 30,60 C46.5685705,60 60,46.5685705 60,30 C60,13.4314295 46.5685705,0 30,0 Z M30,1 C46.0162857,1 59,13.9837143 59,30 C59,46.0162857 46.0162857,59 30,59 C13.9837143,59 1,46.0162857 1,30 C1,13.9837143 13.9837143,1 30,1 Z"/>
    <use fill="url(#deepin-launcher-f)" xlink:href="#deepin-launcher-g"/>
    <use fill="#000" filter="url(#deepin-launcher-h)" xlink:href="#deepin-launcher-g"/>
    <path fill="url(#deepin-launcher-i)" d="M31.4142136,34.5961941 L36.363961,39.5459415 C37.1450096,40.3269901 37.1450096,41.5933201 36.363961,42.3743687 L31.4142136,47.3241161 C30.633165,48.1051647 29.366835,48.1051647 28.5857864,47.3241161 L23.636039,42.3743687 C22.8549904,41.5933201 22.8549904,40.3269901 23.636039,39.5459415 L28.5857864,34.5961941 C29.366835,33.8151455 30.633165,33.8151455 31.4142136,34.5961941 Z M29.3871006,35.2201123 L29.2928932,35.3033009 L24.3431458,40.2530483 C23.9826618,40.6135323 23.9549323,41.1807633 24.2599571,41.5730546 L24.3431458,41.6672619 L29.2928932,46.6170094 C29.6533772,46.9774933 30.2206082,47.0052229 30.6128994,46.700198 L30.7071068,46.6170094 L35.6568542,41.6672619 C36.0173382,41.3067779 36.0450677,40.7395469 35.7400429,40.3472557 L35.6568542,40.2530483 L30.7071068,35.3033009 C30.3766631,34.9728572 29.8724945,34.9220197 29.4885971,35.1507884 L29.3871006,35.2201123 Z M20.4540585,23.636039 L25.4038059,28.5857864 C26.1848545,29.366835 26.1848545,30.633165 25.4038059,31.4142136 L20.4540585,36.363961 C19.6730099,37.1450096 18.4066799,37.1450096 17.6256313,36.363961 L12.6758839,31.4142136 C11.8948353,30.633165 11.8948353,29.366835 12.6758839,28.5857864 L17.6256313,23.636039 C18.4066799,22.8549904 19.6730099,22.8549904 20.4540585,23.636039 Z M42.3743687,23.636039 L47.3241161,28.5857864 C48.1051647,29.366835 48.1051647,30.633165 47.3241161,31.4142136 L42.3743687,36.363961 C41.5933201,37.1450096 40.3269901,37.1450096 39.5459415,36.363961 L34.5961941,31.4142136 C33.8151455,30.633165 33.8151455,29.366835 34.5961941,28.5857864 L39.5459415,23.636039 C40.3269901,22.8549904 41.5933201,22.8549904 42.3743687,23.636039 Z M18.4269454,24.2599571 L18.3327381,24.3431458 L13.3829906,29.2928932 C13.0225067,29.6533772 12.9947771,30.2206082 13.299802,30.6128994 L13.3829906,30.7071068 L18.3327381,35.6568542 C18.6932221,36.0173382 19.2604531,36.0450677 19.6527443,35.7400429 L19.7469517,35.6568542 L24.6966991,30.7071068 C25.0571831,30.3466228 25.0849126,29.7793918 24.7798877,29.3871006 L24.6966991,29.2928932 L19.7469517,24.3431458 C19.416508,24.0127021 18.9123394,23.9618646 18.5284419,24.1906333 L18.4269454,24.2599571 Z M40.3472557,24.2599571 L40.2530483,24.3431458 L35.3033009,29.2928932 C34.9428169,29.6533772 34.9150874,30.2206082 35.2201123,30.6128994 L35.3033009,30.7071068 L40.2530483,35.6568542 C40.6135323,36.0173382 41.1807633,36.0450677 41.5730546,35.7400429 L41.6672619,35.6568542 L46.6170094,30.7071068 C46.9774933,30.3466228 47.0052229,29.7793918 46.700198,29.3871006 L46.6170094,29.2928932 L41.6672619,24.3431458 C41.3368183,24.0127021 40.8326496,23.9618646 40.4487522,24.1906333 L40.3472557,24.2599571 Z M31.4142136,12.6758839 L36.363961,17.6256313 C37.1450096,18.4066799 37.1450096,19.6730099 36.363961,20.4540585 L31.4142136,25.4038059 C30.633165,26.1848545 29.366835,26.1848545 28.5857864,25.4038059 L23.636039,20.4540585 C22.8549904,19.6730099 22.8549904,18.4066799 23.636039,17.6256313 L28.5857864,12.6758839 C29.366835,11.8948353 30.633165,11.8948353 31.4142136,12.6758839 Z M29.3871006,13.299802 L29.2928932,13.3829906 L24.3431458,18.3327381 C23.9826618,18.6932221 23.9549323,19.2604531 24.2599571,19.6527443 L24.3431458,19.7469517 L29.2928932,24.6966991 C29.6533772,25.0571831 30.2206082,25.0849126 30.6128994,24.7798877 L30.7071068,24.6966991 L35.6568542,19.7469517 C36.0173382,19.3864677 36.0450677,18.8192367 35.7400429,18.4269454 L35.6568542,18.3327381 L30.7071068,13.3829906 C30.3766631,13.052547 29.8724945,13.0017095 29.4885971,13.2304782 L29.3871006,13.299802 Z"/>
    <path fill="url(#deepin-launcher-j)" d="M27.8786797,33.8890873 C29.0033896,32.7643773 30.7989525,32.7193889 31.9773307,33.7541221 L32.1213203,33.8890873 L37.0710678,38.8388348 C38.1957778,39.9635447 38.2407662,41.7591077 37.206033,42.9374859 L37.0710678,43.0814755 L32.1213203,48.0312229 C30.9966104,49.1559329 29.2010475,49.2009213 28.0226693,48.1661881 L27.8786797,48.0312229 L22.9289322,43.0814755 C21.8042222,41.9567655 21.7592338,40.1612026 22.793967,38.9828244 L22.9289322,38.8388348 L27.8786797,33.8890873 Z M31.4142136,34.5961941 C30.6742728,33.8562533 29.4987886,33.8173091 28.7130012,34.4793613 L28.5857864,34.5961941 L23.636039,39.5459415 C22.8960982,40.2858823 22.857154,41.4613665 23.5192062,42.2471539 L23.636039,42.3743687 L28.5857864,47.3241161 C28.9557568,47.6940865 29.434613,47.8888078 29.9192001,47.9082799 L30.0807999,47.9082799 L30.2419752,47.8952985 C30.6168952,47.8498635 30.9814148,47.6984137 31.2869988,47.4409489 L31.4142136,47.3241161 L36.363961,42.3743687 C37.1039018,41.6344279 37.142846,40.4589438 36.4807938,39.6731563 L36.363961,39.5459415 L31.4142136,34.5961941 Z M16.9185245,22.9289322 C18.0432345,21.8042222 19.8387974,21.7592338 21.0171756,22.793967 L21.1611652,22.9289322 L26.1109127,27.8786797 C27.2356227,29.0033896 27.2806111,30.7989525 26.2458779,31.9773307 L26.1109127,32.1213203 L21.1611652,37.0710678 C20.0364553,38.1957778 18.2408923,38.2407662 17.0625141,37.206033 L16.9185245,37.0710678 L11.9687771,32.1213203 C10.8440671,30.9966104 10.7990787,29.2010475 11.8338119,28.0226693 L11.9687771,27.8786797 L16.9185245,22.9289322 Z M38.8388348,22.9289322 C39.9635447,21.8042222 41.7591077,21.7592338 42.9374859,22.793967 L43.0814755,22.9289322 L48.0312229,27.8786797 C49.1559329,29.0033896 49.2009213,30.7989525 48.1661881,31.9773307 L48.0312229,32.1213203 L43.0814755,37.0710678 C41.9567655,38.1957778 40.1612026,38.2407662 38.9828244,37.206033 L38.8388348,37.0710678 L33.8890873,32.1213203 C32.7643773,30.9966104 32.7193889,29.2010475 33.7541221,28.0226693 L33.8890873,27.8786797 L38.8388348,22.9289322 Z M20.4540585,23.636039 C19.7141177,22.8960982 18.5386335,22.857154 17.7528461,23.5192062 L17.6256313,23.636039 L12.6758839,28.5857864 C11.9359431,29.3257272 11.8969988,30.5012114 12.5590511,31.2869988 L12.6758839,31.4142136 L17.6256313,36.363961 C17.9956017,36.7339314 18.4744579,36.9286527 18.959045,36.9481248 L19.1206448,36.9481248 L19.28182,36.9351434 C19.6567401,36.8897084 20.0212597,36.7382586 20.3268437,36.4807938 L20.4540585,36.363961 L25.4038059,31.4142136 C26.1437467,30.6742728 26.1826909,29.4987886 25.5206387,28.7130012 L25.4038059,28.5857864 L20.4540585,23.636039 Z M42.3743687,23.636039 C41.6344279,22.8960982 40.4589438,22.857154 39.6731563,23.5192062 L39.5459415,23.636039 L34.5961941,28.5857864 C33.8562533,29.3257272 33.8173091,30.5012114 34.4793613,31.2869988 L34.5961941,31.4142136 L39.5459415,36.363961 C39.9159119,36.7339314 40.3947682,36.9286527 40.8793552,36.9481248 L41.040955,36.9481248 L41.2021303,36.9351434 C41.5770503,36.8897084 41.9415699,36.7382586 42.2471539,36.4807938 L42.3743687,36.363961 L47.3241161,31.4142136 C48.0640569,30.6742728 48.1030012,29.4987886 47.4409489,28.7130012 L47.3241161,28.5857864 L42.3743687,23.636039 Z M27.8786797,11.9687771 C29.0033896,10.8440671 30.7989525,10.7990787 31.9773307,11.8338119 L32.1213203,11.9687771 L37.0710678,16.9185245 C38.1957778,18.0432345 38.2407662,19.8387974 37.206033,21.0171756 L37.0710678,21.1611652 L32.1213203,26.1109127 C30.9966104,27.2356227 29.2010475,27.2806111 28.0226693,26.2458779 L27.8786797,26.1109127 L22.9289322,21.1611652 C21.8042222,20.0364553 21.7592338,18.2408923 22.793967,17.0625141 L22.9289322,16.9185245 L27.8786797,11.9687771 Z M31.4142136,12.6758839 C30.6742728,11.9359431 29.4987886,11.8969988 28.7130012,12.5590511 L28.5857864,12.6758839 L23.636039,17.6256313 C22.8960982,18.3655721 22.857154,19.5410562 23.5192062,20.3268437 L23.636039,20.4540585 L28.5857864,25.4038059 C28.9557568,25.7737763 29.434613,25.9684976 29.9192001,25.9879697 L30.0807999,25.9879697 L30.2419752,25.9749883 C30.6168952,25.9295533 30.9814148,25.7781034 31.2869988,25.5206387 L31.4142136,25.4038059 L36.363961,20.4540585 C37.1039018,19.7141177 37.142846,18.5386335 36.4807938,17.7528461 L36.363961,17.6256313 L31.4142136,12.6758839 Z"/>
  </g>
</svg>
