<svg xmlns="http://www.w3.org/2000/svg" xmlns:xlink="http://www.w3.org/1999/xlink" width="64" height="64" viewBox="0 0 64 64">
  <defs>
    <filter id="folder-documents-stack-a" width="128.6%" height="132%" x="-14.3%" y="-16%" filterUnits="objectBoundingBox">
      <feOffset dy="1" in="SourceAlpha" result="shadowOffsetOuter1"/>
      <feGaussianBlur in="shadowOffsetOuter1" result="shadowBlurOuter1" stdDeviation="1.5"/>
      <feColorMatrix in="shadowBlurOuter1" result="shadowMatrixOuter1" values="0 0 0 0 0   0 0 0 0 0   0 0 0 0 0  0 0 0 0.2 0"/>
      <feMerge>
        <feMergeNode in="shadowMatrixOuter1"/>
        <feMergeNode in="SourceGraphic"/>
      </feMerge>
    </filter>
    <path id="folder-documents-stack-b" d="M31.2792793,3 C32.0434808,4.81770784 33.8230705,6 35.7948884,6 L54,6 C55.1045695,6 56,6.8954305 56,8 L56,47 C56,48.1045695 55.1045695,49 54,49 L2,49 C0.8954305,49 1.3527075e-16,48.1045695 0,47 L0,2 C-1.3527075e-16,0.8954305 0.8954305,2.02906125e-16 2,0 L26.7636702,0 C28.735488,3.21552738e-15 30.5150778,1.18229216 31.2792793,3 Z"/>
    <filter id="folder-documents-stack-c" width="103.6%" height="104.1%" x="-1.8%" y="-2%" filterUnits="objectBoundingBox">
      <feOffset dy="2" in="SourceAlpha" result="shadowOffsetInner1"/>
      <feComposite in="shadowOffsetInner1" in2="SourceAlpha" k2="-1" k3="1" operator="arithmetic" result="shadowInnerInner1"/>
      <feColorMatrix in="shadowInnerInner1" values="0 0 0 0 1   0 0 0 0 1   0 0 0 0 1  0 0 0 0.5 0"/>
    </filter>
    <radialGradient id="folder-documents-stack-d" cx="50%" cy="0%" r="116.781%" fx="50%" fy="0%" gradientTransform="matrix(.06173 .99563 -.65782 .09342 .47 -.498)">
      <stop offset="0%" stop-color="#FFEFDC"/>
      <stop offset="100%" stop-color="#E3BF9F"/>
    </radialGradient>
    <path id="folder-documents-stack-e" d="M0,13 L56,13 L56,48 C56,49.1045695 55.1045695,50 54,50 L2,50 C0.8954305,50 1.3527075e-16,49.1045695 0,48 L0,13 L0,13 Z"/>
    <filter id="folder-documents-stack-f" width="103.6%" height="105.4%" x="-1.8%" y="-2.7%" filterUnits="objectBoundingBox">
      <feOffset dy="2" in="SourceAlpha" result="shadowOffsetInner1"/>
      <feComposite in="shadowOffsetInner1" in2="SourceAlpha" k2="-1" k3="1" operator="arithmetic" result="shadowInnerInner1"/>
      <feColorMatrix in="shadowInnerInner1" values="0 0 0 0 1   0 0 0 0 1   0 0 0 0 1  0 0 0 0.5 0"/>
    </filter>
    <path id="folder-documents-stack-g" d="M0,0 L56,0 L56,34 C56,35.1045695 55.1045695,36 54,36 L2,36 C0.8954305,36 1.3527075e-16,35.1045695 0,34 L0,0 L0,0 Z"/>
  </defs>
  <g fill="none" fill-rule="evenodd">
    <g filter="url(#folder-documents-stack-a)" transform="translate(4 10)">
      <use fill="#DFBE98" xlink:href="#folder-documents-stack-b"/>
      <use fill="#000" filter="url(#folder-documents-stack-c)" xlink:href="#folder-documents-stack-b"/>
      <path stroke="#A37B66" stroke-linejoin="square" d="M26.7636702,0.5 C27.6489444,0.5 28.4910669,0.765403009 29.1976455,1.23482713 C29.9042242,1.70425126 30.4752589,2.3776965 30.8183574,3.19378095 C31.2394604,4.19540433 31.9403213,5.02195909 32.8075424,5.59810801 C33.6747635,6.17425693 34.7083448,6.5 35.7948884,6.5 L35.7948884,6.5 L54,6.5 C54.4142136,6.5 54.7892136,6.66789322 55.0606602,6.93933983 C55.3321068,7.21078644 55.5,7.58578644 55.5,8 L55.5,8 L55.5,47 C55.5,47.4142136 55.3321068,47.7892136 55.0606602,48.0606602 C54.7892136,48.3321068 54.4142136,48.5 54,48.5 L54,48.5 L2,48.5 C1.58578644,48.5 1.21078644,48.3321068 0.939339828,48.0606602 C0.667893219,47.7892136 0.5,47.4142136 0.5,47 L0.5,47 L0.5,2 C0.5,1.58578644 0.667893219,1.21078644 0.939339828,0.939339828 C1.21078644,0.667893219 1.58578644,0.5 2,0.5 L2,0.5 Z"/>
      <path fill="#FFF" stroke="#A37B66" d="M51,9.5 C51.4142136,9.5 51.7892136,9.66789322 52.0606602,9.93933983 C52.3321068,10.2107864 52.5,10.5857864 52.5,11 L52.5,11 L52.5,28 C52.5,28.4142136 52.3321068,28.7892136 52.0606602,29.0606602 C51.7892136,29.3321068 51.4142136,29.5 51,29.5 L51,29.5 L5,29.5 C4.58578644,29.5 4.21078644,29.3321068 3.93933983,29.0606602 C3.66789322,28.7892136 3.5,28.4142136 3.5,28 L3.5,28 L3.5,11 C3.5,10.5857864 3.66789322,10.2107864 3.93933983,9.93933983 C4.21078644,9.66789322 4.58578644,9.5 5,9.5 L5,9.5 Z"/>
      <use fill="url(#folder-documents-stack-d)" xlink:href="#folder-documents-stack-e"/>
      <use fill="#000" filter="url(#folder-documents-stack-f)" xlink:href="#folder-documents-stack-e"/>
      <path stroke="#99775B" stroke-linejoin="square" d="M55.5,13.5 L55.5,48 C55.5,48.4142136 55.3321068,48.7892136 55.0606602,49.0606602 C54.7892136,49.3321068 54.4142136,49.5 54,49.5 L54,49.5 L2,49.5 C1.58578644,49.5 1.21078644,49.3321068 0.939339828,49.0606602 C0.667893219,48.7892136 0.5,48.4142136 0.5,48 L0.5,48 L0.5,13.5 L55.5,13.5 Z"/>
    </g>
    <g transform="translate(4 23)">
      <mask id="folder-documents-stack-h" fill="#fff">
        <use xlink:href="#folder-documents-stack-g"/>
      </mask>
      <g mask="url(#folder-documents-stack-h)">
        <g transform="translate(11.75 5)">
          <path fill="#52362A" fill-opacity=".4" d="M2.25,3 L23.25,3 C24.3545695,3 25.25,3.8954305 25.25,5 L25.25,32 C25.25,33.1045695 24.3545695,34 23.25,34 L2.25,34 C1.1454305,34 0.25,33.1045695 0.25,32 L0.25,5 C0.25,3.8954305 1.1454305,3 2.25,3 Z"/>
          <path fill="#8D5F4B" fill-rule="nonzero" d="M23.25,3 C24.3545695,3 25.25,3.8954305 25.25,5 L25.25,32 C25.25,33.1045695 24.3545695,34 23.25,34 L2.25,34 C1.1454305,34 0.25,33.1045695 0.25,32 L0.25,5 C0.25,3.8954305 1.1454305,3 2.25,3 L23.25,3 Z M23.25,4 L2.25,4 C1.73716416,4 1.31449284,4.38604019 1.25672773,4.88337887 L1.25,5 L1.25,32 C1.25,32.5128358 1.63604019,32.9355072 2.13337887,32.9932723 L2.25,33 L23.25,33 C23.7628358,33 24.1855072,32.6139598 24.2432723,32.1166211 L24.25,32 L24.25,5 C24.25,4.48716416 23.8639598,4.06449284 23.3666211,4.00672773 L23.25,4 Z"/>
          <path fill="#8D5F4B" fill-rule="nonzero" d="M22.25,26 L22.25,27 L2.25,27 L2.25,26 L22.25,26 Z M13.25,23 L13.25,24 L2.25,24 L2.25,23 L13.25,23 Z M22.25,20 L22.25,21 L2.25,21 L2.25,20 L22.25,20 Z M22.25,17 L22.25,18 L2.25,18 L2.25,17 L22.25,17 Z M22.25,14 L22.25,15 L15.25,15 L15.25,14 L22.25,14 Z M22.25,10 L22.25,11 L15.25,11 L15.25,10 L22.25,10 Z M22.25,6 L22.25,7 L15.25,7 L15.25,6 L22.25,6 Z"/>
          <path fill="#52362A" fill-opacity=".4" d="M14.25,6 L14.25,15 L11.293,15 L9.84273856,13.37489 C9.75752518,13.2793662 9.61392347,13.263642 9.51005767,13.3384618 L8.19749397,14.2839682 C8.0854631,14.3646697 7.92922262,14.3392723 7.84852109,14.2272414 L7.84075227,14.2158024 L6.56755127,12.2247726 C6.49316734,12.1084512 6.33857008,12.0744541 6.22224861,12.148838 C6.1951775,12.1661491 6.17169748,12.1885167 6.15309381,12.2147164 L4.174,15 L2.25,15 L2.25,6 L14.25,6 Z M10.25,9 C9.69771525,9 9.25,9.44771525 9.25,10 C9.25,10.5522847 9.69771525,11 10.25,11 C10.8022847,11 11.25,10.5522847 11.25,10 C11.25,9.44771525 10.8022847,9 10.25,9 Z"/>
          <path fill="#8D5F4B" fill-rule="nonzero" d="M6.22224861,12.148838 C6.1951775,12.1661491 6.17169748,12.1885167 6.15309381,12.2147164 L4.174,15 L2.25,15 L2.25,6 L14.25,6 L14.25,15 L11.293,15 L9.84273856,13.37489 C9.8143341,13.3430488 9.77944205,13.3200741 9.74169663,13.306364 L9.68339277,13.2927971 C9.62385745,13.286278 9.56199057,13.3010519 9.51005767,13.3384618 L8.19749397,14.2839682 L8.13834879,14.3155675 L8.0751617,14.3300243 C7.989696,14.3381121 7.90232211,14.3019286 7.84852109,14.2272414 L6.56755127,12.2247726 C6.49316734,12.1084512 6.33857008,12.0744541 6.22224861,12.148838 Z M13.25,7 L3.25,7 L3.25,14 L3.656,14 L5.33773857,11.6357554 C5.40750232,11.5375066 5.49098081,11.4500355 5.58546295,11.3759249 L5.68351255,11.3063634 C6.22634607,10.9592384 6.93589197,11.084173 7.33046993,11.575242 L7.41002588,11.6860366 L8.256,13.009 L8.92556549,12.5270625 C9.40779957,12.1796848 10.061344,12.2226627 10.4932782,12.6128689 L10.5888426,12.7090606 L11.741,14 L13.25,14 L13.25,7 Z"/>
          <polygon fill="#8D5F4B" fill-rule="nonzero" points="30.25 5 32.25 5 32.25 31 30.25 31"/>
          <polygon fill="#8D5F4B" fill-rule="nonzero" points="31.25 0 32.25 4 30.25 4"/>
        </g>
      </g>
    </g>
  </g>
</svg>
