<svg xmlns="http://www.w3.org/2000/svg" xmlns:xlink="http://www.w3.org/1999/xlink" width="64" height="64" viewBox="0 0 64 64">
  <defs>
    <filter id="folder-remote-a" width="128.6%" height="132%" x="-14.3%" y="-16%" filterUnits="objectBoundingBox">
      <feOffset dy="1" in="SourceAlpha" result="shadowOffsetOuter1"/>
      <feGaussianBlur in="shadowOffsetOuter1" result="shadowBlurOuter1" stdDeviation="1.5"/>
      <feColorMatrix in="shadowBlurOuter1" result="shadowMatrixOuter1" values="0 0 0 0 0   0 0 0 0 0   0 0 0 0 0  0 0 0 0.2 0"/>
      <feMerge>
        <feMergeNode in="shadowMatrixOuter1"/>
        <feMergeNode in="SourceGraphic"/>
      </feMerge>
    </filter>
    <path id="folder-remote-b" d="M31.2792793,3 C32.0434808,4.81770784 33.8230705,6 35.7948884,6 L54,6 C55.1045695,6 56,6.8954305 56,8 L56,47 C56,48.1045695 55.1045695,49 54,49 L2,49 C0.8954305,49 1.3527075e-16,48.1045695 0,47 L0,2 C-1.3527075e-16,0.8954305 0.8954305,2.02906125e-16 2,0 L26.7636702,0 C28.735488,3.21552738e-15 30.5150778,1.18229216 31.2792793,3 Z"/>
    <filter id="folder-remote-c" width="103.6%" height="104.1%" x="-1.8%" y="-2%" filterUnits="objectBoundingBox">
      <feOffset dy="2" in="SourceAlpha" result="shadowOffsetInner1"/>
      <feComposite in="shadowOffsetInner1" in2="SourceAlpha" k2="-1" k3="1" operator="arithmetic" result="shadowInnerInner1"/>
      <feColorMatrix in="shadowInnerInner1" values="0 0 0 0 1   0 0 0 0 1   0 0 0 0 1  0 0 0 0.5 0"/>
    </filter>
    <radialGradient id="folder-remote-d" cx="50%" cy="0%" r="116.781%" fx="50%" fy="0%" gradientTransform="matrix(.06173 .99563 -.65782 .09342 .47 -.498)">
      <stop offset="0%" stop-color="#D8EAFF"/>
      <stop offset="61.46%" stop-color="#B6D5F0"/>
      <stop offset="100%" stop-color="#A1C8E7"/>
    </radialGradient>
    <path id="folder-remote-e" d="M0,13 L56,13 L56,48 C56,49.1045695 55.1045695,50 54,50 L2,50 C0.8954305,50 1.3527075e-16,49.1045695 0,48 L0,13 L0,13 Z"/>
    <filter id="folder-remote-f" width="103.6%" height="105.4%" x="-1.8%" y="-2.7%" filterUnits="objectBoundingBox">
      <feOffset dy="2" in="SourceAlpha" result="shadowOffsetInner1"/>
      <feComposite in="shadowOffsetInner1" in2="SourceAlpha" k2="-1" k3="1" operator="arithmetic" result="shadowInnerInner1"/>
      <feColorMatrix in="shadowInnerInner1" values="0 0 0 0 1   0 0 0 0 1   0 0 0 0 1  0 0 0 0.5 0"/>
    </filter>
  </defs>
  <g fill="none" fill-rule="evenodd">
    <g filter="url(#folder-remote-a)" transform="translate(4 10)">
      <use fill="#A3C6EB" xlink:href="#folder-remote-b"/>
      <use fill="#000" filter="url(#folder-remote-c)" xlink:href="#folder-remote-b"/>
      <path stroke="#5C889C" stroke-linejoin="square" d="M26.7636702,0.5 C27.6489444,0.5 28.4910669,0.765403009 29.1976455,1.23482713 C29.9042242,1.70425126 30.4752589,2.3776965 30.8183574,3.19378095 C31.2394604,4.19540433 31.9403213,5.02195909 32.8075424,5.59810801 C33.6747635,6.17425693 34.7083448,6.5 35.7948884,6.5 L35.7948884,6.5 L54,6.5 C54.4142136,6.5 54.7892136,6.66789322 55.0606602,6.93933983 C55.3321068,7.21078644 55.5,7.58578644 55.5,8 L55.5,8 L55.5,47 C55.5,47.4142136 55.3321068,47.7892136 55.0606602,48.0606602 C54.7892136,48.3321068 54.4142136,48.5 54,48.5 L54,48.5 L2,48.5 C1.58578644,48.5 1.21078644,48.3321068 0.939339828,48.0606602 C0.667893219,47.7892136 0.5,47.4142136 0.5,47 L0.5,47 L0.5,2 C0.5,1.58578644 0.667893219,1.21078644 0.939339828,0.939339828 C1.21078644,0.667893219 1.58578644,0.5 2,0.5 L2,0.5 Z"/>
      <path fill="#FFF" stroke="#5C889C" d="M51,9.5 C51.4142136,9.5 51.7892136,9.66789322 52.0606602,9.93933983 C52.3321068,10.2107864 52.5,10.5857864 52.5,11 L52.5,11 L52.5,28 C52.5,28.4142136 52.3321068,28.7892136 52.0606602,29.0606602 C51.7892136,29.3321068 51.4142136,29.5 51,29.5 L51,29.5 L5,29.5 C4.58578644,29.5 4.21078644,29.3321068 3.93933983,29.0606602 C3.66789322,28.7892136 3.5,28.4142136 3.5,28 L3.5,28 L3.5,11 C3.5,10.5857864 3.66789322,10.2107864 3.93933983,9.93933983 C4.21078644,9.66789322 4.58578644,9.5 5,9.5 L5,9.5 Z"/>
      <use fill="url(#folder-remote-d)" xlink:href="#folder-remote-e"/>
      <use fill="#000" filter="url(#folder-remote-f)" xlink:href="#folder-remote-e"/>
      <path stroke="#5C819C" stroke-linejoin="square" d="M55.5,13.5 L55.5,48 C55.5,48.4142136 55.3321068,48.7892136 55.0606602,49.0606602 C54.7892136,49.3321068 54.4142136,49.5 54,49.5 L54,49.5 L2,49.5 C1.58578644,49.5 1.21078644,49.3321068 0.939339828,49.0606602 C0.667893219,48.7892136 0.5,48.4142136 0.5,48 L0.5,48 L0.5,13.5 L55.5,13.5 Z"/>
    </g>
    <g fill="#5C889C" fill-rule="nonzero" transform="translate(17.5 31)">
      <path d="M12.7605284 16.7805284C11.843398 17.6976587 11.819885 19.1789808 12.7304521 20.0895479 13.6410192 21.000115 15.1223413 20.976602 16.0394716 20.0594716 16.956602 19.1423413 16.980115 17.6610192 16.0695479 16.7504521 15.2003702 15.8812744 13.8111451 15.8631904 12.8889821 16.6610079L12.7605284 16.7805284zM14.3250712 0C19.2789996 0 23.9728135 1.59712632 27.7123681 4.46963957 28.1503524 4.80607417 28.2326746 5.43386469 27.89624 5.87184894 27.5598054 6.3098332 26.9320149 6.39215545 26.4940307 6.05572085 23.1036455 3.45141973 18.8380504 2 14.3250712 2 9.85336858 2 5.62408307 3.4248639 2.24751908 5.98594928 1.80749066 6.31970583 1.180214 6.23355546.846457453 5.79352704.512700903 5.35349862.598851274 4.72622197 1.03887969 4.39246541 4.7628942 1.56784277 9.41657004 0 14.3250712 0z"/>
      <path d="M14.3309929 5.36C18.0338779 5.36 21.5480412 6.53177401 24.3738392 8.64721691 24.8159601 8.97819656 24.9060579 9.6049184 24.5750783 10.0470393 24.2440987 10.4891603 23.6173768 10.5792581 23.1752559 10.2482785 20.6950915 8.39158301 17.6013625 7.36 14.3309929 7.36 11.113537 7.36 8.06650034 8.35831808 5.6053337 10.1604654 5.1597348 10.4867476 4.53400155 10.3900223 4.20771935 9.94442337 3.88143716 9.49882448 3.97816246 8.87309122 4.42376136 8.54680903 7.22740995 6.49388516 10.6882204 5.36 14.3309929 5.36zM14.4062997 10.72C16.8298427 10.72 19.1384156 11.4514091 21.0350394 12.7834038 21.4870003 13.100815 21.5960744 13.7245142 21.2786633 14.1764751 20.9612522 14.6284359 20.3375529 14.73751 19.8855921 14.4200989 18.325242 13.3242685 16.4179675 12.72 14.4062997 12.72 12.4135009 12.72 10.5229725 13.3129364 8.97024807 14.3899193 8.51644031 14.7046842 7.89338904 14.5919677 7.57862411 14.13816 7.26385919 13.6843522 7.37657568 13.0613009 7.83038344 12.746536 9.71746748 11.4376385 12.005598 10.72 14.4062997 10.72z"/>
    </g>
  </g>
</svg>
