<svg xmlns="http://www.w3.org/2000/svg" xmlns:xlink="http://www.w3.org/1999/xlink" width="64" height="64" viewBox="0 0 64 64">
  <defs>
    <filter id="network-workgroup-a" width="128.6%" height="132%" x="-14.3%" y="-16%" filterUnits="objectBoundingBox">
      <feOffset dy="1" in="SourceAlpha" result="shadowOffsetOuter1"/>
      <feGaussianBlur in="shadowOffsetOuter1" result="shadowBlurOuter1" stdDeviation="1.5"/>
      <feColorMatrix in="shadowBlurOuter1" result="shadowMatrixOuter1" values="0 0 0 0 0   0 0 0 0 0   0 0 0 0 0  0 0 0 0.2 0"/>
      <feMerge>
        <feMergeNode in="shadowMatrixOuter1"/>
        <feMergeNode in="SourceGraphic"/>
      </feMerge>
    </filter>
    <path id="network-workgroup-b" d="M31.2792793,3 C32.0434808,4.81770784 33.8230705,6 35.7948884,6 L54,6 C55.1045695,6 56,6.8954305 56,8 L56,47 C56,48.1045695 55.1045695,49 54,49 L2,49 C0.8954305,49 1.3527075e-16,48.1045695 0,47 L0,2 C-1.3527075e-16,0.8954305 0.8954305,2.02906125e-16 2,0 L26.7636702,0 C28.735488,3.21552738e-15 30.5150778,1.18229216 31.2792793,3 Z"/>
    <filter id="network-workgroup-c" width="103.6%" height="104.1%" x="-1.8%" y="-2%" filterUnits="objectBoundingBox">
      <feOffset dy="2" in="SourceAlpha" result="shadowOffsetInner1"/>
      <feComposite in="shadowOffsetInner1" in2="SourceAlpha" k2="-1" k3="1" operator="arithmetic" result="shadowInnerInner1"/>
      <feColorMatrix in="shadowInnerInner1" values="0 0 0 0 1   0 0 0 0 1   0 0 0 0 1  0 0 0 0.5 0"/>
    </filter>
    <radialGradient id="network-workgroup-d" cx="50%" cy="0%" r="116.781%" fx="50%" fy="0%" gradientTransform="matrix(.06173 .99563 -.65782 .09342 .47 -.498)">
      <stop offset="0%" stop-color="#D8EAFF"/>
      <stop offset="100%" stop-color="#A1C8E7"/>
    </radialGradient>
    <path id="network-workgroup-e" d="M0,13 L56,13 L56,48 C56,49.1045695 55.1045695,50 54,50 L2,50 C0.8954305,50 1.3527075e-16,49.1045695 0,48 L0,13 L0,13 Z"/>
    <filter id="network-workgroup-f" width="103.6%" height="105.4%" x="-1.8%" y="-2.7%" filterUnits="objectBoundingBox">
      <feOffset dy="2" in="SourceAlpha" result="shadowOffsetInner1"/>
      <feComposite in="shadowOffsetInner1" in2="SourceAlpha" k2="-1" k3="1" operator="arithmetic" result="shadowInnerInner1"/>
      <feColorMatrix in="shadowInnerInner1" values="0 0 0 0 1   0 0 0 0 1   0 0 0 0 1  0 0 0 0.5 0"/>
    </filter>
  </defs>
  <g fill="none" fill-rule="evenodd">
    <g filter="url(#network-workgroup-a)" transform="translate(4 10)">
      <use fill="#A3C6EB" xlink:href="#network-workgroup-b"/>
      <use fill="#000" filter="url(#network-workgroup-c)" xlink:href="#network-workgroup-b"/>
      <path stroke="#5C889C" stroke-linejoin="square" d="M26.7636702,0.5 C27.6489444,0.5 28.4910669,0.765403009 29.1976455,1.23482713 C29.9042242,1.70425126 30.4752589,2.3776965 30.8183574,3.19378095 C31.2394604,4.19540433 31.9403213,5.02195909 32.8075424,5.59810801 C33.6747635,6.17425693 34.7083448,6.5 35.7948884,6.5 L35.7948884,6.5 L54,6.5 C54.4142136,6.5 54.7892136,6.66789322 55.0606602,6.93933983 C55.3321068,7.21078644 55.5,7.58578644 55.5,8 L55.5,8 L55.5,47 C55.5,47.4142136 55.3321068,47.7892136 55.0606602,48.0606602 C54.7892136,48.3321068 54.4142136,48.5 54,48.5 L54,48.5 L2,48.5 C1.58578644,48.5 1.21078644,48.3321068 0.939339828,48.0606602 C0.667893219,47.7892136 0.5,47.4142136 0.5,47 L0.5,47 L0.5,2 C0.5,1.58578644 0.667893219,1.21078644 0.939339828,0.939339828 C1.21078644,0.667893219 1.58578644,0.5 2,0.5 L2,0.5 Z"/>
      <path fill="#FFF" stroke="#5C889C" d="M51,9.5 C51.4142136,9.5 51.7892136,9.66789322 52.0606602,9.93933983 C52.3321068,10.2107864 52.5,10.5857864 52.5,11 L52.5,11 L52.5,28 C52.5,28.4142136 52.3321068,28.7892136 52.0606602,29.0606602 C51.7892136,29.3321068 51.4142136,29.5 51,29.5 L51,29.5 L5,29.5 C4.58578644,29.5 4.21078644,29.3321068 3.93933983,29.0606602 C3.66789322,28.7892136 3.5,28.4142136 3.5,28 L3.5,28 L3.5,11 C3.5,10.5857864 3.66789322,10.2107864 3.93933983,9.93933983 C4.21078644,9.66789322 4.58578644,9.5 5,9.5 L5,9.5 Z"/>
      <use fill="url(#network-workgroup-d)" xlink:href="#network-workgroup-e"/>
      <use fill="#000" filter="url(#network-workgroup-f)" xlink:href="#network-workgroup-e"/>
      <path stroke="#5C819C" stroke-linejoin="square" d="M55.5,13.5 L55.5,48 C55.5,48.4142136 55.3321068,48.7892136 55.0606602,49.0606602 C54.7892136,49.3321068 54.4142136,49.5 54,49.5 L54,49.5 L2,49.5 C1.58578644,49.5 1.21078644,49.3321068 0.939339828,49.0606602 C0.667893219,48.7892136 0.5,48.4142136 0.5,48 L0.5,48 L0.5,13.5 L55.5,13.5 Z"/>
    </g>
    <g fill="#5C889C" fill-rule="nonzero" transform="translate(19.5 30)">
      <path d="M12.06,4.61 C5.03098147,4.61 -0.75,7.1793251 -0.75,10.72 C-0.75,14.2606749 5.03098147,16.83 12.06,16.83 C19.0890185,16.83 24.87,14.2606749 24.87,10.72 C24.87,7.1793251 19.0890185,4.61 12.06,4.61 Z M12.06,6.11 C14.6912375,6.11 17.0996515,6.50000545 19.0114632,7.12786598 L19.4987516,7.29695122 C21.877068,8.1683549 23.37,9.42191766 23.37,10.72 C23.37,12.0180823 21.877068,13.2716451 19.4987516,14.1430488 L19.0114632,14.312134 C17.0996515,14.9399946 14.6912375,15.33 12.06,15.33 C9.42876252,15.33 7.02034845,14.9399946 5.10853677,14.312134 L4.62124838,14.1430488 C2.24293201,13.2716451 0.75,12.0180823 0.75,10.72 C0.75,9.42191766 2.24293201,8.1683549 4.62124838,7.29695122 L5.10853677,7.12786598 C7.02034845,6.50000545 9.42876252,6.11 12.06,6.11 Z"/>
      <path d="M7.23701422,8.16848208 C6.7015073,8.98857572 6.21464151,9.8074028 5.77988997,10.6142562 L5.463652,11.2169838 C5.41259233,11.3170085 5.36236051,11.4168042 5.31296333,11.5163501 L5.02665014,12.1104604 C2.8631694,16.7382198 2.57336782,20.7217211 4.86152371,21.8897745 C7.67402154,23.325493 12.8983704,19.3736944 16.8829858,13.2715179 C17.4184927,12.4514243 17.9053585,11.6325972 18.34011,10.8257438 L18.656348,10.2230162 C18.7074077,10.1229915 18.7576395,10.0231958 18.8070367,9.92364987 L19.0933499,9.32953956 C21.2568306,4.7017802 21.5466322,0.718278925 19.2584763,-0.449774512 C16.4459785,-1.88549302 11.2216296,2.06630562 7.23701422,8.16848208 Z M18.5764803,0.886220067 C19.8843072,1.553837 19.5497499,4.76827493 17.7340112,8.67711566 L17.4645613,9.24004528 C17.3713976,9.42912975 17.2748926,9.6195888 17.1750638,9.81122242 L16.8656229,10.3894469 C16.4930157,11.0676864 16.0799042,11.757864 15.6270348,12.4514038 C15.2281519,13.0622667 14.8159056,13.6488891 14.3956917,14.2078409 L13.9730219,14.7574423 C13.6897379,15.1175248 13.4037121,15.4648011 13.1165435,15.7982549 L12.6851332,16.2879418 C12.5411773,16.4476305 12.3971354,16.6037365 12.2532076,16.7561328 L11.8219658,17.2020657 C9.23896488,19.8093639 6.7576414,21.1735625 5.54351966,20.5537799 C4.23569283,19.886163 4.57025015,16.6717251 6.38598877,12.7628843 L6.65543866,12.1999547 C6.74860237,12.0108703 6.84510737,11.8204112 6.94493623,11.6287776 L7.25437706,11.0505531 C7.6269843,10.3723136 8.04009576,9.68213595 8.49296516,8.98859625 C8.89184805,8.37773332 9.30409441,7.79111092 9.72430828,7.23215905 L10.1469781,6.68255773 C10.4302621,6.32247525 10.7162879,5.97519892 11.0034565,5.64174506 L11.4348668,5.15205815 C11.5788227,4.99236949 11.7228646,4.83626348 11.8667924,4.68386716 L12.2980342,4.23793431 C14.8810351,1.63063607 17.3623586,0.266437526 18.5764803,0.886220067 Z"/>
      <path d="M7.23701422,8.16848208 C6.7015073,8.98857572 6.21464151,9.8074028 5.77988997,10.6142562 L5.463652,11.2169838 C5.41259233,11.3170085 5.36236051,11.4168042 5.31296333,11.5163501 L5.02665014,12.1104604 C2.8631694,16.7382198 2.57336782,20.7217211 4.86152371,21.8897745 C7.67402154,23.325493 12.8983704,19.3736944 16.8829858,13.2715179 C17.4184927,12.4514243 17.9053585,11.6325972 18.34011,10.8257438 L18.656348,10.2230162 C18.7074077,10.1229915 18.7576395,10.0231958 18.8070367,9.92364987 L19.0933499,9.32953956 C21.2568306,4.7017802 21.5466322,0.718278925 19.2584763,-0.449774512 C16.4459785,-1.88549302 11.2216296,2.06630562 7.23701422,8.16848208 Z M18.5764803,0.886220067 C19.8843072,1.553837 19.5497499,4.76827493 17.7340112,8.67711566 L17.4645613,9.24004528 C17.3713976,9.42912975 17.2748926,9.6195888 17.1750638,9.81122242 L16.8656229,10.3894469 C16.4930157,11.0676864 16.0799042,11.757864 15.6270348,12.4514038 C15.2281519,13.0622667 14.8159056,13.6488891 14.3956917,14.2078409 L13.9730219,14.7574423 C13.6897379,15.1175248 13.4037121,15.4648011 13.1165435,15.7982549 L12.6851332,16.2879418 C12.5411773,16.4476305 12.3971354,16.6037365 12.2532076,16.7561328 L11.8219658,17.2020657 C9.23896488,19.8093639 6.7576414,21.1735625 5.54351966,20.5537799 C4.23569283,19.886163 4.57025015,16.6717251 6.38598877,12.7628843 L6.65543866,12.1999547 C6.74860237,12.0108703 6.84510737,11.8204112 6.94493623,11.6287776 L7.25437706,11.0505531 C7.6269843,10.3723136 8.04009576,9.68213595 8.49296516,8.98859625 C8.89184805,8.37773332 9.30409441,7.79111092 9.72430828,7.23215905 L10.1469781,6.68255773 C10.4302621,6.32247525 10.7162879,5.97519892 11.0034565,5.64174506 L11.4348668,5.15205815 C11.5788227,4.99236949 11.7228646,4.83626348 11.8667924,4.68386716 L12.2980342,4.23793431 C14.8810351,1.63063607 17.3623586,0.266437526 18.5764803,0.886220067 Z" transform="matrix(1 0 0 -1 0 21.44)"/>
    </g>
  </g>
</svg>
