<svg xmlns="http://www.w3.org/2000/svg" xmlns:xlink="http://www.w3.org/1999/xlink" width="32" height="32" viewBox="0 0 32 32">
  <defs>
    <filter id="deepin-multitasking-view-a" width="126.7%" height="128.6%" x="-13.3%" y="-14.3%" filterUnits="objectBoundingBox">
      <feOffset dy="1" in="SourceAlpha" result="shadowOffsetOuter1"/>
      <feGaussianBlur in="shadowOffsetOuter1" result="shadowBlurOuter1" stdDeviation=".5"/>
      <feComposite in="shadowBlurOuter1" in2="SourceAlpha" operator="out" result="shadowBlurOuter1"/>
      <feColorMatrix in="shadowBlurOuter1" result="shadowMatrixOuter1" values="0 0 0 0 0   0 0 0 0 0   0 0 0 0 0  0 0 0 0.15 0"/>
      <feMerge>
        <feMergeNode in="shadowMatrixOuter1"/>
        <feMergeNode in="SourceGraphic"/>
      </feMerge>
    </filter>
    <linearGradient id="deepin-multitasking-view-b" x1="50%" x2="50%" y1="0%" y2="100%">
      <stop offset="0%" stop-color="#FFBF7D"/>
      <stop offset="100%" stop-color="#FF5959"/>
    </linearGradient>
    <linearGradient id="deepin-multitasking-view-e" x1="50%" x2="50%" y1="0%" y2="100%">
      <stop offset="0%" stop-color="#FFF"/>
      <stop offset="100%" stop-color="#FFF" stop-opacity=".6"/>
    </linearGradient>
    <path id="deepin-multitasking-view-d" d="M22.9309841,16 C24.07367,16 25,16.9243508 25,18.0648596 L25,19.9351404 C25,21.0755309 24.0810661,22 22.9309841,22 L16.0690159,22 C14.92633,22 14,21.0756492 14,19.9351404 L14,18.0648596 C14,16.9244691 14.9189339,16 16.0690159,16 L22.9309841,16 Z M8.93744147,16 C10.0765611,16 11,16.9243508 11,18.0648596 L11,19.9351404 C11,21.0755309 10.0829229,22 8.93744147,22 L8.06255853,22 C6.92343891,22 6,21.0756492 6,19.9351404 L6,18.0648596 C6,16.9244691 6.91707706,16 8.06255853,16 L8.93744147,16 Z M13.9309841,6 C15.07367,6 16,6.92435083 16,8.06485963 L16,9.93514037 C16,11.0755309 15.0810661,12 13.9309841,12 L7.06901586,12 C5.92632995,12 5,11.0756492 5,9.93514037 L5,8.06485963 C5,6.92446915 5.91893385,6 7.06901586,6 L13.9309841,6 Z M22.9310345,6 C24.0736926,6 25,6.92630741 25,8.06896552 L25,9.93103448 C25,11.0736926 24.0736926,12 22.9310345,12 L21.0689655,12 C19.9263074,12 19,11.0736926 19,9.93103448 L19,8.06896552 C19,6.92630741 19.9263074,6 21.0689655,6 L22.9310345,6 Z"/>
    <filter id="deepin-multitasking-view-c" width="105%" height="112.5%" x="-2.5%" y="-3.1%" filterUnits="objectBoundingBox">
      <feOffset dy="1" in="SourceAlpha" result="shadowOffsetOuter1"/>
      <feColorMatrix in="shadowOffsetOuter1" values="0 0 0 0 0.784313725   0 0 0 0 0.0392156863   0 0 0 0 0.0392156863  0 0 0 0.2 0"/>
    </filter>
  </defs>
  <g fill="none" filter="url(#deepin-multitasking-view-a)" transform="translate(1 2)">
    <rect width="30" height="28" fill="url(#deepin-multitasking-view-b)" rx="6"/>
    <use fill="#000" filter="url(#deepin-multitasking-view-c)" xlink:href="#deepin-multitasking-view-d"/>
    <use fill="url(#deepin-multitasking-view-e)" xlink:href="#deepin-multitasking-view-d"/>
  </g>
</svg>
