<svg xmlns="http://www.w3.org/2000/svg" width="512" height="512" viewBox="0 0 512 512">
  <defs>
    <filter id="五子棋-a" width="124.3%" height="124.3%" x="-12.2%" y="-12.2%" filterUnits="objectBoundingBox">
      <feOffset dy="8" in="SourceAlpha" result="shadowOffsetOuter1"/>
      <feGaussianBlur in="shadowOffsetOuter1" result="shadowBlurOuter1" stdDeviation="10"/>
      <feColorMatrix in="shadowBlurOuter1" result="shadowMatrixOuter1" values="0 0 0 0 0   0 0 0 0 0   0 0 0 0 0  0 0 0 0.2 0"/>
      <feMerge>
        <feMergeNode in="shadowMatrixOuter1"/>
        <feMergeNode in="SourceGraphic"/>
      </feMerge>
    </filter>
    <linearGradient id="五子棋-b" x1="50%" x2="50%" y1="0%" y2="100%">
      <stop offset="0%" stop-color="#FDD7A7"/>
      <stop offset="100%" stop-color="#C78051"/>
    </linearGradient>
    <linearGradient id="五子棋-c" x1="50%" x2="50%" y1="0%" y2="100%">
      <stop offset="0%" stop-color="#FFF" stop-opacity=".2"/>
      <stop offset="100%" stop-color="#FFF" stop-opacity=".05"/>
    </linearGradient>
    <linearGradient id="五子棋-d" x1="50%" x2="50%" y1="0%" y2="100%">
      <stop offset="0%" stop-color="#EDBD8D"/>
      <stop offset="100%" stop-color="#AE6633"/>
    </linearGradient>
    <radialGradient id="五子棋-e" cx="50%" cy="25.241%" r="74.759%" fx="50%" fy="25.241%">
      <stop offset="0%" stop-color="#767676"/>
      <stop offset="100%"/>
    </radialGradient>
    <radialGradient id="五子棋-f" cx="50%" cy="32.875%" r="67.125%" fx="50%" fy="32.875%">
      <stop offset="0%" stop-color="#FFFBFB"/>
      <stop offset="37.61%" stop-color="#FFFBFB"/>
      <stop offset="100%" stop-color="#C8CBE4"/>
    </radialGradient>
  </defs>
  <g fill="none" fill-rule="evenodd" filter="url(#五子棋-a)" transform="translate(34 34)">
    <rect width="444" height="444" fill="url(#五子棋-b)" rx="80"/>
    <path fill="url(#五子棋-c)" fill-rule="nonzero" d="M364,0 C408.18278,0 444,35.81722 444,80 L444,364 C444,408.18278 408.18278,444 364,444 L80,444 C35.81722,444 0,408.18278 0,364 L0,80 C0,35.81722 35.81722,0 80,0 L364,0 Z M364,16 L80,16 C45.0072383,16 16.5737448,44.0835659 16.0085742,78.941643 L16,80 L16,364 C16,398.992762 44.0835659,427.426255 78.941643,427.991426 L80,428 L364,428 C398.992762,428 427.426255,399.916434 427.991426,365.058357 L428,364 L428,80 C428,45.0072383 399.916434,16.5737448 365.058357,16.0085742 L364,16 Z"/>
    <path fill="url(#五子棋-d)" d="M117.483871,16 L117.483,102 L214.516,102 L214.516129,16 L229.483871,16 L229.483,102 L326.516,102 L326.516129,16 L341.483871,16 L341.483,102 L428,102 L428,118 L341.483,118 L341.483,214 L428,214 L428,230 L341.483,230 L341.483,326 L428,326 L428,342 L341.483,342 L341.483871,428 L326.516129,428 L326.516,342 L229.483,342 L229.483871,428 L214.516129,428 L214.516,342 L117.483,342 L117.483871,428 L102.516129,428 L102.516,342 L16,342 L16,326 L102.516,326 L102.516,230 L16,230 L16,214 L102.516,214 L102.516,118 L16,118 L16,102 L102.516,102 L102.516129,16 L117.483871,16 Z M214.516,230 L117.483,230 L117.483,326 L214.516,326 L214.516,230 Z M326.516,230 L229.483,230 L229.483,326 L326.516,326 L326.516,230 Z M214.516,118 L117.483,118 L117.483,214 L214.516,214 L214.516,118 Z M326.516,118 L229.483,118 L229.483,214 L326.516,214 L326.516,118 Z" opacity=".698"/>
    <circle cx="334" cy="334" r="40" fill="url(#五子棋-e)"/>
    <circle cx="222" cy="110" r="40" fill="url(#五子棋-e)"/>
    <circle cx="110" cy="222" r="40" fill="url(#五子棋-e)"/>
    <path fill="#000" fill-opacity=".2" fill-rule="nonzero" d="M334 290C309.699471 290 290 309.699471 290 334 290 358.300529 309.699471 378 334 378 358.300529 378 378 358.300529 378 334 378 309.699471 358.300529 290 334 290zM334 294C356.09139 294 374 311.90861 374 334 374 356.09139 356.09139 374 334 374 311.90861 374 294 356.09139 294 334 294 311.90861 311.90861 294 334 294zM222 66C197.699471 66 178 85.699471 178 110 178 134.300529 197.699471 154 222 154 246.300529 154 266 134.300529 266 110 266 85.699471 246.300529 66 222 66zM222 70C244.09139 70 262 87.90861 262 110 262 132.09139 244.09139 150 222 150 199.90861 150 182 132.09139 182 110 182 87.90861 199.90861 70 222 70zM110 178C85.699471 178 66 197.699471 66 222 66 246.300529 85.699471 266 110 266 134.300529 266 154 246.300529 154 222 154 197.699471 134.300529 178 110 178zM110 182C132.09139 182 150 199.90861 150 222 150 244.09139 132.09139 262 110 262 87.90861 262 70 244.09139 70 222 70 199.90861 87.90861 182 110 182z"/>
    <g transform="translate(66 66)">
      <circle cx="44" cy="44" r="40" fill="url(#五子棋-f)"/>
      <path fill="#000" fill-opacity=".097" fill-rule="nonzero" d="M44,0 C19.699471,0 0,19.699471 0,44 C0,68.300529 19.699471,88 44,88 C68.300529,88 88,68.300529 88,44 C88,19.699471 68.300529,0 44,0 Z M44,4 C66.09139,4 84,21.90861 84,44 C84,66.09139 66.09139,84 44,84 C21.90861,84 4,66.09139 4,44 C4,21.90861 21.90861,4 44,4 Z"/>
    </g>
    <g transform="translate(178 178)">
      <circle cx="44" cy="44" r="40" fill="url(#五子棋-f)"/>
      <path fill="#000" fill-opacity=".097" fill-rule="nonzero" d="M44,0 C19.699471,0 0,19.699471 0,44 C0,68.300529 19.699471,88 44,88 C68.300529,88 88,68.300529 88,44 C88,19.699471 68.300529,0 44,0 Z M44,4 C66.09139,4 84,21.90861 84,44 C84,66.09139 66.09139,84 44,84 C21.90861,84 4,66.09139 4,44 C4,21.90861 21.90861,4 44,4 Z"/>
    </g>
  </g>
</svg>
