<?xml version="1.0" encoding="UTF-8"?>
<svg width="512px" height="512px" viewBox="0 0 512 512" version="1.1" xmlns="http://www.w3.org/2000/svg" xmlns:xlink="http://www.w3.org/1999/xlink">
    <title>apps/512/deepin-license-activator</title>
    <defs>
        <filter x="-7.3%" y="-5.6%" width="114.7%" height="114.7%" filterUnits="objectBoundingBox" id="filter-1">
            <feOffset dx="0" dy="8" in="SourceAlpha" result="shadowOffsetOuter1"></feOffset>
            <feGaussianBlur stdDeviation="10" in="shadowOffsetOuter1" result="shadowBlurOuter1"></feGaussianBlur>
            <feColorMatrix values="0 0 0 0 0   0 0 0 0 0   0 0 0 0 0  0 0 0 0.2 0" type="matrix" in="shadowBlurOuter1" result="shadowMatrixOuter1"></feColorMatrix>
            <feMerge>
                <feMergeNode in="shadowMatrixOuter1"></feMergeNode>
                <feMergeNode in="SourceGraphic"></feMergeNode>
            </feMerge>
        </filter>
        <linearGradient x1="15.9680666%" y1="14.2236863%" x2="100%" y2="60.55387%" id="linearGradient-2">
            <stop stop-color="#0071FF" offset="0%"></stop>
            <stop stop-color="#00E8FC" offset="48.7201963%"></stop>
            <stop stop-color="#00A2FF" offset="100%"></stop>
        </linearGradient>
    </defs>
    <g id="apps/512/deepin-license-activator" stroke="none" stroke-width="1" fill="none" fill-rule="evenodd">
        <g id="编组备份" filter="url(#filter-1)" transform="translate(24, 24)" fill-rule="nonzero">
            <circle id="椭圆形" fill="url(#linearGradient-2)" cx="232" cy="232" r="232"></circle>
            <path d="M362,140 L362,247 C362,317.140163 305.140163,374 235,374 L229.003624,374 C158.863168,374 102.002813,317.140456 102.001812,247 L102,140 C101.999842,128.954305 110.95402,119.999872 121.999715,119.999715 C121.99981,119.999715 121.999905,119.999715 122,119.999715 L122.994394,120.000526 C134.039883,120.000526 142.994103,128.954511 142.994394,140 L142.997657,244 C142.998951,293.153722 182.846278,333 232,333 C281.153343,333 321,293.153343 321,244 L321,140 C321,128.954305 329.954305,120 341,120 L342,120 C353.045695,120 362,128.954305 362,140 Z" id="路径" fill="#FFFFFF"></path>
        </g>
        <g id="Guide/512" transform="translate(15, 15)"></g>
    </g>
</svg>