<?xml version="1.0" encoding="UTF-8"?>
<svg width="512px" height="512px" viewBox="0 0 512 512" version="1.1" xmlns="http://www.w3.org/2000/svg" xmlns:xlink="http://www.w3.org/1999/xlink">
    <title>apps/512/deepin-data-transfer</title>
    <defs>
        <filter x="-7.5%" y="-6.0%" width="115.0%" height="115.7%" filterUnits="objectBoundingBox" id="filter-1">
            <feOffset dx="0" dy="8" in="SourceAlpha" result="shadowOffsetOuter1"></feOffset>
            <feGaussianBlur stdDeviation="10" in="shadowOffsetOuter1" result="shadowBlurOuter1"></feGaussianBlur>
            <feColorMatrix values="0 0 0 0 0   0 0 0 0 0   0 0 0 0 0  0 0 0 0.2 0" type="matrix" in="shadowBlurOuter1" result="shadowMatrixOuter1"></feColorMatrix>
            <feMerge>
                <feMergeNode in="shadowMatrixOuter1"></feMergeNode>
                <feMergeNode in="SourceGraphic"></feMergeNode>
            </feMerge>
        </filter>
        <linearGradient x1="20.9329173%" y1="8.8817842e-14%" x2="20.9329173%" y2="90.355637%" id="linearGradient-2">
            <stop stop-color="#0074FF" offset="0%"></stop>
            <stop stop-color="#AA72E4" offset="100%"></stop>
        </linearGradient>
        <linearGradient x1="50%" y1="0%" x2="50%" y2="100%" id="linearGradient-3">
            <stop stop-color="#050000" stop-opacity="0.203497186" offset="0%"></stop>
            <stop stop-color="#020000" stop-opacity="0.3" offset="100%"></stop>
        </linearGradient>
        <linearGradient x1="50%" y1="0%" x2="50%" y2="98.1385523%" id="linearGradient-4">
            <stop stop-color="#FFFFFF" offset="0%"></stop>
            <stop stop-color="#EDEDED" offset="100%"></stop>
        </linearGradient>
        <path d="M217,186 L406,186 C432.509668,186 454,207.490332 454,234 L454,384 C454,410.509668 432.509668,432 406,432 L217,432 C190.490332,432 169,410.509668 169,384 L169,234 C169,207.490332 190.490332,186 217,186 Z" id="path-5"></path>
        <filter x="-1.4%" y="-1.6%" width="102.8%" height="103.3%" filterUnits="objectBoundingBox" id="filter-6">
            <feOffset dx="0" dy="-8" in="SourceAlpha" result="shadowOffsetInner1"></feOffset>
            <feComposite in="shadowOffsetInner1" in2="SourceAlpha" operator="arithmetic" k2="-1" k3="1" result="shadowInnerInner1"></feComposite>
            <feColorMatrix values="0 0 0 0 0   0 0 0 0 0   0 0 0 0 0  0 0 0 0.101016171 0" type="matrix" in="shadowInnerInner1"></feColorMatrix>
        </filter>
        <linearGradient x1="86.4262295%" y1="26.0074409%" x2="20.9329173%" y2="86.6088176%" id="linearGradient-7">
            <stop stop-color="#4440A6" offset="0%"></stop>
            <stop stop-color="#7373DD" offset="100%"></stop>
        </linearGradient>
    </defs>
    <g id="apps/512/deepin-data-transfer" stroke="none" stroke-width="1" fill="none" fill-rule="evenodd">
        <g id="编组" filter="url(#filter-1)" transform="translate(29, 40)">
            <path d="M68,0 L344,0 C381.555363,-6.89880826e-15 412,30.444637 412,68 L412,324 C412,361.555363 381.555363,392 344,392 L68,392 C30.444637,392 1.88100602e-14,361.555363 1.42108547e-14,324 L0,68 C-4.59920551e-15,30.444637 30.444637,6.89880826e-15 68,0 Z" id="矩形" fill="url(#linearGradient-2)"></path>
            <path d="M344,0 C381.555363,0 412,30.444637 412,68 L412,324 C412,361.555363 381.555363,392 344,392 L68,392 C30.444637,392 0,361.555363 0,324 L0,68 C0,30.444637 30.444637,0 68,0 L344,0 Z M344,20 L68,20 C41.490332,20 20,41.490332 20,68 L20,324 C20,350.509668 41.490332,372 68,372 L344,372 C370.509668,372 392,350.509668 392,324 L392,68 C392,41.490332 370.509668,20 344,20 Z" id="矩形" fill="url(#linearGradient-3)" fill-rule="nonzero"></path>
            <g id="矩形">
                <use fill="url(#linearGradient-4)" fill-rule="evenodd" xlink:href="#path-5"></use>
                <use fill="black" fill-opacity="1" filter="url(#filter-6)" xlink:href="#path-5"></use>
            </g>
            <path d="M393.651147,231.497715 C395.503586,233.76445 395.525047,237.016011 393.70269,239.307001 L300.252248,356.787036 L328.240129,386.303793 L230.437248,377.747149 L238.013654,291.148431 L262.675248,317.157036 L386.36926,230.492035 C388.685518,228.869153 391.861467,229.307773 393.651147,231.497715 Z" id="形状结合" fill="url(#linearGradient-7)" transform="translate(312.7462, 307.9089) rotate(85) translate(-312.7462, -307.9089)"></path>
        </g>
        <g id="Guide/512" transform="translate(15, 15)"></g>
    </g>
</svg>