<svg xmlns="http://www.w3.org/2000/svg" width="512" height="512" viewBox="0 0 512 512">
  <defs>
    <filter id="deepin-editor-a" width="127%" height="124.1%" x="-13.5%" y="-12.1%" filterUnits="objectBoundingBox">
      <feOffset dy="8" in="SourceAlpha" result="shadowOffsetOuter1"/>
      <feGaussianBlur in="shadowOffsetOuter1" result="shadowBlurOuter1" stdDeviation="10"/>
      <feComposite in="shadowBlurOuter1" in2="SourceAlpha" operator="out" result="shadowBlurOuter1"/>
      <feColorMatrix in="shadowBlurOuter1" result="shadowMatrixOuter1" values="0 0 0 0 0   0 0 0 0 0   0 0 0 0 0  0 0 0 0.2 0"/>
      <feMerge>
        <feMergeNode in="shadowMatrixOuter1"/>
        <feMergeNode in="SourceGraphic"/>
      </feMerge>
    </filter>
    <radialGradient id="deepin-editor-b" cx="60.953%" cy="7.944%" r="114.955%" fx="60.953%" fy="7.944%" gradientTransform="scale(1 .89286) rotate(73.386 .603 .084)">
      <stop offset="0%" stop-color="#00C2FB"/>
      <stop offset="100%" stop-color="#003AE3"/>
    </radialGradient>
  </defs>
  <g fill="none" fill-rule="evenodd" filter="url(#deepin-editor-a)" transform="translate(56 32)">
    <path fill="url(#deepin-editor-b)" d="M48,0 L352,0 C378.509668,-4.86974701e-15 400,21.490332 400,48 L400,400 C400,426.509668 378.509668,448 352,448 L48,448 C21.490332,448 3.24649801e-15,426.509668 0,400 L0,48 C-3.24649801e-15,21.490332 21.490332,4.86974701e-15 48,0 Z"/>
    <path fill="#FFF" fill-opacity=".3" d="M60,0 L60,24 L360,24 L360,28 L60,28 L60,52 L360,52 L360,56 L60,56 L60,80 L360,80 L360,84 L60,84 L60,108 L74,108 L74,112 L60,112 L60,136 L74,136 L74,140 L60,140 L60,164 L74.8994971,164.000623 C75.0490312,165.349794 75.21729,166.683267 75.4043337,168.000991 L60,168 L60,192 L81.5728747,192.001433 C82.1088384,193.3588 82.6736001,194.692021 83.2672705,196.001002 L60,196 L60,220 L100.243591,220.000983 C101.737608,221.397016 103.294127,222.730188 104.912405,224.000497 L60,224 L60,248 L360,248 L360,252 L60,252 L60,276 L360,276 L360,280 L60,280 L60,304 L226,304 L226,308 L60,308 L60,332 L226,332 L226,336 L60,336 L60,360 L226,360 L226,364 L60,364 L60,388 L360,388 L360,392 L60,392 L60,416 L360,416 L360,420 L60,420 L60,440 L56,440 L56,420 L32,420 L32,416 L56,416 L56,392 L32,392 L32,388 L56,388 L56,364 L32,364 L32,360 L56,360 L56,336 L32,336 L32,332 L56,332 L56,308 L32,308 L32,304 L56,304 L56,280 L32,280 L32,276 L56,276 L56,252 L32,252 L32,248 L56,248 L56,224 L32,224 L32,220 L56,220 L56,196 L32,196 L32,192 L56,192 L56,168 L32,168 L32,164 L56,164 L56,140 L32,140 L32,136 L56,136 L56,112 L32,112 L32,108 L56,108 L56,84 L32,84 L32,80 L56,80 L56,56 L32,56 L32,52 L56,52 L56,28 L32,28 L32,24 L56,24 L56,0 L60,0 Z M247.058314,360.001506 L264.892,360 L264.892,364 L229.428,364 L240.403877,361.756759 C242.712654,361.284689 244.932131,360.699587 247.058314,360.001506 Z M285.951303,360.001506 L360,360 L360,364 L268.321,364 L279.296866,361.756759 C281.605643,361.284689 283.82512,360.699587 285.951303,360.001506 Z M264.892,332 L275.671148,332.001028 C275.19534,333.372223 274.669135,334.705825 274.091928,336.001337 L264.892,336 L264.892,332 Z M314.564137,332.001028 L360,332 L360,336 L312.984917,336.001337 C313.562124,334.705825 314.088329,333.372223 314.564137,332.001028 Z M264.892,304 L279.107,304 L279.107,308 L264.892,308 L264.892,304 Z M318,304 L360,304 L360,308 L318,308 L318,304 Z M156.906,220 L178.954529,220.000983 C180.448546,221.397016 182.005064,222.730188 183.623343,224.000497 L156.906,224 L156.906,220 Z M235.617,220 L360,220 L360,224 L235.617,224 L235.617,220 Z M156.906,192 L160.283812,192.001433 C160.819776,193.3588 161.384538,194.692021 161.978208,196.001002 L156.906,196 L156.906,192 Z M235.617,192 L360,192 L360,196 L235.617,196 L235.617,192 Z M153.610435,164.000623 L156.906,164 L156.906,168 L154.115271,168.000991 C153.928228,166.683267 153.759969,165.349794 153.610435,164.000623 Z M235.617,164 L360,164 L360,168 L235.617,168 L235.617,164 Z M152.71,136 L156.906,136 L156.906,140 L152.71,140 L152.71,136 Z M235.617,136 L360,136 L360,140 L235.617,140 L235.617,136 Z M152.71,108 L156.906,108 L156.906,112 L152.71,112 L152.71,108 Z M235.617,108 L360,108 L360,112 L235.617,112 L235.617,108 Z"/>
    <path fill="#FFF" d="M306,309.387387 C306,320.82288 303.61626,329.945912 298.848708,336.756757 C294.081157,343.567602 286.762657,347.981972 276.892989,350 L276.892989,337.63964 C280.907769,335.453443 283.333329,332.174196 284.169742,327.801802 L276.892989,327.801802 L276.892989,294 L306,294 L306,309.387387 Z M267.107011,294 L267.107011,309.387387 C267.107011,320.82288 264.723271,329.945912 259.95572,336.756757 C255.188168,343.567602 247.869668,347.981972 238,350 L238,337.63964 C240.509238,336.294288 242.265678,334.948956 243.269373,333.603604 C244.273068,332.258252 244.942188,330.324337 245.276753,327.801802 L238,327.801802 L238,294 L267.107011,294 Z M144.90625,116 L144.90625,184.046875 L130.179688,184.046875 C131.841058,192.686 136.600505,199.205244 144.458168,203.604795 L144.90625,203.851562 L144.90625,228.734375 C124.932192,224.671855 110.121142,215.785225 100.472656,202.074219 C90.952817,188.546026 86.1295022,170.486435 86.0025729,147.894918 L86,146.976562 L86,116 L144.90625,116 Z M223.617188,116 L223.617188,184.046875 L208.890625,184.046875 C209.567712,189.125025 210.921865,193.018216 212.953125,195.726562 C214.984385,198.434909 218.539037,201.143216 223.617188,203.851562 L223.617188,203.851562 L223.617188,228.734375 C203.643129,224.671855 188.832079,215.785225 179.183594,202.074219 C169.535108,188.363213 164.710938,169.997511 164.710938,146.976562 L164.710938,146.976562 L164.710938,116 L223.617188,116 Z"/>
  </g>
</svg>
