<svg xmlns="http://www.w3.org/2000/svg" xmlns:xlink="http://www.w3.org/1999/xlink" width="512" height="512" viewBox="0 0 512 512">
  <defs>
    <filter id="512px-a" width="130.9%" height="124.2%" x="-15.4%" y="-12.1%" filterUnits="objectBoundingBox">
      <feOffset dy="8" in="SourceAlpha" result="shadowOffsetOuter1"/>
      <feGaussianBlur in="shadowOffsetOuter1" result="shadowBlurOuter1" stdDeviation="10"/>
      <feColorMatrix in="shadowBlurOuter1" result="shadowMatrixOuter1" values="0 0 0 0 0   0 0 0 0 0   0 0 0 0 0  0 0 0 0.2 0"/>
      <feMerge>
        <feMergeNode in="shadowMatrixOuter1"/>
        <feMergeNode in="SourceGraphic"/>
      </feMerge>
    </filter>
    <linearGradient id="512px-b" x1="50%" x2="50%" y1="0%" y2="100%">
      <stop offset="0%" stop-color="#E9EEF2"/>
      <stop offset="100%" stop-color="#95A5AF"/>
    </linearGradient>
    <rect id="512px-c" width="350" height="440" x="0" y="0" rx="40"/>
    <filter id="512px-d" width="100.9%" height="100.7%" x="-.4%" y="-.3%" filterUnits="objectBoundingBox">
      <feOffset dy="3" in="SourceAlpha" result="shadowOffsetInner1"/>
      <feComposite in="shadowOffsetInner1" in2="SourceAlpha" k2="-1" k3="1" operator="arithmetic" result="shadowInnerInner1"/>
      <feColorMatrix in="shadowInnerInner1" values="0 0 0 0 1   0 0 0 0 1   0 0 0 0 1  0 0 0 0.25 0"/>
    </filter>
    <linearGradient id="512px-g" x1="50%" x2="50%" y1="0%" y2="100%">
      <stop offset="0%" stop-color="#94A0A9"/>
      <stop offset="100%" stop-color="#8C979D"/>
    </linearGradient>
    <path id="512px-f" d="M0.00111947881,200.000045 C10.5817053,200.52228 19,209.276831 19,220 C19,230.723169 10.5817053,239.47772 0.00111947881,239.999955 Z"/>
    <filter id="512px-e" width="110.5%" height="110%" x="-5.3%" y="-2.5%" filterUnits="objectBoundingBox">
      <feOffset dy="2" in="SourceAlpha" result="shadowOffsetOuter1"/>
      <feColorMatrix in="shadowOffsetOuter1" values="0 0 0 0 1   0 0 0 0 1   0 0 0 0 1  0 0 0 0.5 0"/>
    </filter>
    <filter id="512px-h" width="168.4%" height="137.5%" x="-34.2%" y="-16.2%" filterUnits="objectBoundingBox">
      <feGaussianBlur in="SourceAlpha" result="shadowBlurInner1" stdDeviation="3.5"/>
      <feOffset dy="6" in="shadowBlurInner1" result="shadowOffsetInner1"/>
      <feComposite in="shadowOffsetInner1" in2="SourceAlpha" k2="-1" k3="1" operator="arithmetic" result="shadowInnerInner1"/>
      <feColorMatrix in="shadowInnerInner1" values="0 0 0 0 0   0 0 0 0 0   0 0 0 0 0  0 0 0 0.2 0"/>
    </filter>
    <path id="512px-j" d="M331.000918,200.000045 C341.581504,200.52228 349.999798,209.276831 349.999798,220 C349.999798,230.723169 341.581504,239.47772 331.000918,239.999955 Z"/>
    <filter id="512px-i" width="110.5%" height="110%" x="-5.3%" y="-2.5%" filterUnits="objectBoundingBox">
      <feOffset dy="2" in="SourceAlpha" result="shadowOffsetOuter1"/>
      <feColorMatrix in="shadowOffsetOuter1" values="0 0 0 0 1   0 0 0 0 1   0 0 0 0 1  0 0 0 0.5 0"/>
    </filter>
    <filter id="512px-k" width="168.4%" height="137.5%" x="-34.2%" y="-16.2%" filterUnits="objectBoundingBox">
      <feGaussianBlur in="SourceAlpha" result="shadowBlurInner1" stdDeviation="3.5"/>
      <feOffset dy="6" in="shadowBlurInner1" result="shadowOffsetInner1"/>
      <feComposite in="shadowOffsetInner1" in2="SourceAlpha" k2="-1" k3="1" operator="arithmetic" result="shadowInnerInner1"/>
      <feColorMatrix in="shadowInnerInner1" values="0 0 0 0 0   0 0 0 0 0   0 0 0 0 0  0 0 0 0.2 0"/>
    </filter>
    <path id="512px-m" d="M35.5,22 C40.7467051,22 45,26.2532949 45,31.5 C45,36.7467051 40.7467051,41 35.5,41 C30.2532949,41 26,36.7467051 26,31.5 C26,26.2532949 30.2532949,22 35.5,22 Z M314.5,22 C319.746705,22 324,26.2532949 324,31.5 C324,36.7467051 319.746705,41 314.5,41 C309.253295,41 305,36.7467051 305,31.5 C305,26.2532949 309.253295,22 314.5,22 Z"/>
    <filter id="512px-l" width="100.3%" height="110.5%" x="-.2%" y="-2.6%" filterUnits="objectBoundingBox">
      <feOffset dy="1" in="SourceAlpha" result="shadowOffsetOuter1"/>
      <feColorMatrix in="shadowOffsetOuter1" values="0 0 0 0 1   0 0 0 0 1   0 0 0 0 1  0 0 0 0.5 0"/>
    </filter>
    <filter id="512px-n" width="105.7%" height="194.7%" x="-2.9%" y="-44.7%" filterUnits="objectBoundingBox">
      <feGaussianBlur in="SourceAlpha" result="shadowBlurInner1" stdDeviation="5.5"/>
      <feOffset dy="6" in="shadowBlurInner1" result="shadowOffsetInner1"/>
      <feComposite in="shadowOffsetInner1" in2="SourceAlpha" k2="-1" k3="1" operator="arithmetic" result="shadowInnerInner1"/>
      <feColorMatrix in="shadowInnerInner1" values="0 0 0 0 0   0 0 0 0 0   0 0 0 0 0  0 0 0 0.2 0"/>
    </filter>
    <circle id="512px-p" cx="314.5" cy="397.5" r="9.5"/>
    <filter id="512px-o" width="105.3%" height="110.5%" x="-2.6%" y="-2.6%" filterUnits="objectBoundingBox">
      <feOffset dy="1" in="SourceAlpha" result="shadowOffsetOuter1"/>
      <feColorMatrix in="shadowOffsetOuter1" values="0 0 0 0 1   0 0 0 0 1   0 0 0 0 1  0 0 0 0.5 0"/>
    </filter>
    <filter id="512px-q" width="189.5%" height="194.7%" x="-44.7%" y="-44.7%" filterUnits="objectBoundingBox">
      <feGaussianBlur in="SourceAlpha" result="shadowBlurInner1" stdDeviation="5.5"/>
      <feOffset dy="6" in="shadowBlurInner1" result="shadowOffsetInner1"/>
      <feComposite in="shadowOffsetInner1" in2="SourceAlpha" k2="-1" k3="1" operator="arithmetic" result="shadowInnerInner1"/>
      <feColorMatrix in="shadowInnerInner1" values="0 0 0 0 0   0 0 0 0 0   0 0 0 0 0  0 0 0 0.2 0"/>
    </filter>
    <rect id="512px-s" width="15" height="15" x="207" y="323" rx="2"/>
    <filter id="512px-r" width="106.7%" height="113.3%" x="-3.3%" y="-3.3%" filterUnits="objectBoundingBox">
      <feOffset dy="1" in="SourceAlpha" result="shadowOffsetOuter1"/>
      <feColorMatrix in="shadowOffsetOuter1" values="0 0 0 0 1   0 0 0 0 1   0 0 0 0 1  0 0 0 0.5 0"/>
    </filter>
    <filter id="512px-t" width="213.3%" height="220%" x="-56.7%" y="-56.7%" filterUnits="objectBoundingBox">
      <feGaussianBlur in="SourceAlpha" result="shadowBlurInner1" stdDeviation="5.5"/>
      <feOffset dy="6" in="shadowBlurInner1" result="shadowOffsetInner1"/>
      <feComposite in="shadowOffsetInner1" in2="SourceAlpha" k2="-1" k3="1" operator="arithmetic" result="shadowInnerInner1"/>
      <feColorMatrix in="shadowInnerInner1" values="0 0 0 0 0   0 0 0 0 0   0 0 0 0 0  0 0 0 0.2 0"/>
    </filter>
    <rect id="512px-v" width="95" height="12" x="95" y="326" rx="6"/>
    <filter id="512px-u" width="101.1%" height="116.7%" x="-.5%" y="-4.2%" filterUnits="objectBoundingBox">
      <feOffset dy="1" in="SourceAlpha" result="shadowOffsetOuter1"/>
      <feColorMatrix in="shadowOffsetOuter1" values="0 0 0 0 1   0 0 0 0 1   0 0 0 0 1  0 0 0 0.5 0"/>
    </filter>
    <filter id="512px-w" width="113.7%" height="216.7%" x="-6.8%" y="-54.2%" filterUnits="objectBoundingBox">
      <feGaussianBlur in="SourceAlpha" result="shadowBlurInner1" stdDeviation="3.5"/>
      <feOffset dy="6" in="shadowBlurInner1" result="shadowOffsetInner1"/>
      <feComposite in="shadowOffsetInner1" in2="SourceAlpha" k2="-1" k3="1" operator="arithmetic" result="shadowInnerInner1"/>
      <feColorMatrix in="shadowInnerInner1" values="0 0 0 0 0   0 0 0 0 0   0 0 0 0 0  0 0 0 0.2 0"/>
    </filter>
    <path id="512px-x" d="M10,288.008098 L10,400 C10,416.568542 23.4314575,430 40,430 L182,430 C186.418278,430 190,426.418278 190,422 L190,372.119127 C190,362.794355 182.8787,355.013419 173.590397,354.189525 C120.664734,349.494896 76.7228373,324.765054 41.7647059,280 C36.3091793,280.013812 28.3897707,280.016512 18.0064803,280.008101 C13.588204,280.004522 10.0035818,283.583341 10.0000026,288.001618 C10.0000009,288.003778 10,288.005938 10,288.008098 Z"/>
    <filter id="512px-y" width="107.2%" height="108.7%" x="-3.6%" y="-4.3%" filterUnits="objectBoundingBox">
      <feGaussianBlur in="SourceAlpha" result="shadowBlurInner1" stdDeviation="3.5"/>
      <feOffset dy="6" in="shadowBlurInner1" result="shadowOffsetInner1"/>
      <feComposite in="shadowOffsetInner1" in2="SourceAlpha" k2="-1" k3="1" operator="arithmetic" result="shadowInnerInner1"/>
      <feColorMatrix in="shadowInnerInner1" values="0 0 0 0 0   0 0 0 0 0   0 0 0 0 0  0 0 0 0.2 0"/>
    </filter>
    <linearGradient id="512px-B" x1="50%" x2="50%" y1="0%" y2="100%">
      <stop offset="0%" stop-color="#EAF0F4"/>
      <stop offset="100%" stop-color="#C7D1D8"/>
    </linearGradient>
    <path id="512px-A" d="M36.9527435,290.008594 C73.0980536,334.496502 118.513555,359.343344 172.706843,364.150415 C176.834978,364.51659 180,367.974784 180,372.119127 L180,420 L40,420 C28.954305,420 20,411.045695 20,400 L20,290.008594 L36.9527435,290.008594 Z M166,398 C163.790861,398 162,399.790861 162,402 C162,404.209139 163.790861,406 166,406 C168.209139,406 170,404.209139 170,402 C170,399.790861 168.209139,398 166,398 Z M32,299 C29.790861,299 28,300.790861 28,303 C28,305.209139 29.790861,307 32,307 C34.209139,307 36,305.209139 36,303 C36,300.790861 34.209139,299 32,299 Z"/>
    <filter id="512px-z" width="112.5%" height="115.4%" x="-6.2%" y="-6.2%" filterUnits="objectBoundingBox">
      <feOffset dy="2" in="SourceAlpha" result="shadowOffsetOuter1"/>
      <feGaussianBlur in="shadowOffsetOuter1" result="shadowBlurOuter1" stdDeviation="3"/>
      <feColorMatrix in="shadowBlurOuter1" values="0 0 0 0 0   0 0 0 0 0   0 0 0 0 0  0 0 0 0.275868663 0"/>
    </filter>
    <linearGradient id="512px-E" x1="51.761%" x2="51.761%" y1="0%" y2="100%">
      <stop offset="0%" stop-color="#6B6C77"/>
      <stop offset="83.506%" stop-color="#2B2F42"/>
      <stop offset="100%" stop-color="#5F627C"/>
    </linearGradient>
    <linearGradient id="512px-F" x1="50%" x2="50%" y1="0%" y2="100%">
      <stop offset="0%" stop-color="#FFF" stop-opacity=".15"/>
      <stop offset="100%" stop-opacity=".328"/>
    </linearGradient>
    <circle id="512px-D" cx="129" cy="129" r="129"/>
    <filter id="512px-C" width="118.2%" height="118.2%" x="-9.1%" y="-6%" filterUnits="objectBoundingBox">
      <feOffset dy="8" in="SourceAlpha" result="shadowOffsetOuter1"/>
      <feGaussianBlur in="shadowOffsetOuter1" result="shadowBlurOuter1" stdDeviation="6.5"/>
      <feComposite in="shadowBlurOuter1" in2="SourceAlpha" operator="out" result="shadowBlurOuter1"/>
      <feColorMatrix in="shadowBlurOuter1" values="0 0 0 0 0   0 0 0 0 0   0 0 0 0 0  0 0 0 0.271689248 0"/>
    </filter>
    <linearGradient id="512px-I" x1="50%" x2="50%" y1="0%" y2="100%">
      <stop offset="0%" stop-color="#393741"/>
      <stop offset="100%" stop-color="#1F1C25"/>
    </linearGradient>
    <circle id="512px-H" cx="111" cy="111" r="111"/>
    <filter id="512px-G" width="127%" height="127%" x="-13.5%" y="-7.7%" filterUnits="objectBoundingBox">
      <feMorphology in="SourceAlpha" operator="dilate" radius="4" result="shadowSpreadOuter1"/>
      <feOffset dy="13" in="shadowSpreadOuter1" result="shadowOffsetOuter1"/>
      <feGaussianBlur in="shadowOffsetOuter1" result="shadowBlurOuter1" stdDeviation="6.5"/>
      <feComposite in="shadowBlurOuter1" in2="SourceAlpha" operator="out" result="shadowBlurOuter1"/>
      <feColorMatrix in="shadowBlurOuter1" values="0 0 0 0 0   0 0 0 0 0   0 0 0 0 0  0 0 0 0.3 0"/>
    </filter>
    <linearGradient id="512px-L" x1="50%" x2="50%" y1="0%" y2="100%">
      <stop offset="0%" stop-color="#E5E5E5" stop-opacity=".15"/>
      <stop offset="100%" stop-color="#565656" stop-opacity=".328"/>
    </linearGradient>
    <circle id="512px-K" cx="43" cy="43" r="43"/>
    <filter id="512px-J" width="130.2%" height="131.4%" x="-15.1%" y="-10.5%" filterUnits="objectBoundingBox">
      <feOffset dy="5" in="SourceAlpha" result="shadowOffsetOuter1"/>
      <feGaussianBlur in="shadowOffsetOuter1" result="shadowBlurOuter1" stdDeviation="3.5"/>
      <feComposite in="shadowBlurOuter1" in2="SourceAlpha" operator="out" result="shadowBlurOuter1"/>
      <feColorMatrix in="shadowBlurOuter1" values="0 0 0 0 0   0 0 0 0 0   0 0 0 0 0  0 0 0 0.3 0"/>
    </filter>
    <linearGradient id="512px-O" x1="50%" x2="50%" y1="0%" y2="100%">
      <stop offset="0%" stop-color="#FBFBFB"/>
      <stop offset="100%" stop-color="#B7B7B7"/>
    </linearGradient>
    <path id="512px-N" d="M129,103 C143.359403,103 155,114.640597 155,129 C155,143.359403 143.359403,155 129,155 C114.640597,155 103,143.359403 103,129 C103,114.640597 114.640597,103 129,103 Z M129,120.333333 C124.213532,120.333333 120.333333,124.213532 120.333333,129 C120.333333,133.786468 124.213532,137.666667 129,137.666667 C133.786468,137.666667 137.666667,133.786468 137.666667,129 C137.666667,124.213532 133.786468,120.333333 129,120.333333 Z"/>
    <filter id="512px-M" width="138.5%" height="138.5%" x="-19.2%" y="-9.6%" filterUnits="objectBoundingBox">
      <feOffset dy="5" in="SourceAlpha" result="shadowOffsetOuter1"/>
      <feGaussianBlur in="shadowOffsetOuter1" result="shadowBlurOuter1" stdDeviation="2.5"/>
      <feColorMatrix in="shadowBlurOuter1" values="0 0 0 0 0   0 0 0 0 0   0 0 0 0 0  0 0 0 0.3 0"/>
    </filter>
    <filter id="512px-P" width="121.2%" height="121.2%" x="-10.6%" y="-1%" filterUnits="objectBoundingBox">
      <feOffset dy="1" in="SourceAlpha" result="shadowOffsetInner1"/>
      <feComposite in="shadowOffsetInner1" in2="SourceAlpha" k2="-1" k3="1" operator="arithmetic" result="shadowInnerInner1"/>
      <feColorMatrix in="shadowInnerInner1" values="0 0 0 0 1   0 0 0 0 1   0 0 0 0 1  0 0 0 0.5 0"/>
    </filter>
    <linearGradient id="512px-S" x1="97.247%" x2="6.271%" y1="5.059%" y2="91.027%">
      <stop offset="0%" stop-color="#F7F9FB"/>
      <stop offset="100%" stop-color="#ECF1F6"/>
    </linearGradient>
    <path id="512px-R" d="M50.7552499,134.878211 L147.775558,15.0246812 C149.162428,13.4205771 150,11.3621906 150,9.11644478 C150,4.09025173 145.798081,4.26325641e-14 140.620605,4.26325641e-14 C138.313549,4.26325641e-14 136.198967,0.802479842 134.564252,2.16532674 L11.4254242,96.60728 C4.49019172,101.593264 3.12638804e-13,109.600952 3.12638804e-13,118.623289 C3.12638804e-13,133.755766 12.5925752,146 28.1241211,146 C37.4077178,146 45.6331443,141.629137 50.7552499,134.878211 Z"/>
    <filter id="512px-Q" width="114.7%" height="115.1%" x="-7.3%" y="-4.8%" filterUnits="objectBoundingBox">
      <feOffset dy="4" in="SourceAlpha" result="shadowOffsetOuter1"/>
      <feGaussianBlur in="shadowOffsetOuter1" result="shadowBlurOuter1" stdDeviation="3"/>
      <feColorMatrix in="shadowBlurOuter1" values="0 0 0 0 0   0 0 0 0 0   0 0 0 0 0  0 0 0 0.300344187 0"/>
    </filter>
    <filter id="512px-T" width="108.7%" height="108.9%" x="-4.3%" y="-1.7%" filterUnits="objectBoundingBox">
      <feOffset dy="1" in="SourceAlpha" result="shadowOffsetInner1"/>
      <feComposite in="shadowOffsetInner1" in2="SourceAlpha" k2="-1" k3="1" operator="arithmetic" result="shadowInnerInner1"/>
      <feColorMatrix in="shadowInnerInner1" values="0 0 0 0 1   0 0 0 0 1   0 0 0 0 1  0 0 0 0.942198427 0"/>
    </filter>
    <linearGradient id="512px-U" x1="50%" x2="50%" y1="0%" y2="97.679%">
      <stop offset="0%" stop-color="#959B9F"/>
      <stop offset="100%" stop-color="#727A81"/>
    </linearGradient>
    <linearGradient id="512px-V" x1="50%" x2="50%" y1="0%" y2="99.448%">
      <stop offset="0%" stop-color="#4C5860"/>
      <stop offset="100%" stop-color="#5A656C"/>
    </linearGradient>
    <linearGradient id="512px-W" x1="50%" x2="50%" y1="1.833%" y2="100%">
      <stop offset="0%" stop-color="#A5ABB2"/>
      <stop offset="100%" stop-color="#EAF0FF"/>
    </linearGradient>
    <path id="512px-Y" d="M292,369 C294.761424,369 297,371.238576 297,374 L297,421 C297,423.761424 294.761424,426 292,426 C289.238576,426 287,423.761424 287,421 L287,374 C287,371.238576 289.238576,369 292,369 Z M272,369 C274.761424,369 277,371.238576 277,374 L277,421 C277,423.761424 274.761424,426 272,426 C269.238576,426 267,423.761424 267,421 L267,374 C267,371.238576 269.238576,369 272,369 Z M252,369 C254.761424,369 257,371.238576 257,374 L257,421 C257,423.761424 254.761424,426 252,426 C249.238576,426 247,423.761424 247,421 L247,374 C247,371.238576 249.238576,369 252,369 Z M232,369 C234.761424,369 237,371.238576 237,374 L237,421 C237,423.761424 234.761424,426 232,426 C229.238576,426 227,423.761424 227,421 L227,374 C227,371.238576 229.238576,369 232,369 Z M212,369 C214.761424,369 217,371.238576 217,374 L217,421 C217,423.761424 214.761424,426 212,426 C209.238576,426 207,423.761424 207,421 L207,374 C207,371.238576 209.238576,369 212,369 Z"/>
    <filter id="512px-X" width="101.1%" height="103.5%" x="-.6%" y="-.9%" filterUnits="objectBoundingBox">
      <feOffset dy="1" in="SourceAlpha" result="shadowOffsetOuter1"/>
      <feColorMatrix in="shadowOffsetOuter1" values="0 0 0 0 1   0 0 0 0 1   0 0 0 0 1  0 0 0 0.5 0"/>
    </filter>
    <filter id="512px-Z" width="114.4%" height="124.6%" x="-7.2%" y="-11.4%" filterUnits="objectBoundingBox">
      <feGaussianBlur in="SourceAlpha" result="shadowBlurInner1" stdDeviation="3.5"/>
      <feOffset dy="6" in="shadowBlurInner1" result="shadowOffsetInner1"/>
      <feComposite in="shadowOffsetInner1" in2="SourceAlpha" k2="-1" k3="1" operator="arithmetic" result="shadowInnerInner1"/>
      <feColorMatrix in="shadowInnerInner1" values="0 0 0 0 0   0 0 0 0 0   0 0 0 0 0  0 0 0 0.2 0"/>
    </filter>
  </defs>
  <g fill="none" fill-rule="evenodd" filter="url(#512px-a)" transform="translate(81 32)">
    <rect width="350" height="446" fill="#424F59" rx="40"/>
    <use fill="url(#512px-b)" xlink:href="#512px-c"/>
    <use fill="#000" filter="url(#512px-d)" xlink:href="#512px-c"/>
    <use fill="#000" filter="url(#512px-e)" xlink:href="#512px-f"/>
    <use fill="url(#512px-g)" xlink:href="#512px-f"/>
    <use fill="#000" filter="url(#512px-h)" xlink:href="#512px-f"/>
    <g transform="matrix(-1 0 0 1 681 0)">
      <use fill="#000" filter="url(#512px-i)" xlink:href="#512px-j"/>
      <use fill="url(#512px-g)" xlink:href="#512px-j"/>
      <use fill="#000" filter="url(#512px-k)" xlink:href="#512px-j"/>
    </g>
    <use fill="#000" filter="url(#512px-l)" xlink:href="#512px-m"/>
    <use fill="#A4AFB6" xlink:href="#512px-m"/>
    <use fill="#000" filter="url(#512px-n)" xlink:href="#512px-m"/>
    <use fill="#000" filter="url(#512px-o)" xlink:href="#512px-p"/>
    <use fill="#8C969D" xlink:href="#512px-p"/>
    <use fill="#000" filter="url(#512px-q)" xlink:href="#512px-p"/>
    <use fill="#000" filter="url(#512px-r)" xlink:href="#512px-s"/>
    <use fill="#A4AFB6" xlink:href="#512px-s"/>
    <use fill="#000" filter="url(#512px-t)" xlink:href="#512px-s"/>
    <use fill="#000" filter="url(#512px-u)" xlink:href="#512px-v"/>
    <use fill="#A4AFB6" xlink:href="#512px-v"/>
    <use fill="#000" filter="url(#512px-w)" xlink:href="#512px-v"/>
    <use fill="#6C7982" xlink:href="#512px-x"/>
    <use fill="#000" filter="url(#512px-y)" xlink:href="#512px-x"/>
    <g fill-rule="nonzero">
      <use fill="#000" filter="url(#512px-z)" xlink:href="#512px-A"/>
      <use fill="url(#512px-B)" xlink:href="#512px-A"/>
    </g>
    <g transform="translate(46 32)">
      <use fill="#000" filter="url(#512px-C)" xlink:href="#512px-D"/>
      <circle cx="129" cy="129" r="127" fill="url(#512px-E)" stroke="url(#512px-F)" stroke-linejoin="square" stroke-width="4"/>
      <g transform="translate(18 18)">
        <use fill="#000" filter="url(#512px-G)" xlink:href="#512px-H"/>
        <circle cx="111" cy="111" r="113" fill="url(#512px-I)" stroke="#000" stroke-width="4"/>
        <path fill="#4F4F50" fill-opacity=".305" fill-rule="nonzero" d="M113.97909,119.12971 L37.1861425,193.902169 C23.1165296,181.366051 12.2589295,165.301996 6.0018793,147.098542 L113.97909,119.12971 Z M195.842375,39.4227099 C208.200237,54.0558786 216.841041,71.9298395 220.308371,91.5881773 L113.97909,119.12971 Z" opacity=".414"/>
        <path fill="#4F4F50" fill-opacity=".305" fill-rule="nonzero" d="M108.953894,119.222515 L215.241702,149.227864 C208.683481,167.105825 197.657291,182.827722 183.516003,195.040686 L108.953894,119.222515 Z M28.1831343,37.0905154 L108.953894,119.222515 L2.16474263,89.076004 C6.11490076,69.3582962 15.2893762,51.5281217 28.1831343,37.0905154 Z"/>
      </g>
      <g transform="rotate(15 -240.617 412.617)">
        <use fill="#000" filter="url(#512px-J)" xlink:href="#512px-K"/>
        <circle cx="43" cy="43" r="34" fill="url(#512px-I)" stroke="#000" stroke-linejoin="square" stroke-width="18"/>
        <circle cx="43" cy="43" r="44.5" stroke="url(#512px-L)" stroke-width="3"/>
        <path fill="#4F4F50" fill-opacity=".401" fill-rule="nonzero" d="M51.1563961,51.9974361 L75.7375587,70.8805383 C71.2742526,76.116325 65.5770494,80.2681591 59.0958614,82.8861284 L47.5660469,55.9116812 C48.9597383,54.8111783 50.1747937,53.4899774 51.1563961,51.9974361 Z M25.2920613,3.80384697 L34.9939628,26.4996357 C31.0443618,27.0515473 27.5136355,29.0060375 24.9540323,31.8658598 L7.62300506,18.549974 C12.0433032,12.1662869 18.1469767,7.0369232 25.2920613,3.80384697 Z"/>
      </g>
      <use fill="#000" filter="url(#512px-M)" xlink:href="#512px-N"/>
      <use fill="url(#512px-O)" xlink:href="#512px-N"/>
      <use fill="#000" filter="url(#512px-P)" xlink:href="#512px-N"/>
    </g>
    <g transform="translate(57 235)">
      <g fill-rule="nonzero">
        <use fill="#000" filter="url(#512px-Q)" xlink:href="#512px-R"/>
        <use fill="url(#512px-S)" xlink:href="#512px-R"/>
        <use fill="#000" filter="url(#512px-T)" xlink:href="#512px-R"/>
      </g>
      <ellipse cx="27" cy="119.5" fill="url(#512px-U)" stroke="#696868" stroke-width="3" rx="15.5" ry="15"/>
    </g>
    <g fill-rule="nonzero" transform="translate(28 382)">
      <path fill="url(#512px-V)" d="M32,16.0059993 C32,24.8413948 24.8320839,32 16,32 C7.16791605,32 0,24.8413948 0,16.0059993 C0,7.17060368 7.16791605,0 16,0 C24.8320839,0 32,7.17060368 32,16.0059993 Z"/>
      <path fill="url(#512px-W)" d="M24,16.0029996 C24,20.4206974 20.416042,24 16,24 C11.583958,24 8,20.4206974 8,16.0029996 C8,11.5853018 11.583958,8 16,8 C20.416042,8 24,11.5853018 24,16.0029996 Z" transform="matrix(1 0 0 -1 0 32)"/>
    </g>
    <use fill="#000" filter="url(#512px-X)" xlink:href="#512px-Y"/>
    <use fill="#6C7982" xlink:href="#512px-Y"/>
    <use fill="#000" filter="url(#512px-Z)" xlink:href="#512px-Y"/>
  </g>
</svg>
