<?xml version="1.0" encoding="UTF-8"?>
<svg width="512px" height="512px" viewBox="0 0 512 512" version="1.1" xmlns="http://www.w3.org/2000/svg" xmlns:xlink="http://www.w3.org/1999/xlink">
    <title>apps/512/deepin-app-store</title>
    <defs>
        <filter x="-8.2%" y="-6.2%" width="116.3%" height="116.3%" filterUnits="objectBoundingBox" id="filter-1">
            <feOffset dx="0" dy="8" in="SourceAlpha" result="shadowOffsetOuter1"></feOffset>
            <feGaussianBlur stdDeviation="10" in="shadowOffsetOuter1" result="shadowBlurOuter1"></feGaussianBlur>
            <feColorMatrix values="0 0 0 0 0   0 0 0 0 0   0 0 0 0 0  0 0 0 0.2 0" type="matrix" in="shadowBlurOuter1" result="shadowMatrixOuter1"></feColorMatrix>
            <feMerge>
                <feMergeNode in="shadowMatrixOuter1"></feMergeNode>
                <feMergeNode in="SourceGraphic"></feMergeNode>
            </feMerge>
        </filter>
        <linearGradient x1="50%" y1="12.87256%" x2="50%" y2="100%" id="linearGradient-2">
            <stop stop-color="#F8F8F8" offset="0%"></stop>
            <stop stop-color="#FFE4C5" offset="100%"></stop>
        </linearGradient>
        <radialGradient cx="50%" cy="0%" fx="50%" fy="0%" r="100%" gradientTransform="translate(0.5, 0), scale(0.6971, 1), rotate(90), translate(-0.5, -0)" id="radialGradient-3">
            <stop stop-color="#FFB558" offset="0%"></stop>
            <stop stop-color="#FF631C" offset="100%"></stop>
        </radialGradient>
        <linearGradient x1="50%" y1="0%" x2="50%" y2="100%" id="linearGradient-4">
            <stop stop-color="#FF8800" offset="0%"></stop>
            <stop stop-color="#FF3F00" offset="100%"></stop>
        </linearGradient>
        <linearGradient x1="50%" y1="0%" x2="50%" y2="100%" id="linearGradient-5">
            <stop stop-color="#FFEBEB" offset="0%"></stop>
            <stop stop-color="#FFFFFF" offset="2.07736933%"></stop>
            <stop stop-color="#FFEAEA" offset="6.67533432%"></stop>
            <stop stop-color="#FFD2D2" offset="100%"></stop>
        </linearGradient>
        <path d="M331.431988,66.120578 C331.431988,61.9994936 334.772787,58.6586946 338.893871,58.6586946 C343.014956,58.6586946 346.355755,61.9994936 346.355755,66.120578 C346.355755,110.86317 337.228996,149.704374 318.040639,178.298839 C295.619842,211.710282 260.408691,229.867464 212.663677,229.867464 C164.918663,229.867464 129.707513,211.710282 107.286716,178.298839 C88.0983582,149.704374 78.9715994,110.86317 78.9715994,66.120578 C78.9715994,61.9994936 82.3123984,58.6586946 86.4334828,58.6586946 C90.5545672,58.6586946 93.8953662,61.9994936 93.8953662,66.120578 C93.8953662,108.147098 102.361436,144.176574 119.678905,169.983043 C139.284139,199.198737 169.817409,214.943697 212.663677,214.943697 C255.509945,214.943697 286.043216,199.198737 305.64845,169.983043 C322.965918,144.176574 331.431988,108.147098 331.431988,66.120578 Z" id="path-6"></path>
        <filter x="-9.0%" y="-7.0%" width="118.0%" height="128.0%" filterUnits="objectBoundingBox" id="filter-7">
            <feOffset dx="0" dy="12" in="SourceAlpha" result="shadowOffsetOuter1"></feOffset>
            <feGaussianBlur stdDeviation="6" in="shadowOffsetOuter1" result="shadowBlurOuter1"></feGaussianBlur>
            <feColorMatrix values="0 0 0 0 0.788235294   0 0 0 0 0.290196078   0 0 0 0 0  0 0 0 0.4 0" type="matrix" in="shadowBlurOuter1"></feColorMatrix>
        </filter>
        <filter x="-6.4%" y="-2.9%" width="112.7%" height="119.9%" filterUnits="objectBoundingBox" id="filter-8">
            <feGaussianBlur stdDeviation="2" in="SourceAlpha" result="shadowBlurInner1"></feGaussianBlur>
            <feOffset dx="0" dy="-4" in="shadowBlurInner1" result="shadowOffsetInner1"></feOffset>
            <feComposite in="shadowOffsetInner1" in2="SourceAlpha" operator="arithmetic" k2="-1" k3="1" result="shadowInnerInner1"></feComposite>
            <feColorMatrix values="0 0 0 0 1   0 0 0 0 0.568627451   0 0 0 0 0.243137255  0 0 0 0.501217165 0" type="matrix" in="shadowInnerInner1" result="shadowMatrixInner1"></feColorMatrix>
            <feGaussianBlur stdDeviation="3" in="SourceAlpha" result="shadowBlurInner2"></feGaussianBlur>
            <feOffset dx="0" dy="4" in="shadowBlurInner2" result="shadowOffsetInner2"></feOffset>
            <feComposite in="shadowOffsetInner2" in2="SourceAlpha" operator="arithmetic" k2="-1" k3="1" result="shadowInnerInner2"></feComposite>
            <feColorMatrix values="0 0 0 0 1   0 0 0 0 1   0 0 0 0 1  0 0 0 1 0" type="matrix" in="shadowInnerInner2" result="shadowMatrixInner2"></feColorMatrix>
            <feMerge>
                <feMergeNode in="shadowMatrixInner1"></feMergeNode>
                <feMergeNode in="shadowMatrixInner2"></feMergeNode>
            </feMerge>
        </filter>
    </defs>
    <g id="apps/512/deepin-app-store" stroke="none" stroke-width="1" fill="none" fill-rule="evenodd">
        <g id="编组" filter="url(#filter-1)" transform="translate(48, 48)" fill-rule="nonzero">
            <path d="M64,0 L352,0 C387.346224,-6.49299601e-15 416,28.653776 416,64 L416,126 L416,126 L0,126 L0,64 C-4.32866401e-15,28.653776 28.653776,6.49299601e-15 64,0 Z M83.7473326,82 C93.8280025,82 102,73.6480025 102,63.3452915 C102,53.0425805 93.8280025,44.690583 83.7473326,44.690583 C73.6666628,44.690583 65.4946652,53.0425805 65.4946652,63.3452915 C65.4946652,73.6480025 73.6666628,82 83.7473326,82 Z M332.747333,82 C342.828002,82 351,73.6480025 351,63.3452915 C351,53.0425805 342.828002,44.690583 332.747333,44.690583 C322.666663,44.690583 314.494665,53.0425805 314.494665,63.3452915 C314.494665,73.6480025 322.666663,82 332.747333,82 Z" id="Combined-Shape" fill="url(#linearGradient-2)"></path>
            <path d="M0,126 L416,126 L416,352 C416,387.346224 387.346224,416 352,416 L64,416 C28.653776,416 1.29201133e-14,387.346224 -7.10542736e-15,352 L0,126 L0,126 Z" id="Rectangle" fill="url(#radialGradient-3)"></path>
            <path d="M300,126 L360.035874,126 L360.035874,416 L300,416 L300,126 Z M175,126 L241,126 L241,416 L175,416 L175,126 Z M56,126 L116,126 L116,416 L56,416 L56,126 Z" id="Combined-Shape" fill="url(#linearGradient-4)"></path>
            <g id="Path">
                <use fill="black" fill-opacity="1" filter="url(#filter-7)" xlink:href="#path-6"></use>
                <use fill="url(#linearGradient-5)" xlink:href="#path-6"></use>
                <use fill="black" fill-opacity="1" filter="url(#filter-8)" xlink:href="#path-6"></use>
            </g>
        </g>
        <g id="Guide-512" transform="translate(15, 15)"></g>
    </g>
</svg>