<?xml version="1.0" encoding="UTF-8"?>
<svg width="512px" height="512px" viewBox="0 0 512 512" version="1.1" xmlns="http://www.w3.org/2000/svg" xmlns:xlink="http://www.w3.org/1999/xlink">
    <title>apps/512/deepin-terminal</title>
    <defs>
        <filter x="-7.6%" y="-6.4%" width="115.3%" height="116.8%" filterUnits="objectBoundingBox" id="filter-1">
            <feOffset dx="0" dy="8" in="SourceAlpha" result="shadowOffsetOuter1"></feOffset>
            <feGaussianBlur stdDeviation="10" in="shadowOffsetOuter1" result="shadowBlurOuter1"></feGaussianBlur>
            <feColorMatrix values="0 0 0 0 0   0 0 0 0 0   0 0 0 0 0  0 0 0 0.2 0" type="matrix" in="shadowBlurOuter1" result="shadowMatrixOuter1"></feColorMatrix>
            <feMerge>
                <feMergeNode in="shadowMatrixOuter1"></feMergeNode>
                <feMergeNode in="SourceGraphic"></feMergeNode>
            </feMerge>
        </filter>
        <radialGradient cx="50%" cy="0%" fx="50%" fy="0%" r="100%" gradientTransform="translate(0.5, 0), scale(0.914, 1), rotate(90), translate(-0.5, -0)" id="radialGradient-2">
            <stop stop-color="#FF774D" offset="0%"></stop>
            <stop stop-color="#BA0E55" offset="100%"></stop>
        </radialGradient>
    </defs>
    <g id="apps/512/deepin-terminal" stroke="none" stroke-width="1" fill="none" fill-rule="evenodd">
        <g id="Group" filter="url(#filter-1)" transform="translate(34.7619, 54)">
            <rect id="Rectangle-245" fill="url(#radialGradient-2)" x="0.238095238" y="-5.68434189e-14" width="442" height="404" rx="64"></rect>
            <path d="M141.321935,140.141811 L64.9318745,184.334285 C59.4253324,187.546435 57.5653598,194.614331 60.7775093,200.120873 C63.9896589,205.627415 71.057555,207.487388 76.5640971,204.275238 L169.538488,150.408572 C177.174149,145.954436 177.174149,134.921754 169.538488,130.467619 L76.5640971,76.6009521 C71.057555,73.3888026 63.9896589,75.2487752 60.7775093,80.7553173 C57.5653598,86.2618594 59.4253324,93.3297555 64.9318745,96.541905 L141.321935,140.141811 Z" id="Path-4" fill="#FFF0F0" fill-rule="nonzero"></path>
            <path d="M260.817985,248 C266.614693,248 273.238095,241.955844 273.238095,234.5 C273.238095,227.044156 266.614693,221 260.817985,221 L158.658205,221 C152.861498,221 146.238095,227.044156 146.238095,234.5 C146.238095,241.955844 152.861498,248 158.658205,248 L260.817985,248 Z" id="Path" fill="#FFF0F0"></path>
        </g>
        <g id="Guide-512" transform="translate(15, 15)"></g>
    </g>
</svg>