<?xml version="1.0" encoding="UTF-8"?>
<svg width="512px" height="512px" viewBox="0 0 512 512" version="1.1" xmlns="http://www.w3.org/2000/svg" xmlns:xlink="http://www.w3.org/1999/xlink">
    <title>apps/512/deepin-screen-recorder</title>
    <defs>
        <filter x="-7.2%" y="-6.6%" width="114.4%" height="117.2%" filterUnits="objectBoundingBox" id="filter-1">
            <feOffset dx="0" dy="8" in="SourceAlpha" result="shadowOffsetOuter1"></feOffset>
            <feGaussianBlur stdDeviation="10" in="shadowOffsetOuter1" result="shadowBlurOuter1"></feGaussianBlur>
            <feColorMatrix values="0 0 0 0 0   0 0 0 0 0   0 0 0 0 0  0 0 0 0.2 0" type="matrix" in="shadowBlurOuter1" result="shadowMatrixOuter1"></feColorMatrix>
            <feMerge>
                <feMergeNode in="shadowMatrixOuter1"></feMergeNode>
                <feMergeNode in="SourceGraphic"></feMergeNode>
            </feMerge>
        </filter>
        <linearGradient x1="50%" y1="0%" x2="50%" y2="96.1072977%" id="linearGradient-2">
            <stop stop-color="#F0EDFF" offset="0%"></stop>
            <stop stop-color="#BBA7F6" offset="100%"></stop>
        </linearGradient>
        <path d="M52,0 L52,52 L0,52 L0,0 L52,0 L52,0 Z M356,0 L408,0 L408,52 L356,52 L356,0 Z M408,226 L408,278 L356,278 L356,226 L408,226 Z M52,278 L0,278 L0,226 L52,226 L52,278 L52,278 Z" id="path-3"></path>
        <linearGradient x1="39.2766806%" y1="15.3036106%" x2="39.2766806%" y2="105.982476%" id="linearGradient-5">
            <stop stop-color="#6B6386" offset="0%"></stop>
            <stop stop-color="#302B42" offset="72.1020361%"></stop>
            <stop stop-color="#72639E" offset="100%"></stop>
        </linearGradient>
        <ellipse id="path-6" cx="128.727273" cy="128.432432" rx="128.727273" ry="128.432432"></ellipse>
        <filter x="-9.3%" y="-4.7%" width="118.6%" height="118.7%" filterUnits="objectBoundingBox" id="filter-7">
            <feOffset dx="0" dy="12" in="SourceAlpha" result="shadowOffsetOuter1"></feOffset>
            <feGaussianBlur stdDeviation="6" in="shadowOffsetOuter1" result="shadowBlurOuter1"></feGaussianBlur>
            <feColorMatrix values="0 0 0 0 0   0 0 0 0 0   0 0 0 0 0  0 0 0 0.3 0" type="matrix" in="shadowBlurOuter1"></feColorMatrix>
        </filter>
        <linearGradient x1="50%" y1="0%" x2="50%" y2="100%" id="linearGradient-8">
            <stop stop-color="#FFFFFF" stop-opacity="0.15" offset="0%"></stop>
            <stop stop-color="#000000" stop-opacity="0.328238225" offset="100%"></stop>
        </linearGradient>
        <radialGradient cx="50%" cy="91.2430015%" fx="50%" fy="91.2430015%" r="23.4635754%" gradientTransform="translate(0.5, 0.9124), scale(0.9977, 1), rotate(90), scale(1, 1.5718), translate(-0.5, -0.9124)" id="radialGradient-9">
            <stop stop-color="#8462FF" offset="0%"></stop>
            <stop stop-color="#232129" offset="100%"></stop>
        </radialGradient>
        <radialGradient cx="50%" cy="50%" fx="50%" fy="50%" r="50%" gradientTransform="translate(0.5, 0.5), scale(0.9977, 1), rotate(90), translate(-0.5, -0.5)" id="radialGradient-10">
            <stop stop-color="#F53E84" offset="0%"></stop>
            <stop stop-color="#4F2CA2" offset="100%"></stop>
        </radialGradient>
        <linearGradient x1="100%" y1="27.9504681%" x2="0%" y2="67.5878264%" id="linearGradient-11">
            <stop stop-color="#4B003F" offset="0%"></stop>
            <stop stop-color="#33036D" offset="14.5887885%"></stop>
            <stop stop-color="#C30B9D" offset="51.4479904%"></stop>
            <stop stop-color="#591A85" offset="80.60535%"></stop>
            <stop stop-color="#470437" offset="100%"></stop>
        </linearGradient>
        <linearGradient x1="50%" y1="0%" x2="50%" y2="50%" id="linearGradient-12">
            <stop stop-color="#FFEEEE" stop-opacity="0.850033967" offset="0%"></stop>
            <stop stop-color="#FF578A" stop-opacity="0.7" offset="100%"></stop>
        </linearGradient>
    </defs>
    <g id="apps/512/deepin-screen-recorder" stroke="none" stroke-width="1" fill="none" fill-rule="evenodd">
        <g id="9-screenshot" filter="url(#filter-1)" transform="translate(20, 58)">
            <g id="Group-9">
                <path d="M109.63447,24.7701521 C116.683023,9.65932469 131.847179,0 148.521087,0 L321.478913,0 C338.152821,0 353.316977,9.65932469 360.36553,24.7701521 L363.229123,30.9091803 C369.799808,44.9955448 383.935886,54 399.479359,54 L416,54 L416,54 C446.927946,54 472,79.072054 472,110 L472,340 C472,370.927946 446.927946,396 416,396 L56,396 C25.072054,396 0,370.927946 0,340 L0,110 C0,79.072054 25.072054,54 56,54 L70.5206408,54 C86.0641141,54 100.200192,44.9955448 106.770877,30.9091803 L109.63447,24.7701521 L109.63447,24.7701521 Z" id="Path" fill="url(#linearGradient-2)"></path>
                <g id="框" transform="translate(32, 86)">
                    <mask id="mask-4" fill="white">
                        <use xlink:href="#path-3"></use>
                    </mask>
                    <g id="Mask"></g>
                    <path d="M384,3 C389.79899,3 395.04899,5.35050506 398.849242,9.1507576 C402.649495,12.9510101 405,18.2010101 405,24 L405,254 C405,259.79899 402.649495,265.04899 398.849242,268.849242 C395.04899,272.649495 389.79899,275 384,275 L24,275 C18.2010101,275 12.9510101,272.649495 9.1507576,268.849242 C5.35050506,265.04899 3,259.79899 3,254 L3,24 C3,18.2010101 5.35050506,12.9510101 9.1507576,9.1507576 C12.9510101,5.35050506 18.2010101,3 24,3 Z" id="Rectangle" stroke-opacity="0.4" stroke="#000000" stroke-width="6" mask="url(#mask-4)"></path>
                </g>
                <ellipse id="Oval" fill="#FF5555" cx="396.909091" cy="128.432432" rx="10.7272727" ry="10.7027027"></ellipse>
                <path d="M396.909091,111.72973 C406.144233,111.72973 413.636364,119.204701 413.636364,128.432432 C413.636364,137.660164 406.144233,145.135135 396.909091,145.135135 C387.673949,145.135135 380.181818,137.660164 380.181818,128.432432 C380.181818,119.204701 387.673949,111.72973 396.909091,111.72973 Z M396.909091,117.72973 C390.984582,117.72973 386.181818,122.521493 386.181818,128.432432 C386.181818,134.343372 390.984582,139.135135 396.909091,139.135135 C402.8336,139.135135 407.636364,134.343372 407.636364,128.432432 C407.636364,122.521493 402.8336,117.72973 396.909091,117.72973 Z" id="Oval" fill="#D51818" fill-rule="nonzero"></path>
                <g id="Group-6" transform="translate(107.2727, 96.3243)">
                    <g id="Group">
                        <g id="Oval">
                            <use fill="black" fill-opacity="1" filter="url(#filter-7)" xlink:href="#path-6"></use>
                            <use fill="url(#linearGradient-5)" fill-rule="evenodd" xlink:href="#path-6"></use>
                        </g>
                        <path d="M128.727273,0 C199.821382,0 257.454545,57.5011586 257.454545,128.432432 C257.454545,199.363706 199.821382,256.864865 128.727273,256.864865 C57.6331631,256.864865 0,199.363706 0,128.432432 C0,57.5011586 57.6331631,0 128.727273,0 Z M128.727273,4 C59.8402515,4 4,59.7123535 4,128.432432 C4,197.152511 59.8402515,252.864865 128.727273,252.864865 C197.614294,252.864865 253.454545,197.152511 253.454545,128.432432 C253.454545,59.7123535 197.614294,4 128.727273,4 Z" id="Oval" fill="url(#linearGradient-8)" fill-rule="nonzero"></path>
                    </g>
                    <ellipse id="Oval" fill="url(#radialGradient-9)" cx="128.727273" cy="128.432432" rx="85.8181818" ry="85.6216216"></ellipse>
                    <path d="M128.727273,38.8108108 C178.330434,38.8108108 218.545455,78.9337217 218.545455,128.432432 C218.545455,177.931143 178.330434,218.054054 128.727273,218.054054 C79.1241113,218.054054 38.9090909,177.931143 38.9090909,128.432432 C38.9090909,78.9337217 79.1241113,38.8108108 128.727273,38.8108108 Z M128.727273,42.8108108 C81.3311997,42.8108108 42.9090909,81.1449166 42.9090909,128.432432 C42.9090909,175.719948 81.3311997,214.054054 128.727273,214.054054 C176.123346,214.054054 214.545455,175.719948 214.545455,128.432432 C214.545455,81.1449166 176.123346,42.8108108 128.727273,42.8108108 Z" id="Oval" fill="#000000" fill-rule="nonzero"></path>
                    <path d="M128.727273,42.8108108 C176.123346,42.8108108 214.545455,81.1449166 214.545455,128.432432 C214.545455,175.719948 176.123346,214.054054 128.727273,214.054054 C81.3311997,214.054054 42.9090909,175.719948 42.9090909,128.432432 C42.9090909,81.1449166 81.3311997,42.8108108 128.727273,42.8108108 Z M128.727273,46.8108108 C83.538288,46.8108108 46.9090909,83.3561114 46.9090909,128.432432 C46.9090909,173.508753 83.538288,210.054054 128.727273,210.054054 C173.916257,210.054054 210.545455,173.508753 210.545455,128.432432 C210.545455,83.3561114 173.916257,46.8108108 128.727273,46.8108108 Z" id="Oval" fill-opacity="0.05" fill="#FFFFFF" fill-rule="nonzero"></path>
                    <ellipse id="Oval" fill="url(#radialGradient-10)" cx="128.727273" cy="128.432432" rx="53.6363636" ry="53.5135135"></ellipse>
                    <path d="M128.727273,70.9189189 C160.556907,70.9189189 186.363636,96.6665401 186.363636,128.432432 C186.363636,160.198325 160.556907,185.945946 128.727273,185.945946 C96.8976387,185.945946 71.0909091,160.198325 71.0909091,128.432432 C71.0909091,96.6665401 96.8976387,70.9189189 128.727273,70.9189189 Z M128.727273,74.9189189 C99.1047271,74.9189189 75.0909091,98.877735 75.0909091,128.432432 C75.0909091,157.98713 99.1047271,181.945946 128.727273,181.945946 C158.349818,181.945946 182.363636,157.98713 182.363636,128.432432 C182.363636,98.877735 158.349818,74.9189189 128.727273,74.9189189 Z" id="Oval" fill="#080808" fill-rule="nonzero"></path>
                    <ellipse id="Oval" fill="url(#linearGradient-11)" cx="128.727273" cy="128.432432" rx="37.5454545" ry="37.4594595"></ellipse>
                    <ellipse id="Oval" fill="#38000E" cx="128.727273" cy="128.432432" rx="26.8181818" ry="26.7567568"></ellipse>
                    <ellipse id="Oval" fill="url(#linearGradient-12)" opacity="0.5" cx="123.363636" cy="96.3243243" rx="48.2727273" ry="42.8108108"></ellipse>
                </g>
            </g>
        </g>
        <g id="Guide-512" transform="translate(15, 15)"></g>
    </g>
</svg>