<?xml version="1.0" encoding="UTF-8"?>
<svg width="512px" height="512px" viewBox="0 0 512 512" version="1.1" xmlns="http://www.w3.org/2000/svg" xmlns:xlink="http://www.w3.org/1999/xlink">
    <title>apps/512/fcitx/fcitx</title>
    <defs>
        <filter x="-7.9%" y="-6.0%" width="115.8%" height="115.8%" filterUnits="objectBoundingBox" id="filter-1">
            <feOffset dx="0" dy="8" in="SourceAlpha" result="shadowOffsetOuter1"></feOffset>
            <feGaussianBlur stdDeviation="10" in="shadowOffsetOuter1" result="shadowBlurOuter1"></feGaussianBlur>
            <feColorMatrix values="0 0 0 0 0   0 0 0 0 0   0 0 0 0 0  0 0 0 0.2 0" type="matrix" in="shadowBlurOuter1" result="shadowMatrixOuter1"></feColorMatrix>
            <feMerge>
                <feMergeNode in="shadowMatrixOuter1"></feMergeNode>
                <feMergeNode in="SourceGraphic"></feMergeNode>
            </feMerge>
        </filter>
        <linearGradient x1="50%" y1="0%" x2="50%" y2="100%" id="linearGradient-2">
            <stop stop-color="#DDDDDD" offset="0%"></stop>
            <stop stop-color="#9E9E9E" offset="100%"></stop>
        </linearGradient>
        <path d="M50,0 L380,0 C407.614237,-5.07265313e-15 430,22.3857625 430,50 L430,184 C430,211.614237 407.614237,234 380,234 L50,234 C22.3857625,234 3.38176876e-15,211.614237 0,184 L0,50 C-3.38176876e-15,22.3857625 22.3857625,5.07265313e-15 50,0 Z" id="path-3"></path>
        <filter x="-0.7%" y="-1.3%" width="101.4%" height="102.6%" filterUnits="objectBoundingBox" id="filter-4">
            <feOffset dx="0" dy="-6" in="SourceAlpha" result="shadowOffsetInner1"></feOffset>
            <feComposite in="shadowOffsetInner1" in2="SourceAlpha" operator="arithmetic" k2="-1" k3="1" result="shadowInnerInner1"></feComposite>
            <feColorMatrix values="0 0 0 0 0   0 0 0 0 0   0 0 0 0 0  0 0 0 0.25 0" type="matrix" in="shadowInnerInner1"></feColorMatrix>
        </filter>
        <linearGradient x1="50%" y1="0%" x2="50%" y2="100%" id="linearGradient-5">
            <stop stop-color="#E9E9E9" offset="0%"></stop>
            <stop stop-color="#E3E3E3" offset="100%"></stop>
        </linearGradient>
        <path d="M150,155 L328,155 C337.941125,155 346,163.058875 346,173 C346,182.941125 337.941125,191 328,191 L150,191 C140.058875,191 132,182.941125 132,173 C132,163.058875 140.058875,155 150,155 Z M54,99 L102,99 C111.941125,99 120,107.058875 120,117 C120,126.941125 111.941125,135 102,135 L54,135 C44.0588745,135 36,126.941125 36,117 C36,107.058875 44.0588745,99 54,99 Z M342,99 L376,99 C385.941125,99 394,107.058875 394,117 C394,126.941125 385.941125,135 376,135 L342,135 C332.058875,135 324,126.941125 324,117 C324,107.058875 332.058875,99 342,99 Z M376,191 C385.941125,191 394,182.941125 394,173 C394,163.058875 385.941125,155 376,155 C366.058875,155 358,163.058875 358,173 C358,182.941125 366.058875,191 376,191 Z M54,191 C63.9411255,191 72,182.941125 72,173 C72,163.058875 63.9411255,155 54,155 C44.0588745,155 36,163.058875 36,173 C36,182.941125 44.0588745,191 54,191 Z M102,191 C111.941125,191 120,182.941125 120,173 C120,163.058875 111.941125,155 102,155 C92.0588745,155 84,163.058875 84,173 C84,182.941125 92.0588745,191 102,191 Z M150,135 C159.941125,135 168,126.941125 168,117 C168,107.058875 159.941125,99 150,99 C140.058875,99 132,107.058875 132,117 C132,126.941125 140.058875,135 150,135 Z M198,135 C207.941125,135 216,126.941125 216,117 C216,107.058875 207.941125,99 198,99 C188.058875,99 180,107.058875 180,117 C180,126.941125 188.058875,135 198,135 Z M54,79 C63.9411255,79 72,70.9411255 72,61 C72,51.0588745 63.9411255,43 54,43 C44.0588745,43 36,51.0588745 36,61 C36,70.9411255 44.0588745,79 54,79 Z M280,79 C289.941125,79 298,70.9411255 298,61 C298,51.0588745 289.941125,43 280,43 C270.058875,43 262,51.0588745 262,61 C262,70.9411255 270.058875,79 280,79 Z M294,135 C303.941125,135 312,126.941125 312,117 C312,107.058875 303.941125,99 294,99 C284.058875,99 276,107.058875 276,117 C276,126.941125 284.058875,135 294,135 Z M246,135 C255.941125,135 264,126.941125 264,117 C264,107.058875 255.941125,99 246,99 C236.058875,99 228,107.058875 228,117 C228,126.941125 236.058875,135 246,135 Z M102,79 C111.941125,79 120,70.9411255 120,61 C120,51.0588745 111.941125,43 102,43 C92.0588745,43 84,51.0588745 84,61 C84,70.9411255 92.0588745,79 102,79 Z M150,79 C159.941125,79 168,70.9411255 168,61 C168,51.0588745 159.941125,43 150,43 C140.058875,43 132,51.0588745 132,61 C132,70.9411255 140.058875,79 150,79 Z M328,79 C337.941125,79 346,70.9411255 346,61 C346,51.0588745 337.941125,43 328,43 C318.058875,43 310,51.0588745 310,61 C310,70.9411255 318.058875,79 328,79 Z M376,79 C385.941125,79 394,70.9411255 394,61 C394,51.0588745 385.941125,43 376,43 C366.058875,43 358,51.0588745 358,61 C358,70.9411255 366.058875,79 376,79 Z M232,79 C241.941125,79 250,70.9411255 250,61 C250,51.0588745 241.941125,43 232,43 C222.058875,43 214,51.0588745 214,61 C214,70.9411255 222.058875,79 232,79 Z" id="path-6"></path>
        <filter x="-0.6%" y="-1.4%" width="101.1%" height="105.4%" filterUnits="objectBoundingBox" id="filter-7">
            <feOffset dx="0" dy="4" in="SourceAlpha" result="shadowOffsetOuter1"></feOffset>
            <feColorMatrix values="0 0 0 0 0   0 0 0 0 0   0 0 0 0 0  0 0 0 0.08 0" type="matrix" in="shadowOffsetOuter1"></feColorMatrix>
        </filter>
        <filter x="-0.4%" y="-1.0%" width="100.8%" height="104.7%" filterUnits="objectBoundingBox" id="filter-8">
            <feOffset dx="0" dy="3" in="SourceAlpha" result="shadowOffsetInner1"></feOffset>
            <feComposite in="shadowOffsetInner1" in2="SourceAlpha" operator="arithmetic" k2="-1" k3="1" result="shadowInnerInner1"></feComposite>
            <feColorMatrix values="0 0 0 0 1   0 0 0 0 1   0 0 0 0 1  0 0 0 0.3 0" type="matrix" in="shadowInnerInner1"></feColorMatrix>
        </filter>
        <linearGradient x1="50%" y1="0%" x2="50%" y2="100%" id="linearGradient-9">
            <stop stop-color="#03E297" offset="0%"></stop>
            <stop stop-color="#00A8D3" offset="98.5747466%"></stop>
        </linearGradient>
        <path d="M107,0 L287,0 C303.568542,-3.04359188e-15 317,13.4314575 317,30 L317,215.390675 C317,220.079336 314.807612,224.498288 311.074188,227.334674 L206.074188,307.106088 C200.710862,311.180755 193.289138,311.180755 187.925812,307.106088 L82.9258123,227.334674 C79.192388,224.498288 77,220.079336 77,215.390675 L77,30 C77,13.4314575 90.4314575,-5.09121799e-16 107,-3.55271368e-15 Z" id="path-10"></path>
        <filter x="-4.8%" y="-2.1%" width="109.6%" height="107.1%" filterUnits="objectBoundingBox" id="filter-11">
            <feOffset dx="0" dy="8" in="SourceAlpha" result="shadowOffsetOuter1"></feOffset>
            <feGaussianBlur stdDeviation="2.5" in="shadowOffsetOuter1" result="shadowBlurOuter1"></feGaussianBlur>
            <feColorMatrix values="0 0 0 0 0   0 0 0 0 0   0 0 0 0 0  0 0 0 0.1 0" type="matrix" in="shadowBlurOuter1"></feColorMatrix>
        </filter>
        <filter x="-3.8%" y="-1.3%" width="107.5%" height="105.5%" filterUnits="objectBoundingBox" id="filter-12">
            <feOffset dx="0" dy="-8" in="SourceAlpha" result="shadowOffsetInner1"></feOffset>
            <feComposite in="shadowOffsetInner1" in2="SourceAlpha" operator="arithmetic" k2="-1" k3="1" result="shadowInnerInner1"></feComposite>
            <feColorMatrix values="0 0 0 0 0   0 0 0 0 0   0 0 0 0 0  0 0 0 0.08 0" type="matrix" in="shadowInnerInner1" result="shadowMatrixInner1"></feColorMatrix>
            <feOffset dx="0" dy="6" in="SourceAlpha" result="shadowOffsetInner2"></feOffset>
            <feComposite in="shadowOffsetInner2" in2="SourceAlpha" operator="arithmetic" k2="-1" k3="1" result="shadowInnerInner2"></feComposite>
            <feColorMatrix values="0 0 0 0 1   0 0 0 0 1   0 0 0 0 1  0 0 0 0.25 0" type="matrix" in="shadowInnerInner2" result="shadowMatrixInner2"></feColorMatrix>
            <feMerge>
                <feMergeNode in="shadowMatrixInner1"></feMergeNode>
                <feMergeNode in="shadowMatrixInner2"></feMergeNode>
            </feMerge>
        </filter>
        <path d="M95,105.98 L95,55.98 L149,55.98 L149,105.98 L95,105.98 Z M20,105.98 L20,55.98 L74,55.98 L74,105.98 L20,105.98 Z M95,36.98 L95,0 L74,0 L74,36.98 L0,36.98 L0,137.97 L20,137.97 L20,125.98 L74,125.98 L74,191.98 L95,191.98 L95,125.98 L149,125.98 L149,137.97 L170,137.97 L170,36.98 L95,36.98 Z" id="path-13"></path>
        <filter x="-5.6%" y="-2.9%" width="111.2%" height="109.9%" filterUnits="objectBoundingBox" id="filter-14">
            <feOffset dx="0" dy="4" in="SourceAlpha" result="shadowOffsetOuter1"></feOffset>
            <feGaussianBlur stdDeviation="2.5" in="shadowOffsetOuter1" result="shadowBlurOuter1"></feGaussianBlur>
            <feColorMatrix values="0 0 0 0 0   0 0 0 0 0   0 0 0 0 0  0 0 0 0.16 0" type="matrix" in="shadowBlurOuter1"></feColorMatrix>
        </filter>
    </defs>
    <g id="apps/512/fcitx/fcitx" stroke="none" stroke-width="1" fill="none" fill-rule="evenodd">
        <g id="编组-2" filter="url(#filter-1)" transform="translate(41, 41)">
            <g id="编组" transform="translate(0, 196)">
                <g id="矩形">
                    <use fill="url(#linearGradient-2)" fill-rule="evenodd" xlink:href="#path-3"></use>
                    <use fill="black" fill-opacity="1" filter="url(#filter-4)" xlink:href="#path-3"></use>
                </g>
                <g id="形状结合">
                    <use fill="black" fill-opacity="1" filter="url(#filter-7)" xlink:href="#path-6"></use>
                    <use fill="url(#linearGradient-5)" fill-rule="evenodd" xlink:href="#path-6"></use>
                    <use fill="black" fill-opacity="1" filter="url(#filter-8)" xlink:href="#path-6"></use>
                </g>
            </g>
            <g id="路径-4">
                <use fill="black" fill-opacity="1" filter="url(#filter-11)" xlink:href="#path-10"></use>
                <use fill="url(#linearGradient-9)" fill-rule="evenodd" xlink:href="#path-10"></use>
                <use fill="black" fill-opacity="1" filter="url(#filter-12)" xlink:href="#path-10"></use>
            </g>
            <g id="中" transform="translate(114, 44.02)" fill-rule="nonzero">
                <g id="形状">
                    <use fill="black" fill-opacity="1" filter="url(#filter-14)" xlink:href="#path-13"></use>
                    <use fill="#FFFFFF" xlink:href="#path-13"></use>
                </g>
            </g>
        </g>
        <g id="Guide-512" transform="translate(15, 15)"></g>
    </g>
</svg>