<svg xmlns="http://www.w3.org/2000/svg" xmlns:xlink="http://www.w3.org/1999/xlink" width="512" height="512" viewBox="0 0 512 512">
  <defs>
    <filter id="fcitx-setting-a" width="126.9%" height="126.9%" x="-11.9%" y="-11.9%" filterUnits="objectBoundingBox">
      <feOffset dy="8" in="SourceAlpha" result="shadowOffsetOuter1"/>
      <feGaussianBlur in="shadowOffsetOuter1" result="shadowBlurOuter1" stdDeviation="10"/>
      <feComposite in="shadowBlurOuter1" in2="SourceAlpha" operator="out" result="shadowBlurOuter1"/>
      <feColorMatrix in="shadowBlurOuter1" result="shadowMatrixOuter1" values="0 0 0 0 0   0 0 0 0 0   0 0 0 0 0  0 0 0 0.2 0"/>
      <feMerge>
        <feMergeNode in="shadowMatrixOuter1"/>
        <feMergeNode in="SourceGraphic"/>
      </feMerge>
    </filter>
    <linearGradient id="fcitx-setting-b" x1="50%" x2="50%" y1="0%" y2="100%">
      <stop offset="0%" stop-color="#DDD"/>
      <stop offset="100%" stop-color="#9E9E9E"/>
    </linearGradient>
    <path id="fcitx-setting-c" d="M50,0 L380,0 C407.614237,-5.07265313e-15 430,22.3857625 430,50 L430,184 C430,211.614237 407.614237,234 380,234 L50,234 C22.3857625,234 3.38176876e-15,211.614237 0,184 L0,50 C-3.38176876e-15,22.3857625 22.3857625,5.07265313e-15 50,0 Z"/>
    <filter id="fcitx-setting-d" width="101.4%" height="102.6%" x="-.7%" y="-1.3%" filterUnits="objectBoundingBox">
      <feOffset dy="-6" in="SourceAlpha" result="shadowOffsetInner1"/>
      <feComposite in="shadowOffsetInner1" in2="SourceAlpha" k2="-1" k3="1" operator="arithmetic" result="shadowInnerInner1"/>
      <feColorMatrix in="shadowInnerInner1" values="0 0 0 0 0   0 0 0 0 0   0 0 0 0 0  0 0 0 0.25 0"/>
    </filter>
    <linearGradient id="fcitx-setting-g" x1="50%" x2="50%" y1="0%" y2="100%">
      <stop offset="0%" stop-color="#E9E9E9"/>
      <stop offset="100%" stop-color="#E3E3E3"/>
    </linearGradient>
    <path id="fcitx-setting-f" d="M328,155 C337.941125,155 346,163.058875 346,173 C346,182.941125 337.941125,191 328,191 L150,191 C140.058875,191 132,182.941125 132,173 C132,163.058875 140.058875,155 150,155 L328,155 Z M376,155 C385.941125,155 394,163.058875 394,173 C394,182.941125 385.941125,191 376,191 C366.058875,191 358,182.941125 358,173 C358,163.058875 366.058875,155 376,155 Z M54,155 C63.9411255,155 72,163.058875 72,173 C72,182.941125 63.9411255,191 54,191 C44.0588745,191 36,182.941125 36,173 C36,163.058875 44.0588745,155 54,155 Z M102,155 C111.941125,155 120,163.058875 120,173 C120,182.941125 111.941125,191 102,191 C92.0588745,191 84,182.941125 84,173 C84,163.058875 92.0588745,155 102,155 Z M102,99 C111.941125,99 120,107.058875 120,117 C120,126.941125 111.941125,135 102,135 L54,135 C44.0588745,135 36,126.941125 36,117 C36,107.058875 44.0588745,99 54,99 L102,99 Z M376,99 C385.941125,99 394,107.058875 394,117 C394,126.941125 385.941125,135 376,135 L342,135 C332.058875,135 324,126.941125 324,117 C324,107.058875 332.058875,99 342,99 L376,99 Z M150,99 C159.941125,99 168,107.058875 168,117 C168,126.941125 159.941125,135 150,135 C140.058875,135 132,126.941125 132,117 C132,107.058875 140.058875,99 150,99 Z M198,99 C207.941125,99 216,107.058875 216,117 C216,126.941125 207.941125,135 198,135 C188.058875,135 180,126.941125 180,117 C180,107.058875 188.058875,99 198,99 Z M294,99 C303.941125,99 312,107.058875 312,117 C312,126.941125 303.941125,135 294,135 C284.058875,135 276,126.941125 276,117 C276,107.058875 284.058875,99 294,99 Z M246,99 C255.941125,99 264,107.058875 264,117 C264,126.941125 255.941125,135 246,135 C236.058875,135 228,126.941125 228,117 C228,107.058875 236.058875,99 246,99 Z M54,43 C63.9411255,43 72,51.0588745 72,61 C72,70.9411255 63.9411255,79 54,79 C44.0588745,79 36,70.9411255 36,61 C36,51.0588745 44.0588745,43 54,43 Z M280,43 C289.941125,43 298,51.0588745 298,61 C298,70.9411255 289.941125,79 280,79 C270.058875,79 262,70.9411255 262,61 C262,51.0588745 270.058875,43 280,43 Z M102,43 C111.941125,43 120,51.0588745 120,61 C120,70.9411255 111.941125,79 102,79 C92.0588745,79 84,70.9411255 84,61 C84,51.0588745 92.0588745,43 102,43 Z M150,43 C159.941125,43 168,51.0588745 168,61 C168,70.9411255 159.941125,79 150,79 C140.058875,79 132,70.9411255 132,61 C132,51.0588745 140.058875,43 150,43 Z M328,43 C337.941125,43 346,51.0588745 346,61 C346,70.9411255 337.941125,79 328,79 C318.058875,79 310,70.9411255 310,61 C310,51.0588745 318.058875,43 328,43 Z M376,43 C385.941125,43 394,51.0588745 394,61 C394,70.9411255 385.941125,79 376,79 C366.058875,79 358,70.9411255 358,61 C358,51.0588745 366.058875,43 376,43 Z M232,43 C241.941125,43 250,51.0588745 250,61 C250,70.9411255 241.941125,79 232,79 C222.058875,79 214,70.9411255 214,61 C214,51.0588745 222.058875,43 232,43 Z"/>
    <filter id="fcitx-setting-e" width="101.1%" height="105.4%" x="-.6%" y="-1.4%" filterUnits="objectBoundingBox">
      <feOffset dy="4" in="SourceAlpha" result="shadowOffsetOuter1"/>
      <feColorMatrix in="shadowOffsetOuter1" values="0 0 0 0 0   0 0 0 0 0   0 0 0 0 0  0 0 0 0.08 0"/>
    </filter>
    <filter id="fcitx-setting-h" width="100.8%" height="104.7%" x="-.4%" y="-1%" filterUnits="objectBoundingBox">
      <feOffset dy="3" in="SourceAlpha" result="shadowOffsetInner1"/>
      <feComposite in="shadowOffsetInner1" in2="SourceAlpha" k2="-1" k3="1" operator="arithmetic" result="shadowInnerInner1"/>
      <feColorMatrix in="shadowInnerInner1" values="0 0 0 0 1   0 0 0 0 1   0 0 0 0 1  0 0 0 0.3 0"/>
    </filter>
    <linearGradient id="fcitx-setting-k" x1="50%" x2="50%" y1="0%" y2="100%">
      <stop offset="0%" stop-color="#03E297"/>
      <stop offset="98.575%" stop-color="#00A8D3"/>
    </linearGradient>
    <path id="fcitx-setting-j" d="M107,0 L288.297375,0 C304.865918,5.09121799e-16 318.297375,13.4314575 318.297375,30 C318.297375,30.0673141 318.297148,30.1346281 318.296695,30.2019407 L317.049672,215.45365 C317.01835,220.106713 314.829362,224.481764 311.124199,227.296679 L206.074188,307.106088 C200.710862,311.180755 193.289138,311.180755 187.925812,307.106088 L82.9258123,227.334674 C79.192388,224.498288 77,220.079336 77,215.390675 L77,30 C77,13.4314575 90.4314575,3.04359188e-15 107,0 Z"/>
    <filter id="fcitx-setting-i" width="109.4%" height="107.1%" x="-4.8%" y="-2.1%" filterUnits="objectBoundingBox">
      <feOffset dy="8" in="SourceAlpha" result="shadowOffsetOuter1"/>
      <feGaussianBlur in="shadowOffsetOuter1" result="shadowBlurOuter1" stdDeviation="2.5"/>
      <feColorMatrix in="shadowBlurOuter1" values="0 0 0 0 0   0 0 0 0 0   0 0 0 0 0  0 0 0 0.1 0"/>
    </filter>
    <filter id="fcitx-setting-l" width="107.4%" height="105.5%" x="-3.7%" y="-1.3%" filterUnits="objectBoundingBox">
      <feOffset dy="-8" in="SourceAlpha" result="shadowOffsetInner1"/>
      <feComposite in="shadowOffsetInner1" in2="SourceAlpha" k2="-1" k3="1" operator="arithmetic" result="shadowInnerInner1"/>
      <feColorMatrix in="shadowInnerInner1" result="shadowMatrixInner1" values="0 0 0 0 0   0 0 0 0 0   0 0 0 0 0  0 0 0 0.08 0"/>
      <feOffset dy="6" in="SourceAlpha" result="shadowOffsetInner2"/>
      <feComposite in="shadowOffsetInner2" in2="SourceAlpha" k2="-1" k3="1" operator="arithmetic" result="shadowInnerInner2"/>
      <feColorMatrix in="shadowInnerInner2" result="shadowMatrixInner2" values="0 0 0 0 1   0 0 0 0 1   0 0 0 0 1  0 0 0 0.25 0"/>
      <feMerge>
        <feMergeNode in="shadowMatrixInner1"/>
        <feMergeNode in="shadowMatrixInner2"/>
      </feMerge>
    </filter>
    <text id="fcitx-setting-n" fill="#FFF" font-family="SourceHanSansCN-Medium, Source Han Sans CN" font-size="210" font-weight="400">
      <tspan x="94" y="220">中</tspan>
    </text>
    <filter id="fcitx-setting-m" width="109%" height="109%" x="-4.5%" y="-2.6%" filterUnits="objectBoundingBox">
      <feOffset dy="4" in="SourceAlpha" result="shadowOffsetOuter1"/>
      <feGaussianBlur in="shadowOffsetOuter1" result="shadowBlurOuter1" stdDeviation="2.5"/>
      <feColorMatrix in="shadowBlurOuter1" values="0 0 0 0 0   0 0 0 0 0   0 0 0 0 0  0 0 0 0.16 0"/>
    </filter>
    <circle id="fcitx-setting-p" cx="90" cy="90" r="90"/>
    <filter id="fcitx-setting-o" width="125.6%" height="125.6%" x="-13.3%" y="-13.3%" filterUnits="objectBoundingBox">
      <feOffset dx="-1" dy="-1" in="SourceAlpha" result="shadowOffsetOuter1"/>
      <feGaussianBlur in="shadowOffsetOuter1" result="shadowBlurOuter1" stdDeviation="7.5"/>
      <feColorMatrix in="shadowBlurOuter1" values="0 0 0 0 0   0 0 0 0 0   0 0 0 0 0  0 0 0 0.1 0"/>
    </filter>
  </defs>
  <g fill="none" fill-rule="evenodd" filter="url(#fcitx-setting-a)" transform="translate(31 31)">
    <g transform="translate(0 194)">
      <use fill="url(#fcitx-setting-b)" xlink:href="#fcitx-setting-c"/>
      <use fill="#000" filter="url(#fcitx-setting-d)" xlink:href="#fcitx-setting-c"/>
      <use fill="#000" filter="url(#fcitx-setting-e)" xlink:href="#fcitx-setting-f"/>
      <use fill="url(#fcitx-setting-g)" xlink:href="#fcitx-setting-f"/>
      <use fill="#000" filter="url(#fcitx-setting-h)" xlink:href="#fcitx-setting-f"/>
    </g>
    <use fill="#000" filter="url(#fcitx-setting-i)" xlink:href="#fcitx-setting-j"/>
    <use fill="url(#fcitx-setting-k)" xlink:href="#fcitx-setting-j"/>
    <use fill="#000" filter="url(#fcitx-setting-l)" xlink:href="#fcitx-setting-j"/>
    <g fill="#FFF">
      <use filter="url(#fcitx-setting-m)" xlink:href="#fcitx-setting-n"/>
      <use xlink:href="#fcitx-setting-n"/>
    </g>
    <g transform="translate(274 274)">
      <g fill-rule="nonzero">
        <use fill="#000" filter="url(#fcitx-setting-o)" xlink:href="#fcitx-setting-p"/>
        <use fill="#FFF" xlink:href="#fcitx-setting-p"/>
      </g>
      <g transform="translate(16 16)">
        <path fill="#000" fill-rule="nonzero" d="M140.217605,75.0000778 C140.217605,69.5651542 144.203111,64.492974 150,62.3188488 C149.275447,57.6087892 147.826186,52.898574 146.376925,48.5507908 C140.217449,49.2754992 134.420405,47.1015298 131.521882,42.3913146 C128.623205,37.681255 129.710189,31.5217786 133.695696,26.449287 C130.797174,22.8262122 127.536376,19.565258 123.913145,16.3044596 C118.478221,20.2899664 112.318901,21.3769512 107.608841,18.4782732 C102.898626,15.5797512 100.724656,9.7827068 101.449365,3.6232306 C97.1015816,2.1739694 92.3913664,0.7247084 87.6813068,0 C85.5071816,5.7970442 80.4348458,9.7825512 75.0000778,9.7825512 C69.5653098,9.7825512 64.492974,5.7970442 62.3188488,0 C57.6087892,0.7245526 52.898574,2.1738138 48.5507908,3.6230748 C48.7947478,5.6965254 48.7102316,7.728906 48.3110678,9.6234744 C47.5244594,13.3569876 45.5159406,16.5553184 42.3913146,18.4781176 C37.681255,21.3767954 31.5217786,20.2898106 26.449287,16.3043038 C22.8262122,19.202826 19.565258,22.4636244 16.3044596,26.086855 C17.1315756,27.2448104 17.8265136,28.459411 18.3763464,29.7004832 C20.2350886,33.8960014 20.4355414,38.3940418 18.4782732,42.0288824 C15.5797512,46.7390978 9.7827068,48.9129114 3.6232306,48.1883588 C2.1739694,52.536142 0.7245526,57.2463572 0,61.9564168 C5.7968886,64.492974 9.7825512,69.5653098 9.7825512,75.0000778 C9.7825512,75.85456 9.6840304,76.7000828 9.4954384,77.5267912 C8.4845266,81.9582002 4.8856032,85.8490088 0,87.6813068 C0.7245526,92.3913664 2.1738138,97.1015816 3.6230748,101.449365 C9.7825512,100.724656 15.9420274,102.53635 18.4781176,107.608841 C21.3767954,112.318901 20.2898106,118.478377 16.3043038,123.550869 C19.202826,127.173944 22.4636244,130.434898 26.086855,133.695696 C31.1593466,129.710189 37.318823,128.985637 42.0288824,131.521882 C46.7390978,134.420405 48.9129114,140.217449 48.1883588,146.376925 C52.536142,147.826186 57.2463572,149.275447 61.9564168,150 C64.4926626,144.202956 69.2028778,140.217449 74.6376458,140.217449 C80.0724138,140.217449 85.1447496,144.202956 87.3187192,150 C92.0289344,149.275447 96.3767176,147.826186 101.086933,146.376925 C100.362224,140.217449 102.536194,134.420405 107.246253,131.521882 C111.956469,128.623205 118.115789,129.710189 123.188281,133.695696 C126.811511,130.797174 130.07231,127.95773 133.333264,124.3345 C129.347757,119.262008 128.623049,112.681177 131.159295,107.971118 C134.057817,103.260902 139.855017,101.087089 146.014337,101.811641 C147.463754,97.463858 148.913015,92.7536428 149.637568,88.0435832 C144.203111,85.145061 140.217605,80.4348458 140.217605,75.0000778 Z M24,76.5363848 C24,51.2680918 42.2000334,30.2112816 66,26 C66,45.851942 66,60.7408984 66,70.6668694 C66,70.8273764 66,71.068137 66,71.3891512 L26.8000668,94 C26.724691,93.7732678 26.6508372,93.5462918 26.5785054,93.3190608 C26.5569022,93.251194 26.5354346,93.1833044 26.514103,93.1153918 C26.4893724,93.0366584 26.389583,92.7138894 26.3644458,92.6312326 C24.7880448,87.4476572 24,82.1262294 24,76.5363848 Z M75,128 C59.6785002,128 45.7499002,120.758442 36,109.172364 L75,86 L114,109.172571 C104.250299,120.758442 90.3214998,128 75,128 Z M86,71.554035 C86,71.2546734 86,71.0395288 86,70.908601 C86,70.5743302 86,70.2943872 86,70.068772 C86,60.318163 86,45.6285724 86,26 C109.799679,30.2205924 128,51.3239572 128,76.648116 C128,82.1759606 127.232618,87.3181428 125.698004,92.4244946 C125.616429,92.6959288 125.532687,92.9672616 125.446777,93.2385458 C125.36639,93.4923922 125.284104,93.7461958 125.19992,94 L86,71.554035 Z"/>
        <path fill="#3F3E3E" d="M140.217605,75.0000778 C140.217605,69.5651542 144.203111,64.492974 150,62.3188488 C149.275447,57.6087892 147.826186,52.898574 146.376925,48.5507908 C140.217449,49.2754992 134.420405,47.1015298 131.521882,42.3913146 C128.623205,37.681255 129.710189,31.5217786 133.695696,26.449287 C130.797174,22.8262122 127.536376,19.565258 123.913145,16.3044596 C118.478221,20.2899664 112.318901,21.3769512 107.608841,18.4782732 C102.898626,15.5797512 100.724656,9.7827068 101.449365,3.6232306 C97.1015816,2.1739694 92.3913664,0.7247084 87.6813068,0 C85.5071816,5.7970442 80.4348458,9.7825512 75.0000778,9.7825512 C69.5653098,9.7825512 64.492974,5.7970442 62.3188488,0 C57.6087892,0.7245526 52.898574,2.1738138 48.5507908,3.6230748 C48.7947478,5.6965254 48.7102316,7.728906 48.3110678,9.6234744 C47.5244594,13.3569876 45.5159406,16.5553184 42.3913146,18.4781176 C37.681255,21.3767954 31.5217786,20.2898106 26.449287,16.3043038 C22.8262122,19.202826 19.565258,22.4636244 16.3044596,26.086855 C17.1315756,27.2448104 17.8265136,28.459411 18.3763464,29.7004832 C20.2350886,33.8960014 20.4355414,38.3940418 18.4782732,42.0288824 C15.5797512,46.7390978 9.7827068,48.9129114 3.6232306,48.1883588 C2.1739694,52.536142 0.7245526,57.2463572 0,61.9564168 C5.7968886,64.492974 9.7825512,69.5653098 9.7825512,75.0000778 C9.7825512,75.85456 9.6840304,76.7000828 9.4954384,77.5267912 C8.4845266,81.9582002 4.8856032,85.8490088 0,87.6813068 C0.7245526,92.3913664 2.1738138,97.1015816 3.6230748,101.449365 C9.7825512,100.724656 15.9420274,102.53635 18.4781176,107.608841 C21.3767954,112.318901 20.2898106,118.478377 16.3043038,123.550869 C19.202826,127.173944 22.4636244,130.434898 26.086855,133.695696 C31.1593466,129.710189 37.318823,128.985637 42.0288824,131.521882 C46.7390978,134.420405 48.9129114,140.217449 48.1883588,146.376925 C52.536142,147.826186 57.2463572,149.275447 61.9564168,150 C64.4926626,144.202956 69.2028778,140.217449 74.6376458,140.217449 C80.0724138,140.217449 85.1447496,144.202956 87.3187192,150 C92.0289344,149.275447 96.3767176,147.826186 101.086933,146.376925 C100.362224,140.217449 102.536194,134.420405 107.246253,131.521882 C111.956469,128.623205 118.115789,129.710189 123.188281,133.695696 C126.811511,130.797174 130.07231,127.95773 133.333264,124.3345 C129.347757,119.262008 128.623049,112.681177 131.159295,107.971118 C134.057817,103.260902 139.855017,101.087089 146.014337,101.811641 C147.463754,97.463858 148.913015,92.7536428 149.637568,88.0435832 C144.203111,85.145061 140.217605,80.4348458 140.217605,75.0000778 Z M24,76.5363848 C24,51.2680918 42.2000334,30.2112816 66,26 C66,45.851942 66,60.7408984 66,70.6668694 C66,70.8273764 66,71.068137 66,71.3891512 L26.8000668,94 C26.724691,93.7732678 26.6508372,93.5462918 26.5785054,93.3190608 C26.5569022,93.251194 26.5354346,93.1833044 26.514103,93.1153918 C26.4893724,93.0366584 26.389583,92.7138894 26.3644458,92.6312326 C24.7880448,87.4476572 24,82.1262294 24,76.5363848 Z M75,128 C59.6785002,128 45.7499002,120.758442 36,109.172364 L75,86 L114,109.172571 C104.250299,120.758442 90.3214998,128 75,128 Z M86,71.554035 C86,71.2546734 86,71.0395288 86,70.908601 C86,70.5743302 86,70.2943872 86,70.068772 C86,60.318163 86,45.6285724 86,26 C109.799679,30.2205924 128,51.3239572 128,76.648116 C128,82.1759606 127.232618,87.3181428 125.698004,92.4244946 C125.616429,92.6959288 125.532687,92.9672616 125.446777,93.2385458 C125.36639,93.4923922 125.284104,93.7461958 125.19992,94 L86,71.554035 Z"/>
        <path fill="#2D2D2D" fill-rule="nonzero" d="M140.217605,75.0000778 C140.217605,69.5651542 144.203111,64.492974 150,62.3188488 C149.275447,57.6087892 147.826186,52.898574 146.376925,48.5507908 C140.217449,49.2754992 134.420405,47.1015298 131.521882,42.3913146 C128.623205,37.681255 129.710189,31.5217786 133.695696,26.449287 C130.797174,22.8262122 127.536376,19.565258 123.913145,16.3044596 C118.478221,20.2899664 112.318901,21.3769512 107.608841,18.4782732 C102.898626,15.5797512 100.724656,9.7827068 101.449365,3.6232306 C97.1015816,2.1739694 92.3913664,0.7247084 87.6813068,0 C85.5071816,5.7970442 80.4348458,9.7825512 75.0000778,9.7825512 C69.5653098,9.7825512 64.492974,5.7970442 62.3188488,0 C57.6087892,0.7245526 52.898574,2.1738138 48.5507908,3.6230748 C48.7947478,5.6965254 48.7102316,7.728906 48.3110678,9.6234744 C47.5244594,13.3569876 45.5159406,16.5553184 42.3913146,18.4781176 C37.681255,21.3767954 31.5217786,20.2898106 26.449287,16.3043038 C22.8262122,19.202826 19.565258,22.4636244 16.3044596,26.086855 C17.1315756,27.2448104 17.8265136,28.459411 18.3763464,29.7004832 C20.2350886,33.8960014 20.4355414,38.3940418 18.4782732,42.0288824 C15.5797512,46.7390978 9.7827068,48.9129114 3.6232306,48.1883588 C2.1739694,52.536142 0.7245526,57.2463572 0,61.9564168 C5.7968886,64.492974 9.7825512,69.5653098 9.7825512,75.0000778 C9.7825512,75.85456 9.6840304,76.7000828 9.4954384,77.5267912 C8.4845266,81.9582002 4.8856032,85.8490088 0,87.6813068 C0.7245526,92.3913664 2.1738138,97.1015816 3.6230748,101.449365 C9.7825512,100.724656 15.9420274,102.53635 18.4781176,107.608841 C21.3767954,112.318901 20.2898106,118.478377 16.3043038,123.550869 C19.202826,127.173944 22.4636244,130.434898 26.086855,133.695696 C31.1593466,129.710189 37.318823,128.985637 42.0288824,131.521882 C46.7390978,134.420405 48.9129114,140.217449 48.1883588,146.376925 C52.536142,147.826186 57.2463572,149.275447 61.9564168,150 C64.4926626,144.202956 69.2028778,140.217449 74.6376458,140.217449 C80.0724138,140.217449 85.1447496,144.202956 87.3187192,150 C92.0289344,149.275447 96.3767176,147.826186 101.086933,146.376925 C100.362224,140.217449 102.536194,134.420405 107.246253,131.521882 C111.956469,128.623205 118.115789,129.710189 123.188281,133.695696 C126.811511,130.797174 130.07231,127.95773 133.333264,124.3345 C129.347757,119.262008 128.623049,112.681177 131.159295,107.971118 C134.057817,103.260902 139.855017,101.087089 146.014337,101.811641 C147.463754,97.463858 148.913015,92.7536428 149.637568,88.0435832 C144.203111,85.145061 140.217605,80.4348458 140.217605,75.0000778 Z M24,76.5363848 C24,51.2680918 42.2000334,30.2112816 66,26 C66,45.851942 66,60.7408984 66,70.6668694 C66,70.8273764 66,71.068137 66,71.3891512 L26.8000668,94 C26.724691,93.7732678 26.6508372,93.5462918 26.5785054,93.3190608 C26.5569022,93.251194 26.5354346,93.1833044 26.514103,93.1153918 C26.4893724,93.0366584 26.389583,92.7138894 26.3644458,92.6312326 C24.7880448,87.4476572 24,82.1262294 24,76.5363848 Z M75,128 C59.6785002,128 45.7499002,120.758442 36,109.172364 L75,86 L114,109.172571 C104.250299,120.758442 90.3214998,128 75,128 Z M86,71.554035 C86,71.2546734 86,71.0395288 86,70.908601 C86,70.5743302 86,70.2943872 86,70.068772 C86,60.318163 86,45.6285724 86,26 C109.799679,30.2205924 128,51.3239572 128,76.648116 C128,82.1759606 127.232618,87.3181428 125.698004,92.4244946 C125.616429,92.6959288 125.532687,92.9672616 125.446777,93.2385458 C125.36639,93.4923922 125.284104,93.7461958 125.19992,94 L86,71.554035 Z"/>
      </g>
    </g>
  </g>
</svg>
