<svg xmlns="http://www.w3.org/2000/svg" xmlns:xlink="http://www.w3.org/1999/xlink" width="512" height="512" viewBox="0 0 512 512">
  <defs>
    <filter id="gnome-mime-application-x-deb-a" width="124.5%" height="124.5%" x="-12.3%" y="-12.3%" filterUnits="objectBoundingBox">
      <feOffset dy="8" in="SourceAlpha" result="shadowOffsetOuter1"/>
      <feGaussianBlur in="shadowOffsetOuter1" result="shadowBlurOuter1" stdDeviation="10"/>
      <feColorMatrix in="shadowBlurOuter1" result="shadowMatrixOuter1" values="0 0 0 0 0   0 0 0 0 0   0 0 0 0 0  0 0 0 0.2 0"/>
      <feMerge>
        <feMergeNode in="shadowMatrixOuter1"/>
        <feMergeNode in="SourceGraphic"/>
      </feMerge>
    </filter>
    <linearGradient id="gnome-mime-application-x-deb-b" x1="50%" x2="50%" y1="0%" y2="100%">
      <stop offset="0%" stop-color="#D3B88D"/>
      <stop offset="12.908%" stop-color="#B2956B"/>
      <stop offset="13.678%" stop-color="#D5BB91"/>
      <stop offset="100%" stop-color="#C09B68"/>
    </linearGradient>
    <path id="gnome-mime-application-x-deb-c" d="M1.78004369,54.5364317 L13.234417,29.2342342 C21.2920271,11.4353345 39.0213718,-3.51639039e-15 58.5591791,0 L381.440821,0 C400.978628,-6.04324558e-14 418.707973,11.4353345 426.765583,29.2342342 L438.219956,54.5364317 C439.393148,57.1279587 440,59.9399427 440,62.7846553 L440,400 C440,422.09139 422.09139,440 400,440 L40,440 C17.90861,440 3.21370588e-14,422.09139 0,400 L0,62.7846553 C-6.30339169e-14,59.9399427 0.606852403,57.1279587 1.78004369,54.5364317 Z"/>
    <linearGradient id="gnome-mime-application-x-deb-f" x1="50%" x2="50%" y1="0%" y2="100%">
      <stop offset="0%" stop-color="#EAE2CD" stop-opacity=".74"/>
      <stop offset="42.753%" stop-color="#D9C392"/>
      <stop offset="45.46%" stop-color="#F8E6BB" stop-opacity=".925"/>
      <stop offset="48.719%" stop-color="#EAD8A7" stop-opacity=".829"/>
      <stop offset="100%" stop-color="#FCDCA0" stop-opacity=".596"/>
    </linearGradient>
    <path id="gnome-mime-application-x-deb-e" d="M276.562,0 L282,58 L282,131.170402 C282,131.472548 281.863389,131.758494 281.628337,131.948344 C281.198692,132.295365 280.56908,132.228385 280.222059,131.798739 L280.222059,131.798739 L265.667647,113.778992 C265.401022,113.448884 265.10013,113.147992 264.770023,112.881367 C262.192152,110.799241 258.414479,111.201121 256.332353,113.778992 L256.332353,113.778992 L241.594194,132.026236 C241.495353,132.148611 241.382418,132.258898 241.257733,132.354809 C240.382225,133.028277 239.126532,132.864491 238.453064,131.988983 L238.453064,131.988983 L224.640808,114.033051 C224.353074,113.658996 224.022213,113.320193 223.655087,113.023668 C221.077217,110.941542 217.299543,111.343423 215.217417,113.921293 L215.217417,113.921293 L200.594194,132.026236 C200.495353,132.148611 200.382418,132.258898 200.257733,132.354809 C199.382225,133.028277 198.126532,132.864491 197.453064,131.988983 L197.453064,131.988983 L183.640808,114.033051 C183.353074,113.658996 183.022213,113.320193 182.655087,113.023668 C180.077217,110.941542 176.299543,111.343423 174.217417,113.921293 L174.217417,113.921293 L159.777941,131.798739 C159.588092,132.033791 159.302146,132.170402 159,132.170402 C158.447715,132.170402 158,131.722687 158,131.170402 L158,131.170402 L158,58 L163.438,0 L276.562,0 Z"/>
    <filter id="gnome-mime-application-x-deb-d" width="103.2%" height="106%" x="-1.6%" y="-1.5%" filterUnits="objectBoundingBox">
      <feOffset dy="4" in="SourceAlpha" result="shadowOffsetOuter1"/>
      <feColorMatrix in="shadowOffsetOuter1" values="0 0 0 0 0   0 0 0 0 0   0 0 0 0 0  0 0 0 0.08 0"/>
    </filter>
  </defs>
  <g fill="none" fill-rule="evenodd" filter="url(#gnome-mime-application-x-deb-a)" transform="translate(36 36)">
    <use fill="url(#gnome-mime-application-x-deb-b)" xlink:href="#gnome-mime-application-x-deb-c"/>
    <use fill="#000" filter="url(#gnome-mime-application-x-deb-d)" xlink:href="#gnome-mime-application-x-deb-e"/>
    <use fill="url(#gnome-mime-application-x-deb-f)" xlink:href="#gnome-mime-application-x-deb-e"/>
    <path fill="#714736" fill-rule="nonzero" d="M300.67886,256.281719 L298.484214,260.901738 C301.730892,251.150579 299.860615,240.531159 300.316503,231.349158 L299.413507,231.108122 C298.618646,208.013725 278.521991,183.467402 260.646273,175.159456 C245.228215,168.088555 221.502059,166.871842 210.543439,172.203326 C212.051341,170.87626 218.062519,170.31872 216.250696,169.296563 C199.088025,170.989512 202.924998,175.243667 189.765883,178.580204 C186.15976,182.044507 200.297854,175.804112 192.691105,180.290578 C185.63375,182.227452 182.346153,179.070952 171.887247,189.823949 C172.819464,191.31644 178.526709,185.398463 173.766279,191.339761 C163.935669,190.131759 142.719767,213.684968 138.213578,221.490541 L140.568952,221.89129 C136.702745,231.523396 131.612105,237.665057 130.92536,243.432122 C129.923015,257.617479 124.937566,283.487969 131.857571,291.432931 L131.185444,298.068252 C132.132272,299.952858 132.85408,301.866501 134.03177,303.64076 L132.494635,303.762743 C139.774085,326.589992 140.314718,304.186712 149.932006,327.893822 C148.53514,327.426299 147.126594,326.91522 145.0956,324.191395 C144.850127,326.270564 148.055886,332.510959 151.857796,337.380732 L150.247614,339.207259 C152.366276,343.037451 154.321299,343.876663 155.791212,345.206636 C147.877629,340.914733 163.13204,359.351338 164.508441,361.700562 L165.72412,359.545895 C165.545863,362.644315 167.956749,366.642927 172.474623,372.177686 L176.23855,372.029573 C177.787371,375.081525 183.456627,380.575612 186.896185,380.836979 L184.608027,383.801821 C193.240493,386.516927 188.80152,387.402607 199.409469,391.134065 L197.267428,387.373571 C202.679525,392.040069 204.35108,396.119997 211.98705,399.697552 C222.577469,403.36513 223.980172,401.910292 234.845286,405 C225.634198,404.744464 214.807067,404.837386 207.524699,402.244239 C157.839746,388.874863 112.386294,330.957375 115.706019,271.300477 C114.943563,259.223324 116.915855,244.131957 114.893617,241.126465 C117.731181,231.932846 121.02461,220.729756 127.643618,207.395229 C127.164364,206.500838 128.733633,210.005801 132.097201,204.305522 C134.136969,199.853905 135.805605,194.949283 138.374306,190.619631 L139.698114,190.314733 C141.021915,182.668874 157.641029,170.951799 162.585571,165.054057 L162.924538,167.307452 C173.716586,157.251384 192.948246,150.511529 203.775365,145.708541 C200.931975,148.838904 210.145981,145.400749 216.782531,145 C214.690159,146.161546 212.609485,147.070451 210.648625,148.438172 C218.614807,146.547754 218.234909,149.213493 226.376436,148.144875 C223.51843,148.554319 220.049627,149.683911 220.601975,150.110791 C229.699091,151.156179 231.090115,147.317275 239.509254,150.104979 L238.977425,147.63089 C250.675382,151.824065 253.124275,151.112618 265.836281,157.81473 C270.292789,158.032499 270.742822,155.082199 277.478726,157.808924 C278.665178,159.876468 277.209869,160.262681 285.491677,165.155685 C286.409271,164.789802 283.84057,162.466715 281.80957,160.616952 C298.45208,169.456307 316.538196,188.302356 322.058422,208.469666 C316.885943,199.008886 321.526557,213.295878 319.746873,212.549588 C322.052572,218.720291 323.93746,225.100069 325.106383,231.683116 C323.572173,226.284846 320.243674,213.246511 314.404911,204.839837 C313.92565,210.26425 306.87122,201.090955 310.728653,213.037436 C313.662643,217.271265 311.321885,208.745527 314.945537,216.266527 C315.003985,219.841176 316.374543,223.392601 317.172329,228.047487 C315.933272,227.847124 314.404911,222.898941 313.501926,224.278275 C314.755582,230.135362 316.821651,233.190239 317.604832,233.64032 C317.204474,234.621822 316.158285,232.725604 316.085232,236.709697 C316.570341,245.880092 318.671469,242.012115 319.670902,242.447726 C318.659783,246.963228 314.594865,252.271488 316.605399,260.039313 C316.029715,257.684283 314.898781,255.317635 314.04839,253.08747 C313.259372,259.719885 315.527083,261.012103 312.444051,269.047087 C314.665,261.80486 314.42537,255.265362 312.330079,258.413149 C313.259372,268.710235 304.127186,276.614548 305.12077,283.13081 L302.467311,279.500981 C295.281374,289.85034 302.297828,285.20126 297.411734,293.044589 C299.206017,289.963593 296.47075,291.775596 298.805671,288.285156 C297.253937,288.372272 291.88859,294.839173 286.973276,298.643228 C267.66857,314.019168 244.623309,316.03154 222.308618,307.752637 C221.440692,308.458272 226.288791,312.236197 229.868605,314.062723 C238.366664,317.184386 247.978098,317.309239 255.546858,317.030472 C239.19074,323.828407 207.971819,310.130897 197.758368,291.958546 C200.064067,292.458006 207.980581,304.735527 213.909932,306.724674 C210.406095,303.936964 207.697119,300.38845 205.183935,296.738297 C209.918062,302.14238 215.66915,306.556248 221.952091,309.477529 C221.554664,307.961712 223.687943,307.656808 220.718884,305.664762 C201.802838,291.258711 190.622117,279.018945 194.505847,250.677267 C197.387237,248.510988 198.158726,236.689373 204.77481,232.551371 C208.807587,223.691699 220.897153,215.534779 233.816632,215.325674 C246.999137,214.611326 258.130177,222.326883 263.717612,229.603953 C253.54508,220.169316 236.885047,217.306108 222.673906,224.292799 C208.144233,230.794536 199.52929,246.693174 200.785875,262.522113 C201.323571,261.738068 201.805732,262.225916 202.062921,260.274525 C201.618737,291.043824 235.435587,313.598106 259.778353,302.214971 L260.064727,302.856727 C269.939187,300.176469 268.66506,297.969535 275.120422,293.56728 C274.617784,294.598149 270.772037,297.237494 273.066044,297.287125 C276.204593,296.456624 286.005989,287.39077 290.833627,283.13081 C293.045808,278.388802 289.6501,280.566699 292.738975,274.602171 L296.517506,272.734989 C298.61864,266.706576 300.941887,263.29744 300.67886,256.281719 Z"/>
  </g>
</svg>
