<svg xmlns="http://www.w3.org/2000/svg" xmlns:xlink="http://www.w3.org/1999/xlink" width="512" height="512" viewBox="0 0 512 512">
  <defs>
    <filter id="kmsclient-a" width="126.7%" height="126.7%" x="-11.9%" y="-11.9%" filterUnits="objectBoundingBox">
      <feOffset dy="8" in="SourceAlpha" result="shadowOffsetOuter1"/>
      <feGaussianBlur in="shadowOffsetOuter1" result="shadowBlurOuter1" stdDeviation="10"/>
      <feColorMatrix in="shadowBlurOuter1" result="shadowMatrixOuter1" values="0 0 0 0 0   0 0 0 0 0   0 0 0 0 0  0 0 0 0.2 0"/>
      <feMerge>
        <feMergeNode in="shadowMatrixOuter1"/>
        <feMergeNode in="SourceGraphic"/>
      </feMerge>
    </filter>
    <linearGradient id="kmsclient-b" x1="50%" x2="50%" y1="0%" y2="100%">
      <stop offset="0%" stop-color="#F0FBEE"/>
      <stop offset="100%" stop-color="#B1E2F7"/>
    </linearGradient>
    <linearGradient id="kmsclient-e" x1="80.797%" x2="16.842%" y1="17.938%" y2="83.862%">
      <stop offset="0%" stop-color="#8333FF"/>
      <stop offset="100%" stop-color="#2D2DF0"/>
    </linearGradient>
    <circle id="kmsclient-d" cx="100" cy="100" r="100"/>
    <filter id="kmsclient-c" width="129%" height="129%" x="-14.5%" y="-9.5%" filterUnits="objectBoundingBox">
      <feOffset dy="10" in="SourceAlpha" result="shadowOffsetOuter1"/>
      <feGaussianBlur in="shadowOffsetOuter1" result="shadowBlurOuter1" stdDeviation="8"/>
      <feColorMatrix in="shadowBlurOuter1" values="0 0 0 0 0   0 0 0 0 0.0350400191   0 0 0 0 0.298035553  0 0 0 0.15 0"/>
    </filter>
    <linearGradient id="kmsclient-h" x1="77.514%" x2="18.075%" y1="10.345%" y2="87.056%">
      <stop offset="0%" stop-color="#0AB4FF"/>
      <stop offset="100%" stop-color="#0A51D0"/>
    </linearGradient>
    <circle id="kmsclient-g" cx="194" cy="100" r="100"/>
    <filter id="kmsclient-f" width="129%" height="129%" x="-14.5%" y="-9.5%" filterUnits="objectBoundingBox">
      <feOffset dy="10" in="SourceAlpha" result="shadowOffsetOuter1"/>
      <feGaussianBlur in="shadowOffsetOuter1" result="shadowBlurOuter1" stdDeviation="8"/>
      <feColorMatrix in="shadowBlurOuter1" values="0 0 0 0 0   0 0 0 0 0.0350400191   0 0 0 0 0.298035553  0 0 0 0.15 0"/>
    </filter>
    <linearGradient id="kmsclient-k" x1="92.831%" x2="11.074%" y1="28.169%" y2="75.209%">
      <stop offset="0%" stop-color="#37FBB3"/>
      <stop offset="100%" stop-color="#2184DC"/>
    </linearGradient>
    <circle id="kmsclient-j" cx="288" cy="100" r="100"/>
    <filter id="kmsclient-i" width="129%" height="129%" x="-14.5%" y="-9.5%" filterUnits="objectBoundingBox">
      <feOffset dy="10" in="SourceAlpha" result="shadowOffsetOuter1"/>
      <feGaussianBlur in="shadowOffsetOuter1" result="shadowBlurOuter1" stdDeviation="8"/>
      <feColorMatrix in="shadowBlurOuter1" values="0 0 0 0 0.0715196752   0 0 0 0 0.236045063   0 0 0 0 0.181359068  0 0 0 0.15 0"/>
    </filter>
    <linearGradient id="kmsclient-n" x1="55.547%" x2="55.547%" y1="0%" y2="100%">
      <stop offset="0%" stop-color="#FFF"/>
      <stop offset="100%" stop-color="#FFF" stop-opacity=".769"/>
    </linearGradient>
    <path id="kmsclient-m" d="M91,252.1875 L91,237.1875 L91,237.1875 L105.5,222.5 L123.697532,258.011688 C124.381981,259.347362 125.756522,260.1875 127.257354,260.1875 L153.701429,260.1875 C155.358283,260.1875 156.701429,258.844354 156.701429,257.1875 C156.701429,256.643768 156.553655,256.110259 156.273908,255.644013 L124.5,202.6875 L124.5,202.6875 L153.057635,173.277398 C154.211854,172.088725 154.183923,170.189436 152.99525,169.035216 C152.435388,168.491582 151.685725,168.1875 150.905351,168.1875 L124.728291,168.1875 C123.625371,168.1875 122.571393,168.642895 121.815491,169.446041 L91,202.1875 L91,202.1875 L91,176.1875 C91,171.769222 87.418278,168.1875 83,168.1875 L70,168.1875 C65.581722,168.1875 62,171.769222 62,176.1875 L62,252.1875 C62,256.605778 65.581722,260.1875 70,260.1875 L83,260.1875 C87.418278,260.1875 91,256.605778 91,252.1875 Z M191.994633,254.187502 L191.9375,190.3125 L191.9375,190.3125 L208.837182,255.689125 C209.521764,258.337439 211.910873,260.1875 214.646237,260.1875 L226.329543,260.1875 C229.076164,260.1875 231.472092,258.322487 232.146088,255.659846 L248.6875,190.3125 L248.6875,190.3125 L248.6875,254.1875 C248.6875,257.501208 251.373792,260.1875 254.6875,260.1875 L266,260.1875 C269.313708,260.1875 272,257.501208 272,254.1875 L272,176.1875 C272,171.769222 268.418278,168.1875 264,168.1875 L241.182513,168.1875 C237.541168,168.1875 234.359222,170.646552 233.441026,174.170231 L220.375,224.3125 L220.375,224.3125 L207.540609,174.202574 C206.634048,170.663044 203.444548,168.1875 199.790766,168.1875 L177,168.1875 C172.581722,168.1875 169,171.769222 169,176.1875 L169,254.1875 C169,257.501208 171.686292,260.1875 175,260.1875 L186,260.1875 C189.313708,260.192864 192,257.506573 192,254.192864 C192,254.191075 191.999999,254.189287 191.994633,254.187502 Z M327.5,262.1875 C336.375,262.1875 343.729167,260.46875 349.5625,257.90625 C355.395833,255.34375 359.9375,251.583333 363.1875,246.625 C366.4375,241.666667 368.0625,236.25 368.0625,230.375 C368.0625,225.375 366.84375,220.854167 364.40625,216.8125 C361.96875,212.770833 358.072917,209.385417 352.71875,206.65625 C347.364583,203.927083 338.5,201.229167 326.125,198.5625 C321.125,197.520833 317.958333,196.395833 316.625,195.1875 C315.25,194.020833 314.5625,192.708333 314.5625,191.25 C314.5625,189.25 315.395833,187.552083 317.0625,186.15625 C318.729167,184.760417 321.208333,184.0625 324.5,184.0625 C328.5,184.0625 331.635417,185 333.90625,186.875 C335.218482,187.958494 336.478538,189.188081 337.445213,190.829086 C337.681811,191.23073 337.930402,191.797462 338.190987,192.529282 C338.758506,194.123099 340.267382,195.1875 341.959225,195.1875 L360.063679,195.1875 C362.27282,195.187503 364.063682,193.396641 364.063682,191.1875 C364.063682,190.878036 364.027769,190.569618 363.956665,190.268434 C363.180056,186.97887 362.40122,184.508331 361.620156,182.856818 C359.787663,178.98212 357.284693,175.791952 354.09375,173.53125 C347.947917,169.177083 339.020833,167 327.3125,167 C317.770833,167 310.260417,168.197917 304.78125,170.59375 C299.302083,172.989583 295.197917,176.28125 292.46875,180.46875 C289.739583,184.65625 288.375,189.104167 288.375,193.8125 C288.375,200.979167 291.041667,206.875 296.375,211.5 C301.666667,216.125 310.520833,219.833333 322.9375,222.625 C330.520833,224.291667 335.354167,226.0625 337.4375,227.9375 C339.520833,229.8125 340.5625,231.9375 340.5625,234.3125 C340.5625,236.8125 339.46875,239.010417 337.28125,240.90625 C335.09375,242.802083 331.541667,243.1875 327.5,243.1875 C322.083333,243.1875 318.354167,241.895833 315.4375,238.1875 C314.75888,237.319497 314.184868,236.445517 313.701879,235.456882 C313.370615,234.778813 313.023938,233.703842 312.661848,232.23197 C312.222048,230.444186 310.618741,229.1875 308.777655,229.1875 L289.665269,229.1875 C287.456133,229.187506 285.665275,230.978364 285.665275,233.1875 C285.665275,233.423267 285.68612,233.658573 285.727566,233.890669 C286.071753,235.818097 286.420499,237.356777 286.773802,238.506709 C288.455109,243.97902 291.22742,248.85242 295.125,252.75 C301.125,258.75 311.916667,262.1875 327.5,262.1875 Z"/>
    <filter id="kmsclient-l" width="114.4%" height="146.2%" x="-7.2%" y="-14.7%" filterUnits="objectBoundingBox">
      <feOffset dy="8" in="SourceAlpha" result="shadowOffsetOuter1"/>
      <feGaussianBlur in="shadowOffsetOuter1" result="shadowBlurOuter1" stdDeviation="6"/>
      <feColorMatrix in="shadowBlurOuter1" values="0 0 0 0 0   0 0 0 0 0   0 0 0 0 0  0 0 0 0.1 0"/>
    </filter>
    <linearGradient id="kmsclient-o" x1="53.569%" x2="53.569%" y1="3.289%" y2="102.766%">
      <stop offset="0%" stop-color="#FFF" stop-opacity=".3"/>
      <stop offset="100%" stop-color="#BFCED6" stop-opacity=".138"/>
    </linearGradient>
    <linearGradient id="kmsclient-r" x1="50%" x2="50%" y1="0%" y2="100%">
      <stop offset="0%" stop-color="#FFF"/>
      <stop offset="100%" stop-color="#D1EAE4"/>
      <stop offset="100%" stop-color="#EDF2DE"/>
    </linearGradient>
    <circle id="kmsclient-q" cx="94" cy="94" r="94"/>
    <filter id="kmsclient-p" width="125%" height="125%" x="-13.6%" y="-13.6%" filterUnits="objectBoundingBox">
      <feOffset dx="-2" dy="-2" in="SourceAlpha" result="shadowOffsetOuter1"/>
      <feGaussianBlur in="shadowOffsetOuter1" result="shadowBlurOuter1" stdDeviation="7.5"/>
      <feColorMatrix in="shadowBlurOuter1" values="0 0 0 0 0   0 0 0 0 0   0 0 0 0 0  0 0 0 0.1 0"/>
    </filter>
    <linearGradient id="kmsclient-s" x1="50%" x2="50%" y1="6.026%" y2="100%">
      <stop offset="0%" stop-color="#577FB3"/>
      <stop offset="100%" stop-color="#192469"/>
    </linearGradient>
  </defs>
  <g fill="none" fill-rule="evenodd" filter="url(#kmsclient-a)" transform="translate(35 35)">
    <rect width="428" height="428" x="1" y="1" fill="url(#kmsclient-b)" rx="98"/>
    <path fill="#000" fill-opacity=".04" fill-rule="nonzero" d="M331,0 L99,0 C44.3238098,0 0,44.3238098 0,99 L0,331 C0,385.67619 44.3238098,430 99,430 L331,430 C385.67619,430 430,385.67619 430,331 L430,99 C430,44.3238098 385.67619,0 331,0 Z M331,1 C385.123905,1 429,44.8760945 429,99 L429,331 C429,385.123905 385.123905,429 331,429 L99,429 C44.8760945,429 1,385.123905 1,331 L1,99 C1,44.8760945 44.8760945,1 99,1 L331,1 Z"/>
    <g transform="translate(25 119)">
      <g fill-rule="nonzero" opacity=".704">
        <use fill="#000" filter="url(#kmsclient-c)" xlink:href="#kmsclient-d"/>
        <use fill="url(#kmsclient-e)" xlink:href="#kmsclient-d"/>
      </g>
      <g fill-rule="nonzero" opacity=".86">
        <use fill="#000" filter="url(#kmsclient-f)" xlink:href="#kmsclient-g"/>
        <use fill="url(#kmsclient-h)" xlink:href="#kmsclient-g"/>
      </g>
      <g opacity=".855">
        <use fill="#000" filter="url(#kmsclient-i)" xlink:href="#kmsclient-j"/>
        <use fill="url(#kmsclient-k)" xlink:href="#kmsclient-j"/>
      </g>
    </g>
    <g fill-rule="nonzero">
      <use fill="#000" filter="url(#kmsclient-l)" xlink:href="#kmsclient-m"/>
      <use fill="url(#kmsclient-n)" xlink:href="#kmsclient-m"/>
    </g>
    <path fill="url(#kmsclient-o)" fill-rule="nonzero" d="M317.0625,186.15625 C315.395833,187.552083 314.5625,189.25 314.5625,191.25 C314.5625,192.622549 315.171497,193.865917 316.38949,194.980104 L316.625,195.1875 C317.875,196.320312 320.736328,197.379883 325.208984,198.366211 L326.125,198.5625 C338.5,201.229167 347.364583,203.927083 352.71875,206.65625 C358.072917,209.385417 361.96875,212.770833 364.40625,216.8125 C366.84375,220.854167 368.0625,225.375 368.0625,230.375 C368.0625,236.25 366.4375,241.666667 363.1875,246.625 C359.9375,251.583333 355.395833,255.34375 349.5625,257.90625 C343.900735,260.393382 336.806282,262.085667 328.279141,262.183062 L327.5,262.1875 C311.916667,262.1875 301.125,258.75 295.125,252.75 C291.22742,248.85242 288.455109,243.97902 286.773802,238.506709 C286.420499,237.356777 286.071753,235.818097 285.727566,233.890669 C285.68612,233.658573 285.665275,233.423267 285.665275,233.1875 C285.665275,231.045308 287.349241,229.296427 289.465629,229.192396 L289.665275,229.1875 L308.777655,229.1875 C310.618741,229.1875 312.222048,230.444186 312.661848,232.23197 L312.827872,232.883114 C313.130243,234.025208 313.421579,234.883131 313.701879,235.456882 C314.184868,236.445517 314.75888,237.319497 315.4375,238.1875 C318.354167,241.895833 322.083333,243.1875 327.5,243.1875 C331.541667,243.1875 335.09375,242.802083 337.28125,240.90625 C339.46875,239.010417 340.5625,236.8125 340.5625,234.3125 C340.5625,231.9375 339.520833,229.8125 337.4375,227.9375 C335.354167,226.0625 330.520833,224.291667 322.9375,222.625 L321.520618,222.298817 C309.845014,219.546721 301.463141,215.947115 296.375,211.5 C291.041667,206.875 288.375,200.979167 288.375,193.8125 C288.375,189.104167 289.739583,184.65625 292.46875,180.46875 C295.197917,176.28125 299.302083,172.989583 304.78125,170.59375 C310.116228,168.260965 317.376955,167.063878 326.563431,167.002489 L327.3125,167 C339.020833,167 347.947917,169.177083 354.09375,173.53125 C357.284693,175.791952 359.787663,178.98212 361.620156,182.856818 C362.40122,184.508331 363.180056,186.97887 363.956665,190.268434 C364.027769,190.569618 364.063682,190.878036 364.063682,191.1875 C364.063682,193.329697 362.379712,195.078582 360.263319,195.182605 L360.063679,195.1875 L341.959225,195.1875 C340.267382,195.1875 338.758506,194.123099 338.190987,192.529282 C337.930402,191.797462 337.681811,191.23073 337.445213,190.829086 C336.478538,189.188081 335.218482,187.958494 333.90625,186.875 C331.635417,185 328.5,184.0625 324.5,184.0625 C321.208333,184.0625 318.729167,184.760417 317.0625,186.15625 Z M191.9375,190.3125 L191.994633,254.1875 L192,254.192864 C192,257.431261 189.434425,260.070436 186.224938,260.183719 L186,260.1875 L175,260.1875 C171.761603,260.1875 169.122428,257.621925 169.004138,254.412438 L169,254.1875 L169,176.1875 C169,171.852586 172.447838,168.322957 176.750821,168.191307 L177,168.1875 L199.790766,168.1875 C203.357553,168.1875 206.481904,170.546564 207.471997,173.951579 L207.540609,174.202574 L220.375,224.3125 L233.441026,174.170231 C234.336827,170.732496 237.387298,168.308087 240.916919,168.191868 L241.182513,168.1875 L264,168.1875 C268.334914,168.1875 271.864543,171.635338 271.996193,175.938321 L272,176.1875 L272,254.1875 C272,257.425897 269.434425,260.065072 266.224938,260.183362 L266,260.1875 L254.6875,260.1875 C251.449103,260.1875 248.809928,257.621925 248.691638,254.412438 L248.6875,254.1875 L248.6875,190.3125 L232.146088,255.659846 C231.492516,258.241801 229.219791,260.073736 226.578231,260.182392 L226.329543,260.1875 L214.646237,260.1875 C211.993762,260.1875 209.666877,258.447865 208.904075,255.927653 L208.837182,255.689125 L191.9375,190.3125 Z M91,237.1875 L91,252.1875 C91,256.522414 87.5521622,260.052043 83.2491793,260.183693 L83,260.1875 L70,260.1875 C65.6650857,260.1875 62.1354571,256.739662 62.0038068,252.436679 L62,252.1875 L62,176.1875 C62,171.852586 65.4478378,168.322957 69.7508207,168.191307 L70,168.1875 L83,168.1875 C87.3349143,168.1875 90.8645429,171.635338 90.9961932,175.938321 L91,176.1875 L91,202.1875 L121.815491,169.446041 C122.5174,168.700263 123.476323,168.254331 124.492791,168.194431 L124.728291,168.1875 L150.905351,168.1875 C151.685725,168.1875 152.435388,168.491582 152.99525,169.035216 C154.136376,170.143267 154.207762,171.937974 153.190468,173.13144 L153.057635,173.277398 L124.5,202.6875 L156.273908,255.644013 C156.553655,256.110259 156.701429,256.643768 156.701429,257.1875 C156.701429,258.785181 155.452509,260.091161 153.877702,260.182407 L153.701429,260.1875 L127.257354,260.1875 C125.827991,260.1875 124.513176,259.42547 123.799944,258.19909 L123.697532,258.011688 L105.5,222.5 L91,237.1875 Z M327.3125,171 C318.27651,171 311.286568,172.114901 306.383794,174.258699 C301.588717,176.355406 298.10109,179.152589 295.819856,182.652804 C293.50761,186.2006 292.375,189.892391 292.375,193.8125 C292.375,199.8245 294.542221,204.61609 299.007339,208.488225 C303.704613,212.593716 311.989824,216.063757 323.796128,218.718242 C332.035656,220.529127 337.347925,222.475433 340.113359,224.964323 C343.003387,227.565349 344.5625,230.745939 344.5625,234.3125 C344.5625,238.024679 342.931206,241.302804 339.900972,243.929006 C337.005517,246.438401 333.26002,247.1875 327.5,247.1875 C320.701584,247.1875 315.932823,245.287545 312.286271,240.651188 C311.404856,239.523796 310.697832,238.420358 310.107848,237.212712 C309.66238,236.300878 309.267488,235.112515 308.875591,233.578293 L308.777651,233.187492 L289.66528,233.1875 L289.738616,233.591585 C290.031723,235.180071 290.321433,236.433716 290.597405,237.331949 C292.127973,242.313636 294.608519,246.576665 297.953427,249.921573 C303.233189,255.201334 313.245058,258.1875 327.5,258.1875 C335.292512,258.1875 342.170056,256.784715 347.953737,254.244026 C353.091249,251.987191 357.024975,248.730138 359.8421,244.432217 C362.666039,240.123899 364.0625,235.46903 364.0625,230.375 C364.0625,226.092298 363.036571,222.286715 360.980961,218.878267 C358.956522,215.521505 355.627372,212.628527 350.902216,210.219985 C345.926523,207.683736 337.346416,205.072399 325.309183,202.478422 C319.799702,201.330613 316.199067,200.075971 314.128561,198.317767 L313.784957,198.01771 C311.720013,196.167343 310.5625,193.857266 310.5625,191.25 C310.5625,188.036662 311.940984,185.228001 314.494229,183.089658 C316.975264,181.011792 320.347375,180.0625 324.5,180.0625 C329.366144,180.0625 333.398006,181.26804 336.453044,183.790549 C338.352927,185.359259 339.762231,186.881523 340.891684,188.798856 C341.228484,189.370599 341.533977,190.042543 341.831927,190.838645 L341.959227,191.187504 L360.063684,191.1875 L359.956131,190.737524 L359.74186,189.874303 C359.136531,187.498164 358.547429,185.715665 358.004162,184.566959 C356.415006,181.206783 354.322361,178.595355 351.781374,176.79513 C346.404368,172.985659 338.262217,171 327.3125,171 Z M83,172.187 L70,172.187 C67.8578046,172.187 66.1089211,173.871468 66.0048953,175.98786 L66,176.1875 L66,252.1875 C66,254.329695 67.6839685,256.078579 69.8003597,256.182605 L70,256.1875 L83,256.1875 C85.1421954,256.1875 86.8910789,254.503532 86.9951047,252.38714 L87,252.1875 L87,235.545678 L106.538151,215.754879 L127.257354,256.1875 L151.935,256.1875 L119.48742,202.107803 L148.539,172.187 L124.728291,172.187 L87,212.273809 L87,176.1875 C87,174.112248 85.4196351,172.40611 83.396747,172.206928 L83.1996403,172.192395 L83,172.187 Z M264,172.187 L252.687,172.187 L252.6875,254.1875 C252.6875,255.241862 253.503378,256.105665 254.538238,256.182014 L254.6875,256.1875 L266,256.1875 C267.054362,256.1875 267.918165,255.371622 267.994514,254.336762 L268,254.1875 L268,176.1875 C268,173.978361 266.209139,172.187 264,172.187 Z M199.790766,172.187 L191.383,172.187 L212.709886,254.688042 C212.924656,255.518885 213.642725,256.114028 214.486624,256.18117 L214.646237,256.1875 L226.329543,256.1875 C227.191228,256.1875 227.949363,255.636816 228.222879,254.832075 L228.268391,254.678282 L249.149,172.187 L241.182513,172.187 C239.429273,172.187 237.889033,173.327637 237.367392,174.985331 L237.311769,175.178865 L220.341613,240.303652 L203.665688,175.195037 C203.212407,173.425272 201.617657,172.187 199.790766,172.187 Z M187.921,172.187 L177,172.187 C174.857805,172.187 173.108921,173.871468 173.004895,175.98786 L173,176.1875 L173,254.1875 C173,255.241862 173.815878,256.105665 174.850738,256.182014 L175,256.187508 L186.006475,256.187508 C187.006764,256.189125 187.835887,255.45154 187.97837,254.488144 L187.994,254.274 L187.921,172.187 Z"/>
    <g fill-rule="nonzero" transform="translate(265 265)">
      <use fill="#000" filter="url(#kmsclient-p)" xlink:href="#kmsclient-q"/>
      <use fill="url(#kmsclient-r)" xlink:href="#kmsclient-q"/>
      <path fill="url(#kmsclient-s)" d="M76.6688926,65.0002139 C73.8816827,72.0293407 67.0213212,77 59,77 C48.5065898,77 40,68.4934102 40,58 C40,47.5065898 48.5065898,39 59,39 C67.0216998,39 73.8823304,43.9711286 76.6692873,51.0007815 L122.022727,51 C137.059935,51 149.25,63.1900652 149.25,78.2272727 C149.25,93.1141082 137.302517,105.210459 122.47298,105.450898 L122.022727,105.454545 L68.0227273,105.454545 C60.9685448,105.454545 55.25,111.17309 55.25,118.227273 C55.25,125.179221 60.803991,130.833965 67.7168786,130.99641 L68.0227273,131 L123,131 L123,118 C123,117.62908 123.103119,117.266735 123.296089,116.952768 L123.4,116.8 C124.062742,115.916344 125.316344,115.737258 126.2,116.4 L126.2,116.4 L152.866667,136.4 C153.018278,136.513708 153.152958,136.648389 153.266667,136.8 C153.929408,137.683656 153.750322,138.937258 152.866667,139.6 L152.866667,139.6 L126.2,159.6 C125.853808,159.859644 125.43274,160 125,160 C123.895431,160 123,159.104569 123,158 L123,158 L123,145 L68.0227273,145 C53.2365583,145 41.25,133.013442 41.25,118.227273 C41.25,103.588965 52.9980258,91.6945566 67.5799913,91.4581322 L68.0227273,91.4545455 L122.022727,91.4545455 C129.327948,91.4545455 135.25,85.5324937 135.25,78.2272727 C135.25,71.026412 129.495941,65.1694838 122.334948,65.0036125 L122.022727,65 Z"/>
    </g>
  </g>
</svg>
