<?xml version="1.0" encoding="UTF-8"?>
<svg width="512px" height="512px" viewBox="0 0 512 512" version="1.1" xmlns="http://www.w3.org/2000/svg" xmlns:xlink="http://www.w3.org/1999/xlink">
    <title>apps/512/preferences-system</title>
    <defs>
        <filter x="-7.3%" y="-5.6%" width="114.7%" height="114.7%" filterUnits="objectBoundingBox" id="filter-1">
            <feOffset dx="0" dy="8" in="SourceAlpha" result="shadowOffsetOuter1"></feOffset>
            <feGaussianBlur stdDeviation="10" in="shadowOffsetOuter1" result="shadowBlurOuter1"></feGaussianBlur>
            <feColorMatrix values="0 0 0 0 0   0 0 0 0 0   0 0 0 0 0  0 0 0 0.2 0" type="matrix" in="shadowBlurOuter1" result="shadowMatrixOuter1"></feColorMatrix>
            <feMerge>
                <feMergeNode in="shadowMatrixOuter1"></feMergeNode>
                <feMergeNode in="SourceGraphic"></feMergeNode>
            </feMerge>
        </filter>
        <linearGradient x1="52.7028203%" y1="103.309406%" x2="47.9444041%" y2="1.43982049e-14%" id="linearGradient-2">
            <stop stop-color="#410DD9" offset="1.92602962%"></stop>
            <stop stop-color="#2F54F8" offset="100%"></stop>
        </linearGradient>
        <circle id="path-3" cx="232" cy="232" r="147.636364"></circle>
        <filter x="-5.4%" y="-5.4%" width="110.8%" height="110.8%" filterUnits="objectBoundingBox" id="filter-4">
            <feGaussianBlur stdDeviation="10" in="SourceAlpha" result="shadowBlurInner1"></feGaussianBlur>
            <feOffset dx="0" dy="12" in="shadowBlurInner1" result="shadowOffsetInner1"></feOffset>
            <feComposite in="shadowOffsetInner1" in2="SourceAlpha" operator="arithmetic" k2="-1" k3="1" result="shadowInnerInner1"></feComposite>
            <feColorMatrix values="0 0 0 0 0   0 0 0 0 0   0 0 0 0 0  0 0 0 0.5 0" type="matrix" in="shadowInnerInner1"></feColorMatrix>
        </filter>
        <path d="M226.07243,84.3636911 C233.906669,85.2992079 241.521088,86.9504702 248.848433,89.2502234 L247.312968,106.429461 C253.212778,108.614793 258.86698,111.316076 264.222251,114.479334 L277.016816,102.083809 C283.580787,106.113005 289.749012,110.724228 295.449634,115.845621 L286.115325,131.642098 C290.615092,136.233451 294.707376,141.234615 298.332701,146.585388 L316.695456,140.536348 C320.796498,146.768306 324.361657,153.384254 327.325363,160.31862 L310.793167,171.35526 C312.983687,177.616281 314.61597,184.144536 315.629454,190.87872 L336.415563,193.718464 C337.101086,199.052165 337.454545,204.489818 337.454545,210.010026 C337.454545,211.848487 337.415341,213.677791 337.337722,215.497148 L316.270798,218.37489 C315.545993,225.436083 314.144251,232.293674 312.132409,238.880008 L330.597431,251.206811 C328.281858,257.935574 325.414843,264.407733 322.050371,270.569303 L300.983093,263.628893 C297.205907,269.789661 292.829076,275.534308 287.935139,280.779281 L299.508353,300.364508 C294.577287,305.200375 289.252065,309.635778 283.585329,313.618072 L267.369784,297.910837 C261.225461,301.836139 254.654739,305.139703 247.743848,307.734244 L249.776624,330.474547 C243.340229,332.549659 236.678636,334.123256 229.837885,335.149294 L221.940665,313.820005 C218.31464,314.199791 214.634321,314.394433 210.909091,314.394433 C207.183861,314.394433 203.503542,314.199791 199.877517,313.820005 L191.980297,335.149294 C185.139546,334.123256 178.477952,332.549659 172.041558,330.474547 L174.074334,307.734244 C167.163442,305.139703 160.592721,301.836139 154.448398,297.910837 L138.232853,313.618072 C132.566117,309.635778 127.240894,305.200375 122.309829,300.364508 L133.883042,280.779281 C128.989106,275.534308 124.612275,269.789661 120.835089,263.628893 L99.7678106,270.569303 C96.4033388,264.407733 93.5363241,257.935574 91.2207506,251.206811 L109.685772,238.880008 C107.673931,232.293674 106.272189,225.436083 105.547383,218.37489 L84.48046,215.497148 C84.4028411,213.677791 84.3636364,211.848487 84.3636364,210.010026 C84.3636364,204.490162 84.7170522,199.052843 85.4024902,193.719462 L106.188728,190.87872 C107.202212,184.144536 108.834495,177.616281 111.025014,171.35526 L94.4928191,160.31862 C97.4565252,153.384254 101.021684,146.768306 105.122726,140.536348 L123.48548,146.585388 C127.110806,141.234615 131.203089,136.233451 135.702857,131.642098 L126.368548,115.845621 C132.06917,110.724228 138.237395,106.113005 144.801366,102.083809 L157.595931,114.479334 C162.951202,111.316076 168.605403,108.614793 174.505214,106.429461 L172.969749,89.2502234 C180.297093,86.9504702 187.911513,85.2992079 195.745752,84.3636911 L201.659185,100.333092 C204.70739,100.066187 207.792523,99.929953 210.909091,99.929953 C214.025658,99.929953 217.110792,100.066187 220.158997,100.333092 Z M210.909091,122.69674 C164.316341,122.69674 126.545455,160.467627 126.545455,207.060377 C126.545455,253.653127 164.316341,291.424013 210.909091,291.424013 C257.501841,291.424013 295.272727,253.653127 295.272727,207.060377 C295.272727,160.467627 257.501841,122.69674 210.909091,122.69674 Z" id="path-5"></path>
        <filter x="-9.5%" y="-4.8%" width="119.0%" height="119.1%" filterUnits="objectBoundingBox" id="filter-6">
            <feOffset dx="0" dy="12" in="SourceAlpha" result="shadowOffsetOuter1"></feOffset>
            <feGaussianBlur stdDeviation="6" in="shadowOffsetOuter1" result="shadowBlurOuter1"></feGaussianBlur>
            <feColorMatrix values="0 0 0 0 0   0 0 0 0 0   0 0 0 0 0  0 0 0 0.2 0" type="matrix" in="shadowBlurOuter1"></feColorMatrix>
        </filter>
        <radialGradient cx="50%" cy="50%" fx="50%" fy="50%" r="50.3926794%" gradientTransform="translate(0.5, 0.5), scale(1, 1), rotate(90), scale(1, 0.9507), translate(-0.5, -0.5)" id="radialGradient-7">
            <stop stop-color="#E2E5ED" offset="0%"></stop>
            <stop stop-color="#9DA3B5" offset="48.4048274%"></stop>
            <stop stop-color="#E7ECFF" offset="100%"></stop>
        </radialGradient>
        <path d="M250.347626,0.29938275 L263.263608,3.23163867 C268.577717,4.43807625 272.142955,9.43702575 271.552874,14.8543171 L268.65542,41.4546306 C268.162449,45.9803835 270.579802,50.3243796 274.685644,52.2909795 L289.693394,59.4793309 C293.827299,61.4593719 298.762548,60.5940833 301.976272,57.3257952 L320.459114,38.5291454 C324.304689,34.618279 330.480985,34.2382112 334.777052,37.6480692 L345.203532,45.9237355 C349.453816,49.2972548 350.515526,55.3134317 347.676712,59.9380055 L333.81567,82.5183553 C331.43273,86.4002869 331.761153,91.3638285 334.63479,94.8979486 L345.836464,108.674239 C348.700599,112.196673 353.471974,113.534718 357.750037,112.015182 L382.55656,103.20409 C387.67681,101.385416 393.348248,103.682401 395.759867,108.551553 L401.652195,120.448392 C404.076328,125.342812 402.435946,131.277212 397.842207,134.231757 L376.025708,148.263427 C372.166798,150.745354 370.313562,155.40669 371.41491,159.860696 L376.027548,178.514854 C377.101257,182.857083 380.756616,186.07731 385.199562,186.595036 L411.819638,189.697008 C417.041652,190.305516 421.053151,194.608869 421.294024,199.860696 L421.794145,210.764959 C421.805945,211.022236 421.808475,211.279854 421.801732,211.537313 L421.658685,216.998901 C421.570793,220.354645 419.029262,223.135355 415.694929,223.523897 L386.599527,226.914313 C381.976115,227.453067 378.227711,230.911981 377.31988,235.477289 L373.320497,255.58942 C372.460986,259.911739 374.332421,264.319988 378.038928,266.703894 L400.796132,281.340595 C405.265377,284.21507 406.956668,289.928304 404.772362,294.772431 L399.665616,306.097646 C397.37087,311.186697 391.556582,313.665133 386.296067,311.796638 L362.418758,303.315596 C358.002526,301.746984 353.0792,303.226788 350.259624,306.970267 L337.417146,324.020895 C334.764472,327.542783 334.53695,332.329129 336.843587,336.08676 L351.152337,359.396449 C353.937167,363.933081 352.973923,369.825678 348.889472,373.23941 L339.847943,380.796205 C335.55969,384.380273 329.238162,384.071439 325.31969,380.086438 L307.264295,361.724493 C303.992119,358.39676 298.94386,357.566474 294.778254,359.670917 L275.354149,369.483877 C271.364796,371.499278 269.043103,375.777009 269.527087,380.220266 L272.471349,407.250307 C273.057337,412.630012 269.544598,417.603807 264.278656,418.850591 L253.240905,421.463931 C247.877228,422.733856 242.424059,419.732222 240.62776,414.521172 L232.119574,389.838985 C230.55638,385.304173 226.172664,382.358264 221.383362,382.624124 L211.497328,383.17291 C211.101254,383.194897 210.704265,383.194897 210.308191,383.17291 L200.422157,382.624124 C195.632854,382.358264 191.249139,385.304173 189.685945,389.838985 L181.177758,414.521172 C179.381459,419.732222 173.928291,422.733856 168.564614,421.463931 L157.526863,418.850591 C152.260921,417.603807 148.748182,412.630012 149.334169,407.250307 L152.278432,380.220266 C152.762416,375.777009 150.440723,371.499278 146.45137,369.483877 L127.027265,359.670917 C122.861659,357.566474 117.8134,358.39676 114.541224,361.724493 L96.4858291,380.086438 C92.5673572,384.071439 86.2458287,384.380273 81.9575756,380.796205 L72.9160469,373.23941 C68.8315961,369.825678 67.8683522,363.933081 70.6531823,359.396449 L84.9619316,336.08676 C87.2685693,332.329129 87.0410473,327.542783 84.3883731,324.020895 L71.545895,306.970267 C68.7263186,303.226788 63.8029925,301.746984 59.3867609,303.315596 L35.5094521,311.796638 C30.2489367,313.665133 24.4346486,311.186697 22.1399027,306.097646 L17.0331566,294.772431 C14.8488513,289.928304 16.5401416,284.21507 21.0093868,281.340595 L43.7665906,266.703894 C47.4730976,264.319988 49.344533,259.911739 48.4850216,255.58942 L44.485639,235.477289 C43.5778082,230.911981 39.8294035,227.453067 35.2059921,226.914313 L6.1105899,223.523897 C2.77625691,223.135355 0.234726057,220.354645 0.146834019,216.998901 L0.00378670298,211.537313 C-0.00295653575,211.279854 -0.000425737585,211.022236 0.0113741773,210.764959 L0.511494824,199.860696 C0.752368287,194.608869 4.76386693,190.305516 9.98588123,189.697008 L36.6059572,186.595036 C41.0489027,186.07731 44.704262,182.857083 45.7779707,178.514854 L50.3906089,159.860696 C51.4919569,155.40669 49.6387207,150.745354 45.7798114,148.263427 L23.963312,134.231757 C19.3695731,131.277212 17.7291905,125.342812 20.1533242,120.448392 L26.0456521,108.551553 C28.4572706,103.682401 34.1287087,101.385416 39.2489591,103.20409 L64.0554824,112.015182 C68.3335454,113.534718 73.1049202,112.196673 75.9690554,108.674239 L87.1707292,94.8979486 C90.0443663,91.3638285 90.3727886,86.4002869 87.9898488,82.5183553 L74.1288072,59.9380055 C71.2899934,55.3134317 72.3517032,49.2972548 76.6019871,45.9237355 L87.0284669,37.6480692 C91.3245338,34.2382112 97.5008301,34.618279 101.346405,38.5291454 L119.829247,57.3257952 C123.042971,60.5940833 127.97822,61.4593719 132.112124,59.4793309 L147.119875,52.2909795 C151.225717,50.3243796 153.64307,45.9803835 153.150099,41.4546306 L150.252645,14.8543171 C149.662564,9.43702575 153.227802,4.43807625 158.541911,3.23163867 L171.457893,0.29938275 C176.796098,-0.912525361 182.190524,2.08933483 183.974465,7.26453611 L192.497638,31.9902897 C194.055505,36.5063772 198.412016,39.4480706 203.183093,39.2055433 C206.311689,39.0450992 208.884914,38.9649816 210.902759,38.9649816 C212.794489,38.9649816 215.174347,39.0353975 218.042331,39.1762291 L218.622426,39.2055433 C223.393503,39.4480706 227.750014,36.5063772 229.307881,31.9902897 L237.831054,7.26453611 C239.614995,2.08933483 245.009421,-0.912525361 250.347626,0.29938275 Z M345.039463,182.441396 C304.961134,178.323882 264.321873,197.486348 242.873301,234.636364 C222.605202,269.741741 224.815462,311.656654 245.042309,343.716865 C304.241325,328.546883 348,274.83818 348,210.909091 C348,201.148731 346.980003,191.626604 345.039463,182.441396 Z M178.944881,234.636364 C157.686938,197.816528 117.577915,178.665925 77.8474556,182.337123 L76.7773932,182.443489 C74.8381786,191.626604 73.8181818,201.148731 73.8181818,210.909091 C73.8181818,274.83818 117.576857,328.546883 176.7799,343.714516 C197.00272,311.656654 199.212979,269.741741 178.944881,234.636364 Z M210.909348,189.803115 C199.261161,189.803115 189.818439,199.245836 189.818439,210.894024 C189.818439,222.542211 199.261161,231.984933 210.909348,231.984933 C222.557535,231.984933 232.000257,222.542211 232.000257,210.894024 C232.000257,199.245836 222.557535,189.803115 210.909348,189.803115 Z M210.909091,73.8181818 C172.835942,73.8181818 138.387792,89.3386467 113.546444,114.401134 C129.444264,152.497508 167.049834,179.272727 210.909091,179.272727 C254.768348,179.272727 292.373918,152.497508 308.271787,114.397822 C283.43039,89.3386467 248.98224,73.8181818 210.909091,73.8181818 Z" id="path-8"></path>
    </defs>
    <g id="apps/512/preferences-system" stroke="none" stroke-width="1" fill="none" fill-rule="evenodd">
        <g id="13-settings" filter="url(#filter-1)" transform="translate(24, 24)">
            <circle id="Oval" fill="url(#linearGradient-2)" cx="232" cy="232" r="232"></circle>
            <g id="Oval">
                <use fill-opacity="0.5" fill="#000000" fill-rule="evenodd" xlink:href="#path-3"></use>
                <use fill="black" fill-opacity="1" filter="url(#filter-4)" xlink:href="#path-3"></use>
            </g>
            <g id="Group-12" transform="translate(21.0909, 21.0909)">
                <g id="Combined-Shape">
                    <use fill="black" fill-opacity="1" filter="url(#filter-6)" xlink:href="#path-5"></use>
                    <use fill="#585F6C" fill-rule="evenodd" xlink:href="#path-5"></use>
                </g>
                <path d="M210.909091,118.764537 C162.144645,118.764537 122.613251,158.295931 122.613251,207.060377 C122.613251,255.824823 162.144645,295.356217 210.909091,295.356217 C259.673537,295.356217 299.204931,255.824823 299.204931,207.060377 C299.204931,158.295931 259.673537,118.764537 210.909091,118.764537 Z M210.909091,122.69674 C257.501841,122.69674 295.272727,160.467627 295.272727,207.060377 C295.272727,253.653127 257.501841,291.424013 210.909091,291.424013 C164.316341,291.424013 126.545455,253.653127 126.545455,207.060377 C126.545455,160.467627 164.316341,122.69674 210.909091,122.69674 Z" id="Path" fill-opacity="0.1" fill="#FFFFFF" fill-rule="nonzero"></path>
                <path d="M287.935139,280.779281 L299.508322,300.364539 C294.885494,304.898115 289.916247,309.079728 284.643956,312.866002 L283.58547,313.617973 L267.369784,297.910837 C261.225461,301.836139 254.654739,305.139703 247.743848,307.734244 L249.776372,330.474628 C243.742569,332.41993 237.510858,333.924493 231.119171,334.950385 L229.838712,335.14917 L221.940665,313.820005 C218.717532,314.157593 215.451499,314.348894 212.149158,314.387237 L210.909091,314.394433 C207.183861,314.394433 203.503542,314.199791 199.877517,313.820005 L191.97947,335.14917 C185.13875,334.12309 178.477188,332.549456 172.040826,330.474311 L174.074334,307.734244 C167.527174,305.276258 161.285318,302.181919 155.422085,298.525442 L154.448398,297.910837 L138.233396,313.618454 C132.566711,309.636239 127.241528,305.200926 122.310489,300.365156 L133.883042,280.779281 C128.989106,275.534308 124.612275,269.789661 120.835089,263.628893 L99.7679777,270.569609 C96.4032664,264.407641 93.5360773,257.935042 91.2204051,251.205808 L109.685772,238.880008 C107.673931,232.293674 106.272189,225.436083 105.547383,218.37489 L84.4804726,215.497444 C84.4028453,213.677989 84.3636364,211.848586 84.3636364,210.010026 C84.3636364,204.489665 84.7171158,199.051864 85.4026753,193.718022 L106.188728,190.87872 C107.202212,184.144536 108.834495,177.616281 111.025014,171.35526 L94.4926439,160.31903 C97.2821616,153.792159 100.60452,147.547381 104.405043,141.639372 L105.123231,140.53558 L123.48548,146.585388 C127.110806,141.234615 131.203089,136.233451 135.702857,131.642098 L126.36945,115.844811 C131.753058,111.008314 137.553696,106.626819 143.710844,102.760847 L144.801088,102.08398 L157.595931,114.479334 C162.951202,111.316076 168.605403,108.614793 174.505214,106.429461 L172.969854,89.2501904 C179.890378,87.0781282 187.066984,85.4845462 194.443008,84.5261073 L195.746718,84.3635757 L201.659185,100.333092 C204.271932,100.104316 206.91181,99.9715437 209.57536,99.9382777 L210.909091,99.929953 C214.025658,99.929953 217.110792,100.066187 220.158997,100.333092 L226.0718,84.3635757 C233.906223,85.2991149 241.520819,86.9503927 248.848328,89.2501904 L247.312968,106.429461 C253.212778,108.614793 258.86698,111.316076 264.222251,114.479334 L277.017419,102.084179 C283.581008,106.113192 289.748893,110.724166 295.449228,115.845256 L286.115325,131.642098 C290.615092,136.233451 294.707376,141.234615 298.332701,146.585388 L316.69495,140.53558 C320.796286,146.767886 324.361675,153.384229 327.325538,160.31903 L310.793167,171.35526 C312.983687,177.616281 314.61597,184.144536 315.629454,190.87872 L336.415507,193.718022 C337.101066,199.051864 337.454545,204.489665 337.454545,210.010026 C337.454545,211.848586 337.415337,213.677989 337.337709,215.497444 L316.270798,218.37489 C315.545993,225.436083 314.144251,232.293674 312.132409,238.880008 L330.597777,251.205808 C328.426834,257.514465 325.77116,263.597564 322.675244,269.410613 L322.050204,270.569609 L300.983093,263.628893 C297.205907,269.789661 292.829076,275.534308 287.935139,280.779281 Z M229.354978,88.7745566 L228.668441,88.6741356 L222.804807,104.512012 L219.816,104.250307 C216.86664,103.992057 213.89591,103.862156 210.909091,103.862156 C208.34896,103.862156 205.80065,103.957594 203.267486,104.147491 L202.002182,104.250307 L199.013315,104.512017 L193.149831,88.6741356 L192.463473,88.7745159 C187.481176,89.5260161 182.568565,90.5816349 177.74656,91.9330517 L177.172305,92.0971186 L178.689343,109.072917 L175.871044,110.116836 C170.578308,112.077303 165.462336,114.479896 160.571036,117.296234 L159.595786,117.86501 L157.013744,119.390174 L144.286305,107.059153 L143.534389,107.549669 C139.514608,110.198471 135.653036,113.082019 131.970227,116.183788 L131.41522,116.654712 L140.623095,132.23957 L138.511213,134.394436 C134.440158,138.54835 130.721844,143.043806 127.399936,147.829926 L126.740853,148.791011 L125.075277,151.249306 L106.789797,145.224136 L106.344773,145.941976 C103.885965,149.94612 101.658915,154.08896 99.6760543,158.351031 L99.4296949,158.886576 L115.743119,169.77699 L114.736612,172.653823 C112.740544,178.359056 111.242773,184.245364 110.265624,190.259421 L110.077142,191.46392 L109.638855,194.376164 L88.9572542,197.200983 L88.8631404,198.135898 C88.5277515,201.627401 88.340372,205.145026 88.3028727,208.682539 L88.2958398,210.010026 C88.2958398,210.454558 88.2958398,210.898803 88.3029284,211.342747 L88.314339,212.051932 L109.143289,214.897327 L109.459034,217.973373 C110.110247,224.317617 111.333957,230.545514 113.107473,236.598428 L113.446445,237.731284 L114.30053,240.527374 L95.9585424,252.769898 L96.2500304,253.549656 C97.7700651,257.550293 99.4989639,261.465078 101.428569,265.279548 L101.692678,265.795322 L122.560645,258.920284 L124.187392,261.573586 C127.615333,267.164719 131.564442,272.413984 135.974969,277.247943 L136.758075,278.096668 L138.764717,280.247244 L127.283458,299.678136 L127.79506,300.155606 C130.873109,302.995034 134.093944,305.676115 137.444322,308.187315 L137.865017,308.499051 L153.945444,292.92339 L156.565363,294.597126 C162.20565,298.200424 168.182251,301.236154 174.415216,303.655429 L175.456403,304.052925 L178.257391,305.104493 L176.240373,327.652814 L176.799708,327.817497 C180.765997,328.963792 184.795524,329.909526 188.876413,330.649813 L189.416203,330.744508 L197.250312,309.591121 L200.287131,309.909194 C203.79861,310.276983 207.342283,310.46223 210.909091,310.46223 C214.030048,310.46223 217.133292,310.3204 220.212755,310.038553 L221.53105,309.909194 L224.56787,309.591121 L232.400102,330.744508 L232.941583,330.649847 C237.022267,329.909604 241.051595,328.963934 245.017691,327.817723 L245.575932,327.652814 L243.560919,305.104445 L246.361779,304.052925 C252.622981,301.702296 258.632262,298.732496 264.309671,295.192412 L265.252819,294.597126 L267.87264,292.923453 L283.952271,308.499051 L284.374515,308.186824 C287.724884,305.675596 290.945707,302.994487 294.023744,300.155033 L294.534814,299.678136 L283.053386,280.247329 L285.060106,278.096668 C289.524711,273.311823 293.531413,268.107352 297.020461,262.556693 L297.63079,261.573586 L299.257537,258.920284 L320.12461,265.795322 L320.389612,265.279548 C322.319218,261.465078 324.048117,257.550293 325.568151,253.549656 L325.858746,252.769898 L307.517652,240.527374 L308.371737,237.731284 C310.21389,231.700473 311.507655,225.491013 312.230342,219.161541 L312.359148,217.973373 L312.674893,214.897327 L333.502949,212.051932 L333.515253,211.342747 L333.522342,210.010026 C333.522342,206.024841 333.332354,202.063839 332.955041,198.135898 L332.860034,197.200983 L312.179327,194.376164 L311.741039,191.46392 C310.833406,185.433067 309.403662,179.526408 307.474133,173.797268 L307.08157,172.653823 L306.075063,169.77699 L322.387593,158.886576 L322.142128,158.351031 C320.159267,154.08896 317.932217,149.94612 315.473409,145.941976 L315.027492,145.224136 L296.742904,151.249306 L295.077329,148.791011 C291.808469,143.966361 288.140293,139.428985 284.116464,135.229757 L283.306969,134.394436 L281.195009,132.239491 L290.402068,116.655695 L289.848411,116.184172 C286.165572,113.082347 282.303963,110.198748 278.284142,107.549899 L277.531966,107.060136 L264.804382,119.390141 L262.222396,117.86501 C257.361265,114.993631 252.272268,112.534107 247.003314,110.514816 L245.947138,110.116836 L243.128839,109.072917 L244.644983,92.0971186 L244.071674,91.9330663 C239.249739,90.5816669 234.337201,89.526057 229.354978,88.7745566 Z" id="Combined-Shape" fill-opacity="0.1" fill="#FFFFFF" fill-rule="nonzero"></path>
                <mask id="mask-9" fill="white">
                    <use xlink:href="#path-8"></use>
                </mask>
                <use id="Mask" fill="url(#radialGradient-7)" xlink:href="#path-8"></use>
            </g>
        </g>
        <g id="Guide-512" transform="translate(15, 15)"></g>
    </g>
</svg>