<?xml version="1.0" encoding="UTF-8"?>
<svg width="512px" height="512px" viewBox="0 0 512 512" version="1.1" xmlns="http://www.w3.org/2000/svg" xmlns:xlink="http://www.w3.org/1999/xlink">
    <title>apps/512/uos-installtool</title>
    <defs>
        <filter x="-7.2%" y="-5.7%" width="114.5%" height="114.8%" filterUnits="objectBoundingBox" id="filter-1">
            <feOffset dx="0" dy="8" in="SourceAlpha" result="shadowOffsetOuter1"></feOffset>
            <feGaussianBlur stdDeviation="10" in="shadowOffsetOuter1" result="shadowBlurOuter1"></feGaussianBlur>
            <feColorMatrix values="0 0 0 0 0   0 0 0 0 0   0 0 0 0 0  0 0 0 0.2 0" type="matrix" in="shadowBlurOuter1" result="shadowMatrixOuter1"></feColorMatrix>
            <feMerge>
                <feMergeNode in="shadowMatrixOuter1"></feMergeNode>
                <feMergeNode in="SourceGraphic"></feMergeNode>
            </feMerge>
        </filter>
        <linearGradient x1="38.071511%" y1="6.96680639%" x2="69.0343287%" y2="96.4714149%" id="linearGradient-2">
            <stop stop-color="#00EADB" offset="0%"></stop>
            <stop stop-color="#5300FF" offset="100%"></stop>
        </linearGradient>
        <linearGradient x1="50%" y1="25.0756047%" x2="50%" y2="100%" id="linearGradient-3">
            <stop stop-color="#FFFFFF" offset="0%"></stop>
            <stop stop-color="#FFFFFF" stop-opacity="0.557746941" offset="100%"></stop>
        </linearGradient>
        <path d="M183.489502,55.001036 C189.282694,55.001036 193.979004,59.697346 193.979004,65.490538 L193.979004,116.990538 C193.979004,139.640011 212.340029,158.001036 234.989502,158.001036 C257.638975,158.001036 276,139.640011 276,116.990538 L276,65.501036 C276,59.7020462 280.70101,55.001036 286.5,55.001036 C292.29899,55.001036 297,59.7020462 297,65.501036 L297,117.001036 C297,151.242691 269.241654,179.001036 235,179.001036 C200.758346,179.001036 173,151.242691 173,117.001036 L173,65.490538 C173,59.697346 177.69631,55.001036 183.489502,55.001036 Z" id="path-4"></path>
        <filter x="-36.3%" y="-31.5%" width="172.6%" height="172.6%" filterUnits="objectBoundingBox" id="filter-5">
            <feOffset dx="0" dy="6" in="SourceAlpha" result="shadowOffsetOuter1"></feOffset>
            <feGaussianBlur stdDeviation="14" in="shadowOffsetOuter1" result="shadowBlurOuter1"></feGaussianBlur>
            <feColorMatrix values="0 0 0 0 0.121292169   0 0 0 0 0.290439071   0 0 0 0 0.413043478  0 0 0 0.1 0" type="matrix" in="shadowBlurOuter1"></feColorMatrix>
        </filter>
        <linearGradient x1="50%" y1="0%" x2="50%" y2="100%" id="linearGradient-6">
            <stop stop-color="#C5C5C5" offset="0%"></stop>
            <stop stop-color="#EAEAEA" offset="100%"></stop>
        </linearGradient>
        <path d="M49.6666667,167.001036 L420.333333,167.001036 C426.224371,167.001036 431,171.776665 431,177.667703 L431,429.001036 C431,445.569579 417.568542,459.001036 401,459.001036 L69,459.001036 C52.4314575,459.001036 39,445.569579 39,429.001036 L39,177.667703 C39,171.776665 43.7756293,167.001036 49.6666667,167.001036 Z" id="path-7"></path>
        <filter x="-1.0%" y="-1.4%" width="102.0%" height="102.7%" filterUnits="objectBoundingBox" id="filter-8">
            <feOffset dx="0" dy="-8" in="SourceAlpha" result="shadowOffsetInner1"></feOffset>
            <feComposite in="shadowOffsetInner1" in2="SourceAlpha" operator="arithmetic" k2="-1" k3="1" result="shadowInnerInner1"></feComposite>
            <feColorMatrix values="0 0 0 0 0   0 0 0 0 0   0 0 0 0 0  0 0 0 0.12 0" type="matrix" in="shadowInnerInner1"></feColorMatrix>
        </filter>
        <linearGradient x1="49.9995456%" y1="0.694444444%" x2="49.999547%" y2="100%" id="linearGradient-9">
            <stop stop-color="#FFFFFF" offset="0%"></stop>
            <stop stop-color="#BFBFBF" offset="100%"></stop>
        </linearGradient>
        <linearGradient x1="49.9995456%" y1="0.694444444%" x2="49.999547%" y2="100%" id="linearGradient-10">
            <stop stop-color="#F4F4F4" offset="0%"></stop>
            <stop stop-color="#EBEBEB" offset="100%"></stop>
        </linearGradient>
        <linearGradient x1="50%" y1="2.04912381%" x2="50%" y2="93.2502763%" id="linearGradient-11">
            <stop stop-color="#8092A3" offset="0%"></stop>
            <stop stop-color="#3D5C71" offset="100%"></stop>
        </linearGradient>
        <path d="M214,287.001036 L258,287.001036 C262.418278,287.001036 266,290.582758 266,295.001036 L266,344.001036 L266,344.001036 L287.100091,344.001036 C291.518369,344.001036 295.100091,347.582758 295.100091,352.001036 C295.100091,353.970161 294.373858,355.870114 293.060413,357.337191 L246.48445,409.361126 C241.327065,415.121768 232.476256,415.610804 226.715614,410.453419 C226.334873,410.11255 225.973081,409.751089 225.631863,409.37066 L178.966461,357.342639 C176.016375,354.05354 176.2912,348.995681 179.580299,346.045595 C181.048052,344.729126 182.950255,344.001036 184.921902,344.001036 L206,344.001036 L206,344.001036 L206,295.001036 C206,290.582758 209.581722,287.001036 214,287.001036 Z" id="path-12"></path>
        <filter x="1.0%" y="-6.3%" width="98.0%" height="107.5%" filterUnits="objectBoundingBox" id="filter-13">
            <feGaussianBlur stdDeviation="8" in="SourceAlpha" result="shadowBlurInner1"></feGaussianBlur>
            <feOffset dx="0" dy="1" in="shadowBlurInner1" result="shadowOffsetInner1"></feOffset>
            <feComposite in="shadowOffsetInner1" in2="SourceAlpha" operator="arithmetic" k2="-1" k3="1" result="shadowInnerInner1"></feComposite>
            <feColorMatrix values="0 0 0 0 0   0 0 0 0 0   0 0 0 0 0  0 0 0 0.078032807 0" type="matrix" in="shadowInnerInner1"></feColorMatrix>
        </filter>
    </defs>
    <g id="apps/512/uos-installtool" stroke="none" stroke-width="1" fill="none" fill-rule="evenodd">
        <g id="编组-3" filter="url(#filter-1)" transform="translate(21, 23.999)" fill-rule="nonzero">
            <path d="M283.845304,11.0423734 C191.624736,-15.9276581 95.0215141,36.9466537 68.0404726,129.166761 C41.0703063,221.375995 93.9557574,317.989606 186.176326,344.959638 C278.375145,371.929671 375.000114,319.055358 401.959407,226.846126 C428.929573,134.615143 376.044122,38.0124049 283.845304,11.0423734 L283.845304,11.0423734 Z" id="path11793" fill="#FFFFFF"></path>
            <path d="M64.2013221,128.043853 C36.6102883,222.375791 90.7149533,321.209375 185.05355,348.798827 C279.378793,376.390882 378.221197,322.292252 405.79868,227.968617 C433.387238,133.622893 379.29258,34.7950208 284.968324,7.20325552 C191.569532,-20.111349 93.7783924,32.6309343 65.0507283,125.225505 L64.2013221,128.043853 Z M68.0404726,129.166761 C95.0215141,36.9466537 191.624736,-15.9276581 283.845304,11.0423734 C376.044122,38.0124049 428.929573,134.615143 401.959407,226.846126 C375.000114,319.055358 278.375145,371.929671 186.176326,344.959638 C93.9557574,317.989606 41.0703063,221.375995 68.0404726,129.166761 Z" id="path11793" fill="#F8FCFF"></path>
            <circle id="椭圆形" fill="url(#linearGradient-2)" cx="235" cy="178.001036" r="154"></circle>
            <g id="矩形">
                <use fill="black" fill-opacity="1" filter="url(#filter-5)" xlink:href="#path-4"></use>
                <use fill="url(#linearGradient-3)" xlink:href="#path-4"></use>
            </g>
            <g id="rect11806">
                <use fill="url(#linearGradient-6)" xlink:href="#path-7"></use>
                <use fill="black" fill-opacity="1" filter="url(#filter-8)" xlink:href="#path-7"></use>
            </g>
            <g id="编组" transform="translate(0, 158.001)">
                <path d="M468.647254,85.034352 C471.346284,91.090512 468.181248,96 461.517502,96 L8.10038924,96 C1.46370664,96 -1.74188316,91.107364 0.957233637,85.034352 L33.8766574,10.9656484 C36.5682842,4.909488 44.10532,0 50.7700706,0 L418.730486,0 C425.368834,0 432.930764,4.8926354 435.637302,10.9656484 L468.647254,85.034352 Z" id="polygon11815" fill="url(#linearGradient-9)"></path>
                <path d="M424.541028,4.0342678 C428.963058,4.0342678 434.012594,7.32008 435.804976,11.3418802 L468.480716,84.660666 C470.279592,88.697038 468.156414,91.969386 463.749742,91.969662 L5.85028584,91.99777 C1.43856524,91.99777 -0.677314163,88.712084 1.10987484,84.69091 L33.6909376,11.3835178 C35.4846014,7.3477742 40.5283238,4.0757616 44.9454494,4.0752742 L424.541028,4.0342678 Z" id="polygon11815" fill="url(#linearGradient-10)"></path>
            </g>
            <g id="蒙版">
                <use fill="url(#linearGradient-11)" xlink:href="#path-12"></use>
                <use fill="black" fill-opacity="1" filter="url(#filter-13)" xlink:href="#path-12"></use>
            </g>
        </g>
        <g id="Guide/512" transform="translate(15, 15)"></g>
    </g>
</svg>