<svg xmlns="http://www.w3.org/2000/svg" width="512" height="512" viewBox="0 0 512 512">
  <defs>
    <filter id="wps-office-wpsmain-a" width="123.8%" height="123.8%" x="-11.9%" y="-11.9%" filterUnits="objectBoundingBox">
      <feOffset dy="8" in="SourceAlpha" result="shadowOffsetOuter1"/>
      <feGaussianBlur in="shadowOffsetOuter1" result="shadowBlurOuter1" stdDeviation="10"/>
      <feComposite in="shadowBlurOuter1" in2="SourceAlpha" operator="out" result="shadowBlurOuter1"/>
      <feColorMatrix in="shadowBlurOuter1" result="shadowMatrixOuter1" values="0 0 0 0 0   0 0 0 0 0   0 0 0 0 0  0 0 0 0.2 0"/>
      <feMerge>
        <feMergeNode in="shadowMatrixOuter1"/>
        <feMergeNode in="SourceGraphic"/>
      </feMerge>
    </filter>
    <linearGradient id="wps-office-wpsmain-b" x1="50.001%" x2="50.001%" y1=".348%" y2="103.831%">
      <stop offset="0%" stop-color="#4982FF"/>
      <stop offset="100%" stop-color="#5600FF"/>
    </linearGradient>
    <linearGradient id="wps-office-wpsmain-c" x1="50%" x2="50%" y1="0%" y2="100%">
      <stop offset="0%" stop-color="#FFF"/>
      <stop offset="100%" stop-color="#DFD8FF"/>
    </linearGradient>
  </defs>
  <g fill="none" fill-rule="evenodd" filter="url(#wps-office-wpsmain-a)" transform="translate(29 29)">
    <path fill="url(#wps-office-wpsmain-b)" d="M56,0 L331.347749,0 C345.227546,2.06497238e-14 358.612775,5.15447751 368.907659,14.463833 L435.55991,74.7354637 C447.30079,85.3523894 454,100.442311 454,116.271631 L454,398 C454,428.927946 428.927946,454 398,454 L56,454 C25.072054,454 3.78758101e-15,428.927946 0,398 L0,56 C3.31784635e-15,25.072054 25.072054,1.27867989e-14 56,0 Z"/>
    <g fill-rule="nonzero" transform="translate(99 99)">
      <path fill="#FFF" d="M59.9364157,158.548918 L10.9333333,207.552 L10.9333333,207.552 L63.7226667,249.674667 L93.8775412,219.519792 C112.622707,200.774626 143.014626,200.774626 161.759792,219.519792 L191.914667,249.674667 L191.914667,249.674667 L244.704,207.552 L195.700918,158.548918 C158.210586,121.058586 97.4267477,121.058586 59.9364157,158.548918 Z" opacity=".6"/>
      <path fill="url(#wps-office-wpsmain-c)" stroke="#FFF" stroke-opacity=".4" stroke-width="6" d="M195,247.000928 L208.000064,247.000928 C232.852878,247.000928 253.000064,226.853741 253.000064,202.000928 L253.000064,24 C253.000064,12.4020203 243.598044,3 232.000064,3 L216,3 C204.40202,3 195,12.4020203 195,24 L195,247.000928 Z M61,247 L61,23.9994179 C61,12.4014382 51.5979797,2.99941791 40,2.99941791 L24,2.99941791 C12.4020203,2.99941791 3,12.4014382 3,23.9994179 L3,202 C3,226.852814 23.1471863,247 48,247 L61,247 Z"/>
    </g>
  </g>
</svg>
