<svg xmlns="http://www.w3.org/2000/svg" xmlns:xlink="http://www.w3.org/1999/xlink" width="32" height="32" viewBox="0 0 32 32">
  <defs>
    <linearGradient id="application-x-font-ttf-c" x1="50%" x2="50%" y1="0%" y2="99.372%">
      <stop offset="0%" stop-color="#D6D6D6"/>
      <stop offset="98.276%" stop-color="#AAA"/>
    </linearGradient>
    <path id="application-x-font-ttf-b" d="M15,0 L22,7 L22,22 C22,24.209139 20.209139,26 18,26 L4,26 C1.790861,26 2.705415e-16,24.209139 0,22 L0,4 C-2.705415e-16,1.790861 1.790861,4.05812251e-16 4,0 L15,0 Z"/>
    <filter id="application-x-font-ttf-a" width="131.8%" height="126.9%" x="-15.9%" y="-9.6%" filterUnits="objectBoundingBox">
      <feOffset dy="1" in="SourceAlpha" result="shadowOffsetOuter1"/>
      <feGaussianBlur in="shadowOffsetOuter1" result="shadowBlurOuter1" stdDeviation="1"/>
      <feColorMatrix in="shadowBlurOuter1" values="0 0 0 0 0   0 0 0 0 0   0 0 0 0 0  0 0 0 0.2 0"/>
    </filter>
    <linearGradient id="application-x-font-ttf-f" x1="50%" x2="10.489%" y1="50%" y2="91.194%">
      <stop offset="0%" stop-color="#FFF" stop-opacity=".1"/>
      <stop offset="100%" stop-color="#FFF" stop-opacity=".3"/>
    </linearGradient>
    <path id="application-x-font-ttf-e" d="M15,0 L22,7 L17.25,7 C16.0073593,7 15,5.99264069 15,4.75 L15,0 Z"/>
    <filter id="application-x-font-ttf-d" width="157.1%" height="157.1%" x="-28.6%" y="-14.3%" filterUnits="objectBoundingBox">
      <feOffset dy="1" in="SourceAlpha" result="shadowOffsetOuter1"/>
      <feGaussianBlur in="shadowOffsetOuter1" result="shadowBlurOuter1" stdDeviation=".5"/>
      <feComposite in="shadowBlurOuter1" in2="SourceAlpha" operator="out" result="shadowBlurOuter1"/>
      <feColorMatrix in="shadowBlurOuter1" values="0 0 0 0 0   0 0 0 0 0   0 0 0 0 0  0 0 0 0.05 0"/>
    </filter>
  </defs>
  <g fill="none" fill-rule="evenodd">
    <g transform="translate(5 3)">
      <use fill="#000" filter="url(#application-x-font-ttf-a)" xlink:href="#application-x-font-ttf-b"/>
      <use fill="url(#application-x-font-ttf-c)" xlink:href="#application-x-font-ttf-b"/>
      <use fill="#000" filter="url(#application-x-font-ttf-d)" xlink:href="#application-x-font-ttf-e"/>
      <use fill="url(#application-x-font-ttf-f)" xlink:href="#application-x-font-ttf-e"/>
    </g>
    <path fill="#FFF" d="M17,27 L17,26 C16.6666667,26 17.0306667,26 16.6666667,26 C16.2466667,26 16,25.8373333 16,25.3333333 L16,23 L17,23 L17,22.0013333 L16,22.0013333 L16,20.6666667 L15,20.6666667 L15,22.0013333 L14,22.0013333 L14,23 L15,23 L15,25.3333333 C15,26.3786667 15.808,27 16.6666667,27 L17,27 Z M21,27 L21,26 C20.6666667,26 21.0306667,26 20.6666667,26 C20.2466667,26 20,25.8373333 20,25.3333333 L20,23 L21,23 L21,22.0013333 L20,22.0013333 L20,20.6666667 L19,20.6666667 L19,22.0013333 L18,22.0013333 L18,23 L19,23 L19,25.3333333 C19,26.3786667 19.808,27 20.6666667,27 L21,27 Z M25,20 L24.5,20 C23.5,20 23,20.5 23,21.5 L23,22 L22,21.9853333 L22,23 L23,23 L23,27 L24,27 L24,23 L25,23 L25,22 L24,22 L24,21.5 C24,21.5 24,21 24.5,21 L25,21 L25,20 Z"/>
  </g>
</svg>
