<svg xmlns="http://www.w3.org/2000/svg" xmlns:xlink="http://www.w3.org/1999/xlink" width="32" height="32" viewBox="0 0 32 32">
  <defs>
    <linearGradient id="package-x-generic-c" x1="50%" x2="50%" y1="0%" y2="100%">
      <stop offset="0%" stop-color="#6F99D9"/>
      <stop offset="100%" stop-color="#2A90C8"/>
    </linearGradient>
    <path id="package-x-generic-b" d="M15,0 L22,7 L22,22 C22,24.209139 20.209139,26 18,26 L4,26 C1.790861,26 2.705415e-16,24.209139 0,22 L0,4 C-2.705415e-16,1.790861 1.790861,4.05812251e-16 4,0 L15,0 Z"/>
    <filter id="package-x-generic-a" width="131.8%" height="126.9%" x="-15.9%" y="-9.6%" filterUnits="objectBoundingBox">
      <feOffset dy="1" in="SourceAlpha" result="shadowOffsetOuter1"/>
      <feGaussianBlur in="shadowOffsetOuter1" result="shadowBlurOuter1" stdDeviation="1"/>
      <feColorMatrix in="shadowBlurOuter1" values="0 0 0 0 0.474509804   0 0 0 0 0.619607843   0 0 0 0 0.701960784  0 0 0 0.5 0"/>
    </filter>
    <linearGradient id="package-x-generic-f" x1="50%" x2="10.489%" y1="50%" y2="91.194%">
      <stop offset="0%" stop-color="#FFF" stop-opacity=".1"/>
      <stop offset="100%" stop-color="#FFF" stop-opacity=".3"/>
    </linearGradient>
    <path id="package-x-generic-e" d="M15,0 L22,7 L17.25,7 C16.0073593,7 15,5.99264069 15,4.75 L15,0 Z"/>
    <filter id="package-x-generic-d" width="157.1%" height="157.1%" x="-28.6%" y="-14.3%" filterUnits="objectBoundingBox">
      <feOffset dy="1" in="SourceAlpha" result="shadowOffsetOuter1"/>
      <feGaussianBlur in="shadowOffsetOuter1" result="shadowBlurOuter1" stdDeviation=".5"/>
      <feComposite in="shadowBlurOuter1" in2="SourceAlpha" operator="out" result="shadowBlurOuter1"/>
      <feColorMatrix in="shadowBlurOuter1" values="0 0 0 0 0   0 0 0 0 0   0 0 0 0 0  0 0 0 0.05 0"/>
    </filter>
  </defs>
  <g fill="none" fill-rule="evenodd">
    <g transform="translate(5 3)">
      <use fill="#000" filter="url(#package-x-generic-a)" xlink:href="#package-x-generic-b"/>
      <use fill="url(#package-x-generic-c)" xlink:href="#package-x-generic-b"/>
      <use fill="#000" filter="url(#package-x-generic-d)" xlink:href="#package-x-generic-e"/>
      <use fill="url(#package-x-generic-f)" xlink:href="#package-x-generic-e"/>
    </g>
    <g transform="translate(8 12)">
      <rect width="11" height="7" x="2.5" y="3.5" stroke="#FFF" stroke-linecap="round" stroke-linejoin="round"/>
      <polygon stroke="#FFF" stroke-linecap="round" stroke-linejoin="round" points="2.5 .5 .5 3.5 15.5 3.5 13.5 .5"/>
      <polygon fill="#FFF" points="11 5 9 5 9 7 7.5 7 10 9.5 12.5 7 11 7"/>
    </g>
  </g>
</svg>
