<?xml version="1.0" encoding="UTF-8"?>
<svg width="64px" height="64px" viewBox="0 0 64 64" version="1.1" xmlns="http://www.w3.org/2000/svg" xmlns:xlink="http://www.w3.org/1999/xlink">
    <title>apps/64/dde-introduction</title>
    <defs>
        <filter x="-8.6%" y="-6.9%" width="117.2%" height="117.2%" filterUnits="objectBoundingBox" id="filter-1">
            <feOffset dx="0" dy="1" in="SourceAlpha" result="shadowOffsetOuter1"></feOffset>
            <feGaussianBlur stdDeviation="1.5" in="shadowOffsetOuter1" result="shadowBlurOuter1"></feGaussianBlur>
            <feColorMatrix values="0 0 0 0 0   0 0 0 0 0   0 0 0 0 0  0 0 0 0.2 0" type="matrix" in="shadowBlurOuter1" result="shadowMatrixOuter1"></feColorMatrix>
            <feMerge>
                <feMergeNode in="shadowMatrixOuter1"></feMergeNode>
                <feMergeNode in="SourceGraphic"></feMergeNode>
            </feMerge>
        </filter>
        <linearGradient x1="42.15262%" y1="0%" x2="42.1526194%" y2="100%" id="linearGradient-2">
            <stop stop-color="#00D8A5" offset="0%"></stop>
            <stop stop-color="#0058FF" offset="100%"></stop>
        </linearGradient>
    </defs>
    <g id="apps/64/dde-introduction" stroke="none" stroke-width="1" fill="none" fill-rule="evenodd">
        <g id="编组" filter="url(#filter-1)" transform="translate(3, 3)">
            <circle id="Mask" fill="url(#linearGradient-2)" cx="29" cy="29" r="29"></circle>
            <g id="Group" transform="translate(3.1388, 8.075)">
                <path d="M30.3384504,3.15442823 C36.8802368,3.15442823 42.1834024,8.45759384 42.1834024,14.9993801 L42.1834024,37.1544282 C42.1834024,38.5351401 41.0641142,39.6544282 39.6834024,39.6544282 L18.4934985,39.6544282 L18.4934985,39.6544282 L18.4934985,14.9993801 C18.4934985,8.45759384 23.7966641,3.15442823 30.3384504,3.15442823 Z" id="Rectangle" fill="#404040" transform="translate(30.3385, 21.4044) rotate(-315) translate(-30.3385, -21.4044)"></path>
                <path d="M30.3384504,3.15442823 C36.8802368,3.15442823 42.1834024,8.45759384 42.1834024,14.9993801 L42.1834024,37.1544282 C42.1834024,38.5351401 41.0641142,39.6544282 39.6834024,39.6544282 L18.4934985,39.6544282 L18.4934985,14.9993801 C18.4934985,8.45759384 23.7966641,3.15442823 30.3384504,3.15442823 Z M30.3384504,4.65442823 C24.7187529,4.65442823 20.1456447,9.13541018 19.997217,14.7192831 L19.9934985,14.9993801 L19.993,38.154 L39.6834024,38.1544282 C40.1962382,38.1544282 40.6189095,37.768388 40.6766746,37.2710494 L40.6834024,37.1544282 L40.6834024,14.9993801 C40.6834024,9.28602096 36.0518096,4.65442823 30.3384504,4.65442823 Z" id="Rectangle" fill="#373737" fill-rule="nonzero" transform="translate(30.3385, 21.4044) rotate(-315) translate(-30.3385, -21.4044)"></path>
                <path d="M15.0250787,9.4096941 L37.0923864,9.4096941 C38.4730983,9.4096941 39.5923864,10.5289822 39.5923864,11.9096941 L39.5923864,30.7750787 C39.5923864,32.1557906 38.4730983,33.2750787 37.0923864,33.2750787 L15.0250787,33.2750787 C8.43483473,33.2750787 3.09238641,27.9326304 3.09238641,21.3423864 C3.09238641,14.7521424 8.43483473,9.4096941 15.0250787,9.4096941 Z" id="Rectangle-13" fill="#FFFFFF" transform="translate(21.3424, 21.3424) rotate(-315) translate(-21.3424, -21.3424)"></path>
                <rect id="Rectangle-2" fill="#373737" transform="translate(33.3059, 25.2067) rotate(-315) translate(-33.3059, -25.2067)" x="26.2013724" y="24.3293387" width="14.2091346" height="1.75480769"></rect>
                <rect id="Rectangle-2" fill="#373737" transform="translate(29.5834, 28.9293) rotate(-315) translate(-29.5834, -28.9293)" x="22.4788632" y="28.051848" width="14.2091346" height="1.75480769"></rect>
                <path d="M15.2020788,21.7257807 C15.9780655,21.7257807 16.6805895,22.0403115 17.1891169,22.5488388 C17.6976443,23.0573662 18.012175,23.7598903 18.012175,24.5358769 L18.012175,29.2762615 L12.3919827,29.2762615 L12.3919827,24.5358769 C12.3919827,23.7598903 12.7065134,23.0573662 13.2150408,22.5488388 C13.7235682,22.0403115 14.4260922,21.7257807 15.2020788,21.7257807 Z" id="Rectangle-14" stroke="#373737" stroke-width="1.75" fill="#404040" transform="translate(15.2021, 25.501) rotate(-315) translate(-15.2021, -25.501)"></path>
                <path d="M19.0486717,25.5723736 C19.7762007,25.5723736 20.4348545,25.867263 20.9116262,26.3440346 C21.3883978,26.8208062 21.6832871,27.4794601 21.6832871,28.206989 L21.6832871,33.1228544 L16.4140564,33.1228544 L16.4140564,28.206989 C16.4140564,27.4794601 16.7089457,26.8208062 17.1857173,26.3440346 C17.662489,25.867263 18.3211428,25.5723736 19.0486717,25.5723736 Z" id="Rectangle-14" stroke="#373737" stroke-width="1.75" fill="#404040" transform="translate(19.0487, 29.3476) rotate(-315) translate(-19.0487, -29.3476)"></path>
                <path d="M22.771181,29.2948829 C23.49871,29.2948829 24.1573638,29.5897723 24.6341354,30.0665439 C25.110907,30.5433155 25.4057964,31.2019693 25.4057964,31.9294983 L25.4057964,36.8453637 L20.1365656,36.8453637 L20.1365656,31.9294983 C20.1365656,31.2019693 20.431455,30.5433155 20.9082266,30.0665439 C21.3849982,29.5897723 22.0436521,29.2948829 22.771181,29.2948829 Z" id="Rectangle-14" stroke="#373737" stroke-width="1.75" fill="#404040" transform="translate(22.7712, 33.0701) rotate(-315) translate(-22.7712, -33.0701)"></path>
                <path d="M26.6177739,32.2664758 C28.6529963,32.2664758 30.3028701,33.9163495 30.3028701,35.9515719 L30.3028701,39.0669566 C30.3028701,40.4476684 29.1835819,41.5669566 27.8028701,41.5669566 L22.9326777,41.5669566 L22.9326777,41.5669566 L22.9326777,35.9515719 C22.9326777,33.9163495 24.5825515,32.2664758 26.6177739,32.2664758 Z" id="Rectangle-14" fill="#404040" transform="translate(26.6178, 36.9167) rotate(-315) translate(-26.6178, -36.9167)"></path>
                <path d="M26.6177739,32.2664758 C28.6529963,32.2664758 30.3028701,33.9163495 30.3028701,35.9515719 L30.3028701,39.0669566 C30.3028701,40.4476684 29.1835819,41.5669566 27.8028701,41.5669566 L22.9326777,41.5669566 L22.9326777,35.9515719 C22.9326777,33.9163495 24.5825515,32.2664758 26.6177739,32.2664758 Z M26.6177739,34.0164758 C25.5999414,34.0164758 24.7656482,34.8023008 24.6884997,35.8003453 L24.6826777,35.9515719 L24.682,39.816 L27.8028701,39.8169566 C28.1825658,39.8169566 28.496361,39.5348027 28.5460234,39.1687271 L28.5528701,39.0669566 L28.5528701,35.9515719 C28.5528701,34.8828479 27.686498,34.0164758 26.6177739,34.0164758 Z" id="Rectangle-14" fill="#373737" fill-rule="nonzero" transform="translate(26.6178, 36.9167) rotate(-315) translate(-26.6178, -36.9167)"></path>
                <path d="M27.0360897,8.76472068 L27.0360897,15.4623611 C27.0360897,19.0586156 24.2863001,21.9739559 20.8942627,21.9739559 L20.8942627,8.76472068 L20.8942627,8.76472068" id="Rectangle-15" fill="#404040" transform="translate(23.9652, 15.3693) rotate(-315) translate(-23.9652, -15.3693)"></path>
                <path d="M21.561363,8.71743389 L21.5611003,20.9727132 L21.7193732,20.9430174 C24.0592567,20.4440208 25.8512383,18.2830056 25.9489873,15.642546 L25.9531899,15.4150743 L25.9531899,8.71743389 L27.7031899,8.71743389 L27.7031899,15.4150743 C27.7031899,19.4004815 24.6998976,22.6659216 20.9233819,22.7975449 L20.686363,22.8016691 L19.811363,22.8016691 L19.811363,8.71743389 L21.561363,8.71743389 Z" id="Rectangle-15" fill="#373737" fill-rule="nonzero" transform="translate(23.7573, 15.7596) rotate(-315) translate(-23.7573, -15.7596)"></path>
            </g>
        </g>
        <g id="Guide/64" transform="translate(2, 2)"></g>
    </g>
</svg>