<?xml version="1.0" encoding="UTF-8"?>
<svg width="64px" height="64px" viewBox="0 0 64 64" version="1.1" xmlns="http://www.w3.org/2000/svg" xmlns:xlink="http://www.w3.org/1999/xlink">
    <title>apps/64/deepin-diskmanager</title>
    <defs>
        <filter x="-10.4%" y="-6.7%" width="120.8%" height="116.7%" filterUnits="objectBoundingBox" id="filter-1">
            <feOffset dx="0" dy="1" in="SourceAlpha" result="shadowOffsetOuter1"></feOffset>
            <feGaussianBlur stdDeviation="1.5" in="shadowOffsetOuter1" result="shadowBlurOuter1"></feGaussianBlur>
            <feColorMatrix values="0 0 0 0 0   0 0 0 0 0   0 0 0 0 0  0 0 0 0.2 0" type="matrix" in="shadowBlurOuter1" result="shadowMatrixOuter1"></feColorMatrix>
            <feMerge>
                <feMergeNode in="shadowMatrixOuter1"></feMergeNode>
                <feMergeNode in="SourceGraphic"></feMergeNode>
            </feMerge>
        </filter>
        <linearGradient x1="50%" y1="0%" x2="50%" y2="100%" id="linearGradient-2">
            <stop stop-color="#E9EEF2" offset="0%"></stop>
            <stop stop-color="#95A5AF" offset="100%"></stop>
        </linearGradient>
        <rect id="path-3" x="0.000999979167" y="0" width="47.999" height="59.0163934" rx="8"></rect>
        <filter x="-1.0%" y="-0.8%" width="102.1%" height="101.7%" filterUnits="objectBoundingBox" id="filter-4">
            <feOffset dx="0" dy="1" in="SourceAlpha" result="shadowOffsetInner1"></feOffset>
            <feComposite in="shadowOffsetInner1" in2="SourceAlpha" operator="arithmetic" k2="-1" k3="1" result="shadowInnerInner1"></feComposite>
            <feColorMatrix values="0 0 0 0 1   0 0 0 0 1   0 0 0 0 1  0 0 0 0.25 0" type="matrix" in="shadowInnerInner1"></feColorMatrix>
        </filter>
        <linearGradient x1="50%" y1="0%" x2="50%" y2="100%" id="linearGradient-5">
            <stop stop-color="#94A0A9" offset="0%"></stop>
            <stop stop-color="#8C979D" offset="100%"></stop>
        </linearGradient>
        <path d="M48,26.557377 L48,32.4590164 C46.3431803,32.4590164 45.0000625,31.1378894 45.0000625,29.5081967 C45.0000625,27.878504 46.3431803,26.557377 48,26.557377 Z" id="path-6"></path>
        <filter x="-33.3%" y="-16.9%" width="166.7%" height="133.9%" filterUnits="objectBoundingBox" id="filter-7">
            <feGaussianBlur stdDeviation="0.5" in="SourceAlpha" result="shadowBlurInner1"></feGaussianBlur>
            <feOffset dx="0" dy="1" in="shadowBlurInner1" result="shadowOffsetInner1"></feOffset>
            <feComposite in="shadowOffsetInner1" in2="SourceAlpha" operator="arithmetic" k2="-1" k3="1" result="shadowInnerInner1"></feComposite>
            <feColorMatrix values="0 0 0 0 0   0 0 0 0 0   0 0 0 0 0  0 0 0 0.2 0" type="matrix" in="shadowInnerInner1"></feColorMatrix>
        </filter>
        <path d="M2.9999375,26.557377 L2.9999375,32.4590164 C1.34311777,32.4590164 0,31.1378894 0,29.5081967 C0,27.878504 1.34311777,26.557377 2.9999375,26.557377 Z" id="path-8"></path>
        <filter x="-33.3%" y="-16.9%" width="166.7%" height="133.9%" filterUnits="objectBoundingBox" id="filter-9">
            <feGaussianBlur stdDeviation="0.5" in="SourceAlpha" result="shadowBlurInner1"></feGaussianBlur>
            <feOffset dx="0" dy="1" in="shadowBlurInner1" result="shadowOffsetInner1"></feOffset>
            <feComposite in="shadowOffsetInner1" in2="SourceAlpha" operator="arithmetic" k2="-1" k3="1" result="shadowInnerInner1"></feComposite>
            <feColorMatrix values="0 0 0 0 0   0 0 0 0 0   0 0 0 0 0  0 0 0 0.2 0" type="matrix" in="shadowInnerInner1"></feColorMatrix>
        </filter>
        <ellipse id="path-10" cx="43.0001042" cy="52.1311475" rx="1" ry="1"></ellipse>
        <filter x="-50.0%" y="-50.8%" width="200.0%" height="201.7%" filterUnits="objectBoundingBox" id="filter-11">
            <feGaussianBlur stdDeviation="0.5" in="SourceAlpha" result="shadowBlurInner1"></feGaussianBlur>
            <feOffset dx="0" dy="1" in="shadowBlurInner1" result="shadowOffsetInner1"></feOffset>
            <feComposite in="shadowOffsetInner1" in2="SourceAlpha" operator="arithmetic" k2="-1" k3="1" result="shadowInnerInner1"></feComposite>
            <feColorMatrix values="0 0 0 0 0   0 0 0 0 0   0 0 0 0 0  0 0 0 0.2 0" type="matrix" in="shadowInnerInner1"></feColorMatrix>
        </filter>
        <ellipse id="path-12" cx="43.0001042" cy="4.91803279" rx="1" ry="1"></ellipse>
        <filter x="-50.0%" y="-50.8%" width="200.0%" height="201.7%" filterUnits="objectBoundingBox" id="filter-13">
            <feGaussianBlur stdDeviation="0.5" in="SourceAlpha" result="shadowBlurInner1"></feGaussianBlur>
            <feOffset dx="0" dy="1" in="shadowBlurInner1" result="shadowOffsetInner1"></feOffset>
            <feComposite in="shadowOffsetInner1" in2="SourceAlpha" operator="arithmetic" k2="-1" k3="1" result="shadowInnerInner1"></feComposite>
            <feColorMatrix values="0 0 0 0 0   0 0 0 0 0   0 0 0 0 0  0 0 0 0.2 0" type="matrix" in="shadowInnerInner1"></feColorMatrix>
        </filter>
        <ellipse id="path-14" cx="5.00089581" cy="4.91803279" rx="1" ry="1"></ellipse>
        <filter x="-50.0%" y="-50.8%" width="200.0%" height="201.7%" filterUnits="objectBoundingBox" id="filter-15">
            <feGaussianBlur stdDeviation="0.5" in="SourceAlpha" result="shadowBlurInner1"></feGaussianBlur>
            <feOffset dx="0" dy="1" in="shadowBlurInner1" result="shadowOffsetInner1"></feOffset>
            <feComposite in="shadowOffsetInner1" in2="SourceAlpha" operator="arithmetic" k2="-1" k3="1" result="shadowInnerInner1"></feComposite>
            <feColorMatrix values="0 0 0 0 0   0 0 0 0 0   0 0 0 0 0  0 0 0 0.2 0" type="matrix" in="shadowInnerInner1"></feColorMatrix>
        </filter>
        <path d="M2.00095831,38.3606557 L2.00095831,51.147541 C2.00095831,54.4069264 4.68719385,57.0491803 8.00083332,57.0491803 L25.0004792,57.0491803 C25.5527524,57.0491803 26.0004583,56.6088047 26.0004583,56.0655738 L26.0004583,48.3186182 C26.0004583,47.7753944 25.5527452,47.3350246 25.0004792,47.3350246 L24.9220899,47.3380515 C21.9402186,47.5686885 18.7993301,46.8713052 15.4994244,45.2459016 C11.7991338,43.4232842 8.64306199,40.8003334 6.03120909,37.3770492 L3.00093748,37.3770492 C2.44866424,37.3770492 2.00095831,37.8174248 2.00095831,38.3606557 Z" id="path-16"></path>
        <filter x="-4.2%" y="-5.1%" width="108.3%" height="110.2%" filterUnits="objectBoundingBox" id="filter-17">
            <feGaussianBlur stdDeviation="0.5" in="SourceAlpha" result="shadowBlurInner1"></feGaussianBlur>
            <feOffset dx="0" dy="1" in="shadowBlurInner1" result="shadowOffsetInner1"></feOffset>
            <feComposite in="shadowOffsetInner1" in2="SourceAlpha" operator="arithmetic" k2="-1" k3="1" result="shadowInnerInner1"></feComposite>
            <feColorMatrix values="0 0 0 0 0   0 0 0 0 0   0 0 0 0 0  0 0 0 0.2 0" type="matrix" in="shadowInnerInner1"></feColorMatrix>
        </filter>
        <linearGradient x1="50%" y1="0%" x2="50%" y2="100%" id="linearGradient-18">
            <stop stop-color="#EAF0F4" offset="0%"></stop>
            <stop stop-color="#C7D1D8" offset="100%"></stop>
        </linearGradient>
        <path d="M5.0513448,39.3442623 C7.72435005,42.6279464 10.9125292,45.1866575 14.6039294,47.0048958 C17.8296653,48.5937662 20.9668465,49.3831111 24.0005,49.3471405 L24.0005,55.0819672 L8.00083332,55.0819672 C5.79174034,55.0819672 4.00091665,53.3204646 4.00091665,51.147541 L4.00091665,39.3442623 L5.0513448,39.3442623 Z M22.5005312,52.1311475 C22.2243946,52.1311475 22.0005417,52.3513354 22.0005417,52.6229508 C22.0005417,52.8945663 22.2243946,53.1147541 22.5005312,53.1147541 C22.7766679,53.1147541 23.0005208,52.8945663 23.0005208,52.6229508 C23.0005208,52.3513354 22.7766679,52.1311475 22.5005312,52.1311475 Z M5.5008854,41.3114754 C5.22474878,41.3114754 5.00089581,41.5316632 5.00089581,41.8032787 C5.00089581,42.0748941 5.22474878,42.295082 5.5008854,42.295082 C5.77702202,42.295082 6.00087498,42.0748941 6.00087498,41.8032787 C6.00087498,41.5316632 5.77702202,41.3114754 5.5008854,41.3114754 Z" id="path-19"></path>
        <filter x="-17.5%" y="-15.9%" width="135.0%" height="144.5%" filterUnits="objectBoundingBox" id="filter-20">
            <feOffset dx="0" dy="1" in="SourceAlpha" result="shadowOffsetOuter1"></feOffset>
            <feGaussianBlur stdDeviation="1" in="shadowOffsetOuter1" result="shadowBlurOuter1"></feGaussianBlur>
            <feColorMatrix values="0 0 0 0 0   0 0 0 0 0   0 0 0 0 0  0 0 0 0.275868663 0" type="matrix" in="shadowBlurOuter1"></feColorMatrix>
        </filter>
        <rect id="path-21" x="27.0004375" y="43.2786885" width="1.99995833" height="1.96721311" rx="0.5"></rect>
        <filter x="-50.0%" y="-50.8%" width="200.0%" height="201.7%" filterUnits="objectBoundingBox" id="filter-22">
            <feGaussianBlur stdDeviation="0.5" in="SourceAlpha" result="shadowBlurInner1"></feGaussianBlur>
            <feOffset dx="0" dy="1" in="shadowBlurInner1" result="shadowOffsetInner1"></feOffset>
            <feComposite in="shadowOffsetInner1" in2="SourceAlpha" operator="arithmetic" k2="-1" k3="1" result="shadowInnerInner1"></feComposite>
            <feColorMatrix values="0 0 0 0 0   0 0 0 0 0   0 0 0 0 0  0 0 0 0.2 0" type="matrix" in="shadowInnerInner1"></feColorMatrix>
        </filter>
        <rect id="path-23" x="13.0007292" y="43.2786885" width="11.99975" height="1.96721311" rx="0.983606557"></rect>
        <filter x="-8.3%" y="-50.8%" width="116.7%" height="201.7%" filterUnits="objectBoundingBox" id="filter-24">
            <feGaussianBlur stdDeviation="0.5" in="SourceAlpha" result="shadowBlurInner1"></feGaussianBlur>
            <feOffset dx="0" dy="1" in="shadowBlurInner1" result="shadowOffsetInner1"></feOffset>
            <feComposite in="shadowOffsetInner1" in2="SourceAlpha" operator="arithmetic" k2="-1" k3="1" result="shadowInnerInner1"></feComposite>
            <feColorMatrix values="0 0 0 0 0   0 0 0 0 0   0 0 0 0 0  0 0 0 0.2 0" type="matrix" in="shadowInnerInner1"></feColorMatrix>
        </filter>
        <linearGradient x1="51.7606421%" y1="0%" x2="51.7606421%" y2="100%" id="linearGradient-25">
            <stop stop-color="#6B6C77" offset="0%"></stop>
            <stop stop-color="#2B2F42" offset="83.5058272%"></stop>
            <stop stop-color="#5F627C" offset="100%"></stop>
        </linearGradient>
        <ellipse id="path-26" cx="17.999625" cy="17.704918" rx="17.999625" ry="17.704918"></ellipse>
        <filter x="-9.7%" y="-7.1%" width="119.4%" height="119.8%" filterUnits="objectBoundingBox" id="filter-27">
            <feOffset dx="0" dy="1" in="SourceAlpha" result="shadowOffsetOuter1"></feOffset>
            <feGaussianBlur stdDeviation="1" in="shadowOffsetOuter1" result="shadowBlurOuter1"></feGaussianBlur>
            <feColorMatrix values="0 0 0 0 0   0 0 0 0 0   0 0 0 0 0  0 0 0 0.271689248 0" type="matrix" in="shadowBlurOuter1"></feColorMatrix>
        </filter>
        <linearGradient x1="50%" y1="0%" x2="50%" y2="100%" id="linearGradient-28">
            <stop stop-color="#FFFFFF" stop-opacity="0.15" offset="0%"></stop>
            <stop stop-color="#000000" stop-opacity="0.328238225" offset="100%"></stop>
        </linearGradient>
        <linearGradient x1="50%" y1="0%" x2="50%" y2="100%" id="linearGradient-29">
            <stop stop-color="#393741" offset="0%"></stop>
            <stop stop-color="#1F1C25" offset="100%"></stop>
        </linearGradient>
        <ellipse id="path-30" cx="14.9996875" cy="14.7540984" rx="14.9996875" ry="14.7540984"></ellipse>
        <filter x="-13.3%" y="-6.8%" width="126.7%" height="127.1%" filterUnits="objectBoundingBox" id="filter-31">
            <feOffset dx="0" dy="2" in="SourceAlpha" result="shadowOffsetOuter1"></feOffset>
            <feGaussianBlur stdDeviation="1" in="shadowOffsetOuter1" result="shadowBlurOuter1"></feGaussianBlur>
            <feColorMatrix values="0 0 0 0 0   0 0 0 0 0   0 0 0 0 0  0 0 0 0.3 0" type="matrix" in="shadowBlurOuter1"></feColorMatrix>
        </filter>
        <linearGradient x1="50%" y1="0%" x2="50%" y2="100%" id="linearGradient-32">
            <stop stop-color="#393741" offset="0%"></stop>
            <stop stop-color="#1F1C25" offset="100%"></stop>
        </linearGradient>
        <ellipse id="path-33" cx="5.999875" cy="5.90163934" rx="5.999875" ry="5.90163934"></ellipse>
        <filter x="-16.7%" y="-8.5%" width="133.3%" height="133.9%" filterUnits="objectBoundingBox" id="filter-34">
            <feOffset dx="0" dy="1" in="SourceAlpha" result="shadowOffsetOuter1"></feOffset>
            <feGaussianBlur stdDeviation="0.5" in="shadowOffsetOuter1" result="shadowBlurOuter1"></feGaussianBlur>
            <feColorMatrix values="0 0 0 0 0   0 0 0 0 0   0 0 0 0 0  0 0 0 0.3 0" type="matrix" in="shadowBlurOuter1"></feColorMatrix>
        </filter>
        <linearGradient x1="50%" y1="0%" x2="50%" y2="100%" id="linearGradient-35">
            <stop stop-color="#E5E5E5" stop-opacity="0.15" offset="0%"></stop>
            <stop stop-color="#565656" stop-opacity="0.328238225" offset="100%"></stop>
        </linearGradient>
        <linearGradient x1="50%" y1="0%" x2="50%" y2="100%" id="linearGradient-36">
            <stop stop-color="#FBFBFB" offset="0%"></stop>
            <stop stop-color="#B7B7B7" offset="100%"></stop>
        </linearGradient>
        <path d="M17.999625,13.7704918 C20.208718,13.7704918 21.9995417,15.5319944 21.9995417,17.704918 C21.9995417,19.8778416 20.208718,21.6393443 17.999625,21.6393443 C15.790532,21.6393443 13.9997083,19.8778416 13.9997083,17.704918 C13.9997083,15.5319944 15.790532,13.7704918 17.999625,13.7704918 Z M17.937573,16.3934426 C17.2012087,16.3934426 16.6042675,16.9806102 16.6042675,17.704918 C16.6042675,18.4292259 17.2012087,19.0163934 17.937573,19.0163934 C18.6739373,19.0163934 19.2708786,18.4292259 19.2708786,17.704918 C19.2708786,16.9806102 18.6739373,16.3934426 17.937573,16.3934426 Z" id="path-37"></path>
        <filter x="-25.0%" y="-12.7%" width="150.0%" height="150.8%" filterUnits="objectBoundingBox" id="filter-38">
            <feOffset dx="0" dy="1" in="SourceAlpha" result="shadowOffsetOuter1"></feOffset>
            <feGaussianBlur stdDeviation="0.5" in="shadowOffsetOuter1" result="shadowBlurOuter1"></feGaussianBlur>
            <feColorMatrix values="0 0 0 0 0   0 0 0 0 0   0 0 0 0 0  0 0 0 0.3 0" type="matrix" in="shadowBlurOuter1"></feColorMatrix>
        </filter>
        <filter x="-15.6%" y="-3.2%" width="131.3%" height="131.8%" filterUnits="objectBoundingBox" id="filter-39">
            <feOffset dx="0" dy="0.5" in="SourceAlpha" result="shadowOffsetInner1"></feOffset>
            <feComposite in="shadowOffsetInner1" in2="SourceAlpha" operator="arithmetic" k2="-1" k3="1" result="shadowInnerInner1"></feComposite>
            <feColorMatrix values="0 0 0 0 1   0 0 0 0 1   0 0 0 0 1  0 0 0 0.5 0" type="matrix" in="shadowInnerInner1"></feColorMatrix>
        </filter>
        <linearGradient x1="97.2470411%" y1="4.10311138%" x2="6.27062595%" y2="91.8997514%" id="linearGradient-40">
            <stop stop-color="#F7F9FB" offset="0%"></stop>
            <stop stop-color="#ECF1F6" offset="100%"></stop>
        </linearGradient>
        <path d="M6.76722567,18.1735744 L19.7029972,2.02443493 C19.8879094,1.80829693 19.9995833,1.53094865 19.9995833,1.22835546 C19.9995833,0.551123072 19.4393391,0 18.7490235,0 C18.4414223,0 18.1594839,0.108126635 17.9415265,0.291757476 L1.52335815,13.0169252 C0.598679756,13.6887398 0,14.7677007 0,15.983376 C0,18.0223354 1.67897505,19.6721311 3.74980469,19.6721311 C4.98759179,19.6721311 6.08429248,19.0831983 6.76722567,18.1735744 Z" id="path-41"></path>
        <filter x="-10.0%" y="-5.1%" width="120.0%" height="120.3%" filterUnits="objectBoundingBox" id="filter-42">
            <feOffset dx="0" dy="1" in="SourceAlpha" result="shadowOffsetOuter1"></feOffset>
            <feGaussianBlur stdDeviation="0.5" in="shadowOffsetOuter1" result="shadowBlurOuter1"></feGaussianBlur>
            <feColorMatrix values="0 0 0 0 0   0 0 0 0 0   0 0 0 0 0  0 0 0 0.300344187 0" type="matrix" in="shadowBlurOuter1"></feColorMatrix>
        </filter>
        <filter x="-5.0%" y="0.0%" width="110.0%" height="110.2%" filterUnits="objectBoundingBox" id="filter-43">
            <feOffset dx="0" dy="0" in="SourceAlpha" result="shadowOffsetInner1"></feOffset>
            <feComposite in="shadowOffsetInner1" in2="SourceAlpha" operator="arithmetic" k2="-1" k3="1" result="shadowInnerInner1"></feComposite>
            <feColorMatrix values="0 0 0 0 1   0 0 0 0 1   0 0 0 0 1  0 0 0 0.942198427 0" type="matrix" in="shadowInnerInner1"></feColorMatrix>
        </filter>
        <linearGradient x1="50%" y1="0%" x2="50%" y2="97.6792756%" id="linearGradient-44">
            <stop stop-color="#959B9F" offset="0%"></stop>
            <stop stop-color="#727A81" offset="100%"></stop>
        </linearGradient>
        <linearGradient x1="50%" y1="0%" x2="50%" y2="99.448208%" id="linearGradient-45">
            <stop stop-color="#4C5860" offset="0%"></stop>
            <stop stop-color="#5A656C" offset="100%"></stop>
        </linearGradient>
        <linearGradient x1="50%" y1="1.83254943%" x2="50%" y2="100%" id="linearGradient-46">
            <stop stop-color="#A5ABB2" offset="0%"></stop>
            <stop stop-color="#EAF0FF" offset="100%"></stop>
        </linearGradient>
        <path d="M28.0004167,48.1967213 C28.5526899,48.1967213 29.0003958,48.6444272 29.0003958,49.1967005 L29.0003958,55.0655946 C29.0003958,55.6178678 28.5526899,56.0655738 28.0004167,56.0655738 C27.4481434,56.0655738 27.0004375,55.6178678 27.0004375,55.0655946 L27.0004375,49.1967005 C27.0004375,48.6444272 27.4481434,48.1967213 28.0004167,48.1967213 Z M32.0003333,48.1967213 C32.5526066,48.1967213 33.0003125,48.6444272 33.0003125,49.1967005 L33.0003125,55.0655946 C33.0003125,55.6178678 32.5526066,56.0655738 32.0003333,56.0655738 C31.4480601,56.0655738 31.0003542,55.6178678 31.0003542,55.0655946 L31.0003542,49.1967005 C31.0003542,48.6444272 31.4480601,48.1967213 32.0003333,48.1967213 Z M36.00025,48.1967213 C36.5525232,48.1967213 37.0002292,48.6444272 37.0002292,49.1967005 L37.0002292,55.0655946 C37.0002292,55.6178678 36.5525232,56.0655738 36.00025,56.0655738 C35.4479768,56.0655738 35.0002708,55.6178678 35.0002708,55.0655946 L35.0002708,49.1967005 C35.0002708,48.6444272 35.4479768,48.1967213 36.00025,48.1967213 Z M40.0001667,48.1967213 C40.5524399,48.1967213 41.0001458,48.6444272 41.0001458,49.1967005 L41.0001458,55.0655946 C41.0001458,55.6178678 40.5524399,56.0655738 40.0001667,56.0655738 C39.4478934,56.0655738 39.0001875,55.6178678 39.0001875,55.0655946 L39.0001875,49.1967005 C39.0001875,48.6444272 39.4478934,48.1967213 40.0001667,48.1967213 Z" id="path-47"></path>
        <filter x="-7.1%" y="-12.7%" width="114.3%" height="125.4%" filterUnits="objectBoundingBox" id="filter-48">
            <feGaussianBlur stdDeviation="0.5" in="SourceAlpha" result="shadowBlurInner1"></feGaussianBlur>
            <feOffset dx="0" dy="1" in="shadowBlurInner1" result="shadowOffsetInner1"></feOffset>
            <feComposite in="shadowOffsetInner1" in2="SourceAlpha" operator="arithmetic" k2="-1" k3="1" result="shadowInnerInner1"></feComposite>
            <feColorMatrix values="0 0 0 0 0   0 0 0 0 0   0 0 0 0 0  0 0 0 0.2 0" type="matrix" in="shadowInnerInner1"></feColorMatrix>
        </filter>
    </defs>
    <g id="apps/64/deepin-diskmanager" stroke="none" stroke-width="1" fill="none" fill-rule="evenodd">
        <g id="编组-5" filter="url(#filter-1)" transform="translate(8, 2)">
            <rect id="矩形" fill="#424F59" x="0.000999979167" y="0" width="47.999" height="60" rx="8"></rect>
            <g id="矩形备份">
                <use fill="url(#linearGradient-2)" fill-rule="evenodd" xlink:href="#path-3"></use>
                <use fill="black" fill-opacity="1" filter="url(#filter-4)" xlink:href="#path-3"></use>
            </g>
            <g id="形状结合">
                <use fill="url(#linearGradient-5)" fill-rule="evenodd" xlink:href="#path-6"></use>
                <use fill="black" fill-opacity="1" filter="url(#filter-7)" xlink:href="#path-6"></use>
            </g>
            <g id="形状结合备份" transform="translate(1.5, 29.5082) scale(-1, 1) translate(-1.5, -29.5082)">
                <use fill="url(#linearGradient-5)" fill-rule="evenodd" xlink:href="#path-8"></use>
                <use fill="black" fill-opacity="1" filter="url(#filter-9)" xlink:href="#path-8"></use>
            </g>
            <g id="椭圆形备份-7">
                <use fill="#8C969D" fill-rule="evenodd" xlink:href="#path-10"></use>
                <use fill="black" fill-opacity="1" filter="url(#filter-11)" xlink:href="#path-10"></use>
            </g>
            <g id="椭圆形备份-8">
                <use fill="#8C969D" fill-rule="evenodd" xlink:href="#path-12"></use>
                <use fill="black" fill-opacity="1" filter="url(#filter-13)" xlink:href="#path-12"></use>
            </g>
            <g id="椭圆形备份-9">
                <use fill="#8C969D" fill-rule="evenodd" xlink:href="#path-14"></use>
                <use fill="black" fill-opacity="1" filter="url(#filter-15)" xlink:href="#path-14"></use>
            </g>
            <g id="路径">
                <use fill="#6C7982" fill-rule="evenodd" xlink:href="#path-16"></use>
                <use fill="black" fill-opacity="1" filter="url(#filter-17)" xlink:href="#path-16"></use>
            </g>
            <g id="形状结合" fill-rule="nonzero">
                <use fill="black" fill-opacity="1" filter="url(#filter-20)" xlink:href="#path-19"></use>
                <use fill="url(#linearGradient-18)" xlink:href="#path-19"></use>
            </g>
            <g id="矩形备份-2">
                <use fill="#A4AFB6" fill-rule="evenodd" xlink:href="#path-21"></use>
                <use fill="black" fill-opacity="1" filter="url(#filter-22)" xlink:href="#path-21"></use>
            </g>
            <g id="矩形">
                <use fill="#A4AFB6" fill-rule="evenodd" xlink:href="#path-23"></use>
                <use fill="black" fill-opacity="1" filter="url(#filter-24)" xlink:href="#path-23"></use>
            </g>
            <g id="编组-17" transform="translate(6.0009, 3.9344)">
                <g id="椭圆形">
                    <use fill="black" fill-opacity="1" filter="url(#filter-27)" xlink:href="#path-26"></use>
                    <use fill="url(#linearGradient-25)" fill-rule="evenodd" xlink:href="#path-26"></use>
                </g>
                <path d="M17.999625,0 C27.9405434,0 35.99925,7.92676181 35.99925,17.704918 C35.99925,27.4830743 27.9405434,35.4098361 17.999625,35.4098361 C8.05870661,35.4098361 0,27.4830743 0,17.704918 C0,7.92676181 8.05870661,0 17.999625,0 Z M17.999625,1 C8.60732991,1 1,8.48277547 1,17.704918 C1,26.9270606 8.60732991,34.4098361 17.999625,34.4098361 C27.3919201,34.4098361 34.99925,26.9270606 34.99925,17.704918 C34.99925,8.48277547 27.3919201,1 17.999625,1 Z" id="椭圆形" fill="url(#linearGradient-28)" fill-rule="nonzero"></path>
                <g id="编组-15" transform="translate(2.9999, 2.9508)">
                    <g id="椭圆形备份-2">
                        <use fill="black" fill-opacity="1" filter="url(#filter-31)" xlink:href="#path-30"></use>
                        <use fill="url(#linearGradient-29)" fill-rule="evenodd" xlink:href="#path-30"></use>
                    </g>
                    <path d="M14.9996875,0 C23.2837862,0 29.999375,6.60563484 29.999375,14.7540984 C29.999375,22.9025619 23.2837862,29.5081967 14.9996875,29.5081967 C6.71558884,29.5081967 0,22.9025619 0,14.7540984 C0,6.60563484 6.71558884,0 14.9996875,0 Z M14.9996875,1 C7.26421214,1 1,7.1616485 1,14.7540984 C1,22.3465482 7.26421214,28.5081967 14.9996875,28.5081967 C22.7351629,28.5081967 28.999375,22.3465482 28.999375,14.7540984 C28.999375,7.1616485 22.7351629,1 14.9996875,1 Z" id="椭圆形备份-2" fill="#000000" fill-rule="nonzero"></path>
                    <path d="M15.5911427,14.0360687 L4.17589424,24.9685207 C2.29844464,23.0441762 0.946259922,20.6202019 0.346053183,17.919599 L15.5911427,14.0360687 Z M25.6694268,4.38406873 C27.3733628,6.0801847 28.6623339,8.18053242 29.3743066,10.5257316 L15.5911427,14.0360687 Z" id="形状结合" fill-opacity="0.304632867" fill="#4F4F50" fill-rule="nonzero" opacity="0.413829985"></path>
                    <path d="M14.913855,14.0483395 L29.6053018,18.1283483 C28.9834395,20.7428374 27.654741,23.0898051 25.8282517,24.9636284 L14.913855,14.0483395 Z M4.80286518,3.93342074 L14.913855,14.0483395 L0.755855006,10.1168616 C1.55973075,7.72657855 2.96810933,5.60702854 4.80286518,3.93342074 Z" id="形状结合" fill-opacity="0.304632867" fill="#4F4F50" fill-rule="nonzero"></path>
                </g>
                <g id="编组-16" transform="translate(17.9996, 17.7049) rotate(-330) translate(-17.9996, -17.7049)translate(11.9998, 11.8033)">
                    <g id="椭圆形备份-3">
                        <use fill="black" fill-opacity="1" filter="url(#filter-34)" xlink:href="#path-33"></use>
                        <use fill="url(#linearGradient-32)" fill-rule="evenodd" xlink:href="#path-33"></use>
                    </g>
                    <path d="M5.999875,0 C9.31351447,0 11.99975,2.64225394 11.99975,5.90163934 C11.99975,9.16102475 9.31351447,11.8032787 5.999875,11.8032787 C2.68623554,11.8032787 -4.54747351e-13,9.16102475 -4.54747351e-13,5.90163934 C-4.54747351e-13,2.64225394 2.68623554,0 5.999875,0 Z M5.999875,2 C3.78348213,2 2,3.75428127 2,5.90163934 C2,8.04899742 3.78348213,9.80327869 5.999875,9.80327869 C8.21626787,9.80327869 9.99975001,8.04899742 9.99975001,5.90163934 C9.99975001,3.75428127 8.21626787,2 5.999875,2 Z" id="椭圆形备份-3" fill="#000000" fill-rule="nonzero"></path>
                    <path d="M5.999875,-0.5 C9.58782612,-0.5 12.49975,2.3642471 12.49975,5.90163934 C12.49975,9.43903159 9.58782612,12.3032787 5.999875,12.3032787 C2.41192389,12.3032787 -0.5,9.43903159 -0.5,5.90163934 C-0.5,2.3642471 2.41192389,-0.5 5.999875,-0.5 Z M5.999875,0 C2.68623554,0 -4.54969395e-13,2.64225394 -4.54969395e-13,5.90163934 C-4.54969395e-13,9.16102475 2.68623554,11.8032787 5.999875,11.8032787 C9.31351447,11.8032787 11.99975,9.16102475 11.99975,5.90163934 C11.99975,2.64225394 9.31351447,0 5.999875,0 Z" id="椭圆形备份-3" fill="url(#linearGradient-35)" fill-rule="nonzero"></path>
                    <path d="M6.89993475,6.42967112 L10.7865718,9.46041859 C10.1879944,10.2381642 9.39801405,10.8654883 8.48559473,11.2745563 L6.57815584,6.7369449 C6.69514334,6.64253067 6.80284524,6.53976951 6.89993475,6.42967112 Z M3.90367133,0.370193863 L4.76620546,2.42215561 C4.72955551,2.41908378 4.6927042,2.41657188 4.65566291,2.41463063 C3.84550899,2.37217226 3.09719922,2.6106981 2.54100972,3.03106698 L1.38488786,2.13006824 C2.04811591,1.34574809 2.91408359,0.733181921 3.90367133,0.370193863 Z" id="形状结合" fill-opacity="0.401305726" fill="#4F4F50" fill-rule="nonzero"></path>
                </g>
                <g id="形状结合">
                    <use fill="black" fill-opacity="1" filter="url(#filter-38)" xlink:href="#path-37"></use>
                    <use fill="url(#linearGradient-36)" fill-rule="evenodd" xlink:href="#path-37"></use>
                    <use fill="black" fill-opacity="1" filter="url(#filter-39)" xlink:href="#path-37"></use>
                </g>
            </g>
            <g id="编组-3" transform="translate(9.0008, 30.4918)">
                <g id="Shape" fill-rule="nonzero">
                    <use fill="black" fill-opacity="1" filter="url(#filter-42)" xlink:href="#path-41"></use>
                    <use fill="url(#linearGradient-40)" xlink:href="#path-41"></use>
                    <use fill="black" fill-opacity="1" filter="url(#filter-43)" xlink:href="#path-41"></use>
                </g>
                <ellipse id="椭圆形" fill="url(#linearGradient-44)" cx="3.99991667" cy="15.7377049" rx="1.99995833" ry="1.96721311"></ellipse>
            </g>
            <g id="编组-4" transform="translate(6.0009, 49.1803)" fill-rule="nonzero">
                <path d="M3.99991667,1.96795073 C3.99991667,3.05426986 3.10394583,3.93442623 1.99995833,3.93442623 C0.895970841,3.93442623 0,3.05426986 0,1.96795073 C0,0.8816316 0.895970841,0 1.99995833,0 C3.10394583,0 3.99991667,0.8816316 3.99991667,1.96795073 Z" id="Shape" fill="url(#linearGradient-45)"></path>
                <path d="M2.9999375,1.96758192 C2.9999375,2.51074148 2.55195208,2.95081967 1.99995833,2.95081967 C1.44796459,2.95081967 0.999979167,2.51074148 0.999979167,1.96758192 C0.999979167,1.42442235 1.44796459,0.983606557 1.99995833,0.983606557 C2.55195208,0.983606557 2.9999375,1.42442235 2.9999375,1.96758192 Z" id="Shape" fill="url(#linearGradient-46)" transform="translate(2, 1.9672) scale(-1, 1) rotate(-180) translate(-2, -1.9672)"></path>
            </g>
            <g id="形状结合">
                <use fill="#6C7982" fill-rule="evenodd" xlink:href="#path-47"></use>
                <use fill="black" fill-opacity="1" filter="url(#filter-48)" xlink:href="#path-47"></use>
            </g>
        </g>
        <g id="Guide/64" transform="translate(2, 2)"></g>
    </g>
</svg>