<svg xmlns="http://www.w3.org/2000/svg" xmlns:xlink="http://www.w3.org/1999/xlink" width="64" height="64" viewBox="0 0 64 64">
  <defs>
    <filter id="64px-b" width="141.7%" height="126.7%" x="-20%" y="-13.3%" filterUnits="objectBoundingBox">
      <feOffset dy="1" in="SourceAlpha" result="shadowOffsetOuter1"/>
      <feGaussianBlur in="shadowOffsetOuter1" result="shadowBlurOuter1" stdDeviation="1.5"/>
      <feColorMatrix in="shadowBlurOuter1" result="shadowMatrixOuter1" values="0 0 0 0 0   0 0 0 0 0   0 0 0 0 0  0 0 0 0.2 0"/>
      <feMerge>
        <feMergeNode in="shadowMatrixOuter1"/>
        <feMergeNode in="SourceGraphic"/>
      </feMerge>
    </filter>
    <linearGradient id="64px-c" x1="50%" x2="50%" y1="0%" y2="100%">
      <stop offset="0%" stop-color="#0ECB04"/>
      <stop offset="100%" stop-color="#008972"/>
    </linearGradient>
    <filter id="64px-d" width="151%" height="157.9%" x="-25.5%" y="-30.3%" filterUnits="objectBoundingBox">
      <feOffset dy="1" in="SourceAlpha" result="shadowOffsetOuter1"/>
      <feGaussianBlur in="shadowOffsetOuter1" result="shadowBlurOuter1" stdDeviation="2"/>
      <feColorMatrix in="shadowBlurOuter1" result="shadowMatrixOuter1" values="0 0 0 0 0   0 0 0 0 0   0 0 0 0 0  0 0 0 0.21 0"/>
      <feMerge>
        <feMergeNode in="shadowMatrixOuter1"/>
        <feMergeNode in="SourceGraphic"/>
      </feMerge>
    </filter>
    <path id="64px-a" d="M15,12 L33,12 C35.7614237,12 38,14.2385763 38,17 L38,33 C38,35.7614237 35.7614237,38 33,38 L15,38 C12.2385763,38 10,35.7614237 10,33 L10,17 C10,14.2385763 12.2385763,12 15,12 Z"/>
    <mask id="64px-e" width="28" height="26" x="0" y="0" fill="#fff" maskContentUnits="userSpaceOnUse" maskUnits="objectBoundingBox">
      <use xlink:href="#64px-a"/>
    </mask>
    <linearGradient id="64px-f" x1="50%" x2="50%" y1="0%" y2="100%">
      <stop offset="0%" stop-color="#C3FFBF" stop-opacity=".305"/>
      <stop offset="100%" stop-color="#83E991" stop-opacity=".779"/>
    </linearGradient>
    <linearGradient id="64px-g" x1="84.48%" x2="44.518%" y1="30.227%" y2="78.394%">
      <stop offset="0%" stop-color="#FFF"/>
      <stop offset="100%" stop-color="#D6DDF6"/>
    </linearGradient>
    <linearGradient id="64px-h" x1="72.583%" x2="50%" y1="26.636%" y2="80.867%">
      <stop offset="0%" stop-color="#FFF"/>
      <stop offset="100%" stop-color="#D7FFC6"/>
    </linearGradient>
    <radialGradient id="64px-i" cx="52.324%" cy="53.481%" r="63.742%" fx="52.324%" fy="53.481%" gradientTransform="matrix(-.46393 .84787 -.93827 -.67055 1.268 .45)">
      <stop offset="0%"/>
      <stop offset="100%" stop-opacity=".148"/>
    </radialGradient>
    <linearGradient id="64px-l" x1="69.333%" x2="56.832%" y1="71.097%" y2="57.701%">
      <stop offset="0%" stop-color="#C6C6C6"/>
      <stop offset="53.052%" stop-color="#E7E7E7"/>
      <stop offset="100%" stop-color="#F4F4F4"/>
    </linearGradient>
    <path id="64px-k" d="M37.25,-0.75 C37.25,-0.75 36.5306161,2.19870501 35.9054878,3.20744681 C34.9157337,4.80456911 33.7926829,4.42021277 32.8963415,5.7606383 C32,7.10106383 32.3369152,8.07596051 30.2713415,9.84574468 C29.1643939,10.7941777 26.75,11.25 26.75,11.25 C33.1797753,11.25 37.25,3.86870504 37.25,-0.75 Z"/>
    <filter id="64px-j" width="138.1%" height="133.3%" x="-19%" y="-8.3%" filterUnits="objectBoundingBox">
      <feOffset dy="1" in="SourceAlpha" result="shadowOffsetOuter1"/>
      <feGaussianBlur in="shadowOffsetOuter1" result="shadowBlurOuter1" stdDeviation=".5"/>
      <feColorMatrix in="shadowBlurOuter1" values="0 0 0 0 0   0 0 0 0 0   0 0 0 0 0  0 0 0 0.05 0"/>
    </filter>
    <linearGradient id="64px-m" x1="80.472%" x2="50%" y1="21.842%" y2="82%">
      <stop offset="0%" stop-opacity=".035"/>
      <stop offset="100%" stop-opacity=".08"/>
    </linearGradient>
    <radialGradient id="64px-n" cx="50%" cy="50%" r="94.578%" fx="50%" fy="50%" gradientTransform="matrix(.45876 0 0 .30467 .27 .348)">
      <stop offset="0%" stop-color="#EBFF26"/>
      <stop offset="100%" stop-color="#F2FF3D" stop-opacity="0"/>
    </radialGradient>
    <filter id="64px-o" width="107.7%" height="116.9%" x="-3.9%" y="-8.4%" filterUnits="objectBoundingBox">
      <feGaussianBlur in="SourceGraphic" stdDeviation=".625"/>
    </filter>
    <radialGradient id="64px-p" cx="50%" cy="50%" r="520.71%" fx="50%" fy="50%" gradientTransform="matrix(.09451 0 0 .07199 .453 .464)">
      <stop offset="0%" stop-color="#F7FF81" stop-opacity=".995"/>
      <stop offset="100%" stop-color="#F8FF98" stop-opacity="0"/>
    </radialGradient>
    <radialGradient id="64px-q" cx="50%" cy="50%" r="1628.518%" fx="50%" fy="50%" gradientTransform="matrix(.03022 0 0 .01306 .485 .493)">
      <stop offset="0%" stop-color="#FFF" stop-opacity=".995"/>
      <stop offset="100%" stop-color="#FFF" stop-opacity="0"/>
    </radialGradient>
    <linearGradient id="64px-r" x1="0%" x2="99.213%" y1="50%" y2="50%">
      <stop offset="0%" stop-color="#FFF" stop-opacity="0"/>
      <stop offset="49.798%" stop-color="#FFF" stop-opacity=".892"/>
      <stop offset="100%" stop-color="#FFF" stop-opacity="0"/>
    </linearGradient>
  </defs>
  <g fill="none" fill-rule="evenodd" filter="url(#64px-b)" transform="translate(2 2)">
    <circle cx="30" cy="30" r="30" fill="url(#64px-c)"/>
    <g filter="url(#64px-d)" transform="translate(6 11)">
      <use fill="#0EA141" stroke="#96FF8F" stroke-dasharray="1 1" stroke-opacity=".703" stroke-width="2" mask="url(#64px-e)" xlink:href="#64px-a"/>
      <path fill="url(#64px-f)" d="M16.5,32 C16.7761424,32 17,32.2238576 17,32.5 C17,32.7761424 16.7761424,33 16.5,33 L14.5,33 C14.2238576,33 14,32.7761424 14,32.5 C14,32.2238576 14.2238576,32 14.5,32 L16.5,32 Z M25.5,32 C25.7761424,32 26,32.2238576 26,32.5 C26,32.7761424 25.7761424,33 25.5,33 L19.5,33 C19.2238576,33 19,32.7761424 19,32.5 C19,32.2238576 19.2238576,32 19.5,32 L25.5,32 Z M27.5,29 C27.7761424,29 28,29.2238576 28,29.5 C28,29.7761424 27.7761424,30 27.5,30 L14.5,30 C14.2238576,30 14,29.7761424 14,29.5 C14,29.2238576 14.2238576,29 14.5,29 L27.5,29 Z M18.5,26 C18.7761424,26 19,26.2238576 19,26.5 C19,26.7761424 18.7761424,27 18.5,27 L14.5,27 C14.2238576,27 14,26.7761424 14,26.5 C14,26.2238576 14.2238576,26 14.5,26 L18.5,26 Z M33.5,26 C33.7761424,26 34,26.2238576 34,26.5 C34,26.7761424 33.7761424,27 33.5,27 L21.5,27 C21.2238576,27 21,26.7761424 21,26.5 C21,26.2238576 21.2238576,26 21.5,26 L33.5,26 Z M29.5,23 C29.7761424,23 30,23.2238576 30,23.5 C30,23.7761424 29.7761424,24 29.5,24 L14.5,24 C14.2238576,24 14,23.7761424 14,23.5 C14,23.2238576 14.2238576,23 14.5,23 L29.5,23 Z" opacity=".359"/>
      <path fill="url(#64px-g)" d="M15,0 L28.6052632,0 L28.6052632,0 C30.26751,0.628202265 32.1300831,1.87149728 34.1929825,3.72988506 C36.1578947,5.5 37.4269006,7.71264368 38,10.3678161 L38,22 L10,22 L10,5 C10,2.23857625 12.2385763,5.07265313e-16 15,0 Z"/>
      <path fill="url(#64px-h)" d="M15,0 L33,0 C35.7614237,-5.07265313e-16 38,2.23857625 38,5 L38,22 L38,22 L10,22 L10,5 C10,2.23857625 12.2385763,5.07265313e-16 15,0 Z"/>
      <path fill="url(#64px-i)" fill-opacity=".28" d="M26,0 L33,0 C35.7614237,-5.07265313e-16 38,2.23857625 38,5 L38,9.5 L38,9.5 L38,10.5 C37.625,7.45833333 36.125,4.95833333 33.5,3 C31.2099397,1.29154234 28.7099397,0.291542337 26,0 Z"/>
      <g transform="rotate(-90 32 5.25)">
        <use fill="#000" filter="url(#64px-j)" xlink:href="#64px-k"/>
        <use fill="url(#64px-l)" xlink:href="#64px-k"/>
      </g>
      <path fill="url(#64px-m)" d="M29.5,20 C29.7761424,20 30,20.2238576 30,20.5 C30,20.7761424 29.7761424,21 29.5,21 L23.5,21 C23.2238576,21 23,20.7761424 23,20.5 C23,20.2238576 23.2238576,20 23.5,20 L29.5,20 Z M20,17 C20.5522847,17 21,17.4477153 21,18 L21,20 C21,20.5522847 20.5522847,21 20,21 L15,21 C14.4477153,21 14,20.5522847 14,20 L14,18 C14,17.4477153 14.4477153,17 15,17 L20,17 Z M33.5,17 C33.7761424,17 34,17.2238576 34,17.5 C34,17.7761424 33.7761424,18 33.5,18 L23.5,18 C23.2238576,18 23,17.7761424 23,17.5 C23,17.2238576 23.2238576,17 23.5,17 L33.5,17 Z M16.5,14 C16.7761424,14 17,14.2238576 17,14.5 C17,14.7761424 16.7761424,15 16.5,15 L14.5,15 C14.2238576,15 14,14.7761424 14,14.5 C14,14.2238576 14.2238576,14 14.5,14 L16.5,14 Z M33.5,14 C33.7761424,14 34,14.2238576 34,14.5 C34,14.7761424 33.7761424,15 33.5,15 L19.5,15 C19.2238576,15 19,14.7761424 19,14.5 C19,14.2238576 19.2238576,14 19.5,14 L33.5,14 Z M22.5,11 C22.7761424,11 23,11.2238576 23,11.5 C23,11.7761424 22.7761424,12 22.5,12 L14.5,12 C14.2238576,12 14,11.7761424 14,11.5 C14,11.2238576 14.2238576,11 14.5,11 L22.5,11 Z M33.5,8 C33.7761424,8 34,8.22385763 34,8.5 L34,11.5 C34,11.7761424 33.7761424,12 33.5,12 L25.5,12 C25.2238576,12 25,11.7761424 25,11.5 L25,8.5 C25,8.22385763 25.2238576,8 25.5,8 L33.5,8 Z M22.5,8 C22.7761424,8 23,8.22385763 23,8.5 C23,8.77614237 22.7761424,9 22.5,9 L14.5,9 C14.2238576,9 14,8.77614237 14,8.5 C14,8.22385763 14.2238576,8 14.5,8 L22.5,8 Z M32.5,5 C32.7761424,5 33,5.22385763 33,5.5 C33,5.77614237 32.7761424,6 32.5,6 L25.5,6 C25.2238576,6 25,5.77614237 25,5.5 C25,5.22385763 25.2238576,5 25.5,5 L32.5,5 Z M22.5,5 C22.7761424,5 23,5.22385763 23,5.5 C23,5.77614237 22.7761424,6 22.5,6 L14.5,6 C14.2238576,6 14,5.77614237 14,5.5 C14,5.22385763 14.2238576,5 14.5,5 L22.5,5 Z"/>
      <g transform="translate(0 10.75)">
        <polygon fill="url(#64px-n)" points="0 9.908 24.25 0 48.5 8.865 48.5 13.732 24.563 22.25 0 14.775" filter="url(#64px-o)" opacity=".799"/>
        <rect width="41" height="3.875" x="3.75" y="9.25" fill="url(#64px-p)"/>
        <rect width="45.5" height="1.375" x="1.5" y="10.5" fill="url(#64px-q)" opacity=".953"/>
        <rect width="27.5" height="1" x="10.5" y="11" fill="url(#64px-r)" opacity=".953"/>
      </g>
    </g>
  </g>
</svg>
