<svg xmlns="http://www.w3.org/2000/svg" width="64" height="64" viewBox="0 0 64 64">
  <defs>
    <filter id="deepin-editor-a" width="132%" height="128.6%" x="-16%" y="-14.3%" filterUnits="objectBoundingBox">
      <feOffset dy="1" in="SourceAlpha" result="shadowOffsetOuter1"/>
      <feGaussianBlur in="shadowOffsetOuter1" result="shadowBlurOuter1" stdDeviation="1.5"/>
      <feComposite in="shadowBlurOuter1" in2="SourceAlpha" operator="out" result="shadowBlurOuter1"/>
      <feColorMatrix in="shadowBlurOuter1" result="shadowMatrixOuter1" values="0 0 0 0 0   0 0 0 0 0   0 0 0 0 0  0 0 0 0.2 0"/>
      <feMerge>
        <feMergeNode in="shadowMatrixOuter1"/>
        <feMergeNode in="SourceGraphic"/>
      </feMerge>
    </filter>
    <radialGradient id="deepin-editor-b" cx="60.953%" cy="7.944%" r="114.955%" fx="60.953%" fy="7.944%" gradientTransform="scale(1 .89286) rotate(73.386 .603 .084)">
      <stop offset="0%" stop-color="#00C2FB"/>
      <stop offset="100%" stop-color="#003AE3"/>
    </radialGradient>
  </defs>
  <g fill="none" fill-rule="evenodd" filter="url(#deepin-editor-a)" transform="translate(7 4)">
    <path fill="url(#deepin-editor-b)" d="M8,0 L42,0 C46.418278,-8.11624501e-16 50,3.581722 50,8 L50,48 C50,52.418278 46.418278,56 42,56 L8,56 C3.581722,56 5.41083001e-16,52.418278 0,48 L0,8 C-5.41083001e-16,3.581722 3.581722,8.11624501e-16 8,0 Z"/>
    <path fill="#FFF" fill-opacity=".3" d="M8,0 L8,3 L45,3 L45,4 L8,4 L8,8 L45,8 L45,9 L8,9 L8,13 L11,13 L11,14 L8,14 L8,18 L11,18 L11,18.1170418 C11,18.4167928 11.0061912,18.7112408 11.018602,19.000362 L8,19 L8,23 L11.6962748,23.0011904 C11.809097,23.3465599 11.935755,23.6800843 12.0763395,24.0016874 L8,24 L8,28 L15.4159091,28.0018028 C16.0233588,28.3969048 16.6918707,28.7300299 17.4196539,29.0011777 L8,29 L8,33 L45,33 L45,34 L8,34 L8,38 L30,38 L30,39 L8,39 L8,43 L30,43 L30,44 L8,44 L8,48 L45,48 L45,49 L8,49 L8,55 L7,55 L7,49 L4,49 L4,48 L7,48 L7,44 L4,44 L4,43 L7,43 L7,39 L4,39 L4,38 L7,38 L7,34 L4,34 L4,33 L7,33 L7,29 L4,29 L4,28 L7,28 L7,24 L4,24 L4,23 L7,23 L7,19 L4,19 L4,18 L7,18 L7,14 L4,14 L4,13 L7,13 L7,9 L4,9 L4,8 L7,8 L7,4 L4,4 L4,3 L7,3 L7,0 L8,0 Z M34.6453817,43.0017275 L34.861,43 L34.861,44 L33.3977598,44.0010704 C33.8718189,43.73072 34.2891018,43.3975869 34.6453817,43.0017275 Z M39.5073039,43.0013957 L45,43 L45,44 L38.2581881,44.0017519 C38.7328737,43.7312043 39.1506593,43.3977334 39.5073039,43.0013957 Z M41,38 L45,38 L45,39 L40.9834848,39.0005985 C40.9945147,38.8041531 41,38.6034255 41,38.3984643 L41,38.3984643 L41,38 Z M20.863,28 L25.2547763,28.0018028 C25.862226,28.3969048 26.5307379,28.7300299 27.2585211,29.0011777 L20.863,29 L20.863,28 Z M30.702,28 L45,28 L45,29 L30.702,29 L30.702,28 Z M20.863,23 L21.5352194,23.0014275 C21.6480136,23.3466863 21.7746351,23.6801072 21.9151747,24.001614 L20.003,24 L19.99513,23.9950545 L20.8632812,23.9950545 L20.863,23 Z M30.702,23 L45,23 L45,24 L29.829,24 L29.8202408,23.9950545 L30.7021484,23.9950545 L30.702,23 Z M30.702,18 L45,18 L45,19 L30.702,19 L30.702,18 Z M30.7021484,13 L45,13 L45,14 L30.702,14 L30.7021484,13 Z"/>
    <path fill="#FFF" d="M40,38.7932548 C40,40.2593436 39.6966149,41.4289631 39.0898356,42.3021483 C38.4830563,43.1753335 37.5516109,43.7412784 36.2954713,44 L36.2954713,42.4153384 C36.8064433,42.1350567 37.115151,41.7146405 37.2216035,41.1540772 L36.2954713,41.1540772 L36.2954713,36.8205128 L40,36.8205128 L40,38.7932548 Z M35.0499832,36.8205128 L35.0499832,38.7932548 C35.0499832,40.2593436 34.7465981,41.4289631 34.1398189,42.3021483 C33.5330396,43.1753335 32.6015941,43.7412784 31.3454545,44 L31.3454545,42.4153384 C31.6648121,42.2428574 31.888359,42.0703789 32.016102,41.8978979 C32.143845,41.7254169 32.2290057,41.4774791 32.2715867,41.1540772 L31.3454545,41.1540772 L31.3454545,36.8205128 L35.0499832,36.8205128 Z M19.4971591,14 L19.4971591,22.7239583 L17.6228693,22.7239583 C17.8239436,23.7772043 18.3815813,24.5846819 19.2957977,25.1464116 L19.4971591,25.2630208 L19.4971591,28.453125 C16.9550062,27.9322891 15.0699635,26.7929775 13.8419744,25.0351562 C12.6753848,23.365226 12.0629335,21.1567236 12.0046049,18.4095885 L12,17.9713542 L12,14 L19.4971591,14 Z M29.5149148,14 L29.5149148,22.7239583 L27.640625,22.7239583 C27.7267997,23.3750033 27.8991464,23.8741302 28.1576705,24.2213542 C28.4161945,24.5685781 28.8686047,24.9157969 29.5149148,25.2630208 L29.5149148,25.2630208 L29.5149148,28.453125 C26.9727619,27.9322891 25.0877192,26.7929775 23.8597301,25.0351562 C22.631741,23.277335 22.0177557,20.9227578 22.0177557,17.9713542 L22.0177557,17.9713542 L22.0177557,14 L29.5149148,14 Z"/>
  </g>
</svg>
