<?xml version="1.0" encoding="UTF-8"?>
<svg width="64px" height="64px" viewBox="0 0 64 64" version="1.1" xmlns="http://www.w3.org/2000/svg" xmlns:xlink="http://www.w3.org/1999/xlink">
    <title>apps/64/deepin-defender</title>
    <defs>
        <filter x="-9.5%" y="-7.8%" width="119.0%" height="119.0%" filterUnits="objectBoundingBox" id="filter-1">
            <feOffset dx="0" dy="1" in="SourceAlpha" result="shadowOffsetOuter1"></feOffset>
            <feGaussianBlur stdDeviation="1.5" in="shadowOffsetOuter1" result="shadowBlurOuter1"></feGaussianBlur>
            <feColorMatrix values="0 0 0 0 0   0 0 0 0 0   0 0 0 0 0  0 0 0 0.2 0" type="matrix" in="shadowBlurOuter1" result="shadowMatrixOuter1"></feColorMatrix>
            <feMerge>
                <feMergeNode in="shadowMatrixOuter1"></feMergeNode>
                <feMergeNode in="SourceGraphic"></feMergeNode>
            </feMerge>
        </filter>
        <linearGradient x1="50%" y1="0%" x2="50%" y2="98.1385523%" id="linearGradient-2">
            <stop stop-color="#FFFFFF" offset="0%"></stop>
            <stop stop-color="#EDEDED" offset="100%"></stop>
        </linearGradient>
        <linearGradient x1="50%" y1="0%" x2="50%" y2="98.5538974%" id="linearGradient-3">
            <stop stop-color="#44B0FB" offset="0%"></stop>
            <stop stop-color="#0074FF" offset="100%"></stop>
        </linearGradient>
        <linearGradient x1="50%" y1="0%" x2="50%" y2="100%" id="linearGradient-4">
            <stop stop-color="#FFFFFF" offset="0%"></stop>
            <stop stop-color="#60B8E5" offset="100%"></stop>
        </linearGradient>
        <radialGradient cx="51.0820329%" cy="50%" fx="51.0820329%" fy="50%" r="51.7883888%" id="radialGradient-5">
            <stop stop-color="#FFFFFF" offset="0%"></stop>
            <stop stop-color="#3AC3FF" stop-opacity="0.346208479" offset="100%"></stop>
        </radialGradient>
        <linearGradient x1="15.879017%" y1="23.7439246%" x2="74.8103418%" y2="30.2126494%" id="linearGradient-6">
            <stop stop-color="#5BE9FF" offset="0%"></stop>
            <stop stop-color="#5FE2FF" stop-opacity="0.936413763" offset="4.36176811%"></stop>
            <stop stop-color="#0065FA" stop-opacity="0" offset="100%"></stop>
        </linearGradient>
        <linearGradient x1="50%" y1="1.79026897%" x2="51.811367%" y2="100%" id="linearGradient-7">
            <stop stop-color="#FFFFFF" offset="0%"></stop>
            <stop stop-color="#9CD8F8" offset="100%"></stop>
        </linearGradient>
        <path d="M33.9423305,12.5296595 C33.8752469,12.0305066 33.5331262,11.6100634 33.0553425,11.4394161 L17.9692345,7.0807474 C17.3185624,6.85109534 16.6988563,6.88089961 16.1918794,7.0807474 L1.105716,11.439416 C0.627710804,11.6100633 0.285811603,12.0305615 0.218727995,12.5296595 C0.184992299,12.7807179 -0.589044868,18.7585872 0.993429917,25.5904614 C1.93381889,29.6500445 3.51607208,33.1650272 5.69659344,36.0378734 C8.39561391,39.5938028 12.0036143,42.1523045 16.4231544,43.6471835 C16.7894829,43.7942838 17.1899902,43.8615766 17.7376272,43.6471835 C22.1571672,42.1523594 25.7654446,39.5938028 28.4644651,36.0378734 C30.6447649,33.1650272 32.2272396,29.6500445 33.1676286,25.5904614 C34.7501588,18.7585873 33.9759,12.780718 33.9423305,12.5296595 L33.9423305,12.5296595 Z" id="path-8"></path>
        <filter x="-14.6%" y="-10.9%" width="129.3%" height="127.1%" filterUnits="objectBoundingBox" id="filter-9">
            <feOffset dx="0" dy="1" in="SourceAlpha" result="shadowOffsetOuter1"></feOffset>
            <feGaussianBlur stdDeviation="1.5" in="shadowOffsetOuter1" result="shadowBlurOuter1"></feGaussianBlur>
            <feColorMatrix values="0 0 0 0 0   0 0 0 0 0.290980179   0 0 0 0 0.5330899  0 0 0 0.611778846 0" type="matrix" in="shadowBlurOuter1"></feColorMatrix>
        </filter>
        <path d="M13.6719192,15.7642825 C13.9498334,14.7431738 15.0614899,14 16.0805085,14 L18.8596499,14 C19.8786685,14 20.3418587,14.7431738 19.9713065,15.6716375 L17.9046739,21 L21.88811,21 C23.9261471,21 24.4819753,22.3010576 23.1850427,23.7874052 L14.1582723,33.9924815 C13.509806,34.7356553 13.1392538,34.6430103 13.4171679,33.6219016 L15.0805085,26 L11.8381768,26 C10.8191582,26 10.26333,25.2568262 10.5412441,24.2357175 L13.6719192,15.7642825 Z" id="path-10"></path>
        <filter x="-96.9%" y="-39.1%" width="293.8%" height="227.0%" filterUnits="objectBoundingBox" id="filter-11">
            <feOffset dx="0" dy="5" in="SourceAlpha" result="shadowOffsetOuter1"></feOffset>
            <feGaussianBlur stdDeviation="3.5" in="shadowOffsetOuter1" result="shadowBlurOuter1"></feGaussianBlur>
            <feColorMatrix values="0 0 0 0 0   0 0 0 0 0.505882353   0 0 0 0 1  0 0 0 0.3 0" type="matrix" in="shadowBlurOuter1"></feColorMatrix>
        </filter>
    </defs>
    <g id="apps/64/deepin-defender" stroke="none" stroke-width="1" fill="none" fill-rule="evenodd">
        <g id="路径-13备份-10" filter="url(#filter-1)" transform="translate(3, 3)">
            <rect id="蒙版" fill="url(#linearGradient-2)" x="0" y="0" width="58" height="58" rx="29"></rect>
            <path d="M29,-0.5 C45.2924001,-0.5 58.5,12.7075999 58.5,29 C58.5,45.2924001 45.2924001,58.5 29,58.5 C12.7075999,58.5 -0.5,45.2924001 -0.5,29 C-0.5,12.7075999 12.7075999,-0.5 29,-0.5 Z M29,0.5 C13.2598846,0.5 0.5,13.2598846 0.5,29 C0.5,44.7401154 13.2598846,57.5 29,57.5 C44.7401154,57.5 57.5,44.7401154 57.5,29 C57.5,13.2598846 44.7401154,0.5 29,0.5 Z" id="蒙版" fill-opacity="0.08" fill="#000000" fill-rule="nonzero"></path>
            <rect id="蒙版" fill="url(#linearGradient-3)" x="0" y="0" width="58" height="58" rx="29"></rect>
            <path d="M29,0 C45.0162577,0 58,12.9837423 58,29 C58,45.0162577 45.0162577,58 29,58 C12.9837423,58 0,45.0162577 0,29 C0,12.9837423 12.9837423,0 29,0 Z M29,3 C14.6405965,3 3,14.6405965 3,29 C3,43.3594035 14.6405965,55 29,55 C43.3594035,55 55,43.3594035 55,29 C55,14.6405965 43.3594035,3 29,3 Z" id="蒙版" fill="url(#linearGradient-4)" fill-rule="nonzero"></path>
            <g id="编组-2" transform="translate(2.9, 2.9)">
                <circle id="椭圆形" stroke="#7DF3FF" stroke-width="0.6" opacity="0.300000012" cx="26.1" cy="26.1" r="15.4666667"></circle>
                <circle id="椭圆形" stroke="#7DF3FF" opacity="0.200000003" cx="26.1" cy="26.1" r="19.8333333"></circle>
                <circle id="椭圆形" stroke="#7DF3FF" opacity="0.100000001" cx="26.1" cy="26.1" r="23.6666667"></circle>
                <path d="M26.101001,1.87842382e-08 C26.4243201,1.21531322e-05 26.7462661,0.00590321351 27.0667377,0.0175721318 L27.0666667,25.5516667 L44.7643608,7.85576292 C44.9896723,8.08623015 45.2107502,8.32085381 45.4274685,8.55950814 L27.8846667,26.0996667 L52.2,26.1 C52.2,26.4236556 52.1941088,26.7459353 52.1824279,27.0667377 L27.7506667,27.0656667 L44.8945436,44.210124 C44.670629,44.4424471 44.4424471,44.670629 44.210124,44.8945436 L27.0666667,27.7486667 L27.0667377,52.1824279 C26.7459353,52.1941088 26.4236556,52.2 26.1,52.2 L26.1,52.199 L26.0996667,27.8856667 L8.55950814,45.4274685 C8.32085381,45.2107502 8.08623015,44.9896723 7.85576292,44.7643608 L25.5516667,27.0656667 L0.0175721318,27.0667377 C0.00589117105,26.7459353 0,26.4236556 0,26.1 L25.4176667,26.0996667 L7.30641877,7.98887754 C7.52970399,7.75723194 7.75723194,7.52970399 7.98887754,7.30641877 L26.0996667,25.4146667 Z" id="形状结合" fill="url(#radialGradient-5)" opacity="0.300000012"></path>
            </g>
            <g id="编组" transform="translate(11.9195, 5)">
                <path d="M17.0805085,-4.47641924e-13 C24.6554856,-4.47641924e-13 31.4108091,3.50935411 35.8093478,8.99093104 L17.0805085,23 Z" id="形状结合" fill="url(#linearGradient-6)"></path>
                <g id="路径">
                    <use fill="black" fill-opacity="1" filter="url(#filter-9)" xlink:href="#path-8"></use>
                    <use fill="url(#linearGradient-7)" fill-rule="evenodd" xlink:href="#path-8"></use>
                </g>
                <g id="路径" fill-rule="nonzero">
                    <use fill="black" fill-opacity="1" filter="url(#filter-11)" xlink:href="#path-10"></use>
                    <use fill="#0081FF" xlink:href="#path-10"></use>
                </g>
            </g>
        </g>
        <g id="Guide/64" transform="translate(2, 2)"></g>
    </g>
</svg>