<?xml version="1.0" encoding="UTF-8"?>
<svg width="64px" height="64px" viewBox="0 0 64 64" version="1.1" xmlns="http://www.w3.org/2000/svg" xmlns:xlink="http://www.w3.org/1999/xlink">
    <title>apps/64/deepin-terminal</title>
    <defs>
        <filter x="-9.3%" y="-8.3%" width="118.5%" height="120.8%" filterUnits="objectBoundingBox" id="filter-1">
            <feOffset dx="0" dy="1" in="SourceAlpha" result="shadowOffsetOuter1"></feOffset>
            <feGaussianBlur stdDeviation="1.5" in="shadowOffsetOuter1" result="shadowBlurOuter1"></feGaussianBlur>
            <feColorMatrix values="0 0 0 0 0   0 0 0 0 0   0 0 0 0 0  0 0 0 0.2 0" type="matrix" in="shadowBlurOuter1" result="shadowMatrixOuter1"></feColorMatrix>
            <feMerge>
                <feMergeNode in="shadowMatrixOuter1"></feMergeNode>
                <feMergeNode in="SourceGraphic"></feMergeNode>
            </feMerge>
        </filter>
        <radialGradient cx="50%" cy="0%" fx="50%" fy="0%" r="100%" gradientTransform="translate(0.5, 0), scale(0.8889, 1), rotate(90), translate(-0.5, -0)" id="radialGradient-2">
            <stop stop-color="#FF774D" offset="0%"></stop>
            <stop stop-color="#BA0E55" offset="100%"></stop>
        </radialGradient>
    </defs>
    <g id="apps/64/deepin-terminal" stroke="none" stroke-width="1" fill="none" fill-rule="evenodd">
        <g id="Group" filter="url(#filter-1)" transform="translate(5, 8)">
            <rect id="Rectangle-245" fill="url(#radialGradient-2)" x="0" y="0" width="54" height="48" rx="8"></rect>
            <path d="M17.307048,16.5798441 L8.14114564,21.8809215 C7.47491796,22.2662327 7.24988286,23.1140572 7.63851567,23.7745907 C8.02714848,24.4351241 8.88228186,24.6582358 9.54850954,24.2729246 L20.7209233,17.8113862 C21.6447497,17.2770934 21.6447497,15.9536758 20.7209233,15.4193831 L9.54850954,8.9578446 C8.88228186,8.57253344 8.02714848,8.79564516 7.63851567,9.45617858 C7.24988286,10.116712 7.47491796,10.9645365 8.14114564,11.3498477 L17.307048,16.5798441 Z M32.7215909,30 C33.4276368,30 34,29.3284271 34,28.5 C34,27.6715729 33.4276368,27 32.7215909,27 L20.2784091,27 C19.5723632,27 19,27.6715729 19,28.5 C19,29.3284271 19.5723632,30 20.2784091,30 L32.7215909,30 Z" id="Combined-Shape" fill="#FFF0F0" fill-rule="nonzero"></path>
        </g>
        <g id="Guide/64" transform="translate(2, 2)"></g>
    </g>
</svg>