<svg xmlns="http://www.w3.org/2000/svg" width="64" height="64" viewBox="0 0 64 64">
  <defs>
    <filter id="deepin-clone-64px-a" width="127.6%" height="127.6%" x="-13.8%" y="-13.8%" filterUnits="objectBoundingBox">
      <feOffset dy="1" in="SourceAlpha" result="shadowOffsetOuter1"/>
      <feGaussianBlur in="shadowOffsetOuter1" result="shadowBlurOuter1" stdDeviation="1.5"/>
      <feColorMatrix in="shadowBlurOuter1" result="shadowMatrixOuter1" values="0 0 0 0 0   0 0 0 0 0   0 0 0 0 0  0 0 0 0.2 0"/>
      <feMerge>
        <feMergeNode in="shadowMatrixOuter1"/>
        <feMergeNode in="SourceGraphic"/>
      </feMerge>
    </filter>
    <radialGradient id="deepin-clone-64px-b" cx="47.157%" cy="18.859%" r="79.474%" fx="47.157%" fy="18.859%">
      <stop offset="0%" stop-color="#00812B"/>
      <stop offset="100%" stop-color="#006174"/>
    </radialGradient>
    <linearGradient id="deepin-clone-64px-c" x1="50%" x2="50%" y1="1.859%" y2="100%">
      <stop offset="0%" stop-color="#FFF"/>
      <stop offset="100%" stop-color="#21CCDF"/>
    </linearGradient>
  </defs>
  <g fill="none" fill-rule="evenodd" filter="url(#deepin-clone-64px-a)" transform="translate(3 3)">
    <circle cx="29" cy="29" r="29" fill="url(#deepin-clone-64px-b)"/>
    <path fill="url(#deepin-clone-64px-c)" fill-rule="nonzero" d="M23.3955709,0.12209403 L23.4674468,0.115227485 L23.4674468,0.115227485 C23.6654436,0.0965888235 23.8641195,0.0801744197 24.063418,0.0660125225 C24.3693148,0.0442718995 24.6770198,0.0278254789 24.9861029,0.0167891272 C25.1567884,0.010695165 25.3277919,0.00625272372 25.4991998,0.00347360668 L25.9279661,0 L25.9279661,0 C40.2475864,0 51.8559322,11.6083458 51.8559322,25.9279661 C51.8559322,40.1043902 40.4785925,51.6234942 26.3567324,51.8524586 L25.9279661,51.8559322 L25.9279661,51.8559322 C25.4091326,51.8559322 24.8927669,51.8405972 24.3793933,51.8102322 L24.6166613,51.8233479 C24.4534036,51.8152157 24.2905435,51.8055735 24.1280946,51.7944349 L24.3793933,51.8102322 C24.2479271,51.8024563 24.1166572,51.7936947 23.9855922,51.7839526 L24.1280946,51.7944349 C23.9838463,51.7845443 23.8399223,51.7734738 23.6963322,51.7612331 L23.9855922,51.7839526 C23.8368257,51.7728947 23.6883234,51.7605735 23.540098,51.7469966 L23.6963322,51.7612331 C23.5426534,51.7481324 23.389357,51.7336912 23.2364547,51.7179212 L23.540098,51.7469966 C23.397081,51.7338968 23.254322,51.7196279 23.1118323,51.7041966 L23.1114865,51.7047271 C21.4502658,51.5242533 19.8253364,51.186257 18.2553746,50.7008762 L18.2552657,50.7018894 C17.3884679,50.432857 16.5383212,50.1198993 15.7080207,49.7637995 L15.7083818,49.7641589 C15.3965317,49.6302079 15.0878359,49.4905445 14.7820962,49.3449041 L15.0149566,49.4542921 C14.9076998,49.4044554 14.8008408,49.3539069 14.6943857,49.3026526 L14.7820962,49.3449041 C14.6684015,49.2907452 14.5551156,49.2357598 14.4422469,49.1799527 L14.6943857,49.3026526 C14.5560882,49.2360672 14.4184723,49.1682907 14.2815514,49.0993362 L14.281045,49.0995463 C12.1324893,48.0170518 10.1546314,46.6445885 8.39943441,45.033403 L8.49558455,45.1222023 C8.40172105,45.0368503 8.30843414,44.9507703 8.2157322,44.8639671 L8.21640654,44.863772 C8.07235916,44.7297171 7.93038532,44.5937374 7.78984167,44.4560458 C7.57957677,44.2496016 7.37252356,44.0398929 7.16906713,43.8267214 C6.98152689,43.6303621 6.79646777,43.4302284 6.61429905,43.2269363 L6.61444528,43.2270957 L6.38521158,42.9678707 L6.38521158,42.9678707 C5.84976394,42.3542582 5.91312911,41.4227609 6.52674166,40.8873132 C7.1403542,40.3518656 8.07185153,40.4152307 8.60729918,41.0288433 C12.9459454,46.0008472 19.1999727,48.9067797 25.9279661,48.9067797 C38.6188144,48.9067797 48.9067797,38.6188144 48.9067797,25.9279661 C48.9067797,13.2371178 38.6188144,2.94915254 25.9279661,2.94915254 C13.2371178,2.94915254 2.94915254,13.2371178 2.94915254,25.9279661 C2.94915254,26.0100841 2.94958269,26.0921466 2.95044233,26.1741512 L8.23305085,26.1737288 L2.67411765,37.4091381 C0.962138933,33.9483331 -1.54187774e-12,30.0505094 -1.54187774e-12,25.9279661 L0.002,26.123 L-2.3128166e-12,25.9279661 C-2.3128166e-12,25.5757443 0.00702327873,25.2251628 0.0209374321,24.8763541 C0.0299913274,24.6494204 0.0419513908,24.4233972 0.056787669,24.1981597 C0.10947495,23.3983316 0.198415698,22.6085068 0.321987738,21.8302159 C0.359913646,21.591359 0.401067897,21.3537667 0.445432093,21.1173061 L0.445467459,21.1171176 C0.484877146,20.9070644 0.526859764,20.6977175 0.571346934,20.4892982 C0.618993466,20.2660603 0.669607976,20.0434948 0.723065242,19.8220381 C0.765301776,19.6470654 0.809312919,19.4727849 0.855078555,19.2992167 L0.944002314,18.9707925 C0.99879872,18.7735899 1.05586727,18.5773331 1.115178,18.3820521 C1.15633708,18.2465288 1.19868406,18.1111398 1.24210622,17.9762333 C1.427696,17.3996598 1.6327893,16.8322351 1.85671167,16.2743974 L1.84916133,16.2932284 C1.88505327,16.2036099 1.92143102,16.1142384 1.95829134,16.0251172 L1.85671167,16.2743974 C1.91042473,16.1405869 1.96522121,16.007328 2.02109024,15.8746316 L1.95829134,16.0251172 C2.0202989,15.8751947 2.08367208,15.7259805 2.14839536,15.5774901 L2.02109024,15.8746316 C2.07037563,15.7575722 2.12049569,15.6409506 2.17144297,15.5247741 L2.1715018,15.52464 C2.33538933,15.1509227 2.50790176,14.7816814 2.68873192,14.4172983 L2.63933592,14.5173765 C2.68001631,14.4345058 2.72112601,14.3518839 2.76266211,14.2695138 L2.76279651,14.2692473 C2.89172042,14.0135788 3.02489535,13.7600748 3.16209993,13.5090887 L3.0641136,13.6900398 C3.12164969,13.5827712 3.17991862,13.4759545 3.23891368,13.3695962 L3.16209993,13.5090887 C3.22030541,13.4026144 3.27923609,13.2965932 3.33888532,13.1910318 L3.33870013,13.1913596 C3.40438561,13.0751158 3.47075235,12.9597542 3.53797672,12.8449558 L3.50445695,12.902366 C3.55488663,12.8157387 3.60580391,12.7294302 3.65720504,12.6434443 L3.65705799,12.6436903 C3.75059447,12.4872187 3.8455811,12.332058 3.94214237,12.1779847 C4.08194372,11.9549213 4.22493595,11.7343008 4.3711555,11.5160247 L4.27772455,11.6564825 C4.35640599,11.5373609 4.43604418,11.4189269 4.51662818,11.3011913 L4.3711555,11.5160247 C4.44793559,11.4014075 4.52560555,11.2874368 4.6041555,11.1741223 L4.51662818,11.3011913 C4.59196366,11.191124 4.66812577,11.0816671 4.74510554,10.9728295 L4.6041555,11.1741223 C4.68454788,11.05815 4.76586201,10.9428651 4.8480873,10.8282782 L4.74510554,10.9728295 C4.81475825,10.8743514 4.88508038,10.7763803 4.95606531,10.6789229 L4.8480873,10.8282782 C4.93438466,10.7080165 5.02168567,10.5885237 5.10997806,10.469812 L4.95606531,10.6789229 C5.03202315,10.5746381 5.1087399,10.4709415 5.18620745,10.3678412 L5.18610904,10.3679722 C5.34344056,10.1585823 5.50376662,9.95177995 5.66711775,9.7475021 L5.56578505,9.87503864 C5.645359,9.77424202 5.72566538,9.6740504 5.80669617,9.57447182 L5.66711775,9.7475021 C5.75731471,9.6347068 5.84843398,9.52268118 5.94046412,9.41143667 L5.80669617,9.57447182 C5.88452739,9.47882519 5.96302693,9.38374414 6.04218768,9.28923579 L5.94046412,9.41143667 C6.02206169,9.3128029 6.10437532,9.21478317 6.18739706,9.11738547 L6.04218768,9.28923579 C6.13824082,9.17455997 6.23526748,9.06072735 6.33325494,8.94775063 L6.18739706,9.11738547 C6.26775579,9.02311188 6.34877793,8.92942105 6.43045626,8.8363202 L6.33325494,8.94775063 C6.41440911,8.85418221 6.49622232,8.76120089 6.57868736,8.66881389 L6.43045626,8.8363202 C6.52152894,8.73251123 6.61341742,8.62943575 6.7061117,8.52710378 L6.57868736,8.66881389 C6.67206171,8.56420498 6.76627175,8.46035804 6.861307,8.35728354 L6.7061117,8.52710378 C6.78970859,8.43481507 6.87396088,8.34313109 6.95886121,8.25205919 L6.95865282,8.25228272 C7.09903465,8.10169627 7.2409746,7.95300181 7.38464801,7.80600886 C7.5240778,7.66335435 7.66535156,7.52209582 7.80823244,7.3824749 C7.88211399,7.31027832 7.95651687,7.23843219 8.0313463,7.1670292 L8.03121108,7.16715823 C8.23968565,6.96822971 8.45133153,6.77286536 8.66619306,6.58102704 L8.54413189,6.69070094 C8.63212897,6.61113244 8.72067454,6.53215924 8.80976226,6.45378769 L8.81023195,6.45337451 C9.01511165,6.27313935 9.22334154,6.09568769 9.43437416,5.92151049 L9.30827819,6.02625308 C9.38267017,5.96406241 9.45741613,5.90228105 9.53251259,5.84091248 L9.53235686,5.84103974 C9.7553203,5.65883476 9.98121346,5.48039067 10.2101016,5.30567064 L10.056886,5.42352938 C10.1484761,5.3525324 10.2405548,5.28213552 10.3331161,5.21234462 L10.2101016,5.30567064 C10.3302466,5.2139589 10.4512168,5.12327323 10.5729991,5.03362673 L10.3331161,5.21234462 C10.4381717,5.13313307 10.543849,5.05470215 10.6501394,4.97706049 L10.5729991,5.03362673 C10.6747572,4.95872047 10.7770823,4.88453974 10.8799668,4.81109216 L10.6501394,4.97706049 C10.7557312,4.89992917 10.861928,4.82357677 10.9687215,4.74801174 L10.8799668,4.81109216 C10.9831747,4.73741374 11.0869454,4.66447308 11.1912714,4.5922779 L10.9687215,4.74801174 C11.0939976,4.6593687 11.2200947,4.57180916 11.3469992,4.48534675 L11.1912714,4.5922779 C11.2745459,4.53465065 11.3581741,4.47749837 11.4421522,4.42082499 L11.3469992,4.48534675 C11.4527767,4.41327856 11.5591151,4.34197261 11.6660065,4.27143681 L11.6661949,4.27131247 C11.8414854,4.15564129 12.0184547,4.04192133 12.1968795,3.9303119 C12.4142741,3.79432928 12.6335685,3.66163233 12.8549553,3.53212414 L12.6735074,3.6392613 C12.7844442,3.57314814 12.8959163,3.50783969 13.0079156,3.443344 L12.8549553,3.53212414 C12.959471,3.47098394 13.064453,3.41055444 13.1698948,3.35084226 L13.1699713,3.35079894 C13.3457734,3.2512413 13.5229312,3.15363614 13.7013372,3.05805753 C13.9424733,2.92887127 14.1859557,2.80335465 14.4316438,2.6816183 L14.2370527,2.77905971 C14.3437869,2.72504911 14.4509452,2.67175498 14.5585213,2.61918365 L14.5583118,2.61928605 C14.8078233,2.49735234 15.0593691,2.37940287 15.31308,2.26541395 L15.3132139,2.26535375 C15.552136,2.15800922 15.7931142,2.05412073 16.0359487,1.95381432 L16.0361106,1.95374743 C16.2778143,1.85390815 16.5215213,1.75755554 16.7670048,1.66482155 L16.6466823,1.71061881 C16.7714254,1.6627815 16.8966322,1.61588028 17.022294,1.56992374 L16.7670048,1.66482155 C16.9015328,1.61400217 17.0365943,1.56426952 17.1721786,1.51563432 L17.022294,1.56992374 C17.1409925,1.52651379 17.2600971,1.48394674 17.3796005,1.44222982 L17.1721786,1.51563432 C17.2944018,1.47179185 17.4170498,1.42884118 17.5401148,1.38679016 L17.540373,1.38670196 C17.8101484,1.29452035 18.0821896,1.20658206 18.3561556,1.12305815 L18.1533672,1.18579787 C18.2817186,1.14550679 18.4105001,1.10618688 18.5397028,1.06784676 L18.3561556,1.12305815 C18.4692048,1.08859291 18.5825816,1.05487931 18.6962804,1.02192318 L18.6964489,1.02187433 L18.9668461,0.945099226 L18.9668461,0.945099226 L19.2992167,0.855078555 C19.4350958,0.8192506 19.5714115,0.784497913 19.708154,0.750830145 L19.6400317,0.767701259 C19.7654269,0.736464531 19.8911832,0.706140682 20.0172932,0.676737178 L19.708154,0.750830145 C19.8435212,0.717501021 19.9793067,0.6852351 20.1155011,0.654041748 L20.0172932,0.676737178 C20.1078588,0.655621101 20.1986068,0.634979679 20.2895344,0.614815678 L20.1155011,0.654041748 C20.2539963,0.622321466 20.3929143,0.591710293 20.5322454,0.562218077 L20.532766,0.562107873 C20.7234931,0.521736661 20.9155191,0.483363433 21.1082978,0.447123856 C21.4138029,0.389690169 21.7214594,0.337575576 22.0309081,0.290930112 L21.7422524,0.336109379 C21.8745139,0.314642411 22.007111,0.294176029 22.1400357,0.274718253 L22.1400181,0.274720824 C22.5554398,0.213910588 22.9740432,0.162953277 23.3956013,0.122091087 L23.3955709,0.12209403 Z M28.9123816,9.94805639 L29.9084488,10.1742062 C30.3069981,10.2646939 30.5743834,10.6396079 30.5301315,11.0458976 L30.3086907,13.0790086 C30.2717219,13.4184292 30.4530129,13.7442185 30.7609366,13.8917178 L31.9114225,14.442815 C32.221479,14.591336 32.5916474,14.5264334 32.8326814,14.2812883 L34.2453675,12.8445073 C34.5337907,12.5511648 34.9970442,12.5226576 35.3192578,12.7784233 L36.1232872,13.4166432 C36.4420319,13.6696554 36.5216543,14.1208398 36.3087665,14.4676715 L35.2493533,16.1936421 C35.0706538,16.484775 35.0952831,16.8570142 35.3107826,17.1220649 L36.1689303,18.1775317 C36.383742,18.4417364 36.7416164,18.5420982 37.0624855,18.4281192 L38.9583348,17.7546763 C39.3423661,17.6182608 39.7677443,17.7905445 39.948612,18.1557514 L40.4030247,19.0732985 C40.5848147,19.4403676 40.4617941,19.8854218 40.1172883,20.1070138 L38.4495053,21.1797601 C38.1601066,21.3659062 38.0211241,21.7154894 38.1037155,22.0495262 L38.4568219,23.477647 C38.5373449,23.8033182 38.8114961,24.0448411 39.1447193,24.0836738 L41.1785033,24.3206837 C41.5701523,24.3663251 41.8710113,24.6890768 41.8890753,25.0829624 L41.927397,25.9185645 L41.927966,25.9764866 L41.9171048,26.3912042 C41.9104368,26.6458098 41.7176081,26.8567876 41.4646272,26.8862691 L39.2506067,27.1442831 C38.9038495,27.184693 38.6227206,27.4441163 38.5546379,27.7865171 L38.2486493,29.3253931 C38.1841935,29.6495537 38.3245408,29.9801572 38.6025104,30.158952 L40.3411363,31.2772657 C40.6763059,31.4928525 40.8031441,31.9213206 40.6393395,32.2846172 L40.2450675,33.1590598 C40.0729658,33.5407584 39.6368742,33.7266509 39.2423236,33.5864987 L37.4164348,32.9379072 C37.0852032,32.8202472 36.7159325,32.9312414 36.5044637,33.2120246 L35.5222169,34.516228 C35.3232886,34.7803603 35.3062261,35.1393104 35.4792035,35.4211209 L36.5723377,37.2020289 C36.7811769,37.5422648 36.7089391,37.9841808 36.4026317,38.2402082 L35.7039321,38.8242172 C35.3823052,39.0930494 34.9081587,39.0698851 34.6142683,38.7709821 L33.2337568,37.3669245 C32.9883387,37.1173206 32.6096939,37.0550435 32.2972601,37.2128955 L30.8118444,37.9633774 C30.5126579,38.1145365 30.3385413,38.4353556 30.3748362,38.7685888 L30.5998039,40.8340815 C30.6437488,41.237552 30.3803011,41.6105793 29.9853646,41.7040931 L29.1318243,41.906196 C28.729538,42.0014501 28.3205362,41.7763181 28.1858189,41.3854743 L27.5352989,39.4981767 C27.4180647,39.1580551 27.0892794,38.9371029 26.7300735,38.9570444 L25.9725621,38.999098 C25.9428543,39.0007472 25.9130778,39.0007472 25.88337,38.999098 L25.1258585,38.9570444 C24.7666527,38.9371029 24.4378673,39.1580551 24.3206331,39.4981767 L23.6701132,41.3854743 C23.5353959,41.7763181 23.1263941,42.0014501 22.7241078,41.906196 L21.8705674,41.7040931 C21.475631,41.6105793 21.2121832,41.237552 21.2561281,40.8340815 L21.4810959,38.7685888 C21.5173907,38.4353556 21.3432742,38.1145365 21.0440876,37.9633774 L19.558672,37.2128955 C19.2462382,37.0550435 18.8675933,37.1173206 18.6221753,37.3669245 L17.2416637,38.7709821 C16.9477733,39.0698851 16.4736268,39.0930494 16.152,38.8242172 L15.4533003,38.2402082 C15.146993,37.9841808 15.0747551,37.5422648 15.2835944,37.2020289 L16.3767286,35.4211209 C16.549706,35.1393104 16.5326435,34.7803603 16.3337152,34.516228 L15.3514684,33.2120246 C15.1399996,32.9312414 14.7707289,32.8202472 14.4394973,32.9379072 L12.6136085,33.5864987 C12.2190579,33.7266509 11.7829663,33.5407584 11.6108646,33.1590598 L11.2165925,32.2846172 C11.052788,31.9213206 11.1796261,31.4928525 11.5147958,31.2772657 L13.2534217,30.158952 C13.5313913,29.9801572 13.6717386,29.6495537 13.6072828,29.3253931 L13.3012941,27.7865171 C13.2332115,27.4441163 12.9520826,27.184693 12.6053254,27.1442831 L10.3913048,26.8862691 C10.138324,26.8567876 9.9454953,26.6458098 9.9388273,26.3912042 L9.92796605,25.9764866 L9.92853502,25.9185645 L9.96685673,25.0829624 C9.98492079,24.6890768 10.2857797,24.3663251 10.6774288,24.3206837 L12.7112128,24.0836738 C13.044436,24.0448411 13.3185872,23.8033182 13.3991102,23.477647 L13.7522165,22.0495262 C13.8348079,21.7154894 13.6958254,21.3659062 13.4064268,21.1797601 L11.7386438,20.1070138 C11.3941379,19.8854218 11.2711174,19.4403676 11.4529074,19.0732985 L11.9073201,18.1557514 C12.0881878,17.7905445 12.513566,17.6182608 12.8975973,17.7546763 L14.7934466,18.4281192 C15.1143157,18.5420982 15.4721901,18.4417364 15.6870018,18.1775317 L16.5451495,17.1220649 C16.760649,16.8570142 16.7852783,16.484775 16.6065788,16.1936421 L15.5471655,14.4676715 C15.3342778,14.1208398 15.4139002,13.6696554 15.7326449,13.4166432 L16.5366742,12.7784233 C16.8588879,12.5226576 17.3221414,12.5511648 17.6105646,12.8445073 L19.0232506,14.2812883 C19.2642847,14.5264334 19.634453,14.591336 19.9445096,14.442815 L21.0949954,13.8917178 C21.4029191,13.7442185 21.5842102,13.4184292 21.5472414,13.0790086 L21.3258006,11.0458976 C21.2815486,10.6396079 21.548934,10.2646939 21.9474833,10.1742062 L22.9435505,9.94805639 C23.3439264,9.85715395 23.748522,10.082303 23.8823125,10.4704579 L24.5338745,12.360779 C24.6507272,12.6997705 24.9778043,12.9205228 25.3358957,12.9020753 C25.5761478,12.8896984 25.7735046,12.88351 25.927966,12.88351 C26.0824251,12.88351 26.2797781,12.8896983 26.5200251,12.9020747 C26.8781249,12.9205358 27.2052103,12.6997778 27.3220588,12.3607753 L27.9736196,10.4704579 C28.1074101,10.082303 28.5120057,9.85715395 28.9123816,9.94805639 Z M28.3534325,27.7293843 C26.8158782,30.3925064 26.9833328,33.5722846 28.5175218,36.0056006 C33.0089299,34.8547935 36.3289395,30.779722 36.3289395,25.9291614 C36.3289395,25.4017999 36.2896956,24.8836051 36.2139691,24.3773384 L36.1503768,23.999918 L36.1031527,23.7692209 C33.0629846,23.4573445 29.9805269,24.9111742 28.3534325,27.7293843 Z M15.7525412,23.7690298 C15.6053659,24.4658911 15.5279532,25.1884852 15.5279532,25.9291614 C15.5279532,30.779722 18.8479628,34.8547935 23.3397865,36.0043873 C24.8735341,33.5722398 25.0410145,30.3925064 23.5034603,27.7293843 C21.8763659,24.9111742 18.7938982,23.4573274 15.7525412,23.7690298 Z M25.9284659,24.32782 C25.0447684,24.32782 24.32839,25.0442532 24.32839,25.9280182 C24.32839,26.8117832 25.0447684,27.5282164 25.9284659,27.5282164 C26.8121634,27.5282164 27.5285418,26.8117832 27.5285418,25.9280182 C27.5285418,25.0442532 26.8121634,24.32782 25.9284659,24.32782 Z M25.9284464,15.5278734 C23.0398871,15.5278734 20.4263625,16.7055271 18.5420422,18.607148 C19.7481858,21.4974765 22.6011062,23.5288641 25.9284464,23.5288641 C29.2557866,23.5288641 32.108707,21.4974765 33.3151563,18.6069362 C31.4305302,16.7055271 28.8170057,15.5278734 25.9284464,15.5278734 Z" transform="translate(3.072 3.072)"/>
  </g>
</svg>
