<?xml version="1.0" encoding="UTF-8"?>
<svg width="64px" height="64px" viewBox="0 0 64 64" version="1.1" xmlns="http://www.w3.org/2000/svg" xmlns:xlink="http://www.w3.org/1999/xlink">
    <title>apps/64/eye-care</title>
    <defs>
        <filter x="-9.6%" y="-7.7%" width="119.2%" height="119.2%" filterUnits="objectBoundingBox" id="filter-1">
            <feOffset dx="0" dy="1" in="SourceAlpha" result="shadowOffsetOuter1"></feOffset>
            <feGaussianBlur stdDeviation="1.5" in="shadowOffsetOuter1" result="shadowBlurOuter1"></feGaussianBlur>
            <feColorMatrix values="0 0 0 0 0   0 0 0 0 0   0 0 0 0 0  0 0 0 0.2 0" type="matrix" in="shadowBlurOuter1" result="shadowMatrixOuter1"></feColorMatrix>
            <feMerge>
                <feMergeNode in="shadowMatrixOuter1"></feMergeNode>
                <feMergeNode in="SourceGraphic"></feMergeNode>
            </feMerge>
        </filter>
        <linearGradient x1="50%" y1="0%" x2="50%" y2="100%" id="linearGradient-2">
            <stop stop-color="#FFE94B" offset="0%"></stop>
            <stop stop-color="#FFB31B" offset="100%"></stop>
        </linearGradient>
        <linearGradient x1="50%" y1="2.98925514%" x2="50%" y2="97.9240805%" id="linearGradient-3">
            <stop stop-color="#F9FDEE" offset="0%"></stop>
            <stop stop-color="#FEF6CF" offset="100%"></stop>
        </linearGradient>
        <path d="M3.22103963,6.03631157 L4.5,5.65717884 C7.49521748,4.76928191 10.4147504,3.64362258 13.230762,2.29093362 L15.9799554,0.970341179 C17.2521385,0.359239974 18.737329,0.380389369 19.9915954,1.0274677 L22.8669756,2.51088156 C25.6138907,3.92802011 28.5091833,5.03685133 31.5,5.81713361 L32.6359929,6.11350588 C34.6174342,6.63044947 36,8.4199943 36,10.467759 L36,23.4801432 C36,27.7019238 33.868964,31.6384529 30.3340022,33.9465855 L20.4602408,40.3936002 C18.9653079,41.3697079 17.0346921,41.3697079 15.5397592,40.3936002 L5.6659978,33.9465855 C2.13103599,31.6384529 5.17019007e-16,27.7019238 0,23.4801432 L1.77635684e-15,10.3507363 C1.53232355e-15,8.35805325 1.3105328,6.60265881 3.22103963,6.03631157 Z" id="path-4"></path>
        <filter x="-5.6%" y="-1.1%" width="111.1%" height="106.2%" filterUnits="objectBoundingBox" id="filter-5">
            <feOffset dx="0" dy="1" in="SourceAlpha" result="shadowOffsetOuter1"></feOffset>
            <feGaussianBlur stdDeviation="0.5" in="shadowOffsetOuter1" result="shadowBlurOuter1"></feGaussianBlur>
            <feColorMatrix values="0 0 0 0 0.373564347   0 0 0 0 0.184487449   0 0 0 0 0  0 0 0 0.0953565477 0" type="matrix" in="shadowBlurOuter1"></feColorMatrix>
        </filter>
        <linearGradient x1="50%" y1="0%" x2="50%" y2="100%" id="linearGradient-6">
            <stop stop-color="#81EF5A" offset="4.24787615%"></stop>
            <stop stop-color="#00BF88" offset="100%"></stop>
        </linearGradient>
        <path d="M18,29.8214286 C22.005842,29.8214286 25.725015,28.2075273 29.1575189,24.9797249 L29.4786655,24.6725843 C31.3146644,22.8825779 31.3519487,19.9431198 29.5619422,18.1071209 L29.4786655,18.0238442 C25.9571833,14.5913461 22.1310246,12.875 18,12.875 C13.994158,12.875 10.274985,14.4889012 6.84248114,17.7167037 L6.52133445,18.0238442 C4.68533557,19.8138507 4.64805133,22.7533088 6.43805777,24.5893077 L6.52133445,24.6725843 C10.0428167,28.1050824 13.8689754,29.8214286 18,29.8214286 Z" id="path-7"></path>
        <filter x="-1.9%" y="-3.0%" width="103.9%" height="105.9%" filterUnits="objectBoundingBox" id="filter-8">
            <feOffset dx="0" dy="-1" in="SourceAlpha" result="shadowOffsetInner1"></feOffset>
            <feComposite in="shadowOffsetInner1" in2="SourceAlpha" operator="arithmetic" k2="-1" k3="1" result="shadowInnerInner1"></feComposite>
            <feColorMatrix values="0 0 0 0 0   0 0 0 0 0   0 0 0 0 0  0 0 0 0.160868185 0" type="matrix" in="shadowInnerInner1"></feColorMatrix>
        </filter>
    </defs>
    <g id="apps/64/eye-care" stroke="none" stroke-width="1" fill="none" fill-rule="evenodd">
        <g id="编组" filter="url(#filter-1)" transform="translate(6, 6)">
            <rect id="矩形" fill="url(#linearGradient-2)" fill-rule="nonzero" x="0" y="0" width="52" height="52" rx="11"></rect>
            <g id="编组-2" transform="translate(8, 5)">
                <g id="矩形">
                    <use fill="black" fill-opacity="1" filter="url(#filter-5)" xlink:href="#path-4"></use>
                    <use fill="url(#linearGradient-3)" fill-rule="evenodd" xlink:href="#path-4"></use>
                </g>
                <path d="M11.7874338,10.5519788 C12.2104098,10.2619927 12.7883797,10.3698024 13.0783658,10.7927784 L14.8290564,13.3463498 C15.1190424,13.7693258 15.0112328,14.3472957 14.5882568,14.6372818 C14.1652808,14.9272678 13.5873109,14.8194582 13.2973248,14.3964822 L11.5466342,11.8429108 C11.2566482,11.4199348 11.3644578,10.8419648 11.7874338,10.5519788 Z M24.0964948,10.5519788 C23.6735188,10.2619927 23.0955488,10.3698024 22.8055628,10.7927784 L21.0548722,13.3463498 C20.7648861,13.7693258 20.8726958,14.3472957 21.2956718,14.6372818 C21.7186478,14.9272678 22.2966177,14.8194582 22.5866037,14.3964822 L24.3372944,11.8429108 C24.6272804,11.4199348 24.5194708,10.8419648 24.0964948,10.5519788 Z M18,9 C18.5522847,9 19,9.44771525 19,10 L19,13 C19,13.5522847 18.5522847,14 18,14 C17.4477153,14 17,13.5522847 17,13 L17,10 C17,9.44771525 17.4477153,9 18,9 Z" id="形状结合" fill="#80EE5A" fill-rule="nonzero"></path>
                <g id="椭圆形" fill-rule="nonzero">
                    <use fill="url(#linearGradient-6)" xlink:href="#path-7"></use>
                    <use fill="black" fill-opacity="1" filter="url(#filter-8)" xlink:href="#path-7"></use>
                </g>
                <path d="M18,15.4285714 C21.077015,15.4285714 23.5714286,17.922985 23.5714286,21 C23.5714286,24.077015 21.077015,26.5714286 18,26.5714286 C14.922985,26.5714286 12.4285714,24.077015 12.4285714,21 C12.4285714,17.922985 14.922985,15.4285714 18,15.4285714 Z M18,17.2857143 C15.9486566,17.2857143 14.2857143,18.9486566 14.2857143,21 C14.2857143,23.0513434 15.9486566,24.7142857 18,24.7142857 C20.0513434,24.7142857 21.7142857,23.0513434 21.7142857,21 C21.7142857,18.9486566 20.0513434,17.2857143 18,17.2857143 Z" id="椭圆形" fill="#FDF8D6" fill-rule="nonzero"></path>
            </g>
        </g>
        <g id="Guide/64" transform="translate(2, 2)"></g>
    </g>
</svg>