<?xml version="1.0" encoding="UTF-8"?>
<svg width="64px" height="64px" viewBox="0 0 64 64" version="1.1" xmlns="http://www.w3.org/2000/svg" xmlns:xlink="http://www.w3.org/1999/xlink">
    <title>apps/64/fcitx/fcitx</title>
    <defs>
        <filter x="-9.6%" y="-7.7%" width="119.2%" height="119.2%" filterUnits="objectBoundingBox" id="filter-1">
            <feOffset dx="0" dy="1" in="SourceAlpha" result="shadowOffsetOuter1"></feOffset>
            <feGaussianBlur stdDeviation="1.5" in="shadowOffsetOuter1" result="shadowBlurOuter1"></feGaussianBlur>
            <feColorMatrix values="0 0 0 0 0   0 0 0 0 0   0 0 0 0 0  0 0 0 0.2 0" type="matrix" in="shadowBlurOuter1" result="shadowMatrixOuter1"></feColorMatrix>
            <feMerge>
                <feMergeNode in="shadowMatrixOuter1"></feMergeNode>
                <feMergeNode in="SourceGraphic"></feMergeNode>
            </feMerge>
        </filter>
        <linearGradient x1="50%" y1="0%" x2="50%" y2="100%" id="linearGradient-2">
            <stop stop-color="#DDDDDD" offset="0%"></stop>
            <stop stop-color="#9E9E9E" offset="100%"></stop>
        </linearGradient>
        <path d="M6.25,0 L45.75,0 C49.2017797,-6.34081642e-16 52,2.79822031 52,6.25 L52,22.75 C52,26.2017797 49.2017797,29 45.75,29 L6.25,29 C2.79822031,29 4.22721094e-16,26.2017797 0,22.75 L0,6.25 C-4.22721094e-16,2.79822031 2.79822031,6.34081642e-16 6.25,0 Z" id="path-3"></path>
        <filter x="-1.0%" y="-1.7%" width="101.9%" height="103.4%" filterUnits="objectBoundingBox" id="filter-4">
            <feOffset dx="0" dy="-1" in="SourceAlpha" result="shadowOffsetInner1"></feOffset>
            <feComposite in="shadowOffsetInner1" in2="SourceAlpha" operator="arithmetic" k2="-1" k3="1" result="shadowInnerInner1"></feComposite>
            <feColorMatrix values="0 0 0 0 0   0 0 0 0 0   0 0 0 0 0  0 0 0 0.25 0" type="matrix" in="shadowInnerInner1"></feColorMatrix>
        </filter>
        <linearGradient x1="50%" y1="0%" x2="50%" y2="100%" id="linearGradient-5">
            <stop stop-color="#E9E9E9" offset="0%"></stop>
            <stop stop-color="#E3E3E3" offset="100%"></stop>
        </linearGradient>
        <path d="M18.5,19 L40.5,19 C41.8807119,19 43,20.1192881 43,21.5 C43,22.8807119 41.8807119,24 40.5,24 L18.5,24 C17.1192881,24 16,22.8807119 16,21.5 C16,20.1192881 17.1192881,19 18.5,19 Z M5.5,12 L11,12 C12.3807119,12 13.5,13.1192881 13.5,14.5 C13.5,15.8807119 12.3807119,17 11,17 L5.5,17 C4.11928813,17 3,15.8807119 3,14.5 C3,13.1192881 4.11928813,12 5.5,12 Z M42.5,12 L46.5,12 C47.8807119,12 49,13.1192881 49,14.5 C49,15.8807119 47.8807119,17 46.5,17 L42.5,17 C41.1192881,17 40,15.8807119 40,14.5 C40,13.1192881 41.1192881,12 42.5,12 Z M46.5,24 C47.8807119,24 49,22.8807119 49,21.5 C49,20.1192881 47.8807119,19 46.5,19 C45.1192881,19 44,20.1192881 44,21.5 C44,22.8807119 45.1192881,24 46.5,24 Z M5.5,24 C6.88071187,24 8,22.8807119 8,21.5 C8,20.1192881 6.88071187,19 5.5,19 C4.11928813,19 3,20.1192881 3,21.5 C3,22.8807119 4.11928813,24 5.5,24 Z M12.5,24 C13.8807119,24 15,22.8807119 15,21.5 C15,20.1192881 13.8807119,19 12.5,19 C11.1192881,19 10,20.1192881 10,21.5 C10,22.8807119 11.1192881,24 12.5,24 Z M18.5,17 C19.8807119,17 21,15.8807119 21,14.5 C21,13.1192881 19.8807119,12 18.5,12 C17.1192881,12 16,13.1192881 16,14.5 C16,15.8807119 17.1192881,17 18.5,17 Z M24.5,17 C25.8807119,17 27,15.8807119 27,14.5 C27,13.1192881 25.8807119,12 24.5,12 C23.1192881,12 22,13.1192881 22,14.5 C22,15.8807119 23.1192881,17 24.5,17 Z M5.5,10 C6.88071187,10 8,8.88071187 8,7.5 C8,6.11928813 6.88071187,5 5.5,5 C4.11928813,5 3,6.11928813 3,7.5 C3,8.88071187 4.11928813,10 5.5,10 Z M34.5,10 C35.8807119,10 37,8.88071187 37,7.5 C37,6.11928813 35.8807119,5 34.5,5 C33.1192881,5 32,6.11928813 32,7.5 C32,8.88071187 33.1192881,10 34.5,10 Z M36.5,17 C37.8807119,17 39,15.8807119 39,14.5 C39,13.1192881 37.8807119,12 36.5,12 C35.1192881,12 34,13.1192881 34,14.5 C34,15.8807119 35.1192881,17 36.5,17 Z M30.5,17 C31.8807119,17 33,15.8807119 33,14.5 C33,13.1192881 31.8807119,12 30.5,12 C29.1192881,12 28,13.1192881 28,14.5 C28,15.8807119 29.1192881,17 30.5,17 Z M11.5,10 C12.8807119,10 14,8.88071187 14,7.5 C14,6.11928813 12.8807119,5 11.5,5 C10.1192881,5 9,6.11928813 9,7.5 C9,8.88071187 10.1192881,10 11.5,10 Z M17.5,10 C18.8807119,10 20,8.88071187 20,7.5 C20,6.11928813 18.8807119,5 17.5,5 C16.1192881,5 15,6.11928813 15,7.5 C15,8.88071187 16.1192881,10 17.5,10 Z M40.5,10 C41.8807119,10 43,8.88071187 43,7.5 C43,6.11928813 41.8807119,5 40.5,5 C39.1192881,5 38,6.11928813 38,7.5 C38,8.88071187 39.1192881,10 40.5,10 Z M46.5,10 C47.8807119,10 49,8.88071187 49,7.5 C49,6.11928813 47.8807119,5 46.5,5 C45.1192881,5 44,6.11928813 44,7.5 C44,8.88071187 45.1192881,10 46.5,10 Z M28.5,10 C29.8807119,10 31,8.88071187 31,7.5 C31,6.11928813 29.8807119,5 28.5,5 C27.1192881,5 26,6.11928813 26,7.5 C26,8.88071187 27.1192881,10 28.5,10 Z" id="path-6"></path>
        <filter x="-1.1%" y="-2.6%" width="102.2%" height="110.5%" filterUnits="objectBoundingBox" id="filter-7">
            <feOffset dx="0" dy="1" in="SourceAlpha" result="shadowOffsetOuter1"></feOffset>
            <feColorMatrix values="0 0 0 0 0   0 0 0 0 0   0 0 0 0 0  0 0 0 0.08 0" type="matrix" in="shadowOffsetOuter1"></feColorMatrix>
        </filter>
        <filter x="-1.1%" y="-2.6%" width="102.2%" height="110.5%" filterUnits="objectBoundingBox" id="filter-8">
            <feOffset dx="0" dy="1" in="SourceAlpha" result="shadowOffsetInner1"></feOffset>
            <feComposite in="shadowOffsetInner1" in2="SourceAlpha" operator="arithmetic" k2="-1" k3="1" result="shadowInnerInner1"></feComposite>
            <feColorMatrix values="0 0 0 0 1   0 0 0 0 1   0 0 0 0 1  0 0 0 0.3 0" type="matrix" in="shadowInnerInner1"></feColorMatrix>
        </filter>
        <linearGradient x1="50%" y1="0%" x2="50%" y2="100%" id="linearGradient-9">
            <stop stop-color="#03E297" offset="0%"></stop>
            <stop stop-color="#00A8D3" offset="98.5747466%"></stop>
        </linearGradient>
        <path d="M12.75,0 L35.1867982,-4.4408921e-16 C37.2538815,-8.23806238e-16 38.9311586,1.6727184 38.9367843,3.73979396 L38.99741,26.0153562 C38.9990378,26.6134774 38.7152067,27.1764858 38.2333828,27.530883 L25.1109659,37.1828484 C24.4500819,37.6689501 23.5499181,37.6689501 22.8890341,37.1828484 L9.76403412,27.528983 C9.28365868,27.1756512 9,26.6148846 9,26.0185593 L9,3.75 C9,1.67893219 10.6789322,3.80448985e-16 12.75,0 Z" id="path-10"></path>
        <filter x="-6.7%" y="-2.6%" width="113.3%" height="109.3%" filterUnits="objectBoundingBox" id="filter-11">
            <feOffset dx="0" dy="1" in="SourceAlpha" result="shadowOffsetOuter1"></feOffset>
            <feGaussianBlur stdDeviation="0.5" in="shadowOffsetOuter1" result="shadowBlurOuter1"></feGaussianBlur>
            <feColorMatrix values="0 0 0 0 0   0 0 0 0 0   0 0 0 0 0  0 0 0 0.1 0" type="matrix" in="shadowBlurOuter1"></feColorMatrix>
        </filter>
        <filter x="-5.0%" y="-1.3%" width="110.0%" height="106.7%" filterUnits="objectBoundingBox" id="filter-12">
            <feOffset dx="0" dy="-1" in="SourceAlpha" result="shadowOffsetInner1"></feOffset>
            <feComposite in="shadowOffsetInner1" in2="SourceAlpha" operator="arithmetic" k2="-1" k3="1" result="shadowInnerInner1"></feComposite>
            <feColorMatrix values="0 0 0 0 0   0 0 0 0 0   0 0 0 0 0  0 0 0 0.08 0" type="matrix" in="shadowInnerInner1" result="shadowMatrixInner1"></feColorMatrix>
            <feOffset dx="0" dy="1" in="SourceAlpha" result="shadowOffsetInner2"></feOffset>
            <feComposite in="shadowOffsetInner2" in2="SourceAlpha" operator="arithmetic" k2="-1" k3="1" result="shadowInnerInner2"></feComposite>
            <feColorMatrix values="0 0 0 0 1   0 0 0 0 1   0 0 0 0 1  0 0 0 0.25 0" type="matrix" in="shadowInnerInner2" result="shadowMatrixInner2"></feColorMatrix>
            <feMerge>
                <feMergeNode in="shadowMatrixInner1"></feMergeNode>
                <feMergeNode in="shadowMatrixInner2"></feMergeNode>
            </feMerge>
        </filter>
        <path d="M12.45375,12.9975 L12.45375,6.9975 L18.45375,6.9975 L18.45375,12.9975 L12.45375,12.9975 Z M2.44125,12.9975 L2.44125,6.9975 L9.45375,6.9975 L9.45375,12.9975 L2.44125,12.9975 Z M12.45375,4.60875 L12.45375,0 L9.45375,0 L9.45375,4.60875 L0,4.60875 L0,16.9975 L2.44125,16.9975 L2.44125,15.38625 L9.45375,15.38625 L9.45375,24.045 L12.45375,24.045 L12.45375,15.38625 L18.45375,15.38625 L18.45375,16.9975 L20.95375,16.9975 L20.95375,4.60875 L12.45375,4.60875 Z" id="path-13"></path>
        <filter x="-9.5%" y="-4.2%" width="119.1%" height="116.6%" filterUnits="objectBoundingBox" id="filter-14">
            <feOffset dx="0" dy="1" in="SourceAlpha" result="shadowOffsetOuter1"></feOffset>
            <feGaussianBlur stdDeviation="0.5" in="shadowOffsetOuter1" result="shadowBlurOuter1"></feGaussianBlur>
            <feColorMatrix values="0 0 0 0 0   0 0 0 0 0   0 0 0 0 0  0 0 0 0.16 0" type="matrix" in="shadowBlurOuter1"></feColorMatrix>
        </filter>
    </defs>
    <g id="apps/64/fcitx/fcitx" stroke="none" stroke-width="1" fill="none" fill-rule="evenodd">
        <g id="编组-2" filter="url(#filter-1)" transform="translate(6, 6)">
            <g id="编组" transform="translate(0, 23)">
                <g id="矩形">
                    <use fill="url(#linearGradient-2)" fill-rule="evenodd" xlink:href="#path-3"></use>
                    <use fill="black" fill-opacity="1" filter="url(#filter-4)" xlink:href="#path-3"></use>
                </g>
                <g id="形状结合">
                    <use fill="black" fill-opacity="1" filter="url(#filter-7)" xlink:href="#path-6"></use>
                    <use fill="url(#linearGradient-5)" fill-rule="evenodd" xlink:href="#path-6"></use>
                    <use fill="black" fill-opacity="1" filter="url(#filter-8)" xlink:href="#path-6"></use>
                </g>
            </g>
            <g id="路径-4">
                <use fill="black" fill-opacity="1" filter="url(#filter-11)" xlink:href="#path-10"></use>
                <use fill="url(#linearGradient-9)" fill-rule="evenodd" xlink:href="#path-10"></use>
                <use fill="black" fill-opacity="1" filter="url(#filter-12)" xlink:href="#path-10"></use>
            </g>
            <g id="中" transform="translate(13.5463, 5.0025)" fill-rule="nonzero">
                <g id="形状">
                    <use fill="black" fill-opacity="1" filter="url(#filter-14)" xlink:href="#path-13"></use>
                    <use fill="#FFFFFF" xlink:href="#path-13"></use>
                </g>
            </g>
        </g>
        <g id="Guide/64" transform="translate(2, 2)"></g>
    </g>
</svg>