<svg xmlns="http://www.w3.org/2000/svg" xmlns:xlink="http://www.w3.org/1999/xlink" width="64" height="64" viewBox="0 0 64 64">
  <defs>
    <filter id="uos-installtool-a" width="127.6%" height="130.6%" x="-13.8%" y="-16.2%" filterUnits="objectBoundingBox">
      <feOffset dy="1" in="SourceAlpha" result="shadowOffsetOuter1"/>
      <feGaussianBlur in="shadowOffsetOuter1" result="shadowBlurOuter1" stdDeviation="1.5"/>
      <feColorMatrix in="shadowBlurOuter1" result="shadowMatrixOuter1" values="0 0 0 0 0   0 0 0 0 0   0 0 0 0 0  0 0 0 0.2 0"/>
      <feMerge>
        <feMergeNode in="shadowMatrixOuter1"/>
        <feMergeNode in="SourceGraphic"/>
      </feMerge>
    </filter>
    <linearGradient id="uos-installtool-b" x1="34.316%" x2="63.451%" y1="8.679%" y2="100%">
      <stop offset="0%" stop-color="#00EADB"/>
      <stop offset="100%" stop-color="#0071FF"/>
    </linearGradient>
    <linearGradient id="uos-installtool-e" x1="50%" x2="50%" y1="25.076%" y2="100%">
      <stop offset="0%" stop-color="#FFF"/>
      <stop offset="100%" stop-color="#FFF" stop-opacity=".558"/>
    </linearGradient>
    <path id="uos-installtool-d" d="M22.7528,6 C23.4410618,6 23.9990082,6.55794641 23.9990082,7.24620819 L23.9990082,13.8638229 C23.9990082,16.6314196 26.2425886,18.875 29.0101852,18.875 C31.7777819,18.875 34.0213623,16.6314196 34.0213623,13.8638229 L34.0213623,7.25 C34.0213623,6.55964406 34.5810064,6 35.2713623,6 C35.9617182,6 36.5213623,6.55964406 36.5213623,7.25 L36.5213623,13.9926147 C36.5213623,18.1388291 33.1601914,21.5 29.0139771,21.5 C24.8677627,21.5 21.5065918,18.1388291 21.5065918,13.9926147 L21.5065918,7.24620819 C21.5065918,6.55794641 22.0645382,6 22.7528,6 Z"/>
    <filter id="uos-installtool-c" width="186.6%" height="183.9%" x="-43.3%" y="-35.5%" filterUnits="objectBoundingBox">
      <feOffset dy="1" in="SourceAlpha" result="shadowOffsetOuter1"/>
      <feGaussianBlur in="shadowOffsetOuter1" result="shadowBlurOuter1" stdDeviation="2"/>
      <feColorMatrix in="shadowBlurOuter1" values="0 0 0 0 0.121292169   0 0 0 0 0.290439071   0 0 0 0 0.413043478  0 0 0 0.1 0"/>
    </filter>
    <linearGradient id="uos-installtool-f" x1="50%" x2="50%" y1="0%" y2="100%">
      <stop offset="0%" stop-color="#C5C5C5"/>
      <stop offset="100%" stop-color="#EAEAEA"/>
    </linearGradient>
    <path id="uos-installtool-g" d="M6.33333333,20.5 L51.6666667,20.5 C52.4030463,20.5 53,21.0969537 53,21.8333333 L53,51.5 C53,53.709139 51.209139,55.5 49,55.5 L9,55.5 C6.790861,55.5 5,53.709139 5,51.5 L5,21.8333333 C5,21.0969537 5.59695367,20.5 6.33333333,20.5 Z"/>
    <filter id="uos-installtool-h" width="102.1%" height="102.9%" x="-1%" y="-1.4%" filterUnits="objectBoundingBox">
      <feOffset dy="-1" in="SourceAlpha" result="shadowOffsetInner1"/>
      <feComposite in="shadowOffsetInner1" in2="SourceAlpha" k2="-1" k3="1" operator="arithmetic" result="shadowInnerInner1"/>
      <feColorMatrix in="shadowInnerInner1" values="0 0 0 0 0   0 0 0 0 0   0 0 0 0 0  0 0 0 0.12 0"/>
    </filter>
    <linearGradient id="uos-installtool-i" x1="50%" x2="50%" y1="2.049%" y2="93.25%">
      <stop offset="0%" stop-color="#8092A3"/>
      <stop offset="100%" stop-color="#3D5C71"/>
    </linearGradient>
    <path id="uos-installtool-j" d="M26,33.5 L32,33.5 C32.5522847,33.5 33,33.9477153 33,34.5 L33,41.5 L33,41.5 L35.5857864,41.5 C36.1380712,41.5 36.5857864,41.9477153 36.5857864,42.5 C36.5857864,42.7652165 36.4804296,43.0195704 36.2928932,43.2071068 L30.2374369,49.2625631 C29.5540194,49.9459806 28.4459806,49.9459806 27.7625631,49.2625631 L21.7071068,43.2071068 C21.3165825,42.8165825 21.3165825,42.1834175 21.7071068,41.7928932 C21.8946432,41.6053568 22.1489971,41.5 22.4142136,41.5 L25,41.5 L25,41.5 L25,34.5 C25,33.9477153 25.4477153,33.5 26,33.5 Z"/>
    <filter id="uos-installtool-k" width="101%" height="113.4%" x="-.5%" y="-8.8%" filterUnits="objectBoundingBox">
      <feGaussianBlur in="SourceAlpha" result="shadowBlurInner1" stdDeviation="1"/>
      <feOffset dy="1" in="shadowBlurInner1" result="shadowOffsetInner1"/>
      <feComposite in="shadowOffsetInner1" in2="SourceAlpha" k2="-1" k3="1" operator="arithmetic" result="shadowInnerInner1"/>
      <feColorMatrix in="shadowInnerInner1" values="0 0 0 0 0   0 0 0 0 0   0 0 0 0 0  0 0 0 0.078032807 0"/>
    </filter>
    <linearGradient id="uos-installtool-l" x1="50%" x2="50%" y1=".694%" y2="100%">
      <stop offset="0%" stop-color="#FFF"/>
      <stop offset="100%" stop-color="#BFBFBF"/>
    </linearGradient>
    <linearGradient id="uos-installtool-m" x1="50%" x2="50%" y1=".694%" y2="100%">
      <stop offset="0%" stop-color="#F4F4F4"/>
      <stop offset="100%" stop-color="#EBEBEB"/>
    </linearGradient>
  </defs>
  <g fill="none" filter="url(#uos-installtool-a)" transform="translate(3 4.5)">
    <path fill="#FFF" stroke="#F8FCFF" d="M18.439545,2.20663013 C23.3770706,-0.49600719 29.3457159,-1.31487321 35.1758605,0.390160572 C41.004804,2.09524521 45.590972,6.00156082 48.2935281,10.9393432 C50.9958447,15.8766881 51.8148878,21.8453249 50.1099508,27.6757679 C48.4056926,33.5048653 44.4995582,38.0907335 39.5623634,40.7932133 C34.6247068,43.4959459 28.6557984,44.3149291 22.8268427,42.6098409 C16.9968836,40.9048613 12.4102419,36.9985687 9.70728627,32.0612144 C7.00422691,27.1236705 6.18499657,21.1549813 7.89006046,15.3254794 C9.59574852,9.49550666 13.5021144,4.90921546 18.439545,2.20663013 Z"/>
    <circle cx="29" cy="21.5" r="19.25" fill="url(#uos-installtool-b)"/>
    <use fill="#000" filter="url(#uos-installtool-c)" xlink:href="#uos-installtool-d"/>
    <use fill="url(#uos-installtool-e)" xlink:href="#uos-installtool-d"/>
    <use fill="url(#uos-installtool-f)" xlink:href="#uos-installtool-g"/>
    <use fill="#000" filter="url(#uos-installtool-h)" xlink:href="#uos-installtool-g"/>
    <use fill="url(#uos-installtool-i)" xlink:href="#uos-installtool-j"/>
    <use fill="#000" filter="url(#uos-installtool-k)" xlink:href="#uos-installtool-j"/>
    <g transform="translate(0 17.5)">
      <path fill="url(#uos-installtool-l)" d="M57.8790333,11.5150685 C58.2181588,12.3351735 57.8204809,13 56.9831999,13 L1.01779115,13 C0.183910626,13 -0.218862725,12.3374555 0.120273717,11.5150685 L4.25650683,1.48493155 C4.59470217,0.664826495 5.54170954,-4.67662176e-09 6.37911673,-4.67662176e-09 L51.6071316,-4.67662176e-09 C52.4412214,-4.67662176e-09 53.3913566,0.662544372 53.7314255,1.48493155 L57.8790333,11.5150685 Z"/>
      <path fill="url(#uos-installtool-m)" d="M52.3869427,0.999999995 C52.9437216,0.999999995 53.5795101,1.41089694 53.8051893,1.91383055 L57.9194004,11.0824815 C58.1458973,11.5872373 57.8785674,11.9964505 57.3237222,11.996485 L0.676763085,12 C0.121282182,12 -0.145128751,11.5891188 0.0798966867,11.0862635 L4.18218689,1.91903741 C4.40802757,1.41436015 5.04308399,1.00518887 5.59924544,1.00512792 L52.3869427,0.999999995 Z"/>
    </g>
  </g>
</svg>
