<svg xmlns="http://www.w3.org/2000/svg" xmlns:xlink="http://www.w3.org/1999/xlink" width="64" height="64" viewBox="0 0 64 64">
  <defs>
    <filter id="uos-windesk-a" width="128.6%" height="128.6%" x="-14.3%" y="-14.3%" filterUnits="objectBoundingBox">
      <feOffset dy="1" in="SourceAlpha" result="shadowOffsetOuter1"/>
      <feGaussianBlur in="shadowOffsetOuter1" result="shadowBlurOuter1" stdDeviation="1.5"/>
      <feColorMatrix in="shadowBlurOuter1" result="shadowMatrixOuter1" values="0 0 0 0 0   0 0 0 0 0   0 0 0 0 0  0 0 0 0.2 0"/>
      <feMerge>
        <feMergeNode in="shadowMatrixOuter1"/>
        <feMergeNode in="SourceGraphic"/>
      </feMerge>
    </filter>
    <linearGradient id="uos-windesk-b" x1="50%" x2="50%" y1="0%" y2="98.139%">
      <stop offset="0%" stop-color="#FFF"/>
      <stop offset="100%" stop-color="#EDEDED"/>
    </linearGradient>
    <path id="uos-windesk-c" d="M12.3333333,1 L43.6666667,1 C49.9258938,1 55,6.07410617 55,12.3333333 L55,43.6666667 C55,49.9258938 49.9258938,55 43.6666667,55 L12.3333333,55 C6.07410617,55 1,49.9258938 1,43.6666667 L1,12.3333333 C1,6.07410617 6.07410617,1 12.3333333,1 Z"/>
    <filter id="uos-windesk-d" width="101.9%" height="101.9%" x="-.9%" y="-.9%" filterUnits="objectBoundingBox">
      <feOffset dy="-1" in="SourceAlpha" result="shadowOffsetInner1"/>
      <feComposite in="shadowOffsetInner1" in2="SourceAlpha" k2="-1" k3="1" operator="arithmetic" result="shadowInnerInner1"/>
      <feColorMatrix in="shadowInnerInner1" values="0 0 0 0 0   0 0 0 0 0   0 0 0 0 0  0 0 0 0.101016171 0"/>
    </filter>
    <linearGradient id="uos-windesk-g" x1="89.338%" x2="0%" y1="0%" y2="100%">
      <stop offset="0%" stop-color="#00EADB"/>
      <stop offset="100%" stop-color="#0065FF"/>
    </linearGradient>
    <path id="uos-windesk-f" d="M16.5,13 L30.5,13 C32.4329966,13 34,14.5670034 34,16.5 L34,30.5 C34,32.4329966 32.4329966,34 30.5,34 L16.5,34 C14.5670034,34 13,32.4329966 13,30.5 L13,16.5 C13,14.5670034 14.5670034,13 16.5,13 Z"/>
    <filter id="uos-windesk-e" width="133.3%" height="133.3%" x="-16.7%" y="-11.9%" filterUnits="objectBoundingBox">
      <feOffset dy="1" in="SourceAlpha" result="shadowOffsetOuter1"/>
      <feGaussianBlur in="shadowOffsetOuter1" result="shadowBlurOuter1" stdDeviation="1"/>
      <feColorMatrix in="shadowBlurOuter1" values="0 0 0 0 0.322289899   0 0 0 0 0.533281681   0 0 0 0 0.621721351  0 0 0 0.205947129 0"/>
    </filter>
    <linearGradient id="uos-windesk-j" x1="14.084%" x2="88.067%" y1="13.669%" y2="100%">
      <stop offset="0%" stop-color="#00EADB"/>
      <stop offset="100%" stop-color="#0065FF"/>
    </linearGradient>
    <path id="uos-windesk-i" d="M21.5,1.52766688e-13 C24.4634791,1.5330826e-13 26.8795391,2.34378001 26.9956328,5.27879286 L27,5.5 L26.9993333,10.9993333 L16.5,11 C13.5365209,11 11.1204609,13.34378 11.0043672,16.2787929 L11,16.5 L10.9993333,26.9993333 L5.5,27 C2.53652085,27 0.120460863,24.65622 0.00436720397,21.7212071 L6.07514039e-13,21.5 L6.07514039e-13,5.5 C6.07514039e-13,2.53652085 2.34378001,0.120460863 5.27879286,0.00436720397 L5.5,1.52766688e-13 L21.5,1.52766688e-13 Z M12.9993333,26.9993333 L13,16.5 C13,14.6314366 14.4642776,13.1048736 16.3079648,13.0051789 L16.5,13 L26.9993333,12.9993333 L27,21.5 C27,24.4634791 24.65622,26.8795391 21.7212071,26.9956328 L21.5,27 L12.9993333,26.9993333 Z"/>
    <filter id="uos-windesk-h" width="125.9%" height="125.9%" x="-13%" y="-9.3%" filterUnits="objectBoundingBox">
      <feOffset dy="1" in="SourceAlpha" result="shadowOffsetOuter1"/>
      <feGaussianBlur in="shadowOffsetOuter1" result="shadowBlurOuter1" stdDeviation="1"/>
      <feColorMatrix in="shadowBlurOuter1" values="0 0 0 0 0.322289899   0 0 0 0 0.533281681   0 0 0 0 0.621721351  0 0 0 0.205947129 0"/>
    </filter>
    <linearGradient id="uos-windesk-k" x1="7.914%" x2="92.611%" y1="6.788%" y2="88.937%">
      <stop offset="0%" stop-color="#FFF" stop-opacity=".05"/>
      <stop offset="100%" stop-opacity=".05"/>
    </linearGradient>
  </defs>
  <g fill="none" fill-rule="evenodd" filter="url(#uos-windesk-a)" transform="translate(4 4)">
    <use fill="url(#uos-windesk-b)" xlink:href="#uos-windesk-c"/>
    <use fill="#000" filter="url(#uos-windesk-d)" xlink:href="#uos-windesk-c"/>
    <path fill="#000" fill-opacity=".04" fill-rule="nonzero" d="M43.6666667,0 L12.3333333,0 C5.52182142,0 0,5.52182142 0,12.3333333 L0,43.6666667 C0,50.4781786 5.52182142,56 12.3333333,56 L43.6666667,56 C50.4781786,56 56,50.4781786 56,43.6666667 L56,12.3333333 C56,5.52182142 50.4781786,0 43.6666667,0 Z M43.6666667,1 C49.9258938,1 55,6.07410617 55,12.3333333 L55,43.6666667 C55,49.9258938 49.9258938,55 43.6666667,55 L12.3333333,55 C6.07410617,55 1,49.9258938 1,43.6666667 L1,12.3333333 C1,6.07410617 6.07410617,1 12.3333333,1 L43.6666667,1 Z"/>
    <g fill-rule="nonzero" transform="translate(11 11)">
      <g transform="matrix(-1 0 0 1 47 0)">
        <use fill="#000" filter="url(#uos-windesk-e)" xlink:href="#uos-windesk-f"/>
        <use fill="url(#uos-windesk-g)" xlink:href="#uos-windesk-f"/>
      </g>
      <use fill="#000" filter="url(#uos-windesk-h)" xlink:href="#uos-windesk-i"/>
      <use fill="url(#uos-windesk-j)" xlink:href="#uos-windesk-i"/>
      <path fill="#000" fill-opacity=".05" d="M30.5,13 C32.4329966,13 34,14.5670034 34,16.5 L34,30.5 C34,32.4329966 32.4329966,34 30.5,34 L16.5,34 C14.5670034,34 13,32.4329966 13,30.5 L13,16.5 C13,14.5670034 14.5670034,13 16.5,13 L30.5,13 Z M30.5,14 L16.5,14 C15.1745166,14 14.0899613,15.0315359 14.0053177,16.3356243 L14,16.5 L14,30.5 C14,31.8254834 15.0315359,32.9100387 16.3356243,32.9946823 L16.5,33 L30.5,33 C31.8254834,33 32.9100387,31.9684641 32.9946823,30.6643757 L33,30.5 L33,16.5 C33,15.1745166 31.9684641,14.0899613 30.6643757,14.0053177 L30.5,14 Z" transform="matrix(-1 0 0 1 47 0)"/>
      <path fill="url(#uos-windesk-k)" d="M21.5,1.52766688e-13 C24.4634791,1.52766688e-13 26.8795391,2.34378001 26.9956328,5.27879286 L27,5.5 L26.9993333,10.9993333 L16.5,11 C13.5365209,11 11.1204609,13.34378 11.0043672,16.2787929 L11,16.5 L10.9993333,26.9993333 L5.5,27 C2.53652085,27 0.120460863,24.65622 0.00436720397,21.7212071 L6.07514039e-13,21.5 L6.07514039e-13,5.5 C6.07514039e-13,2.53652085 2.34378001,0.120460863 5.27879286,0.00436720397 L5.5,1.52766688e-13 L21.5,1.52766688e-13 Z M26.9993333,12.9993333 L27,21.5 C27,24.4634791 24.65622,26.8795391 21.7212071,26.9956328 L21.5,27 L12.9993333,26.9993333 L13,16.5 C13,14.6314366 14.4642776,13.1048736 16.3079648,13.0051789 L16.5,13 L26.9993333,12.9993333 Z M5.51973875,0.999805172 L5.31831669,1.00358583 C2.98176455,1.09600754 1.11283882,2.96721015 1.00492325,5.28783319 L0.999805172,5.5 L0.999805172,21.4802612 L1.00358583,21.6816833 C1.09600754,24.0182354 2.96721015,25.8871612 5.28772235,25.9950768 L5.49987877,26 L9.999,25.999 L10.0001948,16.4802612 L10.0051486,16.239269 C10.1397136,12.8372728 12.8814396,10.1230199 16.2680547,10.0040664 L16.4999365,10 L25.999,9.999 L26.0001948,5.51973875 L25.9964142,5.31831669 C25.9039925,2.98176455 24.0327899,1.11283882 21.7121668,1.00492325 L21.5,0.999805172 L5.51973875,0.999805172 Z M25.999,13.999 L16.5269585,13.9996366 L16.3619595,14.0037201 C15.0960576,14.0721719 14.0872375,15.0810115 14.0053669,16.3351467 L14,16.5000635 L13.999,25.999 L21.4802612,26.0001948 L21.6816833,25.9964142 C24.0182354,25.9039925 25.8871612,24.0327899 25.9950768,21.7122385 L26,21.5000784 L25.999,13.999 Z"/>
    </g>
  </g>
</svg>
