<?xml version="1.0" encoding="UTF-8"?>
<svg width="64px" height="64px" viewBox="0 0 64 64" version="1.1" xmlns="http://www.w3.org/2000/svg" xmlns:xlink="http://www.w3.org/1999/xlink">
    <title>apps/64/uos-id</title>
    <defs>
        <filter x="-8.6%" y="-6.9%" width="117.2%" height="117.2%" filterUnits="objectBoundingBox" id="filter-1">
            <feOffset dx="0" dy="1" in="SourceAlpha" result="shadowOffsetOuter1"></feOffset>
            <feGaussianBlur stdDeviation="1.5" in="shadowOffsetOuter1" result="shadowBlurOuter1"></feGaussianBlur>
            <feColorMatrix values="0 0 0 0 0   0 0 0 0 0   0 0 0 0 0  0 0 0 0.2 0" type="matrix" in="shadowBlurOuter1" result="shadowMatrixOuter1"></feColorMatrix>
            <feMerge>
                <feMergeNode in="shadowMatrixOuter1"></feMergeNode>
                <feMergeNode in="SourceGraphic"></feMergeNode>
            </feMerge>
        </filter>
        <linearGradient x1="50.0006818%" y1="2.22971221%" x2="50.0006818%" y2="97.1222502%" id="linearGradient-2">
            <stop stop-color="#E8FFFF" offset="0%"></stop>
            <stop stop-color="#C0E9FE" offset="100%"></stop>
        </linearGradient>
        <linearGradient x1="50%" y1="0%" x2="50%" y2="100%" id="linearGradient-3">
            <stop stop-color="#00A9FF" offset="0%"></stop>
            <stop stop-color="#0049EA" offset="100%"></stop>
        </linearGradient>
        <circle id="path-4" cx="29" cy="29" r="25.3135593"></circle>
        <filter x="-7.9%" y="-7.9%" width="115.8%" height="115.8%" filterUnits="objectBoundingBox" id="filter-5">
            <feGaussianBlur stdDeviation="4" in="SourceAlpha" result="shadowBlurInner1"></feGaussianBlur>
            <feOffset dx="0" dy="0" in="shadowBlurInner1" result="shadowOffsetInner1"></feOffset>
            <feComposite in="shadowOffsetInner1" in2="SourceAlpha" operator="arithmetic" k2="-1" k3="1" result="shadowInnerInner1"></feComposite>
            <feColorMatrix values="0 0 0 0 0   0 0 0 0 0.171342171   0 0 0 0 0.336347055  0 0 0 0.5 0" type="matrix" in="shadowInnerInner1"></feColorMatrix>
        </filter>
        <linearGradient x1="50.0006818%" y1="2.22971221%" x2="50.0006818%" y2="97.1222502%" id="linearGradient-6">
            <stop stop-color="#FFFFFF" offset="0%"></stop>
            <stop stop-color="#C0E9FE" offset="100%"></stop>
        </linearGradient>
        <linearGradient x1="50%" y1="-44.5205284%" x2="50%" y2="100%" id="linearGradient-7">
            <stop stop-color="#0088FF" offset="0%"></stop>
            <stop stop-color="#0050FF" offset="100%"></stop>
        </linearGradient>
    </defs>
    <g id="apps/64/uos-id" stroke="none" stroke-width="1" fill="none" fill-rule="evenodd">
        <g id="编组" filter="url(#filter-1)" transform="translate(3, 3)">
            <circle id="椭圆形" fill="url(#linearGradient-2)" fill-rule="nonzero" cx="29" cy="29" r="29"></circle>
            <g id="椭圆形" fill-rule="nonzero">
                <use fill="url(#linearGradient-3)" xlink:href="#path-4"></use>
                <use fill="black" fill-opacity="1" filter="url(#filter-5)" xlink:href="#path-4"></use>
            </g>
            <path d="M42.1986546,24.1981831 C41.2893979,20.902729 38.0632771,18.4611772 34.2114586,18.4611772 C33.0908061,18.4611772 32.0244883,18.669446 31.0498602,19.0427279 C29.3790692,17.4022101 27.0129643,16.3728814 24.3819778,16.3728814 C19.3696048,16.3728814 15.3029947,20.0920825 15.2257376,24.7044366 C12.3680737,25.6568662 10.3220339,28.1761183 10.3220339,31.1431484 C10.3220339,34.9056054 13.6067343,37.9567442 17.6716465,37.9911886 L17.6716465,38 L40.2833576,38 L40.2833576,37.9871835 C44.3873229,37.8726356 47.6779661,34.7718327 47.6779661,30.9541044 C47.6779661,27.7531723 45.364498,25.0552896 42.1986546,24.1981831 Z" id="Shape" fill="url(#linearGradient-6)" fill-rule="nonzero" transform="translate(29, 27.1864) scale(-1, 1) translate(-29, -27.1864)"></path>
            <path d="M38,27.375 L38,30.625 C38,30.8321068 37.8321068,31 37.625,31 L30.375,31 C30.1678932,31 30,30.8321068 30,30.625 L30,29.375 C30,29.1678932 30.1678932,29 30.375,29 L31.625,29 C31.8321068,29 32,28.8321068 32,28.625 L32,27.375 C32,27.1678932 32.1678932,27 32.375,27 L37.625,27 C37.8321068,27 38,27.1678932 38,27.375 Z M18,27.375 L18,30.625 C18,30.8321068 18.1678932,31 18.375,31 L25.625,31 C25.8321068,31 26,30.8321068 26,30.625 L26,29.375 C26,29.1678932 25.8321068,29 25.625,29 L24.375,29 C24.1678932,29 24,28.8321068 24,28.625 L24,27.375 C24,27.1678932 23.8321068,27 23.625,27 L18.375,27 C18.1678932,27 18,27.1678932 18,27.375 Z" id="形状结合" fill="url(#linearGradient-7)"></path>
        </g>
        <g id="Guide/128" transform="translate(2, 2)"></g>
    </g>
</svg>