<svg xmlns="http://www.w3.org/2000/svg" xmlns:xlink="http://www.w3.org/1999/xlink" width="64" height="64" viewBox="0 0 64 64">
  <defs>
    <filter id="deepin-browser64-a" width="126.7%" height="126.7%" x="-13.3%" y="-13.3%" filterUnits="objectBoundingBox">
      <feOffset dy="1" in="SourceAlpha" result="shadowOffsetOuter1"/>
      <feGaussianBlur in="shadowOffsetOuter1" result="shadowBlurOuter1" stdDeviation="1.5"/>
      <feComposite in="shadowBlurOuter1" in2="SourceAlpha" operator="out" result="shadowBlurOuter1"/>
      <feColorMatrix in="shadowBlurOuter1" result="shadowMatrixOuter1" values="0 0 0 0 0   0 0 0 0 0   0 0 0 0 0  0 0 0 0.2 0"/>
      <feMerge>
        <feMergeNode in="shadowMatrixOuter1"/>
        <feMergeNode in="SourceGraphic"/>
      </feMerge>
    </filter>
    <linearGradient id="deepin-browser64-c" x1="50%" x2="50%" y1="0%" y2="98.139%">
      <stop offset="0%" stop-color="#FFF"/>
      <stop offset="100%" stop-color="#EDEDED"/>
    </linearGradient>
    <rect id="deepin-browser64-b" width="60" height="60" x="0" y="0" rx="29.5"/>
    <filter id="deepin-browser64-d" width="116.8%" height="117.8%" x="-8%" y="-8.9%" filterUnits="objectBoundingBox">
      <feOffset dy="1" in="SourceAlpha" result="shadowOffsetOuter1"/>
      <feGaussianBlur in="shadowOffsetOuter1" result="shadowBlurOuter1" stdDeviation="1"/>
      <feColorMatrix in="shadowBlurOuter1" result="shadowMatrixOuter1" values="0 0 0 0 0   0 0 0 0 0.016769553   0 0 0 0 0.440387228  0 0 0 0.29 0"/>
      <feMerge>
        <feMergeNode in="shadowMatrixOuter1"/>
        <feMergeNode in="SourceGraphic"/>
      </feMerge>
    </filter>
    <linearGradient id="deepin-browser64-g" x1="36.116%" x2="81.488%" y1="9.879%" y2="45.888%">
      <stop offset="0%" stop-color="#A05FF8"/>
      <stop offset="100%" stop-color="#0BDCFF"/>
    </linearGradient>
    <path id="deepin-browser64-f" d="M43.2294894,0.345049387 C64.5949813,2.82612948 81.2437789,25.1451319 81.2437789,36.416447 C81.2437789,47.687762 73.0912982,76.1720939 49.3404158,72.4517615 C25.5895335,68.7314291 -15.7579276,58.9660602 6.41101626,54.7207518 C10.0206419,54.0295158 13.1933341,53.2337141 15.9721172,52.3432803 C16.8517674,52.4860608 17.7556421,52.5600917 18.6768077,52.5600917 C27.9686254,52.5600917 35.501132,45.0275852 35.501132,35.7357674 C35.501132,26.4439497 27.9686254,18.9114431 18.6768077,18.9114431 C14.0415013,18.9114431 9.84401752,20.7859845 6.80107639,23.8183474 L6.78431944,23.91267 C8.60527424,13.4605118 21.8639975,-2.13603071 43.2294894,0.345049387 Z"/>
    <linearGradient id="deepin-browser64-h" x1="50%" x2="81.713%" y1="0%" y2="50%">
      <stop offset="0%" stop-color="#336EFF"/>
      <stop offset="100%" stop-color="#954FFF"/>
    </linearGradient>
    <linearGradient id="deepin-browser64-j" x1="50%" x2="54.602%" y1="0%" y2="82.155%">
      <stop offset="0%" stop-color="#523DFF"/>
      <stop offset="100%" stop-color="#A717FF"/>
    </linearGradient>
  </defs>
  <g fill="none" fill-rule="evenodd" filter="url(#deepin-browser64-a)" transform="translate(2 2)">
    <mask id="deepin-browser64-e" fill="#fff">
      <use xlink:href="#deepin-browser64-b"/>
    </mask>
    <use fill="url(#deepin-browser64-c)" xlink:href="#deepin-browser64-b"/>
    <g filter="url(#deepin-browser64-d)" mask="url(#deepin-browser64-e)">
      <g transform="rotate(24 9.39 44.18)">
        <mask id="deepin-browser64-i" fill="#fff">
          <use xlink:href="#deepin-browser64-f"/>
        </mask>
        <use fill="url(#deepin-browser64-g)" xlink:href="#deepin-browser64-f"/>
        <path fill="url(#deepin-browser64-h)" d="M6.6194961,24.1284444 C8.77170693,19.0713341 15.8453583,12.4355423 26.8669253,10.7715159 C37.8884923,9.10748956 46.1759337,13.5086872 51.4582133,19.2123061 C56.0918431,24.2155359 64.107734,36.9980862 57.9963018,50.615301 C55.9692356,55.1319176 50.6598838,62.1304044 42.0682463,71.6107613 L1.52428215,57.1294228 L29.8998585,37.2282317 C16.8883171,28.4950402 9.12819633,24.1284444 6.6194961,24.1284444 Z" mask="url(#deepin-browser64-i)"/>
        <path fill="url(#deepin-browser64-j)" d="M4.70344959,27.0662712 C6.85335433,22.0117465 13.3658525,15.5818808 23.9302655,16.2739661 C34.4946785,16.9660513 41.559005,22.8140284 44.4784748,30.5668906 C46.9098621,37.0236147 46.9446558,47.0089868 40.8375425,56.9635323 C38.4613421,60.8367199 33.4497053,66.1302516 25.8026323,72.8441272 L-0.884416585,60.4454735 L27.4607554,40.5544575 C14.7952304,31.5623333 7.20946175,27.0662712 4.70344959,27.0662712 Z" mask="url(#deepin-browser64-i)"/>
      </g>
    </g>
  </g>
</svg>
