<svg xmlns="http://www.w3.org/2000/svg" xmlns:xlink="http://www.w3.org/1999/xlink" width="96" height="96" viewBox="0 0 96 96">
  <defs>
    <filter id="folder-remote-a" width="129.3%" height="133.8%" x="-14.6%" y="-16.9%" filterUnits="objectBoundingBox">
      <feOffset dy="2" in="SourceAlpha" result="shadowOffsetOuter1"/>
      <feGaussianBlur in="shadowOffsetOuter1" result="shadowBlurOuter1" stdDeviation="2"/>
      <feComposite in="shadowBlurOuter1" in2="SourceAlpha" operator="out" result="shadowBlurOuter1"/>
      <feColorMatrix in="shadowBlurOuter1" result="shadowMatrixOuter1" values="0 0 0 0 0   0 0 0 0 0   0 0 0 0 0  0 0 0 0.2 0"/>
      <feMerge>
        <feMergeNode in="shadowMatrixOuter1"/>
        <feMergeNode in="SourceGraphic"/>
      </feMerge>
    </filter>
    <linearGradient id="folder-remote-c" x1="50%" x2="50%" y1="0%" y2="37.968%">
      <stop offset="0%" stop-color="#147ADD"/>
      <stop offset="100%" stop-color="#0D00E9"/>
    </linearGradient>
    <path id="folder-remote-b" d="M46,4.5 C47.2162027,7.23645617 49.9298769,9 52.9244289,9 L71.6576577,9 C77.3695756,9 82,13.6304244 82,19.3423423 L82,60.6576577 C82,66.3695756 77.3695756,71 71.6576577,71 L10.3423423,71 C4.63042439,71 -4.37094128e-14,66.3695756 -4.26325641e-14,60.6576577 L-4.26325641e-14,10.3423423 C-4.33320723e-14,4.63042439 4.63042439,-2.38197334e-14 10.3423423,-2.84217094e-14 L39.0755711,-2.84217094e-14 C42.0701231,-2.80836213e-14 44.7837973,1.76354383 46,4.5 Z"/>
    <linearGradient id="folder-remote-g" x1="50%" x2="50%" y1="0%" y2="77.929%">
      <stop offset="0%" stop-color="#B5B7B8"/>
      <stop offset="100%" stop-color="#80B0BD"/>
    </linearGradient>
    <rect id="folder-remote-f" width="74" height="31" x="4" y="12" rx="6.649"/>
    <filter id="folder-remote-e" width="112.2%" height="129%" x="-6.1%" y="-14.5%" filterUnits="objectBoundingBox">
      <feOffset in="SourceAlpha" result="shadowOffsetOuter1"/>
      <feGaussianBlur in="shadowOffsetOuter1" result="shadowBlurOuter1" stdDeviation="1.5"/>
      <feColorMatrix in="shadowBlurOuter1" values="0 0 0 0 0   0 0 0 0 0   0 0 0 0 0  0 0 0 0.2 0"/>
    </filter>
    <filter id="folder-remote-h" width="109.5%" height="122.6%" x="-4.7%" y="-11.3%" filterUnits="objectBoundingBox">
      <feOffset dy="1" in="SourceAlpha" result="shadowOffsetInner1"/>
      <feComposite in="shadowOffsetInner1" in2="SourceAlpha" k2="-1" k3="1" operator="arithmetic" result="shadowInnerInner1"/>
      <feColorMatrix in="shadowInnerInner1" values="0 0 0 0 0.827247509   0 0 0 0 0.827247509   0 0 0 0 0.827247509  0 0 0 0.5 0"/>
    </filter>
    <radialGradient id="folder-remote-i" cx="50%" cy="0%" r="117.588%" fx="50%" fy="0%" gradientTransform="matrix(.06172 .9956 -.65551 .09375 .47 -.498)">
      <stop offset="0%" stop-color="#1D95E9"/>
      <stop offset="100%" stop-color="#0B43D8"/>
    </radialGradient>
    <linearGradient id="folder-remote-l" x1="52.084%" x2="52.084%" y1="4.908%" y2="100%">
      <stop offset="0%" stop-color="#FFF"/>
      <stop offset="100%" stop-color="#FFF" stop-opacity=".6"/>
    </linearGradient>
    <path id="folder-remote-k" d="M45.9041491,69.9041491 C44.7224534,71.0858448 44.6923079,72.9850113 45.8536483,74.1463517 C47.0149887,75.3076921 48.9141552,75.2775466 50.0958509,74.0958509 C51.2775466,72.9141552 51.3076921,71.0149887 50.1463517,69.8536483 C48.9850113,68.6923079 47.0858448,68.7224534 45.9041491,69.9041491 L45.9041491,69.9041491 Z M47.9354881,48 C41.4340637,48 35.2742932,50.3408066 30.3508652,54.5530289 C29.9450404,54.900231 29.8820031,55.5298715 30.2100675,55.9593702 C30.538132,56.3888689 31.1330668,56.4555834 31.5388917,56.1083813 C36.1285041,52.1817538 41.8697313,50 47.9354881,50 C54.0572921,50 59.8479214,52.2224591 64.4565062,56.2155057 C64.860292,56.5653605 65.4556057,56.5025457 65.7861766,56.075205 C66.1167475,55.6478643 66.0573951,55.0178229 65.6536093,54.6679681 C60.7098169,50.3844854 54.4970272,48 47.9354881,48 L47.9354881,48 Z M47.8581263,55 C43.0504083,55 38.4866998,56.6865677 34.7950463,59.7356197 C34.3836529,60.0754023 34.3104184,60.7038055 34.6314723,61.1391975 C34.9525262,61.5745896 35.546292,61.6520963 35.9576854,61.3123137 C39.3195979,58.5356051 43.4748144,57 47.8581263,57 C52.3136209,57 56.5327007,58.5868442 59.9208803,61.4478666 C60.3287949,61.7923149 60.9233144,61.721575 61.2487768,61.2898647 C61.5742393,60.8581544 61.5073986,60.2289535 61.099484,59.8845052 C57.3789705,56.7428558 52.7450892,55 47.8581263,55 L47.8581263,55 Z M47.9611641,62 C44.8144049,62 41.8186528,63.0598036 39.3529306,64.9888968 C38.933299,65.3172016 38.8445942,65.9433681 39.1548029,66.387479 C39.4650117,66.8315898 40.0566641,66.9254691 40.4762957,66.5971644 C42.6190763,64.9207293 45.2217061,64 47.9611641,64 C50.7266107,64 53.3523927,64.9383612 55.505864,66.6442669 C55.9236386,66.9752136 56.5158094,66.8850691 56.8285144,66.4429235 C57.1412194,66.0007779 57.0560437,65.3740627 56.638269,65.043116 C54.1602398,63.0801068 51.1378164,62 47.9611641,62 L47.9611641,62 Z"/>
    <filter id="folder-remote-j" width="172.2%" height="196.3%" x="-36.1%" y="-40.7%" filterUnits="objectBoundingBox">
      <feOffset dy="2" in="SourceAlpha" result="shadowOffsetOuter1"/>
      <feGaussianBlur in="shadowOffsetOuter1" result="shadowBlurOuter1" stdDeviation="4"/>
      <feComposite in="shadowBlurOuter1" in2="SourceAlpha" operator="out" result="shadowBlurOuter1"/>
      <feColorMatrix in="shadowBlurOuter1" values="0 0 0 0 0   0 0 0 0 0.42745098   0 0 0 0 0.968627451  0 0 0 0.5 0"/>
    </filter>
  </defs>
  <g fill="none" fill-rule="evenodd">
    <g filter="url(#folder-remote-a)" transform="translate(7 18)">
      <mask id="folder-remote-d" fill="#fff">
        <use xlink:href="#folder-remote-b"/>
      </mask>
      <use fill="url(#folder-remote-c)" xlink:href="#folder-remote-b"/>
      <g mask="url(#folder-remote-d)">
        <use fill="#000" filter="url(#folder-remote-e)" xlink:href="#folder-remote-f"/>
        <use fill="url(#folder-remote-g)" xlink:href="#folder-remote-f"/>
        <use fill="#000" filter="url(#folder-remote-h)" xlink:href="#folder-remote-f"/>
      </g>
      <g fill="url(#folder-remote-i)" mask="url(#folder-remote-d)">
        <path d="M0,0 L82,0 L82,43.647241 C82,49.3591589 77.3695756,53.9895833 71.6576577,53.9895833 L10.3423423,53.9895833 C4.63042439,53.9895833 -1.07684864e-15,49.3591589 0,43.647241 L0,0 L0,0 Z" transform="translate(0 17.01)"/>
      </g>
    </g>
    <use fill="#000" filter="url(#folder-remote-j)" xlink:href="#folder-remote-k"/>
    <use fill="url(#folder-remote-l)" fill-opacity=".6" xlink:href="#folder-remote-k"/>
  </g>
</svg>
