<svg xmlns="http://www.w3.org/2000/svg" xmlns:xlink="http://www.w3.org/1999/xlink" width="96" height="96" viewBox="0 0 96 96">
  <defs>
    <filter id="network-workgroup-a" width="129.3%" height="133.8%" x="-14.6%" y="-16.9%" filterUnits="objectBoundingBox">
      <feOffset dy="2" in="SourceAlpha" result="shadowOffsetOuter1"/>
      <feGaussianBlur in="shadowOffsetOuter1" result="shadowBlurOuter1" stdDeviation="2"/>
      <feComposite in="shadowBlurOuter1" in2="SourceAlpha" operator="out" result="shadowBlurOuter1"/>
      <feColorMatrix in="shadowBlurOuter1" result="shadowMatrixOuter1" values="0 0 0 0 0   0 0 0 0 0   0 0 0 0 0  0 0 0 0.2 0"/>
      <feMerge>
        <feMergeNode in="shadowMatrixOuter1"/>
        <feMergeNode in="SourceGraphic"/>
      </feMerge>
    </filter>
    <linearGradient id="network-workgroup-c" x1="50%" x2="50%" y1="0%" y2="37.968%">
      <stop offset="0%" stop-color="#147ADD"/>
      <stop offset="100%" stop-color="#0D00E9"/>
    </linearGradient>
    <path id="network-workgroup-b" d="M46,4.5 C47.2162027,7.23645617 49.9298769,9 52.9244289,9 L71.6576577,9 C77.3695756,9 82,13.6304244 82,19.3423423 L82,60.6576577 C82,66.3695756 77.3695756,71 71.6576577,71 L10.3423423,71 C4.63042439,71 -4.37094128e-14,66.3695756 -4.26325641e-14,60.6576577 L-4.26325641e-14,10.3423423 C-4.33320723e-14,4.63042439 4.63042439,-2.38197334e-14 10.3423423,-2.84217094e-14 L39.0755711,-2.84217094e-14 C42.0701231,-2.80836213e-14 44.7837973,1.76354383 46,4.5 Z"/>
    <linearGradient id="network-workgroup-g" x1="50%" x2="50%" y1="0%" y2="77.929%">
      <stop offset="0%" stop-color="#B5B7B8"/>
      <stop offset="100%" stop-color="#80B0BD"/>
    </linearGradient>
    <rect id="network-workgroup-f" width="74" height="31" x="4" y="12" rx="6.649"/>
    <filter id="network-workgroup-e" width="112.2%" height="129%" x="-6.1%" y="-14.5%" filterUnits="objectBoundingBox">
      <feOffset in="SourceAlpha" result="shadowOffsetOuter1"/>
      <feGaussianBlur in="shadowOffsetOuter1" result="shadowBlurOuter1" stdDeviation="1.5"/>
      <feColorMatrix in="shadowBlurOuter1" values="0 0 0 0 0   0 0 0 0 0   0 0 0 0 0  0 0 0 0.2 0"/>
    </filter>
    <filter id="network-workgroup-h" width="109.5%" height="122.6%" x="-4.7%" y="-11.3%" filterUnits="objectBoundingBox">
      <feOffset dy="1" in="SourceAlpha" result="shadowOffsetInner1"/>
      <feComposite in="shadowOffsetInner1" in2="SourceAlpha" k2="-1" k3="1" operator="arithmetic" result="shadowInnerInner1"/>
      <feColorMatrix in="shadowInnerInner1" values="0 0 0 0 0.827247509   0 0 0 0 0.827247509   0 0 0 0 0.827247509  0 0 0 0.5 0"/>
    </filter>
    <radialGradient id="network-workgroup-i" cx="50%" cy="0%" r="117.588%" fx="50%" fy="0%" gradientTransform="matrix(.06172 .9956 -.65551 .09375 .47 -.498)">
      <stop offset="0%" stop-color="#1D95E9"/>
      <stop offset="100%" stop-color="#0B43D8"/>
    </radialGradient>
    <linearGradient id="network-workgroup-l" x1="52.084%" x2="52.084%" y1="4.908%" y2="100%">
      <stop offset="0%" stop-color="#FFF"/>
      <stop offset="100%" stop-color="#FFF" stop-opacity=".6"/>
    </linearGradient>
    <path id="network-workgroup-k" d="M48.1841535,48.0619577 C51.8137135,44.6948847 55.3750552,43.1525401 57.7799488,44.4670564 C60.2245664,45.8032859 60.5644908,49.5985213 59.2201064,54.370784 C63.9319458,55.6825159 67,57.8511383 67,60.5 C67,63.1487162 63.9322828,65.3172459 59.2200156,66.6293101 C60.5644434,71.402008 60.2243959,75.1968073 57.7799488,76.5329436 C55.3343012,77.869736 51.6926787,76.2520209 47.9995777,72.7652975 C44.3067192,76.2522884 40.6654966,77.8696255 38.2200512,76.5329436 C35.7754336,75.1967141 35.4355092,71.4014787 36.7798936,66.629216 C32.0680542,65.3174841 29,63.1488617 29,60.5 C29,57.8512838 32.0677172,55.6827541 36.7799844,54.3706899 C35.4355566,49.597992 35.7756041,45.8031927 38.2200512,44.4670564 C40.6656988,43.130264 44.3073213,44.7479791 48.0004223,48.2347025 Z M57.1689019,67.1251279 L57.12894,67.1329381 C55.6412608,67.4399923 54.0330504,67.671097 52.3386457,67.8171735 C51.395488,69.0868204 50.4252951,70.2566461 49.4482149,71.305176 C52.4808742,74.2022764 55.270154,75.6069261 56.7250919,74.8116561 C58.1771904,74.0179382 58.2913619,71.0436393 57.1689019,67.1251279 Z M38.8309845,67.1244077 L38.7797613,67.3067759 C37.7125017,71.1353803 37.8453323,74.0302491 39.2749081,74.8116561 C40.7298415,75.6069236 43.5191086,74.2022851 46.5522869,71.3048514 C45.5751052,70.2570949 44.6050903,69.0875278 43.6632466,67.8168995 C41.952914,67.6696 40.3303913,67.4356565 38.8309845,67.1244077 Z M49.5940199,67.976103 L49.403961,67.981343 C48.9403073,67.9937276 48.4721182,68 48,68 C47.4634404,68 46.9319557,67.9918984 46.4064358,67.9759305 C46.9361992,68.631498 47.4694053,69.2496804 48.0004777,69.8268626 C48.531094,69.2496325 49.0642739,68.6315535 49.5940199,67.976103 Z M48,55.0162933 C46.9112708,55.0162933 45.8471227,55.0529935 44.8164875,55.1221734 C44.2139151,55.9689034 43.623914,56.8617485 43.0550167,57.7946274 C42.5016507,58.702038 41.9929055,59.6069005 41.5295408,60.4999441 C41.9926466,61.3926389 42.5015099,62.2977311 43.0550167,63.2053726 C43.623914,64.1382515 44.2139151,65.0310966 44.8162146,65.8781978 C45.8463379,65.9469794 46.9108693,65.9837067 48,65.9837067 C49.0887292,65.9837067 50.1528773,65.9470065 51.1835125,65.8778266 C51.7860849,65.0310966 52.376086,64.1382515 52.9449833,63.2053726 C53.4983493,62.297962 54.0070945,61.3930995 54.4704592,60.5000559 C54.0073534,59.6073611 53.4984901,58.7022689 52.9449833,57.7946274 C52.376086,56.8617485 51.7860849,55.9689034 51.1837854,55.1218022 C50.1536621,55.0530206 49.0891307,55.0162933 48,55.0162933 Z M40.4160816,62.813541 L40.292598,63.0968112 C39.9845167,63.8073946 39.7078733,64.5036968 39.4630951,65.1805015 C40.3072699,65.3497128 41.1980049,65.4961736 42.1274069,65.6159252 C41.8241574,65.1537765 41.5245078,64.6805603 41.2301914,64.1979398 C40.9484018,63.7358606 40.6769447,63.2740874 40.4160816,62.813541 Z M55.5842015,62.8154891 L55.4061102,63.1247932 C55.2002943,63.4820394 54.9881533,63.8398977 54.7698086,64.1979398 C54.475703,64.6802146 54.1762719,65.1530985 53.872324,65.6158244 C54.8029707,65.4960173 55.6933604,65.3495944 56.5370922,65.1802703 C56.2600407,64.4144797 55.9422064,63.6236971 55.5842015,62.8154891 Z M58.6024324,56.3042113 L58.5246168,56.5195875 C58.0573873,57.8046509 57.4840631,59.1394365 56.8116708,60.4991734 C57.5212487,61.9356111 58.1210924,63.3442199 58.6020982,64.6957923 C62.4786984,63.6427679 64.9542396,62.074947 64.9542396,60.5 C64.9542396,58.9251932 62.4791394,57.3575114 58.6024324,56.3042113 Z M37.3979018,56.3042077 L37.1301973,56.3782966 C33.4074209,57.4302085 31.0457604,58.9617051 31.0457604,60.5 C31.0457604,62.0748068 33.5208606,63.6424886 37.3975676,64.6957887 C37.8787225,63.3447399 38.4782897,61.9366951 39.1883292,60.5008266 C38.4787513,59.0643889 37.8789076,57.6557801 37.3979018,56.3042077 Z M53.8725931,55.3840748 L54.0969927,55.7293407 C54.3240519,56.0813754 54.5484388,56.4390577 54.7698086,56.8020602 C55.0515982,57.2641394 55.3230553,57.7259126 55.5839184,58.186459 C55.9417322,57.377172 56.2597454,56.5858367 56.5369049,55.8194985 C55.6927301,55.6502872 54.8019951,55.5038264 53.8725931,55.3840748 Z M42.127676,55.3841756 L41.7053834,55.4406482 C40.9275917,55.5489968 40.1784701,55.6761273 39.4629078,55.8197297 C39.7399593,56.5855203 40.0577936,57.3763029 40.4157985,58.1845109 C40.6774173,57.7251088 40.948647,57.2637372 41.2301914,56.8020602 C41.524297,56.3197854 41.8237281,55.8469015 42.127676,55.3841756 Z M56.7250919,46.1883439 C55.2701585,45.3930764 52.4808914,46.7977149 49.4477131,49.6951486 C50.4248948,50.7429051 51.3949097,51.9124722 52.3367534,53.1831005 C54.047086,53.3304 55.6696087,53.5643435 57.1690155,53.8755923 C58.2913619,49.9563607 58.1771904,46.9820618 56.7250919,46.1883439 Z M39.2749081,46.1883439 C37.8228096,46.9820618 37.7086381,49.9563607 38.8310981,53.8748721 C40.3302518,53.5638697 41.9525732,53.329994 43.6627198,53.1826642 C44.6050202,51.9125668 45.5749608,50.7430793 46.5517851,49.694824 C43.519233,46.7977775 40.7298739,45.3930587 39.2749081,46.1883439 Z M48.0003159,51.1735595 L47.7919605,51.4012776 C47.3298131,51.9123125 46.8665985,52.4539775 46.4059801,53.023897 C46.9314253,53.0081097 47.4631727,53 48,53 C48.5365596,53 49.0680443,53.0081016 49.5935642,53.0240695 L49.4217831,52.8122503 C48.9488941,52.2351516 48.4737554,51.6880677 48.0003159,51.1735595 Z"/>
    <filter id="network-workgroup-j" width="168.4%" height="178.8%" x="-34.2%" y="-33.3%" filterUnits="objectBoundingBox">
      <feOffset dy="2" in="SourceAlpha" result="shadowOffsetOuter1"/>
      <feGaussianBlur in="shadowOffsetOuter1" result="shadowBlurOuter1" stdDeviation="4"/>
      <feComposite in="shadowBlurOuter1" in2="SourceAlpha" operator="out" result="shadowBlurOuter1"/>
      <feColorMatrix in="shadowBlurOuter1" values="0 0 0 0 0   0 0 0 0 0.42745098   0 0 0 0 0.968627451  0 0 0 0.5 0"/>
    </filter>
  </defs>
  <g fill="none" fill-rule="evenodd">
    <g filter="url(#network-workgroup-a)" transform="translate(7 18)">
      <mask id="network-workgroup-d" fill="#fff">
        <use xlink:href="#network-workgroup-b"/>
      </mask>
      <use fill="url(#network-workgroup-c)" xlink:href="#network-workgroup-b"/>
      <g mask="url(#network-workgroup-d)">
        <use fill="#000" filter="url(#network-workgroup-e)" xlink:href="#network-workgroup-f"/>
        <use fill="url(#network-workgroup-g)" xlink:href="#network-workgroup-f"/>
        <use fill="#000" filter="url(#network-workgroup-h)" xlink:href="#network-workgroup-f"/>
      </g>
      <g fill="url(#network-workgroup-i)" mask="url(#network-workgroup-d)">
        <path d="M0,0 L82,0 L82,43.647241 C82,49.3591589 77.3695756,53.9895833 71.6576577,53.9895833 L10.3423423,53.9895833 C4.63042439,53.9895833 -1.07684864e-15,49.3591589 0,43.647241 L0,0 L0,0 Z" transform="translate(0 17.01)"/>
      </g>
    </g>
    <use fill="#000" filter="url(#network-workgroup-j)" xlink:href="#network-workgroup-k"/>
    <use fill="url(#network-workgroup-l)" fill-opacity=".6" xlink:href="#network-workgroup-k"/>
  </g>
</svg>
