<svg xmlns="http://www.w3.org/2000/svg" xmlns:xlink="http://www.w3.org/1999/xlink" width="96" height="96" viewBox="0 0 96 96">
  <defs>
    <filter id="stack-documents-a" width="129.3%" height="148.6%" x="-14.6%" y="-22.2%" filterUnits="objectBoundingBox">
      <feOffset dy="2" in="SourceAlpha" result="shadowOffsetOuter1"/>
      <feGaussianBlur in="shadowOffsetOuter1" result="shadowBlurOuter1" stdDeviation="2"/>
      <feColorMatrix in="shadowBlurOuter1" result="shadowMatrixOuter1" values="0 0 0 0 0   0 0 0 0 0   0 0 0 0 0  0 0 0 0.5 0"/>
      <feMerge>
        <feMergeNode in="shadowMatrixOuter1"/>
        <feMergeNode in="SourceGraphic"/>
      </feMerge>
    </filter>
    <linearGradient id="stack-documents-d" x1="50%" x2="50%" y1="0%" y2="98.094%">
      <stop offset="0%" stop-color="#FFAD34"/>
      <stop offset="100%" stop-color="#BEBEBE"/>
    </linearGradient>
    <path id="stack-documents-c" d="M71.009205,0 C72.1086907,0 73,0.894124107 73,1.99866798 L73,65 C73,66.1153237 72.0904928,67 71,67 L11,67 C9.8949672,67 9,66.1344135 9,65 L9,4.99262998 C9,3.8921307 9.89447314,2.99999976 11.0052699,2.99999977 L49.0068273,2.99999986 C49.555342,2.99999986 50.3210535,2.67894733 50.7109591,2.28904177 L52.2890428,0.710958091 C52.6816942,0.31830678 53.4553065,0 53.991804,0 L71.009205,0 Z"/>
    <filter id="stack-documents-b" width="143.8%" height="141.8%" x="-21.9%" y="-14.9%" filterUnits="objectBoundingBox">
      <feOffset dy="4" in="SourceAlpha" result="shadowOffsetOuter1"/>
      <feGaussianBlur in="shadowOffsetOuter1" result="shadowBlurOuter1" stdDeviation="4"/>
      <feColorMatrix in="shadowBlurOuter1" values="0 0 0 0 0   0 0 0 0 0   0 0 0 0 0  0 0 0 0.5 0"/>
    </filter>
    <linearGradient id="stack-documents-e" x1="50%" x2="50%" y1="0%" y2="98.094%">
      <stop offset="0%" stop-color="#D9630F"/>
      <stop offset="100%" stop-color="#BEBEBE"/>
    </linearGradient>
    <linearGradient id="stack-documents-g" x1="50%" x2="50%" y1="0%" y2="96.707%">
      <stop offset="0%" stop-color="#FFA221"/>
      <stop offset="100%" stop-color="#FF7248"/>
    </linearGradient>
    <path id="stack-documents-f" d="M2.00661467,72 C0.898391991,72 -3.1663639e-11,71.1141708 -5.80115294e-12,70.0051016 L1.32362502e-09,12.9948984 C1.34931688e-09,11.8931464 0.892951404,11 2.00661468,11 L79.9933853,11 C81.101608,11 82,11.8858292 82,12.9948984 L82,70.0051016 C82,71.1068536 81.1070486,72 79.9933853,72 L2.00661467,72 Z"/>
    <linearGradient id="stack-documents-i" x1="50%" x2="50%" y1="0%" y2="100%">
      <stop offset="0%" stop-color="#FFF"/>
      <stop offset="100%" stop-color="#FFE3C0"/>
    </linearGradient>
    <radialGradient id="stack-documents-j" cx="79.957%" cy="71.832%" r="100%" fx="79.957%" fy="71.832%" gradientTransform="matrix(0 -1 .65 0 .333 1.518)">
      <stop offset="0%" stop-color="#FA9361"/>
      <stop offset="100%" stop-color="#5F1CF7"/>
    </radialGradient>
    <linearGradient id="stack-documents-k" x1="50%" x2="50%" y1="20.953%" y2="100%">
      <stop offset="0%" stop-color="#0E3BAC"/>
      <stop offset="100%" stop-color="#1A0570"/>
    </linearGradient>
    <filter id="stack-documents-l" width="300%" height="118.8%" x="-100%" y="-9.4%" filterUnits="objectBoundingBox">
      <feGaussianBlur in="SourceGraphic" stdDeviation="2"/>
    </filter>
    <linearGradient id="stack-documents-m" x1="50%" x2="50%" y1="0%" y2="100%">
      <stop offset="0%" stop-color="#242424"/>
      <stop offset="100%"/>
    </linearGradient>
    <linearGradient id="stack-documents-n" x1="311.239%" x2="0%" y1="45.328%" y2="60.059%">
      <stop offset="0%" stop-color="#463417"/>
      <stop offset="100%" stop-color="#281212"/>
    </linearGradient>
    <linearGradient id="stack-documents-o" x1="50%" x2="50%" y1="0%" y2="100%">
      <stop offset="0%" stop-color="#080808"/>
      <stop offset="100%" stop-color="#481D1D"/>
    </linearGradient>
    <linearGradient id="stack-documents-p" x1="11.779%" x2="76.358%" y1="79.249%" y2="79.249%">
      <stop offset="0%" stop-color="#6A6A6A"/>
      <stop offset="100%" stop-color="#0A0A0A"/>
    </linearGradient>
  </defs>
  <g fill="none" fill-rule="evenodd" filter="url(#stack-documents-a)" transform="translate(7 17)">
    <use fill="#000" filter="url(#stack-documents-b)" xlink:href="#stack-documents-c"/>
    <use fill="url(#stack-documents-d)" xlink:href="#stack-documents-c"/>
    <path fill="url(#stack-documents-e)" d="M70.9943894,1.00000001 C72.1020576,1.00000001 73,1.90444884 73,3.00268907 L73,64.980526 L9,64.980526 L9,5.99426132 C9,4.89286108 9.8913231,3.99999978 10.9996239,3.99999978 L49.7591517,3.99999983 C50.3063826,3.99999984 51.0710535,3.6789473 51.4609591,3.28904176 L53.0390428,1.7109581 C53.4316942,1.31830679 54.1882325,1.00000001 54.7578612,1.00000001 L70.9943894,1.00000001 Z"/>
    <path fill="#FFF" d="M5,67.0073698 L4.99999998,8.99655258 C4.99999998,7.89388704 5.89731331,7 7.00083886,7 L74.9991611,7 C76.1041939,7 77,7.89484029 77,8.99655258 L77,67.0073698 L5,67.0073698 Z"/>
    <path fill="#F1F1F1" d="M4.99999998,66 L4.99999998,9.99649128 C4.99999998,8.89385959 5.89731331,8 7.00083886,8 L74.9991611,8 C76.1041939,8 77,8.88783214 77,9.99649128 L77,66 L4.99999998,66 Z"/>
    <mask id="stack-documents-h" fill="#fff">
      <use xlink:href="#stack-documents-f"/>
    </mask>
    <use fill="url(#stack-documents-g)" xlink:href="#stack-documents-f"/>
    <g mask="url(#stack-documents-h)">
      <g transform="translate(12 20)">
        <polygon fill="#1D1D1D" fill-opacity=".1" points=".021 3 43 3 42.963 51 0 51"/>
        <polygon fill="url(#stack-documents-i)" points="1.02 4 42 4 41.964 52 1 52"/>
        <g transform="translate(5 8)">
          <path fill="url(#stack-documents-j)" stroke="#000" stroke-opacity=".1" d="M0.5,0.5 L0.5,12.5 L19.5,12.5 L19.5,0.5 L0.5,0.5 Z"/>
          <circle cx="16" cy="9" r="1" fill="#FF5151"/>
          <path fill="url(#stack-documents-k)" d="M3.41060513e-13,13 L16,13 L12.3543091,7.9892308 C12.0293837,7.54264158 11.4039476,7.44401358 10.9573583,7.76893898 C10.9318899,7.78746908 10.9073111,7.80719206 10.8837042,7.82804197 L9.325461,9.20430117 C8.91151347,9.56990463 8.27956253,9.530714 7.91395908,9.11676647 C7.86033406,9.05605056 7.81428518,8.9890437 7.77682481,8.91721901 L6.05303596,5.61211015 C5.79763953,5.12242545 5.19363193,4.93249728 4.70394723,5.18789371 C4.53580608,5.27558821 4.39606616,5.40928459 4.30102836,5.57338696 L3.41060513e-13,13 Z"/>
        </g>
        <path fill="#000" fill-opacity=".5" d="M27,8 L38,8 L38,9 L27,9 L27,8 Z M27,11 L38,11 L38,12 L27,12 L27,11 Z M27,14 L38,14 L38,15 L27,15 L27,14 Z M27,17 L38,17 L38,18 L27,18 L27,17 Z M27,20 L38,20 L38,21 L27,21 L27,20 Z M5,23 L38,23 L38,24 L5,24 L5,23 Z M5,26 L38,26 L38,27 L5,27 L5,26 Z M5,29 L38,29 L38,30 L5,30 L5,29 Z M5,32 L38,32 L38,33 L5,33 L5,32 Z M5,35 L38,35 L38,36 L5,36 L5,35 Z M5,38 L26,38 L26,39 L5,39 L5,38 Z M5,44 L38,44 L38,45 L5,45 L5,44 Z"/>
        <g transform="translate(49)">
          <polygon fill="#7B3400" fill-opacity=".3" points="2 10.313 5 0 8 10.313 8 64 2 64" filter="url(#stack-documents-l)"/>
          <polygon fill="url(#stack-documents-m)" points="0 10 6 10 6 65 0 65"/>
          <polygon fill="url(#stack-documents-n)" points="0 10 2 10 2 65 0 65"/>
          <polygon fill="url(#stack-documents-o)" points="4 10 6 10 6 65 4 65"/>
          <polygon fill="#FFDCAC" points="3 0 6 10 0 10"/>
          <polygon fill="#D8915B" points="3 0 4 10 2 10"/>
          <polygon fill="#965600" points="3 0 6 10 4 10"/>
          <polygon fill="url(#stack-documents-p)" points="3.6 2 2.4 2 3 0"/>
        </g>
      </g>
    </g>
    <g mask="url(#stack-documents-h)">
      <g transform="translate(0 11)">
        <path fill="#FFF" fill-opacity=".3" d="M1.30597606e-09,2.9948984 L1.32929515e-09,1.9948984 C1.35498701e-09,0.893146438 0.892951404,-3.33066907e-15 2.00661468,-3.33066907e-15 L79.9933853,-3.33066907e-15 C81.101608,-3.33066907e-15 82,0.885829231 82,1.9948984 L82,2.9948984 C82,1.88582923 81.101608,1 79.9933853,1 L2.00661468,1 C0.892951404,1 1.35498701e-09,1.89314644 1.32929515e-09,2.9948984 Z"/>
        <path fill="#000" fill-opacity=".3" d="M-6.70730656e-14,58.0051016 C-2.59295592e-11,59.1141708 0.898391991,60 2.00661467,60 L79.9933853,60 C81.1070486,60 82,59.1068536 82,58.0051016 L82,59.0051016 C82,60.1068536 81.1070486,61 79.9933853,61 L2.00661467,61 C0.898391991,61 -2.59295592e-11,60.1141708 -6.70730656e-14,59.0051016 L2.3252019e-11,58.0051016 Z"/>
        <path fill="#FFF" fill-opacity=".06" d="M78.9933853 7.10542736e-15L79.9933853 7.10542736e-15C81.101608 7.10542736e-15 82 .885829231 82 1.9948984L82 59.0051016C82 60.1068536 81.1070486 61 79.9933853 61L78.9933853 61C80.1070486 61 81 60.1068536 81 59.0051016L81 1.9948984C81 .885829231 80.101608 7.10542736e-15 78.9933853 7.10542736e-15zM3.00661468 7.10542736e-15C1.8929514 7.10542736e-15 1 .893146438 1 1.9948984L1 59.0051016C1 60.1141708 1.89839199 61 3.00661467 61L2.00661467 61C.898391991 61-2.59790751e-11 60.1141708-1.16589012e-13 59.0051016L1.32930959e-9 1.9948984C1.35500144e-9.893146438.892951404 7.10542736e-15 2.00661468 7.10542736e-15L3.00661468 7.10542736e-15z"/>
      </g>
    </g>
  </g>
</svg>
