<?xml version="1.0" encoding="UTF-8" standalone="no"?>
<svg width="16px" height="16px" viewBox="0 0 16 16" version="1.1" xmlns="http://www.w3.org/2000/svg" xmlns:xlink="http://www.w3.org/1999/xlink">
    <!-- Generator: Sketch 39.1 (31720) - http://www.bohemiancoding.com/sketch -->
    <title>deepin-music-symbolic</title>
    <desc>Created with Sketch.</desc>
    <defs></defs>
    <g id="Page-1" stroke="none" stroke-width="1" fill="none" fill-rule="evenodd">
        <g id="deepin-music-symbolic">
            <polygon id="Fill-392" points="0 16 16 16 16 0 0 0"></polygon>
            <path d="M9.02509367,1.806 L9.01381764,1.464 C9.01381764,1.25 8.86517905,1 8.50742136,1 C8.23474645,1.001 8,1.228 8,1.478 L8,11 L9.02201843,11 L9.02201839,4.362 C11.8071979,5.074 12.2418376,6.504 12.2418376,6.504 C12.7297822,7.647 12.1434286,9.056 12.1434286,9.056 C12.1434286,9.056 12.0942241,9.232 12.2377372,9.287 C12.4191788,9.357 12.5011863,9.19 12.5011863,9.19 C13.3725159,7.382 12.837417,5.948 12.837417,5.948 C12.3504975,4.341 10.6355158,3.452 10.6355158,3.452 C9.32339592,2.666 9.02509367,2.062 9.02509367,1.806 Z" id="Fill-393" fill="#FFFFFF"></path>
            <path d="M7.20177061,13.5991349 C8.71941849,12.8495436 9.41166415,11.3020651 8.74794457,10.142745 C8.08422499,8.98342475 6.31587727,8.65127383 4.79822939,9.4008651 C3.28058151,10.1504564 2.58833585,11.6979349 3.25205543,12.857255 C3.91577501,14.0165752 5.68412273,14.3487262 7.20177061,13.5991349 L7.20177061,13.5991349 L7.20177061,13.5991349 Z" id="Oval" fill="#FFFFFF"></path>
        </g>
    </g>
</svg>