<?xml version="1.0" encoding="iso-8859-1"?>
<!-- Generator: Adobe Illustrator 18.0.0, SVG Export Plug-In . SVG Version: 6.00 Build 0)  -->
<!DOCTYPE svg PUBLIC "-//W3C//DTD SVG 1.1//EN" "http://www.w3.org/Graphics/SVG/1.1/DTD/svg11.dtd">
<svg version="1.1" id="&#x56FE;&#x5C42;_1" xmlns="http://www.w3.org/2000/svg" xmlns:xlink="http://www.w3.org/1999/xlink" x="0px"
	 y="0px" viewBox="0 0 16 16" style="enable-background:new 0 0 16 16;" xml:space="preserve">
<g>
	<g>
		<g>
			<path style="fill:#FFFFFF;" d="M7.837,12.024c-0.224,0-0.405,0.078-0.571,0.245c-0.169,0.172-0.247,0.365-0.247,0.609
				c0,0.256,0.079,0.458,0.248,0.633c0.167,0.172,0.354,0.251,0.585,0.251c0.243,0,0.437-0.08,0.608-0.254
				c0.173-0.174,0.253-0.375,0.253-0.63c0-0.243-0.08-0.436-0.251-0.606C8.291,12.103,8.092,12.024,7.837,12.024z"/>
		</g>
		<g>
			<path style="fill:#FFFFFF;" d="M10.51,4.303c-0.248-0.423-0.582-0.749-0.994-0.97C9.098,3.11,8.576,2.997,7.965,2.997
				c-0.954,0-1.722,0.279-2.284,0.829C5.267,4.225,5.007,4.681,4.892,5.213c-0.02,0.093-0.048,0.286,0.233,0.286
				c0.155,0,0.386,0,0.562,0c0.266,0,0.288-0.16,0.315-0.235c0.094-0.268,0.25-0.503,0.464-0.702
				c0.372-0.344,0.842-0.518,1.397-0.518c0.538,0,0.985,0.146,1.328,0.432c0.366,0.305,0.553,0.686,0.553,1.133
				c0,0.327-0.075,0.615-0.225,0.859C9.385,6.683,9.061,7.018,8.502,7.518C8.018,7.965,7.662,8.444,7.444,8.94
				c-0.207,0.472-0.317,1.006-0.327,1.585c0,0-0.102,0.457,0.367,0.457c0.179,0,0.332,0,0.454,0c0.198,0,0.312-0.142,0.329-0.359
				c0.019-0.244,0.06-0.582,0.146-0.92c0.079-0.309,0.19-0.568,0.32-0.773C8.865,8.723,9.14,8.425,9.601,7.99
				c0.516-0.477,0.707-0.707,0.778-0.82c0.182-0.265,0.313-0.521,0.391-0.761c0.077-0.243,0.116-0.493,0.116-0.742
				C10.886,5.188,10.76,4.73,10.51,4.303z"/>
		</g>
	</g>
</g>
<g>
	<g>
		<path style="fill:#FFFFFF;" d="M2.589,12.066c-0.146,0-0.292-0.064-0.391-0.188c-0.792-0.991-1.21-2.172-1.21-3.414
			c0-1.231,0.412-2.403,1.19-3.389c0.172-0.219,0.486-0.253,0.702-0.083c0.217,0.172,0.254,0.486,0.083,0.702
			C2.325,6.502,1.988,7.46,1.988,8.464c0,1.014,0.343,1.978,0.991,2.789c0.173,0.216,0.138,0.53-0.078,0.703
			C2.809,12.03,2.698,12.066,2.589,12.066z"/>
	</g>
	<g>
		<path style="fill:#FFFFFF;" d="M4.198,10.546c-0.123,0-0.246-0.045-0.343-0.136C3.307,9.894,3.005,9.208,3.005,8.476
			c0-0.732,0.303-1.42,0.852-1.935c0.199-0.189,0.519-0.181,0.706,0.022C4.752,6.765,4.742,7.082,4.54,7.27
			C4.195,7.594,4.005,8.023,4.005,8.476s0.19,0.881,0.536,1.206c0.201,0.189,0.211,0.506,0.021,0.707
			C4.464,10.494,4.331,10.546,4.198,10.546z"/>
	</g>
</g>
<g>
	<g>
		<path style="fill:#FFFFFF;" d="M13.411,12.066c-0.109,0-0.22-0.036-0.313-0.109c-0.216-0.173-0.251-0.487-0.078-0.703
			c0.648-0.812,0.991-1.775,0.991-2.789c0-1.004-0.337-1.962-0.976-2.77c-0.171-0.216-0.134-0.53,0.083-0.702
			c0.216-0.17,0.53-0.136,0.702,0.083c0.778,0.985,1.19,2.157,1.19,3.389c0,1.242-0.418,2.423-1.21,3.414
			C13.703,12.001,13.558,12.066,13.411,12.066z"/>
	</g>
	<g>
		<path style="fill:#FFFFFF;" d="M11.802,10.546c-0.133,0-0.266-0.053-0.364-0.157c-0.189-0.201-0.18-0.518,0.021-0.707
			c0.345-0.324,0.535-0.753,0.535-1.206c0-0.454-0.189-0.882-0.534-1.206c-0.202-0.188-0.212-0.505-0.022-0.706
			c0.188-0.203,0.507-0.212,0.706-0.022c0.549,0.514,0.851,1.201,0.851,1.935c0,0.732-0.302,1.419-0.85,1.935
			C12.048,10.501,11.925,10.546,11.802,10.546z"/>
	</g>
</g>
</svg>
