<?xml version="1.0" encoding="iso-8859-1"?>
<!-- Generator: Adobe Illustrator 18.0.0, SVG Export Plug-In . SVG Version: 6.00 Build 0)  -->
<!DOCTYPE svg PUBLIC "-//W3C//DTD SVG 1.1//EN" "http://www.w3.org/Graphics/SVG/1.1/DTD/svg11.dtd">
<svg version="1.1" id="&#x56FE;&#x5C42;_1" xmlns="http://www.w3.org/2000/svg" xmlns:xlink="http://www.w3.org/1999/xlink" x="0px"
	 y="0px" viewBox="0 0 16 16" style="enable-background:new 0 0 16 16;" xml:space="preserve">
<path style="fill:#FFFFFF;" d="M9.697,4.68c0.45-0.449,1.049-0.697,1.686-0.697h0.232c0.637,0,1.236,0.248,1.686,0.697
	c0.45,0.451,0.698,1.05,0.698,1.687c0,0.276,0.224,0.5,0.5,0.5s0.5-0.224,0.5-0.5c0-0.903-0.352-1.754-0.991-2.394
	c-0.639-0.639-1.488-0.99-2.393-0.99h-0.232c-0.904,0-1.753,0.352-2.393,0.99c-0.639,0.64-0.991,1.49-0.991,2.394v4.232
	c0,0.903,0.352,1.753,0.991,2.393c0.64,0.64,1.489,0.991,2.393,0.991h0.232c0.9,0,1.746-0.35,2.384-0.984v0.484
	c0,0.276,0.224,0.5,0.5,0.5s0.5-0.224,0.5-0.5v-2.884V8.483V8.482c0-0.276-0.224-0.5-0.5-0.5c-0.002,0-0.003,0.001-0.005,0.001
	h-2.995c-0.276,0-0.5,0.224-0.5,0.5s0.224,0.5,0.5,0.5h2.5v1.616c0,0.636-0.248,1.234-0.698,1.686
	c-0.45,0.45-1.049,0.698-1.686,0.698h-0.232c-0.636,0-1.235-0.248-1.686-0.698c-0.45-0.451-0.698-1.05-0.698-1.686V6.367
	C8.999,5.73,9.247,5.131,9.697,4.68z"/>
<path style="fill:#FFFFFF;" d="M6.978,11.006H6V3.498C6,3.27,5.847,3.072,5.626,3.014c-0.221-0.063-0.451,0.04-0.563,0.238
	l-4.5,8.009c-0.087,0.155-0.085,0.345,0.004,0.498c0.09,0.153,0.254,0.247,0.432,0.247h4v1.491c0,0.276,0.224,0.5,0.5,0.5
	s0.5-0.224,0.5-0.5v-1.491h0.978c0.276,0,0.5-0.224,0.5-0.5S7.254,11.006,6.978,11.006z M5,11.006H1.854L5,5.408V11.006z"/>
</svg>
