<svg xmlns="http://www.w3.org/2000/svg" xmlns:xlink="http://www.w3.org/1999/xlink" width="256" height="256" viewBox="0 0 256 256">
  <defs>
    <linearGradient id="application-x-perl-c" x1="50%" x2="50%" y1="0%" y2="100%">
      <stop offset="0%" stop-color="#5895FF"/>
      <stop offset="100%" stop-color="#387CF4"/>
    </linearGradient>
    <path id="application-x-perl-b" d="M116,0 L168,52 L168,190 C168,199.941125 159.941125,208 150,208 L18,208 C8.0588745,208 1.21743675e-15,199.941125 0,190 L0,18 C-1.21743675e-15,8.0588745 8.0588745,1.82615513e-15 18,0 L116,0 Z"/>
    <filter id="application-x-perl-a" width="127.4%" height="122.1%" x="-13.7%" y="-9.1%" filterUnits="objectBoundingBox">
      <feOffset dy="4" in="SourceAlpha" result="shadowOffsetOuter1"/>
      <feGaussianBlur in="shadowOffsetOuter1" result="shadowBlurOuter1" stdDeviation="7"/>
      <feColorMatrix in="shadowBlurOuter1" values="0 0 0 0 0.22745098   0 0 0 0 0.494117647   0 0 0 0 0.960784314  0 0 0 0.5 0"/>
    </filter>
    <linearGradient id="application-x-perl-f" x1="50%" x2="7.994%" y1="50%" y2="88.893%">
      <stop offset="0%" stop-color="#FFF" stop-opacity=".1"/>
      <stop offset="100%" stop-color="#FFF" stop-opacity=".3"/>
    </linearGradient>
    <path id="application-x-perl-e" d="M116,0 L168,52 L134,52 C124.058875,52 116,43.9411255 116,34 L116,0 Z"/>
    <filter id="application-x-perl-d" width="126.9%" height="126.9%" x="-13.5%" y="-9.6%" filterUnits="objectBoundingBox">
      <feOffset dy="2" in="SourceAlpha" result="shadowOffsetOuter1"/>
      <feGaussianBlur in="shadowOffsetOuter1" result="shadowBlurOuter1" stdDeviation="2"/>
      <feComposite in="shadowBlurOuter1" in2="SourceAlpha" operator="out" result="shadowBlurOuter1"/>
      <feColorMatrix in="shadowBlurOuter1" values="0 0 0 0 0   0 0 0 0 0   0 0 0 0 0  0 0 0 0.05 0"/>
    </filter>
  </defs>
  <g fill="none" fill-rule="evenodd">
    <g transform="translate(44 28)">
      <use fill="#000" filter="url(#application-x-perl-a)" xlink:href="#application-x-perl-b"/>
      <use fill="url(#application-x-perl-c)" xlink:href="#application-x-perl-b"/>
      <use fill="#000" filter="url(#application-x-perl-d)" xlink:href="#application-x-perl-e"/>
      <use fill="url(#application-x-perl-f)" xlink:href="#application-x-perl-e"/>
    </g>
    <path fill="#FFF" d="M107.059146,186.370542 C107.119999,186.254702 107.149759,186.184888 107.214559,186.059608 C107.791732,184.94571 108.467455,183.575475 108.730138,182.989448 C109.216698,181.903283 109.924874,179.339966 110.129135,177.937075 C110.611482,174.623107 110.660122,173.755694 110.440068,172.691 C110.374735,172.376494 110.292708,170.841656 110.245722,169.271011 C110.175908,166.944344 110.146255,166.225896 109.973722,165.54011 C109.708975,164.487944 109.507108,163.215678 109.507428,162.19796 C109.507562,160.953432 109.325082,158.72652 109.079962,157.262344 C108.749028,155.285507 108.745775,151.76844 109.079962,149.917304 C109.353722,148.400339 109.287162,147.767342 108.807962,147.080211 C108.105535,146.073224 107.350858,145.965859 105.465946,146.575144 C100.035028,148.233918 94.3864737,143.991251 91.2038443,139.929763 C89.089759,136.401736 86.0410657,134.162792 85.724431,129.941822 C85.484751,126.497806 85.0368577,123.58963 85.1804523,120.070728 C85.062959,116.853832 87.0811563,114.626835 87.8229963,111.40435 C87.3518497,108.361923 83.631711,109.12667 81.449759,108.100984 C80.3677643,107.514328 79.8241697,106.433219 80.0507617,105.341726 C80.3223883,104.033544 81.5553003,102.20956 82.5767403,101.610915 C84.7120363,100.617038 87.139759,101.004398 89.4162763,100.445032 C91.3226177,99.9556456 92.0984097,99.5964989 93.263535,98.5407549 C95.0037697,96.9639549 95.444143,96.7197096 96.994255,96.7142163 C103.93033,97.1705363 106.338948,104.975123 106.981567,110.821406 C107.241567,115.261043 105.376746,119.034622 104.33898,123.218595 C103.90746,124.947651 105.246788,127.421496 106.942692,125.628067 C108.042772,122.200382 108.235044,119.565806 110.440212,116.5342 C112.622159,113.616408 114.435583,111.871294 116.657972,110.549331 C118.447908,109.37244 120.228991,108.029006 121.632191,106.391032 C122.381412,105.330499 123.827834,102.992558 124.158154,102.271566 C125.475375,99.0186109 128.544196,96.8780989 131.736042,95.6260616 C133.79922,94.8984936 135.802452,93.8986003 137.953759,93.4497469 C140.858852,93.2963069 142.910399,93.0943869 145.492948,94.3047229 C147.531076,95.0976989 148.835103,96.8186643 150.233967,98.3852989 C151.719167,100.582371 152.575844,103.580776 153.576122,106.119 C154.269514,108.25044 155.027322,109.665144 156.296452,111.093443 C157.111082,112.010419 158.195007,113.51052 158.938954,114.746504 C161.096074,120.261928 163.265274,124.369224 167.021674,129.048014 C169.02938,131.235646 169.431098,132.323198 169.431098,135.227171 C170.002815,139.698035 169.960751,143.04779 168.926031,147.58571 C168.801231,147.915416 168.085012,149.103571 167.33257,150.228206 C166.22314,151.886979 165.90105,152.283779 165.583876,152.443486 C165.327983,152.571859 165.103396,152.643912 164.923588,152.598739 C164.509348,152.494952 163.978788,151.913848 163.835188,151.39403 C163.655348,150.742238 163.900522,149.844408 164.612682,148.595854 C165.811578,146.581438 166.447711,144.245822 166.050463,141.91155 C165.743583,140.221011 165.866623,138.478584 165.622783,136.781694 C165.22465,134.95172 164.645322,133.944734 164.02977,133.944734 C163.357402,133.944734 162.846975,135.11572 162.008639,138.375246 L161.464666,144.398814 C161.419866,149.326376 161.553252,153.170904 161.814479,154.231123 C162.076612,155.297155 162.077519,158.637518 161.814479,160.060542 C161.571546,161.374856 161.639546,161.937176 162.164292,163.169624 C162.694426,164.415048 162.864394,165.262776 162.786111,166.705928 C162.718111,167.947768 162.574538,168.483694 162.086452,169.698248 C161.542031,171.053272 161.448084,171.578014 161.348324,173.662222 C161.296591,174.747491 161.162244,175.915075 161.075898,176.266243 C160.580218,178.287374 160.654031,178.763352 161.620324,181.745838 C162.22738,183.621128 162.589284,185.384131 162.436292,185.631966 C162.372772,186.729763 162.718586,187.848136 162.474692,188.935646 C162.425626,189.112339 66.1292683,190.604259 107.059162,186.370542 L107.059146,186.370542 Z M151.010884,142.650126 C150.295124,142.650126 149.902799,143.139992 149.068047,144.864952 C147.60745,147.436771 146.545887,149.799672 146.269871,152.793336 C145.936591,155.289107 145.791204,157.733875 145.803738,160.254691 L145.803738,163.791438 L145.492858,164.413256 C145.304964,164.75859 144.752938,165.486451 144.24922,166.00627 C143.62025,166.655822 143.206452,167.181011 142.927748,167.716488 C142.184703,169.145326 141.704698,169.910744 140.790762,171.136483 C139.769908,172.504478 138.88281,174.114488 138.692239,175.022611 C138.535226,175.767896 138.655439,176.539128 139.041626,177.121128 C139.187012,177.340328 139.658522,177.809603 140.091108,178.170611 C141.371423,179.238883 141.799988,179.940776 142.111791,181.745838 C142.247791,182.532723 142.251364,182.844974 142.151258,183.533448 C141.944591,184.946627 141.496783,185.805091 140.829786,186.176392 C145.805658,186.635806 150.821348,187.346659 155.869247,188.235992 C155.941727,187.942979 156.05714,187.613278 156.218634,187.264344 C156.851631,185.898584 156.97242,185.566654 157.151359,184.194184 C157.337439,182.769822 157.556212,181.949379 158.511748,179.142259 C159.163092,177.228046 159.186351,177.072371 159.249876,175.877496 C159.35857,173.834451 159.233876,170.796942 158.977876,169.737171 C158.64193,168.34323 158.55153,167.256616 158.550676,164.529566 C158.54978,162.678435 158.516543,161.78955 158.394996,161.148494 C158.165503,159.937518 157.417535,157.953075 156.529546,156.173966 C155.594138,154.299566 155.303807,153.627198 154.897615,152.1326 C154.23106,150.034083 153.16145,148.152083 152.838015,145.953358 C152.555295,143.713027 151.971498,142.650126 151.011482,142.650126 L151.010884,142.650126 Z M137.875796,147.235907 C137.722783,147.226307 137.578303,147.283374 137.37073,147.39116 C136.93681,147.615747 136.697471,148.110947 136.166015,150.111496 C135.590724,152.276222 135.363023,152.910568 134.883466,153.609326 C133.544548,155.559774 133.537386,155.591982 133.212612,157.495459 C132.854266,159.595763 132.815812,159.670472 131.386079,161.148515 C130.695375,161.862488 129.759071,162.790291 129.326484,163.208563 C128.335599,164.165 127.965642,164.916099 127.96609,165.928899 C127.966986,166.702814 128.08689,167.067406 129.054495,168.804467 C129.905802,170.332616 130.219391,170.75044 130.958415,171.524803 C131.649124,172.248616 133.083775,173.360728 133.8729,173.779 C134.445956,174.082734 135.024378,174.123907 135.466362,173.89532 C135.916868,173.66268 136.36777,173.068616 136.787834,172.18555 C136.99898,171.741763 137.524618,170.787582 137.953626,170.04811 C139.358756,167.625262 139.723791,166.483624 139.857551,163.907784 C139.905018,162.9934 139.979258,161.724712 140.052164,161.109608 C140.193071,159.914739 140.114778,158.809784 139.624484,155.28019 C139.513551,154.480776 139.334618,152.612195 139.197284,151.122072 C138.933338,148.26708 138.819738,147.844339 138.341951,147.469011 C138.173311,147.335678 138.029258,147.246238 137.875818,147.235518 L137.875796,147.235907 Z M120.971242,148.556936 C120.247071,148.63475 119.861994,148.875923 119.416831,149.333982 C118.625562,150.148606 118.252068,151.329608 118.134415,153.609304 C118.033508,155.563779 117.944388,155.892131 116.890826,158.039411 C116.115839,159.619454 115.930991,160.33611 115.530703,162.741955 C115.329316,163.953379 115.27705,164.422206 115.29753,166.705928 C115.31993,169.217347 115.312996,169.383763 115.064356,170.242227 C114.922116,170.733427 114.502218,171.780664 114.131679,172.574264 C113.316964,174.318035 113.182538,174.817726 113.043588,176.538232 C112.984548,177.270547 112.839162,178.441262 112.693828,179.141811 C112.533242,179.916174 112.399588,181.03947 112.344068,182.017822 C112.285028,183.05836 112.005135,184.549379 111.72234,185.942872 C116.65554,185.564419 121.574868,185.392632 126.489412,185.437806 C126.402639,185.241432 126.328346,185.053539 126.373092,184.815987 C126.482692,184.230408 127.027567,183.772318 128.47161,183.066851 C129.520644,182.554638 129.88434,182.309038 130.414452,181.784744 C131.448724,180.762099 132.16538,179.207112 132.163588,177.976003 C131.986895,176.290835 130.580868,175.003811 129.598484,173.701128 C128.673364,172.46331 127.139402,170.976318 125.790196,170.00915 C124.396922,169.011112 123.082964,167.88468 122.642463,167.288814 C122.44385,167.01996 122.18785,166.48403 122.059476,166.084099 C121.844383,165.414414 121.824863,165.184478 121.826303,162.936094 C121.827556,160.137027 121.852436,159.9894 122.797812,158.31139 C123.539519,156.995288 123.82954,156.049587 123.963652,154.386344 C124.024506,153.627635 124.206746,152.48868 124.352292,151.860158 C124.676719,150.458163 124.633039,149.816211 124.235706,149.295496 C123.811812,148.739891 123.197674,148.553342 121.826324,148.556926 C121.500831,148.557816 121.212735,148.530792 120.971348,148.556926 L120.971242,148.556936 Z M135.971871,182.950547 C135.580884,182.916414 135.277583,183.330334 134.883471,184.155262 C134.546618,184.861182 134.132367,185.313454 133.562447,185.670883 C135.356319,185.76123 137.126484,185.873976 138.925279,186.020696 C138.432746,185.696803 137.931268,185.180574 137.409658,184.388318 C136.810207,183.478408 136.362858,182.984083 135.971871,182.950531 L135.971871,182.950547 Z"/>
  </g>
</svg>
