<svg xmlns="http://www.w3.org/2000/svg" xmlns:xlink="http://www.w3.org/1999/xlink" width="256" height="256" viewBox="0 0 256 256">
  <defs>
    <linearGradient id="application-x-sketch-c" x1="50%" x2="50%" y1="0%" y2="99.372%">
      <stop offset="0%" stop-color="#FFBC2A"/>
      <stop offset="100%" stop-color="#E77B00"/>
    </linearGradient>
    <path id="application-x-sketch-b" d="M116,0 L168,52 L168,190 C168,199.941125 159.941125,208 150,208 L18,208 C8.0588745,208 1.21743675e-15,199.941125 0,190 L0,18 C-1.21743675e-15,8.0588745 8.0588745,1.82615513e-15 18,0 L116,0 Z"/>
    <filter id="application-x-sketch-a" width="127.4%" height="122.1%" x="-13.7%" y="-9.1%" filterUnits="objectBoundingBox">
      <feOffset dy="4" in="SourceAlpha" result="shadowOffsetOuter1"/>
      <feGaussianBlur in="shadowOffsetOuter1" result="shadowBlurOuter1" stdDeviation="7"/>
      <feColorMatrix in="shadowBlurOuter1" values="0 0 0 0 0.874509804   0 0 0 0 0.498039216   0 0 0 0 0.0588235294  0 0 0 0.5 0"/>
    </filter>
    <linearGradient id="application-x-sketch-f" x1="50%" x2="7.994%" y1="50%" y2="88.893%">
      <stop offset="0%" stop-color="#FFF" stop-opacity=".1"/>
      <stop offset="100%" stop-color="#FFF" stop-opacity=".3"/>
    </linearGradient>
    <path id="application-x-sketch-e" d="M116,0 L168,52 L134,52 C124.058875,52 116,43.9411255 116,34 L116,0 Z"/>
    <filter id="application-x-sketch-d" width="126.9%" height="126.9%" x="-13.5%" y="-9.6%" filterUnits="objectBoundingBox">
      <feOffset dy="2" in="SourceAlpha" result="shadowOffsetOuter1"/>
      <feGaussianBlur in="shadowOffsetOuter1" result="shadowBlurOuter1" stdDeviation="2"/>
      <feComposite in="shadowBlurOuter1" in2="SourceAlpha" operator="out" result="shadowBlurOuter1"/>
      <feColorMatrix in="shadowBlurOuter1" values="0 0 0 0 0   0 0 0 0 0   0 0 0 0 0  0 0 0 0.05 0"/>
    </filter>
  </defs>
  <g fill="none" fill-rule="evenodd">
    <g transform="translate(44 28)">
      <g opacity=".9">
        <use fill="#000" filter="url(#application-x-sketch-a)" xlink:href="#application-x-sketch-b"/>
        <use fill="url(#application-x-sketch-c)" xlink:href="#application-x-sketch-b"/>
      </g>
      <use fill="#000" filter="url(#application-x-sketch-d)" xlink:href="#application-x-sketch-e"/>
      <use fill="url(#application-x-sketch-f)" xlink:href="#application-x-sketch-e"/>
    </g>
    <path fill="#FFF" d="M123.272161,90.5019695 L100.65415,92.8518927 L102.165891,115.516807 L123.272161,90.5019695 Z M132.727839,90.5019695 L153.834109,115.516807 L155.34585,92.8518927 L132.727839,90.5019695 Z M150.691206,117.994677 L128,91.1013958 L105.299809,118.005325 L150.691206,117.994677 Z M127.771546,86.01297 C127.784817,86.0114578 127.7981,86.0100778 127.811393,86.0088301 L128,85.9892346 L128.188607,86.0088301 C128.2019,86.0100778 128.215183,86.0114578 128.228454,86.01297 L159.260896,89.2371199 L185.571484,120.54378 L128,194.57949 L70.4285161,120.54378 L96.7391038,89.2371199 L127.771546,86.01297 Z M96.8129789,95.3663984 L77.7814594,118.011781 L98.3230956,118.006962 L96.8129789,95.3663984 Z M159.187021,95.3663984 L157.677833,117.993038 L178.198743,117.988224 L159.187021,95.3663984 Z M132.777191,181.92 L179.381421,121.987946 L157.090103,121.993176 L132.777191,181.92 Z M123.222809,181.92 L98.9154341,122.006823 L76.6373213,122.012049 L123.222809,181.92 Z M103.23169,122.00581 L128,183.055108 L152.773025,121.994188 L103.23169,122.00581 Z"/>
  </g>
</svg>
