<svg xmlns="http://www.w3.org/2000/svg" xmlns:xlink="http://www.w3.org/1999/xlink" width="256" height="256" viewBox="0 0 256 256">
  <defs>
    <linearGradient id="application-x-tar-c" x1="50%" x2="50%" y1="0%" y2="99.324%">
      <stop offset="0%" stop-color="#C5A981"/>
      <stop offset="100%" stop-color="#BA853A"/>
    </linearGradient>
    <path id="application-x-tar-b" d="M116,0 L168,52 L168,190 C168,199.941125 159.941125,208 150,208 L18,208 C8.0588745,208 1.21743675e-15,199.941125 0,190 L0,18 C-1.21743675e-15,8.0588745 8.0588745,1.82615513e-15 18,0 L116,0 Z"/>
    <filter id="application-x-tar-a" width="127.4%" height="122.1%" x="-13.7%" y="-9.1%" filterUnits="objectBoundingBox">
      <feOffset dy="4" in="SourceAlpha" result="shadowOffsetOuter1"/>
      <feGaussianBlur in="shadowOffsetOuter1" result="shadowBlurOuter1" stdDeviation="7"/>
      <feColorMatrix in="shadowBlurOuter1" values="0 0 0 0 0.733333333   0 0 0 0 0.537254902   0 0 0 0 0.258823529  0 0 0 0.5 0"/>
    </filter>
    <linearGradient id="application-x-tar-f" x1="50%" x2="7.994%" y1="50%" y2="88.893%">
      <stop offset="0%" stop-color="#FFF" stop-opacity=".1"/>
      <stop offset="100%" stop-color="#FFF" stop-opacity=".3"/>
    </linearGradient>
    <path id="application-x-tar-e" d="M116,0 L168,52 L134,52 C124.058875,52 116,43.9411255 116,34 L116,0 Z"/>
    <filter id="application-x-tar-d" width="126.9%" height="126.9%" x="-13.5%" y="-9.6%" filterUnits="objectBoundingBox">
      <feOffset dy="2" in="SourceAlpha" result="shadowOffsetOuter1"/>
      <feGaussianBlur in="shadowOffsetOuter1" result="shadowBlurOuter1" stdDeviation="2"/>
      <feComposite in="shadowBlurOuter1" in2="SourceAlpha" operator="out" result="shadowBlurOuter1"/>
      <feColorMatrix in="shadowBlurOuter1" values="0 0 0 0 0   0 0 0 0 0   0 0 0 0 0  0 0 0 0.05 0"/>
    </filter>
  </defs>
  <g fill="none" fill-rule="evenodd" transform="translate(44 28)">
    <use fill="#000" filter="url(#application-x-tar-a)" xlink:href="#application-x-tar-b"/>
    <use fill="url(#application-x-tar-c)" xlink:href="#application-x-tar-b"/>
    <use fill="#000" filter="url(#application-x-tar-d)" xlink:href="#application-x-tar-e"/>
    <use fill="url(#application-x-tar-f)" xlink:href="#application-x-tar-e"/>
    <g transform="translate(0 79)">
      <path fill="#FFF8F8" fill-opacity=".5" d="M72,26 L92,26 L92,14 L72,14 L72,8 L96,8 L96,32 L72,32 L72,26 Z M60,8 L60,32 L0,32 L0,8 L60,8 Z M108,8 L168,8 L168,32 L108,32 L108,8 Z"/>
      <path fill="#F4F4F4" d="M68,0 L100,0 C102.209139,-4.05812251e-16 104,1.790861 104,4 L104,36 C104,38.209139 102.209139,40 100,40 L68,40 C65.790861,40 64,38.209139 64,36 L64,4 C64,1.790861 65.790861,4.05812251e-16 68,0 Z M68,4 L68,36 L100,36 L100,4 L68,4 Z M68,18 L86,18 L86,22 L68,22 L68,18 Z"/>
    </g>
  </g>
</svg>
