<?xml version="1.0" encoding="UTF-8"?>
<svg width="256px" height="256px" viewBox="0 0 256 256" version="1.1" xmlns="http://www.w3.org/2000/svg" xmlns:xlink="http://www.w3.org/1999/xlink">
    <!-- Generator: Sketch 49.1 (51147) - http://www.bohemiancoding.com/sketch -->
    <title>application-x-jar</title>
    <desc>Created with Sketch.</desc>
    <defs>
        <path d="M56,28 C56,24.6862915 58.6862915,22 62,22 L106,22 C109.313708,22 112,24.6862915 112,28 L112,6 C112,2.6862915 114.686292,-2.79460044e-16 118,-8.8817842e-16 L162,-8.8817842e-16 C165.313708,1.44626758e-15 168,2.6862915 168,6 L168,202 C168,205.313708 165.313708,208 162,208 L118,208 C114.686292,208 112,205.313708 112,202 C112,205.313708 109.313708,208 106,208 L62,208 C58.6862915,208 56,205.313708 56,202 C56,205.313708 53.3137085,208 50,208 L5,208 C2.23857625,208 7.10542736e-15,205.388328 7.10542736e-15,202.166667 L0,17.8333333 C0,14.6116723 2.23857625,12 5,12 L50,12 C53.3137085,12 56,14.6862915 56,18 L56,28 Z" id="path-1"></path>
        <filter x="-10.1%" y="-6.2%" width="120.2%" height="116.3%" filterUnits="objectBoundingBox" id="filter-2">
            <feOffset dx="0" dy="4" in="SourceAlpha" result="shadowOffsetOuter1"></feOffset>
            <feGaussianBlur stdDeviation="5" in="shadowOffsetOuter1" result="shadowBlurOuter1"></feGaussianBlur>
            <feComposite in="shadowBlurOuter1" in2="SourceAlpha" operator="out" result="shadowBlurOuter1"></feComposite>
            <feColorMatrix values="0 0 0 0 0   0 0 0 0 0   0 0 0 0 0  0 0 0 0.2 0" type="matrix" in="shadowBlurOuter1"></feColorMatrix>
        </filter>
        <linearGradient x1="98.4747561%" y1="48.4747561%" x2="1.52524386%" y2="48.4747561%" id="linearGradient-3">
            <stop stop-color="#C926EA" offset="0%"></stop>
            <stop stop-color="#B505C3" offset="100%"></stop>
        </linearGradient>
        <linearGradient x1="99.4549187%" y1="50.5450813%" x2="3.99781362%" y2="50.5450813%" id="linearGradient-4">
            <stop stop-color="#628FFF" offset="0%"></stop>
            <stop stop-color="#4084FF" offset="100%"></stop>
        </linearGradient>
        <linearGradient x1="100%" y1="50%" x2="6.53071043%" y2="50%" id="linearGradient-5">
            <stop stop-color="#6DBD00" offset="0%"></stop>
            <stop stop-color="#8FBF12" offset="100%"></stop>
        </linearGradient>
    </defs>
    <g id="application-x-jar" stroke="none" stroke-width="1" fill="none" fill-rule="evenodd">
        <g id="Group" transform="translate(44.000000, 28.000000)">
            <g id="Combined-Shape">
                <use fill="black" fill-opacity="1" filter="url(#filter-2)" xlink:href="#path-1"></use>
                <use fill-opacity="0.1" fill="#000000" fill-rule="evenodd" xlink:href="#path-1"></use>
            </g>
            <path d="M168,6 L168,202 C168,205.313708 165.313708,208 162,208 L118,208 C114.686292,208 112,205.313708 112,202 L112,6 C112,2.6862915 114.686292,6.08718376e-16 118,0 L162,0 C165.313708,-6.08718376e-16 168,2.6862915 168,6 Z" id="Rectangle-43" fill="url(#linearGradient-3)"></path>
            <path d="M112,28 L112,202 C112,205.313708 109.313708,208 106,208 L62,208 C58.6862915,208 56,205.313708 56,202 L56,28 C56,24.6862915 58.6862915,22 62,22 L106,22 C109.313708,22 112,24.6862915 112,28 Z" id="Rectangle-43" fill="url(#linearGradient-4)"></path>
            <path d="M56,18 L56,202 C56,205.313708 53.3137085,208 50,208 L5,208 C2.23857625,208 7.10542736e-15,205.388328 7.10542736e-15,202.166667 L0,17.8333333 C0,14.6116723 2.23857625,12 5,12 L50,12 C53.3137085,12 56,14.6862915 56,18 Z" id="Rectangle-43" fill="url(#linearGradient-5)"></path>
            <path d="M7.70932444e-17,19.8333333 L0,17.8333333 C0,14.6116723 2.23857625,12 5,12 L50,12 C53.3137085,12 56,14.6862915 56,18 L56,20 C56,16.6862915 53.3137085,14 50,14 L5,14 C2.23857625,14 0,16.6116723 0,19.8333333 Z M56,28 C56,24.6862915 58.6862915,22 62,22 L106,22 C109.313708,22 112,24.6862915 112,28 L112,116 L112,30 C112,26.6862915 109.313708,24 106,24 L62,24 C58.6862915,24 56,26.6862915 56,30 L56,116.000005 L56,28 Z M112,8 L112,6 C112,2.6862915 114.686292,-2.79460044e-16 118,-8.8817842e-16 L162,-8.8817842e-16 C165.313708,1.44626758e-15 168,2.6862915 168,6 L168,105 L168,8 C168,4.6862915 165.313708,2 162,2 L118,2 C114.686292,2 112,4.6862915 112,8 Z" id="Combined-Shape" fill-opacity="0.2" fill="#FFFFFF"></path>
            <path d="M74,106 L92,106 L92,94 L74,94 L74,88 L98,88 L98,112 L74,112 L74,106 Z M62,88 L62,112 L2,112 L2,88 L62,88 Z M110,88 L166,88 L166,112 L110,112 L110,88 Z" id="Combined-Shape" fill-opacity="0.5" fill="#FFF8F8"></path>
            <path d="M2,112 L62,112 L62,114 L2,114 L2,112 Z M166,112 L166,114 L110,114 L110,112 L166,112 Z M74,94 L92,94 L92,96 L74,96 L74,94 Z M74,112 L98,112 L98,114 L74,114 L74,112 Z M70,102 L88,102 L88,104 L70,104 L70,102 Z M70,84 L102,84 L102,86 L70,86 L70,84 Z M66,116 L106,116 L106,118 C106,120.209139 104.209139,122 102,122 L70,122 C67.790861,122 66,120.209139 66,118 L66,116 Z" id="Combined-Shape" fill-opacity="0.2" fill="#000000"></path>
            <path d="M70,80 L102,80 C104.209139,80 106,81.790861 106,84 L106,116 C106,118.209139 104.209139,120 102,120 L70,120 C67.790861,120 66,118.209139 66,116 L66,84 C66,81.790861 67.790861,80 70,80 Z M70,84 L70,116 L102,116 L102,84 L70,84 Z M70,98 L88,98 L88,102 L70,102 L70,98 Z" id="Combined-Shape" fill="#F4F4F4"></path>
            <path d="M7.10542736e-15,200.166667 C7.10542736e-15,203.388328 2.23857625,206 5,206 L50,206 C53.3137085,206 56,203.313708 56,200 C56,203.313708 58.6862915,206 62,206 L106,206 C109.313708,206 112,203.313708 112,200 C112,203.313708 114.686292,206 118,206 L162,206 C165.313708,206 168,203.313708 168,200 L168,202 C168,205.313708 165.313708,208 162,208 L118,208 C114.686292,208 112,205.313708 112,202 C112,205.313708 109.313708,208 106,208 L62,208 C58.6862915,208 56,205.313708 56,202 C56,205.313708 53.3137085,208 50,208 L5,208 C2.23857625,208 7.10542736e-15,205.388328 7.10542736e-15,202.166667 L7.02833411e-15,200.166667 Z" id="Combined-Shape" fill-opacity="0.2" fill="#000000"></path>
        </g>
        <path d="M109.721489,168 L109.721489,199.961585 C109.721489,202.208895 109.398963,204.133645 108.753902,205.735894 C108.10884,207.338143 107.240102,208.649055 106.147659,209.668667 C105.055217,210.68828 103.791124,211.437373 102.355342,211.915966 C100.919561,212.39456 99.4005682,212.633854 97.7983193,212.633854 C96.2584957,212.633854 94.7811195,212.389358 93.3661465,211.90036 C91.9511734,211.411362 90.6974845,210.68828 89.605042,209.731092 C88.5125996,208.773905 87.6386587,207.58264 86.9831933,206.157263 C86.3277278,204.731886 86,203.082842 86,201.210084 L86,198.026411 L90.6194478,198.026411 L90.6194478,200.679472 C90.6194478,202.03202 90.837933,203.197274 91.27491,204.17527 C91.7118869,205.153266 92.2789081,205.964783 92.9759904,206.609844 C93.6730727,207.254905 94.453377,207.733492 95.3169268,208.045618 C96.1804765,208.357745 97.0492153,208.513806 97.9231693,208.513806 C98.6098474,208.513806 99.3693436,208.383755 100.201681,208.123649 C101.034018,207.863544 101.814322,207.426574 102.542617,206.812725 C103.270912,206.198876 103.879549,205.382158 104.368547,204.362545 C104.857545,203.342932 105.102041,202.063233 105.102041,200.523409 L105.102041,168 L109.721489,168 Z M146.364946,211.791116 C146.073628,211.895159 145.69388,211.983593 145.22569,212.056423 C144.757501,212.129252 144.367348,212.165666 144.055222,212.165666 C142.744291,212.165666 141.657067,211.676676 140.793517,210.698679 C139.929968,209.720683 139.446179,208.201691 139.342137,206.141657 C138.343332,207.431779 137.360149,208.472185 136.392557,209.262905 C135.424965,210.053625 134.457388,210.662263 133.489796,211.088836 C132.522204,211.515408 131.554627,211.80152 130.587035,211.947179 C129.619443,212.092838 128.636259,212.165666 127.637455,212.165666 C126.347332,212.165666 125.140462,211.957585 124.016807,211.541417 C122.893152,211.125248 121.909968,210.532217 121.067227,209.762305 C120.224486,208.992393 119.563828,208.066432 119.085234,206.984394 C118.60664,205.902356 118.367347,204.695485 118.367347,203.363745 C118.367347,202.032006 118.658661,200.892762 119.241297,199.945978 C119.823932,198.999195 120.599035,198.182476 121.566627,197.495798 C122.534219,196.80912 123.626645,196.231695 124.843938,195.763505 C126.061231,195.295316 127.309717,194.879153 128.589436,194.515006 C129.869154,194.150859 131.122843,193.802323 132.35054,193.469388 C133.578237,193.136453 134.675866,192.772311 135.643457,192.376951 C136.611049,191.981591 137.386152,191.51861 137.968788,190.987995 C138.551423,190.45738 138.842737,189.796723 138.842737,189.006002 C138.842737,188.090432 138.665868,187.273713 138.312125,186.555822 C137.958382,185.837932 137.458987,185.234496 136.813926,184.745498 C136.168864,184.2565 135.38856,183.887156 134.472989,183.637455 C133.557418,183.387754 132.548225,183.262905 131.445378,183.262905 C130.508999,183.262905 129.619452,183.382552 128.776711,183.621849 C127.933969,183.861146 127.184877,184.209682 126.529412,184.667467 C125.873946,185.125252 125.327733,185.687072 124.890756,186.352941 C124.453779,187.018811 124.17287,187.788711 124.048019,188.662665 L119.241297,188.662665 C119.32453,187.122841 119.730288,185.75991 120.458583,184.57383 C121.186878,183.387749 122.11284,182.394162 123.236495,181.593037 C124.36015,180.791913 125.634647,180.183275 127.060024,179.767107 C128.485401,179.350938 129.947171,179.142857 131.445378,179.142857 C133.068435,179.142857 134.603034,179.340534 136.04922,179.735894 C137.495405,180.131254 138.769902,180.73469 139.872749,181.546218 C140.975596,182.357747 141.849537,183.382547 142.494598,184.620648 C143.139659,185.85875 143.462185,187.32052 143.462185,189.006002 L143.462185,205.42377 C143.462185,206.235298 143.665064,206.885552 144.070828,207.37455 C144.476593,207.863548 144.981189,208.108043 145.584634,208.108043 C145.709484,208.108043 145.834333,208.097639 145.959184,208.076831 C146.084034,208.056022 146.219287,208.02481 146.364946,207.983193 L146.364946,211.791116 Z M138.842737,193.906363 C138.197676,194.593041 137.360149,195.15486 136.330132,195.591837 C135.300115,196.028814 134.197285,196.424168 133.021609,196.777911 C131.845932,197.131654 130.665072,197.474988 129.478992,197.807923 C128.292911,198.140858 127.216091,198.536212 126.248499,198.993998 C125.280908,199.451783 124.495401,200.0084 123.891957,200.663866 C123.288512,201.319331 122.986795,202.146454 122.986795,203.145258 C122.986795,204.04002 123.142856,204.799517 123.454982,205.42377 C123.767108,206.048022 124.172867,206.563023 124.672269,206.968788 C125.171671,207.374552 125.743894,207.671067 126.388956,207.858343 C127.034017,208.045619 127.689472,208.139256 128.355342,208.139256 C130.269717,208.139256 132.14765,207.556628 133.989196,206.391357 C135.830742,205.226085 137.448572,203.436587 138.842737,201.022809 L138.842737,193.906363 Z M152.82593,179.767107 L157.445378,179.767107 L157.258103,185.042017 C158.236099,183.314917 159.385748,181.998804 160.707083,181.093637 C162.028418,180.188471 163.573421,179.735894 165.342137,179.735894 C165.487796,179.735894 165.690675,179.741096 165.95078,179.751501 C166.210886,179.761905 166.481391,179.782713 166.762305,179.813926 C167.043219,179.845138 167.313724,179.886754 167.57383,179.938776 C167.833935,179.990797 168.036814,180.048019 168.182473,180.110444 L168.182473,184.823529 C167.703879,184.657062 167.162868,184.527011 166.559424,184.433373 C165.955979,184.339735 165.508605,184.292917 165.217287,184.292917 C163.98959,184.292917 162.897164,184.521806 161.939976,184.979592 C160.982788,185.437377 160.171272,186.056419 159.505402,186.836735 C158.839532,187.617051 158.329734,188.5118 157.97599,189.521008 C157.622247,190.530217 157.445378,191.586229 157.445378,192.689076 L157.445378,211.541417 L152.82593,211.541417 L152.82593,179.767107 Z" id="Jar1" fill-opacity="0.2" fill="#000000"></path>
        <path d="M109.721489,166 L109.721489,197.961585 C109.721489,200.208895 109.398963,202.133645 108.753902,203.735894 C108.10884,205.338143 107.240102,206.649055 106.147659,207.668667 C105.055217,208.68828 103.791124,209.437373 102.355342,209.915966 C100.919561,210.39456 99.4005682,210.633854 97.7983193,210.633854 C96.2584957,210.633854 94.7811195,210.389358 93.3661465,209.90036 C91.9511734,209.411362 90.6974845,208.68828 89.605042,207.731092 C88.5125996,206.773905 87.6386587,205.58264 86.9831933,204.157263 C86.3277278,202.731886 86,201.082842 86,199.210084 L86,196.026411 L90.6194478,196.026411 L90.6194478,198.679472 C90.6194478,200.03202 90.837933,201.197274 91.27491,202.17527 C91.7118869,203.153266 92.2789081,203.964783 92.9759904,204.609844 C93.6730727,205.254905 94.453377,205.733492 95.3169268,206.045618 C96.1804765,206.357745 97.0492153,206.513806 97.9231693,206.513806 C98.6098474,206.513806 99.3693436,206.383755 100.201681,206.123649 C101.034018,205.863544 101.814322,205.426574 102.542617,204.812725 C103.270912,204.198876 103.879549,203.382158 104.368547,202.362545 C104.857545,201.342932 105.102041,200.063233 105.102041,198.523409 L105.102041,166 L109.721489,166 Z M146.364946,209.791116 C146.073628,209.895159 145.69388,209.983593 145.22569,210.056423 C144.757501,210.129252 144.367348,210.165666 144.055222,210.165666 C142.744291,210.165666 141.657067,209.676676 140.793517,208.698679 C139.929968,207.720683 139.446179,206.201691 139.342137,204.141657 C138.343332,205.431779 137.360149,206.472185 136.392557,207.262905 C135.424965,208.053625 134.457388,208.662263 133.489796,209.088836 C132.522204,209.515408 131.554627,209.80152 130.587035,209.947179 C129.619443,210.092838 128.636259,210.165666 127.637455,210.165666 C126.347332,210.165666 125.140462,209.957585 124.016807,209.541417 C122.893152,209.125248 121.909968,208.532217 121.067227,207.762305 C120.224486,206.992393 119.563828,206.066432 119.085234,204.984394 C118.60664,203.902356 118.367347,202.695485 118.367347,201.363745 C118.367347,200.032006 118.658661,198.892762 119.241297,197.945978 C119.823932,196.999195 120.599035,196.182476 121.566627,195.495798 C122.534219,194.80912 123.626645,194.231695 124.843938,193.763505 C126.061231,193.295316 127.309717,192.879153 128.589436,192.515006 C129.869154,192.150859 131.122843,191.802323 132.35054,191.469388 C133.578237,191.136453 134.675866,190.772311 135.643457,190.376951 C136.611049,189.981591 137.386152,189.51861 137.968788,188.987995 C138.551423,188.45738 138.842737,187.796723 138.842737,187.006002 C138.842737,186.090432 138.665868,185.273713 138.312125,184.555822 C137.958382,183.837932 137.458987,183.234496 136.813926,182.745498 C136.168864,182.2565 135.38856,181.887156 134.472989,181.637455 C133.557418,181.387754 132.548225,181.262905 131.445378,181.262905 C130.508999,181.262905 129.619452,181.382552 128.776711,181.621849 C127.933969,181.861146 127.184877,182.209682 126.529412,182.667467 C125.873946,183.125252 125.327733,183.687072 124.890756,184.352941 C124.453779,185.018811 124.17287,185.788711 124.048019,186.662665 L119.241297,186.662665 C119.32453,185.122841 119.730288,183.75991 120.458583,182.57383 C121.186878,181.387749 122.11284,180.394162 123.236495,179.593037 C124.36015,178.791913 125.634647,178.183275 127.060024,177.767107 C128.485401,177.350938 129.947171,177.142857 131.445378,177.142857 C133.068435,177.142857 134.603034,177.340534 136.04922,177.735894 C137.495405,178.131254 138.769902,178.73469 139.872749,179.546218 C140.975596,180.357747 141.849537,181.382547 142.494598,182.620648 C143.139659,183.85875 143.462185,185.32052 143.462185,187.006002 L143.462185,203.42377 C143.462185,204.235298 143.665064,204.885552 144.070828,205.37455 C144.476593,205.863548 144.981189,206.108043 145.584634,206.108043 C145.709484,206.108043 145.834333,206.097639 145.959184,206.076831 C146.084034,206.056022 146.219287,206.02481 146.364946,205.983193 L146.364946,209.791116 Z M138.842737,191.906363 C138.197676,192.593041 137.360149,193.15486 136.330132,193.591837 C135.300115,194.028814 134.197285,194.424168 133.021609,194.777911 C131.845932,195.131654 130.665072,195.474988 129.478992,195.807923 C128.292911,196.140858 127.216091,196.536212 126.248499,196.993998 C125.280908,197.451783 124.495401,198.0084 123.891957,198.663866 C123.288512,199.319331 122.986795,200.146454 122.986795,201.145258 C122.986795,202.04002 123.142856,202.799517 123.454982,203.42377 C123.767108,204.048022 124.172867,204.563023 124.672269,204.968788 C125.171671,205.374552 125.743894,205.671067 126.388956,205.858343 C127.034017,206.045619 127.689472,206.139256 128.355342,206.139256 C130.269717,206.139256 132.14765,205.556628 133.989196,204.391357 C135.830742,203.226085 137.448572,201.436587 138.842737,199.022809 L138.842737,191.906363 Z M152.82593,177.767107 L157.445378,177.767107 L157.258103,183.042017 C158.236099,181.314917 159.385748,179.998804 160.707083,179.093637 C162.028418,178.188471 163.573421,177.735894 165.342137,177.735894 C165.487796,177.735894 165.690675,177.741096 165.95078,177.751501 C166.210886,177.761905 166.481391,177.782713 166.762305,177.813926 C167.043219,177.845138 167.313724,177.886754 167.57383,177.938776 C167.833935,177.990797 168.036814,178.048019 168.182473,178.110444 L168.182473,182.823529 C167.703879,182.657062 167.162868,182.527011 166.559424,182.433373 C165.955979,182.339735 165.508605,182.292917 165.217287,182.292917 C163.98959,182.292917 162.897164,182.521806 161.939976,182.979592 C160.982788,183.437377 160.171272,184.056419 159.505402,184.836735 C158.839532,185.617051 158.329734,186.5118 157.97599,187.521008 C157.622247,188.530217 157.445378,189.586229 157.445378,190.689076 L157.445378,209.541417 L152.82593,209.541417 L152.82593,177.767107 Z" id="Jar1" fill="#FFFFFF"></path>
    </g>
</svg>