<svg xmlns="http://www.w3.org/2000/svg" xmlns:xlink="http://www.w3.org/1999/xlink" width="256" height="256" viewBox="0 0 256 256">
  <defs>
    <linearGradient id="application-x-php-c" x1="50%" x2="50%" y1="0%" y2="100%">
      <stop offset="0%" stop-color="#647FC8"/>
      <stop offset="100%" stop-color="#4554A1"/>
    </linearGradient>
    <path id="application-x-php-b" d="M116,0 L168,52 L168,190 C168,199.941125 159.941125,208 150,208 L18,208 C8.0588745,208 1.21743675e-15,199.941125 0,190 L0,18 C-1.21743675e-15,8.0588745 8.0588745,1.82615513e-15 18,0 L116,0 Z"/>
    <filter id="application-x-php-a" width="127.4%" height="122.1%" x="-13.7%" y="-9.1%" filterUnits="objectBoundingBox">
      <feOffset dy="4" in="SourceAlpha" result="shadowOffsetOuter1"/>
      <feGaussianBlur in="shadowOffsetOuter1" result="shadowBlurOuter1" stdDeviation="7"/>
      <feColorMatrix in="shadowBlurOuter1" values="0 0 0 0 0.149534536   0 0 0 0 0.271816956   0 0 0 0 0.918166893  0 0 0 0.5 0"/>
    </filter>
    <linearGradient id="application-x-php-f" x1="50%" x2="7.994%" y1="50%" y2="88.893%">
      <stop offset="0%" stop-color="#FFF" stop-opacity=".1"/>
      <stop offset="100%" stop-color="#FFF" stop-opacity=".3"/>
    </linearGradient>
    <path id="application-x-php-e" d="M116,0 L168,52 L134,52 C124.058875,52 116,43.9411255 116,34 L116,0 Z"/>
    <filter id="application-x-php-d" width="126.9%" height="126.9%" x="-13.5%" y="-9.6%" filterUnits="objectBoundingBox">
      <feOffset dy="2" in="SourceAlpha" result="shadowOffsetOuter1"/>
      <feGaussianBlur in="shadowOffsetOuter1" result="shadowBlurOuter1" stdDeviation="2"/>
      <feComposite in="shadowBlurOuter1" in2="SourceAlpha" operator="out" result="shadowBlurOuter1"/>
      <feColorMatrix in="shadowBlurOuter1" values="0 0 0 0 0   0 0 0 0 0   0 0 0 0 0  0 0 0 0.05 0"/>
    </filter>
  </defs>
  <g fill="none" fill-rule="evenodd">
    <g transform="translate(44 28)">
      <use fill="#000" filter="url(#application-x-php-a)" xlink:href="#application-x-php-b"/>
      <use fill="url(#application-x-php-c)" xlink:href="#application-x-php-b"/>
      <use fill="#000" filter="url(#application-x-php-d)" xlink:href="#application-x-php-e"/>
      <use fill="url(#application-x-php-f)" xlink:href="#application-x-php-e"/>
    </g>
    <path fill="#FFF" d="M108.334361,155.88236 L116.701302,113 L126.637037,113 L124.545304,124.117652 L133.958107,124.117652 C142.325045,124.647061 145.462648,128.882357 144.416779,134.176471 L140.756246,155.88236 L130.297572,155.88236 L133.958107,136.294117 C134.481044,133.647061 134.481044,132.058826 130.820509,132.058826 L122.9765,132.058826 L118.270099,155.88236 L108.334361,155.88236 L108.334361,155.88236 Z M66.2033923,167 L74.5703308,124.11764 L93.9188711,124.11764 C102.28581,124.647049 106.469277,128.882346 106.469277,136.294109 C106.469277,149.000001 96.5335367,156.411769 87.6436684,155.882357 L78.2308655,155.882357 L76.139125,167 L66.2033899,167 L66.2033923,167 Z M80.3225966,147.941185 L82.9372622,132.058826 L89.7354019,132.058826 C93.3959389,132.058826 96.0106046,133.647061 96.0106046,136.823531 C95.48767,145.823532 91.3042031,147.411779 86.5977993,147.941185 L80.3225966,147.941185 L80.3225966,147.941185 Z M146.281863,167 L154.648802,124.117652 L173.997342,124.117652 C182.364281,124.647061 186.547748,128.882357 186.547748,136.294117 C186.547748,149.000006 176.612008,156.411772 167.722139,155.88236 L158.309337,155.88236 L156.217596,167 L146.281861,167 L146.281863,167 Z M160.401068,147.941185 L163.015733,132.058826 L169.813873,132.058826 C173.47441,132.058826 176.089076,133.647061 176.089076,136.823531 C175.566141,145.823532 171.382674,147.411779 166.67627,147.941185 L160.401068,147.941185 L160.401068,147.941185 Z"/>
  </g>
</svg>
