<svg xmlns="http://www.w3.org/2000/svg" xmlns:xlink="http://www.w3.org/1999/xlink" width="256" height="256" viewBox="0 0 256 256">
  <defs>
    <linearGradient id="application-x-glabels-c" x1="50%" x2="50%" y1="0%" y2="99.372%">
      <stop offset="0%" stop-color="#FFBC2A"/>
      <stop offset="100%" stop-color="#E77B00"/>
    </linearGradient>
    <path id="application-x-glabels-b" d="M116,0 L168,52 L168,190 C168,199.941125 159.941125,208 150,208 L18,208 C8.0588745,208 1.21743675e-15,199.941125 0,190 L0,18 C-1.21743675e-15,8.0588745 8.0588745,1.82615513e-15 18,0 L116,0 Z"/>
    <filter id="application-x-glabels-a" width="127.4%" height="122.1%" x="-13.7%" y="-9.1%" filterUnits="objectBoundingBox">
      <feOffset dy="4" in="SourceAlpha" result="shadowOffsetOuter1"/>
      <feGaussianBlur in="shadowOffsetOuter1" result="shadowBlurOuter1" stdDeviation="7"/>
      <feColorMatrix in="shadowBlurOuter1" values="0 0 0 0 0.874509804   0 0 0 0 0.498039216   0 0 0 0 0.0588235294  0 0 0 0.5 0"/>
    </filter>
    <linearGradient id="application-x-glabels-f" x1="50%" x2="7.994%" y1="50%" y2="88.893%">
      <stop offset="0%" stop-color="#FFF" stop-opacity=".1"/>
      <stop offset="100%" stop-color="#FFF" stop-opacity=".3"/>
    </linearGradient>
    <path id="application-x-glabels-e" d="M116,0 L168,52 L134,52 C124.058875,52 116,43.9411255 116,34 L116,0 Z"/>
    <filter id="application-x-glabels-d" width="126.9%" height="126.9%" x="-13.5%" y="-9.6%" filterUnits="objectBoundingBox">
      <feOffset dy="2" in="SourceAlpha" result="shadowOffsetOuter1"/>
      <feGaussianBlur in="shadowOffsetOuter1" result="shadowBlurOuter1" stdDeviation="2"/>
      <feComposite in="shadowBlurOuter1" in2="SourceAlpha" operator="out" result="shadowBlurOuter1"/>
      <feColorMatrix in="shadowBlurOuter1" values="0 0 0 0 0   0 0 0 0 0   0 0 0 0 0  0 0 0 0.05 0"/>
    </filter>
  </defs>
  <g fill="none" fill-rule="evenodd">
    <g transform="translate(44 28)">
      <g opacity=".9">
        <use fill="#000" filter="url(#application-x-glabels-a)" xlink:href="#application-x-glabels-b"/>
        <use fill="url(#application-x-glabels-c)" xlink:href="#application-x-glabels-b"/>
      </g>
      <use fill="#000" filter="url(#application-x-glabels-d)" xlink:href="#application-x-glabels-e"/>
      <use fill="url(#application-x-glabels-f)" xlink:href="#application-x-glabels-e"/>
    </g>
    <path fill="#FFF" d="M122.274529,103.910712 L172.96314,154.269448 C174.103481,155.402369 174.103886,157.251976 172.962852,158.393009 L142.793011,188.562851 C141.644531,189.71133 139.810662,189.711826 138.669449,188.563138 L88.3107131,137.874527 C86.6851889,136.238355 85.2561808,132.76342 85.2561808,130.440556 L85.2561808,103.805136 C85.2561808,102.175373 86.5749233,100.856179 88.2051373,100.856179 L114.840558,100.856179 C117.167264,100.856179 120.63238,102.27925 122.274529,103.910712 Z M88.2051373,96.0561793 L114.840558,96.0561793 C118.432495,96.0561793 123.114438,97.9789819 125.657543,100.505537 L176.346154,150.864273 C179.373625,153.872042 179.374696,158.76939 176.356965,161.787122 L146.187124,191.956963 C143.162687,194.981399 138.28108,194.982719 135.264275,191.946152 L84.9055384,141.257542 C82.3854948,138.720991 80.4561808,134.029455 80.4561808,130.440556 L80.4561808,103.805136 C80.4561808,99.5247738 83.9235888,96.0561793 88.2051373,96.0561793 Z M102,124 C105.313708,124 108,121.313708 108,118 C108,114.686292 105.313708,112 102,112 C98.6862915,112 96,114.686292 96,118 C96,121.313708 98.6862915,124 102,124 Z"/>
  </g>
</svg>
