<svg xmlns="http://www.w3.org/2000/svg" xmlns:xlink="http://www.w3.org/1999/xlink" width="256" height="256" viewBox="0 0 256 256">
  <defs>
    <linearGradient id="image-gif-c" x1="50%" x2="50%" y1="0%" y2="100%">
      <stop offset="0%" stop-color="#28DCB1"/>
      <stop offset="100%" stop-color="#00AF9D"/>
    </linearGradient>
    <path id="image-gif-b" d="M116,0 L168,52 L168,190 C168,199.941125 159.941125,208 150,208 L18,208 C8.0588745,208 1.21743675e-15,199.941125 0,190 L0,18 C-1.21743675e-15,8.0588745 8.0588745,1.82615513e-15 18,0 L116,0 Z"/>
    <filter id="image-gif-a" width="127.4%" height="122.1%" x="-13.7%" y="-9.1%" filterUnits="objectBoundingBox">
      <feOffset dy="4" in="SourceAlpha" result="shadowOffsetOuter1"/>
      <feGaussianBlur in="shadowOffsetOuter1" result="shadowBlurOuter1" stdDeviation="7"/>
      <feColorMatrix in="shadowBlurOuter1" values="0 0 0 0 0.262745098   0 0 0 0 0.71372549   0 0 0 0 0.607843137  0 0 0 0.5 0"/>
    </filter>
    <linearGradient id="image-gif-f" x1="50%" x2="7.994%" y1="50%" y2="88.893%">
      <stop offset="0%" stop-color="#FFF" stop-opacity=".1"/>
      <stop offset="100%" stop-color="#FFF" stop-opacity=".3"/>
    </linearGradient>
    <path id="image-gif-e" d="M116,0 L168,52 L134,52 C124.058875,52 116,43.9411255 116,34 L116,0 Z"/>
    <filter id="image-gif-d" width="126.9%" height="126.9%" x="-13.5%" y="-9.6%" filterUnits="objectBoundingBox">
      <feOffset dy="2" in="SourceAlpha" result="shadowOffsetOuter1"/>
      <feGaussianBlur in="shadowOffsetOuter1" result="shadowBlurOuter1" stdDeviation="2"/>
      <feComposite in="shadowBlurOuter1" in2="SourceAlpha" operator="out" result="shadowBlurOuter1"/>
      <feColorMatrix in="shadowBlurOuter1" values="0 0 0 0 0   0 0 0 0 0   0 0 0 0 0  0 0 0 0.05 0"/>
    </filter>
  </defs>
  <g fill="none" fill-rule="evenodd">
    <g transform="translate(44 28)">
      <use fill="#000" filter="url(#image-gif-a)" xlink:href="#image-gif-b"/>
      <use fill="url(#image-gif-c)" xlink:href="#image-gif-b"/>
      <use fill="#000" filter="url(#image-gif-d)" xlink:href="#image-gif-e"/>
      <use fill="url(#image-gif-f)" xlink:href="#image-gif-e"/>
    </g>
    <path fill="#FFF" d="M136,180 L136,176 L156,176 L156,180 L140,180 L140,188 L152,188 L152,192 L140,192 L140,204 L136,204 L136,180 Z M83.8293333,164 L83.8293333,92 L171.829333,92 L171.829333,164 L83.8293333,164 Z M92,156.016 L118,104 L132,134 L140,118 L164,155.972447 L92,156.016 Z M88,160 L168,160 L167.504,96 L87.504,96 L88,160 Z M128,176 L132,176 L132,204 L128,204 L128,176 Z M120,201.038031 C119.734904,201.289587 116.767973,204 112,204 C105.365808,204 100,198.777205 100,192.310553 L100,187.689447 C100,181.223725 105.345637,176 112,176 C117.31095,176 121.809033,179.34712 123.392102,184 L119.074343,184 C117.733089,181.616862 115.071026,180 112,180 C107.557889,180 104,183.352579 104,187.524408 L104,192.475592 C104,196.644019 107.575576,200 112,200 C116.442111,200 120,196.647421 120,192.475592 L120,192.237796 L120,192 L122,192 L124,192 L124,204 L120,204 L120,201.038031 Z"/>
  </g>
</svg>
