<svg xmlns="http://www.w3.org/2000/svg" xmlns:xlink="http://www.w3.org/1999/xlink" width="256" height="256" viewBox="0 0 256 256">
  <defs>
    <linearGradient id="text-x-source-c" x1="50%" x2="50%" y1="0%" y2="99.203%">
      <stop offset="0%" stop-color="#619FFF"/>
      <stop offset="100%" stop-color="#0093E4"/>
    </linearGradient>
    <path id="text-x-source-b" d="M116,0 L168,52 L168,190 C168,199.941125 159.941125,208 150,208 L18,208 C8.0588745,208 1.21743675e-15,199.941125 0,190 L0,18 C-1.21743675e-15,8.0588745 8.0588745,1.82615513e-15 18,0 L116,0 Z"/>
    <filter id="text-x-source-a" width="127.4%" height="122.1%" x="-13.7%" y="-9.1%" filterUnits="objectBoundingBox">
      <feOffset dy="4" in="SourceAlpha" result="shadowOffsetOuter1"/>
      <feGaussianBlur in="shadowOffsetOuter1" result="shadowBlurOuter1" stdDeviation="7"/>
      <feColorMatrix in="shadowBlurOuter1" values="0 0 0 0 0.0156862745   0 0 0 0 0.580392157   0 0 0 0 0.898039216  0 0 0 0.5 0"/>
    </filter>
    <linearGradient id="text-x-source-f" x1="50%" x2="7.994%" y1="50%" y2="88.893%">
      <stop offset="0%" stop-color="#FFF" stop-opacity=".1"/>
      <stop offset="100%" stop-color="#FFF" stop-opacity=".3"/>
    </linearGradient>
    <path id="text-x-source-e" d="M116,0 L168,52 L134,52 C124.058875,52 116,43.9411255 116,34 L116,0 Z"/>
    <filter id="text-x-source-d" width="126.9%" height="126.9%" x="-13.5%" y="-9.6%" filterUnits="objectBoundingBox">
      <feOffset dy="2" in="SourceAlpha" result="shadowOffsetOuter1"/>
      <feGaussianBlur in="shadowOffsetOuter1" result="shadowBlurOuter1" stdDeviation="2"/>
      <feComposite in="shadowBlurOuter1" in2="SourceAlpha" operator="out" result="shadowBlurOuter1"/>
      <feColorMatrix in="shadowBlurOuter1" values="0 0 0 0 0   0 0 0 0 0   0 0 0 0 0  0 0 0 0.05 0"/>
    </filter>
  </defs>
  <g fill="none" fill-rule="evenodd">
    <g transform="translate(44 28)">
      <use fill="#000" filter="url(#text-x-source-a)" xlink:href="#text-x-source-b"/>
      <use fill="url(#text-x-source-c)" xlink:href="#text-x-source-b"/>
      <use fill="#000" filter="url(#text-x-source-d)" xlink:href="#text-x-source-e"/>
      <use fill="url(#text-x-source-f)" xlink:href="#text-x-source-e"/>
    </g>
    <path fill="#FFF" d="M88,100 L88,104 L68,104 L68,100 L88,100 Z M128,100 L128,104 L104,104 L104,100 L128,100 Z M188,100 L188,104 L168,104 L168,100 L188,100 Z M136,160 L136,164 L128,164 L128,160 L136,160 Z M112,120 L112,124 L84,124 L84,120 L112,120 Z M156,120 L156,124 L128,124 L128,120 L156,120 Z M188,140 L188,144 L156,144 L156,140 L188,140 Z M140,140 L140,144 L112,144 L112,140 L140,140 Z M80,120 L80,124 L68,124 L68,120 L80,120 Z M100,100 L100,104 L92,104 L92,100 L100,100 Z M124,120 L124,124 L116,124 L116,120 L124,120 Z M188,160 L188,164 L152,164 L152,160 L188,160 Z M148,160 L148,164 L140,164 L140,160 L148,160 Z M152,140 L152,144 L144,144 L144,140 L152,140 Z M108,140 L108,144 L100,144 L100,140 L108,140 Z M96,140 L96,144 L68,144 L68,140 L96,140 Z M124,160 L124,164 L68,164 L68,160 L124,160 Z M172,120 L172,124 L160,124 L160,120 L172,120 Z M188,120 L188,124 L176,124 L176,120 L188,120 Z M112,180 L112,184 L84,184 L84,180 L112,180 Z M156,180 L156,184 L128,184 L128,180 L156,180 Z M80,180 L80,184 L68,184 L68,180 L80,180 Z M124,180 L124,184 L116,184 L116,180 L124,180 Z M172,180 L172,184 L160,184 L160,180 L172,180 Z M188,180 L188,184 L176,184 L176,180 L188,180 Z M140,100 L140,104 L132,104 L132,100 L140,100 Z M152,100 L152,104 L144,104 L144,100 L152,100 Z M164,100 L164,104 L156,104 L156,100 L164,100 Z"/>
  </g>
</svg>
