<?xml version="1.0" encoding="UTF-8"?>
<svg width="16px" height="16px" viewBox="0 0 16 16" version="1.1" xmlns="http://www.w3.org/2000/svg" xmlns:xlink="http://www.w3.org/1999/xlink">
    <!-- Generator: Sketch 41.2 (35397) - http://www.bohemiancoding.com/sketch -->
    <title>network-offline-symbolic</title>
    <desc>Created with Sketch.</desc>
    <defs></defs>
    <g id="Page-1" stroke="none" stroke-width="1" fill="none" fill-rule="evenodd">
        <g id="network-offline-symbolic">
            <polygon id="Fill-64" opacity="0" points="0 16 16 16 16 0 0 0"></polygon>
            <path d="M6.382,7.5499 C6.191,7.5769 6.01,7.6699 5.879,7.8099 L4.689,8.9979 C4.528,9.1529 4.432,9.3709 4.428,9.5929 L4.428,10.7799 L4.428,10.7989 L2.199,12.9989 C1.966,13.2319 1.966,13.6199 2.199,13.8529 C2.434,14.0849 2.822,14.0849 3.056,13.8529 L5.283,11.6349 L6.475,11.6349 C6.696,11.6289 6.915,11.5339 7.07,11.3739 L8.26,10.1859 C8.567,9.8709 8.567,9.3119 8.26,8.9979 L7.07,7.8099 C6.894,7.6279 6.634,7.5289 6.382,7.5499" id="Fill-275" fill="#FFFFFF"></path>
            <path d="M9.6681,8.5036 C9.8581,8.4776 10.0381,8.3836 10.1711,8.2436 L11.3601,7.0566 C11.5221,6.9006 11.6171,6.6836 11.6211,6.4616 L11.6211,5.2736 L11.6211,5.2556 L13.8491,3.0546 C14.0831,2.8226 14.0831,2.4336 13.8491,2.2006 C13.6161,1.9686 13.2271,1.9686 12.9931,2.2006 L10.7651,4.4186 L9.5751,4.4186 C9.3531,4.4246 9.1341,4.5206 8.9791,4.6806 L7.7881,5.8676 C7.4821,6.1826 7.4821,6.7416 7.7881,7.0566 L8.9791,8.2436 C9.1551,8.4266 9.4151,8.5246 9.6681,8.5036" id="Fill-276" fill="#FFFFFF"></path>
            <path d="M11.5191,14.0261 L11.5191,14.0261 C11.2431,14.0261 11.0191,13.8021 11.0191,13.5261 L11.0191,13.5261 C11.0191,13.2501 11.2431,13.0261 11.5191,13.0261 C11.7951,13.0261 12.0191,13.2501 12.0191,13.5261 L12.0191,13.5261 C12.0191,13.8021 11.7951,14.0261 11.5191,14.0261" id="Fill-277" fill="#FFFFFF"></path>
            <path d="M11.567,12.0065 L11.433,12.0065 C11.194,12.0065 11,11.8125 11,11.5735 L11,9.4395 C11,9.2005 11.194,9.0065 11.433,9.0065 L11.567,9.0065 C11.806,9.0065 12,9.2005 12,9.4395 L12,11.5735 C12,11.8125 11.806,12.0065 11.567,12.0065" id="Fill-278" fill="#FFFFFF"></path>
        </g>
    </g>
</svg>