<?xml version="1.0" encoding="UTF-8"?>
<svg width="16px" height="16px" viewBox="0 0 16 16" version="1.1" xmlns="http://www.w3.org/2000/svg" xmlns:xlink="http://www.w3.org/1999/xlink">
    <!-- Generator: Sketch 47.1 (45422) - http://www.bohemiancoding.com/sketch -->
    <title>wireless-60-symbolic</title>
    <desc>Created with Sketch.</desc>
    <defs></defs>
    <g id="Page-1" stroke="none" stroke-width="1" fill="none" fill-rule="evenodd">
        <g id="wireless-60-symbolic">
            <g id="Group-2">
                <polygon id="Fill-114" opacity="0" points="0 16 16 16 16 0 0 0"></polygon>
                <path d="M1.0269,6.579 C2.8119,4.678 5.2759,3.5 7.9929,3.5 C10.7109,3.5 13.1749,4.678 14.9589,6.579" id="Stroke-154" stroke="#FFFFFF" stroke-width="1.2" opacity="0.3" stroke-linecap="round"></path>
                <path d="M3.0172,8.6991 C4.2922,7.3411 6.0522,6.5001 7.9932,6.5001 C9.9342,6.5001 11.6942,7.3411 12.9692,8.6991" id="Stroke-156" stroke="#FFFFFF" stroke-width="1.2" stroke-linecap="round"></path>
                <path d="M5.0064,10.818 C5.7704,10.004 6.8264,9.5 7.9934,9.5 C9.1594,9.5 10.2154,10.004 10.9804,10.818" id="Stroke-158" stroke="#FFFFFF" stroke-width="1.2" stroke-linecap="round"></path>
                <path d="M6.6614,12.5691 L8.0004,13.9961 L9.3374,12.5711 C9.3374,12.5711 9.3244,12.5651 9.3164,12.5561 C8.5834,11.7751 7.3254,11.8621 6.6614,12.5691" id="Fill-160" fill="#FFFFFF"></path>
            </g>
        </g>
    </g>
</svg>