<?xml version="1.0" encoding="UTF-8"?>
<svg width="48px" height="48px" viewBox="0 0 48 48" version="1.1" xmlns="http://www.w3.org/2000/svg" xmlns:xlink="http://www.w3.org/1999/xlink">
    <!-- Generator: Sketch 41.2 (35397) - http://www.bohemiancoding.com/sketch -->
    <title>application-pgp-keys</title>
    <desc>Created with Sketch.</desc>
    <defs>
        <linearGradient x1="90.7002767%" y1="6.56534831%" x2="35.3271484%" y2="64.1438802%" id="linearGradient-1">
            <stop stop-color="#93DEF2" offset="0%"></stop>
            <stop stop-color="#5ABADF" offset="100%"></stop>
        </linearGradient>
    </defs>
    <g id="Page-1" stroke="none" stroke-width="1" fill="none" fill-rule="evenodd">
        <g id="application-pgp-keys">
            <path d="M5,7.99765987 C5,6.34209804 6.34419539,5 7.99761025,5 L31.020752,5 L43,17.0198975 L43,39.9943718 C43,41.6543344 41.6475599,43 40.0023401,43 L7.99765987,43 C6.34209804,43 5,41.6475599 5,40.0023401 L5,7.99765987 Z" id="Rectangle-219" fill="#5ABADF"></path>
            <path d="M31,5 L43,17 L43,7.99715203 C43,6.34187067 41.6583772,5 40.002848,5 L31,5 Z" id="Path-406" fill="url(#linearGradient-1)" transform="translate(37.000000, 11.000000) rotate(180.000000) translate(-37.000000, -11.000000) "></path>
            <path d="M24,30.4793294 C24.7766954,30.4793294 25.4063314,29.8496934 25.4063314,29.072998 C25.4063314,28.2963027 24.7766954,27.6666667 24,27.6666667 C23.2233046,27.6666667 22.5936686,28.2963027 22.5936686,29.072998 C22.5936686,29.8496934 23.2233046,30.4793294 24,30.4793294 Z M24,33.4793294 C21.5664504,33.4793294 19.5936686,31.5065477 19.5936686,29.072998 C19.5936686,26.6394484 21.5664504,24.6666667 24,24.6666667 C26.4335496,24.6666667 28.4063314,26.6394484 28.4063314,29.072998 C28.4063314,31.5065477 26.4335496,33.4793294 24,33.4793294 Z" id="Oval-292" fill="#FFFFFF"></path>
            <path d="M25.6666667,19.6666667 L25.6666667,25.3311663 C25.6666667,25.8846479 25.2171185,26.3333333 24.6665568,26.3333333 L23.3334432,26.3333333 C22.7810978,26.3333333 22.3333333,25.8897095 22.3333333,25.3311663 L22.3333333,14.0021671 C22.3333333,13.4486855 22.7828815,13 23.3334432,13 L24.6665568,13 C25.2189022,13 25.6666667,13.4436239 25.6666667,14.0021671 L25.6666667,14.6666667 L27.3308922,14.6666667 C27.7924777,14.6666667 28.1666667,15.036554 28.1666667,15.5 C28.1666667,15.9602373 27.7839254,16.3333333 27.3308922,16.3333333 L25.6666667,16.3333333 L25.6666667,18 L27.3308922,18 C27.7924777,18 28.1666667,18.3698874 28.1666667,18.8333333 C28.1666667,19.2935706 27.7839254,19.6666667 27.3308922,19.6666667 L25.6666667,19.6666667 Z" id="Combined-Shape" fill="#FFFFFF"></path>
        </g>
    </g>
</svg>