<?xml version="1.0" encoding="UTF-8"?>
<svg width="48px" height="48px" viewBox="0 0 48 48" version="1.1" xmlns="http://www.w3.org/2000/svg" xmlns:xlink="http://www.w3.org/1999/xlink">
    <!-- Generator: Sketch 41.2 (35397) - http://www.bohemiancoding.com/sketch -->
    <title>application-x-executable</title>
    <desc>Created with Sketch.</desc>
    <defs>
        <linearGradient x1="90.7002767%" y1="6.56534831%" x2="35.3271484%" y2="64.1438802%" id="linearGradient-1">
            <stop stop-color="#93DEF2" offset="0%"></stop>
            <stop stop-color="#5ABADF" offset="100%"></stop>
        </linearGradient>
    </defs>
    <g id="Page-1" stroke="none" stroke-width="1" fill="none" fill-rule="evenodd">
        <g id="application-x-executable">
            <path d="M5,7.99765987 C5,6.34209804 6.34324319,5 8.0081984,5 L31.0023193,5 L43,17.0091553 L43,39.9931291 C43,41.653778 41.6475599,43 40.0023401,43 L7.99765987,43 C6.34209804,43 5,41.6475599 5,40.0023401 L5,7.99765987 Z" id="Rectangle-219" fill="#5ABADF"></path>
            <path d="M30.9587402,5.01269531 L42.9587402,17.0126953 L42.9587402,8.00984734 C42.9587402,6.35456598 41.6171175,5.01269531 39.9615882,5.01269531 L30.9587402,5.01269531 Z" id="Path-406" fill="url(#linearGradient-1)" transform="translate(36.958740, 11.012695) rotate(180.000000) translate(-36.958740, -11.012695) "></path>
            <path d="M23.2413793,30.3103448 C23.2413793,30.5198321 23.4037507,30.6896552 23.6242434,30.6896552 L24.3757566,30.6896552 C24.5872066,30.6896552 24.7586207,30.5137055 24.7586207,30.3103448 C24.7586207,30.1008575 24.5962493,29.9310345 24.3757566,29.9310345 L23.6242434,29.9310345 C23.4127934,29.9310345 23.2413793,30.1069841 23.2413793,30.3103448 Z M23.6206897,29.9310345 L24.3793103,29.9310345 L24.3793103,26.5172414 L23.6206897,26.5172414 L23.6206897,29.9310345 Z M23.2413793,19.6896552 C23.2413793,19.4801679 23.4037507,19.3103448 23.6242434,19.3103448 L24.3757566,19.3103448 C24.5872066,19.3103448 24.7586207,19.4862945 24.7586207,19.6896552 C24.7586207,19.8991425 24.5962493,20.0689655 24.3757566,20.0689655 L23.6242434,20.0689655 C23.4127934,20.0689655 23.2413793,19.8930159 23.2413793,19.6896552 Z M23.6206897,20.0689655 L24.3793103,20.0689655 L24.3793103,23.4827586 L23.6206897,23.4827586 L23.6206897,20.0689655 Z" id="Combined-Shape" fill="#FFFFFF"></path>
            <path d="M18.6896552,25.7586207 C18.4801679,25.7586207 18.3103448,25.5962493 18.3103448,25.3757566 L18.3103448,24.6242434 C18.3103448,24.4127934 18.4862945,24.2413793 18.6896552,24.2413793 C18.8991425,24.2413793 19.0689655,24.4037507 19.0689655,24.6242434 L19.0689655,25.3757566 C19.0689655,25.5872066 18.8930159,25.7586207 18.6896552,25.7586207 Z M19.0689655,25.3793103 L19.0689655,24.6206897 L22.4827586,24.6206897 L22.4827586,25.3793103 L19.0689655,25.3793103 Z M29.3103448,25.7586207 C29.5198321,25.7586207 29.6896552,25.5962493 29.6896552,25.3757566 L29.6896552,24.6242434 C29.6896552,24.4127934 29.5137055,24.2413793 29.3103448,24.2413793 C29.1008575,24.2413793 28.9310345,24.4037507 28.9310345,24.6242434 L28.9310345,25.3757566 C28.9310345,25.5872066 29.1069841,25.7586207 29.3103448,25.7586207 Z M28.9310345,25.3793103 L28.9310345,24.6206897 L25.5172414,24.6206897 L25.5172414,25.3793103 L28.9310345,25.3793103 Z" id="Combined-Shape" fill="#FFFFFF"></path>
            <path d="M19.7164888,21.7893404 C19.5683589,21.6412105 19.5630898,21.4063136 19.7190016,21.2504018 L20.2504018,20.7190016 C20.3999195,20.5694839 20.6455427,20.572691 20.7893404,20.7164888 C20.9374704,20.8646187 20.9427394,21.0995156 20.7868276,21.2554275 L20.2554275,21.7868276 C20.1059098,21.9363453 19.8602865,21.9331382 19.7164888,21.7893404 Z M20.2529146,21.7893404 L20.7893404,21.2529146 L23.2032567,23.6668309 L22.6668309,24.2032567 L20.2529146,21.7893404 Z M27.2264505,29.2993021 C27.3745804,29.447432 27.6094773,29.4527011 27.7653891,29.2967893 L28.2967893,28.7653891 C28.446307,28.6158714 28.4430999,28.3702482 28.2993021,28.2264505 C28.1511722,28.0783206 27.9162753,28.0730515 27.7603634,28.2289633 L27.2289633,28.7603634 C27.0794456,28.9098811 27.0826527,29.1555044 27.2264505,29.2993021 Z M27.2264505,28.7628763 L27.7628763,28.2264505 L25.34896,25.8125342 L24.8125342,26.34896 L27.2264505,28.7628763 Z" id="Combined-Shape" fill="#FFFFFF"></path>
            <path d="M28.2993021,21.7893404 C28.447432,21.6412105 28.4527011,21.4063136 28.2967893,21.2504018 L27.7653891,20.7190016 C27.6158714,20.5694839 27.3702482,20.572691 27.2264505,20.7164888 C27.0783206,20.8646187 27.0730515,21.0995156 27.2289633,21.2554275 L27.7603634,21.7868276 C27.9098811,21.9363453 28.1555044,21.9331382 28.2993021,21.7893404 Z M27.7628763,21.7893404 L27.2264505,21.2529146 L24.8125342,23.6668309 L25.34896,24.2032567 L27.7628763,21.7893404 Z M20.7893404,29.2993021 C20.6412105,29.447432 20.4063136,29.4527011 20.2504018,29.2967893 L19.7190016,28.7653891 C19.5694839,28.6158714 19.572691,28.3702482 19.7164888,28.2264505 C19.8646187,28.0783206 20.0995156,28.0730515 20.2554275,28.2289633 L20.7868276,28.7603634 C20.9363453,28.9098811 20.9331382,29.1555044 20.7893404,29.2993021 Z M20.7893404,28.7628763 L20.2529146,28.2264505 L22.6668309,25.8125342 L23.2032567,26.34896 L20.7893404,28.7628763 Z" id="Combined-Shape" fill="#FFFFFF"></path>
            <circle id="Oval-87" fill="#FFFFFF" cx="24" cy="25" r="1.89655172"></circle>
            <path d="M24,17.7931034 C27.9802591,17.7931034 31.2068966,21.0197409 31.2068966,25 C31.2068966,28.9802591 27.9802591,32.2068966 24,32.2068966 C20.0197409,32.2068966 16.7931034,28.9802591 16.7931034,25 C16.7931034,21.0197409 20.0197409,17.7931034 24,17.7931034 Z M24,19.6896552 C26.9328225,19.6896552 29.3103448,22.0671775 29.3103448,25 C29.3103448,27.9328225 26.9328225,30.3103448 24,30.3103448 C21.0671775,30.3103448 18.6896552,27.9328225 18.6896552,25 C18.6896552,22.0671775 21.0671775,19.6896552 24,19.6896552 Z" id="Combined-Shape" fill="#FFFFFF"></path>
            <path d="M24.5164978,32.9365782 C24.6757331,32.8889809 24.783558,32.7446091 24.783558,32.5738977 C24.783558,32.370537 24.612144,32.1945873 24.400694,32.1945873 L23.6491807,32.1945873 C23.4286881,32.1945873 23.2663167,32.3644104 23.2663167,32.5738977 C23.2663167,32.7385362 23.3786673,32.8852086 23.533655,32.9350956 C23.3570561,33.5387914 23.0546374,34.7351518 23.2663167,35.2290701 C23.5551108,35.902923 24.4953517,35.9015517 24.783558,35.2290701 C24.9946588,34.7365016 24.6930109,33.5410012 24.5164978,32.9365782 L24.5164978,32.9365782 Z M23.5084396,17.0511126 C23.3492042,17.0987099 23.2413793,17.2430817 23.2413793,17.4137931 C23.2413793,17.6171538 23.4127934,17.7931034 23.6242434,17.7931034 L24.3757566,17.7931034 C24.5962493,17.7931034 24.7586207,17.6232804 24.7586207,17.4137931 C24.7586207,17.2491545 24.6462701,17.1024822 24.4912823,17.0525952 C24.6678812,16.4488994 24.9702999,15.252539 24.7586207,14.7586207 C24.4698266,14.0847678 23.5295857,14.0861391 23.2413793,14.7586207 C23.0302785,15.2511892 23.3319265,16.4466896 23.5084396,17.0511126 L23.5084396,17.0511126 Z" id="Combined-Shape" fill="#FFFFFF"></path>
            <path d="M18.7525109,30.966608 C18.8987636,31.045548 19.0770936,31.0197055 19.1978048,30.8989943 C19.3416026,30.7551965 19.3448097,30.5095733 19.195292,30.3600556 L18.6638918,29.8286555 C18.50798,29.6727436 18.2730831,29.6780127 18.1249532,29.8261426 C18.0085361,29.9425597 17.984267,30.1257166 18.0585845,30.2705849 C17.5068328,30.572588 16.4470359,31.2047002 16.2474627,31.703633 C15.9751851,32.3843272 16.6410054,33.0482083 17.3203144,32.7764847 C17.8178838,32.577457 18.4499329,31.5188132 18.7525109,30.966608 L18.7525109,30.966608 Z M29.2724265,19.0210827 C29.1261738,18.9421428 28.9478437,18.9679853 28.8271325,19.0886965 C28.6833348,19.2324942 28.6801277,19.4781175 28.8296454,19.6276352 L29.3610455,20.1590353 C29.5169574,20.3149472 29.7518543,20.3096781 29.8999842,20.1615482 C30.0164012,20.0451311 30.0406704,19.8619742 29.9663529,19.7171059 C30.5181046,19.4151028 31.5779015,18.7829905 31.7774746,18.2840577 C32.0497523,17.6033635 31.3839319,16.9394825 30.704623,17.2112061 C30.2070536,17.4102338 29.5750045,18.4688776 29.2724265,19.0210827 L29.2724265,19.0210827 Z" id="Combined-Shape" fill="#FFFFFF"></path>
            <path d="M16.0751104,25.5115932 C16.1227077,25.6708285 16.2670795,25.7786534 16.4377909,25.7786534 C16.6411516,25.7786534 16.8171013,25.6072393 16.8171013,25.3957893 L16.8171013,24.6442761 C16.8171013,24.4237834 16.6472782,24.261412 16.4377909,24.261412 C16.2731524,24.261412 16.12648,24.3737626 16.076593,24.5287504 C15.4728972,24.3521515 14.2765368,24.0497328 13.7826185,24.261412 C13.1087656,24.5502061 13.1101369,25.490447 13.7826185,25.7786534 C14.275187,25.9897542 15.4706874,25.6881062 16.0751104,25.5115932 L16.0751104,25.5115932 Z M31.960576,24.5035349 C31.9129787,24.3442996 31.7686069,24.2364747 31.5978955,24.2364747 C31.3945348,24.2364747 31.2185851,24.4078887 31.2185851,24.6193387 L31.2185851,25.370852 C31.2185851,25.5913446 31.3884082,25.753716 31.5978955,25.753716 C31.762534,25.753716 31.9092064,25.6413654 31.9590934,25.4863777 C32.5627892,25.6629766 33.7591496,25.9653953 34.2530679,25.753716 C34.9269208,25.464922 34.9255495,24.5246811 34.2530679,24.2364747 C33.7604994,24.0253739 32.564999,24.3270219 31.960576,24.5035349 L31.960576,24.5035349 Z" id="Combined-Shape" fill="#FFFFFF"></path>
            <path d="M29.9414122,30.2962079 C30.0203522,30.1499552 29.9945097,29.9716252 29.8737985,29.850914 C29.7300007,29.7071162 29.4843775,29.7039091 29.3348598,29.8534268 L28.8034596,30.384827 C28.6475478,30.5407388 28.6528169,30.7756357 28.8009468,30.9237656 C28.9173638,31.0401827 29.1005207,31.0644518 29.245389,30.9901343 C29.5473921,31.541886 30.1795044,32.6016829 30.6784372,32.8012561 C31.3591314,33.0735337 32.0230125,32.4077134 31.7512889,31.7284044 C31.5522611,31.230835 30.4936174,30.5987859 29.9414122,30.2962079 L29.9414122,30.2962079 Z M17.9958869,19.7762923 C17.9169469,19.922545 17.9427895,20.1008751 18.0635007,20.2215863 C18.2072984,20.365384 18.4529216,20.3685911 18.6024394,20.2190734 L19.1338395,19.6876733 C19.2897513,19.5317614 19.2844822,19.2968645 19.1363523,19.1487346 C19.0199353,19.0323176 18.8367784,19.0080484 18.6919101,19.0823659 C18.389907,18.5306142 17.7577947,17.4708173 17.2588619,17.2712442 C16.5781677,16.9989665 15.9142867,17.6647869 16.1860102,18.3440959 C16.385038,18.8416652 17.4436818,19.4737143 17.9958869,19.7762923 L17.9958869,19.7762923 Z" id="Combined-Shape" fill="#FFFFFF"></path>
            <circle id="Oval-87" fill="#5ABADF" cx="24" cy="25" r="1.13793103"></circle>
        </g>
    </g>
</svg>