<?xml version="1.0" encoding="UTF-8"?>
<svg width="48px" height="48px" viewBox="0 0 48 48" version="1.1" xmlns="http://www.w3.org/2000/svg" xmlns:xlink="http://www.w3.org/1999/xlink">
    <!-- Generator: Sketch 41.2 (35397) - http://www.bohemiancoding.com/sketch -->
    <title>application-vnd.ms-wxcel</title>
    <desc>Created with Sketch.</desc>
    <defs>
        <linearGradient x1="90.7002767%" y1="6.56534831%" x2="35.3271484%" y2="64.1438802%" id="linearGradient-1">
            <stop stop-color="#93DEF2" offset="0%"></stop>
            <stop stop-color="#5ABADF" offset="100%"></stop>
        </linearGradient>
    </defs>
    <g id="Page-1" stroke="none" stroke-width="1" fill="none" fill-rule="evenodd">
        <g id="application-vnd.ms-wxcel">
            <path d="M5,7.99765987 C5,6.34209804 6.34419539,5 7.99761025,5 L31.020752,5 L43,17.0198975 L43,39.9943718 C43,41.6543344 41.6475599,43 40.0023401,43 L7.99765987,43 C6.34209804,43 5,41.6475599 5,40.0023401 L5,7.99765987 Z" id="Rectangle-219" fill="#5ABADF"></path>
            <path d="M31,5 L43,17 L43,7.99715203 C43,6.34187067 41.6583772,5 40.002848,5 L31,5 Z" id="Path-406" fill="url(#linearGradient-1)" transform="translate(37.000000, 11.000000) rotate(180.000000) translate(-37.000000, -11.000000) "></path>
            <path d="M13,18.8960538 C13,18.3444149 13.4474894,17.8637933 13.9985023,17.8226297 L25.0014977,17.0006466 C25.5529553,16.9594498 26,17.3649851 26,17.9209046 L26,30.0790823 C26,30.6285236 25.5525106,31.0405039 25.0014977,30.9993403 L13.9985023,30.1773572 C13.4470447,30.1361604 13,29.6538867 13,29.1039331 L13,18.8960538 Z" id="Rectangle-232" fill="#FFFFFF"></path>
            <path d="M21.828125,21.9599609 L18.5615234,21.9599609 L18.5615234,23.7177734 L21.5693359,23.7177734 C21.7906912,23.7177734 21.9558914,23.7674149 22.0649414,23.8666992 C22.1739914,23.9659836 22.2285156,24.0970044 22.2285156,24.2597656 C22.2285156,24.4225269 22.1748052,24.5551753 22.0673828,24.6577148 C21.9599604,24.7602544 21.7939464,24.8115234 21.5693359,24.8115234 L18.5615234,24.8115234 L18.5615234,26.8476562 L21.9404297,26.8476562 C22.1682954,26.8476562 22.3400059,26.9005529 22.4555664,27.0063477 C22.5711269,27.1121425 22.6289062,27.2529288 22.6289062,27.4287109 C22.6289062,27.5979826 22.5711269,27.7355138 22.4555664,27.8413086 C22.3400059,27.9471034 22.1682954,28 21.9404297,28 L18,28 C17.6842432,28 17.4571947,27.9300137 17.3188477,27.7900391 C17.1805006,27.6500644 17.1113281,27.4238297 17.1113281,27.1113281 L17.1113281,21.7304688 C17.1113281,21.5221344 17.1422523,21.3520514 17.2041016,21.2202148 C17.2659508,21.0883782 17.3627923,20.9923506 17.4946289,20.9321289 C17.6264655,20.8719073 17.7949208,20.8417969 18,20.8417969 L21.828125,20.8417969 C22.0592459,20.8417969 22.2309565,20.8930659 22.3432617,20.9956055 C22.455567,21.098145 22.5117188,21.232421 22.5117188,21.3984375 C22.5117188,21.5677092 22.455567,21.7036128 22.3432617,21.8061523 C22.2309565,21.9086919 22.0592459,21.9599609 21.828125,21.9599609 Z" id="W" fill="#5ABADF"></path>
            <path d="M32,19.0024733 C32,19.0034901 24.9984457,19 24.9984457,19 C24.9998954,19.0000186 25,28.9975267 25,28.9975267 C25,28.9965099 32.0015543,29 32.0015543,29 C32.0001046,28.9999814 32,19.0024733 32,19.0024733 Z M24,19.0024733 C24,18.4488226 24.4463114,18 24.9975446,18 L32.0024554,18 C32.553384,18 33,18.455761 33,19.0024733 L33,28.9975267 C33,29.5511774 32.5536886,30 32.0024554,30 L24.9975446,30 C24.446616,30 24,29.544239 24,28.9975267 L24,19.0024733 Z" id="Rectangle-233" fill="#FFFFFF"></path>
            <path d="M26,21.5 L31,21.5 C31.2761424,21.5 31.5,21.2761424 31.5,21 C31.5,20.7238576 31.2761424,20.5 31,20.5 L26,20.5 C25.7238576,20.5 25.5,20.7238576 25.5,21 C25.5,21.2761424 25.7238576,21.5 26,21.5 Z" id="Path-381" fill="#FFFFFF"></path>
            <path d="M26,24.5 L31,24.5 C31.2761424,24.5 31.5,24.2761424 31.5,24 C31.5,23.7238576 31.2761424,23.5 31,23.5 L26,23.5 C25.7238576,23.5 25.5,23.7238576 25.5,24 C25.5,24.2761424 25.7238576,24.5 26,24.5 Z" id="Path-381" fill="#FFFFFF"></path>
            <path d="M26,27.5 L31,27.5 C31.2761424,27.5 31.5,27.2761424 31.5,27 C31.5,26.7238576 31.2761424,26.5 31,26.5 L26,26.5 C25.7238576,26.5 25.5,26.7238576 25.5,27 C25.5,27.2761424 25.7238576,27.5 26,27.5 Z" id="Path-381" fill="#FFFFFF"></path>
        </g>
    </g>
</svg>