<?xml version="1.0" encoding="UTF-8"?>
<svg width="48px" height="48px" viewBox="0 0 48 48" version="1.1" xmlns="http://www.w3.org/2000/svg" xmlns:xlink="http://www.w3.org/1999/xlink">
    <!-- Generator: Sketch 41.2 (35397) - http://www.bohemiancoding.com/sketch -->
    <title>application-vnd.ms-poperpoint</title>
    <desc>Created with Sketch.</desc>
    <defs>
        <linearGradient x1="90.7002767%" y1="6.56534831%" x2="35.3271484%" y2="64.1438802%" id="linearGradient-1">
            <stop stop-color="#93DEF2" offset="0%"></stop>
            <stop stop-color="#5ABADF" offset="100%"></stop>
        </linearGradient>
    </defs>
    <g id="Page-1" stroke="none" stroke-width="1" fill="none" fill-rule="evenodd">
        <g id="application-vnd.ms-poperpoint">
            <path d="M5,7.99765987 C5,6.34209804 6.34419539,5 7.99761025,5 L31.020752,5 L43,17.0198975 L43,39.9943718 C43,41.6543344 41.6475599,43 40.0023401,43 L7.99765987,43 C6.34209804,43 5,41.6475599 5,40.0023401 L5,7.99765987 Z" id="Rectangle-219" fill="#5ABADF"></path>
            <path d="M31,5 L43,17 L43,7.99715203 C43,6.34187067 41.6583772,5 40.002848,5 L31,5 Z" id="Path-406" fill="url(#linearGradient-1)" transform="translate(37.000000, 11.000000) rotate(180.000000) translate(-37.000000, -11.000000) "></path>
            <path d="M25.7104492,26.5 L25.7104492,24.5 L30,24.5 C30.2761424,24.5 30.5,24.2761424 30.5,24 C30.5,23.7238576 30.2761424,23.5 30,23.5 L25.7104492,23.5 L25.7104492,21.5 L30,21.5 C30.2761424,21.5 30.5,21.2761424 30.5,21 C30.5,20.7238576 30.2761424,20.5 30,20.5 L25.7104492,20.5 L25.7104492,17.7173732 C25.7104492,17.1680265 25.2642182,16.7515701 24.7137644,16.7953686 L14.1392629,17.6367603 C13.5898753,17.6804739 13.1425781,18.1670198 13.1425781,18.7233013 L13.1425781,29.2766987 C13.1425781,29.8366384 13.5888091,30.3194412 14.1392629,30.3632397 L24.7137644,31.2046314 C25.263152,31.248345 25.7104492,30.8356343 25.7104492,30.2826268 L25.7104492,27.5 L30,27.5 C30.2761424,27.5 30.5,27.2761424 30.5,27 C30.5,26.7238576 30.2761424,26.5 30,26.5 L25.7104492,26.5 Z" id="Combined-Shape" fill="#FFFFFF"></path>
            <path d="M19.8896484,24.7709961 L18.5615234,24.7709961 L18.5615234,26.7973633 C18.5615234,27.0870783 18.4931647,27.3068026 18.3564453,27.456543 C18.2197259,27.6062833 18.0472016,27.6811523 17.8388672,27.6811523 C17.6207671,27.6811523 17.4449876,27.6070971 17.3115234,27.4589844 C17.1780592,27.3108717 17.1113281,27.0935887 17.1113281,26.8071289 L17.1113281,21.2895508 C17.1113281,20.9705388 17.1845696,20.7426765 17.3310547,20.605957 C17.4775398,20.4692376 17.7102849,20.4008789 18.0292969,20.4008789 L19.8896484,20.4008789 C20.4397814,20.4008789 20.8629542,20.4431962 21.1591797,20.527832 C21.4521499,20.6092126 21.7052398,20.7443024 21.918457,20.9331055 C22.1316742,21.1219085 22.2936192,21.353026 22.4042969,21.6264648 C22.5149745,21.8999037 22.5703125,22.2075178 22.5703125,22.5493164 C22.5703125,23.2784867 22.3457054,23.8310528 21.8964844,24.2070312 C21.4472634,24.5830097 20.7783248,24.7709961 19.8896484,24.7709961 Z M19.5380859,21.4897461 L18.5615234,21.4897461 L18.5615234,23.6772461 L19.5380859,23.6772461 C19.8798845,23.6772461 20.1655262,23.6414392 20.3950195,23.5698242 C20.6245129,23.4982093 20.7994786,23.3810229 20.9199219,23.2182617 C21.0403652,23.0555005 21.1005859,22.8422865 21.1005859,22.5786133 C21.1005859,22.2628565 21.0078134,22.0056976 20.8222656,21.8071289 C20.6139313,21.5955393 20.1858756,21.4897461 19.5380859,21.4897461 Z" id="W" fill="#5ABADF"></path>
            <path d="M32,19.0024733 C32,19.0034901 24.9984457,19 24.9984457,19 C24.9998954,19.0000186 25,28.9975267 25,28.9975267 C25,28.9965099 32.0015543,29 32.0015543,29 C32.0001046,28.9999814 32,19.0024733 32,19.0024733 Z M24,19.0024733 C24,18.4488226 24.4463114,18 24.9975446,18 L32.0024554,18 C32.553384,18 33,18.455761 33,19.0024733 L33,28.9975267 C33,29.5511774 32.5536886,30 32.0024554,30 L24.9975446,30 C24.446616,30 24,29.544239 24,28.9975267 L24,19.0024733 Z" id="Rectangle-233" fill="#FFFFFF"></path>
        </g>
    </g>
</svg>