<?xml version="1.0" encoding="UTF-8"?>
<svg width="48px" height="48px" viewBox="0 0 48 48" version="1.1" xmlns="http://www.w3.org/2000/svg" xmlns:xlink="http://www.w3.org/1999/xlink">
    <!-- Generator: Sketch 41.2 (35397) - http://www.bohemiancoding.com/sketch -->
    <title>audio-x-adpcm</title>
    <desc>Created with Sketch.</desc>
    <defs>
        <linearGradient x1="90.7002767%" y1="6.56534831%" x2="35.3271484%" y2="64.1438802%" id="linearGradient-1">
            <stop stop-color="#93DEF2" offset="0%"></stop>
            <stop stop-color="#5ABADF" offset="100%"></stop>
        </linearGradient>
    </defs>
    <g id="Page-1" stroke="none" stroke-width="1" fill="none" fill-rule="evenodd">
        <g id="audio-x-adpcm">
            <path d="M5,7.99765987 C5,6.34209804 6.34419539,5 7.99761025,5 L31.020752,5 L43,17.0198975 L43,39.9943718 C43,41.6543344 41.6475599,43 40.0023401,43 L7.99765987,43 C6.34209804,43 5,41.6475599 5,40.0023401 L5,7.99765987 Z" id="Rectangle-219" fill="#5ABADF"></path>
            <path d="M31,5 L43,17 L43,7.99715203 C43,6.34187067 41.6583772,5 40.002848,5 L31,5 Z" id="Path-406" fill="url(#linearGradient-1)" transform="translate(37.000000, 11.000000) rotate(180.000000) translate(-37.000000, -11.000000) "></path>
            <path d="M29.6523894,18.8665143 L29.6036414,17.9878624 L19.7090419,16.5972671 L20.1222822,21.8696696 C20.4501085,21.7103246 20.8084159,21.5318363 21.2107776,21.3285327 C21.4436561,21.2107483 21.4436561,21.2107483 21.6763123,21.0929936 C21.8617146,20.9992156 22.0035025,20.9277246 22.1415416,20.8585169 C22.4932137,20.6822014 22.7895959,20.5364091 23.0740368,20.400604 C25.618556,19.1857343 27.5868524,18.6536578 29.6523894,18.8665143 Z M29.7086332,19.8802723 L30.1352282,27.5693794 C29.2571001,27.3503553 28.1745347,27.5360594 27.2577324,27.6933283 C25.5328103,27.9892226 24.328304,29.2981047 24.5673921,30.6167982 C24.8064803,31.9354916 26.3986251,32.7646342 28.1235471,32.4687398 C29.8240076,32.1770416 32.0947236,31.7875214 31.744035,29.4889748 L31.2292478,20.2102595 C32.6049042,20.6489223 33.4273764,21.3753756 33.8267868,22.312731 C34.1351361,23.0363801 34.1678575,23.8209493 34.0353262,24.540844 C34.009445,24.6814279 33.9846515,24.7790607 33.9706277,24.8238081 C33.8880456,25.087313 34.0347124,25.3678719 34.2982173,25.450454 C34.5617221,25.5330362 34.8422811,25.3863693 34.9248632,25.1228645 C34.950498,25.0410684 34.9851924,24.9044471 35.0187991,24.7218995 C35.1838321,23.8254592 35.1431964,22.8511257 34.7467519,21.9207307 C34.1936097,20.6225902 33.0284514,19.6542982 31.1704746,19.1509088 L31.0488362,16.9584536 C31.037456,16.7533336 30.9446742,16.5720512 30.8035792,16.444216 C30.6496868,16.233042 30.4137172,16.082056 30.1345235,16.0428179 L19.3391853,14.525632 C19.1820469,14.5035477 19.0283131,14.5192653 18.8871766,14.5658577 C18.8576864,14.5646782 18.8278114,14.565224 18.7976596,14.5675873 C18.3847124,14.5999532 18.0761905,14.9609508 18.1085564,15.3738979 L18.6698308,22.5350211 C18.359354,22.6658557 18.059654,22.7833168 17.7486122,22.8966478 C15.8262785,23.5970675 14.7058482,22.977207 14.0527349,21.4404293 C13.8790355,21.0317142 13.7561162,20.5884601 13.6766948,20.1444164 C13.6291768,19.8787444 13.6070837,19.6751903 13.601026,19.5666195 C13.5856426,19.2909059 13.3496619,19.0798666 13.0739483,19.09525 C12.7982348,19.1106334 12.5871955,19.3466141 12.6025789,19.6223277 C12.6107595,19.7689471 12.6371371,20.0119759 12.6923163,20.3204818 C12.7840568,20.8334014 12.9265142,21.3471106 13.1324002,21.8315612 C13.9790976,23.8238429 15.6253307,24.7345956 18.0909549,23.8362229 C18.3150325,23.7545782 18.5328868,23.6711622 18.7519603,23.5828849 L18.8919082,25.3684365 C18.0216727,25.1659252 16.9595074,25.3481298 16.0577201,25.502823 C14.3327981,25.7987173 13.1282918,27.1075994 13.3673799,28.4262929 C13.6064681,29.7449863 15.1986129,30.5741289 16.9235349,30.2782345 C18.6097915,29.9889729 20.8568167,29.6035166 20.5522639,27.3556701 L20.2061002,22.9390765 C20.6334039,22.735869 21.1071568,22.5012931 21.6617543,22.2210684 C21.8954075,22.1028922 21.8954075,22.1028922 22.1276672,21.9853381 C22.3121052,21.8920479 22.4529292,21.8210429 22.58973,21.752456 C22.9360997,21.5787989 23.2269864,21.4357099 23.5048935,21.3030243 C25.9617083,20.1300287 27.7920592,19.6465941 29.7086332,19.8802723 Z" id="Combined-Shape" fill="#FFFFFF"></path>
        </g>
    </g>
</svg>