<?xml version="1.0" encoding="UTF-8"?>
<svg width="48px" height="48px" viewBox="0 0 48 48" version="1.1" xmlns="http://www.w3.org/2000/svg" xmlns:xlink="http://www.w3.org/1999/xlink">
    <!-- Generator: Sketch 41.2 (35397) - http://www.bohemiancoding.com/sketch -->
    <title>font_x_generic</title>
    <desc>Created with Sketch.</desc>
    <defs>
        <linearGradient x1="90.7002767%" y1="6.56534831%" x2="35.3271484%" y2="64.1438802%" id="linearGradient-1">
            <stop stop-color="#93DEF2" offset="0%"></stop>
            <stop stop-color="#5ABADF" offset="100%"></stop>
        </linearGradient>
    </defs>
    <g id="Page-1" stroke="none" stroke-width="1" fill="none" fill-rule="evenodd">
        <g id="font_x_generic">
            <path d="M5,7.99765987 C5,6.34209804 6.34324319,5 8.0081984,5 L31.0023193,5 L43,17.0091553 L43,39.9931291 C43,41.653778 41.6475599,43 40.0023401,43 L7.99765987,43 C6.34209804,43 5,41.6475599 5,40.0023401 L5,7.99765987 Z" id="Rectangle-219" fill="#5ABADF"></path>
            <path d="M31,5 L43,17 L43,7.99715203 C43,6.34187067 41.6583772,5 40.002848,5 L31,5 Z" id="Path-406" fill="url(#linearGradient-1)" transform="translate(37.000000, 11.000000) rotate(180.000000) translate(-37.000000, -11.000000) "></path>
            <path d="M20.136,26.4546562 C20.064,27.1746562 20.04,27.7986563 20.04,28.2786563 C20.064,29.6466562 20.448,30.2466563 20.928,30.4626563 C21.144,30.5586562 21.288,30.4866562 21.288,30.2466563 C21.336,28.9746562 21.48,27.6546563 21.648,26.4066562 C22.056,26.4306562 22.392,26.4786563 22.68,26.5506562 C22.896,26.6226562 22.992,26.5506562 22.944,26.3346563 C22.848,25.8306563 22.584,25.3506563 21.864,25.1106562 C22.32,22.4706563 22.992,20.0226562 23.616,18.1266562 C23.832,17.4786563 23.856,16.9506563 23.616,16.3746563 C23.376,15.7746562 23.304,15.7266562 23.064,15.3906562 C22.824,15.0546563 22.584,15.0546563 22.2,15.3666562 C19.656,17.4546562 16.32,22.2066563 14.448,25.4706563 C14.064,25.4466563 13.704,25.3986563 13.368,25.3506563 C13.008,25.3026562 12.96,25.3986563 13.08,25.7106562 C13.152,25.8786562 13.344,26.2386562 13.872,26.5266563 C13.584,27.0546563 13.368,27.5346562 13.224,27.8946563 C12.72,29.2386562 12.816,29.9586563 13.104,30.3426563 C13.224,30.5106563 13.44,30.5106563 13.536,30.2946562 C14.016,29.2386562 14.64,28.0626562 15.36,26.8386562 C16.488,26.8626563 18.432,26.5746563 20.136,26.4546562 Z M16.272,25.3986563 C18.096,22.5426563 20.28,19.6386563 22.104,17.5986562 C21.36,19.4706562 20.688,22.4946562 20.328,24.9906563 C19.2,25.0146563 17.736,25.2786563 16.272,25.3986563 Z M31.008,22.4226562 C31.056,21.4866562 30.576,20.6946563 29.544,20.6946563 C28.344,20.6946563 26.448,21.7746562 24.504,24.6066563 C22.512,27.5106562 22.968,30.5586562 25.2,30.5586562 C26.352,30.5586562 27.432,29.6706563 28.2,28.6866562 C28.2,29.8146562 28.872,30.5826562 30.168,30.6546563 C31.488,30.7266562 33,29.4066562 33.624,28.0866562 C33.936,27.4146563 33.936,26.8146562 33.84,26.5986562 C33.744,26.3826562 33.576,26.4066562 33.456,26.6226562 C32.616,28.2786562 31.296,29.9106562 30.312,29.9586562 C29.496,30.0066562 29.52,28.9746562 30.12,27.6306563 C30.696,26.3586562 31.896,24.5586562 32.424,23.4786563 C33,22.2786563 32.808,21.2466563 32.448,20.8146562 C32.28,20.5986562 32.088,20.6466562 31.872,20.9586563 C31.608,21.3426562 31.32,21.8466563 31.008,22.4226562 Z M28.92,26.1426563 C27.696,28.2546563 26.448,29.7906562 25.464,29.7666563 C24.528,29.7426562 24.84,27.6306563 26.112,25.5666563 C27.432,23.4306562 29.184,21.8706562 29.952,21.9426562 C30.648,22.0146563 30.432,23.5026563 28.92,26.1426563 Z" id="-Aa" fill="#FFFFFF"></path>
        </g>
    </g>
</svg>