<?xml version="1.0" encoding="UTF-8"?>
<svg width="48px" height="48px" viewBox="0 0 48 48" version="1.1" xmlns="http://www.w3.org/2000/svg" xmlns:xlink="http://www.w3.org/1999/xlink">
    <!-- Generator: Sketch 41.2 (35397) - http://www.bohemiancoding.com/sketch -->
    <title>gnome-mime-application-x-python-bytecode</title>
    <desc>Created with Sketch.</desc>
    <defs>
        <linearGradient x1="90.7002767%" y1="6.56534831%" x2="35.3271484%" y2="64.1438802%" id="linearGradient-1">
            <stop stop-color="#93DEF2" offset="0%"></stop>
            <stop stop-color="#5ABADF" offset="100%"></stop>
        </linearGradient>
    </defs>
    <g id="Page-1" stroke="none" stroke-width="1" fill="none" fill-rule="evenodd">
        <g id="gnome-mime-application-x-python-bytecode">
            <path d="M5,7.99765987 C5,6.34209804 6.34312337,5 8.00793008,5 L31,5 L43,17 L43,39.9920699 C43,41.6533038 41.6475599,43 40.0023401,43 L7.99765987,43 C6.34209804,43 5,41.6475599 5,40.0023401 L5,7.99765987 Z" id="Rectangle-219" fill="#5ABADF"></path>
            <path d="M31,5 L43,17 L43,7.99715203 C43,6.34187067 41.6583772,5 40.002848,5 L31,5 Z" id="Path-406" fill="url(#linearGradient-1)" transform="translate(37.000000, 11.000000) rotate(180.000000) translate(-37.000000, -11.000000) "></path>
            <path d="M21.6301356,15.3885598 C22.810387,15.184562 24.323719,15.1590632 25.735156,15.3885598 C26.8500017,15.5700583 27.7884223,16.3890508 27.7884223,17.4765399 L27.7884223,21.2970013 C27.7884223,22.41749 26.8773797,23.3354807 25.735156,23.3354807 L22.0123108,23.5384322 C20.6191318,23.5384322 19.3125,24.4255138 19.3125,25.7500003 L19.3125,26.6623635 C19.3125,27.2157932 18.8585845,27.6644367 18.3078827,27.6644367 L17.6513537,27.6644368 C16.4574171,27.6644368 15.7623475,26.8154458 15.4703263,25.6274578 C15.0764035,24.0314739 15.0931333,23.0804837 15.4703263,21.5519987 C15.7973293,20.2185114 16.8422151,19.5150189 18.036151,19.5150189 L19.5768647,19.5150189 L19.5768647,17.4765403 C19.5768647,16.3185512 19.8917001,15.6885575 21.6301356,15.3885598 Z M22,19 C22.5522847,19 23,18.5522847 23,18 C23,17.4477153 22.5522847,17 22,17 C21.4477153,17 21,17.4477153 21,18 C21,18.5522847 21.4477153,19 22,19 Z M26.3394106,32.501736 C25.1591592,32.7057338 23.6458272,32.7312326 22.2343902,32.501736 C21.1195445,32.3202375 20.1811239,31.501245 20.1811239,30.4137559 L20.1811239,26.5932945 C20.1811239,25.4728058 21.0921665,24.5548151 22.2343902,24.5548151 L25.9572354,24.3518636 C27.3504144,24.3518636 28.6570462,23.464782 28.6570462,22.1402955 L28.6570462,21.2279323 C28.6570462,20.6745026 29.1109617,20.2258591 29.6616635,20.2258591 L30.3181925,20.225859 C31.5121291,20.225859 32.2071987,21.07485 32.4992199,22.262838 C32.8931427,23.8588219 32.8764129,24.8098121 32.4992199,26.3382971 C32.1722169,27.6717844 31.1273311,28.3752769 29.9333952,28.3752769 L28.3926815,28.3752769 L28.3926815,30.4137555 C28.3926815,31.5717446 28.0778461,32.2017383 26.3394106,32.501736 Z M25.9695462,28.8902958 C25.4172615,28.8902958 24.9695462,29.3380111 24.9695462,29.8902958 C24.9695462,30.4425806 25.4172615,30.8902958 25.9695462,30.8902958 C26.5218309,30.8902958 26.9695462,30.4425806 26.9695462,29.8902958 C26.9695462,29.3380111 26.5218309,28.8902958 25.9695462,28.8902958 Z" id="Combined-Shape" fill="#FFFFFF"></path>
        </g>
    </g>
</svg>