<?xml version="1.0" encoding="UTF-8"?>
<svg width="48px" height="48px" viewBox="0 0 48 48" version="1.1" xmlns="http://www.w3.org/2000/svg" xmlns:xlink="http://www.w3.org/1999/xlink">
    <!-- Generator: Sketch 41.2 (35397) - http://www.bohemiancoding.com/sketch -->
    <title>gnome-mime-application-x-rar</title>
    <desc>Created with Sketch.</desc>
    <defs>
        <linearGradient x1="90.7002767%" y1="6.56534831%" x2="35.3271484%" y2="64.1438802%" id="linearGradient-1">
            <stop stop-color="#93DEF2" offset="0%"></stop>
            <stop stop-color="#5ABADF" offset="100%"></stop>
        </linearGradient>
    </defs>
    <g id="Page-1" stroke="none" stroke-width="1" fill="none" fill-rule="evenodd">
        <g id="gnome-mime-application-x-rar">
            <path d="M5,7.99765987 C5,6.34209804 6.34312337,5 8.00793008,5 L31,5 L43,17 L43,39.9920699 C43,41.6533038 41.6475599,43 40.0023401,43 L7.99765987,43 C6.34209804,43 5,41.6475599 5,40.0023401 L5,7.99765987 Z" id="Rectangle-219" fill="#5ABADF"></path>
            <path d="M31,5 L43,17 L43,7.99715203 C43,6.34187067 41.6583772,5 40.002848,5 L31,5 Z" id="Path-406" fill="url(#linearGradient-1)" transform="translate(37.000000, 11.000000) rotate(180.000000) translate(-37.000000, -11.000000) "></path>
            <rect id="Rectangle-337" fill="#FFFFFF" x="23" y="29.5" width="14" height="8" rx="1"></rect>
            <path d="M25.0755005,33.6630859 L24.770813,33.6630859 L24.770813,35.0429688 C24.770813,35.2246103 24.7307743,35.358398 24.6506958,35.4443359 C24.5706173,35.5302739 24.4661261,35.5732422 24.3372192,35.5732422 C24.1985467,35.5732422 24.0911259,35.5283208 24.0149536,35.4384766 C23.9387814,35.3486324 23.9006958,35.2167977 23.9006958,35.0429688 L23.9006958,31.7382812 C23.9006958,31.5507803 23.9426876,31.4150395 24.0266724,31.3310547 C24.1106572,31.2470699 24.246398,31.2050781 24.4338989,31.2050781 L25.848938,31.2050781 C26.0442515,31.2050781 26.211242,31.2133788 26.3499146,31.2299805 C26.4885871,31.2465821 26.6135859,31.2802732 26.7249146,31.3310547 C26.8596808,31.3876956 26.9788203,31.4687495 27.0823364,31.5742188 C27.1858526,31.679688 27.2644651,31.8022454 27.3181763,31.9418945 C27.3718875,32.0815437 27.3987427,32.2294914 27.3987427,32.3857422 C27.3987427,32.7060563 27.3084115,32.9619131 27.1277466,33.1533203 C26.9470816,33.3447275 26.6731586,33.4804683 26.3059692,33.5605469 C26.4602669,33.6425785 26.6077263,33.7636711 26.7483521,33.9238281 C26.8889778,34.0839852 27.0144648,34.2543936 27.1248169,34.4350586 C27.235169,34.6157236 27.3211056,34.7788079 27.3826294,34.9243164 C27.4441531,35.0698249 27.4749146,35.1699216 27.4749146,35.2246094 C27.4749146,35.2812503 27.4568483,35.3374021 27.4207153,35.3930664 C27.3845823,35.4487307 27.3352664,35.4926756 27.2727661,35.5249023 C27.2102658,35.5571291 27.1380009,35.5732422 27.0559692,35.5732422 C26.9583125,35.5732422 26.8762821,35.5502932 26.8098755,35.5043945 C26.7434689,35.4584959 26.6863406,35.400391 26.6384888,35.3300781 C26.590637,35.2597653 26.5256962,35.1562507 26.4436646,35.0195312 L26.0950317,34.4394531 C25.9700311,34.2265614 25.8582158,34.0644537 25.7595825,33.953125 C25.6609492,33.8417963 25.5608526,33.7656252 25.4592896,33.7246094 C25.3577265,33.6835935 25.2297981,33.6630859 25.0755005,33.6630859 Z M25.5735474,31.8583984 L24.770813,31.8583984 L24.770813,33.0390625 L25.5501099,33.0390625 C25.7590953,33.0390625 25.9348748,33.0209963 26.0774536,32.9848633 C26.2200325,32.9487303 26.3289181,32.8872075 26.4041138,32.800293 C26.4793095,32.7133785 26.5169067,32.5937508 26.5169067,32.4414062 C26.5169067,32.322265 26.4866336,32.2172856 26.4260864,32.1264648 C26.3655392,32.0356441 26.2815557,31.9677737 26.1741333,31.9228516 C26.0725703,31.8798826 25.872377,31.8583984 25.5735474,31.8583984 Z M30.9700317,35.0136719 L30.7649536,34.4746094 L29.0188599,34.4746094 L28.8137817,35.0253906 C28.7337032,35.2402354 28.6653445,35.3852535 28.6087036,35.4604492 C28.5520627,35.5356449 28.4592902,35.5732422 28.3303833,35.5732422 C28.2210078,35.5732422 28.124329,35.5332035 28.0403442,35.453125 C27.9563594,35.3730465 27.9143677,35.2822271 27.9143677,35.1806641 C27.9143677,35.12207 27.9241332,35.0615237 27.9436646,34.9990234 C27.9631959,34.9365231 27.9954221,34.8496099 28.0403442,34.7382812 L29.1389771,31.9492188 C29.1702272,31.8691402 29.2078245,31.7729498 29.25177,31.6606445 C29.2957156,31.5483393 29.3425901,31.4550785 29.392395,31.3808594 C29.4422,31.3066403 29.507629,31.2465823 29.5886841,31.2006836 C29.6697392,31.1547849 29.7698358,31.1318359 29.8889771,31.1318359 C30.0100714,31.1318359 30.1111446,31.1547849 30.1921997,31.2006836 C30.2732548,31.2465823 30.3386838,31.3056637 30.3884888,31.3779297 C30.4382937,31.4501957 30.4802855,31.5278316 30.5144653,31.6108398 C30.5486452,31.6938481 30.5921018,31.8046868 30.6448364,31.9433594 L31.7669067,34.7148438 C31.8547978,34.9257823 31.8987427,35.0791011 31.8987427,35.1748047 C31.8987427,35.2744146 31.8572392,35.3657222 31.774231,35.4487305 C31.6912227,35.5317387 31.5911261,35.5732422 31.473938,35.5732422 C31.4055783,35.5732422 31.3469851,35.5610353 31.2981567,35.5366211 C31.2493284,35.5122069 31.2083132,35.4790041 31.1751099,35.4370117 C31.1419066,35.3950193 31.1062624,35.3305668 31.0681763,35.2436523 C31.0300901,35.1567378 30.9973756,35.0800785 30.9700317,35.0136719 Z M29.2473755,33.8212891 L30.5305786,33.8212891 L29.8831177,32.0488281 L29.2473755,33.8212891 Z M33.7063599,33.6630859 L33.4016724,33.6630859 L33.4016724,35.0429688 C33.4016724,35.2246103 33.3616337,35.358398 33.2815552,35.4443359 C33.2014767,35.5302739 33.0969855,35.5732422 32.9680786,35.5732422 C32.829406,35.5732422 32.7219852,35.5283208 32.645813,35.4384766 C32.5696407,35.3486324 32.5315552,35.2167977 32.5315552,35.0429688 L32.5315552,31.7382812 C32.5315552,31.5507803 32.5735469,31.4150395 32.6575317,31.3310547 C32.7415165,31.2470699 32.8772574,31.2050781 33.0647583,31.2050781 L34.4797974,31.2050781 C34.6751108,31.2050781 34.8421014,31.2133788 34.9807739,31.2299805 C35.1194465,31.2465821 35.2444452,31.2802732 35.3557739,31.3310547 C35.4905402,31.3876956 35.6096797,31.4687495 35.7131958,31.5742188 C35.8167119,31.679688 35.8953244,31.8022454 35.9490356,31.9418945 C36.0027469,32.0815437 36.0296021,32.2294914 36.0296021,32.3857422 C36.0296021,32.7060563 35.9392709,32.9619131 35.758606,33.1533203 C35.577941,33.3447275 35.3040179,33.4804683 34.9368286,33.5605469 C35.0911263,33.6425785 35.2385857,33.7636711 35.3792114,33.9238281 C35.5198371,34.0839852 35.6453242,34.2543936 35.7556763,34.4350586 C35.8660284,34.6157236 35.951965,34.7788079 36.0134888,34.9243164 C36.0750125,35.0698249 36.1057739,35.1699216 36.1057739,35.2246094 C36.1057739,35.2812503 36.0877077,35.3374021 36.0515747,35.3930664 C36.0154417,35.4487307 35.9661258,35.4926756 35.9036255,35.5249023 C35.8411252,35.5571291 35.7688603,35.5732422 35.6868286,35.5732422 C35.5891719,35.5732422 35.5071414,35.5502932 35.4407349,35.5043945 C35.3743283,35.4584959 35.3171999,35.400391 35.2693481,35.3300781 C35.2214963,35.2597653 35.1565556,35.1562507 35.0745239,35.0195312 L34.7258911,34.4394531 C34.6008905,34.2265614 34.4890752,34.0644537 34.3904419,33.953125 C34.2918086,33.8417963 34.1917119,33.7656252 34.0901489,33.7246094 C33.9885859,33.6835935 33.8606575,33.6630859 33.7063599,33.6630859 Z M34.2044067,31.8583984 L33.4016724,31.8583984 L33.4016724,33.0390625 L34.1809692,33.0390625 C34.3899547,33.0390625 34.5657342,33.0209963 34.708313,32.9848633 C34.8508918,32.9487303 34.9597775,32.8872075 35.0349731,32.800293 C35.1101688,32.7133785 35.1477661,32.5937508 35.1477661,32.4414062 C35.1477661,32.322265 35.117493,32.2172856 35.0569458,32.1264648 C34.9963986,32.0356441 34.9124151,31.9677737 34.8049927,31.9228516 C34.7034297,31.8798826 34.5032364,31.8583984 34.2044067,31.8583984 Z" id="RAR" fill="#5ABADF"></path>
            <path d="M13,10.5 L15.6666667,10.5 L17,11.5 L15.6666667,12.5 L13,12.5 L13,10.5 Z M19,12.5 L16.3333333,12.5 L15,13.5 L16.3333333,14.5 L19,14.5 L19,12.5 Z M19,16.5 L16.3333333,16.5 L15,17.5 L16.3333333,18.5 L19,18.5 L19,16.5 Z M13,14.5 L15.6666667,14.5 L17,15.5 L15.6666667,16.5 L13,16.5 L13,14.5 Z M19,20.5 L16.3333333,20.5 L15,21.5 L16.3333333,22.5 L19,22.5 L19,20.5 Z M13,18.5 L15.6666667,18.5 L17,19.5 L15.6666667,20.5 L13,20.5 L13,18.5 Z M19,24.5 L16.3333333,24.5 L15,25.5 L16.3333333,26.5 L19,26.5 L19,24.5 Z M13,22.5 L15.6666667,22.5 L17,23.5 L15.6666667,24.5 L13,24.5 L13,22.5 Z M19,28.5 L16.3333333,28.5 L15,29.5 L16.3333333,30.5 L19,30.5 L19,28.5 Z M13,26.5 L15.6666667,26.5 L17,27.5 L15.6666667,28.5 L13,28.5 L13,26.5 Z M16,37.5 C19,37.5 17,34.8807119 17,33.5 C17,32.1192881 17,31.5 16,31.5 C15,31.5 15,32.1192881 15,33.5 C15,34.8807119 13.0000001,37.5 16,37.5 Z M16,36.8652344 C16.5522847,36.8652344 17,36.4175191 17,35.8652344 C17,35.3129496 16.5522847,34.8652344 16,34.8652344 C15.4477153,34.8652344 15,35.3129496 15,35.8652344 C15,36.4175191 15.4477153,36.8652344 16,36.8652344 Z" id="Combined-Shape" fill="#FFFFFF"></path>
        </g>
    </g>
</svg>