<?xml version="1.0" encoding="UTF-8"?>
<svg width="48px" height="48px" viewBox="0 0 48 48" version="1.1" xmlns="http://www.w3.org/2000/svg" xmlns:xlink="http://www.w3.org/1999/xlink">
    <!-- Generator: Sketch 41.2 (35397) - http://www.bohemiancoding.com/sketch -->
    <title>gnome-mime-application-pdf</title>
    <desc>Created with Sketch.</desc>
    <defs>
        <linearGradient x1="90.7002767%" y1="6.56534831%" x2="35.3271484%" y2="64.1438802%" id="linearGradient-1">
            <stop stop-color="#93DEF2" offset="0%"></stop>
            <stop stop-color="#5ABADF" offset="100%"></stop>
        </linearGradient>
    </defs>
    <g id="Page-1" stroke="none" stroke-width="1" fill="none" fill-rule="evenodd">
        <g id="gnome-mime-application-pdf">
            <path d="M5,7.99765987 C5,6.34209804 6.34419539,5 7.99761025,5 L31.020752,5 L43,17.0198975 L43,39.9943718 C43,41.6543344 41.6475599,43 40.0023401,43 L7.99765987,43 C6.34209804,43 5,41.6475599 5,40.0023401 L5,7.99765987 Z" id="Rectangle-219" fill="#5ABADF"></path>
            <path d="M31,5 L43,17 L43,7.99715203 C43,6.34187067 41.6583772,5 40.002848,5 L31,5 Z" id="Path-406" fill="url(#linearGradient-1)" transform="translate(37.000000, 11.000000) rotate(180.000000) translate(-37.000000, -11.000000) "></path>
            <path d="M24.7954443,14.832794 C24.934479,14.5159256 25.0831967,14.3510209 25.1918372,14.308398 C25.2220183,14.2965571 25.24098,14.3001905 25.2960222,14.3460198 C25.6168868,14.6131788 25.7752998,15.3968386 25.5155081,16.3980963 C25.3922693,16.8730679 25.1923135,17.4430742 24.9322443,18.0779973 C24.5988595,16.6565328 24.519629,15.4613938 24.7954443,14.832794 Z M33.3446103,27.5185319 C33.9351337,27.8436637 33.9213713,27.9743727 33.3973187,28.1719559 C32.5345822,28.4972329 31.2302547,28.2384708 29.9620933,27.2907356 C31.6463824,27.164774 32.8281094,27.2341555 33.3446103,27.5185319 Z M16.4144333,30.5999888 C15.9187593,30.759186 15.5486136,30.810863 15.3316107,30.7900364 C15.5199046,30.3962847 16.2292966,29.8734632 17.1748813,29.6456909 C17.426059,29.5851872 17.6729547,29.5260326 17.9160346,29.4681595 C17.3410081,30.0642844 16.8260076,30.4678021 16.4144333,30.5999888 Z M25.612331,27.8577085 C27.2815739,27.5726848 28.7516219,27.3812622 29.9620933,27.2907356 C29.8330502,27.1942978 29.7043816,27.0907262 29.5765908,26.9799101 C27.5236735,25.199687 25.6458051,21.1204314 24.9322443,18.0779973 C23.4951839,21.586383 20.2226706,27.0768903 17.9160346,29.4681595 C20.7541197,28.7924612 23.0720645,28.2914597 25.612331,27.8577085 Z M16.8236087,28.1874016 C15.266254,28.562537 14.0388016,29.5559835 13.8210409,30.6050668 C13.5089144,32.1087669 14.9697033,32.6394631 16.8731164,32.0281378 C18.138477,31.621738 19.9336331,29.6008858 21.6698315,27.0826338 C20.1565182,27.4002291 18.5953363,27.760628 16.8236087,28.1874016 Z M26.9674306,16.77482 C27.3602049,15.2610377 27.0811274,13.8804584 26.2558149,13.1932848 C25.2715598,12.3737721 24.021105,12.8643628 23.4218534,14.2300934 C22.7663627,15.7239963 23.3932,18.9936155 24.6863592,22.0997711 C25.7740285,20.0524998 26.6193695,18.1162746 26.9674306,16.77482 Z M28.5938709,28.1131628 C30.3722793,29.6553408 32.4285801,30.1402709 33.9265002,29.575511 C35.6207541,28.9367275 35.8075867,27.1622755 34.0680761,26.2045314 C32.8982771,25.5604605 30.4485234,25.6027591 26.8645894,26.1375196 C27.4111903,26.9153352 27.9935613,27.5925938 28.5938709,28.1131628 Z M25.3598596,26.3791084 C24.1030168,26.5937147 22.9022991,26.823979 21.6698315,27.0826338 C22.7444645,25.5239429 23.7965104,23.7746939 24.6863592,22.0997711 C25.2886428,23.5464503 26.0354644,24.9576711 26.8645894,26.1375196 C26.3833451,26.2093263 25.8816509,26.2900124 25.3598596,26.3791084 Z" id="Path-400" fill="#FFFFFF"></path>
        </g>
    </g>
</svg>