<?xml version="1.0" encoding="UTF-8"?>
<svg width="48px" height="48px" viewBox="0 0 48 48" version="1.1" xmlns="http://www.w3.org/2000/svg" xmlns:xlink="http://www.w3.org/1999/xlink">
    <!-- Generator: Sketch 41.2 (35397) - http://www.bohemiancoding.com/sketch -->
    <title>gnome-mime-text-x-vcalendar</title>
    <desc>Created with Sketch.</desc>
    <defs>
        <linearGradient x1="90.7002767%" y1="6.56534831%" x2="35.3271484%" y2="64.1438802%" id="linearGradient-1">
            <stop stop-color="#93DEF2" offset="0%"></stop>
            <stop stop-color="#5ABADF" offset="100%"></stop>
        </linearGradient>
    </defs>
    <g id="Page-1" stroke="none" stroke-width="1" fill="none" fill-rule="evenodd">
        <g id="gnome-mime-text-x-vcalendar">
            <path d="M5,7.99765987 C5,6.34209804 6.34324319,5 8.0081984,5 L31.0023193,5 L43,17.0091553 L43,39.9931291 C43,41.653778 41.6475599,43 40.0023401,43 L7.99765987,43 C6.34209804,43 5,41.6475599 5,40.0023401 L5,7.99765987 Z" id="Rectangle-219" fill="#5ABADF"></path>
            <path d="M31,5 L43,17 L43,7.99715203 C43,6.34187067 41.6583772,5 40.002848,5 L31,5 Z" id="Path-406" fill="url(#linearGradient-1)" transform="translate(37.000000, 11.000000) rotate(180.000000) translate(-37.000000, -11.000000) "></path>
            <path d="M15,18 L33,18 L33,22 L15,22 L15,18 Z M15,24 L33,24 L33,35 L15,35 L15,24 Z" id="Combined-Shape" fill="#FFFFFF"></path>
            <path d="M23.5263672,29.4892578 C23.5263672,30.0231146 23.4938154,30.4820944 23.4287109,30.8662109 C23.3636064,31.2503274 23.2431649,31.5986313 23.0673828,31.9111328 C22.8460275,32.2952493 22.5595721,32.5914703 22.2080078,32.7998047 C21.8564436,33.0081391 21.4658225,33.1123047 21.0361328,33.1123047 C20.5413387,33.1123047 20.097821,32.9723321 19.7055664,32.6923828 C19.3133118,32.4124335 19.0179046,32.0250676 18.8193359,31.5302734 C18.718424,31.2600898 18.6443687,30.9614274 18.597168,30.6342773 C18.5499672,30.3071273 18.5263672,29.9531269 18.5263672,29.5722656 C18.5263672,29.0807267 18.5524086,28.6380228 18.6044922,28.2441406 C18.6565758,27.8502584 18.7379552,27.5117202 18.8486328,27.2285156 C19.0406911,26.7597633 19.3198224,26.4025077 19.6860352,26.1567383 C20.0522479,25.9109688 20.4892553,25.7880859 20.9970703,25.7880859 C21.3323584,25.7880859 21.6367174,25.8426101 21.9101562,25.9516602 C22.1835951,26.0607102 22.4236643,26.2202138 22.6303711,26.4301758 C22.8370779,26.6401378 23.0120436,26.899738 23.1552734,27.2089844 C23.4026705,27.7460964 23.5263672,28.50618 23.5263672,29.4892578 Z M22.1884766,29.3916016 C22.1884766,28.7958955 22.1526696,28.3084329 22.0810547,27.9291992 C22.0094397,27.5499656 21.8889982,27.2635101 21.7197266,27.0698242 C21.5504549,26.8761384 21.3160822,26.7792969 21.0166016,26.7792969 C20.5869119,26.7792969 20.2882495,26.9957661 20.1206055,27.4287109 C19.9529614,27.8616558 19.8691406,28.5289668 19.8691406,29.4306641 C19.8691406,30.0426463 19.9049476,30.5439434 19.9765625,30.9345703 C20.0481774,31.3251973 20.1686189,31.6206045 20.3378906,31.8208008 C20.5071623,32.0209971 20.7366522,32.1210938 21.0263672,32.1210938 C21.3258479,32.1210938 21.5602205,32.0169281 21.7294922,31.8085938 C21.8987639,31.6002594 22.0175778,31.3024108 22.0859375,30.9150391 C22.1542972,30.5276673 22.1884766,30.0198599 22.1884766,29.3916016 Z M26.8222656,32.3310547 L26.8222656,27.8876953 C25.9954386,28.5224641 25.4388035,28.8398438 25.1523438,28.8398438 C25.0156243,28.8398438 24.894369,28.7853196 24.7885742,28.6762695 C24.6827794,28.5672195 24.6298828,28.4410814 24.6298828,28.2978516 C24.6298828,28.1318351 24.6819656,28.009766 24.7861328,27.9316406 C24.8903,27.8535152 25.0742174,27.7526048 25.3378906,27.6289062 C25.7317728,27.4433584 26.0467111,27.2480479 26.2827148,27.0429688 C26.5187186,26.8378896 26.7278637,26.6083997 26.9101562,26.3544922 C27.0924488,26.1005847 27.2112627,25.9443362 27.2666016,25.8857422 C27.3219404,25.8271481 27.426106,25.7978516 27.5791016,25.7978516 C27.7516285,25.7978516 27.8899734,25.8645827 27.9941406,25.9980469 C28.0983078,26.1315111 28.1503906,26.3154285 28.1503906,26.5498047 L28.1503906,32.140625 C28.1503906,32.7949251 27.9274111,33.1220703 27.4814453,33.1220703 C27.2828766,33.1220703 27.123373,33.0553392 27.0029297,32.921875 C26.8824864,32.7884108 26.8222656,32.5914727 26.8222656,32.3310547 Z" id="01" fill="#5ABADF"></path>
        </g>
    </g>
</svg>