<?xml version="1.0" encoding="UTF-8"?>
<svg width="48px" height="48px" viewBox="0 0 48 48" version="1.1" xmlns="http://www.w3.org/2000/svg" xmlns:xlink="http://www.w3.org/1999/xlink">
    <!-- Generator: Sketch 41.2 (35397) - http://www.bohemiancoding.com/sketch -->
    <title>gnome-mime-application-x-font-sunos-news</title>
    <desc>Created with Sketch.</desc>
    <defs>
        <linearGradient x1="90.7002767%" y1="6.56534831%" x2="35.3271484%" y2="64.1438802%" id="linearGradient-1">
            <stop stop-color="#93DEF2" offset="0%"></stop>
            <stop stop-color="#5ABADF" offset="100%"></stop>
        </linearGradient>
    </defs>
    <g id="Page-1" stroke="none" stroke-width="1" fill="none" fill-rule="evenodd">
        <g id="gnome-mime-application-x-font-sunos-news">
            <path d="M5,7.99765987 C5,6.34209804 6.34324319,5 8.0081984,5 L31.0023193,5 L43,17.0091553 L43,39.9931291 C43,41.653778 41.6475599,43 40.0023401,43 L7.99765987,43 C6.34209804,43 5,41.6475599 5,40.0023401 L5,7.99765987 Z" id="Rectangle-219" fill="#5ABADF"></path>
            <path d="M31,5 L43,17 L43,7.99715203 C43,6.34187067 41.6583772,5 40.002848,5 L31,5 Z" id="Path-406" fill="url(#linearGradient-1)" transform="translate(37.000000, 11.000000) rotate(180.000000) translate(-37.000000, -11.000000) "></path>
            <path d="M20.136,26.232 C20.064,26.952 20.04,27.576 20.04,28.056 C20.064,29.424 20.448,30.024 20.928,30.24 C21.144,30.336 21.288,30.264 21.288,30.024 C21.336,28.752 21.48,27.432 21.648,26.184 C22.056,26.208 22.392,26.256 22.68,26.328 C22.896,26.4 22.992,26.328 22.944,26.112 C22.848,25.608 22.584,25.128 21.864,24.888 C22.32,22.248 22.992,19.8 23.616,17.904 C23.832,17.256 23.856,16.728 23.616,16.152 C23.376,15.552 23.304,15.504 23.064,15.168 C22.824,14.832 22.584,14.832 22.2,15.144 C19.656,17.232 16.32,21.984 14.448,25.248 C14.064,25.224 13.704,25.176 13.368,25.128 C13.008,25.08 12.96,25.176 13.08,25.488 C13.152,25.656 13.344,26.016 13.872,26.304 C13.584,26.832 13.368,27.312 13.224,27.672 C12.72,29.016 12.816,29.736 13.104,30.12 C13.224,30.288 13.44,30.288 13.536,30.072 C14.016,29.016 14.64,27.84 15.36,26.616 C16.488,26.64 18.432,26.352 20.136,26.232 Z M16.272,25.176 C18.096,22.32 20.28,19.416 22.104,17.376 C21.36,19.248 20.688,22.272 20.328,24.768 C19.2,24.792 17.736,25.056 16.272,25.176 Z M31.008,22.2 C31.056,21.264 30.576,20.472 29.544,20.472 C28.344,20.472 26.448,21.552 24.504,24.384 C22.512,27.288 22.968,30.336 25.2,30.336 C26.352,30.336 27.432,29.448 28.2,28.464 C28.2,29.592 28.872,30.36 30.168,30.432 C31.488,30.504 33,29.184 33.624,27.864 C33.936,27.192 33.936,26.592 33.84,26.376 C33.744,26.16 33.576,26.184 33.456,26.4 C32.616,28.056 31.296,29.688 30.312,29.736 C29.496,29.784 29.52,28.752 30.12,27.408 C30.696,26.136 31.896,24.336 32.424,23.256 C33,22.056 32.808,21.024 32.448,20.592 C32.28,20.376 32.088,20.424 31.872,20.736 C31.608,21.12 31.32,21.624 31.008,22.2 Z M28.92,25.92 C27.696,28.032 26.448,29.568 25.464,29.544 C24.528,29.52 24.84,27.408 26.112,25.344 C27.432,23.208 29.184,21.648 29.952,21.72 C30.648,21.792 30.432,23.28 28.92,25.92 Z" id="Aa" fill="#FFFFFF"></path>
        </g>
    </g>
</svg>