<?xml version="1.0" encoding="UTF-8"?>
<svg width="48px" height="48px" viewBox="0 0 48 48" version="1.1" xmlns="http://www.w3.org/2000/svg" xmlns:xlink="http://www.w3.org/1999/xlink">
    <!-- Generator: Sketch 41.2 (35397) - http://www.bohemiancoding.com/sketch -->
    <title>gnome-mime-application-vnd.stardivision.impress</title>
    <desc>Created with Sketch.</desc>
    <defs>
        <linearGradient x1="90.7002767%" y1="6.56534831%" x2="35.3271484%" y2="64.1438802%" id="linearGradient-1">
            <stop stop-color="#93DEF2" offset="0%"></stop>
            <stop stop-color="#5ABADF" offset="100%"></stop>
        </linearGradient>
    </defs>
    <g id="Page-1" stroke="none" stroke-width="1" fill="none" fill-rule="evenodd">
        <g id="gnome-mime-application-vnd.stardivision.impress">
            <path d="M5,7.99765987 C5,6.34209804 6.34419539,5 7.99761025,5 L31.020752,5 L43,17.0198975 L43,39.9943718 C43,41.6543344 41.6475599,43 40.0023401,43 L7.99765987,43 C6.34209804,43 5,41.6475599 5,40.0023401 L5,7.99765987 Z" id="Rectangle-219" fill="#5ABADF"></path>
            <path d="M31,5 L43,17 L43,7.99715203 C43,6.34187067 41.6583772,5 40.002848,5 L31,5 Z" id="Path-406" fill="url(#linearGradient-1)" transform="translate(37.000000, 11.000000) rotate(180.000000) translate(-37.000000, -11.000000) "></path>
            <path d="M32.9943335,24.6776134 C32.9981006,24.7846109 33,24.8920836 33,25 C33,29.9705627 28.9705627,34 24,34 C19.0294373,34 15,29.9705627 15,25 C15,20.0294373 19.0294373,16 24,16 C24.1079164,16 24.2153891,16.0018994 24.3223866,16.0056665 C24.1154655,16.0146468 24,16.0311419 24,16.0311419 L24,25 L32.9688581,25 C32.9688581,25 32.9853532,24.8845345 32.9943335,24.6776134 Z M30.5,18.4687595 C28,15.9687595 25,16.0000095 25,16.0000095 L25,24.0000095 L33,24.0000095 C33,24.0000095 33,20.9687595 30.5,18.4687595 Z" id="Combined-Shape" fill="#FFFFFF"></path>
        </g>
    </g>
</svg>