<?xml version="1.0" encoding="UTF-8"?>
<svg width="48px" height="48px" viewBox="0 0 48 48" version="1.1" xmlns="http://www.w3.org/2000/svg" xmlns:xlink="http://www.w3.org/1999/xlink">
    <!-- Generator: Sketch 41.2 (35397) - http://www.bohemiancoding.com/sketch -->
    <title>gnome-mime-application-x-java-archive</title>
    <desc>Created with Sketch.</desc>
    <defs>
        <linearGradient x1="90.7002767%" y1="6.56534831%" x2="35.3271484%" y2="64.1438802%" id="linearGradient-1">
            <stop stop-color="#93DEF2" offset="0%"></stop>
            <stop stop-color="#5ABADF" offset="100%"></stop>
        </linearGradient>
    </defs>
    <g id="Page-1" stroke="none" stroke-width="1" fill="none" fill-rule="evenodd">
        <g id="gnome-mime-application-x-java-archive">
            <path d="M5,7.99765987 C5,6.34209804 6.34324319,5 8.0081984,5 L31.0023193,5 L43,17.0091553 L43,39.9931291 C43,41.653778 41.6475599,43 40.0023401,43 L7.99765987,43 C6.34209804,43 5,41.6475599 5,40.0023401 L5,7.99765987 Z" id="Rectangle-219" fill="#5ABADF"></path>
            <path d="M12,10 L14.6666667,10 L16,11 L14.6666667,12 L12,12 L12,10 Z M18,12 L15.3333333,12 L14,13 L15.3333333,14 L18,14 L18,12 Z M18,16 L15.3333333,16 L14,17 L15.3333333,18 L18,18 L18,16 Z M12,14 L14.6666667,14 L16,15 L14.6666667,16 L12,16 L12,14 Z M18,20 L15.3333333,20 L14,21 L15.3333333,22 L18,22 L18,20 Z M12,18 L14.6666667,18 L16,19 L14.6666667,20 L12,20 L12,18 Z M18,24 L15.3333333,24 L14,25 L15.3333333,26 L18,26 L18,24 Z M12,22 L14.6666667,22 L16,23 L14.6666667,24 L12,24 L12,22 Z M18,28 L15.3333333,28 L14,29 L15.3333333,30 L18,30 L18,28 Z M12,26 L14.6666667,26 L16,27 L14.6666667,28 L12,28 L12,26 Z M15,37 C18,37 16,34.3807119 16,33 C16,31.6192881 16,31 15,31 C14,31 14,31.6192881 14,33 C14,34.3807119 12.0000001,37 15,37 Z M15,36.3652344 C15.5522847,36.3652344 16,35.9175191 16,35.3652344 C16,34.8129496 15.5522847,34.3652344 15,34.3652344 C14.4477153,34.3652344 14,34.8129496 14,35.3652344 C14,35.9175191 14.4477153,36.3652344 15,36.3652344 Z M30.3157894,24.7894737 C32.7400647,22.3019152 30.9473684,21 30.9473684,21 C30.9473684,21 31.2631579,22.2631579 30.9473684,22.8947368 C30.6315789,23.5263158 29.3684211,24.4736842 28.4210526,25.1052632 C27.4736842,25.7368421 26.8421052,27.3157895 29.6842105,29.2105263 C29.6842105,29.2105263 28.7368421,27.9473684 28.7368421,27 C28.7368421,26.0526316 30.2907378,24.8151793 30.3157894,24.7894737 Z M33.1578947,24.1578947 C33.1578947,24.1578947 30.9473684,24.4736842 30,25.7368421 C29.0526316,27 30,27.6315789 30.3157895,28.2631579 C30.631579,28.8947368 30.3157894,29.8421053 30.3157894,29.8421053 C30.3157894,29.8421053 32.2105262,28.2631579 30.9473684,27.3157895 C29.6842105,26.3684211 33.1578947,24.1578947 33.1578947,24.1578947 Z M28.1052632,29.2105263 C28.1052632,29.2105263 25.2631579,29.5263158 25.2631579,30.1578947 C25.2631579,30.7894737 29.0526321,31.7368421 32.8421053,29.8421053 C32.8421054,29.8421053 29.0526315,30.4736842 27.1578947,30.1578947 C25.2631579,29.8421053 28.1052632,29.2105263 28.1052632,29.2105263 Z M26.9715278,33.6616468 C26.9715278,33.6616468 24.1294225,33.9774363 24.1294225,34.6090152 C24.1294225,35.2405942 33.1578948,36.1578947 34.7368416,34.2631579 C34.7368417,34.2631579 33.2015791,34.7688558 31.263158,34.8947368 C29.3200663,35.0209212 26.9726677,34.7670999 26.0241593,34.6090152 C24.1294225,34.2932257 26.9715278,33.6616468 26.9715278,33.6616468 Z M27.4743861,35.5320326 C27.4743861,35.5320326 26.1335562,35.215234 26.2105263,35.8421053 C26.2682463,36.3121966 30.6368,36.5237179 33.3818467,35.7258998 C34.297346,35.4598198 35.0322648,35.0814724 35.3664641,34.5630072 C35.3664641,34.5630072 34.5356529,35.1745136 32.6270215,35.5356905 C30.7137914,35.8977376 28.7501777,35.8834176 27.7894737,35.8421053 C25.8703749,35.75958 27.4743861,35.5320326 27.4743861,35.5320326 Z M30.3157896,31.4210526 C28.4210531,31.7368421 28.1616518,31.813283 27.4736842,31.7368421 C26.7857166,31.6604013 27.1578947,31.1052632 27.1578947,31.1052632 C27.1578947,31.1052632 25.8947369,31.4210526 26.5263158,32.0526316 C27.1578947,32.6842105 30.3157896,32.3684211 32.5263159,31.7368421 C32.5263159,31.7368421 32.2105262,31.1052632 30.3157896,31.4210526 Z M30.0832855,33.1540556 C28.6903563,33.3862105 28.4996556,33.4424066 27.9938912,33.3862105 C27.4881268,33.3300145 27.7617363,32.9219007 27.7617363,32.9219007 C27.7617363,32.9219007 26.8331166,33.1540556 27.2974265,33.6183654 C27.7617363,34.0826753 30.0832855,33.8505204 31.7083699,33.3862105 C31.7083699,33.3862105 31.4762148,32.9219007 30.0832855,33.1540556 Z M34.4210526,30.1578947 C34.4210526,29.2105262 33.1578947,29.5263158 33.1578947,29.5263158 C33.1578947,29.5263158 34.7368421,28.8947369 35.3684211,29.8421053 C36,30.7894737 33.7894737,32.368421 32.8421053,32.368421 C32.8421053,32.368421 34.4210526,31.1052632 34.4210526,30.1578947 Z" id="Combined-Shape" fill="#FFFFFF"></path>
            <path d="M30.9587402,5.01269531 L42.9587402,17.0126953 L42.9587402,8.00984734 C42.9587402,6.35456598 41.6171175,5.01269531 39.9615882,5.01269531 L30.9587402,5.01269531 Z" id="Path-406" fill="url(#linearGradient-1)" transform="translate(36.958740, 11.012695) rotate(180.000000) translate(-36.958740, -11.012695) "></path>
        </g>
    </g>
</svg>