<?xml version="1.0" encoding="UTF-8"?>
<svg width="48px" height="48px" viewBox="0 0 48 48" version="1.1" xmlns="http://www.w3.org/2000/svg" xmlns:xlink="http://www.w3.org/1999/xlink">
    <!-- Generator: Sketch 41.2 (35397) - http://www.bohemiancoding.com/sketch -->
    <title>gnome-mime-text-html</title>
    <desc>Created with Sketch.</desc>
    <defs>
        <linearGradient x1="90.7002767%" y1="6.56534831%" x2="35.3271484%" y2="64.1438802%" id="linearGradient-1">
            <stop stop-color="#93DEF2" offset="0%"></stop>
            <stop stop-color="#5ABADF" offset="100%"></stop>
        </linearGradient>
    </defs>
    <g id="Page-1" stroke="none" stroke-width="1" fill="none" fill-rule="evenodd">
        <g id="gnome-mime-text-html">
            <path d="M5,7.99765987 C5,6.34209804 6.34419539,5 7.99761025,5 L31.020752,5 L43,17.0198975 L43,39.9943718 C43,41.6543344 41.6475599,43 40.0023401,43 L7.99765987,43 C6.34209804,43 5,41.6475599 5,40.0023401 L5,7.99765987 Z" id="Rectangle-219" fill="#5ABADF"></path>
            <path d="M31,5 L43,17 L43,7.99715203 C43,6.34187067 41.6583772,5 40.002848,5 L31,5 Z" id="Path-406" fill="url(#linearGradient-1)" transform="translate(37.000000, 11.000000) rotate(180.000000) translate(-37.000000, -11.000000) "></path>
            <circle id="Oval-296" fill="#FFFFFF" cx="24" cy="25" r="9"></circle>
            <path d="M20.601895,21.3618582 C21.1222741,20.8337409 19.561137,20.3056234 21.1222741,19.2493887 C22.6834112,18.193154 23.2037903,20.8337409 24.7649272,20.8337408 C26.3260641,20.8337407 26.3260642,19.7775061 27.8872013,20.8337409 C29.4483383,21.8899756 29.4483385,24.0024449 27.3668223,23.4743276 C25.285306,22.9462103 23.7241693,21.8899755 23.7241693,24.002445 C23.7241693,26.1149144 18,24.5305623 18,22.4180929 C18,20.3056235 20.081516,21.8899756 20.601895,21.3618582 Z" id="Path-411" fill="#5ABADF"></path>
            <path d="M23.2155169,26.6279316 C23.5417071,26.2957969 22.5631368,25.9636622 23.5417071,25.2993928 C24.5202773,24.6351234 24.458663,25.9710417 25.9562584,25.6352172 C27.4538537,25.2993928 26.9530832,26.7946798 27.9316534,27.4589492 C28.2888203,27.7013999 29.1688637,26.8745556 29.7009053,27.7022029 C30.3418117,28.6992007 30.4679703,30.2191867 30.5582343,30.6421415 C30.72343,31.4162077 30.0913533,33.1178081 29.2231057,31.3051945 C28.3548581,29.4925808 28.8231407,31.4817402 27.4538537,31.0619408 C26.8420629,30.8743765 26.8838236,29.4735968 26.368544,28.7961734 C25.7305445,27.9574135 24.5992918,27.8920242 24.5992918,28.6269783 C24.5992918,29.9555172 21.5845666,28.6207398 21.5845666,27.292201 C21.5845666,25.9636622 22.8893268,26.9600663 23.2155169,26.6279316 Z" id="Path-411" fill="#5ABADF" transform="translate(26.111672, 28.605725) rotate(116.000000) translate(-26.111672, -28.605725) "></path>
            <path d="M18.496594,28.3333333 C18.496594,28.3333333 17.1171662,27 18.9564033,27 C20.7956403,27 21.7152589,29 20.3358311,29 C18.9564032,29 18.496594,28.3333333 18.496594,28.3333333 Z" id="Path-413" fill="#5ABADF"></path>
        </g>
    </g>
</svg>