<?xml version="1.0" encoding="UTF-8"?>
<svg width="48px" height="48px" viewBox="0 0 48 48" version="1.1" xmlns="http://www.w3.org/2000/svg" xmlns:xlink="http://www.w3.org/1999/xlink">
    <!-- Generator: Sketch 41.2 (35397) - http://www.bohemiancoding.com/sketch -->
    <title>gnome-mime-image-vnd.adobe.photoshop</title>
    <desc>Created with Sketch.</desc>
    <defs>
        <linearGradient x1="90.7002767%" y1="6.56534831%" x2="35.3271484%" y2="64.1438802%" id="linearGradient-1">
            <stop stop-color="#93DEF2" offset="0%"></stop>
            <stop stop-color="#5ABADF" offset="100%"></stop>
        </linearGradient>
    </defs>
    <g id="Page-1" stroke="none" stroke-width="1" fill="none" fill-rule="evenodd">
        <g id="gnome-mime-image-vnd.adobe.photoshop">
            <path d="M20.2636719,27.6542969 L18.6699219,27.6542969 L18.6699219,30.0859375 C18.6699219,30.4335955 18.5878914,30.6972647 18.4238281,30.8769531 C18.2597648,31.0566415 18.0527356,31.1464844 17.8027344,31.1464844 C17.5410143,31.1464844 17.3300789,31.0576181 17.1699219,30.8798828 C17.0097648,30.7021475 16.9296875,30.441408 16.9296875,30.0976562 L16.9296875,23.4765625 C16.9296875,23.0937481 17.0175772,22.8203133 17.1933594,22.65625 C17.3691415,22.4921867 17.6484356,22.4101562 18.03125,22.4101562 L20.2636719,22.4101562 C20.9238314,22.4101562 21.4316388,22.460937 21.7871094,22.5625 C22.1386736,22.6601567 22.4423815,22.8222645 22.6982422,23.0488281 C22.9541028,23.2753918 23.1484368,23.5527327 23.28125,23.8808594 C23.4140632,24.208986 23.4804688,24.5781229 23.4804688,24.9882812 C23.4804688,25.8632856 23.2109402,26.5263649 22.671875,26.9775391 C22.1328098,27.4287132 21.3300835,27.6542969 20.2636719,27.6542969 Z M19.8417969,23.7167969 L18.6699219,23.7167969 L18.6699219,26.3417969 L19.8417969,26.3417969 C20.2519552,26.3417969 20.5947252,26.2988286 20.8701172,26.2128906 C21.1455092,26.1269527 21.355468,25.9863291 21.5,25.7910156 C21.644532,25.5957021 21.7167969,25.3398453 21.7167969,25.0234375 C21.7167969,24.6445294 21.6054699,24.3359387 21.3828125,24.0976562 C21.1328112,23.8437487 20.6191445,23.7167969 19.8417969,23.7167969 Z M31.4609375,28.421875 C31.4609375,28.9414088 31.3271498,29.4082011 31.0595703,29.8222656 C30.7919908,30.2363302 30.4003932,30.5605457 29.8847656,30.7949219 C29.369138,31.029298 28.757816,31.1464844 28.0507812,31.1464844 C27.2031208,31.1464844 26.503909,30.9863297 25.953125,30.6660156 C25.562498,30.4355457 25.2451184,30.1279316 25.0009766,29.7431641 C24.7568347,29.3583965 24.6347656,28.9843768 24.6347656,28.6210938 C24.6347656,28.4101552 24.7080071,28.2294929 24.8544922,28.0791016 C25.0009773,27.9287102 25.1874989,27.8535156 25.4140625,27.8535156 C25.5976572,27.8535156 25.7529291,27.9121088 25.8798828,28.0292969 C26.0068366,28.146485 26.1152339,28.3203113 26.2050781,28.5507812 C26.3144537,28.8242201 26.4326166,29.0527335 26.5595703,29.2363281 C26.6865241,29.4199228 26.8652332,29.5712885 27.0957031,29.6904297 C27.326173,29.8095709 27.6289044,29.8691406 28.0039062,29.8691406 C28.5195338,29.8691406 28.938475,29.7490246 29.2607422,29.5087891 C29.5830094,29.2685535 29.7441406,28.9687518 29.7441406,28.609375 C29.7441406,28.3242173 29.6572274,28.0927743 29.4833984,27.9150391 C29.3095694,27.7373038 29.0849623,27.601563 28.8095703,27.5078125 C28.5341783,27.414062 28.1660179,27.3144537 27.7050781,27.2089844 C27.0878875,27.0644524 26.5712911,26.8955088 26.1552734,26.7021484 C25.7392557,26.5087881 25.4091809,26.2451189 25.1650391,25.9111328 C24.9208972,25.5771468 24.7988281,25.1621119 24.7988281,24.6660156 C24.7988281,24.193357 24.9277331,23.7734393 25.1855469,23.40625 C25.4433607,23.0390607 25.8164038,22.7568369 26.3046875,22.5595703 C26.7929712,22.3623037 27.3671842,22.2636719 28.0273438,22.2636719 C28.5546901,22.2636719 29.0107403,22.3291009 29.3955078,22.4599609 C29.7802754,22.590821 30.0996081,22.7646474 30.3535156,22.9814453 C30.6074231,23.1982433 30.7929682,23.4257801 30.9101562,23.6640625 C31.0273443,23.9023449 31.0859375,24.1347645 31.0859375,24.3613281 C31.0859375,24.5683604 31.012696,24.754882 30.8662109,24.9208984 C30.7197258,25.0869149 30.5371105,25.1699219 30.3183594,25.1699219 C30.1191396,25.1699219 29.967774,25.1201177 29.8642578,25.0205078 C29.7607417,24.9208979 29.6484381,24.7578136 29.5273438,24.53125 C29.371093,24.2070296 29.1835948,23.9541025 28.9648438,23.7724609 C28.7460927,23.5908194 28.3945337,23.5 27.9101562,23.5 C27.4609353,23.5 27.0986342,23.5986318 26.8232422,23.7958984 C26.5478502,23.993165 26.4101562,24.2304674 26.4101562,24.5078125 C26.4101562,24.6796884 26.4570308,24.8281244 26.5507812,24.953125 C26.6445317,25.0781256 26.7734367,25.1855464 26.9375,25.2753906 C27.1015633,25.3652348 27.2675773,25.4355466 27.4355469,25.4863281 C27.6035165,25.5371096 27.8808574,25.6113276 28.2675781,25.7089844 C28.7519555,25.8222662 29.1904277,25.9472649 29.5830078,26.0839844 C29.9755879,26.2207038 30.3095689,26.3867178 30.5849609,26.5820312 C30.8603529,26.7773447 31.0751945,27.0244126 31.2294922,27.3232422 C31.3837898,27.6220718 31.4609375,27.9882791 31.4609375,28.421875 Z" id="PS" fill="#FFFFFF"></path>
            <path d="M5,7.99765987 C5,6.34209804 6.34312337,5 8.00793008,5 L31,5 L43,17 L43,39.9920699 C43,41.6533038 41.6475599,43 40.0023401,43 L7.99765987,43 C6.34209804,43 5,41.6475599 5,40.0023401 L5,7.99765987 Z" id="Rectangle-219" fill="#5ABADF"></path>
            <path d="M31,5 L43,17 L43,7.99715203 C43,6.34187067 41.6583772,5 40.002848,5 L31,5 Z" id="Path-406" fill="url(#linearGradient-1)" transform="translate(37.000000, 11.000000) rotate(180.000000) translate(-37.000000, -11.000000) "></path>
            <path d="M20.2636719,27.6542969 L18.6699219,27.6542969 L18.6699219,30.0859375 C18.6699219,30.4335955 18.5878914,30.6972647 18.4238281,30.8769531 C18.2597648,31.0566415 18.0527356,31.1464844 17.8027344,31.1464844 C17.5410143,31.1464844 17.3300789,31.0576181 17.1699219,30.8798828 C17.0097648,30.7021475 16.9296875,30.441408 16.9296875,30.0976562 L16.9296875,23.4765625 C16.9296875,23.0937481 17.0175772,22.8203133 17.1933594,22.65625 C17.3691415,22.4921867 17.6484356,22.4101562 18.03125,22.4101562 L20.2636719,22.4101562 C20.9238314,22.4101562 21.4316388,22.460937 21.7871094,22.5625 C22.1386736,22.6601567 22.4423815,22.8222645 22.6982422,23.0488281 C22.9541028,23.2753918 23.1484368,23.5527327 23.28125,23.8808594 C23.4140632,24.208986 23.4804688,24.5781229 23.4804688,24.9882812 C23.4804688,25.8632856 23.2109402,26.5263649 22.671875,26.9775391 C22.1328098,27.4287132 21.3300835,27.6542969 20.2636719,27.6542969 Z M19.8417969,23.7167969 L18.6699219,23.7167969 L18.6699219,26.3417969 L19.8417969,26.3417969 C20.2519552,26.3417969 20.5947252,26.2988286 20.8701172,26.2128906 C21.1455092,26.1269527 21.355468,25.9863291 21.5,25.7910156 C21.644532,25.5957021 21.7167969,25.3398453 21.7167969,25.0234375 C21.7167969,24.6445294 21.6054699,24.3359387 21.3828125,24.0976562 C21.1328112,23.8437487 20.6191445,23.7167969 19.8417969,23.7167969 Z M31.4609375,28.421875 C31.4609375,28.9414088 31.3271498,29.4082011 31.0595703,29.8222656 C30.7919908,30.2363302 30.4003932,30.5605457 29.8847656,30.7949219 C29.369138,31.029298 28.757816,31.1464844 28.0507812,31.1464844 C27.2031208,31.1464844 26.503909,30.9863297 25.953125,30.6660156 C25.562498,30.4355457 25.2451184,30.1279316 25.0009766,29.7431641 C24.7568347,29.3583965 24.6347656,28.9843768 24.6347656,28.6210938 C24.6347656,28.4101552 24.7080071,28.2294929 24.8544922,28.0791016 C25.0009773,27.9287102 25.1874989,27.8535156 25.4140625,27.8535156 C25.5976572,27.8535156 25.7529291,27.9121088 25.8798828,28.0292969 C26.0068366,28.146485 26.1152339,28.3203113 26.2050781,28.5507812 C26.3144537,28.8242201 26.4326166,29.0527335 26.5595703,29.2363281 C26.6865241,29.4199228 26.8652332,29.5712885 27.0957031,29.6904297 C27.326173,29.8095709 27.6289044,29.8691406 28.0039062,29.8691406 C28.5195338,29.8691406 28.938475,29.7490246 29.2607422,29.5087891 C29.5830094,29.2685535 29.7441406,28.9687518 29.7441406,28.609375 C29.7441406,28.3242173 29.6572274,28.0927743 29.4833984,27.9150391 C29.3095694,27.7373038 29.0849623,27.601563 28.8095703,27.5078125 C28.5341783,27.414062 28.1660179,27.3144537 27.7050781,27.2089844 C27.0878875,27.0644524 26.5712911,26.8955088 26.1552734,26.7021484 C25.7392557,26.5087881 25.4091809,26.2451189 25.1650391,25.9111328 C24.9208972,25.5771468 24.7988281,25.1621119 24.7988281,24.6660156 C24.7988281,24.193357 24.9277331,23.7734393 25.1855469,23.40625 C25.4433607,23.0390607 25.8164038,22.7568369 26.3046875,22.5595703 C26.7929712,22.3623037 27.3671842,22.2636719 28.0273438,22.2636719 C28.5546901,22.2636719 29.0107403,22.3291009 29.3955078,22.4599609 C29.7802754,22.590821 30.0996081,22.7646474 30.3535156,22.9814453 C30.6074231,23.1982433 30.7929682,23.4257801 30.9101562,23.6640625 C31.0273443,23.9023449 31.0859375,24.1347645 31.0859375,24.3613281 C31.0859375,24.5683604 31.012696,24.754882 30.8662109,24.9208984 C30.7197258,25.0869149 30.5371105,25.1699219 30.3183594,25.1699219 C30.1191396,25.1699219 29.967774,25.1201177 29.8642578,25.0205078 C29.7607417,24.9208979 29.6484381,24.7578136 29.5273438,24.53125 C29.371093,24.2070296 29.1835948,23.9541025 28.9648438,23.7724609 C28.7460927,23.5908194 28.3945337,23.5 27.9101562,23.5 C27.4609353,23.5 27.0986342,23.5986318 26.8232422,23.7958984 C26.5478502,23.993165 26.4101562,24.2304674 26.4101562,24.5078125 C26.4101562,24.6796884 26.4570308,24.8281244 26.5507812,24.953125 C26.6445317,25.0781256 26.7734367,25.1855464 26.9375,25.2753906 C27.1015633,25.3652348 27.2675773,25.4355466 27.4355469,25.4863281 C27.6035165,25.5371096 27.8808574,25.6113276 28.2675781,25.7089844 C28.7519555,25.8222662 29.1904277,25.9472649 29.5830078,26.0839844 C29.9755879,26.2207038 30.3095689,26.3867178 30.5849609,26.5820312 C30.8603529,26.7773447 31.0751945,27.0244126 31.2294922,27.3232422 C31.3837898,27.6220718 31.4609375,27.9882791 31.4609375,28.421875 Z" id="PS" fill="#FFFFFF"></path>
            <path d="M16.3789769,10.6243992 C16.625672,10.3847558 17.0428679,10.3726219 17.2864403,10.6092319 L18.1654869,11.4631513 C18.4090593,11.6997613 18.3921966,12.1004815 18.1455014,12.3404283 L17.9356544,12.5442769 L16.1691299,10.8282478 L16.3789769,10.6243992 Z M16.1603863,12.1238392 L16.6019393,12.5527706 L10.6853157,18.3002697 C10.6634566,18.1734711 10.6275453,18.0530426 10.5629049,17.99025 C10.4982645,17.9274573 10.3742924,17.8922692 10.2437626,17.871035 L16.1603863,12.1238392 Z M15.4977444,11.480442 L15.9396097,11.9093734 L10.0229861,17.6565692 C10.001127,17.5300739 9.96490341,17.4096455 9.90026304,17.3468528 C9.83593494,17.2840602 9.71289964,17.2476587 9.58268208,17.2264244 L15.4977444,11.480442 Z M11.3526416,18.9391167 C11.3323439,18.8180816 11.2970571,18.7052368 11.2358518,18.6442643 C11.1624678,18.5732813 11.036622,18.5377898 10.9042186,18.5165555 L16.8227159,12.7672363 L17.2642689,13.1964711 L11.3526416,18.9391167 Z M8.73704863,19.246103 L9.34879011,17.5097497 C9.50149128,17.5200635 9.64295064,17.5422078 9.67230424,17.5594985 C9.70353147,17.6040904 9.73538325,17.8137025 9.73881824,17.9993504 C9.74037961,18.0809505 9.80751816,18.1458666 9.89089487,18.1473833 C10.0823178,18.1504168 10.2977857,18.1813581 10.3346338,18.203199 C10.3658611,18.2474875 10.3977128,18.4570997 10.4011478,18.6430509 C10.4023969,18.7234376 10.4685987,18.7880503 10.5516631,18.7907804 C10.7474578,18.7968474 10.9679221,18.8308221 11.0050825,18.8535731 C11.0288152,18.8890646 11.0506743,19.0276938 11.0594179,19.1745133 L9.27259567,19.7687684 L8.73704863,19.246103 Z M18.3890738,11.2456521 L17.5103395,10.3917328 C17.1449809,10.0371211 16.5282431,10.050165 16.1582004,10.4099335 L9.12301723,17.2440185 C9.09803544,17.2682862 9.08523227,17.2992275 9.08054819,17.3319889 L8.05723179,20.2365281 C8.03787091,20.2914337 8.05192316,20.352103 8.09407992,20.3927514 C8.13592441,20.4333997 8.19837888,20.4473537 8.25490017,20.4285462 L11.2698894,19.4259872 C11.2926853,19.4184036 11.3117339,19.405663 11.3279721,19.3904957 C11.3289089,19.3895857 11.330158,19.389889 11.3310948,19.388979 L18.366278,12.554894 C18.7363207,12.1951255 18.7544325,11.6005671 18.3890738,11.2456521 L18.3890738,11.2456521 Z" id="Fill-1" fill="#FFFFFF"></path>
        </g>
    </g>
</svg>