<?xml version="1.0" encoding="UTF-8"?>
<svg width="48px" height="48px" viewBox="0 0 48 48" version="1.1" xmlns="http://www.w3.org/2000/svg" xmlns:xlink="http://www.w3.org/1999/xlink">
    <!-- Generator: Sketch 41.2 (35397) - http://www.bohemiancoding.com/sketch -->
    <title>image-svg+xml</title>
    <desc>Created with Sketch.</desc>
    <defs>
        <linearGradient x1="90.7002767%" y1="6.56534831%" x2="35.3271484%" y2="64.1438802%" id="linearGradient-1">
            <stop stop-color="#93DEF2" offset="0%"></stop>
            <stop stop-color="#5ABADF" offset="100%"></stop>
        </linearGradient>
    </defs>
    <g id="Page-1" stroke="none" stroke-width="1" fill="none" fill-rule="evenodd">
        <g id="image-svg+xml">
            <path d="M24,34 C28.9705627,34 33,29.9705627 33,25 C33,20.0294373 28.9705627,16 24,16 C19.0294373,16 15,20.0294373 15,25 C15,29.9705627 19.0294373,34 24,34 Z M24,32.8569336 L19,25.8569336 L29,25.8569336 L24,32.8569336 Z M26,25.8569336 L22,25.8569336 L22,17.8569336 L26,17.8569336 L26,25.8569336 Z" id="Combined-Shape" fill="#FFFFFF"></path>
            <path d="M31.7939428,22.402203 L32.6817369,20.6027442 L31.6828299,33.6804472 L31.6962292,33.7729298 L31.711575,33.7741345 L31.6754884,33.7765628 L31.6749854,33.783148 L18.6036367,34.6701353 L18.6529335,34.6408631 L18.6589674,34.6549639 L18.6655603,34.6333654 L26.7427428,29.8371813 L27.5118837,30.0830395 L27.35613,29.4729555 L28.4494764,28.8237327 L28.955303,28.1558074 L31.5877499,22.820133 L32.2524775,22.7767063 L31.7939428,22.402203 Z M31.6949317,33.772828 L31.67699,33.7569031 L31.6758878,33.771333 L31.6949317,33.772828 Z M29.8589774,17.1061993 L26.8488074,18.7696908 L24.949714,17.0838885 L29.8589774,17.1061993 Z M15,31.1459249 L16.2610051,28.8461301 L15.2409564,26.1063667 L15,31.1459249 Z" id="Combined-Shape" fill="#FFFFFF"></path>
            <path d="M15.1731316,26.0198009 L16.1994274,28.930911 L20.6589054,27.9304065 L25.7502247,23.198737 L27.1870387,18.6349337 L24.9246367,17.0374821 L21.0782588,18.4769734 C19.8664266,19.6041139 17.5148708,21.8342991 17.4300898,21.8762434 C17.3462013,21.9190801 15.8772597,24.6954331 15.1731316,26.0198009 L15.1731316,26.0198009 Z" id="path111" fill="#5ABADF"></path>
            <path d="M18.7767683,20.7901548 C21.403193,18.1860409 24.7890764,16.6474897 26.0884561,17.958471 C27.3870325,19.2694522 26.0099222,22.4554312 23.3834975,25.0586526 C20.7570729,27.661874 17.4131336,29.2852062 16.1146464,27.9742249 C14.8152668,26.6641361 16.1503437,23.3933762 18.7767683,20.7901548 L18.7767683,20.7901548 Z" id="path134" fill="#FFFFFF"></path>
            <path d="M27.164547,18.6141628 L32.2251898,22.7527718 L25.759149,23.1854398 L27.4984972,30.0750077 C29.5448416,27.9233563 31.3814648,25.610175 32.2809461,22.749041 L32.2745017,22.7494722 C32.615835,21.7056556 32.8223338,20.443025 32.5422898,19.3688716 L32.5460873,19.3694045 C32.2569397,18.1440966 31.3689707,17.3534027 29.8554076,17.1061993 L29.8462121,17.1112665 C29.8433007,17.1107654 29.8403866,17.1102662 29.8374698,17.109769 L27.1441128,18.5974516 L27.1461575,18.5991238 L27.1281383,18.6090532 L27.164547,18.6141628 Z M18.3390074,33.9072066 L18.6634296,34.6648699 C17.5978669,34.634438 15.0963826,34.5827663 15,31.1155823 L16.1901601,28.9384816 L16.1913955,28.9237716 C16.1933689,28.9224661 16.1957487,28.9222789 16.1985242,28.9231817 L16.2021047,28.9166321 L16.2071353,28.9283807 C16.385075,29.0749015 17.5656859,31.9851598 18.3390074,33.9072066 Z M20.6980794,27.8980627 L18.6589674,34.6522866 C20.4399525,34.485101 22.0016591,33.9350855 23.4191768,33.1479286 L23.4236569,33.1565722 C24.8992078,32.3563287 26.0818695,31.3961916 27.1582804,30.3643528 C27.2641912,30.2674303 27.3695482,30.1697595 27.4744015,30.0714379 L20.6990648,27.8947985 L20.6988273,27.8955855 L20.6963875,27.8947985 L20.6980794,27.8980627 Z" id="Combined-Shape" fill="#FFFFFF"></path>
            <path d="M5,7.99765987 C5,6.34209804 6.34419539,5 7.99761025,5 L31.020752,5 L43,17.0198975 L43,39.9943718 C43,41.6543344 41.6475599,43 40.0023401,43 L7.99765987,43 C6.34209804,43 5,41.6475599 5,40.0023401 L5,7.99765987 Z" id="Rectangle-219" fill="#5ABADF"></path>
            <path d="M31,5 L43,17 L43,7.99715203 C43,6.34187067 41.6583772,5 40.002848,5 L31,5 Z" id="Path-406" fill="url(#linearGradient-1)" transform="translate(37.000000, 11.000000) rotate(180.000000) translate(-37.000000, -11.000000) "></path>
            <path d="M24.5,15.2892728 L28.7311783,21.9683811 C28.8764038,22.1976262 28.9384534,22.6114425 28.8625319,22.88124 L27.1374681,29.0114884 C27.0620492,29.2794999 26.7801695,29.5 26.5089948,29.5 L21.4910052,29.5 C21.2278805,29.5 20.9384534,29.2812859 20.8625319,29.0114884 L19.1374681,22.88124 C19.0620492,22.6132286 19.1203556,22.2027417 19.2688217,21.9683811 L23.5,15.2892728 L23.5,20.5692818 C22.8873509,20.7735168 22.4456599,21.3516473 22.4456599,22.0329402 C22.4456599,22.884839 23.1362604,23.5754395 23.9881592,23.5754395 C24.840058,23.5754395 25.5306584,22.884839 25.5306584,22.0329402 C25.5306584,21.3604576 25.1003173,20.7884866 24.5,20.5773922 L24.5,15.2892728 Z M20,31.5 C20,32.0522848 20.4530363,32.5 20.9970302,32.5 L27.00297,32.5 C27.5536145,32.5 28,32.0561352 28,31.5 C27.9999999,30.9477153 27.5469635,30.5 27.0029697,30.5 L20.9970301,30.5 C20.4463856,30.5 20,30.9438648 20,31.5 Z" id="Combined-Shape" fill="#FFFFFF"></path>
        </g>
    </g>
</svg>