<?xml version="1.0" encoding="UTF-8"?>
<svg width="48px" height="48px" viewBox="0 0 48 48" version="1.1" xmlns="http://www.w3.org/2000/svg" xmlns:xlink="http://www.w3.org/1999/xlink">
    <!-- Generator: Sketch 41.2 (35397) - http://www.bohemiancoding.com/sketch -->
    <title>image-tiff</title>
    <desc>Created with Sketch.</desc>
    <defs>
        <linearGradient x1="90.7002767%" y1="6.56534831%" x2="35.3271484%" y2="64.1438802%" id="linearGradient-1">
            <stop stop-color="#93DEF2" offset="0%"></stop>
            <stop stop-color="#5ABADF" offset="100%"></stop>
        </linearGradient>
    </defs>
    <g id="Page-1" stroke="none" stroke-width="1" fill="none" fill-rule="evenodd">
        <g id="image-tiff">
            <path d="M24,34 C28.9705627,34 33,29.9705627 33,25 C33,20.0294373 28.9705627,16 24,16 C19.0294373,16 15,20.0294373 15,25 C15,29.9705627 19.0294373,34 24,34 Z M24,32.8569336 L19,25.8569336 L29,25.8569336 L24,32.8569336 Z M26,25.8569336 L22,25.8569336 L22,17.8569336 L26,17.8569336 L26,25.8569336 Z" id="Combined-Shape" fill="#FFFFFF"></path>
            <path d="M5,7.99765987 C5,6.34209804 6.34419539,5 7.99761025,5 L31.020752,5 L43,17.0198975 L43,39.9943718 C43,41.6543344 41.6475599,43 40.0023401,43 L7.99765987,43 C6.34209804,43 5,41.6475599 5,40.0023401 L5,7.99765987 Z" id="Rectangle-219" fill="#5ABADF"></path>
            <path d="M31,5 L43,17 L43,7.99715203 C43,6.34187067 41.6583772,5 40.002848,5 L31,5 Z" id="Path-406" fill="url(#linearGradient-1)" transform="translate(37.000000, 11.000000) rotate(180.000000) translate(-37.000000, -11.000000) "></path>
            <path d="M18.7636719,23.8457031 L16.8652344,23.8457031 L16.8652344,30.0859375 C16.8652344,30.4453143 16.7851571,30.7119132 16.625,30.8857422 C16.4648429,31.0595712 16.2578138,31.1464844 16.0039062,31.1464844 C15.7460925,31.1464844 15.5361336,31.0585946 15.3740234,30.8828125 C15.2119133,30.7070304 15.1308594,30.441408 15.1308594,30.0859375 L15.1308594,23.8457031 L13.2324219,23.8457031 C12.9355454,23.8457031 12.7148445,23.7802741 12.5703125,23.6494141 C12.4257805,23.518554 12.3535156,23.3457042 12.3535156,23.1308594 C12.3535156,22.908202 12.4287102,22.7324225 12.5791016,22.6035156 C12.7294929,22.4746087 12.9472642,22.4101562 13.2324219,22.4101562 L18.7636719,22.4101562 C19.0644546,22.4101562 19.2880852,22.4765618 19.4345703,22.609375 C19.5810554,22.7421882 19.6542969,22.9160146 19.6542969,23.1308594 C19.6542969,23.3457042 19.5800789,23.518554 19.4316406,23.6494141 C19.2832024,23.7802741 19.0605484,23.8457031 18.7636719,23.8457031 Z M20.7558594,30.0859375 L20.7558594,23.3183594 C20.7558594,22.9667951 20.8359367,22.7031259 20.9960938,22.5273438 C21.1562508,22.3515616 21.36328,22.2636719 21.6171875,22.2636719 C21.8789076,22.2636719 22.0908195,22.3505851 22.2529297,22.5244141 C22.4150399,22.6982431 22.4960938,22.9628888 22.4960938,23.3183594 L22.4960938,30.0859375 C22.4960938,30.441408 22.4150399,30.7070304 22.2529297,30.8828125 C22.0908195,31.0585946 21.8789076,31.1464844 21.6171875,31.1464844 C21.3671862,31.1464844 21.1611336,31.0576181 20.9990234,30.8798828 C20.8369133,30.7021475 20.7558594,30.4375018 20.7558594,30.0859375 Z M29.5742188,23.7519531 L26.1464844,23.7519531 L26.1464844,25.9492188 L29.0117188,25.9492188 C29.2773451,25.9492188 29.4755853,26.0087885 29.6064453,26.1279297 C29.7373053,26.2470709 29.8027344,26.406249 29.8027344,26.6054688 C29.8027344,26.8046885 29.7363288,26.96289 29.6035156,27.0800781 C29.4707025,27.1972662 29.2734388,27.2558594 29.0117188,27.2558594 L26.1464844,27.2558594 L26.1464844,30.0859375 C26.1464844,30.4453143 26.0654305,30.7119132 25.9033203,30.8857422 C25.7412101,31.0595712 25.5332044,31.1464844 25.2792969,31.1464844 C25.0214831,31.1464844 24.8115242,31.0585946 24.6494141,30.8828125 C24.4873039,30.7070304 24.40625,30.441408 24.40625,30.0859375 L24.40625,23.4765625 C24.40625,23.2265612 24.443359,23.0224617 24.5175781,22.8642578 C24.5917972,22.7060539 24.708007,22.5908207 24.8662109,22.5185547 C25.0244149,22.4462887 25.2265613,22.4101562 25.4726562,22.4101562 L29.5742188,22.4101562 C29.8515639,22.4101562 30.0576165,22.4716791 30.1923828,22.5947266 C30.3271491,22.7177741 30.3945312,22.8789053 30.3945312,23.078125 C30.3945312,23.281251 30.3271491,23.4443353 30.1923828,23.5673828 C30.0576165,23.6904303 29.8515639,23.7519531 29.5742188,23.7519531 Z M36.8222656,23.7519531 L33.3945312,23.7519531 L33.3945312,25.9492188 L36.2597656,25.9492188 C36.525392,25.9492188 36.7236322,26.0087885 36.8544922,26.1279297 C36.9853522,26.2470709 37.0507812,26.406249 37.0507812,26.6054688 C37.0507812,26.8046885 36.9843757,26.96289 36.8515625,27.0800781 C36.7187493,27.1972662 36.5214857,27.2558594 36.2597656,27.2558594 L33.3945312,27.2558594 L33.3945312,30.0859375 C33.3945312,30.4453143 33.3134774,30.7119132 33.1513672,30.8857422 C32.989257,31.0595712 32.7812513,31.1464844 32.5273438,31.1464844 C32.26953,31.1464844 32.0595711,31.0585946 31.8974609,30.8828125 C31.7353508,30.7070304 31.6542969,30.441408 31.6542969,30.0859375 L31.6542969,23.4765625 C31.6542969,23.2265612 31.6914059,23.0224617 31.765625,22.8642578 C31.8398441,22.7060539 31.9560539,22.5908207 32.1142578,22.5185547 C32.2724617,22.4462887 32.4746081,22.4101562 32.7207031,22.4101562 L36.8222656,22.4101562 C37.0996108,22.4101562 37.3056634,22.4716791 37.4404297,22.5947266 C37.575196,22.7177741 37.6425781,22.8789053 37.6425781,23.078125 C37.6425781,23.281251 37.575196,23.4443353 37.4404297,23.5673828 C37.3056634,23.6904303 37.0996108,23.7519531 36.8222656,23.7519531 Z" id="TIFF" fill="#FFFFFF"></path>
        </g>
    </g>
</svg>