<?xml version="1.0" encoding="UTF-8"?>
<svg width="48px" height="48px" viewBox="0 0 48 48" version="1.1" xmlns="http://www.w3.org/2000/svg" xmlns:xlink="http://www.w3.org/1999/xlink">
    <!-- Generator: Sketch 41.2 (35397) - http://www.bohemiancoding.com/sketch -->
    <title>svg</title>
    <desc>Created with Sketch.</desc>
    <defs>
        <linearGradient x1="90.7002767%" y1="6.56534831%" x2="35.3271484%" y2="64.1438802%" id="linearGradient-1">
            <stop stop-color="#93DEF2" offset="0%"></stop>
            <stop stop-color="#5ABADF" offset="100%"></stop>
        </linearGradient>
    </defs>
    <g id="Page-1" stroke="none" stroke-width="1" fill="none" fill-rule="evenodd">
        <g id="svg">
            <path d="M5,7.99765987 C5,6.34209804 6.34419539,5 7.99761025,5 L31.020752,5 L43,17.0198975 L43,39.9943718 C43,41.6543344 41.6475599,43 40.0023401,43 L7.99765987,43 C6.34209804,43 5,41.6475599 5,40.0023401 L5,7.99765987 Z" id="Rectangle-219" fill="#5ABADF"></path>
            <path d="M31,5 L43,17 L43,7.99715203 C43,6.34187067 41.6583772,5 40.002848,5 L31,5 Z" id="Path-406" fill="url(#linearGradient-1)" transform="translate(37.000000, 11.000000) rotate(180.000000) translate(-37.000000, -11.000000) "></path>
            <path d="M24.5,15.2892728 L28.7311783,21.9683811 C28.8764038,22.1976262 28.9384534,22.6114425 28.8625319,22.88124 L27.1374681,29.0114884 C27.0620492,29.2794999 26.7801695,29.5 26.5089948,29.5 L21.4910052,29.5 C21.2278805,29.5 20.9384534,29.2812859 20.8625319,29.0114884 L19.1374681,22.88124 C19.0620492,22.6132286 19.1203556,22.2027417 19.2688217,21.9683811 L23.5,15.2892728 L23.5,20.5692818 C22.8873509,20.7735168 22.4456599,21.3516473 22.4456599,22.0329402 C22.4456599,22.884839 23.1362604,23.5754395 23.9881592,23.5754395 C24.840058,23.5754395 25.5306584,22.884839 25.5306584,22.0329402 C25.5306584,21.3604576 25.1003173,20.7884866 24.5,20.5773922 L24.5,15.2892728 Z M20,31.5 C20,32.0522848 20.4530363,32.5 20.9970302,32.5 L27.00297,32.5 C27.5536145,32.5 28,32.0561352 28,31.5 C27.9999999,30.9477153 27.5469635,30.5 27.0029697,30.5 L20.9970301,30.5 C20.4463856,30.5 20,30.9438648 20,31.5 Z" id="Combined-Shape" fill="#FFFFFF"></path>
        </g>
    </g>
</svg>