<?xml version="1.0" encoding="UTF-8"?>
<svg width="48px" height="48px" viewBox="0 0 48 48" version="1.1" xmlns="http://www.w3.org/2000/svg" xmlns:xlink="http://www.w3.org/1999/xlink">
    <!-- Generator: Sketch 41.2 (35397) - http://www.bohemiancoding.com/sketch -->
    <title>text-x-readme</title>
    <desc>Created with Sketch.</desc>
    <defs>
        <linearGradient x1="90.7002767%" y1="6.56534831%" x2="35.3271484%" y2="64.1438802%" id="linearGradient-1">
            <stop stop-color="#93DEF2" offset="0%"></stop>
            <stop stop-color="#5ABADF" offset="100%"></stop>
        </linearGradient>
    </defs>
    <g id="Page-1" stroke="none" stroke-width="1" fill="none" fill-rule="evenodd">
        <g id="text-x-readme">
            <path d="M5,7.99765987 C5,6.34209804 6.34324319,5 8.0081984,5 L31.0023193,5 L43,17.0091553 L43,39.9931291 C43,41.653778 41.6475599,43 40.0023401,43 L7.99765987,43 C6.34209804,43 5,41.6475599 5,40.0023401 L5,7.99765987 Z" id="Rectangle-219" fill="#5ABADF"></path>
            <path d="M31,5 L43,17 L43,7.99715203 C43,6.34187067 41.6583772,5 40.002848,5 L31,5 Z" id="Path-406" fill="url(#linearGradient-1)" transform="translate(37.000000, 11.000000) rotate(180.000000) translate(-37.000000, -11.000000) "></path>
            <path d="M28.116,16.476 C27.648,15.504 26.604,15.072 26.028,15.684 C25.452,16.296 25.272,17.376 25.848,18.348 C26.388,19.284 27.396,19.392 27.864,18.888 C28.332,18.384 28.584,17.412 28.116,16.476 Z M22.248,33.54 C24.264,33.54 26.532,32.028 27.612,29.796 C28.044,28.896 28.152,28.14 27.864,27.564 C27.72,27.276 27.468,27.24 27.288,27.564 C26.208,30.048 24.228,32.424 22.608,32.496 C21.456,32.568 21.384,31.164 22.248,29.076 C23.004,27.276 24.516,24.828 25.272,23.244 C26.136,21.444 25.848,19.896 25.308,19.32 C25.02,18.996 24.768,19.104 24.444,19.536 C23.112,21.408 20.736,25.656 19.836,28.284 C18.828,31.236 19.512,33.54 22.248,33.54 Z" id="i" fill="#FFFFFF"></path>
        </g>
    </g>
</svg>