<svg xmlns="http://www.w3.org/2000/svg" xmlns:xlink="http://www.w3.org/1999/xlink" width="16" height="16" viewBox="0 0 16 16">
  <defs>
    <linearGradient id="application-x-archive-c" x1="50%" x2="50%" y1="0%" y2="100%">
      <stop offset="0%" stop-color="#0A804A"/>
      <stop offset="100%" stop-color="#005D33"/>
    </linearGradient>
    <path id="application-x-archive-b" d="M2.0085302,14 C0.899249601,14 0,13.1029399 0,11.9941413 L0,2.00585866 C0,0.898053512 0.901950359,-3.68622915e-15 2.0085302,-3.85003588e-15 L9.9914698,-5.03174832e-15 C11.1007504,-5.19595484e-15 12,0.897060126 12,2.00585866 L12,11.9941413 C12,13.1019465 11.0980496,14 9.9914698,14 L2.0085302,14 Z"/>
    <filter id="application-x-archive-a" width="133.3%" height="128.6%" x="-16.7%" y="-7.1%" filterUnits="objectBoundingBox">
      <feOffset dy="1" in="SourceAlpha" result="shadowOffsetOuter1"/>
      <feGaussianBlur in="shadowOffsetOuter1" result="shadowBlurOuter1" stdDeviation=".5"/>
      <feColorMatrix in="shadowBlurOuter1" values="0 0 0 0 0.00784313725   0 0 0 0 0.42745098   0 0 0 0 0.168627451  0 0 0 0.2 0"/>
    </filter>
  </defs>
  <g fill="none" fill-rule="evenodd" transform="translate(2 1)">
    <use fill="#000" filter="url(#application-x-archive-a)" xlink:href="#application-x-archive-b"/>
    <use fill="url(#application-x-archive-c)" xlink:href="#application-x-archive-b"/>
    <path fill="#FFF8F8" fill-opacity=".5" d="M4,4.5 L4,6.5 L0,6.5 L0,4.5 L4,4.5 Z M12,4.5 L12,6.5 L8,6.5 L8,4.5 L12,4.5 Z"/>
    <path fill="#FFF" fill-opacity=".6" d="M7.75,4 C7.88807119,4 8,4.11192881 8,4.25 L8,6.75 C8,6.88807119 7.88807119,7 7.75,7 L4.25,7 C4.11192881,7 4,6.88807119 4,6.75 L4,4.25 C4,4.11192881 4.11192881,4 4.25,4 L7.75,4 Z M7,5 L5,5 L5,6 L7,6 L7,5 Z"/>
  </g>
</svg>
