<svg xmlns="http://www.w3.org/2000/svg" xmlns:xlink="http://www.w3.org/1999/xlink" width="16" height="16" viewBox="0 0 16 16">
  <defs>
    <linearGradient id="application-x-smb-server-c" x1="50%" x2="50%" y1="0%" y2="100%">
      <stop offset="0%" stop-color="#3E77DA"/>
      <stop offset="100%" stop-color="#2762CC"/>
    </linearGradient>
    <path id="application-x-smb-server-b" d="M2.0085302,14 C0.899249601,14 0,13.1029399 0,11.9941413 L0,2.00585866 C0,0.898053512 0.901950359,-3.68622915e-15 2.0085302,-3.85003588e-15 L9.9914698,-5.03174832e-15 C11.1007504,-5.19595484e-15 12,0.897060126 12,2.00585866 L12,11.9941413 C12,13.1019465 11.0980496,14 9.9914698,14 L2.0085302,14 Z"/>
    <filter id="application-x-smb-server-a" width="133.3%" height="128.6%" x="-16.7%" y="-7.1%" filterUnits="objectBoundingBox">
      <feOffset dy="1" in="SourceAlpha" result="shadowOffsetOuter1"/>
      <feGaussianBlur in="shadowOffsetOuter1" result="shadowBlurOuter1" stdDeviation=".5"/>
      <feColorMatrix in="shadowBlurOuter1" values="0 0 0 0 0.22745098   0 0 0 0 0.494117647   0 0 0 0 0.960784314  0 0 0 0.2 0"/>
    </filter>
  </defs>
  <g fill="none" fill-rule="evenodd" transform="translate(2 1)">
    <use fill="#000" filter="url(#application-x-smb-server-a)" xlink:href="#application-x-smb-server-b"/>
    <use fill="url(#application-x-smb-server-c)" xlink:href="#application-x-smb-server-b"/>
    <path fill="#FFF" fill-opacity=".6" d="M2 7L10 7 10 4 2 4 2 7zM9 5L9 6 7 6 7 5 9 5zM2 11L10 11 10 8 2 8 2 11zM9 9L9 10 7 10 7 9 9 9z"/>
  </g>
</svg>
