<?xml version="1.0" encoding="UTF-8"?>
<svg width="16px" height="16px" viewBox="0 0 16 16" version="1.1" xmlns="http://www.w3.org/2000/svg" xmlns:xlink="http://www.w3.org/1999/xlink">
    <!-- Generator: Sketch 46.2 (44496) - http://www.bohemiancoding.com/sketch -->
    <title>application-x-deepinclone-dim-16</title>
    <desc>Created with Sketch.</desc>
    <defs>
        <linearGradient x1="50%" y1="2.86790497%" x2="50%" y2="100%" id="linearGradient-1">
            <stop stop-color="#0090FF" offset="0%"></stop>
            <stop stop-color="#0076FF" offset="100%"></stop>
        </linearGradient>
        <path d="M9.99265882,5.24291765 C9.99265882,7.84188235 7.88574118,9.9488 5.28677647,9.9488 C2.68781176,9.9488 0.580894118,7.84188235 0.580894118,5.24291765 C0.580894118,2.64395294 2.68781176,0.537035294 5.28677647,0.537035294 C7.88574118,0.537035294 9.99265882,2.64395294 9.99265882,5.24291765" id="path-2"></path>
        <path d="M1.23331765,7.09025882 C2.16658824,7.36225882 4.72075294,7.95030588 6.33355294,6.81167059 C7.37957647,6.07303529 7.2448,4.89016471 7.2448,4.89016471 C7.22748235,3.9904 6.65882353,3.09665882 6.65882353,3.09665882 C8.87002353,5.02362353 7.56310588,7.16442353 7.56310588,7.16442353 C6.89016471,8.48847059 5.43152941,9.28470588 4.26804706,9.56367059 C2.91595294,9.25270588 1.80009412,8.32376471 1.23331765,7.09025882 L1.23331765,7.09025882 Z M1.83228235,2.43087059 C2.10635294,3.86616471 2.72075294,5.07689412 3.12941176,5.51698824 C3.6576,6.08583529 4.43557647,6.68969412 5.43378824,6.44009412 C6.43237647,6.19049412 6.63548235,5.09910588 6.63548235,5.09910588 C6.85609412,4.17035294 6.54211765,3.06748235 6.52517647,3.04432941 C6.50823529,3.02098824 6.3584,2.99501176 6.3584,2.99501176 C6.51501176,4.4576 6.13025882,5.10475294 6.13025882,5.10475294 C5.57044706,6.25148235 4.74898824,5.89684706 4.74898824,5.89684706 C3.83491765,5.43115294 3.87802353,4.11821176 3.87802353,4.11821176 C3.85016471,3.20545882 4.21176471,1.69637647 4.90691765,0.817882353 C3.66927059,0.917082353 2.57487059,1.52432941 1.83228235,2.43087059 L1.83228235,2.43087059 Z M7.00310588,1.15632941 C6.46945882,1.59002353 5.5616,2.51614118 5.5616,2.51614118 C4.21477647,3.76395294 4.47604706,4.81468235 4.47604706,4.81468235 C4.69063529,5.91755294 5.35849412,5.17458824 5.35849412,5.17458824 C6.06061176,4.44894118 6.00828235,3.00367059 6.00828235,3.00367059 C5.72404706,3.04997647 5.54409412,3.20696471 5.54409412,3.20696471 C5.50927059,4.17035294 4.94042353,4.76818824 4.94042353,4.76818824 C4.71981176,5.01214118 4.5632,4.77985882 4.5632,4.77985882 C4.44724706,4.60555294 4.67915294,4.48376471 4.67915294,4.48376471 C5.00404706,4.19934118 5.10155294,3.71407059 5.09741176,3.53204706 C5.09270588,3.34945882 5.19002353,3.29976471 5.19002353,3.29976471 C5.64856471,2.94550588 6.10729412,2.73656471 6.10729412,2.73656471 C6.72244706,2.42315294 7.81948235,2.37082353 7.81948235,2.37082353 C8.11708235,2.3808 8.40150588,2.36611765 8.62908235,2.34616471 C8.18861176,1.83454118 7.63312941,1.42456471 7.00310588,1.15632941 L7.00310588,1.15632941 Z" id="path-4"></path>
    </defs>
    <g id="Page-1" stroke="none" stroke-width="1" fill="none" fill-rule="evenodd">
        <g id="application-x-deepinclone-dim-16">
            <g id="application-x-deepinclione-dim" transform="translate(2.000000, 1.000000)">
                <polygon id="path14361" fill="url(#linearGradient-1)" fill-rule="nonzero" points="0 14 0 0 12 0 12 14"></polygon>
                <g id="Imported-Layers" transform="translate(1.000000, 2.000000)">
                    <g>
                        <g id="Group-3">
                            <mask id="mask-3" fill="white">
                                <use xlink:href="#path-2"></use>
                            </mask>
                            <g id="Clip-2"></g>
                            <path d="M9.99265882,5.24291765 C9.99265882,7.84188235 7.88574118,9.9488 5.28677647,9.9488 C2.68781176,9.9488 0.580894118,7.84188235 0.580894118,5.24291765 C0.580894118,2.64395294 2.68781176,0.537035294 5.28677647,0.537035294 C7.88574118,0.537035294 9.99265882,2.64395294 9.99265882,5.24291765" id="Fill-1" mask="url(#mask-3)"></path>
                        </g>
                        <path d="M9.82080014,5.2404787 C9.82080014,7.74591062 7.7897614,9.77694936 5.28432948,9.77694936 C2.77889756,9.77694936 0.747858824,7.74591062 0.747858824,5.2404787 C0.747858824,2.73504678 2.77889756,0.703811765 5.28432948,0.703811765 C7.7897614,0.703811765 9.82080014,2.73504678 9.82080014,5.2404787" id="Fill-4" stroke="#FFFFFF"></path>
                        <mask id="mask-5" fill="white">
                            <use xlink:href="#path-4"></use>
                        </mask>
                        <use id="Clip-6" fill="#FFFFFF" xlink:href="#path-4"></use>
                    </g>
                </g>
            </g>
        </g>
    </g>
</svg>