<svg xmlns="http://www.w3.org/2000/svg" width="16" height="16" viewBox="0 0 16 16">
  <g fill="none" fill-rule="evenodd">
    <polygon fill="#007100" points="2 15 2 1 14 1 14 15"/>
    <path fill="#FFF" fill-opacity=".6" d="M7.43439168,10.9962095 C4.50724795,10.9962095 2.5,8.99773645 2.5,8.99773645 C2.55562663,8.74593876 3.55240921,5.06947209 7.43439168,5.00162665 C11.0457239,4.93850688 13.0625747,8.33463461 13.5,8.99773645 C12.75,9.74716386 10.3615356,10.9962095 7.43439168,10.9962095 Z M8,10 C9.1045695,10 10,9.1045695 10,8 C10,6.8954305 9.1045695,6 8,6 C6.8954305,6 6,6.8954305 6,8 C6,9.1045695 6.8954305,10 8,10 Z"/>
  </g>
</svg>
