<svg xmlns="http://www.w3.org/2000/svg" width="16" height="16" viewBox="0 0 16 16">
  <g fill="none" fill-rule="evenodd">
    <polygon fill="#A63B00" points="2 15 2 1 14 1 14 15"/>
    <path fill="#FFF" fill-opacity=".6" d="M4.14950417,2.4 C4.13304509,2.41628023 3.11212817,3.2 3.11212817,3.8 C3.11212817,4.4 3.73455374,5.2 3.73455375,5.2 C1.86727682,4 2.28222731,3 2.90465294,2.6 C3.52707857,2.2 4.35697938,1.6 4.56445459,1.2 C4.7719298,0.8 4.56445459,-5.32907052e-15 4.56445459,-5.32907052e-15 C4.56445459,-5.32907052e-15 5.74226475,0.824546305 4.14950417,2.4 Z M6.01678108,2 C6.01678108,2 3.73455378,3.4 4.56445458,4 C5.39435539,4.6 4.14950416,5.6 4.14950416,5.6 C4.14950416,5.6 4.35697941,5 4.14950419,4.6 C3.94202896,4.2 3.31960337,3.8 3.942029,3 C4.56445463,2.2 6.01678108,2 6.01678108,2 Z M2.69717773,5.2 C2.69717773,5.2 0.829900842,5.6 2.07475208,5.8 C3.31960332,6 5.80930595,5.6 5.80930587,5.6 C3.31960367,6.8 0.829900839,6.2 0.829900839,5.8 C0.829900839,5.4 2.69717773,5.2 2.69717773,5.2 Z M1.95230812,8.01904297 C1.95230812,8.01904297 0.0850312287,8.21904297 0.0850312285,8.61904297 C0.0850312283,9.01904297 6.01678114,9.6 7.0541568,8.4 C7.05415684,8.4 6.04548191,8.72027533 4.77192989,8.8 C3.49530928,8.87991677 1.95305704,8.7191633 1.32988247,8.61904297 C0.0850312311,8.41904297 1.95230812,8.01904297 1.95230812,8.01904297 Z M2.28396128,9.21322583 C2.28396128,9.21322583 1.23003057,9.362012 2.48997674,9.40881202 C3.12070786,9.43224019 4.41008018,9.43569211 5.66744564,9.20079012 C6.92178881,8.96645275 7.46909467,8.57657151 7.46909463,8.57657151 C7.24815707,8.90607201 6.76448687,9.14792935 6.16255939,9.31916157 C4.35773111,9.83258681 1.48971175,9.71105756 1.45315578,9.41333307 C1.40440804,9.01631461 2.28396128,9.21322583 2.28396128,9.21322583 Z M4.14950429,6.6 C5.39435535,6.4 5.60183075,6.8 5.60183075,6.8 C4.14950427,7.2 2.07475209,7.4 1.65980168,7 C1.24485127,6.6 2.0747521,6.4 2.0747521,6.4 C2.0747521,6.4 1.83022923,6.75158746 2.2822273,6.8 C2.73422537,6.84841254 2.90465323,6.8 4.14950429,6.6 Z M3.99674797,7.69756855 C4.91190922,7.55053711 5.06443627,7.8446 5.06443626,7.8446 C3.99674796,8.13866289 2.4714789,8.28569434 2.16642511,7.99163145 C1.86137132,7.69756855 2.47147891,7.55053711 2.47147891,7.55053711 C2.47147891,7.55053711 2.29171616,7.80900917 2.6240058,7.8446 C2.95629545,7.88019083 3.08158672,7.8446 3.99674797,7.69756855 Z M6.84668192,5.79999998 C6.84668192,5.19999994 6.01678108,5.4 6.01678108,5.4 C6.01678108,5.4 7.05415713,5.00000001 7.46910755,5.59999999 C7.88405797,6.19999998 6.4317315,7.19999997 5.80930587,7.19999995 C5.80930587,7.19999994 6.84668192,6.40000003 6.84668192,5.79999998 Z" transform="translate(4 3)"/>
  </g>
</svg>
