<svg xmlns="http://www.w3.org/2000/svg" xmlns:xlink="http://www.w3.org/1999/xlink" width="16" height="16" viewBox="0 0 16 16">
  <defs>
    <linearGradient id="text-x-c++hdr-c" x1="50%" x2="50%" y1="0%" y2="98.547%">
      <stop offset="0%" stop-color="#A7004E"/>
      <stop offset="100%" stop-color="#930045"/>
    </linearGradient>
    <path id="text-x-c++hdr-b" d="M2.0085302,14 C0.899249601,14 0,13.1029399 0,11.9941413 L0,2.00585866 C0,0.898053512 0.901950359,-4.57440757e-15 2.0085302,-4.73821429e-15 L9.9914698,-5.91992674e-15 C11.1007504,-6.08413326e-15 12,0.897060126 12,2.00585866 L12,11.9941413 C12,13.1019465 11.0980496,14 9.9914698,14 L2.0085302,14 Z"/>
    <filter id="text-x-c++hdr-a" width="133.3%" height="128.6%" x="-16.7%" y="-7.1%" filterUnits="objectBoundingBox">
      <feOffset dy="1" in="SourceAlpha" result="shadowOffsetOuter1"/>
      <feGaussianBlur in="shadowOffsetOuter1" result="shadowBlurOuter1" stdDeviation=".5"/>
      <feColorMatrix in="shadowBlurOuter1" values="0 0 0 0 0.920884284   0 0 0 0 0.0193547135   0 0 0 0 0.46292854  0 0 0 0.2 0"/>
    </filter>
  </defs>
  <g fill="none" fill-rule="evenodd" transform="translate(2 1)">
    <use fill="#000" filter="url(#text-x-c++hdr-a)" xlink:href="#text-x-c++hdr-b"/>
    <use fill="url(#text-x-c++hdr-c)" xlink:href="#text-x-c++hdr-b"/>
    <path fill="#FFF" fill-opacity=".6" d="M3,7 L3,10 L2,10 L2,3 L3,3 L3,6 L4.33402896,6 C4.70183461,6 5,6.30065012 5,6.66051865 L5,10 L4,10 L4,7.16129303 C4,7.07221335 3.93438721,7 3.82581329,7 L3,7 Z M1,9 L1,10 L-1.24344979e-14,10 L-1.24344979e-14,9 L1,9 Z"/>
    <polygon fill="#FFF" fill-opacity=".6" points="9 6 9 7 10 7 10 8 11 8 11 7 12 7 12 6 11 6 11 5 10 5 10 6"/>
    <polygon fill="#FFF" fill-opacity=".6" points="6 6 6 7 7 7 7 8 8 8 8 7 9 7 9 6 8 6 8 5 7 5 7 6"/>
  </g>
</svg>
