<svg xmlns="http://www.w3.org/2000/svg" xmlns:xlink="http://www.w3.org/1999/xlink" width="16" height="16" viewBox="0 0 16 16">
  <defs>
    <linearGradient id="text-x-generic-template-c" x1="50%" x2="50%" y1=".948%" y2="99.038%">
      <stop offset="0%" stop-color="#BCBECB"/>
      <stop offset="100%" stop-color="#A9A9B0"/>
    </linearGradient>
    <path id="text-x-generic-template-b" d="M2.0085302,14 C0.899249601,14 0,13.1029399 0,11.9941413 L0,2.00585866 C0,0.898053512 0.901950359,-4.57440757e-15 2.0085302,-4.73821429e-15 L9.9914698,-5.91992674e-15 C11.1007504,-6.08413326e-15 12,0.897060126 12,2.00585866 L12,11.9941413 C12,13.1019465 11.0980496,14 9.9914698,14 L2.0085302,14 Z"/>
    <filter id="text-x-generic-template-a" width="133.3%" height="128.6%" x="-16.7%" y="-7.1%" filterUnits="objectBoundingBox">
      <feOffset dy="1" in="SourceAlpha" result="shadowOffsetOuter1"/>
      <feGaussianBlur in="shadowOffsetOuter1" result="shadowBlurOuter1" stdDeviation=".5"/>
      <feColorMatrix in="shadowBlurOuter1" values="0 0 0 0 0   0 0 0 0 0   0 0 0 0 0  0 0 0 0.3 0"/>
    </filter>
  </defs>
  <g fill="none" fill-rule="evenodd" transform="translate(2 1)">
    <use fill="#000" filter="url(#text-x-generic-template-a)" xlink:href="#text-x-generic-template-b"/>
    <use fill="url(#text-x-generic-template-c)" xlink:href="#text-x-generic-template-b"/>
    <path fill="#484F9E" d="M10,2.98866667 L10,3.98866667 L2,3.98866667 L2,2.98866667 L10,2.98866667 Z M10,5 L10,6 L2,6 L2,5 L10,5 Z M10,7 L10,8 L2,8 L2,7 L10,7 Z M10,9 L10,10 L2,10 L2,9 L10,9 Z M5,11.0113333 L5,12 L2,12 L2,11.0113333 L5,11.0113333 Z M7,11.0113333 L7,12 L6,12 L6,11.0113333 L7,11.0113333 Z"/>
  </g>
</svg>
