<?xml version="1.0" encoding="UTF-8"?>
<svg width="24px" height="24px" viewBox="0 0 24 24" version="1.1" xmlns="http://www.w3.org/2000/svg" xmlns:xlink="http://www.w3.org/1999/xlink">
    <!-- Generator: Sketch 51.3 (57544) - http://www.bohemiancoding.com/sketch -->
    <title>align-vertical-top-out</title>
    <desc>Created with Sketch.</desc>
    <defs></defs>
    <g id="align-vertical-top-out" stroke="none" stroke-width="1" fill="none" fill-rule="evenodd">
        <g id="158" transform="translate(12.000000, 11.500000) scale(1, -1) translate(-12.000000, -11.500000) translate(5.000000, 5.000000)" fill="#DDDDDD" fill-rule="nonzero">
            <path d="M9,1 L9,6 L12,6 L12,1 L9,1 Z M8,0 L13,0 L13,7 L8,7 L8,0 Z" id="Path"></path>
            <path d="M2,3 L2,6 L5,6 L5,3 L2,3 Z M1,2 L6,2 L6,7 L1,7 L1,2 Z" id="Path"></path>
            <polygon id="Path" points="0 9 0 10 14 10 14 9"></polygon>
            <polygon id="Path" points="8 12 8 13 13 13 13 12"></polygon>
        </g>
    </g>
</svg>