<?xml version="1.0" encoding="UTF-8"?>
<svg width="24px" height="24px" viewBox="0 0 24 24" version="1.1" xmlns="http://www.w3.org/2000/svg" xmlns:xlink="http://www.w3.org/1999/xlink">
    <!-- Generator: Sketch 51.3 (57544) - http://www.bohemiancoding.com/sketch -->
    <title>burst</title>
    <desc>Created with Sketch.</desc>
    <defs></defs>
    <g id="burst" stroke="none" stroke-width="1" fill="none" fill-rule="evenodd">
        <g id="118" transform="translate(5.000000, 7.000000)" fill="#DDDDDD" fill-rule="nonzero">
            <path d="M0.25,0.0039062 C0.1115,0.0039063 0,0.1154062 0,0.2539062 L0,1.7539062 C0,1.8924062 0.1115,2.0039062 0.25,2.0039062 L1.75,2.0039062 C1.8885,2.0039062 2,1.8924062 2,1.7539062 L2,0.2539062 C2,0.1154062 1.8885,0.0039062 1.75,0.0039062 L0.25,0.0039062 Z" id="Path"></path>
            <path d="M4.25,0.0039062 C4.1115,0.0039063 4,0.1154062 4,0.2539062 L4,1.7539062 C4,1.8924062 4.1115,2.0039062 4.25,2.0039062 L5.75,2.0039062 C5.8885,2.0039062 6,1.8924062 6,1.7539062 L6,0.2539062 C6,0.1154062 5.8885,0.0039062 5.75,0.0039062 L4.25,0.0039062 Z" id="Path"></path>
            <path d="M8.25,0.0039062 C8.1115,0.0039063 8,0.1154062 8,0.2539062 L8,1.7539062 C8,1.8924062 8.1115,2.0039062 8.25,2.0039062 L9.75,2.0039062 C9.8885,2.0039062 10,1.8924062 10,1.7539062 L10,0.2539062 C10,0.1154062 9.8885,0.0039062 9.75,0.0039062 L8.25,0.0039062 Z" id="Path"></path>
            <path d="M12.25,0.0039062 C12.1115,0.0039063 12,0.1154062 12,0.2539062 L12,1.7539062 C12,1.8924062 12.1115,2.0039062 12.25,2.0039062 L13.75,2.0039062 C13.8885,2.0039062 14,1.8924062 14,1.7539062 L14,0.2539062 C14,0.1154062 13.8885,0.0039062 13.75,0.0039062 L12.25,0.0039062 Z" id="Path"></path>
            <path d="M0.25,4.0039062 C0.1115,4.0039063 0,4.1154063 0,4.2539062 L0,5.7539062 C0,5.8924063 0.1115,6.0039062 0.25,6.0039062 L1.75,6.0039062 C1.8885,6.0039062 2,5.8924063 2,5.7539062 L2,4.2539062 C2,4.1154063 1.8885,4.0039062 1.75,4.0039062 L0.25,4.0039062 Z" id="Path"></path>
            <path d="M4.25,4.0039062 C4.1115,4.0039063 4,4.1154063 4,4.2539062 L4,5.7539062 C4,5.8924063 4.1115,6.0039062 4.25,6.0039062 L5.75,6.0039062 C5.8885,6.0039062 6,5.8924063 6,5.7539062 L6,4.2539062 C6,4.1154063 5.8885,4.0039062 5.75,4.0039062 L4.25,4.0039062 Z" id="Path"></path>
            <path d="M8.25,4.0039062 C8.1115,4.0039063 8,4.1154063 8,4.2539062 L8,5.7539062 C8,5.8924063 8.1115,6.0039062 8.25,6.0039062 L9.75,6.0039062 C9.8885,6.0039062 10,5.8924063 10,5.7539062 L10,4.2539062 C10,4.1154063 9.8885,4.0039062 9.75,4.0039062 L8.25,4.0039062 Z" id="Path"></path>
            <path d="M12.25,4.0039062 C12.1115,4.0039063 12,4.1154063 12,4.2539062 L12,5.7539062 C12,5.8924063 12.1115,6.0039062 12.25,6.0039062 L13.75,6.0039062 C13.8885,6.0039062 14,5.8924063 14,5.7539062 L14,4.2539062 C14,4.1154063 13.8885,4.0039062 13.75,4.0039062 L12.25,4.0039062 Z" id="Path"></path>
            <path d="M0.25,8.003906 C0.1115,8.003906 0,8.115406 0,8.253906 L0,9.753906 C0,9.892406 0.1115,10.003906 0.25,10.003906 L1.75,10.003906 C1.8885,10.003906 2,9.892406 2,9.753906 L2,8.253906 C2,8.115406 1.8885,8.003906 1.75,8.003906 L0.25,8.003906 Z" id="Path"></path>
            <path d="M4.25,8.003906 C4.1115,8.003906 4,8.115406 4,8.253906 L4,9.753906 C4,9.892406 4.1115,10.003906 4.25,10.003906 L5.75,10.003906 C5.8885,10.003906 6,9.892406 6,9.753906 L6,8.253906 C6,8.115406 5.8885,8.003906 5.75,8.003906 L4.25,8.003906 Z" id="Path"></path>
            <path d="M8.25,8.003906 C8.1115,8.003906 8,8.115406 8,8.253906 L8,9.753906 C8,9.892406 8.1115,10.003906 8.25,10.003906 L9.75,10.003906 C9.8885,10.003906 10,9.892406 10,9.753906 L10,8.253906 C10,8.115406 9.8885,8.003906 9.75,8.003906 L8.25,8.003906 Z" id="Path"></path>
            <path d="M12.25,8.003906 C12.1115,8.003906 12,8.115406 12,8.253906 L12,9.753906 C12,9.892406 12.1115,10.003906 12.25,10.003906 L13.75,10.003906 C13.8885,10.003906 14,9.892406 14,9.753906 L14,8.253906 C14,8.115406 13.8885,8.003906 13.75,8.003906 L12.25,8.003906 Z" id="Path"></path>
        </g>
    </g>
</svg>