<?xml version="1.0" encoding="UTF-8"?>
<svg width="24px" height="24px" viewBox="0 0 24 24" version="1.1" xmlns="http://www.w3.org/2000/svg" xmlns:xlink="http://www.w3.org/1999/xlink">
    <!-- Generator: Sketch 51.3 (57544) - http://www.bohemiancoding.com/sketch -->
    <title>code-variable</title>
    <desc>Created with Sketch.</desc>
    <defs></defs>
    <g id="code-variable" stroke="none" stroke-width="1" fill="none" fill-rule="evenodd">
        <path d="M6,6 L6,11 L18,11 L18,6 L6,6 Z M5,5 L19,5 L19,12 L5,12 L5,5 Z" id="Path" fill="#DDDDDD" fill-rule="nonzero"></path>
        <path d="M5,13 L8,13 L8,16.9999998 L5,16.9999998 L5,13 Z M6,14 L6,16 L7,16 L7,14 L6,14 Z" id="Combined-Shape" fill="#DDDDDD" fill-rule="nonzero"></path>
        <path d="M11,14 L11,17.9999998 L12,17.9999998 L12,14 L11,14 Z M10,13 L13,13 L13,18.9999998 L10,18.9999998 L10,13 Z" id="Path" fill="#DDDDDD" fill-rule="nonzero"></path>
        <path d="M15,13 L19,13 L19,15.9999998 L15,15.9999998 L15,13 Z M16,14 L16,15 L18,15 L18,14 L16,14 Z" id="Combined-Shape" fill="#DDDDDD" fill-rule="nonzero"></path>
    </g>
</svg>