<?xml version="1.0" encoding="UTF-8"?>
<svg width="24px" height="24px" viewBox="0 0 24 24" version="1.1" xmlns="http://www.w3.org/2000/svg" xmlns:xlink="http://www.w3.org/1999/xlink">
    <!-- Generator: Sketch 51.3 (57544) - http://www.bohemiancoding.com/sketch -->
    <title>document-open-recent</title>
    <desc>Created with Sketch.</desc>
    <defs></defs>
    <g id="document-open-recent" stroke="none" stroke-width="1" fill="none" fill-rule="evenodd">
        <g id="111" transform="translate(5.000000, 5.000000)" fill="#DDDDDD" fill-rule="nonzero">
            <path d="M7,0 C8.79145,0 10.582369,0.6839313 11.949219,2.0507812 C14.682919,4.7844812 14.682919,9.215519 11.949219,11.949219 C9.215519,14.682919 4.7844812,14.682919 2.0507812,11.949219 C-0.68291875,9.215519 -0.68291875,4.7844812 2.0507812,2.0507812 C3.4176312,0.6839313 5.20855,0 7,0 Z M6.91327548,0.999723189 C5.35206905,1.02269475 3.86129991,1.65330778 2.7575277,2.75765379 C0.414829067,5.10085313 0.414829067,8.89939885 2.7575277,11.2425982 C5.10072704,13.5852968 8.89927276,13.5852968 11.2424721,11.2425982 C13.5851707,8.89939885 13.5851707,5.10085313 11.2424721,2.75765379 C10.0962019,1.61081169 8.53458725,0.976696295 6.91327548,0.999723189 Z" id="Combined-Shape"></path>
            <polygon id="Path" points="5.9960938 3 5.9960938 3.1328125 5.9960938 7.4140625 7.703125 9.121094 8.3183594 9.736328 8.4101562 9.828125 9.117188 9.121094 6.9960938 7 6.9960938 3.1328125 6.9960938 3"></polygon>
        </g>
    </g>
</svg>