<?xml version="1.0" encoding="UTF-8"?>
<svg width="24px" height="24px" viewBox="0 0 24 24" version="1.1" xmlns="http://www.w3.org/2000/svg" xmlns:xlink="http://www.w3.org/1999/xlink">
    <!-- Generator: Sketch 51.3 (57544) - http://www.bohemiancoding.com/sketch -->
    <title>edit-select-all-layers</title>
    <desc>Created with Sketch.</desc>
    <defs></defs>
    <g id="edit-select-all-layers" stroke="none" stroke-width="1" fill="none" fill-rule="evenodd">
        <polygon id="Path" fill="#DDDDDD" fill-rule="nonzero" points="4.50195312 4 4.08984375 4.21875 4.03710938 4.68359375 4.390625 4.98828125 4.5 5 5.5 5 5.9140625 4.78125 5.9648438 4.31640625 5.6113281 4.01171875 5.5019531 4"></polygon>
        <polygon id="Path" fill="#DDDDDD" fill-rule="nonzero" points="7.5019531 4 7.0898438 4.21875 7.0371094 4.68359375 7.390625 4.98828125 7.5 5 8.5 5 8.9140625 4.78125 8.9648438 4.31640625 8.6113281 4.01171875 8.5019531 4"></polygon>
        <polygon id="Path" fill="#DDDDDD" fill-rule="nonzero" points="10.5019531 4 10.0898438 4.21875 10.0371094 4.68359375 10.390625 4.98828125 10.5 5 11.5 5 11.9140625 4.78125 11.9648438 4.31640625 11.6113281 4.01171875 11.5019531 4"></polygon>
        <polygon id="Path" fill="#DDDDDD" fill-rule="nonzero" points="13.5019531 4 13.0898438 4.21875 13.0371094 4.68359375 13.390625 4.98828125 13.5 5 14.5 5 14.914062 4.78125 14.964844 4.31640625 14.611328 4.01171875 14.501953 4"></polygon>
        <polygon id="Path" fill="#DDDDDD" fill-rule="nonzero" points="16.501953 4 16.089844 4.21875 16.037109 4.68359375 16.390625 4.98828125 16.5 5 17.5 5 17.914062 4.78125 17.964844 4.31640625 17.611328 4.01171875 17.501953 4"></polygon>
        <polygon id="Path" fill="#DDDDDD" fill-rule="nonzero" points="19.498047 4.5 19 5.5 19.21875 5.9140625 19.683594 5.9648438 19.988281 5.6113281 19.998047 5.5"></polygon>
        <polygon id="Path" fill="#DDDDDD" fill-rule="nonzero" points="4.31640625 6.0351562 4.00976562 6.3886719 4 6.5 4 7.5 4.21875 7.9140625 4.68359375 7.9648438 4.98828125 7.6113281 4.99804688 7.5 4.99804688 6.5 4.77929688 6.0859375"></polygon>
        <polygon id="Path" fill="#DDDDDD" fill-rule="nonzero" points="7 7 7 8 13 8 13 7"></polygon>
        <polygon id="Path" fill="#DDDDDD" fill-rule="nonzero" points="19.316406 7.0351562 19.009766 7.3886719 19 7.5 19 8.5 19.21875 8.9140625 19.683594 8.9648438 19.988281 8.6113281 19.998047 8.5 19.998047 7.5 19.779297 7.0859375"></polygon>
        <polygon id="Path" fill="#DDDDDD" fill-rule="nonzero" points="4.31640625 9.0351562 4.00976562 9.3886719 4 9.5 4 10.5 4.21875 10.9140625 4.68359375 10.9648438 4.98828125 10.6113281 4.99804688 10.5 4.99804688 9.5 4.77929688 9.0859375"></polygon>
        <polygon id="Path" fill="#DDDDDD" fill-rule="nonzero" points="19.316406 10.0351562 19.009766 10.3886719 19 10.5 19 11.5 19.21875 11.9140625 19.683594 11.9648438 19.988281 11.6113281 19.998047 11.5 19.998047 10.5 19.779297 10.0859375"></polygon>
        <polygon id="Path" fill="#DDDDDD" fill-rule="nonzero" points="9 11 9 12 15 12 15 11"></polygon>
        <polygon id="Path" fill="#DDDDDD" fill-rule="nonzero" points="4.31640625 12.0351562 4.00976562 12.3886719 4 12.5 4 13.5 4.21875 13.9140625 4.68359375 13.9648438 4.98828125 13.6113281 4.99804688 13.5 4.99804688 12.5 4.77929688 12.0859375"></polygon>
        <polygon id="Path" fill="#DDDDDD" fill-rule="nonzero" points="19.316406 13.0351562 19.009766 13.3886719 19 13.5 19 14.5 19.21875 14.914062 19.683594 14.964844 19.988281 14.611328 19.998047 14.5 19.998047 13.5 19.779297 13.0859375"></polygon>
        <polygon id="Path" fill="#DDDDDD" fill-rule="nonzero" points="11 15 11 16 17 16 17 15"></polygon>
        <polygon id="Path" fill="#DDDDDD" fill-rule="nonzero" points="4.31640625 15.035156 4.00976562 15.388672 4 15.5 4 16.5 4.21875 16.914062 4.68359375 16.964844 4.98828125 16.611328 4.99804688 16.5 4.99804688 15.5 4.77929688 15.085938"></polygon>
        <polygon id="Path" fill="#DDDDDD" fill-rule="nonzero" points="19.316406 16.035156 19.009766 16.388672 19 16.5 19 17.5 19.21875 17.914062 19.683594 17.964844 19.988281 17.611328 19.998047 17.5 19.998047 16.5 19.779297 16.085938"></polygon>
        <polygon id="Path" fill="#DDDDDD" fill-rule="nonzero" points="4.31835938 18.035156 4.00976562 18.388672 4 18.5 4.5 19.5 5 18.5 4.78125 18.085938"></polygon>
        <polygon id="Path" fill="#DDDDDD" fill-rule="nonzero" points="6.5058594 19 6.0839844 19.21875 6.03125 19.683594 6.3847656 19.988281 6.5058594 20 7.5058594 20 7.9199219 19.78125 7.9707031 19.316406 7.6171875 19.011719 7.5058594 19"></polygon>
        <polygon id="Path" fill="#DDDDDD" fill-rule="nonzero" points="9.5058594 19 9.0839844 19.21875 9.03125 19.683594 9.3847656 19.988281 9.5058594 20 10.5058594 20 10.9199219 19.78125 10.9707031 19.316406 10.6171875 19.011719 10.5058594 19"></polygon>
        <polygon id="Path" fill="#DDDDDD" fill-rule="nonzero" points="12.5058594 19 12.0839844 19.21875 12.03125 19.683594 12.3847656 19.988281 12.5058594 20 13.5058594 20 13.9199219 19.78125 13.9707031 19.316406 13.6171875 19.011719 13.5058594 19"></polygon>
        <polygon id="Path" fill="#DDDDDD" fill-rule="nonzero" points="15.505859 19 15.083984 19.21875 15.03125 19.683594 15.384766 19.988281 15.505859 20 16.505859 20 16.919922 19.78125 16.970703 19.316406 16.617188 19.011719 16.505859 19"></polygon>
        <polygon id="Path" fill="#DDDDDD" fill-rule="nonzero" points="18.505859 19 18.083984 19.21875 18.03125 19.683594 18.384766 19.988281 18.505859 20 19.505859 19.5"></polygon>
    </g>
</svg>