<?xml version="1.0" encoding="UTF-8"?>
<svg width="24px" height="24px" viewBox="0 0 24 24" version="1.1" xmlns="http://www.w3.org/2000/svg" xmlns:xlink="http://www.w3.org/1999/xlink">
    <!-- Generator: Sketch 51.3 (57544) - http://www.bohemiancoding.com/sketch -->
    <title>escape-direction-up</title>
    <desc>Created with Sketch.</desc>
    <defs></defs>
    <g id="escape-direction-up" stroke="none" stroke-width="1" fill="none" fill-rule="evenodd">
        <g id="304" transform="translate(12.000000, 12.000000) scale(1, -1) translate(-12.000000, -12.000000) translate(5.000000, 5.000000)" fill="#DDDDDD" fill-rule="nonzero">
            <path d="M1,1 L1,13 L13,13 L13,1 L1,1 Z M0,0 L14,0 L14,14 L0,14 L0,0 Z" id="Shape"></path>
            <path d="M1,1 L1,13 L5,13 L5,9.38497335 C4.34807763,8.62226851 4,7.86661469 4,7 C4,5.34311525 5.34311525,4 7,4 C8.65688475,4 10,5.34311525 10,7 C10,7.86661469 9.65192237,8.62226851 9,9.38497335 L9,13 L13,13 L13,1 L1,1 Z M0,0 L14,0 L14,14 L8,14 L8,9 C8.5956,8.3763 9,7.7387 9,7 C9,5.8954 8.1046,5 7,5 C5.8954,5 5,5.8954 5,7 C5,7.7387 5.4044,8.3763 6,9 L6,14 L0,14 L0,0 Z" id="Shape"></path>
            <path d="M7,10 C5.34314575,10 4,8.65685425 4,7 C4,5.34314575 5.34314575,4 7,4 C8.65685425,4 10,5.34314575 10,7 C10,8.65685425 8.65685425,10 7,10 Z M7,9 C8.1045695,9 9,8.1045695 9,7 C9,5.8954305 8.1045695,5 7,5 C5.8954305,5 5,5.8954305 5,7 C5,8.1045695 5.8954305,9 7,9 Z" id="Oval"></path>
        </g>
    </g>
</svg>