<?xml version="1.0" encoding="UTF-8"?>
<svg width="24px" height="24px" viewBox="0 0 24 24" version="1.1" xmlns="http://www.w3.org/2000/svg" xmlns:xlink="http://www.w3.org/1999/xlink">
    <!-- Generator: Sketch 51.3 (57544) - http://www.bohemiancoding.com/sketch -->
    <title>exchange-positions-clockwise</title>
    <desc>Created with Sketch.</desc>
    <defs></defs>
    <g id="exchange-positions-clockwise" stroke="none" stroke-width="1" fill="none" fill-rule="evenodd">
        <path d="M4,4 L12,4 L12,11 L4,11 L4,4 Z M5,5 L5,10 L11,10 L11,5 L5,5 Z" id="Combined-Shape" fill="#DDDDDD" fill-rule="nonzero"></path>
        <path d="M13,5.078125 L13,9 L14,9 L14,6.3554688 C16.393,7.2015187 17.9948,9.4619 18,12 L19,12 C18.997,8.5227 16.4416,5.574925 13,5.078125 Z" id="Path" fill="#DDDDDD" fill-rule="nonzero"></path>
        <path d="M5,12 C5.003,15.4773 7.5584,18.425075 11,18.921875 L11,15 L10,15 L10,17.644531 C7.607,16.798481 6.0052,14.5381 6,12 L5,12 Z" id="Path" fill="#DDDDDD" fill-rule="nonzero"></path>
        <path d="M16.5,13 C14.5670034,13 13,14.5670034 13,16.5 C13.0011247,17.2550683 13.246401,17.989527 13.6992188,18.59375 L14.416016,17.876953 C14.1455245,17.4712862 13.9995607,16.9953766 13.9960938,16.507812 C13.9960938,15.8447707 14.2594859,15.2088859 14.7283269,14.740045 C15.1971679,14.271204 15.8330527,14.0078119 16.496094,14.007812 C16.9859224,14.0085952 17.4647293,14.1532562 17.873047,14.423828 L18.589844,13.7070312 C17.9842608,13.2523155 17.24753,13.0062818 16.490234,13.0058594 L16.5,13 Z" id="Path" fill="#DDDDDD" fill-rule="nonzero"></path>
        <path d="M19.304688,14.398438 L19.300781,14.40625 L18.583984,15.123047 C18.8544754,15.5287139 19.0004392,16.0046234 19.003906,16.492188 C19.003906,17.8728999 17.8846179,18.992188 16.503906,18.992188 C16.0140776,18.9914048 15.5352707,18.8467438 15.126953,18.576172 L14.410156,19.292969 C15.014379,19.7457869 15.7488377,19.9910633 16.503906,19.992188 C18.4369026,19.992188 20.003906,18.4251846 20.003906,16.492188 C20.0027816,15.7371198 19.7575055,15.0026611 19.304688,14.398438 Z" id="Path" fill="#DDDDDD" fill-rule="nonzero"></path>
    </g>
</svg>