<?xml version="1.0" encoding="UTF-8"?>
<svg width="24px" height="24px" viewBox="0 0 24 24" version="1.1" xmlns="http://www.w3.org/2000/svg" xmlns:xlink="http://www.w3.org/1999/xlink">
    <!-- Generator: Sketch 51.3 (57544) - http://www.bohemiancoding.com/sketch -->
    <title>focus-legacy-systray</title>
    <desc>Created with Sketch.</desc>
    <defs></defs>
    <g id="focus-legacy-systray" stroke="none" stroke-width="1" fill="none" fill-rule="evenodd">
        <g id="31" transform="translate(5.000000, 6.000000)" fill="#DDDDDD" fill-rule="nonzero">
            <g id="30">
                <path d="M0,0.0097656 L8,0.0097656 C8,0.0097656 10,0.0097656 10,2.0097656 L10,12.009766 L0,12.009766 L0,0.0097656 Z M1,1.0097656 L1,11.0097656 L9,11.0097656 L9,2.0097656 C9,1.45748085 8.55228475,1.0097656 8,1.0097656 L1,1.0097656 Z M10,0.0097656 C10,0.0097656 11,0.0097656 11,2.0097656 L11,12.009766 L12,12.009766 L12,2.0097656 C12,0.0097656 10,0.0097656 10,0.0097656 Z M12,0.0097656 C12,0.0097656 13,0.0097656 13,2.0097656 L13,12.009766 L14,12.009766 L14,2.0097656 C14,0.0097656 12,0.0097656 12,0.0097656 Z" id="Shape"></path>
            </g>
            <path d="M3,3.0097656 L7.5,6.0097656 L3,9.009766 L3,3.0097656 Z M4.03839518,4.92800665 L4.03839518,7.13485998 L5.68689642,6.03143332 L4.03839518,4.92800665 Z" id="Combined-Shape"></path>
        </g>
    </g>
</svg>