<?xml version="1.0" encoding="UTF-8"?>
<svg width="24px" height="24px" viewBox="0 0 24 24" version="1.1" xmlns="http://www.w3.org/2000/svg" xmlns:xlink="http://www.w3.org/1999/xlink">
    <!-- Generator: Sketch 51.3 (57544) - http://www.bohemiancoding.com/sketch -->
    <title>kdenlive-zindex-top</title>
    <desc>Created with Sketch.</desc>
    <defs></defs>
    <g id="kdenlive-zindex-top" stroke="none" stroke-width="1" fill="none" fill-rule="evenodd">
        <g id="218" transform="translate(11.500000, 11.500000) scale(1, -1) translate(-11.500000, -11.500000) translate(5.000000, 3.000000)" fill="#DDDDDD" fill-rule="nonzero">
            <path d="M6.5,1.996094 C5.94771475,1.996094 5.5,2.44380875 5.5,2.996094 C5.5,3.54837925 5.94771475,3.996094 6.5,3.996094 C7.05228525,3.996094 7.5,3.54837925 7.5,2.996094 C7.5,2.44379143 7.05229793,1.996094 6.5,1.996094 Z M6.5,0.996094 C7.60457,0.996094 8.5,1.891494 8.5,2.996094 C8.5,4.100664 7.60457,4.996094 6.5,4.996094 C5.39543,4.996094 4.5,4.100664 4.5,2.996094 C4.5,1.891524 5.39543,0.996094 6.5,0.996094 Z" id="Path"></path>
            <rect id="Rectangle" transform="translate(6.500000, 10.500000) rotate(-90.000000) translate(-6.500000, -10.500000) " x="2" y="10" width="9" height="1"></rect>
            <path d="M3.87543271,13.3887907 L10.8754327,13.3887907 L10.8754327,14.3887907 L3.87543271,14.3887907 L2.87543271,14.3887907 L2.87543271,6.38879071 L3.87543271,6.38879071 L3.87543271,13.3887907 Z" id="Combined-Shape" transform="translate(6.521879, 10.742344) rotate(-45.000000) translate(-6.521879, -10.742344) "></path>
        </g>
    </g>
</svg>