<?xml version="1.0" encoding="UTF-8"?>
<svg width="24px" height="24px" viewBox="0 0 24 24" version="1.1" xmlns="http://www.w3.org/2000/svg" xmlns:xlink="http://www.w3.org/1999/xlink">
    <!-- Generator: Sketch 51.3 (57544) - http://www.bohemiancoding.com/sketch -->
    <title>labplot-TeX-logo</title>
    <desc>Created with Sketch.</desc>
    <defs></defs>
    <g id="labplot-TeX-logo" stroke="none" stroke-width="1" fill="none" fill-rule="evenodd">
        <path d="M14.7890625,7.890625 L13.9980469,8.5 L16.263672,11.4453125 L13.9980469,14.390625 L14.7890625,15 L16.894531,12.2636719 L18.998047,15 L19.789062,14.390625 L17.525391,11.4453125 L19.789062,8.5 L18.998047,7.890625 L16.894531,10.6269531 L14.7890625,7.890625 Z M4.99804688,8 L4.99804688,9 L6.9980469,9 L6.9980469,15 L7.9980469,15 L7.9980469,9 L9.9980469,9 L9.9980469,8 L4.99804688,8 Z M8.9980469,10 L8.9980469,11 L8.9980469,12.5 L8.9980469,13.5 L8.9980469,16 L8.9980469,17 L13.9980469,17 L13.9980469,16 L9.9980469,16 L9.9980469,14 L13.9980469,14 L13.9980469,13 L9.9980469,13 L9.9980469,11 L13.9980469,11 L13.9980469,10 L8.9980469,10 Z" id="Shape" fill="#DDDDDD" fill-rule="nonzero"></path>
    </g>
</svg>