<?xml version="1.0" encoding="UTF-8"?>
<svg width="24px" height="24px" viewBox="0 0 24 24" version="1.1" xmlns="http://www.w3.org/2000/svg" xmlns:xlink="http://www.w3.org/1999/xlink">
    <!-- Generator: Sketch 51.3 (57544) - http://www.bohemiancoding.com/sketch -->
    <title>layer-visible-on</title>
    <desc>Created with Sketch.</desc>
    <defs></defs>
    <g id="layer-visible-on" stroke="none" stroke-width="1" fill="none" fill-rule="evenodd">
        <g id="255" transform="translate(5.000000, 5.000000)" fill="#DDDDDD" fill-rule="nonzero">
            <path d="M3.41421356,1 L2.41421356,2 L10.5857864,2 L11.5857864,1 L3.41421356,1 Z M3,0 L14,0 L11,3 L0,3 L3,0 Z M3.41421356,6 L2.41421356,7 L10.5857864,7 L11.5857864,6 L3.41421356,6 Z M3,5 L14,5 L11,8 L0,8 L3,5 Z M3.41421356,11 L2.41421356,12 L10.5857864,12 L11.5857864,11 L3.41421356,11 Z M3,10 L14,10 L11,13 L0,13 L3,10 Z" id="Shape"></path>
        </g>
    </g>
</svg>