<?xml version="1.0" encoding="UTF-8"?>
<svg width="24px" height="24px" viewBox="0 0 24 24" version="1.1" xmlns="http://www.w3.org/2000/svg" xmlns:xlink="http://www.w3.org/1999/xlink">
    <!-- Generator: Sketch 51.3 (57544) - http://www.bohemiancoding.com/sketch -->
    <title>object-unlocked</title>
    <desc>Created with Sketch.</desc>
    <defs></defs>
    <g id="object-unlocked" stroke="none" stroke-width="1" fill="none" fill-rule="evenodd">
        <g id="13" transform="translate(6.000000, 4.000000)" fill="#DDDDDD">
            <path d="M6,0 C8.216,0 10,1.8225 10,4.0625 L10,8 L11,8 C11.554,8 12,8.446 12,9 L12,15 C12,15.554 11.554,16 11,16 L1,16 C0.446,16 0,15.554 0,15 L0,9 C0,8.446 0.446,8 1,8 L9,8 L9,4 C9,2.02023658 7.58621797,1 6,1 C4.41378203,1 3,2.02023658 3,4 L3,5 L2,5 L2,4 C2.0334,1.7884 3.805,0 6,0 Z M1,9 L1,15 L11,15 L11,9 L1,9 Z" id="Combined-Shape"></path>
        </g>
    </g>
</svg>