<?xml version="1.0" encoding="UTF-8"?>
<svg width="24px" height="24px" viewBox="0 0 24 24" version="1.1" xmlns="http://www.w3.org/2000/svg" xmlns:xlink="http://www.w3.org/1999/xlink">
    <!-- Generator: Sketch 51.3 (57544) - http://www.bohemiancoding.com/sketch -->
    <title>sidebar-places</title>
    <desc>Created with Sketch.</desc>
    <defs></defs>
    <g id="sidebar-places" stroke="none" stroke-width="1" fill="none" fill-rule="evenodd">
        <g id="52" transform="translate(4.000000, 5.000000)" fill="#DDDDDD">
            <path d="M1.05925451,1.00917703 C1.04609398,1.01255291 1.02756532,1.0174097 1.01487171,1.02333339 C1.02294957,1.01956372 1.03708878,1.00353849 1.04920853,0.99403989 L1.05925451,1.00917703 Z M1.07142857,12.003906 C1.05759649,12.0101906 5.34331078,12.0101906 13.9285714,12.003906 C13.935305,12.0168159 13.935305,9.01681601 13.9285714,3.0039062 C13.9279138,3.0051695 11.9942661,3.0051695 8.12762833,3.0039062 L5.98477118,1.0039062 L1.07142857,1.0039062 C1.06469505,0.99099626 1.06469505,4.65766286 1.07142857,12.003906 Z M1.07142857,0.0039062 L6.42857143,0.0039062 L8.57142857,2.0039062 L13.9285714,2.0039062 C13.9285714,2.0039062 15,2.0039062 15,3.0039062 L15,12.003906 C15,13.003906 13.9285714,13.003906 13.9285714,13.003906 L1.07142857,13.003906 C0,13.003906 0,12.003906 0,12.003906 L0,1.0039062 C0,0.0039062 1.07142857,0.0039062 1.07142857,0.0039062 Z" id="Shape"></path>
        </g>
    </g>
</svg>