<?xml version="1.0" encoding="UTF-8"?>
<svg width="24px" height="24px" viewBox="0 0 24 24" version="1.1" xmlns="http://www.w3.org/2000/svg" xmlns:xlink="http://www.w3.org/1999/xlink">
    <!-- Generator: Sketch 51.3 (57544) - http://www.bohemiancoding.com/sketch -->
    <title>tools-rip-audio-cd</title>
    <desc>Created with Sketch.</desc>
    <defs></defs>
    <g id="tools-rip-audio-cd" stroke="none" stroke-width="1" fill="none" fill-rule="evenodd">
        <g id="music" transform="translate(4.000000, 5.000000)" fill="#DDDDDD">
            <path d="M14,0.99414062 L5,1 L5,6.1875 L5,8.994141 C5.53997674,10.031492 5.87331007,10.3661273 6,9.998047 L6,1.9980469 L14,1.9980469 L14,6.1855469 L14,10.2233474 C14.5199881,10.4763431 14.8533214,10.399941 15,9.994141 L15,0.99414062 L14,0.99414062 Z" id="Shape"></path>
            <path d="M12,13 C10.3431458,13 9,11.6568542 9,10 C9,8.34314575 10.3431458,7 12,7 C13.6568542,7 15,8.34314575 15,10 C15,11.6568542 13.6568542,13 12,13 Z M12,12 C13.1045695,12 14,11.1045695 14,10 C14,8.8954305 13.1045695,8 12,8 C10.8954305,8 10,8.8954305 10,10 C10,11.1045695 10.8954305,12 12,12 Z" id="Combined-Shape"></path>
            <path d="M3,13 C1.34314575,13 0,11.6568542 0,10 C0,8.34314575 1.34314575,7 3,7 C4.65685425,7 6,8.34314575 6,10 C6,11.6568542 4.65685425,13 3,13 Z M3,12 C4.1045695,12 5,11.1045695 5,10 C5,8.8954305 4.1045695,8 3,8 C1.8954305,8 1,8.8954305 1,10 C1,11.1045695 1.8954305,12 3,12 Z" id="Combined-Shape"></path>
        </g>
    </g>
</svg>