<?xml version="1.0" encoding="UTF-8"?>
<svg width="24px" height="24px" viewBox="0 0 24 24" version="1.1" xmlns="http://www.w3.org/2000/svg" xmlns:xlink="http://www.w3.org/1999/xlink">
    <!-- Generator: Sketch 51.3 (57544) - http://www.bohemiancoding.com/sketch -->
    <title>view-refresh</title>
    <desc>Created with Sketch.</desc>
    <defs></defs>
    <g id="view-refresh" stroke="none" stroke-width="1" fill="none" fill-rule="evenodd">
        <g id="21" transform="translate(5.000000, 5.000000)" fill="#DDDDDD">
            <path d="M12.4885979,4 L12.1973068,4 C11.1598786,2.20659589 9.22084707,1 7,1 C3.6862915,1 1,3.6862915 1,7 C1,10.3137085 3.6862915,13 7,13 C9.61243765,13 11.8349158,11.3303847 12.6585886,9 L13.7101213,9 C12.8495721,11.8914889 10.1710206,14 7,14 C3.13400675,14 0,10.8659932 0,7 C0,3.13400675 3.13400675,0 7,0 C8.97567015,0 10.7601747,0.81847727 12.0329334,2.1348516 L12.4885979,4 Z" id="Combined-Shape"></path>
            <polygon id="Triangle" transform="translate(12.750000, 3.750000) rotate(-225.000000) translate(-12.750000, -3.750000) " points="12.75 1.98223305 16.2855339 5.51776695 9.21446609 5.51776695"></polygon>
        </g>
    </g>
</svg>