<svg xmlns="http://www.w3.org/2000/svg" width="24" height="24" viewBox="0 0 24 24">
  <defs>
    <radialGradient id="deepin-launcher-a" cx="36.374%" cy="10.403%" r="83.143%" fx="36.374%" fy="10.403%">
      <stop offset="0%" stop-color="#00ABFF"/>
      <stop offset="100%" stop-color="#4021FF"/>
    </radialGradient>
    <linearGradient id="deepin-launcher-b" x1="49.999%" x2="49.999%" y1="0%" y2="100%">
      <stop offset="0%" stop-color="#FFF"/>
      <stop offset="100%" stop-color="#04ACF7"/>
    </linearGradient>
  </defs>
  <g fill="none" fill-rule="evenodd">
    <path fill="url(#deepin-launcher-a)" d="M1,12 C1,5.92485714 5.92485714,1 12,1 C18.0751429,1 23,5.92485714 23,12 C23,18.0751429 18.0751429,23 12,23 C5.92485714,23 1,18.0751429 1,12 Z"/>
    <path fill="url(#deepin-launcher-b)" fill-rule="nonzero" d="M12,2 C17.5227924,2 22,6.47738276 22,12.0002065 C22,17.5229575 17.5228651,22 12,22 C6.47713492,22 2,17.5229575 2,12.0002065 C2,6.47738276 6.47720761,2 12,2 Z M11.9730094,3.02564103 C11.5091401,3.02564103 11.0535146,3.06094362 10.6086727,3.12900863 C9.35047523,5.02230725 8.70136309,7.95401413 8.75492205,9.77141439 L8.75478498,9.89303866 C8.76348382,10.4397317 8.90068298,12.6805375 10.5391438,13.5450774 C10.5391438,13.5450774 12.2219498,14.2974936 13.3687567,11.8645213 C13.3687567,11.8645213 14.1569454,10.4914815 13.8361172,7.38836359 C13.8361172,7.38836359 14.1430635,7.44347688 14.1777684,7.49299897 C14.2124734,7.54212168 14.8556724,9.88204034 14.4037364,11.8525402 C14.4037364,11.8525402 13.9876623,14.1680972 11.9419963,14.697664 C9.8971016,15.2272309 8.30337167,13.9460465 7.22134742,12.7391453 C6.4391937,11.8667673 5.2891352,9.56716882 4.68348933,6.785224 C3.63946072,8.24792533 3.02564103,10.0389049 3.02564103,11.9732127 C3.02564103,13.4173824 3.367803,14.7816344 3.97548418,15.9893277 C6.03163785,16.5891314 11.0866871,17.703916 14.3140517,15.3386174 C16.4714639,13.757167 16.1934889,11.2245896 16.1934889,11.2245896 C16.1577714,9.29815417 14.9849188,7.38461538 14.9849188,7.38461538 C19.5454948,11.5103307 16.8499913,16.0938768 16.8499913,16.0938768 C15.6709036,18.5021528 13.3223168,20.0948626 11.1709775,20.8858433 C11.4354144,20.9084015 11.7028132,20.9203779 11.9730094,20.9203779 C16.9145219,20.9203779 20.9203779,16.9146129 20.9203779,11.9732127 C20.9203779,9.86777851 20.1931459,7.93215463 18.9761771,6.40385502 C18.571451,6.4282207 18.1157911,6.44006497 17.6452373,6.42462203 C17.6452373,6.42462203 15.2188323,6.53793117 13.858247,7.21656325 C13.858247,7.21656325 12.8436367,7.66898463 11.8294428,8.43606305 C11.8294428,8.43606305 11.6141972,8.54366597 11.6246056,8.9390252 C11.6337649,9.33316167 11.418103,10.3839205 10.6995075,10.9997842 C10.6995075,10.9997842 10.1865818,11.2634929 10.4430446,11.6409183 C10.4430446,11.6409183 10.789436,12.1438805 11.2773815,11.6156479 C11.2773815,11.6156479 12.5355482,10.3211521 12.6125704,8.23512274 C12.6125704,8.23512274 13.0105874,7.89519532 13.6392544,7.79492896 C13.6392544,7.79492896 13.7549957,10.9243807 12.2020633,12.4956279 C12.2020633,12.4956279 10.7249039,14.1043731 10.2502812,11.7163219 C10.2502812,11.7163219 9.6724071,9.44117218 12.6512896,6.73927907 C12.6512896,6.73927907 14.6592771,4.73395186 15.839589,3.79487179 L15.7559266,3.86238327 C14.6069028,3.32551788 13.3249693,3.02564103 11.9730094,3.02564103 Z"/>
  </g>
</svg>
