<svg xmlns="http://www.w3.org/2000/svg" xmlns:xlink="http://www.w3.org/1999/xlink" width="24" height="24" viewBox="0 0 24 24">
  <defs>
    <filter id="folder-stack-a" width="122.7%" height="127.8%" x="-11.4%" y="-13.9%" filterUnits="objectBoundingBox">
      <feOffset in="SourceAlpha" result="shadowOffsetOuter1"/>
      <feGaussianBlur in="shadowOffsetOuter1" result="shadowBlurOuter1" stdDeviation=".5"/>
      <feComposite in="shadowBlurOuter1" in2="SourceAlpha" operator="out" result="shadowBlurOuter1"/>
      <feColorMatrix in="shadowBlurOuter1" result="shadowMatrixOuter1" values="0 0 0 0 0   0 0 0 0 0   0 0 0 0 0  0 0 0 0.15 0"/>
      <feMerge>
        <feMergeNode in="shadowMatrixOuter1"/>
        <feMergeNode in="SourceGraphic"/>
      </feMerge>
    </filter>
    <linearGradient id="folder-stack-b" x1="50%" x2="50%" y1="0%" y2="50%">
      <stop offset="0%" stop-color="#008084"/>
      <stop offset="100%" stop-color="#02C3FF"/>
    </linearGradient>
    <linearGradient id="folder-stack-e" x1="50%" x2="50%" y1="0%" y2="11.796%">
      <stop offset="0%" stop-color="#FFF"/>
      <stop offset="100%" stop-color="#CEF5FF"/>
    </linearGradient>
    <path id="folder-stack-d" d="M3,3 L19,3 C20.1045695,3 21,3.8954305 21,5 L21,10 C21,11.1045695 20.1045695,12 19,12 L3,12 C1.8954305,12 1,11.1045695 1,10 L1,5 C1,3.8954305 1.8954305,3 3,3 Z"/>
    <filter id="folder-stack-c" width="115%" height="133.3%" x="-7.5%" y="-16.7%" filterUnits="objectBoundingBox">
      <feOffset in="SourceAlpha" result="shadowOffsetOuter1"/>
      <feGaussianBlur in="shadowOffsetOuter1" result="shadowBlurOuter1" stdDeviation=".5"/>
      <feColorMatrix in="shadowBlurOuter1" values="0 0 0 0 0   0 0 0 0 0   0 0 0 0 0  0 0 0 0.2 0"/>
    </filter>
    <filter id="folder-stack-f" width="115%" height="133.3%" x="-7.5%" y="-16.7%" filterUnits="objectBoundingBox">
      <feOffset dy="1" in="SourceAlpha" result="shadowOffsetInner1"/>
      <feComposite in="shadowOffsetInner1" in2="SourceAlpha" k2="-1" k3="1" operator="arithmetic" result="shadowInnerInner1"/>
      <feColorMatrix in="shadowInnerInner1" values="0 0 0 0 1   0 0 0 0 1   0 0 0 0 1  0 0 0 0.5 0"/>
    </filter>
    <radialGradient id="folder-stack-h" cx="50%" cy="0%" r="92.487%" fx="50%" fy="0%" gradientTransform="matrix(0 1 -.63636 0 .5 -.5)">
      <stop offset="0%" stop-color="#25D8C1"/>
      <stop offset="100%" stop-color="#008FA5"/>
    </radialGradient>
    <path id="folder-stack-g" d="M0,4 L22,4 L22,15.4144144 C22,16.8423939 20.8423939,18 19.4144144,18 L2.58558559,18 C1.1576061,18 6.18966261e-16,16.8423939 0,15.4144144 L0,4 L0,4 Z"/>
    <radialGradient id="folder-stack-j" cx="50%" cy="50%" r="56.897%" fx="50%" fy="50%" gradientTransform="matrix(0 .87879 -1 0 1 .06)">
      <stop offset="0%" stop-color="#FFF" stop-opacity=".217"/>
      <stop offset="100%" stop-color="#E9E9E9" stop-opacity=".745"/>
    </radialGradient>
    <linearGradient id="folder-stack-k" x1="50%" x2="50%" y1="0%" y2="100%">
      <stop offset="0%" stop-color="#FFF" stop-opacity=".418"/>
      <stop offset="100%" stop-color="#FFF" stop-opacity=".329"/>
    </linearGradient>
    <linearGradient id="folder-stack-l" x1="50%" x2="50%" y1="0%" y2="100%">
      <stop offset="0%" stop-color="#FFF" stop-opacity=".418"/>
      <stop offset="100%" stop-color="#FFF" stop-opacity=".329"/>
    </linearGradient>
    <linearGradient id="folder-stack-m" x1="50%" x2="50%" y1="0%" y2="100%">
      <stop offset="0%" stop-color="#FFF" stop-opacity=".418"/>
      <stop offset="100%" stop-color="#FFF" stop-opacity=".329"/>
    </linearGradient>
  </defs>
  <g fill="none" fill-rule="evenodd" filter="url(#folder-stack-a)" transform="translate(1 4)">
    <path fill="url(#folder-stack-b)" d="M13,1 C13.306433,1.61286606 13.9328289,2 14.618034,2 L19.4144144,2 C20.8423939,2 22,3.1576061 22,4.58558559 L22,15.4144144 C22,16.8423939 20.8423939,18 19.4144144,18 L2.58558559,18 C1.1576061,18 6.18966261e-16,16.8423939 0,15.4144144 L0,2.58558559 C-1.74877051e-16,1.1576061 1.1576061,-6.25862843e-16 2.58558559,0 L11.381966,0 C12.0671711,5.97813122e-16 12.693567,0.387133935 13,1 Z"/>
    <use fill="#000" filter="url(#folder-stack-c)" xlink:href="#folder-stack-d"/>
    <use fill="url(#folder-stack-e)" xlink:href="#folder-stack-d"/>
    <use fill="#000" filter="url(#folder-stack-f)" xlink:href="#folder-stack-d"/>
    <mask id="folder-stack-i" fill="#fff">
      <use xlink:href="#folder-stack-g"/>
    </mask>
    <use fill="url(#folder-stack-h)" xlink:href="#folder-stack-g"/>
    <g mask="url(#folder-stack-i)">
      <g transform="translate(3 5)">
        <path fill="url(#folder-stack-j)" stroke="#FFF" stroke-opacity=".2" d="M2.80880011,9.32758621 C3.80363383,9.32758621 4.80880011,8.00045745 4.80880011,6.72413793 C4.80880011,5.56823581 3.90950549,4.63793103 2.80880011,4.63793103 C1.70809473,4.63793103 0.808800109,5.56823581 0.808800109,6.72413793 C0.808800109,8.00045745 1.81396638,9.32758621 2.80880011,9.32758621 Z"/>
        <ellipse cx="2" cy="6.207" fill="#FFF" rx="1" ry="1"/>
        <ellipse cx="7.5" cy="2.069" fill="#FFF" rx="1" ry="1"/>
        <ellipse cx="13.5" cy="5.172" fill="#FFF" rx="1" ry="1"/>
        <path fill="url(#folder-stack-j)" stroke="#FFF" stroke-opacity=".2" d="M8 5.18965517C8.99483373 5.18965517 10 3.86252642 10 2.5862069 10 1.43030478 9.10070538.5 8 .5 6.89929462.5 6 1.43030478 6 2.5862069 6 3.86252642 7.00516627 5.18965517 8 5.18965517zM14.5 8.29310345C15.4948337 8.29310345 16.5 6.96597469 16.5 5.68965517 16.5 4.53375305 15.6007054 3.60344828 14.5 3.60344828 13.3992946 3.60344828 12.5 4.53375305 12.5 5.68965517 12.5 6.96597469 13.5051663 8.29310345 14.5 8.29310345z"/>
        <path stroke="url(#folder-stack-k)" stroke-linecap="round" d="M8,6.20689655 C8,10.2708108 8.12553475,12.396437 8.30880011,14.8208582"/>
        <path stroke="url(#folder-stack-l)" stroke-linecap="round" d="M15,9.31034483 C15,12.3425382 14.4693623,12.0618863 14.5013939,13.8708108"/>
        <path stroke="url(#folder-stack-m)" stroke-linecap="round" d="M4,10.3448276 C4,12.6892071 2.40808693,12.4722175 2.50418183,13.8708108" transform="matrix(-1 0 0 1 6.5 0)"/>
      </g>
    </g>
  </g>
</svg>
