<svg xmlns="http://www.w3.org/2000/svg" xmlns:xlink="http://www.w3.org/1999/xlink" width="24" height="24" viewBox="0 0 24 24">
  <defs>
    <filter id="folder-stack-mask-a" width="122.7%" height="127.8%" x="-11.4%" y="-13.9%" filterUnits="objectBoundingBox">
      <feOffset in="SourceAlpha" result="shadowOffsetOuter1"/>
      <feGaussianBlur in="shadowOffsetOuter1" result="shadowBlurOuter1" stdDeviation=".5"/>
      <feComposite in="shadowBlurOuter1" in2="SourceAlpha" operator="out" result="shadowBlurOuter1"/>
      <feColorMatrix in="shadowBlurOuter1" result="shadowMatrixOuter1" values="0 0 0 0 0   0 0 0 0 0   0 0 0 0 0  0 0 0 0.15 0"/>
      <feMerge>
        <feMergeNode in="shadowMatrixOuter1"/>
        <feMergeNode in="SourceGraphic"/>
      </feMerge>
    </filter>
    <path id="folder-stack-mask-b" d="M13,1.25 C13.3019828,2.00495694 14.0331777,2.5 14.8462912,2.5 L19.4144144,2.5 C20.8423939,2.5 22,3.6576061 22,5.08558559 L22,15.4144144 C22,16.8423939 20.8423939,18 19.4144144,18 L2.58558559,18 C1.1576061,18 6.18966261e-16,16.8423939 0,15.4144144 L0,2.58558559 C-1.74877051e-16,1.1576061 1.1576061,-6.25862843e-16 2.58558559,0 L11.1537088,0 C11.9668223,9.04800434e-16 12.6980172,0.495043055 13,1.25 Z"/>
    <filter id="folder-stack-mask-c" width="104.5%" height="105.6%" x="-2.3%" y="-2.8%" filterUnits="objectBoundingBox">
      <feMorphology in="SourceAlpha" radius="1" result="shadowSpreadInner1"/>
      <feOffset in="shadowSpreadInner1" result="shadowOffsetInner1"/>
      <feComposite in="shadowOffsetInner1" in2="SourceAlpha" k2="-1" k3="1" operator="arithmetic" result="shadowInnerInner1"/>
      <feColorMatrix in="shadowInnerInner1" values="0 0 0 0 1   0 0 0 0 1   0 0 0 0 1  0 0 0 0.4 0"/>
    </filter>
  </defs>
  <g fill="none" fill-rule="evenodd">
    <g filter="url(#folder-stack-mask-a)" transform="translate(1 4)">
      <use fill="#000" fill-opacity=".5" xlink:href="#folder-stack-mask-b"/>
      <use fill="#000" filter="url(#folder-stack-mask-c)" xlink:href="#folder-stack-mask-b"/>
    </g>
    <g fill="#FFF" transform="translate(5 7)">
      <path fill-opacity=".5" fill-rule="nonzero" d="M7,13.5 C10.5898509,13.5 13.5,10.5898509 13.5,6.99999999 C13.5,3.41014912 10.5898509,0.499999993 7,0.499999993 C3.41014913,0.499999993 0.5,3.41014912 0.5,6.99999999 C0.5,10.5898509 3.41014913,13.5 7,13.5 Z M7,12 C4.23857625,12 2,9.76142374 2,6.99999999 C2,4.23857624 4.23857625,1.99999999 7,1.99999999 C9.76142375,1.99999999 12,4.23857624 12,6.99999999 C12,9.76142374 9.76142375,12 7,12 Z"/>
      <polygon points="4.768 4.889 7.243 7.364 9.718 4.889 10.778 5.95 7.243 9.485 3.707 5.95"/>
    </g>
  </g>
</svg>
