<svg xmlns="http://www.w3.org/2000/svg" width="24" height="24" viewBox="0 0 24 24">
  <defs>
    <filter id="stack-documents-a" width="125%" height="127.8%" x="-12.5%" y="-13.9%" filterUnits="objectBoundingBox">
      <feOffset in="SourceAlpha" result="shadowOffsetOuter1"/>
      <feGaussianBlur in="shadowOffsetOuter1" result="shadowBlurOuter1" stdDeviation=".5"/>
      <feColorMatrix in="shadowBlurOuter1" result="shadowMatrixOuter1" values="0 0 0 0 0   0 0 0 0 0   0 0 0 0 0  0 0 0 0.5 0"/>
      <feMerge>
        <feMergeNode in="shadowMatrixOuter1"/>
        <feMergeNode in="SourceGraphic"/>
      </feMerge>
    </filter>
    <linearGradient id="stack-documents-b" x1="50%" x2="50%" y1="0%" y2="98.094%">
      <stop offset="0%" stop-color="#D9630F"/>
      <stop offset="100%" stop-color="#BEBEBE"/>
    </linearGradient>
    <linearGradient id="stack-documents-c" x1="50%" x2="50%" y1="0%" y2="96.707%">
      <stop offset="0%" stop-color="#FFA221"/>
      <stop offset="100%" stop-color="#FF7248"/>
    </linearGradient>
    <linearGradient id="stack-documents-d" x1="50%" x2="50%" y1="0%" y2="100%">
      <stop offset="0%" stop-color="#FFF"/>
      <stop offset="100%" stop-color="#FFE3C0"/>
    </linearGradient>
    <radialGradient id="stack-documents-e" cx="79.957%" cy="71.832%" r="100%" fx="79.957%" fy="71.832%" gradientTransform="matrix(0 -1 .71429 0 .286 1.518)">
      <stop offset="0%" stop-color="#FA9361"/>
      <stop offset="100%" stop-color="#5F1CF7"/>
    </radialGradient>
    <linearGradient id="stack-documents-f" x1="50%" x2="50%" y1="20.953%" y2="100%">
      <stop offset="0%" stop-color="#0E3BAC"/>
      <stop offset="100%" stop-color="#1A0570"/>
    </linearGradient>
    <linearGradient id="stack-documents-g" x1="50%" x2="50%" y1="0%" y2="100%">
      <stop offset="0%" stop-color="#242424"/>
      <stop offset="100%"/>
    </linearGradient>
    <linearGradient id="stack-documents-h" x1="0%" y1="92.893%" y2="92.893%">
      <stop offset="0%" stop-color="#FFE489"/>
      <stop offset="100%" stop-color="#8F3F09"/>
    </linearGradient>
    <linearGradient id="stack-documents-i" x1="11.779%" x2="76.358%" y1="79.249%" y2="79.249%">
      <stop offset="0%" stop-color="#6A6A6A"/>
      <stop offset="100%" stop-color="#0A0A0A"/>
    </linearGradient>
  </defs>
  <g fill="none" fill-rule="evenodd" filter="url(#stack-documents-a)" transform="translate(2 4)">
    <polygon fill="url(#stack-documents-b)" points="13 0 18 0 18 16.995 2 16.995 2 1 12 1"/>
    <polygon fill="#F1F1F1" points="1 17 1 2 19 2 19 17"/>
    <polygon fill="url(#stack-documents-c)" points="0 18 0 3 20 3 20 18"/>
    <g transform="translate(1 4)">
      <polygon fill="url(#stack-documents-d)" points=".009 1 13 1 12.984 14 0 14"/>
      <g transform="translate(.544 1.062)">
        <polygon fill="url(#stack-documents-e)" points=".456 .938 7.456 .938 7.456 5.938 .456 5.938"/>
        <ellipse cx="6.5" cy="4.499" fill="#FF5151" rx="1" ry="1"/>
        <path fill="url(#stack-documents-f)" d="M0.456140351,5.93846154 L6.45614035,5.93846154 L5.185944,3.8693608 C5.04147402,3.63402479 4.73358043,3.56036332 4.49824443,3.7048333 C4.46159398,3.72733257 4.4279994,3.75446626 4.39829255,3.7855625 L4.11149519,4.08577332 C3.92074469,4.2854452 3.60424482,4.2926774 3.40457295,4.1019269 C3.35697484,4.05645548 3.31882414,4.00203272 3.29230992,3.94178137 L2.84464397,2.9244979 C2.73341802,2.67174624 2.43835588,2.55701698 2.18560422,2.66824293 C2.07744641,2.71583887 1.98964107,2.80020322 1.93776157,2.9063729 L0.456140351,5.93846154 Z"/>
      </g>
      <path fill="#000" fill-opacity=".5" d="M9,2 L12,2 L12,3 L9,3 L9,2 Z M9,4 L12,4 L12,5 L9,5 L9,4 Z M9,6 L12,6 L12,7 L9,7 L9,6 Z M1,8 L12,8 L12,9 L1,9 L1,8 Z M1,10 L6,10 L6,11 L1,11 L1,10 Z M1,12 L12,12 L12,13 L1,13 L1,12 Z"/>
      <g transform="translate(15)">
        <polygon fill="url(#stack-documents-g)" points="0 5 3 5 3 14 0 14"/>
        <polygon fill="url(#stack-documents-h)" points="1.5 0 3 5 0 5"/>
        <polygon fill="url(#stack-documents-i)" points="1.832 1.015 1.221 1.015 1.526 0"/>
      </g>
    </g>
  </g>
</svg>
