<svg xmlns="http://www.w3.org/2000/svg" width="24" height="24" viewBox="0 0 24 24">
  <defs>
    <filter id="stack-videos-a" width="125%" height="127.8%" x="-12.5%" y="-13.9%" filterUnits="objectBoundingBox">
      <feOffset in="SourceAlpha" result="shadowOffsetOuter1"/>
      <feGaussianBlur in="shadowOffsetOuter1" result="shadowBlurOuter1" stdDeviation=".5"/>
      <feColorMatrix in="shadowBlurOuter1" result="shadowMatrixOuter1" values="0 0 0 0 0   0 0 0 0 0   0 0 0 0 0  0 0 0 0.5 0"/>
      <feMerge>
        <feMergeNode in="shadowMatrixOuter1"/>
        <feMergeNode in="SourceGraphic"/>
      </feMerge>
    </filter>
    <linearGradient id="stack-videos-b" x1="50%" x2="50%" y1="0%" y2="97.197%">
      <stop offset="0%" stop-color="#414141"/>
      <stop offset="100%" stop-color="#2B2B2B"/>
    </linearGradient>
    <linearGradient id="stack-videos-c" x1="23.162%" x2="50%" y1="0%" y2="100%">
      <stop offset="0%" stop-color="#FFE00B"/>
      <stop offset="100%" stop-color="#D38700"/>
    </linearGradient>
  </defs>
  <g fill="none" fill-rule="evenodd" filter="url(#stack-videos-a)" transform="translate(2 4)">
    <polygon fill="#161616" points="13 0 18 0 18 16.995 2 16.995 2 1 12 1"/>
    <polygon fill="#262626" points="1 17 1 2 19 2 19 17"/>
    <polygon fill="url(#stack-videos-b)" points="0 18 0 3 20 3 20 18"/>
    <path fill="#1B1B1B" d="M1,4 L4,4 L4,7 L1,7 L1,4 Z M1,9 L4,9 L4,12 L1,12 L1,9 Z M1,14 L4,14 L4,17 L1,17 L1,14 Z"/>
    <rect width="10" height="2" x="5" y="4" fill="#000" fill-opacity=".2"/>
    <rect width="10" height="7" x="5" y="7" fill="#000" fill-opacity=".2"/>
    <rect width="10" height="2" x="5" y="15" fill="#000" fill-opacity=".2"/>
    <polygon fill="url(#stack-videos-c)" points="12 10.5 8 13 8 8"/>
    <path fill="#1B1B1B" d="M16,4 L19,4 L19,7 L16,7 L16,4 Z M16,9 L19,9 L19,12 L16,12 L16,9 Z M16,14 L19,14 L19,17 L16,17 L16,14 Z"/>
  </g>
</svg>
