<svg xmlns="http://www.w3.org/2000/svg" width="24" height="24" viewBox="0 0 24 24">
  <g fill="none" fill-rule="evenodd">
    <path fill="#5C616C" fill-rule="nonzero" d="M10,7.37600567 L7.31578703,10 L5,10 L5,14 L7.31787929,14 L10,16.6232011 L10,7.37600567 Z M11,5 L11,19 L6.9101562,15 L4,15 L4,9 L6.9082031,9 L11,5 Z"/>
    <path fill="#CECFD2" fill-rule="nonzero" d="M13,5 C16.15,5.78 18.5,8.6 18.5,12 C18.5,15.4 16.15,18.22 13,19 L13,19 L12.9999841,17.9681395 C15.5776226,16.9844588 17.3855128,14.6876242 17.3855128,12.0111077 C17.3855128,9.33459118 15.5776226,7.03775653 12.9999841,6.05407585 Z"/>
    <path fill="#5C616C" fill-rule="nonzero" d="M13,9 C14.07,9.58 14.789062,10.7 14.789062,12 C14.789062,13.3 14.06,14.42 13,15 L13,15 L13.0004807,14.0119815 C13.4814201,13.4794353 13.7743006,12.7736918 13.7743006,12 C13.7743006,11.1672716 13.4920305,10.4830905 13.0008765,10.0084876 Z"/>
  </g>
</svg>
