<svg xmlns="http://www.w3.org/2000/svg" width="24" height="24" viewBox="0 0 24 24">
  <defs>
    <linearGradient id="color-management-a" x1="100%" x2="0%" y1="100%" y2="0%">
      <stop offset="0%" stop-color="#BEC900"/>
      <stop offset="31.3%" stop-color="#9EC80A"/>
      <stop offset="56.3%" stop-color="#71B93D"/>
      <stop offset="75%" stop-color="#35A48F"/>
      <stop offset="100%" stop-color="#018FCA"/>
    </linearGradient>
    <linearGradient id="color-management-b" x1="0%" x2="100%" y1="100%" y2="0%">
      <stop offset="0%" stop-color="#E81877"/>
      <stop offset="31.3%" stop-color="#DD1D8C"/>
      <stop offset="56.3%" stop-color="#6D57B1"/>
      <stop offset="75%" stop-color="#2A78C1"/>
      <stop offset="100%" stop-color="#018DCB"/>
    </linearGradient>
    <linearGradient id="color-management-c" x1="100%" x2="0%" y1="0%" y2="100%">
      <stop offset="0%" stop-color="#C1CC00"/>
      <stop offset="31.3%" stop-color="#DFCD00"/>
      <stop offset="56.3%" stop-color="#F0CC00"/>
      <stop offset="75%" stop-color="#FD8C08"/>
      <stop offset="100%" stop-color="#F25C13"/>
    </linearGradient>
    <linearGradient id="color-management-d" x1="0%" x2="100%" y1="0%" y2="100%">
      <stop offset="0%" stop-color="#E51561"/>
      <stop offset="31.3%" stop-color="#E4156C"/>
      <stop offset="56.3%" stop-color="#E71E2C"/>
      <stop offset="75%" stop-color="#E8301E"/>
      <stop offset="100%" stop-color="#E6320E"/>
    </linearGradient>
  </defs>
  <g fill="none" fill-rule="evenodd">
    <g fill-rule="nonzero" transform="rotate(15 -9.49 28.49)">
      <path fill="url(#color-management-a)" d="M7,-4.4408921e-16 L7,7 L14,7 C14,3.13400675 10.8659932,-4.4408921e-16 7,-4.4408921e-16 Z"/>
      <path fill="url(#color-management-b)" d="M7,0 C3.13400675,0 -4.4408921e-16,3.13400675 -4.4408921e-16,7 L7,7 L7,0 Z"/>
      <path fill="url(#color-management-c)" d="M7,7 L7,14 C10.8659932,14 14,10.8659932 14,7 L7,7 Z"/>
      <path fill="url(#color-management-d)" d="M0,7 C0,10.8659932 3.13400675,14 7,14 L7,7 L0,7 Z"/>
    </g>
    <g fill-rule="nonzero" opacity=".7" transform="translate(5 5)">
      <path fill="url(#color-management-a)" d="M7,-4.4408921e-16 L7,7 L14,7 C14,3.13400675 10.8659932,-4.4408921e-16 7,-4.4408921e-16 Z"/>
      <path fill="url(#color-management-b)" d="M7,0 C3.13400675,0 -4.4408921e-16,3.13400675 -4.4408921e-16,7 L7,7 L7,0 Z"/>
      <path fill="url(#color-management-c)" d="M7,7 L7,14 C10.8659932,14 14,10.8659932 14,7 L7,7 Z"/>
      <path fill="url(#color-management-d)" d="M0,7 C0,10.8659932 3.13400675,14 7,14 L7,7 L0,7 Z"/>
    </g>
    <g fill-rule="nonzero" opacity=".35" transform="rotate(45 3.464 15.536)">
      <path fill="url(#color-management-a)" d="M7,-4.4408921e-16 L7,7 L14,7 C14,3.13400675 10.8659932,-4.4408921e-16 7,-4.4408921e-16 Z"/>
      <path fill="url(#color-management-b)" d="M7,0 C3.13400675,0 -4.4408921e-16,3.13400675 -4.4408921e-16,7 L7,7 L7,0 Z"/>
      <path fill="url(#color-management-c)" d="M7,7 L7,14 C10.8659932,14 14,10.8659932 14,7 L7,7 Z"/>
      <path fill="url(#color-management-d)" d="M0,7 C0,10.8659932 3.13400675,14 7,14 L7,7 L0,7 Z"/>
    </g>
    <g fill-rule="nonzero" opacity=".3" transform="rotate(60 5.17 13.83)">
      <path fill="url(#color-management-a)" d="M7,-4.4408921e-16 L7,7 L14,7 C14,3.13400675 10.8659932,-4.4408921e-16 7,-4.4408921e-16 Z"/>
      <path fill="url(#color-management-b)" d="M7,0 C3.13400675,0 -4.4408921e-16,3.13400675 -4.4408921e-16,7 L7,7 L7,0 Z"/>
      <path fill="url(#color-management-c)" d="M7,7 L7,14 C10.8659932,14 14,10.8659932 14,7 L7,7 Z"/>
      <path fill="url(#color-management-d)" d="M0,7 C0,10.8659932 3.13400675,14 7,14 L7,7 L0,7 Z"/>
    </g>
  </g>
</svg>
