<svg xmlns="http://www.w3.org/2000/svg" width="24" height="24" viewBox="0 0 24 24">
  <g fill="#536076" transform="translate(4 4)">
    <polygon points="7.5 0 7.5 1.813 8.5 1.813 8.5 0"/>
    <polygon points="2.688 1.969 1.969 2.688 3.25 4 3.969 3.25"/>
    <polygon points="13.311 1.969 12.031 3.25 12.75 4 14.031 2.688"/>
    <path d="M8,3 C10.761,3 13,5.2386 13,8 C13,10.761 10.761,13 8,13 C5.2386,13 3,10.761 3,8 C3,5.2386 5.2386,3 8,3 Z M8,4 C5.790861,4 4,5.790861 4,8 C4,10.209139 5.790861,12 8,12 C10.209139,12 12,10.209139 12,8 C12,5.790861 10.209139,4 8,4 Z"/>
    <polygon points="0 7.5 0 8.5 1.813 8.5 1.813 7.5"/>
    <polygon points="14.188 7.5 14.188 8.5 16 8.5 16 7.5"/>
    <polygon points="3.25 12.031 1.969 13.313 2.688 14.031 3.969 12.75"/>
    <polygon points="12.75 12.031 12.031 12.75 13.311 14.031 14.031 13.313"/>
    <polygon points="7.5 14.188 7.5 16 8.5 16 8.5 14.188"/>
  </g>
</svg>
