<svg xmlns="http://www.w3.org/2000/svg" width="24" height="24" viewBox="0 0 24 24">
  <path fill="#536076" d="M7.9960938 8C3.9976937 8 2 11 2 14L.25 14C0 14 0 14.157 0 14.25L0 14.75C0 15 .13824 15 .25 15L15.744141 15C15.939141 15.006 15.994141 14.871 15.994141 14.75L15.994141 14.25C16.015141 14.104 15.994141 14 15.744141 14L13.994141 14C13.994141 11 11.994994 8 7.9960938 8zM7.99999967 9C11.9165 9 13 11.9366667 13 14L3.00325483 14C3.00325483 12.0033333 4.17283283 9 7.99999967 9zM11.017578 0L10.996094 3.2324219C10.992094 3.6911219 11.442094 3.993 11.996094 4L11.996094 4 12.994141 4C13.548141 4 13.995 3.7301844 14 3.2714844L14 3.2714844 14.021484.0390625C14.364484.1811225 14.705281.35952938 14.988281.59960938 16.344281 1.7488094 16.326219 3.5830656 14.949219 4.6972656 14.661219 4.9299656 14.340141 5.1186531 13.994141 5.2519531L13.994141 5.2519531 13.994141 10C13.7141326 9.56788831 13.3945307 9.13577661 13.0016169 8.72383595L13 5 12 5 12.0017604 7.85529193C11.7015391 7.64051355 11.3684918 7.43744856 10.996094 7.25 10.996094 7.25 10.99675 5.2066125 10.96875 5.1953125 10.62575 5.0532125 10.284953 4.8748656 10.001953 4.6347656 8.6466531 3.4855656 8.6637156 1.6512094 10.041016.53710938 10.329016.30432938 10.671578.13322 11.017578 0L11.017578 0z" transform="translate(4 4)"/>
</svg>
