<svg xmlns="http://www.w3.org/2000/svg" width="24" height="24" viewBox="0 0 24 24">
  <g fill="none" fill-rule="evenodd">
    <polygon fill="#536076" fill-rule="nonzero" points="5 5 5 6 6 6 6 5"/>
    <polygon fill="#536076" fill-rule="nonzero" points="7 5 7 6 12 6 12 5"/>
    <path fill="#536076" fill-rule="nonzero" d="M11.9431893,12 L14,12 L14,14.8795349 L16.0568107,12 L14,12 L14,9.12046505 L11.9431893,12 Z M15,6 L15,11 L18,11 L13,18 L13,13 L10,13 L15,6 Z"/>
    <polygon fill="#536076" fill-rule="nonzero" points="5 8 5 9 6 9 6 8"/>
    <polygon fill="#536076" fill-rule="nonzero" points="7 8 7 9 12 9 12 8"/>
    <polygon fill="#536076" fill-rule="nonzero" points="5 11 5 12 6 12 6 11"/>
    <polygon fill="#536076" fill-rule="nonzero" points="7 11 7 12 10 12 10 11"/>
  </g>
</svg>
