<svg xmlns="http://www.w3.org/2000/svg" width="24" height="24" viewBox="0 0 24 24">
  <path fill="#536076" d="M11.5,3.97399795 L14,8 L12,8 L12,13 L16,13 L16.0002925,11.9147505 C15.4175435,11.7089149 15,11.1532187 15,10.5 C15,9.67157288 15.6715729,9 16.5,9 C17.3284271,9 18,9.67157288 18,10.5 C18,11.1528467 17.5829319,11.7082819 17.000703,11.9143985 L17,13 C17,13.9444444 16.1080247,13.9969136 16.0089163,13.9998285 L16,14 L12,14 L12.000703,16.0856015 C12.5829319,16.2917181 13,16.8471533 13,17.5 C13,18.3284271 12.3284271,19 11.5,19 C10.6715729,19 10,18.3284271 10,17.5 C10,16.8467813 10.4175435,16.2910851 11.0002925,16.0852495 L11,14 L7,14 C7,14 6.10802469,14 6.00891632,13.1575789 L6,13 L6.00029246,11.9147505 C5.41754351,11.7089149 5,11.1532187 5,10.5 C5,9.67157288 5.67157288,9 6.5,9 C7.32842712,9 8,9.67157288 8,10.5 C8,11.1528467 7.58293192,11.7082819 7.00070296,11.9143985 L7,13 L11,13 L11,8 L9,8 L11.5,3.97399795 Z"/>
</svg>
