<svg xmlns="http://www.w3.org/2000/svg" width="24" height="24" viewBox="0 0 24 24">
  <g fill="#536076" transform="matrix(1 0 0 -1 5 18)">
    <path d="M6.5,1 C3.46246192,1 1,3.46248624 1,6.5 C1,9.53757223 3.46242763,12 6.5,12 C9.53757237,12 12,9.53757223 12,6.5 C12,3.46248624 9.53753808,1 6.5,1 Z M6.5,0 C10.0898571,0 13,2.91023581 13,6.5 C13,10.089857 10.0898571,13 6.5,13 C2.91014286,13 0,10.089857 0,6.5 C0,2.91023581 2.91014286,0 6.5,0 Z"/>
    <path d="M6.5,3 C7.052288,3 7.5,3.44771208 7.5,4 C7.5,4.552288 7.052288,5 6.5,5 C5.947712,5 5.5,4.552288 5.5,4 C5.5,3.44771208 5.947712,3 6.5,3 Z"/>
    <polygon points="6 6.004 7 6.004 7 11.004 6 11.004"/>
  </g>
</svg>
