<svg xmlns="http://www.w3.org/2000/svg" width="24" height="24" viewBox="0 0 24 24">
  <path fill="#536076" d="M11.4921875,3.99609375 L11.5,4 C10.6715729,4 10,4.67157288 10,5.5 C10.0002006,5.69567319 10.0386839,5.88941671 10.1132812,6.0703125 L6.2207031,9.1855469 C5.99986926,9.06413921 5.75200656,9.00032631 5.5,9 C4.67157288,9 4,9.67157288 4,10.5 C4.00089085,11.1349021 4.40140776,11.7004758 5,11.9121094 L5,17.087891 C4.40140789,17.2995246 4.00089102,17.8650981 4,18.5 C4,19.3284271 4.67157288,20 5.5,20 C6.13490209,19.9991092 6.70047579,19.5985922 6.9121094,19 L11.0878906,19 C11.2995242,19.5985922 11.8650979,19.9991092 12.5,20 C13.3284271,20 14,19.3284271 14,18.5 C13.9990195,18.2493169 13.9352271,18.0028769 13.8144531,17.783203 L16.931641,13.8867188 C17.1119288,13.9610666 17.3049844,13.999545 17.5,14 C18.3284271,14 19,13.3284271 19,12.5 C19,11.6715729 18.3284271,11 17.5,11 C17.299329,11.0002508 17.1007483,11.040764 16.916016,11.1191406 L12.8222656,6.2070312 C12.936664,5.98768957 12.9950378,5.74345915 12.9921875,5.49609375 C12.9921875,5.09826906 12.8341523,4.71673817 12.5528477,4.4354336 C12.2715431,4.15412902 11.8900122,3.99609375 11.4921875,3.99609375 Z M12.5,18 C12.7761424,18 13,18.2238576 13,18.5 C13,18.7761424 12.7761424,19 12.5,19 C12.2238576,19 12,18.7761424 12,18.5 C12,18.2238576 12.2238576,18 12.5,18 Z M5.5,18 C5.77614237,18 6,18.2238576 6,18.5 C6,18.7761424 5.77614237,19 5.5,19 C5.22385763,19 5,18.7761424 5,18.5 C5,18.2238576 5.22385763,18 5.5,18 Z M10.78125,6.8164062 C11.0016831,6.93681648 11.248824,6.99994489 11.5,7 C11.7000133,6.99948844 11.8979044,6.95898053 12.0820312,6.8808594 L16.177734,11.7949219 C16.0599436,12.0133857 15.9982031,12.2576639 15.998047,12.5058594 C15.9987009,12.7572043 16.0625036,13.0043555 16.183594,13.2246094 L13.0683594,17.119141 C12.8873291,17.0452124 12.6935904,17.0073932 12.4980469,17.007812 C11.8631448,17.0087028 11.2975711,17.4092198 11.0859375,18.007812 L6.9101562,18.007812 C6.75897092,17.5830611 6.4247509,17.2488412 6,17.097656 L6,11.921875 C6.59859224,11.7102414 6.99910915,11.1446677 7,10.5097656 C6.99954506,10.3147499 6.96106662,10.1216942 6.8867188,9.9414062 L10.78125,6.8261719 L10.78125,6.8164062 Z M17.5,12 C17.7761424,12 18,12.2238576 18,12.5 C18,12.7761424 17.7761424,13 17.5,13 C17.2238576,13 17,12.7761424 17,12.5 C17,12.2238576 17.2238576,12 17.5,12 Z M5.5,10 C5.77614237,10 6,10.2238576 6,10.5 C6,10.7761424 5.77614237,11 5.5,11 C5.22385763,11 5,10.7761424 5,10.5 C5,10.2238576 5.22385763,10 5.5,10 Z M11.5,5 C11.7761424,5 12,5.22385763 12,5.5 C12,5.77614237 11.7761424,6 11.5,6 C11.2238576,6 11,5.77614237 11,5.5 C11,5.22385763 11.2238576,5 11.5,5 Z"/>
</svg>
