<svg xmlns="http://www.w3.org/2000/svg" width="24" height="24" viewBox="0 0 24 24">
  <g fill="#536076" transform="matrix(-1 0 0 1 18 4)">
    <path d="M1,0.00915525 C1,0.00915525 0,0.00915525 0,1.01418633 L0,11.0605709 L0,14.0795908 C0,15.0846219 1,15.0078047 1,15.0078047 L11,15.0078047 C12,15.0078047 12,14.0795908 12,14.0795908 L12,9.5471358 L11,10.0496513 L11,13.9357715 L1,13.9357715 L1,1.01811228 L11,1.01811228 L11,5.02449593 L12,5.52611882 L12,1.01418633 C12,0.00915525 11,0.00915525 11,0.00915525 L1,0.00915525 Z"/>
    <polygon points="8 5 8 7 4 7 4 8 8 8 8 10 12.5 7.5"/>
  </g>
</svg>
