<svg xmlns="http://www.w3.org/2000/svg" width="24" height="24" viewBox="0 0 24 24">
  <g fill="none" fill-rule="evenodd">
    <path fill="#536076" fill-rule="nonzero" d="M11 7.9L9 7.9C7.34697201 7.9 5.02522284 8.96700382 5.00020393 11.4592924 5.00008839 11.4728642 5 11.4864238 5 11.5 5 11.5135762 5.00008839 11.5271358 5.00026471 11.5406783 5.02522284 14.0329962 7.34697201 15.1 9 15.1L11 15.1 11 16 10 16 10 15.1 11 15.1 11 16 9 16C6.23 16 4 13.993 4 11.5 4 9.007 6.23 7 9 7L11 7 11 7.9zM11 7L11 7.9 10 7.9 10 7 11 7zM9 7L11 7 11 7.9 9 7.9C7.338 7.9 5 8.97861783 5 11.5 5 14.0213822 7.338 15.1 9 15.1L11 15.1 11 16 9 16C6.23 16 4 13.993 4 11.5 4 9.007 6.23 7 9 7zM13.5 7L15 7C15.968328 7 16.8706659 7.24526346 17.6348173 7.67081372 18.9652566 8.47793751 19.964192 9.84513431 19.999058 11.4151351 19.9997115 11.4433482 20 11.4716427 20 11.5 20 11.5283573 19.9997115 11.5566518 19.9991369 11.5848812 19.964192 13.1548657 18.9652566 14.5220625 17.6348173 15.3291863 16.8706659 15.7547365 15.968328 16 15 16L13.75 16 14 16 14 15.1 13.5 15.1 15 15.1C15.5865771 15.1 16.2573586 14.9204356 16.8798416 14.5931652 18.1500579 14.0024507 19 12.8313104 19 11.5 19 10.1686896 18.1500579 8.99754934 16.8798416 8.40683481 16.2573586 8.07956443 15.5865771 7.9 15 7.9L13.75 7.9 14 7.9 14 7 13.5 7zM13.5 15.1L13 15.1 13 16 13 15.1 13.5 15.1zM13.75 16L13.5 16 13.75 16zM13.5 7L13 7 13 7.9 13 7 13.5 7zM13 7L15 7C17.77 7 20 9.007 20 11.5 20 13.993 17.77 16 15 16L13 16 13 15.1 15 15.1C16.662 15.1 19 13.6584419 19 11.5 19 9.3415581 16.662 7.9 15 7.9L13 7.9 13 7z"/>
    <polygon fill="#536076" fill-rule="nonzero" points="9 11.012 9 12 15 12 15 11.012"/>
  </g>
</svg>
