<svg xmlns="http://www.w3.org/2000/svg" width="24" height="24" viewBox="0 0 24 24">
  <path fill="#536076" d="M6 1L6 5 3 5 3 6 10 6 10 5 7 5 7 1 6 1zM5 0L8 0 8 4 11 4 11 7 2 7 2 4 5 4 5 0zM2.97068004 9C2.88298368 10.4908777 2.60013742 11.9141285 2.14339194 13L8.86475782 13C8.88994881 12.9721022 8.92093858 12.9330609 8.95559956 12.882829 9.1248505 12.637545 9.30226608 12.2401504 9.46012503 11.736365 9.70860162 10.9433856 9.88549003 9.9677286 9.96028763 9L2.97068004 9zM8.8230627 13.0410905C8.82129846 13.0422256 8.81963683 13.0433569 8.81807989 13.0444802 8.82240896 13.0413567 8.82735051 13.0373171 8.83285413 13.0323603L8.8230627 13.0410905zM2 8L11 8C11 10.761 10.105 14 9 14L0 14C1.1046 14 2 10.761 2 8z" transform="translate(6 5)"/>
</svg>
