<svg xmlns="http://www.w3.org/2000/svg" width="24" height="24" viewBox="0 0 24 24">
  <path fill="#536076" d="M18.8992294,4.51025998 L19.5,4.38664338 L19.5,6.38671252 L19.1257093,6.48393923 C18.6074052,6.6185752 18.2142707,6.87932392 17.8963035,7.29796031 C17.9784727,7.48897382 18,7.68750609 18,8 C18,8.19922461 17.96611,8.39156316 17.9198991,8.52177986 C17.8755394,8.80842425 17.8170543,9.07921605 17.7434292,9.34625149 C18.2384549,10.3226326 18.4980342,11.4025177 18.5,12.5 C18.5,14.3565154 17.7625021,16.1369928 16.4497475,17.4497475 C15.1369928,18.7625021 13.3565154,19.5 11.5,19.5 C9.64348457,19.5 7.86300718,18.7625021 6.55025253,17.4497475 C5.23749788,16.1369928 4.5,14.3565154 4.5,12.5 C4.5,8.63400675 7.63400675,5.5 11.5009056,5.50000082 C12.6605212,5.50210119 13.7999896,5.79222878 14.8175685,6.34243313 C15.0105024,6.25272836 15.196509,6.17448983 15.405743,6.09691871 C15.6070794,6.03409017 15.8008483,6 16,6 C16.1311835,6 16.2469291,6.00968053 16.3585237,6.03123032 C16.9759668,5.26282027 17.8922883,4.7174516 18.8992294,4.51025998 Z M18.5,5.66980851 C18.612939,5.6248033 18.7286675,5.58537631 18.8465699,5.55190246 L18.8742907,5.51606077 C18.7447204,5.54971829 18.6200074,5.58943561 18.5,5.63524377 L18.5,5.66980851 Z M16.3464064,7.07351087 C16.2178034,7.01591313 16.1443108,7 16,7 C15.9106031,7 15.8146059,7.01688899 15.729624,7.04261755 C15.4968828,7.12954096 15.2786171,7.22659111 15.0207336,7.35431014 L14.7776286,7.47471002 L14.5441664,7.33653764 C13.6220484,6.79079096 12.570606,6.50193997 11.5,6.5 C8.1862915,6.5 5.5,9.1862915 5.5,12.5 C5.5,14.0912989 6.13214104,15.6174224 7.25735931,16.7426407 C8.38257758,17.867859 9.90870106,18.5 11.5,18.5 C13.0912989,18.5 14.6174224,17.867859 15.7426407,16.7426407 C16.867859,15.6174224 17.5,14.0912989 17.5,12.5008959 C17.4982093,11.50108 17.2465969,10.517561 16.7680294,9.63971801 L16.6674403,9.45520593 L16.7288694,9.25423492 C16.8168814,8.96629555 16.883659,8.67903707 16.9483313,8.29684759 C16.9832475,8.1845604 17,8.08948368 17,8 C17,7.71542273 16.9973094,7.70422322 16.903052,7.57710313 L16.7018819,7.3057953 L16.7370437,7.24846652 L16.3464064,7.07351087 Z"/>
</svg>
