<svg xmlns="http://www.w3.org/2000/svg" width="24" height="24" viewBox="0 0 24 24">
  <g fill="none" fill-rule="evenodd">
    <path fill="#536076" fill-rule="nonzero" d="M6,6 L6,18 L18,18 L18,6 L6,6 Z M5,5 L19,5 L19,19 L5,19 L5,5 Z"/>
    <path fill="#536076" fill-rule="nonzero" d="M8 8L8 10 9.7747529 10C9.8457783 9.92095265 9.92095265 9.8457783 10 9.7747529L10 8 8 8zM7 7L11 7 11 10.2773C10.6994 10.4521 10.4521 10.6994 10.2773 11L7 11 7 7zM14 9.7747529C14.0790474 9.8457783 14.1542217 9.92095265 14.2252471 10L16 10 16 8 14 8 14 9.7747529zM13 7L17 7 17 11 13.7227 11C13.5479 10.6994 13.3006 10.4521 13 10.2773L13 7zM8 16L10 16 10 14.2252471C9.92095265 14.1542217 9.8457783 14.0790474 9.7747529 14L8 14 8 16zM7 13L10.2773 13C10.4521 13.3006 10.6994 13.5479 11 13.7227L11 17 7 17 7 13zM14 14.2252471L14 16 16 16 16 14 14.2252471 14C14.1542217 14.0790474 14.0790474 14.1542217 14 14.2252471zM13.7227 13L17 13 17 17 13 17 13 13.7227C13.3006 13.5479 13.5479 13.3006 13.7227 13z"/>
  </g>
</svg>
