<svg xmlns="http://www.w3.org/2000/svg" width="24" height="24" viewBox="0 0 24 24">
  <g fill="#536076" transform="translate(6 5)">
    <path d="M7.02769783,12.2506471 C7.61555628,11.6976159 8.25806043,10.9236866 8.85029848,10.0498314 C10.1544437,8.12626868 10.9936912,6.08209095 11.0000011,4.686862 C11.0007502,3.51125822 10.5271727,2.60765848 9.64135529,1.97696932 C8.75492374,1.34641993 7.4734837,1 5.99999047,1 C4.52639474,1 3.24473374,1.34647361 2.35919106,1.97679403 C1.47262398,2.6078436 0.998949882,3.51137114 0.999990475,4.68354813 C1.00551689,6.08153284 1.84477383,8.12482416 3.15009919,10.0499755 C3.7432057,10.9251121 4.38501822,11.6984997 4.97147445,12.2498693 C5.46293309,12.7111607 5.85677819,12.9612742 5.97520282,12.9960145 C6.15619458,12.9526684 6.54556057,12.7031885 7.02769783,12.2506471 Z M5.99999787,6.66133815e-16 C7.6292,6.66133815e-16 9.127,0.3839 10.221,1.1621 C11.314,1.9403 12.001,3.1201 11.9999979,4.6875 C11.992,6.4588 10.944,8.7437 9.678,10.611 C9.045,11.545 8.356,12.374 7.7129,12.979 C7.0694,13.583 6.4755,13.967 6.0059,14 C5.5245,13.968 4.9306,13.583 4.2871,12.979 C3.6436,12.374 2.9553,11.545 2.3223,10.611 C1.0562,8.7437 0.007,6.4588 -2.13444332e-06,4.6875 C-0.0014,3.1201 0.686,1.9403 1.7793,1.1621 C2.8726,0.3839 4.3708,6.66133815e-16 5.99999787,6.66133815e-16 Z"/>
    <path d="M5.44173108,5.53526541 L4.07138417,5.7403025 L5.06079475,6.76177869 L4.83154376,8.11343351 L5.98250577,7.48234318 L7.13816041,8.12658609 L6.92410315,6.76514804 L7.92013327,5.75271401 L6.55811892,5.5406488 L6.0058853,4.35054154 L5.44173108,5.53526541 Z M6.0176,2 L7.2402,4.6348 L10,5.0645 L7.9902,7.1074 L8.445,10 L5.9785,8.625 L3.5,9.984 L3.9902,7.0938 L2,5.0391 L4.7676,4.625 L6.0176,2 Z"/>
  </g>
</svg>
