<svg xmlns="http://www.w3.org/2000/svg" width="24" height="24" viewBox="0 0 24 24">
  <g fill="#536076" transform="translate(4 4)">
    <path d="M8.00061211,12.9775233 L8,15 L7,15 L7.00039328,12.9776139 C7.16494653,12.9924308 7.33158932,13 7.5,13 C7.66875367,13 7.83573225,12.9923999 8.00061211,12.9775233 Z M12.9776139,7.00039328 L15,7 L15,8 L12.9775233,8.00061211 C12.9923999,7.83573225 13,7.66875367 13,7.5 C13,7.33158932 12.9924308,7.16494653 12.9776139,7.00039328 Z M2,7.5 C2,7.66875367 2.0076001,7.83573225 2.0224767,8.00061211 L0,8 L0,7 L2.02238608,7.00039328 C2.00756924,7.16494653 2,7.33158932 2,7.5 Z M8,0 L8.00061211,2.0224767 C7.83573225,2.0076001 7.66875367,2 7.5,2 C7.33158932,2 7.16494653,2.00756924 7.00039328,2.02238608 L7,0 L8,0 Z"/>
    <path d="M7.5,2 C10.5375661,2 13,4.46243388 13,7.5 C13,10.5375661 10.5375661,13 7.5,13 C4.46243388,13 2,10.5375661 2,7.5 C2,4.46243388 4.46243388,2 7.5,2 Z M7.5,3 C5.01471863,3 3,5.01471863 3,7.5 C3,9.98528137 5.01471863,12 7.5,12 C9.98528137,12 12,9.98528137 12,7.5 C12,5.01471863 9.98528137,3 7.5,3 Z"/>
    <path d="M7.5,5 C8.88071187,5 10,6.11928813 10,7.5 C10,8.88071187 8.88071187,10 7.5,10 C6.11928813,10 5,8.88071187 5,7.5 C5,6.11928813 6.11928813,5 7.5,5 Z M7.5,6 C6.67157288,6 6,6.67157288 6,7.5 C6,8.32842712 6.67157288,9 7.5,9 C8.32842712,9 9,8.32842712 9,7.5 C9,6.67157288 8.32842712,6 7.5,6 Z"/>
  </g>
</svg>
