<svg xmlns="http://www.w3.org/2000/svg" width="24" height="24" viewBox="0 0 24 24">
  <g fill="none" fill-rule="evenodd">
    <path fill="#536076" fill-rule="nonzero" d="M7.828125,10 L5,18 L6.1425781,18 L6.89298015,16 L10,16 L10.7148438,18 L11.8574219,18 L9.265625,10 L7.828125,10 Z M13.0034769,10 L13.0034769,18 L16.714844,18 C17.9767764,17.9996997 18.9996997,16.9767764 19,15.714844 C18.9983078,14.7440076 18.3835145,13.8801642 17.466797,13.5605469 C17.7209153,13.1837105 17.8569159,12.7396686 17.857422,12.2851562 C17.8571218,11.0232237 16.8341985,10.0003003 15.572266,10 L13.0034769,10 Z M14,11 L15.572266,11 C16.2032208,11.0001777 16.7146663,11.6542014 16.714844,12.2851562 C16.7146664,12.916111 16.2032208,13.4275567 15.572266,13.4277344 L14,13.4277344 L14,11 Z M8.546875,11.2402344 L9.6191406,14.9966035 L7.27107332,14.9966035 L8.546875,11.2402344 Z M14,14.572266 L16.714844,14.572266 C17.3457988,14.5724437 17.8572443,15.0838892 17.857422,15.714844 C17.8572443,16.3457988 17.3457988,16.9998223 16.714844,17 L14,17 L14,14.572266 Z"/>
    <polygon fill="#536076" fill-rule="nonzero" points="15.215 6 12.715 9 17.715 9"/>
  </g>
</svg>
