<?xml version="1.0" encoding="UTF-8"?>
<svg width="24px" height="24px" viewBox="0 0 24 24" version="1.1" xmlns="http://www.w3.org/2000/svg" xmlns:xlink="http://www.w3.org/1999/xlink">
    <!-- Generator: Sketch 51.3 (57544) - http://www.bohemiancoding.com/sketch -->
    <title>format-line-spacing-normal</title>
    <desc>Created with Sketch.</desc>
    <defs></defs>
    <g id="format-line-spacing-normal" stroke="none" stroke-width="1" fill="none" fill-rule="evenodd">
        <path d="M9,8 L18,8 L18,11 L9,11 L9,10 L7,10 L7,11 L8,11 L8,13 L7,13 L7,14 L9,14 L9,13 L18,13 L18,16 L9,16 L9,15 L6,15 L6,9 L9,9 L9,8 Z M10,9 L10,10 L17,10 L17,9 L10,9 Z M10,14 L10,15 L17,15 L17,14 L10,14 Z" id="Combined-Shape" fill="#303030" fill-rule="nonzero"></path>
    </g>
</svg>