<svg xmlns="http://www.w3.org/2000/svg" width="24" height="24" viewBox="0 0 24 24">
  <g fill="none" fill-rule="evenodd">
    <polygon fill="#536076" fill-rule="nonzero" points="9 6.029 5 7.029 10 8.029 14 7.029"/>
    <path fill="#536076" fill-rule="nonzero" d="M17 6.0292969L16 7.0292969 15 8.0292969 17 10.0292969 17 8.7441406C17.624413 9.6872656 18 10.8079219 18 12.0292969 18 15.353297 15.324 17.0292969 12 17.0292969L12 18.0292969C15.878025 18.0292969 19 15.907247 19 12.0292969 19 10.1201719 18.232325 8.4054344 17 7.1464844L17 6.0292969zM6 12.2485205L8 12.7485206 8 9.81007331 6 9.31007331 6 12.2485205zM5 8.0292969L9 9.0292969 9 14.0292969 5 13.0292969 5 8.0292969z"/>
    <path fill="#536076" fill-rule="nonzero" d="M13,9.31007331 L11,9.81007331 L11,12.7485206 L13,12.2485205 L13,9.31007331 Z M14,8.0292969 L14,13.0292969 L10,14.0292969 L10,9.0292969 L14,8.0292969 Z"/>
  </g>
</svg>
