<svg xmlns="http://www.w3.org/2000/svg" width="24" height="24" viewBox="0 0 24 24">
  <g fill="#536076" transform="matrix(0 1 1 0 4 5)">
    <path d="M6.5,12.996094 C5.94771475,12.996094 5.5,13.4438087 5.5,13.996094 C5.5,14.5483793 5.94771475,14.996094 6.5,14.996094 C7.05228525,14.996094 7.5,14.5483793 7.5,13.996094 C7.5,13.4437914 7.05229793,12.996094 6.5,12.996094 Z M6.5,11.996094 C7.60457,11.996094 8.5,12.891494 8.5,13.996094 C8.5,15.100664 7.60457,15.996094 6.5,15.996094 C5.39543,15.996094 4.5,15.100664 4.5,13.996094 C4.5,12.891524 5.39543,11.996094 6.5,11.996094 Z"/>
    <g transform="rotate(-90 6 6)">
      <rect width="10" height="1" x="2" y="6"/>
      <path d="M3.61120929,2.16832593 L3.6106559,9.16787932 L10.6112093,9.16832593 L10.6112093,10.1683259 L2.61120929,10.1683259 L2.61120929,2.16832593 L3.61120929,2.16832593 Z" transform="rotate(45 6.258 6.522)"/>
    </g>
  </g>
</svg>
