<?xml version="1.0" encoding="UTF-8"?>
<svg width="24px" height="24px" viewBox="0 0 24 24" version="1.1" xmlns="http://www.w3.org/2000/svg" xmlns:xlink="http://www.w3.org/1999/xlink">
    <!-- Generator: Sketch 51.3 (57544) - http://www.bohemiancoding.com/sketch -->
    <title>go-parent-folder</title>
    <desc>Created with Sketch.</desc>
    <defs></defs>
    <g id="go-parent-folder" stroke="none" stroke-width="1" fill="none" fill-rule="evenodd">
        <path d="M18,8.0097656 C17.9993862,8.0110289 16.1946483,8.0110289 12.5857864,8.0097656 L10.5857864,6.0097656 L6,6.0097656 L6,17.009766 C5.98709006,17.0160506 8.21683096,17.0160506 12.6892227,17.009766 C12.671458,16.993242 12.653928,16.9763397 12.6366433,16.9590599 L11.9289788,16.251395 C11.1488479,15.469865 11.1488479,14.2039161 11.9296121,13.4237521 L12.8788308,12.4745338 L14.7573532,10.5960118 C15.1254816,10.2274833 15.6237011,10.0170705 16.1448709,10.0098545 C16.6846123,10.0026579 17.2040482,10.2138629 17.5860128,10.5956277 L18,11.0096149 L18,8.0097656 Z M5.84375,5.0097656 C5.93745,4.99413563 6,5.0097656 6,5.0097656 L11,5.0097656 L13,7.0097656 L18,7.0097656 C18,7.0097656 19,7.0097656 19,8.0097656 L19,13.4238281 L18.757812,13.1816406 L16.878906,11.3027344 C16.687906,11.1118344 16.428203,11.0061656 16.158203,11.0097656 C15.898203,11.0133656 15.648844,11.1185344 15.464844,11.3027344 L13.5859375,13.1816406 L12.6367188,14.130859 C12.2464188,14.520859 12.2464188,15.153922 12.6367188,15.544922 L13.34375,16.251953 C13.70285,16.610953 14.273875,16.644125 14.671875,16.328125 L14.671875,18.009766 L6,18.009766 C5,18.009766 5,17.009766 5,17.009766 L5,6.0097656 C5,5.2597656 5.56245,5.0565656 5.84375,5.0097656 Z" id="Path" fill="#303030" fill-rule="nonzero"></path>
        <polygon id="Path" fill="#303030" fill-rule="nonzero" points="16.508125 12.0097656 14.629219 13.8886719 13.68 14.837891 14.387031 15.544922 15.33625 14.595703 16.008125 13.9238281 16.008125 18.009766 17.008125 18.009766 17.008125 13.9238281 17.68 14.595703 18.629219 15.544922 19.33625 14.837891 18.387031 13.8886719"></polygon>
    </g>
</svg>