<svg xmlns="http://www.w3.org/2000/svg" width="24" height="24" viewBox="0 0 24 24">
  <path fill="#536076" d="M5,5 L5,6 L7,6 L10,6 L10,9 L11,9 L11,7 L11,5 L9,5 L7,5 L5,5 Z M11,9 L11,11 L13,11 L15,11 L15,9 L13,9 L11,9 Z M15,9 L17,9 L17,7 L15,7 L15,9 Z M15,7 L15,5 L13,5 L13,7 L15,7 Z M11,11 L9,11 L9,13 L11,13 L11,11 Z M9,13 L7,13 L7,15 L9,15 L9,13 Z M7,13 L7,11 L5,11 L5,13 L7,13 Z M7,11 L9,11 L9,9 L7,9 L7,11 Z M15,13 L15,15 L17,15 L17,13 L15,13 Z M18,15 L18,17 L18,19 L19,19 L19,17 L19,15 L18,15 Z M11,15 L11,17 L13,17 L13,15 L11,15 Z M13,17 L13,19 L15,19 L15,17 L13,17 Z M7,17 L7,19 L9,19 L9,17 L7,17 Z"/>
</svg>
