<svg xmlns="http://www.w3.org/2000/svg" width="24" height="24" viewBox="0 0 24 24">
  <g fill="none" fill-rule="evenodd">
    <path fill="#536076" fill-rule="nonzero" d="M9.4433594 5L12.4609375 13 11.2434149 13 10.635993 11.0016304 7.1769408 11.0016304 6.569519 13 5.4433594 13 8.3007812 5 9.4433594 5zM8.8985346 6.33410732L7.56875679 9.99417485 10.3068798 9.99417485 8.8985346 6.33410732zM16.5 8C17.3401 8 18 8.68283 18 9.5L18 9.5 18 12.5C18 12.5 18.008 12.531225 18 12.578125L18 12.578125 18 13 14.5 13C14.05 13 13.650625 12.804625 13.390625 12.515625 13.134465 12.226375 13.003 11.86031 13 11.5 12.9968 11.13971 13.1178 10.776765 13.375 10.484375 13.6322 10.191975 14.04036 10 14.5 10L14.5 10 17 10 17 9.5C17 9.30707 16.71408 9 16.5 9L16.5 9 14 9 14 8zM17 11L14.5 11C14.2238576 11 14 11.2238576 14 11.5 14 11.7761424 14.2238576 12 14.5 12L14.5 12 17 12 17 11z"/>
    <polygon fill="#536076" fill-rule="nonzero" points="9 14.996 12 18.996 15 14.996"/>
  </g>
</svg>
