<?xml version="1.0" encoding="UTF-8"?>
<svg width="24px" height="24px" viewBox="0 0 24 24" version="1.1" xmlns="http://www.w3.org/2000/svg" xmlns:xlink="http://www.w3.org/1999/xlink">
    <!-- Generator: Sketch 51.3 (57544) - http://www.bohemiancoding.com/sketch -->
    <title>labplot-xy-plot-two-axes-centered</title>
    <desc>Created with Sketch.</desc>
    <defs></defs>
    <g id="labplot-xy-plot-two-axes-centered" stroke="none" stroke-width="1" fill="none" fill-rule="evenodd">
        <path d="M19,4 L19,6.40625 L15,10.078125 L15,12 L12,12 L12,5 L11,5 L11,12 L4,12 L4,13 L11,13 L11,16.242188 L8,18.996094 L8,19 L4,19 L4,20 L8.3847656,20 L11,17.599609 L11,20 L12,20 L12,16.681641 L16,13.0097656 L16,13 L19,13 L19,12 L16,12 L16,10.5175781 L20,6.8457031 L20,4 L19,4 Z M12,13 L14.53125,13 L12,15.324219 L12,13 Z" id="Shape" fill="#303030" fill-rule="nonzero"></path>
    </g>
</svg>