<?xml version="1.0" encoding="UTF-8"?>
<svg width="24px" height="24px" viewBox="0 0 24 24" version="1.1" xmlns="http://www.w3.org/2000/svg" xmlns:xlink="http://www.w3.org/1999/xlink">
    <!-- Generator: Sketch 51.3 (57544) - http://www.bohemiancoding.com/sketch -->
    <title>link</title>
    <desc>Created with Sketch.</desc>
    <defs></defs>
    <g id="link" stroke="none" stroke-width="1" fill="none" fill-rule="evenodd">
        <path d="M7,5 C5.892,5 5,5.892 5,7 L5,17 C5,18.108 5.892,19 7,19 L17,19 C18.108,19.00002 19,18.108 19,17 L19,13 L18,12.9941406 L18,17 C18,17.5522847 17.5522847,18 17,18 L7,18 C6.44771525,18 6,17.5522847 6,17 L6,7 C6,6.44771525 6.44771525,6 7,6 L11,6 L11,5 L7,5 Z" id="Path" fill="#303030" fill-rule="nonzero"></path>
        <path d="M12.1565942,5 L12.1565942,6 L17.3198841,6 L11.794284,11.657979 L11.0872527,12.3650103 L11.0870818,12.3652602 C10.9316003,12.5926901 10.9899259,12.9031011 11.2173557,13.0585826 C11.3871921,13.1746906 11.6108889,13.1746226 11.7806547,13.0584113 L12.4935454,12.3572394 L18,6.86309882 L18,12 L19,12.0058594 L19,5 L12.1565942,5 Z" id="Path" fill="#303030" fill-rule="nonzero"></path>
    </g>
</svg>