<svg xmlns="http://www.w3.org/2000/svg" width="24" height="24" viewBox="0 0 24 24">
  <path fill="#536076" d="M19.496094,4.99597759 C19.640092,4.99299201 19.7784346,5.05213168 19.8756923,5.15836715 C19.97295,5.26460262 20.0196768,5.40761583 20.003906,5.5507812 C19.592806,9.8987812 17.617437,12.8535438 14.648438,15.152344 L14.648438,15.152344 L15,15.503906 L11.5,19.003906 L8,15.503906 L10.6835938,12.8203125 C10.5596838,12.0500125 10.3986925,11.259445 10.1328125,10.484375 C9.7165125,9.270775 9.0972419,8.1448144 8.2011719,7.3339844 C7.3050719,6.5231344 6.138,6.0039062 4.5,6.0039062 C4.31968204,6.00645634 4.15195932,5.91171855 4.06105614,5.75596978 C3.97015296,5.600221 3.97015296,5.4075914 4.06105614,5.25184262 C4.15195932,5.09609385 4.31968204,5.00135606 4.5,5.0039062 C6.3558,5.0039062 7.8069469,5.6271469 8.8730469,6.5917969 C9.9391469,7.5564969 10.625185,8.8397562 11.078125,10.1601562 C11.304315,10.8195563 11.456285,11.4592212 11.578125,12.0820312 L11.578125,12.0820312 L13.9042969,14.408203 C16.771397,12.2578031 18.616953,9.5911313 19.007812,5.4570312 C19.0278686,5.20070381 19.2390371,5.00136103 19.496094,4.99597759 Z M11.4866396,13.4339074 L9.36492234,15.5469229 L11.4866396,17.5922779 L13.5677784,15.5469229 L11.4866396,13.4339074 Z"/>
</svg>
