<?xml version="1.0" encoding="UTF-8"?>
<svg width="24px" height="24px" viewBox="0 0 24 24" version="1.1" xmlns="http://www.w3.org/2000/svg" xmlns:xlink="http://www.w3.org/1999/xlink">
    <!-- Generator: Sketch 51.3 (57544) - http://www.bohemiancoding.com/sketch -->
    <title>office-chart-ring</title>
    <desc>Created with Sketch.</desc>
    <defs></defs>
    <g id="office-chart-ring" stroke="none" stroke-width="1" fill="none" fill-rule="evenodd">
        <path d="M12,6 C8.676,6 6,8.676 6,12 C6,15.324 8.676,18 12,18 C15.324,18 18,15.324 18,12 C18,11.11822 17.80752,10.28397 17.46875,9.53125 L16.6875,10.3125 C16.87723,10.84177 17,11.40386 17,12 C17,14.77 14.77,17 12,17 C9.23,17 7,14.77 7,12 C7,9.23 9.23,7 12,7 C13.64157,7 15.079714,7.7951356 15.990234,9.0097656 L16.712891,8.2871094 C15.616001,6.8947094 13.91806,6 12,6 Z M12,8 C10.892,8 9.8929219,8.4469219 9.1699219,9.1699219 L9.8769531,9.8769531 C10.4192031,9.3347031 11.169,9 12,9 C13.662,9 15,10.338 15,12 C15,13.662 13.662,15 12,15 C10.338,15 9,13.662 9,12 C9,11.69815 9.0565019,11.4130719 9.1386719,11.1386719 L8.3574219,10.3574219 C8.1318319,10.8590019 8,11.41251 8,12 C8,14.216 9.784,16 12,16 C14.216,16 16,14.216 16,12 C16,9.784 14.216,8 12,8 Z M12,10 C10.8954305,10 10,10.8954305 10,12 C10,13.1045695 10.8954305,14 12,14 C12.9116448,13.9995693 13.7076358,13.3826964 13.9355469,12.5 L12.8632812,12.5 C12.6851395,12.8085536 12.3562848,12.9990215 12,13 C11.4477153,13 11,12.5522847 11,12 C11,11.4477153 11.4477153,11 12,11 C12.356983,11.0002824 12.686743,11.1908435 12.8652344,11.5 L13.9335938,11.5 C13.7058652,10.6180068 12.9109174,10.0013201 12,10 Z" id="Shape" fill="#303030" fill-rule="nonzero"></path>
    </g>
</svg>