<svg xmlns="http://www.w3.org/2000/svg" width="24" height="24" viewBox="0 0 24 24">
  <path fill="#536076" d="M11.5 6C11.223 6 11 6.22299 11 6.5 11 6.77701 11.223 7 11.5 7 11.777 7 12 6.77701 12 6.5 12 6.22299 11.777 6 11.5 6zM6.5 7C6.22299 7 6 7.22299 6 7.5 6 7.77701 6.22299 8 6.5 8 6.77701 8 7 7.77701 7 7.5 7 7.22299 6.77701 7 6.5 7zM11 7L11 11C10.36652 11 9.8092894 11.2970962 9.4433594 11.7539062L9.4433594 11.7539062 6.3144531 9.25C7.4122131 7.87831 9.09856 7 11 7L11 7zM10.000838 8.10678593C9.1481914 8.31305706 8.42674033 8.65788549 7.83648482 9.14127122 7.8429219 9.14543221 8.37997369 9.58155339 9.44764018 10.4496348L10.000838 10.1382543 10.000838 8.10678593zM11 8.5C11 8.77701 11.223 9 11.5 9 11.777 9 12 8.77701 12 8.5 12 8.22299 11.777 8 11.5 8 11.223 8 11 8.22299 11 8.5zM11 10.5C11 10.77701 11.223 11 11.5 11 11.777 11 12 10.77701 12 10.5 12 10.22299 11.777 10 11.5 10 11.223 10 11 10.22299 11 10.5zM13.3445315 11.1356782C13.4975735 11.3293954 13.6262185 11.5418598 13.7273616 11.7683858L16.8095816 11.511333C16.5137985 10.3455287 15.8751777 9.30391545 14.9830407 8.51309721L13.3445315 11.1356782zM14.708984 7.0644531C16.531044 8.2022431 17.785153 10.1521687 17.970703 12.4179688L12.9824219 12.8339844C12.9288819 12.1879144 12.5780537 11.6315006 12.0585938 11.3066406L14.708984 7.0644531zM7.5 12C7.22299 12 7 12.22299 7 12.5 7 12.77701 7.22299 13 7.5 13 7.77701 13 8 12.77701 8 12.5 8 12.22299 7.77701 12 7.5 12zM9.5 12C9.22299 12 9 12.22299 9 12.5 9 12.77701 9.22299 13 9.5 13 9.77701 13 10 12.77701 10 12.5 10 12.22299 9.77701 12 9.5 12zM11.5 12C11.223 12 11 12.22299 11 12.5 11 12.77701 11.223 13 11.5 13 11.777 13 12 12.77701 12 12.5 12 12.22299 11.777 12 11.5 12zM11.5 14C11.223 14 11 14.22299 11 14.5 11 14.77701 11.223 15 11.5 15 11.777 15 12 14.77701 12 14.5 12 14.22299 11.777 14 11.5 14zM13.5 14C13.223 14 13 14.22299 13 14.5 13 14.77701 13.223 15 13.5 15 13.777 15 14 14.77701 14 14.5 14 14.22299 13.777 14 13.5 14zM9.5839844 14.416016C9.9454844 14.777516 10.446 15 11 15L11 15 11 18C9.615 18 8.3646875 17.442812 7.4609375 16.539062L7.4609375 16.539062zM9.69754846 15.7207797C9.20763696 16.2089762 8.96453502 16.45354 8.96824263 16.454471 9.26805312 16.6325835 9.61155466 16.7683851 9.99874726 16.8618758L9.99874726 16.8618758 9.99874726 15.8278922zM11 16.5C11 16.77701 11.223 17 11.5 17 11.777 17 12 16.77701 12 16.5 12 16.22299 11.777 16 11.5 16 11.223 16 11 16.22299 11 16.5zM15.5 16C15.223 16 15 16.22299 15 16.5 15 16.77701 15.223 17 15.5 17 15.777 17 16 16.77701 16 16.5 16 16.22299 15.777 16 15.5 16z"/>
</svg>
