<svg xmlns="http://www.w3.org/2000/svg" width="24" height="24" viewBox="0 0 24 24">
  <path fill="#536076" d="M17.501953,3.94726562 C18.328953,3.94726562 19,4.6187656 19,5.44726562 C19,6.2756656 18.328953,6.94726562 17.501953,6.94726562 C16.884953,6.94726562 16.356953,6.5742156 16.126953,6.0410156 C14.138953,6.4679156 12.2737063,7.2409188 10.6914062,8.3867188 C12.0262062,9.6389188 13.329703,10.3722781 14.470703,10.5800781 C15.627578,10.7907343 16.6216224,10.5277233 17.4788162,9.75508364 L17.648438,9.59375 L18.353516,10.3007812 C17.251516,11.4038812 15.804969,11.8396531 14.292969,11.5644531 C12.8588688,11.3032531 11.3699906,10.425525 9.9003906,9.015625 C9.7195906,9.171825 9.5382875,9.3284937 9.3671875,9.4960938 C10.8715875,11.0238937 11.9094875,12.6909875 12.1796875,14.179688 C12.4393153,15.6095769 12.0655347,16.9835916 11.0953596,18.0610371 L10.9179688,18.248047 L10.2128906,17.541016 C11.1083906,16.644016 11.4216656,15.595375 11.1972656,14.359375 C10.9772656,13.148375 10.0931594,11.6483563 8.6933594,10.2226562 C7.3887594,11.7513563 6.4626438,13.684547 6.0898438,16.060547 C6.6343437,16.284547 7.0175781,16.821266 7.0175781,17.4472656 C7.0175781,18.276266 6.3467312,18.9472656 5.5195312,18.9472656 C4.6923313,18.9472656 4.0214844,18.276266 4.0214844,17.4472656 C4.0214844,16.771266 4.4720375,16.204578 5.0859375,16.017578 C6.0339375,9.6872781 10.7443125,6.1297969 16.070312,5.0292969 C16.252313,4.4054269 16.819953,3.94726562 17.501953,3.94726562 Z M5.5,17 C5.22385763,17 5,17.2238576 5,17.5 C5,17.7761424 5.22385763,18 5.5,18 C5.77614237,18 6,17.7761424 6,17.5 C6,17.2238576 5.77614237,17 5.5,17 Z M17.5,5 C17.2238576,5 17,5.22385763 17,5.5 C17,5.77614237 17.2238576,6 17.5,6 C17.7761424,6 18,5.77614237 18,5.5 C18,5.22385763 17.7761424,5 17.5,5 Z"/>
</svg>
