<?xml version="1.0" encoding="UTF-8"?>
<svg width="24px" height="24px" viewBox="0 0 24 24" version="1.1" xmlns="http://www.w3.org/2000/svg" xmlns:xlink="http://www.w3.org/1999/xlink">
    <!-- Generator: Sketch 51.3 (57544) - http://www.bohemiancoding.com/sketch -->
    <title>project-development-close</title>
    <desc>Created with Sketch.</desc>
    <defs></defs>
    <g id="project-development-close" stroke="none" stroke-width="1" fill="none" fill-rule="evenodd">
        <g id="29" transform="translate(5.000000, 5.000000)" fill="#303030" fill-rule="nonzero">
            <path d="M1,0 C0,0 0,1 0,1 L0,13 C0,14 1,14 1,14 L8,14 L8,13 L1,13 L1,5 L13,5 L13,8 L14,8 L14,1 C14,0 13,0 13,0 L1,0 Z M10.0857864,9.37867966 L11.5,10.7928932 L12.9142136,9.37867966 L13.6213203,10.0857864 L12.2071068,11.5 L13.6213203,12.9142136 L12.9142136,13.6213203 L11.5,12.2071068 L10.0857864,13.6213203 L9.37867966,12.9142136 L10.7928932,11.5 L9.37867966,10.0857864 L10.0857864,9.37867966 Z M1,1 L13,1 L13,4 L1,4 L1,1 Z" id="Combined-Shape"></path>
        </g>
    </g>
</svg>