<?xml version="1.0" encoding="UTF-8"?>
<svg width="24px" height="24px" viewBox="0 0 24 24" version="1.1" xmlns="http://www.w3.org/2000/svg" xmlns:xlink="http://www.w3.org/1999/xlink">
    <!-- Generator: Sketch 51.3 (57544) - http://www.bohemiancoding.com/sketch -->
    <title>restoration</title>
    <desc>Created with Sketch.</desc>
    <defs></defs>
    <g id="restoration" stroke="none" stroke-width="1" fill="none" fill-rule="evenodd">
        <path d="M16.9902342,9.72949912 C16.9903983,9.48335248 16.9904979,9.30978644 16.9905251,9.17288812 L13.5997662,6.0058594 L7,6.0058594 L7,10 L16.9900708,10 C16.990115,9.91591925 16.9901697,9.82630457 16.9902342,9.72949912 Z M6.84375,5.0058594 C6.93745,4.99126938 7,5.0058594 7,5.0058594 L13.9941406,5.0058594 L17.990234,8.7382812 C17.991234,9.3142812 17.989234,10.0534 17.990234,11 L6,11 L6,5.9394531 C6,5.2398531 6.56265,5.0495594 6.84375,5.0058594 Z M7,17.9994606 C7.00078442,17.999699 10.3302915,17.9998788 16.9885211,18 C16.9890572,17.9955329 16.989661,17.9906428 16.9903202,17.9853751 L16.9904568,17.8579064 C16.9939788,17.8243309 16.9941368,17.7908278 16.9943984,17.7353601 C16.9951607,17.5420187 16.9954824,17.2629186 16.995414,16.8961826 C16.9953062,16.3182371 16.9945784,15.7750599 16.9922398,14.3228211 L16.9919514,14.1433924 C16.9918684,14.0911581 16.9917928,14.0436411 16.9917235,14 L7,14 L7,17.9994606 Z M6.92512035,17.9780524 C6.92504889,17.9779053 6.92697809,17.9787462 6.92897261,17.9795653 L6.92512035,17.9780524 Z M16.990283,18.0200874 C16.991676,18.0152425 16.993431,18.0086354 16.9955945,18.0000937 C16.9939346,18.0000324 16.9921727,18.0000008 16.9903046,18 L16.990283,18.0200874 Z M16.9837827,18.0602353 C16.9868355,18.0517442 16.9902663,18.0357046 16.9902346,18.0653349 L16.9902503,18.0506394 C16.987748,18.0538756 16.9855144,18.0570941 16.9837827,18.0602353 Z M6,13 L17.990234,13 C17.993234,15.248 18.000234,18.043406 17.990234,18.066406 C17.990234,18.066406 17.989234,19 16.990234,19 L7,19 C7,19 6,18.999406 6,18.066406 L6,13 Z" id="Shape" fill="#303030" fill-rule="nonzero"></path>
    </g>
</svg>