<?xml version="1.0" encoding="UTF-8"?>
<svg width="24px" height="24px" viewBox="0 0 24 24" version="1.1" xmlns="http://www.w3.org/2000/svg" xmlns:xlink="http://www.w3.org/1999/xlink">
    <!-- Generator: Sketch 51.3 (57544) - http://www.bohemiancoding.com/sketch -->
    <title>run-build-prune</title>
    <desc>Created with Sketch.</desc>
    <defs></defs>
    <g id="run-build-prune" stroke="none" stroke-width="1" fill="none" fill-rule="evenodd">
        <polygon id="Path" fill="#303030" fill-rule="nonzero" points="10.7071068 10 12.1210937 11.413987 13.5350807 10 14.242112 10.7070313 12.828125 12.1210182 14.2421875 13.5350807 13.5351562 14.242112 12.1210938 12.8280495 10.7070312 14.242112 10 13.5350807 11.4140625 12.1210182 10.0000755 10.7070313"></polygon>
        <path d="M11,5 L13,5 L13,6.0898438 C13.8908,6.2405438 14.735656,6.5902812 15.472656,7.1132812 L16.242188,6.34375 L17.65625,7.7578125 L16.884766,8.5292969 C17.409766,9.2648969 17.761062,10.1094 17.914062,11 L19,11 L19,13 L17.910156,13 C17.760156,13.8908 17.409719,14.735656 16.886719,15.472656 L17.65625,16.242188 L16.242188,17.65625 L15.470703,16.884766 C14.734703,17.409766 13.8906,17.761062 13,17.914062 L13,19 L11,19 L11,17.910156 C10.1092,17.760156 9.2640437,17.409719 8.5273438,16.886719 L7.7578125,17.65625 L6.34375,16.242188 L7.1152344,15.470703 C6.5905344,14.734703 6.2386375,13.8906 6.0859375,13 L5,13 L5,11 L6.0898438,11 C6.2405438,10.1092 6.5902812,9.2640437 7.1132812,8.5273438 L6.34375,7.7578125 L7.7578125,6.34375 L8.5292969,7.1152344 C9.2648969,6.5905344 10.1094,6.2386375 11,6.0859375 L11,5 Z M12,17 C14.7614237,17 17,14.7614237 17,12 C17,9.23857625 14.7614237,7 12,7 C9.23857625,7 7,9.23857625 7,12 C7,14.7614237 9.23857625,17 12,17 Z" id="Combined-Shape" fill="#303030" fill-rule="nonzero"></path>
    </g>
</svg>