<?xml version="1.0" encoding="UTF-8"?>
<svg width="24px" height="24px" viewBox="0 0 24 24" version="1.1" xmlns="http://www.w3.org/2000/svg" xmlns:xlink="http://www.w3.org/1999/xlink">
    <!-- Generator: Sketch 51.3 (57544) - http://www.bohemiancoding.com/sketch -->
    <title>view-calendar-birthday</title>
    <desc>Created with Sketch.</desc>
    <defs></defs>
    <g id="view-calendar-birthday" stroke="none" stroke-width="1" fill="none" fill-rule="evenodd">
        <path d="M12,6 L13,6 L13,8 L15,8 C15.1452414,8 16.0021933,7.9993156 16,9 L16,10 L17,10 C16.5741455,10 18.0010966,10 18,11 L18,13 C18.0010966,13 20,13 20,15 L20,19 L5,19 L5,15 C5.00822484,15 4.75836193,13 7,13 L7,11 C7.01298439,11 6.83461654,10 8,10 L9,10 L9,9 C9.00993561,8.6660156 8.90166381,8 10,8 L12,8 L12,6 Z M15,11 L15,9 L10,9 L10,11 L8,11 L8,14 L7,14 C6.44771525,14 6,14.4477153 6,15 L6,18 L19,18 L19,15 C19,14.4477153 18.5522847,14 18,14 L17,14 L17,11 L15,11 Z" id="Combined-Shape" fill="#303030" fill-rule="nonzero"></path>
    </g>
</svg>