<?xml version="1.0" encoding="UTF-8"?>
<svg width="24px" height="24px" viewBox="0 0 24 24" version="1.1" xmlns="http://www.w3.org/2000/svg" xmlns:xlink="http://www.w3.org/1999/xlink">
    <!-- Generator: Sketch 51.3 (57544) - http://www.bohemiancoding.com/sketch -->
    <title>zoom-original</title>
    <desc>Created with Sketch.</desc>
    <defs></defs>
    <g id="zoom-original" stroke="none" stroke-width="1" fill="none" fill-rule="evenodd">
        <path d="M7,6 L17,6 C17.554,6 18,6.446 18,7 L18,17 C18,17.554 17.554,18 17,18 L7,18 C6.446,18 6,17.554 6,17 L6,7 C6,6.446 6.446,6 7,6 Z M7,7 L7,17 L17,17 L17,7 L7,7 Z" id="Combined-Shape" fill="#303030" fill-rule="nonzero"></path>
        <path d="M12,9 L13,9 L13,15 L12,15 L12,11 L11,11 L11,10 C11,10 12,10 12,9 Z" id="Path" fill="#303030" fill-rule="nonzero"></path>
    </g>
</svg>