<?xml version="1.0" encoding="UTF-8"?>
<svg width="16px" height="16px" viewBox="0 0 16 16" version="1.1" xmlns="http://www.w3.org/2000/svg" xmlns:xlink="http://www.w3.org/1999/xlink">
    <title>places/16/folder-downloads-symbolic</title>
    <g id="places/16/folder-downloads-symbolic" stroke="none" stroke-width="1" fill="none" fill-rule="evenodd">
        <path d="M8,1 C11.8659932,1 15,4.13400675 15,8 C15,11.8659932 11.8659932,15 8,15 C4.13400675,15 1,11.8659932 1,8 C1,4.13400675 4.13400675,1 8,1 Z M8,2 C4.6862915,2 2,4.6862915 2,8 C2,11.3137085 4.6862915,14 8,14 C11.3137085,14 14,11.3137085 14,8 C14,4.6862915 11.3137085,2 8,2 Z M10,8 L10,9 L12,9 L8.35355339,12.6464466 C8.15829124,12.8417088 7.84170876,12.8417088 7.64644661,12.6464466 L4,9 L6,9 L6,8 L10,8 Z M10,6 L10,7 L6,7 L6,6 L10,6 Z M10,4 L10,5 L6,5 L6,4 L10,4 Z" id="形状结合" fill="#000000" fill-rule="nonzero"></path>
    </g>
</svg>