<?xml version="1.0" encoding="UTF-8"?>
<svg width="16px" height="16px" viewBox="0 0 16 16" version="1.1" xmlns="http://www.w3.org/2000/svg" xmlns:xlink="http://www.w3.org/1999/xlink">
    <title>places/16/folder-documents-symbolic</title>
    <g id="places/16/folder-documents-symbolic" stroke="none" stroke-width="1" fill="none" fill-rule="evenodd">
        <path d="M14,13 C14,14.1045695 13.1045695,15 12,15 L4,15 C2.8954305,15 2,14.1045695 2,13 L2,3 C2,1.8954305 2.8954305,1 4,1 L9.17157288,1 C9.70200585,1 10.2107137,1.21071368 10.5857864,1.58578644 L13.4142136,4.41421356 C13.7892863,4.78928632 14,5.29799415 14,5.82842712 L14,13 L14,13 Z M9,2 L4,2 C3.44771525,2 3,2.44771525 3,3 L3,13 C3,13.5522847 3.44771525,14 4,14 L12,14 C12.5522847,14 13,13.5522847 13,13 L13,6 L10,6 C9.44771525,6 9,5.55228475 9,5 L9,2 Z M11.4995642,12.0010024 C11.7759472,12.0010024 12,12.232936 12,12.5010024 C12,12.7771448 11.7692032,13.0010024 11.4995642,13.0010024 L4.50043583,13.0010024 C4.22405275,13.0010024 4,12.7690688 4,12.5010024 C4,12.22486 4.23079681,12.0010024 4.50043583,12.0010024 L11.4995642,12.0010024 Z M11.4995642,10.0010024 C11.7759472,10.0010024 12,10.232936 12,10.5010024 C12,10.7771448 11.7692032,11.0010024 11.4995642,11.0010024 L4.50043583,11.0010024 C4.22405275,11.0010024 4,10.7690688 4,10.5010024 C4,10.22486 4.23079681,10.0010024 4.50043583,10.0010024 L11.4995642,10.0010024 Z M11.4995642,8.00100238 C11.7759472,8.00100238 12,8.23293597 12,8.50100238 C12,8.77714475 11.7692032,9.00100238 11.4995642,9.00100238 L4.50043583,9.00100238 C4.22405275,9.00100238 4,8.76906878 4,8.50100238 C4,8.22486 4.23079681,8.00100238 4.50043583,8.00100238 L11.4995642,8.00100238 Z" id="形状" fill="#000000" fill-rule="nonzero"></path>
    </g>
</svg>