<svg xmlns="http://www.w3.org/2000/svg" width="16" height="16" viewBox="0 0 16 16">
 <defs>
  <style id="current-color-scheme" type="text/css">
   .ColorScheme-Text { color:#536076; } .ColorScheme-Highlight { color:#ffffff; }
  </style>
 </defs>
 <path style="fill:currentColor" class="ColorScheme-Text" d="M7.38196601,2 C8.01446302,2 8.59685039,2.3298656 8.92372374,2.86264991 L9,3 C9.30643303,3.61286606 9.9328289,4 10.618034,4 L14,4 C14.5522847,4 15,4.44771525 15,5 L15,13 C15,13.5522847 14.5522847,14 14,14 L2,14 C1.44771525,14 1,13.5522847 1,13 L1,3 C1,2.44771525 1.44771525,2 2,2 L7.38196601,2 Z M14,5 L2,5 L2,13 L14,13 L14,5 Z M9.9211963,6.20051771 C10.5090633,6.20051771 10.9856236,6.67707803 10.9856236,7.26494498 C10.9856236,7.85281193 10.5090633,8.32937225 9.9211963,8.32937225 C9.59078255,8.32937225 9.29553123,8.17882389 9.10029566,7.94258043 L9.08554348,7.95114656 L7.15022121,8.91880769 C7.13235766,8.92773947 7.11410961,8.93505956 7.09564239,8.94082308 C7.11758168,9.02367448 7.12885454,9.11145587 7.12885454,9.2018702 C7.12885454,9.2870683 7.11884487,9.36992853 7.09993739,9.44933902 L9.10581067,10.4524925 C9.3010679,10.2196813 9.59412185,10.0716632 9.92174733,10.0716632 C10.5096142,10.0716632 10.9861746,10.5482235 10.9861746,11.1360905 C10.9861746,11.7239574 10.5096142,12.2005177 9.92174733,12.2005177 C9.33388037,12.2005177 8.85732004,11.7239574 8.85732004,11.1360905 L8.82470309,11.1221383 L8.79268837,11.1075459 L6.69809894,10.0602512 C6.5191727,10.1892524 6.30079741,10.2662975 6.06442727,10.2662975 C5.47656032,10.2662975 5,9.78973714 5,9.2018702 C5,8.61400325 5.47656032,8.13744293 6.06442727,8.13744293 C6.30844339,8.13744293 6.53328166,8.21955307 6.71281968,8.35765097 L6.76385323,8.30874377 L6.82565779,8.26968087 L8.76098006,7.30201974 C8.79208727,7.28646613 8.82436047,7.2757998 8.85692654,7.2697297 C8.85676903,6.67707803 9.33332934,6.20051771 9.9211963,6.20051771 Z"/>
</svg>