<?xml version="1.0" encoding="UTF-8"?>
<svg width="16px" height="16px" viewBox="0 0 16 16" version="1.1" xmlns="http://www.w3.org/2000/svg" xmlns:xlink="http://www.w3.org/1999/xlink">
    <title>places/16/folder-documents</title>
    <defs>
        <linearGradient x1="50%" y1="0%" x2="50%" y2="26.3530556%" id="linearGradient-1">
            <stop stop-color="#1FB0EA" offset="0%"></stop>
            <stop stop-color="#2C7FE2" offset="100%"></stop>
        </linearGradient>
        <linearGradient x1="50%" y1="0%" x2="50%" y2="11.7957837%" id="linearGradient-2">
            <stop stop-color="#FFFFFF" offset="0%"></stop>
            <stop stop-color="#CEF5FF" offset="100%"></stop>
        </linearGradient>
        <path d="M1.44144144,2 L12.5585586,2 C13.1705498,2 13.6666667,2.4961169 13.6666667,3.10810811 L13.6666667,6.22522523 C13.6666667,6.83721643 13.1705498,7.33333333 12.5585586,7.33333333 L1.44144144,7.33333333 C0.829450232,7.33333333 0.333333333,6.83721643 0.333333333,6.22522523 L0.333333333,3.10810811 C0.333333333,2.4961169 0.829450232,2 1.44144144,2 Z" id="path-3"></path>
        <filter x="-11.3%" y="-28.1%" width="122.5%" height="156.2%" filterUnits="objectBoundingBox" id="filter-4">
            <feOffset dx="0" dy="0" in="SourceAlpha" result="shadowOffsetOuter1"></feOffset>
            <feGaussianBlur stdDeviation="0.5" in="shadowOffsetOuter1" result="shadowBlurOuter1"></feGaussianBlur>
            <feColorMatrix values="0 0 0 0 0   0 0 0 0 0   0 0 0 0 0  0 0 0 0.2 0" type="matrix" in="shadowBlurOuter1"></feColorMatrix>
        </filter>
        <linearGradient x1="56.4262458%" y1="0%" x2="56.4262458%" y2="115.461063%" id="linearGradient-5">
            <stop stop-color="#5CCDF1" offset="0%"></stop>
            <stop stop-color="#1881DC" offset="100%"></stop>
        </linearGradient>
    </defs>
    <g id="places/16/folder-documents" stroke="none" stroke-width="1" fill="none" fill-rule="evenodd">
        <g id="Group-Clipped" transform="translate(1, 2)">
            <path d="M8.33333333,0.5 C8.54158155,0.812372323 8.89216707,1 9.26759188,1 L12.2762763,1 C13.2282626,1 14,1.7717374 14,2.72372372 L14,10.2762763 C14,11.2282626 13.2282626,12 12.2762763,12 L1.72372372,12 C0.771737398,12 0,11.2282626 0,10.2762763 L0,1.72372372 C0,0.771737398 0.771737398,0 1.72372372,0 L7.39907479,0 C7.7744996,0 8.12508512,0.187627677 8.33333333,0.5 Z" id="path-3" fill="url(#linearGradient-1)"></path>
            <g id="Rectangle">
                <use fill="black" fill-opacity="1" filter="url(#filter-4)" xlink:href="#path-3"></use>
                <use fill="url(#linearGradient-2)" fill-rule="evenodd" xlink:href="#path-3"></use>
            </g>
            <path d="M0,3 L14,3 L14,10.2762762 C14,11.2282626 13.2282626,12 12.2762762,12 L1.72372377,12 C0.771737419,12 0,11.2282626 0,10.2762762 L0,3 L0,3 Z" id="Rectangle" fill="url(#linearGradient-5)"></path>
        </g>
        <path d="M9.5,6 C9.77614237,6 10,6.22385763 10,6.5 L10,12.5 C10,12.7761424 9.77614237,13 9.5,13 L4.5,13 C4.22385763,13 4,12.7761424 4,12.5 L4,6.5 C4,6.22385763 4.22385763,6 4.5,6 L9.5,6 Z M9,7 L5,7 L5,12 L9,12 L9,7 Z M7.5,10 C7.77614237,10 8,10.2238576 8,10.5 C8,10.7761424 7.77614237,11 7.5,11 L6.5,11 C6.22385763,11 6,10.7761424 6,10.5 C6,10.2238576 6.22385763,10 6.5,10 L7.5,10 Z M7.5,8 C7.77614237,8 8,8.22385763 8,8.5 C8,8.77614237 7.77614237,9 7.5,9 L6.5,9 C6.22385763,9 6,8.77614237 6,8.5 C6,8.22385763 6.22385763,8 6.5,8 L7.5,8 Z M12,8 L12,13 L11,13 L11,8 L12,8 Z M11,6.07142857 L11,7.07142857 L12,7.07142857 L12,6.07142857 L11,6.07142857 Z" id="形状结合" fill="#FFFFFF" fill-rule="nonzero"></path>
    </g>
</svg>