<svg xmlns="http://www.w3.org/2000/svg" xmlns:xlink="http://www.w3.org/1999/xlink" width="22" height="22" viewBox="0 0 22 22">
  <defs>
    <filter id="network-workgroup-a" width="125%" height="127.8%" x="-12.5%" y="-13.9%" filterUnits="objectBoundingBox">
      <feOffset in="SourceAlpha" result="shadowOffsetOuter1"/>
      <feGaussianBlur in="shadowOffsetOuter1" result="shadowBlurOuter1" stdDeviation=".5"/>
      <feComposite in="shadowBlurOuter1" in2="SourceAlpha" operator="out" result="shadowBlurOuter1"/>
      <feColorMatrix in="shadowBlurOuter1" result="shadowMatrixOuter1" values="0 0 0 0 0   0 0 0 0 0   0 0 0 0 0  0 0 0 0.15 0"/>
      <feMerge>
        <feMergeNode in="shadowMatrixOuter1"/>
        <feMergeNode in="SourceGraphic"/>
      </feMerge>
    </filter>
    <linearGradient id="network-workgroup-c" x1="50%" x2="50%" y1="0%" y2="37.968%">
      <stop offset="0%" stop-color="#00B8FF"/>
      <stop offset="100%" stop-color="#2E5DFF"/>
    </linearGradient>
    <path id="network-workgroup-b" d="M11,1 L11,1 C11.306433,1.61286606 11.9328289,2 12.618034,2 L17.4144144,2 C18.8423939,2 20,3.1576061 20,4.58558559 L20,15.4144144 C20,16.8423939 18.8423939,18 17.4144144,18 L2.58558559,18 C1.1576061,18 -4.29017763e-14,16.8423939 -4.30766534e-14,15.4144144 L-4.26325641e-14,2.58558559 C-4.28074412e-14,1.1576061 1.1576061,-3.21561967e-14 2.58558559,-3.24185123e-14 L9.38196601,-3.19744231e-14 C10.0671711,-3.21002932e-14 10.693567,0.387133935 11,1 Z"/>
    <linearGradient id="network-workgroup-g" x1="50%" x2="50%" y1="0%" y2="11.796%">
      <stop offset="0%" stop-color="#FFF"/>
      <stop offset="100%" stop-color="#CEF5FF"/>
    </linearGradient>
    <path id="network-workgroup-f" d="M2.66216216,3 L17.3378378,3 C18.2558247,3 19,3.74417535 19,4.66216216 L19,9.33783784 C19,10.2558247 18.2558247,11 17.3378378,11 L2.66216216,11 C1.74417535,11 1,10.2558247 1,9.33783784 L1,4.66216216 C1,3.74417535 1.74417535,3 2.66216216,3 Z"/>
    <filter id="network-workgroup-e" width="116.7%" height="137.5%" x="-8.3%" y="-18.8%" filterUnits="objectBoundingBox">
      <feOffset in="SourceAlpha" result="shadowOffsetOuter1"/>
      <feGaussianBlur in="shadowOffsetOuter1" result="shadowBlurOuter1" stdDeviation=".5"/>
      <feColorMatrix in="shadowBlurOuter1" values="0 0 0 0 0   0 0 0 0 0   0 0 0 0 0  0 0 0 0.2 0"/>
    </filter>
    <filter id="network-workgroup-h" width="116.7%" height="137.5%" x="-8.3%" y="-18.8%" filterUnits="objectBoundingBox">
      <feOffset dy="1" in="SourceAlpha" result="shadowOffsetInner1"/>
      <feComposite in="shadowOffsetInner1" in2="SourceAlpha" k2="-1" k3="1" operator="arithmetic" result="shadowInnerInner1"/>
      <feColorMatrix in="shadowInnerInner1" values="0 0 0 0 1   0 0 0 0 1   0 0 0 0 1  0 0 0 0.5 0"/>
    </filter>
    <radialGradient id="network-workgroup-i" cx="50%" cy="0%" r="117.528%" fx="50%" fy="0%" gradientTransform="scale(.7 1) rotate(84.939 .607 .117)">
      <stop offset="0%" stop-color="#48D5FF"/>
      <stop offset="100%" stop-color="#0083F6"/>
    </radialGradient>
  </defs>
  <g fill="none" fill-rule="evenodd">
    <g filter="url(#network-workgroup-a)" transform="translate(1 2)">
      <mask id="network-workgroup-d" fill="#fff">
        <use xlink:href="#network-workgroup-b"/>
      </mask>
      <use fill="url(#network-workgroup-c)" xlink:href="#network-workgroup-b"/>
      <g mask="url(#network-workgroup-d)">
        <use fill="#000" filter="url(#network-workgroup-e)" xlink:href="#network-workgroup-f"/>
        <use fill="url(#network-workgroup-g)" xlink:href="#network-workgroup-f"/>
        <use fill="#000" filter="url(#network-workgroup-h)" xlink:href="#network-workgroup-f"/>
      </g>
      <g fill="url(#network-workgroup-i)" mask="url(#network-workgroup-d)">
        <path d="M0,0.6875 L20,0.6875 L20,12.1019144 C20,13.5298939 18.8423939,14.6875 17.4144144,14.6875 L2.58558559,14.6875 C1.1576061,14.6875 -7.13301369e-16,13.5298939 -8.8817842e-16,12.1019144 L0,0.6875 Z" transform="translate(0 3.313)"/>
      </g>
    </g>
    <g stroke="#FFF" stroke-linecap="round" stroke-linejoin="round" transform="translate(6 8)">
      <path d="M5,6.5 C7.48528137,6.5 9.5,5.6045695 9.5,4.5 C9.5,3.3954305 7.48528137,2.5 5,2.5 C2.51471863,2.5 0.5,3.3954305 0.5,4.5 C0.5,5.6045695 2.51471863,6.5 5,6.5 Z"/>
      <path d="M6.56530235,5.29905255 C7.97846679,3.13488412 8.42325319,1.02273095 7.55876057,0.581426409 C6.69426795,0.140121872 4.84786208,1.53677901 3.43469765,3.70094745 C2.02153321,5.86511588 1.57674681,7.97726905 2.44123943,8.41857359 C3.30573205,8.85987813 5.15213792,7.46322099 6.56530235,5.29905255 L6.56530235,5.29905255 Z"/>
      <path d="M6.56530235,5.29905255 C7.97846679,3.13488412 8.42325319,1.02273095 7.55876057,0.581426409 C6.69426795,0.140121872 4.84786208,1.53677901 3.43469765,3.70094745 C2.02153321,5.86511588 1.57674681,7.97726905 2.44123943,8.41857359 C3.30573205,8.85987813 5.15213792,7.46322099 6.56530235,5.29905255 L6.56530235,5.29905255 Z" transform="matrix(1 0 0 -1 0 9)"/>
    </g>
  </g>
</svg>
