<svg xmlns="http://www.w3.org/2000/svg" width="16" height="16" viewBox="0 0 16 16">
 <defs>
  <style id="current-color-scheme" type="text/css">
   .ColorScheme-Text { color:#536076; } .ColorScheme-Highlight { color:#ffffff; }
  </style>
 </defs>
 <path style="fill:currentColor" class="ColorScheme-Text" d="M8,1 C11.3137085,1 14,2.11928813 14,3.5 C14,3.64504448 13.9703551,3.78720399 13.9134523,3.92548401 L11.762722,12.9552686 C11.5334785,13.9118627 10.7649225,14.6454067 9.79814914,14.8297452 C9.19924198,14.9432101 8.59972763,15 8,15 C7.40027237,15 6.80075802,14.9432101 6.20127192,14.8296352 C5.23507753,14.6454067 4.46652147,13.9118627 4.23710763,12.9545554 L2.08654774,3.92548401 C2.02964486,3.78720399 2,3.64504448 2,3.5 C2,2.11928813 4.6862915,1 8,1 Z M8,6 C6.14990326,6 4.49538297,5.65109904 3.39475849,5.10259685 L5.20974348,12.7222216 C5.34735398,13.2964469 5.80868654,13.7367632 6.38799289,13.8472224 C6.92580448,13.9491125 7.46300888,14 8,14 C8.53699112,14 9.07419552,13.9491125 9.61142817,13.8473324 C10.1913135,13.7367632 10.652646,13.2964469 10.7900862,12.7229349 L12.6052415,5.10259685 C11.504617,5.65109904 9.85009674,6 8,6 Z M8,2 C5.24888791,2 3.09758712,2.87087373 3.003229,3.46022225 L3.05187571,3.66577385 C3.39816387,4.24547174 5.43924256,5 8,5 C10.5607574,5 12.6018361,4.24547174 12.9481243,3.66577385 L12.995,3.459 L12.9932273,3.44203209 C12.8582961,2.85313144 10.7229437,2 8,2 Z"/>
</svg>