<svg xmlns="http://www.w3.org/2000/svg" width="16" height="16" viewBox="0 0 16 16">
 <defs>
  <style id="current-color-scheme" type="text/css">
   .ColorScheme-Text { color:rgba(0, 0, 0, 0.7); } .ColorScheme-Highlight { color:#ffffff; }
  </style>
 </defs>
 <path style="fill:currentColor" class="ColorScheme-Text" d="M7.38196601,2 C8.01446302,2 8.59685039,2.3298656 8.92372374,2.86264991 L9,3 C9.30643303,3.61286606 9.9328289,4 10.618034,4 L14,4 C14.5522847,4 15,4.44771525 15,5 L15,13 C15,13.5522847 14.5522847,14 14,14 L2,14 C1.44771525,14 1,13.5522847 1,13 L1,3 C1,2.44771525 1.44771525,2 2,2 L7.38196601,2 Z M3,5 L2,5 L2,13 L14,13 L14,5 L7,5 L7,11 L5,8.9 L3,11 L3,5 Z M7.38196601,3 L2,3 L2,4 L8.46454656,4.00185088 C8.37074437,3.88983405 8.28594923,3.77005291 8.21144991,3.64338208 L8.07135646,3.38559352 C7.92471297,3.14657327 7.66363218,3 7.38196601,3 Z" id="形状" fill="#000000" fill-rule="nonzero"/>
</svg>