<?xml version="1.0" encoding="UTF-8"?>
<svg width="16px" height="16px" viewBox="0 0 16 16" version="1.1" xmlns="http://www.w3.org/2000/svg" xmlns:xlink="http://www.w3.org/1999/xlink">
    <title>places/16/user-trash-full-opened</title>
    <defs>
        <path d="M0.583582725,0 L13.4164173,2.22044605e-16 C13.6918693,1.7144489e-16 13.9151673,0.223297981 13.9151673,0.49875 C13.9151673,0.524771289 13.9131309,0.550752675 13.9090767,0.5764562 L12.0574492,12.3158248 C11.9044814,13.2856449 11.0686212,14 10.0868115,14 L3.91318847,14 C2.9313788,14 2.09551859,13.2856449 1.94255077,12.3158248 L0.0909233004,0.5764562 C0.0480073511,0.304367913 0.233788238,0.0490065244 0.505876525,0.00609057509 C0.53158005,0.0020364087 0.557561436,2.82335789e-16 0.583582725,2.77555756e-16 Z" id="path-1"></path>
        <filter x="-38.7%" y="-39.3%" width="177.4%" height="178.6%" filterUnits="objectBoundingBox" id="filter-3">
            <feMorphology radius="3" operator="erode" in="SourceAlpha" result="shadowSpreadInner1"></feMorphology>
            <feGaussianBlur stdDeviation="2.5" in="shadowSpreadInner1" result="shadowBlurInner1"></feGaussianBlur>
            <feOffset dx="0" dy="-3" in="shadowBlurInner1" result="shadowOffsetInner1"></feOffset>
            <feComposite in="shadowOffsetInner1" in2="SourceAlpha" operator="arithmetic" k2="-1" k3="1" result="shadowInnerInner1"></feComposite>
            <feColorMatrix values="0 0 0 0 1   0 0 0 0 1   0 0 0 0 1  0 0 0 0.6 0" type="matrix" in="shadowInnerInner1" result="shadowMatrixInner1"></feColorMatrix>
            <feGaussianBlur stdDeviation="0.5" in="SourceAlpha" result="shadowBlurInner2"></feGaussianBlur>
            <feOffset dx="0" dy="1" in="shadowBlurInner2" result="shadowOffsetInner2"></feOffset>
            <feComposite in="shadowOffsetInner2" in2="SourceAlpha" operator="arithmetic" k2="-1" k3="1" result="shadowInnerInner2"></feComposite>
            <feColorMatrix values="0 0 0 0 1   0 0 0 0 1   0 0 0 0 1  0 0 0 0.6 0" type="matrix" in="shadowInnerInner2" result="shadowMatrixInner2"></feColorMatrix>
            <feMerge>
                <feMergeNode in="shadowMatrixInner1"></feMergeNode>
                <feMergeNode in="shadowMatrixInner2"></feMergeNode>
            </feMerge>
        </filter>
        <radialGradient cx="50%" cy="52.5144012%" fx="50%" fy="52.5144012%" r="292.128339%" gradientTransform="translate(0.5, 0.5251), rotate(90), scale(1, 0.1613), translate(-0.5, -0.5251)" id="radialGradient-4">
            <stop stop-color="#FFFFFF" stop-opacity="0" offset="0%"></stop>
            <stop stop-color="#FFFFFF" stop-opacity="0.576486014" offset="100%"></stop>
        </radialGradient>
        <path d="M0.583582725,0 L13.4164173,2.22044605e-16 C13.6918693,1.7144489e-16 13.9151673,0.223297981 13.9151673,0.49875 C13.9151673,0.524771289 13.9131309,0.550752675 13.9090767,0.5764562 L12.0574492,12.3158248 C11.9044814,13.2856449 11.0686212,14 10.0868115,14 L3.91318847,14 C2.9313788,14 2.09551859,13.2856449 1.94255077,12.3158248 L0.0909233004,0.5764562 C0.0480073511,0.304367913 0.233788238,0.0490065244 0.505876525,0.00609057509 C0.53158005,0.0020364087 0.557561436,2.82335789e-16 0.583582725,2.77555756e-16 Z" id="path-5"></path>
        <filter x="-24.4%" y="-25.0%" width="148.8%" height="150.0%" filterUnits="objectBoundingBox" id="filter-7">
            <feMorphology radius="1" operator="erode" in="SourceAlpha" result="shadowSpreadInner1"></feMorphology>
            <feGaussianBlur stdDeviation="1.5" in="shadowSpreadInner1" result="shadowBlurInner1"></feGaussianBlur>
            <feOffset dx="0" dy="-3" in="shadowBlurInner1" result="shadowOffsetInner1"></feOffset>
            <feComposite in="shadowOffsetInner1" in2="SourceAlpha" operator="arithmetic" k2="-1" k3="1" result="shadowInnerInner1"></feComposite>
            <feColorMatrix values="0 0 0 0 1   0 0 0 0 1   0 0 0 0 1  0 0 0 0.5 0" type="matrix" in="shadowInnerInner1"></feColorMatrix>
        </filter>
    </defs>
    <g id="places/16/user-trash-full-opened" stroke="none" stroke-width="1" fill="none" fill-rule="evenodd">
        <g id="user-trash-empty-opened-16px" transform="translate(1, 1)">
            <mask id="mask-2" fill="white">
                <use xlink:href="#path-1"></use>
            </mask>
            <g id="蒙版">
                <use fill-opacity="0.8" fill="#BFC7DC" fill-rule="evenodd" xlink:href="#path-1"></use>
                <use fill="black" fill-opacity="1" filter="url(#filter-3)" xlink:href="#path-1"></use>
            </g>
        </g>
        <g id="Group-5" transform="translate(3.4, 6.07)">
            <path d="M0.5,7.33333363 C0.499999999,7.74389361 0.722222234,7.94917359 1.16666671,7.94917359 C1.48493127,7.94917359 3.01080951,7.94917359 5.7443014,7.94917359 L5.49907395,5.66756602 L0.366002837,5.82103673 L0.5,7.33333363 Z" id="Path-900" fill="#617B13"></path>
            <polygon id="Path-898" fill="#6D8700" transform="translate(6.2773, 3.1821) rotate(-20) translate(-6.2773, -3.1821)" points="3.18343022 2.56552348 8.70826789 1.12693636 9.37124841 3.38757326 3.62541723 5.23718527"></polygon>
            <polygon id="Path-896" fill="#839928" points="0.212041946 4.23348114 0.435714282 6.6148146 2.9171566 7.40859233 5.62227143 1.31032938 2.17857143 6.99854569e-09"></polygon>
            <polygon id="Path-895" fill="#758D10" points="2.08602579 7.94566614 2.65680004 7.95137822 5.80952381 3.30740723 3.34047619 1.98444434 0.871428573 5.55644421"></polygon>
            <polygon id="Path-897" fill="#6D8700" points="0.580952352 1.71985176 7.84285698 5.29185156 6.68095235 7.2762959 0.203336879 4.23348124 0.0435785203 2.64592579"></polygon>
            <path d="M5.55477296,7.01829956 C5.4500086,7.22516047 5.29286206,7.53545184 5.08333334,7.94917367 C6.58333334,7.94917367 7.55555556,7.94917367 8.00000001,7.94917367 C8.44444445,7.94917367 8.68889025,7.7438936 8.7333374,7.33333346 L9.24028301,2.7638576 L7.82768455,2.53035564 C6.81750162,4.52499738 6.05986442,6.02097869 5.55477296,7.01829956 Z" id="Path-899" fill="#869D29"></path>
            <polygon id="Path-894" fill="#90A72F" points="0.261435663 4.76266641 0.313013143 5.38014415 5.16666682 7.78787874 6.33333317 5.51515175 1.16190476 2.91051836"></polygon>
        </g>
        <g id="编组" transform="translate(1, 1)">
            <mask id="mask-6" fill="white">
                <use xlink:href="#path-5"></use>
            </mask>
            <g id="蒙版" fill-rule="nonzero">
                <use fill="url(#radialGradient-4)" xlink:href="#path-5"></use>
                <use fill="black" fill-opacity="1" filter="url(#filter-7)" xlink:href="#path-5"></use>
            </g>
        </g>
        <path d="M14.4164173,1 C14.6918693,1 14.9151673,1.22329798 14.9151673,1.49875 C14.9151673,1.52477129 14.9131309,1.55075267 14.9090767,1.5764562 L13.0574492,13.3158248 C12.9044814,14.2856449 12.0686212,15 11.0868115,15 L4.91318847,15 C3.9313788,15 3.09551859,14.2856449 2.94255077,13.3158248 L1.0909233,1.5764562 C1.04800735,1.30436791 1.23378824,1.04900652 1.50587653,1.00609058 C1.53158005,1.00203641 1.55756144,1 1.58358273,1 L14.4164173,1 Z M13.83,2 L2.169,2 L3.9303391,13.1600229 C4.00076268,13.6065104 4.36139351,13.9444334 4.80160072,13.9937796 L4.91318847,14 L11.0868115,14 C11.576486,14 11.9933687,13.6437176 12.0696609,13.1600229 L13.83,2 Z" id="蒙版" fill-opacity="0.07" fill="#000000" fill-rule="nonzero"></path>
        <g id="Guide/16" transform="translate(0.5, 0.5)"></g>
    </g>
</svg>