<?xml version="1.0" encoding="UTF-8"?>
<svg width="16px" height="16px" viewBox="0 0 16 16" version="1.1" xmlns="http://www.w3.org/2000/svg" xmlns:xlink="http://www.w3.org/1999/xlink">
    <title>places/16/user-trash-empty-opened</title>
    <defs>
        <radialGradient cx="50%" cy="33.5196055%" fx="50%" fy="33.5196055%" r="61.0097196%" gradientTransform="translate(0.5, 0.3352), rotate(90), scale(1, 0.8432), translate(-0.5, -0.3352)" id="radialGradient-1">
            <stop stop-color="#B8C6E3" stop-opacity="0.798295455" offset="0%"></stop>
            <stop stop-color="#BCC9E5" stop-opacity="0.808877585" offset="17.6611632%"></stop>
            <stop stop-color="#BFCAE5" stop-opacity="0.814572356" offset="29.8956866%"></stop>
            <stop stop-color="#E8EBF2" stop-opacity="0.921209162" offset="100%"></stop>
        </radialGradient>
        <path d="M1.58358273,1 L14.4164173,1 C14.6918693,1 14.9151673,1.22329798 14.9151673,1.49875 C14.9151673,1.52477129 14.9131309,1.55075267 14.9090767,1.5764562 L13.0574492,13.3158248 C12.9044814,14.2856449 12.0686212,15 11.0868115,15 L4.91318847,15 C3.9313788,15 3.09551859,14.2856449 2.94255077,13.3158248 L1.0909233,1.5764562 C1.04800735,1.30436791 1.23378824,1.04900652 1.50587653,1.00609058 C1.53158005,1.00203641 1.55756144,1 1.58358273,1 Z" id="path-2"></path>
        <filter x="-6.5%" y="-7.1%" width="113.1%" height="114.3%" filterUnits="objectBoundingBox" id="filter-4">
            <feGaussianBlur stdDeviation="0.5" in="SourceAlpha" result="shadowBlurInner1"></feGaussianBlur>
            <feOffset dx="0" dy="1" in="shadowBlurInner1" result="shadowOffsetInner1"></feOffset>
            <feComposite in="shadowOffsetInner1" in2="SourceAlpha" operator="arithmetic" k2="-1" k3="1" result="shadowInnerInner1"></feComposite>
            <feColorMatrix values="0 0 0 0 1   0 0 0 0 1   0 0 0 0 1  0 0 0 0.6 0" type="matrix" in="shadowInnerInner1"></feColorMatrix>
        </filter>
    </defs>
    <g id="places/16/user-trash-empty-opened" stroke="none" stroke-width="1" fill="none" fill-rule="evenodd">
        <mask id="mask-3" fill="white">
            <use xlink:href="#path-2"></use>
        </mask>
        <g id="蒙版">
            <use fill="url(#radialGradient-1)" fill-rule="evenodd" xlink:href="#path-2"></use>
            <use fill="black" fill-opacity="1" filter="url(#filter-4)" xlink:href="#path-2"></use>
        </g>
        <path d="M14.4164173,1 C14.6918693,1 14.9151673,1.22329798 14.9151673,1.49875 C14.9151673,1.52477129 14.9131309,1.55075267 14.9090767,1.5764562 L13.0574492,13.3158248 C12.9044814,14.2856449 12.0686212,15 11.0868115,15 L4.91318847,15 C3.9313788,15 3.09551859,14.2856449 2.94255077,13.3158248 L1.0909233,1.5764562 C1.04800735,1.30436791 1.23378824,1.04900652 1.50587653,1.00609058 C1.53158005,1.00203641 1.55756144,1 1.58358273,1 L14.4164173,1 Z M13.83,2 L2.169,2 L3.9303391,13.1600229 C4.00076268,13.6065104 4.36139351,13.9444334 4.80160072,13.9937796 L4.91318847,14 L11.0868115,14 C11.576486,14 11.9933687,13.6437176 12.0696609,13.1600229 L13.83,2 Z" id="蒙版" fill-opacity="0.07" fill="#000000" fill-rule="nonzero"></path>
        <g id="Guide/16" transform="translate(0.5, 0.5)"></g>
    </g>
</svg>