<svg xmlns="http://www.w3.org/2000/svg" xmlns:xlink="http://www.w3.org/1999/xlink" width="64" height="64" viewBox="0 0 64 64">
  <defs>
    <linearGradient id="application-x-executable-script-c" x1="50%" x2="50%" y1="0%" y2="100%">
      <stop offset="0%" stop-color="#AC92FF"/>
      <stop offset="100%" stop-color="#804EE2"/>
    </linearGradient>
    <path id="application-x-executable-script-b" d="M29,0 L42,13 L42,47.5 C42,49.9852814 39.9852814,52 37.5,52 L4.5,52 C2.01471863,52 3.04359188e-16,49.9852814 0,47.5 L0,4.5 C-3.04359188e-16,2.01471863 2.01471863,4.56538782e-16 4.5,0 L29,0 Z"/>
    <filter id="application-x-executable-script-a" width="131%" height="125%" x="-15.5%" y="-10.6%" filterUnits="objectBoundingBox">
      <feOffset dy="1" in="SourceAlpha" result="shadowOffsetOuter1"/>
      <feGaussianBlur in="shadowOffsetOuter1" result="shadowBlurOuter1" stdDeviation="2"/>
      <feColorMatrix in="shadowBlurOuter1" values="0 0 0 0 0.538881273   0 0 0 0 0.186318598   0 0 0 0 1  0 0 0 0.5 0"/>
    </filter>
    <linearGradient id="application-x-executable-script-f" x1="50%" x2="10.489%" y1="50%" y2="91.194%">
      <stop offset="0%" stop-color="#FFF" stop-opacity=".1"/>
      <stop offset="100%" stop-color="#FFF" stop-opacity=".3"/>
    </linearGradient>
    <path id="application-x-executable-script-e" d="M29,0 L42,13 L33.5,13 C31.0147186,13 29,10.9852814 29,8.5 L29,0 Z"/>
    <filter id="application-x-executable-script-d" width="153.8%" height="153.8%" x="-26.9%" y="-19.2%" filterUnits="objectBoundingBox">
      <feOffset dy="1" in="SourceAlpha" result="shadowOffsetOuter1"/>
      <feGaussianBlur in="shadowOffsetOuter1" result="shadowBlurOuter1" stdDeviation="1"/>
      <feComposite in="shadowBlurOuter1" in2="SourceAlpha" operator="out" result="shadowBlurOuter1"/>
      <feColorMatrix in="shadowBlurOuter1" values="0 0 0 0 0   0 0 0 0 0   0 0 0 0 0  0 0 0 0.05 0"/>
    </filter>
  </defs>
  <g fill="none" fill-rule="evenodd">
    <g transform="translate(11 7)">
      <use fill="#000" filter="url(#application-x-executable-script-a)" xlink:href="#application-x-executable-script-b"/>
      <use fill="url(#application-x-executable-script-c)" xlink:href="#application-x-executable-script-b"/>
      <use fill="#000" filter="url(#application-x-executable-script-d)" xlink:href="#application-x-executable-script-e"/>
      <use fill="url(#application-x-executable-script-f)" xlink:href="#application-x-executable-script-e"/>
    </g>
    <path fill="#FFF" d="M45.5641779,33.0012858 C45.5641779,32.1282285 46.099023,31.3876085 46.8562916,31.071302 C46.956575,31.0288707 47.0182879,30.924721 46.9925742,30.8179997 C46.7637222,29.8755093 46.3908735,28.989594 45.8984561,28.1846841 C45.8418859,28.0921066 45.7248886,28.0612474 45.6233194,28.1036788 C44.8634795,28.414842 43.9622141,28.2695468 43.3450852,27.6523634 C42.7279563,27.0351801 42.5826739,26.135121 42.8938097,25.375214 C42.9349516,25.2749217 42.9053809,25.1579141 42.8128115,25.1000531 C42.0066869,24.6075922 41.1208498,24.2347106 40.1784425,24.0058385 C40.0717307,23.9801225 39.9675901,24.0418408 39.9251625,24.1421331 C39.608884,24.9007543 38.8670436,25.4369324 37.9940633,25.4369324 C37.1223688,25.4369324 36.3818141,24.9020401 36.0642498,24.1447047 C36.0218222,24.0444124 35.9176817,23.9826941 35.8109698,24.0084101 C34.8685626,24.238568 33.9814398,24.6127354 33.1766008,25.1064821 C33.0840315,25.1630573 33.0557464,25.2787791 33.0956027,25.3777856 C33.4054528,26.1376926 33.2601704,27.0377517 32.6430415,27.654935 C32.0271982,28.2708326 31.1285043,28.4174136 30.36995,28.108822 C30.2696665,28.0676764 30.1552406,28.0972498 30.0986704,28.1898273 C29.606253,28.996023 29.2334043,29.8832241 29.005838,30.8257145 C28.9801243,30.93115 29.0418372,31.0365855 29.1421206,31.0790168 C29.8968178,31.3966091 30.4303772,32.1372291 30.4303772,33.0077148 C30.4303772,33.8782005 29.8993892,34.6162489 29.1459777,34.935127 C29.0456942,34.9775583 28.9839813,35.081708 29.009695,35.1884293 C29.238547,36.1309197 29.6139671,37.016835 30.1076702,37.8230307 C30.1642404,37.9143224 30.2786663,37.9438958 30.3789498,37.904036 C31.1375041,37.5967302 32.0349123,37.744597 32.6494699,38.3592087 C33.2640274,38.9725347 33.4105955,39.8700222 33.1046024,40.6273576 C33.0647462,40.7276499 33.094317,40.8420859 33.1856006,40.8986611 C33.9917252,41.3924078 34.8788481,41.7652894 35.8212553,41.9941615 C35.9266815,42.0198775 36.0321077,41.9581592 36.0745353,41.8578669 C36.3933852,41.1043889 37.1326542,40.573354 38.0017774,40.573354 C38.8721863,40.573354 39.6101697,41.1043889 39.9290196,41.8578669 C39.9714472,41.9581592 40.0755877,42.0198775 40.1822996,41.9941615 C41.1247068,41.7652894 42.0118296,41.3924078 42.8179543,40.8986611 C42.9105236,40.8420859 42.9388087,40.7276499 42.8989525,40.6273576 C42.590388,39.8687364 42.7369561,38.9699631 43.3527993,38.3540656 C43.9686426,37.738168 44.8686222,37.5928728 45.6271765,37.9014644 C45.7274599,37.94261 45.8418859,37.9130366 45.8984561,37.8204591 C46.3921592,37.0142634 46.7662936,36.1283481 46.9951456,35.1845719 C47.0182879,35.0778506 46.956575,34.9737009 46.8550059,34.9312696 C46.0977373,34.6136773 45.5641779,33.8730573 45.5641779,33.0012858 Z M33.4993078,33 C33.4993078,30.5184086 35.5178336,28.4997047 37.9992061,28.4997047 C40.4805786,28.4997047 42.4991043,30.5184086 42.4991043,33 C42.4991043,35.4815914 40.4805786,37.5002953 37.9992061,37.5002953 C35.5178336,37.5002953 33.4993078,35.4815914 33.4993078,33 Z M18.3137636,43.5147583 L24.9712724,38.6603995 L18.3137636,33.818575 C18.0457721,33.623672 17.9865221,33.2484219 18.181425,32.9804303 C18.376328,32.7124388 18.7515781,32.6531887 19.0195697,32.8480917 L26.352903,38.181425 C26.6823657,38.4210342 26.6823657,38.9122991 26.352903,39.1519083 L19.0195697,44.4852417 C18.7515781,44.6801446 18.376328,44.6208946 18.181425,44.352903 C17.9865221,44.0849115 18.0457721,43.7096613 18.3137636,43.5147583 Z M35.5,47 L26.5,47 C26.2238576,47 26,46.7761424 26,46.5 C26,46.2238576 26.2238576,46 26.5,46 L35.5,46 C35.7761424,46 36,46.2238576 36,46.5 C36,46.7761424 35.7761424,47 35.5,47 Z"/>
  </g>
</svg>
