<svg xmlns="http://www.w3.org/2000/svg" xmlns:xlink="http://www.w3.org/1999/xlink" width="64" height="64" viewBox="0 0 64 64">
  <defs>
    <linearGradient id="application-x-php-c" x1="50%" x2="50%" y1="0%" y2="100%">
      <stop offset="0%" stop-color="#647FC8"/>
      <stop offset="100%" stop-color="#4554A1"/>
    </linearGradient>
    <path id="application-x-php-b" d="M29,0 L42,13 L42,47.5 C42,49.9852814 39.9852814,52 37.5,52 L4.5,52 C2.01471863,52 3.04359188e-16,49.9852814 0,47.5 L0,4.5 C-3.04359188e-16,2.01471863 2.01471863,4.56538782e-16 4.5,0 L29,0 Z"/>
    <filter id="application-x-php-a" width="131%" height="125%" x="-15.5%" y="-10.6%" filterUnits="objectBoundingBox">
      <feOffset dy="1" in="SourceAlpha" result="shadowOffsetOuter1"/>
      <feGaussianBlur in="shadowOffsetOuter1" result="shadowBlurOuter1" stdDeviation="2"/>
      <feColorMatrix in="shadowBlurOuter1" values="0 0 0 0 0.149534536   0 0 0 0 0.271816956   0 0 0 0 0.918166893  0 0 0 0.5 0"/>
    </filter>
    <linearGradient id="application-x-php-f" x1="50%" x2="10.489%" y1="50%" y2="91.194%">
      <stop offset="0%" stop-color="#FFF" stop-opacity=".1"/>
      <stop offset="100%" stop-color="#FFF" stop-opacity=".3"/>
    </linearGradient>
    <path id="application-x-php-e" d="M29,0 L42,13 L33.5,13 C31.0147186,13 29,10.9852814 29,8.5 L29,0 Z"/>
    <filter id="application-x-php-d" width="153.8%" height="153.8%" x="-26.9%" y="-19.2%" filterUnits="objectBoundingBox">
      <feOffset dy="1" in="SourceAlpha" result="shadowOffsetOuter1"/>
      <feGaussianBlur in="shadowOffsetOuter1" result="shadowBlurOuter1" stdDeviation="1"/>
      <feComposite in="shadowBlurOuter1" in2="SourceAlpha" operator="out" result="shadowBlurOuter1"/>
      <feColorMatrix in="shadowBlurOuter1" values="0 0 0 0 0   0 0 0 0 0   0 0 0 0 0  0 0 0 0.05 0"/>
    </filter>
  </defs>
  <g fill="none" fill-rule="evenodd">
    <g transform="translate(11 7)">
      <use fill="#000" filter="url(#application-x-php-a)" xlink:href="#application-x-php-b"/>
      <use fill="url(#application-x-php-c)" xlink:href="#application-x-php-b"/>
      <use fill="#000" filter="url(#application-x-php-d)" xlink:href="#application-x-php-e"/>
      <use fill="url(#application-x-php-f)" xlink:href="#application-x-php-e"/>
    </g>
    <path fill="#FFF" d="M27.0835903,38.97059 L29.1753255,28.25 L31.6592593,28.25 L31.1363259,31.0294129 L33.4895267,31.0294129 C35.5812613,31.1617653 36.3656619,32.2205891 36.1041946,33.5441177 L35.1890616,38.97059 L32.574393,38.97059 L33.4895267,34.0735293 C33.6202609,33.4117654 33.6202609,33.0147066 32.7051272,33.0147066 L30.744125,33.0147066 L29.5675247,38.97059 L27.0835903,38.97059 L27.0835903,38.97059 Z M16.5508481,41.75 L18.6425827,31.02941 L23.4797178,31.02941 C25.5714524,31.1617623 26.6173191,32.2205865 26.6173191,34.0735272 C26.6173191,37.2500003 24.1333842,39.1029422 21.9109171,38.9705893 L19.5577164,38.9705893 L19.0347812,41.75 L16.5508475,41.75 L16.5508481,41.75 Z M20.0806492,36.9852964 L20.7343156,33.0147066 L22.4338505,33.0147066 C23.3489847,33.0147066 24.0026511,33.4117654 24.0026511,34.2058828 C23.8719175,36.4558829 22.8260508,36.8529446 21.6494498,36.9852964 L20.0806492,36.9852964 L20.0806492,36.9852964 Z M36.5704658,41.75 L38.6622005,31.0294129 L43.4993355,31.0294129 C45.5910702,31.1617653 46.6369369,32.2205891 46.6369369,34.0735293 C46.6369369,37.2500016 44.1530019,39.102943 41.9305349,38.97059 L39.5773341,38.97059 L39.054399,41.75 L36.5704652,41.75 L36.5704658,41.75 Z M40.1002669,36.9852964 L40.7539333,33.0147066 L42.4534682,33.0147066 C43.3686025,33.0147066 44.0222689,33.4117654 44.0222689,34.2058828 C43.8915353,36.4558829 42.8456685,36.8529446 41.6690676,36.9852964 L40.1002669,36.9852964 L40.1002669,36.9852964 Z"/>
  </g>
</svg>
