<svg xmlns="http://www.w3.org/2000/svg" xmlns:xlink="http://www.w3.org/1999/xlink" width="64" height="64" viewBox="0 0 64 64">
  <defs>
    <linearGradient id="application-wps-office.dps-c" x1="50%" x2="50%" y1="0%" y2="99.372%">
      <stop offset="0%" stop-color="#FFBC2A"/>
      <stop offset="100%" stop-color="#E77B00"/>
    </linearGradient>
    <path id="application-wps-office.dps-b" d="M29,0 L42,13 L42,47.5 C42,49.9852814 39.9852814,52 37.5,52 L4.5,52 C2.01471863,52 3.04359188e-16,49.9852814 0,47.5 L0,4.5 C-3.04359188e-16,2.01471863 2.01471863,4.56538782e-16 4.5,0 L29,0 Z"/>
    <filter id="application-wps-office.dps-a" width="131%" height="125%" x="-15.5%" y="-10.6%" filterUnits="objectBoundingBox">
      <feOffset dy="1" in="SourceAlpha" result="shadowOffsetOuter1"/>
      <feGaussianBlur in="shadowOffsetOuter1" result="shadowBlurOuter1" stdDeviation="2"/>
      <feColorMatrix in="shadowBlurOuter1" values="0 0 0 0 0.874509804   0 0 0 0 0.498039216   0 0 0 0 0.0588235294  0 0 0 0.5 0"/>
    </filter>
    <linearGradient id="application-wps-office.dps-f" x1="50%" x2="10.489%" y1="50%" y2="91.194%">
      <stop offset="0%" stop-color="#FFF" stop-opacity=".1"/>
      <stop offset="100%" stop-color="#FFF" stop-opacity=".3"/>
    </linearGradient>
    <path id="application-wps-office.dps-e" d="M29,0 L42,13 L33.5,13 C31.0147186,13 29,10.9852814 29,8.5 L29,0 Z"/>
    <filter id="application-wps-office.dps-d" width="153.8%" height="153.8%" x="-26.9%" y="-19.2%" filterUnits="objectBoundingBox">
      <feOffset dy="1" in="SourceAlpha" result="shadowOffsetOuter1"/>
      <feGaussianBlur in="shadowOffsetOuter1" result="shadowBlurOuter1" stdDeviation="1"/>
      <feComposite in="shadowBlurOuter1" in2="SourceAlpha" operator="out" result="shadowBlurOuter1"/>
      <feColorMatrix in="shadowBlurOuter1" values="0 0 0 0 0   0 0 0 0 0   0 0 0 0 0  0 0 0 0.05 0"/>
    </filter>
  </defs>
  <g fill="none" fill-rule="evenodd">
    <g transform="translate(11 7)">
      <g opacity=".9">
        <use fill="#000" filter="url(#application-wps-office.dps-a)" xlink:href="#application-wps-office.dps-b"/>
        <use fill="url(#application-wps-office.dps-c)" xlink:href="#application-wps-office.dps-b"/>
      </g>
      <use fill="#000" filter="url(#application-wps-office.dps-d)" xlink:href="#application-wps-office.dps-e"/>
      <use fill="url(#application-wps-office.dps-f)" xlink:href="#application-wps-office.dps-e"/>
    </g>
    <path fill="#FFF2E8" d="M24.9573333,44 L27,44 L27,37 L41,37 L41,26 L24.9573333,26 L24.9573333,44 Z M27,35 L27,28 L39,28 L39,35 L27,35 Z"/>
  </g>
</svg>
