<svg xmlns="http://www.w3.org/2000/svg" xmlns:xlink="http://www.w3.org/1999/xlink" width="64" height="64" viewBox="0 0 64 64">
  <defs>
    <linearGradient id="text-x-source-c" x1="50%" x2="50%" y1="0%" y2="99.203%">
      <stop offset="0%" stop-color="#619FFF"/>
      <stop offset="100%" stop-color="#0093E4"/>
    </linearGradient>
    <path id="text-x-source-b" d="M29,0 L42,13 L42,47.5 C42,49.9852814 39.9852814,52 37.5,52 L4.5,52 C2.01471863,52 3.04359188e-16,49.9852814 0,47.5 L0,4.5 C-3.04359188e-16,2.01471863 2.01471863,4.56538782e-16 4.5,0 L29,0 Z"/>
    <filter id="text-x-source-a" width="131%" height="125%" x="-15.5%" y="-10.6%" filterUnits="objectBoundingBox">
      <feOffset dy="1" in="SourceAlpha" result="shadowOffsetOuter1"/>
      <feGaussianBlur in="shadowOffsetOuter1" result="shadowBlurOuter1" stdDeviation="2"/>
      <feColorMatrix in="shadowBlurOuter1" values="0 0 0 0 0.0156862745   0 0 0 0 0.580392157   0 0 0 0 0.898039216  0 0 0 0.5 0"/>
    </filter>
    <linearGradient id="text-x-source-f" x1="50%" x2="10.489%" y1="50%" y2="91.194%">
      <stop offset="0%" stop-color="#FFF" stop-opacity=".1"/>
      <stop offset="100%" stop-color="#FFF" stop-opacity=".3"/>
    </linearGradient>
    <path id="text-x-source-e" d="M29,0 L42,13 L33.5,13 C31.0147186,13 29,10.9852814 29,8.5 L29,0 Z"/>
    <filter id="text-x-source-d" width="153.8%" height="153.8%" x="-26.9%" y="-19.2%" filterUnits="objectBoundingBox">
      <feOffset dy="1" in="SourceAlpha" result="shadowOffsetOuter1"/>
      <feGaussianBlur in="shadowOffsetOuter1" result="shadowBlurOuter1" stdDeviation="1"/>
      <feComposite in="shadowBlurOuter1" in2="SourceAlpha" operator="out" result="shadowBlurOuter1"/>
      <feColorMatrix in="shadowBlurOuter1" values="0 0 0 0 0   0 0 0 0 0   0 0 0 0 0  0 0 0 0.05 0"/>
    </filter>
  </defs>
  <g fill="none" fill-rule="evenodd">
    <g transform="translate(11 7)">
      <use fill="#000" filter="url(#text-x-source-a)" xlink:href="#text-x-source-b"/>
      <use fill="url(#text-x-source-c)" xlink:href="#text-x-source-b"/>
      <use fill="#000" filter="url(#text-x-source-d)" xlink:href="#text-x-source-e"/>
      <use fill="url(#text-x-source-f)" xlink:href="#text-x-source-e"/>
    </g>
    <path fill="#FFF" d="M22,25 L22,26 L17,26 L17,25 L22,25 Z M32,25 L32,26 L26,26 L26,25 L32,25 Z M47,25 L47,26 L42,26 L42,25 L47,25 Z M34,40 L34,41 L32,41 L32,40 L34,40 Z M28,30 L28,31 L21,31 L21,30 L28,30 Z M39,30 L39,31 L32,31 L32,30 L39,30 Z M47,35 L47,36 L39,36 L39,35 L47,35 Z M35,35 L35,36 L28,36 L28,35 L35,35 Z M20,30 L20,31 L17,31 L17,30 L20,30 Z M25,25 L25,26 L23,26 L23,25 L25,25 Z M31,30 L31,31 L29,31 L29,30 L31,30 Z M47,40 L47,41 L38,41 L38,40 L47,40 Z M37,40 L37,41 L35,41 L35,40 L37,40 Z M38,35 L38,36 L36,36 L36,35 L38,35 Z M27,35 L27,36 L25,36 L25,35 L27,35 Z M24,35 L24,36 L17,36 L17,35 L24,35 Z M31,40 L31,41 L17,41 L17,40 L31,40 Z M43,30 L43,31 L40,31 L40,30 L43,30 Z M47,30 L47,31 L44,31 L44,30 L47,30 Z M28,45 L28,46 L21,46 L21,45 L28,45 Z M39,45 L39,46 L32,46 L32,45 L39,45 Z M20,45 L20,46 L17,46 L17,45 L20,45 Z M31,45 L31,46 L29,46 L29,45 L31,45 Z M43,45 L43,46 L40,46 L40,45 L43,45 Z M47,45 L47,46 L44,46 L44,45 L47,45 Z M35,25 L35,26 L33,26 L33,25 L35,25 Z M38,25 L38,26 L36,26 L36,25 L38,25 Z M41,25 L41,26 L39,26 L39,25 L41,25 Z"/>
  </g>
</svg>
