<svg xmlns="http://www.w3.org/2000/svg" xmlns:xlink="http://www.w3.org/1999/xlink" width="64" height="64" viewBox="0 0 64 64">
  <defs>
    <linearGradient id="video-x-mp4-c" x1="50%" x2="50%" y1="0%" y2="100%">
      <stop offset="0%" stop-color="#327DFF"/>
      <stop offset="100%" stop-color="#1066FF"/>
    </linearGradient>
    <path id="video-x-mp4-b" d="M29,0 L42,13 L42,47.5 C42,49.9852814 39.9852814,52 37.5,52 L4.5,52 C2.01471863,52 3.04359188e-16,49.9852814 0,47.5 L0,4.5 C-3.04359188e-16,2.01471863 2.01471863,4.56538782e-16 4.5,0 L29,0 Z"/>
    <filter id="video-x-mp4-a" width="131%" height="125%" x="-15.5%" y="-10.6%" filterUnits="objectBoundingBox">
      <feOffset dy="1" in="SourceAlpha" result="shadowOffsetOuter1"/>
      <feGaussianBlur in="shadowOffsetOuter1" result="shadowBlurOuter1" stdDeviation="2"/>
      <feColorMatrix in="shadowBlurOuter1" values="0 0 0 0 0.0391387195   0 0 0 0 0.388542822   0 0 0 0 1  0 0 0 0.5 0"/>
    </filter>
    <linearGradient id="video-x-mp4-f" x1="50%" x2="10.489%" y1="50%" y2="91.194%">
      <stop offset="0%" stop-color="#FFF" stop-opacity=".1"/>
      <stop offset="100%" stop-color="#FFF" stop-opacity=".3"/>
    </linearGradient>
    <path id="video-x-mp4-e" d="M29,0 L42,13 L33.5,13 C31.0147186,13 29,10.9852814 29,8.5 L29,0 Z"/>
    <filter id="video-x-mp4-d" width="153.8%" height="153.8%" x="-26.9%" y="-19.2%" filterUnits="objectBoundingBox">
      <feOffset dy="1" in="SourceAlpha" result="shadowOffsetOuter1"/>
      <feGaussianBlur in="shadowOffsetOuter1" result="shadowBlurOuter1" stdDeviation="1"/>
      <feComposite in="shadowBlurOuter1" in2="SourceAlpha" operator="out" result="shadowBlurOuter1"/>
      <feColorMatrix in="shadowBlurOuter1" values="0 0 0 0 0   0 0 0 0 0   0 0 0 0 0  0 0 0 0.05 0"/>
    </filter>
  </defs>
  <g fill="none" fill-rule="evenodd">
    <g transform="translate(11 7)">
      <use fill="#000" filter="url(#video-x-mp4-a)" xlink:href="#video-x-mp4-b"/>
      <use fill="url(#video-x-mp4-c)" xlink:href="#video-x-mp4-b"/>
      <use fill="#000" filter="url(#video-x-mp4-d)" xlink:href="#video-x-mp4-e"/>
      <use fill="url(#video-x-mp4-f)" xlink:href="#video-x-mp4-e"/>
    </g>
    <path fill="#FFF" d="M32.75,46.75 L32.75,48.75 L34.75,48.75 C35.3060877,48.75 35.75,48.3049039 35.75,47.75 C35.75,47.1939123 35.3049039,46.75 34.75,46.75 L32.75,46.75 Z M39.75,45.75 L40.75,45.75 L40.75,50.25 L41.75,50.25 L41.75,51.25 L40.75,51.25 L40.75,52.75 L39.75,52.75 L39.75,51.25 L36.75,51.25 L36.75,50.25 C36.75,50.25 39.5664062,45.75 39.625,45.75 L39.75,45.75 Z M39.75,50.25 L39.75,47.3863636 L38,50.25 L39.75,50.25 Z M34.75,45.75 C36.1307119,45.75 36.75,46.75 36.75,47.75 C36.75,48.75 36.1403379,49.75 34.75,49.75 L32.7511561,49.75 L32.7511561,52.75 L31.75,52.75 L31.75,45.75 L34.75,45.75 Z M26.75,51.75 L24.75,48.25 L24.75,52.75 L23.75,52.75 L23.75,45.75 L24.25,45.75 L24.75,45.75 L27.25,50.5 L29.75,45.75 L30.25,45.75 L30.75,45.75 L30.75,52.75 L29.75,52.75 L29.75,48.25 L27.75,51.75 L27.25,51.75 L26.75,51.75 Z M32,41.75 C25.5106542,41.75 20.25,36.4893458 20.25,30 C20.25,23.5106542 25.5106542,18.25 32,18.25 C38.4893458,18.25 43.75,23.5106542 43.75,30 C43.75,36.4893458 38.4893458,41.75 32,41.75 Z M32,40.25 C37.6609187,40.25 42.25,35.6609187 42.25,30 C42.25,24.3390813 37.6609187,19.75 32,19.75 C26.3390813,19.75 21.75,24.3390813 21.75,30 C21.75,35.6609187 26.3390813,40.25 32,40.25 Z M39.7906667,29.6438846 C40.0613333,29.8035862 40.0613333,30.210478 39.7906667,30.3687909 L34.2173333,33.6447564 L28.5493333,36.9471074 C28.2826667,37.1012542 28,36.8998913 28,36.5832656 L28,29.9993942 L28,23.4169116 C28,23.0988971 28.2826667,22.898923 28.5493333,23.0530697 L34.24,26.3554207 L39.7906667,29.6438846 Z"/>
  </g>
</svg>
