<?xml version="1.0" encoding="utf-8"?>
<!-- Generator: Adobe Illustrator 17.1.0, SVG Export Plug-In . SVG Version: 6.00 Build 0)  -->
<!DOCTYPE svg PUBLIC "-//W3C//DTD SVG 1.1//EN" "http://www.w3.org/Graphics/SVG/1.1/DTD/svg11.dtd">
<svg version="1.1" id="图层_1" xmlns="http://www.w3.org/2000/svg" xmlns:xlink="http://www.w3.org/1999/xlink" x="0px" y="0px"
	 viewBox="0 0 128 128" enable-background="new 0 0 128 128" xml:space="preserve">
<path fill="#E2C551" d="M48,86h76V22c0-9.9-7.6-18-17.5-18H48V86z"/>
<linearGradient id="SVGID_1_" gradientUnits="userSpaceOnUse" x1="64" y1="4" x2="64" y2="124">
	<stop  offset="0" style="stop-color:#EFDF8E"/>
	<stop  offset="1" style="stop-color:#EACC66"/>
</linearGradient>
<path fill="url(#SVGID_1_)" d="M63.1,19.5c-2.1-4.4-4-8.6-5.2-11.2C55.9,4,49,4,49,4H22.5C12.5,4,4,12.1,4,22v84
	c0,9.9,8.5,18,18.5,18h84c9.9,0,17.5-8.1,17.5-18c0,0,0-69.9,0-73.7c0-8.9-8.9-9.3-8.9-9.3H69C69,23,65,23.4,63.1,19.5z"/>
<path fill="#D6B017" d="M78.4,80.5c-1.7-1.7-4.2-2.4-6.5-2.4c-2.6,0.1-5.1-0.9-6.9-2.7L65,75.3c-1.8-1.8-2.8-4.2-2.7-6.8
	c0-0.2,0-0.7,0-0.9c-0.1-2.5,0.9-5,2.7-6.8l0.2-0.2c1.8-1.8,4.2-2.8,6.7-2.7c3.8,0.1,8.1-1.9,8.9-7.3c0.4-2.4-0.2-5-1.7-6.9
	c-3.3-4-9.3-4.2-12.9-0.6c-1.7,1.7-2.4,4.2-2.4,6.5c0.1,2.6-0.9,5.1-2.7,6.9l-0.1,0.1c-1.8,1.8-4.2,2.8-6.8,2.7
	c-3-0.1-6.3,1.1-8,4.3c-1.9,3.3-1.5,7.7,1.4,10.5c0.7,0.7,1.4,1.1,2.2,1.5c0.2,0.1,0.3,0.1,0.5,0.2c0.2,0.1,0.5,0.2,0.7,0.3
	c1,0.3,2.1,0.5,3.1,0.4c2.5,0,5,0.9,6.7,2.7l0.2,0.2c1.8,1.8,2.8,4.2,2.7,6.7c-0.1,3.8,1.9,8.1,7.3,8.9c2.4,0.4,5-0.2,6.9-1.7
	C81.9,90.1,82,84.1,78.4,80.5z"/>
</svg>
