<?xml version="1.0" encoding="utf-8"?>
<!-- Generator: Adobe Illustrator 17.1.0, SVG Export Plug-In . SVG Version: 6.00 Build 0)  -->
<!DOCTYPE svg PUBLIC "-//W3C//DTD SVG 1.1//EN" "http://www.w3.org/Graphics/SVG/1.1/DTD/svg11.dtd">
<svg version="1.1" id="图层_1" xmlns="http://www.w3.org/2000/svg" xmlns:xlink="http://www.w3.org/1999/xlink" x="0px" y="0px"
	 viewBox="0 0 128 128" enable-background="new 0 0 128 128" xml:space="preserve">
<path fill="#E2C551" d="M48,86h76V22c0-9.9-7.9-18-17.8-18H48V86z"/>
<linearGradient id="SVGID_1_" gradientUnits="userSpaceOnUse" x1="64" y1="4" x2="64" y2="124">
	<stop  offset="0" style="stop-color:#F7E590"/>
	<stop  offset="1" style="stop-color:#F3D265"/>
</linearGradient>
<path fill="url(#SVGID_1_)" d="M62.9,19.5c-2.1-4.4-4-8.6-5.2-11.2C55.6,4,48.7,4,48.7,4H22.2C12.2,4,4,12.1,4,22v84
	c0,9.9,8.2,18,18.2,18h84c9.9,0,17.8-8.1,17.8-18c0,0,0-69.9,0-73.7c0-8.9-9.2-9.3-9.2-9.3H68.7C68.7,23,64.7,23.4,62.9,19.5z"/>
<g>
	<path fill="#D6B017" d="M63.2,96.8L42.3,76c-0.7-0.7-0.2-2,0.8-2h41.6c1.1,0,1.6,1.3,0.8,2L64.8,96.8
		C64.4,97.3,63.6,97.3,63.2,96.8z"/>
	<g>
		<path fill="#D6B017" d="M76,51.2c0-0.7-0.5-1.2-1.2-1.2H53.2c-0.7,0-1.2,0.5-1.2,1.2v5.6c0,0.7,0.5,1.2,1.2,1.2h21.6
			c0.7,0,1.2-0.5,1.2-1.2V51.2z"/>
		<path fill="#D6B017" d="M76,43.2c0-0.7-0.5-1.2-1.2-1.2H53.2c-0.7,0-1.2,0.5-1.2,1.2v1.6c0,0.7,0.5,1.2,1.2,1.2h21.6
			c0.7,0,1.2-0.5,1.2-1.2V43.2z"/>
		<path fill="#D6B017" d="M76,63.3c0-0.7-0.7-1.3-1.3-1.3H53.3c-0.7,0-1.3,0.7-1.3,1.3V78h24V63.3z"/>
	</g>
</g>
</svg>
