<?xml version="1.0" encoding="utf-8"?>
<!-- Generator: Adobe Illustrator 17.1.0, SVG Export Plug-In . SVG Version: 6.00 Build 0)  -->
<!DOCTYPE svg PUBLIC "-//W3C//DTD SVG 1.1//EN" "http://www.w3.org/Graphics/SVG/1.1/DTD/svg11.dtd">
<svg version="1.1" id="图层_1" xmlns="http://www.w3.org/2000/svg" xmlns:xlink="http://www.w3.org/1999/xlink" x="0px" y="0px"
	 viewBox="0 0 128 128" enable-background="new 0 0 128 128" xml:space="preserve">
<path fill="#E2C551" d="M48,86h76V22c0-9.9-7.8-18-17.7-18H48V86z"/>
<linearGradient id="SVGID_1_" gradientUnits="userSpaceOnUse" x1="64" y1="4" x2="64" y2="124">
	<stop  offset="0" style="stop-color:#F7E590"/>
	<stop  offset="1" style="stop-color:#F3D265"/>
</linearGradient>
<path fill="url(#SVGID_1_)" d="M63,19.5c-2.1-4.4-4-8.6-5.2-11.2C55.7,4,48.8,4,48.8,4H22.3C12.3,4,4,12.1,4,22v84
	c0,9.9,8.3,18,18.3,18h84c9.9,0,17.7-8.1,17.7-18c0,0,0-69.9,0-73.7c0-8.9-9.1-9.3-9.1-9.3H68.8C68.8,23,64.8,23.4,63,19.5z"/>
<path fill="#D6B017" d="M50.2,65.8c3.4,0,6.2-2.8,6.2-6.2c0-3.4-2.8-6.2-6.2-6.2c-3.4,0-6.2,2.8-6.2,6.2C44,63,46.8,65.8,50.2,65.8z
	"/>
<polygon fill="#D6B017" points="70.1,64.9 62.2,75.7 57.1,70.8 44,85 44,85 85.6,85 "/>
<path fill="none" stroke="#D6B017" stroke-width="5" stroke-miterlimit="10" d="M90.5,86.5c0,2.2-1.8,4-4,4h-44c-2.2,0-4-1.8-4-4
	v-35c0-2.2,1.8-4,4-4h44c2.2,0,4,1.8,4,4V86.5z"/>
</svg>
