<?xml version="1.0" encoding="utf-8"?>
<!-- Generator: Adobe Illustrator 17.1.0, SVG Export Plug-In . SVG Version: 6.00 Build 0)  -->
<!DOCTYPE svg PUBLIC "-//W3C//DTD SVG 1.1//EN" "http://www.w3.org/Graphics/SVG/1.1/DTD/svg11.dtd">
<svg version="1.1" id="图层_1" xmlns="http://www.w3.org/2000/svg" xmlns:xlink="http://www.w3.org/1999/xlink" x="0px" y="0px"
	 viewBox="0 0 128 128" enable-background="new 0 0 128 128" xml:space="preserve">
<path fill="#E2C551" d="M48,86h76V22c0-9.9-8.1-18-18-18H48V86z"/>
<linearGradient id="SVGID_1_" gradientUnits="userSpaceOnUse" x1="64" y1="4" x2="64" y2="124">
	<stop  offset="0" style="stop-color:#F7E590"/>
	<stop  offset="1" style="stop-color:#F3D265"/>
</linearGradient>
<path fill="url(#SVGID_1_)" d="M62.7,19.5c-2.1-4.4-4-8.6-5.2-11.2C55.4,4,48.5,4,48.5,4H22C12.1,4,4,12.1,4,22v84
	c0,9.9,8.1,18,18,18h84c9.9,0,18-8.1,18-18c0,0,0-69.9,0-73.7c0-8.9-9.3-9.3-9.3-9.3H68.5C68.5,23,64.5,23.4,62.7,19.5z"/>
<g>
	
		<circle fill="none" stroke="#D6B017" stroke-width="5" stroke-linecap="round" stroke-miterlimit="10" cx="61.9" cy="63.9" r="20.9"/>
	<path fill="#D6B017" d="M93.2,92.3l-2.9,2.9c-0.8,0.8-2.4,0.5-3.6-0.6L74.6,82.4c-1.2-1.2-1.4-2.8-0.6-3.6l2.9-2.9
		c0.8-0.8,2.4-0.5,3.6,0.6l12.2,12.2C93.8,89.9,94,91.5,93.2,92.3z"/>
</g>
</svg>
