<?xml version="1.0" encoding="utf-8"?>
<!-- Generator: Adobe Illustrator 17.1.0, SVG Export Plug-In . SVG Version: 6.00 Build 0)  -->
<!DOCTYPE svg PUBLIC "-//W3C//DTD SVG 1.1//EN" "http://www.w3.org/Graphics/SVG/1.1/DTD/svg11.dtd">
<svg version="1.1" id="图层_1" xmlns="http://www.w3.org/2000/svg" xmlns:xlink="http://www.w3.org/1999/xlink" x="0px" y="0px"
	 viewBox="0 0 128 128" enable-background="new 0 0 128 128" xml:space="preserve">
<path fill="#E2C551" d="M48,86h76V22c0-9.9-7.7-18-17.6-18H48V86z"/>
<linearGradient id="SVGID_1_" gradientUnits="userSpaceOnUse" x1="64" y1="4" x2="64" y2="124">
	<stop  offset="0" style="stop-color:#F7E590"/>
	<stop  offset="1" style="stop-color:#F3D265"/>
</linearGradient>
<path fill="url(#SVGID_1_)" d="M63.1,19.5c-2.1-4.4-4-8.6-5.2-11.2C55.8,4,48.9,4,48.9,4H22.4C12.4,4,4,12.1,4,22v84
	c0,9.9,8.4,18,18.4,18h84c9.9,0,17.6-8.1,17.6-18c0,0,0-69.9,0-73.7c0-8.9-9-9.3-9-9.3H68.9C68.9,23,64.9,23.4,63.1,19.5z"/>
<path fill="#D6B017" d="M53.8,45.3L37.1,55.5l11.4,9.6l16.4-10.1l16.5,10.2L64.9,75.3l11.4,9.6l16.6-10.6l-11.4-9.2l11.3-9.6
	L76,45.3l-11,9.5L53.8,45.3L53.8,45.3z M48.3,65.1l-11.4,9.2l16.7,10.6l11.3-9.6C64.8,75.3,48.3,65.1,48.3,65.1z M64.8,77.2
	l-11.3,9.6l-5-3.2v1.5l16.4,11.4l16.6-11.4v-1.6l-5.3,3.4C76.2,86.8,64.8,77.2,64.8,77.2z"/>
</svg>
