<?xml version="1.0" encoding="UTF-8" standalone="no"?>
<svg width="48px" height="48px" viewBox="0 0 48 48" version="1.1" xmlns="http://www.w3.org/2000/svg" xmlns:xlink="http://www.w3.org/1999/xlink">
    <!-- Generator: Sketch 3.8.3 (29802) - http://www.bohemiancoding.com/sketch -->
    <title>Tetravex</title>
    <desc>Created with Sketch.</desc>
    <defs>
        <filter x="-50%" y="-50%" width="200%" height="200%" filterUnits="objectBoundingBox" id="filter-1">
            <feOffset dx="0" dy="1" in="SourceAlpha" result="shadowOffsetOuter1"></feOffset>
            <feGaussianBlur stdDeviation="1" in="shadowOffsetOuter1" result="shadowBlurOuter1"></feGaussianBlur>
            <feColorMatrix values="0 0 0 0 0   0 0 0 0 0   0 0 0 0 0  0 0 0 0.2 0" type="matrix" in="shadowBlurOuter1" result="shadowMatrixOuter1"></feColorMatrix>
            <feMerge>
                <feMergeNode in="shadowMatrixOuter1"></feMergeNode>
                <feMergeNode in="SourceGraphic"></feMergeNode>
            </feMerge>
        </filter>
    </defs>
    <g id="Page-1" stroke="none" stroke-width="1" fill="none" fill-rule="evenodd">
        <g id="Tetravex">
            <g id="Group-2" filter="url(#filter-1)" transform="translate(5.000000, 3.000000)">
                <path d="M16.8716521,17.3716521 C18.0471062,18.5471062 19.9677582,18.559124 21.1533416,17.4064734 L34.8466584,4.09352656 C36.0359161,2.93730377 35.6517072,2 34.0038852,2 L4.49611483,2 C2.8414063,2 2.45330377,2.95330377 3.62834794,4.12834794 L16.8716521,17.3716521 Z" id="Path-27" fill="#5586BE"></path>
                <path d="M16.8716521,37.8716521 C18.0471062,39.0471062 19.9677582,39.059124 21.1533416,37.9064734 L34.8466584,24.5935266 C36.0359161,23.4373038 35.6517072,22.5 34.0038852,22.5 L4.49611483,22.5 C2.8414063,22.5 2.45330377,23.4533038 3.62834794,24.6283479 L16.8716521,37.8716521 Z" id="Path-27" fill="#89628E" transform="translate(19.250000, 31.250000) scale(1, -1) translate(-19.250000, -31.250000) "></path>
                <g id="Group" transform="translate(19.000000, 21.300000) rotate(-270.000000) translate(-19.000000, -21.300000) translate(1.000000, 2.300000)">
                    <path d="M15.3716521,15.3716521 C16.5471062,16.5471062 18.4677582,16.559124 19.6533416,15.4064734 L33.3466584,2.09352656 C34.5359161,0.937303767 34.1517072,7.10542736e-15 32.5038852,7.10542736e-15 L2.99611483,7.10542736e-15 C1.3414063,7.10542736e-15 0.953303766,0.953303766 2.12834794,2.12834794 L15.3716521,15.3716521 Z" id="Path-27" fill="#79D200"></path>
                    <path d="M15.3716521,35.8716521 C16.5471062,37.0471062 18.4677582,37.059124 19.6533416,35.9064734 L33.3466584,22.5935266 C34.5359161,21.4373038 34.1517072,20.5 32.5038852,20.5 L2.99611483,20.5 C1.3414063,20.5 0.953303766,21.4533038 2.12834794,22.6283479 L15.3716521,35.8716521 Z" id="Path-27" fill="#DF1919" transform="translate(17.750000, 29.250000) scale(1, -1) translate(-17.750000, -29.250000) "></path>
                </g>
                <text id="6" font-family="KohinoorDevanagari-Medium, Kohinoor Devanagari" font-size="12" font-weight="400" fill="#FFFFFF">
                    <tspan x="15" y="13">6</tspan>
                </text>
                <text id="2" font-family="KohinoorDevanagari-Medium, Kohinoor Devanagari" font-size="12" font-weight="400" fill="#FFFFFF">
                    <tspan x="3" y="25">2</tspan>
                </text>
                <text id="7" font-family="KohinoorDevanagari-Medium, Kohinoor Devanagari" font-size="12" font-weight="400" fill="#FFFFFF">
                    <tspan x="16" y="37">7</tspan>
                </text>
                <text id="5" font-family="KohinoorDevanagari-Medium, Kohinoor Devanagari" font-size="12" font-weight="400" fill="#FFFFFF">
                    <tspan x="28" y="25">5</tspan>
                </text>
            </g>
        </g>
    </g>
</svg>