<?xml version="1.0" encoding="UTF-8" standalone="no"?>
<svg width="48px" height="48px" viewBox="0 0 48 48" version="1.1" xmlns="http://www.w3.org/2000/svg" xmlns:xlink="http://www.w3.org/1999/xlink">
    <!-- Generator: Sketch 3.8.3 (29802) - http://www.bohemiancoding.com/sketch -->
    <title>Nightingale</title>
    <desc>Created with Sketch.</desc>
    <defs>
        <filter x="-50%" y="-50%" width="200%" height="200%" filterUnits="objectBoundingBox" id="filter-1">
            <feOffset dx="0" dy="1" in="SourceAlpha" result="shadowOffsetOuter1"></feOffset>
            <feGaussianBlur stdDeviation="1" in="shadowOffsetOuter1" result="shadowBlurOuter1"></feGaussianBlur>
            <feColorMatrix values="0 0 0 0 0   0 0 0 0 0   0 0 0 0 0  0 0 0 0.2 0" type="matrix" in="shadowBlurOuter1" result="shadowMatrixOuter1"></feColorMatrix>
            <feMerge>
                <feMergeNode in="shadowMatrixOuter1"></feMergeNode>
                <feMergeNode in="SourceGraphic"></feMergeNode>
            </feMerge>
        </filter>
    </defs>
    <g id="Page-1" stroke="none" stroke-width="1" fill="none" fill-rule="evenodd">
        <g id="Nightingale">
            <g id="Group-5" filter="url(#filter-1)" transform="translate(6.000000, 2.000000)">
                <ellipse id="Oval-13" fill="#D2CFAA" cx="17.1053122" cy="21.248835" rx="13.8471575" ry="13.8471575"></ellipse>
                <ellipse id="Oval-13" fill="#BDB468" cx="13.4930103" cy="21.248835" rx="9.03075489" ry="10.2348555"></ellipse>
                <path d="M3.25815471,19.4426841 C3.25815471,19.4426841 3.25815471,15.830382 9.27865797,11.0139795 C17.1053122,5.59552647 21.054055,1.61432651e-08 21.5675685,0.513513514 C21.8075378,0.753482797 21.5675685,1.54054059 21.054055,2.56756749 C20.8608093,2.95405876 21.5675685,3.59459452 20.5405415,5.64864857 C20.5405415,7.18918911 19.0000009,10.2702707 18.4864865,11.2972977 C16.4324324,15.4054058 13.4930103,17.636532 8.67660764,21.8508854 C3.86020503,26.0652387 3.25815471,19.4426841 3.25815471,19.4426841 Z" id="Path-31" fill="#923C20"></path>
                <path d="M7.47250699,17.6365331 C7.47250699,17.6365331 6.26840583,27.2693383 11.6868593,32.6877912 C17.1053127,38.1062442 30.9524697,41.7185461 30.9524697,41.7185461 C30.9524697,41.7185461 28.7567574,42.1081077 26.7027033,41.7185455 C24.6486493,41.3289832 23.7278658,42.3205965 23.7278658,42.3205965 C23.7278658,42.3205965 15.2991612,36.9021435 11.0848089,35.0959925 C1.8563505e-08,31.3243239 0.849953469,18.8406337 4.46225535,16.4324324 C8.07455723,14.0242311 7.47250699,17.6365331 7.47250699,17.6365331 Z" id="Path-29" fill="#923C20"></path>
                <path d="M14.7837503,38.2059498 C14.2863016,40.5462617 11.0190058,41.8346902 7.48604091,41.0837353 C3.95307598,40.3327804 1.49230383,37.8268135 1.98975248,35.4865016 C2.48720113,33.1461897 5.7544969,31.8577613 9.28746183,32.6087162 C11.1225059,32.9987668 12.6682907,33.8622896 13.660533,34.9301474 L23.4851984,6.03407252 C23.4851984,6.03407252 28.9329122,5.428771 29.5382137,10.8764847 C30.1435152,16.3241984 36.1965305,19.9560076 36.1965305,19.9560076 C36.1965305,19.9560076 30.1435152,19.3507063 28.3276106,15.1135954 C26.5117061,10.8764845 24.0905,11.4817862 24.0905,11.4817862 C24.0905,11.4817862 14.803078,38.1150201 14.7837503,38.2059498 Z" id="Combined-Shape" fill="#372A44" transform="translate(19.061188, 23.655903) rotate(6.000000) translate(-19.061188, -23.655903) "></path>
                <path d="M7.47250706,19.4426841 C7.47250706,19.4426841 16.5032619,27.2693383 33.9627213,30.8816403 C35.4324319,31.3243247 33.9627212,31.8378382 32.3513508,31.8378382 C31.6619282,32.2299393 30.8108102,32.3513518 29.7837832,32.3513518 C28.7567562,33.3783788 9.88070818,32.6877912 6.87045666,26.667288 C3.25815465,19.4426841 7.47250706,19.4426841 7.47250706,19.4426841 Z" id="Path-30" fill="#984521"></path>
                <g id="Group-4" transform="translate(1.027027, 13.422181)">
                    <path d="M7.85403667,1.83496003 C7.85403667,1.83496003 9.05813732,3.03906068 11.4663386,3.64111101 C12.068389,4.24316133 7.25198634,4.24316133 7.25198634,4.24316133 L7.85403667,1.83496003 Z" id="Path-28" fill="#DA8438" transform="translate(9.385203, 3.039061) rotate(-7.000000) translate(-9.385203, -3.039061) "></path>
                    <path d="M5.64864865,7.11835984 C5.64864865,6.60484633 5.13513514,6.09133281 5.13513514,6.09133281 C5.13513514,6.09133281 4.62162162,7.11835984 4.10810811,7.11835984 C4.10810811,6.60484633 3.59459459,6.09133281 3.59459459,6.09133281 C3.59459459,6.09133281 3.08108108,7.11835984 2.56756757,7.11835984 C2.56756757,6.60484633 2.05405405,6.09133281 2.05405405,6.09133281 C2.05405405,6.09133281 1.54054054,7.11835984 0.513513514,7.11835984 C1.02702703,6.60484633 1.05509355,6.10804456 1.11239283,5.80731498 C1.51474843,3.6955916 3.35852727,0.150099803 7.04753029,1.20410065 C8.85368127,1.80615098 8.25163094,4.21435228 8.25163094,4.21435228 C8.25163094,4.21435228 7.64958062,6.02050326 6.44547996,6.02050326 C6.34515716,6.02050325 6.16216216,7.11835984 5.64864865,7.11835984 Z" id="Path-27" fill="#984521"></path>
                    <ellipse id="Oval-16" fill="#000000" cx="6.78331201" cy="2.10717614" rx="0.337832049" ry="0.301025163"></ellipse>
                    <path d="M4.73939622,4.32733771 C5.40440265,4.32733771 6.0084741,4.17933629 5.91515473,3.10214543 C5.71248084,2.08285776 4.59514177,2.32263746 4.73939622,1.13336135 C3.83070935,0.336049357 3.53529557,2.45823063 3.53529557,3.12323705 C3.53529557,3.78824348 4.07438979,4.32733771 4.73939622,4.32733771 Z" id="Oval-15" fill="#393A51" transform="translate(4.730008, 2.642036) rotate(-6.000000) translate(-4.730008, -2.642036) "></path>
                </g>
                <g id="Group" transform="translate(10.000000, 2.000000)">
                    <path d="M23.5555424,29.6614992 C23.5555424,29.6614992 13.5555421,27.6614991 8.05554203,25.1614991 C2.55554198,22.661499 7.83677124,26.2633447 12.555542,27.661499 C17.2743127,29.0596533 23.5555424,29.6614992 23.5555424,29.6614992 Z" id="Path-32" fill="#923C20" transform="translate(14.632730, 26.981066) rotate(-1.000000) translate(-14.632730, -26.981066) "></path>
                    <path d="M21.5834974,30.3945389 C21.5834974,30.3945389 13.2124375,29.1483775 8.71243745,27.1483775 C4.21243745,25.1483775 5.86472623,26.9963843 10.5834969,28.3945386 C15.3022677,29.7926929 21.5834974,30.3945389 21.5834974,30.3945389 Z" id="Path-32" fill="#923C20" transform="translate(13.825376, 28.332018) rotate(-2.000000) translate(-13.825376, -28.332018) "></path>
                    <path d="M18.9639644,30.7115005 C18.9639644,30.7115005 15.9657917,30.4960393 11.5034325,29.3805644 C7.04107343,28.2650895 4.78588004,27.9824101 9.50465075,29.3805644 C14.2234215,30.7787187 18.9639644,30.7115005 18.9639644,30.7115005 Z" id="Path-32" fill="#923C20" transform="translate(12.923554, 29.573505) rotate(-2.000000) translate(-12.923554, -29.573505) "></path>
                    <path d="M11,0 C11,0 6.99999995,5.5 1.99999995,9 C-3.00000005,12.5 2.77529616,9.90385424 6.00000018,6.5 C9.2247042,3.09614576 11,0 11,0 Z" id="Path-35" fill="#88361B"></path>
                    <path d="M10.2584489,2.07592773 C10.2584489,2.07592773 6.69789458,8.07592773 3.75844894,10.0759277 C0.819003287,12.0759277 3.75212585,11.7264631 6.75844909,8.07592773 C9.76477233,4.42539237 10.2584489,2.07592773 10.2584489,2.07592773 Z" id="Path-36" fill="#88361C"></path>
                    <path d="M9.45995383,4.14838115 C9.45995383,4.14838115 8.77362213,8.12745896 6.77362213,10.127459 C4.77362213,12.127459 6.32676342,12.1262737 8.14057196,8.95210878 C9.9543805,5.77794383 9.45995383,4.14838115 9.45995383,4.14838115 Z" id="Path-37" fill="#88361C" transform="translate(7.678780, 7.826889) rotate(7.000000) translate(-7.678780, -7.826889) "></path>
                </g>
            </g>
        </g>
    </g>
</svg>