<?xml version="1.0" encoding="UTF-8" standalone="no"?>
<!-- Created with Inkscape (http://www.inkscape.org/) -->

<svg
   xmlns:dc="http://purl.org/dc/elements/1.1/"
   xmlns:cc="http://creativecommons.org/ns#"
   xmlns:rdf="http://www.w3.org/1999/02/22-rdf-syntax-ns#"
   xmlns:svg="http://www.w3.org/2000/svg"
   xmlns="http://www.w3.org/2000/svg"
   xmlns:sodipodi="http://sodipodi.sourceforge.net/DTD/sodipodi-0.dtd"
   xmlns:inkscape="http://www.inkscape.org/namespaces/inkscape"
   width="48"
   height="48"
   viewBox="0 0 48 48"
   id="svg4903"
   version="1.1"
   inkscape:version="0.91 r13725"
   sodipodi:docname="openra.svg">
  <defs
     id="defs4905" />
  <sodipodi:namedview
     id="base"
     pagecolor="#ffffff"
     bordercolor="#666666"
     borderopacity="1.0"
     inkscape:pageopacity="0.0"
     inkscape:pageshadow="2"
     inkscape:zoom="7.0627884"
     inkscape:cx="59.421204"
     inkscape:cy="23.022501"
     inkscape:document-units="px"
     inkscape:current-layer="layer1"
     showgrid="false"
     units="px"
     inkscape:snap-nodes="false"
     inkscape:window-width="1920"
     inkscape:window-height="984"
     inkscape:window-x="0"
     inkscape:window-y="0"
     inkscape:window-maximized="1">
    <inkscape:grid
       type="xygrid"
       id="grid5451" />
  </sodipodi:namedview>
  <metadata
     id="metadata4908">
    <rdf:RDF>
      <cc:Work
         rdf:about="">
        <dc:format>image/svg+xml</dc:format>
        <dc:type
           rdf:resource="http://purl.org/dc/dcmitype/StillImage" />
        <dc:title></dc:title>
      </cc:Work>
    </rdf:RDF>
  </metadata>
  <g
     inkscape:label="Layer 1"
     inkscape:groupmode="layer"
     id="layer1"
     transform="translate(0,-1004.3622)">
    <path
       sodipodi:type="star"
       style="opacity:0.05;fill:#000000;fill-opacity:1;stroke:none;stroke-width:3;stroke-linecap:round;stroke-linejoin:round;stroke-opacity:1"
       id="path5554"
       sodipodi:sides="5"
       sodipodi:cx="20.621223"
       sodipodi:cy="1041.4615"
       sodipodi:r1="16.994116"
       sodipodi:r2="44.721359"
       sodipodi:arg1="-2.677945"
       sodipodi:arg2="-2.0496265"
       inkscape:flatsided="false"
       inkscape:rounded="0"
       inkscape:randomized="0"
       d="m 5.4212245,1033.8615 -5.40497509,-32.0917 23.13594559,22.8872 28.850839,-15.0574 -14.617585,29.0761 23.235774,22.7858 -32.17011,-4.9171 -14.490341,29.1397 -5.2646364,-32.115 -32.1912966,-4.7765 z"
       inkscape:transform-center-x="-2.2935347"
       inkscape:transform-center-y="-2.1405952"
       transform="matrix(-0.2348346,-0.4696289,0.4696289,-0.2348346,-460.35166,1286.1889)" />
    <path
       transform="matrix(-0.2348346,-0.4696289,0.4696289,-0.2348346,-460.35166,1285.3753)"
       inkscape:transform-center-y="-2.1405952"
       inkscape:transform-center-x="-2.2935347"
       d="m 5.4212245,1033.8615 -5.40497509,-32.0917 23.13594559,22.8872 28.850839,-15.0574 -14.617585,29.0761 23.235774,22.7858 -32.17011,-4.9171 -14.490341,29.1397 -5.2646364,-32.115 -32.1912966,-4.7765 z"
       inkscape:randomized="0"
       inkscape:rounded="0"
       inkscape:flatsided="false"
       sodipodi:arg2="-2.0496265"
       sodipodi:arg1="-2.677945"
       sodipodi:r2="44.721359"
       sodipodi:r1="16.994116"
       sodipodi:cy="1041.4615"
       sodipodi:cx="20.621223"
       sodipodi:sides="5"
       id="path5552"
       style="opacity:0.1;fill:#000000;fill-opacity:1;stroke:none;stroke-width:3;stroke-linecap:round;stroke-linejoin:round;stroke-opacity:1"
       sodipodi:type="star" />
    <path
       sodipodi:type="star"
       style="opacity:0.15;fill:#000000;fill-opacity:1;stroke:none;stroke-width:3;stroke-linecap:round;stroke-linejoin:round;stroke-opacity:1"
       id="path5550"
       sodipodi:sides="5"
       sodipodi:cx="20.621223"
       sodipodi:cy="1041.4615"
       sodipodi:r1="16.994116"
       sodipodi:r2="44.721359"
       sodipodi:arg1="-2.677945"
       sodipodi:arg2="-2.0496265"
       inkscape:flatsided="false"
       inkscape:rounded="0"
       inkscape:randomized="0"
       d="m 5.4212245,1033.8615 -5.40497509,-32.0917 23.13594559,22.8872 28.850839,-15.0574 -14.617585,29.0761 23.235774,22.7858 -32.17011,-4.9171 -14.490341,29.1397 -5.2646364,-32.115 -32.1912966,-4.7765 z"
       inkscape:transform-center-x="-2.2935347"
       inkscape:transform-center-y="-2.1405952"
       transform="matrix(-0.2348346,-0.4696289,0.4696289,-0.2348346,-460.35166,1284.5893)" />
    <path
       transform="matrix(-0.2348346,-0.4696289,0.4696289,-0.2348346,-460.35166,1283.8173)"
       inkscape:transform-center-y="-2.1405952"
       inkscape:transform-center-x="-2.2935347"
       d="m 5.4212245,1033.8615 -5.40497509,-32.0917 23.13594559,22.8872 28.850839,-15.0574 -14.617585,29.0761 23.235774,22.7858 -32.17011,-4.9171 -14.490341,29.1397 -5.2646364,-32.115 -32.1912966,-4.7765 z"
       inkscape:randomized="0"
       inkscape:rounded="0"
       inkscape:flatsided="false"
       sodipodi:arg2="-2.0496265"
       sodipodi:arg1="-2.677945"
       sodipodi:r2="44.721359"
       sodipodi:r1="16.994116"
       sodipodi:cy="1041.4615"
       sodipodi:cx="20.621223"
       sodipodi:sides="5"
       id="path5546"
       style="opacity:1;fill:#aa0000;fill-opacity:1;stroke:none;stroke-width:3;stroke-linecap:round;stroke-linejoin:round;stroke-opacity:1"
       sodipodi:type="star" />
    <path
       sodipodi:type="star"
       style="opacity:1;fill:#ff0000;fill-opacity:1;stroke:none;stroke-width:3;stroke-linecap:round;stroke-linejoin:round;stroke-opacity:1"
       id="path5464"
       sodipodi:sides="5"
       sodipodi:cx="20.621223"
       sodipodi:cy="1041.4615"
       sodipodi:r1="16.994116"
       sodipodi:r2="44.721359"
       sodipodi:arg1="-2.677945"
       sodipodi:arg2="-2.0496265"
       inkscape:flatsided="false"
       inkscape:rounded="0"
       inkscape:randomized="0"
       d="m 5.4212245,1033.8615 -5.40497509,-32.0917 23.13594559,22.8872 28.850839,-15.0574 -14.617585,29.0761 23.235774,22.7858 -32.17011,-4.9171 -14.490341,29.1397 -5.2646364,-32.115 -32.1912966,-4.7765 z"
       inkscape:transform-center-x="-1.9473739"
       inkscape:transform-center-y="-1.8042018"
       transform="matrix(-0.19939207,-0.39585458,0.39874991,-0.19794427,-387.22922,1243.8916)" />
    <path
       style="opacity:1;fill:#c69900;fill-opacity:1;fill-rule:evenodd;stroke:none;stroke-width:1px;stroke-linecap:butt;stroke-linejoin:miter;stroke-opacity:1"
       d="m 20.172408,1014.6442 c 13.343906,10.2645 8.92735,17.0427 8.92735,17.0427 l -6.874442,-6.7782 c 0,0 4.524395,-4.2366 2.052909,-4.1058 -3.483765,0.184 -5.032028,0.1603 -5.032028,0.1603 l -5.940204,5.411 3.408147,3.2879 2.501982,-2.1712 c 0,0 6.997513,7.2241 6.908519,7.0448 -5.381894,2.9692 -9.390454,-2.6904 -9.390454,-2.6904 -0.438379,0.3321 -0.876767,0.6642 -1.315145,0.9964 0,0 -0.94362,-0.517 -1.563742,-0.01 -0.575276,0.4702 -0.140336,1.4153 -0.140336,1.4153 0,0 -6.3733471,2.6902 -3.7469588,5.1524 2.3016908,2.1577 5.4670798,-3.6547 5.4670798,-3.6547 0,0 6.063871,7.8904 13.662661,2.4157 l 1.615865,1.8985 3.305901,-2.9891 -1.808315,-1.8564 c 4.168668,-4.9546 1.884037,-11.1253 -1.724125,-14.7674 -5.120118,-5.1684 -10.314664,-5.8018 -10.314664,-5.8018 z"
       id="path5468"
       inkscape:connector-curvature="0"
       sodipodi:nodetypes="cccccccccccscsccccccc" />
    <path
       sodipodi:nodetypes="cccccccccccscsccccccc"
       inkscape:connector-curvature="0"
       id="path5556"
       d="m 20.337371,1014.3372 c 13.247268,10.1901 8.862697,16.9192 8.862697,16.9192 l -6.824657,-6.7291 c 0,0 4.491629,-4.2059 2.038042,-4.076 -3.458535,0.1826 -4.995586,0.1591 -4.995586,0.1591 l -5.897184,5.3718 3.383465,3.2641 2.483862,-2.1555 c 0,0 6.946837,7.1718 6.858487,6.9938 -5.342918,2.9477 -9.322448,-2.6709 -9.322448,-2.6709 -0.435204,0.3297 -0.870417,0.6594 -1.30562,0.9892 0,0 -0.936786,-0.5133 -1.552418,-0.01 -0.571109,0.4668 -0.139319,1.4051 -0.139319,1.4051 0,0 -6.3271919,2.6707 -3.719824,5.1151 2.285023,2.142 5.427488,-3.6283 5.427488,-3.6283 0,0 6.019956,7.8333 13.563715,2.3982 l 1.604163,1.8848 3.281959,-2.9675 -1.795219,-1.8429 c 4.138478,-4.9187 1.870393,-11.0447 -1.711639,-14.6605 -5.083038,-5.1309 -10.239964,-5.7597 -10.239964,-5.7597 z"
       style="opacity:1;fill:#ffd300;fill-opacity:1;fill-rule:evenodd;stroke:none;stroke-width:1px;stroke-linecap:butt;stroke-linejoin:miter;stroke-opacity:1" />
  </g>
</svg>
