<?xml version="1.0" encoding="UTF-8"?>
<svg width="64px" height="64px" viewBox="0 0 64 64" version="1.1" xmlns="http://www.w3.org/2000/svg" xmlns:xlink="http://www.w3.org/1999/xlink">
    <title>com.deepin.gomoku</title>
    <defs>
        <filter x="-14.3%" y="-14.3%" width="128.6%" height="128.6%" filterUnits="objectBoundingBox" id="filter-1">
            <feOffset dx="0" dy="1" in="SourceAlpha" result="shadowOffsetOuter1"></feOffset>
            <feGaussianBlur stdDeviation="1.5" in="shadowOffsetOuter1" result="shadowBlurOuter1"></feGaussianBlur>
            <feColorMatrix values="0 0 0 0 0   0 0 0 0 0   0 0 0 0 0  0 0 0 0.2 0" type="matrix" in="shadowBlurOuter1" result="shadowMatrixOuter1"></feColorMatrix>
            <feMerge>
                <feMergeNode in="shadowMatrixOuter1"></feMergeNode>
                <feMergeNode in="SourceGraphic"></feMergeNode>
            </feMerge>
        </filter>
        <linearGradient x1="50%" y1="0%" x2="50%" y2="100%" id="linearGradient-2">
            <stop stop-color="#F0D1AE" offset="0%"></stop>
            <stop stop-color="#BE8C6A" offset="100%"></stop>
        </linearGradient>
        <rect id="path-3" x="0" y="0" width="56" height="56" rx="5"></rect>
        <filter x="-1.8%" y="-1.8%" width="103.6%" height="103.6%" filterUnits="objectBoundingBox" id="filter-4">
            <feOffset dx="0" dy="2" in="SourceAlpha" result="shadowOffsetInner1"></feOffset>
            <feComposite in="shadowOffsetInner1" in2="SourceAlpha" operator="arithmetic" k2="-1" k3="1" result="shadowInnerInner1"></feComposite>
            <feColorMatrix values="0 0 0 0 1   0 0 0 0 1   0 0 0 0 1  0 0 0 0.668050699 0" type="matrix" in="shadowInnerInner1"></feColorMatrix>
        </filter>
        <linearGradient x1="50%" y1="0.680179196%" x2="50%" y2="100%" id="linearGradient-5">
            <stop stop-color="#DEB995" offset="0%"></stop>
            <stop stop-color="#97592F" offset="100%"></stop>
        </linearGradient>
        <linearGradient x1="50%" y1="0%" x2="50%" y2="100%" id="linearGradient-6">
            <stop stop-color="#E6C3A0" offset="0%"></stop>
            <stop stop-color="#A9744F" offset="100%"></stop>
        </linearGradient>
        <radialGradient cx="50%" cy="25.2410013%" fx="50%" fy="25.2410013%" r="74.7589987%" id="radialGradient-7">
            <stop stop-color="#767676" offset="0%"></stop>
            <stop stop-color="#000000" offset="100%"></stop>
        </radialGradient>
        <radialGradient cx="50%" cy="32.8753201%" fx="50%" fy="32.8753201%" r="67.1246799%" id="radialGradient-8">
            <stop stop-color="#FFFBFB" offset="0%"></stop>
            <stop stop-color="#FFFBFB" offset="37.6095851%"></stop>
            <stop stop-color="#C8CBE4" offset="100%"></stop>
        </radialGradient>
    </defs>
    <g id="com.deepin.gomoku" stroke="none" stroke-width="1" fill="none" fill-rule="evenodd">
        <g id="编组" filter="url(#filter-1)" transform="translate(4.000000, 4.000000)">
            <g id="矩形">
                <use fill="url(#linearGradient-2)" fill-rule="evenodd" xlink:href="#path-3"></use>
                <use fill="black" fill-opacity="1" filter="url(#filter-4)" xlink:href="#path-3"></use>
            </g>
            <path d="M51,0 C53.7614237,0 56,2.23857625 56,5 L56,51 C56,53.7614237 53.7614237,56 51,56 L5,56 C2.23857625,56 0,53.7614237 0,51 L0,5 C0,2.23857625 2.23857625,0 5,0 L51,0 Z M51,1 L5,1 C2.85780461,1 1.10892112,2.68396847 1.00489531,4.80035966 L1,5 L1,51 C1,53.1421954 2.68396847,54.8910789 4.80035966,54.9951047 L5,55 L51,55 C53.1421954,55 54.8910789,53.3160315 54.9951047,51.1996403 L55,51 L55,5 C55,2.85780461 53.3160315,1.10892112 51.1996403,1.00489531 L51,1 Z" id="矩形" fill="url(#linearGradient-5)" fill-rule="nonzero"></path>
            <path d="M14.8891325,2 L14.889,13.999 L27.999,13.999 L28,2 L28.8891325,2 L28.889,13.999 L41.999,13.999 L42,2 L42.8891325,2 L42.889,13.999 L54,14 L54,15 L42.889,14.999 L42.889,27.999 L54,28 L54,29 L42.889,28.999 L42.889,41.999 L54,42 L54,43 L42.889,42.999 L42.8891325,54 L42,54 L41.999,42.999 L28.889,42.999 L28.8891325,54 L28,54 L27.999,42.999 L14.889,42.999 L14.8891325,54 L14,54 L13.999,42.999 L2,43 L2,42 L13.999,41.999 L13.999,28.999 L2,29 L2,28 L13.999,27.999 L13.999,14.999 L2,15 L2,14 L13.999,13.999 L14,2 L14.8891325,2 Z M27.999,28.999 L14.889,28.999 L14.889,41.999 L27.999,41.999 L27.999,28.999 Z M41.999,28.999 L28.889,28.999 L28.889,41.999 L41.999,41.999 L41.999,28.999 Z M27.999,14.999 L14.889,14.999 L14.889,27.999 L27.999,27.999 L27.999,14.999 Z M41.999,14.999 L28.889,14.999 L28.889,27.999 L41.999,27.999 L41.999,14.999 Z" id="形状结合" fill="url(#linearGradient-6)"></path>
            <circle id="椭圆形备份" fill="url(#radialGradient-7)" cx="42" cy="42" r="5"></circle>
            <circle id="椭圆形备份-2" fill="url(#radialGradient-7)" cx="28" cy="14" r="5"></circle>
            <circle id="椭圆形备份-3" fill="url(#radialGradient-7)" cx="14" cy="28" r="5"></circle>
            <path d="M42,36 C38.6862915,36 36,38.6862915 36,42 C36,45.3137085 38.6862915,48 42,48 C45.3137085,48 48,45.3137085 48,42 C48,38.6862915 45.3137085,36 42,36 Z M42,37 C44.7614237,37 47,39.2385763 47,42 C47,44.7614237 44.7614237,47 42,47 C39.2385763,47 37,44.7614237 37,42 C37,39.2385763 39.2385763,37 42,37 Z" id="椭圆形备份" fill-opacity="0.2" fill="#000000" fill-rule="nonzero"></path>
            <path d="M28,8 C24.6862915,8 22,10.6862915 22,14 C22,17.3137085 24.6862915,20 28,20 C31.3137085,20 34,17.3137085 34,14 C34,10.6862915 31.3137085,8 28,8 Z M28,9 C30.7614237,9 33,11.2385763 33,14 C33,16.7614237 30.7614237,19 28,19 C25.2385763,19 23,16.7614237 23,14 C23,11.2385763 25.2385763,9 28,9 Z" id="椭圆形备份-2" fill-opacity="0.2" fill="#000000" fill-rule="nonzero"></path>
            <path d="M14,22 C10.6862915,22 8,24.6862915 8,28 C8,31.3137085 10.6862915,34 14,34 C17.3137085,34 20,31.3137085 20,28 C20,24.6862915 17.3137085,22 14,22 Z M14,23 C16.7614237,23 19,25.2385763 19,28 C19,30.7614237 16.7614237,33 14,33 C11.2385763,33 9,30.7614237 9,28 C9,25.2385763 11.2385763,23 14,23 Z" id="椭圆形备份-3" fill-opacity="0.2" fill="#000000" fill-rule="nonzero"></path>
            <g id="白棋" transform="translate(8.000000, 8.000000)">
                <circle id="椭圆形备份" fill="url(#radialGradient-8)" cx="6" cy="6" r="5"></circle>
                <path d="M6,0 C2.6862915,0 0,2.6862915 0,6 C0,9.3137085 2.6862915,12 6,12 C9.3137085,12 12,9.3137085 12,6 C12,2.6862915 9.3137085,0 6,0 Z M6,1 C8.76142375,1 11,3.23857625 11,6 C11,8.76142375 8.76142375,11 6,11 C3.23857625,11 1,8.76142375 1,6 C1,3.23857625 3.23857625,1 6,1 Z" id="椭圆形备份" fill-opacity="0.0968094406" fill="#000000" fill-rule="nonzero"></path>
            </g>
            <g id="白棋备份" transform="translate(22.000000, 22.000000)">
                <circle id="椭圆形备份" fill="url(#radialGradient-8)" cx="6" cy="6" r="5"></circle>
                <path d="M6,0 C2.6862915,0 0,2.6862915 0,6 C0,9.3137085 2.6862915,12 6,12 C9.3137085,12 12,9.3137085 12,6 C12,2.6862915 9.3137085,0 6,0 Z M6,1 C8.76142375,1 11,3.23857625 11,6 C11,8.76142375 8.76142375,11 6,11 C3.23857625,11 1,8.76142375 1,6 C1,3.23857625 3.23857625,1 6,1 Z" id="椭圆形备份" fill-opacity="0.0968094406" fill="#000000" fill-rule="nonzero"></path>
            </g>
        </g>
    </g>
</svg>