<svg xmlns="http://www.w3.org/2000/svg" width="64" height="64" viewBox="0 0 64 64">
  <defs>
    <filter id="crossover-a" width="126.7%" height="126.7%" x="-13.3%" y="-13.3%" filterUnits="objectBoundingBox">
      <feOffset dy="1" in="SourceAlpha" result="shadowOffsetOuter1"/>
      <feGaussianBlur in="shadowOffsetOuter1" result="shadowBlurOuter1" stdDeviation="1.5"/>
      <feColorMatrix in="shadowBlurOuter1" result="shadowMatrixOuter1" values="0 0 0 0 0   0 0 0 0 0   0 0 0 0 0  0 0 0 0.2 0"/>
      <feMerge>
        <feMergeNode in="shadowMatrixOuter1"/>
        <feMergeNode in="SourceGraphic"/>
      </feMerge>
    </filter>
    <linearGradient id="crossover-b" x1="50%" x2="50%" y1="0%" y2="100%">
      <stop offset="0%" stop-color="#001965" stop-opacity=".076"/>
      <stop offset="100%" stop-color="#00105C" stop-opacity=".104"/>
    </linearGradient>
    <linearGradient id="crossover-c" x1="50%" x2="50%" y1="0%" y2="99.161%">
      <stop offset="0%" stop-color="#4F73DB"/>
      <stop offset="100%" stop-color="#4255B4"/>
    </linearGradient>
    <linearGradient id="crossover-d" x1="50%" x2="50%" y1="0%" y2="100%">
      <stop offset="0%" stop-color="#5874C5"/>
      <stop offset="100%" stop-color="#2B3E9A"/>
    </linearGradient>
    <linearGradient id="crossover-e" x1="50%" x2="50%" y1="0%" y2="100%">
      <stop offset="0%" stop-color="#CA6542"/>
      <stop offset="100%" stop-color="#E79E77"/>
    </linearGradient>
  </defs>
  <g fill="none" filter="url(#crossover-a)" transform="translate(2 2)">
    <circle cx="30" cy="30" r="29" fill="#FFF"/>
    <path fill="url(#crossover-b)" d="M30,0 C13.4314575,0 0,13.4314575 0,30 C0,46.5685425 13.4314575,60 30,60 C46.5685425,60 60,46.5685425 60,30 C60,13.4314575 46.5685425,0 30,0 Z M30,1 C46.0162577,1 59,13.9837423 59,30 C59,46.0162577 46.0162577,59 30,59 C13.9837423,59 1,46.0162577 1,30 C1,13.9837423 13.9837423,1 30,1 Z"/>
    <path fill="url(#crossover-c)" d="M30,3 C15.0883118,3 3,15.0883118 3,30 C3,44.9116882 15.0883118,57 30,57 C37.2051543,57 44.0238267,54.1599393 49.0918831,49.0918831 C54.1599393,44.0238267 57,37.2051543 57,30 C57,15.0883118 44.9116882,3 30,3 Z M30,4 C44.3594035,4 56,15.6405965 56,30 C56,36.9899616 53.229578,43.5399744 48.3847763,48.3847763 C43.5399744,53.229578 36.9899617,56 30,56 C15.6405965,56 4,44.3594035 4,30 C4,15.6405965 15.6405965,4 30,4 Z"/>
    <path fill="url(#crossover-d)" d="M51.4018626,23.240802 C48.9427017,21.2752198 46.0761782,19.5191392 42.8852309,18.0984379 C29.6927559,12.2247696 15.9506891,14.3079118 12.1914655,22.7512662 C8.43224195,31.1946205 16.0794031,42.8008606 29.2718781,48.6745289 C30.0802577,49.0344427 30.8907009,49.3644808 31.7007844,49.6650107 C23.9929276,43.5041991 20.2870471,35.285219 23.1370035,28.8841121 C26.6658776,20.9581311 38.9916642,18.6367889 51.4018626,23.240802 Z"/>
    <path fill="url(#crossover-e)" d="M48.7410107,19.1852733 C46.2764619,17.23766 43.4135254,15.4950323 40.2329704,14.078958 C26.907434,8.14604695 13.0526921,10.1919612 9.28753823,18.6486353 C5.52238431,27.1053095 13.2726056,38.770373 26.5981419,44.7032841 C27.4462096,45.0808681 28.2964208,45.4261352 29.1460381,45.7394896 C21.2848939,39.5272089 17.4769922,31.2293811 20.3434747,24.7911561 C23.8690056,16.8726841 36.2407417,14.5749468 48.7410107,19.1852733 Z" transform="rotate(-179 28.539 28.212)"/>
    <path fill="#FFF" d="M8.83076551,18.445267 C5.59223875,25.7191172 10.4974606,35.1672979 20.0044318,41.6180295 L20.699649,42.0790538 C22.4574837,43.2181995 24.3628275,44.2553761 26.3947736,45.1600568 C27.2479159,45.5399002 28.1081244,45.8896109 28.9730214,46.2086006 C29.5068899,46.4055011 29.9024944,45.7000014 29.4560482,45.3471966 C21.58043,39.1234778 18.1016881,31.0555878 20.8002474,24.9945244 C23.5047986,18.920003 31.7773839,16.2184176 41.3312823,17.7429868 L42.1193314,17.8778279 C44.2280196,18.2628756 46.3926189,18.8520665 48.567994,19.6543844 C49.1018625,19.8512848 49.4974669,19.1457851 49.0510208,18.7929804 C46.5050249,16.7810034 43.5967097,15.0292731 40.4363387,13.6221852 C37.3206881,12.2350082 34.1727092,11.2774752 31.1246173,10.7319593 L30.3318157,10.5989856 C20.5840194,9.07396132 11.9892262,11.7981092 8.9508865,18.1843601 L8.83076551,18.445267 Z M40.6867707,14.8351285 C42.4288836,15.6470391 44.0874595,16.5664305 45.6422699,17.577671 L45.862,17.723 L45.61938,17.6553192 C34.0073348,14.4548843 23.2049717,17.1348319 19.886702,24.5877878 L19.7622545,24.8781478 C17.3992793,30.6114431 19.9707852,37.7763232 26.1293843,43.7626694 L26.486,44.104 L26.0061279,43.8823983 C13.3919887,37.9475286 6.18989296,26.8353571 9.74431096,18.8520036 C13.3727793,10.7023303 26.9248364,8.70111315 40.0296021,14.5357307 L40.6867707,14.8351285 Z" transform="rotate(-179 28.54 28.214)"/>
  </g>
</svg>
