<svg xmlns="http://www.w3.org/2000/svg" xmlns:xlink="http://www.w3.org/1999/xlink" width="64" height="64" viewBox="0 0 64 64">
  <defs>
    <filter id="dde-introduction-a" width="127.6%" height="133.3%" x="-13.8%" y="-16.7%" filterUnits="objectBoundingBox">
      <feOffset dy="1" in="SourceAlpha" result="shadowOffsetOuter1"/>
      <feGaussianBlur in="shadowOffsetOuter1" result="shadowBlurOuter1" stdDeviation="1.5"/>
      <feColorMatrix in="shadowBlurOuter1" result="shadowMatrixOuter1" values="0 0 0 0 0   0 0 0 0 0   0 0 0 0 0  0 0 0 0.2 0"/>
      <feMerge>
        <feMergeNode in="shadowMatrixOuter1"/>
        <feMergeNode in="SourceGraphic"/>
      </feMerge>
    </filter>
    <linearGradient id="dde-introduction-b" x1="54.21%" x2="54.135%" y1="84.701%" y2="15.299%">
      <stop offset="0%" stop-color="#E6E6E6"/>
      <stop offset="100%" stop-color="#FAFAFA"/>
    </linearGradient>
    <path id="dde-introduction-c" d="M3.5,1 L54.5,1 C55.8807119,1 57,2.11928813 57,3.5 L57,44.5 C57,45.8807119 55.8807119,47 54.5,47 L3.5,47 C2.11928813,47 1,45.8807119 1,44.5 L1,3.5 C1,2.11928813 2.11928813,1 3.5,1 Z"/>
    <filter id="dde-introduction-d" width="101.8%" height="102.2%" x="-.9%" y="-1.1%" filterUnits="objectBoundingBox">
      <feOffset dy="1" in="SourceAlpha" result="shadowOffsetInner1"/>
      <feComposite in="shadowOffsetInner1" in2="SourceAlpha" k2="-1" k3="1" operator="arithmetic" result="shadowInnerInner1"/>
      <feColorMatrix in="shadowInnerInner1" values="0 0 0 0 1   0 0 0 0 1   0 0 0 0 1  0 0 0 1 0"/>
    </filter>
    <linearGradient id="dde-introduction-e" x1="37.216%" x2="37.29%" y1="84.642%" y2="14.777%">
      <stop offset="0%" stop-opacity=".478"/>
      <stop offset="100%" stop-opacity=".214"/>
    </linearGradient>
    <radialGradient id="dde-introduction-f" cx="50%" cy="10.248%" r="105.558%" fx="50%" fy="10.248%" gradientTransform="matrix(0 1 -.7 0 .572 -.398)">
      <stop offset="0%" stop-color="#7EC386"/>
      <stop offset="100%" stop-color="#45704A"/>
    </radialGradient>
    <path id="dde-introduction-g" d="M4.5,4 L53.5,4 C53.7761424,4 54,4.22385763 54,4.5 L54,38.5 C54,38.7761424 53.7761424,39 53.5,39 L4.5,39 C4.22385763,39 4,38.7761424 4,38.5 L4,4.5 C4,4.22385763 4.22385763,4 4.5,4 Z"/>
    <filter id="dde-introduction-h" width="102%" height="102.9%" x="-1%" y="-1.4%" filterUnits="objectBoundingBox">
      <feOffset dy="1" in="SourceAlpha" result="shadowOffsetInner1"/>
      <feComposite in="shadowOffsetInner1" in2="SourceAlpha" k2="-1" k3="1" operator="arithmetic" result="shadowInnerInner1"/>
      <feColorMatrix in="shadowInnerInner1" values="0 0 0 0 1   0 0 0 0 1   0 0 0 0 1  0 0 0 0.5 0"/>
    </filter>
    <linearGradient id="dde-introduction-i" x1="59.639%" x2="59.789%" y1="77.683%" y2="33.363%">
      <stop offset="0%" stop-color="#205E28"/>
      <stop offset="100%" stop-color="#404C41"/>
    </linearGradient>
  </defs>
  <g fill="none" fill-rule="evenodd" filter="url(#dde-introduction-a)" transform="translate(3 8)">
    <g fill-rule="nonzero">
      <use fill="url(#dde-introduction-b)" xlink:href="#dde-introduction-c"/>
      <use fill="#000" filter="url(#dde-introduction-d)" xlink:href="#dde-introduction-c"/>
    </g>
    <path fill="url(#dde-introduction-e)" fill-rule="nonzero" d="M54.5,0 L3.5,0 C1.56700338,0 0,1.56700338 0,3.5 L0,44.5 C0,46.4329966 1.56700338,48 3.5,48 L54.5,48 C56.4329966,48 58,46.4329966 58,44.5 L58,3.5 C58,1.56700338 56.4329966,0 54.5,0 Z M54.5,1 C55.8807119,1 57,2.11928813 57,3.5 L57,44.5 C57,45.8807119 55.8807119,47 54.5,47 L3.5,47 C2.11928813,47 1,45.8807119 1,44.5 L1,3.5 C1,2.11928813 2.11928813,1 3.5,1 L54.5,1 Z"/>
    <use fill="url(#dde-introduction-f)" xlink:href="#dde-introduction-g"/>
    <use fill="#000" filter="url(#dde-introduction-h)" xlink:href="#dde-introduction-g"/>
    <path fill="url(#dde-introduction-i)" fill-rule="nonzero" d="M53.5,3 L4.5,3 C3.67157288,3 3,3.67157288 3,4.5 L3,38.5 C3,39.3284271 3.67157288,40 4.5,40 L53.5,40 C54.3284271,40 55,39.3284271 55,38.5 L55,4.5 C55,3.67157288 54.3284271,3 53.5,3 Z M53.5,4 C53.7761424,4 54,4.22385763 54,4.5 L54,38.5 C54,38.7761424 53.7761424,39 53.5,39 L4.5,39 C4.22385763,39 4,38.7761424 4,38.5 L4,4.5 C4,4.22385763 4.22385763,4 4.5,4 L53.5,4 Z"/>
    <path fill="#D6EBD8" fill-rule="nonzero" d="M37 18C35.3421053 18 34 16.6554706 34 14.998872 34 13.3437774 35.3421053 12 37 12 38.6571429 12 40 13.3437774 40 14.998872 40 16.6554706 38.6571429 18 37 18zM22 18C20.3421053 18 19 16.6554706 19 14.998872 19 13.3437774 20.3421053 12 22 12 23.6571429 12 25 13.3437774 25 14.998872 25 16.6554706 23.6571429 18 22 18z"/>
    <path stroke="#D6EBD8" stroke-linecap="round" stroke-linejoin="round" stroke-width="3" d="M18,24 C20.5772759,29.3333333 24.2439426,32 29,32 C33.7560574,32 37.4227241,29.3333333 40,24"/>
    <polygon fill="#FFF" fill-rule="nonzero" points="1 43 57 43 57 44 1 44" opacity=".448"/>
    <polygon fill="#C3C3C3" fill-rule="nonzero" points="1 42 57 42 57 43 1 43"/>
    <path fill="#A9A9A9" d="M48.5,45 C48.7761424,45 49,45.2238576 49,45.5 C49,45.7761424 48.7761424,46 48.5,46 C48.2238576,46 48,45.7761424 48,45.5 C48,45.2238576 48.2238576,45 48.5,45 Z M45.5,45 C45.7761424,45 46,45.2238576 46,45.5 C46,45.7761424 45.7761424,46 45.5,46 C45.2238576,46 45,45.7761424 45,45.5 C45,45.2238576 45.2238576,45 45.5,45 Z M51.5,45 C51.7761424,45 52,45.2238576 52,45.5 C52,45.7761424 51.7761424,46 51.5,46 C51.2238576,46 51,45.7761424 51,45.5 C51,45.2238576 51.2238576,45 51.5,45 Z"/>
    <path fill="#B65D5D" d="M54.5,46 C54.7761424,46 55,45.7761424 55,45.5 C55,45.2238576 54.7761424,45 54.5,45 C54.2238576,45 54,45.2238576 54,45.5 C54,45.7761424 54.2238576,46 54.5,46 Z"/>
    <path fill="#A9A9A9" d="M12.5,45 C12.7761424,45 13,45.2238576 13,45.5 C13,45.7761424 12.7761424,46 12.5,46 L3.5,46 C3.22385763,46 3,45.7761424 3,45.5 C3,45.2238576 3.22385763,45 3.5,45 L12.5,45 Z M18.5,45 C18.7761424,45 19,45.2238576 19,45.5 C19,45.7761424 18.7761424,46 18.5,46 L15.5,46 C15.2238576,46 15,45.7761424 15,45.5 C15,45.2238576 15.2238576,45 15.5,45 L18.5,45 Z M21.5,45 C21.7761424,45 22,45.2238576 22,45.5 C22,45.7761424 21.7761424,46 21.5,46 L20.5,46 C20.2238576,46 20,45.7761424 20,45.5 C20,45.2238576 20.2238576,45 20.5,45 L21.5,45 Z" opacity=".497"/>
  </g>
</svg>
