<svg xmlns="http://www.w3.org/2000/svg" xmlns:xlink="http://www.w3.org/1999/xlink" width="64" height="64" viewBox="0 0 64 64">
  <defs>
    <filter id="deepin-cloud-scan-config-helper-a" width="128.1%" height="129.6%" x="-14%" y="-14.8%" filterUnits="objectBoundingBox">
      <feOffset dy="1" in="SourceAlpha" result="shadowOffsetOuter1"/>
      <feGaussianBlur in="shadowOffsetOuter1" result="shadowBlurOuter1" stdDeviation="1.5"/>
      <feColorMatrix in="shadowBlurOuter1" result="shadowMatrixOuter1" values="0 0 0 0 0   0 0 0 0 0   0 0 0 0 0  0 0 0 0.2 0"/>
      <feMerge>
        <feMergeNode in="shadowMatrixOuter1"/>
        <feMergeNode in="SourceGraphic"/>
      </feMerge>
    </filter>
    <linearGradient id="deepin-cloud-scan-config-helper-b" x1="50%" x2="50%" y1="0%" y2="98.356%">
      <stop offset="0%" stop-color="#C6C6C6"/>
      <stop offset="100%" stop-color="#999"/>
    </linearGradient>
    <path id="deepin-cloud-scan-config-helper-c" d="M5,1 L49,1 C51.209139,1 53,2.790861 53,5 L53,47 C53,49.209139 51.209139,51 49,51 L5,51 C2.790861,51 1,49.209139 1,47 L1,5 C1,2.790861 2.790861,1 5,1 Z"/>
    <filter id="deepin-cloud-scan-config-helper-d" width="101.9%" height="102%" x="-1%" y="-1%" filterUnits="objectBoundingBox">
      <feOffset dy="1" in="SourceAlpha" result="shadowOffsetInner1"/>
      <feComposite in="shadowOffsetInner1" in2="SourceAlpha" k2="-1" k3="1" operator="arithmetic" result="shadowInnerInner1"/>
      <feColorMatrix in="shadowInnerInner1" values="0 0 0 0 1   0 0 0 0 1   0 0 0 0 1  0 0 0 0.562691215 0"/>
    </filter>
    <linearGradient id="deepin-cloud-scan-config-helper-e" x1="50%" x2="50%" y1="0%" y2="100%">
      <stop offset="0%" stop-opacity=".419"/>
      <stop offset="100%" stop-opacity=".625"/>
    </linearGradient>
    <linearGradient id="deepin-cloud-scan-config-helper-f" x1="50%" x2="50%" y1="0%" y2="98.356%">
      <stop offset="0%" stop-color="#6A8AA9"/>
      <stop offset="100%" stop-color="#0E2A47"/>
    </linearGradient>
    <path id="deepin-cloud-scan-config-helper-g" d="M5,3 L49,3 C50.1045695,3 51,3.8954305 51,5 L51,47 C51,48.1045695 50.1045695,49 49,49 L5,49 C3.8954305,49 3,48.1045695 3,47 L3,5 C3,3.8954305 3.8954305,3 5,3 Z"/>
    <filter id="deepin-cloud-scan-config-helper-h" width="114.6%" height="115.2%" x="-7.3%" y="-7.6%" filterUnits="objectBoundingBox">
      <feMorphology in="SourceAlpha" radius="2" result="shadowSpreadInner1"/>
      <feGaussianBlur in="shadowSpreadInner1" result="shadowBlurInner1" stdDeviation="2"/>
      <feOffset dy="1" in="shadowBlurInner1" result="shadowOffsetInner1"/>
      <feComposite in="shadowOffsetInner1" in2="SourceAlpha" k2="-1" k3="1" operator="arithmetic" result="shadowInnerInner1"/>
      <feColorMatrix in="shadowInnerInner1" values="0 0 0 0 0   0 0 0 0 0   0 0 0 0 0  0 0 0 0.370574738 0"/>
    </filter>
    <linearGradient id="deepin-cloud-scan-config-helper-i" x1="50%" x2="50%" y1="5.774%" y2="97.989%">
      <stop offset="0%" stop-opacity=".194"/>
      <stop offset="100%" stop-opacity=".674"/>
    </linearGradient>
    <radialGradient id="deepin-cloud-scan-config-helper-j" cx="50%" cy="18.931%" r="100%" fx="50%" fy="18.931%">
      <stop offset="2.576%" stop-color="#B4E09E"/>
      <stop offset="100%" stop-color="#1A8F29"/>
    </radialGradient>
    <linearGradient id="deepin-cloud-scan-config-helper-k" x1="50%" x2="50%" y1="8.649%" y2="131.475%">
      <stop offset="0%" stop-opacity=".215"/>
      <stop offset="100%" stop-opacity=".306"/>
    </linearGradient>
    <radialGradient id="deepin-cloud-scan-config-helper-n" cx="50%" cy="10.639%" r="131.018%" fx="50%" fy="10.639%" gradientTransform="matrix(.62937 0 0 1 .185 0)">
      <stop offset="0%" stop-color="#FFF"/>
      <stop offset="99.984%" stop-color="#B8C2CB"/>
    </radialGradient>
    <path id="deepin-cloud-scan-config-helper-m" d="M52.039681,42.1510797 C51.3824914,39.5606874 49.0507261,37.6415052 46.2667212,37.6415052 C45.4567396,37.6415052 44.6860299,37.805215 43.9815913,38.0986333 C42.7739824,36.809104 41.0638167,36 39.1622009,36 C35.5393741,36 32.6001227,38.9234786 32.5442831,42.5490203 C30.47883,43.2976777 29,45.2779362 29,47.6101708 C29,50.5676507 31.3741051,52.9659987 34.3121293,52.9930738 L50.6553487,52.9899256 C53.6215996,52.8998852 56,50.4624986 56,47.4615726 C56,44.9454795 54.3278788,42.8248083 52.039681,42.1510797 Z"/>
    <filter id="deepin-cloud-scan-config-helper-l" width="129.6%" height="147.1%" x="-22.2%" y="-29.4%" filterUnits="objectBoundingBox">
      <feOffset dx="-2" dy="-1" in="SourceAlpha" result="shadowOffsetOuter1"/>
      <feGaussianBlur in="shadowOffsetOuter1" result="shadowBlurOuter1" stdDeviation="1"/>
      <feColorMatrix in="shadowBlurOuter1" values="0 0 0 0 0   0 0 0 0 0   0 0 0 0 0  0 0 0 0.20388986 0"/>
    </filter>
    <filter id="deepin-cloud-scan-config-helper-o" width="118.5%" height="129.4%" x="-16.7%" y="-20.6%" filterUnits="objectBoundingBox">
      <feOffset dy="1" in="SourceAlpha" result="shadowOffsetInner1"/>
      <feComposite in="shadowOffsetInner1" in2="SourceAlpha" k2="-1" k3="1" operator="arithmetic" result="shadowInnerInner1"/>
      <feColorMatrix in="shadowInnerInner1" values="0 0 0 0 1   0 0 0 0 1   0 0 0 0 1  0 0 0 1 0"/>
    </filter>
    <linearGradient id="deepin-cloud-scan-config-helper-p" x1="50%" x2="50%" y1="0%" y2="95.99%">
      <stop offset="0%" stop-opacity=".276"/>
      <stop offset="100%" stop-opacity=".489"/>
    </linearGradient>
  </defs>
  <g fill="none" fill-rule="evenodd" filter="url(#deepin-cloud-scan-config-helper-a)" transform="translate(5 5)">
    <use fill="url(#deepin-cloud-scan-config-helper-b)" xlink:href="#deepin-cloud-scan-config-helper-c"/>
    <use fill="#000" filter="url(#deepin-cloud-scan-config-helper-d)" xlink:href="#deepin-cloud-scan-config-helper-c"/>
    <path fill="url(#deepin-cloud-scan-config-helper-e)" fill-rule="nonzero" d="M49,0 L5,0 C2.23857625,0 0,2.23857625 0,5 L0,47 C0,49.7614237 2.23857625,52 5,52 L49,52 C51.7614237,52 54,49.7614237 54,47 L54,5 C54,2.23857625 51.7614237,0 49,0 Z M49,1 C51.209139,1 53,2.790861 53,5 L53,47 C53,49.209139 51.209139,51 49,51 L5,51 C2.790861,51 1,49.209139 1,47 L1,5 C1,2.790861 2.790861,1 5,1 L49,1 Z"/>
    <use fill="url(#deepin-cloud-scan-config-helper-f)" xlink:href="#deepin-cloud-scan-config-helper-g"/>
    <use fill="#000" filter="url(#deepin-cloud-scan-config-helper-h)" xlink:href="#deepin-cloud-scan-config-helper-g"/>
    <path fill="url(#deepin-cloud-scan-config-helper-i)" fill-rule="nonzero" d="M49,3 C50.1045695,3 51,3.8954305 51,5 L51,47 C51,48.1045695 50.1045695,49 49,49 L5,49 C3.8954305,49 3,48.1045695 3,47 L3,5 C3,3.8954305 3.8954305,3 5,3 L49,3 Z M49,4 L5,4 C4.48716416,4 4.06449284,4.38604019 4.00672773,4.88337887 L4,5 L4,47 C4,47.5128358 4.38604019,47.9355072 4.88337887,47.9932723 L5,48 L49,48 C49.5128358,48 49.9355072,47.6139598 49.9932723,47.1166211 L50,47 L50,5 C50,4.48716416 49.6139598,4.06449284 49.1166211,4.00672773 L49,4 Z"/>
    <circle cx="46.5" cy="7.5" r="1.5" fill="url(#deepin-cloud-scan-config-helper-j)"/>
    <path fill="url(#deepin-cloud-scan-config-helper-k)" fill-rule="nonzero" d="M46.5,5 C45.1192881,5 44,6.11928813 44,7.5 C44,8.88071187 45.1192881,10 46.5,10 C47.8807119,10 49,8.88071187 49,7.5 C49,6.11928813 47.8807119,5 46.5,5 Z M46.5,6 C47.3284271,6 48,6.67157288 48,7.5 C48,8.32842712 47.3284271,9 46.5,9 C45.6715729,9 45,8.32842712 45,7.5 C45,6.67157288 45.6715729,6 46.5,6 Z"/>
    <g fill="#FFF" fill-rule="nonzero" transform="translate(11.75 6.75)">
      <polygon points=".25 .25 21.25 .25 30.25 9.25 30.25 37.25 .25 37.25" opacity=".5"/>
      <path d="M4.25,7.25 L20.25,7.25 L20.25,8.25 L4.25,8.25 L4.25,7.25 L4.25,7.25 Z M26.25,12.25 L26.25,13.25 L4.25,13.25 L4.25,12.25 L26.25,12.25 Z M26.25,24.25 L26.25,25.25 L4.25,25.25 L4.25,24.25 L26.25,24.25 Z M18.25,30.25 L26.25,30.25 L26.25,31.25 L18.25,31.25 L18.25,30.25 L18.25,30.25 Z" opacity=".505"/>
      <polygon fill-opacity=".5" points="21.25 .25 30.25 9.25 21.25 9.25"/>
    </g>
    <polygon fill="#09FD02" points="4 23 50 23 50 25 4 25" opacity=".596"/>
    <g fill-rule="nonzero">
      <use fill="#000" filter="url(#deepin-cloud-scan-config-helper-l)" xlink:href="#deepin-cloud-scan-config-helper-m"/>
      <use fill="url(#deepin-cloud-scan-config-helper-n)" xlink:href="#deepin-cloud-scan-config-helper-m"/>
      <use fill="#000" filter="url(#deepin-cloud-scan-config-helper-o)" xlink:href="#deepin-cloud-scan-config-helper-m"/>
    </g>
    <path fill="url(#deepin-cloud-scan-config-helper-p)" fill-rule="nonzero" d="M38.9180942,35.0038541 C35.1084034,35.1243152 32.001247,38.0544574 31.5897353,41.8057652 L31.583,41.872 L31.5214968,41.9020095 C29.3968058,42.9659272 28,45.1542177 28,47.6101708 C28,51.1131034 30.8129929,53.9608703 34.3029143,53.9930314 L50.6555414,53.9899255 C54.2001609,53.8827836 57,50.9949629 57,47.4615726 L56.9950322,47.2049916 C56.895956,44.6497217 55.3232973,42.420984 53.0307394,41.4458139 L52.85,41.373 L52.7810377,41.1756228 C51.778555,38.4906792 49.2087602,36.6415052 46.2667212,36.6415052 L45.9208289,36.6500655 C45.3464071,36.6785481 44.7829092,36.7778508 44.232,36.946 L44.0647653,36.7996727 C42.7080736,35.6505306 40.9866235,35 39.1622009,35 L38.9180942,35.0038541 Z M39.1622009,36 C41.0638167,36 42.7739824,36.809104 43.9815913,38.0986333 C44.6860299,37.805215 45.4567396,37.6415052 46.2667212,37.6415052 C49.0507261,37.6415052 51.3824914,39.5606874 52.039681,42.1510797 C54.3278788,42.8248083 56,44.9454795 56,47.4615726 C56,50.3874755 53.7390331,52.7776636 50.8766874,52.9787991 L50.6553487,52.9899256 L34.3121293,52.9930738 C31.3741051,52.9659987 29,50.5676507 29,47.6101708 C29,45.2779362 30.47883,43.2976777 32.5442831,42.5490203 C32.6001227,38.9234786 35.5393741,36 39.1622009,36 Z"/>
  </g>
</svg>
