<?xml version="1.0" encoding="UTF-8"?>
<svg width="64px" height="64px" viewBox="0 0 64 64" version="1.1" xmlns="http://www.w3.org/2000/svg" xmlns:xlink="http://www.w3.org/1999/xlink">
    <title>deepin-data-transfer</title>
    <defs>
        <filter x="-8.8%" y="-7.4%" width="117.5%" height="118.5%" filterUnits="objectBoundingBox" id="filter-1">
            <feOffset dx="0" dy="1" in="SourceAlpha" result="shadowOffsetOuter1"></feOffset>
            <feGaussianBlur stdDeviation="1.5" in="shadowOffsetOuter1" result="shadowBlurOuter1"></feGaussianBlur>
            <feColorMatrix values="0 0 0 0 0   0 0 0 0 0   0 0 0 0 0  0 0 0 0.2 0" type="matrix" in="shadowBlurOuter1" result="shadowMatrixOuter1"></feColorMatrix>
            <feMerge>
                <feMergeNode in="shadowMatrixOuter1"></feMergeNode>
                <feMergeNode in="SourceGraphic"></feMergeNode>
            </feMerge>
        </filter>
        <linearGradient x1="20.9329173%" y1="8.8817842e-14%" x2="20.9329173%" y2="100%" id="linearGradient-2">
            <stop stop-color="#6684DF" offset="0%"></stop>
            <stop stop-color="#5E3F8A" offset="100%"></stop>
        </linearGradient>
        <linearGradient x1="50%" y1="0%" x2="50%" y2="100%" id="linearGradient-3">
            <stop stop-color="#050000" stop-opacity="0.19684222" offset="0%"></stop>
            <stop stop-color="#020000" stop-opacity="0.397853611" offset="100%"></stop>
        </linearGradient>
        <linearGradient x1="50%" y1="0%" x2="50%" y2="98.1385523%" id="linearGradient-4">
            <stop stop-color="#FFFFFF" offset="0%"></stop>
            <stop stop-color="#EDEDED" offset="100%"></stop>
        </linearGradient>
        <linearGradient x1="50%" y1="0%" x2="50%" y2="100%" id="linearGradient-5">
            <stop stop-color="#485176" stop-opacity="0.218394886" offset="0%"></stop>
            <stop stop-color="#14101A" stop-opacity="0.219214379" offset="100%"></stop>
        </linearGradient>
        <linearGradient x1="20.9329173%" y1="8.8817842e-14%" x2="20.9329173%" y2="90.355637%" id="linearGradient-6">
            <stop stop-color="#26253D" offset="0%"></stop>
            <stop stop-color="#7272C1" offset="100%"></stop>
        </linearGradient>
    </defs>
    <g id="deepin-data-transfer" stroke="none" stroke-width="1" fill="none" fill-rule="evenodd">
        <g id="编组" filter="url(#filter-1)" transform="translate(4, 5)">
            <path d="M4,0 L48,-4.4408921e-16 C50.209139,-8.49901461e-16 52,1.790861 52,4 L52,45 C52,47.209139 50.209139,49 48,49 L4,49 C1.790861,49 2.705415e-16,47.209139 0,45 L0,4 C-2.705415e-16,1.790861 1.790861,4.05812251e-16 4,0 Z" id="矩形" fill="url(#linearGradient-2)"></path>
            <path d="M48,0 C50.209139,0 52,1.790861 52,4 L52,45 C52,47.209139 50.209139,49 48,49 L4,49 C1.790861,49 0,47.209139 0,45 L0,4 C0,1.790861 1.790861,0 4,0 L48,0 Z M48,3 L4,3 C3.44771525,3 3,3.44771525 3,4 L3,45 C3,45.5522847 3.44771525,46 4,46 L48,46 C48.5522847,46 49,45.5522847 49,45 L49,4 C49,3.44771525 48.5522847,3 48,3 Z" id="矩形" fill="url(#linearGradient-3)" fill-rule="nonzero"></path>
            <path d="M24,23 L54,23 C55.6568542,23 57,24.3431458 57,26 L57,51 C57,52.6568542 55.6568542,54 54,54 L24,54 C22.3431458,54 21,52.6568542 21,51 L21,26 C21,24.3431458 22.3431458,23 24,23 Z" id="矩形" fill="url(#linearGradient-4)"></path>
            <path d="M54,23 C55.6568542,23 57,24.3431458 57,26 L57,51 C57,52.6568542 55.6568542,54 54,54 L24,54 C22.3431458,54 21,52.6568542 21,51 L21,26 C21,24.3431458 22.3431458,23 24,23 L54,23 Z M54,26 L24,26 L24,51 L54,51 L54,26 Z" id="矩形" fill="url(#linearGradient-5)" fill-rule="nonzero"></path>
            <path d="M48.7743406,28.8749522 C49.0058955,29.1582941 49.0085781,29.5647392 48.7807835,29.8511129 L37.0587087,44.5859923 L40.5870688,48.3502363 L28.3617087,47.2806558 L29.319654,36.3312917 L32.3807087,39.5969923 L47.8641047,28.7492422 C48.153637,28.5463819 48.5506306,28.6012095 48.7743406,28.8749522 Z" id="形状结合" fill="url(#linearGradient-6)" transform="translate(38.6558, 38.4886) rotate(85) translate(-38.6558, -38.4886)"></path>
        </g>
    </g>
</svg>