<svg xmlns="http://www.w3.org/2000/svg" xmlns:xlink="http://www.w3.org/1999/xlink" width="64" height="64" viewBox="0 0 64 64">
  <defs>
    <filter id="deepin-mail-a" width="140.7%" height="130.9%" x="-20.4%" y="-14.5%" filterUnits="objectBoundingBox">
      <feOffset dy="1" in="SourceAlpha" result="shadowOffsetOuter1"/>
      <feGaussianBlur in="shadowOffsetOuter1" result="shadowBlurOuter1" stdDeviation="1.5"/>
      <feColorMatrix in="shadowBlurOuter1" result="shadowMatrixOuter1" values="0 0 0 0 0   0 0 0 0 0   0 0 0 0 0  0 0 0 0.2 0"/>
      <feMerge>
        <feMergeNode in="shadowMatrixOuter1"/>
        <feMergeNode in="SourceGraphic"/>
      </feMerge>
    </filter>
    <linearGradient id="deepin-mail-b" x1="50%" x2="50%" y1="101.163%" y2="-1.163%">
      <stop offset="0%" stop-color="#DFDFDF"/>
      <stop offset="100%" stop-color="#FDFDFD"/>
    </linearGradient>
    <linearGradient id="deepin-mail-c" x1="50%" x2="50%" y1="65.875%" y2="98.085%">
      <stop offset="0%" stop-opacity=".22"/>
      <stop offset="100%" stop-opacity=".177"/>
    </linearGradient>
    <linearGradient id="deepin-mail-d" x1="50%" x2="50%" y1="81.013%" y2="1.473%">
      <stop offset="0%" stop-color="#89A8CB"/>
      <stop offset="100%" stop-color="#DAEBFD"/>
    </linearGradient>
    <path id="deepin-mail-e" d="M2,0.5 L44,0.5 C45.1045695,0.5 46,1.3954305 46,2.5 L46,47.5 L0,47.5 L0,2.5 C0,1.3954305 0.8954305,0.5 2,0.5 Z"/>
    <filter id="deepin-mail-f" width="102.2%" height="102.1%" x="-1.1%" y="-1.1%" filterUnits="objectBoundingBox">
      <feOffset dy="1" in="SourceAlpha" result="shadowOffsetInner1"/>
      <feComposite in="shadowOffsetInner1" in2="SourceAlpha" k2="-1" k3="1" operator="arithmetic" result="shadowInnerInner1"/>
      <feColorMatrix in="shadowInnerInner1" values="0 0 0 0 1   0 0 0 0 1   0 0 0 0 1  0 0 0 0.75819493 0"/>
    </filter>
    <linearGradient id="deepin-mail-g" x1="41.429%" x2="41.429%" y1="-3.36%" y2="62.464%">
      <stop offset="0%" stop-opacity=".35"/>
      <stop offset="100%" stop-opacity=".09"/>
    </linearGradient>
    <radialGradient id="deepin-mail-h" cx="50%" cy="41.557%" r="41.557%" fx="50%" fy="41.557%" gradientTransform="matrix(0 -1 1.14467 0 .024 .916)">
      <stop offset="0%" stop-color="#90B4DC"/>
      <stop offset="100%" stop-color="#6690BC"/>
    </radialGradient>
    <path id="deepin-mail-i" d="M6.5,5.5 L40.5,5.5 C40.7761424,5.5 41,5.72385763 41,6 L41,33.5 L6,33.5 L6,6 C6,5.72385763 6.22385763,5.5 6.5,5.5 Z"/>
    <filter id="deepin-mail-j" width="154.3%" height="167.9%" x="-27.1%" y="-33.9%" filterUnits="objectBoundingBox">
      <feGaussianBlur in="SourceAlpha" result="shadowBlurInner1" stdDeviation="9"/>
      <feOffset dy="1" in="shadowBlurInner1" result="shadowOffsetInner1"/>
      <feComposite in="shadowOffsetInner1" in2="SourceAlpha" k2="-1" k3="1" operator="arithmetic" result="shadowInnerInner1"/>
      <feColorMatrix in="shadowInnerInner1" values="0 0 0 0 0   0 0 0 0 0   0 0 0 0 0  0 0 0 0.113581731 0"/>
    </filter>
    <linearGradient id="deepin-mail-k" x1="125.314%" x2="125.314%" y1="69.996%" y2="-3.163%">
      <stop offset="0%" stop-opacity=".2"/>
      <stop offset="99.975%" stop-opacity=".08"/>
    </linearGradient>
    <path id="deepin-mail-m" d="M23.379,23.266 C24.88,23.266 26.229,22.962 27.445,22.373 C28.699,21.765 29.649,20.891 30.314,19.751 L28.984,19.751 C28.452,20.511 27.749,21.1 26.875,21.537 C25.887,22.012 24.709,22.259 23.379,22.259 C21.517,22.259 20.054,21.746 18.99,20.758 C17.85,19.713 17.299,18.231 17.299,16.312 C17.299,14.564 17.85,13.101 18.971,11.961 C20.111,10.802 21.555,10.232 23.303,10.232 C24.937,10.232 26.267,10.707 27.255,11.676 C28.167,12.569 28.623,13.69 28.623,15.039 C28.623,16.217 28.281,17.243 27.597,18.117 C27.008,18.858 26.419,19.238 25.83,19.238 C25.469,19.238 25.298,19.067 25.298,18.763 C25.298,18.535 25.374,18.155 25.526,17.604 L26.875,12.645 L25.64,12.645 L25.355,13.709 C25.051,12.759 24.443,12.284 23.531,12.284 C22.391,12.284 21.422,12.778 20.586,13.804 C19.712,14.83 19.294,16.065 19.294,17.471 C19.294,18.288 19.541,18.972 20.035,19.504 C20.529,20.036 21.175,20.321 21.973,20.321 C22.923,20.321 23.721,19.884 24.367,19.029 C24.443,19.865 24.88,20.283 25.678,20.283 C26.666,20.283 27.578,19.751 28.414,18.706 C29.25,17.604 29.687,16.388 29.687,15.02 C29.687,13.386 29.155,12.037 28.091,10.954 C26.932,9.757 25.355,9.168 23.379,9.168 C21.194,9.168 19.408,9.871 18.002,11.296 C16.653,12.626 15.988,14.279 15.988,16.274 C15.988,18.402 16.653,20.093 18.002,21.385 C19.313,22.639 21.099,23.266 23.379,23.266 Z M22.068,19.2 C21.593,19.2 21.232,19.048 20.985,18.744 C20.738,18.44 20.624,18.041 20.624,17.528 C20.624,16.407 20.947,15.457 21.593,14.659 C22.201,13.861 22.923,13.481 23.74,13.481 C24.12,13.481 24.424,13.633 24.671,13.937 C24.88,14.184 24.994,14.488 24.994,14.83 C24.994,14.944 24.918,15.248 24.804,15.742 L24.386,17.3 C24.234,17.794 23.93,18.25 23.474,18.63 C23.018,19.01 22.543,19.2 22.068,19.2 Z"/>
    <filter id="deepin-mail-l" width="107%" height="114.2%" x="-3.5%" y="-3.5%" filterUnits="objectBoundingBox">
      <feOffset dy="1" in="SourceAlpha" result="shadowOffsetOuter1"/>
      <feColorMatrix in="shadowOffsetOuter1" values="0 0 0 0 0   0 0 0 0 0   0 0 0 0 0  0 0 0 0.279993444 0"/>
    </filter>
    <filter id="deepin-mail-n" width="111.7%" height="130.8%" x="-5.8%" y="-15.4%" filterUnits="objectBoundingBox">
      <feGaussianBlur in="SourceGraphic" stdDeviation="1"/>
    </filter>
    <linearGradient id="deepin-mail-o" x1="50%" x2="50%" y1="74.854%" y2="18.601%">
      <stop offset="0%" stop-color="#E0E0E0"/>
      <stop offset="100%" stop-color="#C9C9C9"/>
    </linearGradient>
    <linearGradient id="deepin-mail-r" x1="50%" x2="50%" y1="0%" y2="38.945%">
      <stop offset="0%" stop-opacity="0"/>
      <stop offset="12.232%" stop-opacity=".064"/>
      <stop offset="100%" stop-opacity=".221"/>
    </linearGradient>
    <path id="deepin-mail-p" d="M25.8905996,17.7603997 C26.5623984,18.2082656 27.4376016,18.2082656 28.1094004,17.7603997 L28.1094004,17.7603997 L54,0.5 L54,32.5 C54,33.6045695 53.1045695,34.5 52,34.5 L2,34.5 C0.8954305,34.5 1.3527075e-16,33.6045695 0,32.5 L0,0.5 Z"/>
    <filter id="deepin-mail-q" width="105.6%" height="108.8%" x="-2.8%" y="-4.4%" filterUnits="objectBoundingBox">
      <feOffset dy="1" in="SourceAlpha" result="shadowOffsetInner1"/>
      <feComposite in="shadowOffsetInner1" in2="SourceAlpha" k2="-1" k3="1" operator="arithmetic" result="shadowInnerInner1"/>
      <feColorMatrix in="shadowInnerInner1" values="0 0 0 0 1   0 0 0 0 1   0 0 0 0 1  0 0 0 0.5 0"/>
    </filter>
    <path id="deepin-mail-s" d="M3,22.6302316 L3,25 L-2.80373824e-05,27.0157757 L-2.80373824e-05,24.6457757 L3,22.6302316 Z M3,11.5713125 L3,13.9410809 L-2.80373824e-05,15.9567757 L-2.80373824e-05,13.5867757 L3,11.5713125 Z M1.11697196,2.3047757 L2.89397196,3.4797757 L-2.80373824e-05,5.4247757 L-2.80373824e-05,3.0557757 L1.11697196,2.3047757 Z"/>
    <path id="deepin-mail-t" d="M3,27.6302316 L3,30 L-2.80373824e-05,32.0930085 L-2.80373824e-05,29.7240085 L3,27.6302316 Z M3,17.0979277 L3,19.4676961 L-2.80373824e-05,21.5610085 L-2.80373824e-05,19.1910085 L3,17.0979277 Z M3,6.03900853 L3,8.40877692 L-2.80373824e-05,10.5020085 L-2.80373824e-05,8.13300853 L3,6.03900853 Z"/>
    <path id="deepin-mail-u" d="M54,28.031 L54,30.401 L51,32.399228 L51,30.0294596 L54,28.031 Z M54,17.499 L54,19.868 L51,21.866924 L51,19.4971556 L54,17.499 Z M54,6.44 L54,8.81 L51,10.8080049 L51,8.43823649 L54,6.44 Z"/>
    <path id="deepin-mail-v" d="M54,22.7650085 L54,25.1350085 L51,27.133076 L51,24.7633076 L54,22.7650085 Z M54,11.7060085 L54,14.0760085 L51,16.0741568 L51,13.7043885 L54,11.7060085 Z M54,1.56600853 L54,3.54300853 L51,5.54185291 L51,3.55900853 L54,1.56600853 Z"/>
    <path id="deepin-mail-y" d="M28.2019817,31.4582492 L54,50.8567591 L54,50.8567591 L54,51.0544335 C54,52.159003 53.1045695,53.0544335 52,53.0544335 L2,53.0544335 C0.8954305,53.0544335 1.3527075e-16,52.159003 0,51.0544335 L0,50.8567591 L0,50.8567591 L25.7980183,31.4582492 C26.5099355,30.9229316 27.4900645,30.9229316 28.2019817,31.4582492 Z"/>
    <filter id="deepin-mail-w" width="107.4%" height="115.5%" x="-3.7%" y="-11.1%" filterUnits="objectBoundingBox">
      <feGaussianBlur in="SourceGraphic"/>
    </filter>
    <filter id="deepin-mail-x" width="113%" height="128.9%" x="-6.5%" y="-17.8%" filterUnits="objectBoundingBox">
      <feOffset dy="-1" in="SourceAlpha" result="shadowOffsetOuter1"/>
      <feGaussianBlur in="shadowOffsetOuter1" result="shadowBlurOuter1" stdDeviation="1"/>
      <feColorMatrix in="shadowBlurOuter1" values="0 0 0 0 0   0 0 0 0 0   0 0 0 0 0  0 0 0 0.169361888 0"/>
    </filter>
    <linearGradient id="deepin-mail-B" x1="50%" x2="50%" y1="101.163%" y2="7.76%">
      <stop offset="0%" stop-color="#C3C8C9"/>
      <stop offset="100%" stop-color="#E5E9EA"/>
    </linearGradient>
    <path id="deepin-mail-A" d="M28.2019817,31.4582492 L54,50.8567591 L54,50.8567591 L54,51.5544335 C54,52.659003 53.1045695,53.5544335 52,53.5544335 L2,53.5544335 C0.8954305,53.5544335 1.3527075e-16,52.659003 0,51.5544335 L0,50.8567591 L0,50.8567591 L25.7980183,31.4582492 C26.5099355,30.9229316 27.4900645,30.9229316 28.2019817,31.4582492 Z"/>
    <filter id="deepin-mail-z" width="118.5%" height="141.3%" x="-9.3%" y="-23.9%" filterUnits="objectBoundingBox">
      <feOffset dy="-1" in="SourceAlpha" result="shadowOffsetOuter1"/>
      <feGaussianBlur in="shadowOffsetOuter1" result="shadowBlurOuter1" stdDeviation="1.5"/>
      <feColorMatrix in="shadowBlurOuter1" values="0 0 0 0 0   0 0 0 0 0   0 0 0 0 0  0 0 0 0.169361888 0"/>
    </filter>
    <linearGradient id="deepin-mail-C" x1="50%" x2="50%" y1="1.947%" y2="100%">
      <stop offset="0%" stop-opacity=".05"/>
      <stop offset="100%" stop-opacity=".1"/>
    </linearGradient>
    <path id="deepin-mail-D" d="M10.3333333,50.5544335 L8.933,53.5544335 L6.533,53.5544335 L7.93333333,50.5544335 L10.3333333,50.5544335 Z M21,50.5544335 L19.6,53.5544335 L17.2,53.5544335 L18.6,50.5544335 L21,50.5544335 Z M31.6666667,50.5544335 L30.266,53.5534335 L27.866,53.5534335 L29.2666667,50.5544335 L31.6666667,50.5544335 Z M42.3333333,50.5544335 L40.933,53.5534335 L38.533,53.5534335 L39.9333333,50.5544335 L42.3333333,50.5544335 Z M53,50.5544335 L51.6,53.5534335 L49.2,53.5534335 L50.6,50.5544335 L53,50.5544335 Z"/>
    <path id="deepin-mail-E" d="M5,50.5544335 L3.59995173,53.5544335 L2,53.5544335 C1.740851,53.5544335 1.49321393,53.5051451 1.26595173,53.4154312 L2.6,50.5544335 L5,50.5544335 Z M15.6666667,50.5544335 L14.2659517,53.5544335 L11.8659517,53.5544335 L13.2666667,50.5544335 L15.6666667,50.5544335 Z M26.3333333,50.5544335 L24.9329517,53.5544335 L22.5329517,53.5544335 L23.9333333,50.5544335 L26.3333333,50.5544335 Z M37,50.5544335 L35.5999517,53.5534335 L33.1999517,53.5534335 L34.6,50.5544335 L37,50.5544335 Z M47.6666667,50.5544335 L46.2659517,53.5534335 L43.8659517,53.5534335 L45.2666667,50.5544335 L47.6666667,50.5544335 Z"/>
    <linearGradient id="deepin-mail-F" x1="50%" x2="49.431%" y1="42.33%" y2="53.352%">
      <stop offset="0%" stop-color="#FFF"/>
      <stop offset="100%" stop-color="#FFF" stop-opacity="0"/>
    </linearGradient>
  </defs>
  <g fill="none" fill-rule="evenodd" filter="url(#deepin-mail-a)" transform="translate(5 4.446)">
    <path fill="url(#deepin-mail-b)" fill-rule="nonzero" d="M0,34.5544335 L0,2.55443348 C-1.3527075e-16,1.44986398 0.8954305,0.554433479 2,0.554433479 L52,0.554433479 C53.1045695,0.554433479 54,1.44986398 54,2.55443348 L54,34.5544335 L54,34.5544335 L28.1509868,52.7444798 C27.460569,53.2303293 26.539431,53.2303293 25.8490132,52.7444798 L0,34.5544335 L0,34.5544335 Z" transform="matrix(1 0 0 -1 0 54.109)"/>
    <path stroke="url(#deepin-mail-c)" stroke-linejoin="round" d="M52,0.0544334786 C52.6903559,0.0544334786 53.3153559,0.33425551 53.767767,0.786666526 C54.220178,1.23907754 54.5,1.86407754 54.5,2.55443348 L54.5,2.55443348 L54.5,34.8139733 L28.4387335,53.153383 C28.0072224,53.457039 27.5036112,53.608867 27,53.608867 C26.4963888,53.608867 25.9927776,53.457039 25.5612665,53.153383 L25.5612665,53.153383 L-0.5,34.8139733 L-0.5,2.55443348 C-0.5,1.86407754 -0.220177969,1.23907754 0.232233047,0.786666526 C0.684644063,0.33425551 1.30964406,0.0544334786 2,0.0544334786 L2,0.0544334786 Z" transform="matrix(1 0 0 -1 0 54.109)"/>
    <g fill-rule="nonzero" transform="translate(4 5.054)">
      <use fill="url(#deepin-mail-d)" xlink:href="#deepin-mail-e"/>
      <use fill="#000" filter="url(#deepin-mail-f)" xlink:href="#deepin-mail-e"/>
      <path stroke="url(#deepin-mail-g)" stroke-linejoin="round" d="M44,-2.80886425e-14 C44.6903559,-2.80886425e-14 45.3153559,0.279822031 45.767767,0.732233047 C46.220178,1.18464406 46.5,1.80964406 46.5,2.5 L46.5,2.5 L46.5,48 L-0.5,48 L-0.5,2.5 C-0.5,1.80964406 -0.220177969,1.18464406 0.232233047,0.732233047 C0.684644063,0.279822031 1.30964406,-2.87547763e-14 2,-2.84217094e-14 L2,-2.84217094e-14 Z"/>
      <use fill="url(#deepin-mail-h)" xlink:href="#deepin-mail-i"/>
      <use fill="#000" filter="url(#deepin-mail-j)" xlink:href="#deepin-mail-i"/>
      <path fill="url(#deepin-mail-k)" d="M40.5,5.5 C40.7761424,5.5 41,5.72385763 41,6 L41,33.5 L6,33.5 L6,6 C6,5.72385763 6.22385763,5.5 6.5,5.5 L40.5,5.5 Z M40,6.499 L7,6.499 L7,32.499 L40,32.499 L40,6.499 Z"/>
      <use fill="#000" filter="url(#deepin-mail-l)" xlink:href="#deepin-mail-m"/>
      <use fill="#FFF" xlink:href="#deepin-mail-m"/>
    </g>
    <g transform="translate(0 19.054)">
      <path fill="#00050F" fill-rule="nonzero" d="M26.2125698,16.7949503 C26.8121462,17.2024294 27.5754914,17.2228034 28.1914447,16.8560722 L28.2874302,16.7949503 L53,0 L53,17.5 C53,18.6045695 52.1460246,19.5 51.0925926,19.5 L3.40740741,19.5 C2.35397538,19.5 1.5,18.6045695 1.5,17.5 L1.5,0 L26.2125698,16.7949503 Z" filter="url(#deepin-mail-n)" opacity=".463"/>
      <g fill-rule="nonzero" stroke-linejoin="round">
        <use fill="url(#deepin-mail-o)" xlink:href="#deepin-mail-p"/>
        <use fill="#000" filter="url(#deepin-mail-q)" xlink:href="#deepin-mail-p"/>
        <path stroke="url(#deepin-mail-r)" d="M-0.5,-0.434258546 L26.1679497,17.3443746 C26.4011613,17.499849 26.6670548,17.5833688 26.9353794,17.5949101 C27.1988868,17.6062441 27.4647526,17.5482202 27.7042865,17.4207252 L27.7042865,17.4207252 L54.5,-0.433994889 L54.5,32.5 C54.5,33.1903559 54.220178,33.8153559 53.767767,34.267767 C53.3153559,34.720178 52.6903559,35 52,35 L52,35 L2,35 C1.30964406,35 0.684644063,34.720178 0.232233047,34.267767 C-0.220177969,33.8153559 -0.5,33.1903559 -0.5,32.5 L-0.5,32.5 L-0.5,-0.434258546 Z"/>
      </g>
      <use fill="#5582B6" xlink:href="#deepin-mail-s"/>
      <use fill="#D04B45" xlink:href="#deepin-mail-t"/>
      <use fill="#D04B45" xlink:href="#deepin-mail-u"/>
      <use fill="#5582B6" xlink:href="#deepin-mail-v"/>
    </g>
    <g fill="#000" fill-rule="nonzero" filter="url(#deepin-mail-w)" transform="matrix(-1 0 0 1 54 0)">
      <use filter="url(#deepin-mail-x)" xlink:href="#deepin-mail-y"/>
    </g>
    <g fill-rule="nonzero" transform="matrix(-1 0 0 1 54 0)">
      <use fill="#000" filter="url(#deepin-mail-z)" xlink:href="#deepin-mail-A"/>
      <use fill="url(#deepin-mail-B)" xlink:href="#deepin-mail-A"/>
    </g>
    <path stroke="url(#deepin-mail-C)" d="M27,30.556761 C27.5287644,30.556761 28.0575289,30.7240477 28.5024772,31.0586213 L28.5024772,31.0586213 L54.5,50.6071462 L54.5,51.5544335 C54.5,52.2447894 54.220178,52.8697894 53.767767,53.3222004 C53.3153559,53.7746114 52.6903559,54.0544335 52,54.0544335 L52,54.0544335 L2,54.0544335 C1.30964406,54.0544335 0.684644063,53.7746114 0.232233047,53.3222004 C-0.220177969,52.8697894 -0.5,52.2447894 -0.5,51.5544335 L-0.5,51.5544335 L-0.5,50.6071462 L25.4975228,31.0586213 C25.9424711,30.7240477 26.4712356,30.556761 27,30.556761 Z"/>
    <use fill="#D04B45" xlink:href="#deepin-mail-D"/>
    <use fill="#5582B6" xlink:href="#deepin-mail-E"/>
    <path stroke="url(#deepin-mail-F)" d="M27,31.556761 C27.3172587,31.556761 27.6345173,31.657133 27.9014863,31.8578771 L27.9014863,31.8578771 L53.4871898,51.0967395 C53.4440295,51.4936024 53.2936091,51.8338807 53.0633713,52.0868746 C52.7937942,52.383096 52.4167937,52.5544335 52,52.5544335 L52,52.5544335 L2,52.5544335 C1.58578644,52.5544335 1.21078644,52.3865403 0.939339828,52.1150937 C0.720120736,51.8958746 0.568440271,51.6091168 0.518187668,51.2887097 L0.518187668,51.2887097 L26.0985137,31.8578771 C26.3654827,31.657133 26.6827413,31.556761 27,31.556761 Z"/>
  </g>
</svg>
