<svg xmlns="http://www.w3.org/2000/svg" xmlns:xlink="http://www.w3.org/1999/xlink" width="64" height="64" viewBox="0 0 64 64">
  <defs>
    <filter id="deepin-appstore-a" width="135.3%" height="130.4%" x="-17.6%" y="-14.3%" filterUnits="objectBoundingBox">
      <feOffset dy="1" in="SourceAlpha" result="shadowOffsetOuter1"/>
      <feGaussianBlur in="shadowOffsetOuter1" result="shadowBlurOuter1" stdDeviation="1.5"/>
      <feColorMatrix in="shadowBlurOuter1" result="shadowMatrixOuter1" values="0 0 0 0 0   0 0 0 0 0   0 0 0 0 0  0 0 0 0.2 0"/>
      <feMerge>
        <feMergeNode in="shadowMatrixOuter1"/>
        <feMergeNode in="SourceGraphic"/>
      </feMerge>
    </filter>
    <linearGradient id="deepin-appstore-b" x1="50%" x2="50%" y1="1.901%" y2="100%">
      <stop offset="0%" stop-color="#AAD3FF"/>
      <stop offset="100%" stop-color="#659AD3"/>
    </linearGradient>
    <linearGradient id="deepin-appstore-c" x1="47.944%" x2="47.944%" y1="109.143%" y2="0%">
      <stop offset="0%" stop-color="#9AA0B6"/>
      <stop offset="100%" stop-color="#D7DCE0"/>
    </linearGradient>
    <linearGradient id="deepin-appstore-d" x1="50%" x2="50%" y1="2.365%" y2="100%">
      <stop offset="0%" stop-color="#93B7DD"/>
      <stop offset="100%" stop-color="#4984C3"/>
    </linearGradient>
    <linearGradient id="deepin-appstore-e" x1="50%" x2="50%" y1="0%" y2="283.636%">
      <stop offset="0%" stop-color="#4772A0"/>
      <stop offset="100%" stop-color="#6AA6C0"/>
    </linearGradient>
    <polygon id="deepin-appstore-f" points="4 3 4 6 1 6"/>
    <linearGradient id="deepin-appstore-g" x1="50%" x2="50%" y1="0%" y2="283.636%">
      <stop offset="0%" stop-color="#4772A0"/>
      <stop offset="100%" stop-color="#6AA6C0"/>
    </linearGradient>
    <radialGradient id="deepin-appstore-h" cx="50%" cy="-9.457%" r="109.457%" fx="50%" fy="-9.457%" gradientTransform="matrix(0 1 -.98 0 .407 -.595)">
      <stop offset="0%" stop-color="#D4E9FF"/>
      <stop offset="100%" stop-color="#316297"/>
    </radialGradient>
    <radialGradient id="deepin-appstore-i" cx="50%" cy=".002%" r="499.264%" fx="50%" fy=".002%" gradientTransform="matrix(.2003 0 0 1 .4 0)">
      <stop offset="0%" stop-opacity="0"/>
      <stop offset="100%"/>
    </radialGradient>
    <path id="deepin-appstore-j" d="M50.3177751,39.5 L50.4628929,47.4635629 C50.4830166,48.5679491 49.6040481,49.4795444 48.499662,49.4996681 C48.4875175,49.4998893 48.4753713,49.5 48.4632249,49.5 L2.53677515,49.5 C1.43220565,49.5 0.536775147,48.6045695 0.536775147,47.5 L0.53710709,47.4635629 L0.53710709,47.4635629 L0.681775147,39.5 L50.3177751,39.5 Z"/>
    <linearGradient id="deepin-appstore-k" x1="54.878%" x2="54.878%" y1="-1.22%" y2="101.22%">
      <stop offset="0%" stop-color="#4A85C4"/>
      <stop offset="100%" stop-color="#2B4561"/>
    </linearGradient>
    <radialGradient id="deepin-appstore-n" cx="47.944%" cy="109.143%" r="109.143%" fx="47.944%" fy="109.143%">
      <stop offset="0%" stop-opacity="0"/>
      <stop offset="100%" stop-opacity=".4"/>
    </radialGradient>
    <linearGradient id="deepin-appstore-o" x1="50%" x2="50%" y1="0%" y2="100%">
      <stop offset="0%" stop-color="#CBE4FF"/>
      <stop offset="100%" stop-color="#83A2C4"/>
    </linearGradient>
    <circle id="deepin-appstore-m" cx="9" cy="12.5" r="1.5"/>
    <filter id="deepin-appstore-l" width="300%" height="300%" x="-100%" y="-66.7%" filterUnits="objectBoundingBox">
      <feMorphology in="SourceAlpha" operator="dilate" radius="1" result="shadowSpreadOuter1"/>
      <feOffset dy="1" in="shadowSpreadOuter1" result="shadowOffsetOuter1"/>
      <feGaussianBlur in="shadowOffsetOuter1" result="shadowBlurOuter1" stdDeviation=".5"/>
      <feComposite in="shadowBlurOuter1" in2="SourceAlpha" operator="out" result="shadowBlurOuter1"/>
      <feColorMatrix in="shadowBlurOuter1" values="0 0 0 0 0   0 0 0 0 0   0 0 0 0 0  0 0 0 0.22465035 0"/>
    </filter>
    <circle id="deepin-appstore-q" cx="42" cy="12.5" r="1.5"/>
    <filter id="deepin-appstore-p" width="300%" height="300%" x="-100%" y="-66.7%" filterUnits="objectBoundingBox">
      <feMorphology in="SourceAlpha" operator="dilate" radius="1" result="shadowSpreadOuter1"/>
      <feOffset dy="1" in="shadowSpreadOuter1" result="shadowOffsetOuter1"/>
      <feGaussianBlur in="shadowOffsetOuter1" result="shadowBlurOuter1" stdDeviation=".5"/>
      <feComposite in="shadowBlurOuter1" in2="SourceAlpha" operator="out" result="shadowBlurOuter1"/>
      <feColorMatrix in="shadowBlurOuter1" values="0 0 0 0 0   0 0 0 0 0   0 0 0 0 0  0 0 0 0.22465035 0"/>
    </filter>
    <linearGradient id="deepin-appstore-t" x1="50%" x2="50%" y1=".124%" y2="152.865%">
      <stop offset="0%" stop-color="#FFF"/>
      <stop offset="100%" stop-color="#BDC3CE"/>
      <stop offset="100%" stop-color="#B2D0E0"/>
      <stop offset="100%" stop-color="#CBE2FC"/>
    </linearGradient>
    <path id="deepin-appstore-s" d="M41.0465116,12.4806295 C41.0465116,11.9390428 41.4838149,11.5 42.0232558,11.5 C42.5626967,11.5 43,11.9390428 43,12.4806295 C43,18.360634 41.8053273,23.4650868 39.2936133,27.2229286 C36.3587801,31.6138103 31.7497177,34 25.5,34 C19.2502823,34 14.6412199,31.6138103 11.7063867,27.2229286 C9.19467273,23.4650868 8,18.360634 8,12.4806295 C8,11.9390428 8.43730327,11.5 8.97674419,11.5 C9.5161851,11.5 9.95348837,11.9390428 9.95348837,12.4806295 C9.95348837,18.0036918 11.0616783,22.7386316 13.328497,26.1300791 C15.8947792,29.9695619 19.8915174,32.0387409 25.5,32.0387409 C31.1084826,32.0387409 35.1052208,29.9695619 37.671503,26.1300791 C39.9383217,22.7386316 41.0465116,18.0036918 41.0465116,12.4806295 Z"/>
    <filter id="deepin-appstore-r" width="120%" height="131.1%" x="-10%" y="-11.1%" filterUnits="objectBoundingBox">
      <feOffset dy="1" in="SourceAlpha" result="shadowOffsetOuter1"/>
      <feGaussianBlur in="shadowOffsetOuter1" result="shadowBlurOuter1" stdDeviation="1"/>
      <feColorMatrix in="shadowBlurOuter1" values="0 0 0 0 0.0366891364   0 0 0 0 0.140896085   0 0 0 0 0.326568161  0 0 0 0.451567963 0"/>
    </filter>
    <filter id="deepin-appstore-u" width="120%" height="131.1%" x="-10%" y="-11.1%" filterUnits="objectBoundingBox">
      <feGaussianBlur in="SourceAlpha" result="shadowBlurInner1" stdDeviation="1"/>
      <feOffset dy="1" in="shadowBlurInner1" result="shadowOffsetInner1"/>
      <feComposite in="shadowOffsetInner1" in2="SourceAlpha" k2="-1" k3="1" operator="arithmetic" result="shadowInnerInner1"/>
      <feColorMatrix in="shadowInnerInner1" values="0 0 0 0 1   0 0 0 0 1   0 0 0 0 1  0 0 0 0.5 0"/>
    </filter>
    <radialGradient id="deepin-appstore-v" cx="50%" cy="100%" r="2315.627%" fx="50%" fy="100%" gradientTransform="matrix(.02083 -.0216 .00045 .99977 .49 .011)">
      <stop offset="0%" stop-color="#FFF"/>
      <stop offset="100%" stop-color="#FFF" stop-opacity="0"/>
    </radialGradient>
  </defs>
  <g fill="none" fill-rule="evenodd" filter="url(#deepin-appstore-a)" transform="translate(6.5 4)">
    <rect width="3" height="4" x="1.5" y="1" fill="url(#deepin-appstore-b)"/>
    <polygon fill="url(#deepin-appstore-b)" points="46.5 1 49.5 1 49.5 5 46.5 5"/>
    <g transform="translate(.5)">
      <polygon fill="url(#deepin-appstore-c)" points="2 1 48 1 46 3 49 6 1 6 4 3"/>
      <path fill="url(#deepin-appstore-d)" fill-rule="nonzero" d="M2,0 L1.88636906,0.00598327225 C1.07233231,0.0928191895 0.690318134,1.1045317 1.29289322,1.70710678 L2.585,3 L0.292893219,5.29289322 C-0.337071642,5.92285808 0.109095149,7 1,7 L49,7 L49.1136309,6.99401673 C49.9276677,6.90718081 50.3096819,5.8954683 49.7071068,5.29289322 L47.415,3 L48.7071068,1.70710678 C49.3370716,1.07714192 48.8909049,0 48,0 L2,0 Z M48,1 L46,3 L49,6 L1,6 L4,3 L2,1 L48,1 Z"/>
      <use fill="url(#deepin-appstore-e)" xlink:href="#deepin-appstore-f"/>
      <path fill="url(#deepin-appstore-g)" d="M46,5 L46,3 C48.0714286,5 49.1071429,6 49.1071429,6 C49.1071429,6 48.0714286,5.66666667 46,5 Z"/>
    </g>
    <g transform="translate(0 5.5)">
      <path fill="url(#deepin-appstore-h)" fill-rule="nonzero" d="M1.39285714,0.5 L49.6071429,0.5 L50.4628929,47.4635629 C50.4830166,48.5679491 49.6040481,49.4795444 48.499662,49.4996681 C48.4875175,49.4998893 48.4753713,49.5 48.4632249,49.5 L2.53677515,49.5 C1.43220565,49.5 0.536775147,48.6045695 0.536775147,47.5 C0.536775147,47.4878535 0.536885799,47.4757073 0.53710709,47.4635629 L1.39285714,0.5 L1.39285714,0.5 Z"/>
      <use fill="url(#deepin-appstore-i)" fill-rule="nonzero" opacity=".229" xlink:href="#deepin-appstore-j"/>
      <polygon fill="#FFF" fill-opacity=".12" points=".52 39.5 50.5 39.5 50.5 40.5 .5 40.5"/>
      <polygon fill="#264C73" fill-opacity=".329" points=".5 38.5 50.489 38.5 50.5 39.5 .5 39.5"/>
      <path fill="url(#deepin-appstore-k)" fill-rule="nonzero" d="M49.6071429,-0.5 L1.39285714,-0.5 C0.847674223,-0.5 0.402955557,-0.0633109849 0.393023114,0.48178145 L-0.463224853,47.5 C-0.463224853,49.1568542 0.879920897,50.5 2.53677515,50.5 L48.5178805,50.5 C50.1744598,50.4693166 51.4929124,49.1019236 51.4632351,47.4453443 L50.6069769,0.48178145 C50.5970444,-0.0633109849 50.1523258,-0.5 49.6071429,-0.5 Z M49.6071429,0.5 L50.4632317,47.4635629 C50.4821019,48.5177497 49.6820967,49.3962738 48.6487996,49.4914639 L48.4632249,49.5 L2.53677515,49.5 C1.48241335,49.5 0.618610025,48.6841222 0.542260883,47.6492623 L0.536858134,47.4817807 L1.39285714,0.5 L49.6071429,0.5 Z"/>
    </g>
    <g stroke-linejoin="round">
      <use fill="#000" filter="url(#deepin-appstore-l)" xlink:href="#deepin-appstore-m"/>
      <circle cx="9" cy="12.5" r="2" fill="url(#deepin-appstore-n)" stroke="url(#deepin-appstore-o)"/>
    </g>
    <g stroke-linejoin="round">
      <use fill="#000" filter="url(#deepin-appstore-p)" xlink:href="#deepin-appstore-q"/>
      <circle cx="42" cy="12.5" r="2" fill="url(#deepin-appstore-n)" stroke="url(#deepin-appstore-o)"/>
    </g>
    <g fill-rule="nonzero">
      <use fill="#000" filter="url(#deepin-appstore-r)" xlink:href="#deepin-appstore-s"/>
      <use fill="url(#deepin-appstore-t)" xlink:href="#deepin-appstore-s"/>
      <use fill="#000" filter="url(#deepin-appstore-u)" xlink:href="#deepin-appstore-s"/>
    </g>
    <polygon fill="url(#deepin-appstore-v)" fill-rule="nonzero" points="1.5 6 49.5 6 49.5 7 1.5 7" opacity=".674"/>
  </g>
</svg>
