<svg xmlns="http://www.w3.org/2000/svg" xmlns:xlink="http://www.w3.org/1999/xlink" width="64" height="64" viewBox="0 0 64 64">
  <defs>
    <filter id="deepin-deb-installer-a" width="125.8%" height="126.7%" x="-12.9%" y="-13.3%" filterUnits="objectBoundingBox">
      <feOffset dy="1" in="SourceAlpha" result="shadowOffsetOuter1"/>
      <feGaussianBlur in="shadowOffsetOuter1" result="shadowBlurOuter1" stdDeviation="1.5"/>
      <feColorMatrix in="shadowBlurOuter1" result="shadowMatrixOuter1" values="0 0 0 0 0   0 0 0 0 0   0 0 0 0 0  0 0 0 0.2 0"/>
      <feMerge>
        <feMergeNode in="shadowMatrixOuter1"/>
        <feMergeNode in="SourceGraphic"/>
      </feMerge>
    </filter>
    <linearGradient id="deepin-deb-installer-b" x1="47.674%" x2="47.674%" y1="-11.89%" y2="100%">
      <stop offset="0%" stop-color="#735D3A"/>
      <stop offset="100%" stop-color="#A79069"/>
    </linearGradient>
    <linearGradient id="deepin-deb-installer-c" x1="52.326%" x2="52.326%" y1="-.266%" y2="108.319%">
      <stop offset="0%" stop-color="#88703C"/>
      <stop offset="100%" stop-color="#BBA585"/>
    </linearGradient>
    <linearGradient id="deepin-deb-installer-f" x1="14.981%" x2="24.266%" y1="0%" y2="50%">
      <stop offset="0%" stop-color="#F8F8F8"/>
      <stop offset="100%" stop-color="#DCDCDC"/>
    </linearGradient>
    <path id="deepin-deb-installer-e" d="M2,1.5 L32.5,1.5 C33.0522847,1.5 33.5,1.94771525 33.5,2.5 L33.5,35 L33.5,35 L1,35 L1,2.5 C1,1.94771525 1.44771525,1.5 2,1.5 Z"/>
    <filter id="deepin-deb-installer-d" width="112.3%" height="111.9%" x="-3.1%" y="-3%" filterUnits="objectBoundingBox">
      <feOffset dx="1" dy="1" in="SourceAlpha" result="shadowOffsetOuter1"/>
      <feGaussianBlur in="shadowOffsetOuter1" result="shadowBlurOuter1" stdDeviation=".5"/>
      <feColorMatrix in="shadowBlurOuter1" values="0 0 0 0 0   0 0 0 0 0   0 0 0 0 0  0 0 0 0.0611341783 0"/>
    </filter>
    <linearGradient id="deepin-deb-installer-g" x1="14.661%" x2="97.223%" y1="-9.128%" y2="57.366%">
      <stop offset="0%" stop-opacity=".485"/>
      <stop offset="100%" stop-opacity=".087"/>
    </linearGradient>
    <linearGradient id="deepin-deb-installer-h" x1="47.895%" x2="47.895%" y1="-1.471%" y2="101.471%">
      <stop offset="0%" stop-color="#DD564F"/>
      <stop offset="100%" stop-color="#9A201A"/>
    </linearGradient>
    <path id="deepin-deb-installer-j" d="M1,-2.84217094e-13 L31.5,-2.84217094e-13 C32.0522847,-2.84318547e-13 32.5,0.44771525 32.5,1 L32.5,33.5 L32.5,33.5 L0,33.5 L0,1 C-6.76353751e-17,0.44771525 0.44771525,-2.84115641e-13 1,-2.84217094e-13 Z"/>
    <filter id="deepin-deb-installer-i" width="112.3%" height="111.9%" x="-3.1%" y="-3%" filterUnits="objectBoundingBox">
      <feOffset dx="1" dy="1" in="SourceAlpha" result="shadowOffsetOuter1"/>
      <feGaussianBlur in="shadowOffsetOuter1" result="shadowBlurOuter1" stdDeviation=".5"/>
      <feColorMatrix in="shadowBlurOuter1" values="0 0 0 0 0   0 0 0 0 0   0 0 0 0 0  0 0 0 0.0611341783 0"/>
    </filter>
    <filter id="deepin-deb-installer-k" width="109.2%" height="109%" x="-1.5%" y="-1.5%" filterUnits="objectBoundingBox">
      <feOffset dy="1" in="SourceAlpha" result="shadowOffsetInner1"/>
      <feComposite in="shadowOffsetInner1" in2="SourceAlpha" k2="-1" k3="1" operator="arithmetic" result="shadowInnerInner1"/>
      <feColorMatrix in="shadowInnerInner1" values="0 0 0 0 1   0 0 0 0 1   0 0 0 0 1  0 0 0 1 0"/>
    </filter>
    <linearGradient id="deepin-deb-installer-l" x1="47.674%" x2="47.674%" y1="8.742%" y2="109.399%">
      <stop offset="0%" stop-color="#F6E4BF"/>
      <stop offset="9.441%" stop-color="#F0DCB7"/>
      <stop offset="100%" stop-color="#B59463"/>
    </linearGradient>
    <linearGradient id="deepin-deb-installer-m" x1="52.326%" x2="52.326%" y1="-1.31%" y2="109.399%">
      <stop offset="0%" stop-color="#B6A07F"/>
      <stop offset="100%" stop-color="#8D744F"/>
    </linearGradient>
    <linearGradient id="deepin-deb-installer-n" x1="50%" x2="50%" y1="0%" y2="50%">
      <stop offset=".079%" stop-color="#563500" stop-opacity=".369"/>
      <stop offset="100%" stop-color="#693900" stop-opacity="0"/>
    </linearGradient>
    <filter id="deepin-deb-installer-o" width="100%" height="100%" x="0%" y="0%" filterUnits="objectBoundingBox">
      <feGaussianBlur in="SourceGraphic"/>
    </filter>
    <path id="deepin-deb-installer-p" d="M25.5,43.5011713 L22.2574107,43.5011713 C21.9812683,43.5011713 21.7574107,43.725029 21.7574107,44.0011713 C21.7574107,44.1387165 21.8140721,44.2701872 21.9140588,44.36464 L30.6566481,52.623356 C30.8493556,52.8053978 31.1506444,52.8053978 31.3433519,52.623356 L40.0859412,44.36464 C40.2866794,44.175012 40.295686,43.8585577 40.106058,43.6578195 C40.0116052,43.5578327 39.8801345,43.5011713 39.7425893,43.5011713 L36.5,43.5011713 C36.2238576,43.5011713 36,43.2773137 36,43.0011713 L36,36.9477045 C36,36.6715622 35.7761424,36.4477045 35.5,36.4477045 L26.5,36.4477045 C26.2238576,36.4477045 26,36.6715622 26,36.9477045 L26,43.0011713 C26,43.2773137 25.7761424,43.5011713 25.5,43.5011713 Z"/>
    <filter id="deepin-deb-installer-q" width="122.4%" height="135.2%" x="-11.2%" y="-18.2%" filterUnits="objectBoundingBox">
      <feGaussianBlur in="SourceAlpha" result="shadowBlurInner1" stdDeviation="2.5"/>
      <feOffset dy="1" in="shadowBlurInner1" result="shadowOffsetInner1"/>
      <feComposite in="shadowOffsetInner1" in2="SourceAlpha" k2="-1" k3="1" operator="arithmetic" result="shadowInnerInner1"/>
      <feColorMatrix in="shadowInnerInner1" values="0 0 0 0 0   0 0 0 0 0   0 0 0 0 0  0 0 0 0.327578671 0"/>
    </filter>
    <linearGradient id="deepin-deb-installer-r" x1="50%" x2="50%" y1="1.508%" y2="100%">
      <stop offset="0%" stop-color="#B6A07F"/>
      <stop offset="100%" stop-color="#E1CBA2"/>
    </linearGradient>
    <linearGradient id="deepin-deb-installer-s" x1="47.674%" x2="47.674%" y1="-1.31%" y2="109.399%">
      <stop offset="0%" stop-color="#E6D2AA"/>
      <stop offset="100%" stop-color="#B59463"/>
    </linearGradient>
    <linearGradient id="deepin-deb-installer-t" x1="52.326%" x2="52.326%" y1="-1.31%" y2="109.399%">
      <stop offset="0%" stop-color="#B6A07F"/>
      <stop offset="100%" stop-color="#8D744F"/>
    </linearGradient>
    <radialGradient id="deepin-deb-installer-u" cx="50%" cy="100%" r="2550%" fx="50%" fy="100%" gradientTransform="matrix(.0196 0 0 1 .49 0)">
      <stop offset="0%" stop-color="#FFF"/>
      <stop offset="100%" stop-color="#FFF" stop-opacity="0"/>
    </radialGradient>
  </defs>
  <g fill="none" fill-rule="evenodd" filter="url(#deepin-deb-installer-a)" transform="translate(1 1.552)">
    <polygon fill="url(#deepin-deb-installer-b)" fill-rule="nonzero" points="9.5 16.448 52.5 16.448 57 20.448 53.144 20.448 5 20.448"/>
    <path fill="url(#deepin-deb-installer-c)" fill-rule="nonzero" d="M52.5,15.4477045 L9.5,15.4477045 C9.25508584,15.4477045 9.01868729,15.5375831 8.83563616,15.7002952 L4.33563616,19.7002952 C3.64838051,20.3111891 4.0804829,21.4477045 5,21.4477045 L57,21.4477045 C57.9195171,21.4477045 58.3516195,20.3111891 57.6643638,19.7002952 L53.1643638,15.7002952 C52.9813127,15.5375831 52.7449142,15.4477045 52.5,15.4477045 Z M52.5,16.4477045 L57,20.4477045 L5,20.4477045 L9.5,16.4477045 L52.5,16.4477045 Z"/>
    <g fill-rule="nonzero" transform="rotate(11 5.5 111.096)">
      <use fill="#000" filter="url(#deepin-deb-installer-d)" xlink:href="#deepin-deb-installer-e"/>
      <use fill="url(#deepin-deb-installer-f)" xlink:href="#deepin-deb-installer-e"/>
      <path fill="url(#deepin-deb-installer-g)" d="M32.5,0.5 L2,0.5 C0.8954305,0.5 9.09494702e-12,1.3954305 9.09494702e-12,2.5 L9.09494702e-12,35 C9.09494702e-12,35.5522847 0.44771525,36 1,36 L33.5,36 C34.0522847,36 34.5,35.5522847 34.5,35 L34.5,2.5 C34.5,1.3954305 33.6045695,0.5 32.5,0.5 Z M32.5,1.5 C33.0522847,1.5 33.5,1.94771525 33.5,2.5 L33.5,35 L1,35 L1,2.5 C1,1.94771525 1.44771525,1.5 2,1.5 L32.5,1.5 Z"/>
      <path fill="url(#deepin-deb-installer-h)" d="M24.2737549,14.8673463 L24.0753927,15.284925 C24.3688424,14.4035702 24.1997982,13.4437381 24.2410034,12.6138264 L24.1593865,12.5920405 C24.0875432,10.5046623 22.2711148,8.28605234 20.6554249,7.53514188 C19.2618697,6.89604121 17.1173902,6.786069 16.1268996,7.26795315 C16.2631907,7.14800677 16.8065087,7.09761378 16.6427478,7.00522648 C15.0915063,7.15824309 15.4383097,7.54275317 14.2489282,7.84432483 C13.9229901,8.15744454 15.2008563,7.59340886 14.5133232,7.99891632 C13.8754469,8.1739799 13.5782987,7.88868092 12.6329745,8.86058644 C12.7172325,8.99548464 13.2330797,8.46059054 12.8028101,8.99759244 C11.9142742,8.88840767 9.99668301,11.0172554 9.58939286,11.7227591 L9.80228247,11.7589807 C9.45283687,12.6295749 8.99272125,13.1846865 8.93065013,13.7059405 C8.84005356,14.9880785 8.38944568,17.3263728 9.01490768,18.0444752 L8.95415768,18.6442061 C9.03973635,18.8145455 9.1049767,18.9875093 9.21142178,19.1478751 L9.07248841,19.1589005 C9.73043871,21.2221326 9.77930359,19.1972207 10.6485585,21.3399788 C10.5223033,21.2977219 10.3949924,21.2515282 10.2114218,21.0053363 C10.1892348,21.1932612 10.4789861,21.7572969 10.8226202,22.1974495 L10.6770846,22.3625394 C10.8685791,22.7087298 11.045283,22.7845817 11.1781406,22.9047908 C10.4628744,22.5168688 11.8416385,24.1832543 11.966044,24.3955879 L12.0759227,24.2008392 C12.0598109,24.4808887 12.2777179,24.8423017 12.6860643,25.3425588 L13.0262654,25.3291716 C13.1662549,25.6050212 13.6786685,26.1016021 13.9895516,26.1252256 L13.7827373,26.3932017 C14.5629795,26.6386056 14.1617646,26.7186574 15.12056,27.0559238 L14.9269524,26.716033 C15.4161227,27.1378126 15.5672055,27.5065753 16.2573798,27.8299313 C17.2145907,28.1614239 17.3413735,28.029929 18.3234126,28.309191 C17.490872,28.2860944 16.5122659,28.2944932 15.8540519,28.0601126 C11.3632966,26.8517267 7.25500375,21.6168768 7.55505584,16.224811 C7.4861415,15.1332223 7.66440637,13.7691948 7.48162718,13.4975446 C7.73809934,12.6665829 8.03577459,11.6539959 8.63403114,10.4487598 C8.59071394,10.3679206 8.73255169,10.6847154 9.03656653,10.1694978 C9.22093011,9.7671401 9.37174913,9.32383774 9.60392021,8.9325038 L9.72357207,8.90494576 C9.84322337,8.21387771 11.3453356,7.15483439 11.7922461,6.62176922 L11.8228835,6.82544147 C12.7983187,5.91652763 14.5365648,5.30734841 15.5151698,4.87323224 C15.2581711,5.15616884 16.0909755,4.84541258 16.6908175,4.809191 C16.5016992,4.9141769 16.3136383,4.99632789 16.1364068,5.11994888 C16.8564271,4.94908413 16.8220901,5.19002594 17.5579589,5.09343931 C17.2996391,5.13044676 16.9861127,5.23254446 17.0360365,5.27112787 C17.8582758,5.36561485 17.9840029,5.01863697 18.7449636,5.27060254 L18.6968944,5.046983 C19.7542098,5.42598147 19.975552,5.36167759 21.1245218,5.96744543 C21.5273216,5.98712841 21.5679976,5.72046667 22.1768197,5.96692063 C22.2840567,6.15379487 22.1525192,6.18870259 22.9010672,6.63095486 C22.9840036,6.59788467 22.7518325,6.38791337 22.5682614,6.22072323 C24.0724883,7.01966489 25.7071949,8.7230578 26.2061384,10.5458724 C25.7386258,9.69076341 26.158066,10.9820877 25.9972099,10.9146345 C26.2056097,11.4723712 26.3759746,12.0490049 26.4816272,12.6440111 C26.3429582,12.1560906 26.0421131,10.9776256 25.5143787,10.2177917 C25.471061,10.7080751 24.833449,9.87895042 25.1821016,10.9587285 C25.4472891,11.3414015 25.2357206,10.5708059 25.563243,11.2505886 C25.5685258,11.5736819 25.6924032,11.8946761 25.7645107,12.3154062 C25.652519,12.2972965 25.5143787,11.8500569 25.4327628,11.9747274 C25.546074,12.504118 25.7328149,12.7802318 25.8036024,12.8209122 C25.7674162,12.9096249 25.6728568,12.738236 25.666254,13.0983367 C25.7101003,13.9271993 25.90001,13.5775937 25.9903433,13.6169662 C25.8989537,14.0250982 25.5315477,14.5048832 25.7132691,15.206975 C25.661236,14.9941166 25.559017,14.780208 25.4821547,14.5786354 C25.4108396,15.1781037 25.6158058,15.2949003 25.3371472,16.0211393 C25.5378868,15.3665533 25.5162279,14.7754833 25.3268459,15.0599948 C25.4108396,15.990693 24.5854305,16.7051213 24.6752352,17.2940911 L24.4354034,16.9660104 C23.7859052,17.9014333 24.4200847,17.481228 23.978457,18.1901442 C24.1406325,17.9116696 23.8934065,18.0754468 24.1044474,17.7599648 C23.9641946,17.7678387 23.4792497,18.352347 23.034981,18.6961751 C21.2901325,20.0859235 19.2071955,20.2678109 17.1902907,19.5195255 C17.1118436,19.5833041 17.5500371,19.9247703 17.8735972,20.0898602 C18.6416911,20.3720105 19.5104168,20.3832953 20.1945163,20.358099 C18.7161748,20.9725278 15.8944647,19.7344836 14.9713258,18.0919827 C15.1797256,18.1371262 15.8952566,19.2468252 16.4311787,19.4266134 C16.1144858,19.1746473 15.869636,18.8539163 15.6424829,18.5239987 C16.0703751,19.0124445 16.590185,19.4113903 17.1580662,19.6754292 C17.1221449,19.5384227 17.3149605,19.5108641 17.0466032,19.3308137 C15.3368837,18.0287283 14.3263185,16.9224418 14.6773479,14.3607902 C14.9377813,14.1649919 15.007512,13.0964997 15.6055042,12.722488 C15.9700053,11.9217099 17.062716,11.1844498 18.2304381,11.16555 C19.4219338,11.100984 20.4280085,11.7983516 20.9330267,12.4560868 C20.0135864,11.6033407 18.5077756,11.3445508 17.2233072,11.9760402 C15.9100483,12.5636972 15.1313899,14.0006894 15.2449659,15.431382 C15.2935654,15.3605164 15.3371453,15.4046103 15.3603912,15.2282346 C15.3202438,18.0093058 18.3767668,20.047866 20.5769783,19.0190057 L20.6028621,19.0770106 C21.4953614,18.8347565 21.3801999,18.6352836 21.9636653,18.2373874 C21.9182346,18.3305621 21.5706382,18.5691184 21.7779812,18.5736042 C22.0616577,18.4985398 22.9475531,17.679126 23.3838973,17.2940911 C23.5838445,16.8654866 23.2769247,17.062335 23.5561114,16.5232334 L23.8976326,16.3544689 C24.0875427,15.8095931 24.2975285,15.5014597 24.2737549,14.8673463 Z"/>
    </g>
    <g fill-rule="nonzero" transform="translate(10 5.448)">
      <use fill="#000" filter="url(#deepin-deb-installer-i)" xlink:href="#deepin-deb-installer-j"/>
      <use fill="url(#deepin-deb-installer-f)" xlink:href="#deepin-deb-installer-j"/>
      <use fill="#000" filter="url(#deepin-deb-installer-k)" xlink:href="#deepin-deb-installer-j"/>
      <path fill="url(#deepin-deb-installer-g)" d="M31.5,-1 L1,-1 C-0.1045695,-1 -1,-0.1045695 -1,1 L-1,33.5 C-1,34.0522847 -0.55228475,34.5 0,34.5 L32.5,34.5 C33.0522847,34.5 33.5,34.0522847 33.5,33.5 L33.5,1 C33.5,-0.1045695 32.6045695,-1 31.5,-1 Z M31.5,-2.8399505e-13 C32.0522847,-2.8399505e-13 32.5,0.44771525 32.5,1 L32.5,33.5 L0,33.5 L0,1 C0,0.44771525 0.44771525,-2.8399505e-13 1,-2.8399505e-13 L31.5,-2.8399505e-13 Z"/>
      <path fill="url(#deepin-deb-installer-h)" d="M23.7921278,13.5581553 L23.5937655,13.975734 C23.8872153,13.0943792 23.718171,12.1345471 23.7593762,11.3046354 L23.6777593,11.2828495 C23.6059161,9.19547127 21.7894877,6.97686133 20.1737977,6.22595087 C18.7802425,5.58685021 16.635763,5.47687799 15.6452724,5.95876215 C15.7815635,5.83881577 16.3248815,5.78842277 16.1611206,5.69603547 C14.6098792,5.84905208 14.9566825,6.23356217 13.767301,6.53513382 C13.4413629,6.84825353 14.7192291,6.28421785 14.031696,6.68972532 C13.3938197,6.8647889 13.0966715,6.57948992 12.1513473,7.55139543 C12.2356054,7.68629363 12.7514525,7.15139954 12.3211829,7.68840143 C11.432647,7.57921666 9.51505582,9.7080644 9.10776568,10.4135681 L9.32065529,10.4497897 C8.97120969,11.3203839 8.51109407,11.8754955 8.44902294,12.3967495 C8.35842638,13.6788875 7.9078185,16.0171818 8.5332805,16.7352842 L8.47253049,17.3350151 C8.55810916,17.5053545 8.62334952,17.6783183 8.7297946,17.8386841 L8.59086123,17.8497095 C9.24881152,19.9129416 9.29767641,17.8880297 10.1669313,20.0307878 C10.0406761,19.9885308 9.91336518,19.9423372 9.72979463,19.6961453 C9.70760766,19.8840702 9.99735892,20.4481059 10.3409931,20.8882585 L10.1954574,21.0533484 C10.3869519,21.3995388 10.5636558,21.4753907 10.6965134,21.5955998 C9.98124723,21.2076778 11.3600113,22.8740633 11.4844168,23.0863969 L11.5942955,22.8916482 C11.5781837,23.1716977 11.7960907,23.5331107 12.2044371,24.0333678 L12.5446382,24.0199806 C12.6846278,24.2958302 13.1970413,24.7924111 13.5079244,24.8160346 L13.3011101,25.0840107 C14.0813523,25.3294146 13.6801374,25.4094664 14.6389328,25.7467328 L14.4453252,25.406842 C14.9344955,25.8286216 15.0855783,26.1973843 15.7757526,26.5207403 C16.7329635,26.8522329 16.8597464,26.720738 17.8417854,27 C17.0092448,26.9769034 16.0306388,26.9853022 15.3724247,26.7509216 C10.8816694,25.5425357 6.77337657,20.3076858 7.07342865,14.91562 C7.00451431,13.8240312 7.18277919,12.4600038 7,12.1883536 C7.25647216,11.3573919 7.55414741,10.3448049 8.15240395,9.13956882 C8.10908676,9.05872957 8.2509245,9.37552435 8.55493935,8.86030678 C8.73930292,8.45794909 8.89012195,8.01464673 9.12229303,7.6233128 L9.24194488,7.59575476 C9.36159619,6.9046867 10.8637084,5.84564339 11.3106189,5.31257821 L11.3412563,5.51625046 C12.3166915,4.60733663 14.0549376,3.99815741 15.0335426,3.56404123 C14.7765439,3.84697784 15.6093483,3.53622158 16.2091903,3.5 C16.020072,3.6049859 15.8320111,3.68713689 15.6547796,3.81075788 C16.3747999,3.63989313 16.3404629,3.88083493 17.0763317,3.78424831 C16.8180119,3.82125576 16.5044855,3.92335345 16.5544093,3.96193687 C17.3766486,4.05642385 17.5023758,3.70944597 18.2633364,3.96141153 L18.2152673,3.73779199 C19.2725826,4.11679047 19.4939248,4.05248659 20.6428946,4.65825442 C21.0456944,4.67793741 21.0863704,4.41127567 21.6951926,4.65772962 C21.8024295,4.84460386 21.670892,4.87951159 22.41944,5.32176385 C22.5023765,5.28869367 22.2702053,5.07872236 22.0866342,4.91153223 C23.5908611,5.71047389 25.2255677,7.41386679 25.7245112,9.23668136 C25.2569987,8.3815724 25.6764388,9.67289668 25.5155828,9.60544352 C25.7239825,10.1631802 25.8943474,10.7398139 26,11.3348201 C25.861331,10.8468996 25.5604859,9.66843462 25.0327515,8.90860067 C24.9894338,9.3988841 24.3518218,8.56975942 24.7004744,9.64953747 C24.9656619,10.0322105 24.7540934,9.26161492 25.0816158,9.94139761 C25.0868987,10.2644909 25.210776,10.5854851 25.2828835,11.0062152 C25.1708919,10.9881055 25.0327515,10.5408658 24.9511357,10.6655364 C25.0644468,11.194927 25.2511877,11.4710408 25.3219752,11.5117212 C25.285789,11.6004339 25.1912296,11.429045 25.1846268,11.7891457 C25.2284731,12.6180083 25.4183828,12.2684027 25.5087161,12.3077752 C25.4173265,12.7159072 25.0499205,13.1956922 25.2316419,13.897784 C25.1796088,13.6849256 25.0773898,13.471017 25.0005276,13.2694444 C24.9292125,13.8689127 25.1341786,13.9857093 24.85552,14.7119483 C25.0562596,14.0573623 25.0346007,13.4662923 24.8452187,13.7508038 C24.9292125,14.681502 24.1038033,15.3959303 24.193608,15.9849001 L23.9537762,15.6568194 C23.304278,16.5922423 23.9384575,16.172037 23.4968298,16.8809532 C23.6590054,16.6024786 23.4117793,16.7662557 23.6228202,16.4507737 C23.4825674,16.4586477 22.9976226,17.043156 22.5533538,17.3869841 C20.8085053,18.7767325 18.7255683,18.9586199 16.7086636,18.2103345 C16.6302164,18.2741131 17.0684099,18.6155793 17.3919701,18.7806692 C18.1600639,19.0628195 19.0287896,19.0741043 19.7128891,19.048908 C18.2345477,19.6633368 15.4128375,18.4252926 14.4896986,16.7827917 C14.6980984,16.8279352 15.4136294,17.9376342 15.9495516,18.1174224 C15.6328586,17.8654563 15.3880088,17.5447253 15.1608557,17.2148076 C15.5887479,17.7032535 16.1085578,18.1021993 16.676439,18.3662382 C16.6405177,18.2292317 16.8333333,18.2016731 16.564976,18.0216227 C14.8552565,16.7195373 13.8446913,15.6132508 14.1957207,13.0515992 C14.4561541,12.8558009 14.5258848,11.7873087 15.123877,11.413297 C15.4883781,10.6125189 16.5810888,9.87525884 17.748811,9.856359 C18.9403066,9.79179297 19.9463814,10.4891606 20.4513996,11.1468958 C19.5319592,10.2941497 18.0261484,10.0353598 16.74168,10.6668492 C15.4284211,11.2545062 14.6497627,12.6914984 14.7633387,14.122191 C14.8119382,14.0513254 14.8555181,14.0954193 14.878764,13.9190436 C14.8386166,16.7001148 17.8951396,18.738675 20.0953511,17.7098147 L20.1212349,17.7678196 C21.0137342,17.5255655 20.8985727,17.3260926 21.4820381,16.9281964 C21.4366074,17.0213711 21.089011,17.2599274 21.296354,17.2644132 C21.5800306,17.1893487 22.4659259,16.369935 22.9022702,15.9849001 C23.1022173,15.5562956 22.7952975,15.753144 23.0744843,15.2140424 L23.4160054,15.0452779 C23.6059155,14.5004021 23.8159013,14.1922687 23.7921278,13.5581553 Z"/>
    </g>
    <path fill="url(#deepin-deb-installer-l)" fill-rule="nonzero" d="M5,20.4477045 L57,20.4477045 L57,56.4477045 C57,57.552274 56.1045695,58.4477045 55,58.4477045 L7,58.4477045 C5.8954305,58.4477045 5,57.552274 5,56.4477045 L5,20.4477045 L5,20.4477045 Z"/>
    <path fill="url(#deepin-deb-installer-m)" fill-rule="nonzero" d="M57,19.4477045 L5,19.4477045 C4.44771525,19.4477045 4,19.8954198 4,20.4477045 L4,56.4477045 C4,58.1045588 5.34314575,59.4477045 7,59.4477045 L55,59.4477045 C56.6568542,59.4477045 58,58.1045588 58,56.4477045 L58,20.4477045 C58,19.8954198 57.5522847,19.4477045 57,19.4477045 Z M57,20.4477045 L57,56.4477045 C57,57.552274 56.1045695,58.4477045 55,58.4477045 L7,58.4477045 C5.8954305,58.4477045 5,57.552274 5,56.4477045 L5,20.4477045 L57,20.4477045 Z"/>
    <polygon fill="url(#deepin-deb-installer-n)" points="5 30.948 57 30.948 57 34.948 5 34.948" filter="url(#deepin-deb-installer-o)"/>
    <g fill-rule="nonzero">
      <use fill="#927A53" xlink:href="#deepin-deb-installer-p"/>
      <use fill="#000" filter="url(#deepin-deb-installer-q)" xlink:href="#deepin-deb-installer-p"/>
    </g>
    <path fill="url(#deepin-deb-installer-r)" fill-rule="nonzero" d="M26.5,35.4477045 L26.35554,35.4545711 C25.5948881,35.5272559 25,36.1680084 25,36.9477045 L25,42.501 L22.2574107,42.5011713 C21.4289836,42.5011713 20.7574107,43.1727442 20.7574107,44.0011713 C20.7574107,44.4138068 20.9273949,44.808219 21.227355,45.0915774 L29.9699443,53.3502934 C30.5480668,53.8964187 31.4519332,53.8964187 32.0300557,53.3502934 L40.772645,45.0915774 C41.3748596,44.5226933 41.4018794,43.5733303 40.8329953,42.9711157 L40.7217116,42.8648014 C40.4507492,42.6313155 40.1036453,42.5011713 39.7425893,42.5011713 L37,42.501 L37,36.9477045 C37,36.1192774 36.3284271,35.4477045 35.5,35.4477045 L26.5,35.4477045 Z M35.5,36.4477045 C35.7454599,36.4477045 35.9496084,36.6245797 35.9919443,36.8578289 L36,36.9477045 L36,43.0011713 C36,43.2466312 36.1768752,43.4507797 36.4101244,43.4931157 L36.5,43.5011713 L39.7425893,43.5011713 C39.8801345,43.5011713 40.0116052,43.5578327 40.106058,43.6578195 C40.2746162,43.8362534 40.2862286,44.1061174 40.1457433,44.2970661 L40.0859412,44.36464 L31.3433519,52.623356 C31.1747328,52.7826426 30.9229812,52.8025534 30.733579,52.6830885 L30.6566481,52.623356 L21.9140588,44.36464 C21.8140721,44.2701872 21.7574107,44.1387165 21.7574107,44.0011713 C21.7574107,43.7557115 21.9342858,43.551563 22.1675351,43.509227 L22.2574107,43.5011713 L25.5,43.5011713 C25.7454599,43.5011713 25.9496084,43.3242962 25.9919443,43.091047 L26,43.0011713 L26,36.9477045 C26,36.7022447 26.1768752,36.4980962 26.4101244,36.4557602 L26.5,36.4477045 L35.5,36.4477045 Z"/>
    <path fill="url(#deepin-deb-installer-s)" fill-rule="nonzero" d="M5.38227234,20.4477045 L56.6177277,20.4477045 C57.0366615,20.4477045 57.4111892,20.7088376 57.5560455,21.1019307 L60.7520385,29.7748176 C60.8475213,30.033927 60.7148758,30.3213807 60.4557665,30.4168635 C60.4004084,30.4372632 60.3418768,30.4477045 60.2828796,30.4477045 L1.71712042,30.4477045 C1.44097805,30.4477045 1.21712042,30.2238469 1.21712042,29.9477045 C1.21712042,29.8887074 1.22756179,29.8301757 1.24796148,29.7748176 L4.44395445,21.1019307 C4.58881082,20.7088376 4.96333847,20.4477045 5.38227234,20.4477045 Z"/>
    <path fill="url(#deepin-deb-installer-t)" fill-rule="nonzero" d="M56.6177277,19.4477045 L5.38227234,19.4477045 C4.54440459,19.4477045 3.79534931,19.9699706 3.50563657,20.7561569 L0.309643592,29.4290438 C0.248444542,29.5951181 0.217120421,29.770713 0.217120421,29.9477045 C0.217120421,30.7761317 0.888693296,31.4477045 1.71712042,31.4477045 L60.2828796,31.4477045 C60.4598711,31.4477045 60.635466,31.4163804 60.8015403,31.3551814 C61.5788683,31.068733 61.9768048,30.2063718 61.6903564,29.4290438 L58.4943634,20.7561569 C58.2046507,19.9699706 57.4555954,19.4477045 56.6177277,19.4477045 Z M56.6177277,20.4477045 C57.0366615,20.4477045 57.4111892,20.7088376 57.5560455,21.1019307 L60.7520385,29.7748176 C60.8475213,30.033927 60.7148758,30.3213807 60.4557665,30.4168635 C60.4004084,30.4372632 60.3418768,30.4477045 60.2828796,30.4477045 L1.71712042,30.4477045 C1.44097805,30.4477045 1.21712042,30.2238469 1.21712042,29.9477045 C1.21712042,29.8887074 1.22756179,29.8301757 1.24796148,29.7748176 L4.44395445,21.1019307 C4.58881082,20.7088376 4.96333847,20.4477045 5.38227234,20.4477045 L56.6177277,20.4477045 Z"/>
    <polygon fill="url(#deepin-deb-installer-u)" fill-rule="nonzero" points="5.5 20.448 56.5 20.448 56.5 21.448 5.5 21.448" opacity=".675"/>
  </g>
</svg>
