<svg xmlns="http://www.w3.org/2000/svg" xmlns:xlink="http://www.w3.org/1999/xlink" width="64" height="64" viewBox="0 0 64 64">
  <defs>
    <filter id="deepin-cloud-print-configurator-a" width="126.7%" height="129.6%" x="-13.3%" y="-14.8%" filterUnits="objectBoundingBox">
      <feOffset dy="1" in="SourceAlpha" result="shadowOffsetOuter1"/>
      <feGaussianBlur in="shadowOffsetOuter1" result="shadowBlurOuter1" stdDeviation="1.5"/>
      <feColorMatrix in="shadowBlurOuter1" result="shadowMatrixOuter1" values="0 0 0 0 0   0 0 0 0 0   0 0 0 0 0  0 0 0 0.2 0"/>
      <feMerge>
        <feMergeNode in="shadowMatrixOuter1"/>
        <feMergeNode in="SourceGraphic"/>
      </feMerge>
    </filter>
    <linearGradient id="deepin-cloud-print-configurator-b" x1="0%" x2="100%" y1="100%" y2="100%">
      <stop offset="0%" stop-color="#707070"/>
      <stop offset="6.212%" stop-color="#626262"/>
      <stop offset="49.592%" stop-color="#717171"/>
      <stop offset="95.462%" stop-color="#5B5B5B"/>
      <stop offset="100%" stop-color="#797979"/>
    </linearGradient>
    <linearGradient id="deepin-cloud-print-configurator-c" x1="50%" x2="50%" y1="0%" y2="100%">
      <stop offset=".082%" stop-opacity=".334"/>
      <stop offset="100%" stop-opacity=".7"/>
    </linearGradient>
    <linearGradient id="deepin-cloud-print-configurator-d" x1="50%" x2="50%" y1="0%" y2="144.712%">
      <stop offset="0%" stop-opacity=".461"/>
      <stop offset="100%" stop-color="#595959" stop-opacity=".195"/>
    </linearGradient>
    <linearGradient id="deepin-cloud-print-configurator-e" x1="50%" x2="50%" y1="0%" y2="98.356%">
      <stop offset="0%" stop-color="#C7C7C7"/>
      <stop offset="100%" stop-color="#989898"/>
    </linearGradient>
    <path id="deepin-cloud-print-configurator-f" d="M10.3535505,1 L49.6464495,1 C52.1420925,1 54.2555893,2.84024301 54.5989109,5.31215814 L58.210022,31.3121581 C58.5899065,34.047327 56.6805713,36.5725768 53.9454025,36.9524614 C53.7174888,36.984116 53.4876619,37 53.2575606,37 L6.7424394,37 C3.98101565,37 1.7424394,34.7614237 1.7424394,32 C1.7424394,31.7698987 1.75832337,31.5400718 1.78997804,31.3121581 L5.40108915,5.31215814 C5.74441069,2.84024301 7.85790748,1 10.3535505,1 Z"/>
    <filter id="deepin-cloud-print-configurator-g" width="99.2%" height="102.8%" x=".4%" y="-1.4%" filterUnits="objectBoundingBox">
      <feOffset dy="-1" in="SourceAlpha" result="shadowOffsetInner1"/>
      <feComposite in="shadowOffsetInner1" in2="SourceAlpha" k2="-1" k3="1" operator="arithmetic" result="shadowInnerInner1"/>
      <feColorMatrix in="shadowInnerInner1" values="0 0 0 0 1   0 0 0 0 1   0 0 0 0 1  0 0 0 0.5 0"/>
    </filter>
    <linearGradient id="deepin-cloud-print-configurator-h" x1="50%" x2="50%" y1="0%" y2="100%">
      <stop offset="0%" stop-opacity=".098"/>
      <stop offset="100%" stop-opacity=".434"/>
    </linearGradient>
    <linearGradient id="deepin-cloud-print-configurator-i" x1="50%" x2="50%" y1="0%" y2="98.356%">
      <stop offset="0%" stop-color="#6A8AA9"/>
      <stop offset="100%" stop-color="#0E2A47"/>
    </linearGradient>
    <linearGradient id="deepin-cloud-print-configurator-j" x1="50%" x2="50%" y1="4.155%" y2="99.82%">
      <stop offset="0%" stop-opacity=".132"/>
      <stop offset="100%" stop-opacity=".192"/>
    </linearGradient>
    <radialGradient id="deepin-cloud-print-configurator-k" cx="50%" cy="18.931%" r="100%" fx="50%" fy="18.931%">
      <stop offset="2.576%" stop-color="#B4E09E"/>
      <stop offset="100%" stop-color="#1A8F29"/>
    </radialGradient>
    <linearGradient id="deepin-cloud-print-configurator-l" x1="50%" x2="50%" y1="8.649%" y2="131.475%">
      <stop offset="0%" stop-opacity=".215"/>
      <stop offset="100%" stop-opacity=".306"/>
    </linearGradient>
    <radialGradient id="deepin-cloud-print-configurator-m" cx="49.359%" cy="2.679%" r="125.311%" fx="49.359%" fy="2.679%" gradientTransform="matrix(.625 .00132 -.00082 1 .185 0)">
      <stop offset="0%" stop-color="#FFF"/>
      <stop offset="99.984%" stop-color="#FFF" stop-opacity=".614"/>
    </radialGradient>
    <path id="deepin-cloud-print-configurator-n" d="M41.3062886,15.2395139 C40.5273972,12.1907514 37.7638236,9.93196976 34.4642622,9.93196976 C33.504284,9.93196976 32.5908502,10.124648 31.7559601,10.4699867 C30.3247199,8.95227509 28.2978569,8 26.0440899,8 C21.7503693,8 18.2668121,11.4407885 18.2006318,15.7078702 C15.7526874,16.5890025 14,18.919668 14,21.6645917 C14,25.145398 16.8137542,27.968134 20.2958569,28 L39.6655985,27.9962947 C43.181155,27.8903216 46,25.0216393 46,21.4896991 C46,18.528383 44.0182268,16.0324589 41.3062886,15.2395139 Z"/>
    <filter id="deepin-cloud-print-configurator-o" width="103.1%" height="105%" x="-1.6%" y="-2.5%" filterUnits="objectBoundingBox">
      <feOffset dy="1" in="SourceAlpha" result="shadowOffsetInner1"/>
      <feComposite in="shadowOffsetInner1" in2="SourceAlpha" k2="-1" k3="1" operator="arithmetic" result="shadowInnerInner1"/>
      <feColorMatrix in="shadowInnerInner1" values="0 0 0 0 1   0 0 0 0 1   0 0 0 0 1  0 0 0 1 0"/>
    </filter>
    <linearGradient id="deepin-cloud-print-configurator-p" x1="50%" x2="50%" y1="0%" y2="95.99%">
      <stop offset="0%" stop-opacity=".276"/>
      <stop offset="100%" stop-opacity=".489"/>
    </linearGradient>
    <linearGradient id="deepin-cloud-print-configurator-q" x1="47.778%" x2="47.778%" y1="0%" y2="127.734%">
      <stop offset="0%" stop-color="#626262"/>
      <stop offset="42.634%" stop-color="#BFBFBF"/>
      <stop offset="100%" stop-color="#FFF"/>
    </linearGradient>
    <linearGradient id="deepin-cloud-print-configurator-r" x1="54.444%" x2="54.444%" y1="-18.525%" y2="105.168%">
      <stop offset="0%" stop-opacity=".177"/>
      <stop offset="100%" stop-opacity=".391"/>
    </linearGradient>
    <linearGradient id="deepin-cloud-print-configurator-s" x1="50%" x2="50%" y1="0%" y2="100%">
      <stop offset="0%" stop-color="#EEE" stop-opacity=".17"/>
      <stop offset="100%" stop-color="#D8D8D8"/>
    </linearGradient>
  </defs>
  <g fill="none" fill-rule="evenodd" filter="url(#deepin-cloud-print-configurator-a)" transform="translate(2 5)">
    <path fill="url(#deepin-cloud-print-configurator-b)" d="M49.6506354,1 C52.1444681,1 54.2570134,2.83764593 54.6024392,5.30744003 L58.2038378,31.05744 C58.2534944,31.412485 58.2645642,31.7640286 58.2402452,32.1078329 L58.1184044,37.1213129 C58.0525518,39.8346755 55.8340379,42 53.1198763,42 L6.88066866,42 C4.16629013,42 1.94768196,39.8343417 1.88212705,37.1207549 L1.75907264,32.0859329 C1.7517073,31.9749072 1.74796601,31.8628905 1.74796601,31.75 C1.74796601,31.5183088 1.76407023,31.2868979 1.79616223,31.05744 L5.39756083,5.30744003 C5.74298658,2.83764593 7.85553185,1 10.3493646,1 L49.6506354,1 Z"/>
    <path fill="url(#deepin-cloud-print-configurator-c)" fill-rule="nonzero" d="M49.6506354,0 L10.3493646,0 C7.3567653,0 4.82171098,2.20517511 4.40720008,5.16892804 L0.805801477,30.918928 C0.767291072,31.1942774 0.747966015,31.4719706 0.747966015,31.75 C0.747966015,31.8845502 0.752410745,32.0186441 0.761265845,32.1521265 L0.882425586,37.1451883 C0.961084621,40.4012101 3.62341442,43 6.88066866,43 L53.1198763,43 C56.3768702,43 59.0390869,40.4016106 59.11811,37.1455755 L59.2399501,32.1321284 C59.2672805,31.7609517 59.2533127,31.3393869 59.1941985,30.918928 L55.5927999,5.16892804 C55.178289,2.20517511 52.6432347,0 49.6506354,0 Z M49.6506354,1 C52.1444681,1 54.2570134,2.83764593 54.6024392,5.30744003 L58.2038378,31.05744 C58.2534944,31.412485 58.2645642,31.7640286 58.2402452,32.1078329 L58.1184044,37.1213129 C58.0525518,39.8346755 55.8340379,42 53.1198763,42 L6.88066866,42 C4.16629013,42 1.94768196,39.8343417 1.88212705,37.1207549 L1.75907264,32.0859329 C1.7517073,31.9749072 1.74796601,31.8628905 1.74796601,31.75 C1.74796601,31.5183088 1.76407023,31.2868979 1.79616223,31.05744 L5.39756083,5.30744003 C5.74298658,2.83764593 7.85553185,1 10.3493646,1 L49.6506354,1 Z"/>
    <path fill="url(#deepin-cloud-print-configurator-d)" fill-rule="nonzero" d="M7,39 L53,39 C53.5522847,39 54,39.4477153 54,40 C54,40.5522847 53.5522847,41 53,41 L7,41 C6.44771525,41 6,40.5522847 6,40 C6,39.4477153 6.44771525,39 7,39 Z"/>
    <use fill="url(#deepin-cloud-print-configurator-e)" xlink:href="#deepin-cloud-print-configurator-f"/>
    <use fill="#000" filter="url(#deepin-cloud-print-configurator-g)" xlink:href="#deepin-cloud-print-configurator-f"/>
    <path fill="url(#deepin-cloud-print-configurator-h)" fill-rule="nonzero" d="M49.6464495,0 L10.3535505,0 C7.35877888,0 4.82258273,2.20829161 4.41059687,5.17458977 L0.799485762,31.1745898 C0.761500161,31.4480861 0.742439401,31.7238784 0.742439401,32 C0.742439401,35.3137085 3.4287309,38 6.7424394,38 L53.2575606,38 C53.5336822,38 53.8094745,37.9809392 54.0829708,37.9429536 C57.3651735,37.4870922 59.6563757,34.4567924 59.2005142,31.1745898 L55.5894031,5.17458977 C55.1774173,2.20829161 52.6412211,0 49.6464495,0 Z M49.6464495,1 C52.1420925,1 54.2555893,2.84024301 54.5989109,5.31215814 L58.210022,31.3121581 C58.5899065,34.047327 56.6805713,36.5725768 53.9454025,36.9524614 C53.7174888,36.984116 53.4876619,37 53.2575606,37 L6.7424394,37 C3.98101565,37 1.7424394,34.7614237 1.7424394,32 C1.7424394,31.7698987 1.75832337,31.5400718 1.78997804,31.3121581 L5.40108915,5.31215814 C5.74441069,2.84024301 7.85790748,1 10.3535505,1 L49.6464495,1 Z"/>
    <path fill="url(#deepin-cloud-print-configurator-i)" d="M10.5096435,2 L49.4903565,2 C51.2208777,2 52.6916194,3.26468809 52.9508608,4.97568117 L56.8902547,30.9756812 C57.179828,32.8868649 55.865253,34.670931 53.9540693,34.9605043 C53.7805339,34.9867975 53.6052665,35 53.4297505,35 L6.57024954,35 C4.63725292,35 3.07024954,33.4329966 3.07024954,31.5 C3.07024954,31.324484 3.08345203,31.1492166 3.10974528,30.9756812 L7.04913922,4.97568117 C7.30838059,3.26468809 8.77912234,2 10.5096435,2 Z"/>
    <path fill="url(#deepin-cloud-print-configurator-j)" fill-rule="nonzero" d="M49.4903565,2 C51.2208777,2 52.6916194,3.26468809 52.9508608,4.97568117 L56.8902547,30.9756812 C57.179828,32.8868649 55.865253,34.670931 53.9540693,34.9605043 C53.7805339,34.9867975 53.6052665,35 53.4297505,35 L6.57024954,35 C4.63725292,35 3.07024954,33.4329966 3.07024954,31.5 C3.07024954,31.324484 3.08345203,31.1492166 3.10974528,30.9756812 L7.04913922,4.97568117 C7.30838059,3.26468809 8.77912234,2 10.5096435,2 L49.4903565,2 Z M49.4903565,3 L10.5096435,3 C9.3297427,3 8.31891322,3.82309245 8.06840545,4.96086225 L8.03785472,5.12548655 L4.09846078,31.1254866 C4.07967989,31.2494404 4.07024954,31.3746314 4.07024954,31.5 C4.07024954,32.8254834 5.10178548,33.9100387 6.40587385,33.9946823 L6.57024954,34 L53.4297505,34 C53.555119,34 53.68031,33.9905696 53.8042639,33.9717888 C55.1147899,33.7732242 56.0325769,32.5908564 55.9209059,31.288804 L55.9015392,31.1254866 L51.9621453,5.12548655 C51.7853898,3.95890036 50.8201578,3.08278126 49.6576998,3.00554437 L49.4903565,3 Z"/>
    <circle cx="48.5" cy="7.5" r="1.5" fill="url(#deepin-cloud-print-configurator-k)"/>
    <path fill="url(#deepin-cloud-print-configurator-l)" fill-rule="nonzero" d="M48.5,5 C47.1192881,5 46,6.11928813 46,7.5 C46,8.88071187 47.1192881,10 48.5,10 C49.8807119,10 51,8.88071187 51,7.5 C51,6.11928813 49.8807119,5 48.5,5 Z M48.5,6 C49.3284271,6 50,6.67157288 50,7.5 C50,8.32842712 49.3284271,9 48.5,9 C47.6715729,9 47,8.32842712 47,7.5 C47,6.67157288 47.6715729,6 48.5,6 Z"/>
    <g fill-rule="nonzero">
      <use fill="url(#deepin-cloud-print-configurator-m)" xlink:href="#deepin-cloud-print-configurator-n"/>
      <use fill="#000" filter="url(#deepin-cloud-print-configurator-o)" xlink:href="#deepin-cloud-print-configurator-n"/>
    </g>
    <path fill="url(#deepin-cloud-print-configurator-p)" fill-rule="nonzero" d="M25.7813406,7.0038233 C21.3303633,7.13351636 17.6985752,10.5475084 17.2469567,14.9126456 L17.236,15.026 L17.1182853,15.0814447 C14.6361556,16.2950082 13,18.8233365 13,21.6645917 C13,25.6919659 16.2537502,28.963051 20.2867059,28.9999581 L39.6657898,28.9962946 C43.7595565,28.8733405 47,25.5542932 47,21.4896991 L46.9953928,21.225467 C46.8912259,18.2418074 45.0296339,15.6420512 42.3226129,14.5366434 L42.118,14.457 L42.0468956,14.2495628 C40.9111504,11.1047913 37.9068139,8.93196976 34.4642622,8.93196976 L34.108204,8.93974756 C33.5166433,8.96563226 32.9349109,9.05591903 32.3702187,9.20751113 L32.006,9.314 L31.8008703,9.13231924 C30.2156806,7.77140422 28.1912464,7 26.0440899,7 L25.7813406,7.0038233 Z M26.0440899,8 C28.2978569,8 30.3247199,8.95227509 31.7559601,10.4699867 C32.5908502,10.124648 33.504284,9.93196976 34.4642622,9.93196976 C37.7638236,9.93196976 40.5273972,12.1907514 41.3062886,15.2395139 C44.0182268,16.0324589 46,18.528383 46,21.4896991 C46,24.9431517 43.305045,27.7624971 39.8989135,27.9851599 L39.6655985,27.9962947 L20.2958569,28 C16.8137542,27.968134 14,25.145398 14,21.6645917 C14,18.919668 15.7526874,16.5890025 18.2006318,15.7078702 C18.2668121,11.4407885 21.7503693,8 26.0440899,8 Z"/>
    <polygon fill="url(#deepin-cloud-print-configurator-q)" fill-rule="nonzero" points="7.5 40 52.5 40 54 53 6 53"/>
    <path fill="url(#deepin-cloud-print-configurator-r)" fill-rule="nonzero" d="M52.5,39 L7.5,39 C6.99206201,39 6.564813,39.3807857 6.50659106,39.8853759 L5.00659106,52.8853759 C4.93808028,53.479136 5.40230041,54 6,54 L54,54 C54.5976996,54 55.0619197,53.479136 54.9934089,52.8853759 L53.4934089,39.8853759 C53.435187,39.3807857 53.007938,39 52.5,39 Z M52.5,40 L54,53 L6,53 L7.5,40 L52.5,40 Z"/>
    <path fill="url(#deepin-cloud-print-configurator-s)" d="M22.5,49 C22.7761424,49 23,49.2238576 23,49.5 C23,49.7761424 22.7761424,50 22.5,50 L13.5,50 C13.2238576,50 13,49.7761424 13,49.5 C13,49.2238576 13.2238576,49 13.5,49 L22.5,49 Z M38.5,49 C38.7761424,49 39,49.2238576 39,49.5 C39,49.7761424 38.7761424,50 38.5,50 L25.5,50 C25.2238576,50 25,49.7761424 25,49.5 C25,49.2238576 25.2238576,49 25.5,49 L38.5,49 Z M46.5,49 C46.7761424,49 47,49.2238576 47,49.5 C47,49.7761424 46.7761424,50 46.5,50 L40.5,50 C40.2238576,50 40,49.7761424 40,49.5 C40,49.2238576 40.2238576,49 40.5,49 L46.5,49 Z M30.5,46 C30.7761424,46 31,46.2238576 31,46.5 C31,46.7761424 30.7761424,47 30.5,47 L13.9971924,47 C13.72105,47 13.4971924,46.7761424 13.4971924,46.5 C13.4971924,46.2238576 13.72105,46 13.9971924,46 L30.5,46 Z M46.0491943,46 C46.3253367,46 46.5491943,46.2238576 46.5491943,46.5 C46.5491943,46.7761424 46.3253367,47 46.0491943,47 L32.5,47 C32.2238576,47 32,46.7761424 32,46.5 C32,46.2238576 32.2238576,46 32.5,46 L46.0491943,46 Z M45.5,43 C45.7761424,43 46,43.2238576 46,43.5 C46,43.7761424 45.7761424,44 45.5,44 L14.5,44 C14.2238576,44 14,43.7761424 14,43.5 C14,43.2238576 14.2238576,43 14.5,43 L45.5,43 Z"/>
  </g>
</svg>
