<svg xmlns="http://www.w3.org/2000/svg" xmlns:xlink="http://www.w3.org/1999/xlink" width="64" height="64" viewBox="0 0 64 64">
  <defs>
    <filter id="gedit-a" width="128.6%" height="129.1%" x="-14.3%" y="-14.5%" filterUnits="objectBoundingBox">
      <feOffset dy="1" in="SourceAlpha" result="shadowOffsetOuter1"/>
      <feGaussianBlur in="shadowOffsetOuter1" result="shadowBlurOuter1" stdDeviation="1.5"/>
      <feColorMatrix in="shadowBlurOuter1" result="shadowMatrixOuter1" values="0 0 0 0 0   0 0 0 0 0   0 0 0 0 0  0 0 0 0.2 0"/>
      <feMerge>
        <feMergeNode in="shadowMatrixOuter1"/>
        <feMergeNode in="SourceGraphic"/>
      </feMerge>
    </filter>
    <linearGradient id="gedit-b" x1="50%" x2="50%" y1="101.163%" y2="5.912%">
      <stop offset="0%" stop-color="#DEDEDE"/>
      <stop offset="100%" stop-color="#FAFAFA"/>
    </linearGradient>
    <path id="gedit-c" d="M48.5,1 C49.6045695,1 50.5,1.8954305 50.5,3 L50.5,51 C50.5,52.1045695 49.6045695,53 48.5,53 L3.5,53 C2.3954305,53 1.5,52.1045695 1.5,51 L1.5,43.001 L2.76818814,43.0010775 C3.08753816,43.5523456 3.66255151,43.9370409 4.33102768,43.9929628 L4.5,44 C5.6045695,44 6.5,43.1045695 6.5,42 C6.5,40.8954305 5.6045695,40 4.5,40 C3.75974756,40 3.11342606,40.4021661 2.76760632,40.9999275 L2.76760632,40.9999275 L1.5,40.999 L1.5,33.001 L2.76818814,33.0010775 C3.08753816,33.5523456 3.66255151,33.9370409 4.33102768,33.9929628 L4.5,34 C5.6045695,34 6.5,33.1045695 6.5,32 C6.5,30.8954305 5.6045695,30 4.5,30 C3.75974756,30 3.11342606,30.4021661 2.76760632,30.9999275 L2.76760632,30.9999275 L1.5,30.999 L1.5,23.001 L2.76818814,23.0010775 C3.08753816,23.5523456 3.66255151,23.9370409 4.33102768,23.9929628 L4.5,24 C5.6045695,24 6.5,23.1045695 6.5,22 C6.5,20.8954305 5.6045695,20 4.5,20 C3.75974756,20 3.11342606,20.4021661 2.76760632,20.9999275 L2.76760632,20.9999275 L1.5,20.999 L1.5,13.001 L2.76818814,13.0010775 C3.08753816,13.5523456 3.66255151,13.9370409 4.33102768,13.9929628 L4.5,14 C5.6045695,14 6.5,13.1045695 6.5,12 C6.5,10.8954305 5.6045695,10 4.5,10 C3.75974756,10 3.11342606,10.4021661 2.76760632,10.9999275 L2.76760632,10.9999275 L1.5,10.999 L1.5,3 C1.5,1.8954305 2.3954305,1 3.5,1 L48.5,1 Z"/>
    <filter id="gedit-d" width="102%" height="101.9%" x="-1%" y="-1%" filterUnits="objectBoundingBox">
      <feOffset dy="1" in="SourceAlpha" result="shadowOffsetInner1"/>
      <feComposite in="shadowOffsetInner1" in2="SourceAlpha" k2="-1" k3="1" operator="arithmetic" result="shadowInnerInner1"/>
      <feColorMatrix in="shadowInnerInner1" values="0 0 0 0 1   0 0 0 0 1   0 0 0 0 1  0 0 0 1 0"/>
    </filter>
    <linearGradient id="gedit-e" x1="41.429%" x2="41.429%" y1="97.112%" y2="-5.598%">
      <stop offset="0%" stop-opacity=".242"/>
      <stop offset="100%" stop-opacity=".164"/>
    </linearGradient>
    <linearGradient id="gedit-f" x1="74.378%" x2="35.029%" y1="-5.072%" y2="109.552%">
      <stop offset="0%" stop-opacity="0"/>
      <stop offset="100%"/>
    </linearGradient>
    <linearGradient id="gedit-g" x1="50.267%" x2="87.979%" y1="25.864%" y2="56.605%">
      <stop offset="0%" stop-color="#EFC9C9"/>
      <stop offset="100%" stop-color="#CB6F61"/>
    </linearGradient>
    <path id="gedit-h" d="M2.98064491,1.31239953 C3.62180776,1.18507995 4.2629706,1.12142016 4.90413345,1.12142016 C5.5452978,1.12142016 6.18646215,1.18508025 6.8276265,1.31240042 C7.52970758,1.45182323 8.03546048,2.06788195 8.03546048,2.78367282 L8.03546048,8 L8.03546048,8 C6.9916848,7.79190902 5.94790913,7.68786352 4.90413345,7.68786352 C3.86035777,7.68786352 2.8165821,7.79190902 1.77280642,8 L1.77280642,2.78368228 C1.772796,2.06788337 2.27855474,1.45181782 2.98064491,1.31239953 Z"/>
    <filter id="gedit-i" width="116%" height="114.5%" x="-8%" y="-7.3%" filterUnits="objectBoundingBox">
      <feOffset dy="1" in="SourceAlpha" result="shadowOffsetInner1"/>
      <feComposite in="shadowOffsetInner1" in2="SourceAlpha" k2="-1" k3="1" operator="arithmetic" result="shadowInnerInner1"/>
      <feColorMatrix in="shadowInnerInner1" values="0 0 0 0 1   0 0 0 0 1   0 0 0 0 1  0 0 0 0.5 0"/>
    </filter>
    <linearGradient id="gedit-j" x1="54.816%" x2="92.853%" y1="20.133%" y2="49.832%">
      <stop offset="0%" stop-color="#D7A5A5"/>
      <stop offset="100%" stop-color="#A75549"/>
    </linearGradient>
    <linearGradient id="gedit-k" x1="50%" x2="50%" y1="6.394%" y2="100%">
      <stop offset="0%" stop-color="#D5A643"/>
      <stop offset="100%" stop-color="#CFA753"/>
    </linearGradient>
    <linearGradient id="gedit-l" x1="50%" x2="50%" y1="0%" y2="100%">
      <stop offset="0%" stop-color="#CC8C05"/>
      <stop offset="100%" stop-color="#C8A750"/>
    </linearGradient>
    <linearGradient id="gedit-m" x1="50.468%" x2="49.532%" y1="125.247%" y2="-46.865%">
      <stop offset="0%" stop-color="#ECCE5D"/>
      <stop offset="100%" stop-color="#DDB439"/>
    </linearGradient>
    <linearGradient id="gedit-n" x1="50%" x2="50%" y1="0%" y2="111.103%">
      <stop offset="0%" stop-color="#767676"/>
      <stop offset="100%" stop-color="#393939"/>
    </linearGradient>
    <linearGradient id="gedit-o" x1="88.231%" x2="3.279%" y1="12.843%" y2="95.408%">
      <stop offset="0%" stop-color="#767676"/>
      <stop offset="100%" stop-color="#393939"/>
    </linearGradient>
    <linearGradient id="gedit-p" x1="94.393%" x2="7.811%" y1="2.731%" y2="94.922%">
      <stop offset="0%" stop-color="#979797"/>
      <stop offset="100%" stop-color="#3E4349"/>
    </linearGradient>
    <linearGradient id="gedit-q" x1="50%" x2="50%" y1="0%" y2="100%">
      <stop offset="0%" stop-color="#656565"/>
      <stop offset="100%" stop-color="#353535"/>
    </linearGradient>
    <linearGradient id="gedit-r" x1="50%" x2="50%" y1="0%" y2="100%">
      <stop offset="0%" stop-color="#656565"/>
      <stop offset="100%" stop-color="#353535"/>
    </linearGradient>
    <linearGradient id="gedit-s" x1="50%" x2="50%" y1="0%" y2="100%">
      <stop offset="0%" stop-color="#626262"/>
      <stop offset="100%" stop-color="#343434"/>
    </linearGradient>
    <linearGradient id="gedit-t" x1="52.63%" x2="76.327%" y1="28.207%" y2="55.823%">
      <stop offset="0%" stop-color="#F9ECC9"/>
      <stop offset="100%" stop-color="#E8C976"/>
    </linearGradient>
    <linearGradient id="gedit-u" x1="80.692%" x2="56.972%" y1="48.734%" y2="22.144%">
      <stop offset="0%" stop-color="#C8A750"/>
      <stop offset="100%" stop-color="#E5D097"/>
    </linearGradient>
  </defs>
  <g fill="none" fill-rule="evenodd" filter="url(#gedit-a)" transform="translate(6.5 5)">
    <path fill="#FFF" d="M39,37.8800339 C39,39.3216879 38.7020325,40.4718137 38.1060886,41.3304458 C37.5101446,42.189078 36.5953321,42.7455905 35.3616236,43 L35.3616236,41.4417494 C35.8634711,41.1661391 36.1666661,40.7527298 36.2712177,40.2015092 L35.3616236,40.2015092 L35.3616236,35.9401709 L39,35.9401709 L39,37.8800339 Z M34.1383764,35.9401709 L34.1383764,37.8800339 C34.1383764,39.3216879 33.8404089,40.4718137 33.2444649,41.3304458 C32.648521,42.189078 31.7337085,42.7455905 30.5,43 L30.5,41.4417494 C30.8136547,41.2721431 31.0332097,41.1025393 31.1586716,40.9329329 C31.2841335,40.7633266 31.3677735,40.5195211 31.4095941,40.2015092 L30.5,40.2015092 L30.5,35.9401709 L34.1383764,35.9401709 Z M18.8632812,13.5 L18.8632812,22.078559 L17.0224609,22.078559 C17.2340505,23.1882289 17.8476512,24.0204689 18.8632812,24.5753038 L18.8632812,24.5753038 L18.8632812,27.7122396 C16.366524,27.2000842 14.5151427,26.0797612 13.309082,24.351237 C12.1030213,22.6227127 11.5,20.3073785 11.5,17.4051649 L11.5,17.4051649 L11.5,13.5 L18.8632812,13.5 Z M28.7021484,13.5 L28.7021484,22.078559 L26.8613281,22.078559 C26.945964,22.7187532 27.1152331,23.2095614 27.3691406,23.5509983 C27.6230481,23.8924352 28.0673796,24.2338669 28.7021484,24.5753038 L28.7021484,24.5753038 L28.7021484,27.7122396 C26.2053912,27.2000842 24.3540099,26.0797612 23.1479492,24.351237 C21.9418885,22.6227127 21.3388672,20.3073785 21.3388672,17.4051649 L21.3388672,17.4051649 L21.3388672,13.5 L28.7021484,13.5 Z"/>
    <g fill-rule="nonzero">
      <use fill="url(#gedit-b)" xlink:href="#gedit-c"/>
      <use fill="#000" filter="url(#gedit-d)" xlink:href="#gedit-c"/>
    </g>
    <path fill="url(#gedit-e)" fill-rule="nonzero" d="M48.5,0 L3.5,0 C1.84314575,0 0.5,1.34314575 0.5,3 L0.5,10.999 C0.5,11.550999 0.947269418,11.9985958 1.49926829,11.9989997 L2.76687461,11.9999273 C3.10991878,12.0001783 3.42914917,11.8245732 3.61260072,11.5347027 L3.6976456,11.4003239 C3.86207555,11.1633958 4.16644196,11 4.5,11 C5.05228475,11 5.5,11.4477153 5.5,12 C5.5,12.5522847 5.05228475,13 4.5,13 L4.37263853,12.9938289 C4.1232134,12.9721947 3.86949958,12.8261979 3.70047597,12.6010288 L3.63348181,12.4998122 C3.45466965,12.1911433 3.12497088,12.0010993 2.76824925,12.0010775 L1.50006111,12.001 C0.947752497,12.0009662 0.5,12.4486914 0.5,13.001 L0.5,20.999 C0.5,21.550999 0.947269418,21.9985958 1.49926829,21.9989997 L2.76687461,21.9999273 C3.10991878,22.0001783 3.42914917,21.8245732 3.61260072,21.5347027 L3.6976456,21.4003239 C3.86207555,21.1633958 4.16644196,21 4.5,21 C5.05228475,21 5.5,21.4477153 5.5,22 C5.5,22.5522847 5.05228475,23 4.5,23 L4.37263853,22.9938289 C4.1232134,22.9721947 3.86949958,22.8261979 3.70047597,22.6010288 L3.63348181,22.4998122 C3.45466965,22.1911433 3.12497088,22.0010993 2.76824925,22.0010775 L1.50006111,22.001 C0.947752497,22.0009662 0.5,22.4486914 0.5,23.001 L0.5,30.999 C0.5,31.550999 0.947269418,31.9985958 1.49926829,31.9989997 L2.76687461,31.9999273 C3.10991878,32.0001783 3.42914917,31.8245732 3.61260072,31.5347027 L3.6976456,31.4003239 C3.86207555,31.1633958 4.16644196,31 4.5,31 C5.05228475,31 5.5,31.4477153 5.5,32 C5.5,32.5522847 5.05228475,33 4.5,33 L4.37263853,32.9938289 C4.1232134,32.9721947 3.86949958,32.8261979 3.70047597,32.6010288 L3.63348181,32.4998122 C3.45466965,32.1911433 3.12497088,32.0010993 2.76824925,32.0010775 L1.50006111,32.001 C0.947752497,32.0009662 0.5,32.4486914 0.5,33.001 L0.5,40.999 C0.5,41.550999 0.947269418,41.9985958 1.49926829,41.9989997 L2.76687461,41.9999273 C3.10991878,42.0001783 3.42914917,41.8245732 3.61260072,41.5347027 L3.6976456,41.4003239 C3.86207555,41.1633958 4.16644196,41 4.5,41 C5.05228475,41 5.5,41.4477153 5.5,42 C5.5,42.5522847 5.05228475,43 4.5,43 L4.37263853,42.9938289 C4.1232134,42.9721947 3.86949958,42.8261979 3.70047597,42.6010288 L3.63348181,42.4998122 C3.45466965,42.1911433 3.12497088,42.0010993 2.76824925,42.0010775 L1.50006111,42.001 C0.947752497,42.0009662 0.5,42.4486914 0.5,43.001 L0.5,51 C0.5,52.6568542 1.84314575,54 3.5,54 L48.5,54 C50.1568542,54 51.5,52.6568542 51.5,51 L51.5,3 C51.5,1.34314575 50.1568542,0 48.5,0 Z M48.5,1 C49.6045695,1 50.5,1.8954305 50.5,3 L50.5,51 C50.5,52.1045695 49.6045695,53 48.5,53 L3.5,53 C2.3954305,53 1.5,52.1045695 1.5,51 L1.5,43.001 L2.76818814,43.0010775 C3.08753816,43.5523456 3.66255151,43.9370409 4.33102768,43.9929628 L4.5,44 C5.6045695,44 6.5,43.1045695 6.5,42 C6.5,40.8954305 5.6045695,40 4.5,40 C3.81669006,40 3.21341594,40.3426741 2.8526512,40.8655487 L2.76760632,40.9999275 L1.5,40.999 L1.5,33.001 L2.76818814,33.0010775 C3.08753816,33.5523456 3.66255151,33.9370409 4.33102768,33.9929628 L4.5,34 C5.6045695,34 6.5,33.1045695 6.5,32 C6.5,30.8954305 5.6045695,30 4.5,30 C3.81669006,30 3.21341594,30.3426741 2.8526512,30.8655487 L2.76760632,30.9999275 L1.5,30.999 L1.5,23.001 L2.76818814,23.0010775 C3.08753816,23.5523456 3.66255151,23.9370409 4.33102768,23.9929628 L4.5,24 C5.6045695,24 6.5,23.1045695 6.5,22 C6.5,20.8954305 5.6045695,20 4.5,20 C3.81669006,20 3.21341594,20.3426741 2.8526512,20.8655487 L2.76760632,20.9999275 L1.5,20.999 L1.5,13.001 L2.76818814,13.0010775 C3.08753816,13.5523456 3.66255151,13.9370409 4.33102768,13.9929628 L4.5,14 C5.6045695,14 6.5,13.1045695 6.5,12 C6.5,10.8954305 5.6045695,10 4.5,10 C3.81669006,10 3.21341594,10.3426741 2.8526512,10.8655487 L2.76760632,10.9999275 L1.5,10.999 L1.5,3 C1.5,1.8954305 2.3954305,1 3.5,1 L48.5,1 Z"/>
    <path fill="#BCC7C1" fill-opacity=".5" d="M46.5,44 L46.5,45 L8.5,45 L8.5,44 L46.5,44 Z M46.5,39 L46.5,40 L8.5,40 L8.5,39 L46.5,39 Z M46.5,34 L46.5,35 L8.5,35 L8.5,34 L46.5,34 Z M46.5,29 L46.5,30 L8.5,30 L8.5,29 L46.5,29 Z M46.5,24 L46.5,25 L8.5,25 L8.5,24 L46.5,24 Z M46.5,19 L46.5,20 L8.5,20 L8.5,19 L46.5,19 Z M46.5,14 L46.5,15 L8.5,15 L8.5,14 L46.5,14 Z M46.5,9 L46.5,10 L8.5,10 L8.5,9 L46.5,9 Z"/>
    <polygon fill="#C00000" fill-opacity=".169" points="11.5 1 12.5 1 12.5 53 11.5 53"/>
    <path fill="url(#gedit-f)" fill-rule="nonzero" d="M45.6577786,16.3939587 C45.6577786,16.3710965 47.2718524,16.779676 50.5,17.6196972 C50.5,23.6190006 50.5,26.6186523 50.5,26.6186523 L28.8115234,45.0050344 L17.8728943,49.6011353 L45.6577786,16.3939587 Z" opacity=".25"/>
    <g transform="rotate(42 10.783 65.873)">
      <g fill-rule="nonzero">
        <use fill="url(#gedit-g)" xlink:href="#gedit-h"/>
        <use fill="#000" filter="url(#gedit-i)" xlink:href="#gedit-h"/>
      </g>
      <path fill="url(#gedit-j)" fill-rule="nonzero" d="M4.90413345,0.121420157 C4.19725478,0.121420157 3.49086745,0.191555957 2.78587193,0.331551179 C1.61571945,0.563915429 0.77280642,1.59069658 0.77280642,2.78369684 L0.77280642,8 C0.77280642,8.63079679 1.34969978,9.10403141 1.9683225,8.9807005 C2.94803045,8.78538229 3.92633056,8.68786352 4.90413345,8.68786352 C5.88193633,8.68786352 6.86023645,8.78538229 7.8399444,8.9807005 C8.45856712,9.10403141 9.03546048,8.63079679 9.03546048,8 L9.03546048,2.78367282 C9.03546048,1.59068929 8.19254197,0.563924879 7.02240798,0.331553763 C6.31740275,0.191556286 5.61101377,0.121420157 4.90413345,0.121420157 Z M4.90413345,1.12142016 C5.5452978,1.12142016 6.18646215,1.18508025 6.8276265,1.31240042 C7.52970758,1.45182323 8.03546048,2.06788195 8.03546048,2.78367282 L8.03546048,8 C6.9916848,7.79190902 5.94790913,7.68786352 4.90413345,7.68786352 C3.86035777,7.68786352 2.8165821,7.79190902 1.77280642,8 L1.77280642,2.78368228 C1.77280642,2.06788337 2.27855474,1.45181782 2.98064491,1.31239953 C3.62180776,1.18507995 4.2629706,1.12142016 4.90413345,1.12142016 Z"/>
      <rect width="8" height="31.5" x="1" y="7" fill="url(#gedit-k)" fill-rule="nonzero"/>
      <path fill="url(#gedit-l)" fill-rule="nonzero" d="M9,7 L9,38.5 L1,38.5 L1,7 L9,7 Z M8,8 L2,8 L2,37.5 L8,37.5 L8,8 Z"/>
      <path fill="url(#gedit-m)" fill-rule="nonzero" d="M3.5,7.5 L6.5,7.5 L6.5,38.5 L6.078125,38.5 L5.6645813,38.5 C5.36666361,38.5 5.14276377,38.5 4.99288177,38.5 C4.84299978,38.5 4.62097677,38.5 4.32681274,38.5 L3.85412598,38.5 L3.5,38.5 L3.5,7.5 Z"/>
      <polygon fill="url(#gedit-n)" points="1 5.953 3.5 5.758 3.5 8.903 1 9"/>
      <polygon fill="url(#gedit-o)" points="7.914 5.36 9.642 7.177 7.603 9.442 5.81 7.697" transform="rotate(-42 7.726 7.4)"/>
      <polygon fill="url(#gedit-p)" points="4.937 5.158 7.167 7.166 5.063 9.503 2.833 7.495" transform="rotate(-42 5 7.33)"/>
      <path fill="url(#gedit-q)" fill-rule="nonzero" d="M3.46122821,5.25969779 L0.961228207,5.45414224 C0.700909587,5.47438924 0.5,5.6915319 0.5,5.95263672 L0.5,9 C0.5,9.28376299 0.735881097,9.51064923 1.01942976,9.49962234 L3.51942976,9.40240012 C3.78780975,9.39196312 4,9.17136064 4,8.90277778 L4,5.75819227 C4,5.46676861 3.75177439,5.23709976 3.46122821,5.25969779 Z M3,6.298 L3,8.422 L1.5,8.48 L1.5,6.415 L3,6.298 Z"/>
      <path fill="url(#gedit-r)" fill-rule="nonzero" d="M7.54244772,5.02531619 L5.43830931,7.36219864 C5.2585923,7.5617946 5.26866851,7.86771718 5.46113,8.05505465 L7.2539377,9.80013136 C7.45727699,9.99805702 7.78438733,9.98728295 7.97426184,9.77640595 L10.0133459,7.5117737 C10.1880591,7.317735 10.184051,7.0219318 10.0041444,6.83269819 L8.2763911,5.01537129 C8.07559425,4.80416434 7.73744821,4.8087462 7.54244772,5.02531619 Z M7.923,6.096 L8.96,7.186 L7.579,8.721 L6.503,7.674 L7.923,6.096 Z" transform="rotate(-42 7.726 7.4)"/>
      <path fill="url(#gedit-s)" fill-rule="nonzero" d="M4.56577955,4.82378259 L2.46164115,7.16066504 C2.27686583,7.36587881 2.29343448,7.68202744 2.49864826,7.86680275 L4.72808273,9.87419457 C4.93329651,10.0589699 5.24944513,10.0424012 5.43422045,9.83718746 L7.53835885,7.50030502 C7.72313417,7.29509124 7.70656552,6.97894262 7.50135174,6.7941673 L5.27191727,4.78677548 C5.06670349,4.60200017 4.75055487,4.61856881 4.56577955,4.82378259 Z M4.974,5.864 L6.461,7.203 L5.025,8.796 L3.538,7.457 L4.974,5.864 Z" transform="rotate(-42 5 7.33)"/>
      <g fill-rule="nonzero" transform="translate(1.5 37.5)">
        <polygon fill="url(#gedit-t)" points="3.492 .26 6.495 8.3 5.171 9.023 3.814 8.351 1.914 9.08 1.127 8.371 .466 8.516" transform="matrix(1 0 0 -1 0 9.34)"/>
        <path fill="url(#gedit-u)" d="M-0.472521154,8.17235838 L-0.505109125,8.27820868 C-0.681540837,8.98288978 -0.0531903582,9.65448632 0.681154823,9.49304912 L0.839,9.458 L1.24527701,9.82359802 L1.34256638,9.90084237 C1.61241879,10.0890175 1.96079915,10.1338277 2.2728735,10.013996 L3.762,9.441 L4.72765427,9.91904147 C5.01990441,10.0636382 5.36429855,10.0566709 5.65046141,9.90037257 L6.9743524,9.17728094 C7.41093563,8.938825 7.60585884,8.41571689 7.43177564,7.94971131 L4.42829165,-0.0903541256 C4.10341379,-0.960023908 2.87192786,-0.956129889 2.55255632,-0.0844229585 L-0.472521154,8.17235838 Z M3.49152115,0.259590191 L6.49500514,8.29965562 L5.17111415,9.02274724 L3.81371782,8.35114768 L1.91440761,9.08045319 L1.12672127,8.37121722 L0.466443677,8.51637153 L3.49152115,0.259590191 Z" transform="matrix(1 0 0 -1 0 9.34)"/>
        <path fill="#3C3C3C" d="M5.23527697,9.36494704 L2.60815394,11.1335709 C2.51652615,11.1952563 2.39224127,11.1709831 2.33055589,11.0793554 C2.29762607,11.0304412 2.28795935,10.9694885 2.30413902,10.9127859 L3.16289967,7.90321031 L3.16289967,7.90321031 C4.0720322,7.67068972 5.24915239,8.41539269 5.23527697,9.36494704 Z" transform="rotate(-36 3.695 9.65)"/>
      </g>
    </g>
  </g>
</svg>
