<svg xmlns="http://www.w3.org/2000/svg" xmlns:xlink="http://www.w3.org/1999/xlink" width="64" height="64" viewBox="0 0 64 64">
  <defs>
    <filter id="onboard-a" width="128.6%" height="128.6%" x="-14.3%" y="-14.3%" filterUnits="objectBoundingBox">
      <feOffset dy="1" in="SourceAlpha" result="shadowOffsetOuter1"/>
      <feGaussianBlur in="shadowOffsetOuter1" result="shadowBlurOuter1" stdDeviation="1.5"/>
      <feColorMatrix in="shadowBlurOuter1" result="shadowMatrixOuter1" values="0 0 0 0 0   0 0 0 0 0   0 0 0 0 0  0 0 0 0.2 0"/>
      <feMerge>
        <feMergeNode in="shadowMatrixOuter1"/>
        <feMergeNode in="SourceGraphic"/>
      </feMerge>
    </filter>
    <linearGradient id="onboard-b" x1="50%" x2="50%" y1="0%" y2="100%">
      <stop offset="0%" stop-color="#E3E3E3"/>
      <stop offset="100%" stop-color="#8B8B8B"/>
    </linearGradient>
    <rect id="onboard-c" width="54" height="54" x="1" y="1" rx="4"/>
    <filter id="onboard-d" width="101.9%" height="101.9%" x="-.9%" y="-.9%" filterUnits="objectBoundingBox">
      <feOffset dy="1" in="SourceAlpha" result="shadowOffsetInner1"/>
      <feComposite in="shadowOffsetInner1" in2="SourceAlpha" k2="-1" k3="1" operator="arithmetic" result="shadowInnerInner1"/>
      <feColorMatrix in="shadowInnerInner1" result="shadowMatrixInner1" values="0 0 0 0 1   0 0 0 0 1   0 0 0 0 1  0 0 0 0.5 0"/>
      <feOffset dy="-1" in="SourceAlpha" result="shadowOffsetInner2"/>
      <feComposite in="shadowOffsetInner2" in2="SourceAlpha" k2="-1" k3="1" operator="arithmetic" result="shadowInnerInner2"/>
      <feColorMatrix in="shadowInnerInner2" result="shadowMatrixInner2" values="0 0 0 0 0   0 0 0 0 0   0 0 0 0 0  0 0 0 0.185615166 0"/>
      <feMerge>
        <feMergeNode in="shadowMatrixInner1"/>
        <feMergeNode in="shadowMatrixInner2"/>
      </feMerge>
    </filter>
    <linearGradient id="onboard-e" x1="50%" x2="50%" y1="4.556%" y2="100%">
      <stop offset="0%" stop-opacity=".326"/>
      <stop offset="100%" stop-opacity=".661"/>
    </linearGradient>
    <linearGradient id="onboard-h" x1="50%" x2="50%" y1="0%" y2="100%">
      <stop offset="0%" stop-color="#E9E9E9"/>
      <stop offset="100%" stop-color="#E3E3E3"/>
    </linearGradient>
    <path id="onboard-g" d="M16,33 C16.5522847,33 17,33.4477153 17,34 L17,37 C17,37.5522847 16.5522847,38 16,38 L9,38 C8.44771525,38 8,37.5522847 8,37 L8,34 C8,33.4477153 8.44771525,33 9,33 L16,33 Z M40,33 C40.5522847,33 41,33.4477153 41,34 L41,37 C41,37.5522847 40.5522847,38 40,38 L20,38 C19.4477153,38 19,37.5522847 19,37 L19,34 C19,33.4477153 19.4477153,33 20,33 L40,33 Z M47,33 C47.5522847,33 48,33.4477153 48,34 L48,37 C48,37.5522847 47.5522847,38 47,38 L44,38 C43.4477153,38 43,37.5522847 43,37 L43,34 C43,33.4477153 43.4477153,33 44,33 L47,33 Z M22,25 C22.5522847,25 23,25.4477153 23,26 L23,29 C23,29.5522847 22.5522847,30 22,30 L9,30 C8.44771525,30 8,29.5522847 8,29 L8,26 C8,25.4477153 8.44771525,25 9,25 L22,25 Z M47,25 C47.5522847,25 48,25.4477153 48,26 L48,29 C48,29.5522847 47.5522847,30 47,30 L40,30 C39.4477153,30 39,29.5522847 39,29 L39,26 C39,25.4477153 39.4477153,25 40,25 L47,25 Z M36,25 C36.5522847,25 37,25.4477153 37,26 L37,29 C37,29.5522847 36.5522847,30 36,30 L33,30 C32.4477153,30 32,29.5522847 32,29 L32,26 C32,25.4477153 32.4477153,25 33,25 L36,25 Z M29,25 C29.5522847,25 30,25.4477153 30,26 L30,29 C30,29.5522847 29.5522847,30 29,30 L26,30 C25.4477153,30 25,29.5522847 25,29 L25,26 C25,25.4477153 25.4477153,25 26,25 L29,25 Z M19,17 C19.5522847,17 20,17.4477153 20,18 L20,21 C20,21.5522847 19.5522847,22 19,22 L9,22 C8.44771525,22 8,21.5522847 8,21 L8,18 C8,17.4477153 8.44771525,17 9,17 L19,17 Z M26,17 C26.5522847,17 27,17.4477153 27,18 L27,21 C27,21.5522847 26.5522847,22 26,22 L23,22 C22.4477153,22 22,21.5522847 22,21 L22,18 C22,17.4477153 22.4477153,17 23,17 L26,17 Z M33,17 C33.5522847,17 34,17.4477153 34,18 L34,21 C34,21.5522847 33.5522847,22 33,22 L30,22 C29.4477153,22 29,21.5522847 29,21 L29,18 C29,17.4477153 29.4477153,17 30,17 L33,17 Z M40,17 C40.5522847,17 41,17.4477153 41,18 L41,21 C41,21.5522847 40.5522847,22 40,22 L37,22 C36.4477153,22 36,21.5522847 36,21 L36,18 C36,17.4477153 36.4477153,17 37,17 L40,17 Z M47,17 C47.5522847,17 48,17.4477153 48,18 L48,21 C48,21.5522847 47.5522847,22 47,22 L44,22 C43.4477153,22 43,21.5522847 43,21 L43,18 C43,17.4477153 43.4477153,17 44,17 L47,17 Z"/>
    <filter id="onboard-f" width="102.5%" height="109.5%" x="-1.2%" y="-2.4%" filterUnits="objectBoundingBox">
      <feOffset dy="1" in="SourceAlpha" result="shadowOffsetOuter1"/>
      <feColorMatrix in="shadowOffsetOuter1" values="0 0 0 0 0   0 0 0 0 0   0 0 0 0 0  0 0 0 0.204408872 0"/>
    </filter>
    <filter id="onboard-i" width="102.5%" height="109.5%" x="-1.2%" y="-2.4%" filterUnits="objectBoundingBox">
      <feOffset dy="1" in="SourceAlpha" result="shadowOffsetInner1"/>
      <feComposite in="shadowOffsetInner1" in2="SourceAlpha" k2="-1" k3="1" operator="arithmetic" result="shadowInnerInner1"/>
      <feColorMatrix in="shadowInnerInner1" values="0 0 0 0 1   0 0 0 0 1   0 0 0 0 1  0 0 0 0.5 0"/>
    </filter>
  </defs>
  <g fill="none" fill-rule="evenodd" filter="url(#onboard-a)" transform="translate(4 4)">
    <use fill="url(#onboard-b)" xlink:href="#onboard-c"/>
    <use fill="#000" filter="url(#onboard-d)" xlink:href="#onboard-c"/>
    <path fill="url(#onboard-e)" fill-rule="nonzero" d="M51,0 L5,0 C2.23857625,0 0,2.23857625 0,5 L0,51 C0,53.7614237 2.23857625,56 5,56 L51,56 C53.7614237,56 56,53.7614237 56,51 L56,5 C56,2.23857625 53.7614237,0 51,0 Z M51,1 C53.209139,1 55,2.790861 55,5 L55,51 C55,53.209139 53.209139,55 51,55 L5,55 C2.790861,55 1,53.209139 1,51 L1,5 C1,2.790861 2.790861,1 5,1 L51,1 Z"/>
    <use fill="#000" filter="url(#onboard-f)" xlink:href="#onboard-g"/>
    <use fill="url(#onboard-h)" xlink:href="#onboard-g"/>
    <use fill="#000" filter="url(#onboard-i)" xlink:href="#onboard-g"/>
  </g>
</svg>
