<svg xmlns="http://www.w3.org/2000/svg" xmlns:xlink="http://www.w3.org/1999/xlink" width="64" height="64" viewBox="0 0 64 64">
  <defs>
    <filter id="steam-a" width="131.7%" height="126.7%" x="-18.3%" y="-13.3%" filterUnits="objectBoundingBox">
      <feOffset dy="1" in="SourceAlpha" result="shadowOffsetOuter1"/>
      <feGaussianBlur in="shadowOffsetOuter1" result="shadowBlurOuter1" stdDeviation="1.5"/>
      <feColorMatrix in="shadowBlurOuter1" result="shadowMatrixOuter1" values="0 0 0 0 0   0 0 0 0 0   0 0 0 0 0  0 0 0 0.2 0"/>
      <feMerge>
        <feMergeNode in="shadowMatrixOuter1"/>
        <feMergeNode in="SourceGraphic"/>
      </feMerge>
    </filter>
    <linearGradient id="steam-b" x1="50%" x2="50%" y1="3.335%" y2="103.173%">
      <stop offset="0%" stop-color="#EBEBE8"/>
      <stop offset="100%" stop-color="#706D69"/>
    </linearGradient>
    <circle id="steam-c" cx="30" cy="30" r="29"/>
    <filter id="steam-d" width="101.7%" height="101.7%" x="-.9%" y="-.9%" filterUnits="objectBoundingBox">
      <feOffset dy="1" in="SourceAlpha" result="shadowOffsetInner1"/>
      <feComposite in="shadowOffsetInner1" in2="SourceAlpha" k2="-1" k3="1" operator="arithmetic" result="shadowInnerInner1"/>
      <feColorMatrix in="shadowInnerInner1" values="0 0 0 0 1   0 0 0 0 1   0 0 0 0 1  0 0 0 0.90196132 0"/>
    </filter>
    <linearGradient id="steam-e" x1="50%" x2="50%" y1="0%" y2="100%">
      <stop offset="0%" stop-opacity=".2"/>
      <stop offset="100%" stop-opacity=".702"/>
    </linearGradient>
    <radialGradient id="steam-f" cx="50%" cy="45.605%" r="64.45%" fx="50%" fy="45.605%">
      <stop offset="0%" stop-color="#A6A6A6"/>
      <stop offset="100%" stop-color="#222525"/>
    </radialGradient>
    <linearGradient id="steam-g" x1="50%" x2="50%" y1="0%" y2="109.005%">
      <stop offset="0%" stop-opacity=".196"/>
      <stop offset="100%" stop-opacity=".699"/>
    </linearGradient>
    <filter id="steam-h" width="134%" height="144.4%" x="-17%" y="-22.2%" filterUnits="objectBoundingBox">
      <feOffset dy="1" in="SourceAlpha" result="shadowOffsetOuter1"/>
      <feGaussianBlur in="shadowOffsetOuter1" result="shadowBlurOuter1" stdDeviation="1.5"/>
      <feColorMatrix in="shadowBlurOuter1" result="shadowMatrixOuter1" values="0 0 0 0 0   0 0 0 0 0   0 0 0 0 0  0 0 0 0.2 0"/>
      <feMerge>
        <feMergeNode in="shadowMatrixOuter1"/>
        <feMergeNode in="SourceGraphic"/>
      </feMerge>
    </filter>
    <radialGradient id="steam-i" cx="91.834%" cy="19.692%" r="93.624%" fx="91.834%" fy="19.692%" gradientTransform="matrix(0 1 -.97059 0 1.11 -.721)">
      <stop offset="0%" stop-color="#EBEBE8"/>
      <stop offset="100%" stop-color="#919195"/>
    </radialGradient>
    <path id="steam-j" d="M35.7756,1.3508 C41.2984475,1.3508 45.7756,5.8279525 45.7756,11.3508 C45.7756,16.8736475 41.2984475,21.3508 35.7756,21.3508 C35.2487529,21.3508 34.7314216,21.3100577 34.226585,21.2315521 L25.7692557,27.0500508 C25.7734711,27.1497749 25.7756,27.2500388 25.7756,27.3508 C25.7756,31.2167932 22.6415932,34.3508 18.7756,34.3508 C14.9096068,34.3508 11.7756,31.2167932 11.7756,27.3508 C11.7756,23.4848068 14.9096068,20.3508 18.7756,20.3508 C18.9622789,20.3508 19.147251,20.3581075 19.3302459,20.372452 L25.7872074,10.8647054 C26.0407395,5.56762204 30.415724,1.3508 35.7756,1.3508 Z M18.7756,22.3508 C16.0141763,22.3508 13.7756,24.5893763 13.7756,27.3508 C13.7756,30.1122237 16.0141763,32.3508 18.7756,32.3508 C21.5370237,32.3508 23.7756,30.1122237 23.7756,27.3508 C23.7756,24.5893763 21.5370237,22.3508 18.7756,22.3508 Z M35.7756,4.3508 C31.9096068,4.3508 28.7756,7.48480675 28.7756,11.3508 C28.7756,15.2167932 31.9096068,18.3508 35.7756,18.3508 C39.6415932,18.3508 42.7756,15.2167932 42.7756,11.3508 C42.7756,7.48480675 39.6415932,4.3508 35.7756,4.3508 Z M35.7756,7.3508 C37.984739,7.3508 39.7756,9.141661 39.7756,11.3508 C39.7756,13.559939 37.984739,15.3508 35.7756,15.3508 C33.566461,15.3508 31.7756,13.559939 31.7756,11.3508 C31.7756,9.141661 33.566461,7.3508 35.7756,7.3508 Z"/>
    <filter id="steam-k" width="102.9%" height="103%" x="-1.5%" y="-1.5%" filterUnits="objectBoundingBox">
      <feOffset dy="1" in="SourceAlpha" result="shadowOffsetInner1"/>
      <feComposite in="shadowOffsetInner1" in2="SourceAlpha" k2="-1" k3="1" operator="arithmetic" result="shadowInnerInner1"/>
      <feColorMatrix in="shadowInnerInner1" values="0 0 0 0 1   0 0 0 0 1   0 0 0 0 1  0 0 0 0.501092657 0"/>
    </filter>
    <linearGradient id="steam-l" x1="50%" x2="50%" y1="0%" y2="100%">
      <stop offset="0%" stop-opacity=".203"/>
      <stop offset="100%" stop-opacity=".198"/>
    </linearGradient>
    <linearGradient id="steam-m" x1="50%" x2="50%" y1="0%" y2="100%">
      <stop offset="0%" stop-opacity=".203"/>
      <stop offset="100%" stop-opacity=".198"/>
    </linearGradient>
    <linearGradient id="steam-n" x1=".284%" x2=".284%" y1="0%" y2="110.732%">
      <stop offset="0%" stop-color="#8C8C91"/>
      <stop offset="100%" stop-color="#F3F3F3"/>
    </linearGradient>
    <path id="steam-o" d="M1.8157134,15.9225682 L19.6978344,24.49522 C20.9034694,24.8842989 21.7756,26.0157009 21.7756,27.3508 C21.7756,29.0076542 20.4324542,30.3508 18.7756,30.3508 C18.213453,30.3508 17.6874185,30.1961841 17.2377031,29.9271587 L2.90017226,24.7870339 C2.16932303,22.4379794 1.7756,19.9403692 1.7756,17.3508 C1.7756,16.8714521 1.78909079,16.3952552 1.8157134,15.9225682 Z"/>
    <filter id="steam-p" width="105%" height="106.9%" x="-2.5%" y="-3.5%" filterUnits="objectBoundingBox">
      <feOffset dy="1" in="SourceAlpha" result="shadowOffsetInner1"/>
      <feComposite in="shadowOffsetInner1" in2="SourceAlpha" k2="-1" k3="1" operator="arithmetic" result="shadowInnerInner1"/>
      <feColorMatrix in="shadowInnerInner1" values="0 0 0 0 1   0 0 0 0 1   0 0 0 0 1  0 0 0 0.5 0"/>
    </filter>
    <linearGradient id="steam-q" x1="50%" x2="50%" y1="0%" y2="100%">
      <stop offset="0%" stop-opacity=".1"/>
      <stop offset="100%" stop-opacity=".403"/>
    </linearGradient>
  </defs>
  <g fill="none" filter="url(#steam-a)" transform="translate(2 2)">
    <use fill="url(#steam-b)" xlink:href="#steam-c"/>
    <use fill="#000" filter="url(#steam-d)" xlink:href="#steam-c"/>
    <path fill="url(#steam-e)" d="M30,0 C13.4314575,0 0,13.4314575 0,30 C0,46.5685425 13.4314575,60 30,60 C46.5685425,60 60,46.5685425 60,30 C60,13.4314575 46.5685425,0 30,0 Z M30,1 C46.0162577,1 59,13.9837423 59,30 C59,46.0162577 46.0162577,59 30,59 C13.9837423,59 1,46.0162577 1,30 C1,13.9837423 13.9837423,1 30,1 Z"/>
    <circle cx="30" cy="30" r="25" fill="url(#steam-f)"/>
    <path fill="url(#steam-g)" d="M30,4 C15.6405965,4 4,15.6405965 4,30 C4,44.3594035 15.6405965,56 30,56 C44.3594035,56 56,44.3594035 56,30 C56,15.6405965 44.3594035,4 30,4 Z M30,5 C43.8071187,5 55,16.1928813 55,30 C55,43.8071187 43.8071187,55 30,55 C16.1928813,55 5,43.8071187 5,30 C5,16.1928813 16.1928813,5 30,5 Z"/>
    <g filter="url(#steam-h)" transform="translate(3.224 12.65)">
      <use fill="url(#steam-i)" xlink:href="#steam-j"/>
      <use fill="#000" filter="url(#steam-k)" xlink:href="#steam-j"/>
      <path fill="url(#steam-l)" d="M35.7756,0.3508 C41.8507322,0.3508 46.7756,5.27566775 46.7756,11.3508 C46.7756,17.4259322 41.8507322,22.3508 35.7756,22.3508 C35.4886472,22.3508 35.2029858,22.3397911 34.9190588,22.3178961 L34.474,22.273 L26.771,27.573 L26.7717932,27.5999793 C26.645257,31.7358079 23.3796116,35.0816391 19.2769867,35.3353434 L19.0247793,35.3469932 L18.7756,35.3508 C14.357322,35.3508 10.7756,31.769078 10.7756,27.3508 C10.7756,23.0158857 14.2234378,19.4862571 18.5264207,19.3546068 L18.814,19.351 L24.806,10.528 C25.2152102,5.01014387 29.6791578,0.654993828 35.1916002,0.366069293 L35.4826807,0.354633011 L35.7756,0.3508 Z M35.7756,1.3508 C30.5097569,1.3508 26.1945509,5.42096126 25.8043398,10.5869259 L25.7872074,10.8647054 L19.3302459,20.372452 C19.147251,20.3581075 18.9622789,20.3508 18.7756,20.3508 C14.9096068,20.3508 11.7756,23.4848068 11.7756,27.3508 C11.7756,31.1362517 14.7803834,34.2198987 18.5349502,34.346741 L18.7756,34.3508 L19.0162498,34.346741 C22.7708166,34.2198987 25.7756,31.1362517 25.7756,27.3508 L25.7740086,27.2000365 L25.7692557,27.0500508 L34.226585,21.2315521 C34.6052124,21.2904313 34.9908681,21.3280687 35.3822954,21.3432074 L35.7756,21.3508 L36.0555048,21.3469582 C41.4489292,21.1987317 45.7756,16.7800399 45.7756,11.3508 C45.7756,5.8279525 41.2984475,1.3508 35.7756,1.3508 Z M35.7756,6.3508 C38.5370237,6.3508 40.7756,8.58937625 40.7756,11.3508 C40.7756,14.1122237 38.5370237,16.3508 35.7756,16.3508 C33.0141763,16.3508 30.7756,14.1122237 30.7756,11.3508 C30.7756,8.58937625 33.0141763,6.3508 35.7756,6.3508 Z M35.7756,7.3508 C33.566461,7.3508 31.7756,9.141661 31.7756,11.3508 C31.7756,13.4929954 33.4595685,15.2418789 35.5759597,15.3459047 L35.7756,15.3508 L35.9752403,15.3459047 C38.0916315,15.2418789 39.7756,13.4929954 39.7756,11.3508 C39.7756,9.141661 37.984739,7.3508 35.7756,7.3508 Z"/>
      <path fill="url(#steam-m)" d="M35.7756,4.3508 C39.6415932,4.3508 42.7756,7.48480675 42.7756,11.3508 C42.7756,15.2167932 39.6415932,18.3508 35.7756,18.3508 C31.9096068,18.3508 28.7756,15.2167932 28.7756,11.3508 C28.7756,7.48480675 31.9096068,4.3508 35.7756,4.3508 Z M35.7756,5.3508 C32.4618915,5.3508 29.7756,8.0370915 29.7756,11.3508 C29.7756,14.6645085 32.4618915,17.3508 35.7756,17.3508 C39.0893085,17.3508 41.7756,14.6645085 41.7756,11.3508 C41.7756,8.0370915 39.0893085,5.3508 35.7756,5.3508 Z"/>
      <use fill="url(#steam-n)" xlink:href="#steam-o"/>
      <use fill="#000" filter="url(#steam-p)" xlink:href="#steam-o"/>
      <path fill="url(#steam-q)" d="M20.084,23.571 L0.9012783,14.3752163 L0.817295711,15.8663354 C0.789531421,16.3592931 0.7756,16.8542432 0.7756,17.3508 C0.7756,20.0021798 1.17284806,22.6012791 1.94531921,25.0841124 L2.09341962,25.5601285 L16.824,30.841 L16.7243357,30.7853277 C17.3395226,31.15334 18.044302,31.3508 18.7756,31.3508 C20.984739,31.3508 22.7756,29.559939 22.7756,27.3508 L22.7702067,27.1420765 C22.6878166,25.5506767 21.6685222,24.1708228 20.1991274,23.611765 L20.084,23.571 Z M1.8157134,15.9225682 L19.6978344,24.49522 C20.9034694,24.8842989 21.7756,26.0157009 21.7756,27.3508 C21.7756,29.0076542 20.4324542,30.3508 18.7756,30.3508 C18.213453,30.3508 17.6874185,30.1961841 17.2377031,29.9271587 L2.90017226,24.7870339 C2.16932303,22.4379794 1.7756,19.9403692 1.7756,17.3508 C1.7756,16.8714521 1.78909079,16.3952552 1.8157134,15.9225682 Z"/>
    </g>
  </g>
</svg>
