<svg xmlns="http://www.w3.org/2000/svg" xmlns:xlink="http://www.w3.org/1999/xlink" width="64" height="64" viewBox="0 0 64 64">
  <defs>
    <filter id="uos-service-support-a" width="142.2%" height="139.1%" x="-20%" y="-19.6%" filterUnits="objectBoundingBox">
      <feOffset dy="1" in="SourceAlpha" result="shadowOffsetOuter1"/>
      <feGaussianBlur in="shadowOffsetOuter1" result="shadowBlurOuter1" stdDeviation="1.5"/>
      <feColorMatrix in="shadowBlurOuter1" result="shadowMatrixOuter1" values="0 0 0 0 0   0 0 0 0 0   0 0 0 0 0  0 0 0 0.2 0"/>
      <feMerge>
        <feMergeNode in="shadowMatrixOuter1"/>
        <feMergeNode in="SourceGraphic"/>
      </feMerge>
    </filter>
    <radialGradient id="uos-service-support-b" cx="50%" cy="-3.497%" r="99.993%" fx="50%" fy="-3.497%" gradientTransform="matrix(0 .98244 -1.04 0 .464 -.526)">
      <stop offset="0%" stop-color="#DE7F56"/>
      <stop offset="100%" stop-color="#A83733"/>
    </radialGradient>
    <linearGradient id="uos-service-support-e" x1="50%" x2="50%" y1="2.427%" y2="100%">
      <stop offset="0%" stop-color="#BB726A"/>
      <stop offset="100%" stop-color="#600707"/>
    </linearGradient>
    <path id="uos-service-support-c" d="M22,7.10542736e-15 C34.4264069,7.10542736e-15 44.5,10.0735931 44.5,22.5 C44.5,34.9264069 34.4264069,45 22,45 C19.2796649,45 16.6720862,44.5172324 14.2582652,43.6326986 L5.74302769,45.8042754 L8.63026969,40.5987662 C3.09123117,36.500237 -0.5,29.919507 -0.5,22.5 C-0.5,10.0735931 9.57359313,7.10542736e-15 22,7.10542736e-15 Z"/>
    <filter id="uos-service-support-d" width="106.7%" height="106.6%" x="-4.4%" y="-3.3%" filterUnits="objectBoundingBox">
      <feOffset dy="-1" in="SourceAlpha" result="shadowOffsetInner1"/>
      <feComposite in="shadowOffsetInner1" in2="SourceAlpha" k2="-1" k3="1" operator="arithmetic" result="shadowInnerInner1"/>
      <feColorMatrix in="shadowInnerInner1" result="shadowMatrixInner1" values="0 0 0 0 0   0 0 0 0 0   0 0 0 0 0  0 0 0 0.138057255 0"/>
      <feOffset dy="1" in="SourceAlpha" result="shadowOffsetInner2"/>
      <feComposite in="shadowOffsetInner2" in2="SourceAlpha" k2="-1" k3="1" operator="arithmetic" result="shadowInnerInner2"/>
      <feColorMatrix in="shadowInnerInner2" result="shadowMatrixInner2" values="0 0 0 0 1   0 0 0 0 1   0 0 0 0 1  0 0 0 0.379124781 0"/>
      <feMerge>
        <feMergeNode in="shadowMatrixInner1"/>
        <feMergeNode in="shadowMatrixInner2"/>
      </feMerge>
    </filter>
    <linearGradient id="uos-service-support-h" x1="50%" x2="50%" y1="0%" y2="96.905%">
      <stop offset="0%" stop-color="#FFF"/>
      <stop offset="100%" stop-color="#FFF" stop-opacity=".748"/>
    </linearGradient>
    <path id="uos-service-support-g" d="M25.734,29 L25.734,28.724 C25.734,27.9306667 25.904,27.194 26.244,26.514 C26.5613333,25.8566667 27.0146667,25.29 27.604,24.814 C29.1906667,23.4313333 30.1653333,22.536 30.528,22.128 C31.3666667,21.0173333 31.786,19.6233333 31.786,17.946 C31.786,15.8606667 31.106,14.2286667 29.746,13.05 C28.4086667,11.8486667 26.618,11.248 24.374,11.248 C21.8806667,11.248 19.8973333,11.962 18.424,13.39 C16.9506667,14.7953333 16.214,16.4613333 16.214,19 L20.09,19 C20.09,17.5493333 20.3733333,16.7446667 20.94,15.974 C21.5746667,15.0446667 22.64,14.58 24.136,14.58 C25.3146667,14.58 26.2213333,14.8973333 26.856,15.532 C27.4906667,16.212 27.808,17.096 27.808,18.184 C27.808,19.0453333 27.502,19.85 26.89,20.598 L26.482,21.074 C24.2606667,23.046 22.9346667,24.4853333 22.504,25.392 C22.0506667,26.276 21.824,27.3866667 21.824,28.724 L21.824,29 L25.734,29 Z M23.762,36 C24.51,36 25.1333333,35.762 25.632,35.286 C26.1533333,34.81 26.414,34.1866667 26.414,33.416 C26.414,32.6906667 26.1646667,32.0786667 25.666,31.58 C25.1673333,31.104 24.5326667,30.866 23.762,30.866 C23.0366667,30.866 22.4133333,31.104 21.892,31.58 C21.3933333,32.056 21.144,32.668 21.144,33.416 C21.144,34.164 21.3933333,34.776 21.892,35.252 C22.436,35.7506667 23.0593333,36 23.762,36 Z"/>
    <filter id="uos-service-support-f" width="106.4%" height="108.1%" x="-3.2%" y="-2%" filterUnits="objectBoundingBox">
      <feOffset dy="1" in="SourceAlpha" result="shadowOffsetOuter1"/>
      <feColorMatrix in="shadowOffsetOuter1" values="0 0 0 0 0.510416667   0 0 0 0 0.100468829   0 0 0 0 0.100468829  0 0 0 0.221809441 0"/>
    </filter>
    <filter id="uos-service-support-i" width="159.4%" height="156.2%" x="-28.1%" y="-28.1%" filterUnits="objectBoundingBox">
      <feOffset dy="1" in="SourceAlpha" result="shadowOffsetOuter1"/>
      <feGaussianBlur in="shadowOffsetOuter1" result="shadowBlurOuter1" stdDeviation="1.5"/>
      <feColorMatrix in="shadowBlurOuter1" result="shadowMatrixOuter1" values="0 0 0 0 0   0 0 0 0 0   0 0 0 0 0  0 0 0 0.2 0"/>
      <feMerge>
        <feMergeNode in="shadowMatrixOuter1"/>
        <feMergeNode in="SourceGraphic"/>
      </feMerge>
    </filter>
    <radialGradient id="uos-service-support-j" cx="50%" cy="10.248%" r="105.558%" fx="50%" fy="10.248%">
      <stop offset="0%" stop-color="#7EC386"/>
      <stop offset="100%" stop-color="#45704A"/>
    </radialGradient>
    <linearGradient id="uos-service-support-m" x1="59.639%" x2="59.639%" y1="104.678%" y2="6.469%">
      <stop offset="0%" stop-color="#0F4116"/>
      <stop offset="100%" stop-color="#366D3A"/>
    </linearGradient>
    <path id="uos-service-support-k" d="M15.5,0 C24.336556,0 31.5,7.163444 31.5,16 C31.5,19.7431871 30.2145983,23.1861525 28.0611196,25.9115716 L31.8003565,31.030303 L23.6870836,29.7495616 C21.2919147,31.1788225 18.4918555,32 15.5,32 C6.663444,32 -0.5,24.836556 -0.5,16 C-0.5,7.163444 6.663444,0 15.5,0 Z"/>
    <filter id="uos-service-support-l" width="110.3%" height="109.4%" x="-6.2%" y="-4.7%" filterUnits="objectBoundingBox">
      <feOffset dy="1" in="SourceAlpha" result="shadowOffsetInner1"/>
      <feComposite in="shadowOffsetInner1" in2="SourceAlpha" k2="-1" k3="1" operator="arithmetic" result="shadowInnerInner1"/>
      <feColorMatrix in="shadowInnerInner1" result="shadowMatrixInner1" values="0 0 0 0 1   0 0 0 0 1   0 0 0 0 1  0 0 0 0.5 0"/>
      <feOffset dy="-1" in="SourceAlpha" result="shadowOffsetInner2"/>
      <feComposite in="shadowOffsetInner2" in2="SourceAlpha" k2="-1" k3="1" operator="arithmetic" result="shadowInnerInner2"/>
      <feColorMatrix in="shadowInnerInner2" result="shadowMatrixInner2" values="0 0 0 0 0   0 0 0 0 0   0 0 0 0 0  0 0 0 0.160893794 0"/>
      <feMerge>
        <feMergeNode in="shadowMatrixInner1"/>
        <feMergeNode in="shadowMatrixInner2"/>
      </feMerge>
    </filter>
    <linearGradient id="uos-service-support-p" x1="50%" x2="50%" y1="0%" y2="100%">
      <stop offset="0%" stop-color="#FFF"/>
      <stop offset="100%" stop-color="#FFF" stop-opacity=".6"/>
    </linearGradient>
    <path id="uos-service-support-o" d="M8.07557116,17.050074 L13.1501317,19.935795 C13.3250566,20.0352685 13.5425679,20.0201842 13.7020874,19.8975172 L25.7468753,10.6353356 C26.215754,10.274778 26.8816484,10.328594 27.2865414,10.7597676 C27.681846,11.1807305 27.6647412,11.8414236 27.248184,12.2413681 L14.1276051,24.838686 C13.7421635,25.2087559 13.1338867,25.2104247 12.7464204,24.8424752 L6.29040339,18.7116517 C5.88895564,18.3304251 5.87256315,17.6959422 6.25378974,17.2944944 C6.27304577,17.274217 6.29314187,17.2547542 6.31402531,17.2361572 C6.80058126,16.8028703 7.50922297,16.728012 8.07557116,17.050074 Z"/>
    <filter id="uos-service-support-n" width="100.4%" height="107.9%" x="-.1%" y="-.7%" filterUnits="objectBoundingBox">
      <feOffset dy="1" in="SourceAlpha" result="shadowOffsetOuter1"/>
      <feColorMatrix in="shadowOffsetOuter1" values="0 0 0 0 0   0 0 0 0 0   0 0 0 0 0  0 0 0 0.144367351 0"/>
    </filter>
  </defs>
  <g fill="none" fill-rule="evenodd">
    <g fill-rule="nonzero" filter="url(#uos-service-support-a)" transform="translate(16.5 7)">
      <g stroke-linejoin="round" transform="matrix(-1 0 0 1 45 0)">
        <use fill="url(#uos-service-support-b)" xlink:href="#uos-service-support-c"/>
        <use fill="#000" filter="url(#uos-service-support-d)" xlink:href="#uos-service-support-c"/>
        <path stroke="url(#uos-service-support-e)" d="M22,-0.5 C28.3512746,-0.5 34.1012746,2.07436269 38.263456,6.23654403 C42.4256373,10.3987254 45,16.1487254 45,22.5 C45,28.8512746 42.4256373,34.6012746 38.263456,38.763456 C34.1012746,42.9256373 28.3512746,45.5 22,45.5 C19.2740989,45.5 16.658987,45.0256599 14.2326081,44.1552447 L14.2326081,44.1552447 L4.74371465,46.5751257 L7.98232348,40.7361249 C2.51977225,36.5310776 -1,29.926548 -1,22.5 C-1,16.1487254 1.57436269,10.3987254 5.73654403,6.23654403 C9.89872538,2.07436269 15.6487254,-0.5 22,-0.5 Z"/>
      </g>
      <use fill="#000" filter="url(#uos-service-support-f)" xlink:href="#uos-service-support-g"/>
      <use fill="url(#uos-service-support-h)" xlink:href="#uos-service-support-g"/>
    </g>
    <g filter="url(#uos-service-support-i)" transform="translate(2.5 25)">
      <g stroke-linejoin="round" transform="matrix(-1 0 0 1 32 0)">
        <use fill="url(#uos-service-support-j)" xlink:href="#uos-service-support-k"/>
        <use fill="#000" filter="url(#uos-service-support-l)" xlink:href="#uos-service-support-k"/>
        <path stroke="url(#uos-service-support-m)" d="M15.5,-0.5 C20.0563492,-0.5 24.1813492,1.34682541 27.1672619,4.33273811 C30.1531746,7.31865081 32,11.4436508 32,16 C32,19.7233919 30.7666221,23.1586833 28.6863046,25.9197654 L28.6863046,25.9197654 L32.9182375,31.7129604 L23.7863326,30.2714203 C21.3511862,31.6882973 18.5203988,32.5 15.5,32.5 C10.9436508,32.5 6.81865081,30.6531746 3.83273811,27.6672619 C0.846825407,24.6813492 -1,20.5563492 -1,16 C-1,11.4436508 0.846825407,7.31865081 3.83273811,4.33273811 C6.81865081,1.34682541 10.9436508,-0.5 15.5,-0.5 Z"/>
      </g>
      <g fill-rule="nonzero">
        <use fill="#000" filter="url(#uos-service-support-n)" xlink:href="#uos-service-support-o"/>
        <use fill="url(#uos-service-support-p)" xlink:href="#uos-service-support-o"/>
      </g>
    </g>
  </g>
</svg>
