<svg xmlns="http://www.w3.org/2000/svg" xmlns:xlink="http://www.w3.org/1999/xlink" width="64" height="64" viewBox="0 0 64 64">
  <defs>
    <filter id="vice-assistant-a" width="133.3%" height="126.7%" x="-16.7%" y="-13.3%" filterUnits="objectBoundingBox">
      <feOffset dy="1" in="SourceAlpha" result="shadowOffsetOuter1"/>
      <feGaussianBlur in="shadowOffsetOuter1" result="shadowBlurOuter1" stdDeviation="1.5"/>
      <feColorMatrix in="shadowBlurOuter1" result="shadowMatrixOuter1" values="0 0 0 0 0   0 0 0 0 0   0 0 0 0 0  0 0 0 0.2 0"/>
      <feMerge>
        <feMergeNode in="shadowMatrixOuter1"/>
        <feMergeNode in="SourceGraphic"/>
      </feMerge>
    </filter>
    <linearGradient id="vice-assistant-b" x1="50%" x2="50%" y1=".68%" y2="100%">
      <stop offset="0%" stop-color="#F2F5F5"/>
      <stop offset="100%" stop-color="#3D495A"/>
    </linearGradient>
    <circle id="vice-assistant-c" cx="30" cy="30" r="29"/>
    <filter id="vice-assistant-d" width="101.7%" height="101.7%" x="-.9%" y="-.9%" filterUnits="objectBoundingBox">
      <feOffset dy="1" in="SourceAlpha" result="shadowOffsetInner1"/>
      <feComposite in="shadowOffsetInner1" in2="SourceAlpha" k2="-1" k3="1" operator="arithmetic" result="shadowInnerInner1"/>
      <feColorMatrix in="shadowInnerInner1" values="0 0 0 0 1   0 0 0 0 1   0 0 0 0 1  0 0 0 0.5 0"/>
    </filter>
    <linearGradient id="vice-assistant-e" x1="50%" x2="50%" y1="0%" y2="99.689%">
      <stop offset="0%" stop-opacity=".298"/>
      <stop offset="100%" stop-opacity=".798"/>
    </linearGradient>
    <filter id="vice-assistant-f" width="130.8%" height="143.2%" x="-15.4%" y="-21.6%" filterUnits="objectBoundingBox">
      <feOffset dy="1" in="SourceAlpha" result="shadowOffsetOuter1"/>
      <feGaussianBlur in="shadowOffsetOuter1" result="shadowBlurOuter1" stdDeviation="1.5"/>
      <feColorMatrix in="shadowBlurOuter1" result="shadowMatrixOuter1" values="0 0 0 0 0   0 0 0 0 0   0 0 0 0 0  0 0 0 0.2 0"/>
      <feMerge>
        <feMergeNode in="shadowMatrixOuter1"/>
        <feMergeNode in="SourceGraphic"/>
      </feMerge>
    </filter>
    <linearGradient id="vice-assistant-g" x1="50%" x2="50%" y1="0%" y2="100%">
      <stop offset="0%" stop-color="#757575"/>
      <stop offset="100%" stop-color="#101010"/>
    </linearGradient>
    <path id="vice-assistant-h" d="M9.5,1 L42.5,1 C45.5375661,1 48,3.46243388 48,6.5 L48,19 L48,19 L4,19 L4,6.5 C4,3.46243388 6.46243388,1 9.5,1 Z"/>
    <filter id="vice-assistant-i" width="109.1%" height="122.2%" x="-4.5%" y="-11.1%" filterUnits="objectBoundingBox">
      <feGaussianBlur in="SourceAlpha" result="shadowBlurInner1" stdDeviation="1.5"/>
      <feOffset dy="1" in="shadowBlurInner1" result="shadowOffsetInner1"/>
      <feComposite in="shadowOffsetInner1" in2="SourceAlpha" k2="-1" k3="1" operator="arithmetic" result="shadowInnerInner1"/>
      <feColorMatrix in="shadowInnerInner1" values="0 0 0 0 1   0 0 0 0 1   0 0 0 0 1  0 0 0 0.5 0"/>
    </filter>
    <linearGradient id="vice-assistant-j" x1="50%" x2="50%" y1="0%" y2="100%">
      <stop offset="0%" stop-opacity=".498"/>
      <stop offset="100%"/>
    </linearGradient>
    <radialGradient id="vice-assistant-k" cx="50%" cy="16.448%" r="105.957%" fx="50%" fy="16.448%" gradientTransform="matrix(0 1 -.825 0 .636 -.336)">
      <stop offset="0%" stop-color="#FBFCFE"/>
      <stop offset="100%" stop-color="#BABABA"/>
    </radialGradient>
    <linearGradient id="vice-assistant-l" x1="50%" x2="50%" y1="17.793%" y2="100%">
      <stop offset="0%" stop-opacity=".747"/>
      <stop offset="100%" stop-opacity=".852"/>
    </linearGradient>
    <linearGradient id="vice-assistant-m" x1="50%" x2="50%" y1="0%" y2="99.413%">
      <stop offset="0%" stop-color="#505050"/>
      <stop offset="100%" stop-color="#2E2E2E"/>
    </linearGradient>
    <linearGradient id="vice-assistant-n" x1="50%" x2="50%" y1="0%" y2="97.443%">
      <stop offset="0%" stop-opacity=".799"/>
      <stop offset="100%" stop-opacity=".898"/>
    </linearGradient>
    <linearGradient id="vice-assistant-o" x1="50%" x2="50%" y1="0%" y2="100%">
      <stop offset="0%" stop-color="#585858"/>
      <stop offset="100%" stop-color="#3B3B3B"/>
    </linearGradient>
    <rect id="vice-assistant-p" width="7" height="14" x="1" y="12" rx="3.5"/>
    <filter id="vice-assistant-q" width="114.3%" height="107.1%" x="-7.1%" y="-3.6%" filterUnits="objectBoundingBox">
      <feOffset dy="1" in="SourceAlpha" result="shadowOffsetInner1"/>
      <feComposite in="shadowOffsetInner1" in2="SourceAlpha" k2="-1" k3="1" operator="arithmetic" result="shadowInnerInner1"/>
      <feColorMatrix in="shadowInnerInner1" values="0 0 0 0 1   0 0 0 0 1   0 0 0 0 1  0 0 0 0.5 0"/>
    </filter>
    <rect id="vice-assistant-r" width="7" height="14" x="44" y="12" rx="3.5"/>
    <filter id="vice-assistant-s" width="114.3%" height="107.1%" x="-7.1%" y="-3.6%" filterUnits="objectBoundingBox">
      <feOffset dy="1" in="SourceAlpha" result="shadowOffsetInner1"/>
      <feComposite in="shadowOffsetInner1" in2="SourceAlpha" k2="-1" k3="1" operator="arithmetic" result="shadowInnerInner1"/>
      <feColorMatrix in="shadowInnerInner1" values="0 0 0 0 1   0 0 0 0 1   0 0 0 0 1  0 0 0 0.5 0"/>
    </filter>
    <linearGradient id="vice-assistant-t" x1="50%" x2="50%" y1=".634%" y2="100%">
      <stop offset="0%" stop-opacity=".499"/>
      <stop offset="100%" stop-opacity=".799"/>
    </linearGradient>
  </defs>
  <g fill="none" fill-rule="evenodd" filter="url(#vice-assistant-a)" transform="translate(2 2)">
    <use fill="url(#vice-assistant-b)" xlink:href="#vice-assistant-c"/>
    <use fill="#000" filter="url(#vice-assistant-d)" xlink:href="#vice-assistant-c"/>
    <path fill="url(#vice-assistant-e)" fill-rule="nonzero" d="M30,0 C13.4314575,0 0,13.4314575 0,30 C0,46.5685425 13.4314575,60 30,60 C46.5685425,60 60,46.5685425 60,30 C60,13.4314575 46.5685425,0 30,0 Z M30,1 C46.0162577,1 59,13.9837423 59,30 C59,46.0162577 46.0162577,59 30,59 C13.9837423,59 1,46.0162577 1,30 C1,13.9837423 13.9837423,1 30,1 Z"/>
    <g filter="url(#vice-assistant-f)" transform="translate(4 11)">
      <use fill="url(#vice-assistant-g)" xlink:href="#vice-assistant-h"/>
      <use fill="#000" filter="url(#vice-assistant-i)" xlink:href="#vice-assistant-h"/>
      <path fill="url(#vice-assistant-j)" fill-rule="nonzero" d="M42.5,0 L9.5,0 C5.91014913,0 3,2.91014913 3,6.5 L3,20 L49,20 L49,6.5 C49,2.91014913 46.0898509,0 42.5,0 Z M42.5,1 C45.5375661,1 48,3.46243388 48,6.5 L48,19 L4,19 L4,6.5 C4,3.46243388 6.46243388,1 9.5,1 L42.5,1 Z"/>
      <path fill="url(#vice-assistant-k)" d="M10,3 L42,3 C44.209139,3 46,4.790861 46,7 L46,32 C46,34.209139 44.209139,36 42,36 L10,36 C7.790861,36 6,34.209139 6,32 L6,7 C6,4.790861 7.790861,3 10,3 Z"/>
      <path fill="#000" fill-opacity=".232" fill-rule="nonzero" d="M42,2 L10,2 C7.23857625,2 5,4.23857625 5,7 L5,32 C5,34.7614237 7.23857625,37 10,37 L42,37 C44.7614237,37 47,34.7614237 47,32 L47,7 C47,4.23857625 44.7614237,2 42,2 Z M42,3 C44.209139,3 46,4.790861 46,7 L46,32 C46,34.209139 44.209139,36 42,36 L10,36 C7.790861,36 6,34.209139 6,32 L6,7 C6,4.790861 7.790861,3 10,3 L42,3 Z"/>
      <path fill="#4C4C4C" d="M15.9126056,25.4922908 C18.9993055,27.0644084 22.3617703,27.8504673 26,27.8504673 C29.6382297,27.8504673 33.0006945,27.0644084 36.0873944,25.4922908 C36.3963235,25.3349837 36.7742942,25.457862 36.9316304,25.7667763 C36.9765721,25.8550149 37,25.9526343 37,26.0516586 C37,26.735381 36.6345273,27.3669513 36.0417246,27.7076289 C33.3825595,29.2358763 30.035318,30 26,30 C21.964682,30 18.6174405,29.2358763 15.9582754,27.7076289 C15.3654727,27.3669513 15,26.735381 15,26.0516586 C15,25.7049849 15.2810346,25.4239502 15.6277084,25.4239502 C15.7267327,25.4239502 15.8243521,25.4473782 15.9126056,25.4922908 Z"/>
      <path fill="url(#vice-assistant-l)" fill-rule="nonzero" d="M15.6277084,24.4239502 C14.7287499,24.4239502 14,25.1527001 14,26.0516586 C14,27.0933613 14.5568283,28.0556043 15.4600065,28.5746514 C18.2829516,30.1970248 21.8003821,31 26,31 C30.1996179,31 33.7170484,30.1970248 36.5400065,28.574644 C37.4431717,28.0556043 38,27.0933613 38,26.0516586 C38,25.7948791 37.9392491,25.5417424 37.822711,25.3129312 C37.4147362,24.5119123 36.4346763,24.1932753 35.6336333,24.6011674 C32.6892629,26.1007938 29.4824412,26.8504673 26,26.8504673 C22.5175588,26.8504673 19.3107371,26.1007938 16.3664506,24.6012102 C16.1374166,24.4846536 15.8843879,24.4239502 15.6277084,24.4239502 Z M36.9316304,25.7667763 C36.9765721,25.8550149 37,25.9526343 37,26.0516586 C37,26.735381 36.6345273,27.3669513 36.0417246,27.7076289 C33.3825595,29.2358763 30.035318,30 26,30 C21.964682,30 18.6174405,29.2358763 15.9582754,27.7076289 C15.3654727,27.3669513 15,26.735381 15,26.0516586 C15,25.7049849 15.2810346,25.4239502 15.6277084,25.4239502 C15.7267327,25.4239502 15.8243521,25.4473782 15.9126056,25.4922908 C18.9993055,27.0644084 22.3617703,27.8504673 26,27.8504673 C29.6382297,27.8504673 33.0006945,27.0644084 36.0873944,25.4922908 C36.3963235,25.3349837 36.7742942,25.457862 36.9316304,25.7667763 Z"/>
      <path fill="url(#vice-assistant-m)" d="M18,8 L34,8 C36.7614237,8 39,10.2385763 39,13 C39,15.7614237 36.7614237,18 34,18 L18,18 C15.2385763,18 13,15.7614237 13,13 C13,10.2385763 15.2385763,8 18,8 Z"/>
      <path fill="url(#vice-assistant-n)" fill-rule="nonzero" d="M34,7 L18,7 C14.6862915,7 12,9.6862915 12,13 C12,16.3137085 14.6862915,19 18,19 L34,19 C37.3137085,19 40,16.3137085 40,13 C40,9.6862915 37.3137085,7 34,7 Z M34,8 C36.7614237,8 39,10.2385763 39,13 C39,15.7614237 36.7614237,18 34,18 L18,18 C15.2385763,18 13,15.7614237 13,13 C13,10.2385763 15.2385763,8 18,8 L34,8 Z"/>
      <path fill="#FFF" d="M27,9 L27,17 L26,17 L26,9 L27,9 Z M29,10 L29,16 L28,16 L28,10 L29,10 Z M25,10 L25,16 L24,16 L24,10 L25,10 Z M31,11 L31,15 L30,15 L30,11 L31,11 Z M23,11 L23,15 L22,15 L22,11 L23,11 Z M33,12 L33,14 L32,14 L32,12 L33,12 Z M21,12 L21,14 L20,14 L20,12 L21,12 Z"/>
      <use fill="url(#vice-assistant-o)" xlink:href="#vice-assistant-p"/>
      <use fill="#000" filter="url(#vice-assistant-q)" xlink:href="#vice-assistant-p"/>
      <use fill="url(#vice-assistant-o)" xlink:href="#vice-assistant-r"/>
      <use fill="#000" filter="url(#vice-assistant-s)" xlink:href="#vice-assistant-r"/>
      <path fill="url(#vice-assistant-t)" fill-rule="nonzero" d="M4.5 11C2.01471863 11 0 13.0147186 0 15.5L0 22.5C0 24.9852814 2.01471863 27 4.5 27 6.98528137 27 9 24.9852814 9 22.5L9 15.5C9 13.0147186 6.98528137 11 4.5 11zM4.5 12C6.43299662 12 8 13.5670034 8 15.5L8 22.5C8 24.4329966 6.43299662 26 4.5 26 2.56700338 26 1 24.4329966 1 22.5L1 15.5C1 13.5670034 2.56700338 12 4.5 12zM47.5 11C45.0147186 11 43 13.0147186 43 15.5L43 22.5C43 24.9852814 45.0147186 27 47.5 27 49.9852814 27 52 24.9852814 52 22.5L52 15.5C52 13.0147186 49.9852814 11 47.5 11zM47.5 12C49.4329966 12 51 13.5670034 51 15.5L51 22.5C51 24.4329966 49.4329966 26 47.5 26 45.5670034 26 44 24.4329966 44 22.5L44 15.5C44 13.5670034 45.5670034 12 47.5 12z"/>
    </g>
  </g>
</svg>
