<svg xmlns="http://www.w3.org/2000/svg" xmlns:xlink="http://www.w3.org/1999/xlink" width="64" height="64" viewBox="0 0 64 64">
  <defs>
    <filter id="folder-images-stack-64px-a" width="128.6%" height="133.3%" x="-14.3%" y="-16.7%" filterUnits="objectBoundingBox">
      <feOffset dy="1" in="SourceAlpha" result="shadowOffsetOuter1"/>
      <feGaussianBlur in="shadowOffsetOuter1" result="shadowBlurOuter1" stdDeviation="1.5"/>
      <feComposite in="shadowBlurOuter1" in2="SourceAlpha" operator="out" result="shadowBlurOuter1"/>
      <feColorMatrix in="shadowBlurOuter1" result="shadowMatrixOuter1" values="0 0 0 0 0   0 0 0 0 0   0 0 0 0 0  0 0 0 0.2 0"/>
      <feMerge>
        <feMergeNode in="shadowMatrixOuter1"/>
        <feMergeNode in="SourceGraphic"/>
      </feMerge>
    </filter>
    <path id="folder-images-stack-64px-b" d="M31.2792793,3 L31.2792793,3 C32.0434808,4.81770784 33.8230705,6 35.7948884,6 L49,6 C52.8659932,6 56,9.13400675 56,13 L56,41 C56,44.8659932 52.8659932,48 49,48 L7,48 C3.13400675,48 -4.92645439e-14,44.8659932 -4.97379915e-14,41 L-5.15143483e-14,7 C-5.1987796e-14,3.13400675 3.13400675,-2.68233596e-14 7,-2.7533531e-14 L26.7636702,-1.77635684e-14 C28.735488,-1.81257855e-14 30.5150778,1.18229216 31.2792793,3 Z"/>
    <linearGradient id="folder-images-stack-64px-f" x1="50%" x2="50%" y1="0%" y2="11.796%">
      <stop offset="0%" stop-color="#FFF"/>
      <stop offset="100%" stop-color="#CEF5FF"/>
    </linearGradient>
    <rect id="folder-images-stack-64px-e" width="50.955" height="20.75" x="2.523" y="9" rx="4.5"/>
    <filter id="folder-images-stack-64px-d" width="111.8%" height="128.9%" x="-5.9%" y="-14.5%" filterUnits="objectBoundingBox">
      <feOffset in="SourceAlpha" result="shadowOffsetOuter1"/>
      <feGaussianBlur in="shadowOffsetOuter1" result="shadowBlurOuter1" stdDeviation="1"/>
      <feColorMatrix in="shadowBlurOuter1" values="0 0 0 0 0   0 0 0 0 0   0 0 0 0 0  0 0 0 0.2 0"/>
    </filter>
    <filter id="folder-images-stack-64px-g" width="109.8%" height="124.1%" x="-4.9%" y="-12%" filterUnits="objectBoundingBox">
      <feOffset dy="1" in="SourceAlpha" result="shadowOffsetInner1"/>
      <feComposite in="shadowOffsetInner1" in2="SourceAlpha" k2="-1" k3="1" operator="arithmetic" result="shadowInnerInner1"/>
      <feColorMatrix in="shadowInnerInner1" values="0 0 0 0 1   0 0 0 0 1   0 0 0 0 1  0 0 0 0.5 0"/>
    </filter>
    <linearGradient id="folder-images-stack-64px-i" x1="50%" x2="50%" y1="0%" y2="100%">
      <stop offset="0%" stop-color="#1850D2"/>
      <stop offset="100%" stop-color="#8BC5FF"/>
    </linearGradient>
    <path id="folder-images-stack-64px-h" d="M0,0.5 L56,0.5 L56,29.5 C56,33.3659932 52.8659932,36.5 49,36.5 L7,36.5 C3.13400675,36.5 4.73447626e-16,33.3659932 0,29.5 L0,0.5 Z"/>
    <linearGradient id="folder-images-stack-64px-k" x1="50%" x2="50%" y1="20.953%" y2="100%">
      <stop offset="0%" stop-color="#0E3BAC"/>
      <stop offset="100%" stop-color="#1A0570"/>
    </linearGradient>
    <path id="folder-images-stack-64px-l" d="M3.42055273e-11,35 C8.39749857,32.25 7.90084448,21.1132006 15.7000008,22 C23.499157,22.8867994 25.5832939,23.9692425 29,22 C32.4167061,20.0307575 34,14.236034 41,15.4257093 C48,16.6153846 54.512674,23.0168783 58.512674,25.1331437 L55,35 L3.42055273e-11,35 Z"/>
    <filter id="folder-images-stack-64px-m" width="110.3%" height="130.4%" x="-5.1%" y="-15.2%" filterUnits="objectBoundingBox">
      <feGaussianBlur in="SourceAlpha" result="shadowBlurInner1" stdDeviation="1.5"/>
      <feOffset dy="3" in="shadowBlurInner1" result="shadowOffsetInner1"/>
      <feComposite in="shadowOffsetInner1" in2="SourceAlpha" k2="-1" k3="1" operator="arithmetic" result="shadowInnerInner1"/>
      <feColorMatrix in="shadowInnerInner1" result="shadowMatrixInner1" values="0 0 0 0 0.13973199   0 0 0 0 0.558172091   0 0 0 0 0.763472577  0 0 0 0.303357111 0"/>
      <feOffset dy="-1" in="SourceAlpha" result="shadowOffsetInner2"/>
      <feComposite in="shadowOffsetInner2" in2="SourceAlpha" k2="-1" k3="1" operator="arithmetic" result="shadowInnerInner2"/>
      <feColorMatrix in="shadowInnerInner2" result="shadowMatrixInner2" values="0 0 0 0 0   0 0 0 0 0   0 0 0 0 0  0 0 0 0.5 0"/>
      <feMerge>
        <feMergeNode in="shadowMatrixInner1"/>
        <feMergeNode in="shadowMatrixInner2"/>
      </feMerge>
    </filter>
    <linearGradient id="folder-images-stack-64px-n" x1="22.015%" x2="62.934%" y1="68.876%" y2="31.044%">
      <stop offset="0%" stop-color="#FFC8C8"/>
      <stop offset="100%" stop-color="#4C82F4"/>
    </linearGradient>
    <linearGradient id="folder-images-stack-64px-o" x1="22.015%" x2="63.689%" y1="65.92%" y2="29.337%">
      <stop offset="0%" stop-color="#FFC8C8"/>
      <stop offset="100%" stop-color="#4381FF"/>
    </linearGradient>
  </defs>
  <g fill="none" fill-rule="evenodd" filter="url(#folder-images-stack-64px-a)" transform="translate(4 11)">
    <mask id="folder-images-stack-64px-c" fill="#fff">
      <use xlink:href="#folder-images-stack-64px-b"/>
    </mask>
    <use fill="#003BAE" xlink:href="#folder-images-stack-64px-b"/>
    <g mask="url(#folder-images-stack-64px-c)">
      <use fill="#000" filter="url(#folder-images-stack-64px-d)" xlink:href="#folder-images-stack-64px-e"/>
      <use fill="url(#folder-images-stack-64px-f)" xlink:href="#folder-images-stack-64px-e"/>
      <use fill="#000" filter="url(#folder-images-stack-64px-g)" xlink:href="#folder-images-stack-64px-e"/>
    </g>
    <g mask="url(#folder-images-stack-64px-c)">
      <g transform="translate(0 11.5)">
        <mask id="folder-images-stack-64px-j" fill="#fff">
          <use xlink:href="#folder-images-stack-64px-h"/>
        </mask>
        <use fill="url(#folder-images-stack-64px-i)" xlink:href="#folder-images-stack-64px-h"/>
        <g mask="url(#folder-images-stack-64px-j)">
          <g transform="translate(0 1.5)">
            <g transform="translate(4 13)">
              <circle cx="8" cy="8" r="4" fill="#F66161"/>
              <path fill="#FFA279" fill-rule="nonzero" d="M8,12 C10.209139,12 12,10.209139 12,8 C12,5.790861 10.209139,4 8,4 C5.790861,4 4,5.790861 4,8 C4,10.209139 5.790861,12 8,12 Z M8,14 C4.6862915,14 2,11.3137085 2,8 C2,4.6862915 4.6862915,2 8,2 C11.3137085,2 14,4.6862915 14,8 C14,11.3137085 11.3137085,14 8,14 Z" opacity=".5"/>
              <path fill="#FFA279" fill-rule="nonzero" d="M8,14 C11.3137085,14 14,11.3137085 14,8 C14,4.6862915 11.3137085,2 8,2 C4.6862915,2 2,4.6862915 2,8 C2,11.3137085 4.6862915,14 8,14 Z M8,16 C3.581722,16 0,12.418278 0,8 C0,3.581722 3.581722,0 8,0 C12.418278,0 16,3.581722 16,8 C16,12.418278 12.418278,16 8,16 Z" opacity=".2"/>
            </g>
            <use fill="url(#folder-images-stack-64px-k)" xlink:href="#folder-images-stack-64px-l"/>
            <use fill="#000" filter="url(#folder-images-stack-64px-m)" xlink:href="#folder-images-stack-64px-l"/>
            <path fill="url(#folder-images-stack-64px-n)" d="M14.6363636,3 C16.072272,3 17.2651978,4.06807416 17.5025259,5.47260424 C18.3760012,5.7979894 19,6.65751343 19,7.66666667 C19,8.95533108 17.9824653,10 16.7272727,10 C15.9406389,10 12.1831758,10 11.2727273,10 C10.0175347,10 9,8.95533108 9,7.66666667 C9,6.37800225 10.0175347,5.33333333 11.2727273,5.33333333 C11.4488068,5.33333333 11.6202095,5.35389108 11.7847825,5.39279628 C12.0530167,4.02781311 13.2277785,3 14.6363636,3 Z" opacity=".7"/>
            <path fill="url(#folder-images-stack-64px-o)" d="M45.8909091,0 C47.9011808,0 49.571277,1.37323821 49.9035363,3.17906259 C51.1264016,3.59741495 52,4.70251727 52,6 C52,7.65685425 50.5754515,9 48.8181818,9 C47.7168945,9 42.4564461,9 41.1818182,9 C39.4245485,9 38,7.65685425 38,6 C38,4.34314575 39.4245485,3 41.1818182,3 C41.4283295,3 41.6682933,3.02643139 41.8986955,3.07645236 C42.2742234,1.321474 43.9188899,0 45.8909091,0 Z" opacity=".7"/>
          </g>
        </g>
      </g>
    </g>
  </g>
</svg>
