<svg xmlns="http://www.w3.org/2000/svg" xmlns:xlink="http://www.w3.org/1999/xlink" width="512" height="512" viewBox="0 0 512 512">
  <defs>
    <path id="text-x-generic-template-b" d="M336,380 C336,399.882251 319.882251,416 300,416 L36,416 C16.117749,416 2.4348735e-15,399.882251 0,380 L0,36 C-2.4348735e-15,16.117749 16.117749,3.65231026e-15 36,0 L232,0 L336,104 L336,380 Z"/>
    <filter id="text-x-generic-template-a" width="127.7%" height="122.4%" x="-13.8%" y="-9.3%" filterUnits="objectBoundingBox">
      <feMorphology in="SourceAlpha" operator="dilate" radius=".5" result="shadowSpreadOuter1"/>
      <feOffset dy="8" in="shadowSpreadOuter1" result="shadowOffsetOuter1"/>
      <feGaussianBlur in="shadowOffsetOuter1" result="shadowBlurOuter1" stdDeviation="14"/>
      <feComposite in="shadowBlurOuter1" in2="SourceAlpha" operator="out" result="shadowBlurOuter1"/>
      <feColorMatrix in="shadowBlurOuter1" values="0 0 0 0 0   0 0 0 0 0   0 0 0 0 0  0 0 0 0.1 0"/>
    </filter>
    <linearGradient id="text-x-generic-template-e" x1="50%" x2="7.994%" y1="50%" y2="88.893%">
      <stop offset="0%" stop-color="#FFF" stop-opacity=".1"/>
      <stop offset="100%" stop-color="#FFF" stop-opacity=".3"/>
    </linearGradient>
    <path id="text-x-generic-template-d" d="M232,0 L336,104 L268,104 C248.117749,104 232,87.882251 232,68 L232,0 L232,0 Z"/>
    <filter id="text-x-generic-template-c" width="188.5%" height="188.5%" x="-44.2%" y="-36.5%" filterUnits="objectBoundingBox">
      <feOffset dy="8" in="SourceAlpha" result="shadowOffsetOuter1"/>
      <feGaussianBlur in="shadowOffsetOuter1" result="shadowBlurOuter1" stdDeviation="14"/>
      <feComposite in="shadowBlurOuter1" in2="SourceAlpha" operator="out" result="shadowBlurOuter1"/>
      <feColorMatrix in="shadowBlurOuter1" values="0 0 0 0 0   0 0 0 0 0   0 0 0 0 0  0 0 0 0.05 0"/>
    </filter>
  </defs>
  <g fill="none" fill-rule="evenodd">
    <g transform="translate(88 56)">
      <use fill="#000" filter="url(#text-x-generic-template-a)" xlink:href="#text-x-generic-template-b"/>
      <path fill="#ADADAD" stroke="#000" stroke-opacity=".1" stroke-width=".5" d="M336.25,380 C336.25,400.020322 320.020322,416.25 300,416.25 L36,416.25 C15.9796778,416.25 -0.25,400.020322 -0.25,380 L-0.25,36 C-0.25,15.9796778 15.9796778,-0.25 36,-0.25 L232,-0.25 L232.176777,-0.176776695 L336.176777,103.823223 L336.25,104 L336.25,380 Z"/>
      <use fill="#000" filter="url(#text-x-generic-template-c)" xlink:href="#text-x-generic-template-d"/>
      <use fill="url(#text-x-generic-template-e)" xlink:href="#text-x-generic-template-d"/>
    </g>
    <path fill="#4E59BA" d="M368,224 L368,232 L144,232 L144,224 L368,224 Z M368,184 L368,192 L144,192 L144,184 L368,184 Z M288,144 L288,152 L144,152 L144,144 L288,144 Z M368,264 L368,272 L144,272 L144,264 L368,264 Z M368,304 L368,312 L144,312 L144,304 L368,304 Z M368,344 L368,352 L144,352 L144,344 L368,344 Z M256,384 L256,392 L144,392 L144,384 L256,384 Z M264,384 L272,384 L272,392 L264,392 L264,384 L264,384 Z"/>
  </g>
</svg>
