<svg xmlns="http://www.w3.org/2000/svg" xmlns:xlink="http://www.w3.org/1999/xlink" width="512" height="512" viewBox="0 0 512 512">
  <defs>
    <filter id="deepin-calendar-512px-a" width="124.1%" height="125.5%" x="-12.1%" y="-12.7%" filterUnits="objectBoundingBox">
      <feOffset dy="8" in="SourceAlpha" result="shadowOffsetOuter1"/>
      <feGaussianBlur in="shadowOffsetOuter1" result="shadowBlurOuter1" stdDeviation="10"/>
      <feComposite in="shadowBlurOuter1" in2="SourceAlpha" operator="out" result="shadowBlurOuter1"/>
      <feColorMatrix in="shadowBlurOuter1" result="shadowMatrixOuter1" values="0 0 0 0 0   0 0 0 0 0   0 0 0 0 0  0 0 0 0.2 0"/>
      <feMerge>
        <feMergeNode in="shadowMatrixOuter1"/>
        <feMergeNode in="SourceGraphic"/>
      </feMerge>
    </filter>
    <rect id="deepin-calendar-512px-b" width="448" height="424" x="0" y="0" rx="64"/>
    <linearGradient id="deepin-calendar-512px-c" x1="50%" x2="50%" y1="31.469%" y2="99.385%">
      <stop offset="0%" stop-color="#FFF"/>
      <stop offset="100%" stop-color="#F3F3F3"/>
    </linearGradient>
  </defs>
  <g fill="none" fill-rule="evenodd" filter="url(#deepin-calendar-512px-a)" transform="translate(32 44)">
    <mask id="deepin-calendar-512px-d" fill="#fff">
      <use xlink:href="#deepin-calendar-512px-b"/>
    </mask>
    <use fill="#EE3B67" xlink:href="#deepin-calendar-512px-b"/>
    <rect width="448" height="226" fill="url(#deepin-calendar-512px-c)" mask="url(#deepin-calendar-512px-d)"/>
    <text fill="#F22C5F" font-family="PingFangSC-Semibold, PingFang SC" font-size="40" font-weight="500" mask="url(#deepin-calendar-512px-d)">
      <tspan x="34" y="68">JUN</tspan>
    </text>
    <text fill="#8B8B8B" font-family="PingFangSC-Semibold, PingFang SC" font-size="40" font-weight="500" mask="url(#deepin-calendar-512px-d)">
      <tspan x="324" y="68">2019</tspan>
    </text>
    <path fill="#313131" fill-rule="nonzero" d="M135.334646,222.086424 C147.450877,215.094627 155.864194,209.189239 160.476883,204.522949 C167.356934,197.610919 170.687683,189.950872 170.687683,181.254001 C170.687683,170.74144 167.636967,162.727412 161.566672,156.822878 C155.455189,150.87828 147.243787,147.88309 136.583517,147.88309 C120.742104,147.88309 110.4113,153.490624 104.594173,164.875491 C101.358659,171.213761 99.4866816,180.415384 99.1224308,192.436421 C99.0242108,195.677884 96.3681342,198.254697 93.1251833,198.254697 L66.4376833,198.254697 C63.0860415,198.254697 60.3843005,195.508934 60.438467,192.15773 C60.7451875,173.181369 64.3190338,157.501718 71.280182,145.14886 C83.8003985,123.056654 105.919154,112 136.72935,112 C162.258093,112 181.402668,119.029885 193.706008,133.339521 C205.658467,147.241058 211.708517,162.901519 211.708517,180.096033 C211.708517,198.2854 205.194245,213.995452 192.319514,226.87976 C184.961878,234.286863 168.789616,245.344553 150.9072,255.248738 C150.703355,255.361638 150.493106,255.462567 150.277521,255.551012 C149.902632,255.704812 149.139975,256.03405 148.045696,256.533261 C146.188361,257.380579 144.110156,258.387418 141.867486,259.547912 C135.456733,262.865227 129.04747,266.731452 123.095252,271.087703 C112.429563,278.893603 104.56867,287.288738 100.424855,296 L204.000183,296 C207.313892,296 210.000183,298.686292 210.000183,302 L210.000183,326 C210.000183,329.313708 207.313892,332 204.000183,332 L60.0001833,332 C56.5582626,332 53.8218913,329.110551 54.0090613,325.673723 C54.7396435,312.258727 57.8159996,297.868104 64.2047312,283.96844 C73.0206165,264.788132 87.1415526,248.975383 107.42341,238.102276 L135.334646,222.086424 Z M242.000183,148 C238.686475,148 236.000183,145.313708 236.000183,142 L236.000183,118 C236.000183,114.686292 238.686475,112 242.000183,112 L386.000183,112 C389.313892,112 392.000183,114.686292 392.000183,118 L392.000183,142 C392.000183,143.608469 391.354367,145.149586 390.207657,146.277518 C384.268872,152.119056 365.970065,178.279594 351.207608,204.885498 C328.73593,245.385488 313.02845,287.023336 307.760719,326.787953 C307.365541,329.771038 304.821829,332 301.812683,332 L274.000183,332 C270.299496,332 267.481079,328.682605 268.079022,325.030544 C272.236986,299.634881 280.049986,270.032723 291.307615,240.707546 C304.276439,206.924853 320.988732,175.520816 341.683198,148 L242.000183,148 Z" mask="url(#deepin-calendar-512px-d)"/>
    <polygon fill="#000" fill-opacity=".1" fill-rule="nonzero" points="0 230 448 230 448 226 0 226" mask="url(#deepin-calendar-512px-d)"/>
    <rect width="10" height="24" x="20" y="216" fill="#C7C7C7" mask="url(#deepin-calendar-512px-d)" rx="5"/>
    <rect width="10" height="24" x="418" y="216" fill="#C7C7C7" mask="url(#deepin-calendar-512px-d)" rx="5"/>
  </g>
</svg>
