<svg xmlns="http://www.w3.org/2000/svg" xmlns:xlink="http://www.w3.org/1999/xlink" width="512" height="512" viewBox="0 0 512 512">
  <defs>
    <filter id="deepin-draw-a" width="123.1%" height="131.3%" x="-11.5%" y="-20.1%" filterUnits="objectBoundingBox">
      <feOffset dy="8" in="SourceAlpha" result="shadowOffsetOuter1"/>
      <feGaussianBlur in="shadowOffsetOuter1" result="shadowBlurOuter1" stdDeviation="10"/>
      <feComposite in="shadowBlurOuter1" in2="SourceAlpha" operator="out" result="shadowBlurOuter1"/>
      <feColorMatrix in="shadowBlurOuter1" result="shadowMatrixOuter1" values="0 0 0 0 0   0 0 0 0 0   0 0 0 0 0  0 0 0 0.2 0"/>
      <feMerge>
        <feMergeNode in="shadowMatrixOuter1"/>
        <feMergeNode in="SourceGraphic"/>
      </feMerge>
    </filter>
    <linearGradient id="deepin-draw-b" x1="50%" x2="50%" y1="0%" y2="98.139%">
      <stop offset="0%" stop-color="#FFF"/>
      <stop offset="100%" stop-color="#EDEDED"/>
    </linearGradient>
    <filter id="deepin-draw-c" width="138.3%" height="127.1%" x="-19.1%" y="-13.6%" filterUnits="objectBoundingBox">
      <feOffset dx="10" dy="10" in="SourceAlpha" result="shadowOffsetOuter1"/>
      <feGaussianBlur in="shadowOffsetOuter1" result="shadowBlurOuter1" stdDeviation="10"/>
      <feColorMatrix in="shadowBlurOuter1" result="shadowMatrixOuter1" values="0 0 0 0 0   0 0 0 0 0   0 0 0 0 0  0 0 0 0.2 0"/>
      <feMerge>
        <feMergeNode in="shadowMatrixOuter1"/>
        <feMergeNode in="SourceGraphic"/>
      </feMerge>
    </filter>
    <linearGradient id="deepin-draw-d" x1="52.431%" x2="34.837%" y1="0%" y2="86.29%">
      <stop offset="0%" stop-color="#0082FF"/>
      <stop offset="47.525%" stop-color="#53A0FD"/>
      <stop offset="100%" stop-color="#68FFAD"/>
    </linearGradient>
    <linearGradient id="deepin-draw-e" x1="51.9%" x2="62.67%" y1="0%" y2="71.03%">
      <stop offset="0%" stop-color="#BC6FFF"/>
      <stop offset="100%" stop-color="#3EFF90"/>
    </linearGradient>
    <linearGradient id="deepin-draw-f" x1="62.399%" x2="33.646%" y1="18.3%" y2="92.174%">
      <stop offset="0%" stop-color="#D10BFF"/>
      <stop offset="100%" stop-color="#FFEE28"/>
    </linearGradient>
    <linearGradient id="deepin-draw-g" x1="96.227%" x2=".143%" y1="20.632%" y2="84.812%">
      <stop offset="0%" stop-color="#FF035B"/>
      <stop offset="100%" stop-color="#FFC800"/>
    </linearGradient>
    <linearGradient id="deepin-draw-h" x1="95.792%" x2="0%" y1="45.147%" y2="52.564%">
      <stop offset="0%" stop-color="#E06C00"/>
      <stop offset="100%" stop-color="#FFFF46"/>
    </linearGradient>
    <linearGradient id="deepin-draw-i" x1="63.33%" x2="23.344%" y1="108.458%" y2="46.996%">
      <stop offset="0%" stop-color="#FFD900"/>
      <stop offset="14.463%" stop-color="#FFD800"/>
      <stop offset="25.088%" stop-color="#CE4F02"/>
      <stop offset="33.457%" stop-color="#D30079"/>
      <stop offset="53.45%" stop-color="#53A0FD"/>
      <stop offset="100%" stop-color="#0064A2"/>
    </linearGradient>
    <linearGradient id="deepin-draw-j" x1="0%" x2="98.687%" y1="100%" y2="100%">
      <stop offset="0%" stop-color="#FFF"/>
      <stop offset="100%" stop-color="#EDEDED"/>
    </linearGradient>
    <linearGradient id="deepin-draw-l" x1="-77.238%" x2="100%" y1="100%" y2="100%">
      <stop offset="0%" stop-color="#828282"/>
      <stop offset="100%" stop-color="#353535"/>
    </linearGradient>
    <path id="deepin-draw-k" d="M236.448889,186.005012 C241.25224,185.99032 245.472899,189.187969 246.75883,193.816012 L254.072897,220.139221 C255.650011,225.815226 252.327203,231.695041 246.651197,233.272154 C245.721322,233.530526 244.760684,233.661504 243.795581,233.661504 L189.907801,233.661504 C184.016764,233.661504 179.241134,228.885875 179.241134,222.994838 C179.241134,222.105176 179.352437,221.21901 179.572449,220.356982 L186.259692,194.15577 C187.462284,189.443906 191.699532,186.141882 196.562419,186.127008 L236.448889,186.005012 Z M234.656831,58.3333333 L234.656831,175.666667 L202.656831,175.666667 L202.656831,58.3333333 L234.656831,58.3333333 Z M223.990164,5 C229.881201,5 234.656831,9.77562934 234.656831,15.6666667 L234.656831,15.6666667 L234.656831,47.6666667 L202.656831,47.6666667 L202.656831,15.6666667 C202.656831,9.77562934 207.43246,5 213.323497,5 L213.323497,5 Z"/>
    <linearGradient id="deepin-draw-m" x1="30.494%" x2="48.452%" y1="78.679%" y2="94.003%">
      <stop offset="0%" stop-color="#686868"/>
      <stop offset="100%"/>
    </linearGradient>
  </defs>
  <g fill="none" fill-rule="evenodd" filter="url(#deepin-draw-a)" transform="translate(22 8)">
    <path fill="url(#deepin-draw-b)" d="M234,14 C264.691648,14 252.089452,76.3557261 289.337383,75.9127427 C330.266459,75.4259801 369.78008,80.5710449 415.82454,119.412048 C450.746717,148.870802 468,205.49687 468,248 C468,377.234631 363.234631,482 234,482 C104.765369,482 0,377.234631 0,248 C0,118.765369 104.765369,14 234,14 Z M165.470062,91.6546706 C154.062951,111.412367 158.83034,135.520525 176.118325,145.501747 C193.406309,155.48297 216.668281,147.557572 228.075392,127.799875 C239.482504,108.042178 234.715114,83.9340208 217.42713,73.9527983 C200.139145,63.9715758 176.877174,71.8969739 165.470062,91.6546706 Z"/>
    <g filter="url(#deepin-draw-c)" transform="translate(84 .173)">
      <g transform="translate(0 197.827)">
        <path fill="url(#deepin-draw-d)" d="M100.251159,14.4968922 C187.424123,37.5429873 183.542103,167.958282 142.972601,201.428243 C134.331076,208.557528 125.579984,212.557478 117.146317,214.335974 L66.7873847,199.898057 C53.5430004,185.513365 45.9571016,153.788892 57.2661569,126.261197 C77.2109009,77.7131251 142.972601,50.5604119 100.251159,14.4968922 Z" transform="scale(1 -1) rotate(-42 -186.86 0)"/>
        <path fill="url(#deepin-draw-e)" d="M108.369791,20.1493276 L110.849627,20.5614264 C186.135684,51.5554147 180.822839,171.721676 142.118714,203.652695 C133.477189,210.78198 124.726097,214.78193 116.29243,216.560426 L67.5433678,202.583607 C65.6663412,189.789913 66.1661118,176.035242 70.0826475,162.671236 C88.2739903,100.598721 165.377312,58.847329 108.369791,20.1493276 Z" transform="scale(1 -1) rotate(-42 -190.184 0)"/>
        <path fill="url(#deepin-draw-f)" d="M142.861242,22.829135 L143.545068,23.069631 C189.821658,68.160622 181.247121,161.025289 147.930991,188.511197 C139.288799,195.641031 130.537024,199.641049 122.102756,201.419339 L73.4696623,187.47328 C74.0733105,175.644248 76.8700506,163.431009 82.4993419,152.058032 C110.231841,96.0294759 190.627206,69.2301424 142.861242,22.829135 Z" transform="scale(1 -1) rotate(-42 -167.555 0)"/>
        <path fill="url(#deepin-draw-g)" d="M173.520642,121.847876 C164.879133,128.977147 156.128059,132.977095 147.694407,134.755596 L99.348239,120.895238 C102.660551,112.672044 107.334712,104.718495 113.516902,97.6898887 C140.560104,66.9441449 188.046076,55.9614054 200.844418,32.7682085 C203.326702,69.7281486 192.393377,106.277813 173.520642,121.847876 Z" transform="scale(1 -1) rotate(-42 -67.929 0)"/>
        <path fill="url(#deepin-draw-h)" d="M198.021654,58.0205578 C189.380129,65.1498424 180.629037,69.1497929 172.195369,70.9282883 L126.979659,57.9635882 C128.56475,57.0521418 130.201359,56.2050692 131.887822,55.4305974 C159.728562,42.6453372 195.111137,48.5562484 212.93426,38.4719144 C208.807907,46.5545639 203.784979,53.2657972 198.021654,58.0205578 Z" transform="scale(1 -1) rotate(-42 27.46 0)"/>
        <path fill="url(#deepin-draw-i)" fill-rule="nonzero" d="M117.618597,45.6681606 C116.007246,52.6370115 112.057729,59.6445943 105.529966,68.0071812 C102.99497,71.2547144 100.155309,74.6168951 96.242628,79.0637385 C95.5831236,79.8132791 88.2976674,88.0174371 86.1284672,90.507645 C73.4457438,105.067213 65.8764064,115.828886 60.9660927,127.781221 C51.2891604,151.336119 55.9024182,181.255144 68.9974103,196.368283 L117.273586,210.211253 C125.234911,208.366467 132.989245,204.478978 140.427064,198.342755 C159.477013,182.62649 170.255344,143.027093 165.54493,104.539544 C160.939089,66.9064338 143.123603,37.4143695 113.786542,23.6350608 C118.183014,30.7214031 119.38916,38.0107376 117.618597,45.6681606 Z M66.7845188,199.894944 C53.5419061,185.508788 45.9579173,153.786906 57.2661569,126.261197 C77.2109009,77.7131251 142.972601,50.5604119 100.251159,14.4968922 C187.424123,37.5429873 183.542103,167.958282 142.972601,201.428243 C134.331087,208.557518 125.580007,212.557468 117.146349,214.335967 L66.7845188,199.894944 Z" opacity=".5" transform="scale(1 -1) rotate(-42 -186.86 0)"/>
      </g>
      <g transform="rotate(27 216.853 119.33)">
        <use fill="url(#deepin-draw-j)" xlink:href="#deepin-draw-k"/>
        <use fill="url(#deepin-draw-l)" xlink:href="#deepin-draw-k"/>
      </g>
      <path fill="url(#deepin-draw-m)" fill-rule="nonzero" d="M184.008143,161.33341 L205.3923,172.229182 L255.028594,74.8124682 L233.644438,63.9166962 L184.008143,161.33341 Z M231.896374,58.5367081 L260.408583,73.0644041 L207.140364,177.60917 L178.628155,163.081474 L231.896374,58.5367081 Z M158.62856,174.752177 L140.775081,195.061683 C140.407966,195.479301 140.094539,195.941207 139.842103,196.436641 C138.170556,199.717236 139.474948,203.731741 142.755543,205.403288 L190.769907,229.867828 C191.307352,230.14167 191.879476,230.341306 192.470616,230.461271 C196.078961,231.193543 199.597726,228.862024 200.329997,225.253679 L205.763602,198.479011 C206.360674,195.536875 204.917591,192.558585 202.238536,191.203844 L166.644046,173.204465 C163.931786,171.832932 160.635222,172.469467 158.62856,174.752177 Z M168.449099,169.634901 L204.043589,187.63428 C208.330076,189.801866 210.639009,194.567131 209.683694,199.274548 L204.250089,226.049216 C203.078455,231.822568 197.448431,235.552997 191.675079,234.381363 C190.729256,234.18942 189.813858,233.870002 188.953945,233.431854 L140.939581,208.967314 C135.690629,206.292839 133.603602,199.869632 136.278077,194.620679 C136.681975,193.827985 137.183457,193.088935 137.770842,192.420747 L155.624321,172.11124 C158.83498,168.458904 164.109483,167.440449 168.449099,169.634901 Z M263.503084,58.1803464 L276.214818,33.2321637 C277.886365,29.9515683 276.581973,25.9370638 273.301378,24.2655169 L263.797308,19.4229516 C260.516713,17.7514047 256.502208,19.0557963 254.830661,22.3363917 L242.118927,47.2845744 L263.503084,58.1803464 Z M236.738939,49.0326385 L251.266635,20.5204297 C253.94111,15.271477 260.364317,13.1844505 265.61327,15.8589255 L275.11734,20.7014908 C280.366292,23.3759658 282.453319,29.799173 279.778844,35.0481257 L265.251148,63.5603345 L236.738939,49.0326385 Z"/>
    </g>
  </g>
</svg>
