<svg xmlns="http://www.w3.org/2000/svg" xmlns:xlink="http://www.w3.org/1999/xlink" width="32" height="32" viewBox="0 0 32 32">
  <defs>
    <filter id="folder-videos-a" width="128.6%" height="133.3%" x="-14.3%" y="-16.7%" filterUnits="objectBoundingBox">
      <feOffset dy="1" in="SourceAlpha" result="shadowOffsetOuter1"/>
      <feGaussianBlur in="shadowOffsetOuter1" result="shadowBlurOuter1" stdDeviation=".5"/>
      <feComposite in="shadowBlurOuter1" in2="SourceAlpha" operator="out" result="shadowBlurOuter1"/>
      <feColorMatrix in="shadowBlurOuter1" result="shadowMatrixOuter1" values="0 0 0 0 0   0 0 0 0 0   0 0 0 0 0  0 0 0 0.15 0"/>
      <feMerge>
        <feMergeNode in="shadowMatrixOuter1"/>
        <feMergeNode in="SourceGraphic"/>
      </feMerge>
    </filter>
    <linearGradient id="folder-videos-c" x1="50%" x2="50%" y1="0%" y2="37.968%">
      <stop offset="0%" stop-color="#00B8FF"/>
      <stop offset="100%" stop-color="#2E5DFF"/>
    </linearGradient>
    <path id="folder-videos-b" d="M15.5,1.5 L15.5,1.5 C15.7985951,2.39578544 16.6368981,3 17.5811388,3 L24.5,3 C26.4329966,3 28,4.56700338 28,6.5 L28,20.5 C28,22.4329966 26.4329966,24 24.5,24 L3.5,24 C1.56700338,24 -4.23958403e-14,22.4329966 -4.26325641e-14,20.5 L-4.26325641e-14,3.5 C-4.2869288e-14,1.56700338 1.56700338,-2.80666237e-14 3.5,-2.84217094e-14 L13.4188612,-2.66453526e-14 C14.3631019,-2.76574611e-14 15.2014049,0.604214564 15.5,1.5 Z"/>
    <linearGradient id="folder-videos-g" x1="50%" x2="50%" y1="0%" y2="11.796%">
      <stop offset="0%" stop-color="#FFF"/>
      <stop offset="100%" stop-color="#CEF5FF"/>
    </linearGradient>
    <rect id="folder-videos-f" width="26" height="10" x="1" y="4" rx="2.25"/>
    <filter id="folder-videos-e" width="111.5%" height="130%" x="-5.8%" y="-15%" filterUnits="objectBoundingBox">
      <feOffset in="SourceAlpha" result="shadowOffsetOuter1"/>
      <feGaussianBlur in="shadowOffsetOuter1" result="shadowBlurOuter1" stdDeviation=".5"/>
      <feColorMatrix in="shadowBlurOuter1" values="0 0 0 0 0   0 0 0 0 0   0 0 0 0 0  0 0 0 0.2 0"/>
    </filter>
    <filter id="folder-videos-h" width="111.5%" height="130%" x="-5.8%" y="-15%" filterUnits="objectBoundingBox">
      <feOffset dy="1" in="SourceAlpha" result="shadowOffsetInner1"/>
      <feComposite in="shadowOffsetInner1" in2="SourceAlpha" k2="-1" k3="1" operator="arithmetic" result="shadowInnerInner1"/>
      <feColorMatrix in="shadowInnerInner1" values="0 0 0 0 1   0 0 0 0 1   0 0 0 0 1  0 0 0 0.5 0"/>
    </filter>
    <radialGradient id="folder-videos-i" cx="50%" cy="0%" r="117.613%" fx="50%" fy="0%" gradientTransform="matrix(.06171 .99538 -.63989 .096 .47 -.498)">
      <stop offset="0%" stop-color="#48D5FF"/>
      <stop offset="100%" stop-color="#0083F6"/>
    </radialGradient>
    <linearGradient id="folder-videos-l" x1="52.084%" x2="52.084%" y1="4.908%" y2="100%">
      <stop offset="0%" stop-color="#FFF"/>
      <stop offset="100%" stop-color="#FFF" stop-opacity=".6"/>
    </linearGradient>
    <path id="folder-videos-k" d="M6,12 C2.6862915,12 0,9.3137085 0,6 C0,2.6862915 2.6862915,0 6,0 C9.3137085,0 12,2.6862915 12,6 C12,9.3137085 9.3137085,12 6,12 Z"/>
    <filter id="folder-videos-j" width="208.3%" height="208.3%" x="-54.2%" y="-45.8%" filterUnits="objectBoundingBox">
      <feOffset dy="1" in="SourceAlpha" result="shadowOffsetOuter1"/>
      <feGaussianBlur in="shadowOffsetOuter1" result="shadowBlurOuter1" stdDeviation="2"/>
      <feColorMatrix in="shadowBlurOuter1" values="0 0 0 0 0   0 0 0 0 0.42745098   0 0 0 0 0.968627451  0 0 0 0.5 0"/>
    </filter>
    <path id="folder-videos-m" d="M1.09706863,5.86655699 C0.491174354,6.17973056 0,5.92300655 0,5.29179648 L0,0.707471972 C0,0.0768669398 0.493928064,-0.179038772 1.09706863,0.132711466 L5.54661135,2.43258332 C6.15250562,2.74575689 6.14975191,3.2549349 5.54661135,3.56668514 L1.09706863,5.86655699 Z"/>
  </defs>
  <g fill="none" fill-rule="evenodd">
    <g filter="url(#folder-videos-a)" transform="translate(2 5)">
      <mask id="folder-videos-d" fill="#fff">
        <use xlink:href="#folder-videos-b"/>
      </mask>
      <use fill="url(#folder-videos-c)" xlink:href="#folder-videos-b"/>
      <g mask="url(#folder-videos-d)">
        <use fill="#000" filter="url(#folder-videos-e)" xlink:href="#folder-videos-f"/>
        <use fill="url(#folder-videos-g)" xlink:href="#folder-videos-f"/>
        <use fill="#000" filter="url(#folder-videos-h)" xlink:href="#folder-videos-f"/>
      </g>
      <g fill="url(#folder-videos-i)" mask="url(#folder-videos-d)">
        <path d="M0,0.25 L28,0.25 L28,14.75 C28,16.6829966 26.4329966,18.25 24.5,18.25 L3.5,18.25 C1.56700338,18.25 2.36723813e-16,16.6829966 0,14.75 L0,0.25 Z" transform="translate(0 5.75)"/>
      </g>
    </g>
    <g transform="translate(10 14)">
      <use fill="#000" filter="url(#folder-videos-j)" xlink:href="#folder-videos-k"/>
      <use fill="url(#folder-videos-l)" xlink:href="#folder-videos-k"/>
      <g transform="translate(4 3)">
        <mask id="folder-videos-n" fill="#fff">
          <use xlink:href="#folder-videos-m"/>
        </mask>
        <use fill="#FF006B" xlink:href="#folder-videos-m"/>
        <path fill="#FFB600" d="M4,1.63317355 L4,4.3660949 L2,5.3998514 L2,0.599417054 L4,1.63317355 Z M0,5.29179648 L0,0.707471972 L0,5.29179648 Z" mask="url(#folder-videos-n)"/>
        <rect width="2" height="7" fill="#1473FF" mask="url(#folder-videos-n)"/>
      </g>
    </g>
  </g>
</svg>
