<svg xmlns="http://www.w3.org/2000/svg" xmlns:xlink="http://www.w3.org/1999/xlink" width="32" height="32" viewBox="0 0 32 32">
  <defs>
    <filter id="user-trash-empty-opened-32px-a" width="130.8%" height="130.8%" x="-15.4%" y="-15.4%" filterUnits="objectBoundingBox">
      <feOffset dy="1" in="SourceAlpha" result="shadowOffsetOuter1"/>
      <feGaussianBlur in="shadowOffsetOuter1" result="shadowBlurOuter1" stdDeviation=".5"/>
      <feColorMatrix in="shadowBlurOuter1" result="shadowMatrixOuter1" values="0 0 0 0 0   0 0 0 0 0   0 0 0 0 0  0 0 0 0.15 0"/>
      <feMerge>
        <feMergeNode in="shadowMatrixOuter1"/>
        <feMergeNode in="SourceGraphic"/>
      </feMerge>
    </filter>
    <path id="user-trash-empty-opened-32px-b" d="M1.19005105,0 L24.809949,0 C25.371655,-2.98694302e-15 25.8270078,0.455352746 25.8270078,1.01705882 C25.8270078,1.07012184 25.8228551,1.12310349 25.8145878,1.17551853 L22.4081883,22.7721838 C22.1150169,24.6308984 20.513044,26 18.6313506,26 L7.36864936,26 C5.48695605,26 3.88498307,24.6308984 3.59181167,22.7721838 L0.18541222,1.17551853 C0.0978973434,0.620671822 0.476744642,0.0999348733 1.03159135,0.0124199963 C1.08400638,0.00415267657 1.13698803,-2.12297086e-16 1.19005105,0 Z"/>
    <filter id="user-trash-empty-opened-32px-c" width="175.4%" height="178.9%" x="-37.7%" y="-39.5%" filterUnits="objectBoundingBox">
      <feGaussianBlur in="SourceGraphic" stdDeviation="2.5"/>
    </filter>
  </defs>
  <g fill="none" fill-rule="evenodd" filter="url(#user-trash-empty-opened-32px-a)" transform="translate(3 3)">
    <mask id="user-trash-empty-opened-32px-d" fill="#fff">
      <use xlink:href="#user-trash-empty-opened-32px-b"/>
    </mask>
    <use fill="#FFF" fill-opacity=".8" xlink:href="#user-trash-empty-opened-32px-b"/>
    <path fill="#2D4688" fill-opacity=".3" d="M5.3343309,3 L19.6656691,3 C20.7674772,3 21.6606691,3.89319192 21.6606691,4.995 C21.6606691,5.09908516 21.6525235,5.2030107 21.6363068,5.3058248 L20.0018202,15.6685143 C19.4267532,19.3144546 16.2844216,22 12.5934078,22 L12.4065922,22 C8.71557838,22 5.57324678,19.3144546 4.99817979,15.6685143 L3.3636932,5.3058248 C3.1920294,4.21747165 3.93515295,3.1960261 5.0235061,3.0243623 C5.1263202,3.00814563 5.23024575,3 5.3343309,3 Z" filter="url(#user-trash-empty-opened-32px-c)" mask="url(#user-trash-empty-opened-32px-d)"/>
  </g>
</svg>
