<?xml version="1.0" encoding="UTF-8"?>
<svg width="32px" height="32px" viewBox="0 0 32 32" version="1.1" xmlns="http://www.w3.org/2000/svg" xmlns:xlink="http://www.w3.org/1999/xlink">
    <title>places/32/user-trash</title>
    <defs>
        <filter x="-7.0%" y="-3.8%" width="114.1%" height="115.4%" filterUnits="objectBoundingBox" id="filter-1">
            <feOffset dx="0" dy="1" in="SourceAlpha" result="shadowOffsetOuter1"></feOffset>
            <feGaussianBlur stdDeviation="0.5" in="shadowOffsetOuter1" result="shadowBlurOuter1"></feGaussianBlur>
            <feColorMatrix values="0 0 0 0 0   0 0 0 0 0   0 0 0 0 0  0 0 0 0.15 0" type="matrix" in="shadowBlurOuter1" result="shadowMatrixOuter1"></feColorMatrix>
            <feMerge>
                <feMergeNode in="shadowMatrixOuter1"></feMergeNode>
                <feMergeNode in="SourceGraphic"></feMergeNode>
            </feMerge>
        </filter>
        <radialGradient cx="50%" cy="33.5196055%" fx="50%" fy="33.5196055%" r="66.4803945%" id="radialGradient-2">
            <stop stop-color="#B8C6E3" stop-opacity="0.798295455" offset="0%"></stop>
            <stop stop-color="#BCC9E5" stop-opacity="0.808877585" offset="17.6611632%"></stop>
            <stop stop-color="#BFCAE5" stop-opacity="0.814572356" offset="29.8956866%"></stop>
            <stop stop-color="#E8EBF2" stop-opacity="0.921209162" offset="100%"></stop>
        </radialGradient>
        <path d="M1.19005105,0 L24.809949,0 C25.371655,1.89239713e-15 25.8270078,0.455352746 25.8270078,1.01705882 C25.8270078,1.07012184 25.8228551,1.12310349 25.8145878,1.17551853 L22.4081883,22.7721838 C22.1150169,24.6308984 20.513044,26 18.6313506,26 L7.36864936,26 C5.48695605,26 3.88498307,24.6308984 3.59181167,22.7721838 L0.18541222,1.17551853 C0.0978973434,0.620671822 0.476744642,0.0999348733 1.03159135,0.0124199963 C1.08400638,0.00415267657 1.13698803,4.53836729e-16 1.19005105,4.4408921e-16 Z" id="path-3"></path>
        <filter x="-3.2%" y="-3.8%" width="106.4%" height="107.7%" filterUnits="objectBoundingBox" id="filter-5">
            <feGaussianBlur stdDeviation="0.5" in="SourceAlpha" result="shadowBlurInner1"></feGaussianBlur>
            <feOffset dx="0" dy="1" in="shadowBlurInner1" result="shadowOffsetInner1"></feOffset>
            <feComposite in="shadowOffsetInner1" in2="SourceAlpha" operator="arithmetic" k2="-1" k3="1" result="shadowInnerInner1"></feComposite>
            <feColorMatrix values="0 0 0 0 1   0 0 0 0 1   0 0 0 0 1  0 0 0 0.6 0" type="matrix" in="shadowInnerInner1"></feColorMatrix>
        </filter>
        <linearGradient x1="98.9653716%" y1="50%" x2="0%" y2="50%" id="linearGradient-6">
            <stop stop-color="#9BAF03" offset="0%"></stop>
            <stop stop-color="#4F6A00" offset="45.3652872%"></stop>
            <stop stop-color="#A7BB00" offset="100%"></stop>
        </linearGradient>
    </defs>
    <g id="places/32/user-trash" stroke="none" stroke-width="1" fill="none" fill-rule="evenodd">
        <g id="编组" filter="url(#filter-1)" transform="translate(3, 3)">
            <mask id="mask-4" fill="white">
                <use xlink:href="#path-3"></use>
            </mask>
            <g id="蒙版">
                <use fill="url(#radialGradient-2)" fill-rule="evenodd" xlink:href="#path-3"></use>
                <use fill="black" fill-opacity="1" filter="url(#filter-5)" xlink:href="#path-3"></use>
            </g>
        </g>
        <path d="M15.5926316,12.6946932 C14.1936842,9.87858506 12.7221053,12.1462607 12.7221053,12.1462607 L11.6063158,14.0760445 L13.9031579,15.385504 L15.5926316,12.6946932 Z M20.56,11.8319905 L19.3221053,12.5159905 L18.8684211,11.7344229 C18.8684211,11.7344229 18.5178947,10.9210175 16.7884211,11.0062607 C16.7884211,11.0062607 14.6452632,11.0648013 14.4221053,11.0247472 C14.4221053,11.0247472 15.0294737,11.1418283 15.3315789,11.6009094 L16.7,13.9630715 L15.7,14.513558 L19.0557895,14.5844229 L20.56,11.8319905 Z M12.3347368,18.6432337 C10.5989474,21.2713959 13.3505263,21.3217202 13.3505263,21.3217202 L15.6168421,21.2488013 L15.5715789,18.653504 L12.3347368,18.6432337 Z M9,14.9520986 L10.2421053,15.6278824 L9.79157895,16.411504 C9.79157895,16.411504 9.26315789,17.1283688 10.2368421,18.5230715 C10.2368421,18.5230715 11.4042105,20.2813418 11.4821053,20.4877742 C11.4821053,20.4877742 11.2684211,19.9208553 11.5136842,19.4299364 L12.8715789,17.0616121 L13.8747368,17.6069634 L12.1915789,14.7744229 L9,14.9520986 Z M19.4705263,18.2498824 C22.6694737,18.4470715 21.3715789,16.0808013 21.3715789,16.0808013 L20.2,14.1838824 L17.9010526,15.4902607 L19.4705263,18.2498824 Z M16.0778947,20.2597742 L17.7936842,17.4446932 L17.7936842,18.5672337 L20.5736842,18.5672337 C21.1326316,18.5364229 21.5357895,18.0773418 21.5357895,18.0773418 C21.3894737,18.2437202 20.3852632,20.096477 20.3852632,20.096477 C19.6126316,21.6062067 18.7136842,21.505558 18.7136842,21.505558 L17.7936842,21.505558 L17.7936842,22.8920445 L16.0778947,20.2597742 Z" id="Fill-1" fill="url(#linearGradient-6)"></path>
        <g id="Guide/32" transform="translate(1, 1)"></g>
    </g>
</svg>