<svg xmlns="http://www.w3.org/2000/svg" xmlns:xlink="http://www.w3.org/1999/xlink" width="128" height="128" viewBox="0 0 128 128">
  <defs>
    <filter id="deepin-launcher-a" width="126.7%" height="126.7%" x="-13.3%" y="-13.3%" filterUnits="objectBoundingBox">
      <feOffset dy="2" in="SourceAlpha" result="shadowOffsetOuter1"/>
      <feGaussianBlur in="shadowOffsetOuter1" result="shadowBlurOuter1" stdDeviation="3"/>
      <feColorMatrix in="shadowBlurOuter1" result="shadowMatrixOuter1" values="0 0 0 0 0   0 0 0 0 0   0 0 0 0 0  0 0 0 0.2 0"/>
      <feMerge>
        <feMergeNode in="shadowMatrixOuter1"/>
        <feMergeNode in="SourceGraphic"/>
      </feMerge>
    </filter>
    <linearGradient id="deepin-launcher-b" x1="50%" x2="50%" y1="-7.925%" y2="95.501%">
      <stop offset="0%" stop-color="#FFF"/>
      <stop offset="100%" stop-color="#C5CFE5"/>
    </linearGradient>
    <path id="deepin-launcher-c" d="M1,60 C1,27.4151429 27.4151429,1 60,1 C92.5848571,1 119,27.4151429 119,60 C119,92.5848571 92.5848571,119 60,119 C27.4151429,119 1,92.5848571 1,60 Z"/>
    <filter id="deepin-launcher-d" width="102.5%" height="102.5%" x="-1.3%" y="-1.3%" filterUnits="objectBoundingBox">
      <feOffset dy="-3" in="SourceAlpha" result="shadowOffsetInner1"/>
      <feComposite in="shadowOffsetInner1" in2="SourceAlpha" k2="-1" k3="1" operator="arithmetic" result="shadowInnerInner1"/>
      <feColorMatrix in="shadowInnerInner1" result="shadowMatrixInner1" values="0 0 0 0 0   0 0 0 0 0   0 0 0 0 0  0 0 0 0.13051792 0"/>
      <feOffset dy="2" in="SourceAlpha" result="shadowOffsetInner2"/>
      <feComposite in="shadowOffsetInner2" in2="SourceAlpha" k2="-1" k3="1" operator="arithmetic" result="shadowInnerInner2"/>
      <feColorMatrix in="shadowInnerInner2" result="shadowMatrixInner2" values="0 0 0 0 1   0 0 0 0 1   0 0 0 0 1  0 0 0 1 0"/>
      <feMerge>
        <feMergeNode in="shadowMatrixInner1"/>
        <feMergeNode in="shadowMatrixInner2"/>
      </feMerge>
    </filter>
    <linearGradient id="deepin-launcher-e" x1="50%" x2="50%" y1="0%" y2="100%">
      <stop offset="0%" stop-color="#00389E" stop-opacity=".17"/>
      <stop offset="100%" stop-color="#002071" stop-opacity=".493"/>
    </linearGradient>
    <radialGradient id="deepin-launcher-f" cx="50%" cy="41.557%" r="40.177%" fx="50%" fy="41.557%">
      <stop offset="0%" stop-color="#689ED8" stop-opacity=".744"/>
      <stop offset="100%" stop-color="#387BC2" stop-opacity=".772"/>
    </radialGradient>
    <path id="deepin-launcher-g" d="M62.8284271,69.1923882 L72.7279221,79.0918831 C74.2900192,80.6539803 74.2900192,83.1866402 72.7279221,84.7487373 L62.8284271,94.6482323 C61.26633,96.2103294 58.73367,96.2103294 57.1715729,94.6482323 L47.2720779,84.7487373 C45.7099808,83.1866402 45.7099808,80.6539803 47.2720779,79.0918831 L57.1715729,69.1923882 C58.73367,67.630291 61.26633,67.630291 62.8284271,69.1923882 Z M40.9081169,47.2720779 L50.8076118,57.1715729 C52.369709,58.73367 52.369709,61.26633 50.8076118,62.8284271 L40.9081169,72.7279221 C39.3460197,74.2900192 36.8133598,74.2900192 35.2512627,72.7279221 L25.3517677,62.8284271 C23.7896706,61.26633 23.7896706,58.73367 25.3517677,57.1715729 L35.2512627,47.2720779 C36.8133598,45.7099808 39.3460197,45.7099808 40.9081169,47.2720779 Z M84.7487373,47.2720779 L94.6482323,57.1715729 C96.2103294,58.73367 96.2103294,61.26633 94.6482323,62.8284271 L84.7487373,72.7279221 C83.1866402,74.2900192 80.6539803,74.2900192 79.0918831,72.7279221 L69.1923882,62.8284271 C67.630291,61.26633 67.630291,58.73367 69.1923882,57.1715729 L79.0918831,47.2720779 C80.6539803,45.7099808 83.1866402,45.7099808 84.7487373,47.2720779 Z M62.8284271,25.3517677 L72.7279221,35.2512627 C74.2900192,36.8133598 74.2900192,39.3460197 72.7279221,40.9081169 L62.8284271,50.8076118 C61.26633,52.369709 58.73367,52.369709 57.1715729,50.8076118 L47.2720779,40.9081169 C45.7099808,39.3460197 45.7099808,36.8133598 47.2720779,35.2512627 L57.1715729,25.3517677 C58.73367,23.7896706 61.26633,23.7896706 62.8284271,25.3517677 Z"/>
    <filter id="deepin-launcher-h" width="153%" height="153%" x="-26.5%" y="-26.5%" filterUnits="objectBoundingBox">
      <feGaussianBlur in="SourceAlpha" result="shadowBlurInner1" stdDeviation="18"/>
      <feOffset dy="2" in="shadowBlurInner1" result="shadowOffsetInner1"/>
      <feComposite in="shadowOffsetInner1" in2="SourceAlpha" k2="-1" k3="1" operator="arithmetic" result="shadowInnerInner1"/>
      <feColorMatrix in="shadowInnerInner1" values="0 0 0 0 0   0 0 0 0 0   0 0 0 0 0  0 0 0 0.210008741 0"/>
    </filter>
    <linearGradient id="deepin-launcher-i" x1="125.314%" x2="125.314%" y1="71.813%" y2="0%">
      <stop offset="0%" stop-color="#00366F" stop-opacity=".294"/>
      <stop offset="100%" stop-color="#5581AE"/>
    </linearGradient>
    <linearGradient id="deepin-launcher-j" x1="51.001%" x2="51.001%" y1="0%" y2="100%">
      <stop offset="0%" stop-color="#FEFEFE"/>
      <stop offset="100%" stop-color="#FFF" stop-opacity=".068"/>
    </linearGradient>
  </defs>
  <g fill="none" filter="url(#deepin-launcher-a)" transform="translate(4 4)">
    <use fill="url(#deepin-launcher-b)" xlink:href="#deepin-launcher-c"/>
    <use fill="#000" filter="url(#deepin-launcher-d)" xlink:href="#deepin-launcher-c"/>
    <path fill="url(#deepin-launcher-e)" d="M60,0 C26.8628581,0 0,26.8628581 0,60 C0,93.1371419 26.8628581,120 60,120 C93.1371419,120 120,93.1371419 120,60 C120,26.8628581 93.1371419,0 60,0 Z M60,1 C92.5848571,1 119,27.4151429 119,60 C119,92.5848571 92.5848571,119 60,119 C27.4151429,119 1,92.5848571 1,60 C1,27.4151429 27.4151429,1 60,1 Z"/>
    <use fill="url(#deepin-launcher-f)" xlink:href="#deepin-launcher-g"/>
    <use fill="#000" filter="url(#deepin-launcher-h)" xlink:href="#deepin-launcher-g"/>
    <path fill="url(#deepin-launcher-i)" d="M62.8284271,69.1923882 L72.7279221,79.0918831 C74.2900192,80.6539803 74.2900192,83.1866402 72.7279221,84.7487373 L62.8284271,94.6482323 C62.0994484,95.377211 61.1591028,95.7659996 60.204666,95.8145982 L60,95.8198052 C58.9763107,95.8198052 57.9526215,95.4292809 57.1715729,94.6482323 L47.2720779,84.7487373 C45.7099808,83.1866402 45.7099808,80.6539803 47.2720779,79.0918831 L57.1715729,69.1923882 C57.9005516,68.4634095 58.8408972,68.0746208 59.795334,68.0260223 L60,68.0208153 C61.0236893,68.0208153 62.0473785,68.4113396 62.8284271,69.1923882 Z M58.0226693,69.7645297 L57.8786797,69.8994949 L47.9791847,79.7989899 C46.8544748,80.9236998 46.8094864,82.7192628 47.8442195,83.897641 L47.9791847,84.0416306 L57.8786797,93.9411255 C59.0033896,95.0658355 60.7989525,95.1108239 61.9773307,94.0760907 L62.1213203,93.9411255 L72.0208153,84.0416306 C73.1455252,82.9169206 73.1905136,81.1213577 72.1557805,79.9429795 L72.0208153,79.7989899 L62.1213203,69.8994949 C61.0434733,68.8216479 59.349513,68.7354201 58.1730879,69.6408116 L58.0226693,69.7645297 Z M40.9081169,47.2720779 L50.8076118,57.1715729 C52.369709,58.73367 52.369709,61.26633 50.8076118,62.8284271 L40.9081169,72.7279221 C40.1791382,73.4569007 39.2387926,73.8456894 38.2843557,73.8942879 L38.0796898,73.8994949 C37.0560005,73.8994949 36.0323112,73.5089706 35.2512627,72.7279221 L25.3517677,62.8284271 C23.7896706,61.26633 23.7896706,58.73367 25.3517677,57.1715729 L35.2512627,47.2720779 C35.9802413,46.5430993 36.920587,46.1543106 37.8750238,46.1057121 L38.0796898,46.1005051 C39.1033791,46.1005051 40.1270683,46.4910294 40.9081169,47.2720779 Z M84.7487373,47.2720779 L94.6482323,57.1715729 C96.2103294,58.73367 96.2103294,61.26633 94.6482323,62.8284271 L84.7487373,72.7279221 C84.0197587,73.4569007 83.079413,73.8456894 82.1249762,73.8942879 L81.9203102,73.8994949 C80.8966209,73.8994949 79.8729317,73.5089706 79.0918831,72.7279221 L69.1923882,62.8284271 C67.630291,61.26633 67.630291,58.73367 69.1923882,57.1715729 L79.0918831,47.2720779 C79.8208618,46.5430993 80.7612074,46.1543106 81.7156443,46.1057121 L81.9203102,46.1005051 C82.9439995,46.1005051 83.9676888,46.4910294 84.7487373,47.2720779 Z M36.102359,47.8442195 L35.9583694,47.9791847 L26.0588745,57.8786797 C24.9341645,59.0033896 24.8891761,60.7989525 25.9239093,61.9773307 L26.0588745,62.1213203 L35.9583694,72.0208153 C37.0830794,73.1455252 38.8786423,73.1905136 40.0570205,72.1557805 L40.2010101,72.0208153 L50.1005051,62.1213203 C51.225215,60.9966104 51.2702034,59.2010475 50.2354703,58.0226693 L50.1005051,57.8786797 L40.2010101,47.9791847 C39.1231631,46.9013377 37.4292028,46.8151099 36.2527776,47.7205014 L36.102359,47.8442195 Z M79.9429795,47.8442195 L79.7989899,47.9791847 L69.8994949,57.8786797 C68.774785,59.0033896 68.7297966,60.7989525 69.7645297,61.9773307 L69.8994949,62.1213203 L79.7989899,72.0208153 C80.9236998,73.1455252 82.7192628,73.1905136 83.897641,72.1557805 L84.0416306,72.0208153 L93.9411255,62.1213203 C95.0658355,60.9966104 95.1108239,59.2010475 94.0760907,58.0226693 L93.9411255,57.8786797 L84.0416306,47.9791847 C82.9637835,46.9013377 81.2698232,46.8151099 80.0933981,47.7205014 L79.9429795,47.8442195 Z M62.8284271,25.3517677 L72.7279221,35.2512627 C74.2900192,36.8133598 74.2900192,39.3460197 72.7279221,40.9081169 L62.8284271,50.8076118 C62.0994484,51.5365905 61.1591028,51.9253792 60.204666,51.9739777 L60,51.9791847 C58.9763107,51.9791847 57.9526215,51.5886604 57.1715729,50.8076118 L47.2720779,40.9081169 C45.7099808,39.3460197 45.7099808,36.8133598 47.2720779,35.2512627 L57.1715729,25.3517677 C57.9005516,24.622789 58.8408972,24.2340004 59.795334,24.1854018 L60,24.1801948 C61.0236893,24.1801948 62.0473785,24.5707191 62.8284271,25.3517677 Z M58.0226693,25.9239093 L57.8786797,26.0588745 L47.9791847,35.9583694 C46.8544748,37.0830794 46.8094864,38.8786423 47.8442195,40.0570205 L47.9791847,40.2010101 L57.8786797,50.1005051 C59.0033896,51.225215 60.7989525,51.2702034 61.9773307,50.2354703 L62.1213203,50.1005051 L72.0208153,40.2010101 C73.1455252,39.0763002 73.1905136,37.2807372 72.1557805,36.102359 L72.0208153,35.9583694 L62.1213203,26.0588745 C60.9966104,24.9341645 59.2010475,24.8891761 58.0226693,25.9239093 Z"/>
    <path fill="url(#deepin-launcher-j)" d="M56.4644661,68.4852814 C58.3579172,66.5918303 61.3921583,66.534453 63.3547482,68.3131495 L63.5355339,68.4852814 L73.4350288,78.3847763 C75.32848,80.2782274 75.3858573,83.3124685 73.6071608,85.2750584 L73.4350288,85.4558441 L63.5355339,95.3553391 C61.6420828,97.2487902 58.6078417,97.3061675 56.6452518,95.527471 L56.4644661,95.3553391 L46.5649712,85.4558441 C44.67152,83.562393 44.6141427,80.5281519 46.3928392,78.565562 L46.5649712,78.3847763 L56.4644661,68.4852814 Z M60,68.0208153 C59.0550561,68.0208153 58.1101121,68.3535697 57.3560116,69.0190786 L57.1715729,69.1923882 L47.2720779,79.0918831 C45.7620507,80.6019104 45.7117164,83.0188746 47.1210752,84.5893643 L47.2720779,84.7487373 L57.1715729,94.6482323 C57.9526215,95.4292809 58.9763107,95.8198052 60,95.8198052 L60.204666,95.8145982 C61.0795664,95.7700495 61.9426263,95.4396466 62.6418931,94.8233897 L62.8284271,94.6482323 L72.7279221,84.7487373 C74.2379493,83.2387101 74.2882836,80.8217459 72.8789248,79.2512561 L72.7279221,79.0918831 L62.8284271,69.1923882 C62.0994484,68.4634095 61.1591028,68.0746208 60.204666,68.0260223 L60,68.0208153 Z M34.5441559,46.5649712 C36.437607,44.67152 39.4718481,44.6141427 41.434438,46.3928392 L41.6152237,46.5649712 L51.5147186,56.4644661 C53.4081697,58.3579172 53.465547,61.3921583 51.6868505,63.3547482 L51.5147186,63.5355339 L41.6152237,73.4350288 C39.7217726,75.32848 36.6875315,75.3858573 34.7249416,73.6071608 L34.5441559,73.4350288 L24.6446609,63.5355339 C22.7512098,61.6420828 22.6938325,58.6078417 24.472529,56.6452518 L24.6446609,56.4644661 L34.5441559,46.5649712 Z M78.3847763,46.5649712 C80.2782274,44.67152 83.3124685,44.6141427 85.2750584,46.3928392 L85.4558441,46.5649712 L95.3553391,56.4644661 C97.2487902,58.3579172 97.3061675,61.3921583 95.527471,63.3547482 L95.3553391,63.5355339 L85.4558441,73.4350288 C83.562393,75.32848 80.5281519,75.3858573 78.565562,73.6071608 L78.3847763,73.4350288 L68.4852814,63.5355339 C66.5918303,61.6420828 66.534453,58.6078417 68.3131495,56.6452518 L68.4852814,56.4644661 L78.3847763,46.5649712 Z M38.0796898,46.1005051 C37.1347458,46.1005051 36.1898019,46.4332595 35.4357014,47.0987683 L35.2512627,47.2720779 L25.3517677,57.1715729 C23.8417405,58.6816001 23.7914062,61.0985644 25.200765,62.6690541 L25.3517677,62.8284271 L35.2512627,72.7279221 C36.0323112,73.5089706 37.0560005,73.8994949 38.0796898,73.8994949 L38.2843557,73.8942879 C39.1592562,73.8497392 40.0223161,73.5193364 40.7215829,72.9030794 L40.9081169,72.7279221 L50.8076118,62.8284271 C52.3176391,61.3183999 52.3679733,58.9014356 50.9586146,57.3309459 L50.8076118,57.1715729 L40.9081169,47.2720779 C40.1791382,46.5430993 39.2387926,46.1543106 38.2843557,46.1057121 L38.0796898,46.1005051 Z M81.9203102,46.1005051 C80.9753663,46.1005051 80.0304223,46.4332595 79.2763219,47.0987683 L79.0918831,47.2720779 L69.1923882,57.1715729 C67.6823609,58.6816001 67.6320267,61.0985644 69.0413854,62.6690541 L69.1923882,62.8284271 L79.0918831,72.7279221 C79.8729317,73.5089706 80.8966209,73.8994949 81.9203102,73.8994949 L82.1249762,73.8942879 C82.9998766,73.8497392 83.8629365,73.5193364 84.5622034,72.9030794 L84.7487373,72.7279221 L94.6482323,62.8284271 C96.1582595,61.3183999 96.2085938,58.9014356 94.799235,57.3309459 L94.6482323,57.1715729 L84.7487373,47.2720779 C84.0197587,46.5430993 83.079413,46.1543106 82.1249762,46.1057121 L81.9203102,46.1005051 Z M56.4644661,24.6446609 C58.3579172,22.7512098 61.3921583,22.6938325 63.3547482,24.472529 L63.5355339,24.6446609 L73.4350288,34.5441559 C75.32848,36.437607 75.3858573,39.4718481 73.6071608,41.434438 L73.4350288,41.6152237 L63.5355339,51.5147186 C61.6420828,53.4081697 58.6078417,53.465547 56.6452518,51.6868505 L56.4644661,51.5147186 L46.5649712,41.6152237 C44.67152,39.7217726 44.6141427,36.6875315 46.3928392,34.7249416 L46.5649712,34.5441559 L56.4644661,24.6446609 Z M60,24.1801948 C59.0550561,24.1801948 58.1101121,24.5129493 57.3560116,25.1784581 L57.1715729,25.3517677 L47.2720779,35.2512627 C45.7620507,36.7612899 45.7117164,39.1782541 47.1210752,40.7487439 L47.2720779,40.9081169 L57.1715729,50.8076118 C57.9526215,51.5886604 58.9763107,51.9791847 60,51.9791847 L60.204666,51.9739777 C61.0795664,51.929429 61.9426263,51.5990262 62.6418931,50.9827692 L62.8284271,50.8076118 L72.7279221,40.9081169 C74.2379493,39.3980896 74.2882836,36.9811254 72.8789248,35.4106357 L72.7279221,35.2512627 L62.8284271,25.3517677 C62.0994484,24.622789 61.1591028,24.2340004 60.204666,24.1854018 L60,24.1801948 Z"/>
  </g>
</svg>
