<svg xmlns="http://www.w3.org/2000/svg" xmlns:xlink="http://www.w3.org/1999/xlink" width="128" height="128" viewBox="0 0 128 128">
  <defs>
    <filter id="folder-documents-a" width="128.6%" height="133.3%" x="-14.3%" y="-16.7%" filterUnits="objectBoundingBox">
      <feOffset dy="2" in="SourceAlpha" result="shadowOffsetOuter1"/>
      <feGaussianBlur in="shadowOffsetOuter1" result="shadowBlurOuter1" stdDeviation="3"/>
      <feColorMatrix in="shadowBlurOuter1" result="shadowMatrixOuter1" values="0 0 0 0 0   0 0 0 0 0   0 0 0 0 0  0 0 0 0.2 0"/>
      <feMerge>
        <feMergeNode in="shadowMatrixOuter1"/>
        <feMergeNode in="SourceGraphic"/>
      </feMerge>
    </filter>
    <path id="folder-documents-b" d="M63,6 C64.5138782,9.63330765 68.0639167,12 72,12 L108,12 C110.209139,12 112,13.790861 112,16 L112,92 C112,94.209139 110.209139,96 108,96 L4,96 C1.790861,96 2.705415e-16,94.209139 0,92 L0,4 C-2.705415e-16,1.790861 1.790861,4.05812251e-16 4,0 L54,0 C57.9360833,-7.2304677e-16 61.4861218,2.36669235 63,6 Z"/>
    <filter id="folder-documents-c" width="101.8%" height="102.1%" x="-.9%" y="-1%" filterUnits="objectBoundingBox">
      <feOffset dy="2" in="SourceAlpha" result="shadowOffsetInner1"/>
      <feComposite in="shadowOffsetInner1" in2="SourceAlpha" k2="-1" k3="1" operator="arithmetic" result="shadowInnerInner1"/>
      <feColorMatrix in="shadowInnerInner1" values="0 0 0 0 1   0 0 0 0 1   0 0 0 0 1  0 0 0 0.5 0"/>
    </filter>
    <radialGradient id="folder-documents-d" cx="50%" cy="0%" r="116.795%" fx="50%" fy="0%" gradientTransform="matrix(.06172 .9955 -.64886 .0947 .47 -.498)">
      <stop offset="0%" stop-color="#D8EAFF"/>
      <stop offset="100%" stop-color="#A1C8E7"/>
    </radialGradient>
    <path id="folder-documents-e" d="M0,0 L112,0 L112,69 C112,71.209139 110.209139,73 108,73 L4,73 C1.790861,73 2.705415e-16,71.209139 0,69 L0,0 L0,0 Z"/>
    <filter id="folder-documents-f" width="101.8%" height="102.7%" x="-.9%" y="-1.4%" filterUnits="objectBoundingBox">
      <feOffset dy="2" in="SourceAlpha" result="shadowOffsetInner1"/>
      <feComposite in="shadowOffsetInner1" in2="SourceAlpha" k2="-1" k3="1" operator="arithmetic" result="shadowInnerInner1"/>
      <feColorMatrix in="shadowInnerInner1" values="0 0 0 0 1   0 0 0 0 1   0 0 0 0 1  0 0 0 0.5 0"/>
    </filter>
  </defs>
  <g fill="none" fill-rule="evenodd">
    <g filter="url(#folder-documents-a)" transform="translate(8 22)">
      <use fill="#A3C6EB" xlink:href="#folder-documents-b"/>
      <use fill="#000" filter="url(#folder-documents-c)" xlink:href="#folder-documents-b"/>
      <path stroke="#5C889C" stroke-linejoin="square" d="M54,0.5 C55.8671164,0.5 57.642671,1.06133088 59.1309768,2.05353478 C60.6192827,3.04573868 61.8203398,4.4688156 62.5384615,6.19230769 C63.334218,8.10212325 64.6651192,9.67904633 66.314323,10.7785155 C67.9635268,11.8779847 69.9310331,12.5 72,12.5 L72,12.5 L108,12.5 C108.966498,12.5 109.841498,12.8917508 110.474874,13.5251263 C111.108249,14.1585017 111.5,15.0335017 111.5,16 L111.5,16 L111.5,92 C111.5,92.9664983 111.108249,93.8414983 110.474874,94.4748737 C109.841498,95.1082492 108.966498,95.5 108,95.5 L108,95.5 L4,95.5 C3.03350169,95.5 2.15850169,95.1082492 1.52512627,94.4748737 C0.891750844,93.8414983 0.5,92.9664983 0.5,92 L0.5,92 L0.5,4 C0.5,3.03350169 0.891750844,2.15850169 1.52512627,1.52512627 C2.15850169,0.891750844 3.03350169,0.5 4,0.5 L4,0.5 Z"/>
      <path fill="#FFF" stroke="#5C889C" d="M103,16.5 C103.966498,16.5 104.841498,16.8917508 105.474874,17.5251263 C106.108249,18.1585017 106.5,19.0335017 106.5,20 L106.5,20 L106.5,54 C106.5,54.9664983 106.108249,55.8414983 105.474874,56.4748737 C104.841498,57.1082492 103.966498,57.5 103,57.5 L103,57.5 L9,57.5 C8.03350169,57.5 7.15850169,57.1082492 6.52512627,56.4748737 C5.89175084,55.8414983 5.5,54.9664983 5.5,54 L5.5,54 L5.5,20 C5.5,19.0335017 5.89175084,18.1585017 6.52512627,17.5251263 C7.15850169,16.8917508 8.03350169,16.5 9,16.5 L9,16.5 Z"/>
      <g transform="translate(0 23)">
        <use fill="url(#folder-documents-d)" xlink:href="#folder-documents-e"/>
        <use fill="#000" filter="url(#folder-documents-f)" xlink:href="#folder-documents-e"/>
        <path stroke="#5C819C" stroke-linejoin="square" d="M111.5,0.5 L111.5,69 C111.5,69.9664983 111.108249,70.8414983 110.474874,71.4748737 C109.841498,72.1082492 108.966498,72.5 108,72.5 L108,72.5 L4,72.5 C3.03350169,72.5 2.15850169,72.1082492 1.52512627,71.4748737 C0.891750844,70.8414983 0.5,69.9664983 0.5,69 L0.5,69 L0.5,0.5 L111.5,0.5 Z"/>
      </g>
    </g>
    <g transform="translate(40 53)">
      <g transform="translate(0 3.035)">
        <path fill="#2A4052" fill-opacity=".4" stroke="#3E6F84" d="M36,1.46460177 C36.9664983,1.46460177 37.8414983,1.85635261 38.4748737,2.48972804 C39.1082492,3.12310346 39.5,3.99810346 39.5,4.96460177 L39.5,4.96460177 L39.5,45.9646018 C39.5,46.9311001 39.1082492,47.8061001 38.4748737,48.4394755 C37.8414983,49.0728509 36.9664983,49.4646018 36,49.4646018 L36,49.4646018 L4,49.4646018 C3.03350169,49.4646018 2.15850169,49.0728509 1.52512627,48.4394755 C0.891750844,47.8061001 0.5,46.9311001 0.5,45.9646018 L0.5,45.9646018 L0.5,4.96460177 C0.5,3.99810346 0.891750844,3.12310346 1.52512627,2.48972804 C2.15850169,1.85635261 3.03350169,1.46460177 4,1.46460177 L4,1.46460177 Z"/>
        <path fill="#3E6F84" fill-rule="nonzero" d="M36,43.9646018 L36,44.9646018 L4,44.9646018 L4,43.9646018 L36,43.9646018 Z M21,39.9646018 L21,40.9646018 L4,40.9646018 L4,39.9646018 L21,39.9646018 Z M36,35.9646018 L36,36.9646018 L4,36.9646018 L4,35.9646018 L36,35.9646018 Z M36,31.9646018 L36,32.9646018 L4,32.9646018 L4,31.9646018 L36,31.9646018 Z M36,27.9646018 L36,28.9646018 L4,28.9646018 L4,27.9646018 L36,27.9646018 Z M36,23.9646018 L36,24.9646018 L4,24.9646018 L4,23.9646018 L36,23.9646018 Z M36,19.9646018 L36,20.9646018 L24,20.9646018 L24,19.9646018 L36,19.9646018 Z M36,15.9646018 L36,16.9646018 L24,16.9646018 L24,15.9646018 L36,15.9646018 Z M36,11.9646018 L36,12.9646018 L24,12.9646018 L24,11.9646018 L36,11.9646018 Z M36,7.96460177 L36,8.96460177 L24,8.96460177 L24,7.96460177 L36,7.96460177 Z"/>
        <path fill="#2A4052" fill-opacity=".4" d="M22,7.96460177 L22,20.9646018 L4,20.9646018 L4,7.96460177 L22,7.96460177 Z M8.897385,14.4973292 C8.84324279,14.5319514 8.79628274,14.5766866 8.75907541,14.629086 L4.91935484,20.0365941 L18.0241935,20.0365941 L14.8083542,16.4316546 C14.6379274,16.2406071 14.350724,16.2091586 14.1429924,16.3587983 L12.2017477,17.7571755 C11.9776859,17.9185786 11.665205,17.8677837 11.5038019,17.6437219 C11.4984127,17.6362406 11.4932316,17.6286117 11.4882643,17.6208439 L9.58799033,14.6491985 C9.43922248,14.4165555 9.13002794,14.3485613 8.897385,14.4973292 Z M17.6370968,10.3604401 C16.9155635,10.3604401 16.3306452,10.9586074 16.3306452,11.6964841 C16.3306452,12.4343608 16.9155635,13.0325281 17.6370968,13.0325281 C18.3586301,13.0325281 18.9435484,12.4343608 18.9435484,11.6964841 C18.9435484,10.9586074 18.3586301,10.3604401 17.6370968,10.3604401 Z"/>
        <path fill="#3E6F84" fill-rule="nonzero" d="M22,7.96460177 L22,20.9646018 L4,20.9646018 L4,7.96460177 L22,7.96460177 Z M21,8.96460177 L5,8.96460177 L5,19.9646018 L21,19.9646018 L21,8.96460177 Z"/>
        <path fill="#3E6F84" fill-rule="nonzero" d="M8.48405211,13.5828137 C9.16403992,13.2342581 10.0104145,13.4535882 10.4304649,14.1104624 L10.4304649,14.1104624 L12.045,16.637 L13.5585002,15.5473989 C14.1401487,15.128408 14.9294835,15.1826605 15.4478328,15.6577425 L15.4478328,15.6577425 L15.5545855,15.7659679 L19.2988235,19.9633804 L17.9588235,19.9633804 L14.8083542,16.4316546 L14.7393535,16.367535 C14.5673683,16.2355745 14.3247575,16.2278636 14.1429924,16.3587983 L14.1429924,16.3587983 L12.2017477,17.7571755 L12.1241142,17.8031708 C11.9101109,17.9051517 11.6472713,17.8428879 11.5038019,17.6437219 L11.5038019,17.6437219 L9.58799033,14.6491985 L9.53278439,14.5778204 C9.37145766,14.4041218 9.10417873,14.3650911 8.897385,14.4973292 C8.84324279,14.5319514 8.79628274,14.5766866 8.75907541,14.629086 L8.75907541,14.629086 L4.99882347,19.9253804 L4.99882347,18.1973804 L7.94372017,14.050125 C8.02743667,13.9322264 8.12761086,13.8272611 8.24098942,13.7383284 L8.35864895,13.6548546 Z"/>
        <path stroke="#3E6F84" d="M17.6370968,9.86044009 C18.1371924,9.86044009 18.5904769,10.0668477 18.9183879,10.4021862 C19.2422909,10.7334259 19.4435484,11.1907778 19.4435484,11.6964841 C19.4435484,12.2021903 19.2422909,12.6595423 18.9183879,12.990782 C18.5904769,13.3261205 18.1371924,13.5325281 17.6370968,13.5325281 C17.1370011,13.5325281 16.6837167,13.3261205 16.3558057,12.990782 C16.0319027,12.6595423 15.8306452,12.2021903 15.8306452,11.6964841 C15.8306452,11.1907778 16.0319027,10.7334259 16.3558057,10.4021862 C16.6837167,10.0668477 17.1370011,9.86044009 17.6370968,9.86044009 Z"/>
      </g>
      <g transform="translate(46)">
        <polygon fill="#2A4052" fill-opacity=".4" points="0 8.062 3 8.062 3 50.442 0 50.442"/>
        <path fill="#3E6F84" fill-rule="nonzero" d="M3,8.0619469 L3,50.4424779 L0,50.4424779 L0,8.0619469 L3,8.0619469 Z M2,9.061 L1,9.061 L1,49.442 L2,49.442 L2,9.061 Z"/>
        <rect width="2" height="1.522" x=".5" y="49.942" fill="#2A4052" fill-opacity=".4" stroke="#3E6F84"/>
        <path fill="#2A4052" fill-opacity=".4" d="M0,52.9646018 L3,52.9646018 L3,54.4867257 C3,55.0390104 2.55228475,55.4867257 2,55.4867257 L1,55.4867257 C0.44771525,55.4867257 0,55.0390104 0,54.4867257 L0,52.9646018 Z"/>
        <path fill="#3E6F84" fill-rule="nonzero" d="M3,52.9646018 L3,54.4867257 C3,55.0390104 2.55228475,55.4867257 2,55.4867257 L1,55.4867257 C0.44771525,55.4867257 0,55.0390104 0,54.4867257 L0,52.9646018 L3,52.9646018 Z M2,53.964 L1,53.964 L1,54.4867257 L2,54.4867257 L2,53.964 Z"/>
        <polygon fill="#2A4052" fill-opacity=".4" points="1.5 .404 3 7.062 0 7.062"/>
        <path fill="#3E6F84" fill-rule="nonzero" d="M1.5,0.403539823 L3,7.0619469 L0,7.0619469 L1.5,0.403539823 Z M1.499,4.953 L1.25,6.061 L1.749,6.061 L1.499,4.953 Z"/>
      </g>
    </g>
  </g>
</svg>
