<svg xmlns="http://www.w3.org/2000/svg" xmlns:xlink="http://www.w3.org/1999/xlink" width="128" height="128" viewBox="0 0 128 128">
  <defs>
    <filter id="folder-downloads-a" width="128.6%" height="133.3%" x="-14.3%" y="-16.7%" filterUnits="objectBoundingBox">
      <feOffset dy="2" in="SourceAlpha" result="shadowOffsetOuter1"/>
      <feGaussianBlur in="shadowOffsetOuter1" result="shadowBlurOuter1" stdDeviation="3"/>
      <feColorMatrix in="shadowBlurOuter1" result="shadowMatrixOuter1" values="0 0 0 0 0   0 0 0 0 0   0 0 0 0 0  0 0 0 0.2 0"/>
      <feMerge>
        <feMergeNode in="shadowMatrixOuter1"/>
        <feMergeNode in="SourceGraphic"/>
      </feMerge>
    </filter>
    <path id="folder-downloads-b" d="M63,6 C64.5138782,9.63330765 68.0639167,12 72,12 L108,12 C110.209139,12 112,13.790861 112,16 L112,92 C112,94.209139 110.209139,96 108,96 L4,96 C1.790861,96 2.705415e-16,94.209139 0,92 L0,4 C-2.705415e-16,1.790861 1.790861,4.05812251e-16 4,0 L54,0 C57.9360833,-7.2304677e-16 61.4861218,2.36669235 63,6 Z"/>
    <filter id="folder-downloads-c" width="101.8%" height="102.1%" x="-.9%" y="-1%" filterUnits="objectBoundingBox">
      <feOffset dy="2" in="SourceAlpha" result="shadowOffsetInner1"/>
      <feComposite in="shadowOffsetInner1" in2="SourceAlpha" k2="-1" k3="1" operator="arithmetic" result="shadowInnerInner1"/>
      <feColorMatrix in="shadowInnerInner1" values="0 0 0 0 1   0 0 0 0 1   0 0 0 0 1  0 0 0 0.5 0"/>
    </filter>
    <radialGradient id="folder-downloads-d" cx="50%" cy="0%" r="116.795%" fx="50%" fy="0%" gradientTransform="matrix(.06172 .9955 -.64886 .0947 .47 -.498)">
      <stop offset="0%" stop-color="#D8EAFF"/>
      <stop offset="100%" stop-color="#A1C8E7"/>
    </radialGradient>
    <path id="folder-downloads-e" d="M0,0 L112,0 L112,69 C112,71.209139 110.209139,73 108,73 L4,73 C1.790861,73 2.705415e-16,71.209139 0,69 L0,0 L0,0 Z"/>
    <filter id="folder-downloads-f" width="101.8%" height="102.7%" x="-.9%" y="-1.4%" filterUnits="objectBoundingBox">
      <feOffset dy="2" in="SourceAlpha" result="shadowOffsetInner1"/>
      <feComposite in="shadowOffsetInner1" in2="SourceAlpha" k2="-1" k3="1" operator="arithmetic" result="shadowInnerInner1"/>
      <feColorMatrix in="shadowInnerInner1" values="0 0 0 0 1   0 0 0 0 1   0 0 0 0 1  0 0 0 0.5 0"/>
    </filter>
  </defs>
  <g fill="none" fill-rule="evenodd">
    <g filter="url(#folder-downloads-a)" transform="translate(8 22)">
      <use fill="#A3C6EB" xlink:href="#folder-downloads-b"/>
      <use fill="#000" filter="url(#folder-downloads-c)" xlink:href="#folder-downloads-b"/>
      <path stroke="#5C889C" stroke-linejoin="square" d="M54,0.5 C55.8671164,0.5 57.642671,1.06133088 59.1309768,2.05353478 C60.6192827,3.04573868 61.8203398,4.4688156 62.5384615,6.19230769 C63.334218,8.10212325 64.6651192,9.67904633 66.314323,10.7785155 C67.9635268,11.8779847 69.9310331,12.5 72,12.5 L72,12.5 L108,12.5 C108.966498,12.5 109.841498,12.8917508 110.474874,13.5251263 C111.108249,14.1585017 111.5,15.0335017 111.5,16 L111.5,16 L111.5,92 C111.5,92.9664983 111.108249,93.8414983 110.474874,94.4748737 C109.841498,95.1082492 108.966498,95.5 108,95.5 L108,95.5 L4,95.5 C3.03350169,95.5 2.15850169,95.1082492 1.52512627,94.4748737 C0.891750844,93.8414983 0.5,92.9664983 0.5,92 L0.5,92 L0.5,4 C0.5,3.03350169 0.891750844,2.15850169 1.52512627,1.52512627 C2.15850169,0.891750844 3.03350169,0.5 4,0.5 L4,0.5 Z"/>
      <path fill="#FFF" stroke="#5C889C" d="M103,16.5 C103.966498,16.5 104.841498,16.8917508 105.474874,17.5251263 C106.108249,18.1585017 106.5,19.0335017 106.5,20 L106.5,20 L106.5,54 C106.5,54.9664983 106.108249,55.8414983 105.474874,56.4748737 C104.841498,57.1082492 103.966498,57.5 103,57.5 L103,57.5 L9,57.5 C8.03350169,57.5 7.15850169,57.1082492 6.52512627,56.4748737 C5.89175084,55.8414983 5.5,54.9664983 5.5,54 L5.5,54 L5.5,20 C5.5,19.0335017 5.89175084,18.1585017 6.52512627,17.5251263 C7.15850169,16.8917508 8.03350169,16.5 9,16.5 L9,16.5 Z"/>
      <g transform="translate(0 23)">
        <use fill="url(#folder-downloads-d)" xlink:href="#folder-downloads-e"/>
        <use fill="#000" filter="url(#folder-downloads-f)" xlink:href="#folder-downloads-e"/>
        <path stroke="#5C819C" stroke-linejoin="square" d="M111.5,0.5 L111.5,69 C111.5,69.9664983 111.108249,70.8414983 110.474874,71.4748737 C109.841498,72.1082492 108.966498,72.5 108,72.5 L108,72.5 L4,72.5 C3.03350169,72.5 2.15850169,72.1082492 1.52512627,71.4748737 C0.891750844,70.8414983 0.5,69.9664983 0.5,69 L0.5,69 L0.5,0.5 L111.5,0.5 Z"/>
      </g>
    </g>
    <path fill="#2A4052" fill-opacity=".4" d="M64,56 C77.254834,56 88,66.745166 88,80 C88,93.254834 77.254834,104 64,104 C50.745166,104 40,93.254834 40,80 C40,66.745166 50.745166,56 64,56 Z M69.3649486,76 L58.6350514,76 L58.5185833,76.0068285 C58.0218972,76.0654364 57.6363636,76.4938387 57.6363636,77.0019409 L57.6363636,77.0019409 L57.6363636,79.328293 L57.6312545,79.5042402 C57.5397191,81.0758653 56.2298374,82.3148918 54.6401879,82.3054232 L54.6401879,82.3054232 L52.9961758,82.2956307 L52.8348553,82.2978813 C51.3156865,82.3506502 50.9672988,83.294983 52.0657482,84.4500979 L52.0657482,84.4500979 L61.9342518,94.8276864 L62.0689765,94.9607727 C63.2167085,96.0252931 64.9731262,95.9766733 66.0657482,94.8276864 L66.0657482,94.8276864 L75.9342518,84.4500979 L76.0431402,84.3309357 C77.0455855,83.1871415 76.5973989,82.2861387 75.0038242,82.2956307 L75.0038242,82.2956307 L73.3598121,82.3054232 L73.183764,82.3013872 C71.6109643,82.2196549 70.3636364,80.9231963 70.3636364,79.328293 L70.3636364,79.328293 L70.3636364,77.0019409 L70.3568344,76.8850934 C70.2984531,76.3867894 69.8716862,76 69.3649486,76 L69.3649486,76 Z M69,69 L59,69 C58.4477153,69 58,69.4477153 58,70 L58,70 L58,71 C58,71.5522847 58.4477153,72 59,72 L59,72 L69,72 C69.5522847,72 70,71.5522847 70,71 L70,71 L70,70 C70,69.4477153 69.5522847,69 69,69 L69,69 Z M69.5,65 L58.5,65 C58.2238576,65 58,65.2238576 58,65.5 C58,65.7761424 58.2238576,66 58.5,66 L58.5,66 L69.5,66 C69.7761424,66 70,65.7761424 70,65.5 C70,65.2238576 69.7761424,65 69.5,65 L69.5,65 Z"/>
    <circle cx="64" cy="80" r="23.5" stroke="#3E6F84"/>
    <path fill="#3E6F84" fill-rule="nonzero" d="M69.3649486,75 C70.324943,75 71.1421846,75.6873933 71.3297902,76.6619612 L71.3551444,76.8269796 L71.3636364,77.0019409 L71.3636364,79.328293 C71.3636364,80.3311185 72.1067831,81.1613308 73.0552907,81.2876343 L73.2066833,81.3016499 L73.3538558,81.3054409 L74.9978679,81.2956485 C77.3650121,81.2815488 78.3364982,83.0820775 76.8968674,84.8681702 L76.7813538,85.0055027 L76.6589096,85.1392068 L66.790406,95.5167952 C65.3745372,97.0057042 63.1048916,97.1271874 61.5319964,95.8179455 L61.3662087,95.672192 L61.209594,95.5167952 L51.3410904,85.1392068 C49.7099738,83.4239461 50.3545485,81.48197 52.6417388,81.3078518 L52.8209058,81.2979786 L53.0021321,81.2956485 L54.6461442,81.3054409 C55.6462803,81.3113981 56.484296,80.571459 56.6167111,79.6261086 L56.6316758,79.4752145 L56.6363636,79.328293 L56.6363636,77.0019409 C56.6363636,76.042067 57.3211961,75.2225735 58.2951239,75.0340389 L58.4600542,75.0085428 L58.6350514,75 L69.3649486,75 Z M58.6350514,76 L58.5185833,76.0068285 C58.0601039,76.0609281 57.6963342,76.4301188 57.6430825,76.8862334 L57.6363636,77.0019409 L57.6363636,79.328293 L57.6312545,79.5042402 C57.5431093,81.0176569 56.3251945,82.2226558 54.8156166,82.3013839 L54.6401879,82.3054232 L52.9961758,82.2956307 L52.8348553,82.2978813 C51.3680716,82.3488306 50.9927177,83.2309167 51.9572653,84.3313831 L52.0657482,84.4500979 L61.9342518,94.8276864 L62.0689765,94.9607727 C62.6198879,95.4717425 63.3110404,95.7262448 64.0017079,95.7256931 L64.1742832,95.7202412 C64.7949316,95.6814944 65.4056881,95.4362486 65.9039632,94.9855333 L66.0657482,94.8276864 L75.9342518,84.4500979 L76.0431402,84.3309357 C77.0110185,83.2265826 76.6265834,82.3485656 75.1645785,82.2978693 L75.0038242,82.2956307 L73.3598121,82.3054232 L73.183764,82.3013872 C71.6692161,82.222682 70.4564775,81.017564 70.3687226,79.5042297 L70.3636364,79.328293 L70.3636364,77.0019409 L70.3568344,76.8850934 C70.302944,76.4251205 69.9351628,76.0601659 69.4803372,76.0067408 L69.3649486,76 L58.6350514,76 Z M69,68 C70.0543618,68 70.9181651,68.8158778 70.9945143,69.8507377 L71,70 L71,71 C71,72.0543618 70.1841222,72.9181651 69.1492623,72.9945143 L69,73 L59,73 C57.9456382,73 57.0818349,72.1841222 57.0054857,71.1492623 L57,71 L57,70 C57,68.9456382 57.8158778,68.0818349 58.8507377,68.0054857 L59,68 L69,68 Z M69,69 L59,69 C58.4871642,69 58.0644928,69.3860402 58.0067277,69.8833789 L58,70 L58,71 C58,71.5128358 58.3860402,71.9355072 58.8833789,71.9932723 L59,72 L69,72 L69.1166211,71.9932723 C69.575703,71.9399506 69.9399506,71.575703 69.9932723,71.1166211 L70,71 L70,70 C70,69.4871642 69.6139598,69.0644928 69.1166211,69.0067277 L69,69 Z M69.5,64 C70.3284271,64 71,64.6715729 71,65.5 C71,66.2796961 70.4051119,66.9204487 69.64446,66.9931334 L69.5,67 L58.5,67 C57.6715729,67 57,66.3284271 57,65.5 C57,64.7203039 57.5948881,64.0795513 58.35554,64.0068666 L58.5,64 L69.5,64 Z M69.5,65 L58.5,65 C58.2238576,65 58,65.2238576 58,65.5 C58,65.7454599 58.1768752,65.9496084 58.4101244,65.9919443 L58.5,66 L69.5,66 L69.5898756,65.9919443 C69.8231248,65.9496084 70,65.7454599 70,65.5 C70,65.2545401 69.8231248,65.0503916 69.5898756,65.0080557 L69.5,65 Z"/>
  </g>
</svg>
