<svg xmlns="http://www.w3.org/2000/svg" xmlns:xlink="http://www.w3.org/1999/xlink" width="128" height="128" viewBox="0 0 128 128">
  <defs>
    <filter id="network-workgroup-a" width="128.6%" height="133.3%" x="-14.3%" y="-16.7%" filterUnits="objectBoundingBox">
      <feOffset dy="2" in="SourceAlpha" result="shadowOffsetOuter1"/>
      <feGaussianBlur in="shadowOffsetOuter1" result="shadowBlurOuter1" stdDeviation="3"/>
      <feColorMatrix in="shadowBlurOuter1" result="shadowMatrixOuter1" values="0 0 0 0 0   0 0 0 0 0   0 0 0 0 0  0 0 0 0.2 0"/>
      <feMerge>
        <feMergeNode in="shadowMatrixOuter1"/>
        <feMergeNode in="SourceGraphic"/>
      </feMerge>
    </filter>
    <path id="network-workgroup-b" d="M63,6 C64.5138782,9.63330765 68.0639167,12 72,12 L108,12 C110.209139,12 112,13.790861 112,16 L112,92 C112,94.209139 110.209139,96 108,96 L4,96 C1.790861,96 2.705415e-16,94.209139 0,92 L0,4 C-2.705415e-16,1.790861 1.790861,4.05812251e-16 4,0 L54,0 C57.9360833,-7.2304677e-16 61.4861218,2.36669235 63,6 Z"/>
    <filter id="network-workgroup-c" width="101.8%" height="102.1%" x="-.9%" y="-1%" filterUnits="objectBoundingBox">
      <feOffset dy="2" in="SourceAlpha" result="shadowOffsetInner1"/>
      <feComposite in="shadowOffsetInner1" in2="SourceAlpha" k2="-1" k3="1" operator="arithmetic" result="shadowInnerInner1"/>
      <feColorMatrix in="shadowInnerInner1" values="0 0 0 0 1   0 0 0 0 1   0 0 0 0 1  0 0 0 0.5 0"/>
    </filter>
    <radialGradient id="network-workgroup-d" cx="50%" cy="0%" r="116.795%" fx="50%" fy="0%" gradientTransform="matrix(.06172 .9955 -.64886 .0947 .47 -.498)">
      <stop offset="0%" stop-color="#D8EAFF"/>
      <stop offset="100%" stop-color="#A1C8E7"/>
    </radialGradient>
    <path id="network-workgroup-e" d="M0,0 L112,0 L112,69 C112,71.209139 110.209139,73 108,73 L4,73 C1.790861,73 2.705415e-16,71.209139 0,69 L0,0 L0,0 Z"/>
    <filter id="network-workgroup-f" width="101.8%" height="102.7%" x="-.9%" y="-1.4%" filterUnits="objectBoundingBox">
      <feOffset dy="2" in="SourceAlpha" result="shadowOffsetInner1"/>
      <feComposite in="shadowOffsetInner1" in2="SourceAlpha" k2="-1" k3="1" operator="arithmetic" result="shadowInnerInner1"/>
      <feColorMatrix in="shadowInnerInner1" values="0 0 0 0 1   0 0 0 0 1   0 0 0 0 1  0 0 0 0.5 0"/>
    </filter>
  </defs>
  <g fill="none" fill-rule="evenodd">
    <g filter="url(#network-workgroup-a)" transform="translate(8 22)">
      <use fill="#A3C6EB" xlink:href="#network-workgroup-b"/>
      <use fill="#000" filter="url(#network-workgroup-c)" xlink:href="#network-workgroup-b"/>
      <path stroke="#5C889C" stroke-linejoin="square" d="M54,0.5 C55.8671164,0.5 57.642671,1.06133088 59.1309768,2.05353478 C60.6192827,3.04573868 61.8203398,4.4688156 62.5384615,6.19230769 C63.334218,8.10212325 64.6651192,9.67904633 66.314323,10.7785155 C67.9635268,11.8779847 69.9310331,12.5 72,12.5 L72,12.5 L108,12.5 C108.966498,12.5 109.841498,12.8917508 110.474874,13.5251263 C111.108249,14.1585017 111.5,15.0335017 111.5,16 L111.5,16 L111.5,92 C111.5,92.9664983 111.108249,93.8414983 110.474874,94.4748737 C109.841498,95.1082492 108.966498,95.5 108,95.5 L108,95.5 L4,95.5 C3.03350169,95.5 2.15850169,95.1082492 1.52512627,94.4748737 C0.891750844,93.8414983 0.5,92.9664983 0.5,92 L0.5,92 L0.5,4 C0.5,3.03350169 0.891750844,2.15850169 1.52512627,1.52512627 C2.15850169,0.891750844 3.03350169,0.5 4,0.5 L4,0.5 Z"/>
      <path fill="#FFF" stroke="#5C889C" d="M103,16.5 C103.966498,16.5 104.841498,16.8917508 105.474874,17.5251263 C106.108249,18.1585017 106.5,19.0335017 106.5,20 L106.5,20 L106.5,54 C106.5,54.9664983 106.108249,55.8414983 105.474874,56.4748737 C104.841498,57.1082492 103.966498,57.5 103,57.5 L103,57.5 L9,57.5 C8.03350169,57.5 7.15850169,57.1082492 6.52512627,56.4748737 C5.89175084,55.8414983 5.5,54.9664983 5.5,54 L5.5,54 L5.5,20 C5.5,19.0335017 5.89175084,18.1585017 6.52512627,17.5251263 C7.15850169,16.8917508 8.03350169,16.5 9,16.5 L9,16.5 Z"/>
      <g transform="translate(0 23)">
        <use fill="url(#network-workgroup-d)" xlink:href="#network-workgroup-e"/>
        <use fill="#000" filter="url(#network-workgroup-f)" xlink:href="#network-workgroup-e"/>
        <path stroke="#5C819C" stroke-linejoin="square" d="M111.5,0.5 L111.5,69 C111.5,69.9664983 111.108249,70.8414983 110.474874,71.4748737 C109.841498,72.1082492 108.966498,72.5 108,72.5 L108,72.5 L4,72.5 C3.03350169,72.5 2.15850169,72.1082492 1.52512627,71.4748737 C0.891750844,70.8414983 0.5,69.9664983 0.5,69 L0.5,69 L0.5,0.5 L111.5,0.5 Z"/>
      </g>
    </g>
    <path fill="#2A4052" fill-opacity=".4" d="M64.0838957,65.4706205 C68.9156058,60.8698915 73.6478604,58.6736632 76.6524523,60.2761934 C79.7176421,61.9110441 79.9632013,66.9552679 77.9413867,73.2777506 C84.1719745,74.8149831 88.25,77.3981933 88.25,80.5 C88.25,83.6021219 84.1692001,86.1847591 77.9405003,87.7217252 C79.9632013,94.0447321 79.7176421,99.0889559 76.6524523,100.723807 C73.6306201,102.335532 68.8612416,100.10478 64.0007133,95.4499455 C59.139414,100.104473 54.3695876,102.335643 51.3475477,100.723807 C48.2823579,99.0889559 48.0367987,94.0447321 50.0586133,87.7222494 C43.8307999,86.1847591 39.75,83.6021219 39.75,80.5 C39.75,77.3978781 43.8307999,74.8152409 50.0594997,73.2782748 C48.0367728,66.9558009 48.282196,61.9111305 51.3475477,60.2761934 L51.3475477,60.2761934 L51.5131382,60.1925417 C54.5419267,58.7458801 59.2268579,60.9794808 63.9996388,65.5503918 Z M75.4745371,88.2543403 L75.1282665,88.3179205 C73.3946427,88.6301049 71.5396795,88.8695391 69.5953211,89.0275273 C68.3461148,90.714242 67.0576721,92.2671832 65.7614777,93.6597726 C69.838023,97.5804521 73.5966379,99.5202917 75.4759353,98.517949 C77.2555838,97.568755 77.2232049,93.5417556 75.4745371,88.2543403 Z M52.5258071,88.2543608 L52.4897127,88.3629919 C50.7764361,93.5968688 50.7566263,97.5752674 52.5240647,98.517949 C54.4033621,99.5202917 58.161977,97.5804521 62.238312,93.6597309 C60.9423279,92.2671832 59.6538852,90.714242 58.40465,89.027885 C56.3303838,88.8589812 54.3578312,88.5977395 52.5258071,88.2543608 Z M61.7169592,89.2137576 L61.7262794,89.2250766 C62.4809845,90.1617978 63.2421253,91.0425013 64.0000854,91.8612674 C64.7608294,91.0393096 65.5249496,90.1549306 66.2825462,89.2141195 C65.8211659,89.2285124 65.355594,89.2388174 64.8866992,89.2445709 L64.8866992,89.2445709 L64,89.25 C63.2302679,89.25 62.4687165,89.2377728 61.7169592,89.2137576 Z M63.9950535,74.2499902 C62.5407798,74.2499902 61.1193236,74.2985262 59.7441259,74.389093 C59.065197,75.341219 58.3979854,76.3375527 57.7511245,77.3725827 C57.0952971,78.4219596 56.4876738,79.4675251 55.9287295,80.5002601 C56.4876738,81.5324749 57.0952971,82.5780404 57.7511245,83.6274173 C58.3977978,84.662147 59.06481,85.6582029 59.7445781,86.610917 C60.8512296,86.6836122 61.9877723,86.729317 63.1473041,86.7444407 L63.1473041,86.7444407 L64,86.7499902 C65.455934,86.7499902 66.8789297,86.7013837 68.2555256,86.6106902 C68.93519,85.6582029 69.6022022,84.662147 70.2488755,83.6274173 C70.9047029,82.5780404 71.5123262,81.5324749 72.0712705,80.4997399 C71.5123262,79.4675251 70.9047029,78.4219596 70.2488755,77.3725827 C69.6020146,76.3375527 68.934803,75.341219 68.2548302,74.3882537 C67.3293271,74.3269881 66.3828975,74.2853394 65.4194834,74.2648403 L65.4194834,74.2648403 L64.5536219,74.2522006 Z M54.56773,83.1881963 L54.5365289,83.2544838 C54.1207969,84.1394971 53.743353,85.0081693 53.4045242,85.8542911 C54.3926053,86.0291553 55.4284846,86.1831575 56.5040112,86.3116772 L56.3529229,86.0810138 L56.3529229,86.0810138 L56.1106722,85.7079918 L55.6310985,84.9523664 C55.2630581,84.3634718 54.9084963,83.7750077 54.56773,83.1881963 Z M73.4319878,83.187586 L73.2774956,83.4532193 C72.9844876,83.9521247 72.6815582,84.4520903 72.3689015,84.9523664 C72.0812684,85.4126026 71.789825,85.8660303 71.4950372,86.3122503 C72.5710814,86.1832015 73.6065778,86.0292691 74.5947149,85.8536237 C74.2481137,84.9868599 73.8601668,84.095728 73.4319878,83.187586 Z M50.9045126,75.6595771 L50.7166721,75.7040374 C45.5703037,76.938156 42.25,78.7778746 42.25,80.5 C42.25,82.2429252 45.650993,84.1062978 50.9049592,85.340407 C51.514111,83.7740459 52.2471017,82.1511496 53.0963681,80.4995096 C52.2466932,78.8479763 51.5137934,77.2252071 50.9045126,75.6595771 Z M77.0946533,75.6598077 L77.0438811,75.7915704 C76.4449647,77.3163439 75.7294677,78.8943403 74.9041458,80.4994909 C75.7528983,82.1511496 76.485889,83.7740459 77.0952445,85.339799 C82.3490927,84.1062474 85.75,82.2429032 85.75,80.5 C85.75,78.7650768 82.3505245,76.8971247 77.0946533,75.6598077 Z M56.5043034,74.688748 L56.2900873,74.7139943 C55.2912364,74.8370838 54.3273469,74.9821652 53.4047289,75.1461844 C53.751759,76.0128221 54.1395487,76.9036185 54.5675413,77.8114151 C54.9084963,77.2249923 55.2630581,76.6365282 55.6310985,76.0476336 C55.9185171,75.5877406 56.2097404,75.134646 56.5043034,74.688748 Z M71.4938861,74.6864932 L71.6441836,74.914565 L71.6441836,74.914565 L71.8893278,75.2920082 L72.3689015,76.0476336 C72.7369419,76.6365282 73.0915037,77.2249923 73.43227,77.8118037 C73.8604513,76.9036185 74.248241,76.0128221 74.5954758,75.1457089 C73.6069941,74.969579 72.5703452,74.8152057 71.4938861,74.6864932 Z M75.4759353,62.482051 C73.5966379,61.4797083 69.838023,63.4195479 65.761688,67.3402691 C67.0577454,68.7328934 68.3462845,70.2859613 69.595608,71.9724633 C71.6707414,72.1411606 73.6434333,72.4023389 75.4752826,72.7455813 C77.2232049,67.4582444 77.2555838,63.431245 75.4759353,62.482051 Z M62.238312,67.3402691 C58.161977,63.4195479 54.4033621,61.4797083 52.5240647,62.482051 C50.7444162,63.431245 50.7767951,67.4582444 52.5254629,72.7456597 C54.3578312,72.4022605 56.3303838,72.1410188 58.4046789,71.9724727 C59.653584,70.2861646 60.9417065,68.7335657 62.2375847,67.3412348 Z M63.9997731,69.1385797 L63.7825691,69.3753075 C63.0934021,70.1299647 62.4023685,70.9352888 61.7166816,71.7868394 C62.4687165,71.7622272 63.2302679,71.75 64,71.75 L64,71.75 L64.5684741,71.7522496 C65.1451595,71.7568197 65.7169331,71.7682509 66.2831109,71.7863557 C65.5254219,70.8456121 64.7609932,69.9608601 63.9997731,69.1385797 Z"/>
    <path fill="#3E6F84" fill-rule="nonzero" d="M76.6524523,60.2761934 C78.5456244,61.2859364 79.3631795,63.5962681 79.2352361,66.7050715 L79.2040652,67.2457373 C79.1704115,67.7026541 79.1176138,68.1752807 79.0460512,68.6621532 L78.9511933,69.2531445 C78.8646796,69.7511795 78.7595528,70.2628748 78.6361923,70.7867665 L78.4794319,71.4211972 C78.3231054,72.0259461 78.1435373,72.645619 77.9412805,73.2780826 L77.6950332,73.2180721 C78.4912344,73.4092537 79.2533066,73.6173205 79.9773415,73.8412016 L80.5885364,74.0369476 C80.6888193,74.0702091 80.7883031,74.1037871 80.8869765,74.1376784 L81.4692,74.3447619 L82.0314257,74.5592165 L82.5731065,74.7808921 C86.1146135,76.2824672 88.25,78.2554566 88.25,80.5 C88.25,82.8652358 85.8776625,84.9284738 81.9897414,86.4564827 L81.4241066,86.6711035 L80.8384066,86.8782912 L80.5382056,86.9790504 L80.5382056,86.9790504 L79.9234488,87.174805 C79.2901617,87.3694764 78.6280357,87.5520873 77.9396795,87.7219277 C78.1436239,88.3546799 78.3231431,88.9741997 78.4794319,89.5788028 L78.6361923,90.2132335 C78.7595528,90.7371252 78.8646796,91.2488205 78.9511933,91.7468555 L79.0460512,92.3378468 C79.1176138,92.8247193 79.1704115,93.2973459 79.2040652,93.7542627 L79.2352361,94.2949285 C79.3631795,97.4037319 78.5456244,99.7140636 76.6524523,100.723807 C74.3580367,101.947557 71.0561509,100.956097 67.4718477,98.370301 L66.9579614,97.9901228 C66.8720196,97.9249744 66.7859373,97.858939 66.6997242,97.792025 L66.1809551,97.3800634 C65.6607737,96.9576918 65.1365902,96.5042912 64.6105185,96.0216717 L64.0838957,95.5293795 L64.0001824,95.4490876 C63.9721532,95.4759323 63.9441271,95.5026964 63.9161043,95.5293795 L63.3894815,96.0216717 C62.8634098,96.5042912 62.3392263,96.9576918 61.8190449,97.3800634 L61.3002758,97.792025 C61.2140627,97.858939 61.1279804,97.9249744 61.0420386,97.9901228 L60.5281523,98.370301 C56.9438491,100.956097 53.6419633,101.947557 51.3475477,100.723807 C49.4543756,99.7140636 48.6368205,97.4037319 48.7647639,94.2949285 L48.7959348,93.7542627 C48.8295885,93.2973459 48.8823862,92.8247193 48.9539488,92.3378468 L49.0488067,91.7468555 C49.1353204,91.2488205 49.2404472,90.7371252 49.3638077,90.2132335 L49.5205681,89.5788028 C49.6768569,88.9741997 49.8563761,88.3546799 50.0585732,87.7223749 L50.7168024,87.8782036 C49.7908594,87.665641 48.9088021,87.4306375 48.0765512,87.174805 L47.4617944,86.9790504 L47.1615934,86.8782912 L47.1615934,86.8782912 L46.5758934,86.6711035 L46.0102586,86.4564827 C42.1223375,84.9284738 39.75,82.8652358 39.75,80.5 C39.75,78.1347642 42.1223375,76.0715262 46.0102586,74.5435173 L46.5758934,74.3288965 L47.1615934,74.1217088 C47.2608513,74.0878054 47.3609222,74.0542179 47.4617944,74.0209496 L48.0765512,73.825195 C48.7098383,73.6305236 49.3719643,73.4479127 50.0603205,73.2780723 C49.8564627,72.645619 49.6768946,72.0259461 49.5205681,71.4211972 L49.3638077,70.7867665 C49.2404472,70.2628748 49.1353204,69.7511795 49.0488067,69.2531445 L48.9539488,68.6621532 C48.8823862,68.1752807 48.8295885,67.7026541 48.7959348,67.2457373 L48.7647639,66.7050715 C48.6404761,63.685091 49.40843,61.4186072 51.187907,60.3659162 L51.3475477,60.2761934 L51.5131382,60.1925417 C54.4472506,58.7911009 58.9355862,60.8434378 63.5523712,65.1286417 L63.9998176,65.5509124 C64.0278468,65.5240677 64.0558729,65.4973036 64.0838957,65.4706205 L64.6105185,64.9783283 C65.1365902,64.4957088 65.6607737,64.0423082 66.1809551,63.6199366 L66.6997242,63.207975 L66.9579614,63.0098772 L66.9579614,63.0098772 L67.4718477,62.629699 C71.0561509,60.0439027 74.3580367,59.0524431 76.6524523,60.2761934 Z M51.038,87.9482567 L50.9985775,88.0695908 C49.1206459,93.9593522 49.3198016,98.5089411 51.8181545,99.8414635 C53.831448,100.915274 56.99972,99.8288503 60.5131711,97.1377454 L61.0173535,96.7424457 L61.2710418,96.5367211 L61.2710418,96.5367211 L61.7812848,96.1093476 L62.2949126,95.6610416 C62.6228223,95.3690917 62.9524703,95.0646384 63.2832476,94.7480994 L62.9304839,94.3857486 C62.760935,94.5487346 62.5916394,94.7086135 62.4226936,94.8653011 L62.4226936,94.8653011 L61.9170023,95.3257065 C61.8329275,95.4008172 61.7489643,95.475109 61.6651247,95.5485716 L61.6651247,95.5485716 L61.1636669,95.9793117 C61.08037,96.0494151 60.9972209,96.1186683 60.9142315,96.1870606 L60.9142315,96.1870606 L60.4183093,96.5870016 C60.3360073,96.6519089 60.2538892,96.7159343 60.1719671,96.7790676 L60.1719671,96.7790676 L59.6828824,97.1470756 L59.1990793,97.4931653 C56.3132632,99.50294 53.7439041,100.301909 52.0534579,99.400292 C50.4737621,98.5577449 49.9550517,96.2840071 50.3287884,93.200722 L50.3287884,93.200722 L50.4015685,92.6643446 C50.4287216,92.4829861 50.4587575,92.2991001 50.4916445,92.1128026 L50.4916445,92.1128026 L50.5988279,91.546792 C50.6373859,91.3557877 50.6787637,91.162488 50.7229298,90.9670088 L50.7229298,90.9670088 L50.8637618,90.3741488 C50.8886174,90.2742877 50.9141623,90.1739108 50.9403925,90.0730325 L50.9403925,90.0730325 L51.1059655,89.4618624 C51.2796991,88.8449078 51.4778201,88.210948 51.6994793,87.5631147 L51.534,88.0562567 L51.4193957,88.0333927 L51.038,87.9482567 Z M76.962,87.9482567 L76.5806043,88.0333927 L76.4659777,88.0574571 C76.621937,88.5341501 76.7647393,89.0027155 76.8940345,89.4618624 L76.8940345,89.4618624 L77.0596075,90.0730325 C77.0858377,90.1739108 77.1113826,90.2742877 77.1362382,90.3741488 L77.1362382,90.3741488 L77.2770702,90.9670088 C77.3212363,91.162488 77.3626141,91.3557877 77.4011721,91.546792 L77.4011721,91.546792 L77.5083555,92.1128026 C77.5412425,92.2991001 77.5712784,92.4829861 77.5984315,92.6643446 L77.5984315,92.6643446 L77.6712116,93.200722 C78.0449483,96.2840071 77.5262379,98.5577449 75.9465421,99.400292 C74.2560959,100.301909 71.6867368,99.50294 68.8009207,97.4931653 L68.8009207,97.4931653 L68.3171176,97.1470756 L67.8280329,96.7790676 C67.7461108,96.7159343 67.6639927,96.6519089 67.5816907,96.5870016 L67.5816907,96.5870016 L67.0857685,96.1870606 C67.0027791,96.1186683 66.91963,96.0494151 66.8363331,95.9793117 L66.8363331,95.9793117 L66.3348753,95.5485716 C66.2510357,95.475109 66.1670725,95.4008172 66.0829977,95.3257065 L66.0829977,95.3257065 L65.5773064,94.8653011 C65.4083606,94.7086135 65.239065,94.5487346 65.0695161,94.3857486 L65.0695161,94.3857486 L64.716,94.7462567 L64.768909,94.7982074 C65.4708404,95.4672556 66.1673942,96.0815593 66.8527693,96.6372431 L67.3646139,97.0429541 C70.9315856,99.8051449 74.1504722,100.924918 76.1818455,99.8414635 C77.7548825,99.0024679 78.4164408,96.8881195 78.2221891,93.967266 L78.1790369,93.4435447 L78.118185,92.9036519 C78.0485059,92.3558642 77.9523793,91.7846782 77.830111,91.1926704 L77.6991402,90.5938175 L77.6271406,90.2893646 L77.6271406,90.2893646 L77.4701556,89.6707636 C77.4425514,89.56661 77.4142281,89.4619377 77.3851872,89.3567586 L77.202341,88.7196978 C77.1385292,88.5053805 77.0718581,88.2891315 77.002339,88.0710461 L76.962,87.9482567 Z M75.4744296,88.2540152 L74.7557637,88.3835568 L73.9999415,88.5081023 L73.2301601,88.6235526 L72.4469744,88.7297564 C72.3153573,88.7466782 72.1832048,88.7632083 72.0505284,88.7793438 L71.2482771,88.8713947 L70.4340093,88.9538215 L70.0225426,88.9913786 L70.0225426,88.9913786 L69.594,89.0252567 L69.4034743,89.2854415 C69.31856,89.3987802 69.233473,89.5115001 69.1482231,89.6235927 L68.6348482,90.2885539 L68.1180346,90.9380583 L67.5982521,91.5717037 C67.5114004,91.6759673 67.4244446,91.7795534 67.3373944,91.8824535 L66.8140393,92.4915561 L66.2888897,93.0837941 C66.113593,93.2783513 65.9380754,93.4700307 65.7624153,93.6587652 L65.8277627,93.7231364 L66.332326,94.1976104 C67.0863168,94.8937674 67.8267141,95.5194686 68.5433902,96.0684796 L68.5433902,96.0684796 L69.0175488,96.4230571 C71.7616775,98.4243518 74.1130214,99.2448732 75.4759353,98.517949 C76.5219703,97.9600354 76.9419845,96.338799 76.7554192,94.0232888 L76.7554192,94.0232888 L76.7081708,93.5344324 C76.6615951,93.1189985 76.5970278,92.6836828 76.5145684,92.2303768 L76.5145684,92.2303768 L76.4070355,91.6778954 L76.2823644,91.1088696 C76.2601599,91.0126936 76.2372429,90.9158586 76.2136141,90.8183796 L76.2136141,90.8183796 L76.0633077,90.2258991 L75.895959,89.6186901 C75.8666494,89.5163016 75.8366314,89.4133297 75.8059056,89.3097894 L75.8059056,89.3097894 L75.613065,88.6818495 C75.5681195,88.5401914 75.5219071,88.3975678 75.4744296,88.2540152 Z M52.5255704,88.2540152 C52.4780929,88.3975678 52.4318805,88.5401914 52.386935,88.6818495 L52.386935,88.6818495 L52.1940944,89.3097894 C52.1633686,89.4133297 52.1333506,89.5163016 52.104041,89.6186901 L52.104041,89.6186901 L51.9366923,90.2258991 L51.7863859,90.8183796 C51.7627571,90.9158586 51.7398401,91.0126936 51.7176356,91.1088696 L51.7176356,91.1088696 L51.5929645,91.6778954 L51.4854316,92.2303768 C51.4029722,92.6836828 51.3384049,93.1189985 51.2918292,93.5344324 L51.2918292,93.5344324 L51.2445808,94.0232888 C51.0580155,96.338799 51.4780297,97.9600354 52.5240647,98.517949 C53.8869786,99.2448732 56.2383225,98.4243518 58.9824512,96.4230571 L58.9824512,96.4230571 L59.4566098,96.0684796 C60.1732859,95.5194686 60.9136832,94.8937674 61.667674,94.1976104 L61.667674,94.1976104 L62.1722373,93.7231364 L62.2375847,93.6587652 C62.1497546,93.5643979 62.0619602,93.4692944 61.9742112,93.3734631 L61.4483405,92.7898083 C61.3608123,92.6910992 61.2733491,92.591679 61.1859607,92.4915561 L60.6626056,91.8824535 C60.5755554,91.7795534 60.4885996,91.6759673 60.4017479,91.5717037 L59.8819654,90.9380583 L59.3651518,90.2885539 L58.8517769,89.6235927 C58.766527,89.5115001 58.68144,89.3987802 58.5965257,89.2854415 L58.405,89.0252567 L57.9774574,88.9913786 L57.1573894,88.9138205 L56.7517229,88.8713947 L56.7517229,88.8713947 L55.9494716,88.7793438 L55.1597919,88.6778198 L54.7698399,88.6235526 L54.7698399,88.6235526 L54.0000585,88.5081023 L53.2442363,88.3835568 Z M64,93.3182567 L63.9500471,93.3712181 L63.643,93.6812567 L63.7127039,93.7540614 L64.0005434,94.0444412 C64.0375838,94.0072149 64.0746328,93.969842 64.1116895,93.932323 L64.356,93.6802567 L64.0499529,93.3712181 L64,93.3182567 Z M68.272737,89.1206495 L67.9246571,89.1418458 L67.603,89.1582567 L67.4995749,89.2913011 L66.9989328,89.9205019 L66.4951819,90.5350908 C66.4109965,90.6362766 66.3267057,90.7368326 66.2423215,90.8367482 L66.2423215,90.8367482 L65.7349922,91.4284742 L65.2260007,92.0043284 C65.1410624,92.0989534 65.056079,92.1928962 64.9710624,92.2861461 L64.9710624,92.2861461 L64.69,92.5882567 L65.046,92.9542567 L65.4183771,92.5517777 L65.9410074,91.9670218 L66.4628252,91.3642128 C66.6365707,91.1603076 66.8100934,90.9534536 66.9833058,90.7437107 L67.5019246,90.1058752 C67.7598487,89.7837239 68.0168836,89.4552485 68.272737,89.1206495 Z M59.7543616,89.1567809 L60.2769112,89.8285991 L60.8020669,90.4829765 C60.8897798,90.5905658 60.9775787,90.6974133 61.0654521,90.8035113 L61.5934972,91.4310463 L62.1227888,92.0402321 L62.652783,92.6307054 L62.953,92.9542567 L63.309,92.5882567 L63.0289376,92.2861461 C62.943921,92.1928962 62.8589376,92.0989534 62.7739993,92.0043284 L62.5193319,91.7184167 L62.0110992,91.1345637 L61.5048181,90.5350908 L61.0010672,89.9205019 L60.5004251,89.2913011 C60.4658663,89.2472213 60.431334,89.2030401 60.3968291,89.158758 L59.727048,89.1210851 C59.7361511,89.1329915 59.7452556,89.1448901 59.7543616,89.1567809 Z M61.718,89.2132567 L61.9824637,89.540601 L62.4959793,90.1585585 L63.0104685,90.758719 C63.1820531,90.9557608 63.3536887,91.1497679 63.5252644,91.3406721 L63.5252644,91.3406721 L64.0000571,91.8611135 C64.0724888,91.7828704 64.1449496,91.7040616 64.2174309,91.6246925 L64.2174309,91.6246925 L64.7321302,91.0519971 C64.8179342,90.9550021 64.9037392,90.8572399 64.9895315,90.758719 L64.9895315,90.758719 L65.5040207,90.1585585 L66.0175363,89.540601 C66.105793,89.4327393 66.1939768,89.3241051 66.2820724,89.2147079 L66.2018491,89.2163043 L65.7655448,89.2283844 L65.7655448,89.2283844 L64.8866992,89.2445709 L64,89.25 L63.1133008,89.2445709 L62.2344552,89.2283844 L61.7981509,89.2163043 L61.7981509,89.2163043 L61.718,89.2132567 Z M60.5089697,87.6570685 C60.5749942,87.7453083 60.64111,87.8331333 60.7073105,87.9205392 L60.7073105,87.9205392 L60.908,88.1812567 L60.9355707,88.1831699 L61.7969441,88.2156869 L62.6685177,88.2375778 C62.8146014,88.2403288 62.9610886,88.242628 63.1079687,88.2444711 L63.9938773,88.2500187 L64.8744298,88.2446462 L65.754294,88.2283167 C66.0459094,88.2210615 66.3358243,88.2120064 66.6239541,88.2011881 L67.092,88.1802567 L67.2926895,87.9205392 C67.3349079,87.8647973 67.3770919,87.808885 67.4192397,87.7528034 L67.49,87.6572567 L66.8644656,87.6880797 L66.0509772,87.7182031 L65.2317121,87.7384655 L64.4073601,87.7486837 L63.9934919,87.749969 L63.1342623,87.7443557 L62.3124551,87.728579 C62.1759329,87.7251172 62.0396429,87.7212418 61.9035995,87.7169566 L61.9035995,87.7169566 L61.0904107,87.6863582 Z M69.4501624,87.5251505 L69.2633747,87.5403753 L68.792,87.5752567 L68.4892176,87.9910787 C68.4596777,88.0310515 68.4301114,88.0709529 68.4005194,88.1107825 L69.061,88.0632567 L69.2948539,87.7421484 C69.3466907,87.6700626 69.3984611,87.5977294 69.4501624,87.5251505 Z M58.55,87.5252567 L58.938,88.0632567 L59.2454831,88.0871184 L59.598,88.1082567 L59.5107824,87.9910787 L59.208,87.5752567 L59.0878015,87.5680346 L59.0878015,87.5680346 L58.6931673,87.5373825 L58.55,87.5252567 Z M53.035528,86.8091551 L52.857,87.2942567 L53.3596661,87.385446 L54.0984657,87.5081718 L54.8523554,87.6223172 C54.9792326,87.6406144 55.1067172,87.6585452 55.2347983,87.6761049 L56.0103581,87.7769759 C56.1407827,87.7930338 56.2717823,87.8087118 56.4033464,87.8240053 L57.1994182,87.9111173 C57.3331971,87.9248552 57.4675189,87.9381996 57.602373,87.9511461 L57.627,87.9522567 L57.5864663,87.8962061 L57.242,87.4022567 L57.1370998,87.3922464 L56.3737421,87.3064821 L55.6210786,87.2121645 C55.4965638,87.1957423 55.372523,87.1789714 55.2489705,87.1618555 L55.2489705,87.1618555 L54.5136281,87.0550513 L53.7906862,86.9401518 L53.0808275,86.8173399 C53.0657181,86.814617 53.0506183,86.8118887 53.035528,86.8091551 Z M74.964,86.8072567 L74.8838409,86.8225072 L74.1726445,86.9451117 C74.0530078,86.9648894 73.9328287,86.9843364 73.8121215,87.0034488 L73.8121215,87.0034488 L73.0816569,87.1140781 C72.958895,87.1318371 72.8356338,87.1492538 72.7118877,87.1663246 L72.7118877,87.1663246 L71.9637065,87.2645667 L71.2045763,87.3543215 L70.757,87.4012567 L70.4135337,87.8962061 L70.373,87.9512567 L70.8014842,87.9112412 L71.5992943,87.8239278 L72.3833585,87.7273518 L73.1531708,87.6217329 L73.9082251,87.5072906 L74.6480156,87.3842444 L75.142,87.2942567 L74.964,86.8072567 Z M51.533,86.5112567 L51.5734719,86.4005664 C51.4999174,86.5997501 51.4285401,86.7976991 51.3593475,86.9943486 L51.861,87.1002567 L51.9289532,86.9107729 L52.037,86.6162567 L51.7030898,86.548712 L51.533,86.5112567 Z M76.465,86.5092567 L76.2644211,86.5542181 L75.961,86.6142567 L76.0710468,86.9107729 C76.0908182,86.9655008 76.1104282,87.0201396 76.1298761,87.0746874 L76.138,87.0992567 L76.4273918,87.0404274 L76.6409209,86.9937416 C76.6113915,86.909816 76.5814642,86.825654 76.5511396,86.7412605 L76.465,86.5092567 Z M77.621,74.2322567 L77.451,74.7112567 L77.9467974,74.8319934 L78.5841768,74.9987115 L78.5841768,74.9987115 L78.8960719,75.0847011 L79.5058207,75.2618182 C79.6058552,75.2919003 79.7050845,75.322261 79.8034936,75.3528962 L79.8034936,75.3528962 L80.3839841,75.5399677 C80.7642549,75.6668338 81.1309192,75.7979595 81.4830124,75.9330813 L81.4830124,75.9330813 L82.0001033,76.1387282 C84.9513121,77.3554345 86.75,78.8680135 86.75,80.5 C86.75,81.5563291 85.9994318,82.5608436 84.6731073,83.4671123 L84.6731073,83.4671123 L84.3141638,83.701271 C83.8804273,83.9717849 83.3947679,84.2328245 82.8621137,84.4830808 L82.8621137,84.4830808 L82.3941589,84.694915 C81.9947974,84.8691919 81.5721774,85.0377764 81.1280948,85.2001914 L81.1280948,85.2001914 L80.5850085,85.3920975 C80.4928155,85.4235781 80.3997926,85.4548043 80.3059544,85.4857723 L80.3059544,85.4857723 L79.7332551,85.6684509 C79.6362128,85.6983707 79.5383837,85.7280247 79.4397824,85.7574089 L79.4397824,85.7574089 L78.8390218,85.9304479 C78.7373888,85.9587382 78.6350122,85.9867512 78.5319064,86.0144831 L78.5319064,86.0144831 L77.9046362,86.1774703 C77.7549412,86.2150365 77.6038483,86.2520264 77.4513981,86.2884293 L77.621,86.7662567 L78.1003004,86.6476381 C78.3159056,86.5921538 78.5284609,86.535455 78.7378819,86.4775784 L79.3566578,86.3004516 C79.5597259,86.2402558 79.7595753,86.1789187 79.9561219,86.116477 L80.5357682,85.9258742 C80.6306964,85.893567 80.7247777,85.8609927 80.8180017,85.8281559 L81.3669727,85.6280225 C81.4567251,85.5941542 81.545599,85.5600326 81.6335839,85.5256623 L82.1507413,85.3164921 C82.4882885,85.1751042 82.8112746,85.029883 83.119025,84.881121 L83.5691395,84.6553592 C83.788399,84.5411871 83.9988987,84.4251057 84.2003539,84.3072384 L84.5911207,84.0691594 C86.2945455,82.987418 87.25,81.767692 87.25,80.5 C87.25,78.3910585 84.6119874,76.4181497 80.2901662,74.9907077 L79.704029,74.8036504 C79.6047044,74.7730249 79.5045692,74.7426778 79.4036339,74.7126135 L78.7885047,74.5356578 C78.5803172,74.4778279 78.369013,74.4211654 78.1546759,74.3657061 L77.621,74.2322567 Z M50.379,74.2332567 L49.9104827,74.3493545 C49.8027034,74.3770341 49.6956817,74.4050174 49.5894283,74.4332999 L48.9612137,74.6065491 C48.7549393,74.6654716 48.551824,74.7255551 48.3519535,74.7867636 L47.7621623,74.9737281 C47.6655148,75.0054394 47.5696999,75.0374229 47.4747284,75.0696743 L46.9151056,75.26636 L46.3762382,75.4692573 C46.2881852,75.5035791 46.2010184,75.5381509 46.1147486,75.5729679 L45.6079793,75.7847789 C42.5503354,77.1086599 40.75,78.7561511 40.75,80.5 C40.75,82.2438489 42.5503354,83.8913401 45.6078183,85.215222 L46.1145601,85.427033 L46.6428263,85.6329555 C46.7326357,85.6667732 46.8233206,85.7003366 46.9148701,85.7336412 L47.4744577,85.9303271 C47.5694231,85.9625785 47.6652317,85.994562 47.7618728,86.0262734 L48.3516236,86.2132381 C48.5514801,86.2744466 48.7545807,86.3345302 48.9608399,86.3934528 L49.5890068,86.5667023 C49.6952519,86.5949848 49.8022652,86.6229681 49.9100359,86.6506477 L50.378,86.7662567 L50.547,86.2882567 L50.3858755,86.2506328 L49.751671,86.0910069 L49.134645,85.9245675 L48.5354801,85.751498 C48.3388112,85.6927235 48.1452329,85.6328744 47.9548589,85.5719814 L47.9548589,85.5719814 L47.3934639,85.3862008 C47.1176868,85.2917751 46.8493754,85.1950691 46.5889138,85.0961858 L46.5889138,85.0961858 L46.0785706,84.8955467 C43.0806747,83.6746604 41.25,82.1501376 41.25,80.5 C41.25,79.1681956 42.4431599,77.9187042 44.4787293,76.8446287 L44.4787293,76.8446287 L44.9117866,76.6249397 L45.3681938,76.4104398 C45.6800952,76.2692103 46.007103,76.1315625 46.3482968,75.9977405 L46.3482968,75.9977405 L46.8706119,75.7999075 L47.4135156,75.6079967 C47.505677,75.5765152 47.5986674,75.5452882 47.6924726,75.5143193 L47.6924726,75.5143193 L48.264965,75.3316352 C48.3619714,75.3017144 48.4597639,75.2720595 48.5583279,75.2426742 L48.5583279,75.2426742 L49.1588557,75.0696291 C49.2604485,75.0413377 49.3627841,75.0133236 49.4658481,74.9855907 L49.4658481,74.9855907 L50.0928582,74.8225968 C50.3046986,74.7694104 50.5193376,74.7173789 50.7366602,74.6665329 L50.548,74.7112567 L50.379,74.2332567 Z M63.9950535,74.2499902 L63.1427026,74.2555495 C63.00131,74.2573944 62.8602588,74.2596944 62.7195617,74.2624434 L62.7195617,74.2624434 L61.8797304,74.2842749 L61.0490075,74.3165858 C60.7736856,74.3290699 60.4999835,74.3432514 60.2280027,74.359081 L60.2280027,74.359081 L59.745,74.3902567 L59.4528296,74.8017741 C59.0185945,75.4217294 58.5900726,76.0592949 58.1692741,76.713233 L57.7511245,77.3725827 C57.5952675,77.6219664 57.442133,77.8711349 57.2917273,78.1199671 L57.2917273,78.1199671 L56.848703,78.8653336 L56.4220898,79.6079559 C56.2128923,79.97846 56.0098633,80.3476626 55.8130244,80.7151553 L55.929,80.4992567 L56.0119259,80.6528922 C56.0789136,80.7757547 56.1465884,80.8987919 56.2149493,81.021989 L56.4220898,81.3920441 L56.848703,82.1346664 L57.2917273,82.8800329 C57.442133,83.1288651 57.5952675,83.3780336 57.7511245,83.6274173 C58.3050261,84.5137048 58.8738495,85.3716188 59.4528296,86.1982259 L59.4528296,86.1982259 L59.746,86.6102567 L60.579345,86.6601954 C60.7195249,86.6675855 60.8601461,86.6745372 61.0011952,86.6810439 L61.4256118,86.6992224 L62.2818169,86.7274101 C62.568802,86.7349641 62.8573342,86.7406586 63.1473041,86.7444407 L63.1473041,86.7444407 L64,86.7499902 C64.428299,86.7499902 64.8537476,86.7457839 65.2760031,86.7375371 L65.2760031,86.7375371 L66.1161549,86.7157057 L66.9471825,86.683395 C67.2226033,86.670911 67.4964018,86.6567296 67.7684765,86.6409 L67.7684765,86.6409 L68.254,86.6092567 L68.5471704,86.1982259 C68.9814055,85.5782706 69.4099274,84.9407051 69.8307259,84.286767 L70.2488755,83.6274173 C70.4047325,83.3780336 70.557867,83.1288651 70.7082727,82.8800329 L70.7082727,82.8800329 L71.151297,82.1346664 L71.5779102,81.3920441 C71.7871077,81.02154 71.9901367,80.6523374 72.1869756,80.2848447 L72.07,80.4992567 L71.9880741,80.3471078 C71.9210864,80.2242453 71.8534116,80.1012081 71.7850507,79.978011 L71.5779102,79.6079559 L71.151297,78.8653336 L70.7082727,78.1199671 C70.557867,77.8711349 70.4047325,77.6219664 70.2488755,77.3725827 C69.6949739,76.4862952 69.1261505,75.6283812 68.5471704,74.8017741 L68.5471704,74.8017741 L68.253,74.3882567 L67.5699323,74.3465235 C67.4287367,74.3387841 67.2870843,74.331492 67.1449891,74.324654 L66.7173887,74.3055094 L65.8545519,74.275561 L65.4194834,74.2648403 L64.5536219,74.2522006 L63.9950535,74.2499902 Z M55.3704853,81.560926 L55.096,82.0992567 L55.127932,82.1556674 L55.127932,82.1556674 L55.5609768,82.9064697 C55.6344975,83.0318695 55.7086906,83.1573945 55.7835545,83.2830325 L56.2407779,84.0381234 L56.4754066,84.4165083 L56.9512258,85.1662633 C57.1163974,85.422546 57.2825926,85.6763155 57.4497206,85.9275112 L57.802,86.4502567 L58.1067349,86.4812557 C58.1739302,86.487462 58.2412563,86.4935687 58.3087116,86.4995748 L58.4533086,86.5128485 C58.4026097,86.4396281 58.3520138,86.3662056 58.3015238,86.2925836 L58.3015238,86.2925836 L57.8283242,85.5920235 L57.3619947,84.8801266 C57.2077609,84.6409942 57.0547685,84.4000563 56.9031141,84.1573969 L56.9031141,84.1573969 L56.6836028,83.8034234 C56.610967,83.6853778 56.5388671,83.5672826 56.467307,83.4491523 L56.467307,83.4491523 L56.0444562,82.7400653 C55.9750713,82.6218526 55.906234,82.5036339 55.8379484,82.3854235 L55.8379484,82.3854235 L55.4348858,81.676378 C55.4133595,81.6378899 55.3918926,81.5994057 55.3704853,81.560926 Z M72.629,81.5592567 L72.5651142,81.676378 L72.1620516,82.3854235 C72.093766,82.5036339 72.0249287,82.6218526 71.9555438,82.7400653 L71.9555438,82.7400653 L71.532693,83.4491523 C71.3895728,83.6854129 71.2442933,83.9215331 71.0968859,84.1573969 L71.0968859,84.1573969 L70.8684129,84.5200844 C70.7919288,84.6405428 70.7151222,84.7605604 70.6380053,84.8801266 L70.6380053,84.8801266 L70.1716758,85.5920235 L69.6984762,86.2925836 C69.6190692,86.4083709 69.5394001,86.5236648 69.4594809,86.6384549 L69.548,86.5102567 L69.7751295,86.4920429 L70.196,86.4502567 L70.5451586,85.9350207 C70.8743255,85.4405252 71.1998029,84.9361539 71.5208911,84.4223867 C71.7576504,84.0435527 71.9884051,83.6654221 72.2131173,83.288317 L72.6544735,82.5355691 C72.7266863,82.4103707 72.7982249,82.2853101 72.8690878,82.1603993 L72.903,82.0992567 L72.629,81.5592567 Z M54.568,83.1882567 L54.3707748,83.6108692 L54.0517662,84.3179503 L53.7494557,85.0168398 C53.6024813,85.3641156 53.461783,85.7080472 53.3273824,86.048226 L53.405,85.8522567 L53.8800462,85.9357286 L54.6153486,86.0540611 C54.7392102,86.0731138 54.8637182,86.0918274 54.988859,86.1101953 L54.988859,86.1101953 L55.7471878,86.2162008 L56.504,86.3112567 L56.4746386,86.2663051 C56.4340023,86.2046779 56.39343,86.1429138 56.3529229,86.0810138 L56.1106722,85.7079918 L55.6310985,84.9523664 C55.4747702,84.7022283 55.3208736,84.4521679 55.1694332,84.2022788 L54.7225044,83.4532193 L54.568,83.1882567 Z M73.2774956,83.4532193 L72.8305668,84.2022788 C72.6791264,84.4521679 72.5252298,84.7022283 72.3689015,84.9523664 L71.8893278,85.7079918 C71.8088448,85.8328703 71.7280913,85.9572138 71.6470771,86.0810138 L71.494,86.3112567 L72.084382,86.2383199 C72.1468924,86.2302018 72.2092601,86.2219977 72.2714836,86.2137082 L72.4577198,86.1885845 L73.1938206,86.0830614 C73.3153037,86.0648141 73.4361781,86.0462407 73.5564313,86.0273476 L73.5564313,86.0273476 L74.2703925,85.9101995 L74.593,85.8522567 L74.5361186,85.7068114 C74.4899197,85.5925996 74.4430218,85.4779861 74.3954259,85.3629857 L74.2505443,85.0168398 L73.9482338,84.3179503 L73.6292252,83.6108692 L73.6292252,83.6108692 L73.4634711,83.2544838 L73.4316894,83.189196 C73.3806012,83.277168 73.3292029,83.3651771 73.2774956,83.4532193 Z M53.669,81.5842567 L53.7425922,81.4366373 C53.6199222,81.6810998 53.4999943,81.9246298 53.3828197,82.1671319 L53.0395671,82.8914595 L52.7129021,83.6090478 C52.6067859,83.8470572 52.5034455,84.0838479 52.4028924,84.3193248 L52.1096056,85.0217183 C52.0359097,85.2023379 51.9638989,85.3821088 51.8935787,85.5609865 C52.0804201,85.599863 52.2685308,85.6382957 52.4586105,85.6759191 L52.401,85.6642567 L52.4342227,85.5811262 L52.709641,84.9052131 C52.8982533,84.452372 53.0968239,83.9952208 53.3051012,83.5346874 L53.3051012,83.5346874 L53.6247658,82.8414667 L53.9588018,82.1438686 C53.9615635,82.1382056 53.9643267,82.1325421 53.9670912,82.1268783 L53.8734393,81.9604327 L53.669,81.5842567 Z M74.1265607,81.9604327 L74.033,82.1262567 L74.0411982,82.1438686 L74.3752342,82.8414667 C74.4297145,82.9573876 74.483596,83.0731261 74.5368747,83.1886677 L74.5368747,83.1886677 L74.8492828,83.8794388 C75.001839,84.2235271 75.1488998,84.5655823 75.290359,84.9052131 L75.290359,84.9052131 L75.5657773,85.5811262 L75.598,85.6632567 L75.6511418,85.6540547 L76.1065937,85.5601337 C76.0819804,85.4975253 76.05716,85.4348077 76.0321327,85.3719826 L75.7473715,84.6739655 C75.6007982,84.3228704 75.4479445,83.968717 75.2888486,83.6118275 L74.962345,82.8944955 L74.6192636,82.1704397 L74.3315492,81.5847642 C74.2638677,81.7098634 74.1955371,81.8350903 74.1265607,81.9604327 Z M50.906,75.6592567 L50.4038826,75.7803462 C50.3003885,75.8060306 50.1976676,75.8319611 50.0957326,75.8581315 L50.0957326,75.8581315 L49.4936559,76.017984 L49.4936559,76.017984 L49.1998815,76.0999775 L48.6272419,76.2679145 L48.074989,76.4408722 L47.5437326,76.6185556 L47.0340822,76.8006697 L46.5466475,76.9869194 C46.4672935,77.0182893 46.3888906,77.0498191 46.3114515,77.0815029 L46.3114515,77.0815029 L45.8584834,77.2734028 C45.6378835,77.3702268 45.4261861,77.468325 45.2237339,77.5675315 L45.2237339,77.5675315 L44.8312584,77.767373 C44.70461,77.8344466 44.5821723,77.9019637 44.4640468,77.9698749 L44.4640468,77.9698749 L44.1227087,78.1747419 C42.9193157,78.9298969 42.25,79.7268008 42.25,80.5 C42.25,81.4006013 43.1580576,82.3333618 44.7606039,83.1948494 L44.7606039,83.1948494 L45.1584399,83.4001851 L45.5822881,83.6024661 C46.0189238,83.8031139 46.4935937,83.9987031 47.0033456,84.1878039 L47.0033456,84.1878039 L47.5246822,84.374689 C47.6134841,84.4054584 47.7032333,84.4360344 47.7939159,84.4664102 L47.7939159,84.4664102 L48.3491042,84.6462111 C48.4434661,84.6757601 48.5387342,84.7050958 48.6348947,84.7342115 L48.6348947,84.7342115 L49.2224586,84.9062133 C49.4218103,84.9626321 49.6246226,85.0181182 49.8307861,85.0726186 L49.8307861,85.0726186 L50.4592211,85.2331095 C50.6719778,85.2855855 50.8879764,85.3370228 51.1071076,85.3873684 L50.905,85.3402567 L51.0957764,84.8571677 C51.2374794,84.5049925 51.3853094,84.1501131 51.5391846,83.7928456 L51.8549709,83.07522 L52.186732,82.3517884 L52.5343223,81.6231127 L52.897596,80.8897552 L53.097,80.4992567 L52.897596,80.1102448 L52.5343223,79.3768873 L52.186732,78.6482116 L51.8549709,77.92478 L51.5391846,77.2071544 C51.3853094,76.8498869 51.2374794,76.4950075 51.0957764,76.1428323 L50.906,75.6592567 Z M77.093,75.6602567 L76.9042236,76.1428323 C76.7625206,76.4950075 76.6146906,76.8498869 76.4608154,77.2071544 L76.1450291,77.92478 L75.813268,78.6482116 L75.4656777,79.3768873 L75.102404,80.1102448 L74.902,80.4992567 L75.102404,80.8897552 L75.4656777,81.6231127 L75.813268,82.3517884 L76.1450291,83.07522 L76.4608154,83.7928456 C76.6146906,84.1501131 76.7625206,84.5049925 76.9042236,84.8571677 L77.093,85.3392567 L77.5951944,85.219642 L77.5951944,85.219642 L77.9034009,85.141857 L78.5055836,84.9820051 C78.6043409,84.9548997 78.7022864,84.9275666 78.7994076,84.900012 L78.7994076,84.900012 L79.3721398,84.7320757 L79.9244769,84.5591187 L80.4558095,84.381436 L80.9655285,84.1993226 L81.4530245,84.0130736 C81.5323881,83.9817038 81.6108004,83.9501741 81.6882486,83.9184904 L81.6882486,83.9184904 L82.1412679,83.7265912 C82.3618919,83.6297675 82.5736111,83.5316696 82.7760828,83.4324634 L82.7760828,83.4324634 L83.1685949,83.2326225 C83.2952546,83.1655491 83.4177027,83.0980323 83.5358378,83.0301213 L83.5358378,83.0301213 L83.8772024,82.8252547 C85.0806843,82.0701017 85.75,81.2731992 85.75,80.5 C85.75,79.7766545 85.1590605,79.0301842 84.0890185,78.3159368 L84.0890185,78.3159368 L83.7537446,78.1026846 C83.4043214,77.8905098 83.0127854,77.6817332 82.5821564,77.4778491 L82.5821564,77.4778491 L82.1386081,77.2756513 C81.9864896,77.2088325 81.8301392,77.1426127 81.6696688,77.0770473 L81.6696688,77.0770473 L81.1760094,76.8823691 C81.0074109,76.8181676 80.8348041,76.7546758 80.6583011,76.6919489 L80.6583011,76.6919489 L80.1172147,76.5061188 C80.0251228,76.4755481 79.9320847,76.4451824 79.8381145,76.4150288 L79.8381145,76.4150288 L79.2632194,76.2367064 L78.6666238,76.0638043 L78.0489988,75.8966546 L77.4110154,75.7355892 L77.093,75.6602567 Z M54.5114258,79.9594354 L54.224,80.5012567 L54.3105223,80.6653593 C54.375924,80.7888286 54.4420066,80.9124946 54.5087685,81.0363453 L54.511,81.0422567 L54.795,80.4992567 L54.5125033,79.9574369 C54.5121441,79.9581031 54.511785,79.9587693 54.5114258,79.9594354 Z M73.488,79.9572567 L73.204,80.4992567 L73.487,81.0412567 L73.4885742,81.0405646 L73.775,80.4982567 L73.6894777,80.3346407 C73.624076,80.2111714 73.5579934,80.0875054 73.4912315,79.9636547 L73.488,79.9572567 Z M58.451,74.4882567 L58.222008,74.507939 L57.804,74.5482567 L57.4548414,75.0649793 C57.1256745,75.5594748 56.8001971,76.0638461 56.4791089,76.5776133 C56.2423496,76.9564473 56.0115949,77.3345779 55.7868827,77.711683 L55.3455265,78.4644309 C55.2733137,78.5896293 55.2017751,78.7146899 55.1309122,78.8396007 L55.096,78.8992567 L55.37,79.4402567 L55.4348858,79.323622 L55.8379484,78.6145765 C55.906234,78.4963661 55.9750713,78.3781474 56.0444562,78.2599347 L56.0444562,78.2599347 L56.467307,77.5508477 C56.6104272,77.3145871 56.7557067,77.0784669 56.9031141,76.8426031 L56.9031141,76.8426031 L57.1315871,76.4799156 L57.1315871,76.4799156 L57.3619947,76.1198734 L57.8283242,75.4079765 L58.3015238,74.7074164 C58.3809308,74.5916291 58.4605999,74.4763352 58.5405191,74.3615451 L58.451,74.4882567 Z M69.5471979,74.487883 C69.5977272,74.5608609 69.6481543,74.6340396 69.6984762,74.7074164 L69.6984762,74.7074164 L70.1716758,75.4079765 L70.6380053,76.1198734 C70.7922391,76.3590058 70.9452315,76.5999437 71.0968859,76.8426031 L71.0968859,76.8426031 L71.3163972,77.1965766 L71.3163972,77.1965766 L71.532693,77.5508477 L71.9555438,78.2599347 C72.0249287,78.3781474 72.093766,78.4963661 72.1620516,78.6145765 L72.1620516,78.6145765 L72.5651142,79.323622 L72.5651142,79.323622 L72.629,79.4392567 L72.903,78.8992567 L72.872068,78.8443326 L72.872068,78.8443326 L72.4390232,78.0935303 C72.3655025,77.9681305 72.2913094,77.8426055 72.2164455,77.7169675 L71.7592221,76.9618766 L71.5245934,76.5834917 L71.0487742,75.8337367 C70.7979394,75.4445378 70.5447132,75.061098 70.2894164,74.6836335 L70.195,74.5462567 L70.0590946,74.5326394 Z M75.597,75.3352567 L75.5657773,75.4188738 L75.290359,76.0947869 C75.1017467,76.547628 74.9031761,77.0047792 74.6948988,77.4653126 L74.6948988,77.4653126 L74.3752342,78.1585333 L74.0411982,78.8561314 C74.0384365,78.8617944 74.0356733,78.8674579 74.0329088,78.8731217 L74.1265607,79.0395673 L74.331,79.4152567 L74.4393548,79.1973803 C74.4993174,79.0756272 74.558593,78.9541191 74.6171803,78.8328681 L74.9604329,78.1085405 L75.2870979,77.3909522 C75.3932141,77.1529428 75.4965545,76.9161521 75.5971076,76.6806752 L75.8903944,75.9782817 C75.9640287,75.7978132 76.0359806,75.618192 76.1062448,75.4394625 L75.7313925,75.3617247 L75.597,75.3352567 Z M52.401,75.3352567 L52.3475441,75.3459314 C52.2352283,75.3684416 52.1236095,75.3912347 52.0127004,75.4143046 L52.0127004,75.4143046 L51.8934063,75.4398663 C51.9180196,75.5024747 51.94284,75.5651923 51.9678673,75.6280174 L52.2526285,76.3260345 C52.3992018,76.6771296 52.5520555,77.031283 52.7111514,77.3881725 L53.037655,78.1055045 L53.3807364,78.8295603 L53.6686272,79.4149096 C53.7362511,79.2899189 53.8045228,79.1648008 53.8734393,79.0395673 L53.966,78.8722567 L53.9588018,78.8561314 L53.6247658,78.1585333 C53.5702855,78.0426124 53.516404,77.9268739 53.4631253,77.8113323 L53.4631253,77.8113323 L53.1507172,77.1205612 C52.998161,76.7764729 52.8511002,76.4344177 52.709641,76.0947869 L52.709641,76.0947869 L52.4342227,75.4188738 L52.401,75.3352567 Z M56.505,74.6882567 L56.2900873,74.7139943 L55.5401934,74.811399 L54.8042851,74.9169226 C54.6828331,74.93517 54.5619892,74.9537435 54.4417661,74.9726368 L54.4417661,74.9726368 L53.7279792,75.0897854 L53.406,75.1472567 L53.4638814,75.2931886 C53.5100803,75.4074004 53.5569782,75.5220139 53.6045741,75.6370143 L53.7494557,75.9831602 L54.0517662,76.6820497 L54.3707748,77.3891308 C54.4253323,77.5076199 54.4805839,77.6264201 54.5365289,77.7455162 L54.5365289,77.7455162 L54.56773,77.8118037 C54.6190095,77.7234987 54.6706013,77.6351563 54.7225044,77.5467807 L55.1694332,76.7977212 C55.3208736,76.5478321 55.4747702,76.2977717 55.6310985,76.0476336 L56.1106722,75.2920082 C56.1911552,75.1671297 56.2719087,75.0427862 56.3529229,74.9189862 L56.505,74.6882567 Z M71.493,74.6862567 L71.6441836,74.914565 L71.8893278,75.2920082 L72.3689015,76.0476336 C72.5252298,76.2977717 72.6791264,76.5478321 72.8305668,76.7977212 L73.2774956,77.5467807 L73.431,77.8102567 L73.6292252,77.3891308 L73.9482338,76.6820497 L74.2505443,75.9831602 C74.3975187,75.6358844 74.538217,75.2919528 74.6726176,74.951774 L74.594,75.1462567 L74.3061468,75.0949944 L73.5681867,74.9733295 L72.81423,74.8599077 C72.6872747,74.8417094 72.5596809,74.8238685 72.4314625,74.8063917 L72.4314625,74.8063917 L71.6547687,74.705957 L71.493,74.6862567 Z M51.861,73.8982567 L51.9300162,73.8848887 C51.8135315,73.9087626 51.6977402,73.9329671 51.5826528,73.9574977 L51.3590791,74.0062584 C51.3886085,74.090184 51.4185358,74.174346 51.4488604,74.2587395 L51.533,74.4882567 L52.037,74.3822567 L51.9289532,74.0892271 C51.9091818,74.0344992 51.8895718,73.9798604 51.8701239,73.9253126 L51.861,73.8982567 Z M76.137,73.8992567 L76.0710468,74.0892271 L75.9625953,74.3818155 C76.0683678,74.4032886 76.1736059,74.4250315 76.278298,74.4470411 L76.278298,74.4470411 L76.466,74.4872567 L76.6101523,74.0920196 C76.6204846,74.0628674 76.630769,74.0337435 76.6410055,74.0046481 C76.5912165,73.9943889 76.5414709,73.983606 76.4915912,73.9728844 L76.137,73.8992567 Z M57.627,73.0462567 L57.6036091,73.0488601 C57.4687381,73.0618065 57.3343996,73.0751509 57.2006042,73.0888886 L56.4044364,73.1760002 L55.6218197,73.2723382 C55.4925415,73.2891515 55.3638493,73.3063402 55.235754,73.3238999 L54.4744291,73.4336739 C54.3487638,73.4526996 54.2237168,73.4720872 54.0992987,73.4918324 L53.3604234,73.6145579 L52.857,73.7052567 L53.035,74.1912567 L53.1122375,74.1775275 L53.8230607,74.0549157 C53.9426333,74.0351367 54.0627474,74.0156886 54.1833886,73.9965749 L54.1833886,73.9965749 L54.9134458,73.8859383 C55.0361378,73.8681782 55.1593281,73.8507602 55.2830024,73.8336883 L55.2830024,73.8336883 L56.0307403,73.7354393 L56.7894025,73.6456776 L57.242,73.5972567 L57.5864663,73.1037939 L57.627,73.0462567 Z M70.371,73.0462567 L70.648205,73.4387084 L70.756,73.5952567 L71.1203004,73.6341718 L71.8948759,73.7247073 L72.6580842,73.8241016 L73.4092018,73.9321571 L74.1475054,74.0486764 C74.269448,74.0687906 74.3908265,74.0892493 74.5116259,74.1100482 L74.5116259,74.1100482 L74.964,74.1902567 L75.142,73.7042567 L75.0845143,73.69338 L74.3568216,73.5658052 L73.6136964,73.4466361 L72.8556411,73.3360886 L72.0831585,73.2343782 L71.691664,73.1869043 L71.691664,73.1869043 L70.8984828,73.098854 L70.371,73.0462567 Z M59.598,72.8902567 L59.2469338,72.9128889 L58.937,72.9362567 L58.7051461,73.2578516 C58.6532175,73.330065 58.6013556,73.4025267 58.549563,73.475235 L58.7293215,73.4596084 L59.208,73.4232567 L59.5107824,73.0089213 L59.5107824,73.0089213 L59.598,72.8902567 Z M68.4010523,72.8891854 L68.4892176,73.0089213 L68.791,73.4222567 L69.1388775,73.4478872 C69.2059081,73.453119 69.2728466,73.4584503 69.3396912,73.4638806 L69.447,73.4722567 L69.061,72.9352567 L68.8590069,72.9202215 C68.7069488,72.9093764 68.5542927,72.8990291 68.4010523,72.8891854 Z M63.9960427,72.7499922 L63.1099898,72.7555391 C62.9630862,72.7573821 62.8165757,72.7596812 62.6704691,72.7624321 L61.798761,72.7843222 L60.9372594,72.8168386 L60.908,72.8172567 L60.7073105,73.0794608 C60.6650921,73.1352027 60.6229081,73.191115 60.5807603,73.2471966 L60.509,73.3422567 L61.1264678,73.3118894 L61.9393115,73.2817623 L62.7579021,73.2614969 C62.8947744,73.2589513 63.0318575,73.2568242 63.1691368,73.2551196 L63.1691368,73.2551196 L63.9950535,73.2499902 L64.5682182,73.2523071 L65.4407561,73.2650665 C65.580223,73.2680341 65.7194574,73.2714366 65.8584442,73.2752699 L65.8584442,73.2752699 L66.6892735,73.3034073 L67.4895353,73.3409337 C67.4240079,73.253366 67.3583904,73.1662071 67.2926895,73.0794608 L67.2926895,73.0794608 L67.091,72.8182567 L66.3140345,72.7879618 L65.4442275,72.7647127 L64.5645168,72.7522418 L63.9960427,72.7499922 Z M52.1163224,61.0171995 L51.9640415,61.0851145 L51.8181545,61.1585365 C50.2451175,61.9975321 49.5835592,64.1118805 49.7778109,67.032734 L49.8209631,67.5564553 L49.881815,68.0963481 C49.9514941,68.6441358 50.0476207,69.2153218 50.169889,69.8073296 L50.3008598,70.4061825 C50.3241368,70.5071162 50.3481372,70.6086045 50.3728594,70.7106354 L50.5298444,71.3292364 C50.5574486,71.43339 50.5857719,71.5380623 50.6148128,71.6432414 L50.797659,72.2803022 C50.8614708,72.4946195 50.9281419,72.7108685 50.997661,72.9289539 L51.037,73.0502567 L51.4193957,72.9666073 L51.533917,72.942221 C51.3779987,72.465639 51.2352316,71.9971812 51.1059655,71.5381376 L51.1059655,71.5381376 L50.9403925,70.9269675 C50.9141623,70.8260892 50.8886174,70.7257123 50.8637618,70.6258512 L50.8637618,70.6258512 L50.7229298,70.0329912 C50.6787637,69.837512 50.6373859,69.6442123 50.5988279,69.453208 L50.5988279,69.453208 L50.4916445,68.8871974 C50.4587575,68.7008999 50.4287216,68.5170139 50.4015685,68.3356554 L50.4015685,68.3356554 L50.3287884,67.799278 C49.9550517,64.7159929 50.4737621,62.4422551 52.0534579,61.599708 C53.7439041,60.698091 56.3132632,61.49706 59.1990793,63.5068347 L59.1990793,63.5068347 L59.6828824,63.8529244 L60.1719671,64.2209324 C60.2538892,64.2840657 60.3360073,64.3480911 60.4183093,64.4129984 L60.4183093,64.4129984 L60.9142315,64.8129394 C60.9972209,64.8813317 61.08037,64.9505849 61.1636669,65.0206883 L61.1636669,65.0206883 L61.6651247,65.4514284 C61.7489643,65.524891 61.8329275,65.5991828 61.9170023,65.6742935 L61.9170023,65.6742935 L62.4226936,66.1346989 C62.5916394,66.2913865 62.760935,66.4512654 62.9304839,66.6142514 L62.9304839,66.6142514 L63.284178,66.251278 C63.2318011,66.2011379 63.1794533,66.1513014 63.1271368,66.1017699 L62.5951601,65.6076172 C62.2413617,65.2853091 61.8893956,64.9773407 61.5400223,64.6842245 L61.018002,64.2557536 C57.4654502,61.4048624 54.2252488,60.141319 52.1163224,61.0171995 Z M67.4868289,63.8622546 L66.9826465,64.2575543 C66.8982539,64.325237 66.8136875,64.3938144 66.7289582,64.4632789 L66.2187152,64.8906524 L65.7050874,65.3389584 C65.3768474,65.6312023 65.0468657,65.9359748 64.715753,66.252857 C64.7721837,66.3098295 64.8293082,66.3675562 64.8864313,66.4256051 L65.068,66.6142567 C65.1542905,66.5327584 65.2390017,66.4520422 65.3236374,66.3721132 L65.5773064,66.1346989 L66.0829977,65.6742935 C66.1670725,65.5991828 66.2510357,65.524891 66.3348753,65.4514284 L66.3348753,65.4514284 L66.8363331,65.0206883 C66.91963,64.9505849 67.0027791,64.8813317 67.0857685,64.8129394 L67.0857685,64.8129394 L67.5816907,64.4129984 C67.6639927,64.3480911 67.7461108,64.2840657 67.8280329,64.2209324 L67.8280329,64.2209324 L68.3171176,63.8529244 L68.8009207,63.5068347 C71.6867368,61.49706 74.2560959,60.698091 75.9465421,61.599708 C77.5262379,62.4422551 78.0449483,64.7159929 77.6712116,67.799278 L77.6712116,67.799278 L77.5984315,68.3356554 C77.5712784,68.5170139 77.5412425,68.7008999 77.5083555,68.8871974 L77.5083555,68.8871974 L77.4011721,69.453208 C77.3626141,69.6442123 77.3212363,69.837512 77.2770702,70.0329912 L77.2770702,70.0329912 L77.1362382,70.6258512 C77.1113826,70.7257123 77.0858377,70.8260892 77.0596075,70.9269675 L77.0596075,70.9269675 L76.8940345,71.5381376 C76.7203009,72.1550922 76.5221799,72.789052 76.3005207,73.4368853 L76.464,72.9422567 L76.652848,72.9816558 C76.7565291,73.0038459 76.8596974,73.02631 76.962345,73.0490461 L77.0014225,72.9304092 C78.8793541,67.0406478 78.6801984,62.4910589 76.1818455,61.1585365 C74.168552,60.0847256 71.00028,61.1711497 67.4868289,63.8622546 Z M75.4759353,62.482051 C74.1130214,61.7551268 71.7616775,62.5756482 69.0175488,64.5769429 L69.0175488,64.5769429 L68.5433902,64.9315204 C67.8267141,65.4805314 67.0863168,66.1062326 66.332326,66.8023896 L66.332326,66.8023896 L65.8277627,67.2768636 L65.761,67.3402567 L66.220012,67.8399209 C66.3087323,67.9379757 66.3973988,68.0367693 66.4860013,68.1362933 L67.0167665,68.7421304 C67.1050722,68.8445406 67.1932936,68.9476637 67.2814206,69.051491 L67.8089678,69.6828356 C67.984385,69.8960544 68.1593432,70.1120204 68.3337614,70.3306643 L68.8553145,70.9945603 L69.3731404,71.6741067 L69.595,71.9732567 L69.7132688,71.9822637 C69.9892114,72.0051863 70.2633251,72.0297497 70.5355188,72.0559287 L71.3462486,72.1392882 C71.4803798,72.1539809 71.6140082,72.1690714 71.7471225,72.1845564 L72.5395464,72.2821764 C72.6705583,72.2992272 72.8010332,72.3166663 72.9309598,72.3344906 L73.7038473,72.4460338 L74.4630268,72.5666719 L75.2079514,72.6962548 L75.4741029,72.7469725 C75.5216951,72.6030864 75.5680165,72.4601335 75.613065,72.3181505 L75.613065,72.3181505 L75.8059056,71.6902106 C75.8366314,71.5866703 75.8666494,71.4836984 75.895959,71.3813099 L75.895959,71.3813099 L76.0633077,70.7741009 L76.2136141,70.1816204 C76.2372429,70.0841414 76.2601599,69.9873064 76.2823644,69.8911304 L76.2823644,69.8911304 L76.4070355,69.3221046 L76.5145684,68.7696232 C76.5970278,68.3163172 76.6615951,67.8810015 76.7081708,67.4655676 L76.7081708,67.4655676 L76.7554192,66.9767112 C76.9419845,64.661201 76.5219703,63.0399646 75.4759353,62.482051 Z M58.9824512,64.5769429 C56.2383225,62.5756482 53.8869786,61.7551268 52.5240647,62.482051 C51.4780297,63.0399646 51.0580155,64.661201 51.2445808,66.9767112 L51.2445808,66.9767112 L51.2918292,67.4655676 C51.3384049,67.8810015 51.4029722,68.3163172 51.4854316,68.7696232 L51.4854316,68.7696232 L51.5929645,69.3221046 L51.7176356,69.8911304 C51.7398401,69.9873064 51.7627571,70.0841414 51.7863859,70.1816204 L51.7863859,70.1816204 L51.9366923,70.7741009 L52.104041,71.3813099 C52.1333506,71.4836984 52.1633686,71.5866703 52.1940944,71.6902106 L52.1940944,71.6902106 L52.386935,72.3181505 C52.43188,72.4598071 52.4780919,72.6024291 52.5255689,72.7459802 L53.2442363,72.6164432 L54.0000585,72.4918977 L54.7698399,72.3764474 L55.5530256,72.2702436 C55.6846427,72.2533218 55.8167952,72.2367917 55.9494716,72.2206562 L56.7517229,72.1286053 L57.5659907,72.0461785 C57.7026726,72.0332511 57.839832,72.0207311 57.9774574,72.0086214 L58.405,71.9732567 L58.5965257,71.7145585 C58.68144,71.6012198 58.766527,71.4884999 58.8517769,71.3764073 L59.3651518,70.7114461 L59.8819654,70.0619417 L60.4017479,69.4282963 C60.4885996,69.3240327 60.5755554,69.2204466 60.6626056,69.1175465 L61.1859607,68.5084439 L61.7111103,67.9162059 C61.886407,67.7216487 62.0619246,67.5299693 62.2375847,67.3412348 L62.1722373,67.2768636 L61.667674,66.8023896 C60.9136832,66.1062326 60.1732859,65.4805314 59.4566098,64.9315204 L59.4566098,64.9315204 Z M65.046,68.0442567 L64.69,68.4102567 L64.9710624,68.7138539 C65.056079,68.8071038 65.1410624,68.9010466 65.2260007,68.9956716 L65.4806681,69.2815833 L65.9889008,69.8654363 L66.4951819,70.4649092 L66.9989328,71.0794981 L67.4995749,71.7086989 C67.5346125,71.7533894 67.5696229,71.7981843 67.6046051,71.8430827 L68.0363961,71.8646163 L68.271,71.8792567 L67.944503,71.4536272 C67.8562254,71.3404053 67.7678248,71.2279194 67.6793128,71.1161775 L67.1470015,70.4547185 C67.0580922,70.3459848 66.9690953,70.2380111 66.8800229,70.1308055 L66.3447764,69.4968526 C66.1661218,69.2886499 65.98726,69.0835836 65.8082859,68.8817176 L65.2711218,68.2857852 L65.046,68.0442567 Z M62.953,68.0442567 L62.5816229,68.4482223 L62.0589926,69.0329782 L61.5371748,69.6357872 C61.3634293,69.8396924 61.1899066,70.0465464 61.0166942,70.2562893 L60.4980754,70.8941248 C60.2402134,71.2161986 59.9832401,71.5445935 59.7274476,71.8791091 L60.0753429,71.8581542 L60.396,71.8402567 L60.5004251,71.7086989 L61.0010672,71.0794981 L61.5048181,70.4649092 C61.5890035,70.3637234 61.6732943,70.2631674 61.7576785,70.1632518 L61.7576785,70.1632518 L62.2650078,69.5715258 L62.7739993,68.9956716 C62.8589376,68.9010466 62.943921,68.8071038 63.0289376,68.7138539 L63.0289376,68.7138539 L63.309,68.4102567 L62.953,68.0442567 Z M63.9999429,69.1388865 C63.9275112,69.2171296 63.8550504,69.2959384 63.7825691,69.3753075 L63.7825691,69.3753075 L63.2678698,69.9480029 C63.1820658,70.0449979 63.0962608,70.1427601 63.0104685,70.241281 L63.0104685,70.241281 L62.4959793,70.8414415 L61.9824637,71.459399 C61.894207,71.5672607 61.8060232,71.6758949 61.7179276,71.7852921 L61.7981509,71.7836957 L62.2344552,71.7716156 L62.2344552,71.7716156 L63.1133008,71.7554291 C63.260445,71.7536236 63.4079164,71.7522663 63.5557034,71.7513604 L64,71.75 L64.5684741,71.7522496 L65.4483593,71.7646006 C65.5943354,71.767546 65.7399684,71.7709329 65.8852466,71.774758 L66.282,71.7872567 L66.0175363,71.459399 L65.5040207,70.8414415 L64.9895315,70.241281 C64.8179469,70.0442392 64.6463113,69.8502321 64.4747356,69.6593279 L64.4747356,69.6593279 Z M63.8883105,67.067677 L63.644,67.3192567 L63.9500471,67.6287819 L64,67.6802567 L64.0499529,67.6287819 L64.356,67.3182567 L64.0004577,66.9545527 C63.9630838,66.9921117 63.9257011,67.02982 63.8883105,67.067677 Z"/>
  </g>
</svg>
