<svg xmlns="http://www.w3.org/2000/svg" xmlns:xlink="http://www.w3.org/1999/xlink" width="512" height="512" viewBox="0 0 512 512">
  <defs>
    <filter id="drive-harddisk-linux-a" width="129.3%" height="125%" x="-14.7%" y="-12.5%" filterUnits="objectBoundingBox">
      <feOffset dy="8" in="SourceAlpha" result="shadowOffsetOuter1"/>
      <feGaussianBlur in="shadowOffsetOuter1" result="shadowBlurOuter1" stdDeviation="10"/>
      <feComposite in="shadowBlurOuter1" in2="SourceAlpha" operator="out" result="shadowBlurOuter1"/>
      <feColorMatrix in="shadowBlurOuter1" result="shadowMatrixOuter1" values="0 0 0 0 0   0 0 0 0 0   0 0 0 0 0  0 0 0 0.2 0"/>
      <feMerge>
        <feMergeNode in="shadowMatrixOuter1"/>
        <feMergeNode in="SourceGraphic"/>
      </feMerge>
    </filter>
    <linearGradient id="drive-harddisk-linux-b" x1="102.549%" x2="-2.652%" y1="57.682%" y2="57.682%">
      <stop offset="0%" stop-color="#00285D"/>
      <stop offset="4.571%" stop-color="#17A167"/>
      <stop offset="9.931%" stop-color="#138D6D"/>
      <stop offset="88.945%" stop-color="#0B673E"/>
      <stop offset="93.793%" stop-color="#19734E"/>
      <stop offset="100%" stop-color="#002472"/>
    </linearGradient>
    <linearGradient id="drive-harddisk-linux-c" x1="100%" x2="0%" y1="56.43%" y2="56.43%">
      <stop offset="0%" stop-color="#FFF" stop-opacity="0"/>
      <stop offset="8.389%" stop-color="#CDCDCD" stop-opacity=".9"/>
      <stop offset="52.356%" stop-color="#FFF" stop-opacity=".42"/>
      <stop offset="88.168%" stop-color="#CDCDCD" stop-opacity=".9"/>
      <stop offset="100%" stop-color="#FFF" stop-opacity=".13"/>
    </linearGradient>
    <radialGradient id="drive-harddisk-linux-d" cx="48.239%" cy="19.103%" r="78.654%" fx="48.239%" fy="19.103%" gradientTransform="matrix(0 1 -.77841 0 .631 -.291)">
      <stop offset="0%" stop-color="#47A9E0"/>
      <stop offset="100%" stop-color="#967B99"/>
    </radialGradient>
    <linearGradient id="drive-harddisk-linux-g" x1="50%" x2="50%" y1="0%" y2="100%">
      <stop offset="0%" stop-color="#0A2CBC"/>
      <stop offset="50.85%" stop-color="#116CB9"/>
      <stop offset="100%" stop-color="#0904C1"/>
    </linearGradient>
    <path id="drive-harddisk-linux-f" d="M244,376 C246.209139,376 248,377.789028 248,380.004258 L248,403.995742 C248,406.140218 246.311805,407.890963 244.199256,407.995099 L244,408 C241.790861,408 240,406.210972 240,403.995742 L240,380.004258 C240,377.859782 241.688195,376.109037 243.800744,376.004901 L244,376 Z M260,376 C262.209139,376 264,377.789028 264,380.004258 L264,403.995742 C264,406.140218 262.311805,407.890963 260.199256,407.995099 L260,408 C257.790861,408 256,406.210972 256,403.995742 L256,380.004258 C256,377.859782 257.688195,376.109037 259.800744,376.004901 L260,376 Z M276,376 C278.209139,376 280,377.789028 280,380.004258 L280,403.995742 C280,406.140218 278.311805,407.890963 276.199256,407.995099 L276,408 C273.790861,408 272,406.210972 272,403.995742 L272,380.004258 C272,377.859782 273.688195,376.109037 275.800744,376.004901 L276,376 Z M292,376 C294.209139,376 296,377.789028 296,380.004258 L296,403.995742 C296,406.140218 294.311805,407.890963 292.199256,407.995099 L292,408 C289.790861,408 288,406.210972 288,403.995742 L288,380.004258 C288,377.859782 289.688195,376.109037 291.800744,376.004901 L292,376 Z M308,376 C310.209139,376 312,377.789028 312,380.004258 L312,403.995742 C312,406.140218 310.311805,407.890963 308.199256,407.995099 L308,408 C305.790861,408 304,406.210972 304,403.995742 L304,380.004258 C304,377.859782 305.688195,376.109037 307.800744,376.004901 L308,376 Z M324,376 C326.209139,376 328,377.789028 328,380.004258 L328,403.995742 C328,406.140218 326.311805,407.890963 324.199256,407.995099 L324,408 C321.790861,408 320,406.210972 320,403.995742 L320,380.004258 C320,377.859782 321.688195,376.109037 323.800744,376.004901 L324,376 Z"/>
    <filter id="drive-harddisk-linux-e" width="104.5%" height="125%" x="-2.3%" y="-6.2%" filterUnits="objectBoundingBox">
      <feOffset dy="4" in="SourceAlpha" result="shadowOffsetOuter1"/>
      <feColorMatrix in="shadowOffsetOuter1" values="0 0 0 0 1   0 0 0 0 1   0 0 0 0 1  0 0 0 0.1 0"/>
    </filter>
    <path id="drive-harddisk-linux-h" d="M46,406 C53.7319865,406 60,399.731986 60,392 C60,384.268014 53.7319865,378 46,378 C38.2680135,378 32,384.268014 32,392 C32,399.731986 38.2680135,406 46,406 Z"/>
    <filter id="drive-harddisk-linux-i" width="142.9%" height="142.9%" x="-21.4%" y="-21.4%" filterUnits="objectBoundingBox">
      <feOffset dx="-8" dy="-12" in="SourceAlpha" result="shadowOffsetInner1"/>
      <feComposite in="shadowOffsetInner1" in2="SourceAlpha" k2="-1" k3="1" operator="arithmetic" result="shadowInnerInner1"/>
      <feColorMatrix in="shadowInnerInner1" values="0 0 0 0 0.0980392157   0 0 0 0 0.631372549   0 0 0 0 0  0 0 0 1 0"/>
    </filter>
  </defs>
  <g fill="none" fill-rule="evenodd">
    <g filter="url(#drive-harddisk-linux-a)" transform="translate(72 40)">
      <path fill="url(#drive-harddisk-linux-b)" d="M-3.48450158e-10,63.9992262 C-3.48450158e-10,28.6534296 28.6465504,4.06657819e-10 63.9955835,4.06657819e-10 L304.004409,4.06657819e-10 C339.348194,4.06657819e-10 367.999993,28.6595347 367.999994,63.9992262 L368,393.818196 L-3.48450158e-10,393.818196 L-3.48450158e-10,63.9992262 Z"/>
      <path fill="url(#drive-harddisk-linux-c)" stroke="#FFF" stroke-opacity=".2" stroke-width="2" d="M1.00000002,344.001818 L1.00000002,379.998183 C1.00000002,401.542844 18.4563361,419.000001 39.9951454,419.000001 L328.004855,418.999999 C349.542228,418.999999 367,401.538857 367,379.998182 L367,344.001817 C367,322.457157 349.543664,305 328.004855,305 L39.9951454,305 C18.4577723,305 1.00000001,322.461142 1.00000002,344.001818 Z"/>
      <path fill="url(#drive-harddisk-linux-d)" stroke="#003D9C" stroke-opacity=".2" stroke-width="2" d="M0.999999991,392 C0.999999991,413.542293 18.4570516,431 39.995144,431 L328.004843,431 C349.542226,431 366.999987,413.539662 366.999987,392 C366.999987,370.457707 349.542936,353 328.004843,353 L39.995144,353 C18.4577615,353 0.999999991,370.460338 0.999999991,392 Z"/>
      <use fill="#000" filter="url(#drive-harddisk-linux-e)" xlink:href="#drive-harddisk-linux-f"/>
      <use fill="url(#drive-harddisk-linux-g)" xlink:href="#drive-harddisk-linux-f"/>
      <use fill="#5BAB00" xlink:href="#drive-harddisk-linux-h"/>
      <use fill="#000" filter="url(#drive-harddisk-linux-i)" xlink:href="#drive-harddisk-linux-h"/>
      <path stroke="#108600" stroke-linejoin="square" stroke-width="4" d="M46,404 C52.627417,404 58,398.627417 58,392 C58,385.372583 52.627417,380 46,380 C39.372583,380 34,385.372583 34,392 C34,398.627417 39.372583,404 46,404 Z"/>
    </g>
    <path fill="#FFF" fill-opacity=".6" d="M307.065895,227.04412 C307.065895,225.785273 305.138541,224.316656 301.283741,222.638201 C301.564093,221.589169 301.826925,220.627574 302.072212,219.753369 C302.317523,218.879187 302.492752,217.97004 302.597875,217.025905 C302.702999,216.081769 302.808122,215.329966 302.913269,214.770497 C303.018392,214.211004 303.035912,213.424236 302.96583,212.410169 C302.895748,211.396103 302.860707,210.714254 302.860707,210.364577 C302.860707,210.0149 302.73804,209.245614 302.492752,208.056697 C302.247441,206.867804 302.107277,206.150967 302.072212,205.906209 C302.037171,205.661428 301.861966,204.787247 301.546573,203.283618 C301.231179,201.780012 301.038453,200.853383 300.968348,200.503706 C300.267479,197.146794 298.620478,193.545172 296.02725,189.698698 C293.434023,185.852248 290.910948,183.229704 288.457884,181.830995 C290.139974,183.229704 292.137432,186.131995 294.450308,190.537938 C300.547878,201.867496 302.440191,211.588389 300.127315,219.700921 C299.356364,222.498339 297.604216,223.966979 294.870824,224.10684 C292.698113,224.386587 291.348961,223.73968 290.823322,222.166144 C290.297658,220.592585 290.01733,217.672835 289.982289,213.406753 C289.947224,209.140671 289.544252,205.399188 288.773278,202.182138 C288.142491,199.45465 287.459167,197.041922 286.723257,194.943858 C285.987347,192.845794 285.303999,191.254775 284.673213,190.170778 C284.042427,189.086781 283.499266,188.230082 283.043709,187.600658 C282.588128,186.971234 282.13257,186.44673 281.677013,186.027099 C281.221455,185.607491 280.958624,185.362733 280.888542,185.292779 C279.907321,180.95679 278.820977,177.355144 277.62951,174.487795 C276.438043,171.620446 275.404261,169.662267 274.528187,168.613235 C273.652089,167.564204 272.828577,166.410276 272.057626,165.151451 C271.286676,163.892604 270.761013,162.493918 270.480684,160.955324 C270.200332,159.486684 270.410578,157.615942 271.111447,155.343028 C271.812315,153.070114 271.970024,151.339234 271.584548,150.15034 C271.199049,148.961423 269.639651,148.087242 266.906259,147.527772 C265.854956,147.317957 264.295534,146.688556 262.22797,145.639501 C260.160405,144.590469 258.916377,144.030999 258.49586,143.961069 C257.935156,143.891138 257.549681,142.981991 257.339434,141.233581 C257.129164,139.485195 257.409516,137.701866 258.180467,135.883549 C258.951418,134.065232 260.212967,133.121096 261.965138,133.051165 C264.558366,132.841373 266.345555,133.890382 267.326775,136.198261 C268.307996,138.506117 268.44816,140.534227 267.747292,142.282613 C266.976341,143.611391 266.906259,144.538021 267.537045,145.062549 C268.167808,145.587053 269.219111,145.604535 270.69093,145.114997 C271.602069,144.83525 272.057626,143.576426 272.057626,141.338501 L272.057626,137.457085 C271.707192,135.359021 271.234114,133.610658 270.638369,132.211949 C270.042623,130.81324 269.306737,129.746726 268.43064,129.012406 C267.554542,128.278086 266.731054,127.753581 265.960079,127.43887 C265.189129,127.124158 264.242973,126.861894 263.121588,126.652102 C255.62228,127.211571 252.503436,131.89719 253.765009,140.709077 C253.765009,141.758109 253.729968,142.282613 253.659886,142.282613 C253.0291,141.653189 251.995341,141.286053 250.558539,141.181133 C249.121761,141.076237 247.965359,141.09372 247.089261,141.233581 C246.213164,141.373466 245.670004,141.198616 245.459757,140.709077 C245.529839,136.722742 244.969135,133.575693 243.777668,131.267814 C242.586201,128.959958 241.009258,127.771064 239.046817,127.701133 C237.154481,127.631179 235.700183,128.592798 234.683921,130.585942 C233.667659,132.579109 233.089458,134.659667 232.949294,136.827661 C232.879188,137.876717 233.001855,139.170483 233.317248,140.709077 C233.632618,142.247671 234.088199,143.558943 234.683921,144.642941 C235.279666,145.726938 235.822826,146.198994 236.313449,146.059132 C237.014317,145.849317 237.574998,145.359778 237.995514,144.590492 C238.275866,143.961069 238.030579,143.681322 237.259605,143.751253 C236.769006,143.751253 236.225846,143.244231 235.630101,142.230165 C235.034355,141.216098 234.701441,140.044688 234.631359,138.715933 C234.561277,137.177339 234.87667,135.883549 235.577539,134.834517 C236.278407,133.785485 237.469851,133.295947 239.15194,133.365877 C240.343431,133.365877 241.289587,134.100197 241.990455,135.568837 C242.691324,137.037477 243.024238,138.401197 242.989197,139.660045 C242.954156,140.918893 242.901594,141.688178 242.831488,141.967901 C241.289587,143.016956 240.203243,144.030999 239.57248,145.010101 C239.011776,145.849317 238.048099,146.67105 236.681403,147.475301 C235.314707,148.279575 234.596318,148.716666 234.526236,148.786596 C233.615098,149.765698 233.071937,150.70981 232.896708,151.61898 C232.721503,152.528127 232.984335,153.157551 233.685203,153.507228 C234.6664,154.066721 235.542474,154.74857 236.313449,155.55282 C237.084399,156.357095 237.64508,157.02146 237.995514,157.545988 C238.345948,158.070492 238.994255,158.525066 239.940435,158.909732 C240.886591,159.294374 242.13062,159.521649 243.672545,159.59158 C246.966617,159.731465 250.541019,159.206961 254.395796,158.018044 C254.53596,157.948113 255.341952,157.703332 256.813771,157.283724 C258.285614,156.864116 259.494601,156.496956 260.440757,156.182244 C261.386937,155.867532 262.420696,155.412959 263.542104,154.8185 C264.663489,154.224065 265.399399,153.612124 265.749833,152.9827 C266.380619,152.003623 267.081464,151.723876 267.852415,152.143484 C268.202849,152.3533 268.43064,152.650506 268.535763,153.035172 C268.64091,153.419815 268.535763,153.839423 268.22037,154.293996 C267.905,154.74857 267.326775,155.080764 266.485743,155.29058 C265.084006,155.710188 263.104067,156.461991 260.545904,157.545988 C257.987717,158.629985 256.393255,159.311857 255.762492,159.59158 C252.678665,160.920359 250.225649,161.724609 248.403396,162.004356 C246.651201,162.354033 243.882815,162.284102 240.09812,161.79454 C239.397251,161.654678 239.081858,161.724609 239.15194,162.004356 C239.222046,162.284102 239.817768,162.948468 240.939153,163.9975 C242.691324,165.606025 245.039217,166.37531 247.982856,166.305379 C249.174346,166.235449 250.435895,165.990667 251.76755,165.571059 C253.099205,165.151428 254.360755,164.661889 255.552222,164.10242 C256.743689,163.542926 257.917635,162.931009 259.074085,162.26662 C260.230511,161.60223 261.28179,161.007772 262.22797,160.483268 C263.174149,159.95874 264.032703,159.539132 264.803653,159.22442 C265.574604,158.909732 266.18787,158.822295 266.643427,158.96218 C267.098985,159.102041 267.396858,159.486684 267.537045,160.116108 C267.537045,160.255969 267.501981,160.413337 267.431899,160.588164 C267.361817,160.763014 267.221652,160.937841 267.011382,161.112692 C266.801136,161.287518 266.590866,161.444863 266.380596,161.584748 C266.170349,161.724609 265.872477,161.89946 265.487001,162.109252 C265.101526,162.319068 264.786133,162.476412 264.540822,162.581332 C264.295534,162.686228 263.9451,162.861055 263.489543,163.105836 C263.033962,163.350617 262.701048,163.507961 262.490801,163.577892 C260.52836,164.556993 258.16297,166.095564 255.394537,168.193627 C252.62608,170.291691 250.295731,171.795273 248.403396,172.704443 C246.511036,173.613614 244.79393,173.648579 243.252028,172.809339 C241.780185,172.040054 239.57248,169.48744 236.628842,165.151451 C235.086917,162.983433 234.210843,162.214148 234.000573,162.843572 C233.930491,163.053388 233.89545,163.403065 233.89545,163.892604 C233.89545,165.64099 233.36981,167.616652 232.318507,169.819611 C231.267204,172.022595 230.233422,173.963267 229.21716,175.641723 C228.200899,177.320179 227.465013,179.348288 227.009432,181.726099 C226.553874,184.103909 226.95687,186.306845 228.218443,188.334978 C226.606436,188.754586 224.416251,191.901635 221.647818,197.776218 C218.879385,203.650825 217.21484,208.581202 216.654135,212.567537 C216.513971,213.826361 216.461409,216.239113 216.496451,219.805817 C216.531492,223.372544 216.338766,225.435619 215.918226,225.995088 C215.357545,227.673544 214.341283,227.77844 212.869464,226.3098 C210.626671,224.141806 209.365145,220.854872 209.084793,216.448929 C208.944605,214.49075 209.084793,212.532571 209.505309,210.574369 C209.785661,209.245591 209.75062,208.616191 209.400186,208.686121 L208.979646,209.210649 C206.456524,213.756454 206.806958,219.561012 210.030949,226.624512 C210.381383,227.463728 211.257457,228.442829 212.659194,229.561792 C214.060955,230.680755 214.901964,231.380109 215.182316,231.659856 C216.584053,233.268357 220.228537,236.432912 226.115837,241.153567 C232.003138,245.874199 235.262146,248.549215 235.892932,249.178615 C237.014317,250.227671 237.627559,251.556426 237.732706,253.164927 C237.837829,254.773452 237.347231,256.277034 236.260887,257.675766 C235.174519,259.074476 233.58008,259.878726 231.477474,260.088519 C232.038155,261.13755 233.054417,262.693604 234.526236,264.756702 C235.998055,266.819798 236.979252,268.708032 237.469875,270.421453 C237.960473,272.134874 238.205784,274.600067 238.205784,277.817103 C241.429775,276.13865 241.675086,272.921661 238.941694,268.16604 C238.661342,267.606557 238.293387,267.04708 237.837829,266.487596 C237.382272,265.92811 237.049358,265.508505 236.839088,265.228761 C236.628842,264.949019 236.558736,264.739219 236.628842,264.599334 C236.839088,264.249657 237.294646,263.917486 237.995514,263.602774 C238.696383,263.288062 239.397251,263.375476 240.09812,263.865014 C243.32211,267.501675 249.139258,268.760497 257.549681,267.641527 C266.871265,266.592493 273.073865,263.55035 276.157691,258.514982 C277.769698,255.857426 278.961141,254.808417 279.732116,255.367887 C280.573149,255.787518 280.923583,257.605812 280.783419,260.822838 C280.713313,262.571225 279.907345,265.788221 278.36542,270.473903 C277.734633,272.082424 277.524387,273.393696 277.734633,274.40776 C277.944903,275.421827 278.785936,275.963821 280.257755,276.033756 C280.468025,274.70498 280.976144,272.0125 281.782136,267.956236 C282.588151,263.89998 283.06123,260.752908 283.201394,258.514982 C283.341582,257.046343 283.113791,254.476246 282.518046,250.804623 C281.922324,247.133 281.659492,243.74117 281.729575,240.62904 C281.799657,237.516909 282.605648,235.051709 284.147573,233.233392 C285.198876,231.974544 286.986065,231.345144 289.509187,231.345144 C289.579269,228.757518 290.788257,226.904259 293.136174,225.785296 C295.48409,224.66631 298.024709,224.299174 300.758101,224.683816 C303.491493,225.068459 305.594075,225.855227 307.065895,227.04412 L307.065895,227.04412 Z M241.044299,140.289469 C241.254546,139.100552 241.166943,138.051544 240.781468,137.142373 C240.395992,136.233226 239.992997,135.708699 239.57248,135.568837 C238.941694,135.428976 238.626301,135.673733 238.626301,136.303157 C238.766465,136.652834 238.941694,136.86265 239.15194,136.932581 C239.852809,136.932581 240.09812,137.457085 239.88785,138.506117 C239.677603,139.904826 239.957932,140.604181 240.728906,140.604181 C240.939153,140.604181 241.044299,140.499261 241.044299,140.289469 L241.044299,140.289469 Z M266.380596,138.611013 C266.380596,137.841728 266.205391,137.159856 265.854956,136.565421 C265.504522,135.970963 265.119047,135.533872 264.69853,135.254125 C264.278014,134.974379 263.962621,134.869483 263.752351,134.939413 C262.77113,135.009344 262.525842,135.254125 263.016441,135.673733 C263.156629,135.743664 263.296793,135.813618 263.436957,135.883549 C264.418178,136.163296 265.048965,137.247269 265.329317,139.135541 C265.329317,139.345333 265.609645,139.275402 266.170349,138.925725 L266.380596,138.611013 Z M334.715067,257.413503 C335.486017,258.287684 335.906534,259.1269 335.97664,259.931174 C336.046722,260.735425 335.959119,261.522193 335.713808,262.291478 C335.468497,263.060764 334.925337,263.830049 334.08428,264.599334 C333.243248,265.368636 332.419735,266.050499 331.613743,266.64495 C330.807728,267.239401 329.756449,267.886296 328.459835,268.585653 C327.163221,269.285008 326.05938,269.861969 325.148242,270.31655 C324.237103,270.77113 323.115742,271.313124 321.784087,271.942543 C320.452432,272.571965 319.506276,273.026538 318.945572,273.30628 C316.282262,274.635056 313.286109,276.593223 309.956971,279.18084 C306.627834,281.768456 303.982092,284.006363 302.019651,285.894623 C300.828183,287.013593 298.445249,287.695454 294.870824,287.940229 C291.296376,288.185003 288.177556,287.677978 285.514246,286.419138 C284.252697,285.789717 283.218914,284.967986 282.412923,283.95392 C281.606931,282.939855 281.028706,282.048189 280.678272,281.278899 C280.327837,280.509606 279.556887,279.827744 278.36542,279.233293 C277.173953,278.638839 275.526928,278.306651 273.424322,278.236716 C270.340496,278.16678 265.784898,278.131813 259.757409,278.131813 C258.425778,278.131813 256.428319,278.184263 253.765009,278.289166 C251.101699,278.394069 249.069223,278.481488 247.667486,278.551423 C244.58366,278.621359 241.79773,279.145867 239.309649,280.124966 C236.821568,281.104065 234.946752,282.153083 233.685203,283.272052 C232.42363,284.391022 230.89925,285.387589 229.112037,286.261783 C227.324825,287.135978 225.450033,287.538102 223.487592,287.468166 C221.455068,287.398231 217.565297,286.314245 211.818161,284.216179 C206.071025,282.11811 200.95477,280.614517 196.469192,279.705356 C195.137539,279.425612 193.350348,279.093424 191.107567,278.708779 C188.864782,278.324132 187.112635,278.009427 185.851069,277.764653 C184.589503,277.519879 183.205306,277.187689 181.698436,276.768076 C180.191566,276.348461 179.017627,275.841437 178.176582,275.246983 C177.335539,274.652532 176.739808,273.970669 176.389373,273.201379 C175.688503,271.592859 175.933804,269.267537 177.125283,266.22534 C178.31676,263.183143 178.947535,261.277435 179.017622,260.508127 C179.087709,259.389164 178.947537,257.990478 178.597103,256.312023 C178.246666,254.633567 177.896237,253.147468 177.545803,251.853655 C177.195368,250.559842 177.037674,249.283535 177.072718,248.024687 C177.107761,246.765863 177.475712,245.821727 178.176582,245.192327 C179.1578,244.353087 181.15525,243.863549 184.168989,243.723687 C187.182729,243.583802 189.285308,243.164194 190.476785,242.464839 C192.579395,241.205992 194.0512,239.982157 194.892243,238.79324 C195.733287,237.604346 196.153804,235.821018 196.153804,233.443208 C196.153803,235.436355 198.0111,230.296112 197.730753,228.617656 C197.52049,227.498694 197.450406,226.169939 197.520492,224.631368 C197.590579,222.603235 197.941009,220.784918 198.571791,219.176417 C199.202575,217.567892 200.043607,215.924425 201.09491,214.245969 C202.146213,212.567513 202.917164,211.098897 203.407762,209.840049 C203.968467,208.371409 204.897102,205.853761 206.193716,202.287057 C207.49033,198.72033 208.524089,195.99289 209.295039,194.104618 C210.066013,192.21637 211.117293,190.083365 212.448948,187.705554 C213.780603,185.327744 215.147275,183.43952 216.549012,182.04081 C224.25859,172.040007 228.603918,165.221406 229.585115,161.584748 C228.744082,153.751962 228.183402,142.912107 227.90305,129.064854 C227.762862,122.770662 228.603895,117.473126 230.426172,113.172078 C232.248425,108.871031 235.962991,105.216961 241.569939,102.209727 C244.303331,100.741087 247.947791,100.006767 252.50346,100.006767 C256.218073,99.9368364 259.932615,100.408893 263.647227,101.422959 C267.36184,102.437026 270.48066,103.888159 273.003782,105.776431 C276.998747,108.713711 280.20517,112.962239 282.623193,118.522134 C285.041191,124.082005 286.07495,129.239681 285.724516,133.995301 C285.374082,140.63917 286.425361,148.12216 288.878424,156.444508 C291.261382,164.347224 295.92208,171.9701 302.860707,179.313323 C306.715484,183.43952 310.202259,189.139182 313.321126,196.412498 C316.439994,203.68579 318.525055,210.36453 319.576358,216.448929 C320.137062,219.875771 320.312268,222.83051 320.101998,225.313217 C319.891751,227.795946 319.471235,229.736619 318.840448,231.135328 C318.209662,232.534037 319.751563,238.163839 320.732784,237.3246 C320.802866,239.492618 321.083218,241.468256 321.573817,243.251608 C322.064439,245.034983 322.572558,246.451151 323.098221,247.500183 C323.623861,248.549215 324.34225,249.545775 325.253365,250.489911 C326.164504,251.434047 326.900413,252.098412 327.461094,252.483055 C328.021798,252.867721 328.775228,253.322295 329.721408,253.846799 C330.667564,254.371327 331.245789,254.703498 331.456035,254.843383 C332.857772,255.682599 333.944116,256.539298 334.715067,257.413503 Z"/>
  </g>
</svg>
