<svg xmlns="http://www.w3.org/2000/svg" xmlns:xlink="http://www.w3.org/1999/xlink" width="512" height="512" viewBox="0 0 512 512">
  <defs>
    <path id="media-flash-b" d="M5.50571713e-08,35.9966063 C5.50571713e-08,16.1162296 16.1169752,-6.34554453e-09 35.9994224,-6.34554453e-09 L242.675149,-6.34554453e-09 C254.452539,-6.34554453e-09 270.759093,6.75909287 279.090216,15.0902159 L352,88.0000024 L352,120.000002 L342.977919,126.014723 C334.705843,131.529441 328,144.06118 328,154.009995 L328,165.99001 C328,175.936654 334.70129,188.467529 342.977919,193.985281 L352,200.000002 L352,396.004553 C352,415.884291 335.873659,432.000002 316.004525,432.000002 L35.9954754,432.000002 C16.1157233,432.000002 5.50571713e-08,415.886012 5.50571713e-08,396.003396 L5.50571713e-08,35.9966063 Z"/>
    <filter id="media-flash-a" width="119.3%" height="115.7%" x="-9.7%" y="-6%" filterUnits="objectBoundingBox">
      <feOffset dy="8" in="SourceAlpha" result="shadowOffsetOuter1"/>
      <feGaussianBlur in="shadowOffsetOuter1" result="shadowBlurOuter1" stdDeviation="10"/>
      <feComposite in="shadowBlurOuter1" in2="SourceAlpha" operator="out" result="shadowBlurOuter1"/>
      <feColorMatrix in="shadowBlurOuter1" values="0 0 0 0 0   0 0 0 0 0   0 0 0 0 0  0 0 0 0.2 0"/>
    </filter>
    <linearGradient id="media-flash-c" x1="50%" x2="50%" y1="0%" y2="98.789%">
      <stop offset="0%" stop-color="#555"/>
      <stop offset="100%" stop-color="#272727"/>
    </linearGradient>
    <path id="media-flash-d" d="M5.50571713e-08,35.9966063 C5.50571713e-08,16.1162296 16.1169752,-6.34554453e-09 35.9994224,-6.34554453e-09 L242.675149,-6.34554453e-09 C254.452539,-6.34554453e-09 270.759093,6.75909287 279.090216,15.0902159 L352,88.0000024 L352,120.000002 L342.977919,126.014723 C334.705843,131.529441 328,144.06118 328,154.009995 L328,165.99001 C328,175.936654 334.70129,188.467529 342.977919,193.985281 L352,200.000002 L352,396.004553 C352,415.884291 335.873659,432.000002 316.004525,432.000002 L35.9954754,432.000002 C16.1157233,432.000002 5.50571713e-08,415.886012 5.50571713e-08,396.003396 L5.50571713e-08,35.9966063 Z"/>
    <filter id="media-flash-e" width="101.1%" height="100.9%" x="-.6%" y="-.5%" filterUnits="objectBoundingBox">
      <feOffset dy="4" in="SourceAlpha" result="shadowOffsetInner1"/>
      <feComposite in="shadowOffsetInner1" in2="SourceAlpha" k2="-1" k3="1" operator="arithmetic" result="shadowInnerInner1"/>
      <feColorMatrix in="shadowInnerInner1" values="0 0 0 0 1   0 0 0 0 1   0 0 0 0 1  0 0 0 0.13 0"/>
    </filter>
    <rect id="media-flash-f" width="32" height="88" x="40" y="40" rx="8"/>
    <filter id="media-flash-g" width="112.5%" height="104.5%" x="-6.2%" y="-2.3%" filterUnits="objectBoundingBox">
      <feOffset dy="4" in="SourceAlpha" result="shadowOffsetInner1"/>
      <feComposite in="shadowOffsetInner1" in2="SourceAlpha" k2="-1" k3="1" operator="arithmetic" result="shadowInnerInner1"/>
      <feColorMatrix in="shadowInnerInner1" values="0 0 0 0 0.819607843   0 0 0 0 0.623529412   0 0 0 0 0  0 0 0 1 0"/>
    </filter>
    <rect id="media-flash-h" width="32" height="88" x="96" y="40" rx="8"/>
    <filter id="media-flash-i" width="112.5%" height="104.5%" x="-6.2%" y="-2.3%" filterUnits="objectBoundingBox">
      <feOffset dy="4" in="SourceAlpha" result="shadowOffsetInner1"/>
      <feComposite in="shadowOffsetInner1" in2="SourceAlpha" k2="-1" k3="1" operator="arithmetic" result="shadowInnerInner1"/>
      <feColorMatrix in="shadowInnerInner1" values="0 0 0 0 0.819607843   0 0 0 0 0.623529412   0 0 0 0 0  0 0 0 1 0"/>
    </filter>
    <rect id="media-flash-j" width="32" height="88" x="152" y="40" rx="8"/>
    <filter id="media-flash-k" width="112.5%" height="104.5%" x="-6.2%" y="-2.3%" filterUnits="objectBoundingBox">
      <feOffset dy="4" in="SourceAlpha" result="shadowOffsetInner1"/>
      <feComposite in="shadowOffsetInner1" in2="SourceAlpha" k2="-1" k3="1" operator="arithmetic" result="shadowInnerInner1"/>
      <feColorMatrix in="shadowInnerInner1" values="0 0 0 0 0.819607843   0 0 0 0 0.623529412   0 0 0 0 0  0 0 0 1 0"/>
    </filter>
    <rect id="media-flash-l" width="32" height="88" x="208" y="40" rx="8"/>
    <filter id="media-flash-m" width="112.5%" height="104.5%" x="-6.2%" y="-2.3%" filterUnits="objectBoundingBox">
      <feOffset dy="4" in="SourceAlpha" result="shadowOffsetInner1"/>
      <feComposite in="shadowOffsetInner1" in2="SourceAlpha" k2="-1" k3="1" operator="arithmetic" result="shadowInnerInner1"/>
      <feColorMatrix in="shadowInnerInner1" values="0 0 0 0 0.819607843   0 0 0 0 0.623529412   0 0 0 0 0  0 0 0 1 0"/>
    </filter>
  </defs>
  <g fill="none" fill-rule="evenodd" transform="translate(80 40)">
    <use fill="#000" filter="url(#media-flash-a)" xlink:href="#media-flash-b"/>
    <use fill="#000" fill-opacity=".1" xlink:href="#media-flash-b"/>
    <use fill="url(#media-flash-c)" xlink:href="#media-flash-d"/>
    <use fill="#000" filter="url(#media-flash-e)" xlink:href="#media-flash-d"/>
    <use fill="#C88200" xlink:href="#media-flash-f"/>
    <use fill="#000" filter="url(#media-flash-g)" xlink:href="#media-flash-f"/>
    <use fill="#C88200" xlink:href="#media-flash-h"/>
    <use fill="#000" filter="url(#media-flash-i)" xlink:href="#media-flash-h"/>
    <use fill="#C88200" xlink:href="#media-flash-j"/>
    <use fill="#000" filter="url(#media-flash-k)" xlink:href="#media-flash-j"/>
    <use fill="#C88200" xlink:href="#media-flash-l"/>
    <use fill="#000" filter="url(#media-flash-m)" xlink:href="#media-flash-l"/>
    <path fill="#CCC" d="M40,216 L288,216 L288,372.003293 C288,383.047169 279.04541,392 267.99373,392 L60.0062705,392 C48.9571124,392 40,383.045377 40,372.003293 L40,216 Z"/>
    <path fill="#534FCB" d="M40 179.999859C40 168.954242 48.95459 160 60.0062705 160L267.99373 160C279.042888 160 288 168.950794 288 179.999859L288 216 40 216 40 179.999859zM113.729167 376.5625L113.729167 347.5625 121.229167 347.5625C123.31251 356.22921 126.437479 362.416648 130.604167 366.125 134.770854 369.833352 139.270809 371.6875 144.104167 371.6875 147.687518 371.6875 150.541656 370.625011 152.666667 368.5 154.791677 366.374989 155.854167 363.875014 155.854167 361 155.854167 358.958323 155.187507 356.916677 153.854167 354.875 152.520827 352.833323 149.354192 350.562513 144.354167 348.0625 134.729119 343.270809 128.229184 339.760428 124.854167 337.53125 121.47915 335.302072 118.770844 332.437518 116.729167 328.9375 114.68749 325.437482 113.666667 321.416689 113.666667 316.875 113.666667 309.583297 116.281224 303.57294 121.510417 298.84375 126.739609 294.11456 132.791632 291.75 139.666667 291.75 146.875036 291.75 152.999975 294.166642 158.041667 299 158.875004 297.749994 159.562497 295.833346 160.104167 293.25L167.291667 293.25 167.291667 318.25 160.291667 318.25C159.04166 312.708306 156.666684 308.145851 153.166667 304.5625 149.666649 300.979149 145.729189 299.1875 141.354167 299.1875 138.062484 299.1875 135.447926 300.104157 133.510417 301.9375 131.572907 303.770842 130.604167 306.062486 130.604167 308.8125 130.604167 310.937511 131.22916 312.906241 132.479167 314.71875 133.729173 316.531259 135.416656 318.031244 137.541667 319.21875 139.666677 320.406256 144.166632 322.604151 151.041667 325.8125 157.208364 328.729181 161.770819 331.333322 164.729167 333.625 167.687515 335.916678 170.031241 338.802066 171.760417 342.28125 173.489592 345.760434 174.354167 349.520813 174.354167 353.5625 174.354167 361.062537 171.583361 367.302058 166.041667 372.28125 160.499972 377.260442 153.895872 379.75 146.229167 379.75 141.854145 379.75 137.572938 378.833343 133.385417 377 129.197896 375.166657 125.854179 372.729182 123.354167 369.6875 122.395829 371.562509 121.687502 373.854153 121.229167 376.5625L113.729167 376.5625zM182.416667 378L182.416667 371.0625C186.875022 371.0625 189.833326 370.36459 191.291667 368.96875 192.750007 367.57291 193.479167 364.812521 193.479167 360.6875L193.479167 310.5C193.479167 306.49998 192.791674 303.770841 191.416667 302.3125 190.04166 300.854159 187.04169 300.125 182.416667 300.125L182.416667 293.25 192.604167 292.875C202.854218 292.458331 210.895804 292.25 216.729167 292.25 226.479215 292.25 234.406219 292.812494 240.510417 293.9375 246.614614 295.062506 252.385389 297.531231 257.822917 301.34375 263.260444 305.156269 267.447902 310.09372 270.385417 316.15625 273.322931 322.21878 274.791667 328.895797 274.791667 336.1875 274.791667 343.645871 273.239599 350.312471 270.135417 356.1875 267.031234 362.062529 262.854193 366.749982 257.604167 370.25 252.35414 373.750018 246.916695 375.916663 241.291667 376.75 235.666639 377.583337 226.2084 378 212.916667 378L182.416667 378zM215.666667 299.875L215.666667 358.25C215.666667 362.000019 215.843748 364.520827 216.197917 365.8125 216.552085 367.104173 217.489576 368.208329 219.010417 369.125 220.531258 370.041671 222.874984 370.5 226.041667 370.5 233.875039 370.5 239.739564 367.625029 243.635417 361.875 247.531269 356.124971 249.479167 347.520891 249.479167 336.0625 249.479167 326.812454 248.041681 319.447944 245.166667 313.96875 242.291652 308.489556 238.562523 304.770843 233.979167 302.8125 229.39581 300.854157 223.291705 299.875 215.666667 299.875L215.666667 299.875z"/>
  </g>
</svg>
