<svg xmlns="http://www.w3.org/2000/svg" width="16" height="16" viewBox="0 0 16 16">
  <defs>
    <linearGradient id="application-x-ace-a" x1="98.475%" x2="1.525%" y1="48.475%" y2="48.475%">
      <stop offset="0%" stop-color="#780094"/>
      <stop offset="100%" stop-color="#670074"/>
    </linearGradient>
    <linearGradient id="application-x-ace-b" x1="99.455%" x2="3.998%" y1="50.545%" y2="50.545%">
      <stop offset="0%" stop-color="#1C44A8"/>
      <stop offset="100%" stop-color="#023BA8"/>
    </linearGradient>
    <linearGradient id="application-x-ace-c" x1="100%" x2="6.531%" y1="50%" y2="50%">
      <stop offset="0%" stop-color="#286D00"/>
      <stop offset="100%" stop-color="#457000"/>
    </linearGradient>
  </defs>
  <g fill="none" fill-rule="evenodd">
    <g transform="translate(2 1)">
      <path fill="url(#application-x-ace-a)" d="M12,0.375 L12,13.625 C12,13.8321068 11.8321068,14 11.625,14 L8.375,14 C8.16789322,14 8,13.8321068 8,13.625 L8,0.375 C8,0.167893219 8.16789322,3.80448985e-17 8.375,0 L11.625,0 C11.8321068,-3.80448985e-17 12,0.167893219 12,0.375 Z"/>
      <path fill="url(#application-x-ace-b)" d="M8,1.375 L8,13.625 C8,13.8321068 7.83210678,14 7.625,14 L4.375,14 C4.16789322,14 4,13.8321068 4,13.625 L4,1.375 C4,1.16789322 4.16789322,1 4.375,1 L7.625,1 C7.83210678,1 8,1.16789322 8,1.375 Z"/>
      <path fill="url(#application-x-ace-c)" d="M4,0.375 L4,13.625 C4,13.8321068 3.83210678,14 3.625,14 L0.375,14 C0.167893219,14 2.53632657e-17,13.8321068 0,13.625 L0,0.375 C-2.53632657e-17,0.167893219 0.167893219,3.80448985e-17 0.375,0 L3.625,0 C3.83210678,-3.80448985e-17 4,0.167893219 4,0.375 Z"/>
      <path fill="#FFF8F8" fill-opacity=".3" d="M4,4.5 L4,6.5 L0,6.5 L0,4.5 L4,4.5 Z M8,4.5 L12,4.5 L12,6.5 L8,6.5 L8,4.5 Z"/>
      <path fill="#FFF" fill-opacity=".6" d="M4.25,4 L7.75,4 C7.88807119,4 8,4.11192881 8,4.25 L8,6.75 C8,6.88807119 7.88807119,7 7.75,7 L4.25,7 C4.11192881,7 4,6.88807119 4,6.75 L4,4.25 C4,4.11192881 4.11192881,4 4.25,4 Z M5,5 L5,6 L7,6 L7,5 L5,5 Z"/>
    </g>
    <path fill="#FFF" fill-opacity=".6" d="M11 14L11.0000001 9.00000001 14 9 14 10 12.0000001 10 12.0000001 11 14 11 14 12 12.0000001 12 12 13 14 13 14 14 11 14zM9.93379395 10.6038316C9.70019639 10.2373191 9.32689589 10 8.90624991 10 8.19863507 10 7.62499991 10.6715729 7.62499991 11.5 7.62499991 12.3284271 8.19863507 13 8.90624991 13 9.32689589 13 9.70019639 12.7626809 9.93379395 12.3961684L10.6999999 13.0617948C10.2780979 13.633738 9.6295425 14 8.90221001 14 7.63073448 14 6.5999999 12.8807119 6.5999999 11.5 6.5999999 10.1192881 7.63073448 9 8.90221001 9 9.6295425 9 10.2780979 9.36626199 10.6999999 9.93820519L9.93379395 10.6038316zM3.75 12L5.25 12 4.5 10 3.75 12zM5.625 13L3.375 13 3 14 2 14 4 9 5 9 7 14 6 14 5.625 13z"/>
  </g>
</svg>
