<svg xmlns="http://www.w3.org/2000/svg" width="16" height="16" viewBox="0 0 16 16">
  <g fill="none" fill-rule="evenodd">
    <polygon fill="#A75F00" points="2 15 2 1 14 1 14 15"/>
    <path fill="#FFF" fill-opacity=".6" d="M7.95961857,10.7851619 C7.83094149,10.3288781 7.45240898,10 7.00440291,10 C6.44791667,10 6.00220145,10.5028869 6.00220145,11.1286611 L6.00220145,11.8713389 C6.00220145,12.4966028 6.45013233,13 7.00440291,13 C7.45421179,13 7.83164822,12.6714379 7.95982625,12.2149935 L8.79999995,12.8437396 C8.47257701,13.5297451 7.79359148,14 7.00440291,14 C5.89627003,14 5,13.0673581 5,11.9125987 L5,11.0874013 C5,9.9328081 5.89290086,9 7.00440291,9 C7.79134695,9 8.47144486,9.47034762 8.79958123,10.1565738 L7.95961857,10.7851619 Z M11,10 C10.4447362,10 10,10.5028869 10,11.1286611 L10,11.8713389 C10,12.4966028 10.4469469,13 11,13 C11.5552638,13 12,12.4971131 12,11.8713389 L12,11.1286611 C12,10.5033972 11.5530531,10 11,10 Z M9,11.9125987 L9,11.0874013 C9,9.9328081 9.8909395,9 11,9 C12.1056987,9 13,9.9326419 13,11.0874013 L13,11.9125987 C13,13.0671919 12.1090605,14 11,14 C9.89430127,14 9,13.0673581 9,11.9125987 Z M4,9 L4,14 L3,14 L3,9 L4,9 Z"/>
  </g>
</svg>
