<svg xmlns="http://www.w3.org/2000/svg" width="16" height="16" viewBox="0 0 16 16">
  <defs>
    <linearGradient id="text-x-generic-template-a" x1="50%" x2="50%" y1=".948%" y2="99.038%">
      <stop offset="0%" stop-color="#83889D"/>
      <stop offset="100%" stop-color="#B2B2B5"/>
    </linearGradient>
  </defs>
  <g fill="none" fill-rule="evenodd">
    <polygon fill="url(#text-x-generic-template-a)" points="2 15 2 1 14 1 14 15"/>
    <path fill="#6067B6" d="M12,3.98866667 L12,4.98866667 L4,4.98866667 L4,3.98866667 L12,3.98866667 Z M12,6 L12,7 L4,7 L4,6 L12,6 Z M12,8 L12,9 L4,9 L4,8 L12,8 Z M12,10 L12,11 L4,11 L4,10 L12,10 Z M7,12.0113333 L7,13 L4,13 L4,12.0113333 L7,12.0113333 Z M9,12.0113333 L9,13 L8,13 L8,12.0113333 L9,12.0113333 Z"/>
  </g>
</svg>
