<svg xmlns="http://www.w3.org/2000/svg" width="16" height="16" viewBox="0 0 16 16">
  <g fill="none" fill-rule="evenodd">
    <polygon fill="#7A0000" points="2 15 2 1 14 1 14 15"/>
    <path fill="#FFF" fill-opacity=".6" d="M6,4 L10,4 L10,3 L11,3 L11,4 L13,4 L13,12 L3,12 L3,4 L5,4 L5,3 L6,3 L6,4 Z M5,7 L6,7 L6,8 L5,8 L5,7 Z M7,7 L9,7 L9,8 L7,8 L7,7 Z M10,7 L11,7 L11,8 L10,8 L10,7 Z M7,9 L9,9 L9,10 L7,10 L7,9 Z M5,9 L6,9 L6,10 L5,10 L5,9 Z M10,9 L11,9 L11,10 L10,10 L10,9 Z M12,11 L12,6 L4,6 L4,11 L12,11 Z"/>
  </g>
</svg>
