<svg xmlns="http://www.w3.org/2000/svg" xmlns:xlink="http://www.w3.org/1999/xlink" width="48" height="48" viewBox="0 0 48 48">
  <defs>
    <filter id="network-workgroup-48px-a" width="131%" height="136.1%" x="-15.5%" y="-18.1%" filterUnits="objectBoundingBox">
      <feOffset dy="1" in="SourceAlpha" result="shadowOffsetOuter1"/>
      <feGaussianBlur in="shadowOffsetOuter1" result="shadowBlurOuter1" stdDeviation="1"/>
      <feComposite in="shadowBlurOuter1" in2="SourceAlpha" operator="out" result="shadowBlurOuter1"/>
      <feColorMatrix in="shadowBlurOuter1" result="shadowMatrixOuter1" values="0 0 0 0 0   0 0 0 0 0   0 0 0 0 0  0 0 0 0.2 0"/>
      <feMerge>
        <feMergeNode in="shadowMatrixOuter1"/>
        <feMergeNode in="SourceGraphic"/>
      </feMerge>
    </filter>
    <linearGradient id="network-workgroup-48px-c" x1="50%" x2="50%" y1="0%" y2="37.968%">
      <stop offset="0%" stop-color="#00B8FF"/>
      <stop offset="100%" stop-color="#2E5DFF"/>
    </linearGradient>
    <path id="network-workgroup-48px-b" d="M24,2.5 L24,2.5 C24.6039656,4.00991389 26.0663554,5 27.6925824,5 L36.8288288,5 C39.6847878,5 42,7.31521219 42,10.1711712 L42,30.8288288 C42,33.6847878 39.6847878,36 36.8288288,36 L5.17117117,36 C2.31521219,36 -4.13946316e-14,33.6847878 -4.17443857e-14,30.8288288 L-4.35207426e-14,5.17117117 C-4.38704967e-14,2.31521219 2.31521219,-3.23379704e-14 5.17117117,-3.28626015e-14 L20.3074176,-3.10862447e-14 C21.9336446,-3.13849777e-14 23.3960344,0.990086111 24,2.5 Z"/>
    <linearGradient id="network-workgroup-48px-g" x1="50%" x2="50%" y1="0%" y2="11.796%">
      <stop offset="0%" stop-color="#FFF"/>
      <stop offset="100%" stop-color="#CEF5FF"/>
    </linearGradient>
    <path id="network-workgroup-48px-f" d="M5.32432432,7.08450704 L36.6756757,7.08450704 C38.5116493,7.08450704 40,8.57285774 40,10.4088314 L40,19.7601827 C40,21.5961563 38.5116493,23.084507 36.6756757,23.084507 L5.32432432,23.084507 C3.4883507,23.084507 2,21.5961563 2,19.7601827 L2,10.4088314 C2,8.57285774 3.4883507,7.08450704 5.32432432,7.08450704 Z"/>
    <filter id="network-workgroup-48px-e" width="107.9%" height="120.9%" x="-3.9%" y="-9.5%" filterUnits="objectBoundingBox">
      <feOffset in="SourceAlpha" result="shadowOffsetOuter1"/>
      <feGaussianBlur in="shadowOffsetOuter1" result="shadowBlurOuter1" stdDeviation=".5"/>
      <feColorMatrix in="shadowBlurOuter1" values="0 0 0 0 0   0 0 0 0 0   0 0 0 0 0  0 0 0 0.2 0"/>
    </filter>
    <filter id="network-workgroup-48px-h" width="107.9%" height="120.9%" x="-3.9%" y="-9.5%" filterUnits="objectBoundingBox">
      <feOffset dy="1" in="SourceAlpha" result="shadowOffsetInner1"/>
      <feComposite in="shadowOffsetInner1" in2="SourceAlpha" k2="-1" k3="1" operator="arithmetic" result="shadowInnerInner1"/>
      <feColorMatrix in="shadowInnerInner1" values="0 0 0 0 1   0 0 0 0 1   0 0 0 0 1  0 0 0 0.5 0"/>
    </filter>
    <radialGradient id="network-workgroup-48px-i" cx="50%" cy="0%" r="117.613%" fx="50%" fy="0%" gradientTransform="matrix(.06171 .99538 -.63989 .096 .47 -.498)">
      <stop offset="0%" stop-color="#48D5FF"/>
      <stop offset="100%" stop-color="#0083F6"/>
    </radialGradient>
  </defs>
  <g fill="none" fill-rule="evenodd">
    <g filter="url(#network-workgroup-48px-a)" transform="translate(3 8)">
      <mask id="network-workgroup-48px-d" fill="#fff">
        <use xlink:href="#network-workgroup-48px-b"/>
      </mask>
      <use fill="url(#network-workgroup-48px-c)" xlink:href="#network-workgroup-48px-b"/>
      <g mask="url(#network-workgroup-48px-d)">
        <use fill="#000" filter="url(#network-workgroup-48px-e)" xlink:href="#network-workgroup-48px-f"/>
        <use fill="url(#network-workgroup-48px-g)" xlink:href="#network-workgroup-48px-f"/>
        <use fill="#000" filter="url(#network-workgroup-48px-h)" xlink:href="#network-workgroup-48px-f"/>
      </g>
      <g fill="url(#network-workgroup-48px-i)" mask="url(#network-workgroup-48px-d)">
        <path d="M-3.55271368e-15,0.375 L42,0.375 L42,22.2038288 C42,25.0597878 39.6847878,27.375 36.8288288,27.375 L5.17117117,27.375 C2.31521219,27.375 -2.31478116e-15,25.0597878 -2.66453526e-15,22.2038288 L-3.55271368e-15,0.375 Z" transform="translate(0 8.625)"/>
      </g>
    </g>
    <g stroke="#FFF" stroke-linecap="round" stroke-linejoin="round" transform="translate(14 19)">
      <path d="M10,12.5 C15.2467051,12.5 19.5,10.9329966 19.5,9 C19.5,7.06700338 15.2467051,5.5 10,5.5 C4.75329488,5.5 0.5,7.06700338 0.5,9 C0.5,10.9329966 4.75329488,12.5 10,12.5 Z"/>
      <path d="M14.5523826,0.710755875 C12.8483531,-0.323509599 9.42879315,2.54927358 6.91458167,7.1272967 C4.40037018,11.7053198 3.7435879,16.2549787 5.4476174,17.2892441 C7.15164689,18.3235096 10.5712068,15.4507264 13.0854183,10.8727033 C15.5996298,6.29468018 16.2564121,1.74502135 14.5523826,0.710755875 Z" transform="matrix(1 0 0 -1 0 18)"/>
      <path d="M13.0854183,10.8727033 C15.5996298,6.29468018 16.2564121,1.74502135 14.5523826,0.710755875 C12.8483531,-0.323509599 9.42879315,2.54927358 6.91458167,7.1272967 C4.40037018,11.7053198 3.7435879,16.2549787 5.4476174,17.2892441 C7.15164689,18.3235096 10.5712068,15.4507264 13.0854183,10.8727033 L13.0854183,10.8727033 Z"/>
    </g>
  </g>
</svg>
