<svg xmlns="http://www.w3.org/2000/svg" xmlns:xlink="http://www.w3.org/1999/xlink" width="48" height="48" viewBox="0 0 48 48">
  <defs>
    <filter id="stack-app-a" width="132.5%" height="136.1%" x="-16.2%" y="-18.1%" filterUnits="objectBoundingBox">
      <feOffset dy="1" in="SourceAlpha" result="shadowOffsetOuter1"/>
      <feGaussianBlur in="shadowOffsetOuter1" result="shadowBlurOuter1" stdDeviation="1"/>
      <feColorMatrix in="shadowBlurOuter1" result="shadowMatrixOuter1" values="0 0 0 0 0   0 0 0 0 0   0 0 0 0 0  0 0 0 0.5 0"/>
      <feMerge>
        <feMergeNode in="shadowMatrixOuter1"/>
        <feMergeNode in="SourceGraphic"/>
      </feMerge>
    </filter>
    <linearGradient id="stack-app-c" x1="50%" x2="50%" y1="0%" y2="97.162%">
      <stop offset="0%" stop-color="#582BFF"/>
      <stop offset="100%" stop-color="#7D5FFF"/>
    </linearGradient>
    <path id="stack-app-b" d="M1.00877516,36 C0.451644023,36 -5.27498939e-13,35.5526348 -1.15716104e-12,35.0018463 L-3.31710181e-11,6.99815369 C-3.38012251e-11,6.44688863 0.44921875,6 1.00877516,6 L38.9912248,6 C39.548356,6 40,6.44736519 40,6.99815369 L40,35.0018463 C40,35.5531114 39.5507812,36 38.9912248,36 L1.00877516,36 Z"/>
    <linearGradient id="stack-app-e" x1="66.942%" x2="46.177%" y1="100%" y2="-16.413%">
      <stop offset="0%" stop-color="#5700FC"/>
      <stop offset="100%" stop-color="#5867FF" stop-opacity="0"/>
    </linearGradient>
    <linearGradient id="stack-app-f" x1="100%" x2="8.859%" y1="77.19%" y2="4.533%">
      <stop offset="0%" stop-color="#D1C0FF"/>
      <stop offset="100%" stop-color="#8375FF"/>
    </linearGradient>
    <linearGradient id="stack-app-g" x1="62.412%" x2="43.803%" y1="25.945%" y2="86.932%">
      <stop offset="0%" stop-color="#5C3FFF"/>
      <stop offset="100%" stop-color="#816AFF" stop-opacity=".054"/>
    </linearGradient>
    <linearGradient id="stack-app-h" x1="50%" x2="50%" y1="-22.147%" y2="100%">
      <stop offset="0%" stop-color="#B6A2FF"/>
      <stop offset="100%" stop-color="#6249F0"/>
    </linearGradient>
    <linearGradient id="stack-app-i" x1="50%" x2="50%" y1="0%" y2="392.791%">
      <stop offset="0%" stop-color="#FFF" stop-opacity=".8"/>
      <stop offset="100%" stop-color="#882AFF" stop-opacity=".117"/>
    </linearGradient>
    <linearGradient id="stack-app-j" x1="50%" x2="50%" y1="-22.147%" y2="100%">
      <stop offset="0%" stop-color="#CAA2FF" stop-opacity=".3"/>
      <stop offset="100%" stop-color="#6249F0"/>
    </linearGradient>
    <linearGradient id="stack-app-k" x1="-3.822%" y1="55.584%" y2="40.499%">
      <stop offset="0%" stop-color="#B9B7FF"/>
      <stop offset="100%" stop-color="#8174FF"/>
    </linearGradient>
  </defs>
  <g fill="none" fill-rule="evenodd" filter="url(#stack-app-a)" transform="translate(4 8)">
    <path fill="#4A00D5" d="M25.6516266,0.348373413 C25.8440279,0.15597209 26.2276528,0 26.5096496,0 L35.0046031,0 C35.554346,0 36.0000007,0.441413861 36.0000007,1.00534634 L36,32.9902639 L4,32.9902639 L4,2.9960022 C4,2.44592537 4.45530558,2 4.99180311,2 L23.5056152,2 C23.7786564,2 24.1569366,1.84306335 24.3483734,1.65162659 L25.6516266,0.348373413 Z"/>
    <path fill="#D7D7D7" d="M3.00041948,35 C2.44790306,35 2,34.5617743 2,34.0036849 L2.00000001,4.99631511 C2.00000001,4.44606547 2.45517305,4 3.00041949,4 L36.9995818,4 C37.5520983,4 38.0000013,4.43822575 38.0000013,4.99631511 L38.0000013,34.0036849 C38.0000013,34.5539345 37.5448283,35 36.9995818,35 L3.00041948,35 Z"/>
    <mask id="stack-app-d" fill="#fff">
      <use xlink:href="#stack-app-b"/>
    </mask>
    <use fill="url(#stack-app-c)" xlink:href="#stack-app-b"/>
    <g mask="url(#stack-app-d)">
      <g transform="translate(0 1)">
        <polygon fill="url(#stack-app-e)" points="0 27.045 20.305 34.69 30.867 30.712 10.562 23.068"/>
        <polygon fill="url(#stack-app-e)" points="9.743 27.045 30.047 34.69 40.61 30.712 20.305 23.068" transform="matrix(-1 0 0 1 50.352 0)"/>
        <g transform="translate(6.495 10.136)">
          <polygon fill="url(#stack-app-f)" points="3.505 4.864 13.505 8.727 13.505 21.864 3.505 18"/>
          <polygon fill="url(#stack-app-g)" points="3.505 4.864 13.495 8.691 11.966 15.864 3.505 12.842" opacity=".5"/>
          <polygon fill="url(#stack-app-h)" points="3.505 4.864 13.505 8.727 10.696 13.864 .505 9.773"/>
          <polygon fill="url(#stack-app-i)" points="3.505 4.864 13.505 8.727 23.505 4.864 13.505 .864"/>
          <polygon fill="url(#stack-app-j)" points="13.505 8.864 23.505 4.864 13.512 .864"/>
          <polygon fill="url(#stack-app-k)" points="13.505 4.864 23.505 8.727 23.505 21.864 13.505 17.864"/>
          <polygon fill="url(#stack-app-g)" points="13.495 4.864 24.505 8.73 21.957 15.864 13.495 12.842" opacity=".5" transform="matrix(-1 0 0 1 38 0)"/>
          <polygon fill="url(#stack-app-h)" points="16.505 4.864 26.505 8.727 23.696 13.864 13.505 9.773" transform="matrix(-1 0 0 1 40.01 0)"/>
        </g>
        <g transform="translate(1.624)">
          <ellipse cx="23.545" cy="11.136" fill="#FFD506" rx="1" ry="1"/>
          <ellipse cx="12.584" cy="9.943" fill="#FF00FE" rx="1" ry="1"/>
          <ellipse cx="1.624" cy="8.75" fill="#4000E0" rx="1" ry="1"/>
          <polygon fill="#4000E0" points="16.499 5.024 18.117 5.012 18.106 6.608 16.487 6.62" transform="rotate(23 17.302 5.816)"/>
          <polygon fill="#EB5959" points="33.161 13.648 33.97 13.642 33.964 14.44 33.155 14.446" transform="rotate(23 33.563 14.044)"/>
          <polygon fill="#4000E0" points="19.662 15.278 20.465 15.27 20.457 16.074 19.653 16.082" transform="rotate(45 20.06 15.676)"/>
          <polygon fill="#FFD506" points="18.85 17.665 19.653 17.657 19.645 18.46 18.841 18.468" transform="rotate(45 19.247 18.062)"/>
          <ellipse cx="19.891" cy="13.125" fill="#FFF" rx="1" ry="1"/>
          <ellipse cx="16.644" cy="16.307" fill="#FFF" rx="1" ry="1"/>
          <polygon fill="#8A0991" points="19.662 8.915 20.465 8.907 20.457 9.71 19.653 9.718" transform="rotate(45 20.06 9.312)"/>
          <polygon fill="#FFF" points="16.892 14.002 18.486 13.992 18.481 14.802 16.887 14.812" opacity=".6" transform="rotate(72 17.686 14.402)"/>
          <polygon fill="#4000E0" points="9.107 9.71 9.911 9.702 9.903 10.506 9.099 10.514" transform="rotate(45 9.505 10.108)"/>
          <polygon fill="#9757FF" points="14.79 10.506 15.594 10.497 15.586 11.301 14.782 11.309" transform="rotate(45 15.188 10.903)"/>
          <polygon fill="#FFD506" points="9.107 8.119 9.911 8.111 9.903 8.915 9.099 8.923" transform="rotate(45 9.505 8.517)"/>
          <polygon fill="#7DAC00" points="26.571 10.341 28.178 10.324 28.162 11.932 26.554 11.948" opacity=".9" transform="rotate(45 27.366 11.136)"/>
          <polygon fill="#8A0991" points="26.157 8.915 26.96 8.907 26.952 9.71 26.148 9.718" transform="rotate(45 26.554 9.312)"/>
          <polygon fill="#00C894" points="24.922 14.362 25.726 14.354 25.71 15.961 24.906 15.97" transform="rotate(45 25.316 15.162)"/>
          <polygon fill="#9757FF" points="21.462 13.852 23.069 13.836 23.053 15.443 21.445 15.46" transform="rotate(45 22.257 14.648)"/>
          <polygon fill="#00C894" points="24.074 4.472 26.485 4.447 26.46 6.858 24.049 6.883" transform="rotate(45 25.267 5.665)"/>
          <polygon fill="#396EFF" points="31.524 1.441 35.569 1.41 35.539 5.401 31.493 5.432" transform="rotate(24 33.531 3.421)"/>
          <polygon fill="#88A1FF" points="1.976 1.712 6.788 1.76 6.836 6.592 2.025 6.544" transform="rotate(-51 4.406 4.152)"/>
          <polygon fill="#FF8100" fill-opacity=".8" points=".529 10.835 2.94 10.811 2.915 13.222 .504 13.246" transform="rotate(45 1.722 12.028)"/>
          <polygon fill="#7DAC00" points="8.804 17.625 9.614 17.62 9.608 18.418 8.798 18.423" opacity=".5" transform="rotate(23 9.206 18.022)"/>
          <polygon fill="#FF00FE" points="8.754 13.973 10.362 13.956 10.354 14.76 8.746 14.776" transform="rotate(45 9.554 14.366)"/>
          <polygon fill="#FE002E" points="6.495 12.33 6.018 12.575 6.109 12.055 5.723 11.686 6.256 11.61 6.495 11.136 6.734 11.61 7.267 11.686 6.881 12.055 6.972 12.575"/>
          <polygon fill="#FE002E" points="14.899 5.508 14.427 5.751 14.513 5.228 14.126 4.853 14.655 4.781 14.887 4.306 15.128 4.786 15.659 4.868 15.279 5.235 15.375 5.761" transform="rotate(-37 14.892 5.033)"/>
          <polygon fill="#FE9D0B" points="16.523 12.667 16.051 12.91 16.137 12.387 15.75 12.012 16.279 11.94 16.511 11.465 16.752 11.945 17.283 12.027 16.903 12.394 16.999 12.92" transform="rotate(-37 16.516 12.193)"/>
          <polygon fill="#FE9D0B" points="22.754 4.204 22.047 4.569 22.175 3.783 21.595 3.221 22.388 3.114 22.736 2.401 23.099 3.12 23.894 3.243 23.325 3.795 23.468 4.583" transform="rotate(-37 22.744 3.492)"/>
          <polygon fill="#FE9D0B" points="17.923 18.105 17.687 18.227 17.73 17.965 17.537 17.777 17.801 17.742 17.917 17.504 18.038 17.744 18.303 17.785 18.113 17.969 18.161 18.232" transform="rotate(-37 17.92 17.868)"/>
          <polygon fill="#88A1FF" points="30.683 8.163 32.291 8.147 32.266 10.558 30.659 10.574" opacity=".8" transform="rotate(45 31.475 9.36)"/>
          <polygon fill="#00C894" points="9.243 4.032 11.673 4.047 11.688 6.438 9.257 6.423" transform="rotate(-18 10.465 5.235)"/>
          <polygon fill="#EB5959" points="12.392 11.345 14.015 11.341 14.011 12.932 12.388 12.936" transform="rotate(7 13.201 12.139)"/>
        </g>
      </g>
    </g>
  </g>
</svg>
