<svg xmlns="http://www.w3.org/2000/svg" xmlns:xlink="http://www.w3.org/1999/xlink" width="48" height="48" viewBox="0 0 48 48">
  <defs>
    <filter id="stack-music-a" width="132.5%" height="136.1%" x="-16.2%" y="-18.1%" filterUnits="objectBoundingBox">
      <feOffset dy="1" in="SourceAlpha" result="shadowOffsetOuter1"/>
      <feGaussianBlur in="shadowOffsetOuter1" result="shadowBlurOuter1" stdDeviation="1"/>
      <feColorMatrix in="shadowBlurOuter1" result="shadowMatrixOuter1" values="0 0 0 0 0   0 0 0 0 0   0 0 0 0 0  0 0 0 0.5 0"/>
      <feMerge>
        <feMergeNode in="shadowMatrixOuter1"/>
        <feMergeNode in="SourceGraphic"/>
      </feMerge>
    </filter>
    <linearGradient id="stack-music-c" x1="50%" x2="50%" y1="0%" y2="95.786%">
      <stop offset="0%" stop-color="#F87136"/>
      <stop offset="100%" stop-color="#D22E18"/>
    </linearGradient>
    <path id="stack-music-b" d="M1.00877516,36 C0.451644023,36 -5.27498939e-13,35.5526348 -1.15716104e-12,35.0018463 L-3.31710181e-11,6.99815369 C-3.38012251e-11,6.44688863 0.44921875,6 1.00877516,6 L38.9912248,6 C39.548356,6 40,6.44736519 40,6.99815369 L40,35.0018463 C40,35.5531114 39.5507812,36 38.9912248,36 L1.00877516,36 Z"/>
    <linearGradient id="stack-music-g" x1="50%" x2="50%" y1="0%" y2="97.774%">
      <stop offset="0%" stop-color="#343434"/>
      <stop offset="100%" stop-color="#240B0B"/>
    </linearGradient>
    <linearGradient id="stack-music-h" x1="50%" x2="50%" y1="0%" y2="100%">
      <stop offset="0%" stop-color="#151515"/>
      <stop offset="100%"/>
    </linearGradient>
    <circle id="stack-music-e" cx="13" cy="13" r="13"/>
    <filter id="stack-music-f" width="126.9%" height="126.9%" x="-13.5%" y="-9.6%" filterUnits="objectBoundingBox">
      <feOffset dy="1" in="SourceAlpha" result="shadowOffsetOuter1"/>
      <feGaussianBlur in="shadowOffsetOuter1" result="shadowBlurOuter1" stdDeviation="1"/>
      <feComposite in="shadowBlurOuter1" in2="SourceAlpha" operator="out" result="shadowBlurOuter1"/>
      <feColorMatrix in="shadowBlurOuter1" values="0 0 0 0 0   0 0 0 0 0   0 0 0 0 0  0 0 0 0.5 0"/>
    </filter>
    <linearGradient id="stack-music-j" x1="50%" x2="50%" y1="0%" y2="100%">
      <stop offset="0%" stop-color="#E91F95"/>
      <stop offset="100%" stop-color="#930DCE"/>
    </linearGradient>
  </defs>
  <g fill="none" fill-rule="evenodd" filter="url(#stack-music-a)" transform="translate(4 8)">
    <path fill="#D8391D" d="M25.6516266,0.348373413 C25.8440279,0.15597209 26.2276528,0 26.5096496,0 L35.0046031,0 C35.554346,0 36.0000007,0.441413861 36.0000007,1.00534634 L36,32.9902639 L4,32.9902639 L4,2.9960022 C4,2.44592537 4.45530558,2 4.99180311,2 L23.5056152,2 C23.7786564,2 24.1569366,1.84306335 24.3483734,1.65162659 L25.6516266,0.348373413 Z"/>
    <path fill="#D7D7D7" d="M3.00041948,35 C2.44790306,35 2,34.5617743 2,34.0036849 L2.00000001,4.99631511 C2.00000001,4.44606547 2.45517305,4 3.00041949,4 L36.9995818,4 C37.5520983,4 38.0000013,4.43822575 38.0000013,4.99631511 L38.0000013,34.0036849 C38.0000013,34.5539345 37.5448283,35 36.9995818,35 L3.00041948,35 Z"/>
    <mask id="stack-music-d" fill="#fff">
      <use xlink:href="#stack-music-b"/>
    </mask>
    <use fill="url(#stack-music-c)" xlink:href="#stack-music-b"/>
    <g mask="url(#stack-music-d)">
      <g transform="translate(7 15)">
        <mask id="stack-music-i" fill="#fff">
          <use xlink:href="#stack-music-e"/>
        </mask>
        <use fill="#000" filter="url(#stack-music-f)" xlink:href="#stack-music-e"/>
        <circle cx="13" cy="13" r="12.5" fill="url(#stack-music-g)" stroke="url(#stack-music-h)" stroke-linejoin="square"/>
        <circle cx="13" cy="13" r="8.5" stroke="url(#stack-music-h)" mask="url(#stack-music-i)"/>
        <circle cx="13" cy="13" r="10.5" stroke="url(#stack-music-h)" mask="url(#stack-music-i)"/>
        <circle cx="13" cy="13" r="6.5" fill="url(#stack-music-j)" stroke="url(#stack-music-h)" mask="url(#stack-music-i)"/>
        <polygon fill="#FFF" points="16 13 11 16 11 10" mask="url(#stack-music-i)"/>
      </g>
    </g>
  </g>
</svg>
