<svg xmlns="http://www.w3.org/2000/svg" xmlns:xlink="http://www.w3.org/1999/xlink" width="128" height="128" viewBox="0 0 128 128">
  <defs>
    <filter id="drive-removable-media-encrypted-a" width="134.8%" height="129.6%" x="-17.4%" y="-14.8%" filterUnits="objectBoundingBox">
      <feOffset dy="2" in="SourceAlpha" result="shadowOffsetOuter1"/>
      <feGaussianBlur in="shadowOffsetOuter1" result="shadowBlurOuter1" stdDeviation="3"/>
      <feComposite in="shadowBlurOuter1" in2="SourceAlpha" operator="out" result="shadowBlurOuter1"/>
      <feColorMatrix in="shadowBlurOuter1" result="shadowMatrixOuter1" values="0 0 0 0 0   0 0 0 0 0   0 0 0 0 0  0 0 0 0.2 0"/>
      <feMerge>
        <feMergeNode in="shadowMatrixOuter1"/>
        <feMergeNode in="SourceGraphic"/>
      </feMerge>
    </filter>
    <linearGradient id="drive-removable-media-encrypted-b" x1="102.549%" x2="-2.652%" y1="57.682%" y2="57.682%">
      <stop offset="0%" stop-color="#9B58FF"/>
      <stop offset="4.571%" stop-color="#891EFF"/>
      <stop offset="11.797%" stop-color="#A054FF"/>
      <stop offset="85.095%" stop-color="#A664FF"/>
      <stop offset="93.793%" stop-color="#8F36FB"/>
      <stop offset="100%" stop-color="#9B58FF"/>
    </linearGradient>
    <linearGradient id="drive-removable-media-encrypted-c" x1="100%" x2="0%" y1="56.43%" y2="56.43%">
      <stop offset="0%" stop-color="#FFF" stop-opacity=".5"/>
      <stop offset="9.936%" stop-color="#FFF" stop-opacity=".9"/>
      <stop offset="52.356%" stop-color="#FFF" stop-opacity=".7"/>
      <stop offset="87.648%" stop-color="#FFF" stop-opacity=".9"/>
      <stop offset="100%" stop-color="#FFF" stop-opacity=".5"/>
    </linearGradient>
    <path id="drive-removable-media-encrypted-d" d="M3.77867661e-09,84.9942007 C3.16123574e-09,80.0268408 4.02713307,76 9.00988618,76 L82.9901138,76 C87.9661366,76 92,80.0266167 92,84.9942005 L92,95.0057992 C92,99.973159 87.9728669,104 82.9901138,104 L9.00988619,104 C4.03386345,104 5.64058313e-09,99.9733835 5.0231144e-09,95.0057996 L3.77867661e-09,84.9942007 Z"/>
    <filter id="drive-removable-media-encrypted-e" width="101.1%" height="103.6%" x="-.5%" y="-1.8%" filterUnits="objectBoundingBox">
      <feMorphology in="SourceAlpha" radius="1" result="shadowSpreadInner1"/>
      <feOffset in="shadowSpreadInner1" result="shadowOffsetInner1"/>
      <feComposite in="shadowOffsetInner1" in2="SourceAlpha" k2="-1" k3="1" operator="arithmetic" result="shadowInnerInner1"/>
      <feColorMatrix in="shadowInnerInner1" values="0 0 0 0 1   0 0 0 0 1   0 0 0 0 1  0 0 0 0.5 0"/>
    </filter>
    <radialGradient id="drive-removable-media-encrypted-f" cx="48.239%" cy="19.103%" r="78.654%" fx="48.239%" fy="19.103%" gradientTransform="matrix(0 1 -.77841 0 .631 -.291)">
      <stop offset="0%" stop-color="#E6B3FF"/>
      <stop offset="100%" stop-color="#72A3FF"/>
    </radialGradient>
    <linearGradient id="drive-removable-media-encrypted-i" x1="50%" x2="50%" y1="0%" y2="100%">
      <stop offset="0%" stop-color="#0174FF"/>
      <stop offset="50.85%" stop-color="#01C2FF"/>
      <stop offset="100%" stop-color="#0056FF"/>
    </linearGradient>
    <path id="drive-removable-media-encrypted-h" d="M61,94 C61.5522847,94 62,94.4530363 62,94.9970301 L62,101.00297 C62,101.514283 61.6172798,101.935699 61.1173326,101.993292 L61,102 C60.4477153,102 60,101.546964 60,101.00297 L60,94.9970301 C60,94.4857174 60.3827202,94.0643013 60.8826674,94.0067078 L61,94 Z M65,94 C65.5522847,94 66,94.4530363 66,94.9970301 L66,101.00297 C66,101.514283 65.6172798,101.935699 65.1173326,101.993292 L65,102 C64.4477153,102 64,101.546964 64,101.00297 L64,94.9970301 C64,94.4857174 64.3827202,94.0643013 64.8826674,94.0067078 L65,94 Z M69,94 C69.5522847,94 70,94.4530363 70,94.9970301 L70,101.00297 C70,101.514283 69.6172798,101.935699 69.1173326,101.993292 L69,102 C68.4477153,102 68,101.546964 68,101.00297 L68,94.9970301 C68,94.4857174 68.3827202,94.0643013 68.8826674,94.0067078 L69,94 Z M73,94 C73.5522847,94 74,94.4530363 74,94.9970301 L74,101.00297 C74,101.514283 73.6172798,101.935699 73.1173326,101.993292 L73,102 C72.4477153,102 72,101.546964 72,101.00297 L72,94.9970301 C72,94.4857174 72.3827202,94.0643013 72.8826674,94.0067078 L73,94 Z M77,94 C77.5522847,94 78,94.4530363 78,94.9970301 L78,101.00297 C78,101.514283 77.6172798,101.935699 77.1173326,101.993292 L77,102 C76.4477153,102 76,101.546964 76,101.00297 L76,94.9970301 C76,94.4857174 76.3827202,94.0643013 76.8826674,94.0067078 L77,94 Z M81,94 C81.5522847,94 82,94.4530363 82,94.9970301 L82,101.00297 C82,101.514283 81.6172798,101.935699 81.1173326,101.993292 L81,102 C80.4477153,102 80,101.546964 80,101.00297 L80,94.9970301 C80,94.4857174 80.3827202,94.0643013 80.8826674,94.0067078 L81,94 Z"/>
    <filter id="drive-removable-media-encrypted-g" width="104.5%" height="125%" x="-2.3%" y="-6.2%" filterUnits="objectBoundingBox">
      <feOffset dy="1" in="SourceAlpha" result="shadowOffsetOuter1"/>
      <feColorMatrix in="shadowOffsetOuter1" values="0 0 0 0 1   0 0 0 0 1   0 0 0 0 1  0 0 0 0.3 0"/>
    </filter>
  </defs>
  <g fill="none" fill-rule="evenodd">
    <g filter="url(#drive-removable-media-encrypted-a)" transform="translate(18 10)">
      <path fill="url(#drive-removable-media-encrypted-b)" d="M-3.48450158e-10,15.9990622 C-3.48450158e-10,7.16302415 7.1616376,4.06657819e-10 15.9988959,4.06657819e-10 L76.0011022,4.06657819e-10 C84.8370484,4.06657819e-10 91.9999982,7.16177473 91.9999984,15.9990622 L92,94 L-3.48450158e-10,94 L-3.48450158e-10,15.9990622 Z"/>
      <use fill="url(#drive-removable-media-encrypted-c)" xlink:href="#drive-removable-media-encrypted-d"/>
      <use fill="#000" filter="url(#drive-removable-media-encrypted-e)" xlink:href="#drive-removable-media-encrypted-d"/>
      <path fill="url(#drive-removable-media-encrypted-f)" stroke="#003D9C" stroke-opacity=".2" d="M0.499999998,98 C0.499999998,103.247504 4.75233618,107.5 9.99878601,107.5 L82.0012108,107.5 C87.2525149,107.5 91.4999968,103.249604 91.4999968,98 C91.4999968,92.7524957 87.2476606,88.5 82.0012108,88.5 L9.99878601,88.5 C4.74748193,88.5 0.499999998,92.7503956 0.499999998,98 Z"/>
      <use fill="#000" filter="url(#drive-removable-media-encrypted-g)" xlink:href="#drive-removable-media-encrypted-h"/>
      <use fill="url(#drive-removable-media-encrypted-i)" xlink:href="#drive-removable-media-encrypted-h"/>
      <path fill="#F076FF" stroke="#A50AFF" d="M12,101.5 C13.9329966,101.5 15.5,99.9329966 15.5,98 C15.5,96.0670034 13.9329966,94.5 12,94.5 C10.0670034,94.5 8.5,96.0670034 8.5,98 C8.5,99.9329966 10.0670034,101.5 12,101.5 Z"/>
    </g>
    <g fill="#FFF" transform="translate(43.5 32)">
      <path d="M20.5,0 C31.8218374,-2.07978778e-15 41,9.17816263 41,20.5 C41,31.8218374 31.8218374,41 20.5,41 C9.17816263,41 1.38652519e-15,31.8218374 0,20.5 C-1.38652519e-15,9.17816263 9.17816263,2.07978778e-15 20.5,0 Z M20.5,2 C10.2827321,2 2,10.2827321 2,20.5 C2,30.7172679 10.2827321,39 20.5,39 C30.7172679,39 39,30.7172679 39,20.5 C39,10.2827321 30.7172679,2 20.5,2 Z M20.5,11 C25.7467051,11 30,15.2532949 30,20.5 C30,25.7467051 25.7467051,30 20.5,30 C15.2532949,30 11,25.7467051 11,20.5 C11,15.2532949 15.2532949,11 20.5,11 Z M20.5,14.5 C18.8431458,14.5 17.5,15.8431458 17.5,17.5 L17.5,17.5 L17.5,18.5 L17,18.5 C16.4477153,18.5 16,18.9477153 16,19.5 L16,19.5 L16,24 C16,24.5522847 16.4477153,25 17,25 L17,25 L24,25 C24.5522847,25 25,24.5522847 25,24 L25,24 L25,19.5 C25,18.9477153 24.5522847,18.5 24,18.5 L24,18.5 L23.5,18.5 L23.5,17.5 C23.5,15.8431458 22.1568542,14.5 20.5,14.5 Z M20.5,15.5 C21.6045695,15.5 22.5,16.3954305 22.5,17.5 L22.5,17.5 L22.5,18.5 L18.5,18.5 L18.5,17.5 C18.5,16.3954305 19.3954305,15.5 20.5,15.5 Z"/>
      <path d="M15.25,28.5 L15.25,30 L14.75,30 L14.75,28.5 L15.25,28.5 Z M17.5904523,28.2514926 L17.8509246,29.7287043 L17.3585207,29.8155283 L17.0980485,28.3383167 L17.5904523,28.2514926 Z M12.4095477,28.2514926 L12.9019515,28.3383167 L12.6414793,29.8155283 L12.1490754,29.7287043 L12.4095477,28.2514926 Z M19.8521951,27.6003453 L20.3652253,29.0098843 L19.895379,29.1808943 L19.3823488,27.7713554 L19.8521951,27.6003453 Z M10.1478049,27.6003453 L10.6176512,27.7713554 L10.104621,29.1808943 L9.63477469,29.0098843 L10.1478049,27.6003453 Z M21.9665064,26.566343 L22.7165064,27.8653811 L22.2834936,28.1153811 L21.5334936,26.816343 L21.9665064,26.566343 Z M8.03349365,26.566343 L8.46650635,26.816343 L7.71650635,28.1153811 L7.28349365,27.8653811 L8.03349365,26.566343 Z M23.8691438,25.1809031 L24.8333253,26.3299697 L24.450303,26.6513635 L23.4861216,25.5022969 L23.8691438,25.1809031 Z M6.13085616,25.1809031 L6.51387838,25.5022969 L5.54969697,26.6513635 L5.16667474,26.3299697 L6.13085616,25.1809031 Z M25.5022969,23.4861216 L26.6513635,24.450303 L26.3299697,24.8333253 L25.1809031,23.8691438 L25.5022969,23.4861216 Z M4.49770312,23.4861216 L4.81909692,23.8691438 L3.67003026,24.8333253 L3.34863645,24.450303 L4.49770312,23.4861216 Z M26.816343,21.5334936 L28.1153811,22.2834936 L27.8653811,22.7165064 L26.566343,21.9665064 L26.816343,21.5334936 Z M3.18365705,21.5334936 L3.43365705,21.9665064 L2.13461894,22.7165064 L1.88461894,22.2834936 L3.18365705,21.5334936 Z M27.7713554,19.3823488 L29.1808943,19.895379 L29.0098843,20.3652253 L27.6003453,19.8521951 L27.7713554,19.3823488 Z M2.22864458,19.3823488 L2.39965466,19.8521951 L0.990115724,20.3652253 L0.819105652,19.895379 L2.22864458,19.3823488 Z M28.3383167,17.0980485 L29.8155283,17.3585207 L29.7287043,17.8509246 L28.2514926,17.5904523 L28.3383167,17.0980485 Z M1.66168329,17.0980485 L1.74850738,17.5904523 L0.271295749,17.8509246 L0.18447166,17.3585207 L1.66168329,17.0980485 Z M30,14.75 L30,15.25 L28.5,15.25 L28.5,14.75 L30,14.75 Z M1.5,14.75 L1.5,15.25 L0,15.25 L-9.18485099e-17,14.75 L1.5,14.75 Z M29.7287043,12.1490754 L29.8155283,12.6414793 L28.3383167,12.9019515 L28.2514926,12.4095477 L29.7287043,12.1490754 Z M0.271295749,12.1490754 L1.74850738,12.4095477 L1.66168329,12.9019515 L0.18447166,12.6414793 L0.271295749,12.1490754 Z M29.0098843,9.63477469 L29.1808943,10.104621 L27.7713554,10.6176512 L27.6003453,10.1478049 L29.0098843,9.63477469 Z M0.990115724,9.63477469 L2.39965466,10.1478049 L2.22864458,10.6176512 L0.819105652,10.104621 L0.990115724,9.63477469 Z M27.8653811,7.28349365 L28.1153811,7.71650635 L26.816343,8.46650635 L26.566343,8.03349365 L27.8653811,7.28349365 Z M2.13461894,7.28349365 L3.43365705,8.03349365 L3.18365705,8.46650635 L1.88461894,7.71650635 L2.13461894,7.28349365 Z M26.3299697,5.16667474 L26.6513635,5.54969697 L25.5022969,6.51387838 L25.1809031,6.13085616 L26.3299697,5.16667474 Z M3.67003026,5.16667474 L4.81909692,6.13085616 L4.49770312,6.51387838 L3.34863645,5.54969697 L3.67003026,5.16667474 Z M24.450303,3.34863645 L24.8333253,3.67003026 L23.8691438,4.81909692 L23.4861216,4.49770312 L24.450303,3.34863645 Z M5.54969697,3.34863645 L6.51387838,4.49770312 L6.13085616,4.81909692 L5.16667474,3.67003026 L5.54969697,3.34863645 Z M22.2834936,1.88461894 L22.7165064,2.13461894 L21.9665064,3.43365705 L21.5334936,3.18365705 L22.2834936,1.88461894 Z M7.71650635,1.88461894 L8.46650635,3.18365705 L8.03349365,3.43365705 L7.28349365,2.13461894 L7.71650635,1.88461894 Z M19.895379,0.819105652 L20.3652253,0.990115724 L19.8521951,2.39965466 L19.3823488,2.22864458 L19.895379,0.819105652 Z M10.104621,0.819105652 L10.6176512,2.22864458 L10.1478049,2.39965466 L9.63477469,0.990115724 L10.104621,0.819105652 Z M17.3585207,0.18447166 L17.8509246,0.271295749 L17.5904523,1.74850738 L17.0980485,1.66168329 L17.3585207,0.18447166 Z M12.6414793,0.18447166 L12.9019515,1.66168329 L12.4095477,1.74850738 L12.1490754,0.271295749 L12.6414793,0.18447166 Z M15.25,0 L15.25,1.5 L14.75,1.5 L14.75,0 L15.25,0 Z" transform="translate(5.5 5.5)"/>
    </g>
  </g>
</svg>
