<svg xmlns="http://www.w3.org/2000/svg" xmlns:xlink="http://www.w3.org/1999/xlink" width="32" height="32" viewBox="0 0 32 32">
  <defs>
    <path id="application-x-tar-b" d="M12,5.75 C12,5.33578644 12.3357864,5 12.75,5 L19.25,5 C19.6642136,5 20,5.33578644 20,5.75 L20,3.75 C20,3.33578644 20.3357864,3 20.75,3 L26.25,3 C26.6642136,3 27,3.33578644 27,3.75 L27,28.25 C27,28.6642136 26.6642136,29 26.25,29 L20.75,29 C20.3357864,29 20,28.6642136 20,28.25 C20,28.6642136 19.6642136,29 19.25,29 L12.75,29 C12.3357864,29 12,28.6642136 12,28.25 C12,28.6642136 11.6642136,29 11.25,29 L5.75,29 C5.33578644,29 5,28.6642136 5,28.25 L5,4.75 C5,4.33578644 5.33578644,4 5.75,4 L11.25,4 C11.6642136,4 12,4.33578644 12,4.75 L12,5.75 Z"/>
    <filter id="application-x-tar-a" width="118.2%" height="115.4%" x="-9.1%" y="-3.8%" filterUnits="objectBoundingBox">
      <feOffset dy="1" in="SourceAlpha" result="shadowOffsetOuter1"/>
      <feGaussianBlur in="shadowOffsetOuter1" result="shadowBlurOuter1" stdDeviation=".5"/>
      <feComposite in="shadowBlurOuter1" in2="SourceAlpha" operator="out" result="shadowBlurOuter1"/>
      <feColorMatrix in="shadowBlurOuter1" values="0 0 0 0 0   0 0 0 0 0   0 0 0 0 0  0 0 0 0.15 0"/>
    </filter>
    <linearGradient id="application-x-tar-c" x1="98.475%" x2="1.525%" y1="48.475%" y2="48.475%">
      <stop offset="0%" stop-color="#780094"/>
      <stop offset="100%" stop-color="#670074"/>
    </linearGradient>
    <linearGradient id="application-x-tar-d" x1="99.455%" x2="3.998%" y1="50.545%" y2="50.545%">
      <stop offset="0%" stop-color="#1C44A8"/>
      <stop offset="100%" stop-color="#023BA8"/>
    </linearGradient>
    <linearGradient id="application-x-tar-e" x1="100%" x2="6.531%" y1="50%" y2="50%">
      <stop offset="0%" stop-color="#286D00"/>
      <stop offset="100%" stop-color="#457000"/>
    </linearGradient>
  </defs>
  <g fill="none" fill-rule="evenodd">
    <use fill="#000" filter="url(#application-x-tar-a)" xlink:href="#application-x-tar-b"/>
    <use fill="#000" fill-opacity=".1" xlink:href="#application-x-tar-b"/>
    <path fill="url(#application-x-tar-c)" d="M27,3.75 L27,28.25 C27,28.6642136 26.6642136,29 26.25,29 L20.75,29 C20.3357864,29 20,28.6642136 20,28.25 L20,3.75 C20,3.33578644 20.3357864,3 20.75,3 L26.25,3 C26.6642136,3 27,3.33578644 27,3.75 Z"/>
    <path fill="url(#application-x-tar-d)" d="M20,5.75 L20,28.25 C20,28.6642136 19.6642136,29 19.25,29 L12.75,29 C12.3357864,29 12,28.6642136 12,28.25 L12,5.75 C12,5.33578644 12.3357864,5 12.75,5 L19.25,5 C19.6642136,5 20,5.33578644 20,5.75 Z"/>
    <path fill="url(#application-x-tar-e)" d="M12,4.75 L12,28.25 C12,28.6642136 11.6642136,29 11.25,29 L5.75,29 C5.33578644,29 5,28.6642136 5,28.25 L5,4.75 C5,4.33578644 5.33578644,4 5.75,4 L11.25,4 C11.6642136,4 12,4.33578644 12,4.75 Z"/>
    <path fill="#FFF8F8" fill-opacity=".3" d="M12,15 L12,18 L5,18 L5,15 L12,15 Z M20,15 L27,15 L27,18 L20,18 L20,15 Z"/>
    <path fill="#FFF" fill-opacity=".6" d="M13.5,14 L18.5,14 C18.7761424,14 19,14.2238576 19,14.5 L19,18.5 C19,18.7761424 18.7761424,19 18.5,19 L13.5,19 C13.2238576,19 13,18.7761424 13,18.5 L13,14.5 C13,14.2238576 13.2238576,14 13.5,14 Z M14,15 L14,18 L18,18 L18,15 L14,15 Z M15,16 L17,16 L17,17 L15,17 L15,16 Z"/>
  </g>
</svg>
