<svg xmlns="http://www.w3.org/2000/svg" width="256" height="256" viewBox="0 0 256 256">
  <defs>
    <filter id="deepin-graphics-driver-manager-a" width="126.2%" height="126.9%" x="-13.1%" y="-13.4%" filterUnits="objectBoundingBox">
      <feOffset dy="4" in="SourceAlpha" result="shadowOffsetOuter1"/>
      <feGaussianBlur in="shadowOffsetOuter1" result="shadowBlurOuter1" stdDeviation="5"/>
      <feColorMatrix in="shadowBlurOuter1" result="shadowMatrixOuter1" values="0 0 0 0 0   0 0 0 0 0   0 0 0 0 0  0 0 0 0.2 0"/>
      <feMerge>
        <feMergeNode in="shadowMatrixOuter1"/>
        <feMergeNode in="SourceGraphic"/>
      </feMerge>
    </filter>
    <linearGradient id="deepin-graphics-driver-manager-b" x1="50%" x2="50%" y1="100%" y2="0%">
      <stop offset="0%" stop-color="#AAB014"/>
      <stop offset="100%" stop-color="#D7D142"/>
    </linearGradient>
    <filter id="deepin-graphics-driver-manager-c" width="131%" height="134%" x="-15.5%" y="-17%" filterUnits="objectBoundingBox">
      <feOffset dy="4" in="SourceAlpha" result="shadowOffsetOuter1"/>
      <feGaussianBlur in="shadowOffsetOuter1" result="shadowBlurOuter1" stdDeviation="5"/>
      <feColorMatrix in="shadowBlurOuter1" result="shadowMatrixOuter1" values="0 0 0 0 0   0 0 0 0 0   0 0 0 0 0  0 0 0 0.2 0"/>
      <feMerge>
        <feMergeNode in="shadowMatrixOuter1"/>
        <feMergeNode in="SourceGraphic"/>
      </feMerge>
    </filter>
    <filter id="deepin-graphics-driver-manager-d" width="160%" height="160%" x="-30%" y="-30%" filterUnits="objectBoundingBox">
      <feOffset dy="4" in="SourceAlpha" result="shadowOffsetOuter1"/>
      <feGaussianBlur in="shadowOffsetOuter1" result="shadowBlurOuter1" stdDeviation="5"/>
      <feColorMatrix in="shadowBlurOuter1" result="shadowMatrixOuter1" values="0 0 0 0 0   0 0 0 0 0   0 0 0 0 0  0 0 0 0.2 0"/>
      <feMerge>
        <feMergeNode in="shadowMatrixOuter1"/>
        <feMergeNode in="SourceGraphic"/>
      </feMerge>
    </filter>
    <linearGradient id="deepin-graphics-driver-manager-e" x1="50%" x2="50%" y1="0%" y2="100%">
      <stop offset="0%" stop-color="#FFF"/>
      <stop offset="100%" stop-color="#B5B5B5"/>
    </linearGradient>
  </defs>
  <g fill="none" fill-rule="evenodd">
    <g fill-rule="nonzero" filter="url(#deepin-graphics-driver-manager-a)" transform="translate(22 27)">
      <path fill="#196B2F" d="M4,4 L201,4 C203.209139,4 205,5.790861 205,8 L205,197 C205,199.209139 203.209139,201 201,201 L4,201 C1.790861,201 -1.73547709e-16,199.209139 0,197 L0,8 C-7.1463071e-16,5.790861 1.790861,4 4,4 Z"/>
      <path fill="#47AF4C" d="M4,0 L202,0 C204.209139,-8.49901461e-16 206,1.790861 206,4 L206,193 C206,195.209139 204.209139,197 202,197 L4,197 C1.790861,197 2.705415e-16,195.209139 0,193 L0,4 C-7.1463071e-16,1.790861 1.790861,4.05812251e-16 4,0 Z"/>
      <path fill="#089E11" d="M4,3 L202,3 C204.209139,3 206,4.790861 206,7 L206,194 C206,196.209139 204.209139,198 202,198 L4,198 C1.790861,198 2.705415e-16,196.209139 0,194 L0,7 C-7.1463071e-16,4.790861 1.790861,3 4,3 Z"/>
      <path fill="url(#deepin-graphics-driver-manager-b)" d="M194,19.9995942 C191.790861,19.9995942 190,18.2087851 190,15.9997102 C190,13.7906352 191.790861,11.9998261 194,11.9998261 C196.209139,11.9998261 198,13.7906352 198,15.9997102 C198,18.2087851 196.209139,19.9995942 194,19.9995942 Z M47,5 L51,5 L51,9 L47,9 L47,5 Z M42,5 L46,5 L46,9 L42,9 L42,5 Z M47,10 L51,10 L51,14 L47,14 L47,10 Z M42,10 L46,10 L46,14 L42,14 L42,10 Z M47,15 L51,15 L51,19 L47,19 L47,15 Z M42,15 L46,15 L46,19 L42,19 L42,15 Z M37,10 L41,10 L41,14 L37,14 L37,10 Z M37,15 L41,15 L41,19 L37,19 L37,15 Z M32,10 L36,10 L36,14 L32,14 L32,10 Z M32,15 L36,15 L36,19 L32,19 L32,15 Z M27,10 L31,10 L31,14 L27,14 L27,10 Z M10,39 L14,39 L14,43 L10,43 L10,39 Z M10,44 L14,44 L14,48 L10,48 L10,44 Z M29,189 L33,189 L33,193 L29,193 L29,189 Z M66,189 L70,189 L70,193 L66,193 L66,189 Z M34,189 L38,189 L38,193 L34,193 L34,189 Z M39,189 L43,189 L43,193 L39,193 L39,189 Z M29,184 L33,184 L33,188 L29,188 L29,184 Z M66,184 L70,184 L70,188 L66,188 L66,184 Z M71,189 L75,189 L75,193 L71,193 L71,189 Z M76,189 L80,189 L80,193 L76,193 L76,189 Z M71,184 L75,184 L75,188 L71,188 L71,184 Z M34,184 L38,184 L38,188 L34,188 L34,184 Z M5,39 L9,39 L9,43 L5,43 L5,39 Z M5,34 L9,34 L9,38 L5,38 L5,34 Z M37,5 L41,5 L41,9 L37,9 L37,5 Z M32,5 L36,5 L36,9 L32,9 L32,5 Z M27,5 L31,5 L31,9 L27,9 L27,5 Z M22,5 L26,5 L26,9 L22,9 L22,5 Z M76,5 L80,5 L80,9 L76,9 L76,5 Z M76,10 L80,10 L80,14 L76,14 L76,10 Z M76,15 L80,15 L80,19 L76,19 L76,15 Z M81,5 L85,5 L85,9 L81,9 L81,5 Z M81,10 L85,10 L85,14 L81,14 L81,10 Z M81,15 L85,15 L85,19 L81,19 L81,15 Z M86,5 L90,5 L90,9 L86,9 L86,5 Z M86,10 L90,10 L90,14 L86,14 L86,10 Z M86,15 L90,15 L90,19 L86,19 L86,15 Z M91,5 L95,5 L95,9 L91,9 L91,5 Z M91,10 L95,10 L95,14 L91,14 L91,10 Z M91,15 L95,15 L95,19 L91,19 L91,15 Z M96,5 L100,5 L100,9 L96,9 L96,5 Z M96,10 L100,10 L100,14 L96,14 L96,10 Z M101,10 L105,10 L105,14 L101,14 L101,10 Z M96,15 L100,15 L100,19 L96,19 L96,15 Z"/>
    </g>
    <g fill-rule="nonzero" filter="url(#deepin-graphics-driver-manager-c)" transform="translate(37 49)">
      <path fill="#000" fill-opacity=".204" d="M174,80.796 L174,156 C174,157.656854 172.656854,159 171,159 L5,159 C3.3431458,159 2,157.656854 2,156 L0,80.796 L2,6.592 C2,4.0559084 4.0559084,2 6.592,2 L169.408,2 C171.944092,2 174,4.0559084 174,6.592 L174,80.796 Z M174,80.796 L174,8.592 C174,6.0559084 171.944092,4 169.408,4 L6.592,4 C4.0559084,4 2,6.0559084 2,8.592 L0,80.796 L2,154 C2,155.656854 3.3431458,157 5,157 L171,157 C172.656854,157 174,155.656854 174,154 L174,80.796 Z"/>
      <path fill="#FFF" d="M5,0 L171,0 C172.656854,-3.04359188e-16 174,1.34314575 174,3 L174,154 C174,155.656854 172.656854,157 171,157 L5,157 C3.34314575,157 2,155.656854 2,154 L2,3 C2,1.34314575 3.34314575,3.04359188e-16 5,0 Z"/>
      <path fill="#333" d="M47.4789916,98 C53.7109244,98 58.9747899,95.604167 62,92.669271 L62,73 L46,73 L46,80 L54.0134454,80 L54.0134454,88.65625 C52.7428571,89.734375 50.5647059,90.333333 48.3865546,90.333333 C39.6134454,90.333333 35.1361345,84.523437 35.1361345,74.8802083 C35.1361345,65.3567708 40.3394958,59.6067708 47.7815126,59.6067708 C51.8352941,59.6067708 54.3764706,61.2239583 56.5546218,63.3203125 L61.3344538,57.6901042 C58.4302521,54.7552083 53.9529412,52 47.4789916,52 C35.5596639,52 26,60.5651042 26,75.1796875 C26,89.973958 35.2571429,98 47.4789916,98 Z M72,97 L72,53 L87.0450281,53 C97.198874,53 105,56.3891892 105,66.7945946 C105,76.8432432 97.136961,82 87.2926829,82 L81,82 L81,97 L72,97 Z M81,75 L86.5625,75 C92.9375,75 96,72.345679 96,67.0987654 C96,61.7901235 92.625,60 86.25,60 L81,60 L81,75 Z M130.560976,98 C141.597561,98 148,91.972149 148,77.2904509 L148,53 L139,53 L139,78.066313 C139,87.257294 135.926829,90.360743 130.560976,90.360743 C125.256098,90.360743 122.02439,87.257294 122.02439,78.066313 L122.02439,53 L113,53 L113,77.2904509 C113,91.972149 119.585366,98 130.560976,98 Z"/>
    </g>
    <g fill-rule="nonzero" filter="url(#deepin-graphics-driver-manager-d)" transform="translate(157 151)">
      <circle cx="45" cy="45" r="44" fill="#FFF" stroke="url(#deepin-graphics-driver-manager-e)" stroke-width="2"/>
      <path fill="#333" d="M78.1088023,45.5000389 C78.1088023,42.7825771 80.1015557,40.246487 83,39.1594244 C82.6377237,36.8043946 81.9130931,34.449287 81.1884626,32.2753954 C78.1087244,32.6377496 75.2102023,31.5507649 73.7609412,29.1956573 C72.3116023,26.8406275 72.8550947,23.7608893 74.8478481,21.2246435 C73.398587,19.4131061 71.7681878,17.782629 69.9565725,16.1522298 C67.2391107,18.1449832 64.1594504,18.6884756 61.8044206,17.2391366 C59.449313,15.7898756 58.3623282,12.8913534 58.7246824,9.8116153 C56.5507908,9.0869847 54.1956832,8.3623542 51.8406534,8 C50.7535908,10.8985221 48.2174229,12.8912756 45.5000389,12.8912756 C42.7826549,12.8912756 40.246487,10.8985221 39.1594244,8 C36.8043946,8.3622763 34.449287,9.0869069 32.2753954,9.8115374 C32.3973739,10.8482627 32.3551158,11.864453 32.1555339,12.8117372 C31.7622297,14.6784938 30.7579703,16.2776592 29.1956573,17.2390588 C26.8406275,18.6883977 23.7608893,18.1449053 21.2246435,16.1521519 C19.4131061,17.601413 17.782629,19.2318122 16.1522298,21.0434275 C16.5657878,21.6224052 16.9132568,22.2297055 17.1881732,22.8502416 C18.1175443,24.9480007 18.2177707,27.1970209 17.2391366,29.0144412 C15.7898756,31.3695489 12.8913534,32.4564557 9.8116153,32.0941794 C9.0869847,34.268071 8.3622763,36.6231786 8,38.9782084 C10.8984443,40.246487 12.8912756,42.7826549 12.8912756,45.5000389 C12.8912756,45.92728 12.8420152,46.3500414 12.7477192,46.7633956 C12.2422633,48.9791001 10.4428016,50.9245044 8,51.8406534 C8.3622763,54.1956832 9.0869069,56.5507908 9.8115374,58.7246824 C12.8912756,58.3623282 15.9710137,59.2681748 17.2390588,61.8044206 C18.6883977,64.1594504 18.1449053,67.2391885 16.1521519,69.7754343 C17.601413,71.5869718 19.2318122,73.2174488 21.0434275,74.8478481 C23.5796733,72.8550947 26.6594115,72.4928183 29.0144412,73.7609412 C31.3695489,75.2102023 32.4564557,78.1087244 32.0941794,81.1884626 C34.268071,81.9130931 36.6231786,82.6377237 38.9782084,83 C40.2463313,80.1014779 42.6014389,78.1087244 45.3188229,78.1087244 C48.0362069,78.1087244 50.5723748,80.1014779 51.6593596,83 C54.0144672,82.6377237 56.1883588,81.9130931 58.5434664,81.1884626 C58.1811122,78.1087244 59.268097,75.2102023 61.6231267,73.7609412 C63.9782344,72.3116023 67.0578947,72.8550947 69.5941405,74.8478481 C71.4057557,73.398587 73.036155,71.9788652 74.6666321,70.16725 C72.6738786,67.6310042 72.3115244,64.3405885 73.5796473,61.9855588 C75.0289084,59.6304511 77.9275084,58.5435443 81.0071687,58.9058206 C81.7318771,56.731929 82.4565076,54.3768214 82.818784,52.0217916 C80.1015557,50.5725305 78.1088023,48.2174229 78.1088023,45.5000389 Z M20,46.2681924 C20,33.6340459 29.1000167,23.1056408 41,21 C41,30.925971 41,38.3704492 41,43.3334347 C41,43.4136882 41,43.5340685 41,43.6945756 L21.4000334,55 C21.3623455,54.8866339 21.3254186,54.7731459 21.2892527,54.6595304 C21.2784511,54.625597 21.2677173,54.5916522 21.2570515,54.5576959 C21.2446862,54.5183292 21.1947915,54.3569447 21.1822229,54.3156163 C20.3940224,51.7238286 20,49.0631147 20,46.2681924 Z M45.5,72 C37.8392501,72 30.8749501,68.3792209 26,62.5861819 L45.5,51 L65,62.5862856 C60.1251496,68.3792209 53.1607499,72 45.5,72 Z M51,43.7770175 C51,43.6273367 51,43.5197644 51,43.4543005 C51,43.2871651 51,43.1471936 51,43.034386 C51,38.1590815 51,30.8142862 51,21 C62.8998396,23.1102962 72,33.6619786 72,46.324058 C72,49.0879803 71.616309,51.6590714 70.8490019,54.2122473 C70.8082147,54.3479644 70.7663437,54.4836308 70.7233887,54.6192729 C70.6831948,54.7461961 70.6420519,54.8730979 70.5999599,55 L51,43.7770175 Z"/>
    </g>
  </g>
</svg>
