<svg xmlns="http://www.w3.org/2000/svg" xmlns:xlink="http://www.w3.org/1999/xlink" width="256" height="256" viewBox="0 0 256 256">
  <defs>
    <filter id="kmsclient-a" width="123.8%" height="125%" x="-11.9%" y="-12.1%" filterUnits="objectBoundingBox">
      <feOffset dy="4" in="SourceAlpha" result="shadowOffsetOuter1"/>
      <feGaussianBlur in="shadowOffsetOuter1" result="shadowBlurOuter1" stdDeviation="5"/>
      <feColorMatrix in="shadowBlurOuter1" result="shadowMatrixOuter1" values="0 0 0 0 0   0 0 0 0 0   0 0 0 0 0  0 0 0 0.2 0"/>
      <feMerge>
        <feMergeNode in="shadowMatrixOuter1"/>
        <feMergeNode in="SourceGraphic"/>
      </feMerge>
    </filter>
    <path id="kmsclient-b" d="M6,0 L204,0 C207.313708,-6.08718376e-16 210,2.6862915 210,6 L210,204 C210,207.313708 207.313708,210 204,210 L6,210 C2.6862915,210 4.05812251e-16,207.313708 0,204 L0,6 C-4.05812251e-16,2.6862915 2.6862915,6.08718376e-16 6,0 Z"/>
    <filter id="kmsclient-c" width="101%" height="101%" x="-.5%" y="-.5%" filterUnits="objectBoundingBox">
      <feOffset dy="2" in="SourceAlpha" result="shadowOffsetInner1"/>
      <feComposite in="shadowOffsetInner1" in2="SourceAlpha" k2="-1" k3="1" operator="arithmetic" result="shadowInnerInner1"/>
      <feColorMatrix in="shadowInnerInner1" result="shadowMatrixInner1" values="0 0 0 0 1   0 0 0 0 1   0 0 0 0 1  0 0 0 0.802748033 0"/>
      <feOffset dy="-2" in="SourceAlpha" result="shadowOffsetInner2"/>
      <feComposite in="shadowOffsetInner2" in2="SourceAlpha" k2="-1" k3="1" operator="arithmetic" result="shadowInnerInner2"/>
      <feColorMatrix in="shadowInnerInner2" result="shadowMatrixInner2" values="0 0 0 0 0   0 0 0 0 0   0 0 0 0 0  0 0 0 0.296137456 0"/>
      <feMerge>
        <feMergeNode in="shadowMatrixInner1"/>
        <feMergeNode in="shadowMatrixInner2"/>
      </feMerge>
    </filter>
    <circle id="kmsclient-e" cx="50" cy="50" r="50"/>
    <filter id="kmsclient-d" width="103%" height="106%" x="-1.5%" y="-1.5%" filterUnits="objectBoundingBox">
      <feOffset dy="3" in="SourceAlpha" result="shadowOffsetOuter1"/>
      <feColorMatrix in="shadowOffsetOuter1" values="0 0 0 0 0   0 0 0 0 0   0 0 0 0 0  0 0 0 0.15 0"/>
    </filter>
    <circle id="kmsclient-g" cx="97" cy="50" r="50"/>
    <filter id="kmsclient-f" width="103%" height="106%" x="-1.5%" y="-1.5%" filterUnits="objectBoundingBox">
      <feOffset dy="3" in="SourceAlpha" result="shadowOffsetOuter1"/>
      <feColorMatrix in="shadowOffsetOuter1" values="0 0 0 0 0   0 0 0 0 0   0 0 0 0 0  0 0 0 0.15 0"/>
    </filter>
    <circle id="kmsclient-i" cx="144" cy="50" r="50"/>
    <filter id="kmsclient-h" width="103%" height="106%" x="-1.5%" y="-1.5%" filterUnits="objectBoundingBox">
      <feOffset dy="3" in="SourceAlpha" result="shadowOffsetOuter1"/>
      <feColorMatrix in="shadowOffsetOuter1" values="0 0 0 0 0   0 0 0 0 0   0 0 0 0 0  0 0 0 0.202551355 0"/>
    </filter>
    <path id="kmsclient-k" d="M44,126 L44,118 L51.25,110.65625 L60.4456546,128.900193 C60.7855768,129.57459 61.4763939,130 62.2316145,130 L75.4043512,130 C76.2327783,130 76.9043512,129.328427 76.9043512,128.5 C76.9043512,128.237107 76.8352583,127.978831 76.7039961,127.751052 L61,100.5 L75.5275409,85.5451785 C76.104777,84.9509648 76.091014,84.0013171 75.4968003,83.4240809 C75.2168479,83.1521272 74.8419194,83 74.4516218,83 L61.862093,83 C61.3118356,83 60.7858863,83.2267086 60.4080667,83.6267529 L44,101 L44,87 C44,84.790861 42.209139,83 40,83 L33,83 C30.790861,83 29,84.790861 29,87 L29,126 C29,128.209139 30.790861,130 33,130 L40,130 C42.209139,130 44,128.209139 44,126 Z M94.46875,94.5625 L102.92426,127.74087 C103.262963,129.069895 104.459835,130 105.83134,130 L111.656669,130 C113.033736,130 114.233964,129.062489 114.567398,127.726399 L122.84375,94.5625 L122.84375,127 C122.84375,128.656854 124.186896,130 125.84375,130 L131.5,130 C133.156854,130 134.5,128.656854 134.5,127 L134.5,87 C134.5,84.790861 132.709139,83 130.5,83 L119.104939,83 C117.277899,83 115.683058,84.237971 115.229918,86.0079267 L108.6875,111.5625 L102.260929,86.023867 C101.813575,84.2461211 100.21503,83 98.3818619,83 L87,83 C84.790861,83 83,84.790861 83,87 L83,127 C83,128.656854 84.3431458,130 86,130 L91.5,130 C93.0976809,130.00255 94.4036609,128.753721 94.4949073,127.178917 L94.5,127.002644 L94.46875,94.5625 Z M162.5,131 C166.9375,131 170.364583,129.640625 173.28125,128.359375 C176.197917,127.078125 178.46875,125.197917 180.09375,122.71875 C181.71875,120.239583 182.53125,117.53125 182.53125,114.59375 C182.53125,112.09375 181.921875,109.833333 180.703125,107.8125 C179.484375,105.791667 177.536458,104.098958 174.859375,102.734375 C172.355007,101.457829 168.314603,100.194958 162.738163,98.9457596 L160.873158,98.5375567 C158.769227,98.0591459 157.415675,97.546627 156.8125,97 C156.125,96.4166667 155.78125,95.7604167 155.78125,95.03125 C155.78125,94.03125 156.197917,93.1822917 157.03125,92.484375 C157.864583,91.7864583 159.104167,91.4375 160.75,91.4375 C162.75,91.4375 164.317708,91.90625 165.453125,92.84375 C166.109241,93.3854971 166.739269,94.0002905 167.222606,94.820793 C167.340908,95.0216185 167.465206,95.3049911 167.595501,95.6709108 C167.879278,96.4678039 168.633708,97 169.479621,97 L178.53182,97 C179.636401,97.0000208 180.53184,96.104581 180.53184,95 C180.53184,94.8452666 180.513884,94.6910559 180.478331,94.5404622 L180.299035,93.810411 C179.97018,92.525293 179.640528,91.5333755 179.310078,90.8346588 C178.393832,88.89731 177.142347,87.3022261 175.546875,86.171875 C172.473958,83.9947917 168.354167,82.5 162.5,82.5 C157.729167,82.5 153.630208,83.5052083 150.890625,84.703125 C148.151042,85.9010417 146.098958,87.546875 144.734375,89.640625 C143.369792,91.734375 142.6875,93.9583333 142.6875,96.3125 C142.6875,99.8958333 144.020833,102.84375 146.6875,105.15625 C149.250651,107.396484 153.485463,109.206584 159.391937,110.586548 L160.760204,110.898119 C164.098639,111.678837 166.251488,112.504464 167.21875,113.375 C168.260417,114.3125 168.78125,115.375 168.78125,116.5625 C168.78125,117.8125 168.234375,118.911458 167.140625,119.859375 C166.046875,120.807292 164.270833,121 162.25,121 C159.541667,121 157.677083,120.354167 156.21875,118.5 C155.87944,118.065999 155.592434,117.629009 155.35094,117.134691 C155.185308,116.795658 155.011971,116.258176 154.830926,115.522246 C154.611037,114.628346 153.809379,114 152.888831,114 L143.332638,114 C142.228071,114 141.332638,114.895427 141.332638,116 C141.332638,116.117884 141.34306,116.235538 141.363783,116.351586 C141.535877,117.3153 141.710249,118.084639 141.886901,118.659604 C142.727554,121.39576 144.11371,123.83246 146.0625,125.78125 C149.0625,128.78125 154.708333,131 162.5,131 Z"/>
    <filter id="kmsclient-j" width="101.3%" height="108.2%" x="-.7%" y="-2.1%" filterUnits="objectBoundingBox">
      <feOffset dy="2" in="SourceAlpha" result="shadowOffsetOuter1"/>
      <feColorMatrix in="shadowOffsetOuter1" values="0 0 0 0 0   0 0 0 0 0   0 0 0 0 0  0 0 0 0.201704545 0"/>
    </filter>
    <filter id="kmsclient-l" width="101.3%" height="108.2%" x="-.7%" y="-2.1%" filterUnits="objectBoundingBox">
      <feOffset dy="2" in="SourceAlpha" result="shadowOffsetInner1"/>
      <feComposite in="shadowOffsetInner1" in2="SourceAlpha" k2="-1" k3="1" operator="arithmetic" result="shadowInnerInner1"/>
      <feColorMatrix in="shadowInnerInner1" values="0 0 0 0 1   0 0 0 0 1   0 0 0 0 1  0 0 0 0.90196132 0"/>
    </filter>
    <linearGradient id="kmsclient-o" x1="50%" x2="50%" y1="0%" y2="100%">
      <stop offset="0%" stop-color="#FFF"/>
      <stop offset="100%" stop-color="#FFF"/>
      <stop offset="100%" stop-color="#EDF2DE"/>
    </linearGradient>
    <circle id="kmsclient-n" cx="45" cy="45" r="45"/>
    <filter id="kmsclient-m" width="102.2%" height="104.4%" x="-1.1%" y="-1.1%" filterUnits="objectBoundingBox">
      <feOffset dy="2" in="SourceAlpha" result="shadowOffsetOuter1"/>
      <feColorMatrix in="shadowOffsetOuter1" values="0 0 0 0 0   0 0 0 0 0   0 0 0 0 0  0 0 0 0.200420673 0"/>
    </filter>
  </defs>
  <g fill="none" fill-rule="evenodd" filter="url(#kmsclient-a)" transform="translate(20 21)">
    <use fill="#E6F7EF" xlink:href="#kmsclient-b"/>
    <use fill="#000" filter="url(#kmsclient-c)" xlink:href="#kmsclient-b"/>
    <g transform="translate(8 55)">
      <g fill-rule="nonzero" opacity=".704">
        <use fill="#000" filter="url(#kmsclient-d)" xlink:href="#kmsclient-e"/>
        <use fill="#3234FF" xlink:href="#kmsclient-e"/>
      </g>
      <g fill-rule="nonzero" opacity=".86">
        <use fill="#000" filter="url(#kmsclient-f)" xlink:href="#kmsclient-g"/>
        <use fill="#2787FF" xlink:href="#kmsclient-g"/>
      </g>
      <g opacity=".855">
        <use fill="#000" filter="url(#kmsclient-h)" xlink:href="#kmsclient-i"/>
        <use fill="#00E2B5" xlink:href="#kmsclient-i"/>
      </g>
    </g>
    <g fill-rule="nonzero">
      <use fill="#000" filter="url(#kmsclient-j)" xlink:href="#kmsclient-k"/>
      <use fill="#E6F7EF" xlink:href="#kmsclient-k"/>
      <use fill="#000" filter="url(#kmsclient-l)" xlink:href="#kmsclient-k"/>
    </g>
    <g fill-rule="nonzero" transform="translate(137 134)">
      <use fill="#000" filter="url(#kmsclient-m)" xlink:href="#kmsclient-n"/>
      <use fill="url(#kmsclient-o)" xlink:href="#kmsclient-n"/>
      <path fill="#1E49AB" d="M36.3340556,30.0010922 C34.9402003,33.5151348 31.5102858,36 27.5,36 C22.2532949,36 18,31.7467051 18,26.5 C18,21.2532949 22.2532949,17 27.5,17 C31.5106659,17 34.9408505,19.4853363 36.3344519,22.999907 L59.0113636,23 C66.5299674,23 72.625,29.0950326 72.625,36.6136364 C72.625,44.0278151 66.6980981,49.8304189 59.3238025,49.9964853 L59.0113636,50 L32.0113636,50 C28.4842724,50 25.625,53.0865451 25.625,56.6136364 C25.625,60.0640517 28.3613075,62.8753682 31.7823053,62.9959687 L32.0113636,63 L60,63 L60,56 C60,55.8269038 60.0449138,55.6575431 60.1293483,55.5080974 L60.2,55.4 C60.5313708,54.9581722 61.1581722,54.8686292 61.6,55.2 L61.6,55.2 L74.9333333,65.2 C75.009139,65.2568542 75.0764791,65.3241943 75.1333333,65.4 C75.4647042,65.8418278 75.3751611,66.4686292 74.9333333,66.8 L74.9333333,66.8 L61.6,76.8 C61.4269038,76.9298221 61.2163702,77 61,77 C60.4477153,77 60,76.5522847 60,76 L60,76 L60,70 L32.0113636,70 C24.6182791,70 18.625,64.0067209 18.625,56.6136364 C18.625,49.3246798 24.4506433,43.1691024 31.6998257,43.0035539 L32.0113636,43 L59.0113636,43 C62.6639741,43 65.625,40.2662469 65.625,36.6136364 C65.625,33.038741 62.7886348,30.1263142 59.2435479,30.0039995 L59.0113636,30 Z"/>
      <path fill="#000" fill-opacity=".202" d="M27.5,17 C31.5106659,17 34.9408505,19.4853363 36.3344519,22.999907 L59.0113636,23 C66.5299674,23 72.625,29.0950326 72.625,36.6136364 C72.625,44.0278151 66.6980981,49.8304189 59.3238025,49.9964853 L59.0113636,50 L32.0113636,50 C28.4842724,50 25.625,53.0865451 25.625,56.6136364 C25.625,60.0640517 28.3613075,62.8753682 31.7823053,62.9959687 L32.0113636,63 L60,63 L60,56 C60,55.8269038 60.0449138,55.6575431 60.1293483,55.5080974 L60.2,55.4 C60.5058808,54.992159 61.0634893,54.8844895 61.4949748,55.1309704 L61.6,55.2 L74.9333333,65.2 C75.009139,65.2568542 75.0764791,65.3241943 75.1333333,65.4 C75.4392141,65.807841 75.3864464,66.3732927 75.0290088,66.7185041 L74.9333333,66.8 L61.6,76.8 C61.4269038,76.9298221 61.2163702,77 61,77 C60.4871642,77 60.0644928,76.6139598 60.0067277,76.1166211 L60,76 L60,70 L32.0113636,70 C24.6182791,70 18.625,64.0067209 18.625,56.6136364 C18.625,49.3246798 24.4506433,43.1691024 31.6998257,43.0035539 L32.0113636,43 L59.0113636,43 C62.6639741,43 65.625,40.2662469 65.625,36.6136364 C65.625,33.038741 62.7886348,30.1263142 59.2435479,30.0039995 L59.0113636,30 L36.3340556,30.0010922 C34.9402003,33.5151348 31.5102858,36 27.5,36 C22.2532949,36 18,31.7467051 18,26.5 C18,21.2532949 22.2532949,17 27.5,17 Z M60.999,56 L61,64 L31.993767,63.9998452 L31.7470741,63.9953479 C27.7796285,63.8554835 24.625,60.59443 24.625,56.6136364 C24.625,52.5819921 27.8326964,49.1375431 31.7740234,49.0040167 L32.0113636,49 L59.0001151,49.0000633 L59.3012885,48.9967388 C66.1946101,48.8415038 71.625,43.4231581 71.625,36.6136364 C71.625,29.7497632 66.1425589,24.1663828 59.3178278,24.0036502 L59.0113595,24 L35.6552261,23.9999043 L35.4048642,23.3685081 C34.1305036,20.1546548 31.0161488,18 27.5,18 C22.8055796,18 19,21.8055796 19,26.5 C19,31.1944204 22.8055796,35 27.5,35 C30.92078,35 33.9612873,32.9606425 35.2971614,29.8905873 L35.4045099,29.6323851 L35.6549012,29.0011249 L59.0285864,29.0001483 L59.27803,29.0045941 C63.3700052,29.1457779 66.625,32.5082082 66.625,36.6136364 C66.625,40.7045343 63.3821938,43.8736059 59.2597471,43.9963104 L59.0113636,44 L32.0227704,43.9999349 L31.7226566,44.0032932 C25.0525646,44.1556172 19.625,49.8316349 19.625,56.6136364 C19.625,63.3523346 25.00626,68.8341722 31.7059389,68.996308 L32.0113636,69 L61,69 L60.9983401,75.942407 L61,75.999 L74.3333333,66 L61.0507495,56.0356578 L60.999,56 Z"/>
    </g>
  </g>
</svg>
