<svg xmlns="http://www.w3.org/2000/svg" width="256" height="256" viewBox="0 0 256 256">
  <defs>
    <filter id="deepin-clone-a" width="123.7%" height="122.9%" x="-12.3%" y="-11.4%" filterUnits="objectBoundingBox">
      <feOffset dy="4" in="SourceAlpha" result="shadowOffsetOuter1"/>
      <feGaussianBlur in="shadowOffsetOuter1" result="shadowBlurOuter1" stdDeviation="5"/>
      <feComposite in="shadowBlurOuter1" in2="SourceAlpha" operator="out" result="shadowBlurOuter1"/>
      <feColorMatrix in="shadowBlurOuter1" result="shadowMatrixOuter1" values="0 0 0 0 0   0 0 0 0 0   0 0 0 0 0  0 0 0 0.2 0"/>
      <feMerge>
        <feMergeNode in="shadowMatrixOuter1"/>
        <feMergeNode in="SourceGraphic"/>
      </feMerge>
    </filter>
    <radialGradient id="deepin-clone-b" cx="47.157%" cy="18.859%" r="79.474%" fx="47.157%" fy="18.859%">
      <stop offset="0%" stop-color="#00812B"/>
      <stop offset="100%" stop-color="#006174"/>
    </radialGradient>
    <linearGradient id="deepin-clone-c" x1="50%" x2="50%" y1="1.859%" y2="100%">
      <stop offset="0%" stop-color="#FFF"/>
      <stop offset="100%" stop-color="#21CCDF"/>
    </linearGradient>
  </defs>
  <g fill="none" fill-rule="evenodd" filter="url(#deepin-clone-a)" transform="translate(10 10)">
    <circle cx="118" cy="118" r="118" fill="url(#deepin-clone-b)"/>
    <path fill="url(#deepin-clone-c)" fill-rule="nonzero" d="M103.755365,0.0141339858 L105.5,0 C163.766041,0 211,47.2339589 211,105.5 C211,163.766041 163.766041,211 105.5,211 C74.6209926,211 45.8904055,197.650339 25.9812057,174.834784 C23.8024877,172.338016 24.0603184,168.547786 26.5570867,166.369068 C29.053855,164.19035 32.8440855,164.44818 35.0228035,166.944949 C52.6766056,187.175861 78.1240267,199 105.5,199 C157.138624,199 199,157.138624 199,105.5 C199,53.8613759 157.138624,12 105.5,12 C53.8613759,12 12,53.8613759 12,105.5 C12,105.833759 12.0017463,106.167293 12.0052363,106.500592 L33.5,106.5 L10,154 L-13.5,106.5 L0.005,106.5 L0,105.5 C0,47.8166193 46.2940031,0.945782386 103.755365,0.0141339858 L105.5,0 Z M126.03929,72.5 C163.746164,105.373471 141.459723,141.89491 141.459723,141.89491 C135.321657,153.976862 125.350319,163.482643 114.366313,170.439774 C111.560886,170.809317 108.699122,171 105.792839,171 C84.6601717,171 65.8813029,160.918027 54,145.299724 C74.0086998,148.634378 101.200167,149.503078 120.492556,135.877045 C138.330055,123.276137 136.031756,103.096701 136.031756,103.096701 C135.736444,87.7469706 126.03929,72.5 126.03929,72.5 Z M90.2433056,42 C82.2406674,56.8469887 78.1721921,76.3424064 78.561743,89.0444435 C78.561743,89.0444435 77.8254368,111.364013 93.4389861,119.280661 C93.4389861,119.280661 107.470603,125.309344 117.032937,105.81532 C117.032937,105.81532 123.605032,94.8139323 120.929894,69.9504117 C120.929894,69.9504117 123.489281,70.3920032 123.778659,70.7887955 C124.068037,71.1823879 129.431175,89.9308264 125.662831,105.719322 C125.662831,105.719322 122.193511,124.272564 105.136287,128.515682 C88.0854936,132.758801 74.7966141,122.493399 65.7744519,112.823185 C60.3460394,107.005152 52.7923122,93.2644859 47.5,75.9669428 C55.9532906,59.1855774 71.509001,46.5615746 90.2433056,42 Z M125.887705,43 C135.664812,46.2895413 144.40876,51.8593933 151.5,59.0843035 C149.517846,59.1360063 147.442776,59.1381711 145.32869,59.0666479 C145.32869,59.0666479 126.632376,59.9666874 116.148581,65.3572119 C116.148581,65.3572119 108.330648,68.9508949 100.515922,75.0439682 C100.515922,75.0439682 98.8573781,75.898682 98.9375785,79.0391077 C99.0081549,82.1698207 97.3464029,90.5162304 91.8093682,95.4081719 C91.8093682,95.4081719 87.8570932,97.5028682 89.8332307,100.500842 C89.8332307,100.500842 92.5022996,104.495981 96.2620937,100.300113 C96.2620937,100.300113 105.956716,90.0176474 106.550199,73.447855 C106.550199,73.447855 109.617062,70.7477364 114.461165,69.9512985 C114.461165,69.9512985 115.352993,94.8092247 103.387096,107.289989 C103.387096,107.289989 92.2315597,119.814313 88.4599321,101.659374 L88.3479196,101.099789 C88.3479196,101.099789 83.8951942,83.0277721 106.848545,61.5660382 L106.863033,61.5511325 C107.295868,61.1060058 117.343932,50.7834884 125.887705,43 Z" transform="translate(12.5 12.5)"/>
  </g>
</svg>
