<svg xmlns="http://www.w3.org/2000/svg" xmlns:xlink="http://www.w3.org/1999/xlink" width="96" height="96" viewBox="0 0 96 96">
  <defs>
    <filter id="media-flash-a" width="137.5%" height="130%" x="-18.8%" y="-15%" filterUnits="objectBoundingBox">
      <feOffset dy="2" in="SourceAlpha" result="shadowOffsetOuter1"/>
      <feGaussianBlur in="shadowOffsetOuter1" result="shadowBlurOuter1" stdDeviation="2"/>
      <feComposite in="shadowBlurOuter1" in2="SourceAlpha" operator="out" result="shadowBlurOuter1"/>
      <feColorMatrix in="shadowBlurOuter1" result="shadowMatrixOuter1" values="0 0 0 0 0   0 0 0 0 0   0 0 0 0 0  0 0 0 0.2 0"/>
      <feMerge>
        <feMergeNode in="shadowMatrixOuter1"/>
        <feMergeNode in="SourceGraphic"/>
      </feMerge>
    </filter>
    <linearGradient id="media-flash-b" x1="50%" x2="50%" y1="0%" y2="98.789%">
      <stop offset="0%" stop-color="#555"/>
      <stop offset="100%" stop-color="#272727"/>
    </linearGradient>
    <path id="media-flash-c" d="M0,48 L0,12 L0,9.00284797 C0,4.03071233 4.03046692,0 9.00026349,0 L42.6566555,0 C45.6077032,0 49.6820395,1.6820395 51.771516,3.771516 L64,16 L64,22 L64,22 C61.790861,23.1045695 60,26.0236492 60,28.5026852 L60,29.4973148 C60,31.9840792 61.8010741,34.900537 64,36 L64,36 L64,71.003063 C64,75.9719341 59.9722687,80 54.9999189,80 L9.00008114,80 C4.02947358,80 0,75.9795796 0,71.0010581 L0,48 Z"/>
    <filter id="media-flash-d" width="101.6%" height="101.2%" x="-.8%" y="-.6%" filterUnits="objectBoundingBox">
      <feOffset dy="1" in="SourceAlpha" result="shadowOffsetInner1"/>
      <feComposite in="shadowOffsetInner1" in2="SourceAlpha" k2="-1" k3="1" operator="arithmetic" result="shadowInnerInner1"/>
      <feColorMatrix in="shadowInnerInner1" values="0 0 0 0 1   0 0 0 0 1   0 0 0 0 1  0 0 0 0.13 0"/>
    </filter>
    <rect id="media-flash-e" width="6" height="16.5" x="6" y="5" rx="2"/>
    <filter id="media-flash-f" width="133.3%" height="112.1%" x="-16.7%" y="-6.1%" filterUnits="objectBoundingBox">
      <feOffset dy="2" in="SourceAlpha" result="shadowOffsetInner1"/>
      <feComposite in="shadowOffsetInner1" in2="SourceAlpha" k2="-1" k3="1" operator="arithmetic" result="shadowInnerInner1"/>
      <feColorMatrix in="shadowInnerInner1" values="0 0 0 0 0.819607843   0 0 0 0 0.623529412   0 0 0 0 0  0 0 0 1 0"/>
    </filter>
    <rect id="media-flash-g" width="6" height="16.5" x="16" y="5" rx="2"/>
    <filter id="media-flash-h" width="133.3%" height="112.1%" x="-16.7%" y="-6.1%" filterUnits="objectBoundingBox">
      <feOffset dy="2" in="SourceAlpha" result="shadowOffsetInner1"/>
      <feComposite in="shadowOffsetInner1" in2="SourceAlpha" k2="-1" k3="1" operator="arithmetic" result="shadowInnerInner1"/>
      <feColorMatrix in="shadowInnerInner1" values="0 0 0 0 0.819607843   0 0 0 0 0.623529412   0 0 0 0 0  0 0 0 1 0"/>
    </filter>
    <rect id="media-flash-i" width="6" height="16.5" x="26" y="5" rx="2"/>
    <filter id="media-flash-j" width="133.3%" height="112.1%" x="-16.7%" y="-6.1%" filterUnits="objectBoundingBox">
      <feOffset dy="2" in="SourceAlpha" result="shadowOffsetInner1"/>
      <feComposite in="shadowOffsetInner1" in2="SourceAlpha" k2="-1" k3="1" operator="arithmetic" result="shadowInnerInner1"/>
      <feColorMatrix in="shadowInnerInner1" values="0 0 0 0 0.819607843   0 0 0 0 0.623529412   0 0 0 0 0  0 0 0 1 0"/>
    </filter>
    <rect id="media-flash-k" width="6" height="16.5" x="36" y="5" rx="2"/>
    <filter id="media-flash-l" width="133.3%" height="112.1%" x="-16.7%" y="-6.1%" filterUnits="objectBoundingBox">
      <feOffset dy="2" in="SourceAlpha" result="shadowOffsetInner1"/>
      <feComposite in="shadowOffsetInner1" in2="SourceAlpha" k2="-1" k3="1" operator="arithmetic" result="shadowInnerInner1"/>
      <feColorMatrix in="shadowInnerInner1" values="0 0 0 0 0.819607843   0 0 0 0 0.623529412   0 0 0 0 0  0 0 0 1 0"/>
    </filter>
  </defs>
  <g fill="none" fill-rule="evenodd" filter="url(#media-flash-a)" transform="translate(16 8)">
    <use fill="url(#media-flash-b)" xlink:href="#media-flash-c"/>
    <use fill="#000" filter="url(#media-flash-d)" xlink:href="#media-flash-c"/>
    <use fill="#C88200" xlink:href="#media-flash-e"/>
    <use fill="#000" filter="url(#media-flash-f)" xlink:href="#media-flash-e"/>
    <use fill="#C88200" xlink:href="#media-flash-g"/>
    <use fill="#000" filter="url(#media-flash-h)" xlink:href="#media-flash-g"/>
    <use fill="#C88200" xlink:href="#media-flash-i"/>
    <use fill="#000" filter="url(#media-flash-j)" xlink:href="#media-flash-i"/>
    <use fill="#C88200" xlink:href="#media-flash-k"/>
    <use fill="#000" filter="url(#media-flash-l)" xlink:href="#media-flash-k"/>
    <rect width="46" height="42" x="6" y="32" fill="#CCC"/>
    <path fill="#534FCB" d="M6 35C6 32.2385763 8.23422117 30 10.9993932 30L47.0006068 30C49.7616954 30 52 32.2441952 52 35L52 40 6 40 6 35zM17.3242188 69.7304688L17.3242188 64.2929688 18.7304688 64.2929688C19.1210957 65.9179769 19.7070273 67.0781215 20.4882812 67.7734375 21.2695352 68.4687535 22.1132767 68.8164062 23.0195312 68.8164062 23.6914096 68.8164062 24.2265605 68.6171895 24.625 68.21875 25.0234395 67.8203105 25.2226562 67.3515652 25.2226562 66.8125 25.2226562 66.4296856 25.0976575 66.0468769 24.8476562 65.6640625 24.597655 65.2812481 24.0039109 64.8554711 23.0664062 64.3867188 21.2617097 63.4882768 20.0429719 62.8300802 19.4101562 62.4121094 18.7773406 61.9941385 18.2695332 61.4570345 17.8867188 60.8007812 17.5039043 60.144528 17.3125 59.3906293 17.3125 58.5390625 17.3125 57.1718682 17.8027295 56.0449263 18.7832031 55.1582031 19.7636768 54.2714799 20.8984311 53.828125 22.1875 53.828125 23.5390693 53.828125 24.6874953 54.2812455 25.6328125 55.1875 25.7890633 54.9531238 25.9179682 54.5937524 26.0195312 54.109375L27.3671875 54.109375 27.3671875 58.796875 26.0546875 58.796875C25.8203113 57.7578073 25.3750033 56.9023471 24.71875 56.2304688 24.0624967 55.5585904 23.3242229 55.2226562 22.5039062 55.2226562 21.8867157 55.2226562 21.3964862 55.3945295 21.0332031 55.7382812 20.6699201 56.082033 20.4882812 56.5117162 20.4882812 57.0273438 20.4882812 57.4257832 20.6054676 57.7949202 20.8398438 58.1347656 21.0742199 58.4746111 21.390623 58.7558583 21.7890625 58.9785156 22.187502 59.201173 23.0312436 59.6132782 24.3203125 60.2148438 25.4765683 60.7617215 26.3320285 61.2499979 26.8867188 61.6796875 27.441409 62.1093771 27.8808578 62.6503874 28.2050781 63.3027344 28.5292985 63.9550814 28.6914062 64.6601525 28.6914062 65.4179688 28.6914062 66.8242258 28.1718802 67.994136 27.1328125 68.9277344 26.0937448 69.8613328 24.8554759 70.328125 23.4179688 70.328125 22.5976521 70.328125 21.7949258 70.1562517 21.0097656 69.8125 20.2246054 69.4687483 19.5976586 69.0117216 19.1289062 68.4414062 18.9492179 68.7929705 18.8164067 69.2226537 18.7304688 69.7304688L17.3242188 69.7304688zM30.203125 70L30.203125 68.6992188C31.0390667 68.6992188 31.5937486 68.5683607 31.8671875 68.3066406 32.1406264 68.0449206 32.2773438 67.5273476 32.2773438 66.7539062L32.2773438 57.34375C32.2773438 56.5937462 32.1484388 56.0820326 31.890625 55.8085938 31.6328112 55.5351549 31.0703168 55.3984375 30.203125 55.3984375L30.203125 54.109375 32.1132812 54.0390625C34.0351659 53.9609371 35.5429633 53.921875 36.6367188 53.921875 38.4648529 53.921875 39.9511662 54.0273427 41.0957031 54.2382812 42.2402401 54.4492198 43.3222605 54.9121058 44.3417969 55.6269531 45.3613332 56.3418004 46.1464816 57.2675724 46.6972656 58.4042969 47.2480496 59.5410213 47.5234375 60.7929619 47.5234375 62.1601562 47.5234375 63.5586007 47.2324248 64.8085882 46.6503906 65.9101562 46.0683565 67.0117243 45.2851612 67.8906217 44.3007812 68.546875 43.3164013 69.2031283 42.2968803 69.6093742 41.2421875 69.765625 40.1874947 69.9218758 38.414075 70 35.921875 70L30.203125 70zM36.4375 55.3515625L36.4375 66.296875C36.4375 67.0000035 36.4707028 67.472655 36.5371094 67.7148438 36.603516 67.9570325 36.7792954 68.1640616 37.0644531 68.3359375 37.3496108 68.5078134 37.7890595 68.59375 38.3828125 68.59375 39.8515698 68.59375 40.9511682 68.0546929 41.6816406 66.9765625 42.412113 65.8984321 42.7773438 64.285167 42.7773438 62.1367188 42.7773438 60.4023351 42.5078152 59.0214895 41.96875 57.9941406 41.4296848 56.9667917 40.730473 56.2695331 39.8710938 55.9023438 39.0117145 55.5351544 37.8671946 55.3515625 36.4375 55.3515625L36.4375 55.3515625z"/>
  </g>
</svg>
