<svg xmlns="http://www.w3.org/2000/svg" xmlns:xlink="http://www.w3.org/1999/xlink" width="24" height="24" viewBox="0 0 24 24">
  <defs>
    <linearGradient id="application-x-xz-c" x1="50%" x2="50%" y1="0%" y2="97.687%">
      <stop offset="0%" stop-color="#666E7B"/>
      <stop offset="100%" stop-color="#475055"/>
    </linearGradient>
    <path id="application-x-xz-b" d="M10.5,0 L16,5.5 L16,17.75 C16,18.9926407 14.9926407,20 13.75,20 L2.25,20 C1.00735931,20 1.52179594e-16,18.9926407 0,17.75 L0,2.25 C-1.52179594e-16,1.00735931 1.00735931,2.28269391e-16 2.25,0 L10.5,0 Z"/>
    <filter id="application-x-xz-a" width="143.8%" height="135%" x="-21.9%" y="-12.5%" filterUnits="objectBoundingBox">
      <feOffset dy="1" in="SourceAlpha" result="shadowOffsetOuter1"/>
      <feGaussianBlur in="shadowOffsetOuter1" result="shadowBlurOuter1" stdDeviation="1"/>
      <feColorMatrix in="shadowBlurOuter1" values="0 0 0 0 0.361595344   0 0 0 0 0.418797512   0 0 0 0 0.450973732  0 0 0 0.5 0"/>
    </filter>
    <linearGradient id="application-x-xz-f" x1="50%" x2="14.088%" y1="50%" y2="88.513%">
      <stop offset="0%" stop-color="#FFF" stop-opacity=".1"/>
      <stop offset="100%" stop-color="#FFF" stop-opacity=".3"/>
    </linearGradient>
    <path id="application-x-xz-e" d="M10.5,0 L16,5.64102564 L12.75,5.64102564 C11.5073593,5.64102564 10.5,4.63366633 10.5,3.39102564 L10.5,0 Z"/>
    <filter id="application-x-xz-d" width="172.7%" height="170.9%" x="-36.4%" y="-17.7%" filterUnits="objectBoundingBox">
      <feOffset dy="1" in="SourceAlpha" result="shadowOffsetOuter1"/>
      <feGaussianBlur in="shadowOffsetOuter1" result="shadowBlurOuter1" stdDeviation=".5"/>
      <feComposite in="shadowBlurOuter1" in2="SourceAlpha" operator="out" result="shadowBlurOuter1"/>
      <feColorMatrix in="shadowBlurOuter1" values="0 0 0 0 0   0 0 0 0 0   0 0 0 0 0  0 0 0 0.05 0"/>
    </filter>
  </defs>
  <g fill="none" fill-rule="evenodd">
    <g transform="translate(4 2)">
      <use fill="#000" filter="url(#application-x-xz-a)" xlink:href="#application-x-xz-b"/>
      <use fill="url(#application-x-xz-c)" xlink:href="#application-x-xz-b"/>
      <use fill="#000" filter="url(#application-x-xz-d)" xlink:href="#application-x-xz-e"/>
      <use fill="url(#application-x-xz-f)" xlink:href="#application-x-xz-e"/>
    </g>
    <g transform="translate(4 9)">
      <path fill="#FFF8F8" fill-opacity=".5" d="M4,1 L4,4 L0,4 L0,1 L4,1 Z M12,1 L16,1 L16,4 L12,4 L12,1 Z"/>
      <path fill="#F4F4F4" d="M5.375,0 L10.625,0 C10.8321068,-3.80448985e-17 11,0.167893219 11,0.375 L11,4.625 C11,4.83210678 10.8321068,5 10.625,5 L5.375,5 C5.16789322,5 5,4.83210678 5,4.625 L5,0.375 C5,0.167893219 5.16789322,3.80448985e-17 5.375,0 Z M6,1 L6,4 L10,4 L10,1 L6,1 Z M6,2 L9,2 L9,3 L6,3 L6,2 Z"/>
    </g>
    <g fill="#FFF" transform="translate(8 16)">
      <polygon fill-rule="nonzero" points="-.699 5 .876 2.515 -.689 .068 .524 .068 1.553 1.794 1.615 1.794 2.654 .068 3.809 .068 2.186 2.532 3.785 5 2.609 5 1.55 3.329 1.488 3.329 .415 5"/>
      <polygon points="5 0 5 1 7.667 1 5 4 5 5 9 5 9 4 6.333 4 9 1 9 0"/>
    </g>
  </g>
</svg>
