<svg xmlns="http://www.w3.org/2000/svg" xmlns:xlink="http://www.w3.org/1999/xlink" width="24" height="24" viewBox="0 0 24 24">
  <defs>
    <linearGradient id="application-x-subrip-c" x1="50%" x2="50%" y1="0%" y2="100%">
      <stop offset="0%" stop-color="#5895FF"/>
      <stop offset="100%" stop-color="#387CF4"/>
    </linearGradient>
    <path id="application-x-subrip-b" d="M10.5,0 L16,5.5 L16,17.75 C16,18.9926407 14.9926407,20 13.75,20 L2.25,20 C1.00735931,20 1.52179594e-16,18.9926407 0,17.75 L0,2.25 C-1.52179594e-16,1.00735931 1.00735931,2.28269391e-16 2.25,0 L10.5,0 Z"/>
    <filter id="application-x-subrip-a" width="143.8%" height="135%" x="-21.9%" y="-12.5%" filterUnits="objectBoundingBox">
      <feOffset dy="1" in="SourceAlpha" result="shadowOffsetOuter1"/>
      <feGaussianBlur in="shadowOffsetOuter1" result="shadowBlurOuter1" stdDeviation="1"/>
      <feColorMatrix in="shadowBlurOuter1" values="0 0 0 0 0.22745098   0 0 0 0 0.494117647   0 0 0 0 0.960784314  0 0 0 0.5 0"/>
    </filter>
    <linearGradient id="application-x-subrip-f" x1="50%" x2="14.088%" y1="50%" y2="88.513%">
      <stop offset="0%" stop-color="#FFF" stop-opacity=".1"/>
      <stop offset="100%" stop-color="#FFF" stop-opacity=".3"/>
    </linearGradient>
    <path id="application-x-subrip-e" d="M10.5,0 L16,5.64102564 L12.75,5.64102564 C11.5073593,5.64102564 10.5,4.63366633 10.5,3.39102564 L10.5,0 Z"/>
    <filter id="application-x-subrip-d" width="172.7%" height="170.9%" x="-36.4%" y="-17.7%" filterUnits="objectBoundingBox">
      <feOffset dy="1" in="SourceAlpha" result="shadowOffsetOuter1"/>
      <feGaussianBlur in="shadowOffsetOuter1" result="shadowBlurOuter1" stdDeviation=".5"/>
      <feComposite in="shadowBlurOuter1" in2="SourceAlpha" operator="out" result="shadowBlurOuter1"/>
      <feColorMatrix in="shadowBlurOuter1" values="0 0 0 0 0   0 0 0 0 0   0 0 0 0 0  0 0 0 0.05 0"/>
    </filter>
  </defs>
  <g fill="none" fill-rule="evenodd">
    <g transform="translate(4 2)">
      <use fill="#000" filter="url(#application-x-subrip-a)" xlink:href="#application-x-subrip-b"/>
      <use fill="url(#application-x-subrip-c)" xlink:href="#application-x-subrip-b"/>
      <use fill="#000" filter="url(#application-x-subrip-d)" xlink:href="#application-x-subrip-e"/>
      <use fill="url(#application-x-subrip-f)" xlink:href="#application-x-subrip-e"/>
    </g>
    <path fill="#FFF" d="M7,17.6699405 C7,18.4045121 7.59559822,19 8.32792279,19 L15.6720772,19 C16.4054687,19 17,18.4049181 17,17.6699405 L17,8.33005953 C17,7.59548793 16.4044018,7 15.6720772,7 L8.32792279,7 C7.59453128,7 7,7.59508187 7,8.33005953 L7,17.6699405 Z M15.3316845,8 C15.7007849,8 16,8.29944611 16,8.67646277 L16,17 C16,17 16,16 15,16 L9,16 C8,16 8,17 8,17 L8,8.67646277 C8,8.3028627 8.30384064,8 8.66831553,8 L15.3316845,8 Z M10.0172861,11.0121991 C10.0172861,12.1201991 10.9092861,13.0121991 12.0172861,13.0121991 C13.1252861,13.0121991 14.0172861,12.1201991 14.0172861,11.0121991 C14.0172861,9.90419911 13.1252861,9.01219911 12.0172861,9.01219911 C10.9092861,9.01219911 10.0172861,9.90419911 10.0172861,11.0121991 Z M8.73788492,15.005424 L15.2717396,15.005424 C15.0958509,14.132702 14.5742263,13.395104 13.8628849,12.91558 C13.3830849,13.382234 12.7300903,13.6720906 12.0048123,13.6720906 C11.2795343,13.6720906 10.6265396,13.382234 10.1467396,12.91558 C9.43539825,13.395104 8.91377359,14.132702 8.73788492,15.005424 Z M14,17 L15,17 L15,18 L14,18 L14,17 Z"/>
  </g>
</svg>
