<svg xmlns="http://www.w3.org/2000/svg" width="16" height="16" viewBox="0 0 16 16">
  <g fill="none" fill-rule="evenodd">
    <polygon fill="#A75F00" points="2 15 2 1 14 1 14 15"/>
    <path fill="#FFF" fill-opacity=".6" d="M5,13 C5.5,13 6,12.6000004 6,12.25 L6,12.0010434 C6,12.0010434 5,12.0531315 5,11.9951185 L5,11 L7,11 L7,14 L6,14 L6,13.7337624 C5.70657678,13.9031232 5.36540536,14 5,14 C3.8954305,14 3,13.1061002 3,11.9951185 L3,11.0048815 C3,9.89761602 3.88772964,9 5,9 C5.79791956,9 6.48670333,9.46646704 6.80764515,10.1442661 L5.97385677,10.7696074 C5.87063119,10.325781 5.47379516,10 5,10 C4.44386482,10 4,10.4472481 4,10.9989566 L4,12.0010434 C4,12.5573397 4.44771525,13 5,13 Z M9,9 L9,14 L8,14 L8,9 L9,9 Z M10,9 L13,9 L13,10 L11,10 L11,11 L13,11 L13,12 L11,12 L11,14 L10,14 L10,9 Z"/>
  </g>
</svg>
