<svg xmlns="http://www.w3.org/2000/svg" width="16" height="16" viewBox="0 0 16 16">
  <g fill="none" fill-rule="evenodd">
    <polygon fill="#180045" points="2 15 2 1 14 1 14 15"/>
    <path fill="#FFF" fill-opacity=".6" d="M2,1 L2,5 L1,5 L1,1 L0,1 L0,0 L3,0 L3,1 L2,1 Z M4,6 L3,6 L3,1 L3.5,1 L6,1 L6,2 L4,2 L4,3 L6,3 L6,4 L4,4 L4,6 L3,6 L6,6 L6,5 L4,5 L4,6 Z M8,1.66666667 L9,0 L10,0 L8.5,2.5 L10,5 L9,5 L8,3.33333333 L7,5 L6,5 L7.5,2.5 L6,0 L7,0 L8,1.66666667 Z" transform="translate(3 6)"/>
  </g>
</svg>
