<?xml version="1.0" encoding="UTF-8"?>
<svg width="48px" height="48px" viewBox="0 0 48 48" version="1.1" xmlns="http://www.w3.org/2000/svg" xmlns:xlink="http://www.w3.org/1999/xlink">
    <title>devices/48/media-flash</title>
    <defs>
        <filter x="-10.3%" y="-6.0%" width="120.6%" height="116.7%" filterUnits="objectBoundingBox" id="filter-1">
            <feOffset dx="0" dy="1" in="SourceAlpha" result="shadowOffsetOuter1"></feOffset>
            <feGaussianBlur stdDeviation="1" in="shadowOffsetOuter1" result="shadowBlurOuter1"></feGaussianBlur>
            <feColorMatrix values="0 0 0 0 0   0 0 0 0 0   0 0 0 0 0  0 0 0 0.2 0" type="matrix" in="shadowBlurOuter1" result="shadowMatrixOuter1"></feColorMatrix>
            <feMerge>
                <feMergeNode in="shadowMatrixOuter1"></feMergeNode>
                <feMergeNode in="SourceGraphic"></feMergeNode>
            </feMerge>
        </filter>
        <linearGradient x1="50%" y1="0%" x2="50%" y2="98.7885346%" id="linearGradient-2">
            <stop stop-color="#898989" offset="0%"></stop>
            <stop stop-color="#5A5A5A" offset="100%"></stop>
        </linearGradient>
        <path d="M3.515625,0 L24.6384557,-3.55271368e-15 C25.1901614,-4.63408649e-15 25.7193404,0.218837347 26.1099028,0.608504068 L34,8.48050701 L34,8.48050701 L34,11.5643277 L32.6845478,12.5784823 C32.2528661,12.9112896 32,13.425528 32,13.9706058 L32,16.8676012 C32,17.4126789 32.2528661,17.9269174 32.6845478,18.2597246 L34,19.2738793 L34,19.2738793 L34,38.484375 C34,40.4260011 32.4260011,42 30.484375,42 L3.515625,42 C1.57399892,42 2.37780615e-16,40.4260011 0,38.484375 L8.8817842e-16,3.515625 C6.50397804e-16,1.57399892 1.57399892,-9.75596707e-16 3.515625,-1.33226763e-15 Z" id="path-3"></path>
        <filter x="-1.5%" y="-1.2%" width="102.9%" height="102.4%" filterUnits="objectBoundingBox" id="filter-4">
            <feOffset dx="0" dy="1" in="SourceAlpha" result="shadowOffsetInner1"></feOffset>
            <feComposite in="shadowOffsetInner1" in2="SourceAlpha" operator="arithmetic" k2="-1" k3="1" result="shadowInnerInner1"></feComposite>
            <feColorMatrix values="0 0 0 0 1   0 0 0 0 1   0 0 0 0 1  0 0 0 0.2 0" type="matrix" in="shadowInnerInner1"></feColorMatrix>
        </filter>
        <rect id="path-5" x="4" y="3" width="3" height="8" rx="0.78125"></rect>
        <filter x="-16.7%" y="-6.2%" width="133.3%" height="112.5%" filterUnits="objectBoundingBox" id="filter-6">
            <feOffset dx="0" dy="1" in="SourceAlpha" result="shadowOffsetInner1"></feOffset>
            <feComposite in="shadowOffsetInner1" in2="SourceAlpha" operator="arithmetic" k2="-1" k3="1" result="shadowInnerInner1"></feComposite>
            <feColorMatrix values="0 0 0 0 1   0 0 0 0 0.8216105   0 0 0 0 0.32578125  0 0 0 1 0" type="matrix" in="shadowInnerInner1"></feColorMatrix>
        </filter>
        <rect id="path-7" x="9" y="3" width="3" height="8" rx="0.78125"></rect>
        <filter x="-16.7%" y="-6.2%" width="133.3%" height="112.5%" filterUnits="objectBoundingBox" id="filter-8">
            <feOffset dx="0" dy="1" in="SourceAlpha" result="shadowOffsetInner1"></feOffset>
            <feComposite in="shadowOffsetInner1" in2="SourceAlpha" operator="arithmetic" k2="-1" k3="1" result="shadowInnerInner1"></feComposite>
            <feColorMatrix values="0 0 0 0 1   0 0 0 0 0.8216105   0 0 0 0 0.32578125  0 0 0 1 0" type="matrix" in="shadowInnerInner1"></feColorMatrix>
        </filter>
        <rect id="path-9" x="14" y="3" width="3" height="8" rx="0.78125"></rect>
        <filter x="-16.7%" y="-6.2%" width="133.3%" height="112.5%" filterUnits="objectBoundingBox" id="filter-10">
            <feOffset dx="0" dy="1" in="SourceAlpha" result="shadowOffsetInner1"></feOffset>
            <feComposite in="shadowOffsetInner1" in2="SourceAlpha" operator="arithmetic" k2="-1" k3="1" result="shadowInnerInner1"></feComposite>
            <feColorMatrix values="0 0 0 0 1   0 0 0 0 0.8216105   0 0 0 0 0.32578125  0 0 0 1 0" type="matrix" in="shadowInnerInner1"></feColorMatrix>
        </filter>
        <rect id="path-11" x="19" y="3" width="3" height="8" rx="0.78125"></rect>
        <filter x="-16.7%" y="-6.2%" width="133.3%" height="112.5%" filterUnits="objectBoundingBox" id="filter-12">
            <feOffset dx="0" dy="1" in="SourceAlpha" result="shadowOffsetInner1"></feOffset>
            <feComposite in="shadowOffsetInner1" in2="SourceAlpha" operator="arithmetic" k2="-1" k3="1" result="shadowInnerInner1"></feComposite>
            <feColorMatrix values="0 0 0 0 1   0 0 0 0 0.8216105   0 0 0 0 0.32578125  0 0 0 1 0" type="matrix" in="shadowInnerInner1"></feColorMatrix>
        </filter>
    </defs>
    <g id="devices/48/media-flash" stroke="none" stroke-width="1" fill="none" fill-rule="evenodd">
        <g id="编组" filter="url(#filter-1)" transform="translate(7, 3)">
            <g id="Rectangle-91">
                <use fill="url(#linearGradient-2)" fill-rule="evenodd" xlink:href="#path-3"></use>
                <use fill="black" fill-opacity="1" filter="url(#filter-4)" xlink:href="#path-3"></use>
            </g>
            <g id="Rectangle-95">
                <use fill="#F5B600" fill-rule="evenodd" xlink:href="#path-5"></use>
                <use fill="black" fill-opacity="1" filter="url(#filter-6)" xlink:href="#path-5"></use>
            </g>
            <g id="Rectangle-95">
                <use fill="#F5B600" fill-rule="evenodd" xlink:href="#path-7"></use>
                <use fill="black" fill-opacity="1" filter="url(#filter-8)" xlink:href="#path-7"></use>
            </g>
            <g id="Rectangle-95">
                <use fill="#F5B600" fill-rule="evenodd" xlink:href="#path-9"></use>
                <use fill="black" fill-opacity="1" filter="url(#filter-10)" xlink:href="#path-9"></use>
            </g>
            <g id="Rectangle-95">
                <use fill="#F5B600" fill-rule="evenodd" xlink:href="#path-11"></use>
                <use fill="black" fill-opacity="1" filter="url(#filter-12)" xlink:href="#path-11"></use>
            </g>
            <path d="M4,20 L28,20 L28,35.0468749 C28,36.1255561 27.1255561,37 26.0468749,37 L5.95312512,37 C4.8744439,37 4,36.1255561 4,35.0468749 L4,20 L4,20 Z" id="Rectangle-96" fill="#FFFFFF"></path>
            <path d="M5.95312512,15 L26.0468749,15 C27.1255561,15 28,15.8744439 28,16.9531251 L28,20 L28,20 L4,20 L4,16.9531251 C4,15.8744439 4.8744439,15 5.95312512,15 Z" id="Rectangle-96" fill="#8784F4"></path>
        </g>
        <path d="M17,38.4375 L17,35.8125 L17.7324219,35.8125 C17.9358734,36.6588584 18.2410461,37.3072899 18.6479492,37.6694336 C19.0548523,38.0315773 19.494301,38.2126465 19.9663086,38.2126465 C20.3162452,38.2126465 20.5949697,38.1088878 20.8024902,37.9013672 C21.0100108,37.6938466 21.1137695,37.4497084 21.1137695,37.1689453 C21.1137695,36.9695628 21.048666,36.7701833 20.918457,36.5708008 C20.788248,36.3714183 20.4790063,36.1496594 19.9907227,35.9055176 C19.0507765,35.437579 18.6753181,35.4282502 17.9399414,34.922298 C17.2045647,34.4163458 16.9938952,33.8971376 16.9938952,33.4536133 C16.9938952,32.7415329 17.2492243,32.154584 17.7598877,31.692749 C18.2705511,31.230914 18.8615689,31 19.532959,31 C20.2369013,31 20.5911434,31.2360002 21.0834961,31.7080078 C21.1648767,31.5859369 21.2320147,31.2522799 21.2849121,31 L22,31 L22,33.59375 L21.3032227,33.59375 C21.1811517,33.0525689 20.9492205,32.6011573 20.6074219,32.2512207 C20.2656233,31.9012841 20.0507592,31.770752 19.623511,31.770752 C19.3020576,31.770752 19.1087656,31.8785798 18.9195557,32.0576172 C18.7303457,32.2366545 18.6479492,32.3977037 18.6479492,32.6662598 C18.6479492,32.8737803 18.7089838,33.0660392 18.8310547,33.243042 C18.9531256,33.4200448 19.1179189,33.5665277 19.3254395,33.6824951 C19.53296,33.7984625 19.9724087,34.0131006 20.6437988,34.326416 C21.2460154,34.6112482 22.1807139,34.8912192 22.6410183,36 C23.1013227,37.1087808 22.6498237,37.7843807 22.1086426,38.2706299 C21.5674615,38.7568791 20.9225298,39 20.1738281,39 C19.7465799,39 19.3284933,38.9104827 18.9195557,38.7314453 C18.5106181,38.552408 18.1840833,38.3143732 17.9399414,38.017334 C17.8463537,38.2004404 17.7771812,38.173013 17.7324219,38.4375 L17,38.4375 Z M24,39 L24,38.3225098 C24.4353863,38.3225098 24.6439609,38.2543545 24.786377,38.118042 C24.928793,37.9817295 25,37.7121602 25,37.3093262 L25,32.8144531 C25,32.4238262 24.932862,32.1573087 24.798584,32.0148926 C24.664306,31.8724765 24.4516624,31.8012695 24,31.8012695 L24,31.1298828 L24.9145508,31.0932617 C25.9155323,31.0525714 26.4508435,31.0322266 27.0205078,31.0322266 C27.972661,31.0322266 29.0561087,31.0871577 29.6522217,31.1970215 C30.2483347,31.3068853 30.811887,31.5479718 31.3428955,31.9202881 C31.873904,32.2926044 32.2828355,32.7747773 32.5697021,33.3668213 C32.8565688,33.9588653 33,34.6109177 33,35.322998 C33,36.0513545 32.8484309,36.2961397 32.5452881,36.869873 C32.2421453,37.4436064 31.8342311,37.9013655 31.3215332,38.2431641 C30.8088353,38.5849626 30.2778348,38.7965491 29.7285156,38.8779297 C29.1791965,38.9593103 28.2555403,39 26.9575195,39 L24,39 Z M27,37.0651855 C27,37.4313983 27.0172931,37.677571 27.0518799,37.8037109 C27.0864666,37.9298509 27.1780185,38.0376786 27.3265381,38.1271973 C27.4750577,38.2167159 27.7039373,38.2614746 28.0131836,38.2614746 C28.7781614,38.2614746 29.6410707,37.9807157 30.0215251,37.4191895 C30.4019794,36.8576632 30.5922038,36.423671 30.5922038,35.3046875 C30.5922038,34.4013627 30.4518243,33.6821723 30.1710612,33.1470947 C29.8902981,32.6120172 29.5261253,32.2488616 29.0785319,32.0576172 C28.6309385,31.8663727 27.7446326,31.770752 27,31.770752 L27,37.0651855 Z" id="SD" fill="#8784F4"></path>
        <g id="Guide/48" transform="translate(1.5, 1.5)"></g>
    </g>
</svg>