<?xml version="1.0" encoding="UTF-8"?>
<svg width="48px" height="48px" viewBox="0 0 48 48" version="1.1" xmlns="http://www.w3.org/2000/svg" xmlns:xlink="http://www.w3.org/1999/xlink">
    <title>devices/48/media-optical</title>
    <defs>
        <filter x="-8.0%" y="-5.7%" width="115.9%" height="115.9%" filterUnits="objectBoundingBox" id="filter-1">
            <feOffset dx="0" dy="1" in="SourceAlpha" result="shadowOffsetOuter1"></feOffset>
            <feGaussianBlur stdDeviation="1" in="shadowOffsetOuter1" result="shadowBlurOuter1"></feGaussianBlur>
            <feColorMatrix values="0 0 0 0 0   0 0 0 0 0   0 0 0 0 0  0 0 0 0.2 0" type="matrix" in="shadowBlurOuter1" result="shadowMatrixOuter1"></feColorMatrix>
            <feMerge>
                <feMergeNode in="shadowMatrixOuter1"></feMergeNode>
                <feMergeNode in="SourceGraphic"></feMergeNode>
            </feMerge>
        </filter>
        <linearGradient x1="28.8395889%" y1="5.6059543%" x2="73.7075197%" y2="93.9492692%" id="linearGradient-2">
            <stop stop-color="#5CD4FB" offset="0%"></stop>
            <stop stop-color="#FFADF1" offset="47.7870472%"></stop>
            <stop stop-color="#7DF8FF" offset="100%"></stop>
        </linearGradient>
    </defs>
    <g id="devices/48/media-optical" stroke="none" stroke-width="1" fill="none" fill-rule="evenodd">
        <g id="Group" filter="url(#filter-1)" transform="translate(2, 2)">
            <g id="Group-4" transform="translate(14.6667, 14.6667)"></g>
            <path d="M22,0 C34.1502645,0 44,9.8497355 44,22 C44,34.1502645 34.1502645,44 22,44 C9.8497355,44 0,34.1502645 0,22 C0,9.8497355 9.8497355,0 22,0 Z M22,14.6666667 C17.9499118,14.6666667 14.6666667,17.9499118 14.6666667,22 C14.6666667,26.0500882 17.9499118,29.3333333 22,29.3333333 C26.0500882,29.3333333 29.3333333,26.0500882 29.3333333,22 C29.3333333,17.9499118 26.0500882,14.6666667 22,14.6666667 Z" id="Combined-Shape" fill="url(#linearGradient-2)"></path>
            <path d="M42.952381,22 C42.952381,10.4283195 33.5716805,1.04761905 22,1.04761905 C10.4283195,1.04761905 1.04761905,10.4283195 1.04761905,22 C1.04761905,33.5716805 10.4283195,42.952381 22,42.952381 C33.5716805,42.952381 42.952381,33.5716805 42.952381,22 Z M22,32.4761905 C27.7858402,32.4761905 32.4761905,27.7858402 32.4761905,22 C32.4761905,16.2141598 27.7858402,11.5238095 22,11.5238095 C16.2141598,11.5238095 11.5238095,16.2141598 11.5238095,22 C11.5238095,27.7858402 16.2141598,32.4761905 22,32.4761905 L22,32.4761905 Z" id="Combined-Shape" fill="#FFFFFF" opacity="0.39738806"></path>
            <path d="M22,29.3333333 C26.0500882,29.3333333 29.3333333,26.0500882 29.3333333,22 C29.3333333,17.9499118 26.0500882,14.6666667 22,14.6666667 C17.9499118,14.6666667 14.6666667,17.9499118 14.6666667,22 C14.6666667,26.0500882 17.9499118,29.3333333 22,29.3333333 L22,29.3333333 Z M22,25.1428571 C23.7357521,25.1428571 25.1428571,23.7357521 25.1428571,22 C25.1428571,20.2642479 23.7357521,18.8571429 22,18.8571429 C20.2642479,18.8571429 18.8571429,20.2642479 18.8571429,22 C18.8571429,23.7357521 20.2642479,25.1428571 22,25.1428571 L22,25.1428571 Z" id="Combined-Shape" fill="#CBD4E5" opacity="0.8"></path>
            <path d="M22,32.4761905 C27.7858402,32.4761905 32.4761905,27.7858402 32.4761905,22 C32.4761905,16.2141598 27.7858402,11.5238095 22,11.5238095 C16.2141598,11.5238095 11.5238095,16.2141598 11.5238095,22 C11.5238095,27.7858402 16.2141598,32.4761905 22,32.4761905 L22,32.4761905 Z M22,28.2857143 C25.4715041,28.2857143 28.2857143,25.4715041 28.2857143,22 C28.2857143,18.5284959 25.4715041,15.7142857 22,15.7142857 C18.5284959,15.7142857 15.7142857,18.5284959 15.7142857,22 C15.7142857,25.4715041 18.5284959,28.2857143 22,28.2857143 L22,28.2857143 Z" id="Combined-Shape" fill="#B792AF" opacity="0.4"></path>
            <path d="M22,1.04761905 C19.8232335,1.04761905 17.720305,1.36375711 15.7346235,1.95262426 C15.7346235,1.95262424 20.9884724,18.8571429 20.9884724,18.9263365 C21.3191213,18.8807178 21.6568076,18.8571429 22,18.8571429 C22.3703094,18.8571429 22.734208,18.8845904 23.0897725,18.9375621 C23.0897724,18.8845908 28.3278971,1.95262424 28.3278971,1.97126687 C26.3238558,1.37043199 24.1996264,1.04761905 22,1.04761905 Z M22,42.9618924 C19.8232335,42.9618924 17.720305,42.6457544 15.7346235,42.0568872 C15.7346235,42.0568873 20.9779595,25.0749643 20.9779596,25.0817169 C21.3119626,25.1282913 21.6531695,25.1523686 22,25.1523686 C22.362911,25.1523686 22.7196648,25.1260069 23.0684511,25.0749643 C23.4403404,25.0208083 28.3278971,42.0568873 28.3278971,42.0382446 C26.3238558,42.6390795 24.1996264,42.9618924 22,42.9618924 Z" id="Combined-Shape" fill="#FFFFFF" opacity="0.25" transform="translate(22.0313, 22.0048) rotate(-30) translate(-22.0313, -22.0048)"></path>
        </g>
    </g>
</svg>