<?xml version="1.0" encoding="UTF-8" standalone="no"?>
<svg width="48px" height="48px" viewBox="0 0 48 48" version="1.1" xmlns="http://www.w3.org/2000/svg" xmlns:xlink="http://www.w3.org/1999/xlink">
    <!-- Generator: Sketch 39.1 (31720) - http://www.bohemiancoding.com/sketch -->
    <title>android-device-48px</title>
    <desc>Created with Sketch.</desc>
    <defs>
        <rect id="path-1" x="12" y="4" width="24" height="40" rx="2"></rect>
        <mask id="mask-2" maskContentUnits="userSpaceOnUse" maskUnits="objectBoundingBox" x="0" y="0" width="24" height="40" fill="white">
            <use xlink:href="#path-1"></use>
        </mask>
    </defs>
    <g id="Page-1" stroke="none" stroke-width="1" fill="none" fill-rule="evenodd">
        <g id="android-device-48px">
            <use id="Rectangle-19" stroke="#B2B2B2" mask="url(#mask-2)" fill="#FFFFFF" xlink:href="#path-1"></use>
            <g id="Group" transform="translate(25.000000, 7.000000) rotate(180.000000) translate(-25.000000, -7.000000) translate(19.500000, 6.000000)" fill="#8B8B8B">
                <path d="M3,1.75 C3.27614237,1.75 3.5,1.52614237 3.5,1.25 C3.5,0.973857625 3.27614237,0.75 3,0.75 C2.72385763,0.75 2.5,0.973857625 2.5,1.25 C2.5,1.52614237 2.72385763,1.75 3,1.75 Z" id="Oval-11"></path>
                <path d="M1,1.75 C1.27614237,1.75 1.5,1.52614237 1.5,1.25 C1.5,0.973857625 1.27614237,0.75 1,0.75 C0.723857625,0.75 0.5,0.973857625 0.5,1.25 C0.5,1.52614237 0.723857625,1.75 1,1.75 Z" id="Oval-11"></path>
                <rect id="Rectangle" x="5" y="1" width="6" height="0.5" rx="0.25"></rect>
            </g>
            <rect id="Rectangle-22" fill="#8B8B8B" x="21" y="40" width="6" height="2" rx="1"></rect>
            <rect id="Rectangle-21" fill="#1E1C1C" x="13" y="9" width="22" height="30"></rect>
            <polygon id="Rectangle-21" fill="#393737" points="13 9 35 9 13 39"></polygon>
        </g>
    </g>
</svg>