<?xml version="1.0" encoding="UTF-8" standalone="no"?>
<svg width="48px" height="48px" viewBox="0 0 48 48" version="1.1" xmlns="http://www.w3.org/2000/svg" xmlns:xlink="http://www.w3.org/1999/xlink">
    <!-- Generator: Sketch 39.1 (31720) - http://www.bohemiancoding.com/sketch -->
    <title>drive-harddisk-deepin-48px</title>
    <desc>Created with Sketch.</desc>
    <defs>
        <linearGradient x1="51.9699097%" y1="0%" x2="51.9699097%" y2="100%" id="linearGradient-1">
            <stop stop-color="#C2EF5E" offset="0%"></stop>
            <stop stop-color="#3EDA8A" offset="100%"></stop>
        </linearGradient>
    </defs>
    <g id="Page-1" stroke="none" stroke-width="1" fill="none" fill-rule="evenodd">
        <g id="drive-harddisk-deepin-48px">
            <circle id="Oval-7" fill="#FFFFFF" cx="37.25" cy="8.75" r="0.75"></circle>
            <circle id="Oval-7" fill="#FFFFFF" cx="10.75" cy="8.75" r="0.75"></circle>
            <circle id="Oval-7" fill="#FFFFFF" cx="10.75" cy="33.25" r="0.75"></circle>
            <circle id="Oval-7" fill="#FFFFFF" cx="37.25" cy="33.25" r="0.75"></circle>
            <g id="Group" transform="translate(8.000000, 4.000000)">
                <rect id="Rectangle-11" fill="url(#linearGradient-1)" x="0" y="0" width="32" height="37" rx="2"></rect>
                <circle id="Oval-7" fill="#FFFFFF" cx="29.25" cy="2.75" r="0.75"></circle>
                <rect id="Rectangle-11" fill="#1F9075" transform="translate(16.000000, 37.000000) rotate(180.000000) translate(-16.000000, -37.000000) " x="0" y="34" width="32" height="6" rx="2"></rect>
                <circle id="Oval-7" fill="#FFFFFF" cx="2.75" cy="2.75" r="0.75"></circle>
                <circle id="Oval-7" fill="#FFFFFF" cx="2.75" cy="31.25" r="0.75"></circle>
                <circle id="Oval-7" fill="#FFFFFF" cx="29.25" cy="31.25" r="0.75"></circle>
                <circle id="Oval-7" fill="#C0EE5E" cx="29.25" cy="36.25" r="0.75"></circle>
                <path d="M2,35.495389 C2,35.2217932 2.23193359,35 2.5,35 L2.5,35 C2.77614237,35 3,35.2272203 3,35.5066152 L3,36.1784668 L3,37.502258 C3,37.7771533 2.76806641,38 2.5,38 L2.5,38 C2.22385763,38 2,37.7842474 2,37.504611 L2,35.495389 Z" id="Rectangle" fill="#3FDA8A"></path>
                <rect id="Rectangle" fill="#3FDA8A" x="4" y="35" width="1" height="3" rx="0.5"></rect>
                <rect id="Rectangle" fill="#3FDA8A" x="6" y="35" width="1" height="3" rx="0.5"></rect>
            </g>
            <path d="M24,28 C23.5433846,28 23.0964615,27.9558462 22.6646154,27.8718462 C24.4803077,27.3635385 26.6373846,26.1078462 27.6626154,24.0918462 C27.6626154,24.0918462 29.7647692,20.6467692 26.2076923,17.5463077 C26.2076923,17.5463077 27.122,18.9850769 27.15,20.4324615 C27.15,20.4324615 27.3675385,22.3353846 25.6843077,23.5243077 C23.202,25.2764615 19.3347692,24.4870769 17.6892308,24.0326154 C17.2476923,23.1150769 17,22.0866154 17,21 C17,19.3738462 17.5546154,17.878 18.4850769,16.6890769 C18.9438462,18.9043077 19.8915385,20.7544615 20.5290769,21.4415385 C21.3787692,22.3558462 22.6301538,23.3272308 24.2369231,22.9266154 C25.8426154,22.5249231 26.17,20.7684615 26.17,20.7684615 C26.5253846,19.2747692 26.0192308,17.5 25.9923077,17.4623077 C25.9653846,17.4246154 25.7241538,17.3836923 25.7241538,17.3836923 C25.9761538,19.7367692 25.3569231,20.7781538 25.3569231,20.7781538 C24.4566154,22.6229231 23.1341538,22.0521538 23.1341538,22.0521538 C21.6641538,21.3026154 21.7330769,19.1907692 21.7330769,19.1907692 C21.69,17.7746154 22.2295385,15.4678462 23.2698462,14.0376923 C23.51,14.0129231 23.7533846,14 24,14 C24.9369231,14 25.8307692,14.1841538 26.6481538,14.5190769 C25.7801538,15.2481538 24.4426154,16.6126154 24.4426154,16.6126154 C22.2758462,18.6210769 22.6958462,20.3107692 22.6958462,20.3107692 C23.0404615,22.0855385 24.1152308,20.8901538 24.1152308,20.8901538 C25.2449231,19.7227692 25.1609231,17.3976923 25.1609231,17.3976923 C24.7032308,17.472 24.4135385,17.724 24.4135385,17.724 C24.3575385,19.2747692 23.4421538,20.2364615 23.4421538,20.2364615 C23.0878462,20.6284615 22.8358462,20.2547692 22.8358462,20.2547692 C22.6495385,19.9747692 23.0221538,19.7787692 23.0221538,19.7787692 C23.5455385,19.3210769 23.7016923,18.5403077 23.6952308,18.2473846 C23.6876923,17.9533846 23.8438462,17.8736923 23.8438462,17.8736923 C24.5826154,17.304 25.3203077,16.968 25.3203077,16.968 C26.31,16.4629231 28.0750769,16.3789231 28.0750769,16.3789231 C28.4929231,16.3929231 28.8935385,16.3767692 29.2327692,16.3509231 C30.3323077,17.5872308 31,19.2155385 31,21 C31,24.8661538 27.8661538,28 24,28 M16,21 C16,25.4182857 19.5817143,29 24,29 C28.4182857,29 32,25.4182857 32,21 C32,16.5817143 28.4182857,13 24,13 C19.5817143,13 16,16.5817143 16,21 Z" id="Page-1" fill="#FFFFFF"></path>
        </g>
    </g>
</svg>