<?xml version="1.0" encoding="UTF-8" standalone="no"?>
<svg width="48px" height="48px" viewBox="0 0 48 48" version="1.1" xmlns="http://www.w3.org/2000/svg" xmlns:xlink="http://www.w3.org/1999/xlink">
    <!-- Generator: Sketch 39.1 (31720) - http://www.bohemiancoding.com/sketch -->
    <title>drive-harddisk-usb-48px</title>
    <desc>Created with Sketch.</desc>
    <defs>
        <linearGradient x1="51.9699097%" y1="0%" x2="51.9699097%" y2="100%" id="linearGradient-1">
            <stop stop-color="#C2EF5E" offset="0%"></stop>
            <stop stop-color="#3EDA8A" offset="100%"></stop>
        </linearGradient>
    </defs>
    <g id="Page-1" stroke="none" stroke-width="1" fill="none" fill-rule="evenodd">
        <g id="drive-harddisk-usb-48px">
            <g id="Group" transform="translate(8.000000, 4.000000)">
                <rect id="Rectangle-11" fill="url(#linearGradient-1)" x="0" y="0" width="32" height="38" rx="2"></rect>
                <circle id="Oval-7" fill="#FFFFFF" cx="29.25" cy="2.75" r="0.75"></circle>
                <rect id="Rectangle-11" fill="#1F9075" transform="translate(16.000000, 37.000000) rotate(180.000000) translate(-16.000000, -37.000000) " x="0" y="34" width="32" height="6" rx="2"></rect>
                <circle id="Oval-7" fill="#FFFFFF" cx="2.75" cy="2.75" r="0.75"></circle>
                <circle id="Oval-7" fill="#FFFFFF" cx="2.75" cy="31.25" r="0.75"></circle>
                <circle id="Oval-7" fill="#FFFFFF" cx="29.25" cy="31.25" r="0.75"></circle>
                <circle id="Oval-7" fill="#C0EE5E" cx="29.25" cy="36.25" r="0.75"></circle>
                <path d="M2,35.495389 C2,35.2217932 2.23193359,35 2.5,35 L2.5,35 C2.77614237,35 3,35.2272203 3,35.5066152 L3,36.1784668 L3,37.502258 C3,37.7771533 2.76806641,38 2.5,38 L2.5,38 C2.22385763,38 2,37.7842474 2,37.504611 L2,35.495389 Z" id="Rectangle" fill="#3FDA8A"></path>
                <rect id="Rectangle" fill="#3FDA8A" x="4" y="35" width="1" height="3" rx="0.5"></rect>
                <rect id="Rectangle" fill="#3FDA8A" x="6" y="35" width="1" height="3" rx="0.5"></rect>
            </g>
            <g id="Group" transform="translate(19.000000, 10.000000)" fill="#FFFFFF">
                <circle id="Oval" cx="5.447" cy="18.394" r="2.064"></circle>
                <polygon id="Shape" points="3.72 3.718 7.125 3.718 5.452 0.944"></polygon>
                <circle id="Oval" cx="2.044" cy="8.348" r="1.493"></circle>
                <rect id="Rectangle-path" x="7.388" y="5.23" width="3.042" height="3.042"></rect>
                <polygon id="Shape" points="5.867 2.949 5.107 2.949 5.107 17.962 5.107 19.68 5.867 19.68"></polygon>
                <path d="M8.552,6.849 L8.552,9.262 C8.552,9.662 8.506,9.819 8.189,10.121 L5.447,12.042 L5.447,12.864 L8.65,10.543 C8.65,10.543 9.202,10.212 9.202,9.315 L9.2,9.315 L9.2,6.848 L8.552,6.848 L8.552,6.849 Z" id="Shape"></path>
                <path d="M2.387,9.157 L2.387,11.522 C2.387,11.914 2.433,12.068 2.75,12.364 L5.492,14.247 L5.492,15.053 L2.289,12.778 C2.289,12.778 1.737,12.453 1.737,11.575 L1.74,11.575 L1.74,9.158 L2.387,9.158 L2.387,9.157 Z" id="Shape"></path>
            </g>
        </g>
    </g>
</svg>