<?xml version="1.0" encoding="UTF-8" standalone="no"?>
<svg width="48px" height="48px" viewBox="0 0 48 48" version="1.1" xmlns="http://www.w3.org/2000/svg" xmlns:xlink="http://www.w3.org/1999/xlink">
    <!-- Generator: Sketch 39.1 (31720) - http://www.bohemiancoding.com/sketch -->
    <title>drive-harddisk-mac-48px</title>
    <desc>Created with Sketch.</desc>
    <defs>
        <linearGradient x1="51.9699097%" y1="0%" x2="51.9699097%" y2="100%" id="linearGradient-1">
            <stop stop-color="#C2EF5E" offset="0%"></stop>
            <stop stop-color="#3EDA8A" offset="100%"></stop>
        </linearGradient>
        <polygon id="path-2" points="14 6.76065 14 13 0 13 0 0.5213 14 0.5213 14 6.76065"></polygon>
        <polygon id="path-4" points="4.10229016 0.708 0.729356283 0.708 0.729356283 4.62876101 4.10229016 4.62876101 4.10229016 0.708"></polygon>
    </defs>
    <g id="Page-1" stroke="none" stroke-width="1" fill="none" fill-rule="evenodd">
        <g id="drive-harddisk-mac-48px">
            <g id="Group" transform="translate(8.000000, 4.000000)">
                <rect id="Rectangle-11" fill="url(#linearGradient-1)" x="0" y="0" width="32" height="38" rx="2"></rect>
                <circle id="Oval-7" fill="#FFFFFF" cx="29.25" cy="2.75" r="0.75"></circle>
                <rect id="Rectangle-11" fill="#1F9075" transform="translate(16.000000, 37.000000) rotate(180.000000) translate(-16.000000, -37.000000) " x="0" y="34" width="32" height="6" rx="2"></rect>
                <circle id="Oval-7" fill="#FFFFFF" cx="2.75" cy="2.75" r="0.75"></circle>
                <circle id="Oval-7" fill="#FFFFFF" cx="2.75" cy="31.25" r="0.75"></circle>
                <circle id="Oval-7" fill="#FFFFFF" cx="29.25" cy="31.25" r="0.75"></circle>
                <circle id="Oval-7" fill="#C0EE5E" cx="29.25" cy="36.25" r="0.75"></circle>
                <path d="M2,35.495389 C2,35.2217932 2.23193359,35 2.5,35 L2.5,35 C2.77614237,35 3,35.2272203 3,35.5066152 L3,36.1784668 L3,37.502258 C3,37.7771533 2.76806641,38 2.5,38 L2.5,38 C2.22385763,38 2,37.7842474 2,37.504611 L2,35.495389 Z" id="Rectangle" fill="#3FDA8A"></path>
                <rect id="Rectangle" fill="#3FDA8A" x="4" y="35" width="1" height="3" rx="0.5"></rect>
                <rect id="Rectangle" fill="#3FDA8A" x="6" y="35" width="1" height="3" rx="0.5"></rect>
            </g>
            <g id="Page-1" transform="translate(17.000000, 12.000000)">
                <g id="Group-3" transform="translate(0.000000, 4.292500)">
                    <mask id="mask-3" fill="white">
                        <use xlink:href="#path-2"></use>
                    </mask>
                    <g id="Clip-2"></g>
                    <path d="M14,8.6603 C13.617,9.5083 13.434,9.8873 12.942,10.6363 C12.254,11.6833 11.286,12.9863 10.085,12.9973 C9.018,13.0073 8.744,12.3033 7.297,12.3113 C5.849,12.3193 5.547,13.0093 4.48,13.0003 C3.279,12.9893 2.361,11.8123 1.674,10.7653 C-0.249,7.8393 -0.45,4.4053 0.736,2.5793 C1.579,1.2823 2.907,0.5233 4.157,0.5233 C5.43,0.5233 6.23,1.2203 7.282,1.2203 C8.302,1.2203 8.924,0.5213 10.395,0.5213 C11.507,0.5213 12.685,1.1273 13.525,2.1743 C10.774,3.6813 11.221,7.6103 14,8.6603" id="Fill-1" fill="#FFFFFF" mask="url(#mask-3)"></path>
                </g>
                <g id="Group-6" transform="translate(6.000000, 0.292500)">
                    <mask id="mask-5" fill="white">
                        <use xlink:href="#path-4"></use>
                    </mask>
                    <g id="Clip-5"></g>
                    <path d="M3.2789,3.3527 C3.8129,2.6667 4.2189,1.6977 4.0719,0.7077 C3.1989,0.7677 2.1779,1.3237 1.5819,2.0477 C1.0399,2.7047 0.5929,3.6797 0.7679,4.6277 C1.7209,4.6567 2.7069,4.0877 3.2789,3.3527" id="Fill-4" fill="#FFFFFF" mask="url(#mask-5)"></path>
                </g>
            </g>
        </g>
    </g>
</svg>