<?xml version="1.0" encoding="UTF-8" standalone="no"?>
<svg width="48px" height="48px" viewBox="0 0 48 48" version="1.1" xmlns="http://www.w3.org/2000/svg" xmlns:xlink="http://www.w3.org/1999/xlink">
    <!-- Generator: Sketch 39.1 (31720) - http://www.bohemiancoding.com/sketch -->
    <title>media-dvd-48px</title>
    <desc>Created with Sketch.</desc>
    <defs>
        <linearGradient x1="19.5591518%" y1="10.6631324%" x2="80.9477307%" y2="89.1392299%" id="linearGradient-1">
            <stop stop-color="#D1FF81" offset="0%"></stop>
            <stop stop-color="#99DBF8" offset="49.7674143%"></stop>
            <stop stop-color="#C9ABFF" offset="100%"></stop>
        </linearGradient>
        <filter x="-50%" y="-50%" width="200%" height="200%" filterUnits="objectBoundingBox" id="filter-2">
            <feGaussianBlur stdDeviation="0" in="SourceGraphic"></feGaussianBlur>
        </filter>
    </defs>
    <g id="Page-1" stroke="none" stroke-width="1" fill="none" fill-rule="evenodd">
        <g id="media-dvd-48px">
            <g id="Group-Copy-3" transform="translate(3.000000, 3.000000)">
                <path d="M21,42 C32.5979797,42 42,32.5979797 42,21 C42,9.40202025 32.5979797,0 21,0 C9.40202025,0 0,9.40202025 0,21 C0,32.5979797 9.40202025,42 21,42 Z M21,25 C23.209139,25 25,23.209139 25,21 C25,18.790861 23.209139,17 21,17 C18.790861,17 17,18.790861 17,21 C17,23.209139 18.790861,25 21,25 Z" id="Combined-Shape" fill="url(#linearGradient-1)"></path>
                <path d="M21,31 C26.5228475,31 31,26.5228475 31,21 C31,15.4771525 26.5228475,11 21,11 C15.4771525,11 11,15.4771525 11,21 C11,26.5228475 15.4771525,31 21,31 Z" id="Combined-Shape" fill="#50909E" opacity="0.178229944"></path>
                <g id="Group-5" transform="translate(21.000000, 21.000000) rotate(90.000000) translate(-21.000000, -21.000000) translate(4.500000, 1.000000)" fill-opacity="0.2" fill="#FFFFFF">
                    <path d="M12.5138209,40.7258014 L15.8666947,24.0674767 C15.8666947,24.0674767 16.1948474,24.1497208 16.5916138,24.1497208 C16.9883803,24.1497208 17.5022852,23.9801691 17.5022852,23.9801691 L20.8614839,40.6699182 C20.8614839,40.6699182 19.0205125,41.1172977 16.8519855,41.1318148 C14.6834585,41.1463319 12.5138209,40.7258014 12.5138209,40.7258014 Z M12.5059097,-0.503527632 L15.8666947,16.1941028 C15.8666947,16.1941028 16.1948474,16.1118588 16.5916138,16.1118588 C16.9883803,16.1118588 17.5022852,16.2814104 17.5022852,16.2814104 L20.8580744,-0.391399102 C20.8580744,-0.391399102 18.9141011,-0.82808599 16.7785464,-0.856755995 C14.6429918,-0.885426 12.5059097,-0.503527632 12.5059097,-0.503527632 Z" id="Combined-Shape-Copy-3" filter="url(#filter-2)" transform="translate(16.683697, 20.136945) rotate(36.000000) translate(-16.683697, -20.136945) "></path>
                </g>
            </g>
            <path d="M18.432,35.716 L18.432,40 L19.92,40 C20.592,40 21.108,39.802 21.468,39.412 C21.81,39.04 21.984,38.518 21.984,37.858 C21.984,37.186 21.822,36.664 21.504,36.304 C21.156,35.908 20.646,35.716 19.968,35.716 L18.432,35.716 Z M18.924,36.142 L19.89,36.142 C20.454,36.142 20.862,36.286 21.126,36.58 C21.372,36.856 21.498,37.282 21.498,37.858 C21.498,38.416 21.36,38.842 21.096,39.13 C20.814,39.424 20.394,39.574 19.836,39.574 L18.924,39.574 L18.924,36.142 Z M22.266,35.716 L23.85,40 L24.456,40 L26.04,35.716 L25.5,35.716 L24.162,39.466 L24.144,39.466 L22.806,35.716 L22.266,35.716 Z M26.502,35.716 L26.502,40 L27.99,40 C28.662,40 29.178,39.802 29.538,39.412 C29.88,39.04 30.054,38.518 30.054,37.858 C30.054,37.186 29.892,36.664 29.574,36.304 C29.226,35.908 28.716,35.716 28.038,35.716 L26.502,35.716 Z M26.994,36.142 L27.96,36.142 C28.524,36.142 28.932,36.286 29.196,36.58 C29.442,36.856 29.568,37.282 29.568,37.858 C29.568,38.416 29.43,38.842 29.166,39.13 C28.884,39.424 28.464,39.574 27.906,39.574 L26.994,39.574 L26.994,36.142 Z" id="DVD" fill="#FFFFFF"></path>
        </g>
    </g>
</svg>