<svg xmlns="http://www.w3.org/2000/svg" xmlns:xlink="http://www.w3.org/1999/xlink" width="96" height="96" viewBox="0 0 96 96">
  <defs>
    <linearGradient id="apps.com.baidu.map_icon-a" x1="50%" x2="50%" y1="0%" y2="98.754%">
      <stop offset="0%" stop-color="#B4D07D"/>
      <stop offset="100%" stop-color="#869F56"/>
    </linearGradient>
    <linearGradient id="apps.com.baidu.map_icon-b" x1="50%" x2="50%" y1="0%" y2="100%">
      <stop offset="0%" stop-color="#ACC679"/>
      <stop offset="100%" stop-color="#537411"/>
    </linearGradient>
    <linearGradient id="apps.com.baidu.map_icon-c" x1="50%" x2="50%" y1="0%" y2="99.456%">
      <stop offset="0%" stop-color="#E0DCE1"/>
      <stop offset="100%" stop-color="#C2B2C7"/>
    </linearGradient>
    <linearGradient id="apps.com.baidu.map_icon-d" x1="50%" x2="50%" y1="0%" y2="100%">
      <stop offset="0%" stop-color="#F5EBBE"/>
      <stop offset="100%" stop-color="#EDE3AB"/>
    </linearGradient>
    <linearGradient id="apps.com.baidu.map_icon-e" x1="50%" x2="50%" y1="3.07%" y2="100%">
      <stop offset="0%" stop-color="#DCEFBC"/>
      <stop offset="100%" stop-color="#D4E4B7"/>
    </linearGradient>
    <linearGradient id="apps.com.baidu.map_icon-f" x1="50%" x2="50%" y1="0%" y2="100%">
      <stop offset="0%" stop-color="#BBE3F7"/>
      <stop offset="100%" stop-color="#87C4DE"/>
    </linearGradient>
    <linearGradient id="apps.com.baidu.map_icon-g" x1="50%" x2="50%" y1="-8.417%" y2="100%">
      <stop offset="0%" stop-color="#FFF"/>
      <stop offset="100%" stop-color="#F2EEEE"/>
    </linearGradient>
    <path id="apps.com.baidu.map_icon-i" d="M12.5,8 L83.5,8 C85.9852814,8 88,10.0147186 88,12.5 L88,83.5 C88,85.9852814 85.9852814,88 83.5,88 L12.5,88 C10.0147186,88 8,85.9852814 8,83.5 L8,12.5 C8,10.0147186 10.0147186,8 12.5,8 Z"/>
    <filter id="apps.com.baidu.map_icon-h" width="102.5%" height="102.5%" x="-1.2%" y="-1.2%" filterUnits="objectBoundingBox">
      <feOffset dy="-2" in="SourceAlpha" result="shadowOffsetInner1"/>
      <feComposite in="shadowOffsetInner1" in2="SourceAlpha" k2="-1" k3="1" operator="arithmetic" result="shadowInnerInner1"/>
      <feColorMatrix in="shadowInnerInner1" result="shadowMatrixInner1" values="0 0 0 0 0   0 0 0 0 0   0 0 0 0 0  0 0 0 0.296847684 0"/>
      <feOffset dy="1" in="SourceAlpha" result="shadowOffsetInner2"/>
      <feComposite in="shadowOffsetInner2" in2="SourceAlpha" k2="-1" k3="1" operator="arithmetic" result="shadowInnerInner2"/>
      <feColorMatrix in="shadowInnerInner2" result="shadowMatrixInner2" values="0 0 0 0 1   0 0 0 0 1   0 0 0 0 1  0 0 0 0.900240385 0"/>
      <feMerge>
        <feMergeNode in="shadowMatrixInner1"/>
        <feMergeNode in="shadowMatrixInner2"/>
      </feMerge>
    </filter>
    <radialGradient id="apps.com.baidu.map_icon-j" cx="54.77%" cy="21.862%" r="102.609%" fx="54.77%" fy="21.862%" gradientTransform="matrix(0 .71746 -1 0 .766 -.174)">
      <stop offset="0%" stop-color="#EA8684"/>
      <stop offset="26.307%" stop-color="#E57C7B"/>
      <stop offset="100%" stop-color="#BD3534"/>
    </radialGradient>
    <path id="apps.com.baidu.map_icon-k" d="M27.751466,37.986 C27.758866,43.8854 30.201548,49.534 33.78659,54.1492 C42.458482,63.6404 43.071932,65.3552 47.807934,74.0638 C48.414224,75.2778 49.282664,75.2848 49.960436,74.0438 C54.735048,65.3722 55.612728,63.475 63.65289,53.7918 C68.05608,49.0058 69.996844,43.1068 70.073532,37.9792 C70.073532,25.8288 60.599402,15.986 48.912482,15.986 C37.225596,15.986 27.751466,25.8358 27.751466,37.986 Z"/>
    <filter id="apps.com.baidu.map_icon-l" width="102.4%" height="101.7%" x="-1.2%" y="-.8%" filterUnits="objectBoundingBox">
      <feOffset dy="1" in="SourceAlpha" result="shadowOffsetInner1"/>
      <feComposite in="shadowOffsetInner1" in2="SourceAlpha" k2="-1" k3="1" operator="arithmetic" result="shadowInnerInner1"/>
      <feColorMatrix in="shadowInnerInner1" values="0 0 0 0 1   0 0 0 0 1   0 0 0 0 1  0 0 0 0.399776005 0"/>
    </filter>
    <linearGradient id="apps.com.baidu.map_icon-m" x1="50%" x2="50%" y1="0%" y2="100%">
      <stop offset="0%" stop-color="#D86564"/>
      <stop offset="100%" stop-color="#932322"/>
    </linearGradient>
  </defs>
  <g fill="none" fill-rule="evenodd">
    <path fill="url(#apps.com.baidu.map_icon-a)" fill-rule="nonzero" stroke="url(#apps.com.baidu.map_icon-b)" d="M83.5,7.5 C84.8807119,7.5 86.1307119,8.05964406 87.0355339,8.96446609 C87.9403559,9.86928813 88.5,11.1192881 88.5,12.5 L88.5,12.5 L88.5,83.5 C88.5,84.8807119 87.9403559,86.1307119 87.0355339,87.0355339 C86.1307119,87.9403559 84.8807119,88.5 83.5,88.5 L83.5,88.5 L12.5,88.5 C11.1192881,88.5 9.86928813,87.9403559 8.96446609,87.0355339 C8.05964406,86.1307119 7.5,84.8807119 7.5,83.5 L7.5,83.5 L7.5,12.5 C7.5,11.1192881 8.05964406,9.86928813 8.96446609,8.96446609 C9.86928813,8.05964406 11.1192881,7.5 12.5,7.5 L12.5,7.5 Z"/>
    <path fill="url(#apps.com.baidu.map_icon-c)" d="M42,7.99997235 L86,50 L66,68 L9.31450628,9.32153655 C10.1291221,8.50513014 11.2555713,8 12.5,8 L42,7.99997235 Z"/>
    <path fill="url(#apps.com.baidu.map_icon-d)" fill-rule="nonzero" d="M9.36053291,9.27340118 C12.7504785,12.4042374 26.7715394,25.3685677 41.2251685,38.9484894 L42.7830425,40.4130172 C43.3025768,40.9017022 43.8221967,41.390754 44.3414304,41.8797463 L45.8975006,43.3461176 C53.6673392,50.6728149 61.2440952,57.8901318 67.035156,63.558594 L67.035156,63.558594 L88,41.1853633 L88,56.1150513 L58.304688,88 L44.519532,88 L60.304688,70.621094 L7.99937669,21.265624 L7.99937669,21.265624 L8.00036945,20.4747867 C8.00043546,20.4197465 8.00050389,20.3622386 8.00057446,20.3023942 L8.0012597,19.7042463 C8.00134057,19.6315625 8.00142274,19.5569353 8.00150594,19.4804961 L8.00227474,18.7471572 C8.00236155,18.6610256 8.00244856,18.5734753 8.00253546,18.4846373 L8.00330761,17.6538715 C8.00339145,17.5584882 8.00347437,17.4622107 8.00355608,17.3651701 L8.00425134,16.4747416 C8.0043233,16.3743026 8.00439322,16.2734939 8.00446081,16.1724466 L8.00536666,14.3561517 C8.00539637,14.256962 8.00542209,14.1583204 8.00544354,14.0603581 L8.00541012,12.6582621 C8.00538189,12.570371 8.005348,12.4838147 8.00530817,12.3987246 L8,12.5 C8,11.2928633 8.47530913,10.1967411 9.24898423,9.38857634 Z"/>
    <path fill="url(#apps.com.baidu.map_icon-e)" d="M42.996094,53.003906 L54.246094,55.640624 L22.40625,88 L12.5,88 C11.2573593,88 10.1323593,87.4963203 9.31801948,86.6819805 L42.996094,53.003906 Z"/>
    <path fill="url(#apps.com.baidu.map_icon-f)" d="M45.75,7.99997235 L88,46.5 L88,12.4999723 C88,10.014691 85.9852814,7.99997235 83.5,7.99997235 L45.75,7.99997235 L45.75,7.99997235 Z"/>
    <polygon fill="url(#apps.com.baidu.map_icon-g)" points="38 8 88 56.115 88 44.064 52.062 8"/>
    <use fill="#000" fill-rule="nonzero" filter="url(#apps.com.baidu.map_icon-h)" xlink:href="#apps.com.baidu.map_icon-i"/>
    <g fill-rule="nonzero">
      <use fill="url(#apps.com.baidu.map_icon-j)" xlink:href="#apps.com.baidu.map_icon-k"/>
      <use fill="#000" filter="url(#apps.com.baidu.map_icon-l)" xlink:href="#apps.com.baidu.map_icon-k"/>
    </g>
    <path fill="url(#apps.com.baidu.map_icon-m)" fill-rule="nonzero" d="M48.912482,14.986 C36.6644389,14.986 26.751466,25.2920128 26.751466,37.986 C26.7587642,43.80488 29.0358961,49.6635119 32.99686,54.7626545 L34.0946189,55.9712523 L35.1041486,57.0956593 L36.0317157,58.1434706 L36.8835873,59.1222811 L37.6660301,60.0396857 L38.152182,60.6209251 L38.6121189,61.180499 L39.0476975,61.7206577 L39.4607749,62.2436515 L39.8532078,62.7517309 L40.4072107,63.4908082 L40.7561562,63.9714468 C40.8130834,64.0509042 40.8694212,64.1300684 40.9252083,64.2089862 L41.253632,64.6799115 L41.5706955,65.1471742 C41.6226959,65.2248711 41.6743004,65.3025092 41.7255475,65.3801353 C42.181273,66.0704411 42.6223623,66.7801118 43.0823412,67.5603056 L43.5501056,68.3661131 L44.2322501,69.5793645 L44.9593469,70.9054465 L46.9294393,74.5415522 C47.8890742,76.4644334 49.7822776,76.4562864 50.8380749,74.5231224 L54.0158128,68.7768259 L54.5138934,67.921131 L54.8988769,67.2755464 C55.1906247,66.7861959 55.475981,66.3198228 55.7624285,65.8647912 L56.3728883,64.9146846 L56.8753453,64.1610849 L57.2246922,63.6510715 L57.5877601,63.1320568 L57.9664523,62.6015459 L58.5679495,61.778767 L59.2153073,60.9160885 L59.6755295,60.3146452 L60.4135964,59.3667568 L61.2146535,58.3565159 L62.3918172,56.8979823 L63.7076097,55.293673 L64.4222499,54.4306155 C68.6765842,49.8083184 70.9864319,43.810465 71.0734202,37.9941543 C71.0734202,25.2862805 61.1617671,14.986 48.912482,14.986 Z M48.912482,15.986 C60.599402,15.986 70.073532,25.8288 70.073532,37.9792 C69.996844,43.1068 68.05608,49.0058 63.65289,53.7918 L62.08798,55.6889004 L60.7057031,57.3924646 L59.7757546,58.560368 L59.2015252,59.2934154 L58.4019839,60.3336092 L57.9061902,60.9927107 L57.2115489,61.9387765 L56.7771862,62.5463199 L56.3626347,63.1395085 C56.2950425,63.2373761 56.2281624,63.3347948 56.1619378,63.4318393 L55.7720014,64.0102122 L55.2106389,64.8687669 L54.8481241,65.4403572 L54.4918166,66.0155031 L54.1389956,66.5977865 L53.7869404,67.1907895 L53.4329303,67.7980942 L52.8922979,68.7437025 L52.3319626,69.7416385 L49.960436,74.0438 C49.3087322,75.2370692 48.480745,75.2764923 47.8790282,74.1985181 L45.757462,70.2796741 L45.0512768,68.9943306 L44.5452307,68.0927072 L44.2142715,67.5154751 L43.7210001,66.6775938 L43.3905076,66.1330956 L43.0556938,65.5962249 L42.7139828,65.0638581 L42.3627988,64.5328719 L41.9995657,64.0001427 L41.6217077,63.462547 C41.4930313,63.2821904 41.3614881,63.100502 41.2266488,62.9169615 L40.8118131,62.3602625 C40.7408826,62.2663797 40.6690208,62.1719037 40.5961739,62.0767694 L40.1468431,61.4975438 L39.6712956,60.8993962 L38.9031833,59.9598632 L38.3508245,59.3007451 L37.7632332,58.6117728 L36.8101507,57.515505 L35.7633057,56.3344956 L35.0090255,55.4948715 L33.78659,54.1492 C30.201548,49.534 27.758866,43.8854 27.751466,37.986 C27.751466,25.8358 37.225596,15.986 48.912482,15.986 Z"/>
    <path fill="#FFF" fill-rule="nonzero" d="M48.004872,26 L48.00482,32.2496 L48.01542,32.2496 L48.01542,48 L39.938202,48 C35.58261,48 32,44.489 32,40.1276 L32,40.1276 L32,39.7612 C32,35.3998 35.58261,32 39.938202,32 L39.938202,32 L44,32 L44,26 L44,26 L48.004872,26 Z M54,32 C54.00706,34.6632 53.9824,38.593 54,41.2562 C54.0295,41.972 54.079274,43.98 56.322452,43.98 L56.322452,43.98 L60,44 L60,32 L64,32 L64,48 L56.06397,48 C51.981008,47.9756 50.008,45.3302 50,42.1156 L50,42.1156 L50,32 Z M43.9866,36 L39.932266,36.0014 C37.754494,36.0014 36,37.7472 36,39.9182 L36,39.9182 L36,40.0832 C36,42.2542 37.754494,44 39.932266,44 L39.932266,44 L44,44 L44,42.1246 L43.9866,42.1246 L43.9866,36 Z"/>
  </g>
</svg>
