<svg xmlns="http://www.w3.org/2000/svg" xmlns:xlink="http://www.w3.org/1999/xlink" width="96" height="96" viewBox="0 0 96 96">
  <defs>
    <filter id="com.qq.weixin.deepin-a" width="136.4%" height="140%" x="-18.2%" y="-20%" filterUnits="objectBoundingBox">
      <feOffset dy="2" in="SourceAlpha" result="shadowOffsetOuter1"/>
      <feGaussianBlur in="shadowOffsetOuter1" result="shadowBlurOuter1" stdDeviation="2"/>
      <feColorMatrix in="shadowBlurOuter1" result="shadowMatrixOuter1" values="0 0 0 0 0   0 0 0 0 0   0 0 0 0 0  0 0 0 0.2 0"/>
      <feMerge>
        <feMergeNode in="shadowMatrixOuter1"/>
        <feMergeNode in="SourceGraphic"/>
      </feMerge>
    </filter>
    <radialGradient id="com.qq.weixin.deepin-b" cx="44.018%" cy="22.165%" r="90.233%" fx="44.018%" fy="22.165%" gradientTransform="matrix(0 1 -.90165 0 .64 -.219)">
      <stop offset="0%" stop-color="#BFE2AA"/>
      <stop offset="99.138%" stop-color="#6B9F47"/>
      <stop offset="100%" stop-color="#D8D8D8"/>
    </radialGradient>
    <path id="com.qq.weixin.deepin-c" d="M32.8775635,1 C50.4830556,1 64.755127,13.0883118 64.755127,28 C64.755127,42.9116882 50.4830556,55 32.8775635,55 C28.60967,55 24.5376704,54.2896106 20.8173979,53.0008211 L11.1715943,58.4848633 L13.5410683,49.4672545 C5.91788608,44.5337473 1,36.7533147 1,28 C1,13.0883118 15.2720713,1 32.8775635,1 Z"/>
    <filter id="com.qq.weixin.deepin-d" width="101.6%" height="101.7%" x="-.8%" y="-.9%" filterUnits="objectBoundingBox">
      <feOffset dy="1" in="SourceAlpha" result="shadowOffsetInner1"/>
      <feComposite in="shadowOffsetInner1" in2="SourceAlpha" k2="-1" k3="1" operator="arithmetic" result="shadowInnerInner1"/>
      <feColorMatrix in="shadowInnerInner1" values="0 0 0 0 1   0 0 0 0 1   0 0 0 0 1  0 0 0 0.5 0"/>
    </filter>
    <linearGradient id="com.qq.weixin.deepin-e" x1="50%" x2="50%" y1="0%" y2="100%">
      <stop offset="0%" stop-color="#84B663"/>
      <stop offset="100%" stop-color="#3C6721"/>
    </linearGradient>
    <linearGradient id="com.qq.weixin.deepin-f" x1="50%" x2="50%" y1="0%" y2="100%">
      <stop offset="0%" stop-color="#68A16C"/>
      <stop offset="100%" stop-color="#37683A"/>
    </linearGradient>
    <linearGradient id="com.qq.weixin.deepin-g" x1="50%" x2="50%" y1="4.33%" y2="98.566%">
      <stop offset="0%" stop-color="#57895B"/>
      <stop offset="100%" stop-color="#2A4D2C"/>
    </linearGradient>
    <filter id="com.qq.weixin.deepin-h" width="143.6%" height="147.1%" x="-21.8%" y="-23.5%" filterUnits="objectBoundingBox">
      <feOffset dy="2" in="SourceAlpha" result="shadowOffsetOuter1"/>
      <feGaussianBlur in="shadowOffsetOuter1" result="shadowBlurOuter1" stdDeviation="2"/>
      <feColorMatrix in="shadowBlurOuter1" result="shadowMatrixOuter1" values="0 0 0 0 0   0 0 0 0 0   0 0 0 0 0  0 0 0 0.2 0"/>
      <feMerge>
        <feMergeNode in="shadowMatrixOuter1"/>
        <feMergeNode in="SourceGraphic"/>
      </feMerge>
    </filter>
    <radialGradient id="com.qq.weixin.deepin-i" cx="50%" cy="15.44%" r="79.623%" fx="50%" fy="15.44%" gradientTransform="matrix(0 1 -.9151 0 .641 -.346)">
      <stop offset="0%" stop-color="#EFEFEF"/>
      <stop offset="100%" stop-color="#CDCDCD"/>
    </radialGradient>
    <path id="com.qq.weixin.deepin-j" d="M27.3952026,1 C41.9728705,1 53.7904053,11.0735931 53.7904053,23.5 C53.7904053,30.5343752 50.0034793,36.8147919 44.07265,40.9406923 L45.5825195,49.3087158 L36.6516785,44.5775932 C33.7713029,45.4971629 30.6521407,46 27.3952026,46 C12.8175348,46 1,35.9264069 1,23.5 C1,11.0735931 12.8175348,1 27.3952026,1 Z"/>
    <filter id="com.qq.weixin.deepin-k" width="101.9%" height="102.1%" x="-.9%" y="-1%" filterUnits="objectBoundingBox">
      <feOffset dy="1" in="SourceAlpha" result="shadowOffsetInner1"/>
      <feComposite in="shadowOffsetInner1" in2="SourceAlpha" k2="-1" k3="1" operator="arithmetic" result="shadowInnerInner1"/>
      <feColorMatrix in="shadowInnerInner1" values="0 0 0 0 1   0 0 0 0 1   0 0 0 0 1  0 0 0 0.5 0"/>
    </filter>
    <linearGradient id="com.qq.weixin.deepin-l" x1="50%" x2="50%" y1="1.98%" y2="99.74%">
      <stop offset="0%" stop-opacity=".204"/>
      <stop offset="100%" stop-opacity=".402"/>
    </linearGradient>
    <linearGradient id="com.qq.weixin.deepin-m" x1="50%" x2="50%" y1="0%" y2="100%">
      <stop offset="0%" stop-color="#AAA"/>
      <stop offset="100%" stop-color="#727272"/>
    </linearGradient>
    <linearGradient id="com.qq.weixin.deepin-n" x1="50%" x2="50%" y1="0%" y2="100%">
      <stop offset="0%" stop-opacity=".467"/>
      <stop offset="100%" stop-opacity=".674"/>
    </linearGradient>
  </defs>
  <g fill="none" fill-rule="evenodd">
    <g filter="url(#com.qq.weixin.deepin-a)" transform="translate(3.5 11.75)">
      <g opacity=".98">
        <use fill="url(#com.qq.weixin.deepin-b)" xlink:href="#com.qq.weixin.deepin-c"/>
        <use fill="#000" filter="url(#com.qq.weixin.deepin-d)" xlink:href="#com.qq.weixin.deepin-c"/>
      </g>
      <path fill="url(#com.qq.weixin.deepin-e)" fill-rule="nonzero" d="M32.8775635,1.42108547e-14 C14.7531838,1.42108547e-14 0,12.4958096 0,28 L0.00405792986,28.4433771 C0.158115172,36.8559624 4.69048396,44.5974471 12.1966993,49.7716884 L12.392,49.904 L10.2044253,58.2307292 L10.182153,58.3369072 C10.0555595,59.1437872 10.9282291,59.7735482 11.6658403,59.3541854 L20.923,54.09 L20.4900599,53.9457284 C24.389837,55.2967025 28.5771133,56 32.8775635,56 C51.0019432,56 65.755127,43.5041904 65.755127,28 C65.755127,12.4958096 51.0019432,1.42108547e-14 32.8775635,1.42108547e-14 Z M32.8775635,1 C50.4830556,1 64.755127,13.0883118 64.755127,28 C64.755127,42.9116882 50.4830556,55 32.8775635,55 C28.60967,55 24.5376704,54.2896106 20.8173979,53.0008211 L11.1715943,58.4848633 L13.5410683,49.4672545 C5.91788608,44.5337473 1,36.7533147 1,28 C1,13.0883118 15.2720713,1 32.8775635,1 Z"/>
      <path fill="url(#com.qq.weixin.deepin-f)" d="M23.125,16 C25.4031746,16 27.25,17.8468254 27.25,20.125 C27.25,22.4031746 25.4031746,24.25 23.125,24.25 C20.8468254,24.25 19,22.4031746 19,20.125 C19,17.8468254 20.8468254,16 23.125,16 Z M43.375,16 C45.6531746,16 47.5,17.8468254 47.5,20.125 C47.5,22.4031746 45.6531746,24.25 43.375,24.25 C41.0968254,24.25 39.25,22.4031746 39.25,20.125 C39.25,17.8468254 41.0968254,16 43.375,16 Z"/>
      <path fill="url(#com.qq.weixin.deepin-g)" fill-rule="nonzero" d="M23.125,15 C25.9554593,15 28.25,17.2945407 28.25,20.125 C28.25,22.9554593 25.9554593,25.25 23.125,25.25 C20.2945407,25.25 18,22.9554593 18,20.125 C18,17.2945407 20.2945407,15 23.125,15 Z M43.375,15 C46.2054593,15 48.5,17.2945407 48.5,20.125 C48.5,22.9554593 46.2054593,25.25 43.375,25.25 C40.5445407,25.25 38.25,22.9554593 38.25,20.125 C38.25,17.2945407 40.5445407,15 43.375,15 Z M23.125,16 C20.8468254,16 19,17.8468254 19,20.125 C19,22.334139 20.7365925,24.1376751 22.9191209,24.2449517 L23.125,24.25 L23.3308791,24.2449517 C25.5134075,24.1376751 27.25,22.334139 27.25,20.125 C27.25,17.8468254 25.4031746,16 23.125,16 Z M43.375,16 C41.0968254,16 39.25,17.8468254 39.25,20.125 C39.25,22.334139 40.9865925,24.1376751 43.1691209,24.2449517 L43.375,24.25 L43.5808791,24.2449517 C45.7634075,24.1376751 47.5,22.334139 47.5,20.125 C47.5,17.8468254 45.6531746,16 43.375,16 Z"/>
    </g>
    <g filter="url(#com.qq.weixin.deepin-h)" transform="translate(38.46 35.75)">
      <use fill="url(#com.qq.weixin.deepin-i)" xlink:href="#com.qq.weixin.deepin-j"/>
      <use fill="#000" filter="url(#com.qq.weixin.deepin-k)" xlink:href="#com.qq.weixin.deepin-j"/>
      <path fill="url(#com.qq.weixin.deepin-l)" fill-rule="nonzero" d="M27.3952026,0 C12.2975132,0 0,10.48274 0,23.5 C0,36.51726 12.2975132,47 27.3952026,47 L28.0548224,46.9933219 C30.9083217,46.9354904 33.6968443,46.5026335 36.3467792,45.7176212 L36.549,45.655 L45.1143976,50.1923797 L45.2111795,50.2375978 C45.9247784,50.5277249 46.70833,49.9164906 46.5666284,49.1311499 L45.168,41.385 L45.3531214,41.250988 C51.2881423,36.831916 54.7904053,30.4190591 54.7904053,23.5 C54.7904053,10.48274 42.4928921,0 27.3952026,0 Z M27.3952026,1 C41.9728705,1 53.7904053,11.0735931 53.7904053,23.5 C53.7904053,30.5343752 50.0034793,36.8147919 44.07265,40.9406923 L45.5825195,49.3087158 L36.6516785,44.5775932 C33.7713029,45.4971629 30.6521407,46 27.3952026,46 C12.8175348,46 1,35.9264069 1,23.5 C1,11.0735931 12.8175348,1 27.3952026,1 Z"/>
      <path fill="url(#com.qq.weixin.deepin-m)" d="M36.1654053,14.5 C38.0293663,14.5 39.5404053,16.011039 39.5404053,17.875 C39.5404053,19.738961 38.0293663,21.25 36.1654053,21.25 C34.3014442,21.25 32.7904053,19.738961 32.7904053,17.875 C32.7904053,16.011039 34.3014442,14.5 36.1654053,14.5 Z M18.9154053,14.5 C20.7793663,14.5 22.2904053,16.011039 22.2904053,17.875 C22.2904053,19.738961 20.7793663,21.25 18.9154053,21.25 C17.0514442,21.25 15.5404053,19.738961 15.5404053,17.875 C15.5404053,16.011039 17.0514442,14.5 18.9154053,14.5 Z"/>
      <path fill="url(#com.qq.weixin.deepin-n)" fill-rule="nonzero" d="M36.1654053,13.5 C38.5816511,13.5 40.5404053,15.4587542 40.5404053,17.875 C40.5404053,20.2912458 38.5816511,22.25 36.1654053,22.25 C33.7491595,22.25 31.7904053,20.2912458 31.7904053,17.875 C31.7904053,15.4587542 33.7491595,13.5 36.1654053,13.5 Z M18.9154053,13.5 C21.3316511,13.5 23.2904053,15.4587542 23.2904053,17.875 C23.2904053,20.2912458 21.3316511,22.25 18.9154053,22.25 C16.4991595,22.25 14.5404053,20.2912458 14.5404053,17.875 C14.5404053,15.4587542 16.4991595,13.5 18.9154053,13.5 Z M36.1654053,14.5 C34.3014442,14.5 32.7904053,16.011039 32.7904053,17.875 C32.7904053,19.676829 34.2023872,21.1488719 35.9802285,21.2450061 L36.1654053,21.25 L36.3505821,21.2450061 C38.1284233,21.1488719 39.5404053,19.676829 39.5404053,17.875 C39.5404053,16.011039 38.0293663,14.5 36.1654053,14.5 Z M18.9154053,14.5 C17.0514442,14.5 15.5404053,16.011039 15.5404053,17.875 C15.5404053,19.676829 16.9523872,21.1488719 18.7302285,21.2450061 L18.9154053,21.25 L19.1005821,21.2450061 C20.8784233,21.1488719 22.2904053,19.676829 22.2904053,17.875 C22.2904053,16.011039 20.7793663,14.5 18.9154053,14.5 Z"/>
    </g>
  </g>
</svg>
