<svg xmlns="http://www.w3.org/2000/svg" xmlns:xlink="http://www.w3.org/1999/xlink" width="96" height="96" viewBox="0 0 96 96">
  <defs>
    <filter id="dde-introduction-a" width="127.3%" height="133.3%" x="-13.6%" y="-16.7%" filterUnits="objectBoundingBox">
      <feOffset dy="2" in="SourceAlpha" result="shadowOffsetOuter1"/>
      <feGaussianBlur in="shadowOffsetOuter1" result="shadowBlurOuter1" stdDeviation="2"/>
      <feColorMatrix in="shadowBlurOuter1" result="shadowMatrixOuter1" values="0 0 0 0 0   0 0 0 0 0   0 0 0 0 0  0 0 0 0.2 0"/>
      <feMerge>
        <feMergeNode in="shadowMatrixOuter1"/>
        <feMergeNode in="SourceGraphic"/>
      </feMerge>
    </filter>
    <linearGradient id="dde-introduction-b" x1="54.21%" x2="54.135%" y1="84.072%" y2="15.928%">
      <stop offset="0%" stop-color="#E6E6E6"/>
      <stop offset="100%" stop-color="#FAFAFA"/>
    </linearGradient>
    <path id="dde-introduction-c" d="M4.75,1 L83.25,1 C85.3210678,1 87,2.67893219 87,4.75 L87,67.25 C87,69.3210678 85.3210678,71 83.25,71 L4.75,71 C2.67893219,71 1,69.3210678 1,67.25 L1,4.75 C1,2.67893219 2.67893219,1 4.75,1 Z"/>
    <filter id="dde-introduction-d" width="101.2%" height="101.4%" x="-.6%" y="-.7%" filterUnits="objectBoundingBox">
      <feOffset dy="1" in="SourceAlpha" result="shadowOffsetInner1"/>
      <feComposite in="shadowOffsetInner1" in2="SourceAlpha" k2="-1" k3="1" operator="arithmetic" result="shadowInnerInner1"/>
      <feColorMatrix in="shadowInnerInner1" values="0 0 0 0 1   0 0 0 0 1   0 0 0 0 1  0 0 0 1 0"/>
    </filter>
    <radialGradient id="dde-introduction-e" cx="50%" cy="10.248%" r="105.558%" fx="50%" fy="10.248%" gradientTransform="matrix(0 1 -.71795 0 .574 -.398)">
      <stop offset="0%" stop-color="#7EC386"/>
      <stop offset="100%" stop-color="#45704A"/>
    </radialGradient>
    <path id="dde-introduction-f" d="M5.75,5 L82.25,5 C82.6642136,5 83,5.33578644 83,5.75 L83,60.25 C83,60.6642136 82.6642136,61 82.25,61 L5.75,61 C5.33578644,61 5,60.6642136 5,60.25 L5,5.75 C5,5.33578644 5.33578644,5 5.75,5 Z"/>
    <filter id="dde-introduction-g" width="101.3%" height="101.8%" x="-.6%" y="-.9%" filterUnits="objectBoundingBox">
      <feOffset dy="1" in="SourceAlpha" result="shadowOffsetInner1"/>
      <feComposite in="shadowOffsetInner1" in2="SourceAlpha" k2="-1" k3="1" operator="arithmetic" result="shadowInnerInner1"/>
      <feColorMatrix in="shadowInnerInner1" values="0 0 0 0 1   0 0 0 0 1   0 0 0 0 1  0 0 0 0.5 0"/>
    </filter>
    <linearGradient id="dde-introduction-h" x1="37.216%" x2="37.29%" y1="83.859%" y2="15.573%">
      <stop offset="0%" stop-opacity=".478"/>
      <stop offset="100%" stop-opacity=".214"/>
    </linearGradient>
    <linearGradient id="dde-introduction-i" x1="59.639%" x2="59.789%" y1="78.74%" y2="32.728%">
      <stop offset="0%" stop-color="#205E28"/>
      <stop offset="100%" stop-color="#404C41"/>
    </linearGradient>
  </defs>
  <g fill="none" fill-rule="evenodd" filter="url(#dde-introduction-a)" transform="translate(4 12)">
    <g fill-rule="nonzero">
      <use fill="url(#dde-introduction-b)" xlink:href="#dde-introduction-c"/>
      <use fill="#000" filter="url(#dde-introduction-d)" xlink:href="#dde-introduction-c"/>
    </g>
    <use fill="url(#dde-introduction-e)" xlink:href="#dde-introduction-f"/>
    <use fill="#000" filter="url(#dde-introduction-g)" xlink:href="#dde-introduction-f"/>
    <path fill="url(#dde-introduction-h)" fill-rule="nonzero" d="M83.25,0 L4.75,0 C2.12664744,0 0,2.12664744 0,4.75 L0,67.25 C0,69.8733526 2.12664744,72 4.75,72 L83.25,72 C85.8733526,72 88,69.8733526 88,67.25 L88,4.75 C88,2.12664744 85.8733526,0 83.25,0 Z M83.25,1 C85.3210678,1 87,2.67893219 87,4.75 L87,67.25 C87,69.3210678 85.3210678,71 83.25,71 L4.75,71 C2.67893219,71 1,69.3210678 1,67.25 L1,4.75 C1,2.67893219 2.67893219,1 4.75,1 L83.25,1 Z"/>
    <path fill="url(#dde-introduction-i)" fill-rule="nonzero" d="M82.25,4 L5.75,4 C4.78350169,4 4,4.78350169 4,5.75 L4,60.25 C4,61.2164983 4.78350169,62 5.75,62 L82.25,62 C83.2164983,62 84,61.2164983 84,60.25 L84,5.75 C84,4.78350169 83.2164983,4 82.25,4 Z M82.25,5 C82.6642136,5 83,5.33578644 83,5.75 L83,60.25 C83,60.6642136 82.6642136,61 82.25,61 L5.75,61 C5.33578644,61 5,60.6642136 5,60.25 L5,5.75 C5,5.33578644 5.33578644,5 5.75,5 L82.25,5 Z"/>
    <path fill="#D6EBD8" fill-rule="nonzero" d="M55.5 30C53.0131579 30 51 27.9832059 51 25.4983081 51 23.0156661 53.0131579 21 55.5 21 57.9857143 21 60 23.0156661 60 25.4983081 60 27.9832059 57.9857143 30 55.5 30zM32.5 30C30.0131579 30 28 27.9832059 28 25.4983081 28 23.0156661 30.0131579 21 32.5 21 34.9857143 21 37 23.0156661 37 25.4983081 37 27.9832059 34.9857143 30 32.5 30z"/>
    <path stroke="#D6EBD8" stroke-linecap="round" stroke-linejoin="round" stroke-width="4.5" d="M28,39 C31.8659139,47 37.3659139,51 44.5,51 C51.6340861,51 57.1340861,47 61,39"/>
    <polygon fill="#FFF" fill-rule="nonzero" points="1 66 87 66 87 67 1 67" opacity=".448"/>
    <polygon fill="#C3C3C3" fill-rule="nonzero" points="1 65 87 65 87 66 1 66"/>
    <path fill="#A9A9A9" d="M74.5,68 C74.7761424,68 75,68.2238576 75,68.5 C75,68.7761424 74.7761424,69 74.5,69 C74.2238576,69 74,68.7761424 74,68.5 C74,68.2238576 74.2238576,68 74.5,68 Z M70.5,68 C70.7761424,68 71,68.2238576 71,68.5 C71,68.7761424 70.7761424,69 70.5,69 C70.2238576,69 70,68.7761424 70,68.5 C70,68.2238576 70.2238576,68 70.5,68 Z M78.5,68 C78.7761424,68 79,68.2238576 79,68.5 C79,68.7761424 78.7761424,69 78.5,69 C78.2238576,69 78,68.7761424 78,68.5 C78,68.2238576 78.2238576,68 78.5,68 Z"/>
    <path fill="#B65D5D" d="M82.5,69 C82.7761424,69 83,68.7761424 83,68.5 C83,68.2238576 82.7761424,68 82.5,68 C82.2238576,68 82,68.2238576 82,68.5 C82,68.7761424 82.2238576,69 82.5,69 Z"/>
    <path fill="#A9A9A9" d="M19.5,68 C19.7761424,68 20,68.2238576 20,68.5 C20,68.7761424 19.7761424,69 19.5,69 L5.5,69 C5.22385763,69 5,68.7761424 5,68.5 C5,68.2238576 5.22385763,68 5.5,68 L19.5,68 Z M26.5,68 C26.7761424,68 27,68.2238576 27,68.5 C27,68.7761424 26.7761424,69 26.5,69 L22.5,69 C22.2238576,69 22,68.7761424 22,68.5 C22,68.2238576 22.2238576,68 22.5,68 L26.5,68 Z M32.5,68 C32.7761424,68 33,68.2238576 33,68.5 C33,68.7761424 32.7761424,69 32.5,69 L30.5,69 C30.2238576,69 30,68.7761424 30,68.5 C30,68.2238576 30.2238576,68 30.5,68 L32.5,68 Z" opacity=".497"/>
  </g>
</svg>
