<svg xmlns="http://www.w3.org/2000/svg" xmlns:xlink="http://www.w3.org/1999/xlink" width="96" height="96" viewBox="0 0 96 96">
  <defs>
    <filter id="deepin-draw-a" width="127.3%" height="130.8%" x="-13.6%" y="-15.4%" filterUnits="objectBoundingBox">
      <feOffset dy="2" in="SourceAlpha" result="shadowOffsetOuter1"/>
      <feGaussianBlur in="shadowOffsetOuter1" result="shadowBlurOuter1" stdDeviation="2"/>
      <feColorMatrix in="shadowBlurOuter1" result="shadowMatrixOuter1" values="0 0 0 0 0   0 0 0 0 0   0 0 0 0 0  0 0 0 0.2 0"/>
      <feMerge>
        <feMergeNode in="shadowMatrixOuter1"/>
        <feMergeNode in="SourceGraphic"/>
      </feMerge>
    </filter>
    <linearGradient id="deepin-draw-b" x1="18.343%" x2="69.412%" y1="29.8%" y2="61.022%">
      <stop offset="0%" stop-color="#E8C87C"/>
      <stop offset="100%" stop-color="#AE895A"/>
    </linearGradient>
    <linearGradient id="deepin-draw-c" x1="50%" x2="50%" y1="0%" y2="100%">
      <stop offset="0%" stop-color="#D6B982"/>
      <stop offset="100%" stop-color="#D9BD86"/>
    </linearGradient>
    <linearGradient id="deepin-draw-d" x1="50%" x2="50%" y1="0%" y2="100%">
      <stop offset="0%" stop-color="#EDCE89"/>
      <stop offset="100%" stop-color="#E7CD93"/>
    </linearGradient>
    <linearGradient id="deepin-draw-e" x1="50%" x2="36.924%" y1="18%" y2="82%">
      <stop offset="0%" stop-color="#CCE59B"/>
      <stop offset="100%" stop-color="#6BB45D" stop-opacity=".867"/>
    </linearGradient>
    <linearGradient id="deepin-draw-f" x1="52.439%" x2="50%" y1="17.158%" y2="82%">
      <stop offset="0%" stop-color="#B5CF85"/>
      <stop offset="100%" stop-color="#558D55" stop-opacity=".594"/>
    </linearGradient>
    <linearGradient id="deepin-draw-g" x1="35.601%" x2="50%" y1="82%" y2="24.328%">
      <stop offset="0%" stop-color="#7091B7"/>
      <stop offset="100%" stop-color="#AAC5E5"/>
    </linearGradient>
    <linearGradient id="deepin-draw-h" x1="50%" x2="50%" y1="108.606%" y2="0%">
      <stop offset="0%" stop-color="#5E738D"/>
      <stop offset="100%" stop-color="#8FB0D6"/>
    </linearGradient>
    <linearGradient id="deepin-draw-i" x1="50%" x2="78.14%" y1="82.78%" y2="24.035%">
      <stop offset="0%" stop-color="#D87E60"/>
      <stop offset="100%" stop-color="#E39D7C"/>
    </linearGradient>
    <linearGradient id="deepin-draw-j" x1="54.651%" x2="54.651%" y1="101.22%" y2="-1.22%">
      <stop offset="0%" stop-color="#B74725"/>
      <stop offset="100%" stop-color="#DF9C61"/>
    </linearGradient>
    <linearGradient id="deepin-draw-k" x1="34.492%" x2="50%" y1="82%" y2="17.256%">
      <stop offset="0%" stop-color="#F5DD7D"/>
      <stop offset="100%" stop-color="#F8EAB7"/>
    </linearGradient>
    <linearGradient id="deepin-draw-l" x1="41.429%" x2="50%" y1="82.744%" y2="18%">
      <stop offset="0%" stop-color="#B9A65C" stop-opacity=".881"/>
      <stop offset="100%" stop-color="#ECDC9F"/>
    </linearGradient>
    <linearGradient id="deepin-draw-m" x1="93.268%" x2="31.244%" y1="4.786%" y2="67.768%">
      <stop offset="0%" stop-color="#DDC3B8" stop-opacity="0"/>
      <stop offset="11.475%" stop-color="#D6BAAC"/>
      <stop offset="100%" stop-color="#783900"/>
    </linearGradient>
    <linearGradient id="deepin-draw-n" x1="50%" x2="50%" y1="2.553%" y2="100%">
      <stop offset="0%" stop-opacity="0"/>
      <stop offset="18.396%" stop-color="#0B0B0B" stop-opacity=".318"/>
      <stop offset="100%" stop-color="#979797"/>
    </linearGradient>
    <filter id="deepin-draw-o" width="109.4%" height="109.2%" x="-4.7%" y="-4.6%" filterUnits="objectBoundingBox">
      <feGaussianBlur in="SourceGraphic" stdDeviation=".75"/>
    </filter>
    <linearGradient id="deepin-draw-p" x1="50%" x2="50%" y1="-1.22%" y2="101.219%">
      <stop offset="0%" stop-color="#5F5F5F"/>
      <stop offset="100%" stop-color="#1E1E1E"/>
    </linearGradient>
    <linearGradient id="deepin-draw-q" x1="54.878%" x2="54.878%" y1="-1.22%" y2="101.219%">
      <stop offset="0%" stop-color="#414141" stop-opacity=".667"/>
      <stop offset="100%" stop-opacity=".238"/>
    </linearGradient>
    <linearGradient id="deepin-draw-r" x1="31.623%" x2="93.105%" y1="42.858%" y2="42.858%">
      <stop offset="0%" stop-color="#9B9B9B"/>
      <stop offset="28.689%" stop-color="#CDCDCD"/>
      <stop offset="44.198%" stop-color="#E1E1E1"/>
      <stop offset="58.142%" stop-color="#F5F5F5"/>
      <stop offset="100%" stop-color="#B9B9B9"/>
    </linearGradient>
    <path id="deepin-draw-s" d="M7.06705452,62.0390944 L6.99176342,63.9566164 C6.88019317,66.6994056 6.74770351,69.4331676 6.59429441,72.1579023 L1.53179441,72.1579023 C1.29254774,69.5176618 1.10418015,66.1710817 0.96669165,62.1181621 C1.50541246,61.9993368 2.23717555,61.9225352 3.16170968,61.8872859 C4.76446557,61.8261783 6.06624718,61.8767812 7.06705452,62.0390944 Z"/>
    <linearGradient id="deepin-draw-t" x1="-18.686%" x2="100%" y1="46.573%" y2="52.993%">
      <stop offset="0%" stop-color="#9D9D9D"/>
      <stop offset="100%" stop-color="#646464"/>
    </linearGradient>
    <path id="deepin-draw-u" d="M3.92297237,63.6735764 C4.94493382,63.659432 5.97109679,63.6971944 6.99760978,63.7866258 C6.99039564,63.991164 6.98210919,64.1935996 6.97370875,64.395986 C5.97317139,64.3158676 4.97417071,64.2836988 3.9790496,64.2981954 C2.99790417,64.3169766 2.02259832,64.3833173 1.05644986,64.496903 C1.04831456,64.2990792 1.04006893,64.0973132 1.03196646,63.8935597 C1.98648435,63.7690171 2.95153543,63.6964442 3.92297237,63.6735764 Z"/>
    <linearGradient id="deepin-draw-v" x1="60.539%" x2="90.508%" y1="59.746%" y2="81.996%">
      <stop offset="0%" stop-color="#DE9959"/>
      <stop offset="100%" stop-color="#BB5809"/>
    </linearGradient>
    <linearGradient id="deepin-draw-w" x1="58.796%" x2="45.275%" y1="22.041%" y2="92.261%">
      <stop offset="0%" stop-color="#FFF"/>
      <stop offset="96.555%" stop-color="#882C2C"/>
    </linearGradient>
    <radialGradient id="deepin-draw-x" cx="54.87%" cy="48.482%" r="42.874%" fx="54.87%" fy="48.482%">
      <stop offset=".729%" stop-color="#EFEFEF"/>
      <stop offset="100%" stop-color="#A1A1A1"/>
    </radialGradient>
    <radialGradient id="deepin-draw-y" cx="54.87%" cy="48.482%" r="45.728%" fx="54.87%" fy="48.482%" gradientTransform="scale(-1 -.8) rotate(35.422 1.708 -1.779)">
      <stop offset=".729%" stop-color="#EFEFEF"/>
      <stop offset="100%" stop-color="#A1A1A1"/>
    </radialGradient>
    <radialGradient id="deepin-draw-z" cx="54.87%" cy="48.482%" r="53.081%" fx="54.87%" fy="48.482%" gradientTransform="scale(-1 -.5609) rotate(45.41 1.612 -1.501)">
      <stop offset=".729%" stop-color="#EFEFEF"/>
      <stop offset="100%" stop-color="#A1A1A1"/>
    </radialGradient>
    <radialGradient id="deepin-draw-A" cx="54.87%" cy="48.482%" r="46.351%" fx="54.87%" fy="48.482%" gradientTransform="matrix(-.80396 -.45745 .59468 -.61843 .702 1.036)">
      <stop offset=".729%" stop-color="#EFEFEF"/>
      <stop offset="100%" stop-color="#A1A1A1"/>
    </radialGradient>
  </defs>
  <g fill="none" fill-rule="evenodd" filter="url(#deepin-draw-a)" transform="translate(3.75 9)">
    <path fill="url(#deepin-draw-b)" fill-rule="nonzero" d="M75.0047508,8.88097692 C64.4047683,1.98431579 51.2026084,-0.0143272066 35.3725838,6.00292969 C12.058003,14.8396099 -4.11001464,33.5390474 2.0616503,51.1964186 C8.23331525,68.8537898 33.5195401,76.6537304 57.8994999,70.8603218 C64.2187837,69.420655 70.2019159,66.7975335 75.5266789,63.132224 C81.5907298,58.3354736 77.2216,53.9810902 73.8209964,51.524088 C67.3641543,46.8872293 70.9692245,41.4562419 82.1557035,36.3983351 C94.2299983,30.9620179 84.3725526,14.9621905 75.0047508,8.88097692 Z M61.387207,61.2664476 C56.7581327,62.7716231 52.3694451,61.6392754 51.2450162,58.2360294 C50.1205872,54.8327834 52.9736943,50.8484954 57.6027686,49.3322524 C62.2318429,47.8160095 66.887189,49.3654548 68.0063636,52.7687009 C68.3516596,53.8186954 67.8801577,54.4550785 67.5,55.4738254 C66.6479892,57.7570444 64.5880852,60.2256599 61.387207,61.2664476 Z"/>
    <path stroke="url(#deepin-draw-c)" d="M34.4017081,6.25653214 C50.0292508,0.303534595 65.1417517,2.35973605 75.622349,9.19358624 C80.699364,12.5107363 85.2590944,18.5061803 86.287051,24.1119404 C86.7100539,26.4187039 86.5302439,28.6588341 85.5047783,30.6009143 C84.5851199,32.3426111 82.9871701,33.8361844 80.5695487,34.9344446 C75.3302522,37.3138891 72.2993415,39.9446166 70.9477237,42.4108924 C70.1334392,43.8967046 69.9126465,45.3341147 70.1689688,46.6476987 C70.4389125,48.0310893 71.241963,49.2862409 72.4948209,50.3222124 L72.4948209,50.3222124 L73.4328652,51.0712463 C73.8450944,51.4035552 74.2668543,51.7537531 74.667085,52.1173607 C76.138691,53.5042793 77.3615136,55.051733 77.2105797,56.8995572 C77.0906626,58.3676545 76.1029127,59.9843285 73.8474594,61.8334218 C68.7563135,65.3517419 63.057336,67.9022369 57.0412289,69.357465 L57.0412289,69.357465 L56.4302381,69.5012906 C44.0687267,72.4419853 31.8301142,72.104951 22.0054059,68.7124188 C12.7095279,65.502495 5.57544641,59.5531633 2.61278608,51.0369096 C-0.344654141,42.5356613 1.67072978,33.7832061 7.14385656,26.0363062 C12.9378851,17.835188 22.5986259,10.7577758 34.4017081,6.25653214 Z"/>
    <path stroke="url(#deepin-draw-d)" d="M56.7661452,48.3362692 C59.1623677,47.5612579 61.5851239,47.5752676 63.5563801,48.2563604 C65.4372531,48.9062246 66.9077562,50.1673918 67.4923406,51.9403623 C68.0771952,53.7141525 67.6395728,55.5985334 66.5066051,57.2302617 C65.3187506,58.9410394 63.3687713,60.3781494 60.9726338,61.1588738 C58.6704804,61.9097957 56.3404191,61.9253832 54.4112925,61.3169951 C52.5608433,60.7334195 51.0779172,59.5731904 50.3941805,57.925433 C49.7570094,55.9862215 50.1393003,54.0236257 51.2313501,52.3510631 C52.3940508,50.570293 54.3536834,49.1165327 56.7661452,48.3362692 Z"/>
    <path fill="url(#deepin-draw-e)" fill-rule="nonzero" stroke="url(#deepin-draw-f)" d="M20.9975364,21.1456568 C22.4173099,20.5705402 23.5360471,20.7440914 24.1127127,20.9206576 C24.6099915,21.0728213 24.9035531,21.4005364 25.16783,21.7545719 L25.3632723,22.022702 C25.6790861,22.4564987 26.0058152,22.8897438 26.484108,23.213976 C26.9278329,23.5143841 27.4816437,23.6923375 28.0569635,23.8680156 C28.8140775,24.0992059 29.6376431,24.3115335 30.1258198,25.0665993 C30.3179643,25.3653874 30.2857021,25.8672101 30.122232,26.4304056 C29.9409169,27.0550814 29.5722753,27.7597862 29.0082439,28.4467329 C28.1024256,29.5499494 26.6959554,30.6004751 24.7381487,31.2121472 C22.8841346,31.7872453 21.2594064,31.8696402 19.9466032,31.6089938 C18.5353018,31.3287914 17.4902893,30.6533478 16.96124,29.7720973 C16.3424065,28.7516534 16.1617619,27.6802182 16.2880838,26.6702398 C16.4352731,25.4934212 16.9944381,24.4008361 17.7548473,23.5633325 C18.9250403,22.2750833 20.0265615,21.5389757 20.9975364,21.1456568 Z"/>
    <path fill="url(#deepin-draw-g)" fill-rule="nonzero" stroke="url(#deepin-draw-h)" d="M13.4606217,38.3878685 C14.8845505,37.8165043 16.0091154,37.9989997 16.5877907,38.1741886 C17.2069748,38.3617337 17.50923,38.8262613 17.8351445,39.274435 C18.1537896,39.7126124 18.4842178,40.1512463 18.9711978,40.4796834 C19.4165229,40.7778064 19.9678502,40.9556376 20.5395689,41.1313489 C21.3019952,41.3656721 22.1296264,41.5811408 22.6225612,42.346018 C22.8164168,42.6467861 22.7870417,43.1505724 22.6250797,43.7154223 C22.4459854,44.3400219 22.0797404,45.0437452 21.5178463,45.7284295 C20.6155571,46.8278952 19.2120608,47.8713416 17.2534814,48.472258 C15.4036703,49.0428579 13.7801744,49.1191887 12.4664939,48.8528224 C11.050209,48.5656518 9.99970469,47.8813689 9.46634909,46.9962671 C8.84751409,45.9696228 8.6632589,44.8930046 8.78599435,43.879894 C8.92812344,42.7066999 9.47757363,41.6194723 10.2324866,40.7884752 C11.3952751,39.5066176 12.49218,38.7764644 13.4606217,38.3878685 Z"/>
    <path fill="url(#deepin-draw-i)" fill-rule="nonzero" stroke="url(#deepin-draw-j)" d="M72.0435391,18.9109049 C73.4662264,18.3258841 74.5829477,18.4879785 75.1557593,18.6624404 C75.7782037,18.8514934 76.0802309,19.3106109 76.4051179,19.7540792 C76.7154906,20.1777356 77.036805,20.6018538 77.511077,20.9281566 C77.9532652,21.223691 78.5054819,21.3962875 79.0787475,21.566142 C79.8314962,21.7891761 80.6512131,21.9911735 81.1309871,22.7428109 C81.3207361,23.0392246 81.2833903,23.5389085 81.1165153,24.1007147 C80.9305112,24.7269212 80.5561965,25.4348896 79.9862147,26.1274882 C79.070329,27.2404029 77.6525657,28.3067381 75.6863007,28.9409655 C73.8315089,29.5276099 72.2084533,29.6205465 70.8988395,29.3688619 C69.4933114,29.0987443 68.4547755,28.4328254 67.934423,27.5605247 C67.3297062,26.5452126 67.1590352,25.4751508 67.2931506,24.4644483 C67.4489154,23.2905943 68.0112291,22.197305 68.7765791,21.3555646 C69.9580866,20.0575862 71.0675752,19.3122293 72.0435391,18.9109049 Z"/>
    <path fill="url(#deepin-draw-k)" fill-rule="nonzero" stroke="url(#deepin-draw-l)" d="M41.315332,8.41695586 C42.7376532,7.82761016 43.8499959,7.98580463 44.4203098,8.16072881 C45.0333482,8.34498386 45.3258969,8.79583984 45.6426611,9.23220797 C45.9550361,9.66252953 46.2798391,10.0943148 46.7694038,10.4230846 C47.1892009,10.6984975 47.704125,10.866225 48.2376158,11.022743 C49.270057,11.3336787 49.9665578,11.5565382 50.3833852,12.2219487 C50.5722259,12.5171923 50.5322368,13.0165632 50.3634204,13.5778839 C50.1749587,14.2045262 49.797703,14.9132142 49.2245741,15.6063166 C48.304588,16.718884 46.8832101,17.7844618 44.9109135,18.4177637 C43.0598686,19.0182564 41.4399933,19.1216496 40.1330979,18.8772116 C38.7313877,18.6150397 37.6958204,17.9536923 37.1777898,17.0817226 C36.5755848,16.0718248 36.4083261,15.004084 36.5447669,13.9942129 C36.703678,12.8180267 37.2698918,11.7206434 38.0364051,10.8766057 C39.2246941,9.57227506 40.3378605,8.82197598 41.315332,8.41695586 Z"/>
    <path fill="url(#deepin-draw-m)" fill-rule="nonzero" stroke="url(#deepin-draw-n)" stroke-width=".75" d="M36.540058,60.8687633 C44.8280924,56.1953963 57.1796255,44.6282842 59.3911995,42.5136385 C70.3631828,31.9404099 80.1127911,20.6819879 81.75,15.8605957 C81.1326917,15.2209154 80.4992798,14.6182413 79.8497641,14.047287 C74.862987,15.6332713 62.7461357,24.3805515 51.8278313,34.9167737 C49.9329633,36.7459423 48.1239817,38.5645376 46.427726,40.3355534 C46.0036621,40.779629 45.8909362,40.943514 45.4561365,41.3928763 L44.7368382,42.1647219 C44.7368382,42.1647219 34.0869287,55.3548246 33.6682326,56.0632309 C28.2573915,61.9102263 25.5751506,66.4518519 25.5,70.1154756 C27.9261583,70.8632666 31.0104544,71.7124065 33.6682326,72 C34.3611142,71.0826889 34.8356137,70.8473238 35.3644884,69.8295746 C37.119791,66.4620012 36.5239543,60.8634767 36.540058,60.8687633 Z" filter="url(#deepin-draw-o)" opacity=".397" style="mix-blend-mode:multiply"/>
    <g transform="rotate(39 35.59 103.992)">
      <path fill="url(#deepin-draw-p)" fill-rule="nonzero" d="M4.53200758,0.158272743 L3.81761893,0.158272743 C3.33237761,0.158272743 2.92901843,0.460087113 2.89207112,0.850825386 C1.66198243,13.8565057 1.01278146,26.7607087 0.944444554,39.5632618 L0.938414825,41.8214806 L0.942729146,44.4742658 C0.980994278,56.0226415 1.27377453,64.7121244 1.81976995,70.533561 L1.88266241,71.1803388 L1.90622828,71.40725 L6.44201121,71.40725 L6.54943013,69.811281 C7.09269469,61.3537624 7.38696831,52.8093033 7.43224124,44.1778964 L7.43841483,41.8217207 C7.43841483,33.0158616 6.9213338,21.3051614 5.88700783,6.69336427 L5.76995413,5.05789277 L5.45848566,0.861949782 C5.43056187,0.494777706 5.07861089,0.202754692 4.63572111,0.162910445 L4.53200758,0.158272743 Z"/>
      <path fill="url(#deepin-draw-q)" fill-rule="nonzero" d="M4.53200758,0.158272743 L4.63572111,0.162910445 C5.03834819,0.199132488 5.36581922,0.443766734 5.44301147,0.763808148 L5.45848566,0.861949782 L5.76995413,5.05789277 L5.95519661,7.66318612 L6.21262616,11.4565102 L6.33214575,13.3015907 L6.60412613,17.7638303 L6.70219107,19.4885363 L6.7941263,21.1788451 L6.92053614,23.6498092 L7.03315462,26.0433686 L7.13198205,28.3595166 L7.2170187,30.5982466 L7.28826488,32.7595518 L7.3281011,34.157405 L7.37636379,36.1896542 L7.41083678,38.144461 L7.42615797,39.4046387 L7.43535063,40.6303926 L7.43841483,41.8217207 L7.43224124,44.1778964 C7.3914956,51.9461626 7.14905941,59.6440011 6.70493976,67.2714172 L6.54943013,69.811281 L6.44201121,71.40725 L1.90622828,71.40725 L1.81976995,70.533561 L1.71394746,69.3310358 L1.61487967,68.0520456 L1.52256892,66.6966067 L1.46478346,65.7505173 L1.38373955,64.2677001 L1.30945883,62.7084777 L1.24194362,61.0728661 L1.16245143,58.7732516 L1.09499639,56.3379018 L1.03958396,53.7668554 L1.00593091,51.7495428 L0.964908893,48.2178269 L0.9456572,45.239922 L0.942729146,44.4742658 L0.938414825,41.8214806 L0.944444554,39.5632618 C1.01278146,26.7607087 1.66198243,13.8565057 2.89207112,0.850825386 C2.92593949,0.492648636 3.26769561,0.209192665 3.69817914,0.164437342 L3.81761893,0.158272743 L4.53200758,0.158272743 Z M4.477,1.158 L3.867,1.158 L3.66430113,3.3768335 C2.65380429,14.7198903 2.08704914,25.9849982 1.96401403,37.170303 L1.94444099,39.5659319 L1.9384135,41.8198543 L1.94272366,44.4709524 L1.95890785,47.4744689 L1.97892714,49.638312 L2.00569622,51.725988 L2.05187947,54.3909837 L2.09437887,56.3007338 L2.14361161,58.1341432 L2.19957275,59.8911598 L2.28464548,62.1149256 L2.38165935,64.2026661 L2.43464056,65.1954883 L2.51970109,66.6208683 L2.6114637,67.9695779 L2.70992346,69.2415651 L2.812,70.407 L5.507,70.407 L5.5514868,69.7471786 C6.0392893,62.1530909 6.32588169,54.4885667 6.41124368,46.7555009 L6.43224467,44.1752763 L6.4384135,41.8217207 L6.43535573,40.6338511 L6.42617838,39.4115031 L6.40094038,37.5133466 L6.37646692,36.2048277 L6.32828428,34.177442 L6.26633439,32.072545 L6.19061689,29.8901561 L6.10113144,27.630295 L5.96040008,24.4966683 L5.79519089,21.2253944 L5.65521993,18.6816358 L5.44717256,15.1695907 L5.275072,12.445307 L5.02418389,8.69263291 L4.8895593,6.7647535 L4.77269791,5.13191996 L4.477,1.158 Z"/>
      <use fill="url(#deepin-draw-r)" fill-rule="nonzero" xlink:href="#deepin-draw-s"/>
      <use fill="url(#deepin-draw-t)" fill-rule="nonzero" xlink:href="#deepin-draw-u"/>
    </g>
    <g fill-rule="nonzero" transform="rotate(2 -1580.417 522.136)">
      <path fill="#A06C5C" d="M17.307061,3.53911471 C16.6164298,3.14994804 15.0504487,2.02729131 14.4644586,1.59715972 C13.8784684,1.16702814 13.2982252,0.83255671 12.8116441,0.438269426 C9.59916258,0.120791352 5.26962866,1.98295276 3.05123748,6.30475105 C-0.203100513,12.5877445 0.906095074,21.0009135 0.906095074,21.0009135 C0.906095074,21.0009135 10.2086883,18.9526678 14.687327,14.4362862 C18.1980357,10.9133037 18.9499262,6.31448754 17.307061,3.53911471 Z"/>
      <path fill="url(#deepin-draw-v)" d="M16.9995099,3.56843945 C16.3634875,3.22030036 15.3768293,2.36873241 14.7418573,1.8976936 C14.1068853,1.42665478 16.9804283,5.64245561 14.2261892,10.2610929 C10.9519197,15.7540218 1.12682926,19.9491796 1.12682926,19.9491796 C1.12682926,19.9491796 9.92661001,18.0323374 14.4929382,13.5760994 C17.7237133,10.4232154 18.5894474,6.27756768 16.9995099,3.56843945 Z" opacity=".208" transform="rotate(-2 9.45 10.905)" style="mix-blend-mode:multiply"/>
      <path fill="url(#deepin-draw-w)" d="M9.19964792,16.8939033 C9.92127976,16.4302446 10.6155768,15.9299966 11.2794666,15.3953728 C11.9522829,14.8552773 12.5866025,14.2740984 13.1783188,13.6555987 C13.7730471,13.0379622 14.306051,12.3700616 14.7705799,11.6603557 C13.6540366,12.9008869 12.3956045,14.0217867 11.0180572,15.0027707 C10.3398506,15.4754866 9.65661921,15.948201 8.9482494,16.3736159 C7.76247855,17.0420369 6.49790965,17.5780968 5.18012303,17.970952 C6.24714009,17.2958019 7.27199643,16.5634519 8.24961941,15.7775268 C8.75198042,15.3804252 9.21916342,14.9691254 9.68634068,14.5389088 C9.91741619,14.3214352 10.1484917,14.1039615 10.3695147,13.8770265 C10.5905377,13.6500914 10.811555,13.4042396 11.0124787,13.1772984 C10.0077395,13.9147513 8.97785899,14.5954462 7.95803815,15.3092485 C6.93821731,16.0230508 5.68219862,16.6327398 5.05923775,17.0156175 C6.7421018,15.5358844 9.41930117,12.1505834 10.5243215,10.7037809 C11.081858,9.98511038 11.6092398,9.247514 12.1114932,8.49572246 C12.6167206,7.74942472 13.0810516,6.97927549 13.502667,6.18829194 C12.9535062,6.91011777 12.3926166,7.61775249 11.819998,8.31119608 C11.2524062,9.01094678 10.6697357,9.69650536 10.0820389,10.3773332 C8.89994456,11.7358341 7.68434192,13.062797 6.43523095,14.3582218 C5.18444504,15.653646 4.11950844,16.7221247 3.02444733,17.8709906 C3.02444733,17.8709906 5.69101188,12.5561734 6.38408206,11.3882698 C7.07715224,10.2203662 7.77022242,9.05246255 8.47836275,7.87037587 C7.53438589,8.90221697 6.66673802,9.99380916 5.88152455,11.1374712 C5.08794804,12.2722402 4.37477859,13.4401377 3.67669077,14.6316858 C2.97860294,15.8232339 2.37599234,17.0337275 1.81358599,18.26315 L1.61273683,18.7360095 C1.72813258,18.159082 1.85357797,17.5821575 1.98907299,17.005236 C2.37395949,15.4010617 2.86690886,13.8216202 3.46493426,12.2764814 C4.07723707,10.6994556 4.82109012,9.17053648 5.68954029,7.70401539 C5.91052027,7.33520436 6.14155131,6.97112555 6.37760717,6.60704825 C6.61366303,6.24297095 6.87987064,5.88836111 7.12598044,5.53847443 C7.64059407,4.82543858 8.20614706,4.14618987 8.8187263,3.50542808 C8.46388463,3.77090614 8.12824096,4.05834646 7.81402437,4.3658401 C7.48750463,4.67313982 7.17606507,4.99936087 6.86964603,5.31139583 C6.26848593,5.98420886 5.71478731,6.69336206 5.21210112,7.43430753 C4.21446556,8.90392923 3.39098039,10.4720984 2.75638517,12.1107464 C2.13759644,13.6950667 1.68536944,15.3327614 1.40619303,17.0003316 C1.29249803,17.6623851 1.20895096,18.321295 1.15555182,18.9770611 C1.20097165,19.624975 1.25635936,20.0033275 1.25635936,20.0033275 C2.6161087,19.7525405 3.9584182,19.4244514 5.27591293,19.0208628 C5.86876172,18.7593588 6.45657948,18.47736 7.03936621,18.1748665 C7.75276801,17.7730992 8.50636259,17.3524271 9.19964792,16.8939033 Z" opacity=".246" transform="rotate(-2 7.963 11.754)" style="mix-blend-mode:multiply"/>
      <path fill="url(#deepin-draw-x)" d="M7.30245151,4.20161365 C5.59258066,5.7249843 3.90300501,8.73208399 3.32966553,9.66083041 C3.59033664,8.58611958 3.99031912,7.55969443 4.5169349,6.61408911 C5.04727998,5.63340528 5.68657317,4.73148728 6.41961018,3.92978543 C7.13787296,3.10862333 7.97926857,2.43399166 8.90577254,1.93637848 C9.73820329,1.49625875 10.6650617,1.32743982 11.5796655,1.44935291 C10.038761,2.12316211 8.59701547,3.05088274 7.30245151,4.20161365 Z" opacity=".16"/>
      <path fill="url(#deepin-draw-y)" d="M10.3617702 4.8244902C9.91203171 5.21845907 9.48321126 5.62556024 9.07007936 6.04141627 8.24197824 6.87300512 7.48196638 7.75049097 6.79523915 8.66787541 5.22877019 10.6500809 3.87930608 12.7466267 2.76328099 14.9319805 3.48762153 12.6131424 4.6587022 10.4086496 6.23045124 8.4052295 6.94389047 7.4535428 7.7728056 6.56605568 8.70401312 5.75688319 9.16403855 5.35727754 9.65119117 4.98019337 10.1630486 4.62750576 10.6625184 4.27389342 11.1979681 3.95751358 11.763281 3.68198047 11.2717063 4.04968475 10.8115088 4.43052133 10.3617702 4.8244902zM12.6175226 6.65397833C11.7417355 7.7201548 9.36680708 10.5280592 8.25404234 11.9710739 7.53795763 12.8901916 4.64786032 16.6677651 3.6175226 17.9039783 5.4944886 16.1037777 7.24755263 14.2038558 8.86709329 12.2146401 10.2643314 10.4432653 11.5176756 8.58496518 12.6175226 6.65397833L12.6175226 6.65397833z" opacity=".16"/>
      <path fill="url(#deepin-draw-z)" d="M10.6138798,7.45921614 C10.2163507,8.15223649 9.57088413,9.35078318 9.00508042,10.2369919 C8.64035034,10.8050762 7.26522347,13.3612171 6.82552564,14.2132473 C7.29954144,12.7435879 7.91357396,11.3462767 8.65504122,10.0499456 C9.22046168,9.09430865 9.87811856,8.22450187 10.6138798,7.45921614 Z" opacity=".16" transform="rotate(6 8.72 10.836)"/>
      <path fill="url(#deepin-draw-A)" d="M14.0633777,6.5511068 C12.893059,8.42289824 11.6281188,10.4771763 10.4328996,12.0309196 C9.24991867,13.5564269 7.95623585,14.9840626 6.56337772,16.3011068 C8.24941957,15.1488665 9.78462679,13.771191 11.1301108,12.2029785 C12.4145006,10.5120408 13.4071497,8.59938662 14.0633777,6.5511068 L14.0633777,6.5511068 Z" opacity=".16"/>
    </g>
  </g>
</svg>
