<svg xmlns="http://www.w3.org/2000/svg" xmlns:xlink="http://www.w3.org/1999/xlink" width="96" height="96" viewBox="0 0 96 96">
  <defs>
    <filter id="deepin-clone-a" width="129%" height="129%" x="-14.5%" y="-14.5%" filterUnits="objectBoundingBox">
      <feOffset dy="2" in="SourceAlpha" result="shadowOffsetOuter1"/>
      <feGaussianBlur in="shadowOffsetOuter1" result="shadowBlurOuter1" stdDeviation="2"/>
      <feColorMatrix in="shadowBlurOuter1" result="shadowMatrixOuter1" values="0 0 0 0 0   0 0 0 0 0   0 0 0 0 0  0 0 0 0.2 0"/>
      <feMerge>
        <feMergeNode in="shadowMatrixOuter1"/>
        <feMergeNode in="SourceGraphic"/>
      </feMerge>
    </filter>
    <radialGradient id="deepin-clone-b" cx="50%" cy="25.629%" r="79.433%" fx="50%" fy="25.629%">
      <stop offset="0%" stop-color="#429E61"/>
      <stop offset="100%" stop-color="#006174"/>
    </radialGradient>
    <linearGradient id="deepin-clone-e" x1="50%" x2="50%" y1="0%" y2="100%">
      <stop offset="0%" stop-color="#157245"/>
      <stop offset="100%" stop-color="#043742"/>
    </linearGradient>
    <circle id="deepin-clone-c" cx="44" cy="44" r="44"/>
    <filter id="deepin-clone-d" width="104%" height="104%" x="-2%" y="-2%" filterUnits="objectBoundingBox">
      <feOffset dy="-2" in="SourceAlpha" result="shadowOffsetInner1"/>
      <feComposite in="shadowOffsetInner1" in2="SourceAlpha" k2="-1" k3="1" operator="arithmetic" result="shadowInnerInner1"/>
      <feColorMatrix in="shadowInnerInner1" result="shadowMatrixInner1" values="0 0 0 0 0   0 0 0 0 0   0 0 0 0 0  0 0 0 0.196186626 0"/>
      <feOffset dy="1" in="SourceAlpha" result="shadowOffsetInner2"/>
      <feComposite in="shadowOffsetInner2" in2="SourceAlpha" k2="-1" k3="1" operator="arithmetic" result="shadowInnerInner2"/>
      <feColorMatrix in="shadowInnerInner2" result="shadowMatrixInner2" values="0 0 0 0 1   0 0 0 0 1   0 0 0 0 1  0 0 0 0.379097465 0"/>
      <feMerge>
        <feMergeNode in="shadowMatrixInner1"/>
        <feMergeNode in="shadowMatrixInner2"/>
      </feMerge>
    </filter>
    <linearGradient id="deepin-clone-h" x1="50%" x2="50%" y1="0%" y2="100%">
      <stop offset="0%" stop-color="#FFF"/>
      <stop offset="100%" stop-color="#FFF" stop-opacity=".6"/>
    </linearGradient>
    <path id="deepin-clone-g" d="M39.3389831,0 L39.9895251,0.00527029979 C61.4157954,0.352664619 78.6779661,17.8299258 78.6779661,39.3389831 C78.6779661,61.0653035 61.0653035,78.6779661 39.3389831,78.6779661 L39.3389831,78.6779661 L38.6904388,78.6727281 C38.6860989,78.672658 38.6817592,78.6725871 38.6774197,78.6725156 L38.6903557,78.6726961 C38.4877027,78.6694016 38.2853139,78.6645653 38.0832028,78.658195 L38.6774197,78.6725156 C38.4415297,78.6686261 38.2061447,78.6626603 37.9712824,78.6546357 L38.0832028,78.658195 C37.8765599,78.651682 37.6702074,78.6435655 37.4641598,78.6338541 L37.9712824,78.6546357 C37.7503792,78.6470881 37.5299384,78.6377192 37.3099744,78.6265435 L37.4641598,78.6338541 C37.2902102,78.6256555 37.1164779,78.6163202 36.9429718,78.6058533 L37.3099744,78.6265435 C37.0751732,78.614614 36.8409153,78.6006257 36.6072184,78.5845964 L36.9429718,78.6058533 C36.7768514,78.5958319 36.6109383,78.5847733 36.4452403,78.5726818 L36.6072184,78.5845964 C36.4172475,78.5715663 36.2276473,78.5571875 36.0384274,78.5414694 L36.4452403,78.5726818 C36.2631029,78.5593907 36.0812254,78.5448517 35.8996179,78.5290707 L35.8992557,78.5296614 C35.2000366,78.4682798 34.5044625,78.3890594 33.8134818,78.2917505 L33.8132679,78.2929304 C30.1368746,77.773984 26.5903106,76.7441058 23.2620663,75.2534938 C22.9293698,75.1043874 22.599099,74.9507312 22.271355,74.7926643 L22.3935094,74.8516762 C22.2116585,74.7648329 22.0304984,74.6765951 21.8500442,74.5869715 L22.271355,74.7926643 C22.0921287,74.7062257 21.9136581,74.6184681 21.7359558,74.5294041 L21.8500442,74.5869715 C21.6817635,74.5033941 21.5140966,74.4186115 21.3470556,74.3326309 L21.7359558,74.5294041 C21.5579431,74.4401845 21.3807014,74.349654 21.2042433,74.2578252 L21.2041719,74.2587132 C18.3243207,72.7591133 15.6531189,70.9145762 13.2456844,68.7792602 L13.244731,68.7800797 C12.4332924,68.058695 11.6509365,67.3050179 10.9007319,66.520344 L11.1235994,66.7520392 C10.9959842,66.6206399 10.8692019,66.488278 10.7432633,66.3549599 L10.9007319,66.520344 C10.7775448,66.3914968 10.6552246,66.2618139 10.5337806,66.1313046 L10.7432633,66.3549599 C10.6095963,66.2134605 10.4768799,66.0708839 10.3451267,65.9272376 L10.5337806,66.1313046 C10.411916,66.0003432 10.2909337,65.8685497 10.1708433,65.7359335 L10.3451267,65.9272376 C10.2034647,65.7727878 10.0629164,65.6171015 9.92349787,65.4601877 L10.1708433,65.7359335 C10.0367578,65.5878626 9.90378412,65.438766 9.77193538,65.2886571 L9.77236296,65.2891023 L9.67070973,65.1729598 L9.67070973,65.1729598 L9.68790722,65.1926315 C8.8755039,64.2616331 8.97164417,62.8483268 9.90264251,62.0359235 C10.8336409,61.2235202 12.2469472,61.3196604 13.0593505,62.2506588 C19.6421241,69.7943889 29.130993,74.2033898 39.3389831,74.2033898 C58.5940632,74.2033898 74.2033898,58.5940632 74.2033898,39.3389831 C74.2033898,20.0839029 58.5940632,4.47457627 39.3389831,4.47457627 C20.0839029,4.47457627 4.47457627,20.0839029 4.47457627,39.3389831 C4.47457627,39.4633522 4.47522657,39.5876374 4.47652618,39.7118352 L12.4915254,39.7118644 L4.05697001,56.7580617 C1.45968013,51.5073423 -1.29318778e-12,45.5936259 -1.29318778e-12,39.3389831 L0.002,39.525 L-2.58637556e-12,39.3389831 C-2.58637556e-12,39.0530904 0.00304970994,38.7679101 0.00911837227,38.4834729 C0.0188297373,38.0284674 0.0362493356,37.57567 0.061258113,37.124897 C0.0759762322,36.8596053 0.0933252982,36.5949839 0.11327797,36.3310895 C0.15655381,35.7586998 0.212092548,35.1896139 0.279623658,34.6242113 L0.279587865,34.624511 C0.34471144,34.0792654 0.420939507,33.5377411 0.508073625,32.9998726 C0.541445811,32.79389 0.576312364,32.5890326 0.612756165,32.3847213 L0.612795135,32.3845029 C0.689078324,31.956844 0.772318065,31.531362 0.86235559,31.1083951 L0.862243738,31.1089206 C0.932612542,30.7783509 1.00700853,30.449838 1.08548663,30.1229135 C1.14823309,29.8615175 1.21364418,29.6009272 1.28164,29.3413831 C1.39041374,28.9261695 1.50591979,28.5132396 1.62793391,28.103112 L1.53801055,28.4099661 C1.60224581,28.1873956 1.66839355,27.9656362 1.73643485,27.7447067 L1.62793391,28.103112 C1.68244285,27.9198904 1.73825067,27.7372282 1.79534668,27.5551358 L1.73643485,27.7447067 C1.79893171,27.54178 1.86302609,27.3395535 1.92870332,27.1380418 L1.79534668,27.5551358 C1.857338,27.3574313 1.92084788,27.1603986 1.98586266,26.9640515 L1.92870332,27.1380418 C1.98611678,26.9618852 2.04473983,26.7862749 2.10456265,26.6112207 L2.10452715,26.6113246 C2.20380585,26.3208142 2.30635097,26.0319383 2.41215324,25.7446376 C2.54563167,25.3821865 2.68425876,25.0223304 2.82797744,24.6650702 L2.76876819,24.8131261 C2.81966691,24.685094 2.87121853,24.5573923 2.92341893,24.4300252 L2.9234313,24.429995 C3.08554777,24.0344366 3.25393513,23.6420757 3.42845788,23.2530655 L3.29914422,23.5444786 C3.38977034,23.3379836 3.48211913,23.1324162 3.5761724,22.9277946 L3.42845788,23.2530655 C3.51064279,23.0698758 3.59418828,22.8874291 3.67908148,22.7057383 L3.5761724,22.9277946 C3.65629187,22.7534872 3.7376482,22.5798661 3.82023014,22.4069425 L3.67908148,22.7057383 C3.76380764,22.5244051 3.8498762,22.3438248 3.9372744,22.1640103 L3.82023014,22.4069425 C3.91230318,22.2141449 4.00589974,22.0222144 4.10100424,21.8311666 L3.9372744,22.1640103 C4.03990883,21.9528484 4.1443769,21.7427425 4.25065789,21.5337133 L4.10100424,21.8311666 C4.17247106,21.6876026 4.24478939,21.544537 4.31795262,21.4019764 L4.25065789,21.5337133 C4.34717186,21.3438934 4.44518086,21.1549615 4.54466938,20.9669329 L4.31795262,21.4019764 C4.41577085,21.211375 4.51509937,21.0216762 4.61592238,20.8328961 L4.54466938,20.9669329 C4.62912069,20.807324 4.71463807,20.648366 4.80121204,20.4900684 L4.61592238,20.8328961 C4.71827175,20.6412579 4.82216121,20.4505664 4.92757422,20.2608379 L4.80121204,20.4900684 C4.88297931,20.3405597 4.96568911,20.1916401 5.04933343,20.0433177 L4.92757422,20.2608379 C5.0230778,20.0889451 5.11983195,19.9178428 5.21782438,19.7475433 L5.04933343,20.0433177 C5.15440824,19.8569936 5.2609578,19.6716118 5.36896627,19.4871882 L5.21782438,19.7475433 C5.32662374,19.5584626 5.43694957,19.3703716 5.54878503,19.183287 L5.36896627,19.4871882 C5.48228101,19.2937041 5.59720153,19.1012746 5.71370954,18.9099179 L5.54878503,19.183287 C5.6367902,19.0360672 5.72573019,18.8894706 5.8155968,18.7435054 L5.71370954,18.9099179 C5.83451377,18.711505 5.95702472,18.5142456 6.081222,18.3181601 L5.8155968,18.7435054 C5.92537349,18.5652015 6.03653289,18.3878398 6.14906004,18.2114353 L6.081222,18.3181601 C6.18039019,18.161591 6.28063353,18.0057703 6.38194162,17.8507084 L6.14906004,18.2114353 C6.25106529,18.0515256 6.35419447,17.8924025 6.45843645,17.7340771 L6.38194162,17.8507084 C6.47405312,17.7097228 6.56704482,17.5693645 6.66090895,17.4296412 L6.45843645,17.7340771 C6.58337475,17.5443175 6.70991158,17.3557039 6.83802779,17.1682553 L6.66090895,17.4296412 C6.78175167,17.2497584 6.90404037,17.0709283 7.02775842,16.8931674 L6.83802779,17.1682553 C6.9388631,17.0207218 7.04067677,16.8739099 7.14345947,16.7278292 L7.02775842,16.8931674 C7.13922762,16.7330059 7.25185714,16.5737124 7.36563481,16.4152991 L7.14345947,16.7278292 C7.26962671,16.5485129 7.39725406,16.3702983 7.52632425,16.1932024 L7.36563481,16.4152991 C7.46741713,16.273587 7.57011827,16.1325792 7.67372951,15.9922846 L7.52632425,16.1932024 C7.64507281,16.0302687 7.76504267,15.8682821 7.88622037,15.707256 L7.67372951,15.9922846 C7.79763768,15.8245069 7.92284743,15.6577491 8.04934387,15.4920261 L7.88622037,15.707256 C8.00411147,15.5505972 8.12314578,15.3948475 8.24331091,15.2400194 L8.04934387,15.4920261 C8.17220203,15.3310695 8.29627391,15.171089 8.42154587,15.0120983 L8.24331091,15.2400194 C8.36993352,15.076871 8.49781174,14.9147458 8.62693108,14.7536583 L8.42154587,15.0120983 C8.54748602,14.8522595 8.67463908,14.6934211 8.80299117,14.5355968 L8.62693108,14.7536583 C8.74618147,14.6048832 8.86649051,14.4569932 8.98784677,14.3099998 L8.80299117,14.5355968 C8.93475156,14.3735817 9.06777551,14.2126353 9.202048,14.0527727 L8.98784677,14.3099998 C9.11269046,14.1587822 9.23864242,14.0085134 9.36569022,13.8592059 L9.202048,14.0527727 C9.33644361,13.8927635 9.47209005,13.7338402 9.60897226,13.5760176 L9.36569022,13.8592059 C9.49325579,13.7092899 9.62192615,13.560343 9.75168871,13.4123778 L9.60897226,13.5760176 C9.72669799,13.4402822 9.84533781,13.305361 9.96488213,13.1712637 L9.75168871,13.4123778 C9.91246068,13.2290532 10.0749092,13.0472357 10.2390104,12.866949 L9.96488213,13.1712637 C10.1105518,13.0078605 10.2575645,12.8456807 10.405903,12.6847416 L10.2390104,12.866949 C10.3445883,12.7509579 10.4508502,12.6356005 10.5577898,12.5208831 L10.405903,12.6847416 C10.5286439,12.5515743 10.6522925,12.4192565 10.776839,12.2877978 L10.5577898,12.5208831 C10.7150521,12.3521831 10.8737798,12.1848673 11.0339529,12.0189559 L10.776839,12.2877978 C10.9071577,12.1502466 11.0384594,12.0136361 11.1707328,11.8779775 L11.0339529,12.0189559 C11.1717694,11.8762021 11.3106559,11.734488 11.4505994,11.5938266 L11.1707328,11.8779775 C11.3106501,11.7344794 11.4516547,11.5920465 11.5937333,11.4506921 L11.4505994,11.5938266 C11.5826682,11.4610803 11.7156784,11.3292715 11.8496193,11.1984111 L11.5937333,11.4506921 C11.7540583,11.2911844 11.9157509,11.1330498 12.0787918,10.9763077 L11.8496193,11.1984111 C11.9785541,11.0724416 12.1083512,10.947351 12.2390009,10.8231488 L12.0787918,10.9763077 C12.2223981,10.8382495 12.3670505,10.7012715 12.5127359,10.5653867 L12.2390009,10.8231488 C12.3981112,10.6718908 12.558486,10.5219504 12.7201079,10.3733454 L12.5127359,10.5653867 C12.6482962,10.4389461 12.7847509,10.313452 12.9220895,10.1889151 L12.7201079,10.3733454 C12.8620622,10.2428239 13.0049786,10.1133325 13.1488451,9.98488294 L12.9220895,10.1889151 C13.1045243,10.0234855 13.2885187,9.8597449 13.4740482,9.69771786 L13.1488451,9.98488294 C13.2754764,9.87182172 13.4028439,9.75956771 13.5309394,9.64812902 L13.4740482,9.69771786 C13.6141018,9.57540592 13.7550301,9.45407047 13.8968226,9.33372212 L13.5309394,9.64812902 C13.6940228,9.50625215 13.8582862,9.3656968 14.0237131,9.22647965 L13.8968226,9.33372212 C14.0208657,9.22843878 14.1455701,9.12391088 14.2709288,9.02014554 L14.0237131,9.22647965 C14.2145644,9.06586626 14.4069643,8.907034 14.6008871,8.75000849 L14.2709288,9.02014554 C14.4344474,8.88479334 14.5990792,8.75073861 14.7648084,8.61799712 L14.6008871,8.75000849 C14.7348395,8.64154293 14.8695185,8.53393944 15.0049158,8.42720645 L14.7648084,8.61799712 C14.9242917,8.49025821 15.0847913,8.36373542 15.246293,8.23844282 L15.0049158,8.42720645 C15.1594393,8.30539634 15.3148982,8.18472004 15.4712801,8.0651901 L15.246293,8.23844282 C15.4036154,8.11639253 15.5618888,7.99550959 15.7211,7.87580698 L15.4712801,8.0651901 C15.6323162,7.9421027 15.794331,7.82023091 15.9573107,7.69958843 L15.7211,7.87580698 C15.8865279,7.75143049 16.0529683,7.62832831 16.2204068,7.50651502 L15.9573107,7.69958843 C16.0962629,7.59673185 16.2359165,7.49476883 16.376263,7.39370787 L16.2204068,7.50651502 C16.3985792,7.37689269 16.5778817,7.2487298 16.7582968,7.12204391 L16.376263,7.39370787 C16.5579473,7.26288034 16.7407928,7.13356451 16.9247811,7.00577879 L16.7582968,7.12204391 C16.8897265,7.02975508 17.0217467,6.93825008 17.1543505,6.8475357 L16.9247811,7.00577879 C17.1067409,6.87940191 17.2898185,6.75452159 17.473996,6.63115565 L17.1543505,6.8475357 C17.336707,6.72278548 17.5201672,6.59953046 17.7047135,6.47778831 L17.473996,6.63115565 C17.6086987,6.54092892 17.7439898,6.45151225 17.8798623,6.36291261 L17.7047135,6.47778831 C17.8756536,6.36502197 18.0475254,6.25355365 18.2203151,6.14339736 L17.8798623,6.36291261 C18.0523881,6.25041208 18.2258513,6.13922884 18.4002376,6.02937716 L18.2203151,6.14339736 C18.3910814,6.034531 18.5627442,5.92694613 18.7352898,5.8206563 L18.4002376,6.02937716 C18.5861127,5.91228832 18.7730365,5.79671227 18.9609917,5.68266629 L18.7352898,5.8206563 C18.8898593,5.72543999 19.0451372,5.63126293 19.2011139,5.53813486 L18.9609917,5.68266629 C19.1410482,5.57341306 19.3220513,5.465564 19.5039857,5.35913431 L19.2011139,5.53813486 C19.3843035,5.42875899 19.5684569,5.32083008 19.7535584,5.21436391 L19.5039857,5.35913431 C19.6850933,5.2531883 19.8671239,5.14864879 20.0500624,5.04553075 L19.7535584,5.21436391 C19.9204272,5.11838475 20.0880665,5.02359436 20.2564648,4.93000429 L20.0500624,5.04553075 C20.2179987,4.95086908 20.3867002,4.8574053 20.5561552,4.76515101 L20.2564648,4.93000429 C20.4414788,4.8271798 20.6274088,4.72580419 20.8142396,4.62589279 L20.5561552,4.76515101 C20.7339889,4.66833524 20.9126525,4.57285153 21.0921326,4.47871327 L20.8142396,4.62589279 C20.9864441,4.53380314 21.1594138,4.44295742 21.3331367,4.35336764 L21.0921326,4.47871327 C21.2811534,4.37957083 21.4710799,4.28192069 21.6618963,4.1857785 L21.3331367,4.35336764 C21.5096549,4.26233633 21.6869508,4.17260169 21.8650117,4.08417633 L21.6618963,4.1857785 C21.8295427,4.10131045 21.9978761,4.01800638 22.1668858,3.93587689 L21.8650117,4.08417633 C22.0509691,3.99182958 22.237761,3.90091079 22.425373,3.81143433 L22.4253301,3.81145479 C22.7054754,3.67784703 22.9874059,3.54747467 23.2711167,3.42036499 C23.6061022,3.27028062 23.9437785,3.1246582 24.2838611,2.98366867 L24.2839266,2.98364155 C24.8427835,2.75195381 25.4082054,2.53275267 25.9797774,2.32641471 L25.8453395,2.37522545 C26.0201506,2.31139371 26.1955415,2.2487667 26.3715022,2.18735446 L25.9797774,2.32641471 C26.2097696,2.24338735 26.4407576,2.16244271 26.6727186,2.08360357 L26.3715022,2.18735446 C26.5697976,2.11814719 26.7688165,2.05048265 26.9685446,1.98437522 L26.6727186,2.08360357 C26.8508681,2.02305395 27.0295915,1.96374625 27.2088785,1.90569079 L26.9685446,1.98437522 C27.1649848,1.91935605 27.362111,1.85584314 27.5599096,1.79385019 L27.2088785,1.90569079 C27.4168125,1.83835906 27.6255046,1.77271171 27.8349388,1.70876482 L27.5599096,1.79385019 C27.7503919,1.73415027 27.9414977,1.67585994 28.1332148,1.61899142 L27.8349388,1.70876482 C28.0382291,1.64669383 28.2422186,1.586225 28.4468925,1.52737305 L28.1332148,1.61899142 C28.327991,1.56121551 28.5233981,1.50490714 28.7194234,1.45007913 L28.4468925,1.52737305 C28.6890748,1.45773594 28.9322154,1.39036262 29.1762898,1.32527747 L28.7194234,1.45007913 C28.9118617,1.39625441 29.1048957,1.34385636 29.2985134,1.29289711 L29.1762898,1.32527747 C29.3626655,1.27557834 29.5495858,1.22721341 29.7370397,1.18019354 L29.2985134,1.29289711 C29.5041236,1.23878147 29.710392,1.18628838 29.9173041,1.13543236 L29.7370397,1.18019354 C29.8915774,1.14143017 30.0464779,1.10358096 30.201735,1.066652 L29.9173041,1.13543236 C30.1277777,1.08370099 30.3389172,1.03366353 30.5507074,0.98533527 L30.201735,1.066652 C30.4214007,1.01440299 30.6417804,0.963996137 30.8628567,0.915448653 L30.5507074,0.98533527 C30.7405779,0.942008875 30.9309713,0.90005619 31.1218767,0.859488228 L30.8628567,0.915448653 C31.0633403,0.871423232 31.2643969,0.828926925 31.4660136,0.78797258 L31.1218767,0.859488228 C31.3370787,0.813757166 31.5529313,0.769785724 31.7694187,0.727589674 L31.4660136,0.78797258 C31.6273504,0.755200281 31.7890458,0.723415369 31.9510933,0.692624426 L31.7694187,0.727589674 C31.970906,0.688317317 32.1729433,0.650582847 32.3755177,0.614398982 L31.9510933,0.692624426 C32.1568707,0.653524285 32.3632158,0.616026961 32.5701151,0.580145932 L32.3755177,0.614398982 C32.5830766,0.577324787 32.7911995,0.541878442 32.9998726,0.508073625 L32.9990578,0.508205616 C33.8241239,0.374545791 34.6569605,0.266629436 35.4975394,0.185167504 L35.332115,0.201550482 C35.45225,0.18939742 35.5725447,0.177784895 35.6929966,0.166715377 L35.4975394,0.185167504 C35.7087178,0.164701842 35.9203849,0.145905888 36.1325273,0.128793008 L35.6929966,0.166715377 C35.88029,0.149503128 36.0679635,0.133603755 36.2560078,0.119026542 L36.2562955,0.119004238 C36.4617446,0.103077804 36.6679251,0.0887117267 36.8745374,0.0759404715 C37.6892948,0.0255702656 38.5111528,0 39.3389831,0 L39.3389831,0 Z M46.9977013,27.0338983 C61.0578916,39.2918026 52.7476932,52.9099666 52.7476932,52.9099666 C50.4589231,57.4151012 46.740797,60.9596298 42.645066,63.553814 C41.5989744,63.6916096 40.5318759,63.7627119 39.4481774,63.7627119 C31.5681996,63.7627119 24.5659096,60.0033322 20.1355932,54.1795583 C27.5964643,55.4229883 37.7356556,55.7469106 44.9294278,50.6660169 C51.5806986,45.9673732 50.7237056,38.4428376 50.7237056,38.4428376 C50.6135892,32.7192094 46.9977013,27.0338983 46.9977013,27.0338983 Z M33.6500461,15.6610169 C30.6660116,21.1971822 29.148953,28.46666 29.2942093,33.2030128 C29.2942093,33.2030128 29.2931695,33.2345302 29.2925748,33.2943738 L29.2926141,33.4754761 C29.30578,34.9332763 29.6466392,41.8434687 34.8416558,44.4775344 L34.8447503,44.4788394 L34.8691591,44.4886873 C35.2808322,44.6505137 40.2244438,46.4183791 43.6394002,39.4565601 C43.6394002,39.4565601 46.090012,35.3543476 45.0925027,26.0832044 C45.0925027,26.0832044 46.0468505,26.2478656 46.1547542,26.3958221 C46.2626578,26.5425853 48.2624722,33.5335285 46.8573268,39.4207641 C46.8573268,39.4207641 45.563682,46.3389223 39.2033612,47.9211019 C32.8454383,49.5032816 27.8902629,45.6755045 24.5260668,42.0696622 C22.501913,39.9002262 19.685269,34.776588 17.7118644,28.3266566 C20.8639389,22.0691984 26.6643733,17.3619431 33.6500461,15.6610169 Z M46.9411782,16.0338983 C50.5868792,17.2605069 53.8473343,19.3374009 56.4915254,22.0314352 C55.7524171,22.0507142 54.9786622,22.0515214 54.1903589,22.0248518 C54.1903589,22.0248518 47.4746652,22.3481449 43.5299057,24.2605318 L43.3096405,24.3704858 C43.3096405,24.3704858 43.2052994,24.4184484 43.0163656,24.5116106 L42.8341663,24.6024688 C41.8915245,25.0775286 39.6856764,26.2631502 37.4805133,27.9824966 C37.4805133,27.9824966 36.92888,28.2667753 36.8927802,29.2848421 L36.8919784,29.4722097 C36.918295,30.6395942 36.2986587,33.7518147 34.2340017,35.5759285 C34.2340017,35.5759285 32.760272,36.3570017 33.4971369,37.4748901 C33.4971369,37.4748901 34.4923829,38.9646031 35.89434,37.4000423 C35.89434,37.4000423 39.509284,33.5659024 39.7305827,27.3873358 L39.7541289,27.3673537 C39.9257808,27.2244613 41.0246817,26.3557638 42.6804345,26.0835351 C42.6804345,26.0835351 42.6842912,26.1910342 42.6856013,26.3886913 L42.6853783,26.6911358 C42.6692793,28.8263168 42.3265406,36.0685683 38.5511205,40.0064364 L38.5419606,40.0165504 C38.5268113,40.0331338 38.493165,40.0694222 38.4432194,40.1202941 L38.3756016,40.1880127 C37.5613671,40.9903623 34.1411177,43.9111009 32.943292,37.6982263 C32.943292,37.6982263 31.2829538,30.9595082 39.8418302,22.9568278 L39.8615241,22.9365808 C39.9779602,22.8169588 40.6021284,22.1768561 41.5050248,21.2719859 L42.0014657,20.775927 C43.3898789,19.3926946 45.2450274,17.5791137 46.9411782,16.0338983 Z"/>
    <filter id="deepin-clone-f" width="101.3%" height="102.5%" x="-.6%" y="-.6%" filterUnits="objectBoundingBox">
      <feOffset dy="1" in="SourceAlpha" result="shadowOffsetOuter1"/>
      <feColorMatrix in="shadowOffsetOuter1" values="0 0 0 0 0   0 0 0 0 0   0 0 0 0 0  0 0 0 0.19654174 0"/>
    </filter>
  </defs>
  <g fill="none" fill-rule="evenodd" filter="url(#deepin-clone-a)" transform="translate(4 4)">
    <use fill="url(#deepin-clone-b)" xlink:href="#deepin-clone-c"/>
    <use fill="#000" filter="url(#deepin-clone-d)" xlink:href="#deepin-clone-c"/>
    <circle cx="44" cy="44" r="44.375" stroke="url(#deepin-clone-e)" stroke-width=".75"/>
    <g fill-rule="nonzero" transform="translate(4.661 4.661)">
      <use fill="#000" filter="url(#deepin-clone-f)" xlink:href="#deepin-clone-g"/>
      <use fill="url(#deepin-clone-h)" xlink:href="#deepin-clone-g"/>
    </g>
  </g>
</svg>
