<svg xmlns="http://www.w3.org/2000/svg" width="96" height="96" viewBox="0 0 96 96">
  <defs>
    <filter id="deepin-manual-a" width="133.3%" height="127.6%" x="-16%" y="-13.8%" filterUnits="objectBoundingBox">
      <feOffset dy="2" in="SourceAlpha" result="shadowOffsetOuter1"/>
      <feGaussianBlur in="shadowOffsetOuter1" result="shadowBlurOuter1" stdDeviation="2"/>
      <feColorMatrix in="shadowBlurOuter1" result="shadowMatrixOuter1" values="0 0 0 0 0   0 0 0 0 0   0 0 0 0 0  0 0 0 0.2 0"/>
      <feMerge>
        <feMergeNode in="shadowMatrixOuter1"/>
        <feMergeNode in="SourceGraphic"/>
      </feMerge>
    </filter>
    <linearGradient id="deepin-manual-b" x1="42.771%" x2="42.771%" y1="236.041%" y2="17.14%">
      <stop offset="0%" stop-color="#73CD7E"/>
      <stop offset="100%" stop-color="#507855"/>
    </linearGradient>
    <linearGradient id="deepin-manual-c" x1="8.22%" x2="9.075%" y1="50.803%" y2="49.197%">
      <stop offset="0%" stop-color="#4B614C"/>
      <stop offset="100%" stop-color="#39593C"/>
    </linearGradient>
    <linearGradient id="deepin-manual-d" x1="40.341%" x2="40.341%" y1="28.571%" y2="100%">
      <stop offset="0%" stop-color="#FFF"/>
      <stop offset="100%" stop-color="#E6E6E6"/>
    </linearGradient>
    <radialGradient id="deepin-manual-e" cx="50.588%" cy="100%" r="6225%" fx="50.588%" fy="100%" gradientTransform="matrix(.00803 0 0 1 .502 0)">
      <stop offset="0%"/>
      <stop offset="100%" stop-opacity="0"/>
    </radialGradient>
    <radialGradient id="deepin-manual-f" cx="50%" cy="14.563%" r="91.37%" fx="50%" fy="14.563%" gradientTransform="matrix(0 .93507 -1.04397 0 .652 -.322)">
      <stop offset="0%" stop-color="#7FC689"/>
      <stop offset="100%" stop-color="#4C7551"/>
    </radialGradient>
    <linearGradient id="deepin-manual-g" x1="58.429%" x2="58.559%" y1="103.421%" y2="17.14%">
      <stop offset="0%" stop-color="#265E2D"/>
      <stop offset="100%" stop-color="#568359"/>
    </linearGradient>
    <radialGradient id="deepin-manual-h" cx="50%" cy="100%" r="3350%" fx="50%" fy="100%" gradientTransform="matrix(.01493 0 0 1 .493 0)">
      <stop offset="0%" stop-color="#FFF"/>
      <stop offset="100%" stop-color="#FFF" stop-opacity="0"/>
    </radialGradient>
    <linearGradient id="deepin-manual-i" x1="100%" x2="0%" y1="50%" y2="50%">
      <stop offset="0%" stop-color="#FFF" stop-opacity=".063"/>
      <stop offset="93.766%" stop-color="#FFF" stop-opacity=".52"/>
      <stop offset="100%" stop-color="#FFF" stop-opacity=".3"/>
    </linearGradient>
    <linearGradient id="deepin-manual-j" x1="100%" x2="0%" y1="50%" y2="50%">
      <stop offset="0%" stop-color="#FFF" stop-opacity=".063"/>
      <stop offset="93.278%" stop-color="#FFF" stop-opacity=".52"/>
      <stop offset="100%" stop-color="#FFF" stop-opacity=".3"/>
    </linearGradient>
    <linearGradient id="deepin-manual-k" x1="50%" x2="50%" y1="-21.606%" y2="144.775%">
      <stop offset="0%" stop-color="#FFF" stop-opacity=".813"/>
      <stop offset="100%" stop-color="#FFF" stop-opacity=".962"/>
    </linearGradient>
    <linearGradient id="deepin-manual-l" x1="50%" x2="50%" y1="-3.492%" y2="100%">
      <stop offset="0%" stop-color="#006E0F" stop-opacity=".123"/>
      <stop offset="100%" stop-color="#00500B" stop-opacity=".166"/>
    </linearGradient>
    <linearGradient id="deepin-manual-m" x1="50%" x2="50%" y1="-21.606%" y2="144.775%">
      <stop offset="0%" stop-color="#FFF" stop-opacity=".813"/>
      <stop offset="100%" stop-color="#FFF" stop-opacity=".962"/>
    </linearGradient>
    <linearGradient id="deepin-manual-n" x1="50%" x2="50%" y1="-3.492%" y2="100%">
      <stop offset="0%" stop-color="#006E0F" stop-opacity=".123"/>
      <stop offset="100%" stop-color="#00500B" stop-opacity=".166"/>
    </linearGradient>
    <linearGradient id="deepin-manual-o" x1="50%" x2="50%" y1="-21.606%" y2="144.775%">
      <stop offset="0%" stop-color="#FFF" stop-opacity=".813"/>
      <stop offset="100%" stop-color="#FFF" stop-opacity=".962"/>
    </linearGradient>
    <linearGradient id="deepin-manual-p" x1="50%" x2="50%" y1="41.194%" y2="137.23%">
      <stop offset="0%" stop-color="#F8F700"/>
      <stop offset="100%" stop-color="#FFFE80" stop-opacity=".747"/>
    </linearGradient>
    <linearGradient id="deepin-manual-q" x1="50%" x2="50%" y1="-21.606%" y2="144.775%">
      <stop offset="0%" stop-color="#FFF" stop-opacity=".813"/>
      <stop offset="100%" stop-color="#FFF" stop-opacity=".962"/>
    </linearGradient>
    <linearGradient id="deepin-manual-r" x1="50%" x2="50%" y1="0%" y2="100%">
      <stop offset="0%" stop-color="#E8F2EA"/>
      <stop offset="100%" stop-color="#FFF"/>
    </linearGradient>
    <linearGradient id="deepin-manual-s" x1="50%" x2="50%" y1="0%" y2="100%">
      <stop offset="0%" stop-color="#00550C" stop-opacity=".082"/>
      <stop offset="100%" stop-color="#00640F" stop-opacity=".204"/>
    </linearGradient>
    <linearGradient id="deepin-manual-t" x1="50%" x2="50%" y1="14.563%" y2="100%">
      <stop offset="0%" stop-color="#6EAA76"/>
      <stop offset="100%" stop-color="#629869"/>
    </linearGradient>
    <linearGradient id="deepin-manual-u" x1="50%" x2="50%" y1="14.563%" y2="100%">
      <stop offset="0%" stop-color="#659C6C"/>
      <stop offset="100%" stop-color="#629869"/>
    </linearGradient>
    <linearGradient id="deepin-manual-v" x1="50%" x2="50%" y1="0%" y2="100%">
      <stop offset="0%" stop-color="#59895F"/>
      <stop offset="100%" stop-color="#56845C"/>
    </linearGradient>
    <linearGradient id="deepin-manual-w" x1="100%" x2="0%" y1="50%" y2="50%">
      <stop offset="0%" stop-color="#FFF" stop-opacity=".063"/>
      <stop offset="93.278%" stop-color="#FFF" stop-opacity=".52"/>
      <stop offset="100%" stop-color="#FFF" stop-opacity=".3"/>
    </linearGradient>
    <linearGradient id="deepin-manual-x" x1="50%" x2="50%" y1="-106.348%" y2="252.148%">
      <stop offset="0%" stop-color="#5FA268"/>
      <stop offset="100%" stop-color="#5C9C65"/>
    </linearGradient>
  </defs>
  <g fill="none" fill-rule="evenodd" filter="url(#deepin-manual-a)" transform="translate(9.875 4.25)">
    <g transform="translate(.375)">
      <path fill="url(#deepin-manual-b)" d="M5.07085561,1.74996781 L67.75,1.74996781 C69.4068542,1.74996781 70.75,3.09311356 70.75,4.74996781 L70.75,8.74996781 L70.75,8.74996781 L1.75,8.74996781 L5.07085561,1.74996781 Z"/>
      <path fill="url(#deepin-manual-c)" fill-rule="nonzero" d="M67.75,0.74996781 L5.07085561,0.74996781 C4.68462202,0.74996781 4.33291848,0.972391337 4.16737091,1.32134749 L0.846515292,8.32134749 C0.531749066,8.98484022 1.01562926,9.74996781 1.75,9.74996781 L70.75,9.74996781 C71.3022847,9.74996781 71.75,9.30225256 71.75,8.74996781 L71.75,4.74996781 C71.75,2.54082881 69.959139,0.74996781 67.75,0.74996781 Z M67.75,1.74996781 C69.4068542,1.74996781 70.75,3.09311356 70.75,4.74996781 L70.75,8.74996781 L1.75,8.74996781 L5.07085561,1.74996781 L67.75,1.74996781 Z"/>
      <polygon fill="url(#deepin-manual-d)" fill-rule="nonzero" points="6.334 2.75 3.75 7.75 69.75 7.75 68.1 2.75"/>
      <rect width="62.25" height="1" x="5.5" y="3.75" fill="url(#deepin-manual-e)" fill-rule="nonzero" opacity=".3"/>
      <rect width="62.25" height="1" x="5.5" y="5.75" fill="url(#deepin-manual-e)" fill-rule="nonzero" opacity=".3"/>
      <path fill="url(#deepin-manual-f)" d="M1.75,8.74996781 L70.75,8.74996781 C72.4068542,8.74996781 73.75,10.0931136 73.75,11.7499678 L73.75,82.7499678 C73.75,84.4068221 72.4068542,85.7499678 70.75,85.7499678 L1.75,85.7499678 L1.75,8.74996781 Z"/>
      <path stroke="url(#deepin-manual-g)" stroke-linejoin="round" d="M70.75,8.24996781 C71.7164983,8.24996781 72.5914983,8.64171865 73.2248737,9.27509408 C73.8582492,9.9084695 74.25,10.7834695 74.25,11.7499678 L74.25,11.7499678 L74.25,82.7499678 C74.25,83.7164661 73.8582492,84.5914661 73.2248737,85.2248415 C72.5914983,85.858217 71.7164983,86.2499678 70.75,86.2499678 L70.75,86.2499678 L1.25,86.2499678 L1.25,8.24996781 Z"/>
      <polygon fill="url(#deepin-manual-h)" fill-rule="nonzero" points="3.75 8.75 70.75 8.75 70.75 9.75 3.75 9.75" opacity=".659"/>
    </g>
    <polygon fill="url(#deepin-manual-i)" points="2.125 29.702 38.137 23.66 38.133 37.037 2.125 31.422" transform="matrix(-1 0 0 1 40.262 0)"/>
    <polygon fill="url(#deepin-manual-j)" points="38.875 29.702 74.134 23.786 74.126 36.919 38.875 31.422"/>
    <g transform="translate(28.125 17.5)">
      <path fill="url(#deepin-manual-k)" d="M1,63.25 L1.22694124,56.9729023 C1.24152586,56.5694977 1.57278342,56.25 1.97645155,56.25 L3.493,56.25 L4.77532274,19.25 L15.9746773,19.25 L17.5,63.25 L1,63.25 Z"/>
      <path fill="url(#deepin-manual-l)" fill-rule="nonzero" d="M4.77532274,18.25 L4.66146647,18.256419 C4.17554521,18.3115527 3.79325206,18.715346 3.77592277,19.2153634 L2.526,55.25 L1.97645155,55.25 C1.03455925,55.25 0.261624946,55.9954947 0.227594148,56.9367721 L0.000652910378,63.2138698 C-0.0198131004,63.7799509 0.433549042,64.25 1,64.25 L17.5,64.25 C18.0658665,64.25 18.5190045,63.7808812 18.4993997,63.2153544 L16.9740769,19.2153544 C16.9554099,18.6768777 16.5134774,18.25 15.9746773,18.25 L4.77532274,18.25 Z M15.9746773,19.25 L17.5,63.25 L1,63.25 L1.22694124,56.9729023 C1.24152586,56.5694977 1.57278342,56.25 1.97645155,56.25 L3.493,56.25 L4.77532274,19.25 L15.9746773,19.25 Z"/>
      <path fill="url(#deepin-manual-m)" d="M5,17.25 L16,17.25 C16.5522847,17.25 17,17.6977153 17,18.25 C17,18.8022847 16.5522847,19.25 16,19.25 L5,19.25 C4.44771525,19.25 4,18.8022847 4,18.25 C4,17.6977153 4.44771525,17.25 5,17.25 Z"/>
      <path stroke="url(#deepin-manual-n)" stroke-linecap="round" stroke-linejoin="round" d="M16,16.75 C16.4142136,16.75 16.7892136,16.9178932 17.0606602,17.1893398 C17.3321068,17.4607864 17.5,17.8357864 17.5,18.25 C17.5,18.6642136 17.3321068,19.0392136 17.0606602,19.3106602 C16.7892136,19.5821068 16.4142136,19.75 16,19.75 L16,19.75 L5,19.75 C4.58578644,19.75 4.21078644,19.5821068 3.93933983,19.3106602 C3.66789322,19.0392136 3.5,18.6642136 3.5,18.25 C3.5,17.8357864 3.66789322,17.4607864 3.93933983,17.1893398 C4.21078644,16.9178932 4.58578644,16.75 5,16.75 L5,16.75 Z"/>
      <rect width="11" height="1" x="5" y="15.25" fill="url(#deepin-manual-o)"/>
      <circle cx="10.5" cy="12.75" r="1.5" fill="url(#deepin-manual-p)"/>
      <path fill="url(#deepin-manual-q)" d="M7,9.25 L7,15.25 L6,15.25 L6,9.25 L7,9.25 Z M11,9.25 L11,15.25 L10,15.25 L10,9.25 L11,9.25 Z M9,9.25 L9,15.25 L8,15.25 L8,9.25 L9,9.25 Z M13,9.25 L13,15.25 L12,15.25 L12,9.25 L13,9.25 Z M15,9.25 L15,15.25 L14,15.25 L14,9.25 L15,9.25 Z"/>
      <path fill="url(#deepin-manual-r)" d="M10.5,0.25 C10.7761424,0.25 11,0.473857625 11,0.75 L11.0007074,4.27754265 C13.2503421,4.5265864 15,6.43396594 15,8.75 L15,9.25 L6,9.25 L6,8.75 C6,6.43362124 7.7501788,4.52601865 10.000297,4.27743156 L10,0.75 C10,0.473857625 10.2238576,0.25 10.5,0.25 Z"/>
      <path stroke="url(#deepin-manual-s)" stroke-linejoin="round" d="M9.79289322,0.0428932188 C10.74855,-0.294699623 10.991753,-0.169518826 11.1338266,-0.0324736869 L11.2071068,0.0428932188 C11.3880712,0.223857625 11.5,0.473857625 11.5,0.749899726 L11.5,0.749899726 L11.5006218,3.85023112 C12.5750549,4.06854402 13.5244549,4.6311827 14.2282527,5.41824833 C15.0191078,6.30267116 15.5,7.47016659 15.5,8.75 L15.5,8.75 L15.5,9.75 L5.5,9.75 L5.5,8.75 C5.5,7.46996337 5.98104483,6.30230034 6.77212405,5.41782703 C7.47607671,4.63076637 8.42565677,4.06819672 9.50026105,3.85005175 L9.50026105,3.85005175 L9.5,0.75 C9.5,0.473857625 9.61192881,0.223857625 9.79289322,0.0428932188 Z"/>
      <path fill="url(#deepin-manual-t)" d="M6.375,23.25 L7.625,23.25 C7.83210678,23.25 8,23.4178932 8,23.625 L8,26.875 C8,27.0821068 7.83210678,27.25 7.625,27.25 L6.375,27.25 C6.16789322,27.25 6,27.0821068 6,26.875 L6,23.625 C6,23.4178932 6.16789322,23.25 6.375,23.25 Z"/>
      <path fill="url(#deepin-manual-u)" d="M6.375,38.25 L7.625,38.25 C7.83210678,38.25 8,38.4178932 8,38.625 L8,41.875 C8,42.0821068 7.83210678,42.25 7.625,42.25 L6.375,42.25 C6.16789322,42.25 6,42.0821068 6,41.875 L6,38.625 C6,38.4178932 6.16789322,38.25 6.375,38.25 Z"/>
      <path fill="url(#deepin-manual-v)" d="M6.375,51.25 L7.625,51.25 C7.83210678,51.25 8,51.4178932 8,51.625 L8,55.875 C8,56.0821068 7.83210678,56.25 7.625,56.25 L6.375,56.25 C6.16789322,56.25 6,56.0821068 6,55.875 L6,51.625 C6,51.4178932 6.16789322,51.25 6.375,51.25 Z"/>
    </g>
    <path fill="url(#deepin-manual-w)" d="M57.1824299,80.7499678 C60.4875043,80.7499678 63.7709648,81.2828001 66.9064337,82.3279564 L73.5343652,84.5377598 C72.9876319,85.2733854 72.1119756,85.75 71.125,85.75 L2.125,85.75 L2.125,84.7499678 L9.39103425,82.3279564 C12.5265032,81.2828001 15.8099636,80.7499678 19.1150381,80.7499678 L57.1824299,80.7499678 Z"/>
    <g fill-rule="nonzero" transform="rotate(90 -.812 7.312)">
      <polygon fill="#FFF" points=".625 2.375 77.625 2.375 77.625 4.375 .625 4.375" opacity=".468"/>
      <polygon fill="#000" points=".625 .375 77.625 .375 77.625 2.375 22.147 2.375 .625 2.375" opacity=".227"/>
    </g>
    <path fill="url(#deepin-manual-x)" d="M44.58175,46.7499678 L44.61575,47.7499678 L32.38375,47.7499678 L32.41675,46.7499678 L44.58175,46.7499678 Z"/>
  </g>
</svg>
