<svg xmlns="http://www.w3.org/2000/svg" xmlns:xlink="http://www.w3.org/1999/xlink" width="96" height="96" viewBox="0 0 96 96">
  <defs>
    <filter id="deepin-movie-a" width="130.5%" height="131.6%" x="-14.6%" y="-16.2%" filterUnits="objectBoundingBox">
      <feOffset dy="2" in="SourceAlpha" result="shadowOffsetOuter1"/>
      <feGaussianBlur in="shadowOffsetOuter1" result="shadowBlurOuter1" stdDeviation="2"/>
      <feColorMatrix in="shadowBlurOuter1" result="shadowMatrixOuter1" values="0 0 0 0 0   0 0 0 0 0   0 0 0 0 0  0 0 0 0.2 0"/>
      <feMerge>
        <feMergeNode in="shadowMatrixOuter1"/>
        <feMergeNode in="SourceGraphic"/>
      </feMerge>
    </filter>
    <radialGradient id="deepin-movie-b" cx="50%" cy="27.228%" r="103.733%" fx="50%" fy="27.228%" gradientTransform="matrix(0 1 -.68831 0 .687 -.228)">
      <stop offset="0%" stop-color="#616161"/>
      <stop offset="20.732%" stop-color="#5A5A5A"/>
      <stop offset="100%" stop-color="#282828"/>
    </radialGradient>
    <linearGradient id="deepin-movie-c" x1="55.714%" x2="55.714%" y1="14.794%" y2="100.931%">
      <stop offset="0%" stop-opacity=".72"/>
      <stop offset="100%" stop-opacity=".901"/>
    </linearGradient>
    <linearGradient id="deepin-movie-d" x1="50%" x2="50%" y1="0%" y2="100%">
      <stop offset="0%" stop-color="#FFF" stop-opacity=".335"/>
      <stop offset="100%" stop-color="#FFF" stop-opacity=".363"/>
    </linearGradient>
    <linearGradient id="deepin-movie-e" x1="50%" x2="50%" y1="0%" y2="108.278%">
      <stop offset="0%" stop-opacity=".696"/>
      <stop offset="100%" stop-opacity=".785"/>
    </linearGradient>
    <linearGradient id="deepin-movie-f" x1="39.277%" x2="39.277%" y1="18.925%" y2="100%">
      <stop offset="0%" stop-color="#272727"/>
      <stop offset="72.545%" stop-color="#494949"/>
      <stop offset="100%" stop-color="#383838"/>
    </linearGradient>
    <linearGradient id="deepin-movie-g" x1="50%" x2="50%" y1="-10%" y2="110%">
      <stop offset="0%" stop-color="#F0F0F0"/>
      <stop offset="100%" stop-color="#C8C8C8"/>
    </linearGradient>
    <linearGradient id="deepin-movie-h" x1="55.405%" x2="55.405%" y1="-7.212%" y2="100%">
      <stop offset="0%" stop-opacity=".7"/>
      <stop offset="100%" stop-opacity=".52"/>
    </linearGradient>
    <linearGradient id="deepin-movie-i" x1="57.99%" x2="57.99%" y1="0%" y2="100%">
      <stop offset="0%" stop-color="#515151"/>
      <stop offset="100%" stop-color="#262626"/>
    </linearGradient>
    <linearGradient id="deepin-movie-j" x1="50%" x2="50%" y1="-10%" y2="110%">
      <stop offset="0%" stop-color="#F0F0F0"/>
      <stop offset="100%" stop-color="#C8C8C8"/>
    </linearGradient>
    <linearGradient id="deepin-movie-k" x1="55.405%" x2="55.405%" y1="-10%" y2="110%">
      <stop offset="0%" stop-opacity=".7"/>
      <stop offset="100%" stop-opacity=".8"/>
    </linearGradient>
    <linearGradient id="deepin-movie-l" x1="57.99%" x2="57.99%" y1="0%" y2="100%">
      <stop offset="0%" stop-color="#515151"/>
      <stop offset="100%" stop-color="#262626"/>
    </linearGradient>
    <radialGradient id="deepin-movie-m" cx="50.093%" cy="99.24%" r="3489.3%" fx="50.093%" fy="99.24%" gradientTransform="matrix(.01411 -.23221 .00337 .97267 .49 .143)">
      <stop offset="0%" stop-color="#FFF"/>
      <stop offset="100%" stop-color="#FFF" stop-opacity="0"/>
    </radialGradient>
    <linearGradient id="deepin-movie-p" x1="50%" x2="50%" y1=".653%" y2="100%">
      <stop offset="0%" stop-color="#515151"/>
      <stop offset="100%" stop-color="#282828"/>
    </linearGradient>
    <path id="deepin-movie-o" d="M10.3756925,0.25 L6.9007933,0.25 C3.36573277,0.25 0.5,3.03242887 0.5,6.46472882 L0.5,18.7983871 C0.5,21.256945 2.55272561,23.25 5.08489097,23.25 L18.2069298,23.25 C18.4671055,23.25 18.7253828,23.2069977 18.9706943,23.1228358 C20.1644434,22.713282 20.7902193,21.441679 20.3684038,20.2826309 L13.9781492,2.72373965 C13.4386156,1.24123012 11.9951073,0.25 10.3756925,0.25 Z"/>
    <filter id="deepin-movie-n" width="135%" height="130.4%" x="-12.5%" y="-10.9%" filterUnits="objectBoundingBox">
      <feOffset dx="1" dy="1" in="SourceAlpha" result="shadowOffsetOuter1"/>
      <feGaussianBlur in="shadowOffsetOuter1" result="shadowBlurOuter1" stdDeviation="1"/>
      <feColorMatrix in="shadowBlurOuter1" values="0 0 0 0 0   0 0 0 0 0   0 0 0 0 0  0 0 0 0.174879808 0"/>
    </filter>
    <linearGradient id="deepin-movie-q" x1="50%" x2="50%" y1="0%" y2="100%">
      <stop offset="0%" stop-opacity=".687"/>
      <stop offset="100%" stop-opacity=".624"/>
    </linearGradient>
    <radialGradient id="deepin-movie-r" cx="50%" cy="50%" r="50%" fx="50%" fy="50%">
      <stop offset="0%" stop-color="#F0F0F0"/>
      <stop offset="100%" stop-color="#A0A0A0"/>
    </radialGradient>
  </defs>
  <g fill="none" fill-rule="evenodd" filter="url(#deepin-movie-a)" transform="translate(6.75 7.75)">
    <path fill="url(#deepin-movie-b)" fill-rule="nonzero" d="M6.99999963,26.25 L76.5000004,26.25 C78.571068,26.25 80.25,27.928932 80.25,29.9999996 L80.25,75.5000004 C80.25,77.571068 78.571068,79.25 76.5000004,79.25 L6.99999963,79.25 C4.92893202,79.25 3.25,77.571068 3.25,75.5000004 L3.25,29.9999996 C3.25,27.928932 4.92893202,26.25 6.99999963,26.25 Z"/>
    <path stroke="url(#deepin-movie-c)" d="M76.5000004,25.75 C77.6736054,25.75 78.7361053,26.2256974 79.5052039,26.9947961 C80.2743026,27.7638947 80.75,28.8263946 80.75,29.9999996 L80.75,29.9999996 L80.75,75.5000004 C80.75,76.6736054 80.2743026,77.7361053 79.5052039,78.5052039 C78.7361053,79.2743026 77.6736054,79.75 76.5000004,79.75 L76.5000004,79.75 L6.99999963,79.75 C5.82639464,79.75 4.76389473,79.2743026 3.99479607,78.5052039 C3.22569741,77.7361053 2.75,76.6736054 2.75,75.5000004 L2.75,75.5000004 L2.75,29.9999996 C2.75,28.8263946 3.22569741,27.7638947 3.99479607,26.9947961 C4.76389473,26.2256974 5.82639464,25.75 6.99999963,25.75 L6.99999963,25.75 Z"/>
    <circle cx="41.75" cy="57.75" r="16" stroke="url(#deepin-movie-d)"/>
    <circle cx="41.75" cy="57.75" r="15.5" fill="#D8D8D8"/>
    <path stroke="url(#deepin-movie-e)" d="M43.6331238,50.7440728 C44.1292474,50.6181907 44.6733934,50.6815734 45.1479677,50.9640581 C45.4341397,51.1343986 45.6732453,51.3735042 45.8435858,51.6596761 L45.8435858,51.6596761 L52.5801073,62.9770323 C52.862592,63.4516066 52.9259747,63.9957526 52.8000926,64.4918762 C52.6742105,64.9879998 52.3590636,65.436101 51.8844892,65.7185858 C51.5750529,65.9027741 51.2216273,66 50.8615215,66 L50.8615215,66 L37.3884785,66 C36.8361937,66 36.3361937,65.7761424 35.9742649,65.4142136 C35.6123361,65.0522847 35.3884785,64.5522847 35.3884785,64 C35.3884785,63.6398942 35.4857044,63.2864686 35.6698927,62.9770323 L35.6698927,62.9770323 L42.4064142,51.6596761 C42.688899,51.1851018 43.1370002,50.8699549 43.6331238,50.7440728 Z" transform="rotate(90 44.125 57.625)"/>
    <path fill="url(#deepin-movie-f)" d="M45.4139393,51.9154181 L52.1504608,63.2327742 C52.5741879,63.9446357 52.3406088,64.8652122 51.6287473,65.2889393 C51.3966701,65.4270805 51.1316008,65.5 50.8615215,65.5 L37.3884785,65.5 C36.5600514,65.5 35.8884785,64.8284271 35.8884785,64 C35.8884785,63.7299207 35.9613979,63.4648515 36.0995392,63.2327742 L42.8360607,51.9154181 C43.2597878,51.2035565 44.1803643,50.9699774 44.8922258,51.3937045 C45.1068548,51.5214599 45.286184,51.7007891 45.4139393,51.9154181 Z" transform="rotate(90 44.125 57.625)"/>
    <g fill-rule="nonzero" transform="translate(.75 23.75)">
      <path fill="url(#deepin-movie-g)" d="M2,0.5 L79,0.5 C79.8284271,0.5 80.5,1.17157288 80.5,2 L80.5,10 C80.5,10.8284271 79.8284271,11.5 79,11.5 L5,11.5 C2.51471863,11.5 0.5,9.48528137 0.5,7 L0.5,2 C0.5,1.17157288 1.17157288,0.5 2,0.5 Z"/>
      <path stroke="url(#deepin-movie-h)" d="M79,2.22044605e-16 C79.5522847,7.40148683e-17 80.0522847,0.223857625 80.4142136,0.585786438 C80.7761424,0.94771525 81,1.44771525 81,2 L81,2 L81,10 C81,10.5522847 80.7761424,11.0522847 80.4142136,11.4142136 C80.0522847,11.7761424 79.5522847,12 79,12 L79,12 L5,12 C3.61928813,12 2.36928813,11.4403559 1.46446609,10.5355339 C0.559644063,9.63071187 -4.31753398e-16,8.38071187 0,7 L0,7 L1.11022302e-16,2 C3.70074342e-17,1.44771525 0.223857625,0.94771525 0.585786438,0.585786438 C0.94771525,0.223857625 1.44771525,1.11022302e-16 2,0 L2,0 Z"/>
      <path fill="url(#deepin-movie-i)" d="M22.4233921,0.499140625 L15.1613921,11.4991406 L5,11.5 C4.52920191,11.5 4.07529016,11.4277009 3.64876185,11.2935999 L10.5983921,0.499140625 L22.4233921,0.499140625 Z M41.1843921,0.499140625 L33.9983921,11.4991406 L22.2843921,11.4991406 L29.4703921,0.499140625 L41.1843921,0.499140625 Z M60.6843921,0.499140625 L53.4983921,11.4991406 L41.7843921,11.4991406 L48.9703921,0.499140625 L60.6843921,0.499140625 Z M79,0.5 C79.1383101,0.5 79.272248,0.518719407 79.3994184,0.553762876 L72.2483921,11.4991406 L60.5343921,11.4991406 L67.7203921,0.499140625 L79,0.5 Z"/>
    </g>
    <g fill-rule="nonzero" transform="translate(1.441 .426)">
      <path fill="url(#deepin-movie-j)" d="M5.95230067,6.86647451 L75.4496284,6.63520013 C76.278051,6.63244329 76.951855,7.30177759 76.9546118,8.13020012 C76.9546173,8.13186402 76.9546201,8.13352792 76.9546201,8.13519182 L76.9546201,16.1305972 C76.9546201,16.9570756 76.2860856,17.6278386 75.4596118,17.6305889 L4.96959521,17.8651668 C2.4843276,17.8734373 0.462915548,15.8654344 0.454645032,13.3801668 C0.454628421,13.3751751 0.454620115,13.3701834 0.454620115,13.3651917 L0.454620115,12.3824808 C0.454620115,9.34322389 2.9130606,6.87658855 5.95230067,6.86647451 Z" transform="rotate(-10 38.705 12.255)"/>
      <path stroke="url(#deepin-movie-k)" d="M75.4479645,6.1352029 C76.0002462,6.133365 76.5009884,6.35555749 76.8641196,6.71627987 C77.2272509,7.07700225 77.4527711,7.57625453 77.4546118,8.1301996 L77.4546118,8.1301996 L77.4546201,16.1305972 C77.4546201,16.6815828 77.2317753,17.1806633 76.8711848,17.5424557 C76.5105944,17.9042481 76.0122583,18.1287526 75.4612757,18.1305861 L75.4612757,18.1305861 L4.97125911,18.365164 C3.59055488,18.3697587 2.33869942,17.8142775 1.43087133,16.9124716 C0.523043244,16.0106656 -0.0407574684,14.7625349 -0.0453549678,13.3801793 L-0.0453549678,13.3801793 L-0.045379885,12.3824808 C-0.045379885,10.7251059 0.624941441,9.22386276 1.70960419,8.13558445 C2.79426693,7.04730614 4.2932711,6.37199269 5.95063677,6.36647728 L5.95063677,6.36647728 Z" transform="rotate(-10 38.705 12.255)"/>
      <path fill="url(#deepin-movie-l)" d="M18.2565312,10.3440282 L12.3880041,22.3146967 L4.85086504,23.6368325 C3.84237179,23.4523617 2.93077261,22.9268201 2.26553115,22.1641239 L6.94353115,12.3780282 L18.2565312,10.3440282 Z M36.3875312,7.0850282 L30.5415312,19.3070282 L19.3635312,21.3170282 L25.2305312,9.0910282 L36.3875312,7.0850282 Z M55.3665312,3.6730282 L49.6955312,15.8640282 L37.6705312,18.0260282 L43.3415312,5.8350282 L55.3665312,3.6730282 Z M74.1679976,0.316028195 L67.9225312,12.5880282 L56.4315312,14.6540282 L62.6895312,2.3570282 L73.9154879,0.339876699 C74.0002662,0.324636921 74.0846601,0.316843121 74.1679976,0.316028195 Z"/>
    </g>
    <polygon fill="url(#deepin-movie-m)" fill-rule="nonzero" points="7.163 6.938 75.962 6.74 76.089 7.444 7.29 7.642" opacity=".5" transform="rotate(-10 41.626 7.191)"/>
    <g fill-rule="nonzero" transform="translate(.75 14)">
      <use fill="#000" filter="url(#deepin-movie-n)" xlink:href="#deepin-movie-o"/>
      <use fill="url(#deepin-movie-p)" xlink:href="#deepin-movie-o"/>
      <path stroke="url(#deepin-movie-q)" d="M10.3756925,-0.25 C11.2893752,-0.25 12.1532464,0.030063205 12.8649115,0.518750313 C13.5804084,1.01006864 14.142048,1.7120588 14.4480012,2.55274515 L14.4480012,2.55274515 L20.8382558,20.1116364 C21.097723,20.8245904 21.0352009,21.5722037 20.7240052,22.2045664 C20.4154429,22.8315782 19.861557,23.3458048 19.1329516,23.5957761 C18.8355251,23.6978177 18.5223832,23.75 18.2069298,23.75 L18.2069298,23.75 L5.08489097,23.75 C3.68246271,23.75 2.41342254,23.197012 1.49458247,22.3048817 C0.570325045,21.4074914 -3.29736238e-13,20.1673839 -3.30402372e-13,18.7983871 L-3.30402372e-13,18.7983871 L-3.30180328e-13,6.46472882 C-3.30180328e-13,4.60886096 0.773576837,2.92797448 2.02644795,1.71152305 C3.27390171,0.500331484 4.99691746,-0.25 6.9007933,-0.25 L6.9007933,-0.25 Z"/>
      <path fill="url(#deepin-movie-r)" d="M7.5 5.25C7.5 6.3545695 6.6045695 7.25 5.5 7.25 4.3954305 7.25 3.5 6.3545695 3.5 5.25 3.5 4.1454305 4.3954305 3.25 5.5 3.25 6.6045695 3.25 7.5 4.1454305 7.5 5.25zM6.5 16.25C6.5 16.8022847 6.05228475 17.25 5.5 17.25 4.94771525 17.25 4.5 16.8022847 4.5 16.25 4.5 15.6977153 4.94771525 15.25 5.5 15.25 6.05228475 15.25 6.5 15.6977153 6.5 16.25zM14.5 16.25C14.5 16.8022847 14.0522847 17.25 13.5 17.25 12.9477153 17.25 12.5 16.8022847 12.5 16.25 12.5 15.6977153 12.9477153 15.25 13.5 15.25 14.0522847 15.25 14.5 15.6977153 14.5 16.25z"/>
    </g>
  </g>
</svg>
