<svg xmlns="http://www.w3.org/2000/svg" xmlns:xlink="http://www.w3.org/1999/xlink" width="96" height="96" viewBox="0 0 96 96">
  <defs>
    <filter id="deepin-cloud-scan-config-helper-a" width="128.2%" height="129.6%" x="-14.1%" y="-14.8%" filterUnits="objectBoundingBox">
      <feOffset dy="2" in="SourceAlpha" result="shadowOffsetOuter1"/>
      <feGaussianBlur in="shadowOffsetOuter1" result="shadowBlurOuter1" stdDeviation="2"/>
      <feColorMatrix in="shadowBlurOuter1" result="shadowMatrixOuter1" values="0 0 0 0 0   0 0 0 0 0   0 0 0 0 0  0 0 0 0.2 0"/>
      <feMerge>
        <feMergeNode in="shadowMatrixOuter1"/>
        <feMergeNode in="SourceGraphic"/>
      </feMerge>
    </filter>
    <linearGradient id="deepin-cloud-scan-config-helper-b" x1="50%" x2="50%" y1="0%" y2="98.356%">
      <stop offset="0%" stop-color="#C6C6C6"/>
      <stop offset="100%" stop-color="#999"/>
    </linearGradient>
    <path id="deepin-cloud-scan-config-helper-c" d="M7,1 L73,1 C76.3137085,1 79,3.6862915 79,7 L79,69 C79,72.3137085 76.3137085,75 73,75 L7,75 C3.6862915,75 1,72.3137085 1,69 L1,7 C1,3.6862915 3.6862915,1 7,1 Z"/>
    <filter id="deepin-cloud-scan-config-helper-d" width="101.3%" height="101.4%" x="-.6%" y="-.7%" filterUnits="objectBoundingBox">
      <feOffset dy="1" in="SourceAlpha" result="shadowOffsetInner1"/>
      <feComposite in="shadowOffsetInner1" in2="SourceAlpha" k2="-1" k3="1" operator="arithmetic" result="shadowInnerInner1"/>
      <feColorMatrix in="shadowInnerInner1" values="0 0 0 0 1   0 0 0 0 1   0 0 0 0 1  0 0 0 0.562691215 0"/>
    </filter>
    <linearGradient id="deepin-cloud-scan-config-helper-e" x1="50%" x2="50%" y1="0%" y2="100%">
      <stop offset="0%" stop-opacity=".419"/>
      <stop offset="100%" stop-opacity=".625"/>
    </linearGradient>
    <linearGradient id="deepin-cloud-scan-config-helper-f" x1="50%" x2="50%" y1="0%" y2="98.356%">
      <stop offset="0%" stop-color="#6A8AA9"/>
      <stop offset="100%" stop-color="#0E2A47"/>
    </linearGradient>
    <path id="deepin-cloud-scan-config-helper-g" d="M7,4 L73,4 C74.6568542,4 76,5.34314575 76,7 L76,69 C76,70.6568542 74.6568542,72 73,72 L7,72 C5.34314575,72 4,70.6568542 4,69 L4,7 C4,5.34314575 5.34314575,4 7,4 Z"/>
    <filter id="deepin-cloud-scan-config-helper-h" width="111.1%" height="111.8%" x="-5.6%" y="-5.9%" filterUnits="objectBoundingBox">
      <feMorphology in="SourceAlpha" radius="2" result="shadowSpreadInner1"/>
      <feGaussianBlur in="shadowSpreadInner1" result="shadowBlurInner1" stdDeviation="2.5"/>
      <feOffset dy="1" in="shadowBlurInner1" result="shadowOffsetInner1"/>
      <feComposite in="shadowOffsetInner1" in2="SourceAlpha" k2="-1" k3="1" operator="arithmetic" result="shadowInnerInner1"/>
      <feColorMatrix in="shadowInnerInner1" values="0 0 0 0 0   0 0 0 0 0   0 0 0 0 0  0 0 0 0.370574738 0"/>
    </filter>
    <linearGradient id="deepin-cloud-scan-config-helper-i" x1="50%" x2="50%" y1="5.774%" y2="97.989%">
      <stop offset="0%" stop-opacity=".194"/>
      <stop offset="100%" stop-opacity=".674"/>
    </linearGradient>
    <radialGradient id="deepin-cloud-scan-config-helper-j" cx="50%" cy="18.931%" r="100%" fx="50%" fy="18.931%">
      <stop offset="2.576%" stop-color="#B4E09E"/>
      <stop offset="100%" stop-color="#1A8F29"/>
    </radialGradient>
    <linearGradient id="deepin-cloud-scan-config-helper-k" x1="50%" x2="50%" y1="8.649%" y2="131.475%">
      <stop offset="0%" stop-opacity=".215"/>
      <stop offset="100%" stop-opacity=".306"/>
    </linearGradient>
    <radialGradient id="deepin-cloud-scan-config-helper-n" cx="50%" cy="10.639%" r="130.084%" fx="50%" fy="10.639%" gradientTransform="matrix(.63389 0 0 1 .183 0)">
      <stop offset="0%" stop-color="#FFF"/>
      <stop offset="99.984%" stop-color="#B8C2CB"/>
    </radialGradient>
    <path id="deepin-cloud-scan-config-helper-m" d="M77.9861822,63.4075336 C76.9882277,59.4457573 73.4473989,56.5105374 69.2198359,56.5105374 C67.9898639,56.5105374 66.8195268,56.7609171 65.7498239,57.2096744 C63.9160474,55.2374533 61.3191291,54 58.4314902,54 C52.9301607,54 48.466853,58.4712026 48.3820595,64.0161488 C45.2456308,65.1611541 43,68.1897848 43,71.7567318 C43,76.2799363 46.6051226,79.9479981 51.0665667,79.989407 L75.8840481,79.984592 C80.3883549,79.8468832 84,76.1191155 84,71.5294641 C84,67.6813215 81.460853,64.4379422 77.9861822,63.4075336 Z"/>
    <filter id="deepin-cloud-scan-config-helper-l" width="126.8%" height="142.3%" x="-18.3%" y="-28.9%" filterUnits="objectBoundingBox">
      <feOffset dx="-2" dy="-2" in="SourceAlpha" result="shadowOffsetOuter1"/>
      <feGaussianBlur in="shadowOffsetOuter1" result="shadowBlurOuter1" stdDeviation="1.5"/>
      <feColorMatrix in="shadowBlurOuter1" values="0 0 0 0 0   0 0 0 0 0   0 0 0 0 0  0 0 0 0.20388986 0"/>
    </filter>
    <filter id="deepin-cloud-scan-config-helper-o" width="117.1%" height="126.9%" x="-13.4%" y="-21.2%" filterUnits="objectBoundingBox">
      <feOffset dy="1" in="SourceAlpha" result="shadowOffsetInner1"/>
      <feComposite in="shadowOffsetInner1" in2="SourceAlpha" k2="-1" k3="1" operator="arithmetic" result="shadowInnerInner1"/>
      <feColorMatrix in="shadowInnerInner1" values="0 0 0 0 1   0 0 0 0 1   0 0 0 0 1  0 0 0 1 0"/>
    </filter>
    <linearGradient id="deepin-cloud-scan-config-helper-p" x1="50%" x2="50%" y1="0%" y2="95.99%">
      <stop offset="0%" stop-opacity=".276"/>
      <stop offset="100%" stop-opacity=".489"/>
    </linearGradient>
  </defs>
  <g fill="none" fill-rule="evenodd" filter="url(#deepin-cloud-scan-config-helper-a)" transform="translate(8 8)">
    <use fill="url(#deepin-cloud-scan-config-helper-b)" xlink:href="#deepin-cloud-scan-config-helper-c"/>
    <use fill="#000" filter="url(#deepin-cloud-scan-config-helper-d)" xlink:href="#deepin-cloud-scan-config-helper-c"/>
    <path fill="url(#deepin-cloud-scan-config-helper-e)" fill-rule="nonzero" d="M73,0 L7,0 C3.13400675,0 0,3.13400675 0,7 L0,69 C0,72.8659932 3.13400675,76 7,76 L73,76 C76.8659932,76 80,72.8659932 80,69 L80,7 C80,3.13400675 76.8659932,0 73,0 Z M73,1 C76.3137085,1 79,3.6862915 79,7 L79,69 C79,72.3137085 76.3137085,75 73,75 L7,75 C3.6862915,75 1,72.3137085 1,69 L1,7 C1,3.6862915 3.6862915,1 7,1 L73,1 Z"/>
    <use fill="url(#deepin-cloud-scan-config-helper-f)" xlink:href="#deepin-cloud-scan-config-helper-g"/>
    <use fill="#000" filter="url(#deepin-cloud-scan-config-helper-h)" xlink:href="#deepin-cloud-scan-config-helper-g"/>
    <path fill="url(#deepin-cloud-scan-config-helper-i)" fill-rule="nonzero" d="M73,4 C74.6568542,4 76,5.34314575 76,7 L76,69 C76,70.6568542 74.6568542,72 73,72 L7,72 C5.34314575,72 4,70.6568542 4,69 L4,7 C4,5.34314575 5.34314575,4 7,4 L73,4 Z M73,5 L7,5 C5.9456382,5 5.08183488,5.81587779 5.00548574,6.85073766 L5,7 L5,69 C5,70.0543618 5.81587779,70.9181651 6.85073766,70.9945143 L7,71 L73,71 C74.0543618,71 74.9181651,70.1841222 74.9945143,69.1492623 L75,69 L75,7 C75,5.9456382 74.1841222,5.08183488 73.1492623,5.00548574 L73,5 Z"/>
    <circle cx="69" cy="11" r="2" fill="url(#deepin-cloud-scan-config-helper-j)"/>
    <path fill="url(#deepin-cloud-scan-config-helper-k)" fill-rule="nonzero" d="M69,8 C67.3431458,8 66,9.34314575 66,11 C66,12.6568542 67.3431458,14 69,14 C70.6568542,14 72,12.6568542 72,11 C72,9.34314575 70.6568542,8 69,8 Z M69,9 C70.1045695,9 71,9.8954305 71,11 C71,12.1045695 70.1045695,13 69,13 C67.8954305,13 67,12.1045695 67,11 C67,9.8954305 67.8954305,9 69,9 Z"/>
    <g fill="#FFF" fill-rule="nonzero" transform="translate(16.125 9.625)">
      <polygon points=".875 .375 33.875 .375 46.875 13.375 46.875 55.375 .875 55.375" opacity=".5"/>
      <path d="M30.875,10.375 L30.875,12.375 L6.875,12.375 L6.875,10.375 L30.875,10.375 Z M40.875,18.375 L40.875,20.375 L6.875,20.375 L6.875,18.375 L40.875,18.375 Z M40.875,36.375 L40.875,38.375 L6.875,38.375 L6.875,36.375 L40.875,36.375 Z M40.875,45.375 L40.875,47.375 L28.875,47.375 L28.875,45.375 L40.875,45.375 Z" opacity=".505"/>
      <polygon fill-opacity=".5" points="33.875 .375 46.875 13.375 33.875 13.375"/>
    </g>
    <polygon fill="#09FD02" points="5 34 75 34 75 36 5 36" opacity=".596"/>
    <g fill-rule="nonzero">
      <use fill="#000" filter="url(#deepin-cloud-scan-config-helper-l)" xlink:href="#deepin-cloud-scan-config-helper-m"/>
      <use fill="url(#deepin-cloud-scan-config-helper-n)" xlink:href="#deepin-cloud-scan-config-helper-m"/>
      <use fill="#000" filter="url(#deepin-cloud-scan-config-helper-o)" xlink:href="#deepin-cloud-scan-config-helper-m"/>
    </g>
    <path fill="url(#deepin-cloud-scan-config-helper-p)" fill-rule="nonzero" d="M58.1399925,53.0038122 C52.5220125,53.1509163 47.9446338,57.5378349 47.4291464,63.1247179 L47.412,63.332 L47.2686772,63.3986535 C44.0981794,64.8969583 42,68.1250239 42,71.7567318 C42,76.8224436 46.0410596,80.9428058 51.0572856,80.989364 L75.8842421,80.984592 C80.9726652,80.8294865 85,76.6457991 85,71.5294641 L84.9959158,71.2484865 C84.8845163,67.4201474 82.5039653,64.0830454 79.046321,62.716536 L78.804,62.625 C77.5039392,58.4405999 73.6552845,55.5105374 69.2198359,55.5105374 L68.8197306,55.5185132 C67.8887946,55.5556803 66.977213,55.7223718 66.1028705,56.0107423 L66.004,56.044 L65.7603704,55.819013 C63.7604156,54.0219998 61.1767505,53 58.4314902,53 L58.1399925,53.0038122 Z M58.4314902,54 C61.3191291,54 63.9160474,55.2374533 65.7498239,57.2096744 C66.8195268,56.7609171 67.9898639,56.5105374 69.2198359,56.5105374 C73.4473989,56.5105374 76.9882277,59.4457573 77.9861822,63.4075336 C81.460853,64.4379422 84,67.6813215 84,71.5294641 C84,76.034122 80.520881,79.7085222 76.1333517,79.9732654 L75.8840481,79.984592 L51.0665667,79.989407 C46.6051226,79.9479981 43,76.2799363 43,71.7567318 C43,68.1897848 45.2456308,65.1611541 48.3820595,64.0161488 C48.466853,58.4712026 52.9301607,54 58.4314902,54 Z"/>
  </g>
</svg>
