<svg xmlns="http://www.w3.org/2000/svg" xmlns:xlink="http://www.w3.org/1999/xlink" width="96" height="96" viewBox="0 0 96 96">
  <defs>
    <filter id="iso定制工具-a" width="125.5%" height="130.8%" x="-12.8%" y="-15.4%" filterUnits="objectBoundingBox">
      <feOffset dy="2" in="SourceAlpha" result="shadowOffsetOuter1"/>
      <feGaussianBlur in="shadowOffsetOuter1" result="shadowBlurOuter1" stdDeviation="2"/>
      <feColorMatrix in="shadowBlurOuter1" result="shadowMatrixOuter1" values="0 0 0 0 0   0 0 0 0 0   0 0 0 0 0  0 0 0 0.2 0"/>
      <feMerge>
        <feMergeNode in="shadowMatrixOuter1"/>
        <feMergeNode in="SourceGraphic"/>
      </feMerge>
    </filter>
    <linearGradient id="iso定制工具-b" x1="50%" x2="50%" y1="0%" y2="98.768%">
      <stop offset="0%" stop-color="#A3C3DE"/>
      <stop offset="100%" stop-color="#2273BD"/>
    </linearGradient>
    <path id="iso定制工具-c" d="M80.5195081,3.08769736 L88.4946067,64.6506188 C73.8508355,66.6928076 63.6503129,67.9948832 57.8930389,68.5568456 C35.0117039,70.7902722 22.9946645,71.0068071 21.6635503,71.0068071 C18.9132922,71.0068071 15.2462813,70.0905402 14.3295286,67.3417396 C14.2213021,67.0172321 14.0533877,66.1346018 13.8257855,64.6938488 C13.120655,60.230277 10.3557837,41.283284 5.53117157,7.85286983 C6.57309943,8.3167038 7.14688943,8.5644343 7.25254156,8.59606135 C8.75761102,9.04660507 10.5205727,9.34021585 12.5414265,9.47689368 C16.3740462,9.73610797 29.2870414,9.37836316 49.616202,7.25151719 C55.4519839,6.64097506 65.7530859,5.25303511 80.5195081,3.08769736 Z"/>
    <filter id="iso定制工具-d" width="102.4%" height="102.9%" x="-1.2%" y="-1.5%" filterUnits="objectBoundingBox">
      <feOffset dy="2" in="SourceAlpha" result="shadowOffsetInner1"/>
      <feComposite in="shadowOffsetInner1" in2="SourceAlpha" k2="-1" k3="1" operator="arithmetic" result="shadowInnerInner1"/>
      <feColorMatrix in="shadowInnerInner1" values="0 0 0 0 1   0 0 0 0 1   0 0 0 0 1  0 0 0 0.260653409 0"/>
    </filter>
    <linearGradient id="iso定制工具-e" x1="50%" x2="50%" y1="0%" y2="100%">
      <stop offset="0%" stop-color="#015480" stop-opacity=".466"/>
      <stop offset="100%" stop-color="#00396D" stop-opacity=".749"/>
    </linearGradient>
    <linearGradient id="iso定制工具-f" x1="50%" x2="50%" y1="0%" y2="110.486%">
      <stop offset="0%" stop-opacity=".124"/>
      <stop offset="100%" stop-opacity=".208"/>
    </linearGradient>
    <linearGradient id="iso定制工具-g" x1="100%" x2="-18.276%" y1="60.423%" y2="60.423%">
      <stop offset="0%" stop-color="#B3E0FD"/>
      <stop offset="100%" stop-color="#1560A6"/>
    </linearGradient>
    <path id="iso定制工具-h" d="M2.30565844,3.05411605 L22.3603436,57.7343948 C17.8798253,60.4326621 15.6831897,63.2617006 15.7704367,66.2215101 L15.7820695,66.455451 C15.7947174,66.6363244 15.7891839,66.739542 15.7654691,66.7651037 C15.7569139,66.7743251 15.7428887,66.7609651 15.7233934,66.7250235 L15.6771095,66.6230317 L15.6771095,66.6230317 L15.6186171,66.4560334 L15.6186171,66.4560334 L15.3484808,65.5117849 L15.3484808,65.5117849 L14.6498919,62.9063681 L14.6498919,62.9063681 L12.7528334,55.6341382 L12.7528334,55.6341382 L9.34495697,42.3943373 L9.34495697,42.3943373 L0.9644875,9.57316756 L0.9644875,9.57316756 C0.487479583,7.81210668 0.381024294,6.28972512 0.645121632,5.00602286 C0.909218971,3.72232061 1.46273124,3.071685 2.30565844,3.05411605 Z"/>
    <filter id="iso定制工具-i" width="109.2%" height="103.1%" x="-4.6%" y="-1.6%" filterUnits="objectBoundingBox">
      <feGaussianBlur in="SourceAlpha" result="shadowBlurInner1" stdDeviation=".5"/>
      <feOffset dy="1" in="shadowBlurInner1" result="shadowOffsetInner1"/>
      <feComposite in="shadowOffsetInner1" in2="SourceAlpha" k2="-1" k3="1" operator="arithmetic" result="shadowInnerInner1"/>
      <feColorMatrix in="shadowInnerInner1" values="0 0 0 0 1   0 0 0 0 1   0 0 0 0 1  0 0 0 0.5 0"/>
    </filter>
    <linearGradient id="iso定制工具-j" x1="19.706%" x2="86.286%" y1="29.863%" y2="75.138%">
      <stop offset="0%" stop-color="#FFF"/>
      <stop offset="100%" stop-color="#FFF" stop-opacity=".715"/>
    </linearGradient>
    <filter id="iso定制工具-k" width="241.2%" height="130.8%" x="-70.6%" y="-15.4%" filterUnits="objectBoundingBox">
      <feOffset dy="2" in="SourceAlpha" result="shadowOffsetOuter1"/>
      <feGaussianBlur in="shadowOffsetOuter1" result="shadowBlurOuter1" stdDeviation="2"/>
      <feColorMatrix in="shadowBlurOuter1" result="shadowMatrixOuter1" values="0 0 0 0 0   0 0 0 0 0   0 0 0 0 0  0 0 0 0.2 0"/>
      <feMerge>
        <feMergeNode in="shadowMatrixOuter1"/>
        <feMergeNode in="SourceGraphic"/>
      </feMerge>
    </filter>
    <polygon id="iso定制工具-l" points="1 1 15.25 1 15.25 76.665 1 76.665"/>
    <filter id="iso定制工具-m" width="107%" height="101.3%" x="-3.5%" y="-.7%" filterUnits="objectBoundingBox">
      <feOffset dx="1" dy="1" in="SourceAlpha" result="shadowOffsetInner1"/>
      <feComposite in="shadowOffsetInner1" in2="SourceAlpha" k2="-1" k3="1" operator="arithmetic" result="shadowInnerInner1"/>
      <feColorMatrix in="shadowInnerInner1" values="0 0 0 0 1   0 0 0 0 1   0 0 0 0 1  0 0 0 1 0"/>
    </filter>
  </defs>
  <g fill="none" fill-rule="evenodd">
    <g filter="url(#iso定制工具-a)" transform="translate(0 9.75)">
      <g transform="rotate(2 -3.269 85.446)">
        <g transform="rotate(-4 47.013 37.047)">
          <use fill="url(#iso定制工具-b)" xlink:href="#iso定制工具-c"/>
          <use fill="#000" filter="url(#iso定制工具-d)" xlink:href="#iso定制工具-c"/>
        </g>
        <path fill="url(#iso定制工具-e)" fill-rule="nonzero" d="M88.4946067,64.6506188 L79.975965,65.82314 L74.9308655,66.4992161 L69.3377356,67.2255058 L66.8383558,67.5391485 L63.2514449,67.9723336 L61.2671861,68.2001724 L59.1475985,68.430017 L57.2302585,68.6212706 L52.7624473,69.0411929 L49.7549385,69.3091478 L45.8014654,69.6421218 L42.6512249,69.8906837 L38.792912,70.1730597 L36.5797521,70.3231132 L32.979982,70.546528 L30.8540692,70.6650849 L27.5249449,70.8272922 L24.7307659,70.9360036 L22.4646134,70.9970433 L21.8122074,71.0068071 L21.6635503,71.0068071 C18.9132922,71.0068071 15.2462813,70.0905402 14.3295286,67.3417396 L14.3085366,67.2743539 L14.262356,67.1003396 L14.2105796,66.8740013 L14.1224229,66.4363863 L14.0216759,65.8810422 L13.8677614,64.9574495 L12.9107362,58.6305285 L8.64896911,29.4200329 L5.53117157,7.85286983 L6.99084347,8.49239982 L7.25254156,8.59606135 C8.62078652,9.00564655 10.2021655,9.2855351 11.9966785,9.43572701 L12.671064,9.48521417 L13.099319,9.50740179 L13.7616306,9.53017052 L14.527513,9.54461275 L15.6292208,9.55006201 L16.8897767,9.54043711 L18.0114791,9.52111322 L19.8808079,9.47137807 L21.6079704,9.40965058 L23.4873559,9.32826219 L25.9412206,9.20302921 L28.1496662,9.07435053 L29.5453624,8.98601818 L30.993593,8.88903924 L32.4940003,8.78316603 L35.1096553,8.58627293 L37.8675954,8.36283885 L40.1752795,8.16421149 L43.1851585,7.89011399 L46.3326848,7.58626478 L48.2865822,7.38919742 L50.8873196,7.11410565 L53.4184011,6.82025291 L56.7889239,6.40122762 L60.6691623,5.89346251 L64.4824969,5.37637365 L69.3184518,4.70222138 L76.8001596,3.63036651 L80.5195081,3.08769736 L88.4946067,64.6506188 Z M87.375,63.797 L79.658,4.224 L71.3999849,5.41716944 L65.1893594,6.28846379 L60.2805509,6.95405799 L56.9083192,7.39409579 L53.9259904,7.7662035 L51.6799622,8.03109352 L49.7202545,8.24608899 L46.7616522,8.54820033 L44.5838725,8.76101555 L42.4447833,8.96201231 L40.3474447,9.15117523 L38.2949168,9.32848895 L36.9529709,9.44010762 L33.6971387,9.69605441 L31.2018152,9.87701439 L28.2312393,10.0734078 L26.5335757,10.1753197 L24.9031639,10.2652696 L23.3430639,10.3432423 L21.8563358,10.4092224 L20.4460398,10.4631944 L19.1152361,10.5051431 L17.8669846,10.5350529 L17.0821906,10.5482971 L15.9783267,10.5581082 L15.0021189,10.556148 L14.2834084,10.546524 C14.168322,10.5443228 14.0556043,10.541823 13.9452844,10.5390243 L13.3123699,10.5186453 L12.7383957,10.4910875 C12.6477225,10.4858959 12.5595632,10.4804049 12.4739469,10.4746143 C10.3827977,10.3331822 8.54728761,10.0274889 6.96576432,9.55405864 L6.776,9.484 L13.1277297,53.2450567 L14.8135363,64.5378094 L14.9299751,65.2568005 L15.0658648,66.0402137 L15.1518528,66.4912636 L15.2229804,66.820952 L15.2616067,66.9713864 C15.2674359,66.9917543 15.2729565,67.0097539 15.2781616,67.0253609 C15.8837104,68.8410446 18.3977333,69.9368585 21.3702454,70.003582 L21.8047993,70.0062013 L22.8876095,69.9894436 L24.5658182,69.9426722 L25.548864,69.9080484 L27.3841687,69.8332024 L29.8844314,69.7142979 L32.1905361,69.5901993 L33.817924,69.4952203 L36.3403695,69.3369752 L38.9602018,69.1594447 L40.7607216,69.0301804 L42.6043164,68.8920502 L45.4502921,68.6679734 L47.4012101,68.5071627 L49.3949119,68.3370735 L52.4655019,68.064285 L54.5657988,67.8704841 L58.7222494,67.4686978 L60.7892522,67.2472848 L63.141917,66.9783334 L66.2476515,66.6044811 L70.2729265,66.098012 L76.0180919,65.3461314 L82.5558354,64.4622823 L87.375,63.797 Z" transform="rotate(-4 47.013 37.047)"/>
        <path fill="url(#iso定制工具-f)" d="M25.8770698,55.8142365 C25.4679559,55.8790338 25.1888322,56.2632147 25.2536294,56.6723287 L25.5417461,58.4914255 C25.6065434,58.9005394 25.9907243,59.1796632 26.3998382,59.1148659 L52.9736555,54.9059868 C53.3827694,54.8411895 53.6618932,54.4570086 53.5970959,54.0478947 L53.3089793,52.2287978 C53.244182,51.8196839 52.8600011,51.5405601 52.4508872,51.6053574 L25.8770698,55.8142365 Z M55.5827344,51.1093215 C55.1736205,51.1741188 54.8944967,51.5582997 54.959294,51.9674136 L55.2474106,53.7865105 C55.3122079,54.1956244 55.6963888,54.4747482 56.1055027,54.4099509 L71.9522745,51.9000688 C72.3613884,51.8352715 72.6405122,51.4510906 72.5757149,51.0419767 L72.2875983,49.2228798 C72.222801,48.8137659 71.8386201,48.5346421 71.4295062,48.5994394 L55.5827344,51.1093215 Z M29.6517852,47.6036679 C29.2426713,47.6684652 28.9635475,48.0526461 29.0283448,48.46176 L29.3164614,50.2808569 C29.3812587,50.6899708 29.7654396,50.9690946 30.1745535,50.9042973 L66.650259,45.1271131 C67.0593729,45.0623158 67.3384967,44.6781349 67.2736994,44.269021 L66.9855828,42.4499241 C66.9207855,42.0408102 66.5366046,41.7616864 66.1274907,41.8264837 L29.6517852,47.6036679 Z M38.3774446,38.6089468 C37.9683307,38.673744 37.6892069,39.057925 37.7540042,39.4670389 L38.0421208,41.2861357 C38.1069181,41.6952497 38.491099,41.9743734 38.9002129,41.9095762 L69.599817,37.0472365 C70.0089309,36.9824393 70.2880547,36.5982583 70.2232574,36.1891444 L69.9351407,34.3700476 C69.8703435,33.9609337 69.4861625,33.6818099 69.0770486,33.7466072 L38.3774446,38.6089468 Z M24.3497697,40.8307122 C23.9406558,40.8955095 23.661532,41.2796904 23.7263293,41.6888043 L23.7263293,41.6888043 L24.0144459,43.5079012 C24.0792432,43.9170151 24.4634241,44.1961389 24.872538,44.1313416 L24.872538,44.1313416 L34.118051,42.6669962 C34.5271649,42.6021989 34.8062887,42.218018 34.7414914,41.8089041 L34.7414914,41.8089041 L34.4533748,39.9898072 C34.3885775,39.5806933 34.0043966,39.3015695 33.5952827,39.3663668 L33.5952827,39.3663668 Z M62.9117857,27.9562334 C62.5026718,28.0210306 62.223548,28.4052116 62.2883453,28.8143255 L62.5764619,30.6334223 C62.6412592,31.0425362 63.0254401,31.32166 63.434554,31.2568627 L67.7291229,30.5766699 C68.1382368,30.5118726 68.4173606,30.1276917 68.3525633,29.7185777 L68.0644467,27.8994809 C67.9996494,27.490367 67.6154685,27.2112432 67.2063546,27.2760405 L62.9117857,27.9562334 Z M50.185093,29.9442736 C49.7757968,30.0079089 49.4955832,30.3912957 49.5592186,30.800592 L49.8476644,32.6217868 C49.9123317,33.0300795 50.295178,33.3090649 50.7036527,33.2455573 L59.475112,31.8818145 C59.8844082,31.8181791 60.1646218,31.4347923 60.1009864,31.0254961 L59.8125406,29.2043013 C59.7478733,28.7960086 59.365027,28.5170231 58.9565523,28.5805307 L50.185093,29.9442736 Z M54.3091408,21.706046 C53.9000269,21.7708433 53.6209031,22.1550242 53.6857004,22.5641381 L53.973817,24.383235 C54.0386143,24.7923489 54.4227952,25.0714727 54.8319091,25.0066754 L67.3780515,23.0195616 C67.7871654,22.9547644 68.0662892,22.5705834 68.0014919,22.1614695 L67.7133753,20.3423727 C67.648578,19.9332587 67.2643971,19.654135 66.8552832,19.7189322 L54.3091408,21.706046 Z M62.3713228,12.8251781 L44.4287545,15.8773788 C44.0236997,15.9462825 43.7494888,16.3282682 43.8137635,16.7340832 L44.1018649,18.5530835 C44.1666622,18.9621974 44.5508431,19.2413212 44.959957,19.1765239 L44.9684064,19.1751362 L62.9109747,16.1229354 C63.3160295,16.0540318 63.5902405,15.6720461 63.5259657,15.2662311 L63.2378643,13.4472308 C63.1730671,13.0381169 62.7888861,12.7589931 62.3797722,12.8237904 L62.3713228,12.8251781 Z" opacity=".273"/>
        <use fill="url(#iso定制工具-g)" xlink:href="#iso定制工具-h"/>
        <use fill="#000" filter="url(#iso定制工具-i)" xlink:href="#iso定制工具-h"/>
      </g>
      <path fill="url(#iso定制工具-j)" fill-rule="nonzero" d="M41.42096,22.8214104 C41.0440915,22.4764352 41.0440915,21.9171377 41.42096,21.5721626 C41.7978587,21.2272151 42.4089129,21.2272151 42.7858116,21.5721626 L49.9512596,28.1306927 C50.3281583,28.4756678 50.3281583,29.0349654 49.9512596,29.3799405 L42.7858116,35.9384706 C42.4089129,36.2834457 41.7978587,36.2834457 41.42096,35.9384706 C41.0440915,35.5934955 41.0440915,35.034198 41.42096,34.6892228 L47.7333871,28.9114898 C47.7786373,28.8700745 47.8040588,28.813902 47.8040588,28.7553304 C47.8040588,28.6967588 47.7786373,28.6405863 47.7333871,28.599171 L41.42096,22.8214104 Z M25.372702,28.9734749 L31.685099,34.7512079 C32.0619977,35.096183 32.0619977,35.6554806 31.685099,36.0004557 C31.3082003,36.3454308 30.6971461,36.3454308 30.3202474,36.0004557 L23.1547994,29.4419256 C22.7779309,29.0969504 22.7779309,28.5376529 23.1547994,28.1926778 L30.3202474,21.6341477 C30.6971461,21.2892001 31.3082003,21.2892001 31.685099,21.6341477 C32.0619977,21.9791228 32.0619977,22.5384203 31.685099,22.8833954 L25.372702,28.6611561 C25.3274519,28.7025714 25.3020304,28.7587439 25.3020304,28.8173155 C25.3020304,28.8758871 25.3274519,28.9320596 25.372702,28.9734749 Z M38.6425188,20.5400908 C39.1759854,20.6559271 39.508612,21.1565341 39.3854376,21.6582192 L35.5804458,37.1576069 C35.4573024,37.659292 34.9249821,37.9721022 34.3915156,37.856266 C33.858049,37.7404589 33.5254224,37.2398518 33.6485658,36.7381668 L37.4535886,21.238779 C37.576732,20.737094 38.1090523,20.4242837 38.6425188,20.5400908 L38.6425188,20.5400908 Z" transform="rotate(-5 36.553 29.198)"/>
    </g>
    <g filter="url(#iso定制工具-k)" transform="rotate(15 .197 279.468)">
      <use fill="#FFF" fill-opacity=".604" xlink:href="#iso定制工具-l"/>
      <use fill="#000" filter="url(#iso定制工具-m)" xlink:href="#iso定制工具-l"/>
      <path fill="#000" fill-opacity=".392" fill-rule="nonzero" d="M15.25,0 L1,0 C0.44771525,0 0,0.44771525 0,1 L0,76.6652641 C0,77.2175488 0.44771525,77.6652641 1,77.6652641 L15.25,77.6652641 C15.8022847,77.6652641 16.25,77.2175488 16.25,76.6652641 L16.25,1 C16.25,0.44771525 15.8022847,0 15.25,0 Z M15.25,1 L15.25,76.6652641 L1,76.6652641 L1,1 L15.25,1 Z"/>
      <polygon fill="#000" fill-opacity=".101" points="12.25 1 15.25 1 15.25 76.665 12.25 76.665"/>
      <path fill="#000" fill-opacity=".153" fill-rule="nonzero" d="M15,73.25 L15,74.25 L11.75,74.25 L11.75,73.25 L15,73.25 Z M15,70.25 L15,71.25 L8.75,71.25 L8.75,70.25 L15,70.25 Z M15,66.5 L15,67.5 L11.75,67.5 L11.75,66.5 L15,66.5 Z M15,62.75 L15,63.75 L8.75,63.75 L8.75,62.75 L15,62.75 Z M15,59 L15,60 L11.75,60 L11.75,59 L15,59 Z M15,55.25 L15,56.25 L8.75,56.25 L8.75,55.25 L15,55.25 Z M15,51.5 L15,52.5 L11.75,52.5 L11.75,51.5 L15,51.5 Z M15,47.75 L15,48.75 L8.75,48.75 L8.75,47.75 L15,47.75 Z M15,44 L15,45 L11.75,45 L11.75,44 L15,44 Z M15,41 L15,42 L8.75,42 L8.75,41 L15,41 Z M15,37.25 L15,38.25 L11.75,38.25 L11.75,37.25 L15,37.25 Z M15,33.5 L15,34.5 L8.75,34.5 L8.75,33.5 L15,33.5 Z M15,29.75 L15,30.75 L11.75,30.75 L11.75,29.75 L15,29.75 Z M15,26 L15,27 L8.75,27 L8.75,26 L15,26 Z M15,22.25 L15,23.25 L11.75,23.25 L11.75,22.25 L15,22.25 Z M15,18.5 L15,19.5 L8.75,19.5 L8.75,18.5 L15,18.5 Z M15,15.5 L15,16.5 L11.75,16.5 L11.75,15.5 L15,15.5 Z M15,11.75 L15,12.75 L8.75,12.75 L8.75,11.75 L15,11.75 Z M15,8 L15,9 L11.75,9 L11.75,8 L15,8 Z M8.75,5.25 L8.75,4.25 L15,4.25 L15,5.25 L8.75,5.25 Z"/>
    </g>
  </g>
</svg>
