<svg xmlns="http://www.w3.org/2000/svg" xmlns:xlink="http://www.w3.org/1999/xlink" width="96" height="96" viewBox="0 0 96 96">
  <defs>
    <filter id="kmsclient-a" width="129.3%" height="129.3%" x="-14.6%" y="-14.6%" filterUnits="objectBoundingBox">
      <feOffset dy="2" in="SourceAlpha" result="shadowOffsetOuter1"/>
      <feGaussianBlur in="shadowOffsetOuter1" result="shadowBlurOuter1" stdDeviation="2"/>
      <feColorMatrix in="shadowBlurOuter1" result="shadowMatrixOuter1" values="0 0 0 0 0   0 0 0 0 0   0 0 0 0 0  0 0 0 0.2 0"/>
      <feMerge>
        <feMergeNode in="shadowMatrixOuter1"/>
        <feMergeNode in="SourceGraphic"/>
      </feMerge>
    </filter>
    <linearGradient id="kmsclient-b" x1="50%" x2="50%" y1="0%" y2="100%">
      <stop offset="0%" stop-color="#F3F9F4"/>
      <stop offset="100%" stop-color="#D0DDE3"/>
    </linearGradient>
    <path id="kmsclient-c" d="M5.5,1 L76.5,1 C78.9852814,1 81,3.01471863 81,5.5 L81,76.5 C81,78.9852814 78.9852814,81 76.5,81 L5.5,81 C3.01471863,81 1,78.9852814 1,76.5 L1,5.5 C1,3.01471863 3.01471863,1 5.5,1 Z"/>
    <filter id="kmsclient-d" width="101.2%" height="101.2%" x="-.6%" y="-.6%" filterUnits="objectBoundingBox">
      <feOffset dy="1" in="SourceAlpha" result="shadowOffsetInner1"/>
      <feComposite in="shadowOffsetInner1" in2="SourceAlpha" k2="-1" k3="1" operator="arithmetic" result="shadowInnerInner1"/>
      <feColorMatrix in="shadowInnerInner1" values="0 0 0 0 1   0 0 0 0 1   0 0 0 0 1  0 0 0 1 0"/>
    </filter>
    <linearGradient id="kmsclient-e" x1="50%" x2="50%" y1="0%" y2="100%">
      <stop offset="0%" stop-opacity=".202"/>
      <stop offset="100%" stop-opacity=".401"/>
    </linearGradient>
    <linearGradient id="kmsclient-h" x1="83.779%" x2="11.984%" y1="18.851%" y2="80.234%">
      <stop offset="0%" stop-color="#90A1CE"/>
      <stop offset="100%" stop-color="#758EC2"/>
    </linearGradient>
    <circle id="kmsclient-g" cx="19.375" cy="19.688" r="19"/>
    <filter id="kmsclient-f" width="128.9%" height="128.9%" x="-14.5%" y="-9.2%" filterUnits="objectBoundingBox">
      <feOffset dy="2" in="SourceAlpha" result="shadowOffsetOuter1"/>
      <feGaussianBlur in="shadowOffsetOuter1" result="shadowBlurOuter1" stdDeviation="1.5"/>
      <feColorMatrix in="shadowBlurOuter1" values="0 0 0 0 0   0 0 0 0 0.0350400191   0 0 0 0 0.298035553  0 0 0 0.15 0"/>
    </filter>
    <linearGradient id="kmsclient-k" x1="89.809%" x2="10.287%" y1="22.374%" y2="75.079%">
      <stop offset="0%" stop-color="#95C5DA"/>
      <stop offset="100%" stop-color="#70ABCA"/>
    </linearGradient>
    <circle id="kmsclient-j" cx="36.375" cy="19.688" r="19"/>
    <filter id="kmsclient-i" width="128.9%" height="128.9%" x="-14.5%" y="-9.2%" filterUnits="objectBoundingBox">
      <feOffset dy="2" in="SourceAlpha" result="shadowOffsetOuter1"/>
      <feGaussianBlur in="shadowOffsetOuter1" result="shadowBlurOuter1" stdDeviation="1.5"/>
      <feColorMatrix in="shadowBlurOuter1" values="0 0 0 0 0   0 0 0 0 0.0350400191   0 0 0 0 0.298035553  0 0 0 0.15 0"/>
    </filter>
    <linearGradient id="kmsclient-n" x1="92.198%" x2="8.671%" y1="22.226%" y2="68.783%">
      <stop offset="0%" stop-color="#C3EFD0"/>
      <stop offset="100%" stop-color="#71BDC1"/>
    </linearGradient>
    <circle id="kmsclient-m" cx="54.375" cy="19.688" r="19"/>
    <filter id="kmsclient-l" width="128.9%" height="128.9%" x="-14.5%" y="-9.2%" filterUnits="objectBoundingBox">
      <feOffset dy="2" in="SourceAlpha" result="shadowOffsetOuter1"/>
      <feGaussianBlur in="shadowOffsetOuter1" result="shadowBlurOuter1" stdDeviation="1.5"/>
      <feColorMatrix in="shadowBlurOuter1" values="0 0 0 0 0.0715196752   0 0 0 0 0.236045063   0 0 0 0 0.181359068  0 0 0 0.15 0"/>
    </filter>
    <linearGradient id="kmsclient-q" x1="56.876%" x2="56.876%" y1="0%" y2="91.235%">
      <stop offset="0%" stop-color="#FFF"/>
      <stop offset="100%" stop-color="#FFF" stop-opacity=".769"/>
    </linearGradient>
    <path id="kmsclient-p" d="M18,48.5 L18,45.3125 L18,45.3125 L20.6447402,42.5093873 L24.5365089,49.610456 C24.6681571,49.8506664 24.9202903,50 25.1942105,50 L29.027333,50 C29.3379932,50 29.589833,49.7481602 29.589833,49.4375 C29.589833,49.3390342 29.5639857,49.2422934 29.5148752,49.156949 L23.670166,39 L23.670166,39 L29.7765265,32.9624964 C29.9974384,32.7440755 29.9994578,32.387926 29.7810369,32.1670141 C29.6753703,32.0601423 29.5313303,32 29.3810405,32 L25.0666954,32 C24.8642206,32 24.6703477,32.0818649 24.5291509,32.2269838 L18,38.9375 L18,38.9375 L18,33.5 C18,32.6715729 17.3284271,32 16.5,32 L14.5507812,32 C13.7223541,32 13.0507812,32.6715729 13.0507812,33.5 L13.0507812,48.5 C13.0507812,49.3284271 13.7223541,50 14.5507812,50 L16.5,50 C17.3284271,50 18,49.3284271 18,48.5 Z M37,48.875 L37,37.0625 L37,37.0625 L40.3349589,49.1736664 C40.4693709,49.6617944 40.9132935,50 41.4195894,50 L43.6389069,50 C44.1470816,50 44.5921625,49.6593279 44.7248692,49.1687869 L48,37.0625 L48,37.0625 L48,48.875 C48,49.4963203 48.5036797,50 49.125,50 L50.875,50 C51.4963203,50 52,49.4963203 52,48.875 L52,33.5 C52,32.6715729 51.3284271,32 50.5,32 L46.4193338,32 C45.7318808,32 45.1324175,32.4673152 44.9646738,33.1339888 L42.5078125,42.8984375 L42.5078125,42.8984375 L39.9203107,33.1164183 C39.7462421,32.4583545 39.1508814,32 38.4701848,32 L34.5,32 C33.6715729,32 33,32.6715729 33,33.5 L33,48.875 C33,49.4963203 33.5036797,50 34.125,50 L35.875,50 C36.4963203,50 37,49.4963203 37,48.875 Z M62.6875,50 C64.3515625,50 65.6367187,49.4902344 66.7304687,49.0097656 C67.8242187,48.5292969 68.6757812,47.8242187 69.2851562,46.8945312 C69.8945312,45.9648437 70.1992187,45.1367187 70.1992187,44.0351562 C70.1992187,43.0976562 69.9707031,42.25 69.5136719,41.4921875 C69.0566406,40.734375 68.3261719,40.0996094 67.3222656,39.5878906 C66.3183594,39.0761719 64.65625,38.5703125 62.3359375,38.0703125 C61.3984375,37.875 60.8046875,37.6640625 60.5546875,37.4375 C60.296875,37.21875 60.1679687,36.9726562 60.1679687,36.6992187 C60.1679687,36.3242187 60.3242187,36.0058594 60.6367187,35.7441406 C60.9492187,35.4824219 61.4140625,35.3515625 62.03125,35.3515625 C62.78125,35.3515625 63.3691406,35.5273437 63.7949219,35.8789062 C64.0409653,36.0820614 64.2757797,36.1863712 64.4570312,36.4940596 C64.4823689,36.5370723 64.5084799,36.581634 64.5353642,36.6277446 C64.6697401,36.8582513 64.9164668,37 65.1832817,37 L68.4952759,37 C68.909472,36.9999684 69.2452443,36.6641961 69.2452443,36.25 C69.2452443,36.2305317 69.2444863,36.2110707 69.2429718,36.1916614 C69.2097087,35.765345 69.1258112,35.4099569 68.9912792,35.125497 C68.6476869,34.3989913 68.17838,33.8008348 67.5800781,33.3769531 C66.4277344,32.5605469 64.8828125,32 62.6875,32 C60.8984375,32 59.3613281,32.3769531 58.3339844,32.8261719 C57.3066406,33.2753906 56.5371094,33.8925781 56.0253906,34.6777344 C55.5136719,35.4628906 55.2578125,36.296875 55.2578125,37.1796875 C55.2578125,38.5234375 55.7578125,39.6289062 56.7578125,40.4960937 C57.75,41.3632812 59.4101562,42.0585937 61.7382812,42.5820312 C63.1601562,42.8945312 64.0664062,43.2265625 64.4570312,43.578125 C64.8476562,43.9296875 65.0429687,44.140625 65.0429687,44.5859375 C65.0429687,45.0546875 64.8378906,45.4667969 64.4277344,45.8222656 C64.0175781,46.1777344 63.3515625,46.25 62.59375,46.25 C61.578125,46.25 60.8789062,46.0078125 60.3320312,45.3125 C60.20479,45.1497495 60.0971627,44.9858782 60.0066024,44.8005091 C59.9618189,44.7088411 59.915533,44.6064498 59.8677447,44.4933351 C59.7504812,44.2156269 59.4783212,44.0351562 59.1768704,44.0351562 L55.5698517,44.0351562 C55.1556623,44.0352001 54.8198955,44.3709669 54.8198955,44.7851562 C54.8198955,44.8502053 54.8283586,44.914978 54.8450718,44.9778434 C54.8822991,45.1178716 54.9198045,45.2493743 54.9575879,45.3723516 C55.2728329,46.3984101 55.7926412,47.3121725 56.5234375,48.0429687 C57.6484375,49.1679687 59.765625,50 62.6875,50 Z"/>
    <filter id="kmsclient-o" width="119.2%" height="161.1%" x="-9.6%" y="-19.4%" filterUnits="objectBoundingBox">
      <feOffset dy="2" in="SourceAlpha" result="shadowOffsetOuter1"/>
      <feGaussianBlur in="shadowOffsetOuter1" result="shadowBlurOuter1" stdDeviation="1.5"/>
      <feColorMatrix in="shadowBlurOuter1" values="0 0 0 0 0   0 0 0 0 0   0 0 0 0 0  0 0 0 0.1 0"/>
    </filter>
    <linearGradient id="kmsclient-r" x1="53.569%" x2="53.569%" y1="3.289%" y2="102.766%">
      <stop offset="0%" stop-opacity=".104"/>
      <stop offset="100%" stop-opacity=".197"/>
    </linearGradient>
    <filter id="kmsclient-s" width="166.7%" height="166.7%" x="-33.3%" y="-33.3%" filterUnits="objectBoundingBox">
      <feOffset dy="2" in="SourceAlpha" result="shadowOffsetOuter1"/>
      <feGaussianBlur in="shadowOffsetOuter1" result="shadowBlurOuter1" stdDeviation="2"/>
      <feColorMatrix in="shadowBlurOuter1" result="shadowMatrixOuter1" values="0 0 0 0 0   0 0 0 0 0   0 0 0 0 0  0 0 0 0.2 0"/>
      <feMerge>
        <feMergeNode in="shadowMatrixOuter1"/>
        <feMergeNode in="SourceGraphic"/>
      </feMerge>
    </filter>
    <linearGradient id="kmsclient-t" x1="50%" x2="50%" y1="0%" y2="100%">
      <stop offset="0%" stop-color="#F2F2F2"/>
      <stop offset="100%" stop-color="#D3D3D3"/>
      <stop offset="100%" stop-color="#EDF2DE"/>
    </linearGradient>
    <circle id="kmsclient-u" cx="18" cy="18" r="17"/>
    <filter id="kmsclient-v" width="102.9%" height="102.9%" x="-1.5%" y="-1.5%" filterUnits="objectBoundingBox">
      <feOffset dy="1" in="SourceAlpha" result="shadowOffsetInner1"/>
      <feComposite in="shadowOffsetInner1" in2="SourceAlpha" k2="-1" k3="1" operator="arithmetic" result="shadowInnerInner1"/>
      <feColorMatrix in="shadowInnerInner1" result="shadowMatrixInner1" values="0 0 0 0 1   0 0 0 0 1   0 0 0 0 1  0 0 0 1 0"/>
      <feOffset dy="-1" in="SourceAlpha" result="shadowOffsetInner2"/>
      <feComposite in="shadowOffsetInner2" in2="SourceAlpha" k2="-1" k3="1" operator="arithmetic" result="shadowInnerInner2"/>
      <feColorMatrix in="shadowInnerInner2" result="shadowMatrixInner2" values="0 0 0 0 0   0 0 0 0 0   0 0 0 0 0  0 0 0 0.101070804 0"/>
      <feMerge>
        <feMergeNode in="shadowMatrixInner1"/>
        <feMergeNode in="shadowMatrixInner2"/>
      </feMerge>
    </filter>
    <linearGradient id="kmsclient-w" x1="50%" x2="50%" y1="0%" y2="99.637%">
      <stop offset="0%" stop-opacity=".201"/>
      <stop offset="100%" stop-opacity=".303"/>
    </linearGradient>
    <linearGradient id="kmsclient-x" x1="50%" x2="50%" y1="0%" y2="99.536%">
      <stop offset="0%" stop-color="#7192C0"/>
      <stop offset="100%" stop-color="#46517C"/>
    </linearGradient>
    <linearGradient id="kmsclient-y" x1="50%" x2="50%" y1="0%" y2="97.268%">
      <stop offset="0%" stop-opacity=".103"/>
      <stop offset="100%" stop-opacity=".194"/>
    </linearGradient>
  </defs>
  <g fill="none" fill-rule="evenodd">
    <g filter="url(#kmsclient-a)" transform="translate(7 6)">
      <use fill="url(#kmsclient-b)" xlink:href="#kmsclient-c"/>
      <use fill="#000" filter="url(#kmsclient-d)" xlink:href="#kmsclient-c"/>
      <path fill="url(#kmsclient-e)" fill-rule="nonzero" d="M76.5,0 L5.5,0 C2.46243388,0 0,2.46243388 0,5.5 L0,76.5 C0,79.5375661 2.46243388,82 5.5,82 L76.5,82 C79.5375661,82 82,79.5375661 82,76.5 L82,5.5 C82,2.46243388 79.5375661,0 76.5,0 Z M76.5,1 C78.9852814,1 81,3.01471863 81,5.5 L81,76.5 C81,78.9852814 78.9852814,81 76.5,81 L5.5,81 C3.01471863,81 1,78.9852814 1,76.5 L1,5.5 C1,3.01471863 3.01471863,1 5.5,1 L76.5,1 Z"/>
      <g transform="translate(4.625 21.313)">
        <g fill-rule="nonzero" opacity=".704">
          <use fill="#000" filter="url(#kmsclient-f)" xlink:href="#kmsclient-g"/>
          <use fill="url(#kmsclient-h)" xlink:href="#kmsclient-g"/>
        </g>
        <g fill-rule="nonzero" opacity=".86">
          <use fill="#000" filter="url(#kmsclient-i)" xlink:href="#kmsclient-j"/>
          <use fill="url(#kmsclient-k)" xlink:href="#kmsclient-j"/>
        </g>
        <g opacity=".855">
          <use fill="#000" filter="url(#kmsclient-l)" xlink:href="#kmsclient-m"/>
          <use fill="url(#kmsclient-n)" xlink:href="#kmsclient-m"/>
        </g>
      </g>
      <g fill-rule="nonzero">
        <use fill="#000" filter="url(#kmsclient-o)" xlink:href="#kmsclient-p"/>
        <use fill="url(#kmsclient-q)" xlink:href="#kmsclient-p"/>
      </g>
      <path fill="url(#kmsclient-r)" fill-rule="nonzero" d="M16.5,31 C17.8254834,31 18.9100387,32.0315359 18.9946823,33.3356243 L19,33.5 L18.999,36.476 L23.812425,31.5296288 C24.068671,31.2662649 24.3992706,31.0921854 24.7558367,31.0278224 L24.9100994,31.0070152 L25.0666954,31 L29.3810405,31 C29.7985121,31 30.1986231,31.1670619 30.4921416,31.4639279 C31.0609459,32.0392194 31.091566,32.9446809 30.5875444,33.555542 L30.4796126,33.6736011 L24.921,39.169 L30.3816169,48.6581916 C30.4634677,48.8004323 30.5220554,48.9540694 30.5558293,49.1133 L30.5812747,49.2741803 L30.589833,49.4375 C30.589833,50.2525035 29.9658471,50.9217674 29.1695524,50.9936146 L29.027333,51 L25.1942105,51 C24.6083255,51 24.0651574,50.7072094 23.7420918,50.2266902 L23.6595733,50.091064 L20.428,44.195 L18.999,45.71 L19,48.5 C19,49.7702549 18.0526345,50.8192408 16.8259123,50.9789489 L16.6643757,50.9946823 L16.5,51 L14.5507812,51 C13.2252979,51 12.1407426,49.9684641 12.0560989,48.6643757 L12.0507812,48.5 L12.0507812,33.5 C12.0507812,32.1745166 13.0823172,31.0899613 14.3864056,31.0053177 L14.5507812,31 L16.5,31 Z M38.4701848,31 C39.5449689,31 40.4921038,31.6856272 40.8355003,32.6903514 L40.8870612,32.8606972 L42.483,38.896 L43.9949004,32.8899813 C44.2457394,31.8930574 45.0758078,31.1636085 46.0713286,31.024197 L46.248642,31.0057856 L46.4193338,31 L50.5,31 C51.8254834,31 52.9100387,32.0315359 52.9946823,33.3356243 L53,33.5 L53,48.875 C53,49.9975788 52.1295366,50.91685 51.0267588,50.9946645 L50.875,51 L49.125,51 C48.0024212,51 47.08315,50.1295366 47.0053355,49.0267588 L47,48.875 L47,44.587 L45.6901691,49.4299308 C45.4689912,50.2474991 44.7884395,50.844672 43.9719747,50.9738675 L43.8069655,50.9933935 L43.6389069,51 L41.4195894,51 C40.5195078,51 39.7237894,50.4341135 39.4216207,49.5988449 L39.3708428,49.4391476 L38,44.463 L38,48.875 C38,49.9441227 37.210464,50.8288393 36.1826492,50.9778928 L36.0267588,50.9946645 L35.875,51 L34.125,51 C33.0024212,51 32.08315,50.1295366 32.0053355,49.0267588 L32,48.875 L32,33.5 C32,32.1745166 33.0315359,31.0899613 34.3356243,31.0053177 L34.5,31 L38.4701848,31 Z M62.6875,31 C64.9259006,31 66.7148396,31.5384185 68.1581722,32.560983 C68.8919182,33.0808234 69.4740153,33.8072268 69.8952778,34.6979616 C70.0545501,35.0347335 70.158469,35.4186145 70.213059,35.849617 L70.2430836,36.1642447 L70.2452443,36.25 C70.2452443,37.168134 69.5381836,37.9211219 68.638806,37.9941885 L68.4952759,38 L66.032,38 L66.0944526,38.0202443 C66.5536515,38.1718418 66.9612609,38.3253137 67.3179589,38.4811483 L67.5759471,38.5984749 L67.7763991,38.696957 C68.9375581,39.2888318 69.8096977,40.0467071 70.3699942,40.9757457 C70.9224979,41.8918629 71.1992187,42.9183319 71.1992187,44.0351562 C71.1992187,45.2956317 70.8639567,46.3100141 70.1215063,47.4427271 C69.4039124,48.5375177 68.4003648,49.3684367 67.1326594,49.9253216 C65.4542809,50.6626093 64.2558409,51 62.6875,51 C59.6966697,51 57.2382922,50.172037 55.8163307,48.7500755 C54.9805322,47.914277 54.3701306,46.8652502 54.0016871,45.6660414 C53.9600427,45.5304974 53.9190533,45.3867789 53.8786421,45.2347745 C53.8396434,45.0880838 53.8198955,44.9369425 53.8198955,44.7851562 C53.8198955,43.8670376 54.526937,43.1140617 55.4263204,43.0409717 L55.5698517,43.0351562 L59.1768704,43.0351562 C59.8802847,43.0351562 60.5153506,43.4563089 60.7889105,44.1041647 L60.8679247,44.2832866 C60.8805856,44.3106387 60.8929846,44.3367314 60.9051102,44.3615516 C60.9590831,44.4720293 61.0263085,44.5769467 61.118043,44.6942885 C61.4356076,45.0980492 61.8169942,45.25 62.59375,45.25 L62.7724598,45.2481995 L63.0843491,45.234308 C63.4606023,45.2070941 63.6807843,45.1463268 63.7728038,45.0665765 C63.9390312,44.9225128 64.0158275,44.7998512 64.0368088,44.6670716 L64.0429687,44.5859375 C64.0429687,44.5707417 64.0447332,44.5633638 64.0370569,44.5512541 L63.9745,44.4881804 L63.7880665,44.3214191 C63.67068,44.2157713 63.3921794,44.0845025 62.9662799,43.9428964 L62.6194323,43.8349925 L62.2185959,43.7246449 L61.7650564,43.6132865 L61.5189249,43.5576761 C59.0429087,43.0009878 57.2405135,42.2461024 56.1026573,41.2515881 C54.8826739,40.1936337 54.2578125,38.8121042 54.2578125,37.1796875 C54.2578125,36.099819 54.5716652,35.076803 55.1876142,34.1317209 C55.811316,33.1747434 56.7349822,32.433935 57.9333483,31.9099346 C59.2237094,31.3457083 60.916333,31 62.6875,31 Z M14.5507812,32 L14.4063212,32.0068666 C13.6932101,32.0750085 13.1257898,32.6424288 13.0576478,33.35554 L13.0507812,33.5 L13.0507812,48.5 L13.0576478,48.64446 C13.1257898,49.3575712 13.6932101,49.9249915 14.4063212,49.9931334 L14.5507812,50 L16.5,50 L16.64446,49.9931334 C17.3575712,49.9249915 17.9249915,49.3575712 17.9931334,48.64446 L18,48.5 L18,45.3125 L20.6447402,42.5093873 L24.5365089,49.610456 L24.5913319,49.6961609 C24.7115024,49.8585942 24.892506,49.9657992 25.0927045,49.9931142 L25.1942105,50 L29.027333,50 L29.1185734,49.9926378 C29.3858427,49.9490438 29.589833,49.7170942 29.589833,49.4375 C29.589833,49.3718561 29.5783453,49.3069789 29.5561356,49.245734 L29.5148752,49.156949 L23.670166,39 L29.7765265,32.9624964 L29.8420545,32.8849628 C29.9951657,32.6666008 29.9751888,32.3633802 29.7810369,32.1670141 C29.6965036,32.0815166 29.5874114,32.0259261 29.4702074,32.0071098 L29.3810405,32 L25.0666954,32 L24.9465953,32.0096749 C24.8203419,32.0301559 24.7012223,32.0826441 24.6007904,32.1622608 L24.5291509,32.2269838 L18,38.9375 L18,33.5 L17.9931334,33.35554 C17.9249915,32.6424288 17.3575712,32.0750085 16.64446,32.0068666 L16.5,32 L14.5507812,32 Z M34.5,32 L34.35554,32.0068666 C33.6424288,32.0750085 33.0750085,32.6424288 33.0068666,33.35554 L33,33.5 L33,48.875 L33.0066013,48.9975811 C33.0633174,49.5209778 33.4790222,49.9366826 34.0024189,49.9933987 L34.125,50 L35.875,50 L35.9975811,49.9933987 C36.5209778,49.9366826 36.9366826,49.5209778 36.9933987,48.9975811 L37,48.875 L37,37.0625 L40.3349589,49.1736664 L40.374867,49.292466 C40.5284344,49.6773272 40.8826378,49.9471796 41.2944579,49.993063 L41.4195894,50 L43.6389069,50 L43.7644918,49.9930131 C44.1777651,49.9468017 44.5327974,49.6750543 44.685329,49.2881895 L44.7248692,49.1687869 L48,37.0625 L48,48.875 L48.0066013,48.9975811 C48.0633174,49.5209778 48.4790222,49.9366826 49.0024189,49.9933987 L49.125,50 L50.875,50 L50.9975811,49.9933987 C51.5209778,49.9366826 51.9366826,49.5209778 51.9933987,48.9975811 L52,48.875 L52,33.5 L51.9931334,33.35554 C51.9249915,32.6424288 51.3575712,32.0750085 50.64446,32.0068666 L50.5,32 L46.4193338,32 L46.2831183,32.0061515 C45.7022748,32.0588068 45.2037503,32.4450667 45.0073519,32.9935795 L44.9646738,33.1339888 L42.5078125,42.8984375 L39.9203107,33.1164183 L39.8799793,32.987545 C39.6829043,32.444529 39.1897501,32.0625456 38.6153524,32.0069921 L38.4701848,32 L34.5,32 Z M55.5698517,44.0351562 L55.4680871,44.0420125 C55.1020329,44.0917058 54.8198955,44.4054827 54.8198955,44.7851562 C54.8198955,44.8502053 54.8283586,44.914978 54.8450718,44.9778434 C54.8822991,45.1178716 54.9198045,45.2493743 54.9575879,45.3723516 C55.2728329,46.3984101 55.7926412,47.3121725 56.5234375,48.0429687 C57.6034375,49.1229687 59.5978375,49.9329688 62.3407495,49.9960408 L62.6875,50 L63.0383536,49.9923939 C64.5341797,49.9273258 65.7148437,49.4559152 66.7304687,49.0097656 C67.8242187,48.5292969 68.6757812,47.8242187 69.2851562,46.8945312 C69.8945312,45.9648437 70.1992187,45.1367187 70.1992187,44.0351562 C70.1992187,43.0976562 69.9707031,42.25 69.5136719,41.4921875 C69.0566406,40.734375 68.3261719,40.0996094 67.3222656,39.5878906 C66.6726792,39.2567785 65.747513,38.9281196 64.5467669,38.6019139 L63.8644842,38.4242269 C63.7462154,38.3946529 63.6256691,38.3650992 63.5028452,38.3355658 L62.7385719,38.1586086 L62.3359375,38.0703125 C61.3984375,37.875 60.8046875,37.6640625 60.5546875,37.4375 C60.296875,37.21875 60.1679687,36.9726562 60.1679687,36.6992187 C60.1679687,36.3242187 60.3242187,36.0058594 60.6367187,35.7441406 C60.9492187,35.4824219 61.4140625,35.3515625 62.03125,35.3515625 C62.78125,35.3515625 63.3691406,35.5273437 63.7949219,35.8789062 L63.9168119,35.9736459 L64.1502735,36.147283 C64.262389,36.2372158 64.3664055,36.3402154 64.4570312,36.4940596 L64.5353642,36.6277446 C64.6505436,36.8253218 64.8482663,36.957689 65.0704313,36.991476 L65.1832817,37 L68.4952759,37 L68.5970421,36.9931464 C68.9631023,36.9434618 69.2452443,36.6296798 69.2452443,36.25 L69.2429718,36.1916614 C69.2097087,35.765345 69.1258112,35.4099569 68.9912792,35.125497 C68.6476869,34.3989913 68.17838,33.8008348 67.5800781,33.3769531 C66.4277344,32.5605469 64.8828125,32 62.6875,32 C60.8984375,32 59.3613281,32.3769531 58.3339844,32.8261719 C57.3066406,33.2753906 56.5371094,33.8925781 56.0253906,34.6777344 C55.5136719,35.4628906 55.2578125,36.296875 55.2578125,37.1796875 C55.2578125,38.5234375 55.7578125,39.6289062 56.7578125,40.4960937 C57.75,41.3632812 59.4101562,42.0585937 61.7382812,42.5820312 L62.0157812,42.6447917 L62.5295312,42.771875 C63.5020312,43.028125 64.1445312,43.296875 64.4570312,43.578125 C64.8476562,43.9296875 65.0429687,44.140625 65.0429687,44.5859375 C65.0429687,45.0546875 64.8378906,45.4667969 64.4277344,45.8222656 C64.0175781,46.1777344 63.3515625,46.25 62.59375,46.25 C61.578125,46.25 60.8789062,46.0078125 60.3320312,45.3125 C60.20479,45.1497495 60.0971627,44.9858782 60.0066024,44.8005091 C59.9618189,44.7088411 59.915533,44.6064498 59.8677447,44.4933351 C59.7651392,44.2503404 59.5439409,44.0817933 59.2882961,44.0434532 L59.1768704,44.0351562 L55.5698517,44.0351562 Z"/>
    </g>
    <g fill-rule="nonzero" filter="url(#kmsclient-s)" transform="translate(57 57)">
      <use fill="url(#kmsclient-t)" xlink:href="#kmsclient-u"/>
      <use fill="#000" filter="url(#kmsclient-v)" xlink:href="#kmsclient-u"/>
      <path fill="url(#kmsclient-w)" d="M18,0 C8.0588745,0 0,8.0588745 0,18 C0,27.9411255 8.0588745,36 18,36 C27.9411255,36 36,27.9411255 36,18 C36,8.0588745 27.9411255,0 18,0 Z M18,1 C27.3888407,1 35,8.61115925 35,18 C35,27.3888407 27.3888407,35 18,35 C8.61115925,35 1,27.3888407 1,18 C1,8.61115925 8.61115925,1 18,1 Z"/>
      <g transform="translate(7.25 6.75)">
        <path fill="url(#kmsclient-x)" d="M7.41269133,5.25103753 C6.85074735,6.43295185 5.64578959,7.25 4.25,7.25 C2.31700338,7.25 0.75,5.68299662 0.75,3.75 C0.75,1.81700338 2.31700338,0.25 4.25,0.25 C5.64618488,0.25 6.85142984,1.067511 7.41316861,2.24996673 L16.3323864,2.25 C19.2554162,2.25 21.625,4.61958384 21.625,7.54261364 C21.625,10.4059898 19.351147,12.1530518 16.5106404,12.2470547 L16.3323864,12.25 L5.95738636,12.25 C4.73828054,12.25 3.75,13.582652 3.75,14.8017578 C3.75,15.9773241 4.66894963,17.1791141 5.82768565,17.2462528 L5.95738636,17.25 L16.75,17.25 L16.75,15 C16.75,14.9459074 16.7616963,14.8927877 16.7839185,14.8441518 L16.825,14.775 C16.9492641,14.6093146 17.1843146,14.5757359 17.35,14.7 L17.35,14.7 L22.35,18.45 C22.3784271,18.4713203 22.4036797,18.4965729 22.425,18.525 C22.5492641,18.6906854 22.5156854,18.9257359 22.35,19.05 L22.35,19.05 L17.35,22.8 C17.2850889,22.8486833 17.2061388,22.875 17.125,22.875 C16.9178932,22.875 16.75,22.7071068 16.75,22.5 L16.75,22.5 L16.75,20.25 L5.95738636,20.25 C3.08142629,20.25 0.75,17.6777179 0.75,14.8017578 C0.75,11.9857136 2.98529543,9.3473791 5.77836404,9.25301955 L5.95738636,9.25 L16.3323864,9.25 C17.5985619,9.25 18.625,8.80878918 18.625,7.54261364 C18.625,6.32165864 17.6705697,5.32362279 16.4670948,5.25389186 L16.3323864,5.25 Z"/>
        <path fill="url(#kmsclient-y)" d="M4.25,0.25 C5.64618488,0.25 6.85142984,1.067511 7.41316861,2.24996673 L16.3323864,2.25 C19.2554162,2.25 21.625,4.61958384 21.625,7.54261364 C21.625,10.4059898 19.351147,12.1530518 16.5106404,12.2470547 L16.3323864,12.25 L5.95738636,12.25 C4.73828054,12.25 3.75,13.582652 3.75,14.8017578 C3.75,15.9773241 4.66894963,17.1791141 5.82768565,17.2462528 L5.95738636,17.25 L16.75,17.25 L16.75,15 C16.75,14.9459074 16.7616963,14.8927877 16.7839185,14.8441518 L16.825,14.775 C16.9337311,14.6300253 17.127283,14.5861948 17.2849683,14.6607496 L17.35,14.7 L22.35,18.45 C22.3784271,18.4713203 22.4036797,18.4965729 22.425,18.525 C22.5337311,18.6699747 22.5216138,18.8680571 22.4058893,18.9985597 L22.35,19.05 L17.35,22.8 C17.2850889,22.8486833 17.2061388,22.875 17.125,22.875 C16.9437816,22.875 16.792586,22.7464568 16.7576187,22.5755756 L16.75,22.5 L16.75,20.25 L5.95738636,20.25 C3.08142629,20.25 0.75,17.6777179 0.75,14.8017578 C0.75,11.9857136 2.98529543,9.3473791 5.77836404,9.25301955 L5.95738636,9.25 L16.3323864,9.25 C17.5985619,9.25 18.625,8.80878918 18.625,7.54261364 C18.625,6.32165864 17.6705697,5.32362279 16.4670948,5.25389186 L16.3323864,5.25 L7.41269133,5.25103753 C6.85074735,6.43295185 5.64578959,7.25 4.25,7.25 C2.31700338,7.25 0.75,5.68299662 0.75,3.75 C0.75,1.81700338 2.31700338,0.25 4.25,0.25 Z M17.75,16.25 L17.75,18.25 L5.92850743,18.2495829 L5.76984133,18.2445784 C4.08597635,18.1470131 2.75,16.5214063 2.75,14.8017578 C2.75,13.0630235 4.0976853,11.3669218 5.78198875,11.2557803 L5.95738636,11.25 L16.3158655,11.2501365 L16.4775648,11.2476018 C18.9542979,11.1656375 20.625,9.70675427 20.625,7.54261364 C20.625,5.24159638 18.81452,3.36343939 16.540364,3.25495007 L16.3323826,3.25 L6.78112291,3.24996437 L6.50991251,2.6790686 C6.09855846,1.81317154 5.22537811,1.25 4.25,1.25 C2.86928813,1.25 1.75,2.36928813 1.75,3.75 C1.75,5.13071187 2.86928813,6.25 4.25,6.25 C5.16415036,6.25 5.98854234,5.75531614 6.42709413,4.98032051 L6.50957222,4.82164741 L6.7808351,4.25111103 L16.3612653,4.25041708 L16.5249391,4.25556624 C18.2615558,4.35618812 19.625,5.79604277 19.625,7.54261364 C19.625,9.29854212 18.3517557,10.185492 16.5362981,10.2466059 L16.3323864,10.25 L5.97425088,10.2498578 L5.81212825,10.2524494 C3.63207212,10.3260992 1.75,12.4474351 1.75,14.8017578 C1.75,17.1146586 3.57870483,19.1282396 5.75831447,19.2446848 L5.95738636,19.25 L17.75,19.25 L17.75,21.25 L21.083,18.75 L17.75,16.25 Z"/>
      </g>
    </g>
  </g>
</svg>
