<svg xmlns="http://www.w3.org/2000/svg" xmlns:xlink="http://www.w3.org/1999/xlink" width="96" height="96" viewBox="0 0 96 96">
  <defs>
    <filter id="preferences-system-a" width="129.3%" height="130.5%" x="-14.6%" y="-14.6%" filterUnits="objectBoundingBox">
      <feOffset dy="2" in="SourceAlpha" result="shadowOffsetOuter1"/>
      <feGaussianBlur in="shadowOffsetOuter1" result="shadowBlurOuter1" stdDeviation="2"/>
      <feColorMatrix in="shadowBlurOuter1" result="shadowMatrixOuter1" values="0 0 0 0 0   0 0 0 0 0   0 0 0 0 0  0 0 0 0.2 0"/>
      <feMerge>
        <feMergeNode in="shadowMatrixOuter1"/>
        <feMergeNode in="SourceGraphic"/>
      </feMerge>
    </filter>
    <radialGradient id="preferences-system-b" cx="50%" cy="0%" r="105.049%" fx="50%" fy="0%">
      <stop offset="0%" stop-color="#BFBFBF"/>
      <stop offset="100%" stop-color="#4E4E4E"/>
    </radialGradient>
    <path id="preferences-system-c" d="M81,5 L81,77 C81,79.209139 79.209139,81 77,81 L5,81 C2.790861,81 1,79.209139 1,77 L1,5 C1,2.790861 2.790861,1 5,1 L77,1 C79.209139,1 81,2.790861 81,5 Z"/>
    <filter id="preferences-system-d" width="101.2%" height="101.2%" x="-.6%" y="-.6%" filterUnits="objectBoundingBox">
      <feOffset dy="1" in="SourceAlpha" result="shadowOffsetInner1"/>
      <feComposite in="shadowOffsetInner1" in2="SourceAlpha" k2="-1" k3="1" operator="arithmetic" result="shadowInnerInner1"/>
      <feColorMatrix in="shadowInnerInner1" values="0 0 0 0 1   0 0 0 0 1   0 0 0 0 1  0 0 0 0.598011364 0"/>
    </filter>
    <linearGradient id="preferences-system-e" x1="55.405%" x2="55.405%" y1="-1.351%" y2="101.001%">
      <stop offset="0%" stop-opacity=".197"/>
      <stop offset="100%" stop-opacity=".6"/>
    </linearGradient>
    <radialGradient id="preferences-system-f" cx="50.75%" cy="50.928%" r="50%" fx="50.75%" fy="50.928%">
      <stop offset="0%" stop-color="#595959" stop-opacity=".5"/>
      <stop offset="100%" stop-color="#070707" stop-opacity=".5"/>
    </radialGradient>
    <circle id="preferences-system-g" cx="41.5" cy="41.5" r="22.5"/>
    <filter id="preferences-system-h" width="113.3%" height="113.3%" x="-6.7%" y="-6.7%" filterUnits="objectBoundingBox">
      <feGaussianBlur in="SourceAlpha" result="shadowBlurInner1" stdDeviation="2"/>
      <feOffset dy="2" in="shadowBlurInner1" result="shadowOffsetInner1"/>
      <feComposite in="shadowOffsetInner1" in2="SourceAlpha" k2="-1" k3="1" operator="arithmetic" result="shadowInnerInner1"/>
      <feColorMatrix in="shadowInnerInner1" values="0 0 0 0 0   0 0 0 0 0   0 0 0 0 0  0 0 0 0.5 0"/>
    </filter>
    <linearGradient id="preferences-system-i" x1="50%" x2="50%" y1="0%" y2="100%">
      <stop offset="0%" stop-color="#FFF" stop-opacity=".459"/>
      <stop offset="100%" stop-opacity=".654"/>
    </linearGradient>
    <radialGradient id="preferences-system-l" cx="50%" cy="-4.334%" r="104.334%" fx="50%" fy="-4.334%" gradientTransform="matrix(0 1 -.95057 0 .459 -.543)">
      <stop offset="0%" stop-color="#E6E6E6"/>
      <stop offset="100%" stop-color="#D0D0D0"/>
    </radialGradient>
    <linearGradient id="preferences-system-m" x1="50%" x2="50%" y1="0%" y2="104.492%">
      <stop offset="0%" stop-color="#FFF"/>
      <stop offset="48.776%" stop-color="#E6E6E6"/>
      <stop offset="54.353%" stop-color="#D0D0D0"/>
      <stop offset="56.647%" stop-color="#BABABA"/>
      <stop offset="59.257%" stop-color="#C6C6C6"/>
      <stop offset="71.839%" stop-color="#A6A6A6"/>
      <stop offset="82.142%" stop-color="#919598"/>
      <stop offset="100%" stop-color="#FFF"/>
    </linearGradient>
    <path id="preferences-system-k" d="M42.5080095,6 C43.3074703,6 43.96644,6.62700628 44.0061573,7.42547992 L44.2898167,13.1099831 C46.2214429,13.303222 48.0956205,13.693608 49.8923154,14.260923 L52.4674974,9.15212951 C52.8282256,8.43623614 53.6880929,8.13050274 54.4197978,8.45797193 L57.0520142,9.63600115 C57.7796511,9.96164974 58.1254584,10.799571 57.8392811,11.5436174 L55.7780153,16.9042641 C57.3040212,17.8146485 58.7374466,18.8663256 60.0606119,20.0414531 L64.4889954,16.4192351 C65.1099815,15.9112699 66.0207324,15.9818647 66.5560239,16.579456 L68.488201,18.736509 C69.0195133,19.3296579 68.9947359,20.2345997 68.431763,20.797787 L64.3748077,24.8553975 C65.3976043,26.2973375 66.2899693,27.8399239 67.0344988,29.4655928 L72.5349573,27.9699834 C73.3078436,27.7598119 74.1094985,28.1939386 74.3558481,28.9560653 L75.2499319,31.7220738 C75.4951974,32.4808468 75.1039087,33.2988905 74.3592533,33.5841621 L69.0408875,35.6209933 C69.3765704,37.2699737 69.5705978,38.9711087 69.6095708,40.7108764 L69.6160496,41.321 L69.6130496,40.934 L75.2162444,41.8127978 C76.0051542,41.9364468 76.5588892,42.6564858 76.4758458,43.450697 L76.1732682,46.344493 C76.0900952,47.1399443 75.3974512,47.7302327 74.5988749,47.6862303 L68.9851692,47.3763015 C68.6053934,49.154475 68.0606035,50.8707247 67.3677755,52.5079185 L72.064509,55.5578518 C72.7326442,55.9917094 72.9450851,56.8721706 72.5483122,57.5629732 L71.1029099,60.079495 C70.7035505,60.7748009 69.8279798,61.0330775 69.1151888,60.6658347 L64.1918278,58.1297265 C63.127148,59.5961971 61.9263753,60.9557235 60.608281,62.1893617 L63.6197545,66.8251462 C64.0535844,67.4931402 63.8896742,68.3837267 63.2464431,68.8534905 L60.9130452,70.5576144 C60.2652081,71.0307419 59.3597814,70.9104045 58.858015,70.2844866 L55.441879,66.0232623 C53.8770697,66.9275508 52.2179396,67.6845051 50.4830569,68.2753864 L51.343799,73.6607066 C51.4699234,74.448908 50.956669,75.1978196 50.1760595,75.3646057 L47.3596401,75.9663655 C46.5766451,76.1336612 45.800291,75.656507 45.5959132,74.882363 L44.2088014,69.6281503 C43.3110493,69.7153259 42.4009689,69.759926 41.4805664,69.759926 C40.5601639,69.759926 39.6500834,69.7153259 38.7523313,69.6281503 L37.3652195,74.882363 C37.1608418,75.656507 36.3844877,76.1336612 35.6014926,75.9663655 L32.7850733,75.3646057 C32.0044637,75.1978196 31.4912093,74.448908 31.6173337,73.6607066 L32.4790771,68.2757274 C30.7441996,67.6849217 29.0850682,66.928046 27.5202498,66.0238379 L24.1031177,70.2844866 C23.6013513,70.9104045 22.6959247,71.0307419 22.0480875,70.5576144 L19.7146897,68.8534905 C19.0714585,68.3837267 18.9075484,67.4931402 19.3413782,66.8251462 L22.3528518,62.1893617 C21.0347575,60.9557235 19.8339848,59.5961971 18.769305,58.1297265 L13.845944,60.6658347 C13.133153,61.0330775 12.2575822,60.7748009 11.8582228,60.079495 L10.4128205,57.5629732 C10.0160476,56.8721706 10.2284886,55.9917094 10.8966237,55.5578518 L15.5933572,52.5079185 C14.9005293,50.8707247 14.3557393,49.154475 13.9759635,47.3763015 L8.36225786,47.6862303 C7.5636815,47.7302327 6.87103755,47.1399443 6.78786454,46.344493 L6.48528693,43.450697 C6.40224357,42.6564858 6.95597856,41.9364468 7.74488833,41.8127978 L13.347412,40.9344074 C13.3741905,39.1167781 13.5701994,37.3405291 13.9202453,35.6209933 L8.60187944,33.5841621 C7.85722402,33.2988905 7.46593534,32.4808468 7.71120088,31.7220738 L8.60528464,28.9560653 C8.85163426,28.1939386 9.6532891,27.7598119 10.4261754,27.9699834 L15.9266339,29.4655928 C16.6711634,27.8399239 17.5635285,26.2973375 18.5863251,24.8553975 L14.5293697,20.797787 C13.9663969,20.2345997 13.9416195,19.3296579 14.4729318,18.736509 L16.4051088,16.579456 C16.9404003,15.9818647 17.8511512,15.9112699 18.4721374,16.4192351 L22.9005209,20.0414531 C24.2236861,18.8663256 25.6571116,17.8146485 27.1831174,16.9042641 L25.1218516,11.5436174 C24.8356743,10.799571 25.1814817,9.96164974 25.9091186,9.63600115 L28.5413349,8.45797193 C29.2730398,8.13050274 30.1329072,8.43623614 30.4936353,9.15212951 L33.0688174,14.260923 C34.6080514,13.7749025 36.2041532,13.4187373 37.8445257,13.2051399 L38.1312219,7.42547992 C38.1709391,6.62700628 38.8299088,6 39.6293697,6 L42.5080095,6 Z M34.3940361,47.3142738 L23.2978702,53.9620052 C27.2736771,59.795557 33.9345072,63.6204985 41.4805664,63.6204985 C48.8871502,63.6204985 55.4409262,59.9356447 59.4400651,54.2834034 L47.5081993,47.4182213 C45.8694541,49.1333239 43.5594988,50.2016992 41,50.2016992 C38.3891796,50.2016992 36.0380104,49.0900495 34.3940361,47.3142738 Z M43.9997529,19.2532725 L43.9995841,32.7144475 C47.4953785,33.9497843 50,37.2834622 50,41.2020997 C50,41.4619314 49.9889882,41.7191914 49.9674059,41.9734384 L62.1969625,49.0123862 C63.0615451,46.6276777 63.5333616,44.0519814 63.5333616,41.3650738 C63.5333616,29.9334429 54.9928469,20.5148846 43.9997529,19.2532725 Z M37.9993589,19.3853732 C27.4740236,21.0698208 19.4277712,30.269162 19.4277712,41.3650738 C19.4277712,43.9078896 19.85034,46.3511023 20.6284753,48.6270939 L32.0196085,41.8009442 C32.0066045,41.6030085 32,41.4033253 32,41.2020997 C32,37.2838335 34.5041468,33.9504162 37.999422,32.7147988 L37.9993589,19.3853732 Z"/>
    <filter id="preferences-system-j" width="124.3%" height="124.3%" x="-12.1%" y="-9.3%" filterUnits="objectBoundingBox">
      <feOffset dy="2" in="SourceAlpha" result="shadowOffsetOuter1"/>
      <feGaussianBlur in="shadowOffsetOuter1" result="shadowBlurOuter1" stdDeviation="2.5"/>
      <feComposite in="shadowBlurOuter1" in2="SourceAlpha" operator="out" result="shadowBlurOuter1"/>
      <feColorMatrix in="shadowBlurOuter1" values="0 0 0 0 0.097118433   0 0 0 0 0.097118433   0 0 0 0 0.097118433  0 0 0 0.799114948 0"/>
    </filter>
    <linearGradient id="preferences-system-p" x1="50%" x2="50%" y1="0%" y2="100%">
      <stop offset="0%" stop-color="#E0E0E0"/>
      <stop offset="98.421%" stop-color="#6D6D6D"/>
    </linearGradient>
    <circle id="preferences-system-n" cx="41" cy="41" r="4"/>
    <filter id="preferences-system-o" width="212.5%" height="212.5%" x="-56.2%" y="-43.8%" filterUnits="objectBoundingBox">
      <feMorphology in="SourceAlpha" operator="dilate" radius="1" result="shadowSpreadOuter1"/>
      <feOffset dy="1" in="shadowSpreadOuter1" result="shadowOffsetOuter1"/>
      <feGaussianBlur in="shadowOffsetOuter1" result="shadowBlurOuter1" stdDeviation="1"/>
      <feComposite in="shadowBlurOuter1" in2="SourceAlpha" operator="out" result="shadowBlurOuter1"/>
      <feColorMatrix in="shadowBlurOuter1" values="0 0 0 0 0   0 0 0 0 0   0 0 0 0 0  0 0 0 0.292285839 0"/>
    </filter>
    <linearGradient id="preferences-system-r" x1="50%" x2="50%" y1="0%" y2="100%">
      <stop offset="0%" stop-color="#FFF" stop-opacity="0"/>
      <stop offset="100%" stop-color="#FFF" stop-opacity=".75"/>
    </linearGradient>
    <path id="preferences-system-s" d="M40,39 C40,38.4477153 40.4477153,38 41,38 C41.5522847,38 42,38.4477153 42,39 C42,39.5522847 42.4477153,40 43,40 C43.5522847,40 44,40.4477153 44,41 C44,41.5522847 43.5522847,42 43,42 C42.4477153,42 42,42.4477153 42,43 C42,43.5522847 41.5522847,44 41,44 C40.4477153,44 40,43.5522847 40,43 C40,42.4477153 39.5522847,42 39,42 C38.4477153,42 38,41.5522847 38,41 C38,40.4477153 38.4477153,40 39,40 C39.5522847,40 40,39.5522847 40,39 Z"/>
    <filter id="preferences-system-t" width="166.7%" height="166.7%" x="-33.3%" y="-33.3%" filterUnits="objectBoundingBox">
      <feGaussianBlur in="SourceAlpha" result="shadowBlurInner1" stdDeviation="1.5"/>
      <feOffset dy="1" in="shadowBlurInner1" result="shadowOffsetInner1"/>
      <feComposite in="shadowOffsetInner1" in2="SourceAlpha" k2="-1" k3="1" operator="arithmetic" result="shadowInnerInner1"/>
      <feColorMatrix in="shadowInnerInner1" values="0 0 0 0 0   0 0 0 0 0   0 0 0 0 0  0 0 0 0.5 0"/>
    </filter>
  </defs>
  <g fill="none" fill-rule="evenodd" filter="url(#preferences-system-a)" transform="translate(7 7)">
    <g fill-rule="nonzero">
      <use fill="url(#preferences-system-b)" xlink:href="#preferences-system-c"/>
      <use fill="#000" filter="url(#preferences-system-d)" xlink:href="#preferences-system-c"/>
    </g>
    <path fill="url(#preferences-system-e)" fill-rule="nonzero" d="M77,0 L5,0 C2.23857625,0 0,2.23857625 0,5 L0,77 C0,79.7614237 2.23857625,82 5,82 L77,82 C79.7614237,82 82,79.7614237 82,77 L82,5 C82,2.23857625 79.7614237,0 77,0 Z M77,1 C79.209139,1 81,2.790861 81,5 L81,77 C81,79.209139 79.209139,81 77,81 L5,81 C2.790861,81 1,79.209139 1,77 L1,5 C1,2.790861 2.790861,1 5,1 L77,1 Z"/>
    <path fill="#CBCBCB" stroke="#E3E3E3" d="M41.713494,22.6651376 C42.0598191,22.6651376 42.3757143,22.8009497 42.6093289,23.0232396 C42.8429388,23.2455249 42.9942712,23.554285 43.0114731,23.9001454 L43.0114731,23.9001454 L43.1367848,26.4155982 C43.7939236,26.5100543 44.4372036,26.6474156 45.0636978,26.8247428 L45.0636978,26.8247428 L46.1920636,24.5854743 C46.3483262,24.2753287 46.6127119,24.0540311 46.9172754,23.9457376 C47.2218428,23.8374427 47.5665898,23.8421542 47.8835724,23.9840313 L47.8835724,23.9840313 L49.1885134,24.5681048 C49.5037052,24.7091803 49.7361994,24.9612048 49.8589051,25.2585405 C49.981609,25.5558719 49.9945271,25.8985127 49.8705793,26.2208019 L49.8705793,26.2208019 L48.9666784,28.5714555 C49.5242323,28.9251666 50.0566742,29.3149139 50.560724,29.7374264 L50.560724,29.7374264 L52.4960065,28.1544104 C52.7650224,27.9343346 53.0968103,27.8395898 53.4193163,27.8645888 C53.7418212,27.8895878 54.0550454,28.0343301 54.2869346,28.2932328 L54.2869346,28.2932328 L55.2450126,29.3629204 C55.4751501,29.6198674 55.5848535,29.9443389 55.5760586,30.2655662 C55.5672636,30.586794 55.4399701,30.9047766 55.1960813,31.148782 L55.1960813,31.148782 L53.4156829,32.9296652 C53.7795453,33.4778135 54.1080799,34.0514467 54.3980458,34.6473118 L54.3980458,34.6473118 L56.8144226,33.9901623 C57.1492437,33.8991053 57.490298,33.947614 57.7743257,34.1014304 C58.0583485,34.2552443 58.285347,34.514363 58.3920598,34.8445305 L58.3920598,34.8445305 L58.8354735,36.2164436 C58.9417092,36.5451346 58.9100798,36.886661 58.7712513,37.1769104 C58.6324205,37.4671644 58.3863879,37.7061393 58.0638393,37.829717 L58.0638393,37.829717 L55.6964087,38.7368529 C55.7881857,39.2985069 55.8485503,39.8707233 55.8756223,40.4516398 L55.8756223,40.4516398 L58.4265444,41.0918147 C58.7574971,41.1501958 59.0389588,41.3302082 59.2305445,41.5793408 C59.4269206,41.8347025 59.5288696,42.162684 59.4928992,42.5067317 L59.4928992,42.5067317 L59.3428318,43.9420871 C59.3068044,44.2866807 59.1387652,44.5868352 58.8932498,44.7960759 C58.6477295,45.0053208 58.3247299,45.1236488 57.9787829,45.1045849 L57.9787829,45.1045849 L55.4011048,44.9625236 C55.2353197,45.5914845 55.0294389,46.2041684 54.7863605,46.7976753 L54.7863605,46.7976753 L56.9796346,48.2218517 C57.2690454,48.4098006 57.459763,48.6944729 57.5351615,49.0069712 C57.6105592,49.3194666 57.5706394,49.6597866 57.3987794,49.959033 L57.3987794,49.959033 L56.6819994,51.2071063 C56.5090008,51.5083352 56.2328447,51.714895 55.922743,51.8063718 C55.6126378,51.8978497 55.2685855,51.8742426 54.959829,51.7151502 L54.959829,51.7151502 L52.5982882,50.4985421 C52.2022278,50.9897075 51.7756047,51.4551938 51.3213074,51.8921096 L51.3213074,51.8921096 L52.791266,54.1565158 C52.9791773,54.4458823 53.0376339,54.7834549 52.9794571,55.0995613 C52.9212799,55.41567 52.7464681,55.7103112 52.4678468,55.9138133 L52.4678468,55.9138133 L51.3109423,56.7588043 C51.0302933,56.9637873 50.6938425,57.0402108 50.3732127,56.9975956 C50.0525846,56.9549806 49.7477764,56.793328 49.5304433,56.5221942 L49.5304433,56.5221942 L47.8258454,54.3960649 C47.2785329,54.6788235 46.711442,54.9286411 46.127197,55.1429011 L46.127197,55.1429011 L46.5622602,57.8617227 C46.616891,58.2031652 46.5330408,58.5360968 46.3509979,58.8017316 C46.1689515,59.0673714 45.8887092,59.2657119 45.5505603,59.3379683 L45.5505603,59.3379683 L44.1543854,59.6363058 C43.8151863,59.7087865 43.4774243,59.6416702 43.202329,59.4725891 C42.9272387,59.303511 42.7148128,59.0324712 42.6262817,58.6970999 L42.6262817,58.6970999 L41.9199243,56.0212791 C41.6156616,56.0398325 41.3089299,56.0492464 41,56.0492464 C40.6910701,56.0492464 40.3843384,56.0398325 40.0800757,56.0212791 L40.0800757,56.0212791 L39.3737181,58.6971005 C39.2851872,59.0324712 39.0727613,59.303511 38.797671,59.4725891 C38.5225757,59.6416702 38.1848137,59.7087865 37.8456146,59.6363058 L37.8456146,59.6363058 L36.4494397,59.3379683 C36.1112908,59.2657119 35.8310485,59.0673714 35.6490021,58.8017316 C35.4669592,58.5360968 35.383109,58.2031652 35.4377413,57.8617135 L35.4377413,57.8617135 L35.872803,55.1429011 C35.288558,54.9286411 34.7214671,54.6788235 34.1741546,54.3960649 L34.1741546,54.3960649 L32.4695884,56.5221547 C32.2522236,56.793328 31.9474154,56.9549806 31.6267873,56.9975956 C31.3061575,57.0402108 30.9697067,56.9637873 30.6890577,56.7588043 L30.6890577,56.7588043 L29.5321532,55.9138133 C29.2535319,55.7103112 29.0787201,55.41567 29.0205429,55.0995613 C28.9623661,54.7834549 29.0208227,54.4458823 29.2086899,54.1565837 L29.2086899,54.1565837 L30.6786926,51.8921096 C30.2243953,51.4551938 29.7977722,50.9897075 29.4017118,50.4985421 L29.4017118,50.4985421 L27.0402035,51.7151335 C26.7314145,51.8742426 26.3873622,51.8978497 26.077257,51.8063718 C25.7671553,51.714895 25.4909992,51.5083352 25.3180006,51.2071063 L25.3180006,51.2071063 L24.6012206,49.959033 C24.4293606,49.6597866 24.3894408,49.3194666 24.4648385,49.0069712 C24.540237,48.6944729 24.7309546,48.4098006 25.0203893,48.2218362 L25.0203893,48.2218362 L27.2136395,46.7976753 C26.9705611,46.2041684 26.7646803,45.5914845 26.5988952,44.9625236 L26.5988952,44.9625236 L24.0212142,45.1045851 C23.6752701,45.1236488 23.3522705,45.0053208 23.1067502,44.7960759 C22.8612348,44.5868352 22.6931956,44.2866807 22.6571682,43.9420871 L22.6571682,43.9420871 L22.5071008,42.5067317 C22.4711304,42.162684 22.5730794,41.8347025 22.7694555,41.5793408 C22.9658353,41.3239741 23.2566454,41.14123 23.5983106,41.0876742 L23.5983106,41.0876742 L26.1150731,40.6927452 C26.135379,40.0289303 26.1991428,39.3760512 26.3035912,38.7368528 L26.3035912,38.7368528 L23.9361785,37.8297239 C23.6136121,37.7061393 23.3675795,37.4671644 23.2287487,37.1769104 C23.0899202,36.886661 23.0582908,36.5451346 23.1645265,36.2164436 L23.1645265,36.2164436 L23.6079402,34.8445305 C23.714653,34.514363 23.9416515,34.2552443 24.2256743,34.1014304 C24.509702,33.947614 24.8507563,33.8991053 25.1855771,33.9901622 L25.1855771,33.9901622 L27.6019542,34.6473118 C27.8919201,34.0514467 28.2204547,33.4778135 28.5843171,32.9296652 L28.5843171,32.9296652 L26.8038823,31.1487456 C26.5600299,30.9047766 26.4327364,30.586794 26.4239414,30.2655662 C26.4151465,29.9443389 26.5248499,29.6198674 26.7549874,29.3629204 L26.7549874,29.3629204 L27.7130654,28.2932328 C27.9449546,28.0343301 28.2581788,27.8895878 28.5806837,27.8645888 C28.9031897,27.8395898 29.2349776,27.9343346 29.5039703,28.1543913 L29.5039703,28.1543913 L31.439276,29.7374264 C31.9433258,29.3149139 32.4757677,28.9251666 33.0333216,28.5714555 L33.0333216,28.5714555 L32.1294291,26.2208238 C32.0054729,25.8985127 32.018391,25.5558719 32.1410949,25.2585405 C32.2638006,24.9612048 32.4962948,24.7091803 32.8114866,24.5681048 L32.8114866,24.5681048 L34.1164276,23.9840313 C34.4334102,23.8421542 34.7781572,23.8374427 35.0827246,23.9457376 C35.3872881,24.0540311 35.6516738,24.2753287 35.8079251,24.5854519 L35.8079251,24.5854519 L36.9363022,26.8247428 C37.5627964,26.6474156 38.2060764,26.5100543 38.8632152,26.4155982 L38.8632152,26.4155982 L38.9885249,23.9001853 C39.0057288,23.554285 39.1570612,23.2455249 39.3906711,23.0232396 C39.6242857,22.8009497 39.9401809,22.6651376 40.286506,22.6651376 L40.286506,22.6651376 Z"/>
    <use fill="url(#preferences-system-f)" xlink:href="#preferences-system-g"/>
    <use fill="#000" filter="url(#preferences-system-h)" xlink:href="#preferences-system-g"/>
    <circle cx="41" cy="41" r="11.5" fill="#000" fill-rule="nonzero" stroke="url(#preferences-system-i)" opacity=".35"/>
    <use fill="#000" filter="url(#preferences-system-j)" xlink:href="#preferences-system-k"/>
    <path fill="url(#preferences-system-l)" stroke="url(#preferences-system-m)" stroke-linejoin="square" d="M42.5080095,6.5 C42.7744964,6.5 43.0175682,6.60450105 43.197328,6.77554156 C43.3471278,6.91807533 43.452961,7.10681706 43.4917414,7.31984408 L43.5067786,7.45039915 L43.8120527,13.5680571 C45.7867793,13.7345111 47.7024912,14.1105268 49.5372747,14.6740338 L50.1458418,14.8687834 L52.9140149,9.37712313 C53.0342576,9.138492 53.2376902,8.96822087 53.4720375,8.88489662 C53.6673269,8.81545975 53.8840849,8.80640265 54.0920597,8.86848164 L54.2155485,8.9143514 L56.8477649,10.0923806 C57.0903105,10.2009302 57.2692179,10.3948585 57.3636407,10.6236532 C57.4423265,10.8143156 57.4623424,11.0291907 57.4116152,11.2390717 L57.3725931,11.3641674 L55.1590119,17.1209343 C56.722169,18.0214123 58.1897915,19.07146 59.5427676,20.2517378 L60.0447223,20.7004087 L64.8055715,16.8062487 C65.0125669,16.636927 65.2678564,16.5640319 65.5160047,16.5832665 C65.7227949,16.5992954 65.924626,16.6793032 66.0894172,16.8208034 L66.1835906,16.9130626 L68.1157676,19.0701156 C68.2928717,19.267832 68.3772942,19.5175137 68.3705262,19.7646987 C68.3648863,19.9706862 68.2959197,20.1749398 68.1645117,20.3459195 L68.0781811,20.4442622 L63.7204911,24.802656 C64.778981,26.248257 65.7024207,27.8006958 66.4719944,29.4410007 L66.7533353,30.0601966 L72.6661583,28.4524628 C72.9237871,28.3824056 73.1862106,28.4197314 73.4047561,28.5380822 C73.5868773,28.6367078 73.7385276,28.7916006 73.83154,28.9875072 L73.8800855,29.1098507 L74.7741693,31.8758592 C74.8559244,32.1287835 74.8315872,32.3915863 74.7247566,32.6149306 C74.6357311,32.8010509 74.4894185,32.9597695 74.2995019,33.0625248 L74.1804289,33.117234 L68.4633937,35.3067479 C68.8290255,36.97337 69.0469348,38.6960262 69.1026247,40.4600098 L69.115876,41.1234122 L75.1302308,42.3054581 C75.3969176,42.3449324 75.6239236,42.4864617 75.776678,42.6850931 C75.9026041,42.8488388 75.97807,43.0513902 75.9837082,43.2675632 L75.9785568,43.3987001 L75.6759792,46.2924961 C75.6482549,46.5576465 75.5189521,46.7886031 75.3300323,46.9496053 C75.1725992,47.0837737 74.9737654,47.1693627 74.7578454,47.1856791 L74.6264376,47.1869906 L68.582255,46.8532955 C68.2244264,48.6637279 67.6929623,50.4109551 67.0061171,52.0765431 L66.7413023,52.6972758 L71.7922047,55.9771969 C72.0149164,56.1218161 72.1616791,56.3408693 72.2196994,56.5813345 C72.2680497,56.7817221 72.2547734,56.9969793 72.1724669,57.1964221 L72.1147401,57.3139445 L70.6693379,59.8304663 C70.5362181,60.062235 70.3237297,60.2211654 70.0851221,60.2915501 C69.8862823,60.350204 69.6693042,60.3473678 69.4649828,60.273941 L69.344155,60.2213413 L64.0363692,57.4872092 C62.9811467,58.9884997 61.7824907,60.379896 60.4605515,61.641051 L59.9590848,62.1078393 L63.2004277,67.0974787 C63.3450376,67.3201434 63.3900243,67.5799068 63.3452558,67.8231511 C63.3079487,68.0258546 63.2083118,68.2170865 63.0520557,68.3658178 L62.9515534,68.4497082 L60.6181555,70.1538322 C60.4022098,70.3115414 60.1433325,70.3703397 59.8966278,70.3375509 C59.6910405,70.310227 59.4939064,70.2193008 59.3371111,70.0690066 L59.2481296,69.9717398 L55.5613284,65.3728927 C53.9943468,66.3112717 52.3275913,67.0978107 50.5809581,67.7123801 L49.9222652,67.9347432 L50.8500799,73.7397093 C50.8921213,74.0024431 50.8275997,74.2586286 50.6875169,74.4630295 C50.5707812,74.6333636 50.4015724,74.7677361 50.1978316,74.8399687 L50.0715868,74.875642 L47.2551675,75.4774018 C46.9941691,75.5331671 46.7342776,75.481524 46.5226042,75.3514276 C46.3462097,75.2430139 46.2033,75.0801188 46.1211389,74.8794999 L46.0793502,74.7547357 L44.582852,69.0861808 C43.5644513,69.2009831 42.5293303,69.259926 41.4805664,69.259926 C40.6415552,69.259926 39.8112756,69.2222025 38.991303,69.1483344 L38.3782807,69.0861808 L36.8817832,74.7547335 C36.8136573,75.0127815 36.650202,75.2213312 36.4385285,75.3514276 C36.262134,75.4598413 36.0522547,75.5137735 35.8361541,75.4964678 L35.7059652,75.4774018 L32.8895459,74.875642 C32.6293427,74.8200467 32.4136987,74.6674304 32.2736159,74.4630295 C32.1568802,74.2926954 32.0926175,74.0863998 32.0987683,73.8703244 L32.111052,73.739715 L33.0399496,67.9350931 C31.2736606,67.3639131 29.5847552,66.6182498 27.9931284,65.7182319 L27.4008671,65.3735291 L23.7129973,69.971747 C23.5457419,70.1803863 23.3112097,70.3047622 23.064505,70.3375509 C22.8589177,70.3648749 22.6448772,70.3285967 22.4542726,70.2244781 L22.3429772,70.1538322 L20.0095794,68.4497082 C19.795169,68.2931203 19.6606454,68.0663953 19.615877,67.8231511 C19.5785699,67.6204475 19.6035928,67.4062723 19.6966383,67.2116822 L19.7606739,67.0975268 L23.002048,62.1078393 C21.6496028,60.8795625 20.4179221,59.5185011 19.3271561,58.0450021 L18.9247635,57.4872092 L13.6169423,60.2213595 C13.3793453,60.3437738 13.1146183,60.3619348 12.8760107,60.2915501 C12.677171,60.2328962 12.4964697,60.1127522 12.3647223,59.9402081 L12.2917949,59.8304663 L10.8463926,57.3139445 C10.714135,57.083677 10.683413,56.8217997 10.7414333,56.5813345 C10.7897836,56.3809468 10.8997605,56.1954286 11.0639634,56.055462 L11.1689331,55.9771936 L16.2198304,52.6972758 C15.4944252,51.0523856 14.9221192,49.3235519 14.521167,47.5292089 L14.3788777,46.8532955 L8.33474905,47.1869876 C8.06855693,47.2016551 7.82002022,47.1106074 7.63110044,46.9496053 C7.4736673,46.8154368 7.35763481,46.6326889 7.30728628,46.4220563 L7.28515351,46.2924961 L6.9825759,43.3987001 C6.95489478,43.133963 7.03334338,42.881588 7.18445475,42.6850931 C7.31038089,42.5213474 7.48676728,42.3964074 7.69426062,42.3354549 L7.82233463,42.3067634 L13.8442418,41.3626201 C13.8443977,39.5140719 14.0226423,37.7075136 14.3626749,35.9594834 L14.4977391,35.3067479 L8.7807492,33.1172513 C8.53253072,33.0221608 8.34320671,32.838275 8.2363761,32.6149306 C8.1473506,32.4288103 8.11561219,32.2152884 8.15481767,32.0029161 L8.18696349,31.8758592 L9.08104725,29.1098507 C9.16316379,28.8558084 9.3378312,28.6564329 9.55637667,28.5380822 C9.73849789,28.4394566 9.95108998,28.3970982 10.1659922,28.4262625 L10.2949854,28.4524658 L16.2077975,30.0601966 C16.9386107,28.3982217 17.8256418,26.8217414 18.8500752,25.3497273 L19.2406417,24.802656 L14.8829904,20.444301 C14.6953328,20.2565719 14.5973744,20.0118837 14.5906065,19.7646987 C14.5849665,19.5587112 14.6426533,19.3509899 14.7645297,19.1730521 L14.8453651,19.0701156 L16.7775422,16.9130626 C16.9559727,16.7138655 17.1969798,16.6025012 17.445128,16.5832665 C17.6519183,16.5672377 17.8636677,16.6151878 18.0483014,16.7296082 L18.1555711,16.8062568 L22.9164105,20.7004087 C24.2404264,19.4878756 25.6814776,18.4031551 27.2204524,17.4655869 L27.8021208,17.1209343 L25.5885232,11.3641248 C25.4931308,11.1161093 25.5030691,10.852448 25.597492,10.6236532 C25.6761777,10.4329909 25.8135332,10.2665414 25.9974948,10.1535364 L26.1133679,10.0923806 L28.7455842,8.9143514 C28.9894859,8.80519501 29.2547479,8.80157238 29.4890952,8.88489662 C29.6843846,8.9543335 29.8582055,9.08415015 29.980325,9.26362803 L30.0471507,9.37718836 L32.8152909,14.8687833 C34.383291,14.3466438 36.0134043,13.9623721 37.6915378,13.7301686 L38.3230612,13.6502483 L38.6306045,7.45031995 C38.6438436,7.18416207 38.7602914,6.94658208 38.9400512,6.77554156 C39.089851,6.6330078 39.2836175,6.536682 39.4982622,6.50853267 L39.6293697,6.5 L42.5080095,6.5 Z M34.4935914,46.6717659 L22.5914333,53.8023685 L22.8099493,54.1332202 C26.8670413,60.1614232 33.7159109,64.1204985 41.4805664,64.1204985 C49.2506507,64.1204985 56.1036446,60.1558953 60.1596786,54.1205894 L60.1596786,54.1205894 L47.4096808,46.7846826 L47.2111002,47.0046515 C45.6598025,48.664288 43.4510616,49.7016992 41,49.7016992 C38.3889195,49.7016992 36.0528426,48.5244006 34.4935914,46.6717659 L34.4935914,46.6717659 Z M43.4997598,18.6996418 L43.4995796,33.0758113 L43.8174149,33.1803909 C45.4976814,33.7704612 46.9363641,34.8736113 47.9458877,36.3015931 C48.9249422,37.6864762 49.5,39.3771523 49.5,41.2020997 C49.5,41.5551343 49.4785019,41.9031462 49.4367165,42.2448956 L49.4367165,42.2448956 L62.457096,49.7390162 L62.642412,49.2503555 C63.5419122,46.79362 64.0333616,44.1372666 64.0333616,41.3650738 C64.0333616,35.5535534 61.874117,30.2510837 58.3215668,26.2296412 C54.6105967,22.0288694 49.3792297,19.2261948 43.4997598,18.6996418 L43.4997598,18.6996418 Z M38.4993562,18.8067565 C32.838858,19.5611907 27.8398727,22.4334681 24.3110422,26.609882 C20.9543592,30.5825572 18.9277712,35.7349281 18.9277712,41.3650738 C18.9277712,44.1820635 19.4352394,46.87944 20.3626447,49.3692959 L20.3626447,49.3692959 L32.5437089,42.0697791 L32.5195285,41.7831199 C32.5065777,41.591123 32.5,41.3973797 32.5,41.2020997 C32.5,39.3773314 33.0749449,37.686808 34.0538241,36.3020008 C35.126256,34.784846 36.6830981,33.6343073 38.4994237,33.0761175 L38.4994237,33.0761175 Z"/>
    <mask id="preferences-system-q" fill="#fff">
      <use xlink:href="#preferences-system-n"/>
    </mask>
    <use fill="#000" filter="url(#preferences-system-o)" xlink:href="#preferences-system-n"/>
    <circle cx="41" cy="41" r="4.5" fill="#DCDCDC" stroke="url(#preferences-system-p)"/>
    <g fill="#000" fill-opacity=".1" mask="url(#preferences-system-q)">
      <g transform="rotate(-105 36.967 9.394)">
        <polygon points="5.341 .75 7.591 5.25 3.091 5.25" transform="matrix(1 0 0 -1 0 6)"/>
        <polygon points="4.759 .827 7.009 5.327 2.509 5.327" transform="scale(1 -1) rotate(15 28.128 0)"/>
        <polygon points="4.216 1.051 6.466 5.551 1.966 5.551" transform="scale(1 -1) rotate(30 16.537 0)"/>
        <polygon points="3.75 1.409 6 5.909 1.5 5.909" transform="scale(1 -1) rotate(45 12.584 0)"/>
      </g>
    </g>
    <g fill="#000" fill-opacity=".1" mask="url(#preferences-system-q)">
      <g transform="rotate(74 -.486 46.892)">
        <polygon points="5.341 .75 7.591 5.25 3.091 5.25" transform="matrix(1 0 0 -1 0 6)"/>
        <polygon points="4.759 .827 7.009 5.327 2.509 5.327" transform="scale(1 -1) rotate(15 28.128 0)"/>
        <polygon points="4.216 1.051 6.466 5.551 1.966 5.551" transform="scale(1 -1) rotate(30 16.537 0)"/>
        <polygon points="3.75 1.409 6 5.909 1.5 5.909" transform="scale(1 -1) rotate(45 12.584 0)"/>
      </g>
    </g>
    <path stroke="url(#preferences-system-r)" d="M41.4,34.5 C42.9869305,34.5 44.5163312,35.223943 45.6461941,36.3538059 C46.776057,37.4836688 47.5,39.0130695 47.5,40.6 C47.5,42.5398844 46.8130434,44.2162909 45.7525763,45.4282534 C44.6104697,46.733518 43.0355218,47.5 41.4,47.5 C39.398079,47.5 37.6770281,46.7694163 36.4538059,45.5461941 C35.2305837,44.3229719 34.5,42.601921 34.5,40.6 C34.5,38.9644782 35.266482,37.3895303 36.5717466,36.2474237 C37.7837091,35.1869566 39.4601156,34.5 41.4,34.5 Z"/>
    <use fill="#878787" xlink:href="#preferences-system-s"/>
    <use fill="#000" filter="url(#preferences-system-t)" xlink:href="#preferences-system-s"/>
  </g>
</svg>
