<svg xmlns="http://www.w3.org/2000/svg" xmlns:xlink="http://www.w3.org/1999/xlink" width="96" height="96" viewBox="0 0 96 96">
  <defs>
    <filter id="steam-a" width="131.1%" height="126.7%" x="-17.8%" y="-13.3%" filterUnits="objectBoundingBox">
      <feOffset dy="2" in="SourceAlpha" result="shadowOffsetOuter1"/>
      <feGaussianBlur in="shadowOffsetOuter1" result="shadowBlurOuter1" stdDeviation="2"/>
      <feColorMatrix in="shadowBlurOuter1" result="shadowMatrixOuter1" values="0 0 0 0 0   0 0 0 0 0   0 0 0 0 0  0 0 0 0.2 0"/>
      <feMerge>
        <feMergeNode in="shadowMatrixOuter1"/>
        <feMergeNode in="SourceGraphic"/>
      </feMerge>
    </filter>
    <linearGradient id="steam-b" x1="50%" x2="50%" y1="3.335%" y2="103.173%">
      <stop offset="0%" stop-color="#EBEBE8"/>
      <stop offset="100%" stop-color="#706D69"/>
    </linearGradient>
    <circle id="steam-c" cx="45" cy="45" r="44"/>
    <filter id="steam-d" width="101.1%" height="101.1%" x="-.6%" y="-.6%" filterUnits="objectBoundingBox">
      <feOffset dy="1" in="SourceAlpha" result="shadowOffsetInner1"/>
      <feComposite in="shadowOffsetInner1" in2="SourceAlpha" k2="-1" k3="1" operator="arithmetic" result="shadowInnerInner1"/>
      <feColorMatrix in="shadowInnerInner1" values="0 0 0 0 1   0 0 0 0 1   0 0 0 0 1  0 0 0 0.90196132 0"/>
    </filter>
    <linearGradient id="steam-e" x1="50%" x2="50%" y1="0%" y2="100%">
      <stop offset="0%" stop-opacity=".2"/>
      <stop offset="100%" stop-opacity=".702"/>
    </linearGradient>
    <radialGradient id="steam-f" cx="50%" cy="45.605%" r="64.45%" fx="50%" fy="45.605%">
      <stop offset="0%" stop-color="#A6A6A6"/>
      <stop offset="100%" stop-color="#222525"/>
    </radialGradient>
    <linearGradient id="steam-g" x1="50%" x2="50%" y1="0%" y2="109.005%">
      <stop offset="0%" stop-opacity=".196"/>
      <stop offset="100%" stop-opacity=".699"/>
    </linearGradient>
    <filter id="steam-h" width="134.8%" height="146.2%" x="-17.4%" y="-23.1%" filterUnits="objectBoundingBox">
      <feOffset dy="2" in="SourceAlpha" result="shadowOffsetOuter1"/>
      <feGaussianBlur in="shadowOffsetOuter1" result="shadowBlurOuter1" stdDeviation="2"/>
      <feColorMatrix in="shadowBlurOuter1" result="shadowMatrixOuter1" values="0 0 0 0 0   0 0 0 0 0   0 0 0 0 0  0 0 0 0.2 0"/>
      <feMerge>
        <feMergeNode in="shadowMatrixOuter1"/>
        <feMergeNode in="SourceGraphic"/>
      </feMerge>
    </filter>
    <radialGradient id="steam-i" cx="91.834%" cy="19.692%" r="93.624%" fx="91.834%" fy="19.692%" gradientTransform="matrix(0 1 -.98 0 1.111 -.721)">
      <stop offset="0%" stop-color="#EBEBE8"/>
      <stop offset="100%" stop-color="#919195"/>
    </radialGradient>
    <path id="steam-j" d="M52.6634,1.5262 C60.9476712,1.5262 67.6634,8.24192875 67.6634,16.5262 C67.6634,24.8104712 60.9476712,31.5262 52.6634,31.5262 C51.9721242,31.5262 51.2917701,31.4794386 50.6253283,31.3889065 L39.6323502,38.6934393 C39.6529267,38.9683332 39.6634,39.2460435 39.6634,39.5262 C39.6634,45.6013322 34.7385322,50.5262 28.6634,50.5262 C22.5882678,50.5262 17.6634,45.6013322 17.6634,39.5262 C17.6634,33.4510678 22.5882678,28.5262 28.6634,28.5262 C28.8708105,28.5262 29.0768803,28.5319404 29.2814591,28.5432711 L37.6668051,16.849029 C37.6645388,16.7416929 37.6634,16.6340795 37.6634,16.5262 C37.6634,8.24192875 44.3791288,1.5262 52.6634,1.5262 Z M28.6634,31.5262 C24.245122,31.5262 20.6634,35.107922 20.6634,39.5262 C20.6634,43.944478 24.245122,47.5262 28.6634,47.5262 C33.081678,47.5262 36.6634,43.944478 36.6634,39.5262 C36.6634,35.107922 33.081678,31.5262 28.6634,31.5262 Z M52.6634,6.5262 C47.1405525,6.5262 42.6634,11.0033525 42.6634,16.5262 C42.6634,22.0490475 47.1405525,26.5262 52.6634,26.5262 C58.1862475,26.5262 62.6634,22.0490475 62.6634,16.5262 C62.6634,11.0033525 58.1862475,6.5262 52.6634,6.5262 Z M52.6634,9.5262 C56.5293932,9.5262 59.6634,12.6602068 59.6634,16.5262 C59.6634,20.3921932 56.5293932,23.5262 52.6634,23.5262 C48.7974068,23.5262 45.6634,20.3921932 45.6634,16.5262 C45.6634,12.6602068 48.7974068,9.5262 52.6634,9.5262 Z"/>
    <filter id="steam-k" width="102%" height="102%" x="-1%" y="-1%" filterUnits="objectBoundingBox">
      <feOffset dy="1" in="SourceAlpha" result="shadowOffsetInner1"/>
      <feComposite in="shadowOffsetInner1" in2="SourceAlpha" k2="-1" k3="1" operator="arithmetic" result="shadowInnerInner1"/>
      <feColorMatrix in="shadowInnerInner1" values="0 0 0 0 1   0 0 0 0 1   0 0 0 0 1  0 0 0 0.501092657 0"/>
    </filter>
    <linearGradient id="steam-l" x1="50%" x2="50%" y1="0%" y2="100%">
      <stop offset="0%" stop-opacity=".203"/>
      <stop offset="100%" stop-opacity=".198"/>
    </linearGradient>
    <linearGradient id="steam-m" x1="50%" x2="50%" y1="0%" y2="100%">
      <stop offset="0%" stop-opacity=".203"/>
      <stop offset="100%" stop-opacity=".198"/>
    </linearGradient>
    <linearGradient id="steam-n" x1=".284%" x2=".284%" y1="0%" y2="110.732%">
      <stop offset="0%" stop-color="#8C8C91"/>
      <stop offset="100%" stop-color="#F3F3F3"/>
    </linearGradient>
    <path id="steam-o" d="M1.75,23.1579312 L30.434152,34.8460242 C32.321422,35.5635166 33.6634,37.3881404 33.6634,39.5262 C33.6634,42.2876237 31.4248237,44.5262 28.6634,44.5262 C28.0112612,44.5262 27.3882825,44.4013508 26.8170619,44.1742503 L3.24820733,36.4208378 C2.21719534,32.9696901 1.6634,29.312618 1.6634,25.5262 C1.6634,24.7307318 1.68784206,23.9409724 1.73601613,23.1576317 L1.75,23.1579312 Z"/>
    <filter id="steam-p" width="102.3%" height="104.7%" x="-.8%" y="-2.3%" filterUnits="objectBoundingBox">
      <feOffset dy="1" in="SourceAlpha" result="shadowOffsetInner1"/>
      <feComposite in="shadowOffsetInner1" in2="SourceAlpha" k2="-1" k3="1" operator="arithmetic" result="shadowInnerInner1"/>
      <feColorMatrix in="shadowInnerInner1" values="0 0 0 0 1   0 0 0 0 1   0 0 0 0 1  0 0 0 0.5 0"/>
    </filter>
    <linearGradient id="steam-q" x1="50%" x2="50%" y1="0%" y2="100%">
      <stop offset="0%" stop-opacity=".1"/>
      <stop offset="100%" stop-opacity=".403"/>
    </linearGradient>
  </defs>
  <g fill="none" filter="url(#steam-a)" transform="translate(3 3)">
    <use fill="url(#steam-b)" xlink:href="#steam-c"/>
    <use fill="#000" filter="url(#steam-d)" xlink:href="#steam-c"/>
    <path fill="url(#steam-e)" d="M45,0 C20.1471863,0 0,20.1471863 0,45 C0,69.8528137 20.1471863,90 45,90 C69.8528137,90 90,69.8528137 90,45 C90,20.1471863 69.8528137,0 45,0 Z M45,1 C69.300529,1 89,20.699471 89,45 C89,69.300529 69.300529,89 45,89 C20.699471,89 1,69.300529 1,45 C1,20.699471 20.699471,1 45,1 Z"/>
    <circle cx="45" cy="45" r="38" fill="url(#steam-f)"/>
    <path fill="url(#steam-g)" d="M45,6 C23.4608948,6 6,23.4608948 6,45 C6,66.5391052 23.4608948,84 45,84 C66.5391052,84 84,66.5391052 84,45 C84,23.4608948 66.5391052,6 45,6 Z M45,7 C65.9868205,7 83,24.0131795 83,45 C83,65.9868205 65.9868205,83 45,83 C24.0131795,83 7,65.9868205 7,45 C7,24.0131795 24.0131795,7 45,7 Z"/>
    <g filter="url(#steam-h)" transform="translate(5.337 19.474)">
      <use fill="url(#steam-i)" xlink:href="#steam-j"/>
      <use fill="#000" filter="url(#steam-k)" xlink:href="#steam-j"/>
      <path fill="url(#steam-l)" d="M52.6634,0.5262 C61.499956,0.5262 68.6634,7.689644 68.6634,16.5262 C68.6634,25.362756 61.499956,32.5262 52.6634,32.5262 C52.1150128,32.5262 51.5699023,32.4985748 51.0295002,32.4437209 L50.872,32.424 L40.659,39.211 L40.6634,39.5262 C40.6634,46.153617 35.290817,51.5262 28.6634,51.5262 C22.035983,51.5262 16.6634,46.153617 16.6634,39.5262 C16.6634,33.0007433 21.8719444,27.6918072 28.3584252,27.5299999 L28.6634,27.5262 L28.778,27.527 L36.663,16.532 C36.6634,7.90139182 43.4877582,0.8703573 52.0313245,0.538456292 L52.3485293,0.529236419 L52.6634,0.5262 Z M52.6634,1.5262 C44.3791288,1.5262 37.6634,8.24192875 37.6634,16.5262 L37.6668051,16.849029 L29.2814591,28.5432711 C29.0768803,28.5319404 28.8708105,28.5262 28.6634,28.5262 C22.5882678,28.5262 17.6634,33.4510678 17.6634,39.5262 C17.6634,45.5049016 22.4331636,50.3695652 28.3749925,50.5224926 L28.6634,50.5262 L28.9518075,50.5224926 C34.8936364,50.3695652 39.6634,45.5049016 39.6634,39.5262 L39.6555913,39.1078462 L39.6323502,38.6934393 L50.6253283,31.3889065 C51.1251597,31.4568056 51.6328167,31.5000836 52.1470377,31.517479 L52.6634,31.5262 L52.9772282,31.5229822 C61.1166136,31.3559302 67.6634,24.7056071 67.6634,16.5262 C67.6634,8.24192875 60.9476712,1.5262 52.6634,1.5262 Z M52.6634,8.5262 C57.081678,8.5262 60.6634,12.107922 60.6634,16.5262 C60.6634,20.944478 57.081678,24.5262 52.6634,24.5262 C48.245122,24.5262 44.6634,20.944478 44.6634,16.5262 C44.6634,12.107922 48.245122,8.5262 52.6634,8.5262 Z M52.6634,9.5262 C48.7974068,9.5262 45.6634,12.6602068 45.6634,16.5262 C45.6634,20.3116517 48.6681834,23.3952987 52.4227502,23.522141 L52.6634,23.5262 L52.9040498,23.522141 C56.6586166,23.3952987 59.6634,20.3116517 59.6634,16.5262 C59.6634,12.6602068 56.5293932,9.5262 52.6634,9.5262 Z"/>
      <path fill="url(#steam-m)" d="M28.6634,31.5262 C33.081678,31.5262 36.6634,35.107922 36.6634,39.5262 C36.6634,43.8611143 33.2155622,47.3907429 28.9125793,47.5223932 L28.6634,47.5262 C24.245122,47.5262 20.6634,43.944478 20.6634,39.5262 C20.6634,35.1912857 24.1112378,31.6616571 28.4142207,31.5300068 L28.6634,31.5262 Z M28.6634,32.5262 C24.7974068,32.5262 21.6634,35.6602068 21.6634,39.5262 C21.6634,43.3921932 24.7974068,46.5262 28.6634,46.5262 C32.5293932,46.5262 35.6634,43.3921932 35.6634,39.5262 C35.6634,35.6602068 32.5293932,32.5262 28.6634,32.5262 Z M52.6634,6.5262 C58.1862475,6.5262 62.6634,11.0033525 62.6634,16.5262 C62.6634,21.9554399 58.3367292,26.3741317 52.9433048,26.5223582 L52.6634,26.5262 C47.1405525,26.5262 42.6634,22.0490475 42.6634,16.5262 C42.6634,11.0969601 46.9900708,6.67826828 52.3834952,6.5300418 L52.6634,6.5262 Z M52.6634,7.5262 C47.6928373,7.5262 43.6634,11.5556373 43.6634,16.5262 C43.6634,21.4967627 47.6928373,25.5262 52.6634,25.5262 C57.6339627,25.5262 61.6634,21.4967627 61.6634,16.5262 C61.6634,11.5556373 57.6339627,7.5262 52.6634,7.5262 Z"/>
      <use fill="url(#steam-n)" xlink:href="#steam-o"/>
      <use fill="#000" filter="url(#steam-p)" xlink:href="#steam-o"/>
      <path fill="url(#steam-q)" d="M1.95619146,22.1621175 L0.79687608,22.1372906 L0.737901801,23.0962494 C0.688299179,23.9028192 0.6634,24.7130524 0.6634,25.5262 C0.6634,29.354256 1.21529218,33.1095 2.29005063,36.707082 L2.43955933,37.2075384 L26.5045681,45.1241701 C27.1470689,45.3815844 27.8960256,45.5262 28.6634,45.5262 C31.9771085,45.5262 34.6634,42.8399085 34.6634,39.5262 C34.6634,37.0957045 33.2047198,34.9390036 31.0182637,34.003659 L1.95619146,22.1621175 Z M1.73601613,23.1576317 L1.75,23.1579312 L30.434152,34.8460242 C32.321422,35.5635166 33.6634,37.3881404 33.6634,39.5262 C33.6634,42.2876237 31.4248237,44.5262 28.6634,44.5262 C28.0112612,44.5262 27.3882825,44.4013508 26.8170619,44.1742503 L3.24820733,36.4208378 C2.21719534,32.9696901 1.6634,29.312618 1.6634,25.5262 C1.6634,24.7307318 1.68784206,23.9409724 1.73601613,23.1576317 Z"/>
    </g>
  </g>
</svg>
