<svg xmlns="http://www.w3.org/2000/svg" xmlns:xlink="http://www.w3.org/1999/xlink" width="96" height="96" viewBox="0 0 96 96">
  <defs>
    <filter id="uos-service-support-a" width="139.7%" height="137.7%" x="-19.1%" y="-18.8%" filterUnits="objectBoundingBox">
      <feOffset dy="2" in="SourceAlpha" result="shadowOffsetOuter1"/>
      <feGaussianBlur in="shadowOffsetOuter1" result="shadowBlurOuter1" stdDeviation="2"/>
      <feColorMatrix in="shadowBlurOuter1" result="shadowMatrixOuter1" values="0 0 0 0 0   0 0 0 0 0   0 0 0 0 0  0 0 0 0.2 0"/>
      <feMerge>
        <feMergeNode in="shadowMatrixOuter1"/>
        <feMergeNode in="SourceGraphic"/>
      </feMerge>
    </filter>
    <radialGradient id="uos-service-support-b" cx="50%" cy="-3.497%" r="99.993%" fx="50%" fy="-3.497%" gradientTransform="matrix(0 .98244 -1.04 0 .464 -.526)">
      <stop offset="0%" stop-color="#DE7F56"/>
      <stop offset="100%" stop-color="#A83733"/>
    </radialGradient>
    <linearGradient id="uos-service-support-e" x1="50%" x2="50%" y1="2.427%" y2="100%">
      <stop offset="0%" stop-color="#BB726A"/>
      <stop offset="100%" stop-color="#600707"/>
    </linearGradient>
    <path id="uos-service-support-c" d="M33.25,0.5 C52.0276815,0.5 67.25,15.7223185 67.25,34.5 C67.25,53.2776815 52.0276815,68.5 33.25,68.5 C28.539352,68.5 24.0524531,67.5420162 19.9734965,65.8102417 L8.61454154,68.7064131 L12.6037619,61.515784 C4.48573295,55.3023516 -0.75,45.5126113 -0.75,34.5 C-0.75,15.7223185 14.4723185,0.5 33.25,0.5 Z"/>
    <filter id="uos-service-support-d" width="106.7%" height="105.1%" x="-4.1%" y="-2.2%" filterUnits="objectBoundingBox">
      <feOffset dy="-2" in="SourceAlpha" result="shadowOffsetInner1"/>
      <feComposite in="shadowOffsetInner1" in2="SourceAlpha" k2="-1" k3="1" operator="arithmetic" result="shadowInnerInner1"/>
      <feColorMatrix in="shadowInnerInner1" result="shadowMatrixInner1" values="0 0 0 0 0   0 0 0 0 0   0 0 0 0 0  0 0 0 0.138057255 0"/>
      <feOffset dy="1" in="SourceAlpha" result="shadowOffsetInner2"/>
      <feComposite in="shadowOffsetInner2" in2="SourceAlpha" k2="-1" k3="1" operator="arithmetic" result="shadowInnerInner2"/>
      <feColorMatrix in="shadowInnerInner2" result="shadowMatrixInner2" values="0 0 0 0 1   0 0 0 0 1   0 0 0 0 1  0 0 0 0.379124781 0"/>
      <feMerge>
        <feMergeNode in="shadowMatrixInner1"/>
        <feMergeNode in="shadowMatrixInner2"/>
      </feMerge>
    </filter>
    <linearGradient id="uos-service-support-h" x1="50%" x2="50%" y1="0%" y2="96.905%">
      <stop offset="0%" stop-color="#FFF"/>
      <stop offset="100%" stop-color="#FFF" stop-opacity=".748"/>
    </linearGradient>
    <path id="uos-service-support-g" d="M38.601,43.5 L38.601,42.586 C38.601,41.396 38.856,40.291 39.366,39.271 C39.842,38.285 40.522,37.435 41.406,36.721 C43.786,34.647 45.248,33.304 45.792,32.692 C47.05,31.026 47.679,28.935 47.679,26.419 C47.679,23.291 46.659,20.843 44.619,19.075 C42.613,17.273 39.927,16.372 36.561,16.372 C32.821,16.372 29.846,17.443 27.636,19.585 C25.426,21.693 24.321,24.692 24.321,28.5 L30.135,28.5 C30.135,26.324 30.56,24.617 31.41,23.461 C32.362,22.067 33.96,21.37 36.204,21.37 C37.972,21.37 39.332,21.846 40.284,22.798 C41.236,23.818 41.712,25.144 41.712,26.776 C41.712,28.068 41.253,29.275 40.335,30.397 L39.723,31.111 C36.391,34.069 34.402,36.228 33.756,37.588 C33.076,38.914 32.736,40.58 32.736,42.586 L32.736,43.5 L38.601,43.5 Z M35.643,53.5 C36.765,53.5 37.7,53.143 38.448,52.429 C39.23,51.715 39.621,50.78 39.621,49.624 C39.621,48.536 39.247,47.618 38.499,46.87 C37.751,46.156 36.799,45.799 35.643,45.799 C34.555,45.799 33.62,46.156 32.838,46.87 C32.09,47.584 31.716,48.502 31.716,49.624 C31.716,50.746 32.09,51.664 32.838,52.378 C33.654,53.126 34.589,53.5 35.643,53.5 Z"/>
    <filter id="uos-service-support-f" width="104.3%" height="105.4%" x="-2.1%" y="-1.3%" filterUnits="objectBoundingBox">
      <feOffset dy="1" in="SourceAlpha" result="shadowOffsetOuter1"/>
      <feColorMatrix in="shadowOffsetOuter1" values="0 0 0 0 0.510416667   0 0 0 0 0.100468829   0 0 0 0 0.100468829  0 0 0 0.221809441 0"/>
    </filter>
    <filter id="uos-service-support-i" width="156.2%" height="156.2%" x="-27.1%" y="-29.2%" filterUnits="objectBoundingBox">
      <feOffset dy="2" in="SourceAlpha" result="shadowOffsetOuter1"/>
      <feGaussianBlur in="shadowOffsetOuter1" result="shadowBlurOuter1" stdDeviation="2"/>
      <feColorMatrix in="shadowBlurOuter1" result="shadowMatrixOuter1" values="0 0 0 0 0   0 0 0 0 0   0 0 0 0 0  0 0 0 0.2 0"/>
      <feMerge>
        <feMergeNode in="shadowMatrixOuter1"/>
        <feMergeNode in="SourceGraphic"/>
      </feMerge>
    </filter>
    <radialGradient id="uos-service-support-j" cx="50%" cy="10.248%" r="105.558%" fx="50%" fy="10.248%">
      <stop offset="0%" stop-color="#7EC386"/>
      <stop offset="100%" stop-color="#45704A"/>
    </radialGradient>
    <linearGradient id="uos-service-support-m" x1="59.639%" x2="59.639%" y1="104.678%" y2="6.469%">
      <stop offset="0%" stop-color="#0F4116"/>
      <stop offset="100%" stop-color="#366D3A"/>
    </linearGradient>
    <path id="uos-service-support-k" d="M23.75,-0.5 C37.004834,-0.5 47.75,10.245166 47.75,23.5 C47.75,29.3745802 45.6393403,34.7561893 42.1349852,38.9278633 L47.7005348,46.5454545 L35.2367537,44.5777686 C31.8250581,46.4409848 27.9112022,47.5 23.75,47.5 C10.495166,47.5 -0.25,36.754834 -0.25,23.5 C-0.25,10.245166 10.495166,-0.5 23.75,-0.5 Z"/>
    <filter id="uos-service-support-l" width="106.2%" height="106.2%" x="-3.6%" y="-4.2%" filterUnits="objectBoundingBox">
      <feOffset dy="1" in="SourceAlpha" result="shadowOffsetInner1"/>
      <feComposite in="shadowOffsetInner1" in2="SourceAlpha" k2="-1" k3="1" operator="arithmetic" result="shadowInnerInner1"/>
      <feColorMatrix in="shadowInnerInner1" result="shadowMatrixInner1" values="0 0 0 0 1   0 0 0 0 1   0 0 0 0 1  0 0 0 0.5 0"/>
      <feOffset dy="-1" in="SourceAlpha" result="shadowOffsetInner2"/>
      <feComposite in="shadowOffsetInner2" in2="SourceAlpha" k2="-1" k3="1" operator="arithmetic" result="shadowInnerInner2"/>
      <feColorMatrix in="shadowInnerInner2" result="shadowMatrixInner2" values="0 0 0 0 0   0 0 0 0 0   0 0 0 0 0  0 0 0 0.160893794 0"/>
      <feMerge>
        <feMergeNode in="shadowMatrixInner1"/>
        <feMergeNode in="shadowMatrixInner2"/>
      </feMerge>
    </filter>
    <linearGradient id="uos-service-support-p" x1="50%" x2="50%" y1="0%" y2="100%">
      <stop offset="0%" stop-color="#FFF"/>
      <stop offset="100%" stop-color="#FFF" stop-opacity=".6"/>
    </linearGradient>
    <path id="uos-service-support-o" d="M12.136858,25.9585431 L19.8192705,30.2485034 C20.0788741,30.3934695 20.3996037,30.3713864 20.6368892,30.1922083 L38.8488957,16.4400245 C39.5586251,15.9040962 40.5572279,15.9846437 41.1718847,16.6273971 C41.7631068,17.2456446 41.7411984,18.2261135 41.1229509,18.8173356 C41.1203066,18.8198642 41.1176534,18.8223835 41.1149913,18.8248934 L21.2697992,37.535167 C20.694273,38.0777796 19.796303,38.0802407 19.2178113,37.5407908 L9.44507948,28.4276124 C8.84903208,27.8717918 8.81642187,26.9380182 9.37224254,26.3419708 C9.40639381,26.3053479 9.4423871,26.270487 9.48008268,26.2375235 C10.2177471,25.5924618 11.2812892,25.4807823 12.136858,25.9585431 Z"/>
    <filter id="uos-service-support-n" width="98.9%" height="103.7%" x=".7%" y=".4%" filterUnits="objectBoundingBox">
      <feOffset dy="1" in="SourceAlpha" result="shadowOffsetOuter1"/>
      <feColorMatrix in="shadowOffsetOuter1" values="0 0 0 0 0   0 0 0 0 0   0 0 0 0 0  0 0 0 0.144367351 0"/>
    </filter>
  </defs>
  <g fill="none" fill-rule="evenodd">
    <g fill-rule="nonzero" filter="url(#uos-service-support-a)" transform="translate(24.75 10.5)">
      <g stroke-linejoin="round" transform="matrix(-1 0 0 1 67.5 0)">
        <use fill="url(#uos-service-support-b)" xlink:href="#uos-service-support-c"/>
        <use fill="#000" filter="url(#uos-service-support-d)" xlink:href="#uos-service-support-c"/>
        <path stroke="url(#uos-service-support-e)" d="M33.25,-4.4408921e-16 C42.7769119,-4.4408921e-16 51.4019119,3.86154403 57.645184,10.104816 C63.888456,16.3480881 67.75,24.9730881 67.75,34.5 C67.75,44.0269119 63.888456,52.6519119 57.645184,58.895184 C51.4019119,65.138456 42.7769119,69 33.25,69 C28.5299909,69 24.031408,68.051994 19.9341357,66.3362738 L19.9341357,66.3362738 L7.61511539,69.4772312 L11.9585199,61.6481799 C3.91605785,55.3320512 -1.25,45.5192933 -1.25,34.5 C-1.25,24.9730881 2.61154403,16.3480881 8.85481605,10.104816 C15.0980881,3.86154403 23.7230881,-4.4408921e-16 33.25,-4.4408921e-16 Z"/>
      </g>
      <use fill="#000" filter="url(#uos-service-support-f)" xlink:href="#uos-service-support-g"/>
      <use fill="url(#uos-service-support-h)" xlink:href="#uos-service-support-g"/>
    </g>
    <g filter="url(#uos-service-support-i)" transform="translate(3.75 37.5)">
      <g stroke-linejoin="round" transform="matrix(-1 0 0 1 48 0)">
        <use fill="url(#uos-service-support-j)" xlink:href="#uos-service-support-k"/>
        <use fill="#000" filter="url(#uos-service-support-l)" xlink:href="#uos-service-support-k"/>
        <path stroke="url(#uos-service-support-m)" d="M23.75,-1 C30.5154882,-1 36.6404882,1.74225591 41.0741161,6.17588386 C45.5077441,10.6095118 48.25,16.7345118 48.25,23.5 C48.25,29.3559326 46.1954622,34.7319764 42.768026,38.9467609 L42.768026,38.9467609 L48.81856,47.2281524 L35.3260017,45.0980509 C31.8786939,46.9495237 27.9370344,48 23.75,48 C16.9845118,48 10.8595118,45.2577441 6.42588386,40.8241161 C1.99225591,36.3904882 -0.75,30.2654882 -0.75,23.5 C-0.75,16.7345118 1.99225591,10.6095118 6.42588386,6.17588386 C10.8595118,1.74225591 16.9845118,-1 23.75,-1 Z"/>
      </g>
      <g fill-rule="nonzero">
        <use fill="#000" filter="url(#uos-service-support-n)" xlink:href="#uos-service-support-o"/>
        <use fill="url(#uos-service-support-p)" xlink:href="#uos-service-support-o"/>
      </g>
    </g>
  </g>
</svg>
