<svg xmlns="http://www.w3.org/2000/svg" xmlns:xlink="http://www.w3.org/1999/xlink" width="96" height="96" viewBox="0 0 96 96">
  <defs>
    <filter id="wps-office2019-kprometheus-a" width="133.3%" height="126.8%" x="-16.6%" y="-13.4%" filterUnits="objectBoundingBox">
      <feOffset dy="2" in="SourceAlpha" result="shadowOffsetOuter1"/>
      <feGaussianBlur in="shadowOffsetOuter1" result="shadowBlurOuter1" stdDeviation="2"/>
      <feColorMatrix in="shadowBlurOuter1" result="shadowMatrixOuter1" values="0 0 0 0 0   0 0 0 0 0   0 0 0 0 0  0 0 0 0.2 0"/>
      <feMerge>
        <feMergeNode in="shadowMatrixOuter1"/>
        <feMergeNode in="SourceGraphic"/>
      </feMerge>
    </filter>
    <linearGradient id="wps-office2019-kprometheus-b" x1="50%" x2="50%" y1=".348%" y2="99.213%">
      <stop offset="0%" stop-color="#8DC2E1"/>
      <stop offset="100%" stop-color="#2D4FB5"/>
    </linearGradient>
    <linearGradient id="wps-office2019-kprometheus-e" x1="50%" x2="50%" y1="1.683%" y2="100%">
      <stop offset="0%" stop-color="#5F8BCC"/>
      <stop offset="100%" stop-color="#22336C"/>
    </linearGradient>
    <path id="wps-office2019-kprometheus-c" d="M42,1.73205081 L74.9711432,20.7679492 C76.8275496,21.839746 77.9711432,23.8205081 77.9711432,25.9641016 L77.9711432,64.0358984 C77.9711432,66.1794919 76.8275496,68.160254 74.9711432,69.2320508 L42,88.2679492 C40.1435935,89.339746 37.8564065,89.339746 36,88.2679492 L3.02885683,69.2320508 C1.17245037,68.160254 0.0288568297,66.1794919 0.0288568297,64.0358984 L0.0288568297,25.9641016 C0.0288568297,23.8205081 1.17245037,21.839746 3.02885683,20.7679492 L36,1.73205081 C37.8564065,0.660254038 40.1435935,0.660254038 42,1.73205081 Z"/>
    <filter id="wps-office2019-kprometheus-d" width="103.8%" height="103.4%" x="-1.9%" y="-1.7%" filterUnits="objectBoundingBox">
      <feOffset dy="1" in="SourceAlpha" result="shadowOffsetInner1"/>
      <feComposite in="shadowOffsetInner1" in2="SourceAlpha" k2="-1" k3="1" operator="arithmetic" result="shadowInnerInner1"/>
      <feColorMatrix in="shadowInnerInner1" values="0 0 0 0 1   0 0 0 0 1   0 0 0 0 1  0 0 0 0.5 0"/>
    </filter>
    <linearGradient id="wps-office2019-kprometheus-f" x1="50%" x2="50%" y1="0%" y2="100%">
      <stop offset="0%" stop-color="#FFF"/>
      <stop offset="100%" stop-color="#CDD6F0"/>
    </linearGradient>
    <linearGradient id="wps-office2019-kprometheus-g" x1="50%" x2="50%" y1="0%" y2="100%">
      <stop offset="0%" stop-opacity=".2"/>
      <stop offset="100%" stop-opacity=".4"/>
    </linearGradient>
  </defs>
  <g fill="none" fill-rule="evenodd" filter="url(#wps-office2019-kprometheus-a)" transform="translate(9 3)">
    <use fill="url(#wps-office2019-kprometheus-b)" xlink:href="#wps-office2019-kprometheus-c"/>
    <use fill="#000" filter="url(#wps-office2019-kprometheus-d)" xlink:href="#wps-office2019-kprometheus-c"/>
    <path stroke="url(#wps-office2019-kprometheus-e)" d="M39,0.42820323 C40.1222233,0.42820323 41.2444465,0.718481522 42.25,1.29903811 L42.25,1.29903811 L75.2211432,20.3349365 C76.2266967,20.9154931 77.0391967,21.7422278 77.6003083,22.7141016 C78.1614199,23.6859755 78.4711432,24.8029884 78.4711432,25.9641016 L78.4711432,25.9641016 L78.4711432,64.0358984 C78.4711432,65.1970116 78.1614199,66.3140245 77.6003083,67.2858984 C77.0391967,68.2577722 76.2266967,69.0845069 75.2211432,69.6650635 L75.2211432,69.6650635 L42.25,88.7009619 C40.238893,89.8620751 37.761107,89.8620751 35.75,88.7009619 L35.75,88.7009619 L2.77885683,69.6650635 C1.77330333,69.0845069 0.96080333,68.2577722 0.399691705,67.2858984 C-0.16141992,66.3140245 -0.47114317,65.1970116 -0.47114317,64.0358984 L-0.47114317,64.0358984 L-0.47114317,25.9641016 C-0.47114317,23.6418753 0.767749831,21.4960497 2.77885683,20.3349365 L2.77885683,20.3349365 L35.75,1.29903811 C36.7555535,0.718481522 37.8777767,0.42820323 39,0.42820323 Z"/>
    <path fill="url(#wps-office2019-kprometheus-f)" fill-rule="nonzero" d="M47.5385508,67.4800493 C47.4170331,67.4800493 47.112332,67.4455891 46.9255212,67.1300058 L41.4644794,57.8982879 L45.7194126,50.7142339 L47.5367371,54.4885374 L57.5955009,37 L48.6793662,36.9963726 L31.073809,67.1662797 C30.8869982,67.481863 30.5822971,67.5 30.4607794,67.5 C30.3392617,67.5 30.0345606,67.4564713 29.8477498,67.140888 L10.4829065,34.400029 C9.82453452,33.286419 9.81365234,32.4357951 10.4538874,31.311303 C11.0959361,30.1868108 12.2512612,30 13.5444272,30 L33.4606343,30 L36.5566152,34.9912943 L32.1892327,43.0205311 L28.5944852,37 L20.4056431,37 L30.4625931,54.4867237 L44.5386959,30 L64.4549031,30 C65.7480691,30 66.9052078,30.1849971 67.5454428,31.3094893 C68.1856779,32.4339814 68.1766094,33.525827 67.5164237,34.639437 L48.2622159,67.0647127 C48.0754051,67.380296 47.6618822,67.4800493 47.5385508,67.4800493 Z"/>
    <path fill="url(#wps-office2019-kprometheus-g)" fill-rule="nonzero" d="M37.7129123,34.9583191 L34.017109,29 L13.5444272,29 C11.6165849,29 10.3711352,29.4394453 9.58547192,30.8154657 C8.76784666,32.2515199 8.7803421,33.4851615 9.62209168,34.9089473 L28.9870303,67.6499674 C29.3415546,68.2488727 29.9139438,68.5 30.4607794,68.5 L30.6018908,68.4955573 C31.1167256,68.4625501 31.5997225,68.240954 31.9343415,67.6756754 L49.253,37.996 L55.867,37.998 L47.614,52.345 L45.8104381,48.5982223 L40.3024289,57.8979769 L46.0648371,67.6391452 C46.4229639,68.2441362 46.9860396,68.4800493 47.5385508,68.4800493 C48.0835175,68.4800493 48.7707333,68.1687746 49.1227483,67.5741084 L68.3762586,35.1500091 C69.2198663,33.7270011 69.2325746,32.2516226 68.4144612,30.8147094 C67.6305714,29.4379059 66.3859409,29 64.4549031,29 L43.9600916,29 L30.462,52.48 L22.134,38 L28.026,38 L32.2297034,45.0389527 L37.7129123,34.9583191 Z M33.4606343,30 L36.5566152,34.9912943 L32.1892327,43.0205311 L28.5944852,37 L20.4056431,37 L30.4625931,54.4867237 L44.5386959,30 L64.4549031,30 C65.7480691,30 66.9052078,30.1849971 67.5454428,31.3094893 C68.1856779,32.4339814 68.1766094,33.525827 67.5164237,34.639437 L48.2622159,67.0647127 C48.0754051,67.380296 47.6618822,67.4800493 47.5385508,67.4800493 C47.4170331,67.4800493 47.112332,67.4455891 46.9255212,67.1300058 L41.4644794,57.8982879 L45.7194126,50.7142339 L47.5367371,54.4885374 L57.5955009,37 L48.6793662,36.9963726 L31.073809,67.1662797 C30.9285118,67.4117334 30.7118981,67.4772504 30.5656256,67.4942479 L30.4607794,67.5 C30.3392617,67.5 30.0345606,67.4564713 29.8477498,67.140888 L10.4829065,34.400029 C9.82453452,33.286419 9.81365234,32.4357951 10.4538874,31.311303 C11.0621441,30.2459946 12.1310698,30.0222617 13.3414433,30.0016619 L33.4606343,30 Z"/>
  </g>
</svg>
