<svg xmlns="http://www.w3.org/2000/svg" xmlns:xlink="http://www.w3.org/1999/xlink" width="24" height="24" viewBox="0 0 24 24">
  <defs>
    <path id="emblem-unreadable-b" d="M18,9 C18,13.971 13.971,18 9,18 C4.029,18 0,13.971 0,9 C0,4.029 4.029,0 9,0 C13.971,0 18,4.029 18,9"/>
    <filter id="emblem-unreadable-a" width="138.9%" height="138.9%" x="-19.4%" y="-13.9%" filterUnits="objectBoundingBox">
      <feOffset dy="1" in="SourceAlpha" result="shadowOffsetOuter1"/>
      <feGaussianBlur in="shadowOffsetOuter1" result="shadowBlurOuter1" stdDeviation="1"/>
      <feColorMatrix in="shadowBlurOuter1" values="0 0 0 0 0   0 0 0 0 0   0 0 0 0 0  0 0 0 0.15 0"/>
    </filter>
  </defs>
  <g fill="none" fill-rule="evenodd" transform="translate(3 3)">
    <use fill="#000" filter="url(#emblem-unreadable-a)" xlink:href="#emblem-unreadable-b"/>
    <use fill="#FFF" xlink:href="#emblem-unreadable-b"/>
    <path fill="#FF4F00" d="M9,3 C12.3137085,3 15,5.6862915 15,9 C15,12.3137085 12.3137085,15 9,15 C5.6862915,15 3,12.3137085 3,9 C3,5.6862915 5.6862915,3 9,3 Z M4.5,9 C4.5,11.4852814 6.51471863,13.5 9,13.5 C9.97219649,13.5 10.872386,13.1917015 11.6081357,12.6675375 L5.3324625,6.39186433 C4.80829847,7.12761399 4.5,8.02780351 4.5,9 Z M9,4.5 C8.02824183,4.5 7.12842572,4.80802053 6.39285959,5.33175367 L12.6682463,11.6071404 C13.1919795,10.8715743 13.5,9.97175817 13.5,9 C13.5,6.51471863 11.4852814,4.5 9,4.5 Z"/>
  </g>
</svg>
