<svg xmlns="http://www.w3.org/2000/svg" xmlns:xlink="http://www.w3.org/1999/xlink" width="20" height="20" viewBox="0 0 20 20">
  <defs>
    <filter id="audio-volume-low-symbolic-dark-a">
      <feColorMatrix in="SourceGraphic" values="0 0 0 0 0.000000 0 0 0 0 0.000000 0 0 0 0 0.000000 0 0 0 1.000000 0"/>
    </filter>
    <path id="audio-volume-low-symbolic-dark-b" d="M3.29422372,0.245663597 C4.26373567,0.245663597 5.15268654,0.590586572 5.84505736,1.16441356 L5.21507253,1.94114899 C4.69468967,1.50693097 4.02496783,1.2456636 3.29422372,1.2456636 C2.47524445,1.2456636 1.73291364,1.57383471 1.19155838,2.10584988 L0.559005335,1.32698494 C1.27433544,0.656348432 2.23631929,0.245663597 3.29422372,0.245663597 Z"/>
  </defs>
  <g fill="none" fill-rule="evenodd">
    <path fill="#000" fill-rule="nonzero" d="M8.198241,4.60685569 L5.03649259,7 L5.03649259,7 L1.5,7 C1.22385763,7 1,7.22385763 1,7.5 L1,12.5 C1,12.7761424 1.22385763,13 1.5,13 L5.03649259,13 L5.03649259,13 L8.198241,15.3931443 C8.41842294,15.5598012 8.73201779,15.5164106 8.89867468,15.2962286 C8.96442116,15.2093664 9,15.1034083 9,14.9944696 L9,5.00553037 C9,4.729388 8.77614237,4.50553037 8.5,4.50553037 C8.39106129,4.50553037 8.28510321,4.54110922 8.198241,4.60685569 Z"/>
    <g filter="url(#audio-volume-low-symbolic-dark-a)">
      <use fill="#FFF" fill-rule="nonzero" transform="rotate(90 3.27 9.976)" xlink:href="#audio-volume-low-symbolic-dark-b"/>
    </g>
  </g>
</svg>
