<svg xmlns="http://www.w3.org/2000/svg" width="20" height="20" viewBox="0 0 20 20">
  <g fill="none" fill-rule="evenodd">
    <path fill="#3ACB00" d="M2,10.9999744 L6.53492437,11 L7.535,13.9999744 L2,14 L2,10.9999744 Z M8.668,5.99997443 L2,8.85697443 L2,6 L8.668,5.99997443 Z"/>
    <polygon fill="#000" points="9.538 6.769 2 10 7.385 10 8.462 13.231 16 10 10.615 10"/>
    <path fill="#000" fill-rule="nonzero" d="M19,4 L0,4 L0,16 L19,16 L19,12 L20,12 L20,8 L19,8 L19,4 Z M18,5 L18,15 L1,15 L1,5 L18,5 Z"/>
  </g>
</svg>
