<svg xmlns="http://www.w3.org/2000/svg" width="20" height="20" viewBox="0 0 20 20">
  <g fill="none" fill-rule="evenodd">
    <path fill="#000" fill-rule="nonzero" d="M7.24960955,9.17295223 C7.24960955,7.55198774 8.98558854,6.73505045 10.3818886,7.6117948 C10.9012329,7.93789395 10.8977923,8.94570718 10.4842054,9.30278852 C10.3726411,9.39911049 10.2473833,9.47583872 10.0333175,9.58418373 C9.975446,9.61330228 9.975446,9.61330228 9.91459846,9.64361911 C9.3945286,9.90299052 9.13632148,10.0754526 8.86329315,10.4241672 C8.54143819,10.8352436 8.49960955,11.0943269 8.49960955,12.1499222 L9.74960955,12.1499222 C9.74960955,11.3739441 9.76062141,11.3057375 9.84750825,11.1947648 C9.97325658,11.0341577 10.1089728,10.9435099 10.4724734,10.7622234 C10.5335228,10.7318093 10.5335228,10.7318093 10.5977966,10.6994699 C10.8949109,10.5490917 11.0963838,10.4256769 11.3010895,10.2489388 C12.3161432,9.37256501 12.3230323,7.35466185 11.0465976,6.55318158 C8.86860665,5.18560927 6,6.46427219 6,9.17295223 L7.24960955,9.17295223 Z M8.49960955,12.9008636 L9.74960955,12.9008636 L9.74960955,14.1508636 L8.49960955,14.1508636 L8.49960955,12.9008636 Z"/>
    <path fill="#000" fill-rule="nonzero" d="M19,4 L0,4 L0,16 L19,16 L19,12 L20,12 L20,8 L19,8 L19,4 Z M18,5 L18,15 L1,15 L1,5 L18,5 Z"/>
  </g>
</svg>
