<svg xmlns="http://www.w3.org/2000/svg" width="96" height="96" viewBox="0 0 96 96">
  <defs>
    <filter id="ardour_icon-a" width="131.6%" height="131.6%" x="-15.8%" y="-15.8%" filterUnits="objectBoundingBox">
      <feOffset dy="2" in="SourceAlpha" result="shadowOffsetOuter1"/>
      <feGaussianBlur in="shadowOffsetOuter1" result="shadowBlurOuter1" stdDeviation="2"/>
      <feColorMatrix in="shadowBlurOuter1" result="shadowMatrixOuter1" values="0 0 0 0 0   0 0 0 0 0   0 0 0 0 0  0 0 0 0.2 0"/>
      <feMerge>
        <feMergeNode in="shadowMatrixOuter1"/>
        <feMergeNode in="SourceGraphic"/>
      </feMerge>
    </filter>
    <linearGradient id="ardour_icon-b" x1="50%" x2="50%" y1="0%" y2="100%">
      <stop offset="0%" stop-color="#ADDDED"/>
      <stop offset="100%" stop-color="#75B8D6"/>
    </linearGradient>
  </defs>
  <g fill="none" fill-rule="evenodd" filter="url(#ardour_icon-a)" transform="translate(10 10)">
    <rect width="76" height="76" fill="#28494D" fill-rule="nonzero" rx="10"/>
    <path fill="url(#ardour_icon-b)" fill-rule="nonzero" d="M41.854,53.834 C43.428,53.834 44.622,54.26 45.44,55.11 C46.09,55.786 46.416,56.586 46.416,57.516 C46.416,58.45 46.094,59.252 45.452,59.92 C44.634,60.77 43.436,61.196 41.854,61.196 C40.28,61.196 39.086,60.772 38.27,59.92 C37.618,59.246 37.292,58.444 37.292,57.516 C37.292,56.582 37.614,55.78 38.256,55.11 C39.072,54.26 40.272,53.834 41.854,53.834 Z M49.216,54.02 L49.216,58.42 C49.216,59.114 49.468,59.628 49.972,59.958 C50.38,60.224 50.92,60.358 51.59,60.358 C52.276,60.358 52.832,60.228 53.258,59.968 C53.788,59.644 54.054,59.134 54.054,58.44 L54.054,54.02 L55.32,54.02 L55.32,58.558 C55.32,59.324 55.016,59.944 54.406,60.418 C53.738,60.938 52.784,61.196 51.55,61.196 C50.36,61.196 49.446,60.944 48.812,60.438 C48.238,59.984 47.952,59.398 47.952,58.686 L47.952,54.02 L49.216,54.02 Z M14.396,54.022 L17.786,61.012 L16.412,61.01 L15.482,58.976 L11.72,58.976 L10.75,61.012 L9.442,61.012 L12.962,54.022 L14.396,54.022 Z M23.432,54.02 C24.328,54.02 25.032,54.146 25.544,54.398 C26.188,54.716 26.508,55.216 26.508,55.898 C26.508,56.358 26.37,56.732 26.092,57.018 C25.9,57.214 25.604,57.398 25.206,57.574 C25.572,57.684 25.824,57.8 25.962,57.924 C26.206,58.132 26.328,58.452 26.328,58.888 L26.406,60.154 C26.406,60.356 26.434,60.5 26.49,60.592 C26.546,60.684 26.674,60.77 26.874,60.854 L26.874,61.01 L25.322,61.01 C25.244,60.816 25.188,60.542 25.154,60.188 C25.118,59.834 25.102,59.524 25.102,59.258 C25.102,58.882 25.016,58.602 24.842,58.422 C24.582,58.15 24.112,58.012 23.434,58.012 L20.368,58.012 L20.368,61.012 L19.104,61.012 L19.104,54.02 L23.432,54.02 Z M61.814,54.02 C62.71,54.02 63.414,54.146 63.926,54.398 C64.57,54.716 64.89,55.216 64.89,55.898 C64.89,56.358 64.752,56.732 64.474,57.018 C64.282,57.214 63.986,57.398 63.588,57.574 C63.954,57.684 64.206,57.8 64.344,57.924 C64.588,58.132 64.71,58.452 64.71,58.888 L64.788,60.154 C64.788,60.356 64.816,60.5 64.872,60.592 C64.928,60.684 65.056,60.77 65.256,60.854 L65.256,61.01 L63.704,61.01 C63.626,60.816 63.57,60.542 63.536,60.188 C63.5,59.834 63.484,59.524 63.484,59.258 C63.484,58.882 63.398,58.602 63.224,58.422 C62.964,58.15 62.494,58.012 61.816,58.012 L58.75,58.012 L58.75,61.012 L57.486,61.012 L57.486,54.02 L61.814,54.02 Z M32.218,54.02 C33.418,54.02 34.374,54.332 35.088,54.954 C35.8,55.578 36.156,56.398 36.156,57.416 C36.156,58.37 35.878,59.166 35.322,59.802 C34.618,60.606 33.566,61.01 32.166,61.01 L28.424,61.01 L28.424,54.02 L32.218,54.02 Z M41.852,54.672 C40.852,54.672 40.06,54.936 39.474,55.464 C38.888,55.994 38.594,56.676 38.594,57.514 C38.594,58.35 38.886,59.034 39.474,59.562 C40.06,60.092 40.854,60.356 41.852,60.356 C42.852,60.356 43.644,60.092 44.232,59.562 C44.82,59.036 45.112,58.352 45.112,57.516 C45.112,56.678 44.824,56 44.252,55.48 C43.652,54.942 42.852,54.672 41.852,54.672 Z M32.05,54.83 L29.69,54.83 L29.69,60.204 L32.142,60.204 C32.976,60.204 33.638,59.966 34.124,59.494 C34.61,59.02 34.854,58.348 34.854,57.478 C34.854,56.614 34.606,55.958 34.11,55.506 C33.614,55.054 32.928,54.83 32.05,54.83 Z M13.638,55.056 L12.1,58.138 L15.02,58.138 L13.638,55.056 Z M23.524,54.828 L20.368,54.828 L20.368,57.204 L23.302,57.204 C23.876,57.204 24.31,57.132 24.606,56.99 C25.006,56.802 25.206,56.472 25.206,55.998 C25.206,55.524 25.006,55.196 24.606,55.014 C24.336,54.89 23.976,54.828 23.524,54.828 Z M61.906,54.828 L58.75,54.828 L58.75,57.204 L61.684,57.204 C62.258,57.204 62.692,57.132 62.988,56.99 C63.388,56.802 63.588,56.472 63.588,55.998 C63.588,55.524 63.388,55.196 62.988,55.014 C62.718,54.89 62.358,54.828 61.906,54.828 Z M38.002,7.96 L63.806,52 L60,52 L60,51.718 C59.32,51.63 58.632,51.548 58,51.424 L58,51.424 L58,52 L56,52 L56,50.958 C55.294,50.768 54.634,50.554 54,50.332 L54,50.332 L54,52 L52,52 L52,49.544 C51.268,49.22 50.604,48.89 50,48.56 L50,48.56 L50,51.752 C49.356,51.638 48.69,51.53 48,51.428 L48,51.428 L48,47.346 C46.982,46.654 46.312,46.086 46,45.8 L46,45.8 L46,51.162 C45.348,51.084 44.684,51.01 44,50.946 L44,50.946 L44,44.058 C43.328,43.524 42.662,43.06 42,42.636 L42,42.636 L42,50.778 C41.346,50.73 40.676,50.692 40,50.656 L40,50.656 L40,41.506 C39.328,41.176 38.658,40.882 38,40.654 L38,40.654 L38,50.572 C37.34,50.548 36.676,50.53 36,50.52 L36,50.52 L36,40.12 C35.324,39.98 34.658,39.888 34,39.844 L34,39.844 L34,50.5 C33.326,50.502 32.662,50.512 32,50.524 L32,50.524 L32,39.834 C31.32,39.878 30.654,39.974 30,40.102 L30,40.102 L30,50.584 C29.324,50.608 28.658,50.638 28,50.676 L28,50.676 L28,40.614 C27.314,40.836 26.648,41.1 26,41.394 L26,41.394 L26,50.804 C25.322,50.854 24.652,50.91 24,50.974 L24,50.974 L24,42.43 C23.304,42.836 22.636,43.27 22,43.726 L22,43.726 L22,51.196 C21.312,51.28 20.648,51.372 20,51.47 L20,51.47 L20,45.29 C19.278,45.906 18.608,46.528 18,47.136 L18,47.136 L18,51.806 C17.662,51.868 17.34,51.934 17.016,52 L17.016,52 L16,52 L16,49.3 C14.662,50.87 13.918,52 13.918,52 L13.918,52 L12.26,52 L38.002,7.96 Z"/>
  </g>
</svg>
