<?xml version="1.0" encoding="UTF-8"?>
<svg width="96px" height="96px" viewBox="0 0 96 96" version="1.1" xmlns="http://www.w3.org/2000/svg" xmlns:xlink="http://www.w3.org/1999/xlink">
    <!-- Generator: Sketch 62 (91390) - https://sketch.com -->
    <title>bossa_bossa</title>
    <desc>Created with Sketch.</desc>
    <defs>
        <filter x="-17.1%" y="-17.9%" width="134.3%" height="133.3%" filterUnits="objectBoundingBox" id="filter-1">
            <feOffset dx="0" dy="2" in="SourceAlpha" result="shadowOffsetOuter1"></feOffset>
            <feGaussianBlur stdDeviation="2" in="shadowOffsetOuter1" result="shadowBlurOuter1"></feGaussianBlur>
            <feComposite in="shadowBlurOuter1" in2="SourceAlpha" operator="out" result="shadowBlurOuter1"></feComposite>
            <feColorMatrix values="0 0 0 0 0   0 0 0 0 0   0 0 0 0 0  0 0 0 0.2 0" type="matrix" in="shadowBlurOuter1" result="shadowMatrixOuter1"></feColorMatrix>
            <feMerge>
                <feMergeNode in="shadowMatrixOuter1"></feMergeNode>
                <feMergeNode in="SourceGraphic"></feMergeNode>
            </feMerge>
        </filter>
        <linearGradient x1="17.9645936%" y1="50%" x2="80.4409465%" y2="50%" id="linearGradient-2">
            <stop stop-color="#EBE7E7" offset="0%"></stop>
            <stop stop-color="#9F9F9F" offset="100%"></stop>
        </linearGradient>
        <linearGradient x1="5.24756816%" y1="50%" x2="95.2757872%" y2="50%" id="linearGradient-3">
            <stop stop-color="#ADADAD" offset="0%"></stop>
            <stop stop-color="#333333" offset="100%"></stop>
        </linearGradient>
        <linearGradient x1="100%" y1="23.532115%" x2="0%" y2="89.956382%" id="linearGradient-4">
            <stop stop-color="#737373" offset="0%"></stop>
            <stop stop-color="#363636" offset="100%"></stop>
        </linearGradient>
        <linearGradient x1="0%" y1="23.6460357%" x2="88.3589454%" y2="78.2761728%" id="linearGradient-5">
            <stop stop-color="#FEFEFE" offset="0%"></stop>
            <stop stop-color="#666666" offset="100%"></stop>
        </linearGradient>
        <linearGradient x1="17.9645936%" y1="50%" x2="80.4409465%" y2="50%" id="linearGradient-6">
            <stop stop-color="#EBE7E7" offset="0%"></stop>
            <stop stop-color="#9F9F9F" offset="100%"></stop>
        </linearGradient>
        <linearGradient x1="50%" y1="0%" x2="50%" y2="100%" id="linearGradient-7">
            <stop stop-color="#47ABFF" offset="0%"></stop>
            <stop stop-color="#3647FB" offset="100%"></stop>
        </linearGradient>
        <path d="M34.5,0.9 C40.5,2.4 47.5,9.9 44,19.4 C56.5,24.9 56.5,42.9 47.5,48.9 C41.6034483,52.8310345 32.9704221,53.3817182 21.6009215,50.5520511 L21,50.4 L21,0.4 C26,-0.266666667 30.5,-0.1 34.5,0.9 Z M39,44.9 C37.8954305,44.9 37,45.7954305 37,46.9 C37,48.0045695 37.8954305,48.9 39,48.9 C40.1045695,48.9 41,48.0045695 41,46.9 C41,45.7954305 40.1045695,44.9 39,44.9 Z M39,23.9 C37.3870968,25.5129032 34.2133195,26.969719 29.4786681,28.2704475 L29,28.4 L29,45.9 C35,46.9 41.5,39.9 43,34.9 C44.5,29.9 41.5,21.4 39,23.9 Z M45.5,39.9 C44.1192881,39.9 43,41.0192881 43,42.4 C43,43.7807119 44.1192881,44.9 45.5,44.9 C46.8807119,44.9 48,43.7807119 48,42.4 C48,41.0192881 46.8807119,39.9 45.5,39.9 Z M39.1257958,28.9877853 C39.5726035,29.3124101 39.6716524,29.9377798 39.3470275,30.3845875 L31.7058192,40.9018084 C31.3811944,41.3486162 30.7558247,41.447665 30.309017,41.1230402 C29.8622092,40.7984153 29.7631604,40.1730457 30.0877853,39.7262379 L37.7289935,29.209017 C38.0536184,28.7622092 38.678988,28.6631604 39.1257958,28.9877853 Z M48,32.9 C46.8954305,32.9 46,33.7954305 46,34.9 C46,36.0045695 46.8954305,36.9 48,36.9 C49.1045695,36.9 50,36.0045695 50,34.9 C50,33.7954305 49.1045695,32.9 48,32.9 Z M29.2392985,5.04734659 L29,5.09565217 L29,24.0956522 L29.2568587,24.0738758 C33.7522862,23.6316032 36,20.1388621 36,13.5956522 C36,7.04392804 33.7464328,4.19449284 29.2392985,5.04734659 Z" id="path-8"></path>
        <filter x="-21.3%" y="-9.6%" width="142.6%" height="126.8%" filterUnits="objectBoundingBox" id="filter-9">
            <feOffset dx="0" dy="2" in="SourceAlpha" result="shadowOffsetOuter1"></feOffset>
            <feGaussianBlur stdDeviation="2" in="shadowOffsetOuter1" result="shadowBlurOuter1"></feGaussianBlur>
            <feColorMatrix values="0 0 0 0 0   0 0 0 0 0   0 0 0 0 0  0 0 0 0.5 0" type="matrix" in="shadowBlurOuter1"></feColorMatrix>
        </filter>
    </defs>
    <g id="bossa_bossa" stroke="none" stroke-width="1" fill="none" fill-rule="evenodd">
        <g id="编组-3" filter="url(#filter-1)" transform="translate(13.000000, 9.000000)">
            <g id="编组" transform="translate(2.000000, 20.000000)">
                <path d="M-0.5,27.7609753 L-0.5,20.7255271 L33,-0.592654764 L66.5,20.7255271 L66.5,28.7675919 L32.993741,51.1050979 L-0.5,27.7609753 Z" id="形状结合" stroke="#565656" fill="url(#linearGradient-2)"></path>
                <polygon id="路径-255" fill="url(#linearGradient-3)" points="0 21 33 43 66 21 33 0"></polygon>
                <polygon id="路径-256" fill="url(#linearGradient-4)" points="33 43 33 50.5 66 28.5 66 21"></polygon>
                <polygon id="路径-257" fill="url(#linearGradient-5)" points="33 50.5 33 43 0 21 0 27.5"></polygon>
            </g>
            <g id="编组-2" transform="translate(0.000000, 47.000000)" fill="url(#linearGradient-6)" stroke="#565656">
                <path d="M24.9203447,13.535302 L29.5,16.2830952 L29.5,17.5 L28,17.5 L28,27.7426911 L24.9955058,29.8887583 L19,25.7380235 L19,24 L21.5,24 L21.5,14.3903882 L24.9203447,13.535302 Z" id="路径-258"></path>
                <path d="M15.4203447,7.53530202 L20,10.2830952 L20,11.5 L18.5,11.5 L18.5,21.7426911 L15.4955058,23.8887583 L9.5,19.7380235 L9.5,18 L12,18 L12,8.3903882 L15.4203447,7.53530202 Z" id="路径-258备份"></path>
                <path d="M6.42034472,0.535302023 L11,3.28309519 L11,4.5 L9.5,4.5 L9.5,14.7426911 L6.49550582,16.8887583 L0.5,12.7380235 L0.5,11 L3,11 L3,1.3903882 L6.42034472,0.535302023 Z" id="路径-258备份-2"></path>
            </g>
            <g id="编组-2备份" transform="translate(55.000000, 62.500000) scale(-1, 1) translate(-55.000000, -62.500000) translate(40.000000, 47.000000)" fill="url(#linearGradient-6)" stroke="#565656">
                <path d="M24.9203447,13.535302 L29.5,16.2830952 L29.5,17.5 L28,17.5 L28,27.7426911 L24.9955058,29.8887583 L19,25.7380235 L19,24 L21.5,24 L21.5,14.3903882 L24.9203447,13.535302 Z" id="路径-258"></path>
                <path d="M15.4203447,7.53530202 L20,10.2830952 L20,11.5 L18.5,11.5 L18.5,21.7426911 L15.4955058,23.8887583 L9.5,19.7380235 L9.5,18 L12,18 L12,8.3903882 L15.4203447,7.53530202 Z" id="路径-258备份"></path>
                <path d="M6.42034472,0.535302023 L11,3.28309519 L11,4.5 L9.5,4.5 L9.5,14.7426911 L6.49550582,16.8887583 L0.5,12.7380235 L0.5,11 L3,11 L3,1.3903882 L6.42034472,0.535302023 Z" id="路径-258备份-2"></path>
            </g>
            <g id="形状结合">
                <use fill="black" fill-opacity="1" filter="url(#filter-9)" xlink:href="#path-8"></use>
                <use fill="url(#linearGradient-7)" fill-rule="evenodd" xlink:href="#path-8"></use>
            </g>
        </g>
    </g>
</svg>