<?xml version="1.0" encoding="UTF-8"?>
<svg width="96px" height="96px" viewBox="0 0 96 96" version="1.1" xmlns="http://www.w3.org/2000/svg" xmlns:xlink="http://www.w3.org/1999/xlink">
    <!-- Generator: Sketch 62 (91390) - https://sketch.com -->
    <title>caneda_caneda</title>
    <desc>Created with Sketch.</desc>
    <defs>
        <filter x="-20.7%" y="-16.9%" width="141.4%" height="133.8%" filterUnits="objectBoundingBox" id="filter-1">
            <feOffset dx="0" dy="2" in="SourceAlpha" result="shadowOffsetOuter1"></feOffset>
            <feGaussianBlur stdDeviation="2" in="shadowOffsetOuter1" result="shadowBlurOuter1"></feGaussianBlur>
            <feComposite in="shadowBlurOuter1" in2="SourceAlpha" operator="out" result="shadowBlurOuter1"></feComposite>
            <feColorMatrix values="0 0 0 0 0   0 0 0 0 0   0 0 0 0 0  0 0 0 0.2 0" type="matrix" in="shadowBlurOuter1" result="shadowMatrixOuter1"></feColorMatrix>
            <feMerge>
                <feMergeNode in="shadowMatrixOuter1"></feMergeNode>
                <feMergeNode in="SourceGraphic"></feMergeNode>
            </feMerge>
        </filter>
        <linearGradient x1="50%" y1="0%" x2="50%" y2="100%" id="linearGradient-2">
            <stop stop-color="#7C8076" offset="0%"></stop>
            <stop stop-color="#9A9C97" offset="100%"></stop>
        </linearGradient>
        <linearGradient x1="50%" y1="0%" x2="50%" y2="97.553315%" id="linearGradient-3">
            <stop stop-color="#686C6C" offset="0%"></stop>
            <stop stop-color="#333A3A" offset="100%"></stop>
        </linearGradient>
        <linearGradient x1="50%" y1="0%" x2="50%" y2="100%" id="linearGradient-4">
            <stop stop-color="#8E99A5" offset="0%"></stop>
            <stop stop-color="#C7D1D8" offset="33.6822433%"></stop>
            <stop stop-color="#939EA6" offset="55.1391967%"></stop>
            <stop stop-color="#EAF0F5" offset="100%"></stop>
        </linearGradient>
        <linearGradient x1="50%" y1="0%" x2="50%" y2="100%" id="linearGradient-5">
            <stop stop-color="#8E99A5" offset="0%"></stop>
            <stop stop-color="#C7D1D8" offset="33.6822433%"></stop>
            <stop stop-color="#939EA6" offset="55.1391967%"></stop>
            <stop stop-color="#EAF0F5" offset="100%"></stop>
        </linearGradient>
        <linearGradient x1="0%" y1="4.55516107%" x2="100%" y2="4.55516107%" id="linearGradient-6">
            <stop stop-color="#8E99A5" offset="0%"></stop>
            <stop stop-color="#C7D1D8" offset="33.6822433%"></stop>
            <stop stop-color="#939EA6" offset="55.1391967%"></stop>
            <stop stop-color="#EAF0F5" offset="100%"></stop>
        </linearGradient>
        <linearGradient x1="50%" y1="0%" x2="50%" y2="100%" id="linearGradient-7">
            <stop stop-color="#E5E6E5" offset="0%"></stop>
            <stop stop-color="#C7C8C6" stop-opacity="0.446732955" offset="100%"></stop>
        </linearGradient>
    </defs>
    <g id="caneda_caneda" stroke="none" stroke-width="1" fill="none" fill-rule="evenodd">
        <g id="编组" filter="url(#filter-1)" transform="translate(19.000000, 12.000000)">
            <path d="M9.41421356,4 L52.1801961,4 C52.6568771,4 53.0672919,4.33645967 53.1607768,4.80388386 L54,9 L54,9 L4,9 L8.70710678,4.29289322 C8.89464316,4.10535684 9.14899707,4 9.41421356,4 Z" id="矩形备份" fill="url(#linearGradient-2)"></path>
            <path d="M4,9 L54,9 L54,66 C54,66.5522847 53.5522847,67 53,67 L5,67 C4.44771525,67 4,66.5522847 4,66 L4,9 L4,9 Z" id="矩形" fill="url(#linearGradient-3)"></path>
            <path d="M48.5714286,0 L48.5714286,2 L50,2 L50,4 L45,4 L45,2 L46.4285714,2 L46.4285714,0 L48.5714286,0 Z M41.5714286,0 L41.5714286,2 L43,2 L43,4 L38,4 L38,2 L39.4285714,2 L39.4285714,0 L41.5714286,0 Z M34.5714286,0 L34.5714286,2 L36,2 L36,4 L31,4 L31,2 L32.4285714,2 L32.4285714,0 L34.5714286,0 Z M27.5714286,0 L27.5714286,2 L29,2 L29,4 L24,4 L24,2 L25.4285714,2 L25.4285714,0 L27.5714286,0 Z M20.5714286,0 L20.5714286,2 L22,2 L22,4 L17,4 L17,2 L18.4285714,2 L18.4285714,0 L20.5714286,0 Z M13.5714286,0 L13.5714286,2 L15,2 L15,4 L10,4 L10,2 L11.4285714,2 L11.4285714,0 L13.5714286,0 Z" id="形状结合" fill="url(#linearGradient-4)"></path>
            <path d="M51.5714286,67 L51.5714286,69 L53,69 L53,71 L48,71 L48,69 L49.4285714,69 L49.4285714,67 L51.5714286,67 Z M44.5714286,67 L44.5714286,69 L46,69 L46,71 L41,71 L41,69 L42.4285714,69 L42.4285714,67 L44.5714286,67 Z M37.5714286,67 L37.5714286,69 L39,69 L39,71 L34,71 L34,69 L35.4285714,69 L35.4285714,67 L37.5714286,67 Z M30.5714286,67 L30.5714286,69 L32,69 L32,71 L27,71 L27,69 L28.4285714,69 L28.4285714,67 L30.5714286,67 Z M23.5714286,67 L23.5714286,69 L25,69 L25,71 L20,71 L20,69 L21.4285714,69 L21.4285714,67 L23.5714286,67 Z M16.5714286,67 L16.5714286,69 L18,69 L18,71 L13,71 L13,69 L14.4285714,69 L14.4285714,67 L16.5714286,67 Z M9.57142857,67 L9.57142857,69 L11,69 L11,71 L6,71 L6,69 L7.42857143,69 L7.42857143,67 L9.57142857,67 Z" id="形状结合备份" fill="url(#linearGradient-5)" transform="translate(29.500000, 69.000000) scale(1, -1) translate(-29.500000, -69.000000) "></path>
            <path d="M4,60 L4,65 L2,65 L2,63.5714286 L-3.35767651e-18,63.5714286 L-1.34569834e-16,61.4285714 L2,61.4285714 L2,60 L4,60 Z M4,53 L4,58 L2,58 L2,56.5714286 L-3.35767651e-18,56.5714286 L-1.34569834e-16,54.4285714 L2,54.4285714 L2,53 L4,53 Z M4,46 L4,51 L2,51 L2,49.5714286 L-3.35767651e-18,49.5714286 L-1.34569834e-16,47.4285714 L2,47.4285714 L2,46 L4,46 Z M4,39 L4,44 L2,44 L2,42.5714286 L-3.35767651e-18,42.5714286 L-1.34569834e-16,40.4285714 L2,40.4285714 L2,39 L4,39 Z M4,32 L4,37 L2,37 L2,35.5714286 L-3.35767651e-18,35.5714286 L-1.34569834e-16,33.4285714 L2,33.4285714 L2,32 L4,32 Z M4,25 L4,30 L2,30 L2,28.5714286 L-3.35767651e-18,28.5714286 L-1.34569834e-16,26.4285714 L2,26.4285714 L2,25 L4,25 Z M4,18 L4,23 L2,23 L2,21.5714286 L-3.35767651e-18,21.5714286 L-1.34569834e-16,19.4285714 L2,19.4285714 L2,18 L4,18 Z M4,11 L4,16 L2,16 L2,14.5714286 L-3.35767651e-18,14.5714286 L-1.34569834e-16,12.4285714 L2,12.4285714 L2,11 L4,11 Z" id="形状结合" fill="url(#linearGradient-6)"></path>
            <path d="M58,60 L58,65 L56,65 L56,63.5714286 L54,63.5714286 L54,61.4285714 L56,61.4285714 L56,60 L58,60 Z M58,53 L58,58 L56,58 L56,56.5714286 L54,56.5714286 L54,54.4285714 L56,54.4285714 L56,53 L58,53 Z M58,46 L58,51 L56,51 L56,49.5714286 L54,49.5714286 L54,47.4285714 L56,47.4285714 L56,46 L58,46 Z M58,39 L58,44 L56,44 L56,42.5714286 L54,42.5714286 L54,40.4285714 L56,40.4285714 L56,39 L58,39 Z M58,32 L58,37 L56,37 L56,35.5714286 L54,35.5714286 L54,33.4285714 L56,33.4285714 L56,32 L58,32 Z M58,25 L58,30 L56,30 L56,28.5714286 L54,28.5714286 L54,26.4285714 L56,26.4285714 L56,25 L58,25 Z M58,18 L58,23 L56,23 L56,21.5714286 L54,21.5714286 L54,19.4285714 L56,19.4285714 L56,18 L58,18 Z M58,11 L58,16 L56,16 L56,14.5714286 L54,14.5714286 L54,12.4285714 L56,12.4285714 L56,11 L58,11 Z" id="形状结合备份-10" fill="url(#linearGradient-6)" transform="translate(56.000000, 38.000000) scale(-1, 1) translate(-56.000000, -38.000000) "></path>
            <path d="M33.7917143,52.5 L33.7917143,52.998 L32.2917143,54 L32.7957143,54 L32.9160816,54.0067347 C33.1506939,54.0336735 33.3485714,54.1414286 33.5097143,54.33 C33.6977143,54.55 33.7917143,54.774 33.7917143,55.002 L33.7917143,55.002 L33.7917143,55.998 L33.7835476,56.1326667 C33.7563254,56.3515556 33.6610476,56.5426667 33.4977143,56.706 C33.3017143,56.902 33.0677143,57 32.7957143,57 L32.7957143,57 L31.7937143,57 L31.6625309,56.994071 C31.1558326,56.9466391 30.8655604,56.6146154 30.7917143,55.998 L30.7917143,55.998 L31.2957143,55.998 L31.3089735,56.1037778 C31.3583563,56.3692593 31.5199365,56.502 31.7937143,56.502 L31.7937143,56.502 L32.2917143,56.502 L32.3927768,56.4928125 C32.4899018,56.4744375 32.5752143,56.4285 32.6487143,56.355 C32.7467143,56.257 32.7957143,56.138 32.7957143,55.998 L32.7957143,55.998 L32.7957143,55.002 L32.7878393,54.9375 C32.7720893,54.8685 32.7327143,54.786 32.6697143,54.69 C32.5857143,54.562 32.4597143,54.498 32.2917143,54.498 L32.2917143,54.498 L31.2957143,54.498 L31.2957143,54 L32.7957143,52.998 L30.7917143,52.998 L30.7917143,52.5 L33.7917143,52.5 Z M29.2222857,52.5 L29.355119,52.50825 C29.5712302,52.53575 29.7609524,52.632 29.9242857,52.797 C30.1202857,52.995 30.2182857,53.23 30.2182857,53.502 L30.2182857,53.502 L30.2182857,53.748 L30.2115774,53.837125 C30.1623829,54.1717083 29.842619,54.592 29.2522857,55.098 L29.2522857,55.098 L29.1862857,55.152 L29.031994,55.2875417 C28.4908552,55.7755139 28.2202857,56.1643333 28.2202857,56.454 L28.2202857,56.454 L28.2202857,56.502 L30.2182857,56.502 L30.2182857,57 L27.2182857,57 L27.2182857,56.502 L27.2250357,56.412875 C27.2745357,56.0782917 27.5962857,55.658 28.1902857,55.152 L28.1902857,55.152 L28.2562857,55.098 L28.4105774,54.962125 C28.9517163,54.4717083 29.2222857,54.067 29.2222857,53.748 L29.2222857,53.748 L29.2222857,53.502 L29.2162857,53.42052 C29.2002857,53.31524 29.1522857,53.2234 29.0722857,53.145 C28.9722857,53.047 28.8542857,52.998 28.7182857,52.998 L28.7182857,52.998 L28.2202857,52.998 L28.1228783,53.0042222 C27.8771499,53.0374074 27.743619,53.2033333 27.7222857,53.502 L27.7222857,53.502 L27.2182857,53.502 L27.2412561,53.3537751 C27.3511733,52.7845917 27.6775165,52.5 28.2202857,52.5 L28.2202857,52.5 L29.2222857,52.5 Z M25.6488571,52.5 L25.7816905,52.50825 C25.9978016,52.53575 26.1875238,52.632 26.3508571,52.797 C26.5468571,52.995 26.6448571,53.23 26.6448571,53.502 L26.6448571,53.502 L26.6448571,55.998 L26.6366905,56.1309167 C26.6094683,56.3473056 26.5141905,56.538 26.3508571,56.703 C26.1548571,56.901 25.9208571,57 25.6488571,57 L25.6488571,57 L23.6448571,57 L23.6448571,52.5 L25.6488571,52.5 Z M22.5734286,52.5 L22.5734286,55.002 L23.0714286,55.002 L23.0714286,55.5 L22.5734286,55.5 L22.5734286,57 L21.5714286,57 L21.5714286,55.5 L19.5734286,55.5 L19.5734286,55.002 L21.5714286,52.5 L22.5734286,52.5 Z M18.502,52.5 L18.6348333,52.50825 C18.8509444,52.53575 19.0406667,52.632 19.204,52.797 C19.4,52.995 19.498,53.23 19.498,53.502 L19.498,53.502 L19.498,55.998 L19.4898333,56.1309167 C19.4626111,56.3473056 19.3673333,56.538 19.204,56.703 C19.008,56.901 18.774,57 18.502,57 L18.502,57 L17.5,57 L17.3670833,56.9918333 C17.1506944,56.9646111 16.96,56.8693333 16.795,56.706 C16.597,56.51 16.498,56.274 16.498,55.998 L16.498,55.998 L16.498,53.502 L16.50625,53.3673333 C16.53375,53.1484444 16.63,52.9573333 16.795,52.794 C16.993,52.598 17.228,52.5 17.5,52.5 L17.5,52.5 L18.502,52.5 Z M25.1448571,52.998 L24.6468571,52.998 L24.6468571,56.502 L25.1448571,56.502 C25.2848571,56.502 25.4038571,56.452 25.5018571,56.352 C25.5998571,56.252 25.6488571,56.134 25.6488571,55.998 L25.6488571,55.998 L25.6488571,53.502 L25.6396696,53.4009375 C25.6212946,53.3038125 25.5753571,53.2185 25.5018571,53.145 C25.4038571,53.047 25.2848571,52.998 25.1448571,52.998 L25.1448571,52.998 Z M18.502,54.3 L17.512,56.082 L17.5354375,56.178 C17.5643125,56.268 17.6095,56.34 17.671,56.394 C17.753,56.466 17.862,56.502 17.998,56.502 C18.138,56.502 18.257,56.452 18.355,56.352 C18.453,56.252 18.502,56.134 18.502,55.998 L18.502,55.998 L18.502,54.3 Z M17.998,52.998 C17.862,52.998 17.745,53.047 17.647,53.145 C17.549,53.243 17.5,53.362 17.5,53.502 L17.5,53.502 L17.5,55.2 L18.496,53.412 L18.4645938,53.3149687 C18.3810313,53.1036562 18.2255,52.998 17.998,52.998 Z M21.5714286,53.124 L20.0714286,55.002 L21.5714286,55.002 L21.5714286,53.124 Z M15.854,45.75 L18.346,48.235 L20.831,45.75 L21.419,45.75 L21.419,51 L20.25,51 L20.25,47.794 L18.206,49.838 L16.169,47.794 L16.169,51 L15.581,51 L15.581,45.75 L15.854,45.75 Z M23.25,45.75 L23.25,48.081 L24.419,48.081 L24.419,45.75 L25.581,45.75 L25.581,51 L24.419,51 L24.419,48.669 L23.25,48.669 L23.25,51 L22.081,51 L22.081,45.75 L23.25,45.75 Z M27.419,45.75 L27.419,49.831 L27.42586,49.92368 C27.4441533,50.0438933 27.4990333,50.1506667 27.5905,50.244 C27.7048333,50.3606667 27.8413333,50.419 28,50.419 C28.1633333,50.419 28.3021667,50.3606667 28.4165,50.244 C28.5308333,50.1273333 28.588,49.9896667 28.588,49.831 L28.588,49.831 L28.588,45.75 L29.75,45.75 L29.75,49.831 L29.743,49.9643571 C29.715,50.2257857 29.603,50.4555 29.407,50.6535 C29.1783333,50.8845 28.9053333,51 28.588,51 L28.588,51 L27.419,51 L27.2856429,50.993 C27.0242143,50.965 26.7945,50.853 26.5965,50.657 C26.3655,50.4283333 26.25,50.153 26.25,49.831 L26.25,49.831 L26.25,45.75 L27.419,45.75 Z M32.757,45.75 L32.8989289,45.7551956 C33.5397763,45.8036874 33.8798,46.1916222 33.919,46.919 L33.919,46.919 L33.338,46.919 L33.317,46.7955926 C33.2464815,46.4858642 33.0598148,46.331 32.757,46.331 L32.757,46.331 L32.169,46.331 L32.07646,46.33786 C31.95662,46.3561533 31.8509667,46.4110333 31.7595,46.5025 C31.6451667,46.6168333 31.588,46.7556667 31.588,46.919 L31.588,46.919 L31.588,49.831 L31.59486,49.92368 C31.6131533,50.0438933 31.6680333,50.1506667 31.7595,50.244 C31.8738333,50.3606667 32.0103333,50.419 32.169,50.419 L32.169,50.419 L32.757,50.419 L32.8664938,50.4117407 C33.1434979,50.3730247 33.3006667,50.1794444 33.338,49.831 L33.338,49.831 L33.919,49.831 L33.9051244,49.9816711 C33.8191748,50.660557 33.4364667,51 32.757,51 L32.757,51 L31.588,51 L31.4546429,50.993 C31.1932143,50.965 30.9635,50.853 30.7655,50.657 C30.5345,50.4283333 30.419,50.153 30.419,49.831 L30.419,49.831 L30.419,46.919 L30.4259286,46.7856429 C30.4536429,46.5242143 30.5645,46.2945 30.7585,46.0965 C30.9848333,45.8655 31.2613333,45.75 31.588,45.75 L31.588,45.75 L32.757,45.75 Z M37.507,45.75 L37.507,46.331 L36.338,46.331 L36.338,51 L35.176,51 L35.176,46.331 L34.007,46.331 L34.007,45.75 L37.507,45.75 Z M29.2162857,39.5 L29.2162857,42.998 L29.2112041,43.1367959 C29.1908776,43.4039796 29.1095714,43.6087143 28.9672857,43.751 C28.8012857,43.917 28.5502857,44 28.2142857,44 L28.2142857,44 L27.2182857,44 L27.0794898,43.9949184 C26.8123061,43.9745918 26.6075714,43.8932857 26.4652857,43.751 C26.2992857,43.585 26.2162857,43.334 26.2162857,42.998 L26.2162857,42.998 L26.2162857,42.002 L27.2182857,42.002 L27.2182857,42.998 L27.2274732,43.0990625 C27.2458482,43.1961875 27.2917857,43.2815 27.3652857,43.355 C27.4632857,43.453 27.5802857,43.502 27.7162857,43.502 C27.8522857,43.502 27.9692857,43.453 28.0672857,43.355 C28.1652857,43.257 28.2142857,43.138 28.2142857,42.998 L28.2142857,42.998 L28.2142857,39.5 L29.2162857,39.5 Z M25.1448571,39.5 L25.2776905,39.50825 C25.4938016,39.53575 25.6835238,39.632 25.8468571,39.797 C26.0428571,39.995 26.1408571,40.23 26.1408571,40.502 L26.1408571,40.502 L26.1408571,42.998 L26.1326905,43.1309167 C26.1054683,43.3473056 26.0101905,43.538 25.8468571,43.703 C25.6508571,43.901 25.4168571,44 25.1448571,44 L25.1448571,44 L24.1428571,44 L24.0099405,43.9918333 C23.7935516,43.9646111 23.6028571,43.8693333 23.4378571,43.706 C23.2398571,43.51 23.1408571,43.274 23.1408571,42.998 L23.1408571,42.998 L23.1408571,40.502 L23.1491071,40.3673333 C23.1766071,40.1484444 23.2728571,39.9573333 23.4378571,39.794 C23.6358571,39.598 23.8708571,39.5 24.1428571,39.5 L24.1428571,39.5 L25.1448571,39.5 Z M21.5714286,39.5 L21.7042619,39.50825 C21.920373,39.53575 22.1100952,39.632 22.2734286,39.797 C22.4694286,39.995 22.5674286,40.23 22.5674286,40.502 L22.5674286,40.502 L22.5674286,40.748 L22.5605119,40.8905833 C22.5374563,41.1191944 22.4567619,41.3026667 22.3184286,41.441 C22.1524286,41.607 21.9034286,41.71 21.5714286,41.75 C21.9034286,41.75 22.1524286,41.858 22.3184286,42.074 C22.4844286,42.29 22.5674286,42.516 22.5674286,42.752 L22.5674286,42.752 L22.5674286,42.998 L22.5594286,43.1099167 C22.5327619,43.2963056 22.4394286,43.482 22.2794286,43.667 C22.0874286,43.889 21.8514286,44 21.5714286,44 L21.5714286,44 L20.5694286,44 L20.4520612,43.9932041 C20.2225918,43.9660204 20.0247143,43.8572857 19.8584286,43.667 C19.6644286,43.445 19.5674286,43.222 19.5674286,42.998 L19.5674286,42.998 L19.5674286,42.752 L19.5775086,42.6116 C19.6043886,42.426 19.6850286,42.2468 19.8194286,42.074 C19.9874286,41.858 20.2374286,41.75 20.5694286,41.75 C20.2374286,41.71 19.9874286,41.607 19.8194286,41.441 C19.6514286,41.275 19.5674286,41.044 19.5674286,40.748 L19.5674286,40.748 L19.5674286,40.502 L19.5756786,40.3690833 C19.6031786,40.1526944 19.6994286,39.962 19.8644286,39.797 C20.0624286,39.599 20.2974286,39.5 20.5694286,39.5 L20.5694286,39.5 L21.5714286,39.5 Z M30.0177143,39.5 L32.1537143,41.63 L34.2837143,39.5 L34.7877143,39.5 L34.7877143,44 L33.7857143,44 L33.7857143,41.252 L32.0337143,43.004 L30.2877143,41.252 L30.2877143,44 L29.7837143,44 L29.7837143,39.5 L30.0177143,39.5 Z M25.1448571,41.3 L24.1548571,43.082 L24.1782946,43.178 C24.2071696,43.268 24.2523571,43.34 24.3138571,43.394 C24.3958571,43.466 24.5048571,43.502 24.6408571,43.502 C24.7808571,43.502 24.8998571,43.452 24.9978571,43.352 C25.0958571,43.252 25.1448571,43.134 25.1448571,42.998 L25.1448571,42.998 L25.1448571,41.3 Z M21.0674286,42.002 C20.7354286,42.002 20.5694286,42.168 20.5694286,42.5 L20.5694286,42.5 L20.5694286,42.998 L20.5786161,43.0990625 C20.5969911,43.1961875 20.6429286,43.2815 20.7164286,43.355 C20.8144286,43.453 20.9314286,43.502 21.0674286,43.502 C21.2074286,43.502 21.3264286,43.453 21.4244286,43.355 C21.5224286,43.257 21.5714286,43.138 21.5714286,42.998 L21.5714286,42.998 L21.5714286,42.5 L21.5652063,42.3954815 C21.5320212,42.1331605 21.3660952,42.002 21.0674286,42.002 Z M19,42.002 L19,42.5 L16.498,42.5 L16.498,42.002 L19,42.002 Z M24.6408571,39.998 C24.5048571,39.998 24.3878571,40.047 24.2898571,40.145 C24.1918571,40.243 24.1428571,40.362 24.1428571,40.502 L24.1428571,40.502 L24.1428571,42.2 L25.1388571,40.412 L25.1074509,40.3149687 C25.0238884,40.1036562 24.8683571,39.998 24.6408571,39.998 Z M21.0674286,39.998 C20.9314286,39.998 20.8144286,40.047 20.7164286,40.145 C20.6184286,40.243 20.5694286,40.362 20.5694286,40.502 L20.5694286,40.502 L20.5694286,41 L20.5786161,41.0984375 C20.5969911,41.1933125 20.6429286,41.2775 20.7164286,41.351 C20.8144286,41.449 20.9314286,41.498 21.0674286,41.498 C21.2074286,41.498 21.3264286,41.449 21.4244286,41.351 C21.5224286,41.253 21.5714286,41.136 21.5714286,41 L21.5714286,41 L21.5714286,40.502 L21.5622411,40.4009375 C21.5438661,40.3038125 21.4979286,40.2185 21.4244286,40.145 C21.3264286,40.047 21.2074286,39.998 21.0674286,39.998 Z M44.176,32.75 L44.3092857,32.7570714 C44.5704286,32.7853571 44.799,32.8985 44.995,33.0965 C45.2236667,33.3275 45.338,33.6016667 45.338,33.919 L45.338,33.919 L45.338,34.206 L45.3313314,34.3018047 C45.2779822,34.6934734 44.9045385,35.1865385 44.211,35.781 L44.211,35.781 L44.134,35.844 L43.967284,35.9901716 C43.3270947,36.5650828 43.007,37.0226923 43.007,37.363 L43.007,37.363 L43.007,37.419 L45.338,37.419 L45.338,38 L41.838,38 L41.838,37.419 L41.8447101,37.3231953 C41.8983905,36.9315266 42.2741538,36.4384615 42.972,35.844 L42.972,35.844 L43.049,35.781 L43.215716,35.634497 C43.8559053,35.0569349 44.176,34.5807692 44.176,34.206 L44.176,34.206 L44.176,33.919 L44.169,33.82394 C44.1503333,33.7011133 44.0943333,33.5939667 44.001,33.5025 C43.8843333,33.3881667 43.7466667,33.331 43.588,33.331 L43.588,33.331 L43.007,33.331 L42.90417,33.33688 C42.61059,33.37216 42.4512,33.5662 42.426,33.919 L42.426,33.919 L41.838,33.919 L41.8606178,33.7683289 C41.9846059,33.089443 42.3667333,32.75 43.007,32.75 L43.007,32.75 L44.176,32.75 Z M40.007,32.75 L40.007,38 L38.838,38 L38.838,33.919 L38.257,33.919 L38.257,33.331 L39.419,32.75 L40.007,32.75 Z M37,32.75 L37,33.331 L34.669,33.331 L34.669,34.5 L35.838,34.5 L35.9712857,34.507 C36.2324286,34.535 36.461,34.647 36.657,34.843 C36.8856667,35.0716667 37,35.347 37,35.669 L37,35.669 L37,36.831 L36.993,36.9661429 C36.965,37.2307143 36.853,37.461 36.657,37.657 C36.4283333,37.8856667 36.1553333,38 35.838,38 L35.838,38 L34.669,38 L34.5357511,37.9948044 C33.9323615,37.9463126 33.5871111,37.5583778 33.5,36.831 L33.5,36.831 L34.088,36.831 L34.10137,36.94272 C34.15639,37.26024 34.3456,37.419 34.669,37.419 L34.669,37.419 L35.25,37.419 L35.34506,37.41214 C35.4678867,37.3938467 35.5750333,37.3389667 35.6665,37.2475 C35.7808333,37.1331667 35.838,36.9943333 35.838,36.831 L35.838,36.831 L35.838,35.669 L35.83114,35.57394 C35.8128467,35.4511133 35.7579667,35.3439667 35.6665,35.2525 C35.5521667,35.1381667 35.4133333,35.081 35.25,35.081 L35.25,35.081 L33.5,35.081 L33.5,32.75 L37,32.75 Z M32.838,32.75 L32.838,33.331 L31.088,33.331 L31.088,35.081 L32.257,35.081 L32.257,35.669 L31.088,35.669 L31.088,38 L29.919,38 L29.919,32.75 L32.838,32.75 Z M28.088,32.75 L28.2212857,32.7570714 C28.4824286,32.7853571 28.711,32.8985 28.907,33.0965 C29.1356667,33.3275 29.25,33.6016667 29.25,33.919 L29.25,33.919 L29.25,35.956 L29.2426111,36.1397284 C29.2032037,36.6218354 29.0061667,37.0412593 28.6515,37.398 C28.2525,37.7993333 27.773,38 27.213,38 L27.213,38 L26.338,38 L26.338,37.419 L26.919,37.419 L27.0541429,37.4119286 C27.3187143,37.3836429 27.549,37.2705 27.745,37.0725 C27.9736667,36.8415 28.088,36.5673333 28.088,36.25 L28.088,36.25 L28.088,35.669 L28.0669136,35.7909383 C27.9959342,36.0969794 27.806963,36.25 27.5,36.25 L27.5,36.25 L26.919,36.25 L26.7856429,36.243 C26.5242143,36.215 26.2945,36.103 26.0965,35.907 C25.8655,35.6783333 25.75,35.403 25.75,35.081 L25.75,35.081 L25.75,33.919 L25.7570714,33.7856429 C25.7853571,33.5242143 25.8985,33.2945 26.0965,33.0965 C26.3275,32.8655 26.6016667,32.75 26.919,32.75 L26.919,32.75 L28.088,32.75 Z M23.919,32.75 L24.0522857,32.7570714 C24.3134286,32.7853571 24.542,32.8985 24.738,33.0965 C24.9666667,33.3275 25.081,33.6016667 25.081,33.919 L25.081,33.919 L25.081,34.206 L25.0743314,34.3018047 C25.0209822,34.6934734 24.6475385,35.1865385 23.954,35.781 L23.954,35.781 L23.877,35.844 L23.710284,35.9901716 C23.0700947,36.5650828 22.75,37.0226923 22.75,37.363 L22.75,37.363 L22.75,37.419 L25.081,37.419 L25.081,38 L21.581,38 L21.581,37.419 L21.5877101,37.3231953 C21.6413905,36.9315266 22.0171538,36.4384615 22.715,35.844 L22.715,35.844 L22.792,35.781 L22.958716,35.634497 C23.5989053,35.0569349 23.919,34.5807692 23.919,34.206 L23.919,34.206 L23.919,33.919 L23.912,33.82394 C23.8933333,33.7011133 23.8373333,33.5939667 23.744,33.5025 C23.6273333,33.3881667 23.4896667,33.331 23.331,33.331 L23.331,33.331 L22.75,33.331 L22.64717,33.33688 C22.35359,33.37216 22.1942,33.5662 22.169,33.919 L22.169,33.919 L21.581,33.919 L21.6036178,33.7683289 C21.7276059,33.089443 22.1097333,32.75 22.75,32.75 L22.75,32.75 L23.919,32.75 Z M17.331,32.75 L17.331,38 L16.169,38 L16.169,32.75 L17.331,32.75 Z M21.5,32.75 L21.5,33.331 L20.331,33.331 L20.331,38 L19.169,38 L19.169,33.331 L18,33.331 L18,32.75 L21.5,32.75 Z M27.5,33.331 C27.3413333,33.331 27.2048333,33.3893333 27.0905,33.506 C26.9761667,33.6226667 26.919,33.7603333 26.919,33.919 L26.919,33.919 L26.919,35.081 L26.92586,35.17368 C26.9441533,35.2938933 26.9990333,35.4006667 27.0905,35.494 C27.2048333,35.6106667 27.3413333,35.669 27.5,35.669 C27.6633333,35.669 27.8021667,35.6106667 27.9165,35.494 C28.0308333,35.3773333 28.088,35.2396667 28.088,35.081 L28.088,35.081 L28.088,33.919 L28.08114,33.82394 C28.0628467,33.7011133 28.0079667,33.5939667 27.9165,33.5025 C27.8021667,33.3881667 27.6633333,33.331 27.5,33.331 Z M32.6035485,22.2257815 L32.7072625,22.2347527 C32.8535462,22.2551544 32.9826194,22.31479 33.0944819,22.4136596 C33.2063445,22.5125292 33.2768547,22.6565178 33.3060125,22.8456254 C33.387358,23.5878826 33.5651222,24.2418144 33.8393052,24.8074208 C34.1134882,25.3730272 34.4665953,25.9080066 34.8986264,26.4123591 C35.2708594,25.8906458 35.6055578,25.3706368 35.9027215,24.852332 C36.1404525,24.4376881 36.3682836,23.987616 36.5862149,23.5021156 L36.7478072,23.1313475 L36.7615213,23.1332602 L36.8390919,23.0409844 C37.0009864,22.8732353 37.2034014,22.8063014 37.446337,22.8401824 C37.6291916,22.865685 37.7733379,22.9505529 37.8787758,23.0947867 C37.9842137,23.2390206 38.0208711,23.4245481 37.9887486,23.6513694 C37.7627987,24.1934842 37.5035279,24.7240129 37.2109355,25.2429553 C36.9183431,25.7618977 36.6041789,26.2685794 36.2684427,26.7630006 C35.9327065,27.2574217 35.5842199,27.7431256 35.2229829,28.2201122 C34.861746,28.6970987 34.4988657,29.1692301 34.1343423,29.6365062 C33.9520806,29.8701443 33.772747,30.0995648 33.5963416,30.3247675 C33.4199362,30.5499703 33.2399602,30.7839272 33.0564135,31.0266381 C32.9378545,31.1396318 32.8175781,31.2153778 32.6955843,31.2538761 C32.5735906,31.2923744 32.4623087,31.3046104 32.3617385,31.2905848 C32.1880266,31.2663573 32.04881,31.1960549 31.9440887,31.0796772 C31.8603116,30.986575 31.8195024,30.8639375 31.8216611,30.7117648 L31.8313367,30.5920973 L31.8438647,30.503637 L31.85428,30.4547816 L31.8720342,30.4034801 C32.0685784,30.1348258 32.2713371,29.8716642 32.4803105,29.6139953 L32.7886277,29.2267748 L32.7886277,29.2267748 L33.0866593,28.8381197 L34.1333051,27.4713811 L33.897696,27.2156048 C33.6699215,26.9600539 33.465651,26.7051788 33.2848844,26.4509795 C33.0438622,26.1120472 32.8348026,25.7613816 32.6577054,25.3989825 C32.4806083,25.0365834 32.3347942,24.6507911 32.220263,24.2416055 C32.1057318,23.83242 32.0165903,23.3920803 31.9528384,22.9205863 C32.0138725,22.489626 32.19868,22.2590415 32.507261,22.2288328 L32.6035485,22.2257815 Z M23.3585237,21 C24.0052724,21 24.6145284,21.1578947 25.1862917,21.4736842 C25.7580551,21.7894737 26.2126538,22.2399381 26.5500879,22.8250774 C26.7094318,23.122291 26.8242531,23.4380805 26.8945518,23.7724458 C26.9648506,24.1068111 27,24.4365325 27,24.7616099 C27,24.9752322 26.9906268,25.1888545 26.9718805,25.4024768 C26.9531342,25.6160991 26.9250146,25.8297214 26.887522,26.0433437 C26.8031634,26.3684211 26.6836555,26.7097523 26.5289982,27.0673375 C26.3743409,27.4249226 26.1892209,27.7685759 25.973638,28.0982972 C25.7580551,28.4280186 25.5096661,28.7275542 25.228471,28.996904 C24.9472759,29.2662539 24.6379613,29.4705882 24.3005272,29.6099071 C24.009959,29.7213622 23.7264206,29.8142415 23.4499121,29.8885449 C23.1734036,29.9628483 22.8898653,30 22.599297,30 C22.3555946,30 22.1095489,29.9628483 21.8611599,29.8885449 C21.6127709,29.8142415 21.3620387,29.7352941 21.1089631,29.6517028 C20.71529,29.5123839 20.3848858,29.3103715 20.1177504,29.0456656 C19.8506151,28.7809598 19.6350322,28.4837461 19.4710018,28.1540248 C19.3069713,27.8243034 19.1874634,27.4736842 19.112478,27.1021672 C19.0374927,26.7306502 19,26.3591331 19,25.9876161 C19,25.8575851 19.0046866,25.7229102 19.0140598,25.5835913 C19.0234329,25.4442724 19.0374927,25.3095975 19.056239,25.1795666 C19.1031049,24.8916409 19.1898067,24.5781734 19.3163445,24.2391641 C19.4428822,23.9001548 19.5975395,23.5681115 19.7803163,23.2430341 C19.9630931,22.9179567 20.1693029,22.6160991 20.3989455,22.3374613 C20.6285882,22.0588235 20.8699473,21.8312693 21.1230228,21.6547988 C21.4510838,21.4411765 21.8049209,21.2786378 22.1845343,21.1671827 C22.5641476,21.0557276 22.9554774,21 23.3585237,21 Z M30.5660377,25 C30.6855346,25 30.7877358,25.0416667 30.8726415,25.125 C30.9575472,25.2083333 31,25.3090278 31,25.4270833 C31,25.5590278 30.9654088,25.6666667 30.8962264,25.75 C30.6698113,25.9930556 30.4433962,26.2430556 30.2169811,26.5 C29.990566,26.7569444 29.7735849,27.0173611 29.5660377,27.28125 C29.8301887,27.6145833 30.0754717,27.9513889 30.3018868,28.2916667 C30.5283019,28.6319444 30.745283,28.9895833 30.9528302,29.3645833 C31.0031447,29.5520833 30.9842767,29.7048611 30.8962264,29.8229167 C30.8081761,29.9409722 30.6949686,30 30.5566038,30 C30.4874214,30 30.4150943,29.9826389 30.3396226,29.9479167 C30.2641509,29.9131944 30.1949686,29.8576389 30.1320755,29.78125 C29.7798742,29.1631944 29.3962264,28.5833333 28.9811321,28.0416667 C28.7987421,28.2916667 28.6179245,28.5555556 28.4386792,28.8333333 C28.259434,29.1111111 28.0786164,29.4027778 27.8962264,29.7083333 C27.7767296,29.8611111 27.6383648,29.9375 27.4811321,29.9375 C27.3553459,29.9375 27.2484277,29.8940972 27.1603774,29.8072917 C27.072327,29.7204861 27.0283019,29.6145833 27.0283019,29.4895833 C27.0283019,29.3993056 27.0597484,29.2986111 27.1226415,29.1875 C27.3050314,28.8611111 27.504717,28.5399306 27.7216981,28.2239583 C27.9386792,27.9079861 28.1603774,27.59375 28.3867925,27.28125 C28.254717,27.1284722 28.1194969,26.9756944 27.9811321,26.8229167 L27.7759434,26.59375 L27.7759434,26.59375 L27.5754717,26.3645833 L27.1698113,25.8854167 L27.1792453,25.8854167 L27.1174004,25.8159722 C27.0810622,25.7696759 27.0545073,25.7233796 27.0377358,25.6770833 C27.0125786,25.6076389 27,25.5451389 27,25.4895833 C27,25.3715278 27.0424528,25.2725694 27.1273585,25.1927083 C27.2122642,25.1128472 27.3176101,25.0729167 27.4433962,25.0729167 C27.4937107,25.0729167 27.5503145,25.0850694 27.6132075,25.109375 C27.6551363,25.1255787 27.6984626,25.1487269 27.7431866,25.1788194 L27.8113208,25.2291667 L28.254717,25.7291667 L28.9716981,26.53125 L29.2676887,26.1731771 L29.5707547,25.828125 C29.7751572,25.6024306 29.9874214,25.375 30.2075472,25.1458333 C30.2578616,25.0902778 30.3144654,25.0520833 30.3773585,25.03125 C30.4402516,25.0104167 30.5031447,25 30.5660377,25 Z M23.2460457,22.1842105 C23.0023433,22.1842105 22.7680141,22.2236842 22.543058,22.3026316 C22.3181019,22.3815789 22.102519,22.4907121 21.8963093,22.630031 C21.6526069,22.8157895 21.4346807,23.0456656 21.2425308,23.3196594 C21.0503808,23.5936533 20.8886936,23.8839009 20.7574692,24.1904025 C20.6262449,24.496904 20.5254833,24.8103715 20.4551845,25.130805 C20.3848858,25.4512384 20.3497364,25.755418 20.3497364,26.0433437 C20.3497364,26.4055728 20.3966022,26.751548 20.4903339,27.0812693 C20.5840656,27.4109907 20.7293497,27.7012384 20.9261863,27.9520124 C21.1230228,28.2027864 21.3690685,28.4024768 21.6643234,28.5510836 C21.9595782,28.6996904 22.3134153,28.7739938 22.7258348,28.7739938 C22.8851787,28.7739938 23.0515524,28.750774 23.2249561,28.7043344 C23.3983597,28.6578947 23.5553603,28.5975232 23.6959578,28.5232198 C24.0333919,28.3467492 24.3239602,28.1145511 24.5676626,27.8266254 C24.811365,27.5386997 25.0128881,27.2252322 25.172232,26.8862229 C25.3315759,26.5472136 25.4487405,26.1942724 25.5237258,25.8273994 C25.5987112,25.4605263 25.6362039,25.1099071 25.6362039,24.7755418 C25.6362039,24.5340557 25.6127709,24.2948916 25.5659051,24.0580495 C25.5190393,23.8212074 25.4440539,23.5959752 25.340949,23.3823529 C25.1253661,22.9922601 24.827768,22.6950464 24.4481547,22.4907121 C24.0685413,22.2863777 23.6678383,22.1842105 23.2460457,22.1842105 Z" id="形状结合" fill="url(#linearGradient-7)" fill-rule="nonzero"></path>
        </g>
    </g>
</svg>