<?xml version="1.0" encoding="UTF-8"?>
<svg width="96px" height="96px" viewBox="0 0 96 96" version="1.1" xmlns="http://www.w3.org/2000/svg" xmlns:xlink="http://www.w3.org/1999/xlink">
    <title>apps/96/certificate-sign-platform</title>
    <defs>
        <filter x="-9.2%" y="-6.1%" width="120.2%" height="119.4%" filterUnits="objectBoundingBox" id="filter-1">
            <feOffset dx="0" dy="2" in="SourceAlpha" result="shadowOffsetOuter1"></feOffset>
            <feGaussianBlur stdDeviation="2" in="shadowOffsetOuter1" result="shadowBlurOuter1"></feGaussianBlur>
            <feColorMatrix values="0 0 0 0 0   0 0 0 0 0   0 0 0 0 0  0 0 0 0.2 0" type="matrix" in="shadowBlurOuter1" result="shadowMatrixOuter1"></feColorMatrix>
            <feMerge>
                <feMergeNode in="shadowMatrixOuter1"></feMergeNode>
                <feMergeNode in="SourceGraphic"></feMergeNode>
            </feMerge>
        </filter>
        <linearGradient x1="50%" y1="0%" x2="50%" y2="100%" id="linearGradient-2">
            <stop stop-color="#81EF5A" offset="4.24787615%"></stop>
            <stop stop-color="#00BF88" offset="100%"></stop>
        </linearGradient>
        <path d="M9,-2.46149934e-15 L66,-2.46149934e-15 C70.9705627,-3.3745769e-15 75,4.02943725 75,9 L75,67.875 C75,72.8455627 70.9705627,76.875 66,76.875 L9,76.875 C4.02943725,76.875 1.02270595e-14,72.8455627 9.61834113e-15,67.875 L9.61834113e-15,9 C9.00962276e-15,4.02943725 4.02943725,-1.54842177e-15 9,-2.46149934e-15 Z" id="path-3"></path>
        <filter x="-2.0%" y="-2.0%" width="104.0%" height="103.9%" filterUnits="objectBoundingBox" id="filter-4">
            <feOffset dx="0" dy="-3" in="SourceAlpha" result="shadowOffsetInner1"></feOffset>
            <feComposite in="shadowOffsetInner1" in2="SourceAlpha" operator="arithmetic" k2="-1" k3="1" result="shadowInnerInner1"></feComposite>
            <feColorMatrix values="0 0 0 0 0   0 0 0 0 0   0 0 0 0 0  0 0 0 0.160868185 0" type="matrix" in="shadowInnerInner1"></feColorMatrix>
        </filter>
        <linearGradient x1="50%" y1="0%" x2="50%" y2="100%" id="linearGradient-5">
            <stop stop-color="#FFFFFF" offset="0%"></stop>
            <stop stop-color="#D1EAE4" offset="100%"></stop>
            <stop stop-color="#EDF2DE" offset="100%"></stop>
        </linearGradient>
        <circle id="path-6" cx="17.625" cy="17.625" r="17.625"></circle>
        <filter x="-17.0%" y="-17.0%" width="128.4%" height="128.4%" filterUnits="objectBoundingBox" id="filter-7">
            <feOffset dx="-1" dy="-1" in="SourceAlpha" result="shadowOffsetOuter1"></feOffset>
            <feGaussianBlur stdDeviation="1.5" in="shadowOffsetOuter1" result="shadowBlurOuter1"></feGaussianBlur>
            <feColorMatrix values="0 0 0 0 0   0 0 0 0 0   0 0 0 0 0  0 0 0 0.1 0" type="matrix" in="shadowBlurOuter1"></feColorMatrix>
        </filter>
        <linearGradient x1="50%" y1="-36.2184661%" x2="50%" y2="100%" id="linearGradient-8">
            <stop stop-color="#81EF5A" offset="0%"></stop>
            <stop stop-color="#01A171" offset="100%"></stop>
        </linearGradient>
        <filter x="-16.6%" y="-6.9%" width="131.9%" height="119.2%" filterUnits="objectBoundingBox" id="filter-9">
            <feOffset dx="0" dy="2" in="SourceAlpha" result="shadowOffsetOuter1"></feOffset>
            <feGaussianBlur stdDeviation="2" in="shadowOffsetOuter1" result="shadowBlurOuter1"></feGaussianBlur>
            <feColorMatrix values="0 0 0 0 0.0200617454   0 0 0 0 0.261693098   0 0 0 0 0.202345466  0 0 0 0.2 0" type="matrix" in="shadowBlurOuter1" result="shadowMatrixOuter1"></feColorMatrix>
            <feMerge>
                <feMergeNode in="shadowMatrixOuter1"></feMergeNode>
                <feMergeNode in="SourceGraphic"></feMergeNode>
            </feMerge>
        </filter>
        <radialGradient cx="38.2045411%" cy="60.388968%" fx="38.2045411%" fy="60.388968%" r="133.891229%" gradientTransform="translate(0.382, 0.6039), scale(1, 0.5705), rotate(-61.2717), translate(-0.382, -0.6039)" id="radialGradient-10">
            <stop stop-color="#E2FFF0" offset="0%"></stop>
            <stop stop-color="#C2FFDF" offset="100%"></stop>
        </radialGradient>
        <linearGradient x1="48.0462425%" y1="0.918640828%" x2="51.9537575%" y2="99.0813592%" id="linearGradient-11">
            <stop stop-color="#64D47C" offset="0%"></stop>
            <stop stop-color="#D7CD87" offset="100%"></stop>
        </linearGradient>
    </defs>
    <g id="apps/96/certificate-sign-platform" stroke="none" stroke-width="1" fill="none" fill-rule="evenodd">
        <g id="编组-3" transform="translate(3.8543, -2.1867)">
            <g id="主体" filter="url(#filter-1)" transform="translate(44.9465, 52.6689) rotate(-8) translate(-44.9465, -52.6689)translate(5.3534, 11.4347)">
                <g id="矩形备份" fill-rule="nonzero" transform="translate(37.5, 38.4375) rotate(-360) translate(-37.5, -38.4375)">
                    <use fill="url(#linearGradient-2)" xlink:href="#path-3"></use>
                    <use fill="black" fill-opacity="1" filter="url(#filter-4)" xlink:href="#path-3"></use>
                </g>
                <g id="编组" transform="translate(43.9362, 47.2183)" fill-rule="nonzero">
                    <g id="椭圆形" transform="translate(17.625, 17.625) rotate(-360) translate(-17.625, -17.625)">
                        <use fill="black" fill-opacity="1" filter="url(#filter-7)" xlink:href="#path-6"></use>
                        <use fill="url(#linearGradient-5)" xlink:href="#path-6"></use>
                    </g>
                    <path d="M8.99936895,20.9322728 C10.4331405,22.8223864 12.9508309,24.4523822 15.3288073,25.0430427 L12.811117,29.4375 C12.811117,29.4375 11.5057005,27.9492059 10.269857,26.7204617 C8.95279764,26.3541386 7.6240955,26.0116691 6.28346655,25.6927692 L8.99936895,20.9322728 Z M26.0288494,20.9325568 L28.9665334,25.6930532 C28.9548906,25.704696 26.9614114,25.9880995 25.2013568,26.4841975 C23.9657972,27.7126578 22.4272402,29.4375 22.4272402,29.4375 L19.9328355,25.0433267 C22.310528,24.4526662 24.5953618,22.8343132 26.0288494,20.9325568 Z M17.6133572,5.8125 C22.3457404,5.8125 26.4139146,9.93519668 26.4139146,14.7428324 C26.4139146,19.550468 22.3457404,23.6731647 17.6133572,23.6731647 C12.8806899,23.6731647 8.81279975,19.7867322 8.81279975,14.9790966 C8.81279975,10.1714609 12.8809739,5.8125 17.6133572,5.8125 Z M17.6133572,9.32068258 C17.2285759,9.32068258 16.8790072,9.55694678 16.7157236,9.88777345 L15.8067312,11.8485959 C15.6783761,12.1439262 15.3986643,12.3449779 15.084024,12.3566207 L13.1024716,12.6755206 C12.5779764,12.7581563 12.1934792,13.2661811 12.274979,13.7977756 C12.3099074,13.9985433 12.4149769,14.1993111 12.543048,14.3529396 L14.0932478,16.0184318 C14.279817,16.2191996 14.3613168,16.4790334 14.3263883,16.7507941 L13.9648927,19.0305164 C13.8833929,19.5621109 14.2562474,20.0817785 14.7807425,20.1644142 C15.0022402,20.1879838 15.2120951,20.1644142 15.4103071,20.0582089 L17.1354333,19.1250789 C17.4151451,18.9359539 17.7649979,18.9359539 18.0447097,19.0895825 L19.8164072,20.046566 C20.2940471,20.3183267 20.8886832,20.1292017 21.1567522,19.6450305 C21.2615377,19.4678324 21.2964661,19.243495 21.2615377,19.0308004 L20.9119689,16.8337137 L20.9119689,16.7982173 C20.8418279,16.4909602 20.9468973,16.1839872 21.1567522,15.9712926 L22.6953092,14.3529396 C23.0684476,13.9749737 23.0568048,13.337174 22.6836664,12.9469973 C22.5323096,12.8052955 22.3340976,12.711017 22.1358856,12.6755206 L20.1543332,12.3682636 C19.8164072,12.3446939 19.5366954,12.1439262 19.4083403,11.8366691 L18.5109907,9.88777345 C18.3360644,9.53337716 17.9978544,9.32068258 17.6133572,9.32068258 Z" id="形状结合" fill="url(#linearGradient-8)"></path>
                </g>
                <g id="编组-2" transform="translate(12.4602, 36.2518)">
                    <path d="M0.691478721,15.9558033 C1.17988665,17.6565917 3.31261651,17.5539439 7.08966829,15.6478599 C16.2269844,11.1525328 22.194683,8.90486919 24.9927644,8.90486919 C29.376417,8.90486919 22.9044934,15.6730636 25.3855377,15.9558033 C27.866582,16.238543 32.6792005,10.0950682 35.4367759,10.0950682 C38.1943513,10.0950682 33.5409278,14.6122863 37.4047455,13.4608826 C41.2685633,12.309479 47.1068213,2.26702575 51.5775547,5.97708312" id="路径-12" stroke="#FFFFFF" stroke-width="1.875" opacity="0.398126511" stroke-linecap="round" stroke-linejoin="round" transform="translate(26.1345, 11.1588) rotate(-12) translate(-26.1345, -11.1588)"></path>
                    <circle id="椭圆形" fill="#FFFFFF" opacity="0.401146298" cx="29.6768271" cy="5.37778251" r="1.44347533"></circle>
                </g>
            </g>
            <g id="羽毛" filter="url(#filter-9)" transform="translate(31.6873, 39.0967) rotate(-8) translate(-31.6873, -39.0967)translate(9.7248, 2.7024)" fill-rule="nonzero">
                <path d="M28.5273678,34.6643513 C29.4438606,34.2554549 30.3221921,33.8520244 31.1623622,33.4540599 C31.8934112,33.1113857 32.6435409,32.7659786 33.4127513,32.4178385 C34.1819617,32.0696984 34.8202888,31.7601354 35.3277325,31.4891496 L34.9527201,34.6958838 C34.8417428,35.5843133 34.7203484,36.2561014 34.5885369,36.711248 C34.3517301,37.8160036 34.0374144,38.8525398 33.6455897,39.8208565 C33.2537649,40.7891733 32.8744716,41.6367132 32.5077096,42.3634763 C32.0807144,43.2178487 31.6265937,44.0166155 31.1453475,44.7597765 L24.4022248,47.9267793 L30.3284877,48.1487798 C30.3286694,48.152169 29.0843947,50.7762064 26.9458245,53.2089941 C25.0203064,55.3994187 22.2264129,57.5104067 21.0328948,58.1373578 C18.5137996,59.4606299 10.3841698,62.3377102 8.79597236,60.6186312 C6.38308161,58.006897 4.64493819,50.7002849 5.49279064,42.2523388 C6.06908346,36.5101949 8.66914959,29.6676646 11.3627167,24.5494469 C12.6319744,22.13765 14.8429009,19.0238728 15.1782965,18.5844949 C20.5370234,11.5644067 26.5311102,7.70882954 28.5454327,6.45156094 C30.5597552,5.19429234 37.3799218,2.20973193 38.5984329,2.70068835 C38.9264078,2.8328344 37.5921354,5.55776029 37.3587099,7.9992325 C37.1252844,10.4407047 36.8672826,11.3292532 36.7606376,13.9422995 C36.6539926,16.5553458 36.4954687,19.2154836 36.285066,21.9227128 C36.0746633,24.629942 35.849821,27.0913604 35.6105392,29.3069682 L28.5273678,34.6643513 Z" id="路径" fill="url(#radialGradient-10)" transform="translate(21.9625, 31.899) rotate(11) translate(-21.9625, -31.899)"></path>
                <path d="M4.30942929,71.74187 C4.76466705,69.697842 5.75592953,68.6795198 7.71552134,67.6792822 C7.71552134,67.6792822 6.94126963,60.2940329 8.71119611,53.9205008 C9.89278088,50.3271479 12.8309033,42.1053857 14.820052,37.7917788 C18.3576161,30.1203258 18.7948809,29.0875134 22.1573355,22.8816381 C20.1224188,25.8663009 19.6231174,26.3710775 14.820052,34.5584114 C9.17149103,44.186982 4.21407322,58.7509817 3.69927826,71.5494304 L4.30942929,71.74187 Z" id="path1873" fill="url(#linearGradient-11)" transform="translate(12.9283, 47.3118) rotate(8) translate(-12.9283, -47.3118)"></path>
                <path d="M0.744436556,70.3329377 C1.21700474,70.5930248 1.45328883,70.7230683 1.45328883,70.7230683 C1.45328883,70.7230683 1.76686466,69.5971745 1.96970544,69.150901 C2.55197519,67.8698394 3.74030326,66.9581532 4.76067964,66.4627896 L1.20248793,64.9401522 C1.02831818,66.0948877 0.912310078,67.0553451 0.854463628,67.8215242 C0.796617179,68.5877033 0.759941488,69.4248412 0.744436556,70.3329377 Z" id="path3810" fill="#329A68" transform="translate(2.7526, 67.8316) rotate(8) translate(-2.7526, -67.8316)"></path>
            </g>
        </g>
        <g id="Guide/96" transform="translate(3, 3)"></g>
    </g>
</svg>