<svg xmlns="http://www.w3.org/2000/svg" width="96" height="96" viewBox="0 0 96 96">
  <defs>
    <filter id="clips_clips-a" width="140.5%" height="146.4%" x="-20.3%" y="-23.2%" filterUnits="objectBoundingBox">
      <feOffset dy="2" in="SourceAlpha" result="shadowOffsetOuter1"/>
      <feGaussianBlur in="shadowOffsetOuter1" result="shadowBlurOuter1" stdDeviation="3"/>
      <feColorMatrix in="shadowBlurOuter1" result="shadowMatrixOuter1" values="0 0 0 0 0   0 0 0 0 0   0 0 0 0 0  0 0 0 0.2 0"/>
      <feMerge>
        <feMergeNode in="shadowMatrixOuter1"/>
        <feMergeNode in="SourceGraphic"/>
      </feMerge>
    </filter>
    <radialGradient id="clips_clips-b" cx="58.203%" cy="50%" r="63.635%" fx="58.203%" fy="50%" gradientTransform="matrix(0 .93034 -1 0 1.082 -.041)">
      <stop offset="0%" stop-color="#4BD54B"/>
      <stop offset="100%" stop-color="#005900"/>
    </radialGradient>
    <linearGradient id="clips_clips-c" x1="0%" x2="100%" y1="63.327%" y2="63.327%">
      <stop offset="0%" stop-color="#F47D1F"/>
      <stop offset="73.955%" stop-color="#FFC434"/>
      <stop offset="100%" stop-color="#FB8420"/>
    </linearGradient>
    <radialGradient id="clips_clips-d" cx="50%" cy="50%" r="59.443%" fx="50%" fy="50%">
      <stop offset="0%" stop-color="#6A8098"/>
      <stop offset="100%" stop-color="#272B29"/>
    </radialGradient>
  </defs>
  <g fill="none" fill-rule="evenodd" filter="url(#clips_clips-a)" transform="translate(8 13.331)">
    <path fill="url(#clips_clips-b)" d="M63.5804527,15.0067891 L53,22.6687084 L52.995941,22.4280586 C52.8690987,18.6734917 49.7854517,15.6687084 46,15.6687084 L46,15.6687084 L30,15.6687084 C26.1340068,15.6687084 23,18.8027151 23,22.6687084 L23,22.6687084 L23,38.6687084 C23,42.5347016 26.1340068,45.6687084 30,45.6687084 L30,45.6687084 L46.9655342,45.6687084 C50.2982776,45.6687084 53,42.966986 53,39.6342425 L53,39.6342425 L55,39.6687084 L62.5123756,46.8670088 C61.2708378,49.7168602 59.8785593,51.8976476 58.6099969,53.0755985 L58.6099969,68.3407344 L58.6099969,68.3407344 L17.2242356,68.3407344 L17.2242356,61.1012056 C9.1555209,62.5167103 5.12116356,60.6464635 5.12116356,55.4904652 L5.12116356,46.1065483 L5.12116356,46.1065483 C1.70705452,46.9467225 -8.8817842e-14,46.4206979 -8.8817842e-14,44.5284748 C-8.8817842e-14,42.6362516 0.570762657,41.0190149 1.71228797,39.6767649 C2.74743211,24.1783412 8.47678867,12.8419069 18.9003577,5.66746212 C34.4577093,-5.04051715 57.2871406,0.177274489 63.5804527,15.0067891 Z M10.5,29.6687084 L16.5,29.6687084 C16.7761424,29.6687084 17,29.892566 17,30.1687084 C17,30.4448507 16.7761424,30.6687084 16.5,30.6687084 L10.5,30.6687084 C10.2238576,30.6687084 10,30.4448507 10,30.1687084 C10,29.892566 10.2238576,29.6687084 10.5,29.6687084 Z"/>
    <path fill="url(#clips_clips-c)" d="M45,41.1687084 C45,41.9971355 44.3284271,42.6687084 43.5,42.6687084 C42.6715729,42.6687084 42,41.9971355 42,41.1687084 L42,37.6687084 L39,37.6687084 L39,41.1687084 C39,41.9971355 38.3284271,42.6687084 37.5,42.6687084 C36.6715729,42.6687084 36,41.9971355 36,41.1687084 L36,37.6687084 L33,37.6687084 L33,41.1687084 C33,41.9971355 32.3284271,42.6687084 31.5,42.6687084 C30.6715729,42.6687084 30,41.9971355 30,41.1687084 L30,37.6687084 L27.5,37.6687084 C26.7203039,37.6687084 26.0795513,37.0738203 26.0068666,36.3131684 L26,36.1687084 C26,35.3890122 26.5948881,34.7482597 27.35554,34.6755749 L27.5,34.6687084 L30,34.6687084 L30,32.6687084 L27.5,32.6687084 C26.6715729,32.6687084 26,31.9971355 26,31.1687084 C26,30.3890122 26.5948881,29.7482597 27.35554,29.6755749 L27.5,29.6687084 L30,29.6687084 L30,26.6687084 L27.5,26.6687084 C26.6715729,26.6687084 26,25.9971355 26,25.1687084 C26,24.3890122 26.5948881,23.7482597 27.35554,23.6755749 L27.5,23.6687084 L30,23.6687084 L30,20.1687084 C30,19.3402812 30.6715729,18.6687084 31.5,18.6687084 C32.3284271,18.6687084 33,19.3402812 33,20.1687084 L33,23.6687084 L36,23.6687084 L36,20.1687084 C36,19.3402812 36.6715729,18.6687084 37.5,18.6687084 C38.3284271,18.6687084 39,19.3402812 39,20.1687084 L39,23.6687084 L42,23.6677084 L42,20.1687084 C42,19.3402812 42.6715729,18.6687084 43.5,18.6687084 C44.3284271,18.6687084 45,19.3402812 45,20.1687084 L45,23.6677084 L54.545,23.6677084 L61.6679497,18.9206329 C61.8732841,18.7837433 62.1085562,18.7000554 62.3526523,18.675962 L62.5,18.6687084 L65.1000563,18.6685204 C65.5633992,16.3863737 67.5811085,14.6687084 70,14.6687084 L74,14.6687084 C76.7614237,14.6687084 79,16.9072846 79,19.6687084 C79,22.4301321 76.7614237,24.6687084 74,24.6687084 L70,24.6687084 C67.949887,24.6687084 66.1879545,23.4348612 65.4162763,21.6692408 L62.956,21.6677084 L55.8320503,26.4167838 C55.6267159,26.5536734 55.3914438,26.6373613 55.1473477,26.6614548 L55,26.6687084 L45,26.6687084 L45,29.6687084 L65.2560892,29.6686218 C65.8738682,27.9208785 67.5407041,26.6687084 69.5,26.6687084 L74.5,26.6687084 C76.9852814,26.6687084 79,28.683427 79,31.1687084 C79,33.6539897 76.9852814,35.6687084 74.5,35.6687084 L69.5,35.6687084 C67.5410798,35.6687084 65.8745075,34.4170184 65.2564447,32.6698003 L45,32.6687084 L45,34.6687084 L56.5,34.6687084 C56.8480966,34.6687084 57.1837183,34.7897041 57.4506368,35.0084051 L57.5606602,35.1080482 L63.121,40.6687084 L65.2560892,40.6686218 C65.8738682,38.9208785 67.5407041,37.6687084 69.5,37.6687084 L74.5,37.6687084 C76.9852814,37.6687084 79,39.683427 79,42.1687084 C79,44.6539897 76.9852814,46.6687084 74.5,46.6687084 L69.5,46.6687084 C67.5410798,46.6687084 65.8745075,45.4170184 65.2564447,43.6698003 L62.5,43.6687084 C62.1519034,43.6687084 61.8162817,43.5477126 61.5493632,43.3290116 L61.4393398,43.2293685 L55.879,37.6687084 L45,37.6687084 L45,41.1687084 Z M74.5,40.6687084 L69.5,40.6687084 C68.6715729,40.6687084 68,41.3402812 68,42.1687084 C68,42.9484045 68.5948881,43.589157 69.35554,43.6618418 L69.5,43.6687084 L74.5,43.6687084 C75.3284271,43.6687084 76,42.9971355 76,42.1687084 C76,41.3890122 75.4051119,40.7482597 74.64446,40.6755749 L74.5,40.6687084 Z M36,32.6687084 L33,32.6687084 L33,34.6687084 L36,34.6687084 L36,32.6687084 Z M42,32.6687084 L39,32.6687084 L39,34.6687084 L42,34.6687084 L42,32.6687084 Z M74.5,29.6687084 L69.5,29.6687084 C68.6715729,29.6687084 68,30.3402812 68,31.1687084 C68,31.9484045 68.5948881,32.589157 69.35554,32.6618418 L69.5,32.6687084 L74.5,32.6687084 C75.3284271,32.6687084 76,31.9971355 76,31.1687084 C76,30.3890122 75.4051119,29.7482597 74.64446,29.6755749 L74.5,29.6687084 Z M36,26.6687084 L33,26.6687084 L33,29.6687084 L36,29.6687084 L36,26.6687084 Z M42,26.6687084 L39,26.6687084 L39,29.6687084 L42,29.6687084 L42,26.6687084 Z M74,17.6687084 L70,17.6687084 C68.8954305,17.6687084 68,18.5641389 68,19.6687084 C68,20.7230702 68.8158778,21.5868735 69.8507377,21.6632226 L70,21.6687084 L74,21.6687084 C75.1045695,21.6687084 76,20.7732779 76,19.6687084 C76,18.6143466 75.1841222,17.7505432 74.1492623,17.6741941 L74,17.6687084 Z"/>
    <rect width="20" height="20" x="28" y="20.669" fill="url(#clips_clips-d)" rx="2"/>
  </g>
</svg>
