<svg xmlns="http://www.w3.org/2000/svg" xmlns:xlink="http://www.w3.org/1999/xlink" width="96" height="96" viewBox="0 0 96 96">
  <defs>
    <filter id="cocomusic_icon-a" width="128.6%" height="128.6%" x="-14.3%" y="-14.3%" filterUnits="objectBoundingBox">
      <feOffset dy="2" in="SourceAlpha" result="shadowOffsetOuter1"/>
      <feGaussianBlur in="shadowOffsetOuter1" result="shadowBlurOuter1" stdDeviation="2"/>
      <feColorMatrix in="shadowBlurOuter1" result="shadowMatrixOuter1" values="0 0 0 0 0   0 0 0 0 0   0 0 0 0 0  0 0 0 0.2 0"/>
      <feMerge>
        <feMergeNode in="shadowMatrixOuter1"/>
        <feMergeNode in="SourceGraphic"/>
      </feMerge>
    </filter>
    <linearGradient id="cocomusic_icon-b" x1="50%" x2="50%" y1="0%" y2="98.139%">
      <stop offset="0%" stop-color="#FFF"/>
      <stop offset="100%" stop-color="#EDEDED"/>
    </linearGradient>
    <linearGradient id="cocomusic_icon-e" x1="50%" x2="41.709%" y1="0%" y2="100%">
      <stop offset="0%" stop-color="#BEB3EA"/>
      <stop offset="100%" stop-color="#696EE2"/>
    </linearGradient>
    <path id="cocomusic_icon-d" d="M54.6893044,14.8326852 C56.5539317,18.4755838 56.8352608,21.9215338 59.4152279,24.3425753 C60.7070058,25.5547798 62.2208605,26.7569644 63.8204001,26.5567255 C66.211732,26.2573659 67.1992842,24.6947937 67.6160657,25.4640544 C68.017746,26.2054425 66.6394823,27.9830786 65.110282,28.6489888 C63.5810817,29.314899 61.0146805,29.3163417 59.2848667,28.8490503 C57.6066506,28.3956976 55.2003632,26.9645422 53.5008558,22.8442286 C52.1661802,19.6084189 50.1307972,20.9271426 49.9727889,21.7066604 C49.8147807,22.4861783 49.6438476,23.9480757 49.6158776,24.2063402 L45.9607718,59.7101757 L45.6923912,59.6033078 C45.2179008,65.4347551 39.6635302,69.8443554 33.1393372,69.5024369 C26.5089259,69.1549518 21.3876585,64.0315582 21.7006661,58.059017 C22.0136737,52.0864758 27.6424268,47.5264668 34.272838,47.873952 C36.5328567,47.9923945 38.6175382,48.6657171 40.3714406,49.7384131 L43.884517,15.4391692 C44.2578051,13.2001671 46.378437,11.8048965 48.0103076,11.6018598 C50.1697321,11.3331849 53.018406,11.5682724 54.6893044,14.8326852 Z"/>
    <filter id="cocomusic_icon-c" width="104.3%" height="106.9%" x="-2.2%" y="-1.7%" filterUnits="objectBoundingBox">
      <feOffset dy="2" in="SourceAlpha" result="shadowOffsetOuter1"/>
      <feColorMatrix in="shadowOffsetOuter1" values="0 0 0 0 0   0 0 0 0 0   0 0 0 0 0  0 0 0 0.06 0"/>
    </filter>
  </defs>
  <g fill="none" fill-rule="evenodd" filter="url(#cocomusic_icon-a)" transform="translate(6 5)">
    <circle cx="42" cy="42" r="42" fill="url(#cocomusic_icon-b)"/>
    <g transform="rotate(3 44.687 40.52)">
      <use fill="#000" filter="url(#cocomusic_icon-c)" xlink:href="#cocomusic_icon-d"/>
      <use fill="url(#cocomusic_icon-e)" xlink:href="#cocomusic_icon-d"/>
    </g>
  </g>
</svg>
