<svg xmlns="http://www.w3.org/2000/svg" width="96" height="96" viewBox="0 0 96 96">
  <defs>
    <filter id="com.apps.xournal-a" width="135.3%" height="129.9%" x="-17.6%" y="-14.9%" filterUnits="objectBoundingBox">
      <feOffset dy="2" in="SourceAlpha" result="shadowOffsetOuter1"/>
      <feGaussianBlur in="shadowOffsetOuter1" result="shadowBlurOuter1" stdDeviation="2"/>
      <feColorMatrix in="shadowBlurOuter1" result="shadowMatrixOuter1" values="0 0 0 0 0   0 0 0 0 0   0 0 0 0 0  0 0 0 0.2 0"/>
      <feMerge>
        <feMergeNode in="shadowMatrixOuter1"/>
        <feMergeNode in="SourceGraphic"/>
      </feMerge>
    </filter>
    <linearGradient id="com.apps.xournal-b" x1="50%" x2="50%" y1="0%" y2="100%">
      <stop offset="0%" stop-color="#F7F7F7"/>
      <stop offset="100%" stop-color="#EDEDED"/>
    </linearGradient>
    <linearGradient id="com.apps.xournal-c" x1="50%" x2="50%" y1="0%" y2="100%">
      <stop offset="0%" stop-color="#CDCECE"/>
      <stop offset="100%" stop-color="#9FA0A0"/>
    </linearGradient>
    <linearGradient id="com.apps.xournal-d" x1="50%" x2="50%" y1="0%" y2="100%">
      <stop offset="0%" stop-color="#F5E83C"/>
      <stop offset="100%" stop-color="#E8AB1C"/>
    </linearGradient>
  </defs>
  <g fill="none" filter="url(#com.apps.xournal-a)" transform="translate(14 8)">
    <path fill="url(#com.apps.xournal-b)" d="M66,80 L2,80 C0.896,80 0,79.104 0,78 L0,6 C0,4.896 0.896,4 2,4 L66,4 C67.104,4 68,4.896 68,6 L68,78 C68,79.104 67.104,80 66,80 Z"/>
    <path fill="url(#com.apps.xournal-c)" d="M68,14 L0,14 L0,6 C0,4.896 0.896,4 2,4 L66,4 C67.104,4 68,4.896 68,6 L68,14 Z"/>
    <path fill="url(#com.apps.xournal-d)" d="M6.144,10.334 L5.856,10.334 C4.83,10.334 4,9.504 4,8.478 L4,1.856 C4,0.832 4.83,3.55271368e-15 5.856,3.55271368e-15 L6.144,3.55271368e-15 C7.17,3.55271368e-15 8,0.832 8,1.856 L8,8.478 C8,9.504 7.17,10.334 6.144,10.334 Z M14.144,10.334 L13.856,10.334 C12.83,10.334 12,9.504 12,8.478 L12,1.856 C12,0.832 12.83,3.55271368e-15 13.856,3.55271368e-15 L14.144,3.55271368e-15 C15.17,3.55271368e-15 16,0.832 16,1.856 L16,8.478 C16,9.504 15.17,10.334 14.144,10.334 Z M22.144,10.334 L21.856,10.334 C20.83,10.334 20,9.504 20,8.478 L20,1.856 C20,0.832 20.83,3.55271368e-15 21.856,3.55271368e-15 L22.144,3.55271368e-15 C23.17,3.55271368e-15 24,0.832 24,1.856 L24,8.478 C24,9.504 23.17,10.334 22.144,10.334 Z M30.144,10.334 L29.856,10.334 C28.83,10.334 28,9.504 28,8.478 L28,1.856 C28,0.832 28.83,3.55271368e-15 29.856,3.55271368e-15 L30.144,3.55271368e-15 C31.17,3.55271368e-15 32,0.832 32,1.856 L32,8.478 C32,9.504 31.17,10.334 30.144,10.334 Z M38.144,10.334 L37.856,10.334 C36.83,10.334 36,9.504 36,8.478 L36,1.856 C36,0.832 36.83,3.55271368e-15 37.856,3.55271368e-15 L38.144,3.55271368e-15 C39.17,3.55271368e-15 40,0.832 40,1.856 L40,8.478 C40,9.504 39.17,10.334 38.144,10.334 Z M46.144,10.334 L45.856,10.334 C44.83,10.334 44,9.504 44,8.478 L44,1.856 C44,0.832 44.83,3.55271368e-15 45.856,3.55271368e-15 L46.144,3.55271368e-15 C47.17,3.55271368e-15 48,0.832 48,1.856 L48,8.478 C48,9.504 47.17,10.334 46.144,10.334 Z M54.144,10.334 L53.856,10.334 C52.83,10.334 52,9.504 52,8.478 L52,1.856 C52,0.832 52.83,3.55271368e-15 53.856,3.55271368e-15 L54.144,3.55271368e-15 C55.17,3.55271368e-15 56,0.832 56,1.856 L56,8.478 C56,9.504 55.17,10.334 54.144,10.334 Z M62.144,10.334 L61.856,10.334 C60.83,10.334 60,9.504 60,8.478 L60,1.856 C60,0.832 60.83,3.55271368e-15 61.856,3.55271368e-15 L62.144,3.55271368e-15 C63.17,3.55271368e-15 64,0.832 64,1.856 L64,8.478 C64,9.504 63.17,10.334 62.144,10.334 Z"/>
    <path fill="#000" d="M46.52,59.448 C41.568,53.302 36.546,47.224 31.366,41.284 C35.64,35.806 40.104,30.482 44.772,25.362 C47.452,22.42 41.52,21.05 39.48,23.288 C35.388,27.778 31.476,32.43 27.696,37.192 C23.768,32.806 19.77,28.478 15.604,24.298 C13.772,22.46 7.84,24.926 9.854,26.946 C14.72,31.826 19.374,36.888 23.924,42.044 C16.84,51.38 10.308,61.144 4.328,71.2 C2.744,73.864 7.24,74.462 9.476,72.96 L9.466,72.99 C9.466,72.99 9.494,72.964 9.54,72.922 C9.75,72.774 9.932,72.604 10.092,72.418 C11.87,70.8 17.024,66.166 19.812,64.262 C19.812,64.262 17.688,63.67 15.218,64.202 C19.118,58.074 23.244,52.078 27.592,46.246 C32.07,51.452 36.456,56.74 40.77,62.096 C42.394,64.11 48.378,61.754 46.52,59.448 Z"/>
    <g transform="translate(14.873 18.242)">
      <ellipse cx="24.923" cy="24.923" fill="#628BB6" rx="4.836" ry="30.41" transform="rotate(45 24.923 24.923)"/>
      <path fill="#628BB6" d="M40.0646856,19.8916856 C43.6546856,15.4636856 45.0946856,11.3496856 43.4966856,9.80168561 C43.2926856,9.60368561 43.0446856,9.47368561 42.7646856,9.39768561 C43.4626856,11.4296856 41.7146856,15.1076856 38.5826856,18.9696856 C37.6406856,20.1316856 36.5386856,21.0436856 35.4066856,22.1056856 L33.8346856,22.0756856 L32.1306856,23.7796856 C32.1306856,23.7796856 30.9286856,25.4616856 31.7646856,26.2376856 C33.8186856,26.1016856 37.1946856,23.4316856 40.0646856,19.8916856 Z"/>
      <path fill="#231815" d="M3.36068561,45.2856856 C3.36068561,45.2856856 1.83468561,47.3276856 2.17668561,47.6716856 C2.52068561,48.0156856 4.56268561,46.4896856 4.56268561,46.4896856 L3.36068561,45.2856856 Z"/>
      <path fill="#D4D4D4" d="M6.78468561,38.4836856 C3.78468561,42.6976856 2.30668561,45.7756856 3.18868561,46.6576856 C4.07068561,47.5396856 7.14868561,46.0616856 11.3626856,43.0616856 L6.78468561,38.4836856 Z"/>
      <ellipse cx="24.782" cy="25.095" fill="#FFF" opacity=".3" rx="1.618" ry="30.23" transform="rotate(45 24.782 25.095)"/>
      <rect width="9.668" height="1.134" x="19.916" y="24.528" fill="#3B6AA7" transform="rotate(45 24.75 25.095)"/>
      <polygon fill="#3B6AA7" points="42.085 12.632 37.215 7.762 38.053 7.132 42.715 11.794"/>
      <polygon fill="#3B6AA7" points="10.895 43.394 6.455 38.952 7.141 37.932 11.947 42.736"/>
    </g>
  </g>
</svg>
