<svg xmlns="http://www.w3.org/2000/svg" width="96" height="96" viewBox="0 0 96 96">
  <defs>
    <filter id="com.apps.nertivia-a" width="128.6%" height="128.6%" x="-14.3%" y="-14.3%" filterUnits="objectBoundingBox">
      <feOffset dy="2" in="SourceAlpha" result="shadowOffsetOuter1"/>
      <feGaussianBlur in="shadowOffsetOuter1" result="shadowBlurOuter1" stdDeviation="2"/>
      <feColorMatrix in="shadowBlurOuter1" result="shadowMatrixOuter1" values="0 0 0 0 0   0 0 0 0 0   0 0 0 0 0  0 0 0 0.2 0"/>
      <feMerge>
        <feMergeNode in="shadowMatrixOuter1"/>
        <feMergeNode in="SourceGraphic"/>
      </feMerge>
    </filter>
    <linearGradient id="com.apps.nertivia-b" x1="50%" x2="50%" y1="0%" y2="100%">
      <stop offset="0%" stop-color="#50CAFF"/>
      <stop offset="100%" stop-color="#2D8DED"/>
    </linearGradient>
  </defs>
  <g fill="none" fill-rule="evenodd" filter="url(#com.apps.nertivia-a)" transform="translate(6 6)">
    <circle cx="42" cy="42" r="42" fill="url(#com.apps.nertivia-b)"/>
    <path fill="#FEFEFE" d="M18.6220652,23.6210894 C23.4551805,27.795667 28.1385868,32.1508651 33.0801956,36.1905833 C37.597831,39.883304 45.9551686,39.9078514 50.5209897,36.1936139 C55.388047,32.2348112 59.9326543,27.8820375 64.7057648,23.8041344 C66.1261818,22.5907037 67.5987243,20.3505238 69.5810046,21.2357464 C71.7945157,22.2243106 70.5916918,24.6832959 70.3544001,26.5137459 C69.1303624,35.9569282 66.9665523,45.2176717 64.856686,54.4908403 C62.2904193,65.7702307 53.8691372,70.187252 40.9653741,70.6072857 C37.4178165,70.4524248 33.259907,69.8281322 29.3680794,68.0316244 C24.3925284,65.7344702 20.9407362,62.0711458 19.4387974,56.6976842 C16.6700903,46.7917374 14.8244876,36.6897143 13.167991,26.5576888 C12.8803921,24.7987597 11.9354678,22.2255228 14.011089,21.2245334 C15.8218404,20.3508269 17.2643804,22.448571 18.6220652,23.6210894 Z M42.2092802,56.0097051 C41.6150681,55.9667593 40.9950175,56.1163032 40.4377862,56.3200478 C39.354669,56.7155341 39.8834993,57.5074158 40.3165644,58.1301931 C40.830545,58.8693434 41.3545265,59.5751576 40.3289896,60.3091559 C39.5552912,60.8628367 38.7528025,60.8637459 37.9060678,60.4764421 C37.7052942,60.384768 37.5471079,60.2293164 37.3969198,60.0610741 L37.2183194,59.856307 C36.9495363,59.5497365 36.6618392,59.2678034 36.1535029,59.3078634 C37.7989958,62.2994251 40.0035359,62.3705446 42.2085095,59.6316843 C43.8605916,62.3705442 45.5125572,62.2994169 46.7456032,59.3078634 C46.0684093,59.2366456 45.9137584,60.1830852 45.4323194,60.4764421 C44.7978191,60.8637459 44.1964746,60.8628367 43.6167039,60.3091559 C42.8482183,59.5751576 43.2408636,58.8693434 43.6260148,58.1301931 C43.9505319,57.5074158 44.3468107,56.7155341 43.5351772,56.3200478 C43.1419175,56.1281607 42.7069038,55.9843492 42.2856347,56.0041356 L42.2856347,56.0041356 Z M29.9720976,47.2506498 C27.650396,47.2476225 27.2570311,49.3647622 27.2649106,51.2918866 C27.2724869,53.2017368 27.6037256,55.360698 29.9251241,55.3928218 C32.2904655,55.4249456 32.487148,53.2153743 32.7059534,51.1573303 C32.4513875,49.502652 32.3507734,47.2539866 29.9720976,47.2506498 Z M53.8245882,47.270988 C51.5116753,47.1361287 50.9458723,49.2599356 50.8682903,51.1637248 C50.78889,53.1014561 51.3628754,55.2107163 53.5330496,55.3692139 C55.3694321,55.5036416 55.9598822,54.1398651 56.3466645,52.607098 L56.3466645,52.607098 L56.4327809,52.2509877 C56.5023224,51.9527376 56.5672969,51.6520192 56.6351169,51.3582858 C56.2781185,49.634208 56.0793147,47.4022107 53.8245882,47.270988 Z M65.6797824,29.287514 C65.0057889,28.9280912 64.4160445,29.4808629 63.9947986,29.892411 C61.9940319,31.8459012 59.8917419,33.7290827 58.1258426,35.883195 C54.2885648,40.5644799 54.6031356,41.3699991 60.1226696,43.7577666 C61.9806975,44.5614675 62.8780423,44.1293115 63.4808179,42.3028013 C64.6969762,38.6188692 65.61705,34.8709925 66.2067944,30.3424472 C66.2040669,30.3891176 66.3495331,29.6445124 65.6797824,29.287514 Z M17.9178268,28.6259457 C17.0526059,32.7262749 18.3654385,35.9659289 19.2261137,39.2080074 C20.7453266,44.9284666 22.944594,45.4727527 27.398891,41.4954637 C28.1304649,40.842381 28.5820163,40.2826391 27.9765131,39.3331689 C25.368728,35.2455681 22.0836158,31.8313546 17.9178268,28.6259457 Z"/>
  </g>
</svg>
