<svg xmlns="http://www.w3.org/2000/svg" width="96" height="96" viewBox="0 0 96 96">
  <defs>
    <filter id="com.apps.mgba-a" width="127%" height="138%" x="-13.5%" y="-19%" filterUnits="objectBoundingBox">
      <feOffset dy="2" in="SourceAlpha" result="shadowOffsetOuter1"/>
      <feGaussianBlur in="shadowOffsetOuter1" result="shadowBlurOuter1" stdDeviation="2"/>
      <feColorMatrix in="shadowBlurOuter1" result="shadowMatrixOuter1" values="0 0 0 0 0   0 0 0 0 0   0 0 0 0 0  0 0 0 0.2 0"/>
      <feMerge>
        <feMergeNode in="shadowMatrixOuter1"/>
        <feMergeNode in="SourceGraphic"/>
      </feMerge>
    </filter>
    <linearGradient id="com.apps.mgba-b" x1="50.183%" x2="56.583%" y1=".945%" y2="33.919%">
      <stop offset="0%" stop-color="#B0AEC2"/>
      <stop offset="100%" stop-color="#7D7AA3"/>
    </linearGradient>
    <linearGradient id="com.apps.mgba-c" x1="50%" x2="50%" y1="0%" y2="100%">
      <stop offset="0%" stop-color="#AFB0C8"/>
      <stop offset="100%" stop-color="#777897"/>
    </linearGradient>
    <linearGradient id="com.apps.mgba-d" x1="50%" x2="50%" y1="-23.441%" y2="79.206%">
      <stop offset="0%" stop-color="#CDCCE1"/>
      <stop offset="100%" stop-color="#9E9DBF"/>
    </linearGradient>
    <linearGradient id="com.apps.mgba-e" x1="50%" x2="50%" y1="0%" y2="100%">
      <stop offset="0%" stop-color="#C5C4D9"/>
      <stop offset="100%" stop-color="#9391B1"/>
    </linearGradient>
    <linearGradient id="com.apps.mgba-f" x1="50%" x2="50%" y1="0%" y2="100%">
      <stop offset="0%" stop-color="#A967F7"/>
      <stop offset="100%" stop-color="#5B28BC"/>
    </linearGradient>
    <linearGradient id="com.apps.mgba-g" x1="50%" x2="50%" y1="0%" y2="100%">
      <stop offset="0%" stop-color="#20005E"/>
      <stop offset="100%" stop-color="#1C1024"/>
    </linearGradient>
    <linearGradient id="com.apps.mgba-h" x1="50%" x2="50%" y1="0%" y2="100%">
      <stop offset="0%" stop-color="#3C3A58"/>
      <stop offset="100%" stop-color="#392A4D"/>
    </linearGradient>
  </defs>
  <g fill="none" fill-rule="evenodd" filter="url(#com.apps.mgba-a)" transform="translate(3.254 16.728)">
    <path fill="url(#com.apps.mgba-b)" d="M67.365323,9.41943359 C70.7450431,10.6282552 72.791796,11.3525391 73.5055818,11.5922852 C74.5762605,11.9519043 81.1866121,16.1408691 82.4346589,17.1037598 C83.6827058,18.0666504 87.6131257,21.1289062 88.3247957,21.9912109 C89.0364656,22.8535156 88.7959871,39.480957 88.7959871,39.8845215 C88.7959871,40.1535645 88.6389233,43.8074951 88.3247957,50.8463135 C87.0887931,56.3667399 85.6888907,59.7492676 84.1250886,60.9938965 C81.7793855,62.8608398 78.8977937,64.090332 75.7737703,62.079834 C73.691088,60.739502 74.9604565,50.1027832 79.5818757,30.1696777 C67.7648184,20.0852051 61.8562898,14.9031576 61.8562898,14.6235352 C61.8562898,14.3439128 62.3489656,12.4380697 63.3343171,8.90600586 L67.365323,9.41943359 Z"/>
    <path fill="url(#com.apps.mgba-c)" d="M88.828536,31.3089967 L88.8324115,32.1028468 C88.8333983,32.3663921 88.8340916,32.6285554 88.8345262,32.8884049 L88.8343072,34.412281 C88.8287718,37.3746814 88.7959871,39.7355131 88.7959871,39.8845215 L88.7952021,39.9343829 C88.7829039,40.4574836 88.6261017,44.0947938 88.3247957,50.8463135 C87.0887931,56.3667399 85.6888907,59.7492676 84.1250886,60.9938965 C83.2014143,61.7290482 82.1946467,62.3653585 81.1227034,62.7439236 L80.6651277,55.4367676 L85.4015794,28.9741211 L88.7789636,27.5647111 C88.8055777,28.7547424 88.8208267,30.0370398 88.828536,31.3089967 Z"/>
    <path fill="url(#com.apps.mgba-d)" d="M67.365323,9.41943359 C70.2616446,12.7286784 72.2519604,14.641276 73.3362703,15.1572266 C74.9627351,15.9311523 83.0981096,19.3083496 84.2498445,20.404541 C85.4015794,21.5007324 85.87753,22.9272461 85.87753,24.3974609 C85.87753,25.3776042 85.87753,26.7862142 85.87753,28.623291 C76.4776277,25.1909993 71.5507885,23.2272949 71.0970125,22.7321777 C70.4163484,21.989502 64.6116609,14.6489258 64.6116609,14.6489258 C64.6116609,14.6489258 63.9041007,12.6052246 62.4889802,8.51782227 L67.365323,9.41943359 Z"/>
    <path fill="url(#com.apps.mgba-e)" d="M17.8487214,0.576904297 C14.6426668,1.48575846 11.9713614,1.94018555 9.83480543,1.94018555 C6.62997144,1.94018555 2.29769605,2.22802734 1.56795972,3.5324707 C1.08146884,4.40209961 0.850674566,5.94995117 0.87557691,8.17602539 L9.07571725,7.53930664 C14.7666719,4.86808268 17.5006583,3.5324707 17.2776765,3.5324707 C17.0546947,3.5324707 17.2450431,2.5472819 17.8487214,0.576904297 Z"/>
    <path fill="url(#com.apps.mgba-f)" d="M0.157315191,9.78491211 C0.43143393,7.62976395 1.88973707,6.44213867 4.17733472,6.44213867 C6.46493238,6.44213867 12.3555574,3.98510742 13.2588777,3.0612793 C14.162198,2.13745117 17.4153718,-3.55271368e-15 22.2171296,-3.55271368e-15 C27.0188875,-3.55271368e-15 64.9854402,7.98046875 66.1575593,8.43554687 C66.9389721,8.73893229 67.6068595,9.1887207 68.1612214,9.78491211 C66.0305248,9.29793294 64.9651765,9.29793294 64.9651765,9.78491211 C64.9651765,10.5153809 65.8565339,12.7973633 67.0088777,13.7875977 C68.1612214,14.777832 73.6414461,20.1262207 75.3291902,20.8410645 C77.0169343,21.5559082 84.8030671,25.8637695 85.2771882,28.1291504 C85.593269,29.6394043 85.3069734,38.9427083 84.4183015,56.0390625 C83.6844148,60.8248698 81.3836336,63.2177734 77.5159578,63.2177734 C73.648282,63.2177734 67.084073,63.2177734 57.8233308,63.2177734 C35.319099,56.8995768 22.212491,52.3556315 18.5035066,49.5859375 C12.94003,45.4313965 8.54794019,42.5163574 5.88461011,40.5822754 C3.22128003,38.6481934 1.63241285,38.466567 0.594082769,34.6140137 C-0.0693330688,31.9036646 -0.116803547,11.9400603 0.157315191,9.78491211 Z"/>
    <path fill="url(#com.apps.mgba-g)" d="M17.0088777,8.51782227 C16.1690339,9.31811523 15.3177156,15.5786133 14.90878,23.59375 C14.4998445,31.6088867 14.6404695,39.8203125 17.0088777,42.2783203 C19.3772859,44.7363281 32.8981599,52.6356201 39.6401033,54.260376 C46.3820466,55.8851318 58.1966218,55.9326172 58.9297761,54.6491699 C59.6629304,53.3657227 60.1612214,41.0070257 59.5454988,33.0199923 C58.9297761,25.032959 60.1490144,18.0844727 55.6975984,16.3308105 C52.7299877,15.1617025 42.0704011,12.6867676 23.7188386,8.90600586 C19.8054272,8.11368815 17.5687735,7.98429362 17.0088777,8.51782227 Z"/>
    <path fill="url(#com.apps.mgba-h)" d="M17.8487214,11.5063477 C17.8487214,12.5712891 16.4620027,35.5300293 17.8487214,37.7458496 C19.2354402,39.9616699 53.8284578,50.2270508 55.3540925,49.84729 C56.8797273,49.4675293 57.163907,21.8908691 56.3238191,19.9082031 C55.4837312,17.9255371 17.8487214,10.4414063 17.8487214,11.5063477 Z"/>
    <path stroke="#937D95" d="M17.232402,29.0128174 C17.5753459,29.024665 17.8386674,28.8461779 18.0223665,28.477356 C19.824855,24.8584078 21.0315509,22.8440505 21.4737214,21.6152344 C22.2383699,19.4902344 23.0975007,18.0754395 24.0745515,19.0769043 C25.0516023,20.0783691 30.2373933,37.46875 32.1116609,38.3300781 C33.9859285,39.1914062 37.3349275,25.6704102 39.1477937,24.3632813 C40.9606599,23.0561523 44.1371736,25.5373916 45.2596101,30.7734375 C46.3820466,36.0094834 48.0993904,43.8696072 49.7461824,44.1000977 C51.5419587,44.3514404 52.3676149,39.6075713 54.0238923,36.4624023 C54.8840092,34.8290934 55.1188433,32.836907 55.5959488,32.836907" opacity=".376"/>
    <path stroke="#5B51CB" d="M17.553769,36.6429749 C18.2601289,36.5261841 21.696866,33.9460449 22.7078523,31.6088867 C23.7188386,29.2717285 26.754239,18.9902344 29.43295,18.5705566 C32.1116609,18.1508789 34.0762605,26.438234 37.1751375,35.2783203 C40.2740144,44.1184066 40.1387954,44.1184066 42.7007897,44.1184066 C45.2627839,44.1184066 51.5027742,36.7682561 52.3682527,33.0199923 C53.2337312,29.2717285 53.68053,25.3175049 56.7886843,25.3175049" opacity=".376"/>
    <circle cx="67.246" cy="38.772" r="3.5" fill="#D8D6FA"/>
    <circle cx="76.246" cy="38.772" r="3.5" fill="#D8D6FA"/>
    <path fill="#31008F" d="M62.7461824,54.260376 L73.7627839,54.9725342 L73.7627839,55.8851318 L62.7461824,55.1729736 L62.7461824,54.260376 Z M62.7461824,52.5533447 L73.7627839,53.2655029 L73.7627839,54.1781006 L62.7461824,53.4659424 L62.7461824,52.5533447 Z M62.7461824,50.8463135 L73.7627839,51.3468018 L73.7627839,52.2593994 L62.7461824,51.7589111 L62.7461824,50.8463135 Z M62.7461824,49.1392822 L73.7627839,49.6427002 L73.7627839,50.5552979 L62.7461824,50.0518799 L62.7461824,49.1392822 Z M62.7461824,47.2717285 L73.7627839,47.7751465 L73.7627839,48.6877441 L62.7461824,48.1843262 L62.7461824,47.2717285 Z"/>
    <polygon fill="#D8D6FA" points="1.746 22.272 1.746 18.957 4.746 19.485 4.746 16.32 8.733 16.983 8.733 20.267 11.746 20.994 11.746 25.069 8.733 24.125 8.733 27.947 4.746 27.029 4.801 23.132"/>
    <path fill="#D8D8D8" d="M46.7461824,29.3500977 L54.7461824,31.7453003 L54.7461824,40.5596313 L52.7358064,39.887207 L52.7358064,36.7592773 L49.7461824,35.8311768 L49.7461824,39.0789795 L46.7461824,38.3250732 L46.7461824,29.3500977 Z M36.7461824,26.8380127 L44.7461824,28.9333496 L44.7461824,32.369873 L44.2116365,32.9518433 L44.7461824,33.7537231 L44.7461824,37.770813 L36.7461824,35.2717285 L36.7461824,26.8380127 Z M28.7461824,24.5116577 L35.7461824,26.2717285 L35.7461824,26.2717285 L35.7461824,28.0715332 C35.7461824,28.0715332 34.0795157,27.6037394 30.7461824,26.6681519 L30.7461824,26.6681519 L30.7461824,31.7639771 L33.7461824,32.6411743 L33.7461824,30.9810181 L32.7461824,30.630364 L32.7461824,29.0482107 L35.7461824,29.8095703 L35.7461824,35.1367187 L28.7461824,32.5182495 L28.7461824,24.5116577 Z M39.7461824,33.0199923 L39.7461824,34.1642522 L42.7461824,35.0199923 L42.7461824,33.8757324 L39.7461824,33.0199923 Z M49.7461824,32.2717285 L49.7461824,33.2717285 L52.7461824,34.2717285 L52.7461824,33.2717285 L49.7461824,32.2717285 Z M19.7461824,22.9310913 L27.7461824,25.2304687 L27.7461824,32.369873 L26.7461824,32.0818481 L26.7461824,26.6306763 L25.7461824,26.2717285 L25.7461824,31.6088867 L23.7461824,30.8602905 L23.7461824,25.8427124 L21.7461824,25.2717285 L21.7461824,30.5856628 L19.7461824,29.7597046 L19.7461824,22.9310913 Z M39.7461824,29.2717285 L39.7461824,30.4159884 L42.7461824,31.2717285 L42.7461824,30.1274686 L39.7461824,29.2717285 Z"/>
    <polygon fill="#9E6CFC" points="11.746 33.908 6.746 31.272 6.746 33.657 11.746 36.272"/>
    <polygon fill="#9E6CFC" points="11.746 37.908 6.746 35.272 6.746 37.657 11.746 40.272"/>
    <path fill="#2A1E4C" d="M41.1034211,5.41918945 C41.0244291,5.73812937 41.2177232,6.06101883 41.5361518,6.14204745 L46.3325317,7.36255354 C46.7102378,7.45866615 47.0958702,7.23686916 47.2027253,6.86206055 C47.3023129,6.51274405 47.0998675,6.14883546 46.750551,6.04924795 C46.737441,6.04551038 46.724218,6.04218132 46.710901,6.0392656 L41.8262726,4.96978335 C41.5033734,4.89908503 41.1828872,5.09833541 41.1034211,5.41918945 Z"/>
    <ellipse cx="11.746" cy="34.772" fill="#D8D6FA" rx="1" ry="1.5"/>
    <ellipse cx="11.746" cy="38.772" fill="#D8D6FA" rx="1" ry="1.5"/>
    <ellipse cx="65.54" cy="25.318" fill="#67D047" rx="1" ry="1"/>
  </g>
</svg>
