<svg xmlns="http://www.w3.org/2000/svg" width="96" height="96" viewBox="0 0 96 96">
  <defs>
    <filter id="com.apps.joplin-b" width="130.8%" height="130.8%" x="-15.4%" y="-15.4%" filterUnits="objectBoundingBox">
      <feOffset dy="2" in="SourceAlpha" result="shadowOffsetOuter1"/>
      <feGaussianBlur in="shadowOffsetOuter1" result="shadowBlurOuter1" stdDeviation="2"/>
      <feColorMatrix in="shadowBlurOuter1" result="shadowMatrixOuter1" values="0 0 0 0 0   0 0 0 0 0   0 0 0 0 0  0 0 0 0.2 0"/>
      <feMerge>
        <feMergeNode in="shadowMatrixOuter1"/>
        <feMergeNode in="SourceGraphic"/>
      </feMerge>
    </filter>
    <linearGradient id="com.apps.joplin-a" x1="50%" x2="50%" y1="0%" y2="93.807%">
      <stop offset="0%" stop-color="#1389EC"/>
      <stop offset="100%" stop-color="#0058BB"/>
    </linearGradient>
  </defs>
  <g fill="none" fill-rule="evenodd">
    <g fill="url(#com.apps.joplin-a)" fill-rule="nonzero" filter="url(#com.apps.joplin-b)" transform="translate(9 9)">
      <rect width="78" height="78" rx="18"/>
    </g>
    <path fill="#FFF" fill-rule="nonzero" d="M67,23 L67,31 L61.9998398,31 L62.0007855,33.6326297 C62.0008329,33.8358855 62.0008793,34.0377929 62.0009248,34.2383519 L62.0018258,38.7928834 C62.0018555,38.9718686 62.0018841,39.1495055 62.0019118,39.325794 L62.0019118,50.9626812 C62.0018841,51.0634614 62.0018555,51.1628932 62.0018258,51.2609767 L62.0009248,53.3560951 C62.0008793,53.4326048 62.0008329,53.5077661 62.0007855,53.5815791 L62,54.5876465 C61.9978857,56.8135452 62.1693501,58.7260742 61.6640625,62 C61.1587749,65.2739258 57.892334,69.0610352 56.5,70 C55.107666,70.9389648 51.4128418,74.244873 43.6323242,73 C32.0815191,71.1518857 28.6108398,61.9639953 28.6108398,57 C28.6108398,52.0360047 31.2729744,47.0273438 36,44.4726563 C38.9565331,42.8748189 42.6231997,42.2064432 47,42.4675293 L47,52.3154297 C42.7205404,51.4064128 40.0538737,51.9679362 39,54 C37.4191895,57.0480957 37.8574219,64 47.5,64 C49.1793001,64 50.9035597,63.6586114 51.651123,61 C52.1352858,59.2781381 52.2515782,53.8019825 52,44.5715332 L51.9998398,31 L46,31 L46,23 L67,23 Z"/>
  </g>
</svg>
