<svg xmlns="http://www.w3.org/2000/svg" width="96" height="96" viewBox="0 0 96 96">
  <defs>
    <filter id="com.apps.mr.dclutterer-a" width="129.6%" height="129.3%" x="-14.8%" y="-14.6%" filterUnits="objectBoundingBox">
      <feOffset dy="2" in="SourceAlpha" result="shadowOffsetOuter1"/>
      <feGaussianBlur in="shadowOffsetOuter1" result="shadowBlurOuter1" stdDeviation="2"/>
      <feColorMatrix in="shadowBlurOuter1" result="shadowMatrixOuter1" values="0 0 0 0 0   0 0 0 0 0   0 0 0 0 0  0 0 0 0.2 0"/>
      <feMerge>
        <feMergeNode in="shadowMatrixOuter1"/>
        <feMergeNode in="SourceGraphic"/>
      </feMerge>
    </filter>
  </defs>
  <g fill="none" fill-rule="evenodd" filter="url(#com.apps.mr.dclutterer-a)" transform="translate(8.33 8.692)">
    <ellipse cx="40.416" cy="40.806" fill="#FFF" rx="39.863" ry="40.806"/>
    <path fill="#000" d="M32.9747963,39.0676619 C32.0243429,36.7372502 31.5695151,34.4850582 31.5094436,32.1663232 C31.4887632,31.3638681 31.3250083,30.3683961 32.4047493,30.0995512 C33.414993,29.8481509 33.6773665,30.7580877 34.0301992,31.4319586 C35.7078423,34.6369957 38.0198246,37.2659364 41.0767226,39.2228351 C41.8191061,39.6980618 42.5747137,40.1403687 43.7513852,40.3428114 C42.6278919,37.4396797 42.9496336,34.692284 44.0261389,32.0059447 C44.3259341,31.2577932 44.5151525,30.2875035 45.5759013,30.2936935 C46.7209192,30.3003056 46.7026304,31.3538796 46.9325062,32.1054075 C48.2345261,36.3640185 49.7983569,40.4867299 52.8138941,43.8885823 C54.2990832,45.5641153 56.0809723,46.7006921 58.3586279,46.9090435 C59.1472961,46.9810731 59.8764554,47.1754968 59.7821979,48.126935 C59.6883624,49.0733087 58.9134812,49.073168 58.1419763,49.0914568 C57.5263481,49.1060878 56.5926359,48.4512091 56.3724672,49.614797 C56.1811385,50.6260255 55.4697053,51.7752638 56.8274356,52.5772968 C57.0146845,52.6878736 57.1569149,52.8723088 57.3322058,53.0063796 C59.7114344,54.824987 60.6502112,54.6750191 61.7998715,51.9642009 C65.9355258,42.2116426 67.9325191,32.1214453 66.4079388,21.49806 C65.0655429,12.1443376 59.7585632,6.43205049 50.7340386,3.79551288 C42.6758647,1.44118511 34.903277,1.66698111 27.3145618,5.39957893 C26.6055202,5.74819107 25.8088331,6.16376826 25.2967475,5.2019195 C24.7169934,4.11303411 25.6319948,3.74402296 26.3794428,3.37698136 C35.5521064,-1.1262772 44.8007387,-0.890070667 54.2160803,2.69087102 C63.6924781,6.29488469 67.9163405,13.5648125 68.9351659,23.1429241 C69.990006,33.0588153 68.0021571,42.5284604 64.447101,51.7348878 C64.2090656,52.3515008 63.8584839,52.9242208 63.5773996,53.5253587 C62.0868646,56.7129511 60.3715184,57.4878323 56.7635656,55.2394387 C55.2216814,54.2785747 54.8182029,54.4845345 53.9871892,55.9511533 C51.686743,60.0111202 48.0401024,62.4101851 43.5852388,63.6349701 C43.0540203,63.7811396 42.5154863,63.9011421 41.8103837,64.0750262 C42.229478,64.7829423 42.5962382,65.4278326 42.9870552,66.0578105 C44.7471386,68.8943991 45.5923612,72.0220606 45.94027,75.3078496 C46.0262272,76.1191677 46.027634,76.9870403 44.9743414,77.0884727 C43.9207674,77.1900457 43.7771302,76.3463706 43.6959562,75.5280183 C43.3688685,72.2305526 42.3929515,69.1625407 40.5547891,66.4411713 C40.0099244,66.4255555 39.9597006,66.8277678 39.7832843,67.0804342 C38.0735654,69.530567 35.3842718,69.7279451 33.551174,67.3902179 C32.7591295,66.3803963 32.4984441,66.4581939 31.9087015,67.4962928 C30.514675,69.9496613 29.7746831,72.5891532 29.4204437,75.3559632 C29.3136654,76.191338 29.3672656,77.2211366 28.1749783,77.0787656 C26.9411895,76.9314706 27.1156363,75.8856342 27.2180534,74.9851231 C27.6119654,71.521933 28.6310721,68.2704706 30.6054155,65.3747952 C31.2048652,64.4956679 31.2546669,64.183774 30.0421213,63.9468641 C24.4788173,62.8596669 20.2753539,59.9161593 17.9637938,54.6135407 C17.566646,53.702197 17.1879278,53.5702365 16.3947578,54.0840103 C15.6499827,54.5664119 14.9517736,55.0817332 14.2945032,55.6890612 C12.8188807,57.0524188 10.6909116,56.5663595 10.1883924,54.6672815 C6.98448081,42.5594106 6.21480485,30.5310255 11.7000298,18.7863978 C13.7883263,14.3150742 16.7059483,10.4516413 20.4158961,7.1906125 C20.9845363,6.69062559 21.6086055,6.20344083 22.2917615,6.88772229 C23.049198,7.64628431 22.545272,8.30102237 21.9179671,8.85390603 C11.8038538,17.7703861 9.34710887,29.3809431 10.2225783,42.1511489 C10.4693361,45.7482691 11.1450359,49.2818007 11.9619813,52.7908534 C12.205644,53.837956 12.3774178,54.5865295 13.5006298,53.3579461 C14.205451,52.587004 15.164064,52.0722454 16.1543307,51.6954966 C16.7518109,51.4682938 16.9233033,51.0681917 16.7129824,50.5278288 C16.4365406,49.8179431 16.0045035,50.4328679 15.647591,50.4645216 C15.2114742,50.50335 14.7774675,50.6599301 14.3468373,50.6447363 C13.7990182,50.6256034 13.4134064,50.3072381 13.3540383,49.7196058 C13.2977651,49.1622203 13.4923295,48.6795373 14.0688479,48.5716336 C16.3657771,48.1417067 17.036553,46.2488188 17.7282906,44.4527206 C18.8537536,41.5305968 19.2053201,38.4397942 19.386801,35.3388625 C19.551822,32.5195778 19.6659158,29.6953693 19.522982,26.8689098 C19.4813398,26.045915 19.569126,25.2156048 20.5930159,25.1195184 C21.5367165,25.0308882 21.6996273,25.8212445 21.8930662,26.5418222 C23.1082848,31.0692782 25.3503477,34.9110459 29.3430681,37.5605263 C30.3924216,38.2567658 31.5053638,38.8152768 32.9747963,39.0676619"/>
    <path fill="#AFAFAF" d="M18.1550803,73.5256228 C25.036864,77.9441903 32.531181,80.3355176 40.7446688,80.2326785 C49.4352122,80.1239306 57.2601339,77.4344962 64.1932669,72.1757707 C64.6316348,71.8431964 65.1020783,71.553249 65.5578908,71.2434653 C66.0817937,71.1454094 66.1563557,71.4986641 66.202359,71.8834317 C65.0079614,73.7507154 63.1439134,74.7701034 61.2642497,75.7689518 C50.7314641,82.185216 39.5463322,83.1329964 27.8460195,79.7643452 C25.0294078,78.7967284 22.3290002,77.5761639 19.7888304,76.0107856 C19.2349619,75.5738247 18.589931,75.2570068 18.0768606,74.7736205 C17.530167,74.2581585 17.5564747,74.1602432 18.1550803,73.5256228"/>
    <path fill="#F3F3F3" d="M79.8775636,34.731225 C79.3100489,31.7576113 79.1718984,28.7024015 78.1661565,25.8116499 C77.6480215,24.3229438 77.1566163,22.824812 76.653253,21.3309006 C76.8001259,21.2740648 76.9471395,21.2172289 77.0941531,21.1605337 C77.8031948,23.0193764 78.708911,24.8292615 79.1894837,26.7455028 C82.3006853,39.1496518 81.6949049,51.2132076 75.3129673,62.5701134 C73.2792558,66.1891801 70.4250818,69.2449527 67.4739773,72.1677799 C67.2524018,72.3872452 66.8943639,72.4691226 66.5996333,72.6148701 C66.3317731,72.4270584 66.1154029,72.2078745 66.1320035,71.8464602 C66.1927785,71.2872459 66.4973569,70.9151397 66.9246107,70.5438776 C68.8104646,68.9054849 70.414812,66.9986693 71.9801902,65.0623104 C73.3840645,63.3070102 74.5189532,61.3779668 75.5988349,59.4134712 C76.3403743,57.897332 76.9599416,56.3270298 77.657588,54.7910543 C78.6401171,52.9540174 78.613106,50.8201397 79.3855956,48.9203583 C80.2177348,44.2131096 80.2327879,39.4785684 79.8775636,34.731225"/>
    <path fill="#E9E9E9" d="M35.365997,81.5763546 C30.1660769,81.9156817 25.6141421,79.8071269 21.2180839,77.5121673 C15.1950283,74.3677645 10.2992646,69.8625364 6.62856723,64.0914438 C6.2716548,63.5304006 5.89378062,62.9852545 5.77124584,62.3136345 C5.89082628,62.1958829 6.03333802,62.135952 6.20117268,62.1442523 C7.69663155,63.2991179 8.25556458,65.2187357 9.69404689,66.4201673 C12.0504849,69.6619226 15.4652801,71.795941 18.249394,74.5903248 C18.68326,75.0257383 19.3136599,75.1683907 19.8105518,75.5178469 C22.2225596,77.0863202 24.7931169,78.328972 27.5218018,79.246787 C29.8373011,80.2250957 32.2818066,80.6931476 34.7444601,81.0880444 C35.0508674,81.1371427 35.4360571,81.0592044 35.365997,81.5763546"/>
    <path fill="#C2C2C2" d="M35.365997,81.5763546 C33.4985727,81.1417852 31.628616,80.717345 29.764568,80.2682853 C28.9124519,80.063029 28.04472,79.8753581 27.3491839,79.278722 C27.457369,79.119047 27.5780749,79.1089178 27.7110202,79.2486159 C31.9706161,80.448078 36.2658047,81.3788358 40.735018,81.2640386 C47.4309597,81.0919835 53.6975373,79.3970363 59.5251843,76.0961942 C60.1021248,75.7693879 60.6374231,75.370552 61.3263471,75.310199 C61.5639604,76.5000947 60.4874552,76.6026525 59.855367,76.951546 C55.3224244,79.4542942 50.5269675,81.1707659 45.3211387,81.5780428 L45.3233897,81.5771987 C42.1120219,81.8706631 38.9003727,81.8550473 35.6884422,81.5847956 C35.5809605,81.5787462 35.4736194,81.5759325 35.365997,81.5763546"/>
    <path fill="#E9E9E9" d="M45.3210965,81.5780709 C48.9196236,80.7065406 52.608469,80.1176421 55.9804966,78.5011959 C57.8507347,77.604624 59.9706848,77.0839568 61.3261642,75.3099458 C62.9966326,74.3689181 64.4649396,73.1529961 65.9274787,71.9290552 C66.0560629,71.7750074 66.1738144,71.7900605 66.2819995,71.9518458 C66.3879337,72.1728586 66.4937273,72.3938713 66.5996614,72.6148841 C61.756091,76.7330937 56.273117,79.6027428 50.0967171,81.1616496 C48.5129094,81.5613297 46.9299458,81.6347661 45.3210965,81.5780709"/>
    <path fill="#E6E6E6" d="M1.10648335,45.3403451 C1.22901813,46.6620606 1.35155291,47.9837762 1.473947,49.3054917 C1.75038883,51.0364537 2.3467435,52.6848348 2.78271971,54.3748581 C2.77315327,54.643281 2.67551936,54.8642938 2.44100102,55.0118701 C1.18104527,53.1537308 0.982682429,50.9573899 0.69808099,48.8540404 C-0.269676448,41.7021455 -0.430617648,34.5551745 1.51572981,27.5034458 C1.58719671,27.24473 1.68891042,26.9943145 2.05806226,26.784275 C1.8204489,28.1228725 1.55779399,29.4578122 1.35225632,30.8013336 C1.13546402,32.2174473 0.972975311,33.642002 0.786851879,35.062899 C0.431486958,38.074075 0.685278849,41.0945362 0.659533885,44.1106362 C0.655735447,44.5452055 0.875341402,44.9595166 1.10648335,45.3403451"/>
    <path fill="#B7B7B7" d="M19.7120035 75.6136238C15.5525738 73.463849 12.2445569 70.3357654 9.41880086 66.6538134 9.24252523 66.3247562 8.97536846 66.0601317 8.77222241 65.752599 8.54698914 65.411443 8.40911993 65.051717 9.05246268 65.0182344 11.6792932 68.2900959 14.8404372 70.9903628 18.1549255 73.5260308 18.0502575 74.9068331 19.6928706 74.6689384 20.0756687 75.5982894 19.9611528 75.7603561 19.8394621 75.7582458 19.7120035 75.6136238M66.2820136 71.9518739C66.16384 71.944277 66.0456664 71.9368209 65.9274928 71.9290833 65.8042546 71.7006143 65.6811571 71.4721453 65.5579189 71.2436764 67.7261232 69.3050665 69.7587093 67.2374504 71.5579025 64.9474147 71.9371835 64.8070132 72.1619947 64.9768174 72.3015521 65.317692 70.6209546 67.8248013 68.184046 69.6456597 66.2820136 71.9518739"/>
    <path fill="#D9D9D9" d="M79.8775636,34.731225 C79.8889589,34.6774842 79.883613,34.6084089 79.9156887,34.5733789 C79.9713991,34.5123225 80.0501815,34.4723686 80.1192568,34.4235516 C80.1428915,34.4695549 80.18791,34.5159803 80.1870659,34.5614208 C80.1030783,39.3876872 80.6753762,44.2360409 79.7019914,49.0317791 C79.6810297,49.1353217 79.6040761,49.227469 79.5531489,49.3248215 C79.0302307,48.8650699 79.6610527,48.1871192 79.2474451,47.7066872 C79.9981288,43.4078408 79.9380573,39.0694626 79.8775636,34.731225"/>
    <path fill="#C2C2C2" d="M9.05253302 65.0181641C8.76905704 65.6541913 9.40972682 66.0829927 9.4188712 66.6536024 7.89879283 65.5225122 7.03092023 63.8949521 6.11183906 62.3063612 5.76393033 61.6580945 5.17643868 61.1192791 5.19683769 60.3026151 5.31233833 60.059093 5.46343173 59.8804258 5.77124584 59.9869227 6.86505513 61.6640032 7.95872373 63.3410836 9.05253302 65.0181641M72.3015662 65.3177342C72.053683 65.1943553 71.8059404 65.0709764 71.5579165 64.9474569 72.7915646 63.0751086 74.025494 61.202901 75.2592827 59.3305528 75.6084576 59.1584976 75.7623647 59.3717728 75.8844774 59.6475113 74.7957327 61.6044099 73.8687733 63.663163 72.3015662 65.3177342"/>
    <path fill="#D1D1D1" d="M2.45945862,54.3342992 C1.87829769,52.7077239 1.17305448,51.1056274 1.47397514,49.3058715 C2.53472395,51.3266402 2.87855287,53.6026076 3.74572206,55.6925923 C3.66271917,55.9742394 3.74515933,56.3536611 3.31087132,56.4273789 C2.62222869,55.8943315 2.78851584,55.0136568 2.45945862,54.3342992"/>
    <path fill="#D3D3D3" d="M79.2475013,47.7066872 C79.5734635,48.2038604 79.5548934,48.7663105 79.5533459,49.3251029 C78.9038131,50.6037695 79.2437029,52.0983842 78.6495991,53.4019517 C78.4064992,53.934999 78.3402375,54.5483763 77.8932881,54.9859001 C77.5324365,54.7439255 77.8907558,54.2678547 77.5759075,54.0109678 C78.1331523,51.9095878 78.6902565,49.8082078 79.2475013,47.7066872"/>
    <path fill="#D8D8D8" d="M2.45945862 54.3342992C2.78767174 54.9998699 3.11588487 55.6654405 3.444098 56.3310112 4.33926308 57.5460891 4.98007353 58.8875002 5.42674164 60.3252791 5.65506993 60.9856445 5.88339822 61.6460098 6.1118672 62.3063752 5.99833612 62.3087668 5.88494573 62.3111584 5.77141466 62.3136907 4.38765798 60.0043815 3.17412758 57.617556 2.44116984 55.0116872 2.44721921 54.7858912 2.45340925 54.5600952 2.45945862 54.3342992M1.10648335 45.3403451C.923314259 45.0741731.585956746 44.8112368.580470114 44.5414071.515896678 41.3799817.119733726 38.2081458.786851879 35.062899.899116806 38.4885268.524478333 41.9293483 1.10648335 45.3403451"/>
    <path fill="#C8C8C8" d="M77.5759356,54.0109678 C77.6817292,54.3360859 77.7876634,54.6610633 77.8934569,54.9860407 C77.2238064,56.539883 76.5542967,58.0937253 75.8846462,59.6474268 C75.6760135,59.541774 75.4675215,59.4361212 75.2591702,59.3304683 C76.0313785,57.5573015 76.8037274,55.7841346 77.5759356,54.0109678"/>
    <path fill="#E9E9E9" d="M35.6884422,81.5847393 C38.9000913,81.582207 42.1117405,81.5798154 45.3233897,81.5772831 C42.1121625,82.143813 38.9005134,82.1355127 35.6884422,81.5847393"/>
    <path fill="#C8C8C8" d="M5.4267135,60.3252791 C4.56925143,59.0913497 3.91690498,57.7558472 3.44406986,56.3310112 C3.54465811,56.1180173 3.64538704,55.9051641 3.74583461,55.6923109 C4.420831,57.1240405 5.09596808,58.5554886 5.77124584,59.9869368 C5.65630794,60.0996238 5.54151072,60.2124514 5.4267135,60.3252791"/>
    <path fill="#FEFEFE" d="M34.671094,37.4535933 C35.680775,37.3171309 35.9444147,37.9915645 36.3424065,38.3828036 C38.7660909,40.7652679 41.5915656,42.4213866 44.90113,43.2172296 C45.5797842,43.3804217 46.3449583,43.6987871 46.9095186,43.0022662 C47.5061547,42.2662134 46.9321686,41.6564939 46.5666745,41.0552153 C45.5866776,39.4441151 45.2035982,37.7101988 45.4153259,35.6989965 C46.1433597,36.151714 46.1482836,36.8887516 46.3937752,37.445715 C48.1285357,41.3807555 50.1006281,45.1360032 53.8046673,47.6242611 C54.5615411,48.132689 54.2901639,48.7903814 54.1843703,49.4085419 C53.0486376,56.0462409 48.3961145,60.5679289 41.2298699,61.8416716 C36.5321877,62.6766244 31.8712236,62.5598576 27.3437676,60.7855653 C22.2897356,58.8048912 18.8278117,53.8408963 18.7961796,48.4241839 C18.7941884,48.0467317 18.818808,47.6280595 18.9755287,47.2967514 C21.0320308,42.9459931 21.5296261,38.2860138 21.7521864,33.5672291 C21.7613308,33.3715392 21.676077,33.1100098 22.1007985,32.9629962 C23.6685684,35.3038184 25.3715345,37.5799265 27.8030972,39.1956692 C29.9611723,40.629931 32.3063557,41.5400085 34.8468069,41.9664183 C35.490009,42.074322 36.2119935,42.2511604 36.6513461,41.541556 C37.0949191,40.8254802 36.6040766,40.3129725 36.2032711,39.7651534 C35.6834479,39.0548456 35.22651,38.2986752 34.671094,37.4535933"/>
    <path fill="#FAFAFA" d="M36.5523194,64.5073024 C37.1185679,64.8027364 38.1471004,64.1325232 38.204921,64.9913921 C38.2600687,65.8086189 37.6613224,66.7130691 36.5634333,66.6881682 C35.5349009,66.6649555 34.771837,65.8753026 34.8272661,65.0400684 C34.8953566,64.0188515 35.9981696,64.8694201 36.5523194,64.5073024"/>
    <path fill="#B7B7B7" d="M19.7120035,75.6136238 C19.8331314,75.6085593 19.9544,75.6034947 20.075528,75.5984301 C22.6209031,76.8151962 25.1659968,78.0319623 27.7110906,79.2487284 C27.590666,79.2585762 27.4701008,79.268424 27.3493949,79.2785532 C24.553745,78.5773898 22.0342555,77.3009741 19.7120035,75.6136238"/>
    <path fill="#020202" d="M47.9639789,49.8578689 C46.6844683,49.8129911 45.6812587,48.7442233 45.7136158,47.4606329 C45.7466763,46.1503126 46.7655016,45.2125206 48.1169012,45.2486761 C49.4970001,45.2855351 50.3689525,46.2189659 50.3246374,47.6124297 C50.2821512,48.9538408 49.2830215,49.9042942 47.9639789,49.8578689"/>
    <path fill="#010101" d="M26.1836967,47.4435258 C26.2215404,48.7776214 25.2862807,49.8051691 23.9884812,49.8551115 C22.6654996,49.9061794 21.673404,48.9697942 21.6281041,47.627117 C21.580694,46.2222579 22.4291524,45.296846 23.8070003,45.2499986 C25.1742971,45.2035732 26.1455716,46.1000044 26.1836967,47.4435258"/>
    <path fill="#0B0B0B" d="M36.5501247,59.0076152 C34.8481434,58.9984708 33.2920502,57.6685957 33.096079,56.0496173 C33.049935,55.6683667 32.9639778,55.2267632 33.4396266,55.066244 C33.9795674,54.8839191 34.0855016,55.3296024 34.1652688,55.7069138 C34.436224,56.9898009 35.1932385,57.8270046 36.5107335,57.856548 C37.9143265,57.8882017 38.7197359,57.0321464 38.9912538,55.6768077 C39.0608919,55.3291803 39.1807537,54.9857734 39.5835287,55.0337463 C40.1054621,55.0960688 40.0563638,55.5480829 40.0439837,55.9338353 C39.9919311,57.5577376 38.3318732,59.0171817 36.5501247,59.0076152"/>
  </g>
</svg>
