<svg xmlns="http://www.w3.org/2000/svg" width="96" height="96" viewBox="0 0 96 96">
  <defs>
    <filter id="com.apps.flacon-a" width="128.6%" height="128.6%" x="-14.3%" y="-14.3%" filterUnits="objectBoundingBox">
      <feOffset dy="2" in="SourceAlpha" result="shadowOffsetOuter1"/>
      <feGaussianBlur in="shadowOffsetOuter1" result="shadowBlurOuter1" stdDeviation="2"/>
      <feColorMatrix in="shadowBlurOuter1" result="shadowMatrixOuter1" values="0 0 0 0 0   0 0 0 0 0   0 0 0 0 0  0 0 0 0.2 0"/>
      <feMerge>
        <feMergeNode in="shadowMatrixOuter1"/>
        <feMergeNode in="SourceGraphic"/>
      </feMerge>
    </filter>
    <linearGradient id="com.apps.flacon-b" x1="50%" x2="50%" y1="0%" y2="100%">
      <stop offset="0%" stop-color="#FFA84F"/>
      <stop offset="100%" stop-color="#E27C3E"/>
    </linearGradient>
    <linearGradient id="com.apps.flacon-c" x1="50%" x2="50%" y1="0%" y2="100%">
      <stop offset="0%" stop-color="#B3CBD6"/>
      <stop offset="100%" stop-color="#7C9BAD"/>
    </linearGradient>
    <linearGradient id="com.apps.flacon-d" x1="50%" x2="50%" y1="0%" y2="100%">
      <stop offset="0%" stop-color="#496574"/>
      <stop offset="100%" stop-color="#233540"/>
    </linearGradient>
    <linearGradient id="com.apps.flacon-e" x1="50%" x2="50%" y1="0%" y2="100%">
      <stop offset="0%" stop-color="#648696"/>
      <stop offset="100%" stop-color="#344E5D"/>
    </linearGradient>
    <linearGradient id="com.apps.flacon-f" x1="50%" x2="50%" y1="0%" y2="100%">
      <stop offset="0%" stop-color="#F8E891"/>
      <stop offset="100%" stop-color="#EFCC58"/>
    </linearGradient>
  </defs>
  <g fill="none" fill-rule="evenodd" filter="url(#com.apps.flacon-a)" transform="translate(5 6.5)">
    <circle cx="42" cy="42" r="42" fill="url(#com.apps.flacon-b)"/>
    <rect width="48" height="48" x="19" y="17.5" fill="#F2F2F2" rx="8"/>
    <circle cx="60.5" cy="25" r="4" fill="url(#com.apps.flacon-c)"/>
    <circle cx="60.5" cy="25" r="2.5" fill="#F2F2F2"/>
    <path fill="url(#com.apps.flacon-c)" d="M43,24.5 C52.9411255,24.5 61,32.5588745 61,42.5 C61,52.4411255 52.9411255,60.5 43,60.5 C38.7382027,60.5 34.8223384,59.0188847 31.7390639,56.543311 L30.1821181,57.5807885 C29.7854955,57.8452036 29.2573755,57.7929094 28.9203111,57.455845 L26.544155,55.0796889 C26.2070906,54.7426245 26.1547964,54.2145045 26.4192115,53.8178819 L27.670769,51.9395564 C25.9771897,49.1951393 25,45.9616871 25,42.5 C25,32.5588745 33.0588745,24.5 43,24.5 Z"/>
    <circle cx="43" cy="42.5" r="15" fill="url(#com.apps.flacon-d)"/>
    <path fill="#355061" d="M43,27.5 C44.9050328,27.5 46.7271202,27.8551317 48.4036708,28.5028038 L45.4262695,38.5 L47,43.5 C52.0803905,46.5596453 55.2250034,48.4534762 56.4338388,49.1814925 C55.7912404,50.4700336 54.9694417,51.6528185 54.0006911,52.6973919 L45.7553711,44.5 L49.0717766,56.2202834 C47.2155166,57.0429679 45.1611311,57.5 43,57.5 C40.7860695,57.5 38.6841641,57.0203632 36.7925263,56.1593319 L39.2436523,41.7084961 L36.1674781,29.1429119 C38.216625,28.0926116 40.5391066,27.5 43,27.5 Z"/>
    <circle cx="43" cy="42.5" r="7" fill="url(#com.apps.flacon-b)"/>
    <circle cx="43" cy="42.5" r="4" fill="url(#com.apps.flacon-d)"/>
    <circle cx="43" cy="42.5" r="1" fill="#F2F2F2"/>
    <path fill="#EFC84A" d="M60.5,23.5 C61.3284271,23.5 62,24.1715729 62,25 C62,25.6744223 61.5549095,26.2448881 60.9424456,26.4336803 L60.1590911,35.1461265 L52.9916531,42.3702015 C52.9971599,42.4126888 53,42.4560127 53,42.5 C53,43.0522847 52.5522847,43.5 52,43.5 C51.4477153,43.5 51,43.0522847 51,42.5 C51,41.9477153 51.4477153,41.5 52,41.5 C52.1322699,41.5 52.2585418,41.5256802 52.3741021,41.5723267 L59.195,34.697 L59.942864,26.3931247 C59.3903061,26.1719468 59,25.6315539 59,25 C59,24.1715729 59.6715729,23.5 60.5,23.5 Z"/>
    <circle cx="52.5" cy="62" r="1.5" fill="url(#com.apps.flacon-e)"/>
    <circle cx="56.5" cy="62" r="1.5" fill="url(#com.apps.flacon-b)"/>
    <circle cx="60.5" cy="62" r="1.5" fill="url(#com.apps.flacon-f)"/>
  </g>
</svg>
