<svg xmlns="http://www.w3.org/2000/svg" width="96" height="96" viewBox="0 0 96 96">
  <defs>
    <filter id="com.apps.freedv-a" width="130.8%" height="130.8%" x="-15.4%" y="-15.4%" filterUnits="objectBoundingBox">
      <feOffset dy="2" in="SourceAlpha" result="shadowOffsetOuter1"/>
      <feGaussianBlur in="shadowOffsetOuter1" result="shadowBlurOuter1" stdDeviation="2"/>
      <feColorMatrix in="shadowBlurOuter1" result="shadowMatrixOuter1" values="0 0 0 0 0   0 0 0 0 0   0 0 0 0 0  0 0 0 0.2 0"/>
      <feMerge>
        <feMergeNode in="shadowMatrixOuter1"/>
        <feMergeNode in="SourceGraphic"/>
      </feMerge>
    </filter>
    <linearGradient id="com.apps.freedv-b" x1="50%" x2="50%" y1="0%" y2="100%">
      <stop offset="0%" stop-color="#4E4E4E"/>
      <stop offset="100%"/>
    </linearGradient>
    <linearGradient id="com.apps.freedv-c" x1="50%" x2="50%" y1="0%" y2="100%">
      <stop offset="0%" stop-color="#36D286"/>
      <stop offset="100%" stop-color="#057F33"/>
    </linearGradient>
    <linearGradient id="com.apps.freedv-d" x1="50%" x2="50%" y1="0%" y2="100%">
      <stop offset="0%" stop-color="#3C91FC"/>
      <stop offset="100%" stop-color="#043DE1"/>
    </linearGradient>
    <linearGradient id="com.apps.freedv-e" x1="50%" x2="50%" y1="1.765%" y2="100%">
      <stop offset="0%" stop-color="#EE7653"/>
      <stop offset="100%" stop-color="#730911"/>
    </linearGradient>
  </defs>
  <g fill="none" filter="url(#com.apps.freedv-a)" transform="translate(9 9)">
    <path fill="url(#com.apps.freedv-b)" d="M18,0 L60,0 C69.9411255,0 78,8.0588745 78,18 L78,60 C78,69.9411255 69.9411255,78 60,78 L18,78 C8.0588745,78 0,69.9411255 0,60 L0,18 C0,8.0588745 8.0588745,0 18,0 Z"/>
    <path fill="url(#com.apps.freedv-c)" d="M20,0 L20,78 L19,78 L19,0 L20,0 Z M23,0 L23,78 L22,78 L22,0 L23,0 Z M27,0 L27,78 L26,78 L26,0 L27,0 Z M29,0 L29,78 L28,78 L28,0 L29,0 Z M32,0 L32,78 L31,78 L31,0 L32,0 Z M35,0 L35,78 L34,78 L34,0 L35,0 Z M37,0 L37,78 L36,78 L36,0 L37,0 Z M43,0 L43,78 L42,78 L42,0 L43,0 Z M45,0 L45,78 L44,78 L44,0 L45,0 Z M49,0 L49,78 L48,78 L48,0 L49,0 Z M52,0 L52,78 L51,78 L51,0 L52,0 Z M54,0 L54,78 L53,78 L53,0 L54,0 Z M57,0 L57,78 L56,78 L56,0 L57,0 Z M60,0 L60,78 L59,78 L59,0 L60,0 Z"/>
    <path fill="url(#com.apps.freedv-d)" d="M38,0 L38,78 L37,78 L37,0 L38,0 Z M58,0 L58,78 L57,78 L57,0 L58,0 Z M51,0 L51,78 L50,78 L50,0 L51,0 Z M42,0 L42,78 L41,78 L41,0 L42,0 Z M36,0 L36,78 L35,78 L35,0 L36,0 Z M28,0 L28,78 L27,78 L27,0 L28,0 Z M24,0 L24,78 L23,78 L23,0 L24,0 Z M21,0 L21,78 L20,78 L20,0 L21,0 Z M31,0 L31,78 L30,78 L30,0 L31,0 Z"/>
    <rect width="1" height="78" x="40" fill="url(#com.apps.freedv-e)"/>
    <rect width="1" height="78" x="38" fill="url(#com.apps.freedv-e)"/>
  </g>
</svg>
