<svg xmlns="http://www.w3.org/2000/svg" width="96" height="96" viewBox="0 0 96 96">
  <defs>
    <filter id="com.apps.doublecmd-gtk-a" width="130%" height="131.6%" x="-15%" y="-15.8%" filterUnits="objectBoundingBox">
      <feOffset dy="2" in="SourceAlpha" result="shadowOffsetOuter1"/>
      <feGaussianBlur in="shadowOffsetOuter1" result="shadowBlurOuter1" stdDeviation="2"/>
      <feColorMatrix in="shadowBlurOuter1" result="shadowMatrixOuter1" values="0 0 0 0 0   0 0 0 0 0   0 0 0 0 0  0 0 0 0.2 0"/>
      <feMerge>
        <feMergeNode in="shadowMatrixOuter1"/>
        <feMergeNode in="SourceGraphic"/>
      </feMerge>
    </filter>
    <linearGradient id="com.apps.doublecmd-gtk-b" x1="50%" x2="50%" y1="0%" y2="100%">
      <stop offset="0%" stop-color="#FF9B7B"/>
      <stop offset="100%" stop-color="#B43418"/>
    </linearGradient>
    <linearGradient id="com.apps.doublecmd-gtk-c" x1="50%" x2="50%" y1="0%" y2="99.374%">
      <stop offset="0%" stop-opacity=".135"/>
      <stop offset="100%" stop-opacity=".404"/>
    </linearGradient>
    <linearGradient id="com.apps.doublecmd-gtk-d" x1="50%" x2="50%" y1="0%" y2="99.844%">
      <stop offset="0%" stop-color="#FFF"/>
      <stop offset="100%" stop-color="#C8C8C8"/>
    </linearGradient>
  </defs>
  <g fill="none" fill-rule="evenodd" filter="url(#com.apps.doublecmd-gtk-a)" transform="translate(8 10)">
    <rect width="76" height="76" x="2" fill="url(#com.apps.doublecmd-gtk-b)" rx="18"/>
    <path fill="url(#com.apps.doublecmd-gtk-c)" fill-rule="nonzero" d="M60,0 C69.9411255,0 78,8.0588745 78,18 L78,58 C78,67.9411255 69.9411255,76 60,76 L20,76 C10.0588745,76 2,67.9411255 2,58 L2,18 C2,8.0588745 10.0588745,0 20,0 L60,0 Z M60,1 L20,1 C10.719077,1 3.17520404,8.43719564 3.00300785,17.6769603 L3,18 L3,58 C3,67.280923 10.4371956,74.824796 19.6769603,74.9969921 L20,75 L60,75 C69.280923,75 76.824796,67.5628044 76.9969921,58.3230397 L77,58 L77,18 C77,8.71907696 69.5628044,1.17520404 60.3230397,1.00300785 L60,1 Z"/>
    <path fill="url(#com.apps.doublecmd-gtk-d)" d="M6.5,9 C22.7924001,9 36,22.2075999 36,38.5 C36,54.7924001 22.7924001,68 6.5,68 L0,68 L0,58 L6.5,58 C17.2695526,58 26,49.2695526 26,38.5 C26,27.8450171 17.4543188,19.185985 6.84300875,19.0029561 L6.5,19 L0,19 L0,9 L6.5,9 Z M80,9 L80,19 L73.5,19 L73.1569912,19.0029561 C62.5456812,19.185985 54,27.8450171 54,38.5 C54,49.2695526 62.7304474,58 73.5,58 L73.5,58 L80,58 L80,68 L73.5,68 C57.2075999,68 44,54.7924001 44,38.5 C44,22.2075999 57.2075999,9 73.5,9 L73.5,9 L80,9 Z"/>
  </g>
</svg>
