<svg xmlns="http://www.w3.org/2000/svg" xmlns:xlink="http://www.w3.org/1999/xlink" width="96" height="96" viewBox="0 0 96 96">
  <defs>
    <filter id="com.apps.broguece-a" width="130.8%" height="130.8%" x="-15.4%" y="-15.4%" filterUnits="objectBoundingBox">
      <feOffset dy="2" in="SourceAlpha" result="shadowOffsetOuter1"/>
      <feGaussianBlur in="shadowOffsetOuter1" result="shadowBlurOuter1" stdDeviation="2"/>
      <feColorMatrix in="shadowBlurOuter1" result="shadowMatrixOuter1" values="0 0 0 0 0   0 0 0 0 0   0 0 0 0 0  0 0 0 0.2 0"/>
      <feMerge>
        <feMergeNode in="shadowMatrixOuter1"/>
        <feMergeNode in="SourceGraphic"/>
      </feMerge>
    </filter>
    <rect id="com.apps.broguece-b" width="78" height="78" x="0" y="0" rx="18"/>
    <polygon id="com.apps.broguece-d" points="0 0 64.951 0 64.951 65 0 65"/>
  </defs>
  <g fill="none" fill-rule="evenodd" filter="url(#com.apps.broguece-a)" transform="translate(9 9)">
    <mask id="com.apps.broguece-c" fill="#fff">
      <use xlink:href="#com.apps.broguece-b"/>
    </mask>
    <use fill="#FFF" xlink:href="#com.apps.broguece-b"/>
    <g mask="url(#com.apps.broguece-c)">
      <g transform="translate(5.525 6.5)">
        <mask id="com.apps.broguece-e" fill="#fff">
          <use xlink:href="#com.apps.broguece-d"/>
        </mask>
        <path fill="#FEFEFE" d="M11.7370729,63.4939541 C15.371081,63.4939541 19.0434126,63.5356393 22.7130548,63.4468902 C23.2321028,63.4341157 23.8862915,62.8948974 24.2238071,62.4188794 C28.5422593,56.3294786 32.8203709,50.2104947 37.0957932,44.0901662 C39.1592106,41.1352235 41.5043392,38.3248342 43.1825046,35.1628102 C47.359765,27.2869969 42.9579424,19.4918647 34.1603484,18.7832163 C28.4804038,18.3260238 23.2986646,22.2908241 22.5362289,27.6776276 C21.6682355,33.8040072 24.7939531,38.3147491 31.001686,39.6560712 C27.6278743,44.0162086 24.3058328,48.3084394 21.1377577,52.4009847 C20.4123008,48.2364989 19.7924015,44.0101575 18.9223911,39.8355865 C17.6375456,33.6789516 15.7260776,27.5498826 16.7708969,21.2096983 C17.2435533,18.3414876 18.393258,15.3865449 19.9746062,12.9506501 C21.7805166,10.1691716 23.6987081,9.96612431 26.4156418,11.7041282 C30.9398306,14.5978878 35.3745979,14.5494792 39.9337485,11.949533 C40.5879372,11.5763832 41.2670025,11.0586799 41.9682551,10.9988415 C43.104513,10.9006796 44.4834862,10.7594878 45.3830797,11.2839145 C48.5807379,13.1476463 49.7479235,16.3419428 49.8292769,19.8253463 C49.9839155,26.4606887 49.9153366,33.1007375 49.9240771,39.7387693 C49.9328175,46.8817299 49.8870983,54.0246905 49.973158,61.1663064 C49.9825708,61.9435336 50.6582745,63.3514176 51.0959691,63.3810007 C54.0744438,63.5779968 57.0717441,63.483869 60.0791295,63.483869 C60.2008234,62.8357314 60.3151215,62.5143519 60.3137886,62.1929725 C60.2458703,47.910413 60.33193,33.6244919 60.0253421,19.3473111 C59.8639801,11.8325455 53.80349,4.07573673 47.2179008,1.78910185 C44.7221676,0.923125459 42.6506822,1.07373005 40.4501071,2.80702752 C34.053446,7.8442132 33.9539394,7.81194079 27.6614914,2.75458485 C25.832049,1.28484541 24.111526,0.971534077 21.8759891,1.6936293 C10.4071806,5.39957798 3.82898725,16.9652037 6.27429482,29.5332913 C7.6821788,36.7710521 9.43900824,43.9435957 10.7117515,51.2028714 C11.4002296,55.1333823 11.4015743,59.1849147 11.7370729,63.4939541 L11.7370729,63.4939541 Z M0,65 L64.950919,65 L64.950919,0 L0,0 L0,65 Z" mask="url(#com.apps.broguece-e)"/>
        <path fill="#231916" d="M33.7332768,25.1494202 C30.8859087,25.1326117 28.7498785,27.0736628 28.7659239,29.6662133 C28.7814785,32.1249677 30.95516,34.2146064 33.5066976,34.2247321 C36.1812737,34.235449 38.2709124,32.1047974 38.2278825,29.4107233 C38.183508,26.6823598 36.5846789,25.1669011 33.7332768,25.1494202 M11.7369385,63.4937524 C11.4014398,59.184713 11.4000952,55.1338529 10.711617,51.2026697 C9.43887378,43.943394 7.68204433,36.7708504 6.27416035,29.5337619 C3.82885278,16.965002 10.4077185,5.39937627 21.8758547,1.6934276 C24.1113915,0.971332375 25.8319145,1.28464371 27.6613569,2.75438315 C33.9538049,7.81173909 34.0539839,7.84468384 40.4499726,2.80749816 C42.65122,1.07352835 44.7220332,0.922923756 47.2184387,1.78890015 C53.8040278,4.07553503 59.8638456,11.8323438 60.0252077,19.3471094 C60.3324679,33.6242902 60.2464081,47.9108837 60.3136541,62.1934431 C60.314987,62.5141502 60.2006889,62.836202 60.0796673,63.4843396 C57.0716096,63.4843396 54.0743093,63.5777951 51.0958346,63.3807989 C50.65814,63.3512159 49.9824364,61.9440043 49.9730236,61.1661047 C49.8869638,54.0244888 49.9326831,46.8815282 49.9239426,39.7385676 C49.9152022,33.1005358 49.983781,26.460487 49.8291424,19.8251446 C49.747789,16.3417411 48.5806035,13.1474446 45.3829453,11.2837128 C44.4833518,10.7599584 43.1043785,10.9011502 41.9681206,10.9986398 C41.266868,11.0584782 40.5878027,11.5768539 39.933614,11.9493313 C35.3744634,14.5492775 30.9396961,14.5983585 26.4155073,11.7039265 C23.6985736,9.96592261 21.7803821,10.1696422 19.9744717,12.9504484 C18.3937958,15.3863432 17.2440911,18.3412859 16.7707624,21.2101689 C15.7259431,27.5496809 17.6380835,33.6794222 18.9222566,39.8360572 C19.7929394,44.0099558 20.4128386,48.2362972 21.1382956,52.400783 C24.3063707,48.3082377 27.6277398,44.0166793 31.0022239,39.6558695 C24.7938186,38.3145474 21.668101,33.8038055 22.5360944,27.6774259 C23.2985302,22.2906224 28.4809417,18.3264944 34.1602139,18.7830146 C42.957808,19.491663 47.3603029,27.2874675 43.1823702,35.1632808 C41.5048771,38.3253049 39.1590761,41.1350218 37.0956587,44.0899645 C32.8209088,50.210293 28.5421248,56.3292769 24.2236726,62.41935 C23.886157,62.8953681 23.2319683,63.433914 22.7129203,63.4466885 C19.0432781,63.5354376 15.3709466,63.4937524 11.7369385,63.4937524"/>
        <path fill="#FFFFB0" d="M33.7332768,25.1494202 C36.5846789,25.1669011 38.183508,26.6823598 38.2278825,29.4107233 C38.2709124,32.1047974 36.1812737,34.235449 33.5066976,34.2247321 C30.95516,34.2146064 28.7814785,32.1249677 28.7659239,29.6662133 C28.7498785,27.0736628 30.8859087,25.1326117 33.7332768,25.1494202"/>
      </g>
    </g>
  </g>
</svg>
