<svg xmlns="http://www.w3.org/2000/svg" width="96" height="96" viewBox="0 0 96 96">
  <defs>
    <filter id="com.apps.spacebar-a" width="126.7%" height="129.7%" x="-13.4%" y="-14.8%" filterUnits="objectBoundingBox">
      <feOffset dy="2" in="SourceAlpha" result="shadowOffsetOuter1"/>
      <feGaussianBlur in="shadowOffsetOuter1" result="shadowBlurOuter1" stdDeviation="2"/>
      <feColorMatrix in="shadowBlurOuter1" result="shadowMatrixOuter1" values="0 0 0 0 0   0 0 0 0 0   0 0 0 0 0  0 0 0 0.2 0"/>
      <feMerge>
        <feMergeNode in="shadowMatrixOuter1"/>
        <feMergeNode in="SourceGraphic"/>
      </feMerge>
    </filter>
    <linearGradient id="com.apps.spacebar-b" x1="50%" x2="50%" y1="0%" y2="100%">
      <stop offset="0%" stop-color="#449BFF"/>
      <stop offset="100%" stop-color="#105AB1"/>
    </linearGradient>
    <linearGradient id="com.apps.spacebar-c" x1="50%" x2="49.597%" y1="14.041%" y2="88.094%">
      <stop offset="0%" stop-color="#ECFFFF"/>
      <stop offset="79.009%" stop-color="#D8E7E7"/>
      <stop offset="100%" stop-color="#BFC9C9"/>
    </linearGradient>
  </defs>
  <g fill="none" fill-rule="evenodd" filter="url(#com.apps.spacebar-a)" transform="translate(6 9.106)">
    <path fill="url(#com.apps.spacebar-b)" d="M10,6.89441309 L72,6.89441309 C77.5228475,6.89441309 82,11.3715656 82,16.8944131 L82,54.8944131 C82,60.4172606 77.5228475,64.8944131 72,64.8944131 L41,64.8944131 L41,64.8944131 L18,80.8944131 L18.1796875,64.8944131 L10,64.8944131 C4.4771525,64.8944131 6.76353751e-16,60.4172606 0,54.8944131 L0,16.8944131 C-6.76353751e-16,11.3715656 4.4771525,6.89441309 10,6.89441309 Z"/>
    <polygon fill="#ECFFFF" points="55.05 41.247 43.676 49.549 48.057 36.167 36.647 27.915 50.728 27.946 55.05 14.544 59.372 27.946 73.453 27.915 62.043 36.167 66.424 49.549"/>
    <polygon fill="#ECFFFF" points="25.9 23.258 21.315 26.605 23.081 21.21 18.482 17.884 24.158 17.896 25.9 12.494 27.642 17.896 33.318 17.884 28.719 21.21 30.485 26.605"/>
    <path fill="url(#com.apps.spacebar-c)" d="M59.5428314,6.89356352 L53.2972383,6.89342912 C35.8261606,-0.276523583 18.4255208,1.7444395 11.8552821,12.6791528 C4.16097254,25.4846344 14.2335943,45.6656204 34.3531125,57.7546465 C54.4726307,69.8436727 77.0201931,69.2628708 84.7145027,56.4573892 C89.0961429,49.1651154 87.7161376,39.4810362 82.0001615,30.26156 L82.0015326,26.086585 C90.2482946,37.7605256 92.4624432,50.9407461 86.5038799,60.8574607 C77.2593305,76.2429746 51.8432295,77.9468263 29.7354295,64.6631199 C7.62762954,51.3794135 -2.80009538,28.1384184 6.44445403,12.7529045 C15.1811714,-1.78743489 38.3615323,-4.10797878 59.5428314,6.89356352 Z"/>
  </g>
</svg>
