<svg xmlns="http://www.w3.org/2000/svg" width="96" height="96" viewBox="0 0 96 96">
  <defs>
    <filter id="com.apps.webtorrent-a" width="130.5%" height="127.7%" x="-15.3%" y="-13.9%" filterUnits="objectBoundingBox">
      <feOffset dy="2" in="SourceAlpha" result="shadowOffsetOuter1"/>
      <feGaussianBlur in="shadowOffsetOuter1" result="shadowBlurOuter1" stdDeviation="2"/>
      <feColorMatrix in="shadowBlurOuter1" result="shadowMatrixOuter1" values="0 0 0 0 0   0 0 0 0 0   0 0 0 0 0  0 0 0 0.2 0"/>
      <feMerge>
        <feMergeNode in="shadowMatrixOuter1"/>
        <feMergeNode in="SourceGraphic"/>
      </feMerge>
    </filter>
    <linearGradient id="com.apps.webtorrent-b" x1="50%" x2="50%" y1="0%" y2="100%">
      <stop offset="0%" stop-color="#F86161"/>
      <stop offset="100%" stop-color="#EF324C"/>
    </linearGradient>
  </defs>
  <g fill="none" fill-rule="evenodd" filter="url(#com.apps.webtorrent-a)" transform="translate(8.683 4.68)">
    <polygon fill="#343B45" points="39.321 4 73.373 23.66 73.373 62.981 39.321 82.641 5.268 62.981 5.268 23.66"/>
    <path fill="url(#com.apps.webtorrent-b)" fill-rule="nonzero" d="M37.3205566,0.535898385 C38.5581609,-0.178632795 40.0829523,-0.178632795 41.3205566,0.535898385 L41.3205566,0.535898385 L75.3731576,20.1961767 C76.6107619,20.9107079 77.3731576,22.231216 77.3731576,23.6602783 L77.3731576,23.6602783 L77.3731576,62.980835 C77.3731576,64.4098973 76.6107619,65.7304054 75.3731576,66.4449366 L75.3731576,66.4449366 L41.3205566,86.1052149 C40.0829523,86.8197461 38.5581609,86.8197461 37.3205566,86.1052149 L37.3205566,86.1052149 L3.2679557,66.4449366 C2.03035139,65.7304054 1.2679557,64.4098973 1.2679557,62.980835 L1.2679557,62.980835 L1.2679557,23.6602783 C1.2679557,22.231216 2.03035139,20.9107079 3.2679557,20.1961767 L3.2679557,20.1961767 Z M39.3205566,4 L5.2679557,23.6602783 L5.2679557,62.980835 L39.3205566,82.6411133 L73.3731576,62.980835 L73.3731576,23.6602783 L39.3205566,4 Z M39.3193084,28.9662529 C41.7317507,26.7801493 45.0113159,25.6384605 48.5476269,26.2221041 C53.4015771,27.025894 57.306052,31.2393911 57.9890929,36.3795505 C58.5025846,40.2602684 57.2527651,43.8338055 54.9856507,46.373167 L54.9856507,46.373167 L54.9953392,46.3834064 L39.9296854,62.3056132 C39.5905871,62.6588711 39.0431855,62.6588711 38.7089315,62.3056132 L38.7089315,62.3056132 L23.6432777,46.3834064 L23.6529662,46.373167 C21.3810075,43.8389251 20.1311879,40.2653881 20.6446797,36.3846701 C21.3228763,31.2393911 25.2321955,27.025894 30.0861457,26.2221041 C33.6224567,25.6384605 36.9068661,26.7801493 39.3193084,28.9662529 Z"/>
  </g>
</svg>
