<?xml version="1.0" encoding="UTF-8"?>
<svg width="96px" height="96px" viewBox="0 0 96 96" version="1.1" xmlns="http://www.w3.org/2000/svg" xmlns:xlink="http://www.w3.org/1999/xlink">
    <title>com.apps.yad-icon-browser</title>
    <defs>
        <filter x="-14.3%" y="-14.3%" width="128.6%" height="128.6%" filterUnits="objectBoundingBox" id="filter-1">
            <feOffset dx="0" dy="2" in="SourceAlpha" result="shadowOffsetOuter1"></feOffset>
            <feGaussianBlur stdDeviation="2" in="shadowOffsetOuter1" result="shadowBlurOuter1"></feGaussianBlur>
            <feColorMatrix values="0 0 0 0 0   0 0 0 0 0   0 0 0 0 0  0 0 0 0.2 0" type="matrix" in="shadowBlurOuter1" result="shadowMatrixOuter1"></feColorMatrix>
            <feMerge>
                <feMergeNode in="shadowMatrixOuter1"></feMergeNode>
                <feMergeNode in="SourceGraphic"></feMergeNode>
            </feMerge>
        </filter>
        <linearGradient x1="50%" y1="0%" x2="50%" y2="100%" id="linearGradient-2">
            <stop stop-color="#92F6DB" offset="0%"></stop>
            <stop stop-color="#80E8CC" offset="100%"></stop>
        </linearGradient>
        <circle id="path-3" cx="42" cy="42" r="42"></circle>
        <filter x="-1.2%" y="-1.2%" width="102.4%" height="102.4%" filterUnits="objectBoundingBox" id="filter-4">
            <feOffset dx="0" dy="-2" in="SourceAlpha" result="shadowOffsetInner1"></feOffset>
            <feComposite in="shadowOffsetInner1" in2="SourceAlpha" operator="arithmetic" k2="-1" k3="1" result="shadowInnerInner1"></feComposite>
            <feColorMatrix values="0 0 0 0 0   0 0 0 0 0   0 0 0 0 0  0 0 0 0.2 0" type="matrix" in="shadowInnerInner1"></feColorMatrix>
        </filter>
    </defs>
    <g id="com.apps.yad-icon-browser" stroke="none" stroke-width="1" fill="none" fill-rule="evenodd">
        <g id="编组" filter="url(#filter-1)" transform="translate(6.000000, 6.000000)">
            <g id="椭圆形">
                <use fill="url(#linearGradient-2)" fill-rule="evenodd" xlink:href="#path-3"></use>
                <use fill="black" fill-opacity="1" filter="url(#filter-4)" xlink:href="#path-3"></use>
            </g>
            <path d="M16.757,48 L16.757,40.214 L18.644,40.214 L18.644,38.65 L16.757,38.65 L16.757,37.46 C16.757,36.321 17.165,35.777 17.998,35.777 C18.321,35.777 18.678,35.862 19.018,36.015 L19.409,34.553 C18.984,34.366 18.389,34.23 17.76,34.23 C15.669,34.23 14.802,35.556 14.802,37.477 L14.802,38.65 L13.527,38.752 L13.527,40.214 L14.802,40.214 L14.802,48 L16.757,48 Z M22.082,48 L22.082,42.169 C22.677,40.69 23.595,40.163 24.36,40.163 C24.734,40.163 24.972,40.214 25.295,40.316 L25.652,38.616 C25.363,38.48 25.057,38.412 24.598,38.412 C23.595,38.412 22.609,39.126 21.946,40.333 L21.895,40.333 L21.742,38.65 L20.144,38.65 L20.144,48 L22.082,48 Z M30.603,48.221 C31.827,48.221 32.898,47.813 33.765,47.235 L33.085,45.994 C32.405,46.436 31.691,46.691 30.858,46.691 C29.243,46.691 28.121,45.62 27.968,43.835 L34.037,43.835 C34.088,43.614 34.122,43.223 34.122,42.849 C34.122,40.197 32.796,38.412 30.314,38.412 C28.121,38.412 26.047,40.299 26.047,43.342 C26.047,46.419 28.07,48.221 30.603,48.221 Z M32.439,42.492 L27.951,42.492 C28.138,40.843 29.175,39.942 30.348,39.942 C31.708,39.942 32.439,40.877 32.439,42.492 Z M40.008,48.221 C41.232,48.221 42.303,47.813 43.17,47.235 L42.49,45.994 C41.81,46.436 41.096,46.691 40.263,46.691 C38.648,46.691 37.526,45.62 37.373,43.835 L43.442,43.835 C43.493,43.614 43.527,43.223 43.527,42.849 C43.527,40.197 42.201,38.412 39.719,38.412 C37.526,38.412 35.452,40.299 35.452,43.342 C35.452,46.419 37.475,48.221 40.008,48.221 Z M41.844,42.492 L37.356,42.492 C37.543,40.843 38.58,39.942 39.753,39.942 C41.113,39.942 41.844,40.877 41.844,42.492 Z M47.458,48 L47.458,42.169 C48.053,40.69 48.971,40.163 49.736,40.163 C50.11,40.163 50.348,40.214 50.671,40.316 L51.028,38.616 C50.739,38.48 50.433,38.412 49.974,38.412 C48.971,38.412 47.985,39.126 47.322,40.333 L47.271,40.333 L47.118,38.65 L45.52,38.65 L45.52,48 L47.458,48 Z M55.316,48.221 C56.37,48.221 57.339,47.66 58.036,46.946 L58.087,46.946 L58.257,48 L59.855,48 L59.855,34.451 L57.9,34.451 L57.9,37.919 L57.985,39.466 C57.22,38.82 56.54,38.412 55.469,38.412 C53.378,38.412 51.457,40.299 51.457,43.342 C51.457,46.436 52.97,48.221 55.316,48.221 Z M55.775,46.606 C54.313,46.606 53.48,45.433 53.48,43.308 C53.48,41.285 54.534,40.044 55.843,40.044 C56.54,40.044 57.203,40.265 57.9,40.894 L57.9,45.467 C57.22,46.249 56.557,46.606 55.775,46.606 Z M64.534,51.791 L64.534,48.765 L64.483,47.167 C65.282,47.847 66.115,48.221 66.948,48.221 C69.056,48.221 70.977,46.385 70.977,43.172 C70.977,40.299 69.651,38.412 67.271,38.412 C66.234,38.412 65.214,38.99 64.398,39.67 L64.347,39.67 L64.194,38.65 L62.596,38.65 L62.596,51.791 L64.534,51.791 Z M66.574,46.606 C65.996,46.606 65.265,46.385 64.534,45.756 L64.534,41.183 C65.333,40.418 66.03,40.044 66.761,40.044 C68.325,40.044 68.954,41.251 68.954,43.206 C68.954,45.399 67.934,46.606 66.574,46.606 Z" id="freerdp" fill="#024D48" fill-rule="nonzero"></path>
        </g>
    </g>
</svg>