<svg xmlns="http://www.w3.org/2000/svg" width="96" height="96" viewBox="0 0 96 96">
  <defs>
    <filter id="com.apps.flameshot-a" width="128.6%" height="128.6%" x="-14.3%" y="-14.3%" filterUnits="objectBoundingBox">
      <feOffset dy="2" in="SourceAlpha" result="shadowOffsetOuter1"/>
      <feGaussianBlur in="shadowOffsetOuter1" result="shadowBlurOuter1" stdDeviation="2"/>
      <feColorMatrix in="shadowBlurOuter1" result="shadowMatrixOuter1" values="0 0 0 0 0   0 0 0 0 0   0 0 0 0 0  0 0 0 0.2 0"/>
      <feMerge>
        <feMergeNode in="shadowMatrixOuter1"/>
        <feMergeNode in="SourceGraphic"/>
      </feMerge>
    </filter>
    <linearGradient id="com.apps.flameshot-b" x1="50%" x2="50%" y1="0%" y2="100%">
      <stop offset="0%" stop-color="#863FDA"/>
      <stop offset="100%" stop-color="#80A"/>
    </linearGradient>
  </defs>
  <g fill="none" filter="url(#com.apps.flameshot-a)" transform="translate(6 6)">
    <circle cx="42" cy="42" r="42" fill="url(#com.apps.flameshot-b)"/>
    <g transform="rotate(45 15.128 84.428)">
      <path fill="#000" d="M11.0749956,1.77635684e-15 C16.0247431,12.727922 4.3574812,26.5165043 1.1755007,34.6482323 C-2.0064798,42.7799602 1.1755007,52.3259018 11.8957818,65.1462444 C9.3072287,55.5078823 14.6105295,47.3761543 22.0351507,37.123106 C29.4597719,26.8700577 18.8531702,9.8994949 11.0749956,1.77635684e-15 Z"/>
      <path fill="#F06" d="M11.0749956,1.77635684e-15 C16.0247431,12.727922 4.3574812,26.5165043 1.1755007,34.6482323 C-2.0064798,42.7799602 1.1755007,52.3259018 11.8957818,65.1462444 C9.3072287,55.5078823 14.6105295,47.3761543 22.0351507,37.123106 C29.4597719,26.8700577 18.8531702,9.8994949 11.0749956,1.77635684e-15 Z"/>
    </g>
    <g transform="rotate(21 -4.229 112.686)">
      <path fill="#000" d="M11.1691464,1.77635684e-15 C14.7528258,9.3358042 9.79275807,18.7378108 3.75758647,25.3390761 C-2.27758513,31.9403414 -1.32002233,49.7822324 8.65263727,60.4145444 C6.54009017,52.1207429 9.81218107,43.9022624 19.7985189,33.6419965 C29.7848568,23.3817306 15.8324891,5.1723529 11.1691464,1.77635684e-15 Z"/>
      <path fill="#F60" d="M11.1691464,1.77635684e-15 C14.7528258,9.3358042 9.79275807,18.7378108 3.75758647,25.3390761 C-2.27758513,31.9403414 -1.32002233,49.7822324 8.65263727,60.4145444 C6.54009017,52.1207429 9.81218107,43.9022624 19.7985189,33.6419965 C29.7848568,23.3817306 15.8324891,5.1723529 11.1691464,1.77635684e-15 Z"/>
    </g>
    <path fill="#000" d="M10.950173,0 C11.5936845,10.1185019 6.23508348,20.0221526 2.41743628,24.5975975 C-1.40021092,29.1730424 -1.59872422,37.7917875 8.52933048,51.5026641 C6.74521438,43.2275057 9.70136118,36.8507165 16.6860229,28.3400381 C23.6706845,19.8293596 14.6561392,5.2589045 10.950173,0 Z" transform="translate(18 17)"/>
    <path fill="#FC0" d="M10.950173,0 C11.5936845,10.1185019 6.23508348,20.0221526 2.41743628,24.5975975 C-1.40021092,29.1730424 -1.59872422,37.7917875 8.52933048,51.5026641 C6.74521438,43.2275057 9.70136118,36.8507165 16.6860229,28.3400381 C23.6706845,19.8293596 14.6561392,5.2589045 10.950173,0 Z" transform="translate(18 17)"/>
  </g>
</svg>
