<svg xmlns="http://www.w3.org/2000/svg" width="96" height="96" viewBox="0 0 96 96">
  <defs>
    <filter id="com.apps.webplotdigitizer-a" width="130.8%" height="130.8%" x="-15.4%" y="-15.4%" filterUnits="objectBoundingBox">
      <feOffset dy="2" in="SourceAlpha" result="shadowOffsetOuter1"/>
      <feGaussianBlur in="shadowOffsetOuter1" result="shadowBlurOuter1" stdDeviation="2"/>
      <feColorMatrix in="shadowBlurOuter1" result="shadowMatrixOuter1" values="0 0 0 0 0   0 0 0 0 0   0 0 0 0 0  0 0 0 0.2 0"/>
      <feMerge>
        <feMergeNode in="shadowMatrixOuter1"/>
        <feMergeNode in="SourceGraphic"/>
      </feMerge>
    </filter>
    <linearGradient id="com.apps.webplotdigitizer-b" x1="50%" x2="50%" y1="0%" y2="100%">
      <stop offset="0%" stop-color="#25C356"/>
      <stop offset="100%" stop-color="#037E2A"/>
    </linearGradient>
    <linearGradient id="com.apps.webplotdigitizer-c" x1="60.238%" x2="26.486%" y1="14.203%" y2="79.625%">
      <stop offset="0%" stop-color="#FFF"/>
      <stop offset="100%" stop-color="#FFF" stop-opacity=".901"/>
    </linearGradient>
  </defs>
  <g fill="none" filter="url(#com.apps.webplotdigitizer-a)" transform="translate(9 9)">
    <path fill="url(#com.apps.webplotdigitizer-b)" d="M18.0016111,0 L60.0016111,0 C69.9427366,0 78.0016111,8.0588745 78.0016111,18 L78.0016111,60 C78.0016111,69.9411255 69.9427366,78 60.0016111,78 L18.0016111,78 C8.06048559,78 0.00161108547,69.9411255 0.00161108547,60 L0.00161108547,18 C0.00161108547,8.0588745 8.06048559,0 18.0016111,0 Z"/>
    <path fill="url(#com.apps.webplotdigitizer-c)" d="M22.0016111,0 L22.001,16.999 L39.001,17 L39.0016111,0 L43.0016111,0 L43.001,17 L49.2842183,17.000474 C51.2248027,14.7745485 53.1926072,12.9197583 55.0738767,11.8017578 C55.3862817,11.6161019 55.6968326,11.4388632 56.0057516,11.2703294 C56.0958397,8.66581299 57.7190217,6.45030741 60.0010351,5.49840358 L60.0016111,0 C61.376622,0 62.7156232,0.154175563 64.0022706,0.44618252 L64.0018326,5.17398417 C66.4556368,5.75370623 68.3720516,7.72418467 68.8730921,10.2074344 C71.1950445,11.2512963 73.6050304,13.026528 76.1981443,15.65625 C76.8476387,16.3149136 77.4471127,16.9677651 77.9965663,17.6148043 C78.0002569,17.7425834 78.0016111,17.8711336 78.0016111,18 L78.0016111,24.7246094 C73.9068605,18.7407869 70.8272665,16.6587586 67.9453812,15.051987 C66.7848255,16.8276218 64.7801301,18 62.5016111,18 C60.5144058,18 58.7354822,17.1082402 57.5431878,15.7030681 L57.6131834,15.65625 C52.3062986,19.0541992 45.0411619,30.4179687 39.0016111,40.9731445 C34.6169045,48.6361894 28.0002392,56.4697357 21.9803307,60.0191564 C21.7176714,63.365343 18.9173198,66 15.5016111,66 C11.9117602,66 9.00161109,63.0898509 9.00161109,59.5 C9.00161109,59.4746536 9.00175616,59.4493411 9.00204553,59.4240632 C6.25652765,57.6108018 3.25555522,54.8331551 -3.55271368e-14,51.0915015 L-3.55271368e-14,44.0048913 C3.62188182,49.5116728 7.14653737,53.2640403 10.5746501,55.261994 C11.7657983,53.8766348 13.5313302,53 15.5016111,53 C16.387733,53 17.2324404,53.1773166 18.0021871,53.4984036 L18.001,40 L0.00161108547,40 L0.00161108547,36 L18.001,36 L18.001,20.999 L0.00161108547,21 L0.00161108547,17 L18.001,16.999 L18.0016111,0 L22.0016111,0 Z M33.9126619,40.0004382 L22.001,40 L22.001785,54.6470626 C26.6660565,51.2224335 30.9982476,44.6998996 33.9126619,40.0004382 Z M22.001,20.999 L22.001,36 L36.3677721,36.0020144 C37.0768385,34.8529124 37.9702047,33.363244 39.0015817,31.6818002 L39.001,21 L22.001,20.999 Z M46.0880711,21.0001167 L43.001,21 L43.000797,25.4004028 C43.9867531,23.9242564 45.0227981,22.4351425 46.0880711,21.0001167 Z"/>
    <polygon fill="#FFF" points="69.002 36 46.877 36 47.002 39.431 57.527 53 46.002 66.523 46.002 70 71.002 70 71.002 66 52.002 66 62.391 53 52.002 40 69.002 40"/>
  </g>
</svg>
