<svg xmlns="http://www.w3.org/2000/svg" width="96" height="96" viewBox="0 0 96 96">
  <defs>
    <filter id="com.apps.pegsolitaire-a" width="132.5%" height="132.4%" x="-16.3%" y="-16.2%" filterUnits="objectBoundingBox">
      <feOffset dy="2" in="SourceAlpha" result="shadowOffsetOuter1"/>
      <feGaussianBlur in="shadowOffsetOuter1" result="shadowBlurOuter1" stdDeviation="2"/>
      <feColorMatrix in="shadowBlurOuter1" result="shadowMatrixOuter1" values="0 0 0 0 0   0 0 0 0 0   0 0 0 0 0  0 0 0 0.2 0"/>
      <feMerge>
        <feMergeNode in="shadowMatrixOuter1"/>
        <feMergeNode in="SourceGraphic"/>
      </feMerge>
    </filter>
    <linearGradient id="com.apps.pegsolitaire-b" x1="50%" x2="50%" y1="0%" y2="100%">
      <stop offset="0%" stop-color="#65B5E7"/>
      <stop offset="100%" stop-color="#357ECA"/>
    </linearGradient>
    <linearGradient id="com.apps.pegsolitaire-c" x1="50%" x2="50%" y1="0%" y2="100%">
      <stop offset="0%" stop-color="#00BBE8"/>
      <stop offset="100%" stop-color="#0086CC"/>
    </linearGradient>
    <linearGradient id="com.apps.pegsolitaire-d" x1="50%" x2="50%" y1="0%" y2="100%">
      <stop offset="0%" stop-color="#0062FF"/>
      <stop offset="100%" stop-color="#03F"/>
    </linearGradient>
    <linearGradient id="com.apps.pegsolitaire-e" x1="50%" x2="50%" y1="0%" y2="100%">
      <stop offset="0%" stop-color="#68CAFA"/>
      <stop offset="100%" stop-color="#379AF3"/>
    </linearGradient>
    <radialGradient id="com.apps.pegsolitaire-f" cx="24.968%" cy="-48.671%" r="396.412%" fx="24.968%" fy="-48.671%" gradientTransform="matrix(.5185 0 0 1 .12 0)">
      <stop offset="0%" stop-color="#FFF"/>
      <stop offset="100%" stop-color="#FFF" stop-opacity="0"/>
    </radialGradient>
  </defs>
  <g fill="none" filter="url(#com.apps.pegsolitaire-a)" transform="translate(6 6)">
    <path fill="url(#com.apps.pegsolitaire-b)" stroke="url(#com.apps.pegsolitaire-c)" stroke-linecap="square" stroke-linejoin="round" stroke-width="3.004" d="M83.080872,41.6267526 C83.080872,64.6165733 64.4825853,83.2535052 41.540436,83.2535052 C18.5982867,83.2535052 0,64.6165733 0,41.6267526 C0,18.6369319 18.5982867,0 41.540436,0 C64.4825853,0 83.080872,18.6369319 83.080872,41.6267526 Z"/>
    <path fill="url(#com.apps.pegsolitaire-d)" stroke="url(#com.apps.pegsolitaire-e)" stroke-linecap="square" stroke-linejoin="round" stroke-width="3" d="M79.7026794,41.6267625 C79.7026794,55.2498708 72.4348379,67.8381421 60.6368801,74.6496963 C48.8389223,81.4612505 34.3032388,81.4612505 22.5052809,74.6496963 C10.7073231,67.8381421 3.43948168,55.2498708 3.43948168,41.6267625 C3.43948168,20.567262 20.51158,3.49516373 41.5710805,3.49516373 C62.6305811,3.49516373 79.7026794,20.567262 79.7026794,41.6267625 L79.7026794,41.6267625 Z"/>
    <path fill="url(#com.apps.pegsolitaire-f)" d="M41.0529453,1.83725242 C20.2313392,2.10117268 3.23827957,18.3898691 1.88518215,38.9326471 C22.1705953,47.2777597 47.8765748,34.1206972 78.6191987,27.7190251 C76.3365761,18.605349 63.5167061,1.83725242 41.5710374,1.83725242 C41.3995879,1.83725242 41.2238842,1.83508721 41.0529453,1.83725242 Z" opacity=".6"/>
  </g>
</svg>
