<svg xmlns="http://www.w3.org/2000/svg" width="96" height="96" viewBox="0 0 96 96">
  <defs>
    <linearGradient id="com.apps.kbruch-a" x1="50%" x2="50%" y1="0%" y2="100%">
      <stop offset="0%" stop-color="#4B4B4B"/>
      <stop offset="100%" stop-color="#4D4D4D"/>
    </linearGradient>
    <linearGradient id="com.apps.kbruch-b" x1="50%" x2="50%" y1="0%" y2="100%">
      <stop offset="0%" stop-color="#E3E3E3"/>
      <stop offset="100%" stop-color="#DDD"/>
    </linearGradient>
    <linearGradient id="com.apps.kbruch-c" x1="50%" x2="50%" y1="0%" y2="100%">
      <stop offset="0%" stop-color="#DEDEDE"/>
      <stop offset="100%" stop-color="silver"/>
    </linearGradient>
  </defs>
  <g fill="none" fill-rule="evenodd">
    <rect width="82" height="71" x="7" y="12" fill="url(#com.apps.kbruch-a)" rx="12"/>
    <path fill="url(#com.apps.kbruch-b)" fill-rule="nonzero" d="M77,12 C83.627417,12 89,17.372583 89,24 L89,71 C89,77.627417 83.627417,83 77,83 L19,83 C12.372583,83 7,77.627417 7,71 L7,24 C7,17.372583 12.372583,12 19,12 L77,12 Z M77,15 L19,15 C14.1181973,15 10.1442086,18.8868137 10.0038371,23.7346377 L10,24 L10,71 C10,75.8818027 13.8868137,79.8557914 18.7346377,79.9961629 L19,80 L77,80 C81.8818027,80 85.8557914,76.1131863 85.9961629,71.2653623 L86,71 L86,24 C86,19.1181973 82.1131863,15.1442086 77.2653623,15.0038371 L77,15 Z"/>
    <path fill="url(#com.apps.kbruch-c)" d="M77,83 L19,83 C13.7753769,83 9.33059763,79.6610919 7.68306143,75.000675 L88.3169386,75.000675 C86.6694024,79.6610919 82.2246231,83 77,83 Z"/>
    <path stroke="#F6F6F6" stroke-linecap="round" stroke-linejoin="round" stroke-width="2" d="M30.953125 20.8735352C28.2913411 23.9946289 25.3149804 26.8727504 22.9677734 30.2368164 8.44643328 51.0491048 44.7556529 46.8733882 25.9677734 30.5673828M44.0883789 43.5874023C46.5135091 43.6604818 48.9386393 43.7335612 51.3637695 43.8066406M43.644043 51.9584961C46.8128257 51.6097005 49.9816079 51.260905 53.1503906 50.9121094M56.5405273 38.6875C61.6920037 34.8047995 80.5437263 35.6383308 73.7485352 42.9868164 62.0645261 55.6221889 52.800971 54.3919667 72.921875 55.7734375M14.7924805 48.4541016C22.3408203 48.0390625 29.8891602 47.6240234 37.4375 47.2089844M21.0683594 52.0195312L21.0683594 52.0195312zM21.8364258 52.3164062C24.5805666 52.9052735 27.5227937 52.902041 30.0688477 54.0830078 42.0670697 59.6482876 25.2157637 60.0163397 25.4760742 60.7167969 26.368803 63.1189977 30.0688477 63.1189977 33.1879883 64.0380859 38.9360257 65.7318068 38.0869141 68.7646484 25.3432617 68.7646484M78.1259766 68.0146484C76.7504883 70.914388 75.375 73.8141276 73.9995117 76.7138672"/>
    <rect width="10" height="4" x="17" y="73" fill="#B3B3B3"/>
  </g>
</svg>
