<svg xmlns="http://www.w3.org/2000/svg" xmlns:xlink="http://www.w3.org/1999/xlink" width="96" height="96" viewBox="0 0 96 96">
  <defs>
    <filter id="com.apps.etoys-a" width="129.4%" height="129.6%" x="-14.7%" y="-14.8%" filterUnits="objectBoundingBox">
      <feOffset dy="2" in="SourceAlpha" result="shadowOffsetOuter1"/>
      <feGaussianBlur in="shadowOffsetOuter1" result="shadowBlurOuter1" stdDeviation="2"/>
      <feColorMatrix in="shadowBlurOuter1" result="shadowMatrixOuter1" values="0 0 0 0 0   0 0 0 0 0   0 0 0 0 0  0 0 0 0.2 0"/>
      <feMerge>
        <feMergeNode in="shadowMatrixOuter1"/>
        <feMergeNode in="SourceGraphic"/>
      </feMerge>
    </filter>
    <radialGradient id="com.apps.etoys-b" cx="50%" cy="0%" r="100%" fx="50%" fy="0%" gradientTransform="matrix(0 1 -.55394 0 .5 -.5)">
      <stop offset="0%" stop-color="#FAF072"/>
      <stop offset="100%" stop-color="#F9F082"/>
    </radialGradient>
    <path id="com.apps.etoys-c" d="M21.3310547,26.0495533 L9.43261719,27.267041 C9.4037578,29.6682547 10.7782474,30.8295828 8.74584961,33.0209889 L21.3310547,31.3028515 L21.3310547,26.0495533 Z"/>
    <filter id="com.apps.etoys-d" width="227.1%" height="329.5%" x="-63.6%" y="-114.8%" filterUnits="objectBoundingBox">
      <feGaussianBlur in="SourceAlpha" result="shadowBlurInner1" stdDeviation="7"/>
      <feOffset dy="1" in="shadowBlurInner1" result="shadowOffsetInner1"/>
      <feComposite in="shadowOffsetInner1" in2="SourceAlpha" k2="-1" k3="1" operator="arithmetic" result="shadowInnerInner1"/>
      <feColorMatrix in="shadowInnerInner1" values="0 0 0 0 1   0 0 0 0 0.229294143   0 0 0 0 0  0 0 0 0.870055726 0"/>
    </filter>
    <radialGradient id="com.apps.etoys-e" cx="50%" cy="0%" r="100%" fx="50%" fy="0%" gradientTransform="matrix(0 1 -.92608 0 .5 -.5)">
      <stop offset="0%" stop-color="#FAF072"/>
      <stop offset="100%" stop-color="#F9F082"/>
    </radialGradient>
    <path id="com.apps.etoys-f" d="M15.3398438,5.62202148 C21.7992169,8.24800503 26.945864,10.731729 30.7797852,13.0731934 C34.6137063,15.4146577 40.0949888,19.4216564 47.2236328,25.0941895 C63.7796224,19.298291 73.2903646,16.0529297 75.7558594,15.3581055 C78.2213542,14.6632812 79.2255859,14.6632812 78.7685547,15.3581055 C70.8876953,26.4083984 66.5009766,33.290153 65.6083984,36.0033691 C64.7158203,38.7165853 64.1857096,40.4760254 64.0180664,41.2816895 C72.2114258,46.6075358 77.5341797,50.2047038 79.9863281,52.0731934 C82.4384766,53.9416829 84.1497396,55.5603353 85.1201172,56.9291504 C81.0849609,57.8516764 75.222168,57.5663574 67.5317383,56.0731934 C55.9960937,53.8334473 51.8666992,55.2172363 51.0483398,56.0731934 C50.2299805,56.9291504 36.0463867,76.7260254 33.3862305,79.3334473 C31.612793,81.0717285 29.449707,82.7772949 26.8969727,84.4501465 C28.8829753,69.0621256 29.8759766,60.4856283 29.8759766,58.7206543 C29.8759766,56.9556803 29.664388,55.2834798 29.2412109,53.7040527 C17.0016276,51.7763184 9.6389974,50.8124512 7.15332031,50.8124512 C4.66764323,50.8124512 2.28320313,50.5660319 0,50.0731934 C4.1770557,46.1301788 7.75192549,43.1996775 10.7246094,41.2816895 C13.6972933,39.3637014 16.9778922,37.8710256 20.5664062,36.8036621 C21.203776,34.3661621 21.203776,30.4630046 20.5664062,25.0941895 C19.9290365,19.7253743 18.6305339,14.2053548 16.6708984,8.53413086 L15.3398438,5.62202148 Z"/>
    <filter id="com.apps.etoys-g" width="118.8%" height="120.3%" x="-9.4%" y="-10.2%" filterUnits="objectBoundingBox">
      <feGaussianBlur in="SourceAlpha" result="shadowBlurInner1" stdDeviation="7"/>
      <feOffset dy="1" in="shadowBlurInner1" result="shadowOffsetInner1"/>
      <feComposite in="shadowOffsetInner1" in2="SourceAlpha" k2="-1" k3="1" operator="arithmetic" result="shadowInnerInner1"/>
      <feColorMatrix in="shadowInnerInner1" values="0 0 0 0 1   0 0 0 0 0.229294143   0 0 0 0 0  0 0 0 0.870055726 0"/>
    </filter>
    <linearGradient id="com.apps.etoys-h" x1="50%" x2="50%" y1="0%" y2="100%">
      <stop offset="0%" stop-color="#FFE3C6"/>
      <stop offset="100%" stop-color="#F3B18D"/>
    </linearGradient>
    <linearGradient id="com.apps.etoys-i" x1="50%" x2="50%" y1="-24.022%" y2="100%">
      <stop offset="0%" stop-color="#89E6E9"/>
      <stop offset="100%" stop-color="#17B7C1"/>
    </linearGradient>
    <linearGradient id="com.apps.etoys-j" x1="50%" x2="50%" y1="-24.022%" y2="100%">
      <stop offset="0%" stop-color="#89E6E9"/>
      <stop offset="100%" stop-color="#17B7C1"/>
    </linearGradient>
    <radialGradient id="com.apps.etoys-k" cx="50%" cy="0%" r="100%" fx="50%" fy="0%" gradientTransform="matrix(0 1 -.72326 0 .5 -.5)">
      <stop offset="0%" stop-color="#FAF072"/>
      <stop offset="100%" stop-color="#F9F082"/>
    </radialGradient>
    <path id="com.apps.etoys-l" d="M19.3198242,17.7074707 L10.6213379,16.544867 C10.5924785,18.9460806 10.7782474,21.4481936 8.74584961,23.6395996 L20.5664062,25.0941895 L19.3198242,17.7074707 Z"/>
    <filter id="com.apps.etoys-m" width="235.4%" height="287.2%" x="-67.7%" y="-93.6%" filterUnits="objectBoundingBox">
      <feGaussianBlur in="SourceAlpha" result="shadowBlurInner1" stdDeviation="7"/>
      <feOffset dy="1" in="shadowBlurInner1" result="shadowOffsetInner1"/>
      <feComposite in="shadowOffsetInner1" in2="SourceAlpha" k2="-1" k3="1" operator="arithmetic" result="shadowInnerInner1"/>
      <feColorMatrix in="shadowInnerInner1" values="0 0 0 0 1   0 0 0 0 0.229294143   0 0 0 0 0  0 0 0 0.870055726 0"/>
    </filter>
    <linearGradient id="com.apps.etoys-n" x1="50%" x2="50%" y1="0%" y2="112.254%">
      <stop offset="0%" stop-color="#FFF3E5"/>
      <stop offset="100%" stop-color="#F5B895"/>
    </linearGradient>
    <linearGradient id="com.apps.etoys-o" x1="50%" x2="50%" y1="0%" y2="112.254%">
      <stop offset="0%" stop-color="#FFF3E5"/>
      <stop offset="100%" stop-color="#F5B895"/>
    </linearGradient>
  </defs>
  <g fill="none" fill-rule="evenodd" filter="url(#com.apps.etoys-a)" transform="translate(5.556 7.927)">
    <g stroke-linejoin="round">
      <use fill="url(#com.apps.etoys-b)" xlink:href="#com.apps.etoys-c"/>
      <use fill="#000" filter="url(#com.apps.etoys-d)" xlink:href="#com.apps.etoys-c"/>
      <use stroke="#6E240C" xlink:href="#com.apps.etoys-c"/>
    </g>
    <g stroke-linejoin="round">
      <use fill="url(#com.apps.etoys-e)" xlink:href="#com.apps.etoys-f"/>
      <use fill="#000" filter="url(#com.apps.etoys-g)" xlink:href="#com.apps.etoys-f"/>
      <use stroke="#6E240C" xlink:href="#com.apps.etoys-f"/>
    </g>
    <polygon fill="url(#com.apps.etoys-h)" points="35.996 1.669 45.493 .818 53.91 0 58.95 1.315 62.643 3.655 64.699 8.073 65.247 13.183 63.559 17.707 60.624 20.82 53.444 22.838 48.192 21.717 42.444 17.338 38.882 14.199 36.706 13.575 35.204 13.183 34.836 11.073 35.204 8.147 35.204 7.596 35.996 5.306 35.61 4.242 35.204 3.067"/>
    <path fill="url(#com.apps.etoys-i)" d="M42.4443359,17.7073891 L39.5180664,18.2072266 L36.8444824,20.272168 L35.20419,23.3322266 L36.0932617,25.0941895 L38.5064697,27.8935059 L43.5756836,30.5669678 L50.4443359,32.8116802 L57.0618896,34.7348145 L57.3512709,32.3688477 L57.595459,30.5669678 L58.5524902,29.1989868 L47.4443359,25.9838379 L46.5789795,24.8523682 L51.2581787,23.3322266 L51.9711914,22.8380371 C49.4897421,22.2323201 47.6923381,21.5800333 46.5789795,20.8811768 C45.4656209,20.1823202 44.0874064,19.124391 42.4443359,17.7073891 Z"/>
    <path stroke="#6E240C" stroke-linecap="round" stroke-linejoin="round" d="M42.5600586,17.7074239 C39.409668,17.7025723 37.0555013,19.2175618 35.4975586,22.2523926 C33.1606445,26.8046387 45.3979492,31.563916 50.4936523,33.0731934 C53.8907878,34.0793783 56.3107096,34.633252 57.753418,34.7348145 C57.0063477,33.4983236 56.9012044,32.4044108 57.4379883,31.4530762 C57.9747721,30.5017415 58.3462728,29.7699707 58.5524902,29.2577637 C54.9786659,28.0444917 52.3068316,27.2090832 50.5369873,26.7515381 C48.767143,26.2939929 46.4498823,25.8396066 43.5852051,25.3883789"/>
    <path fill="url(#com.apps.etoys-j)" stroke="#6E240C" stroke-linecap="round" stroke-linejoin="round" d="M70.5742187,23.3025717 C71.7875977,22.3584799 75.6252545,22.0499166 77.2526855,22.8401693 C78.8801166,23.6304221 78.3691406,26.1961264 77.9575195,26.8877768 C77.5458984,27.5794272 73.1091309,28.9085287 71.0598145,28.9085287 C69.6936035,28.9085287 69.0222982,28.7360841 69.0458984,28.3911947 C69.2558594,25.6281739 69.7652995,23.9319662 70.5742187,23.3025717 Z"/>
    <g stroke-linejoin="round">
      <use fill="url(#com.apps.etoys-k)" xlink:href="#com.apps.etoys-l"/>
      <use fill="#000" filter="url(#com.apps.etoys-m)" xlink:href="#com.apps.etoys-l"/>
      <use stroke="#6E240C" xlink:href="#com.apps.etoys-l"/>
    </g>
    <ellipse cx="7.946" cy="20.284" fill="#A8533C" stroke="#6E240C" rx="2.5" ry="4.524" transform="rotate(21 7.946 20.284)"/>
    <ellipse cx="7.401" cy="31.303" fill="#A8533C" stroke="#6E240C" rx="2.5" ry="4.524" transform="rotate(21 7.4 31.303)"/>
    <path stroke="#6E240C" stroke-linecap="round" stroke-linejoin="round" d="M35.9963379 1.66914062C43.75236.998893227 48.755127.495963539 51.0046387.16035156 54.3789063-.343066409 61.385498-.0173828149 63.9086914 6.50507812 66.4318848 13.0275391 64.166717 15.9485938 62.9787598 18.5675781 61.7908025 21.1865624 58.9361944 21.5301733 56.7543945 22.2775241 54.5725947 23.0248748 51.6213379 23.0248748 49.2431641 22.2775241 46.8649902 21.5301733 44.4094238 19.6771973 41.3068848 16.3305176 39.2385254 14.0993978 37.0817057 12.9699219 34.8364258 12.9420898M49.6296387 14.5179564C54.5267217 17.9162046 58.7941152 16.8400198 62.6430664 12.7904785"/>
    <line x1="55.494" x2="57.595" y1="13.575" y2="12.79" stroke="#6E240C" stroke-linecap="round" stroke-linejoin="round"/>
    <ellipse cx="50.444" cy="9.573" fill="#FFF" rx="3" ry="1.5"/>
    <ellipse cx="60.342" cy="8.333" fill="#FFF" rx="2.727" ry="1.426" transform="rotate(-14 60.342 8.333)"/>
    <ellipse cx="50.537" cy="9.573" fill="#6E240C" rx="1" ry="1"/>
    <ellipse cx="60.625" cy="8.255" fill="#6E240C" rx="1" ry="1"/>
    <path stroke="#6E240C" stroke-linecap="round" stroke-linejoin="round" d="M42.5600586 4.24238281C38.1500203 3.45885416 35.6980641 3.06708984 35.20419 3.06708984M41.402832 5.62202148C38.2900391 5.2012858 36.3591309 4.99091797 35.6101074 4.99091797"/>
    <line x1="40.829" x2="35.204" y1="8.073" y2="7.118" stroke="#6E240C" stroke-linecap="round" stroke-linejoin="round"/>
    <path stroke="#6E240C" stroke-linecap="round" stroke-linejoin="round" d="M40.8291016,11.7685059 C39.3089193,10.9716309 37.9300944,10.5731934 36.692627,10.5731934 C35.4551595,10.5731934 34.8364258,10.5731934 34.8364258,10.5731934"/>
    <path fill="url(#com.apps.etoys-n)" stroke="#6E240C" stroke-linecap="round" stroke-linejoin="round" d="M69.7072754,23.3977783 C68.7099293,23.067853 67.3854257,22.5344871 65.7337646,21.7976807 C63.256273,20.692471 62.8682861,21.2484863 62.6430664,21.6173828 C62.4929199,21.8633138 62.6919917,22.456779 63.2402818,23.3977783 C61.9020746,23.3608317 61.1019286,23.5482096 60.8398438,23.9599121 C60.4467165,24.5774658 62.3879395,25.5370531 62.6430664,25.5370531 C62.8981934,25.5370531 61.419171,26.3024006 61.0251281,26.8706787 C60.7624327,27.2495308 61.5871052,27.6358019 63.4991455,28.0294922 C63.0747428,28.4578218 62.8913932,28.8476534 62.9490967,29.1989868 C63.0356519,29.725987 63.1572266,30.1518066 64.0476074,30.1518066 C64.6199294,30.1518066 65.7813372,29.8823126 66.8469238,29.4408691 C67.4391067,29.195544 67.9664219,28.789514 68.4309082,28.6043213"/>
    <path fill="url(#com.apps.etoys-o)" stroke="#6E240C" stroke-linecap="round" stroke-linejoin="round" d="M58.5524902,29.4564941 C59.072937,29.1831177 62.6430664,28.9414795 62.6430664,29.4564941 C62.6430664,29.7998372 62.4031576,30.1699951 61.9233398,30.5669678 C63.7737701,30.9828206 64.6989852,31.311027 64.6989852,31.5515869 C64.6989852,31.9124268 64.2443848,32.7963379 62.878418,32.7963379 C61.5124512,32.7963379 64.6411133,33.5537231 64.3272705,34.2682617 C64.0134277,34.9828003 62.8931885,34.7348145 61.9233398,34.7348145 C60.9534912,34.7348145 63.1137695,35.926709 62.878418,36.2768066 C62.6430664,36.6269043 59.7537096,36.3734863 58.5524902,35.5541504 C57.3512709,34.7348145 57.5599976,34.7348145 57.3099365,34.0063599 C57.0598755,33.2779053 56.993042,32.291272 57.1990356,31.5515869 C57.4050293,30.8119019 58.0320435,29.7298706 58.5524902,29.4564941 Z"/>
  </g>
</svg>
