<svg xmlns="http://www.w3.org/2000/svg" width="96" height="96" viewBox="0 0 96 96">
  <defs>
    <filter id="com.apps.clipit-trayicon-a" width="134.3%" height="129.6%" x="-17.1%" y="-14.8%" filterUnits="objectBoundingBox">
      <feOffset dy="2" in="SourceAlpha" result="shadowOffsetOuter1"/>
      <feGaussianBlur in="shadowOffsetOuter1" result="shadowBlurOuter1" stdDeviation="2"/>
      <feColorMatrix in="shadowBlurOuter1" result="shadowMatrixOuter1" values="0 0 0 0 0   0 0 0 0 0   0 0 0 0 0  0 0 0 0.2 0"/>
      <feMerge>
        <feMergeNode in="shadowMatrixOuter1"/>
        <feMergeNode in="SourceGraphic"/>
      </feMerge>
    </filter>
    <linearGradient id="com.apps.clipit-trayicon-b" x1="1.626%" x2="98.374%" y1="0%" y2="100%">
      <stop offset="0%" stop-color="#FFF"/>
      <stop offset="100%" stop-color="#E2E2E2"/>
    </linearGradient>
  </defs>
  <g fill="none" fill-rule="evenodd" filter="url(#com.apps.clipit-trayicon-a)" transform="translate(13 8)">
    <rect width="48" height="60" y="8" fill="#A48256" fill-rule="nonzero" rx="4"/>
    <rect width="40" height="52" x="4" y="12" fill="#B2936A" fill-rule="nonzero" rx="2"/>
    <rect width="48" height="61" x="22" y="20" fill="url(#com.apps.clipit-trayicon-b)" fill-rule="nonzero" rx="4"/>
    <line x1="30" x2="62.015" y1="35" y2="35" stroke="#C3C3C3" stroke-width="2"/>
    <line x1="30" x2="52.015" y1="43" y2="43" stroke="#C3C3C3" stroke-width="2"/>
    <line x1="30" x2="62.015" y1="51" y2="51" stroke="#C3C3C3" stroke-width="2"/>
    <line x1="30" x2="56.015" y1="59" y2="59" stroke="#C3C3C3" stroke-width="2"/>
    <line x1="30" x2="62.015" y1="67" y2="67" stroke="#C3C3C3" stroke-width="2"/>
    <path fill="#C6C6C6" fill-rule="nonzero" d="M18,4.00208688 C18,5.10550382 17.1132936,6 15.9812622,6 L14,6 C11.790861,6 10,7.80019784 10,10.0020869 L10,12 L38,12 L38,10.0020869 C38,7.79179532 36.2245408,6 34,6 L32.0187378,6 C30.9038196,6 30,5.11467934 30,4.00208688 L30,1.99791312 C30,0.89449618 29.0980496,0 28.018444,0 L19.981556,0 C18.8871728,0 18,0.88532066 18,1.99791312 L18,4.00208688 Z"/>
    <rect width="28" height="2" x="10" y="12" fill="#D8D8D8" fill-rule="nonzero"/>
  </g>
</svg>
