<svg xmlns="http://www.w3.org/2000/svg" width="96" height="96" viewBox="0 0 96 96">
  <defs>
    <filter id="com.apps.org.gtkhash.gtkhash-a" width="130.9%" height="128%" x="-15.5%" y="-14%" filterUnits="objectBoundingBox">
      <feOffset dy="2" in="SourceAlpha" result="shadowOffsetOuter1"/>
      <feGaussianBlur in="shadowOffsetOuter1" result="shadowBlurOuter1" stdDeviation="2"/>
      <feColorMatrix in="shadowBlurOuter1" result="shadowMatrixOuter1" values="0 0 0 0 0   0 0 0 0 0   0 0 0 0 0  0 0 0 0.2 0"/>
      <feMerge>
        <feMergeNode in="shadowMatrixOuter1"/>
        <feMergeNode in="SourceGraphic"/>
      </feMerge>
    </filter>
    <linearGradient id="com.apps.org.gtkhash.gtkhash-b" x1="50%" x2="50%" y1="0%" y2="100%">
      <stop offset="0%" stop-color="#601AEA"/>
      <stop offset="100%" stop-color="#21038C"/>
    </linearGradient>
    <linearGradient id="com.apps.org.gtkhash.gtkhash-c" x1="50%" x2="50%" y1="0%" y2="100%">
      <stop offset="0%" stop-color="#E13A3A"/>
      <stop offset="100%" stop-color="#C21010"/>
    </linearGradient>
    <linearGradient id="com.apps.org.gtkhash.gtkhash-d" x1="50%" x2="50%" y1="0%" y2="98.967%">
      <stop offset="0%" stop-color="#64E256"/>
      <stop offset="100%" stop-color="#25A21C"/>
    </linearGradient>
  </defs>
  <g fill="none" fill-rule="evenodd" filter="url(#com.apps.org.gtkhash.gtkhash-a)" transform="translate(9 5.042)">
    <path fill="url(#com.apps.org.gtkhash.gtkhash-b)" d="M2.26660156,12.4580078 C2.75423177,13.1461589 11.4469401,19.6461589 28.3447266,31.9580078 L76.2802734,19.8730469 L45.2359278,0.460195144 C44.766407,0.166562356 44.1961525,0.0807698424 43.6610129,0.223232692 C15.5818934,7.69835095 1.78375628,11.7766093 2.26660156,12.4580078 Z"/>
    <path fill="url(#com.apps.org.gtkhash.gtkhash-c)" d="M0,13.9462891 L27,34.1171875 L27,84.0805664 L0.63303138,59.3925275 C0.229175832,59.0143876 -5.92745036e-15,58.4858502 0,57.9325971 L0,13.9462891 L0,13.9462891 Z"/>
    <path fill="url(#com.apps.org.gtkhash.gtkhash-d)" d="M29.0310059,85.6816406 L29.0310059,34.1669922 L77.5693359,20.887207 L76.3172301,64.1801901 C76.2946971,64.959292 75.821598,65.6543301 75.105048,65.9610278 L29.0310059,85.6816406 L29.0310059,85.6816406 Z"/>
    <path fill="#FFF" fill-rule="nonzero" d="M51.7618767,10.4752268 C52.807161,10.6132832 53.5566977,11.5352417 53.4968867,12.571189 L53.482781,12.7198846 L51.6414982,26.6587797 L60.0043335,24.5204024 C61.0744434,24.2466534 62.1638564,24.8922314 62.4376054,25.9623413 C62.6989113,26.9838099 62.1225659,28.0228665 61.1389127,28.3533065 L60.9956665,28.3956132 L51.0774982,30.9317797 L49.1934982,45.1947797 L58.9737652,42.5284802 C60.0394139,42.2378487 61.1388962,42.8661243 61.4295276,43.931773 C61.7069486,44.9489831 61.1471009,45.997021 60.1687943,46.3429695 L60.0262348,46.3875355 L48.6254982,49.4957797 L46.482781,65.7198846 C46.3381505,66.8149443 45.333183,67.5854194 44.2381233,67.4407888 C43.192839,67.3027324 42.4433023,66.3807739 42.5031133,65.3448266 L42.517219,65.1961311 L44.4394982,50.6377797 L31.5364982,54.1567797 L29.4828081,69.7196792 C29.338291,70.8147539 28.3334033,71.5853331 27.2383286,71.4408159 C26.19303,71.3028678 25.4433978,70.3809869 25.5031016,69.3450334 L25.5171919,69.1963364 L27.3504982,55.2977797 L16.0262348,58.3875355 C14.9605861,58.6781669 13.8611038,58.0498913 13.5704724,56.9842426 C13.2930514,55.9670325 13.8528991,54.9189947 14.8312057,54.5730461 L14.9737652,54.5284802 L27.9184982,50.9977797 L29.8494982,36.3627797 L17.9956665,39.3956132 C16.9255566,39.6693623 15.8361436,39.0237842 15.5623946,37.9536743 C15.3010887,36.9322058 15.8774341,35.8931491 16.8610873,35.5627092 L17.0043335,35.5204024 L30.4134982,32.0897797 L32.5792036,15.6841294 C32.7237207,14.5890547 33.7286084,13.8184755 34.8236831,13.9629927 C35.8689817,14.1009408 36.6186139,15.0228217 36.5589101,16.0587752 L36.5448198,16.2074722 L34.5894982,31.0207797 L47.4654982,27.7267797 L49.517219,12.1961311 C49.6618495,11.1010714 50.666817,10.3305963 51.7618767,10.4752268 Z M46.9004982,32.0007797 L34.0254982,35.2937797 L32.1034982,49.8557797 L45.0074982,46.3367797 L46.9004982,32.0007797 Z"/>
    <path fill="#000" fill-opacity=".485" fill-rule="nonzero" d="M48.5258285,12.0651927 C48.7427743,10.4226031 50.2502255,9.26689049 51.8928151,9.48383628 C53.3951567,9.68225876 54.5010018,10.9652646 54.4977546,12.4888141 L54.4924174,12.6656277 L54.4741688,12.8508437 L52.826,25.3230078 L59.7565003,23.5515997 C61.2470105,23.1703064 62.7624866,23.9780407 63.3001468,25.3805615 L63.357788,25.5449966 L63.4064081,25.7145081 C63.7814162,27.1804486 63.0056154,28.6823941 61.5945096,29.248922 L61.4221605,29.3123532 L61.2434045,29.3644403 L51.979,31.7330078 L50.381,43.8330078 L58.7106478,41.5637163 C60.1949442,41.1589082 61.7229999,41.9425845 62.2827643,43.3364306 L62.3429978,43.499934 L62.3942915,43.6686556 C62.7924267,45.1284847 62.0404661,46.6425066 60.6384925,47.231271 L60.4671676,47.2974188 L60.2892697,47.3523218 L49.529,50.2850078 L47.4741715,65.8508229 C47.2727219,67.3760847 45.9585404,68.4815393 44.4566789,68.4579805 L44.2826069,68.4502114 L44.1071849,68.4321793 C42.6048433,68.2337569 41.4989982,66.9507511 41.5022454,65.4272016 L41.5075826,65.2503879 L41.5258239,65.0652276 L43.251,51.9980078 L32.44,54.9460078 L30.4742122,69.8505149 C30.2729205,71.3757975 28.9588535,72.4813882 27.4569896,72.4583496 L27.2829168,72.4502339 L27.1074929,72.43222 C25.6051308,72.2339531 24.4991528,70.9510618 24.5022422,69.427512 L24.5075612,69.2506978 L24.5257796,69.0655629 L26.162,56.6580078 L16.2893522,59.3522993 C14.8050558,59.7571074 13.2770001,58.9734311 12.7172357,57.579585 L12.6570022,57.4160817 L12.6057085,57.24736 C12.2075733,55.7875309 12.9595339,54.273509 14.3615075,53.6847447 L14.5328324,53.6185969 L14.7106257,53.5637224 L27.014,50.2080078 L28.665,37.6980078 L18.2434997,40.3644159 C16.7529895,40.7457092 15.2375134,39.9379749 14.6998532,38.5354541 L14.642212,38.371019 L14.5935919,38.2015076 C14.2185838,36.735567 14.9943846,35.2336216 16.4054904,34.6670936 L16.5778395,34.6036624 L16.7564751,34.5516061 L29.51,31.2870078 L31.5877995,15.5532937 C31.7890912,14.0280111 33.1031582,12.9224204 34.6050222,12.9458237 L34.779095,12.9535747 L34.9545188,12.9715886 C36.4568809,13.1698555 37.5628589,14.4527468 37.5597695,15.9762966 L37.5544506,16.1531108 L37.5362204,16.3383347 L35.774,29.6840078 L46.563,26.9240078 L48.5258285,12.0651927 Z M51.4660365,10.458027 C50.5425127,10.4725579 49.7377525,11.1260409 49.5438037,12.0412394 L49.517219,12.1961311 L47.4654982,27.7267797 L34.5894982,31.0207797 L36.5448198,16.2074722 L36.5589101,16.0587752 C36.6186139,15.0228217 35.8689817,14.1009408 34.8236831,13.9629927 L34.6749861,13.9489024 L34.5278411,13.9458235 C33.6043189,13.96045 32.7996263,14.6140164 32.6057723,15.5292349 L32.5792036,15.6841294 L30.4134982,32.0897797 L17.0043335,35.5204024 L16.8610873,35.5627092 C15.8774341,35.8931491 15.3010887,36.9322058 15.5623946,37.9536743 C15.7988142,38.8778602 16.6436113,39.4854013 17.5589347,39.4575713 L17.7039671,39.4478506 L17.8497012,39.4272908 L17.9956665,39.3956132 L29.8494982,36.3627797 L27.9184982,50.9977797 L14.9737652,54.5284802 L14.8312057,54.5730461 C13.8528991,54.9189947 13.2930514,55.9670325 13.5704724,56.9842426 C13.8082617,57.856137 14.5875132,58.4352444 15.4466815,58.4578247 L15.590537,58.4563898 C15.6868285,58.4519376 15.78379,58.4404338 15.8807885,58.4215165 L16.0262348,58.3875355 L27.3504982,55.2977797 L25.5171919,69.1963364 L25.5031016,69.3450334 C25.4433978,70.3809869 26.19303,71.3028678 27.2383286,71.4408159 C27.3378808,71.4539539 27.4366877,71.459529 27.5341706,71.4585558 L27.6793297,71.4503854 C28.5378099,71.3739202 29.2673137,70.7460617 29.4542223,69.8839858 L29.4828081,69.7196792 L31.5364982,54.1567797 L44.4394982,50.6377797 L42.517219,65.1961311 L42.5031133,65.3448266 C42.4433023,66.3807739 43.192839,67.3027324 44.2381233,67.4407888 C44.3376741,67.4539371 44.4364805,67.4595224 44.5339635,67.4579886 L44.6791233,67.450404 C45.5376115,67.3740276 46.2671803,66.7462447 46.4541782,65.8841881 L46.482781,65.7198846 L48.6254982,49.4957797 L60.0262348,46.3875355 L60.1687943,46.3429695 C61.1471009,45.997021 61.7069486,44.9489831 61.4295276,43.931773 C61.2049488,43.1083172 60.4973991,42.5460201 59.6956941,42.4670621 L59.5533185,42.4581909 C59.4260344,42.4548457 59.2969962,42.4637151 59.1677047,42.4856566 L58.9737652,42.5284802 L49.1934982,45.1947797 L51.0774982,30.9317797 L60.9956665,28.3956132 L61.1389127,28.3533065 C62.1225659,28.0228665 62.6989113,26.9838099 62.4376054,25.9623413 C62.2136289,25.0867968 61.4436295,24.4954431 60.5849256,24.4592837 L60.4410653,24.4584443 C60.3447155,24.4613738 60.2475842,24.4713434 60.1502988,24.4887248 L60.0043335,24.5204024 L51.6414982,26.6587797 L53.482781,12.7198846 L53.4968867,12.571189 C53.5566977,11.5352417 52.807161,10.6132832 51.7618767,10.4752268 C51.7121013,10.4686527 51.662512,10.4639693 51.6131812,10.4611211 L51.4660365,10.458027 Z"/>
    <path fill="#000" fill-opacity=".311" fill-rule="nonzero" d="M46.8989258,31.9580078 L45.0400391,46.3310547 L32.1337891,49.7873535 L33.986084,35.3210449 L46.8989258,31.9580078 Z M45.717,33.2980078 L34.891,36.1180078 L33.314,48.4360078 L44.134,45.5380078 L45.717,33.2980078 Z"/>
  </g>
</svg>
