<svg xmlns="http://www.w3.org/2000/svg" width="96" height="96" viewBox="0 0 96 96">
  <defs>
    <filter id="com.apps.juffed-a" width="129%" height="130.1%" x="-14.5%" y="-15%" filterUnits="objectBoundingBox">
      <feOffset dy="2" in="SourceAlpha" result="shadowOffsetOuter1"/>
      <feGaussianBlur in="shadowOffsetOuter1" result="shadowBlurOuter1" stdDeviation="2"/>
      <feColorMatrix in="shadowBlurOuter1" result="shadowMatrixOuter1" values="0 0 0 0 0   0 0 0 0 0   0 0 0 0 0  0 0 0 0.2 0"/>
      <feMerge>
        <feMergeNode in="shadowMatrixOuter1"/>
        <feMergeNode in="SourceGraphic"/>
      </feMerge>
    </filter>
    <linearGradient id="com.apps.juffed-b" x1="100%" x2="0%" y1="50%" y2="50%">
      <stop offset="0%" stop-color="#6F6F6F"/>
      <stop offset="37.076%" stop-color="#C5C5C5"/>
      <stop offset="74.573%" stop-color="#E2E2E2"/>
      <stop offset="100%" stop-color="#848484"/>
    </linearGradient>
    <linearGradient id="com.apps.juffed-c" x1="50%" x2="32.162%" y1="54.034%" y2="71.121%">
      <stop offset="0%" stop-color="#97E401"/>
      <stop offset="45.935%" stop-color="#8EC200"/>
      <stop offset="63.512%" stop-color="#6AA000"/>
      <stop offset="100%" stop-color="#6AA000"/>
    </linearGradient>
    <linearGradient id="com.apps.juffed-d" x1="100%" x2="0%" y1="50%" y2="50%">
      <stop offset="0%" stop-opacity=".2"/>
      <stop offset="100%" stop-color="#C9A84A"/>
    </linearGradient>
    <linearGradient id="com.apps.juffed-e" x1="100%" x2="0%" y1="50%" y2="50%">
      <stop offset="0%" stop-color="#99631E"/>
      <stop offset="100%" stop-color="#C9A84A"/>
    </linearGradient>
    <linearGradient id="com.apps.juffed-f" x1="100%" x2="0%" y1="50%" y2="50%">
      <stop offset="0%" stop-color="#A3883C"/>
      <stop offset="33.471%" stop-color="#D5B659"/>
      <stop offset="64.258%" stop-color="#FFEAA9"/>
      <stop offset="100%" stop-color="#FBDA28"/>
    </linearGradient>
    <linearGradient id="com.apps.juffed-g" x1="100%" x2="0%" y1="50%" y2="50%">
      <stop offset="0%"/>
      <stop offset="25.714%" stop-color="#4B4B4B"/>
      <stop offset="52.51%" stop-color="#858585"/>
      <stop offset="100%" stop-color="#343434"/>
    </linearGradient>
    <radialGradient id="com.apps.juffed-h" cx="40.218%" cy="45.327%" r="54.673%" fx="40.218%" fy="45.327%">
      <stop offset="0%" stop-color="#FBF8F8"/>
      <stop offset="100%" stop-color="#AEE8F2"/>
    </radialGradient>
    <linearGradient id="com.apps.juffed-i" x1="50%" x2="50%" y1="0%" y2="100%">
      <stop offset="0%" stop-color="#00CBFF"/>
      <stop offset="100%" stop-color="#009CFF"/>
    </linearGradient>
    <linearGradient id="com.apps.juffed-j" x1="100%" x2="0%" y1="50%" y2="50%">
      <stop offset="0%" stop-color="#E1E1E1"/>
      <stop offset="100%" stop-color="#BFBFBF"/>
    </linearGradient>
    <linearGradient id="com.apps.juffed-k" x1="50%" x2="50%" y1="0%" y2="100%">
      <stop offset="0%" stop-color="#464646"/>
      <stop offset="100%" stop-color="#060606"/>
    </linearGradient>
    <linearGradient id="com.apps.juffed-l" x1="100%" x2="0%" y1="50%" y2="50%">
      <stop offset="0%" stop-color="#7C7C7C"/>
      <stop offset="55.296%" stop-color="#A1A1A1"/>
      <stop offset="100%" stop-color="#686868"/>
    </linearGradient>
    <linearGradient id="com.apps.juffed-m" x1="100%" x2="0%" y1="50%" y2="50%">
      <stop offset="0%" stop-color="#737373"/>
      <stop offset="100%" stop-color="#272727"/>
    </linearGradient>
    <linearGradient id="com.apps.juffed-n" x1="100%" x2="0%" y1="50%" y2="50%">
      <stop offset="0%" stop-color="#313131"/>
      <stop offset="100%" stop-color="#8E8E8E"/>
    </linearGradient>
  </defs>
  <g fill="none" filter="url(#com.apps.juffed-a)" transform="translate(7 8)">
    <path fill="#009CFF" d="M69,0 C71.209139,0 73,1.790861 73,4 L73,75 C73,77.209139 71.209139,79 69,79 L13,79 C10.790861,79 9,77.209139 9,75 L9,4 C9,1.790861 10.790861,0 13,0 L69,0 Z M68,3 L14,3 C12.9296104,3 12.0804478,3.82720943 12,5 L12,5 L12,74 C12,75.0412279 12.8020494,75.9170285 14,76 L14,76 L68,76 C69.0703896,76 69.9195522,75.1727906 70,74 L70,74 L70,5 C70,3.95877207 69.1979506,3.08297147 68,3 L68,3 Z"/>
    <rect width="59" height="73" x="11.82" y="3" fill="#000" fill-opacity=".2" rx="2"/>
    <rect width="59" height="73" x="10.82" y="3" fill="#FFF" rx="2"/>
    <g transform="translate(7.82 37)">
      <circle cx="6" cy="2" r="2" fill="#4B4B4B"/>
      <rect width="7" height="2" y="1" fill="url(#com.apps.juffed-b)" rx="1"/>
    </g>
    <g transform="translate(7.82 27)">
      <circle cx="6" cy="2" r="2" fill="#4B4B4B"/>
      <rect width="7" height="2" y="1" fill="url(#com.apps.juffed-b)" rx="1"/>
    </g>
    <g transform="translate(7.82 17)">
      <circle cx="6" cy="2" r="2" fill="#4B4B4B"/>
      <rect width="7" height="2" y="1" fill="url(#com.apps.juffed-b)" rx="1"/>
    </g>
    <g transform="translate(7.82 7)">
      <circle cx="6" cy="2" r="2" fill="#4B4B4B"/>
      <rect width="7" height="2" y="1" fill="url(#com.apps.juffed-b)" rx="1"/>
    </g>
    <g transform="translate(.82 32.07)">
      <path fill="url(#com.apps.juffed-c)" d="M0.96695558,0.268243083 C1.27966271,-0.053274515 1.77701731,-0.0866147505 2.12790226,0.172822159 L2.2197179,0.250840073 L46.7131137,43.4585625 C47.0313583,43.7868201 47.0313583,44.048567 47.0313583,44.3186003 C47.0313583,44.8314362 46.3599028,45.8888373 45.8625641,45.9466024 L45.745943,45.9533301 L3,45.0185272 C1.9456382,45.0185272 1.08183488,44.2026494 1.00548574,43.1677895 L1,43.0185272 L0.057252188,1.13408943 C0.057252188,0.903389689 0.806107895,0.433622622 0.96695558,0.268243083 Z M9.28009122,17.6776298 C9.10040357,17.8640072 9,18.1128082 9,18.3716974 L9,34.9300699 C9,36.0346394 9.8954305,36.9300699 11,36.9300699 L28.2120676,36.9300699 C28.7643523,36.9300699 29.2120676,36.4823546 29.2120676,35.9300699 C29.2120676,35.6585157 29.1016305,35.3986384 28.9061363,35.2101611 L10.6940687,17.6517897 C10.296474,17.2684661 9.66341477,17.2800351 9.28009122,17.6776298 Z"/>
      <path fill="#8DC917" d="M0.250839537,0.813661108 C0.591974591,0.462914638 1.15285539,0.455123045 1.50360186,0.796258099 L1.50360186,0.796258099 L46.2347672,44.3016666 C46.4283435,44.4899383 46.5375506,44.7484939 46.5375506,45.0185272 C46.5375506,45.5708119 46.0898354,46.0185272 45.5375506,46.0185272 L45.5375506,46.0185272 L2,46.0185272 C0.8954305,46.0185272 0,45.1230967 0,44.0185272 L0,44.0185272 L0,1.43134076 C0,1.20064102 0.0899918513,0.979040651 0.250839537,0.813661108 Z M8.28009122,18.6776298 C8.10040357,18.8640072 8,19.1128082 8,19.3716974 L8,35.9300699 C8,37.0346394 8.8954305,37.9300699 10,37.9300699 L27.2120676,37.9300699 C27.7643523,37.9300699 28.2120676,37.4823546 28.2120676,36.9300699 C28.2120676,36.6585157 28.1016305,36.3986384 27.9061363,36.2101611 L9.69406869,18.6517897 C9.29647404,18.2684661 8.66341477,18.2800351 8.28009122,18.6776298 Z"/>
      <g transform="translate(2 40.93)">
        <rect width="1" height="5" fill="#73B224"/>
        <rect width="1" height="3" fill="#53981C"/>
      </g>
      <g transform="translate(9 40.93)">
        <rect width="1" height="5" fill="#73B224"/>
        <rect width="1" height="3" fill="#53981C"/>
      </g>
      <g transform="translate(16 40.93)">
        <rect width="1" height="5" fill="#73B224"/>
        <rect width="1" height="3" fill="#53981C"/>
      </g>
      <g transform="translate(23 40.93)">
        <rect width="1" height="5" fill="#73B224"/>
        <rect width="1" height="3" fill="#53981C"/>
      </g>
      <g transform="translate(29 40.93)">
        <rect width="1" height="5" fill="#73B224"/>
        <rect width="1" height="3" fill="#53981C"/>
      </g>
      <g transform="translate(36 40.93)">
        <rect width="1" height="5" fill="#73B224"/>
        <rect width="1" height="3" fill="#53981C"/>
      </g>
      <g transform="translate(39 42.93)">
        <rect width="1" height="3" fill="#73B224"/>
        <rect width="1" height="2" fill="#53981C"/>
      </g>
      <g transform="translate(32 42.93)">
        <rect width="1" height="3" fill="#73B224"/>
        <rect width="1" height="2" fill="#53981C"/>
      </g>
      <g transform="translate(26 42.93)">
        <rect width="1" height="3" fill="#73B224"/>
        <rect width="1" height="2" fill="#53981C"/>
      </g>
      <g transform="translate(19 42.93)">
        <rect width="1" height="3" fill="#73B224"/>
        <rect width="1" height="2" fill="#53981C"/>
      </g>
      <g transform="translate(12 42.93)">
        <rect width="1" height="3" fill="#73B224"/>
        <rect width="1" height="2" fill="#53981C"/>
      </g>
      <g transform="translate(5 42.93)">
        <rect width="1" height="3" fill="#73B224"/>
        <rect width="1" height="2" fill="#53981C"/>
      </g>
    </g>
    <g transform="rotate(45 5.218 67.839)">
      <rect width="16" height="52" x="2" y="18" fill="#000" fill-opacity=".2" rx="1"/>
      <rect width="16" height="52" x="1" y="18" fill="#FEB70A" rx="1"/>
      <path fill="#000" fill-opacity=".2" d="M1,-1.8189894e-12 L19,-1.8189894e-12 C19.5522847,-1.8189894e-12 20,0.44771525 20,1 L20,19.9190715 L20,19.9190715 C18.1456095,22.0308441 15.8914848,23.7545977 13.3676271,24.9909188 L11.3076626,26 L11.3076626,26 L1,26 L1,-1.8189894e-12 Z"/>
      <path fill="#FEB80A" d="M1,0 L18,0 C18.5522847,0 19,0.44771525 19,1 L19,20.5539228 L19,20.5539228 C17.3239997,22.3915507 15.2719878,23.8467788 12.9834585,24.8206817 L10.2122329,26 L10.2122329,26 L2.27373675e-13,26 L2.27373675e-13,1 C2.27373675e-13,0.44771525 0.44771525,0 1,0 Z"/>
      <rect width="6" height="1" y="22" fill="#EA8803"/>
      <rect width="6" height="1" y="12" fill="#EA8803"/>
      <rect width="6" height="1" y="2" fill="#EA8803"/>
      <rect width="8" height="1" y="17" fill="#EA8803"/>
      <rect width="8" height="1" y="7" fill="#EA8803"/>
      <rect width="7" height="1" x="1" y="64" fill="#EA8803"/>
      <rect width="4" height="1" x="1" y="59.5" fill="#EA8803"/>
      <rect width="4" height="1" x="1" y="50" fill="#EA8803"/>
      <rect width="4" height="1" x="1" y="40.5" fill="#EA8803"/>
      <rect width="4" height="1" x="1" y="31" fill="#EA8803"/>
      <rect width="7" height="1" x="1" y="55" fill="#EA8803"/>
      <rect width="7" height="1" x="1" y="45" fill="#EA8803"/>
      <rect width="7" height="1" x="1" y="36" fill="#EA8803"/>
      <rect width="7" height="1" x="1" y="26" fill="#EA8803"/>
    </g>
    <g transform="translate(27.82 5)">
      <rect width="3" height="7" x="19" y="39" fill="url(#com.apps.juffed-d)"/>
      <rect width="3" height="7" x="18" y="39" fill="url(#com.apps.juffed-e)"/>
      <rect width="7" height="24" x="17" y="44" fill="#000" fill-opacity=".2" rx="1"/>
      <rect width="7" height="24" x="16" y="44" fill="url(#com.apps.juffed-f)" rx="1"/>
      <rect width="7" height="18" x="16" y="45" fill="url(#com.apps.juffed-g)"/>
      <circle cx="20" cy="20" r="20" fill="url(#com.apps.juffed-h)" fill-opacity=".7"/>
      <path fill="url(#com.apps.juffed-i)" d="M20,0 C31.045695,0 40,8.954305 40,20 C40,31.045695 31.045695,40 20,40 C8.954305,40 0,31.045695 0,20 C0,8.954305 8.954305,0 20,0 Z M20,1 C9.50658975,1 1,9.50658975 1,20 C1,30.4934102 9.50658975,39 20,39 C30.4934102,39 39,30.4934102 39,20 C39,9.50658975 30.4934102,1 20,1 Z"/>
    </g>
    <g transform="translate(75.82 8)">
      <rect width="7" height="62" y="2" fill="url(#com.apps.juffed-j)" rx="3"/>
      <path fill="url(#com.apps.juffed-k)" d="M2,63 L5,63 L5,67.5 C5,68.3284271 4.32842712,69 3.5,69 C2.67157288,69 2,68.3284271 2,67.5 L2,63 L2,63 Z"/>
      <rect width="1" height="2" x="3" y="68" fill="#000" rx=".5"/>
      <rect width="5" height="1" x="1" y="64" fill="#030303" rx=".5"/>
      <path fill="url(#com.apps.juffed-l)" d="M0,43 L7,43 L7,63 C7,63.5522847 6.55228475,64 6,64 L1,64 C0.44771525,64 0,63.5522847 0,63 L0,43 L0,43 Z"/>
      <rect width="3" height="16" x="2" y="9" fill="#FAB30D"/>
      <rect width="3" height="18" x="2" y="25" fill="#FFF"/>
      <path fill="url(#com.apps.juffed-m)" d="M1,2 L6,2 C6.55228475,2 7,2.44771525 7,3 L7,9 L7,9 L0,9 L0,3 C0,2.44771525 0.44771525,2 1,2 Z"/>
      <polygon fill="#FAB30D" points="0 5 7 5 7 7 0 7"/>
      <path fill="url(#com.apps.juffed-n)" d="M3,0 L4,0 C4.55228475,0 5,0.44771525 5,1 L5,2 L5,2 L2,2 L2,1 C2,0.44771525 2.44771525,0 3,0 Z"/>
    </g>
  </g>
</svg>
