<svg xmlns="http://www.w3.org/2000/svg" width="96" height="96" viewBox="0 0 96 96">
  <defs>
    <filter id="com.apps.alien-a" width="128.6%" height="128.6%" x="-14.3%" y="-14.3%" filterUnits="objectBoundingBox">
      <feOffset dy="2" in="SourceAlpha" result="shadowOffsetOuter1"/>
      <feGaussianBlur in="shadowOffsetOuter1" result="shadowBlurOuter1" stdDeviation="2"/>
      <feColorMatrix in="shadowBlurOuter1" result="shadowMatrixOuter1" values="0 0 0 0 0   0 0 0 0 0   0 0 0 0 0  0 0 0 0.2 0"/>
      <feMerge>
        <feMergeNode in="shadowMatrixOuter1"/>
        <feMergeNode in="SourceGraphic"/>
      </feMerge>
    </filter>
    <linearGradient id="com.apps.alien-b" x1="50%" x2="50%" y1="0%" y2="100%">
      <stop offset="0%" stop-color="#54EA8A"/>
      <stop offset="100%" stop-color="#029371"/>
    </linearGradient>
  </defs>
  <g fill="none" filter="url(#com.apps.alien-a)" transform="translate(6 6)">
    <circle cx="42" cy="42" r="42" fill="url(#com.apps.alien-b)"/>
    <path fill="#02160A" d="M77.5793556,28.6036715 C66.831393,3.09776008 41.9994792,4.55575501 41.9994792,4.55575501 C41.9994792,4.55575501 17.1675654,3.09776008 6.4196027,28.6036715 C-1.94436825,48.4496026 13.4775782,55.4995781 20.731553,57.6515707 L20.7235531,57.6495707 C20.7235531,57.6495707 23.1655445,65.5655432 30.5055191,69.4155298 C30.6895184,69.5115295 30.9075176,69.3115302 30.811518,69.1275308 C29.8435213,67.2915372 27.0935309,59.9395627 28.0915274,59.0515658 L28.0875275,59.0515658 C28.2555269,59.0735657 28.4395263,59.0935656 28.6175256,59.1155655 L28.0915274,59.0995657 C31.4555158,59.8095632 34.9795035,62.453554 35.7475008,63.4615505 C35.9555001,63.7335495 36.273499,63.9575488 36.6174978,63.9575488 L41.9994792,63.9575488 L47.3814605,63.9575488 C47.7254593,63.9575488 48.0434582,63.7335495 48.2494575,63.4635504 C49.0174548,62.455554 52.5414425,59.8115631 55.9054309,59.1015656 L55.3794327,59.1175655 C55.5574321,59.0955656 55.7414314,59.0735657 55.9094308,59.0535657 L55.9054309,59.0535657 C56.9034274,59.9415627 54.153437,67.2955372 53.1854403,69.1295308 C53.0894407,69.3115302 53.3074399,69.5135294 53.4914393,69.4175298 C60.8294138,65.5675432 63.2734053,57.6515707 63.2734053,57.6515707 L63.2654053,57.6535707 C70.5233801,55.4995781 85.9433266,48.4516026 77.5793556,28.6036715 Z M51.9034447,71.4995225 C51.7474453,71.1715237 51.3814466,70.9915244 51.0194479,71.0655241 L46.1574648,72.0655206 C43.3474745,72.4875192 40.6774838,72.5395189 37.8414936,72.0655206 L32.9735105,71.0635241 C32.6135117,70.9895243 32.251513,71.1615237 32.0915136,71.4855227 C31.4915157,72.7015184 30.0535206,75.7615077 29.381523,77.1935028 C29.1835237,77.6135013 29.387523,78.0954997 29.8295214,78.2534991 C31.7615147,78.9414967 36.879497,80.5674911 41.9974792,80.5394911 C47.0974615,80.5134913 52.1994437,78.9274968 54.1454369,78.2534991 C54.5974355,78.0974997 54.7994347,77.5955014 54.5954355,77.1695029 L51.9034447,71.4995225 Z"/>
    <path fill="#177138" d="M70.3198565,51.4379673 L70.3198565,50.353971 C60.8258895,48.5699772 51.1959229,38.9600105 49.723928,29.8320422 C48.4179326,21.7160704 54.7799105,13.4580991 54.7799105,13.4580991 C47.7959348,17.6220846 44.4839462,22.408068 42.9139517,25.6160568 C41.649956,28.198048 41.4599568,31.6940358 43.3099503,33.8940282 C44.0939476,34.8260249 44.8619449,35.6780219 45.6259423,36.5140191 L45.4659428,36.3600195 C49.1219301,41.0500033 43.7879487,44.7059906 42.3719535,49.1359752 C41.107958,53.0899615 47.5599356,55.0699546 48.1839334,55.249954 C51.2939226,56.2899503 56.4979045,57.0379477 57.0879025,57.1219475 C60.0378922,57.541946 63.3258808,59.7419384 64.5258767,60.6059354 C64.7278759,60.7519349 64.999875,60.6039354 64.999875,60.3599362 L64.999875,55.519953 C64.999875,55.1999541 64.7658758,54.9279551 64.4458769,54.9039552 C56.8819032,54.3219572 52.3999188,51.7059663 50.6179249,50.4219707 C50.1199267,50.0819719 50.2899261,49.219975 50.2899261,49.219975 C50.2899261,49.219975 52.1219197,43.7899938 52.1219197,43.7899938 C52.1239197,43.7839938 52.2479193,43.0839963 53.0179166,43.5179947 C61.6558866,50.9899688 70.3198565,51.4379673 70.3198565,51.4379673 Z" transform="matrix(-1 0 0 1 112.263 0)"/>
    <path fill="#DB0400" d="M23.7538967,45.8019451 L22.8119,48.8339346 C22.7059003,49.1739334 22.8498998,49.5419321 23.1598987,49.7199315 L27.0018854,51.875924 C27.0018854,51.875924 33.9998611,53.7099177 35.9998542,53.2919191 L35.9998542,51.7079246 C35.9998542,51.7079246 29.1138781,49.8319311 24.5558939,45.6159458 C24.3138947,45.3919466 23.8518963,45.4879462 23.7538967,45.8019451 Z M60.0237708,45.8019451 C59.9257711,45.4859462 59.5757724,45.3919466 59.3337731,45.6159458 C54.773789,49.8319311 47.9998125,51.7499245 47.9998125,51.7499245 L47.9998125,53.2919191 C49.9998125,53.7079177 56.8857816,51.875924 56.8857816,51.875924 L60.6177687,49.7199315 C60.9277676,49.5419321 61.0717671,49.1739334 60.9657675,48.8339346 L60.0237708,45.8019451 Z"/>
    <path fill="#177138" d="M41.3198565,51.4379673 L41.3198565,50.353971 C31.8258895,48.5699772 22.1959229,38.9600105 20.723928,29.8320422 C19.4179326,21.7160704 25.7799105,13.4580991 25.7799105,13.4580991 C18.7959348,17.6220846 15.4839462,22.408068 13.9139517,25.6160568 C12.649956,28.198048 12.4599568,31.6940358 14.3099503,33.8940282 C15.0939476,34.8260249 15.8619449,35.6780219 16.6259423,36.5140191 L16.4659428,36.3600195 C20.1219301,41.0500033 14.7879487,44.7059906 13.3719535,49.1359752 C12.107958,53.0899615 18.5599356,55.0699546 19.1839334,55.249954 C22.2939226,56.2899503 27.4979045,57.0379477 28.0879025,57.1219475 C31.0378922,57.541946 34.3258808,59.7419384 35.5258767,60.6059354 C35.7278759,60.7519349 35.999875,60.6039354 35.999875,60.3599362 L35.999875,55.519953 C35.999875,55.1999541 35.7658758,54.9279551 35.4458769,54.9039552 C27.8819032,54.3219572 23.3999188,51.7059663 21.6179249,50.4219707 C21.1199267,50.0819719 21.2899261,49.219975 21.2899261,49.219975 C21.2899261,49.219975 23.1219197,43.7899938 23.1219197,43.7899938 C23.1239197,43.7839938 23.2479193,43.0839963 24.0179166,43.5179947 C32.6558866,50.9899688 41.3198565,51.4379673 41.3198565,51.4379673 Z"/>
  </g>
</svg>
