<svg xmlns="http://www.w3.org/2000/svg" width="96" height="96" viewBox="0 0 96 96">
  <defs>
    <filter id="com.apps.naev-a" width="127.5%" height="128.7%" x="-13.7%" y="-14.4%" filterUnits="objectBoundingBox">
      <feOffset dy="2" in="SourceAlpha" result="shadowOffsetOuter1"/>
      <feGaussianBlur in="shadowOffsetOuter1" result="shadowBlurOuter1" stdDeviation="2"/>
      <feColorMatrix in="shadowBlurOuter1" result="shadowMatrixOuter1" values="0 0 0 0 0   0 0 0 0 0   0 0 0 0 0  0 0 0 0.2 0"/>
      <feMerge>
        <feMergeNode in="shadowMatrixOuter1"/>
        <feMergeNode in="SourceGraphic"/>
      </feMerge>
    </filter>
    <linearGradient id="com.apps.naev-b" x1="72.887%" x2="48.089%" y1="51.138%" y2="12.844%">
      <stop offset="0%" stop-color="#1B1B1B"/>
      <stop offset="100%" stop-color="#595959"/>
    </linearGradient>
    <linearGradient id="com.apps.naev-c" x1="50%" x2="50%" y1="2.969%" y2="100%">
      <stop offset="0%" stop-opacity=".86"/>
      <stop offset="100%" stop-opacity=".704"/>
    </linearGradient>
    <linearGradient id="com.apps.naev-d" x1="50%" x2="50%" y1="3.991%" y2="98.388%">
      <stop offset="0%" stop-color="#FF4D89"/>
      <stop offset="100%" stop-color="#930000"/>
    </linearGradient>
    <linearGradient id="com.apps.naev-e" x1="50%" x2="50%" y1="3.991%" y2="98.388%">
      <stop offset="0%" stop-color="#FF4D89"/>
      <stop offset="100%" stop-color="#930000"/>
    </linearGradient>
    <linearGradient id="com.apps.naev-f" x1="50%" x2="50%" y1="3.991%" y2="98.388%">
      <stop offset="0%" stop-color="#FF4D89"/>
      <stop offset="100%" stop-color="#930000"/>
    </linearGradient>
    <linearGradient id="com.apps.naev-g" x1="50%" x2="15.091%" y1="34.61%" y2="76.647%">
      <stop offset="0%" stop-opacity=".362"/>
      <stop offset="100%"/>
    </linearGradient>
    <linearGradient id="com.apps.naev-h" x1="50%" x2="15.091%" y1="33.652%" y2="78.306%">
      <stop offset="0%" stop-opacity=".362"/>
      <stop offset="100%"/>
    </linearGradient>
    <linearGradient id="com.apps.naev-i" x1="50%" x2="15.091%" y1="31.519%" y2="82%">
      <stop offset="0%" stop-opacity=".362"/>
      <stop offset="100%"/>
    </linearGradient>
  </defs>
  <g fill="none" fill-rule="evenodd" filter="url(#com.apps.naev-a)" transform="translate(4 6)">
    <path fill="url(#com.apps.naev-b)" fill-rule="nonzero" d="M1.0006372,82.4985218 C2.15268749,76.9629419 3.5379414,73.0790715 5.15639892,70.8469105 C6.7354816,68.669055 9.40728995,67.201106 13.171824,66.4430638 C13.3585323,66.4054934 13.5306179,66.3153658 13.6678465,66.1833058 L40.02759,40.8164114 C40.3729302,40.4840786 40.4339217,39.9534561 40.1729904,39.5514364 L39.2287799,38.0966809 C38.973535,37.7034224 39.0257656,37.185632 39.354407,36.8512713 L49.3768504,26.6544079 C49.7639914,26.2605294 49.7585297,25.627388 49.3646512,25.2402469 C49.1634172,25.0424551 48.8879876,24.9388835 48.6062881,24.9550747 L32.7606117,25.8658361 C32.5813302,25.8761406 32.4081315,25.9345321 32.259206,26.0348777 L29.0448953,28.200674 C28.6413089,28.4726098 28.0970904,28.3928727 27.788479,28.0165882 C27.48251,27.6435256 27.5195316,27.0968176 27.8730022,26.7684104 L29.6654244,25.1030832 C29.869067,24.9138802 29.9847681,24.6484517 29.9847681,24.3704803 L29.9847681,19.8192829 C29.9847681,19.4656876 30.1715028,19.1383797 30.4758916,18.9584433 L31.6919984,18.2395543 C32.1408064,17.9742461 32.718139,18.0982686 33.0183925,18.5244903 L34.4570796,20.5667628 C34.7476274,20.9792068 35.299898,21.1106306 35.7450802,20.8732683 L37.8918225,19.7286679 C38.1901212,19.5696209 38.5608732,19.6825067 38.7199202,19.9808055 C38.7514253,20.0398945 38.7729133,20.1035471 38.783738,20.1691782 L38.791897,20.2687855 C38.791897,20.6685647 39.1159821,20.9926498 39.5157613,20.9926498 C39.5971323,20.9926498 39.6779209,20.9789299 39.7547299,20.952067 L63.8621517,12.5208156 C64.0824417,12.4437721 64.2688483,12.292108 64.3890854,12.0920919 L69.2626892,3.98478232 C69.3309592,3.87121421 69.4211194,3.77234676 69.5279304,3.69392537 L72.9327753,1.19406469 C73.377955,0.867210702 74.0038119,0.963132609 74.3306659,1.40831226 C74.4382723,1.55487368 74.5038835,1.72799982 74.5204416,1.90906672 L75.0677036,7.89353809 C75.0924019,8.16362163 75.2257418,8.41209003 75.4371516,8.58197541 L78.166333,10.7751005 C78.5031588,11.0457681 78.6280366,11.5021632 78.4759342,11.9066102 L76.876274,16.1601774 C76.845867,16.2410311 76.8260644,16.3254838 76.8173608,16.4114266 L75.9848313,24.6321851 C75.9731592,24.7474405 75.9816023,24.8638476 76.009784,24.9762123 L82.8000097,52.0498714 C82.9343646,52.5855646 83.4775459,52.9109136 84.0132391,52.7765588 C84.1284658,52.7476593 84.2376213,52.6984596 84.3355879,52.6312665 L86.0840484,51.432037 C86.4486326,51.1819769 86.9465621,51.2719439 87.2005884,51.6337757 C87.4550881,51.996282 87.3721051,52.4958693 87.0140783,52.756633 L76.5739601,60.3605445 C76.2750024,60.5782861 75.8670358,60.5382274 75.615379,60.2820721 L75.53677,60.1874867 L75.53677,60.1874867 C75.29418,59.8408705 75.3604374,59.3657494 75.6886016,59.0987271 L77.4008811,57.7054708 C77.7843538,57.3934448 77.8822655,56.8480304 77.6312682,56.4221057 L63.4423573,32.3445211 C63.1619616,31.8687094 62.5489345,31.7102934 62.0731228,31.990689 L62.0112319,32.0302948 L62.0112319,32.0302948 L47.2158145,42.2834549 C47.0798592,42.3776714 46.9226558,42.4366916 46.7582873,42.4552283 L42.9232073,42.8877307 C42.6978498,42.9131455 42.4878237,43.0144068 42.3275919,43.1748989 L27.2413559,58.2855991 L27.2413559,58.2855991 L16.7253161,68.6607336 C16.5247779,68.85858 16.4169938,69.1318353 16.4284634,69.4133085 C16.5613699,72.6749173 15.2914011,75.3627455 12.6185571,77.4767933 C9.8279861,79.6839556 5.95534612,81.3578651 1.0006372,82.4985218 Z"/>
    <path fill="url(#com.apps.naev-c)" fill-rule="nonzero" d="M72.3409538,0.387995622 L68.9361089,2.88785631 C68.7224869,3.04469909 68.5421665,3.24243398 68.4056265,3.46957021 L63.5320226,11.5768798 L39.7456372,19.8947152 L39.7228256,19.8019573 C39.6924029,19.7013992 39.6521149,19.6036974 39.6023292,19.5103225 C39.1834417,18.7246826 38.2069793,18.4273712 37.4213395,18.8462588 L35.2745972,19.9908593 L33.8359101,17.9485867 C33.2354031,17.0961434 32.0807379,16.8480983 31.1831219,17.3787147 L29.9670151,18.0976038 C29.3582375,18.4574764 28.9847681,19.1120923 28.9847681,19.8192829 L28.9847681,24.3704803 L27.1923459,26.0358075 C26.4518251,26.7238204 26.3742649,27.8691732 27.0152698,28.6507392 C27.6510574,29.4259439 28.7722323,29.5902146 29.6036832,29.0299847 L32.8179939,26.8641884 L48.6636703,25.953427 L38.6412269,36.1502904 C37.9839443,36.8190117 37.879483,37.8545926 38.3899727,38.6411096 L39.3341833,40.095865 L12.9745533,65.4627147 C8.9825889,66.2665533 6.08990199,67.8558577 4.34681275,70.2599095 C2.62690597,72.6319882 1.20000545,76.6326243 0.0216145879,82.2947702 C-0.126998025,83.008851 0.514196777,83.6366663 1.22498546,83.4730309 C6.31376231,82.3015095 10.3198121,80.5699349 13.2389076,78.2611181 C16.0654365,76.0255154 17.4809419,73.1505242 17.4369049,69.7177294 L17.427629,69.3726019 L27.9543951,58.9868047 L42.6793501,44.2379319 L42.7956714,44.1110424 C43.3821869,43.4135671 43.4259161,42.3966374 42.8810797,41.6479981 L41.9536372,40.3737152 L75.4244425,9.38444292 C75.8800533,8.96260383 76.1139,8.353081 76.0573556,7.73475082 L75.5162863,1.81799969 C75.4831703,1.4558659 75.3519477,1.10961361 75.1367349,0.816490773 C74.483027,-0.0738685247 73.2313131,-0.265712339 72.3409538,0.387995622 Z M74.3306659,1.40831226 C74.4382723,1.55487368 74.5038835,1.72799982 74.5204416,1.90906672 L75.0615108,7.82581785 C75.089783,8.13498294 74.9728597,8.43974436 74.7450542,8.6506639 L40.6224634,40.2439442 L42.0725345,42.2364323 C42.3619789,42.6341469 42.3192055,43.1832988 41.9716697,43.5313991 L27.2413559,58.2855991 L16.7253161,68.6607336 C16.5247779,68.85858 16.4169938,69.1318353 16.4284634,69.4133085 C16.5613699,72.6749173 15.2914011,75.3627455 12.6185571,77.4767933 C9.8279861,79.6839556 5.95534612,81.3578651 1.0006372,82.4985218 C2.15268749,76.9629419 3.5379414,73.0790715 5.15639892,70.8469105 C6.7354816,68.669055 9.40728995,67.201106 13.171824,66.4430638 C13.3585323,66.4054934 13.5306179,66.3153658 13.6678465,66.1833058 L40.02759,40.8164114 C40.3729302,40.4840786 40.4339217,39.9534561 40.1729904,39.5514364 L39.2287799,38.0966809 C38.973535,37.7034224 39.0257656,37.185632 39.354407,36.8512713 L49.3768504,26.6544079 C49.7639914,26.2605294 49.7585297,25.627388 49.3646512,25.2402469 C49.1634172,25.0424551 48.8879876,24.9388835 48.6062881,24.9550747 L32.7606117,25.8658361 C32.5813302,25.8761406 32.4081315,25.9345321 32.259206,26.0348777 L29.0448953,28.200674 C28.6413089,28.4726098 28.0970904,28.3928727 27.788479,28.0165882 C27.48251,27.6435256 27.5195316,27.0968176 27.8730022,26.7684104 L29.6654244,25.1030832 C29.869067,24.9138802 29.9847681,24.6484517 29.9847681,24.3704803 L29.9847681,19.8192829 C29.9847681,19.4656876 30.1715028,19.1383797 30.4758916,18.9584433 L31.6919984,18.2395543 C32.1408064,17.9742461 32.718139,18.0982686 33.0183925,18.5244903 L34.4570796,20.5667628 C34.7476274,20.9792068 35.299898,21.1106306 35.7450802,20.8732683 L37.8918225,19.7286679 C38.1901212,19.5696209 38.5608732,19.6825067 38.7199202,19.9808055 C38.7514253,20.0398945 38.7729133,20.1035471 38.783738,20.1691782 L38.791897,20.2687855 C38.791897,20.6685647 39.1159821,20.9926498 39.5157613,20.9926498 C39.5971323,20.9926498 39.6779209,20.9789299 39.7547299,20.952067 L63.8621517,12.5208156 C64.0824417,12.4437721 64.2688483,12.292108 64.3890854,12.0920919 L69.2626892,3.98478232 C69.3309592,3.87121421 69.4211194,3.77234676 69.5279304,3.69392537 L72.9327753,1.19406469 C73.377955,0.867210702 74.0038119,0.963132609 74.3306659,1.40831226 Z"/>
    <path fill="url(#com.apps.naev-d)" fill-rule="nonzero" d="M40.331667,40.1668094 L40.6224634,40.2439442 L42.1246372,42.3188094 L42.1379903,42.3388119 C42.3527336,42.724276 42.2902442,43.2123072 41.9716697,43.5313991 L27.5366372,57.9888094 L24.9376372,55.3368094 L40.02759,40.8164114 C40.2113254,40.6395965 40.3145707,40.406652 40.331667,40.1668094 Z"/>
    <polygon fill="url(#com.apps.naev-e)" fill-rule="nonzero" points="60.212 13.8 53.498 20.109 48.198 21.253 45.927 24.518 41.393 24.791 43.176 22.043 39.11 22.974 37.788 24.791 35.374 25.013 36.544 23.442 34.516 23.812 35.618 22.387 39.52 20.991"/>
    <polygon fill="url(#com.apps.naev-f)" fill-rule="nonzero" points="76.012 25.013 68.243 31.271 70.935 37.511 67.84 39.804 70.744 44.772 73.904 42.927 76.398 48.215 73.713 49.901 75.788 53.312 77.984 51.906 79.341 54.122 82.781 51.906"/>
    <polyline stroke="url(#com.apps.naev-g)" stroke-linecap="round" stroke-linejoin="round" points="65.267 18.427 69.293 23.732 72.534 21.08"/>
    <polyline stroke="url(#com.apps.naev-h)" stroke-linecap="round" stroke-linejoin="round" points="62.367 20.76 66.198 26.134 69.509 23.447"/>
    <line x1="68.767" x2="64.767" y1="29.927" y2="32.927" stroke="url(#com.apps.naev-i)" stroke-linecap="round" stroke-linejoin="round"/>
  </g>
</svg>
