<svg xmlns="http://www.w3.org/2000/svg" width="96" height="96" viewBox="0 0 96 96">
  <defs>
    <filter id="com.apps.foxtrotgps-a" width="128.6%" height="128.6%" x="-14.3%" y="-14.3%" filterUnits="objectBoundingBox">
      <feOffset dy="2" in="SourceAlpha" result="shadowOffsetOuter1"/>
      <feGaussianBlur in="shadowOffsetOuter1" result="shadowBlurOuter1" stdDeviation="2"/>
      <feColorMatrix in="shadowBlurOuter1" result="shadowMatrixOuter1" values="0 0 0 0 0   0 0 0 0 0   0 0 0 0 0  0 0 0 0.2 0"/>
      <feMerge>
        <feMergeNode in="shadowMatrixOuter1"/>
        <feMergeNode in="SourceGraphic"/>
      </feMerge>
    </filter>
    <radialGradient id="com.apps.foxtrotgps-b" cx="52.166%" cy="23.236%" r="80.142%" fx="52.166%" fy="23.236%">
      <stop offset="0%" stop-color="#E0E0FF"/>
      <stop offset="18.578%" stop-color="#E0E0FF"/>
      <stop offset="100%" stop-color="#7F7FE7"/>
    </radialGradient>
    <linearGradient id="com.apps.foxtrotgps-c" x1="50%" x2="50%" y1="0%" y2="129.829%">
      <stop offset="0%" stop-opacity=".417"/>
      <stop offset="100%"/>
    </linearGradient>
  </defs>
  <g fill="none" fill-rule="evenodd" filter="url(#com.apps.foxtrotgps-a)" transform="translate(6 6)">
    <circle cx="42" cy="42" r="42" fill="url(#com.apps.foxtrotgps-b)"/>
    <path fill="url(#com.apps.foxtrotgps-c)" d="M28.2936198,13.3007812 L30.046875,14.4195964 C29.0247396,14.5717231 27.6618924,15.0878906 25.9583333,15.968099 C23.4029948,17.2884115 20.8789062,18.5224609 19.5732422,22.2054036 C18.7027995,24.6606988 18.8529731,26.936849 20.023763,29.0338542 C22.1041221,29.9811198 23.6198556,30.9547526 24.5709635,31.9547526 C25.4871322,32.7099609 27.1189362,33.1771918 29.4663754,33.3564453 L38.7692057,33.9267578 L39.9628906,33.3564453 L58.0761719,33.3564453 C59.8691406,32.335829 61.1732856,31.617513 61.9886068,31.2014974 C63.2115885,30.577474 65.8509115,31.1233724 67.1178385,31.9547526 C68.3847656,32.7861328 70.9117839,34.6803385 73.2652995,34.6803385 L78.3056641,34.6803385 L78.3056641,34.6803385 C80.0020616,33.3151042 80.8502604,32.632487 80.8502604,32.632487 C80.8502604,32.632487 82.2688802,33.1731771 81.5595703,33.9267578 C81.086697,34.429145 80.2255859,35.1312934 78.976237,36.0332031 C76.0356988,36.3980035 73.5988498,36.3980035 71.6656901,36.0332031 C69.7325304,35.6684028 67.9430339,35.4398872 66.2972005,35.3476562 L65.6572266,35.3476562 C65.2177734,35.9008247 64.9980469,36.3778212 64.9980469,36.7786458 C64.9980469,37.3798828 64.8714193,42.1708984 64.3681641,44.0094401 C64.0326606,45.2351345 64.2426215,47.0329861 64.9980469,49.4029948 C66.2215712,55.7921007 66.4861111,60.3931207 65.7916667,63.2060547 C65.3650174,64.6810981 64.8905165,65.9534505 64.3681641,67.023112 C60.2673856,67.7136813 56.1544152,68.2568713 51.9641927,67.8662109 L45.0963542,64.9580078 C51.0746528,60.9332682 54.7325304,57.6920573 56.069987,55.234375 C58.0761719,51.5478516 59.5035807,48.0113932 58.7597656,44.4723307 C58.3296441,43.2555339 57.5334201,42.1003689 56.3710937,41.0068359 C56.4581163,39.4332682 56.6540799,38.4973958 56.9589844,38.1992188 C57.4163411,37.7519531 56.5472005,35.3476562 55.5026042,35.3476562 C54.4580078,35.3476562 48.3662109,34.9746094 46.5175781,34.9746094 C45.2851562,34.9746094 43.2792969,35.0989583 40.5,35.3476562 L38.7692057,35.3476562 L36.8836263,36.6634115 C35.7372504,35.9325087 34.6950955,35.5670573 33.7571615,35.5670573 L27.5284831,35.5670573 L27.5284831,35.5670573 C25.105089,35.6102431 23.6051975,35.8945313 23.0288086,36.4199219 C22.4524197,36.9453125 21.9549696,37.5384115 21.5364583,38.1992188 L21.5364583,44.4723307 L19.8017578,44.4723307 C19.2233073,53.3064236 19.2130534,59.1106771 19.7709961,61.8850911 C20.6079102,66.0467122 20.8606771,67.8662109 20.023763,67.8662109 C19.186849,67.8662109 17.1552734,67.6865234 17.1552734,66.3222656 C17.0792643,65.3979492 17.5339658,65.7940704 17.1552734,65.5555013 C16.9028119,65.3964553 16.4971044,65.3964553 15.938151,65.5555013 C14.3246528,66.5417209 13.1903212,66.797309 12.5351562,66.3222656 C12.5351562,65.4127604 13.3758681,62.0485026 15.0572917,56.2294922 L16.4754232,44.7775065 L14.222168,44.4723307 L15.938151,38.5058594 C16.2963325,32.1918403 16.4754232,28.428928 16.4754232,27.2171224 C16.4754232,27.1397731 16.4751341,27.0551689 16.4748883,26.9638687 L16.4746135,26.670439 C16.4783415,24.4315718 16.6557929,19.3558081 20.3111979,16.9973958 C22.9748264,15.2788628 25.6356337,14.046658 28.2936198,13.3007812 Z M59.3714193,22.6601563 C61.4083659,22.6601563 62.3227539,25.0498515 62.3227539,26.7067057 C62.3227539,28.36356 60.2921549,30.5292969 58.148763,30.1033529 C56.0053711,29.6774089 55.6897508,28.36356 55.6897508,26.7067057 C55.6897508,25.0498515 57.3344727,22.6601563 59.3714193,22.6601563 Z M23.8930664,21.3486328 C25.5499207,21.3486328 26.2355143,23.0174622 26.2355143,24.6743164 C26.2355143,26.3311707 24.5530599,28.3188477 22.7880859,28.0709635 C21.023112,27.8230794 20.3291016,26.3311707 20.3291016,24.6743164 C20.3291016,23.0174622 22.2362122,21.3486328 23.8930664,21.3486328 Z"/>
  </g>
</svg>
