<svg xmlns="http://www.w3.org/2000/svg" width="96" height="96" viewBox="0 0 96 96">
  <defs>
    <filter id="com.apps.playlist-a" width="128.6%" height="128.6%" x="-14.3%" y="-14.3%" filterUnits="objectBoundingBox">
      <feOffset dy="2" in="SourceAlpha" result="shadowOffsetOuter1"/>
      <feGaussianBlur in="shadowOffsetOuter1" result="shadowBlurOuter1" stdDeviation="2"/>
      <feColorMatrix in="shadowBlurOuter1" result="shadowMatrixOuter1" values="0 0 0 0 0   0 0 0 0 0   0 0 0 0 0  0 0 0 0.2 0"/>
      <feMerge>
        <feMergeNode in="shadowMatrixOuter1"/>
        <feMergeNode in="SourceGraphic"/>
      </feMerge>
    </filter>
    <linearGradient id="com.apps.playlist-b" x1="50%" x2="50%" y1="0%" y2="96.391%">
      <stop offset="0%" stop-color="#626262"/>
      <stop offset="100%"/>
    </linearGradient>
    <linearGradient id="com.apps.playlist-c" x1="50%" x2="50%" y1="1.879%" y2="100%">
      <stop offset="0%" stop-color="#F8E600"/>
      <stop offset="100%" stop-color="#8B6800"/>
    </linearGradient>
    <linearGradient id="com.apps.playlist-d" x1="50%" x2="50%" y1="1.879%" y2="100%">
      <stop offset="0%" stop-color="#F8E600"/>
      <stop offset="100%" stop-color="#8B6800"/>
    </linearGradient>
  </defs>
  <g fill="none" filter="url(#com.apps.playlist-a)" transform="translate(6 6)">
    <circle cx="42" cy="42" r="42" fill="url(#com.apps.playlist-b)"/>
    <path fill="url(#com.apps.playlist-c)" d="M42,0 C65.1959595,0 84,18.8040405 84,42 C84,65.1959595 65.1959595,84 42,84 C18.8040405,84 0,65.1959595 0,42 C0,18.8040405 18.8040405,0 42,0 Z M42,5 C21.5654643,5 5,21.5654643 5,42 C5,62.4345357 21.5654643,79 42,79 C62.4345357,79 79,62.4345357 79,42 C79,21.5654643 62.4345357,5 42,5 Z"/>
    <path fill="url(#com.apps.playlist-d)" d="M33.0108062,23.7634722 L62.053569,40.7742333 C63.0066837,41.3324861 63.3267824,42.5576916 62.7685295,43.5108062 C62.5953791,43.8064289 62.3491917,44.0526163 62.053569,44.2257667 L33.0108062,61.2365278 C32.0576916,61.7947806 30.8324861,61.4746819 30.2742333,60.5215673 C30.0946568,60.2149734 30,59.8660743 30,59.5107611 L30,25.4892389 C30,24.3846694 30.8954305,23.4892389 32,23.4892389 C32.3553133,23.4892389 32.7042123,23.5838958 33.0108062,23.7634722 Z M35,30.723 L35,54.276 L55.106,42.5 L35,30.723 Z"/>
  </g>
</svg>
