<?xml version="1.0" encoding="UTF-8"?>
<svg width="96px" height="96px" viewBox="0 0 96 96" version="1.1" xmlns="http://www.w3.org/2000/svg" xmlns:xlink="http://www.w3.org/1999/xlink">
    <title>com.apps.NeuCalculator</title>
    <defs>
        <filter x="-14.0%" y="-14.0%" width="127.9%" height="127.9%" filterUnits="objectBoundingBox" id="filter-1">
            <feOffset dx="0" dy="2" in="SourceAlpha" result="shadowOffsetOuter1"></feOffset>
            <feGaussianBlur stdDeviation="2" in="shadowOffsetOuter1" result="shadowBlurOuter1"></feGaussianBlur>
            <feColorMatrix values="0 0 0 0 0   0 0 0 0 0   0 0 0 0 0  0 0 0 0.2 0" type="matrix" in="shadowBlurOuter1" result="shadowMatrixOuter1"></feColorMatrix>
            <feMerge>
                <feMergeNode in="shadowMatrixOuter1"></feMergeNode>
                <feMergeNode in="SourceGraphic"></feMergeNode>
            </feMerge>
        </filter>
    </defs>
    <g id="com.apps.NeuCalculator" stroke="none" stroke-width="1" fill="none" fill-rule="evenodd">
        <g id="编组-3" filter="url(#filter-1)" transform="translate(5.000000, 5.000000)">
            <rect id="矩形" fill="#2C2A47" x="0" y="0" width="82" height="82" rx="18"></rect>
            <path d="M50,42 L78,42 C82.418278,42 86,45.581722 86,50 L86,68 C86,77.9411255 77.9411255,86 68,86 L50,86 C45.581722,86 42,82.418278 42,78 L42,50 C42,45.581722 45.581722,42 50,42 Z" id="矩形" fill="#D8D8D8"></path>
            <g id="编组-2" transform="translate(14.000000, 15.000000)" fill="#FFFFFF">
                <rect id="矩形" x="6" y="0" width="4" height="16" rx="2"></rect>
                <rect id="矩形" transform="translate(8.000000, 8.000000) rotate(-270.000000) translate(-8.000000, -8.000000) " x="6" y="0" width="4" height="16" rx="2"></rect>
            </g>
            <g id="编组" transform="translate(22.000000, 62.000000) rotate(-315.000000) translate(-22.000000, -62.000000) translate(14.000000, 54.000000)" fill="#FFFFFF">
                <rect id="矩形" x="6" y="0" width="4" height="16"></rect>
                <rect id="矩形" transform="translate(8.000000, 8.000000) rotate(-270.000000) translate(-8.000000, -8.000000) " x="6" y="0" width="4" height="16"></rect>
            </g>
            <rect id="矩形备份" fill="#FFFFFF" transform="translate(62.000000, 23.000000) rotate(-270.000000) translate(-62.000000, -23.000000) " x="60" y="15" width="4" height="16" rx="2"></rect>
            <rect id="矩形备份-2" fill="#FF0303" transform="translate(62.000000, 60.000000) rotate(-270.000000) translate(-62.000000, -60.000000) " x="60" y="52" width="4" height="16" rx="2"></rect>
            <rect id="矩形备份-3" fill="#FF0303" transform="translate(62.000000, 66.000000) rotate(-270.000000) translate(-62.000000, -66.000000) " x="60" y="58" width="4" height="16" rx="2"></rect>
        </g>
    </g>
</svg>