<svg xmlns="http://www.w3.org/2000/svg" width="96" height="96" viewBox="0 0 96 96">
  <defs>
    <filter id="com.apps.qtractor-a" width="130.2%" height="127%" x="-15.1%" y="-13.5%" filterUnits="objectBoundingBox">
      <feOffset dy="2" in="SourceAlpha" result="shadowOffsetOuter1"/>
      <feGaussianBlur in="shadowOffsetOuter1" result="shadowBlurOuter1" stdDeviation="2"/>
      <feColorMatrix in="shadowBlurOuter1" result="shadowMatrixOuter1" values="0 0 0 0 0   0 0 0 0 0   0 0 0 0 0  0 0 0 0.2 0"/>
      <feMerge>
        <feMergeNode in="shadowMatrixOuter1"/>
        <feMergeNode in="SourceGraphic"/>
      </feMerge>
    </filter>
    <radialGradient id="com.apps.qtractor-b" cx="19.806%" cy="53.669%" r="80.533%" fx="19.806%" fy="53.669%" gradientTransform="matrix(.08027 .68424 -.99677 .0551 .718 .372)">
      <stop offset="0%" stop-color="#201200"/>
      <stop offset="100%" stop-color="#FFC57E"/>
    </radialGradient>
  </defs>
  <g fill="none" filter="url(#com.apps.qtractor-a)" transform="translate(13.463 -.792)">
    <path fill="#764100" d="M16.5366211,57.7918783 C17.0889058,57.7918783 17.5366211,58.2395936 17.5366211,58.7918783 L17.5366211,62.7918783 C17.5366211,63.3441631 17.0889058,63.7918783 16.5366211,63.7918783 C15.9843363,63.7918783 15.5366211,63.3441631 15.5366211,62.7918783 L15.5366211,58.7918783 C15.5366211,58.2395936 15.9843363,57.7918783 16.5366211,57.7918783 Z"/>
    <polygon fill="#FFC57E" points="26.01 38.792 16.548 47.792 16.548 55.792 4.537 55.792 4.537 54.792 7.777 50.792 1.01 50.792 2.537 54.792 2.537 58.792 19.537 58.792 19.537 49.792 30.143 49.792"/>
    <ellipse cx="47.537" cy="37.292" fill="#FFC887" rx="22" ry="31.5" transform="rotate(-21 47.537 37.292)"/>
    <ellipse cx="47.347" cy="37.398" fill="url(#com.apps.qtractor-b)" rx="18.926" ry="27.571" transform="rotate(-21 47.347 37.398)"/>
    <polygon fill="#FFC57E" points="2.86 63.792 5.537 66.625 5.537 77.792 0 80.972 2.86 88.792 44.581 88.792 44.581 85.832 38.537 81.826 38.537 67.792 40.021 65.442 32.268 63.792"/>
    <path fill="#AE8450" d="M32.2680664,63.7918783 L36.9663516,64.7918783 L3.80535156,64.7918783 L2.86035156,63.7918783 L32.2680664,63.7918783 Z"/>
    <rect width="23" height="2" x="8.537" y="60.792" fill="#764100" rx="1"/>
    <path fill="#764100" d="M20.5366211,58.7918783 C21.0889058,58.7918783 21.5366211,59.2395936 21.5366211,59.7918783 L21.5366211,63.7918783 C21.5366211,64.3441631 21.0889058,64.7918783 20.5366211,64.7918783 C19.9843363,64.7918783 19.5366211,64.3441631 19.5366211,63.7918783 L19.5366211,59.7918783 C19.5366211,59.2395936 19.9843363,58.7918783 20.5366211,58.7918783 Z"/>
    <polygon fill="#AE8450" points="3.61 87.759 9.537 80.972 9.537 64.792 2.86 63.792 5.537 66.625 5.537 77.792 0 80.972 2.86 88.792"/>
  </g>
</svg>
