<svg xmlns="http://www.w3.org/2000/svg" width="96" height="96" viewBox="0 0 96 96">
  <defs>
    <filter id="com.apps.kdiff3-a" width="132.4%" height="133.8%" x="-16.2%" y="-16.9%" filterUnits="objectBoundingBox">
      <feOffset dy="2" in="SourceAlpha" result="shadowOffsetOuter1"/>
      <feGaussianBlur in="shadowOffsetOuter1" result="shadowBlurOuter1" stdDeviation="2"/>
      <feColorMatrix in="shadowBlurOuter1" result="shadowMatrixOuter1" values="0 0 0 0 0   0 0 0 0 0   0 0 0 0 0  0 0 0 0.2 0"/>
      <feMerge>
        <feMergeNode in="shadowMatrixOuter1"/>
        <feMergeNode in="SourceGraphic"/>
      </feMerge>
    </filter>
    <linearGradient id="com.apps.kdiff3-b" x1="50%" x2="50%" y1="0%" y2="100%">
      <stop offset="0%" stop-color="#C7D0CE"/>
      <stop offset="100%" stop-color="#B5C5C1"/>
    </linearGradient>
    <linearGradient id="com.apps.kdiff3-c" x1="50%" x2="50%" y1="0%" y2="100%">
      <stop offset="0%" stop-color="#E8EDF2"/>
      <stop offset="100%" stop-color="#CAD6E2"/>
    </linearGradient>
    <linearGradient id="com.apps.kdiff3-d" x1="50%" x2="50%" y1="0%" y2="100%">
      <stop offset="0%" stop-color="#AFB0B0"/>
      <stop offset="100%" stop-color="#BCC2C2"/>
    </linearGradient>
    <linearGradient id="com.apps.kdiff3-e" x1="50%" x2="50%" y1="0%" y2="100%">
      <stop offset="0%" stop-color="#E8EDF2"/>
      <stop offset="100%" stop-color="#CAD6E2"/>
    </linearGradient>
    <linearGradient id="com.apps.kdiff3-f" x1="50%" x2="50%" y1="0%" y2="100%">
      <stop offset="0%" stop-color="#1FCFB2"/>
      <stop offset="100%" stop-color="#11B488"/>
    </linearGradient>
    <linearGradient id="com.apps.kdiff3-g" x1="50%" x2="50%" y1="0%" y2="100%">
      <stop offset="0%" stop-color="#42A9E2"/>
      <stop offset="100%" stop-color="#1568B2"/>
    </linearGradient>
  </defs>
  <g fill="none" filter="url(#com.apps.kdiff3-a)" transform="translate(11 13)">
    <path fill="url(#com.apps.kdiff3-b)" d="M59,0 C63.418278,0 67,3.581722 67,8 L67,50 C67,54.418278 63.418278,58 59,58 L13,58 C8.581722,58 5,54.418278 5,50 L5,8 C5,3.581722 8.581722,0 13,0 L59,0 Z"/>
    <path fill="url(#com.apps.kdiff3-c)" d="M59,2 L13,2 C9.76160306,2 7.12242824,4.56557489 7.00413847,7.77506174 L7,8 L7,50 C7,53.2383969 9.56557489,55.8775718 12.7750617,55.9958615 L13,56 L59,56 C62.2383969,56 64.8775718,53.4344251 64.9958615,50.2249383 L65,50 L65,8 C65,4.76160306 62.4344251,2.12242824 59.2249383,2.00413847 L59,2 Z"/>
    <rect width="23" height="4" x="11" y="9" fill="#1F86DC" rx="1"/>
    <path fill="url(#com.apps.kdiff3-d)" d="M46,40 C46.5522847,40 47,40.4477153 47,41 C47,41.5522847 46.5522847,42 46,42 L39,42 C38.4477153,42 38,41.5522847 38,41 C38,40.4477153 38.4477153,40 39,40 L46,40 Z M25,40 C25.5522847,40 26,40.4477153 26,41 C26,41.5522847 25.5522847,42 25,42 L12,42 C11.4477153,42 11,41.5522847 11,41 C11,40.4477153 11.4477153,40 12,40 L25,40 Z M57,40 C57.5522847,40 58,40.4477153 58,41 C58,41.5522847 57.5522847,42 57,42 L50,42 C49.4477153,42 49,41.5522847 49,41 C49,40.4477153 49.4477153,40 50,40 L57,40 Z M31,40 C31.5522847,40 32,40.4477153 32,41 C32,41.5522847 31.5522847,42 31,42 L29,42 C28.4477153,42 28,41.5522847 28,41 C28,40.4477153 28.4477153,40 29,40 L31,40 Z M50,36 C50.5522847,36 51,36.4477153 51,37 C51,37.5522847 50.5522847,38 50,38 L39,38 C38.4477153,38 38,37.5522847 38,37 C38,36.4477153 38.4477153,36 39,36 L50,36 Z M15,36 C15.5522847,36 16,36.4477153 16,37 C16,37.5522847 15.5522847,38 15,38 L12,38 C11.4477153,38 11,37.5522847 11,37 C11,36.4477153 11.4477153,36 12,36 L15,36 Z M23,36 C23.5522847,36 24,36.4477153 24,37 C24,37.5522847 23.5522847,38 23,38 L19,38 C18.4477153,38 18,37.5522847 18,37 C18,36.4477153 18.4477153,36 19,36 L23,36 Z M52,30 C52.5522847,30 53,30.4477153 53,31 C53,31.5522847 52.5522847,32 52,32 L45,32 C44.4477153,32 44,31.5522847 44,31 C44,30.4477153 44.4477153,30 45,30 L52,30 Z M20,30 C20.5522847,30 21,30.4477153 21,31 C21,31.5522847 20.5522847,32 20,32 L18,32 C17.4477153,32 17,31.5522847 17,31 C17,30.4477153 17.4477153,30 18,30 L20,30 Z M41,30 C41.5522847,30 42,30.4477153 42,31 C42,31.5522847 41.5522847,32 41,32 L39,32 C38.4477153,32 38,31.5522847 38,31 C38,30.4477153 38.4477153,30 39,30 L41,30 Z M14,30 C14.5522847,30 15,30.4477153 15,31 C15,31.5522847 14.5522847,32 14,32 L12,32 C11.4477153,32 11,31.5522847 11,31 C11,30.4477153 11.4477153,30 12,30 L14,30 Z M60,30 C60.5522847,30 61,30.4477153 61,31 C61,31.5522847 60.5522847,32 60,32 L55,32 C54.4477153,32 54,31.5522847 54,31 C54,30.4477153 54.4477153,30 55,30 L60,30 Z M28,30 C28.5522847,30 29,30.4477153 29,31 C29,31.5522847 28.5522847,32 28,32 L23,32 C22.4477153,32 22,31.5522847 22,31 C22,30.4477153 22.4477153,30 23,30 L28,30 Z M46,26 C46.5522847,26 47,26.4477153 47,27 C47,27.5522847 46.5522847,28 46,28 L39,28 C38.4477153,28 38,27.5522847 38,27 C38,26.4477153 38.4477153,26 39,26 L46,26 Z M15,26 C15.5522847,26 16,26.4477153 16,27 C16,27.5522847 15.5522847,28 15,28 L12,28 C11.4477153,28 11,27.5522847 11,27 C11,26.4477153 11.4477153,26 12,26 L15,26 Z M25,26 C25.5522847,26 26,26.4477153 26,27 C26,27.5522847 25.5522847,28 25,28 L18,28 C17.4477153,28 17,27.5522847 17,27 C17,26.4477153 17.4477153,26 18,26 L25,26 Z M19,20 C19.5522847,20 20,20.4477153 20,21 C20,21.5522847 19.5522847,22 19,22 L12,22 C11.4477153,22 11,21.5522847 11,21 C11,20.4477153 11.4477153,20 12,20 L19,20 Z M46,20 C46.5522847,20 47,20.4477153 47,21 C47,21.5522847 46.5522847,22 46,22 L39,22 C38.4477153,22 38,21.5522847 38,21 C38,20.4477153 38.4477153,20 39,20 L46,20 Z M26,20 C26.5522847,20 27,20.4477153 27,21 C27,21.5522847 26.5522847,22 26,22 L23,22 C22.4477153,22 22,21.5522847 22,21 C22,20.4477153 22.4477153,20 23,20 L26,20 Z M53,20 C53.5522847,20 54,20.4477153 54,21 C54,21.5522847 53.5522847,22 53,22 L50,22 C49.4477153,22 49,21.5522847 49,21 C49,20.4477153 49.4477153,20 50,20 L53,20 Z M15,16 C15.5522847,16 16,16.4477153 16,17 C16,17.5522847 15.5522847,18 15,18 L12,18 C11.4477153,18 11,17.5522847 11,17 C11,16.4477153 11.4477153,16 12,16 L15,16 Z M42,16 C42.5522847,16 43,16.4477153 43,17 C43,17.5522847 42.5522847,18 42,18 L39,18 C38.4477153,18 38,17.5522847 38,17 C38,16.4477153 38.4477153,16 39,16 L42,16 Z M22,16 C22.5522847,16 23,16.4477153 23,17 C23,17.5522847 22.5522847,18 22,18 L19,18 C18.4477153,18 18,17.5522847 18,17 C18,16.4477153 18.4477153,16 19,16 L22,16 Z M49,16 C49.5522847,16 50,16.4477153 50,17 C50,17.5522847 49.5522847,18 49,18 L46,18 C45.4477153,18 45,17.5522847 45,17 C45,16.4477153 45.4477153,16 46,16 L49,16 Z M33,16 C33.5522847,16 34,16.4477153 34,17 C34,17.5522847 33.5522847,18 33,18 L25,18 C24.4477153,18 24,17.5522847 24,17 C24,16.4477153 24.4477153,16 25,16 L33,16 Z M60,16 C60.5522847,16 61,16.4477153 61,17 C61,17.5522847 60.5522847,18 60,18 L52,18 C51.4477153,18 51,17.5522847 51,17 C51,16.4477153 51.4477153,16 52,16 L60,16 Z"/>
    <rect width="74" height="26" y="45" fill="url(#com.apps.kdiff3-e)" rx="4"/>
    <rect width="23" height="4" x="38" y="9" fill="#11B589" rx="1"/>
    <path fill="url(#com.apps.kdiff3-f)" d="M6,58 L6,62 C6,63.1045695 6.8954305,64 8,64 L23,64 L23,64 L23,67.1052178 C23,67.3813602 23.2238576,67.6052178 23.5,67.6052178 C23.5925299,67.6052178 23.6832449,67.5795416 23.7620487,67.5310469 L33.8002754,61.3536767 L33.8002754,61.3536767 L34.6160552,60.8516583 C35.0864131,60.5622073 35.2330671,59.9462605 34.9436161,59.4759026 C34.8615728,59.3425821 34.7493757,59.230385 34.6160552,59.1483417 L23.7620487,52.4689531 C23.5268698,52.3242275 23.2188963,52.3975545 23.0741708,52.6327335 C23.0256762,52.7115373 23,52.8022523 23,52.8947822 L23,56 L23,56 L8,56 C6.8954305,56 6,56.8954305 6,58 Z"/>
    <path fill="url(#com.apps.kdiff3-g)" d="M38.9079018,54 L38.9079018,58 C38.9079018,59.1045695 39.8033323,60 40.9079018,60 L55.9079018,60 L55.9079018,60 L55.9079018,63.1052178 C55.9079018,63.3813602 56.1317594,63.6052178 56.4079018,63.6052178 C56.5004317,63.6052178 56.5911467,63.5795416 56.6699505,63.5310469 L66.7081772,57.3536767 L66.7081772,57.3536767 L67.523957,56.8516583 C67.9943149,56.5622073 68.1409689,55.9462605 67.8515179,55.4759026 C67.7694746,55.3425821 67.6572775,55.230385 67.523957,55.1483417 L56.6699505,48.4689531 C56.4347716,48.3242275 56.1267981,48.3975545 55.9820726,48.6327335 C55.933578,48.7115373 55.9079018,48.8022523 55.9079018,48.8947822 L55.9079018,52 L55.9079018,52 L40.9079018,52 C39.8033323,52 38.9079018,52.8954305 38.9079018,54 Z" transform="matrix(-1 0 0 1 106.908 0)"/>
  </g>
</svg>
