<svg xmlns="http://www.w3.org/2000/svg" width="96" height="96" viewBox="0 0 96 96">
  <defs>
    <filter id="com.apps.tagflow-a" width="128.6%" height="128.6%" x="-14.3%" y="-14.3%" filterUnits="objectBoundingBox">
      <feOffset dy="2" in="SourceAlpha" result="shadowOffsetOuter1"/>
      <feGaussianBlur in="shadowOffsetOuter1" result="shadowBlurOuter1" stdDeviation="2"/>
      <feColorMatrix in="shadowBlurOuter1" result="shadowMatrixOuter1" values="0 0 0 0 0   0 0 0 0 0   0 0 0 0 0  0 0 0 0.2 0"/>
      <feMerge>
        <feMergeNode in="shadowMatrixOuter1"/>
        <feMergeNode in="SourceGraphic"/>
      </feMerge>
    </filter>
    <linearGradient id="com.apps.tagflow-b" x1="50%" x2="50%" y1="0%" y2="100%">
      <stop offset="0%" stop-color="#9FCEFF"/>
      <stop offset="100%" stop-color="#3785D7"/>
    </linearGradient>
    <linearGradient id="com.apps.tagflow-c" x1="50%" x2="50%" y1="27.529%" y2="100%">
      <stop offset="0%" stop-color="#FFF"/>
      <stop offset="100%" stop-color="#FFF" stop-opacity=".71"/>
    </linearGradient>
    <linearGradient id="com.apps.tagflow-d" x1="50%" x2="50%" y1="27.529%" y2="100%">
      <stop offset="0%" stop-color="#FFF"/>
      <stop offset="100%" stop-color="#FFF" stop-opacity=".71"/>
    </linearGradient>
  </defs>
  <g fill="none" filter="url(#com.apps.tagflow-a)" transform="translate(6 6)">
    <circle cx="42" cy="42" r="42" fill="url(#com.apps.tagflow-b)"/>
    <path fill="url(#com.apps.tagflow-c)" d="M6.33709257,36.7058961 C6.8670771,36.4395668 10.2369788,37.2508687 15.5073965,35.8557903 C20.7778142,34.460712 26.6890703,30.2058877 28.4248768,29.0769953 C30.1606833,27.948103 33.5178711,26.3519891 34.9438295,28.3931306 C36.3697879,30.4342721 36.8726304,32.4608129 37.6766069,34.1979668 C38.4805834,35.9351207 41.7023466,34.6885237 43.324585,33.7154197 C44.9468234,32.7423157 57.3571756,25.8214784 61.1720643,25.1877294 C64.9869531,24.5539803 67.559878,25.3976426 69.0986903,29.2880541 C70.6375025,33.1784656 74.6228148,36.1797527 76.8326075,37.2431366 C79.0424002,38.3065205 79.1706107,38.6300532 78.9427602,39.0862494 C78.7149097,39.5424456 78.0320011,40.3339876 76.3260508,41.5380535 C74.6201006,42.7421194 70.6267885,42.7421194 68.7451291,40.1636657 C66.8634697,37.5852121 67.1248907,36.4019085 64.2131185,35.0476386 C61.3013463,33.6933688 58.7111361,34.8474621 52.6231709,37.4672254 C46.5352056,40.0869887 42.4911386,42.740343 39.6985479,43.2935354 C36.9059573,43.8467278 34.3209905,42.7442672 33.0410278,40.7943362 C31.7610652,38.8444053 31.224938,37.668261 29.5009883,37.4672254 C27.7770385,37.2661898 25.0925454,38.0833624 22.9401796,39.0862494 C20.7878139,40.0891365 16.6012217,41.5377671 13.3044607,40.7943362 C10.0076998,40.0509054 5.80710803,36.9722253 6.33709257,36.7058961 Z"/>
    <path fill="url(#com.apps.tagflow-d)" d="M10.2792075,56.2287487 C10.6897589,56.0216038 13.3002462,56.6526163 17.3829641,55.5675554 C21.465682,54.4824944 26.0448241,51.1731866 27.3894629,50.2951593 C28.7341018,49.4171319 31.3347402,48.1757099 32.4393559,49.7632644 C33.5439715,51.350819 33.9334974,52.9270173 34.5562961,54.278137 C35.1790948,55.6292568 37.6748269,54.6596813 38.9314904,53.9028226 C40.188154,53.1459639 49.8018071,47.7630905 52.7570026,47.2701746 C55.7121981,46.7772587 57.7053089,47.4334405 58.8973466,50.4593161 C60.0893843,53.4851917 63.176598,55.8195261 64.8884093,56.6466024 C66.6002205,57.4736788 66.6995385,57.7253154 66.5230346,58.0801347 C66.3465307,58.4349539 65.817517,59.0505977 64.4960062,59.9870934 C63.1744955,60.923589 60.0810847,60.923589 58.6234612,58.9181251 C57.1658378,56.9126612 57.3683469,55.9923139 55.1127488,54.9389929 C52.8571506,53.8856719 50.8506497,54.7833001 46.1346203,56.8208938 C41.4185909,58.8584874 38.2858629,60.9222075 36.1225884,61.3524682 C33.959314,61.782729 31.956875,60.9252596 30.9653546,59.4086466 C29.9738342,57.8920337 29.5585244,56.9772548 28.2230704,56.8208938 C26.8876164,56.6645327 24.8080795,57.3001114 23.1407539,58.0801347 C21.4734283,58.8601579 18.2302935,59.9868706 15.6764646,59.4086466 C13.1226357,58.8304226 9.86865614,56.4358937 10.2792075,56.2287487 Z"/>
  </g>
</svg>
