<svg xmlns="http://www.w3.org/2000/svg" width="96" height="96" viewBox="0 0 96 96">
  <defs>
    <filter id="com.navicat.premium--a" width="140.2%" height="140.8%" x="-20.1%" y="-20.4%" filterUnits="objectBoundingBox">
      <feOffset dy="2" in="SourceAlpha" result="shadowOffsetOuter1"/>
      <feGaussianBlur in="shadowOffsetOuter1" result="shadowBlurOuter1" stdDeviation="2"/>
      <feColorMatrix in="shadowBlurOuter1" result="shadowMatrixOuter1" values="0 0 0 0 0   0 0 0 0 0   0 0 0 0 0  0 0 0 0.2 0"/>
      <feMerge>
        <feMergeNode in="shadowMatrixOuter1"/>
        <feMergeNode in="SourceGraphic"/>
      </feMerge>
    </filter>
    <linearGradient id="com.navicat.premium--b" x1="3.986%" x2="59.814%" y1="29.392%" y2="102.218%">
      <stop offset="0%" stop-color="#4083FF"/>
      <stop offset="100%" stop-color="#59D535"/>
    </linearGradient>
    <linearGradient id="com.navicat.premium--c" x1="32.978%" x2="63.38%" y1="90.353%" y2="35.033%">
      <stop offset="0%" stop-color="#64D000"/>
      <stop offset="99.907%" stop-color="#FA0"/>
    </linearGradient>
  </defs>
  <g fill="none" fill-rule="evenodd" stroke-linecap="round" stroke-linejoin="round" stroke-width="7" filter="url(#com.navicat.premium--a)" transform="translate(9.415 10)">
    <path stroke="url(#com.navicat.premium--b)" d="M0.960153461,42.4570312 C-0.942190289,33.7167969 -0.0177111222,26.3453776 3.73359096,20.3427734 C9.36054409,11.3388672 19.6105441,0 25.1662081,0 C30.7218722,0 38.5851535,1.03613281 38.5851535,9.53710937 C38.5851535,18.0380859 40.6089291,20.4870023 38.5851535,24.0927734 C36.5613778,27.6985446 33.1432589,26.6572266 28.389841,27.7021484 C23.636423,28.7470703 6.99628627,36.234375 8.64570034,53.7744141 C10.2951144,71.3144531 26.9748019,76 38.5851535,76 C50.195505,76 67.0695285,67.5791016 69.8126925,60.6582031 C72.5558566,53.7373047 69.1154269,42.3203125 59.726755,36.2548828 C50.3380831,30.1894531 46.6222628,28.734375 49.3771456,21.8183594 C52.1320285,14.9023437 55.5890597,4.98730469 58.3292941,4.98730469 C61.0695285,4.98730469 65.0636691,5.97558594 69.8126925,12.6064453 C75.6349581,17.5458984 78.4494113,34.4414062 76.8654269,40.1630859"/>
    <path stroke="url(#com.navicat.premium--c)" d="M38.5851535,76 C50.195505,76 67.0695285,67.5791016 69.8126925,60.6582031 C72.5558566,53.7373047 69.1154269,42.3203125 59.726755,36.2548828 C50.3380831,30.1894531 46.6222628,28.734375 49.3771456,21.8183594 C52.1320285,14.9023437 55.5890597,4.98730469 58.3292941,4.98730469 C61.0695285,4.98730469 65.0636691,5.97558594 69.8126925,12.6064453 C75.6349581,17.5458984 78.4494113,34.4414062 76.8654269,40.1630859"/>
  </g>
</svg>
