<svg xmlns="http://www.w3.org/2000/svg" width="96" height="96" viewBox="0 0 96 96">
  <defs>
    <filter id="com.apps.gview-a" width="134%" height="127.6%" x="-17%" y="-13.8%" filterUnits="objectBoundingBox">
      <feOffset dy="2" in="SourceAlpha" result="shadowOffsetOuter1"/>
      <feGaussianBlur in="shadowOffsetOuter1" result="shadowBlurOuter1" stdDeviation="2"/>
      <feColorMatrix in="shadowBlurOuter1" result="shadowMatrixOuter1" values="0 0 0 0 0   0 0 0 0 0   0 0 0 0 0  0 0 0 0.2 0"/>
      <feMerge>
        <feMergeNode in="shadowMatrixOuter1"/>
        <feMergeNode in="SourceGraphic"/>
      </feMerge>
    </filter>
    <linearGradient id="com.apps.gview-b" x1="50%" x2="50%" y1="0%" y2="100%">
      <stop offset="0%" stop-color="#FFF3BB"/>
      <stop offset="100%" stop-color="#D58C46"/>
    </linearGradient>
    <linearGradient id="com.apps.gview-c" x1="50%" x2="50%" y1="2.794%" y2="97.99%">
      <stop offset="0%" stop-color="#745400"/>
      <stop offset="100%" stop-color="#815700"/>
    </linearGradient>
    <linearGradient id="com.apps.gview-d" x1="50%" x2="50%" y1="0%" y2="97.99%">
      <stop offset="0%" stop-color="#FFE296"/>
      <stop offset="100%" stop-color="#C3932D"/>
    </linearGradient>
    <linearGradient id="com.apps.gview-e" x1="50%" x2="50%" y1="0%" y2="119.728%">
      <stop offset="0%" stop-color="#D95231"/>
      <stop offset="100%" stop-color="#F59972"/>
    </linearGradient>
    <linearGradient id="com.apps.gview-f" x1="50%" x2="50%" y1="0%" y2="100%">
      <stop offset="0%" stop-color="#C49533"/>
      <stop offset="100%" stop-color="#925C17"/>
    </linearGradient>
    <linearGradient id="com.apps.gview-g" x1="40.57%" x2="62.106%" y1="25.713%" y2="76.273%">
      <stop offset="0%" stop-color="#761A10"/>
      <stop offset="100%" stop-color="#FFA63D"/>
    </linearGradient>
  </defs>
  <g fill="none" fill-rule="evenodd" filter="url(#com.apps.gview-a)" transform="translate(13 5)">
    <polygon fill="url(#com.apps.gview-b)" points="36.975 37.107 0 20.663 0 68.771 36.975 87"/>
    <polygon fill="url(#com.apps.gview-c)" points=".431 21.084 32.194 4.321 64.701 20.961 37.424 38.433"/>
    <polygon fill="url(#com.apps.gview-d)" points=".431 21.084 32.194 4.321 51.494 7.794 22.825 26.021"/>
    <path fill="url(#com.apps.gview-e)" d="M18.9277039,47.8924616 C15.6574158,48.2770287 14.8398437,50.1040522 16.4749878,53.373532 C18.1101318,56.6430118 21.4402466,58.2777517 26.465332,58.2777517 C27.2350545,53.2508228 25.4337351,49.0024909 21.0613739,45.5327558 C14.502832,40.3281533 11.5873444,39.2692786 8.92196045,42.4010172 C6.25657654,45.5327558 6.25657654,53.6801788 12.3203979,59.9218872 C16.3629456,64.0830261 17.7478088,66.3490051 16.4749878,66.7198242 C11.848054,63.9069996 8.90769759,61.5139332 7.65391846,59.540625 C2.7417561,51.8094305 1.76558055,43.0906347 3.67854309,40.14776 C6.53668213,35.750839 11.6170875,35.750839 13.4386963,35.9105988 C20.386377,36.519928 30.7770996,47.2714872 31.1668579,53.373532 C31.5566162,59.4755768 31.1668579,61.4355194 26.465332,61.4355194 C21.7638062,61.4355194 17.2683105,60.5097107 15.1257019,55.416568 C12.9830933,50.3234253 14.1321899,47.8924616 15.8948639,47.8924616 C17.0699799,47.8924616 18.0809265,47.8924616 18.9277039,47.8924616 Z"/>
    <polygon fill="url(#com.apps.gview-f)" points="20.386 19.735 37.424 37.467 36.975 87 70.688 63.013 70.688 18.488 54.752 0"/>
    <path fill="url(#com.apps.gview-g)" d="M70.602633,18.3913081 L70.6875,18.4875 L70.6875,63.075 L36.975,87 L36.975,36.975 L37.7973675,36.5205338 C53.0279029,28.1036589 63.9629914,22.0605837 70.602633,18.3913081 Z"/>
  </g>
</svg>
