<svg xmlns="http://www.w3.org/2000/svg" width="96" height="96" viewBox="0 0 96 96">
  <defs>
    <filter id="com.apps.guvcview-a" width="135%" height="129.2%" x="-17.5%" y="-14.6%" filterUnits="objectBoundingBox">
      <feOffset dy="2" in="SourceAlpha" result="shadowOffsetOuter1"/>
      <feGaussianBlur in="shadowOffsetOuter1" result="shadowBlurOuter1" stdDeviation="2"/>
      <feColorMatrix in="shadowBlurOuter1" result="shadowMatrixOuter1" values="0 0 0 0 0   0 0 0 0 0   0 0 0 0 0  0 0 0 0.2 0"/>
      <feMerge>
        <feMergeNode in="shadowMatrixOuter1"/>
        <feMergeNode in="SourceGraphic"/>
      </feMerge>
    </filter>
    <linearGradient id="com.apps.guvcview-b" x1="50%" x2="50%" y1="0%" y2="100%">
      <stop offset="0%" stop-color="#F6F6F6"/>
      <stop offset="100%" stop-color="#B5B5B6"/>
    </linearGradient>
    <linearGradient id="com.apps.guvcview-c" x1="50%" x2="50%" y1="0%" y2="100%">
      <stop offset="0%" stop-color="#FCFCFC"/>
      <stop offset="100%" stop-color="#F7F8F8"/>
    </linearGradient>
    <linearGradient id="com.apps.guvcview-d" x1="50%" x2="50%" y1="0%" y2="100%">
      <stop offset="0%" stop-color="#353D3D"/>
      <stop offset="100%" stop-color="#0D0F0F"/>
    </linearGradient>
  </defs>
  <g fill="none" filter="url(#com.apps.guvcview-a)" transform="translate(14 7)">
    <path fill="url(#com.apps.guvcview-b)" d="M56.4892449,73.3792653 C56.4892449,73.3694694 56.4931633,73.3616327 56.4931633,73.3518367 C56.4931633,73.3283265 56.4853265,73.3048163 56.4853265,73.2813061 C56.4206735,71.9980408 55.6957755,64.4884898 47.6121837,55.7289796 C38.7292449,46.1054694 33.6412449,43.3293061 22.9068776,54.1557551 C13.2657347,63.8811429 12.2136531,71.7178776 12.0980612,73.2146939 C12.096102,73.2597551 12.0804286,73.3048163 12.0804286,73.3498776 C12.0804286,73.3616327 12.0843469,73.3733878 12.0843469,73.3851429 C12.0804286,73.4556735 12.0804286,73.492898 12.0804286,73.492898 L12.0980612,73.492898 C12.2900612,78.3614694 22.1408367,82.2857143 34.2858163,82.2857143 C46.4288367,82.2857143 56.2815714,78.3614694 56.4735714,73.4948571 L56.4912041,73.4948571 C56.4912041,73.4948571 56.4912041,73.4517551 56.4892449,73.3792653 Z"/>
    <circle cx="34.286" cy="36.425" r="34.286" fill="url(#com.apps.guvcview-c)"/>
    <ellipse cx="35.13" cy="4.812" fill="#75A1D0" rx="9.996" ry="4.812"/>
    <circle cx="14.717" cy="20.419" r="4.516" fill="#B3DD00"/>
    <circle cx="34.131" cy="36.762" r="17.633" fill="url(#com.apps.guvcview-d)"/>
    <circle cx="34.131" cy="36.762" r="14.694" fill="#26364B"/>
    <circle cx="34.131" cy="36.762" r="11.755" fill="#1B2430"/>
    <circle cx="34.131" cy="36.762" r="6.857" fill="#000"/>
    <ellipse cx="34.019" cy="29.866" fill="#FFF" rx="5.552" ry="3.158"/>
  </g>
</svg>
