<svg xmlns="http://www.w3.org/2000/svg" width="96" height="96" viewBox="0 0 96 96">
  <defs>
    <filter id="com.apps.noiz2sa-a" width="130.8%" height="130.8%" x="-15.4%" y="-15.4%" filterUnits="objectBoundingBox">
      <feOffset dy="2" in="SourceAlpha" result="shadowOffsetOuter1"/>
      <feGaussianBlur in="shadowOffsetOuter1" result="shadowBlurOuter1" stdDeviation="2"/>
      <feColorMatrix in="shadowBlurOuter1" result="shadowMatrixOuter1" values="0 0 0 0 0   0 0 0 0 0   0 0 0 0 0  0 0 0 0.2 0"/>
      <feMerge>
        <feMergeNode in="shadowMatrixOuter1"/>
        <feMergeNode in="SourceGraphic"/>
      </feMerge>
    </filter>
    <linearGradient id="com.apps.noiz2sa-b" x1="50%" x2="50%" y1="0%" y2="100%">
      <stop offset="0%" stop-color="#DEDEFF"/>
      <stop offset="100%" stop-color="#8B8BDB"/>
    </linearGradient>
    <linearGradient id="com.apps.noiz2sa-c" x1="50%" x2="50%" y1="0%" y2="98.58%">
      <stop offset="0%" stop-color="#A4FFA4"/>
      <stop offset="100%" stop-color="#A4FFA4"/>
    </linearGradient>
    <linearGradient id="com.apps.noiz2sa-d" x1="50%" x2="50%" y1="0%" y2="100%">
      <stop offset="0%" stop-color="#9494FF"/>
      <stop offset="99.618%" stop-color="#6969FF"/>
    </linearGradient>
  </defs>
  <g fill="none" fill-rule="evenodd" filter="url(#com.apps.noiz2sa-a)" transform="translate(9 9)">
    <rect width="78" height="78" fill="url(#com.apps.noiz2sa-b)" rx="18"/>
    <path fill="#FFF" d="M78,19 L11,19 L11,24 L78,24 L78,25 L4,25 L4.00009954,71.3147917 C3.64582759,70.8769938 3.31167495,70.4222455 2.99904808,69.9519535 L3,24 L5,24 L4.99921739,5.55087955 C5.32016207,5.21580321 5.65393314,4.8931111 5.99974181,4.58359205 L6,24 L10,24 L10,18 L15,18 L15,12 L20,12 L20,6 L25,6 L25,1 L65.9304702,0.999820218 C66.7323967,1.27954418 67.5084699,1.61440733 68.2541477,1.99986747 L26,2 L26,6 L73.416408,5.99974181 C73.7056889,6.3229396 73.9834632,6.65665227 74.2490868,7.00023585 L21,7 L21,12 L76.9759987,12.0006592 C77.0921996,12.3294626 77.1991183,12.6626503 77.29644,12.9999075 L16,13 L16,18 L78,18 L78,18 L78,19 Z"/>
    <rect width="4" height="36" x="53" y="17" fill="#C9FFC9"/>
    <rect width="4" height="36" x="41" y="16" fill="#C9FFC9"/>
    <rect width="4" height="36" x="28" y="16" fill="#C9FFC9"/>
    <rect width="4" height="36" x="21" y="20" fill="#C9FFC9"/>
    <polygon fill="#DC3C3F" points="38 35 44 35 44 41 38 41"/>
    <path fill="#4A4AE9" fill-rule="nonzero" d="M44,35 L44,41 L38,41 L38,35 L44,35 Z M43,36 L39,36 L39,40 L43,40 L43,36 Z"/>
    <path fill="url(#com.apps.noiz2sa-c)" d="M52,25 L52,61 L48,61 L48,25 L52,25 Z M39,25 L39,61 L35,61 L35,25 L39,25 Z M28,23 L28,59 L24,59 L24,23 L28,23 Z M59,20 L59,56 L55,56 L55,20 L59,20 Z"/>
    <path fill="url(#com.apps.noiz2sa-d)" fill-rule="nonzero" d="M52,25 L52,61 L48,61 L48,25 L52,25 Z M39,25 L39,61 L35,61 L35,25 L39,25 Z M51,26 L49,26 L49,60 L51,60 L51,26 Z M38,26 L36,26 L36,60 L38,60 L38,26 Z M28,23 L28,59 L24,59 L24,23 L28,23 Z M27,24 L25,24 L25,58 L27,58 L27,24 Z M59,20 L59,56 L55,56 L55,20 L59,20 Z M58,21 L56,21 L56,55 L58,55 L58,21 Z"/>
  </g>
</svg>
