<svg xmlns="http://www.w3.org/2000/svg" width="96" height="96" viewBox="0 0 96 96">
  <defs>
    <filter id="com.apps.cinema-a" width="131.6%" height="130.8%" x="-15.8%" y="-15.4%" filterUnits="objectBoundingBox">
      <feOffset dy="2" in="SourceAlpha" result="shadowOffsetOuter1"/>
      <feGaussianBlur in="shadowOffsetOuter1" result="shadowBlurOuter1" stdDeviation="2"/>
      <feColorMatrix in="shadowBlurOuter1" result="shadowMatrixOuter1" values="0 0 0 0 0   0 0 0 0 0   0 0 0 0 0  0 0 0 0.2 0"/>
      <feMerge>
        <feMergeNode in="shadowMatrixOuter1"/>
        <feMergeNode in="SourceGraphic"/>
      </feMerge>
    </filter>
  </defs>
  <g fill="none" fill-rule="evenodd" filter="url(#com.apps.cinema-a)" transform="translate(10 9)">
    <path fill="#515758" d="M12,0 L64,0 C70.627417,0 76,5.372583 76,12 L76,66 C76,72.627417 70.627417,78 64,78 L12,78 C5.372583,78 0,72.627417 0,66 L0,12 C0,5.372583 5.372583,0 12,0 Z"/>
    <path fill="#000" fill-rule="nonzero" d="M64,0 C70.627417,0 76,5.372583 76,12 L76,66 C76,72.627417 70.627417,78 64,78 L12,78 C5.372583,78 0,72.627417 0,66 L0,12 C0,5.372583 5.372583,0 12,0 L64,0 Z M64,1 L12,1 C6.02129842,1 1.15663482,5.76976358 1.0037074,11.7115925 L1,12 L1,66 C1,71.9787016 5.76976358,76.8433652 11.7115925,76.9962926 L12,77 L64,77 C69.9787016,77 74.8433652,72.2302364 74.9962926,66.2884075 L75,66 L75,12 C75,6.02129842 70.2302364,1.15663482 64.2884075,1.0037074 L64,1 Z"/>
    <path fill="#FFF" d="M26.8944272,25.4472136 L50.4222912,37.2111456 C51.4102482,37.7051241 51.8106969,38.9064702 51.3167184,39.8944272 C51.123191,40.281482 50.809346,40.595327 50.4222912,40.7888544 L26.8944272,52.5527864 C25.9064702,53.0467649 24.7051241,52.6463162 24.2111456,51.6583592 C24.0722902,51.3806483 24,51.0744222 24,50.763932 L24,27.236068 C24,26.1314985 24.8954305,25.236068 26,25.236068 C26.3104902,25.236068 26.6167163,25.3083582 26.8944272,25.4472136 Z"/>
    <path fill="#A5A8A8" d="M15 64C15.5522847 64 16 64.4477153 16 65L16 69C16 69.5522847 15.5522847 70 15 70L6 70C5.44771525 70 5 69.5522847 5 69L5 65C5 64.4477153 5.44771525 64 6 64L15 64zM15 53C15.5522847 53 16 53.4477153 16 54L16 58C16 58.5522847 15.5522847 59 15 59L6 59C5.44771525 59 5 58.5522847 5 58L5 54C5 53.4477153 5.44771525 53 6 53L15 53zM15 42C15.5522847 42 16 42.4477153 16 43L16 47C16 47.5522847 15.5522847 48 15 48L6 48C5.44771525 48 5 47.5522847 5 47L5 43C5 42.4477153 5.44771525 42 6 42L15 42zM15 31C15.5522847 31 16 31.4477153 16 32L16 36C16 36.5522847 15.5522847 37 15 37L6 37C5.44771525 37 5 36.5522847 5 36L5 32C5 31.4477153 5.44771525 31 6 31L15 31zM15 20C15.5522847 20 16 20.4477153 16 21L16 25C16 25.5522847 15.5522847 26 15 26L6 26C5.44771525 26 5 25.5522847 5 25L5 21C5 20.4477153 5.44771525 20 6 20L15 20zM15 9C15.5522847 9 16 9.44771525 16 10L16 14C16 14.5522847 15.5522847 15 15 15L6 15C5.44771525 15 5 14.5522847 5 14L5 10C5 9.44771525 5.44771525 9 6 9L15 9zM70 64C70.5522847 64 71 64.4477153 71 65L71 69C71 69.5522847 70.5522847 70 70 70L61 70C60.4477153 70 60 69.5522847 60 69L60 65C60 64.4477153 60.4477153 64 61 64L70 64zM70 53C70.5522847 53 71 53.4477153 71 54L71 58C71 58.5522847 70.5522847 59 70 59L61 59C60.4477153 59 60 58.5522847 60 58L60 54C60 53.4477153 60.4477153 53 61 53L70 53zM70 42C70.5522847 42 71 42.4477153 71 43L71 47C71 47.5522847 70.5522847 48 70 48L61 48C60.4477153 48 60 47.5522847 60 47L60 43C60 42.4477153 60.4477153 42 61 42L70 42zM70 31C70.5522847 31 71 31.4477153 71 32L71 36C71 36.5522847 70.5522847 37 70 37L61 37C60.4477153 37 60 36.5522847 60 36L60 32C60 31.4477153 60.4477153 31 61 31L70 31zM70 20C70.5522847 20 71 20.4477153 71 21L71 25C71 25.5522847 70.5522847 26 70 26L61 26C60.4477153 26 60 25.5522847 60 25L60 21C60 20.4477153 60.4477153 20 61 20L70 20zM70 9C70.5522847 9 71 9.44771525 71 10L71 14C71 14.5522847 70.5522847 15 70 15L61 15C60.4477153 15 60 14.5522847 60 14L60 10C60 9.44771525 60.4477153 9 61 9L70 9z"/>
  </g>
</svg>
