<svg xmlns="http://www.w3.org/2000/svg" width="96" height="96" viewBox="0 0 96 96">
  <defs>
    <linearGradient id="com.apps.ruqola-a" x1="50%" x2="50%" y1="2.524%" y2="99.484%">
      <stop offset="0%" stop-color="#8DFEB7"/>
      <stop offset="100%" stop-color="#2FD46E"/>
    </linearGradient>
    <linearGradient id="com.apps.ruqola-b" x1="50%" x2="50%" y1="0%" y2="100%">
      <stop offset="0%" stop-color="#6FDE98"/>
      <stop offset="100%" stop-color="#86F5B0"/>
    </linearGradient>
    <linearGradient id="com.apps.ruqola-c" x1="50%" x2="50%" y1="0%" y2="100%">
      <stop offset="0%" stop-color="#6DCB8E"/>
      <stop offset="100%" stop-color="#6DCB8F"/>
    </linearGradient>
    <linearGradient id="com.apps.ruqola-d" x1="50%" x2="50%" y1="0%" y2="100%">
      <stop offset="0%" stop-color="#3DA961"/>
      <stop offset="100%" stop-color="#57B27A"/>
    </linearGradient>
  </defs>
  <g fill="none" fill-rule="evenodd">
    <rect width="78" height="78" x="9" y="9" fill="url(#com.apps.ruqola-a)" rx="18"/>
    <path fill="url(#com.apps.ruqola-b)" d="M87,27 L87,69 C87,78.9411255 78.9411255,87 69,87 L27,87 C22.0299416,87 17.5303505,84.9856902 14.2730696,81.7289136 L81.7289136,14.2730696 C84.9856902,17.5303505 87,22.0299416 87,27 Z"/>
    <path fill="url(#com.apps.ruqola-c)" d="M77.8374619,24.7442959 C77.2246507,28.9949157 74.6135814,37.2377457 73.6856102,38.6602721 C73.0669627,39.6086231 69.2588539,43.2947682 62.2612837,49.7187076 L59.9541507,53.9043604 L64.1212666,53.9043604 C62.0644958,58.023502 58.7951221,60.0830728 54.3131454,60.0830728 L48.9693423,60.0830728 L48.9693423,60.0830728 L45.896597,61.5924265 L46.5149551,62.9760806 L45.2403977,66.2497937 L36.5097466,66.2497937 L15.269218,82.6481178 L13.8572831,80.7914288 L25.80104,64.9658425 C27.9030047,62.6091531 28.9539871,60.9815632 28.9539871,60.0830728 C28.9539871,59.1845824 29.2600185,56.0165208 29.8720814,50.578888 C34.2971916,51.0624098 36.5097466,50.775683 36.5097466,49.7187076 C36.5097466,48.6617323 36.9217293,43.576971 37.7456947,34.4644237 C39.8422721,32.4728997 41.3436969,31.4771377 42.249969,31.4771377 C43.1562411,31.4771377 43.7868605,33.340742 44.141827,37.0679508 C48.4394365,30.8251485 51.3935006,26.9584971 53.0040192,25.4679967 C55.4197971,23.2322461 66.4535406,19.1930978 71.3232568,18.3021556 C76.192973,17.4112135 78.4502731,20.4936761 77.8374619,24.7442959 Z"/>
    <path fill="url(#com.apps.ruqola-d)" d="M77.064813,20.1447095 C77.8357152,21.3163781 78.1000208,22.9231181 77.8374619,24.7442959 C77.2246507,28.9949157 74.6135814,37.2377457 73.6856102,38.6602721 C73.0669627,39.6086231 69.2588539,43.2947682 62.2612837,49.7187076 L59.9541507,53.9043604 L64.1212666,53.9043604 C62.0644958,58.023502 58.7951221,60.0830728 54.3131454,60.0830728 L48.9693423,60.0830728 L45.896597,61.5924265 L46.5149551,62.9760806 L45.2403977,66.2497937 L36.5097466,66.2497937 L15.269218,82.6481178 L14.5547922,81.7076314 L77.064813,20.1447095 Z"/>
  </g>
</svg>
