<svg xmlns="http://www.w3.org/2000/svg" width="96" height="96" viewBox="0 0 96 96">
  <defs>
    <filter id="com.apps.ratsontheboat-a" width="125.8%" height="136.4%" x="-12.9%" y="-18.2%" filterUnits="objectBoundingBox">
      <feOffset dy="2" in="SourceAlpha" result="shadowOffsetOuter1"/>
      <feGaussianBlur in="shadowOffsetOuter1" result="shadowBlurOuter1" stdDeviation="2"/>
      <feColorMatrix in="shadowBlurOuter1" result="shadowMatrixOuter1" values="0 0 0 0 0   0 0 0 0 0   0 0 0 0 0  0 0 0 0.2 0"/>
      <feMerge>
        <feMergeNode in="shadowMatrixOuter1"/>
        <feMergeNode in="SourceGraphic"/>
      </feMerge>
    </filter>
  </defs>
  <g fill-rule="evenodd" filter="url(#com.apps.ratsontheboat-a)" transform="translate(1.42 15)">
    <path d="M59.8019296,55.7014905 C60.6755724,54.624557 61.5229485,53.7164806 62.1683582,52.6819268 C62.3175706,52.442878 61.8962002,51.581596 61.5227278,51.345196 C60.9585462,50.9876161 60.2069662,50.9233841 59.5304338,50.7529818 C59.5017391,50.7459185 59.3973346,50.9189696 59.3763654,51.0180766 C59.0569715,52.534701 59.0097356,54.0301355 59.8019296,55.7014905 M50.1470512,58.0129577 C50.0110826,60.2729952 50.746108,61.8233911 51.8051626,63.2492962 C51.9038281,63.3819539 52.3975974,63.3978464 52.5624815,63.2742385 C53.2924301,62.7266115 54.0301042,62.1619884 54.6313682,61.4847938 C54.8286994,61.2625204 54.7748417,60.4224283 54.5781727,60.308091 C53.214513,59.5156763 51.782869,58.8402476 50.1470512,58.0129577 M55.6714402,59.7586982 C55.8164587,59.8114523 55.961698,59.8642063 56.1067165,59.9171811 C57.0304646,59.0046902 57.9765063,58.1127269 58.8598611,57.1627122 C59.0388718,56.9700163 59.0865491,56.5312084 59.0156953,56.2506626 C58.6609848,54.8448438 56.8240836,53.7290621 55.3555779,53.8848963 C54.7181145,53.9524392 54.4881155,54.2398275 54.5998041,54.7929727 C54.9353112,56.4524084 55.3112115,58.1041185 55.6714402,59.7586982 M61.3819031,48.9862722 C62.0621879,47.0933059 62.1703448,45.2879688 61.5988791,43.5031595 C61.464897,43.0851 60.8002839,42.5646225 60.3886256,42.572348 C59.7818434,42.5831637 59.125618,42.9414058 58.5936627,43.3038418 C57.7880043,43.8523517 57.2492064,44.7290847 57.6955191,45.6565852 C58.4214946,47.1657048 59.5862781,48.3221006 61.3819031,48.9862722 M65.6340139,40.9753785 C65.4013662,40.1924551 65.2651768,39.1503966 64.7963498,38.2891146 C64.0611037,36.9386986 63.0161758,37.0199266 62.2259683,38.35136 C61.0402156,40.3496136 61.8641945,43.6210284 63.8434656,44.7644012 C64.4619464,45.1217604 64.8504283,44.8462914 64.9921359,44.2461311 C65.2261079,43.2546193 65.3890054,42.246553 65.6340139,40.9753785 M57.1068366,53.3253499 C58.1848738,52.0248185 58.5221467,50.356333 58.1051909,48.9688347 C57.7615169,47.8250204 57.1598114,46.8416756 55.8714201,46.6816476 C54.5289503,46.5147769 53.5795977,47.3113855 52.8216166,48.3081947 C52.6761566,48.4997869 52.6609263,49.0207058 52.8079314,49.1685938 C54.2093357,50.5775028 55.6586379,51.9385138 57.1068366,53.3253499 M26.9401148,54.0367574 C30.3410971,59.1629524 35.0960271,62.4908736 40.7047342,64.7072069 C40.6831029,64.4621984 40.5069616,64.397525 40.3714344,64.2847328 C38.2890833,62.5487044 36.1579511,60.8660923 34.1508683,59.0468493 C32.6324781,57.6708288 31.3025898,56.0890895 29.8345256,54.654576 C28.8370542,53.6800604 27.7954372,53.5493892 26.9401148,54.0367574 M53.7358734,57.3655615 C54.0214958,55.1470209 53.2436492,52.7145946 51.8217172,51.042136 C49.9985011,48.8977601 48.6399181,49.0339495 47.3484366,51.5456173 C47.2014315,51.8314605 47.2647806,52.4625228 47.4804322,52.6589711 C48.8262129,53.8846756 50.2181258,55.0640271 51.6491076,56.1895209 C52.2318304,56.6477529 52.9514048,56.9318303 53.7358734,57.3655615 M36.6164039,24.215034 C33.8853321,25.5804596 32.187269,29.3460851 32.9026495,32.5563581 C33.0136759,33.0552041 33.3524939,33.5032827 33.5860245,33.9747584 C34.0680952,33.7350474 34.6128527,33.5734743 35.0214209,33.2428232 C37.2434931,31.4456531 37.5200657,26.5971343 36.6164039,24.215034 M48.0640379,60.1085526 C48.1668973,60.0151845 48.269536,59.9220372 48.3723954,59.8286691 C48.4225007,57.357836 47.8565532,55.0505627 46.1280296,53.1973275 C45.0051845,51.9936958 43.5187999,51.5972677 41.9088073,52.1563726 C40.3542176,52.6964949 40.1253223,53.8460481 41.3455086,54.9468203 C42.5676814,56.0500206 43.7955932,57.1534416 45.0921515,58.1652603 C46.02208,58.8910151 47.0692152,59.4662331 48.0640379,60.1085526 M46.2587008,62.5398753 C45.7302771,62.135501 45.2278994,61.8198594 44.8078534,61.4176924 C42.9627852,59.6516449 40.8276799,58.0756446 39.4101625,56.0100688 C38.2667897,54.3440112 37.2209788,53.4648502 35.218752,53.6213466 C33.7224346,53.7383327 32.2093418,53.6447438 30.6196563,53.6447438 C30.7335521,53.9334565 30.754742,54.0449243 30.8147802,54.1290218 C30.9845203,54.366967 31.1622066,54.6004976 31.3504878,54.8240954 C33.8870979,57.8376994 36.7495031,60.4928406 39.9374825,62.8146821 C43.2682732,65.2400451 43.55522,64.6334836 45.777513,62.9700748 C45.8355645,62.9263706 45.8863321,62.8736165 46.2587008,62.5398753 M45.8461595,36.472741 C46.1606974,36.8779983 46.3200633,37.1232275 46.5178359,37.3322572 C49.0416437,39.9986556 53.4641568,40.4502658 56.9523268,38.4043348 C59.7014983,36.7916935 60.501197,33.3264793 58.794967,30.6073268 C58.3142206,29.8411787 57.8208928,29.7588471 57.0732859,30.1987586 C55.4950782,31.1273628 53.8919283,32.0138078 52.29231,32.9053296 C50.1874445,34.07828 48.0761779,35.2393111 45.8461595,36.472741 M5.94244842,25.7155453 C7.54206671,26.7017595 9.1697175,27.6458146 10.7362265,28.6821342 C15.9308473,32.1186538 21.101188,35.5918142 26.2905113,39.03628 C26.5578134,39.2135249 26.9138482,39.2567876 27.2286068,39.3625165 C27.3217541,39.255684 27.4146808,39.1492929 27.5078281,39.0424604 C22.3670651,31.8626089 17.226302,24.6825367 12.0855389,17.5024644 C12.1371893,17.4600846 12.1890605,17.417484 12.2407109,17.3746627 C13.2796792,18.6573151 14.3199719,19.9388639 15.3573951,21.2226199 C19.694707,26.5894088 24.0271629,31.9603915 28.3801465,37.3141575 C28.591825,37.5743962 28.9827349,37.688292 29.2902095,37.8701722 C29.2752,37.53312 29.3447294,37.1649451 29.2330409,36.8638717 C27.3683278,31.830824 25.4802176,26.8063848 23.5998328,21.7790761 C23.4764457,21.4493079 23.3718205,21.1124765 23.4106687,20.7178142 C25.9190255,26.0706972 28.4273824,31.4235802 30.9721595,36.8537182 C31.3897775,36.5886234 31.6833462,36.3776071 31.998767,36.2074256 C32.673975,35.8430031 32.7788209,35.4876304 32.3567884,34.7391406 C30.7417191,31.8758526 31.5822526,27.0699344 34.2897064,24.6112414 C35.5577908,23.4599224 36.4195142,22.505493 35.6836059,20.7109716 C35.3611218,19.9240751 35.7491622,19.2678497 36.676442,19.0036379 C38.3972402,18.5134002 40.0900058,17.9231726 41.8154393,17.4510347 C44.1297759,16.8175444 46.3315411,14.7713927 47.0239659,11.9359164 C47.6514966,9.36575556 49.0272964,6.92494156 50.3757258,4.6028794 C51.2546661,3.08978662 52.6282585,1.84576169 53.8696347,0.567744587 C54.6386523,-0.224228703 55.5250973,-0.156244374 56.4144118,0.576573721 C58.264336,2.10026146 59.8286378,3.92877505 60.6031735,6.13627919 C61.5061732,8.70975093 60.8252262,11.1947106 58.9128359,13.2366685 C58.6969636,13.4673296 58.3791148,13.6021946 58.1601522,13.9277689 C64.5736349,14.8254711 68.9670119,18.2602248 71.6007424,23.6294417 C74.8900362,22.6834001 78.020847,21.7302951 81.1834427,20.8988114 C82.4488782,20.5663945 83.7794287,20.4432281 85.0894514,20.3299945 C86.8886081,20.174381 87.720754,20.8692338 87.8183159,22.6697149 C87.9063865,24.3006766 87.8368571,25.940026 87.8368571,27.2156151 C85.873037,27.680469 84.2091868,27.8371861 82.7609881,28.4795056 C81.0825698,29.2240223 80.5146358,30.7960495 81.0507849,32.8477195 C79.8383241,32.3614549 78.8218701,31.953549 77.8051954,31.545643 C77.7685545,31.5957483 77.7319136,31.6456329 77.6952727,31.6955175 C78.5516986,32.7779693 79.4079039,33.8604211 80.4111142,35.1287262 C78.4713535,35.1858948 76.8348736,35.349013 76.7271582,37.6595973 C75.3054469,37.4638113 73.9828427,37.2819311 72.4529746,37.0713563 C72.7836256,40.4893347 73.0983842,43.7413253 73.4347742,47.2177967 C79.8332474,47.8117767 86.4959324,48.4302575 93.1592796,49.0487383 C93.1592796,49.0992851 93.1592796,49.1498319 93.1592796,49.2005994 C89.1022927,49.2005994 85.0453057,49.2005994 80.9883188,49.2003787 C78.4503843,49.2003787 75.9111255,49.250484 73.3753983,49.1774229 C72.1101834,49.1410028 70.9864555,49.387777 69.9395409,50.0802019 C69.0842186,50.6459286 68.2247024,51.2076822 67.3435549,51.7316913 C66.6734237,52.130106 66.7804769,52.5647201 67.3011751,52.9119257 C67.9651259,53.3551483 68.6970611,53.6981601 69.4036125,54.0767092 C73.8843979,56.4769092 78.3662868,58.8749019 82.8479551,61.2737775 C82.7857097,61.3980476 82.7234643,61.5223176 82.6612189,61.6468084 C81.8065588,61.2781921 80.9450561,60.9252475 80.0987836,60.5385314 C75.9729294,58.6528492 71.8550215,56.749288 67.7234284,54.8766287 C67.0950148,54.5918892 66.4200275,54.387274 65.7474683,54.2290118 C64.5447195,53.9462588 63.1027013,54.5470813 62.7296704,55.6597729 C62.5791336,56.1082929 62.9225869,56.8488365 63.2488234,57.3097172 C65.0660799,59.8781122 66.9466853,62.4014786 68.7378958,65.004528 C66.1330807,62.5723224 63.5280448,60.1396753 60.7782111,57.5721632 C59.5569212,59.1309468 58.4649781,60.5425045 57.3529487,61.9377284 C56.6664836,62.7987896 56.0140106,63.7015686 55.2324115,64.4699239 C53.3780727,66.2922571 51.4672275,66.3522952 49.6351822,64.5136281 C48.6860504,63.5607439 47.8658238,63.5298419 46.8378919,64.1620079 C46.681837,64.2582454 46.501502,64.3220359 46.3611187,64.4361525 C43.2152984,66.9981463 40.0551307,65.9843411 36.9278516,64.433283 C33.7200066,62.8422731 31.1761125,60.4019006 28.7597993,57.8231314 C27.2275031,56.1877551 25.7519342,54.494548 23.6618575,53.5268749 C22.8970338,53.1728266 22.8012377,52.6075414 22.9294809,51.8146852 C23.3276748,49.3559922 23.5982878,46.8765507 24.0134778,44.4211686 C24.1322296,43.7177074 23.7437477,43.5885813 23.3230395,43.3952233 C18.9040581,41.3636396 14.476689,39.3501557 10.0612393,37.3110673 C6.68255055,35.7505179 3.31732625,34.1608324 2.84217094e-14,32.4539401 C8.45257112,35.4454713 16.9051422,38.4370026 25.3574926,41.4287545 C25.4345268,41.3036015 25.5113403,41.1780071 25.5883745,41.0528541 C25.2877425,40.7414064 25.0226477,40.3831643 24.6816225,40.1253536 C18.8905937,35.7452204 13.0865419,31.3825247 7.29860335,26.9986391 C6.80615842,26.625829 6.40597794,26.1307353 5.9625347,25.6925896 C5.96231397,25.6928103 5.94244842,25.7155453 5.94244842,25.7155453"/>
  </g>
</svg>
