<svg xmlns="http://www.w3.org/2000/svg" width="96" height="96" viewBox="0 0 96 96">
  <defs>
    <filter id="com.apps.löve-a" width="130.8%" height="130.8%" x="-15.4%" y="-15.4%" filterUnits="objectBoundingBox">
      <feOffset dy="2" in="SourceAlpha" result="shadowOffsetOuter1"/>
      <feGaussianBlur in="shadowOffsetOuter1" result="shadowBlurOuter1" stdDeviation="2"/>
      <feColorMatrix in="shadowBlurOuter1" result="shadowMatrixOuter1" values="0 0 0 0 0   0 0 0 0 0   0 0 0 0 0  0 0 0 0.2 0"/>
      <feMerge>
        <feMergeNode in="shadowMatrixOuter1"/>
        <feMergeNode in="SourceGraphic"/>
      </feMerge>
    </filter>
  </defs>
  <g fill="none" fill-rule="evenodd" filter="url(#com.apps.löve-a)" transform="translate(9 9)">
    <rect width="78" height="78" fill="#FFF" rx="18"/>
    <path fill="#414D68" fill-rule="nonzero" d="M56.3932807,31.6028984 C55.7570234,26.8148047 52.1199783,22.8899032 47.5984904,22.1411675 C44.3043925,21.5974995 41.2494551,22.6609904 39.0022486,24.6973609 C36.755042,22.6609904 33.6955922,21.5974995 30.4014942,22.1411675 C25.8800064,22.8899032 22.2384488,26.8148047 21.606704,31.6076674 C21.1283829,35.2225827 22.2925983,38.551357 24.4089435,40.9120207 L24.3999185,40.9215587 L38.4336782,55.7532033 C38.7450382,56.0822656 39.2549465,56.0822656 39.5708189,55.7532033 L53.6045786,40.9215587 L53.5955537,40.9120207 C55.7073863,38.5465879 56.8716018,35.2178137 56.3932807,31.6028984 Z"/>
  </g>
</svg>
