<svg xmlns="http://www.w3.org/2000/svg" width="96" height="96" viewBox="0 0 96 96">
  <defs>
    <filter id="com.apps.fromscratch-a" width="134.8%" height="129.6%" x="-17.4%" y="-14.8%" filterUnits="objectBoundingBox">
      <feOffset dy="2" in="SourceAlpha" result="shadowOffsetOuter1"/>
      <feGaussianBlur in="shadowOffsetOuter1" result="shadowBlurOuter1" stdDeviation="2"/>
      <feColorMatrix in="shadowBlurOuter1" result="shadowMatrixOuter1" values="0 0 0 0 0   0 0 0 0 0   0 0 0 0 0  0 0 0 0.2 0"/>
      <feMerge>
        <feMergeNode in="shadowMatrixOuter1"/>
        <feMergeNode in="SourceGraphic"/>
      </feMerge>
    </filter>
  </defs>
  <g fill="none" fill-rule="evenodd" filter="url(#com.apps.fromscratch-a)" transform="translate(13 7)">
    <path fill="#002B36" d="M0,11 L69,11 L69,73 C69,77.418278 65.418278,81 61,81 L8,81 C3.581722,81 5.41083001e-16,77.418278 0,73 L0,11 L0,11 Z"/>
    <path fill="#FFF" d="M0,0 L69,0 L69,3 C69,7.418278 65.418278,11 61,11 L8,11 C3.581722,11 5.41083001e-16,7.418278 0,3 L0,0 L0,0 Z" transform="matrix(1 0 0 -1 0 11)"/>
    <circle cx="7" cy="6" r="2" fill="#829696"/>
    <circle cx="13" cy="6" r="2" fill="#829696"/>
    <circle cx="19" cy="6" r="2" fill="#829696"/>
    <path stroke="#FFF" d="M6.5 25.2669221C8.02421116 26.4889233 9.19087783 27.066616 10 27 10.8091222 26.933384 11.970906 26.1639874 13.4853516 24.69181L15 27.4C16.6586505 27.5086256 17.8253172 27.3752923 18.5 27 19.5120242 26.4370616 19.8335887 24.7617559 21 25.0625 22.1664113 25.3632441 21.8920549 27.7962425 22.378418 28 22.7990342 28.1762135 23.9335937 26.2183021 23.9335937 26.2669221 23.9335937 26.3717619 24.4132487 26.9494545 25.3725586 28L28.6748047 25.69181C30.8040365 24.0756888 31.8686523 24.0756888 31.8686523 25.69181 31.8686523 28.1159918 33 25.7354675 35 25.0625 36.3333333 24.613855 37.6098633 25.015329 38.8295898 26.2669221L43.2836914 25.0625C43.8409831 26.6374253 44.730306 26.8471953 45.9516602 25.69181 47.1730143 24.5364247 48.3359375 23.9724881 49.4404297 24 50.3776042 25.0230335 50.8461914 25.7786742 50.8461914 26.2669221 50.8461914 26.7551699 51.7845052 26.3536959 53.6611328 25.0625L57.2373047 26.2669221M6.5 32.8465119C8.24057258 34.0685132 9.5728473 34.6462058 10.4968242 34.5795898 11.420801 34.5129739 12.7474998 33.7435772 14.4769206 32.2713999L16.206573 34.9795898C18.1006686 35.0882155 19.4329433 34.9548821 20.2033972 34.5795898 21.3590779 34.0166514 21.7262885 32.3413458 23.0582716 32.6420898 24.3902546 32.9428339 24.0769535 35.3758323 24.6323557 35.5795898 25.1126782 35.7558033 26.4082883 33.7978919 26.4082883 33.8465119 26.4082883 33.9513517 26.9560301 34.5290444 28.0515138 35.5795898L31.822513 33.2713999C34.2539887 31.6552787 35.4697266 31.6552787 35.4697266 33.2713999 35.4697266 35.6955817 36.7616688 33.3150573 39.0455683 32.6420898 40.568168 32.1934448 42.025901 32.5949189 43.4187675 33.8465119L48.5051277 32.6420898C49.1415268 34.2170152 50.1570889 34.4267852 51.551814 33.2713999 52.9465391 32.1160146 54.274539 31.5520779 55.5358136 31.5795898 56.6060197 32.6026234 57.1411228 33.3582641 57.1411228 33.8465119 57.1411228 34.3347597 58.21263 33.9332857 60.3556445 32.6420898L64.4394531 33.8465119M5.53027344 42.2522736C7.27084602 43.4742749 8.60312074 44.0519675 9.52709761 43.9853516 10.4510745 43.9187356 11.7777733 43.1493389 13.507194 41.6771616L15.2368464 44.3853516C17.130942 44.4939772 18.4632168 44.3606439 19.2336706 43.9853516 20.3893514 43.4224131 20.756562 41.7471075 22.088545 42.0478516 23.4205281 42.3485956 23.1072269 44.781594 23.6626291 44.9853516 24.1429517 45.161565 25.4385617 43.2036536 25.4385617 43.2522736 25.4385617 43.3571134 25.9863036 43.9348061 27.0817873 44.9853516L30.8527864 42.6771616M5.53027344 53.6648866C7.27084602 54.8868879 8.60312074 55.4645805 9.52709761 55.3979646 10.4510745 55.3313486 11.7777733 54.5619519 13.507194 53.0897746L15.2368464 55.7979646C17.130942 55.9065902 18.4632168 55.7732569 19.2336706 55.3979646 20.3893514 54.8350261 20.756562 53.1597205 22.088545 53.4604646 23.4205281 53.7612086 23.1072269 56.194207 23.6626291 56.3979646 24.1429517 56.574178 25.4385617 54.6162666 25.4385617 54.6648866 25.4385617 54.7697264 25.9863036 55.3474191 27.0817873 56.3979646L30.8527864 54.0897746M37.0688477 43.2556993C38.8094202 44.4777005 40.141695 45.0553932 41.0656718 44.9887772 41.9896487 44.9221612 43.3163475 44.1527646 45.0457682 42.6805872L46.7754207 45.3887772C48.6695163 45.4974028 50.001791 45.3640695 50.7722448 44.9887772 51.9279256 44.4258387 52.2951362 42.7505331 53.6271192 43.0512772 54.9591023 43.3520213 54.6458011 45.7850196 55.2012033 45.9887772 55.6815259 46.1649907 56.9771359 44.2070793 56.9771359 44.2556993 56.9771359 44.3605391 57.5248778 44.9382317 58.6203615 45.9887772L62.3913606 43.6805872" opacity=".376"/>
  </g>
</svg>
