<svg xmlns="http://www.w3.org/2000/svg" width="96" height="96" viewBox="0 0 96 96">
  <defs>
    <filter id="com.apps.glnemo2-a" width="126.7%" height="134.3%" x="-13.3%" y="-17.1%" filterUnits="objectBoundingBox">
      <feOffset dy="2" in="SourceAlpha" result="shadowOffsetOuter1"/>
      <feGaussianBlur in="shadowOffsetOuter1" result="shadowBlurOuter1" stdDeviation="2"/>
      <feColorMatrix in="shadowBlurOuter1" result="shadowMatrixOuter1" values="0 0 0 0 0   0 0 0 0 0   0 0 0 0 0  0 0 0 0.2 0"/>
      <feMerge>
        <feMergeNode in="shadowMatrixOuter1"/>
        <feMergeNode in="SourceGraphic"/>
      </feMerge>
    </filter>
    <linearGradient id="com.apps.glnemo2-b" x1="50%" x2="50%" y1="0%" y2="98.525%">
      <stop offset="0%" stop-color="#505050"/>
      <stop offset="100%" stop-color="#212121"/>
    </linearGradient>
  </defs>
  <g fill="none" fill-rule="evenodd" filter="url(#com.apps.glnemo2-a)" transform="translate(3 12)">
    <path fill="url(#com.apps.glnemo2-b)" d="M45,-1.3500312e-13 C69.8528137,-1.3500312e-13 90,20.1471863 90,45 C90,54.2512978 87.208301,62.8505594 82.4213784,70.0013092 L7.57862159,70.0013092 C2.79169904,62.8505594 0,54.2512978 0,45 C0,20.1471863 20.1471863,-1.3500312e-13 45,-1.3500312e-13 Z"/>
    <path fill="#FEFEFE" d="M53.6234666,24.4770384 C55.757331,25.0488057 57.023661,27.2421535 56.4518938,29.3760179 L51.5167526,47.7925663 C53.0554088,49.4074057 54,51.5933923 54,54 C54,58.9705627 49.9705627,63 45,63 C40.0294373,63 36,58.9705627 36,54 C36,49.3786515 39.4831383,45.5708335 43.9673643,45.0585966 L48.7244871,27.3054656 C49.2962544,25.1716011 51.4896022,23.9052712 53.6234666,24.4770384 Z M76.5,38 C80.0898509,38 83,40.9101491 83,44.5 C83,48.0898509 80.0898509,51 76.5,51 C72.9101491,51 70,48.0898509 70,44.5 C70,40.9101491 72.9101491,38 76.5,38 Z M13.5,38 C17.0898509,38 20,40.9101491 20,44.5 C20,48.0898509 17.0898509,51 13.5,51 C9.91014913,51 7,48.0898509 7,44.5 C7,40.9101491 9.91014913,38 13.5,38 Z M22.5,17 C26.0898509,17 29,19.9101491 29,23.5 C29,27.0898509 26.0898509,30 22.5,30 C18.9101491,30 16,27.0898509 16,23.5 C16,19.9101491 18.9101491,17 22.5,17 Z M68.5,17 C72.0898509,17 75,19.9101491 75,23.5 C75,27.0898509 72.0898509,30 68.5,30 C64.9101491,30 62,27.0898509 62,23.5 C62,19.9101491 64.9101491,17 68.5,17 Z M45.5,7 C49.0898509,7 52,9.91014913 52,13.5 C52,17.0898509 49.0898509,20 45.5,20 C41.9101491,20 39,17.0898509 39,13.5 C39,9.91014913 41.9101491,7 45.5,7 Z"/>
  </g>
</svg>
