<?xml version="1.0" encoding="UTF-8"?>
<svg width="96px" height="96px" viewBox="0 0 96 96" version="1.1" xmlns="http://www.w3.org/2000/svg" xmlns:xlink="http://www.w3.org/1999/xlink">
    <title>com.apps.cromberg</title>
    <defs>
        <filter x="-14.3%" y="-14.3%" width="128.6%" height="128.6%" filterUnits="objectBoundingBox" id="filter-1">
            <feOffset dx="0" dy="2" in="SourceAlpha" result="shadowOffsetOuter1"></feOffset>
            <feGaussianBlur stdDeviation="2" in="shadowOffsetOuter1" result="shadowBlurOuter1"></feGaussianBlur>
            <feColorMatrix values="0 0 0 0 0   0 0 0 0 0   0 0 0 0 0  0 0 0 0.2 0" type="matrix" in="shadowBlurOuter1" result="shadowMatrixOuter1"></feColorMatrix>
            <feMerge>
                <feMergeNode in="shadowMatrixOuter1"></feMergeNode>
                <feMergeNode in="SourceGraphic"></feMergeNode>
            </feMerge>
        </filter>
        <linearGradient x1="14.1832446%" y1="19.337517%" x2="94.1098017%" y2="74.8168447%" id="linearGradient-2">
            <stop stop-color="#000000" stop-opacity="0.2" offset="0%"></stop>
            <stop stop-color="#000000" stop-opacity="0" offset="100%"></stop>
        </linearGradient>
    </defs>
    <g id="com.apps.cromberg" stroke="none" stroke-width="1" fill="none" fill-rule="evenodd">
        <g id="编组-2" filter="url(#filter-1)" transform="translate(6.000000, 6.000000)">
            <circle id="椭圆形" fill="#8BB51B" cx="42" cy="42" r="42"></circle>
            <path d="M55,23 L83,51 C76.3333333,72.3333333 62.6666667,83.3333333 42,84 C27.3333333,69.3333333 19.3333333,61.3333333 18,60 L18,45 L33,44 L25,36 L28,34 L41,37 L55,23 Z" id="路径-33" fill="url(#linearGradient-2)"></path>
            <g id="编组" transform="translate(18.000000, 40.000000)" fill="#FFFFFF">
                <ellipse id="椭圆形" cx="7.5" cy="3.5" rx="7.5" ry="3.5"></ellipse>
                <path d="M14.7653385,5.99939581 C14.9178597,6.31919764 15,6.65448285 15,7 C15,9.209139 11.6421356,11 8,11 C3.35786438,11 0,9.209139 0,7 C0,6.65489072 0.0819464855,6.31998925 0.237934048,6.00052844 C1.0804656,7.7249669 4.08305372,9 8,9 C11.0492298,9 13.8992084,7.74475075 14.7463014,6.03970628 Z" id="形状结合"></path>
                <path d="M14.7653385,9.99939581 C14.9178597,10.3191976 15,10.6544828 15,11 C15,13.209139 11.6421356,15 8,15 C3.35786438,15 0,13.209139 0,11 C0,10.6548907 0.0819464855,10.3199892 0.237934048,10.0005284 C1.0804656,11.7249669 4.08305372,13 8,13 C11.0492298,13 13.8992084,11.7447508 14.7463014,10.0397063 Z" id="形状结合备份"></path>
                <path d="M14.7653385,13.9993958 C14.9178597,14.3191976 15,14.6544828 15,15 C15,17.209139 11.6421356,19 8,19 C3.35786438,19 0,17.209139 0,15 C0,14.6548907 0.0819464855,14.3199892 0.237934048,14.0005284 C1.0804656,15.7249669 4.08305372,17 8,17 C11.0492298,17 13.8992084,15.7447508 14.7463014,14.0397063 Z" id="形状结合备份-2"></path>
                <path d="M14.7653385,17.9993958 C14.9178597,18.3191976 15,18.6544828 15,19 C15,21.209139 11.6421356,23 8,23 C3.35786438,23 0,21.209139 0,19 C0,18.6548907 0.0819464855,18.3199892 0.237934048,18.0005284 C1.0804656,19.7249669 4.08305372,21 8,21 C11.0492298,21 13.8992084,19.7447508 14.7463014,18.0397063 Z" id="形状结合备份-3"></path>
            </g>
            <g id="编组" transform="translate(51.000000, 32.000000)" fill="#FFFFFF">
                <ellipse id="椭圆形" cx="7.5" cy="3.5" rx="7.5" ry="3.5"></ellipse>
                <path d="M14.7653385,5.99939581 C14.9178597,6.31919764 15,6.65448285 15,7 C15,9.209139 11.6421356,11 8,11 C3.35786438,11 0,9.209139 0,7 C0,6.65489072 0.0819464855,6.31998925 0.237934048,6.00052844 C1.0804656,7.7249669 4.08305372,9 8,9 C11.0492298,9 13.8992084,7.74475075 14.7463014,6.03970628 Z" id="形状结合"></path>
                <path d="M14.7653385,9.99939581 C14.9178597,10.3191976 15,10.6544828 15,11 C15,13.209139 11.6421356,15 8,15 C3.35786438,15 0,13.209139 0,11 C0,10.6548907 0.0819464855,10.3199892 0.237934048,10.0005284 C1.0804656,11.7249669 4.08305372,13 8,13 C11.0492298,13 13.8992084,11.7447508 14.7463014,10.0397063 Z" id="形状结合备份"></path>
                <path d="M14.7653385,13.9993958 C14.9178597,14.3191976 15,14.6544828 15,15 C15,17.209139 11.6421356,19 8,19 C3.35786438,19 0,17.209139 0,15 C0,14.6548907 0.0819464855,14.3199892 0.237934048,14.0005284 C1.0804656,15.7249669 4.08305372,17 8,17 C11.0492298,17 13.8992084,15.7447508 14.7463014,14.0397063 Z" id="形状结合备份-2"></path>
                <path d="M14.7653385,17.9993958 C14.9178597,18.3191976 15,18.6544828 15,19 C15,21.209139 11.6421356,23 8,23 C3.35786438,23 0,21.209139 0,19 C0,18.6548907 0.0819464855,18.3199892 0.237934048,18.0005284 C1.0804656,19.7249669 4.08305372,21 8,21 C11.0492298,21 13.8992084,19.7447508 14.7463014,18.0397063 Z" id="形状结合备份-3"></path>
                <path d="M14.7653385,21.9993958 C14.9178597,22.3191976 15,22.6544828 15,23 C15,25.209139 11.6421356,27 8,27 C3.35786438,27 0,25.209139 0,23 C0,22.6548907 0.0819464855,22.3199892 0.237934048,22.0005284 C1.0804656,23.7249669 4.08305372,25 8,25 C11.0492298,25 13.8992084,23.7447508 14.7463014,22.0397063 Z" id="形状结合备份-4"></path>
                <path d="M14.7653385,25.9993958 C14.9178597,26.3191976 15,26.6544828 15,27 C15,29.209139 11.6421356,31 8,31 C3.35786438,31 0,29.209139 0,27 C0,26.6548907 0.0819464855,26.3199892 0.237934048,26.0005284 C1.0804656,27.7249669 4.08305372,29 8,29 C11.0492298,29 13.8992084,27.7447508 14.7463014,26.0397063 Z" id="形状结合备份-5"></path>
            </g>
            <g id="编组" transform="translate(34.000000, 48.000000)" fill="#FFFFFF">
                <ellipse id="椭圆形" cx="7.5" cy="3.5" rx="7.5" ry="3.5"></ellipse>
                <path d="M7.5,9 C10.896865,9 13.7662886,7.94615223 14.6888805,6.5008388 C14.8915255,6.81696956 15,7.15257314 15,7.5 C15,9.43299662 11.6421356,11 7.5,11 C3.35786438,11 0,9.43299662 0,7.5 C0,7.15220705 0.108703247,6.8162623 0.311119489,6.4991612 C1.23238607,7.94566541 4.1023505,9 7.5,9 Z" id="形状结合"></path>
                <path d="M7.5,13 C10.896865,13 13.7662886,11.9461522 14.6888805,10.5008388 C14.8915255,10.8169696 15,11.1525731 15,11.5 C15,13.4329966 11.6421356,15 7.5,15 C3.35786438,15 0,13.4329966 0,11.5 C0,11.152207 0.108703247,10.8162623 0.311119489,10.4991612 C1.23238607,11.9456654 4.1023505,13 7.5,13 Z" id="形状结合备份"></path>
            </g>
            <circle id="椭圆形" fill="#FFFFFF" cx="27" cy="33" r="4"></circle>
            <rect id="矩形" fill="#FFFFFF" transform="translate(34.500000, 35.000000) rotate(-75.000000) translate(-34.500000, -35.000000) " x="33" y="30" width="3" height="10"></rect>
            <rect id="矩形备份" fill="#FFFFFF" transform="translate(46.500000, 31.000000) rotate(-315.000000) translate(-46.500000, -31.000000) " x="45" y="26" width="3" height="10"></rect>
            <circle id="椭圆形备份" fill="#FFFFFF" cx="52" cy="25" r="4"></circle>
            <circle id="椭圆形备份-2" fill="#FFFFFF" cx="42" cy="37" r="4"></circle>
        </g>
    </g>
</svg>