<svg xmlns="http://www.w3.org/2000/svg" xmlns:xlink="http://www.w3.org/1999/xlink" width="96" height="96" viewBox="0 0 96 96">
  <defs>
    <filter id="com.apps.tuner-a" width="127.3%" height="136.4%" x="-13.6%" y="-18.2%" filterUnits="objectBoundingBox">
      <feOffset dy="2" in="SourceAlpha" result="shadowOffsetOuter1"/>
      <feGaussianBlur in="shadowOffsetOuter1" result="shadowBlurOuter1" stdDeviation="2"/>
      <feColorMatrix in="shadowBlurOuter1" result="shadowMatrixOuter1" values="0 0 0 0 0   0 0 0 0 0   0 0 0 0 0  0 0 0 0.2 0"/>
      <feMerge>
        <feMergeNode in="shadowMatrixOuter1"/>
        <feMergeNode in="SourceGraphic"/>
      </feMerge>
    </filter>
    <linearGradient id="com.apps.tuner-b" x1="50%" x2="50%" y1="0%" y2="100%">
      <stop offset="0%" stop-color="#DE3E80"/>
      <stop offset="100%" stop-color="#9B1442"/>
    </linearGradient>
    <linearGradient id="com.apps.tuner-c" x1="50%" x2="50%" y1="0%" y2="100%">
      <stop offset="0%" stop-color="#A41A4A"/>
      <stop offset="100%" stop-color="#8F002E"/>
    </linearGradient>
    <linearGradient id="com.apps.tuner-d" x1="50%" x2="50%" y1="0%" y2="100%">
      <stop offset="0%" stop-color="#ECEBEB"/>
      <stop offset="100%" stop-color="#D4D3D3"/>
    </linearGradient>
    <rect id="com.apps.tuner-e" width="70" height="20" x="9" y="9" rx="4"/>
    <filter id="com.apps.tuner-f" width="105.7%" height="120%" x="-2.9%" y="-10%" filterUnits="objectBoundingBox">
      <feGaussianBlur in="SourceAlpha" result="shadowBlurInner1" stdDeviation="1.5"/>
      <feOffset dy="1" in="shadowBlurInner1" result="shadowOffsetInner1"/>
      <feComposite in="shadowOffsetInner1" in2="SourceAlpha" k2="-1" k3="1" operator="arithmetic" result="shadowInnerInner1"/>
      <feColorMatrix in="shadowInnerInner1" values="0 0 0 0 0   0 0 0 0 0   0 0 0 0 0  0 0 0 0.5 0"/>
    </filter>
    <linearGradient id="com.apps.tuner-g" x1="50%" x2="50%" y1="0%" y2="100%">
      <stop offset="0%" stop-color="#9E1644"/>
      <stop offset="100%" stop-color="#D83B7B"/>
    </linearGradient>
    <radialGradient id="com.apps.tuner-h" cx="50%" cy="93.306%" r="100%" fx="50%" fy="93.306%">
      <stop offset="0%" stop-color="#A4A4A4"/>
      <stop offset="100%" stop-color="#FFF"/>
    </radialGradient>
    <linearGradient id="com.apps.tuner-i" x1="50%" x2="50%" y1="0%" y2="100%">
      <stop offset="0%" stop-color="#FF77B7"/>
      <stop offset="100%" stop-color="#B8446C"/>
    </linearGradient>
    <linearGradient id="com.apps.tuner-j" x1="50%" x2="50%" y1="0%" y2="100%">
      <stop offset="0%" stop-color="#DFDFDF"/>
      <stop offset="100%" stop-color="#BBB"/>
    </linearGradient>
    <linearGradient id="com.apps.tuner-k" x1="50%" x2="50%" y1="0%" y2="100%">
      <stop offset="0%" stop-color="#9D1643"/>
      <stop offset="100%" stop-color="#D13673"/>
    </linearGradient>
    <linearGradient id="com.apps.tuner-l" x1="50%" x2="50%" y1="0%" y2="100%">
      <stop offset="0%" stop-color="#9D1643"/>
      <stop offset="100%" stop-color="#D13673"/>
    </linearGradient>
  </defs>
  <g fill="none" fill-rule="evenodd" filter="url(#com.apps.tuner-a)" transform="translate(4 15)">
    <path fill="url(#com.apps.tuner-b)" d="M12,0 L76,0 C82.627417,-1.21743675e-15 88,5.372583 88,12 L88,54 C88,60.627417 82.627417,66 76,66 L12,66 C5.372583,66 8.11624501e-16,60.627417 0,54 L0,12 C-8.11624501e-16,5.372583 5.372583,1.21743675e-15 12,0 Z"/>
    <path fill="url(#com.apps.tuner-c)" fill-rule="nonzero" d="M76,0 C82.627417,0 88,5.372583 88,12 L88,54 C88,60.627417 82.627417,66 76,66 L12,66 C5.372583,66 0,60.627417 0,54 L0,12 C0,5.372583 5.372583,0 12,0 L76,0 Z M76,1 L12,1 C6.02129842,1 1.15663482,5.76976358 1.0037074,11.7115925 L1,12 L1,54 C1,59.9787016 5.76976358,64.8433652 11.7115925,64.9962926 L12,65 L76,65 C81.9787016,65 86.8433652,60.2302364 86.9962926,54.2884075 L87,54 L87,12 C87,6.02129842 82.2302364,1.15663482 76.2884075,1.0037074 L76,1 Z"/>
    <circle cx="45" cy="48" r="13" fill="url(#com.apps.tuner-d)"/>
    <use fill="#FAFAFA" xlink:href="#com.apps.tuner-e"/>
    <use fill="#000" filter="url(#com.apps.tuner-f)" xlink:href="#com.apps.tuner-e"/>
    <path fill="url(#com.apps.tuner-g)" fill-rule="nonzero" d="M75,6 L13,6 C9.13400675,6 6,9.13400675 6,13 L6,25 C6,28.8659932 9.13400675,32 13,32 L75,32 C78.8659932,32 82,28.8659932 82,25 L82,13 C82,9.13400675 78.8659932,6 75,6 Z M75,9 C77.209139,9 79,10.790861 79,13 L79,25 C79,27.209139 77.209139,29 75,29 L13,29 C10.790861,29 9,27.209139 9,25 L9,13 C9,10.790861 10.790861,9 13,9 L75,9 Z"/>
    <path fill="#B3B3B5" d="M15,12 L15,26 L14,26 L14,12 L15,12 Z M30,12 L30,26 L29,26 L29,12 L30,12 Z M45,12 L45,26 L44,26 L44,12 L45,12 Z M62,12 L62,26 L61,26 L61,12 L62,12 Z M75,12 L75,26 L74,26 L74,12 L75,12 Z M71,15 L71,23 L70,23 L70,15 L71,15 Z M66,15 L66,23 L65,23 L65,15 L66,15 Z M56,15 L56,23 L55,23 L55,15 L56,15 Z M39,15 L39,23 L38,23 L38,15 L39,15 Z M24,15 L24,23 L23,23 L23,15 L24,15 Z M50,15 L50,23 L49,23 L49,15 L50,15 Z M35,15 L35,23 L34,23 L34,15 L35,15 Z M20,15 L20,23 L19,23 L19,15 L20,15 Z"/>
    <rect width="1" height="20" x="37" y="9" fill="#DE3E80"/>
    <rect width="17" height="3" x="8" y="40" fill="#000" rx="1.5"/>
    <rect width="17" height="3" x="62" y="40" fill="#000" rx="1.5"/>
    <circle cx="45" cy="48" r="10" fill="url(#com.apps.tuner-h)"/>
    <path fill="url(#com.apps.tuner-i)" fill-rule="nonzero" d="M45,37 C38.9248678,37 34,41.9248678 34,48 C34,54.0751322 38.9248678,59 45,59 C51.0751322,59 56,54.0751322 56,48 C56,41.9248678 51.0751322,37 45,37 Z M45,38 C50.5228475,38 55,42.4771525 55,48 C55,53.5228475 50.5228475,58 45,58 C39.4771525,58 35,53.5228475 35,48 C35,42.4771525 39.4771525,38 45,38 Z"/>
    <path fill="#000" fill-rule="nonzero" d="M45,38 C50.5228475,38 55,42.4771525 55,48 C55,53.5228475 50.5228475,58 45,58 C39.4771525,58 35,53.5228475 35,48 C35,42.4771525 39.4771525,38 45,38 Z M45,39 C40.0294373,39 36,43.0294373 36,48 C36,52.9705627 40.0294373,57 45,57 C49.9705627,57 54,52.9705627 54,48 C54,43.0294373 49.9705627,39 45,39 Z"/>
    <rect width="1" height="5" x="44" y="40" fill="url(#com.apps.tuner-j)"/>
    <path fill="#000" d="M9.5 47L22.5 47C23.3284271 47 24 47.6715729 24 48.5 24 49.3284271 23.3284271 50 22.5 50L9.5 50C8.67157288 50 8 49.3284271 8 48.5 8 47.6715729 8.67157288 47 9.5 47zM64.5 47L77.5 47C78.3284271 47 79 47.6715729 79 48.5 79 49.3284271 78.3284271 50 77.5 50L64.5 50C63.6715729 50 63 49.3284271 63 48.5 63 47.6715729 63.6715729 47 64.5 47z"/>
    <rect width="17" height="3" x="8" y="54" fill="#000" rx="1.5"/>
    <rect width="17" height="3" x="62" y="54" fill="#000" rx="1.5"/>
    <path fill="url(#com.apps.tuner-k)" fill-rule="nonzero" d="M23.5 39L9.5 39C8.11928813 39 7 40.1192881 7 41.5 7 42.8807119 8.11928813 44 9.5 44L23.5 44C24.8807119 44 26 42.8807119 26 41.5 26 40.1192881 24.8807119 39 23.5 39zM23.5 40C24.3284271 40 25 40.6715729 25 41.5 25 42.3284271 24.3284271 43 23.5 43L9.5 43C8.67157288 43 8 42.3284271 8 41.5 8 40.6715729 8.67157288 40 9.5 40L23.5 40zM77.5 39L63.5 39C62.1192881 39 61 40.1192881 61 41.5 61 42.8807119 62.1192881 44 63.5 44L77.5 44C78.8807119 44 80 42.8807119 80 41.5 80 40.1192881 78.8807119 39 77.5 39zM77.5 40C78.3284271 40 79 40.6715729 79 41.5 79 42.3284271 78.3284271 43 77.5 43L63.5 43C62.6715729 43 62 42.3284271 62 41.5 62 40.6715729 62.6715729 40 63.5 40L77.5 40z"/>
    <path fill="url(#com.apps.tuner-l)" fill-rule="nonzero" d="M22.5 46L9.5 46C8.11928813 46 7 47.1192881 7 48.5 7 49.8807119 8.11928813 51 9.5 51L22.5 51C23.8807119 51 25 49.8807119 25 48.5 25 47.1192881 23.8807119 46 22.5 46zM22.5 47C23.3284271 47 24 47.6715729 24 48.5 24 49.3284271 23.3284271 50 22.5 50L9.5 50C8.67157288 50 8 49.3284271 8 48.5 8 47.6715729 8.67157288 47 9.5 47L22.5 47zM77.5 46L64.5 46C63.1192881 46 62 47.1192881 62 48.5 62 49.8807119 63.1192881 51 64.5 51L77.5 51C78.8807119 51 80 49.8807119 80 48.5 80 47.1192881 78.8807119 46 77.5 46zM77.5 47C78.3284271 47 79 47.6715729 79 48.5 79 49.3284271 78.3284271 50 77.5 50L64.5 50C63.6715729 50 63 49.3284271 63 48.5 63 47.6715729 63.6715729 47 64.5 47L77.5 47z"/>
    <path fill="url(#com.apps.tuner-k)" fill-rule="nonzero" d="M23.5 53L9.5 53C8.11928813 53 7 54.1192881 7 55.5 7 56.8807119 8.11928813 58 9.5 58L23.5 58C24.8807119 58 26 56.8807119 26 55.5 26 54.1192881 24.8807119 53 23.5 53zM23.5 54C24.3284271 54 25 54.6715729 25 55.5 25 56.3284271 24.3284271 57 23.5 57L9.5 57C8.67157288 57 8 56.3284271 8 55.5 8 54.6715729 8.67157288 54 9.5 54L23.5 54zM77.5 53L63.5 53C62.1192881 53 61 54.1192881 61 55.5 61 56.8807119 62.1192881 58 63.5 58L77.5 58C78.8807119 58 80 56.8807119 80 55.5 80 54.1192881 78.8807119 53 77.5 53zM77.5 54C78.3284271 54 79 54.6715729 79 55.5 79 56.3284271 78.3284271 57 77.5 57L63.5 57C62.6715729 57 62 56.3284271 62 55.5 62 54.6715729 62.6715729 54 63.5 54L77.5 54z"/>
  </g>
</svg>
