<svg xmlns="http://www.w3.org/2000/svg" xmlns:xlink="http://www.w3.org/1999/xlink" width="96" height="96" viewBox="0 0 96 96">
  <defs>
    <filter id="weiyun-a" width="137.2%" height="138%" x="-17.9%" y="-15.2%" filterUnits="objectBoundingBox">
      <feOffset dy="2" in="SourceAlpha" result="shadowOffsetOuter1"/>
      <feGaussianBlur in="shadowOffsetOuter1" result="shadowBlurOuter1" stdDeviation="2"/>
      <feColorMatrix in="shadowBlurOuter1" result="shadowMatrixOuter1" values="0 0 0 0 0   0 0 0 0 0   0 0 0 0 0  0 0 0 0.2 0"/>
      <feMerge>
        <feMergeNode in="shadowMatrixOuter1"/>
        <feMergeNode in="SourceGraphic"/>
      </feMerge>
    </filter>
    <linearGradient id="weiyun-b" x1="42.532%" x2="42.532%" y1="-2.585%" y2="101.917%">
      <stop offset="0%" stop-color="#39ECAB"/>
      <stop offset="100%" stop-color="#1F91FF"/>
    </linearGradient>
    <linearGradient id="weiyun-e" x1="65.605%" x2="34.395%" y1="18.407%" y2="81.593%">
      <stop offset="0%" stop-color="#FFF"/>
      <stop offset="100%" stop-color="#D3ECFF"/>
    </linearGradient>
    <path id="weiyun-d" d="M61.3666974,49.3809035 C60.8380025,49.0756614 60.3093076,48.7704192 59.6788653,48.6414087 C59.7806127,48.4651771 59.8823601,48.2889455 59.9841075,48.1127138 C65.4784661,38.5962055 62.4518748,26.7448552 53.4640615,21.5557387 C53.2878298,21.4539914 49.7631971,19.4190437 45.8515329,19.2754229 C41.1059316,19.3552549 36.3257621,21.5299085 33.1788984,25.3524782 C32.2505191,24.1115517 31.118645,23.2230884 29.7087919,22.4091093 C23.5406847,18.8479509 15.5537775,21.2859733 11.7891243,27.8065438 C8.02447122,34.3271143 9.90653554,42.46299 16.0746428,46.0241484 C18.1894224,47.245117 20.5349599,47.6594116 23.0095079,47.443264 C23.7416976,47.3960429 24.4738873,47.3488217 25.0298453,47.1998532 C26.7575934,50.3121487 28.9668152,52.9974966 32.1389847,54.8289495 C36.0160806,57.0673919 41.0596189,58.099476 45.7579991,57.2874543 C45.8178731,60.8466553 47.796337,64.3386771 51.1447381,66.2718774 C56.2554555,69.2225514 62.5472255,67.6856452 65.2944048,62.9273911 C68.0415841,58.169137 66.4774148,52.3315776 61.3666974,49.3809035 Z M14.5070831,29.6107335 C17.4577572,24.5000161 23.4988113,22.5833835 28.2570655,25.3305628 C29.4906869,26.0427945 30.5208136,27.1074895 31.2729612,28.2466686 C31.2729612,28.2466686 31.2729612,28.2466686 31.4491929,28.348416 C30.7369612,29.5820375 30.3771928,31.0191537 30.0174244,32.4562699 C28.5603502,30.9101012 26.7980338,29.8926273 24.8049596,29.6818275 C23.7203067,29.5255538 22.432159,29.7217434 21.3202429,30.0196805 C21.3202429,30.0196805 21.3202429,30.0196805 21.3202429,30.0196805 C18.8184317,30.6900387 16.9397578,33.1300185 17.054158,35.7807981 C17.1486002,37.2451775 17.7990005,38.5605883 18.8291272,39.6252833 C19.1815905,39.828778 19.2560747,40.106757 19.608538,40.3102518 C20.4896962,40.8189887 21.7505807,41.0770097 22.7607494,40.9553044 C23.4929391,40.9080832 24.1779076,40.1286724 24.1306865,39.3964828 C24.0834654,38.6642931 23.3040546,37.9793246 22.5718649,38.0265457 C21.8396753,38.0737668 21.209233,37.9447563 20.7822855,37.4632825 C20.3553379,36.9818087 20.104622,36.6020823 20.0574009,35.8698927 C19.9629587,34.4055133 21.129401,33.199155 22.5937803,33.1047128 C22.5937803,33.1047128 22.5937803,33.1047128 22.5937803,33.1047128 C23.1497384,32.9557443 23.603949,32.9830074 24.2343913,33.1120179 C25.7732549,33.2955547 27.0068763,34.0077863 27.759024,35.1469655 C28.6874033,36.3878921 29.1343088,38.0557662 28.8490247,39.7708614 C28.43473,42.116399 26.9630455,43.8514522 24.9899293,44.8270526 C22.3863708,45.6736425 19.6611069,45.5100637 17.3700956,44.1873478 C13.0933152,41.0132209 11.6581564,34.5452193 14.5070831,29.6107335 Z M27.9113828,46.2787791 C29.4302884,45.2759155 30.6984781,43.8933256 31.5397203,42.0292618 C32.7660366,44.3821045 34.8535531,46.0572837 37.2190486,47.6579787 C37.2190486,47.6579787 47.0880202,53.3558321 52.7858736,43.4868605 C54.3120843,40.843386 54.9298737,38.1453852 54.2867786,35.1893634 C53.6164203,32.6875523 51.7323986,30.6599098 48.9126924,29.0319517 C45.9167546,27.3022462 41.8488167,28.2432783 40.1191112,31.2392161 C38.3894058,34.2351539 39.4321853,38.1268601 42.2518915,39.7548183 C42.956818,40.1618078 43.9669867,40.0401024 44.3739762,39.3351759 C44.7809657,38.6302493 44.9372394,37.5455964 44.0560812,37.0368595 C42.6462281,36.2228804 42.1248384,34.2770273 42.9388174,32.8671742 C43.7527965,31.4573211 45.8748812,31.0376788 47.4609659,31.9534052 C49.0470506,32.8691316 50.8565881,34.6187951 51.3034936,36.2866692 C51.8248834,38.2325223 51.3361045,40.3000808 50.2168833,42.2386288 C46.146988,49.2878942 38.921491,45.1162516 38.7452594,45.0145042 C33.105847,41.758588 31.2437407,34.8091125 34.4996569,29.1697002 C37.0433415,24.7639093 42.0270058,22.2367925 46.7453439,22.6111711 C48.4604392,22.8964553 50.2500186,23.4597185 51.8361033,24.3754449 C59.4140636,28.7505823 61.8175177,38.8323112 57.2388856,46.7627347 C52.2532638,55.3980848 41.1414083,56.736844 33.7396796,52.463454 C31.2724368,51.0389906 29.2121834,48.9096007 27.9113828,46.2787791 Z M52.9216647,64.0081292 C50.2781902,62.4819185 48.801158,59.7493495 48.9647368,57.0240856 C50.3546319,56.6516643 51.6700427,56.001264 53.0872009,55.1746321 C53.1071589,56.3610324 53.5813275,57.5746959 54.4352226,58.5376434 C54.8621701,59.0191172 55.4653493,59.6023384 55.9940442,59.9075805 C56.8752023,60.4163174 57.6818763,60.6470753 58.5902976,60.7016016 C59.4987189,60.7561278 60.08194,60.1529487 60.1364663,59.2445274 C60.1909926,58.3361061 59.5878134,57.7528849 58.6793921,57.6983586 C57.9472024,57.7455798 57.0660442,57.2368429 56.6390967,56.7553691 C56.2121492,56.2738953 55.9886964,55.4399582 55.9414753,54.7077686 C55.8942542,53.9755789 56.3012437,53.2706524 56.9589491,52.9454522 C57.9218967,52.0915572 59.2845287,52.1733466 60.3419185,52.7838309 C60.3419185,52.7838309 60.5181501,52.8855782 60.5181501,52.8855782 C63.4868248,55.0694944 64.5296043,58.9612006 62.7998988,61.9571384 C60.9684459,65.1293078 56.4462974,66.0430769 52.9216647,64.0081292 Z"/>
    <filter id="weiyun-c" width="119.4%" height="122.7%" x="-9.7%" y="-7.2%" filterUnits="objectBoundingBox">
      <feOffset dy="2" in="SourceAlpha" result="shadowOffsetOuter1"/>
      <feGaussianBlur in="shadowOffsetOuter1" result="shadowBlurOuter1" stdDeviation="1.5"/>
      <feColorMatrix in="shadowBlurOuter1" values="0 0 0 0 0   0 0 0 0 0.354459876   0 0 0 0 0.621037138  0 0 0 0.139832823 0"/>
    </filter>
  </defs>
  <g fill="none" filter="url(#weiyun-a)" transform="translate(9 9)">
    <rect width="78" height="78" fill="url(#weiyun-b)" rx="18"/>
    <g transform="rotate(-30 38.243 43.525)">
      <use fill="#000" filter="url(#weiyun-c)" xlink:href="#weiyun-d"/>
      <use fill="url(#weiyun-e)" xlink:href="#weiyun-d"/>
    </g>
  </g>
</svg>
