<svg xmlns="http://www.w3.org/2000/svg" xmlns:xlink="http://www.w3.org/1999/xlink" width="96" height="96" viewBox="0 0 96 96">
  <defs>
    <filter id="com.apps.mandelbulder2-a" width="127%" height="131.6%" x="-13.5%" y="-15.8%" filterUnits="objectBoundingBox">
      <feOffset dy="2" in="SourceAlpha" result="shadowOffsetOuter1"/>
      <feGaussianBlur in="shadowOffsetOuter1" result="shadowBlurOuter1" stdDeviation="2"/>
      <feColorMatrix in="shadowBlurOuter1" result="shadowMatrixOuter1" values="0 0 0 0 0   0 0 0 0 0   0 0 0 0 0  0 0 0 0.2 0"/>
      <feMerge>
        <feMergeNode in="shadowMatrixOuter1"/>
        <feMergeNode in="SourceGraphic"/>
      </feMerge>
    </filter>
    <linearGradient id="com.apps.mandelbulder2-b" x1="50%" x2="50%" y1="0%" y2="96.687%">
      <stop offset="0%" stop-color="#FFF6D4"/>
      <stop offset="100%" stop-color="#D3CBB0"/>
    </linearGradient>
    <path id="com.apps.mandelbulder2-d" d="M1.10377358,41.6549245 L1.10377358,37.0134151 L1.14150943,37.0134151 L3.12264151,41.6549245 L4.0754717,41.6549245 L6.05660377,37.0134151 L6.09433962,37.0134151 L6.09433962,41.6549245 L7.19811321,41.6549245 L7.19811321,34.9190755 L5.90566038,34.9190755 L3.62264151,40.2020943 L3.58490566,40.2020943 L1.29245283,34.9190755 L2.13162821e-14,34.9190755 L2.13162821e-14,41.6549245 L1.10377358,41.6549245 Z M8.89427192,41.6549245 L9.50747947,39.9662453 L12.3282342,39.9662453 L12.9414417,41.6549245 L14.120687,41.6549245 L11.5452153,34.9190755 L10.2904983,34.9190755 L7.71502664,41.6549245 L8.89427192,41.6549245 Z M11.9980455,39.0605849 L9.83766815,39.0605849 L10.9037059,36.1077547 L10.9414417,36.1077547 L11.9980455,39.0605849 Z M15.741374,41.6549245 L15.741374,36.7303962 L15.7791099,36.7303962 L19.1470344,41.6549245 L20.2225061,41.6549245 L20.2225061,34.9190755 L19.1092986,34.9190755 L19.1092986,39.777566 L19.0715627,39.777566 L15.741374,34.9190755 L14.6376004,34.9190755 L14.6376004,41.6549245 L15.741374,41.6549245 Z M23.862061,41.6549245 C24.9501114,41.6549245 25.7771554,41.3530377 26.3431931,40.7492642 C26.8840736,40.1706478 27.1545139,39.3498931 27.1545139,38.287 C27.1545139,37.2178176 26.8840736,36.3970629 26.3431931,35.8247358 C25.7771554,35.2209623 24.9501114,34.9190755 23.862061,34.9190755 L23.862061,34.9190755 L21.3997969,34.9190755 L21.3997969,41.6549245 L23.862061,41.6549245 Z M23.6545139,40.7115283 L22.5035705,40.7115283 L22.5035705,35.8624717 L23.6545139,35.8624717 C24.4972812,35.8624717 25.1104887,36.0542956 25.4941365,36.4379434 C25.871495,36.8153019 26.0601743,37.4316541 26.0601743,38.287 C26.0601743,39.1171887 25.871495,39.7303962 25.4941365,40.1266226 C25.1041994,40.5165597 24.4909919,40.7115283 23.6545139,40.7115283 L23.6545139,40.7115283 Z M33.0676537,41.6549245 L33.0676537,40.7115283 L29.1525594,40.7115283 L29.1525594,38.6737925 L32.6808613,38.6737925 L32.6808613,37.7303962 L29.1525594,37.7303962 L29.1525594,35.8624717 L32.9072764,35.8624717 L32.9072764,34.9190755 L28.0487858,34.9190755 L28.0487858,41.6549245 L33.0676537,41.6549245 Z M38.6977747,41.6549245 L38.6977747,40.7115283 L35.0562653,40.7115283 L35.0562653,34.9190755 L33.9619256,34.9190755 L33.9619256,41.6549245 L38.6977747,41.6549245 Z M42.497707,41.6549245 C43.2209774,41.6549245 43.7807259,41.5228491 44.1769523,41.2586981 C44.6423611,40.9379434 44.8750655,40.4379434 44.8750655,39.7586981 C44.8750655,39.3058679 44.7650026,38.9442327 44.5448768,38.6737925 C44.3184617,38.3970629 43.9851284,38.2178176 43.5448768,38.1360566 C43.8844994,38.0039811 44.1423611,37.8184465 44.3184617,37.5794528 C44.5008516,37.3090126 44.5920466,36.9882579 44.5920466,36.6171887 C44.5920466,36.1077547 44.415946,35.7020943 44.0637447,35.4002075 C43.6863862,35.0794528 43.161229,34.9190755 42.488273,34.9190755 L42.488273,34.9190755 L39.4033674,34.9190755 L39.4033674,41.6549245 L42.497707,41.6549245 Z M42.1958202,37.7492642 L40.507141,37.7492642 L40.507141,35.8247358 L42.2146881,35.8247358 C42.661229,35.8247358 42.988273,35.9002075 43.1958202,36.0511509 C43.3907888,36.195805 43.488273,36.4285094 43.488273,36.7492642 C43.488273,37.0951761 43.3907888,37.3498931 43.1958202,37.5134151 C42.988273,37.6706478 42.6549397,37.7492642 42.1958202,37.7492642 L42.1958202,37.7492642 Z M42.3373296,40.7492642 L40.507141,40.7492642 L40.507141,38.6549245 L42.3656315,38.6549245 C42.8561976,38.6549245 43.2146881,38.7398302 43.4411032,38.9096415 C43.661229,39.0794528 43.7712919,39.3561824 43.7712919,39.7398302 C43.7712919,40.1108994 43.6203485,40.3813396 43.3184617,40.5511509 C43.0857573,40.6832264 42.7587133,40.7492642 42.3373296,40.7492642 L42.3373296,40.7492642 Z M48.5712242,41.787 C49.4580166,41.787 50.1466959,41.5605849 50.6372619,41.1077547 C51.127828,40.6423459 51.373111,39.9725346 51.373111,39.0983208 L51.373111,39.0983208 L51.373111,34.9190755 L50.2693374,34.9190755 L50.2693374,39.1171887 C50.2693374,39.6895157 50.1341173,40.1203333 49.863677,40.4096415 C49.5869475,40.6863711 49.1561299,40.8247358 48.5712242,40.8247358 C47.9737399,40.8247358 47.5429223,40.6863711 47.2787714,40.4096415 C47.0083311,40.1329119 46.873111,39.7020943 46.873111,39.1171887 L46.873111,39.1171887 L46.873111,34.9190755 L45.7693374,34.9190755 L45.7693374,39.0983208 C45.7693374,39.9725346 46.0177651,40.6454906 46.5146204,41.1171887 C46.9926078,41.5637296 47.6781424,41.787 48.5712242,41.787 Z M57.2862508,41.6549245 L57.2862508,40.7115283 L53.6447414,40.7115283 L53.6447414,34.9190755 L52.5504018,34.9190755 L52.5504018,41.6549245 L57.2862508,41.6549245 Z M61.0861831,41.6549245 C61.8094536,41.6549245 62.369202,41.5228491 62.7654284,41.2586981 C63.2308372,40.9379434 63.4635416,40.4379434 63.4635416,39.7586981 C63.4635416,39.3058679 63.3534787,38.9442327 63.1333529,38.6737925 C62.9069378,38.3970629 62.5736045,38.2178176 62.1333529,38.1360566 C62.4729756,38.0039811 62.7308372,37.8184465 62.9069378,37.5794528 C63.0893278,37.3090126 63.1805228,36.9882579 63.1805228,36.6171887 C63.1805228,36.1077547 63.0044221,35.7020943 62.6522209,35.4002075 C62.2748624,35.0794528 61.7497051,34.9190755 61.0767492,34.9190755 L61.0767492,34.9190755 L57.9918435,34.9190755 L57.9918435,41.6549245 L61.0861831,41.6549245 Z M60.7842963,37.7492642 L59.0956171,37.7492642 L59.0956171,35.8247358 L60.8031643,35.8247358 C61.2497051,35.8247358 61.5767492,35.9002075 61.7842963,36.0511509 C61.9792649,36.195805 62.0767492,36.4285094 62.0767492,36.7492642 C62.0767492,37.0951761 61.9792649,37.3498931 61.7842963,37.5134151 C61.5767492,37.6706478 61.2434158,37.7492642 60.7842963,37.7492642 L60.7842963,37.7492642 Z M60.9258058,40.7492642 L59.0956171,40.7492642 L59.0956171,38.6549245 L60.9541077,38.6549245 C61.4446737,38.6549245 61.8031643,38.7398302 62.0295794,38.9096415 C62.2497051,39.0794528 62.359768,39.3561824 62.359768,39.7398302 C62.359768,40.1108994 62.2088246,40.3813396 61.9069378,40.5511509 C61.6742334,40.6832264 61.3471894,40.7492642 60.9258058,40.7492642 L60.9258058,40.7492642 Z M69.3766815,41.6549245 L69.3766815,40.7115283 L65.4615871,40.7115283 L65.4615871,38.6737925 L68.989889,38.6737925 L68.989889,37.7303962 L65.4615871,37.7303962 L65.4615871,35.8624717 L69.2163041,35.8624717 L69.2163041,34.9190755 L64.3578135,34.9190755 L64.3578135,41.6549245 L69.3766815,41.6549245 Z M71.374727,41.6549245 L71.374727,38.9096415 L73.12001,38.9096415 C73.5099471,38.9096415 73.7992553,38.9914025 73.9879345,39.1549245 C74.1766138,39.3121572 74.2898213,39.5763082 74.3275572,39.9473774 L74.3275572,39.9473774 L74.4124628,40.777566 C74.4501987,41.1612138 74.5476829,41.4536667 74.7049156,41.6549245 L74.7049156,41.6549245 L75.9030289,41.6549245 C75.6703245,41.4033522 75.5351043,41.0731635 75.4973685,40.6643585 L75.4973685,40.6643585 L75.3841609,39.5794528 C75.3086892,38.9253648 74.9785006,38.532283 74.3935949,38.4002075 L74.3935949,38.4002075 L74.3935949,38.3813396 C74.7583748,38.287 75.0445383,38.0888868 75.2520855,37.787 C75.4407647,37.5102704 75.5351043,37.1989497 75.5351043,36.8530377 C75.5351043,36.2178176 75.3244125,35.7272516 74.9030289,35.3813396 C74.5130917,35.0731635 73.9690666,34.9190755 73.2709534,34.9190755 L73.2709534,34.9190755 L70.2709534,34.9190755 L70.2709534,41.6549245 L71.374727,41.6549245 Z M73.12001,37.9662453 L71.374727,37.9662453 L71.374727,35.8624717 L73.12001,35.8624717 C73.5791295,35.8624717 73.9093182,35.9442327 74.110576,36.1077547 C74.3181232,36.2649874 74.4218968,36.5291384 74.4218968,36.9002075 C74.4218968,37.2398302 74.3181232,37.5039811 74.110576,37.6926604 C73.8778716,37.8750503 73.5476829,37.9662453 73.12001,37.9662453 L73.12001,37.9662453 Z M81.9651576,41.6549245 L83.7670444,36.777566 L82.5972331,36.777566 L81.4274218,40.3153019 L80.2576104,36.777566 L79.0877991,36.777566 L80.8896859,41.6549245 L81.9651576,41.6549245 Z M88.8499956,41.6549245 L88.8499956,40.6832264 L85.5292408,40.6832264 C85.6801842,40.3436038 86.0984232,39.9473774 86.7839578,39.4945472 C87.4694924,39.0354277 87.9349012,38.6737925 88.1801842,38.4096415 C88.6204358,37.9190755 88.8405616,37.3876289 88.8405616,36.8153019 C88.8405616,36.2178176 88.6330144,35.7303962 88.2179201,35.3530377 C87.7965364,34.9756792 87.2588006,34.787 86.6047125,34.787 C85.8814421,34.787 85.2965364,35.032283 84.8499956,35.5228491 C84.4223226,35.9819686 84.2021968,36.5888868 84.1896182,37.3436038 L84.1896182,37.3436038 L85.2933918,37.3436038 C85.3122597,36.8090126 85.4254673,36.4096415 85.6330144,36.1454906 C85.8405616,35.8624717 86.1518824,35.7209623 86.5669767,35.7209623 C86.9569138,35.7209623 87.2493666,35.8090126 87.4443352,35.9851132 C87.6393037,36.1675031 87.736788,36.4410881 87.736788,36.8058679 C87.736788,37.1832264 87.5889893,37.5385723 87.2933918,37.8719057 C87.0858446,38.0920314 86.7776685,38.3436038 86.3688635,38.6266226 C85.5827,39.1675031 85.0669767,39.5794528 84.8216937,39.8624717 C84.3751528,40.3656164 84.1518824,40.9631006 84.1518824,41.6549245 L84.1518824,41.6549245 L88.8499956,41.6549245 Z"/>
    <filter id="com.apps.mandelbulder2-c" width="101.1%" height="128.6%" x="-.6%" y="-7.1%" filterUnits="objectBoundingBox">
      <feOffset dy="1" in="SourceAlpha" result="shadowOffsetOuter1"/>
      <feColorMatrix in="shadowOffsetOuter1" values="0 0 0 0 1   0 0 0 0 1   0 0 0 0 1  0 0 0 0.5 0"/>
    </filter>
  </defs>
  <g fill="none" filter="url(#com.apps.mandelbulder2-a)" transform="translate(3.729 10)">
    <path fill="url(#com.apps.mandelbulder2-b)" d="M44.2710655,76 C65.2579226,76 82.2710655,60.4890007 82.2710655,38.9676978 C82.2710655,17.446395 65.2579226,0 44.2710655,0 C23.2842083,0 6.27106549,17.446395 6.27106549,38.9676978 C6.27106549,60.4890007 23.2842083,76 44.2710655,76 Z"/>
    <use fill="#000" filter="url(#com.apps.mandelbulder2-c)" xlink:href="#com.apps.mandelbulder2-d"/>
    <use fill="#000" xlink:href="#com.apps.mandelbulder2-d"/>
  </g>
</svg>
