<svg xmlns="http://www.w3.org/2000/svg" width="96" height="96" viewBox="0 0 96 96">
  <defs>
    <filter id="com.apps.padloc-a" width="128.6%" height="128.6%" x="-14.3%" y="-14.3%" filterUnits="objectBoundingBox">
      <feOffset dy="2" in="SourceAlpha" result="shadowOffsetOuter1"/>
      <feGaussianBlur in="shadowOffsetOuter1" result="shadowBlurOuter1" stdDeviation="2"/>
      <feColorMatrix in="shadowBlurOuter1" result="shadowMatrixOuter1" values="0 0 0 0 0   0 0 0 0 0   0 0 0 0 0  0 0 0 0.2 0"/>
      <feMerge>
        <feMergeNode in="shadowMatrixOuter1"/>
        <feMergeNode in="SourceGraphic"/>
      </feMerge>
    </filter>
    <linearGradient id="com.apps.padloc-b" x1="50%" x2="50%" y1="0%" y2="100%">
      <stop offset="0%" stop-color="#9FCEFF"/>
      <stop offset="100%" stop-color="#3779D7"/>
    </linearGradient>
    <filter id="com.apps.padloc-d" width="140%" height="138.7%" x="-20%" y="-19.4%" filterUnits="objectBoundingBox">
      <feOffset dy="2" in="SourceAlpha" result="shadowOffsetOuter1"/>
      <feGaussianBlur in="shadowOffsetOuter1" result="shadowBlurOuter1" stdDeviation="2"/>
      <feColorMatrix in="shadowBlurOuter1" result="shadowMatrixOuter1" values="0 0 0 0 0   0 0 0 0 0   0 0 0 0 0  0 0 0 0.2 0"/>
      <feMerge>
        <feMergeNode in="shadowMatrixOuter1"/>
        <feMergeNode in="SourceGraphic"/>
      </feMerge>
    </filter>
    <linearGradient id="com.apps.padloc-c" x1="50%" x2="50%" y1="27.529%" y2="100%">
      <stop offset="0%" stop-color="#FFF"/>
      <stop offset="100%" stop-color="#FFF" stop-opacity=".71"/>
    </linearGradient>
  </defs>
  <g fill="none" filter="url(#com.apps.padloc-a)" transform="translate(6 6)">
    <circle cx="42" cy="42" r="42" fill="url(#com.apps.padloc-b)"/>
    <g fill="url(#com.apps.padloc-c)" filter="url(#com.apps.padloc-d)" transform="translate(11.999 12)">
      <path d="M30.0009855,0 C43.2558194,-2.4348735e-15 54.0009855,10.745166 54.0009855,24 L54.0013983,29.8322677 C57.5329873,31.3754752 60.0009855,34.8995217 60.0009855,39 L60.0012245,41.1598196 C55.4720982,53.3302597 43.749005,62 30.0009855,62 C16.2510777,62 4.52665263,53.3278781 -0.0011193124,41.1548049 L0.000985453211,39 C0.000985453211,34.8991333 2.46945114,31.3748076 6.00157625,29.8318293 L6.00098545,24 C6.00098545,10.745166 16.7461515,2.4348735e-15 30.0009855,0 Z M30.0009855,10 C22.3734853,10 16.1706586,16.0997524 16.0044075,23.687355 L16.0009855,24 L16.0009855,29 L44.0009855,29 L44.0009855,24 C44.0009855,16.2680135 37.732972,10 30.0009855,10 Z"/>
    </g>
  </g>
</svg>
