<svg xmlns="http://www.w3.org/2000/svg" xmlns:xlink="http://www.w3.org/1999/xlink" width="96" height="96" viewBox="0 0 96 96">
  <defs>
    <filter id="com.apps.cdcat-a" width="130.8%" height="136.2%" x="-15.4%" y="-17.4%" filterUnits="objectBoundingBox">
      <feOffset dy="2" in="SourceAlpha" result="shadowOffsetOuter1"/>
      <feGaussianBlur in="shadowOffsetOuter1" result="shadowBlurOuter1" stdDeviation="2"/>
      <feColorMatrix in="shadowBlurOuter1" result="shadowMatrixOuter1" values="0 0 0 0 0   0 0 0 0 0   0 0 0 0 0  0 0 0 0.2 0"/>
      <feMerge>
        <feMergeNode in="shadowMatrixOuter1"/>
        <feMergeNode in="SourceGraphic"/>
      </feMerge>
    </filter>
    <radialGradient id="com.apps.cdcat-b" cx="50%" cy="1.186%" r="98.814%" fx="50%" fy="1.186%" gradientTransform="matrix(0 1 -.88646 0 .51 -.488)">
      <stop offset="0%" stop-color="#FFE4FA"/>
      <stop offset="100%" stop-color="#AB0000"/>
    </radialGradient>
    <linearGradient id="com.apps.cdcat-e" x1="91.924%" x2="19.134%" y1="0%" y2="95.642%">
      <stop offset="0%" stop-color="#D9E0F6"/>
      <stop offset="100%" stop-color="#FBFDFF"/>
    </linearGradient>
    <path id="com.apps.cdcat-d" d="M52.2002915,29.7403146 C62.5621313,26.8109106 73.3381768,32.8364336 76.2713506,43.2004499 C79.2007546,53.5622897 73.1730551,64.3421051 62.8112153,67.2715091 C52.4493756,70.2009131 41.6695602,64.1732136 38.7401562,53.8113738 C35.8107522,43.449534 41.8384517,32.6697186 52.2002915,29.7403146 Z M59.5370034,44.9876836 C57.5946483,43.8662644 55.1089445,44.5323067 53.9875252,46.4746619 C52.8661059,48.417017 53.5321483,50.9027208 55.4745034,52.0241401 C57.4168586,53.1455593 59.9025623,52.479517 61.0239816,50.5371619 C62.1454009,48.5948067 61.4793586,46.1091029 59.5370034,44.9876836 Z"/>
    <filter id="com.apps.cdcat-c" width="138.5%" height="138.5%" x="-26.9%" y="-24.4%" filterUnits="objectBoundingBox">
      <feOffset dx="-3" dy="-2" in="SourceAlpha" result="shadowOffsetOuter1"/>
      <feGaussianBlur in="shadowOffsetOuter1" result="shadowBlurOuter1" stdDeviation="2"/>
      <feColorMatrix in="shadowBlurOuter1" values="0 0 0 0 0   0 0 0 0 0   0 0 0 0 0  0 0 0 0.0899530157 0"/>
    </filter>
    <linearGradient id="com.apps.cdcat-f" x1="50%" x2="50%" y1="0%" y2="100%">
      <stop offset="0%" stop-color="#C0D3FF" stop-opacity=".456"/>
      <stop offset="100%" stop-color="#8B98BB" stop-opacity=".295"/>
    </linearGradient>
    <linearGradient id="com.apps.cdcat-g" x1="91.924%" x2="19.134%" y1="0%" y2="95.642%">
      <stop offset="0%" stop-color="#D9E0F6" stop-opacity=".538"/>
      <stop offset="100%" stop-color="#FBFDFF" stop-opacity=".414"/>
    </linearGradient>
  </defs>
  <g fill="none" filter="url(#com.apps.cdcat-a)" transform="translate(8 14)">
    <path fill="url(#com.apps.cdcat-b)" d="M50.8620013,0.976311321 C43.3944334,2.62917252 37.5101246,8.35131359 35.6912573,15.7289595 C31.0288804,9.72894457 23.3258924,6.89487259 15.8316505,8.42224223 C4.99630844,10.7253653 -1.89784573,21.6560386 0.468011462,32.7865215 C4.15324566,50.1241853 26.2344735,61.9657965 45.6185591,67.2720426 C46.3030592,67.4580074 47.0369932,67.3020049 47.5866765,66.8537063 C63.1634158,54.1163075 78.4924633,34.3228968 74.8072291,16.985233 C72.4413719,5.85475 61.6973433,-1.32681173 50.8620013,0.976311321 Z"/>
    <use fill="#000" filter="url(#com.apps.cdcat-c)" xlink:href="#com.apps.cdcat-d"/>
    <use fill="url(#com.apps.cdcat-e)" xlink:href="#com.apps.cdcat-d"/>
    <path fill="url(#com.apps.cdcat-f)" d="M75.595121,47.7409313 C75.7435437,51.1490765 74.9107962,54.4632248 73.3046559,57.3409074 L66.2572583,53.3977506 C67.1357092,51.8239931 67.5973053,50.0145907 67.5278585,48.1499108 L75.595121,47.7409313 Z M47.8521066,51.2359963 C48.0530194,51.9501355 48.3286308,52.6219531 48.6654547,53.2486892 L41.5585709,57.0872469 C40.9502905,55.9469106 40.4481896,54.7271377 40.0792401,53.4334476 L47.8521066,51.2359963 Z M65.2845661,46.3068672 C66.4975829,50.5960555 63.9961629,55.067938 59.7069746,56.2809548 C55.4177862,57.4939716 50.942134,54.990375 49.732887,50.7033632 C48.5198702,46.4141749 51.0212903,41.9422924 55.3104786,40.7292756 C59.5996669,39.5162588 64.0715493,42.0176789 65.2845661,46.3068672 Z M59.5370034,44.9876836 C57.5946483,43.8662644 55.1089445,44.5323067 53.9875252,46.4746619 C52.8661059,48.417017 53.5321483,50.9027208 55.4745034,52.0241401 C57.4168586,53.1455593 59.9025623,52.479517 61.0239816,50.5371619 C62.1454009,48.5948067 61.4793586,46.1091029 59.5370034,44.9876836 Z M41.7030812,39.6687398 L48.7542485,43.6140731 C47.8257382,45.2745361 47.3668599,47.2011149 47.496311,49.170808 L39.4290485,49.5797875 C39.2168517,46.0644526 40.0447049,42.6368977 41.7030812,39.6687398 Z M73.419164,39.8698937 C74.0441169,41.0248824 74.556944,42.2609008 74.9284969,43.5761996 L67.1556305,45.7736509 C66.9499377,45.0416728 66.6598303,44.3514332 66.3122802,43.7084514 L73.419164,39.8698937 Z"/>
    <path fill="url(#com.apps.cdcat-g)" d="M51.8708349,45.25 C53.6629898,42.1458966 57.6458966,41.0786799 60.75,42.8708349 C63.8541034,44.6629898 64.9213201,48.6458966 63.1291651,51.75 C61.3370102,54.8541034 57.3541034,55.9213201 54.25,54.1291651 C51.1458966,52.3370102 50.0786799,48.3541034 51.8708349,45.25 Z M59.53125,44.9817718 C57.5888948,43.8603525 55.1031911,44.5263948 53.9817718,46.46875 C52.8603525,48.4111052 53.5263948,50.8968089 55.46875,52.0182282 C57.4111052,53.1396475 59.8968089,52.4736052 61.0182282,50.53125 C62.1396475,48.5888948 61.4736052,46.1031911 59.53125,44.9817718 Z"/>
  </g>
</svg>
