<svg xmlns="http://www.w3.org/2000/svg" width="96" height="96" viewBox="0 0 96 96">
  <defs>
    <filter id="com.apps.joe-a" width="130.4%" height="128.3%" x="-15.2%" y="-14.2%" filterUnits="objectBoundingBox">
      <feOffset dy="2" in="SourceAlpha" result="shadowOffsetOuter1"/>
      <feGaussianBlur in="shadowOffsetOuter1" result="shadowBlurOuter1" stdDeviation="2"/>
      <feColorMatrix in="shadowBlurOuter1" result="shadowMatrixOuter1" values="0 0 0 0 0   0 0 0 0 0   0 0 0 0 0  0 0 0 0.2 0"/>
      <feMerge>
        <feMergeNode in="shadowMatrixOuter1"/>
        <feMergeNode in="SourceGraphic"/>
      </feMerge>
    </filter>
    <linearGradient id="com.apps.joe-b" x1="50%" x2="50%" y1="0%" y2="100%">
      <stop offset="0%" stop-color="#ECECEC"/>
      <stop offset="100%" stop-color="#E1E1E1"/>
    </linearGradient>
    <linearGradient id="com.apps.joe-c" x1="44.141%" x2="55.239%" y1="43.196%" y2="52.972%">
      <stop offset="0%" stop-color="#FFE6BC"/>
      <stop offset="55.234%" stop-color="#E2A122"/>
      <stop offset="100%" stop-color="#DC9200"/>
    </linearGradient>
    <linearGradient id="com.apps.joe-d" x1="50%" x2="50%" y1="0%" y2="100%">
      <stop offset="0%" stop-color="#A1A1A1"/>
      <stop offset="100%" stop-color="#D8D8D8"/>
    </linearGradient>
  </defs>
  <g fill="none" fill-rule="evenodd" filter="url(#com.apps.joe-a)" transform="translate(8 3.205)">
    <path fill="url(#com.apps.joe-b)" d="M4,3.79492188 L75,3.79492188 C77.209139,3.79492187 79,5.58578288 79,7.79492188 L79,80.7949219 C79,83.0040609 77.209139,84.7949219 75,84.7949219 L4,84.7949219 C1.790861,84.7949219 2.705415e-16,83.0040609 0,80.7949219 L0,7.79492188 C-2.705415e-16,5.58578288 1.790861,3.79492188 4,3.79492188 Z"/>
    <path fill="#008575" d="M9,2.79492188 C10.1045695,2.79492188 11,3.69035238 11,4.79492188 L11.0011995,11.7954569 C12.2149639,12.7077184 13,14.1596427 13,15.7949219 C13,18.5563456 10.7614237,20.7949219 8,20.7949219 C5.23857625,20.7949219 3,18.5563456 3,15.7949219 C3,13.7444244 4.23431003,11.9822155 6.00046106,11.2107641 L6,4.79492188 C6,3.69035238 6.8954305,2.79492188 8,2.79492188 L9,2.79492188 Z M24,2.79492188 C25.1045695,2.79492188 26,3.69035238 26,4.79492188 L26.0011995,11.7954569 C27.2149639,12.7077184 28,14.1596427 28,15.7949219 C28,18.5563456 25.7614237,20.7949219 23,20.7949219 C20.2385763,20.7949219 18,18.5563456 18,15.7949219 C18,13.7444244 19.23431,11.9822155 21.0004611,11.2107641 L21,4.79492188 C21,3.69035238 21.8954305,2.79492188 23,2.79492188 L24,2.79492188 Z M39,2.79492188 C40.1045695,2.79492188 41,3.69035238 41,4.79492188 L41.0011995,11.7954569 C42.2149639,12.7077184 43,14.1596427 43,15.7949219 C43,18.5563456 40.7614237,20.7949219 38,20.7949219 C35.2385763,20.7949219 33,18.5563456 33,15.7949219 C33,13.7444244 34.23431,11.9822155 36.0004611,11.2107641 L36,4.79492188 C36,3.69035238 36.8954305,2.79492188 38,2.79492188 L39,2.79492188 Z M54,2.79492188 C55.1045695,2.79492188 56,3.69035238 56,4.79492188 L56.0011995,11.7954569 C57.2149639,12.7077184 58,14.1596427 58,15.7949219 C58,18.5563456 55.7614237,20.7949219 53,20.7949219 C50.2385763,20.7949219 48,18.5563456 48,15.7949219 C48,13.7444244 49.23431,11.9822155 51.0004611,11.2107641 L51,4.79492188 C51,3.69035238 51.8954305,2.79492188 53,2.79492188 L54,2.79492188 Z M69,2.79492188 C70.1045695,2.79492188 71,3.69035238 71,4.79492188 L71.0005324,11.2111982 C72.7661528,11.9828764 74,13.7448089 74,15.7949219 C74,18.5563456 71.7614237,20.7949219 69,20.7949219 C66.2385763,20.7949219 64,18.5563456 64,15.7949219 C64,14.1591913 64.7854695,12.706917 65.9998057,11.7947017 L66,4.79492188 C66,3.69035238 66.8954305,2.79492188 68,2.79492188 L69,2.79492188 Z"/>
    <rect width="64" height="2" x="5" y="28.795" fill="#B5B5B5"/>
    <rect width="64" height="2" x="5" y="39.795" fill="#B5B5B5"/>
    <path fill="#B5B5B5" d="M6,49.7949219 L57,49.7949219 C57.5522847,49.7949219 58,50.2426371 58,50.7949219 C58,51.3472066 57.5522847,51.7949219 57,51.7949219 L6,51.7949219 C5.44771525,51.7949219 5,51.3472066 5,50.7949219 C5,50.2426371 5.44771525,49.7949219 6,49.7949219 Z"/>
    <rect width="64" height="2" x="5" y="63.795" fill="#B5B5B5"/>
    <path fill="#B5B5B5" d="M6,74.7949219 L17,74.7949219 C17.5522847,74.7949219 18,75.2426371 18,75.7949219 C18,76.3472066 17.5522847,76.7949219 17,76.7949219 L6,76.7949219 C5.44771525,76.7949219 5,76.3472066 5,75.7949219 C5,75.2426371 5.44771525,74.7949219 6,74.7949219 Z"/>
    <g transform="translate(20.36)">
      <path fill="url(#com.apps.joe-c)" d="M1.95399252e-13,76.4089355 L4.47583008,73.4628906 L15.2563477,65.4975586 L49.3688849,11.9327193 C51.1888357,9.07496148 50.3972625,5.2872047 47.5851691,3.39746094 C44.7973379,1.52402155 41.0186315,2.26528256 39.1451921,5.05311374 C39.1434272,5.05574006 39.1416644,5.05836776 39.1399036,5.06099683 L3.65185547,58.048584 L3.65185547,58.048584 L1.20092773,71.3422852 L1.95399252e-13,76.4089355 Z"/>
      <path fill="url(#com.apps.joe-d)" d="M39.1451921,5.05311374 C41.0186315,2.26528256 44.7973379,1.52402155 47.5851691,3.39746094 C50.3972625,5.2872047 51.1888357,9.07496148 49.3688849,11.9327193 L49.3688849,11.9327193 L47.384,15.0469399 L37.339,7.74793988 L39.1399036,5.06099683 L39.1399036,5.06099683 Z"/>
      <path fill="#4A4A4A" d="M8.087,70.7939399 L4.47583008,73.4628906 L2.22044605e-13,76.4089355 L1.20092773,71.3422852 L1.301,70.7939399 L8.087,70.7939399 Z"/>
      <path fill="#C7A063" d="M3.65185547,58.048584 L6.75610352,60.4311523 L11.1047363,60.4311523 L13.6408691,62.5844105 L14.9758691,65.703584 L4.47583008,73.4628906 L4.44866383,73.4813734 C4.04248074,73.4035975 3.60654918,73.3201254 3.14086914,73.230957 L3.14086914,73.230957 L0.916869141,72.539584 L1.20092773,71.3422852 L3.65185547,58.048584 Z"/>
    </g>
  </g>
</svg>
