<svg xmlns="http://www.w3.org/2000/svg" width="96" height="96" viewBox="0 0 96 96">
  <defs>
    <filter id="com.apps.almanah-a" width="129.3%" height="130.8%" x="-14.6%" y="-15.4%" filterUnits="objectBoundingBox">
      <feOffset dy="2" in="SourceAlpha" result="shadowOffsetOuter1"/>
      <feGaussianBlur in="shadowOffsetOuter1" result="shadowBlurOuter1" stdDeviation="2"/>
      <feColorMatrix in="shadowBlurOuter1" result="shadowMatrixOuter1" values="0 0 0 0 0   0 0 0 0 0   0 0 0 0 0  0 0 0 0.2 0"/>
      <feMerge>
        <feMergeNode in="shadowMatrixOuter1"/>
        <feMergeNode in="SourceGraphic"/>
      </feMerge>
    </filter>
    <linearGradient id="com.apps.almanah-b" x1="50%" x2="50%" y1=".475%" y2="99.519%">
      <stop offset="0%" stop-color="#FF8D94"/>
      <stop offset="100%" stop-color="#B90000"/>
    </linearGradient>
    <linearGradient id="com.apps.almanah-c" x1="50%" x2="50%" y1="0%" y2="100%">
      <stop offset="0%" stop-color="#8E0000"/>
      <stop offset="100%" stop-color="#BD0000"/>
    </linearGradient>
    <linearGradient id="com.apps.almanah-d" x1="50%" x2="50%" y1="0%" y2="97.962%">
      <stop offset="0%"/>
      <stop offset="100%" stop-opacity=".589"/>
    </linearGradient>
    <linearGradient id="com.apps.almanah-e" x1="50%" x2="50%" y1="0%" y2="100%">
      <stop offset="0%" stop-color="#E6E6E6"/>
      <stop offset="100%" stop-color="#D1D1D1"/>
    </linearGradient>
    <linearGradient id="com.apps.almanah-f" x1="50%" x2="50%" y1="5.833%" y2="97.998%">
      <stop offset="0%" stop-opacity=".647"/>
      <stop offset="100%" stop-opacity=".796"/>
    </linearGradient>
    <linearGradient id="com.apps.almanah-g" x1="50%" x2="50%" y1="0%" y2="100%">
      <stop offset="0%" stop-color="#E6E6E6"/>
      <stop offset="100%" stop-color="#D1D1D1"/>
    </linearGradient>
    <linearGradient id="com.apps.almanah-h" x1="50%" x2="50%" y1="0%" y2="97.998%">
      <stop offset="0%" stop-opacity=".513"/>
      <stop offset="100%" stop-opacity=".648"/>
    </linearGradient>
    <filter id="com.apps.almanah-i" width="220%" height="185.7%" x="-60%" y="-42.9%" filterUnits="objectBoundingBox">
      <feOffset dy="2" in="SourceAlpha" result="shadowOffsetOuter1"/>
      <feGaussianBlur in="shadowOffsetOuter1" result="shadowBlurOuter1" stdDeviation="2"/>
      <feColorMatrix in="shadowBlurOuter1" result="shadowMatrixOuter1" values="0 0 0 0 0   0 0 0 0 0   0 0 0 0 0  0 0 0 0.210637019 0"/>
      <feMerge>
        <feMergeNode in="shadowMatrixOuter1"/>
        <feMergeNode in="SourceGraphic"/>
      </feMerge>
    </filter>
    <linearGradient id="com.apps.almanah-j" x1="50%" x2="50%" y1="0%" y2="100%">
      <stop offset="0%" stop-color="#9A7E00"/>
      <stop offset="100%" stop-color="#DCC700"/>
    </linearGradient>
    <linearGradient id="com.apps.almanah-k" x1="50%" x2="50%" y1="0%" y2="100%">
      <stop offset="0%" stop-color="#FFFFFB"/>
      <stop offset="100%" stop-color="#FDF190"/>
    </linearGradient>
    <linearGradient id="com.apps.almanah-l" x1="50%" x2="50%" y1="0%" y2="100%">
      <stop offset="0%" stop-color="#EFD920"/>
      <stop offset="100%" stop-color="#BEAA00"/>
    </linearGradient>
    <linearGradient id="com.apps.almanah-m" x1="50%" x2="50%" y1="1.765%" y2="100%">
      <stop offset="0%" stop-color="#494100"/>
      <stop offset="100%" stop-color="#BFB330"/>
    </linearGradient>
    <linearGradient id="com.apps.almanah-n" x1="50%" x2="50%" y1="0%" y2="100%">
      <stop offset="0%" stop-color="#C4C4C3"/>
      <stop offset="28.345%" stop-color="#BDBDBD"/>
      <stop offset="100%" stop-color="#EDEDED"/>
    </linearGradient>
    <linearGradient id="com.apps.almanah-o" x1="50%" x2="50%" y1="0%" y2="100%">
      <stop offset="0%" stop-color="#8E0000"/>
      <stop offset="100%" stop-color="#BD0000"/>
    </linearGradient>
  </defs>
  <g fill="none" fill-rule="evenodd" filter="url(#com.apps.almanah-a)" transform="translate(7 9)">
    <rect width="3" height="3" x="42.5" y="42.5" fill="#D8D8D8" stroke="#979797"/>
    <path fill="url(#com.apps.almanah-b)" d="M9.68023344,0 L72.3197666,0 C75.5059268,0 78.1364568,2.49033744 78.3107795,5.67172532 L81.6532452,66.6717253 C81.8345463,69.9804704 79.2992521,72.8097118 75.990507,72.9910129 C75.8811846,72.9970032 75.7717187,73 75.6622323,73 L6.33776769,73 C3.02405919,73 0.337767691,70.3137085 0.337767691,67 C0.337767691,66.8905136 0.340764508,66.7810477 0.346754777,66.6717253 L3.68922053,5.67172532 C3.86354315,2.49033744 6.49407318,0 9.68023344,0 Z"/>
    <path fill="url(#com.apps.almanah-c)" fill-rule="nonzero" d="M72.3197666,0 C75.5059268,0 78.1364568,2.49033744 78.3107795,5.67172532 L81.6532452,66.6717253 C81.8345463,69.9804704 79.2992521,72.8097118 75.990507,72.9910129 C75.8811846,72.9970032 75.7717187,73 75.6622323,73 L6.33776769,73 C3.02405919,73 0.337767691,70.3137085 0.337767691,67 C0.337767691,66.8905136 0.340764508,66.7810477 0.346754777,66.6717253 L3.68922053,5.67172532 C3.86354315,2.49033744 6.49407318,0 9.68023344,0 L72.3197666,0 Z M72.3197666,1 L9.68023344,1 C7.0988536,1 4.95513261,2.9615891 4.70453253,5.50687324 L4.68772268,5.72643777 L1.34525693,66.7264378 C1.34026504,66.8175398 1.33776769,66.9087613 1.33776769,67 C1.33776769,69.6887547 3.4600744,71.8818181 6.12087807,71.9953805 L6.33776769,72 L75.6622323,72 C75.753471,72 75.8446925,71.9975027 75.9357945,71.9925108 C78.6205219,71.8454024 80.6941838,69.6062867 80.6623667,66.9432553 L80.6547431,66.7264378 L77.3122773,5.72643777 C77.1710437,3.14892444 75.0951046,1.11573775 72.5399219,1.00477175 L72.3197666,1 Z"/>
    <path fill="url(#com.apps.almanah-d)" d="M34,37 L76,37 C77.1045695,37 78,37.8954305 78,39 L78,40 C78,41.1045695 77.1045695,42 76,42 L34,42 C32.8954305,42 32,41.1045695 32,40 L32,39 C32,37.8954305 32.8954305,37 34,37 Z"/>
    <path fill="url(#com.apps.almanah-e)" stroke="url(#com.apps.almanah-f)" d="M77,26.5 C77.4142136,26.5 77.7892136,26.6678932 78.0606602,26.9393398 C78.3321068,27.2107864 78.5,27.5857864 78.5,28 L78.5,28 L78.5,38 C78.5,38.4142136 78.3321068,38.7892136 78.0606602,39.0606602 C77.7892136,39.3321068 77.4142136,39.5 77,39.5 L77,39.5 L33,39.5 C32.5857864,39.5 32.2107864,39.3321068 31.9393398,39.0606602 C31.6678932,38.7892136 31.5,38.4142136 31.5,38 L31.5,38 L31.5,28 C31.5,27.5857864 31.6678932,27.2107864 31.9393398,26.9393398 C32.2107864,26.6678932 32.5857864,26.5 33,26.5 L33,26.5 L77,26.5 Z"/>
    <path fill="url(#com.apps.almanah-g)" stroke="url(#com.apps.almanah-h)" d="M54,30.5 C54.4142136,30.5 54.7892136,30.6678932 55.0606602,30.9393398 C55.3321068,31.2107864 55.5,31.5857864 55.5,32 L55.5,32 L55.5,33 C55.5,33.4142136 55.3321068,33.7892136 55.0606602,34.0606602 C54.7892136,34.3321068 54.4142136,34.5 54,34.5 L54,34.5 L41,34.5 C40.5857864,34.5 40.2107864,34.3321068 39.9393398,34.0606602 C39.6678932,33.7892136 39.5,33.4142136 39.5,33 L39.5,33 L39.5,32 C39.5,31.5857864 39.6678932,31.2107864 39.9393398,30.9393398 C40.2107864,30.6678932 40.5857864,30.5 41,30.5 L41,30.5 L54,30.5 Z"/>
    <g filter="url(#com.apps.almanah-i)" transform="translate(34 27)">
      <path fill="url(#com.apps.almanah-j)" d="M2,28 L18,28 C19.1045695,28 20,27.1045695 20,26 L20,23 L0,23 L0,26 C0,27.1045695 0.8954305,28 2,28 Z"/>
      <path fill="url(#com.apps.almanah-k)" stroke="url(#com.apps.almanah-l)" d="M5.77837031,1.97686751 C7.66638792,0.346296202 10.7972902,0.0914797807 15.1097455,1.06173764 C15.4926686,1.84057779 15.4373199,2.1181469 15.3188702,2.30340157 C11.8833572,2.49137342 9.90615689,3.1053859 8.97337319,4.18410485 C8.11022952,5.18228851 7.53201075,6.94207643 7.30498939,9.50015619 L7.30498939,9.50015619 L17.1380551,9.5 C17.5314887,9.5 17.8914852,9.65200886 18.1601464,9.90212507 C18.4288077,10.1522413 18.6061337,10.5004648 18.6342264,10.8928942 L18.6342264,10.8928942 L19.4932657,22.8928942 C19.5228421,23.3060505 19.3821539,23.6920815 19.1307825,23.9822176 C18.8827614,24.2684867 18.5269879,24.4614 18.1206928,24.494901 L18.1206928,24.494901 L2.03489176,24.5 C1.62067819,24.5 1.24567819,24.3321068 0.974231585,24.0606602 C0.706281965,23.7927106 0.539234809,23.4238585 0.534975213,23.015989 L0.534975213,23.015989 L1.36982311,10.8963304 C1.39028113,10.6010302 1.49516656,10.3305404 1.66011538,10.1079626 C1.82972321,9.87909814 2.06255761,9.70069003 2.33203887,9.59791256 C3.04917913,5.86505878 4.07383236,3.44897809 5.77837031,1.97686751 Z"/>
      <polygon fill="#FFF291" points="4 12 16 12 17 23 3 23"/>
      <rect width="4" height="4" x="8" y="14" fill="url(#com.apps.almanah-m)"/>
    </g>
    <path fill="url(#com.apps.almanah-n)" d="M0,70 C0,67.8578046 1.68396847,66.1089211 3.80035966,66.0048953 L4,66 L78.5,66 C80.4329966,66 82,67.5670034 82,69.5 C82,70.4799843 81.5972403,71.3658991 80.9482196,72.0012456 C81.5972403,72.6341009 82,73.5200157 82,74.5 C82,76.3685634 80.5357224,77.8951264 78.6920352,77.9948211 L78.5,78 L4,78 C1.85780461,78 0.108921124,76.3160315 0.00489530723,74.1996403 L0,74 L0,70 Z"/>
    <path fill="url(#com.apps.almanah-o)" fill-rule="nonzero" d="M78.5,66 C80.4329966,66 82,67.5670034 82,69.5 C82,70.4799843 81.5972403,71.3658991 80.9482196,72.0012456 C81.5972403,72.6341009 82,73.5200157 82,74.5 C82,76.3685634 80.5357224,77.8951264 78.6920352,77.9948211 L78.5,78 L4,78 C1.85780461,78 0.108921124,76.3160315 0.00489530723,74.1996403 L0,74 L0,70 C0,67.8578046 1.68396847,66.1089211 3.80035966,66.0048953 L4,66 L78.5,66 Z M4.02451326,66.9996995 L3.84945284,67.0036895 C2.31652849,67.0790365 1.09361191,68.3031807 1.00512828,69.8233327 L0.999699505,70 L0.999699505,73.9754867 L1.00368951,74.1505472 C1.0790365,75.6834715 2.30318067,76.9063881 3.82333272,76.9948717 L4,77 L78.4730415,77.0003634 L78.6380405,76.9962799 C79.9589816,76.924852 81,75.8294857 81,74.5 C81,73.8177719 80.7268069,73.1820602 80.2500855,72.7172126 C79.8481495,72.3252878 79.8475153,71.6793643 80.2486808,71.286651 C80.7267181,70.8186855 81,70.1822989 81,69.5 C81,68.1745166 79.9684641,67.0899613 78.6643757,67.0053177 L78.5,67 L4.02451326,66.9996995 Z"/>
  </g>
</svg>
