<svg xmlns="http://www.w3.org/2000/svg" width="96" height="96" viewBox="0 0 96 96">
  <defs>
    <filter id="com.apps.tunepack-a" width="128.6%" height="128.6%" x="-14.3%" y="-14.3%" filterUnits="objectBoundingBox">
      <feOffset dy="2" in="SourceAlpha" result="shadowOffsetOuter1"/>
      <feGaussianBlur in="shadowOffsetOuter1" result="shadowBlurOuter1" stdDeviation="2"/>
      <feColorMatrix in="shadowBlurOuter1" result="shadowMatrixOuter1" values="0 0 0 0 0   0 0 0 0 0   0 0 0 0 0  0 0 0 0.2 0"/>
      <feMerge>
        <feMergeNode in="shadowMatrixOuter1"/>
        <feMergeNode in="SourceGraphic"/>
      </feMerge>
    </filter>
    <linearGradient id="com.apps.tunepack-b" x1="50%" x2="50%" y1="0%" y2="98.525%">
      <stop offset="0%" stop-color="#505050"/>
      <stop offset="100%" stop-color="#212121"/>
    </linearGradient>
  </defs>
  <g fill="none" fill-rule="evenodd" filter="url(#com.apps.tunepack-a)" transform="translate(6 6)">
    <circle cx="42" cy="42" r="42" fill="url(#com.apps.tunepack-b)"/>
    <path fill="#FEFEFE" fill-rule="nonzero" d="M59,15 C59.3284271,15 60,15.6715729 60,17 C60,17.2796961 59.4051119,17.9204487 59,18 L59,18 L54,18 C49.4390827,18 46.1319825,21.2274744 46,25 L46,26 L46,57 C46,57.3284271 45.3284271,58 45,58 C43.7203039,58 43.0795513,57.4051119 43,57 L43,57 L43,26 C43,19.7960755 47.548142,15.1544266 53,15 L54,15 L59,15 Z"/>
    <path fill="#FFF" fill-rule="nonzero" d="M35,45 C28.1487254,45 23,50.1487254 23,57 C23,62.8512746 28.1487254,68 35,68 C40.8512746,68 46,62.8512746 46,57 C46,50.1487254 40.8512746,45 35,45 Z M35,48 C39.1944204,48 43,51.8055796 43,57 C43,61.1944204 39.1944204,65 35,65 C29.8055796,65 26,61.1944204 26,57 C26,51.8055796 29.8055796,48 35,48 Z"/>
  </g>
</svg>
