<svg xmlns="http://www.w3.org/2000/svg" width="96" height="96" viewBox="0 0 96 96">
  <defs>
    <filter id="com.apps.darkradiant-a" width="127.9%" height="142.9%" x="-14%" y="-21.4%" filterUnits="objectBoundingBox">
      <feOffset dy="2" in="SourceAlpha" result="shadowOffsetOuter1"/>
      <feGaussianBlur in="shadowOffsetOuter1" result="shadowBlurOuter1" stdDeviation="2"/>
      <feColorMatrix in="shadowBlurOuter1" result="shadowMatrixOuter1" values="0 0 0 0 0   0 0 0 0 0   0 0 0 0 0  0 0 0 0.2 0"/>
      <feMerge>
        <feMergeNode in="shadowMatrixOuter1"/>
        <feMergeNode in="SourceGraphic"/>
      </feMerge>
    </filter>
    <linearGradient id="com.apps.darkradiant-b" x1="50%" x2="50%" y1="-60.527%" y2="276.475%">
      <stop offset="0%" stop-color="#EF808E"/>
      <stop offset="100%" stop-color="#5C3434"/>
    </linearGradient>
    <linearGradient id="com.apps.darkradiant-c" x1="52.33%" x2="50%" y1="36.558%" y2="63.436%">
      <stop offset="0%" stop-color="#B5B5B5"/>
      <stop offset="100%" stop-color="#606060"/>
    </linearGradient>
    <linearGradient id="com.apps.darkradiant-d" x1="50%" x2="50%" y1="0%" y2="105.963%">
      <stop offset="0%" stop-color="#FF8FA4"/>
      <stop offset="100%" stop-color="#5C3434"/>
    </linearGradient>
  </defs>
  <g fill="none" fill-rule="evenodd" filter="url(#com.apps.darkradiant-a)" transform="translate(5 19.41)">
    <path fill="url(#com.apps.darkradiant-b)" d="M28,30.5908238 C28.5522847,30.5908238 29,31.0385391 29,31.5908238 L29,32.5908238 C29,33.1431086 28.5522847,33.5908238 28,33.5908238 L3,33.5908238 C2.44771525,33.5908238 2,33.1431086 2,32.5908238 L2,31.5908238 C2,31.0385391 2.44771525,30.5908238 3,30.5908238 L28,30.5908238 Z M83,30.5908238 C83.5522847,30.5908238 84,31.0385391 84,31.5908238 L84,32.5908238 C84,33.1431086 83.5522847,33.5908238 83,33.5908238 L58,33.5908238 C57.4477153,33.5908238 57,33.1431086 57,32.5908238 L57,31.5908238 C57,31.0385391 57.4477153,30.5908238 58,30.5908238 L83,30.5908238 Z M28,22.5908238 C28.5522847,22.5908238 29,23.0385391 29,23.5908238 L29,24.5908238 C29,25.1431086 28.5522847,25.5908238 28,25.5908238 L3,25.5908238 C2.44771525,25.5908238 2,25.1431086 2,24.5908238 L2,23.5908238 C2,23.0385391 2.44771525,22.5908238 3,22.5908238 L28,22.5908238 Z M83,22.5908238 C83.5522847,22.5908238 84,23.0385391 84,23.5908238 L84,24.5908238 C84,25.1431086 83.5522847,25.5908238 83,25.5908238 L58,25.5908238 C57.4477153,25.5908238 57,25.1431086 57,24.5908238 L57,23.5908238 C57,23.0385391 57.4477153,22.5908238 58,22.5908238 L83,22.5908238 Z"/>
    <path fill="url(#com.apps.darkradiant-c)" d="M28.7731562,37.5908238 C29.0180703,37.5908238 29.2544689,37.6807024 29.43752,37.8434145 C29.8185502,38.182108 29.8795409,38.7467319 29.5980785,39.1562579 L29.5205655,39.2551876 L23.2983433,46.2551876 C23.1356855,46.4381777 22.9126089,46.5540603 22.6723154,46.5834352 L22.5509339,46.5908238 L1,46.5908238 C0.487164161,46.5908238 0.0644928393,46.2047836 0.00672773133,45.7074449 L8.8817842e-14,45.5908238 L8.8817842e-14,38.5908238 C8.8817842e-14,38.077988 0.38604019,37.6553166 0.883378875,37.5975515 L1,37.5908238 L28.7731562,37.5908238 Z M85,37.5908238 C85.5522847,37.5908238 86,38.0385391 86,38.5908238 L86,45.5908238 C86,46.1431086 85.5522847,46.5908238 85,46.5908238 L63.4490661,46.5908238 C63.1634283,46.5908238 62.8914242,46.468676 62.7016567,46.2551876 L56.4794345,39.2551876 C56.1125165,38.8424049 56.1496972,38.2103325 56.56248,37.8434145 C56.7455311,37.6807024 56.9819297,37.5908238 57.2268438,37.5908238 L85,37.5908238 Z M22.5509339,9.5908238 C22.8365717,9.5908238 23.1085758,9.7129716 23.2983433,9.92645996 L29.5205655,16.92646 C29.8874835,17.3392427 29.8503028,17.9713151 29.43752,18.3382331 C29.2544689,18.5009452 29.0180703,18.5908238 28.7731562,18.5908238 L1,18.5908238 C0.44771525,18.5908238 8.8817842e-14,18.1431086 8.8817842e-14,17.5908238 L8.8817842e-14,10.5908238 C8.8817842e-14,10.0385391 0.44771525,9.5908238 1,9.5908238 L22.5509339,9.5908238 Z M85,9.5908238 C85.5128358,9.5908238 85.9355072,9.97686399 85.9932723,10.4742027 L86,10.5908238 L86,17.5908238 C86,18.1036596 85.6139598,18.526331 85.1166211,18.5840961 L85,18.5908238 L57.2268438,18.5908238 C56.9819297,18.5908238 56.7455311,18.5009452 56.56248,18.3382331 C56.1814498,17.9995396 56.1204591,17.4349157 56.4019215,17.0253897 L56.4794345,16.92646 L62.7016567,9.92645996 C62.8643145,9.74346994 63.0873911,9.62758726 63.3276846,9.59821242 L63.4490661,9.5908238 L85,9.5908238 Z"/>
    <path fill="url(#com.apps.darkradiant-d)" d="M44.2279069,7.32484429 L57.5567471,12.5323346 C58.0695382,12.7326787 58.4770678,13.1355426 58.6833031,13.6459929 L64.2387224,27.3961382 C64.4343792,27.8804055 64.4328329,28.4219987 64.2344141,28.905141 L58.7387505,42.2868775 C58.5341481,42.7850766 58.1372635,43.1797014 57.6379043,43.3814556 L43.9258209,48.9214969 C43.4366701,49.1191267 42.8892451,49.1154819 42.4027692,48.9113564 L29.2824047,43.4060456 C28.7906406,43.1997011 28.4016536,42.8054996 28.2018756,42.3110316 L22.6332658,28.5282387 C22.4389263,28.0472315 22.4390955,27.5095301 22.6337377,27.0286453 L27.9128774,13.9859578 C28.1162689,13.4834571 28.5149313,13.0850455 29.01756,12.8819704 L42.7508821,7.33334808 C43.2241032,7.14215432 43.7525156,7.13911205 44.2279069,7.32484429 Z" transform="rotate(22 43.437 28.133)"/>
  </g>
</svg>
