<svg xmlns="http://www.w3.org/2000/svg" width="96" height="96" viewBox="0 0 96 96">
  <defs>
    <filter id="com.apps.appimagelauncher-a" width="130.8%" height="130.8%" x="-15.4%" y="-15.4%" filterUnits="objectBoundingBox">
      <feOffset dy="2" in="SourceAlpha" result="shadowOffsetOuter1"/>
      <feGaussianBlur in="shadowOffsetOuter1" result="shadowBlurOuter1" stdDeviation="2"/>
      <feColorMatrix in="shadowBlurOuter1" result="shadowMatrixOuter1" values="0 0 0 0 0   0 0 0 0 0   0 0 0 0 0  0 0 0 0.2 0"/>
      <feMerge>
        <feMergeNode in="shadowMatrixOuter1"/>
        <feMergeNode in="SourceGraphic"/>
      </feMerge>
    </filter>
    <linearGradient id="com.apps.appimagelauncher-b" x1="50%" x2="50%" y1="0%" y2="100%">
      <stop offset="0%" stop-color="#007693"/>
      <stop offset="100%" stop-color="#00415A"/>
    </linearGradient>
  </defs>
  <g fill="none" fill-rule="evenodd" filter="url(#com.apps.appimagelauncher-a)" transform="translate(9 9)">
    <rect width="78" height="78" fill="url(#com.apps.appimagelauncher-b)" rx="18"/>
    <path fill="#F6F6F6" d="M64.5172164,59.2919176 L69.9433594,72.984375 L55.4688281,72.984 L52.2541729,64.3946206 C56.8486774,63.2370923 61.0089706,61.4929856 64.5172164,59.2919176 Z M65.1905698,47.2969153 L65.232868,47.2539863 C65.2413359,47.2453628 65.2497909,47.2367347 65.258233,47.228102 C65.3955377,47.0876911 65.5291442,46.946383 65.6592978,46.8038984 C65.7070647,46.7516049 65.7542476,46.6992865 65.8009647,46.6468121 C65.8315813,46.6124236 65.8621845,46.5777549 65.8925842,46.5430189 C65.9428727,46.4855544 65.9923398,46.4282168 66.0412524,46.3706992 C66.0567862,46.3524328 66.0723337,46.3340656 66.0878246,46.3156803 C66.1354897,46.2591079 66.1825273,46.202475 66.2290277,46.1456722 C66.2625191,46.1047585 66.2954994,46.0640466 66.3282035,46.0232485 C66.3494383,45.9967604 66.3709085,45.9697909 66.3922581,45.942784 C66.5041597,45.8012193 66.6124184,45.6590734 66.717325,45.5159398 C66.7575245,45.4610891 66.7970265,45.4063819 66.8360384,45.3515328 C66.8570395,45.3220068 66.8779937,45.2923038 66.898804,45.2625596 C67.0690149,45.0192661 67.2294472,44.7734715 67.3800099,44.5250771 C67.3961547,44.4984418 67.4121797,44.4717872 67.428091,44.4451028 C67.4622898,44.3877483 67.4959202,44.3303314 67.5290233,44.2727796 C67.5447392,44.2454585 67.5605289,44.2177662 67.5761964,44.1900429 C67.6094299,44.1312299 67.6417924,44.0728681 67.6736127,44.0143716 C67.6949426,43.9751666 67.7164293,43.9351455 67.737662,43.8950622 C67.7700597,43.8338915 67.8014966,43.7733024 67.8323522,43.7125737 C67.8427864,43.69204 67.8533937,43.6710117 67.8639314,43.6499668 C67.9031907,43.5715539 67.9412942,43.4933068 67.9784314,43.4148356 C68.0045101,43.3597341 68.0302075,43.3043129 68.0554221,43.2487818 L68.0554297,43.248765 C68.0865907,43.1801382 68.1170217,43.1113268 68.14671,43.0423505 C68.1640295,43.0021109 68.1810773,42.9618607 68.1978719,42.9215551 C68.2190781,42.8706617 68.2398699,42.8197067 68.2602565,42.7686645 C68.2867641,42.7022994 68.3126335,42.6356625 68.3378108,42.5688803 C68.3468166,42.5449931 68.3557638,42.5210065 68.3646215,42.4970012 C68.3847174,42.4425359 68.4042639,42.3882292 68.4233523,42.333829 C68.4382873,42.2912668 68.4529726,42.2485564 68.4673751,42.2057892 C68.4868953,42.1478249 68.505892,42.0897692 68.5243667,42.0316108 C68.535311,41.9971606 68.5461415,41.9624481 68.5567858,41.9276993 C68.5734957,41.8731418 68.5896343,41.8188843 68.6053181,41.7645402 C68.6190079,41.7171032 68.6323166,41.6697271 68.6452791,41.6222861 C68.6562189,41.5822563 68.6670481,41.5416581 68.6776235,41.5010131 C68.6922417,41.444822 68.7062884,41.3888977 68.7198537,41.3328865 L68.7294412,41.292948 L68.7294412,41.292948 L68.7547285,41.1840078 C68.765284,41.137369 68.775506,41.0906712 68.785393,41.043915 L68.7944697,41.0005197 C68.9301766,40.3446413 69,39.6769413 69,39 C69,34.0150724 65.2136836,29.5312717 59.1818303,26.4217064 C58.4518897,27.381593 57.2981632,28 56,28 C53.790861,28 52,26.209139 52,24 C52,21.790861 53.790861,20 56,20 C58.0340557,20 59.7135066,21.5182437 59.966937,23.4833153 C68.4866051,27.586034 74,34.1291062 74,41.5 C74,45.8399433 72.0886206,49.892898 68.777499,53.3299546 L68.9385376,53.1611362 C68.8449783,53.260191 68.7502629,53.3587445 68.6544035,53.4567891 L68.6542499,53.4569462 C68.5071137,53.6074365 68.3571232,53.7568822 68.2044755,53.9050983 C67.9060305,54.1948608 67.5980217,54.4794022 67.2802192,54.7590522 C67.0783331,54.9367022 66.8724672,55.112401 66.6627311,55.2860719 L66.7777884,55.1902707 C66.6731124,55.2779124 66.5674552,55.3650445 66.4608275,55.4516602 L66.6627311,55.2860719 C66.5424593,55.3856624 66.4209148,55.4845861 66.2981134,55.5828328 L66.4608275,55.4516602 C66.3496387,55.541981 66.2373946,55.6317403 66.1241072,55.7209305 L66.2981134,55.5828328 C66.167575,55.6872694 66.0356164,55.790941 65.9022562,55.8938357 L66.1241072,55.7209305 C66.0304725,55.7946483 65.936125,55.8679772 65.8410716,55.9409129 L65.9022562,55.8938357 C65.7888443,55.9813391 65.6744188,56.0682806 65.5589913,56.1546527 L65.8410716,55.9409129 C65.7146286,56.0379343 65.5869364,56.1342599 65.4580108,56.2298796 L65.5589913,56.1546527 C65.4463552,56.238936 65.332765,56.3226771 65.2182315,56.4058692 L65.4580108,56.2298796 C65.3426824,56.3154147 65.2263671,56.4003849 65.1090763,56.4847828 L65.2182315,56.4058692 C65.1004922,56.4913897 64.981756,56.5763299 64.8620347,56.6606823 L64.8620366,56.6606809 C64.6224562,56.8294827 64.3789326,56.9959292 64.1315575,57.1599614 L64.1320013,57.1596671 C60.6171183,59.490355 56.3253168,61.3334678 51.525005,62.5164665 L50.8247971,62.6835006 C50.6032668,62.7346117 50.3807023,62.7843275 50.1571291,62.8326315 L50.7807585,62.6936396 C50.5248332,62.7524363 50.2675314,62.8093716 50.0088928,62.8644202 L50.1571291,62.8326315 C49.9235185,62.8831042 49.6888065,62.9320355 49.4530227,62.9794065 L50.0088928,62.8644202 C49.7678955,62.915714 49.5257375,62.9653697 49.2824506,63.0133667 L49.4530227,62.9794065 C49.1967367,63.0308966 48.9391843,63.0805434 48.6804029,63.1283228 L49.2824506,63.0133667 C48.9906693,63.070931 48.6972644,63.1261095 48.4022908,63.1788668 L48.6804029,63.1283228 C48.4147093,63.1773783 48.1477202,63.2244653 47.8794764,63.2695576 L48.4022908,63.1788668 C48.1900423,63.2168283 47.9769816,63.2535363 47.7631292,63.2889775 L47.8794764,63.2695576 C47.6213063,63.3129564 47.361974,63.3545075 47.1015156,63.3941877 L47.101852,63.3941365 C46.8419784,63.4337275 46.5813231,63.4714096 46.3195854,63.5072108 L46.9338964,63.4194424 C46.6726444,63.4583661 46.4102714,63.4954093 46.1468137,63.5305487 L46.3195854,63.5072108 C46.1050643,63.5365536 45.8898161,63.564633 45.6738607,63.5914362 L46.1468137,63.5305487 C45.8887262,63.5649718 45.6295977,63.5975678 45.3694626,63.6283149 L45.369565,63.6283028 C44.8378197,63.6911532 44.3019722,63.7462685 43.7622119,63.7934732 L43.7619283,63.793498 C42.2050375,63.929656 40.6152974,64 39,64 C34.8766485,64 30.9198343,63.5416229 27.2461322,62.6998095 L23.3968281,72.984 L8.92382813,72.984375 L14.7497698,57.7240812 C8.12370137,53.6300745 4,47.8746186 4,41.5 C4,31.2619044 14.6369508,22.6209187 29.1939739,19.895036 L35.2636719,4 L42.6035156,4 L60.2983024,48.6440192 C57.080159,50.6808158 52.8729598,52.2759174 48.0565677,53.1781601 L39.4335937,30.1367187 L30.0421854,55.2292248 C32.8710434,55.7300894 35.8798973,56 39,56 C40.3484242,56 41.6760701,55.9495878 42.9773885,55.851908 C43.031633,55.8478378 43.0872071,55.8435778 43.1427326,55.8392317 C43.2726151,55.8290652 43.4021029,55.8184386 43.5313202,55.807345 C43.6566916,55.7965816 43.7818488,55.7853747 43.9067462,55.7737308 C44.0967828,55.7560142 44.2862904,55.7372782 44.4751779,55.7175394 C44.5763983,55.7069615 44.6772039,55.6961217 44.7778295,55.684997 C44.9278946,55.6684073 45.0778743,55.6511461 45.227443,55.6332535 C45.8012801,55.5646026 46.3687436,55.4867076 46.929653,55.3998193 C47.031681,55.3840142 47.1333628,55.3679325 47.2348253,55.3515557 C47.3320102,55.3358701 47.429328,55.3198577 47.5264404,55.3035742 C47.712432,55.2723863 47.8972657,55.2402768 48.0813304,55.2071884 L48.1066991,55.2026209 L48.1066991,55.2026209 L48.324047,55.162907 C48.4725433,55.1354168 48.6205298,55.1072878 48.7679963,55.0785257 L48.767,55.077 L48.9278092,55.0470675 L49.8091873,54.863085 C54.1266253,53.9177666 57.9614228,52.4227643 61.0463259,50.5295222 L61.0453325,50.5301318 L61.1469352,50.467471 C61.2164847,50.4243635 61.2856475,50.3810521 61.3544204,50.3375388 L61.0453325,50.5301318 C61.1747156,50.4507356 61.3027798,50.3706389 61.4295055,50.2898528 C61.4983876,50.2459379 61.5661082,50.2023179 61.6334391,50.1585004 C61.6795742,50.1284779 61.7259136,50.0981071 61.772066,50.0676426 C61.8167919,50.0381191 61.8611197,50.0086564 61.9052726,49.9791071 C61.9768509,49.9312042 62.0481296,49.8829643 62.1189429,49.834498 C62.1664055,49.8020129 62.2134927,49.7695416 62.2603712,49.73697 C62.3137158,49.6999067 62.3670808,49.6625081 62.4201706,49.6249791 C62.4746767,49.5864497 62.5290414,49.5476759 62.5831127,49.508765 C62.6243218,49.4791098 62.665284,49.4494307 62.7060755,49.4196727 C62.7563622,49.3829892 62.8066953,49.3459591 62.8567643,49.3088085 C62.9158665,49.2649533 62.9741742,49.2212532 63.0321166,49.1773892 C63.3896043,48.906775 63.7335984,48.6295725 64.0630545,48.3464577 C64.0903832,48.3229733 64.1177096,48.2993634 64.1449348,48.2757128 C64.2014273,48.2266381 64.2575584,48.177322 64.3132501,48.1278317 C64.3522203,48.0932021 64.3912237,48.0582627 64.430008,48.0232376 C64.4802199,47.9778919 64.5299737,47.9324861 64.5793593,47.8869384 C64.6081248,47.8604095 64.6370719,47.8335461 64.665891,47.8066338 C64.7290155,47.7476842 64.791342,47.6886758 64.8530526,47.6294369 C64.8758698,47.6075333 64.8985353,47.5856636 64.9211168,47.5637628 L64.9870603,47.4994846 L64.9870603,47.4994846 L65.1399765,47.3478828 C65.1568909,47.3309117 65.1737554,47.3139226 65.1905698,47.2969153 Z M27.9339583,23.1939302 C16.8422472,25.6896308 9,31.8258465 9,39 C9,43.5807504 12.1972196,47.7383422 17.3960919,50.7952874 L27.9339583,23.1939302 Z"/>
  </g>
</svg>
