<svg xmlns="http://www.w3.org/2000/svg" xmlns:xlink="http://www.w3.org/1999/xlink" width="96" height="96" viewBox="0 0 96 96">
  <defs>
    <filter id="com.apps.charmtimetracker-a" width="128.6%" height="133.3%" x="-14.3%" y="-17.3%" filterUnits="objectBoundingBox">
      <feOffset dy="2" in="SourceAlpha" result="shadowOffsetOuter1"/>
      <feGaussianBlur in="shadowOffsetOuter1" result="shadowBlurOuter1" stdDeviation="2"/>
      <feColorMatrix in="shadowBlurOuter1" result="shadowMatrixOuter1" values="0 0 0 0 0   0 0 0 0 0   0 0 0 0 0  0 0 0 0.2 0"/>
      <feMerge>
        <feMergeNode in="shadowMatrixOuter1"/>
        <feMergeNode in="SourceGraphic"/>
      </feMerge>
    </filter>
    <linearGradient id="com.apps.charmtimetracker-b" x1="50%" x2="50%" y1="0%" y2="100%">
      <stop offset="0%" stop-color="#E6E6E6"/>
      <stop offset="25.913%" stop-color="#A0A0A0"/>
      <stop offset="26.6%" stop-color="#EAEBEB"/>
      <stop offset="28.514%" stop-color="#D7D7D7"/>
      <stop offset="100%" stop-color="#CACACA"/>
    </linearGradient>
    <linearGradient id="com.apps.charmtimetracker-c" x1="50%" x2="50%" y1="0%" y2="98.768%">
      <stop offset="0%" stop-opacity=".097"/>
      <stop offset="100%" stop-opacity=".51"/>
    </linearGradient>
    <linearGradient id="com.apps.charmtimetracker-d" x1="50%" x2="50%" y1="0%" y2="98.451%">
      <stop offset="0%" stop-color="#FBFBFB"/>
      <stop offset="87.163%" stop-color="#EEE"/>
      <stop offset="100%" stop-color="#B6B6B6"/>
    </linearGradient>
    <polygon id="com.apps.charmtimetracker-e" points="23.234 1 65 1 65 34 16 34 16 8.163"/>
    <filter id="com.apps.charmtimetracker-f" width="104.1%" height="106.1%" x="-2%" y="-3%" filterUnits="objectBoundingBox">
      <feGaussianBlur in="SourceAlpha" result="shadowBlurInner1" stdDeviation=".5"/>
      <feOffset dy="1" in="shadowBlurInner1" result="shadowOffsetInner1"/>
      <feComposite in="shadowOffsetInner1" in2="SourceAlpha" k2="-1" k3="1" operator="arithmetic" result="shadowInnerInner1"/>
      <feColorMatrix in="shadowInnerInner1" values="0 0 0 0 1   0 0 0 0 1   0 0 0 0 1  0 0 0 1 0"/>
    </filter>
    <linearGradient id="com.apps.charmtimetracker-g" x1="50%" x2="50%" y1="0%" y2="100%">
      <stop offset="0%" stop-opacity=".099"/>
      <stop offset="100%" stop-opacity=".533"/>
    </linearGradient>
    <linearGradient id="com.apps.charmtimetracker-j" x1="50%" x2="50%" y1="0%" y2="100%">
      <stop offset="0%" stop-color="#FFF"/>
      <stop offset="100%" stop-color="#C2C2C2"/>
    </linearGradient>
    <circle id="com.apps.charmtimetracker-i" cx="66" cy="57" r="14"/>
    <filter id="com.apps.charmtimetracker-h" width="103.6%" height="107.1%" x="-1.8%" y="-1.8%" filterUnits="objectBoundingBox">
      <feOffset dy="1" in="SourceAlpha" result="shadowOffsetOuter1"/>
      <feColorMatrix in="shadowOffsetOuter1" values="0 0 0 0 1   0 0 0 0 1   0 0 0 0 1  0 0 0 0.5 0"/>
    </filter>
    <linearGradient id="com.apps.charmtimetracker-k" x1="50%" x2="50%" y1="0%" y2="100%">
      <stop offset="0%" stop-opacity=".272"/>
      <stop offset="100%"/>
    </linearGradient>
    <linearGradient id="com.apps.charmtimetracker-l" x1="50%" x2="50%" y1="1.904%" y2="100%">
      <stop offset="0%" stop-color="#FF3E3E"/>
      <stop offset="99.997%" stop-color="#B50707"/>
    </linearGradient>
    <linearGradient id="com.apps.charmtimetracker-m" x1="50%" x2="50%" y1="6.086%" y2="100%">
      <stop offset="0%" stop-color="#37B7FF"/>
      <stop offset="100%" stop-color="#1B2298"/>
    </linearGradient>
    <linearGradient id="com.apps.charmtimetracker-n" x1="50%" x2="50%" y1="0%" y2="97.837%">
      <stop offset="0%"/>
      <stop offset="100%" stop-opacity=".55"/>
    </linearGradient>
    <path id="com.apps.charmtimetracker-o" d="M25,62 L36,62 C36.5522847,62 37,62.4477153 37,63 L37,70 C37,70.5522847 36.5522847,71 36,71 L25,71 C24.4477153,71 24,70.5522847 24,70 L24,63 C24,62.4477153 24.4477153,62 25,62 Z"/>
    <filter id="com.apps.charmtimetracker-p" width="107.7%" height="111.1%" x="-3.8%" y="-5.6%" filterUnits="objectBoundingBox">
      <feOffset dy="-1" in="SourceAlpha" result="shadowOffsetInner1"/>
      <feComposite in="shadowOffsetInner1" in2="SourceAlpha" k2="-1" k3="1" operator="arithmetic" result="shadowInnerInner1"/>
      <feColorMatrix in="shadowInnerInner1" values="0 0 0 0 1   0 0 0 0 1   0 0 0 0 1  0 0 0 1 0"/>
    </filter>
    <path id="com.apps.charmtimetracker-q" d="M40,62 L51,62 C51.5522847,62 52,62.4477153 52,63 L52,70 C52,70.5522847 51.5522847,71 51,71 L40,71 C39.4477153,71 39,70.5522847 39,70 L39,63 C39,62.4477153 39.4477153,62 40,62 Z"/>
    <filter id="com.apps.charmtimetracker-r" width="107.7%" height="111.1%" x="-3.8%" y="-5.6%" filterUnits="objectBoundingBox">
      <feOffset dy="-1" in="SourceAlpha" result="shadowOffsetInner1"/>
      <feComposite in="shadowOffsetInner1" in2="SourceAlpha" k2="-1" k3="1" operator="arithmetic" result="shadowInnerInner1"/>
      <feColorMatrix in="shadowInnerInner1" values="0 0 0 0 1   0 0 0 0 1   0 0 0 0 1  0 0 0 1 0"/>
    </filter>
    <path id="com.apps.charmtimetracker-s" d="M6.5,63 C6.77614237,63 7,63.2238576 7,63.5 L7,70.5 C7,70.7761424 6.77614237,71 6.5,71 C6.22385763,71 6,70.7761424 6,70.5 L6,63.5 C6,63.2238576 6.22385763,63 6.5,63 Z M10.5,63 C10.7761424,63 11,63.2238576 11,63.5 L11,70.5 C11,70.7761424 10.7761424,71 10.5,71 C10.2238576,71 10,70.7761424 10,70.5 L10,63.5 C10,63.2238576 10.2238576,63 10.5,63 Z M14.5,63 C14.7761424,63 15,63.2238576 15,63.5 L15,70.5 C15,70.7761424 14.7761424,71 14.5,71 C14.2238576,71 14,70.7761424 14,70.5 L14,63.5 C14,63.2238576 14.2238576,63 14.5,63 Z M18.5,63 C18.7761424,63 19,63.2238576 19,63.5 L19,70.5 C19,70.7761424 18.7761424,71 18.5,71 C18.2238576,71 18,70.7761424 18,70.5 L18,63.5 C18,63.2238576 18.2238576,63 18.5,63 Z"/>
    <filter id="com.apps.charmtimetracker-t" width="115.4%" height="125%" x="-7.7%" y="-12.5%" filterUnits="objectBoundingBox">
      <feGaussianBlur in="SourceAlpha" result="shadowBlurInner1" stdDeviation=".5"/>
      <feOffset dy="1" in="shadowBlurInner1" result="shadowOffsetInner1"/>
      <feComposite in="shadowOffsetInner1" in2="SourceAlpha" k2="-1" k3="1" operator="arithmetic" result="shadowInnerInner1"/>
      <feColorMatrix in="shadowInnerInner1" values="0 0 0 0 0   0 0 0 0 0   0 0 0 0 0  0 0 0 0.331211757 0"/>
    </filter>
    <linearGradient id="com.apps.charmtimetracker-u" x1="50%" x2="50%" y1="0%" y2="97.64%">
      <stop offset="0%" stop-color="#646464"/>
      <stop offset="100%" stop-color="#1F1F1F"/>
    </linearGradient>
    <linearGradient id="com.apps.charmtimetracker-v" x1="50%" x2="50%" y1="0%" y2="100%">
      <stop offset="0%" stop-color="#646464"/>
      <stop offset="97.64%" stop-color="#1F1F1F"/>
    </linearGradient>
    <linearGradient id="com.apps.charmtimetracker-w" x1="50%" x2="50%" y1="3.576%" y2="100%">
      <stop offset="0%" stop-opacity=".089"/>
      <stop offset="100%" stop-opacity=".106"/>
    </linearGradient>
    <linearGradient id="com.apps.charmtimetracker-z" x1="50%" x2="50%" y1="0%" y2="97.64%">
      <stop offset="0%" stop-color="#FFF"/>
      <stop offset="100%" stop-color="#EBEBEB"/>
    </linearGradient>
    <path id="com.apps.charmtimetracker-y" d="M23.2336426,1 C22.3209815,2.9019967 21.729266,4.09584436 21.4584961,4.58154297 C20.9491992,5.49510373 21.4584961,6.20019531 21.4584961,6.20019531 C21.4584961,6.20019531 20.2410785,5.68898719 19,6.20019531 C18.5036187,6.40465793 17.5036187,7.0589548 16,8.16308594 L23.2336426,1 Z"/>
    <filter id="com.apps.charmtimetracker-x" width="293.5%" height="295.4%" x="-96.8%" y="-69.8%" filterUnits="objectBoundingBox">
      <feOffset dy="2" in="SourceAlpha" result="shadowOffsetOuter1"/>
      <feGaussianBlur in="shadowOffsetOuter1" result="shadowBlurOuter1" stdDeviation="2"/>
      <feColorMatrix in="shadowBlurOuter1" values="0 0 0 0 0   0 0 0 0 0   0 0 0 0 0  0 0 0 0.479977054 0"/>
    </filter>
  </defs>
  <g fill="none" fill-rule="evenodd" filter="url(#com.apps.charmtimetracker-a)" transform="translate(6 10)">
    <path fill="url(#com.apps.charmtimetracker-b)" d="M7.01325853,22 L76.9867415,22 C78.770797,22 80.3391752,23.1814822 80.8314513,24.8962762 L84,35.9335938 L84,69 C84,72.3137085 81.3137085,75 78,75 L6,75 C2.6862915,75 0,72.3137085 0,69 L0,35.9335938 L3.16854869,24.8962762 C3.66082484,23.1814822 5.229203,22 7.01325853,22 Z"/>
    <path fill="url(#com.apps.charmtimetracker-c)" fill-rule="nonzero" d="M76.9867415,22 C78.770797,22 80.3391752,23.1814822 80.8314513,24.8962762 L84,35.9335938 L84,69 C84,72.3137085 81.3137085,75 78,75 L6,75 C2.6862915,75 0,72.3137085 0,69 L0,35.9335938 L3.16854869,24.8962762 C3.66082484,23.1814822 5.229203,22 7.01325853,22 L76.9867415,22 Z M76.9867415,23 L7.01325853,23 C5.73603696,23 4.60620235,23.8073869 4.18501451,24.9993554 L4.12972615,25.1722071 L1,36.073 L1,69 C1,71.6887547 3.12230671,73.8818181 5.78311038,73.9953805 L6,74 L78,74 C80.6887547,74 82.8818181,71.8776933 82.9953805,69.2168896 L83,69 L83,36.077 L79.8702738,25.1722071 C79.5178489,23.9445705 78.4300505,23.081382 77.1681385,23.0054468 L76.9867415,23 Z"/>
    <use fill="url(#com.apps.charmtimetracker-d)" xlink:href="#com.apps.charmtimetracker-e"/>
    <use fill="#000" filter="url(#com.apps.charmtimetracker-f)" xlink:href="#com.apps.charmtimetracker-e"/>
    <path fill="url(#com.apps.charmtimetracker-g)" fill-rule="nonzero" d="M65,0 L23.2336426,0 C22.9701239,0 22.7172565,0.104015916 22.5300097,0.289436307 L15.2963671,7.45252224 C15.1067069,7.64033252 15,7.89617078 15,8.16308594 L15,34 C15,34.5522847 15.4477153,35 16,35 L65,35 C65.5522847,35 66,34.5522847 66,34 L66,1 C66,0.44771525 65.5522847,0 65,0 Z M65,1 L65,34 L16,34 L16,8.16308594 L23.2336426,1 L65,1 Z"/>
    <path fill="#D8D8D8" stroke="#000" stroke-opacity=".577"/>
    <use fill="#000" filter="url(#com.apps.charmtimetracker-h)" xlink:href="#com.apps.charmtimetracker-i"/>
    <use fill="url(#com.apps.charmtimetracker-j)" xlink:href="#com.apps.charmtimetracker-i"/>
    <path fill="url(#com.apps.charmtimetracker-k)" fill-rule="nonzero" d="M66,43 C73.7319865,43 80,49.2680135 80,57 C80,64.7319865 73.7319865,71 66,71 C58.2680135,71 52,64.7319865 52,57 C52,49.2680135 58.2680135,43 66,43 Z M66,44 C58.8202983,44 53,49.8202983 53,57 C53,64.1797017 58.8202983,70 66,70 C73.1797017,70 79,64.1797017 79,57 C79,49.8202983 73.1797017,44 66,44 Z"/>
    <line x1="60.5" x2="67.5" y1="46.5" y2="58.5" stroke="#BA4141" stroke-linecap="round"/>
    <circle cx="7" cy="43" r="1" fill="url(#com.apps.charmtimetracker-l)"/>
    <circle cx="11" cy="43" r="1" fill="url(#com.apps.charmtimetracker-m)"/>
    <circle cx="15" cy="43" r="1" fill="url(#com.apps.charmtimetracker-m)"/>
    <circle cx="19" cy="43" r="1" fill="url(#com.apps.charmtimetracker-l)"/>
    <use fill="url(#com.apps.charmtimetracker-n)" xlink:href="#com.apps.charmtimetracker-o"/>
    <use fill="#000" filter="url(#com.apps.charmtimetracker-p)" xlink:href="#com.apps.charmtimetracker-o"/>
    <use fill="url(#com.apps.charmtimetracker-n)" xlink:href="#com.apps.charmtimetracker-q"/>
    <use fill="#000" filter="url(#com.apps.charmtimetracker-r)" xlink:href="#com.apps.charmtimetracker-q"/>
    <use fill="#989898" xlink:href="#com.apps.charmtimetracker-s"/>
    <use fill="#000" filter="url(#com.apps.charmtimetracker-t)" xlink:href="#com.apps.charmtimetracker-s"/>
    <line x1="62.089" x2="66.635" y1="64.705" y2="56.549" stroke="#979797" stroke-linecap="round"/>
    <line x1="64.362" x2="78.28" y1="56.549" y2="56.549" stroke="#979797" stroke-linecap="round"/>
    <circle cx="55" cy="57" r="1" fill="url(#com.apps.charmtimetracker-u)"/>
    <circle cx="66" cy="46" r="1" fill="url(#com.apps.charmtimetracker-v)"/>
    <circle cx="77" cy="57" r="1" fill="url(#com.apps.charmtimetracker-v)"/>
    <circle cx="66" cy="68" r="1" fill="url(#com.apps.charmtimetracker-v)"/>
    <circle cx="66" cy="57" r="1" fill="url(#com.apps.charmtimetracker-v)"/>
    <path stroke="url(#com.apps.charmtimetracker-w)" stroke-linecap="square" d="M24.5,12.5 L58.5,12.5 M24.5,9.5 L58.5,9.5 M24.5,15.5 L58.5,15.5 M24.5,18.5 L58.5,18.5 M24.5,21.5 L58.5,21.5 M24.5,24.5 L58.5,24.5 M24.5,27.5 L58.5,27.5 M24.5,30.5 L58.5,30.5 M31.5,9.5 L31.5,33.5 M24.5,9.5 L24.5,33.5 M59.5,9.5 L59.5,33.5 M38.5,9.5 L38.5,33.5 M45.5,9.5 L45.5,33.5 M52.5,9.5 L52.5,33.5"/>
    <polyline stroke="#005D91" stroke-linecap="round" stroke-linejoin="round" stroke-opacity=".621" points="19.413 33.5 25.488 20.932 30.5 30.133 38.006 17.5 41 22.703 47.326 11.466 52.5 21.5 63.535 5.427"/>
    <use fill="#000" filter="url(#com.apps.charmtimetracker-x)" xlink:href="#com.apps.charmtimetracker-y"/>
    <use fill="url(#com.apps.charmtimetracker-z)" xlink:href="#com.apps.charmtimetracker-y"/>
    <path fill="#8F1A1A" fill-rule="nonzero" d="M28.7036364 65.9872727L29.0909091 65.6272727 29.1563636 64.8581818 28.6381818 64.2909091 28.5127273 65.7690909 28.7036364 65.9872727zM28.3272727 67.8909091L28.9436364 67.3236364 29.0090909 66.5545455 28.6872727 66.2 28.4527273 66.4127273 28.3272727 67.8909091zM32.7584751 64.7545455L33.3748387 64.1818182 31.1712023 64.1818182 31.6893842 64.7545455 32.7584751 64.7545455zM33.107566 65.9872727L33.3421114 65.7690909 33.467566 64.2909091 32.8512023 64.8581818 32.7857478 65.6272727 33.107566 65.9872727zM32.687566 66.3745455L32.9984751 66.0909091 32.7366569 65.8072727 31.5257478 65.8072727 31.2202933 66.0909091 31.4766569 66.3745455 32.687566 66.3745455zM33.1566569 67.8909091L33.2821114 66.4127273 33.0912023 66.2 32.7039296 66.5545455 32.6384751 67.3236364 33.1566569 67.8909091zM33.0421114 68L32.5239296 67.4327273 31.4548387 67.4327273 30.8384751 68 33.0421114 68zM44.3454545 64.7545455L44.9618182 64.1818182 42.7581818 64.1818182 43.2763636 64.7545455 44.3454545 64.7545455zM42.7036364 65.9872727L43.0909091 65.6272727 43.1563636 64.8581818 42.6381818 64.2909091 42.5127273 65.7690909 42.7036364 65.9872727zM44.6945455 65.9872727L44.9290909 65.7690909 45.0545455 64.2909091 44.4381818 64.8581818 44.3727273 65.6272727 44.6945455 65.9872727zM42.3272727 67.8909091L42.9436364 67.3236364 43.0090909 66.5545455 42.6872727 66.2 42.4527273 66.4127273 42.3272727 67.8909091zM44.7436364 67.8909091L44.8690909 66.4127273 44.6781818 66.2 44.2909091 66.5545455 44.2254545 67.3236364 44.7436364 67.8909091zM44.6290909 68L44.1109091 67.4327273 43.0418182 67.4327273 42.4254545 68 44.6290909 68zM48.6348387 64.7545455L49.2512023 64.1818182 47.047566 64.1818182 47.5657478 64.7545455 48.6348387 64.7545455zM46.9930205 65.9872727L47.3802933 65.6272727 47.4457478 64.8581818 46.927566 64.2909091 46.8021114 65.7690909 46.9930205 65.9872727zM48.5639296 66.3745455L48.8748387 66.0909091 48.6130205 65.8072727 47.4021114 65.8072727 47.0966569 66.0909091 47.3530205 66.3745455 48.5639296 66.3745455zM49.0330205 67.8909091L49.1584751 66.4127273 48.967566 66.2 48.5802933 66.5545455 48.5148387 67.3236364 49.0330205 67.8909091zM48.9184751 68L48.4002933 67.4327273 47.3312023 67.4327273 46.7148387 68 48.9184751 68z"/>
  </g>
</svg>
