<svg xmlns="http://www.w3.org/2000/svg" width="96" height="96" viewBox="0 0 96 96">
  <defs>
    <filter id="apps.com.dingtalk.im_icon-a" width="128.6%" height="128.2%" x="-14.3%" y="-14.1%" filterUnits="objectBoundingBox">
      <feOffset dy="2" in="SourceAlpha" result="shadowOffsetOuter1"/>
      <feGaussianBlur in="shadowOffsetOuter1" result="shadowBlurOuter1" stdDeviation="2"/>
      <feColorMatrix in="shadowBlurOuter1" result="shadowMatrixOuter1" values="0 0 0 0 0   0 0 0 0 0   0 0 0 0 0  0 0 0 0.2 0"/>
      <feMerge>
        <feMergeNode in="shadowMatrixOuter1"/>
        <feMergeNode in="SourceGraphic"/>
      </feMerge>
    </filter>
    <linearGradient id="apps.com.dingtalk.im_icon-b" x1="50%" x2="50%" y1="0%" y2="100%">
      <stop offset="0%" stop-color="#00C1F8"/>
      <stop offset="100%" stop-color="#008DEF"/>
    </linearGradient>
  </defs>
  <g fill="none" filter="url(#apps.com.dingtalk.im_icon-a)" transform="translate(6 5)">
    <path fill="url(#apps.com.dingtalk.im_icon-b)" d="M42,84.014 C18.84,84.014 0,65.172 0,42.014 C0,18.856 18.84,0.014 42,0.014 C65.158,0.014 84,18.856 84,42.014 C84,65.172 65.158,84.014 42,84.014 Z"/>
    <path fill="#FFF" d="M48.032,73.956 L61.83,55.468 L54.718,55.234 L63.094,40.774 C63.094,40.774 66.106,35.744 60.624,33.574 L21.816,18.072 C21.816,18.072 19.646,16.74 20.008,20.536 C20.008,20.536 20.852,28.126 24.226,31.258 L43.69,38.126 L25.19,34.088 C25.19,34.088 22.478,33.424 23.502,36.618 C23.502,36.618 25.612,43.066 30.252,44.692 L44.956,44.872 L32.12,46.92 C32.12,46.92 29.83,47.282 31.878,49.872 C31.878,49.872 35.252,54.572 40.194,54.934 L47.486,53.342 L45.496,62 L51.35,62 L48.032,73.956 Z"/>
  </g>
</svg>
