<?xml version="1.0" encoding="UTF-8"?>
<svg width="96px" height="96px" viewBox="0 0 96 96" version="1.1" xmlns="http://www.w3.org/2000/svg" xmlns:xlink="http://www.w3.org/1999/xlink">
    <title>com.apps.net.sourceforge.gmanedit</title>
    <defs>
        <filter x="-17.6%" y="-15.6%" width="135.3%" height="131.2%" filterUnits="objectBoundingBox" id="filter-1">
            <feOffset dx="0" dy="2" in="SourceAlpha" result="shadowOffsetOuter1"></feOffset>
            <feGaussianBlur stdDeviation="2" in="shadowOffsetOuter1" result="shadowBlurOuter1"></feGaussianBlur>
            <feColorMatrix values="0 0 0 0 0   0 0 0 0 0   0 0 0 0 0  0 0 0 0.2 0" type="matrix" in="shadowBlurOuter1" result="shadowMatrixOuter1"></feColorMatrix>
            <feMerge>
                <feMergeNode in="shadowMatrixOuter1"></feMergeNode>
                <feMergeNode in="SourceGraphic"></feMergeNode>
            </feMerge>
        </filter>
        <linearGradient x1="74.4049038%" y1="9.25346857%" x2="5.75406625%" y2="45.855962%" id="linearGradient-2">
            <stop stop-color="#FCFCFC" offset="0%"></stop>
            <stop stop-color="#0A0A0A" offset="100%"></stop>
        </linearGradient>
        <linearGradient x1="50%" y1="9.79102491%" x2="69.807926%" y2="37.7953109%" id="linearGradient-3">
            <stop stop-color="#000000" offset="0%"></stop>
            <stop stop-color="#000000" stop-opacity="0" offset="100%"></stop>
        </linearGradient>
        <linearGradient x1="9.49200443%" y1="26.4350938%" x2="90.5079956%" y2="74.7533714%" id="linearGradient-4">
            <stop stop-color="#000000" stop-opacity="0.335467999" offset="0%"></stop>
            <stop stop-color="#000000" offset="100%"></stop>
        </linearGradient>
    </defs>
    <g id="com.apps.net.sourceforge.gmanedit" stroke="none" stroke-width="1" fill="none" fill-rule="evenodd">
        <g id="编组" filter="url(#filter-1)" transform="translate(13.668375, 9.034055)">
            <path d="M1.31698239,22.7722278 L36.2672419,1.10050063 C37.6042257,0.271474865 39.3030008,0.303102705 40.608198,1.18132233 C42.6606187,2.5623215 45.1088255,5.34107959 47.9528184,9.51759659 C52.2420439,15.8164955 55.7016461,26.1326116 58.3316251,40.4659449 L14.2660376,51.6271102 L1.31698239,22.7722278 Z" id="路径-58" fill="url(#linearGradient-2)"></path>
            <path d="M36.0037501,0.675562922 L0.681702153,22.5778262 L13.9817766,52.2148984 L58.9078338,40.8357888 L58.8234149,40.3757079 C58.6313102,39.3287409 58.4347722,38.3030369 58.2337939,37.2985913 L57.9289952,35.8078661 C57.8776401,35.562069 57.8260073,35.3176004 57.7740965,35.0744603 L57.4592971,33.6315597 L57.1378237,32.2205379 L56.8096711,30.8413912 C54.4892132,21.298919 51.6774387,14.0990077 48.3660993,9.2361736 C45.4893115,5.01149594 43.0042109,2.19086269 40.8873253,0.766487463 C39.4189789,-0.221509338 37.507857,-0.257091182 36.0037501,0.675562922 Z M40.3290707,1.59615719 C42.111376,2.7954055 44.2339778,5.11938583 46.6799609,8.56248691 L47.2501513,9.3769122 C47.3461372,9.5159599 47.4425996,9.65666247 47.5395375,9.79901959 L47.7701327,10.1428202 C49.4241186,12.6460777 50.9543538,15.7699304 52.3597177,19.5136331 L52.7399019,20.5500105 C52.8655974,20.900592 52.9902601,21.2562957 53.1138891,21.617121 L53.4816742,22.7149611 C53.6640154,23.271563 53.8440289,23.8396873 54.0217119,24.419332 L54.3739697,25.5939815 C54.6067356,26.3873209 54.8353549,27.2011389 55.059821,28.0354309 L55.3934044,29.3022241 C55.50356,29.7296066 55.6126764,30.1621071 55.7207529,30.599725 L56.0418613,31.9279304 L56.3567248,33.2868369 C56.4086814,33.5158796 56.4603775,33.7462013 56.5118131,33.977802 L56.8172995,35.3827539 C56.8676926,35.6194703 56.917825,35.8574656 56.9676965,36.0967398 L57.2637945,37.5477294 L57.5536274,39.0294067 L57.7546251,40.0959449 L14.5496251,51.0389449 L1.95162506,22.9659449 L36.5307343,1.525438 C37.6356028,0.84034032 39.0228419,0.826964552 40.1356541,1.4749446 L40.3290707,1.59615719 Z" id="路径-58" fill="url(#linearGradient-3)" fill-rule="nonzero"></path>
            <path d="M4.80503501,26.9659449 C16.4036165,53.4341967 22.2029072,69.2692596 22.2029072,74.4711336 C30.6385884,67.3467108 56.4026038,59.4659449 66.2081793,58.9659449 C62.1349539,39.614144 51.6223667,6.75298337 47.4822644,6.75298337 C26.2225209,11.8398489 11.9967778,18.5775028 4.80503501,26.9659449 Z" id="路径-56" fill="#E32FA6"></path>
            <path d="M47.4822644,5.75298337 L47.3642933,5.75298337 L47.2495608,5.78043567 C46.455258,5.97049023 45.6706231,6.16286019 44.8956555,6.35754944 L43.3586101,6.75002145 C42.8505582,6.88187702 42.3468027,7.01476453 41.8473436,7.14868513 L40.3618551,7.55354736 L38.902144,7.96461506 L37.4682093,8.38189512 C36.757686,8.5920894 36.0568286,8.8046159 35.3656366,9.01947851 L33.9961398,9.4523197 L32.6524168,9.89139742 C28.6599076,11.2179923 25.0153337,12.6288735 21.7185996,14.1248798 L20.632571,14.6267025 L19.5723076,15.1348377 C19.0486171,15.3904846 18.5345882,15.6485012 18.0302204,15.9088915 L17.0343664,16.432838 C15.3960786,17.3113609 13.865134,18.2162864 12.4415164,19.1477584 L11.6002249,19.7098283 C8.56271232,21.7824402 6.04464613,23.9836761 4.04585218,26.3150675 L3.63699398,26.7919593 L5.24382279,30.4712462 L6.85990956,34.2097467 L8.39005955,37.7908505 L9.26687709,39.8638466 L10.3877914,42.5394393 L11.7114695,45.7416549 L12.9490244,48.7855271 L13.8770229,51.1064303 L14.7498394,53.3256728 L15.3682218,54.9233041 L16.3298143,57.4586054 L17.0369166,59.3720103 L17.6887246,61.1831841 L18.1412769,62.4743895 L18.4256844,63.3031717 L18.9529779,64.8838042 L19.1958568,65.635619 L19.4248859,66.3617423 L19.6400616,67.0621563 L19.9368425,68.0645335 L20.1173694,68.7005964 L20.2840307,69.3108876 L20.4368228,69.8953893 L20.5757423,70.4540837 L20.7007855,70.986953 L20.8119492,71.4939794 L20.9092296,71.9751449 C20.9242858,72.0531831 20.9387635,72.1301431 20.9526625,72.2060243 L21.0291115,72.6483653 L21.0916686,73.064801 C21.1009369,73.1320471 21.1096263,73.1982132 21.1177366,73.2632987 L21.1594492,73.6408429 C21.1652429,73.701605 21.1704575,73.7612857 21.1750929,73.8198849 L21.195953,74.1584976 C21.200589,74.26704 21.2029072,74.371253 21.2029072,74.4711336 L21.2029072,76.6246143 L22.8481387,75.2351207 C24.3672815,73.9521164 26.6005129,72.5862564 29.2872751,71.2189242 L30.1993025,70.763204 C30.3539875,70.6872787 30.509983,70.6113768 30.6672441,70.5355123 L31.6256429,70.0808844 L32.6122753,69.627822 C32.7789477,69.5524792 32.9467071,69.4772297 33.1155089,69.4020872 L34.1404707,68.952629 L35.1883048,68.5064108 C35.3647307,68.4323484 35.5420203,68.3584488 35.7201288,68.2847261 L36.7982505,67.8446241 L37.8938832,67.4094366 C38.0778288,67.3373521 38.2624146,67.2655004 38.447596,67.1938952 L39.5654744,66.7673357 L40.6955024,66.3473653 L41.8355358,65.934654 L42.9834299,65.5298715 L44.1370403,65.1336877 L45.2942224,64.7467723 L46.4528317,64.3697953 L47.6107238,64.0034265 L48.765754,63.6483356 C48.9579014,63.5901308 49.1498402,63.5324239 49.3415258,63.4752287 L50.4882424,63.1383107 C50.6787361,63.0832185 50.8688873,63.028666 51.0586511,62.9746671 L52.1922289,62.657429 L53.3143669,62.3541483 L54.4229205,62.0654946 C54.6064283,62.0186418 54.7892807,61.9724264 54.9714331,61.9268623 L56.0555892,61.6614052 C56.2347627,61.6185022 56.4131468,61.5762784 56.5906968,61.5347479 L57.6456303,61.2939944 L58.6784015,61.0705474 C58.848564,61.0347856 59.0177138,60.9997728 59.185806,60.9655231 L60.1813127,60.7692915 C60.3449964,60.7381494 60.5075333,60.7077981 60.6688787,60.6782517 L61.6222957,60.5107428 C63.3427034,60.2217586 64.9081282,60.0335356 66.2591045,59.9646474 L67.4277577,59.9050562 L67.1867376,58.759975 C66.5245009,55.6137037 65.694687,52.1196303 64.751652,48.4726123 L64.1726793,46.267607 C63.7782196,44.7874464 63.3673839,43.28905 62.943651,41.7848889 L62.2988136,39.5258824 C60.9915323,35.0054575 59.5838308,30.4892682 58.1696364,26.3140281 L57.6419084,24.7724978 L57.1257284,23.2940765 L56.6186539,21.8710567 L55.956568,20.060881 L55.4704006,18.7693903 L54.9930481,17.5352372 L54.6796673,16.7446095 L54.2168126,15.6073099 L53.9130163,14.881789 L53.6130086,14.182612 L53.3167637,13.509951 L53.0242557,12.8639781 L52.7354589,12.2448653 L52.4503474,11.6527849 L52.1688954,11.0879088 L51.8910771,10.5504091 L51.6168666,10.0404581 C51.5714641,9.95777149 51.5262108,9.87623995 51.4811063,9.79586702 L51.2122591,9.32756149 C51.1232354,9.17611322 51.0348022,9.02932808 50.9469553,8.88723477 L50.6851689,8.47505895 L50.4268741,8.09120615 L50.1720452,7.73584845 C49.2018106,6.42847945 48.307399,5.75298337 47.4822644,5.75298337 Z M47.4822644,6.75298337 C48.600092,6.75298337 50.1824738,9.14856198 51.9772341,13.0270083 L52.3794632,13.9129236 C52.5146365,14.2161178 52.6508727,14.5270776 52.7880692,14.8454318 L53.2024372,15.8223072 L53.6219521,16.8413238 L54.045999,17.9002561 L54.473963,18.9968781 L54.9052291,20.1289641 C54.9773478,20.3204767 55.0495784,20.5133743 55.1219082,20.7076105 L55.5569743,21.8887191 L55.9938051,23.0997272 L56.4317855,24.338409 L56.8703007,25.6025388 L57.3087356,26.8898908 L57.9648922,28.8595913 L58.400436,30.1952609 L58.8337472,31.5463623 L59.2642107,32.9106699 L59.6912117,34.2859578 L60.3238755,36.364609 L60.9452894,38.4554458 L61.3522903,39.8523973 L61.7527539,41.2492002 L62.146065,42.6436287 L62.7212757,44.7259506 L63.0940154,46.1047054 L63.4574503,47.4732956 L63.8109654,48.8294953 L64.1539458,50.1710789 L64.4857766,51.4958205 L64.8058427,52.8014944 L65.1135291,54.0858747 L65.408221,55.3467357 L65.6893033,56.5818516 L65.956161,57.7889966 L66.2081793,58.9659449 C64.6119228,59.0473403 62.5927547,59.3243319 60.294277,59.7618157 L59.2925332,59.9590324 C59.1228654,59.9935054 58.9518772,60.0287717 58.7796209,60.0648184 L57.7312853,60.2903619 L56.6550285,60.5340223 C56.4734652,60.576108 56.2908431,60.618923 56.1072147,60.6624545 L54.9937861,60.9321389 L53.8587162,61.2184051 L52.7045171,61.520639 L51.5337007,61.8382265 C51.1409382,61.9465797 50.7458248,62.0573895 50.3487791,62.1705535 L49.1522642,62.5170061 C48.9520185,62.5758912 48.7513944,62.6353392 48.5504442,62.6953375 L47.3412494,63.0618269 C46.9371593,63.1861225 46.5321837,63.3125166 46.1267412,63.4409066 L44.9094317,63.8319626 C44.7064529,63.8981025 44.503462,63.9647158 44.3005115,64.0317898 L43.0837099,64.4396587 C42.8811298,64.508524 42.6786946,64.5778244 42.4764567,64.647547 L41.2658151,65.0708473 L40.0624202,65.5036676 C39.8625978,65.5765636 39.6631821,65.6498306 39.4642252,65.7234559 L38.2764102,66.1694048 C37.8825868,66.3194193 37.4910178,66.4707647 37.1021218,66.6233385 L35.943872,67.084643 C35.560741,67.2395713 35.1807017,67.3956258 34.8041728,67.5527041 L33.6855361,68.0269078 L32.590474,68.5066401 C28.2607239,70.4358077 24.5570508,72.4829226 22.2029072,74.4711336 C22.2029072,74.3670962 22.2005875,74.2588054 22.1959481,74.1462614 L22.1750706,73.7958694 L22.1402749,73.4199579 C22.1333157,73.3551793 22.1257766,73.2893374 22.1176576,73.2224322 L22.0619844,72.8082412 C22.0515457,72.7370827 22.0405271,72.6648609 22.0289285,72.5915758 L21.9523778,72.1391052 L21.8619089,71.661115 L21.7575217,71.1576052 L21.6392161,70.6285757 L21.5069923,70.0740266 L21.3608502,69.4939578 L21.2007898,68.8883693 L21.026811,68.2572612 L20.838914,67.6006334 L20.5309717,66.5678424 L20.1917132,65.4776322 L19.948143,64.7189259 L19.6906545,63.9346998 L19.1339226,62.2896888 L18.6798381,60.9889415 L18.3597172,60.089877 L18.0256781,59.1652929 L17.6777206,58.2151891 L17.1296877,56.7421841 L16.350263,54.6888586 L15.9396732,53.6239164 L15.2976917,51.9786537 L14.3930024,49.6956514 L13.4326398,47.3105704 L12.6758324,45.4547706 L11.8877088,43.5415516 L10.7881633,40.9012741 L9.63294455,38.158918 L8.11063073,34.5874248 L6.50132755,30.8564338 L4.80503501,26.9659449 C10.648326,20.1503357 21.1351563,14.4245047 36.2655259,9.78845183 L37.6753641,9.36360372 C37.9125353,9.29331157 38.1508055,9.22327736 38.3901748,9.15350108 L39.8395793,8.73793866 L41.3153613,8.32856669 L42.8175209,7.92538517 L44.3460579,7.52839411 L45.9009724,7.13759351 C46.4236735,7.00835839 46.9507708,6.88015501 47.4822644,6.75298337 Z" id="路径-56" fill="url(#linearGradient-4)" fill-rule="nonzero"></path>
            <path d="M22.1264524,75.3552252 L21.7117073,75.9437221 C21.5552292,76.1657545 21.2483858,76.2188968 21.0263533,76.0624188 C20.9405016,76.0019145 20.8762732,75.9155162 20.843058,75.8158767 C13.8417466,54.8040976 7.06072723,38.520787 0.5,26.9659449 C0.5,25.8215328 0.5,24.6988683 0.5,23.5979515 C0.500045927,23.0456921 0.947740615,22.5979975 1.5,22.5979975 C1.78935098,22.5979975 2.06451595,22.7233351 2.25442908,22.9416399 C3.95483303,24.8962514 4.80503501,26.2376864 4.80503501,26.9659449 C16.814469,54.3560316 22.6482017,70.318834 22.3062331,74.8543522 C22.2926352,75.0344811 22.230514,75.2075684 22.1264524,75.3552252 Z" id="路径-57" fill="#E32FA6"></path>
            <path d="M1.5,22.0979975 C0.671615823,22.0979975 4.97379915e-14,22.7695231 4.97379915e-14,23.5979099 L4.97379915e-14,27.0979975 L0.0651986221,27.2128209 C0.501349546,27.9809759 0.938509662,28.770166 1.37667764,29.58039 L2.03468533,30.8115012 C2.25427308,31.22713 2.47411263,31.648017 2.69420381,32.0741621 L3.35523209,33.3683718 L4.01776916,34.6941291 L4.68181402,36.051433 C4.79261376,36.2802792 4.90347628,36.5104397 5.01440156,36.7419147 L5.68070624,38.1465367 L6.34851621,39.5827028 C6.57137031,40.066682 6.79447512,40.5559185 7.01783048,41.0504119 L7.68864805,42.5496631 L8.36096791,44.0804552 C8.5853248,44.595976 8.80993191,45.1167535 9.03478907,45.6427874 L9.71011054,47.2366585 L10.3869313,48.8620675 C10.4998596,49.1355971 10.6128504,49.4104408 10.7259036,49.6865984 L11.4049714,51.3593124 C11.5182742,51.640726 11.6316393,51.9234536 11.7450667,52.2074952 L12.4263794,53.9275118 L13.1091874,55.6790623 C13.2231132,55.9736151 13.3371014,56.2694818 13.4511518,56.5666623 L14.1362008,58.3655116 L14.8227427,60.195892 L15.5107764,62.0578027 L16.2003008,63.9512426 L16.8913151,65.8762107 L17.5838182,67.8327059 L18.2778091,69.8207271 L18.9732868,71.8402735 L19.6702503,73.891344 L20.3686987,75.9739374 C20.435694,76.1749112 20.5652086,76.3491193 20.7383198,76.47112 C21.1860717,76.7866746 21.8048539,76.6795075 22.1204085,76.2317556 L22.5351536,75.6432587 C22.6912358,75.421788 22.7844184,75.1621731 22.8048145,74.8919901 L22.8135046,74.7487536 C22.8179708,74.6529597 22.8198438,74.5528281 22.8198438,74.448357 L22.8118041,74.1219226 L22.7895771,73.7694379 C22.7797925,73.6475999 22.7676322,73.5214181 22.7530957,73.3908905 L22.7023573,72.9862676 C22.6927127,72.9166569 22.6824739,72.8459591 22.671641,72.7741741 L22.5995126,72.3304148 C22.5863026,72.2542797 22.5724984,72.1770568 22.5580998,72.0987459 L22.4645758,71.615822 L22.3567849,71.1067726 L22.2347246,70.5715852 L22.0248739,69.7197681 L21.8671295,69.119181 L21.6951071,68.4924121 L21.5088042,67.8394489 L21.3082183,67.1602788 L21.0933471,66.4548893 L20.7442495,65.3476164 L20.4936538,64.5766237 L20.090958,63.3708871 L19.656092,62.106016 L19.1890476,60.7819681 L18.6898163,59.3987011 L17.9740917,57.4621534 L17.3997253,55.9405441 L16.58379,53.8193866 L15.7105644,51.5925999 L14.7800284,49.260084 L13.7921622,46.8217385 L13.0136278,44.9234684 L12.2028257,42.9655706 L11.3597475,40.9480027 L9.88286976,37.4526747 L8.63677267,34.5368561 L6.65992235,29.963633 L5.29962506,26.8489449 L5.28653856,26.7305894 C5.16379535,25.9145986 4.4299495,24.7453063 3.07884944,23.1362953 L2.63166094,22.6134691 C2.34678688,22.2860068 1.93403312,22.0979975 1.5,22.0979975 Z M1.5,23.0979975 C1.64466885,23.0979975 1.78224501,23.1606634 1.87719721,23.2698108 L2.0832951,23.5086829 L2.46817731,23.9666018 C2.52928773,24.040694 2.58887926,24.1136639 2.646951,24.1854993 L2.97713693,24.6027967 L3.2708055,24.992266 C3.95929479,25.9306563 4.30503501,26.6025559 4.30503501,26.9659449 L4.34711778,27.1667229 L6.43286712,31.952415 L7.74993886,35.0072297 L9.31363518,38.6729585 L10.2077607,40.7908281 L11.0688062,42.8474671 L11.8967627,44.8428306 L12.9492178,47.4079202 L13.9428111,49.8638891 L15.1019965,52.7802374 L15.5399002,53.8989433 L16.1691365,55.5257105 L16.7652215,57.0908878 L17.3281465,58.5944302 L17.8579026,60.036293 L18.1926418,60.9632462 L18.5126326,61.8627528 L18.9649599,63.1605216 L19.3840886,64.3964609 L19.7700099,65.5705259 L20.0088378,66.3188391 L20.2329002,67.0396193 L20.4421946,67.7328532 L20.6367182,68.3985275 L20.9008028,69.3453357 L21.1316384,70.23006 L21.2670528,70.7853629 L21.3876833,71.3130397 L21.4935273,71.8130771 C21.5099356,71.8941126 21.5257277,71.973996 21.5409035,72.0527268 L21.6245628,72.5112801 C21.6372733,72.5854 21.6493674,72.6583668 21.6608451,72.7301804 L21.7223138,73.1472196 L21.7689853,73.5365662 C21.782076,73.6617315 21.7927001,73.7822791 21.8008572,73.8982068 L21.8179267,74.2321282 C21.8243717,74.4454997 21.8211207,74.6403829 21.8076483,74.8167599 L21.7928832,74.9052997 C21.7778097,74.963095 21.7524392,75.0179715 21.7177512,75.0671917 L21.3116251,75.6419449 L20.9611084,74.5920013 C20.7237081,73.8842162 20.4865582,73.1818646 20.2496585,72.4849463 L19.5397099,70.4104912 L18.8312617,68.3686349 L18.1243127,66.3593764 L17.418862,64.3827145 L16.7149085,62.4386483 L16.0124512,60.5271767 C15.8954996,60.2113142 15.7786103,59.8968098 15.6617833,59.5836635 L14.9615683,57.7210817 C14.6118342,56.7979389 14.2626602,55.887018 13.9140458,54.9883185 L13.2175626,53.2072145 C13.1016064,52.9130796 12.9857122,52.6203026 12.8698802,52.3288835 L12.1756331,50.5966629 L11.4828753,48.89703 C11.3675397,48.6164734 11.2522661,48.3372746 11.1370546,48.0594335 L10.4465289,46.4086801 C10.3315652,46.1362699 10.2166634,45.8652175 10.1018236,45.5955228 L9.41352764,43.9936463 C9.29893544,43.7293822 9.18440512,43.4664758 9.06993666,43.204927 L8.38386806,41.6519252 L7.69928306,40.1315053 L7.01618063,38.643666 C6.22009221,36.9268585 5.42702855,35.2765679 4.63698217,33.6927863 L3.96053832,32.3515471 C3.84792077,32.1307218 3.73536476,31.9112538 3.62287026,31.6931431 L2.94864123,30.4007658 C2.49964707,29.5500387 2.0516364,28.7210272 1.60460783,27.9137297 L0.999625065,26.8339449 L1,23.5979515 C1.00002296,23.321847 1.22387961,23.0979975 1.5,23.0979975 Z" id="路径-57" fill="#000000" fill-rule="nonzero"></path>
            <path d="M13.3965961,28.031905 C19.9054422,40.9882598 24.3426855,53.6329398 26.7083258,65.9659449 C33.5216078,60.7567985 43.4527024,55.707983 56.5016094,50.8194983 C53.5557714,33.5837961 49.3091676,21.9659449 43.7617981,15.9659449 C32.5733767,17.0908988 22.4516427,21.1128855 13.3965961,28.031905 Z" id="路径-59" stroke-opacity="0.6" stroke="#000000" fill="#4949F8"></path>
            <path d="M38.1204581,47.098781 L39.0174198,30.5979111 L43.5544446,42.1561277 C43.7565548,42.6710099 43.8379894,43.0376698 43.7987484,43.2561073 C43.7595075,43.4745449 43.5485198,43.7065265 43.1657855,43.952052 L41.6572212,44.8850143 L41.9081166,45.5241783 C42.5840941,45.2296864 43.2426041,44.9570296 43.8836464,44.7062079 C44.5246887,44.4553862 45.0903117,44.2379683 45.5805153,44.0539543 L46.3975213,43.7472642 C46.9785034,43.5291734 47.6492096,43.2875871 48.4096401,43.0225052 C49.1700705,42.7574233 49.925962,42.4940453 50.6773146,42.2323711 L50.4264192,41.593207 L47.9338512,42.0094211 C47.5791716,42.0610789 47.3153147,42.0124386 47.1422806,41.8635001 C46.9692464,41.7145616 46.774705,41.3648967 46.5586562,40.8145054 L42.0007234,29.2030251 C41.7986132,28.688143 41.7555985,28.2866902 41.8716793,27.9986668 C41.9877601,27.7106434 42.28815,27.4145457 42.7728491,27.1103736 L44.3254266,26.1303335 L44.0536233,25.4379058 C43.6862924,25.616537 43.2501897,25.8057059 42.745315,26.0054126 C42.2404404,26.2051193 41.7156677,26.4072026 41.170997,26.6116627 C40.6263263,26.8161228 40.0844522,27.0144404 39.5453747,27.2066155 C39.0062972,27.3987907 38.5119209,27.5589077 38.0622457,27.6869666 L37.2672915,41.9800632 L26.351826,32.0828583 C26.1297407,32.2069668 25.748105,32.3756897 25.206919,32.5890271 C24.6657329,32.8023644 24.0592597,33.0351168 23.3874992,33.2872842 L23.1557643,33.3739564 C21.9484156,33.8237911 21.1982006,34.0749587 20.9051192,34.1274591 L21.1769225,34.8198868 L23.7701678,34.1825437 L29.1016947,47.7647798 C29.1853265,47.9778345 29.2459419,48.1587877 29.2835407,48.3076395 C29.3211395,48.4564913 29.3091764,48.5984844 29.2476514,48.7336188 C29.1861263,48.8687533 29.0739851,49.0076101 28.9112276,49.1501893 C28.7484701,49.2927686 28.5050663,49.4554358 28.1810161,49.6381908 L26.7877115,50.4667744 L27.0386069,51.1059384 C28.4519984,50.5142632 29.7305984,50.0037425 30.8744068,49.5743764 C32.0182153,49.1450102 33.1452441,48.7524989 34.2554935,48.3968424 L34.0045981,47.7576783 L31.3945732,48.4318763 C30.8289945,48.5830728 30.3824263,48.2414389 30.0548684,47.4069747 L25.3192181,35.3427531 L38.1204581,47.098781 Z" id="M" fill="#000000" fill-rule="nonzero"></path>
        </g>
    </g>
</svg>