<svg xmlns="http://www.w3.org/2000/svg" xmlns:xlink="http://www.w3.org/1999/xlink" width="96" height="96" viewBox="0 0 96 96">
  <defs>
    <filter id="com.apps.easytag-a" width="122.2%" height="122.4%" x="-11.1%" y="-11.2%" filterUnits="objectBoundingBox">
      <feOffset dy="2" in="SourceAlpha" result="shadowOffsetOuter1"/>
      <feGaussianBlur in="shadowOffsetOuter1" result="shadowBlurOuter1" stdDeviation="2"/>
      <feColorMatrix in="shadowBlurOuter1" result="shadowMatrixOuter1" values="0 0 0 0 0   0 0 0 0 0   0 0 0 0 0  0 0 0 0.2 0"/>
      <feMerge>
        <feMergeNode in="shadowMatrixOuter1"/>
        <feMergeNode in="SourceGraphic"/>
      </feMerge>
    </filter>
    <linearGradient id="com.apps.easytag-b" x1="65.472%" x2="30.038%" y1="-6.951%" y2="105.794%">
      <stop offset="0%" stop-color="#C9E834"/>
      <stop offset="100%" stop-color="#0C6F00"/>
    </linearGradient>
    <path id="com.apps.easytag-c" d="M56.4753825,0.671572875 C59.8832077,0.671572875 62.9987504,2.59633834 64.5238322,5.64386168 L72.0839836,20.7510766 C72.7097375,22.0015011 73.0355339,23.3805284 73.0355339,24.7787878 L73.0355339,67.6715729 C73.0355339,72.6421356 69.0060967,76.6715729 64.0355339,76.6715729 L29.0355339,76.6715729 C24.0649712,76.6715729 20.0355339,72.6421356 20.0355339,67.6715729 L20.0355339,24.7787878 C20.0355339,23.3805284 20.3613303,22.0015011 20.9870842,20.7510766 L28.5472357,5.64386168 C30.0723174,2.59633834 33.1878601,0.671572875 36.5956854,0.671572875 L56.4753825,0.671572875 Z M46.5910117,11 C44.1057303,11 42.0910117,13.0147186 42.0910117,15.5 C42.0910117,17.9852814 44.1057303,20 46.5910117,20 C49.0762931,20 51.0910117,17.9852814 51.0910117,15.5 C51.0910117,13.0147186 49.0762931,11 46.5910117,11 Z"/>
    <filter id="com.apps.easytag-d" width="101.9%" height="101.3%" x="-.9%" y="-.7%" filterUnits="objectBoundingBox">
      <feOffset dx="1" dy="-1" in="SourceAlpha" result="shadowOffsetInner1"/>
      <feComposite in="shadowOffsetInner1" in2="SourceAlpha" k2="-1" k3="1" operator="arithmetic" result="shadowInnerInner1"/>
      <feColorMatrix in="shadowInnerInner1" values="0 0 0 0 0.058584619   0 0 0 0 0.181612319   0 0 0 0 0  0 0 0 0.335063374 0"/>
    </filter>
    <linearGradient id="com.apps.easytag-e" x1="50%" x2="50%" y1="0%" y2="100%">
      <stop offset="0%" stop-color="#FFF"/>
      <stop offset="100%" stop-color="#FFF" stop-opacity=".802"/>
    </linearGradient>
    <linearGradient id="com.apps.easytag-h" x1="76.432%" x2="16.402%" y1="18.282%" y2="100%">
      <stop offset="0%" stop-color="#E0E0E0"/>
      <stop offset="100%" stop-color="#BEBEBE"/>
    </linearGradient>
    <path id="com.apps.easytag-g" d="M46.5910117,8 C50.7331473,8 54.0910117,11.3578644 54.0910117,15.5 C54.0910117,19.6421356 50.7331473,23 46.5910117,23 C42.4488761,23 39.0910117,19.6421356 39.0910117,15.5 C39.0910117,11.3578644 42.4488761,8 46.5910117,8 Z M46.5910117,11 C44.1057303,11 42.0910117,13.0147186 42.0910117,15.5 C42.0910117,17.9852814 44.1057303,20 46.5910117,20 C49.0762931,20 51.0910117,17.9852814 51.0910117,15.5 C51.0910117,13.0147186 49.0762931,11 46.5910117,11 Z"/>
    <filter id="com.apps.easytag-f" width="193.3%" height="193.3%" x="-46.7%" y="-33.3%" filterUnits="objectBoundingBox">
      <feOffset dy="2" in="SourceAlpha" result="shadowOffsetOuter1"/>
      <feGaussianBlur in="shadowOffsetOuter1" result="shadowBlurOuter1" stdDeviation="2"/>
      <feColorMatrix in="shadowBlurOuter1" values="0 0 0 0 0   0 0 0 0 0   0 0 0 0 0  0 0 0 0.5 0"/>
    </filter>
    <linearGradient id="com.apps.easytag-i" x1="50%" x2="50%" y1=".764%" y2="110.537%">
      <stop offset="0%" stop-opacity=".065"/>
      <stop offset="100%" stop-opacity=".15"/>
    </linearGradient>
    <linearGradient id="com.apps.easytag-j" x1="50%" x2="50%" y1="0%" y2="100%">
      <stop offset="0%" stop-color="#203500"/>
      <stop offset="100%"/>
    </linearGradient>
    <linearGradient id="com.apps.easytag-k" x1="0%" x2="100%" y1="11.153%" y2="102.203%">
      <stop offset="0%" stop-color="#FFF" stop-opacity="0"/>
      <stop offset="34.831%" stop-color="#FFF" stop-opacity=".862"/>
      <stop offset="65.538%" stop-color="#FFF" stop-opacity=".465"/>
      <stop offset="100%" stop-color="#FFF" stop-opacity="0"/>
    </linearGradient>
  </defs>
  <g fill="none" fill-rule="evenodd" filter="url(#com.apps.easytag-a)" transform="translate(-13.364 .121)">
    <g transform="rotate(-45 63.607 25.48)">
      <use fill="url(#com.apps.easytag-b)" xlink:href="#com.apps.easytag-c"/>
      <use fill="#000" filter="url(#com.apps.easytag-d)" xlink:href="#com.apps.easytag-c"/>
      <path fill="url(#com.apps.easytag-e)" d="M42.7228476,15.5 L73.0353789,30.69 L73.0353789,49.984 L62.6066367,63.6523437 L36.5963828,49.4125977 L31.251168,56.5834961 L56.5709922,71.0698242 L52.2213789,76.671 L41.2713789,76.671 L20.0353789,63.867 L20.0353789,45.159 L42.7228476,15.5 Z M49.7179648,31.9492188 L42.7228476,41 L55.6725547,48 L62.6613242,39 L49.7179648,31.9492188 Z"/>
      <use fill="#000" filter="url(#com.apps.easytag-f)" xlink:href="#com.apps.easytag-g"/>
      <use fill="url(#com.apps.easytag-h)" xlink:href="#com.apps.easytag-g"/>
      <path fill="url(#com.apps.easytag-i)" fill-rule="nonzero" d="M46.5910117,7 C51.2854321,7 55.0910117,10.8055796 55.0910117,15.5 C55.0910117,20.1944204 51.2854321,24 46.5910117,24 C41.8965913,24 38.0910117,20.1944204 38.0910117,15.5 C38.0910117,10.8055796 41.8965913,7 46.5910117,7 Z M46.5910117,8 C42.4488761,8 39.0910117,11.3578644 39.0910117,15.5 C39.0910117,19.5609173 42.3184861,22.8680175 46.3482806,22.9961464 L46.5910117,23 L46.8337428,22.9961464 C50.8635373,22.8680175 54.0910117,19.5609173 54.0910117,15.5 C54.0910117,11.3578644 50.7331473,8 46.5910117,8 Z"/>
      <path fill="url(#com.apps.easytag-j)" fill-rule="nonzero" d="M11.8663833,23.7887121 C21.9837294,16.8083804 33.8579948,13.6592184 43.6554027,14.5036941 C44.2056473,14.5511218 44.6132609,15.0356308 44.5658332,15.5858754 C44.5184056,16.1361199 44.0338965,16.5437335 43.4836519,16.4963059 C34.149276,15.6917406 22.7372773,18.7183054 12.9695507,25.4564928 C3.22564267,31.6312754 0.738037957,36.7511913 5.10174986,41.1018973 C8.02078266,44.0122299 12.8998935,42.924346 19.9368029,37.4198695 C20.0045922,37.3668427 20.0559986,37.3154363 20.0910222,37.2656502 L20.1014165,39.8088743 C12.8905724,45.1564784 7.36285436,46.1804778 3.68964854,42.5182199 C-1.88997383,36.9552275 1.23395267,30.5256525 11.8663833,23.7887121 Z"/>
      <path fill="url(#com.apps.easytag-k)" fill-rule="nonzero" d="M42.1008266,3.556056 L42.0811968,2.55624869 L44.1840764,2.51999342 C53.6899703,2.3804429 58.8978833,2.65740383 60.1286525,3.41560349 C61.842023,4.47110348 68.1761374,15.5901987 69.8700349,19.9482552 L70.1233362,20.6142147 C70.4754313,21.5636232 70.7061846,22.303796 70.8697777,23.0190444 L70.9218956,23.2567902 C71.2164366,24.661052 71.2727282,25.6692606 71.2784696,29.2925905 L71.279,30.0273438 L70.279,30.0273438 L70.2713001,27.7755935 C70.2497636,25.4286087 70.1744698,24.5647152 69.9431925,23.4620712 C69.7571686,22.5751786 69.4647852,21.6659358 68.9379651,20.3105338 C67.3258093,16.1627823 61.0602442,5.16402061 59.6041521,4.2670137 C58.6322793,3.66830385 53.5382092,3.39697872 44.6258962,3.51435962 L42.1008266,3.556056 Z"/>
    </g>
  </g>
</svg>
