<svg xmlns="http://www.w3.org/2000/svg" width="96" height="96" viewBox="0 0 96 96">
  <defs>
    <filter id="爱奇艺-a" width="130.8%" height="130.8%" x="-15.4%" y="-15.4%" filterUnits="objectBoundingBox">
      <feOffset dy="2" in="SourceAlpha" result="shadowOffsetOuter1"/>
      <feGaussianBlur in="shadowOffsetOuter1" result="shadowBlurOuter1" stdDeviation="2"/>
      <feColorMatrix in="shadowBlurOuter1" result="shadowMatrixOuter1" values="0 0 0 0 0   0 0 0 0 0   0 0 0 0 0  0 0 0 0.2 0"/>
      <feMerge>
        <feMergeNode in="shadowMatrixOuter1"/>
        <feMergeNode in="SourceGraphic"/>
      </feMerge>
    </filter>
    <linearGradient id="爱奇艺-b" x1="50%" x2="50%" y1="2.879%" y2="104.609%">
      <stop offset="0%" stop-color="#9EDC1C"/>
      <stop offset="100%" stop-color="#00A82A"/>
    </linearGradient>
  </defs>
  <g fill="none" fill-rule="evenodd">
    <g filter="url(#爱奇艺-a)" transform="translate(8 9)">
      <path fill="url(#爱奇艺-b)" d="M18,0 L60,0 C69.9411255,0 78,8.0588745 78,18 L78,60 C78,69.9411255 69.9411255,78 60,78 L18,78 C8.0588745,78 0,69.9411255 0,60 L0,18 C0,8.0588745 8.0588745,0 18,0 Z"/>
      <path fill="#FFF" d="M11.5,32 L15.5,32 C15.7761424,32 16,31.7761424 16,31.5 L16,27.5 C16,27.2238576 15.7761424,27 15.5,27 L11.5,27 C11.2238576,27 11,27.2238576 11,27.5 L11,31.5 C11,31.7761424 11.2238576,32 11.5,32 Z"/>
      <path fill="#FFF" d="M11.5,50 L15.5,50 C15.7761424,50 16,49.7761424 16,49.5 L16,35.5 C16,35.2238576 15.7761424,35 15.5,35 L11.5,35 C11.2238576,35 11,35.2238576 11,35.5 L11,49.5 C11,49.7761424 11.2238576,50 11.5,50 Z" transform="matrix(1 0 0 -1 0 85)"/>
      <path fill="#FFF" d="M62.5 50L66.5 50C66.7761424 50 67 49.7761424 67 49.5L67 27.5C67 27.2238576 66.7761424 27 66.5 27L62.5 27C62.2238576 27 62 27.2238576 62 27.5L62 49.5C62 49.7761424 62.2238576 50 62.5 50zM37.5 50L41.5 50C41.7761424 50 42 49.7761424 42 49.5L42 27.5C42 27.2238576 41.7761424 27 41.5 27L37.5 27C37.2238576 27 37 27.2238576 37 27.5L37 49.5C37 49.7761424 37.2238576 50 37.5 50z" transform="matrix(1 0 0 -1 0 77)"/>
      <path fill="#FFF" d="M44.7577532 27L48.7579017 27C49.162925 27 49.527951 27.2443096 49.6823699 27.6187407L52.5100455 34.4752196 52.5100455 34.4752196 55.3377211 27.6187407C55.4921399 27.2443096 55.857166 27 56.2621892 27L60.2422468 27C60.5183892 27 60.7422468 27.2238576 60.7422468 27.5 60.7422468 27.567608 60.7285357 27.6345137 60.7019425 27.6966719L55 41.0242456 55 41.0242456 55 49.5C55 49.7761424 54.7761424 50 54.5 50L50.5 50C50.2238576 50 50 49.7761424 50 49.5L50 41.0242456 50 41.0242456 44.2980575 27.6966719C44.1894386 27.4427889 44.3071984 27.1489231 44.5610814 27.0403043 44.6232395 27.0137111 44.6901453 27 44.7577532 27zM26.5 26C29.4176025 26 33.0439097 27.5548619 33 29.5092773L33 29.5092773 33 46.4835205C33 47.6801351 32.1291097 48.6212565 30.3873291 49.3068848L30.3873291 49.3068848 33.1385498 49.3068848C33.4146922 49.3068848 33.6385498 49.5307424 33.6385498 49.8068848L33.6385498 49.8068848 33.6385498 51.5321045C33.6385498 51.8082469 33.4146922 52.0321045 33.1385498 52.0321045L33.1385498 52.0321045 30 52.0321045C28.7590012 52.0321045 28.036688 51.296451 28 50.0321045L28 50.0321045 26 50.0321045C22.8001307 50.0368668 20 48.4846191 20 46.4835205L20 46.4835205 20 29.5092773C20 27.5092773 23.5823975 26 26.5 26zM26.5 28.6417236C25.6715729 28.6417236 25 29.3132965 25 30.1417236L25 30.1417236 25 45.9188232C25 46.7472504 25.6715729 47.4188232 26.5 47.4188232 27.3284271 47.4188232 28 46.7472504 28 45.9188232L28 45.9188232 28 30.1417236C28 29.3132965 27.3284271 28.6417236 26.5 28.6417236z"/>
    </g>
    <path fill="#FFF" d="M19.5507967,34 L23.7677826,34 C23.9941389,33.9999476 24.192254,33.8478632 24.2507486,33.6291955 C24.6891421,31.9903674 25.2400854,31.009691 25.9035787,30.6871662 C26.9717347,30.1679344 39.8624488,28.3869019 47.1994153,28.3869019 C54.5363819,28.3869019 66.834745,29.6794519 68.2107989,30.6871662 C69.0567425,31.3066692 69.6911875,32.293919 70.1141337,33.6489156 C70.1792603,33.857779 70.3726412,34 70.5914228,34 L74.4834746,34 C74.7595631,33.9999025 74.9833771,33.7760885 74.9833771,33.5 C74.9833771,33.4913945 74.9831549,33.4827904 74.9827107,33.4741964 C74.849212,30.8913216 74.0084367,28.8990327 72.4603851,27.4973297 C69.9831086,25.2542483 59.1014903,24 46.3655028,24 C35.112088,24 24.7757945,25.826617 22.1274938,27.1067595 C20.4508401,27.9172246 19.4262569,30.0302495 19.0537441,33.445834 C19.023851,33.7203292 19.222101,33.9671162 19.4965915,33.9970529 C19.5145932,33.9990162 19.5326882,34 19.5507967,34 Z"/>
    <path fill="#FFF" d="M19.5507967,71 L23.7677826,71 C23.9941389,70.9999476 24.192254,70.8478632 24.2507486,70.6291955 C24.6891421,68.9903674 25.2400854,68.009691 25.9035787,67.6871662 C26.9717347,67.1679344 39.8624488,65.3869019 47.1994153,65.3869019 C54.5363819,65.3869019 66.834745,66.6794519 68.2107989,67.6871662 C69.0567425,68.3066692 69.6911875,69.293919 70.1141337,70.6489156 C70.1792603,70.857779 70.3726412,71 70.5914228,71 L74.4834746,71 C74.7595631,70.9999025 74.9833771,70.7760885 74.9833771,70.5 C74.9833771,70.4913945 74.9831549,70.4827904 74.9827107,70.4741964 C74.849212,67.8913216 74.0084367,65.8990327 72.4603851,64.4973297 C69.9831086,62.2542483 59.1014903,61 46.3655028,61 C35.112088,61 24.7757945,62.826617 22.1274938,64.1067595 C20.4508401,64.9172246 19.4262569,67.0302495 19.0537441,70.445834 C19.023851,70.7203292 19.222101,70.9671162 19.4965915,70.9970529 C19.5145932,70.9990162 19.5326882,71 19.5507967,71 Z" transform="matrix(1 0 0 -1 0 132)"/>
  </g>
</svg>
