<svg xmlns="http://www.w3.org/2000/svg" width="96" height="96" viewBox="0 0 96 96">
  <defs>
    <filter id="com.apps.headset-a" width="129.4%" height="128.6%" x="-14.7%" y="-14.3%" filterUnits="objectBoundingBox">
      <feOffset dy="2" in="SourceAlpha" result="shadowOffsetOuter1"/>
      <feGaussianBlur in="shadowOffsetOuter1" result="shadowBlurOuter1" stdDeviation="2"/>
      <feColorMatrix in="shadowBlurOuter1" result="shadowMatrixOuter1" values="0 0 0 0 0   0 0 0 0 0   0 0 0 0 0  0 0 0 0.2 0"/>
      <feMerge>
        <feMergeNode in="shadowMatrixOuter1"/>
        <feMergeNode in="SourceGraphic"/>
      </feMerge>
    </filter>
    <linearGradient id="com.apps.headset-b" x1="50%" x2="50%" y1="2.04%" y2="98.193%">
      <stop offset="0%" stop-color="#74FDE5"/>
      <stop offset="100%" stop-color="#00A8D4"/>
    </linearGradient>
  </defs>
  <g fill="none" fill-rule="evenodd" filter="url(#com.apps.headset-a)" transform="translate(3.795 6)">
    <circle cx="44.205" cy="42" r="42" fill="url(#com.apps.headset-b)"/>
    <path stroke="#FFF" stroke-linecap="round" stroke-linejoin="round" stroke-width="2" d="M0,44.8256836 L12.5009766,44.8256836 C13.9567057,48.0838216 14.9436849,49.3310547 15.4619141,48.5673828 C16.2392578,47.421875 17.890625,38.748291 18.7111816,40.9499512 C19.5317383,43.1516113 21.1015625,51.8608398 22.418457,50.2141113 C23.7353516,48.5673828 25.4587402,15.3520508 27.309082,15.7211914 C30.0983887,15.798584 30.5227051,69.3432617 32.4714355,69.3432617 C36.1647949,70.7802734 34.7131348,30.71875 35.3496094,25.4812012 C35.986084,20.2436523 38.6035156,19.8532715 39.0209961,26.0388184 C39.4384766,32.2243652 40.4587402,63.371582 42.6525879,64.1599121 C44.8464355,64.9482422 46.1181641,35.0461426 46.1181641,31.809082 C46.1181641,28.5720215 47.4643555,25.4812012 48.5024414,28.4624023 C49.5405273,31.4436035 49.2744141,58.7851563 52.9848633,58.7851563 C56.6953125,58.7851563 55.1105957,35.6977539 56.7775879,34.144043 C58.4445801,32.590332 60.1025391,34.2805176 60.1025391,37.6152344 C60.1025391,40.9499512 59.6201172,53.2817383 62.0129395,53.2817383 C64.4057617,53.2817383 63.6740723,43.2819824 64.949707,40.9499512 C66.2253418,38.6179199 68.6047363,38.1237793 68.6047363,40.9499512 C68.6047363,43.776123 68.0212402,48.5673828 69.9768066,48.5673828 C71.932373,48.5673828 71.1218262,43.4345703 73.1560059,43.4345703 C75.1901855,43.4345703 74.9797363,46.5263672 76.2351074,47.0158691 C77.4904785,47.5053711 80.1723633,44.8256836 80.6657715,44.8256836 C80.9947103,44.8256836 83.577474,44.8256836 88.4140625,44.8256836"/>
  </g>
</svg>
