<svg xmlns="http://www.w3.org/2000/svg" xmlns:xlink="http://www.w3.org/1999/xlink" width="96" height="96" viewBox="0 0 96 96">
  <defs>
    <filter id="com.apps.panwriter-a" width="128.9%" height="128.6%" x="-14.5%" y="-14.3%" filterUnits="objectBoundingBox">
      <feOffset dy="2" in="SourceAlpha" result="shadowOffsetOuter1"/>
      <feGaussianBlur in="shadowOffsetOuter1" result="shadowBlurOuter1" stdDeviation="2"/>
      <feColorMatrix in="shadowBlurOuter1" result="shadowMatrixOuter1" values="0 0 0 0 0   0 0 0 0 0   0 0 0 0 0  0 0 0 0.2 0"/>
      <feMerge>
        <feMergeNode in="shadowMatrixOuter1"/>
        <feMergeNode in="SourceGraphic"/>
      </feMerge>
    </filter>
    <linearGradient id="com.apps.panwriter-b" x1="96.627%" x2="23.785%" y1="26.404%" y2="95.195%">
      <stop offset="0%" stop-color="#787878"/>
      <stop offset="39.548%" stop-color="#EAEAEA"/>
      <stop offset="100%" stop-color="#6B6B6B"/>
    </linearGradient>
    <radialGradient id="com.apps.panwriter-c" cx="50%" cy="0%" r="100%" fx="50%" fy="0%">
      <stop offset="0%" stop-color="#F3F0E9"/>
      <stop offset="100%" stop-color="#E3DDCE"/>
    </radialGradient>
    <path id="com.apps.panwriter-d" d="M40,0 C62.09139,0 80,17.90861 80,40 C80,62.09139 62.09139,80 40,80 C17.90861,80 0,62.09139 0,40 C0,17.90861 17.90861,0 40,0 Z M40,6 C21.2223185,6 6,21.2223185 6,40 C6,58.7776815 21.2223185,74 40,74 C58.7776815,74 74,58.7776815 74,40 C74,21.2223185 58.7776815,6 40,6 Z"/>
    <filter id="com.apps.panwriter-e" width="105%" height="105%" x="-2.5%" y="-2.5%" filterUnits="objectBoundingBox">
      <feGaussianBlur in="SourceAlpha" result="shadowBlurInner1" stdDeviation="1.5"/>
      <feOffset dy="1" in="shadowBlurInner1" result="shadowOffsetInner1"/>
      <feComposite in="shadowOffsetInner1" in2="SourceAlpha" k2="-1" k3="1" operator="arithmetic" result="shadowInnerInner1"/>
      <feColorMatrix in="shadowInnerInner1" values="0 0 0 0 0   0 0 0 0 0   0 0 0 0 0  0 0 0 0.5 0"/>
    </filter>
    <circle id="com.apps.panwriter-f" cx="40" cy="40" r="34"/>
    <filter id="com.apps.panwriter-g" width="107.4%" height="107.4%" x="-3.7%" y="-3.7%" filterUnits="objectBoundingBox">
      <feGaussianBlur in="SourceAlpha" result="shadowBlurInner1" stdDeviation="2.5"/>
      <feOffset in="shadowBlurInner1" result="shadowOffsetInner1"/>
      <feComposite in="shadowOffsetInner1" in2="SourceAlpha" k2="-1" k3="1" operator="arithmetic" result="shadowInnerInner1"/>
      <feColorMatrix in="shadowInnerInner1" values="0 0 0 0 0.17254902   0 0 0 0 0.125490196   0 0 0 0 0.121568627  0 0 0 1 0"/>
    </filter>
    <linearGradient id="com.apps.panwriter-h" x1="50%" x2="50%" y1="0%" y2="99.079%">
      <stop offset="0%" stop-color="#4F4F4F"/>
      <stop offset="100%" stop-color="#363333"/>
    </linearGradient>
  </defs>
  <g fill="none" fill-rule="evenodd" filter="url(#com.apps.panwriter-a)" transform="translate(7 7)">
    <circle cx="43" cy="44" r="40" fill="url(#com.apps.panwriter-b)"/>
    <use fill="url(#com.apps.panwriter-c)" xlink:href="#com.apps.panwriter-d"/>
    <use fill="#000" filter="url(#com.apps.panwriter-e)" xlink:href="#com.apps.panwriter-d"/>
    <use fill="#F8E4BF" xlink:href="#com.apps.panwriter-f"/>
    <use fill="#000" filter="url(#com.apps.panwriter-g)" xlink:href="#com.apps.panwriter-f"/>
    <path fill="#000" fill-opacity=".205" fill-rule="nonzero" d="M40,6 C58.7776815,6 74,21.2223185 74,40 C74,58.7776815 58.7776815,74 40,74 C21.2223185,74 6,58.7776815 6,40 C6,21.2223185 21.2223185,6 40,6 Z M40,7 C21.7746033,7 7,21.7746033 7,40 C7,58.2253967 21.7746033,73 40,73 C58.2253967,73 73,58.2253967 73,40 C73,21.7746033 58.2253967,7 40,7 Z"/>
    <path fill="url(#com.apps.panwriter-h)" d="M44.5,24 C50.2989899,24 55,28.7010101 55,34.5 C55,40.2989899 50.2989899,45 44.5,45 L33,45 L33,54.5 C33,55.8807119 31.8807119,57 30.5,57 L29.5,57 C28.1192881,57 27,55.8807119 27,54.5 L27,28 C27,25.790861 28.790861,24 31,24 L44.5,24 Z M44.5,30 L33,30 L33,39 L44.5,39 C46.9852814,39 49,36.9852814 49,34.5 C49,32.0147186 46.9852814,30 44.5,30 L44.5,30 Z"/>
  </g>
</svg>
