<svg xmlns="http://www.w3.org/2000/svg" width="96" height="96" viewBox="0 0 96 96">
  <defs>
    <filter id="com.apps.phreshplayer-b" width="136.4%" height="127.2%" x="-18.2%" y="-13.6%" filterUnits="objectBoundingBox">
      <feOffset dy="2" in="SourceAlpha" result="shadowOffsetOuter1"/>
      <feGaussianBlur in="shadowOffsetOuter1" result="shadowBlurOuter1" stdDeviation="2"/>
      <feColorMatrix in="shadowBlurOuter1" result="shadowMatrixOuter1" values="0 0 0 0 0   0 0 0 0 0   0 0 0 0 0  0 0 0 0.2 0"/>
      <feMerge>
        <feMergeNode in="shadowMatrixOuter1"/>
        <feMergeNode in="SourceGraphic"/>
      </feMerge>
    </filter>
    <linearGradient id="com.apps.phreshplayer-a" x1="50%" x2="50%" y1="0%" y2="100%">
      <stop offset="0%" stop-color="#47A24E"/>
      <stop offset="100%" stop-color="#226926"/>
    </linearGradient>
  </defs>
  <g fill="url(#com.apps.phreshplayer-a)" fill-rule="evenodd" filter="url(#com.apps.phreshplayer-b)" transform="translate(18 4.769)">
    <path d="M15,-1.70530257e-13 C17.5968629,-1.70530257e-13 20.1492428,0.6741843 22.4073743,1.95657999 L58.2785527,22.3278665 C65.4822346,26.4188463 68.0055783,35.5749788 63.9145984,42.7786608 C62.6019066,45.0901398 60.6985372,47.0112656 58.3993467,48.3453638 L24.4924406,68.0069418 C22.9502316,68.9012216 22.0008298,70.5489867 22.0006084,72.331722 L22,77.2314044 C22,83.3065367 17.0751322,88.2314044 11,88.2314044 C4.92486775,88.2314044 0,83.3065367 0,77.2314044 L0,15 C0,6.71572875 6.71572875,-1.70530257e-13 15,-1.70530257e-13 Z M26,23.0584745 C22.6862915,23.0584745 20,25.744766 20,29.0584745 L20,29.0584745 L20,42.4896782 C20,43.5412508 20.2763715,44.5743559 20.8014202,45.4854699 C22.4559503,48.3565663 26.1246954,49.3427881 28.9957917,47.688258 L28.9957917,47.688258 L40.5532005,41.0280563 C41.4559636,40.50782 42.2076909,39.7614611 42.7343841,38.8624497 C44.4094489,36.0032852 43.4495464,32.327566 40.5903819,30.6525012 L40.5903819,30.6525012 L29.0329732,23.8814992 C28.113061,23.3425611 27.0661579,23.0584745 26,23.0584745 Z"/>
  </g>
</svg>
