<svg xmlns="http://www.w3.org/2000/svg" width="96" height="96" viewBox="0 0 96 96">
  <defs>
    <filter id="com.apps.leafview-a" width="127.8%" height="128.1%" x="-13.9%" y="-14%" filterUnits="objectBoundingBox">
      <feOffset dy="2" in="SourceAlpha" result="shadowOffsetOuter1"/>
      <feGaussianBlur in="shadowOffsetOuter1" result="shadowBlurOuter1" stdDeviation="2"/>
      <feColorMatrix in="shadowBlurOuter1" result="shadowMatrixOuter1" values="0 0 0 0 0   0 0 0 0 0   0 0 0 0 0  0 0 0 0.2 0"/>
      <feMerge>
        <feMergeNode in="shadowMatrixOuter1"/>
        <feMergeNode in="SourceGraphic"/>
      </feMerge>
    </filter>
    <linearGradient id="com.apps.leafview-b" x1="50%" x2="50%" y1="0%" y2="100%">
      <stop offset="0%" stop-color="#24E7A7"/>
      <stop offset="100%" stop-color="#04A4F9"/>
    </linearGradient>
    <linearGradient id="com.apps.leafview-c" x1="63.985%" x2="40.654%" y1="-6.26%" y2="109.421%">
      <stop offset="0%" stop-color="#24E7A7"/>
      <stop offset="100%" stop-color="#6AFFB3"/>
    </linearGradient>
  </defs>
  <g fill="none" fill-rule="evenodd" filter="url(#com.apps.leafview-a)" transform="translate(5.549 5.36)">
    <path fill="url(#com.apps.leafview-b)" d="M4.54548515,28.8739149 C7.12099426,23.6723604 11.3954389,20.0098633 15.9308342,16.6781487 C26.6151082,8.83033448 38.8954076,4.34271888 51.3420172,0.268581379 C53.7300829,-0.513351642 54.5846043,0.426621896 53.7705118,2.89830207 C52.0118517,8.23860138 52.1845936,13.6965122 52.5796949,19.2407941 C53.1502947,27.2521619 53.3506019,35.2956891 51.49822,43.2188483 C50.2798379,48.4341853 48.2023402,53.2286935 44.5214663,57.2201354 L43.9233013,57.9120221 L43.9233013,57.9120221 L43.6165235,58.2694509 L43.6165235,58.2694509 L43.3108024,58.6266041 C36.6161326,66.5093343 27.6170116,70.0725967 17.8607662,72.2318712 C13.9382373,73.1001752 13.4218491,72.7556101 13.6607476,68.6970929 C14.1330315,60.6848062 15.1538629,52.7708355 18.6022703,45.3815225 C19.8625515,39.9891249 23.4910515,35.5906368 25.1596653,30.3247636 C23.241421,31.3450437 22.0589545,32.9381392 20.940002,34.5652272 L20.3128585,35.4804976 C19.9982047,35.9363735 19.6786043,36.3869467 19.3391011,36.8202299 L18.9928692,37.2476733 L18.9928692,37.2476733 C11.3416868,51.4474299 7.86479541,66.7222296 7.21517538,82.7376145 C7.17382757,83.758446 7.7205375,85.3765236 5.99036138,85.4380859 C4.45865475,85.4932163 3.32388708,84.3492602 3.29815956,82.8350116 C3.24946103,79.980175 3.27610739,77.087666 3.68682897,74.2714208 C4.17932732,70.9011149 3.91102598,67.7531683 2.92786695,64.4729088 C-0.0372304123,54.5705678 -1.35576612,44.5460211 1.89784708,34.4038628 C2.52725262,32.4439766 3.21362626,30.5015484 4.54502573,28.8742824 L4.9002653,29.2705401 L4.9002653,29.2705401 L4.54548515,28.8739149 L4.54548515,28.8739149 Z"/>
    <path fill="url(#com.apps.leafview-c)" d="M28.3783626,75.6409521 C33.2665925,73.002043 38.1548224,70.8262294 42.4219164,67.4917583 C52.320582,59.7569614 57.4908959,49.5357828 58.3895216,37.1296023 C58.7037649,32.7926765 58.6559853,28.4180782 58.5558317,24.066451 C58.5071331,21.950362 58.9628779,20.909316 61.3178654,20.8541856 C68.8863522,20.6759306 76.4447318,20.6547973 83.9884099,21.3917071 C85.8536555,21.5736375 87.139113,22.3399502 85.5164412,24.1721176 C80.9433735,29.3323243 79.2912987,35.8165796 77.1430503,42.0702061 C75.0159352,48.2650268 72.6756492,54.3541809 69.1436274,59.9058135 C62.5831083,70.2179572 53.097002,75.6161434 40.9729054,76.4486127 C36.7692114,76.7371285 32.5719493,76.5855199 28.3783626,75.6409521"/>
    <path fill="#32ACD1" d="M43.9233013,57.9120221 C44.1226896,57.6813932 44.3229968,57.4507643 44.5214663,57.2201354 C44.3220779,57.4507643 44.1226896,57.6813932 43.9233013,57.9120221"/>
  </g>
</svg>
