<svg xmlns="http://www.w3.org/2000/svg" width="96" height="96" viewBox="0 0 96 96">
  <defs>
    <filter id="com.apps.mixxx-a" width="126.1%" height="146.2%" x="-13%" y="-23.1%" filterUnits="objectBoundingBox">
      <feOffset dy="2" in="SourceAlpha" result="shadowOffsetOuter1"/>
      <feGaussianBlur in="shadowOffsetOuter1" result="shadowBlurOuter1" stdDeviation="2"/>
      <feColorMatrix in="shadowBlurOuter1" result="shadowMatrixOuter1" values="0 0 0 0 0   0 0 0 0 0   0 0 0 0 0  0 0 0 0.2 0"/>
      <feMerge>
        <feMergeNode in="shadowMatrixOuter1"/>
        <feMergeNode in="SourceGraphic"/>
      </feMerge>
    </filter>
    <linearGradient id="com.apps.mixxx-b" x1="50%" x2="50%" y1="1.672%" y2="100%">
      <stop offset="0%" stop-color="#62FF81"/>
      <stop offset="100%" stop-color="#3986B5"/>
    </linearGradient>
    <linearGradient id="com.apps.mixxx-c" x1="50%" x2="50%" y1="5.234%" y2="100%">
      <stop offset="0%" stop-color="#8D0092"/>
      <stop offset="100%" stop-color="#F10037"/>
    </linearGradient>
    <linearGradient id="com.apps.mixxx-d" x1="50%" x2="50%" y1="1.09%" y2="100%">
      <stop offset="0%" stop-color="#FF161D"/>
      <stop offset="100%" stop-color="#FF7B00"/>
    </linearGradient>
    <linearGradient id="com.apps.mixxx-e" x1="50%" x2="50%" y1="0%" y2="100%">
      <stop offset="0%" stop-color="#CBCBCB"/>
      <stop offset="100%" stop-color="#9CA1A4"/>
    </linearGradient>
    <linearGradient id="com.apps.mixxx-f" x1="50%" x2="50%" y1="0%" y2="100%">
      <stop offset="0%" stop-color="#707070"/>
      <stop offset="100%" stop-color="#6E6E6E"/>
    </linearGradient>
  </defs>
  <g fill="none" fill-rule="evenodd" filter="url(#com.apps.mixxx-a)" transform="translate(2 22)">
    <path fill="#FFF" d="M12,0 L80,0 C86.627417,-1.21743675e-15 92,5.372583 92,12 L92,40 C92,46.627417 86.627417,52 80,52 L12,52 C5.372583,52 8.11624501e-16,46.627417 0,40 L0,12 C-8.11624501e-16,5.372583 5.372583,1.21743675e-15 12,0 Z"/>
    <polygon fill="url(#com.apps.mixxx-b)" points="68.752 15 75.661 15 90.38 37 83.604 37" transform="matrix(-1 0 0 1 159.132 0)"/>
    <polygon fill="url(#com.apps.mixxx-c)" points="53.184 15 60.02 15 74.738 37 67.981 37" transform="matrix(-1 0 0 1 127.922 0)"/>
    <polygon fill="url(#com.apps.mixxx-d)" points="39.115 15 46.024 15 60.742 37 53.985 37" transform="matrix(-1 0 0 1 99.857 0)"/>
    <path fill="url(#com.apps.mixxx-e)" d="M8,15 L15.0605469,26 L22,15 L28,15 L28,37 L22,37 L22,23.931 L15.0605469,35.1254883 L8,24.734 L8,37 L2,37 L2,15 L8,15 Z M36,15 L36,37 L30,37 L30,15 L36,15 Z M45.1901855,15 L59.9086914,37 L53.151123,37 L38.2814941,15 L45.1901855,15 Z M60.8100586,15 L75.5285645,37 L68.7709961,37 L53.9013672,15 L60.8100586,15 Z M74.7382812,15 L89.4567871,37 L82.6992188,37 L67.8295898,15 L74.7382812,15 Z"/>
    <path fill="url(#com.apps.mixxx-f)" d="M27.9991623,26.6669967 L28,37 L22,37 L21.999752,27.215434 C23.9589658,27.0071172 25.9603324,26.8238547 27.9991623,26.6669967 Z M7.99931192,29.2587315 L8,37 L2,37 L1.99818674,30.5414286 C3.9133294,30.0835864 5.91650161,29.6552154 7.99931192,29.2587315 Z M35.9993562,26.1974086 L36,37 L30,37 L29.9992344,26.5224394 C31.967897,26.3892527 33.9692966,26.2805178 35.9993562,26.1974086 Z M45.7283936,26 C48.0531121,26 50.3507831,26.0333435 52.6159524,26.0984602 L59.9086914,37 L53.151123,37 L45.7161829,26 Z M61.70162,26.5390881 C64.1716409,26.7089626 66.5897188,26.9173588 68.947768,27.1619486 L75.5285645,37 L68.7709961,37 Z M76.7027184,28.1268025 C79.3740558,28.5174102 81.9445151,28.9569656 84.3998548,29.4413683 L89.4567871,37 L82.6992188,37 Z M19.8118722,27.4605002 L15.0605469,35.1254883 L10.7366782,28.7639415 C13.6308058,28.2678246 16.6626939,27.8313795 19.8118722,27.4605002 Z"/>
    <path fill="#101010" fill-opacity=".116" fill-rule="nonzero" d="M8,37 L2,37 L2,15 L8,15 L15.0605469,26 L22,15 L28,15 L28,37 L22,37 L22,23.931 L15.0605469,35.1254883 L8,24.734 L8,37 Z M36,15 L36,37 L30,37 L30,15 L36,15 Z M45.1901855,15 L59.9086914,37 L53.151123,37 L38.2814941,15 L45.1901855,15 Z M60.8100586,15 L75.5285645,37 L68.7709961,37 L53.9013672,15 L60.8100586,15 Z M74.7382812,15 L89.4567871,37 L82.6992188,37 L67.8295898,15 L74.7382812,15 Z M7.453,16 L3,16 L3,36 L7,36 L7,21.4828775 L15.022,33.289 L23,20.4198606 L23,36 L27,36 L27,16 L22.55,16 L15.0678443,27.8626436 L7.453,16 Z M35,16 L31,16 L31,36 L35,36 L35,16 Z M44.656,16 L40.163,16 L53.682,36 L58.036,36 L44.656,16 Z M60.275,16 L55.783,16 L69.302,36 L73.656,36 L60.275,16 Z M74.204,16 L69.712,16 L83.23,36 L87.584,36 L74.204,16 Z"/>
  </g>
</svg>
