<svg xmlns="http://www.w3.org/2000/svg" width="96" height="96" viewBox="0 0 96 96">
  <defs>
    <filter id="com.apps.klettres-a" width="130%" height="128.9%" x="-15%" y="-14.5%" filterUnits="objectBoundingBox">
      <feOffset dy="2" in="SourceAlpha" result="shadowOffsetOuter1"/>
      <feGaussianBlur in="shadowOffsetOuter1" result="shadowBlurOuter1" stdDeviation="2"/>
      <feColorMatrix in="shadowBlurOuter1" result="shadowMatrixOuter1" values="0 0 0 0 0   0 0 0 0 0   0 0 0 0 0  0 0 0 0.2 0"/>
      <feMerge>
        <feMergeNode in="shadowMatrixOuter1"/>
        <feMergeNode in="SourceGraphic"/>
      </feMerge>
    </filter>
    <linearGradient id="com.apps.klettres-b" x1="50%" x2="50%" y1="0%" y2="100%">
      <stop offset="0%" stop-color="#EEE"/>
      <stop offset="100%" stop-color="#DDD"/>
    </linearGradient>
    <linearGradient id="com.apps.klettres-c" x1="50%" x2="50%" y1="0%" y2="100%">
      <stop offset="0%" stop-color="#43C7FA"/>
      <stop offset="100%" stop-color="#2095F2"/>
    </linearGradient>
  </defs>
  <g fill="none" fill-rule="evenodd" filter="url(#com.apps.klettres-a)" transform="translate(8 6)">
    <path fill="url(#com.apps.klettres-b)" d="M8,24 L52,24 C56.418278,24 60,27.581722 60,32 L60,75 C60,79.418278 56.418278,83 52,83 L8,83 C3.581722,83 5.41083001e-16,79.418278 0,75 L0,32 C-5.41083001e-16,27.581722 3.581722,24 8,24 Z"/>
    <path fill="url(#com.apps.klettres-c)" d="M28,0 L72,0 C76.418278,-8.11624501e-16 80,3.581722 80,8 L80,52 C80,56.418278 76.418278,60 72,60 L28,60 C23.581722,60 20,56.418278 20,52 L20,8 C20,3.581722 23.581722,8.11624501e-16 28,0 Z"/>
    <path fill="#FFF" fill-rule="nonzero" d="M38.7026611,49.5 L42.1620448,39.9733894 L58.0752101,39.9733894 L61.5345938,49.5 L68.1872549,49.5 L53.6578431,11.5 L46.5794118,11.5 L32.05,49.5 L38.7026611,49.5 Z M56.212465,34.8641457 L44.0247899,34.8641457 L50.0387955,18.2058824 L50.2516807,18.2058824 L56.212465,34.8641457 Z"/>
  </g>
</svg>
