<svg xmlns="http://www.w3.org/2000/svg" width="96" height="96" viewBox="0 0 96 96">
  <defs>
    <filter id="com.apps.mucommander-a" width="131.2%" height="132%" x="-15.6%" y="-16%" filterUnits="objectBoundingBox">
      <feOffset dy="2" in="SourceAlpha" result="shadowOffsetOuter1"/>
      <feGaussianBlur in="shadowOffsetOuter1" result="shadowBlurOuter1" stdDeviation="2"/>
      <feColorMatrix in="shadowBlurOuter1" result="shadowMatrixOuter1" values="0 0 0 0 0   0 0 0 0 0   0 0 0 0 0  0 0 0 0.2 0"/>
      <feMerge>
        <feMergeNode in="shadowMatrixOuter1"/>
        <feMergeNode in="SourceGraphic"/>
      </feMerge>
    </filter>
    <linearGradient id="com.apps.mucommander-b" x1="50%" x2="50%" y1="0%" y2="105.437%">
      <stop offset="0%" stop-color="#85E1FF"/>
      <stop offset="100%" stop-color="#4CBDE2"/>
    </linearGradient>
    <linearGradient id="com.apps.mucommander-c" x1="50%" x2="50%" y1="0%" y2="96.932%">
      <stop offset="0%" stop-color="#C6FAFF"/>
      <stop offset="100%" stop-color="#56EAFF"/>
    </linearGradient>
    <linearGradient id="com.apps.mucommander-d" x1="50%" x2="50%" y1="0%" y2="100%">
      <stop offset="0%" stop-color="#C6FAFF"/>
      <stop offset="96.932%" stop-color="#56EAFF"/>
    </linearGradient>
    <linearGradient id="com.apps.mucommander-e" x1="50%" x2="50%" y1="0%" y2="100%">
      <stop offset="0%" stop-color="#C6FAFF"/>
      <stop offset="96.932%" stop-color="#56EAFF"/>
    </linearGradient>
    <linearGradient id="com.apps.mucommander-f" x1="50%" x2="50%" y1="0%" y2="100%">
      <stop offset="0%" stop-color="#C6FAFF"/>
      <stop offset="96.932%" stop-color="#56EAFF"/>
    </linearGradient>
    <linearGradient id="com.apps.mucommander-g" x1="50%" x2="50%" y1="0%" y2="100%">
      <stop offset="0%" stop-color="#C6FAFF"/>
      <stop offset="96.932%" stop-color="#56EAFF"/>
    </linearGradient>
    <linearGradient id="com.apps.mucommander-h" x1="50%" x2="50%" y1="0%" y2="100%">
      <stop offset="0%" stop-color="#C6FAFF"/>
      <stop offset="96.932%" stop-color="#56EAFF"/>
    </linearGradient>
    <linearGradient id="com.apps.mucommander-i" x1="50%" x2="50%" y1="0%" y2="100%">
      <stop offset="0%" stop-color="#007697"/>
      <stop offset="100%" stop-color="#003D55"/>
    </linearGradient>
    <linearGradient id="com.apps.mucommander-j" x1="50%" x2="50%" y1="0%" y2="100%">
      <stop offset="0%" stop-color="#08506A"/>
      <stop offset="100%" stop-color="#001B3F"/>
    </linearGradient>
    <linearGradient id="com.apps.mucommander-k" x1="50%" x2="50%" y1="0%" y2="100%">
      <stop offset="0%" stop-color="#08506A"/>
      <stop offset="100%" stop-color="#001B3F"/>
    </linearGradient>
    <linearGradient id="com.apps.mucommander-l" x1="50%" x2="50%" y1="0%" y2="100%">
      <stop offset="0%" stop-color="#03416C"/>
      <stop offset="100%" stop-color="#0297E4"/>
    </linearGradient>
  </defs>
  <g fill="none" filter="url(#com.apps.mucommander-a)" transform="translate(10 10)">
    <polygon fill="url(#com.apps.mucommander-b)" points="44.003 2 48 3.021 48 13.021 54 14.021 54 30.021 65 30.021 70 31.021 70 35.021 75 36.021 74.978 68.021 70 68.021 70 73.021 48 73.021 44.003 71.021 44.003 68.021 38.906 67.021 16 67.021 12 64.025 12 61.021 7.163 58.021 7.163 51.021 2 48.021 2 33.005 7 33.005 7 17.021 12 17.021 12 7.021 18 7.021 18 2"/>
    <rect width="30" height="1" x="18" y="2.021" fill="url(#com.apps.mucommander-c)"/>
    <polygon fill="url(#com.apps.mucommander-d)" points="48 13.021 55 13.021 55 14.021 48 14.021"/>
    <polygon fill="url(#com.apps.mucommander-e)" points="70 35.021 76 35.021 76 36.021 70 36.021"/>
    <polygon fill="url(#com.apps.mucommander-f)" points="49 30.021 70 30.021 70 31.021 54 31.021"/>
    <polygon fill="url(#com.apps.mucommander-g)" points="44 34.021 54 34.021 54 35.021 49 35.021"/>
    <polygon fill="url(#com.apps.mucommander-g)" points="2 33.021 7 33.021 12 34.021 7 34.021"/>
    <polygon fill="url(#com.apps.mucommander-g)" points="7 17.021 12 17.021 17 18.021 12 18.021"/>
    <polygon fill="url(#com.apps.mucommander-h)" points="12 7.021 18 7.021 23 8.021 12 8.021"/>
    <path fill="url(#com.apps.mucommander-i)" d="M18,1.42108547e-14 L17.8507377,0.00548573643 C16.8158778,0.0818348781 16,0.945638205 16,2 L16,5.02099609 L12,5.02099609 L11.8507377,5.02648183 C10.8158778,5.10283097 10,5.9666343 10,7.02099609 L10,15.0209961 L7,15.0209961 L6.85073766,15.0264818 C5.81587779,15.102831 5,15.9666343 5,17.0209961 L5,31.0039961 L2,31.0048828 C0.8954305,31.0048828 0,31.9003133 0,33.0048828 L0,48.0209961 L0.00666449963,48.1843571 C0.059721792,48.8330814 0.426466155,49.4197739 0.995137183,49.7502302 L4.99249085,52.0209961 L4.9930885,57.8699961 L5,58.0362959 C5.05044573,58.6417811 5.54391562,59.3462792 6.05478806,59.6861561 L10,62.3109961 L10,64.0249023 C10,64.6984638 10.33904,65.3267844 10.9020227,65.696562 L14.9020227,68.6926557 L15.0450551,68.7782908 C15.3373718,68.9371432 15.6655556,69.0209961 16,69.0209961 L38.715,69.0209961 L42.003,69.6659961 L42.003418,71.0209961 C42.003418,71.8215478 42.480795,72.6958508 43.216833,73.0107018 L47.213415,74.8598229 C47.4620191,74.966167 47.7296057,75.0209961 48,75.0209961 L70,75.0209961 L70.1492623,75.0155104 C71.1841222,74.9391612 72,74.0753579 72,73.0209961 L72,70.0209961 L74.9780273,70.0209961 C76.0820606,70.0209961 76.9772688,69.1264024 76.9780269,68.0223694 L77,36.0223694 L76.9939411,35.8647007 C76.9250597,34.9791624 76.2756228,34.2365128 75.3922323,34.0598347 L72,33.3809961 L72,31.0209961 C72,30.2031869 71.5020981,29.4677694 70.7427814,29.1640427 L65.7427814,28.1640427 L65.5628382,28.1018261 C65.3803438,28.0483057 65.1908291,28.0209961 65,28.0209961 C63.9127604,28.0209961 63.0973307,28.0209961 62.5537109,28.0209961 C61.0973307,28.0209961 58.9127604,28.0209961 56,28.0209961 L56,14.0209961 L55.9935324,13.8594675 C55.9206689,12.952688 55.2395975,12.2000082 54.328798,12.0482082 L50,11.3269961 L50,3.02099609 C50,2.10709093 49.3805035,1.3094375 48.495036,1.08322951 L44.498454,0.0622334179 C44.3366865,0.0209071153 44.1703808,1.42108547e-14 44.003418,1.42108547e-14 L18,1.42108547e-14 Z M44.003418,2 L48,3.02099609 L48,13.0209961 L54,14.0209961 L54,30.0209961 L65,30.0209961 L70,31.0209961 L70,35.0209961 L75,36.0209961 L74.9780273,68.0209961 L70,68.0209961 L70,73.0209961 L48,73.0209961 L44.003418,71.0209961 L44.003418,68.0209961 L38.90625,67.0209961 L16,67.0209961 L12,64.0249023 L12,61.0209961 L7,58.0209961 L7,51.0209961 L2,48.0209961 L2,33.0048828 L7,33.0048828 L7,17.0209961 L12,17.0209961 L12,7.02099609 L18,7.02099609 L18,2 L44.003418,2 Z"/>
    <rect width="6" height="15" x="22" y="14.021" fill="url(#com.apps.mucommander-j)" rx="1"/>
    <rect width="6" height="12" x="53" y="41.021" fill="url(#com.apps.mucommander-k)" rx="1"/>
    <rect width="6" height="15" x="33" y="14.021" fill="url(#com.apps.mucommander-j)" rx="1"/>
    <rect width="6" height="12" x="64" y="41.021" fill="url(#com.apps.mucommander-k)" rx="1"/>
    <path fill="url(#com.apps.mucommander-l)" d="M48,68.0209961 L48,73.0209961 L44,71.0209961 L44,68.0209961 L48,68.0209961 Z M44,63.0209961 L44,68.0209961 L39,67.0209961 L39,63.0209961 L44,63.0209961 Z M16,61.0209961 L16,67.0209961 L12,64.0209961 L12,61.0209961 L16,61.0209961 Z M12,51.0209961 L12,61.0209961 L7,58.0209961 L7,51.0209961 L12,51.0209961 Z M44,34.0209961 L49,35.0209961 L49,59.0209961 L44,58.0209961 L44,34.0209961 Z M2,33.0209961 L7,34.0209961 L7,51.0209961 L2,48.0209961 L2,33.0209961 Z M49,30.0209961 L54,31.0209961 L54,35.0209961 L49,34.0209961 L49,30.0209961 Z M7,17.0209961 L12,18.0209961 L12,34.0209961 L7,33.0209961 L7,17.0209961 Z M12,7.02099609 L17,8.02099609 L17,18.0209961 L12,17.0209961 L12,7.02099609 Z M18,2.02099609 L23,3.02099609 L23,8.02099609 L18,7.02099609 L18,2.02099609 Z"/>
  </g>
</svg>
