<svg xmlns="http://www.w3.org/2000/svg" width="96" height="96" viewBox="0 0 96 96">
  <defs>
    <filter id="com.apps.kazam-a" width="128.6%" height="136.4%" x="-14.3%" y="-18.2%" filterUnits="objectBoundingBox">
      <feOffset dy="2" in="SourceAlpha" result="shadowOffsetOuter1"/>
      <feGaussianBlur in="shadowOffsetOuter1" result="shadowBlurOuter1" stdDeviation="2"/>
      <feColorMatrix in="shadowBlurOuter1" result="shadowMatrixOuter1" values="0 0 0 0 0   0 0 0 0 0   0 0 0 0 0  0 0 0 0.2 0"/>
      <feMerge>
        <feMergeNode in="shadowMatrixOuter1"/>
        <feMergeNode in="SourceGraphic"/>
      </feMerge>
    </filter>
    <linearGradient id="com.apps.kazam-b" x1="50%" x2="50%" y1="0%" y2="100%">
      <stop offset="0%" stop-color="#E576E9"/>
      <stop offset="100%" stop-color="#A65DC6"/>
    </linearGradient>
  </defs>
  <g fill="none" filter="url(#com.apps.kazam-a)" transform="translate(6 15)">
    <path fill="#EFEFEF" d="M0,2 L0,64 C0,65.104 0.896,66 2,66 L82,66 C83.104,66 84,65.104 84,64 L84,2 C84,0.896 83.104,0 82,0 L2,0 C0.896,0 0,0.896 0,2 Z M10,64 L4,64 L4,58 L10,58 L10,64 Z M10,8 L4,8 L4,2 L10,2 L10,8 Z M20,64 L14,64 L14,58 L20,58 L20,64 Z M20,8 L14,8 L14,2 L20,2 L20,8 Z M30,64 L24,64 L24,58 L30,58 L30,64 Z M30,8 L24,8 L24,2 L30,2 L30,8 Z M40,64 L34,64 L34,58 L40,58 L40,64 Z M40,8 L34,8 L34,2 L40,2 L40,8 Z M50,64 L44,64 L44,58 L50,58 L50,64 Z M50,8 L44,8 L44,2 L50,2 L50,8 Z M60,64 L54,64 L54,58 L60,58 L60,64 Z M60,8 L54,8 L54,2 L60,2 L60,8 Z M70,64 L64,64 L64,58 L70,58 L70,64 Z M70,8 L64,8 L64,2 L70,2 L70,8 Z M80,64 L74,64 L74,58 L80,58 L80,64 Z M80,8 L74,8 L74,2 L80,2 L80,8 Z"/>
    <rect width="84" height="46" y="10" fill="url(#com.apps.kazam-b)"/>
    <circle cx="26.002" cy="31.992" r="18" fill="#EFEFEF"/>
    <circle cx="26.002" cy="31.992" r="14" fill="#B7B7B7"/>
    <path fill="#683B94" d="M30.002,37.992 L22.002,37.992 C18.702,37.992 16.002,35.292 16.002,31.992 L16.002,31.992 C16.002,28.692 18.702,25.992 22.002,25.992 L30.002,25.992 C33.302,25.992 36.002,28.692 36.002,31.992 L36.002,31.992 C36.002,35.292 33.302,37.992 30.002,37.992 Z"/>
  </g>
</svg>
