<svg xmlns="http://www.w3.org/2000/svg" width="96" height="96" viewBox="0 0 96 96">
  <defs>
    <filter id="com.apps.robocode-a" width="139.8%" height="132.5%" x="-19.9%" y="-16.2%" filterUnits="objectBoundingBox">
      <feOffset dy="2" in="SourceAlpha" result="shadowOffsetOuter1"/>
      <feGaussianBlur in="shadowOffsetOuter1" result="shadowBlurOuter1" stdDeviation="2"/>
      <feColorMatrix in="shadowBlurOuter1" result="shadowMatrixOuter1" values="0 0 0 0 0   0 0 0 0 0   0 0 0 0 0  0 0 0 0.2 0"/>
      <feMerge>
        <feMergeNode in="shadowMatrixOuter1"/>
        <feMergeNode in="SourceGraphic"/>
      </feMerge>
    </filter>
    <linearGradient id="com.apps.robocode-b" x1="50%" x2="50%" y1="0%" y2="100%">
      <stop offset="0%" stop-color="#44B"/>
      <stop offset="100%" stop-color="#13133B"/>
    </linearGradient>
    <linearGradient id="com.apps.robocode-c" x1="50%" x2="50%" y1="0%" y2="95.891%">
      <stop offset="0%" stop-color="#39399C"/>
      <stop offset="100%" stop-color="#1D1D7D"/>
    </linearGradient>
    <linearGradient id="com.apps.robocode-d" x1="50%" x2="50%" y1="0%" y2="100%">
      <stop offset="0%" stop-color="#515151"/>
      <stop offset="54.345%" stop-color="#ECECEC"/>
      <stop offset="73.737%" stop-color="#D1D1D1"/>
      <stop offset="100%" stop-color="#727272"/>
    </linearGradient>
    <linearGradient id="com.apps.robocode-e" x1="50%" x2="50.002%" y1="43.772%" y2="52.981%">
      <stop offset="0%" stop-color="#515151"/>
      <stop offset="54.345%" stop-color="#ECECEC"/>
      <stop offset="100%" stop-color="#727272"/>
    </linearGradient>
    <linearGradient id="com.apps.robocode-f" x1="50%" x2="50%" y1="0%" y2="73.931%">
      <stop offset="0%" stop-color="#515151"/>
      <stop offset="54.345%" stop-color="#ECECEC"/>
      <stop offset="100%" stop-color="#727272"/>
    </linearGradient>
    <linearGradient id="com.apps.robocode-g" x1="50%" x2="50.002%" y1="10.494%" y2="68.909%">
      <stop offset="0%" stop-color="#515151"/>
      <stop offset="54.345%" stop-color="#ECECEC"/>
      <stop offset="100%" stop-color="#727272"/>
    </linearGradient>
    <linearGradient id="com.apps.robocode-h" x1="50%" x2="50.002%" y1="0%" y2="73.931%">
      <stop offset="0%" stop-color="#515151"/>
      <stop offset="54.345%" stop-color="#ECECEC"/>
      <stop offset="100%" stop-color="#727272"/>
    </linearGradient>
    <linearGradient id="com.apps.robocode-i" x1="50%" x2="50%" y1="61.532%" y2="100%">
      <stop offset="0%" stop-color="#CCCCFB"/>
      <stop offset="100%" stop-color="#9B9BFF"/>
    </linearGradient>
  </defs>
  <g fill="none" fill-rule="evenodd" filter="url(#com.apps.robocode-a)" transform="translate(16.5 9.5)">
    <path fill="url(#com.apps.robocode-b)" fill-rule="nonzero" stroke="#464646" d="M46.5,12 C47.7426407,12 48.8676407,12.5036797 49.6819805,13.3180195 C50.4963203,14.1323593 51,15.2573593 51,16.5 L51,16.5 L51,68.5 C51,69.7426407 50.4963203,70.8676407 49.6819805,71.6819805 C48.8676407,72.4963203 47.7426407,73 46.5,73 L46.5,73 L16.5,73 C15.2573593,73 14.1323593,72.4963203 13.3180195,71.6819805 C12.5036797,70.8676407 12,69.7426407 12,68.5 L12,68.5 L12,16.5 C12,15.2573593 12.5036797,14.1323593 13.3180195,13.3180195 C14.1323593,12.5036797 15.2573593,12 16.5,12 L16.5,12 L46.5,12 Z"/>
    <line x1="21" x2="21" y1="73" y2="67" stroke="#000" stroke-opacity=".704"/>
    <line x1="42" x2="42" y1="73" y2="67" stroke="#000" stroke-opacity=".704"/>
    <path fill="url(#com.apps.robocode-c)" fill-rule="nonzero" stroke="#464646" d="M42,73 L42,75.5 C42,75.9142136 41.8321068,76.2892136 41.5606602,76.5606602 C41.2892136,76.8321068 40.9142136,77 40.5,77 L40.5,77 L22.5,77 C22.0857864,77 21.7107864,76.8321068 21.4393398,76.5606602 C21.1678932,76.2892136 21,75.9142136 21,75.5 L21,75.5 L21,73 L42,73 Z"/>
    <g fill="url(#com.apps.robocode-d)" fill-rule="nonzero" stroke="#878787" transform="translate(0 13)">
      <path d="M9.5,0 C9.9142136,0 10.2892136,0.167893219 10.5606602,0.439339828 C10.8321068,0.71078644 11,1.08578644 11,1.5 L11,1.5 L11,17.5 C11,17.9142136 10.8321068,18.2892136 10.5606602,18.5606602 C10.2892136,18.8321068 9.9142136,19 9.5,19 L9.5,19 L3.5,19 C3.08578644,19 2.71078644,18.8321068 2.43933983,18.5606602 C2.06175999,18.1830803 1.8845411,17.6051396 2.08084532,17 L2.08084532,17 L0.5,17 L0,10.5 L2,10 L2,1.5 C2,1.08578644 2.16789322,0.71078644 2.43933983,0.439339828 C2.71078644,0.167893219 3.08578644,0 3.5,0 L3.5,0 L9.5,0 Z"/>
      <path d="M61.5,0 C61.9142136,0 62.2892136,0.167893219 62.5606602,0.439339828 C62.8321068,0.71078644 63,1.08578644 63,1.5 L63,1.5 L63,17.5 C63,17.9142136 62.8321068,18.2892136 62.5606602,18.5606602 C62.2892136,18.8321068 61.9142136,19 61.5,19 L61.5,19 L55.5,19 C55.0857864,19 54.7107864,18.8321068 54.4393398,18.5606602 C54.06176,18.1830803 53.8845411,17.6051396 54.0808453,17 L54.0808453,17 L52.5,17 L52,10.5 L54,10 L54,1.5 C54,1.08578644 54.1678932,0.71078644 54.4393398,0.439339828 C54.7107864,0.167893219 55.0857864,0 55.5,0 L55.5,0 L61.5,0 Z" transform="matrix(-1 0 0 1 115 0)"/>
      <path d="M9.5,22 C9.9142136,22 10.2892136,22.1678932 10.5606602,22.4393398 C10.8321068,22.7107864 11,23.0857864 11,23.5 L11,23.5 L11,39.5 C11,39.9142136 10.8321068,40.2892136 10.5606602,40.5606602 C10.2892136,40.8321068 9.9142136,41 9.5,41 L9.5,41 L3.5,41 C3.08578644,41 2.71078644,40.8321068 2.43933983,40.5606602 C2.16789322,40.2892136 2,39.9142136 2,39.5 L2,39.5 L2,35 L0.5,35 L0,28.5 L2,28 L2,23.5 C2,23.0857864 2.16789322,22.7107864 2.43933983,22.4393398 C2.71078644,22.1678932 3.08578644,22 3.5,22 L3.5,22 L9.5,22 Z"/>
      <path d="M61.5,22 C61.9142136,22 62.2892136,22.1678932 62.5606602,22.4393398 C62.8321068,22.7107864 63,23.0857864 63,23.5 L63,23.5 L63,39.5 C63,39.9142136 62.8321068,40.2892136 62.5606602,40.5606602 C62.2892136,40.8321068 61.9142136,41 61.5,41 L61.5,41 L55.5,41 C55.0857864,41 54.7107864,40.8321068 54.4393398,40.5606602 C54.1678932,40.2892136 54,39.9142136 54,39.5 L54,39.5 L54,35 L52.5,35 L52,28.5 L54,28 L54,23.5 C54,23.0857864 54.1678932,22.7107864 54.4393398,22.4393398 C54.7107864,22.1678932 55.0857864,22 55.5,22 L55.5,22 L61.5,22 Z" transform="matrix(-1 0 0 1 115 0)"/>
      <path d="M9.5,44 C9.9142136,44 10.2892136,44.1678932 10.5606602,44.4393398 C10.8321068,44.7107864 11,45.0857864 11,45.5 L11,45.5 L11,61.5 C11,61.9142136 10.8321068,62.2892136 10.5606602,62.5606602 C10.2892136,62.8321068 9.9142136,63 9.5,63 L9.5,63 L3.5,63 C3.08578644,63 2.71078644,62.8321068 2.43933983,62.5606602 C2.16789322,62.2892136 2,61.9142136 2,61.5 L2,61.5 L2,53 L0.5,53 L0,46.5 L2.08084532,46 C1.8845411,45.3948604 2.06175999,44.8169197 2.43933983,44.4393398 C2.71078644,44.1678932 3.08578644,44 3.5,44 L3.5,44 L9.5,44 Z"/>
      <path d="M61.5,44 C61.9142136,44 62.2892136,44.1678932 62.5606602,44.4393398 C62.8321068,44.7107864 63,45.0857864 63,45.5 L63,45.5 L63,61.5 C63,61.9142136 62.8321068,62.2892136 62.5606602,62.5606602 C62.2892136,62.8321068 61.9142136,63 61.5,63 L61.5,63 L55.5,63 C55.0857864,63 54.7107864,62.8321068 54.4393398,62.5606602 C54.1678932,62.2892136 54,61.9142136 54,61.5 L54,61.5 L54,53 L52.5,53 L52,46.5 L54.0808453,46 C53.8845411,45.3948604 54.06176,44.8169197 54.4393398,44.4393398 C54.7107864,44.1678932 55.0857864,44 55.5,44 L55.5,44 L61.5,44 Z" transform="matrix(-1 0 0 1 115 0)"/>
    </g>
    <path fill="#000" fill-rule="nonzero" d="M14.8736187,27.5 C15.7190075,27.5 16.4137461,28.0948881 16.4925549,28.85554 L16.5,29 L16.5,33.0373735 C16.5,33.8170696 15.8549901,34.4578221 15.0302501,34.5305069 L14.8736187,34.5373735 L12.5,34.5373735 L12.5,33.5373735 L14.8736187,33.5373735 C15.1397596,33.5373735 15.3611085,33.3604983 15.4070114,33.1272491 L15.4157458,33.0373735 L15.4157458,29 C15.4157458,28.7545401 15.2239682,28.5503916 14.9710667,28.5080557 L14.8736187,28.5 L12.5,28.5 L12.5,27.5 L14.8736187,27.5 Z" opacity=".49"/>
    <path fill="#000" fill-rule="nonzero" d="M48.8736187,27.5 C49.7190075,27.5 50.4137461,28.0948881 50.4925549,28.85554 L50.5,29 L50.5,33.0373735 C50.5,33.8170696 49.8549901,34.4578221 49.0302501,34.5305069 L48.8736187,34.5373735 L46.5,34.5373735 L46.5,33.5373735 L48.8736187,33.5373735 C49.1397596,33.5373735 49.3611085,33.3604983 49.4070114,33.1272491 L49.4157458,33.0373735 L49.4157458,29 C49.4157458,28.7545401 49.2239682,28.5503916 48.9710667,28.5080557 L48.8736187,28.5 L46.5,28.5 L46.5,27.5 L48.8736187,27.5 Z" opacity=".49" transform="matrix(-1 0 0 1 97 0)"/>
    <rect width="9" height="9" x="14" y="14" stroke="#EFEFEF" opacity=".643" rx="2"/>
    <rect width="9" height="9" x="40" y="14" stroke="#EFEFEF" opacity=".643" rx="2"/>
    <polygon fill="#999" fill-rule="nonzero" stroke="#4A4A4A" points="24.766 34.5 20.994 36.732 18.03 38.5 19.679 58.5 41.709 58.5 43.288 38.5 37.425 34.5 37.425 30.5 48.133 36.263 46.319 66.5 15.689 66.5 14.5 36.263 24.766 30.5"/>
    <g fill-rule="nonzero" stroke="#464646" transform="translate(24)">
      <rect width="18" height="7" x="-1.5" y="11.5" fill="url(#com.apps.robocode-e)" rx="2" transform="matrix(0 1 1 0 -7.5 7.5)"/>
      <rect width="3" height="15" x="6" y="-2" fill="url(#com.apps.robocode-f)" rx="1.5" transform="matrix(0 1 1 0 2 -2)"/>
      <rect width="10" height="9" x="2.5" y=".5" fill="url(#com.apps.robocode-g)" rx="2" transform="matrix(0 1 1 0 2.5 -2.5)"/>
      <rect width="15" height="15" y="20" fill="url(#com.apps.robocode-h)" rx="2" transform="matrix(0 1 1 0 -20 20)"/>
    </g>
    <line x1="19.679" x2="15.689" y1="58.5" y2="66.5" stroke="#4A4A4A"/>
    <line x1="41.709" x2="46.319" y1="58.5" y2="66.5" stroke="#4A4A4A"/>
    <path fill="#999" fill-rule="nonzero" stroke="#4A4A4A" d="M31.0488302,37 C33.5423056,37 35.4695364,37.7524559 36.8213225,39.1676725 C38.234432,40.6470899 39.0277668,42.8733216 39.117749,45.8137917 L39.117749,45.8137917 L36.1278724,46.395523 C36.1176295,44.0880359 35.6990197,42.4186986 34.7649725,41.3630884 C33.9307289,40.4202707 32.6907858,40 31.0488302,40 C29.443423,40 28.2237045,40.4011969 27.3930732,41.3009041 C26.4858072,42.2836191 26.0514712,43.8261604 25.9939879,45.947636 L25.9939879,45.947636 L22.9893365,46.2783119 C23.0003258,43.1666534 23.7669994,40.8135974 25.1970663,39.2565546 C26.5496793,37.7838428 28.5034534,37 31.0488302,37 Z"/>
    <path fill="url(#com.apps.robocode-i)" fill-rule="nonzero" stroke="#4A4A4A" d="M13.5,37.0032469 C17.046051,44.1055913 23.2396659,51.3933784 31.5543179,51.3933784 C39.8689698,51.3933784 44.0764687,44.932536 49.0446058,37.0032469 C36.9983828,47.1114868 26.5478288,48.1470544 13.5,37.0032469 Z"/>
  </g>
</svg>
