<svg xmlns="http://www.w3.org/2000/svg" width="96" height="96" viewBox="0 0 96 96">
  <defs>
    <filter id="com.apps.xnviewmp-a" width="128.6%" height="131.4%" x="-14.3%" y="-15.7%" filterUnits="objectBoundingBox">
      <feOffset dy="2" in="SourceAlpha" result="shadowOffsetOuter1"/>
      <feGaussianBlur in="shadowOffsetOuter1" result="shadowBlurOuter1" stdDeviation="2"/>
      <feColorMatrix in="shadowBlurOuter1" result="shadowMatrixOuter1" values="0 0 0 0 0   0 0 0 0 0   0 0 0 0 0  0 0 0 0.2 0"/>
      <feMerge>
        <feMergeNode in="shadowMatrixOuter1"/>
        <feMergeNode in="SourceGraphic"/>
      </feMerge>
    </filter>
    <linearGradient id="com.apps.xnviewmp-b" x1="50%" x2="50%" y1="0%" y2="100%">
      <stop offset="0%" stop-color="#EF675A"/>
      <stop offset="100%" stop-color="#EF675A"/>
    </linearGradient>
  </defs>
  <g fill="none" fill-rule="evenodd" filter="url(#com.apps.xnviewmp-a)" transform="translate(6 9.809)">
    <path fill="url(#com.apps.xnviewmp-b)" fill-rule="nonzero" d="M73.6458904,29.8255937 C79.8575904,35.9373139 84,42.0533895 84,44.8829251 C84,51.3738343 61.090909,76.3829251 42,76.3829251 C22.909091,76.3829251 0,51.3738343 0,44.8829251 C0,42.1563179 4.07611188,36.1283969 10.2047862,30.0538221 L4.3909091,24.0738343 C1.90909091,21.4011069 1.90909091,17.201107 4.58181818,14.5283797 C7.25454546,12.0465615 11.4545455,12.0465615 13.9363636,14.9101979 L20.372754,21.5304851 C22.2703954,20.2028605 24.2338226,18.9698645 26.2321096,17.8812384 L22.7181818,9.37383432 C21.190909,5.93747064 22.909091,1.92837974 26.3454546,0.592016103 C29.7818182,-0.935256623 33.790909,0.782925203 35.1272728,4.21928882 L38.7545454,13.001107 C38.8138656,13.1345772 38.8682896,13.2689115 38.9179072,13.4039196 C39.954591,13.2649285 40.9833716,13.1920161 42,13.1920161 C42.8722172,13.1920161 43.7533792,13.2452788 44.6408028,13.347545 C44.7061172,13.1665085 44.7803332,12.9872173 44.8636364,12.8101979 L48.6818182,4.02837974 C50.209091,0.592016103 54.2181818,-0.935256623 57.4636364,0.592016103 C60.9,2.11928882 62.4272728,6.12837974 61.090909,9.56474342 L57.5414236,17.7285602 C59.5502906,18.8041195 61.5251956,20.0266835 63.4348408,21.3465695 L70.0636364,14.5283797 C72.5454546,11.8556524 76.9363636,11.8556524 79.4181818,14.3374706 C82.090909,16.8192888 82.090909,21.2101979 79.609091,23.6920161 L73.6458904,29.8255937 L73.6458904,29.8255937 Z"/>
    <circle cx="42" cy="45.191" r="24" fill="#FDFDFD"/>
    <ellipse cx="42.041" cy="46.691" fill="#EF675A" rx="9.041" ry="8.5"/>
    <path fill="#EF675A" d="M35.5814871,25.9764713 C40.8040544,25.1371895 46.4521865,25.7660406 51.8995991,30.4646116 C57.3470117,35.1631826 60.4160971,42.7044623 56.0988899,51.6302078 C50.7113925,62.7687584 38.6258013,61.0857053 33.5413629,57.036548 C24.8643508,50.1263283 29.2483013,36.9760284 37.3230079,35.5798856 C44.1925345,34.3921223 48.5332309,38.4920002 49.8904124,42.3342687 L49.898,42.3577624 L50.3267771,42.0294536 C49.7905789,39.7085453 48.7370526,37.8632691 47.1661981,36.4936249 L46.8995989,36.2697549 C46.1338778,35.6505344 44.3874059,34.583257 43.2192618,34.182191 C40.4542422,33.2328602 39.6557502,33.2328602 37.3230079,33.4185022 C35.4750898,33.5655614 27.5726196,35.5798856 25.3613581,44.3027856 C23.1500966,53.0256855 27.7324511,61.7743004 37.3230079,65.9212747 C43.7167125,68.6859242 50.3632065,68.0862049 57.2624901,64.122117 C57.1937557,64.3819596 57.009116,64.8105829 56.7085711,65.407987 C54.144149,67.2778577 51.2101311,68.6708669 48.0368504,69.4577087 C45.8693999,69.8382808 43.3606891,70.1062622 40.6282133,70.1540992 C27.4585953,69.4418128 17,58.5380056 17,45.1914626 C17,44.6695602 17.0159924,44.1513931 17.047514,43.6374246 C17.5654161,42.1367436 18.0760187,40.7891602 18.4635524,39.6769818 C20.3484125,34.2676448 26.9533045,27.3630454 35.5814871,25.9764713 Z M36.8829724,40.9026524 C33.1023667,43.0484715 31.2341135,49.980627 38.5469051,53.5335552 C42.3901991,55.400824 45.4916317,54.0988806 47.2901997,52.611365 C49.953221,50.4088984 50.5346867,46.8153315 50.3267771,44.3027856 C50.2799866,43.7373324 50.1568262,43.1412029 49.9590856,42.5362256 L49.898,42.3577624 L42.99,47.6737624 L43.1030772,47.5600174 C45.0615267,45.5019225 44.6739578,41.7329732 41.3150276,40.484785 C40.0399515,40.010963 38.0312045,40.2509319 36.8829724,40.9026524 Z"/>
  </g>
</svg>
