<svg xmlns="http://www.w3.org/2000/svg" width="96" height="96" viewBox="0 0 96 96">
  <defs>
    <filter id="com.apps.onenote-a" width="130%" height="131.2%" x="-15%" y="-15.6%" filterUnits="objectBoundingBox">
      <feOffset dy="2" in="SourceAlpha" result="shadowOffsetOuter1"/>
      <feGaussianBlur in="shadowOffsetOuter1" result="shadowBlurOuter1" stdDeviation="2"/>
      <feColorMatrix in="shadowBlurOuter1" result="shadowMatrixOuter1" values="0 0 0 0 0   0 0 0 0 0   0 0 0 0 0  0 0 0 0.2 0"/>
      <feMerge>
        <feMergeNode in="shadowMatrixOuter1"/>
        <feMergeNode in="SourceGraphic"/>
      </feMerge>
    </filter>
    <linearGradient id="com.apps.onenote-b" x1="50%" x2="50%" y1="5.939%" y2="94.341%">
      <stop offset="0%" stop-color="#D000C4"/>
      <stop offset="100%" stop-color="#4C005E"/>
    </linearGradient>
    <linearGradient id="com.apps.onenote-c" x1="50%" x2="50%" y1="5.939%" y2="94.341%">
      <stop offset="0%" stop-color="#D000C4"/>
      <stop offset="100%" stop-color="#4C005E"/>
    </linearGradient>
    <linearGradient id="com.apps.onenote-d" x1="50%" x2="50%" y1="5.939%" y2="94.341%">
      <stop offset="0%" stop-color="#D000C4"/>
      <stop offset="100%" stop-color="#4C005E"/>
    </linearGradient>
  </defs>
  <g fill="none" filter="url(#com.apps.onenote-a)" transform="translate(8 9)">
    <path fill="url(#com.apps.onenote-b)" d="M61.4444766,46.7733333 C60.5482957,45.8309975 60,44.5668028 60,43.1771248 L60,32.8228753 C60,31.4331973 60.5482957,30.1690024 61.4444766,29.2266666 C60.5482957,28.2843307 60,27.0201361 60,25.6304581 L60,15.2762086 L60,15.2762086 C60,12.362239 62.4107744,10 65.3846153,10 L65.3846153,10 L74.6153847,10 L74.6153847,10 C77.5892256,10 80,12.362239 80,15.2762086 L80,25.6304581 C80,27.0201361 79.4517043,28.2843307 78.5555234,29.2266666 C79.4517043,30.1690024 80,31.4331973 80,32.8228753 L80,43.1771248 C80,44.5668028 79.4517043,45.8309975 78.5555234,46.7733333 C79.4517043,47.7156692 80,48.979864 80,50.3695418 L80,60.7237915 C80,63.637761 77.5892256,66 74.6153847,66 L65.3846153,66 C62.4107744,66 60,63.637761 60,60.7237915 L60,50.3695418 C60,48.979864 60.5482957,47.7156692 61.4444766,46.7733333 Z"/>
    <rect width="12" height="14" x="64" y="32" fill="#FFF" rx="2.275"/>
    <rect width="12" height="14" x="64" y="49" fill="#FFF" rx="2.275"/>
    <rect width="33" height="64" x="39" y="7" fill="url(#com.apps.onenote-c)" rx="5.308"/>
    <rect width="27" height="56" x="41" y="10" fill="#FFF" rx="1.517"/>
    <path fill="url(#com.apps.onenote-d)" d="M47,60 L47,71.0177281 C47,74.3216456 44.0183188,77 40.699367,77 C40.2855167,77 39.8727732,76.9574436 39.467708,76.8730082 L8.7593635,70.4718913 C3.65559507,69.4080171 0,64.9280517 0,59.7372111 L0,17.2639987 C0,12.0731581 3.65559506,7.59319279 8.7593635,6.52931849 L39.467708,0.128201552 C42.7162049,-0.548943666 46.1922039,1.52361988 46.8724304,4.7574018 C46.9572499,5.16063212 47,5.57150595 47,5.98348169 L47,16 L60,16 L60,20 L47,20 L47,24 L60,24 L60,28 L47,28 L47,32 L60,32 L60,36 L47,36 L47,40 L60,40 L60,44 L47,44 L47,48 L60,48 L60,52 L47,52 L47,56 L60,56 L60,60 L47,60 Z"/>
    <path fill="#FFF" d="M15.8481808,22.773708 L17.6872038,22.6522576 L29.4278247,44.0627352 L29.0616113,54.5860828 L17.6872038,30.6387914 L17.6872038,53.8259666 L12,53.4593222 L12,23.0278446 L14.0091579,22.8951584 L15.8481808,22.773708 Z M30.1990521,21.901084 L36.2654029,21.1499102 L36.2654029,54.9527272 L29.0616113,54.5860828 L29.4278247,44.0627352 L30.1990521,21.901084 Z"/>
    <rect width="12" height="14" x="64" y="14" fill="#FFF" rx="2.275"/>
  </g>
</svg>
