<svg xmlns="http://www.w3.org/2000/svg" width="96" height="96" viewBox="0 0 96 96">
  <defs>
    <filter id="com.apps.hbbatchbeast-a" width="130%" height="130.8%" x="-15%" y="-15.4%" filterUnits="objectBoundingBox">
      <feOffset dy="2" in="SourceAlpha" result="shadowOffsetOuter1"/>
      <feGaussianBlur in="shadowOffsetOuter1" result="shadowBlurOuter1" stdDeviation="2"/>
      <feColorMatrix in="shadowBlurOuter1" result="shadowMatrixOuter1" values="0 0 0 0 0   0 0 0 0 0   0 0 0 0 0  0 0 0 0.2 0"/>
      <feMerge>
        <feMergeNode in="shadowMatrixOuter1"/>
        <feMergeNode in="SourceGraphic"/>
      </feMerge>
    </filter>
    <linearGradient id="com.apps.hbbatchbeast-b" x1="50%" x2="50%" y1="0%" y2="100%">
      <stop offset="0%" stop-color="#A7E1FF"/>
      <stop offset="100%" stop-color="#F1FAFF"/>
    </linearGradient>
  </defs>
  <g fill="none" fill-rule="evenodd" filter="url(#com.apps.hbbatchbeast-a)" transform="translate(8 11)">
    <path fill="url(#com.apps.hbbatchbeast-b)" d="M79,1 L79,77 L60,77 L60,63 L20,63 L20,77 L1,77 L1,49 L60,49 L60,1 L79,1 Z M21,1 L21,33 L1,33 L1,1 L21,1 Z"/>
    <path fill="#000" fill-opacity=".379" fill-rule="nonzero" d="M80,0 L80,78 L59,78 L59,64 L21,64 L21,78 L0,78 L0,48 L59,48 L59,0 L80,0 Z M60,1 L60,49 L1,49 L1,77 L20,77 L20,63 L60,63 L60,77 L79,77 L79,1 L60,1 Z M22,0 L22,34 L0,34 L0,0 L22,0 Z M21,1 L1,1 L1,33 L21,33 L21,1 Z"/>
  </g>
</svg>
