<svg xmlns="http://www.w3.org/2000/svg" width="96" height="96" viewBox="0 0 96 96">
  <defs>
    <filter id="com.apps.nikwi-a" width="140.7%" height="126.9%" x="-20.3%" y="-13.4%" filterUnits="objectBoundingBox">
      <feOffset dy="2" in="SourceAlpha" result="shadowOffsetOuter1"/>
      <feGaussianBlur in="shadowOffsetOuter1" result="shadowBlurOuter1" stdDeviation="2"/>
      <feColorMatrix in="shadowBlurOuter1" result="shadowMatrixOuter1" values="0 0 0 0 0   0 0 0 0 0   0 0 0 0 0  0 0 0 0.2 0"/>
      <feMerge>
        <feMergeNode in="shadowMatrixOuter1"/>
        <feMergeNode in="SourceGraphic"/>
      </feMerge>
    </filter>
    <linearGradient id="com.apps.nikwi-b" x1="50%" x2="50%" y1="0%" y2="97.255%">
      <stop offset="0%" stop-color="#FFC167"/>
      <stop offset="100%" stop-color="#8B4700"/>
    </linearGradient>
    <linearGradient id="com.apps.nikwi-c" x1="50%" x2="50%" y1="0%" y2="99.459%">
      <stop offset="0%" stop-color="#E7F5FF"/>
      <stop offset="100%" stop-color="#005EA5"/>
    </linearGradient>
    <linearGradient id="com.apps.nikwi-d" x1="50%" x2="50%" y1="0%" y2="100%">
      <stop offset="0%" stop-color="#D8FFCA"/>
      <stop offset="100%" stop-color="#00732F"/>
    </linearGradient>
    <linearGradient id="com.apps.nikwi-e" x1="50%" x2="50%" y1="0%" y2="99.459%">
      <stop offset="0%" stop-color="#E7F5FF"/>
      <stop offset="64.808%" stop-color="#B1DEFF"/>
      <stop offset="100%" stop-color="#94D1FF"/>
    </linearGradient>
    <linearGradient id="com.apps.nikwi-f" x1="50%" x2="71.714%" y1="2.789%" y2="386.028%">
      <stop offset="0%" stop-color="#FFCFCF"/>
      <stop offset="100%" stop-color="#FFA4C6"/>
    </linearGradient>
    <linearGradient id="com.apps.nikwi-g" x1="50%" x2="50%" y1="0%" y2="100%">
      <stop offset="0%" stop-color="#FFE779"/>
      <stop offset="100%" stop-color="#B75300"/>
    </linearGradient>
    <linearGradient id="com.apps.nikwi-h" x1="50%" x2="50%" y1="2.789%" y2="97.255%">
      <stop offset="0%" stop-color="#FFBABA"/>
      <stop offset="100%" stop-color="#9E003A"/>
    </linearGradient>
  </defs>
  <g fill="none" filter="url(#com.apps.nikwi-a)" transform="translate(18 3)">
    <path fill="url(#com.apps.nikwi-b)" d="M30.5074523,89.3376769 C33.8889688,89.3376769 36.9216442,87.2561954 38.1374577,84.1008109 L55,40.3376769 L6,40.3376769 L22.8760602,84.1013455 C24.0927698,87.256565 27.1257675,89.3376769 30.5074523,89.3376769 Z"/>
    <circle cx="14" cy="31.338" r="14" fill="url(#com.apps.nikwi-c)"/>
    <circle cx="33" cy="14.338" r="12" fill="url(#com.apps.nikwi-d)"/>
    <path fill="url(#com.apps.nikwi-e)" d="M5.45754604,2.22825547 L7.1464656,0.876874491 C8.85712271,-0.491899687 11.3505772,-0.229845438 12.7392929,1.4646631 L25.5189294,17.0583539 C26.8725516,18.7100414 26.684097,21.120173 25.1266191,22.543898 L24.9242157,22.7170731 L24.9242157,22.7170731 L23.2352962,24.0684541 C21.5246391,25.4372283 19.0311846,25.175174 17.6424689,23.4806655 L4.86283238,7.88697469 C3.50921019,6.23528719 3.69766481,3.82515556 5.25514269,2.40143058 L5.45754604,2.22825547 L5.45754604,2.22825547 Z"/>
    <path fill="url(#com.apps.nikwi-f)" d="M20.9439003,11.4759112 L24.5140833,15.8322424 L16.5782274,22.1820799 L13.0080444,17.8257486 L20.9439003,11.4759112 Z M14.5175709,3.63451497 L18.0877539,7.9908462 L10.151898,14.3406836 L6.58171506,9.98435241 L14.5175709,3.63451497 Z"/>
    <circle cx="26" cy="32.338" r="12" fill="url(#com.apps.nikwi-g)"/>
    <ellipse cx="43.5" cy="32.338" fill="url(#com.apps.nikwi-h)" rx="15.5" ry="15"/>
  </g>
</svg>
