<svg xmlns="http://www.w3.org/2000/svg" width="96" height="96" viewBox="0 0 96 96">
  <defs>
    <filter id="com.apps.terraintool-a" width="130.8%" height="130.8%" x="-15.4%" y="-15.4%" filterUnits="objectBoundingBox">
      <feOffset dy="2" in="SourceAlpha" result="shadowOffsetOuter1"/>
      <feGaussianBlur in="shadowOffsetOuter1" result="shadowBlurOuter1" stdDeviation="2"/>
      <feColorMatrix in="shadowBlurOuter1" result="shadowMatrixOuter1" values="0 0 0 0 0   0 0 0 0 0   0 0 0 0 0  0 0 0 0.2 0"/>
      <feMerge>
        <feMergeNode in="shadowMatrixOuter1"/>
        <feMergeNode in="SourceGraphic"/>
      </feMerge>
    </filter>
  </defs>
  <g fill="none" filter="url(#com.apps.terraintool-a)" transform="translate(9 9)">
    <rect width="78" height="78" fill="#C8FF96" rx="18"/>
    <path fill="#FF6" d="M71.437758 6.5843203L71.9020158 6.94770838C72.0851241 7.11588489 72.1766783 7.19997314 72.1766783 7.19997314L72.1766783 7.19997314 72.1766783 8.16181754C72.1766783 8.34034641 72.3116545 8.44419875 72.5816069 8.47337457 72.95712 8.7833697 73.1448766 8.99834151 73.1448766 9.11828997 73.1448766 9.23823844 73.2567478 9.43417253 73.48049 9.70609225 73.795105 9.31422407 74.0343669 9.11828997 74.1982756 9.11828997 74.4441388 9.11828997 73.9524125 8.39718206 73.9524125 8.16181754 73.9524125 8.02168565 74.2803411 7.75098576 74.9361983 7.34971786 74.9832638 7.4124807 75.0276863 7.47721336 75.0716736 7.54226463 74.9846266 7.8225029 74.9414609 8.02861768 74.9414609 8.16181754 74.9414609 8.34481175 75.1508061 8.34481175 75.5694964 8.16181754L75.491484 8.19442631C77.0827647 10.7938687 77.9999996 13.8507823 77.9999996 17.1219512L77.9999996 29.309462 77.4362135 29.2338883 77.4362135 29.2338883 75.7522108 29.2338883C75.2125472 29.2338883 75.1836716 29.0189586 75.6655843 28.5890993L75.6655843 28.5890993 74.9414609 27.5398908 75.5694964 26.5274234 75.289412 24.6810949C74.1622387 23.1095791 73.5986521 22.3238212 73.5986521 22.3238212 73.5986521 22.3238212 71.7581792 21.7108894 71.7581792 21.7108894 71.7581792 21.7108894 71.2638002 20.9429484 71.2638002 20.8324738 71.2638002 20.7219992 70.3836809 20.4641982 70.2636228 20.3816819 70.1435646 20.2991657 70.0424401 19.7490767 69.1786375 19.640384 68.3148348 19.5316913 67.1951463 19.2641151 67.1034714 19.1865271 67.0423548 19.1348018 66.9672357 18.4245154 66.8781142 17.055668 66.5149542 16.8696636 66.2884936 16.747166 66.1987326 16.6881753 66.0640911 16.5996891 66.1987326 16.1268317 66.1987326 16.1268317 66.1987326 16.1268317 66.3267651 15.8956342 66.58283 15.4332394L66.58283 15.4332394 66.7803723 14.7576003 66.1031067 14.1776792 65.6973634 13.8086896 66.3333742 13.3601043C66.6959176 13.3155918 66.9526167 13.2244487 67.1034714 13.0866749 67.3297533 12.8800143 66.58283 12.2469868 66.58283 12.2469868 66.58283 12.2469868 66.0301304 11.8113074 65.952229 11.8113074 65.9002947 11.8113074 65.8153394 11.705012 65.6973634 11.4924215L65.6973634 11.4924215 65.8817482 8.47337457 67.0003311 8.47337457 67.0003311 8.47337457 67.0003311 7.30509414 69.1786375 7.30509414 70.6473062 7.19997314 71.003109 6.5843203 71.437758 6.5843203zM24.374015 0L24.374015 1.82964135C24.374015 2.22439362 24.1889094 2.35725975 23.8186982 2.22823973 21.8079138 2.22823973 20.6608979 2.09537361 20.3776504 1.82964135 19.9527791 1.43104297 19.5832753 2.22823973 19.5832753 2.22823973 19.5832753 2.22823973 19.6997902 2.72951578 19.93282 3.73206786L19.93282 3.73206786 19.93282 5.21110031 18.7715402 6.21895994 17.7440505 6.47935216 16.8485003 8.18822207 14.2463386 8.63372611 14.2463386 9.38142647 12.2172652 9.8270186 9.9492647 9.8270186 9.9492647 9.8270186 9.9492647 11.2717981C9.9492647 11.5288598 10.3635909 12.0165994 11.4023311 12.3299662 12.4410713 12.6433331 12.2172652 12.5946868 12.2172652 12.5946868 12.2172652 12.5946868 12.7875008 12.8575079 13.9279722 13.3831501L13.9279722 13.3831501 15.726339 13.7526983C15.8346804 14.3854032 15.976823 14.9184247 16.1527669 15.3517629 16.4166827 16.0017702 15.8888511 15.6344965 15.4761558 15.8911222 15.0634606 16.1477478 14.7606547 16.2349876 14.7606547 16.9173252 14.7606547 17.5996628 15.4761558 18.0098208 15.4761558 18.0098208L15.4761558 18.0098208 16.8485003 18.0098208 17.4314051 17.5052829 19.14468 15.8911222 20.3776504 15.1052338 20.3776504 14.3046523C20.9280002 13.6903175 21.3546891 13.3831501 21.6577167 13.3831501 22.1122582 13.3831501 22.7904087 13.3831501 22.7904087 12.9318156L22.7904087 12.9318156 22.7904087 12.3299662C22.7904087 12.1660317 23.1331719 12.1660317 23.8186982 12.3299662L23.8186982 12.3299662 25.1431641 12.0165994 25.1431641 11.5351793 26.3088253 11.0147365 28.2027319 11.0147365 31.6014565 11.2717981 31.6014565 12.9318156 30.7629845 13.3831501 30.107298 14.7017556 30.5082229 15.8911222 28.2027319 16.2349876 27.7122195 18.8137214 26.8116252 19.7817663C27.4120214 20.3003084 27.7122195 20.5595794 27.7122195 20.5595794 27.7122195 20.5595794 28.6442206 20.6513312 30.5082229 20.8348349L30.5082229 20.8348349 31.0589612 19.3408771 35.0250815 19.3408771 35.8417664 18.4345138C37.441254 18.1513851 38.2409978 18.0098208 38.2409978 18.0098208L38.2409978 18.0098208 39.9610589 18.0098208 40.9387765 17.2641331 41.3283892 16.2349876 42.3626911 15.8911222 43.1021942 16.2349876C43.3103731 16.5100434 43.5017101 16.7374893 43.6762049 16.9173252 43.9379471 17.1870792 44.6141412 17.2641331 45.0435073 17.2641331 45.3297515 17.2641331 45.3297515 17.5126956 45.0435073 18.0098208L45.0435073 18.0098208 44.3687593 18.4345138 44.0328758 19.7817663C43.698327 20.1168374 43.3880999 20.3761084 43.1021942 20.5595794 42.6733357 20.834786 43.1021942 21.376216 43.1021942 21.376216 43.1021942 21.376216 42.3626911 21.7254451 42.3626911 22.1107262 42.3626911 22.3675802 42.1624595 22.5381276 41.7619963 22.6223681L41.7619963 22.6223681 41.7619963 24.01262C41.7619963 24.4085846 41.2601409 24.5034457 40.2564301 24.2972033L40.2564301 24.2972033 39.3598516 24.7255664 39.3598516 25.5393763C39.7606565 25.7268684 39.9610589 25.8206146 39.9610589 25.8206146 39.9610589 25.8206146 40.059516 26.1064558 40.2564301 26.6781383L40.2564301 26.6781383 40.2564301 27.8996753C40.2564301 27.8996753 39.0043013 28.264298 38.7541142 28.264298 38.5039272 28.264298 37.8715425 29.0027874 37.4670131 29.2723225 37.0624837 29.5418577 37.4670131 30.3074809 37.4670131 30.7946783L37.4670131 30.7946783 37.4670131 32.3414633C37.4670131 32.3414633 38.2409978 33.5399627 38.2409978 33.8608255 38.2409978 34.0747341 38.4954322 34.0747341 39.0043013 33.8608255L39.0043013 33.8608255 41.3283892 32.3414633 41.3283892 37.024541 45.0435073 37.9759827C44.1877519 36.3060791 43.2941465 34.9343601 42.3626911 33.8608255 41.4312357 32.7872911 42.3248411 32.2808371 45.0435073 32.3414633L45.0435073 32.3414633 46.5068396 32.3414633C48.3176379 32.3414633 49.6212501 31.8258683 50.4176764 30.7946783 51.2141026 29.7634884 52.0701454 29.7634884 52.9858047 30.7946783L52.9858047 30.7946783 54.2221348 29.5569164 54.2221348 29.5569164 54.2221348 26.6781383 56.4321586 26.6781383 58.8684159 28.5042174 58.8684159 26.6781383 59.9288223 28.5042174 62.5102903 28.5042174 64.3373285 29.5569164 64.3373285 30.7946783 66.5866245 32.3414633 66.5866245 37.9759827 67.8172603 39 64.3373285 41.7994803 73.3297201 42.7585092 76.7144449 42.7585092 77.9999996 44.0400443 77.9999996 49.8578659 66.5866245 53.5440478 41.3283892 48.0986734C15.0500178 51.240757 1.73473138 54.2008359 1.38252999 56.9789101 1.0303286 59.7569842 1.55347532 60.1180682 2.95197013 58.0621618 3.64606218 59.8547957 3.99310819 60.7511128 3.99310819 60.7511128L3.99310819 60.7511128 2.00085554 60.7511128.961211541 62.7804877.4099637 64.5806806C.147148557 63.3883511.00860288533 62.1493812.00860288533 60.8780486L.00860288533 20.5595794.961211541 20.5595794 1.91083208 19.7817663 2.38094978 18.4345138C2.58552932 17.4230548 2.58552932 16.9173252 2.38094978 16.9173252 2.17637023 16.9173252 2.36671036 16.5752575 2.95197013 15.8911222L2.95197013 15.8911222 2.95197013 15.1052338C3.39125573 14.7948452 3.61089853 14.5279846 3.61089853 14.3046523L3.61089853 14.3046523 3.61089853 13.3831501C2.7909327 12.6810276 2.38094978 12.3299662 2.38094978 12.3299662 2.38094978 12.3299662 1.38252999 11.617582 1.38252999 11.2717981 1.38252999 10.9260142 2.38094978 10.9918619 2.38094978 10.6213781L2.38094978 10.6213781 2.38094978 8.63372611C2.38094978 8.55251343 2.38269406 8.47907514 2.38618263 8.41341128 2.45913973 8.28866242 2.53399611 8.16576144 2.61034411 8.04389044 2.69831478 8.12551431 2.81233839 8.32255151 2.95197013 8.63372611L2.95197013 8.63372611 3.61089853 8.18822207 3.61089853 7.10902654 3.99310819 7.10902654 3.72014935 6.47506886C6.85650303 2.52959625 11.6972074 0 17.1286656 0L24.374015 0 24.374015 0z"/>
    <g transform="translate(.009 20.186)">
      <path fill="#FF6" d="M77.9913967,10.2902509 C77.5335183,10.2902509 77.2476171,10.2902509 77.1336929,10.2902509 C77.0197686,10.2902509 76.8128527,10.4974085 76.5129454,10.9117238 L76.5129454,11.6416585 L75.9035087,11.8503261 L76.9474526,12.4083352 L77.1336929,13.7433671 L77.9913967,13.9272697 L77.9913967,10.2902509 Z"/>
      <path fill="#FFC832" d="M8.8984015,6.75882113e-15 L8.25393367,1.34261019 L8.25393367,2.0121543 L8.25393367,2.0121543 C8.25393367,2.0121543 8.59095442,2.96381441 9.86110884,2.96381441 L16.5683774,2.96381441 L16.5683774,4.98641005 C17.0876285,5.36838746 17.8311797,5.36838746 18.7990309,4.98641005 C19.7668822,4.60443254 20.7364537,4.1267477 21.7077453,3.55335553 L21.7077453,4.46188469 L21.9168092,4.98641005 L21.9168092,6.54535771 L22.0729407,7.72453945 L22.7677561,7.72453945 L22.7677561,7.72453945 C22.7677561,7.72453945 22.9732399,7.87057276 23.3842074,8.16263939 L23.3842074,8.73770304 L23.3842074,8.73770304 C23.3842074,8.97159156 22.8385397,8.91949973 24.1691694,9.08794663 C25.499799,9.25639362 25.7054611,9.63035035 25.7054611,9.97571761 C25.7054611,10.3210848 26.4362343,9.98894889 26.8297632,10.1550169 C27.2232921,10.3210848 28.0963186,10.3343161 28.0963186,10.1550169 L28.0963186,9.08794663 L28.0963186,9.08794663 L28.9925771,9.08794663 L28.9925771,9.08794663 C29.5807952,9.08794663 30.5576509,8.73770304 30.5576509,8.73770304 C30.5576509,8.73770304 30.5542105,8.16263939 30.7201418,8.16263939 C30.8860729,8.16263939 31.5909284,8.13775472 31.5909284,7.93114709 L31.5909284,7.32766195 L31.5909284,7.32766195 C31.5909284,7.12715943 31.6499546,6.81459792 31.7680073,6.38997753 C32.4739478,6.59715114 32.826918,6.64894457 32.826918,6.54535771 C32.826918,6.44177096 33.0086551,6.19147561 33.3721294,5.79447188 L33.9129882,6.7253157 L34.1402154,7.93114709 L34.1402154,9.51707248 L33.9129882,10.4539352 L32.826918,11.2725574 L33.0860649,12.7127618 L32.826918,14.2666009 L32.826918,15.5472865 L32.826918,15.5472865 C32.826918,15.9032425 32.8000004,16.4930419 33.0860649,16.4930419 L34.1402154,16.4930419 L34.1402154,16.4930419 C34.4069902,16.4930419 34.9992971,16.5354998 34.9992971,16.916261 L34.9992971,18.8136154 L34.9992971,18.8136154 L34.1402154,19.4502857 C34.8254823,19.7730973 35.3712318,19.9345031 35.777464,19.9345031 L37.7190899,19.9345031 L37.7190899,19.9345031 L37.7190899,22.5597175 L37.7190899,22.5597175 L39.4255198,22.5597175 L39.4255198,22.5597175 C39.4496293,22.9649441 39.7475372,22.9649441 40.3192436,22.5597175 C40.8909501,22.154491 41.9775482,21.568646 43.5790381,20.8021826 L44.9349711,20.8021826 C44.7682089,20.7143804 45.0381669,20.2637481 45.7448451,19.4502857 C46.8048623,18.230092 47.3792464,18.5501572 47.3792464,17.8623959 C47.3792464,17.1746345 51.1596128,18.0966039 51.9282465,17.5064324 C52.69688,16.916261 53.5328787,16.6943371 53.5328787,16.1208118 L53.5328787,15.1702454 L53.5328787,15.1702454 L62.0632649,15.1702454 L62.0632649,15.1702454 L62.0632649,20.8021826 L65.0397899,21.269732 L65.5382634,23.5617793 L66.9656874,23.5617793 L66.9656874,24.8528934 L68.6075716,24.8528934 L68.9981272,25.9783523 L70.6760445,25.9783523 L71.0723265,27.2306598 L74.6340318,27.5345454 L77.9913967,27.5345454 L77.9913967,40.6916641 C77.9913967,50.1478566 70.3264835,57.8136153 60.871334,57.8136153 L17.1200627,57.8136153 C7.66491315,57.8136153 0,50.1478566 0,40.6916641 L0,5.79447188 L2.50563226,5.79447188 L3.21319223,4.98641005 L3.95380549,3.55335553 L3.95380549,2.96381441 L5.36960151,6.75882113e-15 L6.53121779,0.636774211 L8.25393367,0.636774211 L8.8984015,6.75882113e-15 Z"/>
    </g>
    <path fill="#FF6" d="M26.6468506 77.9999998C25.8473784 77.4937534 25.4476422 77.2406302 25.4476422 77.2406302 25.4476422 77.2406302 25.9420434 76.4358842 26.2944469 76.4358842 26.6468506 76.4358842 28.3703169 76.1703243 28.3703169 76.1703243 28.3703169 76.1703243 28.7533472 76.0632594 29.0236401 75.691876 29.2038353 75.4442871 29.3494095 75.0771742 29.4603625 74.5905373L30.1303836 74.2725565C30.3960256 74.4845436 30.5288466 74.5905373 30.5288466 74.5905373 30.5288466 74.5905373 30.5288466 74.9576501 30.5288466 75.691876 30.8464402 75.691876 31.0052369 75.691876 31.0052369 75.691876 31.0052369 75.691876 31.1891839 75.9398787 31.5570779 76.4358842 31.516692 76.9723816 31.627836 77.2406302 31.89051 77.2406302 32.284521 77.2406302 32.7743985 76.6712766 32.7743985 76.9559535 32.7743985 77.1457379 32.8799666 77.4937534 33.0911029 77.9999998L26.6468506 77.9999998zM41.6017601 77.9999998L42.7270933 77.3902263 42.7270933 76.5368494 42.7270933 75.5669178C43.66098 75.7498326 44.1279233 75.7498326 44.1279233 75.5669178 44.1279233 75.3840029 43.919407 74.7883404 43.5023741 73.7799301 43.919407 73.332484 44.1279233 73.1087609 44.1279233 73.1087609 44.1279233 73.1087609 44.5518329 73.1087609 45.3996522 73.1087609L45.3996522 71.8744332 47.7422642 71.8744332 48.539214 71.8744332 48.539214 72.3069932 47.7422642 73.1087609 47.1024699 73.7799301 45.6993126 74.2725565C45.499539 75.135464 45.3996522 75.5669178 45.3996522 75.5669178 45.3996522 75.5669178 45.4446612 76.1981343 45.6993126 76.5368494 45.8690801 76.7626595 46.0140376 77.2503762 46.134185 77.9999998L41.6017601 77.9999998zM51.7279982 71.8744332C51.1085859 71.1890829 51.1085859 70.8464078 51.7279982 70.8464078 52.6571165 70.8464078 52.9593848 70.8464078 53.2959202 70.8464078 53.520277 70.8464078 53.7902536 70.8464078 54.1058499 70.8464078L54.1058499 71.3604205 52.9899876 71.8744332 51.7279982 71.8744332z"/>
    <g fill="#131415" transform="translate(22.515 16.696)">
      <polygon points="0 61.304 .369 59.638 1.084 59.638 1.084 58.859 3.222 58.859 4.402 58.859 4.402 59.638 4.402 61.304"/>
      <path d="M14.1849376 61.3042798L14.1849376 60.5481441 14.9808788 60.0816537C15.4805705 59.7712439 15.7304164 59.4898704 15.7304164 59.2375332 15.7304164 58.8590276 15.7304164 57.953732 15.7304164 57.953732 15.7304164 57.953732 15.7304164 57.6185167 15.7304164 56.9480863L14.5473064 56.3198504 14.1849376 55.5741963 15.3404719 54.3947931C15.3404719 52.9491144 15.3404719 52.2262751 15.3404719 52.2262751 15.3404719 52.2262751 15.0040806 51.0887685 14.9808788 51.0887685 14.9654109 51.0887685 14.5751055 50.8882773 13.8099626 50.487295L13.8099626 49.0373335 14.1849376 47.8979663 14.9808788 47.8979663C14.9606445 48.6575445 15.0805089 49.0373335 15.3404719 49.0373335 15.7304164 49.0373335 15.7304164 49.429895 15.7304164 49.429895 15.7304164 49.429895 16.4896083 50.6102693 16.4896083 51.0887685 16.4896083 51.407768 16.7044869 51.7869368 17.1342441 52.2262751L17.8572715 53.7486641C19.2555021 54.1794167 19.9546174 54.3947931 19.9546174 54.3947931 19.9546174 54.3947931 20.466059 54.7879275 21.4889421 55.5741963L19.9546174 56.9480863C20.1499591 57.406963 19.7287323 58.0439436 18.6909371 58.8590276 17.6531417 59.6741117 16.9193655 60.0816537 16.4896083 60.0816537L16.4896083 60.5481441 16.4896083 61.3042798 14.1849376 61.3042798zM32.1300063 61.3042798C32.1300063 61.3042798 32.4412968 60.8967378 33.0638778 60.0816537 33.603173 59.2665697 33.8728205 58.8590276 33.8728205 58.8590276 33.8728205 58.8590276 34.1057606 58.8590276 34.5716407 58.8590276L34.5716407 60.0816537 34.5716407 61.3042798C32.9438845 61.3042798 32.1300063 61.3042798 32.1300063 61.3042798zM45.5125407 22.3042799L44.7026784 22.3042799 44.214556 23.0601076 43.2653972 23.582132 42.8085456 24.6280674C42.5256444 25.165517 42.3841938 25.4342418 42.3841938 25.4342418 42.3841938 25.4342418 42.5256444 25.8853914 42.8085456 26.7876904L44.7026784 27.6713018 44.7026784 28.4751156C45.4680191 28.4751156 45.8506895 28.4751156 45.8506895 28.4751156 45.8506895 28.4751156 46.1396279 28.6168199 46.7175048 28.9002284L47.1554495 29.8962676C47.7380121 29.5262038 48.0292935 29.5262038 48.0292935 29.8962676 48.0292935 30.2663314 48.100896 30.7080391 48.244101 31.2213909 48.2840263 31.8485378 48.4272057 32.0382368 48.6736391 31.7904878 49.0432891 31.4188643 49.1098553 31.5781175 49.4220563 31.2213909 49.6301903 30.983573 50.0180427 30.7104183 50.5856134 30.4019264L50.5856134 26.1188514 49.4220563 25.8846388 48.6736391 24.6280674 45.5125407 22.3042799zM55.4853066 24.6623167L54.4069216 24.6623167C54.2346192 25.2085799 54.148468 25.5586677 54.148468 25.7125799 54.148468 25.8664922 54.2346192 26.3289659 54.4069216 27.1000012L54.8168874 27.1000012C55.2625002 27.3179423 55.4853066 27.3179423 55.4853066 27.1000012 55.4853066 26.88206 55.4853066 26.0694987 55.4853066 24.6623167zM55.4853066 0C54.5940809.208357835 54.148468.312536752 54.148468.312536752 54.148468.312536752 52.8598298 1.89429349 52.6069983 1.89429349 52.3541667 1.89429349 51.60465 2.61110068 51.3153451 3.09935391 51.0260402 3.58760714 51.2503921 3.65374374 50.8044729 4.18644975 50.5071935 4.54158709 50.4342402 4.94579712 50.5856134 5.39907982L50.8044729 6.58958913 51.6594489 6.97769874C51.9593401 7.37243129 52.1922379 7.56979757 52.358142 7.56979757 52.5240463 7.56979757 53.1208216 7.56979757 54.148468 7.56979757L54.8168874 6.58958913 55.4853066 6.58958913 55.4853066 0zM34.7496768 13.660332L34.7496768 15.3323443 34.7496768 16.2627377C35.6439746 16.4218159 36.0911234 16.4218159 36.0911234 16.2627377 36.0911234 16.1036595 36.0911234 15.2361909 36.0911234 13.660332L34.7496768 13.660332zM22.7348016 17.3645851L22.7348016 18.0688539 21.5793317 18.6370607 21.5793317 20.1020683C21.1941751 20.6798838 21.1941751 20.9687916 21.5793317 20.9687916 22.1570667 20.9687916 23.6911298 20.9687916 23.9337222 20.9687916 24.0954505 20.9687916 24.6742051 20.9687916 25.6699861 20.9687916 25.8639819 21.896597 25.9609798 22.4262849 25.9609798 22.5578553 25.9609798 22.6894257 26.2237876 22.9972624 26.7494031 23.4813658 27.5484544 23.4813658 28.0132096 23.4813658 28.1436687 23.4813658 28.2741278 23.4813658 28.5341563 23.4813658 28.9237541 23.4813658 29.453965 23.9074214 29.7190704 23.9074214 29.7190704 23.4813658 29.7190704 22.8422824 30.2351751 21.7373292 29.7190704 21.3530604 29.2029658 20.9687916 28.8316996 21.0634244 28.6339099 20.5827463 28.4361203 20.1020683 28.578043 19.8654817 28.3608558 19.8654817 28.1436687 19.8654817 27.4891651 19.5466162 27.4891651 19.0918384 27.4891651 18.6370607 27.5493176 18.3724781 27.1493604 18.3724781 26.8827221 18.3724781 26.6690102 18.3724781 26.5082245 18.3724781L26.2004715 17.3645851 22.7348016 17.3645851zM10.4928687 17.3645851C10.4928687 18.8036464 10.4928687 19.5231771 10.4928687 19.5231771 10.4928687 19.5231771 10.7227791 19.6337245 11.1825997 19.8548194L11.4974484 19.8548194 11.4974484 23.2191466C12.9934836 23.0933116 13.8369721 23.0933116 14.0279142 23.2191466 14.2188563 23.3449816 14.6314032 23.4416135 15.2655549 23.5090425L15.2655549 24.6529534 15.2655549 25.7506161C15.2655549 26.2346798 15.2655549 26.4767116 15.2655549 26.4767116 15.2655549 26.4767116 16.1712443 27.0518739 16.1712443 26.7642928 16.1712443 26.4767116 16.489657 26.1119195 16.489657 25.3824364 16.489657 24.6529534 16.489657 24.5824622 16.489657 24.1916849 16.489657 23.8009076 16.5010992 23.5857382 16.1712443 23.2191466 15.951341 22.9747521 15.5443026 22.6032701 14.9501293 22.1047004L14.0279142 21.3530604 12.9434672 20.5827463 12.9434672 19.2325895C12.9434672 18.3250002 12.9434672 17.8712055 12.9434672 17.8712055 12.9434672 17.8712055 12.9434672 17.702332 12.9434672 17.3645851L10.4928687 17.3645851z"/>
    </g>
    <polygon fill="#FFA109" points="30.018 33.078 29.238 33.078 28.453 34.471 30.018 34.981"/>
    <path fill="#FFA109" d="M56.6396205 38.9999999L56.6396205 40.4966276 55.8655164 42.6586068 55.8655164 43.5405355 54.6446992 43.959177 53.2557141 44.3489138 55.8655164 45.0118891C56.083777 44.5699055 56.3418117 44.3489138 56.6396205 44.3489138 57.0863336 44.3489138 56.5936465 43.5405355 57.2643698 43.5405355 57.9350931 43.5405355 57.2643698 43.3112693 57.9350931 42.6586068 58.6058164 42.0059445 58.6058164 42.219446 58.6058164 41.3580367 58.6058164 40.4966276 57.9296773 39.8528202 58.6058164 39.8528202 59.0565758 39.8528202 59.3993759 39.5685468 59.6342169 38.9999999L56.6396205 38.9999999zM61.4049825 49.7624546L59.1167951 49.7624546C58.3289938 50.9217872 57.9350931 51.5014534 57.9350931 51.5014534 57.9350931 51.5014534 57.4383838 52.4187127 56.4449655 54.2532311L54.6446992 54.7574267 53.9071836 55.4059166C56.1453077 54.9676566 57.4879442 54.583428 57.9350931 54.2532311 58.6058164 53.7579357 59.130137 52.5841856 59.6342169 52.5841856 59.9702701 52.5841856 60.422055 52.2232749 60.9895712 51.5014534L61.4049825 51.0401869 61.4049825 49.7624546z"/>
    <polygon fill="#FFA109" points="63.445 43.959 63.445 45.012 64.142 45.844 64.899 43.959"/>
    <path fill="#FFA109" d="M45.038303 53.7973694L45.038303 57.0226844C45.3351596 57.5762419 45.610803 57.8530206 45.865233 57.8530206 46.119663 57.8530206 46.610102 57.8530206 47.3365501 57.8530206L48.1341501 59.2761846 48.5608154 59.2761846 49.9943628 59.2761846 50.5725734 58.5178361 48.5608154 57.8530206 48.5608154 57.0226844C47.7446385 56.6987461 47.3365501 56.536777 47.3365501 56.536777 47.3365501 56.536777 47.1591234 56.1598235 46.80427 55.4059166L46.3798162 54.4808591 46.3798162 53.7973694 45.038303 53.7973694zM51.6513755 61.9494601L51.0807248 65.5068662 49.7353746 65.5068662 49.0634899 64.5936863C49.9261185 64.4642627 50.3574327 64.175755 50.3574327 63.7281631 50.3574327 63.2805713 50.3574327 62.6876703 50.3574327 61.9494601L51.6513755 61.9494601z"/>
    <polygon fill="#FFA109" points="64.172 69.592 63.445 71.297 63.009 72.925 64.899 72.925 65.681 69.592"/>
    <polygon fill="#FF6" points=".009 45.844 .009 51.427 1.013 52.502 2.195 51.427 1.013 50.108 1.511 49.38 2.597 49.38 1.511 47.352 1.511 45.872"/>
    <path fill="#FF6" d="M0.00860288533,51.4267123 L0.00860288533,54.501934 L0.683108173,54.501934 C0.856043863,54.2148215 0.942511708,53.8867749 0.942511708,53.5177942 C0.942511708,53.1488135 0.942511708,52.4517862 0.942511708,51.4267123 L0.00860288533,51.4267123 Z"/>
  </g>
</svg>
