<svg xmlns="http://www.w3.org/2000/svg" width="96" height="96" viewBox="0 0 96 96">
  <defs>
    <filter id="com.apps.colon-a" width="130.8%" height="130.8%" x="-15.4%" y="-15.4%" filterUnits="objectBoundingBox">
      <feOffset dy="2" in="SourceAlpha" result="shadowOffsetOuter1"/>
      <feGaussianBlur in="shadowOffsetOuter1" result="shadowBlurOuter1" stdDeviation="2"/>
      <feColorMatrix in="shadowBlurOuter1" result="shadowMatrixOuter1" values="0 0 0 0 0   0 0 0 0 0   0 0 0 0 0  0 0 0 0.2 0"/>
      <feMerge>
        <feMergeNode in="shadowMatrixOuter1"/>
        <feMergeNode in="SourceGraphic"/>
      </feMerge>
    </filter>
    <linearGradient id="com.apps.colon-b" x1="50%" x2="50%" y1="0%" y2="100%">
      <stop offset="0%" stop-color="#2A1B01"/>
      <stop offset="100%" stop-color="#1E0B00"/>
    </linearGradient>
    <linearGradient id="com.apps.colon-c" x1="50%" x2="50%" y1="0%" y2="100%">
      <stop offset="0%" stop-color="#FF9D00"/>
      <stop offset="100%" stop-color="#EF8500"/>
    </linearGradient>
  </defs>
  <g fill="none" fill-rule="evenodd" filter="url(#com.apps.colon-a)" transform="translate(9 9)">
    <rect width="78" height="78" fill="url(#com.apps.colon-b)" rx="18"/>
    <path fill="url(#com.apps.colon-c)" fill-rule="nonzero" d="M60,0 C69.9411255,0 78,8.0588745 78,18 L78,60 C78,69.9411255 69.9411255,78 60,78 L18,78 C8.0588745,78 0,69.9411255 0,60 L0,18 C0,8.0588745 8.0588745,0 18,0 L60,0 Z M60,8 L18,8 C12.5707601,8 8.15206828,12.3266708 8.0038418,17.7200952 L8,18 L8,60 C8,65.4292399 12.3266708,69.8479317 17.7200952,69.9961582 L18,70 L60,70 C65.4292399,70 69.8479317,65.6733292 69.9961582,60.2799048 L70,60 L70,18 C70,12.5707601 65.6733292,8.15206828 60.2799048,8.0038418 L60,8 Z"/>
    <path fill="#FA9500" d="M49.7868592,28.8003954 C50.6793382,28.8003954 51.9721633,22.529743 50.6793382,21.5177949 C50.4366053,21.3277978 37.9860866,16.8131586 29.7962411,24.3243697 C28.2680333,25.7259457 26.2677818,28.183289 25.1209791,31.77464 C24.4637783,33.8327437 24,35.4044109 24,39.0667933 C24,42.7291758 25.2103112,49.049624 29.7962411,53.5694063 C32.420624,56.1559351 36.3099933,57.7248822 40.3976026,57.9680205 C42.1295043,58.0710372 44.9379958,57.9519388 48.2577321,57.212683 C49.6983711,56.8918742 51.8422949,56.8918742 51.9721633,55.9932065 C52.1020317,55.0945388 51.8422949,48.6144182 49.7868592,48.6144182 C47.7314234,48.6144182 41.6250053,51.7220739 36.6223058,47.1748957 C33.3953027,44.2417278 33.0036438,40.0057761 33.6740655,36.3017242 C34.042973,34.2635259 35.2575496,31.7316583 36.6223058,30.3782702 C40.4672563,26.5653473 48.8943802,28.8003954 49.7868592,28.8003954 Z"/>
  </g>
</svg>
