<svg xmlns="http://www.w3.org/2000/svg" width="96" height="96" viewBox="0 0 96 96">
  <defs>
    <filter id="com.apps.bygfoot-a" width="128.6%" height="128.6%" x="-14.3%" y="-14.3%" filterUnits="objectBoundingBox">
      <feOffset dy="2" in="SourceAlpha" result="shadowOffsetOuter1"/>
      <feGaussianBlur in="shadowOffsetOuter1" result="shadowBlurOuter1" stdDeviation="2"/>
      <feColorMatrix in="shadowBlurOuter1" result="shadowMatrixOuter1" values="0 0 0 0 0   0 0 0 0 0   0 0 0 0 0  0 0 0 0.2 0"/>
      <feMerge>
        <feMergeNode in="shadowMatrixOuter1"/>
        <feMergeNode in="SourceGraphic"/>
      </feMerge>
    </filter>
    <radialGradient id="com.apps.bygfoot-b" cx="51.953%" cy="39.61%" r="63.279%" fx="51.953%" fy="39.61%" gradientTransform="rotate(95.343 .48 .352) scale(1 .77691)">
      <stop offset="0%" stop-color="#FFF"/>
      <stop offset="65.478%" stop-color="#E9EBE9"/>
      <stop offset="100%" stop-color="#A7A7A7"/>
    </radialGradient>
    <linearGradient id="com.apps.bygfoot-c" x1="50%" x2="50%" y1=".557%" y2="106.298%">
      <stop offset="0%" stop-color="#B8B8B8"/>
      <stop offset="100%" stop-color="#787878"/>
    </linearGradient>
    <linearGradient id="com.apps.bygfoot-d" x1="50%" x2="50%" y1="0%" y2="107.256%">
      <stop offset="0%" stop-color="#58A1FF"/>
      <stop offset="100%" stop-color="#1646A8"/>
    </linearGradient>
  </defs>
  <g fill="none" fill-rule="evenodd" filter="url(#com.apps.bygfoot-a)" transform="translate(6 6)">
    <circle cx="42" cy="42" r="42" fill="url(#com.apps.bygfoot-b)"/>
    <path stroke="url(#com.apps.bygfoot-c)" stroke-linecap="round" stroke-linejoin="round" d="M39.284668,34.7802161 L49.5,51.5 M51.1972656,73.3029785 L48.5559548,82.8991699 M63.1657715,66.1425781 L74.6516113,67.5349121 M43.9038086,22.0539551 L63.1657715,24.7121582 M70.0815242,35.5 L63.5,56.6869474 M12.2287598,52.8457024 L25.8103604,34.7802161 M20.5,21.5 L6.01123047,21.6388388 M32.409668,15.1469727 L35.5619046,1.23925781 M40.6967773,66.4880371 L20.5,64.8564453"/>
    <path fill="url(#com.apps.bygfoot-d)" d="M49.050293,50.8007813 C49.050293,50.8007813 53.9773763,52.5446523 63.831543,56.0323944 L63.831543,66.3222656 L51.2832031,73.8007813 L39.284668,66.3222656 C45.7950846,55.9746094 49.050293,50.8007813 49.050293,50.8007813 Z M12.4975586,52.5180664 C12.4975586,52.5180664 15.3880208,56.606958 21.1689453,64.7847412 L20.5151367,72.0264253 L13.4626118,72.8161258 C8.14987053,67.8939014 4.11228938,61.614784 1.90074122,54.5296466 L1.61279297,52.5180664 L12.4975586,52.5180664 Z M65.0305119,13.2270536 C65.0307617,13.2260742 69.9474284,16.7491862 79.7807617,23.7954102 L79.7807617,37.6787109 L69.7744141,36.6523437 L62.1171875,24.6499023 C63.8415918,17.8886885 64.8005522,14.1287024 64.9940687,13.3699439 L65.0297626,13.2299919 L65.0305119,13.2270536 Z M32.609375,14.0708008 C32.609375,14.0708008 36.75,16.6832682 45.03125,21.9082031 L39.4594727,35.3535156 L25.7138672,35.3535156 L19.7880859,21.2734375 C28.335612,16.4716797 32.609375,14.0708008 32.609375,14.0708008 Z"/>
    <path fill="#2C44C7" fill-rule="nonzero" d="M9.9750794,51.9291766 L11.7787158,51.7158433 C13.8086148,51.2891766 15.2631602,50.6491766 16.1423521,49.7958433 L16.1423521,49.7958433 L15.9096249,50.1061463 L15.9484127,50.1061463 C16.5948774,49.4596816 17.040938,48.8196816 17.2865945,48.1861463 C17.2865945,47.7724089 17.150837,47.3457422 16.8793218,46.9061463 L16.8793218,46.9061463 L16.8793218,46.8479645 C17.241342,46.9384695 17.4223521,47.1194796 17.4223521,47.3909948 L17.4223521,47.3909948 L17.4223521,47.4297826 L17.3253824,47.9146311 L17.3253824,48.0309948 C17.4417461,48.0309948 17.5257865,47.8176614 17.5775036,47.3909948 C17.5775036,47.003116 17.2801299,46.7897826 16.6853824,46.7509948 C16.4785137,46.453621 16.2845743,46.3049342 16.1035642,46.3049342 L16.1035642,46.3049342 L16.1035642,46.2661463 C17.4094228,45.0249342 18.3274026,44.0617018 18.8575036,43.3764493 C19.7754834,41.9283685 20.2344733,40.9457422 20.2344733,40.4285705 L20.2344733,40.4285705 L20.1762915,40.4285705 C20.1762915,39.9760453 19.8142713,39.6528129 19.0902309,39.4588736 C18.7799279,38.8899847 18.0429582,38.6055402 16.8793218,38.6055402 L16.8793218,38.6055402 L16.8405339,38.6055402 C15.0562915,38.6055402 13.4659885,39.0516008 12.0696249,39.943722 C11.3197259,40.2410958 10.5375036,40.9198837 9.72295819,41.9800857 C9.54194808,42.7170554 9.32861475,43.2665503 9.08295819,43.6285705 C9.08295819,43.8225099 9.14760465,43.9518028 9.27689758,44.0164493 L9.27689758,44.0164493 L9.56780667,44.0164493 L9.56780667,43.9000857 C9.41265516,43.9000857 9.3350794,43.8483685 9.3350794,43.7449342 L9.3350794,43.7449342 L9.3350794,43.6285705 L9.52901879,43.3764493 L9.47083697,43.5316008 C9.47083697,43.7772574 9.65184707,43.9388736 10.0138673,44.0164493 L10.0138673,44.0164493 L10.0720491,44.0164493 L10.3047764,43.9582675 L10.3047764,44.0164493 L10.3629582,44.0746311 C10.4276047,44.0746311 10.4599279,43.9970554 10.4599279,43.8419039 L10.4599279,43.8419039 L10.750837,43.8419039 C10.9447764,43.6738231 11.0417461,43.5316008 11.0417461,43.4152372 C11.4425541,43.0661463 11.6429582,42.8528129 11.6429582,42.7752372 L11.6429582,42.7752372 L11.7399279,42.7752372 C11.6494228,43.0596816 11.5653824,43.2019039 11.4878067,43.2019039 L11.4878067,43.2019039 L11.5459885,43.2600857 L11.2356855,44.3267523 C10.42114,46.3695806 9.89750364,47.7982675 9.66477637,48.6128129 L9.66477637,48.6128129 L9.66477637,48.6709948 L9.72295819,48.7291766 C9.65831172,49.2722069 9.54194808,49.8217018 9.37386728,50.3776614 L9.37386728,50.3776614 L9.37386728,50.4358433 L9.47083697,50.5328129 L9.43204909,50.7073584 C9.43204909,50.7720049 9.52901879,50.843116 9.72295819,50.9206917 L9.72295819,50.9206917 L9.66477637,51.0758433 L9.72295819,51.2309948 L9.62598849,51.4055402 L9.56780667,51.4055402 L9.66477637,51.6576614 C9.66477637,51.7093786 9.55487738,51.7675604 9.3350794,51.8322069 L9.3350794,51.8322069 L9.3350794,51.8709948 L9.37386728,51.9291766 L9.72295819,51.8709948 L9.76174606,51.8709948 L9.9750794,51.9291766 Z M19.7302309,41.4952372 L19.7884127,41.2819039 L19.7884127,41.1267523 C19.6461905,40.3509948 19.4651804,39.8661463 19.2453824,39.6722069 L19.2453824,39.6722069 L19.4005339,39.6722069 C19.8530592,39.9566513 20.0793218,40.2410958 20.0793218,40.5255402 C19.9500289,41.1720049 19.8336653,41.4952372 19.7302309,41.4952372 L19.7302309,41.4952372 Z M17.6162915,41.6503887 C17.6162915,41.3918028 17.4546754,41.1267523 17.131443,40.8552372 C17.5968976,40.9716008 17.8296249,41.1138231 17.8296249,41.2819039 C17.8296249,41.4758433 17.7585137,41.5986715 17.6162915,41.6503887 Z M10.110837,50.9788736 L10.0720491,50.9788736 C10.2272006,50.8107927 10.4017461,50.3970554 10.5956855,49.7376614 L10.5956855,49.7376614 L10.6538673,49.7376614 L10.6538673,49.7958433 L10.4599279,50.4358433 L10.4599279,50.5328129 L10.4987158,50.5328129 C10.8348774,49.6019039 11.1839683,48.9812978 11.5459885,48.6709948 C12.8518471,46.3307927 13.5047764,44.5271564 13.5047764,43.2600857 C13.5047764,43.1049342 13.3884127,42.7817018 13.1556855,42.2903887 C14.2288168,41.6568534 15.5088168,41.3400857 16.9956855,41.3400857 L16.9956855,41.3400857 L16.9956855,41.223722 L16.3944733,41.223722 C15.2825541,41.223722 14.2223521,41.5275604 13.2138673,42.1352372 C13.1492208,42.1352372 13.0975036,42.0447321 13.0587158,41.863722 C13.9379077,41.2301867 15.0045743,40.913419 16.2587158,40.913419 L16.2587158,40.913419 L16.4526552,40.913419 C17.0991198,41.1073584 17.4223521,41.4111968 17.4223521,41.8249342 C17.4223521,42.2516008 15.9031602,43.9453382 12.8647764,46.9061463 L12.8647764,46.9061463 L12.9617461,47.003116 L12.6126552,47.4297826 L12.7678067,47.6043281 L12.2247764,48.0891766 L12.3217461,48.2443281 L12.9035642,48.0891766 C12.9035642,48.1408938 12.9876047,48.1926109 13.1556855,48.2443281 L13.1556855,48.2443281 L13.5047764,48.1279645 L13.5047764,48.1861463 L13.5435642,48.2443281 L14.2417461,48.0309948 L14.2805339,48.0309948 L14.2805339,48.0891766 L14.2417461,48.1279645 L14.2805339,48.1279645 C14.2805339,48.0245301 14.5585137,47.9210958 15.1144733,47.8176614 C15.2049784,47.8176614 15.2696249,47.9404897 15.3084127,48.1861463 C15.3084127,48.393015 15.0175036,48.7291766 14.4356855,49.1946311 C12.4316451,50.3841261 10.9900289,50.9788736 10.110837,50.9788736 L10.110837,50.9788736 Z M11.7399279,47.9146311 L11.6817461,47.9146311 L11.6817461,47.8564493 C12.5350794,46.1239241 13.0134632,44.5918028 13.1168976,43.2600857 L13.1168976,43.2600857 L12.8065945,42.0382675 L12.8647764,41.863722 C12.9294228,41.863722 13.0587158,42.3097826 13.2526552,43.2019039 C13.2526552,44.3396816 12.7484127,45.9105907 11.7399279,47.9146311 L11.7399279,47.9146311 Z M9.47083697,49.3109948 L9.52901879,49.2528129 L9.47083697,48.9425099 L9.56780667,48.5158433 L11.4878067,43.3182675 L11.4878067,43.2600857 L11.4296249,43.2600857 L10.4599279,44.2297826 L10.5568976,44.3267523 L11.2356855,43.5897826 L11.2938673,43.5897826 L10.5568976,45.6649342 C9.98800869,47.0354392 9.59366526,48.1279645 9.37386728,48.9425099 L9.37386728,48.9425099 L9.37386728,49.2528129 L9.43204909,49.3109948 L9.47083697,49.3109948 Z M13.7375036,48.5546311 L15.1144733,48.1861463 L15.1144733,48.0891766 C14.8558875,48.0891766 14.5132612,48.1926109 14.0865945,48.3994796 L14.0865945,48.3994796 L13.9896249,48.3994796 L13.9896249,48.3412978 C14.1189178,48.3412978 14.1835642,48.2895806 14.1835642,48.1861463 L14.1835642,48.1861463 L13.6987158,48.4576614 L13.6987158,48.5158433 L13.7375036,48.5546311 Z M11.9338673,51.9291766 L12.9035642,51.7740251 C14.0154834,51.5671564 14.9981097,51.0305907 15.851443,50.1643281 L15.851443,50.1643281 L15.8126552,50.1643281 C14.4162915,51.2762473 13.1362915,51.8322069 11.9726552,51.8322069 L11.9726552,51.8322069 L11.9338673,51.8322069 L11.9338673,51.9291766 Z M24.1197259,54.4503887 L24.701544,54.2370554 C26.0979077,52.853621 27.4490188,50.6556412 28.7548774,47.643116 C29.0005339,46.9578635 29.1686148,46.2208938 29.2591198,45.4322069 L29.2591198,45.4322069 L29.2591198,45.393419 L29.2203319,45.3546311 L29.2203319,45.3158433 L29.2591198,45.2576614 C29.2591198,44.9085705 29.0716451,44.6176614 28.6966956,44.3849342 L28.6966956,44.3849342 L28.5997259,44.3849342 L28.5997259,44.423722 C28.8065945,44.6176614 28.9488168,44.8309948 29.0263925,45.063722 C29.0263925,45.813621 28.8518471,46.6604897 28.5027562,47.6043281 L28.5027562,47.6043281 L28.4639683,47.6043281 L28.4639683,47.5655402 C28.7484127,46.6217018 28.890635,45.8524089 28.890635,45.2576614 C28.890635,44.8180655 28.6579077,44.4819039 28.1924531,44.2491766 C28.0373016,44.2621059 27.9403319,44.3913988 27.901544,44.6370554 C27.5524531,45.2318028 27.3520491,45.8071564 27.3003319,46.363116 L27.3003319,46.363116 L27.2421501,46.363116 L27.2421501,46.2855402 L27.3003319,46.1109948 L27.2033622,46.1109948 C27.0740693,46.6798837 26.9447764,46.9643281 26.8154834,46.9643281 C25.0958875,48.5417018 23.6865945,49.5243281 22.5876047,49.9122069 C22.8203319,48.6709948 22.9366956,47.9081665 22.9366956,47.623722 L22.9366956,47.623722 L22.9366956,47.2358433 C22.9366956,46.7186715 22.8203319,46.2273584 22.5876047,45.7619039 L22.5876047,45.7619039 L21.3851804,44.5206917 C21.0619481,44.5206917 20.9003319,44.6370554 20.9003319,44.8697826 L20.9003319,44.8697826 L20.9003319,44.9085705 L20.9796089,44.9085705 L20.9694228,44.9128129 C20.8498269,44.9855402 20.7366956,45.1067523 20.6300289,45.2764493 L20.551241,45.4128129 L20.4736653,45.4128129 L20.4348774,45.3740251 L20.3960895,45.3740251 L20.551241,45.6261463 L20.5900289,45.5873584 L20.6288168,45.5873584 L20.6676047,45.6261463 L20.5900289,45.8006917 C20.7968976,46.3954392 20.9003319,46.9643281 20.9003319,47.5073584 L20.9003319,47.5073584 L20.9003319,47.7594796 C20.9003319,48.0827119 20.7581097,49.0265503 20.4736653,50.5909948 C20.4736653,50.9271564 20.6029582,51.0952372 20.861544,51.0952372 C21.0166956,51.4443281 21.2235642,51.6188736 21.4821501,51.6188736 C21.611443,51.8386715 21.7665945,51.9485705 21.9476047,51.9485705 C22.7880087,51.9485705 24.1520491,51.2051362 26.0397259,49.7182675 C25.5096249,51.0370554 24.8502309,52.3041261 24.061544,53.5194796 C24.061544,53.6617018 23.8417461,53.7716008 23.4021501,53.8491766 L23.4021501,53.8491766 L23.4021501,53.9073584 C23.4021501,54.153015 23.641342,54.3340251 24.1197259,54.4503887 L24.1197259,54.4503887 Z M20.9003319,51.0176614 L20.8227562,51.0176614 C20.6934632,50.9659443 20.6288168,50.8689746 20.6288168,50.7267523 L20.6288168,50.7267523 L20.6288168,50.5522069 L21.0166956,47.9146311 L21.0166956,47.1582675 C21.0166956,46.8479645 20.9003319,46.3954392 20.6676047,45.8006917 L20.6676047,45.8006917 L20.6676047,45.7619039 C21.081342,46.343722 21.2882107,46.9384695 21.2882107,47.5461463 L21.2882107,47.5461463 L21.2882107,47.9728129 C21.1330592,49.1493786 20.990837,49.9962473 20.861544,50.513419 L20.861544,50.513419 L20.9003319,50.9788736 L20.9003319,51.0176614 Z M22.5100289,50.3000857 L22.5100289,50.203116 C22.5617461,50.0996816 22.6522511,50.0479645 22.781544,50.0479645 C24.0098269,49.5307927 25.0570996,48.813217 25.9233622,47.8952372 L25.9233622,47.8952372 L25.9621501,47.8952372 L25.9621501,47.9340251 C24.50114,49.2786715 23.3504329,50.0673584 22.5100289,50.3000857 L22.5100289,50.3000857 Z M22.0057865,51.8709948 C21.9023521,51.8709948 21.7730592,51.8128129 21.6179077,51.6964493 L21.6179077,51.6964493 L21.7148774,51.6188736 L22.2385137,51.6188736 C22.5488168,51.6188736 23.0465945,51.463722 23.7318471,51.153419 L23.7318471,51.153419 L23.8094228,51.153419 L23.8094228,51.1922069 C22.8397259,51.6447321 22.2385137,51.8709948 22.0057865,51.8709948 Z M34.1722511,54.6055402 C34.5859885,54.5279645 34.851039,54.4374594 34.9674026,54.3340251 C35.7690188,53.6358433 36.6352814,52.213621 37.5661905,50.0673584 C38.5617461,47.7271564 39.0595238,46.2338231 39.0595238,45.5873584 C39.0595238,44.8891766 38.8138673,44.5400857 38.3225541,44.5400857 L38.3225541,44.5400857 L38.2255844,44.6176614 L37.6631602,44.5400857 L37.6631602,44.6952372 C37.4821501,44.6952372 37.3916451,44.8051362 37.3916451,45.0249342 L37.3916451,45.0249342 L37.3140693,45.0249342 L37.2752814,44.9861463 L37.3140693,45.1412978 L37.2752814,45.3352372 L37.2170996,45.3352372 C37.2170996,45.1800857 37.1718471,45.0443281 37.081342,44.9279645 L37.081342,44.9279645 L37.1783117,44.9279645 L37.2170996,44.9473584 L37.2170996,44.9279645 L36.8098269,44.5012978 C36.8098269,44.2685705 36.3573016,44.1328129 35.4522511,44.0940251 L35.4522511,44.0940251 L35.2195238,44.1328129 C34.8833622,44.1328129 34.1269986,44.5077624 32.9504329,45.2576614 C31.011039,46.8479645 30.041342,48.1990756 30.041342,49.3109948 C30.0542713,49.5825099 30.170635,49.8669544 30.3904329,50.1643281 C30.5067966,50.4487725 30.9205339,50.6750352 31.6316451,50.843116 C31.9160895,51.1663483 32.2651804,51.3279645 32.6789178,51.3279645 L32.6789178,51.3279645 L33.0667966,51.3279645 L33.8231602,51.2309948 L33.8231602,51.153419 L33.0667966,51.2503887 L32.6789178,51.2503887 C32.071241,51.1469544 31.7674026,51.0241261 31.7674026,50.8819039 C32.2975036,51.0370554 32.6465945,51.1146311 32.8146754,51.1146311 C33.7197259,51.0758433 34.1722511,51.0370554 34.1722511,50.9982675 L34.1722511,50.9982675 L34.211039,51.0370554 C34.74114,50.8301867 35.2324531,50.5780655 35.6849784,50.2806917 L35.6849784,50.2806917 L35.3164935,51.1922069 C34.7734632,52.6790756 34.3532612,53.4289746 34.0558875,53.4419039 C33.7326552,53.4289746 33.571039,53.3643281 33.571039,53.2479645 C33.5581097,53.1574594 33.5387158,53.1122069 33.5128572,53.1122069 C33.4740693,53.1380655 33.4546754,53.183318 33.4546754,53.2479645 L33.4546754,53.2479645 L33.4546754,53.3449342 C33.4676047,53.4483685 33.5904329,53.5000857 33.8231602,53.5000857 L33.8231602,53.5000857 L33.9589178,53.5000857 L33.9589178,53.5776614 L33.881342,53.5776614 C33.8037663,53.5647321 33.7261905,53.5582675 33.6486148,53.5582675 C33.3900289,53.5582675 33.260736,53.6293786 33.260736,53.7716008 C33.260736,53.8491766 33.3059885,53.9526109 33.3964935,54.0819039 L33.3964935,54.0819039 L33.3964935,54.1594796 C33.1637663,54.1594796 33.0474026,54.0366513 33.0474026,53.7909948 L33.0474026,53.7909948 L32.9504329,53.7909948 C32.9504329,54.0883685 33.0667966,54.2370554 33.2995238,54.2370554 L33.2995238,54.2370554 L33.3383117,54.2370554 L33.3964935,54.1982675 C33.5128572,54.4051362 33.7326552,54.5408938 34.0558875,54.6055402 L34.0558875,54.6055402 L34.1722511,54.6055402 Z M38.6716451,46.4600857 L38.6328572,46.4600857 L38.6328572,46.4212978 L38.6716451,46.0140251 L38.6716451,45.5485705 L38.6328572,45.3740251 L38.6716451,45.3352372 C38.6716451,45.063722 38.5552814,44.8374594 38.3225541,44.6564493 L38.3225541,44.6564493 L38.3225541,44.6176614 C38.6199279,44.6693786 38.7686148,44.8827119 38.7686148,45.2576614 L38.7686148,45.2576614 L38.7686148,45.6261463 C38.7686148,45.9752372 38.7362915,46.253217 38.6716451,46.4600857 L38.6716451,46.4600857 Z M32.9504329,50.0673584 C32.5754834,50.0673584 32.3880087,49.8152372 32.3880087,49.3109948 L32.3880087,49.3109948 L32.3880087,49.1170554 C32.3880087,48.4188736 32.7047764,47.643116 33.3383117,46.7897826 L33.3383117,46.7897826 L33.2995238,46.673419 L33.2995238,46.6540251 L33.3383117,46.6540251 L33.3383117,46.7122069 L33.3964935,46.7122069 C33.991241,45.9493786 34.6958875,45.4386715 35.5104329,45.1800857 C35.5621501,45.1800857 35.8659885,45.4709948 36.4219481,46.0528129 L36.4219481,46.0528129 L36.460736,46.0528129 C36.3055844,45.7812978 36.0857865,45.4903887 35.801342,45.1800857 L35.801342,45.1800857 L35.801342,45.1412978 C35.8659885,45.1412978 35.9888168,45.2576614 36.1698269,45.4903887 L36.1698269,45.4903887 L36.7322511,46.3825099 C36.8744733,46.3307927 36.9455844,46.2661463 36.9455844,46.1885705 L36.9455844,46.1885705 L37.0425541,46.1885705 L37.0425541,46.2661463 L37.0037663,46.3049342 C36.8227562,47.0806917 36.7063925,47.4685705 36.6546754,47.4685705 C36.4090188,47.9210958 36.2150794,48.2120049 36.0728572,48.3412978 L36.0728572,48.3412978 L36.3249784,47.7982675 L36.2086148,47.7400857 C36.1698269,47.7400857 36.0793218,47.9017018 35.9370996,48.2249342 C34.8251804,49.453217 33.8296249,50.0673584 32.9504329,50.0673584 Z M32.4267966,49.9122069 L32.3880087,49.9122069 C32.1423521,49.7958433 32.0195238,49.5825099 32.0195238,49.2722069 C32.0195238,48.5869544 32.400938,47.7724089 33.1637663,46.8285705 L33.1637663,46.8285705 L33.2025541,46.8285705 C32.5690188,47.733621 32.2522511,48.5093786 32.2522511,49.1558433 C32.2522511,49.4273584 32.3104329,49.6794796 32.4267966,49.9122069 L32.4267966,49.9122069 Z M31.0886148,50.513419 L31.0498269,50.513419 C30.5326552,50.2289746 30.2740693,49.8023079 30.2740693,49.233419 C30.2740693,48.703318 30.6231602,47.9663483 31.321342,47.0225099 L31.321342,47.0225099 L31.3795238,47.0225099 L31.3795238,47.0612978 C30.8364935,47.8111968 30.5326552,48.5093786 30.4680087,49.1558433 C30.4680087,49.6859443 30.6748774,50.1384695 31.0886148,50.513419 L31.0886148,50.513419 Z M46.1059885,41.4370554 L46.2029582,41.4370554 C46.3839683,41.6956412 46.5520491,41.8443281 46.7072006,41.883116 C46.810635,41.883116 46.8623521,41.8443281 46.8623521,41.7667523 L46.8623521,41.7667523 L46.8623521,41.6503887 C46.7459885,41.6503887 46.6166956,41.5275604 46.4744733,41.2819039 L46.4744733,41.2819039 L46.4744733,41.223722 L46.6296249,41.1655402 C46.90114,41.5275604 47.2566956,41.7085705 47.6962915,41.7085705 L47.6962915,41.7085705 L47.7544733,41.7085705 L48.1035642,41.6116008 L48.4332612,42.0964493 L48.491443,42.0964493 L48.5496249,42.0382675 L48.2587158,41.4370554 C48.4138673,41.4370554 48.491443,41.3853382 48.491443,41.2819039 L48.491443,41.2819039 L48.7629582,41.3400857 C48.8793218,41.3400857 48.9375036,41.3012978 48.9375036,41.223722 L48.9375036,41.223722 L48.8599279,41.0103887 L48.8599279,40.9522069 L48.9375036,40.913419 C48.6789178,40.2410958 48.3233622,39.6980655 47.870837,39.2843281 C48.3880087,39.2843281 48.7823521,39.5752372 49.0538673,40.1570554 C49.0538673,40.3380655 49.0861905,40.4285705 49.150837,40.4285705 L49.150837,40.4285705 L49.2090188,40.4285705 L49.2090188,40.3703887 L49.150837,40.0406917 C48.8922511,39.433015 48.4526552,39.1291766 47.8320491,39.1291766 L47.8320491,39.1291766 L47.6381097,39.1873584 C47.1855844,38.8253382 46.8170996,38.6443281 46.5326552,38.6443281 L46.5326552,38.6443281 L46.3581097,38.6443281 C46.1770996,38.6443281 45.7181097,38.8253382 44.98114,39.1873584 C44.1148774,39.6916008 43.4619481,40.713015 43.0223521,42.2516008 C42.5439683,43.2600857 42.0461905,45.0184695 41.5290188,47.5267523 C41.1540693,47.5267523 40.701544,47.4362473 40.171443,47.2552372 L40.171443,47.2552372 L40.1326552,47.2552372 C40.1326552,47.3716008 40.3847764,47.4814998 40.8890188,47.5849342 L40.8890188,47.5849342 L40.8890188,47.643116 L40.8502309,47.643116 C40.5657865,47.6172574 40.2684127,47.4879645 39.9581097,47.2552372 L39.9581097,47.2552372 L39.7253824,47.2552372 L39.5120491,47.4685705 C39.5120491,47.6107927 39.5831602,47.7594796 39.7253824,47.9146311 C40.281342,48.4447321 40.8243723,48.7097826 41.3544733,48.7097826 C41.2898269,49.8475604 41.1346754,50.9465503 40.8890188,52.0067523 L40.8890188,52.0067523 L40.9665945,52.0067523 C41.0570996,52.0067523 41.1152814,51.8580655 41.14114,51.5606917 L41.14114,51.5606917 L41.1799279,51.5606917 C41.1799279,51.7804897 41.2962915,51.8903887 41.5290188,51.8903887 L41.5290188,51.8903887 L41.5872006,51.8903887 L41.8587158,51.8322069 L41.8975036,51.8903887 L42.0138673,51.6770554 L42.1884127,51.7352372 L42.3047764,51.7352372 C42.5116451,50.8172574 42.8672006,49.7570554 43.371443,48.5546311 L43.371443,48.5546311 L44.9035642,47.4685705 C45.4336653,47.313419 45.6987158,47.0612978 45.6987158,46.7122069 L45.6987158,46.7122069 L45.6405339,46.4988736 L45.6405339,46.4600857 L45.6987158,46.4019039 C45.8150794,46.4019039 45.8732612,46.363116 45.8732612,46.2855402 L45.8732612,46.2855402 L45.8732612,46.2273584 C45.4595238,46.2661463 44.7936653,46.5376614 43.8756855,47.0419039 L43.8756855,47.0419039 L43.8175036,47.0419039 L44.8065945,43.7643281 C45.0005339,42.8075604 45.4336653,42.0318028 46.1059885,41.4370554 L46.1059885,41.4370554 Z M52.6676047,51.9291766 C53.6243723,51.9291766 54.6134632,51.5412978 55.6348774,50.7655402 C57.3544733,49.0200857 58.2142713,47.6495806 58.2142713,46.6540251 L58.2142713,46.6540251 L58.2142713,46.6152372 C58.2142713,46.2790756 58.0461905,46.0398837 57.7100289,45.8976614 C57.3480087,45.4709948 56.8760895,45.2576614 56.2942713,45.2576614 C56.1003319,44.9344291 55.8934632,44.7728129 55.6736653,44.7728129 C55.2987158,44.3202877 54.7750794,44.0940251 54.1027562,44.0940251 L54.1027562,44.0940251 L54.0251804,44.0940251 C53.2494228,44.0940251 52.3702309,44.5142271 51.3876047,45.3546311 C49.991241,46.9707927 49.2930592,48.3348332 49.2930592,49.4467523 L49.2930592,49.4467523 L49.2930592,49.5825099 C49.2930592,50.6685705 49.9783117,51.2697826 51.3488168,51.3861463 L51.3488168,51.3861463 L51.4845743,51.3861463 C51.8983117,51.7352372 52.2926552,51.9162473 52.6676047,51.9291766 Z M53.0554834,46.0722069 L53.0166956,46.0722069 C53.4562915,45.6455402 53.8958875,45.3740251 54.3354834,45.2576614 L54.3354834,45.2576614 L54.3936653,45.2576614 L54.6457865,45.393419 L54.6457865,45.4903887 L54.5876047,45.4516008 C54.0575036,45.4516008 53.5467966,45.6584695 53.0554834,46.0722069 L53.0554834,46.0722069 Z M52.2991198,49.9122069 L52.1439683,49.9122069 C51.911241,49.6406917 51.7948774,49.2786715 51.7948774,48.8261463 L51.7948774,48.8261463 L51.7948774,48.3219039 C51.7948774,47.7918028 52.0534632,47.1905907 52.570635,46.5182675 C53.3722511,45.8588736 54.0833622,45.5291766 54.7039683,45.5291766 L54.7039683,45.5291766 L55.0142713,45.7619039 L55.0142713,45.8006917 L54.9560895,45.8588736 L54.9560895,45.8976614 C55.5637663,46.0140251 55.8676047,46.1174594 55.8676047,46.2079645 L55.8676047,46.2079645 L55.9839683,46.2079645 L55.9257865,46.0722069 L55.9257865,46.033419 L55.9839683,46.033419 L56.0227562,46.0722069 L56.1197259,45.9946311 C56.611039,46.1497826 56.8566956,46.4148332 56.8566956,46.7897826 L56.8566956,46.7897826 L56.8566956,46.8479645 L56.7791198,47.0612978 C54.9560895,48.9619039 53.4627562,49.9122069 52.2991198,49.9122069 L52.2991198,49.9122069 Z M51.9500289,49.8540251 C51.6655844,49.8540251 51.5233622,49.7182675 51.5233622,49.4467523 L51.5233622,49.4467523 L51.5233622,49.233419 L51.581544,48.4576614 L51.6397259,48.4576614 C51.6397259,49.0653382 51.7431602,49.5307927 51.9500289,49.8540251 Z M50.8639683,51.1146311 L50.8251804,51.1146311 C50.2433622,51.1146311 49.8166956,50.6685705 49.5451804,49.7764493 L49.5451804,49.7764493 L49.5451804,49.7182675 L49.6033622,49.6794796 L49.5451804,49.543722 L49.6421501,48.6903887 L49.7003319,48.6903887 L49.7003319,48.9619039 C49.7003319,50.1126109 50.0882107,50.8172574 50.8639683,51.0758433 L50.8639683,51.0758433 L50.8639683,51.1146311 Z M52.9197259,51.793419 L52.7063925,51.793419 C52.2926552,51.793419 51.9564935,51.6705907 51.6979077,51.4249342 L51.6979077,51.4249342 L52.6094228,51.5606917 L52.9197259,51.5219039 C54.2385137,51.2891766 55.2405339,50.8560453 55.9257865,50.2225099 L55.9257865,50.2225099 L55.9839683,50.2225099 L55.5185137,50.6685705 C54.4841703,51.4184695 53.6179077,51.793419 52.9197259,51.793419 L52.9197259,51.793419 Z M62.1770996,51.9291766 C63.1338673,51.9291766 64.1229582,51.5412978 65.1443723,50.7655402 C66.8639683,49.0200857 67.7237663,47.6495806 67.7237663,46.6540251 L67.7237663,46.6540251 L67.7237663,46.6152372 C67.7237663,46.2790756 67.5556855,46.0398837 67.2195238,45.8976614 C66.8575036,45.4709948 66.3855844,45.2576614 65.8037663,45.2576614 C65.6098269,44.9344291 65.4029582,44.7728129 65.1831602,44.7728129 C64.8082107,44.3202877 64.2845743,44.0940251 63.6122511,44.0940251 L63.6122511,44.0940251 L63.5346754,44.0940251 C62.7589178,44.0940251 61.8797259,44.5142271 60.8970996,45.3546311 C59.500736,46.9707927 58.8025541,48.3348332 58.8025541,49.4467523 L58.8025541,49.4467523 L58.8025541,49.5825099 C58.8025541,50.6685705 59.4878067,51.2697826 60.8583117,51.3861463 L60.8583117,51.3861463 L60.9940693,51.3861463 C61.4078067,51.7352372 61.8021501,51.9162473 62.1770996,51.9291766 Z M62.5649784,46.0722069 L62.5261905,46.0722069 C62.9657865,45.6455402 63.4053824,45.3740251 63.8449784,45.2576614 L63.8449784,45.2576614 L63.9031602,45.2576614 L64.1552814,45.393419 L64.1552814,45.4903887 L64.0970996,45.4516008 C63.5669986,45.4516008 63.0562915,45.6584695 62.5649784,46.0722069 L62.5649784,46.0722069 Z M61.8086148,49.9122069 L61.6534632,49.9122069 C61.420736,49.6406917 61.3043723,49.2786715 61.3043723,48.8261463 L61.3043723,48.8261463 L61.3043723,48.3219039 C61.3043723,47.7918028 61.5629582,47.1905907 62.0801299,46.5182675 C62.8817461,45.8588736 63.5928572,45.5291766 64.2134632,45.5291766 L64.2134632,45.5291766 L64.5237663,45.7619039 L64.5237663,45.8006917 L64.4655844,45.8588736 L64.4655844,45.8976614 C65.0732612,46.0140251 65.3770996,46.1174594 65.3770996,46.2079645 L65.3770996,46.2079645 L65.4934632,46.2079645 L65.4352814,46.0722069 L65.4352814,46.033419 L65.4934632,46.033419 L65.5322511,46.0722069 L65.6292208,45.9946311 C66.1205339,46.1497826 66.3661905,46.4148332 66.3661905,46.7897826 L66.3661905,46.7897826 L66.3661905,46.8479645 L66.2886148,47.0612978 C64.4655844,48.9619039 62.9722511,49.9122069 61.8086148,49.9122069 L61.8086148,49.9122069 Z M61.4595238,49.8540251 C61.1750794,49.8540251 61.0328572,49.7182675 61.0328572,49.4467523 L61.0328572,49.4467523 L61.0328572,49.233419 L61.091039,48.4576614 L61.1492208,48.4576614 C61.1492208,49.0653382 61.2526552,49.5307927 61.4595238,49.8540251 Z M60.3734632,51.1146311 L60.3346754,51.1146311 C59.7528572,51.1146311 59.3261905,50.6685705 59.0546754,49.7764493 L59.0546754,49.7764493 L59.0546754,49.7182675 L59.1128572,49.6794796 L59.0546754,49.543722 L59.1516451,48.6903887 L59.2098269,48.6903887 L59.2098269,48.9619039 C59.2098269,50.1126109 59.5977057,50.8172574 60.3734632,51.0758433 L60.3734632,51.0758433 L60.3734632,51.1146311 Z M62.4292208,51.793419 L62.2158875,51.793419 C61.8021501,51.793419 61.4659885,51.6705907 61.2074026,51.4249342 L61.2074026,51.4249342 L62.1189178,51.5606917 L62.4292208,51.5219039 C63.7480087,51.2891766 64.7500289,50.8560453 65.4352814,50.2225099 L65.4352814,50.2225099 L65.4934632,50.2225099 L65.0280087,50.6685705 C63.9936653,51.4184695 63.1274026,51.793419 62.4292208,51.793419 L62.4292208,51.793419 Z M70.6781097,52.3364493 L70.7944733,52.2394796 L70.9884127,52.2976614 L71.1629582,52.0261463 L71.1629582,51.7352372 L71.1047764,51.463722 L71.1629582,51.463722 L71.1629582,51.3667523 L71.22114,51.3667523 L71.2793218,51.7740251 L71.4732612,51.7740251 L71.3568976,51.2116008 C73.0764935,48.0439241 74.1237663,45.9752372 74.4987158,45.0055402 C74.8348774,45.0055402 75.2680087,44.9214998 75.7981097,44.753419 L75.7981097,44.753419 L78.9593218,43.6091766 C78.9593218,43.4669544 79.1080087,43.36352 79.4053824,43.2988736 L79.4053824,43.2988736 L79.2696249,43.143722 L79.2696249,42.9885705 L79.3278067,42.7364493 C79.1726552,42.7364493 79.0950794,42.6847321 79.0950794,42.5812978 L79.0950794,42.5812978 L79.0950794,42.4261463 C79.3019481,42.4002877 79.4053824,42.3485705 79.4053824,42.2709948 L79.4053824,42.2709948 L79.4053824,42.1740251 L77.8538673,42.6782675 L75.0417461,43.3182675 C75.2486148,42.4778635 75.3520491,41.883116 75.3520491,41.5340251 L75.3520491,41.5340251 L75.3520491,40.6612978 C75.1581097,39.8855402 74.8736653,39.4976614 74.4987158,39.4976614 L74.4987158,39.4976614 L74.4405339,39.4976614 L74.4405339,39.5558433 C74.841342,39.8014998 75.0417461,40.1893786 75.0417461,40.7194796 L75.0417461,40.7194796 L75.0417461,41.6891766 L74.731443,43.2600857 L74.6732612,43.2600857 L74.6732612,43.163116 C74.7637663,42.9174594 74.8478067,42.2386715 74.9253824,41.1267523 C74.7960895,39.9372574 74.4276047,39.3425099 73.8199279,39.3425099 L73.8199279,39.3425099 L73.7423521,39.3425099 L73.3738673,39.6916008 C73.2445743,40.182914 73.0829582,40.6419039 72.8890188,41.0685705 L72.8890188,41.0685705 L72.8890188,41.1267523 L73.0053824,41.223722 L72.8890188,41.883116 L72.830837,41.883116 L72.830837,41.6891766 L72.6950794,41.6891766 L72.6950794,41.9412978 L72.830837,41.9412978 L72.830837,42.0964493 L72.7726552,42.0964493 L72.6950794,42.0382675 L72.6562915,42.0382675 L72.6562915,42.193419 L72.2684127,43.473419 C72.2684127,43.6802877 72.1067966,43.783722 71.7835642,43.783722 L71.7835642,43.783722 L70.5423521,43.783722 C70.1286148,43.783722 69.6825541,43.7320049 69.2041703,43.6285705 L69.2041703,43.6285705 L69.0490188,43.7255402 L69.0490188,43.783722 C69.721342,43.8871564 70.7362915,43.9388736 72.0938673,43.9388736 L72.0938673,43.9388736 L72.0938673,43.9776614 L71.0272006,44.0358433 L70.6781097,44.0358433 C70.1092208,44.0358433 69.5274026,43.9518028 68.9326552,43.783722 C68.7775036,43.783722 68.6158875,43.9000857 68.4478067,44.1328129 C68.4478067,44.4560453 68.9779077,44.7792776 70.0381097,45.1025099 C70.6199279,45.1154392 70.910837,45.1800857 70.910837,45.2964493 L70.910837,45.2964493 L71.7835642,45.2964493 L71.4732612,46.2273584 C70.1544733,49.2140251 69.4950794,50.7784695 69.4950794,50.9206917 C69.5467966,51.2568534 69.630837,51.4249342 69.7472006,51.4249342 L69.7472006,51.4249342 L69.611443,51.0176614 L69.6890188,50.6103887 L69.7472006,50.6103887 C69.9152814,51.4507927 70.1027562,51.9744291 70.3096249,52.1812978 C70.5035642,52.1812978 70.6005339,52.233015 70.6005339,52.3364493 L70.6005339,52.3364493 L70.6781097,52.3364493 Z M70.4259885,45.2964493 L70.4259885,45.1994796 C69.8441703,45.1994796 69.3463925,45.083116 68.9326552,44.8503887 L68.9326552,44.8503887 L68.8162915,44.8503887 C69.191241,45.1477624 69.7278067,45.2964493 70.4259885,45.2964493 L70.4259885,45.2964493 Z" transform="rotate(31 44.244 46.606)"/>
  </g>
</svg>
