<?xml version="1.0" encoding="UTF-8"?>
<svg width="96px" height="96px" viewBox="0 0 96 96" version="1.1" xmlns="http://www.w3.org/2000/svg" xmlns:xlink="http://www.w3.org/1999/xlink">
    <!-- Generator: Sketch 62 (91390) - https://sketch.com -->
    <title>comptty_comptty</title>
    <desc>Created with Sketch.</desc>
    <defs>
        <filter x="-15.9%" y="-15.9%" width="131.7%" height="131.7%" filterUnits="objectBoundingBox" id="filter-1">
            <feOffset dx="0" dy="2" in="SourceAlpha" result="shadowOffsetOuter1"></feOffset>
            <feGaussianBlur stdDeviation="2" in="shadowOffsetOuter1" result="shadowBlurOuter1"></feGaussianBlur>
            <feComposite in="shadowBlurOuter1" in2="SourceAlpha" operator="out" result="shadowBlurOuter1"></feComposite>
            <feColorMatrix values="0 0 0 0 0   0 0 0 0 0   0 0 0 0 0  0 0 0 0.2 0" type="matrix" in="shadowBlurOuter1" result="shadowMatrixOuter1"></feColorMatrix>
            <feMerge>
                <feMergeNode in="shadowMatrixOuter1"></feMergeNode>
                <feMergeNode in="SourceGraphic"></feMergeNode>
            </feMerge>
        </filter>
        <linearGradient x1="50%" y1="53.4847016%" x2="50%" y2="100%" id="linearGradient-2">
            <stop stop-color="#FDFDFD" offset="0%"></stop>
            <stop stop-color="#D1D1D1" offset="100%"></stop>
        </linearGradient>
        <linearGradient x1="50%" y1="0%" x2="50%" y2="100%" id="linearGradient-3">
            <stop stop-color="#424242" offset="0%"></stop>
            <stop stop-color="#282828" offset="100%"></stop>
        </linearGradient>
        <linearGradient x1="50%" y1="0%" x2="50%" y2="100%" id="linearGradient-4">
            <stop stop-color="#434343" offset="0%"></stop>
            <stop stop-color="#272727" offset="100%"></stop>
        </linearGradient>
    </defs>
    <g id="comptty_comptty" stroke="none" stroke-width="1" fill="none" fill-rule="evenodd">
        <g id="编组" filter="url(#filter-1)" transform="translate(7.000000, 8.000000)">
            <circle id="椭圆形备份" stroke="url(#linearGradient-3)" fill="url(#linearGradient-2)" cx="41" cy="41" r="41"></circle>
            <path d="M41,3.55271368e-14 C61.9190332,3.55271368e-14 79.1789326,15.6666142 81.6867602,35.9069044 C79.9876946,26.298542 71.5961802,19 61.5,19 C50.2793339,19 41.1642023,28.0148644 41.0021936,39.1970046 L40.9973924,39.2190624 L41,39.5 C41,50.8218374 31.8218374,60 20.5,60 C9.3925213,60 0.348312517,51.1660914 0.00982244291,40.140723 C0.466260289,17.8937065 18.6434806,3.55271368e-14 41,3.55271368e-14 Z M81.9909654,40.1306169 C81.9969786,40.4196858 82,40.70949 82,41 C82,41.5462113 81.989319,42.0899278 81.9681544,42.6309522 C81.9167025,42.5154887 81.865483,42.3964474 81.8137259,42.273642 C81.8875147,41.7288158 81.9398156,41.1777385 81.9698502,40.6209677 Z" id="形状结合" fill="url(#linearGradient-4)"></path>
            <circle id="椭圆形" fill="#2E2E2E" cx="63" cy="41" r="6"></circle>
            <circle id="椭圆形备份-4" fill="#FFFFFF" cx="20" cy="41" r="6"></circle>
        </g>
    </g>
</svg>