<?xml version="1.0" encoding="UTF-8"?>
<svg width="96px" height="96px" viewBox="0 0 96 96" version="1.1" xmlns="http://www.w3.org/2000/svg" xmlns:xlink="http://www.w3.org/1999/xlink">
    <title>apps/96/dde-introduction</title>
    <defs>
        <filter x="-8.1%" y="-5.8%" width="116.3%" height="116.3%" filterUnits="objectBoundingBox" id="filter-1">
            <feOffset dx="0" dy="2" in="SourceAlpha" result="shadowOffsetOuter1"></feOffset>
            <feGaussianBlur stdDeviation="2" in="shadowOffsetOuter1" result="shadowBlurOuter1"></feGaussianBlur>
            <feColorMatrix values="0 0 0 0 0   0 0 0 0 0   0 0 0 0 0  0 0 0 0.2 0" type="matrix" in="shadowBlurOuter1" result="shadowMatrixOuter1"></feColorMatrix>
            <feMerge>
                <feMergeNode in="shadowMatrixOuter1"></feMergeNode>
                <feMergeNode in="SourceGraphic"></feMergeNode>
            </feMerge>
        </filter>
        <linearGradient x1="42.15262%" y1="0%" x2="42.1526194%" y2="100%" id="linearGradient-2">
            <stop stop-color="#00D8A5" offset="0%"></stop>
            <stop stop-color="#0058FF" offset="100%"></stop>
        </linearGradient>
    </defs>
    <g id="apps/96/dde-introduction" stroke="none" stroke-width="1" fill="none" fill-rule="evenodd">
        <g id="编组" filter="url(#filter-1)" transform="translate(5, 5)">
            <circle id="Oval" fill="url(#linearGradient-2)" cx="43" cy="43" r="43"></circle>
            <g id="Group" transform="translate(2.101, 9.9975)">
                <path d="M47.3943382,4.83955385 C57.5987242,4.83955385 65.8710136,13.1118432 65.8710136,23.3162293 L65.8710136,58.0733071 C65.8710136,60.2824461 64.0801526,62.0733071 61.8710136,62.0733071 C61.8693869,62.0733071 61.8677602,62.0733062 61.8661335,62.0733042 L28.9251703,62.0331155 L28.9251703,62.0331155 L28.9200881,23.3162291 C28.9187488,13.1131826 37.1888665,4.84089333 47.3919131,4.839554 C47.3927214,4.8395539 47.3935298,4.83955385 47.3943382,4.83955385 Z" id="Rectangle" fill="#404040" transform="translate(47.3943, 33.4589) rotate(-315) translate(-47.3943, -33.4589)"></path>
                <path d="M47.3943382,4.83955385 C57.5987242,4.83955385 65.8710136,13.1118432 65.8710136,23.3162293 L65.8710136,58.1690993 C65.8710136,60.3280306 64.120854,62.0781902 61.9619227,62.0781902 L28.9251703,62.0331155 L28.9176627,23.3162293 C28.9176627,13.1118432 37.1899521,4.83955385 47.3943382,4.83955385 Z M47.3943382,7.18500839 C38.5889042,7.18500839 31.4313033,14.2402205 31.2660381,23.0061422 L31.2629545,23.3162293 L31.2629545,59.7318864 L61.9619227,59.7327357 C62.777519,59.7327357 63.4472695,59.108296 63.519169,58.3114221 L63.5255591,58.1690993 L63.5255591,23.3162293 C63.5255591,14.407202 56.3033655,7.18500839 47.3943382,7.18500839 Z" id="Rectangle" fill="#373737" fill-rule="nonzero" transform="translate(47.3943, 33.4589) rotate(-315) translate(-47.3943, -33.4589)"></path>
                <path d="M23.6064437,14.6489481 L57.8293458,14.6489481 C60.0384848,14.6489481 61.8293458,16.4398091 61.8293458,18.6489481 L61.8293458,48.0742103 C61.8293458,50.2833493 60.0384848,52.0742103 57.8293458,52.0742103 L23.6064437,52.0742103 C13.2717429,52.0742103 4.89381256,43.69628 4.89381256,33.3615792 C4.89381256,23.0268784 13.2717429,14.6489481 23.6064437,14.6489481 Z" id="Rectangle-13" fill="#FFFFFF" transform="translate(33.3616, 33.3616) rotate(-315) translate(-33.3616, -33.3616)"></path>
                <polygon id="Rectangle-2" fill="#373737" transform="translate(52.0233, 39.4216) rotate(-315) translate(-52.0233, -39.4216)" points="40.9410027 38.0456635 63.1055138 38.0456635 63.1055138 40.797521 40.9410027 40.797521"></polygon>
                <polygon id="Rectangle-2" fill="#373737" transform="translate(46.2166, 45.2592) rotate(-315) translate(-46.2166, -45.2592)" points="35.1343438 43.8832348 57.2988549 43.8832348 57.2988549 46.6350923 35.1343438 46.6350923"></polygon>
                <path d="M23.7705963,33.9844494 C24.9708328,33.9844494 26.0574429,34.4709413 26.843994,35.2574924 C27.630545,36.0440434 28.117037,37.1306536 28.1170371,38.3304374 L28.1146206,45.8045579 L19.4203801,45.8062568 L19.4214638,38.3329513 C19.4216379,37.1320947 19.9084927,36.0449692 20.6955182,35.2580579 C21.4825436,34.4711465 22.5697397,33.9844494 23.7705963,33.9844494 Z" id="Rectangle-14" stroke="#373737" stroke-width="2.8" fill="#404040" transform="translate(23.7695, 39.8955) rotate(-315) translate(-23.7695, -39.8955)"></path>
                <path d="M29.7600517,40.0180388 C30.8893582,40.0180358 31.9106768,40.4736756 32.649697,41.2112923 C33.3883934,41.9485857 33.8448219,42.9674139 33.8450275,44.0928569 L33.8464431,51.8401212 L25.7176328,51.8294763 L25.704309,44.0901829 C25.7023764,42.9676233 26.1556339,41.9505531 26.8900145,41.2136396 C27.624395,40.4767261 28.6398986,40.0199693 29.7600517,40.0180388 Z" id="Rectangle-14" stroke="#373737" stroke-width="2.8" fill="#404040" transform="translate(29.7708, 45.93) rotate(-315) translate(-29.7708, -45.93)"></path>
                <path d="M35.5903239,45.8603805 C36.7154855,45.8603805 37.7341281,46.3164423 38.4714803,47.0537946 C39.2088326,47.7911468 39.6648944,48.8097894 39.6648944,49.934951 L39.6648944,57.6452253 L31.5157534,57.6452253 L31.5157534,49.934951 C31.5157534,48.8097894 31.9718152,47.7911468 32.7091675,47.0537946 C33.4465197,46.3164423 34.4651623,45.8603805 35.5903239,45.8603805 Z" id="Rectangle-14" stroke="#373737" stroke-width="2.8" fill="#404040" transform="translate(35.5903, 51.7528) rotate(-315) translate(-35.5903, -51.7528)"></path>
                <path d="M41.5905381,50.4925375 C44.765236,50.4925375 47.3388371,53.0661387 47.3388371,56.2408366 L47.3388371,61.0773824 C47.3388371,63.2865214 45.5479761,65.0773824 43.3388371,65.0773824 L35.8422391,65.0773824 L35.8422391,65.0773824 L35.8422391,56.2408366 C35.8422391,53.0661387 38.4158402,50.4925375 41.5905381,50.4925375 Z" id="Rectangle-14" fill="#404040" transform="translate(41.5905, 57.785) rotate(-315) translate(-41.5905, -57.785)"></path>
                <path d="M41.5905381,50.4925375 C44.765236,50.4925375 47.3388371,53.0661387 47.3388371,56.2408366 L47.3388371,61.1682915 C47.3388371,63.3272228 45.5886775,65.0773824 43.4297462,65.0773824 L35.8422391,65.0773824 L35.8422391,56.2408366 C35.8422391,53.0661387 38.4158402,50.4925375 41.5905381,50.4925375 Z M41.5905381,53.2289012 C39.9865009,53.2289012 38.6753251,54.4827899 38.5837156,56.0638625 L38.5786027,56.2408366 L38.5778409,62.3402273 L43.4297462,62.3410187 C44.0369456,62.3410187 44.5363635,61.8795509 44.5964188,61.288196 L44.6024735,61.1682915 L44.6024735,56.2408366 C44.6024735,54.5773906 43.2539841,53.2289012 41.5905381,53.2289012 Z" id="Rectangle-14" fill="#373737" fill-rule="nonzero" transform="translate(41.5905, 57.785) rotate(-315) translate(-41.5905, -57.785)"></path>
                <path d="M42.3231614,13.4494462 L42.3231614,24.0642824 C42.3231614,29.7638497 38.0338261,34.384262 32.742663,34.384262 L32.742663,13.4494462 L32.742663,13.4494462" id="Rectangle-15" fill="#404040" transform="translate(37.5329, 23.9169) rotate(-315) translate(-37.5329, -23.9169)"></path>
                <path d="M34.1108448,13.4494462 L34.1107273,32.8910909 L34.1614101,32.8825027 C37.9281374,32.1653137 40.8366233,28.642912 40.951456,24.3293495 L40.9549795,24.0642824 L40.9549795,13.4494462 L43.6913432,13.4494462 L43.6913432,24.0642824 C43.6913432,30.3987091 38.96206,35.59048 33.0219777,35.7487275 L32.742663,35.7524438 L31.3744812,35.7524438 L31.3744812,13.4494462 L34.1108448,13.4494462 Z" id="Rectangle-15" fill="#373737" fill-rule="nonzero" transform="translate(37.5329, 24.6009) rotate(-315) translate(-37.5329, -24.6009)"></path>
            </g>
        </g>
        <g id="Guide-96" transform="translate(3, 3)"></g>
    </g>
</svg>