<svg xmlns="http://www.w3.org/2000/svg" xmlns:xlink="http://www.w3.org/1999/xlink" width="96" height="96" viewBox="0 0 96 96">
  <defs>
    <filter id="dde-calendar95.99999999999999-a" width="131.2%" height="132.5%" x="-15%" y="-15%" filterUnits="objectBoundingBox">
      <feOffset dy="2" in="SourceAlpha" result="shadowOffsetOuter1"/>
      <feGaussianBlur in="shadowOffsetOuter1" result="shadowBlurOuter1" stdDeviation="2"/>
      <feComposite in="shadowBlurOuter1" in2="SourceAlpha" operator="out" result="shadowBlurOuter1"/>
      <feColorMatrix in="shadowBlurOuter1" result="shadowMatrixOuter1" values="0 0 0 0 0   0 0 0 0 0   0 0 0 0 0  0 0 0 0.2 0"/>
      <feMerge>
        <feMergeNode in="shadowMatrixOuter1"/>
        <feMergeNode in="SourceGraphic"/>
      </feMerge>
    </filter>
    <radialGradient id="dde-calendar95.99999999999999-b" cx="54.324%" cy="55.779%" r="61.969%" fx="54.324%" fy="55.779%" gradientTransform="matrix(-.81842 -.50567 .72673 -.91085 .582 1.34)">
      <stop offset="0%"/>
      <stop offset="100%" stop-opacity=".148"/>
    </radialGradient>
    <path id="dde-calendar95.99999999999999-d" d="M38.0625,57.625 L38.0625,53.4130102 L26.6259025,53.4130102 L36.2556408,41.5630102 C37.4602136,40.0582483 38.0625,38.3385204 38.0625,36.4038265 C38.0351233,33.9854592 37.2069795,31.9903061 35.5780686,30.4183673 C33.9765343,28.8329932 31.8890644,28.0268707 29.3156588,28 C27.0160199,28.0268707 25.0791215,28.8195578 23.5049639,30.3780612 C21.9444946,31.9768707 21.1095066,33.9988946 21,36.4441327 L21,36.4441327 L25.2707581,36.4441327 C25.4213297,35.1005952 25.9004212,34.0593537 26.7080325,33.3204082 C27.4882671,32.5814626 28.4669826,32.2119898 29.6441787,32.2119898 C30.9719465,32.2388605 31.998571,32.6620748 32.7240523,33.4816327 C33.422157,34.3011905 33.7712094,35.2618197 33.7712094,36.3635204 C33.7712094,36.780017 33.7164561,37.2233844 33.6069495,37.6936224 C33.4426895,38.1907313 33.1347022,38.7281463 32.6829874,39.3058673 L32.6829874,39.3058673 L21,53.6548469 L21,57.625 L38.0625,57.625 Z M49.6572289,57.4375 L59.8125,32.2197788 L59.8125,28 L42.75,28 L42.75,36.4799383 L47.0464608,36.4799383 L47.0464608,32.2197788 L55.0021084,32.2197788 L44.8673946,57.4375 L49.6572289,57.4375 Z"/>
    <filter id="dde-calendar95.99999999999999-c" width="136.1%" height="147.3%" x="-18%" y="-16.9%" filterUnits="objectBoundingBox">
      <feOffset dy="2" in="SourceAlpha" result="shadowOffsetOuter1"/>
      <feGaussianBlur in="shadowOffsetOuter1" result="shadowBlurOuter1" stdDeviation="2"/>
      <feColorMatrix in="shadowBlurOuter1" values="0 0 0 0 0   0 0 0 0 0.423732517   0 0 0 0 1  0 0 0 0.2 0"/>
    </filter>
    <linearGradient id="dde-calendar95.99999999999999-g" x1="69.76%" x2="56.983%" y1="71.097%" y2="57.701%">
      <stop offset="0%" stop-color="#C6C6C6"/>
      <stop offset="53.052%" stop-color="#E7E7E7"/>
      <stop offset="100%" stop-color="#F4F4F4"/>
    </linearGradient>
    <path id="dde-calendar95.99999999999999-f" d="M80,54 C80,54 78.7993866,60.7153889 77.4375,62.90625 C75.28125,66.375 73.6875,65.0625 70.6875,68.71875 C67.6875,72.375 69.75,73.03125 65.25,76.875 C62.8384357,78.9348779 57,80 57,80 C75.65625,80 80,64.03125 80,54 Z"/>
    <filter id="dde-calendar95.99999999999999-e" width="117.4%" height="115.4%" x="-8.7%" y="-3.8%" filterUnits="objectBoundingBox">
      <feOffset dy="1" in="SourceAlpha" result="shadowOffsetOuter1"/>
      <feGaussianBlur in="shadowOffsetOuter1" result="shadowBlurOuter1" stdDeviation=".5"/>
      <feColorMatrix in="shadowBlurOuter1" values="0 0 0 0 0   0 0 0 0 0   0 0 0 0 0  0 0 0 0.05 0"/>
    </filter>
  </defs>
  <g fill="none" fill-rule="evenodd" filter="url(#dde-calendar95.99999999999999-a)" transform="rotate(-8 101.203 -13.203)">
    <rect width="80" height="80" fill="#FFF" rx="14.625"/>
    <path fill="url(#dde-calendar95.99999999999999-b)" fill-opacity=".39" d="M79.9991218,55.0050227 L80,65.375 C80,73.4521645 73.4521645,80 65.375,80 L58,80 C65.5166667,79.0808824 70.8027778,76.1703431 73.8583333,71.2683824 C76.9130282,66.3678024 78.9599577,60.9466825 79.9991218,55.0050227 Z"/>
    <path fill="#E06164" fill-rule="nonzero" d="M19.638125,20 L19.638125,15.2225 C19.638125,14.35625 19.52,13.109375 19.454375,12.23 L19.506875,12.23 L20.268125,14.46125 L21.96125,19.068125 L22.90625,19.068125 L24.58625,14.46125 L25.360625,12.23 L25.413125,12.23 C25.334375,13.109375 25.21625,14.35625 25.21625,15.2225 L25.21625,20 L26.63375,20 L26.63375,10.326875 L24.875,10.326875 L23.129375,15.2225 C22.90625,15.865625 22.7225,16.521875 22.499375,17.165 L22.43375,17.165 C22.210625,16.521875 22.01375,15.865625 21.790625,15.2225 L20.01875,10.326875 L18.273125,10.326875 L18.273125,20 L19.638125,20 Z M29.4425,20 L30.269375,17.24375 L33.629375,17.24375 L34.443125,20 L36.0575,20 L32.855,10.326875 L31.09625,10.326875 L27.89375,20 L29.4425,20 Z M33.261875,16.049375 L30.62375,16.049375 L31.0175,14.75 C31.3325,13.7 31.634375,12.636875 31.91,11.534375 L31.975625,11.534375 C32.264375,12.62375 32.553125,13.7 32.88125,14.75 L33.261875,16.049375 Z M38.853125,20 L38.853125,16.101875 L40.415,16.101875 L42.606875,20 L44.32625,20 L41.96375,15.905 C43.184375,15.524375 43.985,14.631875 43.985,13.135625 C43.985,11.04875 42.48875,10.326875 40.49375,10.326875 L37.330625,10.326875 L37.330625,20 L38.853125,20 Z M40.31,14.88125 L38.853125,14.88125 L38.853125,11.560625 L40.31,11.560625 C41.714375,11.560625 42.475625,11.9675 42.475625,13.135625 C42.475625,14.30375 41.714375,14.88125 40.31,14.88125 Z M49.7075,20.170625 C50.954375,20.170625 51.93875,19.671875 52.713125,18.779375 L51.899375,17.82125 C51.321875,18.45125 50.6525,18.845 49.76,18.845 C48.05375,18.845 46.9775,17.440625 46.9775,15.14375 C46.9775,12.873125 48.1325,11.481875 49.799375,11.481875 C50.586875,11.481875 51.190625,11.83625 51.689375,12.348125 L52.51625,11.376875 C51.925625,10.73375 50.980625,10.15625 49.773125,10.15625 C47.331875,10.15625 45.415625,12.04625 45.415625,15.19625 C45.415625,18.359375 47.279375,20.170625 49.7075,20.170625 Z M55.941875,20 L55.941875,15.603125 L60.07625,15.603125 L60.07625,20 L61.59875,20 L61.59875,10.326875 L60.07625,10.326875 L60.07625,14.2775 L55.941875,14.2775 L55.941875,10.326875 L54.419375,10.326875 L54.419375,20 L55.941875,20 Z"/>
    <g fill-rule="nonzero">
      <use fill="#000" filter="url(#dde-calendar95.99999999999999-c)" xlink:href="#dde-calendar95.99999999999999-d"/>
      <use fill="#2D394F" xlink:href="#dde-calendar95.99999999999999-d"/>
    </g>
    <path fill="#2D394F" fill-rule="nonzero" d="M25.5075,70 L25.5075,67.27 C25.5075,66.775 25.44,66.0625 25.4025,65.56 L25.4325,65.56 L25.8675,66.835 L26.835,69.4675 L27.375,69.4675 L28.335,66.835 L28.7775,65.56 L28.8075,65.56 C28.7625,66.0625 28.695,66.775 28.695,67.27 L28.695,70 L29.505,70 L29.505,64.4725 L28.5,64.4725 L27.5025,67.27 L27.1425,68.38 L27.1425,68.38 L27.105,68.38 L26.7375,67.27 L26.7375,67.27 L25.725,64.4725 L24.7275,64.4725 L24.7275,70 L25.5075,70 Z M33.0525,70.0975 C34.47,70.0975 35.46,68.995 35.46,67.2175 C35.46,65.44 34.47,64.375 33.0525,64.375 C31.635,64.375 30.6525,65.44 30.6525,67.2175 C30.6525,68.995 31.635,70.0975 33.0525,70.0975 Z M33.0525,69.34 C32.1375,69.34 31.545,68.5075 31.545,67.2175 C31.545,65.92 32.1375,65.1325 33.0525,65.1325 C33.9675,65.1325 34.5675,65.92 34.5675,67.2175 C34.5675,68.5075 33.9675,69.34 33.0525,69.34 Z M37.4325,70 L37.4325,67.3975 C37.4325,66.7975 37.365,66.16 37.32,65.59 L37.3575,65.59 L37.935,66.745 L39.765,70 L40.6575,70 L40.6575,64.4725 L39.8325,64.4725 L39.8325,67.0525 C39.8325,67.6525 39.9,68.32 39.945,68.89 L39.9075,68.89 L39.33,67.72 L37.5,64.4725 L36.6075,64.4725 L36.6075,70 L37.4325,70 Z M43.59,70 C45.24,70 46.2075,69.01 46.2075,67.2175 C46.2075,65.4175 45.24,64.4725 43.545,64.4725 L42.1125,64.4725 L42.1125,70 L43.59,70 Z M43.485,69.2875 L42.9825,69.2875 L42.9825,65.185 L43.485,65.185 C44.67,65.185 45.3075,65.8375 45.3075,67.2175 C45.3075,68.59 44.67,69.2875 43.485,69.2875 Z M47.5125,70 L47.985,68.425 L49.905,68.425 L50.37,70 L51.2925,70 L49.4625,64.4725 L48.4575,64.4725 L46.6275,70 L47.5125,70 Z M49.695,67.7425 L48.1875,67.7425 L48.4125,67 C48.5925,66.4 48.765,65.7925 48.9225,65.1625 L48.96,65.1625 C49.125,65.785 49.29,66.4 49.4775,67 L49.695,67.7425 Z M53.7975,70 L53.7975,67.9075 L55.4625,64.4725 L54.555,64.4725 L53.91,65.9425 C53.745,66.355 53.565,66.7375 53.385,67.1575 L53.355,67.1575 C53.1675,66.7375 53.01,66.355 52.8375,65.9425 L52.2,64.4725 L51.27,64.4725 L52.9275,67.9075 L52.9275,70 L53.7975,70 Z"/>
    <use fill="#000" filter="url(#dde-calendar95.99999999999999-e)" xlink:href="#dde-calendar95.99999999999999-f"/>
    <use fill="url(#dde-calendar95.99999999999999-g)" xlink:href="#dde-calendar95.99999999999999-f"/>
  </g>
</svg>
