<?xml version="1.0" encoding="UTF-8"?>
<svg width="96px" height="96px" viewBox="0 0 96 96" version="1.1" xmlns="http://www.w3.org/2000/svg" xmlns:xlink="http://www.w3.org/1999/xlink">
    <title>apps/96/dde-cooperation</title>
    <defs>
        <filter x="-9.0%" y="-6.4%" width="117.9%" height="117.9%" filterUnits="objectBoundingBox" id="filter-1">
            <feOffset dx="0" dy="2" in="SourceAlpha" result="shadowOffsetOuter1"></feOffset>
            <feGaussianBlur stdDeviation="2" in="shadowOffsetOuter1" result="shadowBlurOuter1"></feGaussianBlur>
            <feColorMatrix values="0 0 0 0 0   0 0 0 0 0   0 0 0 0 0  0 0 0 0.2 0" type="matrix" in="shadowBlurOuter1" result="shadowMatrixOuter1"></feColorMatrix>
            <feMerge>
                <feMergeNode in="shadowMatrixOuter1"></feMergeNode>
                <feMergeNode in="SourceGraphic"></feMergeNode>
            </feMerge>
        </filter>
        <linearGradient x1="50%" y1="2.44175981%" x2="50%" y2="108.46406%" id="linearGradient-2">
            <stop stop-color="#F7F7F7" offset="0%"></stop>
            <stop stop-color="#F7F7F7" offset="100%"></stop>
        </linearGradient>
        <linearGradient x1="50%" y1="4.15215062%" x2="50%" y2="100%" id="linearGradient-3">
            <stop stop-color="#8796A1" stop-opacity="0.195814439" offset="0%"></stop>
            <stop stop-color="#2F4355" stop-opacity="0.269287109" offset="100%"></stop>
        </linearGradient>
        <linearGradient x1="110.798211%" y1="17.9381684%" x2="0%" y2="17.9381684%" id="linearGradient-4">
            <stop stop-color="#C970FB" offset="0%"></stop>
            <stop stop-color="#3D48FF" offset="100%"></stop>
        </linearGradient>
        <polygon id="path-5" points="25 41 54 41 54 47 38 47.000155 38 54"></polygon>
        <filter x="-3.4%" y="-7.7%" width="106.9%" height="115.4%" filterUnits="objectBoundingBox" id="filter-6">
            <feOffset dx="0" dy="-2" in="SourceAlpha" result="shadowOffsetInner1"></feOffset>
            <feComposite in="shadowOffsetInner1" in2="SourceAlpha" operator="arithmetic" k2="-1" k3="1" result="shadowInnerInner1"></feComposite>
            <feColorMatrix values="0 0 0 0 0   0 0 0 0 0   0 0 0 0 0  0 0 0 0.105475579 0" type="matrix" in="shadowInnerInner1"></feColorMatrix>
        </filter>
        <linearGradient x1="-14.3920397%" y1="0%" x2="119.034024%" y2="0%" id="linearGradient-7">
            <stop stop-color="#17EFFC" offset="0%"></stop>
            <stop stop-color="#7155F7" offset="100%"></stop>
        </linearGradient>
        <polygon id="path-8" points="25 24 54 24 54 29.9998412 38 30 38 37"></polygon>
        <filter x="-3.4%" y="-7.7%" width="106.9%" height="115.4%" filterUnits="objectBoundingBox" id="filter-9">
            <feOffset dx="0" dy="2" in="SourceAlpha" result="shadowOffsetInner1"></feOffset>
            <feComposite in="shadowOffsetInner1" in2="SourceAlpha" operator="arithmetic" k2="-1" k3="1" result="shadowInnerInner1"></feComposite>
            <feColorMatrix values="0 0 0 0 0   0 0 0 0 0   0 0 0 0 0  0 0 0 0.10612093 0" type="matrix" in="shadowInnerInner1"></feColorMatrix>
        </filter>
        <linearGradient x1="43.0658849%" y1="4.48152103%" x2="43.0658849%" y2="97.9131011%" id="linearGradient-10">
            <stop stop-color="#C3C4D0" offset="0%"></stop>
            <stop stop-color="#5B5E70" offset="100%"></stop>
        </linearGradient>
    </defs>
    <g id="apps/96/dde-cooperation" stroke="none" stroke-width="1" fill="none" fill-rule="evenodd">
        <g id="编组" filter="url(#filter-1)" transform="translate(9, 9)">
            <rect id="矩形" fill="url(#linearGradient-2)" x="0" y="0" width="78" height="78" rx="15"></rect>
            <path d="M63,0 C71.2842712,0 78,6.71572875 78,15 L78,63 C78,71.2842712 71.2842712,78 63,78 L15,78 C6.71572875,78 0,71.2842712 0,63 L0,15 C0,6.71572875 6.71572875,0 15,0 L63,0 Z M63,6 L15,6 C10.0294373,6 6,10.0294373 6,15 L6,63 C6,67.9705627 10.0294373,72 15,72 L63,72 C67.9705627,72 72,67.9705627 72,63 L72,15 C72,10.0294373 67.9705627,6 63,6 Z" id="矩形" fill="url(#linearGradient-3)" fill-rule="nonzero"></path>
            <g id="路径" opacity="0.852246966" fill-rule="nonzero">
                <use fill="url(#linearGradient-4)" xlink:href="#path-5"></use>
                <use fill="black" fill-opacity="1" filter="url(#filter-6)" xlink:href="#path-5"></use>
            </g>
            <g id="路径" fill-rule="nonzero" transform="translate(39.5, 30.5) rotate(-180) translate(-39.5, -30.5)">
                <use fill="url(#linearGradient-7)" xlink:href="#path-8"></use>
                <use fill="black" fill-opacity="1" filter="url(#filter-9)" xlink:href="#path-8"></use>
            </g>
            <path d="M64,15 C65.6568542,15 67,16.3431458 67,18 L67,60 C67,61.6568542 65.6568542,63 64,63 C62.3431458,63 61,61.6568542 61,60 L61,18 C61,16.3431458 62.3431458,15 64,15 Z" id="矩形" fill="url(#linearGradient-10)" fill-rule="nonzero"></path>
            <path d="M14,15 C15.6568542,15 17,16.3431458 17,18 L17,60 C17,61.6568542 15.6568542,63 14,63 C12.3431458,63 11,61.6568542 11,60 L11,18 C11,16.3431458 12.3431458,15 14,15 Z" id="矩形" fill="url(#linearGradient-10)" fill-rule="nonzero"></path>
        </g>
        <g id="Guide/96" transform="translate(3, 3)"></g>
    </g>
</svg>