<?xml version="1.0" encoding="UTF-8"?>
<svg width="96px" height="96px" viewBox="0 0 96 96" version="1.1" xmlns="http://www.w3.org/2000/svg" xmlns:xlink="http://www.w3.org/1999/xlink">
    <title>deepin-phone-master/96px</title>
    <defs>
        <linearGradient x1="45.1647068%" y1="0%" x2="61.7622398%" y2="100%" id="linearGradient-1">
            <stop stop-color="#D7E4FF" offset="0%"></stop>
            <stop stop-color="#F4F9FF" offset="100%"></stop>
        </linearGradient>
        <filter x="-19.7%" y="-13.5%" width="142.6%" height="130.3%" filterUnits="objectBoundingBox" id="filter-2">
            <feOffset dx="0" dy="2" in="SourceAlpha" result="shadowOffsetOuter1"></feOffset>
            <feGaussianBlur stdDeviation="2" in="shadowOffsetOuter1" result="shadowBlurOuter1"></feGaussianBlur>
            <feColorMatrix values="0 0 0 0 0   0 0 0 0 0   0 0 0 0 0  0 0 0 0.2 0" type="matrix" in="shadowBlurOuter1" result="shadowMatrixOuter1"></feColorMatrix>
            <feMerge>
                <feMergeNode in="shadowMatrixOuter1"></feMergeNode>
                <feMergeNode in="SourceGraphic"></feMergeNode>
            </feMerge>
        </filter>
        <linearGradient x1="46.775128%" y1="0%" x2="57.8447605%" y2="100%" id="linearGradient-3">
            <stop stop-color="#D7E4FF" offset="0%"></stop>
            <stop stop-color="#F4F9FF" offset="100%"></stop>
        </linearGradient>
        <linearGradient x1="0%" y1="63.4844817%" x2="100%" y2="63.4844817%" id="linearGradient-4">
            <stop stop-color="#F1F6FF" offset="0%"></stop>
            <stop stop-color="#CDDCFA" offset="100%"></stop>
        </linearGradient>
        <linearGradient x1="0%" y1="63.4844817%" x2="100%" y2="63.4844817%" id="linearGradient-5">
            <stop stop-color="#F1F6FF" offset="0%"></stop>
            <stop stop-color="#CDDCFA" offset="100%"></stop>
        </linearGradient>
        <linearGradient x1="50%" y1="0%" x2="50%" y2="38.3957847%" id="linearGradient-6">
            <stop stop-color="#102956" offset="0%"></stop>
            <stop stop-color="#2C5A99" offset="100%"></stop>
        </linearGradient>
        <linearGradient x1="49.9002657%" y1="3.04338639%" x2="46.9515727%" y2="93.0226279%" id="linearGradient-7">
            <stop stop-color="#30466A" offset="0%"></stop>
            <stop stop-color="#496DA3" offset="26.6891892%"></stop>
            <stop stop-color="#4C6C9B" offset="54.0857264%"></stop>
            <stop stop-color="#44628D" offset="82.4297931%"></stop>
            <stop stop-color="#214068" offset="100%"></stop>
        </linearGradient>
        <linearGradient x1="36.2702126%" y1="53.0281445%" x2="58.2821087%" y2="36.9471277%" id="linearGradient-8">
            <stop stop-color="#19467E" offset="0%"></stop>
            <stop stop-color="#0F2E5E" offset="100%"></stop>
        </linearGradient>
        <circle id="path-9" cx="17.75" cy="17.8125" r="17"></circle>
        <filter x="-10.3%" y="-7.4%" width="120.6%" height="120.6%" filterUnits="objectBoundingBox" id="filter-10">
            <feOffset dx="0" dy="1" in="SourceAlpha" result="shadowOffsetOuter1"></feOffset>
            <feGaussianBlur stdDeviation="1" in="shadowOffsetOuter1" result="shadowBlurOuter1"></feGaussianBlur>
            <feColorMatrix values="0 0 0 0 0   0 0 0 0 0   0 0 0 0 0  0 0 0 0.195230551 0" type="matrix" in="shadowBlurOuter1"></feColorMatrix>
        </filter>
        <linearGradient x1="50%" y1="0%" x2="50%" y2="100%" id="linearGradient-11">
            <stop stop-color="#4B4B4B" offset="0%"></stop>
            <stop stop-color="#070707" offset="100%"></stop>
        </linearGradient>
    </defs>
    <g id="deepin-phone-master/96px" stroke="none" stroke-width="1" fill="none" fill-rule="evenodd">
        <path d="M63.9954823,3 C69.5208248,3 74,7.48491573 74,13.0090425 L73.999948,58.5034551 C79.897026,61.1714225 84,67.1065608 84,74 C84,83.3888407 76.3888407,91 67,91 C66.4254667,91 65.8575901,90.9714992 65.2977069,90.9158343 C64.8717194,90.9714025 64.4369444,91 63.9954823,91 L35.0045177,91 C29.4791751,91 25,86.5150843 25,80.9909575 L25,33.25 L24.75,33.25 C24.3357864,33.25 24,32.9142136 24,32.5 L24,28.75 C24,28.3357864 24.3357864,28 24.75,28 L25,28 L25,26.25 L24.75,26.25 C24.3357864,26.25 24,25.9142136 24,25.5 L24,21.75 C24,21.3357864 24.3357864,21 24.75,21 L25,21 L25,13.0090425 C25,7.48120099 29.478321,3 35.0045177,3 L63.9954823,3 Z M74.25,22 C74.6642136,22 75,22.3357864 75,22.75 L75,22.75 L75,30.25 C75,30.6642136 74.6642136,31 74.25,31 L74.25,31 L74,31 L74,22 Z" id="形状结合" stroke-opacity="0.08" stroke="#000000" fill="url(#linearGradient-1)"></path>
        <g id="编组" filter="url(#filter-2)" transform="translate(24.000000, 3.000000)">
            <g id="Group">
                <path d="M1,10.0090425 C1,4.48120099 5.47832104,0 11.0045177,0 L39.9954823,0 C45.5208248,0 50,4.48491573 50,10.0090425 L50,77.9909575 C50,83.518799 45.521679,88 39.9954823,88 L11.0045177,88 C5.47917514,88 1,83.5150843 1,77.9909575 L1,10.0090425 Z" id="Rectangle-134" fill="url(#linearGradient-3)"></path>
                <path d="M3,9.99722478 C3,5.58047949 6.58169247,2 11.0060444,2 L39.9203754,2 C44.3419916,2 47.9297234,5.58250353 47.9337943,9.99722467 L47.9965046,78.0027742 C48.0005775,82.4195195 44.4160113,85.999999 40.0099453,85.9999991 L10.9939338,85.9999999 C6.57900609,86 3,82.4174965 3,78.0027753 L3,9.99722478 Z" id="Rectangle-134" fill="#000000"></path>
                <path d="M0.75,18 L1,18 L1,18 L1,23.25 L0.75,23.25 C0.335786438,23.25 5.07265313e-17,22.9142136 0,22.5 L0,18.75 C-5.07265313e-17,18.3357864 0.335786438,18 0.75,18 Z" id="矩形" fill="url(#linearGradient-4)"></path>
                <path d="M50.75,19 L51,19 L51,19 L51,28 L50.75,28 C50.3357864,28 50,27.6642136 50,27.25 L50,19.75 C50,19.3357864 50.3357864,19 50.75,19 Z" id="矩形" fill="url(#linearGradient-5)" transform="translate(50.500000, 23.500000) scale(-1, 1) translate(-50.500000, -23.500000) "></path>
                <path d="M0.75,25 L1,25 L1,25 L1,30.25 L0.75,30.25 C0.335786438,30.25 5.07265313e-17,29.9142136 0,29.5 L0,25.75 C-5.07265313e-17,25.3357864 0.335786438,25 0.75,25 Z" id="矩形" fill="url(#linearGradient-4)"></path>
                <path d="M11,4 L21.0835733,4 C21.7821764,4 22.396534,4.46211907 22.5902565,5.13332531 L22.8026316,5.86915888 C23.1221322,6.97615888 24.1353734,7.73831776 25.2875581,7.73831776 L25.7124419,7.73831776 C26.8646266,7.73831776 27.8778678,6.97615888 28.1973684,5.86915888 L28.4097435,5.13332531 C28.603466,4.46211907 29.2178236,4 29.9164267,4 L40,4 C43.3137085,4 46,6.6862915 46,10 L46,78 C46,81.3137085 43.3137085,84 40,84 L11,84 C7.6862915,84 5,81.3137085 5,78 L5,10 C5,6.6862915 7.6862915,4 11,4 Z" id="矩形" fill="url(#linearGradient-6)"></path>
                <g id="路径-3-+-路径-2-蒙版" transform="translate(4.312500, 26.437500)">
                    <path d="M0.6875,17.9656538 C15.7594697,12.3237785 23.4261364,8.52272727 23.6875,6.5625 C23.9488636,4.60227273 24.282197,2.43560606 24.6875,0.0625 C34.9100379,4.46212121 40.5767045,8.29545455 41.6875,11.5625 C41.6875,24.8958333 41.6875,38.2291667 41.6875,51.5625 C41.6875,54.8762085 39.0012085,57.5625 35.6875,57.5625 L6.6875,57.5625 C3.3737915,57.5625 0.6875,54.8762085 0.6875,51.5625 L0.6875,17.9656538 L0.6875,17.9656538 Z" id="路径-3" fill="url(#linearGradient-7)" opacity="0.795735677"></path>
                    <path d="M0.6875,15.5625 C4.9375,14.8125 9.5625,12.8125 14.5625,9.5625 C19.5625,6.3125 22.9588068,3.125 24.7514205,0 C30.3053977,7.31818182 29.1292614,12.4801136 21.2230114,15.4857955 C9.36363636,19.9943182 12.984375,30.5823864 22.6875,31.5625 C32.390625,32.5426136 31.4161932,34.3039773 25.5355114,40.5767045 C19.6548295,46.8494318 8.52840909,50.0625 0.6875,50.0625 C0.6875,47.7755682 0.6875,36.2755682 0.6875,15.5625 Z" id="路径-2" fill="url(#linearGradient-8)"></path>
                </g>
                <rect id="矩形" fill="#00C4CC" x="9" y="9" width="6" height="6" rx="1.5"></rect>
                <rect id="矩形" fill="#FFDD3A" x="18" y="9" width="6" height="6" rx="1.5"></rect>
                <rect id="矩形" fill="#E8A1EA" x="27" y="9" width="6" height="6" rx="1.5"></rect>
                <rect id="矩形" fill="#969696" x="36" y="9" width="6" height="6" rx="1.5"></rect>
                <rect id="矩形" fill="#00DC52" x="9" y="19" width="6" height="6" rx="1.5"></rect>
                <rect id="矩形" fill="#CE4B67" x="18" y="19" width="6" height="6" rx="1.5"></rect>
                <rect id="矩形" fill="#DD6A60" x="36" y="19" width="6" height="6" rx="1.5"></rect>
                <rect id="矩形" fill="#3986FA" x="9" y="29" width="6" height="6" rx="1.5"></rect>
                <rect id="矩形" fill="#9E43D0" x="18" y="29" width="6" height="6" rx="1.5"></rect>
                <rect id="矩形" fill="#DABF9F" x="27" y="19" width="6" height="6" rx="1.5"></rect>
                <rect id="矩形" fill="#666666" x="27" y="29" width="6" height="6" rx="1.5"></rect>
                <rect id="矩形" fill="#C59F35" x="9" y="39" width="6" height="6" rx="1.5"></rect>
                <rect id="矩形" fill="#482AC5" x="9" y="74" width="6" height="6" rx="1.5"></rect>
                <rect id="矩形" fill="#1D84FE" x="18" y="74" width="6" height="6" rx="1.5"></rect>
                <rect id="矩形" fill="#6FAD93" x="27" y="74" width="6" height="6" rx="1.5"></rect>
                <rect id="矩形" fill="#D8D8D8" x="35.9375" y="73.3125" width="7.125" height="7.125" rx="1.5"></rect>
                <path d="M25.5,6.75 C26.1903559,6.75 26.75,6.19035594 26.75,5.5 C26.75,4.80964406 26.1903559,4.25 25.5,4.25 C24.8096441,4.25 24.25,4.80964406 24.25,5.5 C24.25,6.19035594 24.8096441,6.75 25.5,6.75 Z" id="Oval-21" fill-opacity="0.15" fill="#FFFFFF" transform="translate(25.500000, 5.500000) rotate(-360.000000) translate(-25.500000, -5.500000) "></path>
                <path d="M25.5,6 C25.7761424,6 26,5.77614237 26,5.5 C26,5.22385763 25.7761424,5 25.5,5 C25.2238576,5 25,5.22385763 25,5.5 C25,5.77614237 25.2238576,6 25.5,6 Z" id="Oval-21" fill-opacity="0.15" fill="#FFFFFF" transform="translate(25.500000, 5.500000) rotate(-360.000000) translate(-25.500000, -5.500000) "></path>
            </g>
            <g id="编组-4" transform="translate(25.250000, 53.187500)">
                <g id="椭圆形">
                    <use fill="black" fill-opacity="1" filter="url(#filter-10)" xlink:href="#path-9"></use>
                    <use fill="#FFFFFF" fill-rule="evenodd" xlink:href="#path-9"></use>
                </g>
                <path d="M28.5875657,18.8125 C28.7154985,18.8125 28.8385648,18.8615385 28.931438,18.9495237 C29.1319043,19.1394391 29.1404574,19.455906 28.950542,19.6563723 L28.950542,19.6563723 L21.3972323,27.6293104 C21.3264137,27.7040633 21.2279722,27.7464062 21.125,27.7464062 C20.9178932,27.7464062 20.75,27.5785129 20.75,27.3714062 L20.75,27.3714062 L20.75,22.8125 L8.75,22.8125 C8.19771525,22.8125 7.75,22.3647847 7.75,21.8125 L7.75,21.8125 L7.75,19.8125 C7.75,19.2602153 8.19771525,18.8125 8.75,18.8125 L8.75,18.8125 Z M15.375,6.87859385 C15.5821068,6.87859385 15.75,7.04648707 15.75,7.25359385 L15.75,7.25359385 L15.75,11.8125 L27.75,11.8125 C28.3022847,11.8125 28.75,12.2602153 28.75,12.8125 L28.75,12.8125 L28.75,14.8125 C28.75,15.3647847 28.3022847,15.8125 27.75,15.8125 L27.75,15.8125 L7.91243433,15.8125 C7.78450147,15.8125 7.66143522,15.7634615 7.56856201,15.6754763 C7.36809571,15.4855609 7.35954255,15.169094 7.54945799,14.9686277 L7.54945799,14.9686277 L15.1027677,6.9956896 C15.1735863,6.92093669 15.2720278,6.87859385 15.375,6.87859385 Z" id="形状结合" fill="url(#linearGradient-11)"></path>
            </g>
        </g>
    </g>
</svg>