<?xml version="1.0" encoding="UTF-8"?>
<svg width="96px" height="96px" viewBox="0 0 96 96" version="1.1" xmlns="http://www.w3.org/2000/svg" xmlns:xlink="http://www.w3.org/1999/xlink">
    <!-- Generator: Sketch 62 (91390) - https://sketch.com -->
    <title>deepin-devicemanager</title>
    <desc>Created with Sketch.</desc>
    <defs>
        <filter x="-14.6%" y="-15.4%" width="129.3%" height="130.8%" filterUnits="objectBoundingBox" id="filter-1">
            <feOffset dx="0" dy="2" in="SourceAlpha" result="shadowOffsetOuter1"></feOffset>
            <feGaussianBlur stdDeviation="2" in="shadowOffsetOuter1" result="shadowBlurOuter1"></feGaussianBlur>
            <feComposite in="shadowBlurOuter1" in2="SourceAlpha" operator="out" result="shadowBlurOuter1"></feComposite>
            <feColorMatrix values="0 0 0 0 0   0 0 0 0 0   0 0 0 0 0  0 0 0 0.2 0" type="matrix" in="shadowBlurOuter1" result="shadowMatrixOuter1"></feColorMatrix>
            <feMerge>
                <feMergeNode in="shadowMatrixOuter1"></feMergeNode>
                <feMergeNode in="SourceGraphic"></feMergeNode>
            </feMerge>
        </filter>
        <linearGradient x1="50%" y1="1.46748311%" x2="50%" y2="100%" id="linearGradient-2">
            <stop stop-color="#3E3E3E" offset="0%"></stop>
            <stop stop-color="#222222" offset="6.27549982%"></stop>
            <stop stop-color="#1A1A1A" offset="86.8859411%"></stop>
            <stop stop-color="#111111" offset="100%"></stop>
        </linearGradient>
        <linearGradient x1="26.2556455%" y1="7.05011398%" x2="66.0703728%" y2="91.3301661%" id="linearGradient-3">
            <stop stop-color="#2F2F2F" offset="0%"></stop>
            <stop stop-color="#1E1E1E" offset="100%"></stop>
        </linearGradient>
        <path d="M72.5,54 C73.3284271,54 74,54.6715729 74,55.5 L74,58.5 C74,59.3284271 73.3284271,60 72.5,60 L9.5,60 C8.67157288,60 8,59.3284271 8,58.5 L8,55.5 C8,54.6715729 8.67157288,54 9.5,54 L72.5,54 Z M72.5,45 C73.3284271,45 74,45.6715729 74,46.5 L74,49.5 C74,50.3284271 73.3284271,51 72.5,51 L9.5,51 C8.67157288,51 8,50.3284271 8,49.5 L8,46.5 C8,45.6715729 8.67157288,45 9.5,45 L72.5,45 Z M72.5,36 C73.3284271,36 74,36.6715729 74,37.5 L74,40.5 C74,41.3284271 73.3284271,42 72.5,42 L9.5,42 C8.67157288,42 8,41.3284271 8,40.5 L8,37.5 C8,36.6715729 8.67157288,36 9.5,36 L72.5,36 Z M72.5,27 C73.3284271,27 74,27.6715729 74,28.5 L74,31.5 C74,32.3284271 73.3284271,33 72.5,33 L9.5,33 C8.67157288,33 8,32.3284271 8,31.5 L8,28.5 C8,27.6715729 8.67157288,27 9.5,27 L72.5,27 Z M72.5,18 C73.3284271,18 74,18.6715729 74,19.5 L74,22.5 C74,23.3284271 73.3284271,24 72.5,24 L9.5,24 C8.67157288,24 8,23.3284271 8,22.5 L8,19.5 C8,18.6715729 8.67157288,18 9.5,18 L72.5,18 Z" id="path-4"></path>
        <filter x="-0.8%" y="-1.2%" width="101.5%" height="102.4%" filterUnits="objectBoundingBox" id="filter-5">
            <feOffset dx="0" dy="1" in="SourceAlpha" result="shadowOffsetInner1"></feOffset>
            <feComposite in="shadowOffsetInner1" in2="SourceAlpha" operator="arithmetic" k2="-1" k3="1" result="shadowInnerInner1"></feComposite>
            <feColorMatrix values="0 0 0 0 0   0 0 0 0 0   0 0 0 0 0  0 0 0 0.183129371 0" type="matrix" in="shadowInnerInner1" result="shadowMatrixInner1"></feColorMatrix>
            <feOffset dx="0" dy="-1" in="SourceAlpha" result="shadowOffsetInner2"></feOffset>
            <feComposite in="shadowOffsetInner2" in2="SourceAlpha" operator="arithmetic" k2="-1" k3="1" result="shadowInnerInner2"></feComposite>
            <feColorMatrix values="0 0 0 0 1   0 0 0 0 1   0 0 0 0 1  0 0 0 0.12 0" type="matrix" in="shadowInnerInner2" result="shadowMatrixInner2"></feColorMatrix>
            <feMerge>
                <feMergeNode in="shadowMatrixInner1"></feMergeNode>
                <feMergeNode in="shadowMatrixInner2"></feMergeNode>
            </feMerge>
        </filter>
        <linearGradient x1="0%" y1="49.0031409%" x2="100%" y2="50.9954821%" id="linearGradient-6">
            <stop stop-color="#E2D46C" offset="0%"></stop>
            <stop stop-color="#D7BC26" offset="18.1492935%"></stop>
            <stop stop-color="#CFB009" offset="38.885663%"></stop>
            <stop stop-color="#E7BF00" offset="56.4734084%"></stop>
            <stop stop-color="#D5B630" offset="70.4022382%"></stop>
            <stop stop-color="#C9A10A" offset="83.4427313%"></stop>
            <stop stop-color="#C2A422" offset="100%"></stop>
        </linearGradient>
        <path d="M23.875,68 C24.4963203,68 25,68.5036797 25,69.125 L25,72.875 C25,73.4963203 24.4963203,74 23.875,74 L23.125,74 C22.5036797,74 22,73.4963203 22,72.875 L22,69.125 C22,68.5036797 22.5036797,68 23.125,68 L23.875,68 Z M29.875,68 C30.4963203,68 31,68.5036797 31,69.125 L31,72.875 C31,73.4963203 30.4963203,74 29.875,74 L29.125,74 C28.5036797,74 28,73.4963203 28,72.875 L28,69.125 C28,68.5036797 28.5036797,68 29.125,68 L29.875,68 Z M35.875,68 C36.4963203,68 37,68.5036797 37,69.125 L37,72.875 C37,73.4963203 36.4963203,74 35.875,74 L35.125,74 C34.5036797,74 34,73.4963203 34,72.875 L34,69.125 C34,68.5036797 34.5036797,68 35.125,68 L35.875,68 Z M41.875,68 C42.4963203,68 43,68.5036797 43,69.125 L43,72.875 C43,73.4963203 42.4963203,74 41.875,74 L41.125,74 C40.5036797,74 40,73.4963203 40,72.875 L40,69.125 C40,68.5036797 40.5036797,68 41.125,68 L41.875,68 Z M47.875,68 C48.4963203,68 49,68.5036797 49,69.125 L49,72.875 C49,73.4963203 48.4963203,74 47.875,74 L47.125,74 C46.5036797,74 46,73.4963203 46,72.875 L46,69.125 C46,68.5036797 46.5036797,68 47.125,68 L47.875,68 Z M53.875,68 C54.4963203,68 55,68.5036797 55,69.125 L55,72.875 C55,73.4963203 54.4963203,74 53.875,74 L53.125,74 C52.5036797,74 52,73.4963203 52,72.875 L52,69.125 C52,68.5036797 52.5036797,68 53.125,68 L53.875,68 Z M59.875,68 C60.4963203,68 61,68.5036797 61,69.125 L61,72.875 C61,73.4963203 60.4963203,74 59.875,74 L59.125,74 C58.5036797,74 58,73.4963203 58,72.875 L58,69.125 C58,68.5036797 58.5036797,68 59.125,68 L59.875,68 Z" id="path-7"></path>
        <filter x="-1.3%" y="-8.3%" width="102.6%" height="116.7%" filterUnits="objectBoundingBox" id="filter-8">
            <feOffset dx="0" dy="1" in="SourceAlpha" result="shadowOffsetInner1"></feOffset>
            <feComposite in="shadowOffsetInner1" in2="SourceAlpha" operator="arithmetic" k2="-1" k3="1" result="shadowInnerInner1"></feComposite>
            <feColorMatrix values="0 0 0 0 0.926828578   0 0 0 0 0.558558022   0 0 0 0 0  0 0 0 0.55 0" type="matrix" in="shadowInnerInner1"></feColorMatrix>
        </filter>
        <linearGradient x1="25.7071738%" y1="5.31005227%" x2="75.490452%" y2="95.833067%" id="linearGradient-9">
            <stop stop-color="#AAFBE7" offset="0.0686233108%"></stop>
            <stop stop-color="#6CACFF" offset="100%"></stop>
        </linearGradient>
        <rect id="path-10" x="11" y="12" width="60" height="54" rx="7.5"></rect>
        <filter x="-6.7%" y="-3.7%" width="113.3%" height="114.8%" filterUnits="objectBoundingBox" id="filter-11">
            <feOffset dx="0" dy="2" in="SourceAlpha" result="shadowOffsetOuter1"></feOffset>
            <feGaussianBlur stdDeviation="1" in="shadowOffsetOuter1" result="shadowBlurOuter1"></feGaussianBlur>
            <feColorMatrix values="0 0 0 0 0   0 0 0 0 0   0 0 0 0 0  0 0 0 0.515133304 0" type="matrix" in="shadowBlurOuter1"></feColorMatrix>
        </filter>
        <filter x="-6.7%" y="-3.7%" width="113.3%" height="114.8%" filterUnits="objectBoundingBox" id="filter-12">
            <feGaussianBlur stdDeviation="1" in="SourceAlpha" result="shadowBlurInner1"></feGaussianBlur>
            <feOffset dx="0" dy="-2" in="shadowBlurInner1" result="shadowOffsetInner1"></feOffset>
            <feComposite in="shadowOffsetInner1" in2="SourceAlpha" operator="arithmetic" k2="-1" k3="1" result="shadowInnerInner1"></feComposite>
            <feColorMatrix values="0 0 0 0 0   0 0 0 0 0.0510136902   0 0 0 0 0.262143342  0 0 0 0.250573645 0" type="matrix" in="shadowInnerInner1" result="shadowMatrixInner1"></feColorMatrix>
            <feGaussianBlur stdDeviation="1" in="SourceAlpha" result="shadowBlurInner2"></feGaussianBlur>
            <feOffset dx="0" dy="2" in="shadowBlurInner2" result="shadowOffsetInner2"></feOffset>
            <feComposite in="shadowOffsetInner2" in2="SourceAlpha" operator="arithmetic" k2="-1" k3="1" result="shadowInnerInner2"></feComposite>
            <feColorMatrix values="0 0 0 0 0.838719512   0 0 0 0 1   0 0 0 0 0.9690462  0 0 0 0.568209135 0" type="matrix" in="shadowInnerInner2" result="shadowMatrixInner2"></feColorMatrix>
            <feMerge>
                <feMergeNode in="shadowMatrixInner1"></feMergeNode>
                <feMergeNode in="shadowMatrixInner2"></feMergeNode>
            </feMerge>
        </filter>
        <linearGradient x1="50%" y1="0.522592905%" x2="50%" y2="100%" id="linearGradient-13">
            <stop stop-color="#000000" stop-opacity="0.8" offset="0%"></stop>
            <stop stop-color="#000000" stop-opacity="0.531304633" offset="99.4721284%"></stop>
        </linearGradient>
    </defs>
    <g id="deepin-devicemanager" stroke="none" stroke-width="1" fill="none" fill-rule="evenodd">
        <g id="编组" filter="url(#filter-1)" transform="translate(7.000000, 9.000000)">
            <path d="M70.75,0 C76.9632034,-2.91770379e-15 82,5.03679656 82,11.25 L81.999868,19.553977 C79.2314241,19.8066227 77.062864,22.1344392 77.062864,24.96875 C77.062864,27.8030608 79.2314241,30.1308773 81.999868,30.383523 L82,66.75 C82,72.9632034 76.9632034,78 70.75,78 L11.25,78 C5.03679656,78 7.60784664e-16,72.9632034 -1.08420217e-19,66.75 L-0.000341055367,30.3008198 C0.024109093,30.3011436 0.0485981868,30.301306 0.0731252094,30.301306 C3.07617354,30.301306 5.51062521,27.8668543 5.51062521,24.863806 C5.51062521,21.8607576 3.07617354,19.426306 0.0731252094,19.426306 L-0.000341055367,19.427 L-1.08420217e-19,11.25 C-7.61001505e-16,5.03679656 5.03679656,1.14134695e-15 11.25,0 L70.75,0 Z M9,65 C7.34314575,65 6,66.3431458 6,68 C6,69.6568542 7.34314575,71 9,71 C10.6568542,71 12,69.6568542 12,68 C12,66.3431458 10.6568542,65 9,65 Z M73,65 C71.3431458,65 70,66.3431458 70,68 C70,69.6568542 71.3431458,71 73,71 C74.6568542,71 76,69.6568542 76,68 C76,66.3431458 74.6568542,65 73,65 Z M9,7 C7.34314575,7 6,8.34314575 6,10 C6,11.6568542 7.34314575,13 9,13 C10.6568542,13 12,11.6568542 12,10 C12,8.34314575 10.6568542,7 9,7 Z M73,7 C71.3431458,7 70,8.34314575 70,10 C70,11.6568542 71.3431458,13 73,13 C74.6568542,13 76,11.6568542 76,10 C76,8.34314575 74.6568542,7 73,7 Z" id="形状结合" fill="url(#linearGradient-2)"></path>
            <path d="M70.7505603,1 C76.9637638,1 82.0005603,6.03679656 82.0005603,12.25 L82.0000643,20.553977 C79.2316205,20.8066227 77.0630603,23.1344392 77.0630603,25.96875 C77.0630603,28.8030608 79.2316205,31.1308773 82.0000643,31.383523 L82.0005603,65.75 C82.0005603,71.9632034 76.9637638,77 70.7505603,77 L11.2505603,77 C5.03735691,77 0.00056034521,71.9632034 0.00056034521,65.75 L-0.00014472552,31.3008198 C0.0243054229,31.3011436 0.0487945167,31.301306 0.0733215392,31.301306 C3.07636987,31.301306 5.51082154,28.8668543 5.51082154,25.863806 C5.51082154,22.8607576 3.07636987,20.426306 0.0733215392,20.426306 L-0.00014472552,20.427 L0.00056034521,12.25 C0.00056034521,6.03679656 5.03735691,1 11.2505603,1 L70.7505603,1 Z M9,65 C7.34314575,65 6,66.3431458 6,68 C6,69.6568542 7.34314575,71 9,71 C10.6568542,71 12,69.6568542 12,68 C12,66.3431458 10.6568542,65 9,65 Z M73,65 C71.3431458,65 70,66.3431458 70,68 C70,69.6568542 71.3431458,71 73,71 C74.6568542,71 76,69.6568542 76,68 C76,66.3431458 74.6568542,65 73,65 Z M8.99985527,7 C7.34300103,7 5.99985527,8.34314575 5.99985527,10 C5.99985527,11.6568542 7.34300103,13 8.99985527,13 C10.6567095,13 11.9998553,11.6568542 11.9998553,10 C11.9998553,8.34314575 10.6567095,7 8.99985527,7 Z M72.9998553,7 C71.343001,7 69.9998553,8.34314575 69.9998553,10 C69.9998553,11.6568542 71.343001,13 72.9998553,13 C74.6567095,13 75.9998553,11.6568542 75.9998553,10 C75.9998553,8.34314575 74.6567095,7 72.9998553,7 Z" id="形状结合备份" fill="url(#linearGradient-3)"></path>
            <g id="形状结合">
                <use fill-opacity="0.35" fill="#000000" fill-rule="evenodd" xlink:href="#path-4"></use>
                <use fill="black" fill-opacity="1" filter="url(#filter-5)" xlink:href="#path-4"></use>
            </g>
            <g id="形状结合">
                <use fill="url(#linearGradient-6)" fill-rule="evenodd" xlink:href="#path-7"></use>
                <use fill="black" fill-opacity="1" filter="url(#filter-8)" xlink:href="#path-7"></use>
            </g>
            <g id="矩形">
                <use fill="black" fill-opacity="1" filter="url(#filter-11)" xlink:href="#path-10"></use>
                <use fill="url(#linearGradient-9)" fill-rule="evenodd" xlink:href="#path-10"></use>
                <use fill="black" fill-opacity="1" filter="url(#filter-12)" xlink:href="#path-10"></use>
            </g>
            <path d="M23.3947668,20.3703751 L26.6096821,19.6523819 L27.3440534,22.6989319 L24.1291381,23.416925 L23.3947668,20.3703751 Z M24.0301935,35.3796166 L23.4796018,24.3514287 L26.7086267,23.6302844 L27.2592184,34.6584723 L24.0301935,35.3796166 Z M32.9535075,34.6630278 L29.7448808,35.3796166 L29.1947162,24.3599825 L32.0911503,23.6514221 L32.4647115,24.8053934 C33.3626441,23.938001 34.432799,23.509901 35.6699156,23.509901 C36.3482514,23.509901 36.9676086,23.6361613 37.5289702,23.8842564 C38.1196477,24.1453078 38.5605257,24.4844994 38.8627694,24.8886887 C39.1605174,25.286866 39.3686933,25.738302 39.4855614,26.243812 C39.5923388,26.7056748 39.6494843,27.3666085 39.6494843,28.2277228 L39.6494843,34.6630278 L36.4654962,35.374114 L35.9106578,29.4192147 C35.9112352,28.3587343 35.8723911,27.6691672 35.7634242,27.3586147 C35.6837242,27.1314721 35.5578107,26.9515214 35.377679,26.8250144 C35.1940958,26.6960834 34.9715268,26.6386139 34.7147398,26.6386139 C34.3473028,26.6386139 34.0170044,26.739457 33.7248119,26.9441592 C33.440128,27.143601 33.244731,27.4076913 33.1391792,27.7368403 C33.0083059,28.1449511 32.9535075,28.9009519 32.9535075,30 L32.9535075,34.6630278 Z M45.6760657,34.6630278 L42.4733297,35.378301 L41.9663687,26.9356436 L41.0433847,26.9356436 L40.2995146,24.4241614 L41.9372455,23.8856055 C41.9372455,22.4813632 42.0513954,21.7583193 42.2548754,21.2796427 C42.4805934,20.7486522 42.8888596,20.3081705 43.4971092,19.9729814 C44.057794,19.6640039 44.7650084,19.5 45.6244135,19.5 C46.6025672,19.5 47.5567622,19.6752814 48.4869644,20.026064 L47.9329601,22.9287968 C47.3545407,22.7367929 46.8061144,22.6386139 46.2871885,22.6386139 C45.6846018,22.8879279 45.6760657,23.1555896 45.6760657,23.5049505 L47.0962478,23.7475248 L47.8513196,26.2968265 L45.6760657,26.8282044 L45.6760657,34.6630278 Z M48.5462692,26.443112 C49.0418534,25.4873253 49.7450066,24.7589919 50.653295,24.2557188 C51.5476079,23.7601893 52.5457459,23.509901 53.6490666,23.509901 C55.3633581,23.509901 56.7641364,24.0821554 57.8581404,25.2115194 C58.9477002,26.3362955 59.5,27.7553982 59.5,29.4752475 C59.5,31.2077553 58.9431781,32.6399629 57.8440424,33.7780399 C56.7384017,34.9228523 55.347958,35.5 53.66856,35.5 C52.6410621,35.5 51.6609198,35.2645461 50.7283612,34.7926726 C49.7726865,34.3091024 49.0464773,33.5998445 48.5488636,32.6657842 C48.0662302,31.7598434 47.8176265,30.6580933 47.8176265,29.3564356 C47.8176265,28.3533245 48.0594633,27.3819691 48.5462692,26.443112 Z M51.6246736,29.5049505 C51.6246736,30.3970174 51.8110321,31.092829 52.231229,31.5709 C52.6170626,32.0098747 53.0919446,32.2326733 53.6588133,32.2326733 C54.2247693,32.2326733 54.6977378,32.0104718 55.0804318,31.5721469 C55.498624,31.0931637 55.6832063,30.3900861 55.6832063,29.4851485 C55.6832063,28.6047735 55.4975258,27.9154794 55.0804318,27.4377541 C54.6977378,26.9994291 54.2247693,26.7772277 53.6588133,26.7772277 C53.0919446,26.7772277 52.6170626,27.0000263 52.231229,27.439001 C51.8110321,27.917072 51.6246736,28.6128835 51.6246736,29.5049505 Z" id="info" stroke-opacity="0.05" stroke="#000000" fill-opacity="0.33" fill="#000000" fill-rule="nonzero"></path>
            <path d="M26,57 C26.5522847,57 27,57.4477153 27,58 C27,58.5522847 26.5522847,59 26,59 L22,59 C21.4477153,59 21,58.5522847 21,58 C21,57.4477153 21.4477153,57 22,57 L26,57 Z M37,57 C37.5522847,57 38,57.4477153 38,58 C38,58.5522847 37.5522847,59 37,59 L34,59 C33.4477153,59 33,58.5522847 33,58 C33,57.4477153 33.4477153,57 34,57 L37,57 Z M55,57 C55.5522847,57 56,57.4477153 56,58 C56,58.5522847 55.5522847,59 55,59 L41,59 C40.4477153,59 40,58.5522847 40,58 C40,57.4477153 40.4477153,57 41,57 L55,57 Z M30,53 C30.5522847,53 31,53.4477153 31,54 C31,54.5522847 30.5522847,55 30,55 L22,55 C21.4477153,55 21,54.5522847 21,54 C21,53.4477153 21.4477153,53 22,53 L30,53 Z M44,53 C44.5522847,53 45,53.4477153 45,54 C45,54.5522847 44.5522847,55 44,55 L34,55 C33.4477153,55 33,54.5522847 33,54 C33,53.4477153 33.4477153,53 34,53 L44,53 Z M58,53 C58.5522847,53 59,53.4477153 59,54 C59,54.5522847 58.5522847,55 58,55 L48,55 C47.4477153,55 47,54.5522847 47,54 C47,53.4477153 47.4477153,53 48,53 L58,53 Z M28,49 C28.5522847,49 29,49.4477153 29,50 C29,50.5522847 28.5522847,51 28,51 L22,51 C21.4477153,51 21,50.5522847 21,50 C21,49.4477153 21.4477153,49 22,49 L28,49 Z M53,49 C53.5522847,49 54,49.4477153 54,50 C54,50.5522847 53.5522847,51 53,51 L34,51 C33.4477153,51 33,50.5522847 33,50 C33,49.4477153 33.4477153,49 34,49 L53,49 Z M26,45 C26.5522847,45 27,45.4477153 27,46 C27,46.5522847 26.5522847,47 26,47 L22,47 C21.4477153,47 21,46.5522847 21,46 C21,45.4477153 21.4477153,45 22,45 L26,45 Z M39,45 C39.5522847,45 40,45.4477153 40,46 C40,46.5522847 39.5522847,47 39,47 L34,47 C33.4477153,47 33,46.5522847 33,46 C33,45.4477153 33.4477153,45 34,45 L39,45 Z M55,45 C55.5522847,45 56,45.4477153 56,46 C56,46.5522847 55.5522847,47 55,47 L43,47 C42.4477153,47 42,46.5522847 42,46 C42,45.4477153 42.4477153,45 43,45 L55,45 Z M62,45 C62.5522847,45 63,45.4477153 63,46 C63,46.5522847 62.5522847,47 62,47 L58,47 C57.4477153,47 57,46.5522847 57,46 C57,45.4477153 57.4477153,45 58,45 L62,45 Z M28,41 C28.5522847,41 29,41.4477153 29,42 C29,42.5522847 28.5522847,43 28,43 L22,43 C21.4477153,43 21,42.5522847 21,42 C21,41.4477153 21.4477153,41 22,41 L28,41 Z M45,41 C45.5522847,41 46,41.4477153 46,42 C46,42.5522847 45.5522847,43 45,43 L34,43 C33.4477153,43 33,42.5522847 33,42 C33,41.4477153 33.4477153,41 34,41 L45,41 Z M57.125,41 C57.6772847,41 58.125,41.4477153 58.125,42 C58.125,42.5522847 57.6772847,43 57.125,43 L49,43 C48.4477153,43 48,42.5522847 48,42 C48,41.4477153 48.4477153,41 49,41 L57.125,41 Z" id="形状结合" fill="url(#linearGradient-13)" opacity="0.22937593"></path>
        </g>
    </g>
</svg>