<?xml version="1.0" encoding="UTF-8"?>
<svg width="96px" height="96px" viewBox="0 0 96 96" version="1.1" xmlns="http://www.w3.org/2000/svg" xmlns:xlink="http://www.w3.org/1999/xlink">
    <title>apps/96/deepin-manual</title>
    <defs>
        <rect id="path-1" x="0" y="0" width="74" height="82" rx="4"></rect>
        <filter x="-9.5%" y="-6.1%" width="118.9%" height="117.1%" filterUnits="objectBoundingBox" id="filter-2">
            <feOffset dx="0" dy="2" in="SourceAlpha" result="shadowOffsetOuter1"></feOffset>
            <feGaussianBlur stdDeviation="2" in="shadowOffsetOuter1" result="shadowBlurOuter1"></feGaussianBlur>
            <feColorMatrix values="0 0 0 0 0   0 0 0 0 0   0 0 0 0 0  0 0 0 0.2 0" type="matrix" in="shadowBlurOuter1"></feColorMatrix>
        </filter>
        <radialGradient cx="50%" cy="17.5739284%" fx="50%" fy="17.5739284%" r="106.476839%" gradientTransform="translate(0.5, 0.1757), scale(1, 0.9024), rotate(90), translate(-0.5, -0.1757)" id="radialGradient-3">
            <stop stop-color="#04A38C" offset="0%"></stop>
            <stop stop-color="#075661" offset="100%"></stop>
        </radialGradient>
        <path d="M9.21710526,72.2884606 C24.8567487,72.2884606 40.4963922,72.2884606 56.1360357,72.2884606 C59.2287328,72.2884606 62.3214299,72.2884606 65.414127,72.2884606 C69.1106953,72.2884606 72.3840384,69.9008538 73.5131579,66.3809524 L73.5131579,66.3809524 L73.5131579,66.3809524 L73.5597458,68.3295841 C73.6983485,74.1269173 69.111041,78.9389442 63.3137077,79.0775469 C63.2300685,79.0795465 63.1464084,79.0805464 63.0627454,79.0805464 L9.23814819,79.0805464 C7.36256547,79.0805464 5.84210526,77.5600862 5.84210526,75.6845035 L5.84210526,75.6634606 C5.84210526,73.7994996 7.35314423,72.2884606 9.21710526,72.2884606 Z" id="path-4"></path>
        <filter x="-2.2%" y="-11.8%" width="104.0%" height="123.6%" filterUnits="objectBoundingBox" id="filter-5">
            <feGaussianBlur stdDeviation="1" in="SourceAlpha" result="shadowBlurInner1"></feGaussianBlur>
            <feOffset dx="1" dy="1" in="shadowBlurInner1" result="shadowOffsetInner1"></feOffset>
            <feComposite in="shadowOffsetInner1" in2="SourceAlpha" operator="arithmetic" k2="-1" k3="1" result="shadowInnerInner1"></feComposite>
            <feColorMatrix values="0 0 0 0 0.0235294118   0 0 0 0 0.411764706   0 0 0 0 0.419607843  0 0 0 0.502786276 0" type="matrix" in="shadowInnerInner1"></feColorMatrix>
        </filter>
        <linearGradient x1="6.14610779%" y1="65.6183541%" x2="0%" y2="65.6183541%" id="linearGradient-6">
            <stop stop-color="#04A38C" stop-opacity="0" offset="0%"></stop>
            <stop stop-color="#075661" offset="100%"></stop>
        </linearGradient>
        <path d="M3.375,6.04017857 C18.9547697,6.04017857 34.5345395,6.04017857 50.1143092,6.04017857 C53.0933362,6.04017857 56.0723632,6.04017857 59.0513902,6.04017857 C62.9665126,6.04017857 66.4826762,3.64391814 67.9144737,0 L67.9144737,0 L67.9144737,0 L67.8773435,2.6430288 C67.7966933,8.38393411 63.1198512,12.9955357 57.3783795,12.9955357 L3.47767857,12.9955357 C1.55700973,12.9955357 2.35214095e-16,11.438526 0,9.51785714 L-4.4408921e-16,9.41517857 C-6.72358601e-16,7.55121754 1.51103897,6.04017857 3.375,6.04017857 Z" id="path-7"></path>
    </defs>
    <g id="apps/96/deepin-manual" stroke="none" stroke-width="1" fill="none" fill-rule="evenodd">
        <g id="编组-2" transform="translate(11, 7)">
            <g id="矩形" fill="black" fill-opacity="1">
                <use filter="url(#filter-2)" xlink:href="#path-1"></use>
            </g>
            <rect id="矩形" fill="url(#radialGradient-3)" x="0" y="0" width="74" height="82" rx="10"></rect>
            <path d="M9.51069279,70.2887982 C37.4414662,70.3035304 53.5826387,70.3025025 57.9342105,70.2857143 C60.2177282,70.2769046 62.616866,70.3065516 65.1316242,70.3746553 L65.1316233,70.3746858 C69.7103744,70.4986857 73.5952228,67.0387 74,62.4761905 L74,62.4761905 L74,62.4761905 L74,71.0119048 C74,76.8108946 69.2989899,81.5119048 63.5,81.5119048 L9.87593185,81.5119048 C6.74516428,81.5119048 4.17907695,79.0279224 4.07730263,75.8988095 C3.97975386,72.8996138 6.3320035,70.3892063 9.33119926,70.2916576 C9.39101054,70.2897122 9.45084989,70.2887551 9.5106928,70.2887867 Z" id="矩形" fill="#034849"></path>
            <g id="Rectangle-9备份">
                <use fill="#D5FCF9" fill-rule="evenodd" xlink:href="#path-4"></use>
                <use fill="black" fill-opacity="1" filter="url(#filter-5)" xlink:href="#path-4"></use>
            </g>
            <path d="M0,10 C-6.76353751e-16,4.4771525 4.4771525,1.01453063e-15 10,0 L64,0 C69.5228475,3.89074334e-15 74,4.4771525 74,10 L74,10.9761905 C74,5.45334298 69.5228475,0.976190476 64,0.976190476 L10,0.976190476 C4.4771525,0.976190476 -6.76353751e-16,5.45334298 0,10.9761905 L0,10 Z" id="Combined-Shape" fill-opacity="0.6" fill="#00AB9D"></path>
            <rect id="矩形" fill="url(#linearGradient-6)" x="0" y="0" width="74" height="82" rx="10"></rect>
            <g id="编组" transform="translate(5.8213, 66.2507)">
                <mask id="mask-8" fill="white">
                    <use xlink:href="#path-7"></use>
                </mask>
                <g id="蒙版"></g>
                <g opacity="0.269414993" mask="url(#mask-8)" stroke="#076F6F">
                    <g transform="translate(-0.9619, -0.993)">
                        <path d="M0.410637486,9.48101031 C34.5265119,9.48101031 54.2620806,9.48101031 59.6173438,9.48101031 C62.4962543,9.48101031 64.9158389,8.18910415 66.6502139,6.26722915 C67.6433958,5.16667626 68.4748155,3.75058035 69.144473,2.01894139" id="路径-3备份-6"></path>
                        <path d="M0.410637486,7.46206893 C34.5265119,7.46206893 54.2620806,7.46206893 59.6173438,7.46206893 C62.4962543,7.46206893 64.9158389,6.17016276 66.6502139,4.24828776 C67.6433958,3.14773488 68.4748155,1.73163896 69.144473,0" id="路径-3备份-7"></path>
                        <path d="M0,11.4363127 C34.3896327,11.4363127 54.2620806,11.4363127 59.6173438,11.4363127 C62.4962543,11.4363127 65.0270084,10.0177859 66.7613834,8.09591091 C67.7545653,6.99535803 68.640195,5.24925879 69.4182726,2.85761319" id="路径-3备份-8"></path>
                        <path d="M0.410637486,13.3438921 C34.5265119,13.3438921 54.2620806,13.3438921 59.6173438,13.3438921 C62.4962543,13.3438921 65.2126487,11.7226436 66.9470237,9.8007686 C67.9402056,8.70021572 68.7639552,6.81934468 69.4182726,4.15815547" id="路径-3备份-10"></path>
                    </g>
                </g>
            </g>
            <path d="M45.6936519,62.2774261 C45.6955044,62.2786021 45.6973669,62.2796581 45.6992257,62.2805884 C45.6985967,62.2802736 45.6979124,62.2799506 45.6971732,62.2796198 L45.6936519,62.2774261 Z M44.9056543,62.2021803 C44.2673395,62.1817412 43.2877077,62.1920054 41.9684922,62.2330947 C39.3246864,62.3154409 34.8792512,62.3031906 29.51635,62.6327694 C29.1719094,62.4990075 28.9828605,62.3816138 28.9492034,62.2805884 C28.8987177,62.1290503 28.8844245,61.8661922 29.2051022,61.6985259 C30.2449954,61.2952888 44.2569223,61.6276856 44.9056543,61.6484583 C45.2358477,61.6590312 45.7906035,61.6709035 45.9534558,61.6985259 C46.207125,61.7415524 46.3015934,62.4601859 46.2260089,62.6327694 C46.052461,63.0290345 42.4942733,62.7168119 35.548458,63.2205958 C46.2260089,63.7230614 46.1831692,63.7334806 44.918672,64.397692 C42.6417381,65.5937132 28.4655958,66.9410609 28.4655958,66.9410609 C36.8535498,66.9410609 47.1903621,67.7452924 48.5425466,68.3275284 C49.8947311,68.9097644 41.204538,70.2857143 37.8899314,70.2857143 C39.4102458,70.1060801 42.9207769,69.8047953 45.0218834,69.0661956 C45.2340678,68.9916067 46.0958759,68.7016734 45.6936519,68.5670525 C45.1756752,68.3936902 44.1442103,68.1700879 42.5870806,68.0121456 C39.450147,67.6939613 34.240452,67.4153867 26.9605184,67.1767436 C25.5909334,67.2264742 25.0909571,67.2100845 25.4605894,67.1275745 C24.2842175,66.5604613 30.3960625,65.4116501 39.4102458,64.397692 C40.1563041,63.9849084 37.7700224,63.6424489 32.2514007,63.3703135 C32.1733844,63.157632 32.7862396,62.9792244 34.0899663,62.8350906 C35.4749552,62.6819728 45.091148,62.336842 45.4746926,62.2377481 C45.3354455,62.2218465 45.1452204,62.2098513 44.9056543,62.2021803 Z" id="Path-3" fill="#FFFFFF" fill-rule="nonzero" opacity="0.200000003"></path>
            <path d="M44.8399177,52.7142857 C45.0367298,52.7142857 45.2083428,52.8732149 45.2232259,53.0692641 L45.7621928,60.1688312 C45.777076,60.3648803 45.6180528,60.5238095 45.4070046,60.5238095 L28.5929954,60.5238095 C28.3819472,60.5238095 28.222924,60.3648803 28.2378072,60.1688312 L28.7767741,53.0692641 C28.7916572,52.8732149 28.9632702,52.7142857 29.1600823,52.7142857 L44.8399177,52.7142857 Z M43.0268421,42.7998571 L43.7678402,51.1941871 C43.7691274,51.2087877 43.7697719,51.2234379 43.7697719,51.2380952 C43.7697719,51.5142376 43.5459142,51.7380952 43.2697719,51.7380952 L30.7302281,51.7380952 L30.68632,51.7361636 C30.4112444,51.7119138 30.20791,51.4692626 30.2321598,51.1941871 L30.3428916,49.9557987 C30.3756646,49.9128554 30.3964539,49.8610831 30.4003667,49.8045315 C30.5552921,47.5654112 31.9455537,45.8475299 34.6432631,44.5981619 C36.8213044,43.5894635 38.1284934,43.2792072 41.0510969,43.0351951 C42.0428414,42.9523931 42.500514,42.89877 43.0407417,42.7985387 L43.0268421,42.7998571 Z M42.2128421,33.5598571 L42.9148421,41.5218571 L42.76561,41.5523587 C42.3248146,41.6341418 41.9351759,41.6821103 41.1496729,41.7499535 L40.9252941,41.7689892 C37.8307399,42.0273577 36.3663756,42.3756698 34.0179235,43.4632891 C32.6302354,44.1059577 31.5252992,44.8786374 30.7093718,45.7766007 L31.4295414,37.6049611 C32.0973355,36.7214065 33.0750688,35.9668832 34.371219,35.3340261 C36.4296947,34.3289566 37.6614598,34.020739 40.4248506,33.7774968 C41.3683857,33.694444 41.8045984,33.6405478 42.3201896,33.5396951 L42.2128421,33.5598571 Z M37.6236842,36.1190476 L36.3763158,36.1190476 C36.1830161,36.1190476 36.0263158,36.275748 36.0263158,36.4690476 L36.0263158,39.6738095 C36.0263158,39.8671092 36.1830161,40.0238095 36.3763158,40.0238095 L37.6236842,40.0238095 C37.8169839,40.0238095 37.9736842,39.8671092 37.9736842,39.6738095 L37.9736842,36.4690476 C37.9736842,36.275748 37.8169839,36.1190476 37.6236842,36.1190476 Z M41.4646539,30.2619048 C41.7237792,30.2619048 41.9399668,30.4598724 41.9627223,30.7179966 L42.0998421,32.2808571 L42.0288164,32.2964257 C41.6170771,32.3769643 41.2521322,32.4245401 40.5218361,32.4912665 L40.2913746,32.511911 C37.347385,32.77105 35.9502851,33.1214041 33.7153155,34.2126484 C32.9148093,34.6035028 32.2134603,35.041993 31.612526,35.5270008 L32.0372777,30.7179966 C32.0600332,30.4598724 32.2762208,30.2619048 32.5353461,30.2619048 Z M42.4921053,27.3333333 C42.6854049,27.3333333 42.8421053,27.4900337 42.8421053,27.6833333 L42.8421053,28.9357143 C42.8421053,29.1290139 42.6854049,29.2857143 42.4921053,29.2857143 L31.5078947,29.2857143 C31.3145951,29.2857143 31.1578947,29.1290139 31.1578947,28.9357143 L31.1578947,27.6833333 C31.1578947,27.4900337 31.3145951,27.3333333 31.5078947,27.3333333 L42.4921053,27.3333333 Z M33.7289474,24.4047619 C33.922247,24.4047619 34.0789474,24.5614622 34.0789474,24.7547619 L34.0789474,26.0071429 C34.0789474,26.2004425 33.922247,26.3571429 33.7289474,26.3571429 L32.4815789,26.3571429 C32.2882793,26.3571429 32.1315789,26.2004425 32.1315789,26.0071429 L32.1315789,24.7547619 C32.1315789,24.5614622 32.2882793,24.4047619 32.4815789,24.4047619 L33.7289474,24.4047619 Z M41.5184211,24.4047619 C41.7117207,24.4047619 41.8684211,24.5614622 41.8684211,24.7547619 L41.8684211,26.0071429 C41.8684211,26.2004425 41.7117207,26.3571429 41.5184211,26.3571429 L40.2710526,26.3571429 C40.077753,26.3571429 39.9210526,26.2004425 39.9210526,26.0071429 L39.9210526,24.7547619 C39.9210526,24.5614622 40.077753,24.4047619 40.2710526,24.4047619 L41.5184211,24.4047619 Z M38.5973684,24.4047619 C38.7906681,24.4047619 38.9473684,24.5614622 38.9473684,24.7547619 L38.9473684,26.0071429 C38.9473684,26.2004425 38.7906681,26.3571429 38.5973684,26.3571429 L35.4026316,26.3571429 C35.2093319,26.3571429 35.0526316,26.2004425 35.0526316,26.0071429 L35.0526316,24.7547619 C35.0526316,24.5614622 35.2093319,24.4047619 35.4026316,24.4047619 L38.5973684,24.4047619 Z M42.4921053,21.4761905 C42.6854049,21.4761905 42.8421053,21.6328908 42.8421053,21.8261905 L42.8421053,23.0785714 C42.8421053,23.2718711 42.6854049,23.4285714 42.4921053,23.4285714 L31.5078947,23.4285714 C31.3145951,23.4285714 31.1578947,23.2718711 31.1578947,23.0785714 L31.1578947,21.8261905 C31.1578947,21.6328908 31.3145951,21.4761905 31.5078947,21.4761905 L42.4921053,21.4761905 Z M37.2240669,17.6837504 L41.8975533,20.0265084 C42.0209843,20.0883827 42.0708858,20.2386024 42.0090115,20.3620334 C41.9666179,20.446603 41.8801202,20.5 41.7855198,20.5 L32.2144802,20.5 C32.076409,20.5 31.9644802,20.3880712 31.9644802,20.25 C31.9644802,20.1553997 32.0178772,20.068902 32.1024467,20.0265084 L36.7759331,17.6837504 C36.9169481,17.6130614 37.0830519,17.6130614 37.2240669,17.6837504 Z M37,14.6428571 C37.7445782,14.6428571 38.3481781,15.2520858 38.3481781,16.0036075 C38.3481781,16.7551292 37.7445782,17.3643579 37,17.3643579 C36.2554218,17.3643579 35.6518219,16.7551292 35.6518219,16.0036075 C35.6518219,15.2520858 36.2554218,14.6428571 37,14.6428571 Z" id="Combined-Shape" fill="#FFFFFF"></path>
            <path d="M0,33.1904762 L0,19.5238095 L30.1842105,25.3809524 L30.1842105,27.3333333 L0,33.1904762 Z M43.8157895,25.3809524 L74,19.5238095 L74,33.1904762 L43.8157895,27.3333333 L43.8157895,25.3809524 Z" id="Combined-Shape" fill="#FFFFFF" opacity="0.300000012"></path>
            <path d="M0,71.0238095 C6.76353751e-16,76.546657 4.4771525,81.0238095 10,81.0238095 L64,81.0238095 C69.5228475,81.0238095 74,76.546657 74,71.0238095 L74,72 C74,77.5228475 69.5228475,82 64,82 L10,82 C4.4771525,82 6.76353751e-16,77.5228475 0,72 Z" id="Combined-Shape" fill="#002F2B"></path>
        </g>
        <g id="Guide-96" transform="translate(3, 3)"></g>
    </g>
</svg>