<?xml version="1.0" encoding="UTF-8"?>
<svg width="96px" height="96px" viewBox="0 0 96 96" version="1.1" xmlns="http://www.w3.org/2000/svg" xmlns:xlink="http://www.w3.org/1999/xlink">
    <title>apps/96/deepin-feedback</title>
    <defs>
        <filter x="-8.5%" y="-6.8%" width="117.1%" height="117.5%" filterUnits="objectBoundingBox" id="filter-1">
            <feOffset dx="0" dy="2" in="SourceAlpha" result="shadowOffsetOuter1"></feOffset>
            <feGaussianBlur stdDeviation="2" in="shadowOffsetOuter1" result="shadowBlurOuter1"></feGaussianBlur>
            <feColorMatrix values="0 0 0 0 0   0 0 0 0 0   0 0 0 0 0  0 0 0 0.2 0" type="matrix" in="shadowBlurOuter1" result="shadowMatrixOuter1"></feColorMatrix>
            <feMerge>
                <feMergeNode in="shadowMatrixOuter1"></feMergeNode>
                <feMergeNode in="SourceGraphic"></feMergeNode>
            </feMerge>
        </filter>
        <linearGradient x1="26.2221945%" y1="-2.83428276%" x2="66.9625327%" y2="83.1271258%" id="linearGradient-2">
            <stop stop-color="#90FF8A" offset="0%"></stop>
            <stop stop-color="#00B9E4" offset="100%"></stop>
        </linearGradient>
        <linearGradient x1="45.0428548%" y1="62.5297914%" x2="16.2920662%" y2="34.424013%" id="linearGradient-3">
            <stop stop-color="#FFFFFF" stop-opacity="0.493689904" offset="0%"></stop>
            <stop stop-color="#FFFFFF" offset="100%"></stop>
        </linearGradient>
        <filter x="-70.0%" y="-8.2%" width="240.0%" height="122.2%" filterUnits="objectBoundingBox" id="filter-4">
            <feOffset dx="0" dy="2" in="SourceAlpha" result="shadowOffsetOuter1"></feOffset>
            <feGaussianBlur stdDeviation="2" in="shadowOffsetOuter1" result="shadowBlurOuter1"></feGaussianBlur>
            <feColorMatrix values="0 0 0 0 0   0 0 0 0 0   0 0 0 0 0  0 0 0 0.2 0" type="matrix" in="shadowBlurOuter1" result="shadowMatrixOuter1"></feColorMatrix>
            <feMerge>
                <feMergeNode in="shadowMatrixOuter1"></feMergeNode>
                <feMergeNode in="SourceGraphic"></feMergeNode>
            </feMerge>
        </filter>
        <linearGradient x1="0%" y1="33.6657382%" x2="80.8543308%" y2="33.6657382%" id="linearGradient-5">
            <stop stop-color="#E6D049" offset="0%"></stop>
            <stop stop-color="#EC9500" offset="100%"></stop>
        </linearGradient>
        <linearGradient x1="0%" y1="55.5194719%" x2="89.2960607%" y2="55.5194719%" id="linearGradient-6">
            <stop stop-color="#F6F6F6" offset="0%"></stop>
            <stop stop-color="#747474" offset="100%"></stop>
        </linearGradient>
        <linearGradient x1="-3.43735564%" y1="31.9323285%" x2="86.2048159%" y2="31.9323285%" id="linearGradient-7">
            <stop stop-color="#5E5E5E" offset="0%"></stop>
            <stop stop-color="#373737" offset="100%"></stop>
        </linearGradient>
        <linearGradient x1="2.51622794%" y1="32.9393596%" x2="88.8544543%" y2="32.9393596%" id="linearGradient-8">
            <stop stop-color="#FFEACA" offset="0%"></stop>
            <stop stop-color="#E07431" offset="100%"></stop>
        </linearGradient>
    </defs>
    <g id="apps/96/deepin-feedback" stroke="none" stroke-width="1" fill="none" fill-rule="evenodd">
        <g id="编组" filter="url(#filter-1)" transform="translate(7, 16)">
            <path d="M11.25,0 L70.75,0 C76.9632034,-1.14134695e-15 82,5.03679656 82,11.25 L82,49.75 C82,55.9632034 76.9632034,61 70.75,61 L23.7330947,61 C23.2617384,61 22.8076737,61.1775319 22.4613195,61.4972435 L11.5733876,71.5476422 C11.1929307,71.8988332 10.5998128,71.8751085 10.2486218,71.4946516 C10.088766,71.3214745 10,71.0944421 10,70.858764 L10,61 L10,61 C4.4771525,61 6.76353751e-16,56.5228475 0,51 L0,11.25 C-7.6089797e-16,5.03679656 5.03679656,4.69406063e-15 11.25,3.55271368e-15 Z" id="矩形" fill="url(#linearGradient-2)"></path>
            <path d="M19.25,18 L62.75,18 C63.9926407,18 65,19.0073593 65,20.25 L65,20.75 C65,21.9926407 63.9926407,23 62.75,23 L19.25,23 C18.0073593,23 17,21.9926407 17,20.75 L17,20.25 C17,19.0073593 18.0073593,18 19.25,18 Z M19.25,29 L62.75,29 C63.9926407,29 65,30.0073593 65,31.25 L65,31.75 C65,32.9926407 63.9926407,34 62.75,34 L19.25,34 C18.0073593,34 17,32.9926407 17,31.75 L17,31.25 C17,30.0073593 18.0073593,29 19.25,29 Z M19.25,40 L62.75,40 C63.9926407,40 65,41.0073593 65,42.25 L65,42.75 C65,43.9926407 63.9926407,45 62.75,45 L19.25,45 C18.0073593,45 17,43.9926407 17,42.75 L17,42.25 C17,41.0073593 18.0073593,40 19.25,40 Z" id="形状结合" fill="url(#linearGradient-3)" fill-rule="nonzero"></path>
        </g>
        <g id="编组-2" filter="url(#filter-4)" transform="translate(71, 5)">
            <path d="M1.875,0 L8.125,0 C9.16053391,-1.90224492e-16 10,0.839466094 10,1.875 L10,7 L10,7 L0,7 L0,1.875 C-1.26816328e-16,0.839466094 0.839466094,1.90224492e-16 1.875,0 Z" id="矩形" fill="url(#linearGradient-5)"></path>
            <rect id="矩形" fill="url(#linearGradient-6)" x="0" y="9" width="10" height="4"></rect>
            <rect id="矩形" fill="url(#linearGradient-7)" x="0" y="15" width="10" height="30"></rect>
            <polygon id="路径-8" fill="url(#linearGradient-8)" points="0 47 10 47 9 53 1 53"></polygon>
            <path d="M2,55 L8,55 L5.3354102,60.3291796 C5.24278923,60.5144215 5.01753684,60.5895057 4.8322949,60.4968847 C4.75972213,60.4605983 4.70087619,60.4017524 4.6645898,60.3291796 L2,55 L2,55 Z" id="路径-9" fill="#312F2F"></path>
        </g>
        <g id="Guide-96" transform="translate(3, 3)"></g>
    </g>
</svg>