<svg xmlns="http://www.w3.org/2000/svg" xmlns:xlink="http://www.w3.org/1999/xlink" width="96" height="96" viewBox="0 0 96 96">
  <defs>
    <filter id="voice-note-a" width="131.6%" height="128.6%" x="-15.8%" y="-14.3%" filterUnits="objectBoundingBox">
      <feOffset dy="2" in="SourceAlpha" result="shadowOffsetOuter1"/>
      <feGaussianBlur in="shadowOffsetOuter1" result="shadowBlurOuter1" stdDeviation="2"/>
      <feComposite in="shadowBlurOuter1" in2="SourceAlpha" operator="out" result="shadowBlurOuter1"/>
      <feColorMatrix in="shadowBlurOuter1" result="shadowMatrixOuter1" values="0 0 0 0 0   0 0 0 0 0   0 0 0 0 0  0 0 0 0.2 0"/>
      <feMerge>
        <feMergeNode in="shadowMatrixOuter1"/>
        <feMergeNode in="SourceGraphic"/>
      </feMerge>
    </filter>
    <linearGradient id="voice-note-d" x1="50%" x2="50%" y1="0%" y2="100%">
      <stop offset="0%" stop-color="#FD5E5E"/>
      <stop offset="100%" stop-color="#ED5656"/>
    </linearGradient>
    <circle id="voice-note-c" cx="23.5" cy="23.5" r="23.5"/>
    <filter id="voice-note-b" width="146.8%" height="146.8%" x="-23.4%" y="-14.9%" filterUnits="objectBoundingBox">
      <feOffset dy="4" in="SourceAlpha" result="shadowOffsetOuter1"/>
      <feGaussianBlur in="shadowOffsetOuter1" result="shadowBlurOuter1" stdDeviation="3"/>
      <feColorMatrix in="shadowBlurOuter1" values="0 0 0 0 0.97254902   0 0 0 0 0.17254902   0 0 0 0 0.277440324  0 0 0 0.4 0"/>
    </filter>
    <linearGradient id="voice-note-e" x1="50%" x2="50%" y1="41.436%" y2="100%">
      <stop offset="0%" stop-color="#FFF"/>
      <stop offset="34.088%" stop-color="#FFF"/>
      <stop offset="62.702%" stop-color="#F3F3F3"/>
      <stop offset="100%" stop-color="#FFF"/>
    </linearGradient>
  </defs>
  <g fill="none" fill-rule="evenodd">
    <g filter="url(#voice-note-a)" transform="translate(10 6)">
      <rect width="76" height="84" fill="#FFF" rx="10"/>
      <path fill="#000" fill-opacity=".1" d="M13,0 L13,5 L68,5 L68,6 L13,6 L13,11 L68,11 L68,12 L13,12 L13,17 L68,17 L68,18 L13,18 L13,23 L68,23 L68,24 L13,24 L13,29 L68,29 L68,30 L13,30 L13,35 L68,35 L68,36 L13,36 L13,41 L68,41 L68,42 L13,42 L13,47 L68,47 L68,48 L13,48 L13,53 L68,53 L68,54 L13,54 L13,59 L68,59 L68,60 L13,60 L13,65 L68,65 L68,66 L13,66 L13,71 L68,71 L68,72 L13,72 L13,77 L68,77 L68,78 L13,78 L13,84 L12,84 L12,78 L6,78 L6,77 L12,77 L12,72 L6,72 L6,71 L12,71 L12,66 L6,66 L6,65 L12,65 L12,60 L6,60 L6,59 L12,59 L12,54 L6,54 L6,53 L12,53 L12,48 L6,48 L6,47 L12,47 L12,42 L6,42 L6,41 L12,41 L12,36 L6,36 L6,35 L12,35 L12,30 L6,30 L6,29 L12,29 L12,24 L6,24 L6,23 L12,23 L12,18 L6,18 L6,17 L12,17 L12,12 L6,12 L6,11 L12,11 L12,6 L6,6 L6,5 L12,5 L12,0 L13,0 Z"/>
    </g>
    <g transform="translate(25 24)">
      <use fill="#000" filter="url(#voice-note-b)" xlink:href="#voice-note-c"/>
      <use fill="url(#voice-note-d)" xlink:href="#voice-note-c"/>
      <path fill="url(#voice-note-e)" d="M31,25.531248 L31,24.031248 L30,24.031248 L30,25.531248 C30,26.427088 29.828128,27.26562 29.484376,28.046876 C29.140624,28.828128 28.671876,29.515624 28.078124,30.109376 C27.484372,30.703128 26.791672,31.166664 26,31.5 C25.208328,31.833336 24.364588,32 23.468752,32 L23.468752,32 C22.572912,32 21.73438,31.833336 20.953124,31.5 C20.171872,31.166664 19.484378,30.703128 18.8906248,30.109376 C18.296872,29.515624 17.8333348,28.828128 17.5,28.046876 C17.1666652,27.26562 17,26.427088 17,25.531248 L17,24.031248 L16,24.031248 L16,25.531248 C16,26.468756 16.166665,27.359372 16.5,28.203124 C16.8333348,29.04688 17.2864556,29.791664 17.8593752,30.4375 C18.4322944,31.083336 19.1093712,31.624996 19.8906248,32.0625 C20.67188,32.500004 21.510412,32.781248 22.406248,32.906248 L22.406248,35.90625 C20.989576,36.0312508 19.8072964,36.2968728 18.8593752,36.7031248 C17.9114536,37.1093772 17.4375,37.531248 17.4375,37.96875 C17.4375,37.9895834 18.0781184,38 19.3593752,38 L23.578124,38 L27.796876,38 C29.078132,38 29.718752,37.9895834 29.718752,37.96875 C29.718752,37.5104144 29.20834,37.0729188 28.1875,36.65625 C27.16666,36.2395812 25.906256,35.9895836 24.406248,35.90625 L24.406248,32.906248 C25.32292,32.802084 26.182288,32.53646 26.984376,32.109376 C27.786464,31.682288 28.484372,31.140628 29.078124,30.484376 C29.671876,29.82812 30.140624,29.078128 30.484376,28.234376 C30.828128,27.39062 31,26.489588 31,25.531248 Z M23.468752,30.9375 C24.989592,30.9375 26.29166,30.406256 27.375,29.343752 C28.45834,28.281244 29,26.989592 29,25.468752 L29,24.031248 L18,24.031248 L18,25.468752 C18,26.989592 18.5312448,28.281244 19.59375,29.343752 C20.656256,30.406256 21.947908,30.9375 23.468752,30.9375 Z M23.468752,9 C24.989592,9 26.29166,9.536452 27.375,10.609376 C28.3906313,11.6152385 28.9301766,12.8087721 28.9936524,14.1900031 L29,14.468752 L29,19 L25,19 L25,20 L29,20 L29,21 L25,21 L25,22 L29,22 L29,23.0625 L18,23.0625 L18,22 L22,22 L22,21 L18,21 L18,20 L22,20 L22,19 L18,19 L18,14.468752 C18,12.968744 18.5312448,11.682296 19.59375,10.609376 C20.656256,9.536452 21.947908,9 23.468752,9 Z M28,17 L27,17 L27,18 L28,18 L28,17 Z M26,17 L25,17 L25,18 L26,18 L26,17 Z M24,17 L23,17 L23,18 L24,18 L24,17 Z M22,17 L21,17 L21,18 L22,18 L22,17 Z M20,17 L19,17 L19,18 L20,18 L20,17 Z M28,15 L27,15 L27,16 L28,16 L28,15 Z M26,15 L25,15 L25,16 L26,16 L26,15 Z M24,15 L23,15 L23,16 L24,16 L24,15 Z M22,15 L21,15 L21,16 L22,16 L22,15 Z M20,15 L19,15 L19,16 L20,16 L20,15 Z M21,13 L20,13 L20,14 L21,14 L21,13 Z M23,13 L22,13 L22,14 L23,14 L23,13 Z M25,13 L24,13 L24,14 L25,14 L25,13 Z M27,13 L26,13 L26,14 L27,14 L27,13 Z M22,11 L21,11 L21,12 L22,12 L22,11 Z M24,11 L23,11 L23,12 L24,12 L24,11 Z M26,11 L25,11 L25,12 L26,12 L26,11 Z"/>
    </g>
  </g>
</svg>
