<?xml version="1.0" encoding="UTF-8"?>
<svg width="96px" height="96px" viewBox="0 0 96 96" version="1.1" xmlns="http://www.w3.org/2000/svg" xmlns:xlink="http://www.w3.org/1999/xlink">
    <title>apps/96/deepin-music</title>
    <defs>
        <filter x="-8.3%" y="-6.4%" width="116.7%" height="117.9%" filterUnits="objectBoundingBox" id="filter-1">
            <feOffset dx="0" dy="2" in="SourceAlpha" result="shadowOffsetOuter1"></feOffset>
            <feGaussianBlur stdDeviation="2" in="shadowOffsetOuter1" result="shadowBlurOuter1"></feGaussianBlur>
            <feColorMatrix values="0 0 0 0 0   0 0 0 0 0   0 0 0 0 0  0 0 0 0.2 0" type="matrix" in="shadowBlurOuter1" result="shadowMatrixOuter1"></feColorMatrix>
            <feMerge>
                <feMergeNode in="shadowMatrixOuter1"></feMergeNode>
                <feMergeNode in="SourceGraphic"></feMergeNode>
            </feMerge>
        </filter>
        <linearGradient x1="97.6822857%" y1="38.451407%" x2="0.347825031%" y2="41.8451878%" id="linearGradient-2">
            <stop stop-color="#0BA186" offset="0%"></stop>
            <stop stop-color="#68C639" offset="100%"></stop>
        </linearGradient>
        <linearGradient x1="2.38830155%" y1="41.8127676%" x2="96.6170713%" y2="34.7143176%" id="linearGradient-3">
            <stop stop-color="#417944" stop-opacity="0.381085824" offset="0%"></stop>
            <stop stop-color="#002A35" offset="100%"></stop>
        </linearGradient>
        <linearGradient x1="2.38830155%" y1="41.8127676%" x2="99.652175%" y2="34.4856769%" id="linearGradient-4">
            <stop stop-color="#417944" stop-opacity="0.381085824" offset="0%"></stop>
            <stop stop-color="#002A35" offset="96.8795159%"></stop>
        </linearGradient>
        <linearGradient x1="2.38830155%" y1="41.8127676%" x2="99.652175%" y2="34.4856769%" id="linearGradient-5">
            <stop stop-color="#417944" stop-opacity="0.381085824" offset="0%"></stop>
            <stop stop-color="#002A35" offset="96.8795159%"></stop>
        </linearGradient>
        <linearGradient x1="2.38830155%" y1="41.8127676%" x2="99.652175%" y2="34.4856769%" id="linearGradient-6">
            <stop stop-color="#417944" stop-opacity="0.381085824" offset="0%"></stop>
            <stop stop-color="#002A35" offset="96.8795159%"></stop>
        </linearGradient>
        <linearGradient x1="2.38830155%" y1="41.8127676%" x2="99.652175%" y2="34.4856769%" id="linearGradient-7">
            <stop stop-color="#417944" stop-opacity="0.381085824" offset="0%"></stop>
            <stop stop-color="#002A35" offset="96.8795159%"></stop>
        </linearGradient>
        <linearGradient x1="2.38830155%" y1="41.8127676%" x2="99.652175%" y2="34.4856769%" id="linearGradient-8">
            <stop stop-color="#0C360D" stop-opacity="0.381085824" offset="0%"></stop>
            <stop stop-color="#000000" offset="100%"></stop>
        </linearGradient>
        <linearGradient x1="2.38830155%" y1="41.8127676%" x2="99.652175%" y2="34.4856769%" id="linearGradient-9">
            <stop stop-color="#0C360D" stop-opacity="0.381085824" offset="0%"></stop>
            <stop stop-color="#000000" offset="100%"></stop>
        </linearGradient>
        <linearGradient x1="50%" y1="0%" x2="50%" y2="98.0310694%" id="linearGradient-10">
            <stop stop-color="#8DF34C" offset="0%"></stop>
            <stop stop-color="#00CCB3" offset="100%"></stop>
        </linearGradient>
        <linearGradient x1="50%" y1="0%" x2="50%" y2="98.0310694%" id="linearGradient-11">
            <stop stop-color="#8DF34C" offset="0%"></stop>
            <stop stop-color="#00CCB3" offset="100%"></stop>
        </linearGradient>
        <linearGradient x1="50%" y1="0%" x2="50%" y2="100%" id="linearGradient-12">
            <stop stop-color="#FFFFFF" offset="0%"></stop>
            <stop stop-color="#FFFFFF" stop-opacity="0.7" offset="100%"></stop>
        </linearGradient>
        <path d="M51.9008279,21.3386093 C51.9668055,21.6969745 52,22.060605 52,22.424993 L52,51.3658537 C52,55.5686059 48.5810835,58.9756098 44.3636364,58.9756098 C40.1461892,58.9756098 36.7272727,55.5686059 36.7272727,51.3658537 C36.7272727,47.1631014 40.1461892,43.7560976 44.3636364,43.7560976 C45.6799327,43.7560976 46.9184434,44.0879772 47.9995015,44.6723474 L48,25.9492407 C48,24.8446712 47.1045695,23.9492407 46,23.9492407 C45.8772447,23.9492407 45.7547501,23.9605423 45.634067,23.9830024 L26.634067,27.5190575 C25.6868871,27.6953354 25,28.5218522 25,29.4852958 L25,58.9756098 C25,63.178362 21.5810835,66.5853659 17.3636364,66.5853659 C13.1461892,66.5853659 9.72727273,63.178362 9.72727273,58.9756098 C9.72727273,54.7728575 13.1461892,51.3658537 17.3636364,51.3658537 C18.6799327,51.3658537 19.9184434,51.6977333 20.9995015,52.2821035 L21,25.923026 C21,23.0283195 23.0667553,20.5463251 25.9136163,20.0221981 L44.9136163,16.5241651 C48.1725535,15.9241719 51.3008348,18.079672 51.9008279,21.3386093 Z" id="path-13"></path>
        <filter x="-8.3%" y="-5.0%" width="116.6%" height="114.0%" filterUnits="objectBoundingBox" id="filter-14">
            <feOffset dx="0" dy="1" in="SourceAlpha" result="shadowOffsetOuter1"></feOffset>
            <feGaussianBlur stdDeviation="1" in="shadowOffsetOuter1" result="shadowBlurOuter1"></feGaussianBlur>
            <feColorMatrix values="0 0 0 0 0   0 0 0 0 0   0 0 0 0 0  0 0 0 0.1 0" type="matrix" in="shadowBlurOuter1"></feColorMatrix>
        </filter>
    </defs>
    <g id="apps/96/deepin-music" stroke="none" stroke-width="1" fill="none" fill-rule="evenodd">
        <g id="6-music" filter="url(#filter-1)" transform="translate(7, 9)">
            <ellipse id="circle13330" stroke="url(#linearGradient-2)" stroke-width="2" fill="#151E25" transform="translate(49.6364, 39.9512) rotate(-270) translate(-49.6364, -39.9512)" cx="49.6363636" cy="39.9512195" rx="33.2439024" ry="33.3636364"></ellipse>
            <g id="Group" opacity="0.800000012" transform="translate(19.0909, 9.5122)">
                <path d="M30.5454545,8.02993348 C36.7113127,8.02993348 42.2933701,10.5380136 46.3340151,14.5927867 C50.3752906,18.6481926 52.8747228,24.2507246 52.8747228,30.4390244 C52.8747228,36.687152 50.5380094,42.3403245 46.6332497,46.4066019 C42.8074134,50.3906912 37.4767573,52.8481153 31.3756098,52.8481153 C25.1474902,52.8481153 19.3081494,50.2908977 15.0498002,46.1675974 C10.8730725,42.12333 8.21618625,36.5697896 8.21618625,30.4390244 C8.21618625,24.2507246 10.7156185,18.6481926 14.756894,14.5927867 C18.797539,10.5380136 24.3795964,8.02993348 30.5454545,8.02993348 Z" id="circle13330" stroke="url(#linearGradient-3)" transform="translate(30.5455, 30.439) rotate(-270) translate(-30.5455, -30.439)"></path>
                <path d="M30.5454545,6.12084257 C37.2366567,6.12084257 43.2943239,8.84260492 47.6792426,13.2428556 C52.0647919,17.6437389 54.7771619,23.7235437 54.7771619,30.4390244 C54.7771619,37.219213 52.2411668,43.35361 48.0039529,47.7660932 C43.851761,52.0900376 38.0664179,54.7572062 31.4447894,54.7572062 C24.6866363,54.7572062 18.3502831,51.9824745 13.7295114,47.5082454 C9.19677418,43.119259 6.31374723,37.0922647 6.31374723,30.4390244 C6.31374723,23.7235437 9.02611717,17.6437389 13.4116665,13.2428556 C17.7965852,8.84260492 23.8542524,6.12084257 30.5454545,6.12084257 Z" id="circle13330" stroke="url(#linearGradient-4)" transform="translate(30.5455, 30.439) rotate(-270) translate(-30.5455, -30.439)"></path>
                <path d="M30.5454545,4.21175166 C37.7620007,4.21175166 44.2952777,7.14719629 49.0244702,11.8929244 C53.7542932,16.6392853 56.6796009,23.1963628 56.6796009,30.4390244 C56.6796009,37.7512739 53.9443241,44.3668954 49.3746561,49.1255845 C44.8961086,53.789384 38.6560785,56.6662971 31.513969,56.6662971 C24.2257824,56.6662971 17.3924169,53.6740512 12.4092226,48.8488935 C7.52047582,44.1151879 4.4113082,37.6147397 4.4113082,30.4390244 C4.4113082,23.1963628 7.33661589,16.6392853 12.0664389,11.8929244 C16.7956314,7.14719629 23.3289084,4.21175166 30.5454545,4.21175166 Z" id="circle13330" stroke="url(#linearGradient-5)" transform="translate(30.5455, 30.439) rotate(-270) translate(-30.5455, -30.439)"></path>
                <path d="M30.5454545,2.30266075 C38.2873447,2.30266075 45.2962314,5.45178766 50.3696977,10.5429933 C55.4437945,15.6348317 58.5820399,22.6691819 58.5820399,30.4390244 C58.5820399,38.2833349 55.6474814,45.3801809 50.7453593,50.4850759 C45.9404562,55.4887303 39.2457391,58.575388 31.5831486,58.575388 C23.7649285,58.575388 16.4345506,55.365628 11.0889338,50.1895415 C5.84417747,45.1111169 2.50886918,38.1372148 2.50886918,30.4390244 C2.50886918,22.6691819 5.6471146,15.6348317 10.7212114,10.5429933 C15.7946776,5.45178766 22.8035643,2.30266075 30.5454545,2.30266075 Z" id="circle13330" stroke="url(#linearGradient-6)" transform="translate(30.5455, 30.439) rotate(-270) translate(-30.5455, -30.439)"></path>
                <path d="M30.5454545,0.393569845 C38.8126888,0.393569845 46.2971852,3.75637903 51.7149252,9.19306218 C57.1332958,14.6303781 60.4844789,22.142001 60.4844789,30.4390244 C60.4844789,38.8153958 57.3506388,46.3934664 52.1160625,51.8445672 C46.9848039,57.1880767 39.8353997,60.4844789 31.6523282,60.4844789 C23.3040746,60.4844789 15.4766843,57.0572047 9.76864493,51.5301895 C4.16787912,46.1070458 0.606430155,38.6596898 0.606430155,30.4390244 C0.606430155,22.142001 3.95761332,14.6303781 9.37598386,9.19306218 C14.7937239,3.75637903 22.2782203,0.393569845 30.5454545,0.393569845 Z" id="circle13330" stroke="url(#linearGradient-7)" transform="translate(30.5455, 30.439) rotate(-270) translate(-30.5455, -30.439)"></path>
                <path d="M30.5454545,11.8481153 C35.6606246,11.8481153 40.2914625,13.9288308 43.64356,17.2926489 C46.9962881,20.6570998 49.0698448,25.3050864 49.0698448,30.4390244 C49.0698448,35.5729623 46.9962881,40.220949 43.64356,43.5853998 C40.2914625,46.949218 35.6606246,49.0299335 30.5454545,49.0299335 C25.4302845,49.0299335 20.7994466,46.949218 17.4473491,43.5853998 C14.094621,40.220949 12.0210643,35.5729623 12.0210643,30.4390244 C12.0210643,25.3050864 14.094621,20.6570998 17.4473491,17.2926489 C20.7994466,13.9288308 25.4302845,11.8481153 30.5454545,11.8481153 Z" id="circle13330" stroke="url(#linearGradient-8)" transform="translate(30.5455, 30.439) rotate(-270) translate(-30.5455, -30.439)"></path>
                <path d="M30.5454545,9.93902439 C36.1859686,9.93902439 41.2924163,12.2334222 44.9887876,15.9427178 C48.6857894,19.6526462 50.9722838,24.7779055 50.9722838,30.4390244 C50.9722838,36.1001432 48.6857894,41.2254026 44.9887876,44.935331 C41.2924163,48.6446266 36.1859686,50.9390244 30.5454545,50.9390244 C24.9049405,50.9390244 19.7984928,48.6446266 16.1021215,44.935331 C12.4051197,41.2254026 10.1186253,36.1001432 10.1186253,30.4390244 C10.1186253,24.7779055 12.4051197,19.6526462 16.1021215,15.9427178 C19.7984928,12.2334222 24.9049405,9.93902439 30.5454545,9.93902439 Z" id="circle13330" stroke="url(#linearGradient-9)" transform="translate(30.5455, 30.439) rotate(-270) translate(-30.5455, -30.439)"></path>
            </g>
            <ellipse id="circle13353" fill="url(#linearGradient-10)" transform="translate(50.5909, 40.9024) rotate(-270) translate(-50.5909, -40.9024)" cx="50.5909091" cy="40.902439" rx="16.1707317" ry="16.2272727"></ellipse>
            <ellipse id="circle13353" fill="#2A2A29" transform="translate(50.5909, 40.9024) rotate(-270) translate(-50.5909, -40.9024)" cx="50.5909091" cy="40.902439" rx="10.4634146" ry="10.5"></ellipse>
            <path d="M12.819426,-5.17920154e-16 L58.180574,5.17920154e-16 C62.6381677,-3.00926524e-16 64.2545989,0.464128056 65.8842285,1.33566352 C67.5138581,2.20719898 68.792801,3.48614185 69.6643365,5.11577148 C70.5358719,6.74540111 71,8.3618323 71,12.819426 L71,65.180574 C71,69.6381677 70.5358719,71.2545989 69.6643365,72.8842285 C68.792801,74.5138581 67.5138581,75.792801 65.8842285,76.6643365 C64.2545989,77.5358719 62.6381677,78 58.180574,78 L12.819426,78 C8.3618323,78 6.74540111,77.5358719 5.11577148,76.6643365 C3.48614185,75.792801 2.20719898,74.5138581 1.33566352,72.8842285 C0.464128056,71.2545989 3.75333136e-15,69.6381677 3.20743358e-15,65.180574 L3.45280103e-16,12.819426 C-2.00617683e-16,8.3618323 0.464128056,6.74540111 1.33566352,5.11577148 C2.20719898,3.48614185 3.48614185,2.20719898 5.11577148,1.33566352 C6.74540111,0.464128056 8.3618323,3.00926524e-16 12.819426,-5.17920154e-16 Z" id="Rectangle" fill="url(#linearGradient-11)"></path>
            <g id="路径">
                <use fill="black" fill-opacity="1" filter="url(#filter-14)" xlink:href="#path-13"></use>
                <use fill="url(#linearGradient-12)" fill-rule="evenodd" xlink:href="#path-13"></use>
            </g>
            <path d="M51.9008279,21.3386093 C51.9668055,21.6969745 52,22.060605 52,22.424993 L52,51.3658537 C52,55.5686059 48.5810835,58.9756098 44.3636364,58.9756098 C40.1461892,58.9756098 36.7272727,55.5686059 36.7272727,51.3658537 C36.7272727,47.1631014 40.1461892,43.7560976 44.3636364,43.7560976 C45.6799327,43.7560976 46.9184434,44.0879772 47.9995015,44.6723474 L48,25.9492407 C48,24.8446712 47.1045695,23.9492407 46,23.9492407 C45.8772447,23.9492407 45.7547501,23.9605423 45.634067,23.9830024 L26.634067,27.5190575 C25.6868871,27.6953354 25,28.5218522 25,29.4852958 L25,58.9756098 C25,63.178362 21.5810835,66.5853659 17.3636364,66.5853659 C13.1461892,66.5853659 9.72727273,63.178362 9.72727273,58.9756098 C9.72727273,54.7728575 13.1461892,51.3658537 17.3636364,51.3658537 C18.6799327,51.3658537 19.9184434,51.6977333 20.9995015,52.2821035 L21,25.923026 C21,23.0283195 23.0667553,20.5463251 25.9136163,20.0221981 L44.9136163,16.5241651 C48.1725535,15.9241719 51.3008348,18.079672 51.9008279,21.3386093 Z M45.0946802,17.5076364 L26.0946802,21.0056694 C23.7222961,21.442442 22,23.5107706 22,25.923045 L21.9994698,53.9593893 L20.5239754,53.1618051 C19.5621979,52.6419125 18.4840928,52.3658537 17.3636364,52.3658537 C13.6976941,52.3658537 10.7272727,55.3259251 10.7272727,58.9756098 C10.7272727,62.6252944 13.6976941,65.5853659 17.3636364,65.5853659 C21.0295786,65.5853659 24,62.6252944 24,58.9756098 L24,29.4852958 C24,28.0401303 25.0303306,26.8003552 26.4511005,26.5359384 L45.4511005,22.9998832 C45.6321251,22.9661931 45.8158671,22.9492407 46,22.9492407 C47.6568542,22.9492407 49,24.2923864 49,25.9492673 L48.9994569,46.3496262 L47.5239754,45.552049 C46.5621979,45.0321564 45.4840928,44.7560976 44.3636364,44.7560976 C40.6976941,44.7560976 37.7272727,47.716169 37.7272727,51.3658537 C37.7272727,55.0155383 40.6976941,57.9756098 44.3636364,57.9756098 C48.0295786,57.9756098 51,55.0155383 51,51.3658537 L51,22.424993 C51,22.1213363 50.9723379,21.8183109 50.9173566,21.5196732 C50.4173623,18.8038921 47.8104613,17.0076421 45.0946802,17.5076364 Z" id="Combined-Shape" fill-opacity="0.3" fill="#FFFFFF" fill-rule="nonzero"></path>
        </g>
        <g id="Guide-96" transform="translate(3, 3)"></g>
    </g>
</svg>