<?xml version="1.0" encoding="UTF-8"?>
<svg width="96px" height="96px" viewBox="0 0 96 96" version="1.1" xmlns="http://www.w3.org/2000/svg" xmlns:xlink="http://www.w3.org/1999/xlink">
    <title>apps/96/deepin-home</title>
    <defs>
        <filter x="-9.0%" y="-6.4%" width="117.9%" height="117.9%" filterUnits="objectBoundingBox" id="filter-1">
            <feOffset dx="0" dy="2" in="SourceAlpha" result="shadowOffsetOuter1"></feOffset>
            <feGaussianBlur stdDeviation="2" in="shadowOffsetOuter1" result="shadowBlurOuter1"></feGaussianBlur>
            <feColorMatrix values="0 0 0 0 0   0 0 0 0 0   0 0 0 0 0  0 0 0 0.2 0" type="matrix" in="shadowBlurOuter1" result="shadowMatrixOuter1"></feColorMatrix>
            <feMerge>
                <feMergeNode in="shadowMatrixOuter1"></feMergeNode>
                <feMergeNode in="SourceGraphic"></feMergeNode>
            </feMerge>
        </filter>
        <linearGradient x1="90.5122934%" y1="5.77589626%" x2="0%" y2="69.0145807%" id="linearGradient-2">
            <stop stop-color="#0AB4FF" offset="0%"></stop>
            <stop stop-color="#0A51D0" offset="100%"></stop>
        </linearGradient>
        <path d="M6.75,0 L42.3044003,0 C46.0323224,2.62625175e-15 49.0544003,3.02207794 49.0544003,6.75 L49.0544003,28.25 C49.0544003,31.9779221 46.0323224,35 42.3044003,35 L12.5675229,35 C12.089721,35 11.6299435,35.1824089 11.2820964,35.5099712 L3.79251179,42.5627968 C2.88785025,43.4147026 1.46387112,43.3719355 0.611965388,42.467274 C0.218890694,42.0498574 2.29066268e-15,41.4981245 2.22044605e-15,40.9247622 L-8.8817842e-16,6.75 C-1.3447172e-15,3.02207794 3.02207794,-2.03370247e-16 6.75,-8.8817842e-16 Z" id="path-3"></path>
        <filter x="-11.2%" y="-7.6%" width="122.4%" height="117.4%" filterUnits="objectBoundingBox" id="filter-4">
            <feOffset dx="0" dy="2" in="SourceAlpha" result="shadowOffsetOuter1"></feOffset>
            <feGaussianBlur stdDeviation="1.5" in="shadowOffsetOuter1" result="shadowBlurOuter1"></feGaussianBlur>
            <feColorMatrix values="0 0 0 0 0   0 0 0 0 0.0350400191   0 0 0 0 0.298035553  0 0 0 0.16 0" type="matrix" in="shadowBlurOuter1"></feColorMatrix>
        </filter>
        <linearGradient x1="0%" y1="8.96777505%" x2="50%" y2="91.0322249%" id="linearGradient-5">
            <stop stop-color="#77FFB0" offset="0%"></stop>
            <stop stop-color="#00BBE2" offset="100%"></stop>
        </linearGradient>
        <path d="M22.75,15 L54.25,15 C57.9779221,15 61,18.0220779 61,21.75 L61,40.25 C61,43.9779221 57.9779221,47 54.25,47 L28.5597096,47 C28.1607304,47 27.7721528,47.127269 27.45048,47.3633007 L19.5810755,53.1375817 C18.5792094,53.8727144 17.1710936,53.6564843 16.4359609,52.6546181 C16.1527228,52.2686107 16,51.8023177 16,51.3235426 L16,21.75 C16,18.0220779 19.0220779,15 22.75,15 Z" id="path-6"></path>
        <filter x="-12.2%" y="-8.6%" width="124.4%" height="121.6%" filterUnits="objectBoundingBox" id="filter-7">
            <feOffset dx="0" dy="2" in="SourceAlpha" result="shadowOffsetOuter1"></feOffset>
            <feGaussianBlur stdDeviation="1.5" in="shadowOffsetOuter1" result="shadowBlurOuter1"></feGaussianBlur>
            <feColorMatrix values="0 0 0 0 0.0705882353   0 0 0 0 0.235294118   0 0 0 0 0.180392157  0 0 0 0.152043269 0" type="matrix" in="shadowBlurOuter1"></feColorMatrix>
        </filter>
        <linearGradient x1="116.402454%" y1="-8.6308299%" x2="-38.6863965%" y2="99.6706459%" id="linearGradient-8">
            <stop stop-color="#0037E8" offset="0%"></stop>
            <stop stop-color="#00C8F8" offset="100%"></stop>
        </linearGradient>
        <linearGradient x1="50%" y1="0%" x2="50%" y2="147.589253%" id="linearGradient-9">
            <stop stop-color="#FFFFFF" offset="0%"></stop>
            <stop stop-color="#FFFFFF" stop-opacity="0.558416193" offset="100%"></stop>
        </linearGradient>
    </defs>
    <g id="apps/96/deepin-home" stroke="none" stroke-width="1" fill="none" fill-rule="evenodd">
        <g id="编组" filter="url(#filter-1)" transform="translate(9, 9)">
            <rect id="矩形" fill="#F1FDFF" x="0" y="0" width="78" height="78" rx="15"></rect>
            <g id="编组-2" transform="translate(9, 14)">
                <g id="矩形" opacity="0.85999814" fill-rule="nonzero">
                    <use fill="black" fill-opacity="1" filter="url(#filter-4)" xlink:href="#path-3"></use>
                    <use fill="url(#linearGradient-2)" xlink:href="#path-3"></use>
                </g>
                <g id="矩形" transform="translate(38.5, 35.3826) scale(-1, 1) translate(-38.5, -35.3826)">
                    <use fill="black" fill-opacity="1" filter="url(#filter-7)" xlink:href="#path-6"></use>
                    <use fill="url(#linearGradient-5)" fill-rule="evenodd" xlink:href="#path-6"></use>
                </g>
                <path d="M49.054,15 L49.0544003,28.25 C49.0544003,31.9779221 46.0323224,35 42.3044003,35 L16,35 L16,21.75 C16,18.1013954 18.894847,15.1289186 22.5130284,15.0040819 L22.75,15 L49.054,15 Z" id="形状结合" fill="url(#linearGradient-8)" fill-rule="nonzero" opacity="0.85999814"></path>
                <polygon id="路径-11" fill="url(#linearGradient-9)" fill-rule="nonzero" points="46 19.9756098 46 27 42 27 42 24 39 24 39 19.9756098"></polygon>
            </g>
        </g>
        <g id="Guide/96" transform="translate(3, 3)"></g>
    </g>
</svg>