<?xml version="1.0" encoding="UTF-8"?>
<svg width="96px" height="96px" viewBox="0 0 96 96" version="1.1" xmlns="http://www.w3.org/2000/svg" xmlns:xlink="http://www.w3.org/1999/xlink">
    <title>apps/96/deepin-diskmanager</title>
    <defs>
        <filter x="-10.3%" y="-5.8%" width="120.6%" height="116.3%" filterUnits="objectBoundingBox" id="filter-1">
            <feOffset dx="0" dy="2" in="SourceAlpha" result="shadowOffsetOuter1"></feOffset>
            <feGaussianBlur stdDeviation="2" in="shadowOffsetOuter1" result="shadowBlurOuter1"></feGaussianBlur>
            <feColorMatrix values="0 0 0 0 0   0 0 0 0 0   0 0 0 0 0  0 0 0 0.2 0" type="matrix" in="shadowBlurOuter1" result="shadowMatrixOuter1"></feColorMatrix>
            <feMerge>
                <feMergeNode in="shadowMatrixOuter1"></feMergeNode>
                <feMergeNode in="SourceGraphic"></feMergeNode>
            </feMerge>
        </filter>
        <linearGradient x1="50%" y1="0%" x2="50%" y2="100%" id="linearGradient-2">
            <stop stop-color="#E9EEF2" offset="0%"></stop>
            <stop stop-color="#95A5AF" offset="100%"></stop>
        </linearGradient>
        <rect id="path-3" x="0" y="0" width="68.000029" height="85.0227273" rx="10"></rect>
        <filter x="-0.7%" y="-0.6%" width="101.5%" height="101.2%" filterUnits="objectBoundingBox" id="filter-4">
            <feOffset dx="0" dy="1" in="SourceAlpha" result="shadowOffsetInner1"></feOffset>
            <feComposite in="shadowOffsetInner1" in2="SourceAlpha" operator="arithmetic" k2="-1" k3="1" result="shadowInnerInner1"></feComposite>
            <feColorMatrix values="0 0 0 0 1   0 0 0 0 1   0 0 0 0 1  0 0 0 0.25 0" type="matrix" in="shadowInnerInner1"></feColorMatrix>
        </filter>
        <linearGradient x1="50%" y1="0%" x2="50%" y2="100%" id="linearGradient-5">
            <stop stop-color="#94A0A9" offset="0%"></stop>
            <stop stop-color="#8C979D" offset="100%"></stop>
        </linearGradient>
        <path d="M68.0000145,39 L68.0000145,47 C65.7908755,47 64.0000145,45.209139 64.0000145,43 C64.0000145,40.790861 65.7908755,39 68.0000145,39 Z" id="path-6"></path>
        <filter x="-6.3%" y="-4.4%" width="112.5%" height="115.1%" filterUnits="objectBoundingBox" id="filter-7">
            <feOffset dx="0" dy="0.5" in="SourceAlpha" result="shadowOffsetOuter1"></feOffset>
            <feColorMatrix values="0 0 0 0 1   0 0 0 0 1   0 0 0 0 1  0 0 0 0.5 0" type="matrix" in="shadowOffsetOuter1"></feColorMatrix>
        </filter>
        <filter x="-25.0%" y="-14.0%" width="150.0%" height="134.3%" filterUnits="objectBoundingBox" id="filter-8">
            <feGaussianBlur stdDeviation="0.5" in="SourceAlpha" result="shadowBlurInner1"></feGaussianBlur>
            <feOffset dx="0" dy="1" in="shadowBlurInner1" result="shadowOffsetInner1"></feOffset>
            <feComposite in="shadowOffsetInner1" in2="SourceAlpha" operator="arithmetic" k2="-1" k3="1" result="shadowInnerInner1"></feComposite>
            <feColorMatrix values="0 0 0 0 0   0 0 0 0 0   0 0 0 0 0  0 0 0 0.2 0" type="matrix" in="shadowInnerInner1"></feColorMatrix>
        </filter>
        <linearGradient x1="50%" y1="0%" x2="50%" y2="100%" id="linearGradient-9">
            <stop stop-color="#94A0A9" offset="0%"></stop>
            <stop stop-color="#8C979D" offset="100%"></stop>
        </linearGradient>
        <path d="M4.00001791,39 L4.00001791,47 C1.79087891,47 1.79117642e-05,45.209139 1.79117642e-05,43 C1.79117642e-05,40.790861 1.79087891,39 4.00001791,39 Z" id="path-10"></path>
        <filter x="-6.2%" y="-3.1%" width="112.5%" height="112.5%" filterUnits="objectBoundingBox" id="filter-11">
            <feOffset dx="0" dy="0.5" in="SourceAlpha" result="shadowOffsetOuter1"></feOffset>
            <feColorMatrix values="0 0 0 0 1   0 0 0 0 1   0 0 0 0 1  0 0 0 0.5 0" type="matrix" in="shadowOffsetOuter1"></feColorMatrix>
        </filter>
        <filter x="-25.0%" y="-12.5%" width="150.0%" height="131.2%" filterUnits="objectBoundingBox" id="filter-12">
            <feGaussianBlur stdDeviation="0.5" in="SourceAlpha" result="shadowBlurInner1"></feGaussianBlur>
            <feOffset dx="0" dy="1" in="shadowBlurInner1" result="shadowOffsetInner1"></feOffset>
            <feComposite in="shadowOffsetInner1" in2="SourceAlpha" operator="arithmetic" k2="-1" k3="1" result="shadowInnerInner1"></feComposite>
            <feColorMatrix values="0 0 0 0 0   0 0 0 0 0   0 0 0 0 0  0 0 0 0.2 0" type="matrix" in="shadowInnerInner1"></feColorMatrix>
        </filter>
        <ellipse id="path-13" cx="62.0000264" cy="75.25" rx="2.00000085" ry="1.95454545"></ellipse>
        <filter x="-6.2%" y="-6.4%" width="112.5%" height="125.6%" filterUnits="objectBoundingBox" id="filter-14">
            <feOffset dx="0" dy="0.5" in="SourceAlpha" result="shadowOffsetOuter1"></feOffset>
            <feColorMatrix values="0 0 0 0 1   0 0 0 0 1   0 0 0 0 1  0 0 0 0.5 0" type="matrix" in="shadowOffsetOuter1"></feColorMatrix>
        </filter>
        <filter x="-37.5%" y="-38.4%" width="175.0%" height="189.5%" filterUnits="objectBoundingBox" id="filter-15">
            <feGaussianBlur stdDeviation="1" in="SourceAlpha" result="shadowBlurInner1"></feGaussianBlur>
            <feOffset dx="0" dy="1" in="shadowBlurInner1" result="shadowOffsetInner1"></feOffset>
            <feComposite in="shadowOffsetInner1" in2="SourceAlpha" operator="arithmetic" k2="-1" k3="1" result="shadowInnerInner1"></feComposite>
            <feColorMatrix values="0 0 0 0 0   0 0 0 0 0   0 0 0 0 0  0 0 0 0.2 0" type="matrix" in="shadowInnerInner1"></feColorMatrix>
        </filter>
        <ellipse id="path-16" cx="62.0000264" cy="6.84090909" rx="2.00000085" ry="1.95454545"></ellipse>
        <filter x="-6.2%" y="-6.4%" width="112.5%" height="125.6%" filterUnits="objectBoundingBox" id="filter-17">
            <feOffset dx="0" dy="0.5" in="SourceAlpha" result="shadowOffsetOuter1"></feOffset>
            <feColorMatrix values="0 0 0 0 1   0 0 0 0 1   0 0 0 0 1  0 0 0 0.5 0" type="matrix" in="shadowOffsetOuter1"></feColorMatrix>
        </filter>
        <filter x="-37.5%" y="-38.4%" width="175.0%" height="189.5%" filterUnits="objectBoundingBox" id="filter-18">
            <feGaussianBlur stdDeviation="1" in="SourceAlpha" result="shadowBlurInner1"></feGaussianBlur>
            <feOffset dx="0" dy="1" in="shadowBlurInner1" result="shadowOffsetInner1"></feOffset>
            <feComposite in="shadowOffsetInner1" in2="SourceAlpha" operator="arithmetic" k2="-1" k3="1" result="shadowInnerInner1"></feComposite>
            <feColorMatrix values="0 0 0 0 0   0 0 0 0 0   0 0 0 0 0  0 0 0 0.2 0" type="matrix" in="shadowInnerInner1"></feColorMatrix>
        </filter>
        <ellipse id="path-19" cx="6.00000256" cy="6.84090909" rx="2.00000085" ry="1.95454545"></ellipse>
        <filter x="-6.2%" y="-6.4%" width="112.5%" height="125.6%" filterUnits="objectBoundingBox" id="filter-20">
            <feOffset dx="0" dy="0.5" in="SourceAlpha" result="shadowOffsetOuter1"></feOffset>
            <feColorMatrix values="0 0 0 0 1   0 0 0 0 1   0 0 0 0 1  0 0 0 0.5 0" type="matrix" in="shadowOffsetOuter1"></feColorMatrix>
        </filter>
        <filter x="-37.5%" y="-38.4%" width="175.0%" height="189.5%" filterUnits="objectBoundingBox" id="filter-21">
            <feGaussianBlur stdDeviation="1" in="SourceAlpha" result="shadowBlurInner1"></feGaussianBlur>
            <feOffset dx="0" dy="1" in="shadowBlurInner1" result="shadowOffsetInner1"></feOffset>
            <feComposite in="shadowOffsetInner1" in2="SourceAlpha" operator="arithmetic" k2="-1" k3="1" result="shadowInnerInner1"></feComposite>
            <feColorMatrix values="0 0 0 0 0   0 0 0 0 0   0 0 0 0 0  0 0 0 0.2 0" type="matrix" in="shadowInnerInner1"></feColorMatrix>
        </filter>
        <path d="M3.00000128,55.9545455 L3.00000128,75.1363636 C3.00000128,78.9144934 6.13400937,81.9772727 10.0000013,81.9772727 L35.0046,81.9772727 C36.1091699,81.9772727 37.0046008,81.1021929 37.0046008,80.0227273 L37.0046008,70.2855616 C37.0046008,69.2858242 36.2326571,68.4472421 35.2153658,68.3418876 C29.1671226,67.7155085 24.0953368,66.3206814 20.0000013,64.1574064 C15.5070759,61.7841049 11.8658187,58.5649694 9.07623705,54 L5.00000128,54 C3.89543216,54 3.00000128,54.8750798 3.00000128,55.9545455 Z" id="path-22"></path>
        <filter x="-7.4%" y="-8.9%" width="114.7%" height="117.9%" filterUnits="objectBoundingBox" id="filter-23">
            <feGaussianBlur stdDeviation="1.5" in="SourceAlpha" result="shadowBlurInner1"></feGaussianBlur>
            <feOffset dx="0" dy="2" in="shadowBlurInner1" result="shadowOffsetInner1"></feOffset>
            <feComposite in="shadowOffsetInner1" in2="SourceAlpha" operator="arithmetic" k2="-1" k3="1" result="shadowInnerInner1"></feComposite>
            <feColorMatrix values="0 0 0 0 0   0 0 0 0 0   0 0 0 0 0  0 0 0 0.2 0" type="matrix" in="shadowInnerInner1"></feColorMatrix>
        </filter>
        <linearGradient x1="50%" y1="0%" x2="50%" y2="100%" id="linearGradient-24">
            <stop stop-color="#EAF0F4" offset="0%"></stop>
            <stop stop-color="#C7D1D8" offset="100%"></stop>
        </linearGradient>
        <path d="M7.96265213,56 C10.8521924,60.3980002 14.5532165,63.502039 19.0490094,65.8768515 C23.2304636,68.0856208 28.3192411,69.5243356 34.3094261,70.2097996 L35.0046,70.2855383 L35.0046,80.0227273 L10.0000021,80.0227273 C7.23857934,80.0227273 5.00000213,77.8350278 5.00000213,75.1363636 L5.00000213,56 L7.96265213,56 Z M33.0000136,76.1136364 C32.4477291,76.1136364 32.0000136,76.5511763 32.0000136,77.0909091 C32.0000136,77.6306419 32.4477291,78.0681818 33.0000136,78.0681818 C33.5522991,78.0681818 34.0000136,77.6306419 34.0000136,77.0909091 C34.0000136,76.5511763 33.5522991,76.1136364 33.0000136,76.1136364 Z M7.0000145,57 C6.44772951,57 6.00000256,57.4602672 6.00000256,58 C6.00000256,58.5397328 6.44771757,59 7.00000256,59 C7.55228754,59 8.00000256,58.5397328 8.00000256,58 C8.00000256,57.4602672 7.55229949,57 7.0000145,57 Z" id="path-25"></path>
        <filter x="-11.7%" y="-10.4%" width="123.3%" height="129.1%" filterUnits="objectBoundingBox" id="filter-26">
            <feOffset dx="0" dy="1" in="SourceAlpha" result="shadowOffsetOuter1"></feOffset>
            <feGaussianBlur stdDeviation="1" in="shadowOffsetOuter1" result="shadowBlurOuter1"></feGaussianBlur>
            <feColorMatrix values="0 0 0 0 0   0 0 0 0 0   0 0 0 0 0  0 0 0 0.275868663 0" type="matrix" in="shadowBlurOuter1"></feColorMatrix>
        </filter>
        <rect id="path-27" x="41.0000145" y="62" width="3" height="3" rx="1"></rect>
        <filter x="-8.3%" y="-8.3%" width="116.7%" height="133.3%" filterUnits="objectBoundingBox" id="filter-28">
            <feOffset dx="0" dy="0.5" in="SourceAlpha" result="shadowOffsetOuter1"></feOffset>
            <feColorMatrix values="0 0 0 0 1   0 0 0 0 1   0 0 0 0 1  0 0 0 0.5 0" type="matrix" in="shadowOffsetOuter1"></feColorMatrix>
        </filter>
        <filter x="-50.0%" y="-50.0%" width="200.0%" height="216.7%" filterUnits="objectBoundingBox" id="filter-29">
            <feGaussianBlur stdDeviation="1" in="SourceAlpha" result="shadowBlurInner1"></feGaussianBlur>
            <feOffset dx="0" dy="1" in="shadowBlurInner1" result="shadowOffsetInner1"></feOffset>
            <feComposite in="shadowOffsetInner1" in2="SourceAlpha" operator="arithmetic" k2="-1" k3="1" result="shadowInnerInner1"></feComposite>
            <feColorMatrix values="0 0 0 0 0   0 0 0 0 0   0 0 0 0 0  0 0 0 0.2 0" type="matrix" in="shadowInnerInner1"></feColorMatrix>
        </filter>
        <rect id="path-30" x="19.0000145" y="63" width="19" height="2" rx="1"></rect>
        <filter x="-1.3%" y="-12.5%" width="102.6%" height="150.0%" filterUnits="objectBoundingBox" id="filter-31">
            <feOffset dx="0" dy="0.5" in="SourceAlpha" result="shadowOffsetOuter1"></feOffset>
            <feColorMatrix values="0 0 0 0 1   0 0 0 0 1   0 0 0 0 1  0 0 0 0.5 0" type="matrix" in="shadowOffsetOuter1"></feColorMatrix>
        </filter>
        <filter x="-5.3%" y="-50.0%" width="110.5%" height="225.0%" filterUnits="objectBoundingBox" id="filter-32">
            <feGaussianBlur stdDeviation="0.5" in="SourceAlpha" result="shadowBlurInner1"></feGaussianBlur>
            <feOffset dx="0" dy="1" in="shadowBlurInner1" result="shadowOffsetInner1"></feOffset>
            <feComposite in="shadowOffsetInner1" in2="SourceAlpha" operator="arithmetic" k2="-1" k3="1" result="shadowInnerInner1"></feComposite>
            <feColorMatrix values="0 0 0 0 0   0 0 0 0 0   0 0 0 0 0  0 0 0 0.2 0" type="matrix" in="shadowInnerInner1"></feColorMatrix>
        </filter>
        <linearGradient x1="50%" y1="0%" x2="50%" y2="99.448208%" id="linearGradient-33">
            <stop stop-color="#4C5860" offset="0%"></stop>
            <stop stop-color="#5A656C" offset="100%"></stop>
        </linearGradient>
        <linearGradient x1="50%" y1="1.83254943%" x2="50%" y2="100%" id="linearGradient-34">
            <stop stop-color="#A5ABB2" offset="0%"></stop>
            <stop stop-color="#EAF0FF" offset="100%"></stop>
        </linearGradient>
        <path d="M42.0000175,70 C42.5523022,70 43.0000175,70.4477153 43.0000175,71 L43.0000175,80 C43.0000175,80.5522847 42.5523022,81 42.0000175,81 C41.4477327,81 41.0000175,80.5522847 41.0000175,80 L41.0000175,71 C41.0000175,70.4477153 41.4477327,70 42.0000175,70 Z M46.0000192,70 C46.5523039,70 47.0000192,70.4477153 47.0000192,71 L47.0000192,80 C47.0000192,80.5522847 46.5523039,81 46.0000192,81 C45.4477344,81 45.0000192,80.5522847 45.0000192,80 L45.0000192,71 C45.0000192,70.4477153 45.4477344,70 46.0000192,70 Z M50.0000209,70 C50.5523056,70 51.0000209,70.4477153 51.0000209,71 L51.0000209,80 C51.0000209,80.5522847 50.5523056,81 50.0000209,81 C49.4477361,81 49.0000209,80.5522847 49.0000209,80 L49.0000209,71 C49.0000209,70.4477153 49.4477361,70 50.0000209,70 Z M54.0000226,70 C54.5523074,70 55.0000226,70.4477153 55.0000226,71 L55.0000226,80 C55.0000226,80.5522847 54.5523074,81 54.0000226,81 C53.4477379,81 53.0000226,80.5522847 53.0000226,80 L53.0000226,71 C53.0000226,70.4477153 53.4477379,70 54.0000226,70 Z M58.0000243,70 C58.5523091,70 59.0000243,70.4477153 59.0000243,71 L59.0000243,80 C59.0000243,80.5522847 58.5523091,81 58.0000243,81 C57.4477396,81 57.0000243,80.5522847 57.0000243,80 L57.0000243,71 C57.0000243,70.4477153 57.4477396,70 58.0000243,70 Z" id="path-35"></path>
        <filter x="-1.4%" y="-2.3%" width="102.8%" height="109.1%" filterUnits="objectBoundingBox" id="filter-36">
            <feOffset dx="0" dy="0.5" in="SourceAlpha" result="shadowOffsetOuter1"></feOffset>
            <feColorMatrix values="0 0 0 0 1   0 0 0 0 1   0 0 0 0 1  0 0 0 0.5 0" type="matrix" in="shadowOffsetOuter1"></feColorMatrix>
        </filter>
        <filter x="-5.6%" y="-9.1%" width="111.1%" height="122.7%" filterUnits="objectBoundingBox" id="filter-37">
            <feGaussianBlur stdDeviation="0.5" in="SourceAlpha" result="shadowBlurInner1"></feGaussianBlur>
            <feOffset dx="0" dy="1" in="shadowBlurInner1" result="shadowOffsetInner1"></feOffset>
            <feComposite in="shadowOffsetInner1" in2="SourceAlpha" operator="arithmetic" k2="-1" k3="1" result="shadowInnerInner1"></feComposite>
            <feColorMatrix values="0 0 0 0 0   0 0 0 0 0   0 0 0 0 0  0 0 0 0.2 0" type="matrix" in="shadowInnerInner1"></feColorMatrix>
        </filter>
        <linearGradient x1="51.7606421%" y1="0%" x2="51.7606421%" y2="100%" id="linearGradient-38">
            <stop stop-color="#6B6C77" offset="0%"></stop>
            <stop stop-color="#2B2F42" offset="83.5058272%"></stop>
            <stop stop-color="#5F627C" offset="100%"></stop>
        </linearGradient>
        <ellipse id="path-39" cx="26.0000111" cy="25.4090909" rx="26.0000111" ry="25.4090909"></ellipse>
        <filter x="-10.6%" y="-6.9%" width="121.2%" height="121.6%" filterUnits="objectBoundingBox" id="filter-40">
            <feOffset dx="0" dy="2" in="SourceAlpha" result="shadowOffsetOuter1"></feOffset>
            <feGaussianBlur stdDeviation="1.5" in="shadowOffsetOuter1" result="shadowBlurOuter1"></feGaussianBlur>
            <feColorMatrix values="0 0 0 0 0   0 0 0 0 0   0 0 0 0 0  0 0 0 0.271689248 0" type="matrix" in="shadowBlurOuter1"></feColorMatrix>
        </filter>
        <linearGradient x1="50%" y1="0%" x2="50%" y2="100%" id="linearGradient-41">
            <stop stop-color="#FFFFFF" stop-opacity="0.15" offset="0%"></stop>
            <stop stop-color="#000000" stop-opacity="0.328238225" offset="100%"></stop>
        </linearGradient>
        <linearGradient x1="50%" y1="0%" x2="50%" y2="100%" id="linearGradient-42">
            <stop stop-color="#393741" offset="0%"></stop>
            <stop stop-color="#1F1C25" offset="100%"></stop>
        </linearGradient>
        <ellipse id="path-43" cx="22.0000094" cy="21.5" rx="22.0000094" ry="21.5"></ellipse>
        <filter x="-13.6%" y="-7.0%" width="127.3%" height="127.9%" filterUnits="objectBoundingBox" id="filter-44">
            <feOffset dx="0" dy="3" in="SourceAlpha" result="shadowOffsetOuter1"></feOffset>
            <feGaussianBlur stdDeviation="1.5" in="shadowOffsetOuter1" result="shadowBlurOuter1"></feGaussianBlur>
            <feColorMatrix values="0 0 0 0 0   0 0 0 0 0   0 0 0 0 0  0 0 0 0.3 0" type="matrix" in="shadowBlurOuter1"></feColorMatrix>
        </filter>
        <linearGradient x1="50%" y1="0%" x2="50%" y2="100%" id="linearGradient-45">
            <stop stop-color="#393741" offset="0%"></stop>
            <stop stop-color="#1F1C25" offset="100%"></stop>
        </linearGradient>
        <ellipse id="path-46" cx="9.00000384" cy="8.79545455" rx="9.00000384" ry="8.79545455"></ellipse>
        <filter x="-11.1%" y="-5.7%" width="122.2%" height="122.7%" filterUnits="objectBoundingBox" id="filter-47">
            <feOffset dx="0" dy="1" in="SourceAlpha" result="shadowOffsetOuter1"></feOffset>
            <feGaussianBlur stdDeviation="0.5" in="shadowOffsetOuter1" result="shadowBlurOuter1"></feGaussianBlur>
            <feColorMatrix values="0 0 0 0 0   0 0 0 0 0   0 0 0 0 0  0 0 0 0.3 0" type="matrix" in="shadowBlurOuter1"></feColorMatrix>
        </filter>
        <linearGradient x1="50%" y1="0%" x2="50%" y2="100%" id="linearGradient-48">
            <stop stop-color="#E5E5E5" stop-opacity="0.15" offset="0%"></stop>
            <stop stop-color="#565656" stop-opacity="0.328238225" offset="100%"></stop>
        </linearGradient>
        <linearGradient x1="50%" y1="0%" x2="50%" y2="100%" id="linearGradient-49">
            <stop stop-color="#FBFBFB" offset="0%"></stop>
            <stop stop-color="#B7B7B7" offset="100%"></stop>
        </linearGradient>
        <path d="M26.0000085,19.5454545 C29.313721,19.5454545 32.0000085,22.170694 32.0000085,25.4090909 C32.0000085,28.6474879 29.313721,31.2727273 26.0000085,31.2727273 C22.6863012,31.2727273 20.0000085,28.6474879 20.0000085,25.4090909 C20.0000085,22.170694 22.6863012,19.5454545 26.0000085,19.5454545 Z M26.0000102,23.4545455 C24.8954411,23.4545455 24.0000102,24.3296253 24.0000102,25.4090909 C24.0000102,26.4885566 24.8954411,27.3636364 26.0000102,27.3636364 C27.1045811,27.3636364 28.0000102,26.4885566 28.0000102,25.4090909 C28.0000102,24.3296253 27.1045811,23.4545455 26.0000102,23.4545455 Z" id="path-50"></path>
        <filter x="-16.7%" y="-8.5%" width="133.3%" height="134.1%" filterUnits="objectBoundingBox" id="filter-51">
            <feOffset dx="0" dy="1" in="SourceAlpha" result="shadowOffsetOuter1"></feOffset>
            <feGaussianBlur stdDeviation="0.5" in="shadowOffsetOuter1" result="shadowBlurOuter1"></feGaussianBlur>
            <feColorMatrix values="0 0 0 0 0   0 0 0 0 0   0 0 0 0 0  0 0 0 0.3 0" type="matrix" in="shadowBlurOuter1"></feColorMatrix>
        </filter>
        <filter x="-10.4%" y="-2.1%" width="120.8%" height="121.3%" filterUnits="objectBoundingBox" id="filter-52">
            <feOffset dx="0" dy="0.5" in="SourceAlpha" result="shadowOffsetInner1"></feOffset>
            <feComposite in="shadowOffsetInner1" in2="SourceAlpha" operator="arithmetic" k2="-1" k3="1" result="shadowInnerInner1"></feComposite>
            <feColorMatrix values="0 0 0 0 1   0 0 0 0 1   0 0 0 0 1  0 0 0 0.5 0" type="matrix" in="shadowInnerInner1"></feColorMatrix>
        </filter>
        <linearGradient x1="97.2470411%" y1="7.66427579%" x2="6.27062595%" y2="88.6487271%" id="linearGradient-53">
            <stop stop-color="#F7F9FB" offset="0%"></stop>
            <stop stop-color="#ECF1F6" offset="100%"></stop>
        </linearGradient>
        <path d="M10.1510543,26.181994 L29.5551242,2.91652825 C29.8324984,2.60514627 30.0000128,2.20558089 30.0000128,1.76964611 C30.0000128,0.793982551 29.1596286,0 28.1241331,0 C27.6627216,0 27.2398049,0.155774029 26.9128619,0.420324166 L2.28508581,18.753001 C0.898038726,19.7208593 0,21.2752781 0,23.0266565 C0,25.9641096 2.51851612,28.3409091 5.62482662,28.3409091 C7.48154674,28.3409091 9.12663275,27.4924555 10.1510543,26.181994 Z" id="path-54"></path>
        <filter x="-6.7%" y="-3.5%" width="113.3%" height="114.1%" filterUnits="objectBoundingBox" id="filter-55">
            <feOffset dx="0" dy="1" in="SourceAlpha" result="shadowOffsetOuter1"></feOffset>
            <feGaussianBlur stdDeviation="0.5" in="shadowOffsetOuter1" result="shadowBlurOuter1"></feGaussianBlur>
            <feColorMatrix values="0 0 0 0 0   0 0 0 0 0   0 0 0 0 0  0 0 0 0.300344187 0" type="matrix" in="shadowBlurOuter1"></feColorMatrix>
        </filter>
        <filter x="-3.3%" y="0.0%" width="106.7%" height="107.1%" filterUnits="objectBoundingBox" id="filter-56">
            <feOffset dx="0" dy="0" in="SourceAlpha" result="shadowOffsetInner1"></feOffset>
            <feComposite in="shadowOffsetInner1" in2="SourceAlpha" operator="arithmetic" k2="-1" k3="1" result="shadowInnerInner1"></feComposite>
            <feColorMatrix values="0 0 0 0 1   0 0 0 0 1   0 0 0 0 1  0 0 0 0.942198427 0" type="matrix" in="shadowInnerInner1"></feColorMatrix>
        </filter>
        <linearGradient x1="50%" y1="0%" x2="50%" y2="97.6792756%" id="linearGradient-57">
            <stop stop-color="#959B9F" offset="0%"></stop>
            <stop stop-color="#727A81" offset="100%"></stop>
        </linearGradient>
    </defs>
    <g id="apps/96/deepin-diskmanager" stroke="none" stroke-width="1" fill="none" fill-rule="evenodd">
        <g id="编组" filter="url(#filter-1)" transform="translate(14, 5)">
            <rect id="矩形" fill="#424F59" x="0" y="0" width="68.000029" height="86" rx="10"></rect>
            <g id="矩形备份">
                <use fill="url(#linearGradient-2)" fill-rule="evenodd" xlink:href="#path-3"></use>
                <use fill="black" fill-opacity="1" filter="url(#filter-4)" xlink:href="#path-3"></use>
            </g>
            <g id="形状结合">
                <use fill="black" fill-opacity="1" filter="url(#filter-7)" xlink:href="#path-6"></use>
                <use fill="url(#linearGradient-5)" fill-rule="evenodd" xlink:href="#path-6"></use>
                <use fill="black" fill-opacity="1" filter="url(#filter-8)" xlink:href="#path-6"></use>
            </g>
            <g id="形状结合备份" transform="translate(2, 43) scale(-1, 1) translate(-2, -43)">
                <use fill="black" fill-opacity="1" filter="url(#filter-11)" xlink:href="#path-10"></use>
                <use fill="url(#linearGradient-9)" fill-rule="evenodd" xlink:href="#path-10"></use>
                <use fill="black" fill-opacity="1" filter="url(#filter-12)" xlink:href="#path-10"></use>
            </g>
            <g id="椭圆形备份-7">
                <use fill="black" fill-opacity="1" filter="url(#filter-14)" xlink:href="#path-13"></use>
                <use fill="#8C969D" fill-rule="evenodd" xlink:href="#path-13"></use>
                <use fill="black" fill-opacity="1" filter="url(#filter-15)" xlink:href="#path-13"></use>
            </g>
            <g id="椭圆形备份-8">
                <use fill="black" fill-opacity="1" filter="url(#filter-17)" xlink:href="#path-16"></use>
                <use fill="#8C969D" fill-rule="evenodd" xlink:href="#path-16"></use>
                <use fill="black" fill-opacity="1" filter="url(#filter-18)" xlink:href="#path-16"></use>
            </g>
            <g id="椭圆形备份-9">
                <use fill="black" fill-opacity="1" filter="url(#filter-20)" xlink:href="#path-19"></use>
                <use fill="#8C969D" fill-rule="evenodd" xlink:href="#path-19"></use>
                <use fill="black" fill-opacity="1" filter="url(#filter-21)" xlink:href="#path-19"></use>
            </g>
            <g id="路径">
                <use fill="#6C7982" fill-rule="evenodd" xlink:href="#path-22"></use>
                <use fill="black" fill-opacity="1" filter="url(#filter-23)" xlink:href="#path-22"></use>
            </g>
            <g id="形状结合" fill-rule="nonzero">
                <use fill="black" fill-opacity="1" filter="url(#filter-26)" xlink:href="#path-25"></use>
                <use fill="url(#linearGradient-24)" xlink:href="#path-25"></use>
            </g>
            <g id="矩形备份-2">
                <use fill="black" fill-opacity="1" filter="url(#filter-28)" xlink:href="#path-27"></use>
                <use fill="#A4AFB6" fill-rule="evenodd" xlink:href="#path-27"></use>
                <use fill="black" fill-opacity="1" filter="url(#filter-29)" xlink:href="#path-27"></use>
            </g>
            <g id="矩形">
                <use fill="black" fill-opacity="1" filter="url(#filter-31)" xlink:href="#path-30"></use>
                <use fill="#A4AFB6" fill-rule="evenodd" xlink:href="#path-30"></use>
                <use fill="black" fill-opacity="1" filter="url(#filter-32)" xlink:href="#path-30"></use>
            </g>
            <g id="编组-4" transform="translate(7, 72.3182)" fill-rule="nonzero">
                <path d="M6.00001151,2.68294304 C6.00001151,4.33957971 4.65602725,5.68181818 3.00001151,5.68181818 C1.34399577,5.68181818 1.15147067e-05,4.33957971 1.15147067e-05,2.68294304 C1.15147067e-05,1.02630637 1.34399577,-0.318181818 3.00001151,-0.318181818 C4.65602725,-0.318181818 6.00001151,1.02630637 6.00001151,2.68294304 Z" id="Shape" fill="url(#linearGradient-33)"></path>
                <path d="M4.00001151,2.65945734 C4.00001151,3.19911928 3.55201742,3.63636364 3.00001151,3.63636364 C2.44800646,3.63636364 2.00001151,3.19911928 2.00001151,2.65945734 C2.00001151,2.11979539 2.44800646,1.68181818 3.00001151,1.68181818 C3.55201742,1.68181818 4.00001151,2.11979539 4.00001151,2.65945734 Z" id="Shape" fill="url(#linearGradient-34)" transform="translate(3, 2.6591) rotate(-180) translate(-3, -2.6591)"></path>
            </g>
            <g id="形状结合">
                <use fill="black" fill-opacity="1" filter="url(#filter-36)" xlink:href="#path-35"></use>
                <use fill="#6C7982" fill-rule="evenodd" xlink:href="#path-35"></use>
                <use fill="black" fill-opacity="1" filter="url(#filter-37)" xlink:href="#path-35"></use>
            </g>
            <g id="编组-20" transform="translate(8, 5.8636)">
                <g id="椭圆形">
                    <use fill="black" fill-opacity="1" filter="url(#filter-40)" xlink:href="#path-39"></use>
                    <use fill="url(#linearGradient-38)" fill-rule="evenodd" xlink:href="#path-39"></use>
                </g>
                <path d="M26.0000111,0 C40.3594207,0 52.0000222,11.3760375 52.0000222,25.4090909 C52.0000222,39.4421443 40.3594207,50.8181818 26.0000111,50.8181818 C11.6406015,50.8181818 0,39.4421443 0,25.4090909 C0,11.3760375 11.6406015,0 26.0000111,0 Z M26.0000111,1 C12.1878061,1 1,11.9335332 1,25.4090909 C1,38.8846487 12.1878061,49.8181818 26.0000111,49.8181818 C39.812216,49.8181818 51.0000222,38.8846487 51.0000222,25.4090909 C51.0000222,11.9335332 39.812216,1 26.0000111,1 Z" id="椭圆形" fill="url(#linearGradient-41)" fill-rule="nonzero"></path>
                <g id="编组-18" transform="translate(4, 3.9091)">
                    <g id="椭圆形备份-2">
                        <use fill="black" fill-opacity="1" filter="url(#filter-44)" xlink:href="#path-43"></use>
                        <use fill="url(#linearGradient-42)" fill-rule="evenodd" xlink:href="#path-43"></use>
                    </g>
                    <path d="M22,0 C34.1502791,0 44.0000188,9.62587788 44.0000188,21.5 C44.0000188,33.3741221 34.1502791,43 22,43 C9.84973971,43 0,33.3741221 0,21.5 C0,9.62587788 9.84973971,0 22,0 Z M22,1 C10.396943,1 1,10.1833749 1,21.5 C1,32.8166251 10.396943,42 22,42 C33.603073,42 43.0000188,32.8166278 43.0000188,21.5 C43.0000188,10.1833722 33.603073,1 22,1 Z" id="椭圆形备份-2" fill="#000000" fill-rule="nonzero"></path>
                    <path d="M21.8764479,22.1781257 L6.52748089,36.7842827 C3.90033712,34.2441261 1.92470457,31.0617026 0.867447853,27.4978112 L21.8764479,22.1781257 Z M38.0469172,6.7921257 C40.6718585,9.52625627 42.5735184,12.9314914 43.4534634,16.71618 L21.8764479,22.1781257 Z" id="形状结合" fill-opacity="0.304632867" fill="#4F4F50" fill-rule="nonzero" opacity="0.4"></path>
                    <path d="M20.8837934,22.1944887 L42.88859,28.2658031 C41.6399683,31.9494531 39.3996008,35.1914778 36.4766673,37.6897239 L20.8837934,22.1944887 Z M5.6778025,7.08420153 L20.8837934,22.1944887 L0.575554101,16.5931391 C1.43599864,12.9910103 3.22307849,9.73699627 5.6778025,7.08420153 Z" id="形状结合" fill-opacity="0.304632867" fill="#4F4F50" fill-rule="nonzero"></path>
                </g>
                <g id="编组-19" transform="translate(17, 16.6136)">
                    <g id="椭圆形备份-3">
                        <use fill="black" fill-opacity="1" filter="url(#filter-47)" xlink:href="#path-46"></use>
                        <use fill="url(#linearGradient-45)" fill-rule="evenodd" xlink:href="#path-46"></use>
                    </g>
                    <path d="M9,0 C13.9705687,0 18,3.93785913 18,8.79545455 C18,13.65305 13.9705687,17.5909091 9,17.5909091 C4.02943897,17.5909091 0,13.65305 0,8.79545455 C0,3.93785913 4.02943897,0 9,0 Z M9,4 C6.21825732,4 4,6.1678421 4,8.79545455 C4,11.423067 6.21825732,13.5909091 9,13.5909091 C11.7817472,13.5909091 14,11.4230701 14,8.79545455 C14,6.16783896 11.7817472,4 9,4 Z" id="椭圆形备份-3" fill="#000000" fill-rule="nonzero"></path>
                    <path d="M9,-1 C14.5177715,-1 19,3.38036166 19,8.79545455 C19,14.2105474 14.5177715,18.5909091 9,18.5909091 C3.48223364,18.5909091 -1,14.210545 -1,8.79545455 C-1,3.38036412 3.48223364,-1 9,-1 Z M9,0 C4.02943897,0 0,3.93785913 0,8.79545455 C0,13.65305 4.02943897,17.5909091 9,17.5909091 C13.9705687,17.5909091 18,13.65305 18,8.79545455 C18,3.93785913 13.9705687,0 9,0 Z" id="椭圆形备份-3" fill="url(#linearGradient-48)" fill-rule="nonzero"></path>
                    <path d="M9.1984371,11.084677 L12.0634374,17.0682561 C11.1072312,17.4064958 10.0756527,17.5909091 9,17.5909091 C8.64667344,17.5909091 8.29810229,17.5710114 7.95539581,17.5323002 L8.36071335,11.3395355 C8.64849732,11.2904127 8.93016215,11.2047805 9.1984371,11.084677 Z M9,0 C9.03516912,0 9.07029112,0.000197138284 9.10536491,0.00059034579 L8.80609552,4.54325966 C7.93335372,4.30667976 7.00566511,4.43649731 6.22534004,4.87600317 L4.46384236,1.1972262 C5.79576126,0.436160053 7.34576096,0 9,0 Z" id="形状结合" fill-opacity="0.401305726" fill="#4F4F50" fill-rule="nonzero"></path>
                </g>
                <g id="形状结合">
                    <use fill="black" fill-opacity="1" filter="url(#filter-51)" xlink:href="#path-50"></use>
                    <use fill="url(#linearGradient-49)" fill-rule="evenodd" xlink:href="#path-50"></use>
                    <use fill="black" fill-opacity="1" filter="url(#filter-52)" xlink:href="#path-50"></use>
                </g>
            </g>
            <g id="编组-3" transform="translate(11, 44.9545)">
                <g id="Shape" fill-rule="nonzero">
                    <use fill="black" fill-opacity="1" filter="url(#filter-55)" xlink:href="#path-54"></use>
                    <use fill="url(#linearGradient-53)" xlink:href="#path-54"></use>
                    <use fill="black" fill-opacity="1" filter="url(#filter-56)" xlink:href="#path-54"></use>
                </g>
                <circle id="椭圆形" fill="url(#linearGradient-57)" cx="5.50000981" cy="22.5454545" r="3.5"></circle>
                <path d="M5.50000981,19.0454545 C7.43300643,19.0454545 9.00000981,20.6124579 9.00000981,22.5454545 C9.00000981,24.4784512 7.43300643,26.0454545 5.50000981,26.0454545 C3.56701318,26.0454545 2.00000981,24.4784512 2.00000981,22.5454545 C2.00000981,20.6124579 3.56701318,19.0454545 5.50000981,19.0454545 Z M5.50000981,20.0454545 C4.11929793,20.0454545 3.00000981,21.1647427 3.00000981,22.5454545 C3.00000981,23.9261664 4.11929793,25.0454545 5.50000981,25.0454545 C6.88072168,25.0454545 8.00000981,23.9261664 8.00000981,22.5454545 C8.00000981,21.1647427 6.88072168,20.0454545 5.50000981,20.0454545 Z" id="椭圆形" fill="#696868" fill-rule="nonzero"></path>
            </g>
        </g>
        <g id="Guide-96" transform="translate(3, 3)"></g>
    </g>
</svg>