<?xml version="1.0" encoding="UTF-8"?>
<svg width="96px" height="96px" viewBox="0 0 96 96" version="1.1" xmlns="http://www.w3.org/2000/svg" xmlns:xlink="http://www.w3.org/1999/xlink">
    <!-- Generator: Sketch 62 (91390) - https://sketch.com -->
    <title>devhelp_org.gnome.Devhelp</title>
    <desc>Created with Sketch.</desc>
    <defs>
        <filter x="-19.0%" y="-16.4%" width="138.1%" height="132.9%" filterUnits="objectBoundingBox" id="filter-1">
            <feOffset dx="0" dy="2" in="SourceAlpha" result="shadowOffsetOuter1"></feOffset>
            <feGaussianBlur stdDeviation="2" in="shadowOffsetOuter1" result="shadowBlurOuter1"></feGaussianBlur>
            <feComposite in="shadowBlurOuter1" in2="SourceAlpha" operator="out" result="shadowBlurOuter1"></feComposite>
            <feColorMatrix values="0 0 0 0 0   0 0 0 0 0   0 0 0 0 0  0 0 0 0.2 0" type="matrix" in="shadowBlurOuter1" result="shadowMatrixOuter1"></feColorMatrix>
            <feMerge>
                <feMergeNode in="shadowMatrixOuter1"></feMergeNode>
                <feMergeNode in="SourceGraphic"></feMergeNode>
            </feMerge>
        </filter>
        <linearGradient x1="50%" y1="0%" x2="50%" y2="98.7199113%" id="linearGradient-2">
            <stop stop-color="#FCCE5E" offset="0%"></stop>
            <stop stop-color="#ED8500" offset="100%"></stop>
        </linearGradient>
        <linearGradient x1="50%" y1="0%" x2="50%" y2="98.7199113%" id="linearGradient-3">
            <stop stop-color="#57AB07" offset="0%"></stop>
            <stop stop-color="#408103" offset="100%"></stop>
        </linearGradient>
        <linearGradient x1="50%" y1="0%" x2="50%" y2="98.7199113%" id="linearGradient-4">
            <stop stop-color="#6B92C4" offset="0%"></stop>
            <stop stop-color="#305E98" offset="100%"></stop>
        </linearGradient>
        <linearGradient x1="0%" y1="50%" x2="21.407112%" y2="50%" id="linearGradient-5">
            <stop stop-color="#2E3436" offset="0%"></stop>
            <stop stop-color="#535552" offset="17.5575676%"></stop>
            <stop stop-color="#2B3233" offset="100%"></stop>
        </linearGradient>
        <linearGradient x1="50%" y1="0%" x2="50%" y2="100%" id="linearGradient-6">
            <stop stop-color="#E85555" offset="0%"></stop>
            <stop stop-color="#CC2424" offset="100%"></stop>
        </linearGradient>
        <linearGradient x1="50%" y1="0%" x2="50%" y2="100%" id="linearGradient-7">
            <stop stop-color="#D1D1D1" offset="0%"></stop>
            <stop stop-color="#F8F8F6" offset="100%"></stop>
        </linearGradient>
        <linearGradient x1="50%" y1="0%" x2="50%" y2="100%" id="linearGradient-8">
            <stop stop-color="#FFFFFF" offset="0%"></stop>
            <stop stop-color="#FFFFFF" stop-opacity="0.802556818" offset="100%"></stop>
        </linearGradient>
    </defs>
    <g id="devhelp_org.gnome.Devhelp" stroke="none" stroke-width="1" fill="none" fill-rule="evenodd">
        <g id="编组" filter="url(#filter-1)" transform="translate(17.000000, 12.000000)">
            <rect id="矩形" fill="url(#linearGradient-2)" x="56" y="12" width="7" height="13" rx="2"></rect>
            <rect id="矩形备份" fill="url(#linearGradient-3)" x="56" y="26" width="7" height="13" rx="2"></rect>
            <rect id="矩形备份-2" fill="url(#linearGradient-4)" x="56" y="40" width="7" height="13" rx="2"></rect>
            <path d="M27,0 L4.34295108,0 C3.98109209,-2.20057831e-06 3.62601237,0.0981720339 3.31554842,0.284059275 C1.10518281,1.60749399 0,3.81908435 0,6.91883037 C0,10.2521637 0,30.1125536 0,66.5 C0,70.1490271 1,72.3156937 3,73 C4.33333333,73 13,73 29,73 L29,9.5 L27,9.5 L27,0 Z" id="路径-383" fill="url(#linearGradient-5)"></path>
            <path d="M55,0 L12,0 L12,0 L12,73 L57,73 C58.1045695,73 59,72.1045695 59,71 L59,11.5 C59,10.3954305 58.1045695,9.5 57,9.5 L57,9.5 L57,9.5 L57,2 C57,0.8954305 56.1045695,-2.02906125e-16 55,0 Z" id="路径-383备份" fill="url(#linearGradient-6)"></path>
            <path d="M4.97031319,2 L55.5,2 L55.5,2 C55.4350833,4.07111011 55.5128797,5.55949786 55.7333892,6.46516325 C55.9538987,7.37082864 56.3761023,8.21577423 57,9 L4.97031319,9 C3.31345894,9 1.97031319,7.65685425 1.97031319,6 L1.97031319,5 C1.97031319,3.34314575 3.31345894,2 4.97031319,2 Z" id="矩形" fill="url(#linearGradient-7)"></path>
            <path d="M35.4589844,55.4960938 C37.1920573,55.4960938 39.125651,55.2096354 41.2597656,54.6367188 C42.8209635,54.2213542 44.281901,53.3870443 45.6425781,52.1337891 C47.0032552,50.8805339 48.0667318,49.3264974 48.8330078,47.4716797 C49.5992839,45.616862 49.9824219,43.0065104 49.9824219,39.640625 C49.9824219,37.4921875 49.7246094,35.4583333 49.2089844,33.5390625 C48.6933594,31.6197917 47.8626302,29.936849 46.7167969,28.4902344 C45.5709635,27.0436198 44.1207682,25.9335938 42.3662109,25.1601562 C40.6116536,24.3867188 38.3092448,24 35.4589844,24 L21,24 L21,55.4960938 L35.4589844,55.4960938 Z M32.2274394,48.3417969 L29.2070312,48.3417969 L29.2070312,31.1328125 L32.2818612,31.1328125 C35.4746049,31.1328125 37.7603192,31.7486979 39.139004,32.9804688 C40.5176888,34.2122396 41.2070312,36.4967448 41.2070312,39.8339844 C41.2070312,42.3548177 40.8986412,44.1774089 40.2818612,45.3017578 C39.6650811,46.4261068 38.8124734,47.2138672 37.7240381,47.6650391 C36.6356027,48.1162109 34.8034031,48.3417969 32.2274394,48.3417969 L32.2274394,48.3417969 Z" id="D" fill="url(#linearGradient-8)" fill-rule="nonzero"></path>
        </g>
    </g>
</svg>