<svg xmlns="http://www.w3.org/2000/svg" width="96" height="96" viewBox="0 0 96 96">
  <defs>
    <filter id="eclipse-scout_icon-a" width="131.6%" height="131.6%" x="-15.8%" y="-15.8%" filterUnits="objectBoundingBox">
      <feOffset dy="2" in="SourceAlpha" result="shadowOffsetOuter1"/>
      <feGaussianBlur in="shadowOffsetOuter1" result="shadowBlurOuter1" stdDeviation="2"/>
      <feColorMatrix in="shadowBlurOuter1" result="shadowMatrixOuter1" values="0 0 0 0 0   0 0 0 0 0   0 0 0 0 0  0 0 0 0.2 0"/>
      <feMerge>
        <feMergeNode in="shadowMatrixOuter1"/>
        <feMergeNode in="SourceGraphic"/>
      </feMerge>
    </filter>
    <linearGradient id="eclipse-scout_icon-b" x1="50%" x2="50%" y1="0%" y2="100%">
      <stop offset="0%" stop-color="#FFC900"/>
      <stop offset="100%" stop-color="#F90"/>
    </linearGradient>
    <linearGradient id="eclipse-scout_icon-c" x1="50%" x2="50%" y1="0%" y2="100%">
      <stop offset="0%" stop-color="#00E0F7"/>
      <stop offset="100%" stop-color="#00BDED"/>
    </linearGradient>
  </defs>
  <g fill="none" filter="url(#eclipse-scout_icon-a)" transform="translate(10 10)">
    <rect width="76" height="76" fill="url(#eclipse-scout_icon-b)" rx="8"/>
    <path fill="#FFF" d="M45.545669,76 L1.9937508,76 C0.89263264,76 0,75.0935394 0,74.0062492 L0,61.848 L7.83258536,61.848 L8.6465324,61.848 L10.2744265,61.848 L10.6048897,63.441999 L10.7701213,64.2389986 C11.0271326,65.4787004 11.6640085,66.6549252 12.7259681,67.8003052 C13.4882465,68.622463 15.2520533,69.144 18.0491707,69.144 C20.260726,69.144 22.193856,68.656317 23.899063,67.6827318 C25.157824,66.9640442 25.6372682,66.2079792 25.6372682,65.104 C25.6372682,64.1489088 25.3044374,63.4009174 24.5396292,62.6822664 C23.6132882,61.8118314 21.523081,60.8854562 18.4275341,60.0762726 L9.31110176,57.7685936 C5.82077362,56.8666812 2.71609154,55.7130928 0,54.3025468 L0,19.3578959 C2.18723356,18.1998428 4.5907279,17.2542734 7.20748458,16.5196595 C10.8203743,15.5053966 14.6838025,15 18.7921951,15 C22.9166462,15 26.7655812,15.5310824 30.3326636,16.5977572 C33.9178738,17.6698526 37.0287254,19.1316826 39.6572912,20.9906286 C42.3582648,22.900782 44.5111466,25.2260626 46.0923002,27.9498988 C47.7188306,30.7519048 48.5410732,33.7670294 48.5410732,36.944 L48.5410732,37.944 L48.5410732,39.944 L46.5410732,39.944 L45.5410732,39.944 L27.7084878,39.944 L26.7627474,39.944 L24.8712666,39.944 L24.7658556,38.0554588 L24.71315,37.1111882 C24.6456638,35.9021074 24.1853132,35.1521692 23.1423744,34.549419 C21.6907856,33.710496 20.0099522,33.288 18.0491707,33.288 C15.7368221,33.288 14.101276,33.751448 13.0806371,34.589995 C12.1359456,35.3661442 11.7613659,36.0591712 11.7613659,36.816 C11.7613659,37.3271928 11.96913,37.881457 12.4587971,38.5321912 C12.8007023,38.9865596 14.6200334,39.8148084 17.5460488,40.5798522 L28.6653162,43.644785 C36.3045586,45.6765104 41.6753728,48.5212656 44.7946674,52.3202578 C47.8905214,56.090702 49.4698536,60.30047 49.4698536,64.848 C49.4698536,68.1280992 48.6069358,71.2050026 46.8983274,74.0204298 C46.4849514,74.7015864 46.0339562,75.3614854 45.545669,76 L45.545669,76 Z"/>
    <path fill="url(#eclipse-scout_icon-c)" d="M1.42108547e-14,68 L1.42108547e-14,64.848 L1.42108547e-14,64.848 L7.83258536,64.848 C8.20409942,66.640009 9.10191158,68.3039924 10.5260488,69.84 C11.950186,71.3760076 14.4578682,72.144 18.0491707,72.144 C20.7736072,72.144 23.2193712,71.5253396 25.3865366,70.288 C27.5537018,69.0506604 28.6372682,67.3226778 28.6372682,65.104 C28.6372682,63.311991 27.9561694,61.7760064 26.5939512,60.496 C25.231733,59.2159936 22.7550098,58.1066714 19.1637073,57.168 L10.0616585,54.864 C6.161227,53.8561154 2.80735402,52.5267582 1.42108547e-14,50.8759092 L1.42108547e-14,22.80463 C2.34967032,21.3812564 5.02242966,20.2490558 8.01834146,19.408 C11.3619679,18.4693286 14.9532166,18 18.7921951,18 C22.6311736,18 26.1914632,18.4906618 29.4731708,19.472 C32.7548782,20.4533382 35.5721508,21.7759916 37.9250732,23.44 C40.2779956,25.1040084 42.135538,27.1093216 43.497756,29.456 C44.8599742,31.8026784 45.5410732,34.2986534 45.5410732,36.944 L27.7084878,36.944 C27.5846498,34.7253222 26.5630014,33.0613388 24.6435122,31.952 C22.724023,30.8426612 20.525931,30.288 18.0491707,30.288 C15.0770583,30.288 12.7860894,30.9493268 11.1761951,32.272 C9.5663009,33.5946732 8.76136586,35.1093248 8.76136586,36.816 C8.76136586,38.0106726 9.19479242,39.1839942 10.0616585,40.336 C10.9285247,41.4880058 13.1575755,42.5333286 16.748878,43.472 L27.894244,46.544 C34.953011,48.4213428 39.8135802,50.9813172 42.4760976,54.224 C45.138615,57.4666828 46.4698536,61.0079808 46.4698536,64.848 C46.4698536,67.5786804 45.7577958,70.1173216 44.3336586,72.464 C43.5699528,73.7224264 42.6549022,74.90109 41.5884978,76 L8,76 C3.581722,76 1.47519377e-14,72.418278 1.42108547e-14,68 Z"/>
  </g>
</svg>
