<?xml version="1.0" encoding="UTF-8"?>
<svg width="96px" height="96px" viewBox="0 0 96 96" version="1.1" xmlns="http://www.w3.org/2000/svg" xmlns:xlink="http://www.w3.org/1999/xlink">
    <title>apps/96/fcitx/fcitx</title>
    <defs>
        <filter x="-8.8%" y="-6.2%" width="117.5%" height="117.5%" filterUnits="objectBoundingBox" id="filter-1">
            <feOffset dx="0" dy="2" in="SourceAlpha" result="shadowOffsetOuter1"></feOffset>
            <feGaussianBlur stdDeviation="2" in="shadowOffsetOuter1" result="shadowBlurOuter1"></feGaussianBlur>
            <feColorMatrix values="0 0 0 0 0   0 0 0 0 0   0 0 0 0 0  0 0 0 0.2 0" type="matrix" in="shadowBlurOuter1" result="shadowMatrixOuter1"></feColorMatrix>
            <feMerge>
                <feMergeNode in="shadowMatrixOuter1"></feMergeNode>
                <feMergeNode in="SourceGraphic"></feMergeNode>
            </feMerge>
        </filter>
        <linearGradient x1="50%" y1="0%" x2="50%" y2="100%" id="linearGradient-2">
            <stop stop-color="#DDDDDD" offset="0%"></stop>
            <stop stop-color="#9E9E9E" offset="100%"></stop>
        </linearGradient>
        <path d="M9.375,0 L70.625,0 C75.8026695,-9.51122462e-16 80,4.19733047 80,9.375 L80,34.625 C80,39.8026695 75.8026695,44 70.625,44 L9.375,44 C4.19733047,44 6.34081642e-16,39.8026695 0,34.625 L0,9.375 C-6.34081642e-16,4.19733047 4.19733047,9.51122462e-16 9.375,0 Z" id="path-3"></path>
        <filter x="-1.2%" y="-2.3%" width="102.5%" height="104.5%" filterUnits="objectBoundingBox" id="filter-4">
            <feOffset dx="0" dy="-2" in="SourceAlpha" result="shadowOffsetInner1"></feOffset>
            <feComposite in="shadowOffsetInner1" in2="SourceAlpha" operator="arithmetic" k2="-1" k3="1" result="shadowInnerInner1"></feComposite>
            <feColorMatrix values="0 0 0 0 0   0 0 0 0 0   0 0 0 0 0  0 0 0 0.25 0" type="matrix" in="shadowInnerInner1"></feColorMatrix>
        </filter>
        <linearGradient x1="50%" y1="0%" x2="50%" y2="100%" id="linearGradient-5">
            <stop stop-color="#E9E9E9" offset="0%"></stop>
            <stop stop-color="#E3E3E3" offset="100%"></stop>
        </linearGradient>
        <path d="M27.5,29 L61.5,29 C63.4329966,29 65,30.5670034 65,32.5 C65,34.4329966 63.4329966,36 61.5,36 L27.5,36 C25.5670034,36 24,34.4329966 24,32.5 C24,30.5670034 25.5670034,29 27.5,29 Z M9.5,18 L18.25,18 C20.1829966,18 21.75,19.5670034 21.75,21.5 C21.75,23.4329966 20.1829966,25 18.25,25 L9.5,25 C7.56700338,25 6,23.4329966 6,21.5 C6,19.5670034 7.56700338,18 9.5,18 Z M63.5,18 L70.5,18 C72.4329966,18 74,19.5670034 74,21.5 C74,23.4329966 72.4329966,25 70.5,25 L63.5,25 C61.5670034,25 60,23.4329966 60,21.5 C60,19.5670034 61.5670034,18 63.5,18 Z M70.5,36 C72.4329966,36 74,34.4329966 74,32.5 C74,30.5670034 72.4329966,29 70.5,29 C68.5670034,29 67,30.5670034 67,32.5 C67,34.4329966 68.5670034,36 70.5,36 Z M9.5,36 C11.4329966,36 13,34.4329966 13,32.5 C13,30.5670034 11.4329966,29 9.5,29 C7.56700338,29 6,30.5670034 6,32.5 C6,34.4329966 7.56700338,36 9.5,36 Z M18.5,36 C20.4329966,36 22,34.4329966 22,32.5 C22,30.5670034 20.4329966,29 18.5,29 C16.5670034,29 15,30.5670034 15,32.5 C15,34.4329966 16.5670034,36 18.5,36 Z M27.5,25 C29.4329966,25 31,23.4329966 31,21.5 C31,19.5670034 29.4329966,18 27.5,18 C25.5670034,18 24,19.5670034 24,21.5 C24,23.4329966 25.5670034,25 27.5,25 Z M36.5,25 C38.4329966,25 40,23.4329966 40,21.5 C40,19.5670034 38.4329966,18 36.5,18 C34.5670034,18 33,19.5670034 33,21.5 C33,23.4329966 34.5670034,25 36.5,25 Z M9.5,15 C11.4329966,15 13,13.4329966 13,11.5 C13,9.56700338 11.4329966,8 9.5,8 C7.56700338,8 6,9.56700338 6,11.5 C6,13.4329966 7.56700338,15 9.5,15 Z M52.5,15 C54.4329966,15 56,13.4329966 56,11.5 C56,9.56700338 54.4329966,8 52.5,8 C50.5670034,8 49,9.56700338 49,11.5 C49,13.4329966 50.5670034,15 52.5,15 Z M54.5,25 C56.4329966,25 58,23.4329966 58,21.5 C58,19.5670034 56.4329966,18 54.5,18 C52.5670034,18 51,19.5670034 51,21.5 C51,23.4329966 52.5670034,25 54.5,25 Z M45.5,25 C47.4329966,25 49,23.4329966 49,21.5 C49,19.5670034 47.4329966,18 45.5,18 C43.5670034,18 42,19.5670034 42,21.5 C42,23.4329966 43.5670034,25 45.5,25 Z M18.5,15 C20.4329966,15 22,13.4329966 22,11.5 C22,9.56700338 20.4329966,8 18.5,8 C16.5670034,8 15,9.56700338 15,11.5 C15,13.4329966 16.5670034,15 18.5,15 Z M27.375,14.75 C29.238961,14.75 30.75,13.238961 30.75,11.375 C30.75,9.51103897 29.238961,8 27.375,8 C25.511039,8 24,9.51103897 24,11.375 C24,13.238961 25.511039,14.75 27.375,14.75 Z M61.5,15 C63.4329966,15 65,13.4329966 65,11.5 C65,9.56700338 63.4329966,8 61.5,8 C59.5670034,8 58,9.56700338 58,11.5 C58,13.4329966 59.5670034,15 61.5,15 Z M70.5,15 C72.4329966,15 74,13.4329966 74,11.5 C74,9.56700338 72.4329966,8 70.5,8 C68.5670034,8 67,9.56700338 67,11.5 C67,13.4329966 68.5670034,15 70.5,15 Z M42.75,14.75 C44.613961,14.75 46.125,13.238961 46.125,11.375 C46.125,9.51103897 44.613961,8 42.75,8 C40.886039,8 39.375,9.51103897 39.375,11.375 C39.375,13.238961 40.886039,14.75 42.75,14.75 Z" id="path-6"></path>
        <filter x="-0.7%" y="-1.8%" width="101.5%" height="107.1%" filterUnits="objectBoundingBox" id="filter-7">
            <feOffset dx="0" dy="1" in="SourceAlpha" result="shadowOffsetOuter1"></feOffset>
            <feColorMatrix values="0 0 0 0 0   0 0 0 0 0   0 0 0 0 0  0 0 0 0.08 0" type="matrix" in="shadowOffsetOuter1"></feColorMatrix>
        </filter>
        <filter x="-0.7%" y="-1.8%" width="101.5%" height="107.1%" filterUnits="objectBoundingBox" id="filter-8">
            <feOffset dx="0" dy="1" in="SourceAlpha" result="shadowOffsetInner1"></feOffset>
            <feComposite in="shadowOffsetInner1" in2="SourceAlpha" operator="arithmetic" k2="-1" k3="1" result="shadowInnerInner1"></feComposite>
            <feColorMatrix values="0 0 0 0 1   0 0 0 0 1   0 0 0 0 1  0 0 0 0.3 0" type="matrix" in="shadowInnerInner1"></feColorMatrix>
        </filter>
        <linearGradient x1="50%" y1="0%" x2="50%" y2="100%" id="linearGradient-9">
            <stop stop-color="#03E297" offset="0%"></stop>
            <stop stop-color="#00A8D3" offset="98.5747466%"></stop>
        </linearGradient>
        <path d="M19.625,0 L53.2799341,8.8817842e-16 C56.380662,3.18583953e-16 58.8966205,2.50923813 58.904914,5.60995489 L58.9962214,39.7474621 C58.9985989,40.6363529 58.5806266,41.4740491 57.8689778,42.0066732 L38.1852463,56.7386999 C37.1861656,57.4864485 35.8138344,57.4864485 34.8147537,56.7386999 L15.1272537,42.0038527 C14.4177249,41.4728153 14,40.6384102 14,39.7521642 L14,5.625 C14,2.51839828 16.5183983,2.34703032e-15 19.625,1.77635684e-15 Z" id="path-10"></path>
        <filter x="-8.9%" y="-3.4%" width="117.8%" height="112.6%" filterUnits="objectBoundingBox" id="filter-11">
            <feOffset dx="0" dy="2" in="SourceAlpha" result="shadowOffsetOuter1"></feOffset>
            <feGaussianBlur stdDeviation="1" in="shadowOffsetOuter1" result="shadowBlurOuter1"></feGaussianBlur>
            <feColorMatrix values="0 0 0 0 0   0 0 0 0 0   0 0 0 0 0  0 0 0 0.1 0" type="matrix" in="shadowBlurOuter1"></feColorMatrix>
        </filter>
        <filter x="-6.7%" y="-1.7%" width="113.3%" height="109.1%" filterUnits="objectBoundingBox" id="filter-12">
            <feOffset dx="0" dy="-2" in="SourceAlpha" result="shadowOffsetInner1"></feOffset>
            <feComposite in="shadowOffsetInner1" in2="SourceAlpha" operator="arithmetic" k2="-1" k3="1" result="shadowInnerInner1"></feComposite>
            <feColorMatrix values="0 0 0 0 0   0 0 0 0 0   0 0 0 0 0  0 0 0 0.08 0" type="matrix" in="shadowInnerInner1" result="shadowMatrixInner1"></feColorMatrix>
            <feOffset dx="0" dy="2" in="SourceAlpha" result="shadowOffsetInner2"></feOffset>
            <feComposite in="shadowOffsetInner2" in2="SourceAlpha" operator="arithmetic" k2="-1" k3="1" result="shadowInnerInner2"></feComposite>
            <feColorMatrix values="0 0 0 0 1   0 0 0 0 1   0 0 0 0 1  0 0 0 0.25 0" type="matrix" in="shadowInnerInner2" result="shadowMatrixInner2"></feColorMatrix>
            <feMerge>
                <feMergeNode in="shadowMatrixInner1"></feMergeNode>
                <feMergeNode in="shadowMatrixInner2"></feMergeNode>
            </feMerge>
        </filter>
        <path d="M18,19.963125 L18,10.99625 L28,10.99625 L28,19.963125 L18,19.963125 Z M4,19.963125 L4,10.99625 L14,10.99625 L14,19.963125 L4,19.963125 Z M18,6.99625 L18,0 L14,0 L14,6.99625 L0,6.99625 L0,25.99625 L4,25.99625 L4,23.99625 L14,23.99625 L14,36.0675 L18,36.0675 L18,23.99625 L28,23.99625 L28,25.99625 L32,25.99625 L32,6.99625 L18,6.99625 Z" id="path-13"></path>
        <filter x="-10.9%" y="-6.9%" width="121.9%" height="119.4%" filterUnits="objectBoundingBox" id="filter-14">
            <feOffset dx="0" dy="1" in="SourceAlpha" result="shadowOffsetOuter1"></feOffset>
            <feGaussianBlur stdDeviation="1" in="shadowOffsetOuter1" result="shadowBlurOuter1"></feGaussianBlur>
            <feColorMatrix values="0 0 0 0 0   0 0 0 0 0   0 0 0 0 0  0 0 0 0.16 0" type="matrix" in="shadowBlurOuter1"></feColorMatrix>
        </filter>
    </defs>
    <g id="apps/96/fcitx/fcitx" stroke="none" stroke-width="1" fill="none" fill-rule="evenodd">
        <g id="编组-2" filter="url(#filter-1)" transform="translate(8, 8)">
            <g id="编组" transform="translate(0, 36)">
                <g id="矩形">
                    <use fill="url(#linearGradient-2)" fill-rule="evenodd" xlink:href="#path-3"></use>
                    <use fill="black" fill-opacity="1" filter="url(#filter-4)" xlink:href="#path-3"></use>
                </g>
                <g id="形状结合">
                    <use fill="black" fill-opacity="1" filter="url(#filter-7)" xlink:href="#path-6"></use>
                    <use fill="url(#linearGradient-5)" fill-rule="evenodd" xlink:href="#path-6"></use>
                    <use fill="black" fill-opacity="1" filter="url(#filter-8)" xlink:href="#path-6"></use>
                </g>
            </g>
            <g id="路径-4">
                <use fill="black" fill-opacity="1" filter="url(#filter-11)" xlink:href="#path-10"></use>
                <use fill="url(#linearGradient-9)" fill-rule="evenodd" xlink:href="#path-10"></use>
                <use fill="black" fill-opacity="1" filter="url(#filter-12)" xlink:href="#path-10"></use>
            </g>
            <g id="中" transform="translate(21, 8.0037)" fill-rule="nonzero">
                <g id="形状">
                    <use fill="black" fill-opacity="1" filter="url(#filter-14)" xlink:href="#path-13"></use>
                    <use fill="#FFFFFF" xlink:href="#path-13"></use>
                </g>
            </g>
        </g>
        <g id="Guide/96" transform="translate(3, 3)"></g>
    </g>
</svg>