<?xml version="1.0" encoding="UTF-8"?>
<svg width="96px" height="96px" viewBox="0 0 96 96" version="1.1" xmlns="http://www.w3.org/2000/svg" xmlns:xlink="http://www.w3.org/1999/xlink">
    <!-- Generator: Sketch 62 (91390) - https://sketch.com -->
    <title>flmsg_flmsg</title>
    <desc>Created with Sketch.</desc>
    <defs>
        <filter x="-15.8%" y="-15.8%" width="131.6%" height="131.6%" filterUnits="objectBoundingBox" id="filter-1">
            <feOffset dx="0" dy="2" in="SourceAlpha" result="shadowOffsetOuter1"></feOffset>
            <feGaussianBlur stdDeviation="2" in="shadowOffsetOuter1" result="shadowBlurOuter1"></feGaussianBlur>
            <feComposite in="shadowBlurOuter1" in2="SourceAlpha" operator="out" result="shadowBlurOuter1"></feComposite>
            <feColorMatrix values="0 0 0 0 0   0 0 0 0 0   0 0 0 0 0  0 0 0 0.2 0" type="matrix" in="shadowBlurOuter1" result="shadowMatrixOuter1"></feColorMatrix>
            <feMerge>
                <feMergeNode in="shadowMatrixOuter1"></feMergeNode>
                <feMergeNode in="SourceGraphic"></feMergeNode>
            </feMerge>
        </filter>
        <linearGradient x1="50%" y1="0%" x2="50%" y2="100%" id="linearGradient-2">
            <stop stop-color="#FFFFFF" offset="0%"></stop>
            <stop stop-color="#F0F0F0" offset="100%"></stop>
        </linearGradient>
    </defs>
    <g id="flmsg_flmsg" stroke="none" stroke-width="1" fill="none" fill-rule="evenodd">
        <g id="编组" filter="url(#filter-1)" transform="translate(10.000000, 10.000000)">
            <path d="M8,0 L68,0 C72.418278,-8.11624501e-16 76,3.581722 76,8 L76,42 L76,42 L76,68 C76,72.418278 72.418278,76 68,76 L8,76 C3.581722,76 5.41083001e-16,72.418278 0,68 L0,8 C-5.41083001e-16,3.581722 3.581722,8.11624501e-16 8,0 Z" id="矩形" fill="url(#linearGradient-2)"></path>
            <path d="M38,29 L38,34 L70,34 L70,35 L38,35 L38,40 L37,40 L37,35 L6,35 L6,34 L37,34 L37,29 L38,29 Z" id="形状结合" fill="#C7C7C7"></path>
            <rect id="矩形备份-4" fill="#D8D8D8" x="6" y="50" width="64" height="1"></rect>
            <rect id="矩形备份-2" fill="#909090" x="6" y="44" width="64" height="1"></rect>
            <rect id="矩形备份-3" fill="#909090" x="37" y="45" width="1" height="25"></rect>
            <text id="RADIOGRAM" font-family="Charter-Bold, Charter" font-size="10" font-weight="bold" fill="#000000">
                <tspan x="7" y="16">RADIOGRAM</tspan>
            </text>
            <text id="VIA-AMATEYR-RADIO" font-family="Charter-Bold, Charter" font-size="5" font-weight="bold" fill="#000000">
                <tspan x="12" y="23">VIA AMATEYR RADIO</tspan>
            </text>
            <text id="CUSTOM" font-family="Charter-Bold, Charter" font-size="4" font-weight="bold" fill="#000000">
                <tspan x="6" y="33">CUSTOM</tspan>
            </text>
            <text id="MSG-V2" font-family="Charter-Bold, Charter" font-size="4" font-weight="bold" fill="#000000">
                <tspan x="40" y="33">MSG V2</tspan>
            </text>
            <text id="MSG-V2备份" font-family="Charter-Bold, Charter" font-size="4" font-weight="bold" fill="#000000">
                <tspan x="40" y="49">MSG V2</tspan>
            </text>
            <text id="SITREP-V2" font-family="Charter-Bold, Charter" font-size="4" font-weight="bold" fill="#000000">
                <tspan x="40" y="39">SITREP V2</tspan>
            </text>
            <text id="TEMPLATES" font-family="Charter-Bold, Charter" font-size="4" font-weight="bold" fill="#000000">
                <tspan x="6" y="39">TEMPLATES</tspan>
            </text>
            <text id="AMRRON-SPOT-CAP-RIDA" font-family="STSongti-SC-Bold, Songti SC" font-size="4" font-weight="bold" line-spacing="4" letter-spacing="-0.1" fill="#000000">
                <tspan x="39" y="57">AMRRON SPOT </tspan>
                <tspan x="39" y="61">CAP RIDAIO </tspan>
                <tspan x="39" y="65">ICS-206 EXAMPLE</tspan>
                <tspan x="39" y="69">HICS-253</tspan>
            </text>
        </g>
    </g>
</svg>