<svg xmlns="http://www.w3.org/2000/svg" width="96" height="96" viewBox="0 0 96 96">
  <defs>
    <filter id="freemat_icon-a" width="130%" height="128.2%" x="-15%" y="-14.1%" filterUnits="objectBoundingBox">
      <feOffset dy="2" in="SourceAlpha" result="shadowOffsetOuter1"/>
      <feGaussianBlur in="shadowOffsetOuter1" result="shadowBlurOuter1" stdDeviation="2"/>
      <feColorMatrix in="shadowBlurOuter1" result="shadowMatrixOuter1" values="0 0 0 0 0   0 0 0 0 0   0 0 0 0 0  0 0 0 0.2 0"/>
      <feMerge>
        <feMergeNode in="shadowMatrixOuter1"/>
        <feMergeNode in="SourceGraphic"/>
      </feMerge>
    </filter>
    <linearGradient id="freemat_icon-b" x1="50%" x2="50%" y1="0%" y2="100%">
      <stop offset="0%" stop-color="#4FAEFF"/>
      <stop offset="100%" stop-color="#3380FF"/>
    </linearGradient>
  </defs>
  <g fill="none" filter="url(#freemat_icon-a)" transform="translate(8 6)">
    <path fill="#8CDCFF" d="M37.0256196,20.6129973 C46.1396222,14.5454401 55.7551247,13.7086972 59.6331094,17.2076756 C63.5110942,20.7066539 62.7483416,30.7005983 56.957045,40.0787847 C56.7569756,40.4027688 56.5232044,40.7622413 56.2557312,41.157202 C54.0249245,44.4512455 54.4827308,48.8759462 57.340462,51.6413354 L65.9765844,59.9983987 C67.3019854,61.280972 69.3870168,61.3320161 70.7733381,60.115829 C71.0494222,59.8736761 71.2887116,59.6679171 71.4912308,59.4985799 C74.7173925,56.8010125 77.201341,55.3537389 77.8423658,55.9740503 C78.8474456,56.9466529 74.9412912,62.6338874 69.1177258,68.6768442 C63.2941605,74.7198009 57.7584498,78.8301351 56.7533701,77.8575325 C56.1548185,77.278322 57.2980447,75.0270589 59.5507398,72.0243648 C59.6819643,71.8494512 59.8388427,71.6459605 60.0213751,71.4138927 C61.1602625,69.9659854 61.0197695,67.889062 59.6963306,66.6083875 L51.0137632,58.2063801 C48.1187306,55.4048947 43.6490301,55.0507287 40.3505914,57.3614614 C39.9969181,57.6092468 39.6730686,57.8275072 39.3790514,58.0162551 C30.5000364,63.7162461 21.2170127,64.3688741 17.455118,60.97464 C13.6932232,57.5804059 14.1332037,49.1672103 18.6100331,40.7503458 C18.9117857,40.1740491 19.6344181,39.0402658 20.7779302,37.348996 C22.7628981,34.4132387 22.3536685,30.4723796 19.8080581,28.0090255 L13.2552419,21.6679506 C11.9422659,20.3974008 9.8822874,20.3300799 8.48948769,21.5122039 C8.26947764,21.6989734 8.07617519,21.8598924 7.90959918,21.9949833 C4.97768222,24.3727274 2.75837428,25.6072781 2.15763416,25.0259497 C1.15255442,24.0533471 5.0587088,18.3661126 10.8822742,12.3231558 C16.7058395,6.28019908 22.2415502,2.1698649 23.2466299,3.14246749 C23.8929389,3.76789232 22.5084345,6.34283492 19.8891755,9.70825915 C19.7149493,9.93211828 19.4997544,10.2005591 19.2435908,10.5135817 C18.144005,11.8571896 18.2578373,13.8215884 19.5052072,15.028652 L26.0418669,21.3540925 C28.5479956,23.7792406 32.4431635,24.014671 35.2220153,21.9089557 C35.911751,21.386281 36.5129552,20.9542986 37.0256196,20.6129973 Z M35.5808652,52.8028657 C44.6308374,54.0884959 52.8265154,48.9509517 53.8864242,41.3278395 C54.9463331,33.7047273 48.469107,26.4827646 39.4191348,25.1971343 C30.3691626,23.9115041 22.1734846,29.0490483 21.1135758,36.6721605 C20.0536669,44.2952727 26.530893,51.5172354 35.5808652,52.8028657 Z" transform="rotate(-2 40 40.5)"/>
    <g transform="translate(4)">
      <path fill="#000205" d="M44.2845576,26.7930902 C45.1454104,26.9289368 45.8795438,27.0639508 46.4869579,27.1981324 C57.3880547,29.6062529 65,36.3035067 65,41.4444444 C65,46.5853822 57.3271922,53.3262915 46.3563192,55.7194343 C45.9841677,55.8006139 45.5639364,55.8821475 45.0956253,55.9640351 L45.0956312,55.9640688 C41.0865114,56.6650926 38.1612903,60.1461925 38.1612903,64.2161404 C38.1612903,66.05702 38.1612903,69.4667051 38.1612903,76.51927 C38.1612903,78.4073731 39.6073444,79.9808787 41.488732,80.1399836 C41.8554942,80.1709719 42.1708888,80.2007881 42.434918,80.2294044 C46.6962524,80.691261 49.516129,81.4941953 49.516129,82.4074074 C49.516129,83.8392568 42.5837639,85 34.0322581,85 C25.4807523,85 18.5483871,83.8392568 18.5483871,82.4074074 C18.5483871,81.5547033 21.0069625,80.7981474 24.8019365,80.3256351 C25.0195321,80.2985422 25.2750137,80.2701027 25.5683811,80.2403163 C27.4439618,80.0498889 28.8709677,78.470659 28.8709677,76.5854361 C28.8709677,69.8154897 28.8709677,66.3837492 28.8709677,64.2161404 C28.8709677,60.0931082 25.9538717,56.5462419 21.9083767,55.7503995 C21.4864744,55.667406 21.1056574,55.5853939 20.7659248,55.5043673 C10.3004898,53.0083517 3.06451613,46.5944085 3.06451613,41.4444444 C3.06451613,36.2944804 9.35666298,30.6076169 18.6921842,27.9284197 C19.3252553,27.7422655 20.6586963,27.4710681 22.6925073,27.1148275 C26.2648609,26.4891036 28.8709677,23.3868368 28.8709677,19.7600971 C28.8709677,18.051774 28.8709677,14.9400324 28.8709677,10.4248721 C28.8709677,8.55454943 27.4548936,6.98796724 25.5940716,6.7996896 C25.3072659,6.77067956 25.0571149,6.7429713 24.8436179,6.71657365 C21.0249745,6.24442095 18.5483871,5.48545161 18.5483871,4.62962963 C18.5483871,3.19778028 25.4807523,2.03703704 34.0322581,2.03703704 C42.5837639,2.03703704 49.516129,3.19778028 49.516129,4.62962963 C49.516129,5.55036967 46.6495704,6.35900633 42.3292419,6.81898467 C42.045067,6.84924032 41.7005835,6.88093363 41.2957915,6.91406462 L41.2957886,6.91402802 C39.5247633,7.05898103 38.1612903,8.53860933 38.1612903,10.3155567 C38.1612903,14.3054364 38.1612903,17.4095059 38.1612903,19.627765 C38.1612903,23.1975027 40.7584547,26.2366504 44.2845583,26.7930859 L44.2845576,26.7930902 Z M34.0322581,53.8888889 C42.5837639,53.8888889 49.516129,48.0851727 49.516129,40.9259259 C49.516129,33.7666792 42.5837639,27.962963 34.0322581,27.962963 C25.4807523,27.962963 18.5483871,33.7666792 18.5483871,40.9259259 C18.5483871,48.0851727 25.4807523,53.8888889 34.0322581,53.8888889 Z"/>
      <path fill="url(#freemat_icon-b)" stroke="#000" stroke-width=".3" d="M42.2434229,25.6078867 C43.1070827,25.7441762 43.8441259,25.8797254 44.4547976,26.0146266 C54.9303899,28.3287505 63.0854839,34.8522603 63.0854839,40.4074074 C63.0854839,45.9720344 54.8530183,52.5321428 44.3237717,54.828951 C43.9494613,54.9106016 43.5272098,54.9925272 43.056947,55.074756 C39.119612,55.7632618 36.2467742,59.182036 36.2467742,63.1791034 C36.2467742,66.7248255 36.2467742,66.7248255 36.2467742,75.482233 C36.2467742,77.2923934 37.6331338,78.8009431 39.4368446,78.9534792 C39.8043602,78.9845311 40.1209991,79.0144579 40.3865647,79.0432407 C44.8799215,79.5302445 47.6016129,80.3496688 47.6016129,81.3703704 C47.6016129,82.9507022 40.6601846,84.112963 31.9677419,84.112963 C23.2752993,84.112963 16.333871,82.9507022 16.333871,81.3703704 C16.333871,80.4123604 18.7067506,79.6392986 22.718887,79.1397474 C22.9377017,79.1125028 23.1942857,79.0839405 23.4887134,79.0540465 C25.2877112,78.8713945 26.6564516,77.3566471 26.6564516,75.548399 C26.6564516,70.888215 26.6564516,70.888215 26.6564516,67.6378746 C26.6564516,64.9628264 26.6564516,64.9628264 26.6564516,63.1791034 C26.6564516,59.1277511 23.7900701,55.6425481 19.8149085,54.8605419 C19.3911683,54.7771868 19.0084163,54.6947591 18.6666096,54.6132379 C8.4876115,52.1855377 0.85,45.9464334 0.85,40.4074074 C0.85,35.0212862 7.28067551,29.417817 16.5853521,26.7474752 C17.2256962,26.5591823 18.562662,26.2872681 20.6021115,25.9300399 C24.1026983,25.3168865 26.6564516,22.2769426 26.6564516,18.7230601 C26.6564516,15.4588662 26.6564516,15.4588662 26.6564516,9.3878351 C26.6564516,7.59450805 25.2986731,6.09241741 23.5144602,5.91189107 C23.2267319,5.88278771 22.9754709,5.85495875 22.7606953,5.82840301 C18.7240554,5.32929632 16.333871,4.55382906 16.333871,3.59259259 C16.333871,2.01226076 23.2752993,0.85 31.9677419,0.85 C40.6601846,0.85 47.6016129,2.01226076 47.6016129,3.59259259 C47.6016129,4.6211079 44.8345882,5.44624958 40.2806063,5.93110463 C39.9950968,5.96150236 39.6494362,5.99330398 39.2435085,6.02652792 C37.550326,6.16507451 36.2467742,7.57966539 36.2467742,9.27851966 C36.2467742,14.8204341 36.2467742,14.8204341 36.2467742,18.590728 C36.2467742,22.0866496 38.7902337,25.062953 42.2434235,25.6078824 L42.2434229,25.6078867 Z M31.9677419,52.7018519 C40.4417189,52.7018519 47.3016129,46.9588078 47.3016129,39.8888889 C47.3016129,32.8189699 40.4417189,27.0759259 31.9677419,27.0759259 C23.493765,27.0759259 16.633871,32.8189699 16.633871,39.8888889 C16.633871,46.9588078 23.493765,52.7018519 31.9677419,52.7018519 Z"/>
    </g>
  </g>
</svg>
