<svg xmlns="http://www.w3.org/2000/svg" width="96" height="96" viewBox="0 0 96 96">
  <defs>
    <filter id="ganttproject_icon-a" width="132.4%" height="128.6%" x="-16.2%" y="-14.3%" filterUnits="objectBoundingBox">
      <feOffset dy="2" in="SourceAlpha" result="shadowOffsetOuter1"/>
      <feGaussianBlur in="shadowOffsetOuter1" result="shadowBlurOuter1" stdDeviation="2"/>
      <feColorMatrix in="shadowBlurOuter1" result="shadowMatrixOuter1" values="0 0 0 0 0   0 0 0 0 0   0 0 0 0 0  0 0 0 0.2 0"/>
      <feMerge>
        <feMergeNode in="shadowMatrixOuter1"/>
        <feMergeNode in="SourceGraphic"/>
      </feMerge>
    </filter>
    <linearGradient id="ganttproject_icon-b" x1="67.615%" x2="50%" y1="0%" y2="100%">
      <stop offset="0%" stop-color="#FFE000"/>
      <stop offset="100%" stop-color="#FFBD00"/>
    </linearGradient>
    <linearGradient id="ganttproject_icon-c" x1="80.042%" x2="50%" y1="0%" y2="100%">
      <stop offset="0%" stop-color="#C9C9C9"/>
      <stop offset="100%" stop-color="#999"/>
    </linearGradient>
  </defs>
  <g fill="none" filter="url(#ganttproject_icon-a)" transform="translate(9 8)">
    <path fill="url(#ganttproject_icon-b)" d="M46.420422,47.3701668 L51.1439408,39.1276366 L38.041385,31.5628724 L33.2649036,39.7748248 L46.420422,47.3701668 L46.420422,47.3701668 L46.420422,47.3701668 Z M45.4675918,49.013981 C43.8879408,51.7139882 43.0971624,54.57389 43.1029652,56.9254864 L43.0834102,65.7337032 C38.3685962,69.1544708 31.8950756,69.6989884 26.5426628,66.6087716 C21.1795108,63.5123542 18.4172178,57.64111 19.0260052,51.8489182 L26.6484826,47.4254864 C28.6879262,46.2547138 30.7692846,44.1399286 32.317734,41.421907 L45.4675918,49.013981 L45.4675918,49.013981 L45.4675918,49.013981 Z M52.0886446,37.4791304 L56.8121632,29.2366002 L43.7731626,21.7085296 L38.9966812,29.920482 L52.0886446,37.4791304 L52.0886446,37.4791304 L52.0886446,37.4791304 Z M57.756867,27.588094 L60.6197258,22.5924116 C62.2549314,19.9207341 65.750659,19.0397259 68.4627502,20.6055524 L70.0027988,21.4947 L70.0027988,21.4947 C72.9401924,14.5238596 70.3010382,6.30937136 63.5926628,2.4362891 C56.8984326,-1.42862656 48.4505258,0.392038216 43.8829528,6.41439978 L45.4225756,7.30330146 C48.1346668,8.869128 49.1195552,12.3370211 47.6234174,15.0889894 L44.7284588,20.066139 L57.756867,27.588094 L57.756867,27.588094 L57.756867,27.588094 Z"/>
    <path fill="url(#ganttproject_icon-c)" d="M62.324462,23.6328776 C63.375786,21.811931 65.6941616,21.2010382 67.5127502,22.2510008 L67.5127502,22.2510008 L69.9770238,23.6737498 C71.7956946,24.7237598 73.2668572,27.2821462 73.2631482,29.3881714 L73.2631482,29.3881714 L73.1992534,65.5955444 C73.1955568,67.6904972 71.7299966,70.2690026 69.9258768,71.3300662 L69.9258768,71.3300662 L49.8746044,83.122894 C47.1718704,84.7124628 45.012317,83.4652462 45.0815232,80.319269 L45.0815232,80.319269 L45.611603,56.222832 C45.657257,54.1474914 46.5435226,50.9662662 47.5903466,49.153114 L47.5903466,49.153114 Z M42.008302,7.52600074 L44.4725756,8.94874974 C46.2911642,9.99871236 46.9213032,12.311931 45.8699792,14.1328776 L31.1358638,39.653114 C30.08904,41.4662662 27.777151,43.8244074 26.0026802,44.9016152 L5.3995937,57.4088962 C2.70970054,59.0418192 0.54980257,57.7951994 0.574823549,54.6597788 L0.762294844,31.3984534 C0.779142932,29.305508 2.27941402,26.747043 4.09184812,25.6963654 L35.416409,7.53735044 C37.2384224,6.48111954 40.1896312,6.4759906 42.008302,7.52600074 Z"/>
  </g>
</svg>
