<svg xmlns="http://www.w3.org/2000/svg" width="96" height="96" viewBox="0 0 96 96">
  <defs>
    <filter id="geotranz-a" width="131.2%" height="128.6%" x="-15.6%" y="-14.3%" filterUnits="objectBoundingBox">
      <feOffset dy="2" in="SourceAlpha" result="shadowOffsetOuter1"/>
      <feGaussianBlur in="shadowOffsetOuter1" result="shadowBlurOuter1" stdDeviation="2"/>
      <feColorMatrix in="shadowBlurOuter1" result="shadowMatrixOuter1" values="0 0 0 0 0   0 0 0 0 0   0 0 0 0 0  0 0 0 0.2 0"/>
      <feMerge>
        <feMergeNode in="shadowMatrixOuter1"/>
        <feMergeNode in="SourceGraphic"/>
      </feMerge>
    </filter>
    <linearGradient id="geotranz-b" x1="50%" x2="50%" y1="0%" y2="100%">
      <stop offset="2.483%" stop-color="#FF867C"/>
      <stop offset="100%" stop-color="#A50000"/>
    </linearGradient>
    <linearGradient id="geotranz-c" x1="50%" x2="50%" y1="0%" y2="100%">
      <stop offset="2.483%" stop-color="#FF867C"/>
      <stop offset="100%" stop-color="#A50000"/>
    </linearGradient>
  </defs>
  <g fill="none" fill-rule="evenodd" filter="url(#geotranz-a)" transform="translate(10 6)">
    <path fill="url(#geotranz-b)" d="M4,19 C4.55228475,19 5,19.4477153 5,20 L5,20 L5,23 C5,23.5522847 5.44771525,24 6,24 L6,24 L7,24 C7.55228475,24 8,23.5522847 8,23 L8,23 L8,20 C8,19.4477153 8.44771525,19 9,19 L9,19 L11,19 C11.5522847,19 12,19.4477153 12,20 L12,20 L12,23 C12,23.5522847 12.4477153,24 13,24 L13,24 L14,24 C14.5522847,24 15,23.5522847 15,23 L15,23 L15,20 C15,19.4477153 15.4477153,19 16,19 L16,19 L19,19 C19.5522847,19 20,19.4477153 20,20 L20,20 L20,26 C20,26.5522847 19.5522847,27 19,27 L19,27 L18,27 C17.4477153,27 17,27.4477153 17,28 L17,28 L17,41 C17,41.5522847 17.4477153,42 18,42 L18,42 L26,42 C26.5522847,42 27,41.5522847 27,41 L27,41 L27,37 C27,36.4477153 26.5522847,36 26,36 L26,36 L25,36 C24.4477153,36 24,35.5522847 24,35 L24,35 L24,28 C24,27.4477153 24.4477153,27 25,27 L25,27 L29,27 C29.5522847,27 30,27.4477153 30,28 L30,28 L30,32 C30,32.5522847 30.4477153,33 31,33 L31,33 L32,33 C32.5522847,33 33,32.5522847 33,32 L33,32 L33,28 C33,27.4477153 33.4477153,27 34,27 L34,27 L37,27 C37.5522847,27 38,27.4477153 38,28 L38,28 L38,32 C38,32.5522847 38.4477153,33 39,33 L39,33 L40,33 C40.5522847,33 41,32.5522847 41,32 L41,32 L41,28 C41,27.4477153 41.4477153,27 42,27 L42,27 L45,27 C45.5522847,27 46,27.4477153 46,28 L46,28 L46,35 C46,35.5522847 45.5522847,36 45,36 C44.4477153,36 44,36.4477153 44,37 L44,37 L44,40.9627478 C44,41.5134172 44.4451972,41.9604605 44.9958619,41.9627392 L44.9958619,41.9627392 L52.9958619,41.9958447 L52.9958619,41.9958447 C53.5522847,41.9958533 54,41.548138 54,40.9958533 L54,40.9958533 L54,29 C54,28.4477153 53.5522847,28 53,28 L53,28 L52,28 C51.4477153,28 51,27.5522847 51,27 L51,27 L51,20 C51,19.4477153 51.4477153,19 52,19 L52,19 L55,19 C55.5522847,19 56,19.4477153 56,20 L56,20 L56,22 C56,22.5522847 56.4477153,23 57,23 L57,23 L58,23 C58.5522847,23 59,22.5522847 59,22 L59,22 L59,20 C59,19.4477153 59.4477153,19 60,19 C60.5522847,19 61,19.4477153 61,20 L61,20 L61,22 C61,22.5522847 61.4477153,23 62,23 L62,23 L63,23 C63.5522847,23 64,22.5522847 64,22 L64,22 L64,20 C64,19.4477153 64.4477153,19 65,19 L65,19 L69,19 C69.5522847,19 70,19.4477153 70,20 L70,20 L70,27 C70,27.5522847 69.5522847,28 69,28 L69,28 L68,28 C67.4477153,28 67,28.4477153 67,29 L67,29 L67,58 C67,58.5522847 67.4477153,59 68,59 L68,59 L69,59 C69.5522847,59 70,59.4477153 70,60 L70,60 L70,66 C70,66.5522847 69.5522847,67 69,67 L69,67 L1.03186662,67 C1.03068661,67 1.0295066,66.9999979 1.0283266,66.9999937 C0.476045311,66.9980386 0.029917786,66.5487413 0.0318728834,65.99646 L0.0318728834,65.99646 L0.0531131177,59.99646 C0.0550633229,59.4455606 0.502204061,59 1.05310685,59 L1.05310685,59 L2,59 C2.55228475,59 3,58.5522847 3,58 L3,58 L3,27 C3,26.4477153 2.55228475,26 2,26 L2,26 L1.00405394,26 C1.00270536,26 1.00135679,25.9999973 1.00000822,25.9999918 C0.447727987,25.9977574 0.00182773429,25.5482345 0.00406212696,24.9959543 L0.00406212696,24.9959543 L0.0242909216,19.9959543 C0.0265189249,19.4452533 0.473577285,19 1.02428274,19 L1.02428274,19 Z M9,48 L8,48 C7.44771525,48 7,48.4477153 7,49 L7,49 L7,58 C7,58.5522847 7.44771525,59 8,59 L8,59 L9,59 C9.55228475,59 10,58.5522847 10,58 L10,58 L10,49 C10,48.4477153 9.55228475,48 9,48 L9,48 Z M35,42 L32,42 C31.4477153,42 31,42.4477153 31,43 C31,43.5522847 30.5522847,44 30,44 L30,44 L29,44 C28.4477153,44 28,44.4477153 28,45 L28,45 L28,58 C28,58.5522847 28.4477153,59 29,59 L29,59 L38,59 C38.5522847,59 39,58.5522847 39,58 L39,58 L39,45 C39,44.4477153 38.5522847,44 38,44 L38,44 L37,44 C36.4477153,44 36,43.5522847 36,43 C36,42.4477153 35.5522847,42 35,42 L35,42 Z M60,48 L59,48 C58.4477153,48 58,48.4477153 58,49 L58,49 L58,58 C58,58.5522847 58.4477153,59 59,59 L59,59 L60,59 C60.5522847,59 61,58.5522847 61,58 L61,58 L61,49 C61,48.4477153 60.5522847,48 60,48 L60,48 Z M19,48 L18,48 C17.4477153,48 17,48.4477153 17,49 L17,49 L17,55 C17,55.5522847 17.4477153,56 18,56 L18,56 L19,56 C19.5522847,56 20,55.5522847 20,55 L20,55 L20,49 C20,48.4477153 19.5522847,48 19,48 L19,48 Z M49,48 L48,48 C47.4477153,48 47,48.4477153 47,49 L47,49 L47,55 C47,55.5522847 47.4477153,56 48,56 L48,56 L49,56 C49.5522847,56 50,55.5522847 50,55 L50,55 L50,49 C50,48.4477153 49.5522847,48 49,48 L49,48 Z M9,29 L8,29 C7.44771525,29 7,29.4477153 7,30 L7,30 L7,39 C7,39.5522847 7.44771525,40 8,40 L8,40 L9,40 C9.55228475,40 10,39.5522847 10,39 L10,39 L10,30 C10,29.4477153 9.55228475,29 9,29 L9,29 Z M59,29 L58,29 C57.4477153,29 57,29.4477153 57,30 L57,30 L57,39 C57,39.5522847 57.4477153,40 58,40 L58,40 L59,40 C59.5522847,40 60,39.5522847 60,39 L60,39 L60,30 C60,29.4477153 59.5522847,29 59,29 L59,29 Z"/>
    <rect width="3" height="84" x="74" fill="url(#geotranz-c)"/>
  </g>
</svg>
