<svg xmlns="http://www.w3.org/2000/svg" width="96" height="96" viewBox="0 0 96 96">
  <defs>
    <filter id="国际象棋-a" width="130.8%" height="130.8%" x="-15.4%" y="-15.4%" filterUnits="objectBoundingBox">
      <feOffset dy="2" in="SourceAlpha" result="shadowOffsetOuter1"/>
      <feGaussianBlur in="shadowOffsetOuter1" result="shadowBlurOuter1" stdDeviation="2"/>
      <feColorMatrix in="shadowBlurOuter1" result="shadowMatrixOuter1" values="0 0 0 0 0   0 0 0 0 0   0 0 0 0 0  0 0 0 0.2 0"/>
      <feMerge>
        <feMergeNode in="shadowMatrixOuter1"/>
        <feMergeNode in="SourceGraphic"/>
      </feMerge>
    </filter>
    <linearGradient id="国际象棋-b" x1="50%" x2="50%" y1="2.15%" y2="100%">
      <stop offset="0%" stop-color="#C9C7BE"/>
      <stop offset="100%" stop-color="#CECBBC"/>
    </linearGradient>
    <linearGradient id="国际象棋-c" x1="50%" x2="50%" y1="0%" y2="100%">
      <stop offset="0%" stop-color="#726C6B"/>
      <stop offset="100%" stop-color="#3E3A39"/>
    </linearGradient>
    <linearGradient id="国际象棋-d" x1="50%" x2="50%" y1="0%" y2="100%">
      <stop offset="0%" stop-color="#726C6B"/>
      <stop offset="100%" stop-color="#3E3A39"/>
    </linearGradient>
  </defs>
  <g fill="none" filter="url(#国际象棋-a)" transform="translate(9 9)">
    <path fill="url(#国际象棋-b)" d="M0,60 L0,18 C-1.21743675e-15,8.0588745 8.0588745,1.82615513e-15 18,0 L60,0 C69.9411255,-1.82615513e-15 78,8.0588745 78,18 L78,60 C78,69.9411255 69.9411255,78 60,78 L18,78 C8.0588745,78 1.21743675e-15,69.9411255 0,60 Z"/>
    <path fill="url(#国际象棋-c)" d="M39 78L18 78C8.0588745 78 1.21743675e-15 69.9411255 0 60L0 39 0 39 39 39 39 78zM78 39L39 39 39 0 60 0C69.9411255-1.82615513e-15 78 8.0588745 78 18L78 39 78 39z"/>
    <path fill="#FFF" d="M63.5796842,68.905 C63.5755789,68.6443158 63.7295263,66.4562105 60.7963158,64.9885789 C60.7963158,64.9885789 57.1652105,63.5312105 57.8836316,56.2566842 C59.5318947,55.9077368 60.8537895,55.2447368 60.8537895,54.5078421 C60.8537895,53.7401579 59.5708947,53.1531053 57.8097368,52.8164737 C57.8097368,52.7261579 57.8179474,51.9523158 57.7974211,51.9338421 C59.9814211,51.0265789 61.4736842,49.3208421 61.4736842,47.3421053 C61.4736842,44.4191579 58.2572105,42.0504211 54.2894737,42.0504211 C50.3217368,42.0504211 47.1052632,44.4191579 47.1052632,47.3421053 C47.1052632,49.327 48.6077895,51.0368421 50.8041053,51.9420526 C50.7774211,51.9420526 50.8266842,52.6112105 50.8266842,52.6974211 C49.0306316,53.0299474 47.6635789,53.7319474 47.6635789,54.5078421 C47.6635789,55.2529474 48.9587895,55.879 50.6337368,56.2238421 C51.2987895,63.5537895 47.7949474,64.9885789 47.7949474,64.9885789 C44.8596842,66.4562105 45.0156842,68.6422632 45.0115789,68.9008947 C43.897,68.9275789 43,69.8286842 43,70.9473684 L43,71.9736842 C43,72.5402105 43.4597895,73 44.0263158,73 L64.5526316,73 C65.1191579,73 65.5789474,72.5402105 65.5789474,71.9736842 L65.5789474,70.9473684 C65.5789474,69.8327895 64.6860526,68.9357895 63.5796842,68.905 Z"/>
    <path fill="url(#国际象棋-d)" d="M30.9473684,31.0973429 C30.9473684,29.9642902 30.0277895,28.7881323 28.8947368,28.7881323 L28.6381579,28.7881323 C26.5855263,23.7838165 27.0904737,14.3519744 27.0904737,14.3519744 C28.0593158,14.1877639 28.8085263,14.4197113 28.8085263,12.3670797 L28.8947368,12.3670797 C30.0277895,12.3670797 30.9473684,11.9606586 30.9473684,10.827606 L30.9473684,6 L27.0862105,6 L27.0862105,8 L27,8 L25,8 L25,6 L17,6 L17,8 L15.0862105,8 L15,8 L15,6 L10.4210526,6 L10.4210526,10.827606 C10.4210526,11.9606586 11.3406316,12.3670797 12.4736842,12.3670797 L12.5598947,12.3670797 C12.5598947,14.4197113 14.2779474,14.3519744 14.2779474,14.3519744 C14.2779474,14.3519744 15.489,22.5973955 12.7302632,28.7881323 L12.4736842,28.7881323 C11.3406316,28.7881323 10.4210526,29.9642902 10.4210526,31.0973429 C9.288,31.0973429 8.36842105,32.2735008 8.36842105,33.4065534 L8.36842105,36.4868421 C8.36842105,37.0533684 8.82821053,37 9.39473684,37 L31.9736842,37 C32.5402105,37 33,37.0533684 33,36.4868421 L33,33.4065534 C33,32.2735008 32.0804211,31.0973429 30.9473684,31.0973429 Z M28,32.018 C28,32.56 27.56,33 27.018,33 L12.98,33 C12.44,33 12,32.56 12,32.018 L12,31.98 C12,31.44 12.44,31 12.982,31 L27.02,31 C27.56,31 28,31.44 28,31.982 L28,32.018 Z M25,15 C25,15.552 24.552,16 24,16 L18,16 C17.448,16 17,15.552 17,15 L17,15 C17,14.448 17.448,14 18,14 L24,14 C24.552,14 25,14.448 25,15 L25,15 Z"/>
  </g>
</svg>
