<svg xmlns="http://www.w3.org/2000/svg" width="96" height="96" viewBox="0 0 96 96">
  <defs>
    <filter id="aisleriot_icon-a" width="128.9%" height="131.6%" x="-14.5%" y="-15.8%" filterUnits="objectBoundingBox">
      <feOffset dy="2" in="SourceAlpha" result="shadowOffsetOuter1"/>
      <feGaussianBlur in="shadowOffsetOuter1" result="shadowBlurOuter1" stdDeviation="2"/>
      <feColorMatrix in="shadowBlurOuter1" result="shadowMatrixOuter1" values="0 0 0 0 0   0 0 0 0 0   0 0 0 0 0  0 0 0 0.2 0"/>
      <feMerge>
        <feMergeNode in="shadowMatrixOuter1"/>
        <feMergeNode in="SourceGraphic"/>
      </feMerge>
    </filter>
  </defs>
  <g fill="none" filter="url(#aisleriot_icon-a)" transform="translate(7 8)">
    <path fill="#F4F4F3" d="M33.3586039,6.9924046 L61.747347,6.9924046 C66.165625,6.9924046 69.747347,10.5741266 69.747347,14.9924046 L69.747347,60.3269251 C69.747347,64.7452031 66.165625,68.3269251 61.747347,68.3269251 L33.3586039,68.3269251 C28.9403259,68.3269251 25.3586039,64.7452031 25.3586039,60.3269251 L25.3586039,14.9924046 C25.3586039,10.5741266 28.9403259,6.9924046 33.3586039,6.9924046 Z" transform="rotate(29.888 47.553 37.66)"/>
    <path fill="#A6C4ED" d="M24.785801,19.3593563 L70.3277377,19.3593563 C72.5368767,19.3593563 74.3277377,21.1502173 74.3277377,23.3593563 L74.3277377,51.9536695 C74.3277377,54.1628085 72.5368767,55.9536695 70.3277377,55.9536695 L24.785801,55.9536695 C22.576662,55.9536695 20.785801,54.1628085 20.785801,51.9536695 L20.785801,23.3593563 C20.785801,21.1502173 22.576662,19.3593563 24.785801,19.3593563 Z" transform="rotate(119.888 47.557 37.657)"/>
    <g fill="#83A9DE" transform="translate(17 7.077)">
      <polygon points="21.853 10.944 58.409 10.944 58.409 16.304 21.853 16.304" transform="rotate(30.173 40.131 13.624)"/>
      <polygon points="49.023 35.186 17.088 16.49 19.763 11.887 51.7 30.582"/>
      <polygon points="43.61 44.535 11.823 26.162 14.383 21.755 46.172 40.128"/>
      <polygon points="33.031 62.91 .942 44.479 3.502 40.073 35.594 58.503"/>
      <polygon points="38.038 54.185 6.177 35.564 8.738 31.158 40.599 49.778"/>
      <polygon points="13.535 33.803 66.968 33.803 66.968 38.772 13.535 38.772" transform="rotate(120.173 40.251 36.287)"/>
      <polygon points="-6.046 22.346 47.387 22.346 47.387 27.462 -6.046 27.462" transform="rotate(120.173 20.67 24.904)"/>
      <polygon points="3.818 28.098 57.251 28.098 57.251 33.214 3.818 33.214" transform="rotate(120.173 30.534 30.656)"/>
    </g>
    <path fill="#FAFAF9" d="M19.132667,6.17662608 L47.5194089,6.17662608 C51.9376869,6.17662608 55.5194089,9.75834808 55.5194089,14.1766261 L55.5194089,59.5083816 C55.5194089,63.9266596 51.9376869,67.5083816 47.5194089,67.5083816 L19.132667,67.5083816 C14.714389,67.5083816 11.132667,63.9266596 11.132667,59.5083816 L11.132667,14.1766261 C11.132667,9.75834808 14.714389,6.17662608 19.132667,6.17662608 Z" transform="rotate(14.106 33.326 36.843)"/>
    <path fill="#A6C4ED" d="M10.5610079,18.548789 L56.1005308,18.548789 C58.3096698,18.548789 60.1005308,20.33965 60.1005308,22.548789 L60.1005308,51.1432985 C60.1005308,53.3524375 58.3096698,55.1432985 56.1005308,55.1432985 L10.5610079,55.1432985 C8.35186886,55.1432985 6.56100786,53.3524375 6.56100786,51.1432985 L6.56100786,22.548789 C6.56100786,20.33965 8.35186886,18.548789 10.5610079,18.548789 Z" transform="rotate(104.106 33.33 36.846)"/>
    <g fill="#83A9DE" transform="translate(8.77 7.077)">
      <polygon points="11.029 8.12 47.588 8.12 47.588 13.48 11.029 13.48" transform="rotate(13.957 29.308 10.8)"/>
      <polygon points="8.22 19.151 44.778 19.151 44.778 24.476 8.22 24.476" transform="rotate(13.957 26.499 21.814)"/>
      <polygon points="40.913 39.563 5.622 30.744 6.852 25.796 42.143 34.615"/>
      <polygon points=".365 50.761 36.924 50.761 36.924 55.858 .365 55.858" transform="rotate(13.957 18.644 53.31)"/>
      <polygon points="2.903 40.738 39.462 40.738 39.462 45.835 2.903 45.835" transform="rotate(13.957 21.182 43.286)"/>
      <polygon points="9.174 30.234 62.609 30.234 62.609 34.909 9.174 34.909" transform="rotate(103.957 35.892 32.571)"/>
      <polygon points="-12.951 24.513 40.484 24.513 40.484 29.629 -12.951 29.629" transform="rotate(103.957 13.767 27.07)"/>
      <polygon points="-1.873 27.282 51.561 27.282 51.561 32.398 -1.873 32.398" transform="rotate(103.957 24.844 29.84)"/>
    </g>
    <rect width="44.308" height="60.923" x=".385" y="8.923" fill="#FEFEFD"/>
    <g fill="#EF2929" transform="translate(4.077 12.615)">
      <path d="M5.36492308 7.39015385C6.024 7.29784615 6.26769231 7.22769231 6.26769231 6.95076923 6.26769231 6.64984615 5.92061538 5.74707692 5.49046154 4.68184615L2.81723077 4.68184615C2.70092308 4.90153846 2.12307692 6.46523077 2.12307692 6.82338462 2.12307692 7.21661538 2.43507692 7.28676923 3.08492308 7.39015385L3.08492308 7.55261538.456 7.55261538.456 7.39015385C1.26461538 7.22769231 1.41784615 7.12430769 1.84430769 6.08307692L4.35692308.190153846 4.49538462.132923077 5.27076923 2.27446154C5.80430769 3.72184615 6.32492308 5.16923077 6.76615385 6.28061538 7.11323077 7.13723077 7.20553846 7.26461538 8.016 7.392L8.016 7.55446154 5.36492308 7.55446154 5.36492308 7.39015385zM4.24246154 1.20738462C3.77907692 2.23753846 3.32676923 3.33784615 2.95753846 4.31076923L5.38707692 4.31076923 4.26646154 1.20738462 4.24246154 1.20738462zM1.70769231 9.384C2.36492308 8.74892308 3.42830769 8.74892308 4.08553846 9.384L4.53230769 9.81415385 4.97907692 9.384C5.63630769 8.74892308 6.69969231 8.74892308 7.35692308 9.384 8.09538462 10.0984615 8.09538462 11.256 7.35692308 11.9704615L4.53230769 14.7009231 1.70769231 11.9704615C.969230769 11.256.969230769 10.0984615 1.70769231 9.384z"/>
      <path d="M5.67384615 7.39015385C6.33292308 7.29784615 6.57661538 7.22769231 6.57661538 6.95076923 6.57661538 6.64984615 6.22953846 5.74707692 5.79938462 4.68184615L3.12615385 4.68184615C3.00984615 4.90153846 2.432 6.46523077 2.432 6.82338462 2.432 7.21661538 2.744 7.28676923 3.39384615 7.39015385L3.39384615 7.55261538.764923077 7.55261538.764923077 7.39015385C1.57353846 7.22769231 1.72676923 7.12430769 2.15323077 6.08307692L4.66584615.190153846 4.80430769.132923077 5.57969231 2.27446154C6.11323077 3.72184615 6.63384615 5.16923077 7.07507692 6.28061538 7.42215385 7.13723077 7.51446154 7.26461538 8.32492308 7.392L8.32492308 7.55446154 5.67384615 7.55446154 5.67384615 7.39015385zM4.55138462 1.20738462C4.088 2.23753846 3.63569231 3.33784615 3.26646154 4.31076923L5.696 4.31076923 4.57538462 1.20738462 4.55138462 1.20738462zM2.01661538 9.384C2.67384615 8.74892308 3.73723077 8.74892308 4.39446154 9.384L4.84123077 9.81415385 5.288 9.384C5.94523077 8.74892308 7.00861538 8.74892308 7.66584615 9.384 8.40430769 10.0984615 8.40430769 11.256 7.66584615 11.9704615L4.84123077 14.7009231 2.01661538 11.9704615C1.27630769 11.256 1.27630769 10.0984615 2.01661538 9.384z" transform="translate(28.692)"/>
      <path d="M5.36492308 7.21661538L8.016 7.21661538 8.016 7.37907692C7.20738462 7.50646154 7.11323077 7.63384615 6.76615385 8.49046154 6.32676923 9.60184615 5.80430769 11.0492308 5.27076923 12.4966154L4.49538462 14.6381538 4.35692308 14.5790769 1.84430769 8.68615385C1.41784615 7.64492308 1.26646154 7.53969231.456 7.37907692L.456 7.21661538 3.08492308 7.21661538 3.08492308 7.37907692C2.43507692 7.48246154 2.12307692 7.55076923 2.12307692 7.94584615 2.12307692 8.304 2.70092308 9.86769231 2.81723077 10.0873846L5.49046154 10.0873846C5.91876923 9.02215385 6.26769231 8.11938462 6.26769231 7.81846154 6.26769231 7.54153846 6.024 7.47138462 5.36492308 7.37907692L5.36492308 7.21661538zM4.26646154 13.56L5.38707692 10.4566154 2.95753846 10.4566154C3.32676923 11.4295385 3.77907692 12.5298462 4.24246154 13.56L4.26646154 13.56zM1.70769231 5.38523077C2.36492308 6.02030769 3.42830769 6.02030769 4.08553846 5.38523077L4.53230769 4.95507692 4.97907692 5.38523077C5.63630769 6.02030769 6.69969231 6.02030769 7.35692308 5.38523077 8.09538462 4.67076923 8.09538462 3.51323077 7.35692308 2.79876923L4.53230769.0683076923 1.70769231 2.79876923C.969230769 3.51323077.969230769 4.67076923 1.70769231 5.38523077z" transform="translate(0 38.77)"/>
      <path d="M5.67384615 7.21661538L8.32492308 7.21661538 8.32492308 7.37907692C7.51630769 7.50646154 7.42215385 7.63384615 7.07507692 8.49046154 6.63569231 9.60184615 6.11323077 11.0492308 5.57969231 12.4966154L4.80430769 14.6381538 4.66584615 14.5809231 2.15323077 8.688C1.72676923 7.64676923 1.57538462 7.54153846.764923077 7.38092308L.764923077 7.21846154 3.39384615 7.21846154 3.39384615 7.38092308C2.744 7.48430769 2.432 7.55446154 2.432 7.94769231 2.432 8.30584615 3.00984615 9.86953846 3.12615385 10.0892308L5.79938462 10.0892308C6.22769231 9.024 6.57661538 8.12123077 6.57661538 7.82030769 6.57661538 7.54338462 6.33292308 7.47323077 5.67384615 7.38092308L5.67384615 7.21661538zM4.57538462 13.56L5.696 10.4566154 3.26646154 10.4566154C3.63569231 11.4295385 4.088 12.5298462 4.55138462 13.56L4.57538462 13.56zM2.01661538 5.38523077C2.67384615 6.02030769 3.73723077 6.02030769 4.39446154 5.38523077L4.84123077 4.95507692 5.288 5.38523077C5.94523077 6.02030769 7.00861538 6.02030769 7.66584615 5.38523077 8.40430769 4.67076923 8.40430769 3.51323077 7.66584615 2.79876923L4.84123077.0683076923 2.01661538 2.79876923C1.27630769 3.51323077 1.27630769 4.67076923 2.01661538 5.38523077z" transform="translate(28.692 38.77)"/>
      <path d="M13.6209231,22.6209231 C14.7470769,21.5335385 16.5710769,21.5335385 17.6972308,22.6209231 L18.4615385,23.3593846 L19.2258462,22.6209231 C20.352,21.5335385 22.176,21.5335385 23.3021538,22.6209231 C24.5686154,23.8449231 24.5686154,25.8295385 23.3021538,27.0535385 L18.4615385,31.7335385 L13.6209231,27.0535385 C12.3526154,25.8295385 12.3526154,23.8449231 13.6209231,22.6209231 Z"/>
    </g>
  </g>
</svg>
