<?xml version="1.0" encoding="UTF-8"?>
<svg width="96px" height="96px" viewBox="0 0 96 96" version="1.1" xmlns="http://www.w3.org/2000/svg" xmlns:xlink="http://www.w3.org/1999/xlink">
    <!-- Generator: Sketch 62 (91390) - https://sketch.com -->
    <title>gpredict_gpredict-icon</title>
    <desc>Created with Sketch.</desc>
    <defs>
        <filter x="-14.6%" y="-14.6%" width="129.3%" height="129.3%" filterUnits="objectBoundingBox" id="filter-1">
            <feOffset dx="0" dy="2" in="SourceAlpha" result="shadowOffsetOuter1"></feOffset>
            <feGaussianBlur stdDeviation="2" in="shadowOffsetOuter1" result="shadowBlurOuter1"></feGaussianBlur>
            <feComposite in="shadowBlurOuter1" in2="SourceAlpha" operator="out" result="shadowBlurOuter1"></feComposite>
            <feColorMatrix values="0 0 0 0 0   0 0 0 0 0   0 0 0 0 0  0 0 0 0.2 0" type="matrix" in="shadowBlurOuter1" result="shadowMatrixOuter1"></feColorMatrix>
            <feMerge>
                <feMergeNode in="shadowMatrixOuter1"></feMergeNode>
                <feMergeNode in="SourceGraphic"></feMergeNode>
            </feMerge>
        </filter>
        <linearGradient x1="50%" y1="0%" x2="50%" y2="100%" id="linearGradient-2">
            <stop stop-color="#00D2CB" offset="0%"></stop>
            <stop stop-color="#00A69C" offset="100%"></stop>
        </linearGradient>
        <linearGradient x1="50%" y1="0%" x2="50%" y2="100%" id="linearGradient-3">
            <stop stop-color="#FFFFFF" offset="0%"></stop>
            <stop stop-color="#CEF5EA" offset="100%"></stop>
        </linearGradient>
    </defs>
    <g id="gpredict_gpredict-icon" stroke="none" stroke-width="1" fill="none" fill-rule="evenodd">
        <g id="编组" filter="url(#filter-1)" transform="translate(7.000000, 6.000000)">
            <circle id="椭圆形" fill="url(#linearGradient-2)" cx="41" cy="41" r="41"></circle>
            <path d="M41.4060157,26.2723028 C41.6528455,26.3703368 41.8505391,26.5625326 41.9554939,26.8065001 L54.3850441,55.6989993 C54.6032975,56.2063294 54.3689544,56.7945311 53.8616243,57.0127845 C53.5658435,57.1400294 53.2268872,57.1170658 52.9509716,56.9510896 L41.3956099,50 L30.0756755,56.9715885 C29.6054191,57.2612044 28.9894209,57.1147665 28.6998049,56.6445101 C28.5342348,56.37567 28.505354,56.0444272 28.6218994,55.7509896 L40.1075113,26.8325584 C40.3113731,26.319276 40.8927333,26.068441 41.4060157,26.2723028 Z M35.108,33.9998825 L28.754,49.9998825 L14,50 C12.8954305,50 12,49.1045695 12,48 L12,36 C12,34.8954305 12.8954305,34 14,34 L35.108,33.9998825 Z M68,34 C69.1045695,34 70,34.8954305 70,36 L70,48 C70,49.1045695 69.1045695,50 68,50 L54.11,49.9998825 L47.227,33.9998825 L68,34 Z" id="形状结合" fill="url(#linearGradient-3)" transform="translate(41.000000, 41.660835) rotate(-315.000000) translate(-41.000000, -41.660835) "></path>
        </g>
    </g>
</svg>