<?xml version="1.0" encoding="UTF-8"?>
<svg width="96px" height="96px" viewBox="0 0 96 96" version="1.1" xmlns="http://www.w3.org/2000/svg" xmlns:xlink="http://www.w3.org/1999/xlink">
    <!-- Generator: Sketch 62 (91390) - https://sketch.com -->
    <title>hdf-compass_HDFCompass</title>
    <desc>Created with Sketch.</desc>
    <defs>
        <filter x="-14.5%" y="-14.6%" width="128.9%" height="129.3%" filterUnits="objectBoundingBox" id="filter-1">
            <feOffset dx="0" dy="2" in="SourceAlpha" result="shadowOffsetOuter1"></feOffset>
            <feGaussianBlur stdDeviation="2" in="shadowOffsetOuter1" result="shadowBlurOuter1"></feGaussianBlur>
            <feComposite in="shadowBlurOuter1" in2="SourceAlpha" operator="out" result="shadowBlurOuter1"></feComposite>
            <feColorMatrix values="0 0 0 0 0   0 0 0 0 0   0 0 0 0 0  0 0 0 0.2 0" type="matrix" in="shadowBlurOuter1" result="shadowMatrixOuter1"></feColorMatrix>
            <feMerge>
                <feMergeNode in="shadowMatrixOuter1"></feMergeNode>
                <feMergeNode in="SourceGraphic"></feMergeNode>
            </feMerge>
        </filter>
        <radialGradient cx="42.9359605%" cy="45.0925851%" fx="42.9359605%" fy="45.0925851%" r="55.3599572%" id="radialGradient-2">
            <stop stop-color="#39E1FB" offset="0%"></stop>
            <stop stop-color="#002D81" offset="100%"></stop>
        </radialGradient>
        <linearGradient x1="2.73793607%" y1="40.1434299%" x2="76.2847635%" y2="59.6116872%" id="linearGradient-3">
            <stop stop-color="#154383" offset="0%"></stop>
            <stop stop-color="#2A67B3" offset="100%"></stop>
        </linearGradient>
        <linearGradient x1="76.9597621%" y1="14.2695783%" x2="50%" y2="100%" id="linearGradient-4">
            <stop stop-color="#2A67B3" offset="0%"></stop>
            <stop stop-color="#03224E" offset="100%"></stop>
        </linearGradient>
        <radialGradient cx="42.0653493%" cy="42.5258728%" fx="42.0653493%" fy="42.5258728%" r="59.4385241%" gradientTransform="translate(0.420653,0.425259),scale(1.000000,0.966896),rotate(87.485804),translate(-0.420653,-0.425259)" id="radialGradient-5">
            <stop stop-color="#FDFDFD" offset="0%"></stop>
            <stop stop-color="#FAFAFA" stop-opacity="0.726644449" offset="100%"></stop>
        </radialGradient>
    </defs>
    <g id="hdf-compass_HDFCompass" stroke="none" stroke-width="1" fill="none" fill-rule="evenodd">
        <g id="编组" filter="url(#filter-1)" transform="translate(7.000000, 7.000000)">
            <circle id="椭圆形" fill="url(#radialGradient-2)" cx="41" cy="41" r="41"></circle>
            <path d="M0.0527663923,38.9067354 C10.5972828,44.9689118 23.6879133,48 39.324658,48 C57.6579913,48 71.9913246,45.6666667 82.324658,41 L81.9997483,41.1452212 C81.9296964,61.3481982 67.2474177,78.1087127 47.9696695,81.4100073 C45.4465299,81.7441164 42.7843686,81.9366265 39.9835484,81.9872045 C17.8089621,81.4475269 2.84217094e-13,63.3035164 2.84217094e-13,41 C2.84217094e-13,40.3206898 0.0165206927,39.6452381 0.0491822159,38.974025 Z" id="形状结合" fill="url(#linearGradient-3)" opacity="0.485281808"></path>
            <path d="M65.7541444,8.31334628 C75.6248838,15.8002474 82,27.6556296 82,41 C82,63.6436747 63.6436747,82 41,82 C30.8933732,82 21.640844,78.3431732 14.4933639,72.2804711 C29.4681759,70.0768519 41.7449,62.8168317 51.324658,50.5 C61.9443161,36.8461538 66.7640071,22.9161188 65.783731,8.70989481 Z" id="形状结合" fill="url(#linearGradient-4)" opacity="0.485281808"></path>
            <path d="M30,77.14 C31.5,77.64 32.5,76.64 33,77.64 C33.3333333,78.3066667 33.3333333,79.14 33,80.14 C31.6666667,79.8066667 31,79.8066667 31,80.14 C31,80.64 35.5,80.64 35.5,80.64 C35.5,80.64 36.5,81.14 36.5,81.14 C36.5,81.14 37.1666667,80.64 38.5,79.64 C39.1666667,78.64 39.5,78.3066667 39.5,78.64 C39.5,79.14 40,78.64 40.5,79.14 C41,79.64 41,78.64 41.5,78.64 C42,78.64 44.5,78.14 45,78.64 C45.5,79.14 44,80.14 45.5,79.64 C46.5,79.3066667 47.1666667,78.9733333 47.5,78.64 C47.8333333,77.9733333 48.3333333,77.8066667 49,78.14 C50,78.64 50.5,78.14 51.5,78.14 C52.5,78.14 54,77.14 54,77.64 C54,78.0158013 53.7175468,79.2389622 53.5772255,80.0357274 C49.6142815,81.3107902 45.3876275,82 41,82 C37.2208613,82 33.5611435,81.4886979 30.0862502,80.531497 C30.202741,80.3573913 30.3586957,79.9986957 30,79.64 C29.5,79.14 28.5,79.64 28,79.14 C27.5,78.64 27,77.64 27,77.14 C27,76.64 28,77.64 28.5,77.64 C29,77.64 28.5,76.64 30,77.14 Z M24.5,5 L22,5 L20.5,6.5 C18.8333333,6.83333333 18.1666667,7.33333333 18.5,8 C18.8333333,8.66666667 19.5,9 20.5,9 L22,6.5 L27,6.5 L27,5 L28,3.5 L29.5,3.5 L28,5 L28,8 C28,8.66666667 27.3333333,9.33333333 26,10 C25,9.66666667 24.5,9.66666667 24.5,10 C24.5,10.3333333 23.6666667,10.6666667 22,11 L23,12 L24.5,12 L26,11 C27,11.6666667 27,12 26,12 C24.5,12 23,13 23,13 L23.0063143,12.9867153 C23.059453,12.8715815 23.3965517,12.0689655 22,13 C20.5,14 19.5,13.5 18.5,14.5 C17.5,15.5 17.5,16 16.5,17 C15.5,18 13.5,19 13.5,19.5 C13.5,20 12.5,20.5 12.5,20.5 C12.5,20.5 11.5,17.5 11.5,20.5 C11.5,22.5 11.1666667,23.5 10.5,23.5 L9,24.5 L9,22.5 C9.33333333,21.8333333 9,21.5 8,21.5 C6.5,21.5 5.5,22.5 5.5,23.5 C5.5,24.5 3.5,24 3.5,25.5 C3.5,27 2.5,29 3.5,29 C4.5,29 5,26.5 6.5,26.5 C8,26.5 6.5,27 6.5,28 L6.5,33 C6.5,33 7,34.5 8,34.5 C9,34.5 12.5,33 12.5,33 L12.5322963,33.0004444 C12.8288889,33.0066667 15.1,33.1 16.5,34.5 C18,36 22,37 22,37 C22,37 24.5,39.5 24.5,39.5 L24.5,42.5 L28,42.5 C29,42.5 29.5,43 29.5,44 C31.8333333,44.6666667 33.1666667,45 33.5,45 C33.8333333,45 34.5,45.1666667 35.5,45.5 L34.5,48.5 C34.8333333,48.8333333 34.5,49.3333333 33.5,50 C32.5,50.6666667 32.5,52.3333333 33.5,55 C32.8333333,56 32.3333333,56.5 32,56.5 C31.5,56.5 32,58 29.5,58 C27,58 26,57 26,58 C26,59 25,59 26,60 C27,61 27,62 27,62 L26.984375,62.0234375 C26.9114583,62.1328125 26.5833333,62.625 26,63.5 L23,65 L24.5,66.5 L23,67.5 C22.3333333,66.8333333 22,66.8333333 22,67.5 C22,68.1666667 21.5,69.1666667 20.5,70.5 L23,72.5 C24,74.5 23.6666667,75.1666667 22,74.5 C19.5,73.5 18.5,75 18.5,72.5 C18.5,70 16.5,69.5 16.5,68.5 C16.5,67.5 14.5,67.5 15.5,65 C16.5,62.5 13.5,58 13.5,58 C13.5,58 16,55 13.5,55 C11,55 9,55.5 9,51 C9,46.5 6.5,47 6.5,45.5 C6.5,44 7,43.5 8,41.5 C9,39.5 8,40 8,38.5 C8,37 9.5,36 8,36 C7,36 6.16666667,35.5 5.5,34.5 L5.5,33 L2,30.5 C1.73807795,30.5654805 1.51474517,30.5988033 1.33000168,30.5999683 C4.55036552,18.2852461 13.3522764,8.22822192 24.8703868,3.29458305 C25.1262151,4.43197804 25.0024482,5 24.5,5 Z M64.7885648,7.60366496 L65.2140675,7.91062167 C72.6193296,13.3388192 78.1349565,21.1929181 80.5903865,30.3023565 L80.5,30.5 L78.5,33 C78.1666667,31.6666667 78,31 78,31 C78,31 76.9009516,29.4299308 74.7028547,26.2897924 L74.5,26 L74.5,25 C74.5,25 72.5,22.5 72.5,22.5 C72.5,22.5 71.3333333,22.1666667 69,21.5 C69.3333333,22.1666667 70.3333333,23 72,24 C73.6666667,25 75.6666667,28 78,33 C78.6666667,34.6666667 79,35.6666667 79,36 C79,36.5 78.5,38.5 78.5,38.5 L78.4876543,38.5246914 C78.4218107,38.6563786 78.0925926,39.3148148 77.5,40.5 C77.8333333,40.8333333 78,41.1666667 78,41.5 C78,42 77,43 76.5,43 C76,43 76.5,45 76.5,45 C76.5,45 75.8670831,47.2152093 74.6012492,51.6456279 L74.5,52 L73.5,54 C72.8333333,55 72.5,55.5 72.5,55.5 C72.5,55.5 72.3495833,56.2520833 72.04875,57.75625 L72,58 L70,58 C69.5,58 70.5,59.5 70.5,60.5 C70.5,61.1111111 70.2199074,61.5821759 69.6597222,61.9131944 L69.5,62 L68,63 C67.3333333,64 67,64.5 67,64.5 C67,64.5 64.5,64 64,64 C63.5,64 63,64 63.5,60.5 C64,57 63,59.5 63,59 C63,58.5 65.5,58 64.5,57 C63.5,56 64,55.5 64,53.5 C64,51.5869565 64.9149338,49.673913 64.9944933,49.0736007 L65,49 L65,47.5 C65,46.5 65.5,46 65.5,45 C65.5,44 65,44.5 64.5,43.5 C64,42.5 63,41.5 63,41 C63,40.525 63.45125,40.50125 63.496375,39.214 L63.5,39 L63.5,37.5 C63.5,36.5 59.5,37 59.5,36.5 C59.5,36.1666667 58.8333333,36.1666667 57.5,36.5 L56.5,37.5 L56.5,37.5 C56.5,37.5 56,37.5 55,37 C54,36.5 54,38 53.5,38.5 C53.025,38.975 52.55,38.09625 52.075,37.5785 L52,37.5 L51,36.5 C50.5,36 48,36 48,35.5 C48,35 48.5,34 49,33.5 C49.5,33 48,32.5 47,32 C46,31.5 46,30.5 47,30.5 C48,30.5 47,29.5 47,29 C47,28.5 45.5,27.5 45.5,26.5 C45.5,25.5 46.5,25.5 47,24.5 C47.4444444,23.6111111 47.4938272,23.9074074 47.4993141,23.633059 L47.5,23.5 L47.5002894,22.384838 C47.5034722,21.9965278 47.5416667,21.9583333 48,21.5 C48.5,21 49,21.5 50,21.5 C51,21.5 50,21 50,20.5 C50,20 50.5,20 51,18 C51.1571429,17.3714286 51.5118367,17.0885714 51.9243848,16.9962099 L51.983,16.985 L51.875,16.8946759 C51.4583333,16.6053241 51.0416667,16.8946759 50.625,16.6053241 L50.5,16.5 C50,16 49,16 49,15.5 C49,15.1888889 48.8548148,14.4422222 48.5644444,13.26 L48.5,13 L51.5,13 C51.5,13 52,12.5 52,12 C52,11.5 51.5,12 51.5,12 L51.4234683,11.9808671 C51.0570934,11.8892734 49.5,11.5 49.5,11.5 C49.5,11.5 49.5,11 49,10.5 C48.6666667,10.1666667 48.6666667,10 49,10 C48.6666667,8.66666667 48.5,8 48.5,8 C48.5,8 48.9355556,8.14518519 49.8066667,8.43555556 L50,8.5 L51.5,8.5 C51.7962963,8.7962963 51.9609053,8.96090535 51.9938272,8.99382716 L52,9 L54.5,9 L55,6.5 C55.7476232,5.00475367 59.0104781,5.37264199 64.7885648,7.60366496 Z M10.2675737,25.4546485 L10.5,25.5 L10.5,26.5 L12,26.5 C12,26.5 12.5946502,26.7973251 13.7839506,27.3919753 L14,27.5 L16,27.5 L14,28.5 L12,28.5 C11.5833333,28.5 11.5572917,28.2070312 11.921875,27.6210938 L12,27.5 L10.5,27.5 C8.83333333,26.5 8,25.8333333 8,25.5 C8,25.1825397 8.7558579,25.1674225 10.2675737,25.4546485 Z M62.5,11.5 C62,11.5 62.5,13 63,13 C63.5,13 64,14 64,14.5 C64,15 63.5,14.5 63.5,15 C63.5,15.2962963 63.3683128,15.4609053 63.1049383,15.4938272 L63,15.5 L61,13.5 C60.5,13 59,12 58.5,12 C58,12 59,12.5 58,12 C57.3333333,11.6666667 57.1666667,11.8333333 57.5,12.5 C58.1666667,13.1666667 58.6666667,13.5 59,13.5 C59.5,13.5 60,14 60.5,14 C60.7421525,14 61.433761,14.148173 61.5,14.5 C61.5166279,14.5883187 61.3499612,14.7549853 61,15 C60.6666667,16 60.1666667,16.6666667 59.5,17 C58.5,17.5 59.5,16.5 59.5,15.5 C59.5,14.547619 59.0464853,15.4092971 58.5713746,15.0616024 L58.5,15 L57.5,14 C57.0625,13.5625 57.0078125,13.890625 57.0009766,13.9794922 L57,14 C57,14 56,13.5 55,13.5 C54.3777778,13.5 54.1911111,13.6451852 54.44,13.9355556 L54.5,14 L54.5,16.5 C54.5,16.8111111 54.0644444,16.977037 53.1933333,16.9977778 L53,17 L52.937,17.057 L52.9766764,17.0670554 C53.503207,17.2139942 53.938309,17.4637901 53.9939825,17.4964431 C54,17.5 54.5,17 55,16.5 C55.5,16 55.5,16.5 56.5,16.5 C57.5,16.5 57,17 58,16 C58.6388889,15.3611111 58.8185764,15.640625 58.5390625,16.8385417 L58.5,17 L60,18.5 C60.6666667,18.5 61.3333333,18.6666667 62,19 C63,19.5 64.5,20.5 65,20.5 C65.5,20.5 65.5,20 65.5,19 C65.5,18 66.5,19.5 66.5,20 C66.5,20.3333333 67,20.5 68,20.5 L68.75,20.125 C68.8888889,20.0555556 68.9699074,20.0150463 68.9930556,20.0034722 L69,20 L69,18 C69,17.3809524 68.712585,17.0493197 68.1377551,17.005102 L68,17 L65.5,17 C65,17 65,16.5 64.5,16 C64,15.5 64.5,15.5 64.5,15 C64.5,14.6666667 64.6666667,14.3333333 65,14 L66.5,14 C67.5,14 66.5,13.5 66,13.5 C65.5,13.5 65,13 64.5,12 C64,11 63,11.5 62.5,11.5 Z M52.0382274,16.9756268 L51.983,16.985 L52,17 C52.3055556,17.3055556 52.6111111,17.3310185 52.9166667,17.0763889 L52.937,17.057 L52.8625539,17.0372595 C52.5934927,16.9719534 52.3067172,16.9380758 52.0382274,16.9756268 Z M50,3 C50,3 50.4355556,3.14518519 51.3066667,3.43555556 L51.5,3.5 L53,3.5 L54,4.5 C53.6666667,4.83333333 53.5,5.16666667 53.5,5.5 C53.5,5.6 53.52,5.76 53.552,5.952 L53.56,6.003 C53.6646091,6.01954733 53.654321,6.07098765 53.5925926,6.14814815 L53.588,6.153 L53.608,6.2605 C53.7445,6.96575 53.9655,7.861125 53.996375,7.9854375 L54,8 C54,8 53,7.5 52.5,7.5 C52.0277778,7.5 52.8935185,7.5 52.9911694,7.07878944 L53,7 L52.999,6.999 L52.5,7 C52.8055556,6.69444444 52.8310185,6.52893519 52.5763889,6.50347222 L52.5,6.5 L51.5,6.5 C50.8333333,6.83333333 50.5,7.16666667 50.5,7.5 C50.5,8 50,7.5 49,7 C48,6.5 49.5,6 48.5,5.5 C47.872549,5.18627451 47.8356401,5.02018454 48.3892734,5.0017301 L48.5,5 L50,4.5 L49,3.5 L49,2.5 C49,2 50,3 50,3 Z M39.4994847,0.0269480951 L39.5,3 L38.5,3 C38.5,3 38,4 38,4 C38,4 35.2033294,5.86444709 34.1103776,5.99302964 L34,6 L31.5,6 C30.8636364,6 30.8347107,5.39256198 31.4132231,4.17768595 L31.5,4 L32.5,3 L32.5,1.5 C32.3698795,1.30481928 32.2334098,1.12868631 32.0905908,0.971601103 C34.4868398,0.439654029 36.9638153,0.118169352 39.4994847,0.0269480951 Z M42.4201389,3.92361111 L42.5,4 L43.5,5 L40.5,5 C41.5,4.66666667 42,4.33333333 42,4 C42,3.69444444 42.1400463,3.66898148 42.4201389,3.92361111 Z" id="形状结合" fill="url(#radialGradient-5)"></path>
        </g>
    </g>
</svg>