<svg xmlns="http://www.w3.org/2000/svg" xmlns:xlink="http://www.w3.org/1999/xlink" width="96" height="96" viewBox="0 0 96 96">
  <defs>
    <filter id="jbhangman-a" width="128.6%" height="128.6%" x="-14.3%" y="-14.3%" filterUnits="objectBoundingBox">
      <feOffset dy="2" in="SourceAlpha" result="shadowOffsetOuter1"/>
      <feGaussianBlur in="shadowOffsetOuter1" result="shadowBlurOuter1" stdDeviation="2"/>
      <feColorMatrix in="shadowBlurOuter1" result="shadowMatrixOuter1" values="0 0 0 0 0   0 0 0 0 0   0 0 0 0 0  0 0 0 0.2 0"/>
      <feMerge>
        <feMergeNode in="shadowMatrixOuter1"/>
        <feMergeNode in="SourceGraphic"/>
      </feMerge>
    </filter>
    <radialGradient id="jbhangman-b" cx="50%" cy="9.87%" r="93.71%" fx="50%" fy="9.87%">
      <stop offset="0%" stop-color="#FFF"/>
      <stop offset="100%" stop-color="#511183"/>
    </radialGradient>
    <radialGradient id="jbhangman-c" cx="51.638%" cy="38.152%" r="61.869%" fx="51.638%" fy="38.152%">
      <stop offset="0%" stop-color="#FFBB35"/>
      <stop offset="100%" stop-color="#FFF"/>
    </radialGradient>
    <linearGradient id="jbhangman-f" x1="50%" x2="50%" y1="9.87%" y2="103.581%">
      <stop offset="0%" stop-color="#4A077E"/>
      <stop offset="100%" stop-color="#FCFAFD"/>
    </linearGradient>
    <path id="jbhangman-d" d="M42,10 C24.326888,10 10,24.326888 10,42 C10,59.673112 24.326888,74 42,74 C59.673112,74 74,59.673112 74,42 C74,24.326888 59.673112,10 42,10 Z"/>
    <filter id="jbhangman-e" width="115.6%" height="115.6%" x="-7.8%" y="-7.8%" filterUnits="objectBoundingBox">
      <feGaussianBlur in="SourceAlpha" result="shadowBlurInner1" stdDeviation="3"/>
      <feOffset in="shadowBlurInner1" result="shadowOffsetInner1"/>
      <feComposite in="shadowOffsetInner1" in2="SourceAlpha" k2="-1" k3="1" operator="arithmetic" result="shadowInnerInner1"/>
      <feColorMatrix in="shadowInnerInner1" values="0 0 0 0 0   0 0 0 0 0   0 0 0 0 0  0 0 0 1 0"/>
    </filter>
    <linearGradient id="jbhangman-g" x1="50%" x2="50%" y1="0%" y2="100%">
      <stop offset="0%" stop-color="#393939"/>
      <stop offset="100%"/>
    </linearGradient>
  </defs>
  <g fill="none" fill-rule="evenodd" filter="url(#jbhangman-a)" transform="translate(6 6)">
    <path fill="url(#jbhangman-b)" fill-rule="nonzero" d="M42,0 C65.1959595,0 84,18.8040405 84,42 C84,65.1959595 65.1959595,84 42,84 C18.8040405,84 0,65.1959595 0,42 C0,18.8040405 18.8040405,0 42,0 Z"/>
    <use fill="url(#jbhangman-c)" xlink:href="#jbhangman-d"/>
    <use fill="#000" filter="url(#jbhangman-e)" xlink:href="#jbhangman-d"/>
    <path stroke="url(#jbhangman-f)" stroke-width="2" d="M42,9 C51.1126984,9 59.3626984,12.6936508 65.3345238,18.6654762 C71.3063492,24.6373016 75,32.8873016 75,42 C75,51.1126984 71.3063492,59.3626984 65.3345238,65.3345238 C59.3626984,71.3063492 51.1126984,75 42,75 C32.8873016,75 24.6373016,71.3063492 18.6654762,65.3345238 C12.6936508,59.3626984 9,51.1126984 9,42 C9,32.8873016 12.6936508,24.6373016 18.6654762,18.6654762 C24.6373016,12.6936508 32.8873016,9 42,9 Z"/>
    <path fill="url(#jbhangman-g)" d="M54,20 L54,23 L52,23 L52.0011864,27.1002591 C54.2828356,27.5639878 56,29.5814613 56,32 C56,34.4185387 54.2828356,36.4360122 52.0011864,36.8997409 L52,39 L61,39 L61,41 L52,41 L52,48.018 L62.4957128,56.4136505 L61.2463227,57.9753881 L51.278,50 L50.901,50 L40.9339752,57.9753881 L39.6845851,56.4136505 L50,48.161 L50,41 L41,41 L41,39 L50,39 L49.999812,36.8999437 C47.7176654,36.4366008 46,34.4188915 46,32 C46,29.5811085 47.7176654,27.5633992 49.999812,27.1000563 L50,23 L34.475,23 L25,33.667 L25,61 L63,61 L63,64 L22,64 L22,20 L54,20 Z M31.803,23 L25,23 L25,30.659 L31.803,23 Z"/>
    <path fill="#FFF" d="M52.7511444,33.7844606 L53.0536926,33.8197 L52.8068848,34.3610114 C51.605835,33.9445583 50.1665409,34.0584504 49.7629105,34.3114485 L49.6933335,34.3610114 L49.1843042,34.0364623 C49.7857802,33.5467338 51.1694309,33.6150382 52.7511444,33.7844606 Z M49.5,30 C49.7761424,30 50,30.2238576 50,30.5 C50,30.7761424 49.7761424,31 49.5,31 C49.2238576,31 49,30.7761424 49,30.5 C49,30.2238576 49.2238576,30 49.5,30 Z M53.5,30 C53.7761424,30 54,30.2238576 54,30.5 C54,30.7761424 53.7761424,31 53.5,31 C53.2238576,31 53,30.7761424 53,30.5 C53,30.2238576 53.2238576,30 53.5,30 Z"/>
  </g>
</svg>
