<?xml version="1.0" encoding="UTF-8"?>
<svg width="96px" height="96px" viewBox="0 0 96 96" version="1.1" xmlns="http://www.w3.org/2000/svg" xmlns:xlink="http://www.w3.org/1999/xlink">
    <!-- Generator: Sketch 62 (91390) - https://sketch.com -->
    <title>jftp_jftp</title>
    <desc>Created with Sketch.</desc>
    <defs>
        <filter x="-17.1%" y="-16.7%" width="132.9%" height="134.7%" filterUnits="objectBoundingBox" id="filter-1">
            <feOffset dx="0" dy="2" in="SourceAlpha" result="shadowOffsetOuter1"></feOffset>
            <feGaussianBlur stdDeviation="2" in="shadowOffsetOuter1" result="shadowBlurOuter1"></feGaussianBlur>
            <feComposite in="shadowBlurOuter1" in2="SourceAlpha" operator="out" result="shadowBlurOuter1"></feComposite>
            <feColorMatrix values="0 0 0 0 0   0 0 0 0 0   0 0 0 0 0  0 0 0 0.2 0" type="matrix" in="shadowBlurOuter1" result="shadowMatrixOuter1"></feColorMatrix>
            <feMerge>
                <feMergeNode in="shadowMatrixOuter1"></feMergeNode>
                <feMergeNode in="SourceGraphic"></feMergeNode>
            </feMerge>
        </filter>
        <linearGradient x1="50%" y1="10.7997491%" x2="54.8875642%" y2="75.7445414%" id="linearGradient-2">
            <stop stop-color="#FFF68C" offset="0%"></stop>
            <stop stop-color="#FAD135" offset="100%"></stop>
        </linearGradient>
        <linearGradient x1="50%" y1="0%" x2="50%" y2="100%" id="linearGradient-3">
            <stop stop-color="#3CA46D" offset="0%"></stop>
            <stop stop-color="#24683F" offset="100%"></stop>
        </linearGradient>
        <linearGradient x1="50%" y1="0%" x2="50%" y2="100%" id="linearGradient-4">
            <stop stop-color="#A36A41" offset="0%"></stop>
            <stop stop-color="#5A3B29" offset="100%"></stop>
        </linearGradient>
        <linearGradient x1="50%" y1="0%" x2="50%" y2="100%" id="linearGradient-5">
            <stop stop-color="#51799D" offset="0%"></stop>
            <stop stop-color="#283D53" offset="100%"></stop>
        </linearGradient>
        <linearGradient x1="50%" y1="0%" x2="50%" y2="100%" id="linearGradient-6">
            <stop stop-color="#5FDEFF" offset="0%"></stop>
            <stop stop-color="#31BAFF" offset="100%"></stop>
        </linearGradient>
        <linearGradient x1="50%" y1="0%" x2="50%" y2="98.5536318%" id="linearGradient-7">
            <stop stop-color="#FFE076" offset="0%"></stop>
            <stop stop-color="#FDCB54" offset="100%"></stop>
        </linearGradient>
        <linearGradient x1="50%" y1="0%" x2="50%" y2="100%" id="linearGradient-8">
            <stop stop-color="#55A00B" offset="0%"></stop>
            <stop stop-color="#99D73B" offset="100%"></stop>
        </linearGradient>
        <linearGradient x1="50%" y1="0%" x2="50%" y2="96.7060811%" id="linearGradient-9">
            <stop stop-color="#15440B" offset="0%"></stop>
            <stop stop-color="#1A840B" offset="100%"></stop>
        </linearGradient>
    </defs>
    <g id="jftp_jftp" stroke="none" stroke-width="1" fill="none" fill-rule="evenodd">
        <g id="编组" filter="url(#filter-1)" transform="translate(11.080979, 12.694336)">
            <polygon id="路径-236" fill="url(#linearGradient-2)" points="0 8.72026206 9.04880125 57.0573445 67.0527423 70.0765978 74.1922481 28.6776599 69.3706355 23.6093754 16.8377521 4.38377079 9.04880125 8.72026206"></polygon>
            <path d="M40.019607,9.47070312 C40.9082789,9.47070312 41.6372014,9.27815755 42.2063746,8.89306641 C42.7755478,8.50797526 43.1542912,8.0382487 43.3426051,7.48388672 C43.5309189,6.92952474 43.6250758,6.12125651 43.6250758,5.05908203 L43.6250758,5.05908203 L43.6250758,0 L40.7432398,0 L40.7432398,5.73828125 C40.7432398,6.30533854 40.6681259,6.70841471 40.517898,6.94750977 C40.3676702,7.18660482 40.1317489,7.30615234 39.8101343,7.30615234 C39.6070093,7.30615234 39.4504338,7.26595052 39.3404078,7.18554687 C39.1796005,7.06282552 39.0653427,6.90201823 38.9976343,6.703125 C38.929926,6.50423177 38.893956,6.19954427 38.8897242,5.7890625 L38.8897242,5.7890625 L36.141189,6.16357422 C36.1919703,6.88297526 36.3580673,7.48706055 36.6394801,7.97583008 C36.9208928,8.46459961 37.3197372,8.8359375 37.8360133,9.08984375 C38.3522893,9.34375 39.0801539,9.47070312 40.019607,9.47070312 Z M48.324765,9.30566406 L48.324765,5.50341797 L51.9302338,5.50341797 L51.9302338,3.62451172 L48.324765,3.62451172 L48.324765,1.99951172 L52.5459564,1.99951172 L52.5459564,0 L45.4365814,0 L45.4365814,9.30566406 L48.324765,9.30566406 Z M59.1308996,9.30566406 L59.1308996,2.29785156 L62.0635168,2.29785156 L62.0635168,0 L53.3227941,0 L53.3227941,2.29785156 L56.2554113,2.29785156 L56.2554113,9.30566406 L59.1308996,9.30566406 Z M66.1220928,9.30566406 L66.1220928,5.85253906 L67.6963116,5.85253906 C68.8558168,5.85253906 69.7180401,5.58805339 70.2829815,5.05908203 C70.8479229,4.53011068 71.1303936,3.79589844 71.1303936,2.85644531 C71.1303936,1.94238281 70.8711976,1.23779297 70.3528057,0.742675781 C69.8344138,0.247558594 69.05471,0 68.0136944,0 L68.0136944,0 L63.2339092,0 L63.2339092,9.30566406 L66.1220928,9.30566406 Z M66.8266826,3.96728516 L66.1220928,3.96728516 L66.1220928,1.89160156 L66.9409405,1.89160156 C67.4783754,1.89160156 67.8444235,1.99316406 68.039085,2.19628906 C68.2337464,2.39941406 68.3310772,2.64697266 68.3310772,2.93896484 C68.3310772,3.23942057 68.2189352,3.48592122 67.9946514,3.6784668 C67.7703675,3.87101237 67.3810446,3.96728516 66.8266826,3.96728516 L66.8266826,3.96728516 Z" id="JFTP" fill="url(#linearGradient-3)" fill-rule="nonzero"></path>
            <path d="M61.0729045,60.5526028 L55.1327267,42.6010175 C53.7206008,38.3334855 50.3452136,35.0035623 46.0589256,33.6494337 L29.0470513,28.2750248 C27.2641662,27.7117739 25.944515,26.2008451 25.626248,24.3583911 L25.2247606,22.0341736 C24.6883682,18.9289877 22.7197139,16.2582788 19.912264,14.827153 L5.33876636,7.39816581 C3.86263853,6.64569479 2.0560022,7.23233454 1.30353118,8.70846236 C1.0092058,9.28584258 0.909763017,9.9430083 1.02008366,10.5816198 L8.49362925,53.8436282 C8.83102941,55.7967318 10.2902531,57.3661591 12.2136701,57.8446144 L63.1061482,70.5042585 C65.7859073,71.170856 68.4986653,69.538866 69.1652628,66.8591069 C69.2005166,66.7173845 69.2295443,66.5741857 69.2522624,66.4299222 L74.2137747,34.9235322 C75.1988678,28.6680351 71.5332352,22.6128423 65.5339473,20.5854805 L19.6574925,5.08227847 C16.4957429,4.0138166 13.002901,5.02039198 10.8946442,7.60757668 L9.58448952,9.21535626 L9.58448952,9.21535626" id="路径-235" stroke="url(#linearGradient-4)" stroke-width="3" stroke-linecap="round" stroke-linejoin="round"></path>
            <circle id="椭圆形" fill="url(#linearGradient-5)" cx="20.9190211" cy="51.3056641" r="19"></circle>
            <circle id="椭圆形备份" fill="url(#linearGradient-6)" cx="20.9190211" cy="51.3056641" r="17"></circle>
            <path d="M35.2267079,50.0695317 C36.2734629,50.0695317 37.1590419,50.1112281 37.8834448,50.1946209 C37.9069989,50.5621821 37.9190211,50.9325191 37.9190211,51.3056641 C37.9190211,54.4486111 37.0661154,57.3923514 35.5791321,59.9180569 C33.9774642,58.7344643 32.188913,57.1117262 30.8556298,57.604377 C28.4980805,58.4754961 28.4164583,62.9180396 30.7190961,65.1977421 C29.2798191,66.2156179 27.6743044,67.0152566 25.9516784,67.5483967 C25.0216232,67.5874106 24.1705073,67.5937424 23.5961584,67.5947047 L23.3763162,67.5948675 C21.2420777,67.5948675 20.0209263,65.2311232 23.9702342,62.7012135 C27.9195422,60.1713038 25.1349196,61.1806353 24.5629183,55.3360544 C23.9909171,49.4914735 28.7133523,50.0695317 35.2267079,50.0695317 Z M16.6763726,35.3056641 C18.9282014,36.9256301 20.0541158,38.4605535 20.0541158,39.9104341 C20.0541158,42.0852551 12.6718524,45.0467517 14.3692454,47.1902469 C16.0666383,49.3337421 17.793439,51.9354711 17.793439,54.7176641 C17.793439,57.499857 15.3562488,58.1270013 15.9491653,59.8326928 C16.8385443,62.3912425 13.8542015,57.7736675 13.692663,57.7736675 C12.4518142,57.7736675 8.40520773,55.9283473 9.19473329,52.948918 C9.98425885,49.9694887 11.0800809,46.0117299 9.19473329,48.0440558 C7.93783489,49.3989397 6.52365431,50.7591164 4.95219155,52.124586 L4.34702004,47.4982812 C5.59887351,42.0269683 9.49063628,37.5618354 14.6105819,35.5146091 L16.6763726,35.3056641 Z M25.7565126,40.0891428 C26.5848719,42.1645654 26.7835301,47.9553675 24.9281532,49.6136298 C23.1084568,51.2400025 17.3518122,48.0810863 17.1310758,46.9185971 L17.1245478,46.8525692 L17.1245478,44.5525765 C17.1245478,43.4737351 21.7437176,41.7594344 22.7548411,41.0709173 C23.4289235,40.6119058 23.4289235,39.8834925 22.7548411,38.8856774 C22.0807588,38.3043726 22.0807588,37.7828435 22.7548411,37.3210901 C23.7659646,36.6284599 24.9281532,38.0137202 25.7565126,40.0891428 Z" id="形状结合" fill="url(#linearGradient-7)"></path>
            <path d="M35.6542497,55.2170689 C34.8627474,55.2793219 34.0466866,55.029331 33.406686,54.4513171 L26.5675832,46.4826845 C26.2088821,46.0627418 26.0543546,45.5371626 26.0944881,45.0268938 C26.1346216,44.516625 26.3694161,44.0216666 26.7893589,43.6629655 C27.1514796,43.3536541 27.6120901,43.1837128 28.0883306,43.1837128 L30.573783,43.1837128 L30.573783,36.3056641 C30.573783,35.4772369 30.9095694,34.7272369 31.4524626,34.1843437 C31.9953558,33.6414505 32.7453558,33.3056641 33.573783,33.3056641 L37.4904496,33.3056641 C38.3188768,33.3056641 39.0688768,33.6414505 39.61177,34.1843437 C40.1546632,34.7272369 40.4904496,35.4772369 40.4904496,36.3056641 L40.4904496,43.1837128 L42.7497116,43.1837128 C43.3019963,43.1837128 43.8019963,43.4075705 44.1639251,43.7694993 C44.5258539,44.1314281 44.7497116,44.6314281 44.7497116,45.1837128 C44.7497116,45.6599533 44.5797703,46.1205638 44.2704589,46.4826845 L37.7001421,54.1747628 C37.1620904,54.8046769 36.4196529,55.1568687 35.6542497,55.2170689 Z" id="路径-181" stroke="url(#linearGradient-9)" stroke-width="2" fill="url(#linearGradient-8)" transform="translate(35.419021, 44.805664) rotate(-315.000000) translate(-35.419021, -44.805664) "></path>
        </g>
    </g>
</svg>