<svg xmlns="http://www.w3.org/2000/svg" xmlns:xlink="http://www.w3.org/1999/xlink" width="96" height="96" viewBox="0 0 96 96">
  <defs>
    <filter id="kapptemplate-a" width="128.6%" height="129.3%" x="-14.3%" y="-14.6%" filterUnits="objectBoundingBox">
      <feOffset dy="2" in="SourceAlpha" result="shadowOffsetOuter1"/>
      <feGaussianBlur in="shadowOffsetOuter1" result="shadowBlurOuter1" stdDeviation="2"/>
      <feColorMatrix in="shadowBlurOuter1" result="shadowMatrixOuter1" values="0 0 0 0 0   0 0 0 0 0   0 0 0 0 0  0 0 0 0.2 0"/>
      <feMerge>
        <feMergeNode in="shadowMatrixOuter1"/>
        <feMergeNode in="SourceGraphic"/>
      </feMerge>
    </filter>
    <radialGradient id="kapptemplate-b" cx="49.592%" cy="103.333%" r="108.114%" fx="49.592%" fy="103.333%" gradientTransform="matrix(.9648 0 0 1 .017 0)">
      <stop offset="17.75%" stop-color="#F0F0F0"/>
      <stop offset="53.25%" stop-color="#A5A5BB"/>
    </radialGradient>
    <linearGradient id="kapptemplate-c" x1="50%" x2="50%" y1="3.196%" y2="100%">
      <stop offset="0%" stop-color="#AFAFBD"/>
      <stop offset="100%" stop-color="#49498D"/>
    </linearGradient>
    <linearGradient id="kapptemplate-d" x1="49.999%" x2="49.999%" y1="19.34%" y2="194.631%">
      <stop offset="0%" stop-color="#FFF"/>
      <stop offset="100%" stop-color="#FFF" stop-opacity="0"/>
    </linearGradient>
    <path id="kapptemplate-e" d="M37.6501818,1.16494967 C37.6129926,2.23810389 37.3918861,8.64962949 37.3918861,8.64962949 C37.3810674,8.9679877 37.1329142,9.23219892 36.8056494,9.27460319 C34.1084197,9.6223182 31.4767783,10.3001341 28.9830748,11.2891322 C28.6774474,11.4104736 28.3258406,11.3008749 28.1520658,11.0307923 C28.1520658,11.0307923 24.6420835,5.59130307 24.0538183,4.68058983 C23.1802107,5.16726037 19.0332793,7.47731452 18.1596717,7.96398506 C18.683701,8.91123121 21.8150298,14.5712227 21.8150298,14.5712227 C21.8691232,14.6684263 21.8948175,14.7741108 21.8948175,14.8778382 C21.8948175,15.0742026 21.8028588,15.2673051 21.6324648,15.3945179 C19.4910443,16.9928327 17.5646449,18.8514444 15.908036,20.9175109 C15.7065383,21.1693271 15.3454652,21.2436976 15.0547134,21.0943041 C15.0547134,21.0943041 9.18761347,18.073163 8.20649534,17.5675736 C7.70207485,18.41044 5.30776796,22.411446 4.80334747,23.2543124 C5.74727642,23.8218772 11.3851558,27.2083475 11.3851558,27.2083475 C11.588682,27.3309937 11.7043066,27.543015 11.7043066,27.7628648 C11.7043066,27.8457163 11.6880786,27.9298724 11.6535941,28.0107667 C10.6278489,30.4173721 9.92531153,32.9570617 9.56559076,35.5580744 C9.52231608,35.8738231 9.24779232,36.1132441 8.91782289,36.1236821 C8.91782289,36.1236821 2.27245486,36.3376606 1.16016036,36.3728887 C1.16016036,37.0213479 1.16016036,37.8661714 1.16016036,38.4415647 C7.16452219,39.6086607 13.5556515,40.5043694 20.1793822,41.1130337 C20.1388121,40.4450034 20.0921566,39.6549792 20.0921566,39.6549792 C20.0921566,28.503961 29.4956093,19.4314044 41.0533297,19.4314044 C52.6117262,19.4314044 62.0145027,28.503961 62.0145027,39.6549792 C62.0145027,39.6549792 61.9671711,40.4528319 61.9272772,41.1234717 C68.5462747,40.5200263 74.9367279,39.6282319 80.9471752,38.4657025 C80.9471752,37.8870474 80.9471752,37.0252621 80.9471752,36.3722364 C79.8348807,36.3363558 73.1895127,36.1230297 73.1895127,36.1230297 C72.8595432,36.1125918 72.5850195,35.8731707 72.5417448,35.557422 C72.1813478,32.955757 71.4788105,30.4167198 70.4544177,28.0107667 C70.4199331,27.9298724 70.4037051,27.8463686 70.4037051,27.7635172 C70.4037051,27.5436674 70.5193297,27.331646 70.7228559,27.2089998 C70.7228559,27.2089998 76.3600591,23.8225296 77.3039881,23.2549648 C76.7995676,22.4120984 74.4052607,18.41044 73.9008402,17.5675736 C72.9197221,18.0725106 67.0526221,21.0943041 67.0526221,21.0943041 C66.7618704,21.2436976 66.4014734,21.1693271 66.1992995,20.9175109 C64.5426907,18.8507921 62.6162913,16.9921803 60.4755469,15.3945179 C60.3044767,15.2673051 60.212518,15.0748549 60.212518,14.8778382 C60.212518,14.7734584 60.2382124,14.6684263 60.2923057,14.5712227 C60.2923057,14.5712227 63.4236345,8.91123121 63.9469877,7.96398506 C63.0733801,7.47731452 58.9264486,5.166608 58.052841,4.67993746 C57.4645759,5.5906507 53.9539175,11.03014 53.9539175,11.03014 C53.7794664,11.3002225 53.4285358,11.4098213 53.1229084,11.2884798 C50.6285288,10.2994818 47.9962111,9.62166583 45.2996577,9.27395081 C44.9730691,9.23154654 44.7242396,8.96733532 44.7140971,8.64897711 C44.7140971,8.64897711 44.4923144,2.23745151 44.4551252,1.1642973 C43.4476366,1.16494967 38.6590228,1.16494967 37.6501818,1.16494967 Z"/>
    <filter id="kapptemplate-f" width="101.3%" height="102.5%" x="-.6%" y="-1.3%" filterUnits="objectBoundingBox">
      <feOffset dy="1" in="SourceAlpha" result="shadowOffsetInner1"/>
      <feComposite in="shadowOffsetInner1" in2="SourceAlpha" k2="-1" k3="1" operator="arithmetic" result="shadowInnerInner1"/>
      <feColorMatrix in="shadowInnerInner1" values="0 0 0 0 1   0 0 0 0 1   0 0 0 0 1  0 0 0 0.5 0"/>
    </filter>
    <linearGradient id="kapptemplate-g" x1="50.001%" x2="50.001%" y1="100%" y2=".001%">
      <stop offset="29.59%" stop-color="#FFF"/>
      <stop offset="100%" stop-color="#4A4A55"/>
    </linearGradient>
    <linearGradient id="kapptemplate-h" x1="50.001%" x2="50.001%" y1="100%" y2=".001%">
      <stop offset="19.53%" stop-color="#E9E9F0"/>
      <stop offset="25.97%" stop-color="#DADAE2"/>
      <stop offset="46.1%" stop-color="#B1B1BB"/>
      <stop offset="64.37%" stop-color="#93939F"/>
      <stop offset="79.99%" stop-color="#81818E"/>
      <stop offset="91.12%" stop-color="#7A7A88"/>
      <stop offset="100%" stop-color="#696975"/>
    </linearGradient>
    <linearGradient id="kapptemplate-i" x1="50.001%" x2="50.001%" y1="100%" y2=".001%">
      <stop offset="0%" stop-color="#BBB"/>
      <stop offset="100%" stop-color="#555"/>
    </linearGradient>
    <linearGradient id="kapptemplate-j" x1="50%" x2="50%" y1="6.993%" y2="74.865%">
      <stop offset="0%" stop-color="#FCFCFC"/>
      <stop offset="100%" stop-color="silver"/>
    </linearGradient>
    <radialGradient id="kapptemplate-k" cx="50%" cy="19.89%" r="253.125%" fx="50%" fy="19.89%" gradientTransform="matrix(.19753 0 0 1 .401 0)">
      <stop offset="0%" stop-color="#FFF"/>
      <stop offset="69.135%" stop-color="#5D5D5D"/>
      <stop offset="76.706%" stop-color="#AAA"/>
      <stop offset="84.947%" stop-color="#A4A4A4"/>
      <stop offset="88.353%" stop-color="#373737"/>
      <stop offset="91.265%" stop-color="#989898"/>
      <stop offset="100%" stop-color="#ACACAC"/>
    </radialGradient>
    <radialGradient id="kapptemplate-l" cx="50%" cy="50%" r="251.532%" fx="50%" fy="50%" gradientTransform="matrix(.2241 .02023 -.00453 .9998 .39 -.01)">
      <stop offset="0%" stop-color="#FFF"/>
      <stop offset="100%" stop-color="#FFF" stop-opacity="0"/>
    </radialGradient>
    <radialGradient id="kapptemplate-m" cx="50%" cy="83.209%" r="493.273%" fx="50%" fy="83.209%" gradientTransform="matrix(.14815 0 0 1 .426 0)">
      <stop offset="0%" stop-color="#FFF"/>
      <stop offset="100%" stop-color="#FFF" stop-opacity="0"/>
    </radialGradient>
    <linearGradient id="kapptemplate-n" x1="35.35%" x2="35.35%" y1="-68.694%" y2="183.994%">
      <stop offset="0%" stop-color="#474747"/>
      <stop offset="100%" stop-color="#474747" stop-opacity="0"/>
    </linearGradient>
    <linearGradient id="kapptemplate-o" x1="95.491%" x2="0%" y1="50.09%" y2="49.531%">
      <stop offset="0%"/>
      <stop offset="100%" stop-opacity="0"/>
    </linearGradient>
    <radialGradient id="kapptemplate-p" cx="6.335%" cy="39.263%" r="94.368%" fx="6.335%" fy="39.263%" gradientTransform="matrix(.66968 .64362 -.56317 .76535 .242 .051)">
      <stop offset="0%" stop-color="#A8A8A8"/>
      <stop offset="27.499%" stop-color="#CFCFCF"/>
      <stop offset="57.143%" stop-color="#696969"/>
      <stop offset="100%" stop-color="#505050"/>
    </radialGradient>
    <linearGradient id="kapptemplate-q" x1="25.768%" x2="73.027%" y1="59.017%" y2="59.017%">
      <stop offset="0%" stop-color="#8D8D8D"/>
      <stop offset="27.679%" stop-color="#E2DCDC"/>
      <stop offset="71.461%" stop-color="#FFF"/>
      <stop offset="80.711%" stop-color="#DFD9DF"/>
      <stop offset="100%" stop-color="#888"/>
    </linearGradient>
    <linearGradient id="kapptemplate-r" x1="41.046%" x2="58.147%" y1="61.629%" y2="37.679%">
      <stop offset="0%" stop-color="#9A7600"/>
      <stop offset="32.522%" stop-color="#E3AD00"/>
      <stop offset="66.703%" stop-color="#FFCD2C"/>
      <stop offset="91.571%" stop-color="#E3AD00"/>
      <stop offset="100%" stop-color="#B98D00"/>
    </linearGradient>
    <linearGradient id="kapptemplate-s" x1="56.953%" x2="50.261%" y1="55.732%" y2="46.012%">
      <stop offset="0%" stop-color="#020202"/>
      <stop offset="100%" stop-color="#020202" stop-opacity="0"/>
    </linearGradient>
    <linearGradient id="kapptemplate-t" x1="8.071%" x2="96.957%" y1="74.231%" y2="28.452%">
      <stop offset="0%" stop-color="#E2DCDC"/>
      <stop offset="39.074%" stop-color="#FFF"/>
      <stop offset="82.692%" stop-color="#DFD9DF"/>
      <stop offset="100%" stop-color="#C3C3C3"/>
    </linearGradient>
    <radialGradient id="kapptemplate-u" cx="6.335%" cy="39.263%" r="97.541%" fx="6.335%" fy="39.263%" gradientTransform="matrix(.68064 -.72138 .70898 .69254 -.258 .166)">
      <stop offset="0%" stop-color="#A8A8A8"/>
      <stop offset="57.143%" stop-color="#696969"/>
      <stop offset="100%" stop-color="#505050"/>
    </radialGradient>
    <radialGradient id="kapptemplate-v" cx="50%" cy="50%" r="500%" fx="50%" fy="50%" gradientTransform="matrix(.1 0 0 1 .45 0)">
      <stop offset="0%"/>
      <stop offset="100%" stop-opacity="0"/>
    </radialGradient>
    <radialGradient id="kapptemplate-w" cx="50.293%" cy="49.983%" r="53.215%" fx="50.293%" fy="49.983%" gradientTransform="scale(-1 -.66667) rotate(2.785 25.707 -20.818)">
      <stop offset="0%" stop-color="#FFF"/>
      <stop offset="100%" stop-color="#FFF" stop-opacity="0"/>
    </radialGradient>
    <linearGradient id="kapptemplate-x" x1="0%" x2="223.672%" y1="35.391%" y2="50%">
      <stop offset="0%" stop-color="#DFDFDF"/>
      <stop offset="100%" stop-color="#BBB"/>
    </linearGradient>
    <linearGradient id="kapptemplate-A" x1="90.176%" x2="0%" y1="0%" y2="156.25%">
      <stop offset="0%" stop-color="#BBB"/>
      <stop offset="100%" stop-color="#2C2C2C"/>
    </linearGradient>
    <path id="kapptemplate-y" d="M51,9.32227001 L44.8808304,11.970511 L41.3497376,9 C40.8858243,9.65860257 40.5329748,19.0797578 42.6928648,18.99949 C46.6469744,18.8525435 49.536703,14.66631 51,9.32227001 Z"/>
    <filter id="kapptemplate-z" width="130%" height="130%" x="-15%" y="-15%" filterUnits="objectBoundingBox">
      <feOffset dy="1" in="SourceAlpha" result="shadowOffsetInner1"/>
      <feComposite in="shadowOffsetInner1" in2="SourceAlpha" k2="-1" k3="1" operator="arithmetic" result="shadowInnerInner1"/>
      <feColorMatrix in="shadowInnerInner1" values="0 0 0 0 1   0 0 0 0 1   0 0 0 0 1  0 0 0 0.555397727 0"/>
    </filter>
    <linearGradient id="kapptemplate-B" x1="80.255%" x2="35.04%" y1="10.63%" y2="97.083%">
      <stop offset="0%" stop-color="#BDBEBB"/>
      <stop offset="100%" stop-color="#E3E3E3"/>
    </linearGradient>
    <linearGradient id="kapptemplate-C" x1="96.852%" x2="0%" y1="15.552%" y2="96.522%">
      <stop offset="0%" stop-color="#F9F8F8"/>
      <stop offset="30.269%" stop-color="#9E9E9E" stop-opacity=".681"/>
      <stop offset="100%" stop-color="#FFF" stop-opacity="0"/>
    </linearGradient>
    <linearGradient id="kapptemplate-D" x1="89.569%" x2="41.608%" y1="1.251%" y2="100%">
      <stop offset="0%" stop-color="#B2B2B2"/>
      <stop offset="100%" stop-color="#6A6A6A" stop-opacity=".773"/>
    </linearGradient>
    <radialGradient id="kapptemplate-E" cx="50%" cy="38.166%" r="145.683%" fx="50%" fy="38.166%" gradientTransform="matrix(.9459 .20492 -.32446 .59741 .15 .051)">
      <stop offset="0%" stop-color="#FFF"/>
      <stop offset="100%" stop-color="#CCC"/>
    </radialGradient>
    <radialGradient id="kapptemplate-F" cx="30.079%" cy="66.753%" r="99.716%" fx="30.079%" fy="66.753%" gradientTransform="scale(.92593 1) rotate(-30.582 .313 .624)">
      <stop offset="0%" stop-color="#686868"/>
      <stop offset="100%" stop-color="#3C3C3C"/>
    </radialGradient>
  </defs>
  <g fill="none" fill-rule="evenodd">
    <rect width="3" height="3" x="65" fill="#FFF" fill-rule="nonzero" opacity=".578"/>
    <g filter="url(#kapptemplate-a)" transform="translate(6 7)">
      <path fill="#FFF" fill-opacity=".757" fill-rule="nonzero" d="M8.5,34 L8.5,31 L8.5,34 Z"/>
      <rect width="3" height="3" x="38" y="56" fill="#FFF" fill-rule="nonzero" opacity=".578"/>
      <rect width="3" height="3" x="27" y="48" fill="#FFF" fill-rule="nonzero" opacity=".578"/>
      <g fill-rule="nonzero" transform="translate(1)">
        <path fill="url(#kapptemplate-b)" stroke="url(#kapptemplate-c)" d="M81.6233421,43.5705243 L81.6233421,35.7407389 L73.2125023,35.470004 C72.8392582,32.777659 72.1157597,30.1929557 71.0805482,27.7615601 L78.2174895,23.4741622 L74.1604883,16.6933933 L66.7354999,20.5169537 C65.0430542,18.4058734 63.0787894,16.5100764 60.8900372,14.8771858 L64.8530513,7.71347368 L57.825649,3.79988576 L53.3818803,10.6856868 C50.8611302,9.68625079 48.1828332,8.9875589 45.3916163,8.62744879 L45.1103309,0.51257629 L36.9963285,0.51257629 L36.7157192,8.62744879 C33.9245023,8.9875589 31.2455292,9.68625079 28.7254553,10.6850344 L24.2816866,3.79988576 L17.2542843,7.71412606 L21.2172983,14.8778382 C19.0292223,16.5107287 17.0642814,18.4065258 15.3711595,20.5182584 L7.94617109,16.694698 L3.88916986,23.4741622 L11.0267874,27.7622125 C9.99089972,30.1936081 9.266725,32.7783114 8.89415705,35.4713087 L0.482641152,35.7407389 L0.482641152,43.5692195 L8.89415705,43.8399545 C9.26740116,46.5329518 9.99157588,49.1176551 11.0267874,51.5490507 L3.88984602,55.837101 L7.94617109,62.6172175 L15.3725119,58.7930048 C17.0649575,60.904085 19.0298985,62.8005344 21.2186506,64.433425 L17.2549604,71.5977895 L24.2816866,75.5120298 L28.7261314,68.624924 C31.2462054,69.6237076 33.9251785,70.3230519 36.7163954,70.6825096 L36.9963285,78.7973821 L45.1103309,78.7973821 L45.3909402,70.6825096 C48.182157,70.3223995 50.8611302,69.62436 53.3805279,68.624924 L57.8242966,75.5113774 L64.8516989,71.5971371 L60.8886849,64.4321203 C63.0760847,62.7992297 65.0417018,60.9034327 66.7341475,58.7923524 L74.159136,62.6159128 L78.2168134,55.8357962 L71.0791958,51.5483984 C72.1144073,49.1170028 72.8392582,46.5329518 73.2118262,43.8399545 L81.6233421,43.5705243 Z M41.0533297,59.2261807 C29.8681773,59.2261807 20.7683235,50.4465397 20.7683235,39.6549792 C20.7683235,28.8634187 29.8681773,20.0837778 41.0533297,20.0837778 C52.2384821,20.0837778 61.3383359,28.8634187 61.3383359,39.6549792 C61.3383359,50.4465397 52.2384821,59.2261807 41.0533297,59.2261807 Z"/>
        <use fill="url(#kapptemplate-d)" xlink:href="#kapptemplate-e"/>
        <use fill="#000" filter="url(#kapptemplate-f)" xlink:href="#kapptemplate-e"/>
        <path fill="url(#kapptemplate-g)" d="M41.0533297,17.4742842 C28.3569443,17.4742842 18.063656,27.4053642 18.063656,39.6549792 C18.063656,51.9052466 28.3569443,61.8356742 41.0533297,61.8356742 C53.7503912,61.8356742 64.0430034,51.9052466 64.0430034,39.6549792 C64.0430034,27.4053642 53.7503912,17.4742842 41.0533297,17.4742842 Z M41.0533297,55.9643138 C31.7323693,55.9643138 24.1491579,48.6479463 24.1491579,39.6549792 C24.1491579,30.6620121 31.7323693,23.3456447 41.0533297,23.3456447 C50.37429,23.3456447 57.9575015,30.6620121 57.9575015,39.6549792 C57.9575015,48.6479463 50.37429,55.9643138 41.0533297,55.9643138 Z"/>
        <path fill="url(#kapptemplate-h)" d="M41.0533297,18.779031 C29.1223652,18.779031 19.4159898,28.1438509 19.4159898,39.6549792 C19.4159898,51.1661075 29.1223652,60.5309274 41.0533297,60.5309274 C52.9842942,60.5309274 62.6906696,51.1661075 62.6906696,39.6549792 C62.6906696,28.1438509 52.9842942,18.779031 41.0533297,18.779031 Z M41.0533297,55.9643138 C31.7323693,55.9643138 24.1491579,48.6479463 24.1491579,39.6549792 C24.1491579,30.6620121 31.7323693,23.3456447 41.0533297,23.3456447 C50.37429,23.3456447 57.9575015,30.6620121 57.9575015,39.6549792 C57.9575015,48.6479463 50.37429,55.9643138 41.0533297,55.9643138 Z"/>
        <path fill="url(#kapptemplate-i)" d="M41.0533297,22.6932713 C31.3598014,22.6932713 23.472991,30.3025544 23.472991,39.6549792 C23.472991,49.0080564 31.3598014,56.6166872 41.0533297,56.6166872 C50.7475341,56.6166872 58.6336684,49.0080564 58.6336684,39.6549792 C58.6336684,30.3025544 50.7475341,22.6932713 41.0533297,22.6932713 Z M41.0533297,55.3119404 C32.1056135,55.3119404 24.8253247,48.2878362 24.8253247,39.6549792 C24.8253247,31.0221223 32.1056135,23.998018 41.0533297,23.998018 C50.0010459,23.998018 57.2813346,31.0221223 57.2813346,39.6549792 C57.2813346,48.2878362 50.0010459,55.3119404 41.0533297,55.3119404 Z"/>
      </g>
      <path fill="#7A7A7A" fill-rule="nonzero" d="M82,70.5 C82,74.6085543 74.1854445,78.405015 61.5,80.4592921 C48.814556,82.5135693 33.185444,82.5135693 20.5,80.4592921 C7.81455548,78.405015 0,74.6085543 0,70.5 C0,66.3914457 7.81455548,62.594985 20.5,60.5407079 C33.185444,58.4864307 48.814556,58.4864307 61.5,60.5407079 C74.1854445,62.594985 82,66.3914457 82,70.5 L82,70.5 Z"/>
      <path fill="url(#kapptemplate-j)" fill-rule="nonzero" d="M82,65.5 C82,69.6085543 74.1854445,73.405015 61.5,75.4592921 C48.814556,77.5135693 33.185444,77.5135693 20.5,75.4592921 C7.81455548,73.405015 0,69.6085543 0,65.5 C0,61.3914457 7.81455548,57.594985 20.5,55.5407079 C33.185444,53.4864307 48.814556,53.4864307 61.5,55.5407079 C74.1854445,57.594985 82,61.3914457 82,65.5 L82,65.5 Z"/>
      <path fill="url(#kapptemplate-k)" fill-rule="nonzero" d="M81,65 C81,71.2797079 62.8540427,76.3767147 40.4975075,76.3767147 C18.2573888,76.3767129 0.187647931,71.3331248 0,65.0984875 L0.160286949,69.6232853 C0.160286949,75.9029959 18.1459573,81 40.5025245,81 C62.8590597,81 80.8397131,75.9029959 80.8397131,69.6232853 L81,65 Z"/>
      <path fill="url(#kapptemplate-l)" fill-rule="nonzero" d="M68.7763706,61.5 C70.8262406,64.9657422 58.5886788,68 40.0803378,68 C20.6775601,68 8.65693723,64.8685493 11.384321,61.5 C14.9417935,57.1061877 27.7976138,55 40.0803378,55 C51.9183898,55 66.4663693,57.5944403 68.7763706,61.5 Z"/>
      <path fill="url(#kapptemplate-m)" fill-rule="nonzero" d="M0.0751264997,65 C0.0292363461,65.220778 0,65.4431554 0,65.6671338 C0,71.922641 18.1459573,77 40.5024925,77 C62.8590437,77 81,71.9226401 81,65.6671338 C81,65.4431554 80.9757646,65.220778 80.9298745,65 C79.6943025,70.9453336 62.0585706,75.6657323 40.5024925,75.6657323 C18.9464303,75.6657323 1.31069845,70.9453336 0.0751264997,65 Z"/>
      <path fill="url(#kapptemplate-n)" fill-rule="nonzero" d="M1.07419901,65 C1.0288754,65.2023799 1,65.4062258 1,65.6115394 C1,71.3457542 18.9219331,76 41.0024617,76 C63.0830061,76 81,71.3457534 81,65.6115394 C81,65.4062258 80.9760638,65.2023799 80.9307402,65 C79.7104222,70.4498891 62.2924154,75.270264 41.0024617,75.270264 C19.7125238,75.270264 2.29451699,70.4498891 1.07419901,65 Z" opacity=".506"/>
      <path fill="url(#kapptemplate-o)" fill-rule="nonzero" d="M12,58.2155781 C11.9638079,59.5130914 33.3972463,61.4960972 43.1488258,61.9186208 C52.9004059,62.3411334 47.2956194,61.0439602 47.3318587,59.7464592 C47.368089,58.4489307 53.031697,57.6399996 43.2801175,57.217479 C33.528538,56.7949598 12.0362832,56.9180634 12,58.2155781 Z" opacity=".321"/>
      <path fill="url(#kapptemplate-p)" d="M17.5818746,28.0089818 L18,27.4070986 C15.3679504,24.139333 12.718919,19.7045042 7.9941391,20.0154993 C6.90667818,20.4324915 6.76575455,22.9286968 6.71583088,24.5599793 L3.52630632,26.7845678 L2,28.9843319 C3.40924949,30.8737707 4.95315748,32.5865039 6.72511799,34 L8.51775761,32.0195789 L10.0080042,27.4645782 C11.8949253,26.2054349 14.6177009,25.9198039 17.5818746,28.0089818 Z"/>
      <polygon fill="url(#kapptemplate-q)" fill-rule="nonzero" points="21.303 24.142 26.155 24.142 25.847 36.58 20.995 36.58" transform="rotate(-49.036 23.575 30.361)"/>
      <path fill="url(#kapptemplate-r)" fill-rule="nonzero" d="M24.4292733,35.8827974 C24.87984,36.4939953 30.5492403,43.1736634 33.2170101,46.1027622 C38.5525436,51.9609547 45.0333217,58.3993475 45.0333217,58.3993475 C45.81945,59.2051582 46.9433917,59.1969295 47.5589209,58.3943076 L50.6113694,54.4140469 C51.2268945,53.6114237 51.09935,52.3203811 50.3132297,51.5145776 C50.3132297,51.5145776 43.9995093,44.8583421 38.3649176,39.3901094 C35.5476223,36.6559885 29.1984796,30.8684118 28.6371841,30.3958626 C28.0708174,29.9190472 27.6127683,29.8529838 27.264391,30.307253 C26.2434718,31.6384899 25.2225539,32.9697267 24.2016346,34.3009591 C23.908096,34.6837255 23.8958239,35.1591631 24.4292733,35.8827974 Z"/>
      <path fill="url(#kapptemplate-s)" fill-rule="nonzero" d="M45,58.3580562 C45.7905185,59.2192615 46.920737,59.2104672 47.5397037,58.3526699 L50.609199,54.0987903 C51.2281616,53.2409916 51.0999048,51.8611977 50.3093943,51 C50.3093943,51 45,58.3580562 45,58.3580562 Z" opacity=".37"/>
      <path fill="url(#kapptemplate-t)" d="M7.93707959,19.6617915 C7.60741105,20.1421716 7.29777196,20.6462845 7,21.1674898 C7.57658744,21.9967408 9.21544238,23.4719811 9.8994177,24.0793502 C10.3585562,24.4870607 11.9440235,24.0157194 12.4817079,24.3183251 C14.1800588,25.2741394 15.7197415,26.9274132 17.3892537,28 L20.1770325,24.8279724 C20.1770338,24.8279671 17.2806265,21.2616099 18.4683567,19.3320008 C21.1489855,14.9770063 28.2665339,15.6378764 29,16.0707292 L27.7034269,13.3577195 C27.7034269,13.3577195 27.6031416,13.3226304 27.5869142,13.3197467 C20.5943604,10.0425378 12.4166833,13.1342671 7.93707959,19.6617915 Z"/>
      <path fill="url(#kapptemplate-u)" d="M20.1770325,24.8279724 L20.5702467,24.3361013 C20.5702467,24.3361013 18.0429163,21.2819416 19.1561148,19.3690028 C21.8248982,14.7829325 28.7502249,15.879457 29,16.157735 L27.8359871,13.4112405 C27.8359871,13.4112405 20.6419501,11.5096032 17.6798959,15.8848272 C15.6267727,18.9169296 18.4800215,23.3731423 20.1770325,24.8279724 Z"/>
      <polygon fill="#B7B7B7" points="27.044 13 28 15.909 27.954 16 27 13.114" opacity=".11"/>
      <path fill="url(#kapptemplate-v)" fill-rule="nonzero" d="M78,63.5 C78,64.8807119 66.8071187,66 53,66 C39.1928813,66 28,64.8807119 28,63.5 C28,62.1192881 39.1928813,61 53,61 C66.8071187,61 78,62.1192881 78,63.5 Z" opacity=".221" transform="matrix(-1 0 0 1 106 0)"/>
      <path fill="url(#kapptemplate-w)" d="M31.7502906,61 C31.7502906,61 29.6413311,60.7635411 28.7279229,59.1698779 C27.8145148,57.57621 28.0197236,55.3484065 28.0197236,55.3484065 L28.3141433,55 C28.3141433,55 28.2342483,57.2511959 29.0440109,58.7842599 C29.8692927,60.3466972 32.0413809,60.7092947 31.9993999,60.7641325 L31.7502906,61 Z" opacity=".894"/>
      <path fill="#FFF" fill-opacity=".757" fill-rule="nonzero" d="M32.5,14 L32.5,11 L32.5,14 Z"/>
      <g transform="translate(30 15)">
        <g stroke-linejoin="round">
          <use fill="url(#kapptemplate-x)" xlink:href="#kapptemplate-y"/>
          <use fill="#000" filter="url(#kapptemplate-z)" xlink:href="#kapptemplate-y"/>
          <path stroke="url(#kapptemplate-A)" d="M41.3910314,8.38134478 L44.9660548,11.3888121 L51.7353774,8.45919924 C50.9605064,11.7503374 49.6663447,14.6882787 47.9465908,16.6916693 C46.4873129,18.3916241 44.722393,19.4244119 42.7114335,19.4991451 C42.4065585,19.5104752 42.1291067,19.4136815 41.8809033,19.214197 C41.6750217,19.048727 41.4868718,18.803625 41.3272183,18.4852529 C41.034671,17.9018717 40.826225,17.0448751 40.695423,16.071063 C40.2981034,13.1130464 40.6382331,9.14184629 40.9409665,8.71206561 C40.9945073,8.63605543 41.1519558,8.5216416 41.3910314,8.38134478 L41.3910314,8.38134478 Z"/>
        </g>
        <path fill="url(#kapptemplate-B)" d="M40.6515248,2.51289654e-06 C37.1663987,-0.00271797287 34.2356809,2.20377063 33.6371719,5.20076933 C33.6334961,5.21413051 33.623952,5.24240422 33.6203788,5.25579792 C33.6203788,5.25579792 31.2336573,13.7481676 29.4176521,15.8722812 C27.992331,17.5394148 2.3124328,37.0978466 0.991593192,38.890981 C-1.79816456,42.6782433 1.68794107,49.0936223 6.60546009,46.3271023 C9.84743953,44.5032114 30.834698,22.3966884 33.4657695,21.0090298 C35.2441953,20.0710621 43.967898,19.236943 43.967898,19.236943 C44.446317,19.4260932 41.4498632,10.8135211 40.692015,8.11560487 C40.9126587,6.38308038 40.9271288,6.24206531 41.2737121,4.68207182 C43.2916833,4.11304594 47,3.11341632 47,3.11341632 C45.7829516,1.43191038 43.7191817,0.238598231 41.3141463,0.0515417491 C41.2983887,0.0503155585 41.278918,0.0487138536 41.263179,0.0475778703 C41.1754906,0.0412486708 40.8579409,0.0144623319 40.8299243,0.0138801798 C40.8056115,0.013375648 40.7660729,0.00830620464 40.7407245,0.00694260514 C40.713221,0.00664680894 40.6789723,2.51289654e-06 40.6515248,2.51289654e-06 Z M4.90295813,38.7813853 C6.30255776,38.8902446 7.45773265,40.556451 7.29794554,42.325049 C7.16575522,43.7882101 5.64837009,45.1262495 4.24877979,45.0173944 C2.8491895,44.9085361 1.62885707,43.1802807 1.74525247,41.5722518 C1.85710438,40.0270303 3.13406714,38.6438055 4.90295813,38.7813853 Z"/>
        <path fill="url(#kapptemplate-C)" stroke="url(#kapptemplate-D)" d="M40.6519151,-0.499997335 C43.9451693,-0.245334973 46.1174053,1.04122699 47.405039,2.82025567 C47.5435162,3.01157943 47.6733862,3.21084236 47.7935126,3.41781582 C47.3833021,3.52794071 47.1301366,3.59618423 47.1301366,3.59618423 C47.1301366,3.59618423 43.7576889,4.50526415 41.6971697,5.08266666 C41.4296699,6.29808212 41.3940539,6.56066183 41.2144629,7.97140592 C41.464583,9.00382249 41.9684721,10.5624882 42.5027042,12.2178914 C43.1256345,14.1481403 43.790246,16.2080865 44.174626,17.5676532 C44.3243853,18.0973576 44.4322119,18.5247063 44.4821374,18.8036619 C44.4659664,19.283131 35.7498721,20.3696421 33.6990222,21.4512916 C32.436892,22.1169538 26.9259471,27.6054094 21.1989574,33.28243 C14.9907391,39.4364805 8.53560532,45.8149246 6.85061877,46.7628738 C5.63724995,47.4454967 4.5020521,47.6125588 3.50680536,47.433411 C2.36628822,47.228114 1.39850447,46.5638519 0.698756686,45.6369672 C-0.0406643868,44.6575314 -0.477696761,43.3848999 -0.499166832,42.0821672 C-0.519072093,40.8743819 -0.183193384,39.6427703 0.589020601,38.5944449 C1.30732431,37.6192966 9.17147888,31.4129818 16.4884357,25.6573809 C22.6343619,20.8229259 28.3863357,16.3091371 29.0376118,15.5473688 C30.7730462,13.5174957 33.0171102,5.55607844 33.1342265,5.13736813 C33.4702908,3.49662514 34.4237996,2.0810037 35.766076,1.07764932 C37.0918426,0.0866360612 38.7976075,-0.501444805 40.6519151,-0.499997335 Z M4.65671168,39.2720255 L4.45517026,39.2806892 C3.92597274,39.3251811 3.46408934,39.5382238 3.10177647,39.8584453 C2.60421858,40.2982 2.29266659,40.9353045 2.24394766,41.6083493 C2.19368775,42.3027015 2.43906294,43.0210371 2.84255824,43.5762933 C3.21405275,44.0875127 3.72524996,44.4751642 4.28755202,44.5188993 C4.86196235,44.5635749 5.45324254,44.2960258 5.9182608,43.885425 C6.39184893,43.4672572 6.74488074,42.8898604 6.79997372,42.2800584 C6.86857886,41.5207065 6.65755307,40.7827598 6.27815989,40.2214039 C5.92683102,39.7015723 5.42753502,39.3236992 4.86418579,39.2798825 L4.86418579,39.2798825 L4.65671168,39.2720255 Z"/>
        <path fill="url(#kapptemplate-E)" d="M34,5.90095196 L35.8812276,12.8661799 L37.1013687,12.475244 L38.4126857,17.5393529 L37.4028164,17.9123123 L38.4660607,20 C40.6910866,19.6934742 43.1384466,18.9826193 43.1384466,18.9826193 C43.140114,18.9830761 43.1486994,18.983363 43.1502604,18.9835614 C43.1517327,18.9835034 43.1606995,18.9848157 43.1620742,18.9845034 C43.1631563,18.9834383 43.1737816,18.9741998 43.174775,18.9728864 C43.1755644,18.9710826 43.1749613,18.9623721 43.1756619,18.9603262 C43.176877,18.9557523 43.1883893,18.9416763 43.1892407,18.936148 C43.2700927,18.213204 40.7130823,10.6646046 40.0384615,8.20123406 C40.2471014,6.52086854 40.2663388,6.38616608 40.5940572,4.87313737 C42.5022029,4.32124347 46,3.34663599 46,3.34663599 C44.8491808,1.71575306 42.1926133,0.87373908 40.1012291,1.01536762 C36.8162671,1.23782516 34.6474899,3.12056586 34,5.90095196 Z"/>
        <path fill="url(#kapptemplate-F)" d="M7.00063587,35.9232461 C9.18099859,35.6628781 11.2513537,38.6014273 10.4759208,41 C12.2388728,39.772453 33.2576344,19.885125 33.7712399,18.8602544 C34.5577399,17.2908514 33.1877577,15.5890834 31.6158038,16.0888536 C30.5193698,16.4374408 6.85871584,35.9401932 7.00063587,35.9232461 Z"/>
      </g>
    </g>
  </g>
</svg>
