<svg xmlns="http://www.w3.org/2000/svg" xmlns:xlink="http://www.w3.org/1999/xlink" width="96" height="96" viewBox="0 0 96 96">
  <defs>
    <filter id="kmsclient-a" width="130.6%" height="130.6%" x="-14.1%" y="-14.1%" filterUnits="objectBoundingBox">
      <feOffset dy="2" in="SourceAlpha" result="shadowOffsetOuter1"/>
      <feGaussianBlur in="shadowOffsetOuter1" result="shadowBlurOuter1" stdDeviation="2"/>
      <feColorMatrix in="shadowBlurOuter1" result="shadowMatrixOuter1" values="0 0 0 0 0   0 0 0 0 0   0 0 0 0 0  0 0 0 0.2 0"/>
      <feMerge>
        <feMergeNode in="shadowMatrixOuter1"/>
        <feMergeNode in="SourceGraphic"/>
      </feMerge>
    </filter>
    <linearGradient id="kmsclient-b" x1="50%" x2="50%" y1="0%" y2="100%">
      <stop offset="0%" stop-color="#F0FBEE"/>
      <stop offset="100%" stop-color="#B1E2F7"/>
    </linearGradient>
    <linearGradient id="kmsclient-e" x1="80.797%" x2="16.842%" y1="17.938%" y2="83.862%">
      <stop offset="0%" stop-color="#8333FF"/>
      <stop offset="100%" stop-color="#2D2DF0"/>
    </linearGradient>
    <circle id="kmsclient-d" cx="19.375" cy="19.938" r="19"/>
    <filter id="kmsclient-c" width="128.9%" height="128.9%" x="-14.5%" y="-9.2%" filterUnits="objectBoundingBox">
      <feOffset dy="2" in="SourceAlpha" result="shadowOffsetOuter1"/>
      <feGaussianBlur in="shadowOffsetOuter1" result="shadowBlurOuter1" stdDeviation="1.5"/>
      <feColorMatrix in="shadowBlurOuter1" values="0 0 0 0 0   0 0 0 0 0.0350400191   0 0 0 0 0.298035553  0 0 0 0.15 0"/>
    </filter>
    <linearGradient id="kmsclient-h" x1="77.514%" x2="18.075%" y1="10.345%" y2="87.056%">
      <stop offset="0%" stop-color="#0AB4FF"/>
      <stop offset="100%" stop-color="#0A51D0"/>
    </linearGradient>
    <circle id="kmsclient-g" cx="36.375" cy="19.938" r="19"/>
    <filter id="kmsclient-f" width="128.9%" height="128.9%" x="-14.5%" y="-9.2%" filterUnits="objectBoundingBox">
      <feOffset dy="2" in="SourceAlpha" result="shadowOffsetOuter1"/>
      <feGaussianBlur in="shadowOffsetOuter1" result="shadowBlurOuter1" stdDeviation="1.5"/>
      <feColorMatrix in="shadowBlurOuter1" values="0 0 0 0 0   0 0 0 0 0.0350400191   0 0 0 0 0.298035553  0 0 0 0.15 0"/>
    </filter>
    <linearGradient id="kmsclient-k" x1="92.831%" x2="11.074%" y1="28.169%" y2="75.209%">
      <stop offset="0%" stop-color="#37FBB3"/>
      <stop offset="100%" stop-color="#2184DC"/>
    </linearGradient>
    <circle id="kmsclient-j" cx="53.375" cy="19.938" r="19"/>
    <filter id="kmsclient-i" width="128.9%" height="128.9%" x="-14.5%" y="-9.2%" filterUnits="objectBoundingBox">
      <feOffset dy="2" in="SourceAlpha" result="shadowOffsetOuter1"/>
      <feGaussianBlur in="shadowOffsetOuter1" result="shadowBlurOuter1" stdDeviation="1.5"/>
      <feColorMatrix in="shadowBlurOuter1" values="0 0 0 0 0.0715196752   0 0 0 0 0.236045063   0 0 0 0 0.181359068  0 0 0 0.15 0"/>
    </filter>
    <linearGradient id="kmsclient-n" x1="56.876%" x2="56.876%" y1="0%" y2="91.235%">
      <stop offset="0%" stop-color="#FFF"/>
      <stop offset="100%" stop-color="#FFF" stop-opacity=".769"/>
    </linearGradient>
    <path id="kmsclient-m" d="M17.25,48.5 L17.25,45.8922245 L17.25,45.8922245 L19.96875,42.7460938 L23.4171205,49.5875724 C23.5445913,49.8404712 23.8036477,50 24.0868554,50 L29.1888762,50 C29.4995364,50 29.7513762,49.7481602 29.7513762,49.4375 C29.7513762,49.334706 29.7232082,49.2338773 29.669932,49.1459668 L23.5898437,39.1132812 L23.5898437,39.1132812 L29.1537641,32.9390588 C29.3617318,32.7082793 29.3432392,32.3526044 29.1124597,32.1446367 C29.0091383,32.0515283 28.8749854,32 28.7359009,32 L23.9264134,32 C23.7123185,32 23.5084293,32.0914972 23.3661107,32.2514412 L17.25,39.125 L17.25,39.125 L17.25,33.5 C17.25,32.6715729 16.5784271,32 15.75,32 L13.5,32 C12.6715729,32 12,32.6715729 12,33.5 L12,48.5 C12,49.3284271 12.6715729,50 13.5,50 L15.75,50 C16.5784271,50 17.25,49.3284271 17.25,48.5 Z M37,48.875 L37,38 L37,38 L39.7869631,49.1478526 C39.9121664,49.6486655 40.3621474,50 40.8783735,50 L43.1216265,50 C43.6378526,50 44.0878336,49.6486655 44.2130369,49.1478526 L47,38 L47,38 L47,48.875 C47,49.4963203 47.5036797,50 48.125,50 L50.875,50 C51.4963203,50 52,49.4963203 52,48.875 L52,33.5 C52,32.6715729 51.3284271,32 50.5,32 L45.9077352,32 C45.2256758,32 44.6294831,32.4601556 44.4566769,33.1199609 L42,42.5 L42,42.5 L39.4272492,33.1038667 C39.2487607,32.4519956 38.6563672,32 37.9805017,32 L33.5,32 C32.6715729,32 32,32.6715729 32,33.5 L32,48.875 C32,49.4963203 32.5036797,50 33.125,50 L35.875,50 C36.4963203,50 37,49.4963203 37,48.875 Z M62.1875,50.375 C63.8515625,50.375 65.1367188,49.8652344 66.2304688,49.3847656 C67.3242188,48.9042969 68.1757813,48.1992187 68.7851563,47.2695312 C69.3945313,46.3398437 69.6992188,45.3242187 69.6992188,44.2226562 C69.6992188,43.2851562 69.4707031,42.4375 69.0136719,41.6796875 C68.5566406,40.921875 67.8261719,40.2871094 66.8222656,39.7753906 C65.8183594,39.2636719 64.15625,38.7578125 61.8359375,38.2578125 C60.8984375,38.0625 60.3046875,37.8515625 60.0546875,37.625 C59.796875,37.40625 59.6679688,37.1601562 59.6679688,36.8867187 C59.6679688,36.5117187 59.8242188,36.1933594 60.1367188,35.9316406 C60.4492188,35.6699219 60.9140625,35.5390625 61.53125,35.5390625 C62.28125,35.5390625 62.8714199,35.6936546 63.3503687,35.9316406 C63.5835776,36.0475204 63.7681286,36.263079 63.9040215,36.5783164 C64.0225138,36.8533456 64.2932842,37.0314793 64.5927529,37.0314793 L68.1222129,37.0314793 C68.5364157,37.0314599 68.8721934,36.6956821 68.8721934,36.2814793 C68.8721934,36.2262732 68.8660979,36.1712359 68.8540176,36.1173678 C68.7632837,35.712768 68.6586119,35.4046556 68.5400023,35.1930306 C68.2461253,34.6686911 67.7306477,33.8572561 67.1323458,33.4333745 C65.9800021,32.6169682 64.1953125,32 62,32 C60.2109375,32 58.8613281,32.5644531 57.8339844,33.0136719 C56.8066406,33.4628906 56.0371094,34.0800781 55.5253906,34.8652344 C55.0136719,35.6503906 54.7578125,36.484375 54.7578125,37.3671875 C54.7578125,38.7109375 55.2578125,39.8164062 56.2578125,40.6835937 C57.25,41.5507812 58.9101563,42.2460937 61.2382813,42.7695312 C62.6601563,43.0820312 63.5664063,43.4140625 63.9570313,43.765625 C64.3476563,44.1171875 64.5429688,44.515625 64.5429688,44.9609375 C64.5429688,45.4296875 64.3378906,45.8417969 63.9277344,46.1972656 C63.5175781,46.5527344 62.8515625,46.625 62.09375,46.625 C61.078125,46.625 60.3789063,46.3828125 59.8320313,45.6875 C59.70479,45.5247495 59.5971627,45.3608782 59.5066024,45.1755091 C59.4444942,45.0483792 59.3794965,44.8468396 59.3116093,44.5708906 C59.2291944,44.2356441 58.9285525,44 58.5833245,44 L54.9997727,44 C54.5855408,43.9999669 54.2497396,44.3357682 54.2497396,44.75 C54.2497396,44.7942085 54.2536482,44.8383304 54.2614197,44.8818505 C54.3259545,45.2432403 54.3913439,45.5317407 54.4575879,45.7473516 C54.7728329,46.7734101 55.2926412,47.6871725 56.0234375,48.4179687 C57.1484375,49.5429687 59.265625,50.375 62.1875,50.375 Z"/>
    <filter id="kmsclient-l" width="113.9%" height="143.5%" x="-6.9%" y="-10.9%" filterUnits="objectBoundingBox">
      <feOffset dy="2" in="SourceAlpha" result="shadowOffsetOuter1"/>
      <feGaussianBlur in="shadowOffsetOuter1" result="shadowBlurOuter1" stdDeviation="1"/>
      <feColorMatrix in="shadowBlurOuter1" values="0 0 0 0 0   0 0 0 0 0   0 0 0 0 0  0 0 0 0.1 0"/>
    </filter>
    <linearGradient id="kmsclient-o" x1="53.569%" x2="53.569%" y1="3.289%" y2="102.766%">
      <stop offset="0%" stop-color="#FFF" stop-opacity=".3"/>
      <stop offset="100%" stop-color="#BFCED6" stop-opacity=".138"/>
    </linearGradient>
    <linearGradient id="kmsclient-r" x1="50%" x2="50%" y1="0%" y2="100%">
      <stop offset="0%" stop-color="#FFF"/>
      <stop offset="100%" stop-color="#D1EAE4"/>
      <stop offset="100%" stop-color="#EDF2DE"/>
    </linearGradient>
    <circle id="kmsclient-q" cx="68" cy="68" r="17"/>
    <filter id="kmsclient-p" width="129.4%" height="129.4%" x="-17.6%" y="-17.6%" filterUnits="objectBoundingBox">
      <feOffset dx="-1" dy="-1" in="SourceAlpha" result="shadowOffsetOuter1"/>
      <feGaussianBlur in="shadowOffsetOuter1" result="shadowBlurOuter1" stdDeviation="1.5"/>
      <feColorMatrix in="shadowBlurOuter1" values="0 0 0 0 0   0 0 0 0 0   0 0 0 0 0  0 0 0 0.1 0"/>
    </filter>
    <linearGradient id="kmsclient-s" x1="50%" x2="50%" y1="6.026%" y2="100%">
      <stop offset="0%" stop-color="#577FB3"/>
      <stop offset="100%" stop-color="#192469"/>
    </linearGradient>
  </defs>
  <g fill="none" fill-rule="evenodd" filter="url(#kmsclient-a)" transform="translate(7 6)">
    <rect width="80" height="80" x="1" y="1" fill="url(#kmsclient-b)" rx="18.375"/>
    <path fill="#000" fill-opacity=".04" fill-rule="nonzero" d="M62.625,0 L19.375,0 C8.67448297,0 0,8.67448297 0,19.375 L0,62.625 C0,73.325517 8.67448297,82 19.375,82 L62.625,82 C73.325517,82 82,73.325517 82,62.625 L82,19.375 C82,8.67448297 73.325517,0 62.625,0 Z M62.625,1 C72.7732323,1 81,9.22676772 81,19.375 L81,62.625 C81,72.7732323 72.7732323,81 62.625,81 L19.375,81 C9.22676772,81 1,72.7732323 1,62.625 L1,19.375 C1,9.22676772 9.22676772,1 19.375,1 L62.625,1 Z"/>
    <g transform="translate(4.625 21.063)">
      <g fill-rule="nonzero" opacity=".704">
        <use fill="#000" filter="url(#kmsclient-c)" xlink:href="#kmsclient-d"/>
        <use fill="url(#kmsclient-e)" xlink:href="#kmsclient-d"/>
      </g>
      <g fill-rule="nonzero" opacity=".86">
        <use fill="#000" filter="url(#kmsclient-f)" xlink:href="#kmsclient-g"/>
        <use fill="url(#kmsclient-h)" xlink:href="#kmsclient-g"/>
      </g>
      <g opacity=".855">
        <use fill="#000" filter="url(#kmsclient-i)" xlink:href="#kmsclient-j"/>
        <use fill="url(#kmsclient-k)" xlink:href="#kmsclient-j"/>
      </g>
    </g>
    <g fill-rule="nonzero">
      <use fill="#000" filter="url(#kmsclient-l)" xlink:href="#kmsclient-m"/>
      <use fill="url(#kmsclient-n)" xlink:href="#kmsclient-m"/>
    </g>
    <path fill="url(#kmsclient-o)" fill-rule="nonzero" d="M60.1367188,35.9316406 C59.8242188,36.1933594 59.6679688,36.5117187 59.6679688,36.8867187 C59.6679688,37.1601562 59.796875,37.40625 60.0546875,37.625 C60.2838542,37.8326823 60.8018663,38.0272352 61.608724,38.2086589 L61.8359375,38.2578125 C64.15625,38.7578125 65.8183594,39.2636719 66.8222656,39.7753906 C67.8261719,40.2871094 68.5566406,40.921875 69.0136719,41.6796875 C69.4707031,42.4375 69.6992188,43.2851562 69.6992188,44.2226562 C69.6992188,45.3242187 69.3945313,46.3398437 68.7851563,47.2695312 C68.1757813,48.1992187 67.3242188,48.9042969 66.2304688,49.3847656 C65.2148438,49.8309152 64.0341797,50.3023258 62.5383536,50.3673939 L62.1875,50.375 C59.265625,50.375 57.1484375,49.5429687 56.0234375,48.4179687 C55.2926412,47.6871725 54.7728329,46.7734101 54.4575879,45.7473516 C54.3913439,45.5317407 54.3259545,45.2432403 54.2614197,44.8818505 C54.2536482,44.8383304 54.2497396,44.7942085 54.2497396,44.75 C54.2497396,44.3702875 54.5319059,44.0564785 54.8979976,44.0068393 L54.9997727,44 L58.5833245,44 C58.9285525,44 59.2291944,44.2356441 59.3116093,44.5708906 C59.3794965,44.8468396 59.4444942,45.0483792 59.5066024,45.1755091 C59.5971627,45.3608782 59.70479,45.5247495 59.8320313,45.6875 C60.3789063,46.3828125 61.078125,46.625 62.09375,46.625 C62.8515625,46.625 63.5175781,46.5527344 63.9277344,46.1972656 C64.3378906,45.8417969 64.5429688,45.4296875 64.5429688,44.9609375 C64.5429688,44.515625 64.3476563,44.1171875 63.9570313,43.765625 C63.5924479,43.4375 62.7786979,43.1263889 61.5157813,42.8322917 L61.2382813,42.7695312 C58.9101563,42.2460937 57.25,41.5507812 56.2578125,40.6835937 C55.2578125,39.8164062 54.7578125,38.7109375 54.7578125,37.3671875 C54.7578125,36.484375 55.0136719,35.6503906 55.5253906,34.8652344 C56.0371094,34.0800781 56.8066406,33.4628906 57.8339844,33.0136719 L58.2623872,32.8294497 C59.1546788,32.455158 60.2632205,32.0651163 61.6480122,32.0073247 L62,32 C64.1953125,32 65.9800021,32.6169682 67.1323458,33.4333745 C67.7306477,33.8572561 68.2461253,34.6686911 68.5400023,35.1930306 C68.6586119,35.4046556 68.7632837,35.712768 68.8540176,36.1173678 C68.8660979,36.1712359 68.8721934,36.2262732 68.8721934,36.2814793 C68.8721934,36.6611652 68.5900468,36.9749523 68.2239808,37.0246284 L68.1222129,37.0314793 L64.5927529,37.0314793 C64.2932842,37.0314793 64.0225138,36.8533456 63.9040215,36.5783164 C63.7681286,36.263079 63.5835776,36.0475204 63.3503687,35.9316406 C62.8714199,35.6936546 62.28125,35.5390625 61.53125,35.5390625 C60.9140625,35.5390625 60.4492188,35.6699219 60.1367188,35.9316406 Z M17.25,45.8922245 L17.25,48.5 C17.25,49.2796961 16.6551119,49.9204487 15.89446,49.9931334 L15.75,50 L13.5,50 C12.7203039,50 12.0795513,49.4051119 12.0068666,48.64446 L12,48.5 L12,33.5 C12,32.7203039 12.5948881,32.0795513 13.35554,32.0068666 L13.5,32 L15.75,32 C16.5296961,32 17.1704487,32.5948881 17.2431334,33.35554 L17.25,33.5 L17.25,39.125 L23.3661107,32.2514412 C23.4847095,32.1181545 23.6460657,32.0324004 23.8204542,32.0075181 L23.9264134,32 L28.7359009,32 C28.8749854,32 29.0091383,32.0515283 29.1124597,32.1446367 C29.317597,32.3294969 29.3550015,32.631064 29.2147187,32.8578805 L29.1537641,32.9390588 L23.5898437,39.1132812 L29.669932,49.1459668 C29.7232082,49.2338773 29.7513762,49.334706 29.7513762,49.4375 C29.7513762,49.7170942 29.547386,49.9490438 29.2801166,49.9926378 L29.1888762,50 L24.0868554,50 C23.8390487,50 23.6097328,49.8778607 23.4708803,49.6779035 L23.4171205,49.5875724 L19.96875,42.7460938 L17.25,45.8922245 Z M44.2130369,49.1478526 C44.0982672,49.606931 43.7105941,49.9404062 43.2491533,49.9927973 L43.1216265,50 L40.8783735,50 C40.4051662,50 39.9876232,49.7047814 39.8248805,49.2698249 L39.7869631,49.1478526 L37,38 L37,48.875 C37,49.454899 36.5612391,49.9323199 35.9975811,49.9933987 L35.875,50 L33.125,50 C32.545101,50 32.0676801,49.5612391 32.0066013,48.9975811 L32,48.875 L32,33.5 C32,32.7203039 32.5948881,32.0795513 33.35554,32.0068666 L33.5,32 L37.9805017,32 C38.6113095,32 39.1694039,32.3937384 39.3861307,32.9762322 L39.4272492,33.1038667 L42,42.5 L44.4566769,33.1199609 C44.6179627,32.5041426 45.1480652,32.0622414 45.7725682,32.0060582 L45.9077352,32 L50.5,32 C51.2796961,32 51.9204487,32.5948881 51.9931334,33.35554 L52,33.5 L52,48.875 C52,49.454899 51.5612391,49.9323199 50.9975811,49.9933987 L50.875,50 L48.125,50 C47.545101,50 47.0676801,49.5612391 47.0066013,48.9975811 L47,48.875 L47,38 L44.2130369,49.1478526 Z M62,33 C60.6915427,33 59.7360893,33.2733733 58.2346204,33.9299091 C57.3782991,34.3043462 56.7629028,34.7979128 56.363167,35.4112478 C55.9556786,36.0364782 55.7578125,36.681431 55.7578125,37.3671875 C55.7578125,38.4222708 56.1329511,39.2516788 56.9158973,39.9306499 C57.7098636,40.624589 59.1011586,41.2285553 61.0758503,41.70501 L61.4529383,41.7928418 C63.038862,42.1413964 64.0648457,42.5172956 64.625996,43.0223309 C65.2182947,43.5553997 65.5429688,44.2177347 65.5429688,44.9609375 C65.5429688,45.7327323 65.2035045,46.4148937 64.5826649,46.9529547 C63.9802856,47.4750168 63.2303696,47.625 62.09375,47.625 C60.7479117,47.625 59.7805181,47.2395741 59.0442241,46.303422 C58.8687108,46.0789282 58.7268093,45.8574653 58.6080946,45.6144667 C58.5481317,45.4917279 58.4938572,45.3487137 58.4419963,45.1806301 L58.389,45 L55.302,44.999 L55.3595112,45.2558439 L55.4134887,45.4536618 C55.6888326,46.3498506 56.133178,47.1134957 56.7305443,47.710862 C57.7379814,48.718299 59.6878497,49.375 62.1875,49.375 C63.4217104,49.375 64.3812676,49.1048607 65.8282781,48.4692097 C66.7480727,48.0651571 67.4476501,47.4859198 67.9488062,46.7213354 C68.4516661,45.9541518 68.6992188,45.1289763 68.6992188,44.2226562 C68.6992188,43.4644806 68.5189084,42.7956371 68.1573496,42.1961293 C67.8035836,41.6095429 67.2147856,41.097887 66.3681321,40.6663243 C65.4588443,40.2028351 63.8678539,39.7186207 61.6319832,39.2367929 C60.5240702,39.0059777 59.8090771,38.751967 59.4077101,38.3875091 C58.9379915,37.98896 58.6679688,37.4734621 58.6679688,36.8867187 C58.6679688,36.2083843 58.9605064,35.6123388 59.4946511,35.1649927 C60.010743,34.7327657 60.6988229,34.5390625 61.53125,34.5390625 C62.3879857,34.5390625 63.1377358,34.7093372 63.7953546,35.036103 C64.2005085,35.237421 64.5116948,35.5669032 64.7330389,35.9938075 L64.751,36.031 L67.8,36.031 L67.7700636,35.932327 L67.7231151,35.8014963 C67.7154453,35.782267 67.7078678,35.764338 67.700405,35.7477278 L67.6676714,35.6819466 C67.3046951,35.0343191 66.9016347,34.4954566 66.5542518,34.2493446 C65.4702262,33.48134 63.8463777,33 62,33 Z M15.75,33 L13.5,33 C13.2545401,33 13.0503916,33.1768752 13.0080557,33.4101244 L13,33.5 L13,48.5 C13,48.7454599 13.1768752,48.9496084 13.4101244,48.9919443 L13.5,49 L15.75,49 C15.9954599,49 16.1996084,48.8231248 16.2419443,48.5898756 L16.25,48.5 L16.25,45.5200083 L20.1891557,40.9616272 L24.241,49 L28.412,49 L22.349438,38.9959556 L27.751,33 L24.038,33 L16.25,41.7531808 L16.25,33.5 C16.25,33.2545401 16.0731248,33.0503916 15.8398756,33.0080557 L15.75,33 Z M50.5,33 L48,33 L48,48.875 C48,48.9302285 48.0358172,48.9770914 48.0854903,48.9936274 L48.125,49 L50.875,49 C50.9302285,49 50.9770914,48.9641828 50.9936274,48.9145097 L51,48.875 L51,33.5 C51,33.2238576 50.7761424,33 50.5,33 Z M37.9805017,33 L36.781,33 L40.7571056,48.905317 C40.7675392,48.9470514 40.7982715,48.9794434 40.8371836,48.993031 L40.8783735,49 L43.1216265,49 C43.1646454,49 43.2035239,48.9780416 43.2261434,48.9435868 L43.2428944,48.905317 L47.219,33 L45.9077352,33 C45.7088012,33 45.5317811,33.1174355 45.4520456,33.2941338 L45.4240491,33.3733203 L42.0214659,46.3650018 L38.4627509,33.3679556 C38.4032547,33.1506652 38.2057902,33 37.9805017,33 Z M36,33 L33.5,33 C33.2545401,33 33.0503916,33.1768752 33.0080557,33.4101244 L33,33.5 L33,48.875 C33,48.9302285 33.0358172,48.9770914 33.0854903,48.9936274 L33.125,49 L35.875,49 C35.9302285,49 35.9770914,48.9641828 35.9936274,48.9145097 L36,48.875 L36,33 Z"/>
    <g fill-rule="nonzero">
      <use fill="#000" filter="url(#kmsclient-p)" xlink:href="#kmsclient-q"/>
      <use fill="url(#kmsclient-r)" xlink:href="#kmsclient-q"/>
    </g>
    <path fill="url(#kmsclient-s)" fill-rule="nonzero" d="M64.654862,63.0010215 C64.08961,64.1494339 62.8893413,64.915081 61.5,64.915081 C59.5670034,64.915081 58,63.4329966 58,61.5 C58,59.5670034 59.5670034,58 61.5,58 C62.8961849,58 64.1014298,58.817511 64.6631686,59.9999667 L72.9568351,60 C75.7418127,60 78.0131407,62.2316099 78.0622666,65.0161542 C78.1095169,67.694386 76.0340556,69.8312433 73.3856612,69.9911203 L73.0818351,70.0003083 L62.4573864,70.0003083 C61.3763517,70.0003083 60.5,70.961579 60.5,72.0426136 C60.5,73.0745103 61.298494,73.9199088 62.3113043,73.9946311 L62.4573864,74 L73,74 L73,71.75 C73,71.6959074 73.0116963,71.6427877 73.0339185,71.5941518 L73.075,71.525 C73.1992641,71.3593146 73.4343146,71.3257359 73.6,71.45 L73.6,71.45 L78.6,75.2 C78.6284271,75.2213203 78.6536797,75.2465729 78.675,75.275 C78.7992641,75.4406854 78.7656854,75.6757359 78.6,75.8 L78.6,75.8 L73.6,79.55 C73.5350889,79.5986833 73.4561388,79.625 73.375,79.625 C73.1678932,79.625 73,79.4571068 73,79.25 L73,79.25 L73,77 L62.4573864,77 C59.7194975,77 57.5,74.7805025 57.5,72.0426136 C57.5,69.3767745 59.6042189,67.1174829 62.2423452,67.0048884 L62.4573864,67.0003083 L73.1167828,67 C74.2108027,66.9806989 75.0193011,66.0940199 75,65 C74.9806575,63.9036337 74.1888653,63.0841529 73.1121038,63.0056405 L72.9568351,63 Z"/>
  </g>
</svg>
