<?xml version="1.0" encoding="UTF-8"?>
<svg width="96px" height="96px" viewBox="0 0 96 96" version="1.1" xmlns="http://www.w3.org/2000/svg" xmlns:xlink="http://www.w3.org/1999/xlink">
    <!-- Generator: Sketch 62 (91390) - https://sketch.com -->
    <title>krfb_krfb</title>
    <desc>Created with Sketch.</desc>
    <defs>
        <filter x="-15.0%" y="-17.9%" width="130.0%" height="135.8%" filterUnits="objectBoundingBox" id="filter-1">
            <feOffset dx="0" dy="2" in="SourceAlpha" result="shadowOffsetOuter1"></feOffset>
            <feGaussianBlur stdDeviation="2" in="shadowOffsetOuter1" result="shadowBlurOuter1"></feGaussianBlur>
            <feComposite in="shadowBlurOuter1" in2="SourceAlpha" operator="out" result="shadowBlurOuter1"></feComposite>
            <feColorMatrix values="0 0 0 0 0   0 0 0 0 0   0 0 0 0 0  0 0 0 0.2 0" type="matrix" in="shadowBlurOuter1" result="shadowMatrixOuter1"></feColorMatrix>
            <feMerge>
                <feMergeNode in="shadowMatrixOuter1"></feMergeNode>
                <feMergeNode in="SourceGraphic"></feMergeNode>
            </feMerge>
        </filter>
        <linearGradient x1="50%" y1="0%" x2="50%" y2="100%" id="linearGradient-2">
            <stop stop-color="#AEB6BC" offset="0%"></stop>
            <stop stop-color="#99A1A7" offset="100%"></stop>
        </linearGradient>
        <linearGradient x1="50%" y1="0%" x2="50%" y2="100%" id="linearGradient-3">
            <stop stop-color="#515254" offset="0%"></stop>
            <stop stop-color="#2A2C2F" offset="100%"></stop>
        </linearGradient>
        <linearGradient x1="50%" y1="0%" x2="50%" y2="100%" id="linearGradient-4">
            <stop stop-color="#5BF2FF" offset="0%"></stop>
            <stop stop-color="#1C9BF4" offset="100%"></stop>
        </linearGradient>
        <linearGradient x1="12.869299%" y1="40.7938814%" x2="63.5718086%" y2="65.3799142%" id="linearGradient-5">
            <stop stop-color="#000000" offset="0%"></stop>
            <stop stop-color="#000000" stop-opacity="0" offset="100%"></stop>
        </linearGradient>
    </defs>
    <g id="krfb_krfb" stroke="none" stroke-width="1" fill="none" fill-rule="evenodd">
        <g id="编组-2备份" filter="url(#filter-1)" transform="translate(8.000000, 15.000000)">
            <rect id="矩形" fill="#BDCAD0" x="30" y="58" width="20" height="7" rx="1"></rect>
            <rect id="矩形备份-7" fill="url(#linearGradient-2)" x="22" y="63" width="36" height="4" rx="1"></rect>
            <rect id="矩形" fill="url(#linearGradient-3)" x="0" y="0" width="80" height="60" rx="6"></rect>
            <path d="M76,6 L76,52 C76,53.1045695 75.1045695,54 74,54 L6,54 C4.8954305,54 4,53.1045695 4,52 L4,6 C4,4.8954305 4.8954305,4 6,4 L74,4 C75.1045695,4 76,4.8954305 76,6 Z" id="路径-15" fill="url(#linearGradient-4)"></path>
            <polygon id="路径-61" fill="url(#linearGradient-5)" opacity="0.0955868676" points="26.9333329 33.0995472 52.4003275 16.3828301 73.9932293 32 51.5 54"></polygon>
            <path d="M51.5,42 C53.4329966,42 55,43.5670034 55,45.5 C55,47.4329966 53.4329966,49 51.5,49 C49.5670034,49 48,47.4329966 48,45.5 C48,43.5670034 49.5670034,42 51.5,42 Z M46,41 C46.5522847,41 47,41.4477153 47,42 C47,42.5522847 46.5522847,43 46,43 C45.4477153,43 45,42.5522847 45,42 C45,41.4477153 45.4477153,41 46,41 Z M41,38 C41.5522847,38 42,38.4477153 42,39 C42,39.5522847 41.5522847,40 41,40 C40.4477153,40 40,39.5522847 40,39 C40,38.4477153 40.4477153,38 41,38 Z M36,35 C36.5522847,35 37,35.4477153 37,36 C37,36.5522847 36.5522847,37 36,37 C35.4477153,37 35,36.5522847 35,36 C35,35.4477153 35.4477153,35 36,35 Z M28.5,28 C30.4329966,28 32,29.5670034 32,31.5 C32,33.4329966 30.4329966,35 28.5,35 C26.5670034,35 25,33.4329966 25,31.5 C25,29.5670034 26.5670034,28 28.5,28 Z M36,26 C36.5522847,26 37,26.4477153 37,27 C37,27.5522847 36.5522847,28 36,28 C35.4477153,28 35,27.5522847 35,27 C35,26.4477153 35.4477153,26 36,26 Z M41,23 C41.5522847,23 42,23.4477153 42,24 C42,24.5522847 41.5522847,25 41,25 C40.4477153,25 40,24.5522847 40,24 C40,23.4477153 40.4477153,23 41,23 Z M51.5,15 C53.4329966,15 55,16.5670034 55,18.5 C55,20.4329966 53.4329966,22 51.5,22 C49.5670034,22 48,20.4329966 48,18.5 C48,16.5670034 49.5670034,15 51.5,15 Z M46,20 C46.5522847,20 47,20.4477153 47,21 C47,21.5522847 46.5522847,22 46,22 C45.4477153,22 45,21.5522847 45,21 C45,20.4477153 45.4477153,20 46,20 Z" id="形状结合" fill="#FFFFFF"></path>
        </g>
    </g>
</svg>