<svg xmlns="http://www.w3.org/2000/svg" xmlns:xlink="http://www.w3.org/1999/xlink" width="96" height="96" viewBox="0 0 96 96">
  <defs>
    <filter id="late-a" width="143.6%" height="143.6%" x="-21.8%" y="-21.8%" filterUnits="objectBoundingBox">
      <feOffset dy="2" in="SourceAlpha" result="shadowOffsetOuter1"/>
      <feGaussianBlur in="shadowOffsetOuter1" result="shadowBlurOuter1" stdDeviation="2"/>
      <feColorMatrix in="shadowBlurOuter1" result="shadowMatrixOuter1" values="0 0 0 0 0   0 0 0 0 0   0 0 0 0 0  0 0 0 0.2 0"/>
      <feMerge>
        <feMergeNode in="shadowMatrixOuter1"/>
        <feMergeNode in="SourceGraphic"/>
      </feMerge>
    </filter>
    <linearGradient id="late-b" x1="50%" x2="50%" y1="0%" y2="100%">
      <stop offset="0%" stop-color="#505050"/>
      <stop offset="100%" stop-color="#2C2C2C"/>
    </linearGradient>
    <linearGradient id="late-c" x1="50%" x2="50%" y1="0%" y2="99.238%">
      <stop offset="0%" stop-opacity=".022"/>
      <stop offset="100%" stop-opacity=".16"/>
    </linearGradient>
    <filter id="late-d" width="134.3%" height="134.3%" x="-17.1%" y="-17.1%" filterUnits="objectBoundingBox">
      <feOffset dy="2" in="SourceAlpha" result="shadowOffsetOuter1"/>
      <feGaussianBlur in="shadowOffsetOuter1" result="shadowBlurOuter1" stdDeviation="2"/>
      <feColorMatrix in="shadowBlurOuter1" result="shadowMatrixOuter1" values="0 0 0 0 0   0 0 0 0 0   0 0 0 0 0  0 0 0 0.2 0"/>
      <feMerge>
        <feMergeNode in="shadowMatrixOuter1"/>
        <feMergeNode in="SourceGraphic"/>
      </feMerge>
    </filter>
    <radialGradient id="late-e" cx="50%" cy="50%" r="57.422%" fx="50%" fy="50%">
      <stop offset="0%" stop-color="#4C4C4C"/>
      <stop offset="48.455%" stop-color="#5C5C5C"/>
      <stop offset="67.347%" stop-color="#898989"/>
      <stop offset="73.533%" stop-color="#797979"/>
      <stop offset="100%" stop-color="#353535"/>
    </radialGradient>
    <radialGradient id="late-h" cx="50%" cy="50%" r="49.257%" fx="50%" fy="50%">
      <stop offset="0%" stop-color="#6A4D00"/>
      <stop offset="47.564%" stop-color="#692800"/>
      <stop offset="74.859%" stop-color="#511607"/>
      <stop offset="100%" stop-color="#3E0707"/>
    </radialGradient>
    <circle id="late-g" cx="35" cy="35" r="17"/>
    <filter id="late-f" width="144.1%" height="144.1%" x="-22.1%" y="-22.1%" filterUnits="objectBoundingBox">
      <feOffset in="SourceAlpha" result="shadowOffsetOuter1"/>
      <feGaussianBlur in="shadowOffsetOuter1" result="shadowBlurOuter1" stdDeviation="2.5"/>
      <feColorMatrix in="shadowBlurOuter1" values="0 0 0 0 0   0 0 0 0 0   0 0 0 0 0  0 0 0 0.5 0"/>
    </filter>
  </defs>
  <g fill="none" fill-rule="evenodd" filter="url(#late-a)" transform="translate(9 9)">
    <rect width="78" height="78" fill="url(#late-b)" rx="18"/>
    <path fill="url(#late-c)" fill-rule="nonzero" d="M60,0 C69.9411255,0 78,8.0588745 78,18 L78,60 C78,69.9411255 69.9411255,78 60,78 L18,78 C8.0588745,78 0,69.9411255 0,60 L0,18 C0,8.0588745 8.0588745,0 18,0 L60,0 Z M60,2 L18,2 C9.2686411,2 2.17079531,8.99390104 2.00303642,17.6851293 L2,18 L2,60 C2,68.7313589 8.99390104,75.8292047 17.6851293,75.9969636 L18,76 L60,76 C68.7313589,76 75.8292047,69.006099 75.9969636,60.3148707 L76,60 L76,18 C76,9.2686411 69.006099,2.17079531 60.3148707,2.00303642 L60,2 Z"/>
    <g filter="url(#late-d)" transform="translate(4 4)">
      <circle cx="35" cy="35" r="35" fill="url(#late-e)" opacity=".453"/>
      <use fill="#000" filter="url(#late-f)" xlink:href="#late-g"/>
      <use fill="url(#late-h)" xlink:href="#late-g"/>
    </g>
  </g>
</svg>
