<svg xmlns="http://www.w3.org/2000/svg" width="96" height="96" viewBox="0 0 96 96">
  <defs>
    <filter id="libreoffice-draw-a" width="131.6%" height="130%" x="-15.8%" y="-15%" filterUnits="objectBoundingBox">
      <feOffset dy="2" in="SourceAlpha" result="shadowOffsetOuter1"/>
      <feGaussianBlur in="shadowOffsetOuter1" result="shadowBlurOuter1" stdDeviation="2"/>
      <feColorMatrix in="shadowBlurOuter1" result="shadowMatrixOuter1" values="0 0 0 0 0   0 0 0 0 0   0 0 0 0 0  0 0 0 0.2 0"/>
      <feMerge>
        <feMergeNode in="shadowMatrixOuter1"/>
        <feMergeNode in="SourceGraphic"/>
      </feMerge>
    </filter>
    <linearGradient id="libreoffice-draw-b" x1="50%" x2="50%" y1="2.928%" y2="100%">
      <stop offset="0%" stop-color="#FFC05A"/>
      <stop offset="100%" stop-color="#EB9100"/>
    </linearGradient>
  </defs>
  <g fill="none" fill-rule="evenodd" filter="url(#libreoffice-draw-a)" transform="translate(10 8)">
    <path fill="url(#libreoffice-draw-b)" d="M18,0 L58,0 C67.9411255,-1.82615513e-15 76,8.0588745 76,18 L76,62 C76,71.9411255 67.9411255,80 58,80 L18,80 C8.0588745,80 -2.33527693e-15,71.9411255 0,62 L0,18 C-1.21743675e-15,8.0588745 8.0588745,1.82615513e-15 18,0 Z"/>
    <path stroke="#FFF" stroke-width="2" d="M58,11 C59.9329966,11 61.6829966,11.7835017 62.9497475,13.0502525 C64.2164983,14.3170034 65,16.0670034 65,18 L65,18 L65,62 C65,63.9329966 64.2164983,65.6829966 62.9497475,66.9497475 C61.6829966,68.2164983 59.9329966,69 58,69 L58,69 L18,69 C16.0670034,69 14.3170034,68.2164983 13.0502525,66.9497475 C11.7835017,65.6829966 11,63.9329966 11,62 L11,62 L11,18 C11,16.0670034 11.7835017,14.3170034 13.0502525,13.0502525 C14.3170034,11.7835017 16.0670034,11 18,11 L18,11 Z"/>
    <path fill="#FFF" d="M46,10 L58,10 C62.418278,10 66,13.581722 66,18 L66,30 L66,30 L46,30 L46,10 Z"/>
  </g>
</svg>
