<?xml version="1.0" encoding="UTF-8"?>
<svg width="96px" height="96px" viewBox="0 0 96 96" version="1.1" xmlns="http://www.w3.org/2000/svg" xmlns:xlink="http://www.w3.org/1999/xlink">
    <!-- Generator: Sketch 62 (91390) - https://sketch.com -->
    <title>linssid_linssid48</title>
    <desc>Created with Sketch.</desc>
    <defs>
        <filter x="-16.0%" y="-16.2%" width="132.0%" height="132.4%" filterUnits="objectBoundingBox" id="filter-1">
            <feOffset dx="0" dy="2" in="SourceAlpha" result="shadowOffsetOuter1"></feOffset>
            <feGaussianBlur stdDeviation="2" in="shadowOffsetOuter1" result="shadowBlurOuter1"></feGaussianBlur>
            <feComposite in="shadowBlurOuter1" in2="SourceAlpha" operator="out" result="shadowBlurOuter1"></feComposite>
            <feColorMatrix values="0 0 0 0 0   0 0 0 0 0   0 0 0 0 0  0 0 0 0.2 0" type="matrix" in="shadowBlurOuter1" result="shadowMatrixOuter1"></feColorMatrix>
            <feMerge>
                <feMergeNode in="shadowMatrixOuter1"></feMergeNode>
                <feMergeNode in="SourceGraphic"></feMergeNode>
            </feMerge>
        </filter>
        <linearGradient x1="30.1017788%" y1="10.4060892%" x2="50%" y2="99.3311112%" id="linearGradient-2">
            <stop stop-color="#FFFF39" offset="0%"></stop>
            <stop stop-color="#FFD500" offset="100%"></stop>
        </linearGradient>
        <linearGradient x1="50%" y1="0%" x2="50%" y2="100%" id="linearGradient-3">
            <stop stop-color="#FF4D4D" offset="0%"></stop>
            <stop stop-color="#F80101" offset="100%"></stop>
        </linearGradient>
        <linearGradient x1="50%" y1="0%" x2="50%" y2="100%" id="linearGradient-4">
            <stop stop-color="#11A902" offset="0%"></stop>
            <stop stop-color="#077001" offset="100%"></stop>
        </linearGradient>
    </defs>
    <g id="linssid_linssid48" stroke="none" stroke-width="1" fill="none" fill-rule="evenodd">
        <g id="编组" filter="url(#filter-1)" transform="translate(11.000000, 11.000000)" fill-rule="nonzero">
            <polygon id="路径-65" fill="url(#linearGradient-2)" points="10 0 10 64 74.5 64 74.5 74 0 74 0 0"></polygon>
            <polygon id="路径-67" fill="url(#linearGradient-3)" points="24.454915 34.5 59.9840827 34.5 72.5 59 68 59 57.016 39.5 27.545 39.5 16.5 59 12 59"></polygon>
            <path d="M23.0427307,11.5 L60.4151453,11.5 L73.5,59 L68,59 L56.585,16.5 L26.956,16.5 L16.5,59 L11,59 L23.0427307,11.5 Z M14.5,55 L26,38.5" id="路径-66" fill="url(#linearGradient-4)"></path>
        </g>
    </g>
</svg>