<svg xmlns="http://www.w3.org/2000/svg" width="96" height="96" viewBox="0 0 96 96">
  <defs>
    <filter id="luakit_luakit-a" width="129.3%" height="129.3%" x="-14.6%" y="-14.6%" filterUnits="objectBoundingBox">
      <feOffset dy="2" in="SourceAlpha" result="shadowOffsetOuter1"/>
      <feGaussianBlur in="shadowOffsetOuter1" result="shadowBlurOuter1" stdDeviation="2"/>
      <feColorMatrix in="shadowBlurOuter1" result="shadowMatrixOuter1" values="0 0 0 0 0   0 0 0 0 0   0 0 0 0 0  0 0 0 0.2 0"/>
      <feMerge>
        <feMergeNode in="shadowMatrixOuter1"/>
        <feMergeNode in="SourceGraphic"/>
      </feMerge>
    </filter>
    <radialGradient id="luakit_luakit-b" cx="53.563%" cy="50%" r="60.45%" fx="53.563%" fy="50%">
      <stop offset="0%" stop-color="#4C9CEB"/>
      <stop offset="100%" stop-color="#145EA7"/>
    </radialGradient>
    <radialGradient id="luakit_luakit-c" cx="50%" cy="42.581%" r="68.232%" fx="50%" fy="42.581%" gradientTransform="matrix(0 .91573 -1 0 .926 -.032)">
      <stop offset="0%" stop-color="#69E68F"/>
      <stop offset="100%" stop-color="#249662"/>
    </radialGradient>
    <linearGradient id="luakit_luakit-d" x1="50%" x2="50%" y1="0%" y2="100%">
      <stop offset="0%" stop-color="#FFF"/>
      <stop offset="100%" stop-color="#D2E1EF"/>
    </linearGradient>
  </defs>
  <g fill="none" fill-rule="evenodd" filter="url(#luakit_luakit-a)" transform="translate(7 7)">
    <circle cx="41" cy="41" r="41" fill="url(#luakit_luakit-b)"/>
    <path fill="url(#luakit_luakit-c)" d="M33.3796731,5.38144753 C30.0195276,10.0035991 28.8994791,12.314675 30.0195276,12.314675 L33.153,12.3144112 L33.1323371,12.2800282 C31.6566872,9.84825797 33.6297314,9.8598069 39.0514698,12.314675 C45.9190051,15.4241745 48.7385659,17.816479 47.5101523,19.4915885 L42.2591434,26.8650887 L39.0514698,24.5367701 L39.0514698,19.4915885 L38.694623,14.9061314 C34.0387195,14.8279596 32.2670695,15.5726595 33.3796731,17.1402311 C34.4922767,18.7078027 35.6090164,20.1599779 36.7298921,21.4967566 L33.3796731,24.5367701 C33.371401,27.3253104 33.9277028,28.7195805 35.0485785,28.7195805 C36.1694542,28.7195805 36.7298921,29.3052485 36.7298921,30.4765843 L35.0485785,30.4765843 C32.8696954,29.6614054 32.3133936,30.0591093 33.3796731,31.6696961 C34.4459527,33.2802828 35.5626924,34.4782758 36.7298921,35.2636749 L33.3796731,35.2636749 L30.0195276,37.6994082 L28.3332507,37.6994082 C26.3926053,35.4990137 25.4222827,35.4990137 25.4222827,37.6994082 C25.4222827,39.8998027 23.4969408,41 19.646257,41 L14.0625587,41 C14.0625587,41 14.0509298,41.0167914 14.0300507,41.0480846 L13.9766637,41.1293281 C13.5586414,41.7742723 11.8453229,44.6120267 14.0625587,44.6120267 C14.1977747,44.6120267 14.3256818,44.6116388 14.446675,44.6112555 L14.9458089,44.6108864 C16.5134853,44.6188486 16.5624752,44.769376 16.5640061,46.5242092 L16.5640555,50.5121346 C16.5640555,52.0977733 16.8409973,53.3324406 17.3948809,54.2161366 C17.7368434,54.7617222 18.4873021,55.2790953 19.646257,55.7682559 L33.3796731,55.7682559 C35.8944054,59.0192091 37.7850043,60.6446857 39.0514698,60.6446857 C40.5332344,60.6446857 44.8497087,64.318862 46.6772399,65.9354995 L46.938044,66.1672069 C47.2976412,66.4880995 47.5101523,66.6837657 47.5101523,66.6837657 L47.5101523,72.3654889 C43.5583707,75.6222326 41.4635309,77.2506045 41.2256331,77.2506045 L35.0485785,77.2506045 C34.085425,77.2506045 32.7874153,78.4369937 31.1545494,80.809772 C25.7985961,79.4898975 20.8581832,77.1177858 16.5638042,73.9254055 L16.5640555,63.3248609 L19.646257,60.6446857 L16.5640555,57.7262728 L14.0625587,52.7478364 L12.5475437,50.5121346 L12.5475437,47.9967284 L11.2173551,46.699089 L11.2173551,44.6120267 C8.53752343,43.1977088 7.53177597,41.520266 8.20011268,39.5796982 C8.8684494,37.6391305 9.54833711,35.3429136 10.2397758,32.6910475 C10.0047029,30.7548696 10.3305626,29.4310473 11.2173551,28.7195805 C12.5475437,27.6523804 11.2173551,22.7511094 11.2173551,22.7511094 C11.2173551,22.7511094 12.5352521,23.2411098 12.5475437,22.7511094 C12.5867055,21.1899457 17.9024907,20.5334773 19.646257,17.1402311 C22.6888388,11.2195816 22.8310083,10.936466 22.861079,11.1113619 L22.8639989,11.1316174 C22.8649139,11.1387962 22.8658129,11.1463232 22.866823,11.1539624 L22.872802,11.1894543 C22.8736609,11.1932921 22.8746023,11.1970619 22.8756437,11.2007312 L22.8832328,11.2212792 C22.9225389,11.3028273 23.0532225,11.2722541 23.5842187,10.5556869 C24.8095947,8.90207026 25.4222827,8.01811491 25.4222827,7.90382082 L27.0859951,7.00405884 L33.3796731,5.38144753 Z M41,-7.10542736e-14 C58.6141372,-7.10542736e-14 73.6339886,11.1074579 79.4372994,26.7001191 L79.4369438,27.4736439 L79.7893058,27.6844027 C80.5591383,29.9274859 81.1398818,32.2584265 81.5125062,34.6581946 L78.5839937,34.658365 L80.4309376,36.1362848 L81.7832351,36.758203 C81.9265582,38.1526085 82,39.5677276 82,41 C82,50.6029349 78.6985867,59.4347835 73.168844,66.4224616 L74.1368594,62.4312208 L74.9928491,59.8930409 L74.1368594,59.8930409 L74.1364037,59.8820973 C74.1284289,59.7546829 73.9808962,58.5192443 71.2515415,56.4155824 C69.5083287,55.0719936 69.3324755,55.6825558 69.2676981,56.3764364 L69.2554031,56.5205731 L69.2434118,56.6634055 C69.2114248,57.0157879 69.1554153,57.3214239 68.8738597,57.3214239 C67.9728818,57.3214239 66.5569726,58.6394536 66.5569726,58.6394536 L66.5562645,58.6577274 C66.5474134,58.8062026 66.4279232,59.8112653 64.8148052,59.8883582 L64.6139731,59.8930409 L62.2873588,59.8930409 C61.3717902,59.8930409 61.4404882,58.6394536 59.8178769,58.6394536 C58.4356525,58.6394536 58.3067577,57.7880188 58.2989035,56.8863574 L58.2988558,56.6505288 L58.2994953,56.5327478 L58.2998326,51.0285615 C58.2998326,49.8661663 59.8178769,47.4021559 59.8178769,47.4021559 C59.8178769,47.4021559 59.8291451,47.3666037 59.8498033,47.3006823 L59.9030835,47.1298831 C60.2373019,46.05408 61.4404882,42.1044885 61.4404882,41 C61.4404882,40.1820898 61.9779933,40.1465285 63.0530035,40.8933161 L63.2029274,41 L64.6139731,39.6137433 C65.9093061,38.7228979 66.5569726,37.9801889 66.5569726,37.3856165 C66.5569726,36.8260189 66.8668055,36.7931014 67.4864714,37.286864 L67.6062896,37.3856165 L71.2515415,37.3856165 C72.3750281,36.5527287 72.9367714,36.1362848 72.9367714,36.1362848 C72.9367714,36.1362848 74.1368594,34.658365 74.1368594,33.4023459 C74.1368594,32.6090706 74.7155982,32.192103 75.873076,32.151443 L76.0713476,32.1481506 L76.0713476,29.6993389 C76.0713476,29.6993389 75.9726119,29.5857401 75.7751405,29.3585425 L75.6288654,29.190248 C75.3070602,28.8200001 74.8097248,28.2477987 74.1368594,27.4736439 C73.3368007,28.9574406 72.9367714,29.9982464 72.9367714,30.5960612 C72.9367714,31.1689671 72.4208648,30.9183207 71.3890516,29.8441222 L71.2515415,29.6993389 L71.2515415,32.1481506 L67.6062896,32.1481506 L67.6062896,33.4023459 L63.2029274,33.4023459 L63.2029274,36.1362848 L61.4404882,39.6137433 L59.8178769,39.6137433 C59.8178769,39.6137433 58.440966,38.5130968 58.3098316,37.5317684 L58.2998326,37.3856165 L58.2998326,34.658365 L59.8178769,34.658365 L59.8178769,32.1481506 L58.2998326,30.5960612 L56.2133575,30.5960612 L54.7621873,27.4736439 L54.7621873,25.3433966 L56.2133575,27.4736439 L58.2998326,27.4736439 C59.7216186,26.7761257 60.7685039,26.4273667 61.4404882,26.4273667 C62.4484648,26.4273667 61.4404882,25.3433966 61.4404882,25.3433966 C61.4404882,25.3433966 59.713918,24.5445539 58.2998326,23.4174196 C57.4296262,22.7237986 56.7700789,22.3216468 56.3211908,22.2109644 L56.2133575,22.1893661 L56.2133575,20.1405838 L54.7621873,19.2651397 C54.7621873,17.3407839 55.2459107,16.378606 56.2133575,16.378606 C57.6645277,16.378606 56.2133575,15.2630227 56.2133575,15.2630227 C56.2133575,15.2630227 56.4747229,14.7729625 56.9974538,13.7928421 L57.0985287,13.6033266 L57.0985287,12.3606824 C56.5084146,11.5014502 56.2133575,10.7834645 56.2133575,10.2067251 C56.2133575,9.66202688 55.7818882,9.63176587 54.9189495,10.1159421 L54.7621873,10.2067251 L53.27758,12.3606824 L50.7941154,12.3606824 L53.27758,10.2067251 L53.27758,7.71049358 C53.27758,7.71049358 52.2690685,7.3145594 50.2520453,6.52269104 L49.9946647,6.42164534 L47.7897366,7.71049358 L47.7897366,5.38144753 L46.0989385,4.45736766 L44.2374039,3.53328778 L41.8779605,5.38144753 L41.8779605,3.53328778 L40.3009452,4.45736766 L36.4599343,4.45736766 C35.0345006,5.07342091 34.0077468,5.38144753 33.3796731,5.38144753 C32.7815077,5.38144753 32.7582913,4.82266907 33.3100239,3.70511216 L33.3970959,3.53328778 L33.3974354,0.703509841 C35.8610377,0.241583786 38.4023064,-7.10542736e-14 41,-7.10542736e-14 Z M72.8881356,23.8739881 L70.8551599,23.8739881 L68.8221842,25.4279013 L70.5159253,27.17271 L71.6576503,25.4279013 L72.8881356,25.4279013 L72.8881356,23.8739881 Z M63.519668,19.6785438 L62.2703363,19.6785438 L59.424417,20.8233086 L60.2458718,20.8233086 L62.2703363,22.5316405 L62.2703363,23.8739881 L63.519668,22.3486483 L63.519668,19.6785438 Z M35.0485785,12.314675 L33.153,12.3144112 L33.2089935,12.4036528 C33.580135,12.9900694 34.1390388,13.7095112 34.8857048,14.5619782 L35.0485785,14.7466858 L35.0485785,12.314675 Z"/>
    <path fill="url(#luakit_luakit-d)" d="M21,35.5 C21,51.2401154 33.7598846,64 49.5,64 C52.0907868,64 54.600832,63.6543041 56.9865247,63.0065231 C52.1592365,66.7627268 46.0908898,69 39.5,69 C23.7598846,69 11,56.2401154 11,40.5 C11,27.3510333 19.9045951,16.2818462 32.0124757,12.9937484 C25.3107867,18.2092943 21,26.351228 21,35.5 Z" opacity=".874"/>
  </g>
</svg>
