<svg xmlns="http://www.w3.org/2000/svg" width="96" height="96" viewBox="0 0 96 96">
  <defs>
    <filter id="masterpdfeditor5-a" width="130.8%" height="130.8%" x="-15.4%" y="-15.4%" filterUnits="objectBoundingBox">
      <feOffset dy="2" in="SourceAlpha" result="shadowOffsetOuter1"/>
      <feGaussianBlur in="shadowOffsetOuter1" result="shadowBlurOuter1" stdDeviation="2"/>
      <feColorMatrix in="shadowBlurOuter1" result="shadowMatrixOuter1" values="0 0 0 0 0   0 0 0 0 0   0 0 0 0 0  0 0 0 0.2 0"/>
      <feMerge>
        <feMergeNode in="shadowMatrixOuter1"/>
        <feMergeNode in="SourceGraphic"/>
      </feMerge>
    </filter>
    <linearGradient id="masterpdfeditor5-b" x1="50%" x2="50%" y1="0%" y2="100%">
      <stop offset="0%" stop-color="#EF374F"/>
      <stop offset="100%" stop-color="#B10303"/>
    </linearGradient>
  </defs>
  <g fill="none" fill-rule="evenodd" filter="url(#masterpdfeditor5-a)" transform="translate(9 9)">
    <path fill="url(#masterpdfeditor5-b)" d="M18,0 L78,0 L78,0 L78,60 C78,69.9411255 69.9411255,78 60,78 L0,78 L0,78 L0,18 C-1.21743675e-15,8.0588745 8.0588745,8.93158249e-15 18,0 Z"/>
    <path fill="#FEFEFE" fill-rule="nonzero" d="M44.864,20 L44.864,15.552 L47.824,15.552 C50.5653333,15.552 51.936,14.384 51.936,12.048 C51.936,9.73333333 50.576,8.576 47.856,8.576 L47.856,8.576 L43.12,8.576 L43.12,20 L44.864,20 Z M47.712,14.064 L44.864,14.064 L44.864,10.064 L47.712,10.064 C48.5653333,10.064 49.1893333,10.224 49.584,10.544 C49.9893333,10.832 50.192,11.3333333 50.192,12.048 C50.192,12.7413333 49.9946667,13.2533333 49.6,13.584 C49.2053333,13.904 48.576,14.064 47.712,14.064 L47.712,14.064 Z M57.537143,20 C59.3718097,20 60.769143,19.488 61.729143,18.464 C62.6464763,17.4613333 63.105143,16.0693333 63.105143,14.288 C63.105143,12.4746667 62.657143,11.088 61.761143,10.128 C60.801143,9.09333333 59.4038097,8.576 57.569143,8.576 L57.569143,8.576 L53.409143,8.576 L53.409143,20 L57.537143,20 Z M57.217143,18.512 L55.153143,18.512 L55.153143,10.064 L57.249143,10.064 C58.689143,10.064 59.745143,10.4053333 60.417143,11.088 C61.0678097,11.7706667 61.393143,12.8373333 61.393143,14.288 C61.393143,15.7173333 61.0624763,16.7786667 60.401143,17.472 C59.729143,18.1653333 58.6678097,18.512 57.217143,18.512 L57.217143,18.512 Z M66.482286,20 L66.482286,14.88 L72.162286,14.88 L72.162286,13.392 L66.482286,13.392 L66.482286,10.064 L72.498286,10.064 L72.498286,8.576 L64.738286,8.576 L64.738286,20 L66.482286,20 Z"/>
    <path fill="#FEFEFE" d="M65.5795898,48.9391732 C66.5840822,48.9391732 66.9694824,48.7609863 68.0318604,49.5566406 C68.7401123,50.0870768 70.7682292,54.4514974 74.1162109,62.6499023 L55.956543,62.6499023 L52.0494142,53.2576965 L53.4153984,52.7140654 L54.7448374,52.1951904 C60.3540513,50.0294336 63.9894834,48.9391732 65.5795898,48.9391732 Z M19.1040039,28.4388428 C20.3288338,29.5161421 21.5339684,31.3705172 23.1992776,35.3415692 L24.2778218,37.9387907 C25.3118602,40.4138652 26.5853271,44.3616943 27.0404053,45.5830078 C27.4954834,46.8043213 20.3547363,62.6499023 20.3547363,62.6499023 C20.3547363,62.6499023 2.75488281,63.2375488 2.75488281,62.6499023 C2.75488281,62.0622559 16.6749268,29.5749512 17.3500977,28.6483154 C18.0252686,27.7216797 18.6231555,28.0159125 19.1040039,28.4388428 Z M57.3083098,36.3633519 C63.8917656,43.2021095 67.3012027,46.7494493 67.5366211,47.0053711 C67.8897487,47.3892539 68.3570557,48.0301514 68.0308838,48.0301514 C67.7047119,48.0301514 66.5531486,47.7484131 65.7519531,47.7484131 C63.4481897,47.7484131 57.6475265,49.5735093 48.3021851,53.4639282 C42.0719574,56.0575408 41.5078957,56.2732314 46.61,54.111 L43.027,55.395 C39.7390194,56.5702869 37.8830549,57.2089246 37.4591064,57.3109131 C36.8231837,57.4638958 36.2157721,57.365516 35.8681641,57.1171875 C35.4356847,56.8082275 35.4356847,56.1971058 35.9598389,54.7684937 C36.645369,52.9000422 39.0284227,47.494211 43.109,38.551 L51.9054501,35.1625689 C53.7839159,34.4386701 55.9133087,34.9119267 57.3083098,36.3633519 Z M33.8068856,26 C35.7812847,26 37.5707956,27.1618711 38.3742118,28.965416 L42.321,37.827 L34.2698211,55.8387516 C34.2216248,55.9465642 34.1368202,56.0338357 34.0304336,56.0851028 C33.7816862,56.2049728 33.482846,56.1004958 33.3629483,55.851737 L32.5396032,54.1281066 L31.6586184,52.2511226 C29.444319,47.491854 27.1412454,42.2315272 24.7495085,36.4702886 L24.2966816,35.3760974 C22.5040316,31.0309507 20.921389,28.2505564 19.5045352,27.0043624 C19.1749451,26.7144714 18.8498245,26.5042408 18.5321385,26.371894 C18.9668774,26.1330171 19.4626806,26 19.9803377,26 L33.8068856,26 Z"/>
  </g>
</svg>
