<svg xmlns="http://www.w3.org/2000/svg" width="96" height="96" viewBox="0 0 96 96">
  <defs>
    <filter id="mockingbot_icon-a" width="128.2%" height="127.9%" x="-14.1%" y="-14%" filterUnits="objectBoundingBox">
      <feOffset dy="2" in="SourceAlpha" result="shadowOffsetOuter1"/>
      <feGaussianBlur in="shadowOffsetOuter1" result="shadowBlurOuter1" stdDeviation="2"/>
      <feColorMatrix in="shadowBlurOuter1" result="shadowMatrixOuter1" values="0 0 0 0 0   0 0 0 0 0   0 0 0 0 0  0 0 0 0.2 0"/>
      <feMerge>
        <feMergeNode in="shadowMatrixOuter1"/>
        <feMergeNode in="SourceGraphic"/>
      </feMerge>
    </filter>
    <linearGradient id="mockingbot_icon-b" x1="50%" x2="50%" y1="0%" y2="100%">
      <stop offset="0%" stop-color="#FF816B"/>
      <stop offset="100%" stop-color="#EA5749"/>
    </linearGradient>
  </defs>
  <g fill="none" filter="url(#mockingbot_icon-a)" transform="translate(5 5)">
    <rect width="84" height="85" x=".5" y=".5" fill="#FFF" rx="42"/>
    <path fill="url(#mockingbot_icon-b)" d="M3.08942316,27.17992 C4.27217121,28.6539564 5.66962973,29.8938109 7.44313834,30.7157746 C8.95117277,31.4148291 10.5576673,31.7363564 12.2215969,31.7391927 C20.3990757,31.7530836 28.5766313,31.7613746 36.7540335,31.7383927 C40.4694451,31.72792 43.4070679,30.1897382 45.679625,27.4442109 C46.0881117,26.9508291 46.0889552,26.95192 46.6702839,27.2730109 C47.3651023,27.6567927 48.05601,28.0473382 48.7578066,28.4192655 C48.9799552,28.5370109 49.0008895,28.6293746 48.849902,28.8253746 C46.1689349,32.3056655 42.6512103,34.4585382 38.0789505,34.92792 C37.445708,34.9928655 36.8031869,34.9923564 36.1648066,34.9933018 C32.2678113,34.9988291 28.3706626,34.9960655 24.4735906,34.9960655 C20.5637127,34.9960655 16.6537581,34.9807927 12.7440335,34.9997746 C7.46552958,35.0253746 3.34998967,32.9125746 0.228482629,28.9432655 C-0.122338967,28.4971564 -0.060686385,28.5893018 0.355238498,28.3557746 C1.11301315,27.93032 1.88221346,27.5229018 2.6352338,27.0901745 C2.84588013,26.9691564 2.944877,26.9997745 3.08942316,27.17992 Z M26.4372462,14.0034638 C27.3968853,14.0086784 27.9822119,14.5349178 27.9893924,15.4366804 C28.0030585,17.148588 28.0042166,18.8607129 27.9887747,20.5724757 C27.9807449,21.4609121 27.402676,21.9858478 26.4645012,21.9935249 C25.4749819,22.001564 24.4851538,22.0030125 23.4956346,21.9927282 C22.585178,21.9832405 22.0203892,21.4395467 22.00155,20.5797906 L22.0013184,17.9756805 L22.0013184,17.9756805 C22.0013184,17.1438804 21.9977668,16.3119354 22.0023221,15.4801353 C22.007418,14.5375251 22.5754496,14.0073023 23.5840396,14.0031741 C24.5351085,13.999408 25.4862545,13.9983941 26.4372462,14.0034638 Z M10.4408592,14.0035046 C11.4422217,14.0085027 11.9903948,14.5239593 11.9969132,15.4675144 C12.0028109,16.3125561 11.9981549,17.1575979 11.9981549,18.0027121 C11.9981549,18.8477538 12.0031213,19.692868 11.996758,20.5379097 C11.9896964,21.4808129 11.4442394,21.9898227 10.4347288,21.9957625 C9.47767641,22.0013401 8.52054644,22.0015574 7.56357168,21.9955452 C6.56717564,21.9893156 6.00433603,21.4610378 6.00255121,20.5321148 C5.99921437,18.8419589 5.99905917,17.151803 6.00262881,15.4616471 C6.00449124,14.5370703 6.57369411,14.0082854 7.56970215,14.0035046 C8.52675452,13.9989411 9.48388448,13.9987238 10.4408592,14.0035046 Z M12.6184355,0.021284401 C20.5293667,0.0249236364 28.4403745,0.0208509091 36.3513823,0.0246327273 C41.6436124,0.0271054545 45.7473432,2.19736 48.8484527,6.19859636 C49.0284261,6.43088727 48.952664,6.50346909 48.7361898,6.61932364 C47.9468221,7.04179636 47.1599848,7.46914182 46.3864136,7.91692364 C46.1406468,8.05917818 46.0232462,8.00914182 45.8611397,7.80797818 C44.658531,6.31532364 43.2330067,5.06783273 41.4223072,4.25823273 C40.0393416,3.63983273 38.5748628,3.31074182 37.0524887,3.30303273 C32.8606499,3.28179636 28.6686577,3.29568727 24.4767423,3.29568727 L24.4767423,3.28885091 C20.5532149,3.28885091 16.6292274,3.32419636 12.7062368,3.27896 C8.74222113,3.23328727 5.61181894,4.73226909 3.22561862,7.68870545 C2.96995978,8.00550545 2.79673443,8.05241455 2.43686432,7.83256 C1.70784554,7.38717818 0.945239906,6.99052364 0.189228951,6.58608727 C0.000743818465,6.48521455 -0.0306959311,6.41452364 0.104725039,6.23750545 C2.73991283,2.79496 6.20089249,0.64056 10.7058252,0.116487273 C11.3392978,0.0427418182 11.9782149,0.0209963636 12.6184355,0.021284401 Z" transform="matrix(1 0 0 -1 18 61)"/>
  </g>
</svg>
