<?xml version="1.0" encoding="UTF-8"?>
<svg width="96px" height="96px" viewBox="0 0 96 96" version="1.1" xmlns="http://www.w3.org/2000/svg" xmlns:xlink="http://www.w3.org/1999/xlink">
    <!-- Generator: Sketch 62 (91390) - https://sketch.com -->
    <title>nemiver_nemiver</title>
    <desc>Created with Sketch.</desc>
    <defs>
        <filter x="-33.3%" y="-14.6%" width="166.7%" height="129.3%" filterUnits="objectBoundingBox" id="filter-1">
            <feOffset dx="0" dy="2" in="SourceAlpha" result="shadowOffsetOuter1"></feOffset>
            <feGaussianBlur stdDeviation="2" in="shadowOffsetOuter1" result="shadowBlurOuter1"></feGaussianBlur>
            <feComposite in="shadowBlurOuter1" in2="SourceAlpha" operator="out" result="shadowBlurOuter1"></feComposite>
            <feColorMatrix values="0 0 0 0 0   0 0 0 0 0   0 0 0 0 0  0 0 0 0.2 0" type="matrix" in="shadowBlurOuter1" result="shadowMatrixOuter1"></feColorMatrix>
            <feMerge>
                <feMergeNode in="shadowMatrixOuter1"></feMergeNode>
                <feMergeNode in="SourceGraphic"></feMergeNode>
            </feMerge>
        </filter>
        <linearGradient x1="0%" y1="19.7242435%" x2="100%" y2="19.7242435%" id="linearGradient-2">
            <stop stop-color="#F0F2EE" offset="0%"></stop>
            <stop stop-color="#C2C6BD" offset="100%"></stop>
        </linearGradient>
        <linearGradient x1="10.4007346%" y1="22.9966485%" x2="89.3611973%" y2="22.9966485%" id="linearGradient-3">
            <stop stop-color="#98D75B" offset="0%"></stop>
            <stop stop-color="#61B212" offset="100%"></stop>
        </linearGradient>
        <linearGradient x1="50%" y1="0%" x2="50%" y2="100%" id="linearGradient-4">
            <stop stop-color="#FFFFFF" offset="0%"></stop>
            <stop stop-color="#FFFFFF" stop-opacity="0" offset="100%"></stop>
        </linearGradient>
        <linearGradient x1="50%" y1="0%" x2="50%" y2="100%" id="linearGradient-5">
            <stop stop-color="#FFFFFF" offset="0%"></stop>
            <stop stop-color="#FFFFFF" stop-opacity="0.313292177" offset="100%"></stop>
        </linearGradient>
        <linearGradient x1="12.7404366%" y1="50%" x2="100%" y2="50%" id="linearGradient-6">
            <stop stop-color="#A6E62B" offset="0%"></stop>
            <stop stop-color="#86C917" offset="21.2390569%"></stop>
            <stop stop-color="#A0E341" offset="45.0154387%"></stop>
            <stop stop-color="#75C116" offset="68.4327449%"></stop>
            <stop stop-color="#6DC813" offset="100%"></stop>
        </linearGradient>
    </defs>
    <g id="nemiver_nemiver" stroke="none" stroke-width="1" fill="none" fill-rule="evenodd">
        <g id="编组" filter="url(#filter-1)" transform="translate(30.000000, 7.000000)">
            <path d="M20,13 L16,13 C7.29644276,13 0.194226307,19.9572506 0.00390195945,28.6435437 L0,28.9781104 L0,77.3860009 L1.29775312,77.8726584 C11.8623729,81.8343908 23.4897215,81.9112193 34.1028916,78.0928436 L36,77.3959504 L36,29 C36,20.163444 28.836556,13 20,13 Z" id="路径" fill="#595B57" fill-rule="nonzero"></path>
            <path d="M20,15 C27.6275002,15 33.8303269,21.0997524 33.996578,28.687355 L34,29 L34,76 L33.425824,76.2109352 C23.4551392,79.7981594 12.5448608,79.7981594 2.574176,76.2109352 L2,76 L2,29 L2.00342205,28.687355 C2.16736407,21.2051357 8.20136353,15.1697246 15.6830243,15.0035176 L16,15 L20,15 Z" id="路径" fill="url(#linearGradient-2)" fill-rule="nonzero"></path>
            <path d="M35,76.6874685 C24.0711687,80.9726482 11.9288313,80.9726482 1,76.6874685 L1,29 L35,29 L35,76.6874685 Z" id="路径-397备份-2" stroke="#549D0E" stroke-width="2" fill="url(#linearGradient-3)"></path>
            <path d="M9.70710678,41.2928932 L15.1976527,46.7839704 C15.1941594,46.6851517 15.1923882,46.5855613 15.1923882,46.4852814 C15.1923882,43.7238576 16.5355339,41.4852814 18.1923882,41.4852814 C19.7676039,41.4852814 21.0592643,43.5086888 21.1827284,46.0811021 L25.9705627,41.2928932 C26.361087,40.9023689 26.994252,40.9023689 27.3847763,41.2928932 C27.7753006,41.6834175 27.7753006,42.3165825 27.3847763,42.7071068 L20.606,49.485 L27.1923882,49.4852814 C27.7446729,49.4852814 28.1923882,49.9329966 28.1923882,50.4852814 C28.1923882,51.0375661 27.7446729,51.4852814 27.1923882,51.4852814 L21.9190708,51.4850648 C22.580566,52.3718758 23.0254755,53.4961982 23.1540169,54.7382932 L27.3847763,58.9705627 C27.7753006,59.361087 27.7753006,59.994252 27.3847763,60.3847763 C26.994252,60.7753006 26.361087,60.7753006 25.9705627,60.3847763 L22.9440742,57.3578239 C22.2885663,59.7545471 20.4089083,61.4852814 18.1923882,61.4852814 C15.8018667,61.4852814 13.8031721,59.4721491 13.309387,56.7815837 L9.70710678,60.3847763 C9.31658249,60.7753006 8.68341751,60.7753006 8.29289322,60.3847763 C7.90236893,59.994252 7.90236893,59.361087 8.29289322,58.9705627 L13.3703101,53.8932258 C13.5776986,52.9866437 13.9578791,52.1658649 14.4657055,51.4850648 L9.19238816,51.4852814 C8.64010341,51.4852814 8.19238816,51.0375661 8.19238816,50.4852814 C8.19238816,49.9329966 8.64010341,49.4852814 9.19238816,49.4852814 L15.07,49.485 L8.29289322,42.7071068 C7.90236893,42.3165825 7.90236893,41.6834175 8.29289322,41.2928932 C8.68341751,40.9023689 9.31658249,40.9023689 9.70710678,41.2928932 Z" id="形状结合" fill="#2E3436"></path>
            <rect id="矩形" fill="url(#linearGradient-4)" opacity="0.494628906" x="7" y="32" width="5" height="43" rx="2.5"></rect>
            <path d="M33,75.3012834 C23.3008743,78.7680433 12.6991257,78.7680433 3,75.3012834 L3,29 C3,25.4101491 4.45507456,22.1601491 6.80761184,19.8076118 C9.16014913,17.4550746 12.4101491,16 16,16 L20,16 C23.5898509,16 26.8398509,17.4550746 29.1923882,19.8076118 C31.5449254,22.1601491 33,25.4101491 33,29 L33,75.3012834 Z" id="路径-397备份" stroke="url(#linearGradient-5)" stroke-width="2" opacity="0.71765718"></path>
            <rect id="矩形" stroke="#549D0E" fill="url(#linearGradient-6)" x="12.5" y="0.5" width="11" height="12" rx="4"></rect>
            <circle id="椭圆形" fill="#549D0E" cx="16.5" cy="5.5" r="1.5"></circle>
        </g>
    </g>
</svg>