<svg xmlns="http://www.w3.org/2000/svg" width="96" height="96" viewBox="0 0 96 96">
  <defs>
    <filter id="okteta_icon-a" width="132%" height="128.6%" x="-16%" y="-14.3%" filterUnits="objectBoundingBox">
      <feOffset dy="2" in="SourceAlpha" result="shadowOffsetOuter1"/>
      <feGaussianBlur in="shadowOffsetOuter1" result="shadowBlurOuter1" stdDeviation="2"/>
      <feColorMatrix in="shadowBlurOuter1" result="shadowMatrixOuter1" values="0 0 0 0 0   0 0 0 0 0   0 0 0 0 0  0 0 0 0.2 0"/>
      <feMerge>
        <feMergeNode in="shadowMatrixOuter1"/>
        <feMergeNode in="SourceGraphic"/>
      </feMerge>
    </filter>
    <linearGradient id="okteta_icon-b" x1="50%" x2="50%" y1="0%" y2="100%">
      <stop offset="0%" stop-color="#B8B8D8"/>
      <stop offset="100%" stop-color="#8282AF"/>
    </linearGradient>
  </defs>
  <g fill="none" fill-rule="evenodd" filter="url(#okteta_icon-a)" transform="translate(10 6)">
    <path fill="#898989" fill-rule="nonzero" d="M60.148,83.9740034 L1.984,83.96 C0.908,83.96 0.036,83.086 0.036,82.01 L0.052,13.434 C0.052,12.358 0.926,11.486 2.002,11.486 L60.164,11.5 C61.24,11.5 62.112,12.374 62.112,13.45 L62.096,82.028 C62.096,83.102 61.224,83.976 60.148,83.9740034 Z"/>
    <rect width="54.388" height="65.08" x="3.842" y="14.88" fill="#EFF4FA" fill-rule="nonzero"/>
    <line x1="8" x2="52" y1="29" y2="29" stroke="#CDCDFC" stroke-width="2"/>
    <line x1="8" x2="52" y1="39" y2="39" stroke="#CDCDFC" stroke-width="2"/>
    <line x1="8" x2="52" y1="49" y2="49" stroke="#CDCDFC" stroke-width="2"/>
    <line x1="8" x2="52" y1="59" y2="59" stroke="#CDCDFC" stroke-width="2"/>
    <line x1="8" x2="52" y1="69" y2="69" stroke="#CDCDFC" stroke-width="2"/>
    <path fill="url(#okteta_icon-b)" fill-rule="nonzero" d="M40.104,8 L37,8 L37,6.34 C37,3.092 34.568,0.178 31.322,0.01 C27.862,-0.172 25,2.58 25,6 L25,8 L21.938,8 C18.624,8 15.938,10.686 15.938,14 L15.938,16 C15.938,17.104 16.834,18 17.938,18 L44.102,18 C45.206,18 46.1020011,17.104 46.1020011,16 L46.1020011,14 C46.104,10.686 43.416,8 40.104,8 Z M30.948,7.998 L30.948,7.998 C29.85,7.998 28.962,7.108 28.962,6.012 L28.962,6.012 C28.962,4.914 29.852,4.026 30.948,4.026 L30.948,4.026 C32.046,4.026 32.934,4.916 32.934,6.012 L32.934,6.012 C32.934,7.11 32.046,7.998 30.948,7.998 Z"/>
    <polygon fill="#3E3A39" fill-rule="nonzero" points="23.688 28.812 27.688 34.766 19.748 40.1 15.748 34.144 11.778 36.812 23.778 54.678 27.748 52.01 22.414 44.07 30.356 38.736 35.688 46.678 39.66 44.01 27.66 26.144"/>
    <g fill-rule="nonzero" transform="translate(22 23)">
      <path fill="#F47C04" d="M15.894,44.372 L8.37,44.648 L9.618,38.154 L47.984,2.48 L50.84,5.276 C51.976,6.388 52.262,7.934 51.476,8.72 L15.894,44.372 Z"/>
      <path fill="#FBB66B" d="M8.616,44.132 L8.406,36.956 L43.878,1.224 C44.654,0.442 46.192,0.704 47.316,1.808 L49.21,3.664 L8.616,44.132 Z"/>
      <path fill="#E8D0B0" d="M1.018,52.04 L8.484,36.864 C8.484,36.864 11.072,38.926 8.944,41.056 C6.82,43.19 10.622,38.98 12.28,40.622 C13.944,42.268 9.422,46.266 11.552,44.136 C13.676,42.002 16.034,44.334 16.034,44.334 L1.018,52.04 Z"/>
      <path fill="#231815" d="M3.344,47.314 L0.988,51.574 C0.988,51.574 0.34,52.74 1.494,52.074 C2.65,51.408 5.712,49.632 5.712,49.632 L3.344,47.314 Z"/>
    </g>
  </g>
</svg>
