<svg xmlns="http://www.w3.org/2000/svg" width="96" height="96" viewBox="0 0 96 96">
  <defs>
    <filter id="org.whiteboard-app-a" width="128.6%" height="132.4%" x="-14.3%" y="-16.2%" filterUnits="objectBoundingBox">
      <feOffset dy="2" in="SourceAlpha" result="shadowOffsetOuter1"/>
      <feGaussianBlur in="shadowOffsetOuter1" result="shadowBlurOuter1" stdDeviation="2"/>
      <feColorMatrix in="shadowBlurOuter1" result="shadowMatrixOuter1" values="0 0 0 0 0   0 0 0 0 0   0 0 0 0 0  0 0 0 0.2 0"/>
      <feMerge>
        <feMergeNode in="shadowMatrixOuter1"/>
        <feMergeNode in="SourceGraphic"/>
      </feMerge>
    </filter>
    <linearGradient id="org.whiteboard-app-b" x1="50%" x2="50%" y1="0%" y2="100%">
      <stop offset="0%" stop-color="#CFCFCF"/>
      <stop offset="100%" stop-color="#A1A1A1"/>
    </linearGradient>
    <linearGradient id="org.whiteboard-app-c" x1="50%" x2="50%" y1="0%" y2="100%">
      <stop offset="0%" stop-color="#E4E4E4"/>
      <stop offset="100%" stop-color="#A3A3A3"/>
    </linearGradient>
    <linearGradient id="org.whiteboard-app-d" x1="50%" x2="50%" y1="0%" y2="100%">
      <stop offset="0%" stop-color="#756060"/>
      <stop offset="100%" stop-color="#443434"/>
    </linearGradient>
  </defs>
  <g fill="none" fill-rule="evenodd" filter="url(#org.whiteboard-app-a)" transform="translate(6 11)">
    <path fill="url(#org.whiteboard-app-b)" d="M18,0.0003203125 L66,0.0003203125 C75.9411255,0.0003203125 84,8.05919482 84,18.0003203 L84,56.0003203 C84,65.9414458 75.9411255,74.0003203 66,74.0003203 L18,74.0003203 C8.0588745,74.0003203 1.21743675e-15,65.9414458 0,56.0003203 L0,18.0003203 C-1.21743675e-15,8.05919482 8.0588745,0.0003203125 18,0.0003203125 Z"/>
    <path fill="url(#org.whiteboard-app-c)" d="M41.3781675,0 L22.2675781,74.0003203 L9.46014717,2.15115073 C12.0011635,0.779115731 14.909633,0.0003203125 18,0.0003203125 L41.3781675,0 Z"/>
    <path fill="#443434" d="M66,0.0003203125 C75.9411255,0.0003203125 84,8.05919482 84,18.0003203 L84,56.0003203 C84,65.9414458 75.9411255,74.0003203 66,74.0003203 L43,74.0003203 L43,0.0003203125 L66,0.0003203125 Z"/>
    <path fill="url(#org.whiteboard-app-d)" d="M66,0.0003203125 C68.1407609,0.0003203125 70.1942361,0.374034515 72.0987451,1.05978227 L63.5,74.0003203 L43.54,0.0003203125 L66,0.0003203125 Z"/>
  </g>
</svg>
