<svg xmlns="http://www.w3.org/2000/svg" width="96" height="96" viewBox="0 0 96 96">
  <defs>
    <filter id="org.julialang.julia-a" width="126.7%" height="129.3%" x="-13.3%" y="-14.6%" filterUnits="objectBoundingBox">
      <feOffset dy="2" in="SourceAlpha" result="shadowOffsetOuter1"/>
      <feGaussianBlur in="shadowOffsetOuter1" result="shadowBlurOuter1" stdDeviation="2"/>
      <feColorMatrix in="shadowBlurOuter1" result="shadowMatrixOuter1" values="0 0 0 0 0   0 0 0 0 0   0 0 0 0 0  0 0 0 0.2 0"/>
      <feMerge>
        <feMergeNode in="shadowMatrixOuter1"/>
        <feMergeNode in="SourceGraphic"/>
      </feMerge>
    </filter>
    <linearGradient id="org.julialang.julia-b" x1="50%" x2="50%" y1="0%" y2="100%">
      <stop offset="0%" stop-color="#DF6459"/>
      <stop offset="100%" stop-color="#BC342D"/>
    </linearGradient>
    <linearGradient id="org.julialang.julia-c" x1="50%" x2="50%" y1="0%" y2="100%">
      <stop offset="0%" stop-color="#BB86CD"/>
      <stop offset="100%" stop-color="#864E9F"/>
    </linearGradient>
    <linearGradient id="org.julialang.julia-d" x1="50%" x2="50%" y1="0%" y2="100%">
      <stop offset="0%" stop-color="#61BE47"/>
      <stop offset="100%" stop-color="#328A22"/>
    </linearGradient>
  </defs>
  <g fill="none" filter="url(#org.julialang.julia-a)" transform="translate(3 7)">
    <path fill="url(#org.julialang.julia-b)" d="M0,61.5 C0,72.8218374 9.17816263,82 20.5,82 C31.8218374,82 41,72.8218374 41,61.5 C41,50.1781626 31.8218374,41 20.5,41 C9.17816263,41 0,50.1781626 0,61.5 Z"/>
    <path fill="url(#org.julialang.julia-c)" d="M49,61.5 C49,72.8218375 58.1781626,82 69.5,82 C80.8218374,82 90,72.8218375 90,61.5 C90,54.1760556 86.0927223,47.4084516 79.7500001,43.7464793 C73.407278,40.0845069 65.592722,40.0845069 59.2499999,43.7464793 C52.9072777,47.4084516 49,54.1760556 49,61.5 L49,61.5 Z"/>
    <path fill="url(#org.julialang.julia-d)" d="M24,20.5 C24,31.8218374 33.1781626,41 44.5,41 C55.8218374,41 65,31.8218374 65,20.5 C65,9.17816263 55.8218374,0 44.5,0 C33.1781626,0 24,9.17816263 24,20.5 Z"/>
  </g>
</svg>
