<svg xmlns="http://www.w3.org/2000/svg" width="96" height="96" viewBox="0 0 96 96">
  <defs>
    <filter id="vivaldi-a" width="130.8%" height="130.8%" x="-15.4%" y="-15.4%" filterUnits="objectBoundingBox">
      <feOffset dy="2" in="SourceAlpha" result="shadowOffsetOuter1"/>
      <feGaussianBlur in="shadowOffsetOuter1" result="shadowBlurOuter1" stdDeviation="2"/>
      <feColorMatrix in="shadowBlurOuter1" result="shadowMatrixOuter1" values="0 0 0 0 0   0 0 0 0 0   0 0 0 0 0  0 0 0 0.2 0"/>
      <feMerge>
        <feMergeNode in="shadowMatrixOuter1"/>
        <feMergeNode in="SourceGraphic"/>
      </feMerge>
    </filter>
    <linearGradient id="vivaldi-b" x1="50%" x2="50%" y1="0%" y2="100%">
      <stop offset="0%" stop-color="#EE3939"/>
      <stop offset="100%" stop-color="#D01C1C"/>
    </linearGradient>
  </defs>
  <g fill="none" fill-rule="evenodd" filter="url(#vivaldi-a)" transform="translate(9 9)">
    <rect width="78" height="78" fill="url(#vivaldi-b)" rx="18"/>
    <path fill="#FFF" d="M39,13 C53.3594035,13 65,24.6405965 65,39 C65,53.3594035 53.3594035,65 39,65 C24.6405965,65 13,53.3594035 13,39 C13,24.6405965 24.6405965,13 39,13 Z M51.6083333,25 C51.325,25 51.0416667,25 50.7583333,25.1380898 C48.775,25.552359 47.2166667,27.2094361 47.2166667,29.2807825 C47.2166667,29.8331415 47.3583333,30.2474108 47.5,30.6616801 C47.6416667,30.9378596 47.7833333,31.3521289 47.925,31.6283084 C49.4833333,35.0805524 47.925,39.0851554 44.2416667,40.6041427 C40.9833333,41.9850403 37.1583333,40.4660529 35.4583333,37.4280783 L29.3666667,27.2094361 C28.6583333,26.2428078 27.3833333,25.552359 26.1083333,25.552359 C23.8416667,25.552359 22,27.3475259 22,29.556962 C22,30.1093211 22.1416667,30.6616801 22.2833333,31.0759494 L28.0916667,40.8803222 L35.3166667,53.0322209 C36.875,55.6559264 40.8416667,55.6559264 42.5416667,53.0322209 L49.7666667,40.8803222 C49.7666667,40.8803222 51.1131802,38.6394418 52.5253772,36.2693254 L52.8518519,35.7210424 C54.2665752,33.3435385 55.6484568,30.9992328 55.7166667,30.7997699 C55.8583333,30.2474108 56,29.8331415 56,29.2807825 C55.8583333,27.2094361 54.4416667,25.552359 52.4583333,25.1380898 C52.175,25.1380898 51.8916667,25 51.6083333,25 Z"/>
  </g>
</svg>
