<svg xmlns="http://www.w3.org/2000/svg" width="96" height="96" viewBox="0 0 96 96">
  <defs>
    <filter id="pydio_icon-a" width="127.3%" height="127.3%" x="-13.6%" y="-13.6%" filterUnits="objectBoundingBox">
      <feOffset dy="2" in="SourceAlpha" result="shadowOffsetOuter1"/>
      <feGaussianBlur in="shadowOffsetOuter1" result="shadowBlurOuter1" stdDeviation="2"/>
      <feColorMatrix in="shadowBlurOuter1" result="shadowMatrixOuter1" values="0 0 0 0 0   0 0 0 0 0   0 0 0 0 0  0 0 0 0.2 0"/>
      <feMerge>
        <feMergeNode in="shadowMatrixOuter1"/>
        <feMergeNode in="SourceGraphic"/>
      </feMerge>
    </filter>
    <linearGradient id="pydio_icon-b" x1="50%" x2="50%" y1="0%" y2="100%">
      <stop offset="0%" stop-color="#FFAB97"/>
      <stop offset="100%" stop-color="#FE7B67"/>
    </linearGradient>
  </defs>
  <g fill="none" filter="url(#pydio_icon-a)" transform="translate(4 4)">
    <circle cx="44" cy="44" r="44" fill="url(#pydio_icon-b)"/>
    <path fill="#FFF" d="M52.1434056 49.5333746C49.3562848 53.8652632 46.4928792 58.050031 43.7711456 61.7934366 44.2097832 61.82613 44.6511456 61.8479256 45.0979566 61.8479256 51.339401 61.8454334 57.1134412 58.5400512 60.2759966 53.1591706 63.4385522 47.77829 63.5172898 41.1255544 60.4829722 35.6713312 57.2136222 41.5316408 53.8325696 46.9097214 52.1434056 49.5333746zM37.292384 60.0170898C40.188483 56.1483592 43.506873 51.3941796 47.127678 45.7518266 50.5332508 40.4418576 53.6527554 35.1836532 56.1647058 30.5275542 50.9081972 26.2885492 43.6906546 25.4285326 37.5852556 28.3136932 31.4798568 31.1988538 27.5618354 37.3210804 27.4994568 44.073573 27.4370782 50.8260656 31.241328 57.0196294 37.292384 60.0170898L37.292384 60.0170898z"/>
    <path fill="#FFF" d="M26.263777,77.1868209 C25.6552114,77.1940492 25.062957,76.98989 24.5882352,76.6090402 C23.0243962,75.3557894 22.2097832,72.4733126 28.0428482,60.589226 C31.584644,53.3912074 36.8510216,44.3596284 42.5206192,35.813003 C47.1685448,28.8056966 51.7265634,22.6811146 55.3528174,18.5726316 C60.297709,12.9711455 63.3681734,11.1021672 65.6213004,12.3227245 C66.3732508,12.7286687 67.2559752,13.6468111 67.1878638,15.709226 C66.9944272,21.6757894 58.638514,36.6875542 50.8847058,48.726935 C43.1308978,60.7663158 33.0694736,74.4267492 27.999257,76.7670588 C27.4582434,77.0316922 26.8659304,77.1748888 26.263777,77.1868209 L26.263777,77.1868209 Z M63.9321362,15.3087307 C63.3027864,15.5294118 61.5318886,16.5020433 57.758514,20.7848916 C54.6035914,24.3675542 50.7920744,29.4186996 46.735356,35.396161 C41.2019814,43.5531888 35.8375232,52.4894118 32.0232818,59.9162848 C27.2582044,69.2421052 26.6996904,72.6613004 26.6996904,73.7565326 C27.6941176,73.26613 30.538452,71.250031 36.9109598,62.9894736 C41.9975232,56.3962848 47.8087926,47.7788236 52.8463158,39.3493498 C62.3682972,23.4466874 64.0656346,16.9379567 63.9321362,15.3087307 Z"/>
    <circle cx="66.313" cy="33.159" r="2.509" fill="#FFF"/>
  </g>
</svg>
