<?xml version="1.0" encoding="UTF-8"?>
<svg width="96px" height="96px" viewBox="0 0 96 96" version="1.1" xmlns="http://www.w3.org/2000/svg" xmlns:xlink="http://www.w3.org/1999/xlink">
    <!-- Generator: Sketch 62 (91390) - https://sketch.com -->
    <title>qgit_qgit</title>
    <desc>Created with Sketch.</desc>
    <defs>
        <filter x="-30.0%" y="-15.6%" width="160.0%" height="131.2%" filterUnits="objectBoundingBox" id="filter-1">
            <feOffset dx="0" dy="2" in="SourceAlpha" result="shadowOffsetOuter1"></feOffset>
            <feGaussianBlur stdDeviation="2" in="shadowOffsetOuter1" result="shadowBlurOuter1"></feGaussianBlur>
            <feComposite in="shadowBlurOuter1" in2="SourceAlpha" operator="out" result="shadowBlurOuter1"></feComposite>
            <feColorMatrix values="0 0 0 0 0   0 0 0 0 0   0 0 0 0 0  0 0 0 0.2 0" type="matrix" in="shadowBlurOuter1" result="shadowMatrixOuter1"></feColorMatrix>
            <feMerge>
                <feMergeNode in="shadowMatrixOuter1"></feMergeNode>
                <feMergeNode in="SourceGraphic"></feMergeNode>
            </feMerge>
        </filter>
        <linearGradient x1="50%" y1="0%" x2="50%" y2="100%" id="linearGradient-2">
            <stop stop-color="#74E183" offset="0%"></stop>
            <stop stop-color="#40BF4C" offset="100%"></stop>
        </linearGradient>
        <linearGradient x1="50%" y1="0%" x2="50%" y2="100%" id="linearGradient-3">
            <stop stop-color="#EE6959" offset="0%"></stop>
            <stop stop-color="#D8382D" offset="100%"></stop>
        </linearGradient>
        <linearGradient x1="50%" y1="0%" x2="50%" y2="100%" id="linearGradient-4">
            <stop stop-color="#9B9B9B" offset="0%"></stop>
            <stop stop-color="#666666" offset="100%"></stop>
        </linearGradient>
    </defs>
    <g id="qgit_qgit" stroke="none" stroke-width="1" fill="none" fill-rule="evenodd">
        <g id="编组" filter="url(#filter-1)" transform="translate(28.000000, 9.000000)">
            <path d="M22,0 C23.1045695,0 24,0.8954305 24,2 L24,10 L38,10 C39.1045695,10 40,10.8954305 40,12 L40,16 C40,17.1045695 39.1045695,18 38,18 L24,18 L24,26 C24,27.1045695 23.1045695,28 22,28 L18,28 C16.8954305,28 16,27.1045695 16,26 L16,18 L2,18 C0.8954305,18 1.3527075e-16,17.1045695 0,16 L0,12 C-1.3527075e-16,10.8954305 0.8954305,10 2,10 L16,10 L16,2 C16,0.8954305 16.8954305,0 18,0 L22,0 Z" id="形状结合" fill="url(#linearGradient-2)"></path>
            <rect id="矩形备份-2" fill="url(#linearGradient-3)" x="0" y="31" width="40" height="8" rx="2"></rect>
            <path d="M38,42 C39.1045695,42 40,42.8954305 40,44 L40,46 C40,47.1045695 39.1045695,48 38,48 L35.3660689,48.000313 C38.2709292,51.0329054 40,55.1172043 40,60 C40,71 32.2247188,77 21,77 C9.77528123,77 2,70 2,60 C2,51.4276603 6.97881596,44.3635894 15.4713095,42.5212933 L15.4712377,50.6657082 C11.5946637,51.8001703 8.79399433,54.2633674 8.79399433,58.3343078 C8.79399433,64.2288837 12.6105008,68.9159511 20.9432885,68.9159511 C29.2760762,68.9159511 32.7939943,65.2051081 32.7939943,58.82242 C32.7939943,54.1376831 30.0396975,51.5318171 26.0010749,50.4769031 L26,58 L19,58 L19,42 L38,42 Z" id="形状结合" fill="url(#linearGradient-4)"></path>
        </g>
    </g>
</svg>