<svg xmlns="http://www.w3.org/2000/svg" width="96" height="96" viewBox="0 0 96 96">
  <defs>
    <filter id="qtav-a" width="128.6%" height="128.6%" x="-14.3%" y="-14.3%" filterUnits="objectBoundingBox">
      <feOffset dy="2" in="SourceAlpha" result="shadowOffsetOuter1"/>
      <feGaussianBlur in="shadowOffsetOuter1" result="shadowBlurOuter1" stdDeviation="2"/>
      <feColorMatrix in="shadowBlurOuter1" result="shadowMatrixOuter1" values="0 0 0 0 0   0 0 0 0 0   0 0 0 0 0  0 0 0 0.2 0"/>
      <feMerge>
        <feMergeNode in="shadowMatrixOuter1"/>
        <feMergeNode in="SourceGraphic"/>
      </feMerge>
    </filter>
    <linearGradient id="qtav-b" x1="50%" x2="50%" y1="0%" y2="100%">
      <stop offset="0%" stop-color="#00DF8E"/>
      <stop offset="100%" stop-color="#00B900"/>
    </linearGradient>
    <linearGradient id="qtav-c" x1="50%" x2="50%" y1="0%" y2="100%">
      <stop offset="0%" stop-color="#5CFF5C"/>
      <stop offset="100%" stop-color="#00DA00"/>
    </linearGradient>
  </defs>
  <g fill="none" fill-rule="evenodd" filter="url(#qtav-a)" transform="translate(6 6)">
    <circle cx="41.858" cy="41.938" r="41.625" fill="url(#qtav-b)" fill-rule="nonzero"/>
    <circle cx="44.26" cy="39.193" r="32.08" fill="#FFF" fill-rule="nonzero"/>
    <path fill="url(#qtav-c)" d="M35.99514,26.1762158 L35.99514,50.8158279 C35.99514,53.0249669 37.786001,54.8158279 39.99514,54.8158279 C40.6972869,54.8158279 41.3870637,54.6310027 41.99514,54.2799291 L63.3336608,41.960123 C65.2468311,40.8555531 65.9023312,38.4091914 64.7977613,36.4960211 C64.4466881,35.8879448 63.9417371,35.3829938 63.3336608,35.0319206 L41.99514,22.7121145 C40.0819704,21.6075447 37.6356087,22.2630448 36.5310388,24.1762151 C36.1799652,24.7842921 35.99514,25.4740688 35.99514,26.1762158 Z"/>
  </g>
</svg>
