<?xml version="1.0" encoding="UTF-8"?>
<svg width="96px" height="96px" viewBox="0 0 96 96" version="1.1" xmlns="http://www.w3.org/2000/svg" xmlns:xlink="http://www.w3.org/1999/xlink">
    <!-- Generator: Sketch 62 (91390) - https://sketch.com -->
    <title>qtscrob_qtscrob</title>
    <desc>Created with Sketch.</desc>
    <defs>
        <filter x="-18.3%" y="-17.8%" width="136.6%" height="135.6%" filterUnits="objectBoundingBox" id="filter-1">
            <feOffset dx="0" dy="2" in="SourceAlpha" result="shadowOffsetOuter1"></feOffset>
            <feGaussianBlur stdDeviation="2" in="shadowOffsetOuter1" result="shadowBlurOuter1"></feGaussianBlur>
            <feComposite in="shadowBlurOuter1" in2="SourceAlpha" operator="out" result="shadowBlurOuter1"></feComposite>
            <feColorMatrix values="0 0 0 0 0   0 0 0 0 0   0 0 0 0 0  0 0 0 0.2 0" type="matrix" in="shadowBlurOuter1" result="shadowMatrixOuter1"></feColorMatrix>
            <feMerge>
                <feMergeNode in="shadowMatrixOuter1"></feMergeNode>
                <feMergeNode in="SourceGraphic"></feMergeNode>
            </feMerge>
        </filter>
        <linearGradient x1="50%" y1="0%" x2="50%" y2="100%" id="linearGradient-2">
            <stop stop-color="#BEBEBE" offset="0%"></stop>
            <stop stop-color="#989898" offset="100%"></stop>
        </linearGradient>
    </defs>
    <g id="qtscrob_qtscrob" stroke="none" stroke-width="1" fill="none" fill-rule="evenodd">
        <g id="编组-3" filter="url(#filter-1)" transform="translate(13.000000, 13.000000)">
            <g id="编组" transform="translate(0.000000, 49.000000)">
                <rect id="矩形" stroke="#C4C4C4" fill="#FFFFFF" transform="translate(4.000000, 13.000000) rotate(-20.000000) translate(-4.000000, -13.000000) " x="0.5" y="10.5" width="7" height="5" rx="2.5"></rect>
                <circle id="椭圆形备份" stroke="#C4C4C4" fill="#FFFFFF" cx="11.5" cy="8.5" r="9"></circle>
                <circle id="椭圆形备份-2" stroke="#9A9A9A" fill="url(#linearGradient-2)" cx="12.5" cy="7.5" r="7"></circle>
            </g>
            <rect id="矩形" stroke="#C3C3C3" fill="#FFFFFF" x="12.5" y="-0.5" width="43" height="71" rx="4"></rect>
            <rect id="矩形备份-11" stroke="#FFFFFF" fill="#F7F7F7" x="13.5" y="0.5" width="41" height="69" rx="4"></rect>
            <g id="编组-2" transform="translate(20.000000, 6.000000)">
                <rect id="矩形备份" stroke="#969794" fill="#FFFFFF" x="-0.5" y="-0.5" width="29" height="24" rx="1"></rect>
                <rect id="矩形" fill="#BA9862" x="2" y="5" width="8" height="8" rx="1"></rect>
                <rect id="矩形备份-2" fill="#D3D6CF" x="2" y="15" width="24" height="2" rx="1"></rect>
                <rect id="矩形备份-3" fill="#91C2F4" x="2" y="15" width="14" height="2" rx="1"></rect>
                <rect id="矩形备份-4" fill="#8E8E8E" x="2" y="19" width="6" height="2" rx="1"></rect>
                <rect id="矩形备份-5" fill="#8E8E8E" x="20" y="19" width="6" height="2" rx="1"></rect>
                <rect id="矩形备份-10" fill="#E0F385" x="22" y="0" width="4" height="2" rx="1"></rect>
                <rect id="矩形备份-6" fill="#8E8E8E" x="12" y="11" width="14" height="2" rx="1"></rect>
                <rect id="矩形备份-7" fill="#8E8E8E" x="12" y="8" width="14" height="2" rx="1"></rect>
                <rect id="矩形备份-8" fill="#8E8E8E" x="12" y="5" width="14" height="2" rx="1"></rect>
                <rect id="矩形备份-9" fill="#B2B2B2" x="3" y="0" width="14" height="2" rx="1"></rect>
            </g>
            <g id="编组" transform="translate(18.000000, 34.000000)">
                <path d="M16,0 C24.836556,0 32,7.163444 32,16 C32,24.836556 24.836556,32 16,32 C7.163444,32 0,24.836556 0,16 C0,7.163444 7.163444,0 16,0 Z M16,11 C13.2385763,11 11,13.2385763 11,16 C11,18.7614237 13.2385763,21 16,21 C18.7614237,21 21,18.7614237 21,16 C21,13.2385763 18.7614237,11 16,11 Z" id="形状结合" fill="#D7D7D7"></path>
                <path d="M24,14 L26,15.5 L24,17 L24,14 Z M26,14 L28,15.5 L26,17 L26,14 Z M28,14 L29,14 L29,17 L28,17 L28,14 Z" id="形状结合" fill="#FFFFFF"></path>
                <path d="M14,29 L14,26 L16,27.5 L14,29 Z M17,26 L18,26 L18,29 L17,29 L17,26 Z M19,26 L20,26 L20,29 L19,29 L19,26 Z" id="形状结合备份-2" fill="#FFFFFF"></path>
                <path d="M3,14 L5,15.5 L3,17 L3,14 Z M5,14 L7,15.5 L5,17 L5,14 Z M7,14 L8,14 L8,17 L7,17 L7,14 Z" id="形状结合备份" fill="#FFFFFF" transform="translate(5.500000, 15.500000) scale(-1, 1) translate(-5.500000, -15.500000) "></path>
                <path d="M12.3544922,6.16796875 L12.3544922,4.50976562 L12.8730469,6.02294922 L13.2363281,6.02294922 L13.7651367,4.53173828 L13.7651367,6.16796875 L14.1811523,6.16796875 L14.1811523,4 L13.6567383,4 L13.1191406,5.52490234 L12.5976563,4 L12,4 L12,6.16796875 L12.3544922,6.16796875 Z M16.1196999,6.16796875 L16.1196999,5.86035156 L15.1470437,5.86035156 L15.1470437,5.19238281 L15.8882546,5.19238281 L15.8882546,4.90234375 L15.1470437,4.90234375 L15.1470437,4.29736328 L16.0508523,4.29736328 L16.0508523,4 L14.6958718,4 L14.6958718,6.16796875 L16.1196999,6.16796875 Z M16.8248491,6.16796875 L16.8248491,4.50976562 L17.3434038,6.02294922 L17.706685,6.02294922 L18.2354936,4.53173828 L18.2354936,6.16796875 L18.6515092,6.16796875 L18.6515092,4 L18.1270952,4 L17.5894975,5.52490234 L17.0680131,4 L16.4703569,4 L16.4703569,6.16796875 L16.8248491,6.16796875 Z M20.0304865,6.22216797 C20.2629084,6.22216797 20.447967,6.16894531 20.5856623,6.0625 C20.6862482,5.98535156 20.7555842,5.89428711 20.7936701,5.78930664 C20.831756,5.68432617 20.850799,5.53173828 20.850799,5.33154297 L20.850799,5.33154297 L20.850799,4 L20.4582209,4 L20.4582209,5.36083984 C20.4582209,5.55810547 20.4252619,5.70117188 20.3593439,5.79003906 C20.293426,5.87890625 20.1867365,5.92333984 20.0392756,5.92333984 C19.8849787,5.92333984 19.7731623,5.87670898 19.7038263,5.78344727 C19.6344904,5.69018555 19.5998224,5.53857422 19.5998224,5.32861328 L19.5998224,5.32861328 L19.5998224,4 L19.1486506,4 L19.1486506,5.32714844 C19.1486506,5.51855469 19.1694025,5.66772461 19.2109064,5.7746582 C19.2524103,5.8815918 19.3254084,5.97412109 19.4299006,6.05224609 C19.5812678,6.16552734 19.7814631,6.22216797 20.0304865,6.22216797 Z" id="MEMU" fill="#FFFFFF" fill-rule="nonzero"></path>
            </g>
            <g id="编组" transform="translate(40.000000, 56.000000)">
                <path d="M29.4403036,9.4785764 C28.6333826,10.1828194 27.348155,10.7716483 25.5653751,11.2139566 L26.2366032,8.74600633 C26.8754612,8.24648268 27.3254206,7.81797724 27.5742207,7.45009136 C27.6647408,6.85679675 27.4354942,6.7931103 27.1570755,6.7221953 C26.6985851,6.6054149 26.0658076,6.55109894 25.2600356,6.55109894 L14.5,6.55109894 L14.5,4.57686327 C16.3745554,4.58038897 18.0722906,4.56324979 19.5970843,4.54786396 C23.5271108,4.5082083 26.3230317,4.48665192 28.0512843,4.84283905 C28.8790094,5.01343046 29.4812009,5.2766495 29.8817298,5.63229953 C30.3267455,6.0274517 30.556135,6.53667737 30.556135,7.20237442 C30.556135,8.05680484 30.1949288,8.81997471 29.4403036,9.4785764 Z" id="路径-185" stroke="#C4C4C4" fill="#ECECEC"></path>
                <circle id="椭圆形" stroke="#C4C4C4" fill="#FFFFFF" cx="8.5" cy="8.5" r="9"></circle>
                <rect id="矩形备份" stroke="#C4C4C4" fill="#ECECEC" transform="translate(24.500000, 10.500000) rotate(-5.000000) translate(-24.500000, -10.500000) " x="20.5" y="8" width="8" height="5" rx="2.5"></rect>
                <rect id="矩形" stroke="#C4C4C4" fill="#FFFFFF" transform="translate(15.000000, 11.500000) rotate(-7.000000) translate(-15.000000, -11.500000) " x="6.5" y="9" width="17" height="5" rx="2.5"></rect>
                <circle id="椭圆形备份-2" stroke="#C4C4C4" fill="#FFFFFF" cx="9" cy="3.5" r="1.5"></circle>
                <path d="M2.18126579,5.30846824 C2.45740816,5.30846824 2.68126579,5.08461062 2.68126579,4.80846824 C2.68126579,4.53232587 2.45740816,4.30846824 2.18126579,4.30846824 C1.90512341,4.30846824 1.68126579,4.53232587 1.68126579,4.80846824 C1.68126579,5.08461062 1.90512341,5.30846824 2.18126579,5.30846824 Z M4.06603202,14.88602 C4.34217439,14.88602 4.56603202,14.6621623 4.56603202,14.38602 C4.56603202,14.1098776 4.34217439,13.88602 4.06603202,13.88602 C3.78988964,13.88602 3.56603202,14.1098776 3.56603202,14.38602 C3.56603202,14.6621623 3.78988964,14.88602 4.06603202,14.88602 Z M5.5,14.7655494 C5.77614237,14.7655494 6,14.989407 6,15.2655494 C6,15.5416918 5.77614237,15.7655494 5.5,15.7655494 C5.22385763,15.7655494 5,15.5416918 5,15.2655494 C5,14.989407 5.22385763,14.7655494 5.5,14.7655494 Z M2.68126579,12.4157082 C2.95740816,12.4157082 3.18126579,12.6395658 3.18126579,12.9157082 C3.18126579,13.1918506 2.95740816,13.4157082 2.68126579,13.4157082 C2.40512341,13.4157082 2.18126579,13.1918506 2.18126579,12.9157082 C2.18126579,12.6395658 2.40512341,12.4157082 2.68126579,12.4157082 Z M2,10.6371948 C2.27614237,10.6371948 2.5,10.8610524 2.5,11.1371948 C2.5,11.4133372 2.27614237,11.6371948 2,11.6371948 C1.72385763,11.6371948 1.5,11.4133372 1.5,11.1371948 C1.5,10.8610524 1.72385763,10.6371948 2,10.6371948 Z M1.5,8.5 C1.77614237,8.5 2,8.72385763 2,9 C2,9.27614237 1.77614237,9.5 1.5,9.5 C1.22385763,9.5 1,9.27614237 1,9 C1,8.72385763 1.22385763,8.5 1.5,8.5 Z M1.5,6.5 C1.77614237,6.5 2,6.72385763 2,7 C2,7.27614237 1.77614237,7.5 1.5,7.5 C1.22385763,7.5 1,7.27614237 1,7 C1,6.72385763 1.22385763,6.5 1.5,6.5 Z" id="形状结合" fill="#C4C4C4"></path>
            </g>
        </g>
    </g>
</svg>