<svg xmlns="http://www.w3.org/2000/svg" xmlns:xlink="http://www.w3.org/1999/xlink" width="96" height="96" viewBox="0 0 96 96">
  <defs>
    <filter id="samplv1-a" width="130.4%" height="131.2%" x="-15.2%" y="-15.6%" filterUnits="objectBoundingBox">
      <feOffset dy="2" in="SourceAlpha" result="shadowOffsetOuter1"/>
      <feGaussianBlur in="shadowOffsetOuter1" result="shadowBlurOuter1" stdDeviation="2"/>
      <feColorMatrix in="shadowBlurOuter1" result="shadowMatrixOuter1" values="0 0 0 0 0   0 0 0 0 0   0 0 0 0 0  0 0 0 0.2 0"/>
      <feMerge>
        <feMergeNode in="shadowMatrixOuter1"/>
        <feMergeNode in="SourceGraphic"/>
      </feMerge>
    </filter>
    <linearGradient id="samplv1-b" x1="50%" x2="50%" y1="0%" y2="100%">
      <stop offset="0%" stop-color="#F5F5F5"/>
      <stop offset="6.795%" stop-color="#E1E1E1"/>
      <stop offset="11.314%" stop-color="#DFDFDF"/>
      <stop offset="45.214%" stop-color="#A4A4A4"/>
      <stop offset="45.434%" stop-color="#BCBCBC"/>
      <stop offset="45.739%" stop-color="#D2D2D2"/>
      <stop offset="46.934%" stop-color="#F1F1F1"/>
      <stop offset="50.638%" stop-color="#D3D3D3"/>
      <stop offset="72.529%" stop-color="#DFDFDF"/>
      <stop offset="73.339%" stop-color="#D2D2D2"/>
      <stop offset="86.303%" stop-color="#D1D1D1"/>
      <stop offset="91.598%" stop-color="#D2D2D2"/>
      <stop offset="100%" stop-color="#969696"/>
    </linearGradient>
    <linearGradient id="samplv1-c" x1="50%" x2="50%" y1="0%" y2="100%">
      <stop offset="0%" stop-color="#C8C8C8"/>
      <stop offset="4.876%" stop-color="#E6E6E6"/>
      <stop offset="68.325%" stop-color="#F4F4F4"/>
      <stop offset="70.618%" stop-color="#C8C8C8"/>
      <stop offset="100%" stop-color="#D6D6D6"/>
    </linearGradient>
    <linearGradient id="samplv1-d" x1="50%" x2="50%" y1="0%" y2="100%">
      <stop offset="0%" stop-opacity=".411"/>
      <stop offset="28.262%" stop-opacity=".248"/>
      <stop offset="100%" stop-opacity="0"/>
    </linearGradient>
    <linearGradient id="samplv1-e" x1="50.511%" x2="50.511%" y1="8.949%" y2="106.329%">
      <stop offset="0%" stop-opacity=".7"/>
      <stop offset="100%" stop-color="#BCBCBC"/>
    </linearGradient>
    <linearGradient id="samplv1-f" x1="47.991%" x2="47.991%" y1="100.82%" y2="-341.696%">
      <stop offset="0%"/>
      <stop offset="100%" stop-opacity="0"/>
    </linearGradient>
    <linearGradient id="samplv1-g" x1="48.547%" x2="48.547%" y1=".762%" y2="101.353%">
      <stop offset="0%"/>
      <stop offset="100%" stop-opacity="0"/>
    </linearGradient>
    <linearGradient id="samplv1-h" x1="54.053%" x2="54.053%" y1="100%" y2="-105%">
      <stop offset="0%"/>
      <stop offset="100%" stop-color="#C1C3C0"/>
    </linearGradient>
    <linearGradient id="samplv1-i" x1="116.742%" x2="37.557%" y1="51.14%" y2="43.162%">
      <stop offset="0%" stop-color="#FFF" stop-opacity="0"/>
      <stop offset="100%" stop-color="#FFF"/>
    </linearGradient>
    <linearGradient id="samplv1-j" x1="54.053%" x2="54.053%" y1="100%" y2="-105%">
      <stop offset="0%"/>
      <stop offset="100%" stop-color="#C1C3C0"/>
    </linearGradient>
    <linearGradient id="samplv1-k" x1="30.833%" x2="30.833%" y1="186.679%" y2="-65.506%">
      <stop offset="0%" stop-color="#FFF"/>
      <stop offset="100%" stop-color="#FFF" stop-opacity="0"/>
    </linearGradient>
    <linearGradient id="samplv1-l" x1="50%" x2="50%" y1="0%" y2="100%">
      <stop offset="0%" stop-color="#8EAE8E"/>
      <stop offset="100%" stop-color="#374837"/>
    </linearGradient>
    <linearGradient id="samplv1-m" x1="54.627%" x2="54.627%" y1="154.191%" y2="-50.411%">
      <stop offset="0%" stop-color="#990"/>
      <stop offset="50%"/>
      <stop offset="100%" stop-color="#990"/>
    </linearGradient>
    <linearGradient id="samplv1-n" x1="50%" x2="50%" y1="0%" y2="96.258%">
      <stop offset="0%" stop-color="#575757"/>
      <stop offset="100%" stop-color="#1A1A1A"/>
    </linearGradient>
    <linearGradient id="samplv1-o" x1="50%" x2="50%" y1="0%" y2="100%">
      <stop offset="0%" stop-color="#DADADA"/>
      <stop offset="100%" stop-color="#787878"/>
    </linearGradient>
    <radialGradient id="samplv1-p" cx="59.949%" cy="71.548%" r="50%" fx="59.949%" fy="71.548%" gradientTransform="scale(1 .99992)">
      <stop offset="0%"/>
      <stop offset="100%" stop-color="#FFF"/>
    </radialGradient>
    <linearGradient id="samplv1-q" x1="50%" x2="50%" y1="0%" y2="100%">
      <stop offset="0%" stop-color="#8FE76F"/>
      <stop offset="4.243%" stop-color="#37C44A"/>
      <stop offset="6.012%" stop-color="#67C736"/>
      <stop offset="12.001%" stop-color="#84D958"/>
      <stop offset="100%" stop-color="#349300"/>
    </linearGradient>
    <linearGradient id="samplv1-t" x1="50%" x2="50%" y1="0%" y2="100%">
      <stop offset="0%" stop-color="#75E775"/>
      <stop offset="100%" stop-color="#33A439"/>
    </linearGradient>
    <path id="samplv1-s" d="M46.1400015,7.96286076 C45.9541171,8.01304005 45.8184406,8.17641732 45.800001,8.37227835 C45.6802726,9.38626407 44.843718,10.4365577 43.6400058,10.5626793 C43.4015187,10.5836048 43.2187299,10.7885171 43.220006,11.033513 L43.220006,14.1041719 C43.2198011,14.2291089 43.2681994,14.3489892 43.3545105,14.4373331 C43.4408216,14.525677 43.5579433,14.5752152 43.6800055,14.5750055 L45.800001,14.5750055 L45.800001,30.9313632 L42.3200036,32.0982135 C42.1285892,32.1605455 41.998965,32.3429765 42,32.5485728 L42,33.49024 C41.9998013,33.6151771 42.0481996,33.7350573 42.1345107,33.8234013 C42.2208218,33.9117452 42.3379436,33.9610743 42.4600057,33.9610743 L46.2600005,33.9610743 L52.7399995,33.9610743 L56.5399943,33.9610743 C56.6620564,33.9610743 56.7791782,33.9117452 56.8654893,33.8234013 C56.9518004,33.7350573 57.0001987,33.6151771 57,33.49024 L57,32.5485728 C57.001035,32.3429765 56.8714108,32.1605455 56.6799964,32.0982135 L53.199999,30.9313632 L53.199999,10.6445629 L53.199999,8.43369437 C53.2002038,8.30875735 53.1518056,8.18887709 53.0654945,8.10053316 C52.9791834,8.01218923 52.8620616,7.96265104 52.7399995,7.96286076 L46.2600005,7.96286076 C46.2333849,7.96047883 46.2066169,7.96047883 46.1800012,7.96286076 C46.1666765,7.96226632 46.1533328,7.96226632 46.1400081,7.96286076 L46.1400015,7.96286076 Z"/>
    <filter id="samplv1-r" width="120%" height="111.5%" x="-10%" y="-5.8%" filterUnits="objectBoundingBox">
      <feOffset in="SourceAlpha" result="shadowOffsetOuter1"/>
      <feGaussianBlur in="shadowOffsetOuter1" result="shadowBlurOuter1" stdDeviation=".5"/>
      <feColorMatrix in="shadowBlurOuter1" values="0 0 0 0 0   0 0 0 0 0   0 0 0 0 0  0 0 0 0.258358829 0"/>
    </filter>
    <linearGradient id="samplv1-u" x1="50%" x2="50%" y1="0%" y2="100%">
      <stop offset="0%" stop-color="#299F29"/>
      <stop offset="100%" stop-color="#138313"/>
    </linearGradient>
    <linearGradient id="samplv1-v" x1="50%" x2="50%" y1="0%" y2="116.605%">
      <stop offset="0%" stop-color="#DFF5DF"/>
      <stop offset="100%" stop-color="#BFDEBF"/>
    </linearGradient>
    <linearGradient id="samplv1-w" x1="50%" x2="50%" y1="0%" y2="100%">
      <stop offset="0%" stop-color="#244C97"/>
      <stop offset="100%" stop-color="#001E42"/>
    </linearGradient>
    <linearGradient id="samplv1-x" x1="50%" x2="50%" y1="2.696%" y2="100%">
      <stop offset="0%" stop-color="#4E69D5"/>
      <stop offset="100%" stop-color="#043667"/>
    </linearGradient>
    <linearGradient id="samplv1-y" x1="50%" x2="50%" y1="0%" y2="100%">
      <stop offset="0%" stop-color="#FFF" stop-opacity=".109"/>
      <stop offset="100%" stop-color="#FFF" stop-opacity=".074"/>
    </linearGradient>
  </defs>
  <g fill="none" fill-rule="evenodd">
    <g fill-rule="nonzero" filter="url(#samplv1-a)" transform="translate(8 9.039)">
      <path fill="url(#samplv1-b)" d="M5.51115835,-2.13162821e-14 C4.67779763,-2.13162821e-14 4.00689601,0.670901616 4.00689601,1.50426234 L4.00689601,3.4472398 C4.00689601,4.28060052 4.67779763,4.95150214 5.51115835,4.95150214 L5.99359502,5 L6,34.9610743 L5.38578785,34.9610743 C5.38578785,34.9610743 4.88910265,35.3893662 4.69635214,36.72872 C4.50386698,38.0680738 4.88434666,38.6090326 4.88434666,38.6090326 L0.149000412,55.4694764 C0.0501336854,55.8214964 4.63791708e-14,56.1854101 0,56.5510503 L0,69 L0,69 C0,70.3114406 1.07198883,70.9610743 2,70.9610743 L4.13222569,75.525788 C4.66406035,76.4094643 4.83382696,76.9610743 5.76181771,76.9610743 L73.07694,76.9610743 C74.0049307,76.9610743 74.2373826,76.4094643 74.7692172,75.525788 L77.0255801,70.9610743 L77.088245,70.9610743 C78.0162561,70.9610743 79,70.3114406 79,69.3834498 L79,57.0194376 C79,56.6561606 78.9505122,56.2945767 78.8529016,55.944659 L74.0170759,38.6090326 L74.0170759,38.6090326 C74.0170759,38.6090326 74.3351765,38.0680738 74.1424055,36.72872 C73.9499204,35.3893662 73.4529698,34.9610743 73.4529698,34.9610743 L73,34.9610743 L73,5 L73.1395844,5 C73.9916088,4.95150214 74.6438263,4.28060052 74.6438263,3.4472398 L74.6438263,1.50426234 C74.6438263,0.670901616 73.9729247,-2.13162821e-14 73.1395844,-2.13162821e-14 L5.51115835,-2.13162821e-14 Z"/>
      <polygon fill="url(#samplv1-c)" points="71 38.961 75.985 57.905 76 57.906 76 66.017 3 66.017 3 57.906 3.015 57.905 8.035 38.961"/>
      <path fill="#000" d="M15.9549173,38.6881496 L12.0422874,58.9610743 L13.030656,58.9610743 L16.76707,38.6881496 L15.9549173,38.6881496 Z M25.2536448,38.6881496 L23,58.9610743 L24,58.9610743 L26.0714413,38.6881496 L25.2536448,38.6881496 Z M34.4895236,38.6881496 L34,58.9610743 L35,58.9610743 L35.3148193,38.7438743 L34.4895236,38.6881496 Z M43.7254229,38.6881496 L44,58.9610743 L45,58.9610743 L44.5,38.6881496 L43.7254229,38.6881496 Z M53.0241708,38.6881496 L55,58.9610743 L56,58.9610743 L53.7895508,38.7410779 L53.0241708,38.6881496 Z M62.26007,38.6881496 L66,58.9610743 L67,58.9610743 L63.0471958,38.6881496 L62.26007,38.6881496 Z"/>
      <path fill="url(#samplv1-d)" d="M2,70.9610743 L4.13447101,75.5324832 C4.66632608,76.4161595 4.83607228,76.9610743 5.76408344,76.9610743 C35.5947925,76.9610743 57.9678242,76.9610743 72.8831787,76.9610743 C72.9267357,76.9610743 72.9920713,76.9610743 73.0791853,76.9610743 C74.0071965,76.9610743 74.2396279,76.4161595 74.771483,75.5324832 L77,70.9610743 L2,70.9610743 Z"/>
      <polygon fill="url(#samplv1-e)" points="3 64.961 76 64.961 76 65.961 3 65.961"/>
      <path fill="url(#samplv1-f)" d="M7.24900093,34.9610743 C7.24900093,34.9610743 6.70092093,35.5925937 6.51206093,36.9938654 C6.32346093,38.3951158 6.63486093,38.9610743 6.63486093,38.9610743 L7.10818093,38.9610743 C7.10818093,38.9610743 6.66642093,38.3951158 6.85508093,36.9938654 C7.04388093,35.5925937 7.54860093,34.9610743 7.54860093,34.9610743 L7.24900093,34.9610743 Z M71.4513926,34.9610743 C71.4513926,34.9610743 71.9560326,35.5925937 72.1448926,36.9938654 C72.3334926,38.3951158 71.8917926,38.9610743 71.8917926,38.9610743 L72.3651126,38.9610743 C72.3651126,38.9610743 72.6765926,38.3951158 72.4879126,36.9938654 C72.2991126,35.5925937 71.7509726,34.9610743 71.7509726,34.9610743 L71.4513926,34.9610743 Z" opacity=".3"/>
      <polygon fill="url(#samplv1-g)" points="6 4.961 6 6.961 73 6.961 73 4.961" opacity=".278"/>
      <polygon fill="#000" points="24.379 36.961 24.316 36.961 24.191 36.961 23.564 38.866 21.935 51.961 22.06 51.961 27.889 51.961 28.014 51.961 29.268 38.866 28.641 36.961 28.453 36.961 28.391 36.961"/>
      <polygon fill="#000" points="40.738 36.961 40.675 36.961 40.487 36.961 39.923 38.866 40.048 51.961 40.174 51.961 46.003 51.961 46.128 51.961 45.564 38.866 44.937 36.961 44.812 36.961 44.749 36.961"/>
      <polygon fill="#000" points="51.33 36.961 51.268 36.961 51.08 36.961 50.516 38.866 51.644 51.961 51.769 51.961 57.598 51.961 57.724 51.961 56.157 38.866 55.593 36.961 55.405 36.961 55.342 36.961"/>
      <polygon fill="#000" points="61.86 36.961 61.797 36.961 61.609 36.961 61.045 38.866 63.051 51.961 63.176 51.961 69.005 51.961 69.131 51.961 68.504 48.581 66.686 38.866 66.122 36.961 65.934 36.961 65.871 36.961"/>
      <polygon fill="#000" points="13.411 36.961 13.348 36.961 13.223 36.961 12.596 38.866 10.653 48.581 9.963 51.961 10.089 51.961 15.98 51.961 16.106 51.961 18.299 38.866 17.673 36.961 17.485 36.961"/>
      <g transform="translate(9.903 47.446)">
        <polygon fill="url(#samplv1-h)" points=".836 1.317 5.419 1.317 6.051 4.478 .203 4.478"/>
        <polygon fill="url(#samplv1-i)" points=".965 1.003 5.289 1.003 5.403 1.333 .852 1.333"/>
      </g>
      <g transform="translate(21.844 47.446)">
        <polygon fill="url(#samplv1-h)" points=".836 1.317 5.419 1.317 6.051 4.478 .203 4.478"/>
        <polygon fill="url(#samplv1-i)" points=".965 1.003 5.289 1.003 5.403 1.333 .852 1.333"/>
      </g>
      <g transform="translate(39.948 47.446)">
        <polygon fill="url(#samplv1-h)" points=".836 1.317 5.419 1.317 6.051 4.478 .203 4.478"/>
        <polygon fill="url(#samplv1-i)" points=".965 1.003 5.289 1.003 5.403 1.333 .852 1.333"/>
      </g>
      <g transform="translate(51.552 47.446)">
        <polygon fill="#000" points=".739 1.127 5.516 1.127 6.175 4.422 .08 4.422"/>
        <polygon fill="url(#samplv1-h)" points=".836 1.317 5.419 1.317 6.051 4.478 .203 4.478"/>
        <polygon fill="url(#samplv1-i)" points=".965 1.003 5.289 1.003 5.403 1.333 .852 1.333"/>
      </g>
      <g transform="translate(62.967 47.446)">
        <polygon fill="url(#samplv1-j)" points=".836 1.317 5.419 1.317 6.051 4.516 .203 4.516"/>
        <polygon fill="url(#samplv1-i)" points=".965 1.003 5.289 1.003 5.403 1.333 .852 1.333"/>
      </g>
      <path fill="url(#samplv1-k)" d="M13.410684,36.9610743 L10.8409153,48.9323857 L15.1656261,48.9323857 L17.4846743,36.9610743 L13.410684,36.9610743 Z M24.3791538,36.9610743 L22.8122267,48.9323857 L27.1369375,48.9323857 L28.3904793,36.9610743 L24.3791538,36.9610743 Z M40.7378409,36.9610743 L40.9258559,48.9323857 L45.2505871,48.9323857 L44.7491664,36.9610743 L40.7378409,36.9610743 L40.7378409,36.9610743 Z M51.3302605,36.9610743 L52.5211374,48.9323857 L56.8458483,48.9323857 L55.3416063,36.9610743 L51.3302605,36.9610743 Z M61.8600153,36.9610743 L63.9283428,48.9323857 L68.2530537,48.9323857 L65.8713407,36.9610743 L61.8600153,36.9610743 Z"/>
      <polygon fill="#000" points="8.035 38.961 3.017 57.915 3.017 64.961 4.017 64.961 4.017 57.961 9 38.961" opacity=".249"/>
      <polygon fill="#000" points="70 38.961 75 57.961 75 64.961 76 64.961 76 57.934 71 38.961" opacity=".249"/>
      <polygon fill="#000" points="12 58.961 12 64.961 13 64.961 13 58.961"/>
      <polygon fill="#000" points="23 58.961 23 64.961 24 64.961 24 58.961"/>
      <polygon fill="#000" points="34 58.961 34 64.961 35 64.961 35 58.961"/>
      <polygon fill="#000" points="44 58.961 44 64.961 45 64.961 45 58.961"/>
      <polygon fill="#000" points="55 58.961 55 64.961 56 64.961 56 58.961"/>
      <polygon fill="#000" points="66 58.961 66 64.961 67 64.961 67 58.961"/>
      <polygon fill="url(#samplv1-l)" points="53.981 10.961 53.981 24.961 70.052 24.961 70.052 10.961"/>
      <path fill="#079F00" d="M61.3530928,13.4559664 L61.3530928,18.0016092 L61.2380724,18.0016092 L61.2380724,13.5218453 C61.1959026,13.5920458 61.1493476,13.6510733 61.1066205,13.7193765 L61.1066205,18.0015038 L60.9751686,18.0015038 L60.9751686,13.9170132 C60.9318946,13.9836299 60.8875059,14.049825 60.8437167,14.1145444 L60.8437167,18.0013984 L60.7286962,18.0013984 L60.7286962,14.312181 C60.6844232,14.3754248 60.6420326,14.4483659 60.5972443,14.5097123 L60.5972443,18.001293 L60.4329294,18.001293 L60.4329294,14.7073489 C60.38934,14.7644791 60.3455297,14.8494365 60.3014775,14.9048802 L60.3014775,18.0011876 L60.1864571,18.0011876 L60.1864571,15.0366379 C60.1434986,15.0889194 60.0984211,15.1175899 60.0550052,15.1683957 L60.0550052,18.0011876 L59.9235533,18.0011876 L59.9235533,15.3660323 C59.8797009,15.4153624 59.8364165,15.4499357 59.7921014,15.4977901 L59.7921014,18.0011876 L59.677081,18.0011876 L59.677081,15.6295479 C59.6335967,15.6748725 59.589534,15.7174566 59.5456291,15.7613056 L59.5456291,18.0011876 L59.3813142,18.0011876 L59.3813142,15.8930634 C59.3368834,15.9352259 59.2946874,15.9839235 59.2498623,16.0248211 L59.2498623,18.0011876 L59.1348419,18.0011876 L59.1348419,16.1565789 C59.089675,16.1962116 59.0489775,16.2499688 59.00339,16.2883367 L59.00339,18.0011876 L58.871938,18.0011876 L58.871938,16.3542156 C58.828927,16.3889996 58.7838442,16.4524541 58.7404861,16.4859733 L58.7404861,18.0011876 L58.6254657,18.0011876 L58.6254657,16.5518522 C58.5827176,16.5836849 58.5371248,16.5870579 58.4940138,16.6176257 L58.4940138,18.0010822 L58.3296989,18.0010822 L58.3296989,16.7493834 C58.2861621,16.7786864 58.2421152,16.786908 58.198247,16.8151569 L58.198247,18.0009768 L58.0832266,18.0009768 L58.0832266,16.8810358 C58.0403733,16.9075982 57.9949435,16.9215118 57.9517747,16.9468093 L57.9517747,18.0008714 L57.8203228,18.0008714 L57.8203228,17.0126881 C57.7768385,17.0371424 57.7326601,17.0552723 57.6888709,17.0784616 L57.6888709,18.000766 L57.5738505,18.000766 L57.5738505,17.1443405 C57.5297878,17.1668974 57.4867609,17.1888219 57.4423986,17.210114 L57.4423986,18.0006606 L57.2780837,18.0006606 L57.2780837,17.2759929 C57.234021,17.294966 57.1910099,17.323004 57.1466318,17.3417663 L57.1466318,18.0005552 L57.0316113,18.0005552 L57.0316113,17.4076452 C56.9878116,17.4245102 56.9442589,17.4567645 56.9001594,17.4734187 L56.9001594,18.0004497 L56.7687075,18.0004497 L56.7687075,17.5392976 C56.7243294,17.5540544 56.6819125,17.5901034 56.6372556,17.6050711 L56.6372556,18.0003443 L56.5222352,18.0003443 L56.5222352,17.6050711 C56.4773312,17.6198279 56.4359607,17.6577742 56.3907833,17.6708445 L56.3907833,18.0002389 L56.2264684,18.0002389 L56.2264684,17.7367234 C56.183878,17.747264 56.1378593,17.7921671 56.0950165,17.8024969 L56.0950165,18.0000281 L55.9799961,18.0000281 L55.9799961,17.8024969 C55.9371953,17.8130375 55.891571,17.7940644 55.8485442,17.8024969 L55.8485442,18.0000281 L55.7170923,18.0000281 L55.7170923,17.8682704 C55.6738183,17.8767029 55.6291404,17.8598379 55.5856404,17.8682704 L55.5856404,18.0000281 L55.4706199,18.0000281 L55.4706199,17.8682704 C55.4266624,17.8745947 55.3833779,17.9281411 55.339168,17.9340438 L55.339168,17.9998173 L55.1748532,17.9998173 L55.1748532,17.9340438 C55.1312111,17.9382601 55.0872483,17.9298276 55.0434012,17.9340438 L55.0434012,17.9998173 L54.9283808,17.9998173 L54.9283808,17.9340438 C54.8843181,17.9382601 54.8411967,17.9319357 54.7969289,17.9340438 L54.7969289,17.9998173 L54.665477,17.9998173 L54.665477,17.9340438 C54.6209937,17.9361098 54.5787345,17.9327157 54.5340251,17.9340438 L54.5340251,17.9998173 L54.4190047,17.9998173 L54.4190047,17.9340438 C54.3741007,17.9347395 54.3326776,17.934086 54.2875528,17.9340438 C54.3155257,17.9424763 54.3422052,17.9842172 54.3697102,17.9998173 L54.3697102,18.3292117 L55.339168,18.3292117 C55.3831256,18.3439686 55.4267518,18.3795959 55.4706199,18.3949852 L55.4706199,18.3292117 L55.5856404,18.3292117 L55.5856404,18.3949852 C55.6294401,18.4097421 55.6734082,18.4449477 55.7170923,18.4607587 L55.7170923,18.3290009 L55.8485442,18.3290009 L55.8485442,18.5265321 C55.8916078,18.541289 55.9370271,18.5096672 55.9799961,18.5265321 L55.9799961,18.3290009 L56.0950165,18.3290009 L56.0950165,18.5925164 C56.1403411,18.6093814 56.1813173,18.6410033 56.2264684,18.6582899 L56.2264684,18.3288955 L56.3907833,18.3288955 L56.3907833,18.7241688 C56.4357398,18.7410338 56.4774522,18.7718124 56.5222352,18.7899423 L56.5222352,18.3287901 L56.6372556,18.3287901 L56.6372556,18.8558211 C56.6818967,18.8747943 56.7242715,18.9028323 56.7687075,18.9215946 L56.7687075,18.3286847 L56.9001594,18.3286847 L56.9001594,18.9874735 C56.9443799,19.0064466 56.9875855,19.0338522 57.0316113,19.053247 L57.0316113,18.3285793 L57.1466318,18.3285793 L57.1466318,19.053247 C57.1904841,19.0722201 57.2344679,19.0987825 57.2780837,19.1190205 L57.2780837,18.3284739 L57.4423986,18.3284739 L57.4423986,19.1848993 C57.4857251,19.2059806 57.5307816,19.2293808 57.5738505,19.2506728 L57.5738505,18.3283685 L57.6888709,18.3283685 L57.6888709,19.3165517 C57.7317242,19.3382654 57.7777429,19.3601899 57.8203228,19.3823252 L57.8203228,18.3282631 L57.9517747,18.3282631 L57.9517747,19.4482041 C57.9955745,19.471815 58.0397108,19.4899449 58.0832266,19.5139775 L58.0832266,18.3281577 L58.198247,18.3281577 L58.198247,19.5798564 C58.2414684,19.6045215 58.2867878,19.6205432 58.3296989,19.6456299 L58.3296989,18.3280523 L58.4940138,18.3280523 L58.4940138,19.7773876 C58.5364991,19.8033176 58.5833328,19.8165988 58.6254657,19.8431611 L58.6254657,18.3279468 L58.7404861,18.3279468 L58.7404861,19.90904 C58.7856004,19.9385537 58.8272812,19.9446673 58.871938,19.9748135 L58.871938,18.3278414 L59.00339,18.3278414 L59.00339,20.1065712 C59.0476104,20.1375607 59.0910999,20.140512 59.1348419,20.1723447 L59.1348419,18.327736 L59.2498623,18.327736 L59.2498623,20.2382236 C59.2931888,20.2708995 59.3384714,20.2704779 59.3813142,20.3039971 L59.3813142,18.3276306 L59.5456291,18.3276306 L59.5456291,20.5016337 C59.5891134,20.5374718 59.634154,20.5307258 59.677081,20.5674072 L59.677081,18.3275252 L59.7921014,18.3275252 L59.7921014,20.699165 C59.8356909,20.7379544 59.8806001,20.7908684 59.9235533,20.8309227 L59.9235533,18.3275252 L60.0550052,18.3275252 L60.0550052,20.8968016 C60.0977534,20.9383317 60.1443452,20.9857644 60.1864571,21.0285594 L60.1864571,18.3275252 L60.3014775,18.3275252 L60.3014775,21.1603171 C60.348327,21.209858 60.3869318,21.3068318 60.4329294,21.3578484 L60.4329294,18.3274198 L60.5972443,18.3274198 L60.5972443,21.555485 C60.6406235,21.6069232 60.6861847,21.634118 60.7286962,21.6872428 L60.7286962,18.3274198 L60.8437167,18.3274198 L60.8437167,21.8190005 C60.8867803,21.8084599 60.9319577,21.827433 60.9751686,21.8190005 L60.9751686,18.3274198 L61.1066205,18.3274198 L61.1066205,21.7531217 C61.1499996,21.7446892 61.1945828,21.7615542 61.2380724,21.7531217 L61.2380724,18.3274198 L61.3530928,18.3274198 L61.3530928,21.7531217 C61.3969452,21.7446892 61.4406293,21.694305 61.4845447,21.6873482 L61.4845447,18.3275252 L61.6488596,18.3275252 L61.6488596,21.6873482 C61.6928697,21.6810238 61.7362909,21.6281099 61.7803115,21.6215747 L61.7803115,18.3276306 L61.8953319,18.3276306 L61.8953319,21.6215747 C61.9391317,21.6152503 61.9830103,21.6278991 62.0267838,21.6215747 L62.0267838,18.3276306 L62.1582357,18.3276306 L62.1582357,21.5556958 C62.2019829,21.5493715 62.2460088,21.5620202 62.2896876,21.5556958 L62.2896876,18.3276306 L62.4047081,18.3276306 L62.4047081,21.5556958 C62.4495594,21.5472633 62.4913927,21.4977224 62.53616,21.4899224 L62.53616,18.327736 L62.7004748,18.327736 L62.7004748,21.4899224 C62.7450633,21.4814899 62.7874908,21.4332138 62.8319268,21.4241489 L62.8319268,18.3278414 L62.9469472,18.3278414 L62.9469472,21.4241489 C62.9912202,21.4136083 63.0343417,21.368916 63.0783991,21.3583754 L63.0783991,18.3279468 L63.209851,18.3279468 L63.209851,21.3583754 C63.2537033,21.3478348 63.2977397,21.304829 63.3413029,21.2926019 L63.3413029,18.3280523 L63.4563233,18.3280523 L63.4563233,21.2926019 C63.4996499,21.2799532 63.5447642,21.2411637 63.5877752,21.2268284 L63.5877752,18.3281577 L63.7520901,18.3281577 L63.7520901,21.2268284 C63.7970992,21.2099635 63.838922,21.1793957 63.883542,21.161055 L63.883542,18.3282631 L63.9985624,18.3282631 L63.9985624,21.0951761 C64.0427829,21.0740949 64.0862409,21.0509055 64.1300143,21.0294026 L64.1300143,18.3283685 L64.2614662,18.3283685 L64.2614662,20.9635237 C64.3047402,20.9399127 64.3501647,20.9230478 64.3929182,20.8977503 L64.3929182,18.3284739 L64.5079386,18.3284739 L64.5079386,20.8318714 C64.5528951,20.8027793 64.595107,20.7317355 64.6393905,20.7001136 L64.6393905,18.3284739 L64.8037054,18.3284739 L64.8037054,20.6342347 C64.8471371,20.5994507 64.8924564,20.5400016 64.9351573,20.502477 L64.9351573,18.3284739 L65.0501777,18.3284739 L65.0501777,20.4365981 C65.097553,20.3914842 65.1352954,20.2877645 65.1816296,20.2390669 L65.1816296,18.3285793 L65.3130815,18.3285793 L65.3130815,20.1073091 C65.3569339,20.0562925 65.4017537,20.0305734 65.4445334,19.9755513 L65.4445334,18.3285793 L65.5595538,18.3285793 L65.5595538,19.8437936 C65.6044052,19.7809715 65.6474846,19.7139331 65.6910057,19.6462623 L65.6910057,18.3286847 L65.8553206,18.3286847 L65.8553206,19.3168679 C65.8999091,19.23697 65.9438456,19.1393639 65.9867725,19.0533524 L65.9867725,18.3286847 L66.1017929,18.3286847 L66.1017929,18.7898369 C66.1059994,18.7814044 66.1140968,18.7982694 66.1181981,18.7898369 C66.1589482,18.7982694 66.1933045,18.8450697 66.2332186,18.8556103 L66.2332186,18.3285793 L66.3646705,18.3285793 L66.3646705,18.9214892 C66.4091012,18.9362461 66.4527801,18.9710301 66.4961224,18.9872627 L66.4961224,18.3284739 L66.6111428,18.3284739 L66.6111428,18.9872627 C66.6535229,19.0062358 66.7013293,19.0327982 66.7425947,19.0530362 L66.7425947,18.3283685 L66.9069096,18.3283685 L66.9069096,19.1847939 C66.9534436,19.2117779 66.9934155,19.220632 67.0383615,19.2505674 L67.0383615,18.3282631 L67.1533819,18.3282631 L67.1533819,19.3164463 C67.1979178,19.3497547 67.24197,19.4115227 67.2848338,19.4482041 L67.2848338,18.3282631 L67.4162857,18.3282631 L67.4162857,19.5140829 C67.4613474,19.5575103 67.5047371,19.5986187 67.5477376,19.6458407 L67.5477376,18.3282631 L67.6627581,18.3282631 L67.6627581,19.8434773 C67.7071888,19.898921 67.7522505,19.9149428 67.79421,19.9752351 L67.79421,18.3282631 L67.9585248,18.3282631 L67.9585248,20.1728717 C68.0038495,20.2502399 68.0481277,20.3524839 68.0899768,20.4363873 L68.0899768,18.3282631 L68.2049972,18.3282631 L68.2049972,20.6999028 C68.2523724,20.8103685 68.2944265,20.9088179 68.3364491,21.0292972 L68.3364491,18.3282631 L68.467901,18.3282631 L68.467901,21.0951761 C68.5143298,21.067138 68.5547749,21.0608137 68.5993529,21.0294026 L68.5993529,18.3283685 L68.7143733,18.3283685 L68.7143733,20.8976449 C68.7572792,20.8628608 68.8047439,20.8700284 68.8458252,20.8318714 L68.8458252,18.3284739 L69.0101401,18.3284739 L69.0101401,20.7001136 C69.0586196,20.6467781 69.0958888,20.5609774 69.141592,20.5025824 L69.141592,18.3285793 L69.2566124,18.3285793 L69.2566124,20.3049457 C69.2998338,20.241702 69.3475614,20.1757177 69.3880643,20.1074145 L69.3880643,18.3286847 L69.5195162,18.3286847 L69.5195162,19.9097778 C69.5688896,19.8130149 69.6061693,19.6857264 69.6509682,19.5803834 L69.6509682,18.3286847 L69.7659886,18.3286847 L69.7659886,19.3168679 C69.8109977,19.193121 69.8577736,19.0553973 69.8974405,18.9215946 L69.8974405,18.3286847 L69.9960294,18.3286847 L69.9960294,17.9992903 L69.8974405,17.9992903 L69.8974405,16.9452282 C69.8581101,16.7987135 69.8097883,16.6865403 69.7659886,16.5499549 L69.7659886,17.9992903 L69.6509682,17.9992903 L69.6509682,16.2205605 C69.6047497,16.0968136 69.5704302,15.9385567 69.5195162,15.8252872 L69.5195162,17.9992903 L69.3880643,17.9992903 L69.3880643,15.6276505 C69.346841,15.5479634 69.3007645,15.4372869 69.2566124,15.364135 L69.2566124,17.9992903 L69.141592,17.9992903 L69.141592,15.1664984 C69.0986335,15.1045195 69.0557802,15.0250432 69.0101401,14.9689671 L69.0101401,17.9993957 L68.8458252,17.9993957 L68.8458252,14.8372094 C68.8019203,14.7927279 68.7605655,14.7448735 68.7143733,14.7054516 L68.7143733,17.9993957 L68.5993529,17.9993957 L68.5993529,14.5736938 C68.5695396,14.552191 68.5479289,14.5273151 68.5171955,14.5079204 C68.5015264,14.5334287 68.4836489,14.5483964 68.4679273,14.5736938 L68.4679273,17.9993957 L68.3364754,17.9993957 L68.3364754,14.7713305 C68.2937272,14.8383688 68.2480871,14.9039315 68.2050235,14.9688617 L68.2050235,17.9992903 L68.090003,17.9992903 L68.090003,15.1664984 C68.0466239,15.2293205 68.0023562,15.3041589 67.9585511,15.3640296 L67.9585511,17.9991849 L67.7942363,17.9991849 L67.7942363,15.5616663 C67.7514355,15.615845 67.7061162,15.6426182 67.6627843,15.693424 L67.6627843,17.9991849 L67.5477639,17.9991849 L67.5477639,15.8251818 C67.5024393,15.8743011 67.4622729,15.9780208 67.416312,16.022713 L67.416312,17.9990795 L67.2848601,17.9990795 L67.2848601,16.1544708 C67.2416913,16.1915738 67.197229,16.1875683 67.1534082,16.2202443 L67.1534082,17.9989741 L67.0383878,17.9989741 L67.0383878,16.2861231 C66.9945354,16.3145828 66.9515191,16.3284964 66.9069359,16.3518966 L66.9069359,17.9988687 L66.742621,17.9988687 L66.742621,16.4177755 C66.6984006,16.4346405 66.6561467,16.4719543 66.6111691,16.483549 L66.6111691,17.9987633 L66.4961487,17.9987633 L66.4961487,16.483549 C66.4525592,16.4898733 66.4090802,16.5476359 66.3646968,16.5493224 L66.3646968,17.9986578 L66.2332449,17.9986578 L66.2332449,16.5493224 C66.1902864,16.5451062 66.1455401,16.5577549 66.1017929,16.5493224 L66.1017929,17.9986578 L65.9867725,17.9986578 L65.9867725,16.4834436 C65.9478628,16.4729029 65.9112666,16.4982004 65.8717521,16.4834436 C65.8656002,16.4665786 65.8614989,16.4336918 65.8553469,16.4176701 L65.8553469,17.9987633 L65.691032,17.9987633 L65.691032,16.0882757 C65.6487045,15.9934101 65.6031117,15.9116149 65.5595801,15.8247602 L65.5595801,17.9987633 L65.4445597,17.9987633 L65.4445597,15.5612446 C65.4003919,15.48219 65.3583798,15.3696161 65.3131078,15.2977291 L65.3131078,17.9987633 L65.1816559,17.9987633 L65.1816559,15.1659713 C65.1380664,15.1039925 65.094682,15.0245162 65.050204,14.9684401 L65.050204,17.9988687 L64.9351836,17.9988687 L64.9351836,14.7708035 C64.8921725,14.721895 64.847442,14.6831055 64.8037317,14.6390457 L64.8037317,17.9988687 L64.6394168,17.9988687 L64.6394168,14.5072879 C64.5954067,14.4689201 64.5525744,14.4098926 64.5079649,14.3755302 L64.5079649,17.9988687 L64.3929444,17.9988687 L64.3929444,14.3096513 C64.3494076,14.2795051 64.3055237,14.270651 64.2614925,14.2438778 L64.2614925,17.9989741 L64.1300406,17.9989741 L64.1300406,14.1779989 C64.0868718,14.1548096 64.0421624,14.1326743 63.9985887,14.1122255 L63.9985887,17.9990795 L63.8835683,17.9990795 L63.8835683,14.0463466 C63.8396634,14.0273735 63.7963368,13.9968057 63.7521164,13.9805731 L63.7521164,17.9991849 L63.5878015,17.9991849 L63.5878015,13.9805731 C63.5443172,13.9658162 63.5000653,13.9268159 63.4563496,13.9147996 L63.4563496,17.9992903 L63.3413292,17.9992903 L63.3413292,13.9147996 C63.2974242,13.904259 63.2539662,13.8585127 63.2098773,13.8490261 L63.2098773,17.9993957 L63.0784254,17.9993957 L63.0784254,13.8490261 C63.0342049,13.8405936 62.9913359,13.7908419 62.9469735,13.7832527 L62.9469735,17.9995011 L62.831953,17.9995011 L62.831953,13.7832527 C62.7877852,13.7769283 62.7447163,13.789577 62.7005011,13.7832527 L62.7005011,17.9995011 L62.5361863,17.9995011 L62.5361863,13.7173738 C62.4919133,13.7110494 62.4489811,13.7236982 62.4047343,13.7173738 L62.4047343,17.9995011 L62.2897139,17.9995011 L62.2897139,13.6514949 C62.2454935,13.6451705 62.2024246,13.6578193 62.158262,13.6514949 L62.158262,17.9995011 L62.0268101,17.9995011 L62.0268101,13.585616 C61.9827474,13.5771835 61.9393052,13.5940485 61.8953582,13.585616 L61.8953582,17.9995011 L61.7803378,17.9995011 L61.7803378,13.585616 C61.7362225,13.5750754 61.6928171,13.5303832 61.6488859,13.5198425 L61.6488859,17.9996065 L61.484571,17.9996065 L61.484571,13.5198425 C61.440929,13.5071938 61.3965298,13.4679827 61.3531191,13.4540691 L61.3530928,13.4559664 Z M70.0617817,17.6722148 L70.0617817,18.2651247 C70.084812,18.1563455 70.1072114,18.0497166 70.1275076,17.9357303 C70.1090518,17.8351728 70.0816046,17.7696101 70.0617817,17.6722148 Z" transform="matrix(-1 0 0 1 124.415 0)"/>
      <path fill="url(#samplv1-m)" d="M61.2775314,13.1529868 L61.2775314,17.6986296 L61.162511,17.6986296 L61.162511,13.2188657 C61.1203412,13.2890662 61.0737862,13.3480937 61.0310591,13.4163969 L61.0310591,17.6985242 L60.8996072,17.6985242 L60.8996072,13.6140335 C60.8563332,13.6806503 60.8119445,13.7468454 60.7681553,13.8115648 L60.7681553,17.6984188 L60.6531349,17.6984188 L60.6531349,14.0092014 C60.6088619,14.0724451 60.5664712,14.1453862 60.521683,14.2067327 L60.521683,17.6983134 L60.3573681,17.6983134 L60.3573681,14.4043693 C60.3137786,14.4614995 60.2699683,14.5464569 60.2259162,14.6019005 L60.2259162,17.698208 L60.1108957,17.698208 L60.1108957,14.7336583 C60.0679373,14.7859398 60.0228598,14.8146103 59.9794438,14.8654161 L59.9794438,17.698208 L59.8479919,17.698208 L59.8479919,15.0630527 C59.804087,15.1123828 59.7608551,15.1469561 59.71654,15.1948105 L59.71654,17.698208 L59.6015196,17.698208 L59.6015196,15.3265682 C59.5580353,15.3718929 59.5139726,15.414477 59.4700677,15.458326 L59.4700677,17.698208 L59.3057528,17.698208 L59.3057528,15.5900838 C59.2613221,15.6322463 59.219126,15.6809439 59.1743009,15.7218415 L59.1743009,17.698208 L59.0592805,17.698208 L59.0592805,15.8535993 C59.0141136,15.893232 58.9734161,15.9469892 58.9278286,15.9853571 L58.9278286,17.698208 L58.7963767,17.698208 L58.7963767,16.0512359 C58.7533656,16.08602 58.7082829,16.1494745 58.6649248,16.1829937 L58.6649248,17.698208 L58.5499043,17.698208 L58.5499043,16.2488726 C58.5071562,16.2807053 58.4615634,16.2840783 58.4184524,16.3146461 L58.4184524,17.6981026 L58.2541376,17.6981026 L58.2541376,16.4464038 C58.2106007,16.4757068 58.1665538,16.4839284 58.1226856,16.5121773 L58.1226856,17.6979972 L58.0076652,17.6979972 L58.0076652,16.5780562 C57.9648119,16.6046185 57.9193821,16.6185322 57.8762133,16.6438297 L57.8762133,17.6978918 L57.7447614,17.6978918 L57.7447614,16.7097085 C57.7012771,16.7341628 57.6570988,16.7522926 57.6133095,16.775482 L57.6133095,17.6977864 L57.4982891,17.6977864 L57.4982891,16.8413609 C57.4542264,16.8639178 57.4112048,16.8858423 57.3668372,16.9071344 L57.3668372,17.697681 L57.2025223,17.697681 L57.2025223,16.9730133 C57.1584596,16.9919864 57.1154486,17.0200244 57.0710704,17.0387867 L57.0710704,17.6975755 L56.95605,17.6975755 L56.95605,17.1046656 C56.9122502,17.1215306 56.8686975,17.1537849 56.8245981,17.1704391 L56.8245981,17.6974701 L56.6931462,17.6974701 L56.6931462,17.236318 C56.648768,17.2510748 56.6063511,17.2873346 56.5616942,17.3020914 L56.5616942,17.6973647 L56.4466738,17.6973647 L56.4466738,17.3020914 C56.4017699,17.3168483 56.3603993,17.3547945 56.3152219,17.3678649 L56.3152219,17.6972593 L56.150907,17.6972593 L56.150907,17.4337438 C56.1083166,17.4442844 56.0622979,17.4891875 56.0194551,17.4995173 L56.0194551,17.6970485 L55.9044347,17.6970485 L55.9044347,17.4995173 C55.861634,17.5100579 55.8160096,17.4910848 55.7729828,17.4995173 L55.7729828,17.6970485 L55.6415309,17.6970485 L55.6415309,17.5652907 C55.5982569,17.5737232 55.5535791,17.5568583 55.510079,17.5652907 L55.510079,17.6970485 L55.3950586,17.6970485 L55.3950586,17.5652907 C55.3511011,17.5716151 55.3078166,17.6251615 55.2636067,17.6310642 L55.2636067,17.6968377 L55.0992918,17.6968377 L55.0992918,17.6310642 C55.0556497,17.6352805 55.011687,17.626848 54.9678399,17.6310642 L54.9678399,17.6968377 L54.8528195,17.6968377 L54.8528195,17.6310642 C54.8087568,17.6352805 54.76563,17.6289561 54.7213675,17.6310642 L54.7213675,17.6968377 L54.5899156,17.6968377 L54.5899156,17.6310642 C54.5454323,17.6331302 54.5031732,17.6297361 54.4584637,17.6310642 L54.4584637,17.6968377 L54.3434433,17.6968377 L54.3434433,17.6310642 C54.2985393,17.6317599 54.2571162,17.6311064 54.2119914,17.6310642 C54.2399644,17.6394967 54.2666438,17.6812376 54.2941488,17.6968377 L54.2941488,18.0262321 L55.2636067,18.0262321 C55.3075642,18.040989 55.3511852,18.0766163 55.3950586,18.0920056 L55.3950586,18.0262321 L55.510079,18.0262321 L55.510079,18.0920056 C55.5538788,18.1067625 55.5978468,18.1421789 55.6415309,18.1577791 L55.6415309,18.0260213 L55.7729828,18.0260213 L55.7729828,18.2235525 C55.8160464,18.2383094 55.8614657,18.2066875 55.9044347,18.2235525 L55.9044347,18.0260213 L56.0194551,18.0260213 L56.0194551,18.2895368 C56.0647797,18.3064018 56.1057559,18.3380237 56.150907,18.3553103 L56.150907,18.0259159 L56.3152219,18.0259159 L56.3152219,18.4211892 C56.3601785,18.4380542 56.4018908,18.4688328 56.4466738,18.4869627 L56.4466738,18.0258105 L56.5616942,18.0258105 L56.5616942,18.5528415 C56.6063353,18.5718147 56.6487102,18.5998527 56.6931462,18.618615 L56.6931462,18.0257051 L56.8245981,18.0257051 L56.8245981,18.6844939 C56.8688185,18.703467 56.9120241,18.7308726 56.95605,18.7502674 L56.95605,18.0255997 L57.0710704,18.0255997 L57.0710704,18.7502674 C57.1149227,18.7692405 57.1589066,18.7958029 57.2025223,18.8160408 L57.2025223,18.0254943 L57.3668372,18.0254943 L57.3668372,18.8819197 C57.4101637,18.903001 57.4552202,18.9264011 57.4982891,18.9476932 L57.4982891,18.0253889 L57.6133095,18.0253889 L57.6133095,19.0135721 C57.6561628,19.0352858 57.7021815,19.0572103 57.7447614,19.0793456 L57.7447614,18.0252835 L57.8762133,18.0252835 L57.8762133,19.1452244 C57.9200131,19.1688354 57.9641494,19.1869653 58.0076652,19.2109979 L58.0076652,18.025178 L58.1226856,18.025178 L58.1226856,19.2768768 C58.165907,19.3015419 58.2112264,19.3175636 58.2541376,19.3426503 L58.2541376,18.0250726 L58.4184524,18.0250726 L58.4184524,19.474408 C58.4609377,19.500338 58.5077714,19.5136191 58.5499043,19.5401815 L58.5499043,18.0249672 L58.6649248,18.0249672 L58.6649248,19.6060604 C58.7100391,19.6355741 58.7517198,19.6416877 58.7963767,19.6718339 L58.7963767,18.0248618 L58.9278286,18.0248618 L58.9278286,19.8035916 C58.972049,19.8347919 59.0155385,19.8375324 59.0592805,19.8693651 L59.0592805,18.0247564 L59.1743009,18.0247564 L59.1743009,19.935244 C59.2176275,19.9679199 59.26291,19.9674983 59.3057528,20.0010175 L59.3057528,18.024651 L59.4700677,18.024651 L59.4700677,20.1986541 C59.513552,20.2344922 59.5585927,20.2277462 59.6015196,20.2644276 L59.6015196,18.0245456 L59.71654,18.0245456 L59.71654,20.3961853 C59.7601295,20.4349748 59.8050387,20.4878888 59.8479919,20.5279431 L59.8479919,18.0245456 L59.9794438,18.0245456 L59.9794438,20.593822 C60.022192,20.635352 60.0687838,20.6827848 60.1108957,20.7255798 L60.1108957,18.0245456 L60.2259162,18.0245456 L60.2259162,20.8573375 C60.2727656,20.9068784 60.3113704,21.0038522 60.3573681,21.0548688 L60.3573681,18.0244402 L60.521683,18.0244402 L60.521683,21.2525054 C60.5650621,21.3039436 60.6106233,21.3311384 60.6531349,21.3842632 L60.6531349,18.0244402 L60.7681553,18.0244402 L60.7681553,21.5160209 C60.8111663,21.5075884 60.8563963,21.5244534 60.8996072,21.5160209 L60.8996072,18.0244402 L61.0310591,18.0244402 L61.0310591,21.450142 C61.0744382,21.4417096 61.1190215,21.4585745 61.162511,21.450142 L61.162511,18.0244402 L61.2775314,18.0244402 L61.2775314,21.450142 C61.3213838,21.4417096 61.3650679,21.3913254 61.4089833,21.3843686 L61.4089833,18.0245456 L61.5732982,18.0245456 L61.5732982,21.3843686 C61.6173083,21.3780442 61.6607295,21.3251303 61.7047501,21.3185951 L61.7047501,18.024651 L61.8197705,18.024651 L61.8197705,21.3185951 C61.8635703,21.3122707 61.907449,21.3249195 61.9512224,21.3185951 L61.9512224,18.024651 L62.0826744,18.024651 L62.0826744,21.2527162 C62.1264215,21.2463918 62.1704474,21.2590406 62.2141263,21.2527162 L62.2141263,18.024651 L62.3291467,18.024651 L62.3291467,21.2527162 C62.3739981,21.2442837 62.4158313,21.1947428 62.4605986,21.1869427 L62.4605986,18.0247564 L62.6249135,18.0247564 L62.6249135,21.1869427 C62.669502,21.1785102 62.7119294,21.1302342 62.7563654,21.1211693 L62.7563654,18.0248618 L62.8713858,18.0248618 L62.8713858,21.1211693 C62.9156588,21.1106286 62.958775,21.0659364 63.0028377,21.0553958 L63.0028377,18.0249672 L63.1342896,18.0249672 L63.1342896,21.0553958 C63.1780894,21.0448552 63.2221784,21.0018494 63.2657415,20.9896223 L63.2657415,18.0250726 L63.3807619,18.0250726 L63.3807619,20.9896223 C63.4240885,20.9769736 63.4692028,20.9381841 63.5122138,20.9238488 L63.5122138,18.025178 L63.6765287,18.025178 L63.6765287,20.9238488 C63.7215379,20.9069838 63.7633606,20.876416 63.8079806,20.8580754 L63.8079806,18.0252835 L63.9230011,18.0252835 L63.9230011,20.7921965 C63.9672215,20.7711152 64.0106795,20.7479259 64.054453,20.726423 L64.054453,18.0253889 L64.1859049,18.0253889 L64.1859049,20.6605441 C64.2291788,20.6369331 64.2746034,20.6200681 64.3173568,20.5947706 L64.3173568,18.0254943 L64.4323772,18.0254943 L64.4323772,20.5288918 C64.4773337,20.4997997 64.5195403,20.4287559 64.5638291,20.397134 L64.5638291,18.0254943 L64.728144,18.0254943 L64.728144,20.3312551 C64.7715757,20.2964711 64.8168951,20.237022 64.8595959,20.1994974 L64.8595959,18.0254943 L64.9746163,18.0254943 L64.9746163,20.1336185 C65.0219916,20.0885046 65.0597341,19.9847849 65.1060682,19.9360872 L65.1060682,18.0255997 L65.2375201,18.0255997 L65.2375201,19.8043295 C65.2813725,19.7533129 65.3261923,19.7275938 65.368972,19.6725717 L65.368972,18.0255997 L65.4839925,18.0255997 L65.4839925,19.5408139 C65.5288438,19.4779918 65.5719233,19.4109535 65.6154444,19.3432827 L65.6154444,18.0257051 L65.7797592,18.0257051 L65.7797592,19.0138883 C65.8243477,18.9339904 65.8682842,18.8363842 65.9112112,18.7503728 L65.9112112,18.0257051 L66.0262316,18.0257051 L66.0262316,18.4868572 C66.030438,18.4784248 66.0385355,18.4952897 66.0426368,18.4868572 C66.0833869,18.4952897 66.1177431,18.5420901 66.1576572,18.5526307 L66.1576572,18.0255997 L66.2891091,18.0255997 L66.2891091,18.6185096 C66.3335398,18.6332665 66.3772187,18.6680505 66.420561,18.6842831 L66.420561,18.0254943 L66.5355814,18.0254943 L66.5355814,18.6842831 C66.5779615,18.7032562 66.6257679,18.7298186 66.6670333,18.7500566 L66.6670333,18.0253889 L66.8313482,18.0253889 L66.8313482,18.8818143 C66.8778822,18.9087983 66.9178541,18.9176524 66.9628001,18.9475878 L66.9628001,18.0252835 L67.0778205,18.0252835 L67.0778205,19.0134667 C67.1223564,19.046775 67.1664086,19.1087539 67.2092724,19.1452244 L67.2092724,18.0252835 L67.3407244,18.0252835 L67.3407244,19.2111033 C67.3857861,19.2545307 67.4291757,19.2956391 67.4721763,19.3428611 L67.4721763,18.0252835 L67.5871967,18.0252835 L67.5871967,19.5404977 C67.6316274,19.5959414 67.6766891,19.6119631 67.7186486,19.6722555 L67.7186486,18.0252835 L67.8829635,18.0252835 L67.8829635,19.8698921 C67.9282355,19.9472603 67.9725664,20.0495043 68.0144154,20.1334077 L68.0144154,18.0252835 L68.1294358,18.0252835 L68.1294358,20.3969232 C68.1768111,20.5073889 68.2188599,20.6058383 68.2608877,20.7263176 L68.2608877,18.0252835 L68.3923396,18.0252835 L68.3923396,20.7921965 C68.4387684,20.7641584 68.4792083,20.7578341 68.5237915,20.726423 L68.5237915,18.0253889 L68.6388119,18.0253889 L68.6388119,20.5946652 C68.6817178,20.5598812 68.7291825,20.5670488 68.7702638,20.5288918 L68.7702638,18.0254943 L68.9345787,18.0254943 L68.9345787,20.397134 C68.9830582,20.3437985 69.0203274,20.2579978 69.0660306,20.1996028 L69.0660306,18.0255997 L69.1810511,18.0255997 L69.1810511,20.0019661 C69.2242724,19.9387224 69.272,19.8727381 69.312503,19.8044349 L69.312503,18.0257051 L69.4439549,18.0257051 L69.4439549,19.6067982 C69.4933282,19.5100353 69.530608,19.3827679 69.5754068,19.2774038 L69.5754068,18.0257051 L69.6904272,18.0257051 L69.6904272,19.0138883 C69.7354363,18.8901414 69.7822069,18.7524177 69.8218791,18.618615 L69.8218791,18.0257051 L69.920468,18.0257051 L69.920468,17.6963107 L69.8218791,17.6963107 L69.8218791,16.6422486 C69.7825487,16.4957339 69.734227,16.3835606 69.6904272,16.2469753 L69.6904272,17.6963107 L69.5754068,17.6963107 L69.5754068,15.9175809 C69.5291883,15.793834 69.4948688,15.6355771 69.4439549,15.5223076 L69.4439549,17.6963107 L69.312503,17.6963107 L69.312503,15.3246709 C69.2712796,15.2449838 69.2252031,15.1343073 69.1810511,15.0611554 L69.1810511,17.6963107 L69.0660306,17.6963107 L69.0660306,14.8635188 C69.0230722,14.8015399 68.9802188,14.7220636 68.9345787,14.6659875 L68.9345787,17.6964161 L68.7702638,17.6964161 L68.7702638,14.5342298 C68.7263589,14.4897483 68.6850041,14.4418939 68.6388119,14.402472 L68.6388119,17.6964161 L68.5237915,17.6964161 L68.5237915,14.2707142 C68.4939782,14.2492114 68.4723675,14.2243355 68.4416341,14.2049408 C68.425965,14.2304491 68.408035,14.2454167 68.3923659,14.2707142 L68.3923659,17.6964161 L68.260914,17.6964161 L68.260914,14.4683509 C68.2181658,14.5353892 68.1725257,14.6009519 68.1294621,14.6658821 L68.1294621,17.6963107 L68.0144417,17.6963107 L68.0144417,14.8635188 C67.9710625,14.9263409 67.9267948,15.0011793 67.8829898,15.06105 L67.8829898,17.6962053 L67.7186749,17.6962053 L67.7186749,15.2586866 C67.6758741,15.3128654 67.6305548,15.3396386 67.587223,15.3904444 L67.587223,17.6962053 L67.4722026,17.6962053 L67.4722026,15.5222022 C67.4268779,15.5713215 67.3867062,15.6750412 67.3407506,15.7197334 L67.3407506,17.6960999 L67.2092987,17.6960999 L67.2092987,15.8514912 C67.1661299,15.8885942 67.1216676,15.8845887 67.0778468,15.9172646 L67.0778468,17.6959945 L66.9628264,17.6959945 L66.9628264,15.9831435 C66.9189741,16.0116032 66.8759577,16.0255168 66.8313745,16.048917 L66.8313745,17.695889 L66.6670596,17.695889 L66.6670596,16.1147959 C66.6228392,16.1316609 66.5805853,16.1689747 66.5356077,16.1805694 L66.5356077,17.6957836 L66.4205873,17.6957836 L66.4205873,16.1805694 C66.3769978,16.1868937 66.3335188,16.2446563 66.2891354,16.2463428 L66.2891354,17.6956782 L66.1576835,17.6956782 L66.1576835,16.2463428 C66.114725,16.2421266 66.0699788,16.2547753 66.0262316,16.2463428 L66.0262316,17.6956782 L65.9112112,17.6956782 L65.9112112,16.180464 C65.8723014,16.1699233 65.8357052,16.1952208 65.7961907,16.180464 C65.7900388,16.163599 65.7859375,16.1307122 65.7797855,16.1146905 L65.7797855,17.6957836 L65.6154707,17.6957836 L65.6154707,15.7852961 C65.5731431,15.6904305 65.5275504,15.6086353 65.4840187,15.5217805 L65.4840187,17.6957836 L65.3689983,17.6957836 L65.3689983,15.258265 C65.3248305,15.1792104 65.2828185,15.0666365 65.2375464,14.9947495 L65.2375464,17.6957836 L65.1060945,17.6957836 L65.1060945,14.8629917 C65.0625051,14.8010129 65.0191207,14.7215366 64.9746426,14.6654605 L64.9746426,17.695889 L64.8596222,17.695889 L64.8596222,14.4678238 C64.8166111,14.4189154 64.7718807,14.3801259 64.7281703,14.3360661 L64.7281703,17.695889 L64.5638554,17.695889 L64.5638554,14.2043083 C64.5198453,14.1659405 64.477013,14.106913 64.4324035,14.0725506 L64.4324035,17.695889 L64.3173831,17.695889 L64.3173831,14.0066717 C64.2738462,13.9765255 64.2299623,13.9676714 64.1859312,13.9408982 L64.1859312,17.6959945 L64.0544793,17.6959945 L64.0544793,13.8750193 C64.0113104,13.85183 63.966601,13.8296946 63.9230273,13.8092458 L63.9230273,17.6960999 L63.8080069,17.6960999 L63.8080069,13.743367 C63.764102,13.7243938 63.7207754,13.693826 63.676555,13.6775935 L63.676555,17.6962053 L63.5122401,17.6962053 L63.5122401,13.6775935 C63.4687558,13.6628366 63.4245039,13.6238363 63.3807882,13.61182 L63.3807882,17.6963107 L63.2657678,17.6963107 L63.2657678,13.61182 C63.2218629,13.6012794 63.1783996,13.5555331 63.1343159,13.5460465 L63.1343159,17.6964161 L63.002864,17.6964161 L63.002864,13.5460465 C62.9586436,13.537614 62.9157745,13.4878623 62.8714121,13.4802731 L62.8714121,17.6965215 L62.7563917,17.6965215 L62.7563917,13.4802731 C62.7122238,13.4739487 62.6691549,13.4865974 62.6249398,13.4802731 L62.6249398,17.6965215 L62.4606249,17.6965215 L62.4606249,13.4143942 C62.4163519,13.4080698 62.3734197,13.4207185 62.329173,13.4143942 L62.329173,17.6965215 L62.2141526,17.6965215 L62.2141526,13.3485153 C62.1699321,13.3421909 62.126858,13.3548397 62.0827006,13.3485153 L62.0827006,17.6965215 L61.9512487,17.6965215 L61.9512487,13.2826364 C61.9071861,13.2742039 61.8637438,13.2910689 61.8197968,13.2826364 L61.8197968,17.6965215 L61.7047764,17.6965215 L61.7047764,13.2826364 C61.6606612,13.2742039 61.6172557,13.2274036 61.5733245,13.2168629 L61.5733245,17.6966269 L61.4090096,17.6966269 L61.4090096,13.2168629 C61.3653676,13.2042142 61.3209684,13.1650031 61.2775577,13.1510895 L61.2775314,13.1529868 Z M69.9862203,17.3692352 L69.9862203,17.9621451 C70.0092507,17.8533659 70.0315975,17.746737 70.0519462,17.6327507 C70.0334904,17.5321932 70.0060432,17.4666305 69.9862203,17.3692352 Z" transform="matrix(-1 0 0 1 124.264 0)"/>
      <g transform="translate(19.03 22.952)">
        <path fill="url(#samplv1-n)" d="M4.5,9 C2.01471863,9 0,6.98528137 0,4.5 C0,2.01471863 2.01471863,0 4.5,0 C6.98528137,0 9,2.01471863 9,4.5 C9,6.98528137 6.98528137,9 4.5,9 Z"/>
        <path fill="#B3B3B3" d="M7.97045101,4.50912896 C7.97045101,6.44212559 6.40344764,8.00912896 4.47045101,8.00912896 C2.53745439,8.00912896 0.970451012,6.44212559 0.970451012,4.50912896 C0.970451012,2.57613234 2.53745439,1.00912896 4.47045101,1.00912896 C6.40344764,1.00912896 7.97045101,2.57613234 7.97045101,4.50912896 Z"/>
        <path fill="url(#samplv1-o)" d="M4.0795252,6.89586812 L4.28221636,6.92056664 L4.28151059,6.92312896 L4.37451059,6.93112896 L4.37474396,6.9257717 L4.57600628,6.9257717 L4.57578963,8.00757408 C4.54080323,8.00860824 4.50568793,8.00912896 4.47045101,8.00912896 C4.29274003,8.00912896 4.11812248,7.99588444 3.94753159,7.97032865 L4.08197464,6.90015464 L4.0795252,6.89586812 Z M5.46472435,6.72163128 L5.84232985,7.73003792 C5.66417542,7.80601622 5.47843475,7.86764559 5.28655965,7.91347422 L4.97697961,6.87402728 L5.13151059,6.84112896 L5.13113103,6.83848998 L5.22451059,6.81512896 L5.22376069,6.8131791 L5.26651059,6.79912896 L5.26072682,6.78694968 L5.46472435,6.72163128 Z M3.23655043,6.52334912 L3.43419982,6.64208572 L3.43251059,6.64312896 L3.45051059,6.65412896 L3.45569366,6.64294302 L3.48851059,6.65812896 L3.48992458,6.65631288 L3.6258685,6.72163128 L3.17209943,7.7604063 C2.99163035,7.68827401 2.81857079,7.60155115 2.65437901,7.50169598 L3.23655043,6.52334912 Z M6.21396722,6.11192484 L7.0140618,6.91331379 C6.86090626,7.07529452 6.69244611,7.2226529 6.51099497,7.3530753 L5.85520591,6.43680224 L5.91951059,6.38612896 L5.91713592,6.38285332 L6.04967103,6.27654762 L6.21396722,6.11192484 Z M2.56050499,5.89000558 L2.67807811,6.0400746 L2.67551059,6.04112896 L2.69651059,6.06812896 L2.73551059,6.11012896 L2.74086542,6.11192484 L2.73851059,6.11312896 L2.87021626,6.24652157 L2.06626618,7.05273975 C1.91712597,6.91172514 1.78038171,6.75773619 1.65783928,6.59257877 L2.56050499,5.89000558 Z M6.69109772,5.29801676 L7.75061704,5.73271312 C7.67163814,5.94434863 7.57276372,6.1462868 7.45626878,6.33625264 L6.4893251,5.76169575 L6.61251059,5.49612896 L6.61551059,5.49812896 L6.64570143,5.42751048 L6.64851059,5.42912896 L6.69109772,5.29801676 Z M2.1801886,5.08489506 L2.23244332,5.22900378 L2.22551059,5.22912896 L2.25440664,5.30442612 L2.24551059,5.30612896 L2.28084018,5.38299191 L2.27751059,5.38312896 L2.33254377,5.49670716 L1.25727857,5.89900779 C1.25208832,5.88702513 1.24696315,5.87500773 1.24190348,5.86295604 L1.24151059,5.85012896 C1.23184593,5.8388204 1.22648509,5.82570165 1.22120186,5.81254337 L1.22139614,5.79372218 L1.82051059,5.52612896 L1.18695684,5.72375731 C1.18216668,5.7108128 1.17745088,5.69783224 1.17280995,5.68481612 L1.17385659,5.66447339 L1.67251059,5.46412896 L1.14691543,5.60947041 C1.14331703,5.59859582 1.13977051,5.5876976 1.13627617,5.57677605 L1.13829208,5.57313347 L1.13897248,5.54812499 L1.60851059,5.37712896 L1.11178682,5.49693936 C1.10864534,5.48624074 1.10555359,5.47552084 1.10251184,5.46477993 L1.10587783,5.45667848 L1.10655823,5.43457304 L2.17969872,5.08777316 L2.1801886,5.08489506 Z M7.97045101,4.50912896 L7.96545101,4.67512896 L7.67351059,4.67112896 L7.96445101,4.68812896 L7.96527215,4.70116417 C7.95889568,4.81908632 7.94668207,4.93545635 7.92891518,5.04999041 L6.87019261,4.91647565 L6.88451059,4.78512896 L6.89419712,4.62272656 L6.89521772,4.4867214 L7.97037691,4.48611065 C7.97042629,4.4937776 7.97045101,4.50145039 7.97045101,4.50912896 Z M1.00727426,4.04296452 L2.15630656,4.18707324 L2.14201816,4.32199656 L2.13651059,4.32012896 L2.13113857,4.40137883 L2.12851059,4.40112896 L2.12751059,4.43012896 L2.12891366,4.43097623 L2.12862789,4.61205108 L0.97191851,4.61146843 C0.970942401,4.57747449 0.970451012,4.54335911 0.970451012,4.50912896 L0.974451012,4.34212896 L0.978819932,4.28899036 C0.97773149,4.2814842 0.978080126,4.27611766 0.978440845,4.27075443 L0.981899902,4.26003491 L0.990475184,4.16623259 L0.98839316,4.16092547 L0.995925824,4.13822571 L1.00064036,4.08080327 L1.00727426,4.04296452 Z M7.8731162,3.68601836 L6.85218922,3.95319255 L6.7999345,3.81051267 L6.80151059,3.80912896 L6.77274572,3.73043639 L6.77551059,3.72912896 L6.74382192,3.66079065 L6.75151059,3.65712896 L6.69042412,3.52764317 L7.68793359,3.12924372 C7.76455729,3.30767232 7.82677288,3.49375192 7.8731162,3.68601836 Z M1.51140984,2.73867855 L2.47461129,3.27000291 L2.39622921,3.40104795 L2.39451059,3.40012896 L2.38751059,3.41212896 L2.39282041,3.41478522 L2.34651059,3.49112896 L2.34899584,3.49302442 L2.33151059,3.52712896 L2.33301325,3.52766358 L2.26769485,3.6636075 L1.2456456,3.25528586 L1.25767157,3.22310886 L1.32551059,3.08412896 C1.33029416,3.06065744 1.34371505,3.04070471 1.35695734,3.01929762 L1.38051059,2.97512896 L1.39432123,2.93473808 L1.43306858,2.86972359 L1.45370738,2.82105231 L1.51140984,2.73867855 Z M7.30016626,2.44892957 L6.41731156,3.07751775 L6.30712759,2.94616653 L6.24180919,2.88084813 L6.34751059,2.77712896 L6.23999252,2.87388764 L6.17467412,2.80856924 L6.17551059,2.80612896 L6.14666886,2.77776753 L6.8837029,1.97412176 C7.0362748,2.11941018 7.17574698,2.27833051 7.30016626,2.44892957 Z M2.40134308,1.68593225 L3.10852636,2.59432488 L2.97651059,2.69612896 L2.97831822,2.69758919 L2.8342095,2.82863423 L2.83251059,2.82712896 L2.76782967,2.88987023 L2.76651059,2.88712896 L2.74084501,2.91373186 L1.92970453,2.10191837 C2.07401819,1.94965027 2.23187384,1.81034543 2.40134308,1.68593225 Z M6.26029432,1.50076742 L5.67384529,2.4348051 L5.61651059,2.36512896 L5.5983413,2.39785938 L5.53751059,2.32512896 L5.52255154,2.35311628 L5.45723314,2.28779788 L5.70751059,1.75112896 L5.43239174,2.31670127 L5.40151059,2.28612896 L5.39393553,2.30271905 L5.32861713,2.23740065 L5.72677392,1.24136877 C5.91279185,1.31293104 6.09115435,1.39991964 6.26029432,1.50076742 Z M3.53799257,1.13470859 L3.49594612,1.13294816 C3.52587012,1.12701507 3.5590691,1.14055049 3.58948903,1.14720934 L3.63227787,1.14874704 L3.91092208,2.21270213 L3.76681336,2.26495685 L3.76551059,2.26112896 L3.68939065,2.28959414 L3.68851059,2.28812896 L3.61435614,2.32327394 L3.61151059,2.31712896 L3.52564558,2.35852546 L3.52351059,2.35312896 L3.4892714,2.37077266 L3.08556697,1.29379768 C3.09389495,1.2902059 3.10223966,1.28664553 3.11060095,1.28311672 L3.14439014,1.28371133 L3.1397649,1.27096408 C3.14749247,1.26778511 3.15523393,1.264633 3.16298915,1.26150786 L3.18208894,1.261007 L3.22894582,1.26772784 L3.2717203,1.26460556 L3.33951059,1.44212896 L3.27077461,1.22014071 C3.2840794,1.21528647 3.29742191,1.21051065 3.3108016,1.20581383 C3.32766694,1.20773302 3.34458037,1.21266141 3.3607257,1.21568404 L3.39251059,1.21412896 L3.38396269,1.18104163 C3.39551755,1.17727189 3.40709886,1.17356066 3.41870625,1.16990827 L3.42562452,1.17079578 L3.4724814,1.18119834 L3.50751059,1.18212896 L3.49870447,1.14578988 C3.51176927,1.14202189 3.52486546,1.13832797 3.53799257,1.13470859 Z M4.54745101,1.01112896 L4.47045101,1.00912896 C4.65578313,1.00912896 4.8377508,1.02353382 5.01529551,1.05128501 L4.87351118,2.1952907 L4.68851059,2.17312896 L4.62351059,2.17012896 L4.62385201,2.17167401 L4.52151059,2.16912896 L4.37484602,2.16938787 L4.37484602,1.01121099 L4.54745101,1.01112896 Z"/>
      </g>
      <g transform="translate(9 13.961)">
        <path fill="url(#samplv1-n)" d="M4.99217541,2.49608771 C4.99217541,3.87463888 3.87463888,4.99217541 2.49608771,4.99217541 C1.11753653,4.99217541 5.10702591e-14,3.87463888 5.10702591e-14,2.49608771 C5.10702591e-14,1.11753653 1.11753653,5.19584376e-14 2.49608771,5.19584376e-14 C3.87463888,5.19584376e-14 4.99217541,1.11753653 4.99217541,2.49608771 L4.99217541,2.49608771 Z"/>
        <path fill="#B3B3B3" d="M4.4845169,2.37218531 C4.4845169,3.50330429 3.5675638,4.42025739 2.43644482,4.42025739 C1.30532585,4.42025739 0.388372748,3.50330429 0.388372748,2.37218531 C0.388372748,1.24106634 1.30532585,0.324113237 2.43644482,0.324113237 C3.5675638,0.324113237 4.4845169,1.24106634 4.4845169,2.37218531 Z"/>
        <path fill="url(#samplv1-p)" d="M2.12135678,4.3927429 L2.2042295,3.72874054 L2.38697312,3.74724328 L2.49214076,3.74917295 L2.49214076,4.41831914 L2.37395528,4.41831914 L2.37297312,4.41624328 L2.34088784,4.41617588 L2.33997312,4.41424328 L2.25870912,4.41033804 L2.12135678,4.3927429 Z M3.00368589,3.63098747 L3.23985273,4.26077932 L3.16106241,4.30017448 L3.15997312,4.29624328 L3.12893392,4.31119696 L3.08894033,4.32237226 L3.08894033,4.32237226 L3.05147038,4.33675278 L3.04897312,4.33024328 L2.98519262,4.35569512 L2.95058867,4.36296301 L2.95058867,4.36296301 L2.91726148,4.3728412 L2.72171452,3.71383978 L2.86397312,3.67824328 L2.86394534,3.67691447 L3.00368589,3.63098747 Z M1.71595404,3.50910742 L1.75397312,3.53424328 L1.75506344,3.53345894 L1.84097312,3.58224328 L1.8421002,3.58118219 L1.94105758,3.63096706 L1.66551599,4.26075891 L1.56197312,4.20924328 L1.54082062,4.20238878 L1.54082062,4.20238878 L1.50097312,4.17924328 L1.47997006,4.17089568 L1.47997006,4.17089568 L1.43897312,4.14524328 L1.40099688,4.12507524 L1.40099688,4.12507524 L1.36466352,4.099994 L1.71595404,3.50910742 Z M3.43670606,3.27685968 L3.90903974,3.74919336 L3.83024942,3.86717472 L3.82497312,3.86124328 L3.80530595,3.88944422 L3.79314197,3.87674415 L3.7707236,3.91184513 L3.7707236,3.91184513 L3.74382501,3.942148 L3.73397312,3.93124328 L3.69036598,3.98491114 L3.68097312,3.97324328 L3.63490658,4.02587802 L3.22946302,3.45971038 L3.32697312,3.38124328 L3.43670606,3.27685968 Z M1.32522754,3.14232419 L1.39360774,3.23009579 L1.39197312,3.23024328 L1.49178946,3.33915711 L1.50805782,3.35548671 L1.03572414,3.82782039 L0.996328984,3.82782039 C0.990244638,3.82173604 0.985900713,3.8135548 0.982201718,3.80457379 L0.972242824,3.80289734 L0.94397312,3.74324328 L0.916620124,3.74300853 L0.905626348,3.72492477 L0.905626348,3.72492477 L0.89397312,3.69224328 L0.871325896,3.69077422 L0.861123085,3.67235877 L0.861123085,3.67235877 L0.84997312,3.63824328 L0.827501332,3.63633542 C0.818928292,3.6259253 0.815662372,3.6106163 0.812498512,3.59520524 L0.798108052,3.5534627 L1.32522754,3.14232419 Z M3.71224764,2.80432188 L4.38139383,3.07984306 L4.36528632,3.11076759 C4.35900959,3.13852278 4.34069541,3.15872849 4.32303108,3.17954614 L4.33854904,3.18718977 C4.32884459,3.20942913 4.31333288,3.22691254 4.29741876,3.24412752 L4.30997224,3.25028326 C4.29946006,3.27222616 4.28318149,3.28927018 4.26654571,3.30611008 L4.27892559,3.31282563 C4.26395679,3.34167459 4.23900879,3.36136083 4.21654047,3.38355699 L4.18625511,3.42019275 L3.59536853,3.06892264 L3.68697312,2.87424328 L3.71224764,2.80432188 Z M1.10602307,2.67942086 L1.13541635,2.76229358 L1.13097312,2.76324328 L1.14819426,2.80691421 L1.14497312,2.80724328 L1.16431974,2.85014682 L1.15997312,2.85024328 L1.18420103,2.90099312 L1.18197312,2.90124328 L1.19310066,2.92248695 L0.563329228,3.15865379 L0.56297312,3.12124328 L0.550551316,3.12662736 L0.548931432,3.11694123 L0.548931432,3.11694123 L0.551224912,3.0872322 L0.89197312,2.93424328 L0.52221946,3.05038854 L0.52426066,3.0111975 L0.78397312,2.90624328 L0.499745848,2.98551921 L0.503828248,2.94632817 L0.77197312,2.84924328 L0.481272988,2.91885362 L0.480762688,2.90914516 L0.485355388,2.8798667 L1.10602307,2.67942086 Z M3.83041271,2.3319882 L4.4995589,2.3319882 L4.49868118,2.44437668 L4.44697312,2.44324328 L4.49849747,2.44717312 L4.48863848,2.59438446 L4.48247405,2.62461464 L4.48247405,2.62461464 L4.47839165,2.66360156 L3.81438929,2.58072884 L3.82833069,2.45578698 L3.83041271,2.3319882 Z M0.426446356,2.07918558 L1.09248992,2.16185418 L1.08228392,2.24003214 L1.07997312,2.23924328 L1.07542548,2.33245768 L1.0751193,2.41077852 L0.40597312,2.41077852 L0.406871248,2.29822676 L0.48197312,2.29824328 L0.407361136,2.29469548 L0.41697312,2.14724328 L0.422363956,2.1181725 L0.426446356,2.07918558 Z M3.71232929,1.78092544 L4.30274639,1.5447586 L4.34214155,1.58415376 L4.34197312,1.60224328 L4.35491946,1.61609854 L4.35655115,1.62535411 L4.35426628,1.6554937 L4.38337379,1.69158212 L4.38337379,1.69158212 L4.38097312,1.72824328 L4.40560246,1.7570434 L4.40611276,1.76635319 L4.40097312,1.79424328 L4.42411614,1.82364776 L4.42003374,1.86263468 L3.80493854,2.0240936 L3.77554526,1.94122088 L3.77697312,1.93924328 L3.74497312,1.85124328 L3.71232929,1.78092544 Z M0.719052376,1.32232904 L1.27574885,1.62967252 L1.24897312,1.66824328 L1.25131569,1.67000663 L1.22597312,1.70924328 L1.22849507,1.71052445 L1.19997312,1.75924328 L1.20322502,1.76041138 L1.15380756,1.85971576 L0.563390464,1.62354892 L0.5762092,1.59242062 L0.61297312,1.51924328 L0.619357855,1.49830787 L0.619357855,1.49830787 L0.64197312,1.45824328 L0.649636462,1.4375466 L0.649636462,1.4375466 L0.67397312,1.39724328 L0.682171162,1.37684211 L0.682171162,1.37684211 L0.719052376,1.32232904 Z M3.39743337,1.3479461 L3.83037189,0.875592004 L3.95029749,0.996380014 L3.95029749,0.996380014 L3.95797312,1.00624328 L3.95919202,1.00531026 L4.00297312,1.05724328 L4.02216016,1.0789899 L4.02216016,1.0789899 L4.0731318,1.14517329 L3.55089078,1.51642674 L3.45315813,1.4042628 L3.39743337,1.3479461 Z M1.2314344,0.71184694 L1.64175642,1.23894602 L1.57997312,1.28624328 L1.51897312,1.33824328 L1.42930833,1.42673642 L0.956974648,0.954402736 L1.08037539,0.834354661 L1.17585252,0.754385548 L1.2314344,0.71184694 Z M2.92509969,1.03302976 L3.1612257,0.44261266 L3.2325443,0.474622755 L3.2325443,0.474622755 L3.26497312,0.492243284 L3.26891942,0.485518684 L3.32797312,0.518243284 L3.35018236,0.525137621 L3.35018236,0.525137621 L3.39097312,0.550243284 L3.41237944,0.556672133 L3.41237944,0.556672133 L3.46752818,0.59366146 L3.12111612,1.14547947 L3.08897312,1.10524328 L3.07910823,1.12351616 L3.04697312,1.08424328 L3.03697786,1.10312457 L2.99982802,1.06168821 L3.09697312,0.852243284 L2.98613157,1.0810592 L2.96897312,1.06224328 L2.96449485,1.07242492 L2.92509969,1.03302976 Z M1.86600266,0.39372592 L1.94418062,0.40393192 L2.10563954,1.01900672 L2.0225627,1.0484 L2.02097312,1.04624328 L1.93430121,1.08026313 L1.93297312,1.07824328 L1.86234891,1.11177926 L1.62618207,0.481966996 C1.63625722,0.477387381 1.64855173,0.478561641 1.66111074,0.480510462 L1.65775943,0.469087024 L1.73654975,0.470352568 L1.77997312,0.586243284 L1.73405949,0.438489436 L1.80697312,0.442243284 L1.79997312,0.416243284 L1.87297312,0.422243284 L1.86600266,0.39372592 Z M2.37405734,0.993573364 L2.37405734,0.32442718 L2.52904017,0.324958998 L2.52904017,0.324958998 L2.67578752,0.335817076 L2.74475967,0.344696296 L2.66188695,1.00869866 L2.55397312,0.996243284 L2.37405734,0.993573364 Z" opacity=".5"/>
      </g>
      <g transform="translate(15 13.961)">
        <path fill="url(#samplv1-n)" d="M4.99217541,2.49608771 C4.99217541,3.87463888 3.87463888,4.99217541 2.49608771,4.99217541 C1.11753653,4.99217541 5.10702591e-14,3.87463888 5.10702591e-14,2.49608771 C5.10702591e-14,1.11753653 1.11753653,5.19584376e-14 2.49608771,5.19584376e-14 C3.87463888,5.19584376e-14 4.99217541,1.11753653 4.99217541,2.49608771 L4.99217541,2.49608771 Z"/>
        <path fill="#B3B3B3" d="M4.4845169,2.37218531 C4.4845169,3.50330429 3.5675638,4.42025739 2.43644482,4.42025739 C1.30532585,4.42025739 0.388372748,3.50330429 0.388372748,2.37218531 C0.388372748,1.24106634 1.30532585,0.324113237 2.43644482,0.324113237 C3.5675638,0.324113237 4.4845169,1.24106634 4.4845169,2.37218531 Z"/>
        <path fill="url(#samplv1-p)" d="M2.12135678,4.3927429 L2.2042295,3.72874054 L2.38697312,3.74724328 L2.49214076,3.74917295 L2.49214076,4.41831914 L2.37395528,4.41831914 L2.37297312,4.41624328 L2.34088784,4.41617588 L2.33997312,4.41424328 L2.25870912,4.41033804 L2.12135678,4.3927429 Z M3.00368589,3.63098747 L3.23985273,4.26077932 L3.16106241,4.30017448 L3.15997312,4.29624328 L3.12893392,4.31119696 L3.08894033,4.32237226 L3.08894033,4.32237226 L3.05147038,4.33675278 L3.04897312,4.33024328 L2.98519262,4.35569512 L2.95058867,4.36296301 L2.95058867,4.36296301 L2.91726148,4.3728412 L2.72171452,3.71383978 L2.86397312,3.67824328 L2.86394534,3.67691447 L3.00368589,3.63098747 Z M1.71595404,3.50910742 L1.75397312,3.53424328 L1.75506344,3.53345894 L1.84097312,3.58224328 L1.8421002,3.58118219 L1.94105758,3.63096706 L1.66551599,4.26075891 L1.56197312,4.20924328 L1.54082062,4.20238878 L1.54082062,4.20238878 L1.50097312,4.17924328 L1.47997006,4.17089568 L1.47997006,4.17089568 L1.43897312,4.14524328 L1.40099688,4.12507524 L1.40099688,4.12507524 L1.36466352,4.099994 L1.71595404,3.50910742 Z M3.43670606,3.27685968 L3.90903974,3.74919336 L3.83024942,3.86717472 L3.82497312,3.86124328 L3.80530595,3.88944422 L3.79314197,3.87674415 L3.7707236,3.91184513 L3.7707236,3.91184513 L3.74382501,3.942148 L3.73397312,3.93124328 L3.69036598,3.98491114 L3.68097312,3.97324328 L3.63490658,4.02587802 L3.22946302,3.45971038 L3.32697312,3.38124328 L3.43670606,3.27685968 Z M1.32522754,3.14232419 L1.39360774,3.23009579 L1.39197312,3.23024328 L1.49178946,3.33915711 L1.50805782,3.35548671 L1.03572414,3.82782039 L0.996328984,3.82782039 C0.990244638,3.82173604 0.985900713,3.8135548 0.982201718,3.80457379 L0.972242824,3.80289734 L0.94397312,3.74324328 L0.916620124,3.74300853 L0.905626348,3.72492477 L0.905626348,3.72492477 L0.89397312,3.69224328 L0.871325896,3.69077422 L0.861123085,3.67235877 L0.861123085,3.67235877 L0.84997312,3.63824328 L0.827501332,3.63633542 C0.818928292,3.6259253 0.815662372,3.6106163 0.812498512,3.59520524 L0.798108052,3.5534627 L1.32522754,3.14232419 Z M3.71224764,2.80432188 L4.38139383,3.07984306 L4.36528632,3.11076759 C4.35900959,3.13852278 4.34069541,3.15872849 4.32303108,3.17954614 L4.33854904,3.18718977 C4.32884459,3.20942913 4.31333288,3.22691254 4.29741876,3.24412752 L4.30997224,3.25028326 C4.29946006,3.27222616 4.28318149,3.28927018 4.26654571,3.30611008 L4.27892559,3.31282563 C4.26395679,3.34167459 4.23900879,3.36136083 4.21654047,3.38355699 L4.18625511,3.42019275 L3.59536853,3.06892264 L3.68697312,2.87424328 L3.71224764,2.80432188 Z M1.10602307,2.67942086 L1.13541635,2.76229358 L1.13097312,2.76324328 L1.14819426,2.80691421 L1.14497312,2.80724328 L1.16431974,2.85014682 L1.15997312,2.85024328 L1.18420103,2.90099312 L1.18197312,2.90124328 L1.19310066,2.92248695 L0.563329228,3.15865379 L0.56297312,3.12124328 L0.550551316,3.12662736 L0.548931432,3.11694123 L0.548931432,3.11694123 L0.551224912,3.0872322 L0.89197312,2.93424328 L0.52221946,3.05038854 L0.52426066,3.0111975 L0.78397312,2.90624328 L0.499745848,2.98551921 L0.503828248,2.94632817 L0.77197312,2.84924328 L0.481272988,2.91885362 L0.480762688,2.90914516 L0.485355388,2.8798667 L1.10602307,2.67942086 Z M3.83041271,2.3319882 L4.4995589,2.3319882 L4.49868118,2.44437668 L4.44697312,2.44324328 L4.49849747,2.44717312 L4.48863848,2.59438446 L4.48247405,2.62461464 L4.48247405,2.62461464 L4.47839165,2.66360156 L3.81438929,2.58072884 L3.82833069,2.45578698 L3.83041271,2.3319882 Z M0.426446356,2.07918558 L1.09248992,2.16185418 L1.08228392,2.24003214 L1.07997312,2.23924328 L1.07542548,2.33245768 L1.0751193,2.41077852 L0.40597312,2.41077852 L0.406871248,2.29822676 L0.48197312,2.29824328 L0.407361136,2.29469548 L0.41697312,2.14724328 L0.422363956,2.1181725 L0.426446356,2.07918558 Z M3.71232929,1.78092544 L4.30274639,1.5447586 L4.34214155,1.58415376 L4.34197312,1.60224328 L4.35491946,1.61609854 L4.35655115,1.62535411 L4.35426628,1.6554937 L4.38337379,1.69158212 L4.38337379,1.69158212 L4.38097312,1.72824328 L4.40560246,1.7570434 L4.40611276,1.76635319 L4.40097312,1.79424328 L4.42411614,1.82364776 L4.42003374,1.86263468 L3.80493854,2.0240936 L3.77554526,1.94122088 L3.77697312,1.93924328 L3.74497312,1.85124328 L3.71232929,1.78092544 Z M0.719052376,1.32232904 L1.27574885,1.62967252 L1.24897312,1.66824328 L1.25131569,1.67000663 L1.22597312,1.70924328 L1.22849507,1.71052445 L1.19997312,1.75924328 L1.20322502,1.76041138 L1.15380756,1.85971576 L0.563390464,1.62354892 L0.5762092,1.59242062 L0.61297312,1.51924328 L0.619357855,1.49830787 L0.619357855,1.49830787 L0.64197312,1.45824328 L0.649636462,1.4375466 L0.649636462,1.4375466 L0.67397312,1.39724328 L0.682171162,1.37684211 L0.682171162,1.37684211 L0.719052376,1.32232904 Z M3.39743337,1.3479461 L3.83037189,0.875592004 L3.95029749,0.996380014 L3.95029749,0.996380014 L3.95797312,1.00624328 L3.95919202,1.00531026 L4.00297312,1.05724328 L4.02216016,1.0789899 L4.02216016,1.0789899 L4.0731318,1.14517329 L3.55089078,1.51642674 L3.45315813,1.4042628 L3.39743337,1.3479461 Z M1.2314344,0.71184694 L1.64175642,1.23894602 L1.57997312,1.28624328 L1.51897312,1.33824328 L1.42930833,1.42673642 L0.956974648,0.954402736 L1.08037539,0.834354661 L1.17585252,0.754385548 L1.2314344,0.71184694 Z M2.92509969,1.03302976 L3.1612257,0.44261266 L3.2325443,0.474622755 L3.2325443,0.474622755 L3.26497312,0.492243284 L3.26891942,0.485518684 L3.32797312,0.518243284 L3.35018236,0.525137621 L3.35018236,0.525137621 L3.39097312,0.550243284 L3.41237944,0.556672133 L3.41237944,0.556672133 L3.46752818,0.59366146 L3.12111612,1.14547947 L3.08897312,1.10524328 L3.07910823,1.12351616 L3.04697312,1.08424328 L3.03697786,1.10312457 L2.99982802,1.06168821 L3.09697312,0.852243284 L2.98613157,1.0810592 L2.96897312,1.06224328 L2.96449485,1.07242492 L2.92509969,1.03302976 Z M1.86600266,0.39372592 L1.94418062,0.40393192 L2.10563954,1.01900672 L2.0225627,1.0484 L2.02097312,1.04624328 L1.93430121,1.08026313 L1.93297312,1.07824328 L1.86234891,1.11177926 L1.62618207,0.481966996 C1.63625722,0.477387381 1.64855173,0.478561641 1.66111074,0.480510462 L1.65775943,0.469087024 L1.73654975,0.470352568 L1.77997312,0.586243284 L1.73405949,0.438489436 L1.80697312,0.442243284 L1.79997312,0.416243284 L1.87297312,0.422243284 L1.86600266,0.39372592 Z M2.37405734,0.993573364 L2.37405734,0.32442718 L2.52904017,0.324958998 L2.52904017,0.324958998 L2.67578752,0.335817076 L2.74475967,0.344696296 L2.66188695,1.00869866 L2.55397312,0.996243284 L2.37405734,0.993573364 Z" opacity=".5"/>
      </g>
      <path fill="#7DFF72" d="M61.1706474,12.9387381 L61.1706474,17.4843809 L61.0556269,17.4843809 L61.0556269,13.004617 C61.0134572,13.0748175 60.9668969,13.133845 60.924175,13.2021482 L60.924175,17.4842755 L60.7927231,17.4842755 L60.7927231,13.3997849 C60.7494492,13.4664016 60.7050605,13.5325967 60.6612712,13.5973161 L60.6612712,17.4841701 L60.5462508,17.4841701 L60.5462508,13.7949528 C60.5019778,13.8581965 60.4595872,13.9311376 60.4147989,13.992484 L60.4147989,17.4840647 L60.250484,17.4840647 L60.250484,14.1901206 C60.2068946,14.2472508 60.1630843,14.3322082 60.1190321,14.3876519 L60.1190321,17.4839593 L60.0040117,17.4839593 L60.0040117,14.5194096 C59.9610532,14.5716911 59.9159757,14.6003616 59.8725598,14.6511674 L59.8725598,17.4839593 L59.7411079,17.4839593 L59.7411079,14.8488041 C59.6972555,14.8981342 59.653971,14.9327074 59.609656,14.9805618 L59.609656,17.4839593 L59.4946355,17.4839593 L59.4946355,15.1123196 C59.4511512,15.1576442 59.4070886,15.2002284 59.3631836,15.2440773 L59.3631836,17.4839593 L59.1988687,17.4839593 L59.1988687,15.3758351 C59.154438,15.4179976 59.1122367,15.4666953 59.0674168,15.5075929 L59.0674168,17.4839593 L58.9523964,17.4839593 L58.9523964,15.6393506 C58.9072295,15.6789834 58.866532,15.7327405 58.8209445,15.7711084 L58.8209445,17.4839593 L58.6894926,17.4839593 L58.6894926,15.8369873 C58.6464815,15.8717713 58.6013988,15.9352259 58.5580407,15.968745 L58.5580407,17.4839593 L58.4430203,17.4839593 L58.4430203,16.0346239 C58.4002721,16.0664566 58.3546793,16.0698296 58.3115684,16.1003974 L58.3115684,17.4838539 L58.1472535,17.4838539 L58.1472535,16.2321552 C58.1037166,16.2614581 58.0596697,16.2696798 58.0158016,16.2979286 L58.0158016,17.4837485 L57.9007812,17.4837485 L57.9007812,16.3638075 C57.8579278,16.3903699 57.8124981,16.4042835 57.7693293,16.429581 L57.7693293,17.4836431 L57.6378773,17.4836431 L57.6378773,16.4954599 C57.5943931,16.5199141 57.5502094,16.538044 57.5064254,16.5612333 L57.5064254,17.4835377 L57.391405,17.4835377 L57.391405,16.6271122 C57.3473423,16.6496692 57.3043155,16.6715937 57.2599531,16.6928857 L57.2599531,17.4834323 L57.0956382,17.4834323 L57.0956382,16.7587646 C57.0515756,16.7777377 57.0085592,16.8057758 56.9641863,16.8245381 L56.9641863,17.4833269 L56.8491659,17.4833269 L56.8491659,16.8904169 C56.8053661,16.9072819 56.7618082,16.9395362 56.717714,16.9561904 L56.717714,17.4832215 L56.5862621,17.4832215 L56.5862621,17.0220693 C56.5418839,17.0368262 56.499467,17.0730859 56.4548102,17.0878428 L56.4548102,17.4831161 L56.3397898,17.4831161 L56.3397898,17.0878428 C56.2948858,17.1025996 56.2535152,17.1405459 56.2083379,17.1536163 L56.2083379,17.4830107 L56.044023,17.4830107 L56.044023,17.2194951 C56.0014326,17.2300358 55.9554139,17.2749388 55.9125711,17.2852686 L55.9125711,17.4827998 L55.7975506,17.4827998 L55.7975506,17.2852686 C55.7547499,17.2958092 55.7091256,17.2768361 55.6660987,17.2852686 L55.6660987,17.4827998 L55.5346468,17.4827998 L55.5346468,17.3510421 C55.4913729,17.3594746 55.446695,17.3426096 55.4031949,17.3510421 L55.4031949,17.4827998 L55.2881745,17.4827998 L55.2881745,17.3510421 C55.244217,17.3573665 55.2009325,17.4109128 55.1567226,17.4168156 L55.1567226,17.482589 L54.9924077,17.482589 L54.9924077,17.4168156 C54.9487657,17.4210318 54.9047976,17.4125993 54.8609558,17.4168156 L54.8609558,17.482589 L54.7459354,17.482589 L54.7459354,17.4168156 C54.7018727,17.4210318 54.658746,17.4147074 54.6144835,17.4168156 L54.6144835,17.482589 L54.4830316,17.482589 L54.4830316,17.4168156 C54.4385482,17.4188815 54.3962891,17.4154874 54.3515797,17.4168156 L54.3515797,17.482589 L54.2365592,17.482589 L54.2365592,17.4168156 C54.1916553,17.4175112 54.1502269,17.4168788 54.1051073,17.4168156 C54.1330803,17.4252481 54.1597598,17.4669889 54.1872648,17.482589 L54.1872648,17.8119834 L55.1567226,17.8119834 C55.2006801,17.8267403 55.2443011,17.8623676 55.2881745,17.8777569 L55.2881745,17.8119834 L55.4031949,17.8119834 L55.4031949,17.8777569 C55.4469947,17.8925138 55.4909627,17.9279303 55.5346468,17.9435304 L55.5346468,17.8117726 L55.6660987,17.8117726 L55.6660987,18.0093039 C55.7091624,18.0240607 55.7545816,17.9924389 55.7975506,18.0093039 L55.7975506,17.8117726 L55.9125711,17.8117726 L55.9125711,18.0752882 C55.9578957,18.0921532 55.9988719,18.123775 56.044023,18.1410616 L56.044023,17.8116672 L56.2083379,17.8116672 L56.2083379,18.2069405 C56.2532944,18.2238055 56.2950067,18.2545841 56.3397898,18.272714 L56.3397898,17.8115618 L56.4548102,17.8115618 L56.4548102,18.3385929 C56.4994513,18.357566 56.5418261,18.385604 56.5862621,18.4043663 L56.5862621,17.8114564 L56.717714,17.8114564 L56.717714,18.4702452 C56.7619344,18.4892183 56.8051348,18.516624 56.8491659,18.5360187 L56.8491659,17.811351 L56.9641863,17.811351 L56.9641863,18.5360187 C57.0080387,18.5549918 57.0520225,18.5815542 57.0956382,18.6017922 L57.0956382,17.8112456 L57.2599531,17.8112456 L57.2599531,18.6676711 C57.3032797,18.6887523 57.3483309,18.7121525 57.391405,18.7334445 L57.391405,17.8111402 L57.5064254,17.8111402 L57.5064254,18.7993234 C57.5492788,18.8210371 57.5952974,18.8429616 57.6378773,18.8650969 L57.6378773,17.8110348 L57.7693293,17.8110348 L57.7693293,18.9309758 C57.813129,18.9545868 57.8572653,18.9727166 57.9007812,18.9967493 L57.9007812,17.8109294 L58.0158016,17.8109294 L58.0158016,19.0626281 C58.059023,19.0872932 58.1043423,19.1033149 58.1472535,19.1284016 L58.1472535,17.810824 L58.3115684,17.810824 L58.3115684,19.2601594 C58.3540536,19.2860893 58.4008873,19.2993705 58.4430203,19.3259328 L58.4430203,17.8107186 L58.5580407,17.8107186 L58.5580407,19.3918117 C58.603155,19.4213255 58.6448358,19.427439 58.6894926,19.4575852 L58.6894926,17.8106132 L58.8209445,17.8106132 L58.8209445,19.589343 C58.8651649,19.6205432 58.9086545,19.6232838 58.9523964,19.6551164 L58.9523964,17.8105078 L59.0674168,17.8105078 L59.0674168,19.7209953 C59.1107434,19.7536713 59.1560259,19.7532496 59.1988687,19.7867688 L59.1988687,17.8104024 L59.3631836,17.8104024 L59.3631836,19.9844054 C59.4066679,20.0202436 59.4517086,20.0134976 59.4946355,20.0501789 L59.4946355,17.8102969 L59.609656,17.8102969 L59.609656,20.1819367 C59.6532454,20.2207262 59.6981546,20.2736401 59.7411079,20.3136944 L59.7411079,17.8102969 L59.8725598,17.8102969 L59.8725598,20.3795733 C59.9153079,20.4211034 59.9618997,20.4685362 60.0040117,20.5113311 L60.0040117,17.8102969 L60.1190321,17.8102969 L60.1190321,20.6430889 C60.1658816,20.6926298 60.2044864,20.7896035 60.250484,20.8406201 L60.250484,17.8101915 L60.4147989,17.8101915 L60.4147989,21.0382567 C60.458178,21.089695 60.5037393,21.1168898 60.5462508,21.1700145 L60.5462508,17.8101915 L60.6612712,17.8101915 L60.6612712,21.3017723 C60.7043349,21.2933398 60.749507,21.3102048 60.7927231,21.3017723 L60.7927231,17.8101915 L60.924175,17.8101915 L60.924175,21.2358934 C60.9675542,21.2274609 61.0121321,21.2443259 61.0556269,21.2358934 L61.0556269,17.8101915 L61.1706474,17.8101915 L61.1706474,21.2358934 C61.2144997,21.2274609 61.2581838,21.1770767 61.3020993,21.1701199 L61.3020993,17.8102969 L61.4664141,17.8102969 L61.4664141,21.1701199 C61.5104242,21.1637955 61.5538454,21.1108816 61.5978661,21.1043464 L61.5978661,17.8104024 L61.7128865,17.8104024 L61.7128865,21.1043464 C61.7566863,21.0980221 61.8005649,21.1106708 61.8443384,21.1043464 L61.8443384,17.8104024 L61.9757903,17.8104024 L61.9757903,21.0384676 C62.0195375,21.0321432 62.0635634,21.0447919 62.1072422,21.0384676 L62.1072422,17.8104024 L62.2222626,17.8104024 L62.2222626,21.0384676 C62.267114,21.0300351 62.3089473,20.9804941 62.3537145,20.9726941 L62.3537145,17.8105078 L62.5180294,17.8105078 L62.5180294,20.9726941 C62.5626179,20.9642616 62.6050453,20.9159855 62.6494813,20.9069206 L62.6494813,17.8106132 L62.7645017,17.8106132 L62.7645017,20.9069206 C62.8087747,20.89638 62.851891,20.8516877 62.8959536,20.8411471 L62.8959536,17.8107186 L63.0274055,17.8107186 L63.0274055,20.8411471 C63.0712579,20.8306065 63.115289,20.7876008 63.1588575,20.7753736 L63.1588575,17.810824 L63.2738779,17.810824 L63.2738779,20.7753736 C63.3172044,20.7627249 63.3623187,20.7239354 63.4053298,20.7096002 L63.4053298,17.8109294 L63.5696447,17.8109294 L63.5696447,20.7096002 C63.6146538,20.6927352 63.6564765,20.6621674 63.7010966,20.6438267 L63.7010966,17.8110348 L63.816117,17.8110348 L63.816117,20.5779478 C63.8603374,20.5568666 63.9037954,20.5336772 63.9475689,20.5121743 L63.9475689,17.8111402 L64.0790208,17.8111402 L64.0790208,20.4462955 C64.1222948,20.4226845 64.1677193,20.4058195 64.2104727,20.380522 L64.2104727,17.8112456 L64.3254931,17.8112456 L64.3254931,20.3146431 C64.3704497,20.285551 64.4126563,20.2145072 64.456945,20.1828853 L64.456945,17.8112456 L64.6212599,17.8112456 L64.6212599,20.1170065 C64.6646916,20.0822224 64.710011,20.0227733 64.7527118,19.9852487 L64.7527118,17.8112456 L64.8677323,17.8112456 L64.8677323,19.9193698 C64.9151075,19.874256 64.95285,19.7705362 64.9991842,19.7218386 L64.9991842,17.811351 L65.1306361,17.811351 L65.1306361,19.5900808 C65.1744884,19.5390642 65.2193083,19.5133451 65.262088,19.458323 L65.262088,17.811351 L65.3771084,17.811351 L65.3771084,19.3265653 C65.4219598,19.2637432 65.4650339,19.1967048 65.5085603,19.129034 L65.5085603,17.8114564 L65.6728752,17.8114564 L65.6728752,18.7996396 C65.7174637,18.7197417 65.7614002,18.6221356 65.8043271,18.5361241 L65.8043271,17.8114564 L65.9193475,17.8114564 L65.9193475,18.2726086 C65.923554,18.2641761 65.9316514,18.2810411 65.9357527,18.2726086 C65.9765028,18.2810411 66.0108538,18.3278414 66.0507731,18.3383821 L66.0507731,17.811351 L66.182225,17.811351 L66.182225,18.4042609 C66.2266558,18.4190178 66.2703346,18.4538019 66.3136769,18.4700344 L66.3136769,17.8112456 L66.4286974,17.8112456 L66.4286974,18.4700344 C66.4710775,18.4890075 66.5188839,18.5155699 66.5601493,18.5358079 L66.5601493,17.8111402 L66.7244642,17.8111402 L66.7244642,18.6675657 C66.7709981,18.6945496 66.81097,18.7034038 66.8559161,18.7333391 L66.8559161,17.8110348 L66.9709365,17.8110348 L66.9709365,18.799218 C67.0154724,18.8325264 67.0595245,18.8945052 67.1023884,18.9309758 L67.1023884,17.8110348 L67.2338403,17.8110348 L67.2338403,18.9968547 C67.278902,19.040282 67.3222864,19.0813904 67.3652922,19.1286124 L67.3652922,17.8110348 L67.4803126,17.8110348 L67.4803126,19.3262491 C67.5247434,19.3816927 67.5698051,19.3977145 67.6117645,19.4580068 L67.6117645,17.8110348 L67.7760794,17.8110348 L67.7760794,19.6556435 C67.821404,19.7330116 67.8656823,19.8352557 67.9075313,19.919159 L67.9075313,17.8110348 L68.0225517,17.8110348 L68.0225517,20.1826745 C68.069927,20.2931402 68.1119758,20.3915896 68.1540036,20.5120689 L68.1540036,17.8110348 L68.2854555,17.8110348 L68.2854555,20.5779478 C68.3318844,20.5499098 68.3723242,20.5435854 68.4169075,20.5121743 L68.4169075,17.8111402 L68.5319279,17.8111402 L68.5319279,20.3804166 C68.5748338,20.3456325 68.6222932,20.3528002 68.6633798,20.3146431 L68.6633798,17.8112456 L68.8276947,17.8112456 L68.8276947,20.1828853 C68.8761741,20.1295498 68.9134434,20.0437491 68.9591466,19.9853541 L68.9591466,17.811351 L69.074167,17.811351 L69.074167,19.7877175 C69.1173884,19.7244737 69.1651159,19.6584894 69.2056189,19.5901862 L69.2056189,17.8114564 L69.3370708,17.8114564 L69.3370708,19.3925496 C69.3864441,19.2957867 69.4237239,19.1685192 69.4685227,19.0631552 L69.4685227,17.8114564 L69.5835431,17.8114564 L69.5835431,18.7996396 C69.6285523,18.6758927 69.6753229,18.5381901 69.714995,18.4043663 L69.714995,17.8114564 L69.813584,17.8114564 L69.813584,17.482062 L69.714995,17.482062 L69.714995,16.4279999 C69.6756646,16.2814853 69.6273377,16.169312 69.5835431,16.0327266 L69.5835431,17.482062 L69.4685227,17.482062 L69.4685227,15.7033322 C69.4223042,15.5795853 69.3879795,15.4213284 69.3370708,15.3080589 L69.3370708,17.482062 L69.2056189,17.482062 L69.2056189,15.1104223 C69.1643956,15.0307352 69.1183191,14.9200587 69.074167,14.8469067 L69.074167,17.482062 L68.9591466,17.482062 L68.9591466,14.6492701 C68.9161881,14.5872912 68.8733348,14.507815 68.8276947,14.4517389 L68.8276947,17.4821674 L68.6633798,17.4821674 L68.6633798,14.3199811 C68.6194748,14.2754997 68.5781148,14.2276453 68.5319279,14.1882233 L68.5319279,17.4821674 L68.4169075,17.4821674 L68.4169075,14.0564656 C68.3870942,14.0349627 68.3654835,14.0100868 68.33475,13.9906921 C68.3190809,14.0162004 68.3011509,14.0311681 68.2854818,14.0564656 L68.2854818,17.4821674 L68.1540299,17.4821674 L68.1540299,14.2541022 C68.1112818,14.3211406 68.0656417,14.3867032 68.022578,14.4516335 L68.022578,17.482062 L67.9075576,17.482062 L67.9075576,14.6492701 C67.8641785,14.7120922 67.8199107,14.7869306 67.7761057,14.8468013 L67.7761057,17.4819566 L67.6117908,17.4819566 L67.6117908,15.044438 C67.5689901,15.0986168 67.5236707,15.1253899 67.4803389,15.1761957 L67.4803389,17.4819566 L67.3653185,17.4819566 L67.3653185,15.3079535 C67.3199939,15.3570728 67.2798222,15.4607925 67.2338666,15.5054847 L67.2338666,17.4818512 L67.1024147,17.4818512 L67.1024147,15.6372425 C67.0592459,15.6743455 67.0147836,15.6703401 66.9709628,15.703016 L66.9709628,17.4817458 L66.8559423,17.4817458 L66.8559423,15.7688949 C66.81209,15.7973545 66.7690737,15.8112682 66.7244904,15.8346683 L66.7244904,17.4816404 L66.5601756,17.4816404 L66.5601756,15.9005472 C66.5159551,15.9174122 66.4737012,15.954726 66.4287236,15.9663207 L66.4287236,17.481535 L66.3137032,17.481535 L66.3137032,15.9663207 C66.2701138,15.9726451 66.2266347,16.0304077 66.1822513,16.0320942 L66.1822513,17.4814296 L66.0507994,17.4814296 L66.0507994,16.0320942 C66.0078409,16.0278779 65.9630947,16.0405267 65.9193475,16.0320942 L65.9193475,17.4814296 L65.8043271,17.4814296 L65.8043271,15.9662153 C65.7654173,15.9556747 65.7288211,15.9809722 65.6893067,15.9662153 C65.6831547,15.9493503 65.6790534,15.9164636 65.6729015,15.9004418 L65.6729015,17.481535 L65.5085866,17.481535 L65.5085866,15.5710474 C65.4662591,15.4761818 65.4206663,15.3943866 65.3771347,15.3075319 L65.3771347,17.481535 L65.2621143,17.481535 L65.2621143,15.0440164 C65.2179464,14.9649617 65.1759291,14.8523879 65.1306624,14.7805008 L65.1306624,17.481535 L64.9992104,17.481535 L64.9992104,14.6487431 C64.955621,14.5867642 64.9122366,14.5072879 64.8677585,14.4512118 L64.8677585,17.4816404 L64.7527381,17.4816404 L64.7527381,14.2535752 C64.7097271,14.2046667 64.6649966,14.1658772 64.6212862,14.1218174 L64.6212862,17.4816404 L64.4569713,17.4816404 L64.4569713,13.9900597 C64.4129612,13.9516918 64.3701237,13.8926643 64.3255194,13.8583019 L64.3255194,17.4816404 L64.210499,17.4816404 L64.210499,13.792423 C64.1669621,13.7622768 64.123073,13.7534227 64.0790471,13.7266495 L64.0790471,17.4817458 L63.9475952,17.4817458 L63.9475952,13.6607707 C63.9044264,13.6375813 63.8597117,13.615446 63.8161433,13.5949972 L63.8161433,17.4818512 L63.7011229,17.4818512 L63.7011229,13.5291183 C63.6572179,13.5101452 63.6138914,13.4795774 63.569671,13.4633448 L63.569671,17.4819566 L63.4053561,17.4819566 L63.4053561,13.4633448 C63.3618718,13.448588 63.3176146,13.4095877 63.2739042,13.3975713 L63.2739042,17.482062 L63.1588837,17.482062 L63.1588837,13.3975713 C63.1149788,13.3870307 63.0715156,13.3412844 63.0274318,13.3317979 L63.0274318,17.4821674 L62.8959799,17.4821674 L62.8959799,13.3317979 C62.8517595,13.3233654 62.8088904,13.2736136 62.764528,13.2660244 L62.764528,17.4822728 L62.6495076,17.4822728 L62.6495076,13.2660244 C62.6053398,13.2597 62.5622656,13.2723488 62.5180557,13.2660244 L62.5180557,17.4822728 L62.3537408,17.4822728 L62.3537408,13.2001455 C62.3094678,13.1938211 62.2665356,13.2064699 62.2222889,13.2001455 L62.2222889,17.4822728 L62.1072685,17.4822728 L62.1072685,13.1342666 C62.0630481,13.1279423 62.0199739,13.140591 61.9758166,13.1342666 L61.9758166,17.4822728 L61.8443647,17.4822728 L61.8443647,13.0683877 C61.800302,13.0599553 61.7568598,13.0768202 61.7129128,13.0683877 L61.7129128,17.4822728 L61.5978923,17.4822728 L61.5978923,13.0683877 C61.5537771,13.0599553 61.5103664,13.0131549 61.4664404,13.0026143 L61.4664404,17.4823782 L61.3021256,17.4823782 L61.3021256,13.0026143 C61.2584835,12.9899655 61.2140843,12.9507544 61.1706736,12.9368408 L61.1706474,12.9387381 Z M69.8793362,17.1549865 L69.8793362,17.7478965 C69.9023666,17.6391173 69.924766,17.5324883 69.9450622,17.4185021 C69.9266063,17.3179445 69.8991592,17.2523819 69.8793362,17.1549865 Z" opacity=".528" transform="matrix(-1 0 0 1 124.05 0)"/>
      <path fill="url(#samplv1-q)" d="M52,14.9610743 L41.5624956,32.9610743 L36.4062473,32.9610743 L26,14.9610743 L36.4375044,14.9927507 C35.4077566,15.5644154 34.7536943,16.68383 34.6874979,18.0033095 L34.6874979,18.0033095 L38.9999897,25.7990818 L43.3125021,18.0033095 C43.2462436,16.68383 42.5922434,15.5644154 41.5624956,14.9927507 L41.5624956,14.9927507 L52,14.9610743 Z M35.6969736,13.9610743 C35.9900034,13.9610743 36.2424127,14.116791 36.2424127,14.297553 L36.2424127,14.297553 L36.2424127,14.372293 C36.2424127,14.553055 35.9900034,14.6900743 35.6969736,14.6900743 L35.6969736,14.6900743 L25.5454391,14.6900743 C25.2524093,14.6900743 25,14.553055 25,14.372293 L25,14.372293 L25,14.297553 C25,14.116791 25.2524093,13.9610743 25.5454391,13.9610743 L25.5454391,13.9610743 Z M50.4545408,13.9610743 C50.7475907,13.9610743 51,14.116791 51,14.297553 L51,14.297553 L51,14.372293 C51,14.553055 50.7475907,14.6900743 50.4545408,14.6900743 L50.4545408,14.6900743 L40.3030264,14.6900743 C40.0099966,14.6900743 39.7575673,14.553055 39.7575673,14.372293 L39.7575673,14.372293 L39.7575673,14.297553 C39.7575673,14.116791 40.0099966,13.9610743 40.3030264,13.9610743 L40.3030264,13.9610743 Z"/>
      <use fill="#000" filter="url(#samplv1-r)" xlink:href="#samplv1-s"/>
      <use fill="url(#samplv1-t)" xlink:href="#samplv1-s"/>
      <path fill="url(#samplv1-u)" d="M46.1400015,7.9628601 L52.7399995,7.9628601 C52.8620616,7.9628601 52.9791834,8.01218923 53.0654945,8.10053316 C53.1302278,8.16679111 53.1736352,8.25078824 53.1912066,8.34135349 L53.199999,8.43369437 L53.199999,30.9313632 L56.6799964,32.0982135 C56.8440659,32.1516409 56.9627385,32.2933044 56.9926448,32.462161 L56.9999938,32.5485728 L56.9999938,33.49024 C57.0001987,33.6151771 56.9518004,33.7350573 56.8654893,33.8234013 C56.800756,33.8896592 56.7186917,33.9339713 56.6302104,33.9519863 L56.5399943,33.9610743 L42.4600057,33.9610743 C42.3379436,33.9610743 42.2208218,33.9117452 42.1345107,33.8234013 C42.0697774,33.7571433 42.02637,33.6731462 42.008796,33.5825809 L41.9999938,33.49024 L41.9999938,32.5485728 C41.9991129,32.3723474 42.0942202,32.2131414 42.2419527,32.1319976 L42.3200036,32.0982135 L45.800001,30.9313632 L45.800001,14.5750055 L43.6800055,14.5750055 C43.5579433,14.5752152 43.4408216,14.525677 43.3545105,14.4373331 C43.2897772,14.3710752 43.2463698,14.287078 43.2287984,14.1965128 L43.220006,14.1041719 L43.220006,11.033513 C43.2187299,10.7885171 43.4015187,10.5836048 43.6400058,10.5626793 C44.7835323,10.4428637 45.5956993,9.488983 45.7767093,8.52452846 L45.800001,8.37227835 C45.8184406,8.17641732 45.9541171,8.01304005 46.1400015,7.9628601 Z M46.701,8.961 L46.6824323,9.03548858 C46.3562432,10.1635089 45.459868,11.1131611 44.2969877,11.4479649 L44.22,11.467 L44.22,13.575 L46.800001,13.5750055 L46.800001,31.6507779 L42.999,32.925 L42.999,32.961 L56,32.961 L56,32.924 L52.199999,31.6507779 L52.2,8.962 L46.701,8.961 Z"/>
      <path fill="url(#samplv1-v)" d="M12.0171874,29.9610743 L12.0171874,31.9519454 L9,31.9519454 L9,29.9610743 L12.0171874,29.9610743 Z M16.042097,29.9610743 L16.042097,31.9519454 L13,31.9519454 L13,29.9610743 L16.042097,29.9610743 Z M12.0171874,25.9610743 L12.0171874,27.9697493 L9,27.9697493 L9,25.9610743 L12.0171874,25.9610743 Z M16.042097,25.9610743 L16.042097,27.9697493 L13,27.9697493 L13,25.9610743 L16.042097,25.9610743 Z M58,25.9610743 L58,27.9697493 L55,27.9697493 L55,25.9610743 L58,25.9610743 Z M62.0250848,25.9610743 L62.0250848,27.9697493 L59,27.9697493 L59,25.9610743 L62.0250848,25.9610743 Z M70,25.9610743 L70,27.9697493 L67,27.9697493 L67,25.9610743 L70,25.9610743 Z M66,25.9610743 L66,27.9697493 L63,27.9697493 L63,25.9610743 L66,25.9610743 Z M12.0171874,21.9610743 L12.0171874,23.9610743 L9,23.9610743 L9,21.9610743 L12.0171874,21.9610743 Z M16.042097,21.9610743 L16.042097,23.9610743 L13,23.9610743 L13,21.9610743 L16.042097,21.9610743 Z M16.042097,8.96107432 L16.042097,10.9610743 L13,10.9610743 L13,8.96107432 L16.042097,8.96107432 Z M12.0171874,8.96107432 L12.0171874,10.9610743 L9,10.9610743 L9,8.96107432 L12.0171874,8.96107432 Z"/>
    </g>
    <ellipse cx="23" cy="83" fill="url(#samplv1-w)" rx="4" ry="2"/>
    <path fill="url(#samplv1-x)" d="M17.118034,82 L28.881966,82 C29.2635854,82 29.572949,82.3093636 29.572949,82.690983 C29.572949,82.7982547 29.5479734,82.9040533 29.5,83 C29.193567,83.6128661 28.5671711,84 27.881966,84 L18.118034,84 C17.4328289,84 16.806433,83.6128661 16.5,83 C16.3293346,82.6586693 16.4676862,82.2436144 16.809017,82.072949 C16.9049637,82.0249756 17.0107623,82 17.118034,82 Z"/>
    <path stroke="url(#samplv1-y)" d="M23,80.5 C24.5253272,80.5 25.8560588,80.9102131 26.6404579,81.499843 L26.6404579,81.499843 L28.881966,81.5 C29.2108469,81.5 29.5085926,81.6333053 29.7241182,81.8488308 C29.9396437,82.0643564 30.072949,82.3621021 30.072949,82.690983 C29.8140444,83.4189711 29.5176111,83.8013847 29.1844765,84.0592695 C28.7943638,84.361262 28.348902,84.5 27.8823325,84.4999999 L27.8823325,84.4999999 L26.639464,84.5009109 C25.8549675,85.0901427 24.5246878,85.5 23,85.5 C21.4753122,85.5 20.1450325,85.0901427 19.360536,84.5009108 L19.360536,84.5009108 L18.118034,84.5 C17.6807384,84.5 17.2622088,84.3764662 16.9041119,84.1551502 C16.546015,83.9338341 16.2483509,83.6147358 16.0527864,83.2236068 C15.9057064,82.9294468 15.8917824,82.603519 15.9881683,82.3143611 C16.0965885,81.9891005 16.3445838,81.7103649 16.699638,81.5757027 L16.699638,81.5757027 L19.3533205,81.5045322 C20.136893,80.9123891 21.4706326,80.5 23,80.5 Z"/>
  </g>
</svg>
