<?xml version="1.0" encoding="UTF-8"?>
<svg width="96px" height="96px" viewBox="0 0 96 96" version="1.1" xmlns="http://www.w3.org/2000/svg" xmlns:xlink="http://www.w3.org/1999/xlink">
    <!-- Generator: Sketch 62 (91390) - https://sketch.com -->
    <title>scratch_scratch</title>
    <desc>Created with Sketch.</desc>
    <defs>
        <filter x="-13.6%" y="-17.9%" width="127.3%" height="135.8%" filterUnits="objectBoundingBox" id="filter-1">
            <feOffset dx="0" dy="2" in="SourceAlpha" result="shadowOffsetOuter1"></feOffset>
            <feGaussianBlur stdDeviation="2" in="shadowOffsetOuter1" result="shadowBlurOuter1"></feGaussianBlur>
            <feComposite in="shadowBlurOuter1" in2="SourceAlpha" operator="out" result="shadowBlurOuter1"></feComposite>
            <feColorMatrix values="0 0 0 0 0   0 0 0 0 0   0 0 0 0 0  0 0 0 0.2 0" type="matrix" in="shadowBlurOuter1" result="shadowMatrixOuter1"></feColorMatrix>
            <feMerge>
                <feMergeNode in="shadowMatrixOuter1"></feMergeNode>
                <feMergeNode in="SourceGraphic"></feMergeNode>
            </feMerge>
        </filter>
        <linearGradient x1="50%" y1="0%" x2="50%" y2="100%" id="linearGradient-2">
            <stop stop-color="#FDC921" offset="0%"></stop>
            <stop stop-color="#F77D20" offset="100%"></stop>
        </linearGradient>
    </defs>
    <g id="scratch_scratch" stroke="none" stroke-width="1" fill="none" fill-rule="evenodd">
        <g id="编组" filter="url(#filter-1)" transform="translate(4.000000, 15.000000)" fill-rule="nonzero">
            <path d="M16.7260137,23.2508428 C11.6484738,27.1256492 -5.85931662,63.2076538 46.928656,65.6131208 C88.4891116,66.5492482 85.8170388,36.8818224 73.3887928,34.9213668 C72.9898862,30.1104328 69.2453758,18.7065148 61.026697,15.6996811 C60.4052848,11.602369 58.0198634,1.46733485 58.0198634,1.46733485 L47.4618678,10.2873804 C47.4618678,10.2873804 35.9015946,9.752164 29.8879272,11.9571754 L15.3228246,1.86824601 L16.7260137,23.2508428 Z" id="Shape" fill="url(#linearGradient-2)"></path>
            <path d="M48.8610478,66.1363098 C48.2215946,66.1363098 47.574123,66.1363098 46.9166288,66.1142596 C35.755262,65.6051026 26.9271982,63.5464236 20.6569476,59.9943508 C15.3488838,56.987517 11.8609567,52.9062414 10.2873804,47.8788154 C6.99589978,37.3548974 13.2100228,25.628246 16.20082,23.0223234 L14.7555353,0.86596811 L15.6094761,1.45731207 L29.956082,11.3999089 C35.6810934,9.41339408 45.705877,9.71808656 47.2834624,9.77822324 L58.3085194,0.557266514 L58.494943,1.3470615 C58.5189978,1.44728929 60.7841458,11.0892027 61.4636902,15.3288383 C69.5821412,18.5140774 73.2905694,29.491025 73.8378132,34.4903872 C78.9213668,35.5307518 82.4253302,41.0653302 81.8680638,47.2934852 C81.4090206,52.4111162 78.3761276,57.0476538 73.3266514,60.3491572 C67.4673348,64.1938952 59.2386332,66.1363098 48.8610478,66.1363098 Z M15.8901139,2.87052392 L17.2431891,23.4853758 L17.0287016,23.6477448 C15.6736219,24.6820956 13.4205011,28.123918 11.9371298,32.4677904 C10.6441913,36.2303416 9.4755353,41.9052392 11.2515718,47.5781322 C12.7469704,52.3569932 16.0805467,56.2398178 21.1600912,59.1203644 C27.2840092,62.606287 35.9697494,64.6108428 46.9507062,65.1119818 C58.0298862,65.3605466 66.7296584,63.4782688 72.791435,59.515262 C77.5783144,56.3861504 80.4508428,52.0162186 80.8818224,47.2092938 C81.407016,41.3479726 78.0754442,36.1682004 73.310615,35.416492 L72.9217312,35.3543508 L72.8896584,34.9534396 C72.7052392,32.7484282 71.7590888,28.7814124 69.696401,24.8584966 C68.0747152,21.7734852 65.2222324,17.7603645 60.8543052,16.1607289 L60.575672,16.0584966 L60.5315718,15.7658314 C60.02041,12.4001822 58.2884738,4.82897494 57.7251936,2.36537586 L47.642278,10.7845103 L47.4418224,10.7845103 C47.3275626,10.7845103 35.9136218,10.2793622 30.064328,12.4242369 L29.8197722,12.5144419 L29.6052848,12.3661048 L15.8901139,2.87052392 Z" id="Shape" fill="#210201"></path>
            <path d="M54.9468792,40.7305694 C25.6803644,31.4013668 7.03799544,53.1848748 46.928656,65.6131208 C89.9604556,66.414943 86.3522552,32.7384054 70.1815034,35.1438724 C63.0974032,25.6563098 54.9468792,40.7305694 54.9468792,40.7305694 Z" id="Shape" fill="#FCFCFC"></path>
            <path d="M12.3761276,40.4699772 C7.49302962,35.971754 0.0761731208,34.2558542 0,34.2338042 L0.31070615,32.8646924 C0.629430524,32.9368564 8.17056948,34.6868338 13.326287,39.437631 L12.3761276,40.4699772 Z" id="Shape" fill="#210201"></path>
            <path d="M7.61931662,45.0844646 C5.4482971,45.0790218 3.27976738,44.9370866 1.12656036,44.6594988 L1.32701595,43.2703416 C1.39316629,43.2703416 7.95407744,44.1784054 12.7249203,43.2703416 L12.9855125,44.649476 C11.2137002,44.9571186 9.41754626,45.1027164 7.61931662,45.0844646 L7.61931662,45.0844646 Z" id="Shape" fill="#210201"></path>
            <path d="M86.3502506,49.7430524 C81.6916628,49.7430524 75.9666514,48.0492028 75.7261048,47.9770388 L76.127016,46.6319818 C76.185148,46.6480182 81.8981322,48.3398634 86.3502506,48.3398634 L86.3502506,49.7430524 Z" id="Shape" fill="#210201"></path>
            <path d="M75.9446014,41.432164 L75.910524,40.028975 C80.7214578,39.9107062 87.1841458,36.8216856 87.2482916,36.783599 L87.8496584,38.0464692 C87.585057,38.1807744 81.0722552,41.305877 75.9446014,41.432164 Z" id="Shape" fill="#210201"></path>
            <path d="M49.4443736,59.6716273 C48.4698192,59.672743 47.4975466,59.5773958 46.5417768,59.3869704 C42.8734396,58.653303 40.2434624,57.0817312 38.7240092,54.71836 C37.0441914,52.0984054 36.7194534,48.504237 37.7878816,44.0340774 L37.9702962,43.264328 L38.6638724,43.6451936 C45.76,47.5500684 64.741139,50.6892028 64.9235536,50.7212756 L65.9799544,50.8936674 L65.282369,51.7055126 C63.6730418,53.4751448 61.8378156,55.0252808 59.8239636,56.3159908 C56.3861504,58.5350342 52.8461048,59.6716273 49.4443736,59.6716273 Z M38.792164,45.0684282 C38.016401,48.8530296 38.3331208,51.883918 39.7383144,54.0688838 C41.0733486,56.1476082 43.440729,57.5407744 46.7783144,58.2082916 C54.6281548,59.7778588 61.4115718,53.9085194 63.6165832,51.7155354 C61.8625968,51.4068338 58.23836,50.7413212 54.1951708,49.8292482 C47.127107,48.237631 41.951344,46.6379954 38.792164,45.0684282 L38.792164,45.0684282 Z" id="Shape" fill="#210201"></path>
            <path d="M29.2103872,22.0100228 C21.3565376,25.985057 29.8578588,44.0501138 39.0868338,39.5558998 C47.5961732,35.4104784 38.3752164,17.3694761 29.2103872,22.0100228 Z" id="Shape" fill="#FCFCFC"></path>
            <path d="M36.116082,40.768656 C32.3234624,40.768656 28.9898862,37.6014578 27.1817768,33.9531662 C24.9166288,29.3907972 24.8083826,23.6677904 28.985877,21.552984 C31.4755354,20.2921184 34.2438268,20.5206378 36.77959,22.1964464 C40.5140774,24.6620502 43.2182232,29.9620956 42.9375854,34.2598634 C42.763189,36.941959 41.5063326,38.9244646 39.3073348,39.996902 C38.3170122,40.495938 37.225001,40.7600236 36.116082,40.768656 L36.116082,40.768656 Z M29.2083826,22.0100228 L29.4348974,22.4570388 C25.8427334,24.2751708 26.0271526,29.396811 28.0798178,33.5161732 C30.1665604,37.7257404 34.4322552,41.2617768 38.8663326,39.1048748 C41.2116628,37.962278 41.829066,35.809385 41.9353076,34.2037358 C42.1958998,30.2307062 39.6861958,25.3295672 36.224328,23.042369 C34.6527562,22.0040092 32.1971754,21.0598634 29.4348974,22.4570388 L29.2083826,22.0100228 Z" id="Shape" fill="#210201"></path>
            <path d="M65.2362642,36.2824602 C56.0153076,40.7766742 47.9970842,21.1119818 55.6143964,18.8428246 C63.9974488,16.3431435 70.9833258,33.0751708 65.2362642,36.2824602 Z" id="Shape" fill="#FCFCFC"></path>
            <path d="M62.4559454,37.4551252 C60.9124374,37.4551252 59.3689294,36.8898406 57.8895672,35.7692938 C54.0809112,32.8887472 51.432893,26.612483 52.208656,22.33877 C52.5855126,20.2620502 53.7140774,18.8869248 55.4700684,18.3617312 C60.2569476,16.9344875 64.582779,21.368565 66.5753076,26.0912984 C67.4793622,28.2361732 67.922369,30.4331662 67.8221412,32.275353 C67.705877,34.3941686 66.8960364,35.9336674 65.4788154,36.7234624 L65.4547608,36.7354898 C64.52327,37.2013446 63.4974048,37.4475248 62.4559454,37.4551252 L62.4559454,37.4551252 Z M57.308246,19.0913895 C56.782719,19.0918331 56.260058,19.1688142 55.7567198,19.3199089 C54.365558,19.7348519 53.503599,20.8092938 53.1948974,22.5151708 C52.479271,26.4681548 54.9548974,32.2873804 58.494943,34.969476 C59.9723006,36.0900228 62.303599,37.1484282 65.0037358,35.8394534 C66.7938042,34.8371754 67.7579954,31.4755354 65.6532118,26.4801822 C64.0555808,22.6935764 60.8883826,19.0913895 57.308246,19.0913895 Z" id="Shape" fill="#210201"></path>
            <circle id="Oval" fill="#160D00" cx="35.8574944" cy="33.5823234" r="2"></circle>
            <circle id="Oval" fill="#160D00" cx="62.317631" cy="31.1768564" r="2"></circle>
            <path d="M52.5895216,37.248656 C50.4907518,37.0802734 48.2937586,36.8597722 47.7485194,37.4170388 C46.0225968,39.1790432 50.8696128,42.6649658 53.070615,42.6609603 C55.6123918,42.6609603 58.6833712,38.7721184 56.9975398,37.7157176 C55.9491572,37.0602278 52.5895216,37.248656 52.5895216,37.248656 Z" id="Shape" fill="#674643"></path>
            <path d="M48.8590432,66.3367654 C48.2175854,66.3367654 47.5687776,66.3294154 46.9126196,66.3147152 C35.7151708,65.805558 26.8570388,63.7368564 20.5667426,60.1687472 C15.212574,57.1318452 11.692574,53.016492 10.1049658,47.9409568 C8.2327107,41.9573576 9.45148064,36.0138496 10.8025513,32.0809112 C12.2899317,27.7530752 14.4748975,24.319271 16.0143964,22.9441458 L14.5210023,0.465056948 L15.7237358,1.2929385 L29.9961732,11.1774032 C35.6851026,9.24701594 45.4312528,9.5076082 47.2233258,9.57375854 L58.4488382,0.198451025 L58.7094306,1.30496583 C58.8036446,1.70587699 60.9645558,10.902779 61.6641458,15.1885194 C69.7164464,18.4298861 73.4288838,29.2464692 74.042278,34.3280182 C79.1478816,35.4625968 82.6518452,41.0432802 82.088565,47.3155354 C81.6154898,52.497312 78.550524,57.1939864 73.454943,60.5235536 C67.5455126,64.384328 59.2787244,66.3367654 48.8590432,66.3367654 Z M16.1246469,3.27143508 L17.4576765,23.5775854 L17.1589977,23.8061048 C16.0965831,24.6079272 13.7933485,27.7029612 12.1355809,32.5319362 C10.8526651,36.2664236 9.69202734,41.897221 11.4500228,47.5179954 C12.929385,52.2467426 16.2308884,56.0914806 21.2723462,58.9439636 C27.3501594,62.4058314 36.0018224,64.4103872 46.960729,64.9115262 C57.9978132,65.1580866 66.6554898,63.287836 72.683189,59.3468792 C77.4179498,56.2518452 80.2584054,51.9300228 80.6853758,47.1912528 C81.2025512,41.4361732 77.9491572,36.350615 73.2825512,35.614943 L72.7393166,35.5287472 L72.6932118,34.9794988 C72.2662414,29.847836 68.3353076,19.1194533 60.7881548,16.3571754 L60.3972666,16.2148519 L60.3351252,15.8139408 C59.8440092,12.5785877 58.220319,5.47644646 57.5948974,2.73621868 L47.7024146,11.0010023 L47.429795,10.9889749 C47.3155354,10.9889749 35.9416856,10.4858314 30.1304784,12.6166743 L29.7897038,12.7429613 L29.491025,12.5425057 L16.1246469,3.27143508 Z" id="Shape" fill="#210201"></path>
        </g>
    </g>
</svg>