<?xml version="1.0" encoding="UTF-8"?>
<svg width="96px" height="96px" viewBox="0 0 96 96" version="1.1" xmlns="http://www.w3.org/2000/svg" xmlns:xlink="http://www.w3.org/1999/xlink">
    <!-- Generator: Sketch 62 (91390) - https://sketch.com -->
    <title>sdlbasic_sdlbasic</title>
    <desc>Created with Sketch.</desc>
    <defs>
        <filter x="-15.4%" y="-15.4%" width="130.8%" height="130.8%" filterUnits="objectBoundingBox" id="filter-1">
            <feOffset dx="0" dy="2" in="SourceAlpha" result="shadowOffsetOuter1"></feOffset>
            <feGaussianBlur stdDeviation="2" in="shadowOffsetOuter1" result="shadowBlurOuter1"></feGaussianBlur>
            <feComposite in="shadowBlurOuter1" in2="SourceAlpha" operator="out" result="shadowBlurOuter1"></feComposite>
            <feColorMatrix values="0 0 0 0 0   0 0 0 0 0   0 0 0 0 0  0 0 0 0.2 0" type="matrix" in="shadowBlurOuter1" result="shadowMatrixOuter1"></feColorMatrix>
            <feMerge>
                <feMergeNode in="shadowMatrixOuter1"></feMergeNode>
                <feMergeNode in="SourceGraphic"></feMergeNode>
            </feMerge>
        </filter>
        <linearGradient x1="50%" y1="0%" x2="50%" y2="83.7485044%" id="linearGradient-2">
            <stop stop-color="#185918" offset="0%"></stop>
            <stop stop-color="#2E782E" offset="100%"></stop>
        </linearGradient>
        <linearGradient x1="50%" y1="0%" x2="50%" y2="100%" id="linearGradient-3">
            <stop stop-color="#94DA94" offset="0%"></stop>
            <stop stop-color="#529B52" offset="100%"></stop>
        </linearGradient>
        <linearGradient x1="50%" y1="0%" x2="50%" y2="100%" id="linearGradient-4">
            <stop stop-color="#E8FF62" offset="0%"></stop>
            <stop stop-color="#CCFF33" offset="100%"></stop>
        </linearGradient>
    </defs>
    <g id="sdlbasic_sdlbasic" stroke="none" stroke-width="1" fill="none" fill-rule="evenodd">
        <g id="编组" filter="url(#filter-1)" transform="translate(11.000000, 11.000000)">
            <polygon id="路径-379" fill="url(#linearGradient-2)" points="6 11 8 11 8 10 10 10 10 9 12 9 12 8 14 8 14 7 16 7 16 6 18 6 18 5 20 5 20 4 22 4 22 3 24 3 24 2 26 2 26 1 28 1 28 0 29 0 29 10 32 10 32 9 36 9 36 10 39 10 39 11 43 11 43 2 44 2 44 3 46 3 46 4 48 4 48 5 50 5 50 6 52 6 52 7 54 7 54 8 56 8 56 9 58 9 58 10 60 10 60 11 62 11 62 12 64 12 64 13 66 13 66 14 68 14 68 25 70 25 70 26 72 26 72 27 74 27 74 28 76 28 76 29 78 29 78 56 77 56 77 57 75 57 75 58 73 58 73 59 71 59 71 60 69 60 69 61 67 61 67 62 65 62 65 63 63 63 63 64 61 64 61 65 59 65 59 66 57 66 57 67 55 67 55 68 53 68 53 69 51 69 51 70 49 70 49 71 47 71 47 72 45 72 45 73 43 73 43 74 41 74 41 73 38 73 38 74 36 74 36 75 34 75 34 76 32 76 32 77 30 77 30 78 28 78 28 77 26 77 26 76 24 76 24 75 22 75 22 74 20 74 20 73 18 73 18 72 16 72 16 71 14 71 14 70 12 70 12 69 10 69 10 68 8 68 8 67 6 67 6 66 4 66 4 65 5 65 5 63 7 63 7 62 10 62 10 61 11 61 12 61 12 60 11 60 11 59 9 59 9 58 6 58 6 51 4 51 4 52 2 52 2 53 0 53 0 24 2 24 2 23 4 23 4 22 6 22"></polygon>
            <path d="M0,25.032 L29,40 L36.5,36 L42,39 L42,74 L41,74 L41,73 L38,73 L38,74 L36,74 L36,75 L34,75 L34,76 L32,76 L32,77 L30,77 L30,78 L28,78 L28,77 L26,77 L26,76 L24,76 L24,75 L22,75 L22,74 L20,74 L20,73 L18,73 L18,72 L16,72 L16,71 L14,71 L14,70 L12,70 L12,69 L10,69 L10,68 L8,68 L8,67 L6,67 L6,66 L4,66 L4,65 L5,65 L5,63 L7,63 L7,62 L10,62 L10,61 L12,61 L12,60 L11,60 L11,59 L9,59 L9,58 L6,58 L6,51 L4,51 L4,52 L2,52 L2,53 L0,53 L0,25.032 Z M6,11 L29,23 L29,33 L6,21 L6,11 Z" id="形状结合" fill="url(#linearGradient-3)"></path>
            <path d="M35,49 L35,71 L40,73 L38,73 L38,74 L36,74 L36,75 L34,75 L34,76 L32,76 L32,77 L30,77 L30,78 L29,78 L29,52 L35,49 Z M68,35 L78,29 L78,56 L77,56 L77,57 L75,57 L75,58 L73,58 L73,59 L71,59 L71,60 L69,60 L69,61 L67,61 L67,62 L65,62 L65,63 L63,63 L63,64 L61,64 L61,65 L59,65 L59,66 L57,66 L57,67 L55,67 L55,68 L53,68 L53,69 L51,69 L51,70 L49,70 L49,71 L47,71 L47,72 L45,72 L45,73 L43,73 L43,74 L42,74 L42,28 L68,14 L68,35 Z" id="形状结合" fill="url(#linearGradient-4)"></path>
        </g>
    </g>
</svg>