<svg xmlns="http://www.w3.org/2000/svg" width="96" height="96" viewBox="0 0 96 96">
  <defs>
    <filter id="seamonkey_icon-a" width="127.3%" height="128.7%" x="-13.6%" y="-14.9%" filterUnits="objectBoundingBox">
      <feOffset dy="2" in="SourceAlpha" result="shadowOffsetOuter1"/>
      <feGaussianBlur in="shadowOffsetOuter1" result="shadowBlurOuter1" stdDeviation="2"/>
      <feColorMatrix in="shadowBlurOuter1" result="shadowMatrixOuter1" values="0 0 0 0 0   0 0 0 0 0   0 0 0 0 0  0 0 0 0.2 0"/>
      <feMerge>
        <feMergeNode in="shadowMatrixOuter1"/>
        <feMergeNode in="SourceGraphic"/>
      </feMerge>
    </filter>
    <linearGradient id="seamonkey_icon-b" x1="36.71%" x2="50%" y1="3.123%" y2="100%">
      <stop offset="0%" stop-color="#5454AE"/>
      <stop offset="100%" stop-color="#06077D"/>
    </linearGradient>
    <linearGradient id="seamonkey_icon-c" x1="27.57%" x2="62.056%" y1="-10.997%" y2="80.441%">
      <stop offset="0%" stop-color="#3025F4"/>
      <stop offset="100%" stop-color="#5858EE"/>
    </linearGradient>
    <linearGradient id="seamonkey_icon-d" x1="29.741%" x2="29.741%" y1="-16.598%" y2="90.415%">
      <stop offset="0%" stop-color="#7E7BD0"/>
      <stop offset="58.929%" stop-color="#807DD2"/>
      <stop offset="64.705%" stop-color="#8380FF"/>
      <stop offset="100%" stop-color="#8380FF"/>
    </linearGradient>
    <linearGradient id="seamonkey_icon-e" x1="95.979%" x2="30.13%" y1="1.431%" y2="75.119%">
      <stop offset="0%" stop-color="#FFF"/>
      <stop offset="100%" stop-color="#FFF" stop-opacity="0"/>
    </linearGradient>
    <linearGradient id="seamonkey_icon-f" x1="17.372%" x2="50%" y1="70.131%" y2="0%">
      <stop offset="0%" stop-color="#FFF" stop-opacity="0"/>
      <stop offset="100%" stop-color="#FFF"/>
    </linearGradient>
    <linearGradient id="seamonkey_icon-g" x1="17.372%" x2="50%" y1="70.131%" y2="0%">
      <stop offset="0%" stop-color="#FFF" stop-opacity="0"/>
      <stop offset="100%" stop-color="#FFF"/>
    </linearGradient>
    <linearGradient id="seamonkey_icon-h" x1="17.372%" x2="50%" y1="70.131%" y2="0%">
      <stop offset="0%" stop-color="#FFF" stop-opacity="0"/>
      <stop offset="100%" stop-color="#FFF"/>
    </linearGradient>
    <linearGradient id="seamonkey_icon-i" x1="17.372%" x2="50%" y1="70.131%" y2="0%">
      <stop offset="0%" stop-color="#FFF" stop-opacity="0"/>
      <stop offset="100%" stop-color="#FFF"/>
    </linearGradient>
    <linearGradient id="seamonkey_icon-j" x1="17.372%" x2="50%" y1="70.131%" y2="0%">
      <stop offset="0%" stop-color="#FFF" stop-opacity="0"/>
      <stop offset="100%" stop-color="#FFF"/>
    </linearGradient>
    <linearGradient id="seamonkey_icon-k" x1="17.372%" x2="50%" y1="70.131%" y2="0%">
      <stop offset="0%" stop-color="#FFF" stop-opacity="0"/>
      <stop offset="100%" stop-color="#FFF"/>
    </linearGradient>
    <linearGradient id="seamonkey_icon-l" x1="25.562%" x2="81.522%" y1="50%" y2="41.364%">
      <stop offset="0%" stop-color="#FFF" stop-opacity="0"/>
      <stop offset="100%" stop-color="#FFF"/>
    </linearGradient>
    <linearGradient id="seamonkey_icon-m" x1="25.562%" x2="81.522%" y1="50%" y2="41.364%">
      <stop offset="0%" stop-color="#FFF" stop-opacity="0"/>
      <stop offset="100%" stop-color="#FFF"/>
    </linearGradient>
    <linearGradient id="seamonkey_icon-n" x1="25.562%" x2="81.522%" y1="50%" y2="41.364%">
      <stop offset="0%" stop-color="#FFF" stop-opacity="0"/>
      <stop offset="100%" stop-color="#FFF"/>
    </linearGradient>
    <linearGradient id="seamonkey_icon-o" x1="25.562%" x2="81.522%" y1="50%" y2="41.364%">
      <stop offset="0%" stop-color="#FFF" stop-opacity="0"/>
      <stop offset="100%" stop-color="#FFF"/>
    </linearGradient>
    <linearGradient id="seamonkey_icon-p" x1="25.562%" x2="81.522%" y1="50%" y2="41.364%">
      <stop offset="0%" stop-color="#FFF" stop-opacity="0"/>
      <stop offset="100%" stop-color="#FFF"/>
    </linearGradient>
    <linearGradient id="seamonkey_icon-q" x1="25.562%" x2="81.522%" y1="50%" y2="41.364%">
      <stop offset="0%" stop-color="#FFF" stop-opacity="0"/>
      <stop offset="100%" stop-color="#FFF"/>
    </linearGradient>
    <linearGradient id="seamonkey_icon-r" x1="25.562%" x2="81.522%" y1="50%" y2="41.364%">
      <stop offset="0%" stop-color="#FFF" stop-opacity="0"/>
      <stop offset="100%" stop-color="#FFF"/>
    </linearGradient>
  </defs>
  <g fill="none" fill-rule="evenodd" filter="url(#seamonkey_icon-a)" transform="translate(4 5)">
    <circle cx="42" cy="42" r="42" fill="url(#seamonkey_icon-b)" fill-rule="nonzero" transform="translate(2 1)"/>
    <path fill="url(#seamonkey_icon-c)" fill-rule="nonzero" d="M0,0.8125 C0,0.8749678 0,0.937468 0,1 C0,24.1959594 18.8040406,43 42,43 C65.1959594,43 84,24.1959594 84,1 C84,0.937468 84,0.8749678 84,0.8125 L0,0.8125 Z" transform="translate(2 42)"/>
    <path fill="url(#seamonkey_icon-d)" fill-rule="nonzero" d="M1.0852991,47.8878612 C7.50784266,50.2115188 15.3455752,49.2654964 24.5984966,45.049794 C33.851418,40.8340918 46.5869962,41.1014764 62.8052312,45.8519478 C64.3150492,45.3846592 67.3335688,45.3011712 71.8607904,45.6014842 C78.2563084,46.0257304 77.76165,48.2174802 86.7590406,48.983981 C87.3151794,49.0313592 87.496268,37.57281 86.6484446,37.7753868 C71.4572308,41.4051376 63.861624,43.220013 63.861624,43.220013 L41.6717814,41.0215606 C26.116138,35.1961062 12.7088259,34.5030632 1.44984548,38.9424316 L1.0852991,47.8878612 Z"/>
    <g fill-rule="nonzero" transform="translate(.625 36.25)">
      <path fill="#A6A5FF" d="M0.665767532,1.76653767 C5.28731746,0.460350922 9.43903044,0.2272993 13.1209065,1.0673828 C15.420224,1.59201176 17.6992144,2.55220168 23.1762668,3.9568033 C26.328797,4.76527628 29.3399078,4.71489924 32.9904134,3.9568033 C37.4351632,3.03376768 41.116868,1.27653975 46.6205478,0.220502256 C51.7577204,-0.765210408 56.9103306,2.70677624 62.933707,3.7767305 C69.8142824,4.99895214 71.7751282,4.666774 73.8391784,3.7767305 C75.937866,2.87175098 80.178688,1.25167509 85.9902826,0.246746942 C86.4943748,0.159580427 86.4863132,7.39401158 85.9169318,7.28243532 C79.8012346,6.08400036 70.3231058,7.05278322 57.4825456,10.1887839 C36.4284894,15.3307352 36.0109116,14.9619915 19.9318515,9.37762796 C12.9552571,6.95461074 6.42200614,6.45275264 0.638888554,6.90886782 C0.539572556,6.91670088 0.509893806,1.8105922 0.665767532,1.76653767 Z"/>
      <path fill="#7F7CD1" d="M0.4531258,3.06336074 C3.5419144,2.14131666 6.5935012,0.993205688 10.6205478,0.220502256 C15.7577204,-0.765210408 20.9103306,2.70677624 26.933707,3.7767305 C27.3762966,3.8553493 27.79853,3.92753654 28.2017442,3.99355748 C28.2282138,4.03503416 28.254817,4.0767476 28.2815538,4.11869778 C18.6055468,6.4544642 9.3222864,6.1314905 0.4317724,3.14977674 L0.4531258,3.06336074 Z" transform="translate(36)"/>
    </g>
    <circle cx="44" cy="43" r="43" stroke="#00006D" stroke-width="2"/>
    <g transform="translate(.5 10.75)">
      <path fill="#FFF" fill-rule="nonzero" stroke="#FFF" d="M65.6501766,10.7628998 C73.4506854,12.7448014 73.6103282,22.447983 73.6967416,24.591697 C74.1142056,34.9479996 71.6014584,42.6642658 64.1911952,48.5019524 C56.780932,54.339639 47.7790056,58.6392866 27.4998936,61.2781862 C26.2324844,62.3204098 18.087572,68.2850856 16.4735249,69.3164814 C12.8202871,71.6509452 9.30139902,73.3112366 6.12507926,74.351434 C3.70673682,75.1434052 1.64332124,75.5220448 0.90927067,75.273718 C0.0661187238,74.9884824 -0.238807296,74.0220358 0.199402319,73.3077598 C0.324005884,73.1046576 0.450271728,72.9882832 0.618613346,72.8652526 C0.755454226,72.765244 0.926145686,72.6641376 1.15809203,72.5394086 C1.507693,72.3514108 2.00747266,72.1048326 2.77293426,71.7392622 C3.1806159,71.544561 4.81970656,70.7691628 5.07359106,70.6485588 C6.09319484,70.1642112 6.9239405,69.7637778 7.7233585,69.3688996 C8.36621102,69.051358 8.9619826,68.750358 9.51729728,68.4617288 C11.0124724,67.6845998 12.1885374,67.0102328 13.0110801,66.446568 C15.111668,65.0070962 17.1849834,63.3834182 19.2494248,61.586784 C22.4955432,58.7617644 24.376394,56.855355 28.7673028,52.171293 C32.1374564,48.5761358 35.705689,43.5527118 38.8484426,38.1551206 C41.6058938,33.4192752 43.7372172,28.8727452 44.3778368,26.4585882 C45.449246,22.4210128 46.5225714,18.7951691 47.7790056,15.2901543 C49.6081316,10.187528 51.4279306,6.52891506 53.3233174,4.68490066 C55.9434894,2.13574556 58.9123728,0.69277564 61.941496,0.190041218 C64.1366978,-0.174289752 66.3244702,0.012416577 67.2927376,0.518728728 C69.1903156,1.51098254 69.9681194,3.18082872 69.408629,5.17230516 C68.980951,6.69460232 67.6199778,8.7931101 65.6501766,10.7628998 Z"/>
      <g transform="translate(1 1)">
        <path fill="#00AEFA" d="M0.330293134,73.0317186 C-0.14485271,72.8709784 9.02207356,69.087525 12.7534334,66.5305324 C19.857709,61.6621786 25.4885178,55.5230716 28.725285,52.0702062 C36.1672852,44.131351 43.3302948,30.7579292 44.6468558,25.796506 C45.9634168,20.8350828 49.4478274,8.31532324 53.2389824,4.6269235 C58.685577,-0.672047042 64.7579352,0.19834305 65.6849776,0.68309846 C68.4069542,2.10643472 67.6323038,4.86376116 63.3610264,8.95507774 C64.7507336,14.8320013 65.4507248,18.8230587 65.4610004,20.9282498 C65.5059374,30.134689 62.6716096,35.0125648 60.1649024,38.5664908 C52.6940666,49.1583924 34.6790492,51.7907114 27.544458,57.7690124 C25.9620022,59.0950024 16.332599,66.2114894 14.767216,67.2117884 C6.7407915,72.3407722 0.805438976,73.192459 0.330293134,73.0317186 Z"/>
        <path stroke="#0096FF" d="M2.93930954,72.1931234 C5.70023472,71.4068942 10.2402263,69.5112236 14.4979844,66.7904638 C16.0445888,65.8021646 25.6567464,58.6984576 27.2233268,57.38577 C29.1450764,55.7754748 31.7706998,54.3848956 35.986685,52.587244 C36.824775,52.2298914 42.2262682,50.005345 43.827523,49.3102624 C51.7374432,45.8766762 56.6334742,42.7057554 59.756313,38.2782986 C63.3058614,33.2458674 64.9982408,28.5590512 64.9610064,20.9306904 C64.9509758,18.8756835 64.2555674,14.9107562 62.8744456,9.07013878 L62.8086334,8.7918261 L63.0151616,8.59399958 C67.0774482,4.70286832 67.7455454,2.32481228 65.4532884,1.12617878 C64.8830954,0.828021786 63.0785016,0.674016244 61.2386758,0.979366562 C58.5650006,1.4231083 55.9354062,2.70117324 53.5876458,4.98530024 C50.6642172,7.8294923 47.8447018,15.6949607 45.1301302,25.9247474 C43.5302288,31.9539312 35.7633218,45.2933768 29.090069,52.4121602 C24.6573404,57.140834 22.7474656,59.0766618 19.439726,61.955309 C17.3250781,63.7956368 15.1974021,65.4618862 13.0360732,66.9429822 C12.1409478,67.5563856 10.9083789,68.2631526 9.3536164,69.0712526 C8.7865581,69.3659856 8.17988212,69.6724946 7.5264915,69.9952416 C6.71747846,70.3948594 5.87898988,70.7990252 4.8517272,71.287011 C4.64812198,71.3837306 3.57544494,71.8912604 2.93930954,72.1931234 Z"/>
      </g>
      <g fill-rule="nonzero" transform="translate(28.688 2.25)">
        <path fill="#BDE2FF" d="M0,54.4846974 C6.82956868,50.7560076 10.4959942,48.878559 10.9992765,48.8523512 C11.7542,48.8130398 31.4166962,43.4240372 35.7345954,26.9758552 C36.6649104,23.432004 36.097509,17.7907059 35.7345954,15.2057599 C35.093481,10.6392578 33.9894732,8.86686656 34.1291954,7.54118374 C34.2689178,6.21550092 39.4594682,2.49237092 37.7515642,0.669095216 C36.9297316,-0.208253544 34.500601,-0.153520366 32.234883,0.433145842 C29.7920646,1.06566896 26.9106542,3.16292152 24.5355442,6.74819232 C22.2307926,10.2272561 20.2582294,18.5054288 17.9266106,25.088596 C16.847229,28.1361566 12.2060515,38.4792376 10.3201402,41.3795148 C7.37373626,45.910687 3.93368952,50.279081 0,54.4846974 Z"/>
        <path fill="#7CC6FF" d="M0.58917044,35.6838694 C1.91017598,33.941257 3.15383256,32.1731388 4.32014018,30.3795148 C6.20605148,27.4792376 10.847229,17.1361566 11.9266106,14.088596 C12.4761216,12.537089 13.0056892,10.8914346 13.5243621,9.236644 C17.5519332,5.07934154 23.3178886,0.13266388 28.8820316,0.02649884 C29.169659,1.09236476 29.4867238,2.44023078 29.7345954,4.20575988 C30.097509,6.79070588 30.6649104,12.432004 29.7345954,15.9758552 C27.8233982,23.2561824 22.905976,28.369859 17.9525384,31.8119886 L0.58917044,35.6838694 Z" transform="translate(6 11)"/>
      </g>
      <path stroke="url(#seamonkey_icon-e)" stroke-linecap="round" stroke-width="1.125" d="M66.5,3.25 C65.6781674,2.37265124 63.188101,2.65897964 60.922383,3.24564584 C58.4795646,3.87816896 55.5981542,5.97542152 53.2230442,9.56069232 C50.9182926,13.0397561 48.9457294,21.3179288 46.6141106,27.901096 C45.534729,30.9486566 40.8935514,41.2917376 39.0076402,44.1920148"/>
      <path fill="#5EB7FF" fill-rule="nonzero" d="M0.157039,47.5982252 C27.8366734,44.8722388 43.3176354,36.2702358 46.5999246,21.792216 C48.0914852,15.2130144 47.1333024,9.8162522 46.106077,6.55977092 C43.742574,-0.93293976 37.3386474,-0.17096396 34.405545,0.24134478 C35.2494296,6.150671 35.4329446,10.2867412 34.9560902,12.6495554 C32.9061542,22.8069886 27.250899,28.5453824 23.7635432,31.2734124 C16.784661,36.732735 8.9158262,42.1743392 0.157039,47.5982252 Z" opacity=".5" transform="translate(25 12)"/>
      <path fill="url(#seamonkey_icon-f)" fill-rule="nonzero" d="M59.9255184,15.3284485 C64.4542218,14.8205286 67.8567978,14.9017025 70.133246,15.5719703 C70.5009426,15.6802333 71.9710198,20.4831184 71.7455542,20.4057942 C67.1251,18.8211969 63.2145322,18.2694917 60.0138504,18.7506787 C59.5179398,18.8252334 59.7207052,15.3514195 59.9255184,15.3284485 Z" opacity=".6"/>
      <path fill="url(#seamonkey_icon-g)" fill-rule="nonzero" d="M67.5,11.25 C68.922297,11.392582 72.4270222,16.520145 72.4270222,16.520145 C67.4064592,14.7372818 63.175538,14.1202309 59.7342582,14.6689922 C59.4569438,14.7132139 59.5595466,13.10334 59.7193908,12.0776383 C59.7933746,11.6028925 66.1252252,11.112182 67.5,11.25 Z" opacity=".6"/>
      <path fill="url(#seamonkey_icon-h)" fill-rule="nonzero" d="M60.060069,19.4095259 C64.7174276,19.0585957 69.0551402,19.6596177 73.0732066,21.2125918 C73.4105386,25.1754832 73.5792046,27.1569288 73.5792046,27.1569288 C67.8741156,24.5524798 63.3250636,23.153129 59.932048,22.9588764 C59.5203828,22.9353082 60.006477,22.0486548 60.060069,21.25 C60.1233848,20.3064372 59.8158244,19.4279296 60.060069,19.4095259 Z" opacity=".6"/>
      <path fill="url(#seamonkey_icon-i)" fill-rule="nonzero" d="M60.0145816,23.8664948 C65.3512812,24.157571 69.7818584,25.6255034 73.3063132,28.2702918 C72.6231286,32.4561256 72.2815362,34.5490424 72.2815362,34.5490424 C68.0184312,30.7726484 63.6499936,28.4647782 59.1762232,27.6254318 C58.7077054,27.5375308 59.2214254,26.2323922 59.5,25.25 C59.7406462,24.4013618 59.695013,23.8490648 60.0145816,23.8664948 Z" opacity=".6"/>
      <path fill="url(#seamonkey_icon-j)" fill-rule="nonzero" d="M58.874171,28.4968938 C64.6577868,29.6821612 69.0929644,32.1494076 72.1797038,35.898633 C69.6217008,40.5081742 68.3426992,42.812945 68.3426992,42.812945 C64.3429876,37.165281 60.73672,33.5141588 57.5238962,31.8595782 C57.21885,31.7024816 58.1572752,31.0890952 58.5,30.25 C58.8243322,29.4559354 58.5361036,28.4276118 58.874171,28.4968938 Z" opacity=".6"/>
      <path fill="url(#seamonkey_icon-k)" fill-rule="nonzero" d="M62.023763,49.700465 C62.3219694,47.4529388 60.1007322,42.8403028 55.3600512,35.862557 C55.1611364,35.569777 56.3969886,32.2189076 57.0211196,32.5481456 C59.3281416,33.7651328 64.6758108,37.3435346 67.966174,44.1127778 C63.6938478,50.1797332 61.7130442,52.0422956 62.023763,49.700465 Z" opacity=".6"/>
      <path fill="url(#seamonkey_icon-l)" fill-rule="nonzero" d="M61.53486,49.49386 C61.53486,49.3186738 57.7643168,39.0933934 54.737026,36.4181638 C54.5421004,36.2459072 51.7548862,39.793627 51.848154,40.0579232 C54.6684418,48.0498774 55.7054452,52.5623762 54.9591638,53.5954192 C59.3429612,50.9853574 61.53486,49.618171 61.53486,49.49386 Z" opacity=".6"/>
      <path fill="url(#seamonkey_icon-m)" fill-rule="nonzero" d="M52.1417854,39.9784782 C54.7237996,48.1313168 55.86116,52.7231526 55.553867,53.753986 C52.0590384,54.8640298 50.311624,55.4190516 50.311624,55.4190516 C49.186629,48.9578324 48.5307734,45.0465154 48.3440572,43.6851006 C48.246757,42.975651 49.5126666,41.74011 52.1417854,39.9784782 Z" opacity=".5"/>
      <path fill="url(#seamonkey_icon-n)" fill-rule="nonzero" d="M48.9353004,42.6892138 C50.576768,49.6350008 51.2856076,54.060432 51.0618194,55.9655074 C47.6384258,56.7677504 45.926729,57.1688718 45.926729,57.1688718 L45.046055,45.6879988 C47.6224732,43.6193614 48.9188882,42.6197664 48.9353004,42.6892138 Z" opacity=".5"/>
      <path fill="url(#seamonkey_icon-o)" fill-rule="nonzero" d="M45.6454088,45.4969128 C46.6356526,52.9828736 46.6134678,57.1335086 45.5788542,57.948818 L40.875,58.457267 C41.0981154,53.1463788 41.2333538,49.927258 41.280715,48.799905 C41.3200234,47.8642342 45.62371,45.3328766 45.6454088,45.4969128 Z" opacity=".4"/>
      <path fill="url(#seamonkey_icon-p)" fill-rule="nonzero" d="M41.9542662,48 C41.911662,55.0139358 41.6705688,58.68706 41.2309868,59.0193728 C38.1186622,59.1986608 36.5625,59.2883046 36.5625,59.2883046 C36.9517964,55.7005708 37.2437688,53.0097704 37.438417,51.2159034 C37.4585408,51.0304452 38.9638238,49.9584774 41.9542662,48 Z" opacity=".4"/>
      <path fill="url(#seamonkey_icon-q)" fill-rule="nonzero" d="M37.6957714,51.3888442 C37.5491328,55.8513064 37.1814432,58.8313956 36.5927028,60.3291118 C33.3225676,60.2481054 31.6875,60.2076022 31.6875,60.2076022 C32.1290638,57.6524728 32.4602368,55.7361258 32.6810186,54.458561" opacity=".4"/>
      <path fill="url(#seamonkey_icon-r)" fill-rule="nonzero" d="M33.2583394,54.4092586 C32.9890396,55.9160746 32.58509,58.1762986 32.0464906,61.1899308 L25.125,60.7727014 C25.241604,59.9449744 25.3185558,59.3987226 25.3558556,59.1339456 C25.4303804,58.6049218 25.4676428,58.3404098 25.4676428,58.3404098" opacity=".4"/>
    </g>
    <path stroke="#0096FF" d="M25.8379964,70.3385078 C53.3969926,67.6189998 68.8176354,59.0202358 72.0999246,44.542216 C73.5914852,37.9630144 72.6333024,32.5662522 71.606077,29.309771 C69.242574,21.8170602 62.8386474,22.579036 59.905545,22.9913448 C60.7494296,28.900671 60.9329446,33.0367412 60.4560902,35.3995554 C58.4061542,45.5569886 51.4479254,52.2921592 47.9605696,55.0201892 C40.9816874,60.4795118 33.6074962,65.585618 25.8379964,70.3385078 Z"/>
  </g>
</svg>
