<?xml version="1.0" encoding="UTF-8"?>
<svg width="96px" height="96px" viewBox="0 0 96 96" version="1.1" xmlns="http://www.w3.org/2000/svg" xmlns:xlink="http://www.w3.org/1999/xlink">
    <!-- Generator: Sketch 62 (91390) - https://sketch.com -->
    <title>smuxi-frontend-gnome_smuxi-frontend-gnome</title>
    <desc>Created with Sketch.</desc>
    <defs>
        <filter x="-16.2%" y="-15.4%" width="132.5%" height="132.1%" filterUnits="objectBoundingBox" id="filter-1">
            <feOffset dx="0" dy="2" in="SourceAlpha" result="shadowOffsetOuter1"></feOffset>
            <feGaussianBlur stdDeviation="2" in="shadowOffsetOuter1" result="shadowBlurOuter1"></feGaussianBlur>
            <feComposite in="shadowBlurOuter1" in2="SourceAlpha" operator="out" result="shadowBlurOuter1"></feComposite>
            <feColorMatrix values="0 0 0 0 0   0 0 0 0 0   0 0 0 0 0  0 0 0 0.2 0" type="matrix" in="shadowBlurOuter1" result="shadowMatrixOuter1"></feColorMatrix>
            <feMerge>
                <feMergeNode in="shadowMatrixOuter1"></feMergeNode>
                <feMergeNode in="SourceGraphic"></feMergeNode>
            </feMerge>
        </filter>
        <linearGradient x1="50%" y1="0%" x2="50%" y2="100%" id="linearGradient-2">
            <stop stop-color="#1D7CC9" offset="0%"></stop>
            <stop stop-color="#0C4699" offset="100%"></stop>
        </linearGradient>
        <radialGradient cx="52.6117847%" cy="30.1682493%" fx="52.6117847%" fy="30.1682493%" r="72.3905294%" id="radialGradient-3">
            <stop stop-color="#7BC3FF" offset="0%"></stop>
            <stop stop-color="#1E5297" offset="100%"></stop>
        </radialGradient>
        <linearGradient x1="50%" y1="0%" x2="50%" y2="100%" id="linearGradient-4">
            <stop stop-color="#A4CCFC" offset="0%"></stop>
            <stop stop-color="#54AAEA" offset="100%"></stop>
        </linearGradient>
        <radialGradient cx="50%" cy="22.3655398%" fx="50%" fy="22.3655398%" r="84.2167049%" gradientTransform="translate(0.500000,0.223655),scale(0.782980,1.000000),rotate(90.000000),translate(-0.500000,-0.223655)" id="radialGradient-5">
            <stop stop-color="#D5ED36" offset="0%"></stop>
            <stop stop-color="#EBFF67" offset="5.41596284%"></stop>
            <stop stop-color="#7FBA15" offset="100%"></stop>
        </radialGradient>
        <linearGradient x1="50%" y1="0%" x2="50%" y2="100%" id="linearGradient-6">
            <stop stop-color="#FBFBFA" offset="0%"></stop>
            <stop stop-color="#D7D7D3" offset="100%"></stop>
        </linearGradient>
        <circle id="path-7" cx="18" cy="11" r="11"></circle>
        <filter x="-36.4%" y="-27.3%" width="172.7%" height="172.7%" filterUnits="objectBoundingBox" id="filter-8">
            <feMorphology radius="1" operator="dilate" in="SourceAlpha" result="shadowSpreadOuter1"></feMorphology>
            <feOffset dx="0" dy="2" in="shadowSpreadOuter1" result="shadowOffsetOuter1"></feOffset>
            <feMorphology radius="1" operator="erode" in="SourceAlpha" result="shadowInner"></feMorphology>
            <feOffset dx="0" dy="2" in="shadowInner" result="shadowInner"></feOffset>
            <feComposite in="shadowOffsetOuter1" in2="shadowInner" operator="out" result="shadowOffsetOuter1"></feComposite>
            <feGaussianBlur stdDeviation="2" in="shadowOffsetOuter1" result="shadowBlurOuter1"></feGaussianBlur>
            <feColorMatrix values="0 0 0 0 0   0 0 0 0 0   0 0 0 0 0  0 0 0 0.5 0" type="matrix" in="shadowBlurOuter1"></feColorMatrix>
        </filter>
        <linearGradient x1="50%" y1="0%" x2="50%" y2="100%" id="linearGradient-9">
            <stop stop-color="#FBFBFA" offset="0%"></stop>
            <stop stop-color="#D7D7D3" offset="100%"></stop>
        </linearGradient>
        <linearGradient x1="50%" y1="0%" x2="50%" y2="100%" id="linearGradient-10">
            <stop stop-color="#000000" stop-opacity="0" offset="0%"></stop>
            <stop stop-color="#000000" stop-opacity="0.45" offset="99.9102618%"></stop>
        </linearGradient>
        <circle id="path-11" cx="18" cy="11" r="11"></circle>
        <filter x="-36.4%" y="-27.3%" width="172.7%" height="172.7%" filterUnits="objectBoundingBox" id="filter-12">
            <feMorphology radius="1" operator="dilate" in="SourceAlpha" result="shadowSpreadOuter1"></feMorphology>
            <feOffset dx="0" dy="2" in="shadowSpreadOuter1" result="shadowOffsetOuter1"></feOffset>
            <feMorphology radius="1" operator="erode" in="SourceAlpha" result="shadowInner"></feMorphology>
            <feOffset dx="0" dy="2" in="shadowInner" result="shadowInner"></feOffset>
            <feComposite in="shadowOffsetOuter1" in2="shadowInner" operator="out" result="shadowOffsetOuter1"></feComposite>
            <feGaussianBlur stdDeviation="2" in="shadowOffsetOuter1" result="shadowBlurOuter1"></feGaussianBlur>
            <feColorMatrix values="0 0 0 0 0   0 0 0 0 0   0 0 0 0 0  0 0 0 0.5 0" type="matrix" in="shadowBlurOuter1"></feColorMatrix>
        </filter>
    </defs>
    <g id="smuxi-frontend-gnome_smuxi-frontend-gnome" stroke="none" stroke-width="1" fill="none" fill-rule="evenodd">
        <g id="编组-5" filter="url(#filter-1)" transform="translate(8.000000, 9.000000)">
            <g id="编组" transform="translate(2.000000, 0.000000)">
                <circle id="椭圆形" fill="url(#linearGradient-2)" cx="38" cy="38" r="38"></circle>
                <circle id="椭圆形备份" stroke="url(#linearGradient-4)" stroke-width="2" fill="url(#radialGradient-3)" cx="38" cy="38" r="35"></circle>
                <path d="M42.2221733,7 C43.7221733,9 41.7221733,9 41.7221733,10.5 C41.7221733,10.5822847 42.2221733,11 42.7221733,11 C43.2221733,11 43.211948,11.8595714 43.2221733,12 C43.2307533,12.1178335 42.4228651,12.4311396 42.2221733,12.5 C41.9603981,12.589819 41.7823142,12.4242156 41.7221733,12.5 C41.6156639,12.6342139 41.4503056,13.5557267 41.2221733,13.5 C41.0421564,13.4560267 40.7905842,11.9315852 40.7221733,12 C39.9216397,12.8005787 38.9183305,13 38.2221733,13 C37.2221733,13 35.2221733,12 35.2221733,14 C35.2221733,16 33.2221733,14.5 33.7221733,16 C34.2221733,17.5 33.2221733,18.5 34.2221733,19.5 C35.2221733,20.5 40.7221733,24.5 43.2221733,24.5 C45.7221733,24.5 45.2221733,24 46.2221733,22.5 C47.1805066,21.0625 47.2204372,21.4618056 47.2221009,20.6174407 L47.2226853,20.260768 C47.2285733,19.3496 47.3021733,18.54 48.2221733,19 C49.1555066,19.4666667 49.2177288,20.3688889 49.221877,19.2675556 L49.2224696,18.7386667 C49.2266177,17.6933333 49.2888399,19 50.2221733,19 C51.2221733,19 51.7221733,20 52.2221733,19 C52.7221733,18 51.7221733,17 53.2221733,16.5 C53.449446,16.4242424 53.6193266,16.3943985 53.7439892,16.3930768 L53.7547275,16.3925221 L53.7443371,16.3384673 C53.7304377,16.2479339 53.7221733,16.1363636 53.7221733,16 C53.7221733,14.5 54.2221733,14 53.7221733,14 C53.2221733,14 51.2221733,16 51.7221733,16 C52.2221733,16 52.2221733,18.5 51.2221733,17.5 C50.2221733,16.5 50.2221733,15.5 49.7221733,16.5 C49.2221733,17.5 48.2221733,19 47.7221733,17.5 C47.2221733,16 48.2221733,14.5 50.2221733,13 C52.2221733,11.5 54.2221733,10.5 56.7221733,12 C59.2221733,13.5 57.7221733,13.5 56.7221733,13.5 C55.7221733,13.5 57.2221733,15 58.7221733,14.5 C60.2221733,14 58.2221733,13 58.7221733,13 C59.2221733,13 61.2221733,14 65,19.5 C68.7778267,25 71,32.5 70.5,33.5 C70,34.5 69.7221733,34.5 69.2221733,33.5 C68.7221733,32.5 66.7221733,33 66.7221733,32 C66.7221733,31 64.7221733,31.5 65.2221733,32.5 C65.7221733,33.5 67.7221733,34.5 67.7221733,34 C67.7221733,33.5 69.2221733,34 69.2221733,35 C69.2221733,36 68.7221733,37 67.7221733,37 C66.7221733,37 65.7221733,40 65.7221733,40.5 C65.7221733,41 59.2221733,39.5 55.2221733,39.5 C51.2221733,39.5 47.7221733,39 47.7221733,40.5 C47.7221733,42 48.7221733,43.5 47.2221733,43.5 C45.7221733,43.5 44.7221733,44 44.7221733,43.5 C44.7221733,43 43.2221733,44.5 43.2221733,44.5 C43.2221733,44.5 41.2221733,43.5 42.2221733,42.5 C43.2221733,41.5 38.7221733,37 38.7221733,37 C38.7221733,37 39.2221733,33.5 36.7221733,33 C34.2221733,32.5 17.7221733,31 16.2221733,31 C14.7221733,31 13.2221733,31 12.2221733,32 C11.2221733,33 9.72217327,30.5 8.72217327,34 C7.72217327,37.5 10.7221733,39.5 11.2221733,40 C11.7221733,40.5 26.7221733,46.5 28.2221733,46.5 C29.7221733,46.5 33.7221733,48.5 32.7221733,50 C31.7221733,51.5 30.2221733,52 31.2221733,54 C32.2221733,56 33.2221733,56.5 30.2221733,56.5 C27.2221733,56.5 14.2221733,54 14.2221733,52 C14.2221733,50 11.1910541,42.297959 8,40 C4.80894587,37.702041 4.9132274,29.297959 9.72217327,22.5 C14.5311191,15.702041 19.7221733,9.5 20.7221733,12.5 C21.7221733,15.5 15.7221733,16.5 17.2221733,18 C18.7221733,19.5 19.2221733,20.5 20.7221733,19 C21.7221733,18 22.3888399,16.8333333 22.7221733,15.5 C24.5162094,16.6986393 25.4132274,17.797959 25.4132274,18.797959 C25.4132274,20.297959 24.9132274,24.797959 27.4132274,27.797959 C29.9132274,30.797959 33.9132274,18.797959 32.9132274,17.297959 C31.9132274,15.797959 31.2221733,15.5 31.2221733,14 L31.2226052,13.6228269 C31.2267084,12.5816327 31.2697923,12.9047619 31.7221733,12 C32.2221733,11 31.2221733,10.5 30.2221733,10 C29.2221733,9.5 27.2221733,7.5 27.2221733,8.5 C27.2221733,9.5 29.7221733,11 30.2221733,11.5 C30.7221733,12 27.2221733,13.5 27.2221733,12.5 C27.2221733,11.5 25.2221733,9.5 25.2221733,10.5 C25.2221733,11.5 26.7221733,13 25.2221733,12.5 C23.7221733,12 22.7221733,11 22.7221733,12 C22.7221733,13 21.7221733,15 21.7221733,14 C21.7221733,13 20.7221733,11.5 22.7221733,10.5 C24.7221733,9.5 23.2221733,9.5 23.2221733,9 C23.2221733,8.5 23.2221733,9.5 24.2221733,9 C25.2221733,8.5 24.7221733,7 26.7221733,7 C28.7221733,7 29.7221733,6.5 31.2221733,6.5 L31.5137185,6.50018222 C32.6507447,6.50255102 32.186459,6.53571429 31.7221733,7 C31.2221733,7.5 32.7221733,7 35.2221733,6.5 C37.7221733,6 40.7221733,5 42.2221733,7 Z M44.4947158,14.4142136 C44.4947158,13.4142136 45.4947158,14.4142136 45.4947158,15.4142136 C45.4947158,16.4142136 46.4947158,16.9142136 46.4947158,16.9142136 C46.4947158,16.9142136 47.4947158,18.4142136 46.4947158,18.9142136 C45.4947158,19.4142136 43.4947158,18.9142136 44.4947158,18.9142136 C45.4947158,18.9142136 44.4947158,17.4142136 44.4947158,16.9142136 L44.4947158,16.9142136 Z M41.7221733,16.5 C41.7221733,16.5 42.2831278,16.0862302 42.7221733,16.5 C42.9875243,16.7500749 43.2221733,17.8116465 43.2221733,18 L43.2221733,18 L42.5555066,18.5 C41.8888399,18.5 41.7221733,16.5 41.7221733,16.5 Z" id="形状结合" fill="url(#radialGradient-5)"></path>
            </g>
            <g id="编组-4" transform="translate(0.000000, 36.000000)">
                <path d="M34.6643777,37.8321819 C32.4756727,40.294475 25.0463586,41.9573889 17.613498,41.9573889 C11.1622612,41.9573889 4.79036711,40.7068009 1.93711964,37.8535534 C0.20811363,36.1245474 -0.594204798,33.6533884 -0.491208783,30.9624447 C-0.389303244,28.2999914 0.600448967,25.4238175 2.43342459,22.881303 C5.4074581,18.7560307 10.6001678,15.5 17.790673,15.5 C24.4733715,15.5 29.255617,18.5761073 32.2556498,22.4852409 C34.2598263,25.0967437 35.4659467,28.0825775 35.910929,30.7744821 C36.4070032,33.7754654 35.9399265,36.3971895 34.6643777,37.8321819 Z" id="路径-100" stroke="#979797"></path>
                <path d="M33.9169684,37.1678181 C31.8242033,39.5221788 24.6608677,40.9573889 17.613498,40.9573889 C11.4884071,40.9573889 5.36877385,39.870994 2.64422642,37.1464466 C1.10194532,35.6041655 0.416529868,33.3920578 0.508059531,31.0006917 C0.603142873,28.5164798 1.53551244,25.8367757 3.24460097,23.4661045 C6.06154477,19.5587309 10.9898378,16.5 17.790673,16.5 C24.1038814,16.5 28.6268398,19.3993165 31.4623405,23.0940597 C33.3588697,25.5652948 34.5031631,28.3898119 34.9243179,30.9375728 C35.3572067,33.5563182 35.0458338,35.8978445 33.9169684,37.1678181 Z" id="路径-100备份" stroke="#F7F7F6" fill="url(#linearGradient-6)"></path>
                <g id="椭圆形">
                    <use fill="black" fill-opacity="1" filter="url(#filter-8)" xlink:href="#path-7"></use>
                    <circle stroke="#979797" stroke-width="1" cx="18" cy="11" r="11.5"></circle>
                </g>
                <circle id="椭圆形备份" stroke="#F7F7F6" fill="url(#linearGradient-9)" cx="18" cy="11" r="10.5"></circle>
                <path d="M27.4858249,28 C27.9858249,28 30.4858249,31.5 31.4858249,33 C32.4858249,34.5 31.4858249,36 29.4858249,37 C28.9858249,33.5 26.9858249,28 27.4858249,28 Z M7.48582493,25 C7.98582493,25 4.48582493,31.5 3.98582493,35 C1.98582493,34 3.48582493,30.5 4.48582493,29 C5.48582493,27.5 6.98582493,25 7.48582493,25 Z" id="形状结合" fill="url(#linearGradient-10)" opacity="0.415387835"></path>
            </g>
            <g id="编组-4备份" transform="translate(44.000000, 36.000000)">
                <path d="M34.6643777,37.8321819 C32.4756727,40.294475 25.0463586,41.9573889 17.613498,41.9573889 C11.1622612,41.9573889 4.79036711,40.7068009 1.93711964,37.8535534 C0.20811363,36.1245474 -0.594204798,33.6533884 -0.491208783,30.9624447 C-0.389303244,28.2999914 0.600448967,25.4238175 2.43342459,22.881303 C5.4074581,18.7560307 10.6001678,15.5 17.790673,15.5 C24.4733715,15.5 29.255617,18.5761073 32.2556498,22.4852409 C34.2598263,25.0967437 35.4659467,28.0825775 35.910929,30.7744821 C36.4070032,33.7754654 35.9399265,36.3971895 34.6643777,37.8321819 Z" id="路径-100" stroke="#979797"></path>
                <path d="M33.9169684,37.1678181 C31.8242033,39.5221788 24.6608677,40.9573889 17.613498,40.9573889 C11.4884071,40.9573889 5.36877385,39.870994 2.64422642,37.1464466 C1.10194532,35.6041655 0.416529868,33.3920578 0.508059531,31.0006917 C0.603142873,28.5164798 1.53551244,25.8367757 3.24460097,23.4661045 C6.06154477,19.5587309 10.9898378,16.5 17.790673,16.5 C24.1038814,16.5 28.6268398,19.3993165 31.4623405,23.0940597 C33.3588697,25.5652948 34.5031631,28.3898119 34.9243179,30.9375728 C35.3572067,33.5563182 35.0458338,35.8978445 33.9169684,37.1678181 Z" id="路径-100备份" stroke="#F7F7F6" fill="url(#linearGradient-6)"></path>
                <g id="椭圆形">
                    <use fill="black" fill-opacity="1" filter="url(#filter-12)" xlink:href="#path-11"></use>
                    <circle stroke="#979797" stroke-width="1" cx="18" cy="11" r="11.5"></circle>
                </g>
                <circle id="椭圆形备份" stroke="#F7F7F6" fill="url(#linearGradient-9)" cx="18" cy="11" r="10.5"></circle>
                <path d="M27.4858249,28 C27.9858249,28 30.4858249,31.5 31.4858249,33 C32.4858249,34.5 31.4858249,36 29.4858249,37 C28.9858249,33.5 26.9858249,28 27.4858249,28 Z M7.48582493,25 C7.98582493,25 4.48582493,31.5 3.98582493,35 C1.98582493,34 3.48582493,30.5 4.48582493,29 C5.48582493,27.5 6.98582493,25 7.48582493,25 Z" id="形状结合" fill="url(#linearGradient-10)" opacity="0.415387835"></path>
            </g>
            <g id="编组-2" transform="translate(17.517170, 16.961481)">
                <path d="M4.12425169,26.528469 C3.53497882,26.6126508 2.962729,26.6515867 2.40756612,26.6454367 C2.60974837,26.1944036 2.82818482,25.6937932 3.06376531,25.1444135 C3.94217926,23.0959299 4.49371182,21.6875453 4.65622474,20.9147104 C3.34793919,19.7650463 0.575222901,17.288037 -0.522927652,13.9245281 C-1.21868939,11.7934898 -1.27260043,9.31331302 0.0884031452,6.59130587 C1.55841245,3.65128727 5.09304179,0.826815248 9.70984968,-0.382348724 C13.4331234,-1.35749185 17.8480393,-1.28747299 22.3708873,0.616884094 C25.3728917,1.88088593 27.9125479,4.22807386 29.2507047,7.11025788 C30.4694463,9.73523984 30.7060194,12.8028658 29.4059073,15.9231349 C28.3289889,18.507739 25.8607108,21.0010863 21.8712025,22.4709052 C18.806383,23.6000492 14.8258194,24.1276941 9.8979923,23.5933861 C8.44662143,25.1994629 6.52650267,26.1852903 4.12425169,26.528469 Z" id="路径-99" stroke="#FCAF3E" stroke-width="2" fill="#F4F4F4"></path>
                <path d="M1.37830629,13.303795 C0.825665554,11.6111199 0.798326685,9.64359475 1.87725753,7.48573306 C3.14764245,4.94496322 6.25848281,2.5890372 10.2165685,1.55239572 C13.5637661,0.675748725 17.5311195,0.749142688 21.5947733,2.46015484 C24.1372438,3.53066874 26.3016639,5.50781575 27.4366868,7.95248049 C28.432797,10.0979486 28.621882,12.6047954 27.5597534,15.1539041 C26.6520268,17.332448 24.5150649,19.3654341 21.1797918,20.5942189 C18.2407787,21.6770132 14.3897539,22.1318983 9.60437153,21.5459331 C9.41072477,21.5222212 9.21897408,21.4972245 9.02910438,21.4712739 C8.92666433,21.6217228 8.81762674,21.7692429 8.70196153,21.9138244 C7.89510857,22.9223906 6.87795146,23.6477035 5.65602115,24.0985219 C6.37290976,22.2634303 6.70667687,21.0688533 6.70667687,20.5184656 C6.30584365,19.7034188 6.13209761,19.5492054 5.90870774,19.3528923 C4.82271159,18.3985278 2.34355197,16.2602316 1.37830629,13.303795 Z" id="路径-99备份" stroke="#FCE987" stroke-width="2"></path>
                <path d="M18.4828303,14.0385195 C19.0351151,14.0385195 19.4828303,14.4862347 19.4828303,15.0385195 C19.4828303,15.5908042 19.0351151,16.0385195 18.4828303,16.0385195 L11.4828303,16.0385195 C10.9305456,16.0385195 10.4828303,15.5908042 10.4828303,15.0385195 C10.4828303,14.4862347 10.9305456,14.0385195 11.4828303,14.0385195 L18.4828303,14.0385195 Z M7.48283034,14.0385195 C8.03511509,14.0385195 8.48283034,14.4862347 8.48283034,15.0385195 C8.48283034,15.5908042 8.03511509,16.0385195 7.48283034,16.0385195 L5.48283034,16.0385195 C4.93054559,16.0385195 4.48283034,15.5908042 4.48283034,15.0385195 C4.48283034,14.4862347 4.93054559,14.0385195 5.48283034,14.0385195 L7.48283034,14.0385195 Z M6.48283034,10.0385195 C7.03511509,10.0385195 7.48283034,10.4862347 7.48283034,11.0385195 C7.48283034,11.5908042 7.03511509,12.0385195 6.48283034,12.0385195 L4.48283034,12.0385195 C3.93054559,12.0385195 3.48283034,11.5908042 3.48283034,11.0385195 C3.48283034,10.4862347 3.93054559,10.0385195 4.48283034,10.0385195 L6.48283034,10.0385195 Z M16.4828303,10.0385195 C17.0351151,10.0385195 17.4828303,10.4862347 17.4828303,11.0385195 C17.4828303,11.5908042 17.0351151,12.0385195 16.4828303,12.0385195 L9.48283034,12.0385195 C8.93054559,12.0385195 8.48283034,11.5908042 8.48283034,11.0385195 C8.48283034,10.4862347 8.93054559,10.0385195 9.48283034,10.0385195 L16.4828303,10.0385195 Z M11.4828303,6.03851947 C12.0351151,6.03851947 12.4828303,6.48623472 12.4828303,7.03851947 C12.4828303,7.59080422 12.0351151,8.03851947 11.4828303,8.03851947 L7.48283034,8.03851947 C6.93054559,8.03851947 6.48283034,7.59080422 6.48283034,7.03851947 C6.48283034,6.48623472 6.93054559,6.03851947 7.48283034,6.03851947 L11.4828303,6.03851947 Z M16.4828303,6.03851947 C17.0351151,6.03851947 17.4828303,6.48623472 17.4828303,7.03851947 C17.4828303,7.59080422 17.0351151,8.03851947 16.4828303,8.03851947 L14.4828303,8.03851947 C13.9305456,8.03851947 13.4828303,7.59080422 13.4828303,7.03851947 C13.4828303,6.48623472 13.9305456,6.03851947 14.4828303,6.03851947 L16.4828303,6.03851947 Z M24.4828303,6.03851947 C25.0351151,6.03851947 25.4828303,6.48623472 25.4828303,7.03851947 C25.4828303,7.59080422 25.0351151,8.03851947 24.4828303,8.03851947 L19.4828303,8.03851947 C18.9305456,8.03851947 18.4828303,7.59080422 18.4828303,7.03851947 C18.4828303,6.48623472 18.9305456,6.03851947 19.4828303,6.03851947 L24.4828303,6.03851947 Z" id="形状结合" fill="#000000" opacity="0.379603795"></path>
            </g>
            <g id="编组-3" transform="translate(37.000000, 22.000000)">
                <path d="M3.68046117,23.9896686 C3.09382953,24.0746543 2.52558946,24.1091608 1.97574785,24.0935561 C2.17090257,23.6541727 2.38392808,23.1594691 2.61604582,22.6105356 C3.37619317,20.8128688 3.86173173,19.5672559 4.01530682,18.8695935 C2.88665452,17.8637711 0.409707988,15.6168008 -0.572059315,12.5673796 C-1.19615827,10.6288953 -1.24491974,8.37278387 -0.024070569,5.89667264 C1.2924202,3.22658229 4.45565122,0.658836903 8.59146873,-0.439619702 C11.9213946,-1.32403471 15.8700407,-1.26134668 19.9152846,0.465919361 C22.605434,1.61457784 24.881618,3.74718495 26.0808157,6.36647505 C27.17279,8.75156746 27.3850129,11.538871 26.2201092,14.3740431 C25.2546503,16.7238013 23.0438905,18.9924015 19.4664311,20.3289888 C16.7430374,21.3464854 13.2098204,21.8261594 8.83863354,21.3535168 C7.53689786,22.7940386 5.82155558,23.6794871 3.68046117,23.9896686 Z" id="路径-99备份-2" stroke="#FCAF3E" stroke-width="2" fill="#FFFFFF" transform="translate(13.000000, 11.500000) scale(-1, 1) translate(-13.000000, -11.500000) "></path>
                <path d="M1.33170728,11.9544581 C0.847120146,10.4493049 0.823724885,8.69981421 1.76974208,6.78111379 C2.8869512,4.51520404 5.62545455,2.41748107 9.1048616,1.49336446 C12.0541072,0.710056599 15.5496191,0.776526219 19.129909,2.30526303 C21.3637183,3.25907028 23.2651483,5.0209608 24.2623417,7.19903265 C25.1373416,9.11020931 25.3031387,11.3432781 24.3701746,13.6139496 C23.5731023,15.5538842 21.6940228,17.3617015 18.766462,18.4554778 C16.1710908,19.4251436 12.7701717,19.8305079 8.5447769,19.3058206 C8.34800101,19.281386 8.15345221,19.2554329 7.96101667,19.2281106 C7.86057367,19.3816055 7.75239557,19.5318534 7.63643978,19.678841 C6.98406298,20.5058051 6.17401125,21.1173713 5.21058747,21.5199795 C5.79627892,19.9718374 6.06800762,18.9571195 6.06800762,18.4789377 C5.68310129,17.6784861 5.52714168,17.5379606 5.32650705,17.3591596 C4.36956855,16.5063577 2.18240886,14.5967822 1.33170728,11.9544581 Z" id="路径-99备份-3" stroke="#FCE987" stroke-width="2" transform="translate(13.000000, 11.500000) scale(-1, 1) translate(-13.000000, -11.500000) "></path>
                <path d="M18,13 C18.5522847,13 19,13.4477153 19,14 C19,14.5522847 18.5522847,15 18,15 L11,15 C10.4477153,15 10,14.5522847 10,14 C10,13.4477153 10.4477153,13 11,13 L18,13 Z M7,13 C7.55228475,13 8,13.4477153 8,14 C8,14.5522847 7.55228475,15 7,15 L5,15 C4.44771525,15 4,14.5522847 4,14 C4,13.4477153 4.44771525,13 5,13 L7,13 Z M6,9 C6.55228475,9 7,9.44771525 7,10 C7,10.5522847 6.55228475,11 6,11 L4,11 C3.44771525,11 3,10.5522847 3,10 C3,9.44771525 3.44771525,9 4,9 L6,9 Z M14,9 C14.5522847,9 15,9.44771525 15,10 C15,10.5522847 14.5522847,11 14,11 L9,11 C8.44771525,11 8,10.5522847 8,10 C8,9.44771525 8.44771525,9 9,9 L14,9 Z M22,9 C22.5522847,9 23,9.44771525 23,10 C23,10.5522847 22.5522847,11 22,11 L17,11 C16.4477153,11 16,10.5522847 16,10 C16,9.44771525 16.4477153,9 17,9 L22,9 Z M11,5 C11.5522847,5 12,5.44771525 12,6 C12,6.55228475 11.5522847,7 11,7 L7,7 C6.44771525,7 6,6.55228475 6,6 C6,5.44771525 6.44771525,5 7,5 L11,5 Z M20,5 C20.5522847,5 21,5.44771525 21,6 C21,6.55228475 20.5522847,7 20,7 L14,7 C13.4477153,7 13,6.55228475 13,6 C13,5.44771525 13.4477153,5 14,5 L20,5 Z" id="形状结合备份" fill="#000000" opacity="0.578985305"></path>
            </g>
        </g>
    </g>
</svg>