<svg xmlns="http://www.w3.org/2000/svg" width="96" height="96" viewBox="0 0 96 96">
  <defs>
    <filter id="steam_icon-a" width="129.3%" height="129.3%" x="-14.6%" y="-14.6%" filterUnits="objectBoundingBox">
      <feOffset dy="2" in="SourceAlpha" result="shadowOffsetOuter1"/>
      <feGaussianBlur in="shadowOffsetOuter1" result="shadowBlurOuter1" stdDeviation="2"/>
      <feColorMatrix in="shadowBlurOuter1" result="shadowMatrixOuter1" values="0 0 0 0 0   0 0 0 0 0   0 0 0 0 0  0 0 0 0.2 0"/>
      <feMerge>
        <feMergeNode in="shadowMatrixOuter1"/>
        <feMergeNode in="SourceGraphic"/>
      </feMerge>
    </filter>
    <linearGradient id="steam_icon-b" x1="50%" x2="50%" y1="0%" y2="100%">
      <stop offset="0%" stop-color="#1987BF"/>
      <stop offset="100%" stop-color="#145385"/>
    </linearGradient>
  </defs>
  <g fill="none" filter="url(#steam_icon-a)" transform="translate(7 7)">
    <circle cx="41" cy="41" r="41" fill="url(#steam_icon-b)"/>
    <path fill="#FFF" d="M53.9077647,15 C62.3605176,15 69.2137882,21.8532706 69.2137882,30.3060235 C69.2137882,38.7587765 62.3605176,45.6120471 53.9077647,45.6120471 C53.8672471,45.6120471 53.8305882,45.6062588 53.7900706,45.6062588 L53.7900706,45.6062588 L39.8674353,55.9440471 C39.8114824,62.3612706 34.5962824,67.5456 28.1674824,67.5456 C22.5432471,67.5456 17.8489882,63.5768 16.7222118,58.2882824 L16.7222118,58.2882824 L1.52575666,52.1194853 C0.531704505,48.5834143 0,44.8538003 0,41 C0,39.505723 0.0799381601,38.0301166 0.235771375,36.5772238 L21.7290353,46.0693176 C23.5774118,44.848 25.7885176,44.1341176 28.1674824,44.1341176 C28.4877647,44.1341176 28.8022588,44.1572706 29.1148235,44.1823529 L29.1148235,44.1823529 L38.6036706,30.2539294 C38.6326118,21.8243294 45.4723765,15 53.9077647,15 Z M28.3681412,47.4392 C27.5018353,47.4392 26.8670588,47.5704 26.0817882,47.8135059 L26.0817882,47.8135059 L31.3529412,49.9648 C33.2823529,50.9082824 34.8509647,53.1811294 34.8509647,55.8398588 C34.8509647,59.3417412 31.5536,62.1799059 28.0517176,62.1799059 C27.1622588,62.1799059 26.3364706,61.9946824 25.4354353,61.6666824 L25.4354353,61.6666824 L20.6678588,59.8163765 C22.0859765,62.4500235 24.9993882,64.2405176 28.2002824,64.2405176 C32.8385882,64.2405176 36.6684706,60.4800941 36.6684706,55.8398588 C36.6684706,51.1996235 33.0083765,47.4392 28.3681412,47.4392 Z M53.9077647,20.1515294 C48.2989647,20.1515294 43.7532706,24.6972235 43.7532706,30.3060235 C43.7532706,35.9148235 48.2989647,40.4605176 53.9077647,40.4605176 C59.5165647,40.4605176 64.0622588,35.9148235 64.0622588,30.3060235 C64.0622588,24.6972235 59.5165647,20.1515294 53.9077647,20.1515294 Z M53.7529412,24 C57.4824876,24 60.5058824,27.0233947 60.5058824,30.7529412 C60.5058824,34.4824876 57.4824876,37.5058824 53.7529412,37.5058824 C50.0233947,37.5058824 47,34.4824876 47,30.7529412 C47,27.0233947 50.0233947,24 53.7529412,24 Z"/>
  </g>
</svg>
