<?xml version="1.0" encoding="UTF-8"?>
<svg width="96px" height="96px" viewBox="0 0 96 96" version="1.1" xmlns="http://www.w3.org/2000/svg" xmlns:xlink="http://www.w3.org/1999/xlink">
    <!-- Generator: Sketch 62 (91390) - https://sketch.com -->
    <title>sync-ui_sync</title>
    <desc>Created with Sketch.</desc>
    <defs>
        <filter x="-14.6%" y="-19.4%" width="129.3%" height="138.7%" filterUnits="objectBoundingBox" id="filter-1">
            <feOffset dx="0" dy="2" in="SourceAlpha" result="shadowOffsetOuter1"></feOffset>
            <feGaussianBlur stdDeviation="2" in="shadowOffsetOuter1" result="shadowBlurOuter1"></feGaussianBlur>
            <feComposite in="shadowBlurOuter1" in2="SourceAlpha" operator="out" result="shadowBlurOuter1"></feComposite>
            <feColorMatrix values="0 0 0 0 0   0 0 0 0 0   0 0 0 0 0  0 0 0 0.2 0" type="matrix" in="shadowBlurOuter1" result="shadowMatrixOuter1"></feColorMatrix>
            <feMerge>
                <feMergeNode in="shadowMatrixOuter1"></feMergeNode>
                <feMergeNode in="SourceGraphic"></feMergeNode>
            </feMerge>
        </filter>
        <linearGradient x1="50%" y1="0%" x2="50%" y2="100%" id="linearGradient-2">
            <stop stop-color="#EEEEEE" offset="0%"></stop>
            <stop stop-color="#E2E2E2" offset="100%"></stop>
        </linearGradient>
        <linearGradient x1="50%" y1="0%" x2="50%" y2="100%" id="linearGradient-3">
            <stop stop-color="#31CEEC" offset="0%"></stop>
            <stop stop-color="#1682D4" offset="100%"></stop>
        </linearGradient>
        <linearGradient x1="50%" y1="0%" x2="50%" y2="100%" id="linearGradient-4">
            <stop stop-color="#FFFFFF" offset="0%"></stop>
            <stop stop-color="#D4EDF2" offset="100%"></stop>
        </linearGradient>
    </defs>
    <g id="sync-ui_sync" stroke="none" stroke-width="1" fill="none" fill-rule="evenodd">
        <g id="编组" filter="url(#filter-1)" transform="translate(7.000000, 17.000000)">
            <path d="M15.9133224,0 L66.0866776,0 C70.6119843,-8.31285345e-16 74.4335689,3.36015899 75.0126784,7.84825796 L80.2534637,48.4643439 C81.1015832,55.0372694 76.4607109,61.053215 69.8877854,61.9013344 C69.3785381,61.9670437 68.8655984,62 68.3521293,62 L13.6478707,62 C7.02045367,62 1.64787066,56.627417 1.64787066,50 C1.64787066,49.4865309 1.68082694,48.9735912 1.74653626,48.4643439 L6.98732155,7.84825796 C7.5664311,3.36015899 11.3880157,2.60764218e-15 15.9133224,0 Z" id="矩形" fill="url(#linearGradient-2)"></path>
            <path d="M17.1475215,5 L64.8524785,5 C66.8621548,5 68.5598226,6.49113589 68.8190598,8.48402195 L73.9719725,48.0970384 C74.4706644,51.9307325 71.767111,55.4428252 67.9334169,55.9415172 C67.634006,55.9804649 67.3323888,56 67.0304553,56 L14.9695447,56 C11.1035514,56 7.96954468,52.8659932 7.96954468,49 C7.96954468,48.6980665 7.98907976,48.3964493 8.02802752,48.0970384 L13.1809402,8.48402195 C13.4401774,6.49113589 15.1378452,5 17.1475215,5 Z" id="矩形备份" fill="url(#linearGradient-3)"></path>
            <path d="M48.4594595,19.5 C57.0066424,19.5 64,25.6142304 64,33.25 C64,40.8857696 57.0066424,47 48.4594595,47 C43.4949587,47 38.9076954,44.9264752 35.9895616,41.4610983 C35.5458877,40.9342213 35.6110283,40.1454796 36.1350573,39.6993945 C36.6590863,39.2533093 37.4435644,39.3188039 37.8872384,39.8456809 C40.3259312,42.7417064 44.2158079,44.5 48.4594595,44.5 C55.704635,44.5 61.5135135,39.4213491 61.5135135,33.25 C61.5135135,27.0786509 55.704635,22 48.4594595,22 C44.6672716,22 41.1663812,23.405558 38.7331216,25.7496467 L42.2432432,25.75 C42.8808229,25.75 43.4063062,26.2325502 43.4781223,26.8542236 L43.4864865,27 C43.4864865,27.6410448 43.0065446,28.169384 42.3882317,28.2415903 L42.2432432,28.25 L34.1621622,28.25 L34.1621622,20.75 C34.1621622,20.0596441 34.7187811,19.5 35.4054054,19.5 C36.0429851,19.5 36.5684684,19.9825502 36.6402844,20.6042236 L36.6486486,20.75 L36.6484767,24.3082295 C39.5614397,21.2953994 43.8422453,19.5 48.4594595,19.5 Z M33.5405405,12 C38.5050413,12 43.0923046,14.0735248 46.0104384,17.5389017 C46.4541123,18.0657787 46.3889717,18.8545204 45.8649427,19.3006055 C45.3409137,19.7466907 44.5564356,19.6811961 44.1127616,19.1543191 C41.6740688,16.2582936 37.7841921,14.5 33.5405405,14.5 C26.295365,14.5 20.4864865,19.5786509 20.4864865,25.75 C20.4864865,31.9213491 26.295365,37 33.5405405,37 C37.3327284,37 40.8336188,35.594442 43.2668784,33.2503533 L39.7567568,33.25 C39.1191771,33.25 38.5936938,32.7674498 38.5218777,32.1457764 L38.5135135,32 C38.5135135,31.3589552 38.9934554,30.830616 39.6117683,30.7584097 L39.7567568,30.75 L47.8378378,30.75 L47.8378378,38.25 C47.8378378,38.9403559 47.2812189,39.5 46.5945946,39.5 C45.9570149,39.5 45.4315316,39.0174498 45.3597156,38.3957764 L45.3513514,38.25 L45.3515233,34.6917705 C42.4385603,37.7046006 38.1577547,39.5 33.5405405,39.5 C24.9933576,39.5 18,33.3857696 18,25.75 C18,18.1142304 24.9933576,12 33.5405405,12 Z" id="形状结合" fill="url(#linearGradient-4)" fill-rule="nonzero"></path>
        </g>
    </g>
</svg>