<?xml version="1.0" encoding="UTF-8"?>
<svg width="96px" height="96px" viewBox="0 0 96 96" version="1.1" xmlns="http://www.w3.org/2000/svg" xmlns:xlink="http://www.w3.org/1999/xlink">
    <!-- Generator: Sketch 62 (91390) - https://sketch.com -->
    <title>threadscope_threadscope</title>
    <desc>Created with Sketch.</desc>
    <defs>
        <filter x="-22.1%" y="-22.7%" width="144.1%" height="145.5%" filterUnits="objectBoundingBox" id="filter-1">
            <feOffset dx="0" dy="2" in="SourceAlpha" result="shadowOffsetOuter1"></feOffset>
            <feGaussianBlur stdDeviation="2" in="shadowOffsetOuter1" result="shadowBlurOuter1"></feGaussianBlur>
            <feComposite in="shadowBlurOuter1" in2="SourceAlpha" operator="out" result="shadowBlurOuter1"></feComposite>
            <feColorMatrix values="0 0 0 0 0   0 0 0 0 0   0 0 0 0 0  0 0 0 0.2 0" type="matrix" in="shadowBlurOuter1" result="shadowMatrixOuter1"></feColorMatrix>
            <feMerge>
                <feMergeNode in="shadowMatrixOuter1"></feMergeNode>
                <feMergeNode in="SourceGraphic"></feMergeNode>
            </feMerge>
        </filter>
    </defs>
    <g id="threadscope_threadscope" stroke="none" stroke-width="1" fill="none" fill-rule="evenodd">
        <g id="编组" filter="url(#filter-1)" transform="translate(14.000000, 15.000000)" stroke-width="6">
            <path d="M0,8 L0,4 C-2.705415e-16,1.790861 1.790861,4.05812251e-16 4,0 C6.209139,-4.05812251e-16 8,1.790861 8,4 L8,12 C8,14.209139 9.790861,16 12,16 C14.209139,16 16,14.209139 16,12 L16,4 C16,1.790861 17.790861,4.05812251e-16 20,0 C22.209139,-4.05812251e-16 24,1.790861 24,4 L24,12 C24,14.209139 25.790861,16 28,16 C30.209139,16 32,14.209139 32,12 L32,4 C32,1.790861 33.790861,4.05812251e-16 36,0 C38.209139,-4.05812251e-16 40,1.790861 40,4 L40,12 C40,14.209139 41.790861,16 44,16 C46.209139,16 48,14.209139 48,12 L48,4 C48,1.790861 49.790861,4.05812251e-16 52,0 C54.209139,-4.05812251e-16 56,1.790861 56,4 L56,12 C56,14.209139 57.790861,16 60,16 C62.209139,16 64,14.209139 64,12 L64,8 L64,8" id="路径-338" stroke="#39B54A"></path>
            <path d="M0,58 L0,54 C-2.705415e-16,51.790861 1.790861,50 4,50 C6.209139,50 8,51.790861 8,54 L8,62 C8,64.209139 9.790861,66 12,66 C14.209139,66 16,64.209139 16,62 L16,54 C16,51.790861 17.790861,50 20,50 C22.209139,50 24,51.790861 24,54 L24,62 C24,64.209139 25.790861,66 28,66 C30.209139,66 32,64.209139 32,62 L32,54 C32,51.790861 33.790861,50 36,50 C38.209139,50 40,51.790861 40,54 L40,62 C40,64.209139 41.790861,66 44,66 C46.209139,66 48,64.209139 48,62 L48,54 C48,51.790861 49.790861,50 52,50 C54.209139,50 56,51.790861 56,54 L56,62 C56,64.209139 57.790861,66 60,66 C62.209139,66 64,64.209139 64,62 L64,58 L64,58" id="路径-338备份-2" stroke="#BF1E2D"></path>
            <path d="M4,33 L4,29 C4,26.790861 5.790861,25 8,25 C10.209139,25 12,26.790861 12,29 L12,37 C12,39.209139 13.790861,41 16,41 C18.209139,41 20,39.209139 20,37 L20,29 C20,26.790861 21.790861,25 24,25 C26.209139,25 28,26.790861 28,29 L28,37 C28,39.209139 29.790861,41 32,41 C34.209139,41 36,39.209139 36,37 L36,29 C36,26.790861 37.790861,25 40,25 C42.209139,25 44,26.790861 44,29 L44,37 C44,39.209139 45.790861,41 48,41 C50.209139,41 52,39.209139 52,37 L52,29 C52,26.790861 53.790861,25 56,25 C58.209139,25 60,26.790861 60,29 L60,37 C60,39.209139 61.790861,41 64,41 C66.209139,41 68,39.209139 68,37 L68,33 L68,33" id="路径-338备份" stroke="#F7941E"></path>
        </g>
    </g>
</svg>