<?xml version="1.0" encoding="UTF-8"?>
<svg width="96px" height="96px" viewBox="0 0 96 96" version="1.1" xmlns="http://www.w3.org/2000/svg" xmlns:xlink="http://www.w3.org/1999/xlink">
    <!-- Generator: Sketch 62 (91390) - https://sketch.com -->
    <title>tkcon_tkcon-small</title>
    <desc>Created with Sketch.</desc>
    <defs>
        <filter x="-16.0%" y="-16.2%" width="132.0%" height="132.4%" filterUnits="objectBoundingBox" id="filter-1">
            <feOffset dx="0" dy="2" in="SourceAlpha" result="shadowOffsetOuter1"></feOffset>
            <feGaussianBlur stdDeviation="2" in="shadowOffsetOuter1" result="shadowBlurOuter1"></feGaussianBlur>
            <feComposite in="shadowBlurOuter1" in2="SourceAlpha" operator="out" result="shadowBlurOuter1"></feComposite>
            <feColorMatrix values="0 0 0 0 0   0 0 0 0 0   0 0 0 0 0  0 0 0 0.2 0" type="matrix" in="shadowBlurOuter1" result="shadowMatrixOuter1"></feColorMatrix>
            <feMerge>
                <feMergeNode in="shadowMatrixOuter1"></feMergeNode>
                <feMergeNode in="SourceGraphic"></feMergeNode>
            </feMerge>
        </filter>
        <linearGradient x1="50%" y1="2.37056186%" x2="50%" y2="99.3351881%" id="linearGradient-2">
            <stop stop-color="#CBCDCB" offset="0%"></stop>
            <stop stop-color="#777973" offset="100%"></stop>
        </linearGradient>
        <rect id="path-3" x="0" y="9.82526608" width="74" height="64" rx="12"></rect>
        <filter x="-1.4%" y="-1.6%" width="102.7%" height="103.1%" filterUnits="objectBoundingBox" id="filter-4">
            <feOffset dx="0" dy="-2" in="SourceAlpha" result="shadowOffsetInner1"></feOffset>
            <feComposite in="shadowOffsetInner1" in2="SourceAlpha" operator="arithmetic" k2="-1" k3="1" result="shadowInnerInner1"></feComposite>
            <feColorMatrix values="0 0 0 0 0   0 0 0 0 0   0 0 0 0 0  0 0 0 0.13 0" type="matrix" in="shadowInnerInner1" result="shadowMatrixInner1"></feColorMatrix>
            <feOffset dx="0" dy="2" in="SourceAlpha" result="shadowOffsetInner2"></feOffset>
            <feComposite in="shadowOffsetInner2" in2="SourceAlpha" operator="arithmetic" k2="-1" k3="1" result="shadowInnerInner2"></feComposite>
            <feColorMatrix values="0 0 0 0 1   0 0 0 0 1   0 0 0 0 1  0 0 0 0.5 0" type="matrix" in="shadowInnerInner2" result="shadowMatrixInner2"></feColorMatrix>
            <feMerge>
                <feMergeNode in="shadowMatrixInner1"></feMergeNode>
                <feMergeNode in="shadowMatrixInner2"></feMergeNode>
            </feMerge>
        </filter>
        <linearGradient x1="22.9608114%" y1="9.42650128%" x2="43.7916914%" y2="84.2449465%" id="linearGradient-5">
            <stop stop-color="#9DAD84" offset="0%"></stop>
            <stop stop-color="#242D19" offset="100%"></stop>
        </linearGradient>
        <rect id="path-6" x="8" y="17.8252661" width="58" height="48" rx="4"></rect>
        <filter x="-0.9%" y="-1.0%" width="101.7%" height="102.1%" filterUnits="objectBoundingBox" id="filter-7">
            <feOffset dx="0" dy="1" in="SourceAlpha" result="shadowOffsetInner1"></feOffset>
            <feComposite in="shadowOffsetInner1" in2="SourceAlpha" operator="arithmetic" k2="-1" k3="1" result="shadowInnerInner1"></feComposite>
            <feColorMatrix values="0 0 0 0 0   0 0 0 0 0   0 0 0 0 0  0 0 0 0.11 0" type="matrix" in="shadowInnerInner1" result="shadowMatrixInner1"></feColorMatrix>
            <feOffset dx="0" dy="-1" in="SourceAlpha" result="shadowOffsetInner2"></feOffset>
            <feComposite in="shadowOffsetInner2" in2="SourceAlpha" operator="arithmetic" k2="-1" k3="1" result="shadowInnerInner2"></feComposite>
            <feColorMatrix values="0 0 0 0 1   0 0 0 0 1   0 0 0 0 1  0 0 0 0.69 0" type="matrix" in="shadowInnerInner2" result="shadowMatrixInner2"></feColorMatrix>
            <feMerge>
                <feMergeNode in="shadowMatrixInner1"></feMergeNode>
                <feMergeNode in="shadowMatrixInner2"></feMergeNode>
            </feMerge>
        </filter>
        <radialGradient cx="50%" cy="24.3448988%" fx="50%" fy="24.3448988%" r="90.6845871%" id="radialGradient-8">
            <stop stop-color="#CBF999" offset="0%"></stop>
            <stop stop-color="#2D832C" offset="100%"></stop>
        </radialGradient>
        <linearGradient x1="50%" y1="0%" x2="50%" y2="100%" id="linearGradient-9">
            <stop stop-color="#529CDB" offset="0%"></stop>
            <stop stop-color="#2A65AF" offset="100%"></stop>
        </linearGradient>
    </defs>
    <g id="tkcon_tkcon-small" stroke="none" stroke-width="1" fill="none" fill-rule="evenodd">
        <g id="编组-2" filter="url(#filter-1)" transform="translate(10.000000, 8.174734)">
            <g id="矩形备份-59">
                <use fill="url(#linearGradient-2)" fill-rule="evenodd" xlink:href="#path-3"></use>
                <use fill="black" fill-opacity="1" filter="url(#filter-4)" xlink:href="#path-3"></use>
            </g>
            <g id="矩形备份">
                <use fill="url(#linearGradient-5)" fill-rule="evenodd" xlink:href="#path-6"></use>
                <use fill="black" fill-opacity="1" filter="url(#filter-7)" xlink:href="#path-6"></use>
                <rect stroke="#444444" stroke-width="2" stroke-linejoin="square" x="9" y="18.8252661" width="56" height="46" rx="4"></rect>
            </g>
            <rect id="矩形" stroke="#E6FFD2" fill="#FAFEFA" opacity="0.785714286" x="26.5" y="54.3252661" width="21" height="4" rx="2"></rect>
            <circle id="椭圆形" fill="url(#radialGradient-8)" cx="52" cy="68.8252661" r="2"></circle>
            <g id="编组" opacity="0.826683408" transform="translate(7.000000, 0.000000)">
                <path d="M47.8510513,2.67742611 L49.4462154,-3.90798505e-14 L45.954913,1.52989488 C36.2630639,5.83341055 29.4362283,10.3131958 25.4769572,15.0111477 L25.342,15.1722661 L25.3425331,11.766277 L23.7339621,12.9999635 L23.1886291,13.4220126 C14.8952215,19.8992825 9.37250614,26.9327671 6.6477559,34.5201427 L6.436,35.1282661 L6.42390019,35.0979178 C6.13503352,34.4440287 5.81406857,33.9532829 5.4493593,33.6175078 L4.43352715,32.6822666 L3.86179008,33.9391309 C-0.306839483,43.1031362 1.26710637,52.5283749 7.958581,54.8866557 C15.2995727,57.4738461 25.3975579,52.8992745 32.717113,45.3680361 L34.3663729,43.6710792 L32,43.6710792 L31.4626476,43.6660057 L31.243,43.6592661 L31.4018065,43.5752209 C37.2875445,40.361325 44.8904515,34.1988994 54.2532202,25.0780197 L55.9197234,23.4472632 L54.4834729,22.8822273 L54.0741074,22.7249428 C53.8045265,22.6239099 53.5415943,22.5305278 53.2852513,22.4448216 L52.89,22.3162661 L52.8997827,22.310317 C61.0947448,16.5793314 65.8225786,10.1422297 67.0187045,2.99510931 L67.1683502,2.10094248 L66.2930906,1.86461904 L65.8300789,1.7441534 C60.1115779,0.312345936 54.0964331,0.875983969 47.8077296,3.41636247 L47.362,3.59926608 L47.4548899,3.40392049 C47.5760995,3.15944553 47.7081398,2.91729787 47.8510513,2.67742611 Z" id="路径" fill="#000000" fill-rule="nonzero"></path>
                <path d="M64.871,3.57026608 L64.818063,3.8165987 C63.301593,10.4370104 58.339639,16.4791751 49.8640343,21.9389733 L47.5194242,23.4493195 L50.2895582,23.7728932 L50.5497106,23.8079198 C50.9925139,23.8751117 51.481334,23.9864013 52.0152389,24.1421805 L52.267,24.2182661 L51.7964821,24.6736574 C41.2884827,34.800862 33.1349254,41.0033816 27.4019865,43.2658325 L24.7669403,44.305729 L27.4708608,45.1505171 L27.7178603,45.2230825 C28.2234723,45.3626384 28.7988344,45.4688047 29.445259,45.5426747 L29.643,45.5622661 C22.9974623,51.6322291 14.5465975,55.0879017 8.62336484,53.000373 L8.40046882,52.917286 C3.69595957,51.0662693 2.23452318,44.2148726 4.84121006,36.8488317 L4.893,36.7042661 L4.92044789,36.7860489 C5.08494542,37.303441 5.2481201,37.9277298 5.40363627,38.6546927 L6.41417272,43.5055957 L7.42578183,38.9930121 L7.53951393,38.5040487 C9.46185846,30.5290477 14.5557172,23.1127246 22.8546257,16.255188 L23.342,15.8552661 L23.3425331,21.951326 L25.2027007,18.8140321 L25.3777969,18.5256122 C28.3618658,13.7224103 34.6929389,9.01318167 44.3742884,4.45166655 L44.994,4.16226608 L44.9137364,4.41677246 C44.832869,4.68907095 44.7621037,4.96394308 44.7014689,5.24135275 L44.2624953,7.24969609 L46.1134837,6.35527867 C52.5743908,3.23329933 58.6582088,2.27824494 64.393664,3.46683978 L64.871,3.57026608 Z" id="路径" fill="#FFFFFF" fill-rule="nonzero"></path>
                <path d="M64.871,3.57026608 L64.818063,3.8165987 C63.301593,10.4370104 58.339639,16.4791751 49.8640343,21.9389733 L47.5194242,23.4493195 L50.2895582,23.7728932 L50.5497106,23.8079198 C50.9925139,23.8751117 51.481334,23.9864013 52.0152389,24.1421805 L52.267,24.2182661 L51.7964821,24.6736574 C41.2884827,34.800862 33.1349254,41.0033816 27.4019865,43.2658325 L24.7669403,44.305729 L27.4708608,45.1505171 L27.7178603,45.2230825 C28.2234723,45.3626384 28.7988344,45.4688047 29.445259,45.5426747 L29.643,45.5622661 C22.9974623,51.6322291 14.5465975,55.0879017 8.62336484,53.000373 L8.40046882,52.917286 C8.62336484,45.5622661 10.5002277,30.9783902 21.5382916,19.4857449 L22.7003388,26.7848069 C27.6337543,17.8653296 34.1306973,11.3639074 42.1911676,7.28054044 L42.1911676,10.9316044 C47.7635296,5.95509465 55.1643618,3.46683978 64.393664,3.46683978 L64.871,3.57026608 Z" id="路径备份" fill="url(#linearGradient-9)" fill-rule="nonzero"></path>
                <path d="M1.56142351,74 L3.55271368e-15,68.7539518 C6.02464069,53.4852622 13.6367566,41.0048989 22.8363477,31.3128618 C32.0359388,21.6208247 39.9874096,16.1249595 46.6907601,14.8252661 C32.6267189,25.2875948 22.5004438,35.711121 16.3119346,46.0958446 C10.1234255,56.4805682 5.20658844,65.7819533 1.56142351,74 Z" id="路径-394" fill="#000000"></path>
            </g>
        </g>
    </g>
</svg>