<?xml version="1.0" encoding="UTF-8"?>
<svg width="96px" height="96px" viewBox="0 0 96 96" version="1.1" xmlns="http://www.w3.org/2000/svg" xmlns:xlink="http://www.w3.org/1999/xlink">
    <title>transcriber</title>
    <defs>
        <filter x="-15.4%" y="-15.4%" width="130.8%" height="130.8%" filterUnits="objectBoundingBox" id="filter-1">
            <feOffset dx="0" dy="2" in="SourceAlpha" result="shadowOffsetOuter1"></feOffset>
            <feGaussianBlur stdDeviation="2" in="shadowOffsetOuter1" result="shadowBlurOuter1"></feGaussianBlur>
            <feColorMatrix values="0 0 0 0 0   0 0 0 0 0   0 0 0 0 0  0 0 0 0.2 0" type="matrix" in="shadowBlurOuter1" result="shadowMatrixOuter1"></feColorMatrix>
            <feMerge>
                <feMergeNode in="shadowMatrixOuter1"></feMergeNode>
                <feMergeNode in="SourceGraphic"></feMergeNode>
            </feMerge>
        </filter>
        <linearGradient x1="50%" y1="2.18531469%" x2="50%" y2="100%" id="linearGradient-2">
            <stop stop-color="#FFFFFF" offset="0%"></stop>
            <stop stop-color="#FFFFFF" offset="100%"></stop>
        </linearGradient>
        <rect id="path-3" x="0" y="0" width="78" height="78" rx="16"></rect>
        <linearGradient x1="50%" y1="1.74005682%" x2="50%" y2="100%" id="linearGradient-5">
            <stop stop-color="#707070" offset="0%"></stop>
            <stop stop-color="#171717" offset="100%"></stop>
        </linearGradient>
        <linearGradient x1="50%" y1="0%" x2="50%" y2="100%" id="linearGradient-6">
            <stop stop-color="#707070" offset="1.74005682%"></stop>
            <stop stop-color="#171717" offset="100%"></stop>
        </linearGradient>
        <linearGradient x1="50%" y1="0%" x2="50%" y2="100%" id="linearGradient-7">
            <stop stop-color="#CACAFF" offset="0%"></stop>
            <stop stop-color="#4646AC" offset="100%"></stop>
        </linearGradient>
        <linearGradient x1="14.9515201%" y1="14.3706018%" x2="81.7375023%" y2="100%" id="linearGradient-8">
            <stop stop-color="#8686E4" offset="0%"></stop>
            <stop stop-color="#323250" offset="69.6640242%"></stop>
            <stop stop-color="#2A2A2A" offset="100%"></stop>
        </linearGradient>
    </defs>
    <g id="transcriber" stroke="none" stroke-width="1" fill="none" fill-rule="evenodd">
        <g id="编组" filter="url(#filter-1)" transform="translate(9.000000, 9.000000)">
            <mask id="mask-4" fill="white">
                <use xlink:href="#path-3"></use>
            </mask>
            <use id="蒙版" fill="url(#linearGradient-2)" xlink:href="#path-3"></use>
            <path d="M39,7 C56.4963809,7 70.7131276,21.0417829 70.9957129,38.4708215 L71,39 L71,48 L69,48 L69,39 C69,22.4314575 55.5685425,9 39,9 C22.5971429,9 9.26894286,22.1641715 9.00401914,38.5038951 L9,39 L9,48 L7,48 L7,39 C7,21.326888 21.326888,7 39,7 Z" id="路径" fill="#000000" fill-rule="nonzero" mask="url(#mask-4)"></path>
            <rect id="矩形" fill="url(#linearGradient-5)" mask="url(#mask-4)" x="7" y="36" width="12" height="21" rx="6"></rect>
            <rect id="矩形" fill="url(#linearGradient-6)" mask="url(#mask-4)" x="59" y="36" width="12" height="21" rx="6"></rect>
            <path d="M13,36 C16.3137085,36 19,38.6862915 19,42 L19,51 C19,54.3137085 16.3137085,57 13,57 C9.6862915,57 7,54.3137085 7,51 L7,42 C7,38.6862915 9.6862915,36 13,36 Z M13,38 C10.8578046,38 9.10892112,39.6839685 9.00489531,41.8003597 L9,42 L9,51 C9,53.209139 10.790861,55 13,55 C15.1421954,55 16.8910789,53.3160315 16.9951047,51.1996403 L17,51 L17,42 C17,39.790861 15.209139,38 13,38 Z" id="矩形" fill="#000000" fill-rule="nonzero" mask="url(#mask-4)"></path>
            <path d="M65,36 C68.3137085,36 71,38.6862915 71,42 L71,51 C71,54.3137085 68.3137085,57 65,57 C61.6862915,57 59,54.3137085 59,51 L59,42 C59,38.6862915 61.6862915,36 65,36 Z M65,38 C62.8578046,38 61.1089211,39.6839685 61.0048953,41.8003597 L61,42 L61,51 C61,53.209139 62.790861,55 65,55 C67.1421954,55 68.8910789,53.3160315 68.9951047,51.1996403 L69,51 L69,42 C69,39.790861 67.209139,38 65,38 Z" id="矩形" fill="#000000" fill-rule="nonzero" mask="url(#mask-4)"></path>
            <path d="M55.5615234,54 L55.5615234,44.9900802 L47.8222656,40 L46.1972656,34 C43.1673177,32.0384115 41.0465495,30.5322266 39.8349609,29.4814453 C38.0175781,27.9052734 32.3056641,21.1103298 32.3056641,21.1103298 C32.3056641,21.1103298 28.1162109,18.3740843 28.1162109,16.9316074 C28.1162109,15.9699561 25.710612,13.326087 20.8994141,9 C16.8408203,7.44927536 14.8115234,6.67391304 14.8115234,6.67391304 C14.8115234,6.67391304 12.2444661,6.34057971 7.11035156,5.67391304 L15.8115234,18.2934783 L19.8994141,26.3984375 C22.9339193,28.453776 24.4511719,29.4814453 24.4511719,29.4814453 C24.4511719,29.4814453 34.8984375,37 34.8984375,38 C34.8984375,39 35.8544922,43.7916469 37.8447266,44.9900802 C39.8349609,46.1885135 46.1972656,50 46.1972656,50 C46.1972656,50 46.1972656,51.3333333 46.1972656,54 L55.5615234,54 Z" id="路径-157" fill="url(#linearGradient-7)" mask="url(#mask-4)"></path>
            <polyline id="路径-160" stroke="#000000" stroke-linecap="round" stroke-linejoin="round" mask="url(#mask-4)" points="12 62.8369565 19 71 25 66 32.0815657 73 40 66 49 72 54.7473958 65 60.7929688 70.7434896 65.7929687 66.7920426"></polyline>
            <polygon id="路径-158" fill="url(#linearGradient-8)" mask="url(#mask-4)" points="49.9817708 44 63.843099 67.0485531 61.7799479 67.0485531 47.9602865 45.5 18 12.2934783 23.015625 16.1103298"></polygon>
            <polyline id="路径-159" stroke="#FF0000" stroke-linecap="round" stroke-linejoin="round" mask="url(#mask-4)" points="19 43 23.7317708 58.8116883 27 34 32.0815657 49 36 40.5 42 61.0326087 46 34 51 48 55.1080729 37.5 58 45"></polyline>
        </g>
    </g>
</svg>