<svg xmlns="http://www.w3.org/2000/svg" xmlns:xlink="http://www.w3.org/1999/xlink" width="96" height="96" viewBox="0 0 96 96">
  <defs>
    <filter id="uos-downloadmanager96-a" width="127.3%" height="127.3%" x="-13.6%" y="-13.6%" filterUnits="objectBoundingBox">
      <feOffset dy="2" in="SourceAlpha" result="shadowOffsetOuter1"/>
      <feGaussianBlur in="shadowOffsetOuter1" result="shadowBlurOuter1" stdDeviation="2"/>
      <feComposite in="shadowBlurOuter1" in2="SourceAlpha" operator="out" result="shadowBlurOuter1"/>
      <feColorMatrix in="shadowBlurOuter1" result="shadowMatrixOuter1" values="0 0 0 0 0   0 0 0 0 0   0 0 0 0 0  0 0 0 0.2 0"/>
      <feMerge>
        <feMergeNode in="shadowMatrixOuter1"/>
        <feMergeNode in="SourceGraphic"/>
      </feMerge>
    </filter>
    <linearGradient id="uos-downloadmanager96-b" x1="50%" x2="50%" y1="0%" y2="98.139%">
      <stop offset="0%" stop-color="#FFF"/>
      <stop offset="100%" stop-color="#EDEDED"/>
    </linearGradient>
    <filter id="uos-downloadmanager96-c" width="172.7%" height="214.3%" x="-36.4%" y="-57.1%" filterUnits="objectBoundingBox">
      <feOffset dy="2" in="SourceAlpha" result="shadowOffsetOuter1"/>
      <feGaussianBlur in="shadowOffsetOuter1" result="shadowBlurOuter1" stdDeviation="2"/>
      <feColorMatrix in="shadowBlurOuter1" result="shadowMatrixOuter1" values="0 0 0 0 0.421978973   0 0 0 0 0.652704643   0 0 0 0 0.875452899  0 0 0 0.5 0"/>
      <feMerge>
        <feMergeNode in="shadowMatrixOuter1"/>
        <feMergeNode in="SourceGraphic"/>
      </feMerge>
    </filter>
    <linearGradient id="uos-downloadmanager96-e" x1="87.73%" x2="38.554%" y1="31.118%" y2="64.666%">
      <stop offset="0%" stop-color="#7871EB"/>
      <stop offset="100%" stop-color="#57E5FF"/>
    </linearGradient>
    <path id="uos-downloadmanager96-d" d="M13.0240523,19.3473373 L13.0140913,19.3373764 L13.0140913,19.3373764 C12.955358,19.2784597 12.8985748,19.218334 12.8437418,19.1570796 L1.70047285,7.97903298 C-0.0684357871,6.20460084 -0.0684357871,3.33353191 1.70047285,1.55909977 C3.46226869,-0.208197363 6.3231638,-0.212657043 8.09046093,1.5491388 L8.10042191,1.55909977 L8.10042191,1.55909977 L16.2187914,9.70270389 L24.3370781,1.55909977 C26.0988739,-0.208197363 28.959769,-0.212657043 30.7270662,1.5491388 L30.7370272,1.55909977 L30.7370272,1.55909977 C32.5059358,3.33353191 32.5059358,6.20460084 30.7370272,7.97903298 L19.5937582,19.1570796 C19.5389252,19.218334 19.482142,19.2784597 19.4234087,19.3373764 C18.5425108,20.2210249 17.386838,20.6639641 16.2304776,20.6657667 C15.0647489,20.6675693 13.9077008,20.2282353 13.0240523,19.3473373 Z"/>
    <radialGradient id="uos-downloadmanager96-f" cx="94.647%" cy="77.513%" r="98.479%" fx="94.647%" fy="77.513%" gradientTransform="scale(-.7957 -1) rotate(23.08 3.675 -5.23)">
      <stop offset="0%" stop-color="#7871EB"/>
      <stop offset="68.65%" stop-color="#65B3F9" stop-opacity=".389"/>
      <stop offset="100%" stop-color="#5CD1FF"/>
    </radialGradient>
    <filter id="uos-downloadmanager96-h" width="159.3%" height="191.4%" x="-29.6%" y="-45.7%" filterUnits="objectBoundingBox">
      <feOffset dy="3" in="SourceAlpha" result="shadowOffsetOuter1"/>
      <feGaussianBlur in="shadowOffsetOuter1" result="shadowBlurOuter1" stdDeviation="2.5"/>
      <feColorMatrix in="shadowBlurOuter1" result="shadowMatrixOuter1" values="0 0 0 0 0.419449026   0 0 0 0 0.779397285   0 0 0 0 0.884114583  0 0 0 0.5 0"/>
      <feMerge>
        <feMergeNode in="shadowMatrixOuter1"/>
        <feMergeNode in="SourceGraphic"/>
      </feMerge>
    </filter>
    <linearGradient id="uos-downloadmanager96-j" x1="90.404%" x2="50%" y1="31.328%" y2="70.345%">
      <stop offset="0%" stop-color="#2B86FF"/>
      <stop offset="100%" stop-color="#26F9B9"/>
    </linearGradient>
    <path id="uos-downloadmanager96-i" d="M21.7964073,32.0569388 C21.7959297,32.0564613 21.7954522,32.0559838 21.7949747,32.0555063 L2.4858483,12.7410576 C-0.385496982,9.86892089 -0.385496982,5.21310658 2.4858483,2.34096987 C5.3561707,-0.530143691 10.0105242,-0.530785047 12.8816377,2.33953736 L12.882354,2.34025356 L26.9993393,16.4612151 L41.1169298,2.34096987 C43.9872522,-0.530143691 48.6416056,-0.530785047 51.5127192,2.33953736 L51.5141517,2.34096987 C54.385497,5.21310658 54.385497,9.86892089 51.5141517,12.7410576 L32.2050253,32.0555063 C30.7379716,33.5229643 28.8048673,34.2405558 26.8820141,34.2082151 L26.8691855,34.2082151 C25.0299346,34.1772805 23.2000628,33.4602075 21.7964073,32.0569388 Z"/>
    <linearGradient id="uos-downloadmanager96-k" x1="30.234%" x2="116.916%" y1="73.086%" y2="55.092%">
      <stop offset="0%" stop-color="#26F5BB"/>
      <stop offset="100%" stop-color="#2B86FE"/>
    </linearGradient>
  </defs>
  <g fill="none" fill-rule="evenodd" filter="url(#uos-downloadmanager96-a)" transform="translate(4 4)">
    <rect width="88" height="88" fill="url(#uos-downloadmanager96-b)" rx="44"/>
    <g filter="url(#uos-downloadmanager96-c)" transform="translate(27.688 19)">
      <mask id="uos-downloadmanager96-g" fill="#fff">
        <use xlink:href="#uos-downloadmanager96-d"/>
      </mask>
      <use fill="url(#uos-downloadmanager96-e)" xlink:href="#uos-downloadmanager96-d"/>
      <path fill="url(#uos-downloadmanager96-f)" d="M17.25,8.59897844 C13.8484216,13.2206834 6.69638482,12.9590775 4.07978602,11.3894418 C1.46318722,9.81980616 -0.630091827,3.71566754 -0.106772066,1.97162794 C0.416547695,0.22758833 4.7775457,-3.69650078 8.87688383,0.22758833 C12.976222,4.15167744 14.1973014,5.72131309 17.25,8.59897844 Z" mask="url(#uos-downloadmanager96-g)"/>
    </g>
    <g filter="url(#uos-downloadmanager96-h)" transform="translate(17 34.75)">
      <mask id="uos-downloadmanager96-l" fill="#fff">
        <use xlink:href="#uos-downloadmanager96-i"/>
      </mask>
      <use fill="url(#uos-downloadmanager96-j)" xlink:href="#uos-downloadmanager96-i"/>
      <path fill="url(#uos-downloadmanager96-k)" d="M26.9815545,16.4829377 C23.5689909,21.1414218 13.8563099,22.5477566 9.04372021,19.9108788 C4.23113052,17.274001 -3.03150482,10.066535 -1.71898036,5.40805095 C-0.406455903,0.749566861 7.46869086,-6.10631539 11.5812675,-2.15099871 C15.6938441,1.80431798 28.994092,11.4728699 26.9815545,16.4829377 Z" mask="url(#uos-downloadmanager96-l)"/>
    </g>
  </g>
</svg>
