<svg xmlns="http://www.w3.org/2000/svg" width="96" height="96" viewBox="0 0 96 96">
  <defs>
    <filter id="realvnc-vnc-viewer_icon-a" width="130%" height="130%" x="-15%" y="-15%" filterUnits="objectBoundingBox">
      <feOffset dy="2" in="SourceAlpha" result="shadowOffsetOuter1"/>
      <feGaussianBlur in="shadowOffsetOuter1" result="shadowBlurOuter1" stdDeviation="2"/>
      <feColorMatrix in="shadowBlurOuter1" result="shadowMatrixOuter1" values="0 0 0 0 0   0 0 0 0 0   0 0 0 0 0  0 0 0 0.2 0"/>
      <feMerge>
        <feMergeNode in="shadowMatrixOuter1"/>
        <feMergeNode in="SourceGraphic"/>
      </feMerge>
    </filter>
    <linearGradient id="realvnc-vnc-viewer_icon-b" x1="50%" x2="50%" y1="0%" y2="100%">
      <stop offset="0%" stop-color="#22B1FD"/>
      <stop offset="100%" stop-color="#256CF0"/>
    </linearGradient>
  </defs>
  <g fill="none" filter="url(#realvnc-vnc-viewer_icon-a)" transform="translate(8 8)">
    <rect width="80" height="80" fill="url(#realvnc-vnc-viewer_icon-b)" rx="10"/>
    <g fill="#FFF" transform="translate(9.546 15.495)">
      <path d="M62.4536086,50.5051538 L62.4536086,39.5051538 C62.4536086,33.4300216 57.5287408,28.5051538 51.4536086,28.5051538 L51.4536086,28.5051538 L51.4536086,28.5051538 C45.3784764,28.5051538 40.4536086,33.4300216 40.4536086,39.5051538 L40.4536086,39.5051538 L40.4536086,50.5051538 L44.6843778,50.5051538 L44.6843778,39.8434396 C44.6843778,36.1048968 47.7150658,33.0742088 51.4536086,33.0742088 C55.1921516,33.0742088 58.2228394,36.1048968 58.2228394,39.8434396 L58.2228394,50.5051538 L62.4536086,50.5051538 Z" transform="rotate(-90 51.454 39.505)"/>
      <path d="M62.4536082 22.5051546L62.4536082 11.5051546C62.4536082 5.4300224 57.5287404.50515464 51.4536082.50515464L51.4536082.50515464 51.4536082.50515464C45.378476.50515464 40.4536082 5.4300224 40.4536082 11.5051546L40.4536082 11.5051546 40.4536082 22.5051546 44.6843774 22.5051546 44.6843774 11.8434404C44.6843774 8.10489752 47.7150654 5.07420968 51.4536082 5.07420968L51.4536082 5.07420968 51.4536082 5.07420968C55.1921512 5.07420968 58.222839 8.10489752 58.222839 11.8434404L58.222839 22.5051546 62.4536082 22.5051546zM18.4536082 50.5051546C16.4536082 50.5051546 15.1202749 49.1237114 14.4536082 46.3608248L.453608248.50515464 36.4536082.50515464 22.4536082 46.3608248C21.7869416 49.1237114 20.4536082 50.5051546 18.4536082 50.5051546zM18.4536082 46.5051546L32.4536082.50515464 4.45360824.50515464 18.4536082 46.5051546z"/>
    </g>
  </g>
</svg>
