<svg xmlns="http://www.w3.org/2000/svg" width="96" height="96" viewBox="0 0 96 96">
  <defs>
    <filter id="zenmap-a" width="125.8%" height="157.1%" x="-12.9%" y="-28.6%" filterUnits="objectBoundingBox">
      <feOffset dy="2" in="SourceAlpha" result="shadowOffsetOuter1"/>
      <feGaussianBlur in="shadowOffsetOuter1" result="shadowBlurOuter1" stdDeviation="2"/>
      <feColorMatrix in="shadowBlurOuter1" result="shadowMatrixOuter1" values="0 0 0 0 0   0 0 0 0 0   0 0 0 0 0  0 0 0 0.2 0"/>
      <feMerge>
        <feMergeNode in="shadowMatrixOuter1"/>
        <feMergeNode in="SourceGraphic"/>
      </feMerge>
    </filter>
    <linearGradient id="zenmap-b" x1="50%" x2="50%" y1="0%" y2="100%">
      <stop offset="0%" stop-color="#F2F7FF"/>
      <stop offset="100%" stop-color="#B9F2FF"/>
    </linearGradient>
    <linearGradient id="zenmap-c" x1="50%" x2="50%" y1="0%" y2="100%">
      <stop offset="0%" stop-color="#002447" stop-opacity=".301"/>
      <stop offset="100%" stop-color="#003341" stop-opacity=".661"/>
    </linearGradient>
    <linearGradient id="zenmap-d" x1="50%" x2="50%" y1=".628%" y2="105.129%">
      <stop offset="0%" stop-color="#D0F6FF"/>
      <stop offset="100%" stop-color="#F2F7FF"/>
    </linearGradient>
    <linearGradient id="zenmap-e" x1="50%" x2="50%" y1="0%" y2="100%">
      <stop offset="0%" stop-color="#002447" stop-opacity=".301"/>
      <stop offset="100%" stop-color="#003341" stop-opacity=".661"/>
    </linearGradient>
    <linearGradient id="zenmap-f" x1="50%" x2="50%" y1="-16.35%" y2="105.129%">
      <stop offset="0%" stop-color="#86E8FF"/>
      <stop offset="100%" stop-color="#DDE9FF"/>
    </linearGradient>
    <linearGradient id="zenmap-g" x1="50%" x2="50%" y1="0%" y2="100%">
      <stop offset="0%" stop-color="#002447" stop-opacity=".301"/>
      <stop offset="100%" stop-color="#003341" stop-opacity=".661"/>
    </linearGradient>
    <linearGradient id="zenmap-h" x1="50%" x2="50%" y1="4.526%" y2="100%">
      <stop offset="0%" stop-color="#89DCFF"/>
      <stop offset="100%" stop-color="#0078AA"/>
    </linearGradient>
  </defs>
  <g fill="none" fill-rule="evenodd" filter="url(#zenmap-a)" transform="translate(2.098 26.738)">
    <path fill="url(#zenmap-b)" d="M2.58738196,23.3347757 C2.58738196,23.3347757 2.58738196,23.3347757 2.58738196,23.3347757 C7.76214587,17.0639371 26.0378866,4.91275173 34.9194132,2.80352569 C43.8009398,0.694299642 45.3096,0.120409694 57.1718546,2.80352569 C69.0341093,5.48664168 88.7432756,20.6972966 90.8193156,23.3347757 C90.8193156,23.3347757 90.8193156,23.3347757 90.8193156,23.3347757 C92.0295358,24.8722849 91.7642156,27.0997598 90.2267064,28.30998 C89.6385004,28.7729748 88.9187595,29.0377629 88.1707403,29.0663568 C84.9451412,29.1896801 81.9038457,29.7786578 79.0468546,30.8333108 C73.6062064,32.8417161 66.4977447,37.6550705 57.1718546,39.4890726 C47.8459645,41.3230747 43.1689121,41.2101116 34.9194132,39.4890726 C26.6699143,37.7680336 19.8516779,32.9534094 14.3329874,30.8333108 C11.428019,29.7173179 8.3758725,29.1156739 5.17654798,29.0283789 L5.17654763,29.028392 C3.25532468,28.9759706 1.74036174,27.3760156 1.79278321,25.4547927 C1.81394271,24.6793065 2.09361701,23.9331257 2.58738196,23.3347757 Z"/>
    <path fill="url(#zenmap-c)" fill-rule="nonzero" d="M43.6010082,0.0755686679 L42.7023056,0.161740723 C41.0237416,0.343946219 39.7540988,0.627549481 34.6883549,1.83058577 C26.0160919,3.89011494 7.43406993,15.8903613 1.81608851,22.698296 L1.65363998,22.9081793 C1.11077887,23.6624453 0.817625764,24.530684 0.793155247,25.4275174 C0.725670044,27.9008196 2.67597009,29.9605348 5.14927231,30.02802 L5.77637854,30.0519709 C8.62778563,30.1918117 11.3627456,30.7634956 13.974373,31.7667966 C15.0052349,32.1628197 16.1228698,32.6687032 17.5544546,33.3755791 L22.4517047,35.8567431 C27.2026324,38.2293118 30.8023531,39.6516873 34.7151868,40.4679962 C43.3244221,42.2640847 48.1405931,42.2842874 57.3648158,40.470279 C61.4329332,39.670255 65.1851352,38.3416035 69.6123051,36.3069071 L70.5620573,35.8641251 L75.2217065,33.6072175 C77.0062119,32.746871 78.2526512,32.1924494 79.3931605,31.7714325 C82.1497918,30.7538271 85.0870952,30.1849835 88.2089451,30.0656267 C89.1680915,30.0289622 90.0909844,29.6894359 90.8452157,29.0957575 C92.8166979,27.543944 93.1569065,24.6877485 91.605093,22.7162664 L91.5269089,22.6201137 C90.0768376,20.8947681 84.3165508,16.3513632 78.3835265,12.3638817 L78.0200994,12.1204735 C70.0917938,6.82894935 62.7956066,3.0502969 57.3924708,1.82816499 L55.9484963,1.50665891 C49.9168634,0.18723912 46.7452684,-0.181461903 43.6010082,0.0755686679 Z M57.1718546,2.80352569 C68.9154867,5.45981052 88.349877,20.3943362 90.7517699,23.2519045 L90.8193156,23.3347757 C92.0295358,24.8722849 91.7642156,27.0997598 90.2267064,28.30998 C89.6385004,28.7729748 88.9187595,29.0377629 88.1707403,29.0663568 C84.9451412,29.1896801 81.9038457,29.7786578 79.0468546,30.8333108 C73.6062064,32.8417161 66.4977447,37.6550705 57.1718546,39.4890726 C47.8459645,41.3230747 43.1689121,41.2101116 34.9194132,39.4890726 C26.6699143,37.7680336 19.8516779,32.9534094 14.3329874,30.8333108 C11.6216835,29.7917174 8.78217124,29.1981791 5.81445051,29.0526959 L5.17654763,29.028392 C3.25532468,28.9759706 1.74036174,27.3760156 1.79278321,25.4547927 C1.81182676,24.7568551 2.0402673,24.0826549 2.44571962,23.5185971 L2.58738196,23.3347757 C7.76214587,17.0639371 26.0378866,4.91275173 34.9194132,2.80352569 L37.9824872,2.07780806 C44.351043,0.601068932 46.815918,0.461122836 57.1718546,2.80352569 Z"/>
    <path fill="url(#zenmap-d)" d="M8.52390539,25.7600687 C8.52390539,25.7600687 8.52390539,25.7600687 8.52390539,25.7600687 C14.1427328,20.6967929 27.4523391,10.9456951 35.3129679,9.24151397 C43.1735967,7.53733286 46.8997306,7.54139533 56.2167765,9.24151397 C65.5338224,10.9416326 85.0498444,24.9671266 85.7172648,25.4837015 C85.7172648,25.4837015 85.7172648,25.4837015 85.7172648,25.4837015 C85.9980604,25.7010337 86.0495077,26.1048462 85.8321754,26.3856418 C85.7104134,26.5429596 85.5226842,26.6350503 85.3237499,26.6350687 L81.3666788,26.6350687 C78.4923155,26.6350687 75.6439713,27.1796012 72.9723039,28.2398642 L60.1094519,33.3445441 C55.9368831,35.0004465 51.4883833,35.850889 46.9992472,35.850889 C42.5027141,35.850889 38.039426,35.0804197 33.8031222,33.5729253 L17.0306452,27.6044166 C15.2279595,26.9629285 13.3286846,26.6350687 11.4152628,26.6350687 L8.85996875,26.6350687 C8.58271275,26.6350219 8.35795236,26.4102615 8.35795236,26.1330055 C8.35795236,25.9907994 8.41826367,25.8552652 8.52390539,25.7600687 Z"/>
    <path fill="url(#zenmap-e)" fill-rule="nonzero" d="M35.1010905,8.26421772 C28.2006198,9.76023694 15.6905369,17.9559088 7.85447834,25.0171909 L7.73649528,25.1378672 C7.4723245,25.4664416 7.35795236,25.7944065 7.35795236,26.1330055 C7.35795236,26.9624965 8.03034128,27.6349287 8.85979999,27.6350686 L11.4152628,27.6350687 C13.2144469,27.6350687 15.0003288,27.9433542 16.6953882,28.5465433 L33.4678651,34.515052 C37.8117953,36.0608454 42.3884764,36.850889 46.9992472,36.850889 C51.6146896,36.850889 56.1883525,35.9765184 60.4783207,34.2740255 L73.3411728,29.1693457 C75.8954407,28.1556731 78.6186219,27.6350687 81.3666788,27.6350687 L85.3237499,27.6350687 C85.8321614,27.6350218 86.3118454,27.3996998 86.6229781,26.997713 C87.1783479,26.2801691 87.0468799,25.2482687 86.329336,24.6928988 L85.2073157,23.8828646 C84.4824792,23.3700377 83.5158534,22.6970781 82.5116607,22.0123525 C79.9599426,20.2724207 77.2570601,18.5078559 74.5508473,16.8413886 C66.9285962,12.1476588 60.6129679,9.02719253 56.3962864,8.2577578 L55.168444,8.03803164 C46.5942551,6.53655201 42.733504,6.60951358 35.1010905,8.26421772 Z M56.2167765,9.24151397 C64.9794582,10.8404755 82.7635447,23.3417277 85.4040627,25.2534599 L85.7172648,25.4837015 C85.9980604,25.7010337 86.0495077,26.1048462 85.8321754,26.3856418 C85.7104134,26.5429596 85.5226842,26.6350503 85.3237499,26.6350687 L81.3666788,26.6350687 C78.4923155,26.6350687 75.6439713,27.1796012 72.9723039,28.2398642 L60.1094519,33.3445441 C55.9368831,35.0004465 51.4883833,35.850889 46.9992472,35.850889 C42.5027141,35.850889 38.039426,35.0804197 33.8031222,33.5729253 L17.0306452,27.6044166 C15.2279595,26.9629285 13.3286846,26.6350687 11.4152628,26.6350687 L8.85996875,26.6350687 C8.58271275,26.6350219 8.35795236,26.4102615 8.35795236,26.1330055 C8.35795236,26.0192406 8.3965516,25.9097458 8.46607986,25.8217578 L8.52390539,25.7600687 L9.0912305,25.2558675 C14.995747,20.0760633 27.7059078,10.8907215 35.3129679,9.24151397 L36.3374048,9.02441167 C43.5158524,7.5410442 47.3138215,7.61695616 56.2167765,9.24151397 Z"/>
    <path fill="url(#zenmap-f)" d="M56.2167765,9.24151397 C57.5238249,9.48001632 59.0315901,9.96108307 60.6598763,10.61339 C62.7015861,13.4752706 63.9023234,16.9784226 63.9023234,20.7620218 C63.9023234,26.1883365 61.4326035,31.0378172 57.555907,34.2477208 C54.1426888,35.3086143 50.5839236,35.850889 46.9992472,35.850889 C42.8843892,35.850889 38.797372,35.2056666 34.8866689,33.9408519 C31.2189412,30.7318085 28.9023234,26.0174527 28.9023234,20.7620218 C28.9023234,16.7399172 30.2592128,13.0347311 32.5402054,10.0792497 C33.5194653,9.71326032 34.4491203,9.42879577 35.3129679,9.24151397 C43.1735967,7.53733286 46.8997306,7.54139533 56.2167765,9.24151397 Z"/>
    <path fill="url(#zenmap-g)" fill-rule="nonzero" d="M35.1010905,8.26421772 C34.3310151,8.43116974 33.5071791,8.67137999 32.6319831,8.98160268 L31.9228714,9.24241366 L31.7485592,9.46827001 C29.2694508,12.6804498 27.9023234,16.6186025 27.9023234,20.7620218 C27.9023234,26.1693117 30.2366572,31.2010975 34.2281896,34.6934508 L34.3830973,34.8289858 L34.5789395,34.8923259 C38.5907076,36.1898274 42.7816444,36.850889 46.9992472,36.850889 C50.6801194,36.850889 54.3391405,36.2947441 57.8527193,35.2026566 L58.0414424,35.1439979 L58.1936637,35.0179586 C62.4120111,31.5251682 64.9023234,26.345992 64.9023234,20.7620218 C64.9023234,16.8615578 63.6913263,13.1407422 61.4739447,10.032621 L61.3037647,9.79407834 L61.0317547,9.68510854 C59.2812527,8.98384082 57.7323608,8.50155665 56.3962864,8.2577578 L55.168444,8.03803164 C46.5942551,6.53655201 42.733504,6.60951358 35.1010905,8.26421772 Z M56.2167765,9.24151397 C57.5238249,9.48001632 59.0315901,9.96108307 60.6598763,10.61339 C62.7015861,13.4752706 63.9023234,16.9784226 63.9023234,20.7620218 C63.9023234,26.1883365 61.4326035,31.0378172 57.555907,34.2477208 C54.1426888,35.3086143 50.5839236,35.850889 46.9992472,35.850889 C42.8843892,35.850889 38.797372,35.2056666 34.8866689,33.9408519 C31.2189412,30.7318085 28.9023234,26.0174527 28.9023234,20.7620218 C28.9023234,16.7399172 30.2592128,13.0347311 32.5402054,10.0792497 C33.5194653,9.71326032 34.4491203,9.42879577 35.3129679,9.24151397 L36.3374048,9.02441167 C43.5158524,7.5410442 47.3138215,7.61695616 56.2167765,9.24151397 Z"/>
    <circle cx="46.402" cy="19.762" r="6.5" fill="url(#zenmap-h)"/>
    <polygon fill="#FFF" fill-rule="nonzero" points="54.902 19.262 54.902 20.262 37.902 20.262 37.902 19.262"/>
    <polygon fill="#FFF" fill-rule="nonzero" points="46.902 12.262 46.902 28.262 45.902 28.262 45.902 12.262"/>
    <path stroke="#FFF" d="M46.4023234,15.7620218 C47.3688217,15.7620218 48.2438217,16.1537726 48.8771971,16.787148 C49.5105725,17.4205235 49.9023234,18.2955235 49.9023234,19.2620218 C49.9023234,20.2285201 49.5105725,21.1035201 48.8771971,21.7368955 C48.2438217,22.3702709 47.3688217,22.7620218 46.4023234,22.7620218 C45.4358251,22.7620218 44.5608251,22.3702709 43.9274496,21.7368955 C43.2940742,21.1035201 42.9023234,20.2285201 42.9023234,19.2620218 C42.9023234,18.2955235 43.2940742,17.4205235 43.9274496,16.787148 C44.5608251,16.1537726 45.4358251,15.7620218 46.4023234,15.7620218 Z"/>
  </g>
</svg>
