<?xml version="1.0" encoding="UTF-8"?>
<svg width="16px" height="16px" viewBox="0 0 16 16" version="1.1" xmlns="http://www.w3.org/2000/svg" xmlns:xlink="http://www.w3.org/1999/xlink">
    <title>mimetypes/16/application-x-kdenlive</title>
    <defs>
        <linearGradient x1="50%" y1="0%" x2="50%" y2="99.7939317%" id="linearGradient-1">
            <stop stop-color="#9BA6C1" offset="0%"></stop>
            <stop stop-color="#778EB2" offset="100%"></stop>
        </linearGradient>
    </defs>
    <g id="mimetypes/16/application-x-kdenlive" stroke="none" stroke-width="1" fill="none" fill-rule="evenodd">
        <path d="M2,13 L2,3 C2,1.8954305 2.8954305,1 4,1 L12,1 C13.1045695,1 14,1.8954305 14,3 L14,13 C14,14.1045695 13.1045695,15 12,15 L4,15 C2.8954305,15 2,14.1045695 2,13 Z" id="path14361" fill="url(#linearGradient-1)"></path>
        <path d="M6.343,4.66666667 L6.99220247,5.705 L7,12 L3.39583333,12 C3.17654167,12 3,11.8244909 3,11.6064815 L3,5.06018522 C3,4.84217591 3.17654167,4.66666667 3.39583333,4.66666667 L6.343,4.66666667 Z M12.6041667,4.66666667 C12.8234583,4.66666667 13,4.84217591 13,5.06018522 L13.0015004,8.31772315 C12.991765,8.30557748 12.9798773,8.29471184 12.9658397,8.2856947 L11.2534212,7.18601162 C11.2305636,7.17133871 11.2036094,7.16549287 11.1758479,7.16685954 C11.0925434,7.170996 11.0029032,7.23845476 11.0031128,7.31320373 L11,9.52015655 C11,9.61982969 11.1591792,9.70656053 11.250239,9.64734782 L12.9658397,8.5400987 L13,8.50866667 L13,11.6064815 C13,11.8244909 12.8234583,12 12.6041667,12 L10,12 L10,5.70166667 L10.554,4.66666667 L12.6041667,4.66666667 Z M9.95740461,3.83333333 L9,5.58291667 L9,12 L8.0081375,12 L8.00083333,5.585 L6.8771975,3.83333333 L9.95740461,3.83333333 Z M6,10.0002028 L5,10.0002028 L5,11 L6,11 L6,10.0002028 Z M6,8 L4,8 L4,9 L6,9 L6,8 Z M6,6 L5,6 L5,7 L6,7 L6,6 Z" id="形状结合" fill="#FFFFFF"></path>
    </g>
</svg>