<?xml version="1.0" encoding="UTF-8"?>
<svg width="16px" height="16px" viewBox="0 0 16 16" version="1.1" xmlns="http://www.w3.org/2000/svg" xmlns:xlink="http://www.w3.org/1999/xlink">
    <title>mimetypes/16/application-x-dgn</title>
    <defs>
        <linearGradient x1="50%" y1="0%" x2="50%" y2="100%" id="linearGradient-1">
            <stop stop-color="#33CC99" offset="0%"></stop>
            <stop stop-color="#00AE74" offset="100%"></stop>
        </linearGradient>
    </defs>
    <g id="mimetypes/16/application-x-dgn" stroke="none" stroke-width="1" fill="none" fill-rule="evenodd">
        <path d="M2,13 L2,3 C2,1.8954305 2.8954305,1 4,1 L12,1 C13.1045695,1 14,1.8954305 14,3 L14,13 C14,14.1045695 13.1045695,15 12,15 L4,15 C2.8954305,15 2,14.1045695 2,13 Z" id="path14361" fill="url(#linearGradient-1)"></path>
        <path d="M6,8 L5,8 L5,9 L3,9 L3,10 L5,10 L5,11 L6,11 L6,13 L7,13 L7,11 L8,11 L8,10 L12,10 L12,9 L8,9 L8,8 L7,8 L7,4 L6,4 L6,8 Z M6,9 L7,9 L7,10 L6,10 L6,9 Z" id="rect4254" fill="#FFFFFF"></path>
    </g>
</svg>