<?xml version="1.0" encoding="UTF-8"?>
<svg width="16px" height="16px" viewBox="0 0 16 16" version="1.1" xmlns="http://www.w3.org/2000/svg" xmlns:xlink="http://www.w3.org/1999/xlink">
    <title>mimetypes/16/application-x-sketch</title>
    <defs>
        <linearGradient x1="50%" y1="0%" x2="50%" y2="99.3718328%" id="linearGradient-1">
            <stop stop-color="#FFBC2A" offset="0%"></stop>
            <stop stop-color="#E77B00" offset="100%"></stop>
        </linearGradient>
    </defs>
    <g id="mimetypes/16/application-x-sketch" stroke="none" stroke-width="1" fill="none" fill-rule="evenodd">
        <path d="M2,13 L2,3 C2,1.8954305 2.8954305,1 4,1 L12,1 C13.1045695,1 14,1.8954305 14,3 L14,13 C14,14.1045695 13.1045695,15 12,15 L4,15 C2.8954305,15 2,14.1045695 2,13 Z" id="path14361" fill="url(#linearGradient-1)" opacity="0.9"></path>
        <path d="M10.2341875,3 L13.1275176,6.47199615 L8,13.8784105 L2.8724824,6.47199615 L5.76581253,3 L10.2341875,3 Z M5.6614824,6.999 L4.4534824,6.999 L7.3124824,11.129 L5.6614824,6.999 Z M11.5444824,6.999 L10.3374824,6.999 L8.6864824,11.129 L11.5444824,6.999 Z M9.2614824,6.999 L6.7374824,6.999 L8,10.153 L9.2614824,6.999 Z M7.0644824,4 L6.234,4 L4.5674824,6 L5.7314824,6 L7.0644824,4 Z M8,4.402 L6.9334824,6 L9.0644824,5.999 L8,4.402 Z M9.765,4 L8.9344824,4 L10.2664824,5.999 L11.4294824,5.999 L9.765,4 Z" id="形状结合" fill="#FFFFFF" fill-rule="nonzero"></path>
    </g>
</svg>