<?xml version="1.0" encoding="UTF-8"?>
<svg width="16px" height="16px" viewBox="0 0 16 16" version="1.1" xmlns="http://www.w3.org/2000/svg" xmlns:xlink="http://www.w3.org/1999/xlink">
    <title>mimetypes/16/application-x-nzb</title>
    <defs>
        <linearGradient x1="50%" y1="0%" x2="50%" y2="100%" id="linearGradient-1">
            <stop stop-color="#B7EE43" offset="0%"></stop>
            <stop stop-color="#6AD500" offset="100%"></stop>
        </linearGradient>
    </defs>
    <g id="mimetypes/16/application-x-nzb" stroke="none" stroke-width="1" fill="none" fill-rule="evenodd">
        <path d="M2,13 L2,3 C2,1.8954305 2.8954305,1 4,1 L12,1 C13.1045695,1 14,1.8954305 14,3 L14,13 C14,14.1045695 13.1045695,15 12,15 L4,15 C2.8954305,15 2,14.1045695 2,13 Z" id="path14361" fill="url(#linearGradient-1)"></path>
        <path d="M6,4 L7,4 L7,3 L6,3 L6,4 Z M9,3 L10,3 L10,2 L9,2 L9,3 Z M8,3 L8,4 L7,4 L7,5 L6,5 L6,6 L7,6 L7,5 L9,5 L9,3 L8,3 Z M8,7 L9,7 L9,8 L10,8 L10,6 L8,6 L8,7 Z M6,10 L4,10 L8,14 L12,10 L10,10 L10,9 L9,9 L9.0462963,8 L7,8 L7,7 L6,7 L6,10 Z" id="path4234" fill="#FFFFFF"></path>
    </g>
</svg>