<?xml version="1.0" encoding="UTF-8"?>
<svg width="16px" height="16px" viewBox="0 0 16 16" version="1.1" xmlns="http://www.w3.org/2000/svg" xmlns:xlink="http://www.w3.org/1999/xlink">
    <title>mimetypes/16/application-vnd.oasis.opendocument.formula</title>
    <defs>
        <linearGradient x1="50%" y1="0%" x2="50%" y2="100%" id="linearGradient-1">
            <stop stop-color="#9BAAC1" offset="0%"></stop>
            <stop stop-color="#779DB2" offset="100%"></stop>
        </linearGradient>
    </defs>
    <g id="mimetypes/16/application-vnd.oasis.opendocument.formula" stroke="none" stroke-width="1" fill="none" fill-rule="evenodd">
        <path d="M2,13 L2,3 C2,1.8954305 2.8954305,1 4,1 L12,1 C13.1045695,1 14,1.8954305 14,3 L14,13 C14,14.1045695 13.1045695,15 12,15 L4,15 C2.8954305,15 2,14.1045695 2,13 Z" id="path14361" fill="url(#linearGradient-1)"></path>
        <path d="M10.6105643,3 L10.8470488,5.19610495 L10.4620742,5.19610495 C10.3007448,4.79814669 10.0715936,4.42756575 9.77461935,4.08436098 C9.47763328,3.73751849 9.28566749,3.57701537 9.04002223,3.52589356 C8.96669041,3.51129412 7.81721165,3.51129412 5.59158597,3.52589356 L8.79568387,7.60032088 L8.79568387,7.74818831 L5.32632164,11.9401906 L9.57055088,11.9401906 C10.1010795,11.9401906 10.4034049,11.7059228 10.5280698,11.5598817 C10.6600542,11.4065373 10.7773798,11.234938 10.8800466,11.0450841 C10.9826992,10.8552297 11.0670271,10.6799796 11.1330299,10.5193335 L11.5015057,10.6343413 L10.8800466,12.9919777 L4,12.9919777 L4,12.770204 L7.82774765,8.17536089 L4,3.26294678 L4,3 L10.6105643,3 Z" id="path4431" fill="#FFFFFF"></path>
    </g>
</svg>