<svg xmlns="http://www.w3.org/2000/svg" xmlns:xlink="http://www.w3.org/1999/xlink" width="16" height="16" viewBox="0 0 16 16">
  <defs>
    <linearGradient id="application-pgp-keys-c" x1="50%" x2="50%" y1="0%" y2="99.324%">
      <stop offset="0%" stop-color="#C5A981"/>
      <stop offset="100%" stop-color="#BA853A"/>
    </linearGradient>
    <path id="application-pgp-keys-b" d="M4.0085302,15 C2.8992496,15 2,14.1029399 2,12.9941413 L2,3.00585866 C2,1.89805351 2.90195036,1 4.0085302,1 L11.9914698,1 C13.1007504,1 14,1.89706013 14,3.00585866 L14,12.9941413 C14,14.1019465 13.0980496,15 11.9914698,15 L4.0085302,15 Z"/>
    <filter id="application-pgp-keys-a" width="133.3%" height="128.6%" x="-16.7%" y="-7.1%" filterUnits="objectBoundingBox">
      <feOffset dy="1" in="SourceAlpha" result="shadowOffsetOuter1"/>
      <feGaussianBlur in="shadowOffsetOuter1" result="shadowBlurOuter1" stdDeviation=".5"/>
      <feColorMatrix in="shadowBlurOuter1" values="0 0 0 0 0.733333333   0 0 0 0 0.537254902   0 0 0 0 0.258823529  0 0 0 0.5 0"/>
    </filter>
  </defs>
  <g fill="none" fill-rule="evenodd">
    <use fill="#000" filter="url(#application-pgp-keys-a)" xlink:href="#application-pgp-keys-b"/>
    <use fill="url(#application-pgp-keys-c)" xlink:href="#application-pgp-keys-b"/>
    <path fill="#FFF" d="M12.7550262,7.35439076 C13.0992723,6.94752036 13.0782726,6.3497771 12.7074018,5.97890628 L11.0202958,4.29255031 C10.649425,3.9216795 10.0509317,3.90067973 9.64368632,4.24530084 L7.36746201,6.04528053 C6.90921718,6.43302616 6.87434257,7.12601834 7.29246285,7.54376363 L9.45656343,9.70711422 C9.87505871,10.1256095 10.5684259,10.0907349 10.9565465,9.63174007 L12.7550262,7.35439076 L12.7550262,7.35439076 Z M10.4833019,4.82916926 L12.1704078,6.51590023 C12.2615318,6.6066492 12.2630318,6.76002247 12.1749078,6.86464629 L11.8407865,7.26026683 L9.73931024,5.15916553 L10.1349308,4.82466931 C10.2388046,4.73617031 10.3921779,4.73842028 10.4833019,4.82916926 L10.4833019,4.82916926 Z M8.63982265,9.95086147 L5.59110705,12.9999521 L4.53061901,12.9999521 L4.265497,12.7348301 L6.99996615,9.99998591 L6.73484414,9.73486391 L4.000375,12.469708 L4,11.40922 L7.0487156,8.36050441 L8.63982265,9.95086147 L8.63982265,9.95086147 Z"/>
  </g>
</svg>
