<?xml version="1.0" encoding="UTF-8"?>
<svg width="16px" height="16px" viewBox="0 0 16 16" version="1.1" xmlns="http://www.w3.org/2000/svg" xmlns:xlink="http://www.w3.org/1999/xlink">
    <title>mimetypes/16/application-vnd.wolfram.mathematica.package</title>
    <defs>
        <linearGradient x1="50%" y1="0%" x2="50%" y2="99.7939317%" id="linearGradient-1">
            <stop stop-color="#9BA6C1" offset="0%"></stop>
            <stop stop-color="#778EB2" offset="100%"></stop>
        </linearGradient>
    </defs>
    <g id="mimetypes/16/application-vnd.wolfram.mathematica.package" stroke="none" stroke-width="1" fill="none" fill-rule="evenodd">
        <path d="M2,13 L2,3 C2,1.8954305 2.8954305,1 4,1 L12,1 C13.1045695,1 14,1.8954305 14,3 L14,13 C14,14.1045695 13.1045695,15 12,15 L4,15 C2.8954305,15 2,14.1045695 2,13 Z" id="path14361" fill="url(#linearGradient-1)"></path>
        <path d="M8,2.99998708 C7.83202375,3.00032173 7.66416765,3.00911959 7.49707369,3.02635173 C7.3381883,3.04233745 7.18154934,3.06607674 7.02734753,3.09666424 C7.02050824,3.09762853 7.01367253,3.09862853 7.00683681,3.09962853 C6.86188964,3.12900354 6.72023104,3.16733354 6.58007852,3.20900319 C6.56018923,3.21408891 6.5403328,3.21929605 6.52050851,3.2246282 C6.36243562,3.27376321 6.20762309,3.32956679 6.05664128,3.39357323 C5.90747697,3.45675681 5.76147122,3.52715254 5.6191412,3.60451077 C5.33680615,3.75816579 5.0699461,3.93868904 4.82226605,4.14357337 C4.69866531,4.24556231 4.58003886,4.35343448 4.46679777,4.46681593 C4.35880739,4.57499523 4.25583452,4.68806954 4.15820379,4.80568277 C4.1524395,4.8126042 4.14635378,4.81923635 4.14062521,4.82619349 C4.06166555,4.92390958 3.98641661,5.02456674 3.9150391,5.12795105 C3.88968552,5.16389105 3.86329123,5.19874963 3.8388673,5.23537321 C3.78460157,5.3184493 3.73282085,5.40312217 3.68359405,5.48927969 C3.64892976,5.54860648 3.61331476,5.60715006 3.58105475,5.66799043 C3.5409226,5.7454308 3.50282366,5.82390832 3.46679723,5.9033419 C3.43333651,5.97531942 3.40020115,6.04734336 3.37011721,6.12111552 C3.34027078,6.19659446 3.31226899,6.27278876 3.28613327,6.34963092 C3.25769755,6.430482 3.22940219,6.51109702 3.20507825,6.59377168 C3.18455325,6.6662524 3.16566753,6.73918742 3.14843753,6.81252136 C3.12708395,6.89957637 3.10557752,6.98645853 3.08886716,7.07521712 C3.07401716,7.15918821 3.06131715,7.24352572 3.05078215,7.32814645 C3.04014644,7.40663647 3.02939286,7.48488863 3.02246072,7.56447435 C3.00864286,7.70925438 3.00115,7.85456834 3,8.00000158 C3.00033429,8.16798125 3.00913214,8.335837 3.02636429,8.50293096 C3.11233074,9.35740861 3.41508186,10.1486816 3.87792695,10.8222671 C3.88217695,10.8284528 3.88634838,10.8346564 3.89062338,10.8408207 C3.92644874,10.8922893 3.96323911,10.9430793 4.00097483,10.9931639 C4.00124018,10.9915568 4.00168911,10.9898782 4.00197483,10.9882639 C4.91502357,12.2062409 6.36528634,13 8,13 C8.93898395,13 9.81567269,12.7349032 10.5673835,12.2822267 L10.5683835,12.2832267 C10.5785014,12.2764267 10.5885907,12.2695909 10.5986585,12.2627159 C10.7179182,12.1896974 10.8338839,12.1127459 10.9463147,12.0302937 C10.9722147,12.0113366 10.9979325,11.9921291 11.0234633,11.9726762 C11.1221851,11.8973298 11.2177929,11.8186684 11.3105726,11.7363483 C11.3481973,11.702734 11.3853108,11.6685487 11.4219005,11.6338094 C11.4991951,11.5609744 11.5739594,11.4857879 11.6465102,11.4082233 C11.6897027,11.3624765 11.7320277,11.3159186 11.773463,11.2685747 C11.841622,11.1900157 11.9065141,11.1091047 11.969752,11.0263875 C12.0043699,10.9817175 12.0382299,10.9364635 12.0713145,10.8906453 C12.1377517,10.7973889 12.1997399,10.7013664 12.259791,10.603536 C12.2847696,10.5638424 12.3091853,10.5237995 12.3330357,10.4834188 C12.3925071,10.3801284 12.4469182,10.2737727 12.499051,10.1660359 C12.519476,10.1249698 12.5393343,10.0836248 12.5586214,10.0420123 C12.6053564,9.93821479 12.6468489,9.83201442 12.6865511,9.72462975 C12.7059368,9.67382903 12.7244954,9.62271545 12.742215,9.57130937 C12.7766686,9.46774542 12.8062915,9.36229826 12.8340122,9.25587967 C12.8485693,9.20239251 12.8622336,9.14866715 12.8750022,9.09472571 C12.8976236,8.99412533 12.9152122,8.89182781 12.9316425,8.78906172 C12.9431247,8.72156778 12.9532176,8.65384527 12.9619176,8.58593669 C12.9722818,8.49787631 12.9776961,8.40871451 12.9834033,8.31933521 C12.992339,8.21309412 12.9978747,8.10659445 13,7.99999943 C13,7.8314169 12.9910176,7.6653358 12.974614,7.50097577 L12.973614,7.49707577 C12.9576283,7.33819038 12.933889,7.18155143 12.9033015,7.02734926 C12.9019443,7.02062425 12.9017658,7.01355997 12.9003372,7.00683854 C12.8709622,6.86189172 12.8326322,6.72023313 12.7909622,6.5800806 C12.7853372,6.56115917 12.7821586,6.54129059 12.7763122,6.5224638 L12.7743479,6.51562809 C12.7255529,6.35919449 12.6697486,6.20612196 12.6063793,6.05664336 C12.5431957,5.90747905 12.4728003,5.76147366 12.3954421,5.61914364 C12.2417871,5.33680859 12.0612638,5.06994854 11.8563795,4.82226849 C11.7543905,4.6986674 11.6465184,4.58004095 11.5331369,4.46679985 C11.4249576,4.35880948 11.3118833,4.2558366 11.1942701,4.15820587 C11.1887487,4.15330944 11.1832129,4.1484273 11.1776701,4.14355587 C11.1764201,4.14252015 11.1750272,4.14166301 11.1737701,4.14059158 C11.076054,4.06163192 10.9753968,3.98638334 10.8720125,3.91500582 C10.8360725,3.88965225 10.8012139,3.8632576 10.7645904,3.83883367 C10.6815236,3.78456973 10.5968596,3.73279043 10.5107117,3.68356435 C10.4513849,3.64890006 10.3928414,3.6132847 10.3320006,3.58102469 C10.2545603,3.54089254 10.1760828,3.5027936 10.0966492,3.46676717 C10.0246717,3.43330645 9.95264771,3.40017144 9.87887591,3.37008715 C9.80340804,3.34024786 9.72722446,3.31225107 9.65039373,3.28612035 C9.569543,3.25768463 9.48892798,3.22938927 9.40625332,3.20506534 C9.3337726,3.18454033 9.26083723,3.16565497 9.18750328,3.14842497 C9.10044827,3.12707139 9.01356647,3.10556496 8.92480788,3.08885424 C8.84083643,3.07400424 8.75649892,3.06130424 8.67187819,3.05076924 C8.59338817,3.04013352 8.51513637,3.02937995 8.43555029,3.0224478 C8.29076383,3.00862994 8.14544345,3.00113708 8,2.99998708 L8,2.99998708 Z M7.24023793,3.72166686 L7.91565734,5.30760429 L9.07143041,4.32615911 L9.07143041,7.06834676 L11.7500034,9.24998717 L10.9267615,9.79743334 L8.63867533,9.77399405 L9.91992521,11.5117047 C9.35044296,11.8227719 8.69677534,11.999988 8.00000342,11.999988 C6.3332524,11.999988 4.91106535,10.9889628 4.30859738,9.54491008 C4.6239378,8.32657699 5.09492932,7.15030642 5.76953444,6.49412844 C6.05732449,5.43503503 6.61891745,4.55840737 7.24023793,3.72166686 L7.24023793,3.72166686 Z M8.0357695,7.4999872 L8.03613164,7.92576835 L8.99999861,7.9999872 C8.87598644,7.70021866 8.60634461,7.56213685 8.0357695,7.4999872 L8.0357695,7.4999872 Z" id="形状" fill="#FFFFFF"></path>
    </g>
</svg>