<?xml version="1.0" encoding="UTF-8"?>
<svg width="16px" height="16px" viewBox="0 0 16 16" version="1.1" xmlns="http://www.w3.org/2000/svg" xmlns:xlink="http://www.w3.org/1999/xlink">
    <title>mimetypes/16/application-sweethome3d</title>
    <defs>
        <linearGradient x1="50%" y1="0%" x2="50%" y2="99.7939317%" id="linearGradient-1">
            <stop stop-color="#9BBBC1" offset="0%"></stop>
            <stop stop-color="#77ACB2" offset="100%"></stop>
        </linearGradient>
    </defs>
    <g id="mimetypes/16/application-sweethome3d" stroke="none" stroke-width="1" fill="none" fill-rule="evenodd">
        <path d="M2,13 L2,3 C2,1.8954305 2.8954305,1 4,1 L12,1 C13.1045695,1 14,1.8954305 14,3 L14,13 C14,14.1045695 13.1045695,15 12,15 L4,15 C2.8954305,15 2,14.1045695 2,13 Z" id="path14361" fill="url(#linearGradient-1)"></path>
        <path d="M8.04601216,3.21508125 C8.20116964,3.21882195 8.35500269,3.24004061 8.51694626,3.28371378 L8.68194278,3.33505609 L8.85444298,3.40247398 L9.05203566,3.50518705 L11.968092,5.2975386 C12.4860092,5.59659533 12.8454043,6.10335856 12.9643685,6.72821252 L12.9907906,6.90148777 L12.9998247,7.0853011 L12.9998247,10.3198924 C12.9991784,10.6644274 12.9123064,11.0020249 12.7276957,11.3326075 L12.6271921,11.4973139 L12.5199312,11.6389465 C12.4428017,11.731697 12.3577635,11.8174158 12.2457014,11.9093683 L12.1239234,12.0038899 L11.9917324,12.0907958 L9.02879008,13.911941 C8.52365125,14.2036224 7.92239702,14.2661116 7.32797849,14.0716205 L7.14996095,14.005536 L6.94108397,13.8978286 L4.02511035,12.1046818 C3.92055791,12.0442472 3.82161424,11.9748118 3.71196688,11.8797516 L3.59814747,11.7755341 L3.49351536,11.6636374 L3.47524288,11.6418676 C3.25407386,11.3778297 3.10331945,11.0636421 3.0318291,10.6919356 L3.00273024,10.501255 L2.99359034,10.3180216 L2.99359034,7.0853011 C2.99359034,6.49255985 3.24815106,5.93261703 3.72166308,5.51813497 L3.87024961,5.39826684 L4.00168663,5.31225348 L6.96467156,3.49130524 L7.07351514,3.43263047 L7.2514512,3.35381658 L7.37016424,3.31216227 L7.51060591,3.27296215 L7.63885116,3.24622862 L7.72012798,3.23340769 L7.82828894,3.22226147 L7.98859034,3.21450159 L8.04601216,3.21508125 Z M8.02191015,4.21479076 L7.98859034,4.21450159 L7.83896797,4.22632111 L7.72388344,4.25037515 L7.60556861,4.28905998 L7.52159959,4.32668849 L7.46492866,4.35718216 L4.52536886,6.16416716 L4.42045898,6.23329358 C4.18708083,6.40766477 4.03529314,6.67060642 4.00099275,6.95989072 L3.99359034,7.0853011 L3.99359034,10.3180216 L4.00096189,10.4418112 C4.02033167,10.6054523 4.0774867,10.7624064 4.16788079,10.9001891 L4.24159676,11.0000145 L4.32675353,11.0906011 L4.42173049,11.170507 L4.52555278,11.238912 L7.46481478,13.0459448 L7.59153675,13.108312 C7.72124377,13.1617696 7.85901045,13.1884984 7.99677714,13.1884984 L8.13424531,13.1795888 C8.22549276,13.1677094 8.31554618,13.1439504 8.40201753,13.108312 L8.52873949,13.0459448 L11.4680016,11.238912 L11.571529,11.170307 L11.6662009,11.0902489 L11.7509469,10.9997364 L11.8250171,10.9002249 C11.9155615,10.7624796 11.9728629,10.6055221 11.9923607,10.4418445 L11.9998247,10.3180216 L11.9998247,7.0853011 L11.992493,6.95981353 C11.9583333,6.67034489 11.8065182,6.40719477 11.5730149,6.23270736 L11.4680455,6.16353713 L8.52848593,4.35718216 L8.40929993,4.29793345 C8.32768564,4.26354962 8.24209052,4.23949002 8.15451313,4.22631643 L8.02191015,4.21479076 Z M8.1495827,5.28144434 L8.24400291,5.32213534 L10.7734162,6.73836745 L10.7734162,6.73836745 L10.8408212,6.79274748 L10.8408212,6.79274748 L10.9000034,6.86079419 L10.9000034,6.86079419 L10.9261673,6.90240344 L10.9261673,6.90240344 C10.9544207,6.94993409 10.9748036,7.0036038 10.985253,7.06186729 L10.993219,7.15251471 L10.993219,10.1856977 C10.993219,10.3288779 10.9319559,10.4637007 10.8273898,10.5576368 L10.7595975,10.6088318 L8.21697057,12.2057608 L8.21697057,12.2057608 L8.18268959,12.2210964 L8.18268959,12.2210964 L8.11908637,12.2416145 L8.11908637,12.2416145 L8.03502949,12.2547563 L7.96883268,12.2550111 L7.86745097,12.238007 L7.86745097,12.238007 L7.82495634,12.2237513 L7.82495634,12.2237513 L7.76093497,12.1944161 L5.24040251,10.6088318 C5.11923368,10.5325516 5.03777577,10.4088787 5.01398894,10.2703427 L5.00678105,10.1856977 L5.00678105,7.15251471 C5.00678105,7.11025816 5.0121126,7.06877234 5.02229572,7.02887548 C5.03334191,6.98279074 5.05094059,6.94021439 5.0735811,6.9013123 L5.10158883,6.85865163 L5.10158883,6.85865163 L5.15567085,6.79617475 L5.15567085,6.79617475 L5.24580812,6.72602006 L5.24580812,6.72602006 L7.75599758,5.32213532 C7.85303683,5.26788067 7.96364771,5.24834899 8.07045853,5.2635403 L8.1495827,5.28144434 Z M6.00659034,8.02650159 L6.00659034,9.90950159 L7.49959034,10.8495016 L7.49959034,8.90650159 L6.00659034,8.02650159 Z M9.99259034,8.02650159 L8.49978105,8.90455565 L8.49978105,10.8475557 L9.99259034,9.90950159 L9.99259034,8.02650159 Z M7.99959034,6.33050159 L6.50878105,7.16255565 L7.99978105,8.04055565 L9.48878105,7.16355565 L7.99959034,6.33050159 Z" id="形状" fill="#FFFFFF" fill-rule="nonzero"></path>
    </g>
</svg>