<?xml version="1.0" encoding="UTF-8"?>
<svg width="16px" height="16px" viewBox="0 0 16 16" version="1.1" xmlns="http://www.w3.org/2000/svg" xmlns:xlink="http://www.w3.org/1999/xlink">
    <title>mimetypes/16/application-x-xz</title>
    <defs>
        <linearGradient x1="50%" y1="0%" x2="50%" y2="97.6869065%" id="linearGradient-1">
            <stop stop-color="#666E7B" offset="0%"></stop>
            <stop stop-color="#475055" offset="100%"></stop>
        </linearGradient>
    </defs>
    <g id="mimetypes/16/application-x-xz" stroke="none" stroke-width="1" fill="none" fill-rule="evenodd">
        <g id="Group" transform="translate(2, 1)">
            <path d="M0,12 L0,2 C-1.3527075e-16,0.8954305 0.8954305,-5.12616439e-15 2,-5.32907052e-15 L10,-5.32907052e-15 C11.1045695,-5.53197664e-15 12,0.8954305 12,2 L12,12 C12,13.1045695 11.1045695,14 10,14 L2,14 C0.8954305,14 1.3527075e-16,13.1045695 0,12 Z" id="path14361" fill="url(#linearGradient-1)"></path>
            <path d="M4,4.5 L4,6.5 L0,6.5 L0,4.5 L4,4.5 Z M12,4.5 L12,6.5 L8,6.5 L8,4.5 L12,4.5 Z" id="Combined-Shape" fill-opacity="0.5" fill="#FFF8F8"></path>
            <path d="M7.75,4 C7.88807119,4 8,4.11192881 8,4.25 L8,6.75 C8,6.88807119 7.88807119,7 7.75,7 L4.25,7 C4.11192881,7 4,6.88807119 4,6.75 L4,4.25 C4,4.11192881 4.11192881,4 4.25,4 L7.75,4 Z M7,5 L5,5 L5,6 L7,6 L7,5 Z" id="Combined-Shape" fill="#F4F4F4"></path>
        </g>
        <path d="M4,14.208 L5.435,11.527 L4.084,9 L5.477,9 L5.897,9.931 C6.009,10.176 6.128,10.449 6.275,10.785 L6.303,10.785 C6.422,10.449 6.534,10.176 6.639,9.931 L7.017,9 L8.34,9 L6.996,11.583 L8.431,14.208 L7.038,14.208 L6.555,13.193 C6.429,12.92 6.31,12.647 6.17,12.325 L6.142,12.325 C6.016,12.647 5.904,12.92 5.785,13.193 L5.337,14.208 L4,14.208 Z M8.788,14.208 L8.788,13.452 L11.035,10.036 L9.005,10.036 L9.005,9 L12.575,9 L12.575,9.749 L10.328,13.158 L12.596,13.158 L12.596,14.208 L8.788,14.208 Z" id="XZ" fill="#FFFFFF" fill-rule="nonzero"></path>
    </g>
</svg>