<?xml version="1.0" encoding="UTF-8"?>
<svg width="16px" height="16px" viewBox="0 0 16 16" version="1.1" xmlns="http://www.w3.org/2000/svg" xmlns:xlink="http://www.w3.org/1999/xlink">
    <title>mimetypes/16/application-vnd.ms-powerpoint</title>
    <defs>
        <linearGradient x1="50%" y1="0%" x2="50%" y2="100%" id="linearGradient-1">
            <stop stop-color="#F75251" offset="0%"></stop>
            <stop stop-color="#D14727" offset="100%"></stop>
        </linearGradient>
    </defs>
    <g id="mimetypes/16/application-vnd.ms-powerpoint" stroke="none" stroke-width="1" fill="none" fill-rule="evenodd">
        <path d="M2,13 L2,3 C2,1.8954305 2.8954305,1 4,1 L12,1 C13.1045695,1 14,1.8954305 14,3 L14,13 C14,14.1045695 13.1045695,15 12,15 L4,15 C2.8954305,15 2,14.1045695 2,13 Z" id="path14361" fill="url(#linearGradient-1)"></path>
        <polygon id="Combined-Shape" fill="#FFFFFF" points="4 11 4 5.51923077 9.03846154 3 11 4 11 11.5 9.03846154 13 4 11 9.03846154 11.5 9.03846154 5.09935897 6 6 6 9.5"></polygon>
    </g>
</svg>