<?xml version="1.0" encoding="UTF-8"?>
<svg width="16px" height="16px" viewBox="0 0 16 16" version="1.1" xmlns="http://www.w3.org/2000/svg" xmlns:xlink="http://www.w3.org/1999/xlink">
    <title>mimetypes/16/application-vnd.sun.xml.calc.template</title>
    <defs>
        <linearGradient x1="50%" y1="0%" x2="50%" y2="100%" id="linearGradient-1">
            <stop stop-color="#5C84F0" offset="0%"></stop>
            <stop stop-color="#3B57E3" offset="100%"></stop>
        </linearGradient>
    </defs>
    <g id="mimetypes/16/application-vnd.sun.xml.calc.template" stroke="none" stroke-width="1" fill="none" fill-rule="evenodd">
        <path d="M2,13 L2,3 C2,1.8954305 2.8954305,1 4,1 L12,1 C13.1045695,1 14,1.8954305 14,3 L14,13 C14,14.1045695 13.1045695,15 12,15 L4,15 C2.8954305,15 2,14.1045695 2,13 Z" id="path14361" fill="url(#linearGradient-1)"></path>
        <path d="M3,6 L4,6 L4,5 L6,5 L6,11 L4,11 L4,9 L3,9 L3,12 L13,12 L13,4 L3,4 L3,6 Z M8,5 L8,6 L7,6 L7,5 L8,5 Z M10,5 L10,6 L9,6 L9,5 L10,5 Z M12,5 L12,6 L11,6 L11,5 L12,5 Z M3,8 L4,8 L4,7 L3,7 L3,8 Z M8,7 L8,8 L7,8 L7,7 L8,7 Z M10,7 L10,8 L9,8 L9,7 L10,7 Z M12,7 L12,8 L11,8 L11,7 L12,7 Z M8,9 L8,11 L7,11 L7,9 L8,9 Z M10,9 L10,11 L9,11 L9,9 L10,9 Z M12,9 L12,11 L11,11 L11,9 L12,9 Z" id="rect4215" fill="#FFFFFF"></path>
    </g>
</svg>