<?xml version="1.0" encoding="UTF-8"?>
<svg width="16px" height="16px" viewBox="0 0 16 16" version="1.1" xmlns="http://www.w3.org/2000/svg" xmlns:xlink="http://www.w3.org/1999/xlink">
    <title>mimetypes/16/application-vnd.kde.bluedevil-sendfile</title>
    <defs>
        <linearGradient x1="50%" y1="0%" x2="50%" y2="100%" id="linearGradient-1">
            <stop stop-color="#4358D4" offset="0%"></stop>
            <stop stop-color="#001AA5" offset="100%"></stop>
        </linearGradient>
    </defs>
    <g id="mimetypes/16/application-vnd.kde.bluedevil-sendfile" stroke="none" stroke-width="1" fill="none" fill-rule="evenodd">
        <path d="M2,13 L2,3 C2,1.8954305 2.8954305,1 4,1 L12,1 C13.1045695,1 14,1.8954305 14,3 L14,13 C14,14.1045695 13.1045695,15 12,15 L4,15 C2.8954305,15 2,14.1045695 2,13 Z" id="path14361" fill="url(#linearGradient-1)"></path>
        <path d="M8.5,3 C10.4329966,3 12,4.56700338 12,6.5 L12,9.5 C12,11.4329966 10.4329966,13 8.5,13 C6.56700338,13 5,11.4329966 5,9.5 L5,6.5 C5,4.56700338 6.56700338,3 8.5,3 Z M8.01392744,4.41433841 L8.01392737,7.1753 L6.74594499,6.08835859 L6.16847445,6.58333333 L7.72870654,7.920625 L6.16947095,9.10865338 L6.71203475,9.6318399 L8.01392737,8.639875 L8.01392744,11.6260125 L10.6844145,9.46418961 L8.9183857,7.95055 L10.702935,6.59115402 L8.01392744,4.41433841 Z M8.83059404,8.8651 L9.51271487,9.449775 L8.83059404,10.0019 L8.83059404,8.8651 Z M8.83059404,6.038325 L9.4941357,6.5754 L8.83059404,7.080975 L8.83059404,6.038325 Z" id="形状结合" fill="#FFFFFF"></path>
    </g>
</svg>