<?xml version="1.0" encoding="UTF-8"?>
<svg width="16px" height="16px" viewBox="0 0 16 16" version="1.1" xmlns="http://www.w3.org/2000/svg" xmlns:xlink="http://www.w3.org/1999/xlink">
    <title>mimetypes/16/audio-x-ms-wma</title>
    <defs>
        <linearGradient x1="50%" y1="0%" x2="50%" y2="100%" id="linearGradient-1">
            <stop stop-color="#B7EE43" offset="0%"></stop>
            <stop stop-color="#6AD500" offset="100%"></stop>
        </linearGradient>
    </defs>
    <g id="mimetypes/16/audio-x-ms-wma" stroke="none" stroke-width="1" fill="none" fill-rule="evenodd">
        <path d="M2,13 L2,3 C2,1.8954305 2.8954305,1 4,1 L12,1 C13.1045695,1 14,1.8954305 14,3 L14,13 C14,14.1045695 13.1045695,15 12,15 L4,15 C2.8954305,15 2,14.1045695 2,13 Z" id="path14361" fill="url(#linearGradient-1)"></path>
        <path d="M8,9 L9,11.5 L10,9 L11,9 L10.9996104,11.5 L12,9 L13,9 L14.0062466,11.5156166 L14,14 L13.625,13 L11.375,13 L11,14 L10,14 L10,11.5 L9.4,13 L8.6,13 L8,11.5 L8,14 L7,14 L6.99961035,10.136 L6.15,14 L5.05,14 L4.5,10.9875001 L3.95,14 L2.85,14 L2.00168498,10.1440226 L2.00061035,9 L2.85,9 L3.4,12 L3.95,9 L5.05,9 L5.6,12 L6.15,9 L8,9 Z M12.5,10 L11.75,12 L13.25,12 L12.5,10 Z" id="形状结合" fill="#FFFFFF"></path>
    </g>
</svg>