<?xml version="1.0" encoding="UTF-8"?>
<svg width="16px" height="16px" viewBox="0 0 16 16" version="1.1" xmlns="http://www.w3.org/2000/svg" xmlns:xlink="http://www.w3.org/1999/xlink">
    <title>mimetypes/16/image-x-xcf</title>
    <defs>
        <linearGradient x1="50%" y1="0%" x2="50%" y2="100%" id="linearGradient-1">
            <stop stop-color="#28DCB1" offset="0%"></stop>
            <stop stop-color="#00AF9D" offset="100%"></stop>
        </linearGradient>
    </defs>
    <g id="mimetypes/16/image-x-xcf" stroke="none" stroke-width="1" fill="none" fill-rule="evenodd">
        <path d="M2,13 L2,3 C2,1.8954305 2.8954305,1 4,1 L12,1 C13.1045695,1 14,1.8954305 14,3 L14,13 C14,14.1045695 13.1045695,15 12,15 L4,15 C2.8954305,15 2,14.1045695 2,13 Z" id="path14361" fill="url(#linearGradient-1)"></path>
        <path d="M8.00440291,9 C8.79134695,9 9.47144486,9.47034762 9.79958123,10.1565738 L8.95961857,10.7851619 C8.83094149,10.3288781 8.45240898,10 8.00440291,10 C7.44791667,10 7.00220145,10.5028869 7.00220145,11.1286611 L7.00220145,11.8713389 C7.00220145,12.4966028 7.45013233,13 8.00440291,13 C8.45421179,13 8.83164822,12.6714379 8.95982625,12.2149935 L9.79999995,12.8437396 L9.72454479,12.9873457 C9.37501682,13.5945251 8.73722086,14 8.00440291,14 C6.89627003,14 6,13.0673581 6,11.9125987 L6,11.0874013 C6,9.9328081 6.89290086,9 8.00440291,9 Z M3.5,9 L4.5,10.6666667 L5.5,9 L6.5,9 L5,11.5 L6.5,14 L5.5,14 L4.5,12.3333333 L3.5,14 L2.5,14 L4,11.5 L2.5,9 L3.5,9 Z M10,9 L13,9 L13,10 L11,10 L11,11 L13,11 L13,12 L11,12 L11,14 L10,14 L10,9 Z" id="形状结合" fill="#FFFFFF"></path>
    </g>
</svg>