<?xml version="1.0" encoding="UTF-8"?>
<svg width="16px" height="16px" viewBox="0 0 16 16" version="1.1" xmlns="http://www.w3.org/2000/svg" xmlns:xlink="http://www.w3.org/1999/xlink">
    <title>mimetypes/16/image-x-eps</title>
    <defs>
        <linearGradient x1="50%" y1="0%" x2="50%" y2="99.3718328%" id="linearGradient-1">
            <stop stop-color="#FFBC2A" offset="0%"></stop>
            <stop stop-color="#E77B00" offset="100%"></stop>
        </linearGradient>
    </defs>
    <g id="mimetypes/16/image-x-eps" stroke="none" stroke-width="1" fill="none" fill-rule="evenodd">
        <path d="M2,13 L2,3 C2,1.8954305 2.8954305,1 4,1 L12,1 C13.1045695,1 14,1.8954305 14,3 L14,13 C14,14.1045695 13.1045695,15 12,15 L4,15 C2.8954305,15 2,14.1045695 2,13 Z" id="path14361" fill="url(#linearGradient-1)" opacity="0.9"></path>
        <path d="M12,8 L12,13 L11,13 L11,8 L12,8 Z M12,6 L12,7 L11,7 L11,6 L12,6 Z M7.36616162,4 L6.02272727,4 L3,13 L4.16111151,13 L4.9000002,11 L8.48888969,11 L9.22777738,13 L10.3888889,13 L7.36616162,4 Z M5.21666707,10 L6.69444444,5.5 L8.17222182,10 L5.21666707,10 Z" id="形状结合" fill="#FFFFFF"></path>
    </g>
</svg>