<?xml version="1.0" encoding="UTF-8"?>
<svg width="16px" height="16px" viewBox="0 0 16 16" version="1.1" xmlns="http://www.w3.org/2000/svg" xmlns:xlink="http://www.w3.org/1999/xlink">
    <title>mimetypes/16/opera-unite-application</title>
    <defs>
        <linearGradient x1="50%" y1="0%" x2="50%" y2="100%" id="linearGradient-1">
            <stop stop-color="#F33C3C" offset="0%"></stop>
            <stop stop-color="#DC2121" offset="99.6278505%"></stop>
        </linearGradient>
    </defs>
    <g id="mimetypes/16/opera-unite-application" stroke="none" stroke-width="1" fill="none" fill-rule="evenodd">
        <path d="M2,13 L2,3 C2,1.8954305 2.8954305,1 4,1 L12,1 C13.1045695,1 14,1.8954305 14,3 L14,13 C14,14.1045695 13.1045695,15 12,15 L4,15 C2.8954305,15 2,14.1045695 2,13 Z" id="path14361" fill="url(#linearGradient-1)"></path>
        <path d="M12.9997577,10.9770148 C13.0138694,9.93310154 12.4125352,8.69265687 10.9548277,7.84080644 C9.2687225,6.84614312 7.99431066,7.70319006 7.99431066,7.70319006 C7.99431066,7.70319006 9.41265117,7.38832326 9.964426,8.39851562 C10.516087,9.40893957 10.0651763,10.0025448 9.8468605,10.3867124 C9.11587283,11.6738758 9.81531017,12.426421 10.406188,12.7732726 C10.997066,13.1201242 12.081121,13.1933652 12.71475,12.0779469 C12.892926,11.7641708 12.994236,11.3855023 12.9997577,10.9770148 L12.9997577,10.9770148 Z M10.9156393,4.7335701 C10.9156393,4.03998281 10.4335488,3.04957841 9.16640467,3.04957841 C7.89914666,3.04957841 6.43312415,4.3365102 6.43744606,6.71452392 C6.43312465,8.69620169 7.80193049,9.39080314 7.80193049,9.39080314 C7.80193049,9.39080314 6.82520932,8.3029082 7.41004499,7.31206924 C7.99488066,6.32123027 8.72632433,6.41756196 9.16284217,6.41756196 C10.6249313,6.41756196 10.9156393,5.42715739 10.9156393,4.7335701 L10.9156393,4.7335701 Z M9.35522233,8.74255701 C9.35522233,8.74255701 8.913489,10.148708 7.77699232,10.1295866 C6.64026765,10.1101176 6.35996265,9.41632737 6.14176082,9.03227585 C5.41077315,7.7449964 4.42051414,7.98297163 3.82963614,8.32970734 C3.2387583,8.67644304 2.63667963,9.5969962 3.27030863,10.712646 C3.9035958,11.8280643 5.73539698,12.4740509 7.75917932,11.2812197 C9.44961683,10.2944368 9.35522233,8.74255701 9.35522233,8.74255701 L9.35522233,8.74255701 Z" id="path3884" fill="#FFFFFF"></path>
    </g>
</svg>