<?xml version="1.0" encoding="UTF-8"?>
<svg width="16px" height="16px" viewBox="0 0 16 16" version="1.1" xmlns="http://www.w3.org/2000/svg" xmlns:xlink="http://www.w3.org/1999/xlink">
    <title>mimetypes/16/package-x-ddf</title>
    <defs>
        <linearGradient x1="50%" y1="0%" x2="50%" y2="98.9468961%" id="linearGradient-1">
            <stop stop-color="#F7F7F7" offset="0%"></stop>
            <stop stop-color="#F6F6F6" offset="100%"></stop>
        </linearGradient>
        <path d="M0,12 L0,2 C-1.3527075e-16,0.8954305 0.8954305,2.02906125e-16 2,0 L10,0 C11.1045695,-2.02906125e-16 12,0.8954305 12,2 L12,12 C12,13.1045695 11.1045695,14 10,14 L2,14 C0.8954305,14 1.3527075e-16,13.1045695 0,12 Z" id="path-2"></path>
        <linearGradient x1="56.9096326%" y1="0%" x2="6.8992975%" y2="86.2898213%" id="linearGradient-4">
            <stop stop-color="#1B90FF" offset="0%"></stop>
            <stop stop-color="#53A0FD" offset="47.5247532%"></stop>
            <stop stop-color="#68FFAD" offset="100%"></stop>
        </linearGradient>
        <linearGradient x1="56.8685664%" y1="0%" x2="7.15545875%" y2="86.2898213%" id="linearGradient-5">
            <stop stop-color="#1B90FF" offset="0%"></stop>
            <stop stop-color="#53A0FD" offset="47.5247532%"></stop>
            <stop stop-color="#68FFAD" offset="100%"></stop>
        </linearGradient>
        <linearGradient x1="56.91157%" y1="0%" x2="96.0869522%" y2="71.0304085%" id="linearGradient-6">
            <stop stop-color="#A197FF" offset="0%"></stop>
            <stop stop-color="#60FFA4" offset="100%"></stop>
        </linearGradient>
        <linearGradient x1="88.125222%" y1="18.2999345%" x2="-0.286538373%" y2="92.1740161%" id="linearGradient-7">
            <stop stop-color="#DD61FA" offset="0%"></stop>
            <stop stop-color="#FFDC5A" offset="100%"></stop>
        </linearGradient>
        <linearGradient x1="96.3907596%" y1="20.7037635%" x2="-0.0341632463%" y2="84.7270053%" id="linearGradient-8">
            <stop stop-color="#FA6196" offset="0%"></stop>
            <stop stop-color="#FFD849" offset="100%"></stop>
        </linearGradient>
        <linearGradient x1="95.7922523%" y1="15.9616874%" x2="0%" y2="67.9801117%" id="linearGradient-9">
            <stop stop-color="#FF9532" offset="0%"></stop>
            <stop stop-color="#FFFF46" offset="100%"></stop>
        </linearGradient>
    </defs>
    <g id="mimetypes/16/package-x-ddf" stroke="none" stroke-width="1" fill="none" fill-rule="evenodd">
        <g id="Group" transform="translate(2, 1)">
            <mask id="mask-3" fill="white">
                <use xlink:href="#path-2"></use>
            </mask>
            <use id="蒙版" fill="url(#linearGradient-1)" xlink:href="#path-2"></use>
            <g mask="url(#mask-3)" id="路径">
                <g transform="translate(-6, -3.9748)">
                    <path d="M6.36347765,19.084035 C5.09352076,17.7071567 4.36737407,14.6785503 5.45272485,12.0502316 C7.36885124,7.41008131 13.6866928,4.81486656 9.58236907,1.36797057 C17.957228,3.57068106 17.5842756,16.0355753 13.6866928,19.2345828 C12.8536032,19.9183553 12.0099143,20.3009497 11.1970765,20.4700472 L6.36347765,19.084035 Z" fill="url(#linearGradient-4)" transform="translate(10.6348, 10.919) scale(-1, 1) rotate(138) translate(-10.6348, -10.919)"></path>
                    <path d="M6.36347765,19.084035 C5.09352076,17.7071567 4.36737407,14.6785503 5.45272485,12.0502316 C7.36885124,7.41008131 13.6866928,4.81486656 9.58236907,1.36797057 C17.957228,3.57068106 17.5842756,16.0355753 13.6866928,19.2345828 C12.8536032,19.9183553 12.0099143,20.3009497 11.1970765,20.4700472 L6.36347765,19.084035 Z" fill="url(#linearGradient-5)" transform="translate(10.6348, 10.919) scale(-1, 1) rotate(138) translate(-10.6348, -10.919)"></path>
                    <path d="M10.598506,1.94527958 C17.8340573,4.90597086 17.3239622,16.3936347 13.6051493,19.4459137 C12.7720598,20.1296862 11.9283709,20.5122806 11.1155331,20.6813781 L6.43667794,19.339738 C6.25836055,18.1191641 6.30766724,16.8072758 6.6838019,15.5323962 C8.43456098,9.59833287 15.8437373,5.60361993 10.3692167,1.90763895 C10.4461459,1.91946009 10.5225752,1.93201015 10.598506,1.94527958 Z" fill="url(#linearGradient-6)" transform="translate(11.3006, 11.2945) scale(-1, 1) rotate(138) translate(-11.3006, -11.2945)"></path>
                    <path d="M13.7421359,2.18908324 C18.1870961,6.49910474 17.3632307,15.3740463 14.1626869,18.0009473 C13.3295974,18.6847197 12.4859084,19.0673142 11.6730706,19.2364116 L7.0107461,17.8995116 C7.06831043,16.76884 7.33657196,15.6015095 7.87701618,14.5145989 C10.5393361,9.16029268 18.2619464,6.60154872 13.6715087,2.1648605 C13.6951167,2.17286788 13.7186591,2.18094223 13.7421359,2.18908324 Z" fill="url(#linearGradient-7)" transform="translate(11.9161, 10.7006) scale(-1, 1) rotate(138) translate(-11.9161, -10.7006)"></path>
                    <path d="M19.2384511,3.1122473 C19.4820258,6.65177327 18.4310964,10.1556294 16.6145015,11.6466306 C15.781412,12.330403 14.937723,12.7129975 14.1248852,12.882095 L9.49153767,11.5535039 C9.80852521,10.764689 10.2571838,10.0018285 10.8517976,9.32827094 C13.4518891,6.38297871 18.0301707,5.34257177 19.2384517,3.1122473 L19.2384511,3.1122473 Z" fill="url(#linearGradient-8)" transform="translate(14.3824, 7.9972) scale(-1, 1) rotate(138) translate(-14.3824, -7.9972)"></path>
                    <path d="M20.4114429,3.65577092 C20.0135323,4.4349888 19.5282897,5.08185101 18.9709847,5.53926866 C18.1378952,6.22304104 17.2942062,6.60563556 16.4813684,6.77473301 L12.1331169,5.52789194 C12.2903274,5.43706702 12.452892,5.35288072 12.6206341,5.27621667 C15.3001057,4.05160365 18.7148291,4.63937562 20.4114429,3.65577092 Z" fill="url(#linearGradient-9)" transform="translate(16.2723, 5.2153) scale(-1, 1) rotate(138) translate(-16.2723, -5.2153)"></path>
                </g>
            </g>
        </g>
        <path d="M11.9914698,0.5 L4.0085302,0.5 C2.62512779,0.5 1.5,1.6225886 1.5,3.00585866 L1.5,12.9941413 C1.5,14.3789266 2.62295066,15.5 4.0085302,15.5 L11.9914698,15.5 C13.3748722,15.5 14.5,14.3774114 14.5,12.9941413 L14.5,3.00585866 C14.5,1.62107339 13.3770493,0.5 11.9914698,0.5 Z M11.9914698,1 C13.1007504,1 14,1.89706013 14,3.00585866 L14,12.9941413 C14,14.1019465 13.0980496,15 11.9914698,15 L4.0085302,15 C2.8992496,15 2,14.1029399 2,12.9941413 L2,3.00585866 C2,1.89805351 2.90195036,1 4.0085302,1 L11.9914698,1 Z" id="path14361" fill-opacity="0.1" fill="#000000" fill-rule="nonzero"></path>
    </g>
</svg>