<?xml version="1.0" encoding="UTF-8"?>
<svg width="16px" height="16px" viewBox="0 0 16 16" version="1.1" xmlns="http://www.w3.org/2000/svg" xmlns:xlink="http://www.w3.org/1999/xlink">
    <title>mimetypes/16/package-x-generic</title>
    <defs>
        <linearGradient x1="50%" y1="0%" x2="50%" y2="100%" id="linearGradient-1">
            <stop stop-color="#6F99D9" offset="0%"></stop>
            <stop stop-color="#2A90C8" offset="100%"></stop>
        </linearGradient>
    </defs>
    <g id="mimetypes/16/package-x-generic" stroke="none" stroke-width="1" fill="none" fill-rule="evenodd">
        <path d="M2,13 L2,3 C2,1.8954305 2.8954305,1 4,1 L12,1 C13.1045695,1 14,1.8954305 14,3 L14,13 C14,14.1045695 13.1045695,15 12,15 L4,15 C2.8954305,15 2,14.1045695 2,13 Z" id="path14361" fill="url(#linearGradient-1)"></path>
        <path d="M11.5,4 C11.6671766,4 11.8232923,4.08355057 11.9160251,4.2226499 L13.9160251,7.2226499 C14.1375434,7.55492727 13.8993477,8 13.5,8 L11.9991593,8 L12,12.5 C12,12.7454599 11.8231248,12.9496084 11.5898756,12.9919443 L11.5,13 L4.5,13 C4.22385763,13 4,12.7761424 4,12.5 L3.99915929,8 L2.5,8 C2.12917714,8 1.89730677,7.61623831 2.04343429,7.29537535 L2.08397485,7.2226499 L4.08397485,4.2226499 C4.17670774,4.08355057 4.33282341,4 4.5,4 L11.5,4 Z M10.9991593,8 L4.99915929,8 L5,12 L11,12 L10.9991593,8 Z M9,9 L9,10 L10,10 L8.5,11.5 L7,10 L8,10 L8,9 L9,9 Z M11.232,5 L4.767,5 L3.434,7 L4.48915929,7 L4.5,7 L11.5,7 L12.565,7 L11.232,5 Z" id="形状结合" fill="#FFFFFF" fill-rule="nonzero"></path>
    </g>
</svg>