<?xml version="1.0" encoding="UTF-8"?>
<svg width="16px" height="16px" viewBox="0 0 16 16" version="1.1" xmlns="http://www.w3.org/2000/svg" xmlns:xlink="http://www.w3.org/1999/xlink">
    <title>mimetypes/16/text-x-csrc</title>
    <defs>
        <linearGradient x1="50%" y1="0%" x2="50%" y2="100%" id="linearGradient-1">
            <stop stop-color="#33CC99" offset="0%"></stop>
            <stop stop-color="#00AE74" offset="100%"></stop>
        </linearGradient>
    </defs>
    <g id="mimetypes/16/text-x-csrc" stroke="none" stroke-width="1" fill="none" fill-rule="evenodd">
        <path d="M2,13 L2,3 C2,1.8954305 2.8954305,1 4,1 L12,1 C13.1045695,1 14,1.8954305 14,3 L14,13 C14,14.1045695 13.1045695,15 12,15 L4,15 C2.8954305,15 2,14.1045695 2,13 Z" id="path14361" fill="url(#linearGradient-1)"></path>
        <path d="M8.4822486,5 C9.29344223,5 10.0620362,5.28044544 10.6759601,5.7816708 L10.8394749,5.92379768 L10.1605251,6.65798233 C9.70537401,6.23707358 9.11279078,6 8.4822486,6 C7.11200699,6 6,7.11862605 6,8.5 C6,9.88137395 7.11200699,11 8.4822486,11 C9.02020957,11 9.53069753,10.8275367 9.95226741,10.5147373 L10.1060681,10.3909219 L10.7632846,11.1446238 C10.1347981,11.6926545 9.33158298,12 8.4822486,12 C6.55838936,12 5,10.4323345 5,8.5 C5,6.56766545 6.55838936,5 8.4822486,5 Z" id="Oval" fill="#FFFFFF" fill-rule="nonzero"></path>
    </g>
</svg>