<?xml version="1.0" encoding="UTF-8"?>
<svg width="16px" height="16px" viewBox="0 0 16 16" version="1.1" xmlns="http://www.w3.org/2000/svg" xmlns:xlink="http://www.w3.org/1999/xlink">
    <title>mimetypes/16/text-x-scala</title>
    <defs>
        <linearGradient x1="50%" y1="3.5403115%" x2="50%" y2="100%" id="linearGradient-1">
            <stop stop-color="#FF6740" offset="0%"></stop>
            <stop stop-color="#E02222" offset="100%"></stop>
        </linearGradient>
    </defs>
    <g id="mimetypes/16/text-x-scala" stroke="none" stroke-width="1" fill="none" fill-rule="evenodd">
        <path d="M2,13 L2,3 C2,1.8954305 2.8954305,1 4,1 L12,1 C13.1045695,1 14,1.8954305 14,3 L14,13 C14,14.1045695 13.1045695,15 12,15 L4,15 C2.8954305,15 2,14.1045695 2,13 Z" id="path14361" fill="url(#linearGradient-1)"></path>
        <path d="M13,9.29166667 L13,10.125 L3,13.0416667 L3,12.2083333 L13,9.29166667 Z M13,6.375 L13,7.20833333 L3,10.125 L3,9.29166667 L13,6.375 Z M13,3.45833333 L13,4.29166667 L3,7.20833333 L3,6.375 L13,3.45833333 Z" id="形状结合" fill="#FFFFFF"></path>
    </g>
</svg>