<?xml version="1.0" encoding="UTF-8"?>
<svg width="16px" height="16px" viewBox="0 0 16 16" version="1.1" xmlns="http://www.w3.org/2000/svg" xmlns:xlink="http://www.w3.org/1999/xlink">
    <title>mimetypes/16/text-x-tex</title>
    <defs>
        <linearGradient x1="50%" y1="0%" x2="50%" y2="97.9504916%" id="linearGradient-1">
            <stop stop-color="#9958FF" offset="0%"></stop>
            <stop stop-color="#8401ED" offset="100%"></stop>
        </linearGradient>
    </defs>
    <g id="mimetypes/16/text-x-tex" stroke="none" stroke-width="1" fill="none" fill-rule="evenodd">
        <path d="M2,13 L2,3 C2,1.8954305 2.8954305,1 4,1 L12,1 C13.1045695,1 14,1.8954305 14,3 L14,13 C14,14.1045695 13.1045695,15 12,15 L4,15 C2.8954305,15 2,14.1045695 2,13 Z" id="path14361" fill="url(#linearGradient-1)"></path>
        <g id="Group" transform="translate(3, 6)" fill="#FFFFFF">
            <path d="M6,1 L6,2 L4,2 L4,3 L6,3 L6,4 L4,4 L4,5 L6,5 L6,6 L3,6 L3,1 L6,1 Z M3,0 L3,1 L2,1 L2,5 L1,5 L1,1 L0,1 L0,0 L3,0 Z M7,0 L8,1.66666667 L9,0 L10,0 L8.5,2.5 L10,5 L9,5 L8,3.33333333 L7,5 L6,5 L7.5,2.5 L6,0 L7,0 Z" id="形状结合"></path>
        </g>
    </g>
</svg>