<?xml version="1.0" encoding="UTF-8"?>
<svg width="16px" height="16px" viewBox="0 0 16 16" version="1.1" xmlns="http://www.w3.org/2000/svg" xmlns:xlink="http://www.w3.org/1999/xlink">
    <title>mimetypes/16/text-x-c++src</title>
    <defs>
        <linearGradient x1="50%" y1="0%" x2="50%" y2="100%" id="linearGradient-1">
            <stop stop-color="#00BB7D" offset="0%"></stop>
            <stop stop-color="#00A361" offset="100%"></stop>
        </linearGradient>
    </defs>
    <g id="mimetypes/16/text-x-c++src" stroke="none" stroke-width="1" fill="none" fill-rule="evenodd">
        <path d="M2,13 L2,3 C2,1.8954305 2.8954305,1 4,1 L12,1 C13.1045695,1 14,1.8954305 14,3 L14,13 C14,14.1045695 13.1045695,15 12,15 L4,15 C2.8954305,15 2,14.1045695 2,13 Z" id="path14361" fill="url(#linearGradient-1)"></path>
        <path d="M6.4822486,5 C7.29344223,5 8.06203615,5.28044544 8.67596011,5.7816708 L8.83947492,5.92379768 L8.16052508,6.65798233 C7.70537401,6.23707358 7.11279078,6 6.4822486,6 C5.11200699,6 4,7.11862605 4,8.5 C4,9.88137395 5.11200699,11 6.4822486,11 C7.02020957,11 7.53069753,10.8275367 7.95226741,10.5147373 L8.10606808,10.3909219 L8.76328459,11.1446238 C8.13479805,11.6926545 7.33158298,12 6.4822486,12 C4.55838936,12 3,10.4323345 3,8.5 C3,6.56766545 4.55838936,5 6.4822486,5 Z M10,6 L10,7 L11,7 L11,8 L12,8 L12,7 L13,7 L13,6 L12,6 L12,5 L11,5 L11,6 L10,6 Z M10,10 L10,11 L11,11 L11,12 L12,12 L12,11 L13,11 L13,10 L12,10 L12,9 L11,9 L11,10 L10,10 Z" id="形状结合" fill="#FFFFFF" fill-rule="nonzero"></path>
    </g>
</svg>