<?xml version="1.0" encoding="UTF-8"?>
<svg width="16px" height="16px" viewBox="0 0 16 16" version="1.1" xmlns="http://www.w3.org/2000/svg" xmlns:xlink="http://www.w3.org/1999/xlink">
    <title>mimetypes/16/text-xml</title>
    <defs>
        <linearGradient x1="50%" y1="0%" x2="50%" y2="99.6278505%" id="linearGradient-1">
            <stop stop-color="#FF4BB4" offset="0%"></stop>
            <stop stop-color="#F6237B" offset="98.9152238%"></stop>
        </linearGradient>
    </defs>
    <g id="mimetypes/16/text-xml" stroke="none" stroke-width="1" fill="none" fill-rule="evenodd">
        <path d="M2,13 L2,3 C2,1.8954305 2.8954305,1 4,1 L12,1 C13.1045695,1 14,1.8954305 14,3 L14,13 C14,14.1045695 13.1045695,15 12,15 L4,15 C2.8954305,15 2,14.1045695 2,13 Z" id="path14361" fill="url(#linearGradient-1)"></path>
        <path d="M5.14644661,6.14644661 C5.34170876,5.95118446 5.65829124,5.95118446 5.85355339,6.14644661 C6.02711974,6.32001296 6.04640489,6.58943736 5.91140884,6.7843055 L5.85355339,6.85355339 L4.207,8.5 L5.85355339,10.1464466 C6.02711974,10.320013 6.04640489,10.5894374 5.91140884,10.7843055 L5.85355339,10.8535534 C5.67998704,11.0271197 5.41056264,11.0464049 5.2156945,10.9114088 L5.14644661,10.8535534 L3.14644661,8.85355339 C2.97288026,8.67998704 2.95359511,8.41056264 3.08859116,8.2156945 L3.14644661,8.14644661 L5.14644661,6.14644661 Z M10.8535534,6.14644661 C10.6582912,5.95118446 10.3417088,5.95118446 10.1464466,6.14644661 C9.97288026,6.32001296 9.95359511,6.58943736 10.0885912,6.7843055 L10.1464466,6.85355339 L11.793,8.5 L10.1464466,10.1464466 C9.97288026,10.320013 9.95359511,10.5894374 10.0885912,10.7843055 L10.1464466,10.8535534 C10.320013,11.0271197 10.5894374,11.0464049 10.7843055,10.9114088 L10.8535534,10.8535534 L12.8535534,8.85355339 C13.0271197,8.67998704 13.0464049,8.41056264 12.9114088,8.2156945 L12.8535534,8.14644661 L10.8535534,6.14644661 Z M8.5527864,6.2763932 C8.67628103,6.02940395 8.97661755,5.92929178 9.2236068,6.0527864 C9.4431528,6.1625594 9.54664777,6.41205933 9.48020199,6.63961698 L9.4472136,6.7236068 L7.4472136,10.7236068 C7.32371897,10.970596 7.02338245,11.0707082 6.7763932,10.9472136 C6.5568472,10.8374406 6.45335223,10.5879407 6.51979801,10.360383 L6.5527864,10.2763932 L8.5527864,6.2763932 Z" id="形状结合" fill="#FFFFFF" fill-rule="nonzero"></path>
    </g>
</svg>