<?xml version="1.0" encoding="UTF-8"?>
<svg width="16px" height="16px" viewBox="0 0 16 16" version="1.1" xmlns="http://www.w3.org/2000/svg" xmlns:xlink="http://www.w3.org/1999/xlink">
    <title>mimetypes/16/video-x-rmvb</title>
    <defs>
        <linearGradient x1="50%" y1="0%" x2="50%" y2="100%" id="linearGradient-1">
            <stop stop-color="#327DFF" offset="0%"></stop>
            <stop stop-color="#1066FF" offset="100%"></stop>
        </linearGradient>
    </defs>
    <g id="mimetypes/16/video-x-rmvb" stroke="none" stroke-width="1" fill="none" fill-rule="evenodd">
        <path d="M2,13 L2,3 C2,1.8954305 2.8954305,1 4,1 L12,1 C13.1045695,1 14,1.8954305 14,3 L14,13 C14,14.1045695 13.1045695,15 12,15 L4,15 C2.8954305,15 2,14.1045695 2,13 Z" id="path14361" fill="url(#linearGradient-1)"></path>
        <path d="M10,13 L9.6,13 L8.8,11 L8.8,14 L8,14 L8,9 L8.4,9 L8.8,9 L10,12 L11.2,9 L11.6,9 L12,9 L12,14 L11.2,14 L11.2,11 L10.4,13 L10,13 L10,13 Z M5.5,9 C6.32842712,9 7,9.67157288 7,10.5 C7,11.0984168 6.64957746,11.614988 6.14273974,11.8557062 L7,14 L6,14 L5.2,12 L5,12 L5,14 L4,14 L4,9 L5.5,9 Z M5.5,10 L5,10 L5,11 L5.5,11 C5.77614237,11 6,10.7761424 6,10.5 C6,10.2238576 5.77614237,10 5.5,10 Z" id="形状结合" fill="#FFFFFF"></path>
    </g>
</svg>