<?xml version="1.0" encoding="UTF-8"?>
<svg width="16px" height="16px" viewBox="0 0 16 16" version="1.1" xmlns="http://www.w3.org/2000/svg" xmlns:xlink="http://www.w3.org/1999/xlink">
    <title>mimetypes/16/video-x-mp4</title>
    <defs>
        <linearGradient x1="50%" y1="0%" x2="50%" y2="100%" id="linearGradient-1">
            <stop stop-color="#327DFF" offset="0%"></stop>
            <stop stop-color="#1066FF" offset="100%"></stop>
        </linearGradient>
    </defs>
    <g id="mimetypes/16/video-x-mp4" stroke="none" stroke-width="1" fill="none" fill-rule="evenodd">
        <path d="M2,13 L2,3 C2,1.8954305 2.8954305,1 4,1 L12,1 C13.1045695,1 14,1.8954305 14,3 L14,13 C14,14.1045695 13.1045695,15 12,15 L4,15 C2.8954305,15 2,14.1045695 2,13 Z" id="path14361" fill="url(#linearGradient-1)"></path>
        <path d="M9.50468445,9 C10.3305244,9 11,9.66579723 11,10.5 C11,11.2581275 10.4329331,11.8848923 9.70960569,11.9858064 L9,12 L9,14 L8,14 L8,9 Z M13,9 L13,12 L13.5,12 L13.5,13 L13,13 L13,14 L12,14 L12,13 L10.5,13 L10.5,12 L12,9 L13,9 Z M12,11 L11.5,12 L12,12 L12,11 Z M9.49531555,10 L9,10 L9,11 L9.49531555,11 C9.78596497,11 10,10.7761424 10,10.5 C10,10.2319336 9.77404508,10 9.49531555,10 Z M5,13 L4.6,13 L3.8,11 L3.8,14 L3,14 L3,9 L3.4,9 L3.8,9 L5,12 L6.2,9 L6.6,9 L7,9 L7,14 L6.2,14 L6.2,11 L5.4,13 L5,13 L5,13 Z" id="形状结合" fill="#FFFFFF"></path>
    </g>
</svg>