<?xml version="1.0" encoding="UTF-8"?>
<svg width="16px" height="16px" viewBox="0 0 16 16" version="1.1" xmlns="http://www.w3.org/2000/svg" xmlns:xlink="http://www.w3.org/1999/xlink">
    <title>mimetypes/16/x-dia-diagram</title>
    <defs>
        <linearGradient x1="50%" y1="0%" x2="50%" y2="98.5008446%" id="linearGradient-1">
            <stop stop-color="#7FCB10" offset="0%"></stop>
            <stop stop-color="#50A100" offset="100%"></stop>
        </linearGradient>
    </defs>
    <g id="mimetypes/16/x-dia-diagram" stroke="none" stroke-width="1" fill="none" fill-rule="evenodd">
        <path d="M2,13 L2,3 C2,1.8954305 2.8954305,1 4,1 L12,1 C13.1045695,1 14,1.8954305 14,3 L14,13 C14,14.1045695 13.1045695,15 12,15 L4,15 C2.8954305,15 2,14.1045695 2,13 Z" id="path14361" fill="url(#linearGradient-1)"></path>
        <g id="Group-2" transform="translate(3, 3.5)" fill="#FFFFFF" fill-rule="nonzero">
            <path d="M5,6.125 L2.833,4.5 L2,4.5 L2,6.5 L4,6.5 L4,9.5 L0,9.5 L0,6.5 L1,6.5 L1,3.5 L2.833,3.5 L4.166,2.5 L3,2.5 L3,-0.5 L7,-0.5 L7,2.5 L5.833,2.5 L7.166,3.5 L8.5,3.5 L8.5,6.5 L10,6.5 L10,9.5 L6,9.5 L6,6.5 L7.5,6.5 L7.5,4.5 L7.166,4.5 L5,6.125 Z M3,7.5 L1,7.5 L1,8.5 L3,8.5 L3,7.5 Z M9,7.5 L7,7.5 L7,8.5 L9,8.5 L9,7.5 Z M5,3.125 L3.833,4 L5,4.875 L6,4.125 L6,3.875 L5,3.125 Z M6,0.5 L4,0.5 L4,1.5 L6,1.5 L6,0.5 Z" id="形状结合"></path>
        </g>
    </g>
</svg>