<?xml version="1.0" encoding="UTF-8"?>
<svg width="16px" height="16px" viewBox="0 0 16 16" version="1.1" xmlns="http://www.w3.org/2000/svg" xmlns:xlink="http://www.w3.org/1999/xlink">
    <title>mimetypes/16/x-office-spreadsheet</title>
    <defs>
        <linearGradient x1="50%" y1="0%" x2="50%" y2="98.5008446%" id="linearGradient-1">
            <stop stop-color="#7FCB10" offset="0%"></stop>
            <stop stop-color="#50A100" offset="100%"></stop>
        </linearGradient>
    </defs>
    <g id="mimetypes/16/x-office-spreadsheet" stroke="none" stroke-width="1" fill="none" fill-rule="evenodd">
        <path d="M2,13 L2,3 C2,1.8954305 2.8954305,1 4,1 L12,1 C13.1045695,1 14,1.8954305 14,3 L14,13 C14,14.1045695 13.1045695,15 12,15 L4,15 C2.8954305,15 2,14.1045695 2,13 Z" id="path14361" fill="url(#linearGradient-1)"></path>
        <path d="M13,3 L13,13 L3,13 L3,3 L13,3 Z M6,4 L4,4 L4,12 L6,12 L6,4 Z M7,12 L8,12 L8,8.00033291 L7.00015429,8.00033293 L7,12 Z M9.99970115,8.00033291 L8.99970114,8 L8.999,12 L9.999,12 L9.99970115,8.00033291 Z M7,4 L7.00030792,4.99894861 L7.99990016,4.99894851 L7.99972776,4 L7,4 Z M9.99990017,5.99947426 L8.99990016,5.99914134 L8.99970114,6.99914134 L9.99970114,6.99947426 L9.99990017,5.99947426 Z M7.00005445,6.99894859 L7.99970113,6.99894851 L7.99990016,5.99894851 L7.0001089,5.99894855 L7.00005445,6.99894859 Z M10.9999002,4.9996495 L11.9999002,5 L11.9999002,6 L10.9999002,5.9996495 L10.9997012,6.9996495 L11.9997012,7 L11.9997012,8.00033293 L11,8.00033293 L10.999,12 L12,12 L12,4 L10.9997278,4 L10.9999002,4.9996495 Z M8.99972776,4 L8.99990016,4.99914134 L9.99990017,4.99947426 L9.99972776,4 L8.99972776,4 Z" id="形状结合" fill="#FFFFFF" fill-rule="nonzero"></path>
    </g>
</svg>