<svg xmlns="http://www.w3.org/2000/svg" xmlns:xlink="http://www.w3.org/1999/xlink" width="64" height="64" viewBox="0 0 64 64">
  <defs>
    <filter id="preference-system-a" width="126.7%" height="126.7%" x="-13.3%" y="-13.3%" filterUnits="objectBoundingBox">
      <feOffset dy="1" in="SourceAlpha" result="shadowOffsetOuter1"/>
      <feGaussianBlur in="shadowOffsetOuter1" result="shadowBlurOuter1" stdDeviation="1.5"/>
      <feComposite in="shadowBlurOuter1" in2="SourceAlpha" operator="out" result="shadowBlurOuter1"/>
      <feColorMatrix in="shadowBlurOuter1" result="shadowMatrixOuter1" values="0 0 0 0 0   0 0 0 0 0   0 0 0 0 0  0 0 0 0.2 0"/>
      <feMerge>
        <feMergeNode in="shadowMatrixOuter1"/>
        <feMergeNode in="SourceGraphic"/>
      </feMerge>
    </filter>
    <linearGradient id="preference-system-b" x1="52.703%" x2="47.944%" y1="103.309%" y2="0%">
      <stop offset="1.926%" stop-color="#410DD9"/>
      <stop offset="100%" stop-color="#2F54F8"/>
    </linearGradient>
    <circle id="preference-system-c" cx="30" cy="30" r="19.091"/>
    <filter id="preference-system-d" width="110.5%" height="110.5%" x="-5.2%" y="-5.2%" filterUnits="objectBoundingBox">
      <feGaussianBlur in="SourceAlpha" result="shadowBlurInner1" stdDeviation="1.5"/>
      <feOffset dy="1" in="shadowBlurInner1" result="shadowOffsetInner1"/>
      <feComposite in="shadowOffsetInner1" in2="SourceAlpha" k2="-1" k3="1" operator="arithmetic" result="shadowInnerInner1"/>
      <feColorMatrix in="shadowInnerInner1" values="0 0 0 0 0   0 0 0 0 0   0 0 0 0 0  0 0 0 0.5 0"/>
    </filter>
    <path id="preference-system-f" d="M29.2330318,10.9090416 C30.2463392,11.0300148 31.2312089,11.2435883 32.1789378,11.5410591 L31.9801252,13.7624303 C32.7430317,14.0450164 33.4741784,14.3943202 34.1666704,14.8033622 L35.8206861,13.200214 C36.6697012,13.7213313 37.4675189,14.3177491 38.2048407,14.9801689 L36.9976713,17.0226851 C37.5795378,17.6163945 38.1087124,18.2630967 38.5775045,18.9550071 L40.9517555,18.1724343 C41.481992,18.9781362 41.9429585,19.8334759 42.3261807,20.7299791 L40.1887717,22.1580078 C40.4720285,22.9676226 40.6830996,23.8117935 40.8141535,24.6825932 L43.5019544,25.0493494 C43.5906376,25.7391969 43.6363636,26.4424929 43.6363636,27.1564689 C43.6363636,27.3944281 43.6312844,27.6312009 43.6212283,27.866685 L40.897086,28.2381323 C40.8033611,29.1512176 40.6221014,30.0379751 40.3619495,30.8896562 L42.7496213,32.4837745 C42.4502608,33.3536535 42.079629,34.190367 41.6447014,34.9869394 L38.9202275,34.0899431 C38.4317983,34.8865941 37.8658288,35.6294364 37.2329922,36.3076656 L38.7296689,38.8401003 C38.0919795,39.4654935 37.4033115,40.0390934 36.6704744,40.5540908 L34.573679,38.522953 C33.7791544,39.0305353 32.9294922,39.4577203 32.0358424,39.7932212 L32.2991674,42.7336273 C31.4667509,43.0020286 30.6052032,43.2055587 29.720481,43.3382611 L28.6992239,40.580173 C28.2303414,40.6292833 27.754438,40.6544526 27.2727273,40.6544526 C26.7910165,40.6544526 26.3151132,40.6292833 25.8462307,40.580173 L24.824149,43.3381374 C23.9400704,43.2054854 23.0791352,43.0021082 22.2472874,42.7339498 L22.5096121,39.7932212 C21.6159624,39.4577203 20.7663001,39.0305353 19.9717755,38.522953 L17.8750865,40.5541655 C17.1422096,40.0391489 16.4535059,39.4655238 15.8157857,38.8401003 L17.3124624,36.3076656 C16.6796258,35.6294364 16.1136562,34.8865941 15.625227,34.0899431 L12.9007531,34.9869394 C12.4658256,34.190367 12.0951938,33.3536535 11.7958332,32.4837745 L14.183505,30.8896562 C13.9233531,30.0379751 13.7420934,29.1512176 13.6483685,28.2381323 L10.9242262,27.866685 C10.9141702,27.6312009 10.9090909,27.3944281 10.9090909,27.1564689 C10.9090909,26.4424929 10.9548169,25.7391969 11.0435001,25.0493494 L13.7313011,24.6825932 C13.862355,23.8117935 14.0734261,22.9676226 14.3566829,22.1580078 L12.2192739,20.7299791 C12.602496,19.8334759 13.0634626,18.9781362 13.593699,18.1724343 L15.9679501,18.9550071 C16.4367422,18.2630967 16.9659167,17.6163945 17.5477832,17.0226851 L16.3406139,14.9801689 C17.0777816,14.3178875 17.87542,13.7215804 18.7242364,13.2005406 L20.3787842,14.8033622 C21.0712761,14.3943202 21.8024229,14.0450164 22.5653293,13.7624303 L22.3665168,11.5410591 C23.3142456,11.2435883 24.2991153,11.0300148 25.3124227,10.9090416 L26.0766187,12.9741067 C26.4707832,12.9395931 26.8697229,12.9219767 27.2727273,12.9219767 C27.6757317,12.9219767 28.0746714,12.9395931 28.4688358,12.9741067 Z M27.2727273,15.8659578 C21.2478027,15.8659578 16.3636364,20.7501242 16.3636364,26.7750487 C16.3636364,32.7999733 21.2478027,37.6841396 27.2727273,37.6841396 C33.2976518,37.6841396 38.1818182,32.7999733 38.1818182,26.7750487 C38.1818182,20.7501242 33.2976518,15.8659578 27.2727273,15.8659578 Z"/>
    <filter id="preference-system-e" width="112.2%" height="112.3%" x="-6.1%" y="-3.1%" filterUnits="objectBoundingBox">
      <feOffset dy="1" in="SourceAlpha" result="shadowOffsetOuter1"/>
      <feGaussianBlur in="shadowOffsetOuter1" result="shadowBlurOuter1" stdDeviation=".5"/>
      <feComposite in="shadowBlurOuter1" in2="SourceAlpha" operator="out" result="shadowBlurOuter1"/>
      <feColorMatrix in="shadowBlurOuter1" values="0 0 0 0 0   0 0 0 0 0   0 0 0 0 0  0 0 0 0.2 0"/>
    </filter>
    <radialGradient id="preference-system-g" cx="50%" cy="50%" r="50.393%" fx="50%" fy="50%" gradientTransform="matrix(0 1 -.95063 0 .975 0)">
      <stop offset="0%" stop-color="#E2E5ED"/>
      <stop offset="48.405%" stop-color="#9DA3B5"/>
      <stop offset="100%" stop-color="#E7ECFF"/>
    </radialGradient>
  </defs>
  <g fill="none" fill-rule="evenodd" filter="url(#preference-system-a)" transform="translate(2 2)">
    <circle cx="30" cy="30" r="30" fill="url(#preference-system-b)"/>
    <use fill="#000" fill-opacity=".5" xlink:href="#preference-system-c"/>
    <use fill="#000" filter="url(#preference-system-d)" xlink:href="#preference-system-c"/>
    <g transform="translate(2.727 2.727)">
      <use fill="#000" filter="url(#preference-system-e)" xlink:href="#preference-system-f"/>
      <path fill="#585F6C" stroke="#FFF" stroke-linejoin="square" stroke-opacity=".05" d="M29.5634166,11.4569353 L28.8053327,13.505484 L28.425222,13.4722009 C28.0435935,13.438785 27.6592007,13.4219767 27.2727273,13.4219767 C26.8862538,13.4219767 26.5018611,13.438785 26.1202326,13.4722009 L25.7401219,13.505484 L24.9820379,11.4569353 C24.2765335,11.5589433 23.5816383,11.708018 22.900887,11.9027538 L23.0974099,14.0985421 L22.7390017,14.2312991 C22.0084939,14.5018844 21.3040108,14.8375598 20.6330761,15.2338684 L20.3047632,15.4277967 L18.6585703,13.8330687 C18.073065,14.2124273 17.5130189,14.630062 16.9821688,15.0829689 L18.1734576,17.0986153 L17.9048802,17.372659 C17.3429997,17.9459757 16.83305,18.5695735 16.3818876,19.2354634 L16.1700735,19.5480889 L13.80537,18.7686631 C13.4483617,19.3406211 13.128102,19.934845 12.8467848,20.5479003 L14.9565632,21.9574686 L14.8286318,22.3231267 C14.5531377,23.1105538 14.3510028,23.924638 14.225733,24.7570043 L14.1699942,25.1273658 L11.495292,25.4923348 C11.4379709,26.0423962 11.4090909,26.5975952 11.4090909,27.1564689 C11.4090909,27.247235 11.4098527,27.3379083 11.4113746,27.4284829 L14.1055971,27.7958505 L14.1457551,28.1870774 C14.235283,29.0592745 14.4084364,29.9144794 14.661694,30.74359 L14.7702846,31.0990923 L12.398093,32.6828753 C12.6137851,33.2631859 12.8633368,33.8297763 13.1452735,34.3800323 L15.8446827,33.4912882 L16.0514897,33.8286002 C16.5211295,34.5946048 17.0663712,35.3110169 17.6780377,35.9665576 L17.9332204,36.2400442 L16.447993,38.7531063 C16.8860755,39.1622091 17.3468909,39.5463511 17.8281202,39.9035118 L19.9078114,37.8887663 L20.2409586,38.1015975 C21.0113225,38.5937447 21.8301752,39.0040663 22.6853494,39.3251224 L23.0414288,39.4588045 L22.7812525,42.3754486 C23.3443211,42.5413531 23.917367,42.6759528 24.4983501,42.7784081 L25.5122729,40.0424596 L25.8983152,40.0828932 C26.3526788,40.1304828 26.8112071,40.1544526 27.2727273,40.1544526 C27.7342475,40.1544526 28.1927757,40.1304828 28.6471393,40.0828932 L29.0332922,40.042448 L30.0464018,42.778532 C30.6279231,42.6760088 31.2014936,42.5412821 31.7650673,42.3751934 L31.5038974,39.4588527 L31.8601052,39.3251224 C32.7152793,39.0040663 33.534132,38.5937447 34.3044959,38.1015975 L34.6376282,37.8887759 L36.7174234,39.9034457 C37.1986205,39.5463037 37.659406,39.1621839 38.0974616,38.7531062 L36.6122342,36.2400442 L36.8674169,35.9665576 C37.4790834,35.3110169 38.0243251,34.5946048 38.4939648,33.8286002 L38.7007718,33.4912882 L41.400181,34.3800323 C41.6821178,33.8297763 41.9316694,33.2631859 42.1473615,32.6828753 L39.7751699,31.0990923 L39.8837605,30.74359 C40.1370181,29.9144794 40.3101716,29.0592745 40.3996994,28.1870774 L40.4398575,27.7958505 L43.13408,27.4284829 C43.1356019,27.3379083 43.1363636,27.247235 43.1363636,27.1564689 C43.1363636,26.5975952 43.1074837,26.0423962 43.0501626,25.4923348 L40.3754603,25.1273658 L40.3197215,24.7570043 C40.1944518,23.924638 39.9923169,23.1105538 39.7168228,22.3231267 L39.5888914,21.9574686 L41.6986697,20.5479003 C41.4173526,19.934845 41.0970929,19.3406211 40.7400845,18.7686631 L38.3753811,19.5480889 L38.163567,19.2354634 C37.7124046,18.5695735 37.2024549,17.9459757 36.6405743,17.372659 L36.371997,17.0986153 L37.5632857,15.0829689 C37.032305,14.6299505 36.472114,14.2122218 35.8864523,13.8327889 L34.2407808,15.4278495 L33.9123784,15.2338684 C33.2414437,14.8375598 32.5369606,14.5018844 31.8064528,14.2312991 L31.4480447,14.0985421 L31.6445676,11.9027538 C30.9638163,11.708018 30.2689211,11.5589433 29.5634166,11.4569353 Z M27.2727273,15.3659578 C33.5737942,15.3659578 38.6818182,20.4739818 38.6818182,26.7750487 C38.6818182,33.0761156 33.5737942,38.1841396 27.2727273,38.1841396 C20.9716604,38.1841396 15.8636364,33.0761156 15.8636364,26.7750487 C15.8636364,20.4739818 20.9716604,15.3659578 27.2727273,15.3659578 Z"/>
      <path fill="url(#preference-system-g)" stroke="#FFF" stroke-opacity=".3" d="M32.2412806,0.521637822 C31.8115099,0.424068949 31.3772129,0.665744133 31.2335905,1.08239169 L30.1189264,4.31602393 C29.8482225,5.10133403 29.0904581,5.61267912 28.2608911,5.56984047 C27.8567631,5.54896192 27.5266715,5.53857521 27.2719086,5.53857521 C27.0171501,5.53857521 26.6870657,5.54896155 26.2829473,5.56983937 C25.4534066,5.61269563 24.6956447,5.10136745 24.4249011,4.31605401 L23.3102266,1.08239169 C23.1666042,0.665744133 22.7323072,0.424068949 22.3025365,0.521637822 L20.5913681,0.910116487 C20.1635373,1.00724494 19.8765054,1.40970273 19.924012,1.8458406 L20.3027555,5.32292595 C20.3883986,6.10917964 19.9684348,6.86385692 19.2551317,7.20551199 L17.2843086,8.14948882 C16.5661302,8.493479 15.7087354,8.34315344 15.1504188,7.77535762 L12.7337996,5.31770814 C12.4241982,5.00285025 11.926954,4.97225157 11.5810842,5.24677404 L10.1999516,6.34300138 C9.85776778,6.61459827 9.77229114,7.0989515 10.0008397,7.47126887 L11.8128359,10.4231039 C12.2268212,11.0975073 12.1697648,11.9598175 11.6705312,12.5737959 L10.2010545,14.3810203 C9.70347171,14.9929686 8.87454642,15.2254255 8.13132361,14.9614383 L4.88827129,13.8095304 C4.47604774,13.6631117 4.01944891,13.8480385 3.82529318,14.2400464 L3.04475873,15.8159759 C2.84959543,16.2100182 2.98166012,16.6877877 3.35149504,16.9256536 L6.20441597,18.7605605 C6.87481971,19.1917426 7.19678024,20.001551 7.00544435,20.7753403 L6.40103394,23.219661 C6.2144998,23.9740313 5.57945857,24.5334775 4.80759092,24.6234214 L1.32930049,25.028738 C0.908884085,25.0777281 0.585924449,25.4241844 0.566532094,25.8470011 L0.500906929,27.2778439 C0.499956936,27.2985569 0.499753185,27.3192973 0.500296073,27.3400249 L0.518815747,28.0471115 C0.523667676,28.2323596 0.66396853,28.3858639 0.848034666,28.4073127 L4.6273713,28.8477095 C5.43059109,28.9413067 6.08179698,29.5422197 6.23951335,30.3353452 L6.76313503,32.9685386 C6.91245694,33.71945 6.58733468,34.4852899 5.94340762,34.8994431 L2.97015669,36.8117424 C2.61034457,37.0431619 2.47418137,37.5031257 2.65003646,37.893119 L3.3276223,39.395799 C3.51236879,39.8055107 3.98046826,40.0050458 4.40398433,39.8546161 L7.52823436,38.7449059 C8.29546104,38.4723927 9.15078464,38.7294773 9.64062629,39.3798275 L11.3213125,41.6112314 C11.7821584,42.2230847 11.8216856,43.054611 11.4209561,43.7074198 L9.55168008,46.7525667 C9.32747765,47.117804 9.40502696,47.5922079 9.73385986,47.8670423 L10.935248,48.8711473 C11.2804887,49.1596951 11.7894253,49.1348314 12.1048955,48.8140051 L14.4668875,46.4119104 C15.0353589,45.8337873 15.9123869,45.6895427 16.6360726,46.0551451 L19.1776713,47.3391479 C19.8707368,47.6892811 20.2740818,48.4324462 20.1899998,49.204368 L19.8052646,52.7364609 C19.7580876,53.1695727 20.0408929,53.5700054 20.4648458,53.6703821 L21.9330543,54.0180007 C22.3648757,54.1202404 22.8039021,53.8785834 22.9485193,53.4590498 L24.0614416,50.2304705 C24.3330134,49.442643 25.0945911,48.9308537 25.9266309,48.9770413 L27.2240407,49.0490621 C27.2559281,49.0508322 27.287889,49.0508322 27.3197764,49.0490621 L28.6171862,48.9770413 C29.449226,48.9308537 30.2108037,49.442643 30.4823755,50.2304705 L31.5952978,53.4590498 C31.7399151,53.8785834 32.1789414,54.1202404 32.6107628,54.0180007 L34.0789713,53.6703821 C34.5029242,53.5700054 34.7857295,53.1695727 34.7385525,52.7364609 L34.3538173,49.204368 C34.2697353,48.4324462 34.6730803,47.6892811 35.3661458,47.3391479 L37.9077445,46.0551451 C38.6314302,45.6895427 39.5084582,45.8337873 40.0769296,46.4119104 L42.4389216,48.8140051 C42.7543918,49.1348314 43.2633284,49.1596951 43.6085691,48.8711473 L44.8099572,47.8670423 C45.1387901,47.5922079 45.2163395,47.117804 44.992137,46.7525667 L43.122861,43.7074198 C42.7221316,43.054611 42.7616587,42.2230847 43.2225046,41.6112314 L44.9031908,39.3798275 C45.3930325,38.7294773 46.2483561,38.4723927 47.0155827,38.7449059 L50.1398328,39.8546161 C50.5633488,40.0050458 51.0314483,39.8055107 51.2161948,39.395799 L51.8937806,37.893119 C52.0696357,37.5031257 51.9334725,37.0431619 51.5736604,36.8117424 L48.6004095,34.8994431 C47.9564824,34.4852899 47.6313602,33.71945 47.7806821,32.9685386 L48.3043038,30.3353452 C48.4620201,29.5422197 49.113226,28.9413067 49.9164458,28.8477095 L53.6957824,28.4073127 C53.8798486,28.3858639 54.0201494,28.2323596 54.0250014,28.0471115 L54.043521,27.3400249 C54.0440639,27.3192973 54.0438602,27.2985569 54.0429102,27.2778439 L53.977285,25.8470011 C53.9578927,25.4241844 53.634933,25.0777281 53.2145166,25.028738 L49.7362262,24.6234214 C48.9643585,24.5334775 48.3293173,23.9740313 48.1427832,23.219661 L47.5383728,20.7753403 C47.3470369,20.001551 47.6689974,19.1917426 48.3394011,18.7605605 L51.1923221,16.9256536 C51.562157,16.6877877 51.6942217,16.2100182 51.4990584,15.8159759 L50.7185239,14.2400464 C50.5243682,13.8480385 50.0677694,13.6631117 49.6555458,13.8095304 L46.4124935,14.9614383 C45.6692707,15.2254255 44.8403454,14.9929686 44.3427626,14.3810203 L42.8732859,12.5737959 C42.3740523,11.9598175 42.3169959,11.0975073 42.7309812,10.4231039 L44.5429774,7.47126887 C44.771526,7.0989515 44.6860493,6.61459827 44.3438655,6.34300138 L42.9627329,5.24677404 C42.6168631,4.97225157 42.1196189,5.00285025 41.8100175,5.31770814 L39.3933983,7.77535762 C38.8350817,8.34315344 37.9776869,8.493479 37.2595085,8.14948882 L35.2886854,7.20551199 C34.5753823,6.86385692 34.1554185,6.10917964 34.2410616,5.32292595 L34.6198051,1.8458406 C34.6673117,1.40970273 34.3802798,1.00724494 33.952449,0.910116487 L32.2412806,0.521637822 Z M23.5724369,30.0909091 C26.2258794,34.6868062 26.0629362,40.3052425 23.2819792,44.713212 L23.0876899,45.0211711 L22.7349658,44.9307676 C14.7374418,42.8809953 9.04545455,35.6448753 9.04545455,27.2727273 C9.04545455,25.9896531 9.1781065,24.7233954 9.43896781,23.488202 L9.51432362,23.1313879 L9.87710033,23.0941341 C15.3770985,22.5293353 20.7595812,25.2189001 23.5724369,30.0909091 Z M44.6678616,23.0941357 L45.0310188,23.1314345 L45.1060908,23.4886999 L45.1378361,23.6398437 C45.377989,24.8270495 45.5,26.0421877 45.5,27.2727273 C45.5,35.6447934 39.8081071,42.8809085 31.8110353,44.9303907 L31.4583679,45.020772 L31.2640686,44.7128906 C28.4825968,40.3054468 28.3194888,34.6869558 30.9730176,30.0909091 C33.7858527,25.2189358 39.1683497,22.529297 44.6678616,23.0941357 Z M27.2727605,24.0435062 C29.055134,24.0435062 30.5000332,25.4884054 30.5000332,27.2707789 C30.5000332,29.0531524 29.055134,30.4980517 27.2727605,30.4980517 C25.490387,30.4980517 24.0454878,29.0531524 24.0454878,27.2707789 C24.0454878,25.4884054 25.490387,24.0435062 27.2727605,24.0435062 Z M27.2727273,9.04545455 C32.2003667,9.04545455 36.8176323,11.0106708 40.2180943,14.4410873 L40.452862,14.6779232 L40.324417,14.9856714 C38.1444939,20.2086626 33.0295391,23.6818182 27.2727273,23.6818182 C21.5159499,23.6818182 16.4009587,20.2086869 14.2214089,14.9860792 L14.092994,14.6783731 L14.3277014,14.4415484 C17.727819,11.0107599 22.3449592,9.04545455 27.2727273,9.04545455 Z"/>
    </g>
  </g>
</svg>
