<svg xmlns="http://www.w3.org/2000/svg" xmlns:xlink="http://www.w3.org/1999/xlink" width="256" height="256" viewBox="0 0 256 256">
  <defs>
    <filter id="folder-music-stack-256px-a" width="124.3%" height="128.1%" x="-12.2%" y="-14.1%" filterUnits="objectBoundingBox">
      <feOffset dy="4" in="SourceAlpha" result="shadowOffsetOuter1"/>
      <feGaussianBlur in="shadowOffsetOuter1" result="shadowBlurOuter1" stdDeviation="5"/>
      <feComposite in="shadowBlurOuter1" in2="SourceAlpha" operator="out" result="shadowBlurOuter1"/>
      <feColorMatrix in="shadowBlurOuter1" result="shadowMatrixOuter1" values="0 0 0 0 0   0 0 0 0 0   0 0 0 0 0  0 0 0 0.2 0"/>
      <feMerge>
        <feMergeNode in="shadowMatrixOuter1"/>
        <feMergeNode in="SourceGraphic"/>
      </feMerge>
    </filter>
    <linearGradient id="folder-music-stack-256px-b" x1="57.154%" x2="57.154%" y1="0%" y2="88.127%">
      <stop offset="0%" stop-color="#C80017"/>
      <stop offset="100%" stop-color="#B105FF"/>
    </linearGradient>
    <linearGradient id="folder-music-stack-256px-e" x1="50%" x2="50%" y1="0%" y2="11.796%">
      <stop offset="0%" stop-color="#FFF"/>
      <stop offset="100%" stop-color="#FFEDCE"/>
    </linearGradient>
    <rect id="folder-music-stack-256px-d" width="202" height="83" x="10" y="32" rx="18"/>
    <filter id="folder-music-stack-256px-c" width="108.9%" height="121.7%" x="-4.5%" y="-10.8%" filterUnits="objectBoundingBox">
      <feOffset in="SourceAlpha" result="shadowOffsetOuter1"/>
      <feGaussianBlur in="shadowOffsetOuter1" result="shadowBlurOuter1" stdDeviation="3"/>
      <feColorMatrix in="shadowBlurOuter1" values="0 0 0 0 0   0 0 0 0 0   0 0 0 0 0  0 0 0 0.2 0"/>
    </filter>
    <filter id="folder-music-stack-256px-f" width="106.9%" height="116.9%" x="-3.5%" y="-8.4%" filterUnits="objectBoundingBox">
      <feOffset dy="2" in="SourceAlpha" result="shadowOffsetInner1"/>
      <feComposite in="shadowOffsetInner1" in2="SourceAlpha" k2="-1" k3="1" operator="arithmetic" result="shadowInnerInner1"/>
      <feColorMatrix in="shadowInnerInner1" values="0 0 0 0 1   0 0 0 0 1   0 0 0 0 1  0 0 0 0.5 0"/>
    </filter>
    <linearGradient id="folder-music-stack-256px-h" x1="50%" x2="50%" y1="0%" y2="95.786%">
      <stop offset="0%" stop-color="#F87136"/>
      <stop offset="100%" stop-color="#D22E18"/>
    </linearGradient>
    <path id="folder-music-stack-256px-g" d="M0,0 L222,0 L222,118 C222,133.463973 209.463973,146 194,146 L28,146 C12.536027,146 1.8937905e-15,133.463973 0,118 L0,0 Z"/>
    <linearGradient id="folder-music-stack-256px-l" x1="50%" x2="50%" y1="0%" y2="97.774%">
      <stop offset="0%" stop-color="#343434"/>
      <stop offset="100%" stop-color="#240B0B"/>
    </linearGradient>
    <linearGradient id="folder-music-stack-256px-m" x1="50%" x2="50%" y1="0%" y2="100%">
      <stop offset="0%" stop-color="#151515"/>
      <stop offset="100%"/>
    </linearGradient>
    <circle id="folder-music-stack-256px-j" cx="68" cy="68" r="68"/>
    <filter id="folder-music-stack-256px-k" width="123.5%" height="123.5%" x="-11.8%" y="-8.8%" filterUnits="objectBoundingBox">
      <feMorphology in="SourceAlpha" operator="dilate" radius="2" result="shadowSpreadOuter1"/>
      <feOffset dy="4" in="shadowSpreadOuter1" result="shadowOffsetOuter1"/>
      <feGaussianBlur in="shadowOffsetOuter1" result="shadowBlurOuter1" stdDeviation="4"/>
      <feComposite in="shadowBlurOuter1" in2="SourceAlpha" operator="out" result="shadowBlurOuter1"/>
      <feColorMatrix in="shadowBlurOuter1" values="0 0 0 0 0   0 0 0 0 0   0 0 0 0 0  0 0 0 0.5 0"/>
    </filter>
    <filter id="folder-music-stack-256px-o" width="200%" height="135.3%" x="-50%" y="-17.6%" filterUnits="objectBoundingBox">
      <feGaussianBlur in="SourceGraphic" stdDeviation="8"/>
    </filter>
    <filter id="folder-music-stack-256px-p" width="200%" height="135.3%" x="-50%" y="-17.6%" filterUnits="objectBoundingBox">
      <feGaussianBlur in="SourceGraphic" stdDeviation="8"/>
    </filter>
    <linearGradient id="folder-music-stack-256px-q" x1="50%" x2="50%" y1="0%" y2="100%">
      <stop offset="0%" stop-color="#E91F95"/>
      <stop offset="100%" stop-color="#930DCE"/>
    </linearGradient>
  </defs>
  <g fill="none" fill-rule="evenodd" filter="url(#folder-music-stack-256px-a)" transform="translate(17 45)">
    <path fill="url(#folder-music-stack-256px-b)" d="M124,11.5 L124,11.5 C127.036137,18.4831148 133.925344,23 141.539936,23 L194,23 C209.463973,23 222,35.536027 222,51 L222,164 C222,179.463973 209.463973,192 194,192 L28,192 C12.536027,192 -4.07387736e-14,179.463973 -4.26325641e-14,164 L-4.26325641e-14,28 C-4.45263546e-14,12.536027 12.536027,-2.55810237e-14 28,-2.84217094e-14 L106.460064,-1.77635684e-14 C114.074656,-2.59254631e-14 120.963863,4.51688517 124,11.5 Z"/>
    <use fill="#000" filter="url(#folder-music-stack-256px-c)" xlink:href="#folder-music-stack-256px-d"/>
    <use fill="url(#folder-music-stack-256px-e)" xlink:href="#folder-music-stack-256px-d"/>
    <use fill="#000" filter="url(#folder-music-stack-256px-f)" xlink:href="#folder-music-stack-256px-d"/>
    <g transform="translate(0 46)">
      <mask id="folder-music-stack-256px-i" fill="#fff">
        <use xlink:href="#folder-music-stack-256px-g"/>
      </mask>
      <use fill="url(#folder-music-stack-256px-h)" xlink:href="#folder-music-stack-256px-g"/>
      <g mask="url(#folder-music-stack-256px-i)">
        <g transform="translate(43 43)">
          <mask id="folder-music-stack-256px-n" fill="#fff">
            <use xlink:href="#folder-music-stack-256px-j"/>
          </mask>
          <use fill="#000" filter="url(#folder-music-stack-256px-k)" xlink:href="#folder-music-stack-256px-j"/>
          <circle cx="68" cy="68" r="69" fill="url(#folder-music-stack-256px-l)" stroke="url(#folder-music-stack-256px-m)" stroke-width="2"/>
          <circle cx="68" cy="68" r="65" stroke="url(#folder-music-stack-256px-m)" stroke-width="2" mask="url(#folder-music-stack-256px-n)"/>
          <circle cx="68" cy="68" r="61" stroke="url(#folder-music-stack-256px-m)" stroke-width="2" mask="url(#folder-music-stack-256px-n)"/>
          <circle cx="68" cy="68" r="57" stroke="url(#folder-music-stack-256px-m)" stroke-width="2" mask="url(#folder-music-stack-256px-n)"/>
          <circle cx="68" cy="68" r="53" stroke="url(#folder-music-stack-256px-m)" stroke-width="2" mask="url(#folder-music-stack-256px-n)"/>
          <circle cx="68" cy="68" r="49" stroke="url(#folder-music-stack-256px-m)" stroke-width="2" mask="url(#folder-music-stack-256px-n)"/>
          <circle cx="68" cy="68" r="45" stroke="url(#folder-music-stack-256px-m)" stroke-width="2" mask="url(#folder-music-stack-256px-n)"/>
          <circle cx="68" cy="68" r="41" stroke="url(#folder-music-stack-256px-m)" stroke-width="2" mask="url(#folder-music-stack-256px-n)"/>
          <circle cx="68" cy="68" r="37" stroke="url(#folder-music-stack-256px-m)" stroke-width="2" mask="url(#folder-music-stack-256px-n)"/>
          <circle cx="68" cy="68" r="33" stroke="url(#folder-music-stack-256px-m)" stroke-width="2" mask="url(#folder-music-stack-256px-n)"/>
          <path fill="#FFF" d="M68,68 L92,136 L44,136 L68,68 Z M68,68 L44,0 L92,0 L68,68 Z" filter="url(#folder-music-stack-256px-o)" mask="url(#folder-music-stack-256px-n)" opacity=".1" transform="rotate(120 68 68)"/>
          <path fill="#FFF" d="M68,68 L92,136 L44,136 L68,68 Z M68,68 L44,0 L92,0 L68,68 Z" filter="url(#folder-music-stack-256px-p)" mask="url(#folder-music-stack-256px-n)" opacity=".1" transform="rotate(45 68 68)"/>
          <circle cx="68" cy="68" r="28" fill="url(#folder-music-stack-256px-q)" stroke="url(#folder-music-stack-256px-m)" stroke-width="2" mask="url(#folder-music-stack-256px-n)"/>
          <polygon fill="#FFF" points="78 68 62 78 62 58" mask="url(#folder-music-stack-256px-n)"/>
        </g>
      </g>
    </g>
  </g>
</svg>
