<svg xmlns="http://www.w3.org/2000/svg" xmlns:xlink="http://www.w3.org/1999/xlink" width="256" height="256" viewBox="0 0 256 256">
  <defs>
    <filter id="folder-videos-a" width="124.3%" height="128.1%" x="-12.2%" y="-14.1%" filterUnits="objectBoundingBox">
      <feOffset dy="4" in="SourceAlpha" result="shadowOffsetOuter1"/>
      <feGaussianBlur in="shadowOffsetOuter1" result="shadowBlurOuter1" stdDeviation="5"/>
      <feComposite in="shadowBlurOuter1" in2="SourceAlpha" operator="out" result="shadowBlurOuter1"/>
      <feColorMatrix in="shadowBlurOuter1" result="shadowMatrixOuter1" values="0 0 0 0 0   0 0 0 0 0   0 0 0 0 0  0 0 0 0.2 0"/>
      <feMerge>
        <feMergeNode in="shadowMatrixOuter1"/>
        <feMergeNode in="SourceGraphic"/>
      </feMerge>
    </filter>
    <linearGradient id="folder-videos-b" x1="50%" x2="50%" y1="0%" y2="37.968%">
      <stop offset="0%" stop-color="#147ADD"/>
      <stop offset="100%" stop-color="#0D00E9"/>
    </linearGradient>
    <linearGradient id="folder-videos-e" x1="50%" x2="50%" y1="0%" y2="77.929%">
      <stop offset="0%" stop-color="#B5B7B8"/>
      <stop offset="100%" stop-color="#80B0BD"/>
    </linearGradient>
    <rect id="folder-videos-d" width="202" height="83" x="10" y="32" rx="18"/>
    <filter id="folder-videos-c" width="108.9%" height="121.7%" x="-4.5%" y="-10.8%" filterUnits="objectBoundingBox">
      <feOffset in="SourceAlpha" result="shadowOffsetOuter1"/>
      <feGaussianBlur in="shadowOffsetOuter1" result="shadowBlurOuter1" stdDeviation="3"/>
      <feColorMatrix in="shadowBlurOuter1" values="0 0 0 0 0   0 0 0 0 0   0 0 0 0 0  0 0 0 0.2 0"/>
    </filter>
    <filter id="folder-videos-f" width="106.9%" height="116.9%" x="-3.5%" y="-8.4%" filterUnits="objectBoundingBox">
      <feOffset dy="2" in="SourceAlpha" result="shadowOffsetInner1"/>
      <feComposite in="shadowOffsetInner1" in2="SourceAlpha" k2="-1" k3="1" operator="arithmetic" result="shadowInnerInner1"/>
      <feColorMatrix in="shadowInnerInner1" values="0 0 0 0 0.82745098   0 0 0 0 0.82745098   0 0 0 0 0.82745098  0 0 0 0.5 0"/>
    </filter>
    <radialGradient id="folder-videos-g" cx="50%" cy="0%" r="117.589%" fx="50%" fy="0%" gradientTransform="scale(.65766 1) rotate(84.615 .63 .143)">
      <stop offset="0%" stop-color="#1D95E9"/>
      <stop offset="100%" stop-color="#0B43D8"/>
    </radialGradient>
    <linearGradient id="folder-videos-j" x1="50%" x2="50%" y1="0%" y2="100%">
      <stop offset="0%" stop-color="#FFF"/>
      <stop offset="100%" stop-color="#FFF" stop-opacity=".6"/>
    </linearGradient>
    <circle id="folder-videos-i" cx="43" cy="43" r="43"/>
    <filter id="folder-videos-h" width="130.2%" height="130.2%" x="-15.1%" y="-12.8%" filterUnits="objectBoundingBox">
      <feOffset dy="2" in="SourceAlpha" result="shadowOffsetOuter1"/>
      <feGaussianBlur in="shadowOffsetOuter1" result="shadowBlurOuter1" stdDeviation="4"/>
      <feColorMatrix in="shadowBlurOuter1" values="0 0 0 0 0   0 0 0 0 0.42905776   0 0 0 0 0.968670281  0 0 0 0.5 0"/>
    </filter>
  </defs>
  <g fill="none" fill-rule="evenodd">
    <g filter="url(#folder-videos-a)" transform="translate(17 45)">
      <path fill="url(#folder-videos-b)" d="M124,11.5 C127.036137,18.4831148 133.925344,23 141.539936,23 L194,23 C209.463973,23 222,35.536027 222,51 L222,164 C222,179.463973 209.463973,192 194,192 L28,192 C12.536027,192 -4.07387736e-14,179.463973 -4.26325641e-14,164 L-4.26325641e-14,28 C-4.45263546e-14,12.536027 12.536027,-2.55810237e-14 28,-2.84217094e-14 L106.460064,-2.84217094e-14 C114.074656,-2.59254631e-14 120.963863,4.51688517 124,11.5 Z"/>
      <use fill="#000" filter="url(#folder-videos-c)" xlink:href="#folder-videos-d"/>
      <use fill="url(#folder-videos-e)" xlink:href="#folder-videos-d"/>
      <use fill="#000" filter="url(#folder-videos-f)" xlink:href="#folder-videos-d"/>
      <path fill="url(#folder-videos-g)" d="M0,0 L222,0 L222,118 C222,133.463973 209.463973,146 194,146 L28,146 C12.536027,146 1.8937905e-15,133.463973 0,118 L0,0 L0,0 Z" transform="translate(0 46)"/>
    </g>
    <g opacity=".6" transform="translate(85 115)">
      <use fill="#000" filter="url(#folder-videos-h)" xlink:href="#folder-videos-i"/>
      <use fill="url(#folder-videos-j)" xlink:href="#folder-videos-i"/>
      <g transform="translate(28 23)">
        <path fill="#FF006B" d="M6.58241175,39.1103799 C2.94704613,41.1982037 0,39.4867104 0,35.2786432 L0,4.71647981 C0,0.512446265 2.96356838,-1.19359181 6.58241175,0.884743107 L33.2796681,16.2172221 C36.9150337,18.3050459 36.8985115,21.699566 33.2796681,23.7779009 L6.58241175,39.1103799 Z"/>
        <path fill="#FFB600" d="M12,3.99711369 L24,10.8881137 L24,29.1061137 L12,35.9981137 L12,3.99711369 Z"/>
        <path fill="#1473FF" d="M6.58241175,0.884743107 L12,3.996 L12,35.998 L6.58241175,39.1103799 C2.94704613,41.1982037 0,39.4867104 0,35.2786432 L0,4.71647981 C0,0.512446265 2.96356838,-1.19359181 6.58241175,0.884743107 Z"/>
      </g>
    </g>
  </g>
</svg>
