<?xml version="1.0" encoding="UTF-8"?>
<svg width="32px" height="32px" viewBox="0 0 32 32" version="1.1" xmlns="http://www.w3.org/2000/svg" xmlns:xlink="http://www.w3.org/1999/xlink">
    <!-- Generator: Sketch 46.2 (44496) - http://www.bohemiancoding.com/sketch -->
    <title>deepin-clone</title>
    <desc>Created with Sketch.</desc>
    <defs>
        <linearGradient x1="50%" y1="2.86790497%" x2="50%" y2="100%" id="linearGradient-1">
            <stop stop-color="#0090FF" offset="0%"></stop>
            <stop stop-color="#0076FF" offset="100%"></stop>
        </linearGradient>
        <ellipse id="path-2" cx="7.61538462" cy="7.5" rx="7.61538462" ry="7.5"></ellipse>
    </defs>
    <g id="Page-1" stroke="none" stroke-width="1" fill="none" fill-rule="evenodd">
        <g id="deepin-clone">
            <circle id="Oval" fill="url(#linearGradient-1)" cx="16" cy="16" r="14"></circle>
            <g id="Group" transform="translate(4.000000, 6.000000)">
                <g id="Group-2" fill-rule="nonzero" fill="#FFFFFF">
                    <path d="M2.98854337,10 C2.98854337,5.18219686 6.95423066,1.27659574 11.8461538,1.27659574 C16.738077,1.27659574 20.7037643,5.18219686 20.7037643,10 C20.7037643,14.8178031 16.738077,18.7234043 11.8461538,18.7234043 C9.32727184,18.7234043 6.97959305,17.6832873 5.31154383,15.8891271 C5.06982082,15.6291289 4.65985279,15.6113449 4.39585461,15.8494055 C4.13185644,16.087466 4.11379884,16.4912224 4.35552185,16.7512206 C6.26661011,18.8067945 8.95982957,20 11.8461538,20 C17.4539682,20 22,15.5228475 22,10 C22,4.4771525 17.4539682,0 11.8461538,0 C6.23833946,0 1.69230769,4.4771525 1.69230769,10 L0,10 L2.4459095,14.8275862 L4.891819,10 L2.98854337,10 Z" id="Combined-Shape"></path>
                </g>
                <g id="logo" transform="translate(4.230769, 2.500000)">
                    <mask id="mask-3" fill="white">
                        <use xlink:href="#path-2"></use>
                    </mask>
                    <g id="Mask"></g>
                    <path d="M-0.846153846,11.4996368 C1.01710727,12.0344529 6.11645984,13.190692 9.33639151,10.9518667 C11.4247622,9.49953563 11.155683,7.17373333 11.155683,7.17373333 C11.1211085,5.40458391 9.9857895,3.64727816 9.9857895,3.64727816 C14.400418,7.43614483 11.791176,11.6454621 11.791176,11.6454621 C10.4476588,14.2488506 7.53551469,15.8144368 5.21263915,16.3629471 C2.51320297,15.7515172 0.285407109,13.925 -0.846153846,11.4996368 L-0.846153846,11.4996368 Z M0.349670451,2.33818161 C0.896848382,5.16030805 2.12348902,7.54088736 2.9393704,8.40621609 C3.9938905,9.52470345 5.54710918,10.7120322 7.5400244,10.2212598 C9.53369125,9.73048736 9.93918918,7.58456092 9.93918918,7.58456092 C10.3796373,5.75841379 9.7527879,3.58991034 9.71896509,3.54438621 C9.68514228,3.49849195 9.3859983,3.44741609 9.3859983,3.44741609 C9.69867141,6.3232092 8.93051777,7.59566437 8.93051777,7.59566437 C7.81286175,9.8504046 6.17283119,9.15310805 6.17283119,9.15310805 C4.3479026,8.23744368 4.43396286,5.65589195 4.43396286,5.65589195 C4.37834313,3.8612046 5.10027225,0.893993103 6.48813496,-0.833333333 C4.01719066,-0.638282759 1.83223703,0.555708046 0.349670451,2.33818161 L0.349670451,2.33818161 Z M10.6731442,-0.167866667 C9.60772562,0.684878161 7.79519873,2.50584368 7.79519873,2.50584368 C5.1062852,4.95933563 5.62790812,7.02531724 5.62790812,7.02531724 C6.0563304,9.19382069 7.3897008,7.73297701 7.3897008,7.73297701 C8.79146844,6.30618391 8.68699353,3.46444138 8.68699353,3.46444138 C8.11952191,3.55548966 7.76024849,3.86416552 7.76024849,3.86416552 C7.69072382,5.75841379 6.55502897,6.93389885 6.55502897,6.93389885 C6.1145808,7.41356782 5.80190769,6.95684598 5.80190769,6.95684598 C5.57040934,6.61411954 6.03340605,6.37465517 6.03340605,6.37465517 C6.68205241,5.81541149 6.87672149,4.86125517 6.86845369,4.50335402 C6.85905846,4.14434253 7.05335172,4.04663218 7.05335172,4.04663218 C7.96882249,3.35007586 8.88466907,2.93924828 8.88466907,2.93924828 C10.1128129,2.3230069 12.3030279,2.22011494 12.3030279,2.22011494 C12.897182,2.23973103 13.4650294,2.21086207 13.9193825,2.17162989 C13.0399894,1.16565747 11.930977,0.359547126 10.6731442,-0.167866667 L10.6731442,-0.167866667 Z" id="Clip-6" fill="#FFFFFF" mask="url(#mask-3)"></path>
                </g>
            </g>
        </g>
    </g>
</svg>