<svg xmlns="http://www.w3.org/2000/svg" width="32" height="32" viewBox="0 0 32 32">
  <defs>
    <filter id="google-chrome-a" width="134.8%" height="129.6%" x="-17.4%" y="-14.8%" filterUnits="objectBoundingBox">
      <feOffset dy="1" in="SourceAlpha" result="shadowOffsetOuter1"/>
      <feGaussianBlur in="shadowOffsetOuter1" result="shadowBlurOuter1" stdDeviation=".5"/>
      <feColorMatrix in="shadowBlurOuter1" result="shadowMatrixOuter1" values="0 0 0 0 0   0 0 0 0 0   0 0 0 0 0  0 0 0 0.15 0"/>
      <feMerge>
        <feMergeNode in="shadowMatrixOuter1"/>
        <feMergeNode in="SourceGraphic"/>
      </feMerge>
    </filter>
    <linearGradient id="google-chrome-b" x1="50%" x2="50%" y1="0%" y2="100%">
      <stop offset="0%" stop-color="#020300"/>
      <stop offset="100%" stop-color="#000200"/>
    </linearGradient>
    <linearGradient id="google-chrome-c" x1="50%" x2="50%" y1="100%" y2="0%">
      <stop offset="0%" stop-color="#E2E096"/>
      <stop offset="100%" stop-color="#F9F8D2"/>
    </linearGradient>
  </defs>
  <g fill="none" fill-rule="evenodd" filter="url(#google-chrome-a)" transform="translate(5 2)">
    <path fill="#CACBCF" d="M0.75,0 L22.25,0 C22.6642136,-7.6089797e-17 23,0.335786438 23,0.75 L23,26.25 C23,26.6642136 22.6642136,27 22.25,27 L0.75,27 C0.335786438,27 5.07265313e-17,26.6642136 0,26.25 L0,0.75 C-5.07265313e-17,0.335786438 0.335786438,7.6089797e-17 0.75,0 Z"/>
    <path fill="#949496" d="M2.52241886 18C3.96013202 19.7014101 5.20095839 20.8133453 6.24489796 21.3358055 7.71128428 22.0696876 9.62965163 22.5297365 12 22.7159523L12 27 .75 27C.335786438 27 5.07265313e-17 26.6642136 0 26.25L0 18 0 18 2.52241886 18zM13.5 22C13.7761424 22 14 22.2238576 14 22.5L14 25.5C14 25.7761424 13.7761424 26 13.5 26 13.2238576 26 13 25.7761424 13 25.5L13 22.5C13 22.2238576 13.2238576 22 13.5 22zM15.5 22C15.7761424 22 16 22.2238576 16 22.5L16 25.5C16 25.7761424 15.7761424 26 15.5 26 15.2238576 26 15 25.7761424 15 25.5L15 22.5C15 22.2238576 15.2238576 22 15.5 22zM17.5 22C17.7761424 22 18 22.2238576 18 22.5L18 25.5C18 25.7761424 17.7761424 26 17.5 26 17.2238576 26 17 25.7761424 17 25.5L17 22.5C17 22.2238576 17.2238576 22 17.5 22z"/>
    <g fill-rule="nonzero" transform="translate(2.25 2.375)">
      <path fill="#49494C" d="M16.875,8.9370229 C16.875,13.3623021 13.2374375,17 8.75,17 C4.2625625,17 0.625,13.3623021 0.625,8.9370229 C0.625,4.38783334 4.2625625,0.75 8.75,0.75 C13.2374375,0.75 16.875,4.38783334 16.875,8.9370229"/>
      <polygon fill="#595959" points="1.297 12.424 15.806 3.999 12.772 1.324 4.336 15.625" opacity=".4" transform="rotate(95 8.552 8.475)"/>
      <g transform="translate(6 6.125)">
        <path fill="url(#google-chrome-b)" d="M2.75,5.5 C1.231175,5.5 0,4.26865671 0,2.74993125 C0,1.23134328 1.231175,0 2.75,0 C4.268825,0 5.5,1.23134328 5.5,2.74993125 C5.5,4.26865671 4.268825,5.5 2.75,5.5 Z"/>
        <path fill="#85858A" d="M2.75,4 C2.059625,4 1.5,3.44029851 1.5,2.74996875 C1.5,2.05970149 2.059625,1.5 2.75,1.5 C3.440375,1.5 4,2.05970149 4,2.74996875 C4,3.44029851 3.440375,4 2.75,4 Z"/>
        <path fill="url(#google-chrome-c)" d="M3.25,2.74987496 C3.25,3.02619405 3.02625,3.25 2.75,3.25 C2.474,3.25 2.25,3.02619405 2.25,2.74987496 C2.25,2.47380595 2.474,2.25 2.75,2.25 C3.02625,2.25 3.25,2.47380595 3.25,2.74987496"/>
      </g>
      <path fill="#595959" d="M8.75,0 C3.91786719,0 0,3.91742969 0,8.75 C0,13.5825702 3.91786719,17.5004375 8.75,17.5004375 C13.5821327,17.5004375 17.5,13.5825702 17.5,8.75 C17.5,3.91742969 13.5821327,0 8.75,0 Z M14.1119452,14.1123829 C13.4155547,14.8087735 12.6046484,15.3556485 11.7014297,15.738461 C10.7674766,16.13325 9.77451562,16.3331875 8.75,16.3331875 C7.72548437,16.3331875 6.73252344,16.13325 5.79857031,15.738461 C4.89535156,15.3556485 4.08444531,14.8087735 3.38805469,14.1123829 C2.69078906,13.4160469 2.14391406,12.604211 1.76197656,11.7014297 C1.3671875,10.7674766 1.166375,9.77457031 1.166375,8.75 C1.166375,7.72586719 1.3671875,6.73296094 1.76197656,5.79857031 C2.14391406,4.89578906 2.69078906,4.08488281 3.38805469,3.38805469 C4.08444531,2.69122656 4.89535156,2.14391406 5.79857031,1.76235937 C6.73252344,1.36713281 7.72542969,1.16675781 8.75,1.16675781 C9.77451562,1.16675781 10.7674766,1.36713281 11.7014297,1.76235937 C12.6047031,2.14391406 13.4155546,2.69117187 14.1119452,3.38805469 C14.8092109,4.08488281 15.356086,4.89578906 15.7380234,5.79857031 C16.1328125,6.73296094 16.333625,7.72586719 16.333625,8.75 C16.333625,9.77451562 16.1328125,10.7674766 15.7380234,11.7014297 C15.356086,12.6041562 14.8092109,13.4159375 14.1119452,14.1123829 Z"/>
    </g>
    <path fill="#ECF1F6" fill-rule="nonzero" d="M6.48218719,23.4140625 L12.6452315,15.7526719 C12.73333,15.6501328 12.7865353,15.5185547 12.7865353,15.375 C12.7865353,15.0537109 12.5196158,14.79225 12.1907258,14.79225 C12.044174,14.79225 11.9098489,14.8435469 11.8060066,14.9306641 L3.98382923,20.9676719 C3.54328079,21.2863906 3.25804926,21.7982656 3.25804926,22.375 C3.25804926,23.3423125 4.05797044,24.125 5.04458456,24.125 C5.6343087,24.125 6.15681445,23.8456016 6.48218719,23.4140625 Z"/>
    <path fill="#85858A" fill-rule="nonzero" d="M3,2.00037495 C3,2.55258717 2.55200525,3 2,3 C1.44799475,3 1,2.55258717 1,2.00037495 C1,1.44816273 1.44799475,1 2,1 C2.55200525,1 3,1.44816273 3,2.00037495 Z"/>
    <path fill="#636363" fill-rule="nonzero" d="M3,25.000375 C3,25.5525872 2.55200525,26 2,26 C1.44799475,26 1,25.5525872 1,25.000375 C1,24.4481627 1.44799475,24 2,24 C2.55200525,24 3,24.4481627 3,25.000375 Z"/>
    <path fill="#85858A" fill-rule="nonzero" d="M22 25.000375C22 25.5525872 21.5520053 26 21 26 20.4479948 26 20 25.5525872 20 25.000375 20 24.4481627 20.4479948 24 21 24 21.5520053 24 22 24.4481627 22 25.000375zM22 2.00037495C22 2.55258717 21.5520053 3 21 3 20.4479948 3 20 2.55258717 20 2.00037495 20 1.44816273 20.4479948 1 21 1 21.5520053 1 22 1.44816273 22 2.00037495z"/>
  </g>
</svg>
