<svg xmlns="http://www.w3.org/2000/svg" xmlns:xlink="http://www.w3.org/1999/xlink" width="32" height="32" viewBox="0 0 32 32">
  <defs>
    <filter id="kmsclient-a" width="128.6%" height="132.1%" x="-14.3%" y="-14.3%" filterUnits="objectBoundingBox">
      <feOffset dy="1" in="SourceAlpha" result="shadowOffsetOuter1"/>
      <feGaussianBlur in="shadowOffsetOuter1" result="shadowBlurOuter1" stdDeviation=".5"/>
      <feColorMatrix in="shadowBlurOuter1" result="shadowMatrixOuter1" values="0 0 0 0 0   0 0 0 0 0   0 0 0 0 0  0 0 0 0.15 0"/>
      <feMerge>
        <feMergeNode in="shadowMatrixOuter1"/>
        <feMergeNode in="SourceGraphic"/>
      </feMerge>
    </filter>
    <rect id="kmsclient-b" width="26" height="26" x="0" y="0" rx="1"/>
    <filter id="kmsclient-c" width="103.8%" height="103.8%" x="-1.9%" y="-1.9%" filterUnits="objectBoundingBox">
      <feOffset dy="1" in="SourceAlpha" result="shadowOffsetInner1"/>
      <feComposite in="shadowOffsetInner1" in2="SourceAlpha" k2="-1" k3="1" operator="arithmetic" result="shadowInnerInner1"/>
      <feColorMatrix in="shadowInnerInner1" result="shadowMatrixInner1" values="0 0 0 0 1   0 0 0 0 1   0 0 0 0 1  0 0 0 0.802748033 0"/>
      <feOffset dy="-1" in="SourceAlpha" result="shadowOffsetInner2"/>
      <feComposite in="shadowOffsetInner2" in2="SourceAlpha" k2="-1" k3="1" operator="arithmetic" result="shadowInnerInner2"/>
      <feColorMatrix in="shadowInnerInner2" result="shadowMatrixInner2" values="0 0 0 0 0   0 0 0 0 0   0 0 0 0 0  0 0 0 0.296137456 0"/>
      <feMerge>
        <feMergeNode in="shadowMatrixInner1"/>
        <feMergeNode in="shadowMatrixInner2"/>
      </feMerge>
    </filter>
    <circle id="kmsclient-e" cx="6" cy="6" r="6"/>
    <filter id="kmsclient-d" width="108.3%" height="116.7%" x="-4.2%" y="-4.2%" filterUnits="objectBoundingBox">
      <feOffset dy="1" in="SourceAlpha" result="shadowOffsetOuter1"/>
      <feColorMatrix in="shadowOffsetOuter1" values="0 0 0 0 0   0 0 0 0 0   0 0 0 0 0  0 0 0 0.15 0"/>
    </filter>
    <circle id="kmsclient-g" cx="12" cy="6" r="6"/>
    <filter id="kmsclient-f" width="108.3%" height="116.7%" x="-4.2%" y="-4.2%" filterUnits="objectBoundingBox">
      <feOffset dy="1" in="SourceAlpha" result="shadowOffsetOuter1"/>
      <feColorMatrix in="shadowOffsetOuter1" values="0 0 0 0 0   0 0 0 0 0   0 0 0 0 0  0 0 0 0.15 0"/>
    </filter>
    <circle id="kmsclient-i" cx="18" cy="6" r="6"/>
    <filter id="kmsclient-h" width="108.3%" height="116.7%" x="-4.2%" y="-4.2%" filterUnits="objectBoundingBox">
      <feOffset dy="1" in="SourceAlpha" result="shadowOffsetOuter1"/>
      <feColorMatrix in="shadowOffsetOuter1" values="0 0 0 0 0   0 0 0 0 0   0 0 0 0 0  0 0 0 0.202551355 0"/>
    </filter>
    <linearGradient id="kmsclient-l" x1="50%" x2="50%" y1="0%" y2="100%">
      <stop offset="0%" stop-color="#FFF"/>
      <stop offset="100%" stop-color="#FFF"/>
      <stop offset="100%" stop-color="#EDF2DE"/>
    </linearGradient>
    <circle id="kmsclient-k" cx="6" cy="6" r="6"/>
    <filter id="kmsclient-j" width="108.3%" height="116.7%" x="-4.2%" y="-4.2%" filterUnits="objectBoundingBox">
      <feOffset dy="1" in="SourceAlpha" result="shadowOffsetOuter1"/>
      <feColorMatrix in="shadowOffsetOuter1" values="0 0 0 0 0   0 0 0 0 0   0 0 0 0 0  0 0 0 0.200420673 0"/>
    </filter>
  </defs>
  <g fill="none" fill-rule="evenodd" filter="url(#kmsclient-a)" transform="translate(3 2)">
    <use fill="#E6F7EF" xlink:href="#kmsclient-b"/>
    <use fill="#000" filter="url(#kmsclient-c)" xlink:href="#kmsclient-b"/>
    <g transform="translate(1 7)">
      <g fill-rule="nonzero" opacity=".704">
        <use fill="#000" filter="url(#kmsclient-d)" xlink:href="#kmsclient-e"/>
        <use fill="#3234FF" xlink:href="#kmsclient-e"/>
      </g>
      <g fill-rule="nonzero" opacity=".86">
        <use fill="#000" filter="url(#kmsclient-f)" xlink:href="#kmsclient-g"/>
        <use fill="#2787FF" xlink:href="#kmsclient-g"/>
      </g>
      <g opacity=".855">
        <use fill="#000" filter="url(#kmsclient-h)" xlink:href="#kmsclient-i"/>
        <use fill="#00E2B5" xlink:href="#kmsclient-i"/>
      </g>
    </g>
    <path fill="#E6F7EF" fill-rule="nonzero" d="M5.5,15.5 L5.5,14.5427522 L6.6527629,13.37223 L7.93030286,15.8640566 C7.97308953,15.9475114 8.05898493,16 8.15276882,16 L9.67794707,16 C9.78150046,16 9.86544707,15.9160534 9.86544707,15.8125 C9.86544707,15.7800486 9.85702462,15.7481527 9.84100345,15.7199318 L7.84025949,12.1956747 L9.68623629,10.3189842 C9.758853,10.2451593 9.75787355,10.1264449 9.68404863,10.0538282 C9.64897865,10.0193321 9.60175672,10 9.55256445,10 L8.10065508,10 C8.03607077,10 7.97399234,10.024994 7.92742591,10.0697456 L5.5,12.4025649 L5.5,10.5 C5.5,10.2238576 5.27614237,10 5,10 L4.5,10 C4.22385763,10 4,10.2238576 4,10.5 L4,15.5 C4,15.7761424 4.22385763,16 4.5,16 L5,16 C5.27614237,16 5.5,15.7761424 5.5,15.5 Z M12.5,15.625 L12.5,11.75 L13.6109172,15.7259142 C13.6561919,15.8879498 13.8038419,16 13.9720838,16 L14.7029945,16 C14.8770138,16 15.0281687,15.8802831 15.0680259,15.7108898 L16,11.75 L16,15.625 C16,15.8321068 16.1678932,16 16.375,16 L17.125,16 C17.3321068,16 17.5,15.8321068 17.5,15.625 L17.5,10.5 C17.5,10.2238576 17.2761424,10 17,10 L15.5600125,10 C15.3257608,10 15.1229112,10.1626333 15.0719756,10.3912802 L14.3359375,13.6953125 L13.5526241,10.3848696 C13.4992516,10.1593068 13.2978509,10 13.0660596,10 L11.5,10 C11.2238576,10 11,10.2238576 11,10.5 L11,15.625 C11,15.8321068 11.1678932,16 11.375,16 L12.125,16 C12.3321068,16 12.5,15.8321068 12.5,15.625 Z M21.1875,16.0625 C21.7421875,16.0625 22.1705729,15.8925781 22.5351563,15.7324219 C22.8997396,15.5722656 23.1835938,15.3372396 23.3867188,15.0273437 C23.5898438,14.7174479 23.6914063,14.3789062 23.6914063,14.0117187 C23.6914063,13.6992187 23.6152344,13.4166667 23.4628906,13.1640625 C23.3105469,12.9114583 23.0670573,12.6998698 22.7324219,12.5292969 C22.4721499,12.3966291 22.0791538,12.2651427 21.5534336,12.134838 L21.0703125,12.0234375 C20.7578125,11.9583333 20.5598958,11.8880208 20.4765625,11.8125 C20.390625,11.7395833 20.3476563,11.6575521 20.3476563,11.5664062 C20.3476563,11.4414062 20.3997396,11.3352865 20.5039063,11.2480469 C20.6080729,11.1608073 20.7630208,11.1171875 20.96875,11.1171875 C21.21875,11.1171875 21.4147135,11.1757812 21.5566406,11.2929687 L21.6750912,11.3824277 C21.712463,11.4124053 21.7471352,11.4467385 21.7773437,11.4980199 L21.8092895,11.5551364 L21.8092895,11.5551364 C21.8526533,11.6366458 21.9374737,11.6875 22.0298001,11.6875 L23.1244141,11.6875 C23.2427026,11.6873947 23.341794,11.6051866 23.3676918,11.4947949 L23.3741539,11.4292194 L23.3741539,11.4292194 C23.363475,11.2662884 23.3351475,11.1399165 23.2887597,11.0418323 C23.174229,10.7996638 23.0177933,10.6002783 22.8183594,10.4589844 C22.4342448,10.186849 21.9192708,10 21.1875,10 C20.5911458,10 20.078776,10.125651 19.7363281,10.2753906 C19.3938802,10.4251302 19.1373698,10.6308594 18.9667969,10.8925781 C18.796224,11.1542969 18.7109375,11.4322917 18.7109375,11.7265625 C18.7109375,12.1744792 18.8776042,12.5429687 19.2109375,12.8320312 C19.504919,13.0889757 19.9748264,13.3006526 20.6206597,13.4670621 L20.8710938,13.5273437 C21.3450521,13.6315104 21.6471354,13.7421875 21.7773438,13.859375 C21.9075521,13.9765625 21.9726563,14.109375 21.9726563,14.2578125 C21.9726563,14.4140625 21.9042969,14.5514323 21.7675781,14.6699219 C21.6308594,14.7884115 21.4088542,14.8125 21.15625,14.8125 C20.8177083,14.8125 20.5846354,14.7317708 20.4023438,14.5 C20.35993,14.4457498 20.3240542,14.3911261 20.2938675,14.3293364 C20.2731519,14.2869333 20.2514719,14.2196962 20.2288275,14.127625 C20.2012,14.0159972 20.1010576,13.9375 19.986062,13.9375 L18.7914673,13.9375 C18.6534572,13.9376106 18.5415779,14.0494899 18.5415779,14.1875 L18.5454692,14.2314276 L18.5454692,14.2314276 L18.5888749,14.4399759 C18.5961725,14.4693341 18.6035017,14.4959923 18.6108626,14.5199505 C18.7159443,14.86197 18.8892137,15.1665575 19.1328125,15.4101562 C19.5078125,15.7851562 20.2135417,16.0625 21.1875,16.0625 Z"/>
    <g fill-rule="nonzero" transform="translate(16 16)">
      <use fill="#000" filter="url(#kmsclient-j)" xlink:href="#kmsclient-k"/>
      <use fill="url(#kmsclient-l)" xlink:href="#kmsclient-k"/>
      <path fill="#1E49AB" d="M4.35694228,4.01033061 C4.18387953,4.30861668 3.86105105,4.50921631 3.49137002,4.50921631 C2.93908527,4.50921631 2.49137002,4.06150106 2.49137002,3.50921631 C2.49137002,2.95693156 2.93908527,2.50921631 3.49137002,2.50921631 C3.86145774,2.50921631 4.18458976,2.71025754 4.3575129,3.0090868 L7.97996737,3.00921631 C8.7811777,3.00921631 9.430687,3.65872561 9.430687,4.45993594 L9.42791444,4.54958369 C9.3794924,5.33167298 8.76637404,5.95133272 8.00029848,6.02152768 L7.85496737,6.0281557 L3.98190032,6.0281557 C3.71098792,6.0281557 3.49137002,6.2477736 3.49137002,6.51868601 C3.49137002,6.75949703 3.66489527,6.95977907 3.89372688,7.00131321 L3.98190032,7.00921631 L7.99137002,7.00921631 L7.99137002,6.25921631 C7.99137002,6.23217003 8.00014225,6.20585333 8.01637002,6.18421631 C8.05779138,6.12898783 8.13614154,6.11779495 8.19137002,6.15921631 L8.19137002,6.15921631 L9.85803669,7.40921631 C9.86751239,7.41632309 9.87592991,7.4247406 9.88303669,7.43421631 C9.92445804,7.48944478 9.91326516,7.56779495 9.85803669,7.60921631 L9.85803669,7.60921631 L8.19137002,8.85921631 C8.169733,8.87544407 8.1434163,8.88421631 8.11637002,8.88421631 C8.04733443,8.88421631 7.99137002,8.8282519 7.99137002,8.75921631 L7.99137002,8.75921631 L7.99137002,8.00921631 L3.98190032,8.00921631 C3.15870317,8.00921631 2.49137002,7.34188316 2.49137002,6.51868601 C2.49137002,5.74391221 3.0825025,5.10720481 3.83835231,5.03497893 L3.98190032,5.0281557 L7.85496737,5.0281557 C8.12543183,5.0281557 8.35442315,4.84115214 8.41517674,4.5863039 L8.4304716,4.47386879 L8.430687,4.45993594 C8.430687,4.23866876 8.27124478,4.0546413 8.06098479,4.01647801 L7.97996737,4.00921631 Z"/>
    </g>
  </g>
</svg>
