<svg xmlns="http://www.w3.org/2000/svg" width="32" height="32" viewBox="0 0 32 32">
  <defs>
    <filter id="licensequick-a" width="129.1%" height="129.1%" x="-14.5%" y="-14.5%" filterUnits="objectBoundingBox">
      <feOffset dy="1" in="SourceAlpha" result="shadowOffsetOuter1"/>
      <feGaussianBlur in="shadowOffsetOuter1" result="shadowBlurOuter1" stdDeviation=".5"/>
      <feColorMatrix in="shadowBlurOuter1" result="shadowMatrixOuter1" values="0 0 0 0 0   0 0 0 0 0   0 0 0 0 0  0 0 0 0.15 0"/>
      <feMerge>
        <feMergeNode in="shadowMatrixOuter1"/>
        <feMergeNode in="SourceGraphic"/>
      </feMerge>
    </filter>
    <linearGradient id="licensequick-b" x1="50%" x2="50%" y1="0%" y2="98.139%">
      <stop offset="0%" stop-color="#F2F2F2"/>
      <stop offset="100%" stop-color="#EDEDED"/>
    </linearGradient>
    <linearGradient id="licensequick-c" x1="50%" x2="50%" y1="0%" y2="100%">
      <stop offset="0%" stop-color="#FFF"/>
      <stop offset="100%" stop-color="#B9B9B9"/>
    </linearGradient>
  </defs>
  <g fill="none" fill-rule="evenodd">
    <g filter="url(#licensequick-a)" transform="translate(2 2)">
      <path fill="url(#licensequick-b)" d="M13.7666667,0 C21.3697867,0 27.5333333,6.16354661 27.5333333,13.7666667 C27.5333333,21.3697867 21.3697867,27.5333333 13.7666667,27.5333333 C6.16354661,27.5333333 0,21.3697867 0,13.7666667 C0,6.16354661 6.16354661,0 13.7666667,0 Z"/>
      <path fill="url(#licensequick-c)" fill-rule="nonzero" d="M13.7666667,0 C21.3697867,0 27.5333333,6.16354661 27.5333333,13.7666667 C27.5333333,21.3697867 21.3697867,27.5333333 13.7666667,27.5333333 C6.16354661,27.5333333 0,21.3697867 0,13.7666667 C0,6.16354661 6.16354661,0 13.7666667,0 Z M13.7666667,1 C6.71583136,1 1,6.71583136 1,13.7666667 C1,20.817502 6.71583136,26.5333333 13.7666667,26.5333333 C20.817502,26.5333333 26.5333333,20.817502 26.5333333,13.7666667 C26.5333333,6.71583136 20.817502,1 13.7666667,1 Z"/>
      <path fill="#000" fill-opacity=".045" d="M13.7666667,3.325 C19.5334399,3.325 24.2083333,7.9998934 24.2083333,13.7666667 C24.2083333,19.5334399 19.5334399,24.2083333 13.7666667,24.2083333 C7.9998934,24.2083333 3.325,19.5334399 3.325,13.7666667 C3.325,7.9998934 7.9998934,3.325 13.7666667,3.325 Z"/>
      <path fill="#000" fill-opacity=".104" fill-rule="nonzero" d="M13.7666667,3.325 C19.5334399,3.325 24.2083333,7.9998934 24.2083333,13.7666667 C24.2083333,19.5334399 19.5334399,24.2083333 13.7666667,24.2083333 C7.9998934,24.2083333 3.325,19.5334399 3.325,13.7666667 C3.325,7.9998934 7.9998934,3.325 13.7666667,3.325 Z M13.7666667,4.325 C8.55217815,4.325 4.325,8.55217815 4.325,13.7666667 C4.325,18.9811552 8.55217815,23.2083333 13.7666667,23.2083333 C18.9811552,23.2083333 23.2083333,18.9811552 23.2083333,13.7666667 C23.2083333,8.55217815 18.9811552,4.325 13.7666667,4.325 Z"/>
      <path fill="#000" fill-opacity=".045" d="M13.7958333,6.59166667 C17.7745847,6.59166667 21,9.81708195 21,13.7958333 C21,17.7745847 17.7745847,21 13.7958333,21 C9.81708195,21 6.59166667,17.7745847 6.59166667,13.7958333 C6.59166667,9.81708195 9.81708195,6.59166667 13.7958333,6.59166667 Z"/>
      <path fill="#000" fill-opacity=".104" fill-rule="nonzero" d="M13.7958333,6.59166667 C17.7745847,6.59166667 21,9.81708195 21,13.7958333 C21,17.7745847 17.7745847,21 13.7958333,21 C9.81708195,21 6.59166667,17.7745847 6.59166667,13.7958333 C6.59166667,9.81708195 9.81708195,6.59166667 13.7958333,6.59166667 Z M13.7958333,7.59166667 C10.3693667,7.59166667 7.59166667,10.3693667 7.59166667,13.7958333 C7.59166667,17.2223 10.3693667,20 13.7958333,20 C17.2223,20 20,17.2223 20,13.7958333 C20,10.3693667 17.2223,7.59166667 13.7958333,7.59166667 Z"/>
    </g>
    <g transform="rotate(30 5.692 31.495)">
      <path fill="#E0E0E0" fill-rule="nonzero" d="M6.8895184,1.8364604 L6.8895184,8.20591348 L2.22894298,8.20591348 L2.22894298,2.5864604 C2.22894298,2.17224684 2.56472941,1.8364604 2.97894298,1.8364604 L6.8895184,1.8364604 L6.8895184,1.8364604 Z"/>
      <path fill="#BFBFBF" fill-rule="nonzero" d="M8.51224064,1.20285195 L11.5356424,2.94841376 C11.8943619,3.15552055 12.0172682,3.61421335 11.8101614,3.97293282 L9.00043491,8.83952194 L9.00043491,8.83952194 L5.3275141,6.71896012 L6.41203317,4.84051799 C6.46923239,4.74144604 6.43528783,4.61476324 6.33621588,4.55756402 L6.28688483,4.52908273 C6.18781288,4.47188351 6.15386833,4.3452007 6.21106754,4.24612875 L6.51448285,3.72059802 C6.57168207,3.62152607 6.69836488,3.58758152 6.79743683,3.64478073 L6.84676787,3.67326203 C6.94583982,3.73046124 7.07252263,3.69651669 7.12972185,3.59744474 L7.46621044,3.0146294 C7.52340966,2.91555745 7.4894651,2.78887464 7.39039315,2.73167543 L7.3410621,2.70319413 C7.24199015,2.64599492 7.2080456,2.51931211 7.26524481,2.42024016 L7.56939699,1.89343313 C7.62659621,1.79436119 7.75327902,1.76041663 7.85235097,1.81761585 L7.90168201,1.84609714 C8.00075396,1.90329636 8.12743677,1.8693518 8.18463599,1.77027985 L8.51224064,1.20285195 Z" transform="rotate(-30 8.756 5.021)"/>
      <path fill="#51515D" fill-rule="nonzero" d="M9.63407948 4.03728769C9.63407948 4.39478279 9.34427244 4.68458983 8.98677734 4.68458983 8.62928224 4.68458983 8.3394752 4.39478279 8.3394752 4.03728769 8.3394752 3.67979258 8.62928224 3.38998554 8.98677734 3.38998554 9.34427244 3.38998554 9.63407948 3.67979258 9.63407948 4.03728769zM4.76636737 4.03728769C4.76636737 4.39478279 4.47656033 4.68458983 4.11906523 4.68458983 3.76157013 4.68458983 3.47176309 4.39478279 3.47176309 4.03728769 3.47176309 3.67979258 3.76157013 3.38998554 4.11906523 3.38998554 4.47656033 3.38998554 4.76636737 3.67979258 4.76636737 4.03728769z"/>
      <path fill="#686B7D" fill-rule="nonzero" d="M3.93782063,9.18981274 L3.93782063,12.7895865 C3.93782063,12.9546127 3.98163308,13.1166807 4.06478098,13.2592293 L5.05969444,14.964907 C5.26348227,15.3142804 5.21870046,15.7552114 4.94883221,16.0564794 L4.47565503,16.5847118 C4.17167281,16.9240631 4.15753957,17.4334299 4.4422369,17.7891151 L4.51198386,17.8769026 L4.57909885,17.9627009 C4.59006535,17.9768349 4.60092219,17.9908859 4.61166936,18.0048541 L4.67483642,18.0876686 L4.73537151,18.1684938 C4.74524137,18.1817989 4.75500155,18.1950212 4.76465207,18.2081605 L4.82123923,18.2860019 L4.87519442,18.3618541 L4.92651765,18.4357171 L4.97520892,18.5075909 L5.02126823,18.5774754 L5.06469558,18.6453707 C5.07873271,18.667671 5.09233117,18.6896397 5.10549097,18.7112768 L5.1436544,18.7751937 C5.17436061,18.8276289 5.20232519,18.8779921 5.22754815,18.9262831 L5.25649971,18.9832377 C5.26571158,19.001891 5.27448478,19.0202128 5.28281932,19.0382031 L5.30650696,19.0911793 L5.32756265,19.1421662 C5.37691191,19.2671471 5.40158654,19.373479 5.40158654,19.461162 C5.40158654,19.7324044 5.16546533,20.097379 4.69322292,20.5560857 L4.6224287,20.6238826 C4.2566096,20.9694437 4.23112178,21.5429857 4.56484645,21.919634 L5.85043974,23.3089623 C6.1233182,23.6038594 6.58011572,23.6313369 6.88637617,23.3712763 L9.28334358,21.3358953 L9.28334358,21.3358953 C9.37452459,21.2572004 9.42694279,21.142719 9.42694279,21.0222746 L9.42694279,9.36489255 L3.93782063,9.18981274 Z"/>
      <path fill="#686B7D" d="M11.373914,10.5232484 L10.2078997,12.5428445 C10.0007929,12.901564 9.54210008,13.0244704 9.18338061,12.8173636 L2.00644762,8.67375939 C1.64772815,8.46665261 1.52482179,8.0079598 1.73192857,7.64924034 L2.89794291,5.62964426 C3.10504969,5.27092479 3.56374249,5.14801842 3.92246196,5.3551252 L10.6437964,9.23568947 L10.6437964,9.23568947 L11.0993949,9.4987294 C11.4581144,9.70583618 11.5810208,10.164529 11.373914,10.5232484 Z" transform="rotate(-30 6.553 9.086)"/>
    </g>
  </g>
</svg>
