<svg xmlns="http://www.w3.org/2000/svg" xmlns:xlink="http://www.w3.org/1999/xlink" width="32" height="32" viewBox="0 0 32 32">
  <defs>
    <filter id="uos-remote-assistance-a" width="129.6%" height="132%" x="-14.8%" y="-16%" filterUnits="objectBoundingBox">
      <feOffset dy="1" in="SourceAlpha" result="shadowOffsetOuter1"/>
      <feGaussianBlur in="shadowOffsetOuter1" result="shadowBlurOuter1" stdDeviation=".5"/>
      <feColorMatrix in="shadowBlurOuter1" result="shadowMatrixOuter1" values="0 0 0 0 0   0 0 0 0 0   0 0 0 0 0  0 0 0 0.15 0"/>
      <feMerge>
        <feMergeNode in="shadowMatrixOuter1"/>
        <feMergeNode in="SourceGraphic"/>
      </feMerge>
    </filter>
    <linearGradient id="uos-remote-assistance-b" x1="50%" x2="50%" y1="21.23%" y2="79.403%">
      <stop offset="0%" stop-color="#64738B"/>
      <stop offset="100%" stop-color="#7C8EAA"/>
    </linearGradient>
    <path id="uos-remote-assistance-c" d="M1,0 L25,0 C25.5522847,-1.01453063e-16 26,0.44771525 26,1 L26,19 C26,19.5522847 25.5522847,20 25,20 L1,20 C0.44771525,20 6.76353751e-17,19.5522847 0,19 L0,1 C-6.76353751e-17,0.44771525 0.44771525,1.01453063e-16 1,0 Z"/>
    <filter id="uos-remote-assistance-d" width="103.8%" height="105%" x="-1.9%" y="-2.5%" filterUnits="objectBoundingBox">
      <feOffset dy="-1" in="SourceAlpha" result="shadowOffsetInner1"/>
      <feComposite in="shadowOffsetInner1" in2="SourceAlpha" k2="-1" k3="1" operator="arithmetic" result="shadowInnerInner1"/>
      <feColorMatrix in="shadowInnerInner1" values="0 0 0 0 0   0 0 0 0 0   0 0 0 0 0  0 0 0 0.210118007 0"/>
    </filter>
    <linearGradient id="uos-remote-assistance-e" x1="50%" x2="50%" y1="0%" y2="100%">
      <stop offset="0%" stop-color="#FFF" stop-opacity=".84"/>
      <stop offset="100%" stop-color="#FFF" stop-opacity=".517"/>
    </linearGradient>
    <linearGradient id="uos-remote-assistance-f" x1="50%" x2="50%" y1="0%" y2="100%">
      <stop offset="0%" stop-color="#FFF" stop-opacity=".386"/>
      <stop offset="100%" stop-color="#FFF" stop-opacity=".127"/>
    </linearGradient>
    <linearGradient id="uos-remote-assistance-g" x1="46.826%" x2="46.826%" y1="-50.405%" y2="204.036%">
      <stop offset="0%" stop-color="#D4DFEE"/>
      <stop offset="100%" stop-color="#737D8C"/>
    </linearGradient>
  </defs>
  <g fill="none" fill-rule="evenodd" filter="url(#uos-remote-assistance-a)" transform="translate(3 4)">
    <polygon fill="url(#uos-remote-assistance-b)" points="10 20 16 20 16 22 10 22"/>
    <use fill="#D8E5F7" xlink:href="#uos-remote-assistance-c"/>
    <use fill="#000" filter="url(#uos-remote-assistance-d)" xlink:href="#uos-remote-assistance-c"/>
    <polygon fill="#2A4E77" points="2 2 24 2 24 17 2 17"/>
    <g transform="translate(5 4)">
      <polygon fill="url(#uos-remote-assistance-e)" points="0 0 16 0 16 10 0 10" opacity=".335"/>
      <path fill="url(#uos-remote-assistance-f)" d="M0,1 L4,1 L4,10 L0,10 L0,1 Z" opacity=".305"/>
      <rect width="2" height="1" x="6" y="3" fill="#FFF" opacity=".17"/>
      <rect width="2" height="1" x="6" y="5" fill="#FFF" opacity=".17"/>
      <rect width="2" height="1" x="9" y="3" fill="#FFF" opacity=".17"/>
      <rect width="2" height="1" x="9" y="5" fill="#FFF" opacity=".17"/>
      <rect width="2" height="1" x="6" y="7" fill="#FFF" opacity=".17"/>
      <rect width="2" height="1" x="9" y="7" fill="#FFF" opacity=".17"/>
      <rect width="2" height="1" x="12" y="3" fill="#FFF" opacity=".17"/>
      <rect width="2" height="1" x="12" y="5" fill="#FFF" opacity=".17"/>
      <polygon fill="#FFF" points="0 0 16 0 16 .883 16 1 0 1" opacity=".596"/>
    </g>
    <path fill="url(#uos-remote-assistance-g)" d="M8.31306499,22 L17.7,22 C17.8656854,22 18,22.1343146 18,22.3 L18,22.7 C18,22.8656854 17.8656854,23 17.7,23 L8.33012149,23 C8.16940702,23 8.0372407,22.8733493 8.03039386,22.7127808 L8.01333736,22.3127808 C8.00627874,22.1472458 8.13474923,22.007331 8.30028423,22.0002724 C8.30454207,22.0000908 8.30880329,22 8.31306499,22 Z"/>
    <circle cx="20.5" cy="18.5" r="6.5" fill="#3BAD88"/>
    <path fill="#FFF" fill-rule="nonzero" d="M18.1371888,14.9768929 L18.5390657,22.4291495 C18.5445611,22.5310529 18.6298136,22.6102762 18.7318458,22.6083321 L22.5893031,22.5334224 C22.6543302,22.5321602 22.7141604,22.4976172 22.7477671,22.4419331 L24.7413379,19.1387138 C24.7940691,19.0513416 24.768086,18.9378991 24.6825828,18.8821883 L18.4296777,14.8080243 C18.3420463,14.7509269 18.2247204,14.7756796 18.1676229,14.863311 C18.1456833,14.8969832 18.1350246,14.9367621 18.1371888,14.9768929 Z"/>
  </g>
</svg>
