<svg xmlns="http://www.w3.org/2000/svg" xmlns:xlink="http://www.w3.org/1999/xlink" width="32" height="32" viewBox="0 0 32 32">
  <defs>
    <filter id="uos-windesk-a" width="133.3%" height="133.3%" x="-16.7%" y="-16.7%" filterUnits="objectBoundingBox">
      <feOffset dy="1" in="SourceAlpha" result="shadowOffsetOuter1"/>
      <feGaussianBlur in="shadowOffsetOuter1" result="shadowBlurOuter1" stdDeviation=".5"/>
      <feColorMatrix in="shadowBlurOuter1" result="shadowMatrixOuter1" values="0 0 0 0 0   0 0 0 0 0   0 0 0 0 0  0 0 0 0.15 0"/>
      <feMerge>
        <feMergeNode in="shadowMatrixOuter1"/>
        <feMergeNode in="SourceGraphic"/>
      </feMerge>
    </filter>
    <path id="uos-windesk-b" d="M3,0 L21,0 C22.6568542,-3.04359188e-16 24,1.34314575 24,3 L24,21 C24,22.6568542 22.6568542,24 21,24 L3,24 C1.34314575,24 2.02906125e-16,22.6568542 0,21 L0,3 C-2.02906125e-16,1.34314575 1.34314575,3.04359188e-16 3,0 Z"/>
    <filter id="uos-windesk-c" width="104.2%" height="104.2%" x="-2.1%" y="-2.1%" filterUnits="objectBoundingBox">
      <feOffset dy="-1" in="SourceAlpha" result="shadowOffsetInner1"/>
      <feComposite in="shadowOffsetInner1" in2="SourceAlpha" k2="-1" k3="1" operator="arithmetic" result="shadowInnerInner1"/>
      <feColorMatrix in="shadowInnerInner1" result="shadowMatrixInner1" values="0 0 0 0 0   0 0 0 0 0   0 0 0 0 0  0 0 0 0.301354895 0"/>
      <feOffset dy="1" in="SourceAlpha" result="shadowOffsetInner2"/>
      <feComposite in="shadowOffsetInner2" in2="SourceAlpha" k2="-1" k3="1" operator="arithmetic" result="shadowInnerInner2"/>
      <feColorMatrix in="shadowInnerInner2" result="shadowMatrixInner2" values="0 0 0 0 1   0 0 0 0 1   0 0 0 0 1  0 0 0 0.849334503 0"/>
      <feMerge>
        <feMergeNode in="shadowMatrixInner1"/>
        <feMergeNode in="shadowMatrixInner2"/>
      </feMerge>
    </filter>
  </defs>
  <g fill="none" fill-rule="evenodd" filter="url(#uos-windesk-a)" transform="translate(4 4)">
    <use fill="#F7F7F7" xlink:href="#uos-windesk-b"/>
    <use fill="#000" filter="url(#uos-windesk-c)" xlink:href="#uos-windesk-b"/>
    <g fill-rule="nonzero" transform="translate(3.667 3.667)">
      <path fill="#008DF3" d="M7.33333333,6.33333333 L16.3333333,6.33333333 C16.8856181,6.33333333 17.3333333,6.78104858 17.3333333,7.33333333 L17.3333333,15.3333333 C17.3333333,15.8856181 16.8856181,16.3333333 16.3333333,16.3333333 L7.33333333,16.3333333 C6.78104858,16.3333333 6.33333333,15.8856181 6.33333333,15.3333333 L6.33333333,7.33333333 C6.33333333,6.78104858 6.78104858,6.33333333 7.33333333,6.33333333 Z" transform="matrix(-1 0 0 1 23.667 0)"/>
      <path fill="#00C3E6" d="M12.3333333,0.333333333 C12.8461692,0.333333333 13.2688405,0.719373524 13.3266056,1.21671221 L13.3333333,1.33333333 L13.333,5.333 L6.33333333,5.33333333 C5.82049749,5.33333333 5.39782617,5.71937352 5.34006106,6.21671221 L5.33333333,6.33333333 L5.333,13.333 L1.33333333,13.3333333 C0.820497494,13.3333333 0.397826173,12.9472931 0.340061065,12.4499545 L0.333333333,12.3333333 L0.333333333,1.33333333 C0.333333333,0.820497494 0.719373524,0.397826173 1.21671221,0.340061065 L1.33333333,0.333333333 L12.3333333,0.333333333 Z M13.3333333,12.8333333 C13.3333333,13.0787932 13.1564582,13.2829417 12.923209,13.3252777 L12.8333333,13.3333333 L6.333,13.333 L6.33333333,6.83333333 C6.33333333,6.58787344 6.51020849,6.38372496 6.7434577,6.341389 L6.83333333,6.33333333 L13.3332739,6.33333333 L13.3333333,12.8333333 Z"/>
    </g>
  </g>
</svg>
