<svg xmlns="http://www.w3.org/2000/svg" width="20" height="20" viewBox="0 0 20 20">
  <path fill-rule="evenodd" d="M3.73878388,11.0142829 C4.15299744,11.0142829 4.48878388,11.3500694 4.48878388,11.7642829 C4.48878388,12.1784965 4.15299744,12.5142829 3.73878388,12.5142829 C3.32457032,12.5142829 2.98878388,12.1784965 2.98878388,11.7642829 C2.98878388,11.3500694 3.32457032,11.0142829 3.73878388,11.0142829 Z M0.436919248,3.08268311 C0.436919248,1.13943593 2.44277052,-0.277317973 4.75190456,0.120703815 C6.97078138,0.503168111 8.00639209,2.42396961 7.3999392,4.25460102 C7.15739227,4.98675028 6.70004335,5.57446845 5.84124492,6.42297358 C5.75849006,6.50473656 5.66262321,6.59843859 5.48984059,6.76721324 C5.35373813,6.90057 5.25584719,6.99807243 5.16451796,7.09195419 C4.94053883,7.32219325 4.77964637,7.508074 4.66151748,7.67728434 C4.34213502,8.13477454 4.11179375,8.82575361 4.21575217,9.4385063 C4.26194189,9.71075825 4.07868226,9.96890623 3.80643032,10.015096 C3.53417838,10.0612857 3.2760304,9.87802605 3.22984067,9.60577411 C3.07467393,8.69118883 3.38590902,7.75754403 3.8415615,7.10485776 C3.99600276,6.88363282 4.1892898,6.66032626 4.44773408,6.3946588 C4.602227,6.23584801 5.27586204,5.57577535 5.13991888,5.71012965 C5.89092043,4.96797788 6.27280952,4.47702395 6.45067298,3.94012743 C6.87130315,2.67041826 6.17606928,1.38093154 4.58204106,1.10617142 C2.84754496,0.807199062 1.43691925,1.80353887 1.43691925,3.08268311 C1.43691925,3.35882549 1.21306162,3.58268311 0.936919248,3.58268311 C0.660776873,3.58268311 0.436919248,3.35882549 0.436919248,3.08268311 Z" transform="translate(6 4)"/>
</svg>
