<svg xmlns="http://www.w3.org/2000/svg" width="20" height="20" viewBox="0 0 20 20">
  <defs>
    <linearGradient id="printer-printing-symbolic-a" x1="50%" x2="50%" y1="0%" y2="100%">
      <stop offset="0%" stop-color="#DBFDFF"/>
      <stop offset="100%" stop-color="#71FBFB"/>
    </linearGradient>
    <linearGradient id="printer-printing-symbolic-b" x1="50%" x2="50%" y1="2.055%" y2="97.559%">
      <stop offset="0%" stop-color="#DBFDFF"/>
      <stop offset="100%" stop-color="#70FBFB"/>
    </linearGradient>
  </defs>
  <g fill="none" fill-rule="evenodd" transform="translate(2 2)">
    <path stroke="url(#printer-printing-symbolic-a)" stroke-linecap="round" stroke-linejoin="round" stroke-width="1.1" d="M13.74,11.09375 C15.215,10.41375 16.25,8.85875 16.25,7.29125 C16.25,5.2825 14.55,3.27 12.4025,3.145 C11.69875,1.4525 9.9175,0.25 7.83125,0.25 C5.1875,0.25 3.03375,2.18125 2.9425,4.595 C1.28625,4.77 0,6.44 0,8.01125 C0,9.385 1.0325,10.795 2.40375,11.27625"/>
    <path fill="url(#printer-printing-symbolic-b)" d="M4.00002757,12 L11.998114,12 L11.998114,10 L4.00002757,10 L4.00002757,12 Z M4.00191354,15 L12,15 L12,13 L4.00191354,13 L4.00191354,15 Z M4.00191354,9 L12,9 L12,7 L4.00191354,7 L4.00191354,9 Z M3,15.0046024 C3,15.5543453 3.4556644,16 3.99539757,16 L12.0046024,16 C12.5543453,16 13,15.5443356 13,15.0046024 L13,6.99539757 C13,6.44565467 12.5443356,6 12.0046024,6 L3.99539757,6 C3.44565467,6 3,6.4556644 3,6.99539757 L3,15.0046024 Z"/>
  </g>
</svg>
