<svg xmlns="http://www.w3.org/2000/svg" xmlns:xlink="http://www.w3.org/1999/xlink" width="128" height="128" viewBox="0 0 128 128">
  <defs>
    <filter id="deepin-contacts-a" width="132.7%" height="129.4%" x="-16.3%" y="-14.7%" filterUnits="objectBoundingBox">
      <feOffset dy="2" in="SourceAlpha" result="shadowOffsetOuter1"/>
      <feGaussianBlur in="shadowOffsetOuter1" result="shadowBlurOuter1" stdDeviation="3"/>
      <feColorMatrix in="shadowBlurOuter1" result="shadowMatrixOuter1" values="0 0 0 0 0   0 0 0 0 0   0 0 0 0 0  0 0 0 0.2 0"/>
      <feMerge>
        <feMergeNode in="shadowMatrixOuter1"/>
        <feMergeNode in="SourceGraphic"/>
      </feMerge>
    </filter>
    <rect id="deepin-contacts-b" width="14.75" height="30" x="83.25" y="68" rx="1.5"/>
    <filter id="deepin-contacts-c" width="113.6%" height="106.7%" x="-6.8%" y="-3.3%" filterUnits="objectBoundingBox">
      <feOffset dy="-2" in="SourceAlpha" result="shadowOffsetInner1"/>
      <feComposite in="shadowOffsetInner1" in2="SourceAlpha" k2="-1" k3="1" operator="arithmetic" result="shadowInnerInner1"/>
      <feColorMatrix in="shadowInnerInner1" values="0 0 0 0 0   0 0 0 0 0   0 0 0 0 0  0 0 0 0.1 0"/>
    </filter>
    <rect id="deepin-contacts-d" width="14.75" height="30" x="83.25" y="39.5" rx="1.5"/>
    <filter id="deepin-contacts-e" width="113.6%" height="106.7%" x="-6.8%" y="-3.3%" filterUnits="objectBoundingBox">
      <feOffset dy="-2" in="SourceAlpha" result="shadowOffsetInner1"/>
      <feComposite in="shadowOffsetInner1" in2="SourceAlpha" k2="-1" k3="1" operator="arithmetic" result="shadowInnerInner1"/>
      <feColorMatrix in="shadowInnerInner1" values="0 0 0 0 0   0 0 0 0 0   0 0 0 0 0  0 0 0 0.1 0"/>
    </filter>
    <rect id="deepin-contacts-f" width="14.75" height="30" x="83.25" y="10.75" rx="1.5"/>
    <filter id="deepin-contacts-g" width="113.6%" height="106.7%" x="-6.8%" y="-3.3%" filterUnits="objectBoundingBox">
      <feOffset dy="2" in="SourceAlpha" result="shadowOffsetInner1"/>
      <feComposite in="shadowOffsetInner1" in2="SourceAlpha" k2="-1" k3="1" operator="arithmetic" result="shadowInnerInner1"/>
      <feColorMatrix in="shadowInnerInner1" result="shadowMatrixInner1" values="0 0 0 0 1   0 0 0 0 1   0 0 0 0 1  0 0 0 0.339379371 0"/>
      <feOffset dy="-2" in="SourceAlpha" result="shadowOffsetInner2"/>
      <feComposite in="shadowOffsetInner2" in2="SourceAlpha" k2="-1" k3="1" operator="arithmetic" result="shadowInnerInner2"/>
      <feColorMatrix in="shadowInnerInner2" result="shadowMatrixInner2" values="0 0 0 0 0   0 0 0 0 0   0 0 0 0 0  0 0 0 0.1 0"/>
      <feMerge>
        <feMergeNode in="shadowMatrixInner1"/>
        <feMergeNode in="shadowMatrixInner2"/>
      </feMerge>
    </filter>
    <rect id="deepin-contacts-h" width="90" height="109" x="0" y="0" rx="2"/>
    <filter id="deepin-contacts-i" width="102.2%" height="101.8%" x="-1.1%" y="-.9%" filterUnits="objectBoundingBox">
      <feOffset dy="-2" in="SourceAlpha" result="shadowOffsetInner1"/>
      <feComposite in="shadowOffsetInner1" in2="SourceAlpha" k2="-1" k3="1" operator="arithmetic" result="shadowInnerInner1"/>
      <feColorMatrix in="shadowInnerInner1" result="shadowMatrixInner1" values="0 0 0 0 0   0 0 0 0 0   0 0 0 0 0  0 0 0 0.19607736 0"/>
      <feOffset dy="2" in="SourceAlpha" result="shadowOffsetInner2"/>
      <feComposite in="shadowOffsetInner2" in2="SourceAlpha" k2="-1" k3="1" operator="arithmetic" result="shadowInnerInner2"/>
      <feColorMatrix in="shadowInnerInner2" result="shadowMatrixInner2" values="0 0 0 0 1   0 0 0 0 1   0 0 0 0 1  0 0 0 0.497869318 0"/>
      <feMerge>
        <feMergeNode in="shadowMatrixInner1"/>
        <feMergeNode in="shadowMatrixInner2"/>
      </feMerge>
    </filter>
  </defs>
  <g fill="none" fill-rule="evenodd" filter="url(#deepin-contacts-a)" transform="rotate(-8 124.428 -48.005)">
    <use fill="#F55757" xlink:href="#deepin-contacts-b"/>
    <use fill="#000" filter="url(#deepin-contacts-c)" xlink:href="#deepin-contacts-b"/>
    <use fill="#C289E2" xlink:href="#deepin-contacts-d"/>
    <use fill="#000" filter="url(#deepin-contacts-e)" xlink:href="#deepin-contacts-d"/>
    <use fill="#55A6F2" xlink:href="#deepin-contacts-f"/>
    <use fill="#000" filter="url(#deepin-contacts-g)" xlink:href="#deepin-contacts-f"/>
    <use fill="#E8EDFA" xlink:href="#deepin-contacts-h"/>
    <use fill="#000" filter="url(#deepin-contacts-i)" xlink:href="#deepin-contacts-h"/>
    <path fill="#5E97F0" d="M36.9716572 18.5C47.4595213 18.5 45.1992057 27.2772622 45.1992057 29.2679814 46.4649824 30.3538283 45.8320941 32.887471 44.5663174 33.6113689 44.2950795 37.6832947 40.4073368 40.3979118 40.4073368 41.0313225 40.4073368 41.6647332 40.3169242 42.3886311 40.9498125 43.2935035 41.5827009 44.1983759 49.0869485 44.5603248 51.4376766 46.2795824 52.7366392 47.2296077 53.8699604 49.9617471 54.8376403 54.4760007 54.8745581 54.6482233 54.893172 54.8238651 54.893172 55 54.893172 56.3807135 53.7738826 57.5000029 52.3931691 57.5L52.3931691 57.5 21.250561 57.5C21.0600264 57.5 20.8701164 57.4782183 20.6845296 57.4350791 19.3396642 57.1224686 18.5028562 55.7788189 18.8154815 54.4339569 19.8926915 49.7997479 21.032331 47.081623 22.2343999 46.2795824 24.4043028 44.8317865 31.8181378 43.7459397 32.8126766 43.2935035 33.8072154 42.8410673 33.3551523 41.8457077 33.3551523 40.850348 33.3551523 39.8549884 29.8290601 38.4071926 29.1961718 33.6113689 27.7495698 32.525522 27.7495698 30.4443155 28.653696 29.2679814 28.653696 27.8201856 26.4837931 18.5 36.9716572 18.5zM54.8401741 19C63.3434635 19 62.1674767 26.8078947 62.1674767 29.7131579 62.1674767 32.6184211 64.8812925 34.1618421 64.8812925 35.7052632 64.8812925 37.2486842 58.7299767 38.7013158 58.2776741 38.7013158 57.8253714 38.7013158 58.0062925 39.7 58.2776741 40.6986842 58.5490556 41.6973684 64.3385293 41.425 67.0523451 42.8776316 68.5254544 43.6661468 69.8186468 46.1600567 70.9319221 50.3593613 70.9873398 50.5683981 71.0154 50.783742 71.0154 51 71.0154 52.3807032 69.8961189 53.4999843 68.5154157 53.5L68.5154157 53.5 56.5589241 53.5C55.5638583 51.0486842 55.0210951 47.5078947 52.8500425 45.4197368 50.6789898 43.3315789 44.7990556 43.0592105 44.165832 42.6960526 44.3361106 42.5678793 45.80852 42.2587552 47.3763797 41.9295256L47.9664445 41.8054362C49.5393124 41.4736933 51.0567956 41.1419505 51.3122135 40.9710526 51.8549767 40.6078947 52.0358977 39.4276316 51.6740556 38.9736842 51.3122135 38.5197368 46.1559635 37.6118421 45.7036609 36.6131579 45.2513583 35.6144737 47.6937925 33.3447368 47.6937925 29.7131579 47.6937925 26.0815789 46.3368846 19 54.8401741 19zM67.25 87C68.2164983 87 69 87.7835017 69 88.75 69 89.7164983 68.2164983 90.5 67.25 90.5L20.75 90.5C19.7835017 90.5 19 89.7164983 19 88.75 19 87.7835017 19.7835017 87 20.75 87L67.25 87zM67.25 78C68.2164983 78 69 78.7835017 69 79.75 69 80.7164983 68.2164983 81.5 67.25 81.5L20.75 81.5C19.7835017 81.5 19 80.7164983 19 79.75 19 78.7835017 19.7835017 78 20.75 78L67.25 78zM67.25 69C68.2164983 69 69 69.7835017 69 70.75 69 71.7164983 68.2164983 72.5 67.25 72.5L20.75 72.5C19.7835017 72.5 19 71.7164983 19 70.75 19 69.7835017 19.7835017 69 20.75 69L67.25 69z"/>
  </g>
</svg>
