<svg xmlns="http://www.w3.org/2000/svg" xmlns:xlink="http://www.w3.org/1999/xlink" width="128" height="128" viewBox="0 0 128 128">
  <defs>
    <filter id="deepin-devicemanager-a" width="130.8%" height="132%" x="-15.4%" y="-16%" filterUnits="objectBoundingBox">
      <feOffset dy="2" in="SourceAlpha" result="shadowOffsetOuter1"/>
      <feGaussianBlur in="shadowOffsetOuter1" result="shadowBlurOuter1" stdDeviation="3"/>
      <feColorMatrix in="shadowBlurOuter1" result="shadowMatrixOuter1" values="0 0 0 0 0   0 0 0 0 0   0 0 0 0 0  0 0 0 0.2 0"/>
      <feMerge>
        <feMergeNode in="shadowMatrixOuter1"/>
        <feMergeNode in="SourceGraphic"/>
      </feMerge>
    </filter>
    <linearGradient id="deepin-devicemanager-b" x1="50%" x2="50%" y1="1.467%" y2="100%">
      <stop offset="0%" stop-color="#5E5E5E"/>
      <stop offset="6.275%" stop-color="#222"/>
      <stop offset="86.886%" stop-color="#1A1A1A"/>
      <stop offset="100%" stop-color="#111"/>
    </linearGradient>
    <path id="deepin-devicemanager-c" d="M31,86 L31,95 L26,95 L26,86 L31,86 Z M39,86 L39,95 L34,95 L34,86 L39,86 Z M47,86 L47,95 L42,95 L42,86 L47,86 Z M55,86 L55,95 L50,95 L50,86 L55,86 Z M63,86 L63,95 L58,95 L58,86 L63,86 Z M71,86 L71,95 L66,95 L66,86 L71,86 Z M79,86 L79,95 L74,95 L74,86 L79,86 Z"/>
    <filter id="deepin-devicemanager-d" width="103.8%" height="122.2%" x="-1.9%" y="-11.1%" filterUnits="objectBoundingBox">
      <feOffset dy="2" in="SourceAlpha" result="shadowOffsetInner1"/>
      <feComposite in="shadowOffsetInner1" in2="SourceAlpha" k2="-1" k3="1" operator="arithmetic" result="shadowInnerInner1"/>
      <feColorMatrix in="shadowInnerInner1" values="0 0 0 0 0.926828578   0 0 0 0 0.558558022   0 0 0 0 0  0 0 0 0.55 0"/>
    </filter>
    <path id="deepin-devicemanager-e" d="M94,70 L94,77 L10,77 L10,70 L94,70 Z M94,58 L94,65 L10,65 L10,58 L94,58 Z M94,47 L94,54 L10,54 L10,47 L94,47 Z M94,35 L94,42 L10,42 L10,35 L94,35 Z M94,24 L94,31 L10,31 L10,24 L94,24 Z"/>
    <filter id="deepin-devicemanager-f" width="101.2%" height="101.9%" x="-.6%" y="-.9%" filterUnits="objectBoundingBox">
      <feOffset dy="1" in="SourceAlpha" result="shadowOffsetInner1"/>
      <feComposite in="shadowOffsetInner1" in2="SourceAlpha" k2="-1" k3="1" operator="arithmetic" result="shadowInnerInner1"/>
      <feColorMatrix in="shadowInnerInner1" result="shadowMatrixInner1" values="0 0 0 0 0   0 0 0 0 0   0 0 0 0 0  0 0 0 0.183129371 0"/>
      <feOffset dy="-1" in="SourceAlpha" result="shadowOffsetInner2"/>
      <feComposite in="shadowOffsetInner2" in2="SourceAlpha" k2="-1" k3="1" operator="arithmetic" result="shadowInnerInner2"/>
      <feColorMatrix in="shadowInnerInner2" result="shadowMatrixInner2" values="0 0 0 0 1   0 0 0 0 1   0 0 0 0 1  0 0 0 0.12 0"/>
      <feMerge>
        <feMergeNode in="shadowMatrixInner1"/>
        <feMergeNode in="shadowMatrixInner2"/>
      </feMerge>
    </filter>
    <polygon id="deepin-devicemanager-g" points="14 16 90 16 90 83 14 83"/>
    <filter id="deepin-devicemanager-h" width="102.6%" height="103%" x="-1.3%" y="-1.5%" filterUnits="objectBoundingBox">
      <feOffset dy="-2" in="SourceAlpha" result="shadowOffsetInner1"/>
      <feComposite in="shadowOffsetInner1" in2="SourceAlpha" k2="-1" k3="1" operator="arithmetic" result="shadowInnerInner1"/>
      <feColorMatrix in="shadowInnerInner1" result="shadowMatrixInner1" values="0 0 0 0 0   0 0 0 0 0.0510136902   0 0 0 0 0.262143342  0 0 0 0.250573645 0"/>
      <feOffset dy="2" in="SourceAlpha" result="shadowOffsetInner2"/>
      <feComposite in="shadowOffsetInner2" in2="SourceAlpha" k2="-1" k3="1" operator="arithmetic" result="shadowInnerInner2"/>
      <feColorMatrix in="shadowInnerInner2" result="shadowMatrixInner2" values="0 0 0 0 0.838719512   0 0 0 0 1   0 0 0 0 0.9690462  0 0 0 0.568209135 0"/>
      <feMerge>
        <feMergeNode in="shadowMatrixInner1"/>
        <feMergeNode in="shadowMatrixInner2"/>
      </feMerge>
    </filter>
    <linearGradient id="deepin-devicemanager-i" x1="50%" x2="50%" y1=".523%" y2="100%">
      <stop offset="0%" stop-opacity=".8"/>
      <stop offset="99.472%" stop-opacity=".531"/>
    </linearGradient>
  </defs>
  <g fill="none" fill-rule="evenodd" filter="url(#deepin-devicemanager-a)" transform="translate(12 14)">
    <path fill="url(#deepin-devicemanager-b)" d="M101,0 C102.656854,-3.04359188e-16 104,1.34314575 104,3 L103.999992,26.07089 C100.607702,26.5561232 98,29.4735309 98,33 C98,36.5264691 100.607702,39.4438768 103.999992,39.92911 L104,97 C104,98.6568542 102.656854,100 101,100 L3,100 C1.34314575,100 2.02906125e-16,98.6568542 0,97 L0.000225081458,39.9290789 C3.39240949,39.4437524 6,36.5263939 6,33 C6,29.4736061 3.39240949,26.5562476 0.000225081458,26.0709211 L0,3 C-2.02906125e-16,1.34314575 1.34314575,3.04359188e-16 3,0 L101,0 Z M10.5,85 C8.56700338,85 7,86.5670034 7,88.5 C7,90.4329966 8.56700338,92 10.5,92 C12.4329966,92 14,90.4329966 14,88.5 C14,86.5670034 12.4329966,85 10.5,85 Z M94.5,85 C92.5670034,85 91,86.5670034 91,88.5 C91,90.4329966 92.5670034,92 94.5,92 C96.4329966,92 98,90.4329966 98,88.5 C98,86.5670034 96.4329966,85 94.5,85 Z M10.5,9 C8.56700338,9 7,10.5670034 7,12.5 C7,14.4329966 8.56700338,16 10.5,16 C12.4329966,16 14,14.4329966 14,12.5 C14,10.5670034 12.4329966,9 10.5,9 Z M94.5,9 C92.5670034,9 91,10.5670034 91,12.5 C91,14.4329966 92.5670034,16 94.5,16 C96.4329966,16 98,14.4329966 98,12.5 C98,10.5670034 96.4329966,9 94.5,9 Z"/>
    <path fill="#2D2D2D" d="M101,2 C102.656854,2 104,3.34314575 104,5 L103.999992,26.07089 C100.607702,26.5561232 98,29.4735309 98,33 C98,36.5264691 100.607702,39.4438768 103.999992,39.92911 L104,95 C104,96.6568542 102.656854,98 101,98 L3,98 C1.34314575,98 2.02906125e-16,96.6568542 0,95 L0.000225081458,39.9290789 C3.39240949,39.4437524 6,36.5263939 6,33 C6,29.4736061 3.39240949,26.5562476 0.000225081458,26.0709211 L0,5 C-2.02906125e-16,3.34314575 1.34314575,2 3,2 L101,2 Z M10.5,85 C8.56700338,85 7,86.5670034 7,88.5 C7,90.4329966 8.56700338,92 10.5,92 C12.4329966,92 14,90.4329966 14,88.5 C14,86.5670034 12.4329966,85 10.5,85 Z M94.5,85 C92.5670034,85 91,86.5670034 91,88.5 C91,90.4329966 92.5670034,92 94.5,92 C96.4329966,92 98,90.4329966 98,88.5 C98,86.5670034 96.4329966,85 94.5,85 Z M10.5,9 C8.56700338,9 7,10.5670034 7,12.5 C7,14.4329966 8.56700338,16 10.5,16 C12.4329966,16 14,14.4329966 14,12.5 C14,10.5670034 12.4329966,9 10.5,9 Z M94.5,9 C92.5670034,9 91,10.5670034 91,12.5 C91,14.4329966 92.5670034,16 94.5,16 C96.4329966,16 98,14.4329966 98,12.5 C98,10.5670034 96.4329966,9 94.5,9 Z"/>
    <use fill="#F2DA3A" xlink:href="#deepin-devicemanager-c"/>
    <use fill="#000" filter="url(#deepin-devicemanager-d)" xlink:href="#deepin-devicemanager-c"/>
    <use fill="#000" fill-opacity=".35" xlink:href="#deepin-devicemanager-e"/>
    <use fill="#000" filter="url(#deepin-devicemanager-f)" xlink:href="#deepin-devicemanager-e"/>
    <use fill="#85CCF5" xlink:href="#deepin-devicemanager-g"/>
    <use fill="#000" filter="url(#deepin-devicemanager-h)" xlink:href="#deepin-devicemanager-g"/>
    <path fill="#000" fill-opacity=".33" fill-rule="nonzero" d="M33.6778443,26.7623762 L33.6778443,25.330033 C33.6778443,24.7777483 33.230129,24.330033 32.6778443,24.330033 L31,24.330033 C30.4477153,24.330033 30,24.7777483 30,25.330033 L30,26.7623762 C30,27.314661 30.4477153,27.7623762 31,27.7623762 L32.6778443,27.7623762 C33.230129,27.7623762 33.6778443,27.314661 33.6778443,26.7623762 Z M33.6778443,42.6831683 L33.6778443,30.6633663 C33.6778443,30.1110816 33.230129,29.6633663 32.6778443,29.6633663 L31,29.6633663 C30.4477153,29.6633663 30,30.1110816 30,30.6633663 L30,42.6831683 C30,43.2354531 30.4477153,43.6831683 31,43.6831683 L32.6778443,43.6831683 C33.230129,43.6831683 33.6778443,43.2354531 33.6778443,42.6831683 Z M41.3518529,42.6831683 L41.3518529,37.3333333 L41.3518529,37.3333333 C41.3518529,35.7667767 41.4456532,34.6930693 41.6332538,34.1122112 C41.8208544,33.5313531 42.1676974,33.0649065 42.6737827,32.7128713 C43.179868,32.3608361 43.7513954,32.1848185 44.3883649,32.1848185 C44.8857246,32.1848185 45.3110981,32.3080308 45.6644853,32.5544554 C46.0178724,32.8008801 46.2730965,33.1463146 46.4301575,33.5907591 C46.5872184,34.0352035 46.6657489,35.0143014 46.6657489,36.5280528 L46.6657489,42.6831683 C46.6657489,43.2354531 47.1134642,43.6831683 47.6657489,43.6831683 L49.3435932,43.6831683 C49.8958779,43.6831683 50.3435932,43.2354531 50.3435932,42.6831683 L50.3435932,34.970297 L50.3435932,34.970297 C50.3435932,33.8877888 50.2759697,33.0561056 50.1407228,32.4752475 C50.0054758,31.8943894 49.7655216,31.3751375 49.42086,30.9174917 C49.0761985,30.459846 48.5679317,30.0836084 47.8960598,29.7887789 C47.2241879,29.4939494 46.4825111,29.3465347 45.6710295,29.3465347 C43.8299259,29.3465347 42.3029443,30.1386139 41.0900846,31.7227723 L41.0900846,30.6633663 C41.0900846,30.1110816 40.6423694,29.6633663 40.0900846,29.6633663 L38.6740086,29.6633663 C38.1217239,29.6633663 37.6740086,30.1110816 37.6740086,30.6633663 L37.6740086,42.6831683 C37.6740086,43.2354531 38.1217239,43.6831683 38.6740086,43.6831683 L40.3518529,43.6831683 C40.9041377,43.6831683 41.3518529,43.2354531 41.3518529,42.6831683 Z M58.4364311,42.6831683 L58.4364311,32.5808581 L58.4364311,32.5808581 L60.684998,32.5808581 C60.9611404,32.5808581 61.184998,32.3570005 61.184998,32.0808581 L61.184998,30.1633663 C61.184998,29.887224 60.9611404,29.6633663 60.684998,29.6633663 L58.4364311,29.6633663 L58.4364311,29.6633663 L58.4364311,28.6732673 C58.4364311,27.960396 58.5520454,27.4785479 58.783274,27.2277228 C59.0145027,26.9768977 59.3962481,26.8514851 59.9285103,26.8514851 C60.469498,26.8514851 61.0322998,26.9218922 61.6169156,27.0627063 L62.1142754,24.4752475 C61.1108303,24.1584158 60.0855712,24 59.0384981,24 C58.0176018,24 57.1733992,24.1826183 56.50589,24.5478548 C55.8383809,24.9130913 55.3802865,25.3861386 55.1316066,25.9669967 C54.8829267,26.5478548 54.7585868,27.4279428 54.7585868,28.6072607 L54.7585868,29.6633663 L53.2167943,29.6633663 C52.9406519,29.6633663 52.7167943,29.887224 52.7167943,30.1633663 L52.7167943,32.0808581 C52.7167943,32.3570005 52.9406519,32.5808581 53.2167943,32.5808581 L54.7585868,32.5808581 L54.7585868,32.5808581 L54.7585868,42.6831683 C54.7585868,43.2354531 55.2063021,43.6831683 55.7585868,43.6831683 L57.4364311,43.6831683 C57.9887158,43.6831683 58.4364311,43.2354531 58.4364311,42.6831683 Z M69.8406377,44 C71.8998814,44 73.6079194,43.3025303 74.9647517,41.9075908 C76.3215839,40.5126513 77,38.7546755 77,36.6336634 C77,34.530253 76.3281281,32.789879 74.9843843,31.4125413 C73.6406405,30.0352035 71.9173326,29.3465347 69.8144608,29.3465347 C68.4532658,29.3465347 67.2207735,29.650165 66.1169839,30.2574257 C65.0131944,30.8646865 64.1602661,31.7447745 63.558199,32.8976898 C62.956132,34.0506051 62.6550985,35.2431243 62.6550985,36.4752475 C62.6550985,38.0858086 62.956132,39.4521452 63.558199,40.5742574 C64.1602661,41.6963696 65.0393712,42.5478548 66.1955144,43.1287129 C67.3516576,43.709571 68.5666987,44 69.8406377,44 Z M69.8275492,40.9768977 C68.8677322,40.9768977 68.0606134,40.6072607 67.4061927,39.8679868 C66.751772,39.1287129 66.4245617,38.0638064 66.4245617,36.6732673 C66.4245617,35.2827283 66.751772,34.2178218 67.4061927,33.4785479 C68.0606134,32.7392739 68.8677322,32.369637 69.8275492,32.369637 C70.7873663,32.369637 71.5923037,32.7392739 72.2423616,33.4785479 C72.8924195,34.2178218 73.2174484,35.2739274 73.2174484,36.6468647 C73.2174484,38.0550055 72.8924195,39.1287129 72.2423616,39.8679868 C71.5923037,40.6072607 70.7873663,40.9768977 69.8275492,40.9768977 Z"/>
    <path fill="url(#deepin-devicemanager-i)" d="M33,71 C33.8284271,71 34.5,71.6715729 34.5,72.5 C34.5,73.3284271 33.8284271,74 33,74 L27.5,74 C26.6715729,74 26,73.3284271 26,72.5 C26,71.6715729 26.6715729,71 27.5,71 L33,71 Z M45.5,71 C46.3284271,71 47,71.6715729 47,72.5 C47,73.3284271 46.3284271,74 45.5,74 L42.5,74 C41.6715729,74 41,73.3284271 41,72.5 C41,71.6715729 41.6715729,71 42.5,71 L45.5,71 Z M68.5,71 C69.3284271,71 70,71.6715729 70,72.5 C70,73.3284271 69.3284271,74 68.5,74 L50.5,74 C49.6715729,74 49,73.3284271 49,72.5 C49,71.6715729 49.6715729,71 50.5,71 L68.5,71 Z M37.5,66 C38.3284271,66 39,66.6715729 39,67.5 C39,68.3284271 38.3284271,69 37.5,69 L27.5,69 C26.6715729,69 26,68.3284271 26,67.5 C26,66.6715729 26.6715729,66 27.5,66 L37.5,66 Z M56.5,66 C57.3284271,66 58,66.6715729 58,67.5 C58,68.3284271 57.3284271,69 56.5,69 L42.5,69 C41.6715729,69 41,68.3284271 41,67.5 C41,66.6715729 41.6715729,66 42.5,66 L56.5,66 Z M74.5,66 C75.3284271,66 76,66.6715729 76,67.5 C76,68.3284271 75.3284271,69 74.5,69 L61.5,69 C60.6715729,69 60,68.3284271 60,67.5 C60,66.6715729 60.6715729,66 61.5,66 L74.5,66 Z M35.5,61 C36.3284271,61 37,61.6715729 37,62.5 C37,63.3284271 36.3284271,64 35.5,64 L27.5,64 C26.6715729,64 26,63.3284271 26,62.5 C26,61.6715729 26.6715729,61 27.5,61 L35.5,61 Z M67.5,61 C68.3284271,61 69,61.6715729 69,62.5 C69,63.3284271 68.3284271,64 67.5,64 L42.5,64 C41.6715729,64 41,63.3284271 41,62.5 C41,61.6715729 41.6715729,61 42.5,61 L67.5,61 Z M32.5,56 C33.3284271,56 34,56.6715729 34,57.5 C34,58.3284271 33.3284271,59 32.5,59 L27.5,59 C26.6715729,59 26,58.3284271 26,57.5 C26,56.6715729 26.6715729,56 27.5,56 L32.5,56 Z M49.5,56 C50.3284271,56 51,56.6715729 51,57.5 C51,58.3284271 50.3284271,59 49.5,59 L42.5,59 C41.6715729,59 41,58.3284271 41,57.5 C41,56.6715729 41.6715729,56 42.5,56 L49.5,56 Z M69.5,56 C70.3284271,56 71,56.6715729 71,57.5 C71,58.3284271 70.3284271,59 69.5,59 L54.5,59 C53.6715729,59 53,58.3284271 53,57.5 C53,56.6715729 53.6715729,56 54.5,56 L69.5,56 Z M79.5,56 C80.3284271,56 81,56.6715729 81,57.5 C81,58.3284271 80.3284271,59 79.5,59 L74.5,59 C73.6715729,59 73,58.3284271 73,57.5 C73,56.6715729 73.6715729,56 74.5,56 L79.5,56 Z M35.5,51 C36.3284271,51 37,51.6715729 37,52.5 C37,53.3284271 36.3284271,54 35.5,54 L27.5,54 C26.6715729,54 26,53.3284271 26,52.5 C26,51.6715729 26.6715729,51 27.5,51 L35.5,51 Z M56.5,51 C57.3284271,51 58,51.6715729 58,52.5 C58,53.3284271 57.3284271,54 56.5,54 L42.5,54 C41.6715729,54 41,53.3284271 41,52.5 C41,51.6715729 41.6715729,51 42.5,51 L56.5,51 Z M72.5,51 C73.3284271,51 74,51.6715729 74,52.5 C74,53.3284271 73.3284271,54 72.5,54 L61.5,54 C60.6715729,54 60,53.3284271 60,52.5 C60,51.6715729 60.6715729,51 61.5,51 L72.5,51 Z" opacity=".229"/>
  </g>
</svg>
