<svg xmlns="http://www.w3.org/2000/svg" xmlns:xlink="http://www.w3.org/1999/xlink" width="128" height="128" viewBox="0 0 128 128">
  <defs>
    <filter id="deepin-diskmanager-a" width="135.6%" height="129.6%" x="-17.8%" y="-14.8%" filterUnits="objectBoundingBox">
      <feOffset dy="2" in="SourceAlpha" result="shadowOffsetOuter1"/>
      <feGaussianBlur in="shadowOffsetOuter1" result="shadowBlurOuter1" stdDeviation="3"/>
      <feColorMatrix in="shadowBlurOuter1" result="shadowMatrixOuter1" values="0 0 0 0 0   0 0 0 0 0   0 0 0 0 0  0 0 0 0.2 0"/>
      <feMerge>
        <feMergeNode in="shadowMatrixOuter1"/>
        <feMergeNode in="SourceGraphic"/>
      </feMerge>
    </filter>
    <path id="deepin-diskmanager-b" d="M3,0 L87,0 C88.6568542,-3.04359188e-16 90,1.34314575 90,3 L90,103 C90,104.656854 88.6568542,106 87,106 L3,106 C1.34314575,106 2.02906125e-16,104.656854 0,103 L0,3 C-2.02906125e-16,1.34314575 1.34314575,3.04359188e-16 3,0 Z"/>
    <filter id="deepin-diskmanager-c" width="102.2%" height="101.9%" x="-1.1%" y="-.9%" filterUnits="objectBoundingBox">
      <feOffset dy="2" in="SourceAlpha" result="shadowOffsetInner1"/>
      <feComposite in="shadowOffsetInner1" in2="SourceAlpha" k2="-1" k3="1" operator="arithmetic" result="shadowInnerInner1"/>
      <feColorMatrix in="shadowInnerInner1" values="0 0 0 0 1   0 0 0 0 1   0 0 0 0 1  0 0 0 0.596754808 0"/>
    </filter>
    <path id="deepin-diskmanager-e" d="M55.5,87 C56.3284271,87 57,87.6715729 57,88.5 L57,100.5 C57,101.328427 56.3284271,102 55.5,102 C54.6715729,102 54,101.328427 54,100.5 L54,88.5 C54,87.6715729 54.6715729,87 55.5,87 Z M60.5,87 C61.3284271,87 62,87.6715729 62,88.5 L62,100.5 C62,101.328427 61.3284271,102 60.5,102 C59.6715729,102 59,101.328427 59,100.5 L59,88.5 C59,87.6715729 59.6715729,87 60.5,87 Z M65.5,87 C66.3284271,87 67,87.6715729 67,88.5 L67,100.5 C67,101.328427 66.3284271,102 65.5,102 C64.6715729,102 64,101.328427 64,100.5 L64,88.5 C64,87.6715729 64.6715729,87 65.5,87 Z M70.5,87 C71.3284271,87 72,87.6715729 72,88.5 L72,100.5 C72,101.328427 71.3284271,102 70.5,102 C69.6715729,102 69,101.328427 69,100.5 L69,88.5 C69,87.6715729 69.6715729,87 70.5,87 Z M75.5,87 C76.3284271,87 77,87.6715729 77,88.5 L77,100.5 C77,101.328427 76.3284271,102 75.5,102 C74.6715729,102 74,101.328427 74,100.5 L74,88.5 C74,87.6715729 74.6715729,87 75.5,87 Z"/>
    <filter id="deepin-diskmanager-d" width="104.3%" height="113.3%" x="-2.2%" y="-3.3%" filterUnits="objectBoundingBox">
      <feOffset dy="1" in="SourceAlpha" result="shadowOffsetOuter1"/>
      <feColorMatrix in="shadowOffsetOuter1" values="0 0 0 0 1   0 0 0 0 1   0 0 0 0 1  0 0 0 0.5 0"/>
    </filter>
    <filter id="deepin-diskmanager-f" width="104.3%" height="113.3%" x="-2.2%" y="-3.3%" filterUnits="objectBoundingBox">
      <feOffset dy="1" in="SourceAlpha" result="shadowOffsetInner1"/>
      <feComposite in="shadowOffsetInner1" in2="SourceAlpha" k2="-1" k3="1" operator="arithmetic" result="shadowInnerInner1"/>
      <feColorMatrix in="shadowInnerInner1" values="0 0 0 0 0   0 0 0 0 0   0 0 0 0 0  0 0 0 0.2 0"/>
    </filter>
    <path id="deepin-diskmanager-h" d="M90,46.5 L90,59.5 L90,59.5 C86.4101491,59.5 83.5,56.5898509 83.5,53 C83.5,49.4101491 86.4101491,46.5 90,46.5 Z"/>
    <filter id="deepin-diskmanager-g" width="115.4%" height="115.4%" x="-7.7%" y="-3.8%" filterUnits="objectBoundingBox">
      <feOffset dy="1" in="SourceAlpha" result="shadowOffsetOuter1"/>
      <feColorMatrix in="shadowOffsetOuter1" values="0 0 0 0 1   0 0 0 0 1   0 0 0 0 1  0 0 0 0.5 0"/>
    </filter>
    <path id="deepin-diskmanager-j" d="M6.5,46.5 L6.5,59.5 L6.5,59.5 C2.91014913,59.5 0,56.5898509 0,53 C0,49.4101491 2.91014913,46.5 6.5,46.5 Z"/>
    <filter id="deepin-diskmanager-i" width="115.4%" height="115.4%" x="-7.7%" y="-3.8%" filterUnits="objectBoundingBox">
      <feOffset dy="1" in="SourceAlpha" result="shadowOffsetOuter1"/>
      <feColorMatrix in="shadowOffsetOuter1" values="0 0 0 0 1   0 0 0 0 1   0 0 0 0 1  0 0 0 0.5 0"/>
    </filter>
    <path id="deepin-diskmanager-l" d="M84,96.5 C85.3807119,96.5 86.5,97.6192881 86.5,99 C86.5,100.380712 85.3807119,101.5 84,101.5 C82.6192881,101.5 81.5,100.380712 81.5,99 C81.5,97.6192881 82.6192881,96.5 84,96.5 Z M6,96.5 C7.38071187,96.5 8.5,97.6192881 8.5,99 C8.5,100.380712 7.38071187,101.5 6,101.5 C4.61928813,101.5 3.5,100.380712 3.5,99 C3.5,97.6192881 4.61928813,96.5 6,96.5 Z M84,4.5 C85.3807119,4.5 86.5,5.61928813 86.5,7 C86.5,8.38071187 85.3807119,9.5 84,9.5 C82.6192881,9.5 81.5,8.38071187 81.5,7 C81.5,5.61928813 82.6192881,4.5 84,4.5 Z M6,4.5 C7.38071187,4.5 8.5,5.61928813 8.5,7 C8.5,8.38071187 7.38071187,9.5 6,9.5 C4.61928813,9.5 3.5,8.38071187 3.5,7 C3.5,5.61928813 4.61928813,4.5 6,4.5 Z"/>
    <filter id="deepin-diskmanager-k" width="101.2%" height="102.1%" x="-.6%" y="-.5%" filterUnits="objectBoundingBox">
      <feOffset dy="1" in="SourceAlpha" result="shadowOffsetOuter1"/>
      <feColorMatrix in="shadowOffsetOuter1" values="0 0 0 0 1   0 0 0 0 1   0 0 0 0 1  0 0 0 0.5 0"/>
    </filter>
    <path id="deepin-diskmanager-m" d="M34,27 C37.8659932,27 41,30.1340068 41,34 C41,37.8659932 37.8659932,41 34,41 C30.1340068,41 27,37.8659932 27,34 C27,30.1340068 30.1340068,27 34,27 Z M34,31.6666667 C32.7113356,31.6666667 31.6666667,32.7113356 31.6666667,34 C31.6666667,35.2886644 32.7113356,36.3333333 34,36.3333333 C35.2886644,36.3333333 36.3333333,35.2886644 36.3333333,34 C36.3333333,32.7113356 35.2886644,31.6666667 34,31.6666667 Z"/>
    <filter id="deepin-diskmanager-n" width="107.1%" height="107.1%" x="-3.6%" y="-3.6%" filterUnits="objectBoundingBox">
      <feOffset dy="1" in="SourceAlpha" result="shadowOffsetInner1"/>
      <feComposite in="shadowOffsetInner1" in2="SourceAlpha" k2="-1" k3="1" operator="arithmetic" result="shadowInnerInner1"/>
      <feColorMatrix in="shadowInnerInner1" values="0 0 0 0 1   0 0 0 0 1   0 0 0 0 1  0 0 0 0.5 0"/>
    </filter>
    <linearGradient id="deepin-diskmanager-o" x1="97.247%" x2="6.271%" y1="3.756%" y2="92.217%">
      <stop offset="0%" stop-color="#F7F9FB"/>
      <stop offset="100%" stop-color="#ECF1F6"/>
    </linearGradient>
    <path id="deepin-diskmanager-p" d="M13.3655491,36.0291112 L38.9142303,4.01344224 C39.2794395,3.58494867 39.5,3.03510571 39.5,2.4352147 C39.5,1.09260149 38.3934946,0 37.0300928,0 C36.4225679,0 35.8657278,0.214361054 35.435253,0.578409197 L3.00869504,25.8060542 C1.18241715,27.1379266 0,29.2769666 0,31.6870429 C0,35.72928 3.31604481,39 7.40601856,39 C9.85069901,39 12.016728,37.8324407 13.3655491,36.0291112 Z"/>
    <filter id="deepin-diskmanager-q" width="102.5%" height="102.6%" x="-1.3%" y="-1.3%" filterUnits="objectBoundingBox">
      <feOffset dy="1" in="SourceAlpha" result="shadowOffsetInner1"/>
      <feComposite in="shadowOffsetInner1" in2="SourceAlpha" k2="-1" k3="1" operator="arithmetic" result="shadowInnerInner1"/>
      <feColorMatrix in="shadowInnerInner1" values="0 0 0 0 1   0 0 0 0 1   0 0 0 0 1  0 0 0 0.942198427 0"/>
    </filter>
  </defs>
  <g fill="none" fill-rule="evenodd" filter="url(#deepin-diskmanager-a)" transform="translate(19 11)">
    <path fill="#004675" d="M3,2 L87,2 C88.6568542,2 90,3.34314575 90,5 L90,105 C90,106.656854 88.6568542,108 87,108 L3,108 C1.34314575,108 2.02906125e-16,106.656854 0,105 L0,5 C-2.02906125e-16,3.34314575 1.34314575,2 3,2 Z"/>
    <use fill="#D8F0FF" xlink:href="#deepin-diskmanager-b"/>
    <use fill="#000" filter="url(#deepin-diskmanager-c)" xlink:href="#deepin-diskmanager-b"/>
    <use fill="#000" filter="url(#deepin-diskmanager-d)" xlink:href="#deepin-diskmanager-e"/>
    <use fill="#006FBF" xlink:href="#deepin-diskmanager-e"/>
    <use fill="#000" filter="url(#deepin-diskmanager-f)" xlink:href="#deepin-diskmanager-e"/>
    <path fill="#1F8AFF" d="M10.299877,69 C16.1705391,75.994686 21.2372468,80.5659751 25.5,82.7138672 C31.4877442,85.730938 39.3210775,87.6222502 49,88.3878039 L49,106 L3,106 C1.34314575,106 6.46995335e-16,104.656854 0,103 L0,69 L0,69 L10.299877,69 Z"/>
    <use fill="#000" filter="url(#deepin-diskmanager-g)" xlink:href="#deepin-diskmanager-h"/>
    <use fill="#006FBF" xlink:href="#deepin-diskmanager-h"/>
    <g transform="matrix(-1 0 0 1 6.5 0)">
      <use fill="#000" filter="url(#deepin-diskmanager-i)" xlink:href="#deepin-diskmanager-j"/>
      <use fill="#006FBF" xlink:href="#deepin-diskmanager-j"/>
    </g>
    <use fill="#000" filter="url(#deepin-diskmanager-k)" xlink:href="#deepin-diskmanager-l"/>
    <use fill="#006FBF" xlink:href="#deepin-diskmanager-l"/>
    <g transform="translate(11 5.5)">
      <circle cx="34" cy="34" r="34" fill="#0093F6"/>
      <g transform="translate(5 5)">
        <circle cx="29" cy="29" r="29" fill="#004675"/>
        <path fill="#FFF" fill-opacity=".198" fill-rule="nonzero" d="M28.1762963,30.6254866 L56.3778977,38.5869252 C54.7025073,43.3717274 51.8082324,47.5837985 48.0673811,50.8508309 L28.1762963,30.6254866 Z M7.4704675,9.57082383 L28.1762963,30.6254866 L0.652115442,22.8560149 C1.73940347,17.8155376 4.13690998,13.2624181 7.4704675,9.57082383 Z"/>
      </g>
      <circle cx="11.5" cy="11.5" r="11.5" fill="#003050" transform="translate(22.5 22.5)"/>
      <use fill="#D9D9D9" xlink:href="#deepin-diskmanager-m"/>
      <use fill="#000" filter="url(#deepin-diskmanager-n)" xlink:href="#deepin-diskmanager-m"/>
    </g>
    <g transform="translate(14 56)">
      <path fill="#000" fill-opacity=".296" fill-rule="nonzero" d="M13.8655491,37.0291112 L39.4142303,5.01344224 C39.7794395,4.58494867 40,4.03510571 40,3.4352147 C40,2.09260149 38.8934946,1 37.5300928,1 C36.9225679,1 36.3657278,1.21436105 35.935253,1.5784092 L3.50869504,26.8060542 C1.68241715,28.1379266 0.5,30.2769666 0.5,32.6870429 C0.5,36.72928 3.81604481,40 7.90601856,40 C10.350699,40 12.516728,38.8324407 13.8655491,37.0291112 Z"/>
      <g fill-rule="nonzero">
        <use fill="url(#deepin-diskmanager-o)" xlink:href="#deepin-diskmanager-p"/>
        <use fill="#000" filter="url(#deepin-diskmanager-q)" xlink:href="#deepin-diskmanager-p"/>
      </g>
      <circle cx="7" cy="32" r="4.5" fill="#0093F6"/>
    </g>
  </g>
</svg>
