<svg xmlns="http://www.w3.org/2000/svg" xmlns:xlink="http://www.w3.org/1999/xlink" width="128" height="128" viewBox="0 0 128 128">
  <defs>
    <filter id="deepin-defender-a" width="128.6%" height="128.6%" x="-14.3%" y="-14.3%" filterUnits="objectBoundingBox">
      <feOffset dy="2" in="SourceAlpha" result="shadowOffsetOuter1"/>
      <feGaussianBlur in="shadowOffsetOuter1" result="shadowBlurOuter1" stdDeviation="3"/>
      <feColorMatrix in="shadowBlurOuter1" result="shadowMatrixOuter1" values="0 0 0 0 0   0 0 0 0 0   0 0 0 0 0  0 0 0 0.2 0"/>
      <feMerge>
        <feMergeNode in="shadowMatrixOuter1"/>
        <feMergeNode in="SourceGraphic"/>
      </feMerge>
    </filter>
    <path id="deepin-defender-c" d="M66.0153489,10.8334279 C65.8848762,9.86954638 65.2194764,9.05765595 64.2902222,8.72813013 L34.948846,0.31139065 C33.6833365,-0.132075386 32.4780534,-0.0745223272 31.4920205,0.31139065 L2.1505367,8.72813006 C1.22085158,9.05765588 0.555882651,9.86965232 0.425409944,10.8334278 C0.359796484,11.3182303 -1.14564916,22.8617021 1.93214849,36.0542867 C3.76113622,43.8934816 6.83850288,50.6810345 11.0794574,56.2285996 C16.3288546,63.0952217 23.3461513,68.0357768 31.9418334,70.9224396 C32.6543155,71.2064953 33.4332729,71.3364402 34.4983867,70.9224396 C43.0940688,68.0358827 50.1119041,63.0952217 55.3613014,56.2285996 C59.601825,50.6810345 62.6796226,43.8934816 64.5086103,36.0542867 C67.5865157,22.8617021 66.0806391,11.3182304 66.0153489,10.8334279 L66.0153489,10.8334279 Z"/>
    <filter id="deepin-defender-b" width="103%" height="105.6%" x="-1.5%" y="-1.4%" filterUnits="objectBoundingBox">
      <feOffset dy="2" in="SourceAlpha" result="shadowOffsetOuter1"/>
      <feColorMatrix in="shadowOffsetOuter1" values="0 0 0 0 0   0 0 0 0 0   0 0 0 0 0  0 0 0 0.102381993 0"/>
    </filter>
    <filter id="deepin-defender-d" width="103%" height="105.6%" x="-1.5%" y="-1.4%" filterUnits="objectBoundingBox">
      <feOffset dy="2" in="SourceAlpha" result="shadowOffsetInner1"/>
      <feComposite in="shadowOffsetInner1" in2="SourceAlpha" k2="-1" k3="1" operator="arithmetic" result="shadowInnerInner1"/>
      <feColorMatrix in="shadowInnerInner1" values="0 0 0 0 1   0 0 0 0 1   0 0 0 0 1  0 0 0 0.5 0"/>
    </filter>
    <path id="deepin-defender-f" d="M26.7979376,18.593331 C27.3345994,16.6215349 29.4812466,15.1864407 31.4490065,15.1864407 L36.8156245,15.1864407 C38.7833844,15.1864407 39.6778207,16.6215349 38.9622717,18.4144304 L35.0197119,28.4745763 L42.7118644,28.4745763 C46.6473843,28.4745763 47.7207079,30.9869634 45.2162861,33.8571518 L27.87515,54.1089961 C26.6229392,55.5440903 25.9073901,55.3651896 26.4440519,53.3933935 L30.3728814,37.9661017 L24.111827,37.9661017 C22.1440671,37.9661017 21.0707435,36.5310075 21.6074053,34.5592113 L26.7979376,18.593331 Z"/>
    <filter id="deepin-defender-e" width="108%" height="110%" x="-4%" y="-2.5%" filterUnits="objectBoundingBox">
      <feOffset dy="2" in="SourceAlpha" result="shadowOffsetOuter1"/>
      <feColorMatrix in="shadowOffsetOuter1" values="0 0 0 0 0   0 0 0 0 0   0 0 0 0 0  0 0 0 0.102190778 0"/>
    </filter>
  </defs>
  <g fill="none" fill-rule="evenodd" filter="url(#deepin-defender-a)" transform="translate(8 8)">
    <rect width="112" height="112" fill="#0081FF" rx="56"/>
    <path fill="#DBF0FC" fill-rule="nonzero" d="M56,0 C86.927946,0 112,25.072054 112,56 C112,86.927946 86.927946,112 56,112 C25.072054,112 0,86.927946 0,56 C0,25.072054 25.072054,0 56,0 Z M56,5 C27.8334778,5 5,27.8334778 5,56 C5,84.1665222 27.8334778,107 56,107 C84.1665222,107 107,84.1665222 107,56 C107,27.8334778 84.1665222,5 56,5 Z"/>
    <g transform="translate(4.746 4.746)">
      <circle cx="51.254" cy="51.254" r="29.424" stroke="#7DF3FF" opacity=".3"/>
      <path fill="#C7E4F4" fill-rule="nonzero" d="M51.7288136,12.7881356 C30.7452558,12.7881356 13.7372881,30.011394 13.7372881,51.2542373 C13.7372881,72.4970806 30.7452558,89.720339 51.7288136,89.720339 C72.7123713,89.720339 89.720339,72.4970806 89.720339,51.2542373 C89.720339,30.011394 72.7123713,12.7881356 51.7288136,12.7881356 Z M51.7288136,13.7881356 C72.1572513,13.7881356 88.720339,30.5608826 88.720339,51.2542373 C88.720339,71.9475919 72.1572513,88.720339 51.7288136,88.720339 C31.3003758,88.720339 14.7372881,71.9475919 14.7372881,51.2542373 C14.7372881,30.5608826 31.3003758,13.7881356 51.7288136,13.7881356 Z" opacity=".201"/>
      <path fill="#C7E4F4" fill-rule="nonzero" d="M51.2542373,3.74576271 C25.0160313,3.74576271 3.74576271,25.0160313 3.74576271,51.2542373 C3.74576271,77.4924433 25.0160313,98.7627119 51.2542373,98.7627119 C77.4924433,98.7627119 98.7627119,77.4924433 98.7627119,51.2542373 C98.7627119,25.0160313 77.4924433,3.74576271 51.2542373,3.74576271 Z M51.2542373,4.74576271 C76.9401585,4.74576271 97.7627119,25.568316 97.7627119,51.2542373 C97.7627119,76.9401585 76.9401585,97.7627119 51.2542373,97.7627119 C25.568316,97.7627119 4.74576271,76.9401585 4.74576271,51.2542373 C4.74576271,25.568316 25.568316,4.74576271 51.2542373,4.74576271 Z" opacity=".201"/>
      <path fill="#C7E4F4" fill-rule="nonzero" d="M51.2542373,0 C51.5714759,0 51.8880414,0.00288216077 52.203909,0.00862172588 L52.2025424,50.3123898 L87.5004309,15.0159938 C87.7243594,15.2399712 87.9462249,15.4660112 88.1659964,15.694083 L52.6035424,51.2533898 L102.508475,51.2542373 C102.508475,51.5714759 102.505592,51.8880414 102.499853,52.203909 L52.2025424,52.2023898 L52.2025424,52.3463898 L87.4239682,87.5688 C87.19989,87.7919901 86.9737581,88.0131199 86.7456034,88.2321585 L52.2025424,53.6883898 L52.203909,102.499853 C51.8880414,102.505592 51.5714759,102.508475 51.2542373,102.508475 L51.2542373,102.508475 L51.2535424,52.7393898 L51.1862485,52.6722511 L15.694083,88.1659964 C15.4660112,87.9462249 15.2399712,87.7243594 15.0159938,87.5004309 L50.3125424,52.2023898 L0.00862172588,52.203909 C0.00288216077,51.8880414 0,51.5714759 0,51.2542373 L0,51.2542373 L49.7675424,51.2533898 L14.276316,15.7628712 C14.4953124,15.5347604 14.7163992,15.3086717 14.9395455,15.0846359 L51.1095424,51.2533898 L51.2535424,51.2533898 Z" opacity=".201"/>
    </g>
    <g transform="translate(22.78 21.83)">
      <use fill="#000" filter="url(#deepin-defender-b)" xlink:href="#deepin-defender-c"/>
      <use fill="#DBF0FC" xlink:href="#deepin-defender-c"/>
      <use fill="#000" filter="url(#deepin-defender-d)" xlink:href="#deepin-defender-c"/>
      <g fill-rule="nonzero">
        <use fill="#000" filter="url(#deepin-defender-e)" xlink:href="#deepin-defender-f"/>
        <use fill="#1284FE" xlink:href="#deepin-defender-f"/>
      </g>
    </g>
  </g>
</svg>
