<svg xmlns="http://www.w3.org/2000/svg" xmlns:xlink="http://www.w3.org/1999/xlink" width="128" height="128" viewBox="0 0 128 128">
  <defs>
    <filter id="deepin-font-manager-a" width="133.3%" height="129.1%" x="-16.7%" y="-14.5%" filterUnits="objectBoundingBox">
      <feOffset dy="2" in="SourceAlpha" result="shadowOffsetOuter1"/>
      <feGaussianBlur in="shadowOffsetOuter1" result="shadowBlurOuter1" stdDeviation="3"/>
      <feColorMatrix in="shadowBlurOuter1" result="shadowMatrixOuter1" values="0 0 0 0 0   0 0 0 0 0   0 0 0 0 0  0 0 0 0.2 0"/>
      <feMerge>
        <feMergeNode in="shadowMatrixOuter1"/>
        <feMergeNode in="SourceGraphic"/>
      </feMerge>
    </filter>
    <linearGradient id="deepin-font-manager-b" x1="50%" x2="50%" y1="-7.446%" y2="100%">
      <stop offset="0%" stop-color="#E6D4FF"/>
      <stop offset="100%" stop-color="#AFA2FF"/>
    </linearGradient>
    <path id="deepin-font-manager-d" d="M22.497942,83.0458984 L22.497942,82.0454607 C26.6289193,82.0454607 29.9777381,78.696642 29.9777381,74.5656647 L29.9777381,22.0463361 L29.9777381,22.0463361 L22.497942,22.0463361 L22.497942,21.0458984 L69,21.0458984 L69,37.0529015 L68.5013469,37.0529015 C68.5013469,28.7650043 61.7826788,22.0463361 53.4947816,22.0463361 L39.9507996,22.0463361 L39.9507996,22.0463361 L39.9507996,50.0585915 L42.9967512,50.0585915 C48.7982792,50.0585915 53.5013469,45.3555238 53.5013469,39.5539957 L53.5013469,39.5539957 L53.5013469,39.5539957 L54,39.5539957 L54,64.0647192 L53.5013469,64.0647192 C53.5013469,57.7106646 48.350368,52.5596857 41.9963135,52.5596857 L39.9507996,52.5596857 L39.9507996,52.5596857 L39.9507996,74.5656647 C39.9507996,78.696642 43.2996183,82.0454607 47.4305957,82.0454607 L47.4305957,82.0454607 L47.4305957,82.0454607 L47.4305957,83.0458984 L22.497942,83.0458984 Z"/>
    <filter id="deepin-font-manager-c" width="102.2%" height="103.2%" x="-1.1%" y="-.8%" filterUnits="objectBoundingBox">
      <feOffset dy="1" in="SourceAlpha" result="shadowOffsetOuter1"/>
      <feColorMatrix in="shadowOffsetOuter1" values="0 0 0 0 0   0 0 0 0 0   0 0 0 0 0  0 0 0 0.199328016 0"/>
    </filter>
  </defs>
  <g fill="none" fill-rule="evenodd" filter="url(#deepin-font-manager-a)" transform="translate(16 9)">
    <path fill="url(#deepin-font-manager-b)" d="M4,0 L92,0 C94.209139,-4.05812251e-16 96,1.790861 96,4 L96,106 C96,108.209139 94.209139,110 92,110 L4,110 C1.790861,110 2.705415e-16,108.209139 0,106 L0,4 C-2.705415e-16,1.790861 1.790861,4.05812251e-16 4,0 Z"/>
    <path fill="#8378CC" fill-rule="nonzero" d="M4,100 L81.5041585,100 L92.5,100 C94.4329965,100 96.004116,98.530974 96.004116,96.5979775 C96.004116,96.5653135 96.004116,96.532651 96.002744,96.5 L96.004116,94.7009277 L95.945363,106 C95.945363,108.209139 94.154502,110 91.945363,110 L4,110 C1.790861,110 0,108.209139 0,106 L0,104 C0,101.790861 1.790861,100 4,100 Z"/>
    <path fill="#FFF" fill-rule="nonzero" d="M4.75,101 L83.1986255,101 L92.959975,101 C94.0645445,101 95.0292275,100.10457 95.0292275,99 L95,103.525831 C94.985799,105.724843 93.129889,108 90.930831,108 L4.75,108 C2.95507456,108 1.5,106.044925 1.5,104.25 C1.5,102.455074 2.95507456,101 4.75,101 Z"/>
    <path fill="#6B61AB" d="M95.959975,104.5 L95.959975,106 C95.959975,108.209139 94.169114,110 91.959975,110 L4,110 C1.790861,110 0,108.209139 0,106 L0,104.5 C0,106.709139 1.790861,109 4,109 L91.959975,109 C94.169114,109 95.959975,106.709139 95.959975,104.5 Z"/>
    <path fill="#F0EAFF" d="M95.959975,5 C95.959975,2.790861 94.169114,1 91.959975,1 L4,1 C1.790861,1 0,2.790861 0,5 L0,4 C0,1.790861 1.790861,0 4,0 L91.959975,0 C94.169114,0 95.959975,1.790861 95.959975,4 L95.959975,5 Z"/>
    <g fill-rule="nonzero">
      <use fill="#000" filter="url(#deepin-font-manager-c)" xlink:href="#deepin-font-manager-d"/>
      <use fill="#000" xlink:href="#deepin-font-manager-d"/>
    </g>
  </g>
</svg>
