<svg xmlns="http://www.w3.org/2000/svg" xmlns:xlink="http://www.w3.org/1999/xlink" width="128" height="128" viewBox="0 0 128 128">
  <defs>
    <filter id="desktop-ai-assistant-a" width="128.6%" height="128.6%" x="-14.3%" y="-14.3%" filterUnits="objectBoundingBox">
      <feOffset dy="2" in="SourceAlpha" result="shadowOffsetOuter1"/>
      <feGaussianBlur in="shadowOffsetOuter1" result="shadowBlurOuter1" stdDeviation="3"/>
      <feColorMatrix in="shadowBlurOuter1" result="shadowMatrixOuter1" values="0 0 0 0 0   0 0 0 0 0   0 0 0 0 0  0 0 0 0.2 0"/>
      <feMerge>
        <feMergeNode in="shadowMatrixOuter1"/>
        <feMergeNode in="SourceGraphic"/>
      </feMerge>
    </filter>
    <circle id="desktop-ai-assistant-b" cx="56" cy="56" r="56"/>
    <linearGradient id="desktop-ai-assistant-c" x1="50%" x2="50%" y1="0%" y2="100%">
      <stop offset="0%" stop-color="#F1FAFF"/>
      <stop offset="100%" stop-color="#65B5DF"/>
    </linearGradient>
    <linearGradient id="desktop-ai-assistant-e" x1="100%" x2="37.123%" y1="100%" y2="100%">
      <stop offset="0%" stop-color="#D4FF00"/>
      <stop offset="100%" stop-color="#07F"/>
    </linearGradient>
    <linearGradient id="desktop-ai-assistant-f" x1="100%" x2="37.123%" y1="100%" y2="100%">
      <stop offset="0%" stop-color="#D4FF00"/>
      <stop offset="100%" stop-color="#07F"/>
    </linearGradient>
    <linearGradient id="desktop-ai-assistant-g" x1="100%" x2="37.123%" y1="100%" y2="100%">
      <stop offset="0%" stop-color="#D4FF00"/>
      <stop offset="100%" stop-color="#07F"/>
    </linearGradient>
  </defs>
  <g fill="none" fill-rule="evenodd" filter="url(#desktop-ai-assistant-a)" transform="translate(8 8)">
    <mask id="desktop-ai-assistant-d" fill="#fff">
      <use xlink:href="#desktop-ai-assistant-b"/>
    </mask>
    <use fill="#C8ECFF" xlink:href="#desktop-ai-assistant-b"/>
    <path fill="url(#desktop-ai-assistant-c)" fill-rule="nonzero" d="M56,0 C86.927946,0 112,25.072054 112,56 C112,86.927946 86.927946,112 56,112 C25.072054,112 0,86.927946 0,56 C0,25.072054 25.072054,0 56,0 Z M56,2 C26.1766235,2 2,26.1766235 2,56 C2,85.8233765 26.1766235,110 56,110 C85.8233765,110 110,85.8233765 110,56 C110,26.1766235 85.8233765,2 56,2 Z" mask="url(#desktop-ai-assistant-d)"/>
    <path fill="#035EA8" d="M57,28 C58.6568542,28 60,29.3431458 60,31 L60,80 C60,81.6568542 58.6568542,83 57,83 C55.3431458,83 54,81.6568542 54,80 L54,31 C54,29.3431458 55.3431458,28 57,28 Z M71,35 C72.6568542,35 74,36.3431458 74,38 L74,74 C74,75.6568542 72.6568542,77 71,77 C69.3431458,77 68,75.6568542 68,74 L68,38 C68,36.3431458 69.3431458,35 71,35 Z M43,38 C44.6568542,38 46,39.3431458 46,41 L46,69 C46,70.6568542 44.6568542,72 43,72 C41.3431458,72 40,70.6568542 40,69 L40,41 C40,39.3431458 41.3431458,38 43,38 Z M30,43 C31.6568542,43 33,44.3431458 33,46 L33,65 C33,66.6568542 31.6568542,68 30,68 C28.3431458,68 27,66.6568542 27,65 L27,46 C27,44.3431458 28.3431458,43 30,43 Z M84,46 C85.6568542,46 87,47.3431458 87,49 L87,62 C87,63.6568542 85.6568542,65 84,65 C82.3431458,65 81,63.6568542 81,62 L81,49 C81,47.3431458 82.3431458,46 84,46 Z" mask="url(#desktop-ai-assistant-d)"/>
    <path fill="url(#desktop-ai-assistant-e)" fill-opacity=".5" d="M108.336466,75.7233504 C100.010639,97.7538965 78.6893937,113.423729 53.7008094,113.423729 C41.3104684,113.423729 29.8217698,109.571185 20.3718616,103.000935 C50.8302654,96.4530775 71.5046256,84.1182336 107.076134,76.0045275 Z" mask="url(#desktop-ai-assistant-d)"/>
    <path fill="url(#desktop-ai-assistant-f)" fill-opacity=".5" d="M8.79622425,78.0577264 C50.6430947,75.4913245 57.3130153,92.008013 95.9130384,95.1126535 C85.2975398,106.388213 70.2581358,113.423729 53.5821653,113.423729 C29.8820894,113.423729 9.48761785,99.2131042 0.389429025,78.8150818 C3.06446623,78.4921978 5.86267976,78.2375239 8.79622425,78.0577264 Z" mask="url(#desktop-ai-assistant-d)"/>
    <path fill="url(#desktop-ai-assistant-g)" fill-opacity=".5" d="M0.922371589,49.8620057 C28.4268521,49.1508504 45.7727141,60.594885 62.6603484,72.773481 L64.8144748,74.3313057 C74.9093518,81.6455641 84.9879487,89.0488713 97.1301562,94.0924955 C86.4462191,105.959863 70.9469291,113.423729 53.7008094,113.423729 C21.4623572,113.423729 -4.67207194,87.3424184 -4.67207194,55.1694915 C-4.67207194,53.4810099 -4.60008983,51.8093065 -4.45902101,50.1572707 C-2.7036226,50.008427 -0.910413324,49.9093198 0.922371589,49.8620057 Z" mask="url(#desktop-ai-assistant-d)"/>
  </g>
</svg>
