<svg xmlns="http://www.w3.org/2000/svg" xmlns:xlink="http://www.w3.org/1999/xlink" width="128" height="128" viewBox="0 0 128 128">
  <defs>
    <filter id="kbox-a" width="127.7%" height="128.8%" x="-13.9%" y="-14.4%" filterUnits="objectBoundingBox">
      <feOffset dy="2" in="SourceAlpha" result="shadowOffsetOuter1"/>
      <feGaussianBlur in="shadowOffsetOuter1" result="shadowBlurOuter1" stdDeviation="3"/>
      <feColorMatrix in="shadowBlurOuter1" result="shadowMatrixOuter1" values="0 0 0 0 0   0 0 0 0 0   0 0 0 0 0  0 0 0 0.2 0"/>
      <feMerge>
        <feMergeNode in="shadowMatrixOuter1"/>
        <feMergeNode in="SourceGraphic"/>
      </feMerge>
    </filter>
    <path id="kbox-b" d="M12.6666667,42.0002589 L103.333333,42.0002589 C104.806093,42.0002589 106,43.1941662 106,44.6669256 L106,108.333592 C106,109.806352 104.806093,111.000259 103.333333,111.000259 L12.6666667,111.000259 C11.1939073,111.000259 10,109.806352 10,108.333592 L10,44.6669256 C10,43.1941662 11.1939073,42.0002589 12.6666667,42.0002589 Z"/>
    <filter id="kbox-c" width="101%" height="101.4%" x="-.5%" y="-.7%" filterUnits="objectBoundingBox">
      <feOffset dy="-1" in="SourceAlpha" result="shadowOffsetInner1"/>
      <feComposite in="shadowOffsetInner1" in2="SourceAlpha" k2="-1" k3="1" operator="arithmetic" result="shadowInnerInner1"/>
      <feColorMatrix in="shadowInnerInner1" values="0 0 0 0 0   0 0 0 0 0   0 0 0 0 0  0 0 0 0.196213942 0"/>
    </filter>
    <linearGradient id="kbox-d" x1="50%" x2="50%" y1="0%" y2="116.127%">
      <stop offset="0%" stop-color="#FFE0AD"/>
      <stop offset="100%" stop-color="#B08137"/>
    </linearGradient>
    <linearGradient id="kbox-e" x1="50%" x2="50%" y1="-44.371%" y2="138.157%">
      <stop offset="0%" stop-color="#E5BD7B"/>
      <stop offset="100%" stop-color="#E5BC7A"/>
    </linearGradient>
  </defs>
  <g fill="none" fill-rule="evenodd" filter="url(#kbox-a)" transform="translate(6 8)">
    <g transform="translate(23)">
      <path fill="#D3EFAF" d="M0,42 L70,42 C70,30.192096 65.1506024,19.6028014 55.4939759,12.6693347 L63.1686747,5.02151076 C64.4337349,3.55077539 64.4337349,2.20610305 63.1686747,0.945472736 C61.9036145,-0.315157579 60.5120482,-0.315157579 59.0783133,0.945472736 L50.3493976,9.64382191 C45.5843373,7.12256128 40.4819277,5.86193097 35,5.86193097 C29.3493976,5.86193097 24.1626506,7.12256128 19.3975904,9.68584292 L10.6686747,0.945472736 C9.40361446,-0.315157579 8.01204819,-0.315157579 6.57831325,0.945472736 C5.10240964,2.20610305 5.10240964,3.5927964 6.57831325,5.02151076 L14.253012,12.6693347 C4.72289157,19.3926963 0,29.981991 0,42 Z"/>
      <path fill="#73C021" d="M0,43 L70,43 C70,31.192096 65.1506024,20.6028014 55.4939759,13.6693347 L63.1686747,6.02151076 C64.4337349,4.55077539 64.4337349,3.20610305 63.1686747,1.94547274 C61.9036145,0.684842421 60.5120482,0.684842421 59.0783133,1.94547274 L50.3493976,10.6438219 C45.5843373,8.12256128 40.4819277,6.86193097 35,6.86193097 C29.3493976,6.86193097 24.1626506,8.12256128 19.3975904,10.6858429 L10.6686747,1.94547274 C9.40361446,0.684842421 8.01204819,0.684842421 6.57831325,1.94547274 C5.10240964,3.20610305 5.10240964,4.5927964 6.57831325,6.02151076 L14.253012,13.6693347 C4.72289157,20.3926963 0,30.981991 0,43 Z"/>
      <path fill="#FFF" fill-rule="nonzero" d="M51,23 C53.2222222,23 55,24.7777778 55,27 C55,29.2222222 53.2222222,31 51,31 C48.7777778,31 47,29.2222222 47,27 C47,24.7777778 48.7777778,23 51,23 Z M19,23 C21.2222222,23 23,24.7777778 23,27 C23,29.2222222 21.2222222,31 19,31 C16.7777778,31 15,29.2222222 15,27 C15,24.7777778 16.7777778,23 19,23 Z"/>
    </g>
    <g fill-rule="nonzero">
      <use fill="#E6BD7C" xlink:href="#kbox-b"/>
      <use fill="#000" filter="url(#kbox-c)" xlink:href="#kbox-b"/>
    </g>
    <g fill-rule="nonzero" transform="translate(0 39)">
      <path fill="url(#kbox-d)" d="M115.161814,21.258588 C115.836571,22.772628 115.045312,24 113.379376,24 L2.02509731,24 C0.365926659,24 -0.435470791,22.776841 0.239308409,21.258588 L8.46916436,2.7414121 C9.14207106,1.227372 11.02633,0 12.6925177,0 L102.682622,0 C104.342209,0 106.232691,1.22315885 106.909326,2.7414121 L115.161814,21.258588 Z"/>
      <path fill="url(#kbox-e)" d="M104.135257,1.00856695 C105.240765,1.00856695 106.503149,1.83002 106.951244,2.83547005 L115.120179,21.1651665 C115.569898,22.1742595 115.039104,22.9923465 113.937436,22.9924155 L1.46257146,22.9994425 C0.359641309,22.9994425 -0.169328541,22.178021 0.277468709,21.1727275 L8.42273441,2.84587945 C8.87115036,1.83694355 10.132081,1.0189404 11.2363624,1.01881855 L104.135257,1.00856695 Z"/>
    </g>
  </g>
</svg>
