<svg xmlns="http://www.w3.org/2000/svg" xmlns:xlink="http://www.w3.org/1999/xlink" width="128" height="128" viewBox="0 0 128 128">
  <defs>
    <filter id="uos-remote-assistance-a" width="127.4%" height="130.5%" x="-13.7%" y="-15.2%" filterUnits="objectBoundingBox">
      <feOffset dy="2" in="SourceAlpha" result="shadowOffsetOuter1"/>
      <feGaussianBlur in="shadowOffsetOuter1" result="shadowBlurOuter1" stdDeviation="3"/>
      <feColorMatrix in="shadowBlurOuter1" result="shadowMatrixOuter1" values="0 0 0 0 0   0 0 0 0 0   0 0 0 0 0  0 0 0 0.2 0"/>
      <feMerge>
        <feMergeNode in="shadowMatrixOuter1"/>
        <feMergeNode in="SourceGraphic"/>
      </feMerge>
    </filter>
    <linearGradient id="uos-remote-assistance-b" x1="50%" x2="50%" y1="21.23%" y2="79.403%">
      <stop offset="0%" stop-color="#64738B"/>
      <stop offset="100%" stop-color="#7C8EAA"/>
    </linearGradient>
    <path id="uos-remote-assistance-c" d="M3,0 L109,0 C110.656854,-3.04359188e-16 112,1.34314575 112,3 L112,81 C112,82.6568542 110.656854,84 109,84 L3,84 C1.34314575,84 2.02906125e-16,82.6568542 0,81 L0,3 C-2.02906125e-16,1.34314575 1.34314575,3.04359188e-16 3,0 Z"/>
    <filter id="uos-remote-assistance-d" width="101.8%" height="102.4%" x="-.9%" y="-1.2%" filterUnits="objectBoundingBox">
      <feOffset dy="2" in="SourceAlpha" result="shadowOffsetInner1"/>
      <feComposite in="shadowOffsetInner1" in2="SourceAlpha" k2="-1" k3="1" operator="arithmetic" result="shadowInnerInner1"/>
      <feColorMatrix in="shadowInnerInner1" result="shadowMatrixInner1" values="0 0 0 0 1   0 0 0 0 1   0 0 0 0 1  0 0 0 0.603829764 0"/>
      <feOffset dy="-2" in="SourceAlpha" result="shadowOffsetInner2"/>
      <feComposite in="shadowOffsetInner2" in2="SourceAlpha" k2="-1" k3="1" operator="arithmetic" result="shadowInnerInner2"/>
      <feColorMatrix in="shadowInnerInner2" result="shadowMatrixInner2" values="0 0 0 0 0   0 0 0 0 0   0 0 0 0 0  0 0 0 0.210118007 0"/>
      <feMerge>
        <feMergeNode in="shadowMatrixInner1"/>
        <feMergeNode in="shadowMatrixInner2"/>
      </feMerge>
    </filter>
    <linearGradient id="uos-remote-assistance-e" x1="50%" x2="50%" y1="0%" y2="100%">
      <stop offset="0%" stop-color="#FFF" stop-opacity=".84"/>
      <stop offset="100%" stop-color="#FFF" stop-opacity=".517"/>
    </linearGradient>
    <linearGradient id="uos-remote-assistance-f" x1="50%" x2="50%" y1="0%" y2="100%">
      <stop offset="0%" stop-color="#FFF" stop-opacity=".386"/>
      <stop offset="100%" stop-color="#FFF" stop-opacity=".127"/>
    </linearGradient>
    <path id="uos-remote-assistance-g" d="M36.0301479,93 L76,93 C76.5522847,93 77,93.4477153 77,94 L77,98 C77,98.5522847 76.5522847,99 76,99 L36.1489751,99 C35.6082528,99 35.1654721,98.5701775 35.1494161,98.0296937 L35.0305889,94.0296937 C35.0141895,93.4776525 35.448413,93.0168403 36.0004542,93.000441 C36.0103494,93.000147 36.0202484,93 36.0301479,93 Z"/>
    <filter id="uos-remote-assistance-h" width="104.7%" height="133.3%" x="-2.3%" y="-16.7%" filterUnits="objectBoundingBox">
      <feOffset dy="2" in="SourceAlpha" result="shadowOffsetInner1"/>
      <feComposite in="shadowOffsetInner1" in2="SourceAlpha" k2="-1" k3="1" operator="arithmetic" result="shadowInnerInner1"/>
      <feColorMatrix in="shadowInnerInner1" values="0 0 0 0 1   0 0 0 0 1   0 0 0 0 1  0 0 0 0.401633523 0"/>
    </filter>
    <linearGradient id="uos-remote-assistance-i" x1="50%" x2="50%" y1="0%" y2="100%">
      <stop offset="0%" stop-color="#9DD6C3"/>
      <stop offset="100%" stop-color="#2F8A6C"/>
    </linearGradient>
  </defs>
  <g fill="none" fill-rule="evenodd" filter="url(#uos-remote-assistance-a)" transform="translate(8 14)">
    <polygon fill="url(#uos-remote-assistance-b)" points="43 84 69 84 69 93 43 93"/>
    <use fill="#D8E5F7" xlink:href="#uos-remote-assistance-c"/>
    <use fill="#000" filter="url(#uos-remote-assistance-d)" xlink:href="#uos-remote-assistance-c"/>
    <polygon fill="#2A4E77" points="5 5 107 5 107 74 5 74"/>
    <g transform="translate(21 16)">
      <polygon fill="url(#uos-remote-assistance-e)" points="70 0 70 46 65.5 46 4.5 46 0 46 0 0" opacity=".335"/>
      <polygon fill="url(#uos-remote-assistance-f)" points="0 6 19 6 19 46 4.5 46 0 46" opacity=".305"/>
      <rect width="8" height="6" x="25" y="12" fill="#FFF" opacity=".17"/>
      <rect width="8" height="6" x="25" y="22" fill="#FFF" opacity=".17"/>
      <rect width="8" height="6" x="25" y="32" fill="#FFF" opacity=".17"/>
      <rect width="8" height="6" x="37" y="12" fill="#FFF" opacity=".17"/>
      <rect width="8" height="6" x="37" y="22" fill="#FFF" opacity=".17"/>
      <rect width="8" height="6" x="37" y="32" fill="#FFF" opacity=".17"/>
      <rect width="8" height="6" x="49" y="12" fill="#FFF" opacity=".17"/>
      <rect width="8" height="6" x="49" y="22" fill="#FFF" opacity=".17"/>
      <polygon fill="#FFF" points="70 0 70 6 0 6 0 0" opacity=".596"/>
    </g>
    <use fill="#B0BCCE" xlink:href="#uos-remote-assistance-g"/>
    <use fill="#000" filter="url(#uos-remote-assistance-h)" xlink:href="#uos-remote-assistance-g"/>
    <circle cx="88.5" cy="76.5" r="28" fill="#3BAD88" stroke="url(#uos-remote-assistance-i)"/>
    <path fill="#FFF" fill-rule="nonzero" d="M79.6698646,62.1144491 L81.2614172,91.6276064 C81.2831803,92.031174 81.6208059,92.3449218 82.0248838,92.3372225 L97.3015641,92.0405578 C97.559091,92.0355592 97.7960364,91.8987587 97.9291287,91.6782333 L105.824263,78.5965004 C106.033095,78.2504802 105.930194,77.8012141 105.591576,77.5805828 L80.8282081,61.4456792 C80.4811615,61.2195564 80.0165159,61.3175844 79.790393,61.664631 C79.7035057,61.7979832 79.661294,61.9555191 79.6698646,62.1144491 Z"/>
    <path fill="#004F38" fill-opacity=".48" fill-rule="nonzero" d="M78.9525485,61.1187222 C78.7498113,61.4298772 78.6513174,61.7974611 78.6713155,62.1682978 L80.2628681,91.681455 C80.3136426,92.6229995 81.1012445,93.355003 82.0439343,93.3373646 L97.3209799,93.0403693 C97.9218665,93.0287061 98.474739,92.709505 98.7852878,92.1949455 L106.680423,79.1132127 C107.167696,78.3058323 106.927594,77.2575445 106.137485,76.7427382 L81.3741169,60.6078347 C80.6093291,60.1095269 79.5997852,60.2858666 79.0454959,60.9891697 L78.9525485,61.1187222 Z M79.790393,61.664631 C79.9959593,61.3491341 80.3986517,61.2394377 80.7309109,61.3919897 L80.8282081,61.4456792 L105.591576,77.5805828 C105.899411,77.7811567 106.012437,78.170685 105.873546,78.4998208 L105.824263,78.5965004 L97.9291287,91.6782333 C97.8150496,91.8672551 97.6246702,91.9947647 97.4104299,92.0304862 L97.3015641,92.0405578 L82.0248838,92.3373613 C81.654479,92.3442802 81.3399127,92.0812331 81.2732941,91.726493 L81.2614172,91.6276064 L79.6698646,62.1144491 C79.661294,61.9555191 79.7035057,61.7979832 79.790393,61.664631 Z"/>
  </g>
</svg>
