<svg xmlns="http://www.w3.org/2000/svg" xmlns:xlink="http://www.w3.org/1999/xlink" width="128" height="128" viewBox="0 0 128 128">
  <defs>
    <filter id="uos-installtool-a" width="127.7%" height="129.1%" x="-13.9%" y="-14.5%" filterUnits="objectBoundingBox">
      <feOffset dy="2" in="SourceAlpha" result="shadowOffsetOuter1"/>
      <feGaussianBlur in="shadowOffsetOuter1" result="shadowBlurOuter1" stdDeviation="3"/>
      <feColorMatrix in="shadowBlurOuter1" result="shadowMatrixOuter1" values="0 0 0 0 0   0 0 0 0 0   0 0 0 0 0  0 0 0 0.2 0"/>
      <feMerge>
        <feMergeNode in="shadowMatrixOuter1"/>
        <feMergeNode in="SourceGraphic"/>
      </feMerge>
    </filter>
    <linearGradient id="uos-installtool-b" x1="50%" x2="50%" y1="25.076%" y2="100%">
      <stop offset="0%" stop-color="#FFF"/>
      <stop offset="100%" stop-color="#FFF" stop-opacity=".558"/>
    </linearGradient>
    <rect id="uos-installtool-d" width="9" height="9" x="12" y="12"/>
    <filter id="uos-installtool-c" width="111.1%" height="122.2%" x="-5.6%" y="-5.6%" filterUnits="objectBoundingBox">
      <feOffset dy="1" in="SourceAlpha" result="shadowOffsetOuter1"/>
      <feColorMatrix in="shadowOffsetOuter1" values="0 0 0 0 1   0 0 0 0 1   0 0 0 0 1  0 0 0 0.5 0"/>
    </filter>
    <rect id="uos-installtool-f" width="9" height="9" x="12" y="0"/>
    <filter id="uos-installtool-e" width="111.1%" height="122.2%" x="-5.6%" y="-5.6%" filterUnits="objectBoundingBox">
      <feOffset dy="1" in="SourceAlpha" result="shadowOffsetOuter1"/>
      <feColorMatrix in="shadowOffsetOuter1" values="0 0 0 0 1   0 0 0 0 1   0 0 0 0 1  0 0 0 0.5 0"/>
    </filter>
    <rect id="uos-installtool-h" width="9" height="9" x="0" y="0"/>
    <filter id="uos-installtool-g" width="111.1%" height="122.2%" x="-5.6%" y="-5.6%" filterUnits="objectBoundingBox">
      <feOffset dy="1" in="SourceAlpha" result="shadowOffsetOuter1"/>
      <feColorMatrix in="shadowOffsetOuter1" values="0 0 0 0 1   0 0 0 0 1   0 0 0 0 1  0 0 0 0.5 0"/>
    </filter>
    <rect id="uos-installtool-j" width="9" height="9" x="0" y="12"/>
    <filter id="uos-installtool-i" width="111.1%" height="122.2%" x="-5.6%" y="-5.6%" filterUnits="objectBoundingBox">
      <feOffset dy="1" in="SourceAlpha" result="shadowOffsetOuter1"/>
      <feColorMatrix in="shadowOffsetOuter1" values="0 0 0 0 1   0 0 0 0 1   0 0 0 0 1  0 0 0 0.5 0"/>
    </filter>
    <linearGradient id="uos-installtool-k" x1="50%" x2="50%" y1=".694%" y2="100%">
      <stop offset="0%" stop-color="#FFF"/>
      <stop offset="100%" stop-color="#BFBFBF"/>
    </linearGradient>
  </defs>
  <g fill="none" filter="url(#uos-installtool-a)" transform="translate(6 8)">
    <path fill="#FFF" d="M70.070966,2.74035951 C47.2808255,-3.92464827 23.4076156,9.14199201 16.739887,31.9320186 C10.0748459,54.7193579 23.144239,78.5951354 45.9343795,85.2601434 C68.719145,91.9251514 92.5977295,78.8585109 99.2600835,56.0711719 C105.925125,33.2784577 92.8557315,9.40536731 70.070966,2.74035951 L70.070966,2.74035951 Z"/>
    <path fill="#F8FCFF" d="M15.7801209,31.6512177 C8.95984334,54.9693004 22.3340312,79.4000757 45.6536855,86.2199407 C68.970039,93.040449 93.4029948,79.6677527 100.219902,56.3517948 C107.039545,33.0303804 93.667831,8.60101692 70.351721,1.78058005 C47.0311728,-5.0395462 22.6028296,8.33147574 15.7801209,31.6512177 Z M16.739887,31.9320186 C23.4076156,9.14199201 47.2808255,-3.92464827 70.070966,2.74035951 C92.8557315,9.40536731 105.925125,33.2784577 99.2600835,56.0711719 C92.5977295,78.8585109 68.719145,91.9251514 45.9343795,85.2601434 C23.144239,78.5951354 10.0748459,54.7193579 16.739887,31.9320186 Z"/>
    <circle cx="58" cy="44" r="38.5" fill="#00BBE9" opacity=".8"/>
    <path fill="url(#uos-installtool-b)" d="M45.5056,13.0002589 C46.8821235,13.0002589 47.9980164,14.1161517 47.9980164,15.4926753 L47.9980164,28.7279048 C47.9980164,34.2630981 52.4851771,38.7502589 58.0203705,38.7502589 C63.5555638,38.7502589 68.0427246,34.2630981 68.0427246,28.7279048 L68.0427246,15.5002589 C68.0427246,14.119547 69.1620127,13.0002589 70.5427246,13.0002589 C71.9234365,13.0002589 73.0427246,14.119547 73.0427246,15.5002589 L73.0427246,28.9854884 C73.0427246,37.2779172 66.3203829,44.0002589 58.0279541,44.0002589 C49.7355253,44.0002589 43.0131836,37.2779172 43.0131836,28.9854884 L43.0131836,15.4926753 C43.0131836,14.1161517 44.1290764,13.0002589 45.5056,13.0002589 Z"/>
    <rect width="96" height="70" x="10" y="40" fill="#000" fill-opacity=".166" rx="2.667"/>
    <path fill="#E1E1E1" d="M12.6666667,40.0002589 L103.333333,40.0002589 C104.806093,40.0002589 106,41.1941662 106,42.6669256 L106,106.333592 C106,107.806352 104.806093,109.000259 103.333333,109.000259 L12.6666667,109.000259 C11.1939073,109.000259 10,107.806352 10,106.333592 L10,42.6669256 C10,41.1941662 11.1939073,40.0002589 12.6666667,40.0002589 Z"/>
    <g transform="translate(77 81)">
      <use fill="#000" filter="url(#uos-installtool-c)" xlink:href="#uos-installtool-d"/>
      <use fill="#FE0" xlink:href="#uos-installtool-d"/>
      <use fill="#000" filter="url(#uos-installtool-e)" xlink:href="#uos-installtool-f"/>
      <use fill="#3CC700" xlink:href="#uos-installtool-f"/>
      <use fill="#000" filter="url(#uos-installtool-g)" xlink:href="#uos-installtool-h"/>
      <use fill="#FF3900" xlink:href="#uos-installtool-h"/>
      <use fill="#000" filter="url(#uos-installtool-i)" xlink:href="#uos-installtool-j"/>
      <use fill="#00AFFF" xlink:href="#uos-installtool-j"/>
      <path fill="#000" fill-opacity=".201" d="M21 12L21 21 12 21 12 12 21 12zM20 13L13 13 13 20 20 20 20 13zM21 0L21 9 12 9 12 0 21 0zM20 1L13 1 13 8 20 8 20 1zM9 0L9 9 0 9 0 0 9 0zM8 1L1 1 1 8 8 8 8 1zM9 12L9 21 0 21 0 12 9 12zM8 13L1 13 1 20 8 20 8 13z"/>
    </g>
    <g transform="translate(0 38)">
      <path fill="url(#uos-installtool-k)" d="M115.161814,21.258588 C115.836571,22.772628 115.045312,24 113.379376,24 L2.02509731,24 C0.365926659,24 -0.435470791,22.776841 0.239308409,21.258588 L8.46916436,2.7414121 C9.14207106,1.227372 11.02633,0 12.6925177,0 L102.682622,0 C104.342209,0 106.232691,1.22315885 106.909326,2.7414121 L115.161814,21.258588 Z"/>
      <path fill="#F2F2F2" d="M104.135257,1.00856695 C105.240765,1.00856695 106.503149,1.83002 106.951244,2.83547005 L115.120179,21.1651665 C115.569898,22.1742595 115.039104,22.9923465 113.937436,22.9924155 L1.46257146,22.9994425 C0.359641309,22.9994425 -0.169328541,22.178021 0.277468709,21.1727275 L8.42273441,2.84587945 C8.87115036,1.83694355 10.132081,1.0189404 11.2363624,1.01881855 L104.135257,1.00856695 Z"/>
    </g>
  </g>
</svg>
