<svg xmlns="http://www.w3.org/2000/svg" width="512" height="512" viewBox="0 0 512 512">
  <defs>
    <filter id="dde-introduction-a" width="122.9%" height="122.9%" x="-11.4%" y="-11.4%" filterUnits="objectBoundingBox">
      <feOffset dy="8" in="SourceAlpha" result="shadowOffsetOuter1"/>
      <feGaussianBlur in="shadowOffsetOuter1" result="shadowBlurOuter1" stdDeviation="10"/>
      <feComposite in="shadowBlurOuter1" in2="SourceAlpha" operator="out" result="shadowBlurOuter1"/>
      <feColorMatrix in="shadowBlurOuter1" result="shadowMatrixOuter1" values="0 0 0 0 0   0 0 0 0 0   0 0 0 0 0  0 0 0 0.2 0"/>
      <feMerge>
        <feMergeNode in="shadowMatrixOuter1"/>
        <feMergeNode in="SourceGraphic"/>
      </feMerge>
    </filter>
    <linearGradient id="dde-introduction-b" x1="42.153%" x2="42.153%" y1="0%" y2="100%">
      <stop offset="0%" stop-color="#00D8A5"/>
      <stop offset="100%" stop-color="#0058FF"/>
    </linearGradient>
  </defs>
  <g fill="none" fill-rule="evenodd" filter="url(#dde-introduction-a)" transform="translate(20 20)">
    <circle cx="236" cy="236" r="236" fill="url(#dde-introduction-b)"/>
    <g transform="translate(27 65)">
      <path fill="#404040" stroke="#373737" stroke-width="14" d="M155.483141,310.242757 L318.002372,310.242757 C325.182074,310.242757 331.002372,304.422458 331.002372,297.242757 L331.002372,120.002372 C331.002372,71.5340748 291.711054,32.2427567 243.242757,32.2427567 C194.774459,32.2427567 155.483141,71.5340748 155.483141,120.002372 L155.483141,310.242757 Z" transform="rotate(45 243.243 171.243)"/>
      <path fill="#FFF" d="M120.20063,75.2775528 L296.739091,75.2775528 C307.784786,75.2775528 316.739091,84.2318578 316.739091,95.2775528 L316.739091,246.20063 C316.739091,257.246325 307.784786,266.20063 296.739091,266.20063 L120.20063,266.20063 C67.4786778,266.20063 24.7390912,223.461043 24.7390912,170.739091 C24.7390912,118.017139 67.4786778,75.2775528 120.20063,75.2775528 Z" transform="rotate(45 170.74 170.74)"/>
      <path fill="#606060" stroke="#373737" stroke-width="14" d="M315.989386,201.133617 L322.989386,201.133617 L315.989386,194.133617 L315.989386,201.133617 Z M315.989386,201.172078 L315.989386,208.172078 L322.989386,201.172078 L315.989386,201.172078 Z M216.316309,201.172078 L209.316309,201.172078 L216.316309,208.172078 L216.316309,201.172078 Z M216.316309,201.133617 L216.316309,194.133617 L209.316309,201.133617 L216.316309,201.133617 Z" transform="rotate(45 266.153 201.153)"/>
      <path fill="#606060" stroke="#373737" stroke-width="14" d="M286.989386,231.133617 L293.989386,231.133617 L286.989386,224.133617 L286.989386,231.133617 Z M286.989386,231.172078 L286.989386,238.172078 L293.989386,231.172078 L286.989386,231.172078 Z M187.316309,231.172078 L180.316309,231.172078 L187.316309,238.172078 L187.316309,231.172078 Z M187.316309,231.133617 L187.316309,224.133617 L180.316309,231.133617 L187.316309,231.133617 Z" transform="rotate(45 237.153 231.153)"/>
      <path fill="#404040" stroke="#373737" stroke-width="14" d="M98.6710147,233.353707 L143.632553,233.353707 L143.632553,195.43063 C143.632553,183.014844 133.56757,172.949861 121.151784,172.949861 C108.735998,172.949861 98.6710147,183.014844 98.6710147,195.43063 L98.6710147,233.353707 Z" transform="rotate(45 121.152 203.152)"/>
      <path fill="#404040" stroke="#373737" stroke-width="14" d="M131.082192,264.361038 L173.236038,264.361038 L173.236038,225.034115 C173.236038,213.393652 163.799578,203.957192 152.159115,203.957192 C140.518652,203.957192 131.082192,213.393652 131.082192,225.034115 L131.082192,264.361038 Z" transform="rotate(45 152.16 234.16)"/>
      <path fill="#404040" stroke="#373737" stroke-width="14" d="M161.082192,294.361038 L203.236038,294.361038 L203.236038,255.034115 C203.236038,243.393652 193.799578,233.957192 182.159115,233.957192 C170.518652,233.957192 161.082192,243.393652 161.082192,255.034115 L161.082192,294.361038 Z" transform="rotate(45 182.16 264.16)"/>
      <path fill="#404040" stroke="#373737" stroke-width="14" d="M190.671015,325.353707 L222.632553,325.353707 C229.812255,325.353707 235.632553,319.533409 235.632553,312.353707 L235.632553,287.43063 C235.632553,275.014844 225.56757,264.949861 213.151784,264.949861 C200.735998,264.949861 190.671015,275.014844 190.671015,287.43063 L190.671015,325.353707 Z" transform="rotate(45 213.152 295.152)"/>
      <path fill="#404040" stroke="#373737" stroke-width="14" d="M214.800377,73.5174486 L214.800377,124.947373 C214.800377,152.562338 192.80206,174.948689 165.665761,174.948689 L165.665761,73.5174486 L165.665761,73.5174486" transform="rotate(45 190.233 124.233)"/>
    </g>
  </g>
</svg>
