<?xml version="1.0" encoding="UTF-8" standalone="no"?>
<!-- Created with Inkscape (http://www.inkscape.org/) -->

<svg
   xmlns:dc="http://purl.org/dc/elements/1.1/"
   xmlns:cc="http://creativecommons.org/ns#"
   xmlns:rdf="http://www.w3.org/1999/02/22-rdf-syntax-ns#"
   xmlns:svg="http://www.w3.org/2000/svg"
   xmlns="http://www.w3.org/2000/svg"
   xmlns:inkscape="http://www.inkscape.org/namespaces/inkscape"
   version="1.1"
   width="100%"
   height="100%"
   viewBox="0 0 16 16"
   id="图层_1"
   xml:space="preserve"><metadata
     id="metadata13"><rdf:RDF><cc:Work
         rdf:about=""><dc:format>image/svg+xml</dc:format><dc:type
           rdf:resource="http://purl.org/dc/dcmitype/StillImage" /></cc:Work></rdf:RDF></metadata><defs
     id="defs11" /><g
     id="g3"><path
       d="M 14,12.8 C 14,12.358 13.642,12 13.2,12 H 2.8 C 2.358,12 2,12.358 2,12.8 v 0.4 C 2,13.642 2.358,14 2.8,14 h 10.4 c 0.442,0 0.8,-0.358 0.8,-0.8 v -0.4 z"
       inkscape:connector-curvature="0"
       id="path5"
       style="fill:#9fa0a0" /><path
       d="m 3.073,10 h 9.855 C 13.235,10 13.51,9.837 13.645,9.571 13.778,9.309 13.75,8.999 13.567,8.749 L 8.646,2.352 C 8.343,1.936 7.649,1.941 7.362,2.336 L 2.426,8.763 C 2.25,9.005 2.224,9.313 2.356,9.573 2.49,9.838 2.766,10 3.073,10 z"
       inkscape:connector-curvature="0"
       id="path7"
       style="fill:#9fa0a0" /></g></svg>