<svg xmlns="http://www.w3.org/2000/svg" width="20" height="20" viewBox="0 0 20 20">
  <defs>
    <linearGradient id="1-a" x1="50%" x2="50%" y1="2.055%" y2="97.559%">
      <stop offset="0%" stop-color="#DBFDFF"/>
      <stop offset="100%" stop-color="#70FBFB"/>
    </linearGradient>
  </defs>
  <g fill="none" fill-rule="evenodd">
    <polygon points="0 20 20 20 20 0 0 0" opacity="0"/>
    <path fill="url(#1-a)" d="M10.4477341,10.3946588 C10.602227,10.235848 11.275862,9.57577535 11.1399189,9.71012965 C11.8909204,8.96797788 12.2728095,8.47702395 12.450673,7.94012743 C12.8713031,6.67041826 12.1760693,5.38093154 10.5820411,5.10617142 C8.84754496,4.80719906 7.43691925,5.80353887 7.43691925,7.08268311 C7.43691925,7.35882549 7.21306162,7.58268311 6.93691925,7.58268311 C6.66077687,7.58268311 6.43691925,7.35882549 6.43691925,7.08268311 C6.43691925,5.13943593 8.44277052,3.72268203 10.7519046,4.12070382 C12.9707814,4.50316811 14.0063921,6.42396961 13.3999392,8.25460102 C13.1573923,8.98675028 12.7000434,9.57446845 11.8412449,10.4229736 C11.7584901,10.5047366 11.6626232,10.5984386 11.4898406,10.7672132 C11.3537381,10.90057 11.2558472,10.9980724 11.164518,11.0919542 C10.9405388,11.3221932 10.7796464,11.508074 10.6615175,11.6772843 C10.342135,12.1347745 10.1117938,12.8257536 10.2157522,13.4385063 C10.2619419,13.7107582 10.0786823,13.9689062 9.80643032,14.015096 C9.53417838,14.0612857 9.2760304,13.878026 9.22984067,13.6057741 C9.07467393,12.6911888 9.38590902,11.757544 9.8415615,11.1048578 C9.99600276,10.8836328 10.1892898,10.6603263 10.4477341,10.3946588 Z M9.73878388,16.5142829 C9.32457032,16.5142829 8.98878388,16.1784965 8.98878388,15.7642829 C8.98878388,15.3500694 9.32457032,15.0142829 9.73878388,15.0142829 C10.1529974,15.0142829 10.4887839,15.3500694 10.4887839,15.7642829 C10.4887839,16.1784965 10.1529974,16.5142829 9.73878388,16.5142829 Z"/>
  </g>
</svg>
