<svg xmlns="http://www.w3.org/2000/svg" width="20" height="20" viewBox="0 0 20 20">
  <defs>
    <linearGradient id="audio-volume-muted-blocked-panel-a" x1="50%" x2="50%" y1="2.055%" y2="97.559%">
      <stop offset="0%" stop-color="#DBFDFF"/>
      <stop offset="100%" stop-color="#70FBFB"/>
    </linearGradient>
  </defs>
  <g fill="none" fill-rule="evenodd">
    <polygon points="0 20 20 20 20 0 0 0" opacity="0"/>
    <path fill="url(#audio-volume-muted-blocked-panel-a)" d="M14.73835,10 L15.8773883,11.1390384 C16.060441,11.322091 16.0442449,11.6350741 15.8412133,11.8381056 C15.6381818,12.0411372 15.3251987,12.0573333 15.1421461,11.8742806 L14.0031077,10.7352422 L12.8640694,11.8742806 C12.6810167,12.0573333 12.3680336,12.0411372 12.1650021,11.8381056 C11.9619706,11.6350741 11.9457745,11.322091 12.1288271,11.1390384 L13.2678655,10 L12.1288271,8.86096165 C11.9457745,8.67790899 11.9619706,8.36492592 12.1650021,8.16189438 C12.3680336,7.95886283 12.6810167,7.94266674 12.8640694,8.1257194 L14.0031077,9.26475775 L15.1421461,8.1257194 C15.3251987,7.94266674 15.6381818,7.95886283 15.8412133,8.16189438 C16.0442449,8.36492592 16.060441,8.67790899 15.8773883,8.86096165 L14.73835,10 Z M7.17157288,5.66732034 L9.14644661,3.69244661 C9.46142904,3.37746418 10,3.60054757 10,4.046 L10,15.046 C10,15.4914524 9.46142904,15.7145358 9.14644661,15.3995534 L7.17157288,13.4246797 C6.60896374,12.8620705 5.845902,12.546 5.05025253,12.546 L3,12.546 C1.8954305,12.546 1,11.6505695 1,10.546 L1,8.546 C1,7.4414305 1.8954305,6.546 3,6.546 L5.05025253,6.546 C5.845902,6.546 6.60896374,6.22992948 7.17157288,5.66732034 Z"/>
  </g>
</svg>
