<svg xmlns="http://www.w3.org/2000/svg" width="20" height="20" viewBox="0 0 20 20">
  <path fill-rule="evenodd" d="M8.26032053,0.368381795 L15.2504321,4.41343296 C15.5841217,4.60653311 15.5829532,5.08868721 15.2483315,5.28016765 L9.11055612,8.79139721 L15.2504321,12.3437882 C15.5841217,12.5368884 15.5829532,13.0190425 15.2483315,13.2105229 L8.25821992,17.2104717 C7.92489029,17.4012128 7.50988844,17.1605453 7.50988844,16.7765 L7.50955612,9.62539721 L1.51471395,13.10714 C1.30244517,13.2303979 1.03708361,13.1799532 0.883345993,12.999503 L0.831248471,12.9258255 C0.692583293,12.6870231 0.77376054,12.3810252 1.01256293,12.24236 L1.01256293,12.24236 L7.0066596,8.76177304 L1.00557161,5.14550403 C0.769053442,5.00297765 0.69285804,4.69570134 0.835384415,4.45918317 C0.97791079,4.222665 1.2851871,4.1464696 1.52170527,4.28899597 L1.52170527,4.28899597 L7.50955612,7.89739721 L7.50988844,0.801144741 C7.50988844,0.416022717 7.92698745,0.175487967 8.26032053,0.368381795 Z M8.50988844,9.59852443 L8.50988844,15.9143108 L13.9975269,12.7741216 L8.50988844,9.59852443 Z M8.50988844,1.66816917 L8.50988844,7.98395556 L13.9975269,4.84376632 L8.50988844,1.66816917 Z" transform="translate(1.5 .723)"/>
</svg>
