<svg xmlns="http://www.w3.org/2000/svg" width="20" height="20" viewBox="0 0 20 20">
  <path fill-rule="evenodd" d="M10.7521981,4.82906147 C12.742748,4.82906147 13.6792837,5.74869562 13.9900745,7.375212 C14.0419015,7.64644728 13.8640359,7.90834098 13.5928006,7.96016795 C13.3215653,8.01199493 13.0596716,7.83412935 13.0078447,7.56289407 C12.7812114,6.37681382 12.2233921,5.82906147 10.7521981,5.82906147 C9.67706643,5.82906147 8.89899453,6.47902148 8.70088472,7.55924712 C8.55137892,8.37445155 8.49090667,11.7872762 8.67893388,12.3038824 C9.02791263,13.2627043 9.79575664,13.8290615 10.7521981,13.8290615 C12.179232,13.8290615 12.925985,13.2478838 12.9938684,12.4377513 L12.9989596,12.3145583 L12.9989596,10.8119361 L11.4927379,10.8119361 C11.2165955,10.8119361 10.9927379,10.5880784 10.9927379,10.3119361 C10.9927379,10.0664762 11.1696131,9.86232769 11.4028623,9.81999173 L11.4927379,9.81193607 L13.9989596,9.81193607 L13.9989596,12.3145583 C13.9989596,13.7780367 12.7713925,14.8290615 10.7521981,14.8290615 C9.36515863,14.8290615 8.22876071,13.9908611 7.73924005,12.6458992 C7.47508107,11.9201204 7.53825011,8.35509848 7.71728921,7.37885896 C8.00238194,5.82434497 9.19384314,4.82906147 10.7521981,4.82906147 Z M5.52437526,4.82960606 C5.5407402,4.83038986 5.55709627,4.83197779 5.5733811,4.83437876 C5.5924943,4.83655267 5.61055148,4.84013816 5.62823119,4.84466606 C5.63510633,4.84746054 5.64246083,4.84958256 5.64977939,4.85187972 C5.67427211,4.85818794 5.69767221,4.86735753 5.72014068,4.87815705 L5.73609221,4.88804736 L5.8,4.92906147 L5.8,4.92906147 L5.76009221,4.90204736 L5.80382257,4.92903726 C5.90097079,5.00201438 5.97067128,5.10955601 5.99466555,5.23340365 L6.00380605,5.32906147 L6.00309221,10.829032 L6.5,10.8290615 C6.74545989,10.8290615 6.94960837,11.0059366 6.99194433,11.2391858 L7,11.3290615 C7,11.5745214 6.82312484,11.7786698 6.58987563,11.8210058 L6.5,11.8290615 L6.00309221,11.829032 L6.00380605,14.3290615 C6.00380605,14.5745214 5.82693089,14.7786698 5.59368168,14.8210058 L5.50380605,14.8290615 C5.25834616,14.8290615 5.05419768,14.6521863 5.01186172,14.4189371 L5.00380605,14.3290615 L5.00309221,11.829032 L1,11.8290615 C0.617407531,11.8290615 0.387287312,11.4234771 0.554298041,11.1016258 L0.6,11.0290615 L5.1,5.02906147 C5.17889782,4.92386437 5.29129116,4.85860886 5.41124309,4.83700021 L5.42409221,4.83504736 L5.50380605,4.82906147 L5.50380605,4.82906147 L5.52437526,4.82960606 Z M5.00309221,6.82403204 L2,10.8290615 L5.00309221,10.829032 L5.00309221,6.82403204 Z M12.2503899,2.72880748 L12.3396124,2.74229328 C13.1849283,2.94862311 13.9344635,3.38169469 14.5806321,4.03428089 C15.2340604,4.69419884 15.6380017,5.46068144 15.7827832,6.32289942 C15.8285121,6.59522914 15.6448159,6.85306662 15.3724862,6.89879556 C15.1001565,6.9445245 14.842319,6.76082827 14.7965901,6.48849855 C14.6866702,5.8338927 14.3810444,5.25396462 13.87004,4.73788504 C13.3517759,4.21447371 12.7651205,3.87551193 12.1024879,3.71377254 C11.8342213,3.6482924 11.6698304,3.37773722 11.7353105,3.10947063 C11.7862395,2.90081884 11.9612263,2.75500543 12.1627046,2.73131216 L12.2503899,2.72880748 Z M12.1926213,0.348118737 L12.1926213,0.348118737 C13.7893792,0.510370719 15.1720723,1.16149673 16.3234413,2.29295299 C17.4711866,3.42084829 18.1640016,4.77242161 18.393069,6.33308926 C18.4331702,6.60630438 18.2441941,6.86029746 17.970979,6.90039868 C17.6977638,6.9404999 17.4437708,6.75152375 17.4036695,6.47830862 C17.2064593,5.13468803 16.6156849,3.98217992 15.6225291,3.00620062 C14.632997,2.03378227 13.4617499,1.48222857 12.0915285,1.34299574 C11.8168008,1.31507972 11.6167204,1.06973852 11.6446364,0.795010825 C11.6663488,0.581333728 11.8195901,0.412813635 12.0158866,0.361602466 L12.1023917,0.347047356 Z M5.50380605,4.82906147 C5.47239302,4.82906147 5.4416566,4.83195831 5.41124309,4.83700021 L5.42409221,4.83504736 L5.41824866,4.83578923 C5.44345319,4.83161562 5.46896769,4.82936314 5.49455326,4.82906591 Z M5.73609221,4.88804736 L5.72610024,4.88107056 L5.74509221,4.89304736 L5.73609221,4.88804736 Z" transform="translate(.998 2.185)"/>
</svg>
