<svg xmlns="http://www.w3.org/2000/svg" width="16" height="16" viewBox="0 0 16 16">
  <g fill="#626E88" fill-rule="evenodd" transform="translate(2 2)">
    <path d="M2 0L10 0C11.1045695-2.02906125e-16 12 .8954305 12 2L12 7 12 7 0 7 0 2C-1.3527075e-16.8954305.8954305 2.02906125e-16 2 0zM0 8L12 8C12 9.1045695 11.1045695 10 10 10L2 10C.8954305 10 1.3527075e-16 9.1045695 0 8L0 8 0 8z"/>
    <polygon points="5 10 7 10 7 12 5 12"/>
    <path d="M2.5,11 L9.5,11 C9.77614237,11 10,11.2238576 10,11.5 C10,11.7761424 9.77614237,12 9.5,12 L2.5,12 C2.22385763,12 2,11.7761424 2,11.5 C2,11.2238576 2.22385763,11 2.5,11 Z"/>
  </g>
</svg>
