<svg xmlns="http://www.w3.org/2000/svg" width="16" height="16" viewBox="0 0 16 16">
  <path fill="#626E88" fill-rule="evenodd" d="M13,11 L13,12 C13,13.1045695 12.1045695,14 11,14 L5,14 C3.8954305,14 3,13.1045695 3,12 L3,11 L13,11 Z M11.5,12 L4.5,12 C4.22385763,12 4,12.2238576 4,12.5 C4,12.7454599 4.17687516,12.9496084 4.41012437,12.9919443 L4.5,13 L11.5,13 C11.7761424,13 12,12.7761424 12,12.5 C12,12.2238576 11.7761424,12 11.5,12 Z M3,4 C3,2.8954305 3.8954305,2 5,2 L11,2 C12.1045695,2 13,2.8954305 13,4 L13,10 L3,10 L3,4 Z"/>
</svg>
