<svg xmlns="http://www.w3.org/2000/svg" xmlns:xlink="http://www.w3.org/1999/xlink" width="16" height="16" viewBox="0 0 16 16">
  <defs>
    <path id="network-server-symbolic-a" d="M11.4519189,8.50866909 C10.5728065,10.4161853 8.72196435,11.7836415 6.53388092,11.9765719 C7.41122792,11.3083308 8.13772769,10.4521179 8.65203013,9.46750178 C9.67328538,9.3660252 10.6251779,9.0278258 11.4519189,8.50866909 Z M7.48964208,9.48025898 C6.83460793,10.5131286 5.89555664,11.3479746 4.78263322,11.875948 C3.49508414,11.6107516 2.35827264,10.9330494 1.51637755,9.98709903 C1.59532476,8.73780474 1.96087958,7.56695966 2.54790048,6.53890028 C3.6191046,8.18745652 5.41817674,9.31937336 7.48964208,9.48025898 Z M1.58815351,1.93355425 C1.52976041,2.280898 1.5,2.63697354 1.5,3 C1.5,3.89221181 1.67976219,4.7424379 2.00504399,5.5164357 C1.36197092,6.48079767 0.900322175,7.57714999 0.668844936,8.75603109 C0.241462455,7.93057902 0,6.9934878 0,6 C0,4.43100923 0.602234055,3.00267777 1.58815351,1.93355425 Z M8.5,6 C8.5,6.8584426 8.33358788,7.67801757 8.03126341,8.42822513 L8,8.5 C5.91026403,8.5 4.09273492,7.33454386 3.16193597,5.61815488 C4.2565522,4.19901238 5.81669625,3.15804263 7.61358952,2.72369004 C8.17754244,3.68538466 8.5,4.80503533 8.5,6 Z M9.5,2.5 C10.0012421,2.5 10.4917175,2.54609788 10.9674179,2.6342854 C11.619372,3.59420183 12,4.7526507 12,6 C12,6.28370792 11.980309,6.56281676 11.9422192,6.83603441 C11.1889792,7.60929793 10.2104112,8.16189652 9.11259316,8.38741295 C9.36381854,7.63652225 9.5,6.83416457 9.5,6 C9.5,4.75396086 9.19613695,3.57889273 8.65846954,2.54485431 C8.93399379,2.51487592 9.21525967,2.5 9.5,2.5 Z M4.78140567,0.123829667 C5.64333445,0.532409505 6.40099877,1.1250391 7.00366568,1.85095648 C5.32465548,2.33469559 3.84819316,3.29329816 2.72802339,4.5718869 C2.57970153,4.07435103 2.5,3.54648316 2.5,3 C2.5,2.23197792 2.65742022,1.5007233 2.94175466,0.836742136 C3.50268138,0.503881229 4.12232043,0.259803308 4.78140567,0.123829667 Z M6.53420401,0.0252949874 C7.85203186,0.140928869 9.04741004,0.682742765 9.9818685,1.51206914 C9.8223206,1.50426214 9.66165804,1.5 9.5,1.5 C9.01721495,1.5 8.54330849,1.53801377 8.08111049,1.61121143 C7.64751501,1.00937104 7.12519643,0.474492676 6.53420401,0.0252949874 Z"/>
  </defs>
  <use fill="#626E88" fill-rule="evenodd" transform="translate(2 2)" xlink:href="#network-server-symbolic-a"/>
</svg>
