<svg xmlns="http://www.w3.org/2000/svg" width="16" height="16" viewBox="0 0 16 16">
  <path fill="#626E88" fill-rule="evenodd" d="M5,0 C7.76142375,0 10,0.795015091 10,2 C10,2.09454049 9.39073689,4.84038633 8.17221066,10.2375375 L8.08619234,10.618381 C8.0275539,10.8780016 7.86783429,11.1035335 7.64240313,11.2450331 C6.8405486,11.7483444 5.95974756,12 5,12 C4.13619753,12 3.33634614,11.7961449 2.60044581,11.3884348 L2.35752828,11.2449589 C2.13212058,11.1034682 1.97241367,10.8779606 1.91376895,10.6183667 C0.637922982,4.97076767 0,2.09797878 0,2 C0,0.795015091 2.23857625,0 5,0 Z M5,1 C2.790861,1 1,1.44771525 1,2 C1,2.55228475 2.790861,3 5,3 C7.209139,3 9,2.55228475 9,2 C9,1.44771525 7.209139,1 5,1 Z" transform="translate(3 2)"/>
</svg>
