<svg xmlns="http://www.w3.org/2000/svg" width="16" height="16" viewBox="0 0 16 16">
  <path fill="#626E88" fill-rule="evenodd" d="M6,0 C9.3137085,0 12,0.927517607 12,2.33333333 C12,2.44424827 11.2606725,5.68309504 9.78201742,12.0498737 L9.68861237,12.451864 C9.6289802,12.7085364 9.47044588,12.9312968 9.24747157,13.0717216 C8.26482407,13.6905739 7.18233355,14 6,14 C4.91617954,14 3.91625723,13.739989 3.00023307,13.2199671 L2.75248331,13.0717045 C2.52951762,12.9312828 2.37098512,12.7085342 2.31134306,12.4518733 C0.770447686,5.82085682 0,2.44801015 0,2.33333333 C0,0.927517607 2.6862915,0 6,0 Z M6,1.16666667 C3.3490332,1.16666667 1.2,1.68900113 1.2,2.33333333 C1.2,2.97766554 3.3490332,3.5 6,3.5 C8.6509668,3.5 10.8,2.97766554 10.8,2.33333333 C10.8,1.68900113 8.6509668,1.16666667 6,1.16666667 Z" transform="translate(2 1)"/>
</svg>
