<?xml version="1.0" encoding="iso-8859-1"?>
<!-- Generator: Adobe Illustrator 18.0.0, SVG Export Plug-In . SVG Version: 6.00 Build 0)  -->
<!DOCTYPE svg PUBLIC "-//W3C//DTD SVG 1.1//EN" "http://www.w3.org/Graphics/SVG/1.1/DTD/svg11.dtd">
<svg version="1.1" id="&#x56FE;&#x5C42;_1" xmlns="http://www.w3.org/2000/svg" xmlns:xlink="http://www.w3.org/1999/xlink" x="0px"
	 y="0px" viewBox="0 0 32 32" style="enable-background:new 0 0 32 32;" xml:space="preserve">
<g>
	<path style="fill:#FFFFFF;" d="M25.192,27.725h-4.206c-0.236-0.183-0.411-0.435-0.526-0.757c-0.118-0.32-0.175-0.71-0.175-1.17
		c-0.819,0.736-1.813,1.286-2.979,1.652C16.137,27.817,14.91,28,13.626,28c-1.87,0-3.447-0.366-4.731-1.101
		c-1.287-0.734-1.928-1.79-1.928-3.166c0-1.377,0.583-2.478,1.752-3.304c1.166-0.826,2.979-1.376,5.432-1.652
		c1.635-0.183,3.067-0.413,4.293-0.688c1.227-0.275,1.84-0.641,1.84-1.101c0-0.551-0.263-1.101-0.789-1.652
		c-0.526-0.551-1.665-0.826-3.417-0.826c-1.402,0-2.426,0.207-3.067,0.619c-0.644,0.413-1.082,0.987-1.314,1.721H7.843
		c0.233-1.467,1.079-2.637,2.541-3.511c1.459-0.871,3.357-1.308,5.695-1.308c2.568,0,4.496,0.46,5.783,1.377
		c1.284,0.919,1.928,2.203,1.928,3.855v7.571c0,0.551,0.115,1.056,0.351,1.514C24.373,26.808,24.724,27.266,25.192,27.725z
		 M20.285,22.631v-2.753c-0.701,0.185-1.375,0.344-2.015,0.482c-0.643,0.138-1.725,0.299-3.242,0.482
		c-1.752,0.185-2.891,0.506-3.417,0.963c-0.526,0.46-0.789,1.011-0.789,1.652c0,0.551,0.263,1.033,0.789,1.445
		c0.526,0.413,1.314,0.62,2.366,0.62c1.051,0,2.191-0.228,3.417-0.688C18.621,24.376,19.584,23.642,20.285,22.631z"/>
</g>
</svg>
