<?xml version="1.0" encoding="utf-8"?>
<!-- Generator: Adobe Illustrator 16.0.0, SVG Export Plug-In . SVG Version: 6.00 Build 0)  -->
<!DOCTYPE svg PUBLIC "-//W3C//DTD SVG 1.0//EN" "http://www.w3.org/TR/2001/REC-SVG-20010904/DTD/svg10.dtd">
<svg version="1.0" id="图层_1" xmlns="http://www.w3.org/2000/svg" xmlns:xlink="http://www.w3.org/1999/xlink" x="0px" y="0px"
	 width="16px" height="16px" viewBox="0 0 16 16" enable-background="new 0 0 16 16" xml:space="preserve">
<path display="none" fill="#BEBEBE" d="M11.592773,15h2.390625L9.001953,1H7.009277L2.027344,15h2.391113l1.302246-4h4.569336
	L11.592773,15z M7.905762,4H8.10498l1.535645,5h-3.27002L7.905762,4z"/>
<g>
	<path fill="#BEBEBE" d="M12.021484,14.845703h-1.852539c-0.103516-0.103516-0.180664-0.245117-0.233398-0.427734
		c-0.049805-0.179688-0.076172-0.399414-0.076172-0.65918c-0.361328,0.415039-0.798828,0.725586-1.3125,0.930664
		C8.031738,14.896484,7.490723,15,6.924316,15c-0.822754,0-1.518555-0.205078-2.083984-0.621094
		c-0.566406-0.412109-0.850098-1.007813-0.850098-1.783203s0.256836-1.396484,0.773438-1.861328
		c0.51416-0.464844,1.312012-0.775391,2.39209-0.930664c0.721191-0.102539,1.352051-0.232422,1.89209-0.387695
		c0.541992-0.155273,0.811523-0.361328,0.811523-0.621582c0-0.30957-0.116211-0.620117-0.347656-0.930176
		C9.28125,7.553711,8.77832,7.398438,8.005859,7.398438c-0.617676,0-1.069336,0.116211-1.351074,0.349609
		C6.371094,7.980469,6.178223,8.304199,6.075684,8.717285H4.376465c0.102539-0.82666,0.476074-1.48584,1.119629-1.977539
		c0.643066-0.491211,1.47998-0.737305,2.509766-0.737305c1.131836,0,1.982422,0.259277,2.547852,0.775879
		c0.566406,0.517578,0.850586,1.240723,0.850586,2.171875v4.265625c0,0.310547,0.049805,0.595703,0.154297,0.853516
		C11.660156,14.329102,11.81543,14.586914,12.021484,14.845703z M9.859375,11.975586v-1.551758
		c-0.308594,0.104492-0.605469,0.193359-0.888672,0.271484c-0.282715,0.078125-0.759766,0.167969-1.427734,0.271484
		c-0.773438,0.104492-1.274414,0.285156-1.506836,0.542969c-0.230469,0.258789-0.347656,0.569336-0.347656,0.930664
		c0,0.310547,0.117188,0.582031,0.347656,0.814453c0.232422,0.232422,0.580566,0.349609,1.043457,0.349609
		c0.463379,0,0.965332-0.128906,1.505859-0.388672C9.126953,12.958008,9.550781,12.544922,9.859375,11.975586z"/>
</g>
</svg>
