<svg xmlns="http://www.w3.org/2000/svg" width="64" height="64" viewBox="0 0 64 64">
  <defs>
    <filter id="drive-harddisk-usb-64px-a" width="134.8%" height="129.6%" x="-17.4%" y="-14.8%" filterUnits="objectBoundingBox">
      <feOffset dy="1" in="SourceAlpha" result="shadowOffsetOuter1"/>
      <feGaussianBlur in="shadowOffsetOuter1" result="shadowBlurOuter1" stdDeviation="1.5"/>
      <feComposite in="shadowBlurOuter1" in2="SourceAlpha" operator="out" result="shadowBlurOuter1"/>
      <feColorMatrix in="shadowBlurOuter1" result="shadowMatrixOuter1" values="0 0 0 0 0   0 0 0 0 0   0 0 0 0 0  0 0 0 0.2 0"/>
      <feMerge>
        <feMergeNode in="shadowMatrixOuter1"/>
        <feMergeNode in="SourceGraphic"/>
      </feMerge>
    </filter>
    <linearGradient id="drive-harddisk-usb-64px-b" x1="102.549%" x2="-2.652%" y1="57.682%" y2="57.682%">
      <stop offset="0%" stop-color="#0067BC"/>
      <stop offset="4.571%" stop-color="#30EA7F"/>
      <stop offset="9.931%" stop-color="#00D887"/>
      <stop offset="88.945%" stop-color="#00B160"/>
      <stop offset="93.793%" stop-color="#00C165"/>
      <stop offset="100%" stop-color="#008CBD"/>
    </linearGradient>
    <linearGradient id="drive-harddisk-usb-64px-c" x1="100%" x2="0%" y1="56.43%" y2="56.43%">
      <stop offset="0%" stop-color="#FFF" stop-opacity=".5"/>
      <stop offset="8.389%" stop-color="#FFF"/>
      <stop offset="52.356%" stop-color="#FFF" stop-opacity=".8"/>
      <stop offset="88.168%" stop-color="#FFF"/>
      <stop offset="100%" stop-color="#FFF" stop-opacity=".5"/>
    </linearGradient>
    <radialGradient id="drive-harddisk-usb-64px-d" cx="48.239%" cy="19.103%" r="78.654%" fx="48.239%" fy="19.103%" gradientTransform="matrix(0 1 -.77841 0 .631 -.291)">
      <stop offset="0%" stop-color="#7CFFFE"/>
      <stop offset="100%" stop-color="#D6CDE6"/>
    </radialGradient>
    <linearGradient id="drive-harddisk-usb-64px-e" x1="50%" x2="50%" y1="0%" y2="100%">
      <stop offset="0%" stop-color="#0174FF"/>
      <stop offset="50.85%" stop-color="#01C2FF"/>
      <stop offset="100%" stop-color="#0056FF"/>
    </linearGradient>
    <radialGradient id="drive-harddisk-usb-64px-f" cx="50%" cy="37.643%" r="62.357%" fx="50%" fy="37.643%">
      <stop offset="0%" stop-color="#B0FF58"/>
      <stop offset="100%" stop-color="#37EC00"/>
    </radialGradient>
  </defs>
  <g fill="none" fill-rule="evenodd">
    <g filter="url(#drive-harddisk-usb-64px-a)" transform="translate(9 5)">
      <path fill="url(#drive-harddisk-usb-64px-b)" d="M-3.48450158e-10,7.99953111 C-3.48450158e-10,3.58151207 3.59038265,4.06657819e-10 7.99944794,4.06657819e-10 L38.0005511,4.06657819e-10 C42.4185242,4.06657819e-10 45.9999991,3.59057045 45.9999992,7.99953111 L46,47 L-3.48450158e-10,47 L-3.48450158e-10,7.99953111 Z"/>
      <path fill="url(#drive-harddisk-usb-64px-c)" stroke="#FFF" stroke-opacity=".5" d="M0.500000002,42.5067504 L0.500000003,47.4932498 C0.500000003,49.7139977 2.2843689,51.5000001 4.49442825,51.5000001 L41.5055718,51.4999999 C43.7152037,51.4999999 45.5,49.7086356 45.5,47.4932496 L45.5,42.5067503 C45.5,40.2860024 43.7156311,38.5 41.5055718,38.5 L4.49442825,38.5 C2.28479633,38.5 0.500000002,40.2913643 0.500000002,42.5067504 Z"/>
      <path fill="url(#drive-harddisk-usb-64px-d)" stroke="#003D9C" stroke-opacity=".2" d="M0.499999999,49 C0.499999999,51.4817034 2.51648624,53.5 4.99939301,53.5 L41.0006054,53.5 C43.4881479,53.5 45.4999984,51.4867694 45.4999984,49 C45.4999984,46.5182966 43.4835122,44.5 41.0006054,44.5 L4.99939301,44.5 C2.51185054,44.5 0.499999999,46.5132306 0.499999999,49 Z"/>
      <path fill="url(#drive-harddisk-usb-64px-e)" d="M30.5,47 C30.7761424,47 31,47.2150574 31,47.4904785 L31,50.5095215 C31,50.7503071 30.8167438,50.950568 30.5877486,50.9920977 L30.5,51 C30.2238576,51 30,50.7849426 30,50.5095215 L30,47.4904785 C30,47.2496929 30.1832562,47.049432 30.4122514,47.0079023 L30.5,47 Z M32.5,47 C32.7761424,47 33,47.2150574 33,47.4904785 L33,50.5095215 C33,50.7503071 32.8167438,50.950568 32.5877486,50.9920977 L32.5,51 C32.2238576,51 32,50.7849426 32,50.5095215 L32,47.4904785 C32,47.2496929 32.1832562,47.049432 32.4122514,47.0079023 L32.5,47 Z M34.5,47 C34.7761424,47 35,47.2150574 35,47.4904785 L35,50.5095215 C35,50.7503071 34.8167438,50.950568 34.5877486,50.9920977 L34.5,51 C34.2238576,51 34,50.7849426 34,50.5095215 L34,47.4904785 C34,47.2496929 34.1832562,47.049432 34.4122514,47.0079023 L34.5,47 Z M36.5,47 C36.7761424,47 37,47.2150574 37,47.4904785 L37,50.5095215 C37,50.7503071 36.8167438,50.950568 36.5877486,50.9920977 L36.5,51 C36.2238576,51 36,50.7849426 36,50.5095215 L36,47.4904785 C36,47.2496929 36.1832562,47.049432 36.4122514,47.0079023 L36.5,47 Z M38.5,47 C38.7761424,47 39,47.2150574 39,47.4904785 L39,50.5095215 C39,50.7503071 38.8167438,50.950568 38.5877486,50.9920977 L38.5,51 C38.2238576,51 38,50.7849426 38,50.5095215 L38,47.4904785 C38,47.2496929 38.1832562,47.049432 38.4122514,47.0079023 L38.5,47 Z M40.5,47 C40.7761424,47 41,47.2150574 41,47.4904785 L41,50.5095215 C41,50.7503071 40.8167438,50.950568 40.5877486,50.9920977 L40.5,51 C40.2238576,51 40,50.7849426 40,50.5095215 L40,47.4904785 C40,47.2496929 40.1832562,47.049432 40.4122514,47.0079023 L40.5,47 Z"/>
      <path fill="url(#drive-harddisk-usb-64px-f)" stroke="#54D800" d="M6,50.5 C6.82842712,50.5 7.5,49.8284271 7.5,49 C7.5,48.1715729 6.82842712,47.5 6,47.5 C5.17157288,47.5 4.5,48.1715729 4.5,49 C4.5,49.8284271 5.17157288,50.5 6,50.5 Z"/>
    </g>
    <g fill="#FFF" transform="translate(25.333 10.667)">
      <circle cx="7.167" cy="24.833" r="2.5"/>
      <polygon points="4.167 5.333 10.167 5.333 7.167 .333"/>
      <circle cx="2.657" cy="11.324" r="1.991"/>
      <polygon points="9.667 8.333 13.667 8.333 13.667 12.333 9.667 12.333"/>
      <polygon points="7.667 3.333 6.667 3.333 6.667 23.074 6.667 25.333 7.667 25.333"/>
      <path d="M11.4026667 10.132L11.4026667 13.3493333C11.4026667 13.8826667 11.3413333 14.092 10.9186667 14.4946667L7.26266667 17.056 7.26266667 18.152 11.5333333 15.0573333C11.5333333 15.0573333 12.2693333 14.616 12.2693333 13.42L12.2666667 13.42 12.2666667 10.1306667 11.4026667 10.1306667 11.4026667 10.132zM3.18266667 13.2093333L3.18266667 16.3626667C3.18266667 16.8853333 3.244 17.0906667 3.66666667 17.4853333L7.32266667 19.996 7.32266667 21.0706667 3.052 18.0373333C3.052 18.0373333 2.316 17.604 2.316 16.4333333L2.32 16.4333333 2.32 13.2106667 3.18266667 13.2106667 3.18266667 13.2093333z"/>
    </g>
  </g>
</svg>
