<svg xmlns="http://www.w3.org/2000/svg" xmlns:xlink="http://www.w3.org/1999/xlink" width="96" height="96" viewBox="0 0 96 96">
  <defs>
    <linearGradient id="deepin-launcher-c" x1="50%" x2="50%" y1="4.64%" y2="97.178%">
      <stop offset="0%" stop-color="#00ABFF"/>
      <stop offset="100%" stop-color="#0163FA"/>
    </linearGradient>
    <linearGradient id="deepin-launcher-d" x1="50%" x2="50%" y1="0%" y2="100%">
      <stop offset="0%" stop-color="#32BBFF"/>
      <stop offset="100%" stop-color="#004FC5"/>
    </linearGradient>
    <path id="deepin-launcher-b" d="M6,48 C6,24.804 24.804,6 48,6 C71.196,6 90,24.804 90,48 C90,71.196 71.196,90 48,90 C24.804,90 6,71.196 6,48 Z"/>
    <filter id="deepin-launcher-a" width="116.7%" height="116.7%" x="-8.3%" y="-6%" filterUnits="objectBoundingBox">
      <feOffset dy="2" in="SourceAlpha" result="shadowOffsetOuter1"/>
      <feGaussianBlur in="shadowOffsetOuter1" result="shadowBlurOuter1" stdDeviation="2"/>
      <feComposite in="shadowBlurOuter1" in2="SourceAlpha" operator="out" result="shadowBlurOuter1"/>
      <feColorMatrix in="shadowBlurOuter1" values="0 0 0 0 0   0 0 0 0 0   0 0 0 0 0  0 0 0 0.2 0"/>
    </filter>
    <path id="deepin-launcher-f" d="M62.9137536,16.0483403 C58.5090899,14.088937 53.6316876,13 48.5,13 C46.4547902,13 44.4499707,13.1729649 42.4993705,13.5050647 C37.6426739,20.8963887 35.1363162,32.2545922 35.344196,39.3085161 C35.344196,39.3085161 34.9998069,50.1724242 42.3026608,54.0258017 C42.3026608,54.0258017 48.8656044,56.9602251 53.3381512,47.4716333 C53.3381512,47.4716333 56.4120873,42.1167779 55.1608569,30.014618 C55.1608569,30.014618 56.3579475,30.2295598 56.4932969,30.422696 C56.6286463,30.6142746 59.1371225,39.7399573 57.3745721,47.4249068 C57.3745721,47.4249068 55.7518828,56.455579 47.7737856,58.5208897 C39.7986963,60.5862004 33.5831495,55.5895815 29.3632549,50.8826668 C26.3419549,47.5128485 21.9130708,38.6825614 19.5337827,27.9723572 C15.4190417,33.7680556 13,40.8520052 13,48.5008063 C13,53.8343379 14.1762293,58.8931413 16.2834457,63.4319799 C24.0121915,65.7368942 44.2117859,70.4111208 57.0248017,61.0206078 C65.4387091,54.8529514 64.3546066,44.9758994 64.3546066,44.9758994 C64.2153085,37.4628013 59.6411832,30 59.6411832,30 C77.4274295,46.0902899 66.9149661,63.9661195 66.9149661,63.9661195 C61.8684012,74.2736826 51.3285185,80.7504048 42.3407552,83.4676151 C44.3412303,83.817544 46.3993063,84 48.5,84 C68.1061773,84 84,68.1065383 84,48.5008063 C84,40.0172948 81.0241713,32.2286458 76.0594541,26.1218775 C74.2785083,26.2495388 72.1881393,26.3272986 70.0164253,26.2560259 C70.0164253,26.2560259 60.5534461,26.6979316 55.2471634,29.3445967 C55.2471634,29.3445967 51.2901832,31.1090401 47.3348268,34.1006459 C47.3348268,34.1006459 46.495369,34.5202973 46.5359617,36.0621983 C46.5716833,37.5993305 45.7306018,41.69729 42.9280791,44.0991585 C42.9280791,44.0991585 40.927669,45.1276223 41.927874,46.5995814 C41.927874,46.5995814 43.2788004,48.5611338 45.1817879,46.5010269 C45.1817879,46.5010269 50.0886382,41.4524934 50.3890244,33.3169787 C50.3890244,33.3169787 51.9412907,31.9912618 54.3930921,31.600223 C54.3930921,31.600223 54.8444834,43.8050846 48.7880468,49.9329488 C48.7880468,49.9329488 43.0271254,56.2070552 41.1760965,46.8936553 C41.1760965,46.8936553 38.9223877,38.0205715 50.5400294,27.4831884 C50.5400294,27.4831884 58.3027609,19.7307412 62.9137536,16.0483403 Z M48,87 C26.4608262,87 9,69.5395344 9,48.0008053 C9,26.4617928 26.4611097,9 48,9 C69.5388903,9 87,26.4617928 87,48.0008053 C87,69.5395344 69.5391738,87 48,87 Z"/>
    <filter id="deepin-launcher-e" width="101.3%" height="102.6%" x="-.6%" y="-.6%" filterUnits="objectBoundingBox">
      <feOffset dy="1" in="SourceAlpha" result="shadowOffsetOuter1"/>
      <feColorMatrix in="shadowOffsetOuter1" values="0 0 0 0 0   0 0 0 0 0   0 0 0 0 0  0 0 0 0.1 0"/>
    </filter>
    <filter id="deepin-launcher-g" width="101.3%" height="102.6%" x="-.6%" y="-.6%" filterUnits="objectBoundingBox">
      <feOffset dy="1" in="SourceAlpha" result="shadowOffsetInner1"/>
      <feComposite in="shadowOffsetInner1" in2="SourceAlpha" k2="-1" k3="1" operator="arithmetic" result="shadowInnerInner1"/>
      <feColorMatrix in="shadowInnerInner1" values="0 0 0 0 1   0 0 0 0 1   0 0 0 0 1  0 0 0 1 0"/>
    </filter>
  </defs>
  <g fill="none" fill-rule="evenodd">
    <use fill="#000" filter="url(#deepin-launcher-a)" xlink:href="#deepin-launcher-b"/>
    <path fill="url(#deepin-launcher-c)" stroke="url(#deepin-launcher-d)" stroke-linejoin="square" d="M6.5,48 C6.5,70.9198576 25.0801424,89.5 48,89.5 C70.9198576,89.5 89.5,70.9198576 89.5,48 C89.5,25.0801424 70.9198576,6.5 48,6.5 C25.0801424,6.5 6.5,25.0801424 6.5,48 Z"/>
    <g fill-rule="nonzero">
      <use fill="#000" filter="url(#deepin-launcher-e)" xlink:href="#deepin-launcher-f"/>
      <use fill="#F0F9FF" xlink:href="#deepin-launcher-f"/>
      <use fill="#000" filter="url(#deepin-launcher-g)" xlink:href="#deepin-launcher-f"/>
    </g>
  </g>
</svg>
