<svg xmlns="http://www.w3.org/2000/svg" xmlns:xlink="http://www.w3.org/1999/xlink" width="256" height="256" viewBox="0 0 256 256">
  <defs>
    <linearGradient id="application-x-nzb-c" x1="50%" x2="50%" y1="0%" y2="100%">
      <stop offset="0%" stop-color="#549807"/>
      <stop offset="100%" stop-color="#458300"/>
    </linearGradient>
    <path id="application-x-nzb-b" d="M168,190 C168,199.941125 159.941125,208 150,208 L18,208 C8.0588745,208 1.21743675e-15,199.941125 0,190 L0,18 C-1.21743675e-15,8.0588745 8.0588745,1.82615513e-15 18,0 L116,0 L168,52 L168,190 Z"/>
    <filter id="application-x-nzb-a" width="113.7%" height="111.1%" x="-6.8%" y="-4.6%" filterUnits="objectBoundingBox">
      <feOffset dy="2" in="SourceAlpha" result="shadowOffsetOuter1"/>
      <feGaussianBlur in="shadowOffsetOuter1" result="shadowBlurOuter1" stdDeviation="3.5"/>
      <feColorMatrix in="shadowBlurOuter1" values="0 0 0 0 0.286130341   0 0 0 0 0.419214221   0 0 0 0 0  0 0 0 0.2 0"/>
    </filter>
    <linearGradient id="application-x-nzb-f" x1="50%" x2="7.994%" y1="50%" y2="88.893%">
      <stop offset="0%" stop-color="#FFF" stop-opacity=".1"/>
      <stop offset="100%" stop-color="#FFF" stop-opacity=".3"/>
    </linearGradient>
    <path id="application-x-nzb-e" d="M116,0 L168,52 L134,52 C124.058875,52 116,43.9411255 116,34 L116,0 L116,0 Z"/>
    <filter id="application-x-nzb-d" width="144.2%" height="144.2%" x="-22.1%" y="-18.3%" filterUnits="objectBoundingBox">
      <feOffset dy="2" in="SourceAlpha" result="shadowOffsetOuter1"/>
      <feGaussianBlur in="shadowOffsetOuter1" result="shadowBlurOuter1" stdDeviation="3.5"/>
      <feComposite in="shadowBlurOuter1" in2="SourceAlpha" operator="out" result="shadowBlurOuter1"/>
      <feColorMatrix in="shadowBlurOuter1" values="0 0 0 0 0   0 0 0 0 0   0 0 0 0 0  0 0 0 0.05 0"/>
    </filter>
  </defs>
  <g fill="none" fill-rule="evenodd">
    <g transform="translate(44 28)">
      <use fill="#000" filter="url(#application-x-nzb-a)" xlink:href="#application-x-nzb-b"/>
      <use fill="url(#application-x-nzb-c)" xlink:href="#application-x-nzb-b"/>
      <use fill="#000" filter="url(#application-x-nzb-d)" xlink:href="#application-x-nzb-e"/>
      <use fill="url(#application-x-nzb-f)" xlink:href="#application-x-nzb-e"/>
    </g>
    <path fill="#FFF" fill-opacity=".6" d="M112,96 L116,96 L116,84 L112,84 L112,96 Z M140,88 L144,88 L144,84 L140,84 L140,88 Z M132,88 L132,96 L124,96 L124,100 L116,100 L116,112 L124,112 L124,104 L140,104 L140,88 L132,88 Z M128,116 L132,116 L132,120 L144,120 L144,112 L128,112 L128,116 Z M112,120 L112,132 L112,148 L96,148 L128,180 L160,148 L144,148 L144,132 L132,132 L132,128 L124,128 L124,120 L112,120 Z"/>
  </g>
</svg>
