<svg xmlns="http://www.w3.org/2000/svg" xmlns:xlink="http://www.w3.org/1999/xlink" width="256" height="256" viewBox="0 0 256 256">
  <defs>
    <linearGradient id="application-x-flash-video-c" x1="50%" x2="50%" y1="0%" y2="100%">
      <stop offset="0%" stop-color="#E03A39"/>
      <stop offset="100%" stop-color="#A42F14"/>
    </linearGradient>
    <path id="application-x-flash-video-b" d="M168,190 C168,199.941125 159.941125,208 150,208 L18,208 C8.0588745,208 1.21743675e-15,199.941125 0,190 L0,18 C-1.21743675e-15,8.0588745 8.0588745,1.82615513e-15 18,0 L116,0 L168,52 L168,190 Z"/>
    <filter id="application-x-flash-video-a" width="113.7%" height="111.1%" x="-6.8%" y="-4.6%" filterUnits="objectBoundingBox">
      <feOffset dy="2" in="SourceAlpha" result="shadowOffsetOuter1"/>
      <feGaussianBlur in="shadowOffsetOuter1" result="shadowBlurOuter1" stdDeviation="3.5"/>
      <feColorMatrix in="shadowBlurOuter1" values="0 0 0 0 0.662745098   0 0 0 0 0.105882353   0 0 0 0 0  0 0 0 0.2 0"/>
    </filter>
    <linearGradient id="application-x-flash-video-f" x1="50%" x2="7.994%" y1="50%" y2="88.893%">
      <stop offset="0%" stop-color="#FFF" stop-opacity=".1"/>
      <stop offset="100%" stop-color="#FFF" stop-opacity=".3"/>
    </linearGradient>
    <path id="application-x-flash-video-e" d="M116,0 L168,52 L134,52 C124.058875,52 116,43.9411255 116,34 L116,0 L116,0 Z"/>
    <filter id="application-x-flash-video-d" width="144.2%" height="144.2%" x="-22.1%" y="-18.3%" filterUnits="objectBoundingBox">
      <feOffset dy="2" in="SourceAlpha" result="shadowOffsetOuter1"/>
      <feGaussianBlur in="shadowOffsetOuter1" result="shadowBlurOuter1" stdDeviation="3.5"/>
      <feComposite in="shadowBlurOuter1" in2="SourceAlpha" operator="out" result="shadowBlurOuter1"/>
      <feColorMatrix in="shadowBlurOuter1" values="0 0 0 0 0   0 0 0 0 0   0 0 0 0 0  0 0 0 0.05 0"/>
    </filter>
  </defs>
  <g fill="none" fill-rule="evenodd">
    <g transform="translate(44 28)">
      <use fill="#000" filter="url(#application-x-flash-video-a)" xlink:href="#application-x-flash-video-b"/>
      <use fill="url(#application-x-flash-video-c)" xlink:href="#application-x-flash-video-b"/>
      <use fill="#000" filter="url(#application-x-flash-video-d)" xlink:href="#application-x-flash-video-e"/>
      <use fill="url(#application-x-flash-video-f)" xlink:href="#application-x-flash-video-e"/>
    </g>
    <path fill="#FFF" fill-opacity=".6" d="M164,108 C140,108 134.800003,132 134.800003,132 L156,132 L156,152 L129.600006,152 C114,192 84,188 84,188 L84,172 C84,172 106,170 116,132 C128.574614,84.2164652 164,92 164,92 L164,108 Z"/>
  </g>
</svg>
