<svg xmlns="http://www.w3.org/2000/svg" xmlns:xlink="http://www.w3.org/1999/xlink" width="256" height="256" viewBox="0 0 256 256">
  <defs>
    <linearGradient id="image-x-eps-c" x1="50%" x2="50%" y1="0%" y2="99.372%">
      <stop offset="0%" stop-color="#BB8200"/>
      <stop offset="100%" stop-color="#916500"/>
    </linearGradient>
    <path id="image-x-eps-b" d="M168,190 C168,199.941125 159.941125,208 150,208 L18,208 C8.0588745,208 1.21743675e-15,199.941125 0,190 L0,18 C-1.21743675e-15,8.0588745 8.0588745,1.82615513e-15 18,0 L116,0 L168,52 L168,190 Z"/>
    <filter id="image-x-eps-a" width="113.7%" height="111.1%" x="-6.8%" y="-4.6%" filterUnits="objectBoundingBox">
      <feOffset dy="2" in="SourceAlpha" result="shadowOffsetOuter1"/>
      <feGaussianBlur in="shadowOffsetOuter1" result="shadowBlurOuter1" stdDeviation="3.5"/>
      <feColorMatrix in="shadowBlurOuter1" values="0 0 0 0 0.874509804   0 0 0 0 0.498039216   0 0 0 0 0.0588235294  0 0 0 0.2 0"/>
    </filter>
    <linearGradient id="image-x-eps-f" x1="50%" x2="7.994%" y1="50%" y2="88.893%">
      <stop offset="0%" stop-color="#FFF" stop-opacity=".1"/>
      <stop offset="100%" stop-color="#FFF" stop-opacity=".3"/>
    </linearGradient>
    <path id="image-x-eps-e" d="M116,0 L168,52 L134,52 C124.058875,52 116,43.9411255 116,34 L116,0 L116,0 Z"/>
    <filter id="image-x-eps-d" width="144.2%" height="144.2%" x="-22.1%" y="-18.3%" filterUnits="objectBoundingBox">
      <feOffset dy="2" in="SourceAlpha" result="shadowOffsetOuter1"/>
      <feGaussianBlur in="shadowOffsetOuter1" result="shadowBlurOuter1" stdDeviation="3.5"/>
      <feComposite in="shadowBlurOuter1" in2="SourceAlpha" operator="out" result="shadowBlurOuter1"/>
      <feColorMatrix in="shadowBlurOuter1" values="0 0 0 0 0   0 0 0 0 0   0 0 0 0 0  0 0 0 0.05 0"/>
    </filter>
  </defs>
  <g fill="none" fill-rule="evenodd">
    <g transform="translate(44 28)">
      <g opacity=".9">
        <use fill="#000" filter="url(#image-x-eps-a)" xlink:href="#image-x-eps-b"/>
        <use fill="url(#image-x-eps-c)" xlink:href="#image-x-eps-b"/>
      </g>
      <use fill="#000" filter="url(#image-x-eps-d)" xlink:href="#image-x-eps-e"/>
      <use fill="url(#image-x-eps-f)" xlink:href="#image-x-eps-e"/>
    </g>
    <path fill="#FFF" fill-opacity=".6" d="M124,100.102056 L148,176.102056 L138.399994,176.102056 L133.199997,160 L102.800003,160 L97.5999985,176 L88,176.102056 L112,100.102056 L124,100.102056 Z M164,132 L164,176 L156,176 L156,132 L164,132 Z M118,110 L104.800003,152 L130.800003,152 L118,110 Z M164,120 L164,128 L156,128 L156,120 L164,120 Z"/>
  </g>
</svg>
