<svg xmlns="http://www.w3.org/2000/svg" xmlns:xlink="http://www.w3.org/1999/xlink" width="256" height="256" viewBox="0 0 256 256">
  <defs>
    <linearGradient id="image-ico-c" x1="50%" x2="50%" y1="0%" y2="100%">
      <stop offset="0%" stop-color="#079473"/>
      <stop offset="100%" stop-color="#005F56"/>
    </linearGradient>
    <path id="image-ico-b" d="M168,190 C168,199.941125 159.941125,208 150,208 L18,208 C8.0588745,208 1.21743675e-15,199.941125 0,190 L0,18 C-1.21743675e-15,8.0588745 8.0588745,1.82615513e-15 18,0 L116,0 L168,52 L168,190 Z"/>
    <filter id="image-ico-a" width="113.7%" height="111.1%" x="-6.8%" y="-4.6%" filterUnits="objectBoundingBox">
      <feOffset dy="2" in="SourceAlpha" result="shadowOffsetOuter1"/>
      <feGaussianBlur in="shadowOffsetOuter1" result="shadowBlurOuter1" stdDeviation="3.5"/>
      <feColorMatrix in="shadowBlurOuter1" values="0 0 0 0 0.147857706   0 0 0 0 0.486158288   0 0 0 0 0.406731195  0 0 0 0.2 0"/>
    </filter>
    <linearGradient id="image-ico-f" x1="50%" x2="7.994%" y1="50%" y2="88.893%">
      <stop offset="0%" stop-color="#FFF" stop-opacity=".1"/>
      <stop offset="100%" stop-color="#FFF" stop-opacity=".3"/>
    </linearGradient>
    <path id="image-ico-e" d="M116,0 L168,52 L134,52 C124.058875,52 116,43.9411255 116,34 L116,0 L116,0 Z"/>
    <filter id="image-ico-d" width="144.2%" height="144.2%" x="-22.1%" y="-18.3%" filterUnits="objectBoundingBox">
      <feOffset dy="2" in="SourceAlpha" result="shadowOffsetOuter1"/>
      <feGaussianBlur in="shadowOffsetOuter1" result="shadowBlurOuter1" stdDeviation="3.5"/>
      <feComposite in="shadowBlurOuter1" in2="SourceAlpha" operator="out" result="shadowBlurOuter1"/>
      <feColorMatrix in="shadowBlurOuter1" values="0 0 0 0 0   0 0 0 0 0   0 0 0 0 0  0 0 0 0.05 0"/>
    </filter>
  </defs>
  <g fill="none" fill-rule="evenodd">
    <g transform="translate(44 28)">
      <use fill="#000" filter="url(#image-ico-a)" xlink:href="#image-ico-b"/>
      <use fill="url(#image-ico-c)" xlink:href="#image-ico-b"/>
      <use fill="#000" filter="url(#image-ico-d)" xlink:href="#image-ico-e"/>
      <use fill="url(#image-ico-f)" xlink:href="#image-ico-e"/>
    </g>
    <path fill="#FFF" fill-opacity=".6" d="M124.264131,176 C127.704669,176 130.920278,177.359968 133.219443,179.697647 L133.462243,179.951837 L130,182 C128.608714,180.500165 126.404488,180 124.264131,180 C120.255326,180 116.157636,183.653856 116.004434,187.469178 L116,187.689447 L116,192.310553 C116,196.201084 120.194502,200 124.264131,200 C126.389321,200 128.428652,199.607669 129.815047,198.198518 L130,198 L133.666825,199.84173 C131.356688,202.46029 127.948829,204 124.264131,204 C117.588225,204 112.169043,198.936671 112.003879,192.608116 L112,192.310553 L112,187.689447 C112,181.223725 117.463299,176 124.264131,176 Z M148,176 C154.532128,176 159.834598,181.063329 159.996205,187.391884 L160,187.689447 L160,192.310553 C160,198.776275 154.654363,204 148,204 C141.467872,204 136.165402,198.936671 136.003795,192.608116 L136,192.310553 L136,187.689447 C136,181.223725 141.345637,176 148,176 Z M108,176 L108,204 L104,204 L104,176 L108,176 Z M148,180 C143.643314,180 140.137169,183.224874 140.003928,187.284652 L140,187.524408 L140,192.475592 C140,196.644019 143.575576,200 148,200 C152.356686,200 155.862831,196.775126 155.996072,192.715348 L156,192.475592 L156,187.524408 C156,183.355981 152.424424,180 148,180 Z M171.829333,92 L171.829333,164 L83.8293333,164 L83.8293333,92 L171.829333,92 Z M167.504,96 L87.504,96 L88,160 L168,160 L167.504,96 Z M118,104 L132,134 L140,118 L164,155.972447 L92,156.016 L118,104 Z"/>
  </g>
</svg>
