<svg xmlns="http://www.w3.org/2000/svg" xmlns:xlink="http://www.w3.org/1999/xlink" width="256" height="256" viewBox="0 0 256 256">
  <defs>
    <path id="text-richtext-b" d="M168,190 C168,199.941125 159.941125,208 150,208 L18,208 C8.0588745,208 1.21743675e-15,199.941125 0,190 L0,18 C-1.21743675e-15,8.0588745 8.0588745,1.82615513e-15 18,0 L116,0 L168,52 L168,190 Z"/>
    <filter id="text-richtext-a" width="114.3%" height="111.5%" x="-7.1%" y="-4.8%" filterUnits="objectBoundingBox">
      <feMorphology in="SourceAlpha" operator="dilate" radius=".5" result="shadowSpreadOuter1"/>
      <feOffset dy="2" in="shadowSpreadOuter1" result="shadowOffsetOuter1"/>
      <feGaussianBlur in="shadowOffsetOuter1" result="shadowBlurOuter1" stdDeviation="3.5"/>
      <feComposite in="shadowBlurOuter1" in2="SourceAlpha" operator="out" result="shadowBlurOuter1"/>
      <feColorMatrix in="shadowBlurOuter1" values="0 0 0 0 0   0 0 0 0 0   0 0 0 0 0  0 0 0 0.3 0"/>
    </filter>
    <linearGradient id="text-richtext-e" x1="50%" x2="7.994%" y1="50%" y2="88.893%">
      <stop offset="0%" stop-color="#FFF" stop-opacity=".1"/>
      <stop offset="100%" stop-color="#FFF" stop-opacity=".3"/>
    </linearGradient>
    <path id="text-richtext-d" d="M116,0 L168,52 L134,52 C124.058875,52 116,43.9411255 116,34 L116,0 L116,0 Z"/>
    <filter id="text-richtext-c" width="144.2%" height="144.2%" x="-22.1%" y="-18.3%" filterUnits="objectBoundingBox">
      <feOffset dy="2" in="SourceAlpha" result="shadowOffsetOuter1"/>
      <feGaussianBlur in="shadowOffsetOuter1" result="shadowBlurOuter1" stdDeviation="3.5"/>
      <feComposite in="shadowBlurOuter1" in2="SourceAlpha" operator="out" result="shadowBlurOuter1"/>
      <feColorMatrix in="shadowBlurOuter1" values="0 0 0 0 0   0 0 0 0 0   0 0 0 0 0  0 0 0 0.05 0"/>
    </filter>
  </defs>
  <g fill="none" fill-rule="evenodd">
    <g transform="translate(44 28)">
      <use fill="#000" filter="url(#text-richtext-a)" xlink:href="#text-richtext-b"/>
      <path fill="#ADADAD" stroke="#000" stroke-opacity=".2" stroke-width=".5" d="M168.25,190 C168.25,200.079197 160.079197,208.25 150,208.25 L18,208.25 C7.92080332,208.25 -0.25,200.079197 -0.25,190 L-0.25,18 C-0.25,7.92080332 7.92080332,-0.25 18,-0.25 L116,-0.25 L116.176777,-0.176776695 L168.176777,51.8232233 L168.25,52 L168.25,190 Z"/>
      <use fill="#000" filter="url(#text-richtext-c)" xlink:href="#text-richtext-d"/>
      <use fill="url(#text-richtext-e)" xlink:href="#text-richtext-d"/>
    </g>
    <path fill="#4E59BA" d="M184 120L184 124 72 124 72 120 184 120zM184 144L184 148 72 148 72 144 184 144zM184 168L184 172 72 172 72 168 184 168zM128 192L128 196 72 196 72 192 128 192zM136 192L136 196 132 196 132 192 136 192zM115.996669 80C120.414557 80 124 83.5862349 124 88 124 90.3920557 122.95313 92.5374278 121.291136 94.0028795 122.952039 95.4694324 124 97.61378 124 100 124 104.337969 120.55711 107.864658 116.246313 107.996196L115.996669 108 104 108 104 80 115.996669 80zM90.1545472 80L100 108 95.8000031 108 94.3999939 104 81.6000061 104 80.1999969 108 76 108 86 80 90.1545472 80zM140.264131 80C143.827545 80 147.149677 81.4588437 149.462243 83.9518368L149.462243 83.9518368 146 86C144.608714 84.500165 142.404488 84 140.264131 84 136.178234 84 132 87.7957404 132 91.689447L132 91.689447 132 96.310553C132 100.201084 136.194502 104 140.264131 104 142.48592 104 144.613869 103.571192 146 102L146 102 149.666825 103.84173C147.356688 106.46029 143.948829 108 140.264131 108 133.483914 108 128 102.777205 128 96.310553L128 96.310553 128 91.689447C128 85.2237254 133.463299 80 140.264131 80zM115.996669 96L108 96 108 104 115.996669 104C118.213772 104 120 102.212759 120 100 120 97.7951761 118.205221 96 115.996669 96zM88 85.1999969L82.8000031 100 93.1999969 100 88 85.1999969zM115.996669 84L108 84 108 92 115.996669 92C118.213772 92 120 90.2127593 120 88 120 85.7951761 118.205221 84 115.996669 84z"/>
  </g>
</svg>
