<svg xmlns="http://www.w3.org/2000/svg" xmlns:xlink="http://www.w3.org/1999/xlink" width="256" height="256" viewBox="0 0 256 256">
  <defs>
    <linearGradient id="video-x-mp4-c" x1="50%" x2="50%" y1="0%" y2="100%">
      <stop offset="0%" stop-color="#005CC2"/>
      <stop offset="100%" stop-color="#004DA3"/>
    </linearGradient>
    <path id="video-x-mp4-b" d="M168,190 C168,199.941125 159.941125,208 150,208 L18,208 C8.0588745,208 1.21743675e-15,199.941125 0,190 L0,18 C-1.21743675e-15,8.0588745 8.0588745,1.82615513e-15 18,0 L116,0 L168,52 L168,190 Z"/>
    <filter id="video-x-mp4-a" width="113.7%" height="111.1%" x="-6.8%" y="-4.6%" filterUnits="objectBoundingBox">
      <feOffset dy="2" in="SourceAlpha" result="shadowOffsetOuter1"/>
      <feGaussianBlur in="shadowOffsetOuter1" result="shadowBlurOuter1" stdDeviation="3.5"/>
      <feColorMatrix in="shadowBlurOuter1" values="0 0 0 0 0.22745098   0 0 0 0 0.494117647   0 0 0 0 0.960784314  0 0 0 0.2 0"/>
    </filter>
    <linearGradient id="video-x-mp4-f" x1="50%" x2="7.994%" y1="50%" y2="88.893%">
      <stop offset="0%" stop-color="#FFF" stop-opacity=".1"/>
      <stop offset="100%" stop-color="#FFF" stop-opacity=".3"/>
    </linearGradient>
    <path id="video-x-mp4-e" d="M116,0 L168,52 L134,52 C124.058875,52 116,43.9411255 116,34 L116,0 L116,0 Z"/>
    <filter id="video-x-mp4-d" width="144.2%" height="144.2%" x="-22.1%" y="-18.3%" filterUnits="objectBoundingBox">
      <feOffset dy="2" in="SourceAlpha" result="shadowOffsetOuter1"/>
      <feGaussianBlur in="shadowOffsetOuter1" result="shadowBlurOuter1" stdDeviation="3.5"/>
      <feComposite in="shadowBlurOuter1" in2="SourceAlpha" operator="out" result="shadowBlurOuter1"/>
      <feColorMatrix in="shadowBlurOuter1" values="0 0 0 0 0   0 0 0 0 0   0 0 0 0 0  0 0 0 0.05 0"/>
    </filter>
  </defs>
  <g fill="none" fill-rule="evenodd">
    <g transform="translate(44 28)">
      <use fill="#000" filter="url(#video-x-mp4-a)" xlink:href="#video-x-mp4-b"/>
      <use fill="url(#video-x-mp4-c)" xlink:href="#video-x-mp4-b"/>
      <use fill="#000" filter="url(#video-x-mp4-d)" xlink:href="#video-x-mp4-e"/>
      <use fill="url(#video-x-mp4-f)" xlink:href="#video-x-mp4-e"/>
    </g>
    <path fill="#FFF" fill-opacity=".6" d="M139,183 C144.522847,183 147,187 147,191 C147,195 144.561352,199 139,199 L131.004624,199 L131.004624,211 L127,211 L127,183 L139,183 Z M163,183 L163,201 L167,201 L167,205 L163,205 L163,211 L159,211 L159,205 L147,205 L147,201 C147,201 158.265625,183 158.5,183 L163,183 Z M99,183 L109,202 L119,183 L123,183 L123,211 L119,211 L119,193 L111,207 L107,207 L99,193 L99,211 L95,211 L95,183 L99,183 Z M159,189.545 L152,201 L159,201 L159,189.545 Z M139,187 L131,187 L131,195 L139,195 C141.224351,195 143,193.219616 143,191 C143,188.775649 141.219616,187 139,187 Z M128,73 C153.957383,73 175,94.0426168 175,120 C175,145.957383 153.957383,167 128,167 C102.042617,167 81,145.957383 81,120 C81,94.0426168 102.042617,73 128,73 Z M128,79 C105.356325,79 87,97.3563253 87,120 C87,142.643675 105.356325,161 128,161 C150.643675,161 169,142.643675 169,120 C169,97.3563253 150.643675,79 128,79 Z M114.197333,92.2122788 L136.96,105.421683 L159.162667,118.575538 C160.245333,119.214345 160.245333,120.841912 159.162667,121.475164 L136.869333,134.579026 L114.197333,147.78843 C113.130667,148.405017 112,147.599565 112,146.333062 L112,93.6676463 C112,92.3955885 113.130667,91.5956918 114.197333,92.2122788 Z"/>
  </g>
</svg>
