<svg xmlns="http://www.w3.org/2000/svg" xmlns:xlink="http://www.w3.org/1999/xlink" width="256" height="256" viewBox="0 0 256 256">
  <defs>
    <linearGradient id="x-dia-diagram-c" x1="50%" x2="50%" y1="0%" y2="100%">
      <stop offset="0%" stop-color="#287500"/>
      <stop offset="100%" stop-color="#1E5800"/>
    </linearGradient>
    <path id="x-dia-diagram-b" d="M168,190 C168,199.941125 159.941125,208 150,208 L18,208 C8.0588745,208 1.21743675e-15,199.941125 0,190 L0,18 C-1.21743675e-15,8.0588745 8.0588745,1.82615513e-15 18,0 L116,0 L168,52 L168,190 Z"/>
    <filter id="x-dia-diagram-a" width="113.7%" height="111.1%" x="-6.8%" y="-4.6%" filterUnits="objectBoundingBox">
      <feOffset dy="2" in="SourceAlpha" result="shadowOffsetOuter1"/>
      <feGaussianBlur in="shadowOffsetOuter1" result="shadowBlurOuter1" stdDeviation="3.5"/>
      <feColorMatrix in="shadowBlurOuter1" values="0 0 0 0 0.286130341   0 0 0 0 0.419214221   0 0 0 0 0  0 0 0 0.2 0"/>
    </filter>
    <linearGradient id="x-dia-diagram-f" x1="50%" x2="7.994%" y1="50%" y2="88.893%">
      <stop offset="0%" stop-color="#FFF" stop-opacity=".1"/>
      <stop offset="100%" stop-color="#FFF" stop-opacity=".3"/>
    </linearGradient>
    <path id="x-dia-diagram-e" d="M116,0 L168,52 L134,52 C124.058875,52 116,43.9411255 116,34 L116,0 L116,0 Z"/>
    <filter id="x-dia-diagram-d" width="144.2%" height="144.2%" x="-22.1%" y="-18.3%" filterUnits="objectBoundingBox">
      <feOffset dy="2" in="SourceAlpha" result="shadowOffsetOuter1"/>
      <feGaussianBlur in="shadowOffsetOuter1" result="shadowBlurOuter1" stdDeviation="3.5"/>
      <feComposite in="shadowBlurOuter1" in2="SourceAlpha" operator="out" result="shadowBlurOuter1"/>
      <feColorMatrix in="shadowBlurOuter1" values="0 0 0 0 0   0 0 0 0 0   0 0 0 0 0  0 0 0 0.05 0"/>
    </filter>
  </defs>
  <g fill="none" fill-rule="evenodd">
    <g transform="translate(44 28)">
      <use fill="#000" filter="url(#x-dia-diagram-a)" xlink:href="#x-dia-diagram-b"/>
      <use fill="url(#x-dia-diagram-c)" xlink:href="#x-dia-diagram-b"/>
      <use fill="#000" filter="url(#x-dia-diagram-d)" xlink:href="#x-dia-diagram-e"/>
      <use fill="url(#x-dia-diagram-f)" xlink:href="#x-dia-diagram-e"/>
    </g>
    <path fill="#FFF" fill-opacity=".6" d="M144,108 L112,108 L112,88 L144,88 L144,108 Z M101,136 L98,138.027363 L101,140 L92,140 L92,164 L112,164 L112,192 L68,192 L68,164 L88,164 L88,136 L101,136 Z M168,136 L168,164 L188,164 L188,192 L144,192 L144,164 L164,164 L164,140 L155,140 L158,138 L155,136 L168,136 Z M108,168 L72,168 L72,188 L108,188 L108,168 Z M184,168 L148,168 L148,188 L184,188 L184,168 Z M148,84 L148,112 L130,112 L130,118.954 L155.073751,136.312677 L157.725259,138 L155.073751,139.687323 L129.073751,157.687323 L128,158.370619 L126.926249,157.687323 L100.926249,139.687323 L98.2747415,138 L100.926249,136.312677 L126,118.953 L126,112 L108,112 L108,84 L148,84 Z M128.012942,122.378855 L105.70161,138.015049 L128.073055,153.67587 L150.252805,137.98604 L128.012942,122.378855 Z M128.693,118.07 L130,119 L130,118.954 L129.073751,118.312677 L128.693,118.07 Z M128,117.629381 L126.926249,118.312677 L126,118.953 L126,119 L128.037,117.653 L128,117.629381 Z M128.693,118.07 L128.073055,117.629381 L128.037,117.653 L128.693,118.07 Z"/>
  </g>
</svg>
