<?xml version="1.0" encoding="UTF-8"?>
<svg width="32px" height="32px" viewBox="0 0 32 32" version="1.1" xmlns="http://www.w3.org/2000/svg" xmlns:xlink="http://www.w3.org/1999/xlink">
    <title>apps/32/certificate-sign-platform</title>
    <defs>
        <filter x="-8.1%" y="-3.7%" width="115.2%" height="114.6%" filterUnits="objectBoundingBox" id="filter-1">
            <feOffset dx="0" dy="1" in="SourceAlpha" result="shadowOffsetOuter1"></feOffset>
            <feGaussianBlur stdDeviation="0.5" in="shadowOffsetOuter1" result="shadowBlurOuter1"></feGaussianBlur>
            <feColorMatrix values="0 0 0 0 0   0 0 0 0 0   0 0 0 0 0  0 0 0 0.15 0" type="matrix" in="shadowBlurOuter1" result="shadowMatrixOuter1"></feColorMatrix>
            <feMerge>
                <feMergeNode in="shadowMatrixOuter1"></feMergeNode>
                <feMergeNode in="SourceGraphic"></feMergeNode>
            </feMerge>
        </filter>
        <linearGradient x1="50%" y1="0%" x2="50%" y2="100%" id="linearGradient-2">
            <stop stop-color="#81EF5A" offset="4.24787615%"></stop>
            <stop stop-color="#00BF88" offset="100%"></stop>
        </linearGradient>
        <path d="M3,8.49379395e-14 L22,8.49379395e-14 C23.6568542,8.46335803e-14 25,1.34314575 25,3 L25,22.625 C25,24.2818542 23.6568542,25.625 22,25.625 L3,25.625 C1.34314575,25.625 6.01261119e-14,24.2818542 5.99232058e-14,22.625 L5.99232058e-14,3 C5.97202997e-14,1.34314575 1.34314575,8.52422987e-14 3,8.49379395e-14 Z" id="path-3"></path>
        <filter x="-2.0%" y="-2.0%" width="104.0%" height="103.9%" filterUnits="objectBoundingBox" id="filter-4">
            <feOffset dx="0" dy="-1" in="SourceAlpha" result="shadowOffsetInner1"></feOffset>
            <feComposite in="shadowOffsetInner1" in2="SourceAlpha" operator="arithmetic" k2="-1" k3="1" result="shadowInnerInner1"></feComposite>
            <feColorMatrix values="0 0 0 0 0   0 0 0 0 0   0 0 0 0 0  0 0 0 0.160868185 0" type="matrix" in="shadowInnerInner1"></feColorMatrix>
        </filter>
        <linearGradient x1="50%" y1="0%" x2="50%" y2="100%" id="linearGradient-5">
            <stop stop-color="#FFFFFF" offset="0%"></stop>
            <stop stop-color="#D1EAE4" offset="100%"></stop>
            <stop stop-color="#EDF2DE" offset="100%"></stop>
        </linearGradient>
        <linearGradient x1="50%" y1="-36.2184661%" x2="50%" y2="100%" id="linearGradient-6">
            <stop stop-color="#81EF5A" offset="0%"></stop>
            <stop stop-color="#01A171" offset="100%"></stop>
        </linearGradient>
        <filter x="-14.6%" y="-4.2%" width="127.3%" height="116.5%" filterUnits="objectBoundingBox" id="filter-7">
            <feOffset dx="0" dy="1" in="SourceAlpha" result="shadowOffsetOuter1"></feOffset>
            <feGaussianBlur stdDeviation="0.5" in="shadowOffsetOuter1" result="shadowBlurOuter1"></feGaussianBlur>
            <feColorMatrix values="0 0 0 0 0.0200617454   0 0 0 0 0.261693098   0 0 0 0 0.202345466  0 0 0 0.2 0" type="matrix" in="shadowBlurOuter1" result="shadowMatrixOuter1"></feColorMatrix>
            <feMerge>
                <feMergeNode in="shadowMatrixOuter1"></feMergeNode>
                <feMergeNode in="SourceGraphic"></feMergeNode>
            </feMerge>
        </filter>
        <radialGradient cx="38.2045411%" cy="60.388968%" fx="38.2045411%" fy="60.388968%" r="133.891229%" gradientTransform="translate(0.382, 0.6039), scale(1, 0.5705), rotate(-61.2717), translate(-0.382, -0.6039)" id="radialGradient-8">
            <stop stop-color="#E2FFF0" offset="0%"></stop>
            <stop stop-color="#C2FFDF" offset="100%"></stop>
        </radialGradient>
        <linearGradient x1="48.0462425%" y1="0.918640828%" x2="51.9537575%" y2="99.0813592%" id="linearGradient-9">
            <stop stop-color="#64D47C" offset="0%"></stop>
            <stop stop-color="#D7CD87" offset="100%"></stop>
        </linearGradient>
    </defs>
    <g id="apps/32/certificate-sign-platform" stroke="none" stroke-width="1" fill="none" fill-rule="evenodd">
        <g id="编组-3" transform="translate(1.2848, -0.7289)">
            <g id="主体" filter="url(#filter-1)" transform="translate(14.9822, 17.5563) rotate(-8) translate(-14.9822, -17.5563)translate(1.7845, 3.8116)">
                <g id="矩形备份" fill-rule="nonzero" transform="translate(12.5, 12.8125) rotate(-360) translate(-12.5, -12.8125)">
                    <use fill="url(#linearGradient-2)" xlink:href="#path-3"></use>
                    <use fill="black" fill-opacity="1" filter="url(#filter-4)" xlink:href="#path-3"></use>
                </g>
                <g id="编组" transform="translate(14.6454, 15.7394)" fill-rule="nonzero">
                    <circle id="椭圆形" fill="url(#linearGradient-5)" transform="translate(5.875, 5.875) rotate(-360) translate(-5.875, -5.875)" cx="5.875" cy="5.875" r="5.875"></circle>
                    <path d="M8.67628313,6.97751893 L9.65551115,8.56435107 C9.65163021,8.56823202 8.98713715,8.66269983 8.40045225,8.82806584 C7.98859907,9.23755259 7.47574674,9.8125 7.47574674,9.8125 L6.6442785,8.34777556 C7.43684266,8.15088873 8.19845393,7.61143774 8.67628313,6.97751893 Z M2.99978965,6.97742427 C3.4777135,7.60746214 4.31694363,8.15079407 5.10960244,8.3476809 L4.27037232,9.8125 C4.27037232,9.8125 4.01289372,9.51895087 3.70655274,9.19703908 L3.5185536,9.00260997 C3.48679947,8.97034503 3.45497395,8.93832683 3.42328565,8.90682057 C2.98426588,8.78471287 2.54136517,8.67055637 2.09448885,8.56425642 L2.99978965,6.97742427 Z M5.87111906,1.9375 C7.44858014,1.9375 8.8046382,3.31173223 8.8046382,4.91427745 C8.8046382,6.51682268 7.44858014,7.8910549 5.87111906,7.8910549 C4.29356331,7.8910549 2.93759992,6.59557741 2.93759992,4.99303218 C2.93759992,3.39048696 4.29365797,1.9375 5.87111906,1.9375 Z M5.87111906,3.10689419 C5.74285865,3.10689419 5.62633572,3.18564893 5.57190787,3.29592448 L5.26891039,3.94953197 C5.22612537,4.04797539 5.13288809,4.11499264 5.02800799,4.11887358 L4.36749053,4.22517354 C4.19265881,4.25271876 4.06449306,4.42206037 4.09165965,4.59925852 C4.10330248,4.66618111 4.13832562,4.7331037 4.18101599,4.78431321 L4.69774926,5.33947728 C4.759939,5.40639987 4.7871056,5.49301115 4.77546277,5.58359802 L4.65496424,6.34350547 C4.62779764,6.52070362 4.75208246,6.69392617 4.92691418,6.72147139 C5.00074674,6.72932793 5.07069836,6.72147139 5.13676904,6.68606963 L5.71181111,6.37502629 C5.80504838,6.31198464 5.92166597,6.31198464 6.01490324,6.36319415 L6.60546908,6.68218868 C6.76468237,6.77277556 6.9628944,6.70973391 7.05225074,6.5483435 C7.08717922,6.48927745 7.09882204,6.41449832 7.08717922,6.34360013 L6.97065629,5.6112379 L6.97065629,5.59940576 C6.94727598,5.49698675 6.98229912,5.39466239 7.05225074,5.3237642 L7.56510307,4.78431321 C7.68948254,4.65832457 7.6856016,4.44572465 7.56122213,4.31566576 C7.51076988,4.26843185 7.4446992,4.23700568 7.37862852,4.22517354 L6.71811106,4.12275452 C6.60546908,4.11489798 6.5122318,4.04797539 6.46944678,3.94555637 L6.17033025,3.29592448 C6.11202146,3.17779239 5.99928481,3.10689419 5.87111906,3.10689419 Z" id="形状结合" fill="url(#linearGradient-6)"></path>
                </g>
                <g id="编组-2" transform="translate(3.684, 10.6404)" opacity="0.398126511" stroke="#FFFFFF" stroke-linecap="round" stroke-linejoin="round" stroke-width="0.625">
                    <path d="M0.314987001,6.59554759 C0.504755154,7.31952728 1.33341534,7.27583289 2.80096756,6.4644644 C6.3512203,4.55092508 8.66993605,3.59415542 9.75711481,3.59415542 C11.4603584,3.59415542 8.94572888,6.47519295 9.90972469,6.59554759 C10.8737205,6.71590224 12.7436363,4.100791 13.8150767,4.100791 C14.8865171,4.100791 13.0784556,6.02364871 14.5797202,5.53352727 C16.0809849,5.04340583 18.3494072,0.768604788 20.0864855,2.34787599" id="路径-12" transform="translate(10.2007, 4.5536) rotate(-12) translate(-10.2007, -4.5536)"></path>
                </g>
            </g>
            <g id="羽毛" filter="url(#filter-7)" transform="translate(10.5624, 13.0322) rotate(-8) translate(-10.5624, -13.0322)translate(3.2416, 0.9008)" fill-rule="nonzero">
                <path d="M9.50912259,11.5547838 C9.81462022,11.418485 10.1073974,11.2840081 10.3874541,11.1513533 C10.6311371,11.0371286 10.8811803,10.9219929 11.1375838,10.8059462 C11.3939872,10.6898995 11.6067629,10.5867118 11.7759108,10.4963832 L11.6509067,11.5652946 C11.6139143,11.8614378 11.5734495,12.0853671 11.5295123,12.2370827 C11.4505767,12.6053345 11.3458048,12.9508466 11.2151966,13.2736188 C11.0845883,13.5963911 10.9581572,13.8789044 10.8359032,14.1211588 C10.6935715,14.4059496 10.5421979,14.6722052 10.3817825,14.9199255 L8.13407495,15.9755931 L10.1094959,16.0495933 C10.1095565,16.050723 9.69479824,16.9254021 8.9819415,17.7363314 C8.34010212,18.4664729 7.40880431,19.1701356 7.01096492,19.3791193 C6.17126654,19.82021 3.46138994,20.7792367 2.93199079,20.2062104 C2.12769387,19.3356323 1.54831273,16.900095 1.83093021,14.0841129 C2.02302782,12.170065 2.88971653,9.88922152 3.78757224,8.18314897 C4.21065812,7.37921666 4.94763364,6.34129094 5.05943215,6.19483164 C6.84567447,3.85480225 8.8437034,2.56960985 9.51514423,2.15052031 C10.1865851,1.73143078 12.4599739,0.73657731 12.8661443,0.900229451 C12.9754693,0.944278132 12.5307118,1.85258676 12.4529033,2.66641083 C12.3750948,3.4802349 12.2890942,3.77641773 12.2535459,4.64743317 C12.2179975,5.51844861 12.1651562,6.4051612 12.095022,7.30757093 C12.0248878,8.20998066 11.9499403,9.03045348 11.8701797,9.76898939 L9.50912259,11.5547838 Z" id="路径" fill="url(#radialGradient-8)" transform="translate(7.3208, 10.633) rotate(11) translate(-7.3208, -10.633)"></path>
                <path d="M1.43647643,23.9139567 C1.58822235,23.232614 1.91864318,22.8931733 2.57184045,22.5597607 C2.57184045,22.5597607 2.31375654,20.098011 2.90373204,17.9735003 C3.29759363,16.775716 4.27696775,14.0351286 4.94001732,12.5972596 C6.11920537,10.0401086 6.2649603,9.69583779 7.3857785,7.62721271 C6.70747295,8.62210029 6.54103915,8.79035918 4.94001732,11.5194705 C3.05716368,14.728994 1.40469107,19.5836606 1.23309275,23.8498101 L1.43647643,23.9139567 Z" id="path1873" fill="url(#linearGradient-9)" transform="translate(4.3094, 15.7706) rotate(8) translate(-4.3094, -15.7706)"></path>
                <path d="M0.248145519,23.4443126 C0.405668246,23.5310083 0.48442961,23.5743561 0.48442961,23.5743561 C0.48442961,23.5743561 0.588954885,23.1990582 0.656568481,23.0503003 C0.850658398,22.6232798 1.24676775,22.3193844 1.58689321,22.1542632 L0.40082931,21.6467174 C0.342772726,22.0316292 0.304103359,22.3517817 0.284821209,22.6071747 C0.26553906,22.8625678 0.253313829,23.1416137 0.248145519,23.4443126 Z" id="path3810" fill="#329A68" transform="translate(0.9175, 22.6105) rotate(8) translate(-0.9175, -22.6105)"></path>
            </g>
        </g>
        <g id="Guide/32" transform="translate(1, 1)"></g>
    </g>
</svg>