<svg xmlns="http://www.w3.org/2000/svg" xmlns:xlink="http://www.w3.org/1999/xlink" width="32" height="32" viewBox="0 0 32 32">
  <defs>
    <filter id="dde-calendar32-a" width="133.3%" height="137%" x="-14.8%" y="-14.8%" filterUnits="objectBoundingBox">
      <feOffset dy="1" in="SourceAlpha" result="shadowOffsetOuter1"/>
      <feGaussianBlur in="shadowOffsetOuter1" result="shadowBlurOuter1" stdDeviation=".5"/>
      <feComposite in="shadowBlurOuter1" in2="SourceAlpha" operator="out" result="shadowBlurOuter1"/>
      <feColorMatrix in="shadowBlurOuter1" result="shadowMatrixOuter1" values="0 0 0 0 0   0 0 0 0 0   0 0 0 0 0  0 0 0 0.15 0"/>
      <feMerge>
        <feMergeNode in="shadowMatrixOuter1"/>
        <feMergeNode in="SourceGraphic"/>
      </feMerge>
    </filter>
    <radialGradient id="dde-calendar32-b" cx="54.324%" cy="55.779%" r="61.914%" fx="54.324%" fy="55.779%" gradientTransform="matrix(-.81914 -.50611 .72543 -.9141 .584 1.343)">
      <stop offset="0%"/>
      <stop offset="100%" stop-opacity=".148"/>
    </radialGradient>
    <path id="dde-calendar32-d" d="M12.5625,19.125 L12.5625,17.7210034 L8.75030084,17.7210034 L11.9602136,13.7710034 C12.3617379,13.2694161 12.5625,12.6961735 12.5625,12.0512755 C12.5533744,11.2451531 12.2773265,10.580102 11.7343562,10.0561224 C11.2005114,9.5276644 10.5046881,9.25895692 9.64688628,9.25 C8.88033995,9.25895692 8.23470718,9.52318594 7.70998797,10.0426871 C7.18983153,10.5756236 6.91150221,11.2496315 6.875,12.0647109 L6.875,12.0647109 L8.29858604,12.0647109 C8.34877657,11.6168651 8.50847373,11.2697846 8.7776775,11.0234694 C9.03775572,10.7771542 9.36399418,10.6539966 9.7563929,10.6539966 C10.1989822,10.6629535 10.5411903,10.8040249 10.7830174,11.0772109 C11.015719,11.3503968 11.1320698,11.6706066 11.1320698,12.0378401 C11.1320698,12.1766723 11.1138187,12.3244615 11.0773165,12.4812075 C11.0225632,12.6469104 10.9199007,12.8260488 10.7693291,13.0186224 L10.7693291,13.0186224 L6.875,17.8016156 L6.875,19.125 L12.5625,19.125 Z M16.4274096,19.0625 L19.8125,10.6565929 L19.8125,9.25 L14.125,9.25 L14.125,12.0766461 L15.5571536,12.0766461 L15.5571536,10.6565929 L18.2090361,10.6565929 L14.8307982,19.0625 L16.4274096,19.0625 Z"/>
    <filter id="dde-calendar32-c" width="154.1%" height="170.9%" x="-27.1%" y="-25.3%" filterUnits="objectBoundingBox">
      <feOffset dy="1" in="SourceAlpha" result="shadowOffsetOuter1"/>
      <feGaussianBlur in="shadowOffsetOuter1" result="shadowBlurOuter1" stdDeviation="1"/>
      <feColorMatrix in="shadowBlurOuter1" values="0 0 0 0 0   0 0 0 0 0.423732517   0 0 0 0 1  0 0 0 0.2 0"/>
    </filter>
    <linearGradient id="dde-calendar32-g" x1="69.809%" x2="57.001%" y1="71.097%" y2="57.701%">
      <stop offset="0%" stop-color="#C6C6C6"/>
      <stop offset="53.052%" stop-color="#E7E7E7"/>
      <stop offset="100%" stop-color="#F4F4F4"/>
    </linearGradient>
    <path id="dde-calendar32-f" d="M27,18.25 C27,18.25 26.3789417,20.4921167 26,21.25 C25.5,22.25 24.9836066,22.0660714 24,23.25 C23.0163934,24.4339286 23.6803279,24.6625 22.204918,25.9071429 C21.4142412,26.5741509 19.25,27 19.25,27 C25.3668033,27 27,21.4982143 27,18.25 Z"/>
    <filter id="dde-calendar32-e" width="151.6%" height="145.7%" x="-25.8%" y="-11.4%" filterUnits="objectBoundingBox">
      <feOffset dy="1" in="SourceAlpha" result="shadowOffsetOuter1"/>
      <feGaussianBlur in="shadowOffsetOuter1" result="shadowBlurOuter1" stdDeviation=".5"/>
      <feColorMatrix in="shadowBlurOuter1" values="0 0 0 0 0   0 0 0 0 0   0 0 0 0 0  0 0 0 0.05 0"/>
    </filter>
  </defs>
  <g fill="none" fill-rule="evenodd" filter="url(#dde-calendar32-a)" transform="rotate(-8 32.606 -3.109)">
    <rect width="27" height="27" fill="#FFF" rx="4.875"/>
    <path fill="url(#dde-calendar32-b)" fill-opacity=".39" d="M27,18.5 L27,22.125 C27,24.8173882 24.8173882,27 22.125,27 L19.5,27 C22.0625,26.6875 23.8645833,25.6979167 24.90625,24.03125 C25.9479167,22.3645833 26.6458333,20.5208333 27,18.5 Z"/>
    <path fill="#E06164" fill-rule="nonzero" d="M6.629375,6.5 L6.629375,4.9075 C6.629375,4.61875 6.59,4.203125 6.568125,3.91 L6.585625,3.91 L6.839375,4.65375 L7.40375,6.189375 L7.71875,6.189375 L8.27875,4.65375 L8.536875,3.91 L8.554375,3.91 C8.528125,4.203125 8.48875,4.61875 8.48875,4.9075 L8.48875,6.5 L8.96125,6.5 L8.96125,3.275625 L8.375,3.275625 L7.793125,4.9075 C7.71875,5.121875 7.6575,5.340625 7.583125,5.555 L7.56125,5.555 C7.486875,5.340625 7.42125,5.121875 7.346875,4.9075 L6.75625,3.275625 L6.174375,3.275625 L6.174375,6.5 L6.629375,6.5 Z M9.8975,6.5 L10.173125,5.58125 L11.293125,5.58125 L11.564375,6.5 L12.1025,6.5 L11.035,3.275625 L10.44875,3.275625 L9.38125,6.5 L9.8975,6.5 Z M11.170625,5.183125 L10.29125,5.183125 L10.4225,4.75 C10.5275,4.4 10.628125,4.045625 10.72,3.678125 L10.741875,3.678125 C10.838125,4.04125 10.934375,4.4 11.04375,4.75 L11.170625,5.183125 Z M13.034375,6.5 L13.034375,5.200625 L13.555,5.200625 L14.285625,6.5 L14.85875,6.5 L14.07125,5.135 C14.478125,5.008125 14.745,4.710625 14.745,4.211875 C14.745,3.51625 14.24625,3.275625 13.58125,3.275625 L12.526875,3.275625 L12.526875,6.5 L13.034375,6.5 Z M13.52,4.79375 L13.034375,4.79375 L13.034375,3.686875 L13.52,3.686875 C13.988125,3.686875 14.241875,3.8225 14.241875,4.211875 C14.241875,4.60125 13.988125,4.79375 13.52,4.79375 Z M16.6525,6.556875 C17.068125,6.556875 17.39625,6.390625 17.654375,6.093125 L17.383125,5.77375 C17.190625,5.98375 16.9675,6.115 16.67,6.115 C16.10125,6.115 15.7425,5.646875 15.7425,4.88125 C15.7425,4.124375 16.1275,3.660625 16.683125,3.660625 C16.945625,3.660625 17.146875,3.77875 17.313125,3.949375 L17.58875,3.625625 C17.391875,3.41125 17.076875,3.21875 16.674375,3.21875 C15.860625,3.21875 15.221875,3.84875 15.221875,4.89875 C15.221875,5.953125 15.843125,6.556875 16.6525,6.556875 Z M18.730625,6.5 L18.730625,5.034375 L20.10875,5.034375 L20.10875,6.5 L20.61625,6.5 L20.61625,3.275625 L20.10875,3.275625 L20.10875,4.5925 L18.730625,4.5925 L18.730625,3.275625 L18.223125,3.275625 L18.223125,6.5 L18.730625,6.5 Z"/>
    <g fill-rule="nonzero">
      <use fill="#000" filter="url(#dde-calendar32-c)" xlink:href="#dde-calendar32-d"/>
      <use fill="#2D394F" xlink:href="#dde-calendar32-d"/>
    </g>
    <path fill="#2D394F" fill-rule="nonzero" d="M8.565,23.25 L8.565,22.34 C8.565,22.175 8.5425,21.9375 8.53,21.77 L8.54,21.77 L8.685,22.195 L9.0075,23.0725 L9.1875,23.0725 L9.5075,22.195 L9.655,21.77 L9.665,21.77 C9.65,21.9375 9.6275,22.175 9.6275,22.34 L9.6275,23.25 L9.8975,23.25 L9.8975,21.4075 L9.5625,21.4075 L9.23,22.34 L9.11,22.71 L9.11,22.71 L9.0975,22.71 C9.055,22.5875 9.0175,22.4625 8.975,22.34 L8.6375,21.4075 L8.305,21.4075 L8.305,23.25 L8.565,23.25 Z M11.08,23.2825 C11.5525,23.2825 11.8825,22.915 11.8825,22.3225 C11.8825,21.73 11.5525,21.375 11.08,21.375 C10.6075,21.375 10.28,21.73 10.28,22.3225 C10.28,22.915 10.6075,23.2825 11.08,23.2825 Z M11.08,23.03 C10.775,23.03 10.5775,22.7525 10.5775,22.3225 C10.5775,21.89 10.775,21.6275 11.08,21.6275 C11.385,21.6275 11.585,21.89 11.585,22.3225 C11.585,22.7525 11.385,23.03 11.08,23.03 Z M12.54,23.25 L12.54,22.3825 C12.54,22.1825 12.5175,21.97 12.5025,21.78 L12.515,21.78 L12.7075,22.165 L13.3175,23.25 L13.615,23.25 L13.615,21.4075 L13.34,21.4075 L13.34,22.2675 C13.34,22.4675 13.3625,22.69 13.3775,22.88 L13.365,22.88 L13.1725,22.49 L12.5625,21.4075 L12.265,21.4075 L12.265,23.25 L12.54,23.25 Z M14.5925,23.25 C15.1425,23.25 15.465,22.92 15.465,22.3225 C15.465,21.7225 15.1425,21.4075 14.5775,21.4075 L14.1,21.4075 L14.1,23.25 L14.5925,23.25 Z M14.5575,23.0125 L14.39,23.0125 L14.39,21.645 L14.5575,21.645 C14.9525,21.645 15.165,21.8625 15.165,22.3225 C15.165,22.78 14.9525,23.0125 14.5575,23.0125 Z M15.9,23.25 L16.0575,22.725 L16.6975,22.725 L16.8525,23.25 L17.16,23.25 L16.55,21.4075 L16.215,21.4075 L15.605,23.25 L15.9,23.25 Z M16.6275,22.4975 L16.125,22.4975 L16.2,22.25 C16.26,22.05 16.3175,21.8475 16.37,21.6375 L16.3825,21.6375 C16.4375,21.845 16.4925,22.05 16.555,22.25 L16.6275,22.4975 Z M17.995,23.25 L17.995,22.5525 L18.55,21.4075 L18.2475,21.4075 L18.0325,21.8975 C17.9775,22.035 17.9175,22.1625 17.8575,22.3025 L17.8475,22.3025 C17.785,22.1625 17.7325,22.035 17.675,21.8975 L17.4625,21.4075 L17.1525,21.4075 L17.705,22.5525 L17.705,23.25 L17.995,23.25 Z"/>
    <use fill="#000" filter="url(#dde-calendar32-e)" xlink:href="#dde-calendar32-f"/>
    <use fill="url(#dde-calendar32-g)" xlink:href="#dde-calendar32-f"/>
  </g>
</svg>
