<?xml version="1.0" encoding="UTF-8"?>
<svg width="32px" height="32px" viewBox="0 0 32 32" version="1.1" xmlns="http://www.w3.org/2000/svg" xmlns:xlink="http://www.w3.org/1999/xlink">
    <title>apps/32/deepin-screen-recorder</title>
    <defs>
        <filter x="-6.7%" y="-4.0%" width="113.3%" height="116.0%" filterUnits="objectBoundingBox" id="filter-1">
            <feOffset dx="0" dy="1" in="SourceAlpha" result="shadowOffsetOuter1"></feOffset>
            <feGaussianBlur stdDeviation="0.5" in="shadowOffsetOuter1" result="shadowBlurOuter1"></feGaussianBlur>
            <feColorMatrix values="0 0 0 0 0   0 0 0 0 0   0 0 0 0 0  0 0 0 0.15 0" type="matrix" in="shadowBlurOuter1" result="shadowMatrixOuter1"></feColorMatrix>
            <feMerge>
                <feMergeNode in="shadowMatrixOuter1"></feMergeNode>
                <feMergeNode in="SourceGraphic"></feMergeNode>
            </feMerge>
        </filter>
        <linearGradient x1="50%" y1="0%" x2="50%" y2="96.1072977%" id="linearGradient-2">
            <stop stop-color="#F0EDFF" offset="0%"></stop>
            <stop stop-color="#BBA7F6" offset="100%"></stop>
        </linearGradient>
        <path d="M26,14 L26,18 L22,18 L22,14 L26,14 Z M4,18 L0,18 L0,14 L4,14 L4,18 L4,18 Z M22,0 L26,0 L26,4 L22,4 L22,0 Z M4,0 L4,4 L0,4 L0,0 L4,0 L4,0 Z" id="path-3"></path>
        <linearGradient x1="39.2766806%" y1="15.3036106%" x2="39.2766806%" y2="105.982476%" id="linearGradient-5">
            <stop stop-color="#6B6386" offset="0%"></stop>
            <stop stop-color="#302B42" offset="72.1020361%"></stop>
            <stop stop-color="#72639E" offset="100%"></stop>
        </linearGradient>
        <radialGradient cx="50%" cy="91.2430015%" fx="50%" fy="91.2430015%" r="23.4635754%" gradientTransform="translate(0.5, 0.9124), rotate(90), scale(1, 1.5718), translate(-0.5, -0.9124)" id="radialGradient-6">
            <stop stop-color="#8462FF" offset="0%"></stop>
            <stop stop-color="#232129" offset="100%"></stop>
        </radialGradient>
        <radialGradient cx="50%" cy="50%" fx="50%" fy="50%" r="50%" id="radialGradient-7">
            <stop stop-color="#F53E84" offset="0%"></stop>
            <stop stop-color="#4F2CA2" offset="100%"></stop>
        </radialGradient>
        <linearGradient x1="99.2302583%" y1="27.8491143%" x2="0.769741736%" y2="67.6686712%" id="linearGradient-8">
            <stop stop-color="#4B003F" offset="0%"></stop>
            <stop stop-color="#33036D" offset="14.5887885%"></stop>
            <stop stop-color="#C30B9D" offset="51.4479904%"></stop>
            <stop stop-color="#591A85" offset="80.60535%"></stop>
            <stop stop-color="#470437" offset="100%"></stop>
        </linearGradient>
        <linearGradient x1="50%" y1="0%" x2="50%" y2="50%" id="linearGradient-9">
            <stop stop-color="#FFEEEE" stop-opacity="0.850033967" offset="0%"></stop>
            <stop stop-color="#FF578A" stop-opacity="0.7" offset="100%"></stop>
        </linearGradient>
    </defs>
    <g id="apps/32/deepin-screen-recorder" stroke="none" stroke-width="1" fill="none" fill-rule="evenodd">
        <g id="9-screenshot" filter="url(#filter-1)" transform="translate(1, 3)">
            <g id="Group-9">
                <path d="M6.8693255,1.40091891 C7.33870558,0.537517543 8.24273528,1.51279419e-15 9.22547613,1.33226763e-15 L20.7745239,1.77635684e-15 C21.7572647,7.2298106e-16 22.6612944,0.537517543 23.1306745,1.40091891 L24,3 L27.3181818,3 C28.7993091,3 30,4.2006909 30,5.68181818 L30,22.3181818 C30,23.7993091 28.7993091,25 27.3181818,25 L2.68181818,25 C1.2006909,25 -1.15088185e-15,23.7993091 -1.33226763e-15,22.3181818 L0,5.68181818 C-1.81385779e-16,4.2006909 1.2006909,3 2.68181818,3 L6,3 L6.8693255,1.40091891 Z" id="Combined-Shape" fill="url(#linearGradient-2)"></path>
                <g id="框" transform="translate(2, 5)">
                    <mask id="mask-4" fill="white">
                        <use xlink:href="#path-3"></use>
                    </mask>
                    <g id="Mask"></g>
                    <path d="M25.5,0.5 L25.5,17.5 L0.5,17.5 L0.5,0.5 L25.5,0.5 Z" id="Rectangle" stroke-opacity="0.4" stroke="#000000" mask="url(#mask-4)"></path>
                </g>
                <ellipse id="Oval" fill="#D91B19" cx="25.3068182" cy="8.10810811" rx="1" ry="1"></ellipse>
                <g id="Group-6" transform="translate(5.7045, 5)">
                    <circle id="Oval" fill="url(#linearGradient-5)" cx="9" cy="9" r="9"></circle>
                    <circle id="Oval" fill="url(#radialGradient-6)" cx="9" cy="9" r="6"></circle>
                    <path d="M9,2 C12.8659932,2 16,5.13400675 16,9 C16,12.8659932 12.8659932,16 9,16 C5.13400675,16 2,12.8659932 2,9 C2,5.13400675 5.13400675,2 9,2 Z M9,3 C5.6862915,3 3,5.6862915 3,9 C3,12.3137085 5.6862915,15 9,15 C12.3137085,15 15,12.3137085 15,9 C15,5.6862915 12.3137085,3 9,3 Z" id="Oval" fill="#000000" fill-rule="nonzero"></path>
                    <path d="M9,3 C12.3137085,3 15,5.6862915 15,9 C15,12.3137085 12.3137085,15 9,15 C5.6862915,15 3,12.3137085 3,9 C3,5.6862915 5.6862915,3 9,3 Z M9,4 C6.23857625,4 4,6.23857625 4,9 C4,11.7614237 6.23857625,14 9,14 C11.7614237,14 14,11.7614237 14,9 C14,6.23857625 11.7614237,4 9,4 Z" id="Oval" fill-opacity="0.05" fill="#FFFFFF" fill-rule="nonzero"></path>
                    <circle id="Oval" fill="url(#radialGradient-7)" cx="9" cy="9" r="4"></circle>
                    <path d="M9,4 C11.7614237,4 14,6.23857625 14,9 C14,11.7614237 11.7614237,14 9,14 C6.23857625,14 4,11.7614237 4,9 C4,6.23857625 6.23857625,4 9,4 Z M9,5 C6.790861,5 5,6.790861 5,9 C5,11.209139 6.790861,13 9,13 C11.209139,13 13,11.209139 13,9 C13,6.790861 11.209139,5 9,5 Z" id="Oval" fill="#080808" fill-rule="nonzero"></path>
                    <ellipse id="Oval" fill="url(#linearGradient-8)" cx="9" cy="9.02336235" rx="3" ry="3.02336235"></ellipse>
                    <circle id="Oval" fill="#38000E" cx="9" cy="9" r="2"></circle>
                    <ellipse id="Oval" fill="url(#linearGradient-9)" opacity="0.5" cx="8.01704545" cy="6.2027027" rx="3.01704545" ry="2.7027027"></ellipse>
                </g>
            </g>
        </g>
        <g id="Guide/32" transform="translate(1, 1)"></g>
    </g>
</svg>