<?xml version="1.0" encoding="UTF-8"?>
<svg width="32px" height="32px" viewBox="0 0 32 32" version="1.1" xmlns="http://www.w3.org/2000/svg" xmlns:xlink="http://www.w3.org/1999/xlink">
    <title>apps/32/deepin-contacts</title>
    <defs>
        <filter x="-8.8%" y="-3.8%" width="120.5%" height="115.2%" filterUnits="objectBoundingBox" id="filter-1">
            <feOffset dx="0" dy="1" in="SourceAlpha" result="shadowOffsetOuter1"></feOffset>
            <feGaussianBlur stdDeviation="0.5" in="shadowOffsetOuter1" result="shadowBlurOuter1"></feGaussianBlur>
            <feColorMatrix values="0 0 0 0 0   0 0 0 0 0   0 0 0 0 0  0 0 0 0.15 0" type="matrix" in="shadowBlurOuter1" result="shadowMatrixOuter1"></feColorMatrix>
            <feMerge>
                <feMergeNode in="shadowMatrixOuter1"></feMergeNode>
                <feMergeNode in="SourceGraphic"></feMergeNode>
            </feMerge>
        </filter>
        <linearGradient x1="50%" y1="0%" x2="50%" y2="100%" id="linearGradient-2">
            <stop stop-color="#F66D6D" offset="0%"></stop>
            <stop stop-color="#F44343" offset="100%"></stop>
        </linearGradient>
        <rect id="path-3" x="20.2984836" y="16.5559507" width="4.05969671" height="8.11939343" rx="0.625"></rect>
        <filter x="-36.9%" y="-18.5%" width="173.9%" height="136.9%" filterUnits="objectBoundingBox" id="filter-4">
            <feGaussianBlur stdDeviation="0.5" in="SourceAlpha" result="shadowBlurInner1"></feGaussianBlur>
            <feOffset dx="2" dy="1" in="shadowBlurInner1" result="shadowOffsetInner1"></feOffset>
            <feComposite in="shadowOffsetInner1" in2="SourceAlpha" operator="arithmetic" k2="-1" k3="1" result="shadowInnerInner1"></feComposite>
            <feColorMatrix values="0 0 0 0 0   0 0 0 0 0   0 0 0 0 0  0 0 0 0.130272072 0" type="matrix" in="shadowInnerInner1" result="shadowMatrixInner1"></feColorMatrix>
            <feOffset dx="0" dy="-1" in="SourceAlpha" result="shadowOffsetInner2"></feOffset>
            <feComposite in="shadowOffsetInner2" in2="SourceAlpha" operator="arithmetic" k2="-1" k3="1" result="shadowInnerInner2"></feComposite>
            <feColorMatrix values="0 0 0 0 0   0 0 0 0 0   0 0 0 0 0  0 0 0 0.1 0" type="matrix" in="shadowInnerInner2" result="shadowMatrixInner2"></feColorMatrix>
            <feMerge>
                <feMergeNode in="shadowMatrixInner1"></feMergeNode>
                <feMergeNode in="shadowMatrixInner2"></feMergeNode>
            </feMerge>
        </filter>
        <linearGradient x1="50%" y1="7.67852053%" x2="50%" y2="99.0155194%" id="linearGradient-5">
            <stop stop-color="#C896E5" offset="0%"></stop>
            <stop stop-color="#BD80DF" offset="100%"></stop>
        </linearGradient>
        <rect id="path-6" x="20.2984836" y="9.32461589" width="4.05969671" height="8.11939343" rx="0.625"></rect>
        <filter x="-49.3%" y="-12.3%" width="198.5%" height="149.3%" filterUnits="objectBoundingBox" id="filter-7">
            <feOffset dx="0" dy="1" in="SourceAlpha" result="shadowOffsetOuter1"></feOffset>
            <feGaussianBlur stdDeviation="0.5" in="shadowOffsetOuter1" result="shadowBlurOuter1"></feGaussianBlur>
            <feColorMatrix values="0 0 0 0 0   0 0 0 0 0   0 0 0 0 0  0 0 0 0.3 0" type="matrix" in="shadowBlurOuter1"></feColorMatrix>
        </filter>
        <filter x="-61.6%" y="-18.5%" width="223.2%" height="161.6%" filterUnits="objectBoundingBox" id="filter-8">
            <feGaussianBlur stdDeviation="0.5" in="SourceAlpha" result="shadowBlurInner1"></feGaussianBlur>
            <feOffset dx="2" dy="1" in="shadowBlurInner1" result="shadowOffsetInner1"></feOffset>
            <feComposite in="shadowOffsetInner1" in2="SourceAlpha" operator="arithmetic" k2="-1" k3="1" result="shadowInnerInner1"></feComposite>
            <feColorMatrix values="0 0 0 0 0   0 0 0 0 0   0 0 0 0 0  0 0 0 0.130272072 0" type="matrix" in="shadowInnerInner1" result="shadowMatrixInner1"></feColorMatrix>
            <feOffset dx="0" dy="-1" in="SourceAlpha" result="shadowOffsetInner2"></feOffset>
            <feComposite in="shadowOffsetInner2" in2="SourceAlpha" operator="arithmetic" k2="-1" k3="1" result="shadowInnerInner2"></feComposite>
            <feColorMatrix values="0 0 0 0 0   0 0 0 0 0   0 0 0 0 0  0 0 0 0.1 0" type="matrix" in="shadowInnerInner2" result="shadowMatrixInner2"></feColorMatrix>
            <feMerge>
                <feMergeNode in="shadowMatrixInner1"></feMergeNode>
                <feMergeNode in="shadowMatrixInner2"></feMergeNode>
            </feMerge>
        </filter>
        <linearGradient x1="50%" y1="0%" x2="50%" y2="100%" id="linearGradient-9">
            <stop stop-color="#7CBDF8" offset="0%"></stop>
            <stop stop-color="#469DF0" offset="100%"></stop>
        </linearGradient>
        <rect id="path-10" x="20.2984836" y="2.02984836" width="4.05969671" height="8.11939343" rx="0.625"></rect>
        <filter x="-49.3%" y="-12.3%" width="198.5%" height="149.3%" filterUnits="objectBoundingBox" id="filter-11">
            <feOffset dx="0" dy="1" in="SourceAlpha" result="shadowOffsetOuter1"></feOffset>
            <feGaussianBlur stdDeviation="0.5" in="shadowOffsetOuter1" result="shadowBlurOuter1"></feGaussianBlur>
            <feColorMatrix values="0 0 0 0 0   0 0 0 0 0   0 0 0 0 0  0 0 0 0.3 0" type="matrix" in="shadowBlurOuter1"></feColorMatrix>
        </filter>
        <filter x="-61.6%" y="-18.5%" width="223.2%" height="161.6%" filterUnits="objectBoundingBox" id="filter-12">
            <feGaussianBlur stdDeviation="0.5" in="SourceAlpha" result="shadowBlurInner1"></feGaussianBlur>
            <feOffset dx="2" dy="0" in="shadowBlurInner1" result="shadowOffsetInner1"></feOffset>
            <feComposite in="shadowOffsetInner1" in2="SourceAlpha" operator="arithmetic" k2="-1" k3="1" result="shadowInnerInner1"></feComposite>
            <feColorMatrix values="0 0 0 0 0   0 0 0 0 0   0 0 0 0 0  0 0 0 0.130272072 0" type="matrix" in="shadowInnerInner1" result="shadowMatrixInner1"></feColorMatrix>
            <feOffset dx="0" dy="-1" in="SourceAlpha" result="shadowOffsetInner2"></feOffset>
            <feComposite in="shadowOffsetInner2" in2="SourceAlpha" operator="arithmetic" k2="-1" k3="1" result="shadowInnerInner2"></feComposite>
            <feColorMatrix values="0 0 0 0 0   0 0 0 0 0   0 0 0 0 0  0 0 0 0.1 0" type="matrix" in="shadowInnerInner2" result="shadowMatrixInner2"></feColorMatrix>
            <feMerge>
                <feMergeNode in="shadowMatrixInner1"></feMergeNode>
                <feMergeNode in="shadowMatrixInner2"></feMergeNode>
            </feMerge>
        </filter>
        <radialGradient cx="55.4438068%" cy="0%" fx="55.4438068%" fy="0%" r="100.692878%" gradientTransform="translate(0.5544, 0), scale(1, 0.8462), rotate(78.8523), translate(-0.5544, -0)" id="radialGradient-13">
            <stop stop-color="#FAFAFA" offset="0%"></stop>
            <stop stop-color="#DAE2FB" offset="100%"></stop>
        </radialGradient>
        <path d="M2.5,0 L18.5783319,-4.4408921e-16 C20.6493997,-8.24538195e-16 22.3283319,1.67893219 22.3283319,3.75 L22.3283319,22.6380286 C22.3283319,24.7090965 20.6493997,26.3880286 18.5783319,26.3880286 L2.5,26.3880286 C1.11928813,26.3880286 2.00856617e-15,25.2687405 0,23.8880286 L0,2.5 C-1.69088438e-16,1.11928813 1.11928813,-1.90456553e-16 2.5,-4.4408921e-16 Z" id="path-14"></path>
        <filter x="-2.2%" y="-1.9%" width="104.5%" height="103.8%" filterUnits="objectBoundingBox" id="filter-15">
            <feOffset dx="0" dy="-1" in="SourceAlpha" result="shadowOffsetInner1"></feOffset>
            <feComposite in="shadowOffsetInner1" in2="SourceAlpha" operator="arithmetic" k2="-1" k3="1" result="shadowInnerInner1"></feComposite>
            <feColorMatrix values="0 0 0 0 0   0 0 0 0 0   0 0 0 0 0  0 0 0 0.1 0" type="matrix" in="shadowInnerInner1" result="shadowMatrixInner1"></feColorMatrix>
            <feOffset dx="0" dy="1" in="SourceAlpha" result="shadowOffsetInner2"></feOffset>
            <feComposite in="shadowOffsetInner2" in2="SourceAlpha" operator="arithmetic" k2="-1" k3="1" result="shadowInnerInner2"></feComposite>
            <feColorMatrix values="0 0 0 0 1   0 0 0 0 1   0 0 0 0 1  0 0 0 0.246640079 0" type="matrix" in="shadowInnerInner2" result="shadowMatrixInner2"></feColorMatrix>
            <feMerge>
                <feMergeNode in="shadowMatrixInner1"></feMergeNode>
                <feMergeNode in="shadowMatrixInner2"></feMergeNode>
            </feMerge>
        </filter>
        <linearGradient x1="50%" y1="0%" x2="50%" y2="100%" id="linearGradient-16">
            <stop stop-color="#3C88FB" offset="0%"></stop>
            <stop stop-color="#587ECE" offset="100%"></stop>
        </linearGradient>
        <path d="M8.68308607,4.05969671 C11.3441828,4.05969671 10.7706706,6.28676062 10.7706706,6.79186789 C11.0918374,7.06738095 10.931254,7.71024476 10.6100871,7.89392013 C10.5412657,8.92709411 9.55482464,9.61587676 9.55482464,9.77659271 L9.55402206,9.92050745 C9.55669734,10.0460145 9.57776513,10.1865824 9.69246758,10.3505783 C9.853051,10.5801725 11.7571116,10.6720102 12.3535643,11.1082392 C12.6840208,11.3499259 12.972227,12.0461791 13.2176504,13.1971148 C13.226915,13.2396235 13.2317158,13.2829835 13.2319746,13.3264893 C13.2340281,13.6716612 12.9558757,13.9531429 12.6107038,13.9551964 L4.68216624,13.9552067 C4.63396576,13.955133 4.58593561,13.9494836 4.5390335,13.9383713 C4.20315388,13.858793 3.99538062,13.5219978 4.07495895,13.1861181 L4.12927623,12.9562434 C4.38691288,11.9146443 4.65841626,11.2986429 4.94378638,11.1082392 C5.49435812,10.7408884 7.3754782,10.4653754 7.62782358,10.3505783 C7.88016896,10.2357811 7.76546651,9.98322751 7.76546651,9.73067387 C7.76546651,9.47812023 6.87078745,9.11076948 6.71020403,7.89392013 C6.3431562,7.61840707 6.3431562,7.09034037 6.57256109,6.79186789 C6.57256109,6.42451715 6.02198936,4.05969671 8.68308607,4.05969671 Z M13.2168835,4.18656224 C15.374432,4.18656224 15.0760477,6.16766752 15.0760477,6.90482298 C15.0760477,7.64197844 15.764627,8.03359227 15.764627,8.42520611 C15.764627,8.81681994 14.2038472,9.18539767 14.089084,9.18539767 C13.9743208,9.18539767 14.0202261,9.43879486 14.089084,9.69219205 C14.1579419,9.94558924 15.6269111,9.87648091 16.3154904,10.2450586 C16.6907124,10.4459047 17.0199293,11.0828223 17.3031491,12.1558095 C17.3171046,12.2086925 17.3240582,12.2631786 17.3238317,12.3178715 C17.3224022,12.6630465 17.0414238,12.9417073 16.6962488,12.9402779 L13.6529837,12.9402833 C13.4005047,12.3183084 13.2627888,11.4199001 12.7119254,10.8900697 C12.1610619,10.3602392 10.6691401,10.2911309 10.5084715,10.1989864 C10.6002821,10.1298781 12.1840145,9.8534448 12.3217304,9.76130037 C12.4594463,9.66915594 12.5053516,9.36968654 12.413541,9.254506 C12.3217304,9.13932546 11.0134297,8.90896438 10.8986665,8.65556719 C10.7839033,8.40217 11.4036247,7.8262673 11.4036247,6.90482298 C11.4036247,5.98337866 11.059335,4.18656224 13.2168835,4.18656224 Z" id="path-17"></path>
        <filter x="-15.1%" y="-10.1%" width="130.2%" height="140.4%" filterUnits="objectBoundingBox" id="filter-18">
            <feOffset dx="0" dy="1" in="SourceAlpha" result="shadowOffsetOuter1"></feOffset>
            <feGaussianBlur stdDeviation="0.5" in="shadowOffsetOuter1" result="shadowBlurOuter1"></feGaussianBlur>
            <feComposite in="shadowBlurOuter1" in2="SourceAlpha" operator="out" result="shadowBlurOuter1"></feComposite>
            <feColorMatrix values="0 0 0 0 0   0 0 0 0 0.257619154   0 0 0 0 0.737828351  0 0 0 0.35 0" type="matrix" in="shadowBlurOuter1"></feColorMatrix>
        </filter>
        <linearGradient x1="50%" y1="0%" x2="50%" y2="100%" id="linearGradient-19">
            <stop stop-color="#3C88FB" offset="0%"></stop>
            <stop stop-color="#587ECE" offset="100%"></stop>
        </linearGradient>
    </defs>
    <g id="apps/32/deepin-contacts" stroke="none" stroke-width="1" fill="none" fill-rule="evenodd">
        <g id="编组" filter="url(#filter-1)" transform="translate(16, 15.587) rotate(-8) translate(-16, -15.587)translate(3.8209, 2.393)">
            <g id="矩形备份-4">
                <use fill="url(#linearGradient-2)" fill-rule="evenodd" xlink:href="#path-3"></use>
                <use fill="black" fill-opacity="1" filter="url(#filter-4)" xlink:href="#path-3"></use>
            </g>
            <g id="矩形备份-3">
                <use fill="black" fill-opacity="1" filter="url(#filter-7)" xlink:href="#path-6"></use>
                <use fill="url(#linearGradient-5)" fill-rule="evenodd" xlink:href="#path-6"></use>
                <use fill="black" fill-opacity="1" filter="url(#filter-8)" xlink:href="#path-6"></use>
            </g>
            <g id="矩形">
                <use fill="black" fill-opacity="1" filter="url(#filter-11)" xlink:href="#path-10"></use>
                <use fill="url(#linearGradient-9)" fill-rule="evenodd" xlink:href="#path-10"></use>
                <use fill="black" fill-opacity="1" filter="url(#filter-12)" xlink:href="#path-10"></use>
            </g>
            <g id="矩形备份">
                <use fill="url(#radialGradient-13)" fill-rule="evenodd" xlink:href="#path-14"></use>
                <use fill="black" fill-opacity="1" filter="url(#filter-15)" xlink:href="#path-14"></use>
            </g>
            <g id="形状结合">
                <use fill="black" fill-opacity="1" filter="url(#filter-18)" xlink:href="#path-17"></use>
                <use fill-opacity="0.85" fill="url(#linearGradient-16)" fill-rule="evenodd" xlink:href="#path-17"></use>
            </g>
            <path d="M5.54337089,17.253711 L16.784961,17.253711 C17.0438445,17.253711 17.253711,17.4635776 17.253711,17.722461 L17.253711,17.7998852 C17.253711,18.0587687 17.0438445,18.2686352 16.784961,18.2686352 L5.54337089,18.2686352 C5.28448742,18.2686352 5.07462089,18.0587687 5.07462089,17.7998852 L5.07462089,17.722461 C5.07462089,17.4635776 5.28448742,17.253711 5.54337089,17.253711 Z M5.54337089,20.2984836 L16.784961,20.2984836 C17.0438445,20.2984836 17.253711,20.5083501 17.253711,20.7672336 L17.253711,20.8446577 C17.253711,21.1035412 17.0438445,21.3134077 16.784961,21.3134077 L5.54337089,21.3134077 C5.28448742,21.3134077 5.07462089,21.1035412 5.07462089,20.8446577 L5.07462089,20.7672336 C5.07462089,20.5083501 5.28448742,20.2984836 5.54337089,20.2984836 Z" id="形状结合" fill-opacity="0.85" fill="url(#linearGradient-19)"></path>
        </g>
        <g id="Guide/32" transform="translate(1, 1)"></g>
    </g>
</svg>