<?xml version="1.0" encoding="UTF-8"?>
<svg width="32px" height="32px" viewBox="0 0 32 32" version="1.1" xmlns="http://www.w3.org/2000/svg" xmlns:xlink="http://www.w3.org/1999/xlink">
    <title>apps/32/deepin-voice-note</title>
    <defs>
        <filter x="-7.7%" y="-3.6%" width="115.4%" height="114.3%" filterUnits="objectBoundingBox" id="filter-1">
            <feOffset dx="0" dy="1" in="SourceAlpha" result="shadowOffsetOuter1"></feOffset>
            <feGaussianBlur stdDeviation="0.5" in="shadowOffsetOuter1" result="shadowBlurOuter1"></feGaussianBlur>
            <feColorMatrix values="0 0 0 0 0   0 0 0 0 0   0 0 0 0 0  0 0 0 0.2 0" type="matrix" in="shadowBlurOuter1" result="shadowMatrixOuter1"></feColorMatrix>
            <feMerge>
                <feMergeNode in="shadowMatrixOuter1"></feMergeNode>
                <feMergeNode in="SourceGraphic"></feMergeNode>
            </feMerge>
        </filter>
        <linearGradient x1="50%" y1="0%" x2="50%" y2="100%" id="linearGradient-2">
            <stop stop-color="#FD5E5E" offset="0%"></stop>
            <stop stop-color="#ED5656" offset="100%"></stop>
        </linearGradient>
        <path d="M13,18 C12.1888832,18 11.4833365,17.8103481 10.9166667,17.224139 C10.3499972,16.6379277 10,15.8390841 10,15 L10,14 L16,14 L16,15 C16,15.8390841 15.644448,16.6379277 15.0666667,17.224139 C14.4888853,17.8103481 13.8111147,18 13,18 Z M12,19.8999819 C9.71775968,19.4367116 8,17.4189579 8,15 L9,15 C9,17.209139 10.790861,19 13,19 C15.209139,19 17,17.209139 17,15 L18,15 C18,17.4189579 16.2822403,19.4367116 14,19.8999819 L14,21 L16,21 L16,22 L10,22 L10,21 L12,21 L12,19.8999819 Z M13,6 C13.8111147,6 14.4888853,6.29597352 15.0666667,6.88793159 C15.644448,7.47988745 16,8.18965186 16,9.01724248 L16,13 L10,13 L10,9.01724248 C10,8.18965186 10.3499972,7.47988745 10.9166667,6.88793159 C11.4833365,6.29597352 12.1888832,6 13,6 Z" id="path-3"></path>
        <filter x="-55.0%" y="-21.9%" width="210.0%" height="168.8%" filterUnits="objectBoundingBox" id="filter-4">
            <feOffset dx="0" dy="2" in="SourceAlpha" result="shadowOffsetOuter1"></feOffset>
            <feGaussianBlur stdDeviation="1.5" in="shadowOffsetOuter1" result="shadowBlurOuter1"></feGaussianBlur>
            <feColorMatrix values="0 0 0 0 0.97254902   0 0 0 0 0.17254902   0 0 0 0 0.277440324  0 0 0 0.4 0" type="matrix" in="shadowBlurOuter1"></feColorMatrix>
        </filter>
    </defs>
    <g id="apps/32/deepin-voice-note" stroke="none" stroke-width="1" fill="none" fill-rule="evenodd">
        <g id="Group" filter="url(#filter-1)" transform="translate(3, 2)">
            <rect id="Mask" fill="#FFFFFF" x="0" y="0" width="26" height="28" rx="4"></rect>
            <path d="M5,0 L5,3 L23,3 L23,4 L5,4 L5,8 L23,8 L23,9 L5,9 L5,13 L23,13 L23,14 L5,14 L5,18 L23,18 L23,19 L5,19 L5,23 L23,23 L23,24 L5,24 L5,28 L4,28 L4,24 L3,24 L3,23 L4,23 L4,19 L3,19 L3,18 L4,18 L4,14 L3,14 L3,13 L4,13 L4,9 L3,9 L3,8 L4,8 L4,4 L3,4 L3,3 L4,3 L4,0 L5,0 Z" id="Combined-Shape" fill-opacity="0.1" fill="#000000"></path>
            <g id="Combined-Shape">
                <use fill="black" fill-opacity="1" filter="url(#filter-4)" xlink:href="#path-3"></use>
                <use fill="url(#linearGradient-2)" fill-rule="evenodd" xlink:href="#path-3"></use>
            </g>
        </g>
        <g id="Guide/32" transform="translate(1, 1)"></g>
    </g>
</svg>