<?xml version="1.0" encoding="UTF-8"?>
<svg width="32px" height="32px" viewBox="0 0 32 32" version="1.1" xmlns="http://www.w3.org/2000/svg" xmlns:xlink="http://www.w3.org/1999/xlink">
    <title>apps/32/deepin-feedback</title>
    <defs>
        <filter x="-7.1%" y="-4.2%" width="114.3%" height="115.4%" filterUnits="objectBoundingBox" id="filter-1">
            <feOffset dx="0" dy="1" in="SourceAlpha" result="shadowOffsetOuter1"></feOffset>
            <feGaussianBlur stdDeviation="0.5" in="shadowOffsetOuter1" result="shadowBlurOuter1"></feGaussianBlur>
            <feColorMatrix values="0 0 0 0 0   0 0 0 0 0   0 0 0 0 0  0 0 0 0.15 0" type="matrix" in="shadowBlurOuter1" result="shadowMatrixOuter1"></feColorMatrix>
            <feMerge>
                <feMergeNode in="shadowMatrixOuter1"></feMergeNode>
                <feMergeNode in="SourceGraphic"></feMergeNode>
            </feMerge>
        </filter>
        <linearGradient x1="26.2221945%" y1="1.02164199%" x2="66.9625327%" y2="80.7094588%" id="linearGradient-2">
            <stop stop-color="#90FF8A" offset="0%"></stop>
            <stop stop-color="#00B9E4" offset="100%"></stop>
        </linearGradient>
        <linearGradient x1="45.0428548%" y1="65.7115237%" x2="16.2920662%" y2="30.46875%" id="linearGradient-3">
            <stop stop-color="#FFFFFF" stop-opacity="0.493689904" offset="0%"></stop>
            <stop stop-color="#FFFFFF" offset="100%"></stop>
        </linearGradient>
        <filter x="-50.0%" y="-4.3%" width="200.0%" height="116.7%" filterUnits="objectBoundingBox" id="filter-4">
            <feOffset dx="0" dy="1" in="SourceAlpha" result="shadowOffsetOuter1"></feOffset>
            <feGaussianBlur stdDeviation="0.5" in="shadowOffsetOuter1" result="shadowBlurOuter1"></feGaussianBlur>
            <feColorMatrix values="0 0 0 0 0   0 0 0 0 0   0 0 0 0 0  0 0 0 0.15 0" type="matrix" in="shadowBlurOuter1" result="shadowMatrixOuter1"></feColorMatrix>
            <feMerge>
                <feMergeNode in="shadowMatrixOuter1"></feMergeNode>
                <feMergeNode in="SourceGraphic"></feMergeNode>
            </feMerge>
        </filter>
        <linearGradient x1="0%" y1="33.6657382%" x2="80.8543308%" y2="33.6657382%" id="linearGradient-5">
            <stop stop-color="#E6D049" offset="0%"></stop>
            <stop stop-color="#EC9500" offset="100%"></stop>
        </linearGradient>
        <linearGradient x1="0%" y1="55.5194719%" x2="89.2960607%" y2="55.5194719%" id="linearGradient-6">
            <stop stop-color="#F6F6F6" offset="0%"></stop>
            <stop stop-color="#747474" offset="100%"></stop>
        </linearGradient>
        <linearGradient x1="-3.43735564%" y1="31.9323285%" x2="86.2048159%" y2="31.9323285%" id="linearGradient-7">
            <stop stop-color="#5E5E5E" offset="0%"></stop>
            <stop stop-color="#373737" offset="100%"></stop>
        </linearGradient>
        <linearGradient x1="2.51622794%" y1="32.9393596%" x2="88.8544543%" y2="32.9393596%" id="linearGradient-8">
            <stop stop-color="#FFEACA" offset="0%"></stop>
            <stop stop-color="#E07431" offset="100%"></stop>
        </linearGradient>
    </defs>
    <g id="apps/32/deepin-feedback" stroke="none" stroke-width="1" fill="none" fill-rule="evenodd">
        <g id="编组" filter="url(#filter-1)" transform="translate(2, 5)">
            <path d="M3.75,0 L24.25,0 C26.3210678,-3.80448985e-16 28,1.67893219 28,3.75 L28,17.25 C28,19.3210678 26.3210678,21 24.25,21 L8.20833333,21 C8.07310195,21 7.94151844,21.0438612 7.83333333,21.125 L4.5,23.625 C4.36192881,23.7285534 4.16605339,23.7005712 4.0625,23.5625 C4.02193058,23.5084074 4,23.4426157 4,23.375 L4,21 L4,21 L3.74097383,20.9993765 C1.67343607,20.9944 1.1413795e-15,19.3169311 8.8817842e-16,17.2493874 L0,3.75 C-2.53632657e-16,1.67893219 1.67893219,3.80448985e-16 3.75,0 Z" id="矩形" fill="url(#linearGradient-2)"></path>
            <path d="M5.75,6 L20.25,6 C20.6642136,6 21,6.33578644 21,6.75 L21,7.25 C21,7.66421356 20.6642136,8 20.25,8 L5.75,8 C5.33578644,8 5,7.66421356 5,7.25 L5,6.75 C5,6.33578644 5.33578644,6 5.75,6 Z M5.75,10 L20.25,10 C20.6642136,10 21,10.3357864 21,10.75 L21,11.25 C21,11.6642136 20.6642136,12 20.25,12 L5.75,12 C5.33578644,12 5,11.6642136 5,11.25 L5,10.75 C5,10.3357864 5.33578644,10 5.75,10 Z M5.75,14 L20.25,14 C20.6642136,14 21,14.3357864 21,14.75 L21,15.25 C21,15.6642136 20.6642136,16 20.25,16 L5.75,16 C5.33578644,16 5,15.6642136 5,15.25 L5,14.75 C5,14.3357864 5.33578644,14 5.75,14 Z" id="形状结合" fill="url(#linearGradient-3)" fill-rule="nonzero"></path>
        </g>
        <g id="编组-2" filter="url(#filter-4)" transform="translate(23, 2)">
            <path d="M0.625,0 L3.375,0 C3.72017797,-6.34081642e-17 4,0.279822031 4,0.625 L4,3 L4,3 L0,3 L0,0.625 C-4.22721094e-17,0.279822031 0.279822031,6.34081642e-17 0.625,0 Z" id="矩形" fill="url(#linearGradient-5)"></path>
            <rect id="矩形" fill="url(#linearGradient-6)" x="0" y="4" width="4" height="2"></rect>
            <rect id="矩形" fill="url(#linearGradient-7)" x="0" y="7" width="4" height="10"></rect>
            <polygon id="路径-8" fill="url(#linearGradient-8)" points="0 18 4 18 3.5 20 0.5 20"></polygon>
            <path d="M1,21 L3,21 L2.1118034,22.7763932 C2.08092974,22.8381405 2.00584561,22.8631686 1.9440983,22.8322949 C1.91990738,22.8201994 1.90029206,22.8005841 1.8881966,22.7763932 L1,21 L1,21 Z" id="路径-9" fill="#312F2F"></path>
        </g>
        <g id="Guide/32" transform="translate(1, 1)"></g>
    </g>
</svg>