<?xml version="1.0" encoding="UTF-8"?>
<svg width="32px" height="32px" viewBox="0 0 32 32" version="1.1" xmlns="http://www.w3.org/2000/svg" xmlns:xlink="http://www.w3.org/1999/xlink">
    <title>apps/32/deepin-log-viewer</title>
    <defs>
        <filter x="-7.3%" y="-4.0%" width="121.0%" height="119.8%" filterUnits="objectBoundingBox" id="filter-1">
            <feOffset dx="0" dy="1" in="SourceAlpha" result="shadowOffsetOuter1"></feOffset>
            <feGaussianBlur stdDeviation="0.5" in="shadowOffsetOuter1" result="shadowBlurOuter1"></feGaussianBlur>
            <feColorMatrix values="0 0 0 0 0   0 0 0 0 0   0 0 0 0 0  0 0 0 0.15 0" type="matrix" in="shadowBlurOuter1" result="shadowMatrixOuter1"></feColorMatrix>
            <feMerge>
                <feMergeNode in="shadowMatrixOuter1"></feMergeNode>
                <feMergeNode in="SourceGraphic"></feMergeNode>
            </feMerge>
        </filter>
        <linearGradient x1="39.598747%" y1="19.1326531%" x2="75.3018846%" y2="80.8673469%" id="linearGradient-2">
            <stop stop-color="#3C3C3C" offset="0%"></stop>
            <stop stop-color="#2E2E2E" offset="100%"></stop>
        </linearGradient>
        <linearGradient x1="9.85732714%" y1="20.4142012%" x2="93.1443371%" y2="79.5857988%" id="linearGradient-3">
            <stop stop-color="#A655DF" offset="0%"></stop>
            <stop stop-color="#2F63AE" offset="100%"></stop>
        </linearGradient>
        <path d="M2.241,4.54747351e-13 L23.655,4.54747351e-13 C24.8926701,4.54519995e-13 25.896,1.00332988 25.896,2.241 L25.896,17.679 C25.896,18.9166701 24.8926701,19.92 23.655,19.92 L2.241,19.92 C1.00332988,19.92 1.48383851e-15,18.9166701 1.33226763e-15,17.679 L0,2.241 C-1.51570876e-16,1.00332988 1.00332988,4.54530618e-13 2.241,4.54303262e-13 Z" id="path-4"></path>
        <rect id="path-6" x="0" y="-4.54747351e-13" width="11.952" height="18.0525"></rect>
        <linearGradient x1="0%" y1="50%" x2="100%" y2="50%" id="linearGradient-8">
            <stop stop-color="#A09AD3" offset="0%"></stop>
            <stop stop-color="#988DD9" offset="49.6179452%"></stop>
            <stop stop-color="#1654D2" offset="100%"></stop>
        </linearGradient>
        <rect id="path-9" x="-3.63797881e-12" y="4.54747351e-13" width="11.454" height="18.0525"></rect>
        <rect id="path-11" x="0" y="0" width="11.952" height="4.98" rx="0.06225"></rect>
        <path d="M0,-4.54747351e-13 L13.63275,-4.54747351e-13 L13.63275,12.3255 C13.63275,14.0444863 12.2392363,15.438 10.52025,15.438 L0,15.438 L0,15.438 L0,-4.54747351e-13 Z" id="path-13"></path>
        <linearGradient x1="50%" y1="14.936267%" x2="62.3082175%" y2="67.0021012%" id="linearGradient-15">
            <stop stop-color="#F7FEFF" stop-opacity="0.839324738" offset="0%"></stop>
            <stop stop-color="#FFFFFF" stop-opacity="0" offset="100%"></stop>
        </linearGradient>
        <linearGradient x1="50%" y1="-17.3926397%" x2="56.2797028%" y2="82.6781089%" id="linearGradient-16">
            <stop stop-color="#F7FEFF" stop-opacity="0.469815341" offset="0%"></stop>
            <stop stop-color="#FFFFFF" stop-opacity="0.05" offset="100%"></stop>
        </linearGradient>
        <filter x="-25.6%" y="-32.9%" width="151.1%" height="151.1%" filterUnits="objectBoundingBox" id="filter-17">
            <feOffset dx="0" dy="-1" in="SourceAlpha" result="shadowOffsetOuter1"></feOffset>
            <feGaussianBlur stdDeviation="1" in="shadowOffsetOuter1" result="shadowBlurOuter1"></feGaussianBlur>
            <feColorMatrix values="0 0 0 0 0   0 0 0 0 0   0 0 0 0 0  0 0 0 0.15586757 0" type="matrix" in="shadowBlurOuter1" result="shadowMatrixOuter1"></feColorMatrix>
            <feMerge>
                <feMergeNode in="shadowMatrixOuter1"></feMergeNode>
                <feMergeNode in="SourceGraphic"></feMergeNode>
            </feMerge>
        </filter>
        <linearGradient x1="31.1954982%" y1="4.86180472%" x2="74.2845882%" y2="92.4702612%" id="linearGradient-18">
            <stop stop-color="#4F4F4F" offset="0%"></stop>
            <stop stop-color="#3F3F3F" offset="100%"></stop>
        </linearGradient>
        <path d="M6.87876712,1.43828767 C6.12786399,1.43828767 5.42124636,1.57996592 4.75889247,1.86332513 C4.09653993,2.14668434 3.51920306,2.53452796 3.02686551,3.02686551 C2.53452769,3.51920306 2.14668488,4.09653993 1.86332513,4.75889247 C1.57996537,5.42124636 1.43828767,6.12786399 1.43828767,6.87876712 C1.43828767,7.62967026 1.57996537,8.33628789 1.86332513,8.99864178 C2.14668488,9.66099431 2.53452769,10.2383312 3.02686551,10.7306687 C3.51920306,11.2230066 4.09653993,11.6108494 4.75889247,11.8942091 C5.42124636,12.1775689 6.12786399,12.3192466 6.87876712,12.3192466 C7.62967026,12.3192466 8.33628789,12.1775689 8.99864178,11.8942091 C9.66099431,11.6108494 10.2383312,11.2230066 10.7306687,10.7306687 C11.2230063,10.2383312 11.6108499,9.66099431 11.8942091,8.99864178 C12.1775683,8.33628789 12.3192466,7.62967026 12.3192466,6.87876712 C12.3192466,6.12786399 12.1775683,5.42124636 11.8942091,4.75889247 C11.6108499,4.09653993 11.2230063,3.51920306 10.7306687,3.02686551 C10.2383312,2.53452796 9.66099431,2.14668434 8.99864178,1.86332513 C8.33628789,1.57996592 7.62967026,1.43828767 6.87876712,1.43828767 L6.87876712,1.43828767 Z" id="path-19"></path>
        <filter x="-4.6%" y="-4.6%" width="109.2%" height="109.2%" filterUnits="objectBoundingBox" id="filter-20">
            <feOffset dx="0" dy="1" in="SourceAlpha" result="shadowOffsetInner1"></feOffset>
            <feComposite in="shadowOffsetInner1" in2="SourceAlpha" operator="arithmetic" k2="-1" k3="1" result="shadowInnerInner1"></feComposite>
            <feColorMatrix values="0 0 0 0 0   0 0 0 0 0   0 0 0 0 0  0 0 0 0.08 0" type="matrix" in="shadowInnerInner1"></feColorMatrix>
        </filter>
    </defs>
    <g id="apps/32/deepin-log-viewer" stroke="none" stroke-width="1" fill="none" fill-rule="evenodd">
        <g id="编组-3" filter="url(#filter-1)" transform="translate(16.1537, 16.5779) rotate(-5) translate(-16.1537, -16.5779)translate(1.8673, 3.9412)">
            <g id="矩形" transform="translate(0, 0)">
                <path d="M3.1125,0 L24.7755,-4.4408921e-16 C26.4944863,-7.59861867e-16 27.888,1.39351372 27.888,3.1125 L27.888,18.7995 C27.888,20.5184863 26.4944863,21.912 24.7755,21.912 L3.1125,21.912 C1.39351372,21.912 1.54278273e-15,20.5184863 1.33226763e-15,18.7995 L0,3.1125 C-2.10515105e-16,1.39351372 1.39351372,7.59861867e-16 3.1125,4.4408921e-16 Z" id="蒙版" fill="url(#linearGradient-2)"></path>
                <g id="kevin-lanceplaine-243768-unsplash" transform="translate(0.996, 0.996)">
                    <mask id="mask-5" fill="white">
                        <use xlink:href="#path-4"></use>
                    </mask>
                    <use id="蒙版" fill="url(#linearGradient-3)" xlink:href="#path-4"></use>
                    <g id="编组-2" mask="url(#mask-5)">
                        <g transform="translate(-0.996, 0.996)">
                            <mask id="mask-7" fill="white">
                                <use xlink:href="#path-6"></use>
                            </mask>
                            <g id="蒙版" stroke="none" fill="none"></g>
                            <g id="编组-2" stroke="none" stroke-width="1" fill="none" fill-rule="evenodd" mask="url(#mask-7)">
                                <g transform="translate(1.992, 12.948)">
                                    <rect id="bg" fill="url(#linearGradient-8)" x="0" y="4.54747351e-13" width="23.904" height="3.984" rx="0.6225"></rect>
                                    <rect id="矩形" fill="#00C98F" x="3.984" y="0.996" width="1.992" height="1.992" rx="0.31125"></rect>
                                    <rect id="矩形备份" fill="#FF7D52" x="7.968" y="0.996" width="1.992" height="1.992" rx="0.31125"></rect>
                                    <rect id="矩形备份-3" fill="#FFB656" x="10.956" y="0.996" width="1.992" height="1.992" rx="0.31125"></rect>
                                    <rect id="矩形备份-4" fill-opacity="0.3" fill="#000000" x="20.916" y="0.996" width="1.992" height="1.992" rx="0.31125"></rect>
                                    <rect id="矩形备份-6" fill-opacity="0.3" fill="#000000" x="17.928" y="0.996" width="1.992" height="1.992" rx="0.31125"></rect>
                                    <circle id="椭圆形" fill="#326CFF" cx="1.992" cy="1.992" r="1"></circle>
                                    <circle id="椭圆形备份" fill="#482AC5" cx="14.94" cy="1.992" r="1"></circle>
                                </g>
                            </g>
                        </g>
                    </g>
                    <g id="编组-2" mask="url(#mask-5)">
                        <g transform="translate(-4.98, 7.968)">
                            <mask id="mask-10" fill="white">
                                <use xlink:href="#path-9"></use>
                            </mask>
                            <g id="蒙版" stroke="none" fill="none"></g>
                            <g id="编组-2" stroke="none" stroke-width="1" fill="none" fill-rule="evenodd" mask="url(#mask-10)">
                                <g transform="translate(1.0509, 12.6861)">
                                    <rect id="bg" fill="url(#linearGradient-8)" x="0" y="0" width="23.904" height="3.984" rx="0.6225"></rect>
                                    <rect id="矩形" fill="#00C98F" x="3.984" y="0.996" width="1.992" height="1.992" rx="0.31125"></rect>
                                    <rect id="矩形备份" fill="#FF7D52" x="7.968" y="0.996" width="1.992" height="1.992" rx="0.31125"></rect>
                                    <rect id="矩形备份-3" fill="#FFB656" x="10.956" y="0.996" width="1.992" height="1.992" rx="0.31125"></rect>
                                    <rect id="矩形备份-4" fill-opacity="0.3" fill="#000000" x="20.916" y="0.996" width="1.992" height="1.992" rx="0.31125"></rect>
                                    <rect id="矩形备份-6" fill-opacity="0.3" fill="#000000" x="17.928" y="0.996" width="1.992" height="1.992" rx="0.31125"></rect>
                                    <circle id="椭圆形" fill="#326CFF" cx="1.992" cy="1.992" r="1"></circle>
                                    <circle id="椭圆形备份" fill="#482AC5" cx="14.94" cy="1.992" r="1"></circle>
                                </g>
                            </g>
                        </g>
                    </g>
                </g>
                <g id="编组-2备份" opacity="0.3" transform="translate(11.952, 14.94)">
                    <mask id="mask-12" fill="white">
                        <use xlink:href="#path-11"></use>
                    </mask>
                    <g id="蒙版"></g>
                    <g opacity="0.79703776" mask="url(#mask-12)" id="bg" stroke="#FFFFFF" stroke-width="0.996">
                        <g transform="translate(-1.992, -0)">
                            <rect x="0.498" y="0.498" width="14.50425" height="2.988" rx="0.6225"></rect>
                        </g>
                    </g>
                </g>
            </g>
            <g id="编组" transform="translate(12.5123, 0.8715)">
                <mask id="mask-14" fill="white">
                    <use xlink:href="#path-13"></use>
                </mask>
                <g id="蒙版"></g>
                <g opacity="0.560081845" mask="url(#mask-14)" fill="url(#linearGradient-15)" id="形状结合">
                    <g transform="translate(-6.723, 2.3033)">
                        <path d="M0.6225,4.59294824e-11 L0.80925,4.59294824e-11 C1.15304726,4.59294193e-11 1.43175,0.278702743 1.43175,0.6225 L1.43175,3.17475 C1.43175,3.51854726 1.15304726,3.79725 0.80925,3.79725 L0.6225,3.79725 C0.278702743,3.79725 1.53125323e-16,3.51854726 1.11022302e-16,3.17475 L1.11022302e-16,0.6225 C6.89192815e-17,0.278702743 0.278702743,4.59295456e-11 0.6225,4.59294824e-11 Z M0.6225,4.91775 L0.80925,4.91775 C1.15304726,4.91775 1.43175,5.19645274 1.43175,5.54025 L1.43175,8.0925 C1.43175,8.43629726 1.15304726,8.715 0.80925,8.715 L0.6225,8.715 C0.278702743,8.715 7.27597293e-11,8.43629726 7.27596872e-11,8.0925 L7.27596872e-11,5.54025 C7.27596451e-11,5.19645274 0.278702743,4.91775 0.6225,4.91775 Z M3.29925,4.91775 L3.486,4.91775 C3.82979726,4.91775 4.1085,5.19645274 4.1085,5.54025 L4.1085,8.0925 C4.1085,8.43629726 3.82979726,8.715 3.486,8.715 L3.29925,8.715 C2.95545274,8.715 2.67675,8.43629726 2.67675,8.0925 L2.67675,5.54025 C2.67675,5.19645274 2.95545274,4.91775 3.29925,4.91775 Z M7.40775,3.77440301e-11 L7.5945,3.77440301e-11 C7.93829726,3.7743967e-11 8.217,0.278702743 8.217,0.6225 L8.217,3.17475 C8.217,3.51854726 7.93829726,3.79725 7.5945,3.79725 L7.40775,3.79725 C7.06395274,3.79725 6.78525,3.51854726 6.78525,3.17475 L6.78525,0.6225 C6.78525,0.278702743 7.06395274,3.77440933e-11 7.40775,3.77440301e-11 Z M14.0685,5.86624083e-11 L14.25525,5.86624083e-11 C14.5990473,5.86623451e-11 14.87775,0.278702743 14.87775,0.6225 L14.87775,3.17475 C14.87775,3.51854726 14.5990473,3.79725 14.25525,3.79725 L14.0685,3.79725 C13.7247027,3.79725 13.446,3.51854726 13.446,3.17475 L13.446,0.6225 C13.446,0.278702743 13.7247027,5.86624714e-11 14.0685,5.86624083e-11 Z M10.02225,4.91775 L10.209,4.91775 C10.5527973,4.91775 10.8315,5.19645274 10.8315,5.54025 L10.8315,8.0925 C10.8315,8.43629726 10.5527973,8.715 10.209,8.715 L10.02225,8.715 C9.67845274,8.715 9.39975,8.43629726 9.39975,8.0925 L9.39975,5.54025 C9.39975,5.19645274 9.67845274,4.91775 10.02225,4.91775 Z M4.731,9.711 L4.91775,9.711 C5.26154726,9.711 5.54025,9.98970274 5.54025,10.3335 L5.54025,12.88575 C5.54025,13.2295473 5.26154726,13.50825 4.91775,13.50825 L4.731,13.50825 C4.38720274,13.50825 4.1085,13.2295473 4.1085,12.88575 L4.1085,10.3335 C4.1085,9.98970274 4.38720274,9.711 4.731,9.711 Z M15.50025,9.711 L15.687,9.711 C16.0307973,9.711 16.3095,9.98970274 16.3095,10.3335 L16.3095,12.88575 C16.3095,13.2295473 16.0307973,13.50825 15.687,13.50825 L15.50025,13.50825 C15.1564527,13.50825 14.87775,13.2295473 14.87775,12.88575 L14.87775,10.3335 C14.87775,9.98970274 15.1564527,9.711 15.50025,9.711 Z M18.177,9.711 L18.36375,9.711 C18.7075473,9.711 18.98625,9.98970274 18.98625,10.3335 L18.98625,12.88575 C18.98625,13.2295473 18.7075473,13.50825 18.36375,13.50825 L18.177,13.50825 C17.8332027,13.50825 17.5545,13.2295473 17.5545,12.88575 L17.5545,10.3335 C17.5545,9.98970274 17.8332027,9.711 18.177,9.711 Z M4.04625,3.63797881e-12 C4.83698369,3.63783355e-12 5.478,0.641016309 5.478,1.43175 L5.478,2.3655 C5.478,3.15623369 4.83698369,3.79725 4.04625,3.79725 C3.25551631,3.79725 2.6145,3.15623369 2.6145,2.3655 L2.6145,1.43175 C2.6145,0.641016309 3.25551631,3.63812406e-12 4.04625,3.63797881e-12 Z M4.07136842,1.29905921 C3.82166305,1.29905921 3.61923684,1.50148541 3.61923684,1.75119079 L3.61923684,2.04605921 C3.61923684,2.29576459 3.82166305,2.49819079 4.07136842,2.49819079 C4.3210738,2.49819079 4.5235,2.29576459 4.5235,2.04605921 L4.5235,1.75119079 C4.5235,1.50148541 4.3210738,1.29905921 4.07136842,1.29905921 Z M10.8315,-4.54747351e-13 C11.6222337,-4.54892606e-13 12.26325,0.641016309 12.26325,1.43175 L12.26325,2.3655 C12.26325,3.15623369 11.6222337,3.79725 10.8315,3.79725 C10.0407663,3.79725 9.39975,3.15623369 9.39975,2.3655 L9.39975,1.43175 C9.39975,0.641016309 10.0407663,-4.54602095e-13 10.8315,-4.54747351e-13 Z M10.8566184,1.29905921 C10.606913,1.29905921 10.4044868,1.50148541 10.4044868,1.75119079 L10.4044868,2.04605921 C10.4044868,2.29576459 10.606913,2.49819079 10.8566184,2.49819079 C11.1063238,2.49819079 11.30875,2.29576459 11.30875,2.04605921 L11.30875,1.75119079 C11.30875,1.50148541 11.1063238,1.29905921 10.8566184,1.29905921 Z M17.5545,9.18589649e-11 C18.3452337,9.18588196e-11 18.98625,0.64101631 18.98625,1.43175 L18.98625,2.3655 C18.98625,3.15623369 18.3452337,3.79725 17.5545,3.79725 C16.7637663,3.79725 16.12275,3.15623369 16.12275,2.3655 L16.12275,1.43175 C16.12275,0.64101631 16.7637663,9.18591101e-11 17.5545,9.18589649e-11 Z M17.5796184,1.29905921 C17.329913,1.29905921 17.1274868,1.50148541 17.1274868,1.75119079 L17.1274868,2.04605921 C17.1274868,2.29576459 17.329913,2.49819079 17.5796184,2.49819079 C17.8293238,2.49819079 18.03175,2.29576459 18.03175,2.04605921 L18.03175,1.75119079 C18.03175,1.50148541 17.8293238,1.29905921 17.5796184,1.29905921 Z M17.5545,4.91775 C18.3452337,4.91775 18.98625,5.55876631 18.98625,6.3495 L18.98625,7.28325 C18.98625,8.07398369 18.3452337,8.715 17.5545,8.715 C16.7637663,8.715 16.12275,8.07398369 16.12275,7.28325 L16.12275,6.3495 C16.12275,5.55876631 16.7637663,4.91775 17.5545,4.91775 Z M17.5796184,6.21680921 C17.329913,6.21680921 17.1274868,6.41923541 17.1274868,6.66894079 L17.1274868,6.96380921 C17.1274868,7.21351459 17.329913,7.41594079 17.5796184,7.41594079 C17.8293238,7.41594079 18.03175,7.21351459 18.03175,6.96380921 L18.03175,6.66894079 C18.03175,6.41923541 17.8293238,6.21680921 17.5796184,6.21680921 Z M13.446,4.91775 C14.2367337,4.91775 14.87775,5.55876631 14.87775,6.3495 L14.87775,7.28325 C14.87775,8.07398369 14.2367337,8.715 13.446,8.715 C12.6552663,8.715 12.01425,8.07398369 12.01425,7.28325 L12.01425,6.3495 C12.01425,5.55876631 12.6552663,4.91775 13.446,4.91775 Z M13.4711184,6.21680921 C13.221413,6.21680921 13.0189868,6.41923541 13.0189868,6.66894079 L13.0189868,6.96380921 C13.0189868,7.21351459 13.221413,7.41594079 13.4711184,7.41594079 C13.7208238,7.41594079 13.92325,7.21351459 13.92325,6.96380921 L13.92325,6.66894079 C13.92325,6.41923541 13.7208238,6.21680921 13.4711184,6.21680921 Z M8.15475,9.711 C8.94548369,9.711 9.5865,10.3520163 9.5865,11.14275 L9.5865,12.0765 C9.5865,12.8672337 8.94548369,13.50825 8.15475,13.50825 C7.36401631,13.50825 6.723,12.8672337 6.723,12.0765 L6.723,11.14275 C6.723,10.3520163 7.36401631,9.711 8.15475,9.711 Z M8.17986842,11.0100592 C7.93016304,11.0100592 7.72773684,11.2124854 7.72773684,11.4621908 L7.72773684,11.7570592 C7.72773684,12.0067646 7.93016304,12.2091908 8.17986842,12.2091908 C8.4295738,12.2091908 8.632,12.0067646 8.632,11.7570592 L8.632,11.4621908 C8.632,11.2124854 8.4295738,11.0100592 8.17986842,11.0100592 Z M1.43175,9.89775 C2.22248369,9.89775 2.8635,10.5387663 2.8635,11.3295 L2.8635,12.26325 C2.8635,13.0539837 2.22248369,13.695 1.43175,13.695 C0.641016309,13.695 7.27605445e-12,13.0539837 7.27595761e-12,12.26325 L7.27573557e-12,11.3295 C7.27563873e-12,10.5387663 0.641016309,9.89775 1.43175,9.89775 Z M1.45686842,11.1968092 C1.20716305,11.1968092 1.00473684,11.3992354 1.00473684,11.6489408 L1.00473684,11.9438092 C1.00473684,12.1935146 1.20716305,12.3959408 1.45686842,12.3959408 C1.7065738,12.3959408 1.909,12.1935146 1.909,11.9438092 L1.909,11.6489408 C1.909,11.3992354 1.7065738,11.1968092 1.45686842,11.1968092 Z M12.26325,9.89775 C13.0539837,9.89775 13.695,10.5387663 13.695,11.3295 L13.695,12.26325 C13.695,13.0539837 13.0539837,13.695 12.26325,13.695 C11.4725163,13.695 10.8315,13.0539837 10.8315,12.26325 L10.8315,11.3295 C10.8315,10.5387663 11.4725163,9.89775 12.26325,9.89775 Z M12.2883684,11.1968092 C12.038663,11.1968092 11.8362368,11.3992354 11.8362368,11.6489408 L11.8362368,11.9438092 C11.8362368,12.1935146 12.038663,12.3959408 12.2883684,12.3959408 C12.5380738,12.3959408 12.7405,12.1935146 12.7405,11.9438092 L12.7405,11.6489408 C12.7405,11.3992354 12.5380738,11.1968092 12.2883684,11.1968092 Z M6.723,4.98 C7.51373369,4.98 8.15475,5.62101631 8.15475,6.41175 L8.15475,7.3455 C8.15475,8.13623369 7.51373369,8.77725 6.723,8.77725 C5.93226631,8.77725 5.29125,8.13623369 5.29125,7.3455 L5.29125,6.41175 C5.29125,5.62101631 5.93226631,4.98 6.723,4.98 Z M6.74811842,6.27905921 C6.49841305,6.27905921 6.29598684,6.48148541 6.29598684,6.73119079 L6.29598684,7.02605921 C6.29598684,7.27576459 6.49841305,7.47819079 6.74811842,7.47819079 C6.9978238,7.47819079 7.20025,7.27576459 7.20025,7.02605921 L7.20025,6.73119079 C7.20025,6.48148541 6.9978238,6.27905921 6.74811842,6.27905921 Z"></path>
                    </g>
                </g>
            </g>
            <path d="M2.92575,2.988 L6.8475,2.988 C6.91625945,2.988 6.972,3.04374055 6.972,3.1125 L6.972,16.8075 C6.972,16.8762595 6.91625945,16.932 6.8475,16.932 L3.1125,16.932 C2.49366494,16.932 1.992,16.4303351 1.992,15.8115 L1.992,3.92175 C1.992,3.40605411 2.41005412,2.988 2.92575,2.988 Z M8.0925,2.988 L11.8275,2.988 C11.8962595,2.988 11.952,3.04374055 11.952,3.1125 L11.952,4.8555 C11.952,4.92425945 11.8962595,4.98 11.8275,4.98 L8.0925,4.98 C8.02374055,4.98 7.968,4.92425945 7.968,4.8555 L7.968,3.1125 C7.968,3.04374055 8.02374055,2.988 8.0925,2.988 Z M8.0925,5.976 L11.8275,5.976 C11.8962595,5.976 11.952,6.03174055 11.952,6.1005 L11.952,15.8115 C11.952,15.8802595 11.8962595,15.936 11.8275,15.936 L8.0925,15.936 C8.02374055,15.936 7.968,15.8802595 7.968,15.8115 L7.968,6.1005 C7.968,6.03174055 8.02374055,5.976 8.0925,5.976 Z" id="形状结合" fill="url(#linearGradient-16)" opacity="0.422758557"></path>
            <g id="Group-5备份-2" filter="url(#filter-17)" transform="translate(14.8778, 11.5785)">
                <path d="M4.1793819,0.534960937 C3.3457313,0.891602704 2.61908316,1.37975071 1.99941693,1.99941693 C1.37975037,2.61908316 0.891603388,3.3457313 0.534960937,4.1793819 C0.178318487,5.01303421 0,5.90239778 0,6.8475 C0,7.79260222 0.178318487,8.68196579 0.534960937,9.5156181 C0.891603388,10.3492687 1.37975037,11.0759168 1.99941693,11.6955831 C2.61908316,12.3152496 3.3457313,12.8033966 4.1793819,13.1600391 C5.01303421,13.5166815 5.90239778,13.695 6.8475,13.695 C7.79260222,13.695 8.68196579,13.5166815 9.5156181,13.1600391 C10.3492687,12.8033966 11.0759168,12.3152496 11.6955831,11.6955831 C12.3152493,11.0759168 12.8033973,10.3492687 13.1600391,9.5156181 C13.5166808,8.68196579 13.695,7.79260222 13.695,6.8475 C13.695,5.90239778 13.5166808,5.01303421 13.1600391,4.1793819 C12.8033973,3.3457313 12.3152493,2.61908316 11.6955831,1.99941693 C11.0759168,1.37975071 10.3492687,0.891602704 9.5156181,0.534960937 C8.68196579,0.178319171 7.79260222,0 6.8475,0 C5.90239778,0 5.01303421,0.178319171 4.1793819,0.534960937 Z" id="Path" fill="url(#linearGradient-18)"></path>
                <g id="Path备份">
                    <use fill="#FFFFFF" fill-rule="evenodd" xlink:href="#path-19"></use>
                    <use fill="black" fill-opacity="1" filter="url(#filter-20)" xlink:href="#path-19"></use>
                </g>
                <path d="M6.69338782,1.43828767 L7.0963863,1.43828767 L7.0963863,2.52638356 L6.69338782,2.52638356 Z M9.41054311,2.05836412 L9.78747059,2.2759833 L9.24342264,3.21830198 L8.86649517,3.0006828 L9.41054311,2.05836412 Z M11.4815509,3.97006366 L11.6991701,4.34699113 L10.7568514,4.89103908 L10.5392323,4.51411161 L11.4815509,3.97006366 Z M12.3192466,6.66114795 L12.3192466,7.0963863 L11.2311507,7.0963863 L11.2311507,6.66114795 L12.3192466,6.66114795 Z M11.6991701,9.41054311 L11.4815509,9.78747059 L10.5392323,9.24342264 L10.7568514,8.86649517 L11.6991701,9.41054311 Z M9.78747059,11.4815509 L9.41054311,11.6991701 L8.86649517,10.7568514 L9.24342264,10.5392323 L9.78747059,11.4815509 Z M7.0963863,12.3192466 L6.69338782,12.3192466 L6.69338782,11.2311507 L7.0963863,11.2311507 Z M4.34699113,11.6991701 L3.97006366,11.4815509 L4.51411161,10.5392323 L4.89103908,10.7568514 L4.34699113,11.6991701 Z M2.2759833,9.78747059 L2.05836412,9.41054311 L3.0006828,8.86649517 L3.21830198,9.24342264 L2.2759833,9.78747059 Z M1.43828767,7.0963863 L1.43828767,6.66114795 L2.52638356,6.66114795 L2.52638356,7.0963863 L1.43828767,7.0963863 Z M2.05836412,4.34699113 L2.2759833,3.97006366 L3.21830198,4.51411161 L3.0006828,4.89103908 L2.05836412,4.34699113 Z M3.97006366,2.2759833 L4.34699113,2.05836412 L4.89103908,3.0006828 L4.51411161,3.21830198 L3.97006366,2.2759833 Z" id="Rectangle-5" fill="#2F2F2F"></path>
                <path d="M4.9635612,5.23629472 L6.87683326,5.23629472 C7.15490457,5.23629472 7.38032591,5.46171605 7.38032591,5.73978736 C7.38032591,6.01785868 7.15490457,6.24328001 6.87683326,6.24328001 L4.9635612,6.24328001 L4.9635612,6.24328001 L4.9635612,5.23629472 Z" id="Rectangle-9" fill="#7F7F7F" transform="translate(6.1719, 5.7398) rotate(-113) translate(-6.1719, -5.7398)"></path>
                <path d="M6.25342466,6.62863014 L9.34886986,6.62863014 C9.53882177,6.62863014 9.69280822,6.78261658 9.69280822,6.97256849 C9.69280822,7.1625204 9.53882177,7.31650685 9.34886986,7.31650685 L6.41118022,7.31650685 L6.41118022,7.31650685 L6.25342466,6.62863014 Z" id="Rectangle-9" fill="#FD6C6C"></path>
                <circle id="Oval-4" fill="#4D4D4D" cx="6.65989726" cy="6.78496575" r="1"></circle>
            </g>
        </g>
        <g id="Guide/32" transform="translate(1, 1)"></g>
    </g>
</svg>