<?xml version="1.0" encoding="UTF-8"?>
<svg width="32px" height="32px" viewBox="0 0 32 32" version="1.1" xmlns="http://www.w3.org/2000/svg" xmlns:xlink="http://www.w3.org/1999/xlink">
    <title>apps/32/fcitx/fcitx</title>
    <defs>
        <filter x="-7.7%" y="-4.0%" width="115.4%" height="116.0%" filterUnits="objectBoundingBox" id="filter-1">
            <feOffset dx="0" dy="1" in="SourceAlpha" result="shadowOffsetOuter1"></feOffset>
            <feGaussianBlur stdDeviation="0.5" in="shadowOffsetOuter1" result="shadowBlurOuter1"></feGaussianBlur>
            <feColorMatrix values="0 0 0 0 0   0 0 0 0 0   0 0 0 0 0  0 0 0 0.15 0" type="matrix" in="shadowBlurOuter1" result="shadowMatrixOuter1"></feColorMatrix>
            <feMerge>
                <feMergeNode in="shadowMatrixOuter1"></feMergeNode>
                <feMergeNode in="SourceGraphic"></feMergeNode>
            </feMerge>
        </filter>
        <linearGradient x1="50%" y1="0%" x2="50%" y2="100%" id="linearGradient-2">
            <stop stop-color="#DDDDDD" offset="0%"></stop>
            <stop stop-color="#9E9E9E" offset="100%"></stop>
        </linearGradient>
        <path d="M3.125,0 L22.875,0 C24.6008898,-3.17040821e-16 26,1.39911016 26,3.125 L26,11.875 C26,13.6008898 24.6008898,15 22.875,15 L3.125,15 C1.39911016,15 2.11360547e-16,13.6008898 0,11.875 L0,3.125 C-2.11360547e-16,1.39911016 1.39911016,1.64930845e-15 3.125,1.33226763e-15 Z" id="path-3"></path>
        <filter x="-1.9%" y="-3.3%" width="103.8%" height="106.7%" filterUnits="objectBoundingBox" id="filter-4">
            <feOffset dx="0" dy="-1" in="SourceAlpha" result="shadowOffsetInner1"></feOffset>
            <feComposite in="shadowOffsetInner1" in2="SourceAlpha" operator="arithmetic" k2="-1" k3="1" result="shadowInnerInner1"></feComposite>
            <feColorMatrix values="0 0 0 0 0   0 0 0 0 0   0 0 0 0 0  0 0 0 0.25 0" type="matrix" in="shadowInnerInner1"></feColorMatrix>
        </filter>
        <linearGradient x1="50%" y1="0%" x2="50%" y2="100%" id="linearGradient-5">
            <stop stop-color="#E9E9E9" offset="0%"></stop>
            <stop stop-color="#E3E3E3" offset="100%"></stop>
        </linearGradient>
        <path d="M10.5,9 L19.5,9 C20.3284271,9 21,9.67157288 21,10.5 C21,11.3284271 20.3284271,12 19.5,12 L10.5,12 C9.67157288,12 9,11.3284271 9,10.5 C9,9.67157288 9.67157288,9 10.5,9 Z M2.5,5 L5.5,5 C6.32842712,5 7,5.67157288 7,6.5 C7,7.32842712 6.32842712,8 5.5,8 L2.5,8 C1.67157288,8 1,7.32842712 1,6.5 C1,5.67157288 1.67157288,5 2.5,5 Z M21.5,5 L23.5,5 C24.3284271,5 25,5.67157288 25,6.5 C25,7.32842712 24.3284271,8 23.5,8 L21.5,8 C20.6715729,8 20,7.32842712 20,6.5 C20,5.67157288 20.6715729,5 21.5,5 Z M23.5,12 C24.3284271,12 25,11.3284271 25,10.5 C25,9.67157288 24.3284271,9 23.5,9 C22.6715729,9 22,9.67157288 22,10.5 C22,11.3284271 22.6715729,12 23.5,12 Z M2.5,12 C3.32842712,12 4,11.3284271 4,10.5 C4,9.67157288 3.32842712,9 2.5,9 C1.67157288,9 1,9.67157288 1,10.5 C1,11.3284271 1.67157288,12 2.5,12 Z M6.5,12 C7.32842712,12 8,11.3284271 8,10.5 C8,9.67157288 7.32842712,9 6.5,9 C5.67157288,9 5,9.67157288 5,10.5 C5,11.3284271 5.67157288,12 6.5,12 Z M9.5,8 C10.3284271,8 11,7.32842712 11,6.5 C11,5.67157288 10.3284271,5 9.5,5 C8.67157288,5 8,5.67157288 8,6.5 C8,7.32842712 8.67157288,8 9.5,8 Z M2.5,4 C3.32842712,4 4,3.32842712 4,2.5 C4,1.67157288 3.32842712,1 2.5,1 C1.67157288,1 1,1.67157288 1,2.5 C1,3.32842712 1.67157288,4 2.5,4 Z M15.5,4 C16.3284271,4 17,3.32842712 17,2.5 C17,1.67157288 16.3284271,1 15.5,1 C14.6715729,1 14,1.67157288 14,2.5 C14,3.32842712 14.6715729,4 15.5,4 Z M17.5,8 C18.3284271,8 19,7.32842712 19,6.5 C19,5.67157288 18.3284271,5 17.5,5 C16.6715729,5 16,5.67157288 16,6.5 C16,7.32842712 16.6715729,8 17.5,8 Z M13.5,8 C14.3284271,8 15,7.32842712 15,6.5 C15,5.67157288 14.3284271,5 13.5,5 C12.6715729,5 12,5.67157288 12,6.5 C12,7.32842712 12.6715729,8 13.5,8 Z M6.5,4 C7.32842712,4 8,3.32842712 8,2.5 C8,1.67157288 7.32842712,1 6.5,1 C5.67157288,1 5,1.67157288 5,2.5 C5,3.32842712 5.67157288,4 6.5,4 Z M10.5,4 C11.3284271,4 12,3.32842712 12,2.5 C12,1.67157288 11.3284271,1 10.5,1 C9.67157288,1 9,1.67157288 9,2.5 C9,3.32842712 9.67157288,4 10.5,4 Z M19.5,4 C20.3284271,4 21,3.32842712 21,2.5 C21,1.67157288 20.3284271,1 19.5,1 C18.6715729,1 18,1.67157288 18,2.5 C18,3.32842712 18.6715729,4 19.5,4 Z M23.5,4 C24.3284271,4 25,3.32842712 25,2.5 C25,1.67157288 24.3284271,1 23.5,1 C22.6715729,1 22,1.67157288 22,2.5 C22,3.32842712 22.6715729,4 23.5,4 Z" id="path-6"></path>
        <filter x="-2.1%" y="-4.5%" width="104.2%" height="118.2%" filterUnits="objectBoundingBox" id="filter-7">
            <feOffset dx="0" dy="1" in="SourceAlpha" result="shadowOffsetOuter1"></feOffset>
            <feColorMatrix values="0 0 0 0 0   0 0 0 0 0   0 0 0 0 0  0 0 0 0.08 0" type="matrix" in="shadowOffsetOuter1"></feColorMatrix>
        </filter>
        <linearGradient x1="50%" y1="0%" x2="50%" y2="100%" id="linearGradient-8">
            <stop stop-color="#03E297" offset="0%"></stop>
            <stop stop-color="#00A8D3" offset="98.5747466%"></stop>
        </linearGradient>
        <path d="M8,0 L18.9691737,8.8817842e-16 C20.0714479,6.85693933e-16 20.9659247,0.891851309 20.969165,1.99412075 L20.9986009,12.0075499 C20.9994802,12.3066823 20.8575578,12.5882764 20.6165879,12.7655176 L14.0554829,17.5914242 C13.725041,17.834475 13.274959,17.834475 12.9445171,17.5914242 L6.38201706,12.7644915 C6.14182934,12.5878256 6,12.3074423 6,12.0092796 L6,2 C6,0.8954305 6.8954305,2.02906125e-16 8,0 Z" id="path-9"></path>
        <filter x="-13.3%" y="-5.6%" width="126.7%" height="121.0%" filterUnits="objectBoundingBox" id="filter-10">
            <feOffset dx="0" dy="1" in="SourceAlpha" result="shadowOffsetOuter1"></feOffset>
            <feGaussianBlur stdDeviation="0.5" in="shadowOffsetOuter1" result="shadowBlurOuter1"></feGaussianBlur>
            <feColorMatrix values="0 0 0 0 0   0 0 0 0 0   0 0 0 0 0  0 0 0 0.1 0" type="matrix" in="shadowBlurOuter1"></feColorMatrix>
        </filter>
        <filter x="-10.0%" y="-2.8%" width="120.0%" height="115.4%" filterUnits="objectBoundingBox" id="filter-11">
            <feOffset dx="0" dy="-1" in="SourceAlpha" result="shadowOffsetInner1"></feOffset>
            <feComposite in="shadowOffsetInner1" in2="SourceAlpha" operator="arithmetic" k2="-1" k3="1" result="shadowInnerInner1"></feComposite>
            <feColorMatrix values="0 0 0 0 0   0 0 0 0 0   0 0 0 0 0  0 0 0 0.08 0" type="matrix" in="shadowInnerInner1" result="shadowMatrixInner1"></feColorMatrix>
            <feOffset dx="0" dy="1" in="SourceAlpha" result="shadowOffsetInner2"></feOffset>
            <feComposite in="shadowOffsetInner2" in2="SourceAlpha" operator="arithmetic" k2="-1" k3="1" result="shadowInnerInner2"></feComposite>
            <feColorMatrix values="0 0 0 0 1   0 0 0 0 1   0 0 0 0 1  0 0 0 0.25 0" type="matrix" in="shadowInnerInner2" result="shadowMatrixInner2"></feColorMatrix>
            <feMerge>
                <feMergeNode in="shadowMatrixInner1"></feMergeNode>
                <feMergeNode in="shadowMatrixInner2"></feMergeNode>
            </feMerge>
        </filter>
        <path d="M6,5.99875 L6,2.99875 L10,2.99875 L10,5.99875 L6,5.99875 Z M1,5.99875 L1,2.99875 L5,2.99875 L5,5.99875 L1,5.99875 Z M6,1.99875 L6,0 L5,0 L5,1.99875 L0,1.99875 L0,7.99875 L1,7.99875 L1,6.99875 L5,6.99875 L5,12.0225 L6,12.0225 L6,6.99875 L10,6.99875 L10,7.99875 L11,7.99875 L11,1.99875 L6,1.99875 Z" id="path-12"></path>
        <filter x="-18.2%" y="-8.3%" width="136.4%" height="133.3%" filterUnits="objectBoundingBox" id="filter-13">
            <feOffset dx="0" dy="1" in="SourceAlpha" result="shadowOffsetOuter1"></feOffset>
            <feGaussianBlur stdDeviation="0.5" in="shadowOffsetOuter1" result="shadowBlurOuter1"></feGaussianBlur>
            <feColorMatrix values="0 0 0 0 0   0 0 0 0 0   0 0 0 0 0  0 0 0 0.16 0" type="matrix" in="shadowBlurOuter1"></feColorMatrix>
        </filter>
    </defs>
    <g id="apps/32/fcitx/fcitx" stroke="none" stroke-width="1" fill="none" fill-rule="evenodd">
        <g id="编组-2" filter="url(#filter-1)" transform="translate(3, 3)">
            <g id="编组" transform="translate(0, 10)">
                <g id="矩形">
                    <use fill="url(#linearGradient-2)" fill-rule="evenodd" xlink:href="#path-3"></use>
                    <use fill="black" fill-opacity="1" filter="url(#filter-4)" xlink:href="#path-3"></use>
                </g>
                <g id="形状结合">
                    <use fill="black" fill-opacity="1" filter="url(#filter-7)" xlink:href="#path-6"></use>
                    <use fill="url(#linearGradient-5)" fill-rule="evenodd" xlink:href="#path-6"></use>
                </g>
            </g>
            <g id="路径-4">
                <use fill="black" fill-opacity="1" filter="url(#filter-10)" xlink:href="#path-9"></use>
                <use fill="url(#linearGradient-8)" fill-rule="evenodd" xlink:href="#path-9"></use>
                <use fill="black" fill-opacity="1" filter="url(#filter-11)" xlink:href="#path-9"></use>
            </g>
            <g id="中" transform="translate(8, 2.0012)" fill-rule="nonzero">
                <g id="形状">
                    <use fill="black" fill-opacity="1" filter="url(#filter-13)" xlink:href="#path-12"></use>
                    <use fill="#FFFFFF" xlink:href="#path-12"></use>
                </g>
            </g>
        </g>
        <g id="Guide/32" transform="translate(1, 1)"></g>
    </g>
</svg>