<svg xmlns="http://www.w3.org/2000/svg" xmlns:xlink="http://www.w3.org/1999/xlink" width="32" height="32" viewBox="0 0 32 32">
  <defs>
    <filter id="foxitreader-a" width="136%" height="126.7%" x="-20%" y="-13.3%" filterUnits="objectBoundingBox">
      <feOffset dy="1" in="SourceAlpha" result="shadowOffsetOuter1"/>
      <feGaussianBlur in="shadowOffsetOuter1" result="shadowBlurOuter1" stdDeviation=".5"/>
      <feComposite in="shadowBlurOuter1" in2="SourceAlpha" operator="out" result="shadowBlurOuter1"/>
      <feColorMatrix in="shadowBlurOuter1" result="shadowMatrixOuter1" values="0 0 0 0 0   0 0 0 0 0   0 0 0 0 0  0 0 0 0.15 0"/>
      <feMerge>
        <feMergeNode in="shadowMatrixOuter1"/>
        <feMergeNode in="SourceGraphic"/>
      </feMerge>
    </filter>
    <linearGradient id="foxitreader-b" x1="33.37%" x2="36.44%" y1="1.75%" y2="96.829%">
      <stop offset="0%" stop-color="#FF9E00"/>
      <stop offset="100%" stop-color="#FF5C11"/>
    </linearGradient>
    <path id="foxitreader-c" d="M4.49936572,1.10678796 L20.4925872,1.11670478 C22.5618493,1.11798785 24.2389932,2.79514382 24.2402613,4.86440593 L24.2529588,25.5838343 C24.254228,27.6549017 22.5763251,29.3348625 20.5052576,29.3361317 C20.5037165,29.3361327 20.5021754,29.3361327 20.5006343,29.3361317 L4.50741279,29.3262149 C2.43815068,29.3249318 0.761006846,27.6477758 0.759738734,25.5785137 L0.747041182,4.85908536 C0.745771963,2.78801794 2.42367493,1.10805716 4.49474235,1.10678794 C4.49628347,1.106787 4.4978246,1.106787 4.49936572,1.10678796 Z"/>
    <filter id="foxitreader-d" width="108.5%" height="107.1%" x="-4.3%" y="-3.5%" filterUnits="objectBoundingBox">
      <feGaussianBlur in="SourceAlpha" result="shadowBlurInner1" stdDeviation=".5"/>
      <feOffset dx="-1" dy="-1" in="shadowBlurInner1" result="shadowOffsetInner1"/>
      <feComposite in="shadowOffsetInner1" in2="SourceAlpha" k2="-1" k3="1" operator="arithmetic" result="shadowInnerInner1"/>
      <feColorMatrix in="shadowInnerInner1" values="0 0 0 0 0.570623868   0 0 0 0 0.00103295098   0 0 0 0 0.00103295098  0 0 0 0.5 0"/>
    </filter>
    <path id="foxitreader-f" d="M24.0160625,3.72282874 L22.8791785,26.1214891 C22.8126876,27.431479 21.6968295,28.4395342 20.3868395,28.3730433 L20.3814634,28.3727643 L2.84237742,27.4426742 C2.16682508,27.4068499 1.64788247,26.8236678 1.68328667,26.1401004 C1.71869087,25.4565331 2.29503502,24.9314335 2.97058737,24.9672578 L3.53157763,24.9924912 L19.3086819,25.8299643 L19.3086819,25.8299643 C21.036109,25.9194358 22.5057139,24.594566 22.5949837,22.8709864 L22.5949837,22.8709864 L23.6182075,3.11507037 C23.6259068,2.96641439 23.6141247,2.8212527 23.5850941,2.68206554 C23.8673419,2.9374824 24.0368639,3.31300403 24.0160625,3.72282874 Z"/>
    <filter id="foxitreader-e" width="117.9%" height="115.5%" x="-13.4%" y="-11.7%" filterUnits="objectBoundingBox">
      <feOffset dx="-1" dy="-1" in="SourceAlpha" result="shadowOffsetOuter1"/>
      <feGaussianBlur in="shadowOffsetOuter1" result="shadowBlurOuter1" stdDeviation=".5"/>
      <feColorMatrix in="shadowBlurOuter1" values="0 0 0 0 0.795120018   0 0 0 0 0   0 0 0 0 0  0 0 0 0.5 0"/>
    </filter>
    <filter id="foxitreader-g" width="117.9%" height="115.5%" x="-13.4%" y="-11.7%" filterUnits="objectBoundingBox">
      <feGaussianBlur in="SourceAlpha" result="shadowBlurInner1" stdDeviation=".5"/>
      <feOffset dx="1" dy="1" in="shadowBlurInner1" result="shadowOffsetInner1"/>
      <feComposite in="shadowOffsetInner1" in2="SourceAlpha" k2="-1" k3="1" operator="arithmetic" result="shadowInnerInner1"/>
      <feColorMatrix in="shadowInnerInner1" values="0 0 0 0 0.782042572   0 0 0 0 0.260324814   0 0 0 0 0  0 0 0 0.5 0"/>
    </filter>
  </defs>
  <g fill="none" fill-rule="evenodd" filter="url(#foxitreader-a)" transform="translate(4 1)">
    <g transform="rotate(3 12.5 15.221)">
      <use fill="url(#foxitreader-b)" xlink:href="#foxitreader-c"/>
      <use fill="#000" filter="url(#foxitreader-d)" xlink:href="#foxitreader-c"/>
    </g>
    <use fill="#000" filter="url(#foxitreader-e)" xlink:href="#foxitreader-f"/>
    <use fill="#FFF" xlink:href="#foxitreader-f"/>
    <use fill="#000" filter="url(#foxitreader-g)" xlink:href="#foxitreader-f"/>
    <path fill="#FFF" fill-rule="nonzero" d="M15.0991201,16.9052249 C14.759261,17.2491081 8.98010737,19.3108596 9.99771519,13.4628757 C11.0160265,9.3350112 14.0763067,10.0243252 14.7563064,10.0246066 C15.4363062,10.024888 17.1367276,11.0576631 17.1367276,11.0576631 C17.1367276,11.0576631 16.7957429,8.64935523 14.4156031,8.30434649 C14.4156031,8.30434649 16.7953208,7.61728359 19.5168673,11.4026718 C19.5168673,11.4026718 19.1748978,6.5861968 14.7547588,6.2403439 C9.3146202,5.89406893 6.93645014,10.3653945 6.93645014,10.3653945 C6.93645014,10.3653945 2.85912489,16.9001599 9.32024793,19.6550242 C15.1009492,21.3775353 17.1394007,17.5941168 17.1394007,17.5941168 C17.1394007,17.5941168 18.8384152,15.1866531 17.1371497,12.0897347 C17.1371497,12.0897347 17.1375717,13.1218064 16.4577127,13.4655489 C16.4577127,13.4655489 16.4572906,12.4334772 15.4371503,12.0890313 C15.4371503,12.0890313 15.7785571,15.5294108 12.0384179,15.1838393 C12.0384179,15.1838393 13.0591209,16.9043807 15.0991201,16.9052249 Z" transform="rotate(2 12.592 13.163)"/>
  </g>
</svg>
