<?xml version="1.0" encoding="UTF-8"?>
<svg width="32px" height="32px" viewBox="0 0 32 32" version="1.1" xmlns="http://www.w3.org/2000/svg" xmlns:xlink="http://www.w3.org/1999/xlink">
    <title>app/ide/32px</title>
    <defs>
        <filter x="-7.1%" y="-3.6%" width="114.3%" height="114.3%" filterUnits="objectBoundingBox" id="filter-1">
            <feOffset dx="0" dy="1" in="SourceAlpha" result="shadowOffsetOuter1"></feOffset>
            <feGaussianBlur stdDeviation="0.5" in="shadowOffsetOuter1" result="shadowBlurOuter1"></feGaussianBlur>
            <feColorMatrix values="0 0 0 0 0   0 0 0 0 0   0 0 0 0 0  0 0 0 0.15 0" type="matrix" in="shadowBlurOuter1" result="shadowMatrixOuter1"></feColorMatrix>
            <feMerge>
                <feMergeNode in="shadowMatrixOuter1"></feMergeNode>
                <feMergeNode in="SourceGraphic"></feMergeNode>
            </feMerge>
        </filter>
        <linearGradient x1="59.0850092%" y1="100%" x2="59.0850092%" y2="-35.7610059%" id="linearGradient-2">
            <stop stop-color="#0056F5" offset="0%"></stop>
            <stop stop-color="#B4DFFF" offset="100%"></stop>
        </linearGradient>
        <linearGradient x1="15.2951102%" y1="4.05950478%" x2="93.5804488%" y2="91.0619167%" id="linearGradient-3">
            <stop stop-color="#6188FF" offset="0%"></stop>
            <stop stop-color="#0065FA" stop-opacity="0" offset="100%"></stop>
        </linearGradient>
        <linearGradient x1="50%" y1="-20.1731725%" x2="50%" y2="116.108818%" id="linearGradient-4">
            <stop stop-color="#3480F8" offset="0%"></stop>
            <stop stop-color="#CCE0FA" offset="100%"></stop>
        </linearGradient>
        <linearGradient x1="42.0245068%" y1="0%" x2="42.0245068%" y2="112.774634%" id="linearGradient-5">
            <stop stop-color="#CCE0FA" offset="0%"></stop>
            <stop stop-color="#3480F8" offset="100%"></stop>
        </linearGradient>
    </defs>
    <g id="app/ide/32px" stroke="none" stroke-width="1" fill="none" fill-rule="evenodd">
        <g id="编组" filter="url(#filter-1)" transform="translate(2, 2)">
            <path d="M5.5,0 L22.5,0 C25.5375661,0 28,2.46243388 28,5.5 L28,22.5 C28,25.5375661 25.5375661,28 22.5,28 L5.5,28 C2.46243388,28 0,25.5375661 0,22.5 L0,5.5 C0,2.46243388 2.46243388,0 5.5,0 Z" id="矩形" fill="url(#linearGradient-2)"></path>
            <g id="编组-2" transform="translate(5, 4.3599)">
                <path d="M10.2141073,0.31460681 L16.7141073,3.92571792 C17.5077703,4.36664179 18,5.2031933 18,6.11111111 L18,13.1690944 C18,14.0770122 17.5077703,14.9135637 16.7141073,15.3544876 L10.2141073,18.9655987 C9.45905098,19.3850744 8.54094902,19.3850744 7.78589267,18.9655987 L1.28589267,15.3544876 C0.492229709,14.9135637 0,14.0770122 0,13.1690944 L0,6.11111111 C0,5.2031933 0.492229709,4.36664179 1.28589267,3.92571792 L7.78589267,0.31460681 C8.48286776,-0.0726015715 9.31876929,-0.102386832 10.0371177,0.225251029 L10.2141073,0.31460681 Z" id="多边形" fill="url(#linearGradient-3)"></path>
                <path d="M6,7.68629821 L6,17.2283852 C6,17.4712731 5.86144966,17.6818009 5.65907075,17.7852467 L1.28589267,15.3544876 C0.492229709,14.9135637 0,14.0770122 0,13.1690944 L0,7.68629821 L6,7.68629821 Z" id="形状结合" fill="url(#linearGradient-4)"></path>
                <path d="M12.2196782,1.42777401 L16.7141073,3.92571792 C17.5077703,4.36664179 18,5.2031933 18,6.11111111 L18,11.4456283 L12,11.4456283 L12,1.90354124 C12,1.71302093 12.0852468,1.54241109 12.2196782,1.42777401 Z" id="形状结合" fill="url(#linearGradient-5)"></path>
                <path d="M18,6.82760274 L18,13.1690944 C18,14.0770122 17.5077703,14.9135637 16.7141073,15.3544876 L10.2141073,18.9655987 C9.83672963,19.1752529 9.418623,19.2801219 9.00050015,19.2802054 L9,12.3171327 C9,12.092536 9.12050959,11.885209 9.31566907,11.7740495 L18,6.82760274 Z M9.00050015,4.99766103e-08 L9,6.92699469 C9,7.15089187 8.8802335,7.3576849 8.68602972,7.46910678 L0,12.4526027 L0,6.11111111 C0,5.2031933 0.492229709,4.36664179 1.28589267,3.92571792 L7.78589267,0.31460681 C8.16357131,0.104785342 8.58204386,-8.35775512e-05 9.00050015,4.99766102e-08 Z" id="形状结合" fill="#F2F8FF"></path>
            </g>
        </g>
    </g>
</svg>