<svg xmlns="http://www.w3.org/2000/svg" width="32" height="32" viewBox="0 0 32 32">
  <defs>
    <filter id="iso定制工具-32px-a" width="130%" height="133.3%" x="-13.3%" y="-16.7%" filterUnits="objectBoundingBox">
      <feOffset dy="1" in="SourceAlpha" result="shadowOffsetOuter1"/>
      <feGaussianBlur in="shadowOffsetOuter1" result="shadowBlurOuter1" stdDeviation=".5"/>
      <feColorMatrix in="shadowBlurOuter1" result="shadowMatrixOuter1" values="0 0 0 0 0   0 0 0 0 0   0 0 0 0 0  0 0 0 0.15 0"/>
      <feMerge>
        <feMergeNode in="shadowMatrixOuter1"/>
        <feMergeNode in="SourceGraphic"/>
      </feMerge>
    </filter>
    <linearGradient id="iso定制工具-32px-b" x1="50%" x2="50%" y1="0%" y2="100%">
      <stop offset="0%" stop-color="#4EFFD8"/>
      <stop offset="100%" stop-color="#00A29F"/>
    </linearGradient>
    <filter id="iso定制工具-32px-c" width="200%" height="180%" x="-50%" y="-40%" filterUnits="objectBoundingBox">
      <feOffset dy="1" in="SourceAlpha" result="shadowOffsetOuter1"/>
      <feGaussianBlur in="shadowOffsetOuter1" result="shadowBlurOuter1" stdDeviation="1.5"/>
      <feColorMatrix in="shadowBlurOuter1" result="shadowMatrixOuter1" values="0 0 0 0 0   0 0 0 0 0.4549649   0 0 0 0 0.409478353  0 0 0 0.3 0"/>
      <feMerge>
        <feMergeNode in="shadowMatrixOuter1"/>
        <feMergeNode in="SourceGraphic"/>
      </feMerge>
    </filter>
    <linearGradient id="iso定制工具-32px-d" x1="50%" x2="50%" y1="0%" y2="100%">
      <stop offset="0%" stop-color="#FFF"/>
      <stop offset="100%" stop-color="#CBFEF3"/>
    </linearGradient>
    <linearGradient id="iso定制工具-32px-e" x1="50%" x2="50%" y1="0%" y2="100%">
      <stop offset="0%" stop-color="#FFF"/>
      <stop offset="100%" stop-color="#CBFEF3"/>
    </linearGradient>
  </defs>
  <g fill="none" filter="url(#iso定制工具-32px-a)" transform="translate(1 1)">
    <circle cx="15" cy="15" r="15" fill="url(#iso定制工具-32px-b)"/>
    <g filter="url(#iso定制工具-32px-c)" transform="translate(9 5)">
      <path fill="url(#iso定制工具-32px-d)" d="M7,1 C11.9705627,1 16,5.02943726 16,10 C16,14.9705627 11.9705627,19 7,19 C6.66181733,19 6.32799118,18.9813475 5.99949419,18.9450153 L6.00093495,17.9382228 C6.32822924,17.9789967 6.66166183,18 7,18 C11.418278,18 15,14.418278 15,10 C15,5.58172201 11.418278,2 7,2 C6.66166183,2 6.32822924,2.02100331 6.00093495,2.06177722 L5.99949419,1.05498471 C6.32799118,1.01865245 6.66181733,1 7,1 Z M7,3 C10.8659932,3 14,6.13400676 14,10 C14,13.8659932 10.8659932,17 7,17 C6.66067505,17 6.32698923,16.975856 6.00056676,16.9291922 L5.99916774,12.829 C6.31218182,12.939739 6.64905356,13 7,13 C8.65685425,13 10,11.6568542 10,10 C10,8.34314575 8.65685425,7 7,7 C6.64905356,7 6.31218182,7.06026098 5.99916774,7.17100001 L6.00056676,3.07080781 C6.32698923,3.02414401 6.66067505,3 7,3 Z"/>
      <path fill="url(#iso定制工具-32px-e)" d="M-2.44249065e-13,1 C-2.44249065e-13,0.44771525 0.44771525,1.63699145e-14 1,1.63910933e-14 L5,1.70343424e-14 L5,20 L1,20 C0.44771525,20 -2.47801779e-13,19.5522847 -2.46913601e-13,19 L-2.45137244e-13,18 L1.25,18 C1.52614237,18 1.75,17.7761424 1.75,17.5 C1.75,17.2238576 1.52614237,17 1.25,17 L1.25,17 L-2.45137244e-13,17 L-2.45137244e-13,15 L1.25,15 C1.52614237,15 1.75,14.7761424 1.75,14.5 C1.75,14.2238576 1.52614237,14 1.25,14 L1.25,14 L-2.45137244e-13,14 L7.03082037e-12,12 L2.75,12 C3.02614237,12 3.25,11.7761424 3.25,11.5 C3.25,11.2238576 3.02614237,11 2.75,11 L2.75,11 L7.03082037e-12,11 L-2.45137244e-13,9 L1.25,9 C1.52614237,9 1.75,8.77614237 1.75,8.5 C1.75,8.22385763 1.52614237,8 1.25,8 L1.25,8 L-2.45137244e-13,8 L3.39284156e-12,6 L1.25,6 C1.52614237,6 1.75,5.77614237 1.75,5.5 C1.75,5.22385763 1.52614237,5 1.25,5 L1.25,5 L3.39284156e-12,5 L7.03082037e-12,3 L2.75,3 C3.02614237,3 3.25,2.77614237 3.25,2.5 C3.25,2.22385763 3.02614237,2 2.75,2 L2.75,2 L7.03082037e-12,2 L-2.44249065e-13,1 Z"/>
    </g>
  </g>
</svg>
