<svg xmlns="http://www.w3.org/2000/svg" xmlns:xlink="http://www.w3.org/1999/xlink" width="32" height="32" viewBox="0 0 32 32">
  <defs>
    <filter id="kmsclient-a" width="127.6%" height="127.6%" x="-13.8%" y="-13.8%" filterUnits="objectBoundingBox">
      <feOffset dy="1" in="SourceAlpha" result="shadowOffsetOuter1"/>
      <feGaussianBlur in="shadowOffsetOuter1" result="shadowBlurOuter1" stdDeviation=".5"/>
      <feColorMatrix in="shadowBlurOuter1" result="shadowMatrixOuter1" values="0 0 0 0 0   0 0 0 0 0   0 0 0 0 0  0 0 0 0.15 0"/>
      <feMerge>
        <feMergeNode in="shadowMatrixOuter1"/>
        <feMergeNode in="SourceGraphic"/>
      </feMerge>
    </filter>
    <linearGradient id="kmsclient-b" x1="50%" x2="50%" y1="0%" y2="100%">
      <stop offset="0%" stop-color="#F0FBEE"/>
      <stop offset="100%" stop-color="#B1E2F7"/>
    </linearGradient>
    <linearGradient id="kmsclient-e" x1="80.797%" x2="16.842%" y1="17.938%" y2="83.862%">
      <stop offset="0%" stop-color="#8333FF"/>
      <stop offset="100%" stop-color="#2D2DF0"/>
    </linearGradient>
    <circle id="kmsclient-d" cx="6.125" cy="6.813" r="6"/>
    <filter id="kmsclient-c" width="133.3%" height="133.3%" x="-16.7%" y="-8.3%" filterUnits="objectBoundingBox">
      <feOffset dy="1" in="SourceAlpha" result="shadowOffsetOuter1"/>
      <feGaussianBlur in="shadowOffsetOuter1" result="shadowBlurOuter1" stdDeviation=".5"/>
      <feColorMatrix in="shadowBlurOuter1" values="0 0 0 0 0   0 0 0 0 0.0350400191   0 0 0 0 0.298035553  0 0 0 0.15 0"/>
    </filter>
    <linearGradient id="kmsclient-h" x1="77.514%" x2="18.075%" y1="10.345%" y2="87.056%">
      <stop offset="0%" stop-color="#0AB4FF"/>
      <stop offset="100%" stop-color="#0A51D0"/>
    </linearGradient>
    <circle id="kmsclient-g" cx="12.125" cy="6.813" r="6"/>
    <filter id="kmsclient-f" width="133.3%" height="133.3%" x="-16.7%" y="-8.3%" filterUnits="objectBoundingBox">
      <feOffset dy="1" in="SourceAlpha" result="shadowOffsetOuter1"/>
      <feGaussianBlur in="shadowOffsetOuter1" result="shadowBlurOuter1" stdDeviation=".5"/>
      <feColorMatrix in="shadowBlurOuter1" values="0 0 0 0 0   0 0 0 0 0.0350400191   0 0 0 0 0.298035553  0 0 0 0.15 0"/>
    </filter>
    <linearGradient id="kmsclient-k" x1="92.831%" x2="11.074%" y1="28.169%" y2="75.209%">
      <stop offset="0%" stop-color="#37FBB3"/>
      <stop offset="100%" stop-color="#2184DC"/>
    </linearGradient>
    <circle id="kmsclient-j" cx="18.125" cy="6.813" r="6"/>
    <filter id="kmsclient-i" width="133.3%" height="133.3%" x="-16.7%" y="-8.3%" filterUnits="objectBoundingBox">
      <feOffset dy="1" in="SourceAlpha" result="shadowOffsetOuter1"/>
      <feGaussianBlur in="shadowOffsetOuter1" result="shadowBlurOuter1" stdDeviation=".5"/>
      <feColorMatrix in="shadowBlurOuter1" values="0 0 0 0 0.0715196752   0 0 0 0 0.236045063   0 0 0 0 0.181359068  0 0 0 0.15 0"/>
    </filter>
    <linearGradient id="kmsclient-n" x1="56.876%" x2="56.876%" y1="0%" y2="91.235%">
      <stop offset="0%" stop-color="#FFF"/>
      <stop offset="100%" stop-color="#FFF" stop-opacity=".769"/>
    </linearGradient>
    <path id="kmsclient-m" d="M6.5,16.5 L6.5,15.5427522 L7.6527629,14.37223 L8.93030286,16.8640566 C8.97308953,16.9475114 9.05898493,17 9.15276882,17 L10.6779471,17 C10.7815005,17 10.8654471,16.9160534 10.8654471,16.8125 C10.8654471,16.7800486 10.8570246,16.7481527 10.8410034,16.7199318 L8.84025949,13.1956747 L10.6862363,11.3189842 C10.758853,11.2451593 10.7578735,11.1264449 10.6840486,11.0538282 C10.6489787,11.0193321 10.6017567,11 10.5525645,11 L9.10065508,11 C9.03607077,11 8.97399234,11.024994 8.92742591,11.0697456 L6.5,13.4025649 L6.5,11.5 C6.5,11.2238576 6.27614237,11 6,11 L5.5,11 C5.22385763,11 5,11.2238576 5,11.5 L5,16.5 C5,16.7761424 5.22385763,17 5.5,17 L6,17 C6.27614237,17 6.5,16.7761424 6.5,16.5 Z M13.5,16.625 L13.5,12.75 L14.6109172,16.7259142 C14.6561919,16.8879498 14.8038419,17 14.9720838,17 L15.7029945,17 C15.8770138,17 16.0281687,16.8802831 16.0680259,16.7108898 L17,12.75 L17,16.625 C17,16.8321068 17.1678932,17 17.375,17 L18.125,17 C18.3321068,17 18.5,16.8321068 18.5,16.625 L18.5,11.5 C18.5,11.2238576 18.2761424,11 18,11 L16.5600125,11 C16.3257608,11 16.1229112,11.1626333 16.0719756,11.3912802 L15.3359375,14.6953125 L14.5526241,11.3848696 C14.4992516,11.1593068 14.2978509,11 14.0660596,11 L12.5,11 C12.2238576,11 12,11.2238576 12,11.5 L12,16.625 C12,16.8321068 12.1678932,17 12.375,17 L13.125,17 C13.3321068,17 13.5,16.8321068 13.5,16.625 Z M22.1875,17.0625 C22.7421875,17.0625 23.1705729,16.8925781 23.5351563,16.7324219 C23.8997396,16.5722656 24.1835938,16.3372396 24.3867188,16.0273437 C24.5898438,15.7174479 24.6914063,15.3789062 24.6914063,15.0117187 C24.6914063,14.6992187 24.6152344,14.4166667 24.4628906,14.1640625 C24.3105469,13.9114583 24.0670573,13.6998698 23.7324219,13.5292969 C23.4721499,13.3966291 23.0791538,13.2651427 22.5534336,13.134838 L22.0703125,13.0234375 C21.7578125,12.9583333 21.5598958,12.8880208 21.4765625,12.8125 C21.390625,12.7395833 21.3476563,12.6575521 21.3476563,12.5664062 C21.3476563,12.4414062 21.3997396,12.3352865 21.5039063,12.2480469 C21.6080729,12.1608073 21.7630208,12.1171875 21.96875,12.1171875 C22.21875,12.1171875 22.4147135,12.1757812 22.5566406,12.2929687 L22.6750912,12.3824277 C22.712463,12.4124053 22.7471352,12.4467385 22.7773437,12.4980199 L22.8092895,12.5551364 L22.8092895,12.5551364 C22.8526533,12.6366458 22.9374737,12.6875 23.0298001,12.6875 L24.1244141,12.6875 C24.2427026,12.6873947 24.341794,12.6051866 24.3676918,12.4947949 L24.3741539,12.4292194 L24.3741539,12.4292194 C24.363475,12.2662884 24.3351475,12.1399165 24.2887597,12.0418323 C24.174229,11.7996638 24.0177933,11.6002783 23.8183594,11.4589844 C23.4342448,11.186849 22.9192708,11 22.1875,11 C21.5911458,11 21.078776,11.125651 20.7363281,11.2753906 C20.3938802,11.4251302 20.1373698,11.6308594 19.9667969,11.8925781 C19.796224,12.1542969 19.7109375,12.4322917 19.7109375,12.7265625 C19.7109375,13.1744792 19.8776042,13.5429687 20.2109375,13.8320312 C20.504919,14.0889757 20.9748264,14.3006526 21.6206597,14.4670621 L21.8710938,14.5273437 C22.3450521,14.6315104 22.6471354,14.7421875 22.7773438,14.859375 C22.9075521,14.9765625 22.9726563,15.109375 22.9726563,15.2578125 C22.9726563,15.4140625 22.9042969,15.5514323 22.7675781,15.6699219 C22.6308594,15.7884115 22.4088542,15.8125 22.15625,15.8125 C21.8177083,15.8125 21.5846354,15.7317708 21.4023438,15.5 C21.35993,15.4457498 21.3240542,15.3911261 21.2938675,15.3293364 C21.2731519,15.2869333 21.2514719,15.2196962 21.2288275,15.127625 C21.2012,15.0159972 21.1010576,14.9375 20.986062,14.9375 L19.7914673,14.9375 C19.6534572,14.9376106 19.5415779,15.0494899 19.5415779,15.1875 L19.5454692,15.2314276 L19.5454692,15.2314276 L19.5888749,15.4399759 C19.5961725,15.4693341 19.6035017,15.4959923 19.6108626,15.5199505 C19.7159443,15.86197 19.8892137,16.1665575 20.1328125,16.4101562 C20.5078125,16.7851562 21.2135417,17.0625 22.1875,17.0625 Z"/>
    <filter id="kmsclient-l" width="120.3%" height="166%" x="-10.2%" y="-16.5%" filterUnits="objectBoundingBox">
      <feOffset dy="1" in="SourceAlpha" result="shadowOffsetOuter1"/>
      <feGaussianBlur in="shadowOffsetOuter1" result="shadowBlurOuter1" stdDeviation=".5"/>
      <feColorMatrix in="shadowBlurOuter1" values="0 0 0 0 0   0 0 0 0 0   0 0 0 0 0  0 0 0 0.1 0"/>
    </filter>
    <linearGradient id="kmsclient-q" x1="50%" x2="50%" y1="0%" y2="100%">
      <stop offset="0%" stop-color="#FFF"/>
      <stop offset="100%" stop-color="#D1EAE4"/>
      <stop offset="100%" stop-color="#EDF2DE"/>
    </linearGradient>
    <circle id="kmsclient-p" cx="6" cy="6" r="6"/>
    <filter id="kmsclient-o" width="133.3%" height="133.3%" x="-25%" y="-25%" filterUnits="objectBoundingBox">
      <feOffset dx="-1" dy="-1" in="SourceAlpha" result="shadowOffsetOuter1"/>
      <feGaussianBlur in="shadowOffsetOuter1" result="shadowBlurOuter1" stdDeviation=".5"/>
      <feColorMatrix in="shadowBlurOuter1" values="0 0 0 0 0   0 0 0 0 0   0 0 0 0 0  0 0 0 0.1 0"/>
    </filter>
    <linearGradient id="kmsclient-r" x1="50%" x2="50%" y1="6.026%" y2="100%">
      <stop offset="0%" stop-color="#577FB3"/>
      <stop offset="100%" stop-color="#192469"/>
    </linearGradient>
  </defs>
  <g fill="none" fill-rule="evenodd" filter="url(#kmsclient-a)" transform="translate(2 1)">
    <path fill="url(#kmsclient-b)" d="M7.125,1 L20.875,1 C24.2577441,1 27,3.74225591 27,7.125 L27,20.875 C27,24.2577441 24.2577441,27 20.875,27 L7.125,27 C3.74225591,27 1,24.2577441 1,20.875 L1,7.125 C1,3.74225591 3.74225591,1 7.125,1 Z"/>
    <path fill="#000" fill-opacity=".04" fill-rule="nonzero" d="M20.875,0 L7.125,0 C3.18997116,0 0,3.18997116 0,7.125 L0,20.875 C0,24.8100288 3.18997116,28 7.125,28 L20.875,28 C24.8100288,28 28,24.8100288 28,20.875 L28,7.125 C28,3.18997116 24.8100288,0 20.875,0 Z M20.875,1 C24.2577441,1 27,3.74225591 27,7.125 L27,20.875 C27,24.2577441 24.2577441,27 20.875,27 L7.125,27 C3.74225591,27 1,24.2577441 1,20.875 L1,7.125 C1,3.74225591 3.74225591,1 7.125,1 L20.875,1 Z"/>
    <g transform="translate(1.875 7.188)">
      <g fill-rule="nonzero" opacity=".704">
        <use fill="#000" filter="url(#kmsclient-c)" xlink:href="#kmsclient-d"/>
        <use fill="url(#kmsclient-e)" xlink:href="#kmsclient-d"/>
      </g>
      <g fill-rule="nonzero" opacity=".86">
        <use fill="#000" filter="url(#kmsclient-f)" xlink:href="#kmsclient-g"/>
        <use fill="url(#kmsclient-h)" xlink:href="#kmsclient-g"/>
      </g>
      <g opacity=".855">
        <use fill="#000" filter="url(#kmsclient-i)" xlink:href="#kmsclient-j"/>
        <use fill="url(#kmsclient-k)" xlink:href="#kmsclient-j"/>
      </g>
    </g>
    <g fill-rule="nonzero">
      <use fill="#000" filter="url(#kmsclient-l)" xlink:href="#kmsclient-m"/>
      <use fill="url(#kmsclient-n)" xlink:href="#kmsclient-m"/>
    </g>
    <g fill-rule="nonzero" transform="translate(17 17)">
      <use fill="#000" filter="url(#kmsclient-o)" xlink:href="#kmsclient-p"/>
      <use fill="url(#kmsclient-q)" xlink:href="#kmsclient-p"/>
      <path fill="url(#kmsclient-r)" d="M4.35694228,4.01033061 C4.18387953,4.30861668 3.86105105,4.50921631 3.49137002,4.50921631 C2.93908527,4.50921631 2.49137002,4.06150106 2.49137002,3.50921631 C2.49137002,2.95693156 2.93908527,2.50921631 3.49137002,2.50921631 C3.86145774,2.50921631 4.18458976,2.71025754 4.3575129,3.0090868 L7.97996737,3.00921631 C8.7811777,3.00921631 9.430687,3.65872561 9.430687,4.45993594 L9.42791444,4.54958369 C9.3794924,5.33167298 8.76637404,5.95133272 8.00029848,6.02152768 L7.85496737,6.0281557 L3.98190032,6.0281557 C3.71098792,6.0281557 3.49137002,6.2477736 3.49137002,6.51868601 C3.49137002,6.75949703 3.66489527,6.95977907 3.89372688,7.00131321 L3.98190032,7.00921631 L7.99137002,7.00921631 L7.99137002,6.25921631 C7.99137002,6.23217003 8.00014225,6.20585333 8.01637002,6.18421631 C8.05779138,6.12898783 8.13614154,6.11779495 8.19137002,6.15921631 L8.19137002,6.15921631 L9.85803669,7.40921631 C9.86751239,7.41632309 9.87592991,7.4247406 9.88303669,7.43421631 C9.92445804,7.48944478 9.91326516,7.56779495 9.85803669,7.60921631 L9.85803669,7.60921631 L8.19137002,8.85921631 C8.169733,8.87544407 8.1434163,8.88421631 8.11637002,8.88421631 C8.04733443,8.88421631 7.99137002,8.8282519 7.99137002,8.75921631 L7.99137002,8.75921631 L7.99137002,8.00921631 L3.98190032,8.00921631 C3.15870317,8.00921631 2.49137002,7.34188316 2.49137002,6.51868601 C2.49137002,5.74391221 3.0825025,5.10720481 3.83835231,5.03497893 L3.98190032,5.0281557 L7.85496737,5.0281557 C8.12543183,5.0281557 8.35442315,4.84115214 8.41517674,4.5863039 L8.4304716,4.47386879 L8.430687,4.45993594 C8.430687,4.23866876 8.27124478,4.0546413 8.06098479,4.01647801 L7.97996737,4.00921631 Z"/>
    </g>
  </g>
</svg>
