<svg xmlns="http://www.w3.org/2000/svg" xmlns:xlink="http://www.w3.org/1999/xlink" width="32" height="32" viewBox="0 0 32 32">
  <defs>
    <filter id="kmstools-a" width="127.6%" height="127.6%" x="-13.8%" y="-13.8%" filterUnits="objectBoundingBox">
      <feOffset dy="1" in="SourceAlpha" result="shadowOffsetOuter1"/>
      <feGaussianBlur in="shadowOffsetOuter1" result="shadowBlurOuter1" stdDeviation=".5"/>
      <feColorMatrix in="shadowBlurOuter1" result="shadowMatrixOuter1" values="0 0 0 0 0   0 0 0 0 0   0 0 0 0 0  0 0 0 0.15 0"/>
      <feMerge>
        <feMergeNode in="shadowMatrixOuter1"/>
        <feMergeNode in="SourceGraphic"/>
      </feMerge>
    </filter>
    <linearGradient id="kmstools-b" x1="50%" x2="50%" y1="0%" y2="100%">
      <stop offset="0%" stop-color="#F0FBEE"/>
      <stop offset="100%" stop-color="#B1E2F7"/>
    </linearGradient>
    <linearGradient id="kmstools-e" x1="80.797%" x2="16.842%" y1="17.938%" y2="83.862%">
      <stop offset="0%" stop-color="#8333FF"/>
      <stop offset="100%" stop-color="#2D2DF0"/>
    </linearGradient>
    <circle id="kmstools-d" cx="6.125" cy="6.813" r="6"/>
    <filter id="kmstools-c" width="133.3%" height="133.3%" x="-16.7%" y="-8.3%" filterUnits="objectBoundingBox">
      <feOffset dy="1" in="SourceAlpha" result="shadowOffsetOuter1"/>
      <feGaussianBlur in="shadowOffsetOuter1" result="shadowBlurOuter1" stdDeviation=".5"/>
      <feColorMatrix in="shadowBlurOuter1" values="0 0 0 0 0   0 0 0 0 0.0350400191   0 0 0 0 0.298035553  0 0 0 0.15 0"/>
    </filter>
    <linearGradient id="kmstools-h" x1="77.514%" x2="18.075%" y1="10.345%" y2="87.056%">
      <stop offset="0%" stop-color="#0AB4FF"/>
      <stop offset="100%" stop-color="#0A51D0"/>
    </linearGradient>
    <circle id="kmstools-g" cx="12.125" cy="6.813" r="6"/>
    <filter id="kmstools-f" width="133.3%" height="133.3%" x="-16.7%" y="-8.3%" filterUnits="objectBoundingBox">
      <feOffset dy="1" in="SourceAlpha" result="shadowOffsetOuter1"/>
      <feGaussianBlur in="shadowOffsetOuter1" result="shadowBlurOuter1" stdDeviation=".5"/>
      <feColorMatrix in="shadowBlurOuter1" values="0 0 0 0 0   0 0 0 0 0.0350400191   0 0 0 0 0.298035553  0 0 0 0.15 0"/>
    </filter>
    <linearGradient id="kmstools-k" x1="92.831%" x2="11.074%" y1="28.169%" y2="75.209%">
      <stop offset="0%" stop-color="#37FBB3"/>
      <stop offset="100%" stop-color="#2184DC"/>
    </linearGradient>
    <circle id="kmstools-j" cx="18.125" cy="6.813" r="6"/>
    <filter id="kmstools-i" width="133.3%" height="133.3%" x="-16.7%" y="-8.3%" filterUnits="objectBoundingBox">
      <feOffset dy="1" in="SourceAlpha" result="shadowOffsetOuter1"/>
      <feGaussianBlur in="shadowOffsetOuter1" result="shadowBlurOuter1" stdDeviation=".5"/>
      <feColorMatrix in="shadowBlurOuter1" values="0 0 0 0 0.0715196752   0 0 0 0 0.236045063   0 0 0 0 0.181359068  0 0 0 0.15 0"/>
    </filter>
    <linearGradient id="kmstools-n" x1="56.876%" x2="56.876%" y1="0%" y2="91.235%">
      <stop offset="0%" stop-color="#FFF"/>
      <stop offset="100%" stop-color="#FFF" stop-opacity=".769"/>
    </linearGradient>
    <path id="kmstools-m" d="M6.5,16.5 L6.5,15.5427522 L7.6527629,14.37223 L8.93030286,16.8640566 C8.97308953,16.9475114 9.05898493,17 9.15276882,17 L10.6779471,17 C10.7815005,17 10.8654471,16.9160534 10.8654471,16.8125 C10.8654471,16.7800486 10.8570246,16.7481527 10.8410034,16.7199318 L8.84025949,13.1956747 L10.6862363,11.3189842 C10.758853,11.2451593 10.7578735,11.1264449 10.6840486,11.0538282 C10.6489787,11.0193321 10.6017567,11 10.5525645,11 L9.10065508,11 C9.03607077,11 8.97399234,11.024994 8.92742591,11.0697456 L6.5,13.4025649 L6.5,11.5 C6.5,11.2238576 6.27614237,11 6,11 L5.5,11 C5.22385763,11 5,11.2238576 5,11.5 L5,16.5 C5,16.7761424 5.22385763,17 5.5,17 L6,17 C6.27614237,17 6.5,16.7761424 6.5,16.5 Z M13.5,16.625 L13.5,12.75 L14.6109172,16.7259142 C14.6561919,16.8879498 14.8038419,17 14.9720838,17 L15.7029945,17 C15.8770138,17 16.0281687,16.8802831 16.0680259,16.7108898 L17,12.75 L17,16.625 C17,16.8321068 17.1678932,17 17.375,17 L18.125,17 C18.3321068,17 18.5,16.8321068 18.5,16.625 L18.5,11.5 C18.5,11.2238576 18.2761424,11 18,11 L16.5600125,11 C16.3257608,11 16.1229112,11.1626333 16.0719756,11.3912802 L15.3359375,14.6953125 L14.5526241,11.3848696 C14.4992516,11.1593068 14.2978509,11 14.0660596,11 L12.5,11 C12.2238576,11 12,11.2238576 12,11.5 L12,16.625 C12,16.8321068 12.1678932,17 12.375,17 L13.125,17 C13.3321068,17 13.5,16.8321068 13.5,16.625 Z M22.1875,17.0625 C22.7421875,17.0625 23.1705729,16.8925781 23.5351563,16.7324219 C23.8997396,16.5722656 24.1835938,16.3372396 24.3867188,16.0273437 C24.5898438,15.7174479 24.6914063,15.3789062 24.6914063,15.0117187 C24.6914063,14.6992187 24.6152344,14.4166667 24.4628906,14.1640625 C24.3105469,13.9114583 24.0670573,13.6998698 23.7324219,13.5292969 C23.4721499,13.3966291 23.0791538,13.2651427 22.5534336,13.134838 L22.0703125,13.0234375 C21.7578125,12.9583333 21.5598958,12.8880208 21.4765625,12.8125 C21.390625,12.7395833 21.3476563,12.6575521 21.3476563,12.5664062 C21.3476563,12.4414062 21.3997396,12.3352865 21.5039063,12.2480469 C21.6080729,12.1608073 21.7630208,12.1171875 21.96875,12.1171875 C22.21875,12.1171875 22.4147135,12.1757812 22.5566406,12.2929687 L22.6750912,12.3824277 C22.712463,12.4124053 22.7471352,12.4467385 22.7773437,12.4980199 L22.8092895,12.5551364 L22.8092895,12.5551364 C22.8526533,12.6366458 22.9374737,12.6875 23.0298001,12.6875 L24.1244141,12.6875 C24.2427026,12.6873947 24.341794,12.6051866 24.3676918,12.4947949 L24.3741539,12.4292194 L24.3741539,12.4292194 C24.363475,12.2662884 24.3351475,12.1399165 24.2887597,12.0418323 C24.174229,11.7996638 24.0177933,11.6002783 23.8183594,11.4589844 C23.4342448,11.186849 22.9192708,11 22.1875,11 C21.5911458,11 21.078776,11.125651 20.7363281,11.2753906 C20.3938802,11.4251302 20.1373698,11.6308594 19.9667969,11.8925781 C19.796224,12.1542969 19.7109375,12.4322917 19.7109375,12.7265625 C19.7109375,13.1744792 19.8776042,13.5429687 20.2109375,13.8320312 C20.504919,14.0889757 20.9748264,14.3006526 21.6206597,14.4670621 L21.8710938,14.5273437 C22.3450521,14.6315104 22.6471354,14.7421875 22.7773438,14.859375 C22.9075521,14.9765625 22.9726563,15.109375 22.9726563,15.2578125 C22.9726563,15.4140625 22.9042969,15.5514323 22.7675781,15.6699219 C22.6308594,15.7884115 22.4088542,15.8125 22.15625,15.8125 C21.8177083,15.8125 21.5846354,15.7317708 21.4023438,15.5 C21.35993,15.4457498 21.3240542,15.3911261 21.2938675,15.3293364 C21.2731519,15.2869333 21.2514719,15.2196962 21.2288275,15.127625 C21.2012,15.0159972 21.1010576,14.9375 20.986062,14.9375 L19.7914673,14.9375 C19.6534572,14.9376106 19.5415779,15.0494899 19.5415779,15.1875 L19.5454692,15.2314276 L19.5454692,15.2314276 L19.5888749,15.4399759 C19.5961725,15.4693341 19.6035017,15.4959923 19.6108626,15.5199505 C19.7159443,15.86197 19.8892137,16.1665575 20.1328125,16.4101562 C20.5078125,16.7851562 21.2135417,17.0625 22.1875,17.0625 Z"/>
    <filter id="kmstools-l" width="120.3%" height="166%" x="-10.2%" y="-16.5%" filterUnits="objectBoundingBox">
      <feOffset dy="1" in="SourceAlpha" result="shadowOffsetOuter1"/>
      <feGaussianBlur in="shadowOffsetOuter1" result="shadowBlurOuter1" stdDeviation=".5"/>
      <feColorMatrix in="shadowBlurOuter1" values="0 0 0 0 0   0 0 0 0 0   0 0 0 0 0  0 0 0 0.1 0"/>
    </filter>
    <linearGradient id="kmstools-q" x1="50%" x2="50%" y1="0%" y2="100%">
      <stop offset="0%" stop-color="#FFF"/>
      <stop offset="100%" stop-color="#D1EAE4"/>
      <stop offset="100%" stop-color="#EDF2DE"/>
    </linearGradient>
    <circle id="kmstools-p" cx="6" cy="6" r="6"/>
    <filter id="kmstools-o" width="133.3%" height="133.3%" x="-25%" y="-25%" filterUnits="objectBoundingBox">
      <feOffset dx="-1" dy="-1" in="SourceAlpha" result="shadowOffsetOuter1"/>
      <feGaussianBlur in="shadowOffsetOuter1" result="shadowBlurOuter1" stdDeviation=".5"/>
      <feColorMatrix in="shadowBlurOuter1" values="0 0 0 0 0   0 0 0 0 0   0 0 0 0 0  0 0 0 0.1 0"/>
    </filter>
    <linearGradient id="kmstools-r" x1="50%" x2="50%" y1="6.026%" y2="100%">
      <stop offset="0%" stop-color="#577FB3"/>
      <stop offset="100%" stop-color="#192469"/>
    </linearGradient>
  </defs>
  <g fill="none" fill-rule="evenodd" filter="url(#kmstools-a)" transform="translate(2 1)">
    <path fill="url(#kmstools-b)" d="M7.125,1 L20.875,1 C24.2577441,1 27,3.74225591 27,7.125 L27,20.875 C27,24.2577441 24.2577441,27 20.875,27 L7.125,27 C3.74225591,27 1,24.2577441 1,20.875 L1,7.125 C1,3.74225591 3.74225591,1 7.125,1 Z"/>
    <path fill="#000" fill-opacity=".04" fill-rule="nonzero" d="M20.875,0 L7.125,0 C3.18997116,0 0,3.18997116 0,7.125 L0,20.875 C0,24.8100288 3.18997116,28 7.125,28 L20.875,28 C24.8100288,28 28,24.8100288 28,20.875 L28,7.125 C28,3.18997116 24.8100288,0 20.875,0 Z M20.875,1 C24.2577441,1 27,3.74225591 27,7.125 L27,20.875 C27,24.2577441 24.2577441,27 20.875,27 L7.125,27 C3.74225591,27 1,24.2577441 1,20.875 L1,7.125 C1,3.74225591 3.74225591,1 7.125,1 L20.875,1 Z"/>
    <g transform="translate(1.875 7.188)">
      <g fill-rule="nonzero" opacity=".704">
        <use fill="#000" filter="url(#kmstools-c)" xlink:href="#kmstools-d"/>
        <use fill="url(#kmstools-e)" xlink:href="#kmstools-d"/>
      </g>
      <g fill-rule="nonzero" opacity=".86">
        <use fill="#000" filter="url(#kmstools-f)" xlink:href="#kmstools-g"/>
        <use fill="url(#kmstools-h)" xlink:href="#kmstools-g"/>
      </g>
      <g opacity=".855">
        <use fill="#000" filter="url(#kmstools-i)" xlink:href="#kmstools-j"/>
        <use fill="url(#kmstools-k)" xlink:href="#kmstools-j"/>
      </g>
    </g>
    <g fill-rule="nonzero">
      <use fill="#000" filter="url(#kmstools-l)" xlink:href="#kmstools-m"/>
      <use fill="url(#kmstools-n)" xlink:href="#kmstools-m"/>
    </g>
    <g fill-rule="nonzero" transform="translate(17 17)">
      <use fill="#000" filter="url(#kmstools-o)" xlink:href="#kmstools-p"/>
      <use fill="url(#kmstools-q)" xlink:href="#kmstools-p"/>
      <path fill="url(#kmstools-r)" d="M9.34784031,5 C9.34784031,4.63767695 9.61354076,4.2995316 10,4.15458992 C9.95169649,3.84058595 9.85507908,3.5265716 9.75846168,3.23671939 C9.34782992,3.28503328 8.96136031,3.14010199 8.76812549,2.82608764 C8.57488031,2.51208367 8.64734596,2.10145191 8.91304641,1.7632858 C8.7198116,1.52174748 8.50242504,1.30435053 8.26087633,1.08696397 C7.89854809,1.35266443 7.48792672,1.42513008 7.17392275,1.23188488 C6.8599084,1.03865008 6.71497709,0.652180453 6.76329099,0.241548707 C6.47343877,0.144931293 6.15942443,0.0483138933 5.84542045,0 C5.70047877,0.386469613 5.36232305,0.65217008 5,0.65217008 C4.63768732,0.65217008 4.2995316,0.386469613 4.15458992,0 C3.84058595,0.0483035067 3.5265716,0.14492092 3.23671939,0.24153832 C3.25298319,0.37976836 3.24734877,0.5152604 3.22073785,0.64156496 C3.16829729,0.89046584 3.03439604,1.10368789 2.82608764,1.23187451 C2.51208367,1.42511969 2.10145191,1.35265404 1.7632858,1.08695359 C1.52174748,1.2801884 1.30435053,1.49757496 1.08696397,1.73912367 C1.14210504,1.81632069 1.18843424,1.89729407 1.22508976,1.98003221 C1.34900591,2.25973343 1.36236943,2.55960279 1.23188488,2.80192549 C1.03865008,3.11593985 0.652180453,3.26086076 0.241548707,3.21255725 C0.144931293,3.50240947 0.0483035067,3.81642381 0,4.13042779 C0.38645924,4.2995316 0.65217008,4.63768732 0.65217008,5 C0.65217008,5.05697067 0.645602027,5.11333885 0.633029227,5.16845275 C0.565635107,5.46388001 0.32570688,5.72326725 0,5.84542045 C0.0483035067,6.15942443 0.14492092,6.47343877 0.24153832,6.76329099 C0.65217008,6.71497709 1.06280183,6.83575664 1.23187451,7.17392275 C1.42511969,7.48792672 1.35265404,7.89855847 1.08695359,8.23672457 C1.2801884,8.47826291 1.49757496,8.69565984 1.73912367,8.91304641 C2.07728977,8.64734596 2.48792153,8.59904244 2.80192549,8.76812549 C3.11593985,8.96136031 3.26086076,9.34782992 3.21255725,9.75846168 C3.50240947,9.85507908 3.81642381,9.95169649 4.13042779,10 C4.29951084,9.61353039 4.61352519,9.34782992 4.97584305,9.34782992 C5.33816092,9.34782992 5.67631664,9.61353039 5.82124795,10 C6.13526229,9.95169649 6.42511451,9.85507908 6.73912885,9.75846168 C6.69081496,9.34782992 6.83574627,8.96136031 7.14975023,8.76812549 C7.46376459,8.57488031 7.87438596,8.64734596 8.21255207,8.91304641 C8.45410076,8.7198116 8.67148733,8.53051536 8.88888428,8.28896667 C8.62318381,7.95080056 8.57486992,7.51207847 8.74395297,7.19807451 C8.93718779,6.88406015 9.32366779,6.73913924 9.73428916,6.78744275 C9.83091695,6.49759053 9.92753435,6.18357619 9.97583787,5.86957221 C9.61354076,5.6763374 9.34784031,5.36232305 9.34784031,5 Z M1.44736842,4.90370953 C1.44736842,3.24132183 2.43421272,1.95274119 4,1.67568319 C4,2.98173201 4,3.96126861 4,4.61429302 C4,4.62485269 4,4.64069221 4,4.66181156 L1.63158334,6.05263158 C1.62662441,6.03771499 1.62176561,6.02278236 1.61700693,6.00783295 C1.61558567,6.00336803 1.61417333,5.99890161 1.61276993,5.99443367 C1.61114292,5.98925384 1.60457783,5.96801904 1.60292407,5.96258109 C1.49921347,5.62155639 1.44736842,5.27146246 1.44736842,4.90370953 Z M5.19736842,8.55263158 C4.18937501,8.55263158 3.30778726,8.15442314 2.66634646,7.39218117 L5.19672043,5.88836726 L7.72774239,7.33466866 C7.08631471,8.09689699 6.20536183,8.55263158 5.19736842,8.55263158 Z M5.99414571,4.60831484 C5.99414571,4.58862 5.99414571,4.57446575 5.99414571,4.56585208 C5.99414571,4.54386058 5.99414571,4.52544327 5.99414571,4.51060017 C5.99414571,3.86911274 5.99414571,2.99152474 5.99414571,1.70017129 C7.6941228,1.97784184 8.55263158,3.24499718 8.55263158,4.91106026 C8.55263158,5.27473425 8.47362002,5.57711579 8.36400472,5.91305999 C8.35817798,5.9309175 8.3521964,5.94876834 8.34605998,5.96661599 C8.34031799,5.98331641 8.33444043,6.00001402 8.32842729,6.01671166 L5.99414571,4.60831484 Z" transform="translate(1 1)"/>
    </g>
  </g>
</svg>
