<svg xmlns="http://www.w3.org/2000/svg" xmlns:xlink="http://www.w3.org/1999/xlink" width="32" height="32" viewBox="0 0 32 32">
  <defs>
    <filter id="uos-windesk-a" width="128.6%" height="128.6%" x="-14.3%" y="-14.3%" filterUnits="objectBoundingBox">
      <feOffset dy="1" in="SourceAlpha" result="shadowOffsetOuter1"/>
      <feGaussianBlur in="shadowOffsetOuter1" result="shadowBlurOuter1" stdDeviation=".5"/>
      <feColorMatrix in="shadowBlurOuter1" result="shadowMatrixOuter1" values="0 0 0 0 0   0 0 0 0 0   0 0 0 0 0  0 0 0 0.15 0"/>
      <feMerge>
        <feMergeNode in="shadowMatrixOuter1"/>
        <feMergeNode in="SourceGraphic"/>
      </feMerge>
    </filter>
    <linearGradient id="uos-windesk-b" x1="50%" x2="50%" y1="0%" y2="98.139%">
      <stop offset="0%" stop-color="#FFF"/>
      <stop offset="100%" stop-color="#EDEDED"/>
    </linearGradient>
    <path id="uos-windesk-c" d="M6.66666667,1 L21.3333333,1 C24.4629469,1 27,3.53705308 27,6.66666667 L27,21.3333333 C27,24.4629469 24.4629469,27 21.3333333,27 L6.66666667,27 C3.53705308,27 1,24.4629469 1,21.3333333 L1,6.66666667 C1,3.53705308 3.53705308,1 6.66666667,1 Z"/>
    <filter id="uos-windesk-d" width="103.8%" height="103.8%" x="-1.9%" y="-1.9%" filterUnits="objectBoundingBox">
      <feOffset dy="-1" in="SourceAlpha" result="shadowOffsetInner1"/>
      <feComposite in="shadowOffsetInner1" in2="SourceAlpha" k2="-1" k3="1" operator="arithmetic" result="shadowInnerInner1"/>
      <feColorMatrix in="shadowInnerInner1" values="0 0 0 0 0   0 0 0 0 0   0 0 0 0 0  0 0 0 0.101016171 0"/>
    </filter>
    <linearGradient id="uos-windesk-g" x1="89.338%" x2="0%" y1="8.678%" y2="91.322%">
      <stop offset="0%" stop-color="#00EADB"/>
      <stop offset="100%" stop-color="#0065FF"/>
    </linearGradient>
    <path id="uos-windesk-f" d="M8.20833333,6.33333333 L15.4583333,6.33333333 C16.4938672,6.33333333 17.3333333,7.17279943 17.3333333,8.20833333 L17.3333333,14.4583333 C17.3333333,15.4938672 16.4938672,16.3333333 15.4583333,16.3333333 L8.20833333,16.3333333 C7.17279943,16.3333333 6.33333333,15.4938672 6.33333333,14.4583333 L6.33333333,8.20833333 C6.33333333,7.17279943 7.17279943,6.33333333 8.20833333,6.33333333 Z"/>
    <filter id="uos-windesk-e" width="136.4%" height="140%" x="-18.2%" y="-10%" filterUnits="objectBoundingBox">
      <feOffset dy="1" in="SourceAlpha" result="shadowOffsetOuter1"/>
      <feGaussianBlur in="shadowOffsetOuter1" result="shadowBlurOuter1" stdDeviation=".5"/>
      <feColorMatrix in="shadowBlurOuter1" values="0 0 0 0 0.322289899   0 0 0 0 0.533281681   0 0 0 0 0.621721351  0 0 0 0.205947129 0"/>
    </filter>
    <linearGradient id="uos-windesk-j" x1="14.084%" x2="88.067%" y1="13.669%" y2="100%">
      <stop offset="0%" stop-color="#00EADB"/>
      <stop offset="100%" stop-color="#0065FF"/>
    </linearGradient>
    <path id="uos-windesk-i" d="M10.4583333,0.333333333 C11.9894442,0.333333333 13.2410083,1.53021497 13.3284528,3.03940524 L13.3333333,3.20833333 L13.333,5.333 L8.20833333,5.33333333 C6.67722249,5.33333333 5.42565832,6.53021497 5.33821383,8.03940524 L5.33333333,8.20833333 L5.333,13.333 L3.20833333,13.3333333 C1.67722249,13.3333333 0.425658324,12.1364517 0.338213831,10.6272614 L0.333333333,10.4583333 L0.333333333,3.20833333 C0.333333333,1.67722249 1.53021497,0.425658324 3.03940524,0.338213831 L3.20833333,0.333333333 L10.4583333,0.333333333 Z M6.333,13.333 L6.33333333,8.20833333 C6.33333333,7.22211057 7.09475383,6.41372708 8.06180319,6.33897451 L8.20833333,6.33333333 L13.3332739,6.33333333 L13.3333333,11.4583333 C13.3333333,12.4445561 12.5719128,13.2529396 11.6048635,13.3276922 L11.4583333,13.3333333 L6.333,13.333 Z"/>
    <filter id="uos-windesk-h" width="127.5%" height="127.5%" x="-12.5%" y="-5%" filterUnits="objectBoundingBox">
      <feOffset dy="1" in="SourceAlpha" result="shadowOffsetOuter1"/>
      <feGaussianBlur in="shadowOffsetOuter1" result="shadowBlurOuter1" stdDeviation=".5"/>
      <feColorMatrix in="shadowBlurOuter1" values="0 0 0 0 0.322289899   0 0 0 0 0.533281681   0 0 0 0 0.621721351  0 0 0 0.205947129 0"/>
    </filter>
    <linearGradient id="uos-windesk-k" x1="7.914%" x2="92.611%" y1="6.788%" y2="88.937%">
      <stop offset="0%" stop-color="#FFF" stop-opacity=".143"/>
      <stop offset="100%" stop-opacity=".05"/>
    </linearGradient>
  </defs>
  <g fill="none" fill-rule="evenodd" filter="url(#uos-windesk-a)" transform="translate(2 2)">
    <use fill="url(#uos-windesk-b)" xlink:href="#uos-windesk-c"/>
    <use fill="#000" filter="url(#uos-windesk-d)" xlink:href="#uos-windesk-c"/>
    <path fill="#000" fill-opacity=".04" fill-rule="nonzero" d="M21.3333333,0 L6.66666667,0 C2.98476833,0 0,2.98476833 0,6.66666667 L0,21.3333333 C0,25.0152317 2.98476833,28 6.66666667,28 L21.3333333,28 C25.0152317,28 28,25.0152317 28,21.3333333 L28,6.66666667 C28,2.98476833 25.0152317,0 21.3333333,0 Z M21.3333333,1 C24.4629469,1 27,3.53705308 27,6.66666667 L27,21.3333333 C27,24.4629469 24.4629469,27 21.3333333,27 L6.66666667,27 C3.53705308,27 1,24.4629469 1,21.3333333 L1,6.66666667 C1,3.53705308 3.53705308,1 6.66666667,1 L21.3333333,1 Z"/>
    <g fill-rule="nonzero" transform="translate(5.667 5.667)">
      <g transform="matrix(-1 0 0 1 23.667 0)">
        <use fill="#000" filter="url(#uos-windesk-e)" xlink:href="#uos-windesk-f"/>
        <use fill="url(#uos-windesk-g)" xlink:href="#uos-windesk-f"/>
      </g>
      <use fill="#000" filter="url(#uos-windesk-h)" xlink:href="#uos-windesk-i"/>
      <use fill="url(#uos-windesk-j)" xlink:href="#uos-windesk-i"/>
      <path fill="#000" fill-opacity=".05" d="M15.4583333,6.33333333 C16.4938672,6.33333333 17.3333333,7.17279943 17.3333333,8.20833333 L17.3333333,14.4583333 C17.3333333,15.4938672 16.4938672,16.3333333 15.4583333,16.3333333 L8.20833333,16.3333333 C7.17279943,16.3333333 6.33333333,15.4938672 6.33333333,14.4583333 L6.33333333,8.20833333 C6.33333333,7.17279943 7.17279943,6.33333333 8.20833333,6.33333333 L15.4583333,6.33333333 Z M15.4583333,7.33333333 L8.20833333,7.33333333 C7.76225719,7.33333333 7.3941441,7.66713287 7.34015083,8.09857519 L7.33333333,8.20833333 L7.33333333,14.4583333 C7.33333333,14.9044095 7.66713287,15.2725226 8.09857519,15.3265158 L8.20833333,15.3333333 L15.4583333,15.3333333 C15.9044095,15.3333333 16.2725226,14.9995338 16.3265158,14.5680915 L16.3333333,14.4583333 L16.3333333,8.20833333 C16.3333333,7.76225719 15.9995338,7.3941441 15.5680915,7.34015083 L15.4583333,7.33333333 Z" transform="matrix(-1 0 0 1 23.667 0)"/>
      <path fill="url(#uos-windesk-k)" d="M10.4583333,0.333333333 C11.9894442,0.333333333 13.2410083,1.53021497 13.3284528,3.03940524 L13.3333333,3.20833333 L13.333,5.333 L8.20833333,5.33333333 C6.67722249,5.33333333 5.42565832,6.53021497 5.33821383,8.03940524 L5.33333333,8.20833333 L5.333,13.333 L3.20833333,13.3333333 C1.67722249,13.3333333 0.425658324,12.1364517 0.338213831,10.6272614 L0.333333333,10.4583333 L0.333333333,3.20833333 C0.333333333,1.67722249 1.53021497,0.425658324 3.03940524,0.338213831 L3.20833333,0.333333333 L10.4583333,0.333333333 Z M13.3333333,6.33333333 L13.3333333,11.4583333 C13.3333333,12.4445561 12.5719128,13.2529396 11.6048635,13.3276922 L11.4583333,13.3333333 L6.333,13.333 L6.33333333,8.20833333 C6.33333333,7.22211057 7.09475383,6.41372708 8.06180319,6.33897451 L8.20833333,6.33333333 L13.3333333,6.33333333 Z M8.24680326,7.33259309 L8.13887292,7.33600022 C7.72414419,7.3680586 7.39287445,7.68982462 7.34054289,8.09575716 L7.33333333,8.20839838 L7.332,12.333 L11.4198634,12.3340736 L11.5277937,12.3306664 C11.9425225,12.2986081 12.2737922,11.9768421 12.3261238,11.5709685 L12.3333333,11.4583449 L12.333,7.333 L8.24680326,7.33259309 Z M3.23721226,1.33291625 L3.09724956,1.33653945 C2.16200007,1.39072905 1.41567522,2.12974941 1.33970542,3.05286246 L1.33333333,3.20833333 L1.33291625,10.4294544 L1.33653945,10.5694171 C1.39072905,11.5046666 2.12974941,12.2509915 3.05272906,12.3269613 L3.20817645,12.3333333 L4.333,12.333 L4.33375042,8.1794544 L4.33988822,7.98156093 C4.4544769,6.00389348 6.04517519,4.43731512 8.01052524,4.33830348 L8.20826829,4.33333334 L12.333,4.333 L12.3337504,3.23721226 L12.3301272,3.09724956 C12.2729271,2.11004176 11.4526902,1.33333333 10.4583333,1.33333333 L3.23721226,1.33291625 Z"/>
    </g>
  </g>
</svg>
