<svg xmlns="http://www.w3.org/2000/svg" xmlns:xlink="http://www.w3.org/1999/xlink" width="32" height="32" viewBox="0 0 32 32">
  <defs>
    <filter id="32-a" width="126.7%" height="126.7%" x="-13.3%" y="-13.3%" filterUnits="objectBoundingBox">
      <feOffset dy="1" in="SourceAlpha" result="shadowOffsetOuter1"/>
      <feGaussianBlur in="shadowOffsetOuter1" result="shadowBlurOuter1" stdDeviation=".5"/>
      <feColorMatrix in="shadowBlurOuter1" result="shadowMatrixOuter1" values="0 0 0 0 0   0 0 0 0 0   0 0 0 0 0  0 0 0 0.15 0"/>
      <feMerge>
        <feMergeNode in="shadowMatrixOuter1"/>
        <feMergeNode in="SourceGraphic"/>
      </feMerge>
    </filter>
    <linearGradient id="32-b" x1="25.966%" x2="52.599%" y1="6.401%" y2="82.47%">
      <stop offset="0%" stop-color="#2AA13A"/>
      <stop offset="100%" stop-color="#007463"/>
    </linearGradient>
    <path id="32-c" d="M15,0 C23.2842712,0 30,6.71572875 30,15 C30,23.2842712 23.2842712,30 15,30 C12.6569778,30 10.4394257,29.4627983 8.46379297,28.5048442 L3.91870225,29.1211058 C3.7576424,29.1429703 3.59375731,29.1296757 3.43832759,29.0821369 C2.84417648,28.9004134 2.50983782,28.2714428 2.6915613,27.6772916 L2.6915613,27.6772916 L3.59017279,24.7377821 C1.35164212,22.1173834 3.19744231e-14,18.7165382 3.19744231e-14,15 C3.19744231e-14,6.71572875 6.71572875,0 15,0 Z"/>
    <filter id="32-d" width="103.3%" height="103.3%" x="-1.7%" y="-1.7%" filterUnits="objectBoundingBox">
      <feOffset dy="1" in="SourceAlpha" result="shadowOffsetInner1"/>
      <feComposite in="shadowOffsetInner1" in2="SourceAlpha" k2="-1" k3="1" operator="arithmetic" result="shadowInnerInner1"/>
      <feColorMatrix in="shadowInnerInner1" result="shadowMatrixInner1" values="0 0 0 0 1   0 0 0 0 1   0 0 0 0 1  0 0 0 0.202059659 0"/>
      <feOffset dy="-1" in="SourceAlpha" result="shadowOffsetInner2"/>
      <feComposite in="shadowOffsetInner2" in2="SourceAlpha" k2="-1" k3="1" operator="arithmetic" result="shadowInnerInner2"/>
      <feColorMatrix in="shadowInnerInner2" result="shadowMatrixInner2" values="0 0 0 0 0   0 0 0 0 0   0 0 0 0 0  0 0 0 0.08 0"/>
      <feMerge>
        <feMergeNode in="shadowMatrixInner1"/>
        <feMergeNode in="shadowMatrixInner2"/>
      </feMerge>
    </filter>
    <linearGradient id="32-e" x1="50%" x2="72.769%" y1="12.933%" y2="80.6%">
      <stop offset="0%" stop-color="#F4F4F4"/>
      <stop offset="100%" stop-color="#FFF" stop-opacity=".668"/>
    </linearGradient>
  </defs>
  <g fill="none" fill-rule="evenodd" filter="url(#32-a)" transform="translate(1 1)">
    <use fill="url(#32-b)" xlink:href="#32-c"/>
    <use fill="#000" filter="url(#32-d)" xlink:href="#32-c"/>
    <path fill="url(#32-e)" fill-rule="nonzero" d="M15,6 C19.3349143,6 22.8645429,9.44783777 22.9961932,13.7508207 L23,14 L23,19 L22.7476335,19.0012876 C22.1971232,21.1386874 20.785459,22.9302632 18.9045976,23.9840585 C18.7357711,24.5380947 18.2100078,24.9421362 17.5876809,24.9421362 C16.8282894,24.9421362 16.2126809,24.3405189 16.2126809,23.5983862 C16.2126809,22.8562536 16.8282894,22.2546362 17.5876809,22.2546362 C18.086216,22.2546362 18.522783,22.513923 18.7638851,22.9020335 C20.1959833,21.9878791 21.272774,20.5662094 21.7416959,18.8906375 C21.3436325,18.7140239 21.0563489,18.3362325 21.0074053,17.8868372 L21,17.75 L21,15.25 C21,14.6452426 21.4294653,14.1407923 22.0000506,14.0249943 L22,14 C22,10.1340068 18.8659932,7 15,7 C11.2145483,7 8.13090132,10.0047834 8.00405902,13.7593502 L8,14 L8.00093412,14.0251945 C8.57102873,14.1413728 9,14.6455906 9,15.25 L9,17.75 C9,18.4403559 8.44035594,19 7.75,19 L7,19 L7,14 C7,9.66508574 10.4478378,6.13545713 14.7508207,6.00380682 L15,6 Z M16.592241,19.0753263 C16.7648051,19.2909098 16.7299309,19.6055656 16.5143474,19.7781297 C16.0201942,20.1736751 15.5378832,20.3835269 15.0625,20.3835269 C14.5854012,20.3835269 14.1058962,20.1722317 13.6205594,19.7745174 C13.4069709,19.5994901 13.3757108,19.2844547 13.5507381,19.0708662 C13.7257654,18.8572777 14.0408008,18.8260176 14.2543893,19.0010449 C14.575674,19.264325 14.8461861,19.3835269 15.0625,19.3835269 C15.2805294,19.3835269 15.5578134,19.2628816 15.8894376,18.9974327 C16.1050212,18.8248686 16.4196769,18.8597428 16.592241,19.0753263 Z M24.75,14 C25.4403559,14 26,14.5596441 26,15.25 L26,17.75 C26,18.4403559 25.4403559,19 24.75,19 L24,19 L24,14 L24.75,14 Z M6,14 L6,19 L5.25,19 C4.60279131,19 4.0704661,18.5081253 4.00645361,17.8778052 L4,17.75 L4,15.25 C4,14.6027913 4.49187466,14.0704661 5.12219476,14.0064536 L5.25,14 L6,14 Z M12.2550926,15.3125 C12.5823724,15.3125 12.8476852,15.7602153 12.8476852,16.3125 C12.8476852,16.8647847 12.5823724,17.3125 12.2550926,17.3125 C11.9278127,17.3125 11.6625,16.8647847 11.6625,16.3125 C11.6625,15.7602153 11.9278127,15.3125 12.2550926,15.3125 Z M17.7550926,15.3125 C18.0823724,15.3125 18.3476852,15.7602153 18.3476852,16.3125 C18.3476852,16.8647847 18.0823724,17.3125 17.7550926,17.3125 C17.4278127,17.3125 17.1625,16.8647847 17.1625,16.3125 C17.1625,15.7602153 17.4278127,15.3125 17.7550926,15.3125 Z M15.0012525,8 C18.3142692,8 21,10.6696669 21,13.9628679 L21.00049,14.9587603 C18.1901966,15.2717063 13.6507618,13.7673478 13.0210834,11.676137 C12.6225191,12.75903 10.1436939,14.3876314 9.00045187,14.6644693 L9.00250491,13.9628679 C9.00250491,10.6696669 11.6882357,8 15.0012525,8 Z"/>
  </g>
</svg>
