<svg xmlns="http://www.w3.org/2000/svg" width="32" height="32" viewBox="0 0 32 32">
  <defs>
    <filter id="wps-office-wppmain-b" width="130.8%" height="130.8%" x="-15.4%" y="-15.4%" filterUnits="objectBoundingBox">
      <feOffset dy="1" in="SourceAlpha" result="shadowOffsetOuter1"/>
      <feGaussianBlur in="shadowOffsetOuter1" result="shadowBlurOuter1" stdDeviation=".5"/>
      <feComposite in="shadowBlurOuter1" in2="SourceAlpha" operator="out" result="shadowBlurOuter1"/>
      <feColorMatrix in="shadowBlurOuter1" result="shadowMatrixOuter1" values="0 0 0 0 0   0 0 0 0 0   0 0 0 0 0  0 0 0 0.15 0"/>
      <feMerge>
        <feMergeNode in="shadowMatrixOuter1"/>
        <feMergeNode in="SourceGraphic"/>
      </feMerge>
    </filter>
    <linearGradient id="wps-office-wppmain-a" x1="50%" x2="50%" y1="0%" y2="113.916%">
      <stop offset="0%" stop-color="#FF9165"/>
      <stop offset="100%" stop-color="#FF003F"/>
    </linearGradient>
    <linearGradient id="wps-office-wppmain-c" x1="99.067%" x2=".942%" y1="50%" y2="50%">
      <stop offset="0%" stop-color="#FFD6C2"/>
      <stop offset="100%" stop-color="#FFC4B1"/>
    </linearGradient>
  </defs>
  <g fill="none" fill-rule="evenodd">
    <g fill="url(#wps-office-wppmain-a)" filter="url(#wps-office-wppmain-b)" transform="translate(3 3)">
      <path d="M4,0 L19.9792027,0 C20.9588594,-1.79960006e-16 21.9044536,0.359514275 22.6366581,1.01036273 L24.6574554,2.80662698 C25.5114088,3.56569672 26,4.653713 26,5.79626426 L26,22 C26,24.209139 24.209139,26 22,26 L4,26 C1.790861,26 2.705415e-16,24.209139 0,22 L0,4 C-2.705415e-16,1.790861 1.790861,4.05812251e-16 4,0 Z"/>
    </g>
    <g fill-rule="nonzero" transform="translate(8 8)">
      <path fill="url(#wps-office-wppmain-c)" d="M4,7.33333333 C4,7.70152317 4.29847683,8 4.66666667,8 L4.66666667,8 L12,8 L12,12 L4,12 Z"/>
      <path fill="#FFF" d="M10,3.99996362 L4.66666667,3.99996362 C4.29847683,3.99996362 4,4.29844045 4,4.66663029 L4,13.9999636 C4,15.1045331 3.1045695,15.9999636 2,15.9999636 C0.8954305,15.9999636 1.3527075e-16,15.1045331 0,13.9999636 L0,3.99996362 C-2.705415e-16,1.79082462 1.790861,-3.63807585e-05 4,-3.63807585e-05 L10,-3.63807585e-05 C13.3137085,-3.63807585e-05 16,2.68625512 16,5.99996362 L16,7.99996362 C16,10.2091026 14.209139,11.9999636 12,11.9999636 L12,11.9999636 L12,11.9999636 L12,5.99996362 C12,4.89539412 11.1045695,3.99996362 10,3.99996362 Z"/>
    </g>
  </g>
</svg>
