<svg xmlns="http://www.w3.org/2000/svg" xmlns:xlink="http://www.w3.org/1999/xlink" width="96" height="96" viewBox="0 0 96 96">
  <defs>
    <filter id="drive-network-96px-a" width="135.3%" height="130%" x="-17.6%" y="-15%" filterUnits="objectBoundingBox">
      <feOffset dy="2" in="SourceAlpha" result="shadowOffsetOuter1"/>
      <feGaussianBlur in="shadowOffsetOuter1" result="shadowBlurOuter1" stdDeviation="2"/>
      <feComposite in="shadowBlurOuter1" in2="SourceAlpha" operator="out" result="shadowBlurOuter1"/>
      <feColorMatrix in="shadowBlurOuter1" result="shadowMatrixOuter1" values="0 0 0 0 0   0 0 0 0 0   0 0 0 0 0  0 0 0 0.2 0"/>
      <feMerge>
        <feMergeNode in="shadowMatrixOuter1"/>
        <feMergeNode in="SourceGraphic"/>
      </feMerge>
    </filter>
    <linearGradient id="drive-network-96px-b" x1="102.549%" x2="-2.652%" y1="57.682%" y2="57.682%">
      <stop offset="0%" stop-color="#0067BC"/>
      <stop offset="4.571%" stop-color="#30EA7F"/>
      <stop offset="9.931%" stop-color="#00D887"/>
      <stop offset="88.945%" stop-color="#00B160"/>
      <stop offset="93.793%" stop-color="#00C165"/>
      <stop offset="100%" stop-color="#008CBD"/>
    </linearGradient>
    <linearGradient id="drive-network-96px-c" x1="100%" x2="0%" y1="56.43%" y2="56.43%">
      <stop offset="0%" stop-color="#FFF" stop-opacity=".5"/>
      <stop offset="9.936%" stop-color="#FFF" stop-opacity=".9"/>
      <stop offset="52.356%" stop-color="#FFF" stop-opacity=".7"/>
      <stop offset="87.648%" stop-color="#FFF" stop-opacity=".9"/>
      <stop offset="100%" stop-color="#FFF" stop-opacity=".5"/>
    </linearGradient>
    <path id="drive-network-96px-d" d="M0,65.0022064 C0,60.5827099 3.58406387,57 8.00042472,57 L59.9995753,57 C64.4180878,57 68,60.5844901 68,65.0022064 L68,73.0000398 C68,73.5523026 67.5477879,74 66.9992869,74 L1.00071311,74 C0.448034522,74 0,73.5452911 0,73.0000398 L0,65.0022064 Z"/>
    <filter id="drive-network-96px-e" width="101.5%" height="105.9%" x="-.7%" y="-2.9%" filterUnits="objectBoundingBox">
      <feMorphology in="SourceAlpha" radius="1" result="shadowSpreadInner1"/>
      <feOffset in="shadowSpreadInner1" result="shadowOffsetInner1"/>
      <feComposite in="shadowOffsetInner1" in2="SourceAlpha" k2="-1" k3="1" operator="arithmetic" result="shadowInnerInner1"/>
      <feColorMatrix in="shadowInnerInner1" values="0 0 0 0 1   0 0 0 0 1   0 0 0 0 1  0 0 0 0.5 0"/>
    </filter>
    <radialGradient id="drive-network-96px-f" cx="48.239%" cy="19.103%" r="78.654%" fx="48.239%" fy="19.103%" gradientTransform="matrix(0 1 -.7372 0 .623 -.291)">
      <stop offset="0%" stop-color="#7CFFFE"/>
      <stop offset="100%" stop-color="#D6CDE6"/>
    </radialGradient>
    <path id="drive-network-96px-g" d="M0,73 C0,69.1340068 3.14340248,66 7.00519134,66 L60.9948087,66 C64.863669,66 68,69.1418733 68,73 L68,73 C68,76.8659932 64.8565975,80 60.9948087,80 L7.00519134,80 C3.13633099,80 0,76.8581267 0,73 L0,73 Z"/>
    <filter id="drive-network-96px-h" width="101.5%" height="107.1%" x="-.7%" y="-3.6%" filterUnits="objectBoundingBox">
      <feMorphology in="SourceAlpha" radius="1" result="shadowSpreadInner1"/>
      <feOffset in="shadowSpreadInner1" result="shadowOffsetInner1"/>
      <feComposite in="shadowOffsetInner1" in2="SourceAlpha" k2="-1" k3="1" operator="arithmetic" result="shadowInnerInner1"/>
      <feColorMatrix in="shadowInnerInner1" values="0 0 0 0 0   0 0 0 0 0.239215686   0 0 0 0 0.611764706  0 0 0 0.2 0"/>
    </filter>
    <linearGradient id="drive-network-96px-k" x1="50%" x2="50%" y1="0%" y2="100%">
      <stop offset="0%" stop-color="#0174FF"/>
      <stop offset="50.85%" stop-color="#01C2FF"/>
      <stop offset="100%" stop-color="#0056FF"/>
    </linearGradient>
    <path id="drive-network-96px-j" d="M21.974,0.5 C22.5262847,0.5 22.974,0.943716645 22.974,1.49980749 L22.974,4.50019251 C22.974,5.01292962 22.5912798,5.43551958 22.0913326,5.49327356 L21.974,5.5 C21.4217153,5.5 20.974,5.05628335 20.974,4.50019251 L20.974,1.49980749 C20.974,0.987070378 21.3567202,0.564480424 21.8566674,0.506726436 L21.974,0.5 Z M17.974,0.5 C18.5262847,0.5 18.974,0.943716645 18.974,1.49980749 L18.974,4.50019251 C18.974,5.01292962 18.5912798,5.43551958 18.0913326,5.49327356 L17.974,5.5 C17.4217153,5.5 16.974,5.05628335 16.974,4.50019251 L16.974,1.49980749 C16.974,0.987070378 17.3567202,0.564480424 17.8566674,0.506726436 L17.974,0.5 Z M13.974,0.5 C14.5262847,0.5 14.974,0.943716645 14.974,1.49980749 L14.974,4.50019251 C14.974,5.01292962 14.5912798,5.43551958 14.0913326,5.49327356 L13.974,5.5 C13.4217153,5.5 12.974,5.05628335 12.974,4.50019251 L12.974,1.49980749 C12.974,0.987070378 13.3567202,0.564480424 13.8566674,0.506726436 L13.974,0.5 Z M9.974,0.5 C10.5262847,0.5 10.974,0.943716645 10.974,1.49980749 L10.974,4.50019251 C10.974,5.01292962 10.5912798,5.43551958 10.0913326,5.49327356 L9.974,5.5 C9.42171525,5.5 8.974,5.05628335 8.974,4.50019251 L8.974,1.49980749 C8.974,0.987070378 9.35672018,0.564480424 9.85666744,0.506726436 L9.974,0.5 Z M5.974,0.5 C6.52628475,0.5 6.974,0.943716645 6.974,1.49980749 L6.974,4.50019251 C6.974,5.01292962 6.59127982,5.43551958 6.09133256,5.49327356 L5.974,5.5 C5.42171525,5.5 4.974,5.05628335 4.974,4.50019251 L4.974,1.49980749 C4.974,0.987070378 5.35672018,0.564480424 5.85666744,0.506726436 L5.974,0.5 Z M1.974,0.5 C2.52628475,0.5 2.974,0.943716645 2.974,1.49980749 L2.974,4.50019251 C2.974,5.01292962 2.59127982,5.43551958 2.09133256,5.49327356 L1.974,5.5 C1.42171525,5.5 0.974,5.05628335 0.974,4.50019251 L0.974,1.49980749 C0.974,0.987070378 1.35672018,0.564480424 1.85666744,0.506726436 L1.974,0.5 Z"/>
    <filter id="drive-network-96px-i" width="104.5%" height="140%" x="-2.3%" y="-10%" filterUnits="objectBoundingBox">
      <feOffset dy="1" in="SourceAlpha" result="shadowOffsetOuter1"/>
      <feColorMatrix in="shadowOffsetOuter1" values="0 0 0 0 1   0 0 0 0 1   0 0 0 0 1  0 0 0 0.226675725 0"/>
    </filter>
    <radialGradient id="drive-network-96px-l" cx="50%" cy="37.643%" r="62.357%" fx="50%" fy="37.643%">
      <stop offset="0%" stop-color="#B0FF58"/>
      <stop offset="100%" stop-color="#37EC00"/>
    </radialGradient>
  </defs>
  <g fill="none" fill-rule="evenodd">
    <g filter="url(#drive-network-96px-a)" transform="translate(14 8)">
      <rect width="68" height="79" fill="url(#drive-network-96px-b)" rx="12"/>
      <use fill="url(#drive-network-96px-c)" xlink:href="#drive-network-96px-d"/>
      <use fill="#000" filter="url(#drive-network-96px-e)" xlink:href="#drive-network-96px-d"/>
      <use fill="url(#drive-network-96px-f)" xlink:href="#drive-network-96px-g"/>
      <use fill="#000" filter="url(#drive-network-96px-h)" xlink:href="#drive-network-96px-g"/>
      <g transform="translate(39 70)">
        <use fill="#000" filter="url(#drive-network-96px-i)" xlink:href="#drive-network-96px-j"/>
        <use fill="url(#drive-network-96px-k)" xlink:href="#drive-network-96px-j"/>
      </g>
      <path fill="url(#drive-network-96px-l)" stroke="#54D800" d="M8,75.5 C9.38071187,75.5 10.5,74.3807119 10.5,73 C10.5,71.6192881 9.38071187,70.5 8,70.5 C6.61928813,70.5 5.5,71.6192881 5.5,73 C5.5,74.3807119 6.61928813,75.5 8,75.5 Z"/>
    </g>
    <g transform="translate(31.5 20)">
      <path stroke="#FFF" stroke-width="1.888" d="M32.9475771,16.9190057 C32.9475771,25.7705486 25.7705486,32.9475771 16.9190057,32.9475771 C8.06746286,32.9475771 0.890434286,25.7705486 0.890434286,16.9190057 C0.890434286,8.06746286 8.06746286,0.890434286 16.9190057,0.890434286 C25.7705486,0.890434286 32.9475771,8.06746286 32.9475771,16.9190057 L32.9475771,16.9190057 Z"/>
      <path stroke="#FFF" stroke-width="2" d="M32.4278743 20.97348C13.5235886 24.4469657 5.03787429 12.4481657 3.00130286 8.95582286M3.41352 25.5491657C4.18854857 21.4892229 8.07877714 7.80270857 25.6856914 3.50139429M25.5244629 30.4414629C27.0104057 12.1104343 14.3308629 4.16403429 10.5443486 2.21232M25.0950857 21.5874686C25.0950857 21.5874686 16.6546286 25.9849543 12.0365143 32.1870686"/>
      <path fill="#FFF" d="M19.7106171 6.90699429C19.7106171 8.46836571 18.4434171 9.73556571 16.8820457 9.73556571 15.3206743 9.73556571 14.0534743 8.46836571 14.0534743 6.90699429 14.0534743 5.34562286 15.3206743 4.07842286 16.8820457 4.07842286 18.4434171 4.07842286 19.7106171 5.34562286 19.7106171 6.90699429M10.9239429 14.8141714C10.9239429 16.3755429 9.65674286 17.6427429 8.09537143 17.6427429 6.534 17.6427429 5.2668 16.3755429 5.2668 14.8141714 5.2668 13.2528 6.534 11.9856 8.09537143 11.9856 9.65674286 11.9856 10.9239429 13.2528 10.9239429 14.8141714M27.9236571 21.5976514C27.9236571 23.1590229 26.6564571 24.4262229 25.0950857 24.4262229 23.5337143 24.4262229 22.2665143 23.1590229 22.2665143 21.5976514 22.2665143 20.03628 23.5337143 18.76908 25.0950857 18.76908 26.6564571 18.76908 27.9236571 20.03628 27.9236571 21.5976514"/>
    </g>
  </g>
</svg>
