<svg xmlns="http://www.w3.org/2000/svg" xmlns:xlink="http://www.w3.org/1999/xlink" width="96" height="96" viewBox="0 0 96 96">
  <defs>
    <filter id="drive-harddisk-deepin-96px-a" width="135.3%" height="130%" x="-17.6%" y="-15%" filterUnits="objectBoundingBox">
      <feOffset dy="2" in="SourceAlpha" result="shadowOffsetOuter1"/>
      <feGaussianBlur in="shadowOffsetOuter1" result="shadowBlurOuter1" stdDeviation="2"/>
      <feComposite in="shadowBlurOuter1" in2="SourceAlpha" operator="out" result="shadowBlurOuter1"/>
      <feColorMatrix in="shadowBlurOuter1" result="shadowMatrixOuter1" values="0 0 0 0 0   0 0 0 0 0   0 0 0 0 0  0 0 0 0.2 0"/>
      <feMerge>
        <feMergeNode in="shadowMatrixOuter1"/>
        <feMergeNode in="SourceGraphic"/>
      </feMerge>
    </filter>
    <linearGradient id="drive-harddisk-deepin-96px-b" x1="102.549%" x2="-2.652%" y1="57.682%" y2="57.682%">
      <stop offset="0%" stop-color="#0067BC"/>
      <stop offset="4.571%" stop-color="#30EA7F"/>
      <stop offset="9.931%" stop-color="#00D887"/>
      <stop offset="88.945%" stop-color="#00B160"/>
      <stop offset="93.793%" stop-color="#00C165"/>
      <stop offset="100%" stop-color="#008CBD"/>
    </linearGradient>
    <linearGradient id="drive-harddisk-deepin-96px-c" x1="100%" x2="0%" y1="56.43%" y2="56.43%">
      <stop offset="0%" stop-color="#FFF" stop-opacity=".5"/>
      <stop offset="8.389%" stop-color="#FFF"/>
      <stop offset="52.356%" stop-color="#FFF" stop-opacity=".8"/>
      <stop offset="88.168%" stop-color="#FFF"/>
      <stop offset="100%" stop-color="#FFF" stop-opacity=".5"/>
    </linearGradient>
    <radialGradient id="drive-harddisk-deepin-96px-d" cx="48.239%" cy="19.103%" r="78.654%" fx="48.239%" fy="19.103%" gradientTransform="matrix(0 1 -.7372 0 .623 -.291)">
      <stop offset="0%" stop-color="#7CFFFE"/>
      <stop offset="100%" stop-color="#D6CDE6"/>
    </radialGradient>
    <linearGradient id="drive-harddisk-deepin-96px-g" x1="50%" x2="50%" y1="0%" y2="100%">
      <stop offset="0%" stop-color="#0174FF"/>
      <stop offset="50.85%" stop-color="#01C2FF"/>
      <stop offset="100%" stop-color="#0056FF"/>
    </linearGradient>
    <path id="drive-harddisk-deepin-96px-f" d="M21.974,0.5 C22.5262847,0.5 22.974,0.943716645 22.974,1.49980749 L22.974,4.50019251 C22.974,5.01292962 22.5912798,5.43551958 22.0913326,5.49327356 L21.974,5.5 C21.4217153,5.5 20.974,5.05628335 20.974,4.50019251 L20.974,1.49980749 C20.974,0.987070378 21.3567202,0.564480424 21.8566674,0.506726436 L21.974,0.5 Z M17.974,0.5 C18.5262847,0.5 18.974,0.943716645 18.974,1.49980749 L18.974,4.50019251 C18.974,5.01292962 18.5912798,5.43551958 18.0913326,5.49327356 L17.974,5.5 C17.4217153,5.5 16.974,5.05628335 16.974,4.50019251 L16.974,1.49980749 C16.974,0.987070378 17.3567202,0.564480424 17.8566674,0.506726436 L17.974,0.5 Z M13.974,0.5 C14.5262847,0.5 14.974,0.943716645 14.974,1.49980749 L14.974,4.50019251 C14.974,5.01292962 14.5912798,5.43551958 14.0913326,5.49327356 L13.974,5.5 C13.4217153,5.5 12.974,5.05628335 12.974,4.50019251 L12.974,1.49980749 C12.974,0.987070378 13.3567202,0.564480424 13.8566674,0.506726436 L13.974,0.5 Z M9.974,0.5 C10.5262847,0.5 10.974,0.943716645 10.974,1.49980749 L10.974,4.50019251 C10.974,5.01292962 10.5912798,5.43551958 10.0913326,5.49327356 L9.974,5.5 C9.42171525,5.5 8.974,5.05628335 8.974,4.50019251 L8.974,1.49980749 C8.974,0.987070378 9.35672018,0.564480424 9.85666744,0.506726436 L9.974,0.5 Z M5.974,0.5 C6.52628475,0.5 6.974,0.943716645 6.974,1.49980749 L6.974,4.50019251 C6.974,5.01292962 6.59127982,5.43551958 6.09133256,5.49327356 L5.974,5.5 C5.42171525,5.5 4.974,5.05628335 4.974,4.50019251 L4.974,1.49980749 C4.974,0.987070378 5.35672018,0.564480424 5.85666744,0.506726436 L5.974,0.5 Z M1.974,0.5 C2.52628475,0.5 2.974,0.943716645 2.974,1.49980749 L2.974,4.50019251 C2.974,5.01292962 2.59127982,5.43551958 2.09133256,5.49327356 L1.974,5.5 C1.42171525,5.5 0.974,5.05628335 0.974,4.50019251 L0.974,1.49980749 C0.974,0.987070378 1.35672018,0.564480424 1.85666744,0.506726436 L1.974,0.5 Z"/>
    <filter id="drive-harddisk-deepin-96px-e" width="104.5%" height="140%" x="-2.3%" y="-10%" filterUnits="objectBoundingBox">
      <feOffset dy="1" in="SourceAlpha" result="shadowOffsetOuter1"/>
      <feColorMatrix in="shadowOffsetOuter1" values="0 0 0 0 1   0 0 0 0 1   0 0 0 0 1  0 0 0 0.226675725 0"/>
    </filter>
    <radialGradient id="drive-harddisk-deepin-96px-h" cx="50%" cy="37.643%" r="62.357%" fx="50%" fy="37.643%">
      <stop offset="0%" stop-color="#B0FF58"/>
      <stop offset="100%" stop-color="#37EC00"/>
    </radialGradient>
  </defs>
  <g fill="none" fill-rule="evenodd">
    <g filter="url(#drive-harddisk-deepin-96px-a)" transform="translate(14 8)">
      <rect width="68" height="79" fill="url(#drive-harddisk-deepin-96px-b)" rx="12"/>
      <path fill="url(#drive-harddisk-deepin-96px-c)" stroke="#FFF" stroke-opacity=".5" d="M0.5,65.0022064 L0.5,73.0000398 C0.5,73.2720258 0.727046199,73.5 1.00071311,73.5 L66.9992869,73.5 C67.2734941,73.5 67.5,73.2743153 67.5,73.0000398 L67.5,65.0022064 C67.5,60.8599755 64.1412887,57.5 59.9995753,57.5 L8.00042472,57.5 C3.85946723,57.5 0.5,60.8595913 0.5,65.0022064 Z"/>
      <path fill="url(#drive-harddisk-deepin-96px-d)" stroke="#003D9C" stroke-opacity=".2" d="M0.5,73 C0.5,76.5847051 3.41519402,79.5 7.00519134,79.5 L60.9948087,79.5 C64.5830583,79.5 67.5,76.587251 67.5,73 C67.5,69.4152949 64.584806,66.5 60.9948087,66.5 L7.00519134,66.5 C3.41694169,66.5 0.5,69.412749 0.5,73 Z"/>
      <g transform="translate(39 70)">
        <use fill="#000" filter="url(#drive-harddisk-deepin-96px-e)" xlink:href="#drive-harddisk-deepin-96px-f"/>
        <use fill="url(#drive-harddisk-deepin-96px-g)" xlink:href="#drive-harddisk-deepin-96px-f"/>
      </g>
      <path fill="url(#drive-harddisk-deepin-96px-h)" stroke="#54D800" d="M8,75.5 C9.38071187,75.5 10.5,74.3807119 10.5,73 C10.5,71.6192881 9.38071187,70.5 8,70.5 C6.61928813,70.5 5.5,71.6192881 5.5,73 C5.5,74.3807119 6.61928813,75.5 8,75.5 Z"/>
    </g>
    <path fill="#FFF" d="M48,51 C47.0867692,51 46.1929231,50.9116923 45.3292308,50.7436923 C48.9606154,49.7270769 53.2747692,47.2156923 55.3252308,43.1836923 C55.3252308,43.1836923 59.5295385,36.2935385 52.4153846,30.0926154 C52.4153846,30.0926154 54.244,32.9701538 54.3,35.8649231 C54.3,35.8649231 54.7350769,39.6707692 51.3686154,42.0486154 C46.404,45.5529231 38.6695385,43.9741538 35.3784615,43.0652308 C34.4953846,41.2301538 34,39.1732308 34,37 C34,33.7476923 35.1092308,30.756 36.9701538,28.3781538 C37.8876923,32.8086154 39.7830769,36.5089231 41.0581538,37.8830769 C42.7575385,39.7116923 45.2603077,41.6544615 48.4738462,40.8532308 C51.6852308,40.0498462 52.34,36.5369231 52.34,36.5369231 C53.0507692,33.5495385 52.0384615,30 51.9846154,29.9246154 C51.9307692,29.8492308 51.4483077,29.7673846 51.4483077,29.7673846 C51.9523077,34.4735385 50.7138462,36.5563077 50.7138462,36.5563077 C48.9132308,40.2458462 46.2683077,39.1043077 46.2683077,39.1043077 C43.3283077,37.6052308 43.4661538,33.3815385 43.4661538,33.3815385 C43.38,30.5492308 44.4590769,25.9356923 46.5396923,23.0753846 C47.02,23.0258462 47.5067692,23 48,23 C49.8738462,23 51.6615385,23.3683077 53.2963077,24.0381538 C51.5603077,25.4963077 48.8852308,28.2252308 48.8852308,28.2252308 C44.5516923,32.2421538 45.3916923,35.6215385 45.3916923,35.6215385 C46.0809231,39.1710769 48.2304615,36.7803077 48.2304615,36.7803077 C50.4898462,34.4455385 50.3218462,29.7953846 50.3218462,29.7953846 C49.4064615,29.944 48.8270769,30.448 48.8270769,30.448 C48.7150769,33.5495385 46.8843077,35.4729231 46.8843077,35.4729231 C46.1756923,36.2569231 45.6716923,35.5095385 45.6716923,35.5095385 C45.2990769,34.9495385 46.0443077,34.5575385 46.0443077,34.5575385 C47.0910769,33.6421538 47.4033846,32.0806154 47.3904615,31.4947692 C47.3753846,30.9067692 47.6876923,30.7473846 47.6876923,30.7473846 C49.1652308,29.608 50.6406154,28.936 50.6406154,28.936 C52.62,27.9258462 56.1501538,27.7578462 56.1501538,27.7578462 C56.9858462,27.7858462 57.7870769,27.7535385 58.4655385,27.7018462 C60.6646154,30.1744615 62,33.4310769 62,37 C62,44.7323077 55.7323077,51 48,51 M32,37 C32,45.8365714 39.1634286,53 48,53 C56.8365714,53 64,45.8365714 64,37 C64,28.1634286 56.8365714,21 48,21 C39.1634286,21 32,28.1634286 32,37 Z"/>
  </g>
</svg>
