<svg xmlns="http://www.w3.org/2000/svg" xmlns:xlink="http://www.w3.org/1999/xlink" width="96" height="96" viewBox="0 0 96 96">
  <defs>
    <filter id="drive-optical-96px-a" width="135.3%" height="130%" x="-17.6%" y="-15%" filterUnits="objectBoundingBox">
      <feOffset dy="2" in="SourceAlpha" result="shadowOffsetOuter1"/>
      <feGaussianBlur in="shadowOffsetOuter1" result="shadowBlurOuter1" stdDeviation="2"/>
      <feComposite in="shadowBlurOuter1" in2="SourceAlpha" operator="out" result="shadowBlurOuter1"/>
      <feColorMatrix in="shadowBlurOuter1" result="shadowMatrixOuter1" values="0 0 0 0 0   0 0 0 0 0   0 0 0 0 0  0 0 0 0.2 0"/>
      <feMerge>
        <feMergeNode in="shadowMatrixOuter1"/>
        <feMergeNode in="SourceGraphic"/>
      </feMerge>
    </filter>
    <linearGradient id="drive-optical-96px-b" x1="102.549%" x2="-2.652%" y1="57.682%" y2="57.682%">
      <stop offset="0%" stop-color="#0067BC"/>
      <stop offset="4.571%" stop-color="#30EA7F"/>
      <stop offset="9.931%" stop-color="#00D887"/>
      <stop offset="88.945%" stop-color="#00B160"/>
      <stop offset="93.793%" stop-color="#00C165"/>
      <stop offset="100%" stop-color="#008CBD"/>
    </linearGradient>
    <linearGradient id="drive-optical-96px-c" x1="100%" x2="0%" y1="56.43%" y2="56.43%">
      <stop offset="0%" stop-color="#FFF" stop-opacity=".5"/>
      <stop offset="9.936%" stop-color="#FFF" stop-opacity=".9"/>
      <stop offset="52.356%" stop-color="#FFF" stop-opacity=".7"/>
      <stop offset="87.648%" stop-color="#FFF" stop-opacity=".9"/>
      <stop offset="100%" stop-color="#FFF" stop-opacity=".5"/>
    </linearGradient>
    <rect id="drive-optical-96px-d" width="68" height="21" x="0" y="57" rx="6"/>
    <filter id="drive-optical-96px-e" width="101.5%" height="104.8%" x="-.7%" y="-2.4%" filterUnits="objectBoundingBox">
      <feMorphology in="SourceAlpha" radius="1" result="shadowSpreadInner1"/>
      <feOffset in="shadowSpreadInner1" result="shadowOffsetInner1"/>
      <feComposite in="shadowOffsetInner1" in2="SourceAlpha" k2="-1" k3="1" operator="arithmetic" result="shadowInnerInner1"/>
      <feColorMatrix in="shadowInnerInner1" values="0 0 0 0 1   0 0 0 0 1   0 0 0 0 1  0 0 0 0.5 0"/>
    </filter>
    <radialGradient id="drive-optical-96px-f" cx="48.239%" cy="19.103%" r="78.654%" fx="48.239%" fy="19.103%" gradientTransform="matrix(0 1 -.7372 0 .623 -.291)">
      <stop offset="0%" stop-color="#7CFFFE"/>
      <stop offset="100%" stop-color="#D6CDE6"/>
    </radialGradient>
    <path id="drive-optical-96px-g" d="M0,73 C0,69.1340068 3.14340248,66 7.00519134,66 L60.9948087,66 C64.863669,66 68,69.1418733 68,73 L68,73 C68,76.8659932 64.8565975,80 60.9948087,80 L7.00519134,80 C3.13633099,80 0,76.8581267 0,73 L0,73 Z"/>
    <filter id="drive-optical-96px-h" width="101.5%" height="107.1%" x="-.7%" y="-3.6%" filterUnits="objectBoundingBox">
      <feMorphology in="SourceAlpha" radius="1" result="shadowSpreadInner1"/>
      <feOffset in="shadowSpreadInner1" result="shadowOffsetInner1"/>
      <feComposite in="shadowOffsetInner1" in2="SourceAlpha" k2="-1" k3="1" operator="arithmetic" result="shadowInnerInner1"/>
      <feColorMatrix in="shadowInnerInner1" values="0 0 0 0 0   0 0 0 0 0.239215686   0 0 0 0 0.611764706  0 0 0 0.2 0"/>
    </filter>
    <rect id="drive-optical-96px-j" width="56" height="2" x="0" y="0" rx="1"/>
    <filter id="drive-optical-96px-i" width="101.8%" height="200%" x="-.9%" y="-25%" filterUnits="objectBoundingBox">
      <feOffset dy="1" in="SourceAlpha" result="shadowOffsetOuter1"/>
      <feColorMatrix in="shadowOffsetOuter1" values="0 0 0 0 1   0 0 0 0 1   0 0 0 0 1  0 0 0 0.5 0"/>
    </filter>
  </defs>
  <g fill="none" fill-rule="evenodd">
    <g filter="url(#drive-optical-96px-a)" transform="translate(14 8)">
      <rect width="68" height="79" fill="url(#drive-optical-96px-b)" rx="12"/>
      <use fill="url(#drive-optical-96px-c)" xlink:href="#drive-optical-96px-d"/>
      <use fill="#000" filter="url(#drive-optical-96px-e)" xlink:href="#drive-optical-96px-d"/>
      <use fill="url(#drive-optical-96px-f)" xlink:href="#drive-optical-96px-g"/>
      <use fill="#000" filter="url(#drive-optical-96px-h)" xlink:href="#drive-optical-96px-g"/>
      <g transform="translate(6 72)">
        <use fill="#000" filter="url(#drive-optical-96px-i)" xlink:href="#drive-optical-96px-j"/>
        <use fill="#008BFF" xlink:href="#drive-optical-96px-j"/>
      </g>
    </g>
    <g transform="translate(32 21)">
      <path d="M16.002 2.346C18 2.346 19.892 2.786 21.602 3.558L21.628 3.5C19.904 2.718 17.998 2.27 15.986 2.27 8.424 2.27 2.274 8.424 2.274 15.992 2.274 18.004 2.72 19.912 3.502 21.636L3.574 21.604C2.8 19.892 2.358 17.996 2.358 15.994 2.356 8.456 8.466 2.346 16.002 2.346L16.002 2.346zM28.428 10.374C29.206 12.09 29.648 13.988 29.648 15.994 29.648 23.53 23.538 29.64 16.002 29.64 13.992 29.64 12.09 29.194 10.372 28.414L10.34 28.484C12.064 29.266 13.972 29.714 15.984 29.714 23.546 29.714 29.696 23.56 29.696 15.992 29.696 13.98 29.25 12.076 28.47 10.352L28.428 10.374 28.428 10.374z"/>
      <circle cx="15.986" cy="15.992" r="2.288" fill="#FFF"/>
      <path fill="#FFF" d="M23.204 13.066L29.238 10.008C27.78 6.79 25.188 4.202 21.968 2.748L18.956 8.682C20.86 9.582 23.212 13.086 23.204 13.066L23.204 13.066zM9.008 18.784L2.762 21.97C4.214 25.182 6.796 27.766 10.006 29.224L13.234 23.15C11.358 22.262 9.85 20.714 9.008 18.784L9.008 18.784z" opacity=".5"/>
      <path fill="#FFF" d="M23.344,12.74 C23.434,12.948 23.482,13.176 23.556,13.394 C23.484,13.176 23.432,12.95 23.344,12.74 L23.344,12.74 Z"/>
      <circle cx="16.008" cy="15.994" r="15" stroke="#FFF" stroke-width="2"/>
      <circle cx="16.008" cy="15.994" r="7" stroke="#FFF" stroke-width="2"/>
    </g>
  </g>
</svg>
