<?xml version="1.0" encoding="UTF-8"?>
<svg width="96px" height="96px" viewBox="0 0 96 96" version="1.1" xmlns="http://www.w3.org/2000/svg" xmlns:xlink="http://www.w3.org/1999/xlink">
    <title>devices/96/drive-network</title>
    <defs>
        <filter x="-9.7%" y="-5.8%" width="119.4%" height="116.3%" filterUnits="objectBoundingBox" id="filter-1">
            <feOffset dx="0" dy="2" in="SourceAlpha" result="shadowOffsetOuter1"></feOffset>
            <feGaussianBlur stdDeviation="2" in="shadowOffsetOuter1" result="shadowBlurOuter1"></feGaussianBlur>
            <feColorMatrix values="0 0 0 0 0   0 0 0 0 0   0 0 0 0 0  0 0 0 0.2 0" type="matrix" in="shadowBlurOuter1" result="shadowMatrixOuter1"></feColorMatrix>
            <feMerge>
                <feMergeNode in="shadowMatrixOuter1"></feMergeNode>
                <feMergeNode in="SourceGraphic"></feMergeNode>
            </feMerge>
        </filter>
        <linearGradient x1="102.549264%" y1="57.6822305%" x2="-2.65228894%" y2="57.6822305%" id="linearGradient-2">
            <stop stop-color="#0067BC" offset="0%"></stop>
            <stop stop-color="#30EA7F" offset="4.57146722%"></stop>
            <stop stop-color="#00D887" offset="9.93130604%"></stop>
            <stop stop-color="#00B160" offset="88.9446523%"></stop>
            <stop stop-color="#00C165" offset="93.7925209%"></stop>
            <stop stop-color="#008CBD" offset="100%"></stop>
        </linearGradient>
        <linearGradient x1="100%" y1="56.4295561%" x2="0%" y2="56.4295561%" id="linearGradient-3">
            <stop stop-color="#FFFFFF" stop-opacity="0.5" offset="0%"></stop>
            <stop stop-color="#FFFFFF" offset="8.38902143%"></stop>
            <stop stop-color="#FFFFFF" stop-opacity="0.8" offset="52.3560063%"></stop>
            <stop stop-color="#FFFFFF" offset="88.1683526%"></stop>
            <stop stop-color="#FFFFFF" stop-opacity="0.5" offset="100%"></stop>
        </linearGradient>
        <radialGradient cx="48.2392027%" cy="19.1031265%" fx="48.2392027%" fy="19.1031265%" r="78.6539217%" gradientTransform="translate(0.4824, 0.191), scale(0.2222, 1), rotate(90), scale(1, 3.5807), translate(-0.4824, -0.191)" id="radialGradient-4">
            <stop stop-color="#7CFFFE" offset="0%"></stop>
            <stop stop-color="#D6CDE6" offset="100%"></stop>
        </radialGradient>
        <linearGradient x1="50%" y1="0%" x2="50%" y2="100%" id="linearGradient-5">
            <stop stop-color="#0174FF" offset="0%"></stop>
            <stop stop-color="#01C2FF" offset="50.8499801%"></stop>
            <stop stop-color="#0056FF" offset="100%"></stop>
        </linearGradient>
        <path d="M65,75 C65.5522847,75 66,75.4477153 66,76 L66,79 C66,79.5522847 65.5522847,80 65,80 C64.4477153,80 64,79.5522847 64,79 L64,76 C64,75.4477153 64.4477153,75 65,75 Z M61,75 C61.5522847,75 62,75.4477153 62,76 L62,79 C62,79.5522847 61.5522847,80 61,80 C60.4477153,80 60,79.5522847 60,79 L60,76 C60,75.4477153 60.4477153,75 61,75 Z M57,75 C57.5522847,75 58,75.4477153 58,76 L58,79 C58,79.5522847 57.5522847,80 57,80 C56.4477153,80 56,79.5522847 56,79 L56,76 C56,75.4477153 56.4477153,75 57,75 Z M53,75 C53.5522847,75 54,75.4477153 54,76 L54,79 C54,79.5522847 53.5522847,80 53,80 C52.4477153,80 52,79.5522847 52,79 L52,76 C52,75.4477153 52.4477153,75 53,75 Z M49,75 C49.5522847,75 50,75.4477153 50,76 L50,79 C50,79.5522847 49.5522847,80 49,80 C48.4477153,80 48,79.5522847 48,79 L48,76 C48,75.4477153 48.4477153,75 49,75 Z M45,75 C45.5522847,75 46,75.4477153 46,76 L46,79 C46,79.5522847 45.5522847,80 45,80 C44.4477153,80 44,79.5522847 44,79 L44,76 C44,75.4477153 44.4477153,75 45,75 Z" id="path-6"></path>
        <filter x="-2.3%" y="-10.0%" width="104.5%" height="140.0%" filterUnits="objectBoundingBox" id="filter-7">
            <feOffset dx="0" dy="1" in="SourceAlpha" result="shadowOffsetOuter1"></feOffset>
            <feColorMatrix values="0 0 0 0 1   0 0 0 0 1   0 0 0 0 1  0 0 0 0.3 0" type="matrix" in="shadowOffsetOuter1"></feColorMatrix>
        </filter>
        <path d="M8.8125,80.5 C10.3658009,80.5 11.625,79.2408009 11.625,77.6875 C11.625,76.1341991 10.3658009,74.875 8.8125,74.875 C7.25919914,74.875 6,76.1341991 6,77.6875 C6,79.2408009 7.25919914,80.5 8.8125,80.5 Z" id="path-8"></path>
        <filter x="-17.8%" y="-17.8%" width="135.6%" height="135.6%" filterUnits="objectBoundingBox" id="filter-9">
            <feOffset dx="-2" dy="-2" in="SourceAlpha" result="shadowOffsetInner1"></feOffset>
            <feComposite in="shadowOffsetInner1" in2="SourceAlpha" operator="arithmetic" k2="-1" k3="1" result="shadowInnerInner1"></feComposite>
            <feColorMatrix values="0 0 0 0 0.191847778   0 0 0 0 0.912414966   0 0 0 0 0.103665518  0 0 0 0.5 0" type="matrix" in="shadowInnerInner1"></feColorMatrix>
        </filter>
    </defs>
    <g id="devices/96/drive-network" stroke="none" stroke-width="1" fill="none" fill-rule="evenodd">
        <g id="编组-2" filter="url(#filter-1)" transform="translate(12, 5)">
            <path d="M12,0 L60,0 C66.627417,-1.21743675e-15 72,5.372583 72,12 L72,78 L72,78 L0,78 L0,12 C-8.11624501e-16,5.372583 5.372583,1.21743675e-15 12,0 Z" id="Rectangle-1" fill="url(#linearGradient-2)"></path>
            <path d="M7.5,60 L64.5,60 C68.6421356,60 72,63.3578644 72,67.5 L72,77 L72,77 L0,77 L0,67.5 C-5.07265313e-16,63.3578644 3.35786438,60 7.5,60 Z" id="Rectangle-3" fill="url(#linearGradient-3)"></path>
            <path d="M64.5,60 C68.6421356,60 72,63.3578644 72,67.5 L72,77 L0,77 L0,67.5 C0,63.3578644 3.35786438,60 7.5,60 L64.5,60 Z M64.5,61 L7.5,61 C3.91014913,61 1,63.9101491 1,67.5 L1,76 L71,76 L71,67.5 C71,63.9881894 68.2150038,61.1268494 64.7331341,61.004103 L64.5,61 Z" id="Rectangle-3" fill-opacity="0.5" fill="#FFFFFF" fill-rule="nonzero"></path>
            <path d="M8,70 L64,70 C68.418278,70 72,73.581722 72,78 C72,82.418278 68.418278,86 64,86 L8,86 C3.581722,86 5.41083001e-16,82.418278 0,78 C-5.41083001e-16,73.581722 3.581722,70 8,70 Z" id="Rectangle-1" fill="url(#radialGradient-4)"></path>
            <path d="M64,70 C68.418278,70 72,73.581722 72,78 C72,82.418278 68.418278,86 64,86 L8,86 C3.581722,86 0,82.418278 0,78 C0,73.581722 3.581722,70 8,70 L64,70 Z M64,71 L8,71 C4.13400675,71 1,74.1340068 1,78 C1,81.8659932 4.13400675,85 8,85 L64,85 C67.8659932,85 71,81.8659932 71,78 C71,74.1340068 67.8659932,71 64,71 Z" id="Rectangle-1" fill-opacity="0.2" fill="#003D9C" fill-rule="nonzero"></path>
            <g id="Combined-Shape">
                <use fill="black" fill-opacity="1" filter="url(#filter-7)" xlink:href="#path-6"></use>
                <use fill="url(#linearGradient-5)" fill-rule="evenodd" xlink:href="#path-6"></use>
            </g>
            <g id="Oval">
                <use fill="#BAFF76" fill-rule="evenodd" xlink:href="#path-8"></use>
                <use fill="black" fill-opacity="1" filter="url(#filter-9)" xlink:href="#path-8"></use>
            </g>
            <path d="M8.8125,74.875 C10.3658009,74.875 11.625,76.1341991 11.625,77.6875 C11.625,79.2408009 10.3658009,80.5 8.8125,80.5 C7.25919914,80.5 6,79.2408009 6,77.6875 C6,76.1341991 7.25919914,74.875 8.8125,74.875 Z M8.8125,75.875 C7.81148389,75.875 7,76.6864839 7,77.6875 C7,78.6885161 7.81148389,79.5 8.8125,79.5 C9.81351611,79.5 10.625,78.6885161 10.625,77.6875 C10.625,76.6864839 9.81351611,75.875 8.8125,75.875 Z" id="Oval" fill="#54D800" fill-rule="nonzero"></path>
        </g>
        <g id="Group-2" transform="translate(33, 21.75)">
            <path d="M29.8714286,14.9357143 C29.8714286,23.1837429 23.1837429,29.8714286 14.9357143,29.8714286 C6.68768571,29.8714286 0,23.1837429 0,14.9357143 C0,6.68768571 6.68768571,0 14.9357143,0 C23.1837429,0 29.8714286,6.68768571 29.8714286,14.9357143 L29.8714286,14.9357143 Z" id="Stroke-1" stroke="#FFFFFF" stroke-width="1.8408"></path>
            <path d="M29.38716,18.7137471 C11.7718029,21.9504043 3.86466,10.7697043 1.96694571,7.51547571" id="Stroke-3" stroke="#FFFFFF" stroke-width="1.95"></path>
            <path d="M2.35105714,22.9774543 C3.07324286,19.1943257 6.69822857,6.44098286 23.1046714,2.43294" id="Stroke-5" stroke="#FFFFFF" stroke-width="1.95"></path>
            <path d="M22.9544357,27.5361857 C24.3390643,10.455 12.5240357,3.0504 8.99569286,1.23175714" id="Stroke-7" stroke="#FFFFFF" stroke-width="1.95"></path>
            <path d="M22.5543343,19.2858729 C22.5543343,19.2858729 14.6893629,23.38353 10.38612,29.1627729" id="Stroke-9" stroke="#FFFFFF" stroke-width="1.95"></path>
            <path d="M17.5369886,5.60634 C17.5369886,7.06125429 16.3561886,8.24205429 14.9012743,8.24205429 C13.44636,8.24205429 12.26556,7.06125429 12.26556,5.60634 C12.26556,4.15142571 13.44636,2.97062571 14.9012743,2.97062571 C16.3561886,2.97062571 17.5369886,4.15142571 17.5369886,5.60634" id="Fill-11" fill="#FFFFFF"></path>
            <path d="M9.34940571,12.9743914 C9.34940571,14.4293057 8.16860571,15.6101057 6.71369143,15.6101057 C5.25877714,15.6101057 4.07797714,14.4293057 4.07797714,12.9743914 C4.07797714,11.5194771 5.25877714,10.3386771 6.71369143,10.3386771 C8.16860571,10.3386771 9.34940571,11.5194771 9.34940571,12.9743914" id="Fill-13" fill="#FFFFFF"></path>
            <path d="M25.1900486,19.2953614 C25.1900486,20.7502757 24.0092486,21.9310757 22.5543343,21.9310757 C21.09942,21.9310757 19.91862,20.7502757 19.91862,19.2953614 C19.91862,17.8404471 21.09942,16.6596471 22.5543343,16.6596471 C24.0092486,16.6596471 25.1900486,17.8404471 25.1900486,19.2953614" id="Fill-15" fill="#FFFFFF"></path>
        </g>
    </g>
</svg>