<?xml version="1.0" encoding="UTF-8"?>
<svg width="96px" height="96px" viewBox="0 0 96 96" version="1.1" xmlns="http://www.w3.org/2000/svg" xmlns:xlink="http://www.w3.org/1999/xlink">
    <title>devices/96/media-cdrw</title>
    <defs>
        <filter x="-8.0%" y="-5.7%" width="116.1%" height="116.1%" filterUnits="objectBoundingBox" id="filter-1">
            <feOffset dx="0" dy="2" in="SourceAlpha" result="shadowOffsetOuter1"></feOffset>
            <feGaussianBlur stdDeviation="2" in="shadowOffsetOuter1" result="shadowBlurOuter1"></feGaussianBlur>
            <feColorMatrix values="0 0 0 0 0   0 0 0 0 0   0 0 0 0 0  0 0 0 0.2 0" type="matrix" in="shadowBlurOuter1" result="shadowMatrixOuter1"></feColorMatrix>
            <feMerge>
                <feMergeNode in="shadowMatrixOuter1"></feMergeNode>
                <feMergeNode in="SourceGraphic"></feMergeNode>
            </feMerge>
        </filter>
        <linearGradient x1="28.8395889%" y1="5.6059543%" x2="73.7075197%" y2="93.9492692%" id="linearGradient-2">
            <stop stop-color="#5CD4FB" offset="0%"></stop>
            <stop stop-color="#FFADF1" offset="47.7870472%"></stop>
            <stop stop-color="#7DF8FF" offset="100%"></stop>
        </linearGradient>
    </defs>
    <g id="devices/96/media-cdrw" stroke="none" stroke-width="1" fill="none" fill-rule="evenodd">
        <g id="Group" filter="url(#filter-1)" transform="translate(4.5, 4.5)">
            <g id="Group-4" transform="translate(29, 29)"></g>
            <path d="M43.5,0 C67.5243866,0 87,19.4756134 87,43.5 C87,67.5243866 67.5243866,87 43.5,87 C19.4756134,87 0,67.5243866 0,43.5 C0,19.4756134 19.4756134,0 43.5,0 Z M43.5,29 C35.4918711,29 29,35.4918711 29,43.5 C29,51.5081289 35.4918711,58 43.5,58 C51.5081289,58 58,51.5081289 58,43.5 C58,35.4918711 51.5081289,29 43.5,29 Z" id="Combined-Shape" fill="url(#linearGradient-2)"></path>
            <path d="M84.9285714,43.5 C84.9285714,20.6196318 66.3803682,2.07142857 43.5,2.07142857 C20.6196318,2.07142857 2.07142857,20.6196318 2.07142857,43.5 C2.07142857,66.3803682 20.6196318,84.9285714 43.5,84.9285714 C66.3803682,84.9285714 84.9285714,66.3803682 84.9285714,43.5 Z M43.5,64.2142857 C54.9401841,64.2142857 64.2142857,54.9401841 64.2142857,43.5 C64.2142857,32.0598159 54.9401841,22.7857143 43.5,22.7857143 C32.0598159,22.7857143 22.7857143,32.0598159 22.7857143,43.5 C22.7857143,54.9401841 32.0598159,64.2142857 43.5,64.2142857 L43.5,64.2142857 Z" id="Combined-Shape" fill="#FFFFFF" opacity="0.39738806"></path>
            <path d="M43.5,58 C51.5081289,58 58,51.5081289 58,43.5 C58,35.4918711 51.5081289,29 43.5,29 C35.4918711,29 29,35.4918711 29,43.5 C29,51.5081289 35.4918711,58 43.5,58 L43.5,58 Z M43.5,49.7142857 C46.9320552,49.7142857 49.7142857,46.9320552 49.7142857,43.5 C49.7142857,40.0679448 46.9320552,37.2857143 43.5,37.2857143 C40.0679448,37.2857143 37.2857143,40.0679448 37.2857143,43.5 C37.2857143,46.9320552 40.0679448,49.7142857 43.5,49.7142857 L43.5,49.7142857 Z" id="Combined-Shape" fill="#CBD4E5" opacity="0.8"></path>
            <path d="M43.5,64.2142857 C54.9401841,64.2142857 64.2142857,54.9401841 64.2142857,43.5 C64.2142857,32.0598159 54.9401841,22.7857143 43.5,22.7857143 C32.0598159,22.7857143 22.7857143,32.0598159 22.7857143,43.5 C22.7857143,54.9401841 32.0598159,64.2142857 43.5,64.2142857 L43.5,64.2142857 Z M43.5,55.9285714 C50.3641105,55.9285714 55.9285714,50.3641105 55.9285714,43.5 C55.9285714,36.6358895 50.3641105,31.0714286 43.5,31.0714286 C36.6358895,31.0714286 31.0714286,36.6358895 31.0714286,43.5 C31.0714286,50.3641105 36.6358895,55.9285714 43.5,55.9285714 L43.5,55.9285714 Z" id="Combined-Shape" fill="#B792AF" opacity="0.4"></path>
            <path d="M43.5,2.07142857 C39.195939,2.07142857 35.0378758,2.69651975 31.1116419,3.8608707 C31.1116419,3.86087066 41.499934,37.2857143 41.499934,37.4225289 C42.1537172,37.3323283 42.8214149,37.2857143 43.5,37.2857143 C44.2322026,37.2857143 44.9517294,37.3399856 45.6547774,37.444725 C45.6547773,37.3399863 56.0119784,3.86087066 56.0119784,3.89773223 C52.0494421,2.7097178 47.8492612,2.07142857 43.5,2.07142857 Z M43.5,84.9473782 C39.195939,84.9473782 35.0378758,84.3222871 31.1116419,83.1579361 C31.1116419,83.1579362 41.4791471,49.5800431 41.4791473,49.5933947 C42.1395624,49.685485 42.8142216,49.7330925 43.5,49.7330925 C44.217574,49.7330925 44.9229737,49.6809681 45.6126193,49.5800431 C46.3479458,49.4729618 56.0119784,83.1579362 56.0119784,83.1210746 C52.0494421,84.309089 47.8492612,84.9473782 43.5,84.9473782 Z" id="Combined-Shape" fill="#FFFFFF" opacity="0.25" transform="translate(43.5618, 43.5094) rotate(-30) translate(-43.5618, -43.5094)"></path>
        </g>
        <path d="M30.306,72.75 C28.986,72.75 27.954,73.194 27.234,74.106 C26.574,74.922 26.25,75.966 26.25,77.238 C26.25,78.51 26.562,79.542 27.21,80.334 C27.918,81.21 28.938,81.654 30.27,81.654 C31.182,81.654 31.974,81.39 32.634,80.874 C33.342,80.322 33.786,79.542 33.978,78.546 L33.03,78.546 C32.862,79.29 32.514,79.854 32.01,80.238 C31.53,80.598 30.954,80.778 30.27,80.778 C29.262,80.778 28.506,80.442 27.978,79.782 C27.474,79.158 27.234,78.306 27.234,77.238 C27.234,76.17 27.486,75.318 27.99,74.67 C28.53,73.974 29.298,73.626 30.294,73.626 C30.966,73.626 31.53,73.782 31.998,74.106 C32.478,74.442 32.79,74.922 32.91,75.546 L33.858,75.546 C33.738,74.694 33.354,74.01 32.706,73.506 C32.058,73.002 31.254,72.75 30.306,72.75 L30.306,72.75 Z M35.346,72.918 L35.346,81.486 L38.322,81.486 C39.666,81.486 40.698,81.09 41.418,80.31 C42.102,79.566 42.45,78.522 42.45,77.202 C42.45,75.858 42.126,74.814 41.49,74.094 C40.794,73.302 39.774,72.918 38.418,72.918 L35.346,72.918 Z M36.33,73.77 L38.262,73.77 C39.39,73.77 40.206,74.058 40.734,74.646 C41.226,75.198 41.478,76.05 41.478,77.202 C41.478,78.318 41.202,79.17 40.674,79.746 C40.11,80.334 39.27,80.634 38.154,80.634 L36.33,80.634 L36.33,73.77 Z M43.554,77.97 L43.554,78.786 L49.614,78.786 L49.614,77.97 L43.554,77.97 Z M51.078,72.918 L51.078,81.486 L52.062,81.486 L52.062,77.802 L54.654,77.802 C55.194,77.802 55.602,77.898 55.89,78.114 C56.202,78.33 56.382,78.702 56.43,79.206 L56.538,80.346 C56.574,80.826 56.694,81.198 56.886,81.486 L57.954,81.486 C57.702,81.174 57.546,80.754 57.498,80.226 L57.366,78.906 C57.27,78.042 56.814,77.526 55.998,77.346 L55.998,77.322 C56.49,77.202 56.874,76.962 57.162,76.578 C57.426,76.206 57.558,75.786 57.558,75.306 C57.558,74.514 57.294,73.914 56.79,73.506 C56.298,73.11 55.626,72.918 54.774,72.918 L51.078,72.918 Z M52.062,73.77 L54.654,73.77 C55.314,73.77 55.806,73.902 56.118,74.166 C56.406,74.418 56.562,74.814 56.562,75.342 C56.562,75.846 56.406,76.23 56.106,76.506 C55.77,76.794 55.278,76.95 54.654,76.95 L52.062,76.95 L52.062,73.77 Z M58.386,72.918 L60.846,81.486 L61.938,81.486 L63.894,74.346 L63.93,74.346 L65.874,81.486 L66.966,81.486 L69.426,72.918 L68.322,72.918 L66.438,80.106 L66.39,80.106 L64.446,72.918 L63.378,72.918 L61.422,80.106 L61.374,80.106 L59.49,72.918 L58.386,72.918 Z" id="CD-RW" fill="#8F859E"></path>
    </g>
</svg>