<?xml version="1.0" encoding="UTF-8"?>
<svg width="96px" height="96px" viewBox="0 0 96 96" version="1.1" xmlns="http://www.w3.org/2000/svg" xmlns:xlink="http://www.w3.org/1999/xlink">
    <title>devices/96/media-cdr</title>
    <defs>
        <filter x="-8.0%" y="-5.7%" width="116.1%" height="116.1%" filterUnits="objectBoundingBox" id="filter-1">
            <feOffset dx="0" dy="2" in="SourceAlpha" result="shadowOffsetOuter1"></feOffset>
            <feGaussianBlur stdDeviation="2" in="shadowOffsetOuter1" result="shadowBlurOuter1"></feGaussianBlur>
            <feColorMatrix values="0 0 0 0 0   0 0 0 0 0   0 0 0 0 0  0 0 0 0.2 0" type="matrix" in="shadowBlurOuter1" result="shadowMatrixOuter1"></feColorMatrix>
            <feMerge>
                <feMergeNode in="shadowMatrixOuter1"></feMergeNode>
                <feMergeNode in="SourceGraphic"></feMergeNode>
            </feMerge>
        </filter>
        <linearGradient x1="28.8395889%" y1="5.6059543%" x2="73.7075197%" y2="93.9492692%" id="linearGradient-2">
            <stop stop-color="#5CD4FB" offset="0%"></stop>
            <stop stop-color="#FFADF1" offset="47.7870472%"></stop>
            <stop stop-color="#7DF8FF" offset="100%"></stop>
        </linearGradient>
    </defs>
    <g id="devices/96/media-cdr" stroke="none" stroke-width="1" fill="none" fill-rule="evenodd">
        <g id="Group" filter="url(#filter-1)" transform="translate(4.5, 4.5)">
            <g id="Group-4" transform="translate(29, 29)"></g>
            <path d="M43.5,0 C67.5243866,0 87,19.4756134 87,43.5 C87,67.5243866 67.5243866,87 43.5,87 C19.4756134,87 0,67.5243866 0,43.5 C0,19.4756134 19.4756134,0 43.5,0 Z M43.5,29 C35.4918711,29 29,35.4918711 29,43.5 C29,51.5081289 35.4918711,58 43.5,58 C51.5081289,58 58,51.5081289 58,43.5 C58,35.4918711 51.5081289,29 43.5,29 Z" id="Combined-Shape" fill="url(#linearGradient-2)"></path>
            <path d="M84.9285714,43.5 C84.9285714,20.6196318 66.3803682,2.07142857 43.5,2.07142857 C20.6196318,2.07142857 2.07142857,20.6196318 2.07142857,43.5 C2.07142857,66.3803682 20.6196318,84.9285714 43.5,84.9285714 C66.3803682,84.9285714 84.9285714,66.3803682 84.9285714,43.5 Z M43.5,64.2142857 C54.9401841,64.2142857 64.2142857,54.9401841 64.2142857,43.5 C64.2142857,32.0598159 54.9401841,22.7857143 43.5,22.7857143 C32.0598159,22.7857143 22.7857143,32.0598159 22.7857143,43.5 C22.7857143,54.9401841 32.0598159,64.2142857 43.5,64.2142857 L43.5,64.2142857 Z" id="Combined-Shape" fill="#FFFFFF" opacity="0.39738806"></path>
            <path d="M43.5,58 C51.5081289,58 58,51.5081289 58,43.5 C58,35.4918711 51.5081289,29 43.5,29 C35.4918711,29 29,35.4918711 29,43.5 C29,51.5081289 35.4918711,58 43.5,58 L43.5,58 Z M43.5,49.7142857 C46.9320552,49.7142857 49.7142857,46.9320552 49.7142857,43.5 C49.7142857,40.0679448 46.9320552,37.2857143 43.5,37.2857143 C40.0679448,37.2857143 37.2857143,40.0679448 37.2857143,43.5 C37.2857143,46.9320552 40.0679448,49.7142857 43.5,49.7142857 L43.5,49.7142857 Z" id="Combined-Shape" fill="#CBD4E5" opacity="0.8"></path>
            <path d="M43.5,64.2142857 C54.9401841,64.2142857 64.2142857,54.9401841 64.2142857,43.5 C64.2142857,32.0598159 54.9401841,22.7857143 43.5,22.7857143 C32.0598159,22.7857143 22.7857143,32.0598159 22.7857143,43.5 C22.7857143,54.9401841 32.0598159,64.2142857 43.5,64.2142857 L43.5,64.2142857 Z M43.5,55.9285714 C50.3641105,55.9285714 55.9285714,50.3641105 55.9285714,43.5 C55.9285714,36.6358895 50.3641105,31.0714286 43.5,31.0714286 C36.6358895,31.0714286 31.0714286,36.6358895 31.0714286,43.5 C31.0714286,50.3641105 36.6358895,55.9285714 43.5,55.9285714 L43.5,55.9285714 Z" id="Combined-Shape" fill="#B792AF" opacity="0.4"></path>
            <path d="M43.5,2.07142857 C39.195939,2.07142857 35.0378758,2.69651975 31.1116419,3.8608707 C31.1116419,3.86087066 41.499934,37.2857143 41.499934,37.4225289 C42.1537172,37.3323283 42.8214149,37.2857143 43.5,37.2857143 C44.2322026,37.2857143 44.9517294,37.3399856 45.6547774,37.444725 C45.6547773,37.3399863 56.0119784,3.86087066 56.0119784,3.89773223 C52.0494421,2.7097178 47.8492612,2.07142857 43.5,2.07142857 Z M43.5,84.9473782 C39.195939,84.9473782 35.0378758,84.3222871 31.1116419,83.1579361 C31.1116419,83.1579362 41.4791471,49.5800431 41.4791473,49.5933947 C42.1395624,49.685485 42.8142216,49.7330925 43.5,49.7330925 C44.217574,49.7330925 44.9229737,49.6809681 45.6126193,49.5800431 C46.3479458,49.4729618 56.0119784,83.1579362 56.0119784,83.1210746 C52.0494421,84.309089 47.8492612,84.9473782 43.5,84.9473782 Z" id="Combined-Shape" fill="#FFFFFF" opacity="0.25" transform="translate(43.5618, 43.5094) rotate(-30) translate(-43.5618, -43.5094)"></path>
        </g>
        <path d="M36.306,72.75 C34.986,72.75 33.954,73.194 33.234,74.106 C32.574,74.922 32.25,75.966 32.25,77.238 C32.25,78.51 32.562,79.542 33.21,80.334 C33.918,81.21 34.938,81.654 36.27,81.654 C37.182,81.654 37.974,81.39 38.634,80.874 C39.342,80.322 39.786,79.542 39.978,78.546 L39.03,78.546 C38.862,79.29 38.514,79.854 38.01,80.238 C37.53,80.598 36.954,80.778 36.27,80.778 C35.262,80.778 34.506,80.442 33.978,79.782 C33.474,79.158 33.234,78.306 33.234,77.238 C33.234,76.17 33.486,75.318 33.99,74.67 C34.53,73.974 35.298,73.626 36.294,73.626 C36.966,73.626 37.53,73.782 37.998,74.106 C38.478,74.442 38.79,74.922 38.91,75.546 L39.858,75.546 C39.738,74.694 39.354,74.01 38.706,73.506 C38.058,73.002 37.254,72.75 36.306,72.75 L36.306,72.75 Z M41.346,72.918 L41.346,81.486 L44.322,81.486 C45.666,81.486 46.698,81.09 47.418,80.31 C48.102,79.566 48.45,78.522 48.45,77.202 C48.45,75.858 48.126,74.814 47.49,74.094 C46.794,73.302 45.774,72.918 44.418,72.918 L41.346,72.918 Z M42.33,73.77 L44.262,73.77 C45.39,73.77 46.206,74.058 46.734,74.646 C47.226,75.198 47.478,76.05 47.478,77.202 C47.478,78.318 47.202,79.17 46.674,79.746 C46.11,80.334 45.27,80.634 44.154,80.634 L42.33,80.634 L42.33,73.77 Z M49.554,77.97 L49.554,78.786 L55.614,78.786 L55.614,77.97 L49.554,77.97 Z M57.078,72.918 L57.078,81.486 L58.062,81.486 L58.062,77.802 L60.654,77.802 C61.194,77.802 61.602,77.898 61.89,78.114 C62.202,78.33 62.382,78.702 62.43,79.206 L62.538,80.346 C62.574,80.826 62.694,81.198 62.886,81.486 L63.954,81.486 C63.702,81.174 63.546,80.754 63.498,80.226 L63.366,78.906 C63.27,78.042 62.814,77.526 61.998,77.346 L61.998,77.322 C62.49,77.202 62.874,76.962 63.162,76.578 C63.426,76.206 63.558,75.786 63.558,75.306 C63.558,74.514 63.294,73.914 62.79,73.506 C62.298,73.11 61.626,72.918 60.774,72.918 L57.078,72.918 Z M58.062,73.77 L60.654,73.77 C61.314,73.77 61.806,73.902 62.118,74.166 C62.406,74.418 62.562,74.814 62.562,75.342 C62.562,75.846 62.406,76.23 62.106,76.506 C61.77,76.794 61.278,76.95 60.654,76.95 L58.062,76.95 L58.062,73.77 Z" id="CD-R" fill="#8F859E"></path>
    </g>
</svg>