<?xml version="1.0" encoding="UTF-8"?>
<svg width="96px" height="96px" viewBox="0 0 96 96" version="1.1" xmlns="http://www.w3.org/2000/svg" xmlns:xlink="http://www.w3.org/1999/xlink">
    <title>devices/96/media-flash</title>
    <defs>
        <filter x="-10.0%" y="-5.8%" width="120.0%" height="116.3%" filterUnits="objectBoundingBox" id="filter-1">
            <feOffset dx="0" dy="2" in="SourceAlpha" result="shadowOffsetOuter1"></feOffset>
            <feGaussianBlur stdDeviation="2" in="shadowOffsetOuter1" result="shadowBlurOuter1"></feGaussianBlur>
            <feColorMatrix values="0 0 0 0 0   0 0 0 0 0   0 0 0 0 0  0 0 0 0.2 0" type="matrix" in="shadowBlurOuter1" result="shadowMatrixOuter1"></feColorMatrix>
            <feMerge>
                <feMergeNode in="shadowMatrixOuter1"></feMergeNode>
                <feMergeNode in="SourceGraphic"></feMergeNode>
            </feMerge>
        </filter>
        <linearGradient x1="50%" y1="0%" x2="50%" y2="98.7885346%" id="linearGradient-2">
            <stop stop-color="#898989" offset="0%"></stop>
            <stop stop-color="#5A5A5A" offset="100%"></stop>
        </linearGradient>
        <path d="M7.03124999,0 L50.7835641,8.8817842e-16 C51.8830369,6.86208541e-16 52.9379466,0.434564366 53.7183992,1.20898949 L70,17.3648477 L70,17.3648477 L70,23.6793376 L66.6385821,25.8019015 C65.6185472,26.4460015 65,27.5681248 65,28.7744979 L65,34.370402 C65,35.576775 65.6185472,36.6988984 66.6385821,37.3429983 L70,39.4655623 L70,39.4655623 L70,78.96875 C70,82.8520022 66.8520022,86 62.96875,86 L7.03124999,86 C3.14799785,86 1.36373965e-15,82.8520022 8.8817842e-16,78.96875 L-8.8817842e-16,7.03124999 C-1.36373965e-15,3.14799785 3.14799785,-1.95119341e-15 7.03124999,-2.66453526e-15 Z" id="path-3"></path>
        <filter x="-0.7%" y="-0.6%" width="101.4%" height="101.2%" filterUnits="objectBoundingBox" id="filter-4">
            <feOffset dx="0" dy="1" in="SourceAlpha" result="shadowOffsetInner1"></feOffset>
            <feComposite in="shadowOffsetInner1" in2="SourceAlpha" operator="arithmetic" k2="-1" k3="1" result="shadowInnerInner1"></feComposite>
            <feColorMatrix values="0 0 0 0 1   0 0 0 0 1   0 0 0 0 1  0 0 0 0.2 0" type="matrix" in="shadowInnerInner1"></feColorMatrix>
        </filter>
        <rect id="path-5" x="9" y="8" width="7" height="17" rx="1.5625"></rect>
        <filter x="-7.1%" y="-2.9%" width="114.3%" height="105.9%" filterUnits="objectBoundingBox" id="filter-6">
            <feOffset dx="0" dy="1" in="SourceAlpha" result="shadowOffsetInner1"></feOffset>
            <feComposite in="shadowOffsetInner1" in2="SourceAlpha" operator="arithmetic" k2="-1" k3="1" result="shadowInnerInner1"></feComposite>
            <feColorMatrix values="0 0 0 0 1   0 0 0 0 0.8216105   0 0 0 0 0.32578125  0 0 0 1 0" type="matrix" in="shadowInnerInner1"></feColorMatrix>
        </filter>
        <rect id="path-7" x="20" y="8" width="7" height="17" rx="1.5625"></rect>
        <filter x="-7.1%" y="-2.9%" width="114.3%" height="105.9%" filterUnits="objectBoundingBox" id="filter-8">
            <feOffset dx="0" dy="1" in="SourceAlpha" result="shadowOffsetInner1"></feOffset>
            <feComposite in="shadowOffsetInner1" in2="SourceAlpha" operator="arithmetic" k2="-1" k3="1" result="shadowInnerInner1"></feComposite>
            <feColorMatrix values="0 0 0 0 1   0 0 0 0 0.8216105   0 0 0 0 0.32578125  0 0 0 1 0" type="matrix" in="shadowInnerInner1"></feColorMatrix>
        </filter>
        <rect id="path-9" x="31" y="8" width="7" height="17" rx="1.5625"></rect>
        <filter x="-7.1%" y="-2.9%" width="114.3%" height="105.9%" filterUnits="objectBoundingBox" id="filter-10">
            <feOffset dx="0" dy="1" in="SourceAlpha" result="shadowOffsetInner1"></feOffset>
            <feComposite in="shadowOffsetInner1" in2="SourceAlpha" operator="arithmetic" k2="-1" k3="1" result="shadowInnerInner1"></feComposite>
            <feColorMatrix values="0 0 0 0 1   0 0 0 0 0.8216105   0 0 0 0 0.32578125  0 0 0 1 0" type="matrix" in="shadowInnerInner1"></feColorMatrix>
        </filter>
        <rect id="path-11" x="42" y="8" width="7" height="17" rx="1.5625"></rect>
        <filter x="-7.1%" y="-2.9%" width="114.3%" height="105.9%" filterUnits="objectBoundingBox" id="filter-12">
            <feOffset dx="0" dy="1" in="SourceAlpha" result="shadowOffsetInner1"></feOffset>
            <feComposite in="shadowOffsetInner1" in2="SourceAlpha" operator="arithmetic" k2="-1" k3="1" result="shadowInnerInner1"></feComposite>
            <feColorMatrix values="0 0 0 0 1   0 0 0 0 0.8216105   0 0 0 0 0.32578125  0 0 0 1 0" type="matrix" in="shadowInnerInner1"></feColorMatrix>
        </filter>
    </defs>
    <g id="devices/96/media-flash" stroke="none" stroke-width="1" fill="none" fill-rule="evenodd">
        <g id="编组" filter="url(#filter-1)" transform="translate(13, 5)">
            <g id="Rectangle-91">
                <use fill="url(#linearGradient-2)" fill-rule="evenodd" xlink:href="#path-3"></use>
                <use fill="black" fill-opacity="1" filter="url(#filter-4)" xlink:href="#path-3"></use>
            </g>
            <g id="Rectangle-95">
                <use fill="#F5B600" fill-rule="evenodd" xlink:href="#path-5"></use>
                <use fill="black" fill-opacity="1" filter="url(#filter-6)" xlink:href="#path-5"></use>
            </g>
            <g id="Rectangle-95">
                <use fill="#F5B600" fill-rule="evenodd" xlink:href="#path-7"></use>
                <use fill="black" fill-opacity="1" filter="url(#filter-8)" xlink:href="#path-7"></use>
            </g>
            <g id="Rectangle-95">
                <use fill="#F5B600" fill-rule="evenodd" xlink:href="#path-9"></use>
                <use fill="black" fill-opacity="1" filter="url(#filter-10)" xlink:href="#path-9"></use>
            </g>
            <g id="Rectangle-95">
                <use fill="#F5B600" fill-rule="evenodd" xlink:href="#path-11"></use>
                <use fill="black" fill-opacity="1" filter="url(#filter-12)" xlink:href="#path-11"></use>
            </g>
            <path d="M9,42 L58,42 L58,73.0937498 C58,75.2511122 56.2511122,77 54.0937498,77 L12.9062502,77 C10.7488878,77 9,75.2511122 9,73.0937498 L9,42 L9,42 Z" id="Rectangle-96" fill="#FFFFFF"></path>
            <path d="M12.9062502,32 L54.0937498,32 C56.2511122,32 58,33.7488878 58,35.9062502 L58,43 L58,43 L9,43 L9,35.9062502 C9,33.7488878 10.7488878,32 12.9062502,32 Z" id="Rectangle-96" fill="#8784F4"></path>
        </g>
        <path d="M36.012207,78.75 L36.012207,73.5 L37.4770508,73.5 C37.8839539,75.1927168 38.4942993,76.4895797 39.3081055,77.2138672 C40.1219116,77.9381547 41.0008091,78.300293 41.9448242,78.300293 C42.6446975,78.300293 43.2021464,78.0927755 43.6171875,77.6777344 C44.0322286,77.2626932 44.2397461,76.7744169 44.2397461,76.2128906 C44.2397461,75.8141256 44.1095391,75.4153666 43.8491211,75.0166016 C43.5887031,74.6178366 42.9702197,74.1743189 41.9936523,73.6860352 C40.1137601,72.7501581 38.8442416,72.0645367 38.1850586,71.6291504 C37.5258756,71.1937641 36.9969095,70.6342808 36.5981445,69.9506836 C36.1993795,69.2670864 36,68.4817753 36,67.5947266 C36,66.1705658 36.5106557,64.996668 37.5319824,64.0729981 C38.5533091,63.1493281 39.7353448,62.6875 41.078125,62.6875 C42.4860096,62.6875 43.6822867,63.1595005 44.6669922,64.1035156 C44.8297534,63.8593738 44.9640294,63.5045598 45.0698242,63 L47,63 L47,68 L45.1064453,68 C44.8623035,66.9176378 44.3984409,65.8898147 43.7148437,65.1899414 C43.0312466,64.4900681 42.2622113,64.1401367 41.4077148,64.1401367 C40.764808,64.1401367 40.2541523,64.3191714 39.8757324,64.6772461 C39.4973126,65.0353208 39.3081055,65.4829075 39.3081055,66.0200195 C39.3081055,66.4350607 39.4301746,66.8195783 39.6743164,67.173584 C39.9184582,67.5275897 40.2480448,67.8205555 40.6630859,68.0524902 C41.0781271,68.284425 41.9570245,68.7137013 43.2998047,69.340332 C44.5042378,69.9099963 45.3953422,70.4186176 45.9731445,70.8662109 C46.5509469,71.3138043 47.008706,71.8773566 47.3464355,72.5568848 C47.6841651,73.2364129 47.8530273,73.9708619 47.8530273,74.7602539 C47.8530273,76.225105 47.3118544,77.4437614 46.2294922,78.4162598 C45.14713,79.3887581 43.8572666,79.875 42.3598633,79.875 C41.5053668,79.875 40.6691935,79.6959653 39.8513184,79.3378906 C39.0334432,78.9798159 38.3803735,78.5037465 37.8920898,77.909668 C37.7049144,78.2758807 37.5665695,78.221026 37.4770508,78.75 L36.012207,78.75 Z M49.75,80 L49.75,78.6450195 C50.6207726,78.6450195 51.2879218,78.508709 51.5727539,78.236084 C51.8575861,77.9634589 52,77.4243204 52,76.6186523 L52,66.4423828 C52,65.6611289 51.865724,65.1280939 51.597168,64.8432617 C51.3286119,64.5584296 50.6533248,64.4160156 49.75,64.4160156 L49.75,63.0732422 L51.8291016,63 C53.8310647,62.9186194 55.401687,62.8779297 56.5410156,62.8779297 C58.445322,62.8779297 59.993565,62.9877919 61.185791,63.2075195 C62.378017,63.4272472 63.5051216,63.9094201 64.5671387,64.6540527 C65.6291557,65.3986854 66.4470186,66.3630312 67.0207519,67.5471191 C67.5944853,68.7312071 67.8813476,70.0353119 67.8813476,71.4594726 C67.8813476,72.9161857 67.5782094,74.5922794 66.9719238,75.7397461 C66.3656382,76.8872128 65.5498098,77.802731 64.524414,78.4863281 C63.4990183,79.1699253 62.4370172,79.5930981 61.3383789,79.7558594 C60.2397406,79.9186206 58.3924283,80 55.7963867,80 L49.75,80 Z M56,76.1303711 C56,76.8627966 56.0345862,77.355142 56.1037598,77.6074219 C56.1729333,77.8597018 56.3560369,78.0753572 56.6530762,78.2543945 C56.9501154,78.4334319 57.4078745,78.5229492 58.0263672,78.5229492 C59.5563228,78.5229492 61.163489,77.9614314 61.9243978,76.8383789 C62.6853065,75.7153264 63.0657552,73.6608185 63.0657552,71.4228516 C63.0657552,69.6162019 62.7849963,68.1778211 62.22347,67.107666 C61.6619438,66.0375109 60.9335982,65.3111998 60.0384114,64.9287109 C59.1432247,64.546222 57.4892653,64.3549805 56,64.3549805 L56,76.1303711 Z" id="SD" fill="#8784F4"></path>
        <g id="Guide-96" transform="translate(3, 3)"></g>
    </g>
</svg>