<?xml version="1.0" encoding="UTF-8"?>
<svg width="16px" height="16px" viewBox="0 0 16 16" version="1.1" xmlns="http://www.w3.org/2000/svg" xmlns:xlink="http://www.w3.org/1999/xlink">
    <title>devices/16/drive-harddisk-encrypted</title>
    <defs>
        <linearGradient x1="102.549264%" y1="57.6822305%" x2="-2.65228894%" y2="57.6822305%" id="linearGradient-1">
            <stop stop-color="#9B58FF" offset="0%"></stop>
            <stop stop-color="#891EFF" offset="4.57146722%"></stop>
            <stop stop-color="#A054FF" offset="11.7968023%"></stop>
            <stop stop-color="#A664FF" offset="85.0953982%"></stop>
            <stop stop-color="#8F36FB" offset="93.7925209%"></stop>
            <stop stop-color="#9B58FF" offset="100%"></stop>
        </linearGradient>
        <linearGradient x1="100%" y1="56.4295561%" x2="0%" y2="56.4295561%" id="linearGradient-2">
            <stop stop-color="#FFFFFF" stop-opacity="0.5" offset="0%"></stop>
            <stop stop-color="#FFFFFF" stop-opacity="0.9" offset="9.93588454%"></stop>
            <stop stop-color="#FFFFFF" stop-opacity="0.7" offset="50.6129695%"></stop>
            <stop stop-color="#FFFFFF" stop-opacity="0.9" offset="87.6484117%"></stop>
            <stop stop-color="#FFFFFF" stop-opacity="0.5" offset="100%"></stop>
        </linearGradient>
        <linearGradient x1="50%" y1="0%" x2="50%" y2="100%" id="linearGradient-3">
            <stop stop-color="#0174FF" offset="0%"></stop>
            <stop stop-color="#01C2FF" offset="50.8499801%"></stop>
            <stop stop-color="#0056FF" offset="100%"></stop>
        </linearGradient>
        <path d="M2.5,13 C2.77614237,13 3,12.7761424 3,12.5 C3,12.2238576 2.77614237,12 2.5,12 C2.22385763,12 2,12.2238576 2,12.5 C2,12.7761424 2.22385763,13 2.5,13 Z" id="path-4"></path>
        <filter x="-50.0%" y="-50.0%" width="200.0%" height="200.0%" filterUnits="objectBoundingBox" id="filter-5">
            <feOffset dx="-1" dy="-1" in="SourceAlpha" result="shadowOffsetInner1"></feOffset>
            <feComposite in="shadowOffsetInner1" in2="SourceAlpha" operator="arithmetic" k2="-1" k3="1" result="shadowInnerInner1"></feComposite>
            <feColorMatrix values="0 0 0 0 0.607506793   0 0 0 0 0   0 0 0 0 1  0 0 0 0.5 0" type="matrix" in="shadowInnerInner1"></feColorMatrix>
        </filter>
    </defs>
    <g id="devices/16/drive-harddisk-encrypted" stroke="none" stroke-width="1" fill="none" fill-rule="evenodd">
        <g id="编组-2" transform="translate(2, 1)">
            <path d="M1.39999998,0 L10.6,0 C11.3731987,-1.42034285e-16 12,0.62680134 12,1.39999998 L12,12.6 C12,13.3731987 11.3731987,14 10.6,14 L1.39999998,14 C0.62680134,14 9.46895235e-17,13.3731987 0,12.6 L0,1.39999998 C-9.46895235e-17,0.62680134 0.62680134,1.42034285e-16 1.39999998,0 Z" id="Rectangle-1" fill="url(#linearGradient-1)"></path>
            <path d="M1.375,11 L10.625,11 C11.3843915,11 12,11.6156085 12,12.375 L12,12.625 C12,13.3843915 11.3843915,14 10.625,14 L1.375,14 C0.615608469,14 9.29986408e-17,13.3843915 0,12.625 L0,12.375 C-9.29986408e-17,11.6156085 0.615608469,11 1.375,11 Z" id="Rectangle-1" fill="url(#linearGradient-2)"></path>
            <path d="M7.5,12 C7.77614237,12 8,12.2238576 8,12.5 C8,12.7761424 7.77614237,13 7.5,13 C7.22385763,13 7,12.7761424 7,12.5 C7,12.2238576 7.22385763,12 7.5,12 Z M9.5,12 C9.77614237,12 10,12.2238576 10,12.5 C10,12.7761424 9.77614237,13 9.5,13 C9.22385763,13 9,12.7761424 9,12.5 C9,12.2238576 9.22385763,12 9.5,12 Z" id="Combined-Shape" fill="url(#linearGradient-3)"></path>
            <g id="Oval">
                <use fill="#F076FF" fill-rule="evenodd" xlink:href="#path-4"></use>
                <use fill="black" fill-opacity="1" filter="url(#filter-5)" xlink:href="#path-4"></use>
            </g>
        </g>
        <g id="编组" transform="translate(4.3716, 3.0383)" fill="#FFFFFF" fill-rule="nonzero">
            <path d="M3.62839807,0 C5.63230698,0 7.25679614,1.62448916 7.25679614,3.62839807 C7.25679614,5.63230698 5.63230698,7.25679614 3.62839807,7.25679614 C1.62448916,7.25679614 0,5.63230698 0,3.62839807 C0,1.62448916 1.62448916,0 3.62839807,0 Z M2.29506474,2.29506474 L2.29506474,2.9617314 L2.29506474,2.9617314 L1.87839807,2.9617314 C1.74032688,2.9617314 1.62839807,3.07366022 1.62839807,3.2117314 L1.62839807,5.7117314 C1.62839807,5.84980259 1.74032688,5.9617314 1.87839807,5.9617314 L5.37839807,5.9617314 C5.51646926,5.9617314 5.62839807,5.84980259 5.62839807,5.7117314 L5.62839807,3.2117314 C5.62839807,3.07366022 5.51646926,2.9617314 5.37839807,2.9617314 L4.9617314,2.9617314 L4.9617314,2.9617314 L4.9617314,2.29506474 C4.9617314,1.55868507 4.36477774,0.961731403 3.62839807,0.961731403 C2.8920184,0.961731403 2.29506474,1.55868507 2.29506474,2.29506474 Z M4.29506474,2.29506474 L4.29506474,2.9617314 L4.29506474,2.9617314 L2.9617314,2.9617314 L2.9617314,2.29506474 C2.9617314,1.9268749 3.26020824,1.62839807 3.62839807,1.62839807 C3.9965879,1.62839807 4.29506474,1.9268749 4.29506474,2.29506474 Z" id="形状"></path>
        </g>
    </g>
</svg>