<?xml version="1.0" encoding="UTF-8"?>
<svg width="16px" height="16px" viewBox="0 0 16 16" version="1.1" xmlns="http://www.w3.org/2000/svg" xmlns:xlink="http://www.w3.org/1999/xlink">
    <title>devices/16/media-cdrw</title>
    <defs>
        <linearGradient x1="28.8395889%" y1="5.6059543%" x2="73.7075197%" y2="93.9492692%" id="linearGradient-1">
            <stop stop-color="#5CD4FB" offset="0%"></stop>
            <stop stop-color="#FFADF1" offset="47.7870472%"></stop>
            <stop stop-color="#7DF8FF" offset="100%"></stop>
        </linearGradient>
    </defs>
    <g id="devices/16/media-cdrw" stroke="none" stroke-width="1" fill="none" fill-rule="evenodd">
        <g id="编组" transform="translate(0.5, 0.5)">
            <path d="M7.5,0 C11.6421356,0 15,3.35786438 15,7.5 C15,11.6421356 11.6421356,15 7.5,15 C3.35786438,15 0,11.6421356 0,7.5 C0,3.35786438 3.35786438,0 7.5,0 Z M7.5,4.5 C5.84314575,4.5 4.5,5.84314575 4.5,7.5 C4.5,9.15685425 5.84314575,10.5 7.5,10.5 C9.15685425,10.5 10.5,9.15685425 10.5,7.5 C10.5,5.84314575 9.15685425,4.5 7.5,4.5 Z" id="Combined-Shape" fill="url(#linearGradient-1)"></path>
            <path d="M14.375,7.5 C14.375,3.70304235 11.2969577,0.625 7.5,0.625 C3.70304235,0.625 0.625,3.70304235 0.625,7.5 C0.625,11.2969577 3.70304235,14.375 7.5,14.375 C11.2969577,14.375 14.375,11.2969577 14.375,7.5 Z M7.5,11.3194444 C9.60942092,11.3194444 11.3194444,9.60942092 11.3194444,7.5 C11.3194444,5.39057908 9.60942092,3.68055556 7.5,3.68055556 C5.39057908,3.68055556 3.68055556,5.39057908 3.68055556,7.5 C3.68055556,9.60942092 5.39057908,11.3194444 7.5,11.3194444 L7.5,11.3194444 Z" id="Combined-Shape" fill="#FFFFFF" opacity="0.39738806"></path>
            <path d="M7.5,10.5555556 C9.18753674,10.5555556 10.5555556,9.18753674 10.5555556,7.5 C10.5555556,5.81246326 9.18753674,4.44444444 7.5,4.44444444 C5.81246326,4.44444444 4.44444444,5.81246326 4.44444444,7.5 C4.44444444,9.18753674 5.81246326,10.5555556 7.5,10.5555556 L7.5,10.5555556 Z M7.5,9.02777778 C8.34376837,9.02777778 9.02777778,8.34376837 9.02777778,7.5 C9.02777778,6.65623163 8.34376837,5.97222222 7.5,5.97222222 C6.65623163,5.97222222 5.97222222,6.65623163 5.97222222,7.5 C5.97222222,8.34376837 6.65623163,9.02777778 7.5,9.02777778 L7.5,9.02777778 Z" id="Combined-Shape" fill="#CBD4E5" opacity="0.8"></path>
            <path d="M7.5,11.3194444 C9.60942092,11.3194444 11.3194444,9.60942092 11.3194444,7.5 C11.3194444,5.39057908 9.60942092,3.68055556 7.5,3.68055556 C5.39057908,3.68055556 3.68055556,5.39057908 3.68055556,7.5 C3.68055556,9.60942092 5.39057908,11.3194444 7.5,11.3194444 L7.5,11.3194444 Z M7.5,10.1736111 C8.97659464,10.1736111 10.1736111,8.97659464 10.1736111,7.5 C10.1736111,6.02340536 8.97659464,4.82638889 7.5,4.82638889 C6.02340536,4.82638889 4.82638889,6.02340536 4.82638889,7.5 C4.82638889,8.97659464 6.02340536,10.1736111 7.5,10.1736111 L7.5,10.1736111 Z" id="Combined-Shape" fill="#B792AF" opacity="0.4"></path>
            <path d="M7.78199053,8.96990632 C8.07195647,10.2445285 9.11035154,14.801948 9.11035154,14.801948 C9.82620634,14.630246 10.5296832,14.3537116 11.1997064,13.966695 C11.8767659,13.5756139 12.47325,13.0985282 12.9833333,12.5571947 C12.9861894,12.5621471 9.61423031,9.30557934 8.62047377,8.46394631 C8.51087844,8.59596155 8.37645683,8.7111358 8.21922055,8.80195813 C8.07936817,8.88273923 7.93186398,8.93824992 7.78199053,8.96990632 Z M6.36916779,6.51219821 C5.40853968,5.61791559 1.98333343,2.45188992 1.98333343,2.45188992 C2.48989044,1.91750616 3.08100414,1.44626314 3.75102727,1.05924647 C4.42808682,0.668165438 5.13930649,0.389899411 5.86293938,0.218614618 C5.86008467,0.213671849 6.89668024,4.77578945 7.18955545,6.04853544 C7.03195187,6.07927348 6.87666919,6.13623329 6.72982279,6.22105424 C6.59148884,6.30095827 6.47081389,6.39971116 6.36916779,6.51219821 L6.36916779,6.51219821 Z" id="Combined-Shape" fill="#FFFFFF" opacity="0.25"></path>
        </g>
        <path d="M5.051,12.125 C4.831,12.125 4.659,12.199 4.539,12.351 C4.429,12.487 4.375,12.661 4.375,12.873 C4.375,13.085 4.427,13.257 4.535,13.389 C4.653,13.535 4.823,13.609 5.045,13.609 C5.197,13.609 5.329,13.565 5.439,13.479 C5.557,13.387 5.631,13.257 5.663,13.091 L5.505,13.091 C5.477,13.215 5.419,13.309 5.335,13.373 C5.255,13.433 5.159,13.463 5.045,13.463 C4.877,13.463 4.751,13.407 4.663,13.297 C4.579,13.193 4.539,13.051 4.539,12.873 C4.539,12.695 4.581,12.553 4.665,12.445 C4.755,12.329 4.883,12.271 5.049,12.271 C5.161,12.271 5.255,12.297 5.333,12.351 C5.413,12.407 5.465,12.487 5.485,12.591 L5.643,12.591 C5.623,12.449 5.559,12.335 5.451,12.251 C5.343,12.167 5.209,12.125 5.051,12.125 L5.051,12.125 Z M5.891,12.153 L5.891,13.581 L6.387,13.581 C6.611,13.581 6.783,13.515 6.903,13.385 C7.017,13.261 7.075,13.087 7.075,12.867 C7.075,12.643 7.021,12.469 6.915,12.349 C6.799,12.217 6.629,12.153 6.403,12.153 L5.891,12.153 Z M6.055,12.295 L6.377,12.295 C6.565,12.295 6.701,12.343 6.789,12.441 C6.871,12.533 6.913,12.675 6.913,12.867 C6.913,13.053 6.867,13.195 6.779,13.291 C6.685,13.389 6.545,13.439 6.359,13.439 L6.055,13.439 L6.055,12.295 Z M7.259,12.995 L7.259,13.131 L8.269,13.131 L8.269,12.995 L7.259,12.995 Z M8.513,12.153 L8.513,13.581 L8.677,13.581 L8.677,12.967 L9.109,12.967 C9.199,12.967 9.267,12.983 9.315,13.019 C9.367,13.055 9.397,13.117 9.405,13.201 L9.423,13.391 C9.429,13.471 9.449,13.533 9.481,13.581 L9.659,13.581 C9.617,13.529 9.591,13.459 9.583,13.371 L9.561,13.151 C9.545,13.007 9.469,12.921 9.333,12.891 L9.333,12.887 C9.415,12.867 9.479,12.827 9.527,12.763 C9.571,12.701 9.593,12.631 9.593,12.551 C9.593,12.419 9.549,12.319 9.465,12.251 C9.383,12.185 9.271,12.153 9.129,12.153 L8.513,12.153 Z M8.677,12.295 L9.109,12.295 C9.219,12.295 9.301,12.317 9.353,12.361 C9.401,12.403 9.427,12.469 9.427,12.557 C9.427,12.641 9.401,12.705 9.351,12.751 C9.295,12.799 9.213,12.825 9.109,12.825 L8.677,12.825 L8.677,12.295 Z M9.731,12.153 L10.141,13.581 L10.323,13.581 L10.649,12.391 L10.655,12.391 L10.979,13.581 L11.161,13.581 L11.571,12.153 L11.387,12.153 L11.073,13.351 L11.065,13.351 L10.741,12.153 L10.563,12.153 L10.237,13.351 L10.229,13.351 L9.915,12.153 L9.731,12.153 Z" id="CD-RW" fill="#8F859E"></path>
    </g>
</svg>