<?xml version="1.0" encoding="UTF-8"?>
<svg width="16px" height="16px" viewBox="0 0 16 16" version="1.1" xmlns="http://www.w3.org/2000/svg" xmlns:xlink="http://www.w3.org/1999/xlink">
    <title>devices/16/media-optical-symbolic</title>
    <g id="devices/16/media-optical-symbolic" stroke="none" stroke-width="1" fill="none" fill-rule="evenodd">
        <path d="M8,1 C11.8659932,1 15,4.13400675 15,8 C15,11.8659932 11.8659932,15 8,15 C4.13400675,15 1,11.8659932 1,8 C1,4.13400675 4.13400675,1 8,1 Z M8,2 C4.6862915,2 2,4.6862915 2,8 C2,11.3137085 4.68629152,14 8,14 C11.3137085,14 14,11.3137085 14,8 C14,4.68629152 11.3137085,2 8,2 Z M8,5 C9.65685425,5 11,6.34314575 11,8 C11,9.65685425 9.65685425,11 8,11 C6.34314575,11 5,9.65685425 5,8 C5,6.34314575 6.34314575,5 8,5 Z M8,7 C7.44771525,7 7,7.44771525 7,8 C7,8.55228475 7.44771525,9 8,9 C8.55228475,9 9,8.55228475 9,8 C9,7.44771525 8.55228475,7 8,7 Z M8,3 C8.27614237,3 8.5,3.22385763 8.5,3.5 C8.5,3.77614237 8.27614237,4 8,4 C5.790861,4 4,5.790861 4,8 C4,8.27614237 3.77614237,8.5 3.5,8.5 C3.22385763,8.5 3,8.27614237 3,8 C3,5.23857625 5.23857625,3 8,3 Z" id="形状结合" fill="#000000" fill-rule="nonzero"></path>
    </g>
</svg>