<?xml version="1.0" encoding="UTF-8"?>
<svg width="16px" height="16px" viewBox="0 0 16 16" version="1.1" xmlns="http://www.w3.org/2000/svg" xmlns:xlink="http://www.w3.org/1999/xlink">
    <title>devices/16/network-server-symbolic</title>
    <g id="devices/16/network-server-symbolic" stroke="none" stroke-width="1" fill="none" fill-rule="evenodd">
        <path d="M8,1 C11.8659932,1 15,4.13400675 15,8 C15,11.8659932 11.8659932,15 8,15 C4.13400675,15 1,11.8659932 1,8 C1,4.13400675 4.13400675,1 8,1 Z M10.8986457,10.6146028 C8.89912709,11.6926315 7.84712011,12.475903 6.75183176,13.8685947 C7.1548059,13.9552226 7.57217379,14 8,14 C9.09036237,14 10.1127935,13.7091519 10.9939436,13.2008056 L10.9745433,13.5348625 C11.0490131,12.4194207 11.0268685,11.4538591 10.8986457,10.6146028 Z M4.68748194,7.93578539 C4.06409501,8.91238635 3.52843141,10.0572477 3.06126751,11.4054432 C3.71920275,12.3600285 4.64603762,13.112823 5.73197177,13.5565303 L5.62157042,13.7046298 C6.88310144,11.9815703 7.98702558,11.0790836 10.0800392,9.9221578 C7.90150449,9.69847135 6.13753512,9.04464361 4.68748194,7.93578539 Z M13.6814555,9.93407644 L13.2603808,9.96490534 C12.7575852,9.99559042 12.2724148,10.0102193 11.8041101,10.00861 C11.8149354,10.0511483 11.8235412,10.0953929 11.8319365,10.1398012 C11.9638021,10.8373259 12.0231171,11.6047895 12.0166324,12.4560419 C12.7681956,11.7798105 13.3480007,10.9139072 13.6814555,9.93407644 Z M2.50053693,5.59953963 L2.47150974,5.66452923 C2.16789322,6.38235931 2,7.17157288 2,8 C2,8.78886954 2.15224215,9.54218102 2.42894835,10.2321563 C2.86712196,9.11414939 3.36121913,8.13714713 3.92135182,7.27868752 C3.40564035,6.78792065 2.93405742,6.22853974 2.50053693,5.59953963 Z M11.488809,3.11801627 L11.6568847,3.06788392 C10.5818685,3.38208835 9.615953,3.7541058 8.74552629,4.20921773 C10.1190773,5.68205317 11.0401983,7.21392834 11.561845,9.00684098 C12.2988864,9.01937156 13.0868277,8.9871172 13.9285592,8.91177557 C13.9765487,8.61375102 14,8.30961418 14,8 C14,5.9875326 13.0092086,4.20647694 11.488809,3.11801627 Z M7.85663497,4.72627329 L7.80945875,4.75526865 C6.83461684,5.38899415 5.99368102,6.15978425 5.26211391,7.11321285 C6.64067591,8.18046296 8.3404751,8.78540687 10.4972089,8.95815111 C9.98750373,7.40238176 9.12549251,6.04942568 7.85663497,4.72627329 Z M5.43158218,2.57803447 L5.28025825,2.65038556 C4.38227875,3.10782787 3.61480128,3.78472234 3.0484861,4.61040872 L2.92667137,4.41574596 C3.39905826,5.19850272 3.92179391,5.87746381 4.5085367,6.45549648 C5.26505249,5.47697166 6.13105408,4.67480836 7.12444242,4.00912057 C6.61595381,3.53469566 6.05212635,3.06044431 5.43158218,2.57803447 Z M8,2 C7.49505394,2 7.00467648,2.06237557 6.53615248,2.17984183 C7.07139001,2.6112494 7.56225827,3.03942074 8.01293659,3.46974932 C8.71450101,3.08071596 9.47384256,2.74646436 10.296073,2.4555706 C9.59008962,2.16208579 8.81397339,2 8,2 Z" id="形状结合" fill="#000000" fill-rule="nonzero"></path>
    </g>
</svg>