<svg xmlns="http://www.w3.org/2000/svg" width="16" height="16" viewBox="0 0 16 16">
 <defs>
  <style id="current-color-scheme" type="text/css">
   .ColorScheme-Text { color:rgba(0, 0, 0, 0.7); } .ColorScheme-Highlight { color:#ffffff; }
  </style>
 </defs>
 <path style="fill:currentColor" class="ColorScheme-Text" d="M12,1 C13.1045695,1 14,1.8954305 14,3 L14,13 C14,14.0543618 13.1841222,14.9181651 12.1492623,14.9945143 L12,15 L4,15 C2.8954305,15 2,14.1045695 2,13 L2,3 C2,1.8954305 2.8954305,1 4,1 L12,1 Z M12,12 L4,12 C3.44771525,12 3,12.4477153 3,13 C3,13.5522847 3.44771525,14 4,14 L12,14 C12.5522847,14 13,13.5522847 13,13 C13,12.4477153 12.5522847,12 12,12 Z M11.5,12.5 C11.7761424,12.5 12,12.7238576 12,13 C12,13.2761424 11.7761424,13.5 11.5,13.5 C11.2238576,13.5 11,13.2761424 11,13 C11,12.7238576 11.2238576,12.5 11.5,12.5 Z M12,2 L4,2 C3.44771525,2 2.99992752,2.44771525 2.99992752,3 L2.99992752,11.2676063 C3.29411727,11.0974103 3.63568294,11 4,11 L12,11 C12.364732,11 12.7066608,11.0976323 13.0010775,11.2681881 L13,3 C13,2.44771525 12.5522848,2 12,2 Z M8,3 C9.10577872,3 10.0021895,3.89641076 10.0021895,5.00218948 C10.0021895,5.51614991 9.80853392,5.98487966 9.49020994,6.33939158 C10.2249562,6.68857773 10.8169324,7.29069684 11.1546424,8.03295553 C11.1806913,8.09020902 11.2068312,8.15726197 11.2330619,8.23411438 L11.2722383,8.35681525 C11.352931,8.62090484 11.2042584,8.90040606 10.9401688,8.98109871 C10.8924547,8.99567778 10.8428272,9.00303334 10.7929355,9.00292095 L5.20706447,9.0029179 C4.93092449,9.00406642 4.70613774,8.78114179 4.70498922,8.5050018 C4.70478424,8.45571924 4.71186655,8.40667713 4.72600644,8.35946615 C4.76567181,8.230183 4.80466711,8.12270119 4.84344921,8.03715756 C5.18080569,7.29303343 5.77355528,6.68934324 6.5098308,6.33795416 C6.19146608,5.98487966 5.99781052,5.51614991 5.99781052,5.00218948 C5.99781052,3.89641076 6.89422128,3 8,3 Z" id="形状结合" fill="#000000" fill-rule="nonzero"/>
</svg>