<svg xmlns="http://www.w3.org/2000/svg" width="22" height="22" viewBox="0 0 22 22">
  <defs>
    <linearGradient id="drive-harddisk-usb-a" x1="102.549%" x2="-2.652%" y1="57.682%" y2="57.682%">
      <stop offset="0%" stop-color="#00285D"/>
      <stop offset="4.571%" stop-color="#17A167"/>
      <stop offset="9.931%" stop-color="#138D6D"/>
      <stop offset="88.945%" stop-color="#0B673E"/>
      <stop offset="93.793%" stop-color="#187951"/>
      <stop offset="100%" stop-color="#002472"/>
    </linearGradient>
    <linearGradient id="drive-harddisk-usb-b" x1="100%" x2="0%" y1="56.43%" y2="56.43%">
      <stop offset="0%" stop-color="#FFF" stop-opacity=".29"/>
      <stop offset="8.389%" stop-color="#CDCDCD" stop-opacity=".94"/>
      <stop offset="52.356%" stop-color="#FFF" stop-opacity=".55"/>
      <stop offset="88.168%" stop-color="#CDCDCD" stop-opacity=".94"/>
      <stop offset="100%" stop-color="#FFF" stop-opacity=".29"/>
    </linearGradient>
    <radialGradient id="drive-harddisk-usb-c" cx="48.239%" cy="19.103%" r="78.654%" fx="48.239%" fy="19.103%" gradientTransform="matrix(0 1 -.7673 0 .629 -.291)">
      <stop offset="0%" stop-color="#47A9E0"/>
      <stop offset="100%" stop-color="#967B99"/>
    </radialGradient>
    <linearGradient id="drive-harddisk-usb-d" x1="50%" x2="50%" y1="0%" y2="100%">
      <stop offset="0%" stop-color="#0A2CBC"/>
      <stop offset="50.85%" stop-color="#116CB9"/>
      <stop offset="100%" stop-color="#0904C1"/>
    </linearGradient>
    <radialGradient id="drive-harddisk-usb-e" cx="50%" cy="37.643%" r="62.357%" fx="50%" fy="37.643%">
      <stop offset="0%" stop-color="#8ED63F"/>
      <stop offset="100%" stop-color="#28AC00"/>
    </radialGradient>
  </defs>
  <g fill="none" fill-rule="evenodd">
    <path fill="url(#drive-harddisk-usb-a)" d="M4,3.99406028 C4,2.8927712 4.89706016,2 6.00585873,2 L15.9941417,2 C17.1019469,2 18.0000004,2.89451376 18.0000004,3.99406028 L18,18 L4,18 L4,3.99406028 Z"/>
    <path fill="url(#drive-harddisk-usb-b)" stroke="#FFF" stroke-opacity=".2" d="M4.5,18.5 L9.33538177,18.5 C9.83352673,18.5 9.83352673,18.5 10.3312805,18.5 L17.5,18.5 L17.5,16.0093689 C17.5,15.7228286 17.2764192,15.5 16.9931545,15.5 L5.00684547,15.5 C4.72672285,15.5 4.5,15.7274208 4.5,16.0093689 L4.5,18.5 Z"/>
    <path fill="url(#drive-harddisk-usb-c)" stroke="#003D9C" stroke-opacity=".2" d="M4.5,18.5 C4.5,19.0558985 4.94476496,19.5000001 5.49824524,19.5000001 L16.5017548,19.5000001 C17.0502485,19.5000001 17.5,19.0506461 17.5,18.5000001 C17.5,17.9441016 17.055235,17.5000001 16.5017548,17.5000001 L5.49824524,17.5 C4.94975153,17.5 4.5,17.9493539 4.5,18.5 Z"/>
    <path fill="url(#drive-harddisk-usb-d)" d="M17,18 L17,19 L16,19 L16,18 L17,18 Z M15,18 L15,19 L14,19 L14,18 L15,18 Z M13,18 L13,19 L12,19 L12,18 L13,18 Z M11,18 L11,19 L10,19 L10,18 L11,18 Z"/>
    <path fill="url(#drive-harddisk-usb-e)" d="M5.5,19 C5.77614237,19 6,18.7761424 6,18.5 C6,18.2238576 5.77614237,18 5.5,18 C5.22385763,18 5,18.2238576 5,18.5 C5,18.7761424 5.22385763,19 5.5,19 Z"/>
    <path fill="#FFF" fill-opacity=".6" d="M4.20027028,10.0833268 C4.55330698,10.2376998 4.80000019,10.5900407 4.80000019,11 C4.80000019,11.5522847 4.35228494,12 3.80000019,12 C3.24771544,12 2.80000019,11.5522847 2.80000019,11 C2.80000019,10.5525471 3.0938805,10.1737336 3.49915428,10.0460463 L3.49900019,9.378 L1.96800038,8.33733333 C1.96800038,8.33733333 1.60000038,8.12066667 1.60000038,7.53533333 L1.60118248,6.98023562 C1.1441455,6.88803895 0.800000191,6.4842092 0.800000191,6 C0.800000191,5.44771525 1.24771544,5 1.80000019,5 C2.35228494,5 2.80000019,5.44771525 2.80000019,6 C2.80000019,6.47192586 2.47309386,6.86749865 2.0333783,6.97262127 L2.03333371,7.5 C2.03333371,7.76133333 2.06400038,7.864 2.27533371,8.06133333 L3.49900019,8.859 L3.49900019,3 L2.30000019,3 L3.80000019,0.5 L5.30000019,3 L4.19900019,3 L4.19900019,7.862 L5.328,7.07266667 C5.51291667,6.8965 5.55951042,6.79434375 5.56826953,6.59291146 L5.57,6.5 L5.56900019,6 L4.80000019,6 L4.80000019,4 L6.80000019,4 L6.80000019,6 L6.00200019,6 L6.00333333,6.53533333 C6.00333333,7.0835 5.69411111,7.31460185 5.64257407,7.34931211 L5.63533333,7.354 L4.19900019,8.394 Z" transform="translate(7.2 2)"/>
  </g>
</svg>
