<?xml version="1.0" encoding="UTF-8"?>
<svg width="16px" height="16px" viewBox="0 0 16 16" version="1.1" xmlns="http://www.w3.org/2000/svg" xmlns:xlink="http://www.w3.org/1999/xlink">
    <!-- Generator: Sketch 42 (36781) - http://www.bohemiancoding.com/sketch -->
    <title>深度商店-16px</title>
    <desc>Created with Sketch.</desc>
    <defs></defs>
    <g id="Page-1" stroke="none" stroke-width="1" fill="none" fill-rule="evenodd">
        <g id="深度商店-16px">
            <rect id="Rectangle-124" fill="#EFEFEF" x="2" y="3" width="12" height="3.33333333"></rect>
            <rect id="Rectangle-124" fill="#FFA737" x="2" y="5.99999968" width="12" height="9"></rect>
            <path d="M13,6 L13,15 L11,15 L11,6 L13,6 Z M9,6 L9,15 L7,15 L7,6 L9,6 Z M5,6 L5,15 L3,15 L3,6 L5,6 Z" id="Combined-Shape" fill="#FF7300"></path>
            <path d="M4.5,5 C4.77614237,5 5,4.77614237 5,4.5 C5,4.22385763 4.77614237,4 4.5,4 C4.22385763,4 4,4.22385763 4,4.5 C4,4.77614237 4.22385763,5 4.5,5 L4.5,5 Z M11.5,5 C11.7761424,5 12,4.77614237 12,4.5 C12,4.22385763 11.7761424,4 11.5,4 C11.2238576,4 11,4.22385763 11,4.5 C11,4.77614237 11.2238576,5 11.5,5 L11.5,5 Z" id="Combined-Shape" fill="#785C46"></path>
            <path d="M11.5,8.5 C11.5,6.290861 10.5,4.5999999 8,4.5999999 C5.5,4.5999999 4.5,6.290861 4.5,8.5" id="Oval-27" stroke="#FFFFFF" stroke-width="0.6" stroke-linecap="round" stroke-linejoin="round" transform="translate(8.000000, 6.550000) scale(1, -1) translate(-8.000000, -6.550000) "></path>
        </g>
    </g>
</svg>