<svg xmlns="http://www.w3.org/2000/svg" xmlns:xlink="http://www.w3.org/1999/xlink" width="32" height="32" viewBox="0 0 32 32">
  <defs>
    <linearGradient id="application-x-dgn-c" x1="50%" x2="50%" y1="0%" y2="100%">
      <stop offset="0%" stop-color="#079473"/>
      <stop offset="100%" stop-color="#005F56"/>
    </linearGradient>
    <path id="application-x-dgn-b" d="M22,22 C22,24.209139 20.209139,26 18,26 L4,26 C1.790861,26 2.705415e-16,24.209139 0,22 L0,4 C-2.705415e-16,1.790861 1.790861,4.05812251e-16 4,0 L15,0 L22,7 L22,22 Z"/>
    <filter id="application-x-dgn-a" width="131.8%" height="126.9%" x="-15.9%" y="-9.6%" filterUnits="objectBoundingBox">
      <feOffset dy="1" in="SourceAlpha" result="shadowOffsetOuter1"/>
      <feGaussianBlur in="shadowOffsetOuter1" result="shadowBlurOuter1" stdDeviation="1"/>
      <feColorMatrix in="shadowBlurOuter1" values="0 0 0 0 0.150370695   0 0 0 0 0.486016757   0 0 0 0 0.407212899  0 0 0 0.2 0"/>
    </filter>
    <linearGradient id="application-x-dgn-f" x1="50%" x2="10.489%" y1="50%" y2="91.194%">
      <stop offset="0%" stop-color="#FFF" stop-opacity=".1"/>
      <stop offset="100%" stop-color="#FFF" stop-opacity=".3"/>
    </linearGradient>
    <path id="application-x-dgn-e" d="M15,0 L22,7 L17.25,7 C16.0073593,7 15,5.99264069 15,4.75 L15,0 L15,0 Z"/>
    <filter id="application-x-dgn-d" width="200%" height="200%" x="-50%" y="-35.7%" filterUnits="objectBoundingBox">
      <feOffset dy="1" in="SourceAlpha" result="shadowOffsetOuter1"/>
      <feGaussianBlur in="shadowOffsetOuter1" result="shadowBlurOuter1" stdDeviation="1"/>
      <feComposite in="shadowBlurOuter1" in2="SourceAlpha" operator="out" result="shadowBlurOuter1"/>
      <feColorMatrix in="shadowBlurOuter1" values="0 0 0 0 0   0 0 0 0 0   0 0 0 0 0  0 0 0 0.05 0"/>
    </filter>
  </defs>
  <g fill="none" fill-rule="evenodd">
    <g transform="translate(5 3)">
      <use fill="#000" filter="url(#application-x-dgn-a)" xlink:href="#application-x-dgn-b"/>
      <use fill="url(#application-x-dgn-c)" xlink:href="#application-x-dgn-b"/>
      <use fill="#000" filter="url(#application-x-dgn-d)" xlink:href="#application-x-dgn-e"/>
      <use fill="url(#application-x-dgn-f)" xlink:href="#application-x-dgn-e"/>
    </g>
    <path fill="#FFF" fill-opacity=".6" d="M13,17 L11,17 L11,19 L9,19 L9,20 L11,20 L11,22 L13,22 L13,23.3333333 L14,23.3333333 L14,22 L16,22 L16,20 L23,20 L23,19 L16,19 L16,17 L14,17 L14,10 L13,10 L13,17 Z M12,18 L15,18 L15,21 L12,21 L12,18 Z"/>
  </g>
</svg>
