<svg xmlns="http://www.w3.org/2000/svg" xmlns:xlink="http://www.w3.org/1999/xlink" width="32" height="32" viewBox="0 0 32 32">
  <defs>
    <path id="application-x-jar-b" d="M12,5.75 C12,5.33578644 12.3357864,5 12.75,5 L19.25,5 C19.6642136,5 20,5.33578644 20,5.75 L20,3.75 C20,3.33578644 20.3357864,3 20.75,3 L26.25,3 C26.6642136,3 27,3.33578644 27,3.75 L27,28.25 C27,28.6642136 26.6642136,29 26.25,29 L20.75,29 C20.3357864,29 20,28.6642136 20,28.25 C20,28.6642136 19.6642136,29 19.25,29 L12.75,29 C12.3357864,29 12,28.6642136 12,28.25 C12,28.6642136 11.6642136,29 11.25,29 L5.75,29 C5.33578644,29 5,28.6642136 5,28.25 L5,4.75 C5,4.33578644 5.33578644,4 5.75,4 L11.25,4 C11.6642136,4 12,4.33578644 12,4.75 L12,5.75 Z"/>
    <filter id="application-x-jar-a" width="118.2%" height="115.4%" x="-9.1%" y="-3.8%" filterUnits="objectBoundingBox">
      <feOffset dy="1" in="SourceAlpha" result="shadowOffsetOuter1"/>
      <feGaussianBlur in="shadowOffsetOuter1" result="shadowBlurOuter1" stdDeviation=".5"/>
      <feComposite in="shadowBlurOuter1" in2="SourceAlpha" operator="out" result="shadowBlurOuter1"/>
      <feColorMatrix in="shadowBlurOuter1" values="0 0 0 0 0   0 0 0 0 0   0 0 0 0 0  0 0 0 0.15 0"/>
    </filter>
    <linearGradient id="application-x-jar-c" x1="98.475%" x2="1.525%" y1="48.475%" y2="48.475%">
      <stop offset="0%" stop-color="#780094"/>
      <stop offset="100%" stop-color="#670074"/>
    </linearGradient>
    <linearGradient id="application-x-jar-d" x1="99.455%" x2="3.998%" y1="50.545%" y2="50.545%">
      <stop offset="0%" stop-color="#1C44A8"/>
      <stop offset="100%" stop-color="#023BA8"/>
    </linearGradient>
    <linearGradient id="application-x-jar-e" x1="100%" x2="6.531%" y1="50%" y2="50%">
      <stop offset="0%" stop-color="#286D00"/>
      <stop offset="100%" stop-color="#457000"/>
    </linearGradient>
  </defs>
  <g fill="none" fill-rule="evenodd">
    <use fill="#000" filter="url(#application-x-jar-a)" xlink:href="#application-x-jar-b"/>
    <use fill="#000" fill-opacity=".1" xlink:href="#application-x-jar-b"/>
    <path fill="url(#application-x-jar-c)" d="M27,3.75 L27,28.25 C27,28.6642136 26.6642136,29 26.25,29 L20.75,29 C20.3357864,29 20,28.6642136 20,28.25 L20,3.75 C20,3.33578644 20.3357864,3 20.75,3 L26.25,3 C26.6642136,3 27,3.33578644 27,3.75 Z"/>
    <path fill="url(#application-x-jar-d)" d="M20,5.75 L20,28.25 C20,28.6642136 19.6642136,29 19.25,29 L12.75,29 C12.3357864,29 12,28.6642136 12,28.25 L12,5.75 C12,5.33578644 12.3357864,5 12.75,5 L19.25,5 C19.6642136,5 20,5.33578644 20,5.75 Z"/>
    <path fill="url(#application-x-jar-e)" d="M12,4.75 L12,28.25 C12,28.6642136 11.6642136,29 11.25,29 L5.75,29 C5.33578644,29 5,28.6642136 5,28.25 L5,4.75 C5,4.33578644 5.33578644,4 5.75,4 L11.25,4 C11.6642136,4 12,4.33578644 12,4.75 Z"/>
    <path fill="#FFF8F8" fill-opacity=".3" d="M12,15 L12,18 L5,18 L5,15 L12,15 Z M20,15 L27,15 L27,18 L20,18 L20,15 Z"/>
    <path fill="#FFF" fill-opacity=".6" d="M13.5 14L18.5 14C18.7761424 14 19 14.2238576 19 14.5L19 18.5C19 18.7761424 18.7761424 19 18.5 19L13.5 19C13.2238576 19 13 18.7761424 13 18.5L13 14.5C13 14.2238576 13.2238576 14 13.5 14zM14 15L14 18 18 18 18 15 14 15zM15 16L17 16 17 17 15 17 15 16zM13.9651861 24.7451981C13.9651861 25.0562772 13.9196261 25.3281674 13.8261486 25.5603535 13.7323291 25.793389 13.6033982 25.9879434 13.4390369 26.1413473 13.2761479 26.293377 13.0868964 26.405526 12.8734747 26.4766666 12.6681297 26.5451149 12.4515626 26.5792317 12.2247899 26.5792317 12.0047164 26.5792317 11.792441 26.5441016 11.58911 26.4738328 11.3819146 26.4022285 11.1969421 26.2955431 11.0358774 26.1544198 10.8723368 26.0111271 10.7421029 25.8336059 10.645764 25.6241069 10.5480213 25.4115554 10.5 25.1699244 10.5 24.9012605L10.5 24.2533013 11.577431 24.2533013 11.577431 24.834934C11.577431 24.9706885 11.5982809 25.0818883 11.6376159 25.1699237 11.6788587 25.262229 11.7302633 25.3357988 11.7917962 25.3927398 11.8546048 25.4508612 11.9233701 25.4930372 11.9995966 25.520589 12.0806257 25.5498766 12.1605024 25.5642257 12.2403962 25.5642257 12.2992499 25.5642257 12.3694738 25.552201 12.4506413 25.5268362 12.5222153 25.5044693 12.5905305 25.4662128 12.6567091 25.4104337 12.7193813 25.3576099 12.7742231 25.2840188 12.8206518 25.1872101 12.8641367 25.0965395 12.8877551 24.9729197 12.8877551 24.8154262L12.8877551 20.5 13.9651861 20.5 13.9651861 24.7451981zM18.226938 25.5075182L18.5456182 25.4164667 18.5456182 26.4000694 18.3797023 26.459325C18.3266287 26.4782799 18.2645049 26.4927471 18.191638 26.5040819 18.1213744 26.5150118 18.0603411 26.5207083 18.0069028 26.5207083 17.7714362 26.5207083 17.5672531 26.4288748 17.4117884 26.2528063 17.3576473 26.1914899 17.3129878 26.120939 17.2772564 26.0413889 17.2539516 26.0623384 17.2306231 26.0823574 17.2072657 26.1014452 17.0695427 26.213993 16.929573 26.3020384 16.787074 26.3648606 16.6462092 26.4269623 16.503927 26.469035 16.3605944 26.4906119 16.227263 26.5106833 16.091926 26.5207083 15.9546819 26.5207083 15.7643187 26.5207083 15.5840648 26.48963 15.4152723 26.4271143 15.2449593 26.3640354 15.0942236 26.2731154 14.964782 26.1548601 14.8336306 26.0350428 14.7307259 25.8908142 14.6570204 25.7241757 14.5826536 25.5560421 14.5459184 25.3707686 14.5459184 25.1704682 14.5459184 24.9597232 14.5939189 24.7720069 14.6922475 24.6122229 14.7829962 24.4647563 14.9032285 24.3380686 15.0511416 24.233098 15.1895289 24.1348877 15.3445569 24.0529443 15.5157474 23.9871018 15.6749416 23.9258732 15.8381176 23.8714812 16.0052574 23.8239211 16.1662058 23.7781228 16.3239127 23.734279 16.4783843 23.6923884 16.6223772 23.6533395 16.7499274 23.6110242 16.8608709 23.5656925 16.9563184 23.5266924 17.0283527 23.4836652 17.077766 23.4386638 17.0985259 23.4197575 17.1053421 23.4042992 17.1053421 23.3757503 17.1053421 23.298382 17.0914137 23.2340654 17.0647626 23.1799793 17.0377757 23.1252118 17.000464 23.0801268 16.9507144 23.0424134 16.8966687 23.0014433 16.8281029 22.9689888 16.7433443 22.9458728 16.6512067 22.9207444 16.5470833 22.9078631 16.4306723 22.9078631 16.336341 22.9078631 16.2481181 22.9197294 16.1653769 22.9432238 16.0861959 22.9657073 16.0178989 22.9974843 15.9593236 23.0383941 15.9034312 23.0774301 15.8575174 23.1246557 15.8203565 23.1812818 15.7864441 23.2329579 15.7640342 23.2943775 15.7534898 23.3681885L15.7228263 23.5828331 14.6412836 23.5828331 14.6555265 23.3193393C14.6681193 23.0863724 14.7308614 22.8756235 14.8442801 22.6909129 14.952812 22.514161 15.09163 22.3652047 15.2594306 22.245569 15.4231336 22.1288549 15.6078624 22.0406374 15.8124357 21.980908 16.0134221 21.9222258 16.2197372 21.8928571 16.4306723 21.8928571 16.6553969 21.8928571 16.8693742 21.9204203 17.0720786 21.9758359 17.2818221 22.0331759 17.4690704 22.1218322 17.6322638 22.2419179 17.8010229 22.3660991 17.9353542 22.5236186 18.0335373 22.7120669 18.1337434 22.9043978 18.1827731 23.1266133 18.1827731 23.3757503L18.1827731 25.4279712C18.1827731 25.4744525 18.1905048 25.4992335 18.201244 25.5121756 18.2123011 25.5114182 18.2123011 25.5114182 18.226938 25.5075182zM16.6997324 24.5866371C16.5512866 24.6313022 16.4021899 24.6746519 16.252438 24.7166875 16.1172449 24.7546364 15.9957705 24.7992358 15.8879795 24.8502336 15.7948754 24.8942829 15.7229535 24.9452474 15.6704192 25.0023106 15.6388979 25.0365492 15.6233493 25.0791736 15.6233493 25.1431573 15.6233493 25.2183361 15.6350602 25.2753292 15.6554795 25.3161678 15.6789227 25.363054 15.7074387 25.3992474 15.7416818 25.4270699 15.7778726 25.456475 15.8194415 25.4780153 15.868322 25.4922064 15.9263543 25.5090544 15.9848219 25.517407 16.0444178 25.517407 16.234662 25.517407 16.4234937 25.4588221 16.6149716 25.3376609 16.7947588 25.2238972 16.9586136 25.0487277 17.1053421 24.8091702L17.1053422 24.4431738C16.9778021 24.4958485 16.8425983 24.5436509 16.6997324 24.5866371zM19.947098 22.1804576C20.1550256 22.038019 20.3975147 21.9669868 20.6677671 21.9669868 20.7055333 21.9673882 20.7055333 21.9673882 20.7538395 21.9691373 20.7923644 21.9706783 20.8320426 21.9737305 20.872896 21.9782698 20.9150849 21.9829574 20.9560395 21.9892581 20.9957577 21.9972018 21.043812 22.0068126 21.0847467 22.0183583 21.1212889 22.0340193L21.2728091 22.0989565 21.2728091 23.2045889 20.940679 23.0890654C20.8958174 23.0734613 20.8427519 23.0607052 20.7815936 23.0512151 20.7178268 23.0413203 20.6728618 23.0366146 20.6521609 23.0366146 20.5347289 23.0366146 20.4349729 23.0575159 20.3503609 23.0979825 20.2620013 23.1402415 20.1886712 23.1961792 20.1283469 23.2668717 20.0653646 23.3406791 20.0170413 23.4254913 19.9829254 23.522822 19.9480972 23.622185 19.9306723 23.7262219 19.9306723 23.8361345L19.9306723 26.4426771 18.8532413 26.4426771 18.8532413 21.9708884 19.9397055 21.9708884 19.9318899 22.1910287C19.9369397 22.1874674 19.9420091 22.1839436 19.947098 22.1804576z"/>
  </g>
</svg>
