<svg xmlns="http://www.w3.org/2000/svg" xmlns:xlink="http://www.w3.org/1999/xlink" width="32" height="32" viewBox="0 0 32 32">
  <defs>
    <linearGradient id="x-office-document-c" x1="50%" x2="50%" y1="0%" y2="100%">
      <stop offset="0%" stop-color="#005CC2"/>
      <stop offset="100%" stop-color="#004DA3"/>
    </linearGradient>
    <path id="x-office-document-b" d="M22,22 C22,24.209139 20.209139,26 18,26 L4,26 C1.790861,26 2.705415e-16,24.209139 0,22 L0,4 C-2.705415e-16,1.790861 1.790861,4.05812251e-16 4,0 L15,0 L22,7 L22,22 Z"/>
    <filter id="x-office-document-a" width="131.8%" height="126.9%" x="-15.9%" y="-9.6%" filterUnits="objectBoundingBox">
      <feOffset dy="1" in="SourceAlpha" result="shadowOffsetOuter1"/>
      <feGaussianBlur in="shadowOffsetOuter1" result="shadowBlurOuter1" stdDeviation="1"/>
      <feColorMatrix in="shadowBlurOuter1" values="0 0 0 0 0.22745098   0 0 0 0 0.494117647   0 0 0 0 0.960784314  0 0 0 0.2 0"/>
    </filter>
    <linearGradient id="x-office-document-f" x1="50%" x2="10.489%" y1="50%" y2="91.194%">
      <stop offset="0%" stop-color="#FFF" stop-opacity=".1"/>
      <stop offset="100%" stop-color="#FFF" stop-opacity=".3"/>
    </linearGradient>
    <path id="x-office-document-e" d="M15,0 L22,7 L17.25,7 C16.0073593,7 15,5.99264069 15,4.75 L15,0 L15,0 Z"/>
    <filter id="x-office-document-d" width="200%" height="200%" x="-50%" y="-35.7%" filterUnits="objectBoundingBox">
      <feOffset dy="1" in="SourceAlpha" result="shadowOffsetOuter1"/>
      <feGaussianBlur in="shadowOffsetOuter1" result="shadowBlurOuter1" stdDeviation="1"/>
      <feComposite in="shadowBlurOuter1" in2="SourceAlpha" operator="out" result="shadowBlurOuter1"/>
      <feColorMatrix in="shadowBlurOuter1" values="0 0 0 0 0   0 0 0 0 0   0 0 0 0 0  0 0 0 0.05 0"/>
    </filter>
  </defs>
  <g fill="none" fill-rule="evenodd">
    <g transform="translate(5 3)">
      <use fill="#000" filter="url(#x-office-document-a)" xlink:href="#x-office-document-b"/>
      <use fill="url(#x-office-document-c)" xlink:href="#x-office-document-b"/>
      <use fill="#000" filter="url(#x-office-document-d)" xlink:href="#x-office-document-e"/>
      <use fill="url(#x-office-document-f)" xlink:href="#x-office-document-e"/>
    </g>
    <path fill="#FFF" fill-opacity=".6" d="M24,11 L24,12 L8,12 L8,11 L24,11 Z M24,14 L24,15 L8,15 L8,14 L24,14 Z M24,17 L24,18 L8,18 L8,17 L24,17 Z M24,20 L24,21 L8,21 L8,20 L24,20 Z M24,23 L24,24 L8,24 L8,23 L24,23 Z"/>
  </g>
</svg>
