<?xml version="1.0" encoding="UTF-8"?>
<svg width="24px" height="24px" viewBox="0 0 24 24" version="1.1" xmlns="http://www.w3.org/2000/svg" xmlns:xlink="http://www.w3.org/1999/xlink">
    <!-- Generator: Sketch 51.3 (57544) - http://www.bohemiancoding.com/sketch -->
    <title>im-user-busy</title>
    <desc>Created with Sketch.</desc>
    <defs></defs>
    <g id="im-user-busy" stroke="none" stroke-width="1" fill="none" fill-rule="evenodd">
        <g id="406" transform="translate(4.000000, 4.000000)" fill="#303030" fill-rule="nonzero">
            <path d="M8,1 C6.34314575,1 5,2.34314575 5,4 C5,5.65685425 6.34314575,7 8,7 C8.79564947,7 9.55871121,6.68392948 10.1213203,6.12132034 C10.6839295,5.55871121 11,4.79564947 11,4 C11,2.34314575 9.65685425,1 8,1 Z M8,0 C10.209139,1.3527075e-16 12,1.790861 12,4 C12,5.06086596 11.5785726,6.07828161 10.8284271,6.82842712 C10.0782816,7.57857264 9.06086596,8 8,8 C5.790861,8 4,6.209139 4,4 C4,1.790861 5.790861,-1.3527075e-16 8,0 Z" id="Path"></path>
            <path d="M7.99252504,9.98825326 L8.00119166,9.98828049 C7.99974707,9.98828221 7.99830256,9.98828437 7.99685814,9.98828698 C7.99537765,9.98827472 7.99394528,9.98826388 7.99252504,9.98825326 Z M1.23082889,15 L7.61550046,15 C7.21779356,14.2395302 7,13.3873936 7,12.5 C7,11.6147732 7.21706794,10.7613688 7.61289341,9.9993938 C4.63111099,10.1667844 2.07302663,12.2077382 1.23082889,15 Z M8,8.9882812 C8.1873,8.9896813 8.9431406,8.9990719 9.6816406,9.0136719 C8.6653406,9.8407719 8,11.097 8,12.5 C8,13.918 8.6785906,15.173 9.7128906,16 L0,16 C0.5035,12.004 3.972,8.9930812 8,8.9882812 Z" id="Path"></path>
            <path d="M12.5,10 C11.1192881,10 10,11.1192881 10,12.5 C10,13.8807119 11.1192881,15 12.5,15 C13.8807119,15 15,13.8807119 15,12.5 C15,11.1192881 13.8807119,10 12.5,10 Z M12.5,9 C14.4329966,9 16,10.5670034 16,12.5 C16,14.4329966 14.4329966,16 12.5,16 C10.5670034,16 9,14.4329966 9,12.5 C9,10.5670034 10.5670034,9 12.5,9 Z" id="Path"></path>
            <polygon id="Path" points="12 10 13 10 13 12 15 12 15 13 12 13 12 12"></polygon>
        </g>
    </g>
</svg>