<?xml version="1.0" encoding="UTF-8"?>
<svg width="24px" height="24px" viewBox="0 0 24 24" version="1.1" xmlns="http://www.w3.org/2000/svg" xmlns:xlink="http://www.w3.org/1999/xlink">
    <!-- Generator: Sketch 51.3 (57544) - http://www.bohemiancoding.com/sketch -->
    <title>kdenlive-show-markers</title>
    <desc>Created with Sketch.</desc>
    <defs></defs>
    <g id="kdenlive-show-markers" stroke="none" stroke-width="1" fill="none" fill-rule="evenodd">
        <path d="M6,6.015625 L6,18.015625 L18,18.015625 L18,6.015625 L6,6.015625 Z M5,5.015625 L19,5.015625 L19,19.015625 L5,19.015625 L5,5.015625 Z" id="Path" fill="#303030" fill-rule="nonzero"></path>
        <path d="M10.1243122,12.0034718 L9.08283515,12.0034718 L8.10991514,15 L11.1552897,15 L10.1243122,12.0034718 Z M8.4335938,11.0034718 L10.7578125,11.0034718 C10.8138129,11.0034718 10.8469289,11.0278968 10.859375,11.0776905 L12.9042969,17.009766 C12.916743,17.040893 12.9131981,17.072249 12.8945312,17.103516 C12.8758645,17.134783 12.8443356,17.150391 12.8007812,17.150391 L11.9515182,17.150391 C11.9328514,17.150391 11.9099948,17.143459 11.885112,17.130859 C11.8664451,17.112193 11.8542233,17.091144 11.8480026,17.066406 L11.4105026,16 L7.84795309,16 C7.79195259,16.236461 7.54067219,16.836184 7.48467179,17.066406 C7.47253839,17.122407 7.43587749,17.150391 7.37334369,17.150391 L6.5097656,17.150391 C6.4662113,17.150391 6.4346824,17.134783 6.4160156,17.103516 C6.3973488,17.072389 6.395757,17.041033 6.4082031,17.009766 L8.3320312,11.0776905 C8.3441647,11.0277568 8.3775933,11.0034718 8.4335938,11.0034718 Z" id="Path" fill="#303030" fill-rule="nonzero"></path>
        <path d="M14.679688,15.75 C14.8654067,15.7496905 15.0436362,15.8231963 15.1751423,15.9543363 C15.3066483,16.0854762 15.3806507,16.2635002 15.380859,16.449219 C15.3811694,16.6352762 15.307396,16.8138023 15.1758336,16.9453649 C15.0442712,17.0769275 14.8657452,17.1507012 14.679688,17.150391 C14.493969,17.1501828 14.3159448,17.0761803 14.1848048,16.944674 C14.0536648,16.8131677 13.9801591,16.6349379 13.9804688,16.449219 C13.980902,16.0632305 14.2936995,15.7504331 14.679688,15.75 Z" id="Path" fill="#DDDDDD"></path>
        <path d="M16.900391,15.75 C17.286379,15.7504337 17.5991758,16.063231 17.599609,16.449219 C17.5999187,16.6349377 17.5264132,16.8131673 17.3952734,16.9446736 C17.2641337,17.0761798 17.0861098,17.1501825 16.900391,17.150391 C16.7143336,17.1507014 16.5358074,17.0769279 16.4042447,16.9453653 C16.2726821,16.8138026 16.1989086,16.6352764 16.199219,16.449219 C16.1994273,16.2635 16.2734298,16.0854759 16.4049361,15.9543359 C16.5364423,15.8231959 16.7146721,15.7496903 16.900391,15.75 Z" id="Path" fill="#DDDDDD"></path>
    </g>
</svg>