<?xml version="1.0" encoding="UTF-8"?>
<svg width="24px" height="24px" viewBox="0 0 24 24" version="1.1" xmlns="http://www.w3.org/2000/svg" xmlns:xlink="http://www.w3.org/1999/xlink">
    <!-- Generator: Sketch 51.3 (57544) - http://www.bohemiancoding.com/sketch -->
    <title>kdenlive-object-width</title>
    <desc>Created with Sketch.</desc>
    <defs></defs>
    <g id="kdenlive-object-width" stroke="none" stroke-width="1" fill="none" fill-rule="evenodd">
        <g id="209" transform="translate(4.000000, 8.000000)" fill="#303030" fill-rule="nonzero">
            <path d="M6,1.73897673 C5.45808346,2.04908737 4.78874656,2.43070703 4.01796004,2.86919457 L3.99466271,2.88244777 C3.36381607,3.2413118 2.69592198,3.62069404 2.02149487,4.00338882 L6,6.27682032 L6,1.73897673 Z M6,1.73897673 L6,0.586343947 C6.61532949,0.232917935 7.01511541,0 7,0 L7,1.16419453 C6.84370781,1.25470853 6.65331652,1.36438214 6.43049314,1.49228204 C6.29768053,1.56851605 6.15398421,1.65085958 6,1.73897673 Z M7,0.75 L7,8 L0,4 C0,4 4.37567227,1.52179209 6.20814464,0.466651663 C6.623281,1.0127888 6.66209094,1.01147129 7,1 L7,0.75 Z M10,6.27682032 L13.9844356,4 L10,1.72317968 L10,6.27682032 Z M9,0 L16,4 L9,8 L9,0 Z" id="Shape"></path>
        </g>
    </g>
</svg>