<?xml version="1.0" encoding="UTF-8"?>
<svg width="24px" height="24px" viewBox="0 0 24 24" version="1.1" xmlns="http://www.w3.org/2000/svg" xmlns:xlink="http://www.w3.org/1999/xlink">
    <!-- Generator: Sketch 51.3 (57544) - http://www.bohemiancoding.com/sketch -->
    <title>reply-all</title>
    <desc>Created with Sketch.</desc>
    <defs></defs>
    <g id="reply-all" stroke="none" stroke-width="1" fill="none" fill-rule="evenodd">
        <g id="23" transform="translate(12.000000, 12.000000) scale(-1, 1) translate(-12.000000, -12.000000) translate(4.000000, 5.000000)" fill="#303030" fill-rule="nonzero">
            <polygon id="Path" points="9.5 0.5 9.5 1.5429688 14.470703 5 9.5 8.4570312 9.5 9.5 15.970703 5"></polygon>
            <path d="M7,2.41772583 L7,4.0039062 L5,4.0039062 C2.57332178,4.0039062 1,5.66185021 1,8.2539062 C1,8.85197242 1.18392135,9.40808205 1.52677508,9.92299945 C1.4660892,9.48417099 1.48778467,9.07567109 1.61140269,8.69501457 C2.12166999,7.12386756 3.73695336,6.0039062 5.5,6.0039062 L7,6.0039062 L7,7.59008642 L10.7176343,5.00390618 L7,2.41772583 Z M0,8.2539062 C0,5.1304062 2,3.0039062 5,3.0039062 L6,3.0039062 L6,0.5039062 L12.46875,5.0039062 L6,9.503906 L6,7.0039062 L5,7.0039062 L5,7.04314676 C3.84828619,7.22479512 2.88294028,8.01724901 2.5625,9.003906 C2.12533724,10.3500596 3.99625515,12.9986066 3.99999439,13.0038981 C3.99367448,13.0015319 0,11.5013352 0,8.2539062 Z" id="Path"></path>
        </g>
    </g>
</svg>