<?xml version="1.0" encoding="UTF-8"?>
<svg width="24px" height="24px" viewBox="0 0 24 24" version="1.1" xmlns="http://www.w3.org/2000/svg" xmlns:xlink="http://www.w3.org/1999/xlink">
    <!-- Generator: Sketch 51.3 (57544) - http://www.bohemiancoding.com/sketch -->
    <title>snap-nodes-smooth</title>
    <desc>Created with Sketch.</desc>
    <defs></defs>
    <g id="snap-nodes-smooth" stroke="none" stroke-width="1" fill="none" fill-rule="evenodd">
        <path d="M5.0195312,5.5 C5.03589352,5.50115111 5.05218929,5.50310661 5.0683594,5.5058594 C5.0683594,5.5058594 7.670125,5.8505531 10.203125,7.0019531 L13.0019531,7.0019531 L13.0019531,8.7753906 C13.8788631,9.5820906 14.556791,10.5835656 14.775391,11.8222656 C15.044891,13.3491656 14.408062,15.212759 12.9765625,17.318359 C15.535962,17.076859 17.031447,16.193914 17.716797,15.214844 C18.501997,14.093144 18.501953,13.0019531 18.501953,13.0019531 C18.4994029,12.8216351 18.5941406,12.6539124 18.7498894,12.5630092 C18.9056382,12.4721061 19.0982678,12.4721061 19.2540166,12.5630092 C19.4097654,12.6539124 19.5045031,12.8216351 19.501953,13.0019531 C19.501953,13.0019531 19.501909,14.410763 18.537109,15.789062 C17.572309,17.167363 15.620953,18.501953 12.0019531,18.501953 C11.8096772,18.5020332 11.6343853,18.3918611 11.5510732,18.2185719 C11.4677611,18.0452828 11.4911869,17.8395733 11.6113281,17.689453 C13.5586481,15.255353 14.039996,13.4050406 13.7910156,11.9941406 C13.6577056,11.2386406 13.3046338,10.5797831 12.8085938,10.0019531 L10.0019531,10.0019531 L10.0019531,8.0078125 C7.5980531,6.8748925 4.93554688,6.4980469 4.93554688,6.4980469 C4.67723398,6.46783156 4.48520583,6.24465376 4.49387015,5.98472406 C4.50253447,5.72479436 4.70899837,5.51489963 4.96875,5.5019531 C4.98563302,5.50044181 5.00258197,5.49978993 5.0195312,5.5 Z M11,8 L11,9 L12,9 L12,8 L11,8 Z" id="Combined-Shape" fill="#303030" fill-rule="nonzero"></path>
    </g>
</svg>