<svg xmlns="http://www.w3.org/2000/svg" width="16" height="16" viewBox="0 0 16 16">
  <g fill="none" fill-rule="evenodd">
    <polygon points="0 16 16 16 16 0 0 0" opacity="0"/>
    <path stroke="#FFF" stroke-linecap="round" stroke-width="1.2" d="M1.0269 6.579C1.9189 5.628 2.9819 4.859 4.1599 4.327 5.3389 3.794 6.6349 3.5 7.9929 3.5 9.3519 3.5 10.6469 3.794 11.8259 4.327 13.0049 4.859 14.0669 5.628 14.9589 6.579M10.731 7.0903C11.152 7.2803 11.552 7.5123 11.927 7.7823 12.301 8.0523 12.65 8.3593 12.969 8.6993M3.0172 8.6991C3.3362 8.3601 3.6852 8.0521 4.0592 7.7821 4.4342 7.5131 4.8342 7.2801 5.2552 7.0901M10.9803 10.818C10.7893 10.614 10.5803 10.43 10.3553 10.269M5.0064 10.818C5.1974 10.614 5.4064 10.43 5.6314 10.269" opacity=".3"/>
    <path fill="#FFF" d="M9 13C9 13.5525 8.5525 14 8 14 7.4475 14 7 13.5525 7 13 7 12.4475 7.4475 12 8 12 8.5525 12 9 12.4475 9 13M8.0634 11.25L7.9544 11.25C7.5714 11.25 7.2584 10.937 7.2584 10.555L7.2584 5.445C7.2584 5.063 7.5714 4.75 7.9544 4.75L8.0634 4.75C8.4454 4.75 8.7584 5.063 8.7584 5.445L8.7584 10.555C8.7584 10.937 8.4454 11.25 8.0634 11.25"/>
  </g>
</svg>
