<svg xmlns="http://www.w3.org/2000/svg" xmlns:xlink="http://www.w3.org/1999/xlink" width="256" height="256" viewBox="0 0 256 256">
  <defs>
    <linearGradient id="text-x-install-c" x1="50%" x2="50%" y1="0%" y2="100%">
      <stop offset="0%" stop-color="#079473"/>
      <stop offset="100%" stop-color="#005F56"/>
    </linearGradient>
    <path id="text-x-install-b" d="M168,190 C168,199.941125 159.941125,208 150,208 L18,208 C8.0588745,208 1.21743675e-15,199.941125 0,190 L0,18 C-1.21743675e-15,8.0588745 8.0588745,1.82615513e-15 18,0 L116,0 L168,52 L168,190 Z"/>
    <filter id="text-x-install-a" width="113.7%" height="111.1%" x="-6.8%" y="-4.6%" filterUnits="objectBoundingBox">
      <feOffset dy="2" in="SourceAlpha" result="shadowOffsetOuter1"/>
      <feGaussianBlur in="shadowOffsetOuter1" result="shadowBlurOuter1" stdDeviation="3.5"/>
      <feColorMatrix in="shadowBlurOuter1" values="0 0 0 0 0.147857706   0 0 0 0 0.486158288   0 0 0 0 0.406731195  0 0 0 0.2 0"/>
    </filter>
    <linearGradient id="text-x-install-f" x1="50%" x2="7.994%" y1="50%" y2="88.893%">
      <stop offset="0%" stop-color="#FFF" stop-opacity=".1"/>
      <stop offset="100%" stop-color="#FFF" stop-opacity=".3"/>
    </linearGradient>
    <path id="text-x-install-e" d="M116,0 L168,52 L134,52 C124.058875,52 116,43.9411255 116,34 L116,0 L116,0 Z"/>
    <filter id="text-x-install-d" width="144.2%" height="144.2%" x="-22.1%" y="-18.3%" filterUnits="objectBoundingBox">
      <feOffset dy="2" in="SourceAlpha" result="shadowOffsetOuter1"/>
      <feGaussianBlur in="shadowOffsetOuter1" result="shadowBlurOuter1" stdDeviation="3.5"/>
      <feComposite in="shadowBlurOuter1" in2="SourceAlpha" operator="out" result="shadowBlurOuter1"/>
      <feColorMatrix in="shadowBlurOuter1" values="0 0 0 0 0   0 0 0 0 0   0 0 0 0 0  0 0 0 0.05 0"/>
    </filter>
  </defs>
  <g fill="none" fill-rule="evenodd">
    <g transform="translate(44 28)">
      <use fill="#000" filter="url(#text-x-install-a)" xlink:href="#text-x-install-b"/>
      <use fill="url(#text-x-install-c)" xlink:href="#text-x-install-b"/>
      <use fill="#000" filter="url(#text-x-install-d)" xlink:href="#text-x-install-e"/>
      <use fill="url(#text-x-install-f)" xlink:href="#text-x-install-e"/>
    </g>
    <path fill="#FFF" fill-opacity=".6" d="M173,138 C173,112.042617 151.957383,91 126,91 C100.042617,91 79,112.042617 79,138 C79,163.957383 100.042617,185 126,185 C151.957383,185 173,163.957383 173,138 Z M126,97 C148.643675,97 167,115.356325 167,138 C167,160.643675 148.643675,179 126,179 C103.356325,179 85,160.643675 85,138 C85,115.356325 103.356325,97 126,97 Z M136,112 L116,112 L116,144 L100,144 L126,172 L152,144 L136,144 L136,112 Z"/>
  </g>
</svg>
