<svg xmlns="http://www.w3.org/2000/svg" xmlns:xlink="http://www.w3.org/1999/xlink" width="256" height="256" viewBox="0 0 256 256">
  <defs>
    <linearGradient id="text-x-sql-c" x1="50%" x2="50%" y1="0%" y2="100%">
      <stop offset="0%" stop-color="#549807"/>
      <stop offset="100%" stop-color="#458300"/>
    </linearGradient>
    <path id="text-x-sql-b" d="M168,190 C168,199.941125 159.941125,208 150,208 L18,208 C8.0588745,208 1.21743675e-15,199.941125 0,190 L0,18 C-1.21743675e-15,8.0588745 8.0588745,1.82615513e-15 18,0 L116,0 L168,52 L168,190 Z"/>
    <filter id="text-x-sql-a" width="113.7%" height="111.1%" x="-6.8%" y="-4.6%" filterUnits="objectBoundingBox">
      <feOffset dy="2" in="SourceAlpha" result="shadowOffsetOuter1"/>
      <feGaussianBlur in="shadowOffsetOuter1" result="shadowBlurOuter1" stdDeviation="3.5"/>
      <feColorMatrix in="shadowBlurOuter1" values="0 0 0 0 0.286130341   0 0 0 0 0.419214221   0 0 0 0 0  0 0 0 0.2 0"/>
    </filter>
    <linearGradient id="text-x-sql-f" x1="50%" x2="7.994%" y1="50%" y2="88.893%">
      <stop offset="0%" stop-color="#FFF" stop-opacity=".1"/>
      <stop offset="100%" stop-color="#FFF" stop-opacity=".3"/>
    </linearGradient>
    <path id="text-x-sql-e" d="M116,0 L168,52 L134,52 C124.058875,52 116,43.9411255 116,34 L116,0 L116,0 Z"/>
    <filter id="text-x-sql-d" width="144.2%" height="144.2%" x="-22.1%" y="-18.3%" filterUnits="objectBoundingBox">
      <feOffset dy="2" in="SourceAlpha" result="shadowOffsetOuter1"/>
      <feGaussianBlur in="shadowOffsetOuter1" result="shadowBlurOuter1" stdDeviation="3.5"/>
      <feComposite in="shadowBlurOuter1" in2="SourceAlpha" operator="out" result="shadowBlurOuter1"/>
      <feColorMatrix in="shadowBlurOuter1" values="0 0 0 0 0   0 0 0 0 0   0 0 0 0 0  0 0 0 0.05 0"/>
    </filter>
  </defs>
  <g fill="none" fill-rule="evenodd">
    <g transform="translate(44 28)">
      <use fill="#000" filter="url(#text-x-sql-a)" xlink:href="#text-x-sql-b"/>
      <use fill="url(#text-x-sql-c)" xlink:href="#text-x-sql-b"/>
      <use fill="#000" filter="url(#text-x-sql-d)" xlink:href="#text-x-sql-e"/>
      <use fill="url(#text-x-sql-f)" xlink:href="#text-x-sql-e"/>
    </g>
    <path fill="#FFF" fill-opacity=".6" d="M165.996543,92 C171.519997,92 176,96.474204 176,101.991652 L176,101.991652 L176,110.008348 C176,113.277754 174.430099,116.179157 172.001595,118.001717 C174.360031,119.771695 175.909382,122.559704 175.996156,125.71202 L176,125.991652 L176,134.008348 C176,137.277754 174.430099,140.179157 172.001595,142.001717 C174.360031,143.771695 175.909382,146.559704 175.996156,149.71202 L176,149.991652 L176,158.008348 C176,161.277754 174.430099,164.179157 172.001595,166.001717 C174.360031,167.771695 175.909382,170.559704 175.996156,173.71202 L176,173.991652 L176,182.008348 C176,187.43521 171.674543,191.848132 166.276682,191.996163 L165.996543,192 L90.0034569,192 C84.5736208,192 80.1521643,187.676179 80.0038442,182.28798 L80,182.008348 L80,173.991652 C80,170.722246 81.569901,167.820843 83.9984049,165.998283 C81.6514035,164.236851 80.1056509,161.467288 80.0052085,158.333776 L80,158.008348 L80,149.991652 C80,146.722246 81.569901,143.820843 83.9984049,141.998283 C81.6514035,140.236851 80.1056509,137.467288 80.0052085,134.333776 L80,134.008348 L80,125.991652 C80,122.722246 81.569901,119.820843 83.9984049,117.998283 C81.5704724,116.176112 80,113.275085 80,110.008348 L80,110.008348 L80,101.991652 C80,96.4712233 84.4758966,92 90.0034569,92 L90.0034569,92 Z M165.996543,168 L90.0034569,168 C86.7595406,168 84.1223327,170.560806 84.0041352,173.766945 L84,173.991652 L84,182.008348 C84,185.240334 86.5671903,187.877655 89.7783984,187.995864 L90.0034569,188 L165.996543,188 C169.240459,188 171.877667,185.439194 171.995865,182.233055 L172,182.008348 L172,173.991652 C172,170.684504 169.312017,168 165.996543,168 Z M161.333303,175.999878 C162.437872,175.999861 163.333316,176.895278 163.333333,177.999847 C163.333349,179.054209 162.517485,179.918025 161.482626,179.99439 L161.333364,179.999878 L145.333364,180.000122 C144.228794,180.000139 143.33335,179.104722 143.333333,178.000153 C143.333317,176.945791 144.149182,176.081975 145.184041,176.00561 L145.333303,176.000122 L161.333303,175.999878 Z M165.996543,144 L90.0034569,144 C86.7595406,144 84.1223327,146.560806 84.0041352,149.766945 L84,149.991652 L84,158.008348 C84,161.240334 86.5671903,163.877655 89.7783984,163.995864 L90.0034569,164 L165.996543,164 L166.221854,163.995869 C169.361758,163.880544 171.880416,161.364633 171.995865,158.233055 L172,158.008348 L172,149.991652 C172,146.684504 169.312017,144 165.996543,144 Z M161.333303,151.999878 C162.437872,151.999861 163.333316,152.895278 163.333333,153.999847 C163.333349,155.054209 162.517485,155.918025 161.482626,155.99439 L161.333364,155.999878 L145.333364,156.000122 C144.228794,156.000139 143.33335,155.104722 143.333333,154.000153 C143.333317,152.945791 144.149182,152.081975 145.184041,152.00561 L145.333303,152.000122 L161.333303,151.999878 Z M165.996543,120 L90.0034569,120 C86.7595406,120 84.1223327,122.560806 84.0041352,125.766945 L84,125.991652 L84,134.008348 C84,137.240334 86.5671903,139.877655 89.7783984,139.995864 L90.0034569,140 L165.996543,140 L166.221854,139.995869 C169.361758,139.880544 171.880416,137.364633 171.995865,134.233055 L172,134.008348 L172,125.991652 C172,122.684504 169.312017,120 165.996543,120 Z M161.333303,127.999878 C162.437872,127.999861 163.333316,128.895278 163.333333,129.999847 C163.333349,131.054209 162.517485,131.918025 161.482626,131.99439 L161.333364,131.999878 L145.333364,132.000122 C144.228794,132.000139 143.33335,131.104722 143.333333,130.000153 C143.333317,128.945791 144.149182,128.081975 145.184041,128.00561 L145.333303,128.000122 L161.333303,127.999878 Z M165.996543,96 L90.0034569,96 C86.6841007,96 84,98.6812982 84,101.991652 L84,101.991652 L84,110.008348 C84,113.315496 86.687983,116 90.0034569,116 L90.0034569,116 L165.996543,116 L166.221854,115.995869 C169.436517,115.877798 172,113.243466 172,110.008348 L172,110.008348 L172,101.991652 C172,98.6845036 169.312017,96 165.996543,96 L165.996543,96 Z M161.333303,103.999878 C162.437872,103.999861 163.333316,104.895278 163.333333,105.999847 C163.333349,107.054209 162.517485,107.918025 161.482626,107.99439 L161.333364,107.999878 L145.333364,108.000122 C144.228794,108.000139 143.33335,107.104722 143.333333,106.000153 C143.333317,104.945791 144.149182,104.081975 145.184041,104.00561 L145.333303,104.000122 L161.333303,103.999878 Z"/>
  </g>
</svg>
