<svg xmlns="http://www.w3.org/2000/svg" xmlns:xlink="http://www.w3.org/1999/xlink" width="256" height="256" viewBox="0 0 256 256">
  <defs>
    <linearGradient id="x-office-presentation-c" x1="50%" x2="50%" y1="0%" y2="99.372%">
      <stop offset="0%" stop-color="#BB8200"/>
      <stop offset="100%" stop-color="#916500"/>
    </linearGradient>
    <path id="x-office-presentation-b" d="M168,190 C168,199.941125 159.941125,208 150,208 L18,208 C8.0588745,208 1.21743675e-15,199.941125 0,190 L0,18 C-1.21743675e-15,8.0588745 8.0588745,1.82615513e-15 18,0 L116,0 L168,52 L168,190 Z"/>
    <filter id="x-office-presentation-a" width="113.7%" height="111.1%" x="-6.8%" y="-4.6%" filterUnits="objectBoundingBox">
      <feOffset dy="2" in="SourceAlpha" result="shadowOffsetOuter1"/>
      <feGaussianBlur in="shadowOffsetOuter1" result="shadowBlurOuter1" stdDeviation="3.5"/>
      <feColorMatrix in="shadowBlurOuter1" values="0 0 0 0 0.874509804   0 0 0 0 0.498039216   0 0 0 0 0.0588235294  0 0 0 0.2 0"/>
    </filter>
    <linearGradient id="x-office-presentation-f" x1="50%" x2="7.994%" y1="50%" y2="88.893%">
      <stop offset="0%" stop-color="#FFF" stop-opacity=".1"/>
      <stop offset="100%" stop-color="#FFF" stop-opacity=".3"/>
    </linearGradient>
    <path id="x-office-presentation-e" d="M116,0 L168,52 L134,52 C124.058875,52 116,43.9411255 116,34 L116,0 L116,0 Z"/>
    <filter id="x-office-presentation-d" width="144.2%" height="144.2%" x="-22.1%" y="-18.3%" filterUnits="objectBoundingBox">
      <feOffset dy="2" in="SourceAlpha" result="shadowOffsetOuter1"/>
      <feGaussianBlur in="shadowOffsetOuter1" result="shadowBlurOuter1" stdDeviation="3.5"/>
      <feComposite in="shadowBlurOuter1" in2="SourceAlpha" operator="out" result="shadowBlurOuter1"/>
      <feColorMatrix in="shadowBlurOuter1" values="0 0 0 0 0   0 0 0 0 0   0 0 0 0 0  0 0 0 0.05 0"/>
    </filter>
  </defs>
  <g fill="none" fill-rule="evenodd">
    <g transform="translate(44 28)">
      <g opacity=".9">
        <use fill="#000" filter="url(#x-office-presentation-a)" xlink:href="#x-office-presentation-b"/>
        <use fill="url(#x-office-presentation-c)" xlink:href="#x-office-presentation-b"/>
      </g>
      <use fill="#000" filter="url(#x-office-presentation-d)" xlink:href="#x-office-presentation-e"/>
      <use fill="url(#x-office-presentation-f)" xlink:href="#x-office-presentation-e"/>
    </g>
    <path fill="#FFF" fill-opacity=".6" d="M166.005016,108 C169.245278,108 171.877882,110.558259 171.995872,113.777817 L172,114.003487 L172,169.996513 C172,173.234628 169.43419,175.877402 166.229604,175.995856 L166.005016,176 L130.828,175.999 L147.414214,192.585786 C148.154154,193.325727 148.193099,194.501211 147.531046,195.286999 L147.414214,195.414214 C146.674273,196.154154 145.498789,196.193099 144.713001,195.531046 L144.585786,195.414214 L130.1,180.929 L129.999977,202.009615 C129.994667,203.114172 129.094941,204.005287 127.990385,203.999977 C126.936035,203.994908 126.076164,203.174887 126.004791,202.139672 L126.000023,201.990385 L126.102,180.726 L111.414214,195.414214 C110.633165,196.195262 109.366835,196.195262 108.585786,195.414214 C107.845846,194.674273 107.806901,193.498789 108.468954,192.713001 L108.585786,192.585786 L125.171,175.999 L89.9949844,176 C86.7547224,176 84.1221181,173.441741 84.0041279,170.222183 L84,169.996513 L84,114.003487 C84,110.765372 86.5658103,108.122598 89.7703964,108.004144 L89.9949844,108 L166.005016,108 Z M166.005016,112 L89.9949844,112 C88.9467683,112 88.081948,112.818248 88.0054937,113.854093 L88,114.003487 L88,169.996513 C88,171.061281 88.8093447,171.918801 89.8454845,171.994558 L89.9949844,172 L166.005016,172 C167.053232,172 167.918052,171.181752 167.994506,170.145907 L168,169.996513 L168,114.003487 C168,112.888016 167.11174,112 166.005016,112 Z M102,126 C103.104569,126 104,126.895431 104,128 L104,128 L104,160 L154,160 C155.104569,160 156,160.895431 156,162 C156,163.104569 155.104569,164 154,164 L154,164 L102,164 C100.895431,164 100,163.104569 100,162 L100,162 L100,128 C100,126.895431 100.895431,126 102,126 Z M178,96 C179.104569,96 180,96.8954305 180,98 C180,99.0543618 179.184122,99.9181651 178.149262,99.9945143 L178,100 L78,100 C76.8954305,100 76,99.1045695 76,98 C76,96.9456382 76.8158778,96.0818349 77.8507377,96.0054857 L78,96 L178,96 Z M112,120 L120,120 L120,152 L112,152 L112,120 Z M128,128 L136,128 L136,152 L128,152 L128,128 Z M144,136 L152,136 L152,152 L144,152 L144,136 Z"/>
  </g>
</svg>
