<?xml version="1.0" encoding="UTF-8"?>
<svg width="24px" height="24px" viewBox="0 0 24 24" version="1.1" xmlns="http://www.w3.org/2000/svg" xmlns:xlink="http://www.w3.org/1999/xlink">
    <!-- Generator: Sketch 51.3 (57544) - http://www.bohemiancoding.com/sketch -->
    <title>im-twitter</title>
    <desc>Created with Sketch.</desc>
    <defs></defs>
    <g id="im-twitter" stroke="none" stroke-width="1" fill="none" fill-rule="evenodd">
        <path d="M11.2949219,8.5332031 C11.2949219,6.31343499 12.9803437,4.5 15.078125,4.5 C16.043392,4.5 16.9508289,4.88700649 17.6398408,5.56223022 C18.2209205,5.40918497 18.7756281,5.16456426 19.2894826,4.83641122 L20.4195347,4.11474766 L20.0379149,5.40012015 C19.9484826,5.70134613 19.8262753,5.98830301 19.6752636,6.25586239 C19.7118255,6.23932246 19.7482436,6.22239014 19.7845145,6.20506709 L21.3256877,5.46900108 L20.424782,6.91999274 C19.9985933,7.60640906 19.472234,8.21604796 18.8697147,8.72015096 C18.8706755,8.78901542 18.871094,8.86240725 18.871094,8.9433594 C18.871094,14.5467473 14.8162989,19.5 9.03125,19.5 C7.12138203,19.5 5.29210093,18.9116347 3.71594862,17.8235878 L2.02629427,16.6571884 L4.06305246,16.9161005 C4.29809804,16.9459795 4.53845495,16.960938 4.78320312,16.960938 C5.78927843,16.960938 6.75816634,16.6969165 7.62307258,16.2041592 C6.53616289,15.7814522 5.6720393,14.8409726 5.31373211,13.6367316 L5.0755978,12.8363817 L5.31133988,12.8847952 C4.58619531,12.1439783 4.14257812,11.1022597 4.14257812,9.9667969 C4.14237579,9.93179062 4.14237579,9.93179062 4.14274509,9.91090755 L4.16485658,9.05552158 L4.61357984,9.32388724 C4.32716412,8.75038244 4.16992188,8.10084936 4.16992188,7.4238281 C4.16992188,6.70654609 4.34498777,6.01545351 4.6735733,5.40845717 L5.04318773,4.72566811 L5.51189378,5.34464337 C6.95865,7.25523593 9.02537455,8.49223736 11.302245,8.7853179 C11.2973738,8.7015569 11.2949219,8.61747075 11.2949219,8.5332031 Z M17.5782762,6.60436947 L17.2907865,6.66529996 L17.0976915,6.44376633 C16.5749643,5.84405287 15.8505364,5.5 15.078125,5.5 C13.549648,5.5 12.2949219,6.85002659 12.2949219,8.5332031 C12.2949219,8.77084008 12.3202524,9.00641522 12.3695362,9.23403762 L12.5082019,9.87447931 L11.8538754,9.83911513 C9.32297066,9.70232812 6.98455066,8.53194821 5.26813409,6.61944745 C5.20340303,6.87806612 5.16992188,7.14799535 5.16992188,7.4238281 C5.16992188,8.45991894 5.64742579,9.40288326 6.42090939,9.95935987 L7.75766412,10.9210774 L6.11186255,10.8649438 C5.81064524,10.8546702 5.51502855,10.8065153 5.22993573,10.7228738 C5.49289782,11.8388223 6.32444143,12.7161683 7.38117231,12.9449117 L9.30110964,13.3605075 L7.41611395,13.9133822 C7.1448994,13.9929303 6.86363896,14.0397615 6.57694742,14.0528443 C7.07010644,14.8891865 7.92344159,15.4285949 8.86929505,15.4473644 L10.1959409,15.4736904 L9.18182122,16.3294027 C8.22209079,17.1392214 7.08901824,17.6704008 5.87830122,17.8710207 C6.87352535,18.2837055 7.93759486,18.5 9.03125,18.5 C14.2149019,18.5 17.871094,14.0336724 17.871094,8.9433594 C17.871094,8.76885709 17.869051,8.63489384 17.8637167,8.50719636 L17.8529574,8.24963176 L18.0565331,8.09147913 C18.2338902,7.953695 18.4044728,7.80529721 18.5674699,7.64720967 C18.4389191,7.6714798 18.3094143,7.69202546 18.1790503,7.70880136 L15.9879902,7.99075796 L17.8440939,6.79279177 C18.0181739,6.68043703 18.1797467,6.54844433 18.3263274,6.39983682 C18.0814834,6.48228389 17.8318437,6.55062843 17.5782762,6.60436947 Z" id="Shape" fill="#303030" fill-rule="nonzero"></path>
    </g>
</svg>