<?xml version="1.0" encoding="UTF-8"?>
<svg width="24px" height="24px" viewBox="0 0 24 24" version="1.1" xmlns="http://www.w3.org/2000/svg" xmlns:xlink="http://www.w3.org/1999/xlink">
    <!-- Generator: Sketch 51.3 (57544) - http://www.bohemiancoding.com/sketch -->
    <title>kdenlive-show-audiothumb</title>
    <desc>Created with Sketch.</desc>
    <defs></defs>
    <g id="kdenlive-show-audiothumb" stroke="none" stroke-width="1" fill="none" fill-rule="evenodd">
        <g id="208" transform="translate(4.000000, 7.000000)" fill="#303030" fill-rule="nonzero">
            <path d="M6,0.0039062 L9.46875,4.2753906 L9.46875,3.1152344 L12.0053109,4.7890625 L12.0053109,1.3925781 L14,4.4140625 L14,3.4667969 L16,5.0039062 L14,6.5410156 L14,5.59375 L12.0053109,8.615234 L11.9916389,5.2207031 L9.46875,6.8925781 L9.46875,5.7324219 L6,10.003906 L6,5.7148438 L4,7.410156 L4,5.6152344 L0,5.8027344 L0,4.2050781 L4,4.3925781 L4,2.5976562 L6,4.2929688 L6,0.0039062 Z M6.99856431,2.8489352 L6.99856431,7.19512765 L8.75420915,5.02203143 L6.99856431,2.8489352 Z M4.99100976,4.7683397 L4.99100976,5.23523372 L5.28146611,5.00178671 L4.99100976,4.7683397 Z M13.0055889,4.72686448 L13.0055889,5.30978076 L13.1891652,4.99221844 L13.0055889,4.72686448 Z" id="Combined-Shape"></path>
        </g>
    </g>
</svg>