<?xml version="1.0" encoding="UTF-8"?>
<svg width="24px" height="24px" viewBox="0 0 24 24" version="1.1" xmlns="http://www.w3.org/2000/svg" xmlns:xlink="http://www.w3.org/1999/xlink">
    <!-- Generator: Sketch 51.3 (57544) - http://www.bohemiancoding.com/sketch -->
    <title>resource-calendar-child</title>
    <desc>Created with Sketch.</desc>
    <defs></defs>
    <g id="resource-calendar-child" stroke="none" stroke-width="1" fill="none" fill-rule="evenodd">
        <polygon id="Path" fill="#303030" fill-rule="nonzero" points="8 8 8 10 10 10 10 8"></polygon>
        <polygon id="Path" fill="#303030" fill-rule="nonzero" points="11 8 11 10 13 10 13 8"></polygon>
        <polygon id="Path" fill="#303030" fill-rule="nonzero" points="14 8 14 10 16 10 16 8"></polygon>
        <path d="M7,5 C4.75840708,5 5.00825965,7 5,7 L5,19 L11,19 L11,18 L6,18 L6,7 C6,6.44771525 6.44771525,6 7,6 L17,6 C17.5522847,6 18,6.44771525 18,7 L18,11 L19,11 L19,7 C19,5 17.0011799,5 17,5 L7,5 Z" id="Path" fill="#303030" fill-rule="nonzero"></path>
        <polygon id="Path" fill="#303030" fill-rule="nonzero" points="8 11 8 13 10 13 10 11"></polygon>
        <path d="M13,13 L18,13 C18.5500002,13 18.9900002,13.5196875 19,14 L19.0000002,19.0000002 L19,18 C18.9851342,18.4774492 18.5470702,19.0000002 18,19 L13,19 C12.446,19.0000002 12,18.4655812 12,18 L12,14 C12,13.5344387 12.446,13 13,13 Z M13,14 L13,18 L18,18 L18,14 L13,14 Z" id="Combined-Shape" fill="#303030" fill-rule="nonzero"></path>
        <polygon id="Path" fill="#303030" fill-rule="nonzero" points="8 14 8 16 10 16 10 14"></polygon>
    </g>
</svg>