<?xml version="1.0" encoding="UTF-8"?>
<svg width="24px" height="24px" viewBox="0 0 24 24" version="1.1" xmlns="http://www.w3.org/2000/svg" xmlns:xlink="http://www.w3.org/1999/xlink">
    <!-- Generator: Sketch 51.3 (57544) - http://www.bohemiancoding.com/sketch -->
    <title>view-calendar-day</title>
    <desc>Created with Sketch.</desc>
    <defs></defs>
    <g id="view-calendar-day" stroke="none" stroke-width="1" fill="none" fill-rule="evenodd">
        <g id="task-new" transform="translate(5.000000, 5.000000)" fill="#303030" fill-rule="nonzero">
            <path d="M2,0 C-0.24159292,0 0.00825958702,2 0,2 L0,14 L14,14 L14,2 C14,0 12.0011799,0 12,0 L2,0 Z M2,1 L12,1 C12.5522847,1 13,1.44771525 13,2 L13,13 L1,13 L1,10 L1,2 C1,1.44771525 1.44771525,1 2,1 Z M6,6 L6,8 L8,8 L8,6 L6,6 Z" id="Shape"></path>
        </g>
    </g>
</svg>