<?xml version="1.0" encoding="UTF-8"?>
<svg width="512px" height="512px" viewBox="0 0 512 512" version="1.1" xmlns="http://www.w3.org/2000/svg" xmlns:xlink="http://www.w3.org/1999/xlink">
    <title>mimetypes/512/application-x-ace</title>
    <defs>
        <linearGradient x1="50%" y1="0%" x2="50%" y2="100%" id="linearGradient-1">
            <stop stop-color="#19BD72" offset="0%"></stop>
            <stop stop-color="#00914F" offset="100%"></stop>
        </linearGradient>
        <path d="M368.153846,420 C368.153846,439.882251 352.036097,456 332.153846,456 L36.1538462,456 C16.2715952,456 0.153846154,439.882251 0.153846154,420 L0.153846154,36 C0.153846154,16.117749 16.2715952,3.65231026e-15 36.1538462,0 L254.153846,0 L368.153846,114 L368.153846,420 Z" id="path-2"></path>
        <filter x="-12.5%" y="-8.3%" width="125.0%" height="120.2%" filterUnits="objectBoundingBox" id="filter-3">
            <feOffset dx="0" dy="8" in="SourceAlpha" result="shadowOffsetOuter1"></feOffset>
            <feGaussianBlur stdDeviation="14" in="shadowOffsetOuter1" result="shadowBlurOuter1"></feGaussianBlur>
            <feColorMatrix values="0 0 0 0 0.00784313725   0 0 0 0 0.42745098   0 0 0 0 0.168627451  0 0 0 0.5 0" type="matrix" in="shadowBlurOuter1"></feColorMatrix>
        </filter>
        <linearGradient x1="50%" y1="50%" x2="7.99354867%" y2="88.8926673%" id="linearGradient-4">
            <stop stop-color="#FFFFFF" stop-opacity="0.1" offset="0%"></stop>
            <stop stop-color="#FFFFFF" stop-opacity="0.3" offset="100%"></stop>
        </linearGradient>
        <path d="M254.153846,0 L368.153846,114 L290.153846,114 C270.271595,114 254.153846,97.882251 254.153846,78 L254.153846,0 L254.153846,0 Z" id="path-5"></path>
        <filter x="-12.3%" y="-8.8%" width="124.6%" height="124.6%" filterUnits="objectBoundingBox" id="filter-6">
            <feOffset dx="0" dy="4" in="SourceAlpha" result="shadowOffsetOuter1"></feOffset>
            <feGaussianBlur stdDeviation="4" in="shadowOffsetOuter1" result="shadowBlurOuter1"></feGaussianBlur>
            <feComposite in="shadowBlurOuter1" in2="SourceAlpha" operator="out" result="shadowBlurOuter1"></feComposite>
            <feColorMatrix values="0 0 0 0 0   0 0 0 0 0   0 0 0 0 0  0 0 0 0.05 0" type="matrix" in="shadowBlurOuter1"></feColorMatrix>
        </filter>
    </defs>
    <g id="mimetypes/512/application-x-ace" stroke="none" stroke-width="1" fill="none" fill-rule="evenodd">
        <g id="编组" transform="translate(72, 28)">
            <g id="编组-2" transform="translate(-0.1538, 0)">
                <g id="蒙版">
                    <use fill="black" fill-opacity="1" filter="url(#filter-3)" xlink:href="#path-2"></use>
                    <use fill="url(#linearGradient-1)" fill-rule="evenodd" xlink:href="#path-2"></use>
                </g>
                <g id="折角">
                    <use fill="black" fill-opacity="1" filter="url(#filter-6)" xlink:href="#path-5"></use>
                    <use fill="url(#linearGradient-4)" fill-rule="evenodd" xlink:href="#path-5"></use>
                </g>
            </g>
            <g id="Group" transform="translate(0, 186)">
                <path d="M136,16 L136,64 L0,64 L0,16 L136,16 Z M368,16 L368,64 L232,64 L232,16 L368,16 Z M208,16 L208,64 L160,64 L160,52 L200,52 L200,28 L160,28 L160,16 L208,16 Z" id="Combined-Shape" fill-opacity="0.5" fill="#FFF8F8"></path>
                <path d="M216,0 C220.418278,-8.11624501e-16 224,3.581722 224,8 L224,72 C224,76.418278 220.418278,80 216,80 L152,80 C147.581722,80 144,76.418278 144,72 L144,8 C144,3.581722 147.581722,8.11624501e-16 152,0 L216,0 Z M152,72 L216,72 L216,8 L152,8 L152,36 L188,36 L188,44 L152,44 L152,72 Z" id="Combined-Shape" fill="#F4F4F4"></path>
            </g>
        </g>
        <path d="M268,340 C277.670368,340 286.338857,344.825744 292.206521,352.453417 L285.191416,356.462048 C280.831975,351.241862 274.740492,348 268,348 C254.745166,348 244,360.536027 244,376 C244,391.463973 254.745166,404 268,404 C274.057299,404 279.590484,401.382002 283.813588,397.062966 L291.547271,400.377402 C285.699337,407.522982 277.314408,412 268,412 C250.326888,412 236,395.882251 236,376 C236,356.117749 250.326888,340 268,340 Z M204,340 L236,412 L226.799988,412 L219.200012,396 L180.800003,396 L173.199997,412 L164,412 L196,340 L204,340 Z M348,340 L348,348 L308,348 L308,372 L340,372 L340,380 L308,380 L308,404 L348,404 L348,412 L300,412 L300,340 L348,340 Z M200.190476,348 L184,388 L216,388 L200.190476,348 Z" id="Combined-Shape" fill="#FFFFFF"></path>
    </g>
</svg>