<?xml version="1.0" encoding="UTF-8"?>
<svg width="512px" height="512px" viewBox="0 0 512 512" version="1.1" xmlns="http://www.w3.org/2000/svg" xmlns:xlink="http://www.w3.org/1999/xlink">
    <title>mimetypes/512/application-x-ipynb+json</title>
    <defs>
        <linearGradient x1="50%" y1="0%" x2="50%" y2="99.7939317%" id="linearGradient-1">
            <stop stop-color="#9BA6C1" offset="0%"></stop>
            <stop stop-color="#778EB2" offset="100%"></stop>
        </linearGradient>
        <path d="M368.153846,420 C368.153846,439.882251 352.036097,456 332.153846,456 L36.1538462,456 C16.2715952,456 0.153846154,439.882251 0.153846154,420 L0.153846154,36 C0.153846154,16.117749 16.2715952,3.65231026e-15 36.1538462,0 L254.153846,0 L368.153846,114 L368.153846,420 Z" id="path-2"></path>
        <filter x="-12.5%" y="-8.3%" width="125.0%" height="120.2%" filterUnits="objectBoundingBox" id="filter-3">
            <feOffset dx="0" dy="8" in="SourceAlpha" result="shadowOffsetOuter1"></feOffset>
            <feGaussianBlur stdDeviation="14" in="shadowOffsetOuter1" result="shadowBlurOuter1"></feGaussianBlur>
            <feColorMatrix values="0 0 0 0 0.474509804   0 0 0 0 0.558835447   0 0 0 0 0.701960784  0 0 0 0.5 0" type="matrix" in="shadowBlurOuter1"></feColorMatrix>
        </filter>
        <linearGradient x1="50%" y1="50%" x2="7.99354867%" y2="88.8926673%" id="linearGradient-4">
            <stop stop-color="#FFFFFF" stop-opacity="0.1" offset="0%"></stop>
            <stop stop-color="#FFFFFF" stop-opacity="0.3" offset="100%"></stop>
        </linearGradient>
        <path d="M254.153846,0 L368.153846,114 L290.153846,114 C270.271595,114 254.153846,97.882251 254.153846,78 L254.153846,0 L254.153846,0 Z" id="path-5"></path>
        <filter x="-12.3%" y="-8.8%" width="124.6%" height="124.6%" filterUnits="objectBoundingBox" id="filter-6">
            <feOffset dx="0" dy="4" in="SourceAlpha" result="shadowOffsetOuter1"></feOffset>
            <feGaussianBlur stdDeviation="4" in="shadowOffsetOuter1" result="shadowBlurOuter1"></feGaussianBlur>
            <feComposite in="shadowBlurOuter1" in2="SourceAlpha" operator="out" result="shadowBlurOuter1"></feComposite>
            <feColorMatrix values="0 0 0 0 0   0 0 0 0 0   0 0 0 0 0  0 0 0 0.05 0" type="matrix" in="shadowBlurOuter1"></feColorMatrix>
        </filter>
    </defs>
    <g id="mimetypes/512/application-x-ipynb+json" stroke="none" stroke-width="1" fill="none" fill-rule="evenodd">
        <g id="编组-2" transform="translate(71.8462, 28)">
            <g id="蒙版">
                <use fill="black" fill-opacity="1" filter="url(#filter-3)" xlink:href="#path-2"></use>
                <use fill="url(#linearGradient-1)" fill-rule="evenodd" xlink:href="#path-2"></use>
            </g>
            <g id="折角">
                <use fill="black" fill-opacity="1" filter="url(#filter-6)" xlink:href="#path-5"></use>
                <use fill="url(#linearGradient-4)" fill-rule="evenodd" xlink:href="#path-5"></use>
            </g>
        </g>
        <path d="M184,168 L184,184 L160,184 L160,344 L184,344 L184,360 L144,360 L144,168 L184,168 Z M344,168 L344,360 L304,360 L304,344 L328,344 L328,184 L304,184 L304,168 L344,168 Z M210.201231,196.482719 L252.274158,282.431598 C252.795074,281.229147 253.317332,280.007611 253.840818,278.767424 L255.665154,274.382281 C255.969976,273.639133 256.275167,272.889895 256.580704,272.134653 L258.417907,267.53183 C258.724742,266.752911 259.031879,265.968157 259.339297,265.177653 C265.063179,250.459101 270.538393,234.656005 275.568052,218.848506 L277.032618,214.203929 L278.404612,209.772473 L279.680696,205.572848 L281.961621,197.822783 L297.357686,202.177225 L295.972357,206.933456 L294.364897,212.290364 L292.305477,218.972559 L290.814864,223.699764 C285.69096,239.803462 280.110073,255.911562 274.251372,270.976793 L273.284605,273.446801 L271.355404,278.278913 C270.071234,281.451836 268.791042,284.527089 267.51513,287.500453 L265.604508,291.883557 L263.700531,296.110665 C257.998795,308.554836 252.38982,318.850379 246.90108,326.613026 C239.251909,337.431138 231.678424,343.557182 223.183792,343.977455 L222.270083,344 L214.018292,344 L214.018292,328 L222.270083,328 C224.194229,328 227.937027,325.26487 232.508944,319.196351 L233.836912,317.375736 C236.964129,312.952958 240.211904,307.45046 243.547158,300.996195 L195.830608,203.517289 L210.201231,196.482719 Z M384,296.000008 C384,300.418279 380.418276,304.000008 376,304.000008 C371.581721,304.000008 368,300.418279 368,296.000008 C368,291.581726 371.581723,288.000008 376,288.000008 C380.418274,288.000008 384,291.581726 384,296.000008 Z M384,352.000008 C384,356.418279 380.418276,360.000008 376,360.000008 C371.581721,360.000008 368,356.418279 368,352.000008 C368,347.581726 371.581723,344.000008 376,344.000008 C380.418274,344.000008 384,347.581726 384,352.000008 Z" id="形状结合" fill="#FFFFFF"></path>
    </g>
</svg>