<?xml version="1.0" encoding="UTF-8"?>
<svg width="512px" height="512px" viewBox="0 0 512 512" version="1.1" xmlns="http://www.w3.org/2000/svg" xmlns:xlink="http://www.w3.org/1999/xlink">
    <title>mimetypes/512/application-x-gettext-translation</title>
    <defs>
        <linearGradient x1="50%" y1="0%" x2="50%" y2="99.7939317%" id="linearGradient-1">
            <stop stop-color="#9BA6C1" offset="0%"></stop>
            <stop stop-color="#778EB2" offset="100%"></stop>
        </linearGradient>
        <path d="M368.153846,420 C368.153846,439.882251 352.036097,456 332.153846,456 L36.1538462,456 C16.2715952,456 0.153846154,439.882251 0.153846154,420 L0.153846154,36 C0.153846154,16.117749 16.2715952,3.65231026e-15 36.1538462,0 L254.153846,0 L368.153846,114 L368.153846,420 Z" id="path-2"></path>
        <filter x="-12.5%" y="-8.3%" width="125.0%" height="120.2%" filterUnits="objectBoundingBox" id="filter-3">
            <feOffset dx="0" dy="8" in="SourceAlpha" result="shadowOffsetOuter1"></feOffset>
            <feGaussianBlur stdDeviation="14" in="shadowOffsetOuter1" result="shadowBlurOuter1"></feGaussianBlur>
            <feColorMatrix values="0 0 0 0 0.474509804   0 0 0 0 0.558835447   0 0 0 0 0.701960784  0 0 0 0.5 0" type="matrix" in="shadowBlurOuter1"></feColorMatrix>
        </filter>
        <linearGradient x1="50%" y1="50%" x2="7.99354867%" y2="88.8926673%" id="linearGradient-4">
            <stop stop-color="#FFFFFF" stop-opacity="0.1" offset="0%"></stop>
            <stop stop-color="#FFFFFF" stop-opacity="0.3" offset="100%"></stop>
        </linearGradient>
        <path d="M254.153846,0 L368.153846,114 L290.153846,114 C270.271595,114 254.153846,97.882251 254.153846,78 L254.153846,0 L254.153846,0 Z" id="path-5"></path>
        <filter x="-12.3%" y="-8.8%" width="124.6%" height="124.6%" filterUnits="objectBoundingBox" id="filter-6">
            <feOffset dx="0" dy="4" in="SourceAlpha" result="shadowOffsetOuter1"></feOffset>
            <feGaussianBlur stdDeviation="4" in="shadowOffsetOuter1" result="shadowBlurOuter1"></feGaussianBlur>
            <feComposite in="shadowBlurOuter1" in2="SourceAlpha" operator="out" result="shadowBlurOuter1"></feComposite>
            <feColorMatrix values="0 0 0 0 0   0 0 0 0 0   0 0 0 0 0  0 0 0 0.05 0" type="matrix" in="shadowBlurOuter1"></feColorMatrix>
        </filter>
    </defs>
    <g id="mimetypes/512/application-x-gettext-translation" stroke="none" stroke-width="1" fill="none" fill-rule="evenodd">
        <g id="编组-2" transform="translate(71.8462, 28)">
            <g id="蒙版">
                <use fill="black" fill-opacity="1" filter="url(#filter-3)" xlink:href="#path-2"></use>
                <use fill="url(#linearGradient-1)" fill-rule="evenodd" xlink:href="#path-2"></use>
            </g>
            <g id="折角">
                <use fill="black" fill-opacity="1" filter="url(#filter-6)" xlink:href="#path-5"></use>
                <use fill="url(#linearGradient-4)" fill-rule="evenodd" xlink:href="#path-5"></use>
            </g>
        </g>
        <path d="M151.496,190.752 L151.888,191.848 C157.832,191.256 164.056,190.416 170.016,189.408 L170.016,204.016 L151.592,204.016 L152.096,205.984 L167.264,205.984 C164.288,218.208 158.832,231.496 151,240.944 L152.184,242.048 C159.536,236.728 165.344,230.576 170,223.568 L170,255.128 L172.016,255.128 C177.072,255.128 180.912,253.184 181,252.584 L181,216.968 C184.768,220.368 187.768,225.76 188.472,229.984 C189.752,231.072 191.152,231.6 192.44,231.6 C195.112,231.6 197.392,229.656 197.392,226.96 C197.392,223.304 193.784,218.512 181,215.64 L181,206 L194.328,206 C197.008,206 198.296,205.568 198.984,204.48 L189.376,197.984 L184.2,204 L181,204 L181,187.376 C185.464,186.36 189.064,185.36 192.44,184.344 C193.72,184.688 194.832,184.864 195.816,184.864 C197.016,184.864 197.992,184.6 198.592,184.096 L186.704,176 C179.16,180.632 163.992,187.128 151.496,190.752 Z M228.032,192 L210.52,192 L200,188.64 L200,253.424 C209.32,253.424 210,250.056 210,249.88 L210,244 L229.016,244 L229.016,251.816 C236.864,251.816 239,249.544 239,249.376 L239,196.736 C241.08,196.32 242.672,195.648 243.264,194.88 L232.392,187.72 L228.032,192 Z M210,194 L229.016,194 L229.016,242.048 L210,242.048 L210,194 Z M298.161855,278.192 C294.049855,282.416 291.745855,288.528 291.049855,297 L272,297 L272,281.288 C272,279.184 272.328,277.68 272.968,276.768 C273.6,275.864 274.624,275.368 276.064,275.272 L278.984,275.096 C280.064,275 280.608,274.464 280.608,273.488 C280.608,272.768 280.528,272.312 280.36,272.144 C280.176,271.976 279.728,271.88 279,271.88 C278.824,271.88 278.312,271.896 277.48,271.96 C274.224,272.104 271.088,272.176 268.064,272.176 C264.896,272.176 261.841855,272.104 258.505855,271.96 C257.705855,271.896 257.225855,271.88 257.081855,271.88 C256.377855,271.88 255.929855,271.984 255.737855,272.144 C255.553855,272.312 255.457855,272.76 255.457855,273.488 C255.457855,274.472 256.025855,275.008 257.177855,275.096 L259.913855,275.272 C261.425855,275.36 262.481855,275.84 263.113855,276.736 C263.745855,277.64 264.065855,279.152 264.065855,281.288 L264.065855,323.904 C264.065855,326.008 263.753855,327.528 263.129855,328.44 C262.513855,329.344 261.481855,329.816 260.017855,329.92 L257.177855,330.096 C257.105855,330.12 257.025855,330.144 256.913855,330.144 C255.945855,330.2 255.457855,330.68 255.457855,331.608 C255.457855,332.376 255.569855,332.84 255.769855,333.016 C255.969855,333.208 256.417855,333.296 257.081855,333.296 C257.257855,333.296 257.713855,333.28 258.441855,333.248 C261.833855,333.088 264.88,333 268.048,333 C271.072,333 274.216,333.072 277.48,333.216 C278.28,333.272 278.768,333.296 278.984,333.296 C279.688,333.296 280.136,333.208 280.328,333.016 C280.512,332.84 280.608,332.368 280.608,331.608 C280.608,330.68 280.16,330.2 279.248,330.144 C279.128,330.12 279.064,330.096 279,330.096 L276.168,329.92 C274.656,329.824 273.6,329.344 272.968,328.456 C272.328,327.568 272,326.04 272,323.904 L272,306 L290.929855,306 C291.401855,315.352 293.545855,322.984 297.585855,327.488 C302.153855,332.584 309.545855,335.128 319.705855,335.128 C330.769855,335.128 338.849855,332.56 343.929855,327.424 C349.001855,322.28 351.553855,314.08 351.553855,302.832 C351.553855,291.44 349.233855,283.208 344.585855,278.128 C339.945855,273.032 332.425855,270.52 322.033855,270.52 C311.073855,270.52 303.113855,273.08 298.161855,278.192 Z M337.489855,280.408 C340.833855,284.952 342.505855,292.44 342.505855,302.816 C342.505855,313.112 340.825855,320.544 337.457855,325.096 C334.081855,329.656 328.633855,331.928 321.065855,331.928 C313.497855,331.928 308.017855,329.656 304.641855,325.096 C301.289855,320.544 299.617855,313.064 299.617855,302.672 C299.617855,292.496 301.313855,285.088 304.721855,280.488 C308.137855,275.888 313.577855,273.584 321.065855,273.584 C328.657855,273.584 334.121855,275.856 337.489855,280.408 Z" id="形状" fill-opacity="0.991743608" fill="#FFFFFF"></path>
    </g>
</svg>