<?xml version="1.0" encoding="UTF-8"?>
<svg width="512px" height="512px" viewBox="0 0 512 512" version="1.1" xmlns="http://www.w3.org/2000/svg" xmlns:xlink="http://www.w3.org/1999/xlink">
    <title>mimetypes/512/application-vnd.kde.kphotoalbum-import</title>
    <defs>
        <linearGradient x1="50%" y1="0%" x2="50%" y2="100%" id="linearGradient-1">
            <stop stop-color="#FF8145" offset="0%"></stop>
            <stop stop-color="#ED4115" offset="100%"></stop>
        </linearGradient>
        <path d="M368.153846,420 C368.153846,439.882251 352.036097,456 332.153846,456 L36.1538462,456 C16.2715952,456 0.153846154,439.882251 0.153846154,420 L0.153846154,36 C0.153846154,16.117749 16.2715952,3.65231026e-15 36.1538462,0 L254.153846,0 L368.153846,114 L368.153846,420 Z" id="path-2"></path>
        <filter x="-12.5%" y="-8.3%" width="125.0%" height="120.2%" filterUnits="objectBoundingBox" id="filter-3">
            <feOffset dx="0" dy="8" in="SourceAlpha" result="shadowOffsetOuter1"></feOffset>
            <feGaussianBlur stdDeviation="14" in="shadowOffsetOuter1" result="shadowBlurOuter1"></feGaussianBlur>
            <feColorMatrix values="0 0 0 0 0.937254902   0 0 0 0 0.415686275   0 0 0 0 0.101960784  0 0 0 0.5 0" type="matrix" in="shadowBlurOuter1"></feColorMatrix>
        </filter>
        <linearGradient x1="50%" y1="50%" x2="7.99354867%" y2="88.8926673%" id="linearGradient-4">
            <stop stop-color="#FFFFFF" stop-opacity="0.1" offset="0%"></stop>
            <stop stop-color="#FFFFFF" stop-opacity="0.3" offset="100%"></stop>
        </linearGradient>
        <path d="M254.153846,0 L368.153846,114 L290.153846,114 C270.271595,114 254.153846,97.882251 254.153846,78 L254.153846,0 L254.153846,0 Z" id="path-5"></path>
        <filter x="-12.3%" y="-8.8%" width="124.6%" height="124.6%" filterUnits="objectBoundingBox" id="filter-6">
            <feOffset dx="0" dy="4" in="SourceAlpha" result="shadowOffsetOuter1"></feOffset>
            <feGaussianBlur stdDeviation="4" in="shadowOffsetOuter1" result="shadowBlurOuter1"></feGaussianBlur>
            <feComposite in="shadowBlurOuter1" in2="SourceAlpha" operator="out" result="shadowBlurOuter1"></feComposite>
            <feColorMatrix values="0 0 0 0 0   0 0 0 0 0   0 0 0 0 0  0 0 0 0.05 0" type="matrix" in="shadowBlurOuter1"></feColorMatrix>
        </filter>
    </defs>
    <g id="mimetypes/512/application-vnd.kde.kphotoalbum-import" stroke="none" stroke-width="1" fill="none" fill-rule="evenodd">
        <g id="编组-2" transform="translate(71.8462, 28)">
            <g id="蒙版" fill-rule="nonzero">
                <use fill="black" fill-opacity="1" filter="url(#filter-3)" xlink:href="#path-2"></use>
                <use fill="url(#linearGradient-1)" xlink:href="#path-2"></use>
            </g>
            <g id="折角">
                <use fill="black" fill-opacity="1" filter="url(#filter-6)" xlink:href="#path-5"></use>
                <use fill="url(#linearGradient-4)" fill-rule="evenodd" xlink:href="#path-5"></use>
            </g>
        </g>
        <path d="M340,184.666667 C344.418278,184.666667 348,188.248389 348,192.666667 L348,320 C348,324.418278 344.418278,328 340,328 L172,328 C167.581722,328 164,324.418278 164,320 L164,192.666667 C164,188.248389 167.581722,184.666667 172,184.666667 Z M172,292 L172,315.999928 C172,318.209067 173.790861,319.999928 176,319.999928 L336,319.999928 C338.209139,319.999928 340,318.209067 340,315.999928 L340,286.440436 C340,286.440436 334.926189,284.654199 329.622565,282.907076 L328.898374,282.669246 L327.812716,282.31566 C323.602134,280.951725 319.594437,279.743787 318.227717,279.610587 C314.940729,279.295358 306.61896,280.570168 302.699834,281.962283 C298.780423,283.354955 295.2636,284.865076 293.585763,285.015892 C291.907983,285.166001 286.09804,285.027015 282.467611,284.621166 C278.837297,284.2149 275.708317,283.690907 274.35872,283.541499 C273.009526,283.389099 269.194117,282.834878 266.990431,282.467947 C264.786403,282.098168 262.844554,281.759022 261.192489,281.575566 C259.540426,281.391057 252.259397,280.731627 246.958217,280.336894 C241.657437,279.943345 236.684154,279.609771 234.69202,279.609771 C234.652178,279.609215 234.608979,279.608773 234.562541,279.608441 L234.060389,279.60841 C231.079884,279.623035 222.004822,279.859946 218.456111,280.115691 C214.598703,280.399224 211.278914,280.67164 209.444329,280.593816 C207.609971,280.517646 201.731969,278.01964 197.794729,277.11899 C193.857431,276.214856 190.026309,275.557311 186.782295,276.365672 C185.446713,276.698469 182.704682,278.465234 179.940901,280.428627 L179.348834,280.851912 C175.603361,283.546071 172,286.439601 172,286.439601 L172,291.999165 L191.423049,292 L172,292 Z M300,216 C288.9545,216 280,224.9545 280,236 C280,247.0455 288.9545,256 300,256 C311.0455,256 320,247.0455 320,236 C320,224.9545 311.0455,216 300,216 Z" id="形状结合" fill="#FFFFFF"></path>
    </g>
</svg>