<?xml version="1.0" encoding="UTF-8"?>
<svg width="512px" height="512px" viewBox="0 0 512 512" version="1.1" xmlns="http://www.w3.org/2000/svg" xmlns:xlink="http://www.w3.org/1999/xlink">
    <title>mimetypes/512/application-epub+zip</title>
    <defs>
        <linearGradient x1="50%" y1="0%" x2="50%" y2="100%" id="linearGradient-1">
            <stop stop-color="#5895FF" offset="0%"></stop>
            <stop stop-color="#387CF4" offset="100%"></stop>
        </linearGradient>
        <path d="M368.153846,420 C368.153846,439.882251 352.036097,456 332.153846,456 L36.1538462,456 C16.2715952,456 0.153846154,439.882251 0.153846154,420 L0.153846154,36 C0.153846154,16.117749 16.2715952,3.65231026e-15 36.1538462,0 L254.153846,0 L368.153846,114 L368.153846,420 Z" id="path-2"></path>
        <filter x="-12.5%" y="-8.3%" width="125.0%" height="120.2%" filterUnits="objectBoundingBox" id="filter-3">
            <feOffset dx="0" dy="8" in="SourceAlpha" result="shadowOffsetOuter1"></feOffset>
            <feGaussianBlur stdDeviation="14" in="shadowOffsetOuter1" result="shadowBlurOuter1"></feGaussianBlur>
            <feColorMatrix values="0 0 0 0 0.22745098   0 0 0 0 0.494117647   0 0 0 0 0.960784314  0 0 0 0.5 0" type="matrix" in="shadowBlurOuter1"></feColorMatrix>
        </filter>
        <linearGradient x1="50%" y1="50%" x2="7.99354867%" y2="88.8926673%" id="linearGradient-4">
            <stop stop-color="#FFFFFF" stop-opacity="0.1" offset="0%"></stop>
            <stop stop-color="#FFFFFF" stop-opacity="0.3" offset="100%"></stop>
        </linearGradient>
        <path d="M254.153846,0 L368.153846,114 L290.153846,114 C270.271595,114 254.153846,97.882251 254.153846,78 L254.153846,0 L254.153846,0 Z" id="path-5"></path>
        <filter x="-12.3%" y="-8.8%" width="124.6%" height="124.6%" filterUnits="objectBoundingBox" id="filter-6">
            <feOffset dx="0" dy="4" in="SourceAlpha" result="shadowOffsetOuter1"></feOffset>
            <feGaussianBlur stdDeviation="4" in="shadowOffsetOuter1" result="shadowBlurOuter1"></feGaussianBlur>
            <feComposite in="shadowBlurOuter1" in2="SourceAlpha" operator="out" result="shadowBlurOuter1"></feComposite>
            <feColorMatrix values="0 0 0 0 0   0 0 0 0 0   0 0 0 0 0  0 0 0 0.05 0" type="matrix" in="shadowBlurOuter1"></feColorMatrix>
        </filter>
    </defs>
    <g id="mimetypes/512/application-epub+zip" stroke="none" stroke-width="1" fill="none" fill-rule="evenodd">
        <g id="编组-2" transform="translate(71.8462, 28)">
            <g id="蒙版">
                <use fill="black" fill-opacity="1" filter="url(#filter-3)" xlink:href="#path-2"></use>
                <use fill="url(#linearGradient-1)" fill-rule="evenodd" xlink:href="#path-2"></use>
            </g>
            <g id="折角">
                <use fill="black" fill-opacity="1" filter="url(#filter-6)" xlink:href="#path-5"></use>
                <use fill="url(#linearGradient-4)" fill-rule="evenodd" xlink:href="#path-5"></use>
            </g>
        </g>
        <path d="M320,192 L280,192 L280,272 L287.506099,265.995121 C294.810472,260.151622 305.189528,260.151622 312.493901,265.995121 L320,272 L320,272 L320,192 Z M208,368 L208,192 L194,192 C188.477153,192 184,196.477153 184,202 L184,358 C184,363.522847 188.477153,368 194,368 L208,368 L208,368 Z M336,200 L336,360 C336,368.836556 328.836556,376 320,376 L192.023827,376 C183.187271,376 176.023827,368.836556 176.023827,360 C176.023827,359.992063 176.023833,359.984127 176.023845,359.976191 L176.26194,199.976191 C176.275076,191.148941 183.434663,184 192.261922,184 L320,184 C328.836556,184 336,191.163444 336,200 Z" id="形状" fill="#FFFFFF"></path>
    </g>
</svg>