<?xml version="1.0" encoding="UTF-8"?>
<svg width="512px" height="512px" viewBox="0 0 512 512" version="1.1" xmlns="http://www.w3.org/2000/svg" xmlns:xlink="http://www.w3.org/1999/xlink">
    <title>mimetypes/512/application-x-bittorrent</title>
    <defs>
        <linearGradient x1="50%" y1="0%" x2="50%" y2="100%" id="linearGradient-1">
            <stop stop-color="#19BD72" offset="0%"></stop>
            <stop stop-color="#00914F" offset="100%"></stop>
        </linearGradient>
        <path d="M368.153846,420 C368.153846,439.882251 352.036097,456 332.153846,456 L36.1538462,456 C16.2715952,456 0.153846154,439.882251 0.153846154,420 L0.153846154,36 C0.153846154,16.117749 16.2715952,3.65231026e-15 36.1538462,0 L254.153846,0 L368.153846,114 L368.153846,420 Z" id="path-2"></path>
        <filter x="-12.5%" y="-8.3%" width="125.0%" height="120.2%" filterUnits="objectBoundingBox" id="filter-3">
            <feOffset dx="0" dy="8" in="SourceAlpha" result="shadowOffsetOuter1"></feOffset>
            <feGaussianBlur stdDeviation="14" in="shadowOffsetOuter1" result="shadowBlurOuter1"></feGaussianBlur>
            <feColorMatrix values="0 0 0 0 0.00784313725   0 0 0 0 0.42745098   0 0 0 0 0.168627451  0 0 0 0.5 0" type="matrix" in="shadowBlurOuter1"></feColorMatrix>
        </filter>
        <linearGradient x1="50%" y1="50%" x2="7.99354867%" y2="88.8926673%" id="linearGradient-4">
            <stop stop-color="#FFFFFF" stop-opacity="0.1" offset="0%"></stop>
            <stop stop-color="#FFFFFF" stop-opacity="0.3" offset="100%"></stop>
        </linearGradient>
        <path d="M254.153846,0 L368.153846,114 L290.153846,114 C270.271595,114 254.153846,97.882251 254.153846,78 L254.153846,0 L254.153846,0 Z" id="path-5"></path>
        <filter x="-12.3%" y="-8.8%" width="124.6%" height="124.6%" filterUnits="objectBoundingBox" id="filter-6">
            <feOffset dx="0" dy="4" in="SourceAlpha" result="shadowOffsetOuter1"></feOffset>
            <feGaussianBlur stdDeviation="4" in="shadowOffsetOuter1" result="shadowBlurOuter1"></feGaussianBlur>
            <feComposite in="shadowBlurOuter1" in2="SourceAlpha" operator="out" result="shadowBlurOuter1"></feComposite>
            <feColorMatrix values="0 0 0 0 0   0 0 0 0 0   0 0 0 0 0  0 0 0 0.05 0" type="matrix" in="shadowBlurOuter1"></feColorMatrix>
        </filter>
    </defs>
    <g id="mimetypes/512/application-x-bittorrent" stroke="none" stroke-width="1" fill="none" fill-rule="evenodd">
        <g id="编组-2" transform="translate(71.8462, 28)">
            <g id="蒙版">
                <use fill="black" fill-opacity="1" filter="url(#filter-3)" xlink:href="#path-2"></use>
                <use fill="url(#linearGradient-1)" fill-rule="evenodd" xlink:href="#path-2"></use>
            </g>
            <g id="折角">
                <use fill="black" fill-opacity="1" filter="url(#filter-6)" xlink:href="#path-5"></use>
                <use fill="url(#linearGradient-4)" fill-rule="evenodd" xlink:href="#path-5"></use>
            </g>
        </g>
        <path d="M286.526854,235.600006 L286.526854,243.600006 C239.76922,243.600006 201.907928,280.449205 201.907928,325.850006 C201.907928,371.250808 239.76922,408.100006 286.526854,408.100006 L311.997785,408 L424,408 L424,416 L312.00216,416 L312.002215,416.100006 L286.526854,416.100006 C235.398726,416.100006 193.907928,375.718324 193.907928,325.850006 C193.907928,275.981688 235.398726,235.600006 286.526854,235.600006 Z M286.526854,257.600006 C291.318257,257.600006 296.049013,258.076729 300.666702,259.014635 L299.074324,266.854554 C294.980116,266.022973 290.782805,265.600006 286.526854,265.600006 C252.820655,265.600006 225.539642,292.151754 225.539642,324.850006 C225.539642,357.548258 252.820655,384.100006 286.526854,384.100006 L311.918702,384.100006 C311.969602,384.055142 311.997785,384.031008 311.997785,384.031008 L423.997785,383.968993 L424.002215,391.968992 L312.002215,392.031007 L286.526854,392.100006 C248.450161,392.100006 217.539642,362.015775 217.539642,324.850006 C217.539642,287.684238 248.450161,257.600006 286.526854,257.600006 Z M286.526854,279.5 C301.224672,279.5 314.760639,286.374615 323.243388,297.766169 L316.826956,302.544181 C309.845877,293.169232 298.683283,287.5 286.526854,287.5 C265.87209,287.5 249.171355,303.754297 249.171355,323.75 C249.171355,343.745703 265.87209,360 286.526854,360 L424,360 L424,368 L286.526854,368 C261.501596,368 241.171355,348.213219 241.171355,323.75 C241.171355,299.286781 261.501596,279.5 286.526854,279.5 Z" id="形状结合" fill="#FFFFFF"></path>
    </g>
</svg>