<?xml version="1.0" encoding="UTF-8"?>
<svg width="512px" height="512px" viewBox="0 0 512 512" version="1.1" xmlns="http://www.w3.org/2000/svg" xmlns:xlink="http://www.w3.org/1999/xlink">
    <title>mimetypes/512/audio-x-generic</title>
    <defs>
        <linearGradient x1="50%" y1="0%" x2="50%" y2="100%" id="linearGradient-1">
            <stop stop-color="#B7EE43" offset="0%"></stop>
            <stop stop-color="#6AD500" offset="100%"></stop>
        </linearGradient>
        <path d="M368.153846,420 C368.153846,439.882251 352.036097,456 332.153846,456 L36.1538462,456 C16.2715952,456 0.153846154,439.882251 0.153846154,420 L0.153846154,36 C0.153846154,16.117749 16.2715952,3.65231026e-15 36.1538462,0 L254.153846,0 L368.153846,114 L368.153846,420 Z" id="path-2"></path>
        <filter x="-12.5%" y="-8.3%" width="125.0%" height="120.2%" filterUnits="objectBoundingBox" id="filter-3">
            <feOffset dx="0" dy="8" in="SourceAlpha" result="shadowOffsetOuter1"></feOffset>
            <feGaussianBlur stdDeviation="14" in="shadowOffsetOuter1" result="shadowBlurOuter1"></feGaussianBlur>
            <feColorMatrix values="0 0 0 0 0.505882353   0 0 0 0 0.741176471   0 0 0 0 0  0 0 0 0.5 0" type="matrix" in="shadowBlurOuter1"></feColorMatrix>
        </filter>
        <linearGradient x1="50%" y1="50%" x2="7.99354867%" y2="88.8926673%" id="linearGradient-4">
            <stop stop-color="#FFFFFF" stop-opacity="0.1" offset="0%"></stop>
            <stop stop-color="#FFFFFF" stop-opacity="0.3" offset="100%"></stop>
        </linearGradient>
        <path d="M254.153846,0 L368.153846,114 L290.153846,114 C270.271595,114 254.153846,97.882251 254.153846,78 L254.153846,0 L254.153846,0 Z" id="path-5"></path>
        <filter x="-12.3%" y="-8.8%" width="124.6%" height="124.6%" filterUnits="objectBoundingBox" id="filter-6">
            <feOffset dx="0" dy="4" in="SourceAlpha" result="shadowOffsetOuter1"></feOffset>
            <feGaussianBlur stdDeviation="4" in="shadowOffsetOuter1" result="shadowBlurOuter1"></feGaussianBlur>
            <feComposite in="shadowBlurOuter1" in2="SourceAlpha" operator="out" result="shadowBlurOuter1"></feComposite>
            <feColorMatrix values="0 0 0 0 0   0 0 0 0 0   0 0 0 0 0  0 0 0 0.05 0" type="matrix" in="shadowBlurOuter1"></feColorMatrix>
        </filter>
    </defs>
    <g id="mimetypes/512/audio-x-generic" stroke="none" stroke-width="1" fill="none" fill-rule="evenodd">
        <g id="编组-2" transform="translate(71.8462, 28)">
            <g id="蒙版">
                <use fill="black" fill-opacity="1" filter="url(#filter-3)" xlink:href="#path-2"></use>
                <use fill="url(#linearGradient-1)" fill-rule="evenodd" xlink:href="#path-2"></use>
            </g>
            <g id="折角">
                <use fill="black" fill-opacity="1" filter="url(#filter-6)" xlink:href="#path-5"></use>
                <use fill="url(#linearGradient-4)" fill-rule="evenodd" xlink:href="#path-5"></use>
            </g>
        </g>
        <path d="M152,280 C152,222.6544 198.6544,176 256,176 C313.3456,176 360,222.6544 360,280 C360,337.3456 313.3456,384 256,384 C198.6544,384 152,337.3456 152,280 Z M256,186.4 C307.6048,186.4 349.6,228.3848 349.6,280 C349.6,331.6152 307.6048,373.6 256,373.6 C204.3952,373.6 162.4,331.6152 162.4,280 C162.4,228.3848 204.3952,186.4 256,186.4 Z M262.424,210.135068 C259.512,210.146853 256.930667,213.240186 256.92,217.048186 L257,298.767817 C249.618667,294.938483 239.410517,294.626853 228.509183,298.38152 C212.45585,303.91752 203.549183,319.08552 208.13585,330.86152 C212.722517,342.626853 229.25585,347.18152 245.074517,341.026853 C258.034517,335.98152 266.882667,325.314853 267,315.160186 C267.0288,315.016186 267.042048,309.89139 267.046043,302.485926 L267.04678,300.803823 C267.046879,300.517581 267.046965,300.228485 267.04704,299.936672 L267.047186,294.420243 C267.047131,294.100765 267.047067,293.779394 267.046993,293.456266 L267.04608,290.504386 C267.039424,273.217836 267.009694,252.294027 267.001884,247.021661 L267.001083,246.483868 C267.000966,246.406178 267.000859,246.334551 267.00076,246.269123 L267,245.769843 C296.792,253.705843 301.458517,271.21352 301.458517,271.21352 C306.685183,283.938853 300.402517,299.640186 300.402517,299.640186 C300.402517,299.640186 299.87985,301.592186 301.41585,302.210853 C303.357183,302.98952 304.242517,301.13352 304.242517,301.13352 C313.565183,280.984186 307.84785,265.016186 307.84785,265.016186 C304.828757,254.63496 297.388919,246.941345 291.672023,242.309957 L291.087018,241.841786 C287.231317,238.79368 284.29585,237.208186 284.29585,237.208186 C270.395724,228.543035 268.166118,221.956099 268.120719,219.049047 L268.12,217.00552 C268.12,213.19752 265.346667,210.12552 262.424,210.135068 Z" id="Combined-Shape" fill="#FFFFFF"></path>
    </g>
</svg>