<?xml version="1.0" encoding="UTF-8"?>
<svg width="512px" height="512px" viewBox="0 0 512 512" version="1.1" xmlns="http://www.w3.org/2000/svg" xmlns:xlink="http://www.w3.org/1999/xlink">
    <title>mimetypes/512/audio-x-mpeg</title>
    <defs>
        <linearGradient x1="50%" y1="0%" x2="50%" y2="100%" id="linearGradient-1">
            <stop stop-color="#B7EE43" offset="0%"></stop>
            <stop stop-color="#6AD500" offset="100%"></stop>
        </linearGradient>
        <path d="M368.153846,420 C368.153846,439.882251 352.036097,456 332.153846,456 L36.1538462,456 C16.2715952,456 0.153846154,439.882251 0.153846154,420 L0.153846154,36 C0.153846154,16.117749 16.2715952,3.65231026e-15 36.1538462,0 L254.153846,0 L368.153846,114 L368.153846,420 Z" id="path-2"></path>
        <filter x="-12.5%" y="-8.3%" width="125.0%" height="120.2%" filterUnits="objectBoundingBox" id="filter-3">
            <feOffset dx="0" dy="8" in="SourceAlpha" result="shadowOffsetOuter1"></feOffset>
            <feGaussianBlur stdDeviation="14" in="shadowOffsetOuter1" result="shadowBlurOuter1"></feGaussianBlur>
            <feColorMatrix values="0 0 0 0 0.505882353   0 0 0 0 0.741176471   0 0 0 0 0  0 0 0 0.5 0" type="matrix" in="shadowBlurOuter1"></feColorMatrix>
        </filter>
        <linearGradient x1="50%" y1="50%" x2="7.99354867%" y2="88.8926673%" id="linearGradient-4">
            <stop stop-color="#FFFFFF" stop-opacity="0.1" offset="0%"></stop>
            <stop stop-color="#FFFFFF" stop-opacity="0.3" offset="100%"></stop>
        </linearGradient>
        <path d="M254.153846,0 L368.153846,114 L290.153846,114 C270.271595,114 254.153846,97.882251 254.153846,78 L254.153846,0 L254.153846,0 Z" id="path-5"></path>
        <filter x="-12.3%" y="-8.8%" width="124.6%" height="124.6%" filterUnits="objectBoundingBox" id="filter-6">
            <feOffset dx="0" dy="4" in="SourceAlpha" result="shadowOffsetOuter1"></feOffset>
            <feGaussianBlur stdDeviation="4" in="shadowOffsetOuter1" result="shadowBlurOuter1"></feGaussianBlur>
            <feComposite in="shadowBlurOuter1" in2="SourceAlpha" operator="out" result="shadowBlurOuter1"></feComposite>
            <feColorMatrix values="0 0 0 0 0   0 0 0 0 0   0 0 0 0 0  0 0 0 0.05 0" type="matrix" in="shadowBlurOuter1"></feColorMatrix>
        </filter>
    </defs>
    <g id="mimetypes/512/audio-x-mpeg" stroke="none" stroke-width="1" fill="none" fill-rule="evenodd">
        <g id="编组-2" transform="translate(71.8462, 28)">
            <g id="蒙版">
                <use fill="black" fill-opacity="1" filter="url(#filter-3)" xlink:href="#path-2"></use>
                <use fill="url(#linearGradient-1)" fill-rule="evenodd" xlink:href="#path-2"></use>
            </g>
            <g id="折角">
                <use fill="black" fill-opacity="1" filter="url(#filter-6)" xlink:href="#path-5"></use>
                <use fill="url(#linearGradient-4)" fill-rule="evenodd" xlink:href="#path-5"></use>
            </g>
        </g>
        <path d="M256,384 L256,400 L272,400 C276.448702,400 280,396.439231 280,392 C280,387.551298 276.439231,384 272,384 L256,384 Z M316.500189,375.799988 C321.994908,375.799988 326.502536,377.134764 329.905503,379.836575 C333.319776,382.613389 335.045681,386.357639 335.045681,391.023169 C335.045681,396.492436 332.573359,400.465935 327.776265,402.754111 C327.776265,402.754111 331.385898,404.388554 333.17306,406.557031 C335.190376,408.799285 336.199989,411.604759 336.199989,414.923978 C336.199989,419.956191 334.32147,424.1256 330.623434,427.335612 C326.891022,430.582336 322.039778,432.199989 316.115419,432.199989 C310.745235,432.199989 306.277837,430.851881 302.723795,428.174338 C298.582443,424.925069 296.287587,420.2041 295.803072,414.049358 L295.718172,412.970878 L304.150378,412.970878 L304.186461,413.933418 C304.329396,417.74637 305.656186,420.62842 308.10276,422.559917 C310.280827,424.219983 312.933064,425.067914 316.115419,425.067914 C319.778815,425.067914 322.706012,424.064628 324.890967,422.118022 C326.88181,420.22131 327.889769,417.903344 327.889769,415.143924 C327.889769,412.291522 326.945617,410.155187 325.025194,408.586939 C323.09381,407.009741 320.411271,406.24635 316.731051,406.24635 L311.267724,406.24635 L311.267724,399.554166 L316.500189,399.554166 C319.94199,399.554166 322.513577,398.827616 324.245696,397.441763 C325.94937,396.013417 326.812414,394.014252 326.812414,391.389746 C326.812414,388.829049 325.919002,386.799338 324.227778,385.322342 C322.472456,383.778656 319.896338,383.005379 316.500189,383.005379 C312.991142,383.005379 310.406662,383.831647 308.543946,385.54034 C306.640602,387.224166 305.550567,389.663805 305.181639,393.038057 L305.084186,393.929368 L296.858868,393.929368 L296.958436,392.838474 C297.439084,387.572367 299.53196,383.349948 303.140198,380.303301 C306.550235,377.286556 311.008362,375.799988 316.500189,375.799988 Z M272,376 C283.045695,376 288,384 288,392 C288,400 283.122704,408 272,408 L256.009249,408 L256.009249,432 L248,432 L248,376 L272,376 Z M192,376 L212,414 L232,376 L240,376 L240,432 L232,432 L232,396 L216,424 L208,424 L192,396 L192,432 L184,432 L184,376 L192,376 Z M256,160 C308.9344,160 352,203.0656 352,256 C352,308.9344 308.9344,352 256,352 C203.0656,352 160,308.9344 160,256 C160,203.0656 203.0656,160 256,160 Z M256,169.6 C208.3648,169.6 169.6,208.3552 169.6,256 C169.6,303.6448 208.3648,342.4 256,342.4 C303.6352,342.4 342.4,303.6448 342.4,256 C342.4,208.3552 303.6352,169.6 256,169.6 Z M262.013183,186.136159 C264.93585,186.12552 267.709183,189.19752 267.709183,193.00552 L267.709183,194.95752 C267.709183,197.816186 270.24785,204.450853 284.29585,213.208186 C284.29585,213.208186 287.231317,214.79368 291.087018,217.841786 L291.672023,218.309957 C297.388919,222.941345 304.828757,230.63496 307.84785,241.016186 C307.84785,241.016186 313.565183,256.984186 304.242517,277.13352 C304.242517,277.13352 303.357183,278.98952 301.41585,278.210853 C299.87985,277.592186 300.402517,275.640186 300.402517,275.640186 C300.402517,275.640186 306.685183,259.938853 301.458517,247.21352 C301.458517,247.21352 296.637183,229.730853 266.845183,221.794853 L266.845006,221.876354 C266.844947,221.903339 266.844873,221.936932 266.844785,221.976997 L266.844087,222.293952 C266.837872,225.106312 266.805821,239.377937 266.763198,254.205977 L266.751041,258.349703 C266.701414,274.912174 266.640383,290.904186 266.589183,291.160186 C266.47185,301.314853 258.034517,311.98152 245.074517,317.026853 C229.25585,323.18152 212.722517,318.626853 208.13585,306.86152 C203.549183,295.08552 212.45585,279.91752 228.509183,274.38152 C239.410517,270.626853 248.93585,270.89352 256.317183,274.722853 L256.509183,193.048186 C256.51985,189.240186 259.101183,186.146853 262.013183,186.136159 Z" id="Combined-Shape" fill="#FFFFFF"></path>
    </g>
</svg>