<svg xmlns="http://www.w3.org/2000/svg" xmlns:xlink="http://www.w3.org/1999/xlink" width="512" height="512" viewBox="0 0 512 512">
  <defs>
    <linearGradient id="text-x-copying-c" x1="50%" x2="50%" y1="0%" y2="99.203%">
      <stop offset="0%" stop-color="#619FFF"/>
      <stop offset="100%" stop-color="#0093E4"/>
    </linearGradient>
    <path id="text-x-copying-b" d="M232,0 L336,104 L336,380 C336,399.882251 319.882251,416 300,416 L36,416 C16.117749,416 2.4348735e-15,399.882251 0,380 L0,36 C-2.4348735e-15,16.117749 16.117749,3.65231026e-15 36,0 L232,0 Z"/>
    <filter id="text-x-copying-a" width="127.4%" height="122.1%" x="-13.7%" y="-9.1%" filterUnits="objectBoundingBox">
      <feOffset dy="8" in="SourceAlpha" result="shadowOffsetOuter1"/>
      <feGaussianBlur in="shadowOffsetOuter1" result="shadowBlurOuter1" stdDeviation="14"/>
      <feColorMatrix in="shadowBlurOuter1" values="0 0 0 0 0.0156862745   0 0 0 0 0.580392157   0 0 0 0 0.898039216  0 0 0 0.5 0"/>
    </filter>
    <linearGradient id="text-x-copying-f" x1="50%" x2="7.994%" y1="50%" y2="88.893%">
      <stop offset="0%" stop-color="#FFF" stop-opacity=".1"/>
      <stop offset="100%" stop-color="#FFF" stop-opacity=".3"/>
    </linearGradient>
    <path id="text-x-copying-e" d="M232,0 L336,104 L268,104 C248.117749,104 232,87.882251 232,68 L232,0 Z"/>
    <filter id="text-x-copying-d" width="126.9%" height="126.9%" x="-13.5%" y="-9.6%" filterUnits="objectBoundingBox">
      <feOffset dy="4" in="SourceAlpha" result="shadowOffsetOuter1"/>
      <feGaussianBlur in="shadowOffsetOuter1" result="shadowBlurOuter1" stdDeviation="4"/>
      <feComposite in="shadowBlurOuter1" in2="SourceAlpha" operator="out" result="shadowBlurOuter1"/>
      <feColorMatrix in="shadowBlurOuter1" values="0 0 0 0 0   0 0 0 0 0   0 0 0 0 0  0 0 0 0.05 0"/>
    </filter>
  </defs>
  <g fill="none" fill-rule="evenodd">
    <g transform="translate(88 56)">
      <use fill="#000" filter="url(#text-x-copying-a)" xlink:href="#text-x-copying-b"/>
      <use fill="url(#text-x-copying-c)" xlink:href="#text-x-copying-b"/>
      <use fill="#000" filter="url(#text-x-copying-d)" xlink:href="#text-x-copying-e"/>
      <use fill="url(#text-x-copying-f)" xlink:href="#text-x-copying-e"/>
    </g>
    <path fill="#FFF" d="M346,276 C346,224.085234 303.914766,182 252,182 C200.085234,182 158,224.085234 158,276 C158,327.914766 200.085234,370 252,370 C303.914766,370 346,327.914766 346,276 Z M170,276 C170,230.712651 206.712651,194 252,194 C297.287349,194 334,230.712651 334,276 C334,321.287349 297.287349,358 252,358 C206.712651,358 170,321.287349 170,276 Z M253.103373,214 C218.278263,214 190,241.73186 190,276 C190,310.26814 218.278263,338 253.103373,338 C271.819347,338 289.222169,329.939004 301.138063,316.209705 C303.310099,313.707122 303.042137,309.917594 300.539553,307.745558 C298.036969,305.573523 294.247441,305.841485 292.075406,308.344069 C282.422343,319.46617 268.316508,326 253.103373,326 C224.853839,326 202,303.587752 202,276 C202,248.412248 224.853839,226 253.103373,226 C268.673246,226 283.075982,232.84639 292.724931,244.419458 C294.846929,246.964609 298.6304,247.307642 301.17555,245.185644 C303.7207,243.063646 304.063733,239.280175 301.941736,236.735025 C290.029048,222.4468 272.259532,214 253.103373,214 Z"/>
  </g>
</svg>
