<?xml version="1.0" encoding="UTF-8"?>
<svg width="512px" height="512px" viewBox="0 0 512 512" version="1.1" xmlns="http://www.w3.org/2000/svg" xmlns:xlink="http://www.w3.org/1999/xlink">
    <title>mimetypes/512/text-richtext</title>
    <defs>
        <linearGradient x1="50%" y1="0%" x2="50%" y2="98.9468961%" id="linearGradient-1">
            <stop stop-color="#F7F7F7" offset="0%"></stop>
            <stop stop-color="#F6F6F6" offset="100%"></stop>
        </linearGradient>
        <path d="M368.153846,420 C368.153846,439.882251 352.036097,456 332.153846,456 L36.1538462,456 C16.2715952,456 0.153846154,439.882251 0.153846154,420 L0.153846154,36 C0.153846154,16.117749 16.2715952,3.65231026e-15 36.1538462,0 L254.153846,0 L368.153846,114 L368.153846,420 Z" id="path-2"></path>
        <filter x="-12.5%" y="-8.3%" width="125.0%" height="120.2%" filterUnits="objectBoundingBox" id="filter-3">
            <feOffset dx="0" dy="8" in="SourceAlpha" result="shadowOffsetOuter1"></feOffset>
            <feGaussianBlur stdDeviation="14" in="shadowOffsetOuter1" result="shadowBlurOuter1"></feGaussianBlur>
            <feColorMatrix values="0 0 0 0 0   0 0 0 0 0   0 0 0 0 0  0 0 0 0.1 0" type="matrix" in="shadowBlurOuter1"></feColorMatrix>
        </filter>
        <linearGradient x1="50%" y1="50%" x2="7.99354867%" y2="88.8926673%" id="linearGradient-4">
            <stop stop-color="#FFFFFF" stop-opacity="0.1" offset="0%"></stop>
            <stop stop-color="#FFFFFF" stop-opacity="0.3" offset="100%"></stop>
        </linearGradient>
        <path d="M254.153846,0 L368.153846,114 L290.153846,114 C270.271595,114 254.153846,97.882251 254.153846,78 L254.153846,0 L254.153846,0 Z" id="path-5"></path>
        <filter x="-12.3%" y="-8.8%" width="124.6%" height="124.6%" filterUnits="objectBoundingBox" id="filter-6">
            <feOffset dx="0" dy="4" in="SourceAlpha" result="shadowOffsetOuter1"></feOffset>
            <feGaussianBlur stdDeviation="4" in="shadowOffsetOuter1" result="shadowBlurOuter1"></feGaussianBlur>
            <feComposite in="shadowBlurOuter1" in2="SourceAlpha" operator="out" result="shadowBlurOuter1"></feComposite>
            <feColorMatrix values="0 0 0 0 0   0 0 0 0 0   0 0 0 0 0  0 0 0 0.05 0" type="matrix" in="shadowBlurOuter1"></feColorMatrix>
        </filter>
    </defs>
    <g id="mimetypes/512/text-richtext" stroke="none" stroke-width="1" fill="none" fill-rule="evenodd">
        <g id="编组-2" transform="translate(71.8462, 28)">
            <g id="蒙版">
                <use fill="black" fill-opacity="1" filter="url(#filter-3)" xlink:href="#path-2"></use>
                <use fill="url(#linearGradient-1)" fill-rule="evenodd" xlink:href="#path-2"></use>
            </g>
            <path d="M254.982273,-2 L255.56806,-1.41421356 L369.56806,112.585786 L370.153846,113.171573 L370.153846,420 C370.153846,440.98682 353.140667,458 332.153846,458 L36.1538462,458 C15.1670257,458 -1.84615385,440.98682 -1.84615385,420 L-1.84615385,36 C-1.84615385,15.0131795 15.1670257,-2 36.1538462,-2 L254.982273,-2 Z M254.153846,0 L36.1538462,0 C16.2715952,0 0.153846154,16.117749 0.153846154,36 L0.153846154,420 C0.153846154,439.882251 16.2715952,456 36.1538462,456 L332.153846,456 C352.036097,456 368.153846,439.882251 368.153846,420 L368.153846,114 L254.153846,0 Z" id="蒙版" fill-opacity="0.1" fill="#000000" fill-rule="nonzero"></path>
            <g id="折角">
                <use fill="black" fill-opacity="1" filter="url(#filter-6)" xlink:href="#path-5"></use>
                <use fill="url(#linearGradient-4)" fill-rule="evenodd" xlink:href="#path-5"></use>
            </g>
        </g>
        <path d="M368,240 L368,248 L144,248 L144,240 L368,240 Z M368,288 L368,296 L144,296 L144,288 L368,288 Z M368,336 L368,344 L144,344 L144,336 L368,336 Z M256,384 L256,392 L144,392 L144,384 L256,384 Z M272,384 L272,392 L264,392 L264,384 L272,384 Z M231.993338,160 C240.829115,160 248,167.17247 248,176 C248,180.784111 245.90626,185.074856 242.582272,188.005759 C245.904077,190.938865 248,195.22756 248,200 C248,208.842782 240.846836,216 231.993338,216 L208,216 L208,160 Z M180.309094,160 L200,216 L191.600006,216 L188.799988,208 L163.200012,208 L160.399994,216 L152,216 L172,160 L180.309094,160 Z M280.528261,160 C287.655091,160 294.299355,162.917687 298.924487,167.903674 L292,172 C289.217427,169.00033 284.808975,168 280.528261,168 C272.356467,168 264,175.591481 264,183.378894 L264,192.621106 C264,200.402168 272.389004,208 280.528261,208 C284.97184,208 289.227737,207.142384 292,204 L299.333649,207.683461 C294.713376,212.92058 287.897659,216 280.528261,216 C266.967828,216 256,205.554411 256,192.621106 L256,183.378894 C256,170.447451 266.926599,160 280.528261,160 Z M231.993338,192 L216,192 L216,208 L231.993338,208 C236.427543,208 240,204.425519 240,200 C240,195.590352 236.410441,192 231.993338,192 Z M176,170.399994 L165.600006,200 L186.399994,200 L176,170.399994 Z M231.993338,168 L216,168 L216,184 L231.993338,184 C236.427543,184 240,180.425519 240,176 C240,171.590352 236.410441,168 231.993338,168 Z" id="形状结合" fill="#7B83D6"></path>
    </g>
</svg>