<svg xmlns="http://www.w3.org/2000/svg" xmlns:xlink="http://www.w3.org/1999/xlink" width="512" height="512" viewBox="0 0 512 512">
  <defs>
    <linearGradient id="text-x-bibtex-c" x1="50%" x2="50%" y1="0%" y2="99.345%">
      <stop offset="0%" stop-color="#8552D5"/>
      <stop offset="98.596%" stop-color="#68269D"/>
    </linearGradient>
    <path id="text-x-bibtex-b" d="M232,0 L336,104 L336,380 C336,399.882251 319.882251,416 300,416 L36,416 C16.117749,416 2.4348735e-15,399.882251 0,380 L0,36 C-2.4348735e-15,16.117749 16.117749,3.65231026e-15 36,0 L232,0 Z"/>
    <filter id="text-x-bibtex-a" width="127.4%" height="122.1%" x="-13.7%" y="-9.1%" filterUnits="objectBoundingBox">
      <feOffset dy="8" in="SourceAlpha" result="shadowOffsetOuter1"/>
      <feGaussianBlur in="shadowOffsetOuter1" result="shadowBlurOuter1" stdDeviation="14"/>
      <feColorMatrix in="shadowBlurOuter1" values="0 0 0 0 0.339328004   0 0 0 0 0   0 0 0 0 0.621603261  0 0 0 0.5 0"/>
    </filter>
    <linearGradient id="text-x-bibtex-f" x1="50%" x2="7.994%" y1="50%" y2="88.893%">
      <stop offset="0%" stop-color="#FFF" stop-opacity=".1"/>
      <stop offset="100%" stop-color="#FFF" stop-opacity=".3"/>
    </linearGradient>
    <path id="text-x-bibtex-e" d="M232,0 L336,104 L268,104 C248.117749,104 232,87.882251 232,68 L232,0 Z"/>
    <filter id="text-x-bibtex-d" width="126.9%" height="126.9%" x="-13.5%" y="-9.6%" filterUnits="objectBoundingBox">
      <feOffset dy="4" in="SourceAlpha" result="shadowOffsetOuter1"/>
      <feGaussianBlur in="shadowOffsetOuter1" result="shadowBlurOuter1" stdDeviation="4"/>
      <feComposite in="shadowBlurOuter1" in2="SourceAlpha" operator="out" result="shadowBlurOuter1"/>
      <feColorMatrix in="shadowBlurOuter1" values="0 0 0 0 0   0 0 0 0 0   0 0 0 0 0  0 0 0 0.05 0"/>
    </filter>
  </defs>
  <g fill="none" fill-rule="evenodd">
    <g transform="translate(88 56)">
      <use fill="#000" filter="url(#text-x-bibtex-a)" xlink:href="#text-x-bibtex-b"/>
      <use fill="url(#text-x-bibtex-c)" xlink:href="#text-x-bibtex-b"/>
      <use fill="#000" filter="url(#text-x-bibtex-d)" xlink:href="#text-x-bibtex-e"/>
      <use fill="url(#text-x-bibtex-f)" xlink:href="#text-x-bibtex-e"/>
    </g>
    <path fill="#FFF" d="M293.975532,327.354782 C291.25554,347.24972 291.03184,350.291354 264.229111,350.291354 L241.311921,350.291354 C234.717478,350.291354 234.404092,349.449866 234.404092,343.714286 L234.404092,305.714286 L249.980046,305.714286 C265.556001,305.714286 263.889054,313.358896 263.889054,327.428571 L269.696697,327.428571 L269.696697,277.291467 L263.889054,277.291467 C263.889054,291.125526 265.556001,296.780324 249.980046,296.780324 L234.404092,296.780324 L234.404092,255.466843 C234.404092,249.838973 234.717478,248.997485 241.311921,248.997485 L263.889054,248.997485 C289.44002,248.997485 292.413853,259.250239 294.727576,281.290217 L299.0283,281.290217 L299.0283,240.571429 L228.677351,240.571429 L224,208.235847 L124.799998,208.235847 L122.666667,245.106378 L127.767164,245.106378 C129.90085,217.492184 130.614158,217.924047 156.218466,217.924047 L165.333333,217.924047 C168.487197,218.422443 170.120957,220.44853 170.120957,224.285714 L170.120957,309.766163 C170.120957,315.791215 169.620873,317.629024 155.711866,317.629024 L151.024411,317.629024 L151.024411,327.428571 C158.945744,327.273064 167.200466,327.111499 175.301829,327.111499 C183.376521,327.111499 191.657915,327.273064 199.57258,327.428571 L199.57258,317.629024 L194.965138,317.629024 C181.262766,317.629024 180.769416,315.791215 180.769416,309.766163 L180.769416,224.285714 C180.769416,220.603431 180.769416,218.604056 183.74325,217.924047 L192.804774,217.924047 C216.602534,217.924047 220.178803,217.516853 222.297082,240.571429 L210.133341,240.571429 L210.133341,248.997485 C221.828643,248.997485 223.702291,248.997485 223.702291,256.48989 L223.702291,342.744892 C223.702291,350.238172 221.855314,350.238172 210.133341,350.238172 L210.133341,360 L299.0283,360 L299.0283,327.427921 C303.535506,327.412226 311.095083,327.120568 315.099945,327.428571 L315.099945,317.682879 C309.992419,317.185392 308.512169,313.845695 308.512169,311.159666 C308.512169,309.005458 309.318972,307.820643 310.152445,306.635828 L336.563556,267.718905 L365.28839,310.345106 C366.588609,312.19032 366.588609,312.687808 366.588609,313.185969 C366.588609,314.49869 365.108359,317.36648 359.327387,317.709807 L359.327387,327.428571 C364.614943,327.112172 373.703139,327.428571 379.144055,327.428571 C383.418107,327.428571 390.659326,327.112172 394.666667,327.428571 L394.666667,317.709807 C384.091554,317.709807 382.424607,316.895247 379.144055,312.19032 L342.837945,258.570182 L367.268723,222.911365 C369.715801,219.410641 374.689972,216.704538 388.238918,216.522925 L388.238918,208 C384.458282,208.31638 378.183893,208.31638 374.223227,208.31638 C368.782311,208.31638 362.007838,208.31638 357.893812,208 L357.893812,216.522925 C363.181369,217.020917 362.666667,218.017272 362.666667,220.703234 C362.666667,222.696011 359.067343,228.05844 357.893812,229.714286 L340.704253,255.466843 C340.704253,255.466843 318.693113,221.20126 318.693113,220.703234 C318.693113,219.201885 315.099945,216.522925 322.234478,216.522925 L322.234478,208 C316.946922,208.31638 308.87223,208.31638 303.431314,208.31638 C299.157262,208.31638 290.90254,208.31638 286.915202,208 L286.915202,216.522925 C295.983395,216.522925 302.077753,217.734653 305.725034,222.911365 L334.449867,264.776996 L305.725034,307.141394 C298.637174,317.501791 287.908703,317.682879 284.754838,317.682879 L284.754838,327.428571 C287.229314,327.221118 290.73694,327.285706 293.975532,327.354782 L293.975532,327.354782 Z"/>
  </g>
</svg>
