<?xml version="1.0" encoding="UTF-8"?>
<svg width="512px" height="512px" viewBox="0 0 512 512" version="1.1" xmlns="http://www.w3.org/2000/svg" xmlns:xlink="http://www.w3.org/1999/xlink">
    <title>mimetypes/512/text-x-go</title>
    <defs>
        <linearGradient x1="50%" y1="0%" x2="50%" y2="99.7939317%" id="linearGradient-1">
            <stop stop-color="#9BA6C1" offset="0%"></stop>
            <stop stop-color="#778EB2" offset="100%"></stop>
        </linearGradient>
        <path d="M368.153846,420 C368.153846,439.882251 352.036097,456 332.153846,456 L36.1538462,456 C16.2715952,456 0.153846154,439.882251 0.153846154,420 L0.153846154,36 C0.153846154,16.117749 16.2715952,3.65231026e-15 36.1538462,0 L254.153846,0 L368.153846,114 L368.153846,420 Z" id="path-2"></path>
        <filter x="-12.5%" y="-8.3%" width="125.0%" height="120.2%" filterUnits="objectBoundingBox" id="filter-3">
            <feOffset dx="0" dy="8" in="SourceAlpha" result="shadowOffsetOuter1"></feOffset>
            <feGaussianBlur stdDeviation="14" in="shadowOffsetOuter1" result="shadowBlurOuter1"></feGaussianBlur>
            <feColorMatrix values="0 0 0 0 0.474509804   0 0 0 0 0.558835447   0 0 0 0 0.701960784  0 0 0 0.5 0" type="matrix" in="shadowBlurOuter1"></feColorMatrix>
        </filter>
        <linearGradient x1="50%" y1="50%" x2="7.99354867%" y2="88.8926673%" id="linearGradient-4">
            <stop stop-color="#FFFFFF" stop-opacity="0.1" offset="0%"></stop>
            <stop stop-color="#FFFFFF" stop-opacity="0.3" offset="100%"></stop>
        </linearGradient>
        <path d="M254.153846,0 L368.153846,114 L290.153846,114 C270.271595,114 254.153846,97.882251 254.153846,78 L254.153846,0 L254.153846,0 Z" id="path-5"></path>
        <filter x="-12.3%" y="-8.8%" width="124.6%" height="124.6%" filterUnits="objectBoundingBox" id="filter-6">
            <feOffset dx="0" dy="4" in="SourceAlpha" result="shadowOffsetOuter1"></feOffset>
            <feGaussianBlur stdDeviation="4" in="shadowOffsetOuter1" result="shadowBlurOuter1"></feGaussianBlur>
            <feComposite in="shadowBlurOuter1" in2="SourceAlpha" operator="out" result="shadowBlurOuter1"></feComposite>
            <feColorMatrix values="0 0 0 0 0   0 0 0 0 0   0 0 0 0 0  0 0 0 0.05 0" type="matrix" in="shadowBlurOuter1"></feColorMatrix>
        </filter>
    </defs>
    <g id="mimetypes/512/text-x-go" stroke="none" stroke-width="1" fill="none" fill-rule="evenodd">
        <g id="编组-2" transform="translate(71.8462, 28)">
            <g id="蒙版">
                <use fill="black" fill-opacity="1" filter="url(#filter-3)" xlink:href="#path-2"></use>
                <use fill="url(#linearGradient-1)" fill-rule="evenodd" xlink:href="#path-2"></use>
            </g>
            <g id="折角">
                <use fill="black" fill-opacity="1" filter="url(#filter-6)" xlink:href="#path-5"></use>
                <use fill="url(#linearGradient-4)" fill-rule="evenodd" xlink:href="#path-5"></use>
            </g>
        </g>
        <path d="M200,176 C177.90861,176 160,193.90861 160,216 C160,238.09139 177.90861,256 200,256 C222.09139,256 240,238.09139 240,216 C240,193.90861 222.09139,176 200,176 L200,176 Z M312,176 C289.90861,176 272,193.90861 272,216 C272,238.09139 289.90861,256 312,256 C334.09139,256 352,238.09139 352,216 C352,193.90861 334.09139,176 312,176 L312,176 Z M192,200 C200.836556,200 208,207.163444 208,216 C208,224.836556 200.836556,232 192,232 C183.163444,232 176,224.836556 176,216 C176,207.163444 183.163444,200 192,200 Z M304,200 C312.836556,200 320,207.163444 320,216 C320,224.836556 312.836556,232 304,232 C295.163444,232 288,224.836556 288,216 C288,207.163444 295.163444,200 304,200 Z M255.437504,264.006212 C251.415481,264.103516 247.482453,265.210352 244,267.224964 C236.575414,271.51155 232.001201,279.433039 232,288.006212 L280,288.006212 C279.998799,279.433039 275.424586,271.51155 268,267.224964 C264.187204,265.019591 259.84103,263.906018 255.437504,264.006212 Z M280,288.006212 C280,296.582212 275.424,304.49946 268,308.78746 C260.576,313.07546 251.424,313.07546 244,308.78746 C236.576,304.49946 232,296.582212 232,288.006212 L224,288.006212 C210.704,288.006212 200,298.710212 200,312.006212 C200,325.302212 210.704,336.006212 224,336.006212 L232,336.006212 L232,356.803084 C232,363.007884 236.998328,368.006212 243.203128,368.006212 L244.796872,368.006212 C251.001672,368.006212 256,363.007884 256,356.803084 C256,363.007884 260.998328,368.006212 267.203128,368.006212 L268.796872,368.006212 C275.001672,368.006212 280,363.007884 280,356.803084 L280,336.006212 L288,336.006212 C301.296,336.006212 312,325.302212 312,312.006212 C312,298.710212 301.296,288.006212 288,288.006212 L280,288.006212 Z" id="形状" fill="#FFFFFF"></path>
    </g>
</svg>