<svg xmlns="http://www.w3.org/2000/svg" xmlns:xlink="http://www.w3.org/1999/xlink" width="512" height="512" viewBox="0 0 512 512">
  <defs>
    <linearGradient id="text-xml-c" x1="50%" x2="50%" y1="0%" y2="98.547%">
      <stop offset="0%" stop-color="#DC3C99"/>
      <stop offset="100%" stop-color="#CD3474"/>
    </linearGradient>
    <path id="text-xml-b" d="M232,0 L336,104 L336,380 C336,399.882251 319.882251,416 300,416 L36,416 C16.117749,416 2.4348735e-15,399.882251 0,380 L0,36 C-2.4348735e-15,16.117749 16.117749,3.65231026e-15 36,0 L232,0 Z"/>
    <filter id="text-xml-a" width="127.4%" height="122.1%" x="-13.7%" y="-9.1%" filterUnits="objectBoundingBox">
      <feOffset dy="8" in="SourceAlpha" result="shadowOffsetOuter1"/>
      <feGaussianBlur in="shadowOffsetOuter1" result="shadowBlurOuter1" stdDeviation="14"/>
      <feColorMatrix in="shadowBlurOuter1" values="0 0 0 0 0.920884284   0 0 0 0 0.0193547135   0 0 0 0 0.46292854  0 0 0 0.5 0"/>
    </filter>
    <linearGradient id="text-xml-f" x1="50%" x2="7.994%" y1="50%" y2="88.893%">
      <stop offset="0%" stop-color="#FFF" stop-opacity=".1"/>
      <stop offset="100%" stop-color="#FFF" stop-opacity=".3"/>
    </linearGradient>
    <path id="text-xml-e" d="M232,0 L336,104 L268,104 C248.117749,104 232,87.882251 232,68 L232,0 Z"/>
    <filter id="text-xml-d" width="126.9%" height="126.9%" x="-13.5%" y="-9.6%" filterUnits="objectBoundingBox">
      <feOffset dy="4" in="SourceAlpha" result="shadowOffsetOuter1"/>
      <feGaussianBlur in="shadowOffsetOuter1" result="shadowBlurOuter1" stdDeviation="4"/>
      <feComposite in="shadowBlurOuter1" in2="SourceAlpha" operator="out" result="shadowBlurOuter1"/>
      <feColorMatrix in="shadowBlurOuter1" values="0 0 0 0 0   0 0 0 0 0   0 0 0 0 0  0 0 0 0.05 0"/>
    </filter>
  </defs>
  <g fill="none" fill-rule="evenodd">
    <g transform="translate(88 56)">
      <use fill="#000" filter="url(#text-xml-a)" xlink:href="#text-xml-b"/>
      <use fill="url(#text-xml-c)" xlink:href="#text-xml-b"/>
      <use fill="#000" filter="url(#text-xml-d)" xlink:href="#text-xml-e"/>
      <use fill="url(#text-xml-f)" xlink:href="#text-xml-e"/>
    </g>
    <path fill="#AE3D92" d="M136,272 L200,228 L200,244 L148,280 L200,316 L200,332 L136,288 L136,272 Z M376,272 L376,288 L312,332 L312,316 L364,280 L312,244 L312,228 L376,272 Z M276.544,228 L292,228 L232,331.957469 L216,331.957469 L276.544,228 Z"/>
    <path fill="#FFECFA" d="M136,268 L200,224 L200,240 L148,276 L200,312 L200,328 L136,284 L136,268 Z M376,268 L376,284 L312,328 L312,312 L364,276 L312,240 L312,224 L376,268 Z M276.544,224 L292,224 L232,327.957469 L216,327.957469 L276.544,224 Z"/>
    <path fill="#FFF" d="M289.691364,228 L276.544,228 L218.329568,327.957469 L216,327.957469 L276.544,224 L292,224 L289.691364,228 Z M376,272 L312,228 L312,224 L376,268 L376,272 Z M312,316 L312,312 L361.111111,278 L364,280 L312,316 Z M200,228 L136,272 L136,268 L200,224 L200,228 Z M150.888889,278 L200,312 L200,316 L148,280 L150.888889,278 Z"/>
  </g>
</svg>
