<?xml version="1.0" encoding="UTF-8"?>
<svg width="512px" height="512px" viewBox="0 0 512 512" version="1.1" xmlns="http://www.w3.org/2000/svg" xmlns:xlink="http://www.w3.org/1999/xlink">
    <title>mimetypes/512/text-x-java</title>
    <defs>
        <linearGradient x1="50%" y1="0%" x2="50%" y2="99.3718328%" id="linearGradient-1">
            <stop stop-color="#FFBC2A" offset="0%"></stop>
            <stop stop-color="#E77B00" offset="100%"></stop>
        </linearGradient>
        <path d="M368.153846,420 C368.153846,439.882251 352.036097,456 332.153846,456 L36.1538462,456 C16.2715952,456 0.153846154,439.882251 0.153846154,420 L0.153846154,36 C0.153846154,16.117749 16.2715952,3.65231026e-15 36.1538462,0 L254.153846,0 L368.153846,114 L368.153846,420 Z" id="path-2"></path>
        <filter x="-12.5%" y="-8.3%" width="125.0%" height="120.2%" filterUnits="objectBoundingBox" id="filter-3">
            <feOffset dx="0" dy="8" in="SourceAlpha" result="shadowOffsetOuter1"></feOffset>
            <feGaussianBlur stdDeviation="14" in="shadowOffsetOuter1" result="shadowBlurOuter1"></feGaussianBlur>
            <feColorMatrix values="0 0 0 0 0.874509804   0 0 0 0 0.498039216   0 0 0 0 0.0588235294  0 0 0 0.5 0" type="matrix" in="shadowBlurOuter1"></feColorMatrix>
        </filter>
        <linearGradient x1="50%" y1="50%" x2="7.99354867%" y2="88.8926673%" id="linearGradient-4">
            <stop stop-color="#FFFFFF" stop-opacity="0.1" offset="0%"></stop>
            <stop stop-color="#FFFFFF" stop-opacity="0.3" offset="100%"></stop>
        </linearGradient>
        <path d="M254.153846,0 L368.153846,114 L290.153846,114 C270.271595,114 254.153846,97.882251 254.153846,78 L254.153846,0 L254.153846,0 Z" id="path-5"></path>
        <filter x="-12.3%" y="-8.8%" width="124.6%" height="124.6%" filterUnits="objectBoundingBox" id="filter-6">
            <feOffset dx="0" dy="4" in="SourceAlpha" result="shadowOffsetOuter1"></feOffset>
            <feGaussianBlur stdDeviation="4" in="shadowOffsetOuter1" result="shadowBlurOuter1"></feGaussianBlur>
            <feComposite in="shadowBlurOuter1" in2="SourceAlpha" operator="out" result="shadowBlurOuter1"></feComposite>
            <feColorMatrix values="0 0 0 0 0   0 0 0 0 0   0 0 0 0 0  0 0 0 0.05 0" type="matrix" in="shadowBlurOuter1"></feColorMatrix>
        </filter>
    </defs>
    <g id="mimetypes/512/text-x-java" stroke="none" stroke-width="1" fill="none" fill-rule="evenodd">
        <g id="编组-2" transform="translate(71.8462, 28)">
            <g id="蒙版" opacity="0.9">
                <use fill="black" fill-opacity="1" filter="url(#filter-3)" xlink:href="#path-2"></use>
                <use fill="url(#linearGradient-1)" fill-rule="evenodd" xlink:href="#path-2"></use>
            </g>
            <g id="折角">
                <use fill="black" fill-opacity="1" filter="url(#filter-6)" xlink:href="#path-5"></use>
                <use fill="url(#linearGradient-4)" fill-rule="evenodd" xlink:href="#path-5"></use>
            </g>
        </g>
        <path d="M218.385965,295.68 C214.636614,301.430408 216.227258,304.701519 223.157895,305.493333 C233.55385,306.681054 237.473691,305.493333 266.105265,300.586667 C294.73684,295.68 299.508774,305.493333 299.508774,305.493333 C266.105265,315.306667 218.385965,320.213333 208.842105,310.4 C202.479532,303.857778 205.660819,298.951111 218.385965,295.68 Z M342.45614,276.053333 C352,290.773333 318.596491,315.306665 304.280702,315.306665 C304.280702,315.306665 328.140351,295.680001 328.140351,280.96 C328.140351,271.146666 321.777778,267.875555 309.052632,271.146667 C324.959064,264.604444 336.093567,266.24 342.45614,276.053333 Z M232.701754,266.24 C204.070175,272.782222 199.298245,277.688889 218.385964,280.96 C246.444911,285.768533 302.001628,276.439979 304.212673,276.064913 L304.280702,276.053333 C247.017551,305.493333 189.754386,290.773333 189.754386,280.96 C189.754386,274.417778 204.070175,269.511111 232.701754,266.24 Z M309.052632,187.733333 C274.05848,210.631111 262.923976,226.986667 275.649122,236.8 C288.374268,246.613333 285.192981,259.697778 266.105262,276.053333 C269.286549,266.24 269.28655,258.062222 266.105263,251.52 C265.198596,249.655467 263.947396,247.790933 262.613508,245.85909 L262.189837,245.246719 C261.741319,244.599165 261.286701,243.94338 260.83562,243.276887 L260.498124,242.77497 C260.346685,242.548169 260.195923,242.320078 260.046208,242.090601 L259.748287,241.629772 C255.056796,234.303167 251.663734,225.523499 261.333334,212.266667 C270.877193,199.182222 286.783626,191.004444 309.052632,187.733333 Z M275.649122,138.666667 L275.680903,138.690927 C276.707218,139.48319 302.006086,159.668559 266.105262,197.546667 C265.726704,197.946075 242.245615,217.173333 242.245615,231.893333 C242.245615,246.613333 256.561403,266.24 256.561403,266.24 C213.614034,236.8 223.157895,212.266667 237.473684,202.453333 C251.789474,192.64 270.877192,177.92 275.649122,168.106667 C280.421052,158.293333 275.649122,138.666667 275.649122,138.666667 Z M342.403627,349.645981 C337.378145,357.681244 326.287574,363.519595 312.461293,367.604951 C271.004367,379.854544 204.952067,376.343853 204.055228,369.039678 C203.257931,362.546221 209.621375,360.962671 223.14556,364.28903 C206.987685,366.589934 208.580793,368.200647 227.924883,369.121168 C242.450408,369.812389 272.135975,370.136142 301.040446,364.61177 C329.875441,359.100678 342.403627,349.645981 342.403627,349.645981 Z M215.569753,335.400521 C186.938174,341.942743 182.166244,346.84941 201.253963,350.120521 C215.586979,352.576806 251.05878,356.520625 280.421054,354.56 C309.712751,352.604088 332.912273,344.746667 332.912273,344.746667 C309.052633,374.186667 172.622385,359.933854 172.622385,350.120521 C172.622385,343.578299 186.938174,338.671632 215.569753,335.400521 Z M227.510682,323.90651 C224.754319,328.133965 225.923692,330.538746 231.0188,331.120853 C232.088773,331.243096 233.065431,331.331111 234.011688,331.382187 L234.415549,331.401808 C234.549671,331.407589 234.683356,331.412608 234.816788,331.416858 L235.216505,331.42729 C235.549275,331.434046 235.881607,331.435943 236.216366,331.432856 L236.619425,331.426753 C241.541955,331.323198 247.226313,330.146917 262.59187,327.513682 C283.640579,323.90651 287.148701,331.120853 287.148701,331.120853 C262.59187,338.335196 227.510681,341.942368 220.494444,334.728025 C215.816953,329.918463 218.155698,326.311291 227.510682,323.90651 Z" id="Combined-Shape" fill="#FFFFFF"></path>
    </g>
</svg>