<?xml version="1.0" encoding="UTF-8"?>
<svg width="512px" height="512px" viewBox="0 0 512 512" version="1.1" xmlns="http://www.w3.org/2000/svg" xmlns:xlink="http://www.w3.org/1999/xlink">
    <title>mimetypes/512/x-content-video-bluray</title>
    <defs>
        <linearGradient x1="50%" y1="0%" x2="50%" y2="97.9504916%" id="linearGradient-1">
            <stop stop-color="#9A73FF" offset="0%"></stop>
            <stop stop-color="#9044FC" offset="100%"></stop>
        </linearGradient>
        <path d="M368.153846,420 C368.153846,439.882251 352.036097,456 332.153846,456 L36.1538462,456 C16.2715952,456 0.153846154,439.882251 0.153846154,420 L0.153846154,36 C0.153846154,16.117749 16.2715952,3.65231026e-15 36.1538462,0 L254.153846,0 L368.153846,114 L368.153846,420 Z" id="path-2"></path>
        <filter x="-12.5%" y="-8.3%" width="125.0%" height="120.2%" filterUnits="objectBoundingBox" id="filter-3">
            <feOffset dx="0" dy="8" in="SourceAlpha" result="shadowOffsetOuter1"></feOffset>
            <feGaussianBlur stdDeviation="14" in="shadowOffsetOuter1" result="shadowBlurOuter1"></feGaussianBlur>
            <feColorMatrix values="0 0 0 0 0.478596402   0 0 0 0 0.166425049   0 0 0 0 0.855230359  0 0 0 0.5 0" type="matrix" in="shadowBlurOuter1"></feColorMatrix>
        </filter>
        <linearGradient x1="50%" y1="50%" x2="7.99354867%" y2="88.8926673%" id="linearGradient-4">
            <stop stop-color="#FFFFFF" stop-opacity="0.1" offset="0%"></stop>
            <stop stop-color="#FFFFFF" stop-opacity="0.3" offset="100%"></stop>
        </linearGradient>
        <path d="M254.153846,0 L368.153846,114 L290.153846,114 C270.271595,114 254.153846,97.882251 254.153846,78 L254.153846,0 L254.153846,0 Z" id="path-5"></path>
        <filter x="-12.3%" y="-8.8%" width="124.6%" height="124.6%" filterUnits="objectBoundingBox" id="filter-6">
            <feOffset dx="0" dy="4" in="SourceAlpha" result="shadowOffsetOuter1"></feOffset>
            <feGaussianBlur stdDeviation="4" in="shadowOffsetOuter1" result="shadowBlurOuter1"></feGaussianBlur>
            <feComposite in="shadowBlurOuter1" in2="SourceAlpha" operator="out" result="shadowBlurOuter1"></feComposite>
            <feColorMatrix values="0 0 0 0 0   0 0 0 0 0   0 0 0 0 0  0 0 0 0.05 0" type="matrix" in="shadowBlurOuter1"></feColorMatrix>
        </filter>
    </defs>
    <g id="mimetypes/512/x-content-video-bluray" stroke="none" stroke-width="1" fill="none" fill-rule="evenodd">
        <g id="编组-2" transform="translate(71.8462, 28)">
            <g id="蒙版">
                <use fill="black" fill-opacity="1" filter="url(#filter-3)" xlink:href="#path-2"></use>
                <use fill="url(#linearGradient-1)" fill-rule="evenodd" xlink:href="#path-2"></use>
            </g>
            <g id="折角">
                <use fill="black" fill-opacity="1" filter="url(#filter-6)" xlink:href="#path-5"></use>
                <use fill="url(#linearGradient-4)" fill-rule="evenodd" xlink:href="#path-5"></use>
            </g>
        </g>
        <path d="M256,159.999996 C309.019336,159.999996 352,202.98066 352,255.999996 C352,309.019332 309.019336,351.999996 256,351.999996 C202.980664,351.999996 160,309.019332 160,255.999996 C160,202.98066 202.980664,159.999996 256,159.999996 Z M227.110227,211.151217 C225.124343,213.235985 224.003089,216.094565 224,219.080584 L224,255.988336 L224.006261,292.896096 C224.002618,296.860836 225.964926,300.526244 229.153474,302.510608 C232.342021,304.494972 236.271979,304.496563 239.461912,302.514782 L269.15231,284.050076 L298.842707,265.599804 C302.032661,263.619734 303.998708,259.957799 304,255.993891 C304.001291,252.029984 302.037631,248.366565 298.848968,246.384087 L269.152066,227.941044 L239.461669,209.483553 C238.566247,208.928929 237.598442,208.522402 236.590712,208.277608 C235.921141,208.113214 235.23798,208.021286 234.551419,208.003196 C231.7789,207.93157 229.096111,209.066449 227.110227,211.151217 Z" id="形状结合" fill="#FFFFFF"></path>
    </g>
</svg>