<svg xmlns="http://www.w3.org/2000/svg" xmlns:xlink="http://www.w3.org/1999/xlink" width="64" height="64" viewBox="0 0 64 64">
  <defs>
    <filter id="deepin-repair-tools-a" width="128.6%" height="128.6%" x="-14.3%" y="-14.3%" filterUnits="objectBoundingBox">
      <feOffset dy="1" in="SourceAlpha" result="shadowOffsetOuter1"/>
      <feGaussianBlur in="shadowOffsetOuter1" result="shadowBlurOuter1" stdDeviation="1.5"/>
      <feComposite in="shadowBlurOuter1" in2="SourceAlpha" operator="out" result="shadowBlurOuter1"/>
      <feColorMatrix in="shadowBlurOuter1" result="shadowMatrixOuter1" values="0 0 0 0 0   0 0 0 0 0   0 0 0 0 0  0 0 0 0.2 0"/>
      <feMerge>
        <feMergeNode in="shadowMatrixOuter1"/>
        <feMergeNode in="SourceGraphic"/>
      </feMerge>
    </filter>
    <linearGradient id="deepin-repair-tools-c" x1="50%" x2="50%" y1="0%" y2="100%">
      <stop offset="0%" stop-color="#6CAB02" stop-opacity=".5"/>
      <stop offset="12.398%" stop-color="#88B927"/>
      <stop offset="13.485%" stop-color="#739D21" stop-opacity=".982"/>
      <stop offset="100%" stop-color="#508F06"/>
    </linearGradient>
    <path id="deepin-repair-tools-b" d="M0.263787458,6.10518727 L1.66178766,3.31576087 C2.68040107,1.28332399 4.75905209,4.17617831e-16 7.03245767,0 L48.9675423,0 C51.2409479,-4.61567699e-15 53.3195989,1.28332399 54.3382123,3.31576087 L55.7362125,6.10518727 C55.909677,6.45130043 56,6.83311035 56,7.2202592 L56,51.0226244 C56,53.7715531 53.7715531,56 51.0226244,56 L4.97737557,56 C2.22844695,56 1.22482508e-15,53.7715531 0,51.0226244 L0,7.2202592 C-1.8237689e-15,6.83311035 0.0903230225,6.45130043 0.263787458,6.10518727 Z"/>
    <linearGradient id="deepin-repair-tools-e" x1="50%" x2="50%" y1="3.603%" y2="100%">
      <stop offset="0%" stop-color="#FFF"/>
      <stop offset="100%" stop-color="#C2FF69" stop-opacity=".802"/>
    </linearGradient>
  </defs>
  <g fill="none" fill-rule="evenodd" filter="url(#deepin-repair-tools-a)" transform="translate(4 4)">
    <mask id="deepin-repair-tools-d" fill="#fff">
      <use xlink:href="#deepin-repair-tools-b"/>
    </mask>
    <use fill="url(#deepin-repair-tools-c)" xlink:href="#deepin-repair-tools-b"/>
    <path fill="#538300" fill-opacity=".5" d="M50,7 L50,56 L47,56 L47,7 L50,7 Z M55,7 L55,56 L52,56 L52,7 L55,7 Z M45,7 L45,56 L42,56 L42,7 L45,7 Z M40,7 L40,56 L37,56 L37,7 L40,7 Z M35,7 L35,56 L32,56 L32,7 L35,7 Z M30,7 L30,56 L27,56 L27,7 L30,7 Z M25,7 L25,56 L22,56 L22,7 L25,7 Z M20,7 L20,56 L17,56 L17,7 L20,7 Z M15,7 L15,56 L12,56 L12,7 L15,7 Z M10,7 L10,56 L7,56 L7,7 L10,7 Z M5,7 L5,56 L2,56 L2,7 L5,7 Z" mask="url(#deepin-repair-tools-d)"/>
    <path fill="#538300" fill-opacity=".2" d="M47,7 L44.5071054,0 L47.1028522,0 L50,7 L47,7 Z M52,7 L48.8333501,0 L51.4290969,0 L55,7 L52,7 Z M42,7 L40.1808607,0 L42.7766075,0 L45,7 L42,7 Z M37,7 L35.854616,0 L38.4503628,0 L40,7 L37,7 Z M32,7 L31.5283713,0 L34.1241181,0 L35,7 L32,7 Z M27,7 L27.2021266,0 L29.7978734,0 L30,7 L27,7 Z M22,7 L22.8758819,0 L25.4716287,0 L25,7 L22,7 Z M17,7 L18.5496372,0 L21.145384,0 L20,7 L17,7 Z M12,7 L14.2233925,0 L16.8191393,0 L15,7 L12,7 Z M7,7 L9.89714781,0 L12.4928946,0 L10,7 L7,7 Z M2,7 L5.57090312,0 L8.16664993,0 L5,7 L2,7 Z" mask="url(#deepin-repair-tools-d)"/>
    <path fill="url(#deepin-repair-tools-e)" fill-rule="nonzero" d="M25.4450045,30.169 L25.5346211,30.2778251 C25.5985504,30.489094 25.696196,30.6894164 25.8254911,30.8706514 L25.9283643,31.0028716 L27.8220045,33.238 L20.868201,40.9995852 C20.8867067,41.1407672 20.897846,41.2475176 20.9016189,41.3198364 C20.9892764,43.000044 19.7081311,44.4293639 18.0355219,44.51742 C16.3629128,44.6054762 14.9400571,43.3185112 14.8523996,41.6383036 C14.7647421,39.9580961 16.048912,38.528617 17.7184966,38.44072 C17.7719603,38.4379054 17.8448568,38.4371586 17.937186,38.4384797 L18.0359928,38.4404901 L25.4450045,30.169 Z M27.6696657,13.2562437 L30.7024742,13.4692824 L29.1335359,15.0233882 C29.0034866,15.0701747 28.790897,15.1350616 28.6589229,15.1682383 C28.6589229,15.1682383 26.7425336,15.5937292 25.2226932,16.7023408 C23.7028528,17.8109525 23.2904421,19.718373 24.4549802,21.9633701 C25.138222,23.2805241 25.58402,23.7354019 26.5182706,24.7988482 C27.6107753,26.0424331 28.5794261,27.0346824 29.0002097,27.4577242 C29.1816479,27.4986922 29.3535804,27.589644 29.4934527,27.7300845 L41.8469965,40.133809 C42.6881801,40.9784096 42.7113857,42.3831231 41.9139894,43.2592161 C41.6693675,43.4883666 41.0652832,44.0003386 41.0652832,44.0003386 C40.1416033,44.748688 38.7611565,44.6106955 37.9917199,43.7022634 L26.6865401,30.35485 C26.5566244,30.2014657 26.4788062,30.0174149 26.4517718,29.8269596 C26.1124632,29.3991155 24.7988543,27.799358 22.0880639,25.1190955 C18.8859169,21.95301 18.34066,23.5487108 17.7504231,24.0736226 C17.1601862,24.5985345 17.2205347,25.0858923 17.2205347,25.0858923 C17.169357,25.3857121 16.9625351,25.787018 16.7306494,25.9815415 L15.7881657,26.7721693 C15.7004583,26.8151418 14.0573977,25.0543866 13.5362318,24.4717592 C13.0884985,23.9712245 12.3739,22.9694896 12.3739,22.9694896 C12.2922128,22.8567184 12.3034224,22.6853146 12.3959945,22.58335 C12.3959945,22.58335 13.2688281,21.5882986 13.5917932,21.5691596 C14.5396744,21.5129881 14.9783826,21.4244365 15.4428791,20.7135506 C15.9073756,20.0026648 15.9071667,19.4424251 16.1654392,19.0310339 C16.337153,18.7575184 17.7711908,16.9822343 19.8700082,15.7392839 C23.8960054,13.3550294 27.0213172,13.2109067 27.6696657,13.2562437 Z M17.4200275,39.9733415 L16.2928402,41.1875962 L16.7760638,42.7753336 L18.3864747,43.1488162 L19.513662,41.9345615 L19.0304384,40.3468241 L17.4200275,39.9733415 Z M41.0451302,15.8458228 L38.6595678,16.3122408 C37.366095,16.5648093 36.5034798,17.7770902 36.6672817,19.0661268 L36.693146,19.2275923 L36.6972866,19.2489907 C36.6975543,19.2503744 36.6978232,19.2517578 36.6980933,19.2531411 C36.9509656,20.5481693 38.1657089,21.4110115 39.4559818,21.2449198 L39.6175952,21.2187561 L42.446323,20.6663887 C41.9341912,22.744106 40.119733,24.3320119 37.8815918,24.4498411 C37.7737953,24.4555162 37.6666214,24.4576966 37.5601792,24.4564809 C37.3359582,24.4807352 37.1102767,24.490076 36.8847343,24.4844067 C36.1275339,24.4664582 35.3982537,24.7816984 34.8919778,25.3473884 L31.8780045,28.71 L30.1971905,27.0228076 C30.044701,26.8696986 29.8706722,26.7440865 29.6820793,26.6486785 L29.5380129,26.5828281 C29.3906914,26.4333187 29.2384267,26.2769674 29.0820751,26.1144228 L32.0599457,22.7873785 C32.56703,22.221646 32.8037457,21.4608839 32.7060189,20.7063293 C32.6693902,20.4230688 32.6562505,20.1371002 32.6667861,19.8516349 L32.6586593,19.7257278 C32.5150151,16.9723746 34.6205084,14.6233646 37.3614101,14.4790671 C38.779947,14.4043868 40.0906695,14.9348785 41.0451302,15.8458228 Z" mask="url(#deepin-repair-tools-d)"/>
  </g>
</svg>
