<svg xmlns="http://www.w3.org/2000/svg" xmlns:xlink="http://www.w3.org/1999/xlink" width="64" height="64" viewBox="0 0 64 64">
  <defs>
    <filter id="deepin-font-installer-a" width="156.2%" height="147.4%" x="-28.1%" y="-23.7%" filterUnits="objectBoundingBox">
      <feOffset dy="2" in="SourceAlpha" result="shadowOffsetOuter1"/>
      <feGaussianBlur in="shadowOffsetOuter1" result="shadowBlurOuter1" stdDeviation="2.5"/>
      <feComposite in="shadowBlurOuter1" in2="SourceAlpha" operator="out" result="shadowBlurOuter1"/>
      <feColorMatrix in="shadowBlurOuter1" result="shadowMatrixOuter1" values="0 0 0 0 0   0 0 0 0 0   0 0 0 0 0  0 0 0 0.2 0"/>
      <feMerge>
        <feMergeNode in="shadowMatrixOuter1"/>
        <feMergeNode in="SourceGraphic"/>
      </feMerge>
    </filter>
    <linearGradient id="deepin-font-installer-c" x1="14.543%" x2="86.875%" y1="0%" y2="101%">
      <stop offset="0%" stop-color="#FCE7FF"/>
      <stop offset="100%" stop-color="#9A8FFF"/>
    </linearGradient>
    <path id="deepin-font-installer-b" d="M0,5.93869141 C0,2.65884271 2.64906049,0 5.93388453,0 L42.0661155,0 C45.3433094,0 48,2.6538134 48,5.93869141 L48,51.0613086 C48,54.3411573 45.3509395,57 42.0661155,57 L5.93388453,57 C2.6566906,57 0,54.3461866 0,51.0613086 L0,5.93869141 Z"/>
    <path id="deepin-font-installer-e" d="M46,0 L46,0 L46,0 L46,7.06185567 C46,10.3414022 43.3414022,13 40.0618557,13 L3.53407842,13 C1.5822608,13 2.39028719e-16,11.4177392 0,9.46592158 C-2.39028719e-16,7.51410397 1.5822608,5.93184317 3.53407842,5.93184317 L40.0681568,5.93184317 C43.3442234,5.93184317 46,3.27606652 46,0 Z"/>
  </defs>
  <g fill="none" fill-rule="evenodd" filter="url(#deepin-font-installer-a)" transform="translate(8 3)">
    <mask id="deepin-font-installer-d" fill="#fff">
      <use xlink:href="#deepin-font-installer-b"/>
    </mask>
    <use fill="url(#deepin-font-installer-c)" xlink:href="#deepin-font-installer-b"/>
    <path fill="#000" fill-rule="nonzero" d="M11.2653061,42.2586207 L11.2653061,41.7672414 C13.1588538,41.7672414 14.6938776,40.2322177 14.6938776,38.33867 L14.6938776,11.7931034 L14.6938776,11.7931034 L11.2653061,11.7931034 L11.2653061,11.3017241 L34.2857143,11.3017241 L34.2857143,19.1637931 L33.7959184,19.1637931 C33.7959184,15.0930736 30.4959482,11.7931034 26.4252287,11.7931034 L19.5918367,11.7931034 L19.5918367,11.7931034 L19.5918367,25.5517241 L21.5351865,25.5517241 C24.2489995,25.5517241 26.4489796,23.351744 26.4489796,20.637931 L26.4489796,20.637931 L26.4489796,20.637931 L26.9387755,20.637931 L26.9387755,32.4310345 L26.4489796,32.4310345 C26.4489796,29.4458402 24.0290015,27.0258621 21.0438072,27.0258621 L19.5918367,27.0258621 L19.5918367,27.0258621 L19.5918367,37.848874 C19.5918367,40.0129286 21.3461496,41.7672414 23.5102041,41.7672414 L23.5102041,41.7672414 L23.5102041,41.7672414 L23.5102041,42.2586207 L11.2653061,42.2586207 Z" mask="url(#deepin-font-installer-d)"/>
    <g mask="url(#deepin-font-installer-d)">
      <g transform="translate(3 42)">
        <mask id="deepin-font-installer-f" fill="#fff">
          <use xlink:href="#deepin-font-installer-e"/>
        </mask>
        <path stroke="#000" stroke-opacity=".2" d="M46.5,0 L46.5,7.06185567 C46.5,10.6175446 43.6175446,13.5 40.0618557,13.5 L3.53407842,13.5 C1.30611843,13.5 -0.5,11.6938816 -0.5,9.46592158 C-0.5,7.23796159 1.30611843,5.43184317 3.53407842,5.43184317 L40.0681568,5.43184317 C43.068081,5.43184317 45.5,2.99992414 45.5,0 L46.5,0 Z"/>
        <path stroke="#6D41BF" d="M-0.288659794,7.5 L40.0618557,7.5 C43.3414022,7.5 46,4.84140223 46,1.56185567 L46,0.741304348 L46,0.741304348" mask="url(#deepin-font-installer-f)" opacity=".2"/>
        <path stroke="#6D41BF" d="M-0.288659794,9.5 L40.0618557,9.5 C43.3414022,9.5 46,6.84140223 46,3.56185567 L46,2.74130435 L46,2.74130435" mask="url(#deepin-font-installer-f)" opacity=".2"/>
        <path stroke="#6D41BF" d="M-0.288659794,11.5 L40.0618557,11.5 C43.3414022,11.5 46,8.84140223 46,5.56185567 L46,4.74130435 L46,4.74130435" mask="url(#deepin-font-installer-f)" opacity=".2"/>
      </g>
    </g>
  </g>
</svg>
